version 1
nodes
0 "root" -1
1 "pelvis" 0
2 "spine_01" 1
3 "spine_02" 2
4 "spine_03" 3
5 "clavicle_r" 4
6 "upperarm_r" 5
7 "lowerarm_r" 6
8 "hand_r" 7
9 "index_01_r" 8
10 "index_02_r" 9
11 "index_03_r" 10
12 "middle_01_r" 8
13 "middle_02_r" 12
14 "middle_03_r" 13
15 "pinky_01_r" 8
16 "pinky_02_r" 15
17 "pinky_03_r" 16
18 "ring_01_r" 8
19 "ring_02_r" 18
20 "ring_03_r" 19
21 "thumb_01_r" 8
22 "thumb_02_r" 21
23 "thumb_03_r" 22
24 "BaseMesh" 8
25 "Mag" 24
26 "Bullet.001" 25
27 "Bullet.002" 25
28 "Bullet.003" 25
29 "Bullet.004" 25
30 "Bullet.005" 25
31 "Bullet.006" 25
32 "Bullet.007" 25
33 "Bullet.008" 25
34 "Hammer" 24
35 "Trigger" 24
36 "Slide" 24
37 "rhand_ikTarget" 24
38 "LHand_IKtarget" 24
39 "lowerarm_twist_01_r" 7
40 "upperarm_twist_01_r" 6
41 "clavicle_l" 4
42 "upperarm_l" 41
43 "lowerarm_l" 42
44 "hand_l" 43
45 "index_01_l" 44
46 "index_02_l" 45
47 "index_03_l" 46
48 "middle_01_l" 44
49 "middle_02_l" 48
50 "middle_03_l" 49
51 "pinky_01_l" 44
52 "pinky_02_l" 51
53 "pinky_03_l" 52
54 "ring_01_l" 44
55 "ring_02_l" 54
56 "ring_03_l" 55
57 "thumb_01_l" 44
58 "thumb_02_l" 57
59 "thumb_03_l" 58
60 "BaseLeftMesh" 44
61 "lowerarm_twist_01_l" 43
62 "upperarm_twist_01_l" 42
63 "cam_driver" -1
64 "Base" -1
65 "MagLeft" 60
66 "BulletLeft.001" 65
67 "BulletLeft.002" 65
68 "BulletLeft.003" 65
69 "BulletLeft.004" 65
70 "BulletLeft.005" 65
71 "BulletLeft.006" 65
72 "BulletLeft.007" 65
73 "BulletLeft.008" 65
74 "HammerLeft" 60
75 "TriggerLeft" 60
76 "SlideLeft" 60
end
skeleton
time 0
0 -0.00000100 7.45008900 -27.50902600 0.00000000 0.00000000 0.00003100
1 -0.00000200 0.00000000 0.00000000 1.57074700 -1.56714200 -1.57074700
2 4.25546500 -0.33518400 -0.00000200 0.00000000 0.00000000 -0.12484800
3 7.43125000 1.49647900 0.00000200 0.00000000 0.00000000 0.24545000
4 5.27847900 0.16554300 0.00000100 0.00000000 0.00000000 0.04851100
5 3.45552600 -8.40060600 1.48897600 1.97586600 1.15990900 -1.29878500
6 -6.21447800 -0.00001000 -0.00002700 -3.01607174 -0.18756269 1.38329728
7 11.94488900 0.00000000 0.00000000 -0.05783328 -0.30883308 1.06759708
8 10.62019000 0.00000000 0.00000000 1.17881994 0.34338051 2.26815223
9 -4.75111000 -0.69449400 0.83057900 -0.12150500 -0.09833700 0.57634600
10 -1.68807600 0.00004300 -0.00003100 0.02023500 -0.01422900 0.48281900
11 -1.33614300 0.00005300 -0.00001000 0.02541900 0.00700600 0.28395600
12 -4.82049600 -0.50945900 -0.22476100 -0.37465000 -0.14949300 1.27843700
13 -1.82699200 -0.00007200 0.00000800 -0.00173800 0.04045700 1.23099700
14 -1.43657300 0.00000800 0.00000400 -0.06013400 -0.04938400 0.79162700
15 -3.99235900 -0.89118600 -1.82791000 -0.54885400 -0.02585500 1.13436800
16 -1.40592200 -0.00002700 0.00000000 -0.00511900 -0.02904800 1.04789600
17 -1.17535800 0.00012800 -0.00002100 0.06441700 0.02146300 1.15302800
18 -4.52675200 -0.69057500 -1.12074400 -0.48580200 -0.01282600 1.41345500
19 -1.74403800 0.00003300 -0.00000400 -0.02271800 -0.01889100 1.28837400
20 -1.36877400 0.00002500 0.00000400 0.03795400 0.03618700 0.70440900
21 -1.71880700 -1.28270900 0.93153500 1.99003400 0.63072200 0.83377400
22 -1.52344900 0.00003400 0.00003100 -0.19097800 0.11191200 0.75188300
23 -1.59927600 0.00000800 0.00001500 -0.07634400 -0.04309900 0.82700900
24 -4.65541300 -2.08811000 1.22829300 -0.14452500 -0.17768800 0.46154000
25 0.08480500 -0.01874300 1.05922900 0.00000000 0.00000200 0.00000000
26 -0.05186200 0.00000000 0.22393800 0.00000000 0.00000000 0.00000000
27 -0.01120900 0.00000000 -0.20764400 0.00000000 0.00000000 0.00000000
28 0.03379400 0.00000000 -0.69123200 0.00000000 0.00000000 0.00000000
29 0.07444900 -0.00000200 -1.12281400 0.00000000 0.00000000 0.00000000
30 0.16363000 -0.00000200 -1.60658200 0.00000000 0.00000000 0.00000000
31 0.20428600 -0.00000200 -2.03816500 0.00000000 0.00000000 0.00000000
32 0.29346800 -0.00000400 -2.50245800 0.00000000 0.00000000 0.00000000
33 0.33412000 -0.00000300 -2.93404000 0.00000000 0.00000000 0.00000000
34 1.74595800 -0.00969100 0.75846600 0.00000000 0.92497500 0.00000000
35 -1.76192100 -0.00968800 0.39034300 0.00000000 0.00000200 0.00000000
36 -1.18703600 -0.00968600 1.46037700 0.00000000 0.00000200 0.00000000
37 4.80067700 0.10232700 -2.11768000 0.36343400 1.10681600 1.58888100
38 4.62182800 -7.32481600 -3.09430200 2.26005400 -1.25599500 -0.78570500
39 5.51182400 0.00000800 -0.00000400 2.24315294 0.00021206 3.14149451
40 0.19684600 -0.00000100 0.00000400 2.79340698 -0.00021881 -3.14153255
41 3.45552600 -8.40060500 -1.48897700 1.97586200 1.15991000 1.84280300
42 6.21448500 0.00001000 0.00002000 -0.21008311 0.51403275 -1.68242894
43 11.94488500 -0.00003200 -0.00019900 0.80178232 -0.29922562 -1.11635594
44 10.62016900 -0.00000200 0.00000800 -2.28514169 -0.09278389 0.62865287
45 4.75116500 0.69437600 -0.83047400 -0.05602700 -0.27916300 0.54604800
46 1.68806100 -0.00002400 0.00000200 0.01539000 -0.01932400 0.76600700
47 1.33615100 -0.00005000 -0.00001000 -0.01007300 -0.03740000 0.63314200
48 4.82051700 0.50934200 0.22486600 -0.38635900 -0.32224200 1.31634500
49 1.82700300 0.00006200 0.00001000 0.00532100 0.04007200 1.40562400
50 1.43658100 -0.00000600 0.00001000 0.00550100 -0.01410000 0.47001900
51 3.99235500 0.89109000 1.82799500 -0.58933300 -0.17444000 1.37036700
52 1.40592200 0.00003100 -0.00000400 -0.01592500 -0.02486000 1.44468600
53 1.17536200 -0.00013200 0.00000400 0.07309900 0.09934300 0.59118900
54 4.52676200 0.69046800 1.12084200 -0.53033700 -0.21677300 1.47781800
55 1.74404100 -0.00002700 0.00000100 -0.01060600 -0.01195600 1.52693200
56 1.36876300 -0.00003100 -0.00002000 -0.04234600 0.13643200 0.27748300
57 1.86460300 0.94986100 -0.98556900 2.14553200 0.46719600 1.11152000
58 1.52345700 -0.00003100 0.00000000 -0.46017900 -0.05709800 0.78018400
59 1.59927700 -0.00000400 0.00001000 0.07977600 -0.02452500 1.12383700
60 4.59607700 2.16916400 -1.03603900 -3.09579600 0.29426500 -2.76858200
61 5.51180800 -0.00000600 0.00000400 -0.23579700 0.00000500 0.00000700
62 0.19684600 0.00000600 0.00000000 -0.34822500 0.00001500 -0.00000200
63 0.00000000 0.00000000 0.00000000 0.00000000 0.00000000 -1.57079600
64 -1.28584300 -20.23698200 -1.97068800 0.56507000 -0.00251900 1.56925600
65 0.08480500 -0.01874400 1.05923200 0.00000000 0.00000000 0.00000000
66 -0.05186100 0.00000000 0.22393900 0.00000000 0.00000000 0.00000000
67 -0.01120900 0.00000000 -0.20764500 0.00000000 0.00000000 0.00000000
68 0.03379600 0.00000000 -0.69123300 0.00000000 0.00000000 0.00000000
69 0.07445000 0.00000000 -1.12281700 0.00000000 0.00000000 0.00000000
70 0.16363200 0.00000000 -1.60658600 0.00000000 0.00000000 0.00000000
71 0.20428800 0.00000000 -2.03817100 0.00000000 0.00000000 0.00000000
72 0.29347100 0.00000100 -2.50246400 0.00000000 0.00000000 0.00000000
73 0.33412500 0.00000000 -2.93404800 0.00000000 0.00000000 0.00000000
74 1.74595700 -0.00968900 0.75846700 0.00000000 0.92497500 0.00000000
75 -1.76192800 -0.00968900 0.39034500 0.00000000 0.00000000 0.00000000
76 -1.18703800 -0.00968900 1.46038000 0.00000000 0.00000000 0.00000000
time 1
0 -0.00000100 7.45008900 -27.50902600 0.00000000 0.00000000 0.00003100
1 -0.00000200 0.00000000 0.00000000 1.57074700 -1.56714200 -1.57074700
2 4.25546500 -0.33518400 -0.00000200 0.00000000 0.00000000 -0.12484800
3 7.43125000 1.49647900 0.00000200 0.00000000 0.00000000 0.24545000
4 5.27847900 0.16554300 0.00000100 0.00000000 0.00000000 0.04851100
5 3.30718900 -8.49202300 1.48897600 1.97586600 1.15990900 -1.29878500
6 -6.21447800 -0.00001000 -0.00002700 -2.99582792 -0.20118861 1.40081490
7 11.94488900 0.00000000 0.00000000 -0.07687207 -0.31808650 1.12938878
8 10.62019000 0.00000000 0.00000000 1.17162748 0.33269847 2.22751822
9 -4.75111000 -0.69449400 0.83057900 -0.12150500 -0.09833700 0.57634600
10 -1.68807600 0.00004300 -0.00003100 0.02023500 -0.01422900 0.48281900
11 -1.33614300 0.00005300 -0.00001000 0.02541900 0.00700600 0.28395600
12 -4.82049600 -0.50945900 -0.22476100 -0.37465000 -0.14949300 1.27843700
13 -1.82699200 -0.00007200 0.00000800 -0.00173800 0.04045700 1.23099700
14 -1.43657300 0.00000800 0.00000400 -0.06013400 -0.04938400 0.79162700
15 -3.99235900 -0.89118600 -1.82791000 -0.54885400 -0.02585500 1.13436800
16 -1.40592200 -0.00002700 0.00000000 -0.00511900 -0.02904800 1.04789600
17 -1.17535800 0.00012800 -0.00002100 0.06441700 0.02146300 1.15302800
18 -4.52675200 -0.69057500 -1.12074400 -0.48580200 -0.01282600 1.41345500
19 -1.74403800 0.00003300 -0.00000400 -0.02271800 -0.01889100 1.28837400
20 -1.36877400 0.00002500 0.00000400 0.03795400 0.03618700 0.70440900
21 -1.71880700 -1.28270900 0.93153500 1.99003400 0.63072200 0.83377400
22 -1.52344900 0.00003400 0.00003100 -0.19097800 0.11191200 0.75188300
23 -1.59927600 0.00000800 0.00001500 -0.07634400 -0.04309900 0.82700900
24 -4.65541300 -2.08811000 1.22829300 -0.14452500 -0.17768800 0.46154000
25 0.08480500 -0.01874300 1.05922900 0.00000000 0.00000200 0.00000000
26 -0.05186200 0.00000000 0.22393800 0.00000000 0.00000000 0.00000000
27 -0.01120900 0.00000000 -0.20764400 0.00000000 0.00000000 0.00000000
28 0.03379400 0.00000000 -0.69123200 0.00000000 0.00000000 0.00000000
29 0.07444900 -0.00000200 -1.12281400 0.00000000 0.00000000 0.00000000
30 0.16363000 -0.00000200 -1.60658200 0.00000000 0.00000000 0.00000000
31 0.20428600 -0.00000200 -2.03816500 0.00000000 0.00000000 0.00000000
32 0.29346800 -0.00000400 -2.50245800 0.00000000 0.00000000 0.00000000
33 0.33412000 -0.00000300 -2.93404000 0.00000000 0.00000000 0.00000000
34 1.74595800 -0.00969100 0.75846600 0.00000000 0.92497500 0.00000000
35 -1.76192100 -0.00968800 0.39034300 0.00000000 0.00000200 0.00000000
36 -1.18703600 -0.00968600 1.46037700 0.00000000 0.00000200 0.00000000
37 4.80067700 0.10232700 -2.11768000 0.36343400 1.10681600 1.58888100
38 4.52147100 -7.48994700 -3.06126800 2.38741700 -1.22566100 -0.92216300
39 5.51182400 0.00000800 -0.00000400 2.24315294 0.00021206 3.14149451
40 0.19684600 -0.00000100 0.00000400 2.79340698 -0.00021881 -3.14153255
41 3.30718900 -8.49202300 -1.48897700 1.97586200 1.15991000 1.84280300
42 6.21448500 0.00001000 0.00002000 -0.23205611 0.52802714 -1.66577992
43 11.94488500 -0.00003200 -0.00019900 0.77624606 -0.30830113 -1.17470071
44 10.62016900 -0.00000200 0.00000800 -2.23578335 -0.08631317 0.61639208
45 4.75116500 0.69437600 -0.83047400 -0.05602700 -0.27916300 0.54604800
46 1.68806100 -0.00002400 0.00000200 0.01539000 -0.01932400 0.76600700
47 1.33615100 -0.00005000 -0.00001000 -0.01007300 -0.03740000 0.63314200
48 4.82051700 0.50934200 0.22486600 -0.38635900 -0.32224200 1.31634500
49 1.82700300 0.00006200 0.00001000 0.00532100 0.04007200 1.40562400
50 1.43658100 -0.00000600 0.00001000 0.00550100 -0.01410000 0.47001900
51 3.99235500 0.89109000 1.82799500 -0.58933300 -0.17444000 1.37036700
52 1.40592200 0.00003100 -0.00000400 -0.01592500 -0.02486000 1.44468600
53 1.17536200 -0.00013200 0.00000400 0.07309900 0.09934300 0.59118900
54 4.52676200 0.69046800 1.12084200 -0.53033700 -0.21677300 1.47781800
55 1.74404100 -0.00002700 0.00000100 -0.01060600 -0.01195600 1.52693200
56 1.36876300 -0.00003100 -0.00002000 -0.04234600 0.13643200 0.27748300
57 1.86460300 0.94986100 -0.98556900 2.14553200 0.46719600 1.11152000
58 1.52345700 -0.00003100 0.00000000 -0.46017900 -0.05709800 0.78018400
59 1.59927700 -0.00000400 0.00001000 0.07977600 -0.02452500 1.12383700
60 4.59607700 2.16916400 -1.03603900 -3.09579600 0.29426500 -2.76858200
61 5.51180800 -0.00000600 0.00000400 -0.23579700 0.00000500 0.00000700
62 0.19684600 0.00000600 0.00000000 -0.34822500 0.00001500 -0.00000200
63 0.00000000 0.00000000 0.00000000 0.00000000 0.00000000 -1.57079600
64 -1.45045500 -19.98817600 -1.94798200 0.53349700 -0.00537600 1.57147531
65 0.08480500 -0.01874400 1.05923200 0.00000000 0.00000000 0.00000000
66 -0.05186100 0.00000000 0.22393900 0.00000000 0.00000000 0.00000000
67 -0.01120900 0.00000000 -0.20764500 0.00000000 0.00000000 0.00000000
68 0.03379600 0.00000000 -0.69123300 0.00000000 0.00000000 0.00000000
69 0.07445000 0.00000000 -1.12281700 0.00000000 0.00000000 0.00000000
70 0.16363200 0.00000000 -1.60658600 0.00000000 0.00000000 0.00000000
71 0.20428800 0.00000000 -2.03817100 0.00000000 0.00000000 0.00000000
72 0.29347100 0.00000100 -2.50246400 0.00000000 0.00000000 0.00000000
73 0.33412500 0.00000000 -2.93404800 0.00000000 0.00000000 0.00000000
74 1.74595700 -0.00968900 0.75846700 0.00000000 0.92497500 0.00000000
75 -1.76192800 -0.00968900 0.39034500 0.00000000 0.00000000 0.00000000
76 -1.18703800 -0.00968900 1.46038000 0.00000000 0.00000000 0.00000000
time 2
0 -0.00000100 7.45008900 -27.50902600 0.00000000 0.00000000 0.00003100
1 -0.00000200 0.00000000 0.00000000 1.57074700 -1.56714200 -1.57074700
2 4.25546500 -0.33518400 -0.00000200 0.00000000 0.00000000 -0.12484800
3 7.43125000 1.49647900 0.00000200 0.00000000 0.00000000 0.24545000
4 5.27847900 0.16554300 0.00000100 0.00000000 0.00000000 0.04851100
5 2.90455800 -8.74015200 1.48897600 1.97586600 1.15990900 -1.29878500
6 -6.21447800 -0.00001000 -0.00002700 -2.93704098 -0.23875444 1.43868566
7 11.94488900 0.00000000 0.00000000 -0.12717356 -0.33626250 1.28571219
8 10.62019000 0.00000000 0.00000000 1.16904638 0.30666709 2.13068759
9 -4.75111000 -0.69449400 0.83057900 -0.12150500 -0.09833700 0.57634600
10 -1.68807600 0.00004300 -0.00003100 0.02023500 -0.01422900 0.48281900
11 -1.33614300 0.00005300 -0.00001000 0.02541900 0.00700600 0.28395600
12 -4.82049600 -0.50945900 -0.22476100 -0.37465000 -0.14949300 1.27843700
13 -1.82699200 -0.00007200 0.00000800 -0.00173800 0.04045700 1.23099700
14 -1.43657300 0.00000800 0.00000400 -0.06013400 -0.04938400 0.79162700
15 -3.99235900 -0.89118600 -1.82791000 -0.54885400 -0.02585500 1.13436800
16 -1.40592200 -0.00002700 0.00000000 -0.00511900 -0.02904800 1.04789600
17 -1.17535800 0.00012800 -0.00002100 0.06441700 0.02146300 1.15302800
18 -4.52675200 -0.69057500 -1.12074400 -0.48580200 -0.01282600 1.41345500
19 -1.74403800 0.00003300 -0.00000400 -0.02271800 -0.01889100 1.28837400
20 -1.36877400 0.00002500 0.00000400 0.03795400 0.03618700 0.70440900
21 -1.71880700 -1.28270900 0.93153500 1.99003400 0.63072200 0.83377400
22 -1.52344900 0.00003400 0.00003100 -0.19097800 0.11191200 0.75188300
23 -1.59927600 0.00000800 0.00001500 -0.07634400 -0.04309900 0.82700900
24 -4.65541300 -2.08811000 1.22829300 -0.14452500 -0.17768800 0.46154000
25 0.08480500 -0.01874300 1.05922900 0.00000000 0.00000200 0.00000000
26 -0.05186200 0.00000000 0.22393800 0.00000000 0.00000000 0.00000000
27 -0.01120900 0.00000000 -0.20764400 0.00000000 0.00000000 0.00000000
28 0.03379400 0.00000000 -0.69123200 0.00000000 0.00000000 0.00000000
29 0.07444900 -0.00000200 -1.12281400 0.00000000 0.00000000 0.00000000
30 0.16363000 -0.00000200 -1.60658200 0.00000000 0.00000000 0.00000000
31 0.20428600 -0.00000200 -2.03816500 0.00000000 0.00000000 0.00000000
32 0.29346800 -0.00000400 -2.50245800 0.00000000 0.00000000 0.00000000
33 0.33412000 -0.00000300 -2.93404000 0.00000000 0.00000000 0.00000000
34 1.74595800 -0.00969100 0.75846600 0.00000000 0.92497500 0.00000000
35 -1.76192100 -0.00968800 0.39034300 0.00000000 0.00000200 0.00000000
36 -1.18703600 -0.00968600 1.46037700 0.00000000 0.00000200 0.00000000
37 4.80067700 0.10232700 -2.11768000 0.36343400 1.10681600 1.58888100
38 4.23308600 -7.98127500 -3.09964300 2.59990000 -1.11411500 -1.16693200
39 5.51182400 0.00000800 -0.00000400 2.24315294 0.00021206 3.14149451
40 0.19684600 -0.00000100 0.00000400 2.79340698 -0.00021881 -3.14153255
41 2.90455800 -8.74015200 -1.48897700 1.97586200 1.15991000 1.84280300
42 6.21448500 0.00001000 0.00002000 -0.29396216 0.56610755 -1.63133942
43 11.94488500 -0.00003200 -0.00019900 0.70352816 -0.32608846 -1.31817425
44 10.62016900 -0.00000200 0.00000800 -2.10857598 -0.07826478 0.59078926
45 4.75116500 0.69437600 -0.83047400 -0.05602700 -0.27916300 0.54604800
46 1.68806100 -0.00002400 0.00000200 0.01539000 -0.01932400 0.76600700
47 1.33615100 -0.00005000 -0.00001000 -0.01007300 -0.03740000 0.63314200
48 4.82051700 0.50934200 0.22486600 -0.38635900 -0.32224200 1.31634500
49 1.82700300 0.00006200 0.00001000 0.00532100 0.04007200 1.40562400
50 1.43658100 -0.00000600 0.00001000 0.00550100 -0.01410000 0.47001900
51 3.99235500 0.89109000 1.82799500 -0.58933300 -0.17444000 1.37036700
52 1.40592200 0.00003100 -0.00000400 -0.01592500 -0.02486000 1.44468600
53 1.17536200 -0.00013200 0.00000400 0.07309900 0.09934300 0.59118900
54 4.52676200 0.69046800 1.12084200 -0.53033700 -0.21677300 1.47781800
55 1.74404100 -0.00002700 0.00000100 -0.01060600 -0.01195600 1.52693200
56 1.36876300 -0.00003100 -0.00002000 -0.04234600 0.13643200 0.27748300
57 1.86460300 0.94986100 -0.98556900 2.14553200 0.46719600 1.11152000
58 1.52345700 -0.00003100 0.00000000 -0.46017900 -0.05709800 0.78018400
59 1.59927700 -0.00000400 0.00001000 0.07977600 -0.02452500 1.12383700
60 4.59607700 2.16916400 -1.03603900 -3.09579600 0.29426500 -2.76858200
61 5.51180800 -0.00000600 0.00000400 -0.23579700 0.00000500 0.00000700
62 0.19684600 0.00000600 0.00000000 -0.34822500 0.00001500 -0.00000200
63 0.00000000 0.00000000 0.00000000 0.00000000 0.00000000 -1.57079600
64 -1.89123400 -19.30481900 -1.89346300 0.44882300 -0.01161600 1.57823931
65 0.08480500 -0.01874400 1.05923200 0.00000000 0.00000000 0.00000000
66 -0.05186100 0.00000000 0.22393900 0.00000000 0.00000000 0.00000000
67 -0.01120900 0.00000000 -0.20764500 0.00000000 0.00000000 0.00000000
68 0.03379600 0.00000000 -0.69123300 0.00000000 0.00000000 0.00000000
69 0.07445000 0.00000000 -1.12281700 0.00000000 0.00000000 0.00000000
70 0.16363200 0.00000000 -1.60658600 0.00000000 0.00000000 0.00000000
71 0.20428800 0.00000000 -2.03817100 0.00000000 0.00000000 0.00000000
72 0.29347100 0.00000100 -2.50246400 0.00000000 0.00000000 0.00000000
73 0.33412500 0.00000000 -2.93404800 0.00000000 0.00000000 0.00000000
74 1.74595700 -0.00968900 0.75846700 0.00000000 0.92497500 0.00000000
75 -1.76192800 -0.00968900 0.39034500 0.00000000 0.00000000 0.00000000
76 -1.18703800 -0.00968900 1.46038000 0.00000000 0.00000000 0.00000000
time 3
0 -0.00000100 7.45008900 -27.50902600 0.00000000 0.00000000 0.00003100
1 -0.00000200 0.00000000 0.00000000 1.57074700 -1.56714200 -1.57074700
2 4.25546500 -0.33518400 -0.00000200 0.00000000 0.00000000 -0.12484800
3 7.43125000 1.49647900 0.00000200 0.00000000 0.00000000 0.24545000
4 5.27847900 0.16554300 0.00000100 0.00000000 0.00000000 0.04851100
5 2.31120800 -9.10581800 1.48897600 1.97586600 1.15990900 -1.29878500
6 -6.21447800 -0.00001000 -0.00002700 -2.84225936 -0.29440117 1.46856858
7 11.94488900 0.00000000 0.00000000 -0.19678972 -0.34831731 1.49241240
8 10.62019000 0.00000000 0.00000000 1.18160614 0.27623452 2.00004697
9 -4.75111000 -0.69449400 0.83057900 -0.12150500 -0.09833700 0.57634600
10 -1.68807600 0.00004300 -0.00003100 0.02023500 -0.01422900 0.48281900
11 -1.33614300 0.00005300 -0.00001000 0.02541900 0.00700600 0.28395600
12 -4.82049600 -0.50945900 -0.22476100 -0.37465000 -0.14949300 1.27843700
13 -1.82699200 -0.00007200 0.00000800 -0.00173800 0.04045700 1.23099700
14 -1.43657300 0.00000800 0.00000400 -0.06013400 -0.04938400 0.79162700
15 -3.99235900 -0.89118600 -1.82791000 -0.54885400 -0.02585500 1.13436800
16 -1.40592200 -0.00002700 0.00000000 -0.00511900 -0.02904800 1.04789600
17 -1.17535800 0.00012800 -0.00002100 0.06441700 0.02146300 1.15302800
18 -4.52675200 -0.69057500 -1.12074400 -0.48580200 -0.01282600 1.41345500
19 -1.74403800 0.00003300 -0.00000400 -0.02271800 -0.01889100 1.28837400
20 -1.36877400 0.00002500 0.00000400 0.03795400 0.03618700 0.70440900
21 -1.71880700 -1.28270900 0.93153500 1.99003400 0.63072200 0.83377400
22 -1.52344900 0.00003400 0.00003100 -0.19097800 0.11191200 0.75188300
23 -1.59927600 0.00000800 0.00001500 -0.07634400 -0.04309900 0.82700900
24 -4.65541300 -2.08811000 1.22829300 -0.14452500 -0.17768800 0.46154000
25 0.08480500 -0.01874300 1.05922900 0.00000000 0.00000200 0.00000000
26 -0.05186200 0.00000000 0.22393800 0.00000000 0.00000000 0.00000000
27 -0.01120900 0.00000000 -0.20764400 0.00000000 0.00000000 0.00000000
28 0.03379400 0.00000000 -0.69123200 0.00000000 0.00000000 0.00000000
29 0.07444900 -0.00000200 -1.12281400 0.00000000 0.00000000 0.00000000
30 0.16363000 -0.00000200 -1.60658200 0.00000000 0.00000000 0.00000000
31 0.20428600 -0.00000200 -2.03816500 0.00000000 0.00000000 0.00000000
32 0.29346800 -0.00000400 -2.50245800 0.00000000 0.00000000 0.00000000
33 0.33412000 -0.00000300 -2.93404000 0.00000000 0.00000000 0.00000000
34 1.74595800 -0.00969100 0.75846600 0.00000000 0.92497500 0.00000000
35 -1.76192100 -0.00968800 0.39034300 0.00000000 0.00000200 0.00000000
36 -1.18703600 -0.00968600 1.46037700 0.00000000 0.00000200 0.00000000
37 4.80067700 0.10232700 -2.11768000 0.36343400 1.10681600 1.58888100
38 3.76137200 -8.73868800 -3.48129500 2.70721600 -0.91226900 -1.33707200
39 5.51182400 0.00000800 -0.00000400 2.24315294 0.00021206 3.14149451
40 0.19684600 -0.00000100 0.00000400 2.79340698 -0.00021881 -3.14153255
41 2.31120900 -9.10581900 -1.48897700 1.97586200 1.15991000 1.84280300
42 6.21448500 0.00001000 0.00002000 -0.38842189 0.62046297 -1.60517190
43 11.94488500 -0.00003200 -0.00019900 0.58927836 -0.33938232 -1.49892358
44 10.62016900 -0.00000200 0.00000800 -1.94384839 -0.09000861 0.56640132
45 4.75116500 0.69437600 -0.83047400 -0.05602700 -0.27916300 0.54604800
46 1.68806100 -0.00002400 0.00000200 0.01539000 -0.01932400 0.76600700
47 1.33615100 -0.00005000 -0.00001000 -0.01007300 -0.03740000 0.63314200
48 4.82051700 0.50934200 0.22486600 -0.38635900 -0.32224200 1.31634500
49 1.82700300 0.00006200 0.00001000 0.00532100 0.04007200 1.40562400
50 1.43658100 -0.00000600 0.00001000 0.00550100 -0.01410000 0.47001900
51 3.99235500 0.89109000 1.82799500 -0.58933300 -0.17444000 1.37036700
52 1.40592200 0.00003100 -0.00000400 -0.01592500 -0.02486000 1.44468600
53 1.17536200 -0.00013200 0.00000400 0.07309900 0.09934300 0.59118900
54 4.52676200 0.69046800 1.12084200 -0.53033700 -0.21677300 1.47781800
55 1.74404100 -0.00002700 0.00000100 -0.01060600 -0.01195600 1.52693200
56 1.36876300 -0.00003100 -0.00002000 -0.04234600 0.13643200 0.27748300
57 1.86460300 0.94986100 -0.98556900 2.14553200 0.46719600 1.11152000
58 1.52345700 -0.00003100 0.00000000 -0.46017900 -0.05709800 0.78018400
59 1.59927700 -0.00000400 0.00001000 0.07977600 -0.02452500 1.12383700
60 4.59607700 2.16916400 -1.03603900 -3.09579600 0.29426500 -2.76858200
61 5.51180800 -0.00000600 0.00000400 -0.23579700 0.00000500 0.00000700
62 0.19684600 0.00000600 0.00000000 -0.34822500 0.00001500 -0.00000200
63 0.00000000 0.00000000 0.00000000 0.00000000 0.00000000 -1.57079600
64 -2.52859400 -18.28151100 -1.82752900 0.32589500 -0.01773000 1.58870431
65 0.08480500 -0.01874400 1.05923200 0.00000000 0.00000000 0.00000000
66 -0.05186100 0.00000000 0.22393900 0.00000000 0.00000000 0.00000000
67 -0.01120900 0.00000000 -0.20764500 0.00000000 0.00000000 0.00000000
68 0.03379600 0.00000000 -0.69123300 0.00000000 0.00000000 0.00000000
69 0.07445000 0.00000000 -1.12281700 0.00000000 0.00000000 0.00000000
70 0.16363200 0.00000000 -1.60658600 0.00000000 0.00000000 0.00000000
71 0.20428800 0.00000000 -2.03817100 0.00000000 0.00000000 0.00000000
72 0.29347100 0.00000100 -2.50246400 0.00000000 0.00000000 0.00000000
73 0.33412500 0.00000000 -2.93404800 0.00000000 0.00000000 0.00000000
74 1.74595700 -0.00968900 0.75846700 0.00000000 0.92497500 0.00000000
75 -1.76192800 -0.00968900 0.39034500 0.00000000 0.00000000 0.00000000
76 -1.18703800 -0.00968900 1.46038000 0.00000000 0.00000000 0.00000000
time 4
0 -0.00000100 7.45008900 -27.50902600 0.00000000 0.00000000 0.00003100
1 -0.00000200 0.00000000 0.00000000 1.57074700 -1.56714200 -1.57074700
2 4.25546500 -0.33518400 -0.00000200 0.00000000 0.00000000 -0.12484800
3 7.43125000 1.49647900 0.00000200 0.00000000 0.00000000 0.24545000
4 5.27847900 0.16554300 0.00000100 0.00000000 0.00000000 0.04851100
5 1.59071200 -9.54984100 1.48897600 1.97586600 1.15990900 -1.29878500
6 -6.21447800 -0.00001000 -0.00002700 -2.71507386 -0.35603352 1.46546753
7 11.94488900 0.00000000 0.00000000 -0.27247145 -0.34593647 1.71401815
8 10.62019000 0.00000000 0.00000000 1.21192441 0.25217459 1.84582040
9 -4.75111000 -0.69449400 0.83057900 -0.12150500 -0.09833700 0.57634600
10 -1.68807600 0.00004300 -0.00003100 0.02023500 -0.01422900 0.48281900
11 -1.33614300 0.00005300 -0.00001000 0.02541900 0.00700600 0.28395600
12 -4.82049600 -0.50945900 -0.22476100 -0.37465000 -0.14949300 1.27843700
13 -1.82699200 -0.00007200 0.00000800 -0.00173800 0.04045700 1.23099700
14 -1.43657300 0.00000800 0.00000400 -0.06013400 -0.04938400 0.79162700
15 -3.99235900 -0.89118600 -1.82791000 -0.54885400 -0.02585500 1.13436800
16 -1.40592200 -0.00002700 0.00000000 -0.00511900 -0.02904800 1.04789600
17 -1.17535800 0.00012800 -0.00002100 0.06441700 0.02146300 1.15302800
18 -4.52675200 -0.69057500 -1.12074400 -0.48580200 -0.01282600 1.41345500
19 -1.74403800 0.00003300 -0.00000400 -0.02271800 -0.01889100 1.28837400
20 -1.36877400 0.00002500 0.00000400 0.03795400 0.03618700 0.70440900
21 -1.71880700 -1.28270900 0.93153500 1.99003400 0.63072200 0.83377400
22 -1.52344900 0.00003400 0.00003100 -0.19097800 0.11191200 0.75188300
23 -1.59927600 0.00000800 0.00001500 -0.07634400 -0.04309900 0.82700900
24 -4.65541300 -2.08811000 1.22829300 -0.14452500 -0.17768800 0.46154000
25 0.08480500 -0.01874300 1.05922900 0.00000000 0.00000200 0.00000000
26 -0.05186200 0.00000000 0.22393800 0.00000000 0.00000000 0.00000000
27 -0.01120900 0.00000000 -0.20764400 0.00000000 0.00000000 0.00000000
28 0.03379400 0.00000000 -0.69123200 0.00000000 0.00000000 0.00000000
29 0.07444900 -0.00000200 -1.12281400 0.00000000 0.00000000 0.00000000
30 0.16363000 -0.00000200 -1.60658200 0.00000000 0.00000000 0.00000000
31 0.20428600 -0.00000200 -2.03816500 0.00000000 0.00000000 0.00000000
32 0.29346800 -0.00000400 -2.50245800 0.00000000 0.00000000 0.00000000
33 0.33412000 -0.00000300 -2.93404000 0.00000000 0.00000000 0.00000000
34 1.74595800 -0.00969100 0.75846600 0.00000000 0.92497500 0.00000000
35 -1.76192100 -0.00968800 0.39034300 0.00000000 0.00000200 0.00000000
36 -1.18703600 -0.00968600 1.46037700 0.00000000 0.00000200 0.00000000
37 4.80067700 0.10232700 -2.11768000 0.36343400 1.10681600 1.58888100
38 3.08866400 -9.53027200 -4.43092200 2.68592700 -0.63740600 -1.41420700
39 5.51182400 0.00000800 -0.00000400 2.24315294 0.00021206 3.14149451
40 0.19684600 -0.00000100 0.00000400 2.79340698 -0.00021881 -3.14153255
41 1.59071200 -9.54984100 -1.48897700 1.97586200 1.15991000 1.84280300
42 6.21448500 0.00001000 0.00002000 -0.50061243 0.68025457 -1.60467384
43 11.94488500 -0.00003200 -0.00019900 0.44258259 -0.34257436 -1.67899101
44 10.62016900 -0.00000200 0.00000800 -1.77954181 -0.15364781 0.53254238
45 4.75116500 0.69437600 -0.83047400 -0.05602700 -0.27916300 0.54604800
46 1.68806100 -0.00002400 0.00000200 0.01539000 -0.01932400 0.76600700
47 1.33615100 -0.00005000 -0.00001000 -0.01007300 -0.03740000 0.63314200
48 4.82051700 0.50934200 0.22486600 -0.38635900 -0.32224200 1.31634500
49 1.82700300 0.00006200 0.00001000 0.00532100 0.04007200 1.40562400
50 1.43658100 -0.00000600 0.00001000 0.00550100 -0.01410000 0.47001900
51 3.99235500 0.89109000 1.82799500 -0.58933300 -0.17444000 1.37036700
52 1.40592200 0.00003100 -0.00000400 -0.01592500 -0.02486000 1.44468600
53 1.17536200 -0.00013200 0.00000400 0.07309900 0.09934300 0.59118900
54 4.52676200 0.69046800 1.12084200 -0.53033700 -0.21677300 1.47781800
55 1.74404100 -0.00002700 0.00000100 -0.01060600 -0.01195600 1.52693200
56 1.36876300 -0.00003100 -0.00002000 -0.04234600 0.13643200 0.27748300
57 1.86460300 0.94986100 -0.98556900 2.14553200 0.46719600 1.11152000
58 1.52345700 -0.00003100 0.00000000 -0.46017900 -0.05709800 0.78018400
59 1.59927700 -0.00000400 0.00001000 0.07977600 -0.02452500 1.12383700
60 4.59607700 2.16916400 -1.03603900 -3.09579600 0.29426500 -2.76858200
61 5.51180800 -0.00000600 0.00000400 -0.23579700 0.00000500 0.00000700
62 0.19684600 0.00000600 0.00000000 -0.34822500 0.00001500 -0.00000200
63 0.00000000 0.00000000 0.00000000 0.00000000 0.00000000 -1.57079600
64 -3.28294600 -17.01284200 -1.77057900 0.18204400 -0.01983400 1.60097531
65 0.08480500 -0.01874400 1.05923200 0.00000000 0.00000000 0.00000000
66 -0.05186100 0.00000000 0.22393900 0.00000000 0.00000000 0.00000000
67 -0.01120900 0.00000000 -0.20764500 0.00000000 0.00000000 0.00000000
68 0.03379600 0.00000000 -0.69123300 0.00000000 0.00000000 0.00000000
69 0.07445000 0.00000000 -1.12281700 0.00000000 0.00000000 0.00000000
70 0.16363200 0.00000000 -1.60658600 0.00000000 0.00000000 0.00000000
71 0.20428800 0.00000000 -2.03817100 0.00000000 0.00000000 0.00000000
72 0.29347100 0.00000100 -2.50246400 0.00000000 0.00000000 0.00000000
73 0.33412500 0.00000000 -2.93404800 0.00000000 0.00000000 0.00000000
74 1.74595700 -0.00968900 0.75846700 0.00000000 0.92497500 0.00000000
75 -1.76192800 -0.00968900 0.39034500 0.00000000 0.00000000 0.00000000
76 -1.18703800 -0.00968900 1.46038000 0.00000000 0.00000000 0.00000000
time 5
0 -0.00000100 7.45008900 -27.50902600 0.00000000 0.00000000 0.00003100
1 -0.00000200 0.00000000 0.00000000 1.57074700 -1.56714200 -1.57074700
2 4.25546500 -0.33518400 -0.00000200 0.00000000 0.00000000 -0.12484800
3 7.43125000 1.49647900 0.00000200 0.00000000 0.00000000 0.24545000
4 5.27847900 0.16554300 0.00000100 0.00000000 0.00000000 0.04851100
5 0.80664300 -10.03304000 1.48897600 1.97586600 1.15990900 -1.29878500
6 -6.21447800 -0.00001000 -0.00002700 -2.56914864 -0.40936263 1.42083339
7 11.94488900 0.00000000 0.00000000 -0.34261713 -0.32918918 1.92509736
8 10.62019000 0.00000000 0.00000000 1.25227188 0.25884337 1.70549626
9 -4.75111000 -0.69449400 0.83057900 -0.12150500 -0.09833700 0.57634600
10 -1.68807600 0.00004300 -0.00003100 0.02023500 -0.01422900 0.48281900
11 -1.33614300 0.00005300 -0.00001000 0.02541900 0.00700600 0.28395600
12 -4.82049600 -0.50945900 -0.22476100 -0.37465000 -0.14949300 1.27843700
13 -1.82699200 -0.00007200 0.00000800 -0.00173800 0.04045700 1.23099700
14 -1.43657300 0.00000800 0.00000400 -0.06013400 -0.04938400 0.79162700
15 -3.99235900 -0.89118600 -1.82791000 -0.54885400 -0.02585500 1.13436800
16 -1.40592200 -0.00002700 0.00000000 -0.00511900 -0.02904800 1.04789600
17 -1.17535800 0.00012800 -0.00002100 0.06441700 0.02146300 1.15302800
18 -4.52675200 -0.69057500 -1.12074400 -0.48580200 -0.01282600 1.41345500
19 -1.74403800 0.00003300 -0.00000400 -0.02271800 -0.01889100 1.28837400
20 -1.36877400 0.00002500 0.00000400 0.03795400 0.03618700 0.70440900
21 -1.71880700 -1.28270900 0.93153500 1.99003400 0.63072200 0.83377400
22 -1.52344900 0.00003400 0.00003100 -0.19097800 0.11191200 0.75188300
23 -1.59927600 0.00000800 0.00001500 -0.07634400 -0.04309900 0.82700900
24 -4.65541300 -2.08811000 1.22829300 -0.14452500 -0.17768800 0.46154000
25 0.08480500 -0.01874300 1.05922900 0.00000000 0.00000200 0.00000000
26 -0.05186200 0.00000000 0.22393800 0.00000000 0.00000000 0.00000000
27 -0.01120900 0.00000000 -0.20764400 0.00000000 0.00000000 0.00000000
28 0.03379400 0.00000000 -0.69123200 0.00000000 0.00000000 0.00000000
29 0.07444900 -0.00000200 -1.12281400 0.00000000 0.00000000 0.00000000
30 0.16363000 -0.00000200 -1.60658200 0.00000000 0.00000000 0.00000000
31 0.20428600 -0.00000200 -2.03816500 0.00000000 0.00000000 0.00000000
32 0.29346800 -0.00000400 -2.50245800 0.00000000 0.00000000 0.00000000
33 0.33412000 -0.00000300 -2.93404000 0.00000000 0.00000000 0.00000000
34 1.74595800 -0.00969100 0.75846600 0.00000000 0.92497500 0.00000000
35 -1.76192100 -0.00968800 0.39034300 0.00000000 0.00000200 0.00000000
36 -1.18703600 -0.00968600 1.46037700 0.00000000 0.00000200 0.00000000
37 4.80067700 0.10232700 -2.11768000 0.36343400 1.10681600 1.58888100
38 2.24252700 -10.05991300 -5.82205300 2.58990300 -0.31745100 -1.45958200
39 5.51182400 0.00000800 -0.00000400 2.24315294 0.00021206 3.14149451
40 0.19684600 -0.00000100 0.00000400 2.79340698 -0.00021881 -3.14153255
41 0.80664300 -10.03304000 -1.48897700 1.97586200 1.15991000 1.84280300
42 6.21448500 0.00001000 0.00002000 -0.61590159 0.73105987 -1.63457645
43 11.94488500 -0.00003200 -0.00019900 0.27375173 -0.33799745 -1.81990481
44 10.62016900 -0.00000200 0.00000800 -1.63983802 -0.27165015 0.41785860
45 4.75116500 0.69437600 -0.83047400 -0.05602700 -0.27916300 0.54604800
46 1.68806100 -0.00002400 0.00000200 0.01539000 -0.01932400 0.76600700
47 1.33615100 -0.00005000 -0.00001000 -0.01007300 -0.03740000 0.63314200
48 4.82051700 0.50934200 0.22486600 -0.38635900 -0.32224200 1.31634500
49 1.82700300 0.00006200 0.00001000 0.00532100 0.04007200 1.40562400
50 1.43658100 -0.00000600 0.00001000 0.00550100 -0.01410000 0.47001900
51 3.99235500 0.89109000 1.82799500 -0.58933300 -0.17444000 1.37036700
52 1.40592200 0.00003100 -0.00000400 -0.01592500 -0.02486000 1.44468600
53 1.17536200 -0.00013200 0.00000400 0.07309900 0.09934300 0.59118900
54 4.52676200 0.69046800 1.12084200 -0.53033700 -0.21677300 1.47781800
55 1.74404100 -0.00002700 0.00000100 -0.01060600 -0.01195600 1.52693200
56 1.36876300 -0.00003100 -0.00002000 -0.04234600 0.13643200 0.27748300
57 1.86460300 0.94986100 -0.98556900 2.14553200 0.46719600 1.11152000
58 1.52345700 -0.00003100 0.00000000 -0.46017900 -0.05709800 0.78018400
59 1.59927700 -0.00000400 0.00001000 0.07977600 -0.02452500 1.12383700
60 4.59607700 2.16916400 -1.03603900 -3.09579600 0.29426500 -2.76858200
61 5.51180800 -0.00000600 0.00000400 -0.23579700 0.00000500 0.00000700
62 0.19684600 0.00000600 0.00000000 -0.34822500 0.00001500 -0.00000200
63 0.00000000 0.00000000 0.00000000 0.00000000 0.00000000 -1.57079600
64 -4.07169400 -15.59341400 -1.73803700 0.03944600 0.01142900 1.61307431
65 0.08480500 -0.01874400 1.05923200 0.00000000 0.00000000 0.00000000
66 -0.05186100 0.00000000 0.22393900 0.00000000 0.00000000 0.00000000
67 -0.01120900 0.00000000 -0.20764500 0.00000000 0.00000000 0.00000000
68 0.03379600 0.00000000 -0.69123300 0.00000000 0.00000000 0.00000000
69 0.07445000 0.00000000 -1.12281700 0.00000000 0.00000000 0.00000000
70 0.16363200 0.00000000 -1.60658600 0.00000000 0.00000000 0.00000000
71 0.20428800 0.00000000 -2.03817100 0.00000000 0.00000000 0.00000000
72 0.29347100 0.00000100 -2.50246400 0.00000000 0.00000000 0.00000000
73 0.33412500 0.00000000 -2.93404800 0.00000000 0.00000000 0.00000000
74 1.74595700 -0.00968900 0.75846700 0.00000000 0.92497500 0.00000000
75 -1.76192800 -0.00968900 0.39034500 0.00000000 0.00000000 0.00000000
76 -1.18703800 -0.00968900 1.46038000 0.00000000 0.00000000 0.00000000
time 6
0 -0.00000100 7.45008900 -27.50902600 0.00000000 0.00000000 0.00003100
1 -0.00000200 0.00000000 0.00000000 1.57074700 -1.56714200 -1.57074700
2 4.25546500 -0.33518400 -0.00000200 0.00000000 0.00000000 -0.12484800
3 7.43125000 1.49647900 0.00000200 0.00000000 0.00000000 0.24545000
4 5.27847900 0.16554300 0.00000100 0.00000000 0.00000000 0.04851100
5 0.02257300 -10.51624100 1.48897500 1.97586600 1.15990900 -1.29878500
6 -6.21447800 -0.00001000 -0.00002700 -2.44485234 -0.48541448 1.36132564
7 11.94488900 0.00000000 0.00000000 -0.39871511 -0.30371205 2.10494674
8 10.62019000 0.00000000 0.00000000 1.26481564 0.35042362 1.75610557
9 -4.75111000 -0.69449400 0.83057900 -0.12150500 -0.09833700 0.57634600
10 -1.68807600 0.00004300 -0.00003100 0.02023500 -0.01422900 0.48281900
11 -1.33614300 0.00005300 -0.00001000 0.02541900 0.00700600 0.28395600
12 -4.82049600 -0.50945900 -0.22476100 -0.37465000 -0.14949300 1.27843700
13 -1.82699200 -0.00007200 0.00000800 -0.00173800 0.04045700 1.23099700
14 -1.43657300 0.00000800 0.00000400 -0.06013400 -0.04938400 0.79162700
15 -3.99235900 -0.89118600 -1.82791000 -0.54885400 -0.02585500 1.13436800
16 -1.40592200 -0.00002700 0.00000000 -0.00511900 -0.02904800 1.04789600
17 -1.17535800 0.00012800 -0.00002100 0.06441700 0.02146300 1.15302800
18 -4.52675200 -0.69057500 -1.12074400 -0.48580200 -0.01282600 1.41345500
19 -1.74403800 0.00003300 -0.00000400 -0.02271800 -0.01889100 1.28837400
20 -1.36877400 0.00002500 0.00000400 0.03795400 0.03618700 0.70440900
21 -1.71880700 -1.28270900 0.93153500 1.99003400 0.63072200 0.83377400
22 -1.52344900 0.00003400 0.00003100 -0.19097800 0.11191200 0.75188300
23 -1.59927600 0.00000800 0.00001500 -0.07634400 -0.04309900 0.82700900
24 -4.65541300 -2.08811000 1.22829300 -0.14452500 -0.17768800 0.46154000
25 0.08480500 -0.01874300 1.05922900 0.00000000 0.00000200 0.00000000
26 -0.05186200 0.00000000 0.22393800 0.00000000 0.00000000 0.00000000
27 -0.01120900 0.00000000 -0.20764400 0.00000000 0.00000000 0.00000000
28 0.03379400 0.00000000 -0.69123200 0.00000000 0.00000000 0.00000000
29 0.07444900 -0.00000200 -1.12281400 0.00000000 0.00000000 0.00000000
30 0.16363000 -0.00000200 -1.60658200 0.00000000 0.00000000 0.00000000
31 0.20428600 -0.00000200 -2.03816500 0.00000000 0.00000000 0.00000000
32 0.29346800 -0.00000400 -2.50245800 0.00000000 0.00000000 0.00000000
33 0.33412000 -0.00000300 -2.93404000 0.00000000 0.00000000 0.00000000
34 1.74595800 -0.00969100 0.75846600 0.00000000 0.92497500 0.00000000
35 -1.76192100 -0.00968800 0.39034300 0.00000000 0.00000200 0.00000000
36 -1.18703600 -0.00968600 1.46037700 0.00000000 0.00000200 0.00000000
37 4.80067700 0.10232700 -2.11768000 0.36343400 1.10681600 1.58888100
38 2.09378100 -10.19397900 -6.96270000 2.57875600 -0.00504900 -1.51197700
39 5.51182400 0.00000800 -0.00000400 2.24315294 0.00021206 3.14149451
40 0.19684600 -0.00000100 0.00000400 2.79340698 -0.00021881 -3.14153255
41 0.02257200 -10.51624100 -1.48897800 1.97586200 1.15991000 1.84280300
42 6.21448500 0.00001000 0.00002000 -0.73109685 0.75135356 -1.69778196
43 11.94488500 -0.00003200 -0.00019900 0.09918609 -0.33244478 -1.90313659
44 10.62016900 -0.00000200 0.00000800 -1.51113050 -0.37710854 0.20689203
45 4.75116500 0.69437600 -0.83047400 -0.05602700 -0.27916300 0.54604800
46 1.68806100 -0.00002400 0.00000200 0.01539000 -0.01932400 0.76600700
47 1.33615100 -0.00005000 -0.00001000 -0.01007300 -0.03740000 0.63314200
48 4.82051700 0.50934200 0.22486600 -0.38635900 -0.32224200 1.31634500
49 1.82700300 0.00006200 0.00001000 0.00532100 0.04007200 1.40562400
50 1.43658100 -0.00000600 0.00001000 0.00550100 -0.01410000 0.47001900
51 3.99235500 0.89109000 1.82799500 -0.58933300 -0.17444000 1.37036700
52 1.40592200 0.00003100 -0.00000400 -0.01592500 -0.02486000 1.44468600
53 1.17536200 -0.00013200 0.00000400 0.07309900 0.09934300 0.59118900
54 4.52676200 0.69046800 1.12084200 -0.53033700 -0.21677300 1.47781800
55 1.74404100 -0.00002700 0.00000100 -0.01060600 -0.01195600 1.52693200
56 1.36876300 -0.00003100 -0.00002000 -0.04234600 0.13643200 0.27748300
57 1.86460300 0.94986100 -0.98556900 2.14553200 0.46719600 1.11152000
58 1.52345700 -0.00003100 0.00000000 -0.46017900 -0.05709800 0.78018400
59 1.59927700 -0.00000400 0.00001000 0.07977600 -0.02452500 1.12383700
60 4.59607700 2.16916400 -1.03603900 -3.09579600 0.29426500 -2.76858200
61 5.51180800 -0.00000600 0.00000400 -0.23579700 0.00000500 0.00000700
62 0.19684600 0.00000600 0.00000000 -0.34822500 0.00001500 -0.00000200
63 0.00000000 0.00000000 0.00000000 0.00000000 0.00000000 -1.57079600
64 -4.80019500 -14.11781800 -1.72543500 -0.07949900 0.20351100 1.61443831
65 0.08480500 -0.01874400 1.05923200 0.00000000 0.00000000 0.00000000
66 -0.05186100 0.00000000 0.22393900 0.00000000 0.00000000 0.00000000
67 -0.01120900 0.00000000 -0.20764500 0.00000000 0.00000000 0.00000000
68 0.03379600 0.00000000 -0.69123300 0.00000000 0.00000000 0.00000000
69 0.07445000 0.00000000 -1.12281700 0.00000000 0.00000000 0.00000000
70 0.16363200 0.00000000 -1.60658600 0.00000000 0.00000000 0.00000000
71 0.20428800 0.00000000 -2.03817100 0.00000000 0.00000000 0.00000000
72 0.29347100 0.00000100 -2.50246400 0.00000000 0.00000000 0.00000000
73 0.33412500 0.00000000 -2.93404800 0.00000000 0.00000000 0.00000000
74 1.74595700 -0.00968900 0.75846700 0.00000000 0.92497500 0.00000000
75 -1.76192800 -0.00968900 0.39034500 0.00000000 0.00000000 0.00000000
76 -1.18703800 -0.00968900 1.46038000 0.00000000 0.00000000 0.00000000
time 7
0 -0.00000100 7.45008900 -27.50902600 0.00000000 0.00000000 0.00003100
1 -0.00000200 0.00000000 0.00000000 1.57074700 -1.56714200 -1.57074700
2 4.25546500 -0.33518400 -0.00000200 0.00000000 0.00000000 -0.12484800
3 7.43125000 1.49647900 0.00000200 0.00000000 0.00000000 0.24545000
4 5.27847900 0.16554300 0.00000100 0.00000000 0.00000000 0.04851100
5 -0.69792400 -10.96026300 1.48897500 1.97586600 1.15990900 -1.29878500
6 -6.21447800 -0.00001000 -0.00002700 -2.36353981 -0.62594430 1.31836423
7 11.94488900 0.00000000 0.00000000 -0.41205250 -0.29590945 2.14993501
8 10.62019000 0.00000000 0.00000000 1.28214210 0.55279727 2.33611150
9 -4.75111000 -0.69449400 0.83057900 -0.12150500 -0.09833700 0.57634600
10 -1.68807600 0.00004300 -0.00003100 0.02023500 -0.01422900 0.48281900
11 -1.33614300 0.00005300 -0.00001000 0.02541900 0.00700600 0.28395600
12 -4.82049600 -0.50945900 -0.22476100 -0.37465000 -0.14949300 1.27843700
13 -1.82699200 -0.00007200 0.00000800 -0.00173800 0.04045700 1.23099700
14 -1.43657300 0.00000800 0.00000400 -0.06013400 -0.04938400 0.79162700
15 -3.99235900 -0.89118600 -1.82791000 -0.54885400 -0.02585500 1.13436800
16 -1.40592200 -0.00002700 0.00000000 -0.00511900 -0.02904800 1.04789600
17 -1.17535800 0.00012800 -0.00002100 0.06441700 0.02146300 1.15302800
18 -4.52675200 -0.69057500 -1.12074400 -0.48580200 -0.01282600 1.41345500
19 -1.74403800 0.00003300 -0.00000400 -0.02271800 -0.01889100 1.28837400
20 -1.36877400 0.00002500 0.00000400 0.03795400 0.03618700 0.70440900
21 -1.71880700 -1.28270900 0.93153500 1.99003400 0.63072200 0.83377400
22 -1.52344900 0.00003400 0.00003100 -0.19097800 0.11191200 0.75188300
23 -1.59927600 0.00000800 0.00001500 -0.07634400 -0.04309900 0.82700900
24 -4.65541300 -2.08811000 1.22829300 -0.14452500 -0.17768800 0.46154000
25 0.08480500 -0.01874300 1.05922900 0.00000000 0.00000200 0.00000000
26 -0.05186200 0.00000000 0.22393800 0.00000000 0.00000000 0.00000000
27 -0.01120900 0.00000000 -0.20764400 0.00000000 0.00000000 0.00000000
28 0.03379400 0.00000000 -0.69123200 0.00000000 0.00000000 0.00000000
29 0.07444900 -0.00000200 -1.12281400 0.00000000 0.00000000 0.00000000
30 0.16363000 -0.00000200 -1.60658200 0.00000000 0.00000000 0.00000000
31 0.20428600 -0.00000200 -2.03816500 0.00000000 0.00000000 0.00000000
32 0.29346800 -0.00000400 -2.50245800 0.00000000 0.00000000 0.00000000
33 0.33412000 -0.00000300 -2.93404000 0.00000000 0.00000000 0.00000000
34 1.74595800 -0.00969100 0.75846600 0.00000000 0.92497500 0.00000000
35 -1.76192100 -0.00968800 0.39034300 0.00000000 0.00000200 0.00000000
36 -1.18703600 -0.00968600 1.46037700 0.00000000 0.00000200 0.00000000
37 4.80067700 0.10232700 -2.11768000 0.36343400 1.10681600 1.58888100
38 4.03169100 -10.18243300 -6.74730400 2.87322600 0.23397800 -1.45687900
39 5.51182400 0.00000800 -0.00000400 2.24315294 0.00021206 3.14149451
40 0.19684600 -0.00000100 0.00000400 2.79340698 -0.00021881 -3.14153255
41 -0.69792600 -10.96026300 -1.48897700 1.97586200 1.15991000 1.84280300
42 6.21448500 0.00001000 0.00002000 -0.83604470 0.72745812 -1.78414068
43 11.94488500 -0.00003200 -0.00019900 -0.06005727 -0.32915672 -1.93889811
44 10.62016900 -0.00000200 0.00000800 -1.38347474 -0.43063483 -0.04461419
45 4.75116500 0.69437600 -0.83047400 -0.05602700 -0.27916300 0.54604800
46 1.68806100 -0.00002400 0.00000200 0.01539000 -0.01932400 0.76600700
47 1.33615100 -0.00005000 -0.00001000 -0.01007300 -0.03740000 0.63314200
48 4.82051700 0.50934200 0.22486600 -0.38635900 -0.32224200 1.31634500
49 1.82700300 0.00006200 0.00001000 0.00532100 0.04007200 1.40562400
50 1.43658100 -0.00000600 0.00001000 0.00550100 -0.01410000 0.47001900
51 3.99235500 0.89109000 1.82799500 -0.58933300 -0.17444000 1.37036700
52 1.40592200 0.00003100 -0.00000400 -0.01592500 -0.02486000 1.44468600
53 1.17536200 -0.00013200 0.00000400 0.07309900 0.09934300 0.59118900
54 4.52676200 0.69046800 1.12084200 -0.53033700 -0.21677300 1.47781800
55 1.74404100 -0.00002700 0.00000100 -0.01060600 -0.01195600 1.52693200
56 1.36876300 -0.00003100 -0.00002000 -0.04234600 0.13643200 0.27748300
57 1.86460300 0.94986100 -0.98556900 2.14553200 0.46719600 1.11152000
58 1.52345700 -0.00003100 0.00000000 -0.46017900 -0.05709800 0.78018400
59 1.59927700 -0.00000400 0.00001000 0.07977600 -0.02452500 1.12383700
60 4.59607700 2.16916400 -1.03603900 -3.09579600 0.29426500 -2.76858200
61 5.51180800 -0.00000600 0.00000400 -0.23579700 0.00000500 0.00000700
62 0.19684600 0.00000600 0.00000000 -0.34822500 0.00001500 -0.00000200
63 0.00000000 0.00000000 0.00000000 0.00000000 0.00000000 -1.57079600
64 -5.37079300 -12.68065000 -1.72333300 -0.17713200 0.72567800 1.56742900
65 0.08480500 -0.01874400 1.05923200 0.00000000 0.00000000 0.00000000
66 -0.05186100 0.00000000 0.22393900 0.00000000 0.00000000 0.00000000
67 -0.01120900 0.00000000 -0.20764500 0.00000000 0.00000000 0.00000000
68 0.03379600 0.00000000 -0.69123300 0.00000000 0.00000000 0.00000000
69 0.07445000 0.00000000 -1.12281700 0.00000000 0.00000000 0.00000000
70 0.16363200 0.00000000 -1.60658600 0.00000000 0.00000000 0.00000000
71 0.20428800 0.00000000 -2.03817100 0.00000000 0.00000000 0.00000000
72 0.29347100 0.00000100 -2.50246400 0.00000000 0.00000000 0.00000000
73 0.33412500 0.00000000 -2.93404800 0.00000000 0.00000000 0.00000000
74 1.74595700 -0.00968900 0.75846700 0.00000000 0.92497500 0.00000000
75 -1.76192800 -0.00968900 0.39034500 0.00000000 0.00000000 0.00000000
76 -1.18703800 -0.00968900 1.46038000 0.00000000 0.00000000 0.00000000
time 8
0 -0.00000100 7.45008900 -27.50902600 0.00000000 0.00000000 0.00003100
1 -0.00000200 0.00000000 0.00000000 1.57074700 -1.56714200 -1.57074700
2 4.25546500 -0.33518400 -0.00000200 0.00000000 0.00000000 -0.12484800
3 7.43125000 1.49647900 0.00000200 0.00000000 0.00000000 0.24545000
4 5.27847900 0.16554300 0.00000100 0.00000000 0.00000000 0.04851100
5 -1.29127400 -11.32592800 1.48897500 1.97586600 1.15990900 -1.29878500
6 -6.21447800 -0.00001000 -0.00002700 -2.23757844 -0.61832151 1.22764652
7 11.94488900 0.00000000 0.00000000 -0.34649059 -0.32781264 1.93705428
8 10.62019000 0.00000000 0.00000000 1.44686702 0.70824294 -2.93992658
9 -4.75111000 -0.69449400 0.83057900 -0.12150500 -0.09833700 0.57634600
10 -1.68807600 0.00004300 -0.00003100 0.02023500 -0.01422900 0.48281900
11 -1.33614300 0.00005300 -0.00001000 0.02541900 0.00700600 0.28395600
12 -4.82049600 -0.50945900 -0.22476100 -0.37465000 -0.14949300 1.27843700
13 -1.82699200 -0.00007200 0.00000800 -0.00173800 0.04045700 1.23099700
14 -1.43657300 0.00000800 0.00000400 -0.06013400 -0.04938400 0.79162700
15 -3.99235900 -0.89118600 -1.82791000 -0.54885400 -0.02585500 1.13436800
16 -1.40592200 -0.00002700 0.00000000 -0.00511900 -0.02904800 1.04789600
17 -1.17535800 0.00012800 -0.00002100 0.06441700 0.02146300 1.15302800
18 -4.52675200 -0.69057500 -1.12074400 -0.48580200 -0.01282600 1.41345500
19 -1.74403800 0.00003300 -0.00000400 -0.02271800 -0.01889100 1.28837400
20 -1.36877400 0.00002500 0.00000400 0.03795400 0.03618700 0.70440900
21 -1.71880700 -1.28270900 0.93153500 1.99003400 0.63072200 0.83377400
22 -1.52344900 0.00003400 0.00003100 -0.19097800 0.11191200 0.75188300
23 -1.59927600 0.00000800 0.00001500 -0.07634400 -0.04309900 0.82700900
24 -4.65541300 -2.08811000 1.22829300 -0.14452500 -0.17768800 0.46154000
25 0.08480500 -0.01874300 1.05922900 0.00000000 0.00000200 0.00000000
26 -0.05186200 0.00000000 0.22393800 0.00000000 0.00000000 0.00000000
27 -0.01120900 0.00000000 -0.20764400 0.00000000 0.00000000 0.00000000
28 0.03379400 0.00000000 -0.69123200 0.00000000 0.00000000 0.00000000
29 0.07444900 -0.00000200 -1.12281400 0.00000000 0.00000000 0.00000000
30 0.16363000 -0.00000200 -1.60658200 0.00000000 0.00000000 0.00000000
31 0.20428600 -0.00000200 -2.03816500 0.00000000 0.00000000 0.00000000
32 0.29346800 -0.00000400 -2.50245800 0.00000000 0.00000000 0.00000000
33 0.33412000 -0.00000300 -2.93404000 0.00000000 0.00000000 0.00000000
34 1.74595800 -0.00969100 0.75846600 0.00000000 0.92497500 0.00000000
35 -1.76192100 -0.00968800 0.39034300 0.00000000 0.00000200 0.00000000
36 -1.18703600 -0.00968600 1.46037700 0.00000000 0.00000200 0.00000000
37 4.80067700 0.10232700 -2.11768000 0.36343400 1.10681600 1.58888100
38 6.41283300 -10.34145400 -4.13303100 -2.85364800 0.25427900 -1.23238400
39 5.51182400 0.00000800 -0.00000400 2.24315294 0.00021206 3.14149451
40 0.19684600 -0.00000100 0.00000400 2.79340698 -0.00021881 -3.14153255
41 -1.29127300 -11.32592700 -1.48897700 1.97586200 1.15991000 1.84280300
42 6.21448500 0.00001000 0.00002000 -0.91748777 0.66713180 -1.86778125
43 11.94488500 -0.00003200 -0.00019900 -0.18701220 -0.32773393 -1.94720776
44 10.62016900 -0.00000200 0.00000800 -1.27394922 -0.42782547 -0.27200095
45 4.75116500 0.69437600 -0.83047400 -0.05602700 -0.27916300 0.54604800
46 1.68806100 -0.00002400 0.00000200 0.01539000 -0.01932400 0.76600700
47 1.33615100 -0.00005000 -0.00001000 -0.01007300 -0.03740000 0.63314200
48 4.82051700 0.50934200 0.22486600 -0.38635900 -0.32224200 1.31634500
49 1.82700300 0.00006200 0.00001000 0.00532100 0.04007200 1.40562400
50 1.43658100 -0.00000600 0.00001000 0.00550100 -0.01410000 0.47001900
51 3.99235500 0.89109000 1.82799500 -0.58933300 -0.17444000 1.37036700
52 1.40592200 0.00003100 -0.00000400 -0.01592500 -0.02486000 1.44468600
53 1.17536200 -0.00013200 0.00000400 0.07309900 0.09934300 0.59118900
54 4.52676200 0.69046800 1.12084200 -0.53033700 -0.21677300 1.47781800
55 1.74404100 -0.00002700 0.00000100 -0.01060600 -0.01195600 1.52693200
56 1.36876300 -0.00003100 -0.00002000 -0.04234600 0.13643200 0.27748300
57 1.86460300 0.94986100 -0.98556900 2.14553200 0.46719600 1.11152000
58 1.52345700 -0.00003100 0.00000000 -0.46017900 -0.05709800 0.78018400
59 1.59927700 -0.00000400 0.00001000 0.07977600 -0.02452500 1.12383700
60 4.59607700 2.16916400 -1.03603900 -3.09579600 0.29426500 -2.76858200
61 5.51180800 -0.00000600 0.00000400 -0.23579700 0.00000500 0.00000700
62 0.19684600 0.00000600 0.00000000 -0.34822500 0.00001500 -0.00000200
63 0.00000000 0.00000000 0.00000000 0.00000000 0.00000000 -1.57079600
64 -5.71350300 -11.36629000 -1.89753200 -0.89889300 1.44224800 0.85001500
65 0.08480500 -0.01874400 1.05923200 0.00000000 0.00000000 0.00000000
66 -0.05186100 0.00000000 0.22393900 0.00000000 0.00000000 0.00000000
67 -0.01120900 0.00000000 -0.20764500 0.00000000 0.00000000 0.00000000
68 0.03379600 0.00000000 -0.69123300 0.00000000 0.00000000 0.00000000
69 0.07445000 0.00000000 -1.12281700 0.00000000 0.00000000 0.00000000
70 0.16363200 0.00000000 -1.60658600 0.00000000 0.00000000 0.00000000
71 0.20428800 0.00000000 -2.03817100 0.00000000 0.00000000 0.00000000
72 0.29347100 0.00000100 -2.50246400 0.00000000 0.00000000 0.00000000
73 0.33412500 0.00000000 -2.93404800 0.00000000 0.00000000 0.00000000
74 1.74595700 -0.00968900 0.75846700 0.00000000 0.92497500 0.00000000
75 -1.76192800 -0.00968900 0.39034500 0.00000000 0.00000000 0.00000000
76 -1.18703800 -0.00968900 1.46038000 0.00000000 0.00000000 0.00000000
time 9
0 -0.00000100 7.45008900 -27.50902600 0.00000000 0.00000000 0.00003100
1 -0.00000200 0.00000000 0.00000000 1.57074700 -1.56714200 -1.57074700
2 4.25546500 -0.33518400 -0.00000200 0.00000000 0.00000000 -0.12484800
3 7.43125000 1.49647900 0.00000200 0.00000000 0.00000000 0.24545000
4 5.27847900 0.16554300 0.00000100 0.00000000 0.00000000 0.04851100
5 -1.69390600 -11.57405800 1.48897500 1.97586600 1.15990900 -1.29878500
6 -6.21447800 -0.00001000 -0.00002700 -2.15306975 -0.60001626 1.16834288
7 11.94488900 0.00000000 0.00000000 -0.34584652 -0.32801057 1.93491120
8 10.62019000 0.00000000 0.00000000 1.46941711 0.64541242 -2.87929869
9 -4.75111000 -0.69449400 0.83057900 -0.12150500 -0.09833700 0.57634600
10 -1.68807600 0.00004300 -0.00003100 0.02023500 -0.01422900 0.48281900
11 -1.33614300 0.00005300 -0.00001000 0.02541900 0.00700600 0.28395600
12 -4.82049600 -0.50945900 -0.22476100 -0.37465000 -0.14949300 1.27843700
13 -1.82699200 -0.00007200 0.00000800 -0.00173800 0.04045700 1.23099700
14 -1.43657300 0.00000800 0.00000400 -0.06013400 -0.04938400 0.79162700
15 -3.99235900 -0.89118600 -1.82791000 -0.54885400 -0.02585500 1.13436800
16 -1.40592200 -0.00002700 0.00000000 -0.00511900 -0.02904800 1.04789600
17 -1.17535800 0.00012800 -0.00002100 0.06441700 0.02146300 1.15302800
18 -4.52675200 -0.69057500 -1.12074400 -0.48580200 -0.01282600 1.41345500
19 -1.74403800 0.00003300 -0.00000400 -0.02271800 -0.01889100 1.28837400
20 -1.36877400 0.00002500 0.00000400 0.03795400 0.03618700 0.70440900
21 -1.71880700 -1.28270900 0.93153500 1.99003400 0.63072200 0.83377400
22 -1.52344900 0.00003400 0.00003100 -0.19097800 0.11191200 0.75188300
23 -1.59927600 0.00000800 0.00001500 -0.07634400 -0.04309900 0.82700900
24 -4.65541300 -2.08811000 1.22829300 -0.14452500 -0.17768800 0.46154000
25 0.08480500 -0.01874300 1.05922900 0.00000000 0.00000200 0.00000000
26 -0.05186200 0.00000000 0.22393800 0.00000000 0.00000000 0.00000000
27 -0.01120900 0.00000000 -0.20764400 0.00000000 0.00000000 0.00000000
28 0.03379400 0.00000000 -0.69123200 0.00000000 0.00000000 0.00000000
29 0.07444900 -0.00000200 -1.12281400 0.00000000 0.00000000 0.00000000
30 0.16363000 -0.00000200 -1.60658200 0.00000000 0.00000000 0.00000000
31 0.20428600 -0.00000200 -2.03816500 0.00000000 0.00000000 0.00000000
32 0.29346800 -0.00000400 -2.50245800 0.00000000 0.00000000 0.00000000
33 0.33412000 -0.00000300 -2.93404000 0.00000000 0.00000000 0.00000000
34 1.74595800 -0.00969100 0.75846600 0.00000000 0.92497500 0.00000000
35 -1.76192100 -0.00968800 0.39034300 0.00000000 0.00000200 0.00000000
36 -1.18703600 -0.00968600 1.46037700 0.00000000 0.00000200 0.00000000
37 4.80067700 0.10232700 -2.11768000 0.36343400 1.10681600 1.58888100
38 5.91693300 -10.48950400 -3.81075300 -2.96118000 0.32017900 -1.15168300
39 5.51182400 0.00000800 -0.00000400 2.24315294 0.00021206 3.14149451
40 0.19684600 -0.00000100 0.00000400 2.79340698 -0.00021881 -3.14153255
41 -1.69390600 -11.57406000 -1.48897900 1.97586200 1.15991000 1.84280300
42 6.21448500 0.00001000 0.00002000 -0.96777398 0.59870209 -1.92692557
43 11.94488500 -0.00003200 -0.00019900 -0.26948883 -0.32712012 -1.94652484
44 10.62016900 -0.00000200 0.00000800 -1.20244694 -0.39180909 -0.43478049
45 4.75116500 0.69437600 -0.83047400 -0.05602700 -0.27916300 0.54604800
46 1.68806100 -0.00002400 0.00000200 0.01539000 -0.01932400 0.76600700
47 1.33615100 -0.00005000 -0.00001000 -0.01007300 -0.03740000 0.63314200
48 4.82051700 0.50934200 0.22486600 -0.38635900 -0.32224200 1.31634500
49 1.82700300 0.00006200 0.00001000 0.00532100 0.04007200 1.40562400
50 1.43658100 -0.00000600 0.00001000 0.00550100 -0.01410000 0.47001900
51 3.99235500 0.89109000 1.82799500 -0.58933300 -0.17444000 1.37036700
52 1.40592200 0.00003100 -0.00000400 -0.01592500 -0.02486000 1.44468600
53 1.17536200 -0.00013200 0.00000400 0.07309900 0.09934300 0.59118900
54 4.52676200 0.69046800 1.12084200 -0.53033700 -0.21677300 1.47781800
55 1.74404100 -0.00002700 0.00000100 -0.01060600 -0.01195600 1.52693200
56 1.36876300 -0.00003100 -0.00002000 -0.04234600 0.13643200 0.27748300
57 1.86460300 0.94986100 -0.98556900 2.14553200 0.46719600 1.11152000
58 1.52345700 -0.00003100 0.00000000 -0.46017900 -0.05709800 0.78018400
59 1.59927700 -0.00000400 0.00001000 0.07977600 -0.02452500 1.12383700
60 4.59607700 2.16916400 -1.03603900 -3.09579600 0.29426500 -2.76858200
61 5.51180800 -0.00000600 0.00000400 -0.23579700 0.00000500 0.00000700
62 0.19684600 0.00000600 0.00000000 -0.34822500 0.00001500 -0.00000200
63 0.00000000 0.00000000 0.00000000 0.00000000 0.00000000 -1.57079600
64 -5.86900700 -11.29740000 -1.96481800 -1.38533400 1.47676000 0.36499800
65 0.08480500 -0.01874400 1.05923200 0.00000000 0.00000000 0.00000000
66 -0.05186100 0.00000000 0.22393900 0.00000000 0.00000000 0.00000000
67 -0.01120900 0.00000000 -0.20764500 0.00000000 0.00000000 0.00000000
68 0.03379600 0.00000000 -0.69123300 0.00000000 0.00000000 0.00000000
69 0.07445000 0.00000000 -1.12281700 0.00000000 0.00000000 0.00000000
70 0.16363200 0.00000000 -1.60658600 0.00000000 0.00000000 0.00000000
71 0.20428800 0.00000000 -2.03817100 0.00000000 0.00000000 0.00000000
72 0.29347100 0.00000100 -2.50246400 0.00000000 0.00000000 0.00000000
73 0.33412500 0.00000000 -2.93404800 0.00000000 0.00000000 0.00000000
74 1.74595700 -0.00968900 0.75846700 0.00000000 0.92497500 0.00000000
75 -1.76192800 -0.00968900 0.39034500 0.00000000 0.00000000 0.00000000
76 -1.18703800 -0.00968900 1.46038000 0.00000000 0.00000000 0.00000000
time 10
0 -0.00000100 7.45008900 -27.50902600 0.00000000 0.00000000 0.00003100
1 -0.00000200 0.00000000 0.00000000 1.57074700 -1.56714200 -1.57074700
2 4.25546500 -0.33518400 -0.00000200 0.00000000 0.00000000 -0.12484800
3 7.43125000 1.49647900 0.00000200 0.00000000 0.00000000 0.24545000
4 5.27847900 0.16554300 0.00000100 0.00000000 0.00000000 0.04851100
5 -1.84224200 -11.66547300 1.48897400 1.97586600 1.15990900 -1.29878500
6 -6.21447800 -0.00001000 -0.00002700 -2.12466676 -0.59450852 1.14708869
7 11.94488900 0.00000000 0.00000000 -0.34783767 -0.32724762 1.94131019
8 10.62019000 0.00000000 0.00000000 1.47743082 0.61921488 -2.88022293
9 -4.75111000 -0.69449400 0.83057900 -0.12150500 -0.09833700 0.57634600
10 -1.68807600 0.00004300 -0.00003100 0.02023500 -0.01422900 0.48281900
11 -1.33614300 0.00005300 -0.00001000 0.02541900 0.00700600 0.28395600
12 -4.82049600 -0.50945900 -0.22476100 -0.37465000 -0.14949300 1.27843700
13 -1.82699200 -0.00007200 0.00000800 -0.00173800 0.04045700 1.23099700
14 -1.43657300 0.00000800 0.00000400 -0.06013400 -0.04938400 0.79162700
15 -3.99235900 -0.89118600 -1.82791000 -0.54885400 -0.02585500 1.13436800
16 -1.40592200 -0.00002700 0.00000000 -0.00511900 -0.02904800 1.04789600
17 -1.17535800 0.00012800 -0.00002100 0.06441700 0.02146300 1.15302800
18 -4.52675200 -0.69057500 -1.12074400 -0.48580200 -0.01282600 1.41345500
19 -1.74403800 0.00003300 -0.00000400 -0.02271800 -0.01889100 1.28837400
20 -1.36877400 0.00002500 0.00000400 0.03795400 0.03618700 0.70440900
21 -1.71880700 -1.28270900 0.93153500 1.99003400 0.63072200 0.83377400
22 -1.52344900 0.00003400 0.00003100 -0.19097800 0.11191200 0.75188300
23 -1.59927600 0.00000800 0.00001500 -0.07634400 -0.04309900 0.82700900
24 -4.65541300 -2.08811000 1.22829300 -0.14452500 -0.17768800 0.46154000
25 0.08480500 -0.01874300 1.05922900 0.00000000 0.00000200 0.00000000
26 -0.05186200 0.00000000 0.22393800 0.00000000 0.00000000 0.00000000
27 -0.01120900 0.00000000 -0.20764400 0.00000000 0.00000000 0.00000000
28 0.03379400 0.00000000 -0.69123200 0.00000000 0.00000000 0.00000000
29 0.07444900 -0.00000200 -1.12281400 0.00000000 0.00000000 0.00000000
30 0.16363000 -0.00000200 -1.60658200 0.00000000 0.00000000 0.00000000
31 0.20428600 -0.00000200 -2.03816500 0.00000000 0.00000000 0.00000000
32 0.29346800 -0.00000400 -2.50245800 0.00000000 0.00000000 0.00000000
33 0.33412000 -0.00000300 -2.93404000 0.00000000 0.00000000 0.00000000
34 1.74595800 -0.00969100 0.75846600 0.00000000 0.92497500 0.00000000
35 -1.76192100 -0.00968800 0.39034300 0.00000000 0.00000200 0.00000000
36 -1.18703600 -0.00968600 1.46037700 0.00000000 0.00000200 0.00000000
37 4.80067700 0.10232700 -2.11768000 0.36343400 1.10681600 1.58888100
38 5.57767800 -10.55126900 -3.70052000 -3.04959100 0.35625800 -1.13264000
39 5.51182400 0.00000800 -0.00000400 2.24315294 0.00021206 3.14149451
40 0.19684600 -0.00000100 0.00000400 2.79340698 -0.00021881 -3.14153255
41 -1.84224300 -11.66547400 -1.48897800 1.97586200 1.15991000 1.84280300
42 6.21448500 0.00001000 0.00002000 -0.98551441 0.56253518 -1.94971667
43 11.94488500 -0.00003200 -0.00019900 -0.29879329 -0.32682014 -1.94586525
44 10.62016900 -0.00000200 0.00000800 -1.17674948 -0.36078436 -0.51096720
45 4.75116500 0.69437600 -0.83047400 -0.05602700 -0.27916300 0.54604800
46 1.68806100 -0.00002400 0.00000200 0.01539000 -0.01932400 0.76600700
47 1.33615100 -0.00005000 -0.00001000 -0.01007300 -0.03740000 0.63314200
48 4.82051700 0.50934200 0.22486600 -0.38635900 -0.32224200 1.31634500
49 1.82700300 0.00006200 0.00001000 0.00532100 0.04007200 1.40562400
50 1.43658100 -0.00000600 0.00001000 0.00550100 -0.01410000 0.47001900
51 3.99235500 0.89109000 1.82799500 -0.58933300 -0.17444000 1.37036700
52 1.40592200 0.00003100 -0.00000400 -0.01592500 -0.02486000 1.44468600
53 1.17536200 -0.00013200 0.00000400 0.07309900 0.09934300 0.59118900
54 4.52676200 0.69046800 1.12084200 -0.53033700 -0.21677300 1.47781800
55 1.74404100 -0.00002700 0.00000100 -0.01060600 -0.01195600 1.52693200
56 1.36876300 -0.00003100 -0.00002000 -0.04234600 0.13643200 0.27748300
57 1.86460300 0.94986100 -0.98556900 2.14553200 0.46719600 1.11152000
58 1.52345700 -0.00003100 0.00000000 -0.46017900 -0.05709800 0.78018400
59 1.59927700 -0.00000400 0.00001000 0.07977600 -0.02452500 1.12383700
60 4.59607700 2.16916400 -1.03603900 -3.09579600 0.29426500 -2.76858200
61 5.51180800 -0.00000600 0.00000400 -0.23579700 0.00000500 0.00000700
62 0.19684600 0.00000600 0.00000000 -0.34822500 0.00001500 -0.00000200
63 0.00000000 0.00000000 0.00000000 0.00000000 0.00000000 -1.57079600
64 -5.90565200 -11.29423000 -1.97689800 -1.45909900 1.47954800 0.29195700
65 0.08480500 -0.01874400 1.05923200 0.00000000 0.00000000 0.00000000
66 -0.05186100 0.00000000 0.22393900 0.00000000 0.00000000 0.00000000
67 -0.01120900 0.00000000 -0.20764500 0.00000000 0.00000000 0.00000000
68 0.03379600 0.00000000 -0.69123300 0.00000000 0.00000000 0.00000000
69 0.07445000 0.00000000 -1.12281700 0.00000000 0.00000000 0.00000000
70 0.16363200 0.00000000 -1.60658600 0.00000000 0.00000000 0.00000000
71 0.20428800 0.00000000 -2.03817100 0.00000000 0.00000000 0.00000000
72 0.29347100 0.00000100 -2.50246400 0.00000000 0.00000000 0.00000000
73 0.33412500 0.00000000 -2.93404800 0.00000000 0.00000000 0.00000000
74 1.74595700 -0.00968900 0.75846700 0.00000000 0.92497500 0.00000000
75 -1.76192800 -0.00968900 0.39034500 0.00000000 0.00000000 0.00000000
76 -1.18703800 -0.00968900 1.46038000 0.00000000 0.00000000 0.00000000
end
