version 1
nodes
0 "root" -1
1 "pelvis" 0
2 "spine_01" 1
3 "spine_02" 2
4 "spine_03" 3
5 "clavicle_r" 4
6 "upperarm_r" 5
7 "lowerarm_r" 6
8 "hand_r" 7
9 "index_01_r" 8
10 "index_02_r" 9
11 "index_03_r" 10
12 "middle_01_r" 8
13 "middle_02_r" 12
14 "middle_03_r" 13
15 "pinky_01_r" 8
16 "pinky_02_r" 15
17 "pinky_03_r" 16
18 "ring_01_r" 8
19 "ring_02_r" 18
20 "ring_03_r" 19
21 "thumb_01_r" 8
22 "thumb_02_r" 21
23 "thumb_03_r" 22
24 "lowerarm_twist_01_r" 7
25 "upperarm_twist_01_r" 6
26 "clavicle_l" 4
27 "upperarm_l" 26
28 "lowerarm_l" 27
29 "hand_l" 28
30 "index_01_l" 29
31 "index_02_l" 30
32 "index_03_l" 31
33 "middle_01_l" 29
34 "middle_02_l" 33
35 "middle_03_l" 34
36 "pinky_01_l" 29
37 "pinky_02_l" 36
38 "pinky_03_l" 37
39 "ring_01_l" 29
40 "ring_02_l" 39
41 "ring_03_l" 40
42 "thumb_01_l" 29
43 "thumb_02_l" 42
44 "thumb_03_l" 43
45 "lowerarm_twist_01_l" 28
46 "upperarm_twist_01_l" 27
47 "cam_driver" -1
48 "BaseRoot" -1
49 "Base" 48
50 "Mag" 49
51 "Bullet" 50
52 "BulletHead" 51
53 "Bullet.001" 50
54 "BulletHead.001" 53
55 "Bullet.002" 50
56 "BulletHead.002" 55
57 "Trigger" 49
58 "Rhand_IKtarget" 49
59 "LHand_IKtarget" 49
60 "Slide" 49
61 "MagBolt" 49
end
skeleton
time 0
0 -0.00000100 7.45008900 -27.50902600 0.00000000 0.00000000 0.00003100
1 -0.00000200 0.00000000 0.00000000 1.57074700 -1.56714200 -1.57074700
2 4.25546600 -0.33518300 -0.00000200 0.00000000 0.00000000 -0.12484800
3 7.43125000 1.49647900 0.00000200 0.00000000 0.00000000 0.24545000
4 5.27847900 0.16554400 0.00000100 0.00000000 0.00000000 0.04851100
5 2.96775500 -11.32174200 1.48897600 1.97586500 1.15990900 -1.29878600
6 -6.21447800 -0.00000900 -0.00002600 -2.78074000 -0.68266045 1.60504928
7 11.94488900 0.00000100 0.00000000 -0.22276438 -0.34921693 1.56821426
8 10.62018500 0.00000100 0.00000000 1.49889591 1.09049736 -2.31112623
9 -4.75111000 -0.69449300 0.83057600 -0.21168600 -0.07600000 0.28785400
10 -1.68806800 0.00004500 -0.00003500 0.01185700 -0.02168200 0.93758000
11 -1.33613600 0.00005600 -0.00001200 0.02600000 -0.00413400 0.71139400
12 -4.82049800 -0.50945900 -0.22475900 -0.41694500 -0.05306200 1.27436600
13 -1.82699000 -0.00006500 0.00000700 0.00880200 0.03949900 1.49369600
14 -1.43657900 0.00001200 0.00000300 -0.05206000 -0.05778500 0.64165300
15 -3.99236100 -0.89118600 -1.82790800 -0.64308800 0.13870200 1.13878200
16 -1.40592000 -0.00002400 -0.00000400 -0.01584700 -0.02480800 1.44307300
17 -1.17536200 0.00012700 -0.00002000 0.05502600 0.03976200 0.84909000
18 -4.52675400 -0.69057400 -1.12074300 -0.54702300 0.06029700 1.33312200
19 -1.74404900 0.00003600 -0.00000800 -0.02815800 -0.00898900 1.67468100
20 -1.36876500 0.00002600 0.00000600 0.02438200 0.04649400 0.37854700
21 -1.71880500 -1.28270600 0.93153400 1.82626100 0.59936100 0.65042700
22 -1.52345100 0.00003400 0.00002900 0.07372000 -0.05612300 0.69721800
23 -1.59928300 0.00000400 0.00001200 -0.04580400 -0.07477900 0.31886600
24 5.51181600 0.00000500 -0.00000200 2.24315282 0.00049620 3.14131975
25 0.19685200 -0.00000200 0.00000300 2.79340695 -0.00045946 -3.14145422
26 2.33743000 -15.09659400 -1.58033000 1.97586200 1.15991000 1.84280300
27 6.21448600 0.00000800 0.00001900 -0.80793559 0.83399067 -2.29266688
28 11.94489600 -0.00003100 -0.00019000 0.23183404 -0.34390301 -1.59470234
29 10.62016900 0.00000600 0.00001200 -1.43872693 -0.18438771 -0.69561170
30 4.75115300 0.69437300 -0.83047100 0.27008600 -0.31842200 0.81032700
31 1.68806600 -0.00002500 0.00000300 0.01539000 -0.01932400 0.76600700
32 1.33614400 -0.00005200 -0.00000900 0.00904800 -0.03764700 0.13514500
33 4.82051200 0.50933700 0.22486600 0.23182200 -0.24475900 0.91537200
34 1.82699700 0.00006700 0.00000900 -0.01154300 0.03879400 0.98337600
35 1.43658200 -0.00000900 0.00000800 0.01325200 -0.00726600 -0.22688700
36 3.99234800 0.89108800 1.82799600 0.04076900 -0.25921600 0.55173200
37 1.40592200 0.00002400 -0.00000400 -0.00899200 -0.02807500 1.18372600
38 1.17536300 -0.00013000 0.00000300 0.07309900 0.09934300 0.59118900
39 4.52675100 0.69045800 1.12084300 0.12505500 -0.23595800 0.82170200
40 1.74404300 -0.00003000 -0.00000100 -0.02363500 -0.01773100 1.34027200
41 1.36876400 -0.00003300 -0.00001600 -0.00637400 0.15858000 -0.22582000
42 1.87484900 0.93508000 -0.99912900 1.89235800 0.45961200 0.54304600
43 1.52345400 -0.00003300 -0.00000400 0.02094366 -0.04145713 0.60335081
44 1.59928000 0.00000200 0.00000500 0.06220500 0.05569400 0.09724300
45 5.51180700 -0.00000200 0.00000500 -1.07120500 0.00000000 0.00000000
46 0.19685000 0.00000200 -0.00000100 -0.34822500 0.00001500 -0.00000200
47 0.00000000 0.00000000 0.00000000 0.00000000 0.00000000 -1.57079600
48 -2.94988100 4.72501700 -2.65132700 0.00000000 0.00000000 -3.14156200
49 3.06793889 17.70248174 0.30583433 -1.14257551 1.48326071 -2.43529353
50 -3.72182500 -0.01874400 -0.16628600 0.00000000 0.00000000 0.00000000
51 -0.07787500 0.00000000 0.94552300 0.00000000 0.00000000 0.00000000
52 -0.52072100 0.00000000 0.00000000 0.00000000 0.00000000 0.00000000
53 -0.09341600 0.00000000 0.29065100 0.00000000 0.00000000 0.00000000
54 -0.52072100 0.00000000 0.00000000 0.00000000 0.00000000 0.00000000
55 -0.07463300 0.00000000 -0.50194400 0.00000000 0.00000000 0.00000000
56 -0.52072100 0.00000000 0.00000000 0.00000000 0.00000000 0.00000000
57 -1.30162600 -0.00968900 0.00207000 0.00000000 0.00000000 0.00000000
58 5.13388200 0.22443400 -3.22732600 0.37105200 1.09070500 1.69141200
59 4.31547700 -2.47941500 -4.73170300 3.03513800 0.52386600 -1.85357100
60 2.38163600 -0.00467000 0.89434900 0.00000000 0.00000000 0.00000000
61 -3.21734200 -0.83027300 0.89427200 0.00000000 0.00000000 0.00000000
time 1
0 -0.00000100 7.45008900 -27.50902600 0.00000000 0.00000000 0.00003100
1 -0.00000200 0.00000000 0.00000000 1.57074700 -1.56714200 -1.57074700
2 4.25546600 -0.33518300 -0.00000200 0.00000000 0.00000000 -0.12484800
3 7.43125000 1.49647900 0.00000200 0.00000000 0.00000000 0.24545000
4 5.27847900 0.16554400 0.00000100 0.00000000 0.00000000 0.04851100
5 2.96775500 -11.32174200 1.48897600 1.97586500 1.15990900 -1.29878600
6 -6.21447800 -0.00000900 -0.00002600 -2.79030159 -0.67975630 1.57522126
7 11.94488900 0.00000100 0.00000000 -0.20851897 -0.34823251 1.52664475
8 10.62018500 0.00000100 0.00000000 1.41970150 1.14377209 -2.43212945
9 -4.75111000 -0.69449300 0.83057600 -0.21168600 -0.07600000 0.28785400
10 -1.68806800 0.00004500 -0.00003500 0.01185700 -0.02168200 0.93758000
11 -1.33613600 0.00005600 -0.00001200 0.02600000 -0.00413400 0.71139400
12 -4.82049800 -0.50945900 -0.22475900 -0.41694500 -0.05306200 1.27436600
13 -1.82699000 -0.00006500 0.00000700 0.00880200 0.03949900 1.49369600
14 -1.43657900 0.00001200 0.00000300 -0.05206000 -0.05778500 0.64165300
15 -3.99236100 -0.89118600 -1.82790800 -0.64308800 0.13870200 1.13878200
16 -1.40592000 -0.00002400 -0.00000400 -0.01584700 -0.02480800 1.44307300
17 -1.17536200 0.00012700 -0.00002000 0.05502600 0.03976200 0.84909000
18 -4.52675400 -0.69057400 -1.12074300 -0.54702300 0.06029700 1.33312200
19 -1.74404900 0.00003600 -0.00000800 -0.02815800 -0.00898900 1.67468100
20 -1.36876500 0.00002600 0.00000600 0.02438200 0.04649400 0.37854700
21 -1.71880500 -1.28270600 0.93153400 1.82626100 0.59936100 0.65042700
22 -1.52345100 0.00003400 0.00002900 0.07372000 -0.05612300 0.69721800
23 -1.59928300 0.00000400 0.00001200 -0.04580400 -0.07477900 0.31886600
24 5.51181600 0.00000500 -0.00000200 2.24315282 0.00049620 3.14131975
25 0.19685200 -0.00000200 0.00000300 2.79340695 -0.00045946 -3.14145422
26 2.33743000 -15.09659400 -1.58033000 1.97586200 1.15991000 1.84280300
27 6.21448600 0.00000800 0.00001900 -0.81331006 0.84448107 -2.25828699
28 11.94489600 -0.00003100 -0.00019000 0.23352257 -0.33943001 -1.59989282
29 10.62016900 0.00000600 0.00001200 -1.48149559 -0.18427399 -0.60991414
30 4.75115300 0.69437300 -0.83047100 0.27008600 -0.31842200 0.81032700
31 1.68806600 -0.00002500 0.00000300 0.01539000 -0.01932400 0.76600700
32 1.33614400 -0.00005200 -0.00000900 0.00904800 -0.03764700 0.13514500
33 4.82051200 0.50933700 0.22486600 0.23182200 -0.24475900 0.91537200
34 1.82699700 0.00006700 0.00000900 -0.01154300 0.03879400 0.98337600
35 1.43658200 -0.00000900 0.00000800 0.01325200 -0.00726600 -0.22688700
36 3.99234800 0.89108800 1.82799600 0.04076900 -0.25921600 0.55173200
37 1.40592200 0.00002400 -0.00000400 -0.00899200 -0.02807500 1.18372600
38 1.17536300 -0.00013000 0.00000300 0.07309900 0.09934300 0.59118900
39 4.52675100 0.69045800 1.12084300 0.12505500 -0.23595800 0.82170200
40 1.74404300 -0.00003000 -0.00000100 -0.02363500 -0.01773100 1.34027200
41 1.36876400 -0.00003300 -0.00001600 -0.00637400 0.15858000 -0.22582000
42 1.87484900 0.93508000 -0.99912900 1.89235800 0.45961200 0.54304600
43 1.52345400 -0.00003300 -0.00000400 0.02090027 -0.04145757 0.60335072
44 1.59928000 0.00000200 0.00000500 0.06220500 0.05569400 0.09724300
45 5.51180700 -0.00000200 0.00000500 -1.07120500 0.00000000 0.00000000
46 0.19685000 0.00000200 -0.00000100 -0.34822500 0.00001500 -0.00000200
47 0.00000000 0.00000000 0.00000000 0.00000000 0.00000000 -1.57079600
48 -2.94988100 4.72501700 -2.65132700 0.00000000 0.00000000 -3.14156200
49 2.83268428 18.43691374 0.29894568 -0.88051684 1.39157012 -2.15765102
50 -3.72182500 -0.01874400 -0.16628600 0.00000000 0.00000000 0.00000000
51 -0.07787500 0.00000000 0.94552300 0.00000000 0.00000000 0.00000000
52 -0.52072100 0.00000000 0.00000000 0.00000000 0.00000000 0.00000000
53 -0.09341600 0.00000000 0.29065100 0.00000000 0.00000000 0.00000000
54 -0.52072100 0.00000000 0.00000000 0.00000000 0.00000000 0.00000000
55 -0.07463300 0.00000000 -0.50194400 0.00000000 0.00000000 0.00000000
56 -0.52072100 0.00000000 0.00000000 0.00000000 0.00000000 0.00000000
57 -1.30162600 -0.00968900 0.00207000 0.00000000 0.00000000 0.00000000
58 5.13388200 0.22443400 -3.22732600 0.37105200 1.09070500 1.69141200
59 4.31547700 -2.47941500 -4.73170300 3.03513800 0.52386600 -1.85357100
60 2.38163600 -0.00467000 0.89434900 0.00000000 0.00000000 0.00000000
61 -3.21734200 -0.83027300 0.89427200 0.00000000 0.00000000 0.00000000
time 2
0 -0.00000100 7.45008900 -27.50902600 0.00000000 0.00000000 0.00003100
1 -0.00000200 0.00000000 0.00000000 1.57074700 -1.56714200 -1.57074700
2 4.25546600 -0.33518300 -0.00000200 0.00000000 0.00000000 -0.12484800
3 7.43125000 1.49647900 0.00000200 0.00000000 0.00000000 0.24545000
4 5.27847900 0.16554400 0.00000100 0.00000000 0.00000000 0.04851100
5 2.96775500 -11.32174200 1.48897600 1.97586500 1.15990900 -1.29878600
6 -6.21447800 -0.00000900 -0.00002600 -2.80191860 -0.67108221 1.50878328
7 11.94488900 0.00000100 0.00000000 -0.18044382 -0.34602782 1.44432758
8 10.62018500 0.00000100 0.00000000 1.08609119 1.21396822 -2.89126804
9 -4.75111000 -0.69449300 0.83057600 -0.21168600 -0.07600000 0.28785400
10 -1.68806800 0.00004500 -0.00003500 0.01185700 -0.02168200 0.93758000
11 -1.33613600 0.00005600 -0.00001200 0.02600000 -0.00413400 0.71139400
12 -4.82049800 -0.50945900 -0.22475900 -0.41694500 -0.05306200 1.27436600
13 -1.82699000 -0.00006500 0.00000700 0.00880200 0.03949900 1.49369600
14 -1.43657900 0.00001200 0.00000300 -0.05206000 -0.05778500 0.64165300
15 -3.99236100 -0.89118600 -1.82790800 -0.64308800 0.13870200 1.13878200
16 -1.40592000 -0.00002400 -0.00000400 -0.01584700 -0.02480800 1.44307300
17 -1.17536200 0.00012700 -0.00002000 0.05502600 0.03976200 0.84909000
18 -4.52675400 -0.69057400 -1.12074300 -0.54702300 0.06029700 1.33312200
19 -1.74404900 0.00003600 -0.00000800 -0.02815800 -0.00898900 1.67468100
20 -1.36876500 0.00002600 0.00000600 0.02438200 0.04649400 0.37854700
21 -1.71880500 -1.28270600 0.93153400 1.82626100 0.59936100 0.65042700
22 -1.52345100 0.00003400 0.00002900 0.07372000 -0.05612300 0.69721800
23 -1.59928300 0.00000400 0.00001200 -0.04580400 -0.07477900 0.31886600
24 5.51181600 0.00000500 -0.00000200 2.24315282 0.00049620 3.14131975
25 0.19685200 -0.00000200 0.00000300 2.79340695 -0.00045946 -3.14145422
26 2.33743000 -15.09659400 -1.58033000 1.97586200 1.15991000 1.84280300
27 6.21448600 0.00000800 0.00001900 -0.82551358 0.86319907 -2.19321172
28 11.94489600 -0.00003100 -0.00019000 0.23406651 -0.33833627 -1.60144097
29 10.62016900 0.00000600 0.00001200 -1.59546383 -0.17908883 -0.39782647
30 4.75115300 0.69437300 -0.83047100 0.27008600 -0.31842200 0.81032700
31 1.68806600 -0.00002500 0.00000300 0.01539000 -0.01932400 0.76600700
32 1.33614400 -0.00005200 -0.00000900 0.00904800 -0.03764700 0.13514500
33 4.82051200 0.50933700 0.22486600 0.23182200 -0.24475900 0.91537200
34 1.82699700 0.00006700 0.00000900 -0.01154300 0.03879400 0.98337600
35 1.43658200 -0.00000900 0.00000800 0.01325200 -0.00726600 -0.22688700
36 3.99234800 0.89108800 1.82799600 0.04076900 -0.25921600 0.55173200
37 1.40592200 0.00002400 -0.00000400 -0.00899200 -0.02807500 1.18372600
38 1.17536300 -0.00013000 0.00000300 0.07309900 0.09934300 0.59118900
39 4.52675100 0.69045800 1.12084300 0.12505500 -0.23595800 0.82170200
40 1.74404300 -0.00003000 -0.00000100 -0.02363500 -0.01773100 1.34027200
41 1.36876400 -0.00003300 -0.00001600 -0.00637400 0.15858000 -0.22582000
42 1.87484900 0.93508000 -0.99912900 1.89235800 0.45961200 0.54304600
43 1.52345400 -0.00003300 -0.00000400 0.02081096 -0.04145798 0.60339447
44 1.59928000 0.00000200 0.00000500 0.06220500 0.05569400 0.09724300
45 5.51180700 -0.00000200 0.00000500 -1.07120500 0.00000000 0.00000000
46 0.19685000 0.00000200 -0.00000100 -0.34822500 0.00001500 -0.00000200
47 0.00000000 0.00000000 0.00000000 0.00000000 0.00000000 -1.57079600
48 -2.94988100 4.72501700 -2.65132700 0.00000000 0.00000000 -3.14156200
49 2.25067789 20.18653274 0.28533620 -0.69219960 1.15347288 -1.95460822
50 -3.72182500 -0.01874400 -0.16628600 0.00000000 0.00000000 0.00000000
51 -0.07787500 0.00000000 0.94552300 0.00000000 0.00000000 0.00000000
52 -0.52072100 0.00000000 0.00000000 0.00000000 0.00000000 0.00000000
53 -0.09341600 0.00000000 0.29065100 0.00000000 0.00000000 0.00000000
54 -0.52072100 0.00000000 0.00000000 0.00000000 0.00000000 0.00000000
55 -0.07463300 0.00000000 -0.50194400 0.00000000 0.00000000 0.00000000
56 -0.52072100 0.00000000 0.00000000 0.00000000 0.00000000 0.00000000
57 -1.30162600 -0.00968900 0.00207000 0.00000000 0.00000000 0.00000000
58 5.13388200 0.22443400 -3.22732600 0.37105200 1.09070500 1.69141200
59 4.31547700 -2.47941500 -4.73170300 3.03513800 0.52386600 -1.85357100
60 2.38163600 -0.00467000 0.89434900 0.00000000 0.00000000 0.00000000
61 -3.21734200 -0.83027300 0.89427200 0.00000000 0.00000000 0.00000000
time 3
0 -0.00000100 7.45008900 -27.50902600 0.00000000 0.00000000 0.00003100
1 -0.00000200 0.00000000 0.00000000 1.57074700 -1.56714200 -1.57074700
2 4.25546600 -0.33518300 -0.00000200 0.00000000 0.00000000 -0.12484800
3 7.43125000 1.49647900 0.00000200 0.00000000 0.00000000 0.24545000
4 5.27847900 0.16554400 0.00000100 0.00000000 0.00000000 0.04851100
5 2.96775500 -11.32174200 1.48897600 1.97586500 1.15990900 -1.29878600
6 -6.21447800 -0.00000900 -0.00002600 -2.80137005 -0.66048170 1.44919713
7 11.94488900 0.00000100 0.00000000 -0.16302983 -0.34435401 1.39282879
8 10.62018500 0.00000100 0.00000000 0.65047640 1.11250459 2.76318483
9 -4.75111000 -0.69449300 0.83057600 -0.21168600 -0.07600000 0.28785400
10 -1.68806800 0.00004500 -0.00003500 0.01185700 -0.02168200 0.93758000
11 -1.33613600 0.00005600 -0.00001200 0.02600000 -0.00413400 0.71139400
12 -4.82049800 -0.50945900 -0.22475900 -0.41694500 -0.05306200 1.27436600
13 -1.82699000 -0.00006500 0.00000700 0.00880200 0.03949900 1.49369600
14 -1.43657900 0.00001200 0.00000300 -0.05206000 -0.05778500 0.64165300
15 -3.99236100 -0.89118600 -1.82790800 -0.64308800 0.13870200 1.13878200
16 -1.40592000 -0.00002400 -0.00000400 -0.01584700 -0.02480800 1.44307300
17 -1.17536200 0.00012700 -0.00002000 0.05502600 0.03976200 0.84909000
18 -4.52675400 -0.69057400 -1.12074300 -0.54702300 0.06029700 1.33312200
19 -1.74404900 0.00003600 -0.00000800 -0.02815800 -0.00898900 1.67468100
20 -1.36876500 0.00002600 0.00000600 0.02438200 0.04649400 0.37854700
21 -1.71880500 -1.28270600 0.93153400 1.82626100 0.59936100 0.65042700
22 -1.52345100 0.00003400 0.00002900 0.07372000 -0.05612300 0.69721800
23 -1.59928300 0.00000400 0.00001200 -0.04580400 -0.07477900 0.31886600
24 5.51181600 0.00000500 -0.00000200 2.24315282 0.00049620 3.14131975
25 0.19685200 -0.00000200 0.00000300 2.79340695 -0.00045946 -3.14145422
26 2.33743000 -15.09659400 -1.58033000 1.97586200 1.15991000 1.84280300
27 6.21448600 0.00000800 0.00001900 -0.83221235 0.88577559 -2.13764345
28 11.94489600 -0.00003100 -0.00019000 0.23804581 -0.34139827 -1.61299815
29 10.62016900 0.00000600 0.00001200 -1.72605560 -0.19599728 -0.10421488
30 4.75115300 0.69437300 -0.83047100 0.27008600 -0.31842200 0.81032700
31 1.68806600 -0.00002500 0.00000300 0.01539000 -0.01932400 0.76600700
32 1.33614400 -0.00005200 -0.00000900 0.00904800 -0.03764700 0.13514500
33 4.82051200 0.50933700 0.22486600 0.23182200 -0.24475900 0.91537200
34 1.82699700 0.00006700 0.00000900 -0.01154300 0.03879400 0.98337600
35 1.43658200 -0.00000900 0.00000800 0.01325200 -0.00726600 -0.22688700
36 3.99234800 0.89108800 1.82799600 0.04076900 -0.25921600 0.55173200
37 1.40592200 0.00002400 -0.00000400 -0.00899200 -0.02807500 1.18372600
38 1.17536300 -0.00013000 0.00000300 0.07309900 0.09934300 0.59118900
39 4.52675100 0.69045800 1.12084300 0.12505500 -0.23595800 0.82170200
40 1.74404300 -0.00003000 -0.00000100 -0.02363500 -0.01773100 1.34027200
41 1.36876400 -0.00003300 -0.00001600 -0.00637400 0.15858000 -0.22582000
42 1.87484900 0.93508000 -0.99912900 1.89235800 0.45961200 0.54304600
43 1.52345400 -0.00003300 -0.00000400 0.02059299 -0.04141471 0.60339552
44 1.59928000 0.00000200 0.00000500 0.06220500 0.05569400 0.09724300
45 5.51180700 -0.00000200 0.00000500 -1.07120500 0.00000000 0.00000000
46 0.19685000 0.00000200 -0.00000100 -0.34822500 0.00001500 -0.00000200
47 0.00000000 0.00000000 0.00000000 0.00000000 0.00000000 -1.57079600
48 -2.94988100 4.72501700 -2.65132700 0.00000000 0.00000000 -3.14156200
49 1.53684095 22.26271374 0.22397970 -0.54497103 0.84238592 -1.79742325
50 -3.72182500 -0.01874400 -0.16628600 0.00000000 0.00000000 0.00000000
51 -0.07787500 0.00000000 0.94552300 0.00000000 0.00000000 0.00000000
52 -0.52072100 0.00000000 0.00000000 0.00000000 0.00000000 0.00000000
53 -0.09341600 0.00000000 0.29065100 0.00000000 0.00000000 0.00000000
54 -0.52072100 0.00000000 0.00000000 0.00000000 0.00000000 0.00000000
55 -0.07463300 0.00000000 -0.50194400 0.00000000 0.00000000 0.00000000
56 -0.52072100 0.00000000 0.00000000 0.00000000 0.00000000 0.00000000
57 -1.30162600 -0.00968900 0.00207000 0.00000000 0.00000000 0.00000000
58 5.13388200 0.22443400 -3.22732600 0.37105200 1.09070500 1.69141200
59 4.31547700 -2.47941500 -4.73170300 3.03513800 0.52386600 -1.85357100
60 2.38163600 -0.00467000 0.89434900 0.00000000 0.00000000 0.00000000
61 -3.21734200 -0.83027300 0.89427200 0.00000000 0.00000000 0.00000000
time 4
0 -0.00000100 7.45008900 -27.50902600 0.00000000 0.00000000 0.00003100
1 -0.00000200 0.00000000 0.00000000 1.57074700 -1.56714200 -1.57074700
2 4.25546600 -0.33518300 -0.00000200 0.00000000 0.00000000 -0.12484800
3 7.43125000 1.49647900 0.00000200 0.00000000 0.00000000 0.24545000
4 5.27847900 0.16554400 0.00000100 0.00000000 0.00000000 0.04851100
5 2.96775500 -11.32174200 1.48897600 1.97586500 1.15990900 -1.29878600
6 -6.21447800 -0.00000900 -0.00002600 -2.78636545 -0.64723013 1.42853204
7 11.94488900 0.00000100 0.00000000 -0.16474898 -0.34490340 1.39806306
8 10.62018500 0.00000100 0.00000000 0.61923935 0.86723299 2.46961188
9 -4.75111000 -0.69449300 0.83057600 -0.21168600 -0.07600000 0.28785400
10 -1.68806800 0.00004500 -0.00003500 0.01185700 -0.02168200 0.93758000
11 -1.33613600 0.00005600 -0.00001200 0.02600000 -0.00413400 0.71139400
12 -4.82049800 -0.50945900 -0.22475900 -0.41694500 -0.05306200 1.27436600
13 -1.82699000 -0.00006500 0.00000700 0.00880200 0.03949900 1.49369600
14 -1.43657900 0.00001200 0.00000300 -0.05206000 -0.05778500 0.64165300
15 -3.99236100 -0.89118600 -1.82790800 -0.64308800 0.13870200 1.13878200
16 -1.40592000 -0.00002400 -0.00000400 -0.01584700 -0.02480800 1.44307300
17 -1.17536200 0.00012700 -0.00002000 0.05502600 0.03976200 0.84909000
18 -4.52675400 -0.69057400 -1.12074300 -0.54702300 0.06029700 1.33312200
19 -1.74404900 0.00003600 -0.00000800 -0.02815800 -0.00898900 1.67468100
20 -1.36876500 0.00002600 0.00000600 0.02438200 0.04649400 0.37854700
21 -1.71880500 -1.28270600 0.93153400 1.82626100 0.59936100 0.65042700
22 -1.52345100 0.00003400 0.00002900 0.07372000 -0.05612300 0.69721800
23 -1.59928300 0.00000400 0.00001200 -0.04580400 -0.07477900 0.31886600
24 5.51181600 0.00000500 -0.00000200 2.24315282 0.00049620 3.14131975
25 0.19685200 -0.00000200 0.00000300 2.79340695 -0.00045946 -3.14145422
26 2.33743000 -15.09659400 -1.58033000 1.97586200 1.15991000 1.84280300
27 6.21448600 0.00000800 0.00001900 -0.82205930 0.90662376 -2.11556194
28 11.94489600 -0.00003100 -0.00019000 0.24270525 -0.34476707 -1.62671659
29 10.62016900 0.00000600 0.00001200 -1.89692315 -0.27453221 0.20914423
30 4.75115300 0.69437300 -0.83047100 0.27008600 -0.31842200 0.81032700
31 1.68806600 -0.00002500 0.00000300 0.01539000 -0.01932400 0.76600700
32 1.33614400 -0.00005200 -0.00000900 0.00904800 -0.03764700 0.13514500
33 4.82051200 0.50933700 0.22486600 0.23182200 -0.24475900 0.91537200
34 1.82699700 0.00006700 0.00000900 -0.01154300 0.03879400 0.98337600
35 1.43658200 -0.00000900 0.00000800 0.01325200 -0.00726600 -0.22688700
36 3.99234800 0.89108800 1.82799600 0.04076900 -0.25921600 0.55173200
37 1.40592200 0.00002400 -0.00000400 -0.00899200 -0.02807500 1.18372600
38 1.17536300 -0.00013000 0.00000300 0.07309900 0.09934300 0.59118900
39 4.52675100 0.69045800 1.12084300 0.12505500 -0.23595800 0.82170200
40 1.74404300 -0.00003000 -0.00000100 -0.02363500 -0.01773100 1.34027200
41 1.36876400 -0.00003300 -0.00001600 -0.00637400 0.15858000 -0.22582000
42 1.87484900 0.93508000 -0.99912900 1.89235800 0.45961200 0.54304600
43 1.52345400 -0.00003300 -0.00000400 0.02032964 -0.04137144 0.60343993
44 1.59928000 0.00000200 0.00000500 0.06220500 0.05569400 0.09724300
45 5.51180700 -0.00000200 0.00000500 -1.07120500 0.00000000 0.00000000
46 0.19685000 0.00000200 -0.00000100 -0.34822500 0.00001500 -0.00000200
47 0.00000000 0.00000000 0.00000000 0.00000000 0.00000000 -1.57079600
48 -2.94988100 4.72501700 -2.65132700 0.00000000 0.00000000 -3.14156200
49 0.86760978 24.07759274 0.08967615 -0.37642383 0.52860912 -1.66117137
50 -3.72182500 -0.01874400 -0.16628600 0.00000000 0.00000000 0.00000000
51 -0.07787500 0.00000000 0.94552300 0.00000000 0.00000000 0.00000000
52 -0.52072100 0.00000000 0.00000000 0.00000000 0.00000000 0.00000000
53 -0.09341600 0.00000000 0.29065100 0.00000000 0.00000000 0.00000000
54 -0.52072100 0.00000000 0.00000000 0.00000000 0.00000000 0.00000000
55 -0.07463300 0.00000000 -0.50194400 0.00000000 0.00000000 0.00000000
56 -0.52072100 0.00000000 0.00000000 0.00000000 0.00000000 0.00000000
57 -1.30162600 -0.00968900 0.00207000 0.00000000 0.00000000 0.00000000
58 5.13388200 0.22443400 -3.22732600 0.37105200 1.09070500 1.69141200
59 4.31547700 -2.47941500 -4.73170300 3.03513800 0.52386600 -1.85357100
60 2.38163600 -0.00467000 0.89434900 0.00000000 0.00000000 0.00000000
61 -3.21734200 -0.83027300 0.89427200 0.00000000 0.00000000 0.00000000
time 5
0 -0.00000100 7.45008900 -27.50902600 0.00000000 0.00000000 0.00003100
1 -0.00000200 0.00000000 0.00000000 1.57074700 -1.56714200 -1.57074700
2 4.25546600 -0.33518300 -0.00000200 0.00000000 0.00000000 -0.12484800
3 7.43125000 1.49647900 0.00000200 0.00000000 0.00000000 0.24545000
4 5.27847900 0.16554400 0.00000100 0.00000000 0.00000000 0.04851100
5 2.96775500 -11.32174200 1.48897600 1.97586500 1.15990900 -1.29878600
6 -6.21447800 -0.00000900 -0.00002600 -2.75290360 -0.62010679 1.41704876
7 11.94488900 0.00000100 0.00000000 -0.16793287 -0.34517207 1.40735927
8 10.62018500 0.00000100 0.00000000 0.77918906 0.63756455 2.32652610
9 -4.75111000 -0.69449300 0.83057600 -0.21168600 -0.07600000 0.28785400
10 -1.68806800 0.00004500 -0.00003500 0.01185700 -0.02168200 0.93758000
11 -1.33613600 0.00005600 -0.00001200 0.02600000 -0.00413400 0.71139400
12 -4.82049800 -0.50945900 -0.22475900 -0.41694500 -0.05306200 1.27436600
13 -1.82699000 -0.00006500 0.00000700 0.00880200 0.03949900 1.49369600
14 -1.43657900 0.00001200 0.00000300 -0.05206000 -0.05778500 0.64165300
15 -3.99236100 -0.89118600 -1.82790800 -0.64308800 0.13870200 1.13878200
16 -1.40592000 -0.00002400 -0.00000400 -0.01584700 -0.02480800 1.44307300
17 -1.17536200 0.00012700 -0.00002000 0.05502600 0.03976200 0.84909000
18 -4.52675400 -0.69057400 -1.12074300 -0.54702300 0.06029700 1.33312200
19 -1.74404900 0.00003600 -0.00000800 -0.02815800 -0.00898900 1.67468100
20 -1.36876500 0.00002600 0.00000600 0.02438200 0.04649400 0.37854700
21 -1.71880500 -1.28270600 0.93153400 1.82626100 0.59936100 0.65042700
22 -1.52345100 0.00003400 0.00002900 0.07372000 -0.05612300 0.69721800
23 -1.59928300 0.00000400 0.00001200 -0.04580400 -0.07477900 0.31886600
24 5.51181600 0.00000500 -0.00000200 2.24315282 0.00049620 3.14131975
25 0.19685200 -0.00000200 0.00000300 2.79340695 -0.00045946 -3.14145422
26 2.33743000 -15.09659400 -1.58033000 1.97586200 1.15991000 1.84280300
27 6.21448600 0.00000800 0.00001900 -0.81041796 0.91171017 -2.12356597
28 11.94489600 -0.00003100 -0.00019000 0.24212098 -0.34760894 -1.62498907
29 10.62016900 0.00000600 0.00001200 -2.13053306 -0.34390857 0.49675760
30 4.75115300 0.69437300 -0.83047100 0.27008600 -0.31842200 0.81032700
31 1.68806600 -0.00002500 0.00000300 0.01539000 -0.01932400 0.76600700
32 1.33614400 -0.00005200 -0.00000900 0.00904800 -0.03764700 0.13514500
33 4.82051200 0.50933700 0.22486600 0.23182200 -0.24475900 0.91537200
34 1.82699700 0.00006700 0.00000900 -0.01154300 0.03879400 0.98337600
35 1.43658200 -0.00000900 0.00000800 0.01325200 -0.00726600 -0.22688700
36 3.99234800 0.89108800 1.82799600 0.04076900 -0.25921600 0.55173200
37 1.40592200 0.00002400 -0.00000400 -0.00899200 -0.02807500 1.18372600
38 1.17536300 -0.00013000 0.00000300 0.07309900 0.09934300 0.59118900
39 4.52675100 0.69045800 1.12084300 0.12505500 -0.23595800 0.82170200
40 1.74404300 -0.00003000 -0.00000100 -0.02363500 -0.01773100 1.34027200
41 1.36876400 -0.00003300 -0.00001600 -0.00637400 0.15858000 -0.22582000
42 1.87484900 0.93508000 -0.99912900 1.89235800 0.45961200 0.54304600
43 1.52345400 -0.00003300 -0.00000400 0.01997952 -0.04128512 0.60348523
44 1.59928000 0.00000200 0.00000500 0.06220500 0.05569400 0.09724300
45 5.51180700 -0.00000200 0.00000500 -1.07120500 0.00000000 0.00000000
46 0.19685000 0.00000200 -0.00000100 -0.34822500 0.00001500 -0.00000200
47 0.00000000 0.00000000 0.00000000 0.00000000 0.00000000 -1.57079600
48 -2.94988100 4.72501700 -2.65132700 0.00000000 0.00000000 -3.14156200
49 0.31183409 25.45887374 -0.09842669 -0.20431726 0.25512790 -1.58950092
50 -3.72182500 -0.01874400 -0.16628600 0.00000000 0.00000000 0.00000000
51 -0.07787500 0.00000000 0.94552300 0.00000000 0.00000000 0.00000000
52 -0.52072100 0.00000000 0.00000000 0.00000000 0.00000000 0.00000000
53 -0.09341600 0.00000000 0.29065100 0.00000000 0.00000000 0.00000000
54 -0.52072100 0.00000000 0.00000000 0.00000000 0.00000000 0.00000000
55 -0.07463300 0.00000000 -0.50194400 0.00000000 0.00000000 0.00000000
56 -0.52072100 0.00000000 0.00000000 0.00000000 0.00000000 0.00000000
57 -1.30162600 -0.00968900 0.00207000 0.00000000 0.00000000 0.00000000
58 5.13388200 0.22443400 -3.22732600 0.37105200 1.09070500 1.69141200
59 4.31547700 -2.47941500 -4.73170300 3.03513800 0.52386600 -1.85357100
60 2.38163600 -0.00467000 0.89434900 0.00000000 0.00000000 0.00000000
61 -3.21734200 -0.83027300 0.89427200 0.00000000 0.00000000 0.00000000
time 6
0 -0.00000100 7.45008900 -27.50902600 0.00000000 0.00000000 0.00003100
1 -0.00000200 0.00000000 0.00000000 1.57074700 -1.56714200 -1.57074700
2 4.25546600 -0.33518300 -0.00000200 0.00000000 0.00000000 -0.12484800
3 7.43125000 1.49647900 0.00000200 0.00000000 0.00000000 0.24545000
4 5.27847900 0.16554400 0.00000100 0.00000000 0.00000000 0.04851100
5 2.96775500 -11.32174200 1.48897600 1.97586500 1.15990900 -1.29878600
6 -6.21447800 -0.00000900 -0.00002600 -2.71902295 -0.58849040 1.40273453
7 11.94488900 0.00000100 0.00000000 -0.16415289 -0.34433129 1.39631973
8 10.62018500 0.00000100 0.00000000 0.95064547 0.48711008 2.24969865
9 -4.75111000 -0.69449300 0.83057600 -0.21168600 -0.07600000 0.28785400
10 -1.68806800 0.00004500 -0.00003500 0.01185700 -0.02168200 0.93758000
11 -1.33613600 0.00005600 -0.00001200 0.02600000 -0.00413400 0.71139400
12 -4.82049800 -0.50945900 -0.22475900 -0.41694500 -0.05306200 1.27436600
13 -1.82699000 -0.00006500 0.00000700 0.00880200 0.03949900 1.49369600
14 -1.43657900 0.00001200 0.00000300 -0.05206000 -0.05778500 0.64165300
15 -3.99236100 -0.89118600 -1.82790800 -0.64308800 0.13870200 1.13878200
16 -1.40592000 -0.00002400 -0.00000400 -0.01584700 -0.02480800 1.44307300
17 -1.17536200 0.00012700 -0.00002000 0.05502600 0.03976200 0.84909000
18 -4.52675400 -0.69057400 -1.12074300 -0.54702300 0.06029700 1.33312200
19 -1.74404900 0.00003600 -0.00000800 -0.02815800 -0.00898900 1.67468100
20 -1.36876500 0.00002600 0.00000600 0.02438200 0.04649400 0.37854700
21 -1.71880500 -1.28270600 0.93153400 1.82626100 0.59936100 0.65042700
22 -1.52345100 0.00003400 0.00002900 0.07372000 -0.05612300 0.69721800
23 -1.59928300 0.00000400 0.00001200 -0.04580400 -0.07477900 0.31886600
24 5.51181600 0.00000500 -0.00000200 2.24315282 0.00049620 3.14131975
25 0.19685200 -0.00000200 0.00000300 2.79340695 -0.00045946 -3.14145422
26 2.33743000 -15.09659400 -1.58033000 1.97586200 1.15991000 1.84280300
27 6.21448600 0.00000800 0.00001900 -0.80478103 0.90654543 -2.14204198
28 11.94489600 -0.00003100 -0.00019000 0.23802984 -0.34907680 -1.61292343
29 10.62016900 0.00000600 0.00001200 -2.34507517 -0.37253404 0.70116151
30 4.75115300 0.69437300 -0.83047100 0.27008600 -0.31842200 0.81032700
31 1.68806600 -0.00002500 0.00000300 0.01539000 -0.01932400 0.76600700
32 1.33614400 -0.00005200 -0.00000900 0.00904800 -0.03764700 0.13514500
33 4.82051200 0.50933700 0.22486600 0.23182200 -0.24475900 0.91537200
34 1.82699700 0.00006700 0.00000900 -0.01154300 0.03879400 0.98337600
35 1.43658200 -0.00000900 0.00000800 0.01325200 -0.00726600 -0.22688700
36 3.99234800 0.89108800 1.82799600 0.04076900 -0.25921600 0.55173200
37 1.40592200 0.00002400 -0.00000400 -0.00899200 -0.02807500 1.18372600
38 1.17536300 -0.00013000 0.00000300 0.07309900 0.09934300 0.59118900
39 4.52675100 0.69045800 1.12084300 0.12505500 -0.23595800 0.82170200
40 1.74404300 -0.00003000 -0.00000100 -0.02363500 -0.01773100 1.34027200
41 1.36876400 -0.00003300 -0.00001600 -0.00637400 0.15858000 -0.22582000
42 1.87484900 0.93508000 -0.99912900 1.89235800 0.45961200 0.54304600
43 1.52345400 -0.00003300 -0.00000400 0.01958694 -0.04124211 0.60348643
44 1.59928000 0.00000200 0.00000500 0.06220500 0.05569400 0.09724300
45 5.51180700 -0.00000200 0.00000500 -1.07120500 0.00000000 0.00000000
46 0.19685000 0.00000200 -0.00000100 -0.34822500 0.00001500 -0.00000200
47 0.00000000 0.00000000 0.00000000 0.00000000 0.00000000 -1.57079600
48 -2.94988100 4.72501700 -2.65132700 0.00000000 0.00000000 -3.14156200
49 -0.08408230 26.33794974 -0.30635234 -0.05942615 0.06817379 -1.56610977
50 -3.72182500 -0.01874400 -0.16628600 0.00000000 0.00000000 0.00000000
51 -0.07787500 0.00000000 0.94552300 0.00000000 0.00000000 0.00000000
52 -0.52072100 0.00000000 0.00000000 0.00000000 0.00000000 0.00000000
53 -0.09341600 0.00000000 0.29065100 0.00000000 0.00000000 0.00000000
54 -0.52072100 0.00000000 0.00000000 0.00000000 0.00000000 0.00000000
55 -0.07463300 0.00000000 -0.50194400 0.00000000 0.00000000 0.00000000
56 -0.52072100 0.00000000 0.00000000 0.00000000 0.00000000 0.00000000
57 -1.30162600 -0.00968900 0.00207000 0.00000000 0.00000000 0.00000000
58 5.13388200 0.22443400 -3.22732600 0.37105200 1.09070500 1.69141200
59 4.31547700 -2.47941500 -4.73170300 3.03513800 0.52386600 -1.85357100
60 2.38163600 -0.00467000 0.89434900 0.00000000 0.00000000 0.00000000
61 -3.21734200 -0.83027300 0.89427200 0.00000000 0.00000000 0.00000000
time 7
0 -0.00000100 7.45008900 -27.50902600 0.00000000 0.00000000 0.00003100
1 -0.00000200 0.00000000 0.00000000 1.57074700 -1.56714200 -1.57074700
2 4.25546600 -0.33518300 -0.00000200 0.00000000 0.00000000 -0.12484800
3 7.43125000 1.49647900 0.00000200 0.00000000 0.00000000 0.24545000
4 5.27847900 0.16554400 0.00000100 0.00000000 0.00000000 0.04851100
5 2.96775500 -11.32174200 1.48897600 1.97586500 1.15990900 -1.29878600
6 -6.21447800 -0.00000900 -0.00002600 -2.70767733 -0.57758746 1.40116547
7 11.94488900 0.00000100 0.00000000 -0.16171782 -0.34395052 1.38885852
8 10.62018500 0.00000100 0.00000000 1.05199936 0.43447026 2.23964040
9 -4.75111000 -0.69449300 0.83057600 -0.21168600 -0.07600000 0.28785400
10 -1.68806800 0.00004500 -0.00003500 0.01185700 -0.02168200 0.93758000
11 -1.33613600 0.00005600 -0.00001200 0.02600000 -0.00413400 0.71139400
12 -4.82049800 -0.50945900 -0.22475900 -0.41694500 -0.05306200 1.27436600
13 -1.82699000 -0.00006500 0.00000700 0.00880200 0.03949900 1.49369600
14 -1.43657900 0.00001200 0.00000300 -0.05206000 -0.05778500 0.64165300
15 -3.99236100 -0.89118600 -1.82790800 -0.64308800 0.13870200 1.13878200
16 -1.40592000 -0.00002400 -0.00000400 -0.01584700 -0.02480800 1.44307300
17 -1.17536200 0.00012700 -0.00002000 0.05502600 0.03976200 0.84909000
18 -4.52675400 -0.69057400 -1.12074300 -0.54702300 0.06029700 1.33312200
19 -1.74404900 0.00003600 -0.00000800 -0.02815800 -0.00898900 1.67468100
20 -1.36876500 0.00002600 0.00000600 0.02438200 0.04649400 0.37854700
21 -1.71880500 -1.28270600 0.93153400 1.82626100 0.59936100 0.65042700
22 -1.52345100 0.00003400 0.00002900 0.07372000 -0.05612300 0.69721800
23 -1.59928300 0.00000400 0.00001200 -0.04580400 -0.07477900 0.31886600
24 5.51181600 0.00000500 -0.00000200 2.24315282 0.00049620 3.14131975
25 0.19685200 -0.00000200 0.00000300 2.79340695 -0.00045946 -3.14145422
26 2.33743000 -15.09659400 -1.58033000 1.97586200 1.15991000 1.84280300
27 6.21448600 0.00000800 0.00001900 -0.79666179 0.90773581 -2.15175329
28 11.94489600 -0.00003100 -0.00019000 0.23315645 -0.34942904 -1.59862513
29 10.62016900 0.00000600 0.00001200 -2.46595819 -0.38947778 0.77010437
30 4.75115300 0.69437300 -0.83047100 0.27008600 -0.31842200 0.81032700
31 1.68806600 -0.00002500 0.00000300 0.01539000 -0.01932400 0.76600700
32 1.33614400 -0.00005200 -0.00000900 0.00904800 -0.03764700 0.13514500
33 4.82051200 0.50933700 0.22486600 0.23182200 -0.24475900 0.91537200
34 1.82699700 0.00006700 0.00000900 -0.01154300 0.03879400 0.98337600
35 1.43658200 -0.00000900 0.00000800 0.01325200 -0.00726600 -0.22688700
36 3.99234800 0.89108800 1.82799600 0.04076900 -0.25921600 0.55173200
37 1.40592200 0.00002400 -0.00000400 -0.00899200 -0.02807500 1.18372600
38 1.17536300 -0.00013000 0.00000300 0.07309900 0.09934300 0.59118900
39 4.52675100 0.69045800 1.12084300 0.12505500 -0.23595800 0.82170200
40 1.74404300 -0.00003000 -0.00000100 -0.02363500 -0.01773100 1.34027200
41 1.36876400 -0.00003300 -0.00001600 -0.00637400 0.15858000 -0.22582000
42 1.87484900 0.93508000 -0.99912900 1.89235800 0.45961200 0.54304600
43 1.52345400 -0.00003300 -0.00000400 0.01914752 -0.04115628 0.60357505
44 1.59928000 0.00000200 0.00000500 0.06220500 0.05569400 0.09724300
45 5.51180700 -0.00000200 0.00000500 -1.07120500 0.00000000 0.00000000
46 0.19685000 0.00000200 -0.00000100 -0.34822500 0.00001500 -0.00000200
47 0.00000000 0.00000000 0.00000000 0.00000000 0.00000000 -1.57079600
48 -2.94988100 4.72501700 -2.65132700 0.00000000 0.00000000 -3.14156200
49 -0.26330632 26.64622074 -0.48169014 0.02700429 0.00029846 -1.56293852
50 -3.72182500 -0.01874400 -0.16628600 0.00000000 0.00000000 0.00000000
51 -0.07787500 0.00000000 0.94552300 0.00000000 0.00000000 0.00000000
52 -0.52072100 0.00000000 0.00000000 0.00000000 0.00000000 0.00000000
53 -0.09341600 0.00000000 0.29065100 0.00000000 0.00000000 0.00000000
54 -0.52072100 0.00000000 0.00000000 0.00000000 0.00000000 0.00000000
55 -0.07463300 0.00000000 -0.50194400 0.00000000 0.00000000 0.00000000
56 -0.52072100 0.00000000 0.00000000 0.00000000 0.00000000 0.00000000
57 -1.30162600 -0.00968900 0.00207000 0.00000000 0.00000000 0.00000000
58 5.13388200 0.22443400 -3.22732600 0.37105200 1.09070500 1.69141200
59 4.31547700 -2.47941500 -4.73170300 3.03513800 0.52386600 -1.85357100
60 2.38163600 -0.00467000 0.89434900 0.00000000 0.00000000 0.00000000
61 -3.21734200 -0.83027300 0.89427200 0.00000000 0.00000000 0.00000000
time 8
0 -0.00000100 7.45008900 -27.50902600 0.00000000 0.00000000 0.00003100
1 -0.00000200 0.00000000 0.00000000 1.57074700 -1.56714200 -1.57074700
2 4.25546600 -0.33518300 -0.00000200 0.00000000 0.00000000 -0.12484800
3 7.43125000 1.49647900 0.00000200 0.00000000 0.00000000 0.24545000
4 5.27847900 0.16554400 0.00000100 0.00000000 0.00000000 0.04851100
5 2.96775500 -11.32174200 1.48897600 1.97586500 1.15990900 -1.29878600
6 -6.21447800 -0.00000900 -0.00002600 -2.71135405 -0.58306807 1.40962412
7 11.94488900 0.00000100 0.00000000 -0.16267204 -0.34414848 1.39201248
8 10.62018500 0.00000100 0.00000000 1.08758627 0.43283808 2.26081234
9 -4.75111000 -0.69449300 0.83057600 -0.21168600 -0.07600000 0.28785400
10 -1.68806800 0.00004500 -0.00003500 0.01185700 -0.02168200 0.93758000
11 -1.33613600 0.00005600 -0.00001200 0.02600000 -0.00413400 0.71139400
12 -4.82049800 -0.50945900 -0.22475900 -0.41694500 -0.05306200 1.27436600
13 -1.82699000 -0.00006500 0.00000700 0.00880200 0.03949900 1.49369600
14 -1.43657900 0.00001200 0.00000300 -0.05206000 -0.05778500 0.64165300
15 -3.99236100 -0.89118600 -1.82790800 -0.64308800 0.13870200 1.13878200
16 -1.40592000 -0.00002400 -0.00000400 -0.01584700 -0.02480800 1.44307300
17 -1.17536200 0.00012700 -0.00002000 0.05502600 0.03976200 0.84909000
18 -4.52675400 -0.69057400 -1.12074300 -0.54702300 0.06029700 1.33312200
19 -1.74404900 0.00003600 -0.00000800 -0.02815800 -0.00898900 1.67468100
20 -1.36876500 0.00002600 0.00000600 0.02438200 0.04649400 0.37854700
21 -1.71880500 -1.28270600 0.93153400 1.82626100 0.59936100 0.65042700
22 -1.52345100 0.00003400 0.00002900 0.07372000 -0.05612300 0.69721800
23 -1.59928300 0.00000400 0.00001200 -0.04580400 -0.07477900 0.31886600
24 5.51181600 0.00000500 -0.00000200 2.24315282 0.00049620 3.14131975
25 0.19685200 -0.00000200 0.00000300 2.79340695 -0.00045946 -3.14145422
26 2.33743000 -15.09659400 -1.58033000 1.97586200 1.15991000 1.84280300
27 6.21448600 0.00000800 0.00001900 -0.78691586 0.91424225 -2.15261067
28 11.94489600 -0.00003100 -0.00019000 0.22931759 -0.34931242 -1.58755514
29 10.62016900 0.00000600 0.00001200 -2.50668150 -0.40798529 0.76151854
30 4.75115300 0.69437300 -0.83047100 0.27008600 -0.31842200 0.81032700
31 1.68806600 -0.00002500 0.00000300 0.01539000 -0.01932400 0.76600700
32 1.33614400 -0.00005200 -0.00000900 0.00904800 -0.03764700 0.13514500
33 4.82051200 0.50933700 0.22486600 0.23182200 -0.24475900 0.91537200
34 1.82699700 0.00006700 0.00000900 -0.01154300 0.03879400 0.98337600
35 1.43658200 -0.00000900 0.00000800 0.01325200 -0.00726600 -0.22688700
36 3.99234800 0.89108800 1.82799600 0.04076900 -0.25921600 0.55173200
37 1.40592200 0.00002400 -0.00000400 -0.00899200 -0.02807500 1.18372600
38 1.17536300 -0.00013000 0.00000300 0.07309900 0.09934300 0.59118900
39 4.52675100 0.69045800 1.12084300 0.12505500 -0.23595800 0.82170200
40 1.74404300 -0.00003000 -0.00000100 -0.02363500 -0.01773100 1.34027200
41 1.36876400 -0.00003300 -0.00001600 -0.00637400 0.15858000 -0.22582000
42 1.87484900 0.93508000 -0.99912900 1.89235800 0.45961200 0.54304600
43 1.52345400 -0.00003300 -0.00000400 0.01862278 -0.04106976 0.60362055
44 1.59928000 0.00000200 0.00000500 0.06220500 0.05569400 0.09724300
45 5.51180700 -0.00000200 0.00000500 -1.07120500 0.00000000 0.00000000
46 0.19685000 0.00000200 -0.00000100 -0.34822500 0.00001500 -0.00000200
47 0.00000000 0.00000000 0.00000000 0.00000000 0.00000000 -1.57079600
48 -2.94988100 4.72501700 -2.65132700 0.00000000 0.00000000 -3.14156200
49 -0.28797180 26.64622074 -0.59577264 0.06006576 0.00040717 -1.56174236
50 -3.72182500 -0.01874400 -0.16628600 0.00000000 0.00000000 0.00000000
51 -0.07787500 0.00000000 0.94552300 0.00000000 0.00000000 0.00000000
52 -0.52072100 0.00000000 0.00000000 0.00000000 0.00000000 0.00000000
53 -0.09341600 0.00000000 0.29065100 0.00000000 0.00000000 0.00000000
54 -0.52072100 0.00000000 0.00000000 0.00000000 0.00000000 0.00000000
55 -0.07463300 0.00000000 -0.50194400 0.00000000 0.00000000 0.00000000
56 -0.52072100 0.00000000 0.00000000 0.00000000 0.00000000 0.00000000
57 -1.30162600 -0.00968900 0.00207000 0.00000000 0.00000000 0.00000000
58 5.13388200 0.22443400 -3.22732600 0.37105200 1.09070500 1.69141200
59 4.31547700 -2.47941500 -4.73170300 3.03513800 0.52386600 -1.85357100
60 2.38163600 -0.00467000 0.89434900 0.00000000 0.00000000 0.00000000
61 -3.21734200 -0.83027300 0.89427200 0.00000000 0.00000000 0.00000000
time 9
0 -0.00000100 7.45008900 -27.50902600 0.00000000 0.00000000 0.00003100
1 -0.00000200 0.00000000 0.00000000 1.57074700 -1.56714200 -1.57074700
2 4.25546600 -0.33518300 -0.00000200 0.00000000 0.00000000 -0.12484800
3 7.43125000 1.49647900 0.00000200 0.00000000 0.00000000 0.24545000
4 5.27847900 0.16554400 0.00000100 0.00000000 0.00000000 0.04851100
5 2.96775500 -11.32174200 1.48897600 1.97586500 1.15990900 -1.29878600
6 -6.21447800 -0.00000900 -0.00002600 -2.71302002 -0.58602365 1.41555135
7 11.94488900 0.00000100 0.00000000 -0.16387794 -0.34439378 1.39553031
8 10.62018500 0.00000100 0.00000000 1.10660115 0.42905399 2.26911568
9 -4.75111000 -0.69449300 0.83057600 -0.21168600 -0.07600000 0.28785400
10 -1.68806800 0.00004500 -0.00003500 0.01185700 -0.02168200 0.93758000
11 -1.33613600 0.00005600 -0.00001200 0.02600000 -0.00413400 0.71139400
12 -4.82049800 -0.50945900 -0.22475900 -0.41694500 -0.05306200 1.27436600
13 -1.82699000 -0.00006500 0.00000700 0.00880200 0.03949900 1.49369600
14 -1.43657900 0.00001200 0.00000300 -0.05206000 -0.05778500 0.64165300
15 -3.99236100 -0.89118600 -1.82790800 -0.64308800 0.13870200 1.13878200
16 -1.40592000 -0.00002400 -0.00000400 -0.01584700 -0.02480800 1.44307300
17 -1.17536200 0.00012700 -0.00002000 0.05502600 0.03976200 0.84909000
18 -4.52675400 -0.69057400 -1.12074300 -0.54702300 0.06029700 1.33312200
19 -1.74404900 0.00003600 -0.00000800 -0.02815800 -0.00898900 1.67468100
20 -1.36876500 0.00002600 0.00000600 0.02438200 0.04649400 0.37854700
21 -1.71880500 -1.28270600 0.93153400 1.82626100 0.59936100 0.65042700
22 -1.52345100 0.00003400 0.00002900 0.07372000 -0.05612300 0.69721800
23 -1.59928300 0.00000400 0.00001200 -0.04580400 -0.07477900 0.31886600
24 5.51181600 0.00000500 -0.00000200 2.24315282 0.00049620 3.14131975
25 0.19685200 -0.00000200 0.00000300 2.79340695 -0.00045946 -3.14145422
26 2.33743000 -15.09659400 -1.58033000 1.97586200 1.15991000 1.84280300
27 6.21448600 0.00000800 0.00001900 -0.78140135 0.91720225 -2.15446434
28 11.94489600 -0.00003100 -0.00019000 0.22736679 -0.34924863 -1.58174905
29 10.62016900 0.00000600 0.00001200 -2.52956557 -0.41814969 0.76140804
30 4.75115300 0.69437300 -0.83047100 0.27008600 -0.31842200 0.81032700
31 1.68806600 -0.00002500 0.00000300 0.01539000 -0.01932400 0.76600700
32 1.33614400 -0.00005200 -0.00000900 0.00904800 -0.03764700 0.13514500
33 4.82051200 0.50933700 0.22486600 0.23182200 -0.24475900 0.91537200
34 1.82699700 0.00006700 0.00000900 -0.01154300 0.03879400 0.98337600
35 1.43658200 -0.00000900 0.00000800 0.01325200 -0.00726600 -0.22688700
36 3.99234800 0.89108800 1.82799600 0.04076900 -0.25921600 0.55173200
37 1.40592200 0.00002400 -0.00000400 -0.00899200 -0.02807500 1.18372600
38 1.17536300 -0.00013000 0.00000300 0.07309900 0.09934300 0.59118900
39 4.52675100 0.69045800 1.12084300 0.12505500 -0.23595800 0.82170200
40 1.74404300 -0.00003000 -0.00000100 -0.02363500 -0.01773100 1.34027200
41 1.36876400 -0.00003300 -0.00001600 -0.00637400 0.15858000 -0.22582000
42 1.87484900 0.93508000 -0.99912900 1.89235800 0.45961200 0.54304600
43 1.52345400 -0.00003300 -0.00000400 0.01805414 -0.04098373 0.60366550
44 1.59928000 0.00000200 0.00000500 0.06220500 0.05569400 0.09724300
45 5.51180700 -0.00000200 0.00000500 -1.07120500 0.00000000 0.00000000
46 0.19685000 0.00000200 -0.00000100 -0.34822500 0.00001500 -0.00000200
47 0.00000000 0.00000000 0.00000000 0.00000000 0.00000000 -1.57079600
48 -2.94988100 4.72501700 -2.65132700 0.00000000 0.00000000 -3.14156200
49 -0.27715746 26.64622074 -0.66286090 0.07704386 -0.00233072 -1.56136178
50 -3.72182500 -0.01874400 -0.16628600 0.00000000 0.00000000 0.00000000
51 -0.07787500 0.00000000 0.94552300 0.00000000 0.00000000 0.00000000
52 -0.52072100 0.00000000 0.00000000 0.00000000 0.00000000 0.00000000
53 -0.09341600 0.00000000 0.29065100 0.00000000 0.00000000 0.00000000
54 -0.52072100 0.00000000 0.00000000 0.00000000 0.00000000 0.00000000
55 -0.07463300 0.00000000 -0.50194400 0.00000000 0.00000000 0.00000000
56 -0.52072100 0.00000000 0.00000000 0.00000000 0.00000000 0.00000000
57 -1.30162600 -0.00968900 0.00207000 0.00000000 0.00000000 0.00000000
58 5.13388200 0.22443400 -3.22732600 0.37105200 1.09070500 1.69141200
59 4.31547700 -2.47941500 -4.73170300 3.03513800 0.52386600 -1.85357100
60 2.38163600 -0.00467000 0.89434900 0.00000000 0.00000000 0.00000000
61 -3.21734200 -0.83027300 0.89427200 0.00000000 0.00000000 0.00000000
time 10
0 -0.00000100 7.45008900 -27.50902600 0.00000000 0.00000000 0.00003100
1 -0.00000200 0.00000000 0.00000000 1.57074700 -1.56714200 -1.57074700
2 4.25546600 -0.33518300 -0.00000200 0.00000000 0.00000000 -0.12484800
3 7.43125000 1.49647900 0.00000200 0.00000000 0.00000000 0.24545000
4 5.27847900 0.16554400 0.00000100 0.00000000 0.00000000 0.04851100
5 2.96775500 -11.32174200 1.48897600 1.97586500 1.15990900 -1.29878600
6 -6.21447800 -0.00000900 -0.00002600 -2.71307980 -0.58705583 1.41869263
7 11.94488900 0.00000100 0.00000000 -0.16527983 -0.34455091 1.39951762
8 10.62018500 0.00000100 0.00000000 1.11888592 0.42331637 2.26865051
9 -4.75111000 -0.69449300 0.83057600 -0.21168600 -0.07600000 0.28785400
10 -1.68806800 0.00004500 -0.00003500 0.01185700 -0.02168200 0.93758000
11 -1.33613600 0.00005600 -0.00001200 0.02600000 -0.00413400 0.71139400
12 -4.82049800 -0.50945900 -0.22475900 -0.41694500 -0.05306200 1.27436600
13 -1.82699000 -0.00006500 0.00000700 0.00880200 0.03949900 1.49369600
14 -1.43657900 0.00001200 0.00000300 -0.05206000 -0.05778500 0.64165300
15 -3.99236100 -0.89118600 -1.82790800 -0.64308800 0.13870200 1.13878200
16 -1.40592000 -0.00002400 -0.00000400 -0.01584700 -0.02480800 1.44307300
17 -1.17536200 0.00012700 -0.00002000 0.05502600 0.03976200 0.84909000
18 -4.52675400 -0.69057400 -1.12074300 -0.54702300 0.06029700 1.33312200
19 -1.74404900 0.00003600 -0.00000800 -0.02815800 -0.00898900 1.67468100
20 -1.36876500 0.00002600 0.00000600 0.02438200 0.04649400 0.37854700
21 -1.71880500 -1.28270600 0.93153400 1.82626100 0.59936100 0.65042700
22 -1.52345100 0.00003400 0.00002900 0.07372000 -0.05612300 0.69721800
23 -1.59928300 0.00000400 0.00001200 -0.04580400 -0.07477900 0.31886600
24 5.51181600 0.00000500 -0.00000200 2.24315282 0.00049620 3.14131975
25 0.19685200 -0.00000200 0.00000300 2.79340695 -0.00045946 -3.14145422
26 2.33743000 -15.09659400 -1.58033000 1.97586200 1.15991000 1.84280300
27 6.21448600 0.00000800 0.00001900 -0.77841952 0.91860849 -2.15658854
28 11.94489600 -0.00003100 -0.00019000 0.22698777 -0.34926942 -1.58063904
29 10.62016900 0.00000600 0.00001200 -2.54486379 -0.42277692 0.76842336
30 4.75115300 0.69437300 -0.83047100 0.27008600 -0.31842200 0.81032700
31 1.68806600 -0.00002500 0.00000300 0.01539000 -0.01932400 0.76600700
32 1.33614400 -0.00005200 -0.00000900 0.00904800 -0.03764700 0.13514500
33 4.82051200 0.50933700 0.22486600 0.23182200 -0.24475900 0.91537200
34 1.82699700 0.00006700 0.00000900 -0.01154300 0.03879400 0.98337600
35 1.43658200 -0.00000900 0.00000800 0.01325200 -0.00726600 -0.22688700
36 3.99234800 0.89108800 1.82799600 0.04076900 -0.25921600 0.55173200
37 1.40592200 0.00002400 -0.00000400 -0.00899200 -0.02807500 1.18372600
38 1.17536300 -0.00013000 0.00000300 0.07309900 0.09934300 0.59118900
39 4.52675100 0.69045800 1.12084300 0.12505500 -0.23595800 0.82170200
40 1.74404300 -0.00003000 -0.00000100 -0.02363500 -0.01773100 1.34027200
41 1.36876400 -0.00003300 -0.00001600 -0.00637400 0.15858000 -0.22582000
42 1.87484900 0.93508000 -0.99912900 1.89235800 0.45961200 0.54304600
43 1.52345400 -0.00003300 -0.00000400 0.01744063 -0.04085434 0.60375499
44 1.59928000 0.00000200 0.00000500 0.06220500 0.05569400 0.09724300
45 5.51180700 -0.00000200 0.00000500 -1.07120500 0.00000000 0.00000000
46 0.19685000 0.00000200 -0.00000100 -0.34822500 0.00001500 -0.00000200
47 0.00000000 0.00000000 0.00000000 0.00000000 0.00000000 -1.57079600
48 -2.94988100 4.72501700 -2.65132700 0.00000000 0.00000000 -3.14156200
49 -0.26759650 26.64622074 -0.69645145 0.08736142 -0.00820023 -1.56138526
50 -3.72182500 -0.01874400 -0.16628600 0.00000000 0.00000000 0.00000000
51 -0.07787500 0.00000000 0.94552300 0.00000000 0.00000000 0.00000000
52 -0.52072100 0.00000000 0.00000000 0.00000000 0.00000000 0.00000000
53 -0.09341600 0.00000000 0.29065100 0.00000000 0.00000000 0.00000000
54 -0.52072100 0.00000000 0.00000000 0.00000000 0.00000000 0.00000000
55 -0.07463300 0.00000000 -0.50194400 0.00000000 0.00000000 0.00000000
56 -0.52072100 0.00000000 0.00000000 0.00000000 0.00000000 0.00000000
57 -1.30162600 -0.00968900 0.00207000 0.00000000 0.00000000 0.00000000
58 5.13388200 0.22443400 -3.22732600 0.37105200 1.09070500 1.69141200
59 4.31547700 -2.47941500 -4.73170300 3.03513800 0.52386600 -1.85357100
60 2.38163600 -0.00467000 0.89434900 0.00000000 0.00000000 0.00000000
61 -3.21734200 -0.83027300 0.89427200 0.00000000 0.00000000 0.00000000
end
