// Created by Crowbar 0.74
version 1
nodes
  0 "root" -1
  1 "pelvis" 0
  2 "spine_01" 1
  3 "spine_02" 2
  4 "spine_03" 3
  5 "clavicle_r" 4
  6 "upperarm_r" 5
  7 "lowerarm_r" 6
  8 "hand_r" 7
  9 "index_01_r" 8
  10 "index_02_r" 9
  11 "index_03_r" 10
  12 "middle_01_r" 8
  13 "middle_02_r" 12
  14 "middle_03_r" 13
  15 "pinky_01_r" 8
  16 "pinky_02_r" 15
  17 "pinky_03_r" 16
  18 "ring_01_r" 8
  19 "ring_02_r" 18
  20 "ring_03_r" 19
  21 "thumb_01_r" 8
  22 "thumb_02_r" 21
  23 "thumb_03_r" 22
  24 "lowerarm_twist_01_r" 7
  25 "upperarm_twist_01_r" 6
  26 "clavicle_l" 4
  27 "upperarm_l" 26
  28 "lowerarm_l" 27
  29 "hand_l" 28
  30 "index_01_l" 29
  31 "index_02_l" 30
  32 "index_03_l" 31
  33 "middle_01_l" 29
  34 "middle_02_l" 33
  35 "middle_03_l" 34
  36 "pinky_01_l" 29
  37 "pinky_02_l" 36
  38 "pinky_03_l" 37
  39 "ring_01_l" 29
  40 "ring_02_l" 39
  41 "ring_03_l" 40
  42 "thumb_01_l" 29
  43 "thumb_02_l" 42
  44 "thumb_03_l" 43
  45 "lowerarm_twist_01_l" 28
  46 "upperarm_twist_01_l" 27
  47 "cam_driver" -1
  48 "Base" -1
  49 "rhand_ikTarget" 48
  50 "Trigger" 48
  51 "Mag" 48
  52 "Bullets" 51
  53 "Bolt" 48
  54 "lhand_ikTarget" 48
end
skeleton
  time 0
    0 0.000000 8.445313 -27.500000 0.000000 0.000000 -0.000001
    1 -0.000002 0.000000 0.000000 1.570747 -1.567142 -1.570747
    2 4.255466 -0.335184 -0.000002 0.000000 0.000000 -0.124848
    3 7.431253 1.496480 0.000002 0.000000 0.000000 0.245450
    4 5.278481 0.165543 0.000001 0.000000 0.000000 0.048511
    5 3.355469 -9.195313 0.626953 1.975866 1.159909 -1.298785
    6 -6.214482 -0.000009 -0.000027 3.344611 -0.805686 1.824923
    7 11.944891 -0.000001 0.000000 -0.359210 -0.322934 1.976836
    8 10.620197 0.000000 0.000000 0.587163 0.179073 1.506660
    9 -4.751114 -0.694496 0.830582 -0.246833 -0.125233 0.407428
    10 -1.688080 0.000042 -0.000031 0.014612 -0.020008 0.807967
    11 -1.336143 0.000057 -0.000010 0.021168 -0.015777 1.194252
    12 -4.820499 -0.509462 -0.224759 -0.310295 0.012215 1.542973
    13 -1.826992 -0.000071 0.000008 0.002241 0.040465 1.329382
    14 -1.436577 0.000006 0.000004 -0.043288 -0.064688 0.497982
    15 -3.992363 -0.891186 -1.827911 -0.393688 0.387265 1.768815
    16 -1.405922 -0.000028 -0.000001 -0.009045 -0.028103 1.187167
    17 -1.175354 0.000128 -0.000020 0.035820 0.057786 0.458700
    18 -4.526758 -0.690575 -1.120744 -0.298951 0.234317 1.708433
    19 -1.744041 0.000031 -0.000006 -0.026202 -0.013793 1.497381
    20 -1.368771 0.000025 0.000003 0.001144 0.052511 -0.083154
    21 -1.874800 -0.935127 0.999177 2.100346 0.441889 0.865543
    22 -1.523449 0.000034 0.000032 0.083736 0.152575 0.605550
    23 -1.599281 0.000010 0.000013 0.034086 -0.026152 0.634453
    24 5.582031 0.115723 0.294922 2.708489 -0.055340 3.097439
    25 0.196846 -0.000003 0.000004 2.793407 0.000006 -3.141577
    26 -4.055982 -17.708957 -2.227283 1.975862 1.159910 1.842803
    27 6.214491 0.000010 0.000020 -0.446263 0.029417 -1.889920
    28 11.944896 -0.000032 -0.000199 0.020826 -0.286428 -0.941721
    29 10.620178 -0.000004 0.000006 -1.406517 -0.265505 0.220047
    30 4.751169 0.694376 -0.830476 0.359836 -0.083695 0.302786
    31 1.688061 -0.000023 0.000002 0.023770 -0.006975 0.153279
    32 1.336151 -0.000050 -0.000009 0.021465 -0.032280 -0.216043
    33 4.820518 0.509340 0.224866 -0.009669 -0.245800 0.618931
    34 1.827000 0.000064 0.000010 -0.037944 0.014219 0.061322
    35 1.436581 -0.000006 0.000010 0.013564 -0.006853 -0.261600
    36 3.992359 0.891087 1.827996 -0.342164 -0.453369 0.861831
    37 1.405926 0.000031 -0.000006 0.019624 -0.022081 0.148543
    38 1.175362 -0.000128 0.000003 0.046374 0.114292 0.341417
    39 4.526766 0.690464 1.120844 -0.696402 -0.358111 0.885748
    40 1.744041 -0.000031 0.000000 0.019992 -0.027868 0.065843
    41 1.368771 -0.000032 -0.000021 0.012598 0.158220 -0.105630
    42 1.925647 0.970239 -0.936630 2.111635 0.823086 0.996446
    43 1.523458 -0.000031 -0.000003 -0.082590 -0.077103 0.478334
    44 1.599277 -0.000004 0.000012 0.075227 0.036327 0.377406
    45 5.511814 -0.000010 0.000002 -0.319228 0.000005 0.000007
    46 0.196849 0.000007 0.000000 -0.348225 0.000015 -0.000002
    47 0.000000 1.000000 0.000000 0.000000 0.000000 -1.570796
    48 -6.797763 -17.924151 -8.181473 -0.424162 -0.335128 1.458641
    49 8.351563 0.056580 -2.779297 0.208989 1.174108 1.521418
    50 2.371764 -0.011782 -0.993076 0.000000 0.000000 0.000000
    51 -1.726362 -0.011784 0.125125 0.000000 0.000000 0.000000
    52 -0.027571 0.000000 0.206380 0.000000 0.000000 0.000000
    53 -1.708370 -1.472800 1.384547 0.000000 0.000000 0.000000
    54 -3.989737 -12.297420 -0.343616 2.274809 -0.195035 -0.791420
  time 1
    0 0.000000 8.445313 -27.500000 0.000000 0.000000 -0.000001
    1 -0.000002 0.000000 0.000000 1.570747 -1.567142 -1.570747
    2 4.255466 -0.335184 -0.000002 0.000000 0.000000 -0.124848
    3 7.431253 1.496480 0.000002 0.000000 0.000000 0.245450
    4 5.278481 0.165543 0.000001 0.000000 0.000000 0.048511
    5 3.355469 -9.195313 0.626953 1.975866 1.159909 -1.298785
    6 -6.214482 -0.000009 -0.000027 3.339360 -0.814779 1.858364
    7 11.944891 -0.000001 0.000000 -0.363898 -0.320981 1.991622
    8 10.620197 0.000000 0.000000 0.615496 0.131653 1.566753
    9 -4.751114 -0.694496 0.830582 -0.246833 -0.125233 0.407428
    10 -1.688080 0.000042 -0.000031 0.014612 -0.020008 0.807967
    11 -1.336143 0.000057 -0.000010 0.021168 -0.015777 1.194252
    12 -4.820499 -0.509462 -0.224759 -0.310295 0.012215 1.542973
    13 -1.826992 -0.000071 0.000008 0.002241 0.040465 1.329382
    14 -1.436577 0.000006 0.000004 -0.043288 -0.064688 0.497982
    15 -3.992363 -0.891186 -1.827911 -0.393688 0.387265 1.768815
    16 -1.405922 -0.000028 -0.000001 -0.009045 -0.028103 1.187167
    17 -1.175354 0.000128 -0.000020 0.035820 0.057786 0.458700
    18 -4.526758 -0.690575 -1.120744 -0.298951 0.234317 1.708433
    19 -1.744041 0.000031 -0.000006 -0.026202 -0.013805 1.497381
    20 -1.368771 0.000025 0.000003 0.001144 0.052511 -0.083154
    21 -1.874800 -0.935127 0.999177 2.100346 0.441889 0.865543
    22 -1.523449 0.000034 0.000032 0.083736 0.152575 0.605550
    23 -1.599281 0.000010 0.000013 0.034086 -0.026152 0.634453
    24 5.582031 0.115723 0.294922 2.708489 -0.055340 3.097439
    25 0.196846 -0.000003 0.000004 2.793407 0.000006 -3.141577
    26 -4.055982 -17.708957 -2.227283 1.975862 1.159910 1.842803
    27 6.214491 0.000010 0.000020 -0.419611 0.022662 -1.864731
    28 11.944896 -0.000032 -0.000199 -0.103752 -0.288681 -0.953268
    29 10.620178 -0.000004 0.000006 -1.350238 -0.268185 0.158017
    30 4.751169 0.694376 -0.830476 0.359901 -0.083395 0.301986
    31 1.688061 -0.000023 0.000002 0.023770 -0.006975 0.153279
    32 1.336151 -0.000050 -0.000009 0.021357 -0.032364 -0.212663
    33 4.820518 0.509340 0.224866 -0.009544 -0.246100 0.618656
    34 1.827000 0.000064 0.000010 -0.037944 0.014231 0.061379
    35 1.436581 -0.000006 0.000010 0.013552 -0.006853 -0.260782
    36 3.992359 0.891087 1.827996 -0.342045 -0.453060 0.861737
    37 1.405926 0.000031 -0.000006 0.019624 -0.022069 0.148596
    38 1.175362 -0.000128 0.000003 0.045835 0.114508 0.336710
    39 4.526766 0.690464 1.120844 -0.692761 -0.358643 0.885434
    40 1.744041 -0.000031 0.000000 0.019956 -0.027856 0.065942
    41 1.368771 -0.000032 -0.000021 0.011543 0.158292 -0.112389
    42 1.925647 0.970239 -0.936630 2.111540 0.822859 0.996268
    43 1.523458 -0.000031 -0.000003 -0.082662 -0.077379 0.474501
    44 1.599277 -0.000004 0.000012 0.074915 0.036962 0.368969
    45 5.511814 -0.000010 0.000002 -0.319228 0.000005 0.000007
    46 0.196849 0.000007 0.000000 -0.348225 0.000015 -0.000002
    47 0.000000 1.000000 0.000000 0.000000 0.000000 -1.570796
    48 -6.633696 -17.924151 -8.169754 -0.430973 -0.322569 1.516742
    49 8.351563 0.056580 -2.779297 0.208989 1.174108 1.521418
    50 2.371764 -0.011782 -0.993076 0.000000 0.000000 0.000000
    51 -1.726362 -0.011784 0.125125 0.000000 0.000000 0.000000
    52 -0.027571 0.000000 0.206380 0.000000 0.000000 0.000000
    53 -1.708370 -1.472800 1.384547 0.000000 0.000000 0.000000
    54 -4.677258 -12.109914 -0.218613 2.219677 -0.190080 -0.887996
  time 2
    0 0.000000 8.445313 -27.500000 0.000000 0.000000 -0.000001
    1 -0.000002 0.000000 0.000000 1.570747 -1.567142 -1.570747
    2 4.255466 -0.335184 -0.000002 0.000000 0.000000 -0.124848
    3 7.431253 1.496480 0.000002 0.000000 0.000000 0.245450
    4 5.278481 0.165543 0.000001 0.000000 0.000000 0.048511
    5 3.355469 -9.195313 0.626953 1.975866 1.159909 -1.298785
    6 -6.214482 -0.000009 -0.000027 3.333064 -0.822846 1.887327
    7 11.944891 -0.000001 0.000000 -0.367162 -0.319579 2.001949
    8 10.620197 0.000000 0.000000 0.647441 0.090331 1.627726
    9 -4.751114 -0.694496 0.830582 -0.246833 -0.125233 0.407428
    10 -1.688080 0.000042 -0.000031 0.014612 -0.020008 0.807967
    11 -1.336143 0.000057 -0.000010 0.021168 -0.015777 1.194252
    12 -4.820499 -0.509462 -0.224759 -0.310295 0.012215 1.542973
    13 -1.826992 -0.000071 0.000008 0.002241 0.040465 1.329382
    14 -1.436577 0.000006 0.000004 -0.043288 -0.064688 0.497982
    15 -3.992363 -0.891186 -1.827911 -0.393688 0.387265 1.768815
    16 -1.405922 -0.000028 -0.000001 -0.009045 -0.028103 1.187167
    17 -1.175354 0.000128 -0.000020 0.035820 0.057786 0.458700
    18 -4.526758 -0.690575 -1.120744 -0.298951 0.234317 1.708433
    19 -1.744041 0.000031 -0.000006 -0.026202 -0.013793 1.497381
    20 -1.368771 0.000025 0.000003 0.001144 0.052511 -0.083154
    21 -1.874800 -0.935127 0.999177 2.100346 0.441889 0.865543
    22 -1.523449 0.000034 0.000032 0.083736 0.152575 0.605550
    23 -1.599281 0.000010 0.000013 0.034086 -0.026152 0.634453
    24 5.582031 0.115723 0.294922 2.708489 -0.055340 3.097439
    25 0.196846 -0.000003 0.000004 2.793407 0.000006 -3.141577
    26 -4.055982 -17.708957 -2.227283 1.975862 1.159910 1.842803
    27 6.214491 0.000010 0.000020 -0.331753 0.005856 -1.814423
    28 11.944896 -0.000032 -0.000199 -0.431387 -0.293439 -0.978238
    29 10.620178 -0.000004 0.000006 -1.252930 -0.276359 0.070577
    30 4.751169 0.694376 -0.830476 0.360118 -0.082293 0.299070
    31 1.688061 -0.000023 0.000002 0.023770 -0.006987 0.153647
    32 1.336151 -0.000050 -0.000009 0.020962 -0.032616 -0.200346
    33 4.820518 0.509340 0.224866 -0.009081 -0.247202 0.617713
    34 1.827000 0.000064 0.000010 -0.037944 0.014255 0.061997
    35 1.436581 -0.000006 0.000010 0.013540 -0.006901 -0.257832
    36 3.992359 0.891087 1.827996 -0.341625 -0.451781 0.861409
    37 1.405926 0.000031 -0.000006 0.019612 -0.022081 0.148969
    38 1.175362 -0.000128 0.000003 0.043798 0.115299 0.318954
    39 4.526766 0.690464 1.120844 -0.679450 -0.360443 0.884313
    40 1.744041 -0.000031 0.000000 0.019800 -0.027844 0.066881
    41 1.368771 -0.000032 -0.000021 0.007612 0.158532 -0.137256
    42 1.925647 0.970239 -0.936630 2.111131 0.821996 0.995591
    43 1.523458 -0.000031 -0.000003 -0.082889 -0.078409 0.460460
    44 1.599277 -0.000004 0.000012 0.073741 0.039275 0.337958
    45 5.511814 -0.000010 0.000002 -0.319228 0.000005 0.000007
    46 0.196849 0.000007 0.000000 -0.348225 0.000015 -0.000002
    47 0.000000 1.000000 0.000000 0.000000 0.000000 -1.570796
    48 -6.399313 -17.920244 -8.142410 -0.424649 -0.308530 1.571560
    49 8.351563 0.056580 -2.779297 0.208989 1.174108 1.521418
    50 2.371764 -0.011782 -0.993076 0.000000 0.000000 0.000000
    51 -1.726362 -0.011784 0.125125 0.000000 0.000000 0.000000
    52 -0.027571 0.000000 0.206380 0.000000 0.000000 0.000000
    53 -1.708370 -1.472800 1.384547 0.000000 0.000000 0.000000
    54 -5.396030 -11.750528 -0.120953 2.173798 -0.193383 -1.102213
  time 3
    0 0.000000 8.445313 -27.500000 0.000000 0.000000 -0.000001
    1 -0.000002 0.000000 0.000000 1.570747 -1.567142 -1.570747
    2 4.255466 -0.335184 -0.000002 0.000000 0.000000 -0.124848
    3 7.431253 1.496480 0.000002 0.000000 0.000000 0.245450
    4 5.278481 0.165543 0.000001 0.000000 0.000000 0.048511
    5 3.355469 -9.195313 0.626953 1.975866 1.159909 -1.298785
    6 -6.214482 -0.000009 -0.000027 3.324755 -0.828973 1.908385
    7 11.944891 -0.000001 0.000000 -0.368932 -0.318800 2.007640
    8 10.620197 0.000000 0.000000 0.687798 0.064372 1.685291
    9 -4.751114 -0.694496 0.830582 -0.246833 -0.125233 0.407428
    10 -1.688080 0.000042 -0.000031 0.014612 -0.020008 0.807967
    11 -1.336143 0.000057 -0.000010 0.021168 -0.015777 1.194252
    12 -4.820499 -0.509462 -0.224759 -0.310295 0.012215 1.542973
    13 -1.826992 -0.000071 0.000008 0.002241 0.040465 1.329382
    14 -1.436577 0.000006 0.000004 -0.043288 -0.064688 0.497982
    15 -3.992363 -0.891186 -1.827911 -0.393688 0.387265 1.768815
    16 -1.405922 -0.000028 -0.000001 -0.009045 -0.028103 1.187167
    17 -1.175354 0.000128 -0.000020 0.035820 0.057786 0.458700
    18 -4.526758 -0.690575 -1.120744 -0.298951 0.234317 1.708433
    19 -1.744041 0.000031 -0.000006 -0.026202 -0.013805 1.497381
    20 -1.368771 0.000025 0.000003 0.001144 0.052511 -0.083154
    21 -1.874800 -0.935127 0.999177 2.100346 0.441889 0.865543
    22 -1.523449 0.000034 0.000032 0.083736 0.152575 0.605550
    23 -1.599281 0.000010 0.000013 0.034086 -0.026152 0.634453
    24 5.582031 0.115723 0.294922 2.708489 -0.055340 3.097439
    25 0.196846 -0.000003 0.000004 2.793407 0.000006 -3.141577
    26 -3.677064 -17.415979 -2.211657 1.975862 1.159910 1.842803
    27 6.214491 0.000010 0.000020 -0.127050 0.028521 -1.759297
    28 11.944896 -0.000032 -0.000199 -0.830911 -0.301085 -1.020716
    29 10.620178 -0.000004 0.000006 -1.622896 -0.295386 0.212561
    30 4.751169 0.694376 -0.830476 0.360615 -0.079836 0.292618
    31 1.688061 -0.000023 0.000002 0.023758 -0.007023 0.155184
    32 1.336151 -0.000050 -0.000009 0.020063 -0.033179 -0.172912
    33 4.820518 0.509340 0.224866 -0.008055 -0.249647 0.615671
    34 1.827000 0.000064 0.000010 -0.037896 0.014363 0.064861
    35 1.436581 -0.000006 0.000010 0.013492 -0.006985 -0.251291
    36 3.992359 0.891087 1.827996 -0.340786 -0.448319 0.861175
    37 1.405926 0.000031 -0.000006 0.019576 -0.022117 0.150565
    38 1.175362 -0.000128 0.000003 0.039016 0.117001 0.277748
    39 4.526766 0.690464 1.120844 -0.649748 -0.363928 0.881757
    40 1.744041 -0.000031 0.000000 0.019369 -0.027832 0.071133
    41 1.368771 -0.000032 -0.000021 -0.001257 0.158700 -0.193429
    42 1.925647 0.970239 -0.936630 2.110156 0.820042 0.994006
    43 1.523458 -0.000031 -0.000003 -0.083153 -0.080710 0.429255
    44 1.599277 -0.000004 0.000012 0.070828 0.044309 0.268330
    45 5.511814 -0.000010 0.000002 -0.360573 0.000005 0.000007
    46 0.196849 0.000007 0.000000 -0.348225 0.000015 -0.000002
    47 0.000000 1.000000 0.000000 0.000000 0.000000 -1.570796
    48 -6.094617 -17.916338 -8.091627 -0.396141 -0.294681 1.615888
    49 8.351563 0.056580 -2.779297 0.208989 1.174108 1.521418
    50 2.371764 -0.011782 -0.993076 0.000000 0.000000 0.000000
    51 -1.726362 -0.011784 0.125125 0.000000 0.000000 0.000000
    52 -0.027571 0.000000 0.206380 0.000000 0.000000 0.000000
    53 -1.708370 -1.472800 1.384547 0.000000 0.000000 0.000000
    54 -6.231993 -10.180168 -0.632688 2.441157 -0.093378 -1.771380
  time 4
    0 0.000000 8.445313 -27.500000 0.000000 0.000000 -0.000001
    1 -0.000002 0.000000 0.000000 1.570747 -1.567142 -1.570747
    2 4.255466 -0.335184 -0.000002 0.000000 0.000000 -0.124848
    3 7.431253 1.496480 0.000002 0.000000 0.000000 0.245450
    4 5.278481 0.165543 0.000001 0.000000 0.000000 0.048511
    5 3.355469 -9.195313 0.626953 1.975866 1.159909 -1.298785
    6 -6.214482 -0.000009 -0.000027 3.313616 -0.832135 1.917760
    7 11.944891 -0.000001 0.000000 -0.369540 -0.318524 2.009576
    8 10.620197 0.000000 0.000000 0.743037 0.061746 1.735732
    9 -4.751114 -0.694496 0.830582 -0.246833 -0.125233 0.407428
    10 -1.688080 0.000042 -0.000031 0.014612 -0.020008 0.807967
    11 -1.336143 0.000057 -0.000010 0.021168 -0.015777 1.194252
    12 -4.820499 -0.509462 -0.224759 -0.310295 0.012215 1.542973
    13 -1.826992 -0.000071 0.000008 0.002241 0.040465 1.329382
    14 -1.436577 0.000006 0.000004 -0.043288 -0.064688 0.497982
    15 -3.992363 -0.891186 -1.827911 -0.393688 0.387265 1.768815
    16 -1.405922 -0.000028 -0.000001 -0.009045 -0.028103 1.187167
    17 -1.175354 0.000128 -0.000020 0.035820 0.057786 0.458700
    18 -4.526758 -0.690575 -1.120744 -0.298951 0.234317 1.708433
    19 -1.744041 0.000031 -0.000006 -0.026202 -0.013805 1.497381
    20 -1.368771 0.000025 0.000003 0.001144 0.052511 -0.083154
    21 -1.874800 -0.935127 0.999177 2.100346 0.441889 0.865543
    22 -1.523449 0.000034 0.000032 0.083736 0.152575 0.605550
    23 -1.599281 0.000010 0.000013 0.034086 -0.026152 0.634453
    24 5.582031 0.115723 0.294922 2.708489 -0.055340 3.097439
    25 0.196846 -0.000003 0.000004 2.793407 0.000006 -3.141577
    26 -2.700472 -16.662050 -2.168687 1.975862 1.159910 1.842803
    27 6.214491 0.000010 0.000020 0.112411 0.098838 -1.745945
    28 11.944896 -0.000032 -0.000199 -1.044601 -0.298652 -1.006916
    29 10.620178 -0.000004 0.000006 -2.121158 -0.232844 0.293284
    30 4.751169 0.694376 -0.830476 0.361611 -0.074479 0.278529
    31 1.688061 -0.000023 0.000002 0.023711 -0.007178 0.161883
    32 1.336151 -0.000050 -0.000009 0.018037 -0.034318 -0.112757
    33 4.820518 0.509340 0.224866 -0.005814 -0.254956 0.611195
    34 1.827000 0.000064 0.000010 -0.037716 0.014830 0.077388
    35 1.436581 -0.000006 0.000010 0.013396 -0.007177 -0.237001
    36 3.992359 0.891087 1.827996 -0.339360 -0.438218 0.862721
    37 1.405926 0.000031 -0.000006 0.019420 -0.022249 0.157586
    38 1.175362 -0.000128 0.000003 0.027427 0.120225 0.179834
    39 4.526766 0.690464 1.120844 -0.584217 -0.369429 0.876375
    40 1.744041 -0.000031 0.000000 0.018098 -0.027952 0.089524
    41 1.368771 -0.000032 -0.000021 -0.021211 0.157298 -0.320123
    42 1.925647 0.970239 -0.936630 2.107703 0.815620 0.990069
    43 1.523458 -0.000031 -0.000003 -0.082638 -0.085792 0.360929
    44 1.599277 -0.000004 0.000012 0.063146 0.054723 0.113314
    45 5.511814 -0.000010 0.000002 -0.467134 0.000005 0.000007
    46 0.196849 0.000007 0.000000 -0.348225 0.000015 -0.000002
    47 0.000000 1.000000 0.000000 0.000000 0.000000 -1.570796
    48 -5.688354 -17.904619 -8.013499 -0.337082 -0.282065 1.644710
    49 8.351563 0.056580 -2.779297 0.208989 1.174108 1.521418
    50 2.371764 -0.011782 -0.993076 0.000000 0.000000 0.000000
    51 -1.726362 -0.011784 0.125125 0.000000 0.000000 0.000000
    52 -0.027571 0.000000 0.206380 0.000000 0.000000 0.000000
    53 -1.708370 -1.472800 1.384547 0.000000 0.000000 0.000000
    54 -6.771072 -7.934005 -1.831943 2.728928 0.176695 -2.282377
  time 5
    0 0.000000 8.445313 -27.500000 0.000000 0.000000 -0.000001
    1 -0.000002 0.000000 0.000000 1.570747 -1.567142 -1.570747
    2 4.255466 -0.335184 -0.000002 0.000000 0.000000 -0.124848
    3 7.431253 1.496480 0.000002 0.000000 0.000000 0.245450
    4 5.278481 0.165543 0.000001 0.000000 0.000000 0.048511
    5 3.355469 -9.195313 0.626953 1.975866 1.159909 -1.298785
    6 -6.214482 -0.000009 -0.000027 3.298475 -0.829780 1.903068
    7 11.944891 -0.000001 0.000000 -0.369071 -0.318740 2.008109
    8 10.620197 0.000000 0.000000 0.816966 0.098752 1.765873
    9 -4.751114 -0.694496 0.830582 -0.246833 -0.125233 0.407428
    10 -1.688080 0.000042 -0.000031 0.014612 -0.020008 0.807967
    11 -1.336143 0.000057 -0.000010 0.021168 -0.015777 1.194252
    12 -4.820499 -0.509462 -0.224759 -0.310295 0.012215 1.542973
    13 -1.826992 -0.000071 0.000008 0.002241 0.040465 1.329382
    14 -1.436577 0.000006 0.000004 -0.043288 -0.064688 0.497982
    15 -3.992363 -0.891186 -1.827911 -0.393688 0.387265 1.768815
    16 -1.405922 -0.000028 -0.000001 -0.009045 -0.028103 1.187167
    17 -1.175354 0.000128 -0.000020 0.035820 0.057786 0.458700
    18 -4.526758 -0.690575 -1.120744 -0.298951 0.234317 1.708433
    19 -1.744041 0.000031 -0.000006 -0.026202 -0.013793 1.497381
    20 -1.368771 0.000025 0.000003 0.001144 0.052511 -0.083154
    21 -1.874800 -0.935127 0.999177 2.100346 0.441889 0.865543
    22 -1.523449 0.000034 0.000032 0.083736 0.152575 0.605550
    23 -1.599281 0.000010 0.000013 0.034086 -0.026152 0.634453
    24 5.582031 0.115723 0.294922 2.708489 -0.055340 3.097439
    25 0.196846 -0.000003 0.000004 2.793407 0.000006 -3.141577
    26 -1.364494 -15.626862 -2.110092 1.975862 1.159910 1.842803
    27 6.214491 0.000010 0.000020 0.169082 0.235647 -1.780494
    28 11.944896 -0.000032 -0.000199 -0.909749 -0.284690 -0.932991
    29 10.620178 -0.000004 0.000006 -2.463120 -0.139181 0.397679
    30 4.751169 0.694376 -0.830476 0.363862 -0.061535 0.244466
    31 1.688061 -0.000023 0.000002 0.023351 -0.008293 0.209511
    32 1.336151 -0.000050 -0.000009 0.012800 -0.036595 0.034675
    33 4.820518 0.509340 0.224866 -0.000333 -0.267864 0.600513
    34 1.827000 0.000064 0.000010 -0.036242 0.018138 0.166535
    35 1.436581 -0.000006 0.000010 0.013132 -0.007632 -0.202413
    36 3.992359 0.891087 1.827996 -0.338929 -0.389657 0.885263
    37 1.405926 0.000031 -0.000006 0.018305 -0.023172 0.207268
    38 1.175362 -0.000128 0.000003 -0.010433 0.122861 -0.130029
    39 4.526766 0.690464 1.120844 -0.421837 -0.364004 0.867899
    40 1.744041 -0.000031 0.000000 0.011759 -0.029054 0.221675
    41 1.368771 -0.000032 -0.000021 -0.071474 0.141826 -0.654391
    42 1.925647 0.970239 -0.936630 2.098643 0.803324 0.976371
    43 1.523458 -0.000031 -0.000003 -0.072223 -0.097669 0.194301
    44 1.599277 -0.000004 0.000012 0.038170 0.074318 -0.269446
    45 5.511814 -0.000010 0.000002 -0.612121 0.000005 0.000007
    46 0.196849 0.000007 0.000000 -0.348225 0.000015 -0.000002
    47 0.000000 1.000000 0.000000 0.000000 0.000000 -1.570796
    48 -5.102399 -17.888993 -7.876777 -0.237743 -0.271309 1.647538
    49 8.351563 0.056580 -2.779297 0.208989 1.174108 1.521418
    50 2.371764 -0.011782 -0.993076 0.000000 0.000000 0.000000
    51 -1.726362 -0.011784 0.125125 0.000000 0.000000 0.000000
    52 -0.027571 0.000000 0.206380 0.000000 0.000000 0.000000
    53 -1.708370 -1.472800 1.384547 0.000000 0.000000 0.000000
    54 -6.376529 -6.219109 -2.902288 2.998862 0.358058 -2.326669
  time 6
    0 0.000000 8.445313 -27.500000 0.000000 0.000000 -0.000001
    1 -0.000002 0.000000 0.000000 1.570747 -1.567142 -1.570747
    2 4.255466 -0.335184 -0.000002 0.000000 0.000000 -0.124848
    3 7.431253 1.496480 0.000002 0.000000 0.000000 0.245450
    4 5.278481 0.165543 0.000001 0.000000 0.000000 0.048511
    5 3.355469 -9.195313 0.626953 1.975866 1.159909 -1.298785
    6 -6.214482 -0.000009 -0.000027 3.318663 -0.810047 1.821075
    7 11.944891 -0.000001 0.000000 -0.367977 -0.319219 2.004589
    8 10.620197 0.000000 0.000000 0.925300 0.183329 1.767214
    9 -4.751114 -0.694496 0.830582 -0.246833 -0.125233 0.407428
    10 -1.688080 0.000042 -0.000031 0.014612 -0.020008 0.807967
    11 -1.336143 0.000057 -0.000010 0.021168 -0.015777 1.194252
    12 -4.820499 -0.509462 -0.224759 -0.310295 0.012215 1.542973
    13 -1.826992 -0.000071 0.000008 0.002241 0.040465 1.329382
    14 -1.436577 0.000006 0.000004 -0.043288 -0.064688 0.497982
    15 -3.992363 -0.891186 -1.827911 -0.393688 0.387265 1.768815
    16 -1.405922 -0.000028 -0.000001 -0.009045 -0.028103 1.187197
    17 -1.175354 0.000128 -0.000020 0.035820 0.057786 0.458700
    18 -4.526758 -0.690575 -1.120744 -0.298951 0.234317 1.708433
    19 -1.744041 0.000031 -0.000006 -0.026202 -0.013805 1.497381
    20 -1.368771 0.000025 0.000003 0.001144 0.052511 -0.083154
    21 -1.874800 -0.935127 0.999177 2.100346 0.441889 0.865543
    22 -1.523449 0.000034 0.000032 0.083736 0.152575 0.605550
    23 -1.599281 0.000010 0.000013 0.034086 -0.026152 0.634453
    24 5.582031 0.115723 0.294922 2.708489 -0.055340 3.097439
    25 0.196846 -0.000003 0.000004 2.793407 0.000006 -3.141577
    26 0.092582 -14.505734 -2.047590 1.975862 1.159910 1.842803
    27 6.214491 0.000010 0.000020 0.026614 0.394795 -1.828118
    28 11.944896 -0.000032 -0.000199 -0.611319 -0.274000 -0.881408
    29 10.620178 -0.000004 0.000006 -2.716458 0.027476 0.491674
    30 4.751169 0.694376 -0.830476 0.364814 -0.056957 0.232053
    31 1.688061 -0.000023 0.000002 0.022572 -0.010222 0.293584
    32 1.336151 -0.000050 -0.000009 0.010894 -0.037206 0.086473
    33 4.820518 0.509340 0.224866 0.001532 -0.272622 0.597136
    34 1.827000 0.000064 0.000010 -0.032946 0.023615 0.324775
    35 1.436581 -0.000006 0.000010 0.013037 -0.007800 -0.190184
    36 3.992359 0.891087 1.827996 -0.342764 -0.320894 0.932081
    37 1.405926 0.000031 -0.000006 0.016208 -0.024694 0.294931
    38 1.175362 -0.000128 0.000003 -0.041161 0.116258 -0.386256
    39 4.526766 0.690464 1.120844 -0.360733 -0.325451 0.879515
    40 1.744041 -0.000031 0.000000 0.002207 -0.029809 0.458636
    41 1.368771 -0.000032 -0.000021 -0.093622 0.128343 -0.818417
    42 1.925647 0.970239 -0.936630 2.088608 0.795558 0.962549
    43 1.523458 -0.000031 -0.000003 -0.051765 -0.100413 0.134068
    44 1.599277 -0.000004 0.000012 0.028199 0.078633 -0.399725
    45 5.511814 -0.000010 0.000002 -0.767233 0.000005 0.000007
    46 0.196849 0.000007 0.000000 -0.348225 0.000015 -0.000002
    47 0.000000 1.000000 0.000000 0.000000 0.000000 -1.570796
    48 -4.164870 -17.842117 -7.126754 -0.096615 -0.237160 1.624827
    49 8.351563 0.056580 -2.779297 0.208989 1.174108 1.521418
    50 2.371764 -0.011782 -0.993076 0.000000 0.000000 0.000000
    51 -1.726362 -0.011784 0.125125 0.000000 0.000000 0.000000
    52 -0.027571 0.000000 0.206380 0.000000 0.000000 0.000000
    53 -1.708370 -1.472800 1.384547 0.000000 0.000000 0.000000
    54 -5.091333 -5.012041 -3.796847 3.257922 0.471756 -2.239966
  time 7
    0 0.000000 8.445313 -27.500000 0.000000 0.000000 -0.000001
    1 -0.000002 0.000000 0.000000 1.570747 -1.567142 -1.570747
    2 4.255466 -0.335184 -0.000002 0.000000 0.000000 -0.124848
    3 7.431253 1.496480 0.000002 0.000000 0.000000 0.245450
    4 5.278481 0.165543 0.000001 0.000000 0.000000 0.048511
    5 3.355469 -9.195313 0.626953 1.975866 1.159909 -1.298785
    6 -6.214482 -0.000009 -0.000027 3.387536 -0.767398 1.686193
    7 11.944891 -0.000001 0.000000 -0.363481 -0.321160 1.990272
    8 10.620197 0.000000 0.000000 1.064031 0.274094 1.774836
    9 -4.751114 -0.694496 0.830582 -0.246833 -0.125233 0.407428
    10 -1.688080 0.000042 -0.000031 0.014612 -0.020008 0.807967
    11 -1.336143 0.000057 -0.000010 0.021168 -0.015777 1.194252
    12 -4.820499 -0.509462 -0.224759 -0.310295 0.012215 1.542973
    13 -1.826992 -0.000071 0.000008 0.002241 0.040465 1.329382
    14 -1.436577 0.000006 0.000004 -0.043288 -0.064688 0.497982
    15 -3.992363 -0.891186 -1.827911 -0.393688 0.387265 1.768815
    16 -1.405922 -0.000028 -0.000001 -0.009045 -0.028103 1.187167
    17 -1.175354 0.000128 -0.000020 0.035820 0.057786 0.458700
    18 -4.526758 -0.690575 -1.120744 -0.298951 0.234317 1.708473
    19 -1.744041 0.000031 -0.000006 -0.026202 -0.013805 1.497381
    20 -1.368771 0.000025 0.000003 0.001144 0.052511 -0.083154
    21 -1.874800 -0.935127 0.999177 2.100346 0.441889 0.865543
    22 -1.523449 0.000034 0.000032 0.083736 0.152575 0.605550
    23 -1.599281 0.000010 0.000013 0.034086 -0.026152 0.634453
    24 5.582031 0.115723 0.294922 2.708489 -0.055340 3.097439
    25 0.196846 -0.000003 0.000004 2.793407 0.000006 -3.141577
    26 1.428560 -13.474453 -1.988994 1.975862 1.159910 1.842803
    27 6.214491 0.000010 0.000020 -0.194575 0.505154 -1.874022
    28 11.944896 -0.000032 -0.000199 -0.333079 -0.282845 -0.923745
    29 10.620178 -0.000004 0.000006 -2.809315 0.065029 0.477755
    30 4.751169 0.694376 -0.830476 0.325920 -0.090934 0.293780
    31 1.688061 -0.000023 0.000002 0.020930 -0.013279 0.433705
    32 1.336151 -0.000050 -0.000009 0.012656 -0.036643 0.038511
    33 4.820518 0.509340 0.224866 -0.032796 -0.267816 0.668765
    34 1.827000 0.000064 0.000010 -0.028584 0.028733 0.490935
    35 1.436581 -0.000006 0.000010 0.013264 -0.007416 -0.219298
    36 3.992359 0.891087 1.827996 -0.371179 -0.245846 1.016719
    37 1.405926 0.000031 -0.000006 0.012960 -0.026540 0.421477
    38 1.175362 -0.000128 0.000003 -0.055830 0.110002 -0.515990
    39 4.526766 0.690464 1.120844 -0.377039 -0.271169 0.950865
    40 1.744041 -0.000031 0.000000 -0.005463 -0.028934 0.668900
    41 1.368771 -0.000032 -0.000021 -0.098967 0.124268 -0.860914
    42 1.921741 0.966332 -0.944443 1.878913 0.851897 0.814881
    43 1.523458 -0.000031 -0.000003 -0.035826 -0.098639 0.139085
    44 1.599277 -0.000004 0.000012 0.028918 0.078369 -0.390494
    45 5.511814 -0.000010 0.000002 -0.904092 0.000005 0.000007
    46 0.196849 0.000007 0.000000 -0.348225 0.000015 -0.000002
    47 0.000000 1.000000 0.000000 0.000000 0.000000 -1.570796
    48 -3.000772 -17.763989 -5.654052 0.051567 -0.169186 1.604669
    49 8.351563 0.056580 -2.779297 0.208989 1.174108 1.521418
    50 2.371764 -0.011782 -0.993076 0.000000 0.000000 0.000000
    51 -1.726362 -0.011784 0.125125 0.000000 0.000000 0.000000
    52 -0.027571 0.000000 0.206380 0.000000 0.000000 0.000000
    53 -1.708370 -1.472800 1.384547 0.000000 0.000000 0.000000
    54 -3.274871 -4.144827 -4.195297 3.304088 0.464244 -2.197180
  time 8
    0 0.000000 8.445313 -27.500000 0.000000 0.000000 -0.000001
    1 -0.000002 0.000000 0.000000 1.570747 -1.567142 -1.570747
    2 4.255466 -0.335184 -0.000002 0.000000 0.000000 -0.124848
    3 7.431253 1.496480 0.000002 0.000000 0.000000 0.245450
    4 5.278481 0.165543 0.000001 0.000000 0.000000 0.048511
    5 3.355469 -9.195313 0.626953 1.975866 1.159909 -1.298785
    6 -6.214482 -0.000009 -0.000027 3.458932 -0.711731 1.550961
    7 11.944891 -0.000001 0.000000 -0.352908 -0.325427 1.957062
    8 10.620197 0.000000 0.000000 1.185500 0.348348 1.797203
    9 -4.751114 -0.694496 0.830582 -0.246833 -0.125233 0.407428
    10 -1.688080 0.000042 -0.000031 0.014612 -0.020008 0.807967
    11 -1.336143 0.000057 -0.000010 0.021168 -0.015777 1.194252
    12 -4.820499 -0.509462 -0.224759 -0.310295 0.012215 1.542973
    13 -1.826992 -0.000071 0.000008 0.002241 0.040465 1.329382
    14 -1.436577 0.000006 0.000004 -0.043288 -0.064688 0.497982
    15 -3.992363 -0.891186 -1.827911 -0.393688 0.387265 1.768815
    16 -1.405922 -0.000028 -0.000001 -0.009045 -0.028103 1.187167
    17 -1.175354 0.000128 -0.000020 0.035820 0.057786 0.458700
    18 -4.526758 -0.690575 -1.120744 -0.298951 0.234317 1.708433
    19 -1.744041 0.000031 -0.000006 -0.026202 -0.013805 1.497381
    20 -1.368771 0.000025 0.000003 0.001144 0.052511 -0.083154
    21 -1.874800 -0.935127 0.999177 2.100359 0.441889 0.865543
    22 -1.523449 0.000034 0.000032 0.083736 0.152575 0.605550
    23 -1.599281 0.000010 0.000013 0.034086 -0.026152 0.634453
    24 5.582031 0.115723 0.294922 2.708489 -0.055340 3.097439
    25 0.196846 -0.000003 0.000004 2.793407 0.000006 -3.141577
    26 2.405153 -12.720523 -1.946024 1.975862 1.159910 1.842803
    27 6.214491 0.000010 0.000020 -0.364107 0.548206 -1.905611
    28 11.944896 -0.000032 -0.000199 -0.192985 -0.304417 -1.040194
    29 10.620178 -0.000004 0.000006 -2.768287 -0.032621 0.454003
    30 4.751169 0.694376 -0.830476 0.215299 -0.166580 0.460792
    31 1.688061 -0.000023 0.000002 0.016999 -0.018024 0.682788
    32 1.336151 -0.000050 -0.000009 0.016971 -0.034857 -0.081965
    33 4.820518 0.509340 0.224866 -0.117785 -0.244530 0.849724
    34 1.827000 0.000064 0.000010 -0.021932 0.034090 0.702090
    35 1.436581 -0.000006 0.000010 0.013756 -0.006433 -0.292420
    36 3.992359 0.891087 1.827996 -0.426800 -0.134652 1.161438
    37 1.405926 0.000031 -0.000006 0.007243 -0.028625 0.627760
    38 1.175362 -0.000128 0.000003 -0.065106 0.104788 -0.602517
    39 4.526766 0.690464 1.120844 -0.416748 -0.188295 1.103610
    40 1.744041 -0.000031 0.000000 -0.012450 -0.026573 0.884998
    41 1.368771 -0.000032 -0.000021 -0.102431 0.121440 -0.889128
    42 1.906116 0.962426 -0.963975 1.332340 0.894335 0.412010
    43 1.523458 -0.000031 -0.000003 -0.022523 -0.095967 0.155224
    44 1.599277 -0.000004 0.000012 0.030536 0.077758 -0.369724
    45 5.511814 -0.000010 0.000002 -0.996279 0.000005 0.000007
    46 0.196849 0.000007 0.000000 -0.348225 0.000015 -0.000002
    47 0.000000 1.000000 0.000000 0.000000 0.000000 -1.570796
    48 -1.836674 -17.674143 -4.064160 0.166863 -0.093016 1.595457
    49 8.351563 0.056580 -2.779297 0.208989 1.174108 1.521418
    50 2.371764 -0.011782 -0.993076 0.000000 0.000000 0.000000
    51 -1.726362 -0.011784 0.125125 0.000000 0.000000 0.000000
    52 -0.027571 0.000000 0.206380 0.000000 0.000000 0.000000
    53 -1.708370 -1.472800 1.384547 0.000000 0.000000 0.000000
    54 -1.477942 -3.433868 -3.886693 3.199929 0.394341 -2.193418
  time 9
    0 0.000000 8.445313 -27.500000 0.000000 0.000000 -0.000001
    1 -0.000002 0.000000 0.000000 1.570747 -1.567142 -1.570747
    2 4.255466 -0.335184 -0.000002 0.000000 0.000000 -0.124848
    3 7.431253 1.496480 0.000002 0.000000 0.000000 0.245450
    4 5.278481 0.165543 0.000001 0.000000 0.000000 0.048511
    5 3.355469 -9.195313 0.626953 1.975866 1.159909 -1.298785
    6 -6.214482 -0.000009 -0.000027 3.496631 -0.669277 1.452877
    7 11.944891 -0.000001 0.000000 -0.340095 -0.330089 1.917222
    8 10.620197 0.000000 0.000000 1.231215 0.406936 1.811259
    9 -4.751114 -0.694496 0.830582 -0.246833 -0.125233 0.407428
    10 -1.688080 0.000042 -0.000031 0.014612 -0.020008 0.807967
    11 -1.336143 0.000057 -0.000010 0.021168 -0.015777 1.194252
    12 -4.820499 -0.509462 -0.224759 -0.310295 0.012215 1.542973
    13 -1.826992 -0.000071 0.000008 0.002241 0.040465 1.329382
    14 -1.436577 0.000006 0.000004 -0.043288 -0.064688 0.497982
    15 -3.992363 -0.891186 -1.827911 -0.393688 0.387265 1.768815
    16 -1.405922 -0.000028 -0.000001 -0.009045 -0.028103 1.187167
    17 -1.175354 0.000128 -0.000020 0.035820 0.057786 0.458700
    18 -4.526758 -0.690575 -1.120744 -0.298951 0.234317 1.708433
    19 -1.744041 0.000031 -0.000006 -0.026202 -0.013793 1.497381
    20 -1.368771 0.000025 0.000003 0.001144 0.052511 -0.083154
    21 -1.874800 -0.935127 0.999177 2.100359 0.441889 0.865543
    22 -1.523449 0.000034 0.000032 0.083736 0.152575 0.605550
    23 -1.599281 0.000010 0.000013 0.034086 -0.026152 0.634453
    24 5.582031 0.115723 0.294922 2.708489 -0.055340 3.097439
    25 0.196846 -0.000003 0.000004 2.793407 0.000006 -3.141577
    26 2.784070 -12.427546 -1.930399 1.975862 1.159910 1.842803
    27 6.214491 0.000010 0.000020 -0.422977 0.538684 -1.897834
    28 11.944896 -0.000032 -0.000199 -0.151199 -0.324275 -1.175230
    29 10.620178 -0.000004 0.000006 -2.682430 -0.138980 0.473627
    30 4.751169 0.694376 -0.830476 0.047971 -0.236067 0.699028
    31 1.688061 -0.000023 0.000002 0.010839 -0.022279 0.986261
    32 1.336151 -0.000050 -0.000009 0.022196 -0.031789 -0.238604
    33 4.820518 0.509340 0.224866 -0.220470 -0.191773 1.083463
    34 1.827000 0.000064 0.000010 -0.013867 0.038081 0.924761
    35 1.436581 -0.000006 0.000010 0.014307 -0.005103 -0.387546
    36 3.992359 0.891087 1.827996 -0.480023 -0.001251 1.326637
    37 1.405926 0.000031 -0.000006 0.000173 -0.029524 0.869788
    38 1.175362 -0.000128 0.000003 -0.070535 0.101217 -0.655335
    39 4.526766 0.690464 1.120844 -0.454195 -0.086779 1.291784
    40 1.744041 -0.000031 0.000000 -0.018059 -0.023242 1.086017
    41 1.368771 -0.000032 -0.000021 -0.104480 0.119690 -0.906120
    42 1.894396 0.950707 -0.979600 0.810650 0.792729 0.039831
    43 1.523458 -0.000031 -0.000003 -0.011988 -0.093103 0.176932
    44 1.599277 -0.000004 0.000012 0.032585 0.076931 -0.343365
    45 5.511814 -0.000010 0.000002 -1.049449 0.000005 0.000007
    46 0.196849 0.000007 0.000000 -0.348225 0.000015 -0.000002
    47 0.000000 1.000000 0.000000 0.000000 0.000000 -1.570796
    48 -0.914771 -17.580390 -2.970377 0.212981 -0.035381 1.592903
    49 8.351563 0.056580 -2.779297 0.208989 1.174108 1.521418
    50 2.371764 -0.011782 -0.993076 0.000000 0.000000 0.000000
    51 -1.726362 -0.011784 0.125125 0.000000 0.000000 0.000000
    52 -0.027571 0.000000 0.206380 0.000000 0.000000 0.000000
    53 -1.708370 -1.472800 1.384547 0.000000 0.000000 0.000000
    54 -0.255248 -2.883070 -3.316363 3.092337 0.321721 -2.176021
  time 10
    0 0.000000 8.445313 -27.500000 0.000000 0.000000 -0.000001
    1 -0.000002 0.000000 0.000000 1.570747 -1.567142 -1.570747
    2 4.255466 -0.335184 -0.000002 0.000000 0.000000 -0.124848
    3 7.431253 1.496480 0.000002 0.000000 0.000000 0.245450
    4 5.278481 0.165543 0.000001 0.000000 0.000000 0.048511
    5 3.355469 -9.195313 0.626953 1.975866 1.159909 -1.298785
    6 -6.214482 -0.000009 -0.000027 3.502493 -0.652684 1.395440
    7 11.944891 -0.000001 0.000000 -0.330460 -0.333229 1.887650
    8 10.620197 0.000000 0.000000 1.177722 0.453782 1.790117
    9 -4.751114 -0.694496 0.830582 -0.246833 -0.125233 0.407428
    10 -1.688080 0.000042 -0.000031 0.014612 -0.020008 0.807967
    11 -1.336143 0.000057 -0.000010 0.021168 -0.015777 1.194252
    12 -4.820499 -0.509462 -0.224759 -0.310295 0.012215 1.542973
    13 -1.826992 -0.000071 0.000008 0.002241 0.040465 1.329416
    14 -1.436577 0.000006 0.000004 -0.043288 -0.064688 0.497982
    15 -3.992363 -0.891186 -1.827911 -0.393688 0.387265 1.768815
    16 -1.405922 -0.000028 -0.000001 -0.009045 -0.028103 1.187197
    17 -1.175354 0.000128 -0.000020 0.035820 0.057786 0.458700
    18 -4.526758 -0.690575 -1.120744 -0.298951 0.234317 1.708433
    19 -1.744041 0.000031 -0.000006 -0.026202 -0.013793 1.497419
    20 -1.368771 0.000025 0.000003 0.001144 0.052511 -0.083154
    21 -1.874800 -0.935127 0.999177 2.100346 0.441889 0.865543
    22 -1.523449 0.000034 0.000032 0.083736 0.152575 0.605550
    23 -1.599281 0.000010 0.000013 0.034086 -0.026152 0.634453
    24 5.582031 0.115723 0.294922 2.708489 -0.055340 3.097439
    25 0.196846 -0.000003 0.000004 2.793407 0.000006 -3.141577
    26 2.784070 -12.427546 -1.930399 1.975862 1.159910 1.842803
    27 6.214491 0.000010 0.000020 -0.332165 0.478907 -1.826054
    28 11.944896 -0.000032 -0.000199 -0.125229 -0.333384 -1.255586
    29 10.620178 -0.000004 0.000006 -2.706960 -0.157639 0.515021
    30 4.751169 0.694376 -0.830476 -0.132928 -0.263751 0.947895
    31 1.688061 -0.000023 0.000002 0.004056 -0.024436 1.274738
    32 1.336151 -0.000050 -0.000009 0.026834 -0.027990 -0.393563
    33 4.820518 0.509340 0.224866 -0.306835 -0.117876 1.307423
    34 1.827000 0.000064 0.000010 -0.006113 0.040058 1.122434
    35 1.436581 -0.000006 0.000010 0.014726 -0.003725 -0.482210
    36 3.992359 0.891087 1.827996 -0.514383 0.128644 1.478901
    37 1.405926 0.000031 -0.000006 -0.006479 -0.028805 1.097029
    38 1.175362 -0.000128 0.000003 -0.073328 0.099216 -0.683181
    39 4.526766 0.690464 1.120844 -0.474970 0.013319 1.472245
    40 1.744041 -0.000031 0.000000 -0.021918 -0.019802 1.251341
    41 1.368771 -0.000032 -0.000021 -0.105511 0.118779 -0.914824
    42 1.886584 0.942894 -0.983507 0.628480 0.703828 -0.072122
    43 1.523458 -0.000031 -0.000003 -0.004330 -0.090598 0.198813
    44 1.599277 -0.000004 0.000012 0.034575 0.076056 -0.317187
    45 5.511814 -0.000010 0.000002 -1.087580 0.000005 0.000007
    46 0.196849 0.000007 0.000000 -0.348225 0.000015 -0.000002
    47 0.000000 1.000000 0.000000 0.000000 0.000000 -1.570796
    48 -0.391318 -17.510075 -2.513332 0.176349 -0.006735 1.589619
    49 8.351563 0.056580 -2.779297 0.208989 1.174108 1.521418
    50 2.371764 -0.011782 -0.993076 0.000000 0.000000 0.000000
    51 -1.726362 -0.011784 0.125125 0.000000 0.000000 0.000000
    52 -0.027571 0.000000 0.206380 0.000000 0.000000 0.000000
    53 -1.708370 -1.472800 1.384547 0.000000 0.000000 0.000000
    54 0.151014 -2.691658 -3.046824 3.048652 0.287250 -2.164455
  time 11
    0 0.000000 8.445313 -27.500000 0.000000 0.000000 -0.000001
    1 -0.000002 0.000000 0.000000 1.570747 -1.567142 -1.570747
    2 4.255466 -0.335184 -0.000002 0.000000 0.000000 -0.124848
    3 7.431253 1.496480 0.000002 0.000000 0.000000 0.245450
    4 5.278481 0.165543 0.000001 0.000000 0.000000 0.048511
    5 3.355469 -9.195313 0.626953 1.975866 1.159909 -1.298785
    6 -6.214482 -0.000009 -0.000027 3.500505 -0.646971 1.359970
    7 11.944891 -0.000001 0.000000 -0.324210 -0.335099 1.868581
    8 10.620197 0.000000 0.000000 1.079983 0.483876 1.746609
    9 -4.751114 -0.694496 0.830582 -0.246833 -0.125233 0.407428
    10 -1.688080 0.000042 -0.000031 0.014612 -0.020008 0.807967
    11 -1.336143 0.000057 -0.000010 0.021168 -0.015777 1.194252
    12 -4.820499 -0.509462 -0.224759 -0.310295 0.012215 1.542973
    13 -1.826992 -0.000071 0.000008 0.002241 0.040465 1.329382
    14 -1.436577 0.000006 0.000004 -0.043288 -0.064688 0.497982
    15 -3.992363 -0.891186 -1.827911 -0.393688 0.387265 1.768815
    16 -1.405922 -0.000028 -0.000001 -0.009045 -0.028103 1.187167
    17 -1.175354 0.000128 -0.000020 0.035820 0.057786 0.458700
    18 -4.526758 -0.690575 -1.120744 -0.298951 0.234317 1.708433
    19 -1.744041 0.000031 -0.000006 -0.026202 -0.013793 1.497381
    20 -1.368771 0.000025 0.000003 0.001144 0.052511 -0.083154
    21 -1.874800 -0.935127 0.999177 2.100346 0.441889 0.865543
    22 -1.523449 0.000034 0.000032 0.083736 0.152575 0.605550
    23 -1.599281 0.000010 0.000013 0.034086 -0.026152 0.634453
    24 5.582031 0.115723 0.294922 2.708489 -0.055340 3.097439
    25 0.196846 -0.000003 0.000004 2.793407 0.000006 -3.141577
    26 2.784070 -12.427546 -1.930399 1.975862 1.159910 1.842803
    27 6.214491 0.000010 0.000020 -0.161259 0.379169 -1.736723
    28 11.944896 -0.000032 -0.000199 -0.118130 -0.335493 -1.277223
    29 10.620178 -0.000004 0.000006 -2.822286 -0.128260 0.544720
    30 4.751169 0.694376 -0.830476 -0.269414 -0.255590 1.134675
    31 1.688061 -0.000023 0.000002 -0.001098 -0.024748 1.483137
    32 1.336151 -0.000050 -0.000009 0.029914 -0.024670 -0.510473
    33 4.820518 0.509340 0.224866 -0.359185 -0.051242 1.469532
    34 1.827000 0.000064 0.000010 -0.000492 0.040525 1.261856
    35 1.436581 -0.000006 0.000010 0.014954 -0.002658 -0.554408
    36 3.992359 0.891087 1.827996 -0.529028 0.225216 1.590205
    37 1.405926 0.000031 -0.000006 -0.011129 -0.027354 1.262034
    38 1.175362 -0.000128 0.000003 -0.074406 0.098413 -0.694117
    39 4.526766 0.690464 1.120844 -0.480087 0.087891 1.606335
    40 1.744041 -0.000031 0.000000 -0.024099 -0.017201 1.362727
    41 1.368771 -0.000032 -0.000021 -0.105882 0.118444 -0.918012
    42 1.874865 0.892111 -0.948349 0.877686 0.742778 -0.020929
    43 1.523458 -0.000031 -0.000003 0.000344 -0.088824 0.215631
    44 1.599277 -0.000004 0.000012 0.036097 0.075349 -0.297139
    45 5.511814 -0.000010 0.000002 -1.113148 0.000005 0.000007
    46 0.196849 0.000007 0.000000 -0.348225 0.000015 -0.000002
    47 0.000000 1.000000 0.000000 0.000000 0.000000 -1.570796
    48 -0.180374 -17.455386 -2.349264 0.101042 0.004458 1.584329
    49 8.351563 0.056580 -2.779297 0.208989 1.174108 1.521418
    50 2.371764 -0.011782 -0.993076 0.000000 0.000000 0.000000
    51 -1.726362 -0.011784 0.125125 0.000000 0.000000 0.000000
    52 -0.027571 0.000000 0.206380 0.000000 0.000000 0.000000
    53 -1.708370 -1.472800 1.384547 0.000000 0.000000 0.000000
    54 0.151014 -2.691658 -3.046824 3.048652 0.287250 -2.164455
  time 12
    0 0.000000 8.445313 -27.500000 0.000000 0.000000 -0.000001
    1 -0.000002 0.000000 0.000000 1.570747 -1.567142 -1.570747
    2 4.255466 -0.335184 -0.000002 0.000000 0.000000 -0.124848
    3 7.431253 1.496480 0.000002 0.000000 0.000000 0.245450
    4 5.278481 0.165543 0.000001 0.000000 0.000000 0.048511
    5 3.355469 -9.195313 0.626953 1.975866 1.159909 -1.298785
    6 -6.214482 -0.000009 -0.000027 3.497803 -0.645489 1.340382
    7 11.944891 -0.000001 0.000000 -0.320998 -0.336009 1.858841
    8 10.620197 0.000000 0.000000 0.999745 0.498395 1.707390
    9 -4.751114 -0.694496 0.830582 -0.246833 -0.125233 0.407428
    10 -1.688080 0.000042 -0.000031 0.014612 -0.020008 0.807967
    11 -1.336143 0.000057 -0.000010 0.021168 -0.015777 1.194252
    12 -4.820499 -0.509462 -0.224759 -0.310295 0.012215 1.542973
    13 -1.826992 -0.000071 0.000008 0.002241 0.040465 1.329382
    14 -1.436577 0.000006 0.000004 -0.043288 -0.064688 0.497982
    15 -3.992363 -0.891186 -1.827911 -0.393688 0.387265 1.768815
    16 -1.405922 -0.000028 -0.000001 -0.009045 -0.028103 1.187167
    17 -1.175354 0.000128 -0.000020 0.035820 0.057786 0.458700
    18 -4.526758 -0.690575 -1.120744 -0.298951 0.234317 1.708433
    19 -1.744041 0.000031 -0.000006 -0.026202 -0.013805 1.497381
    20 -1.368771 0.000025 0.000003 0.001144 0.052511 -0.083154
    21 -1.874800 -0.935127 0.999177 2.100359 0.441889 0.865543
    22 -1.523449 0.000034 0.000032 0.083736 0.152575 0.605550
    23 -1.599281 0.000010 0.000013 0.034086 -0.026152 0.634453
    24 5.582031 0.115723 0.294922 2.708489 -0.055340 3.097439
    25 0.196846 -0.000003 0.000004 2.793407 0.000006 -3.141577
    26 2.784070 -12.427546 -1.930399 1.975862 1.159910 1.842803
    27 6.214491 0.000010 0.000020 -0.069555 0.317561 -1.693366
    28 11.944896 -0.000032 -0.000199 -0.113817 -0.336691 -1.290225
    29 10.620178 -0.000004 0.000006 -2.872758 -0.099753 0.558235
    30 4.751169 0.694376 -0.830476 -0.321316 -0.245870 1.206182
    31 1.688061 -0.000023 0.000002 -0.003051 -0.024580 1.562355
    32 1.336151 -0.000050 -0.000009 0.031017 -0.023268 -0.556486
    33 4.820518 0.509340 0.224866 -0.376493 -0.023150 1.531580
    34 1.827000 0.000064 0.000010 0.001641 0.040489 1.314490
    35 1.436581 -0.000006 0.000010 0.015026 -0.002227 -0.583059
    36 3.992359 0.891087 1.827996 -0.532288 0.262553 1.633555
    37 1.405926 0.000031 -0.000006 -0.012831 -0.026599 1.325227
    38 1.175362 -0.000128 0.000003 -0.074586 0.098269 -0.696034
    39 4.526766 0.690464 1.120844 -0.479707 0.116661 1.658894
    40 1.744041 -0.000031 0.000000 -0.024794 -0.016195 1.403613
    41 1.368771 -0.000032 -0.000021 -0.105942 0.118396 -0.918490
    42 1.867052 0.845235 -0.917098 1.123903 0.778528 0.037230
    43 1.523458 -0.000031 -0.000003 0.001938 -0.088141 0.222367
    44 1.599277 -0.000004 0.000012 0.036696 0.075049 -0.289134
    45 5.511814 -0.000010 0.000002 -1.128667 0.000005 0.000007
    46 0.196849 0.000007 0.000000 -0.348225 0.000015 -0.000002
    47 0.000000 1.000000 0.000000 0.000000 0.000000 -1.570796
    48 -0.129591 -17.416323 -2.318013 0.038724 0.006431 1.578948
    49 8.351563 0.056580 -2.779297 0.208989 1.174108 1.521418
    50 2.371764 -0.011782 -0.993076 0.000000 0.000000 0.000000
    51 -1.726362 -0.011784 0.125125 0.000000 0.000000 0.000000
    52 -0.027571 0.000000 0.206380 0.000000 0.000000 0.000000
    53 -1.708370 -1.472800 1.384547 0.000000 0.000000 0.000000
    54 0.151014 -2.691658 -3.046824 3.048652 0.287250 -2.164455
  time 13
    0 0.000000 8.445313 -27.500000 0.000000 0.000000 -0.000001
    1 -0.000002 0.000000 0.000000 1.570747 -1.567142 -1.570747
    2 4.255466 -0.335184 -0.000002 0.000000 0.000000 -0.124848
    3 7.431253 1.496480 0.000002 0.000000 0.000000 0.245450
    4 5.278481 0.165543 0.000001 0.000000 0.000000 0.048511
    5 3.355469 -9.195313 0.626953 1.975866 1.159909 -1.298785
    6 -6.214482 -0.000009 -0.000027 3.497395 -0.644006 1.329678
    7 11.944891 -0.000001 0.000000 -0.319435 -0.336453 1.854088
    8 10.620197 0.000000 0.000000 0.963951 0.505639 1.686631
    9 -4.751114 -0.694496 0.830582 -0.246833 -0.125233 0.407428
    10 -1.688080 0.000042 -0.000031 0.014612 -0.020008 0.807967
    11 -1.336143 0.000057 -0.000010 0.021168 -0.015777 1.194252
    12 -4.820499 -0.509462 -0.224759 -0.310295 0.012215 1.542973
    13 -1.826992 -0.000071 0.000008 0.002241 0.040465 1.329382
    14 -1.436577 0.000006 0.000004 -0.043288 -0.064688 0.497982
    15 -3.992363 -0.891186 -1.827911 -0.393688 0.387265 1.768815
    16 -1.405922 -0.000028 -0.000001 -0.009045 -0.028103 1.187167
    17 -1.175354 0.000128 -0.000020 0.035820 0.057786 0.458700
    18 -4.526758 -0.690575 -1.120744 -0.298951 0.234317 1.708473
    19 -1.744041 0.000031 -0.000006 -0.026202 -0.013805 1.497381
    20 -1.368771 0.000025 0.000003 0.001144 0.052511 -0.083154
    21 -1.874800 -0.935127 0.999177 2.100359 0.441889 0.865543
    22 -1.523449 0.000034 0.000032 0.083736 0.152575 0.605550
    23 -1.599281 0.000010 0.000013 0.034086 -0.026152 0.634453
    24 5.582031 0.115723 0.294922 2.708489 -0.055340 3.097439
    25 0.196846 -0.000003 0.000004 2.793407 0.000006 -3.141577
    26 2.784070 -12.427546 -1.930399 1.975862 1.159910 1.842803
    27 6.214491 0.000010 0.000020 -0.075806 0.315892 -1.687929
    28 11.944896 -0.000032 -0.000199 -0.111900 -0.337219 -1.296092
    29 10.620178 -0.000004 0.000006 -2.845297 -0.078146 0.558073
    30 4.751169 0.694376 -0.830476 -0.321316 -0.245870 1.206182
    31 1.688061 -0.000023 0.000002 -0.003051 -0.024580 1.562355
    32 1.336151 -0.000050 -0.000009 0.031017 -0.023268 -0.556486
    33 4.820518 0.509340 0.224866 -0.376493 -0.023150 1.531580
    34 1.827000 0.000064 0.000010 0.001641 0.040489 1.314490
    35 1.436581 -0.000006 0.000010 0.015026 -0.002227 -0.583059
    36 3.992359 0.891087 1.827996 -0.532288 0.262553 1.633555
    37 1.405926 0.000031 -0.000006 -0.012831 -0.026599 1.325227
    38 1.175362 -0.000128 0.000003 -0.074586 0.098269 -0.696034
    39 4.526766 0.690464 1.120844 -0.479707 0.116661 1.658894
    40 1.744041 -0.000031 0.000000 -0.024794 -0.016195 1.403613
    41 1.368771 -0.000032 -0.000021 -0.105942 0.118396 -0.918490
    42 1.867052 0.845235 -0.917098 1.123903 0.778528 0.037212
    43 1.523458 -0.000031 -0.000003 0.001938 -0.088141 0.222367
    44 1.599277 -0.000004 0.000012 0.036696 0.075049 -0.289134
    45 5.511814 -0.000010 0.000002 -1.136685 0.000005 0.000007
    46 0.196849 0.000007 0.000000 -0.348225 0.000015 -0.000002
    47 0.000000 1.000000 0.000000 0.000000 0.000000 -1.570796
    48 -0.102246 -17.392884 -2.302388 0.011432 0.006412 1.574661
    49 8.351563 0.056580 -2.779297 0.208989 1.174108 1.521418
    50 2.371764 -0.011782 -0.993076 0.000000 0.000000 0.000000
    51 -1.726362 -0.011784 0.125125 0.000000 0.000000 0.000000
    52 -0.027571 0.000000 0.206380 0.000000 0.000000 0.000000
    53 -1.708370 -1.472800 1.384547 0.000000 0.000000 0.000000
    54 0.151014 -2.691658 -3.046824 3.048652 0.287250 -2.164455
  time 14
    0 0.000000 8.445313 -27.500000 0.000000 0.000000 -0.000001
    1 -0.000002 0.000000 0.000000 1.570747 -1.567142 -1.570747
    2 4.255466 -0.335184 -0.000002 0.000000 0.000000 -0.124848
    3 7.431253 1.496480 0.000002 0.000000 0.000000 0.245450
    4 5.278481 0.165543 0.000001 0.000000 0.000000 0.048511
    5 3.355469 -9.195313 0.626953 1.975866 1.159909 -1.298785
    6 -6.214482 -0.000009 -0.000027 3.498084 -0.642436 1.323381
    7 11.944891 -0.000001 0.000000 -0.318533 -0.336693 1.851331
    8 10.620197 0.000000 0.000000 0.950379 0.509563 1.676673
    9 -4.751114 -0.694496 0.830582 -0.246833 -0.125233 0.407428
    10 -1.688080 0.000042 -0.000031 0.014612 -0.020008 0.807967
    11 -1.336143 0.000057 -0.000010 0.021168 -0.015777 1.194252
    12 -4.820499 -0.509462 -0.224759 -0.310295 0.012215 1.542973
    13 -1.826992 -0.000071 0.000008 0.002241 0.040465 1.329382
    14 -1.436577 0.000006 0.000004 -0.043288 -0.064688 0.497982
    15 -3.992363 -0.891186 -1.827911 -0.393688 0.387265 1.768815
    16 -1.405922 -0.000028 -0.000001 -0.009045 -0.028103 1.187167
    17 -1.175354 0.000128 -0.000020 0.035820 0.057786 0.458700
    18 -4.526758 -0.690575 -1.120744 -0.298951 0.234317 1.708433
    19 -1.744041 0.000031 -0.000006 -0.026202 -0.013793 1.497381
    20 -1.368771 0.000025 0.000003 0.001144 0.052511 -0.083154
    21 -1.874800 -0.935127 0.999177 2.100346 0.441889 0.865543
    22 -1.523449 0.000034 0.000032 0.083736 0.152575 0.605550
    23 -1.599281 0.000010 0.000013 0.034086 -0.026152 0.634453
    24 5.582031 0.115723 0.294922 2.708489 -0.055340 3.097439
    25 0.196846 -0.000003 0.000004 2.793407 0.000006 -3.141577
    26 2.784070 -12.427546 -1.930399 1.975862 1.159910 1.842803
    27 6.214491 0.000010 0.000020 -0.079103 0.314916 -1.685727
    28 11.944896 -0.000032 -0.000199 -0.111091 -0.337422 -1.298485
    29 10.620178 -0.000004 0.000006 -2.835040 -0.068264 0.557466
    30 4.751169 0.694376 -0.830476 -0.321316 -0.245870 1.206182
    31 1.688061 -0.000023 0.000002 -0.003051 -0.024580 1.562355
    32 1.336151 -0.000050 -0.000009 0.031017 -0.023268 -0.556486
    33 4.820518 0.509340 0.224866 -0.376493 -0.023150 1.531580
    34 1.827000 0.000064 0.000010 0.001641 0.040489 1.314490
    35 1.436581 -0.000006 0.000010 0.015026 -0.002227 -0.583059
    36 3.992359 0.891087 1.827996 -0.532288 0.262553 1.633555
    37 1.405926 0.000031 -0.000006 -0.012831 -0.026599 1.325227
    38 1.175362 -0.000128 0.000003 -0.074586 0.098269 -0.696034
    39 4.526766 0.690464 1.120844 -0.479707 0.116661 1.658894
    40 1.744041 -0.000031 0.000000 -0.024794 -0.016195 1.403613
    41 1.368771 -0.000032 -0.000021 -0.105942 0.118396 -0.918490
    42 1.867052 0.845235 -0.917098 1.123903 0.778528 0.037230
    43 1.523458 -0.000031 -0.000003 0.001938 -0.088141 0.222367
    44 1.599277 -0.000004 0.000012 0.036696 0.075049 -0.289134
    45 5.511814 -0.000010 0.000002 -1.139604 0.000005 0.000007
    46 0.196849 0.000007 0.000000 -0.348225 0.000015 -0.000002
    47 0.000000 1.000000 0.000000 0.000000 0.000000 -1.570796
    48 -0.082714 -17.381165 -2.282856 0.001411 0.006147 1.571742
    49 8.351563 0.056580 -2.779297 0.208989 1.174108 1.521418
    50 2.371764 -0.011782 -0.993076 0.000000 0.000000 0.000000
    51 -1.726362 -0.011784 0.125125 0.000000 0.000000 0.000000
    52 -0.027571 0.000000 0.206380 0.000000 0.000000 0.000000
    53 -1.708370 -1.472800 1.384547 0.000000 0.000000 0.000000
    54 0.151014 -2.691658 -3.046824 3.048652 0.287250 -2.164455
  time 15
    0 0.000000 8.445313 -27.500000 0.000000 0.000000 -0.000001
    1 -0.000002 0.000000 0.000000 1.570747 -1.567142 -1.570747
    2 4.255466 -0.335184 -0.000002 0.000000 0.000000 -0.124848
    3 7.431253 1.496480 0.000002 0.000000 0.000000 0.245450
    4 5.278481 0.165543 0.000001 0.000000 0.000000 0.048511
    5 3.355469 -9.195313 0.626953 1.975866 1.159909 -1.298785
    6 -6.214482 -0.000009 -0.000027 3.498568 -0.641738 1.321423
    7 11.944891 -0.000001 0.000000 -0.318238 -0.336776 1.850509
    8 10.620197 0.000000 0.000000 0.948236 0.510831 1.674107
    9 -4.751114 -0.694496 0.830582 -0.246833 -0.125233 0.407428
    10 -1.688080 0.000042 -0.000031 0.014612 -0.020008 0.807967
    11 -1.336143 0.000057 -0.000010 0.021168 -0.015777 1.194252
    12 -4.820499 -0.509462 -0.224759 -0.310295 0.012215 1.542973
    13 -1.826992 -0.000071 0.000008 0.002241 0.040465 1.329382
    14 -1.436577 0.000006 0.000004 -0.043288 -0.064688 0.497982
    15 -3.992363 -0.891186 -1.827911 -0.393688 0.387265 1.768815
    16 -1.405922 -0.000028 -0.000001 -0.009045 -0.028103 1.187167
    17 -1.175354 0.000128 -0.000020 0.035820 0.057786 0.458700
    18 -4.526758 -0.690575 -1.120744 -0.298951 0.234317 1.708433
    19 -1.744041 0.000031 -0.000006 -0.026202 -0.013805 1.497381
    20 -1.368771 0.000025 0.000003 0.001144 0.052511 -0.083154
    21 -1.874800 -0.935127 0.999177 2.100359 0.441889 0.865543
    22 -1.523449 0.000034 0.000032 0.083736 0.152575 0.605550
    23 -1.599281 0.000010 0.000013 0.034086 -0.026152 0.634453
    24 5.582031 0.115723 0.294922 2.708489 -0.055340 3.097439
    25 0.196846 -0.000003 0.000004 2.793407 0.000006 -3.141577
    26 2.784070 -12.427546 -1.930399 1.975862 1.159910 1.842803
    27 6.214491 0.000010 0.000020 -0.079996 0.314631 -1.685314
    28 11.944896 -0.000032 -0.000199 -0.110941 -0.337470 -1.299002
    29 10.620178 -0.000004 0.000006 -2.833520 -0.065885 0.557062
    30 4.751169 0.694376 -0.830476 -0.321316 -0.245870 1.206182
    31 1.688061 -0.000023 0.000002 -0.003051 -0.024580 1.562355
    32 1.336151 -0.000050 -0.000009 0.031017 -0.023268 -0.556486
    33 4.820518 0.509340 0.224866 -0.376493 -0.023150 1.531580
    34 1.827000 0.000064 0.000010 0.001641 0.040489 1.314490
    35 1.436581 -0.000006 0.000010 0.015026 -0.002227 -0.583059
    36 3.992359 0.891087 1.827996 -0.532288 0.262553 1.633555
    37 1.405926 0.000031 -0.000006 -0.012831 -0.026599 1.325227
    38 1.175362 -0.000128 0.000003 -0.074586 0.098269 -0.696034
    39 4.526766 0.690464 1.120844 -0.479707 0.116661 1.658894
    40 1.744041 -0.000031 0.000000 -0.024794 -0.016195 1.403613
    41 1.368771 -0.000032 -0.000021 -0.105942 0.118396 -0.918490
    42 1.867052 0.845235 -0.917098 1.123903 0.778528 0.037230
    43 1.523458 -0.000031 -0.000003 0.001938 -0.088141 0.222367
    44 1.599277 -0.000004 0.000012 0.036696 0.075049 -0.289134
    45 5.511814 -0.000010 0.000002 -1.140047 0.000005 0.000007
    46 0.196849 0.000007 0.000000 -0.348225 0.000015 -0.000002
    47 0.000000 1.000000 0.000000 0.000000 0.000000 -1.570796
    48 -0.074902 -17.377259 -2.275043 0.000000 0.005995 1.570739
    49 8.351563 0.056580 -2.779297 0.208989 1.174108 1.521418
    50 2.371764 -0.011782 -0.993076 0.000000 0.000000 0.000000
    51 -1.726362 -0.011784 0.125125 0.000000 0.000000 0.000000
    52 -0.027571 0.000000 0.206380 0.000000 0.000000 0.000000
    53 -1.708370 -1.472800 1.384547 0.000000 0.000000 0.000000
    54 0.151014 -2.691658 -3.046824 3.048652 0.287250 -2.164455
end
