// Created by Crowbar 0.74
version 1
nodes
  0 "root" -1
  1 "pelvis" 0
  2 "spine_01" 1
  3 "spine_02" 2
  4 "spine_03" 3
  5 "clavicle_r" 4
  6 "upperarm_r" 5
  7 "lowerarm_r" 6
  8 "hand_r" 7
  9 "index_01_r" 8
  10 "index_02_r" 9
  11 "index_03_r" 10
  12 "middle_01_r" 8
  13 "middle_02_r" 12
  14 "middle_03_r" 13
  15 "pinky_01_r" 8
  16 "pinky_02_r" 15
  17 "pinky_03_r" 16
  18 "ring_01_r" 8
  19 "ring_02_r" 18
  20 "ring_03_r" 19
  21 "thumb_01_r" 8
  22 "thumb_02_r" 21
  23 "thumb_03_r" 22
  24 "lowerarm_twist_01_r" 7
  25 "upperarm_twist_01_r" 6
  26 "clavicle_l" 4
  27 "upperarm_l" 26
  28 "lowerarm_l" 27
  29 "hand_l" 28
  30 "index_01_l" 29
  31 "index_02_l" 30
  32 "index_03_l" 31
  33 "middle_01_l" 29
  34 "middle_02_l" 33
  35 "middle_03_l" 34
  36 "pinky_01_l" 29
  37 "pinky_02_l" 36
  38 "pinky_03_l" 37
  39 "ring_01_l" 29
  40 "ring_02_l" 39
  41 "ring_03_l" 40
  42 "thumb_01_l" 29
  43 "thumb_02_l" 42
  44 "thumb_03_l" 43
  45 "lowerarm_twist_01_l" 28
  46 "upperarm_twist_01_l" 27
  47 "cam_driver" -1
  48 "Base" -1
  49 "rhand_ikTarget" 48
  50 "Trigger" 48
  51 "Mag" 48
  52 "Bullets" 51
  53 "Bolt" 48
  54 "MagRelease" 48
  55 "lhand_ikTarget" 48
end
skeleton
  time 0
    0 0.000000 7.449219 -27.500000 0.000000 0.000000 -0.000001
    1 -0.000002 0.000000 0.000000 1.570743 -1.567137 -1.570743
    2 4.269531 -4.839844 0.005783 0.000000 0.000000 -0.124848
    3 7.431250 1.496477 0.000002 0.000000 0.000000 0.245450
    4 5.278481 0.165541 0.000001 0.000000 0.000000 0.048511
    5 4.035156 -5.125000 0.982422 1.975864 1.159909 -1.298786
    6 -6.214486 -0.000006 -0.000026 3.144522 -0.840563 1.547087
    7 11.944885 -0.000001 -0.000002 -0.093572 -0.325151 1.182278
    8 10.620186 0.000000 0.000000 0.526627 0.343481 2.362099
    9 -4.751106 -0.694494 0.830577 -0.224695 -0.167273 0.428192
    10 -1.688072 0.000046 -0.000031 0.014612 -0.020008 0.807967
    11 -1.336140 0.000055 -0.000012 0.021168 -0.015777 1.194252
    12 -4.820496 -0.509460 -0.224760 -0.302219 -0.183891 1.370053
    13 -1.826988 -0.000069 0.000007 0.004242 0.040298 1.378845
    14 -1.436577 0.000004 0.000001 -0.054590 -0.055484 0.685661
    15 -3.992357 -0.891188 -1.827909 -0.497678 -0.049932 1.160559
    16 -1.405918 -0.000024 -0.000001 -0.016290 -0.024628 1.460204
    17 -1.175362 0.000125 -0.000021 0.049791 0.046300 0.725667
    18 -4.526751 -0.690573 -1.120744 -0.421689 -0.042636 1.411324
    19 -1.744041 0.000034 -0.000007 -0.026549 -0.013110 1.523316
    20 -1.368767 0.000023 0.000005 0.020850 0.048211 0.303430
    21 -1.874798 -0.935127 0.999174 1.578803 0.617232 0.627486
    22 -1.523453 0.000034 0.000030 0.107902 0.136623 0.772872
    23 -1.599281 0.000004 0.000013 0.011816 -0.041302 1.272320
    24 5.582031 0.115723 0.294922 2.708489 -0.055340 3.097439
    25 0.196846 -0.000002 0.000002 2.793407 0.000006 -3.141577
    26 2.839844 -12.078125 -1.466797 1.975862 1.159910 1.842803
    27 6.214489 0.000005 0.000019 0.463947 0.704484 -1.334111
    28 11.944893 -0.000032 -0.000194 -1.086124 -0.338731 -1.313988
    29 10.620171 0.000004 0.000010 -2.704092 -0.494207 0.481376
    30 4.751160 0.694376 -0.830474 -0.355477 -0.400777 0.965170
    31 1.688065 -0.000027 0.000002 -0.003699 -0.023828 1.750742
    32 1.336147 -0.000053 -0.000010 0.031019 -0.023257 -0.556490
    33 4.820515 0.509340 0.224865 -0.510607 -0.292925 1.253282
    34 1.827003 0.000068 0.000009 0.017445 0.036582 1.718911
    35 1.436577 -0.000008 0.000008 0.015152 0.001076 -0.800516
    36 3.992353 0.891087 1.827995 -0.594116 0.149995 1.423278
    37 1.405922 0.000023 -0.000009 -0.025806 -0.014365 1.938592
    38 1.175365 -0.000131 0.000003 0.102808 0.068186 0.942087
    39 4.526758 0.690458 1.120842 -0.544068 0.084007 1.616107
    40 1.744045 -0.000031 0.000000 -0.021982 -0.019856 1.247357
    41 1.368763 -0.000031 -0.000018 -0.105945 0.118388 -0.918494
    42 1.937355 1.013209 -0.909284 1.400829 0.754283 0.394736
    43 1.523453 -0.000034 0.000000 -0.005862 -0.080644 0.057752
    44 1.599281 0.000000 0.000009 0.036692 0.075057 -0.289143
    45 5.511808 -0.000002 0.000005 -0.688707 0.000004 0.000007
    46 0.196848 0.000001 -0.000002 -0.348225 0.000015 -0.000002
    47 0.000000 0.000000 0.000000 0.000000 0.000000 -1.570824
    48 -0.554869 -18.695210 -12.010728 -0.321620 -0.379943 1.895008
    49 3.202167 0.358525 -3.926612 0.514567 1.017367 1.816927
    50 -2.337103 -0.011782 -0.277389 0.000000 0.000000 0.000000
    51 0.359046 -0.011782 0.663456 0.000000 0.000000 0.000000
    52 -0.027572 0.000000 0.206380 0.000000 0.000000 0.000000
    53 2.994141 -0.011780 1.523438 0.000000 0.000000 0.000000
    54 -0.351061 -0.441276 -4.264374 0.000000 0.000000 0.000000
    55 -3.742209 -2.150413 -3.199270 -3.061991 0.998045 -2.357502
  time 1
    0 0.000000 7.449219 -27.500000 0.000000 0.000000 -0.000001
    1 -0.000002 0.000000 0.000000 1.570743 -1.567137 -1.570743
    2 4.269531 -4.839844 0.005783 0.000000 0.000000 -0.124848
    3 7.431250 1.496477 0.000002 0.000000 0.000000 0.245450
    4 5.278481 0.165541 0.000001 0.000000 0.000000 0.048511
    5 4.035156 -5.125000 0.982422 1.975864 1.159909 -1.298786
    6 -6.214486 -0.000006 -0.000026 3.152552 -0.837325 1.544986
    7 11.944885 -0.000001 -0.000002 -0.091364 -0.324288 1.175333
    8 10.620186 0.000000 0.000000 0.545258 0.347554 2.400895
    9 -4.751106 -0.694494 0.830577 -0.224695 -0.167273 0.428192
    10 -1.688072 0.000046 -0.000031 0.014612 -0.020008 0.807967
    11 -1.336140 0.000055 -0.000012 0.021168 -0.015777 1.194252
    12 -4.820496 -0.509460 -0.224760 -0.302219 -0.183891 1.370053
    13 -1.826988 -0.000069 0.000007 0.004242 0.040298 1.378845
    14 -1.436577 0.000004 0.000001 -0.054590 -0.055484 0.685661
    15 -3.992357 -0.891188 -1.827909 -0.497678 -0.049932 1.160559
    16 -1.405918 -0.000024 -0.000001 -0.016290 -0.024628 1.460204
    17 -1.175362 0.000125 -0.000021 0.049791 0.046300 0.725667
    18 -4.526751 -0.690573 -1.120744 -0.421689 -0.042636 1.411324
    19 -1.744041 0.000034 -0.000007 -0.026549 -0.013110 1.523316
    20 -1.368767 0.000023 0.000005 0.020850 0.048211 0.303430
    21 -1.874798 -0.935127 0.999174 1.578803 0.617232 0.627486
    22 -1.523453 0.000034 0.000030 0.107902 0.136623 0.772872
    23 -1.599281 0.000004 0.000013 0.011816 -0.041302 1.272320
    24 5.582031 0.115723 0.294922 2.708489 -0.055340 3.097439
    25 0.196846 -0.000002 0.000002 2.793407 0.000006 -3.141577
    26 2.839844 -12.078125 -1.466797 1.975862 1.159910 1.842803
    27 6.214489 0.000005 0.000019 0.444708 0.709499 -1.329384
    28 11.944893 -0.000032 -0.000194 -1.082607 -0.339591 -1.324568
    29 10.620171 0.000004 0.000010 -2.685935 -0.517001 0.472333
    30 4.751160 0.694376 -0.830474 -0.355477 -0.400777 0.965170
    31 1.688065 -0.000027 0.000002 -0.003699 -0.023828 1.750742
    32 1.336147 -0.000053 -0.000010 0.031019 -0.023257 -0.556490
    33 4.820515 0.509340 0.224865 -0.510607 -0.292925 1.253282
    34 1.827003 0.000068 0.000009 0.017445 0.036582 1.718911
    35 1.436577 -0.000008 0.000008 0.015152 0.001076 -0.800516
    36 3.992353 0.891087 1.827995 -0.594116 0.149995 1.423278
    37 1.405922 0.000023 -0.000009 -0.025806 -0.014365 1.938592
    38 1.175365 -0.000131 0.000003 0.102808 0.068186 0.942087
    39 4.526758 0.690458 1.120842 -0.544068 0.084007 1.616107
    40 1.744045 -0.000031 0.000000 -0.021982 -0.019856 1.247357
    41 1.368763 -0.000031 -0.000018 -0.105945 0.118388 -0.918494
    42 1.937355 1.013209 -0.909284 1.400829 0.754283 0.394736
    43 1.523453 -0.000034 0.000000 -0.005862 -0.080644 0.057752
    44 1.599281 0.000000 0.000009 0.036692 0.075057 -0.289143
    45 5.511808 -0.000002 0.000005 -0.688707 0.000004 0.000007
    46 0.196848 0.000001 -0.000002 -0.348225 0.000015 -0.000002
    47 0.000000 0.000000 0.000000 0.004039 0.000539 -1.570584
    48 -0.519711 -18.710835 -11.874005 -0.310207 -0.358693 1.911308
    49 3.202167 0.358525 -3.926612 0.514567 1.017367 1.816927
    50 -2.337103 -0.011782 -0.277389 0.000000 0.000000 0.000000
    51 0.359046 -0.011782 0.663456 0.000000 0.000000 0.000000
    52 -0.027572 0.000000 0.206380 0.000000 0.000000 0.000000
    53 2.994141 -0.011780 1.523438 0.000000 0.000000 0.000000
    54 -0.351061 -0.441276 -4.264374 0.000000 0.000000 0.000000
    55 -3.742209 -2.150413 -3.199270 -3.061991 0.998045 -2.357502
  time 2
    0 0.000000 7.449219 -27.500000 0.000000 0.000000 -0.000001
    1 -0.000002 0.000000 0.000000 1.570743 -1.567137 -1.570743
    2 4.269531 -4.839844 0.005783 0.000000 0.000000 -0.124848
    3 7.431250 1.496477 0.000002 0.000000 0.000000 0.245450
    4 5.278481 0.165541 0.000001 0.000000 0.000000 0.048511
    5 4.035156 -5.125000 0.982422 1.975864 1.159909 -1.298786
    6 -6.214486 -0.000006 -0.000026 3.180370 -0.826427 1.533142
    7 11.944885 -0.000001 -0.000002 -0.085249 -0.321796 1.156065
    8 10.620186 0.000000 0.000000 0.594635 0.355791 2.491654
    9 -4.751106 -0.694494 0.830577 -0.224695 -0.167273 0.428192
    10 -1.688072 0.000046 -0.000031 0.014612 -0.020008 0.807967
    11 -1.336140 0.000055 -0.000012 0.021168 -0.015777 1.194252
    12 -4.820496 -0.509460 -0.224760 -0.302219 -0.183891 1.370053
    13 -1.826988 -0.000069 0.000007 0.004242 0.040298 1.378845
    14 -1.436577 0.000004 0.000001 -0.054590 -0.055484 0.685661
    15 -3.992357 -0.891188 -1.827909 -0.497678 -0.049932 1.160559
    16 -1.405918 -0.000024 -0.000001 -0.016290 -0.024628 1.460204
    17 -1.175362 0.000125 -0.000021 0.049791 0.046300 0.725667
    18 -4.526751 -0.690573 -1.120744 -0.421689 -0.042636 1.411324
    19 -1.744041 0.000034 -0.000007 -0.026549 -0.013110 1.523316
    20 -1.368767 0.000023 0.000005 0.020850 0.048211 0.303430
    21 -1.874798 -0.935127 0.999174 1.578803 0.617232 0.627486
    22 -1.523453 0.000034 0.000030 0.107902 0.136623 0.772872
    23 -1.599281 0.000004 0.000013 0.011816 -0.041302 1.272320
    24 5.582031 0.115723 0.294922 2.708489 -0.055340 3.097439
    25 0.196846 -0.000002 0.000002 2.793407 0.000006 -3.141577
    26 2.839844 -12.078125 -1.466797 1.975862 1.159910 1.842803
    27 6.214489 0.000005 0.000019 0.383396 0.725152 -1.324287
    28 11.944893 -0.000032 -0.000194 -1.074666 -0.341371 -1.348287
    29 10.620171 0.000004 0.000010 -2.628740 -0.564500 0.449093
    30 4.751160 0.694376 -0.830474 -0.355477 -0.400777 0.965170
    31 1.688065 -0.000027 0.000002 -0.003699 -0.023828 1.750742
    32 1.336147 -0.000053 -0.000010 0.031019 -0.023257 -0.556490
    33 4.820515 0.509340 0.224865 -0.510607 -0.292925 1.253282
    34 1.827003 0.000068 0.000009 0.017445 0.036582 1.718911
    35 1.436577 -0.000008 0.000008 0.015152 0.001076 -0.800516
    36 3.992353 0.891087 1.827995 -0.594116 0.149995 1.423278
    37 1.405922 0.000023 -0.000009 -0.025806 -0.014365 1.938592
    38 1.175365 -0.000131 0.000003 0.102808 0.068186 0.942087
    39 4.526758 0.690458 1.120842 -0.544068 0.084007 1.616107
    40 1.744045 -0.000031 0.000000 -0.021982 -0.019856 1.247357
    41 1.368763 -0.000031 -0.000018 -0.105945 0.118388 -0.918494
    42 1.937355 1.013209 -0.909284 1.400815 0.754283 0.394736
    43 1.523453 -0.000034 0.000000 -0.005862 -0.080644 0.057752
    44 1.599281 0.000000 0.000009 0.036692 0.075057 -0.289143
    45 5.511808 -0.000002 0.000005 -0.688707 0.000004 0.000007
    46 0.196848 0.000001 -0.000002 -0.348225 0.000015 -0.000002
    47 0.000000 0.000000 0.000000 0.013662 0.001858 -1.570006
    48 -0.433771 -18.781150 -11.467743 -0.278823 -0.306995 1.945815
    49 3.202167 0.358525 -3.926612 0.514567 1.017367 1.816927
    50 -2.337103 -0.011782 -0.277389 0.000000 0.000000 0.000000
    51 0.359046 -0.011782 0.663456 0.000000 0.000000 0.000000
    52 -0.027572 0.000000 0.206380 0.000000 0.000000 0.000000
    53 2.994141 -0.011780 1.523438 0.000000 0.000000 0.000000
    54 -0.351061 -0.441276 -4.264374 0.000000 0.000000 0.000000
    55 -3.742209 -2.150413 -3.199270 -3.061991 0.998045 -2.357502
  time 3
    0 0.000000 7.449219 -27.500000 0.000000 0.000000 -0.000001
    1 -0.000002 0.000000 0.000000 1.570743 -1.567137 -1.570743
    2 4.269531 -4.839844 0.005783 0.000000 0.000000 -0.124848
    3 7.431250 1.496477 0.000002 0.000000 0.000000 0.245450
    4 5.278481 0.165541 0.000001 0.000000 0.000000 0.048511
    5 4.035156 -5.125000 0.982422 1.975864 1.159909 -1.298786
    6 -6.214486 -0.000006 -0.000026 3.232087 -0.805633 1.504775
    7 11.944885 -0.000001 -0.000002 -0.076076 -0.317817 1.126923
    8 10.620186 0.000000 0.000000 0.663562 0.362594 2.596199
    9 -4.751106 -0.694494 0.830577 -0.224695 -0.167273 0.428192
    10 -1.688072 0.000046 -0.000031 0.014612 -0.020008 0.807967
    11 -1.336140 0.000055 -0.000012 0.021168 -0.015777 1.194252
    12 -4.820496 -0.509460 -0.224760 -0.302219 -0.183891 1.370053
    13 -1.826988 -0.000069 0.000007 0.004242 0.040298 1.378880
    14 -1.436577 0.000004 0.000001 -0.054590 -0.055484 0.685661
    15 -3.992357 -0.891188 -1.827909 -0.497678 -0.049932 1.160559
    16 -1.405918 -0.000024 -0.000001 -0.016290 -0.024628 1.460204
    17 -1.175362 0.000125 -0.000021 0.049791 0.046300 0.725667
    18 -4.526751 -0.690573 -1.120744 -0.421689 -0.042636 1.411324
    19 -1.744041 0.000034 -0.000007 -0.026549 -0.013110 1.523316
    20 -1.368767 0.000023 0.000005 0.020850 0.048211 0.303430
    21 -1.874798 -0.935127 0.999174 1.578803 0.617232 0.627486
    22 -1.523453 0.000034 0.000030 0.107902 0.136623 0.772872
    23 -1.599281 0.000004 0.000013 0.011816 -0.041302 1.272320
    24 5.582031 0.115723 0.294922 2.708489 -0.055340 3.097439
    25 0.196846 -0.000002 0.000002 2.793407 0.000006 -3.141577
    26 2.839844 -12.078125 -1.466797 1.975862 1.159910 1.842803
    27 6.214489 0.000005 0.000019 0.275820 0.748428 -1.336984
    28 11.944893 -0.000032 -0.000194 -1.067004 -0.342925 -1.371175
    29 10.620171 0.000004 0.000010 -2.535413 -0.603956 0.418629
    30 4.751160 0.694376 -0.830474 -0.355477 -0.400777 0.965170
    31 1.688065 -0.000027 0.000002 -0.003699 -0.023828 1.750742
    32 1.336147 -0.000053 -0.000010 0.031019 -0.023257 -0.556490
    33 4.820515 0.509340 0.224865 -0.510607 -0.292925 1.253282
    34 1.827003 0.000068 0.000009 0.017445 0.036582 1.718911
    35 1.436577 -0.000008 0.000008 0.015152 0.001076 -0.800516
    36 3.992353 0.891087 1.827995 -0.594116 0.149995 1.423278
    37 1.405922 0.000023 -0.000009 -0.025806 -0.014365 1.938592
    38 1.175365 -0.000131 0.000003 0.102808 0.068186 0.942087
    39 4.526758 0.690458 1.120842 -0.544068 0.084007 1.616107
    40 1.744045 -0.000031 0.000000 -0.021982 -0.019856 1.247357
    41 1.368763 -0.000031 -0.000018 -0.105945 0.118388 -0.918494
    42 1.937355 1.013209 -0.909284 1.400829 0.754283 0.394736
    43 1.523453 -0.000034 0.000000 -0.005862 -0.080644 0.057752
    44 1.599281 0.000000 0.000009 0.036692 0.075057 -0.289143
    45 5.511808 -0.000002 0.000005 -0.688707 0.000004 0.000007
    46 0.196848 0.000001 -0.000002 -0.348225 0.000015 -0.000002
    47 0.000000 0.000000 0.000000 0.025156 0.003428 -1.569332
    48 -0.320487 -18.921779 -10.784128 -0.232655 -0.242642 1.977843
    49 3.202167 0.358525 -3.926612 0.514567 1.017367 1.816927
    50 -2.337103 -0.011782 -0.277389 0.000000 0.000000 0.000000
    51 0.359046 -0.011782 0.663456 0.000000 0.000000 0.000000
    52 -0.027572 0.000000 0.206380 0.000000 0.000000 0.000000
    53 2.994141 -0.011780 1.523438 0.000000 0.000000 0.000000
    54 -0.351061 -0.441276 -4.264374 0.000000 0.000000 0.000000
    55 -3.742209 -2.150413 -3.199270 -3.061991 0.998045 -2.357502
  time 4
    0 0.000000 7.449219 -27.500000 0.000000 0.000000 -0.000001
    1 -0.000002 0.000000 0.000000 1.570743 -1.567137 -1.570743
    2 4.269531 -4.839844 0.005783 0.000000 0.000000 -0.124848
    3 7.431250 1.496477 0.000002 0.000000 0.000000 0.245450
    4 5.278481 0.165541 0.000001 0.000000 0.000000 0.048511
    5 4.035156 -5.125000 0.982422 1.975864 1.159909 -1.298786
    6 -6.214486 -0.000006 -0.000026 3.305982 -0.772254 1.457878
    7 11.944885 -0.000001 -0.000002 -0.065166 -0.312651 1.091722
    8 10.620186 0.000000 0.000000 0.739674 0.368796 2.675647
    9 -4.751106 -0.694494 0.830577 -0.224695 -0.167273 0.428192
    10 -1.688072 0.000046 -0.000031 0.014612 -0.020008 0.807967
    11 -1.336140 0.000055 -0.000012 0.021168 -0.015777 1.194252
    12 -4.820496 -0.509460 -0.224760 -0.302219 -0.183891 1.370053
    13 -1.826988 -0.000069 0.000007 0.004242 0.040298 1.378845
    14 -1.436577 0.000004 0.000001 -0.054590 -0.055484 0.685661
    15 -3.992357 -0.891188 -1.827909 -0.497678 -0.049932 1.160559
    16 -1.405918 -0.000024 -0.000001 -0.016290 -0.024628 1.460204
    17 -1.175362 0.000125 -0.000021 0.049791 0.046300 0.725667
    18 -4.526751 -0.690573 -1.120744 -0.421689 -0.042636 1.411324
    19 -1.744041 0.000034 -0.000007 -0.026549 -0.013110 1.523316
    20 -1.368767 0.000023 0.000005 0.020850 0.048211 0.303430
    21 -1.874798 -0.935127 0.999174 1.578803 0.617232 0.627486
    22 -1.523453 0.000034 0.000030 0.107902 0.136623 0.772872
    23 -1.599281 0.000004 0.000013 0.011816 -0.041302 1.272320
    24 5.582031 0.115723 0.294922 2.708489 -0.055340 3.097439
    25 0.196846 -0.000002 0.000002 2.793407 0.000006 -3.141577
    26 2.839844 -12.078125 -1.466797 1.975862 1.159910 1.842803
    27 6.214489 0.000005 0.000019 0.122653 0.766554 -1.388883
    28 11.944893 -0.000032 -0.000194 -1.065576 -0.343197 -1.375393
    29 10.620171 0.000004 0.000010 -2.427500 -0.606444 0.398218
    30 4.751160 0.694376 -0.830474 -0.355477 -0.400777 0.965170
    31 1.688065 -0.000027 0.000002 -0.003699 -0.023828 1.750742
    32 1.336147 -0.000053 -0.000010 0.031019 -0.023257 -0.556490
    33 4.820515 0.509340 0.224865 -0.510607 -0.292925 1.253282
    34 1.827003 0.000068 0.000009 0.017445 0.036582 1.718911
    35 1.436577 -0.000008 0.000008 0.015152 0.001076 -0.800516
    36 3.992353 0.891087 1.827995 -0.594116 0.149995 1.423278
    37 1.405922 0.000023 -0.000009 -0.025806 -0.014365 1.938592
    38 1.175365 -0.000131 0.000003 0.102808 0.068186 0.942087
    39 4.526758 0.690458 1.120842 -0.544068 0.084007 1.616107
    40 1.744045 -0.000031 0.000000 -0.021982 -0.019856 1.247357
    41 1.368763 -0.000031 -0.000018 -0.105945 0.118388 -0.918494
    42 1.937355 1.013209 -0.909284 1.400829 0.754283 0.394736
    43 1.523453 -0.000034 0.000000 -0.005862 -0.080644 0.057752
    44 1.599281 0.000000 0.000009 0.036692 0.075057 -0.289143
    45 5.511808 -0.000002 0.000005 -0.688707 0.000004 0.000007
    46 0.196848 0.000001 -0.000002 -0.348225 0.000015 -0.000002
    47 0.000000 0.000000 0.000000 0.034791 0.004734 -1.568803
    48 -0.207202 -19.171787 -9.827067 -0.179744 -0.181360 1.986231
    49 3.202167 0.358525 -3.926612 0.514567 1.017367 1.816927
    50 -2.337103 -0.011782 -0.277389 0.000000 0.000000 0.000000
    51 0.359046 -0.011782 0.663456 0.000000 0.000000 0.000000
    52 -0.027572 0.000000 0.206380 0.000000 0.000000 0.000000
    53 2.994141 -0.011780 1.523438 0.000000 0.000000 0.000000
    54 -0.351061 -0.441276 -4.264374 0.000000 0.000000 0.000000
    55 -3.742209 -2.150413 -3.199270 -3.061991 0.998045 -2.357502
  time 5
    0 0.000000 7.449219 -27.500000 0.000000 0.000000 -0.000001
    1 -0.000002 0.000000 0.000000 1.570743 -1.567137 -1.570743
    2 4.269531 -4.839844 0.005783 0.000000 0.000000 -0.124848
    3 7.431250 1.496477 0.000002 0.000000 0.000000 0.245450
    4 5.278481 0.165541 0.000001 0.000000 0.000000 0.048511
    5 4.035156 -5.125000 0.982422 1.975864 1.159909 -1.298786
    6 -6.214486 -0.000006 -0.000026 3.383891 -0.730621 1.406014
    7 11.944885 -0.000001 -0.000002 -0.059655 -0.309871 1.073679
    8 10.620186 0.000000 0.000000 0.813197 0.382448 2.694117
    9 -4.751106 -0.694494 0.830577 -0.224695 -0.167273 0.428192
    10 -1.688072 0.000046 -0.000031 0.014612 -0.020008 0.807967
    11 -1.336140 0.000055 -0.000012 0.021168 -0.015777 1.194252
    12 -4.820496 -0.509460 -0.224760 -0.302219 -0.183891 1.370053
    13 -1.826988 -0.000069 0.000007 0.004242 0.040298 1.378845
    14 -1.436577 0.000004 0.000001 -0.054590 -0.055484 0.685661
    15 -3.992357 -0.891188 -1.827909 -0.497678 -0.049932 1.160559
    16 -1.405918 -0.000024 -0.000001 -0.016290 -0.024628 1.460204
    17 -1.175362 0.000125 -0.000021 0.049791 0.046300 0.725667
    18 -4.526751 -0.690573 -1.120744 -0.421689 -0.042636 1.411324
    19 -1.744041 0.000034 -0.000007 -0.026549 -0.013110 1.523316
    20 -1.368767 0.000023 0.000005 0.020850 0.048211 0.303430
    21 -1.874798 -0.935127 0.999174 1.578803 0.617232 0.627486
    22 -1.523453 0.000034 0.000030 0.107902 0.136623 0.772872
    23 -1.599281 0.000004 0.000013 0.011816 -0.041302 1.272320
    24 5.582031 0.115723 0.294922 2.708489 -0.055340 3.097439
    25 0.196846 -0.000002 0.000002 2.793407 0.000006 -3.141577
    26 2.839844 -12.078125 -1.466797 1.975862 1.159910 1.842803
    27 6.214489 0.000005 0.000019 -0.042418 0.758965 -1.474701
    28 11.944893 -0.000032 -0.000194 -1.069894 -0.342367 -1.362601
    29 10.620171 0.000004 0.000010 -2.348880 -0.569832 0.411758
    30 4.751160 0.694376 -0.830474 -0.355477 -0.400777 0.965170
    31 1.688065 -0.000027 0.000002 -0.003699 -0.023828 1.750742
    32 1.336147 -0.000053 -0.000010 0.031019 -0.023257 -0.556490
    33 4.820515 0.509340 0.224865 -0.510607 -0.292925 1.253282
    34 1.827003 0.000068 0.000009 0.017445 0.036582 1.718911
    35 1.436577 -0.000008 0.000008 0.015152 0.001076 -0.800516
    36 3.992353 0.891087 1.827995 -0.594116 0.149995 1.423278
    37 1.405922 0.000023 -0.000009 -0.025806 -0.014365 1.938592
    38 1.175365 -0.000131 0.000003 0.102808 0.068186 0.942087
    39 4.526758 0.690458 1.120842 -0.544068 0.084007 1.616107
    40 1.744045 -0.000031 0.000000 -0.021982 -0.019856 1.247357
    41 1.368763 -0.000031 -0.000018 -0.105945 0.118388 -0.918494
    42 1.937355 1.013209 -0.909284 1.400829 0.754283 0.394736
    43 1.523453 -0.000034 0.000000 -0.005862 -0.080644 0.057752
    44 1.599281 0.000000 0.000009 0.036692 0.075057 -0.289143
    45 5.511808 -0.000002 0.000005 -0.688707 0.000004 0.000007
    46 0.196848 0.000001 -0.000002 -0.348225 0.000015 -0.000002
    47 0.000000 0.000000 0.000000 0.038830 0.005285 -1.568562
    48 -0.113449 -19.413982 -8.608280 -0.129218 -0.132826 1.956014
    49 3.202167 0.358525 -3.926612 0.514567 1.017367 1.816927
    50 -2.337103 -0.011782 -0.277389 0.000000 0.000000 0.000000
    51 0.359046 -0.011782 0.663456 0.000000 0.000000 0.000000
    52 -0.027572 0.000000 0.206380 0.000000 0.000000 0.000000
    53 2.994141 -0.011780 1.523438 0.000000 0.000000 0.000000
    54 -0.351061 -0.441276 -4.264374 0.000000 0.000000 0.000000
    55 -3.742209 -2.150413 -3.199270 -3.061991 0.998045 -2.357502
  time 6
    0 0.000000 7.449219 -27.500000 0.000000 0.000000 -0.000001
    1 -0.000002 0.000000 0.000000 1.570743 -1.567137 -1.570743
    2 4.269531 -4.839844 0.005783 0.000000 0.000000 -0.124848
    3 7.431250 1.496477 0.000002 0.000000 0.000000 0.245450
    4 5.278481 0.165541 0.000001 0.000000 0.000000 0.048511
    5 4.035156 -5.125000 0.982422 1.975864 1.159909 -1.298786
    6 -6.214486 -0.000006 -0.000026 3.452146 -0.687438 1.359882
    7 11.944885 -0.000001 -0.000002 -0.062335 -0.311237 1.082463
    8 10.620186 0.000000 0.000000 0.882291 0.407856 2.657530
    9 -4.751106 -0.694494 0.830577 -0.224695 -0.167273 0.428192
    10 -1.688072 0.000046 -0.000031 0.014612 -0.020008 0.807967
    11 -1.336140 0.000055 -0.000012 0.021168 -0.015777 1.194252
    12 -4.820496 -0.509460 -0.224760 -0.302219 -0.183891 1.370053
    13 -1.826988 -0.000069 0.000007 0.004242 0.040298 1.378845
    14 -1.436577 0.000004 0.000001 -0.054590 -0.055484 0.685661
    15 -3.992357 -0.891188 -1.827909 -0.497678 -0.049932 1.160559
    16 -1.405918 -0.000024 -0.000001 -0.016290 -0.024628 1.460204
    17 -1.175362 0.000125 -0.000021 0.049791 0.046300 0.725667
    18 -4.526751 -0.690573 -1.120744 -0.421689 -0.042636 1.411324
    19 -1.744041 0.000034 -0.000007 -0.026549 -0.013110 1.523316
    20 -1.368767 0.000023 0.000005 0.020850 0.048211 0.303430
    21 -1.874798 -0.935127 0.999174 1.578803 0.617232 0.627486
    22 -1.523453 0.000034 0.000030 0.107902 0.136623 0.772872
    23 -1.599281 0.000004 0.000013 0.011816 -0.041302 1.272320
    24 5.582031 0.115723 0.294922 2.708489 -0.055340 3.097439
    25 0.196846 -0.000002 0.000002 2.793407 0.000006 -3.141577
    26 2.839844 -12.078125 -1.466797 1.975862 1.159910 1.842803
    27 6.214489 0.000005 0.000019 -0.178217 0.720781 -1.565246
    28 11.944893 -0.000032 -0.000194 -1.075955 -0.341100 -1.344553
    29 10.620171 0.000004 0.000010 -2.317649 -0.514202 0.455509
    30 4.751160 0.694376 -0.830474 -0.355477 -0.400777 0.965170
    31 1.688065 -0.000027 0.000002 -0.003699 -0.023828 1.750742
    32 1.336147 -0.000053 -0.000010 0.031019 -0.023257 -0.556490
    33 4.820515 0.509340 0.224865 -0.510607 -0.292925 1.253282
    34 1.827003 0.000068 0.000009 0.017445 0.036582 1.718911
    35 1.436577 -0.000008 0.000008 0.015152 0.001076 -0.800516
    36 3.992353 0.891087 1.827995 -0.594116 0.149995 1.423278
    37 1.405922 0.000023 -0.000009 -0.025806 -0.014365 1.938592
    38 1.175365 -0.000131 0.000003 0.102808 0.068186 0.942087
    39 4.526758 0.690458 1.120842 -0.544068 0.084007 1.616107
    40 1.744045 -0.000031 0.000000 -0.021982 -0.019856 1.247357
    41 1.368763 -0.000031 -0.000018 -0.105945 0.118388 -0.918494
    42 1.937355 1.013209 -0.909284 1.400815 0.754283 0.394736
    43 1.523453 -0.000034 0.000000 -0.005862 -0.080644 0.057752
    44 1.599281 0.000000 0.000009 0.036692 0.075057 -0.289143
    45 5.511808 -0.000002 0.000005 -0.688707 0.000004 0.000007
    46 0.196848 0.000001 -0.000002 -0.348225 0.000015 -0.000002
    47 0.000000 0.000000 0.000000 0.037739 0.005213 -1.568755
    48 -0.039228 -19.527266 -7.237145 -0.085125 -0.094770 1.895103
    49 3.202167 0.358525 -3.926612 0.514567 1.017367 1.816927
    50 -2.337103 -0.011782 -0.277389 0.000000 0.000000 0.000000
    51 0.359046 -0.011782 0.663456 0.000000 0.000000 0.000000
    52 -0.027572 0.000000 0.206380 0.000000 0.000000 0.000000
    53 2.994141 -0.011780 1.523438 0.000000 0.000000 0.000000
    54 -0.351061 -0.441276 -4.264374 0.000000 0.000000 0.000000
    55 -3.742209 -2.150413 -3.199270 -3.061991 0.998045 -2.357502
  time 7
    0 0.000000 7.449219 -27.500000 0.000000 0.000000 -0.000001
    1 -0.000002 0.000000 0.000000 1.570743 -1.567137 -1.570743
    2 4.269531 -4.839844 0.005783 0.000000 0.000000 -0.124848
    3 7.431250 1.496477 0.000002 0.000000 0.000000 0.245450
    4 5.278481 0.165541 0.000001 0.000000 0.000000 0.048511
    5 4.035156 -5.125000 0.982422 1.975864 1.159909 -1.298786
    6 -6.214486 -0.000006 -0.000026 3.511032 -0.642705 1.316710
    7 11.944885 -0.000001 -0.000002 -0.068205 -0.314137 1.101595
    8 10.620186 0.000000 0.000000 0.946038 0.444833 2.590455
    9 -4.751106 -0.694494 0.830577 -0.224695 -0.167273 0.428192
    10 -1.688072 0.000046 -0.000031 0.014612 -0.020008 0.807967
    11 -1.336140 0.000055 -0.000012 0.021168 -0.015777 1.194252
    12 -4.820496 -0.509460 -0.224760 -0.302219 -0.183891 1.370053
    13 -1.826988 -0.000069 0.000007 0.004242 0.040298 1.378845
    14 -1.436577 0.000004 0.000001 -0.054590 -0.055484 0.685661
    15 -3.992357 -0.891188 -1.827909 -0.497678 -0.049932 1.160559
    16 -1.405918 -0.000024 -0.000001 -0.016290 -0.024628 1.460204
    17 -1.175362 0.000125 -0.000021 0.049791 0.046300 0.725667
    18 -4.526751 -0.690573 -1.120744 -0.421689 -0.042636 1.411324
    19 -1.744041 0.000034 -0.000007 -0.026549 -0.013110 1.523316
    20 -1.368767 0.000023 0.000005 0.020850 0.048211 0.303430
    21 -1.874798 -0.935127 0.999174 1.578803 0.617232 0.627486
    22 -1.523453 0.000034 0.000030 0.107902 0.136623 0.772872
    23 -1.599281 0.000004 0.000013 0.011816 -0.041302 1.272320
    24 5.582031 0.115723 0.294922 2.708489 -0.055340 3.097439
    25 0.196846 -0.000002 0.000002 2.793407 0.000006 -3.141577
    26 2.839844 -12.078125 -1.466797 1.975862 1.159910 1.842803
    27 6.214489 0.000005 0.000019 -0.275462 0.660643 -1.646524
    28 11.944893 -0.000032 -0.000194 -1.084557 -0.339124 -1.318691
    29 10.620171 0.000004 0.000010 -2.321523 -0.446841 0.511133
    30 4.751160 0.694376 -0.830474 -0.355477 -0.400777 0.965170
    31 1.688065 -0.000027 0.000002 -0.003699 -0.023828 1.750742
    32 1.336147 -0.000053 -0.000010 0.031019 -0.023257 -0.556490
    33 4.820515 0.509340 0.224865 -0.510607 -0.292925 1.253282
    34 1.827003 0.000068 0.000009 0.017445 0.036582 1.718911
    35 1.436577 -0.000008 0.000008 0.015152 0.001076 -0.800516
    36 3.992353 0.891087 1.827995 -0.594116 0.149995 1.423278
    37 1.405922 0.000023 -0.000009 -0.025806 -0.014365 1.938592
    38 1.175365 -0.000131 0.000003 0.102808 0.068186 0.942087
    39 4.526758 0.690458 1.120842 -0.544068 0.084007 1.616107
    40 1.744045 -0.000031 0.000000 -0.021982 -0.019856 1.247357
    41 1.368763 -0.000031 -0.000018 -0.105945 0.118388 -0.918494
    42 1.937355 1.013209 -0.909284 1.400829 0.754283 0.394736
    43 1.523453 -0.000034 0.000000 -0.005862 -0.080644 0.057752
    44 1.599281 0.000000 0.000009 0.036692 0.075057 -0.289143
    45 5.511808 -0.000002 0.000005 -0.688707 0.000004 0.000007
    46 0.196848 0.000001 -0.000002 -0.348225 0.000015 -0.000002
    47 0.000000 0.000000 0.000000 0.034791 0.004986 -1.569332
    48 0.015461 -19.535079 -5.834758 -0.048814 -0.064198 1.815604
    49 3.202167 0.358525 -3.926612 0.514567 1.017367 1.816927
    50 -2.337103 -0.011782 -0.277389 0.000000 0.000000 0.000000
    51 0.359046 -0.011782 0.663456 0.000000 0.000000 0.000000
    52 -0.027572 0.000000 0.206380 0.000000 0.000000 0.000000
    53 2.994141 -0.011780 1.523438 0.000000 0.000000 0.000000
    54 -0.351061 -0.441276 -4.264374 0.000000 0.000000 0.000000
    55 -3.742209 -2.150413 -3.199270 -3.061991 0.998045 -2.357502
  time 8
    0 0.000000 7.449219 -27.500000 0.000000 0.000000 -0.000001
    1 -0.000002 0.000000 0.000000 1.570743 -1.567137 -1.570743
    2 4.269531 -4.839844 0.005783 0.000000 0.000000 -0.124848
    3 7.431250 1.496477 0.000002 0.000000 0.000000 0.245450
    4 5.278481 0.165541 0.000001 0.000000 0.000000 0.048511
    5 4.035156 -5.125000 0.982422 1.975864 1.159909 -1.298786
    6 -6.214486 -0.000006 -0.000026 3.559308 -0.598108 1.276976
    7 11.944885 -0.000001 -0.000002 -0.074056 -0.316894 1.120387
    8 10.620186 0.000000 0.000000 1.001932 0.489353 2.513394
    9 -4.751106 -0.694494 0.830577 -0.224695 -0.167273 0.428192
    10 -1.688072 0.000046 -0.000031 0.014612 -0.020008 0.807967
    11 -1.336140 0.000055 -0.000012 0.021168 -0.015777 1.194252
    12 -4.820496 -0.509460 -0.224760 -0.302219 -0.183891 1.370053
    13 -1.826988 -0.000069 0.000007 0.004242 0.040298 1.378880
    14 -1.436577 0.000004 0.000001 -0.054590 -0.055484 0.685661
    15 -3.992357 -0.891188 -1.827909 -0.497678 -0.049932 1.160559
    16 -1.405918 -0.000024 -0.000001 -0.016290 -0.024628 1.460204
    17 -1.175362 0.000125 -0.000021 0.049791 0.046300 0.725667
    18 -4.526751 -0.690573 -1.120744 -0.421689 -0.042636 1.411324
    19 -1.744041 0.000034 -0.000007 -0.026549 -0.013110 1.523316
    20 -1.368767 0.000023 0.000005 0.020850 0.048211 0.303430
    21 -1.874798 -0.935127 0.999174 1.578803 0.617232 0.627486
    22 -1.523453 0.000034 0.000030 0.107902 0.136623 0.772872
    23 -1.599281 0.000004 0.000013 0.011816 -0.041302 1.272320
    24 5.582031 0.115723 0.294922 2.708489 -0.055340 3.097439
    25 0.196846 -0.000002 0.000002 2.793407 0.000006 -3.141577
    26 2.839844 -12.078125 -1.466797 1.975862 1.159910 1.842803
    27 6.214489 0.000005 0.000019 -0.335352 0.591119 -1.711675
    28 11.944893 -0.000032 -0.000194 -1.094692 -0.336499 -1.288127
    29 10.620171 0.000004 0.000010 -2.346035 -0.374771 0.563423
    30 4.751160 0.694376 -0.830474 -0.355477 -0.400777 0.965170
    31 1.688065 -0.000027 0.000002 -0.003699 -0.023828 1.750742
    32 1.336147 -0.000053 -0.000010 0.031019 -0.023257 -0.556490
    33 4.820515 0.509340 0.224865 -0.510607 -0.292925 1.253282
    34 1.827003 0.000068 0.000009 0.017445 0.036582 1.718911
    35 1.436577 -0.000008 0.000008 0.015152 0.001076 -0.800516
    36 3.992353 0.891087 1.827995 -0.594116 0.149995 1.423278
    37 1.405922 0.000023 -0.000009 -0.025806 -0.014365 1.938592
    38 1.175365 -0.000131 0.000003 0.102808 0.068186 0.942087
    39 4.526758 0.690458 1.120842 -0.544068 0.084007 1.616107
    40 1.744045 -0.000031 0.000000 -0.021982 -0.019856 1.247357
    41 1.368763 -0.000031 -0.000018 -0.105945 0.118388 -0.918494
    42 1.937355 1.013209 -0.909284 1.400829 0.754283 0.394736
    43 1.523453 -0.000034 0.000000 -0.005862 -0.080644 0.057752
    44 1.599281 0.000000 0.000009 0.036692 0.075057 -0.289143
    45 5.511808 -0.000002 0.000005 -0.688707 0.000004 0.000007
    46 0.196848 0.000001 -0.000002 -0.348225 0.000015 -0.000002
    47 0.000000 0.000000 0.000000 0.030441 0.004602 -1.570054
    48 0.054525 -19.460858 -4.514405 -0.020905 -0.039815 1.730100
    49 3.202167 0.358525 -3.926612 0.514567 1.017367 1.816927
    50 -2.337103 -0.011782 -0.277389 0.000000 0.000000 0.000000
    51 0.359046 -0.011782 0.663456 0.000000 0.000000 0.000000
    52 -0.027572 0.000000 0.206380 0.000000 0.000000 0.000000
    53 2.994141 -0.011780 1.523438 0.000000 0.000000 0.000000
    54 -0.351061 -0.441276 -4.264374 0.000000 0.000000 0.000000
    55 -3.742209 -2.150413 -3.199270 -3.061991 0.998045 -2.357502
  time 9
    0 0.000000 7.449219 -27.500000 0.000000 0.000000 -0.000001
    1 -0.000002 0.000000 0.000000 1.570743 -1.567137 -1.570743
    2 4.269531 -4.839844 0.005783 0.000000 0.000000 -0.124848
    3 7.431250 1.496477 0.000002 0.000000 0.000000 0.245450
    4 5.278481 0.165541 0.000001 0.000000 0.000000 0.048511
    5 4.035156 -5.125000 0.982422 1.975864 1.159909 -1.298786
    6 -6.214486 -0.000006 -0.000026 3.595347 -0.558436 1.243738
    7 11.944885 -0.000001 -0.000002 -0.078813 -0.319039 1.135638
    8 10.620186 0.000000 0.000000 1.046547 0.533781 2.441812
    9 -4.751106 -0.694494 0.830577 -0.224695 -0.167273 0.428192
    10 -1.688072 0.000046 -0.000031 0.014612 -0.020008 0.807967
    11 -1.336140 0.000055 -0.000012 0.021168 -0.015777 1.194252
    12 -4.820496 -0.509460 -0.224760 -0.302219 -0.183891 1.370053
    13 -1.826988 -0.000069 0.000007 0.004242 0.040298 1.378845
    14 -1.436577 0.000004 0.000001 -0.054590 -0.055484 0.685661
    15 -3.992357 -0.891188 -1.827909 -0.497678 -0.049932 1.160559
    16 -1.405918 -0.000024 -0.000001 -0.016290 -0.024628 1.460204
    17 -1.175362 0.000125 -0.000021 0.049791 0.046300 0.725667
    18 -4.526751 -0.690573 -1.120744 -0.421689 -0.042636 1.411324
    19 -1.744041 0.000034 -0.000007 -0.026549 -0.013110 1.523316
    20 -1.368767 0.000023 0.000005 0.020850 0.048211 0.303430
    21 -1.874798 -0.935127 0.999174 1.578803 0.617232 0.627486
    22 -1.523453 0.000034 0.000030 0.107902 0.136623 0.772872
    23 -1.599281 0.000004 0.000013 0.011816 -0.041302 1.272320
    24 5.582031 0.115723 0.294922 2.708489 -0.055340 3.097439
    25 0.196846 -0.000002 0.000002 2.793407 0.000006 -3.141577
    26 2.839844 -12.078125 -1.466797 1.975862 1.159910 1.842803
    27 6.214489 0.000005 0.000019 -0.363050 0.525052 -1.757550
    28 11.944893 -0.000032 -0.000194 -1.103817 -0.333874 -1.260398
    29 10.620171 0.000004 0.000010 -2.380291 -0.307677 0.603436
    30 4.751160 0.694376 -0.830474 -0.355477 -0.400777 0.965170
    31 1.688065 -0.000027 0.000002 -0.003699 -0.023828 1.750742
    32 1.336147 -0.000053 -0.000010 0.031019 -0.023257 -0.556490
    33 4.820515 0.509340 0.224865 -0.510607 -0.292925 1.253282
    34 1.827003 0.000068 0.000009 0.017445 0.036582 1.718911
    35 1.436577 -0.000008 0.000008 0.015152 0.001076 -0.800516
    36 3.992353 0.891087 1.827995 -0.594116 0.149995 1.423278
    37 1.405922 0.000023 -0.000009 -0.025806 -0.014365 1.938592
    38 1.175365 -0.000131 0.000003 0.102808 0.068186 0.942087
    39 4.526758 0.690458 1.120842 -0.544068 0.084007 1.616107
    40 1.744045 -0.000031 0.000000 -0.021982 -0.019856 1.247357
    41 1.368763 -0.000031 -0.000018 -0.105945 0.118388 -0.918494
    42 1.937355 1.013209 -0.909284 1.400815 0.754283 0.394736
    43 1.523453 -0.000034 0.000000 -0.005862 -0.080644 0.057752
    44 1.599281 0.000000 0.000009 0.036692 0.075057 -0.289143
    45 5.511808 -0.000002 0.000005 -0.688707 0.000004 0.000007
    46 0.196848 0.000001 -0.000002 -0.348225 0.000015 -0.000002
    47 0.000000 0.000000 0.000000 0.025156 0.004087 -1.570776
    48 0.085776 -19.335854 -3.408903 -0.001452 -0.021435 1.651936
    49 3.202167 0.358525 -3.926612 0.514567 1.017367 1.816927
    50 -2.337103 -0.011782 -0.277389 0.000000 0.000000 0.000000
    51 0.359046 -0.011782 0.663456 0.000000 0.000000 0.000000
    52 -0.027572 0.000000 0.206380 0.000000 0.000000 0.000000
    53 2.994141 -0.011780 1.523438 0.000000 0.000000 0.000000
    54 -0.351061 -0.441276 -4.264374 0.000000 0.000000 0.000000
    55 -3.742209 -2.150413 -3.199270 -3.061991 0.998045 -2.357502
  time 10
    0 0.000000 7.449219 -27.500000 0.000000 0.000000 -0.000001
    1 -0.000002 0.000000 0.000000 1.570743 -1.567137 -1.570743
    2 4.269531 -4.839844 0.005783 0.000000 0.000000 -0.124848
    3 7.431250 1.496477 0.000002 0.000000 0.000000 0.245450
    4 5.278481 0.165541 0.000001 0.000000 0.000000 0.048511
    5 4.035156 -5.125000 0.982422 1.975864 1.159909 -1.298786
    6 -6.214486 -0.000006 -0.000026 3.617334 -0.530802 1.221483
    7 11.944885 -0.000001 -0.000002 -0.083324 -0.320981 1.149937
    8 10.620186 0.000000 0.000000 1.076457 0.568398 2.386667
    9 -4.751106 -0.694494 0.830577 -0.224695 -0.167273 0.428192
    10 -1.688072 0.000046 -0.000031 0.014612 -0.020008 0.807967
    11 -1.336140 0.000055 -0.000012 0.021168 -0.015777 1.194252
    12 -4.820496 -0.509460 -0.224760 -0.302219 -0.183891 1.370053
    13 -1.826988 -0.000069 0.000007 0.004242 0.040298 1.378880
    14 -1.436577 0.000004 0.000001 -0.054590 -0.055484 0.685661
    15 -3.992357 -0.891188 -1.827909 -0.497678 -0.049932 1.160559
    16 -1.405918 -0.000024 -0.000001 -0.016290 -0.024628 1.460204
    17 -1.175362 0.000125 -0.000021 0.049791 0.046300 0.725667
    18 -4.526751 -0.690573 -1.120744 -0.421689 -0.042636 1.411324
    19 -1.744041 0.000034 -0.000007 -0.026549 -0.013110 1.523316
    20 -1.368767 0.000023 0.000005 0.020850 0.048211 0.303430
    21 -1.874798 -0.935127 0.999174 1.578803 0.617232 0.627486
    22 -1.523453 0.000034 0.000030 0.107902 0.136623 0.772872
    23 -1.599281 0.000004 0.000013 0.011816 -0.041302 1.272320
    24 5.582031 0.115723 0.294922 2.708489 -0.055340 3.097439
    25 0.196846 -0.000002 0.000002 2.793407 0.000006 -3.141577
    26 2.839844 -12.078125 -1.466797 1.975862 1.159910 1.842803
    27 6.214489 0.000005 0.000019 -0.363575 0.473858 -1.781090
    28 11.944893 -0.000032 -0.000194 -1.108693 -0.332350 -1.245461
    29 10.620171 0.000004 0.000010 -2.417876 -0.258090 0.627433
    30 4.751160 0.694376 -0.830474 -0.355477 -0.400777 0.965170
    31 1.688065 -0.000027 0.000002 -0.003699 -0.023828 1.750742
    32 1.336147 -0.000053 -0.000010 0.031019 -0.023257 -0.556490
    33 4.820515 0.509340 0.224865 -0.510607 -0.292925 1.253282
    34 1.827003 0.000068 0.000009 0.017445 0.036582 1.718911
    35 1.436577 -0.000008 0.000008 0.015152 0.001076 -0.800516
    36 3.992353 0.891087 1.827995 -0.594116 0.149995 1.423278
    37 1.405922 0.000023 -0.000009 -0.025806 -0.014365 1.938592
    38 1.175365 -0.000131 0.000003 0.102808 0.068186 0.942087
    39 4.526758 0.690458 1.120842 -0.544068 0.084007 1.616107
    40 1.744045 -0.000031 0.000000 -0.021982 -0.019856 1.247357
    41 1.368763 -0.000031 -0.000018 -0.105945 0.118388 -0.918494
    42 1.937355 1.013209 -0.909284 1.400829 0.754283 0.394736
    43 1.523453 -0.000034 0.000000 -0.005862 -0.080644 0.057752
    44 1.599281 0.000000 0.000009 0.036692 0.075057 -0.289143
    45 5.511808 -0.000002 0.000005 -0.688707 0.000004 0.000007
    46 0.196848 0.000001 -0.000002 -0.348225 0.000015 -0.000002
    47 0.000000 0.000000 0.000000 0.019415 0.003428 -1.571306
    48 0.101401 -19.179600 -2.635442 0.009908 -0.009306 1.594838
    49 3.202167 0.358525 -3.926612 0.514567 1.017367 1.816927
    50 -2.337103 -0.011782 -0.277389 0.000000 0.000000 0.000000
    51 0.359046 -0.011782 0.663456 0.000000 0.000000 0.000000
    52 -0.027572 0.000000 0.206380 0.000000 0.000000 0.000000
    53 2.994141 -0.011780 1.523438 0.000000 0.000000 0.000000
    54 -0.351061 -0.441276 -4.264374 0.000000 0.000000 0.000000
    55 -3.742209 -2.150413 -3.199270 -3.061991 0.998045 -2.357502
  time 11
    0 0.000000 7.449219 -27.500000 0.000000 0.000000 -0.000001
    1 -0.000002 0.000000 0.000000 1.570743 -1.567137 -1.570743
    2 4.269531 -4.839844 0.005783 0.000000 0.000000 -0.124848
    3 7.431250 1.496477 0.000002 0.000000 0.000000 0.245450
    4 5.278481 0.165541 0.000001 0.000000 0.000000 0.048511
    5 4.035156 -5.125000 0.982422 1.975864 1.159909 -1.298786
    6 -6.214486 -0.000006 -0.000026 3.623452 -0.523233 1.215084
    7 11.944885 -0.000001 -0.000002 -0.089156 -0.323401 1.168388
    8 10.620186 0.000000 0.000000 1.088906 0.583022 2.357769
    9 -4.751106 -0.694494 0.830577 -0.224695 -0.167273 0.428192
    10 -1.688072 0.000046 -0.000031 0.014612 -0.020008 0.807967
    11 -1.336140 0.000055 -0.000012 0.021168 -0.015777 1.194252
    12 -4.820496 -0.509460 -0.224760 -0.302219 -0.183891 1.370053
    13 -1.826988 -0.000069 0.000007 0.004242 0.040298 1.378845
    14 -1.436577 0.000004 0.000001 -0.054590 -0.055484 0.685661
    15 -3.992357 -0.891188 -1.827909 -0.497678 -0.049932 1.160559
    16 -1.405918 -0.000024 -0.000001 -0.016290 -0.024628 1.460204
    17 -1.175362 0.000125 -0.000021 0.049791 0.046300 0.725667
    18 -4.526751 -0.690573 -1.120744 -0.421689 -0.042636 1.411324
    19 -1.744041 0.000034 -0.000007 -0.026549 -0.013110 1.523316
    20 -1.368767 0.000023 0.000005 0.020850 0.048211 0.303430
    21 -1.874798 -0.935127 0.999174 1.578803 0.617232 0.627486
    22 -1.523453 0.000034 0.000030 0.107902 0.136623 0.772872
    23 -1.599281 0.000004 0.000013 0.011816 -0.041302 1.272320
    24 5.582031 0.115723 0.294922 2.708489 -0.055340 3.097439
    25 0.196846 -0.000002 0.000002 2.793407 0.000006 -3.141577
    26 2.839844 -12.078125 -1.466797 1.975862 1.159910 1.842803
    27 6.214489 0.000005 0.000019 -0.338571 0.446346 -1.777569
    28 11.944893 -0.000032 -0.000194 -1.106220 -0.333134 -1.253137
    29 10.620171 0.000004 0.000010 -2.455885 -0.239651 0.633850
    30 4.751160 0.694376 -0.830474 -0.355477 -0.400777 0.965170
    31 1.688065 -0.000027 0.000002 -0.003699 -0.023828 1.750742
    32 1.336147 -0.000053 -0.000010 0.031019 -0.023257 -0.556490
    33 4.820515 0.509340 0.224865 -0.510607 -0.292925 1.253282
    34 1.827003 0.000068 0.000009 0.017445 0.036582 1.718911
    35 1.436577 -0.000008 0.000008 0.015152 0.001076 -0.800516
    36 3.992353 0.891087 1.827995 -0.594116 0.149995 1.423278
    37 1.405922 0.000023 -0.000009 -0.025806 -0.014365 1.938592
    38 1.175365 -0.000131 0.000003 0.102808 0.068186 0.942087
    39 4.526758 0.690458 1.120842 -0.544068 0.084007 1.616107
    40 1.744045 -0.000031 0.000000 -0.021982 -0.019856 1.247357
    41 1.368763 -0.000031 -0.000018 -0.105945 0.118388 -0.918494
    42 1.937355 1.013209 -0.909284 1.400829 0.754283 0.394736
    43 1.523453 -0.000034 0.000000 -0.005862 -0.080644 0.057752
    44 1.599281 0.000000 0.000009 0.036692 0.075057 -0.289143
    45 5.511808 -0.000002 0.000005 -0.688707 0.000004 0.000007
    46 0.196848 0.000001 -0.000002 -0.348225 0.000015 -0.000002
    47 0.000000 0.000000 0.000000 0.013662 0.002637 -1.571546
    48 0.113120 -19.019438 -2.311213 0.013643 -0.003549 1.572151
    49 3.202167 0.358525 -3.926612 0.514567 1.017398 1.816927
    50 -2.337103 -0.011782 -0.277389 0.000000 0.000000 0.000000
    51 0.359046 -0.011782 0.663456 0.000000 0.000000 0.000000
    52 -0.027572 0.000000 0.206380 0.000000 0.000000 0.000000
    53 2.994141 -0.011780 1.523438 0.000000 0.000000 0.000000
    54 -0.351061 -0.441276 -4.264374 0.000000 0.000000 0.000000
    55 -3.742209 -2.150413 -3.199270 -3.061991 0.998045 -2.357502
  time 12
    0 0.000000 7.449219 -27.500000 0.000000 0.000000 -0.000001
    1 -0.000002 0.000000 0.000000 1.570743 -1.567137 -1.570743
    2 4.269531 -4.839844 0.005783 0.000000 0.000000 -0.124848
    3 7.431250 1.496477 0.000002 0.000000 0.000000 0.245450
    4 5.278481 0.165541 0.000001 0.000000 0.000000 0.048511
    5 4.035156 -5.125000 0.982422 1.975864 1.159909 -1.298786
    6 -6.214486 -0.000006 -0.000026 3.620871 -0.527747 1.217663
    7 11.944885 -0.000001 -0.000002 -0.095177 -0.325774 1.187248
    8 10.620186 0.000000 0.000000 1.088405 0.584827 2.345574
    9 -4.751106 -0.694494 0.830577 -0.224695 -0.167273 0.428192
    10 -1.688072 0.000046 -0.000031 0.014612 -0.020008 0.807967
    11 -1.336140 0.000055 -0.000012 0.021168 -0.015777 1.194252
    12 -4.820496 -0.509460 -0.224760 -0.302219 -0.183891 1.370053
    13 -1.826988 -0.000069 0.000007 0.004242 0.040298 1.378845
    14 -1.436577 0.000004 0.000001 -0.054590 -0.055484 0.685661
    15 -3.992357 -0.891188 -1.827909 -0.497678 -0.049932 1.160559
    16 -1.405918 -0.000024 -0.000001 -0.016290 -0.024628 1.460204
    17 -1.175362 0.000125 -0.000021 0.049791 0.046300 0.725667
    18 -4.526751 -0.690573 -1.120744 -0.421689 -0.042636 1.411324
    19 -1.744041 0.000034 -0.000007 -0.026549 -0.013110 1.523316
    20 -1.368767 0.000023 0.000005 0.020850 0.048211 0.303430
    21 -1.874798 -0.935127 0.999174 1.578803 0.617232 0.627486
    22 -1.523453 0.000034 0.000030 0.107902 0.136623 0.772872
    23 -1.599281 0.000004 0.000013 0.011816 -0.041302 1.272320
    24 5.582031 0.115723 0.294922 2.708489 -0.055340 3.097439
    25 0.196846 -0.000002 0.000002 2.793407 0.000006 -3.141577
    26 2.839844 -12.078125 -1.466797 1.975862 1.159910 1.842803
    27 6.214489 0.000005 0.000019 -0.304134 0.433878 -1.759960
    28 11.944893 -0.000032 -0.000194 -1.099882 -0.335035 -1.272430
    29 10.620171 0.000004 0.000010 -2.488447 -0.241384 0.632384
    30 4.751160 0.694376 -0.830474 -0.355477 -0.400777 0.965170
    31 1.688065 -0.000027 0.000002 -0.003699 -0.023828 1.750742
    32 1.336147 -0.000053 -0.000010 0.031019 -0.023257 -0.556490
    33 4.820515 0.509340 0.224865 -0.510607 -0.292925 1.253282
    34 1.827003 0.000068 0.000009 0.017445 0.036582 1.718911
    35 1.436577 -0.000008 0.000008 0.015152 0.001076 -0.800516
    36 3.992353 0.891087 1.827995 -0.594116 0.149995 1.423278
    37 1.405922 0.000023 -0.000009 -0.025806 -0.014365 1.938592
    38 1.175365 -0.000131 0.000003 0.102808 0.068186 0.942087
    39 4.526758 0.690458 1.120842 -0.544068 0.084007 1.616107
    40 1.744045 -0.000031 0.000000 -0.021982 -0.019856 1.247357
    41 1.368763 -0.000031 -0.000018 -0.105945 0.118388 -0.918494
    42 1.937355 1.013209 -0.909284 1.400815 0.754283 0.394736
    43 1.523453 -0.000034 0.000000 -0.005862 -0.080644 0.057752
    44 1.599281 0.000000 0.000009 0.036692 0.075057 -0.289143
    45 5.511808 -0.000002 0.000005 -0.688707 0.000004 0.000007
    46 0.196848 0.000001 -0.000002 -0.348225 0.000015 -0.000002
    47 0.000000 0.000000 0.000000 0.008377 0.001738 -1.571402
    48 0.120933 -18.882715 -2.268243 0.011464 -0.001482 1.571293
    49 3.202167 0.358525 -3.926612 0.514567 1.017398 1.816927
    50 -2.337103 -0.011782 -0.277389 0.000000 0.000000 0.000000
    51 0.359046 -0.011782 0.663456 0.000000 0.000000 0.000000
    52 -0.027572 0.000000 0.206380 0.000000 0.000000 0.000000
    53 2.994141 -0.011780 1.523438 0.000000 0.000000 0.000000
    54 -0.351061 -0.441276 -4.264374 0.000000 0.000000 0.000000
    55 -3.742209 -2.150413 -3.199270 -3.061991 0.998045 -2.357502
  time 13
    0 0.000000 7.449219 -27.500000 0.000000 0.000000 -0.000001
    1 -0.000002 0.000000 0.000000 1.570743 -1.567137 -1.570743
    2 4.269531 -4.839844 0.005783 0.000000 0.000000 -0.124848
    3 7.431250 1.496477 0.000002 0.000000 0.000000 0.245450
    4 5.278481 0.165541 0.000001 0.000000 0.000000 0.048511
    5 4.035156 -5.125000 0.982422 1.975864 1.159909 -1.298786
    6 -6.214486 -0.000006 -0.000026 3.618481 -0.531350 1.219095
    7 11.944885 -0.000001 -0.000002 -0.099518 -0.327392 1.200798
    8 10.620186 0.000000 0.000000 1.083809 0.586725 2.334615
    9 -4.751106 -0.694494 0.830577 -0.224695 -0.167273 0.428192
    10 -1.688072 0.000046 -0.000031 0.014612 -0.020008 0.807967
    11 -1.336140 0.000055 -0.000012 0.021168 -0.015777 1.194252
    12 -4.820496 -0.509460 -0.224760 -0.302219 -0.183891 1.370053
    13 -1.826988 -0.000069 0.000007 0.004242 0.040298 1.378845
    14 -1.436577 0.000004 0.000001 -0.054590 -0.055484 0.685661
    15 -3.992357 -0.891188 -1.827909 -0.497678 -0.049932 1.160559
    16 -1.405918 -0.000024 -0.000001 -0.016290 -0.024628 1.460204
    17 -1.175362 0.000125 -0.000021 0.049791 0.046300 0.725667
    18 -4.526751 -0.690573 -1.120744 -0.421689 -0.042636 1.411324
    19 -1.744041 0.000034 -0.000007 -0.026549 -0.013110 1.523316
    20 -1.368767 0.000023 0.000005 0.020850 0.048211 0.303430
    21 -1.874798 -0.935127 0.999174 1.578803 0.617232 0.627486
    22 -1.523453 0.000034 0.000030 0.107902 0.136623 0.772872
    23 -1.599281 0.000004 0.000013 0.011816 -0.041302 1.272320
    24 5.582031 0.115723 0.294922 2.708489 -0.055340 3.097439
    25 0.196846 -0.000002 0.000002 2.793407 0.000006 -3.141577
    26 2.839844 -12.078125 -1.466797 1.975862 1.159910 1.842803
    27 6.214489 0.000005 0.000019 -0.278307 0.424188 -1.746244
    28 11.944893 -0.000032 -0.000194 -1.094971 -0.336423 -1.287297
    29 10.620171 0.000004 0.000010 -2.511264 -0.242983 0.633243
    30 4.751160 0.694376 -0.830474 -0.355477 -0.400777 0.965170
    31 1.688065 -0.000027 0.000002 -0.003699 -0.023828 1.750742
    32 1.336147 -0.000053 -0.000010 0.031019 -0.023257 -0.556490
    33 4.820515 0.509340 0.224865 -0.510607 -0.292925 1.253282
    34 1.827003 0.000068 0.000009 0.017445 0.036582 1.718911
    35 1.436577 -0.000008 0.000008 0.015152 0.001076 -0.800516
    36 3.992353 0.891087 1.827995 -0.594116 0.149995 1.423278
    37 1.405922 0.000023 -0.000009 -0.025806 -0.014365 1.938592
    38 1.175365 -0.000131 0.000003 0.102808 0.068186 0.942087
    39 4.526758 0.690458 1.120842 -0.544068 0.084007 1.616107
    40 1.744045 -0.000031 0.000000 -0.021982 -0.019856 1.247357
    41 1.368763 -0.000031 -0.000018 -0.105945 0.118388 -0.918494
    42 1.937355 1.013209 -0.909284 1.400815 0.754283 0.394736
    43 1.523453 -0.000034 0.000000 -0.005862 -0.080644 0.057752
    44 1.599281 0.000000 0.000009 0.036692 0.075057 -0.289143
    45 5.511808 -0.000002 0.000005 -0.688707 0.000004 0.000007
    46 0.196848 0.000001 -0.000002 -0.348225 0.000015 -0.000002
    47 0.000000 0.000000 0.000000 0.004039 0.000887 -1.571161
    48 0.124839 -18.781150 -2.244805 0.006744 -0.000432 1.570912
    49 3.202167 0.358525 -3.926612 0.514567 1.017367 1.816927
    50 -2.337103 -0.011782 -0.277389 0.000000 0.000000 0.000000
    51 0.359046 -0.011782 0.663456 0.000000 0.000000 0.000000
    52 -0.027572 0.000000 0.206380 0.000000 0.000000 0.000000
    53 2.994141 -0.011780 1.523438 0.000000 0.000000 0.000000
    54 -0.351061 -0.441276 -4.264374 0.000000 0.000000 0.000000
    55 -3.742209 -2.150413 -3.199270 -3.061991 0.998045 -2.357502
  time 14
    0 0.000000 7.449219 -27.500000 0.000000 0.000000 -0.000001
    1 -0.000002 0.000000 0.000000 1.570743 -1.567137 -1.570743
    2 4.269531 -4.839844 0.005783 0.000000 0.000000 -0.124848
    3 7.431250 1.496477 0.000002 0.000000 0.000000 0.245450
    4 5.278481 0.165541 0.000001 0.000000 0.000000 0.048511
    5 4.035156 -5.125000 0.982422 1.975864 1.159909 -1.298786
    6 -6.214486 -0.000006 -0.000026 3.616856 -0.533812 1.219764
    7 11.944885 -0.000001 -0.000002 -0.102160 -0.328363 1.209036
    8 10.620186 0.000000 0.000000 1.078546 0.588206 2.326573
    9 -4.751106 -0.694494 0.830577 -0.224695 -0.167273 0.428192
    10 -1.688072 0.000046 -0.000031 0.014612 -0.020008 0.807967
    11 -1.336140 0.000055 -0.000012 0.021168 -0.015777 1.194252
    12 -4.820496 -0.509460 -0.224760 -0.302219 -0.183891 1.370053
    13 -1.826988 -0.000069 0.000007 0.004242 0.040298 1.378845
    14 -1.436577 0.000004 0.000001 -0.054590 -0.055484 0.685661
    15 -3.992357 -0.891188 -1.827909 -0.497678 -0.049932 1.160559
    16 -1.405918 -0.000024 -0.000001 -0.016290 -0.024628 1.460204
    17 -1.175362 0.000125 -0.000021 0.049791 0.046300 0.725667
    18 -4.526751 -0.690573 -1.120744 -0.421689 -0.042636 1.411324
    19 -1.744041 0.000034 -0.000007 -0.026549 -0.013110 1.523355
    20 -1.368767 0.000023 0.000005 0.020850 0.048211 0.303430
    21 -1.874798 -0.935127 0.999174 1.578803 0.617232 0.627486
    22 -1.523453 0.000034 0.000030 0.107902 0.136623 0.772872
    23 -1.599281 0.000004 0.000013 0.011816 -0.041302 1.272320
    24 5.582031 0.115723 0.294922 2.708489 -0.055340 3.097439
    25 0.196846 -0.000002 0.000002 2.793407 0.000006 -3.141577
    26 2.839844 -12.078125 -1.466797 1.975862 1.159910 1.842803
    27 6.214489 0.000005 0.000019 -0.261912 0.417954 -1.737254
    28 11.944893 -0.000032 -0.000194 -1.091767 -0.337283 -1.296909
    29 10.620171 0.000004 0.000010 -2.524821 -0.244094 0.634961
    30 4.751160 0.694376 -0.830474 -0.355477 -0.400777 0.965170
    31 1.688065 -0.000027 0.000002 -0.003699 -0.023828 1.750742
    32 1.336147 -0.000053 -0.000010 0.031019 -0.023257 -0.556490
    33 4.820515 0.509340 0.224865 -0.510607 -0.292925 1.253282
    34 1.827003 0.000068 0.000009 0.017445 0.036582 1.718911
    35 1.436577 -0.000008 0.000008 0.015152 0.001076 -0.800516
    36 3.992353 0.891087 1.827995 -0.594116 0.149995 1.423278
    37 1.405922 0.000023 -0.000009 -0.025806 -0.014365 1.938592
    38 1.175365 -0.000131 0.000003 0.102808 0.068186 0.942087
    39 4.526758 0.690458 1.120842 -0.544068 0.084007 1.616107
    40 1.744045 -0.000031 0.000000 -0.021982 -0.019856 1.247357
    41 1.368763 -0.000031 -0.000018 -0.105945 0.118388 -0.918494
    42 1.937355 1.013209 -0.909284 1.400815 0.754283 0.394736
    43 1.523453 -0.000034 0.000000 -0.005862 -0.080644 0.057752
    44 1.599281 0.000000 0.000009 0.036692 0.075057 -0.289143
    45 5.511808 -0.000002 0.000005 -0.688707 0.000004 0.000007
    46 0.196848 0.000001 -0.000002 -0.348225 0.000015 -0.000002
    47 0.000000 0.000000 0.000000 0.001079 0.000240 -1.570921
    48 0.124839 -18.718648 -2.236992 0.002075 -0.000046 1.570817
    49 3.202167 0.358525 -3.926612 0.514567 1.017367 1.816927
    50 -2.337103 -0.011782 -0.277389 0.000000 0.000000 0.000000
    51 0.359046 -0.011782 0.663456 0.000000 0.000000 0.000000
    52 -0.027572 0.000000 0.206380 0.000000 0.000000 0.000000
    53 2.994141 -0.011780 1.523438 0.000000 0.000000 0.000000
    54 -0.351061 -0.441276 -4.264374 0.000000 0.000000 0.000000
    55 -3.742209 -2.150413 -3.199270 -3.061991 0.998045 -2.357502
  time 15
    0 0.000000 7.449219 -27.500000 0.000000 0.000000 -0.000001
    1 -0.000002 0.000000 0.000000 1.570743 -1.567137 -1.570743
    2 4.269531 -4.839844 0.005783 0.000000 0.000000 -0.124848
    3 7.431250 1.496477 0.000002 0.000000 0.000000 0.245450
    4 5.278481 0.165541 0.000001 0.000000 0.000000 0.048511
    5 4.035156 -5.125000 0.982422 1.975864 1.159909 -1.298786
    6 -6.214486 -0.000006 -0.000026 3.616187 -0.534770 1.219955
    7 11.944885 -0.000001 -0.000002 -0.103085 -0.328687 1.211828
    8 10.620186 0.000000 0.000000 1.076039 0.588807 2.323480
    9 -4.751106 -0.694494 0.830577 -0.224695 -0.167273 0.428192
    10 -1.688072 0.000046 -0.000031 0.014612 -0.020008 0.807967
    11 -1.336140 0.000055 -0.000012 0.021168 -0.015777 1.194252
    12 -4.820496 -0.509460 -0.224760 -0.302219 -0.183891 1.370053
    13 -1.826988 -0.000069 0.000007 0.004242 0.040298 1.378880
    14 -1.436577 0.000004 0.000001 -0.054590 -0.055484 0.685661
    15 -3.992357 -0.891188 -1.827909 -0.497678 -0.049932 1.160559
    16 -1.405918 -0.000024 -0.000001 -0.016290 -0.024628 1.460204
    17 -1.175362 0.000125 -0.000021 0.049791 0.046300 0.725667
    18 -4.526751 -0.690573 -1.120744 -0.421689 -0.042636 1.411324
    19 -1.744041 0.000034 -0.000007 -0.026549 -0.013110 1.523316
    20 -1.368767 0.000023 0.000005 0.020850 0.048211 0.303430
    21 -1.874798 -0.935127 0.999174 1.578803 0.617232 0.627486
    22 -1.523453 0.000034 0.000030 0.107902 0.136623 0.772872
    23 -1.599281 0.000004 0.000013 0.011816 -0.041302 1.272320
    24 5.582031 0.115723 0.294922 2.708489 -0.055340 3.097439
    25 0.196846 -0.000002 0.000002 2.793407 0.000006 -3.141577
    26 2.839844 -12.078125 -1.466797 1.975862 1.159910 1.842803
    27 6.214489 0.000005 0.000019 -0.256148 0.415786 -1.734010
    28 11.944893 -0.000032 -0.000194 -1.090617 -0.337585 -1.300435
    29 10.620171 0.000004 0.000010 -2.529300 -0.244538 0.635870
    30 4.751160 0.694376 -0.830474 -0.355477 -0.400777 0.965170
    31 1.688065 -0.000027 0.000002 -0.003699 -0.023828 1.750742
    32 1.336147 -0.000053 -0.000010 0.031019 -0.023257 -0.556490
    33 4.820515 0.509340 0.224865 -0.510607 -0.292925 1.253282
    34 1.827003 0.000068 0.000009 0.017445 0.036582 1.718911
    35 1.436577 -0.000008 0.000008 0.015152 0.001076 -0.800516
    36 3.992353 0.891087 1.827995 -0.594116 0.149995 1.423278
    37 1.405922 0.000023 -0.000009 -0.025806 -0.014365 1.938592
    38 1.175365 -0.000131 0.000003 0.102808 0.068186 0.942087
    39 4.526758 0.690458 1.120842 -0.544068 0.084007 1.616107
    40 1.744045 -0.000031 0.000000 -0.021982 -0.019856 1.247357
    41 1.368763 -0.000031 -0.000018 -0.105945 0.118388 -0.918494
    42 1.937355 1.013209 -0.909284 1.400815 0.754283 0.394736
    43 1.523453 -0.000034 0.000000 -0.005862 -0.080644 0.057752
    44 1.599281 0.000000 0.000009 0.036692 0.075057 -0.289143
    45 5.511808 -0.000002 0.000005 -0.688707 0.000004 0.000007
    46 0.196848 0.000001 -0.000002 -0.348225 0.000015 -0.000002
    47 0.000000 0.000000 0.000000 0.000000 0.000000 -1.570824
    48 0.124839 -18.695210 -2.233086 0.000000 0.000000 1.570721
    49 3.202167 0.358525 -3.926612 0.514567 1.017367 1.816927
    50 -2.337103 -0.011782 -0.277389 0.000000 0.000000 0.000000
    51 0.359046 -0.011782 0.663456 0.000000 0.000000 0.000000
    52 -0.027572 0.000000 0.206380 0.000000 0.000000 0.000000
    53 2.994141 -0.011780 1.523438 0.000000 0.000000 0.000000
    54 -0.351061 -0.441276 -4.264374 0.000000 0.000000 0.000000
    55 -3.742209 -2.150413 -3.199270 -3.061991 0.998045 -2.357502
end
