version 1
nodes
0 "root" -1
1 "pelvis" 0
2 "spine_01" 1
3 "spine_02" 2
4 "spine_03" 3
5 "clavicle_r" 4
6 "upperarm_r" 5
7 "lowerarm_r" 6
8 "hand_r" 7
9 "index_01_r" 8
10 "index_02_r" 9
11 "index_03_r" 10
12 "middle_01_r" 8
13 "middle_02_r" 12
14 "middle_03_r" 13
15 "pinky_01_r" 8
16 "pinky_02_r" 15
17 "pinky_03_r" 16
18 "ring_01_r" 8
19 "ring_02_r" 18
20 "ring_03_r" 19
21 "thumb_01_r" 8
22 "thumb_02_r" 21
23 "thumb_03_r" 22
24 "lowerarm_twist_01_r" 7
25 "upperarm_twist_01_r" 6
26 "clavicle_l" 4
27 "upperarm_l" 26
28 "lowerarm_l" 27
29 "hand_l" 28
30 "index_01_l" 29
31 "index_02_l" 30
32 "index_03_l" 31
33 "middle_01_l" 29
34 "middle_02_l" 33
35 "middle_03_l" 34
36 "pinky_01_l" 29
37 "pinky_02_l" 36
38 "pinky_03_l" 37
39 "ring_01_l" 29
40 "ring_02_l" 39
41 "ring_03_l" 40
42 "thumb_01_l" 29
43 "thumb_02_l" 42
44 "thumb_03_l" 43
45 "lowerarm_twist_01_l" 28
46 "upperarm_twist_01_l" 27
47 "cam_driver" -1
48 "BaseRoot" -1
49 "Base" 48
50 "rhand_ikTarget" 49
51 "Trigger" 49
52 "Mag" 49
53 "Bullet" 52
54 "Bolt" 49
55 "MagRelease" 49
56 "Boltpuller" 49
57 "Bayonet" 49
58 "lhand_ikTarget" 49
end
skeleton
time 0
0 -0.00000100 7.45008900 -27.50902600 0.00000000 0.00000000 0.00003100
1 -0.00000200 0.00000000 0.00000000 1.57074700 -1.56714200 -1.57074700
2 4.25546600 -0.33518300 -0.00000200 0.00000000 0.00000000 -0.12484800
3 7.43125000 1.49647900 0.00000200 0.00000000 0.00000000 0.24545000
4 5.27847900 0.16554400 0.00000100 0.00000000 0.00000000 0.04851100
5 6.12597600 -2.42666200 -2.00797400 1.97586500 1.15990900 -1.29878600
6 -6.21447800 -0.00000900 -0.00002600 3.13316919 -0.65798431 2.09072825
7 11.94488500 0.00000000 0.00000000 -0.41893269 -0.34600778 1.73776951
8 10.62018800 0.00000000 0.00000000 0.60869666 0.12580787 2.46017565
9 -4.75110800 -0.69449800 0.83058000 -0.04275600 -0.14370200 0.21348200
10 -1.68806800 0.00004700 -0.00003100 0.01416200 -0.02030400 0.83076300
11 -1.33614000 0.00005500 -0.00001000 0.02620400 -0.00294000 0.66573400
12 -4.82049400 -0.50946400 -0.22475900 -0.47850200 -0.28490200 1.21053600
13 -1.82698400 -0.00006900 0.00000800 0.01386400 0.03805500 1.62217300
14 -1.43656900 0.00000400 0.00000300 -0.01732100 -0.07578600 0.13241200
15 -3.99235700 -0.89119100 -1.82790900 -0.68571500 0.29337500 1.78792400
16 -1.40591800 -0.00002500 -0.00000200 -0.00474800 -0.02908900 1.03564800
17 -1.17535800 0.00012600 -0.00001900 0.03337100 0.05922500 0.41712000
18 -4.52675100 -0.69058000 -1.12074100 -0.58814800 -0.00853300 1.62350700
19 -1.74403800 0.00003200 -0.00000800 -0.07404200 0.08160700 1.50629900
20 -1.36877100 0.00002300 0.00000200 0.00993500 0.05150500 0.08698400
21 -2.03839600 -0.89279000 0.93250400 1.93898400 0.21538600 0.74875200
22 -1.70607000 0.14882100 0.13171400 -0.00729200 0.04641800 0.40163700
23 -1.59928500 0.00001100 0.00001500 0.02997200 -0.03067600 0.77840300
24 5.51182000 0.00000800 -0.00000200 2.10196228 0.00110895 3.14091950
25 0.19684600 -0.00000200 0.00000300 2.79340678 -0.00112798 -3.14135279
26 -1.29483000 -15.58672000 -4.01722200 1.97586200 1.15991000 1.84280300
27 6.21448600 0.00000800 0.00001900 -2.27872505 0.36763765 -2.27741130
28 11.94488800 -0.00003100 -0.00020000 0.20032332 1.20075197 -0.50633927
29 10.62016500 0.00000200 0.00000600 -2.98953849 -0.61842381 0.89261819
30 4.75115800 0.69437400 -0.83047400 0.01035400 -0.18701200 0.22546800
31 1.68806500 -0.00002200 0.00000200 0.00871700 -0.02311100 1.07732400
32 1.33615100 -0.00005100 -0.00000900 -0.01966400 -0.03335100 0.90470300
33 4.82051500 0.50933800 0.22486600 -0.16078000 -0.19857400 0.43859100
34 1.82699200 0.00006600 0.00001000 0.02668100 0.03043800 1.99251200
35 1.43658100 -0.00000600 0.00001000 0.01484100 0.00319600 -0.94170300
36 3.99235300 0.89108700 1.82799300 -0.53062100 0.08867800 0.91105900
37 1.40592600 0.00003100 -0.00000300 -0.01988900 -0.02179500 1.61407600
38 1.17536200 -0.00013200 0.00000100 -0.09551900 0.07798600 -0.93359900
39 4.52675800 0.69046400 1.12084300 -0.40167000 -0.05563700 0.80364000
40 1.74404100 -0.00003100 -0.00000200 -0.02939300 -0.00337500 1.86812600
41 1.36876700 -0.00003100 -0.00001800 -0.12957300 0.09181900 -1.14340300
42 1.80926700 0.89529100 -1.12010900 1.99067500 0.37480500 0.55887600
43 1.49513800 -0.24140500 0.04487900 0.00360000 -0.23414300 0.03443400
44 1.57425300 -0.10445000 0.03324400 0.03981700 0.07342300 -0.24671300
45 5.48872300 -0.02716200 0.01694700 -0.87631700 0.01765400 0.01041400
46 0.19684900 0.00000300 -0.00000100 -0.34822500 0.00001500 -0.00000200
47 0.00000000 0.00000000 0.00000000 0.00000000 0.00000000 -1.57079600
48 -4.16381200 1.79473400 -4.25436000 0.00000000 0.00000000 -3.14156200
49 -0.54900978 16.53405503 0.58480981 0.09879659 -0.00479242 -1.54735072
50 9.68054400 0.76709100 -4.42391000 0.66994200 1.22657000 2.14442700
51 2.97751900 0.00125700 -1.28020400 0.00000000 0.00000000 0.00000000
52 -1.13600500 -0.00628100 -0.29562500 0.00000000 0.00000000 0.00000000
53 0.05843500 0.00066700 0.09728300 0.00000000 0.00000000 0.00000000
54 -1.09087800 0.04617100 0.46137700 0.00000000 0.00000000 0.00000000
55 0.76532200 -0.03277500 -1.35591700 0.00000000 0.00000000 0.00000000
56 -10.18440400 -0.01003900 1.60133600 0.00000000 0.00000000 0.00000000
57 -21.17495700 0.16805800 -1.06791200 0.00000000 0.00000000 0.00000000
58 -4.17994500 -2.40243000 -1.82029200 -2.93780700 1.27049300 -2.15177200
time 1
0 -0.00000100 7.45008900 -27.50902600 0.00000000 0.00000000 0.00003100
1 -0.00000200 0.00000000 0.00000000 1.57074700 -1.56714200 -1.57074700
2 4.25546600 -0.33518300 -0.00000200 0.00000000 0.00000000 -0.12484800
3 7.43125000 1.49647900 0.00000200 0.00000000 0.00000000 0.24545000
4 5.27847900 0.16554400 0.00000100 0.00000000 0.00000000 0.04851100
5 5.98108344 -2.62546340 -1.85294867 1.97586500 1.15990900 -1.29878600
6 -6.21447800 -0.00000900 -0.00002600 3.12500148 -0.65685070 2.08542753
7 11.94488500 0.00000000 0.00000000 -0.41919458 -0.34456709 1.73865703
8 10.62018800 0.00000000 0.00000000 0.59242007 0.13658584 2.47130637
9 -4.75110800 -0.69449800 0.83058000 -0.04275600 -0.14370200 0.21348200
10 -1.68806800 0.00004700 -0.00003100 0.01416200 -0.02030400 0.83076300
11 -1.33614000 0.00005500 -0.00001000 0.02620400 -0.00294000 0.66573400
12 -4.82049400 -0.50946400 -0.22475900 -0.47850200 -0.28490200 1.21053600
13 -1.82698400 -0.00006900 0.00000800 0.01386400 0.03805500 1.62217300
14 -1.43656900 0.00000400 0.00000300 -0.01732100 -0.07578600 0.13241200
15 -3.99235700 -0.89119100 -1.82790900 -0.68571500 0.29337500 1.78792400
16 -1.40591800 -0.00002500 -0.00000200 -0.00474800 -0.02908900 1.03564800
17 -1.17535800 0.00012600 -0.00001900 0.03337100 0.05922500 0.41712000
18 -4.52675100 -0.69058000 -1.12074100 -0.58814800 -0.00853300 1.62350700
19 -1.74403800 0.00003200 -0.00000800 -0.07404200 0.08160700 1.50629900
20 -1.36877100 0.00002300 0.00000200 0.00993500 0.05150500 0.08698400
21 -2.03839600 -0.89279000 0.93250400 1.93898400 0.21538600 0.74875200
22 -1.70607000 0.14882100 0.13171400 -0.00729200 0.04641800 0.40163700
23 -1.59928500 0.00001100 0.00001500 0.02997200 -0.03067600 0.77840300
24 5.51182000 0.00000800 -0.00000200 2.10196228 0.00110895 3.14091950
25 0.19684600 -0.00000200 0.00000300 2.79340678 -0.00112798 -3.14135279
26 -1.29483000 -15.58672000 -4.01722200 1.97586200 1.15991000 1.84280300
27 6.21448600 0.00000800 0.00001900 -2.28502475 0.36507645 -2.26534982
28 11.94488800 -0.00003100 -0.00020000 0.19099951 1.20535957 -0.51631985
29 10.62016500 0.00000200 0.00000600 -2.96812061 -0.62847578 0.89129775
30 4.75115800 0.69437400 -0.83047400 0.01035400 -0.18701200 0.22546800
31 1.68806500 -0.00002200 0.00000200 0.00871700 -0.02311100 1.07732400
32 1.33615100 -0.00005100 -0.00000900 -0.01966400 -0.03335100 0.90470300
33 4.82051500 0.50933800 0.22486600 -0.16078000 -0.19857400 0.43859100
34 1.82699200 0.00006600 0.00001000 0.02668100 0.03043800 1.99251200
35 1.43658100 -0.00000600 0.00001000 0.01484100 0.00319600 -0.94170300
36 3.99235300 0.89108700 1.82799300 -0.53062100 0.08867800 0.91105900
37 1.40592600 0.00003100 -0.00000300 -0.01988900 -0.02179500 1.61407600
38 1.17536200 -0.00013200 0.00000100 -0.09551900 0.07798600 -0.93359900
39 4.52675800 0.69046400 1.12084300 -0.40167000 -0.05563700 0.80364000
40 1.74404100 -0.00003100 -0.00000200 -0.02939300 -0.00337500 1.86812600
41 1.36876700 -0.00003100 -0.00001800 -0.12957300 0.09181900 -1.14340300
42 1.80926700 0.89529100 -1.12010900 1.99067500 0.37480500 0.55887600
43 1.49513800 -0.24140500 0.04487900 0.00360000 -0.23414300 0.03443400
44 1.57425300 -0.10445000 0.03324400 0.03981700 0.07342300 -0.24671300
45 5.48872300 -0.02716200 0.01694700 -0.87631700 0.01765400 0.01041400
46 0.19684900 0.00000300 -0.00000100 -0.34822500 0.00001500 -0.00000200
47 0.00000000 0.00000000 0.00000000 0.00000000 0.00000000 -1.57079600
48 -4.16381200 1.79473400 -4.25436000 0.00000000 0.00000000 -3.14156200
49 -0.69641263 16.65848643 0.59533358 0.09181552 0.01037692 -1.52815029
50 9.68054400 0.76709100 -4.42391000 0.66994200 1.22657000 2.14442700
51 2.97751900 0.00125700 -1.28020400 0.00000000 0.00000000 0.00000000
52 -1.13600500 -0.00628100 -0.29562500 0.00000000 0.00000000 0.00000000
53 0.05843500 0.00066700 0.09728300 0.00000000 0.00000000 0.00000000
54 -1.09087800 0.04617100 0.46137700 0.00000000 0.00000000 0.00000000
55 0.76532200 -0.03277500 -1.35591700 0.00000000 0.00000000 0.00000000
56 -10.18440400 -0.01003900 1.60133600 0.00000000 0.00000000 0.00000000
57 -21.17495700 0.16805800 -1.06791200 0.00000000 0.00000000 0.00000000
58 -4.17994500 -2.40243000 -1.82029200 -2.93780700 1.27049300 -2.15177200
time 2
0 -0.00000100 7.45008900 -27.50902600 0.00000000 0.00000000 0.00003100
1 -0.00000200 0.00000000 0.00000000 1.57074700 -1.56714200 -1.57074700
2 4.25546600 -0.33518300 -0.00000200 0.00000000 0.00000000 -0.12484800
3 7.43125000 1.49647900 0.00000200 0.00000000 0.00000000 0.24545000
4 5.27847900 0.16554400 0.00000100 0.00000000 0.00000000 0.04851100
5 5.58049802 -3.17509375 -1.42434990 1.97586500 1.15990900 -1.29878600
6 -6.21447800 -0.00000900 -0.00002600 3.10520254 -0.65245843 2.07466218
7 11.94488500 0.00000000 0.00000000 -0.41808546 -0.34329647 1.73534515
8 10.62018800 0.00000000 0.00000000 0.57879397 0.16446363 2.52525689
9 -4.75110800 -0.69449800 0.83058000 -0.04275600 -0.14370200 0.21348200
10 -1.68806800 0.00004700 -0.00003100 0.01416200 -0.02030400 0.83076300
11 -1.33614000 0.00005500 -0.00001000 0.02620400 -0.00294000 0.66573400
12 -4.82049400 -0.50946400 -0.22475900 -0.47850200 -0.28490200 1.21053600
13 -1.82698400 -0.00006900 0.00000800 0.01386400 0.03805500 1.62217300
14 -1.43656900 0.00000400 0.00000300 -0.01732100 -0.07578600 0.13241200
15 -3.99235700 -0.89119100 -1.82790900 -0.68571500 0.29337500 1.78792400
16 -1.40591800 -0.00002500 -0.00000200 -0.00474800 -0.02908900 1.03564800
17 -1.17535800 0.00012600 -0.00001900 0.03337100 0.05922500 0.41712000
18 -4.52675100 -0.69058000 -1.12074100 -0.58814800 -0.00853300 1.62350700
19 -1.74403800 0.00003200 -0.00000800 -0.07404200 0.08160700 1.50629900
20 -1.36877100 0.00002300 0.00000200 0.00993500 0.05150500 0.08698400
21 -2.03839600 -0.89279000 0.93250400 1.93898400 0.21538600 0.74875200
22 -1.70607000 0.14882100 0.13171400 -0.00729200 0.04641800 0.40163700
23 -1.59928500 0.00001100 0.00001500 0.02997200 -0.03067600 0.77840300
24 5.51182000 0.00000800 -0.00000200 2.10196228 0.00110895 3.14091950
25 0.19684600 -0.00000200 0.00000300 2.79340678 -0.00112798 -3.14135279
26 -1.29483000 -15.58672000 -4.01722200 1.97586200 1.15991000 1.84280300
27 6.21448600 0.00000800 0.00001900 -2.29873964 0.36041317 -2.23180905
28 11.94488800 -0.00003100 -0.00020000 0.16824134 1.21860487 -0.54060151
29 10.62016500 0.00000200 0.00000600 -2.91931180 -0.65654786 0.85680634
30 4.75115800 0.69437400 -0.83047400 0.01035400 -0.18701200 0.22546800
31 1.68806500 -0.00002200 0.00000200 0.00871700 -0.02311100 1.07732400
32 1.33615100 -0.00005100 -0.00000900 -0.01966400 -0.03335100 0.90470300
33 4.82051500 0.50933800 0.22486600 -0.16078000 -0.19857400 0.43859100
34 1.82699200 0.00006600 0.00001000 0.02668100 0.03043800 1.99251200
35 1.43658100 -0.00000600 0.00001000 0.01484100 0.00319600 -0.94170300
36 3.99235300 0.89108700 1.82799300 -0.53062100 0.08867800 0.91105900
37 1.40592600 0.00003100 -0.00000300 -0.01988900 -0.02179500 1.61407600
38 1.17536200 -0.00013200 0.00000100 -0.09551900 0.07798600 -0.93359900
39 4.52675800 0.69046400 1.12084300 -0.40167000 -0.05563700 0.80364000
40 1.74404100 -0.00003100 -0.00000200 -0.02939300 -0.00337500 1.86812600
41 1.36876700 -0.00003100 -0.00001800 -0.12957300 0.09181900 -1.14340300
42 1.80926700 0.89529100 -1.12010900 1.99067500 0.37480500 0.55887600
43 1.49513800 -0.24140500 0.04487900 0.00360000 -0.23414300 0.03443400
44 1.57425300 -0.10445000 0.03324400 0.03981700 0.07342300 -0.24671300
45 5.48872300 -0.02716200 0.01694700 -0.87631700 0.01765400 0.01041400
46 0.19684900 0.00000300 -0.00000100 -0.34822500 0.00001500 -0.00000200
47 0.00000000 0.00000000 0.00000000 0.00000000 0.00000000 -1.57079600
48 -4.16381200 1.79473400 -4.25436000 0.00000000 0.00000000 -3.14156200
49 -1.11760026 16.97939058 0.60918548 0.10473304 0.05537556 -1.47266896
50 9.68054400 0.76709100 -4.42391000 0.66994200 1.22657000 2.14442700
51 2.97751900 0.00125700 -1.28020400 0.00000000 0.00000000 0.00000000
52 -1.13600500 -0.00628100 -0.29562500 0.00000000 0.00000000 0.00000000
53 0.05843500 0.00066700 0.09728300 0.00000000 0.00000000 0.00000000
54 -1.09087800 0.04617100 0.46137700 0.00000000 0.00000000 0.00000000
55 0.76532200 -0.03277500 -1.35591700 0.00000000 0.00000000 0.00000000
56 -10.18440400 -0.01003900 1.60133600 0.00000000 0.00000000 0.00000000
57 -21.17495700 0.16805800 -1.06791200 0.00000000 0.00000000 0.00000000
58 -4.17994500 -2.40243000 -1.82029200 -2.93780700 1.27049300 -2.15177200
time 3
0 -0.00000100 7.45008900 -27.50902600 0.00000000 0.00000000 0.00003100
1 -0.00000200 0.00000000 0.00000000 1.57074700 -1.56714200 -1.57074700
2 4.25546600 -0.33518300 -0.00000200 0.00000000 0.00000000 -0.12484800
3 7.43125000 1.49647900 0.00000200 0.00000000 0.00000000 0.24545000
4 5.27847900 0.16554400 0.00000100 0.00000000 0.00000000 0.04851100
5 4.97536097 -4.00538328 -0.77689162 1.97586500 1.15990900 -1.29878600
6 -6.21447800 -0.00000900 -0.00002600 3.08108692 -0.64204427 2.05296745
7 11.94488500 0.00000000 0.00000000 -0.41512773 -0.34343160 1.72664245
8 10.62018800 0.00000000 0.00000000 0.57386568 0.19816765 2.60983313
9 -4.75110800 -0.69449800 0.83058000 -0.04275600 -0.14370200 0.21348200
10 -1.68806800 0.00004700 -0.00003100 0.01416200 -0.02030400 0.83076300
11 -1.33614000 0.00005500 -0.00001000 0.02620400 -0.00294000 0.66573400
12 -4.82049400 -0.50946400 -0.22475900 -0.47850200 -0.28490200 1.21053600
13 -1.82698400 -0.00006900 0.00000800 0.01386400 0.03805500 1.62217300
14 -1.43656900 0.00000400 0.00000300 -0.01732100 -0.07578600 0.13241200
15 -3.99235700 -0.89119100 -1.82790900 -0.68571500 0.29337500 1.78792400
16 -1.40591800 -0.00002500 -0.00000200 -0.00474800 -0.02908900 1.03564800
17 -1.17535800 0.00012600 -0.00001900 0.03337100 0.05922500 0.41712000
18 -4.52675100 -0.69058000 -1.12074100 -0.58814800 -0.00853300 1.62350700
19 -1.74403800 0.00003200 -0.00000800 -0.07404200 0.08160700 1.50629900
20 -1.36877100 0.00002300 0.00000200 0.00993500 0.05150500 0.08698400
21 -2.03839600 -0.89279000 0.93250400 1.93898400 0.21538600 0.74875200
22 -1.70607000 0.14882100 0.13171400 -0.00729200 0.04641800 0.40163700
23 -1.59928500 0.00001100 0.00001500 0.02997200 -0.03067600 0.77840300
24 5.51182000 0.00000800 -0.00000200 2.10196228 0.00110895 3.14091950
25 0.19684600 -0.00000200 0.00000300 2.79340678 -0.00112798 -3.14135279
26 -1.29483000 -15.58672000 -4.01722200 1.97586200 1.15991000 1.84280300
27 6.21448600 0.00000800 0.00001900 -2.31603015 0.35815476 -2.17936679
28 11.94488800 -0.00003100 -0.00020000 0.12023604 1.24395481 -0.59141999
29 10.62016500 0.00000200 0.00000600 -2.85524839 -0.69826588 0.79654044
30 4.75115800 0.69437400 -0.83047400 0.01035400 -0.18701200 0.22546800
31 1.68806500 -0.00002200 0.00000200 0.00871700 -0.02311100 1.07732400
32 1.33615100 -0.00005100 -0.00000900 -0.01966400 -0.03335100 0.90470300
33 4.82051500 0.50933800 0.22486600 -0.16078000 -0.19857400 0.43859100
34 1.82699200 0.00006600 0.00001000 0.02668100 0.03043800 1.99251200
35 1.43658100 -0.00000600 0.00001000 0.01484100 0.00319600 -0.94170300
36 3.99235300 0.89108700 1.82799300 -0.53062100 0.08867800 0.91105900
37 1.40592600 0.00003100 -0.00000300 -0.01988900 -0.02179500 1.61407600
38 1.17536200 -0.00013200 0.00000100 -0.09551900 0.07798600 -0.93359900
39 4.52675800 0.69046400 1.12084300 -0.40167000 -0.05563700 0.80364000
40 1.74404100 -0.00003100 -0.00000200 -0.02939300 -0.00337500 1.86812600
41 1.36876700 -0.00003100 -0.00001800 -0.12957300 0.09181900 -1.14340300
42 1.80926700 0.89529100 -1.12010900 1.99067500 0.37480500 0.55887600
43 1.49513800 -0.24140500 0.04487900 0.00360000 -0.23414300 0.03443400
44 1.57425300 -0.10445000 0.03324400 0.03981700 0.07342300 -0.24671300
45 5.48872300 -0.02716200 0.01694700 -0.87631700 0.01765400 0.01041400
46 0.19684900 0.00000300 -0.00000100 -0.34822500 0.00001500 -0.00000200
47 0.00000000 0.00000000 0.00000000 0.00000000 0.00000000 -1.57079600
48 -4.16381200 1.79473400 -4.25436000 0.00000000 0.00000000 -3.14156200
49 -1.77472263 17.41817538 0.60226903 0.13956954 0.11682218 -1.38476896
50 9.68054400 0.76709100 -4.42391000 0.66994200 1.22657000 2.14442700
51 2.97751900 0.00125700 -1.28020400 0.00000000 0.00000000 0.00000000
52 -1.13600500 -0.00628100 -0.29562500 0.00000000 0.00000000 0.00000000
53 0.05843500 0.00066700 0.09728300 0.00000000 0.00000000 0.00000000
54 -1.09087800 0.04617100 0.46137700 0.00000000 0.00000000 0.00000000
55 0.76532200 -0.03277500 -1.35591700 0.00000000 0.00000000 0.00000000
56 -10.18440400 -0.01003900 1.60133600 0.00000000 0.00000000 0.00000000
57 -21.17495700 0.16805800 -1.06791200 0.00000000 0.00000000 0.00000000
58 -4.17994500 -2.40243000 -1.82029200 -2.93780700 1.27049300 -2.15177200
time 4
0 -0.00000100 7.45008900 -27.50902600 0.00000000 0.00000000 0.00003100
1 -0.00000200 0.00000000 0.00000000 1.57074700 -1.56714200 -1.57074700
2 4.25546600 -0.33518300 -0.00000200 0.00000000 0.00000000 -0.12484800
3 7.43125000 1.49647900 0.00000200 0.00000000 0.00000000 0.24545000
4 5.27847900 0.16554400 0.00000100 0.00000000 0.00000000 0.04851100
5 4.21680687 -5.04616980 0.03471129 1.97586500 1.15990900 -1.29878600
6 -6.21447800 -0.00000900 -0.00002600 3.06072196 -0.62400775 2.01427545
7 11.94488500 0.00000000 0.00000000 -0.41005401 -0.34423069 1.71157276
8 10.62018800 0.00000000 0.00000000 0.57495605 0.22887034 2.70963117
9 -4.75110800 -0.69449800 0.83058000 -0.04275600 -0.14370200 0.21348200
10 -1.68806800 0.00004700 -0.00003100 0.01416200 -0.02030400 0.83076300
11 -1.33614000 0.00005500 -0.00001000 0.02620400 -0.00294000 0.66573400
12 -4.82049400 -0.50946400 -0.22475900 -0.47850200 -0.28490200 1.21053600
13 -1.82698400 -0.00006900 0.00000800 0.01386400 0.03805500 1.62217300
14 -1.43656900 0.00000400 0.00000300 -0.01732100 -0.07578600 0.13241200
15 -3.99235700 -0.89119100 -1.82790900 -0.68571500 0.29337500 1.78792400
16 -1.40591800 -0.00002500 -0.00000200 -0.00474800 -0.02908900 1.03564800
17 -1.17535800 0.00012600 -0.00001900 0.03337100 0.05922500 0.41712000
18 -4.52675100 -0.69058000 -1.12074100 -0.58814800 -0.00853300 1.62350700
19 -1.74403800 0.00003200 -0.00000800 -0.07404200 0.08160700 1.50629900
20 -1.36877100 0.00002300 0.00000200 0.00993500 0.05150500 0.08698400
21 -2.03839600 -0.89279000 0.93250400 1.93898400 0.21538600 0.74875200
22 -1.70607000 0.14882100 0.13171400 -0.00729200 0.04641800 0.40163700
23 -1.59928500 0.00001100 0.00001500 0.02997200 -0.03067600 0.77840300
24 5.51182000 0.00000800 -0.00000200 2.10196228 0.00110895 3.14091950
25 0.19684600 -0.00000200 0.00000300 2.79340678 -0.00112798 -3.14135279
26 -1.29483000 -15.58672000 -4.01722200 1.97586200 1.15991000 1.84280300
27 6.21448600 0.00000800 0.00001900 -2.33364760 0.36086956 -2.11196488
28 11.94488800 -0.00003100 -0.00020000 0.03192116 1.28063957 -0.68401868
29 10.62016500 0.00000200 0.00000600 -2.78245390 -0.74959304 0.72108423
30 4.75115800 0.69437400 -0.83047400 0.01035400 -0.18701200 0.22546800
31 1.68806500 -0.00002200 0.00000200 0.00871700 -0.02311100 1.07732400
32 1.33615100 -0.00005100 -0.00000900 -0.01966400 -0.03335100 0.90470300
33 4.82051500 0.50933800 0.22486600 -0.16078000 -0.19857400 0.43859100
34 1.82699200 0.00006600 0.00001000 0.02668100 0.03043800 1.99251200
35 1.43658100 -0.00000600 0.00001000 0.01484100 0.00319600 -0.94170300
36 3.99235300 0.89108700 1.82799300 -0.53062100 0.08867800 0.91105900
37 1.40592600 0.00003100 -0.00000300 -0.01988900 -0.02179500 1.61407600
38 1.17536200 -0.00013200 0.00000100 -0.09551900 0.07798600 -0.93359900
39 4.52675800 0.69046400 1.12084300 -0.40167000 -0.05563700 0.80364000
40 1.74404100 -0.00003100 -0.00000200 -0.02939300 -0.00337500 1.86812600
41 1.36876700 -0.00003100 -0.00001800 -0.12957300 0.09181900 -1.14340300
42 1.80926700 0.89529100 -1.12010900 1.99067500 0.37480500 0.55887600
43 1.49513800 -0.24140500 0.04487900 0.00360000 -0.23414300 0.03443400
44 1.57425300 -0.10445000 0.03324400 0.03981700 0.07342300 -0.24671300
45 5.48872300 -0.02716200 0.01694700 -0.87631700 0.01765400 0.01041400
46 0.19684900 0.00000300 -0.00000100 -0.34822500 0.00001500 -0.00000200
47 0.00000000 0.00000000 0.00000000 0.00000000 0.00000000 -1.57079600
48 -4.16381200 1.79473400 -4.25436000 0.00000000 0.00000000 -3.14156200
49 -2.60470462 17.89625816 0.56037327 0.19101480 0.18168992 -1.26916400
50 9.68054400 0.76709100 -4.42391000 0.66994200 1.22657000 2.14442700
51 2.97751900 0.00125700 -1.28020400 0.00000000 0.00000000 0.00000000
52 -1.13600500 -0.00628100 -0.29562500 0.00000000 0.00000000 0.00000000
53 0.05843500 0.00066700 0.09728300 0.00000000 0.00000000 0.00000000
54 -1.09087800 0.04617100 0.46137700 0.00000000 0.00000000 0.00000000
55 0.76532200 -0.03277500 -1.35591700 0.00000000 0.00000000 0.00000000
56 -10.18440400 -0.01003900 1.60133600 0.00000000 0.00000000 0.00000000
57 -21.17495700 0.16805800 -1.06791200 0.00000000 0.00000000 0.00000000
58 -4.17994500 -2.40243000 -1.82029200 -2.93780700 1.27049300 -2.15177200
time 5
0 -0.00000100 7.45008900 -27.50902600 0.00000000 0.00000000 0.00003100
1 -0.00000200 0.00000000 0.00000000 1.57074700 -1.56714200 -1.57074700
2 4.25546600 -0.33518300 -0.00000200 0.00000000 0.00000000 -0.12484800
3 7.43125000 1.49647900 0.00000200 0.00000000 0.00000000 0.24545000
4 5.27847900 0.16554400 0.00000100 0.00000000 0.00000000 0.04851100
5 3.35597601 -6.22728828 0.95574206 1.97586500 1.15990900 -1.29878600
6 -6.21447800 -0.00000900 -0.00002600 3.04533135 -0.59726557 1.95719630
7 11.94488500 0.00000000 0.00000000 -0.40414806 -0.34549037 1.69408202
8 10.62018800 0.00000000 0.00000000 0.57538464 0.25055242 2.80500482
9 -4.75110800 -0.69449800 0.83058000 -0.04275600 -0.14370200 0.21348200
10 -1.68806800 0.00004700 -0.00003100 0.01416200 -0.02030400 0.83076300
11 -1.33614000 0.00005500 -0.00001000 0.02620400 -0.00294000 0.66573400
12 -4.82049400 -0.50946400 -0.22475900 -0.47850200 -0.28490200 1.21053600
13 -1.82698400 -0.00006900 0.00000800 0.01386400 0.03805500 1.62217300
14 -1.43656900 0.00000400 0.00000300 -0.01732100 -0.07578600 0.13241200
15 -3.99235700 -0.89119100 -1.82790900 -0.68571500 0.29337500 1.78792400
16 -1.40591800 -0.00002500 -0.00000200 -0.00474800 -0.02908900 1.03564800
17 -1.17535800 0.00012600 -0.00001900 0.03337100 0.05922500 0.41712000
18 -4.52675100 -0.69058000 -1.12074100 -0.58814800 -0.00853300 1.62350700
19 -1.74403800 0.00003200 -0.00000800 -0.07404200 0.08160700 1.50629900
20 -1.36877100 0.00002300 0.00000200 0.00993500 0.05150500 0.08698400
21 -2.03839600 -0.89279000 0.93250400 1.93898400 0.21538600 0.74875200
22 -1.70607000 0.14882100 0.13171400 -0.00729200 0.04641800 0.40163700
23 -1.59928500 0.00001100 0.00001500 0.02997200 -0.03067600 0.77840300
24 5.51182000 0.00000800 -0.00000200 2.10196228 0.00110895 3.14091950
25 0.19684600 -0.00000200 0.00000300 2.79340678 -0.00112798 -3.14135279
26 -1.29483000 -15.58672000 -4.01722200 1.97586200 1.15991000 1.84280300
27 6.21448600 0.00000800 0.00001900 -2.34926660 0.37083411 -2.03481133
28 11.94488800 -0.00003100 -0.00020000 -0.12686650 1.32447569 -0.84846272
29 10.62016500 0.00000200 0.00000600 -2.70691765 -0.80787588 0.64159544
30 4.75115800 0.69437400 -0.83047400 0.01035400 -0.18701200 0.22546800
31 1.68806500 -0.00002200 0.00000200 0.00871700 -0.02311100 1.07732400
32 1.33615100 -0.00005100 -0.00000900 -0.01966400 -0.03335100 0.90470300
33 4.82051500 0.50933800 0.22486600 -0.16078000 -0.19857400 0.43859100
34 1.82699200 0.00006600 0.00001000 0.02668100 0.03043800 1.99251200
35 1.43658100 -0.00000600 0.00001000 0.01484100 0.00319600 -0.94170300
36 3.99235300 0.89108700 1.82799300 -0.53062100 0.08867800 0.91105900
37 1.40592600 0.00003100 -0.00000300 -0.01988900 -0.02179500 1.61407600
38 1.17536200 -0.00013200 0.00000100 -0.09551900 0.07798600 -0.93359900
39 4.52675800 0.69046400 1.12084300 -0.40167000 -0.05563700 0.80364000
40 1.74404100 -0.00003100 -0.00000200 -0.02939300 -0.00337500 1.86812600
41 1.36876700 -0.00003100 -0.00001800 -0.12957300 0.09181900 -1.14340300
42 1.80926700 0.89529100 -1.12010900 1.99067500 0.37480500 0.55887600
43 1.49513800 -0.24140500 0.04487900 0.00360000 -0.23414300 0.03443400
44 1.57425300 -0.10445000 0.03324400 0.03981700 0.07342300 -0.24671300
45 5.48872300 -0.02716200 0.01694700 -0.87631700 0.01765400 0.01041400
46 0.19684900 0.00000300 -0.00000100 -0.34822500 0.00001500 -0.00000200
47 0.00000000 0.00000000 0.00000000 0.00000000 0.00000000 -1.57079600
48 -4.16381200 1.79473400 -4.25436000 0.00000000 0.00000000 -3.14156200
49 -3.53815693 18.33505242 0.47176210 0.25196793 0.23800253 -1.13384702
50 9.68054400 0.76709100 -4.42391000 0.66994200 1.22657000 2.14442700
51 2.97751900 0.00125700 -1.28020400 0.00000000 0.00000000 0.00000000
52 -1.13600500 -0.00628100 -0.29562500 0.00000000 0.00000000 0.00000000
53 0.05843500 0.00066700 0.09728300 0.00000000 0.00000000 0.00000000
54 -1.09087800 0.04617100 0.46137700 0.00000000 0.00000000 0.00000000
55 0.76532200 -0.03277500 -1.35591700 0.00000000 0.00000000 0.00000000
56 -10.18440400 -0.01003900 1.60133600 0.00000000 0.00000000 0.00000000
57 -21.17495700 0.16805800 -1.06791200 0.00000000 0.00000000 0.00000000
58 -4.17994500 -2.40243000 -1.82029200 -2.93780700 1.27049300 -2.15177200
time 6
0 -0.00000100 7.45008900 -27.50902600 0.00000000 0.00000000 0.00003100
1 -0.00000200 0.00000000 0.00000000 1.57074700 -1.56714200 -1.57074700
2 4.25546600 -0.33518300 -0.00000200 0.00000000 0.00000000 -0.12484800
3 7.43125000 1.49647900 0.00000200 0.00000000 0.00000000 0.24545000
4 5.27847900 0.16554400 0.00000100 0.00000000 0.00000000 0.04851100
5 2.44400676 -7.47857084 1.93148866 1.97586500 1.15990900 -1.29878600
6 -6.21447800 -0.00000900 -0.00002600 3.02991912 -0.56143865 1.88700634
7 11.94488500 0.00000000 0.00000000 -0.40079473 -0.34657487 1.68423905
8 10.62018800 0.00000000 0.00000000 0.56804122 0.25977121 2.87463006
9 -4.75110800 -0.69449800 0.83058000 -0.04275600 -0.14370200 0.21348200
10 -1.68806800 0.00004700 -0.00003100 0.01416200 -0.02030400 0.83076300
11 -1.33614000 0.00005500 -0.00001000 0.02620400 -0.00294000 0.66573400
12 -4.82049400 -0.50946400 -0.22475900 -0.47850200 -0.28490200 1.21053600
13 -1.82698400 -0.00006900 0.00000800 0.01386400 0.03805500 1.62217300
14 -1.43656900 0.00000400 0.00000300 -0.01732100 -0.07578600 0.13241200
15 -3.99235700 -0.89119100 -1.82790900 -0.68571500 0.29337500 1.78792400
16 -1.40591800 -0.00002500 -0.00000200 -0.00474800 -0.02908900 1.03564800
17 -1.17535800 0.00012600 -0.00001900 0.03337100 0.05922500 0.41712000
18 -4.52675100 -0.69058000 -1.12074100 -0.58814800 -0.00853300 1.62350700
19 -1.74403800 0.00003200 -0.00000800 -0.07404200 0.08160700 1.50629900
20 -1.36877100 0.00002300 0.00000200 0.00993500 0.05150500 0.08698400
21 -2.03839600 -0.89279000 0.93250400 1.93898400 0.21538600 0.74875200
22 -1.70607000 0.14882100 0.13171400 -0.00729200 0.04641800 0.40163700
23 -1.59928500 0.00001100 0.00001500 0.02997200 -0.03067600 0.77840300
24 5.51182000 0.00000800 -0.00000200 2.10196228 0.00110895 3.14091950
25 0.19684600 -0.00000200 0.00000300 2.79340678 -0.00112798 -3.14135279
26 -1.29483000 -15.58672000 -4.01722200 1.97586200 1.15991000 1.84280300
27 6.21448600 0.00000800 0.00001900 -2.36004774 0.39059148 -1.95203968
28 11.94488800 -0.00003100 -0.00020000 -0.41394803 1.36622044 -1.14264273
29 10.62016500 0.00000200 0.00000600 -2.63841345 -0.87200333 0.57046576
30 4.75115800 0.69437400 -0.83047400 0.01035400 -0.18701200 0.22546800
31 1.68806500 -0.00002200 0.00000200 0.00871700 -0.02311100 1.07732400
32 1.33615100 -0.00005100 -0.00000900 -0.01966400 -0.03335100 0.90470300
33 4.82051500 0.50933800 0.22486600 -0.16078000 -0.19857400 0.43859100
34 1.82699200 0.00006600 0.00001000 0.02668100 0.03043800 1.99251200
35 1.43658100 -0.00000600 0.00001000 0.01484100 0.00319600 -0.94170300
36 3.99235300 0.89108700 1.82799300 -0.53062100 0.08867800 0.91105900
37 1.40592600 0.00003100 -0.00000300 -0.01988900 -0.02179500 1.61407600
38 1.17536200 -0.00013200 0.00000100 -0.09551900 0.07798600 -0.93359900
39 4.52675800 0.69046400 1.12084300 -0.40167000 -0.05563700 0.80364000
40 1.74404100 -0.00003100 -0.00000200 -0.02939300 -0.00337500 1.86812600
41 1.36876700 -0.00003100 -0.00001800 -0.12957300 0.09181900 -1.14340300
42 1.80926700 0.89529100 -1.12010900 1.99067500 0.37480500 0.55887600
43 1.49513800 -0.24140500 0.04487900 0.00360000 -0.23414300 0.03443400
44 1.57425300 -0.10445000 0.03324400 0.03981700 0.07342300 -0.24671300
45 5.48872300 -0.02716200 0.01694700 -0.87631700 0.01765400 0.01041400
46 0.19684900 0.00000300 -0.00000100 -0.34822500 0.00001500 -0.00000200
47 0.00000000 0.00000000 0.00000000 0.00000000 0.00000000 -1.57079600
48 -4.16381200 1.79473400 -4.25436000 0.00000000 0.00000000 -3.14156200
49 -4.50930273 18.65597380 0.32318122 0.31445295 0.27561369 -0.99102901
50 9.68054400 0.76709100 -4.42391000 0.66994200 1.22657000 2.14442700
51 2.97751900 0.00125700 -1.28020400 0.00000000 0.00000000 0.00000000
52 -1.13600500 -0.00628100 -0.29562500 0.00000000 0.00000000 0.00000000
53 0.05843500 0.00066700 0.09728300 0.00000000 0.00000000 0.00000000
54 -1.09087800 0.04617100 0.46137700 0.00000000 0.00000000 0.00000000
55 0.76532200 -0.03277500 -1.35591700 0.00000000 0.00000000 0.00000000
56 -10.18440400 -0.01003900 1.60133600 0.00000000 0.00000000 0.00000000
57 -21.17495700 0.16805800 -1.06791200 0.00000000 0.00000000 0.00000000
58 -4.17994500 -2.40243000 -1.82029200 -2.93780700 1.27049300 -2.15177200
time 7
0 -0.00000100 7.45008900 -27.50902600 0.00000000 0.00000000 0.00003100
1 -0.00000200 0.00000000 0.00000000 1.57074700 -1.56714200 -1.57074700
2 4.25546600 -0.33518300 -0.00000200 0.00000000 0.00000000 -0.12484800
3 7.43125000 1.49647900 0.00000200 0.00000000 0.00000000 0.24545000
4 5.27847900 0.16554400 0.00000100 0.00000000 0.00000000 0.04851100
5 1.53203846 -8.72985530 2.90723526 1.97586500 1.15990900 -1.29878600
6 -6.21447800 -0.00000900 -0.00002600 3.00621598 -0.51726448 1.81211893
7 11.94488500 0.00000000 0.00000000 -0.40544498 -0.34672529 1.69771363
8 10.62018800 0.00000000 0.00000000 0.54270480 0.25613463 2.89295761
9 -4.75110800 -0.69449800 0.83058000 -0.04275600 -0.14370200 0.21348200
10 -1.68806800 0.00004700 -0.00003100 0.01416200 -0.02030400 0.83076300
11 -1.33614000 0.00005500 -0.00001000 0.02620400 -0.00294000 0.66573400
12 -4.82049400 -0.50946400 -0.22475900 -0.47850200 -0.28490200 1.21053600
13 -1.82698400 -0.00006900 0.00000800 0.01386400 0.03805500 1.62217300
14 -1.43656900 0.00000400 0.00000300 -0.01732100 -0.07578600 0.13241200
15 -3.99235700 -0.89119100 -1.82790900 -0.68571500 0.29337500 1.78792400
16 -1.40591800 -0.00002500 -0.00000200 -0.00474800 -0.02908900 1.03564800
17 -1.17535800 0.00012600 -0.00001900 0.03337100 0.05922500 0.41712000
18 -4.52675100 -0.69058000 -1.12074100 -0.58814800 -0.00853300 1.62350700
19 -1.74403800 0.00003200 -0.00000800 -0.07404200 0.08160700 1.50629900
20 -1.36877100 0.00002300 0.00000200 0.00993500 0.05150500 0.08698400
21 -2.03839600 -0.89279000 0.93250400 1.93898400 0.21538600 0.74875200
22 -1.70607000 0.14882100 0.13171400 -0.00729200 0.04641800 0.40163700
23 -1.59928500 0.00001100 0.00001500 0.02997200 -0.03067600 0.77840300
24 5.51182000 0.00000800 -0.00000200 2.10196228 0.00110895 3.14091950
25 0.19684600 -0.00000200 0.00000300 2.79340678 -0.00112798 -3.14135279
26 -1.29483000 -15.58672000 -4.01722200 1.97586200 1.15991000 1.84280300
27 6.21448600 0.00000800 0.00001900 -2.36563541 0.42151915 -1.86778706
28 11.94488800 -0.00003100 -0.00020000 -0.88319679 1.38334546 -1.62041710
29 10.62016500 0.00000200 0.00000600 -2.58890175 -0.94230684 0.52902252
30 4.75115800 0.69437400 -0.83047400 0.01035400 -0.18701200 0.22546800
31 1.68806500 -0.00002200 0.00000200 0.00871700 -0.02311100 1.07732400
32 1.33615100 -0.00005100 -0.00000900 -0.01966400 -0.03335100 0.90470300
33 4.82051500 0.50933800 0.22486600 -0.16078000 -0.19857400 0.43859100
34 1.82699200 0.00006600 0.00001000 0.02668100 0.03043800 1.99251200
35 1.43658100 -0.00000600 0.00001000 0.01484100 0.00319600 -0.94170300
36 3.99235300 0.89108700 1.82799300 -0.53062100 0.08867800 0.91105900
37 1.40592600 0.00003100 -0.00000300 -0.01988900 -0.02179500 1.61407600
38 1.17536200 -0.00013200 0.00000100 -0.09551900 0.07798600 -0.93359900
39 4.52675800 0.69046400 1.12084300 -0.40167000 -0.05563700 0.80364000
40 1.74404100 -0.00003100 -0.00000200 -0.02939300 -0.00337500 1.86812600
41 1.36876700 -0.00003100 -0.00001800 -0.12957300 0.09181900 -1.14340300
42 1.80926700 0.89529100 -1.12010900 1.99067500 0.37480500 0.55887600
43 1.49513800 -0.24140500 0.04487900 0.00360000 -0.23414300 0.03443400
44 1.57425300 -0.10445000 0.03324400 0.03981700 0.07342300 -0.24671300
45 5.48872300 -0.02716200 0.01694700 -0.87631700 0.01765400 0.01041400
46 0.19684900 0.00000300 -0.00000100 -0.34822500 0.00001500 -0.00000200
47 0.00000000 0.00000000 0.00000000 0.00000000 0.00000000 -1.57079600
48 -4.16381200 1.79473400 -4.25436000 0.00000000 0.00000000 -3.14156200
49 -5.46679992 18.78043210 0.11929829 0.36419014 0.28815408 -0.85671474
50 9.68054400 0.76709100 -4.42391000 0.66994200 1.22657000 2.14442700
51 2.97751900 0.00125700 -1.28020400 0.00000000 0.00000000 0.00000000
52 -1.13600500 -0.00628100 -0.29562500 0.00000000 0.00000000 0.00000000
53 0.05843500 0.00066700 0.09728300 0.00000000 0.00000000 0.00000000
54 -1.09087800 0.04617100 0.46137700 0.00000000 0.00000000 0.00000000
55 0.76532200 -0.03277500 -1.35591700 0.00000000 0.00000000 0.00000000
56 -10.18440400 -0.01003900 1.60133600 0.00000000 0.00000000 0.00000000
57 -21.17495700 0.16805800 -1.06791200 0.00000000 0.00000000 0.00000000
58 -4.17994500 -2.40243000 -1.82029200 -2.93780700 1.27049300 -2.15177200
time 8
0 -0.00000100 7.45008900 -27.50902600 0.00000000 0.00000000 0.00003100
1 -0.00000200 0.00000000 0.00000000 1.57074700 -1.56714200 -1.57074700
2 4.25546600 -0.33518300 -0.00000200 0.00000000 0.00000000 -0.12484800
3 7.43125000 1.49647900 0.00000200 0.00000000 0.00000000 0.24545000
4 5.27847900 0.16554400 0.00000100 0.00000000 0.00000000 0.04851100
5 0.67120760 -9.91097283 3.82826793 1.97586500 1.15990900 -1.29878600
6 -6.21447800 -0.00000900 -0.00002600 2.97328284 -0.46472275 1.72830556
7 11.94488500 0.00000000 0.00000000 -0.41323125 -0.34538759 1.72079045
8 10.62018800 0.00000000 0.00000000 0.49971928 0.25149174 2.86182068
9 -4.75110800 -0.69449800 0.83058000 -0.04275600 -0.14370200 0.21348200
10 -1.68806800 0.00004700 -0.00003100 0.01416200 -0.02030400 0.83076300
11 -1.33614000 0.00005500 -0.00001000 0.02620400 -0.00294000 0.66573400
12 -4.82049400 -0.50946400 -0.22475900 -0.47850200 -0.28490200 1.21053600
13 -1.82698400 -0.00006900 0.00000800 0.01386400 0.03805500 1.62217300
14 -1.43656900 0.00000400 0.00000300 -0.01732100 -0.07578600 0.13241200
15 -3.99235700 -0.89119100 -1.82790900 -0.68571500 0.29337500 1.78792400
16 -1.40591800 -0.00002500 -0.00000200 -0.00474800 -0.02908900 1.03564800
17 -1.17535800 0.00012600 -0.00001900 0.03337100 0.05922500 0.41712000
18 -4.52675100 -0.69058000 -1.12074100 -0.58814800 -0.00853300 1.62350700
19 -1.74403800 0.00003200 -0.00000800 -0.07404200 0.08160700 1.50629900
20 -1.36877100 0.00002300 0.00000200 0.00993500 0.05150500 0.08698400
21 -2.03839600 -0.89279000 0.93250395 1.93898400 0.21538600 0.74875200
22 -1.70607000 0.14882100 0.13171400 -0.00729200 0.04641800 0.40163700
23 -1.59928500 0.00001100 0.00001500 0.02997200 -0.03067600 0.77840300
24 5.51182000 0.00000800 -0.00000200 2.10196228 0.00110895 3.14091950
25 0.19684600 -0.00000200 0.00000300 2.79340678 -0.00112798 -3.14135279
26 -1.29483000 -15.58672000 -4.01722200 1.97586200 1.15991000 1.84280300
27 6.21448600 0.00000800 0.00001900 -2.37251070 0.46055922 -1.78602290
28 11.94488800 -0.00003100 -0.00020000 -1.33799164 1.35537489 -2.08380275
29 10.62016500 0.00000200 0.00000600 -2.55510255 -1.00382252 0.51420866
30 4.75115800 0.69437400 -0.83047400 0.01035400 -0.18701200 0.22546800
31 1.68806500 -0.00002200 0.00000200 0.00871700 -0.02311100 1.07732400
32 1.33615100 -0.00005100 -0.00000900 -0.01966400 -0.03335100 0.90470300
33 4.82051500 0.50933800 0.22486600 -0.16078000 -0.19857400 0.43859100
34 1.82699200 0.00006600 0.00001000 0.02668100 0.03043800 1.99251200
35 1.43658100 -0.00000600 0.00001000 0.01484100 0.00319600 -0.94170300
36 3.99235300 0.89108700 1.82799300 -0.53062100 0.08867800 0.91105900
37 1.40592600 0.00003100 -0.00000300 -0.01988900 -0.02179500 1.61407600
38 1.17536200 -0.00013200 0.00000100 -0.09551900 0.07798600 -0.93359900
39 4.52675800 0.69046400 1.12084300 -0.40167000 -0.05563700 0.80364000
40 1.74404100 -0.00003100 -0.00000200 -0.02939300 -0.00337500 1.86812600
41 1.36876700 -0.00003100 -0.00001800 -0.12957300 0.09181900 -1.14340300
42 1.80926711 0.89529100 -1.12010911 1.99067500 0.37480500 0.55887600
43 1.49513779 -0.24140500 0.04487889 0.00360000 -0.23414300 0.03443400
44 1.57425258 -0.10445005 0.03324400 0.03981700 0.07342300 -0.24671300
45 5.48872300 -0.02716205 0.01694700 -0.87631700 0.01765400 0.01041400
46 0.19684900 0.00000300 -0.00000100 -0.34822500 0.00001500 -0.00000200
47 0.00000000 0.00000000 0.00000000 0.00000000 0.00000000 -1.57079600
48 -4.16381200 1.79473400 -4.25436000 0.00000000 0.00000000 -3.14156200
49 -6.42739534 18.76970262 -0.13638769 0.39697382 0.28229278 -0.74291826
50 9.68054400 0.76709084 -4.42390979 0.66994200 1.22657000 2.14442700
51 2.97751900 0.00125700 -1.28020400 0.00000000 0.00000000 0.00000000
52 -1.13600500 -0.00628100 -0.29562500 0.00000000 0.00000000 0.00000000
53 0.05843500 0.00066700 0.09728300 0.00000000 0.00000000 0.00000000
54 -1.09087800 0.04617100 0.46137700 0.00000000 0.00000000 0.00000000
55 0.76532200 -0.03277500 -1.35591700 0.00000000 0.00000000 0.00000000
56 -10.18440400 -0.01003900 1.60133600 0.00000000 0.00000000 0.00000000
57 -21.17495700 0.16805800 -1.06791200 0.00000000 0.00000000 0.00000000
58 -4.17994500 -2.40243000 -1.82029200 -2.93780700 1.27049300 -2.15177200
time 9
0 -0.00000100 7.45008900 -27.50902600 0.00000000 0.00000000 0.00003100
1 -0.00000200 0.00000000 0.00000000 1.57074700 -1.56714200 -1.57074700
2 4.25546600 -0.33518300 -0.00000200 0.00000000 0.00000000 -0.12484800
3 7.43125000 1.49647900 0.00000200 0.00000000 0.00000000 0.24545000
4 5.27847900 0.16554400 0.00000100 0.00000000 0.00000000 0.04851100
5 -0.08734555 -10.95175935 4.63986989 1.97586500 1.15990900 -1.29878600
6 -6.21447800 -0.00000900 -0.00002600 2.94128712 -0.41097416 1.63987702
7 11.94488500 0.00000000 0.00000000 -0.41450186 -0.34374456 1.72462175
8 10.62018800 0.00000000 0.00000000 0.45358408 0.25476088 2.82548706
9 -4.75110800 -0.69449800 0.83058000 -0.04275600 -0.14370200 0.21348200
10 -1.68806800 0.00004700 -0.00003100 0.01416200 -0.02030400 0.83076300
11 -1.33614000 0.00005500 -0.00001000 0.02620400 -0.00294000 0.66573400
12 -4.82049400 -0.50946400 -0.22475900 -0.47850200 -0.28490200 1.21053600
13 -1.82698400 -0.00006900 0.00000800 0.01386400 0.03805500 1.62217300
14 -1.43656900 0.00000400 0.00000300 -0.01732100 -0.07578600 0.13241200
15 -3.99235700 -0.89119100 -1.82790900 -0.68571500 0.29337500 1.78792400
16 -1.40591800 -0.00002500 -0.00000200 -0.00474800 -0.02908900 1.03564800
17 -1.17535800 0.00012600 -0.00001900 0.03337100 0.05922500 0.41712000
18 -4.52675100 -0.69058000 -1.12074100 -0.58814800 -0.00853300 1.62350700
19 -1.74403800 0.00003200 -0.00000800 -0.07404200 0.08160700 1.50629900
20 -1.36877100 0.00002300 0.00000200 0.00993500 0.05150500 0.08698400
21 -2.03839600 -0.89279000 0.93250395 1.93898400 0.21538600 0.74875200
22 -1.70607000 0.14882100 0.13171400 -0.00729200 0.04641800 0.40163700
23 -1.59928500 0.00001100 0.00001500 0.02997200 -0.03067600 0.77840300
24 5.51182000 0.00000800 -0.00000200 2.10196228 0.00110895 3.14091950
25 0.19684600 -0.00000200 0.00000300 2.79340678 -0.00112798 -3.14135279
26 -1.29483000 -15.58672000 -4.01722200 1.97586200 1.15991000 1.84280300
27 6.21448600 0.00000800 0.00001900 -2.38277247 0.50205675 -1.71589410
28 11.94488800 -0.00003100 -0.00020000 -1.59287287 1.30718637 -2.34550625
29 10.62016500 0.00000200 0.00000600 -2.51238932 -1.04559028 0.48792713
30 4.75115800 0.69437400 -0.83047400 0.01035400 -0.18701200 0.22546800
31 1.68806500 -0.00002200 0.00000200 0.00871700 -0.02311100 1.07732400
32 1.33615100 -0.00005100 -0.00000900 -0.01966400 -0.03335100 0.90470300
33 4.82051500 0.50933800 0.22486600 -0.16078000 -0.19857400 0.43859100
34 1.82699200 0.00006600 0.00001000 0.02668100 0.03043800 1.99251200
35 1.43658100 -0.00000600 0.00001000 0.01484100 0.00319600 -0.94170300
36 3.99235300 0.89108700 1.82799300 -0.53062100 0.08867800 0.91105900
37 1.40592600 0.00003100 -0.00000300 -0.01988900 -0.02179500 1.61407600
38 1.17536200 -0.00013200 0.00000100 -0.09551900 0.07798600 -0.93359900
39 4.52675800 0.69046400 1.12084300 -0.40167000 -0.05563700 0.80364000
40 1.74404100 -0.00003100 -0.00000200 -0.02939300 -0.00337500 1.86812600
41 1.36876700 -0.00003100 -0.00001800 -0.12957300 0.09181900 -1.14340300
42 1.80926711 0.89529100 -1.12010911 1.99067500 0.37480500 0.55887600
43 1.49513779 -0.24140500 0.04487889 0.00360000 -0.23414300 0.03443400
44 1.57425258 -0.10445005 0.03324400 0.03981700 0.07342300 -0.24671300
45 5.48872300 -0.02716205 0.01694700 -0.87631700 0.01765400 0.01041400
46 0.19684900 0.00000300 -0.00000100 -0.34822500 0.00001500 -0.00000200
47 0.00000000 0.00000000 0.00000000 0.00000000 0.00000000 -1.57079600
48 -4.16381200 1.79473400 -4.25436000 0.00000000 0.00000000 -3.14156200
49 -7.29294022 18.74135609 -0.43684714 0.42306888 0.27212552 -0.64862053
50 9.68054400 0.76709084 -4.42390979 0.66994200 1.22657000 2.14442700
51 2.97751900 0.00125700 -1.28020400 0.00000000 0.00000000 0.00000000
52 -1.13600500 -0.00628100 -0.29562500 0.00000000 0.00000000 0.00000000
53 0.05843500 0.00066700 0.09728300 0.00000000 0.00000000 0.00000000
54 -1.09087800 0.04617100 0.46137700 0.00000000 0.00000000 0.00000000
55 0.76532200 -0.03277500 -1.35591700 0.00000000 0.00000000 0.00000000
56 -10.18440400 -0.01003900 1.60133600 0.00000000 0.00000000 0.00000000
57 -21.17495700 0.16805800 -1.06791200 0.00000000 0.00000000 0.00000000
58 -4.17994500 -2.40243000 -1.82029200 -2.93780700 1.27049300 -2.15177200
time 10
0 -0.00000100 7.45008900 -27.50902600 0.00000000 0.00000000 0.00003100
1 -0.00000200 0.00000000 0.00000000 1.57074700 -1.56714200 -1.57074700
2 4.25546600 -0.33518300 -0.00000200 0.00000000 0.00000000 -0.12484800
3 7.43125000 1.49647900 0.00000200 0.00000000 0.00000000 0.24545000
4 5.27847900 0.16554400 0.00000100 0.00000000 0.00000000 0.04851100
5 -0.69248545 -11.78204983 5.28732722 1.97586500 1.15990900 -1.29878600
6 -6.21447800 -0.00000900 -0.00002600 2.92805455 -0.37092517 1.58119176
7 11.94488500 0.00000000 0.00000000 -0.41478872 -0.34189976 1.72559375
8 10.62018800 0.00000000 0.00000000 0.41844905 0.24627682 2.81829685
9 -4.75110800 -0.69449800 0.83058000 -0.04275600 -0.14370200 0.21348200
10 -1.68806800 0.00004700 -0.00003100 0.01416200 -0.02030400 0.83076300
11 -1.33614000 0.00005500 -0.00001000 0.02620400 -0.00294000 0.66573400
12 -4.82049400 -0.50946400 -0.22475900 -0.47850200 -0.28490200 1.21053600
13 -1.82698400 -0.00006900 0.00000800 0.01386400 0.03805500 1.62217300
14 -1.43656900 0.00000400 0.00000300 -0.01732100 -0.07578600 0.13241200
15 -3.99235700 -0.89119100 -1.82790900 -0.68571500 0.29337500 1.78792400
16 -1.40591800 -0.00002500 -0.00000200 -0.00474800 -0.02908900 1.03564800
17 -1.17535800 0.00012600 -0.00001900 0.03337100 0.05922500 0.41712000
18 -4.52675100 -0.69058000 -1.12074100 -0.58814800 -0.00853300 1.62350700
19 -1.74403800 0.00003200 -0.00000800 -0.07404200 0.08160700 1.50629900
20 -1.36877100 0.00002300 0.00000200 0.00993500 0.05150500 0.08698400
21 -2.03839600 -0.89279000 0.93250395 1.93898400 0.21538600 0.74875200
22 -1.70607000 0.14882100 0.13171400 -0.00729200 0.04641800 0.40163700
23 -1.59928500 0.00001100 0.00001500 0.02997200 -0.03067600 0.77840300
24 5.51182000 0.00000800 -0.00000200 2.10196228 0.00110895 3.14091950
25 0.19684600 -0.00000200 0.00000300 2.79340678 -0.00112798 -3.14135279
26 -1.29483000 -15.58672000 -4.01722200 1.97586200 1.15991000 1.84280300
27 6.21448600 0.00000800 0.00001900 -2.38480319 0.53369230 -1.67693736
28 11.94488800 -0.00003100 -0.00020000 -1.71522721 1.26523551 -2.47243650
29 10.62016500 0.00000200 0.00000600 -2.45201346 -1.09202287 0.43549197
30 4.75115800 0.69437400 -0.83047400 0.01035400 -0.18701200 0.22546800
31 1.68806500 -0.00002200 0.00000200 0.00871700 -0.02311100 1.07732400
32 1.33615100 -0.00005100 -0.00000900 -0.01966400 -0.03335100 0.90470300
33 4.82051500 0.50933800 0.22486600 -0.16078000 -0.19857400 0.43859100
34 1.82699200 0.00006600 0.00001000 0.02668100 0.03043800 1.99251200
35 1.43658100 -0.00000600 0.00001000 0.01484100 0.00319600 -0.94170300
36 3.99235300 0.89108700 1.82799300 -0.53062100 0.08867800 0.91105900
37 1.40592600 0.00003100 -0.00000300 -0.01988900 -0.02179500 1.61407600
38 1.17536200 -0.00013200 0.00000100 -0.09551900 0.07798600 -0.93359900
39 4.52675800 0.69046400 1.12084300 -0.40167000 -0.05563700 0.80364000
40 1.74404100 -0.00003100 -0.00000200 -0.02939300 -0.00337500 1.86812600
41 1.36876700 -0.00003100 -0.00001800 -0.12957300 0.09181900 -1.14340300
42 1.80926711 0.89529100 -1.12010911 1.99067500 0.37480500 0.55887600
43 1.49513779 -0.24140500 0.04487889 0.00360000 -0.23414300 0.03443400
44 1.57425258 -0.10445005 0.03324400 0.03981700 0.07342300 -0.24671300
45 5.48872300 -0.02716205 0.01694700 -0.87631700 0.01765400 0.01041400
46 0.19684900 0.00000300 -0.00000100 -0.34822500 0.00001500 -0.00000200
47 0.00000000 0.00000000 0.00000000 0.00000000 0.00000000 -1.57079600
48 -4.16381200 1.79473400 -4.25436000 0.00000000 0.00000000 -3.14156200
49 -7.70232193 18.70126154 -0.65576078 0.44458222 0.26280857 -0.57188102
50 9.68054400 0.76709084 -4.42390979 0.66994200 1.22657000 2.14442700
51 2.97751900 0.00125700 -1.28020400 0.00000000 0.00000000 0.00000000
52 -1.13600500 -0.00628100 -0.29562500 0.00000000 0.00000000 0.00000000
53 0.05843500 0.00066700 0.09728300 0.00000000 0.00000000 0.00000000
54 -1.09087800 0.04617100 0.46137700 0.00000000 0.00000000 0.00000000
55 0.76532200 -0.03277500 -1.35591700 0.00000000 0.00000000 0.00000000
56 -10.18440400 -0.01003900 1.60133600 0.00000000 0.00000000 0.00000000
57 -21.17495700 0.16805800 -1.06791200 0.00000000 0.00000000 0.00000000
58 -4.17994500 -2.40243000 -1.82029200 -2.93780700 1.27049300 -2.15177200
time 11
0 -0.00000100 7.45008900 -27.50902600 0.00000000 0.00000000 0.00003100
1 -0.00000200 0.00000000 0.00000000 1.57074700 -1.56714200 -1.57074700
2 4.25546600 -0.33518300 -0.00000200 0.00000000 0.00000000 -0.12484800
3 7.43125000 1.49647900 0.00000200 0.00000000 0.00000000 0.24545000
4 5.27847900 0.16554400 0.00000100 0.00000000 0.00000000 0.04851100
5 -1.09306897 -12.33167828 5.71592694 1.97586500 1.15990900 -1.29878600
6 -6.21447800 -0.00000900 -0.00002600 2.93271468 -0.34689259 1.55065106
7 11.94488500 0.00000000 0.00000000 -0.41414009 -0.34029348 1.72382831
8 10.62018800 0.00000000 0.00000000 0.39884518 0.22796933 2.83888778
9 -4.75110800 -0.69449800 0.83058000 -0.04275600 -0.14370200 0.21348200
10 -1.68806800 0.00004700 -0.00003100 0.01416200 -0.02030400 0.83076300
11 -1.33614000 0.00005500 -0.00001000 0.02620400 -0.00294000 0.66573400
12 -4.82049400 -0.50946400 -0.22475900 -0.47850200 -0.28490200 1.21053600
13 -1.82698400 -0.00006900 0.00000800 0.01386400 0.03805500 1.62217300
14 -1.43656900 0.00000400 0.00000300 -0.01732100 -0.07578600 0.13241200
15 -3.99235700 -0.89119100 -1.82790900 -0.68571500 0.29337500 1.78792400
16 -1.40591800 -0.00002500 -0.00000200 -0.00474800 -0.02908900 1.03564800
17 -1.17535800 0.00012600 -0.00001900 0.03337100 0.05922500 0.41712000
18 -4.52675100 -0.69058000 -1.12074100 -0.58814800 -0.00853300 1.62350700
19 -1.74403800 0.00003200 -0.00000800 -0.07404200 0.08160700 1.50629900
20 -1.36877100 0.00002300 0.00000200 0.00993500 0.05150500 0.08698400
21 -2.03839600 -0.89279000 0.93250395 1.93898400 0.21538600 0.74875200
22 -1.70607000 0.14882100 0.13171400 -0.00729200 0.04641800 0.40163700
23 -1.59928500 0.00001100 0.00001500 0.02997200 -0.03067600 0.77840300
24 5.51182000 0.00000800 -0.00000200 2.10196228 0.00110895 3.14091950
25 0.19684600 -0.00000200 0.00000300 2.79340678 -0.00112798 -3.14135279
26 -1.29483000 -15.58672000 -4.01722200 1.97586200 1.15991000 1.84280300
27 6.21448600 0.00000800 0.00001900 -2.38200979 0.55414203 -1.66061030
28 11.94488800 -0.00003100 -0.00020000 -1.78064863 1.23348604 -2.54089345
29 10.62016500 0.00000200 0.00000600 -2.38313038 -1.13908322 0.36962923
30 4.75115800 0.69437400 -0.83047400 0.01035400 -0.18701200 0.22546800
31 1.68806500 -0.00002200 0.00000200 0.00871700 -0.02311100 1.07732400
32 1.33615100 -0.00005100 -0.00000900 -0.01966400 -0.03335100 0.90470300
33 4.82051500 0.50933800 0.22486600 -0.16078000 -0.19857400 0.43859100
34 1.82699200 0.00006600 0.00001000 0.02668100 0.03043800 1.99251200
35 1.43658100 -0.00000600 0.00001000 0.01484100 0.00319600 -0.94170300
36 3.99235300 0.89108700 1.82799300 -0.53062100 0.08867800 0.91105900
37 1.40592600 0.00003100 -0.00000300 -0.01988900 -0.02179500 1.61407600
38 1.17536200 -0.00013200 0.00000100 -0.09551900 0.07798600 -0.93359900
39 4.52675800 0.69046400 1.12084300 -0.40167000 -0.05563700 0.80364000
40 1.74404100 -0.00003100 -0.00000200 -0.02939300 -0.00337500 1.86812600
41 1.36876700 -0.00003100 -0.00001800 -0.12957300 0.09181900 -1.14340300
42 1.80926711 0.89529100 -1.12010911 1.99067500 0.37480500 0.55887600
43 1.49513779 -0.24140500 0.04487889 0.00360000 -0.23414300 0.03443400
44 1.57425258 -0.10445005 0.03324400 0.03981700 0.07342300 -0.24671300
45 5.48872300 -0.02716205 0.01694700 -0.87631700 0.01765400 0.01041400
46 0.19684900 0.00000300 -0.00000100 -0.34822500 0.00001500 -0.00000200
47 0.00000000 0.00000000 0.00000000 0.00000000 0.00000000 -1.57079600
48 -4.16381200 1.79473400 -4.25436000 0.00000000 0.00000000 -3.14156200
49 -7.81417405 18.65529153 -0.76277370 0.46246414 0.25409441 -0.51265179
50 9.68054400 0.76709084 -4.42390979 0.66994200 1.22657000 2.14442700
51 2.97751900 0.00125700 -1.28020400 0.00000000 0.00000000 0.00000000
52 -1.13600500 -0.00628100 -0.29562500 0.00000000 0.00000000 0.00000000
53 0.05843500 0.00066700 0.09728300 0.00000000 0.00000000 0.00000000
54 -1.09087800 0.04617100 0.46137700 0.00000000 0.00000000 0.00000000
55 0.76532200 -0.03277500 -1.35591700 0.00000000 0.00000000 0.00000000
56 -10.18440400 -0.01003900 1.60133600 0.00000000 0.00000000 0.00000000
57 -21.17495700 0.16805800 -1.06791200 0.00000000 0.00000000 0.00000000
58 -4.17994500 -2.40243000 -1.82029200 -2.93780700 1.27049300 -2.15177200
time 12
0 -0.00000100 7.45008900 -27.50902600 0.00000000 0.00000000 0.00003100
1 -0.00000200 0.00000000 0.00000000 1.57074700 -1.56714200 -1.57074700
2 4.25546600 -0.33518300 -0.00000200 0.00000000 0.00000000 -0.12484800
3 7.43125000 1.49647900 0.00000200 0.00000000 0.00000000 0.24545000
4 5.27847900 0.16554400 0.00000100 0.00000000 0.00000000 0.04851100
5 -1.23796153 -12.53048063 5.87095132 1.97586500 1.15990900 -1.29878600
6 -6.21447800 -0.00000900 -0.00002600 2.94683510 -0.33848740 1.54138183
7 11.94488500 0.00000000 0.00000000 -0.40861677 -0.34022443 1.70750339
8 10.62018800 0.00000000 0.00000000 0.39252148 0.21097926 2.88808152
9 -4.75110800 -0.69449800 0.83058000 -0.04275600 -0.14370200 0.21348200
10 -1.68806800 0.00004700 -0.00003100 0.01416200 -0.02030400 0.83076300
11 -1.33614000 0.00005500 -0.00001000 0.02620400 -0.00294000 0.66573400
12 -4.82049400 -0.50946400 -0.22475900 -0.47850200 -0.28490200 1.21053600
13 -1.82698400 -0.00006900 0.00000800 0.01386400 0.03805500 1.62217300
14 -1.43656900 0.00000400 0.00000300 -0.01732100 -0.07578600 0.13241200
15 -3.99235700 -0.89119100 -1.82790900 -0.68571500 0.29337500 1.78792400
16 -1.40591800 -0.00002500 -0.00000200 -0.00474800 -0.02908900 1.03564800
17 -1.17535800 0.00012600 -0.00001900 0.03337100 0.05922500 0.41712000
18 -4.52675100 -0.69058000 -1.12074100 -0.58814800 -0.00853300 1.62350700
19 -1.74403800 0.00003200 -0.00000800 -0.07404200 0.08160700 1.50629900
20 -1.36877100 0.00002300 0.00000200 0.00993500 0.05150500 0.08698400
21 -2.03839600 -0.89279000 0.93250395 1.93898400 0.21538600 0.74875200
22 -1.70607000 0.14882100 0.13171400 -0.00729200 0.04641800 0.40163700
23 -1.59928500 0.00001100 0.00001500 0.02997200 -0.03067600 0.77840300
24 5.51182000 0.00000800 -0.00000200 2.10196228 0.00110895 3.14091950
25 0.19684600 -0.00000200 0.00000300 2.79340678 -0.00112798 -3.14135279
26 -1.29483000 -15.58672000 -4.01722200 1.97586200 1.15991000 1.84280300
27 6.21448600 0.00000800 0.00001900 -2.37806697 0.56553222 -1.65336088
28 11.94488800 -0.00003100 -0.00020000 -1.82010465 1.21094389 -2.58247381
29 10.62016500 0.00000200 0.00000600 -2.31929320 -1.17778978 0.30611815
30 4.75115800 0.69437400 -0.83047400 0.01035400 -0.18701200 0.22546800
31 1.68806500 -0.00002200 0.00000200 0.00871700 -0.02311100 1.07732400
32 1.33615100 -0.00005100 -0.00000900 -0.01966400 -0.03335100 0.90470300
33 4.82051500 0.50933800 0.22486600 -0.16078000 -0.19857400 0.43859100
34 1.82699200 0.00006600 0.00001000 0.02668100 0.03043800 1.99251200
35 1.43658100 -0.00000600 0.00001000 0.01484100 0.00319600 -0.94170300
36 3.99235300 0.89108700 1.82799300 -0.53062100 0.08867800 0.91105900
37 1.40592600 0.00003100 -0.00000300 -0.01988900 -0.02179500 1.61407600
38 1.17536200 -0.00013200 0.00000100 -0.09551900 0.07798600 -0.93359900
39 4.52675800 0.69046400 1.12084300 -0.40167000 -0.05563700 0.80364000
40 1.74404100 -0.00003100 -0.00000200 -0.02939300 -0.00337500 1.86812600
41 1.36876700 -0.00003100 -0.00001800 -0.12957300 0.09181900 -1.14340300
42 1.80926711 0.89529100 -1.12010911 1.99067500 0.37480500 0.55887600
43 1.49513779 -0.24140500 0.04487889 0.00360000 -0.23414300 0.03443400
44 1.57425258 -0.10445005 0.03324400 0.03981700 0.07342300 -0.24671300
45 5.48872300 -0.02716205 0.01694700 -0.87631700 0.01765400 0.01041400
46 0.19684900 0.00000300 -0.00000100 -0.34822500 0.00001500 -0.00000200
47 0.00000000 0.00000000 0.00000000 0.00000000 0.00000000 -1.57079600
48 -4.16381200 1.79473400 -4.25436000 0.00000000 0.00000000 -3.14156200
49 -7.82615676 18.60931486 -0.79339692 0.47703515 0.24657132 -0.46911033
50 9.68054400 0.76709084 -4.42390979 0.66994200 1.22657000 2.14442700
51 2.97751900 0.00125700 -1.28020400 0.00000000 0.00000000 0.00000000
52 -1.13600500 -0.00628100 -0.29562500 0.00000000 0.00000000 0.00000000
53 0.05843500 0.00066700 0.09728300 0.00000000 0.00000000 0.00000000
54 -1.09087800 0.04617100 0.46137700 0.00000000 0.00000000 0.00000000
55 0.76532200 -0.03277500 -1.35591700 0.00000000 0.00000000 0.00000000
56 -10.18440400 -0.01003900 1.60133600 0.00000000 0.00000000 0.00000000
57 -21.17495700 0.16805800 -1.06791200 0.00000000 0.00000000 0.00000000
58 -4.17994500 -2.40243000 -1.82029200 -2.93780700 1.27049300 -2.15177200
time 13
0 -0.00000100 7.45008900 -27.50902600 0.00000000 0.00000000 0.00003100
1 -0.00000200 0.00000000 0.00000000 1.57074700 -1.56714200 -1.57074700
2 4.25546600 -0.33518300 -0.00000200 0.00000000 0.00000000 -0.12484800
3 7.43125000 1.49647900 0.00000200 0.00000000 0.00000000 0.24545000
4 5.27847900 0.16554400 0.00000100 0.00000000 0.00000000 0.04851100
5 -1.23796153 -12.53048063 5.87095132 1.97586500 1.15990900 -1.29878600
6 -6.21447800 -0.00000900 -0.00002600 2.96034065 -0.33856307 1.54204955
7 11.94488500 0.00000000 0.00000000 -0.40136105 -0.34043117 1.68610543
8 10.62018800 0.00000000 0.00000000 0.38693347 0.20229442 2.93971017
9 -4.75110800 -0.69449800 0.83058000 -0.04275600 -0.14370200 0.21348200
10 -1.68806800 0.00004700 -0.00003100 0.01416200 -0.02030400 0.83076300
11 -1.33614000 0.00005500 -0.00001000 0.02620400 -0.00294000 0.66573400
12 -4.82049400 -0.50946400 -0.22475900 -0.47850200 -0.28490200 1.21053600
13 -1.82698400 -0.00006900 0.00000800 0.01386400 0.03805500 1.62217300
14 -1.43656900 0.00000400 0.00000300 -0.01732100 -0.07578600 0.13241200
15 -3.99235700 -0.89119100 -1.82790900 -0.68571500 0.29337500 1.78792400
16 -1.40591800 -0.00002500 -0.00000200 -0.00474800 -0.02908900 1.03564800
17 -1.17535800 0.00012600 -0.00001900 0.03337100 0.05922500 0.41712000
18 -4.52675100 -0.69058000 -1.12074100 -0.58814800 -0.00853300 1.62350700
19 -1.74403800 0.00003200 -0.00000800 -0.07404200 0.08160700 1.50629900
20 -1.36877100 0.00002300 0.00000200 0.00993500 0.05150500 0.08698400
21 -2.03839600 -0.89279000 0.93250395 1.93898400 0.21538600 0.74875200
22 -1.70607000 0.14882100 0.13171400 -0.00729200 0.04641800 0.40163700
23 -1.59928500 0.00001100 0.00001500 0.02997200 -0.03067600 0.77840300
24 5.51182000 0.00000800 -0.00000200 2.10196228 0.00110895 3.14091950
25 0.19684600 -0.00000200 0.00000300 2.79340678 -0.00112798 -3.14135279
26 -1.29483000 -15.58672000 -4.01722200 1.97586200 1.15991000 1.84280300
27 6.21448600 0.00000800 0.00001900 -2.37715421 0.56930856 -1.65208317
28 11.94488800 -0.00003100 -0.00020000 -1.84701923 1.19580652 -2.61098664
29 10.62016500 0.00000200 0.00000600 -2.26556494 -1.20784311 0.26038958
30 4.75115800 0.69437400 -0.83047400 0.01035400 -0.18701200 0.22546800
31 1.68806500 -0.00002200 0.00000200 0.00871700 -0.02311100 1.07732400
32 1.33615100 -0.00005100 -0.00000900 -0.01966400 -0.03335100 0.90470300
33 4.82051500 0.50933800 0.22486600 -0.16078000 -0.19857400 0.43859100
34 1.82699200 0.00006600 0.00001000 0.02668100 0.03043800 1.99251200
35 1.43658100 -0.00000600 0.00001000 0.01484100 0.00319600 -0.94170300
36 3.99235300 0.89108700 1.82799300 -0.53062100 0.08867800 0.91105900
37 1.40592600 0.00003100 -0.00000300 -0.01988900 -0.02179500 1.61407600
38 1.17536200 -0.00013200 0.00000100 -0.09551900 0.07798600 -0.93359900
39 4.52675800 0.69046400 1.12084300 -0.40167000 -0.05563700 0.80364000
40 1.74404100 -0.00003100 -0.00000200 -0.02939300 -0.00337500 1.86812600
41 1.36876700 -0.00003100 -0.00001800 -0.12957300 0.09181900 -1.14340300
42 1.80926711 0.89529100 -1.12010911 1.99067500 0.37480500 0.55887600
43 1.49513779 -0.24140500 0.04487889 0.00360000 -0.23414300 0.03443400
44 1.57425258 -0.10445005 0.03324400 0.03981700 0.07342300 -0.24671300
45 5.48872300 -0.02716205 0.01694700 -0.87631700 0.01765400 0.01041400
46 0.19684900 0.00000300 -0.00000100 -0.34822500 0.00001500 -0.00000200
47 0.00000000 0.00000000 0.00000000 0.00000000 0.00000000 -1.57079600
48 -4.16381200 1.79473400 -4.25436000 0.00000000 0.00000000 -3.14156200
49 -7.79434851 18.56920600 -0.77493921 0.48239048 0.24348697 -0.43905649
50 9.68054400 0.76709084 -4.42390979 0.66994200 1.22657000 2.14442700
51 2.97751900 0.00125700 -1.28020400 0.00000000 0.00000000 0.00000000
52 -1.13600500 -0.00628100 -0.29562500 0.00000000 0.00000000 0.00000000
53 0.05843500 0.00066700 0.09728300 0.00000000 0.00000000 0.00000000
54 -1.09087800 0.04617100 0.46137700 0.00000000 0.00000000 0.00000000
55 0.76532200 -0.03277500 -1.35591700 0.00000000 0.00000000 0.00000000
56 -10.18440400 -0.01003900 1.60133600 0.00000000 0.00000000 0.00000000
57 -21.17495700 0.16805800 -1.06791200 0.00000000 0.00000000 0.00000000
58 -4.17994500 -2.40243000 -1.82029200 -2.93780700 1.27049300 -2.15177200
time 14
0 -0.00000100 7.45008900 -27.50902600 0.00000000 0.00000000 0.00003100
1 -0.00000200 0.00000000 0.00000000 1.57074700 -1.56714200 -1.57074700
2 4.25546600 -0.33518300 -0.00000200 0.00000000 0.00000000 -0.12484800
3 7.43125000 1.49647900 0.00000200 0.00000000 0.00000000 0.24545000
4 5.27847900 0.16554400 0.00000100 0.00000000 0.00000000 0.04851100
5 -1.23796153 -12.53048063 5.87095132 1.97586500 1.15990900 -1.29878600
6 -6.21447800 -0.00000900 -0.00002600 2.96663041 -0.33865760 1.54388996
7 11.94488500 0.00000000 0.00000000 -0.39755272 -0.33940964 1.67505306
8 10.62018800 0.00000000 0.00000000 0.37416686 0.20182653 2.96722688
9 -4.75110800 -0.69449800 0.83058000 -0.04275600 -0.14370200 0.21348200
10 -1.68806800 0.00004700 -0.00003100 0.01416200 -0.02030400 0.83076300
11 -1.33614000 0.00005500 -0.00001000 0.02620400 -0.00294000 0.66573400
12 -4.82049400 -0.50946400 -0.22475900 -0.47850200 -0.28490200 1.21053600
13 -1.82698400 -0.00006900 0.00000800 0.01386400 0.03805500 1.62217300
14 -1.43656900 0.00000400 0.00000300 -0.01732100 -0.07578600 0.13241200
15 -3.99235700 -0.89119100 -1.82790900 -0.68571500 0.29337500 1.78792400
16 -1.40591800 -0.00002500 -0.00000200 -0.00474800 -0.02908900 1.03564800
17 -1.17535800 0.00012600 -0.00001900 0.03337100 0.05922500 0.41712000
18 -4.52675100 -0.69058000 -1.12074100 -0.58814800 -0.00853300 1.62350700
19 -1.74403800 0.00003200 -0.00000800 -0.07404200 0.08160700 1.50629900
20 -1.36877100 0.00002300 0.00000200 0.00993500 0.05150500 0.08698400
21 -2.03839600 -0.89279000 0.93250395 1.93898400 0.21538600 0.74875200
22 -1.70607000 0.14882100 0.13171400 -0.00729200 0.04641800 0.40163700
23 -1.59928500 0.00001100 0.00001500 0.02997200 -0.03067600 0.77840300
24 5.51182000 0.00000800 -0.00000200 2.10196228 0.00110895 3.14091950
25 0.19684600 -0.00000200 0.00000300 2.79340678 -0.00112798 -3.14135279
26 -1.29483000 -15.58672000 -4.01722200 1.97586200 1.15991000 1.84280300
27 6.21448600 0.00000800 0.00001900 -2.37818627 0.56821362 -1.65415215
28 11.94488800 -0.00003100 -0.00020000 -1.86629154 1.18644324 -2.63165880
29 10.62016500 0.00000200 0.00000600 -2.22631924 -1.23175177 0.23751315
30 4.75115800 0.69437400 -0.83047400 0.01035400 -0.18701200 0.22546800
31 1.68806500 -0.00002200 0.00000200 0.00871700 -0.02311100 1.07732400
32 1.33615100 -0.00005100 -0.00000900 -0.01966400 -0.03335100 0.90470300
33 4.82051500 0.50933800 0.22486600 -0.16078000 -0.19857400 0.43859100
34 1.82699200 0.00006600 0.00001000 0.02668100 0.03043800 1.99251200
35 1.43658100 -0.00000600 0.00001000 0.01484100 0.00319600 -0.94170300
36 3.99235300 0.89108700 1.82799300 -0.53062100 0.08867800 0.91105900
37 1.40592600 0.00003100 -0.00000300 -0.01988900 -0.02179500 1.61407600
38 1.17536200 -0.00013200 0.00000100 -0.09551900 0.07798600 -0.93359900
39 4.52675800 0.69046400 1.12084300 -0.40167000 -0.05563700 0.80364000
40 1.74404100 -0.00003100 -0.00000200 -0.02939300 -0.00337500 1.86812600
41 1.36876700 -0.00003100 -0.00001800 -0.12957300 0.09181900 -1.14340300
42 1.80926711 0.89529100 -1.12010911 1.99067500 0.37480500 0.55887600
43 1.49513779 -0.24140500 0.04487889 0.00360000 -0.23414300 0.03443400
44 1.57425258 -0.10445005 0.03324400 0.03981700 0.07342300 -0.24671300
45 5.48872300 -0.02716205 0.01694700 -0.87631700 0.01765400 0.01041400
46 0.19684900 0.00000300 -0.00000100 -0.34822500 0.00001500 -0.00000200
47 0.00000000 0.00000000 0.00000000 0.00000000 0.00000000 -1.57079600
48 -4.16381200 1.79473400 -4.25436000 0.00000000 0.00000000 -3.14156200
49 -7.73248371 18.54083564 -0.74206147 0.47708206 0.24456156 -0.42034128
50 9.68054400 0.76709084 -4.42390979 0.66994200 1.22657000 2.14442700
51 2.97751900 0.00125700 -1.28020400 0.00000000 0.00000000 0.00000000
52 -1.13600500 -0.00628100 -0.29562500 0.00000000 0.00000000 0.00000000
53 0.05843500 0.00066700 0.09728300 0.00000000 0.00000000 0.00000000
54 -1.09087800 0.04617100 0.46137700 0.00000000 0.00000000 0.00000000
55 0.76532200 -0.03277500 -1.35591700 0.00000000 0.00000000 0.00000000
56 -10.18440400 -0.01003900 1.60133600 0.00000000 0.00000000 0.00000000
57 -21.17495700 0.16805800 -1.06791200 0.00000000 0.00000000 0.00000000
58 -4.17994500 -2.40243000 -1.82029200 -2.93780700 1.27049300 -2.15177200
time 15
0 -0.00000100 7.45008900 -27.50902600 0.00000000 0.00000000 0.00003100
1 -0.00000200 0.00000000 0.00000000 1.57074700 -1.56714200 -1.57074700
2 4.25546600 -0.33518300 -0.00000200 0.00000000 0.00000000 -0.12484800
3 7.43125000 1.49647900 0.00000200 0.00000000 0.00000000 0.24545000
4 5.27847900 0.16554400 0.00000100 0.00000000 0.00000000 0.04851100
5 -1.23796153 -12.53048063 5.87095132 1.97586500 1.15990900 -1.29878600
6 -6.21447800 -0.00000900 -0.00002600 2.96830626 -0.33888284 1.54844712
7 11.94488500 0.00000000 0.00000000 -0.39692721 -0.33678604 1.67314105
8 10.62018800 0.00000000 0.00000000 0.36153860 0.20554004 2.97694236
9 -4.75110800 -0.69449800 0.83058000 -0.04275600 -0.14370200 0.21348200
10 -1.68806800 0.00004700 -0.00003100 0.01416200 -0.02030400 0.83076300
11 -1.33614000 0.00005500 -0.00001000 0.02620400 -0.00294000 0.66573400
12 -4.82049400 -0.50946400 -0.22475900 -0.47850200 -0.28490200 1.21053600
13 -1.82698400 -0.00006900 0.00000800 0.01386400 0.03805500 1.62217300
14 -1.43656900 0.00000400 0.00000300 -0.01732100 -0.07578600 0.13241200
15 -3.99235700 -0.89119100 -1.82790900 -0.68571500 0.29337500 1.78792400
16 -1.40591800 -0.00002500 -0.00000200 -0.00474800 -0.02908900 1.03564800
17 -1.17535800 0.00012600 -0.00001900 0.03337100 0.05922500 0.41712000
18 -4.52675100 -0.69058000 -1.12074100 -0.58814800 -0.00853300 1.62350700
19 -1.74403800 0.00003200 -0.00000800 -0.07404200 0.08160700 1.50629900
20 -1.36877100 0.00002300 0.00000200 0.00993500 0.05150500 0.08698400
21 -2.03839600 -0.89279000 0.93250400 1.93898400 0.21538600 0.74875200
22 -1.70607000 0.14882100 0.13171400 -0.00729200 0.04641800 0.40163700
23 -1.59928500 0.00001100 0.00001500 0.02997200 -0.03067600 0.77840300
24 5.51182000 0.00000800 -0.00000200 2.10196228 0.00110895 3.14091950
25 0.19684600 -0.00000200 0.00000300 2.79340678 -0.00112798 -3.14135279
26 -1.29483000 -15.58672000 -4.01722200 1.97586200 1.15991000 1.84280300
27 6.21448600 0.00000800 0.00001900 -2.37869255 0.56521343 -1.65780354
28 11.94488800 -0.00003100 -0.00020000 -1.87841645 1.18344172 -2.64468080
29 10.62016500 0.00000200 0.00000600 -2.20540574 -1.24731200 0.23026045
30 4.75115800 0.69437400 -0.83047400 0.01035400 -0.18701200 0.22546800
31 1.68806500 -0.00002200 0.00000200 0.00871700 -0.02311100 1.07732400
32 1.33615100 -0.00005100 -0.00000900 -0.01966400 -0.03335100 0.90470300
33 4.82051500 0.50933800 0.22486600 -0.16078000 -0.19857400 0.43859100
34 1.82699200 0.00006600 0.00001000 0.02668100 0.03043800 1.99251200
35 1.43658100 -0.00000600 0.00001000 0.01484100 0.00319600 -0.94170300
36 3.99235300 0.89108700 1.82799300 -0.53062100 0.08867800 0.91105900
37 1.40592600 0.00003100 -0.00000300 -0.01988900 -0.02179500 1.61407600
38 1.17536200 -0.00013200 0.00000100 -0.09551900 0.07798600 -0.93359900
39 4.52675800 0.69046400 1.12084300 -0.40167000 -0.05563700 0.80364000
40 1.74404100 -0.00003100 -0.00000200 -0.02939300 -0.00337500 1.86812600
41 1.36876700 -0.00003100 -0.00001800 -0.12957300 0.09181900 -1.14340300
42 1.80926700 0.89529100 -1.12010900 1.99067500 0.37480500 0.55887600
43 1.49513800 -0.24140500 0.04487900 0.00360000 -0.23414300 0.03443400
44 1.57425300 -0.10445000 0.03324400 0.03981700 0.07342300 -0.24671300
45 5.48872300 -0.02716200 0.01694700 -0.87631700 0.01765400 0.01041400
46 0.19684900 0.00000300 -0.00000100 -0.34822500 0.00001500 -0.00000200
47 0.00000000 0.00000000 0.00000000 0.00000000 0.00000000 -1.57079600
48 -4.16381200 1.79473400 -4.25436000 0.00000000 0.00000000 -3.14156200
49 -7.64697142 18.53007350 -0.72024512 0.46875969 0.24749960 -0.41230776
50 9.68054400 0.76709100 -4.42391000 0.66994200 1.22657000 2.14442700
51 2.97751900 0.00125700 -1.28020400 0.00000000 0.00000000 0.00000000
52 -1.13600500 -0.00628100 -0.29562500 0.00000000 0.00000000 0.00000000
53 0.05843500 0.00066700 0.09728300 0.00000000 0.00000000 0.00000000
54 -1.09087800 0.04617100 0.46137700 0.00000000 0.00000000 0.00000000
55 0.76532200 -0.03277500 -1.35591700 0.00000000 0.00000000 0.00000000
56 -10.18440400 -0.01003900 1.60133600 0.00000000 0.00000000 0.00000000
57 -21.17495700 0.16805800 -1.06791200 0.00000000 0.00000000 0.00000000
58 -4.17994500 -2.40243000 -1.82029200 -2.93780700 1.27049300 -2.15177200
end
