version 1
nodes
0 "root" -1
1 "pelvis" 0
2 "spine_01" 1
3 "spine_02" 2
4 "spine_03" 3
5 "clavicle_r" 4
6 "upperarm_r" 5
7 "lowerarm_r" 6
8 "hand_r" 7
9 "index_01_r" 8
10 "index_02_r" 9
11 "index_03_r" 10
12 "middle_01_r" 8
13 "middle_02_r" 12
14 "middle_03_r" 13
15 "pinky_01_r" 8
16 "pinky_02_r" 15
17 "pinky_03_r" 16
18 "ring_01_r" 8
19 "ring_02_r" 18
20 "ring_03_r" 19
21 "thumb_01_r" 8
22 "thumb_02_r" 21
23 "thumb_03_r" 22
24 "lowerarm_twist_01_r" 7
25 "upperarm_twist_01_r" 6
26 "clavicle_l" 4
27 "upperarm_l" 26
28 "lowerarm_l" 27
29 "hand_l" 28
30 "index_01_l" 29
31 "index_02_l" 30
32 "index_03_l" 31
33 "middle_01_l" 29
34 "middle_02_l" 33
35 "middle_03_l" 34
36 "pinky_01_l" 29
37 "pinky_02_l" 36
38 "pinky_03_l" 37
39 "ring_01_l" 29
40 "ring_02_l" 39
41 "ring_03_l" 40
42 "thumb_01_l" 29
43 "thumb_02_l" 42
44 "thumb_03_l" 43
45 "lowerarm_twist_01_l" 28
46 "upperarm_twist_01_l" 27
47 "cam_driver" -1
48 "BaseRoot" -1
49 "Base" 48
50 "rhand_ikTarget" 49
51 "Trigger" 49
52 "Mag" 49
53 "Bullets" 52
54 "Bolt" 49
55 "MagRelease" 49
56 "lhand_ikTarget" 49
end
skeleton
time 0
0 -0.00000100 7.45008900 -27.50902600 0.00000000 0.00000000 0.00003100
1 -0.00000200 0.00000000 0.00000000 1.57074300 -1.56713700 -1.57074300
2 4.25546800 -0.33518300 -0.00000200 0.00000000 0.00000000 -0.12484800
3 7.43124800 1.49647700 0.00000200 0.00000000 0.00000000 0.24545000
4 5.27847900 0.16554100 0.00000100 0.00000000 0.00000000 0.04851100
5 4.13153500 -5.04083300 -1.73732300 1.97586400 1.15990900 -1.29878600
6 -6.21448200 -0.00000700 -0.00002700 -2.75091149 -0.53336861 1.61242842
7 11.94488700 0.00000000 0.00000000 -0.35393532 -0.32420902 1.96028466
8 10.62018300 0.00000000 -0.00000100 0.92167128 -0.17826225 1.63646204
9 -4.75111200 -0.69449200 0.83057300 0.04913500 -0.07824800 0.26163600
10 -1.68807100 0.00004700 -0.00003100 0.02216600 -0.01093400 0.32820700
11 -1.33613900 0.00005600 -0.00001200 0.02584800 0.00498300 0.36433000
12 -4.82049900 -0.50945800 -0.22476000 -0.30996000 0.01843000 1.56221200
13 -1.82699000 -0.00006600 0.00000700 -0.01505300 0.03754500 0.89279800
14 -1.43657900 0.00001100 0.00000300 -0.04326900 -0.06465400 0.49796600
15 -3.99236100 -0.89118600 -1.82790700 -0.39357000 0.38726600 1.76892200
16 -1.40592400 -0.00002500 -0.00000300 0.01207400 -0.02686800 0.45175400
17 -1.17536200 0.00012700 -0.00002000 0.05312600 0.04227700 0.80292000
18 -4.52675500 -0.69057300 -1.12074400 -0.26184200 0.27532100 1.85528700
19 -1.74404500 0.00003700 -0.00000800 -0.00637800 -0.02888000 0.62763700
20 -1.36876500 0.00002400 0.00000400 0.02849100 0.04404900 0.47030300
21 -1.87480200 -0.93512600 0.99917200 2.30037900 0.31378400 1.08810900
22 -1.52345300 0.00003000 0.00002700 0.05305500 0.16566500 0.41250900
23 -1.59928500 0.00000500 0.00001200 0.03405500 -0.02608500 0.63444600
24 5.58312400 0.11572500 0.29499600 2.70854600 -0.05525400 3.09741800
25 0.19684900 -0.00000300 0.00000300 2.79340692 -0.00057652 -3.14146182
26 4.36794400 -13.17295200 -12.89873600 1.26912100 0.33265300 1.49897700
27 6.21448500 0.00000600 0.00002000 -2.16972938 0.25290177 2.46559094
28 11.94488700 -0.00003400 -0.00019000 -0.25573435 -0.24806865 -0.81611214
29 10.62016500 0.00000600 0.00000800 -1.81910065 -0.08128033 0.28701126
30 4.75115700 0.69437500 -0.83047200 -0.33844000 -0.26124800 1.29342300
31 1.68806600 -0.00002600 0.00000200 0.01051700 -0.02235900 0.99904800
32 1.33614400 -0.00005300 -0.00000900 0.01010300 -0.03737100 0.10701300
33 4.82051300 0.50933800 0.22486600 -0.39832600 0.00393300 1.77193500
34 1.82699600 0.00006700 0.00000800 -0.02935500 0.02785900 0.46325400
35 1.43658100 -0.00001000 0.00000700 0.01148900 -0.00990700 -0.01879000
36 3.99235000 0.89108800 1.82799500 -0.52235300 0.24838200 1.74219200
37 1.40592100 0.00002400 -0.00000500 0.01079800 -0.02744800 0.50116800
38 1.17536400 -0.00013000 0.00000300 0.04460100 0.11489700 0.32615100
39 4.52675500 0.69045900 1.12084200 -0.46444700 0.15476900 1.82939800
40 1.74404200 -0.00003200 -0.00000200 -0.00259100 -0.02944900 0.49814700
41 1.36876300 -0.00003200 -0.00001700 0.03581200 0.15457400 0.04304500
42 1.93928100 1.01468600 -0.90910100 1.98461200 0.85942500 0.40831000
43 1.52345200 -0.00003300 -0.00000300 0.00344600 -0.10446000 0.25108100
44 1.59927900 0.00000100 0.00000600 0.05381000 0.06390000 -0.04381700
45 5.51180600 0.00000000 0.00000400 -0.27198700 0.00000000 0.00000000
46 0.19684700 0.00000100 0.00000000 -0.34822500 0.00001500 -0.00000200
47 0.00000000 0.00000000 0.00000000 0.00000000 0.00000000 -1.57079600
48 -3.84604500 4.36570100 -3.19804200 0.00000000 0.00000000 -3.14156200
49 -3.61939316 20.63943114 0.64642264 -0.01619245 -0.01120792 -1.57415037
50 10.29365200 1.65650000 -1.39242200 -0.59230200 1.24938800 1.04281400
51 3.12262200 -0.01178200 -0.68646900 0.00000000 0.00000000 0.00000000
52 -4.01753200 -0.01178200 0.12452700 0.00000000 0.00000000 0.00000000
53 0.05046500 0.00000000 0.46481100 0.00000000 0.00000000 0.00000000
54 1.27159100 0.74292900 1.02600600 0.00000000 0.00000000 0.00000000
55 -3.03010000 -0.02560600 -1.06275300 0.00000000 0.00000000 0.00000000
56 2.12937200 -2.30115700 -2.87848400 3.04987700 0.77861500 -2.38808600
time 1
0 -0.00000100 7.45008900 -27.50902600 0.00000000 0.00000000 0.00003100
1 -0.00000200 0.00000000 0.00000000 1.57074300 -1.56713700 -1.57074300
2 4.25546800 -0.33518300 -0.00000200 0.00000000 0.00000000 -0.12484800
3 7.43124800 1.49647700 0.00000200 0.00000000 0.00000000 0.24545000
4 5.27847900 0.16554100 0.00000100 0.00000000 0.00000000 0.04851100
5 4.01780300 -5.19928900 -1.57897500 1.97586400 1.15990900 -1.29878600
6 -6.21448200 -0.00000700 -0.00002700 -2.75641361 -0.54856678 1.62108697
7 11.94488700 0.00000000 0.00000000 -0.35938795 -0.32188341 1.97745553
8 10.62018300 0.00000000 -0.00000100 0.92116971 -0.18008114 1.66172842
9 -4.75111200 -0.69449200 0.83057300 0.04913500 -0.07824800 0.26163600
10 -1.68807100 0.00004700 -0.00003100 0.02216600 -0.01093400 0.32820700
11 -1.33613900 0.00005600 -0.00001200 0.02584800 0.00498300 0.36433000
12 -4.82049900 -0.50945800 -0.22476000 -0.30996000 0.01843000 1.56221200
13 -1.82699000 -0.00006600 0.00000700 -0.01505300 0.03754500 0.89279800
14 -1.43657900 0.00001100 0.00000300 -0.04326900 -0.06465400 0.49796600
15 -3.99236100 -0.89118600 -1.82790700 -0.39357000 0.38726600 1.76892200
16 -1.40592400 -0.00002500 -0.00000300 0.01207400 -0.02686800 0.45175400
17 -1.17536200 0.00012700 -0.00002000 0.05312600 0.04227700 0.80292000
18 -4.52675500 -0.69057300 -1.12074400 -0.26184200 0.27532100 1.85528700
19 -1.74404500 0.00003700 -0.00000800 -0.00637800 -0.02888000 0.62763700
20 -1.36876500 0.00002400 0.00000400 0.02849100 0.04404900 0.47030300
21 -1.87480200 -0.93512600 0.99917200 2.30037900 0.31378400 1.08810900
22 -1.52345300 0.00003000 0.00002700 0.05305500 0.16566500 0.41250900
23 -1.59928500 0.00000500 0.00001200 0.03405500 -0.02608500 0.63444600
24 5.58312400 0.11572500 0.29499600 2.70854600 -0.05525400 3.09741800
25 0.19684900 -0.00000300 0.00000300 2.79340692 -0.00057652 -3.14146182
26 4.30225000 -13.12372300 -12.74951400 1.27417400 0.34322400 1.49843300
27 6.21448500 0.00000600 0.00002000 -2.17451580 0.26069402 2.47456467
28 11.94488700 -0.00003400 -0.00019000 -0.25420528 -0.24976890 -0.82212896
29 10.62016500 0.00000600 0.00000800 -1.80294663 -0.08453883 0.26561949
30 4.75115700 0.69437500 -0.83047200 -0.33844000 -0.26124800 1.29342300
31 1.68806600 -0.00002600 0.00000200 0.01051700 -0.02235900 0.99904800
32 1.33614400 -0.00005300 -0.00000900 0.01010300 -0.03737100 0.10701300
33 4.82051300 0.50933800 0.22486600 -0.39832600 0.00393300 1.77193500
34 1.82699600 0.00006700 0.00000800 -0.02935500 0.02785900 0.46325400
35 1.43658100 -0.00001000 0.00000700 0.01148900 -0.00990700 -0.01879000
36 3.99235000 0.89108800 1.82799500 -0.52235300 0.24838200 1.74219200
37 1.40592100 0.00002400 -0.00000500 0.01079800 -0.02744800 0.50116800
38 1.17536400 -0.00013000 0.00000300 0.04460100 0.11489700 0.32615100
39 4.52675500 0.69045900 1.12084200 -0.46444700 0.15476900 1.82939800
40 1.74404200 -0.00003200 -0.00000200 -0.00259100 -0.02944900 0.49814700
41 1.36876300 -0.00003200 -0.00001700 0.03581200 0.15457400 0.04304500
42 1.93928100 1.01468600 -0.90910100 1.98461200 0.85942500 0.40831000
43 1.52345200 -0.00003300 -0.00000300 0.00344600 -0.10446000 0.25108100
44 1.59927900 0.00000100 0.00000600 0.05381000 0.06390000 -0.04381700
45 5.51180600 0.00000000 0.00000400 -0.27198700 0.00000000 0.00000000
46 0.19684700 0.00000100 0.00000000 -0.34822500 0.00001500 -0.00000200
47 0.00000000 0.00000000 0.00000000 0.00000000 0.00000000 -1.57079600
48 -3.84604500 4.36570100 -3.19804200 0.00000000 0.00000000 -3.14156200
49 -3.64675638 20.63709372 0.57791258 -0.01499343 0.00617028 -1.55357563
50 10.29365200 1.65650000 -1.39242200 -0.59230200 1.24938800 1.04281400
51 3.12262200 -0.01178200 -0.68646900 0.00000000 0.00000000 0.00000000
52 -4.01753200 -0.01178200 0.12452700 0.00000000 0.00000000 0.00000000
53 0.05046500 0.00000000 0.46481100 0.00000000 0.00000000 0.00000000
54 1.27159100 0.74292900 1.02600600 0.00000000 0.00000000 0.00000000
55 -3.03010000 -0.02560600 -1.06275300 0.00000000 0.00000000 0.00000000
56 2.12937200 -2.30115700 -2.87848400 3.04987700 0.77861500 -2.38808600
time 2
0 -0.00000100 7.45008900 -27.50902600 0.00000000 0.00000000 0.00003100
1 -0.00000200 0.00000000 0.00000000 1.57074300 -1.56713700 -1.57074300
2 4.25546800 -0.33518300 -0.00000200 0.00000000 0.00000000 -0.12484800
3 7.43124800 1.49647700 0.00000200 0.00000000 0.00000000 0.24545000
4 5.27847900 0.16554100 0.00000100 0.00000000 0.00000000 0.04851100
5 3.70336500 -5.63737100 -1.14119100 1.97586400 1.15990900 -1.29878600
6 -6.21448200 -0.00000700 -0.00002700 -2.76455833 -0.58746118 1.64110222
7 11.94488700 0.00000000 0.00000000 -0.37208175 -0.31602306 2.01785318
8 10.62018300 0.00000000 -0.00000100 0.95101187 -0.18482130 1.73453154
9 -4.75111200 -0.69449200 0.83057300 0.04913500 -0.07824800 0.26163600
10 -1.68807100 0.00004700 -0.00003100 0.02216600 -0.01093400 0.32820700
11 -1.33613900 0.00005600 -0.00001200 0.02584800 0.00498300 0.36433000
12 -4.82049900 -0.50945800 -0.22476000 -0.30996000 0.01843000 1.56221200
13 -1.82699000 -0.00006600 0.00000700 -0.01505300 0.03754500 0.89279800
14 -1.43657900 0.00001100 0.00000300 -0.04326900 -0.06465400 0.49796600
15 -3.99236100 -0.89118600 -1.82790700 -0.39357000 0.38726600 1.76892200
16 -1.40592400 -0.00002500 -0.00000300 0.01207400 -0.02686800 0.45175400
17 -1.17536200 0.00012700 -0.00002000 0.05312600 0.04227700 0.80292000
18 -4.52675500 -0.69057300 -1.12074400 -0.26184200 0.27532100 1.85528700
19 -1.74404500 0.00003700 -0.00000800 -0.00637800 -0.02888000 0.62763700
20 -1.36876500 0.00002400 0.00000400 0.02849100 0.04404900 0.47030300
21 -1.87480200 -0.93512600 0.99917200 2.30037900 0.31378400 1.08810900
22 -1.52345300 0.00003000 0.00002700 0.05305500 0.16566500 0.41250900
23 -1.59928500 0.00000500 0.00001200 0.03405500 -0.02608500 0.63444600
24 5.58312400 0.11572500 0.29499600 2.70854600 -0.05525400 3.09741800
25 0.19684900 -0.00000300 0.00000300 2.79340692 -0.00057652 -3.14146182
26 4.11738800 -12.98519700 -12.32961000 1.28841100 0.37321300 1.49733300
27 6.21448500 0.00000600 0.00002000 -2.18172606 0.28259064 2.50330503
28 11.94488700 -0.00003400 -0.00019000 -0.25227840 -0.25186291 -0.82948033
29 10.62016500 0.00000600 0.00000800 -1.78475273 -0.08724168 0.18688380
30 4.75115700 0.69437500 -0.83047200 -0.33844000 -0.26124800 1.29342300
31 1.68806600 -0.00002600 0.00000200 0.01051700 -0.02235900 0.99904800
32 1.33614400 -0.00005300 -0.00000900 0.01010300 -0.03737100 0.10701300
33 4.82051300 0.50933800 0.22486600 -0.39832600 0.00393300 1.77193500
34 1.82699600 0.00006700 0.00000800 -0.02935500 0.02785900 0.46325400
35 1.43658100 -0.00001000 0.00000700 0.01148900 -0.00990700 -0.01879000
36 3.99235000 0.89108800 1.82799500 -0.52235300 0.24838200 1.74219200
37 1.40592100 0.00002400 -0.00000500 0.01079800 -0.02744800 0.50116800
38 1.17536400 -0.00013000 0.00000300 0.04460100 0.11489700 0.32615100
39 4.52675500 0.69045900 1.12084200 -0.46444700 0.15476900 1.82939800
40 1.74404200 -0.00003200 -0.00000200 -0.00259100 -0.02944900 0.49814700
41 1.36876300 -0.00003200 -0.00001700 0.03581200 0.15457400 0.04304500
42 1.93928100 1.01468600 -0.90910100 1.98461200 0.85942500 0.40831000
43 1.52345200 -0.00003300 -0.00000300 0.00344600 -0.10446000 0.25108100
44 1.59927900 0.00000100 0.00000600 0.05381000 0.06390000 -0.04381700
45 5.51180600 0.00000000 0.00000400 -0.27198700 0.00000000 0.00000000
46 0.19684700 0.00000100 0.00000000 -0.34822500 0.00001500 -0.00000200
47 0.00000000 0.00000000 0.00000000 0.00000000 0.00000000 -1.57079600
48 -3.84604500 4.36570100 -3.19804200 0.00000000 0.00000000 -3.14156200
49 -3.74509121 20.63078723 0.40835027 0.01642377 0.05402581 -1.49533241
50 10.29365200 1.65650000 -1.39242200 -0.59230200 1.24938800 1.04281400
51 3.12262200 -0.01178200 -0.68646900 0.00000000 0.00000000 0.00000000
52 -4.01753200 -0.01178200 0.12452700 0.00000000 0.00000000 0.00000000
53 0.05046500 0.00000000 0.46481100 0.00000000 0.00000000 0.00000000
54 1.27159100 0.74292900 1.02600600 0.00000000 0.00000000 0.00000000
55 -3.03010000 -0.02560600 -1.06275300 0.00000000 0.00000000 0.00000000
56 2.12937200 -2.30115700 -2.87848400 3.04987700 0.77861500 -2.38808600
time 3
0 -0.00000100 7.45008900 -27.50902600 0.00000000 0.00000000 0.00003100
1 -0.00000200 0.00000000 0.00000000 1.57074300 -1.56713700 -1.57074300
2 4.25546800 -0.33518300 -0.00000200 0.00000000 0.00000000 -0.12484800
3 7.43124800 1.49647700 0.00000200 0.00000000 0.00000000 0.24545000
4 5.27847900 0.16554100 0.00000100 0.00000000 0.00000000 0.04851100
5 3.22836600 -6.29915700 -0.47985600 1.97586400 1.15990900 -1.29878600
6 -6.21448200 -0.00000700 -0.00002700 -2.77232169 -0.64067744 1.66729949
7 11.94488700 0.00000000 0.00000000 -0.38605225 -0.30884082 2.06306614
8 10.62018300 0.00000000 -0.00000100 1.00619536 -0.20139577 1.85151981
9 -4.75111200 -0.69449200 0.83057300 0.04913500 -0.07824800 0.26163600
10 -1.68807100 0.00004700 -0.00003100 0.02216600 -0.01093400 0.32820700
11 -1.33613900 0.00005600 -0.00001200 0.02584800 0.00498300 0.36433000
12 -4.82049900 -0.50945800 -0.22476000 -0.30996000 0.01843000 1.56221200
13 -1.82699000 -0.00006600 0.00000700 -0.01505300 0.03754500 0.89279800
14 -1.43657900 0.00001100 0.00000300 -0.04326900 -0.06465400 0.49796600
15 -3.99236100 -0.89118600 -1.82790700 -0.39357000 0.38726600 1.76892200
16 -1.40592400 -0.00002500 -0.00000300 0.01207400 -0.02686800 0.45175400
17 -1.17536200 0.00012700 -0.00002000 0.05312600 0.04227700 0.80292000
18 -4.52675500 -0.69057300 -1.12074400 -0.26184200 0.27532100 1.85528700
19 -1.74404500 0.00003700 -0.00000800 -0.00637800 -0.02888000 0.62763700
20 -1.36876500 0.00002400 0.00000400 0.02849100 0.04404900 0.47030300
21 -1.87480200 -0.93512600 0.99917200 2.30037900 0.31378400 1.08810900
22 -1.52345300 0.00003000 0.00002700 0.05305500 0.16566500 0.41250900
23 -1.59928500 0.00000500 0.00001200 0.03405500 -0.02608500 0.63444600
24 5.58312400 0.11572500 0.29499600 2.70854600 -0.05525400 3.09741800
25 0.19684900 -0.00000300 0.00000300 2.79340692 -0.00057652 -3.14146182
26 3.83169300 -12.77111200 -11.68067100 1.31102900 0.41995100 1.49653800
27 6.21448500 0.00000600 0.00002000 -2.19002393 0.31376912 2.55211382
28 11.94488700 -0.00003400 -0.00019000 -0.25111056 -0.25383467 -0.83387186
29 10.62016500 0.00000600 0.00000800 -1.76589742 -0.08663925 0.06156102
30 4.75115700 0.69437500 -0.83047200 -0.33844000 -0.26124800 1.29342300
31 1.68806600 -0.00002600 0.00000200 0.01051700 -0.02235900 0.99904800
32 1.33614400 -0.00005300 -0.00000900 0.01010300 -0.03737100 0.10701300
33 4.82051300 0.50933800 0.22486600 -0.39832600 0.00393300 1.77193500
34 1.82699600 0.00006700 0.00000800 -0.02935500 0.02785900 0.46325400
35 1.43658100 -0.00001000 0.00000700 0.01148900 -0.00990700 -0.01879000
36 3.99235000 0.89108800 1.82799500 -0.52235300 0.24838200 1.74219200
37 1.40592100 0.00002400 -0.00000500 0.01079800 -0.02744800 0.50116800
38 1.17536400 -0.00013000 0.00000300 0.04460100 0.11489700 0.32615100
39 4.52675500 0.69045900 1.12084200 -0.46444700 0.15476900 1.82939800
40 1.74404200 -0.00003200 -0.00000200 -0.00259100 -0.02944900 0.49814700
41 1.36876300 -0.00003200 -0.00001700 0.03581200 0.15457400 0.04304500
42 1.93928100 1.01468600 -0.90910100 1.98461200 0.85942500 0.40831000
43 1.52345200 -0.00003300 -0.00000300 0.00344600 -0.10446000 0.25108100
44 1.59927900 0.00000100 0.00000600 0.05381000 0.06390000 -0.04381700
45 5.51180600 0.00000000 0.00000400 -0.27198700 0.00000000 0.00000000
46 0.19684700 0.00000100 0.00000000 -0.34822500 0.00001500 -0.00000200
47 0.00000000 0.00000000 0.00000000 0.00000000 0.00000000 -1.57079600
48 -3.84604500 4.36570100 -3.19804200 0.00000000 0.00000000 -3.14156200
49 -3.90974244 20.62227834 0.15005909 0.07700962 0.12158082 -1.40284096
50 10.29365200 1.65650000 -1.39242200 -0.59230200 1.24938800 1.04281400
51 3.12262200 -0.01178200 -0.68646900 0.00000000 0.00000000 0.00000000
52 -4.01753200 -0.01178200 0.12452700 0.00000000 0.00000000 0.00000000
53 0.05046500 0.00000000 0.46481100 0.00000000 0.00000000 0.00000000
54 1.27159100 0.74292900 1.02600600 0.00000000 0.00000000 0.00000000
55 -3.03010000 -0.02560600 -1.06275300 0.00000000 0.00000000 0.00000000
56 2.12937200 -2.30115700 -2.87848400 3.04987700 0.77861500 -2.38808600
time 4
0 -0.00000100 7.45008900 -27.50902600 0.00000000 0.00000000 0.00003100
1 -0.00000200 0.00000000 0.00000000 1.57074300 -1.56713700 -1.57074300
2 4.25546800 -0.33518300 -0.00000200 0.00000000 0.00000000 -0.12484800
3 7.43124800 1.49647700 0.00000200 0.00000000 0.00000000 0.24545000
4 5.27847900 0.16554100 0.00000100 0.00000000 0.00000000 0.04851100
5 2.63294500 -7.12871900 0.34914000 1.97586400 1.15990900 -1.29878600
6 -6.21448200 -0.00000700 -0.00002700 -2.76918997 -0.69654406 1.68386920
7 11.94488700 0.00000000 0.00000000 -0.39609506 -0.30367802 2.09614362
8 10.62018300 0.00000000 -0.00000100 1.07565349 -0.23994404 1.99698729
9 -4.75111200 -0.69449200 0.83057300 0.04913500 -0.07824800 0.26163600
10 -1.68807100 0.00004700 -0.00003100 0.02216600 -0.01093400 0.32820700
11 -1.33613900 0.00005600 -0.00001200 0.02584800 0.00498300 0.36433000
12 -4.82049900 -0.50945800 -0.22476000 -0.30996000 0.01843000 1.56221200
13 -1.82699000 -0.00006600 0.00000700 -0.01505300 0.03754500 0.89279800
14 -1.43657900 0.00001100 0.00000300 -0.04326900 -0.06465400 0.49796600
15 -3.99236100 -0.89118600 -1.82790700 -0.39357000 0.38726600 1.76892200
16 -1.40592400 -0.00002500 -0.00000300 0.01207400 -0.02686800 0.45175400
17 -1.17536200 0.00012700 -0.00002000 0.05312600 0.04227700 0.80292000
18 -4.52675500 -0.69057300 -1.12074400 -0.26184200 0.27532100 1.85528700
19 -1.74404500 0.00003700 -0.00000800 -0.00637800 -0.02888000 0.62763700
20 -1.36876500 0.00002400 0.00000400 0.02849100 0.04404900 0.47030300
21 -1.87480200 -0.93512600 0.99917200 2.30037900 0.31378400 1.08810900
22 -1.52345300 0.00003000 0.00002700 0.05305500 0.16566500 0.41250900
23 -1.59928500 0.00000500 0.00001200 0.03405500 -0.02608500 0.63444600
24 5.58312400 0.11572500 0.29499600 2.70854600 -0.05525400 3.09741800
25 0.19684900 -0.00000300 0.00000300 2.79340692 -0.00057652 -3.14146182
26 3.46349800 -12.49520600 -10.84433500 1.34120000 0.48094500 1.49732400
27 6.21448500 0.00000600 0.00002000 -2.19943942 0.34905768 2.62047428
28 11.94488700 -0.00003400 -0.00019000 -0.24952689 -0.25730124 -0.83987542
29 10.62016500 0.00000600 0.00000800 -1.74214240 -0.08258122 -0.08621445
30 4.75115700 0.69437500 -0.83047200 -0.33844000 -0.26124800 1.29342300
31 1.68806600 -0.00002600 0.00000200 0.01051700 -0.02235900 0.99904800
32 1.33614400 -0.00005300 -0.00000900 0.01010300 -0.03737100 0.10701300
33 4.82051300 0.50933800 0.22486600 -0.39832600 0.00393300 1.77193500
34 1.82699600 0.00006700 0.00000800 -0.02935500 0.02785900 0.46325400
35 1.43658100 -0.00001000 0.00000700 0.01148900 -0.00990700 -0.01879000
36 3.99235000 0.89108800 1.82799500 -0.52235300 0.24838200 1.74219200
37 1.40592100 0.00002400 -0.00000500 0.01079800 -0.02744800 0.50116800
38 1.17536400 -0.00013000 0.00000300 0.04460100 0.11489700 0.32615100
39 4.52675500 0.69045900 1.12084200 -0.46444700 0.15476900 1.82939800
40 1.74404200 -0.00003200 -0.00000200 -0.00259100 -0.02944900 0.49814700
41 1.36876300 -0.00003200 -0.00001700 0.03581200 0.15457400 0.04304500
42 1.93928100 1.01468600 -0.90910100 1.98461200 0.85942500 0.40831000
43 1.52345200 -0.00003300 -0.00000300 0.00344600 -0.10446000 0.25108100
44 1.59927900 0.00000100 0.00000600 0.05381000 0.06390000 -0.04381700
45 5.51180600 0.00000000 0.00000400 -0.27198700 0.00000000 0.00000000
46 0.19684700 0.00000100 0.00000000 -0.34822500 0.00001500 -0.00000200
47 0.00000000 0.00000000 0.00000000 0.00000000 0.00000000 -1.57079600
48 -3.84604500 4.36570100 -3.19804200 0.00000000 0.00000000 -3.14156200
49 -4.14797464 20.61303148 -0.15883075 0.15804290 0.19431748 -1.27985097
50 10.29365200 1.65650000 -1.39242200 -0.59230200 1.24938800 1.04281400
51 3.12262200 -0.01178200 -0.68646900 0.00000000 0.00000000 0.00000000
52 -4.01753200 -0.01178200 0.12452700 0.00000000 0.00000000 0.00000000
53 0.05046500 0.00000000 0.46481100 0.00000000 0.00000000 0.00000000
54 1.27159100 0.74292900 1.02600600 0.00000000 0.00000000 0.00000000
55 -3.03010000 -0.02560600 -1.06275300 0.00000000 0.00000000 0.00000000
56 2.12937200 -2.30115700 -2.87848400 3.04987700 0.77861500 -2.38808600
time 5
0 -0.00000100 7.45008900 -27.50902600 0.00000000 0.00000000 0.00003100
1 -0.00000200 0.00000000 0.00000000 1.57074300 -1.56713700 -1.57074300
2 4.25546800 -0.33518300 -0.00000200 0.00000000 0.00000000 -0.12484800
3 7.43124800 1.49647700 0.00000200 0.00000000 0.00000000 0.24545000
4 5.27847900 0.16554100 0.00000100 0.00000000 0.00000000 0.04851100
5 1.95724200 -8.07012900 1.28990900 1.97586400 1.15990900 -1.29878600
6 -6.21448200 -0.00000700 -0.00002700 -2.73742988 -0.74164741 1.66512285
7 11.94488700 0.00000000 0.00000000 -0.40021003 -0.30150398 2.10994763
8 10.62018300 0.00000000 -0.00000100 1.14956367 -0.30764076 2.13346329
9 -4.75111200 -0.69449200 0.83057300 0.04913500 -0.07824800 0.26163600
10 -1.68807100 0.00004700 -0.00003100 0.02216600 -0.01093400 0.32820700
11 -1.33613900 0.00005600 -0.00001200 0.02584800 0.00498300 0.36433000
12 -4.82049900 -0.50945800 -0.22476000 -0.30996000 0.01843000 1.56221200
13 -1.82699000 -0.00006600 0.00000700 -0.01505300 0.03754500 0.89279800
14 -1.43657900 0.00001100 0.00000300 -0.04326900 -0.06465400 0.49796600
15 -3.99236100 -0.89118600 -1.82790700 -0.39357000 0.38726600 1.76892200
16 -1.40592400 -0.00002500 -0.00000300 0.01207400 -0.02686800 0.45175400
17 -1.17536200 0.00012700 -0.00002000 0.05312600 0.04227700 0.80292000
18 -4.52675500 -0.69057300 -1.12074400 -0.26184200 0.27532100 1.85528700
19 -1.74404500 0.00003700 -0.00000800 -0.00637800 -0.02888000 0.62763700
20 -1.36876500 0.00002400 0.00000400 0.02849100 0.04404900 0.47030300
21 -1.87480200 -0.93512600 0.99917200 2.30037900 0.31378400 1.08810900
22 -1.52345300 0.00003000 0.00002700 0.05305500 0.16566500 0.41250900
23 -1.59928500 0.00000500 0.00001200 0.03405500 -0.02608500 0.63444600
24 5.58312400 0.11572500 0.29499600 2.70854600 -0.05525400 3.09741800
25 0.19684900 -0.00000300 0.00000300 2.79340692 -0.00057652 -3.14146182
26 3.03113600 -12.17121700 -9.86224700 1.37847800 0.55331600 1.50100800
27 6.21448500 0.00000600 0.00002000 -2.20864210 0.38621788 2.70397215
28 11.94488700 -0.00003400 -0.00019000 -0.24353913 -0.26532398 -0.86244713
29 10.62016500 0.00000600 0.00000800 -1.71313996 -0.07979365 -0.22235542
30 4.75115700 0.69437500 -0.83047200 -0.33844000 -0.26124800 1.29342300
31 1.68806600 -0.00002600 0.00000200 0.01051700 -0.02235900 0.99904800
32 1.33614400 -0.00005300 -0.00000900 0.01010300 -0.03737100 0.10701300
33 4.82051300 0.50933800 0.22486600 -0.39832600 0.00393300 1.77193500
34 1.82699600 0.00006700 0.00000800 -0.02935500 0.02785900 0.46325400
35 1.43658100 -0.00001000 0.00000700 0.01148900 -0.00990700 -0.01879000
36 3.99235000 0.89108800 1.82799500 -0.52235300 0.24838200 1.74219200
37 1.40592100 0.00002400 -0.00000500 0.01079800 -0.02744800 0.50116800
38 1.17536400 -0.00013000 0.00000300 0.04460100 0.11489700 0.32615100
39 4.52675500 0.69045900 1.12084200 -0.46444700 0.15476900 1.82939800
40 1.74404200 -0.00003200 -0.00000200 -0.00259100 -0.02944900 0.49814700
41 1.36876300 -0.00003200 -0.00001700 0.03581200 0.15457400 0.04304500
42 1.93928100 1.01468600 -0.90910100 1.98461200 0.85942500 0.40831000
43 1.52345200 -0.00003300 -0.00000300 0.00344600 -0.10446000 0.25108100
44 1.59927900 0.00000100 0.00000600 0.05381000 0.06390000 -0.04381700
45 5.51180600 0.00000000 0.00000400 -0.27198700 0.00000000 0.00000000
46 0.19684700 0.00000100 0.00000000 -0.34822500 0.00001500 -0.00000200
47 0.00000000 0.00000000 0.00000000 0.00000000 0.00000000 -1.57079600
48 -3.84604500 4.36570100 -3.19804200 0.00000000 0.00000000 -3.14156200
49 -4.47427627 20.60432644 -0.47085379 0.24644844 0.25297567 -1.13517021
50 10.29365200 1.65650000 -1.39242200 -0.59230200 1.24938800 1.04281400
51 3.12262200 -0.01178200 -0.68646900 0.00000000 0.00000000 0.00000000
52 -4.01753200 -0.01178200 0.12452700 0.00000000 0.00000000 0.00000000
53 0.05046500 0.00000000 0.46481100 0.00000000 0.00000000 0.00000000
54 1.27159100 0.74292900 1.02600600 0.00000000 0.00000000 0.00000000
55 -3.03010000 -0.02560600 -1.06275300 0.00000000 0.00000000 0.00000000
56 2.12937200 -2.30115700 -2.87848400 3.04987700 0.77861500 -2.38808600
time 6
0 -0.00000100 7.45008900 -27.50902600 0.00000000 0.00000000 0.00003100
1 -0.00000200 0.00000000 0.00000000 1.57074300 -1.56713700 -1.57074300
2 4.25546800 -0.33518300 -0.00000200 0.00000000 0.00000000 -0.12484800
3 7.43124800 1.49647700 0.00000200 0.00000000 0.00000000 0.24545000
4 5.27847900 0.16554100 0.00000100 0.00000000 0.00000000 0.04851100
5 1.24139700 -9.06746800 2.28656800 1.97586400 1.15990900 -1.29878600
6 -6.21448200 -0.00000700 -0.00002700 -2.67985531 -0.76553477 1.60045837
7 11.94488700 0.00000000 0.00000000 -0.39937586 -0.30143837 2.10697958
8 10.62018300 0.00000000 -0.00000100 1.21072156 -0.39320712 2.22896916
9 -4.75111200 -0.69449200 0.83057300 0.04913500 -0.07824800 0.26163600
10 -1.68807100 0.00004700 -0.00003100 0.02216600 -0.01093400 0.32820700
11 -1.33613900 0.00005600 -0.00001200 0.02584800 0.00498300 0.36433000
12 -4.82049900 -0.50945800 -0.22476000 -0.30996000 0.01843000 1.56221200
13 -1.82699000 -0.00006600 0.00000700 -0.01505300 0.03754500 0.89279800
14 -1.43657900 0.00001100 0.00000300 -0.04326900 -0.06465400 0.49796600
15 -3.99236100 -0.89118600 -1.82790700 -0.39357000 0.38726600 1.76892200
16 -1.40592400 -0.00002500 -0.00000300 0.01207400 -0.02686800 0.45175400
17 -1.17536200 0.00012700 -0.00002000 0.05312600 0.04227700 0.80292000
18 -4.52675500 -0.69057300 -1.12074400 -0.26184200 0.27532100 1.85528700
19 -1.74404500 0.00003700 -0.00000800 -0.00637800 -0.02888000 0.62763700
20 -1.36876500 0.00002400 0.00000400 0.02849100 0.04404900 0.47030300
21 -1.87480200 -0.93512600 0.99917200 2.30037900 0.31378400 1.08810900
22 -1.52345300 0.00003000 0.00002700 0.05305500 0.16566500 0.41250900
23 -1.59928500 0.00000500 0.00001200 0.03405500 -0.02608500 0.63444600
24 5.58312400 0.11572500 0.29499600 2.70854600 -0.05525400 3.09741800
25 0.19684900 -0.00000300 0.00000300 2.79340692 -0.00057652 -3.14146182
26 2.55294200 -11.81288100 -8.77605000 1.42267700 0.63397000 1.50924300
27 6.21448500 0.00000600 0.00002000 -2.21893925 0.42310363 2.79590262
28 11.94488700 -0.00003400 -0.00019000 -0.22893009 -0.28085492 -0.91589861
29 10.62016500 0.00000600 0.00000800 -1.67478628 -0.08003299 -0.31753940
30 4.75115700 0.69437500 -0.83047200 -0.33844000 -0.26124800 1.29342300
31 1.68806600 -0.00002600 0.00000200 0.01051700 -0.02235900 0.99904800
32 1.33614400 -0.00005300 -0.00000900 0.01010300 -0.03737100 0.10701300
33 4.82051300 0.50933800 0.22486600 -0.39832600 0.00393300 1.77193500
34 1.82699600 0.00006700 0.00000800 -0.02935500 0.02785900 0.46325400
35 1.43658100 -0.00001000 0.00000700 0.01148900 -0.00990700 -0.01879000
36 3.99235000 0.89108800 1.82799500 -0.52235300 0.24838200 1.74219200
37 1.40592100 0.00002400 -0.00000500 0.01079800 -0.02744800 0.50116800
38 1.17536400 -0.00013000 0.00000300 0.04460100 0.11489700 0.32615100
39 4.52675500 0.69045900 1.12084200 -0.46444700 0.15476900 1.82939800
40 1.74404200 -0.00003200 -0.00000200 -0.00259100 -0.02944900 0.49814700
41 1.36876300 -0.00003200 -0.00001700 0.03581200 0.15457400 0.04304500
42 1.93928100 1.01468600 -0.90910100 1.98461200 0.85942500 0.40831000
43 1.52345200 -0.00003300 -0.00000300 0.00344600 -0.10446000 0.25108100
44 1.59927900 0.00000100 0.00000600 0.05381000 0.06390000 -0.04381700
45 5.51180600 0.00000000 0.00000400 -0.27198700 0.00000000 0.00000000
46 0.19684700 0.00000100 0.00000000 -0.34822500 0.00001500 -0.00000200
47 0.00000000 0.00000000 0.00000000 0.00000000 0.00000000 -1.57079600
48 -3.84604500 4.36570100 -3.19804200 0.00000000 0.00000000 -3.14156200
49 -4.90049744 20.59752201 -0.74680028 0.32400430 0.28736101 -0.98373696
50 10.29365200 1.65650000 -1.39242200 -0.59230200 1.24938800 1.04281400
51 3.12262200 -0.01178200 -0.68646900 0.00000000 0.00000000 0.00000000
52 -4.01753200 -0.01178200 0.12452700 0.00000000 0.00000000 0.00000000
53 0.05046500 0.00000000 0.46481100 0.00000000 0.00000000 0.00000000
54 1.27159100 0.74292900 1.02600600 0.00000000 0.00000000 0.00000000
55 -3.03010000 -0.02560600 -1.06275300 0.00000000 0.00000000 0.00000000
56 2.12937200 -2.30115700 -2.87848400 3.04987700 0.77861500 -2.38808600
time 7
0 -0.00000100 7.45008900 -27.50902600 0.00000000 0.00000000 0.00003100
1 -0.00000200 0.00000000 0.00000000 1.57074300 -1.56713700 -1.57074300
2 4.25546800 -0.33518300 -0.00000200 0.00000000 0.00000000 -0.12484800
3 7.43124800 1.49647700 0.00000200 0.00000000 0.00000000 0.24545000
4 5.27847900 0.16554100 0.00000100 0.00000000 0.00000000 0.04851100
5 0.52555200 -10.06480500 3.28322500 1.97586400 1.15990900 -1.29878600
6 -6.21448200 -0.00000700 -0.00002700 -2.61888479 -0.76156989 1.50019118
7 11.94488700 0.00000000 0.00000000 -0.39482447 -0.30324624 2.09189198
8 10.62018300 0.00000000 -0.00000100 1.24522794 -0.47262386 2.26884690
9 -4.75111200 -0.69449200 0.83057300 0.04913500 -0.07824800 0.26163600
10 -1.68807100 0.00004700 -0.00003100 0.02216600 -0.01093400 0.32820700
11 -1.33613900 0.00005600 -0.00001200 0.02584800 0.00498300 0.36433000
12 -4.82049900 -0.50945800 -0.22476000 -0.30996000 0.01843000 1.56221200
13 -1.82699000 -0.00006600 0.00000700 -0.01505300 0.03754500 0.89279800
14 -1.43657900 0.00001100 0.00000300 -0.04326900 -0.06465400 0.49796600
15 -3.99236100 -0.89118600 -1.82790700 -0.39357000 0.38726600 1.76892200
16 -1.40592400 -0.00002500 -0.00000300 0.01207400 -0.02686800 0.45175400
17 -1.17536200 0.00012700 -0.00002000 0.05312600 0.04227700 0.80292000
18 -4.52675500 -0.69057300 -1.12074400 -0.26184200 0.27532100 1.85528700
19 -1.74404500 0.00003700 -0.00000800 -0.00637800 -0.02888000 0.62763700
20 -1.36876500 0.00002400 0.00000400 0.02849100 0.04404900 0.47030300
21 -1.87480200 -0.93512600 0.99917200 2.30037900 0.31378400 1.08810900
22 -1.52345300 0.00003000 0.00002700 0.05305500 0.16566500 0.41250900
23 -1.59928500 0.00000500 0.00001200 0.03405500 -0.02608500 0.63444600
24 5.58312400 0.11572500 0.29499600 2.70854600 -0.05525400 3.09741800
25 0.19684900 -0.00000300 0.00000300 2.79340692 -0.00057652 -3.14146182
26 2.04724700 -11.43394200 -7.62739100 1.47405500 0.71936300 1.52392600
27 6.21448500 0.00000600 0.00002000 -2.22757703 0.45641517 2.89296408
28 11.94488700 -0.00003400 -0.00019000 -0.20329204 -0.30276904 -1.00526887
29 10.62016500 0.00000600 0.00000800 -1.62447267 -0.08538341 -0.35312989
30 4.75115700 0.69437500 -0.83047200 -0.33844000 -0.26124800 1.29342300
31 1.68806600 -0.00002600 0.00000200 0.01051700 -0.02235900 0.99904800
32 1.33614400 -0.00005300 -0.00000900 0.01010300 -0.03737100 0.10701300
33 4.82051300 0.50933800 0.22486600 -0.39832600 0.00393300 1.77193500
34 1.82699600 0.00006700 0.00000800 -0.02935500 0.02785900 0.46325400
35 1.43658100 -0.00001000 0.00000700 0.01148900 -0.00990700 -0.01879000
36 3.99235000 0.89108800 1.82799500 -0.52235300 0.24838200 1.74219200
37 1.40592100 0.00002400 -0.00000500 0.01079800 -0.02744800 0.50116800
38 1.17536400 -0.00013000 0.00000300 0.04460100 0.11489700 0.32615100
39 4.52675500 0.69045900 1.12084200 -0.46444700 0.15476900 1.82939800
40 1.74404200 -0.00003200 -0.00000200 -0.00259100 -0.02944900 0.49814700
41 1.36876300 -0.00003200 -0.00001700 0.03581200 0.15457400 0.04304500
42 1.93928100 1.01468600 -0.90910100 1.98461200 0.85942500 0.40831000
43 1.52345200 -0.00003300 -0.00000300 0.00344600 -0.10446000 0.25108100
44 1.59927900 0.00000100 0.00000600 0.05381000 0.06390000 -0.04381700
45 5.51180600 0.00000000 0.00000400 -0.27198700 0.00000000 0.00000000
46 0.19684700 0.00000100 0.00000000 -0.34822500 0.00001500 -0.00000200
47 0.00000000 0.00000000 0.00000000 0.00000000 0.00000000 -1.57079600
48 -3.84604500 4.36570100 -3.19804200 0.00000000 0.00000000 -3.14156200
49 -5.42832183 20.59417563 -0.93725118 0.37327304 0.29691826 -0.84318745
50 10.29365200 1.65650000 -1.39242200 -0.59230200 1.24938800 1.04281400
51 3.12262200 -0.01178200 -0.68646900 0.00000000 0.00000000 0.00000000
52 -4.01753200 -0.01178200 0.12452700 0.00000000 0.00000000 0.00000000
53 0.05046500 0.00000000 0.46481100 0.00000000 0.00000000 0.00000000
54 1.27159100 0.74292900 1.02600600 0.00000000 0.00000000 0.00000000
55 -3.03010000 -0.02560600 -1.06275300 0.00000000 0.00000000 0.00000000
56 2.12937200 -2.30115700 -2.87848400 3.04987700 0.77861500 -2.38808600
time 8
0 -0.00000100 7.45008900 -27.50902600 0.00000000 0.00000000 0.00003100
1 -0.00000200 0.00000000 0.00000000 1.57074300 -1.56713700 -1.57074300
2 4.25546800 -0.33518300 -0.00000200 0.00000000 0.00000000 -0.12484800
3 7.43124800 1.49647700 0.00000200 0.00000000 0.00000000 0.24545000
4 5.27847900 0.16554100 0.00000100 0.00000000 0.00000000 0.04851100
5 -0.15015200 -11.00621800 4.22399600 1.97586400 1.15990900 -1.29878600
6 -6.21448200 -0.00000700 -0.00002700 -2.58100947 -0.73349953 1.38806562
7 11.94488700 0.00000000 0.00000000 -0.38623509 -0.30658255 2.06367038
8 10.62018300 0.00000000 -0.00000100 1.25307185 -0.52128311 2.27313101
9 -4.75111200 -0.69449200 0.83057300 0.04913500 -0.07824800 0.26163600
10 -1.68807100 0.00004700 -0.00003100 0.02216600 -0.01093400 0.32820700
11 -1.33613900 0.00005600 -0.00001200 0.02584800 0.00498300 0.36433000
12 -4.82049900 -0.50945800 -0.22476000 -0.30996000 0.01843000 1.56221200
13 -1.82699000 -0.00006600 0.00000700 -0.01505300 0.03754500 0.89279800
14 -1.43657900 0.00001100 0.00000300 -0.04326900 -0.06465400 0.49796600
15 -3.99236100 -0.89118600 -1.82790700 -0.39357000 0.38726600 1.76892200
16 -1.40592400 -0.00002500 -0.00000300 0.01207400 -0.02686800 0.45175400
17 -1.17536200 0.00012700 -0.00002000 0.05312600 0.04227700 0.80292000
18 -4.52675500 -0.69057300 -1.12074400 -0.26184200 0.27532100 1.85528700
19 -1.74404500 0.00003700 -0.00000800 -0.00637800 -0.02888000 0.62763700
20 -1.36876500 0.00002400 0.00000400 0.02849100 0.04404900 0.47030300
21 -1.87480200 -0.93512600 0.99917200 2.30037900 0.31378400 1.08810900
22 -1.52345300 0.00003000 0.00002700 0.05305500 0.16566500 0.41250900
23 -1.59928500 0.00000500 0.00001200 0.03405500 -0.02608500 0.63444600
24 5.58312400 0.11572500 0.29499600 2.70854600 -0.05525400 3.09741800
25 0.19684900 -0.00000300 0.00000300 2.79340692 -0.00057652 -3.14146182
26 1.53238500 -11.04812900 -6.45790700 1.53276900 0.80580600 1.54665200
27 6.21448500 0.00000600 0.00002000 -2.23563100 0.48006169 2.99847739
28 11.94488700 -0.00003400 -0.00019000 -0.16984683 -0.32488797 -1.11590109
29 10.62016500 0.00000600 0.00000800 -1.56967850 -0.08448089 -0.33840852
30 4.75115700 0.69437500 -0.83047200 -0.33844000 -0.26124800 1.29342300
31 1.68806600 -0.00002600 0.00000200 0.01051700 -0.02235900 0.99904800
32 1.33614400 -0.00005300 -0.00000900 0.01010300 -0.03737100 0.10701300
33 4.82051300 0.50933800 0.22486600 -0.39832600 0.00393300 1.77193500
34 1.82699600 0.00006700 0.00000800 -0.02935500 0.02785900 0.46325400
35 1.43658100 -0.00001000 0.00000700 0.01148900 -0.00990700 -0.01879000
36 3.99235000 0.89108800 1.82799500 -0.52235300 0.24838200 1.74219200
37 1.40592100 0.00002400 -0.00000500 0.01079800 -0.02744800 0.50116800
38 1.17536400 -0.00013000 0.00000300 0.04460100 0.11489700 0.32615100
39 4.52675500 0.69045900 1.12084200 -0.46444700 0.15476900 1.82939800
40 1.74404200 -0.00003200 -0.00000200 -0.00259100 -0.02944900 0.49814700
41 1.36876300 -0.00003200 -0.00001700 0.03581200 0.15457400 0.04304500
42 1.93928100 1.01468600 -0.90910100 1.98461200 0.85942500 0.40831000
43 1.52345200 -0.00003300 -0.00000300 0.00344600 -0.10446000 0.25108100
44 1.59927900 0.00000100 0.00000600 0.05381000 0.06390000 -0.04381700
45 5.51180600 0.00000000 0.00000400 -0.27198700 0.00000000 0.00000000
46 0.19684700 0.00000100 0.00000000 -0.34822500 0.00001500 -0.00000200
47 0.00000000 0.00000000 0.00000000 0.00000000 0.00000000 -1.57079600
48 -3.84604500 4.36570100 -3.19804200 0.00000000 0.00000000 -3.14156200
49 -6.08437343 20.59696201 -1.05308702 0.39902747 0.29197343 -0.72398982
50 10.29365200 1.65650000 -1.39242200 -0.59230200 1.24938800 1.04281400
51 3.12262200 -0.01178200 -0.68646900 0.00000000 0.00000000 0.00000000
52 -4.01753200 -0.01178200 0.12452700 0.00000000 0.00000000 0.00000000
53 0.05046500 0.00000000 0.46481100 0.00000000 0.00000000 0.00000000
54 1.27159100 0.74292900 1.02600600 0.00000000 0.00000000 0.00000000
55 -3.03010000 -0.02560600 -1.06275300 0.00000000 0.00000000 0.00000000
56 2.12937200 -2.30115700 -2.87848400 3.04987700 0.77861500 -2.38808600
time 9
0 -0.00000100 7.45008900 -27.50902600 0.00000000 0.00000000 0.00003100
1 -0.00000200 0.00000000 0.00000000 1.57074300 -1.56713700 -1.57074300
2 4.25546800 -0.33518300 -0.00000200 0.00000000 0.00000000 -0.12484800
3 7.43124800 1.49647700 0.00000200 0.00000000 0.00000000 0.24545000
4 5.27847900 0.16554100 0.00000100 0.00000000 0.00000000 0.04851100
5 -0.74557300 -11.83577900 5.05299300 1.97586400 1.15990900 -1.29878600
6 -6.21448200 -0.00000700 -0.00002700 -2.56921989 -0.69280201 1.28143759
7 11.94488700 0.00000000 0.00000000 -0.37152123 -0.31192896 2.01581814
8 10.62018300 0.00000000 -0.00000100 1.24527163 -0.53833108 2.27902924
9 -4.75111200 -0.69449200 0.83057300 0.04913500 -0.07824800 0.26163600
10 -1.68807100 0.00004700 -0.00003100 0.02216600 -0.01093400 0.32820700
11 -1.33613900 0.00005600 -0.00001200 0.02584800 0.00498300 0.36433000
12 -4.82049900 -0.50945800 -0.22476000 -0.30996000 0.01843000 1.56221200
13 -1.82699000 -0.00006600 0.00000700 -0.01505300 0.03754500 0.89279800
14 -1.43657900 0.00001100 0.00000300 -0.04326900 -0.06465400 0.49796600
15 -3.99236100 -0.89118600 -1.82790700 -0.39357000 0.38726600 1.76892200
16 -1.40592400 -0.00002500 -0.00000300 0.01207400 -0.02686800 0.45175400
17 -1.17536200 0.00012700 -0.00002000 0.05312600 0.04227700 0.80292000
18 -4.52675500 -0.69057300 -1.12074400 -0.26184200 0.27532100 1.85528700
19 -1.74404500 0.00003700 -0.00000800 -0.00637800 -0.02888000 0.62763700
20 -1.36876500 0.00002400 0.00000400 0.02849100 0.04404900 0.47030300
21 -1.87480200 -0.93512600 0.99917200 2.30037900 0.31378400 1.08810900
22 -1.52345300 0.00003000 0.00002700 0.05305500 0.16566500 0.41250900
23 -1.59928500 0.00000500 0.00001200 0.03405500 -0.02608500 0.63444600
24 5.58312400 0.11572500 0.29499600 2.70854600 -0.05525400 3.09741800
25 0.19684900 -0.00000300 0.00000300 2.79340692 -0.00057652 -3.14146182
26 1.02669000 -10.66918800 -5.30924800 1.59950900 0.88934900 1.57923700
27 6.21448500 0.00000600 0.00002000 -2.24143387 0.48794448 3.11728217
28 11.94488700 -0.00003400 -0.00019000 -0.13594585 -0.34208394 -1.22257491
29 10.62016500 0.00000600 0.00000800 -1.52282377 -0.06631374 -0.29900440
30 4.75115700 0.69437500 -0.83047200 -0.33844000 -0.26124800 1.29342300
31 1.68806600 -0.00002600 0.00000200 0.01051700 -0.02235900 0.99904800
32 1.33614400 -0.00005300 -0.00000900 0.01010300 -0.03737100 0.10701300
33 4.82051300 0.50933800 0.22486600 -0.39832600 0.00393300 1.77193500
34 1.82699600 0.00006700 0.00000800 -0.02935500 0.02785900 0.46325400
35 1.43658100 -0.00001000 0.00000700 0.01148900 -0.00990700 -0.01879000
36 3.99235000 0.89108800 1.82799500 -0.52235300 0.24838200 1.74219200
37 1.40592100 0.00002400 -0.00000500 0.01079800 -0.02744800 0.50116800
38 1.17536400 -0.00013000 0.00000300 0.04460100 0.11489700 0.32615100
39 4.52675500 0.69045900 1.12084200 -0.46444700 0.15476900 1.82939800
40 1.74404200 -0.00003200 -0.00000200 -0.00259100 -0.02944900 0.49814700
41 1.36876300 -0.00003200 -0.00001700 0.03581200 0.15457400 0.04304500
42 1.93928100 1.01468600 -0.90910100 1.98461200 0.85942500 0.40831000
43 1.52345200 -0.00003300 -0.00000300 0.00344600 -0.10446000 0.25108100
44 1.59927900 0.00000100 0.00000600 0.05381000 0.06390000 -0.04381700
45 5.51180600 0.00000000 0.00000400 -0.27198700 0.00000000 0.00000000
46 0.19684700 0.00000100 0.00000000 -0.34822500 0.00001500 -0.00000200
47 0.00000000 0.00000000 0.00000000 0.00000000 0.00000000 -1.57079600
48 -3.84604500 4.36570100 -3.19804200 0.00000000 0.00000000 -3.14156200
49 -6.86185966 20.60622809 -1.13926544 0.41988014 0.28327003 -0.62463893
50 10.29365200 1.65650000 -1.39242200 -0.59230200 1.24938800 1.04281400
51 3.12262200 -0.01178200 -0.68646900 0.00000000 0.00000000 0.00000000
52 -4.01753200 -0.01178200 0.12452700 0.00000000 0.00000000 0.00000000
53 0.05046500 0.00000000 0.46481100 0.00000000 0.00000000 0.00000000
54 1.27159100 0.74292900 1.02600600 0.00000000 0.00000000 0.00000000
55 -3.03010000 -0.02560600 -1.06275300 0.00000000 0.00000000 0.00000000
56 2.12937200 -2.30115700 -2.87848400 3.04987700 0.77861500 -2.38808600
time 10
0 -0.00000100 7.45008900 -27.50902600 0.00000000 0.00000000 0.00003100
1 -0.00000200 0.00000000 0.00000000 1.57074300 -1.56713700 -1.57074300
2 4.25546800 -0.33518300 -0.00000200 0.00000000 0.00000000 -0.12484800
3 7.43124800 1.49647700 0.00000200 0.00000000 0.00000000 0.24545000
4 5.27847900 0.16554100 0.00000100 0.00000000 0.00000000 0.04851100
5 -1.22057300 -12.49756400 5.71432700 1.97586400 1.15990900 -1.29878600
6 -6.21448200 -0.00000700 -0.00002700 -2.55323868 -0.65660145 1.19687388
7 11.94488700 0.00000000 0.00000000 -0.35493877 -0.31716679 1.96347680
8 10.62018300 0.00000000 -0.00000100 1.23954121 -0.55988439 2.29517223
9 -4.75111200 -0.69449200 0.83057300 0.04913500 -0.07824800 0.26163600
10 -1.68807100 0.00004700 -0.00003100 0.02216600 -0.01093400 0.32820700
11 -1.33613900 0.00005600 -0.00001200 0.02584800 0.00498300 0.36433000
12 -4.82049900 -0.50945800 -0.22476000 -0.30996000 0.01843000 1.56221200
13 -1.82699000 -0.00006600 0.00000700 -0.01505300 0.03754500 0.89279800
14 -1.43657900 0.00001100 0.00000300 -0.04326900 -0.06465400 0.49796600
15 -3.99236100 -0.89118600 -1.82790700 -0.39357000 0.38726600 1.76892200
16 -1.40592400 -0.00002500 -0.00000300 0.01207400 -0.02686800 0.45175400
17 -1.17536200 0.00012700 -0.00002000 0.05312600 0.04227700 0.80292000
18 -4.52675500 -0.69057300 -1.12074400 -0.26184200 0.27532100 1.85528700
19 -1.74404500 0.00003700 -0.00000800 -0.00637800 -0.02888000 0.62763700
20 -1.36876500 0.00002400 0.00000400 0.02849100 0.04404900 0.47030300
21 -1.87480200 -0.93512600 0.99917200 2.30037900 0.31378400 1.08810900
22 -1.52345300 0.00003000 0.00002700 0.05305500 0.16566500 0.41250900
23 -1.59928500 0.00000500 0.00001200 0.03405500 -0.02608500 0.63444600
24 5.58312400 0.11572500 0.29499600 2.70854600 -0.05525400 3.09741800
25 0.19684900 -0.00000300 0.00000300 2.79340692 -0.00057652 -3.14146182
26 0.54849300 -10.31085400 -4.22305200 1.67322000 0.96605800 1.62180500
27 6.21448500 0.00000600 0.00002000 -2.21824019 0.48480903 -3.03893325
28 11.94488700 -0.00003400 -0.00019000 -0.11095191 -0.35281162 -1.29886938
29 10.62016500 0.00000600 0.00000800 -1.49024420 -0.06035776 -0.26304768
30 4.75115700 0.69437500 -0.83047200 -0.33844000 -0.26124800 1.29342300
31 1.68806600 -0.00002600 0.00000200 0.01051700 -0.02235900 0.99904800
32 1.33614400 -0.00005300 -0.00000900 0.01010300 -0.03737100 0.10701300
33 4.82051300 0.50933800 0.22486600 -0.39832600 0.00393300 1.77193500
34 1.82699600 0.00006700 0.00000800 -0.02935500 0.02785900 0.46325400
35 1.43658100 -0.00001000 0.00000700 0.01148900 -0.00990700 -0.01879000
36 3.99235000 0.89108800 1.82799500 -0.52235300 0.24838200 1.74219200
37 1.40592100 0.00002400 -0.00000500 0.01079800 -0.02744800 0.50116800
38 1.17536400 -0.00013000 0.00000300 0.04460100 0.11489700 0.32615100
39 4.52675500 0.69045900 1.12084200 -0.46444700 0.15476900 1.82939800
40 1.74404200 -0.00003200 -0.00000200 -0.00259100 -0.02944900 0.49814700
41 1.36876300 -0.00003200 -0.00001700 0.03581200 0.15457400 0.04304500
42 1.93928100 1.01468600 -0.90910100 1.98461200 0.85942500 0.40831000
43 1.52345200 -0.00003300 -0.00000300 0.00344600 -0.10446000 0.25108100
44 1.59927900 0.00000100 0.00000600 0.05381000 0.06390000 -0.04381700
45 5.51180600 0.00000000 0.00000400 -0.27198700 0.00000000 0.00000000
46 0.19684700 0.00000100 0.00000000 -0.34822500 0.00001500 -0.00000200
47 0.00000000 0.00000000 0.00000000 0.00000000 0.00000000 -1.57079600
48 -3.84604500 4.36570100 -3.19804200 0.00000000 0.00000000 -3.14156200
49 -7.41843843 20.61985774 -1.19600806 0.43747846 0.27351148 -0.54421489
50 10.29365200 1.65650000 -1.39242200 -0.59230200 1.24938800 1.04281400
51 3.12262200 -0.01178200 -0.68646900 0.00000000 0.00000000 0.00000000
52 -4.01753200 -0.01178200 0.12452700 0.00000000 0.00000000 0.00000000
53 0.05046500 0.00000000 0.46481100 0.00000000 0.00000000 0.00000000
54 1.27159100 0.74292900 1.02600600 0.00000000 0.00000000 0.00000000
55 -3.03010000 -0.02560600 -1.06275300 0.00000000 0.00000000 0.00000000
56 2.12937200 -2.30115700 -2.87848400 3.04987700 0.77861500 -2.38808600
time 11
0 -0.00000100 7.45008900 -27.50902600 0.00000000 0.00000000 0.00003100
1 -0.00000200 0.00000000 0.00000000 1.57074300 -1.56713700 -1.57074300
2 4.25546800 -0.33518300 -0.00000200 0.00000000 0.00000000 -0.12484800
3 7.43124800 1.49647700 0.00000200 0.00000000 0.00000000 0.24545000
4 5.27847900 0.16554100 0.00000100 0.00000000 0.00000000 0.04851100
5 -1.53500700 -12.93564600 6.15210900 1.97586400 1.15990900 -1.29878600
6 -6.21448200 -0.00000700 -0.00002700 -2.53014172 -0.63123651 1.14375908
7 11.94488700 0.00000000 0.00000000 -0.34024144 -0.32101544 1.91749277
8 10.62018300 0.00000000 -0.00000100 1.23809479 -0.59401395 2.32355476
9 -4.75111200 -0.69449200 0.83057300 0.04913500 -0.07824800 0.26163600
10 -1.68807100 0.00004700 -0.00003100 0.02216600 -0.01093400 0.32820700
11 -1.33613900 0.00005600 -0.00001200 0.02584800 0.00498300 0.36433000
12 -4.82049900 -0.50945800 -0.22476000 -0.30996000 0.01843000 1.56221200
13 -1.82699000 -0.00006600 0.00000700 -0.01505300 0.03754500 0.89279800
14 -1.43657900 0.00001100 0.00000300 -0.04326900 -0.06465400 0.49796600
15 -3.99236100 -0.89118600 -1.82790700 -0.39357000 0.38726600 1.76892200
16 -1.40592400 -0.00002500 -0.00000300 0.01207400 -0.02686800 0.45175400
17 -1.17536200 0.00012700 -0.00002000 0.05312600 0.04227700 0.80292000
18 -4.52675500 -0.69057300 -1.12074400 -0.26184200 0.27532100 1.85528700
19 -1.74404500 0.00003700 -0.00000800 -0.00637800 -0.02888000 0.62763700
20 -1.36876500 0.00002400 0.00000400 0.02849100 0.04404900 0.47030300
21 -1.87480200 -0.93512600 0.99917200 2.30037900 0.31378400 1.08810900
22 -1.52345300 0.00003000 0.00002700 0.05305500 0.16566500 0.41250900
23 -1.59928500 0.00000500 0.00001200 0.03405500 -0.02608500 0.63444600
24 5.58312400 0.11572500 0.29499600 2.70854600 -0.05525400 3.09741800
25 0.19684900 -0.00000300 0.00000300 2.79340692 -0.00057652 -3.14146182
26 0.11613300 -9.98686500 -3.24096500 1.75216000 1.03292800 1.67349900
27 6.21448500 0.00000600 0.00002000 -2.17228273 0.47585953 -2.91704098
28 11.94488700 -0.00003400 -0.00019000 -0.09505608 -0.35974054 -1.34674371
29 10.62016500 0.00000600 0.00000800 -1.46952765 -0.06919488 -0.23780052
30 4.75115700 0.69437500 -0.83047200 -0.33844000 -0.26124800 1.29342300
31 1.68806600 -0.00002600 0.00000200 0.01051700 -0.02235900 0.99904800
32 1.33614400 -0.00005300 -0.00000900 0.01010300 -0.03737100 0.10701300
33 4.82051300 0.50933800 0.22486600 -0.39832600 0.00393300 1.77193500
34 1.82699600 0.00006700 0.00000800 -0.02935500 0.02785900 0.46325400
35 1.43658100 -0.00001000 0.00000700 0.01148900 -0.00990700 -0.01879000
36 3.99235000 0.89108800 1.82799500 -0.52235300 0.24838200 1.74219200
37 1.40592100 0.00002400 -0.00000500 0.01079800 -0.02744800 0.50116800
38 1.17536400 -0.00013000 0.00000300 0.04460100 0.11489700 0.32615100
39 4.52675500 0.69045900 1.12084200 -0.46444700 0.15476900 1.82939800
40 1.74404200 -0.00003200 -0.00000200 -0.00259100 -0.02944900 0.49814700
41 1.36876300 -0.00003200 -0.00001700 0.03581200 0.15457400 0.04304500
42 1.93928100 1.01468600 -0.90910100 1.98461200 0.85942500 0.40831000
43 1.52345200 -0.00003300 -0.00000300 0.00344600 -0.10446000 0.25108100
44 1.59927900 0.00000100 0.00000600 0.05381000 0.06390000 -0.04381700
45 5.51180600 0.00000000 0.00000400 -0.27198700 0.00000000 0.00000000
46 0.19684700 0.00000100 0.00000000 -0.34822500 0.00001500 -0.00000200
47 0.00000000 0.00000000 0.00000000 0.00000000 0.00000000 -1.57079600
48 -3.84604500 4.36570100 -3.19804200 0.00000000 0.00000000 -3.14156200
49 -7.69463851 20.63567198 -1.22803797 0.45285552 0.26482519 -0.48115196
50 10.29365200 1.65650000 -1.39242200 -0.59230200 1.24938800 1.04281400
51 3.12262200 -0.01178200 -0.68646900 0.00000000 0.00000000 0.00000000
52 -4.01753200 -0.01178200 0.12452700 0.00000000 0.00000000 0.00000000
53 0.05046500 0.00000000 0.46481100 0.00000000 0.00000000 0.00000000
54 1.27159100 0.74292900 1.02600600 0.00000000 0.00000000 0.00000000
55 -3.03010000 -0.02560600 -1.06275300 0.00000000 0.00000000 0.00000000
56 2.12937200 -2.30115700 -2.87848400 3.04987700 0.77861500 -2.38808600
time 12
0 -0.00000100 7.45008900 -27.50902600 0.00000000 0.00000000 0.00003100
1 -0.00000200 0.00000000 0.00000000 1.57074300 -1.56713700 -1.57074300
2 4.25546800 -0.33518300 -0.00000200 0.00000000 0.00000000 -0.12484800
3 7.43124800 1.49647700 0.00000200 0.00000000 0.00000000 0.24545000
4 5.27847900 0.16554100 0.00000100 0.00000000 0.00000000 0.04851100
5 -1.64874100 -13.09410300 6.31045700 1.97586400 1.15990900 -1.29878600
6 -6.21448200 -0.00000700 -0.00002700 -2.50530852 -0.61628645 1.12135855
7 11.94488700 0.00000000 0.00000000 -0.32661334 -0.32374038 1.87583809
8 10.62018300 0.00000000 -0.00000100 1.23387577 -0.63484837 2.36851038
9 -4.75111200 -0.69449200 0.83057300 0.04913500 -0.07824800 0.26163600
10 -1.68807100 0.00004700 -0.00003100 0.02216600 -0.01093400 0.32820700
11 -1.33613900 0.00005600 -0.00001200 0.02584800 0.00498300 0.36433000
12 -4.82049900 -0.50945800 -0.22476000 -0.30996000 0.01843000 1.56221200
13 -1.82699000 -0.00006600 0.00000700 -0.01505300 0.03754500 0.89279800
14 -1.43657900 0.00001100 0.00000300 -0.04326900 -0.06465400 0.49796600
15 -3.99236100 -0.89118600 -1.82790700 -0.39357000 0.38726600 1.76892200
16 -1.40592400 -0.00002500 -0.00000300 0.01207400 -0.02686800 0.45175400
17 -1.17536200 0.00012700 -0.00002000 0.05312600 0.04227700 0.80292000
18 -4.52675500 -0.69057300 -1.12074400 -0.26184200 0.27532100 1.85528700
19 -1.74404500 0.00003700 -0.00000800 -0.00637800 -0.02888000 0.62763700
20 -1.36876500 0.00002400 0.00000400 0.02849100 0.04404900 0.47030300
21 -1.87480200 -0.93512600 0.99917200 2.30037900 0.31378400 1.08810900
22 -1.52345300 0.00003000 0.00002700 0.05305500 0.16566500 0.41250900
23 -1.59928500 0.00000500 0.00001200 0.03405500 -0.02608500 0.63444600
24 5.58312400 0.11572500 0.29499600 2.70854600 -0.05525400 3.09741800
25 0.19684900 -0.00000300 0.00000300 2.79340692 -0.00057652 -3.14146182
26 -0.25206400 -9.71095800 -2.40462800 1.83201500 1.08713900 1.73081200
27 6.21448500 0.00000600 0.00002000 -2.12008333 0.46227621 -2.80946930
28 11.94488700 -0.00003400 -0.00019000 -0.08500825 -0.36434047 -1.37679874
29 10.62016500 0.00000600 0.00000800 -1.45625622 -0.08286366 -0.21661682
30 4.75115700 0.69437500 -0.83047200 -0.33844000 -0.26124800 1.29342300
31 1.68806600 -0.00002600 0.00000200 0.01051700 -0.02235900 0.99904800
32 1.33614400 -0.00005300 -0.00000900 0.01010300 -0.03737100 0.10701300
33 4.82051300 0.50933800 0.22486600 -0.39832600 0.00393300 1.77193500
34 1.82699600 0.00006700 0.00000800 -0.02935500 0.02785900 0.46325400
35 1.43658100 -0.00001000 0.00000700 0.01148900 -0.00990700 -0.01879000
36 3.99235000 0.89108800 1.82799500 -0.52235300 0.24838200 1.74219200
37 1.40592100 0.00002400 -0.00000500 0.01079800 -0.02744800 0.50116800
38 1.17536400 -0.00013000 0.00000300 0.04460100 0.11489700 0.32615100
39 4.52675500 0.69045900 1.12084200 -0.46444700 0.15476900 1.82939800
40 1.74404200 -0.00003200 -0.00000200 -0.00259100 -0.02944900 0.49814700
41 1.36876300 -0.00003200 -0.00001700 0.03581200 0.15457400 0.04304500
42 1.93928100 1.01468600 -0.90910100 1.98461200 0.85942500 0.40831000
43 1.52345200 -0.00003300 -0.00000300 0.00344600 -0.10446000 0.25108100
44 1.59927900 0.00000100 0.00000600 0.05381000 0.06390000 -0.04381700
45 5.51180600 0.00000000 0.00000400 -0.27198700 0.00000000 0.00000000
46 0.19684700 0.00000100 0.00000000 -0.34822500 0.00001500 -0.00000200
47 0.00000000 0.00000000 0.00000000 0.00000000 0.00000000 -1.57079600
48 -3.84604500 4.36570100 -3.19804200 0.00000000 0.00000000 -3.14156200
49 -7.81744529 20.65188796 -1.21873918 0.46535675 0.25868812 -0.43434898
50 10.29365200 1.65650000 -1.39242200 -0.59230200 1.24938800 1.04281400
51 3.12262200 -0.01178200 -0.68646900 0.00000000 0.00000000 0.00000000
52 -4.01753200 -0.01178200 0.12452700 0.00000000 0.00000000 0.00000000
53 0.05046500 0.00000000 0.46481100 0.00000000 0.00000000 0.00000000
54 1.27159100 0.74292900 1.02600600 0.00000000 0.00000000 0.00000000
55 -3.03010000 -0.02560600 -1.06275300 0.00000000 0.00000000 0.00000000
56 2.12937200 -2.30115700 -2.87848400 3.04987700 0.77861500 -2.38808600
time 13
0 -0.00000100 7.45008900 -27.50902600 0.00000000 0.00000000 0.00003100
1 -0.00000200 0.00000000 0.00000000 1.57074300 -1.56713700 -1.57074300
2 4.25546800 -0.33518300 -0.00000200 0.00000000 0.00000000 -0.12484800
3 7.43124800 1.49647700 0.00000200 0.00000000 0.00000000 0.24545000
4 5.27847900 0.16554100 0.00000100 0.00000000 0.00000000 0.04851100
5 -1.64874100 -13.09410300 6.31045700 1.97586400 1.15990900 -1.29878600
6 -6.21448200 -0.00000700 -0.00002700 -2.48379478 -0.60852770 1.11611425
7 11.94488700 0.00000000 0.00000000 -0.31582699 -0.32547185 1.84314291
8 10.62018300 0.00000000 -0.00000100 1.22322863 -0.67186730 2.41381863
9 -4.75111200 -0.69449200 0.83057300 0.04913500 -0.07824800 0.26163600
10 -1.68807100 0.00004700 -0.00003100 0.02216600 -0.01093400 0.32820700
11 -1.33613900 0.00005600 -0.00001200 0.02584800 0.00498300 0.36433000
12 -4.82049900 -0.50945800 -0.22476000 -0.30996000 0.01843000 1.56221200
13 -1.82699000 -0.00006600 0.00000700 -0.01505300 0.03754500 0.89279800
14 -1.43657900 0.00001100 0.00000300 -0.04326900 -0.06465400 0.49796600
15 -3.99236100 -0.89118600 -1.82790700 -0.39357000 0.38726600 1.76892200
16 -1.40592400 -0.00002500 -0.00000300 0.01207400 -0.02686800 0.45175400
17 -1.17536200 0.00012700 -0.00002000 0.05312600 0.04227700 0.80292000
18 -4.52675500 -0.69057300 -1.12074400 -0.26184200 0.27532100 1.85528700
19 -1.74404500 0.00003700 -0.00000800 -0.00637800 -0.02888000 0.62763700
20 -1.36876500 0.00002400 0.00000400 0.02849100 0.04404900 0.47030300
21 -1.87480200 -0.93512600 0.99917200 2.30037900 0.31378400 1.08810900
22 -1.52345300 0.00003000 0.00002700 0.05305500 0.16566500 0.41250900
23 -1.59928500 0.00000500 0.00001200 0.03405500 -0.02608500 0.63444600
24 5.58312400 0.11572500 0.29499600 2.70854600 -0.05525400 3.09741800
25 0.19684900 -0.00000300 0.00000300 2.79340692 -0.00057652 -3.14146182
26 -0.53776000 -9.49687400 -1.75568600 1.90396700 1.12699100 1.78563000
27 6.21448500 0.00000600 0.00002000 -2.07427834 0.44749945 -2.72487053
28 11.94488700 -0.00003400 -0.00019000 -0.07828031 -0.36602121 -1.39674127
29 10.62016500 0.00000600 0.00000800 -1.44322084 -0.09854614 -0.19575884
30 4.75115700 0.69437500 -0.83047200 -0.33844000 -0.26124800 1.29342300
31 1.68806600 -0.00002600 0.00000200 0.01051700 -0.02235900 0.99904800
32 1.33614400 -0.00005300 -0.00000900 0.01010300 -0.03737100 0.10701300
33 4.82051300 0.50933800 0.22486600 -0.39832600 0.00393300 1.77193500
34 1.82699600 0.00006700 0.00000800 -0.02935500 0.02785900 0.46325400
35 1.43658100 -0.00001000 0.00000700 0.01148900 -0.00990700 -0.01879000
36 3.99235000 0.89108800 1.82799500 -0.52235300 0.24838200 1.74219200
37 1.40592100 0.00002400 -0.00000500 0.01079800 -0.02744800 0.50116800
38 1.17536400 -0.00013000 0.00000300 0.04460100 0.11489700 0.32615100
39 4.52675500 0.69045900 1.12084200 -0.46444700 0.15476900 1.82939800
40 1.74404200 -0.00003200 -0.00000200 -0.00259100 -0.02944900 0.49814700
41 1.36876300 -0.00003200 -0.00001700 0.03581200 0.15457400 0.04304500
42 1.93928100 1.01468600 -0.90910100 1.98461200 0.85942500 0.40831000
43 1.52345200 -0.00003300 -0.00000300 0.00344600 -0.10446000 0.25108100
44 1.59927900 0.00000100 0.00000600 0.05381000 0.06390000 -0.04381700
45 5.51180600 0.00000000 0.00000400 -0.27198700 0.00000000 0.00000000
46 0.19684700 0.00000100 0.00000000 -0.34822500 0.00001500 -0.00000200
47 0.00000000 0.00000000 0.00000000 0.00000000 0.00000000 -1.57079600
48 -3.84604500 4.36570100 -3.19804200 0.00000000 0.00000000 -3.14156200
49 -7.84961378 20.66654697 -1.17574927 0.46921733 0.25556329 -0.40256004
50 10.29365200 1.65650000 -1.39242200 -0.59230200 1.24938800 1.04281400
51 3.12262200 -0.01178200 -0.68646900 0.00000000 0.00000000 0.00000000
52 -4.01753200 -0.01178200 0.12452700 0.00000000 0.00000000 0.00000000
53 0.05046500 0.00000000 0.46481100 0.00000000 0.00000000 0.00000000
54 1.27159100 0.74292900 1.02600600 0.00000000 0.00000000 0.00000000
55 -3.03010000 -0.02560600 -1.06275300 0.00000000 0.00000000 0.00000000
56 2.12937200 -2.30115700 -2.87848400 3.04987700 0.77861500 -2.38808600
time 14
0 -0.00000100 7.45008900 -27.50902600 0.00000000 0.00000000 0.00003100
1 -0.00000200 0.00000000 0.00000000 1.57074300 -1.56713700 -1.57074300
2 4.25546800 -0.33518300 -0.00000200 0.00000000 0.00000000 -0.12484800
3 7.43124800 1.49647700 0.00000200 0.00000000 0.00000000 0.24545000
4 5.27847900 0.16554100 0.00000100 0.00000000 0.00000000 0.04851100
5 -1.64874100 -13.09410300 6.31045700 1.97586400 1.15990900 -1.29878600
6 -6.21448200 -0.00000700 -0.00002700 -2.47220491 -0.60529568 1.11448585
7 11.94488700 0.00000000 0.00000000 -0.30965254 -0.32671964 1.82440514
8 10.62018300 0.00000000 -0.00000100 1.20660026 -0.69348728 2.44367802
9 -4.75111200 -0.69449200 0.83057300 0.04913500 -0.07824800 0.26163600
10 -1.68807100 0.00004700 -0.00003100 0.02216600 -0.01093400 0.32820700
11 -1.33613900 0.00005600 -0.00001200 0.02584800 0.00498300 0.36433000
12 -4.82049900 -0.50945800 -0.22476000 -0.30996000 0.01843000 1.56221200
13 -1.82699000 -0.00006600 0.00000700 -0.01505300 0.03754500 0.89279800
14 -1.43657900 0.00001100 0.00000300 -0.04326900 -0.06465400 0.49796600
15 -3.99236100 -0.89118600 -1.82790700 -0.39357000 0.38726600 1.76892200
16 -1.40592400 -0.00002500 -0.00000300 0.01207400 -0.02686800 0.45175400
17 -1.17536200 0.00012700 -0.00002000 0.05312600 0.04227700 0.80292000
18 -4.52675500 -0.69057300 -1.12074400 -0.26184200 0.27532100 1.85528700
19 -1.74404500 0.00003700 -0.00000800 -0.00637800 -0.02888000 0.62763700
20 -1.36876500 0.00002400 0.00000400 0.02849100 0.04404900 0.47030300
21 -1.87480200 -0.93512600 0.99917200 2.30037900 0.31378400 1.08810900
22 -1.52345300 0.00003000 0.00002700 0.05305500 0.16566500 0.41250900
23 -1.59928500 0.00000500 0.00001200 0.03405500 -0.02608500 0.63444600
24 5.58312400 0.11572500 0.29499600 2.70854600 -0.05525400 3.09741800
25 0.19684900 -0.00000300 0.00000300 2.79340692 -0.00057652 -3.14146182
26 -0.72262000 -9.35834900 -1.33578500 1.95621000 1.15149500 1.82699700
27 6.21448500 0.00000600 0.00002000 -2.04518228 0.43586052 -2.67112105
28 11.94488700 -0.00003400 -0.00019000 -0.07348827 -0.36536326 -1.41082187
29 10.62016500 0.00000600 0.00000800 -1.42709934 -0.11094790 -0.17691125
30 4.75115700 0.69437500 -0.83047200 -0.33844000 -0.26124800 1.29342300
31 1.68806600 -0.00002600 0.00000200 0.01051700 -0.02235900 0.99904800
32 1.33614400 -0.00005300 -0.00000900 0.01010300 -0.03737100 0.10701300
33 4.82051300 0.50933800 0.22486600 -0.39832600 0.00393300 1.77193500
34 1.82699600 0.00006700 0.00000800 -0.02935500 0.02785900 0.46325400
35 1.43658100 -0.00001000 0.00000700 0.01148900 -0.00990700 -0.01879000
36 3.99235000 0.89108800 1.82799500 -0.52235300 0.24838200 1.74219200
37 1.40592100 0.00002400 -0.00000500 0.01079800 -0.02744800 0.50116800
38 1.17536400 -0.00013000 0.00000300 0.04460100 0.11489700 0.32615100
39 4.52675500 0.69045900 1.12084200 -0.46444700 0.15476900 1.82939800
40 1.74404200 -0.00003200 -0.00000200 -0.00259100 -0.02944900 0.49814700
41 1.36876300 -0.00003200 -0.00001700 0.03581200 0.15457400 0.04304500
42 1.93928100 1.01468600 -0.90910100 1.98461200 0.85942500 0.40831000
43 1.52345200 -0.00003300 -0.00000300 0.00344600 -0.10446000 0.25108100
44 1.59927900 0.00000100 0.00000600 0.05381000 0.06390000 -0.04381700
45 5.51180600 0.00000000 0.00000400 -0.27198700 0.00000000 0.00000000
46 0.19684700 0.00000100 0.00000000 -0.34822500 0.00001500 -0.00000200
47 0.00000000 0.00000000 0.00000000 0.00000000 0.00000000 -1.57079600
48 -3.84604500 4.36570100 -3.19804200 0.00000000 0.00000000 -3.14156200
49 -7.83826717 20.67726660 -1.13473173 0.46305933 0.25570806 -0.38383501
50 10.29365200 1.65650000 -1.39242200 -0.59230200 1.24938800 1.04281400
51 3.12262200 -0.01178200 -0.68646900 0.00000000 0.00000000 0.00000000
52 -4.01753200 -0.01178200 0.12452700 0.00000000 0.00000000 0.00000000
53 0.05046500 0.00000000 0.46481100 0.00000000 0.00000000 0.00000000
54 1.27159100 0.74292900 1.02600600 0.00000000 0.00000000 0.00000000
55 -3.03010000 -0.02560600 -1.06275300 0.00000000 0.00000000 0.00000000
56 2.12937200 -2.30115700 -2.87848400 3.04987700 0.77861500 -2.38808600
time 15
0 -0.00000100 7.45008900 -27.50902600 0.00000000 0.00000000 0.00003100
1 -0.00000200 0.00000000 0.00000000 1.57074300 -1.56713700 -1.57074300
2 4.25546800 -0.33518300 -0.00000200 0.00000000 0.00000000 -0.12484800
3 7.43124800 1.49647700 0.00000200 0.00000000 0.00000000 0.24545000
4 5.27847900 0.16554100 0.00000100 0.00000000 0.00000000 0.04851100
5 -1.64874100 -13.09410300 6.31045700 1.97586400 1.15990900 -1.29878600
6 -6.21448200 -0.00000700 -0.00002700 -2.47003899 -0.60634536 1.11629559
7 11.94488700 0.00000000 0.00000000 -0.30779232 -0.32781914 1.81893267
8 10.62018300 0.00000000 -0.00000100 1.19050017 -0.70033632 2.45967196
9 -4.75111200 -0.69449200 0.83057300 0.04913500 -0.07824800 0.26163600
10 -1.68807100 0.00004700 -0.00003100 0.02216600 -0.01093400 0.32820700
11 -1.33613900 0.00005600 -0.00001200 0.02584800 0.00498300 0.36433000
12 -4.82049900 -0.50945800 -0.22476000 -0.30996000 0.01843000 1.56221200
13 -1.82699000 -0.00006600 0.00000700 -0.01505300 0.03754500 0.89279800
14 -1.43657900 0.00001100 0.00000300 -0.04326900 -0.06465400 0.49796600
15 -3.99236100 -0.89118600 -1.82790700 -0.39357000 0.38726600 1.76892200
16 -1.40592400 -0.00002500 -0.00000300 0.01207400 -0.02686800 0.45175400
17 -1.17536200 0.00012700 -0.00002000 0.05312600 0.04227700 0.80292000
18 -4.52675500 -0.69057300 -1.12074400 -0.26184200 0.27532100 1.85528700
19 -1.74404500 0.00003700 -0.00000800 -0.00637800 -0.02888000 0.62763700
20 -1.36876500 0.00002400 0.00000400 0.02849100 0.04404900 0.47030300
21 -1.87480200 -0.93512600 0.99917200 2.30037900 0.31378400 1.08810900
22 -1.52345300 0.00003000 0.00002700 0.05305500 0.16566500 0.41250900
23 -1.59928500 0.00000500 0.00001200 0.03405500 -0.02608500 0.63444600
24 5.58312400 0.11572500 0.29499600 2.70854600 -0.05525400 3.09741800
25 0.19684900 -0.00000300 0.00000300 2.79340692 -0.00057652 -3.14146182
26 -0.78831400 -9.30912200 -1.18656300 1.97599600 1.15993000 1.84296200
27 6.21448500 0.00000600 0.00002000 -2.03533304 0.43163000 -2.65296606
28 11.94488700 -0.00003400 -0.00019000 -0.07121579 -0.36342647 -1.41742967
29 10.62016500 0.00000600 0.00000800 -1.41341868 -0.11700391 -0.16749976
30 4.75115700 0.69437500 -0.83047200 -0.33844000 -0.26124800 1.29342300
31 1.68806600 -0.00002600 0.00000200 0.01051700 -0.02235900 0.99904800
32 1.33614400 -0.00005300 -0.00000900 0.01010300 -0.03737100 0.10701300
33 4.82051300 0.50933800 0.22486600 -0.39832600 0.00393300 1.77193500
34 1.82699600 0.00006700 0.00000800 -0.02935500 0.02785900 0.46325400
35 1.43658100 -0.00001000 0.00000700 0.01148900 -0.00990700 -0.01879000
36 3.99235000 0.89108800 1.82799500 -0.52235300 0.24838200 1.74219200
37 1.40592100 0.00002400 -0.00000500 0.01079800 -0.02744800 0.50116800
38 1.17536400 -0.00013000 0.00000300 0.04460100 0.11489700 0.32615100
39 4.52675500 0.69045900 1.12084200 -0.46444700 0.15476900 1.82939800
40 1.74404200 -0.00003200 -0.00000200 -0.00259100 -0.02944900 0.49814700
41 1.36876300 -0.00003200 -0.00001700 0.03581200 0.15457400 0.04304500
42 1.93928100 1.01468600 -0.90910100 1.98461200 0.85942500 0.40831000
43 1.52345200 -0.00003300 -0.00000300 0.00344600 -0.10446000 0.25108100
44 1.59927900 0.00000100 0.00000600 0.05381000 0.06390000 -0.04381700
45 5.51180600 0.00000000 0.00000400 -0.27198700 0.00000000 0.00000000
46 0.19684700 0.00000100 0.00000000 -0.34822500 0.00001500 -0.00000200
47 0.00000000 0.00000000 0.00000000 0.00000000 0.00000000 -1.57079600
48 -3.84604500 4.36570100 -3.19804200 0.00000000 0.00000000 -3.14156200
49 -7.80317755 20.68191138 -1.10673673 0.45383504 0.25902220 -0.37668936
50 10.29365200 1.65650000 -1.39242200 -0.59230200 1.24938800 1.04281400
51 3.12262200 -0.01178200 -0.68646900 0.00000000 0.00000000 0.00000000
52 -4.01753200 -0.01178200 0.12452700 0.00000000 0.00000000 0.00000000
53 0.05046500 0.00000000 0.46481100 0.00000000 0.00000000 0.00000000
54 1.27159100 0.74292900 1.02600600 0.00000000 0.00000000 0.00000000
55 -3.03010000 -0.02560600 -1.06275300 0.00000000 0.00000000 0.00000000
56 2.12937200 -2.30115700 -2.87848400 3.04987700 0.77861500 -2.38808600
end
