version 1
nodes
0 "root" -1
1 "pelvis" 0
2 "spine_01" 1
3 "spine_02" 2
4 "spine_03" 3
5 "clavicle_r" 4
6 "upperarm_r" 5
7 "lowerarm_r" 6
8 "hand_r" 7
9 "index_01_r" 8
10 "index_02_r" 9
11 "index_03_r" 10
12 "middle_01_r" 8
13 "middle_02_r" 12
14 "middle_03_r" 13
15 "pinky_01_r" 8
16 "pinky_02_r" 15
17 "pinky_03_r" 16
18 "ring_01_r" 8
19 "ring_02_r" 18
20 "ring_03_r" 19
21 "thumb_01_r" 8
22 "thumb_02_r" 21
23 "thumb_03_r" 22
24 "lowerarm_twist_01_r" 7
25 "upperarm_twist_01_r" 6
26 "clavicle_l" 4
27 "upperarm_l" 26
28 "lowerarm_l" 27
29 "hand_l" 28
30 "index_01_l" 29
31 "index_02_l" 30
32 "index_03_l" 31
33 "middle_01_l" 29
34 "middle_02_l" 33
35 "middle_03_l" 34
36 "pinky_01_l" 29
37 "pinky_02_l" 36
38 "pinky_03_l" 37
39 "ring_01_l" 29
40 "ring_02_l" 39
41 "ring_03_l" 40
42 "thumb_01_l" 29
43 "thumb_02_l" 42
44 "thumb_03_l" 43
45 "lowerarm_twist_01_l" 28
46 "upperarm_twist_01_l" 27
47 "cam_driver" -1
48 "BaseRoot" -1
49 "Base" 48
50 "rhand_ikTarget" 49
51 "Trigger" 49
52 "Mag" 49
53 "Bullets" 52
54 "Bolt" 49
55 "MagRelease" 49
56 "lhand_ikTarget" 49
end
skeleton
time 0
0 -0.00000100 7.45008900 -27.50902600 0.00000000 0.00000000 0.00003100
1 -0.00000200 0.00000000 0.00000000 1.57074300 -1.56713700 -1.57074300
2 4.25546800 -0.33518300 -0.00000200 0.00000000 0.00000000 -0.12484800
3 7.43124800 1.49647700 0.00000200 0.00000000 0.00000000 0.24545000
4 5.27847900 0.16554100 0.00000100 0.00000000 0.00000000 0.04851100
5 4.13153500 -5.04083300 -1.73732300 1.97586400 1.15990900 -1.29878600
6 -6.21448200 -0.00000700 -0.00002700 -2.98099955 -0.72621161 2.01783658
7 11.94488700 0.00000000 0.00000000 -0.40952411 -0.29722522 2.14142610
8 10.62018300 0.00000000 -0.00000100 0.96031239 -0.20695395 1.86039640
9 -4.75111200 -0.69449200 0.83057300 0.04913500 -0.07824800 0.26163600
10 -1.68807100 0.00004700 -0.00003100 0.02216600 -0.01093400 0.32820700
11 -1.33613900 0.00005600 -0.00001200 0.02584800 0.00498300 0.36433000
12 -4.82049900 -0.50945800 -0.22476000 -0.30996000 0.01843000 1.56221200
13 -1.82699000 -0.00006600 0.00000700 -0.01505300 0.03754500 0.89279800
14 -1.43657900 0.00001100 0.00000300 -0.04326900 -0.06465400 0.49796600
15 -3.99236100 -0.89118600 -1.82790700 -0.39357000 0.38726600 1.76892200
16 -1.40592400 -0.00002500 -0.00000300 0.01207400 -0.02686800 0.45175400
17 -1.17536200 0.00012700 -0.00002000 0.05312600 0.04227700 0.80292000
18 -4.52675500 -0.69057300 -1.12074400 -0.26184200 0.27532100 1.85528700
19 -1.74404500 0.00003700 -0.00000800 -0.00637800 -0.02888000 0.62763700
20 -1.36876500 0.00002400 0.00000400 0.02849100 0.04404900 0.47030300
21 -1.87480200 -0.93512600 0.99917200 2.30037900 0.31378400 1.08810900
22 -1.52345300 0.00003000 0.00002700 0.05305500 0.16566500 0.41250900
23 -1.59928500 0.00000500 0.00001200 0.03405500 -0.02608500 0.63444600
24 5.58312400 0.11572400 0.29499900 2.70854600 -0.05525400 3.09741800
25 0.19684900 -0.00000300 0.00000300 2.79340694 -0.00046002 -3.14148486
26 3.39921400 -12.64849300 -7.89736500 1.97586200 1.15990900 1.84280300
27 6.21448500 0.00000600 0.00002000 -1.69792363 0.85699364 -3.07588893
28 11.94488700 -0.00003400 -0.00019000 -0.12823493 -0.33266725 -1.24631647
29 10.62016500 0.00000600 0.00000800 -2.04930720 -0.25596418 0.28744537
30 4.75115700 0.69437500 -0.83047200 -0.33844000 -0.26124800 1.29342300
31 1.68806600 -0.00002600 0.00000200 0.01051700 -0.02235900 0.99904800
32 1.33614400 -0.00005300 -0.00000900 0.01010300 -0.03737100 0.10701300
33 4.82051300 0.50933800 0.22486600 -0.39832600 0.00393300 1.77193500
34 1.82699600 0.00006700 0.00000800 -0.02935500 0.02785900 0.46325400
35 1.43658100 -0.00001000 0.00000700 0.01148900 -0.00990700 -0.01879000
36 3.99235000 0.89108800 1.82799500 -0.52235300 0.24838200 1.74219200
37 1.40592100 0.00002400 -0.00000500 0.01079800 -0.02744800 0.50116800
38 1.17536400 -0.00013000 0.00000300 0.04460100 0.11489700 0.32615100
39 4.52675500 0.69045900 1.12084200 -0.46444700 0.15476900 1.82939800
40 1.74404200 -0.00003200 -0.00000200 -0.00259100 -0.02944900 0.49814700
41 1.36876300 -0.00003200 -0.00001700 0.03581200 0.15457400 0.04304500
42 1.93928200 1.01468700 -0.90910200 1.98461200 0.85942500 0.40831000
43 1.52345200 -0.00003300 -0.00000300 0.00344600 -0.10446000 0.25108100
44 1.59927900 0.00000100 0.00000600 0.05381000 0.06390000 -0.04381700
45 5.51180600 0.00000000 0.00000400 -0.27198700 0.00000000 0.00000000
46 0.19684700 0.00000100 0.00000000 -0.34822500 0.00001500 -0.00000200
47 0.00000000 0.00000000 0.00000000 0.00000000 0.00000000 -1.57079600
48 -3.84604500 4.36570100 -3.19804200 0.00000000 0.00000000 -3.14156200
49 -1.64040613 19.41348331 -2.55263269 0.08147233 -0.00696970 -1.55228160
50 10.29346800 1.65648300 -1.39238100 -0.59230200 1.24938800 1.04281400
51 3.12262200 -0.01178200 -0.68646900 0.00000000 0.00000000 0.00000000
52 -4.01753200 -0.01178200 0.12452700 0.00000000 0.00000000 0.00000000
53 0.05046500 0.00000000 0.46481100 0.00000000 0.00000000 0.00000000
54 1.27158900 0.74292800 1.02600500 0.00000000 0.00000000 0.00000000
55 -3.03010000 -0.02560600 -1.06275300 0.00000000 0.00000000 0.00000000
56 2.12937200 -2.30115700 -2.87848400 3.04987700 0.77861500 -2.38808600
time 1
0 -0.00000100 7.45008900 -27.50902600 0.00000000 0.00000000 0.00003100
1 -0.00000200 0.00000000 0.00000000 1.57074300 -1.56713700 -1.57074300
2 4.25546800 -0.33518300 -0.00000200 0.00000000 0.00000000 -0.12484800
3 7.43124800 1.49647700 0.00000200 0.00000000 0.00000000 0.24545000
4 5.27847900 0.16554100 0.00000100 0.00000000 0.00000000 0.04851100
5 4.01780300 -5.19928900 -1.57897500 1.97586400 1.15990900 -1.29878600
6 -6.21448200 -0.00000700 -0.00002700 -2.98937665 -0.73355958 2.01924576
7 11.94488700 0.00000000 0.00000000 -0.41257647 -0.29509390 2.15194409
8 10.62018300 0.00000000 -0.00000100 0.95554003 -0.20537330 1.88013274
9 -4.75111200 -0.69449200 0.83057300 0.04913500 -0.07824800 0.26163600
10 -1.68807100 0.00004700 -0.00003100 0.02216600 -0.01093400 0.32820700
11 -1.33613900 0.00005600 -0.00001200 0.02584800 0.00498300 0.36433000
12 -4.82049900 -0.50945800 -0.22476000 -0.30996000 0.01843000 1.56221200
13 -1.82699000 -0.00006600 0.00000700 -0.01505300 0.03754500 0.89279800
14 -1.43657900 0.00001100 0.00000300 -0.04326900 -0.06465400 0.49796600
15 -3.99236100 -0.89118600 -1.82790700 -0.39357000 0.38726600 1.76892200
16 -1.40592400 -0.00002500 -0.00000300 0.01207400 -0.02686800 0.45175400
17 -1.17536200 0.00012700 -0.00002000 0.05312600 0.04227700 0.80292000
18 -4.52675500 -0.69057300 -1.12074400 -0.26184200 0.27532100 1.85528700
19 -1.74404500 0.00003700 -0.00000800 -0.00637800 -0.02888000 0.62763700
20 -1.36876500 0.00002400 0.00000400 0.02849100 0.04404900 0.47030300
21 -1.87480200 -0.93512600 0.99917200 2.30037900 0.31378400 1.08810900
22 -1.52345300 0.00003000 0.00002700 0.05305500 0.16566500 0.41250900
23 -1.59928500 0.00000500 0.00001200 0.03405500 -0.02608500 0.63444600
24 5.58312400 0.11572400 0.29499900 2.70854600 -0.05525400 3.09741800
25 0.19684900 -0.00000300 0.00000300 2.79340694 -0.00046002 -3.14148486
26 3.34586200 -12.60594700 -7.81186400 1.97586200 1.15990900 1.84280300
27 6.21448500 0.00000600 0.00002000 -1.72115484 0.85795389 -3.08247723
28 11.94488700 -0.00003400 -0.00019000 -0.12219811 -0.33477700 -1.26481680
29 10.62016500 0.00000600 0.00000800 -2.01929092 -0.25441413 0.27723293
30 4.75115700 0.69437500 -0.83047200 -0.33844000 -0.26124800 1.29342300
31 1.68806600 -0.00002600 0.00000200 0.01051700 -0.02235900 0.99904800
32 1.33614400 -0.00005300 -0.00000900 0.01010300 -0.03737100 0.10701300
33 4.82051300 0.50933800 0.22486600 -0.39832600 0.00393300 1.77193500
34 1.82699600 0.00006700 0.00000800 -0.02935500 0.02785900 0.46325400
35 1.43658100 -0.00001000 0.00000700 0.01148900 -0.00990700 -0.01879000
36 3.99235000 0.89108800 1.82799500 -0.52235300 0.24838200 1.74219200
37 1.40592100 0.00002400 -0.00000500 0.01079800 -0.02744800 0.50116800
38 1.17536400 -0.00013000 0.00000300 0.04460100 0.11489700 0.32615100
39 4.52675500 0.69045900 1.12084200 -0.46444700 0.15476900 1.82939800
40 1.74404200 -0.00003200 -0.00000200 -0.00259100 -0.02944900 0.49814700
41 1.36876300 -0.00003200 -0.00001700 0.03581200 0.15457400 0.04304500
42 1.93928200 1.01468700 -0.90910200 1.98461200 0.85942500 0.40831000
43 1.52345200 -0.00003300 -0.00000300 0.00344600 -0.10446000 0.25108100
44 1.59927900 0.00000100 0.00000600 0.05381000 0.06390000 -0.04381700
45 5.51180600 0.00000000 0.00000400 -0.27198700 0.00000000 0.00000000
46 0.19684700 0.00000100 0.00000000 -0.34822500 0.00001500 -0.00000200
47 0.00000000 0.00000000 0.00000000 0.00000000 0.00000000 -1.57079600
48 -3.84604500 4.36570100 -3.19804200 0.00000000 0.00000000 -3.14156200
49 -1.78637191 19.42399357 -2.52690813 0.08067927 0.00959288 -1.53120342
50 10.29346800 1.65648300 -1.39238100 -0.59230200 1.24938800 1.04281400
51 3.12262200 -0.01178200 -0.68646900 0.00000000 0.00000000 0.00000000
52 -4.01753200 -0.01178200 0.12452700 0.00000000 0.00000000 0.00000000
53 0.05046500 0.00000000 0.46481100 0.00000000 0.00000000 0.00000000
54 1.27158900 0.74292800 1.02600500 0.00000000 0.00000000 0.00000000
55 -3.03010000 -0.02560600 -1.06275300 0.00000000 0.00000000 0.00000000
56 2.12937200 -2.30115700 -2.87848400 3.04987700 0.77861500 -2.38808600
time 2
0 -0.00000100 7.45008900 -27.50902600 0.00000000 0.00000000 0.00003100
1 -0.00000200 0.00000000 0.00000000 1.57074300 -1.56713700 -1.57074300
2 4.25546800 -0.33518300 -0.00000200 0.00000000 0.00000000 -0.12484800
3 7.43124800 1.49647700 0.00000200 0.00000000 0.00000000 0.24545000
4 5.27847900 0.16554100 0.00000100 0.00000000 0.00000000 0.04851100
5 3.70336500 -5.63737100 -1.14119100 1.97586400 1.15990900 -1.29878600
6 -6.21448200 -0.00000700 -0.00002700 -3.00356963 -0.75236079 2.01674138
7 11.94488700 0.00000000 0.00000000 -0.41954527 -0.29011724 2.17586265
8 10.62018300 0.00000000 -0.00000100 0.96870766 -0.20168797 1.93513902
9 -4.75111200 -0.69449200 0.83057300 0.04913500 -0.07824800 0.26163600
10 -1.68807100 0.00004700 -0.00003100 0.02216600 -0.01093400 0.32820700
11 -1.33613900 0.00005600 -0.00001200 0.02584800 0.00498300 0.36433000
12 -4.82049900 -0.50945800 -0.22476000 -0.30996000 0.01843000 1.56221200
13 -1.82699000 -0.00006600 0.00000700 -0.01505300 0.03754500 0.89279800
14 -1.43657900 0.00001100 0.00000300 -0.04326900 -0.06465400 0.49796600
15 -3.99236100 -0.89118600 -1.82790700 -0.39357000 0.38726600 1.76892200
16 -1.40592400 -0.00002500 -0.00000300 0.01207400 -0.02686800 0.45175400
17 -1.17536200 0.00012700 -0.00002000 0.05312600 0.04227700 0.80292000
18 -4.52675500 -0.69057300 -1.12074400 -0.26184200 0.27532100 1.85528700
19 -1.74404500 0.00003700 -0.00000800 -0.00637800 -0.02888000 0.62763700
20 -1.36876500 0.00002400 0.00000400 0.02849100 0.04404900 0.47030300
21 -1.87480200 -0.93512600 0.99917200 2.30037900 0.31378400 1.08810900
22 -1.52345300 0.00003000 0.00002700 0.05305500 0.16566500 0.41250900
23 -1.59928500 0.00000500 0.00001200 0.03405500 -0.02608500 0.63444600
24 5.58312400 0.11572400 0.29499900 2.70854600 -0.05525400 3.09741800
25 0.19684900 -0.00000300 0.00000300 2.79340694 -0.00046002 -3.14148486
26 3.19573100 -12.48622100 -7.57127000 1.97586200 1.15990900 1.84280300
27 6.21448500 0.00000600 0.00002000 -1.77919305 0.85699669 -3.09677730
28 11.94488700 -0.00003400 -0.00019000 -0.10893718 -0.33900733 -1.30498953
29 10.62016500 0.00000600 0.00000800 -1.95625262 -0.24544080 0.23136714
30 4.75115700 0.69437500 -0.83047200 -0.33844000 -0.26124800 1.29342300
31 1.68806600 -0.00002600 0.00000200 0.01051700 -0.02235900 0.99904800
32 1.33614400 -0.00005300 -0.00000900 0.01010300 -0.03737100 0.10701300
33 4.82051300 0.50933800 0.22486600 -0.39832600 0.00393300 1.77193500
34 1.82699600 0.00006700 0.00000800 -0.02935500 0.02785900 0.46325400
35 1.43658100 -0.00001000 0.00000700 0.01148900 -0.00990700 -0.01879000
36 3.99235000 0.89108800 1.82799500 -0.52235300 0.24838200 1.74219200
37 1.40592100 0.00002400 -0.00000500 0.01079800 -0.02744800 0.50116800
38 1.17536400 -0.00013000 0.00000300 0.04460100 0.11489700 0.32615100
39 4.52675500 0.69045900 1.12084200 -0.46444700 0.15476900 1.82939800
40 1.74404200 -0.00003200 -0.00000200 -0.00259100 -0.02944900 0.49814700
41 1.36876300 -0.00003200 -0.00001700 0.03581200 0.15457400 0.04304500
42 1.93928200 1.01468700 -0.90910200 1.98461200 0.85942500 0.40831000
43 1.52345200 -0.00003300 -0.00000300 0.00344600 -0.10446000 0.25108100
44 1.59927900 0.00000100 0.00000600 0.05381000 0.06390000 -0.04381700
45 5.51180600 0.00000000 0.00000400 -0.27198700 0.00000000 0.00000000
46 0.19684700 0.00000100 0.00000000 -0.34822500 0.00001500 -0.00000200
47 0.00000000 0.00000000 0.00000000 0.00000000 0.00000000 -1.57079600
48 -3.84604500 4.36570100 -3.19804200 0.00000000 0.00000000 -3.14156200
49 -2.19601717 19.45455399 -2.44880578 0.10139748 0.05482071 -1.47185965
50 10.29346800 1.65648300 -1.39238100 -0.59230200 1.24938800 1.04281400
51 3.12262200 -0.01178200 -0.68646900 0.00000000 0.00000000 0.00000000
52 -4.01753200 -0.01178200 0.12452700 0.00000000 0.00000000 0.00000000
53 0.05046500 0.00000000 0.46481100 0.00000000 0.00000000 0.00000000
54 1.27158900 0.74292800 1.02600500 0.00000000 0.00000000 0.00000000
55 -3.03010000 -0.02560600 -1.06275300 0.00000000 0.00000000 0.00000000
56 2.12937200 -2.30115700 -2.87848400 3.04987700 0.77861500 -2.38808600
time 3
0 -0.00000100 7.45008900 -27.50902600 0.00000000 0.00000000 0.00003100
1 -0.00000200 0.00000000 0.00000000 1.57074300 -1.56713700 -1.57074300
2 4.25546800 -0.33518300 -0.00000200 0.00000000 0.00000000 -0.12484800
3 7.43124800 1.49647700 0.00000200 0.00000000 0.00000000 0.24545000
4 5.27847900 0.16554100 0.00000100 0.00000000 0.00000000 0.04851100
5 3.22836600 -6.29915700 -0.47985600 1.97586400 1.15990900 -1.29878600
6 -6.21448200 -0.00000700 -0.00002700 -3.01512178 -0.77694709 2.00316885
7 11.94488700 0.00000000 0.00000000 -0.42634642 -0.28495574 2.19970192
8 10.62018300 0.00000000 -0.00000100 1.00001232 -0.20210391 2.02089083
9 -4.75111200 -0.69449200 0.83057300 0.04913500 -0.07824800 0.26163600
10 -1.68807100 0.00004700 -0.00003100 0.02216600 -0.01093400 0.32820700
11 -1.33613900 0.00005600 -0.00001200 0.02584800 0.00498300 0.36433000
12 -4.82049900 -0.50945800 -0.22476000 -0.30996000 0.01843000 1.56221200
13 -1.82699000 -0.00006600 0.00000700 -0.01505300 0.03754500 0.89279800
14 -1.43657900 0.00001100 0.00000300 -0.04326900 -0.06465400 0.49796600
15 -3.99236100 -0.89118600 -1.82790700 -0.39357000 0.38726600 1.76892200
16 -1.40592400 -0.00002500 -0.00000300 0.01207400 -0.02686800 0.45175400
17 -1.17536200 0.00012700 -0.00002000 0.05312600 0.04227700 0.80292000
18 -4.52675500 -0.69057300 -1.12074400 -0.26184200 0.27532100 1.85528700
19 -1.74404500 0.00003700 -0.00000800 -0.00637800 -0.02888000 0.62763700
20 -1.36876500 0.00002400 0.00000400 0.02849100 0.04404900 0.47030300
21 -1.87480200 -0.93512600 0.99917200 2.30037900 0.31378400 1.08810900
22 -1.52345300 0.00003000 0.00002700 0.05305500 0.16566500 0.41250900
23 -1.59928500 0.00000500 0.00001200 0.03405500 -0.02608500 0.63444600
24 5.58312400 0.11572400 0.29499900 2.70854600 -0.05525400 3.09741800
25 0.19684900 -0.00000300 0.00000300 2.79340694 -0.00046002 -3.14148486
26 2.96371000 -12.30119800 -7.19944200 1.97586200 1.15990900 1.84280300
27 6.21448500 0.00000600 0.00002000 -1.86375257 0.84752711 -3.11349702
28 11.94488700 -0.00003400 -0.00019000 -0.09249041 -0.34378612 -1.35431126
29 10.62016500 0.00000600 0.00000800 -1.87249571 -0.21945364 0.15514225
30 4.75115700 0.69437500 -0.83047200 -0.33844000 -0.26124800 1.29342300
31 1.68806600 -0.00002600 0.00000200 0.01051700 -0.02235900 0.99904800
32 1.33614400 -0.00005300 -0.00000900 0.01010300 -0.03737100 0.10701300
33 4.82051300 0.50933800 0.22486600 -0.39832600 0.00393300 1.77193500
34 1.82699600 0.00006700 0.00000800 -0.02935500 0.02785900 0.46325400
35 1.43658100 -0.00001000 0.00000700 0.01148900 -0.00990700 -0.01879000
36 3.99235000 0.89108800 1.82799500 -0.52235300 0.24838200 1.74219200
37 1.40592100 0.00002400 -0.00000500 0.01079800 -0.02744800 0.50116800
38 1.17536400 -0.00013000 0.00000300 0.04460100 0.11489700 0.32615100
39 4.52675500 0.69045900 1.12084200 -0.46444700 0.15476900 1.82939800
40 1.74404200 -0.00003200 -0.00000200 -0.00259100 -0.02944900 0.49814700
41 1.36876300 -0.00003200 -0.00001700 0.03581200 0.15457400 0.04304500
42 1.93928200 1.01468700 -0.90910200 1.98461200 0.85942500 0.40831000
43 1.52345200 -0.00003300 -0.00000300 0.00344600 -0.10446000 0.25108100
44 1.59927900 0.00000100 0.00000600 0.05381000 0.06390000 -0.04381700
45 5.51180600 0.00000000 0.00000400 -0.27198700 0.00000000 0.00000000
46 0.19684700 0.00000100 0.00000000 -0.34822500 0.00001500 -0.00000200
47 0.00000000 0.00000000 0.00000000 0.00000000 0.00000000 -1.57079600
48 -3.84604500 4.36570100 -3.19804200 0.00000000 0.00000000 -3.14156200
49 -2.80376375 19.50468507 -2.35007652 0.14478167 0.11894777 -1.37866976
50 10.29346800 1.65648300 -1.39238100 -0.59230200 1.24938800 1.04281400
51 3.12262200 -0.01178200 -0.68646900 0.00000000 0.00000000 0.00000000
52 -4.01753200 -0.01178200 0.12452700 0.00000000 0.00000000 0.00000000
53 0.05046500 0.00000000 0.46481100 0.00000000 0.00000000 0.00000000
54 1.27158900 0.74292800 1.02600500 0.00000000 0.00000000 0.00000000
55 -3.03010000 -0.02560600 -1.06275300 0.00000000 0.00000000 0.00000000
56 2.12937200 -2.30115700 -2.87848400 3.04987700 0.77861500 -2.38808600
time 4
0 -0.00000100 7.45008900 -27.50902600 0.00000000 0.00000000 0.00003100
1 -0.00000200 0.00000000 0.00000000 1.57074300 -1.56713700 -1.57074300
2 4.25546800 -0.33518300 -0.00000200 0.00000000 0.00000000 -0.12484800
3 7.43124800 1.49647700 0.00000200 0.00000000 0.00000000 0.24545000
4 5.27847900 0.16554100 0.00000100 0.00000000 0.00000000 0.04851100
5 2.63294500 -7.12871900 0.34914000 1.97586400 1.15990900 -1.29878600
6 -6.21448200 -0.00000700 -0.00002700 -3.00881681 -0.80106299 1.96290416
7 11.94488700 0.00000000 0.00000000 -0.42954629 -0.28232687 2.21132494
8 10.62018300 0.00000000 -0.00000100 1.04523274 -0.21587900 2.12316698
9 -4.75111200 -0.69449200 0.83057300 0.04913500 -0.07824800 0.26163600
10 -1.68807100 0.00004700 -0.00003100 0.02216600 -0.01093400 0.32820700
11 -1.33613900 0.00005600 -0.00001200 0.02584800 0.00498300 0.36433000
12 -4.82049900 -0.50945800 -0.22476000 -0.30996000 0.01843000 1.56221200
13 -1.82699000 -0.00006600 0.00000700 -0.01505300 0.03754500 0.89279800
14 -1.43657900 0.00001100 0.00000300 -0.04326900 -0.06465400 0.49796600
15 -3.99236100 -0.89118600 -1.82790700 -0.39357000 0.38726600 1.76892200
16 -1.40592400 -0.00002500 -0.00000300 0.01207400 -0.02686800 0.45175400
17 -1.17536200 0.00012700 -0.00002000 0.05312600 0.04227700 0.80292000
18 -4.52675500 -0.69057300 -1.12074400 -0.26184200 0.27532100 1.85528700
19 -1.74404500 0.00003700 -0.00000800 -0.00637800 -0.02888000 0.62763700
20 -1.36876500 0.00002400 0.00000400 0.02849100 0.04404900 0.47030300
21 -1.87480200 -0.93512600 0.99917200 2.30037900 0.31378400 1.08810900
22 -1.52345300 0.00003000 0.00002700 0.05305500 0.16566500 0.41250900
23 -1.59928500 0.00000500 0.00001200 0.03405500 -0.02608500 0.63444600
24 5.58312400 0.11572400 0.29499900 2.70854600 -0.05525400 3.09741800
25 0.19684900 -0.00000300 0.00000300 2.79340694 -0.00046002 -3.14148486
26 2.66469000 -12.06274200 -6.72023900 1.97586200 1.15990900 1.84280300
27 6.21448500 0.00000600 0.00002000 -1.96234436 0.82363658 -3.12401010
28 11.94488700 -0.00003400 -0.00019000 -0.07551097 -0.34842202 -1.40485381
29 10.62016500 0.00000600 0.00000800 -1.78122477 -0.17130838 0.06590356
30 4.75115700 0.69437500 -0.83047200 -0.33844000 -0.26124800 1.29342300
31 1.68806600 -0.00002600 0.00000200 0.01051700 -0.02235900 0.99904800
32 1.33614400 -0.00005300 -0.00000900 0.01010300 -0.03737100 0.10701300
33 4.82051300 0.50933800 0.22486600 -0.39832600 0.00393300 1.77193500
34 1.82699600 0.00006700 0.00000800 -0.02935500 0.02785900 0.46325400
35 1.43658100 -0.00001000 0.00000700 0.01148900 -0.00990700 -0.01879000
36 3.99235000 0.89108800 1.82799500 -0.52235300 0.24838200 1.74219200
37 1.40592100 0.00002400 -0.00000500 0.01079800 -0.02744800 0.50116800
38 1.17536400 -0.00013000 0.00000300 0.04460100 0.11489700 0.32615100
39 4.52675500 0.69045900 1.12084200 -0.46444700 0.15476900 1.82939800
40 1.74404200 -0.00003200 -0.00000200 -0.00259100 -0.02944900 0.49814700
41 1.36876300 -0.00003200 -0.00001700 0.03581200 0.15457400 0.04304500
42 1.93928200 1.01468700 -0.90910200 1.98461200 0.85942500 0.40831000
43 1.52345200 -0.00003300 -0.00000300 0.00344600 -0.10446000 0.25108100
44 1.59927900 0.00000100 0.00000600 0.05381000 0.06390000 -0.04381700
45 5.51180600 0.00000000 0.00000400 -0.27198700 0.00000000 0.00000000
46 0.19684700 0.00000100 0.00000000 -0.34822500 0.00001500 -0.00000200
47 0.00000000 0.00000000 0.00000000 0.00000000 0.00000000 -1.57079600
48 -3.84604500 4.36570100 -3.19804200 0.00000000 0.00000000 -3.14156200
49 -3.55357131 19.57382838 -2.24174620 0.20532338 0.18882805 -1.25692818
50 10.29346800 1.65648300 -1.39238100 -0.59230200 1.24938800 1.04281400
51 3.12262200 -0.01178200 -0.68646900 0.00000000 0.00000000 0.00000000
52 -4.01753200 -0.01178200 0.12452700 0.00000000 0.00000000 0.00000000
53 0.05046500 0.00000000 0.46481100 0.00000000 0.00000000 0.00000000
54 1.27158900 0.74292800 1.02600500 0.00000000 0.00000000 0.00000000
55 -3.03010000 -0.02560600 -1.06275300 0.00000000 0.00000000 0.00000000
56 2.12937200 -2.30115700 -2.87848400 3.04987700 0.77861500 -2.38808600
time 5
0 -0.00000100 7.45008900 -27.50902600 0.00000000 0.00000000 0.00003100
1 -0.00000200 0.00000000 0.00000000 1.57074300 -1.56713700 -1.57074300
2 4.25546800 -0.33518300 -0.00000200 0.00000000 0.00000000 -0.12484800
3 7.43124800 1.49647700 0.00000200 0.00000000 0.00000000 0.24545000
4 5.27847900 0.16554100 0.00000100 0.00000000 0.00000000 0.04851100
5 1.95724200 -8.07012900 1.28990900 1.97586400 1.15990900 -1.29878600
6 -6.21448200 -0.00000700 -0.00002700 -2.96685385 -0.81701293 1.87728651
7 11.94488700 0.00000000 0.00000000 -0.42812882 -0.28293791 2.20600439
8 10.62018300 0.00000000 -0.00000100 1.09852515 -0.25284742 2.21374219
9 -4.75111200 -0.69449200 0.83057300 0.04913500 -0.07824800 0.26163600
10 -1.68807100 0.00004700 -0.00003100 0.02216600 -0.01093400 0.32820700
11 -1.33613900 0.00005600 -0.00001200 0.02584800 0.00498300 0.36433000
12 -4.82049900 -0.50945800 -0.22476000 -0.30996000 0.01843000 1.56221200
13 -1.82699000 -0.00006600 0.00000700 -0.01505300 0.03754500 0.89279800
14 -1.43657900 0.00001100 0.00000300 -0.04326900 -0.06465400 0.49796600
15 -3.99236100 -0.89118600 -1.82790700 -0.39357000 0.38726600 1.76892200
16 -1.40592400 -0.00002500 -0.00000300 0.01207400 -0.02686800 0.45175400
17 -1.17536200 0.00012700 -0.00002000 0.05312600 0.04227700 0.80292000
18 -4.52675500 -0.69057300 -1.12074400 -0.26184200 0.27532100 1.85528700
19 -1.74404500 0.00003700 -0.00000800 -0.00637800 -0.02888000 0.62763700
20 -1.36876500 0.00002400 0.00000400 0.02849100 0.04404900 0.47030300
21 -1.87480200 -0.93512600 0.99917200 2.30037900 0.31378400 1.08810900
22 -1.52345300 0.00003000 0.00002700 0.05305500 0.16566500 0.41250900
23 -1.59928500 0.00000500 0.00001200 0.03405500 -0.02608500 0.63444600
24 5.58312400 0.11572400 0.29499900 2.70854600 -0.05525400 3.09741800
25 0.19684900 -0.00000300 0.00000300 2.79340694 -0.00046002 -3.14148486
26 2.31355900 -11.78272800 -6.15752700 1.97586200 1.15990900 1.84280300
27 6.21448500 0.00000600 0.00002000 -2.05564767 0.78517056 -3.11792274
28 11.94488700 -0.00003400 -0.00019000 -0.05886527 -0.35254192 -1.45396809
29 10.62016500 0.00000600 0.00000800 -1.69866178 -0.11122225 -0.01317725
30 4.75115700 0.69437500 -0.83047200 -0.33844000 -0.26124800 1.29342300
31 1.68806600 -0.00002600 0.00000200 0.01051700 -0.02235900 0.99904800
32 1.33614400 -0.00005300 -0.00000900 0.01010300 -0.03737100 0.10701300
33 4.82051300 0.50933800 0.22486600 -0.39832600 0.00393300 1.77193500
34 1.82699600 0.00006700 0.00000800 -0.02935500 0.02785900 0.46325400
35 1.43658100 -0.00001000 0.00000700 0.01148900 -0.00990700 -0.01879000
36 3.99235000 0.89108800 1.82799500 -0.52235300 0.24838200 1.74219200
37 1.40592100 0.00002400 -0.00000500 0.01079800 -0.02744800 0.50116800
38 1.17536400 -0.00013000 0.00000300 0.04460100 0.11489700 0.32615100
39 4.52675500 0.69045900 1.12084200 -0.46444700 0.15476900 1.82939800
40 1.74404200 -0.00003200 -0.00000200 -0.00259100 -0.02944900 0.49814700
41 1.36876300 -0.00003200 -0.00001700 0.03581200 0.15457400 0.04304500
42 1.93928200 1.01468700 -0.90910200 1.98461200 0.85942500 0.40831000
43 1.52345200 -0.00003300 -0.00000300 0.00344600 -0.10446000 0.25108100
44 1.59927900 0.00000100 0.00000600 0.05381000 0.06390000 -0.04381700
45 5.51180600 0.00000000 0.00000400 -0.27198700 0.00000000 0.00000000
46 0.19684700 0.00000100 0.00000000 -0.34822500 0.00001500 -0.00000200
47 0.00000000 0.00000000 0.00000000 0.00000000 0.00000000 -1.57079600
48 -3.84604500 4.36570100 -3.19804200 0.00000000 0.00000000 -3.14156200
49 -4.39516142 19.66107755 -2.12746783 0.27401498 0.24737668 -1.11523633
50 10.29346800 1.65648300 -1.39238100 -0.59230200 1.24938800 1.04281400
51 3.12262200 -0.01178200 -0.68646900 0.00000000 0.00000000 0.00000000
52 -4.01753200 -0.01178200 0.12452700 0.00000000 0.00000000 0.00000000
53 0.05046500 0.00000000 0.46481100 0.00000000 0.00000000 0.00000000
54 1.27158900 0.74292800 1.02600500 0.00000000 0.00000000 0.00000000
55 -3.03010000 -0.02560600 -1.06275300 0.00000000 0.00000000 0.00000000
56 2.12937200 -2.30115700 -2.87848400 3.04987700 0.77861500 -2.38808600
time 6
0 -0.00000100 7.45008900 -27.50902600 0.00000000 0.00000000 0.00003100
1 -0.00000200 0.00000000 0.00000000 1.57074300 -1.56713700 -1.57074300
2 4.25546800 -0.33518300 -0.00000200 0.00000000 0.00000000 -0.12484800
3 7.43124800 1.49647700 0.00000200 0.00000000 0.00000000 0.24545000
4 5.27847900 0.16554100 0.00000100 0.00000000 0.00000000 0.04851100
5 1.24139700 -9.06746800 2.28656800 1.97586400 1.15990900 -1.29878600
6 -6.21448200 -0.00000700 -0.00002700 -2.89318885 -0.81635947 1.74609689
7 11.94488700 0.00000000 0.00000000 -0.42166270 -0.28656427 2.18344108
8 10.62018300 0.00000000 -0.00000100 1.14610366 -0.30847563 2.27231627
9 -4.75111200 -0.69449200 0.83057300 0.04913500 -0.07824800 0.26163600
10 -1.68807100 0.00004700 -0.00003100 0.02216600 -0.01093400 0.32820700
11 -1.33613900 0.00005600 -0.00001200 0.02584800 0.00498300 0.36433000
12 -4.82049900 -0.50945800 -0.22476000 -0.30996000 0.01843000 1.56221200
13 -1.82699000 -0.00006600 0.00000700 -0.01505300 0.03754500 0.89279800
14 -1.43657900 0.00001100 0.00000300 -0.04326900 -0.06465400 0.49796600
15 -3.99236100 -0.89118600 -1.82790700 -0.39357000 0.38726600 1.76892200
16 -1.40592400 -0.00002500 -0.00000300 0.01207400 -0.02686800 0.45175400
17 -1.17536200 0.00012700 -0.00002000 0.05312600 0.04227700 0.80292000
18 -4.52675500 -0.69057300 -1.12074400 -0.26184200 0.27532100 1.85528700
19 -1.74404500 0.00003700 -0.00000800 -0.00637800 -0.02888000 0.62763700
20 -1.36876500 0.00002400 0.00000400 0.02849100 0.04404900 0.47030300
21 -1.87480200 -0.93512600 0.99917200 2.30037900 0.31378400 1.08810900
22 -1.52345300 0.00003000 0.00002700 0.05305500 0.16566500 0.41250900
23 -1.59928500 0.00000500 0.00001200 0.03405500 -0.02608500 0.63444600
24 5.58312400 0.11572400 0.29499900 2.70854600 -0.05525400 3.09741800
25 0.19684900 -0.00000300 0.00000300 2.79340694 -0.00046002 -3.14148486
26 1.92520400 -11.47303400 -5.53516400 1.97586200 1.15990900 1.84280300
27 6.21448500 0.00000600 0.00002000 -2.12942437 0.73657286 -3.09030295
28 11.94488700 -0.00003400 -0.00019000 -0.04325052 -0.35584003 -1.49972052
29 10.62016500 0.00000600 0.00000800 -1.63021534 -0.05583424 -0.06700455
30 4.75115700 0.69437500 -0.83047200 -0.33844000 -0.26124800 1.29342300
31 1.68806600 -0.00002600 0.00000200 0.01051700 -0.02235900 0.99904800
32 1.33614400 -0.00005300 -0.00000900 0.01010300 -0.03737100 0.10701300
33 4.82051300 0.50933800 0.22486600 -0.39832600 0.00393300 1.77193500
34 1.82699600 0.00006700 0.00000800 -0.02935500 0.02785900 0.46325400
35 1.43658100 -0.00001000 0.00000700 0.01148900 -0.00990700 -0.01879000
36 3.99235000 0.89108800 1.82799500 -0.52235300 0.24838200 1.74219200
37 1.40592100 0.00002400 -0.00000500 0.01079800 -0.02744800 0.50116800
38 1.17536400 -0.00013000 0.00000300 0.04460100 0.11489700 0.32615100
39 4.52675500 0.69045900 1.12084200 -0.46444700 0.15476900 1.82939800
40 1.74404200 -0.00003200 -0.00000200 -0.00259100 -0.02944900 0.49814700
41 1.36876300 -0.00003200 -0.00001700 0.03581200 0.15457400 0.04304500
42 1.93928200 1.01468700 -0.90910200 1.98461200 0.85942500 0.40831000
43 1.52345200 -0.00003300 -0.00000300 0.00344600 -0.10446000 0.25108100
44 1.59927900 0.00000100 0.00000600 0.05381000 0.06390000 -0.04381700
45 5.51180600 0.00000000 0.00000400 -0.27198700 0.00000000 0.00000000
46 0.19684700 0.00000100 0.00000000 -0.34822500 0.00001500 -0.00000200
47 0.00000000 0.00000000 0.00000000 0.00000000 0.00000000 -1.57079600
48 -3.84604500 4.36570100 -3.19804200 0.00000000 0.00000000 -3.14156200
49 -5.27610835 19.76508861 -2.01770143 0.33691027 0.28377980 -0.96761919
50 10.29346800 1.65648300 -1.39238100 -0.59230200 1.24938800 1.04281400
51 3.12262200 -0.01178200 -0.68646900 0.00000000 0.00000000 0.00000000
52 -4.01753200 -0.01178200 0.12452700 0.00000000 0.00000000 0.00000000
53 0.05046500 0.00000000 0.46481100 0.00000000 0.00000000 0.00000000
54 1.27158900 0.74292800 1.02600500 0.00000000 0.00000000 0.00000000
55 -3.03010000 -0.02560600 -1.06275300 0.00000000 0.00000000 0.00000000
56 2.12937200 -2.30115700 -2.87848400 3.04987700 0.77861500 -2.38808600
time 7
0 -0.00000100 7.45008900 -27.50902600 0.00000000 0.00000000 0.00003100
1 -0.00000200 0.00000000 0.00000000 1.57074300 -1.56713700 -1.57074300
2 4.25546800 -0.33518300 -0.00000200 0.00000000 0.00000000 -0.12484800
3 7.43124800 1.49647700 0.00000200 0.00000000 0.00000000 0.24545000
4 5.27847900 0.16554100 0.00000100 0.00000000 0.00000000 0.04851100
5 0.52555200 -10.06480500 3.28322500 1.97586400 1.15990900 -1.29878600
6 -6.21448200 -0.00000700 -0.00002700 -2.80886708 -0.79394246 1.58868291
7 11.94488700 0.00000000 0.00000000 -0.41108341 -0.29271464 2.14654834
8 10.62018300 0.00000000 -0.00000100 1.17701428 -0.36891109 2.29089248
9 -4.75111200 -0.69449200 0.83057300 0.04913500 -0.07824800 0.26163600
10 -1.68807100 0.00004700 -0.00003100 0.02216600 -0.01093400 0.32820700
11 -1.33613900 0.00005600 -0.00001200 0.02584800 0.00498300 0.36433000
12 -4.82049900 -0.50945800 -0.22476000 -0.30996000 0.01843000 1.56221200
13 -1.82699000 -0.00006600 0.00000700 -0.01505300 0.03754500 0.89279800
14 -1.43657900 0.00001100 0.00000300 -0.04326900 -0.06465400 0.49796600
15 -3.99236100 -0.89118600 -1.82790700 -0.39357000 0.38726600 1.76892200
16 -1.40592400 -0.00002500 -0.00000300 0.01207400 -0.02686800 0.45175400
17 -1.17536200 0.00012700 -0.00002000 0.05312600 0.04227700 0.80292000
18 -4.52675500 -0.69057300 -1.12074400 -0.26184200 0.27532100 1.85528700
19 -1.74404500 0.00003700 -0.00000800 -0.00637800 -0.02888000 0.62763700
20 -1.36876500 0.00002400 0.00000400 0.02849100 0.04404900 0.47030300
21 -1.87480200 -0.93512600 0.99917200 2.30037900 0.31378400 1.08810900
22 -1.52345300 0.00003000 0.00002700 0.05305500 0.16566500 0.41250900
23 -1.59928500 0.00000500 0.00001200 0.03405500 -0.02608500 0.63444600
24 5.58312400 0.11572400 0.29499900 2.70854600 -0.05525400 3.09741800
25 0.19684900 -0.00000300 0.00000300 2.79340694 -0.00046002 -3.14148486
26 1.51451600 -11.14553000 -4.87700800 1.97586200 1.15990900 1.84280300
27 6.21448500 0.00000600 0.00002000 -2.17649939 0.68441038 -3.04312067
28 11.94488700 -0.00003400 -0.00019000 -0.02936606 -0.35833662 -1.54017143
29 10.62016500 0.00000600 0.00000800 -1.57245762 -0.02139431 -0.08880376
30 4.75115700 0.69437500 -0.83047200 -0.33844000 -0.26124800 1.29342300
31 1.68806600 -0.00002600 0.00000200 0.01051700 -0.02235900 0.99904800
32 1.33614400 -0.00005300 -0.00000900 0.01010300 -0.03737100 0.10701300
33 4.82051300 0.50933800 0.22486600 -0.39832600 0.00393300 1.77193500
34 1.82699600 0.00006700 0.00000800 -0.02935500 0.02785900 0.46325400
35 1.43658100 -0.00001000 0.00000700 0.01148900 -0.00990700 -0.01879000
36 3.99235000 0.89108800 1.82799500 -0.52235300 0.24838200 1.74219200
37 1.40592100 0.00002400 -0.00000500 0.01079800 -0.02744800 0.50116800
38 1.17536400 -0.00013000 0.00000300 0.04460100 0.11489700 0.32615100
39 4.52675500 0.69045900 1.12084200 -0.46444700 0.15476900 1.82939800
40 1.74404200 -0.00003200 -0.00000200 -0.00259100 -0.02944900 0.49814700
41 1.36876300 -0.00003200 -0.00001700 0.03581200 0.15457400 0.04304500
42 1.93928200 1.01468700 -0.90910200 1.98461200 0.85942500 0.40831000
43 1.52345200 -0.00003300 -0.00000300 0.00344600 -0.10446000 0.25108100
44 1.59927900 0.00000100 0.00000600 0.05381000 0.06390000 -0.04381700
45 5.51180600 0.00000000 0.00000400 -0.27198700 0.00000000 0.00000000
46 0.19684700 0.00000100 0.00000000 -0.34822500 0.00001500 -0.00000200
47 0.00000000 0.00000000 0.00000000 0.00000000 0.00000000 -1.57079600
48 -3.84604500 4.36570100 -3.19804200 0.00000000 0.00000000 -3.14156200
49 -6.13581787 19.88400470 -1.91502414 0.37972150 0.29482847 -0.83023359
50 10.29346800 1.65648300 -1.39238100 -0.59230200 1.24938800 1.04281400
51 3.12262200 -0.01178200 -0.68646900 0.00000000 0.00000000 0.00000000
52 -4.01753200 -0.01178200 0.12452700 0.00000000 0.00000000 0.00000000
53 0.05046500 0.00000000 0.46481100 0.00000000 0.00000000 0.00000000
54 1.27158900 0.74292800 1.02600500 0.00000000 0.00000000 0.00000000
55 -3.03010000 -0.02560600 -1.06275300 0.00000000 0.00000000 0.00000000
56 2.12937200 -2.30115700 -2.87848400 3.04987700 0.77861500 -2.38808600
time 8
0 -0.00000100 7.45008900 -27.50902600 0.00000000 0.00000000 0.00003100
1 -0.00000200 0.00000000 0.00000000 1.57074300 -1.56713700 -1.57074300
2 4.25546800 -0.33518300 -0.00000200 0.00000000 0.00000000 -0.12484800
3 7.43124800 1.49647700 0.00000200 0.00000000 0.00000000 0.24545000
4 5.27847900 0.16554100 0.00000100 0.00000000 0.00000000 0.04851100
5 -0.15015200 -11.00621800 4.22399600 1.97586400 1.15990900 -1.29878600
6 -6.21448200 -0.00000700 -0.00002700 -2.74078847 -0.75165601 1.43048740
7 11.94488700 0.00000000 0.00000000 -0.39530840 -0.30110668 2.09345563
8 10.62018300 0.00000000 -0.00000100 1.18878311 -0.41262052 2.28621641
9 -4.75111200 -0.69449200 0.83057300 0.04913500 -0.07824800 0.26163600
10 -1.68807100 0.00004700 -0.00003100 0.02216600 -0.01093400 0.32820700
11 -1.33613900 0.00005600 -0.00001200 0.02584800 0.00498300 0.36433000
12 -4.82049900 -0.50945800 -0.22476000 -0.30996000 0.01843000 1.56221200
13 -1.82699000 -0.00006600 0.00000700 -0.01505300 0.03754500 0.89279800
14 -1.43657900 0.00001100 0.00000300 -0.04326900 -0.06465400 0.49796600
15 -3.99236100 -0.89118600 -1.82790700 -0.39357000 0.38726600 1.76892200
16 -1.40592400 -0.00002500 -0.00000300 0.01207400 -0.02686800 0.45175400
17 -1.17536200 0.00012700 -0.00002000 0.05312600 0.04227700 0.80292000
18 -4.52675500 -0.69057300 -1.12074400 -0.26184200 0.27532100 1.85528700
19 -1.74404500 0.00003700 -0.00000800 -0.00637800 -0.02888000 0.62763700
20 -1.36876500 0.00002400 0.00000400 0.02849100 0.04404900 0.47030300
21 -1.87480200 -0.93512600 0.99917200 2.30037900 0.31378400 1.08810900
22 -1.52345300 0.00003000 0.00002700 0.05305500 0.16566500 0.41250900
23 -1.59928500 0.00000500 0.00001200 0.03405500 -0.02608500 0.63444600
24 5.58312400 0.11572400 0.29499900 2.70854600 -0.05525400 3.09741800
25 0.19684900 -0.00000300 0.00000300 2.79340694 -0.00046002 -3.14148486
26 1.09638300 -10.81208500 -4.20692000 1.97586200 1.15990900 1.84280300
27 6.21448500 0.00000600 0.00002000 -2.20469912 0.62871698 -2.98095945
28 11.94488700 -0.00003400 -0.00019000 -0.01859700 -0.36033210 -1.57170883
29 10.62016500 0.00000600 0.00000800 -1.52183648 0.00116387 -0.08257146
30 4.75115700 0.69437500 -0.83047200 -0.33844000 -0.26124800 1.29342300
31 1.68806600 -0.00002600 0.00000200 0.01051700 -0.02235900 0.99904800
32 1.33614400 -0.00005300 -0.00000900 0.01010300 -0.03737100 0.10701300
33 4.82051300 0.50933800 0.22486600 -0.39832600 0.00393300 1.77193500
34 1.82699600 0.00006700 0.00000800 -0.02935500 0.02785900 0.46325400
35 1.43658100 -0.00001000 0.00000700 0.01148900 -0.00990700 -0.01879000
36 3.99235000 0.89108800 1.82799500 -0.52235300 0.24838200 1.74219200
37 1.40592100 0.00002400 -0.00000500 0.01079800 -0.02744800 0.50116800
38 1.17536400 -0.00013000 0.00000300 0.04460100 0.11489700 0.32615100
39 4.52675500 0.69045900 1.12084200 -0.46444700 0.15476900 1.82939800
40 1.74404200 -0.00003200 -0.00000200 -0.00259100 -0.02944900 0.49814700
41 1.36876300 -0.00003200 -0.00001700 0.03581200 0.15457400 0.04304500
42 1.93928200 1.01468700 -0.90910200 1.98461200 0.85942500 0.40831000
43 1.52345200 -0.00003300 -0.00000300 0.00344600 -0.10446000 0.25108100
44 1.59927900 0.00000100 0.00000600 0.05381000 0.06390000 -0.04381700
45 5.51180600 0.00000000 0.00000400 -0.27198700 0.00000000 0.00000000
46 0.19684700 0.00000100 0.00000000 -0.34822500 0.00001500 -0.00000200
47 0.00000000 0.00000000 0.00000000 0.00000000 0.00000000 -1.57079600
48 -3.84604500 4.36570100 -3.19804200 0.00000000 0.00000000 -3.14156200
49 -6.99337074 20.01547641 -1.81180142 0.40378303 0.29035162 -0.71367764
50 10.29346800 1.65648300 -1.39238100 -0.59230200 1.24938800 1.04281400
51 3.12262200 -0.01178200 -0.68646900 0.00000000 0.00000000 0.00000000
52 -4.01753200 -0.01178200 0.12452700 0.00000000 0.00000000 0.00000000
53 0.05046500 0.00000000 0.46481100 0.00000000 0.00000000 0.00000000
54 1.27158900 0.74292800 1.02600500 0.00000000 0.00000000 0.00000000
55 -3.03010000 -0.02560600 -1.06275300 0.00000000 0.00000000 0.00000000
56 2.12937200 -2.30115700 -2.87848400 3.04987700 0.77861500 -2.38808600
time 9
0 -0.00000100 7.45008900 -27.50902600 0.00000000 0.00000000 0.00003100
1 -0.00000200 0.00000000 0.00000000 1.57074300 -1.56713700 -1.57074300
2 4.25546800 -0.33518300 -0.00000200 0.00000000 0.00000000 -0.12484800
3 7.43124800 1.49647700 0.00000200 0.00000000 0.00000000 0.24545000
4 5.27847900 0.16554100 0.00000100 0.00000000 0.00000000 0.04851100
5 -0.74557300 -11.83577900 5.05299300 1.97586400 1.15990900 -1.29878600
6 -6.21448200 -0.00000700 -0.00002700 -2.68908115 -0.70267100 1.29357892
7 11.94488700 0.00000000 0.00000000 -0.37432862 -0.31078152 2.02487428
8 10.62018300 0.00000000 -0.00000100 1.19177185 -0.44410439 2.29042275
9 -4.75111200 -0.69449200 0.83057300 0.04913500 -0.07824800 0.26163600
10 -1.68807100 0.00004700 -0.00003100 0.02216600 -0.01093400 0.32820700
11 -1.33613900 0.00005600 -0.00001200 0.02584800 0.00498300 0.36433000
12 -4.82049900 -0.50945800 -0.22476000 -0.30996000 0.01843000 1.56221200
13 -1.82699000 -0.00006600 0.00000700 -0.01505300 0.03754500 0.89279800
14 -1.43657900 0.00001100 0.00000300 -0.04326900 -0.06465400 0.49796600
15 -3.99236100 -0.89118600 -1.82790700 -0.39357000 0.38726600 1.76892200
16 -1.40592400 -0.00002500 -0.00000300 0.01207400 -0.02686800 0.45175400
17 -1.17536200 0.00012700 -0.00002000 0.05312600 0.04227700 0.80292000
18 -4.52675500 -0.69057300 -1.12074400 -0.26184200 0.27532100 1.85528700
19 -1.74404500 0.00003700 -0.00000800 -0.00637800 -0.02888000 0.62763700
20 -1.36876500 0.00002400 0.00000400 0.02849100 0.04404900 0.47030300
21 -1.87480200 -0.93512600 0.99917200 2.30037900 0.31378400 1.08810900
22 -1.52345300 0.00003000 0.00002700 0.05305500 0.16566500 0.41250900
23 -1.59928500 0.00000500 0.00001200 0.03405500 -0.02608500 0.63444600
24 5.58312400 0.11572400 0.29499900 2.70854600 -0.05525400 3.09741800
25 0.19684900 -0.00000300 0.00000300 2.79340694 -0.00046002 -3.14148486
26 0.68569700 -10.48457900 -3.54876500 1.97586200 1.15990900 1.84280300
27 6.21448500 0.00000600 0.00002000 -2.21210620 0.57241673 -2.90657492
28 11.94488700 -0.00003400 -0.00019000 -0.01550164 -0.36218470 -1.58085448
29 10.62016500 0.00000600 0.00000800 -1.48342863 0.01593647 -0.07246961
30 4.75115700 0.69437500 -0.83047200 -0.33844000 -0.26124800 1.29342300
31 1.68806600 -0.00002600 0.00000200 0.01051700 -0.02235900 0.99904800
32 1.33614400 -0.00005300 -0.00000900 0.01010300 -0.03737100 0.10701300
33 4.82051300 0.50933800 0.22486600 -0.39832600 0.00393300 1.77193500
34 1.82699600 0.00006700 0.00000800 -0.02935500 0.02785900 0.46325400
35 1.43658100 -0.00001000 0.00000700 0.01148900 -0.00990700 -0.01879000
36 3.99235000 0.89108800 1.82799500 -0.52235300 0.24838200 1.74219200
37 1.40592100 0.00002400 -0.00000500 0.01079800 -0.02744800 0.50116800
38 1.17536400 -0.00013000 0.00000300 0.04460100 0.11489700 0.32615100
39 4.52675500 0.69045900 1.12084200 -0.46444700 0.15476900 1.82939800
40 1.74404200 -0.00003200 -0.00000200 -0.00259100 -0.02944900 0.49814700
41 1.36876300 -0.00003200 -0.00001700 0.03581200 0.15457400 0.04304500
42 1.93928200 1.01468700 -0.90910200 1.98461200 0.85942500 0.40831000
43 1.52345200 -0.00003300 -0.00000300 0.00344600 -0.10446000 0.25108100
44 1.59927900 0.00000100 0.00000600 0.05381000 0.06390000 -0.04381700
45 5.51180600 0.00000000 0.00000400 -0.27198700 0.00000000 0.00000000
46 0.19684700 0.00000100 0.00000000 -0.34822500 0.00001500 -0.00000200
47 0.00000000 0.00000000 0.00000000 0.00000000 0.00000000 -1.57079600
48 -3.84604500 4.36570100 -3.19804200 0.00000000 0.00000000 -3.14156200
49 -7.75555252 20.15563727 -1.70157095 0.42245320 0.28238534 -0.61675960
50 10.29346800 1.65648300 -1.39238100 -0.59230200 1.24938800 1.04281400
51 3.12262200 -0.01178200 -0.68646900 0.00000000 0.00000000 0.00000000
52 -4.01753200 -0.01178200 0.12452700 0.00000000 0.00000000 0.00000000
53 0.05046500 0.00000000 0.46481100 0.00000000 0.00000000 0.00000000
54 1.27158900 0.74292800 1.02600500 0.00000000 0.00000000 0.00000000
55 -3.03010000 -0.02560600 -1.06275300 0.00000000 0.00000000 0.00000000
56 2.12937200 -2.30115700 -2.87848400 3.04987700 0.77861500 -2.38808600
time 10
0 -0.00000100 7.45008900 -27.50902600 0.00000000 0.00000000 0.00003100
1 -0.00000200 0.00000000 0.00000000 1.57074300 -1.56713700 -1.57074300
2 4.25546800 -0.33518300 -0.00000200 0.00000000 0.00000000 -0.12484800
3 7.43124800 1.49647700 0.00000200 0.00000000 0.00000000 0.24545000
4 5.27847900 0.16554100 0.00000100 0.00000000 0.00000000 0.04851100
5 -1.22057300 -12.49756400 5.71432700 1.97586400 1.15990900 -1.29878600
6 -6.21448200 -0.00000700 -0.00002700 -2.63234803 -0.66519370 1.20021615
7 11.94488700 0.00000000 0.00000000 -0.35600182 -0.31777880 1.96661344
8 10.62018300 0.00000000 -0.00000100 1.20088084 -0.49491799 2.30695283
9 -4.75111200 -0.69449200 0.83057300 0.04913500 -0.07824800 0.26163600
10 -1.68807100 0.00004700 -0.00003100 0.02216600 -0.01093400 0.32820700
11 -1.33613900 0.00005600 -0.00001200 0.02584800 0.00498300 0.36433000
12 -4.82049900 -0.50945800 -0.22476000 -0.30996000 0.01843000 1.56221200
13 -1.82699000 -0.00006600 0.00000700 -0.01505300 0.03754500 0.89279800
14 -1.43657900 0.00001100 0.00000300 -0.04326900 -0.06465400 0.49796600
15 -3.99236100 -0.89118600 -1.82790700 -0.39357000 0.38726600 1.76892200
16 -1.40592400 -0.00002500 -0.00000300 0.01207400 -0.02686800 0.45175400
17 -1.17536200 0.00012700 -0.00002000 0.05312600 0.04227700 0.80292000
18 -4.52675500 -0.69057300 -1.12074400 -0.26184200 0.27532100 1.85528700
19 -1.74404500 0.00003700 -0.00000800 -0.00637800 -0.02888000 0.62763700
20 -1.36876500 0.00002400 0.00000400 0.02849100 0.04404900 0.47030300
21 -1.87480200 -0.93512600 0.99917200 2.30037900 0.31378400 1.08810900
22 -1.52345300 0.00003000 0.00002700 0.05305500 0.16566500 0.41250900
23 -1.59928500 0.00000500 0.00001200 0.03405500 -0.02608500 0.63444600
24 5.58312400 0.11572400 0.29499900 2.70854600 -0.05525400 3.09741800
25 0.19684900 -0.00000300 0.00000300 2.79340694 -0.00046002 -3.14148486
26 0.29734200 -10.17488300 -2.92640100 1.97586200 1.15990900 1.84280300
27 6.21448500 0.00000600 0.00002000 -2.18397799 0.53023966 -2.83525718
28 11.94488700 -0.00003400 -0.00019000 -0.02385856 -0.36407254 -1.55652731
29 10.62016500 0.00000600 0.00000800 -1.46033098 -0.00171729 -0.08826226
30 4.75115700 0.69437500 -0.83047200 -0.33844000 -0.26124800 1.29342300
31 1.68806600 -0.00002600 0.00000200 0.01051700 -0.02235900 0.99904800
32 1.33614400 -0.00005300 -0.00000900 0.01010300 -0.03737100 0.10701300
33 4.82051300 0.50933800 0.22486600 -0.39832600 0.00393300 1.77193500
34 1.82699600 0.00006700 0.00000800 -0.02935500 0.02785900 0.46325400
35 1.43658100 -0.00001000 0.00000700 0.01148900 -0.00990700 -0.01879000
36 3.99235000 0.89108800 1.82799500 -0.52235300 0.24838200 1.74219200
37 1.40592100 0.00002400 -0.00000500 0.01079800 -0.02744800 0.50116800
38 1.17536400 -0.00013000 0.00000300 0.04460100 0.11489700 0.32615100
39 4.52675500 0.69045900 1.12084200 -0.46444700 0.15476900 1.82939800
40 1.74404200 -0.00003200 -0.00000200 -0.00259100 -0.02944900 0.49814700
41 1.36876300 -0.00003200 -0.00001700 0.03581200 0.15457400 0.04304500
42 1.93928200 1.01468700 -0.90910200 1.98461200 0.85942500 0.40831000
43 1.52345200 -0.00003300 -0.00000300 0.00344600 -0.10446000 0.25108100
44 1.59927900 0.00000100 0.00000600 0.05381000 0.06390000 -0.04381700
45 5.51180600 0.00000000 0.00000400 -0.27198700 0.00000000 0.00000000
46 0.19684700 0.00000100 0.00000000 -0.34822500 0.00001500 -0.00000200
47 0.00000000 0.00000000 0.00000000 0.00000000 0.00000000 -1.57079600
48 -3.84604500 4.36570100 -3.19804200 0.00000000 0.00000000 -3.14156200
49 -8.06234934 20.29873979 -1.58698665 0.43743355 0.27369431 -0.53847033
50 10.29346800 1.65648300 -1.39238100 -0.59230200 1.24938800 1.04281400
51 3.12262200 -0.01178200 -0.68646900 0.00000000 0.00000000 0.00000000
52 -4.01753200 -0.01178200 0.12452700 0.00000000 0.00000000 0.00000000
53 0.05046500 0.00000000 0.46481100 0.00000000 0.00000000 0.00000000
54 1.27158900 0.74292800 1.02600500 0.00000000 0.00000000 0.00000000
55 -3.03010000 -0.02560600 -1.06275300 0.00000000 0.00000000 0.00000000
56 2.12937200 -2.30115700 -2.87848400 3.04987700 0.77861500 -2.38808600
time 11
0 -0.00000100 7.45008900 -27.50902600 0.00000000 0.00000000 0.00003100
1 -0.00000200 0.00000000 0.00000000 1.57074300 -1.56713700 -1.57074300
2 4.25546800 -0.33518300 -0.00000200 0.00000000 0.00000000 -0.12484800
3 7.43124800 1.49647700 0.00000200 0.00000000 0.00000000 0.24545000
4 5.27847900 0.16554100 0.00000100 0.00000000 0.00000000 0.04851100
5 -1.53500700 -12.93564600 6.15210900 1.97586400 1.15990900 -1.29878600
6 -6.21448200 -0.00000700 -0.00002700 -2.57888334 -0.63882932 1.14566115
7 11.94488700 0.00000000 0.00000000 -0.34081242 -0.32239737 1.91948762
8 10.62018300 0.00000000 -0.00000100 1.21065718 -0.55410347 2.33469998
9 -4.75111200 -0.69449200 0.83057300 0.04913500 -0.07824800 0.26163600
10 -1.68807100 0.00004700 -0.00003100 0.02216600 -0.01093400 0.32820700
11 -1.33613900 0.00005600 -0.00001200 0.02584800 0.00498300 0.36433000
12 -4.82049900 -0.50945800 -0.22476000 -0.30996000 0.01843000 1.56221200
13 -1.82699000 -0.00006600 0.00000700 -0.01505300 0.03754500 0.89279800
14 -1.43657900 0.00001100 0.00000300 -0.04326900 -0.06465400 0.49796600
15 -3.99236100 -0.89118600 -1.82790700 -0.39357000 0.38726600 1.76892200
16 -1.40592400 -0.00002500 -0.00000300 0.01207400 -0.02686800 0.45175400
17 -1.17536200 0.00012700 -0.00002000 0.05312600 0.04227700 0.80292000
18 -4.52675500 -0.69057300 -1.12074400 -0.26184200 0.27532100 1.85528700
19 -1.74404500 0.00003700 -0.00000800 -0.00637800 -0.02888000 0.62763700
20 -1.36876500 0.00002400 0.00000400 0.02849100 0.04404900 0.47030300
21 -1.87480200 -0.93512600 0.99917200 2.30037900 0.31378400 1.08810900
22 -1.52345300 0.00003000 0.00002700 0.05305500 0.16566500 0.41250900
23 -1.59928500 0.00000500 0.00001200 0.03405500 -0.02608500 0.63444600
24 5.58312400 0.11572400 0.29499900 2.70854600 -0.05525400 3.09741800
25 0.19684900 -0.00000300 0.00000300 2.79340694 -0.00046002 -3.14148486
26 -0.05379000 -9.89487100 -2.36368900 1.97586200 1.15990900 1.84280300
27 6.21448500 0.00000600 0.00002000 -2.14270045 0.49761919 -2.77410328
28 11.94488700 -0.00003400 -0.00019000 -0.03751233 -0.36546277 -1.51649537
29 10.62016500 0.00000600 0.00000800 -1.44666183 -0.03231157 -0.11692242
30 4.75115700 0.69437500 -0.83047200 -0.33844000 -0.26124800 1.29342300
31 1.68806600 -0.00002600 0.00000200 0.01051700 -0.02235900 0.99904800
32 1.33614400 -0.00005300 -0.00000900 0.01010300 -0.03737100 0.10701300
33 4.82051300 0.50933800 0.22486600 -0.39832600 0.00393300 1.77193500
34 1.82699600 0.00006700 0.00000800 -0.02935500 0.02785900 0.46325400
35 1.43658100 -0.00001000 0.00000700 0.01148900 -0.00990700 -0.01879000
36 3.99235000 0.89108800 1.82799500 -0.52235300 0.24838200 1.74219200
37 1.40592100 0.00002400 -0.00000500 0.01079800 -0.02744800 0.50116800
38 1.17536400 -0.00013000 0.00000300 0.04460100 0.11489700 0.32615100
39 4.52675500 0.69045900 1.12084200 -0.46444700 0.15476900 1.82939800
40 1.74404200 -0.00003200 -0.00000200 -0.00259100 -0.02944900 0.49814700
41 1.36876300 -0.00003200 -0.00001700 0.03581200 0.15457400 0.04304500
42 1.93928200 1.01468700 -0.90910200 1.98461200 0.85942500 0.40831000
43 1.52345200 -0.00003300 -0.00000300 0.00344600 -0.10446000 0.25108100
44 1.59927900 0.00000100 0.00000600 0.05381000 0.06390000 -0.04381700
45 5.51180600 0.00000000 0.00000400 -0.27198700 0.00000000 0.00000000
46 0.19684700 0.00000100 0.00000000 -0.34822500 0.00001500 -0.00000200
47 0.00000000 0.00000000 0.00000000 0.00000000 0.00000000 -1.57079600
48 -3.84604500 4.36570100 -3.19804200 0.00000000 0.00000000 -3.14156200
49 -8.08936281 20.43400878 -1.47523657 0.44996618 0.26585158 -0.47717116
50 10.29346800 1.65648300 -1.39238100 -0.59230200 1.24938800 1.04281400
51 3.12262200 -0.01178200 -0.68646900 0.00000000 0.00000000 0.00000000
52 -4.01753200 -0.01178200 0.12452700 0.00000000 0.00000000 0.00000000
53 0.05046500 0.00000000 0.46481100 0.00000000 0.00000000 0.00000000
54 1.27158900 0.74292800 1.02600500 0.00000000 0.00000000 0.00000000
55 -3.03010000 -0.02560600 -1.06275300 0.00000000 0.00000000 0.00000000
56 2.12937200 -2.30115700 -2.87848400 3.04987700 0.77861500 -2.38808600
time 12
0 -0.00000100 7.45008900 -27.50902600 0.00000000 0.00000000 0.00003100
1 -0.00000200 0.00000000 0.00000000 1.57074300 -1.56713700 -1.57074300
2 4.25546800 -0.33518300 -0.00000200 0.00000000 0.00000000 -0.12484800
3 7.43124800 1.49647700 0.00000200 0.00000000 0.00000000 0.24545000
4 5.27847900 0.16554100 0.00000100 0.00000000 0.00000000 0.04851100
5 -1.64874100 -13.09410300 6.31045700 1.97586400 1.15990900 -1.29878600
6 -6.21448200 -0.00000700 -0.00002700 -2.53333619 -0.62223137 1.12357104
7 11.94488700 0.00000000 0.00000000 -0.32688632 -0.32571332 1.87672178
8 10.62018300 0.00000000 -0.00000100 1.21380786 -0.61293584 2.37842237
9 -4.75111200 -0.69449200 0.83057300 0.04913500 -0.07824800 0.26163600
10 -1.68807100 0.00004700 -0.00003100 0.02216600 -0.01093400 0.32820700
11 -1.33613900 0.00005600 -0.00001200 0.02584800 0.00498300 0.36433000
12 -4.82049900 -0.50945800 -0.22476000 -0.30996000 0.01843000 1.56221200
13 -1.82699000 -0.00006600 0.00000700 -0.01505300 0.03754500 0.89279800
14 -1.43657900 0.00001100 0.00000300 -0.04326900 -0.06465400 0.49796600
15 -3.99236100 -0.89118600 -1.82790700 -0.39357000 0.38726600 1.76892200
16 -1.40592400 -0.00002500 -0.00000300 0.01207400 -0.02686800 0.45175400
17 -1.17536200 0.00012700 -0.00002000 0.05312600 0.04227700 0.80292000
18 -4.52675500 -0.69057300 -1.12074400 -0.26184200 0.27532100 1.85528700
19 -1.74404500 0.00003700 -0.00000800 -0.00637800 -0.02888000 0.62763700
20 -1.36876500 0.00002400 0.00000400 0.02849100 0.04404900 0.47030300
21 -1.87480200 -0.93512600 0.99917200 2.30037900 0.31378400 1.08810900
22 -1.52345300 0.00003000 0.00002700 0.05305500 0.16566500 0.41250900
23 -1.59928500 0.00000500 0.00001200 0.03405500 -0.02608500 0.63444600
24 5.58312400 0.11572400 0.29499900 2.70854600 -0.05525400 3.09741800
25 0.19684900 -0.00000300 0.00000300 2.79340694 -0.00046002 -3.14148486
26 -0.35281400 -9.65641500 -1.88448600 1.97586200 1.15990900 1.84280300
27 6.21448500 0.00000600 0.00002000 -2.10238669 0.46991166 -2.72308468
28 11.94488700 -0.00003400 -0.00019000 -0.05180560 -0.36592945 -1.47466702
29 10.62016500 0.00000600 0.00000800 -1.43791919 -0.06173713 -0.14340487
30 4.75115700 0.69437500 -0.83047200 -0.33844000 -0.26124800 1.29342300
31 1.68806600 -0.00002600 0.00000200 0.01051700 -0.02235900 0.99904800
32 1.33614400 -0.00005300 -0.00000900 0.01010300 -0.03737100 0.10701300
33 4.82051300 0.50933800 0.22486600 -0.39832600 0.00393300 1.77193500
34 1.82699600 0.00006700 0.00000800 -0.02935500 0.02785900 0.46325400
35 1.43658100 -0.00001000 0.00000700 0.01148900 -0.00990700 -0.01879000
36 3.99235000 0.89108800 1.82799500 -0.52235300 0.24838200 1.74219200
37 1.40592100 0.00002400 -0.00000500 0.01079800 -0.02744800 0.50116800
38 1.17536400 -0.00013000 0.00000300 0.04460100 0.11489700 0.32615100
39 4.52675500 0.69045900 1.12084200 -0.46444700 0.15476900 1.82939800
40 1.74404200 -0.00003200 -0.00000200 -0.00259100 -0.02944900 0.49814700
41 1.36876300 -0.00003200 -0.00001700 0.03581200 0.15457400 0.04304500
42 1.93928200 1.01468700 -0.90910200 1.98461200 0.85942500 0.40831000
43 1.52345200 -0.00003300 -0.00000300 0.00344600 -0.10446000 0.25108100
44 1.59927900 0.00000100 0.00000600 0.05381000 0.06390000 -0.04381700
45 5.51180600 0.00000000 0.00000400 -0.27198700 0.00000000 0.00000000
46 0.19684700 0.00000100 0.00000000 -0.34822500 0.00001500 -0.00000200
47 0.00000000 0.00000000 0.00000000 0.00000000 0.00000000 -1.57079600
48 -3.84604500 4.36570100 -3.19804200 0.00000000 0.00000000 -3.14156200
49 -8.02597623 20.55242396 -1.35551594 0.45954360 0.26044682 -0.43181878
50 10.29346800 1.65648300 -1.39238100 -0.59230200 1.24938800 1.04281400
51 3.12262200 -0.01178200 -0.68646900 0.00000000 0.00000000 0.00000000
52 -4.01753200 -0.01178200 0.12452700 0.00000000 0.00000000 0.00000000
53 0.05046500 0.00000000 0.46481100 0.00000000 0.00000000 0.00000000
54 1.27158900 0.74292800 1.02600500 0.00000000 0.00000000 0.00000000
55 -3.03010000 -0.02560600 -1.06275300 0.00000000 0.00000000 0.00000000
56 2.12937200 -2.30115700 -2.87848400 3.04987700 0.77861500 -2.38808600
time 13
0 -0.00000100 7.45008900 -27.50902600 0.00000000 0.00000000 0.00003100
1 -0.00000200 0.00000000 0.00000000 1.57074300 -1.56713700 -1.57074300
2 4.25546800 -0.33518300 -0.00000200 0.00000000 0.00000000 -0.12484800
3 7.43124800 1.49647700 0.00000200 0.00000000 0.00000000 0.24545000
4 5.27847900 0.16554100 0.00000100 0.00000000 0.00000000 0.04851100
5 -1.64874100 -13.09410300 6.31045700 1.97586400 1.15990900 -1.29878600
6 -6.21448200 -0.00000700 -0.00002700 -2.49814268 -0.61228383 1.11827300
7 11.94488700 0.00000000 0.00000000 -0.31533635 -0.32796108 1.84170371
8 10.62018300 0.00000000 -0.00000100 1.20817830 -0.66178347 2.42321802
9 -4.75111200 -0.69449200 0.83057300 0.04913500 -0.07824800 0.26163600
10 -1.68807100 0.00004700 -0.00003100 0.02216600 -0.01093400 0.32820700
11 -1.33613900 0.00005600 -0.00001200 0.02584800 0.00498300 0.36433000
12 -4.82049900 -0.50945800 -0.22476000 -0.30996000 0.01843000 1.56221200
13 -1.82699000 -0.00006600 0.00000700 -0.01505300 0.03754500 0.89279800
14 -1.43657900 0.00001100 0.00000300 -0.04326900 -0.06465400 0.49796600
15 -3.99236100 -0.89118600 -1.82790700 -0.39357000 0.38726600 1.76892200
16 -1.40592400 -0.00002500 -0.00000300 0.01207400 -0.02686800 0.45175400
17 -1.17536200 0.00012700 -0.00002000 0.05312600 0.04227700 0.80292000
18 -4.52675500 -0.69057300 -1.12074400 -0.26184200 0.27532100 1.85528700
19 -1.74404500 0.00003700 -0.00000800 -0.00637800 -0.02888000 0.62763700
20 -1.36876500 0.00002400 0.00000400 0.02849100 0.04404900 0.47030300
21 -1.87480200 -0.93512600 0.99917200 2.30037900 0.31378400 1.08810900
22 -1.52345300 0.00003000 0.00002700 0.05305500 0.16566500 0.41250900
23 -1.59928500 0.00000500 0.00001200 0.03405500 -0.02608500 0.63444600
24 5.58312400 0.11572400 0.29499900 2.70854600 -0.05525400 3.09741800
25 0.19684900 -0.00000300 0.00000300 2.79340694 -0.00046002 -3.14148486
26 -0.58483300 -9.47139000 -1.51265900 1.97586200 1.15990900 1.84280300
27 6.21448500 0.00000600 0.00002000 -2.06961424 0.44776631 -2.68421222
28 11.94488700 -0.00003400 -0.00019000 -0.06357063 -0.36452563 -1.44006932
29 10.62016500 0.00000600 0.00000800 -1.42867645 -0.08752607 -0.16089723
30 4.75115700 0.69437500 -0.83047200 -0.33844000 -0.26124800 1.29342300
31 1.68806600 -0.00002600 0.00000200 0.01051700 -0.02235900 0.99904800
32 1.33614400 -0.00005300 -0.00000900 0.01010300 -0.03737100 0.10701300
33 4.82051300 0.50933800 0.22486600 -0.39832600 0.00393300 1.77193500
34 1.82699600 0.00006700 0.00000800 -0.02935500 0.02785900 0.46325400
35 1.43658100 -0.00001000 0.00000700 0.01148900 -0.00990700 -0.01879000
36 3.99235000 0.89108800 1.82799500 -0.52235300 0.24838200 1.74219200
37 1.40592100 0.00002400 -0.00000500 0.01079800 -0.02744800 0.50116800
38 1.17536400 -0.00013000 0.00000300 0.04460100 0.11489700 0.32615100
39 4.52675500 0.69045900 1.12084200 -0.46444700 0.15476900 1.82939800
40 1.74404200 -0.00003200 -0.00000200 -0.00259100 -0.02944900 0.49814700
41 1.36876300 -0.00003200 -0.00001700 0.03581200 0.15457400 0.04304500
42 1.93928200 1.01468700 -0.90910200 1.98461200 0.85942500 0.40831000
43 1.52345200 -0.00003300 -0.00000300 0.00344600 -0.10446000 0.25108100
44 1.59927900 0.00000100 0.00000600 0.05381000 0.06390000 -0.04381700
45 5.51180600 0.00000000 0.00000400 -0.27198700 0.00000000 0.00000000
46 0.19684700 0.00000100 0.00000000 -0.34822500 0.00001500 -0.00000200
47 0.00000000 0.00000000 0.00000000 0.00000000 0.00000000 -1.57079600
48 -3.84604500 4.36570100 -3.19804200 0.00000000 0.00000000 -3.14156200
49 -7.93429243 20.64639398 -1.23626921 0.46203344 0.25760785 -0.40098232
50 10.29346800 1.65648300 -1.39238100 -0.59230200 1.24938800 1.04281400
51 3.12262200 -0.01178200 -0.68646900 0.00000000 0.00000000 0.00000000
52 -4.01753200 -0.01178200 0.12452700 0.00000000 0.00000000 0.00000000
53 0.05046500 0.00000000 0.46481100 0.00000000 0.00000000 0.00000000
54 1.27158900 0.74292800 1.02600500 0.00000000 0.00000000 0.00000000
55 -3.03010000 -0.02560600 -1.06275300 0.00000000 0.00000000 0.00000000
56 2.12937200 -2.30115700 -2.87848400 3.04987700 0.77861500 -2.38808600
time 14
0 -0.00000100 7.45008900 -27.50902600 0.00000000 0.00000000 0.00003100
1 -0.00000200 0.00000000 0.00000000 1.57074300 -1.56713700 -1.57074300
2 4.25546800 -0.33518300 -0.00000200 0.00000000 0.00000000 -0.12484800
3 7.43124800 1.49647700 0.00000200 0.00000000 0.00000000 0.24545000
4 5.27847900 0.16554100 0.00000100 0.00000000 0.00000000 0.04851100
5 -1.64874100 -13.09410300 6.31045700 1.97586400 1.15990900 -1.29878600
6 -6.21448200 -0.00000700 -0.00002700 -2.47826261 -0.60693013 1.11620449
7 11.94488700 0.00000000 0.00000000 -0.30833764 -0.32948644 1.82073326
8 10.62018300 0.00000000 -0.00000100 1.19608588 -0.69038215 2.45249846
9 -4.75111200 -0.69449200 0.83057300 0.04913500 -0.07824800 0.26163600
10 -1.68807100 0.00004700 -0.00003100 0.02216600 -0.01093400 0.32820700
11 -1.33613900 0.00005600 -0.00001200 0.02584800 0.00498300 0.36433000
12 -4.82049900 -0.50945800 -0.22476000 -0.30996000 0.01843000 1.56221200
13 -1.82699000 -0.00006600 0.00000700 -0.01505300 0.03754500 0.89279800
14 -1.43657900 0.00001100 0.00000300 -0.04326900 -0.06465400 0.49796600
15 -3.99236100 -0.89118600 -1.82790700 -0.39357000 0.38726600 1.76892200
16 -1.40592400 -0.00002500 -0.00000300 0.01207400 -0.02686800 0.45175400
17 -1.17536200 0.00012700 -0.00002000 0.05312600 0.04227700 0.80292000
18 -4.52675500 -0.69057300 -1.12074400 -0.26184200 0.27532100 1.85528700
19 -1.74404500 0.00003700 -0.00000800 -0.00637800 -0.02888000 0.62763700
20 -1.36876500 0.00002400 0.00000400 0.02849100 0.04404900 0.47030300
21 -1.87480200 -0.93512600 0.99917200 2.30037900 0.31378400 1.08810900
22 -1.52345300 0.00003000 0.00002700 0.05305500 0.16566500 0.41250900
23 -1.59928500 0.00000500 0.00001200 0.03405500 -0.02608500 0.63444600
24 5.58312400 0.11572400 0.29499900 2.70854600 -0.05525400 3.09741800
25 0.19684900 -0.00000300 0.00000300 2.79340694 -0.00046002 -3.14148486
26 -0.73496100 -9.35166600 -1.27206400 1.97586200 1.15990900 1.84280300
27 6.21448500 0.00000600 0.00002000 -2.04992748 0.43306102 -2.66052975
28 11.94488700 -0.00003400 -0.00019000 -0.07067212 -0.36195854 -1.41909563
29 10.62016500 0.00000600 0.00000800 -1.41622216 -0.10553748 -0.16795420
30 4.75115700 0.69437500 -0.83047200 -0.33844000 -0.26124800 1.29342300
31 1.68806600 -0.00002600 0.00000200 0.01051700 -0.02235900 0.99904800
32 1.33614400 -0.00005300 -0.00000900 0.01010300 -0.03737100 0.10701300
33 4.82051300 0.50933800 0.22486600 -0.39832600 0.00393300 1.77193500
34 1.82699600 0.00006700 0.00000800 -0.02935500 0.02785900 0.46325400
35 1.43658100 -0.00001000 0.00000700 0.01148900 -0.00990700 -0.01879000
36 3.99235000 0.89108800 1.82799500 -0.52235300 0.24838200 1.74219200
37 1.40592100 0.00002400 -0.00000500 0.01079800 -0.02744800 0.50116800
38 1.17536400 -0.00013000 0.00000300 0.04460100 0.11489700 0.32615100
39 4.52675500 0.69045900 1.12084200 -0.46444700 0.15476900 1.82939800
40 1.74404200 -0.00003200 -0.00000200 -0.00259100 -0.02944900 0.49814700
41 1.36876300 -0.00003200 -0.00001700 0.03581200 0.15457400 0.04304500
42 1.93928200 1.01468700 -0.90910200 1.98461200 0.85942500 0.40831000
43 1.52345200 -0.00003300 -0.00000300 0.00344600 -0.10446000 0.25108100
44 1.59927900 0.00000100 0.00000600 0.05381000 0.06390000 -0.04381700
45 5.51180600 0.00000000 0.00000400 -0.27198700 0.00000000 0.00000000
46 0.19684700 0.00000100 0.00000000 -0.34822500 0.00001500 -0.00000200
47 0.00000000 0.00000000 0.00000000 0.00000000 0.00000000 -1.57079600
48 -3.84604500 4.36570100 -3.19804200 0.00000000 0.00000000 -3.14156200
49 -7.85378833 20.70836968 -1.14922618 0.45646997 0.25775516 -0.38288158
50 10.29346800 1.65648300 -1.39238100 -0.59230200 1.24938800 1.04281400
51 3.12262200 -0.01178200 -0.68646900 0.00000000 0.00000000 0.00000000
52 -4.01753200 -0.01178200 0.12452700 0.00000000 0.00000000 0.00000000
53 0.05046500 0.00000000 0.46481100 0.00000000 0.00000000 0.00000000
54 1.27158900 0.74292800 1.02600500 0.00000000 0.00000000 0.00000000
55 -3.03010000 -0.02560600 -1.06275300 0.00000000 0.00000000 0.00000000
56 2.12937200 -2.30115700 -2.87848400 3.04987700 0.77861500 -2.38808600
time 15
0 -0.00000100 7.45008900 -27.50902600 0.00000000 0.00000000 0.00003100
1 -0.00000200 0.00000000 0.00000000 1.57074300 -1.56713700 -1.57074300
2 4.25546800 -0.33518300 -0.00000200 0.00000000 0.00000000 -0.12484800
3 7.43124800 1.49647700 0.00000200 0.00000000 0.00000000 0.24545000
4 5.27847900 0.16554100 0.00000100 0.00000000 0.00000000 0.04851100
5 -1.64874100 -13.09410300 6.31045700 1.97586400 1.15990900 -1.29878600
6 -6.21448200 -0.00000700 -0.00002700 -2.47290163 -0.60683515 1.11736847
7 11.94488700 0.00000000 0.00000000 -0.30612179 -0.33054711 1.81393202
8 10.62018300 0.00000000 -0.00000100 1.18323219 -0.69953731 2.46741853
9 -4.75111200 -0.69449200 0.83057300 0.04913500 -0.07824800 0.26163600
10 -1.68807100 0.00004700 -0.00003100 0.02216600 -0.01093400 0.32820700
11 -1.33613900 0.00005600 -0.00001200 0.02584800 0.00498300 0.36433000
12 -4.82049900 -0.50945800 -0.22476000 -0.30996000 0.01843000 1.56221200
13 -1.82699000 -0.00006600 0.00000700 -0.01505300 0.03754500 0.89279800
14 -1.43657900 0.00001100 0.00000300 -0.04326900 -0.06465400 0.49796600
15 -3.99236100 -0.89118600 -1.82790700 -0.39357000 0.38726600 1.76892200
16 -1.40592400 -0.00002500 -0.00000300 0.01207400 -0.02686800 0.45175400
17 -1.17536200 0.00012700 -0.00002000 0.05312600 0.04227700 0.80292000
18 -4.52675500 -0.69057300 -1.12074400 -0.26184200 0.27532100 1.85528700
19 -1.74404500 0.00003700 -0.00000800 -0.00637800 -0.02888000 0.62763700
20 -1.36876500 0.00002400 0.00000400 0.02849100 0.04404900 0.47030300
21 -1.87480200 -0.93512600 0.99917200 2.30037900 0.31378400 1.08810900
22 -1.52345300 0.00003000 0.00002700 0.05305500 0.16566500 0.41250900
23 -1.59928500 0.00000500 0.00001200 0.03405500 -0.02608500 0.63444600
24 5.58312400 0.11572400 0.29499900 2.70854600 -0.05525400 3.09741800
25 0.19684900 -0.00000300 0.00000300 2.79340694 -0.00046002 -3.14148486
26 -0.78831400 -9.30912200 -1.18656300 1.97586200 1.15990900 1.84280300
27 6.21448500 0.00000600 0.00002000 -2.04342814 0.42798060 -2.65284848
28 11.94488700 -0.00003400 -0.00019000 -0.07269903 -0.35964829 -1.41308868
29 10.62016500 0.00000600 0.00000800 -1.40522978 -0.11310909 -0.16833814
30 4.75115700 0.69437500 -0.83047200 -0.33844000 -0.26124800 1.29342300
31 1.68806600 -0.00002600 0.00000200 0.01051700 -0.02235900 0.99904800
32 1.33614400 -0.00005300 -0.00000900 0.01010300 -0.03737100 0.10701300
33 4.82051300 0.50933800 0.22486600 -0.39832600 0.00393300 1.77193500
34 1.82699600 0.00006700 0.00000800 -0.02935500 0.02785900 0.46325400
35 1.43658100 -0.00001000 0.00000700 0.01148900 -0.00990700 -0.01879000
36 3.99235000 0.89108800 1.82799500 -0.52235300 0.24838200 1.74219200
37 1.40592100 0.00002400 -0.00000500 0.01079800 -0.02744800 0.50116800
38 1.17536400 -0.00013000 0.00000300 0.04460100 0.11489700 0.32615100
39 4.52675500 0.69045900 1.12084200 -0.46444700 0.15476900 1.82939800
40 1.74404200 -0.00003200 -0.00000200 -0.00259100 -0.02944900 0.49814700
41 1.36876300 -0.00003200 -0.00001700 0.03581200 0.15457400 0.04304500
42 1.93928200 1.01468700 -0.90910200 1.98461200 0.85942500 0.40831000
43 1.52345200 -0.00003300 -0.00000300 0.00344600 -0.10446000 0.25108100
44 1.59927900 0.00000100 0.00000600 0.05381000 0.06390000 -0.04381700
45 5.51180600 0.00000000 0.00000400 -0.27198700 0.00000000 0.00000000
46 0.19684700 0.00000100 0.00000000 -0.34822500 0.00001500 -0.00000200
47 0.00000000 0.00000000 0.00000000 0.00000000 0.00000000 -1.57079600
48 -3.84604500 4.36570100 -3.19804200 0.00000000 0.00000000 -3.14156200
49 -7.80152984 20.73111111 -1.10751858 0.44868595 0.26044671 -0.37613087
50 10.29346800 1.65648300 -1.39238100 -0.59230200 1.24938800 1.04281400
51 3.12262200 -0.01178200 -0.68646900 0.00000000 0.00000000 0.00000000
52 -4.01753200 -0.01178200 0.12452700 0.00000000 0.00000000 0.00000000
53 0.05046500 0.00000000 0.46481100 0.00000000 0.00000000 0.00000000
54 1.27158900 0.74292800 1.02600500 0.00000000 0.00000000 0.00000000
55 -3.03010000 -0.02560600 -1.06275300 0.00000000 0.00000000 0.00000000
56 2.12937200 -2.30115700 -2.87848400 3.04987700 0.77861500 -2.38808600
end
