version 1
nodes
0 "root" -1
1 "pelvis" 0
2 "spine_01" 1
3 "spine_02" 2
4 "spine_03" 3
5 "clavicle_r" 4
6 "upperarm_r" 5
7 "lowerarm_r" 6
8 "hand_r" 7
9 "index_01_r" 8
10 "index_02_r" 9
11 "index_03_r" 10
12 "middle_01_r" 8
13 "middle_02_r" 12
14 "middle_03_r" 13
15 "pinky_01_r" 8
16 "pinky_02_r" 15
17 "pinky_03_r" 16
18 "ring_01_r" 8
19 "ring_02_r" 18
20 "ring_03_r" 19
21 "thumb_01_r" 8
22 "thumb_02_r" 21
23 "thumb_03_r" 22
24 "lowerarm_twist_01_r" 7
25 "upperarm_twist_01_r" 6
26 "clavicle_l" 4
27 "upperarm_l" 26
28 "lowerarm_l" 27
29 "hand_l" 28
30 "index_01_l" 29
31 "index_02_l" 30
32 "index_03_l" 31
33 "middle_01_l" 29
34 "middle_02_l" 33
35 "middle_03_l" 34
36 "pinky_01_l" 29
37 "pinky_02_l" 36
38 "pinky_03_l" 37
39 "ring_01_l" 29
40 "ring_02_l" 39
41 "ring_03_l" 40
42 "thumb_01_l" 29
43 "thumb_02_l" 42
44 "thumb_03_l" 43
45 "lowerarm_twist_01_l" 28
46 "upperarm_twist_01_l" 27
47 "cam_driver" -1
48 "BaseRoot" -1
49 "Base" 48
50 "rhand_ikTarget" 49
51 "Trigger" 49
52 "Lock" 49
53 "Bolt" 49
54 "Tube" 49
55 "TubeGrip" 54
56 "TubeRelease" 55
57 "M203_GrenBase" 49
58 "M203_GrenHead" 57
59 "M203_Trigger" 49
60 "M203_Ironsight" 49
61 "M203_HammerPull" 49
62 "Bayonet" 49
63 "lhand_ikTarget" 49
64 "Mag" 49
65 "Bullets" 64
end
skeleton
time 0
0 -0.00000100 8.45008800 -27.50902600 0.00000000 0.00000000 0.00003100
1 -0.00000200 0.00000000 0.00000000 1.57074300 -1.56713700 -1.57074300
2 4.25546800 -0.33518300 -0.00000200 0.00000000 0.00000000 -0.12484800
3 7.43124800 1.49647700 0.00000200 0.00000000 0.00000000 0.24545000
4 5.27847900 0.16554100 0.00000100 0.00000000 0.00000000 0.04851100
5 4.25395700 -4.00867100 -2.11487300 1.97586400 1.15990900 -1.29878600
6 -6.21448200 -0.00000700 -0.00002700 3.13907134 -0.50933540 2.00788409
7 11.94488200 0.00000000 0.00000100 -0.36264600 -0.35426200 1.57275522
8 10.62018100 0.00000200 0.00000000 0.55069227 -0.21634737 2.85454073
9 -4.75110600 -0.69449400 0.83057700 -0.13822700 -0.15282100 0.18761000
10 -1.68806800 0.00004600 -0.00003200 0.02141900 -0.01231500 0.38900200
11 -1.33614000 0.00005700 -0.00001200 0.02584200 0.00517300 0.35617200
12 -4.82049400 -0.50946000 -0.22475900 -0.34140000 -0.06545200 1.04871000
13 -1.82699200 -0.00006400 0.00000600 0.01748100 0.03646500 1.72004300
14 -1.43657300 0.00000600 0.00000200 -0.02382900 -0.07399300 0.22023700
15 -3.99235500 -0.89118800 -1.82790900 -0.59999900 0.19887300 1.32587600
16 -1.40591800 -0.00002500 -0.00000300 -0.01642200 -0.02447400 1.46410200
17 -1.17535800 0.00012800 -0.00002000 0.02747700 0.06211700 0.32120800
18 -4.52675100 -0.69057500 -1.12074400 -0.42612300 0.11490200 1.26431800
19 -1.74403800 0.00003300 -0.00000800 -0.02836300 -0.00827500 1.69883200
20 -1.36877100 0.00002500 0.00000200 0.01196900 0.05106200 0.12629600
21 -2.03839800 -0.89278700 0.93250400 2.31093700 0.31633100 0.79560400
22 -1.62789300 0.15474800 0.01182500 -0.13461700 0.15578500 0.35407600
23 -1.59928500 0.00000400 0.00001600 0.02557400 -0.03449400 0.91320200
24 5.51181500 0.00000800 -0.00000100 2.10370077 -0.09267336 3.10418229
25 0.19684700 -0.00000100 0.00000300 2.79340677 -0.00116505 -3.14126810
26 2.53848600 -13.69475700 -1.63169900 1.97586200 1.15990900 1.84280300
27 6.21448500 0.00000600 0.00002000 -0.96988154 0.81895158 -1.95191068
28 11.94488500 -0.00002900 -0.00019400 -0.18530319 -0.33348206 -1.35479298
29 10.62016600 0.00000200 0.00001000 -2.91510769 -0.15440824 0.71135642
30 4.75115600 0.69437600 -0.83047300 -0.00402900 -0.10904900 0.38691600
31 1.68806500 -0.00002600 0.00000200 -0.00432100 -0.02432800 1.61481100
32 1.33615100 -0.00005100 -0.00000900 0.00924200 -0.03762600 0.12943000
33 4.82051300 0.50934000 0.22486500 -0.20590800 -0.00932300 0.86451500
34 1.82699600 0.00006600 0.00000800 0.01614600 0.03712600 1.68280400
35 1.43657700 -0.00001000 0.00000700 0.01515000 0.00045200 -0.75718600
36 3.99235300 0.89108700 1.82799400 -0.42620000 0.27844800 1.39074000
37 1.40591800 0.00002100 -0.00000700 -0.01231800 -0.02677000 1.30554600
38 1.17536900 -0.00013100 0.00000200 -0.09551900 0.07798600 -0.93359900
39 4.52675600 0.69046000 1.12084200 -0.35863200 0.11631600 1.17997500
40 1.74404100 -0.00003100 -0.00000200 -0.02749900 -0.01076800 1.60922000
41 1.36876300 -0.00003100 -0.00001700 -0.12957300 0.09181900 -1.14340300
42 1.80926700 0.89529400 -1.12011000 1.88461400 0.36803000 0.40774200
43 1.49513800 -0.24140500 0.04487600 0.00360000 -0.23414300 0.03443400
44 1.57424500 -0.10445300 0.03324200 0.03981700 0.07342300 -0.24671300
45 5.51180600 -0.00000200 0.00000600 -1.22958000 0.00000000 0.00000000
46 0.19685000 0.00000300 -0.00000200 -0.34822500 0.00001500 -0.00000200
47 0.00000000 1.00000000 0.00000000 0.00000000 0.00000000 -1.57079600
48 -3.18096000 33.22035600 -3.27546900 0.00000000 0.00000000 -3.14156200
49 -4.21256155 49.55735398 -2.51176491 0.14251318 -0.13931279 -1.11399339
50 10.32273500 1.03200500 -4.47404000 0.49059400 1.12092400 1.98870900
51 3.73549700 0.00125700 -1.32376300 0.00000000 0.00000000 0.00000000
52 4.80553000 0.89926700 -0.32590700 0.00000000 0.00000000 0.00000000
53 -1.55556500 -0.00054600 0.65577800 0.00000000 0.00000000 0.00000000
54 -17.55704100 -0.07892100 -2.36514300 0.00000000 0.00000000 0.00000000
55 1.59894600 -0.03355100 -0.60974000 0.00000000 0.00000000 0.00000000
56 1.35182600 0.00000000 -0.67877500 0.00000000 0.00000000 0.00000000
57 -14.97013500 -0.07892100 -1.81620400 0.00000000 0.00000000 0.00000000
58 -1.56441500 0.00000000 0.00000000 0.00000000 0.00000000 0.00000000
59 -12.01197200 0.40999300 -1.95628300 0.00000000 -0.65622100 0.00000000
60 -13.22667100 -1.31173800 -0.24158000 0.00000000 0.00000000 0.00000000
61 -10.22775200 -0.06714000 -2.05487500 0.00000000 0.00000000 0.00000000
62 -17.41236500 0.31651300 -0.95933400 0.00000000 0.00000000 0.00000000
63 -3.72439400 -2.13677900 -2.09378300 3.09200100 1.15353800 -2.39145700
64 -0.00066900 -0.00054600 -1.33911600 0.00000000 0.00000000 0.00000000
65 0.04766100 0.00000000 0.67144200 0.00000000 0.00000000 0.00000000
time 1
0 -0.00000100 8.45008800 -27.50902600 0.00000000 0.00000000 0.00003100
1 -0.00000200 0.00000000 0.00000000 1.57074300 -1.56713700 -1.57074300
2 4.25546800 -0.33518300 -0.00000200 0.00000000 0.00000000 -0.12484800
3 7.43124800 1.49647700 0.00000200 0.00000000 0.00000000 0.24545000
4 5.27847900 0.16554100 0.00000100 0.00000000 0.00000000 0.04851100
5 4.23604163 -4.03624630 -2.08930086 1.97586400 1.15990900 -1.29878600
6 -6.21448200 -0.00000700 -0.00002700 -3.11294737 -0.50610889 1.99501283
7 11.94488200 0.00000000 0.00000100 -0.35823125 -0.35467416 1.55979193
8 10.62018100 0.00000200 0.00000000 0.60530994 -0.24894475 2.88233236
9 -4.75110600 -0.69449400 0.83057700 -0.13822700 -0.15282100 0.18761000
10 -1.68806800 0.00004600 -0.00003200 0.02141900 -0.01231500 0.38900200
11 -1.33614000 0.00005700 -0.00001200 0.02584200 0.00517300 0.35617200
12 -4.82049400 -0.50946000 -0.22475900 -0.34140000 -0.06545200 1.04871000
13 -1.82699200 -0.00006400 0.00000600 0.01748100 0.03646500 1.72004300
14 -1.43657300 0.00000600 0.00000200 -0.02382900 -0.07399300 0.22023700
15 -3.99235500 -0.89118800 -1.82790900 -0.59999900 0.19887300 1.32587600
16 -1.40591800 -0.00002500 -0.00000300 -0.01642200 -0.02447400 1.46410200
17 -1.17535800 0.00012800 -0.00002000 0.02747700 0.06211700 0.32120800
18 -4.52675100 -0.69057500 -1.12074400 -0.42612300 0.11490200 1.26431800
19 -1.74403800 0.00003300 -0.00000800 -0.02836300 -0.00827500 1.69883200
20 -1.36877100 0.00002500 0.00000200 0.01196900 0.05106200 0.12629600
21 -2.03839800 -0.89278700 0.93250400 2.31093700 0.31633100 0.79560400
22 -1.62789300 0.15474800 0.01182500 -0.13461700 0.15578500 0.35407600
23 -1.59928500 0.00000400 0.00001600 0.02557400 -0.03449400 0.91320200
24 5.51181500 0.00000800 -0.00000100 2.10370077 -0.09267336 3.10418229
25 0.19684700 -0.00000100 0.00000300 2.79340677 -0.00116505 -3.14126810
26 2.53848600 -13.69475700 -1.63169900 1.97586200 1.15990900 1.84280300
27 6.21448500 0.00000600 0.00002000 -0.95418238 0.82063859 -1.94280797
28 11.94488500 -0.00002900 -0.00019400 -0.18641426 -0.33492561 -1.35156838
29 10.62016600 0.00000200 0.00001000 -2.97185421 -0.16275723 0.68405847
30 4.75115600 0.69437600 -0.83047300 -0.00402900 -0.10904900 0.38691600
31 1.68806500 -0.00002600 0.00000200 -0.00432100 -0.02432800 1.61481100
32 1.33615100 -0.00005100 -0.00000900 0.00924200 -0.03762600 0.12943000
33 4.82051300 0.50934000 0.22486500 -0.20590800 -0.00932300 0.86451500
34 1.82699600 0.00006600 0.00000800 0.01614600 0.03712600 1.68280400
35 1.43657700 -0.00001000 0.00000700 0.01515000 0.00045200 -0.75718600
36 3.99235300 0.89108700 1.82799400 -0.42620000 0.27844800 1.39074000
37 1.40591800 0.00002100 -0.00000700 -0.01231800 -0.02677000 1.30554600
38 1.17536900 -0.00013100 0.00000200 -0.09551900 0.07798600 -0.93359900
39 4.52675600 0.69046000 1.12084200 -0.35863200 0.11631600 1.17997500
40 1.74404100 -0.00003100 -0.00000200 -0.02749900 -0.01076800 1.60922000
41 1.36876300 -0.00003100 -0.00001700 -0.12957300 0.09181900 -1.14340300
42 1.80926700 0.89529400 -1.12011000 1.88461400 0.36803000 0.40774200
43 1.49513800 -0.24140500 0.04487600 0.00360000 -0.23414300 0.03443400
44 1.57424500 -0.10445300 0.03324200 0.03981700 0.07342300 -0.24671300
45 5.51180600 -0.00000200 0.00000600 -1.22958000 0.00000000 0.00000000
46 0.19685000 0.00000300 -0.00000200 -0.34822500 0.00001500 -0.00000200
47 0.00000000 1.00000000 0.00000000 0.00000000 0.00000000 -1.57079600
48 -3.18096000 33.22035600 -3.27546900 0.00000000 0.00000000 -3.14156200
49 -4.33624777 49.56611059 -2.47137224 0.19673518 -0.14794053 -1.10759502
50 10.32273500 1.03200500 -4.47404000 0.49059400 1.12092400 1.98870900
51 3.73549700 0.00125700 -1.32376300 0.00000000 0.00000000 0.00000000
52 4.80553000 0.89926700 -0.32590700 0.00000000 0.00000000 0.00000000
53 -1.55556500 -0.00054600 0.65577800 0.00000000 0.00000000 0.00000000
54 -17.55704100 -0.07892100 -2.36514300 0.00000000 0.00000000 0.00000000
55 1.59894600 -0.03355100 -0.60974000 0.00000000 0.00000000 0.00000000
56 1.35182600 0.00000000 -0.67877500 0.00000000 0.00000000 0.00000000
57 -14.97013500 -0.07892100 -1.81620400 0.00000000 0.00000000 0.00000000
58 -1.56441500 0.00000000 0.00000000 0.00000000 0.00000000 0.00000000
59 -12.01197200 0.40999300 -1.95628300 0.00000000 -0.65622100 0.00000000
60 -13.22667100 -1.31173800 -0.24158000 0.00000000 0.00000000 0.00000000
61 -10.22775200 -0.06714000 -2.05487500 0.00000000 0.00000000 0.00000000
62 -17.41236500 0.31651300 -0.95933400 0.00000000 0.00000000 0.00000000
63 -3.72439400 -2.13677900 -2.09378300 3.09200100 1.15353800 -2.39145700
64 -0.00066900 -0.00054600 -1.33911600 0.00000000 0.00000000 0.00000000
65 0.04766100 0.00000000 0.67144200 0.00000000 0.00000000 0.00000000
time 2
0 -0.00000100 8.45008800 -27.50902600 0.00000000 0.00000000 0.00003100
1 -0.00000200 0.00000000 0.00000000 1.57074300 -1.56713700 -1.57074300
2 4.25546800 -0.33518300 -0.00000200 0.00000000 0.00000000 -0.12484800
3 7.43124800 1.49647700 0.00000200 0.00000000 0.00000000 0.24545000
4 5.27847900 0.16554100 0.00000100 0.00000000 0.00000000 0.04851100
5 4.18651087 -4.11248390 -2.01860241 1.97586400 1.15990900 -1.29878600
6 -6.21448200 -0.00000700 -0.00002700 -3.07552807 -0.50006224 1.96634321
7 11.94488200 0.00000000 0.00000100 -0.35191775 -0.35747902 1.54124128
8 10.62018100 0.00000200 0.00000000 0.66778387 -0.29013904 2.91467185
9 -4.75110600 -0.69449400 0.83057700 -0.13822700 -0.15282100 0.18761000
10 -1.68806800 0.00004600 -0.00003200 0.02141900 -0.01231500 0.38900200
11 -1.33614000 0.00005700 -0.00001200 0.02584200 0.00517300 0.35617200
12 -4.82049400 -0.50946000 -0.22475900 -0.34140000 -0.06545200 1.04871000
13 -1.82699200 -0.00006400 0.00000600 0.01748100 0.03646500 1.72004300
14 -1.43657300 0.00000600 0.00000200 -0.02382900 -0.07399300 0.22023700
15 -3.99235500 -0.89118800 -1.82790900 -0.59999900 0.19887300 1.32587600
16 -1.40591800 -0.00002500 -0.00000300 -0.01642200 -0.02447400 1.46410200
17 -1.17535800 0.00012800 -0.00002000 0.02747700 0.06211700 0.32120800
18 -4.52675100 -0.69057500 -1.12074400 -0.42612300 0.11490200 1.26431800
19 -1.74403800 0.00003300 -0.00000800 -0.02836300 -0.00827500 1.69883200
20 -1.36877100 0.00002500 0.00000200 0.01196900 0.05106200 0.12629600
21 -2.03839800 -0.89278700 0.93250400 2.31093700 0.31633100 0.79560400
22 -1.62789300 0.15474800 0.01182500 -0.13461700 0.15578500 0.35407600
23 -1.59928500 0.00000400 0.00001600 0.02557400 -0.03449400 0.91320200
24 5.51181500 0.00000800 -0.00000100 2.10370077 -0.09267336 3.10418229
25 0.19684700 -0.00000100 0.00000300 2.79340677 -0.00116505 -3.14126810
26 2.53848600 -13.69475700 -1.63169900 1.97586200 1.15990900 1.84280300
27 6.21448500 0.00000600 0.00002000 -0.92802308 0.82003610 -1.91590852
28 11.94488500 -0.00002900 -0.00019400 -0.18516903 -0.33739167 -1.35494510
29 10.62016600 0.00000200 0.00001000 -3.04295267 -0.17378273 0.65800658
30 4.75115600 0.69437600 -0.83047300 -0.00402900 -0.10904900 0.38691600
31 1.68806500 -0.00002600 0.00000200 -0.00432100 -0.02432800 1.61481100
32 1.33615100 -0.00005100 -0.00000900 0.00924200 -0.03762600 0.12943000
33 4.82051300 0.50934000 0.22486500 -0.20590800 -0.00932300 0.86451500
34 1.82699600 0.00006600 0.00000800 0.01614600 0.03712600 1.68280400
35 1.43657700 -0.00001000 0.00000700 0.01515000 0.00045200 -0.75718600
36 3.99235300 0.89108700 1.82799400 -0.42620000 0.27844800 1.39074000
37 1.40591800 0.00002100 -0.00000700 -0.01231800 -0.02677000 1.30554600
38 1.17536900 -0.00013100 0.00000200 -0.09551900 0.07798600 -0.93359900
39 4.52675600 0.69046000 1.12084200 -0.35863200 0.11631600 1.17997500
40 1.74404100 -0.00003100 -0.00000200 -0.02749900 -0.01076800 1.60922000
41 1.36876300 -0.00003100 -0.00001700 -0.12957300 0.09181900 -1.14340300
42 1.80926700 0.89529400 -1.12011000 1.88461400 0.36803000 0.40774200
43 1.49513800 -0.24140500 0.04487600 0.00360000 -0.23414300 0.03443400
44 1.57424500 -0.10445300 0.03324200 0.03981700 0.07342300 -0.24671300
45 5.51180600 -0.00000200 0.00000600 -1.22958000 0.00000000 0.00000000
46 0.19685000 0.00000300 -0.00000200 -0.34822500 0.00001500 -0.00000200
47 0.00000000 1.00000000 0.00000000 0.00000000 0.00000000 -1.57079600
48 -3.18096000 33.22035600 -3.27546900 0.00000000 0.00000000 -3.14156200
49 -4.67412715 49.58869311 -2.38069211 0.26135818 -0.15675417 -1.09054728
50 10.32273500 1.03200500 -4.47404000 0.49059400 1.12092400 1.98870900
51 3.73549700 0.00125700 -1.32376300 0.00000000 0.00000000 0.00000000
52 4.80553000 0.89926700 -0.32590700 0.00000000 0.00000000 0.00000000
53 -1.55556500 -0.00054600 0.65577800 0.00000000 0.00000000 0.00000000
54 -17.55704100 -0.07892100 -2.36514300 0.00000000 0.00000000 0.00000000
55 1.59894600 -0.03355100 -0.60974000 0.00000000 0.00000000 0.00000000
56 1.35182600 0.00000000 -0.67877500 0.00000000 0.00000000 0.00000000
57 -14.97013500 -0.07892100 -1.81620400 0.00000000 0.00000000 0.00000000
58 -1.56441500 0.00000000 0.00000000 0.00000000 0.00000000 0.00000000
59 -12.01197200 0.40999300 -1.95628300 0.00000000 -0.65622100 0.00000000
60 -13.22667100 -1.31173800 -0.24158000 0.00000000 0.00000000 0.00000000
61 -10.22775200 -0.06714000 -2.05487500 0.00000000 0.00000000 0.00000000
62 -17.41236500 0.31651300 -0.95933400 0.00000000 0.00000000 0.00000000
63 -3.72439400 -2.13677900 -2.09378300 3.09200100 1.15353800 -2.39145700
64 -0.00066900 -0.00054600 -1.33911600 0.00000000 0.00000000 0.00000000
65 0.04766100 0.00000000 0.67144200 0.00000000 0.00000000 0.00000000
time 3
0 -0.00000100 8.45008800 -27.50902600 0.00000000 0.00000000 0.00003100
1 -0.00000200 0.00000000 0.00000000 1.57074300 -1.56713700 -1.57074300
2 4.25546800 -0.33518300 -0.00000200 0.00000000 0.00000000 -0.12484800
3 7.43124800 1.49647700 0.00000200 0.00000000 0.00000000 0.24545000
4 5.27847900 0.16554100 0.00000100 0.00000000 0.00000000 0.04851100
5 4.11168778 -4.22765154 -1.91180220 1.97586400 1.15990900 -1.29878600
6 -6.21448200 -0.00000700 -0.00002700 -3.07541403 -0.49832409 1.93681412
7 11.94488200 0.00000000 0.00000100 -0.34652873 -0.36020002 1.52528416
8 10.62018100 0.00000200 0.00000000 0.65927665 -0.28181665 2.93476933
9 -4.75110600 -0.69449400 0.83057700 -0.13822700 -0.15282100 0.18761000
10 -1.68806800 0.00004600 -0.00003200 0.02141900 -0.01231500 0.38900200
11 -1.33614000 0.00005700 -0.00001200 0.02584200 0.00517300 0.35617200
12 -4.82049400 -0.50946000 -0.22475900 -0.34140000 -0.06545200 1.04871000
13 -1.82699200 -0.00006400 0.00000600 0.01748100 0.03646500 1.72004300
14 -1.43657300 0.00000600 0.00000200 -0.02382900 -0.07399300 0.22023700
15 -3.99235500 -0.89118800 -1.82790900 -0.59999900 0.19887300 1.32587600
16 -1.40591800 -0.00002500 -0.00000300 -0.01642200 -0.02447400 1.46410200
17 -1.17535800 0.00012800 -0.00002000 0.02747700 0.06211700 0.32120800
18 -4.52675100 -0.69057500 -1.12074400 -0.42612300 0.11490200 1.26431800
19 -1.74403800 0.00003300 -0.00000800 -0.02836300 -0.00827500 1.69883200
20 -1.36877100 0.00002500 0.00000200 0.01196900 0.05106200 0.12629600
21 -2.03839800 -0.89278700 0.93250400 2.31093700 0.31633100 0.79560400
22 -1.62789300 0.15474800 0.01182500 -0.13461700 0.15578500 0.35407600
23 -1.59928500 0.00000400 0.00001600 0.02557400 -0.03449400 0.91320200
24 5.51181500 0.00000800 -0.00000100 2.10370077 -0.09267336 3.10418229
25 0.19684700 -0.00000100 0.00000300 2.79340677 -0.00116505 -3.14126810
26 2.53848600 -13.69475700 -1.63169900 1.97586200 1.15990900 1.84280300
27 6.21448500 0.00000600 0.00002000 -0.91399480 0.81479002 -1.87470223
28 11.94488500 -0.00002900 -0.00019400 -0.17842929 -0.34052895 -1.37500716
29 10.62016600 0.00000200 0.00001000 -3.04344849 -0.17369440 0.66668802
30 4.75115600 0.69437600 -0.83047300 -0.00402900 -0.10904900 0.38691600
31 1.68806500 -0.00002600 0.00000200 -0.00432100 -0.02432800 1.61481100
32 1.33615100 -0.00005100 -0.00000900 0.00924200 -0.03762600 0.12943000
33 4.82051300 0.50934000 0.22486500 -0.20590800 -0.00932300 0.86451500
34 1.82699600 0.00006600 0.00000800 0.01614600 0.03712600 1.68280400
35 1.43657700 -0.00001000 0.00000700 0.01515000 0.00045200 -0.75718600
36 3.99235300 0.89108700 1.82799400 -0.42620000 0.27844800 1.39074000
37 1.40591800 0.00002100 -0.00000700 -0.01231800 -0.02677000 1.30554600
38 1.17536900 -0.00013100 0.00000200 -0.09551900 0.07798600 -0.93359900
39 4.52675600 0.69046000 1.12084200 -0.35863200 0.11631600 1.17997500
40 1.74404100 -0.00003100 -0.00000200 -0.02749900 -0.01076800 1.60922000
41 1.36876300 -0.00003100 -0.00001700 -0.12957300 0.09181900 -1.14340300
42 1.80926700 0.89529400 -1.12011000 1.88461400 0.36803000 0.40774200
43 1.49513800 -0.24140500 0.04487600 0.00360000 -0.23414300 0.03443400
44 1.57424500 -0.10445300 0.03324200 0.03981700 0.07342300 -0.24671300
45 5.51180600 -0.00000200 0.00000600 -1.22958000 0.00000000 0.00000000
46 0.19685000 0.00000300 -0.00000200 -0.34822500 0.00001500 -0.00000200
47 0.00000000 1.00000000 0.00000000 0.00000000 0.00000000 -1.57079600
48 -3.18096000 33.22035600 -3.27546900 0.00000000 0.00000000 -3.14156200
49 -5.17775273 49.61957194 -2.27682007 0.26149122 -0.14536289 -1.05862061
50 10.32273500 1.03200500 -4.47404000 0.49059400 1.12092400 1.98870900
51 3.73549700 0.00125700 -1.32376300 0.00000000 0.00000000 0.00000000
52 4.80553000 0.89926700 -0.32590700 0.00000000 0.00000000 0.00000000
53 -1.55556500 -0.00054600 0.65577800 0.00000000 0.00000000 0.00000000
54 -17.55704100 -0.07892100 -2.36514300 0.00000000 0.00000000 0.00000000
55 1.59894600 -0.03355100 -0.60974000 0.00000000 0.00000000 0.00000000
56 1.35182600 0.00000000 -0.67877500 0.00000000 0.00000000 0.00000000
57 -14.97013500 -0.07892100 -1.81620400 0.00000000 0.00000000 0.00000000
58 -1.56441500 0.00000000 0.00000000 0.00000000 0.00000000 0.00000000
59 -12.01197200 0.40999300 -1.95628300 0.00000000 -0.65622100 0.00000000
60 -13.22667100 -1.31173800 -0.24158000 0.00000000 0.00000000 0.00000000
61 -10.22775200 -0.06714000 -2.05487500 0.00000000 0.00000000 0.00000000
62 -17.41236500 0.31651300 -0.95933400 0.00000000 0.00000000 0.00000000
63 -3.72439400 -2.13677900 -2.09378300 3.09200100 1.15353800 -2.39145700
64 -0.00066900 -0.00054600 -1.33911600 0.00000000 0.00000000 0.00000000
65 0.04766100 0.00000000 0.67144200 0.00000000 0.00000000 0.00000000
time 4
0 -0.00000100 8.45008800 -27.50902600 0.00000000 0.00000000 0.00003100
1 -0.00000200 0.00000000 0.00000000 1.57074300 -1.56713700 -1.57074300
2 4.25546800 -0.33518300 -0.00000200 0.00000000 0.00000000 -0.12484800
3 7.43124800 1.49647700 0.00000200 0.00000000 0.00000000 0.24545000
4 5.27847900 0.16554100 0.00000100 0.00000000 0.00000000 0.04851100
5 4.01789561 -4.37201663 -1.77792601 1.97586400 1.15990900 -1.29878600
6 -6.21448200 -0.00000700 -0.00002700 -3.08451275 -0.49843001 1.90198101
7 11.94488200 0.00000000 0.00000100 -0.33922984 -0.36322410 1.50375407
8 10.62018100 0.00000200 0.00000000 0.63739926 -0.25816496 2.95873497
9 -4.75110600 -0.69449400 0.83057700 -0.13822700 -0.15282100 0.18761000
10 -1.68806800 0.00004600 -0.00003200 0.02141900 -0.01231500 0.38900200
11 -1.33614000 0.00005700 -0.00001200 0.02584200 0.00517300 0.35617200
12 -4.82049400 -0.50946000 -0.22475900 -0.34140000 -0.06545200 1.04871000
13 -1.82699200 -0.00006400 0.00000600 0.01748100 0.03646500 1.72004300
14 -1.43657300 0.00000600 0.00000200 -0.02382900 -0.07399300 0.22023700
15 -3.99235500 -0.89118800 -1.82790900 -0.59999900 0.19887300 1.32587600
16 -1.40591800 -0.00002500 -0.00000300 -0.01642200 -0.02447400 1.46410200
17 -1.17535800 0.00012800 -0.00002000 0.02747700 0.06211700 0.32120800
18 -4.52675100 -0.69057500 -1.12074400 -0.42612300 0.11490200 1.26431800
19 -1.74403800 0.00003300 -0.00000800 -0.02836300 -0.00827500 1.69883200
20 -1.36877100 0.00002500 0.00000200 0.01196900 0.05106200 0.12629600
21 -2.03839800 -0.89278700 0.93250400 2.31093700 0.31633100 0.79560400
22 -1.62789300 0.15474800 0.01182500 -0.13461700 0.15578500 0.35407600
23 -1.59928500 0.00000400 0.00001600 0.02557400 -0.03449400 0.91320200
24 5.51181500 0.00000800 -0.00000100 2.10370077 -0.09267336 3.10418229
25 0.19684700 -0.00000100 0.00000300 2.79340677 -0.00116505 -3.14126810
26 2.53848600 -13.69475700 -1.63169900 1.97586200 1.15990900 1.84280300
27 6.21448500 0.00000600 0.00002000 -0.90304225 0.80829800 -1.82554667
28 11.94488500 -0.00002900 -0.00019400 -0.17077553 -0.34435160 -1.39764165
29 10.62016600 0.00000200 0.00001000 -3.02842394 -0.17041376 0.67740441
30 4.75115600 0.69437600 -0.83047300 -0.00402900 -0.10904900 0.38691600
31 1.68806500 -0.00002600 0.00000200 -0.00432100 -0.02432800 1.61481100
32 1.33615100 -0.00005100 -0.00000900 0.00924200 -0.03762600 0.12943000
33 4.82051300 0.50934000 0.22486500 -0.20590800 -0.00932300 0.86451500
34 1.82699600 0.00006600 0.00000800 0.01614600 0.03712600 1.68280400
35 1.43657700 -0.00001000 0.00000700 0.01515000 0.00045200 -0.75718600
36 3.99235300 0.89108700 1.82799400 -0.42620000 0.27844800 1.39074000
37 1.40591800 0.00002100 -0.00000700 -0.01231800 -0.02677000 1.30554600
38 1.17536900 -0.00013100 0.00000200 -0.09551900 0.07798600 -0.93359900
39 4.52675600 0.69046000 1.12084200 -0.35863200 0.11631600 1.17997500
40 1.74404100 -0.00003100 -0.00000200 -0.02749900 -0.01076800 1.60922000
41 1.36876300 -0.00003100 -0.00001700 -0.12957300 0.09181900 -1.14340300
42 1.80926700 0.89529400 -1.12011000 1.88461400 0.36803000 0.40774200
43 1.49513800 -0.24140500 0.04487600 0.00360000 -0.23414300 0.03443400
44 1.57424500 -0.10445300 0.03324200 0.03981700 0.07342300 -0.24671300
45 5.51180600 -0.00000200 0.00000600 -1.22958000 0.00000000 0.00000000
46 0.19685000 0.00000300 -0.00000200 -0.34822500 0.00001500 -0.00000200
47 0.00000000 1.00000000 0.00000000 0.00000000 0.00000000 -1.57079600
48 -3.18096000 33.22035600 -3.27546900 0.00000000 0.00000000 -3.14156200
49 -5.80043450 49.65321580 -2.19536697 0.25078130 -0.12724120 -1.01853373
50 10.32273500 1.03200500 -4.47404000 0.49059400 1.12092400 1.98870900
51 3.73549700 0.00125700 -1.32376300 0.00000000 0.00000000 0.00000000
52 4.80553000 0.89926700 -0.32590700 0.00000000 0.00000000 0.00000000
53 -1.55556500 -0.00054600 0.65577800 0.00000000 0.00000000 0.00000000
54 -17.55704100 -0.07892100 -2.36514300 0.00000000 0.00000000 0.00000000
55 1.59894600 -0.03355100 -0.60974000 0.00000000 0.00000000 0.00000000
56 1.35182600 0.00000000 -0.67877500 0.00000000 0.00000000 0.00000000
57 -14.97013500 -0.07892100 -1.81620400 0.00000000 0.00000000 0.00000000
58 -1.56441500 0.00000000 0.00000000 0.00000000 0.00000000 0.00000000
59 -12.01197200 0.40999300 -1.95628300 0.00000000 -0.65622100 0.00000000
60 -13.22667100 -1.31173800 -0.24158000 0.00000000 0.00000000 0.00000000
61 -10.22775200 -0.06714000 -2.05487500 0.00000000 0.00000000 0.00000000
62 -17.41236500 0.31651300 -0.95933400 0.00000000 0.00000000 0.00000000
63 -3.72439400 -2.13677900 -2.09378300 3.09200100 1.15353800 -2.39145700
64 -0.00066900 -0.00054600 -1.33911600 0.00000000 0.00000000 0.00000000
65 0.04766100 0.00000000 0.67144200 0.00000000 0.00000000 0.00000000
time 5
0 -0.00000100 8.45008800 -27.50902600 0.00000000 0.00000000 0.00003100
1 -0.00000200 0.00000000 0.00000000 1.57074300 -1.56713700 -1.57074300
2 4.25546800 -0.33518300 -0.00000200 0.00000000 0.00000000 -0.12484800
3 7.43124800 1.49647700 0.00000200 0.00000000 0.00000000 0.24545000
4 5.27847900 0.16554100 0.00000100 0.00000000 0.00000000 0.04851100
5 3.91145728 -4.53584673 -1.62599918 1.97586400 1.15990900 -1.29878600
6 -6.21448200 -0.00000700 -0.00002700 -3.09874252 -0.50064442 1.86331845
7 11.94488200 0.00000000 0.00000100 -0.33074332 -0.36600821 1.47859841
8 10.62018100 0.00000200 0.00000000 0.61507852 -0.22477987 2.98247784
9 -4.75110600 -0.69449400 0.83057700 -0.13822700 -0.15282100 0.18761000
10 -1.68806800 0.00004600 -0.00003200 0.02141900 -0.01231500 0.38900200
11 -1.33614000 0.00005700 -0.00001200 0.02584200 0.00517300 0.35617200
12 -4.82049400 -0.50946000 -0.22475900 -0.34140000 -0.06545200 1.04871000
13 -1.82699200 -0.00006400 0.00000600 0.01748100 0.03646500 1.72004300
14 -1.43657300 0.00000600 0.00000200 -0.02382900 -0.07399300 0.22023700
15 -3.99235500 -0.89118800 -1.82790900 -0.59999900 0.19887300 1.32587600
16 -1.40591800 -0.00002500 -0.00000300 -0.01642200 -0.02447400 1.46410200
17 -1.17535800 0.00012800 -0.00002000 0.02747700 0.06211700 0.32120800
18 -4.52675100 -0.69057500 -1.12074400 -0.42612300 0.11490200 1.26431800
19 -1.74403800 0.00003300 -0.00000800 -0.02836300 -0.00827500 1.69883200
20 -1.36877100 0.00002500 0.00000200 0.01196900 0.05106200 0.12629600
21 -2.03839800 -0.89278700 0.93250400 2.31093700 0.31633100 0.79560400
22 -1.62789300 0.15474800 0.01182500 -0.13461700 0.15578500 0.35407600
23 -1.59928500 0.00000400 0.00001600 0.02557400 -0.03449400 0.91320200
24 5.51181500 0.00000800 -0.00000100 2.10370077 -0.09267336 3.10418229
25 0.19684700 -0.00000100 0.00000300 2.79340677 -0.00116505 -3.14126810
26 2.53848600 -13.69475700 -1.63169900 1.97586200 1.15990900 1.84280300
27 6.21448500 0.00000600 0.00002000 -0.89464111 0.80220153 -1.77371210
28 11.94488500 -0.00002900 -0.00019400 -0.16433722 -0.34906443 -1.41660106
29 10.62016600 0.00000200 0.00001000 -3.00798813 -0.16320439 0.68192946
30 4.75115600 0.69437600 -0.83047300 -0.00402900 -0.10904900 0.38691600
31 1.68806500 -0.00002600 0.00000200 -0.00432100 -0.02432800 1.61481100
32 1.33615100 -0.00005100 -0.00000900 0.00924200 -0.03762600 0.12943000
33 4.82051300 0.50934000 0.22486500 -0.20590800 -0.00932300 0.86451500
34 1.82699600 0.00006600 0.00000800 0.01614600 0.03712600 1.68280400
35 1.43657700 -0.00001000 0.00000700 0.01515000 0.00045200 -0.75718600
36 3.99235300 0.89108700 1.82799400 -0.42620000 0.27844800 1.39074000
37 1.40591800 0.00002100 -0.00000700 -0.01231800 -0.02677000 1.30554600
38 1.17536900 -0.00013100 0.00000200 -0.09551900 0.07798600 -0.93359900
39 4.52675600 0.69046000 1.12084200 -0.35863200 0.11631600 1.17997500
40 1.74404100 -0.00003100 -0.00000200 -0.02749900 -0.01076800 1.60922000
41 1.36876300 -0.00003100 -0.00001700 -0.12957300 0.09181900 -1.14340300
42 1.80926700 0.89529400 -1.12011000 1.88461400 0.36803000 0.40774200
43 1.49513800 -0.24140500 0.04487600 0.00360000 -0.23414300 0.03443400
44 1.57424500 -0.10445300 0.03324200 0.03981700 0.07342300 -0.24671300
45 5.51180600 -0.00000200 0.00000600 -1.22958000 0.00000000 0.00000000
46 0.19685000 0.00000300 -0.00000200 -0.34822500 0.00001500 -0.00000200
47 0.00000000 1.00000000 0.00000000 0.00000000 0.00000000 -1.57079600
48 -3.18096000 33.22035600 -3.27546900 0.00000000 0.00000000 -3.14156200
49 -6.49149085 49.68409401 -2.17092920 0.23911986 -0.10649892 -0.97686603
50 10.32273500 1.03200500 -4.47404000 0.49059400 1.12092400 1.98870900
51 3.73549700 0.00125700 -1.32376300 0.00000000 0.00000000 0.00000000
52 4.80553000 0.89926700 -0.32590700 0.00000000 0.00000000 0.00000000
53 -1.55556500 -0.00054600 0.65577800 0.00000000 0.00000000 0.00000000
54 -17.55704100 -0.07892100 -2.36514300 0.00000000 0.00000000 0.00000000
55 1.59894600 -0.03355100 -0.60974000 0.00000000 0.00000000 0.00000000
56 1.35182600 0.00000000 -0.67877500 0.00000000 0.00000000 0.00000000
57 -14.97013500 -0.07892100 -1.81620400 0.00000000 0.00000000 0.00000000
58 -1.56441500 0.00000000 0.00000000 0.00000000 0.00000000 0.00000000
59 -12.01197200 0.40999300 -1.95628300 0.00000000 -0.65622100 0.00000000
60 -13.22667100 -1.31173800 -0.24158000 0.00000000 0.00000000 0.00000000
61 -10.22775200 -0.06714000 -2.05487500 0.00000000 0.00000000 0.00000000
62 -17.41236500 0.31651300 -0.95933400 0.00000000 0.00000000 0.00000000
63 -3.72439400 -2.13677900 -2.09378300 3.09200100 1.15353800 -2.39145700
64 -0.00066900 -0.00054600 -1.33911600 0.00000000 0.00000000 0.00000000
65 0.04766100 0.00000000 0.67144200 0.00000000 0.00000000 0.00000000
time 6
0 -0.00000100 8.45008800 -27.50902600 0.00000000 0.00000000 0.00003100
1 -0.00000200 0.00000000 0.00000000 1.57074300 -1.56713700 -1.57074300
2 4.25546800 -0.33518300 -0.00000200 0.00000000 0.00000000 -0.12484800
3 7.43124800 1.49647700 0.00000200 0.00000000 0.00000000 0.24545000
4 5.27847900 0.16554100 0.00000100 0.00000000 0.00000000 0.04851100
5 3.79869572 -4.70940880 -1.46504702 1.97586400 1.15990900 -1.29878600
6 -6.21448200 -0.00000700 -0.00002700 -3.11720026 -0.50544770 1.82467651
7 11.94488200 0.00000000 0.00000100 -0.32225816 -0.36865730 1.45344785
8 10.62018100 0.00000200 0.00000000 0.59995746 -0.18719835 3.00213664
9 -4.75110600 -0.69449400 0.83057700 -0.13822700 -0.15282100 0.18761000
10 -1.68806800 0.00004600 -0.00003200 0.02141900 -0.01231500 0.38900200
11 -1.33614000 0.00005700 -0.00001200 0.02584200 0.00517300 0.35617200
12 -4.82049400 -0.50946000 -0.22475900 -0.34140000 -0.06545200 1.04871000
13 -1.82699200 -0.00006400 0.00000600 0.01748100 0.03646500 1.72004300
14 -1.43657300 0.00000600 0.00000200 -0.02382900 -0.07399300 0.22023700
15 -3.99235500 -0.89118800 -1.82790900 -0.59999900 0.19887300 1.32587600
16 -1.40591800 -0.00002500 -0.00000300 -0.01642200 -0.02447400 1.46410200
17 -1.17535800 0.00012800 -0.00002000 0.02747700 0.06211700 0.32120800
18 -4.52675100 -0.69057500 -1.12074400 -0.42612300 0.11490200 1.26431800
19 -1.74403800 0.00003300 -0.00000800 -0.02836300 -0.00827500 1.69883200
20 -1.36877100 0.00002500 0.00000200 0.01196900 0.05106200 0.12629600
21 -2.03839800 -0.89278700 0.93250400 2.31093700 0.31633100 0.79560400
22 -1.62789300 0.15474800 0.01182500 -0.13461700 0.15578500 0.35407600
23 -1.59928500 0.00000400 0.00001600 0.02557400 -0.03449400 0.91320200
24 5.51181500 0.00000800 -0.00000100 2.10370077 -0.09267336 3.10418229
25 0.19684700 -0.00000100 0.00000300 2.79340677 -0.00116505 -3.14126810
26 2.53848600 -13.69475700 -1.63169900 1.97586200 1.15990900 1.84280300
27 6.21448500 0.00000600 0.00002000 -0.88664619 0.80001007 -1.72293133
28 11.94488500 -0.00002900 -0.00019400 -0.16035714 -0.35501548 -1.42851027
29 10.62016600 0.00000200 0.00001000 -2.98994852 -0.15198945 0.67528217
30 4.75115600 0.69437600 -0.83047300 -0.00402900 -0.10904900 0.38691600
31 1.68806500 -0.00002600 0.00000200 -0.00432100 -0.02432800 1.61481100
32 1.33615100 -0.00005100 -0.00000900 0.00924200 -0.03762600 0.12943000
33 4.82051300 0.50934000 0.22486500 -0.20590800 -0.00932300 0.86451500
34 1.82699600 0.00006600 0.00000800 0.01614600 0.03712600 1.68280400
35 1.43657700 -0.00001000 0.00000700 0.01515000 0.00045200 -0.75718600
36 3.99235300 0.89108700 1.82799400 -0.42620000 0.27844800 1.39074000
37 1.40591800 0.00002100 -0.00000700 -0.01231800 -0.02677000 1.30554600
38 1.17536900 -0.00013100 0.00000200 -0.09551900 0.07798600 -0.93359900
39 4.52675600 0.69046000 1.12084200 -0.35863200 0.11631600 1.17997500
40 1.74404100 -0.00003100 -0.00000200 -0.02749900 -0.01076800 1.60922000
41 1.36876300 -0.00003100 -0.00001700 -0.12957300 0.09181900 -1.14340300
42 1.80926700 0.89529400 -1.12011000 1.88461400 0.36803000 0.40774200
43 1.49513800 -0.24140500 0.04487600 0.00360000 -0.23414300 0.03443400
44 1.57424500 -0.10445300 0.03324200 0.03981700 0.07342300 -0.24671300
45 5.51180600 -0.00000200 0.00000600 -1.22958000 0.00000000 0.00000000
46 0.19685000 0.00000300 -0.00000200 -0.34822500 0.00001500 -0.00000200
47 0.00000000 1.00000000 0.00000000 0.00000000 0.00000000 -1.57079600
48 -3.18096000 33.22035600 -3.27546900 0.00000000 0.00000000 -3.14156200
49 -7.19276443 49.70667714 -2.25192207 0.23210280 -0.08779729 -0.93919950
50 10.32273500 1.03200500 -4.47404000 0.49059400 1.12092400 1.98870900
51 3.73549700 0.00125700 -1.32376300 0.00000000 0.00000000 0.00000000
52 4.80553000 0.89926700 -0.32590700 0.00000000 0.00000000 0.00000000
53 -1.55556500 -0.00054600 0.65577800 0.00000000 0.00000000 0.00000000
54 -17.55704100 -0.07892100 -2.36514300 0.00000000 0.00000000 0.00000000
55 1.59894600 -0.03355100 -0.60974000 0.00000000 0.00000000 0.00000000
56 1.35182600 0.00000000 -0.67877500 0.00000000 0.00000000 0.00000000
57 -14.97013500 -0.07892100 -1.81620400 0.00000000 0.00000000 0.00000000
58 -1.56441500 0.00000000 0.00000000 0.00000000 0.00000000 0.00000000
59 -12.01197200 0.40999300 -1.95628300 0.00000000 -0.65622100 0.00000000
60 -13.22667100 -1.31173800 -0.24158000 0.00000000 0.00000000 0.00000000
61 -10.22775200 -0.06714000 -2.05487500 0.00000000 0.00000000 0.00000000
62 -17.41236500 0.31651300 -0.95933400 0.00000000 0.00000000 0.00000000
63 -3.72439400 -2.13677900 -2.09378300 3.09200100 1.15353800 -2.39145700
64 -0.00066900 -0.00054600 -1.33911600 0.00000000 0.00000000 0.00000000
65 0.04766100 0.00000000 0.67144200 0.00000000 0.00000000 0.00000000
time 7
0 -0.00000100 8.45008800 -27.50902600 0.00000000 0.00000000 0.00003100
1 -0.00000200 0.00000000 0.00000000 1.57074300 -1.56713700 -1.57074300
2 4.25546800 -0.33518300 -0.00000200 0.00000000 0.00000000 -0.12484800
3 7.43124800 1.49647700 0.00000200 0.00000000 0.00000000 0.24545000
4 5.27847900 0.16554100 0.00000100 0.00000000 0.00000000 0.04851100
5 3.68593431 -4.88297164 -1.30409470 1.97586400 1.15990900 -1.29878600
6 -6.21448200 -0.00000700 -0.00002700 -3.13620759 -0.51196377 1.79009729
7 11.94488200 0.00000000 0.00000100 -0.31705995 -0.37209803 1.43759232
8 10.62018100 0.00000200 0.00000000 0.58271375 -0.15869111 3.00704133
9 -4.75110600 -0.69449400 0.83057700 -0.13822700 -0.15282100 0.18761000
10 -1.68806800 0.00004600 -0.00003200 0.02141900 -0.01231500 0.38900200
11 -1.33614000 0.00005700 -0.00001200 0.02584200 0.00517300 0.35617200
12 -4.82049400 -0.50946000 -0.22475900 -0.34140000 -0.06545200 1.04871000
13 -1.82699200 -0.00006400 0.00000600 0.01748100 0.03646500 1.72004300
14 -1.43657300 0.00000600 0.00000200 -0.02382900 -0.07399300 0.22023700
15 -3.99235500 -0.89118800 -1.82790900 -0.59999900 0.19887300 1.32587600
16 -1.40591800 -0.00002500 -0.00000300 -0.01642200 -0.02447400 1.46410200
17 -1.17535800 0.00012800 -0.00002000 0.02747700 0.06211700 0.32120800
18 -4.52675100 -0.69057500 -1.12074400 -0.42612300 0.11490200 1.26431800
19 -1.74403800 0.00003300 -0.00000800 -0.02836300 -0.00827500 1.69883200
20 -1.36877100 0.00002500 0.00000200 0.01196900 0.05106200 0.12629600
21 -2.03839800 -0.89278700 0.93250400 2.31093700 0.31633100 0.79560400
22 -1.62789300 0.15474800 0.01182500 -0.13461700 0.15578500 0.35407600
23 -1.59928500 0.00000400 0.00001600 0.02557400 -0.03449400 0.91320200
24 5.51181500 0.00000800 -0.00000100 2.10370077 -0.09267336 3.10418229
25 0.19684700 -0.00000100 0.00000300 2.79340677 -0.00116505 -3.14126810
26 2.53848600 -13.69475700 -1.63169900 1.97586200 1.15990900 1.84280300
27 6.21448500 0.00000600 0.00002000 -0.88073886 0.80235615 -1.67820549
28 11.94488500 -0.00002900 -0.00019400 -0.15708315 -0.36234418 -1.43835002
29 10.62016600 0.00000200 0.00001000 -2.96881708 -0.13857995 0.67410614
30 4.75115600 0.69437600 -0.83047300 -0.00402900 -0.10904900 0.38691600
31 1.68806500 -0.00002600 0.00000200 -0.00432100 -0.02432800 1.61481100
32 1.33615100 -0.00005100 -0.00000900 0.00924200 -0.03762600 0.12943000
33 4.82051300 0.50934000 0.22486500 -0.20590800 -0.00932300 0.86451500
34 1.82699600 0.00006600 0.00000800 0.01614600 0.03712600 1.68280400
35 1.43657700 -0.00001000 0.00000700 0.01515000 0.00045200 -0.75718600
36 3.99235300 0.89108700 1.82799400 -0.42620000 0.27844800 1.39074000
37 1.40591800 0.00002100 -0.00000700 -0.01231800 -0.02677000 1.30554600
38 1.17536900 -0.00013100 0.00000200 -0.09551900 0.07798600 -0.93359900
39 4.52675600 0.69046000 1.12084200 -0.35863200 0.11631600 1.17997500
40 1.74404100 -0.00003100 -0.00000200 -0.02749900 -0.01076800 1.60922000
41 1.36876300 -0.00003100 -0.00001700 -0.12957300 0.09181900 -1.14340300
42 1.80926700 0.89529400 -1.12011000 1.88461400 0.36803000 0.40774200
43 1.49513800 -0.24140500 0.04487600 0.00360000 -0.23414300 0.03443400
44 1.57424500 -0.10445300 0.03324200 0.03981700 0.07342300 -0.24671300
45 5.51180600 -0.00000200 0.00000600 -1.22958000 0.00000000 0.00000000
46 0.19685000 0.00000300 -0.00000200 -0.34822500 0.00001500 -0.00000200
47 0.00000000 1.00000000 0.00000000 0.00000000 0.00000000 -1.57079600
48 -3.18096000 33.22035600 -3.27546900 0.00000000 0.00000000 -3.14156200
49 -7.82210499 49.71543298 -2.39021512 0.21787307 -0.07730286 -0.90737093
50 10.32273500 1.03200500 -4.47404000 0.49059400 1.12092400 1.98870900
51 3.73549700 0.00125700 -1.32376300 0.00000000 0.00000000 0.00000000
52 4.80553000 0.89926700 -0.32590700 0.00000000 0.00000000 0.00000000
53 -1.55556500 -0.00054600 0.65577800 0.00000000 0.00000000 0.00000000
54 -17.55704100 -0.07892100 -2.36514300 0.00000000 0.00000000 0.00000000
55 1.59894600 -0.03355100 -0.60974000 0.00000000 0.00000000 0.00000000
56 1.35182600 0.00000000 -0.67877500 0.00000000 0.00000000 0.00000000
57 -14.97013500 -0.07892100 -1.81620400 0.00000000 0.00000000 0.00000000
58 -1.56441500 0.00000000 0.00000000 0.00000000 0.00000000 0.00000000
59 -12.01197200 0.40999300 -1.95628300 0.00000000 -0.65622100 0.00000000
60 -13.22667100 -1.31173800 -0.24158000 0.00000000 0.00000000 0.00000000
61 -10.22775200 -0.06714000 -2.05487500 0.00000000 0.00000000 0.00000000
62 -17.41236500 0.31651300 -0.95933400 0.00000000 0.00000000 0.00000000
63 -3.72439400 -2.13677900 -2.09378300 3.09200100 1.15353800 -2.39145700
64 -0.00066900 -0.00054600 -1.33911600 0.00000000 0.00000000 0.00000000
65 0.04766100 0.00000000 0.67144200 0.00000000 0.00000000 0.00000000
time 8
0 -0.00000100 8.45008800 -27.50902600 0.00000000 0.00000000 0.00003100
1 -0.00000200 0.00000000 0.00000000 1.57074300 -1.56713700 -1.57074300
2 4.25546800 -0.33518300 -0.00000200 0.00000000 0.00000000 -0.12484800
3 7.43124800 1.49647700 0.00000200 0.00000000 0.00000000 0.24545000
4 5.27847900 0.16554100 0.00000100 0.00000000 0.00000000 0.04851100
5 3.57949552 -5.04680189 -1.15216771 1.97586400 1.15990900 -1.29878600
6 -6.21448200 -0.00000700 -0.00002700 -3.13449483 -0.51454965 1.76197059
7 11.94488200 0.00000000 0.00000100 -0.32501489 -0.37588977 1.46067460
8 10.62018100 0.00000200 0.00000000 0.55927294 -0.19695675 2.96009569
9 -4.75110600 -0.69449400 0.83057700 -0.13822700 -0.15282100 0.18761000
10 -1.68806800 0.00004600 -0.00003200 0.02141900 -0.01231500 0.38900200
11 -1.33614000 0.00005700 -0.00001200 0.02584200 0.00517300 0.35617200
12 -4.82049400 -0.50946000 -0.22475900 -0.34140000 -0.06545200 1.04871000
13 -1.82699200 -0.00006400 0.00000600 0.01748100 0.03646500 1.72004300
14 -1.43657300 0.00000600 0.00000200 -0.02382900 -0.07399300 0.22023700
15 -3.99235500 -0.89118800 -1.82790900 -0.59999900 0.19887300 1.32587600
16 -1.40591800 -0.00002500 -0.00000300 -0.01642200 -0.02447400 1.46410200
17 -1.17535800 0.00012800 -0.00002000 0.02747700 0.06211700 0.32120800
18 -4.52675100 -0.69057500 -1.12074400 -0.42612300 0.11490200 1.26431800
19 -1.74403800 0.00003300 -0.00000800 -0.02836300 -0.00827500 1.69883200
20 -1.36877100 0.00002500 0.00000200 0.01196900 0.05106200 0.12629600
21 -2.03839800 -0.89278700 0.93250485 2.31093700 0.31633100 0.79560400
22 -1.62789215 0.15474885 0.01182500 -0.13461700 0.15578500 0.35407600
23 -1.59928500 0.00000400 0.00001600 0.02557400 -0.03449400 0.91320200
24 5.51181500 0.00000800 -0.00000100 2.10370077 -0.09267336 3.10418229
25 0.19684700 -0.00000100 0.00000300 2.79340677 -0.00116505 -3.14126810
26 2.53848600 -13.69475700 -1.63169900 1.97586200 1.15990900 1.84280300
27 6.21448500 0.00000600 0.00002000 -0.87718279 0.81579765 -1.64363144
28 11.94488500 -0.00002900 -0.00019400 -0.15061497 -0.37022631 -1.45767359
29 10.62016600 0.00000200 0.00001000 -2.95211734 -0.12437055 0.71755725
30 4.75115600 0.69437600 -0.83047300 -0.00402900 -0.10904900 0.38691600
31 1.68806500 -0.00002600 0.00000200 -0.00432100 -0.02432800 1.61481100
32 1.33615100 -0.00005100 -0.00000900 0.00924200 -0.03762600 0.12943000
33 4.82051300 0.50934000 0.22486500 -0.20590800 -0.00932300 0.86451500
34 1.82699600 0.00006600 0.00000800 0.01614600 0.03712600 1.68280400
35 1.43657700 -0.00001000 0.00000700 0.01515000 0.00045200 -0.75718600
36 3.99235300 0.89108700 1.82799400 -0.42620000 0.27844800 1.39074000
37 1.40591800 0.00002100 -0.00000700 -0.01231800 -0.02677000 1.30554600
38 1.17536900 -0.00013100 0.00000200 -0.09551900 0.07798600 -0.93359900
39 4.52675600 0.69046000 1.12084200 -0.35863200 0.11631600 1.17997500
40 1.74404100 -0.00003100 -0.00000200 -0.02749900 -0.01076800 1.60922000
41 1.36876300 -0.00003100 -0.00001700 -0.12957300 0.09181900 -1.14340300
42 1.80927207 0.89529315 -1.12011085 1.88461400 0.36803000 0.40774200
43 1.49513715 -0.24140500 0.04488023 0.00360000 -0.23414300 0.03443400
44 1.57424838 -0.10445300 0.03324200 0.03981700 0.07342300 -0.24671300
45 5.51180600 -0.00000200 0.00000600 -1.22958000 0.00000000 0.00000000
46 0.19685000 0.00000300 -0.00000200 -0.34822500 0.00001500 -0.00000200
47 0.00000000 1.00000000 0.00000000 0.00000000 0.00000000 -1.57079600
48 -3.18096000 33.22035600 -3.27546900 0.00000000 0.00000000 -3.14156200
49 -8.30955136 49.71368650 -2.50535203 0.18225541 -0.10609060 -0.88637878
50 10.32273500 1.03200331 -4.47403915 0.49059400 1.12092400 1.98870900
51 3.73549700 0.00125700 -1.32376300 0.00000000 0.00000000 0.00000000
52 4.80553000 0.89926700 -0.32590700 0.00000000 0.00000000 0.00000000
53 -1.55556500 -0.00054600 0.65577800 0.00000000 0.00000000 0.00000000
54 -17.55704100 -0.07892100 -2.36514300 0.00000000 0.00000000 0.00000000
55 1.59894600 -0.03355100 -0.60974000 0.00000000 0.00000000 0.00000000
56 1.35182600 0.00000000 -0.67877500 0.00000000 0.00000000 0.00000000
57 -14.97013500 -0.07892100 -1.81620400 0.00000000 0.00000000 0.00000000
58 -1.56441500 0.00000000 0.00000000 0.00000000 0.00000000 0.00000000
59 -12.01197200 0.40999300 -1.95628300 0.00000000 -0.65622100 0.00000000
60 -13.22667100 -1.31173800 -0.24158000 0.00000000 0.00000000 0.00000000
61 -10.22775454 -0.06713915 -2.05487500 0.00000000 0.00000000 0.00000000
62 -17.41236500 0.31651300 -0.95933400 0.00000000 0.00000000 0.00000000
63 -3.72439400 -2.13677900 -2.09378300 3.09200100 1.15353800 -2.39145700
64 -0.00066900 -0.00054600 -1.33911600 0.00000000 0.00000000 0.00000000
65 0.04766100 0.00000000 0.67144200 0.00000000 0.00000000 0.00000000
time 9
0 -0.00000100 8.45008800 -27.50902600 0.00000000 0.00000000 0.00003100
1 -0.00000200 0.00000000 0.00000000 1.57074300 -1.56713700 -1.57074300
2 4.25546800 -0.33518300 -0.00000200 0.00000000 0.00000000 -0.12484800
3 7.43124800 1.49647700 0.00000200 0.00000000 0.00000000 0.24545000
4 5.27847900 0.16554100 0.00000100 0.00000000 0.00000000 0.04851100
5 3.48570350 -5.19116652 -1.01829137 1.97586400 1.15990900 -1.29878600
6 -6.21448200 -0.00000700 -0.00002700 -3.12454211 -0.51402540 1.74493592
7 11.94488200 0.00000000 0.00000100 -0.33449501 -0.37871641 1.48791364
8 10.62018100 0.00000200 0.00000000 0.54947454 -0.25084314 2.91618456
9 -4.75110600 -0.69449400 0.83057700 -0.13822700 -0.15282100 0.18761000
10 -1.68806800 0.00004600 -0.00003200 0.02141900 -0.01231500 0.38900200
11 -1.33614000 0.00005700 -0.00001200 0.02584200 0.00517300 0.35617200
12 -4.82049400 -0.50946000 -0.22475900 -0.34140000 -0.06545200 1.04871000
13 -1.82699200 -0.00006400 0.00000600 0.01748100 0.03646500 1.72004300
14 -1.43657300 0.00000600 0.00000200 -0.02382900 -0.07399300 0.22023700
15 -3.99235500 -0.89118800 -1.82790900 -0.59999900 0.19887300 1.32587600
16 -1.40591800 -0.00002500 -0.00000300 -0.01642200 -0.02447400 1.46410200
17 -1.17535800 0.00012800 -0.00002000 0.02747700 0.06211700 0.32120800
18 -4.52675100 -0.69057500 -1.12074400 -0.42612300 0.11490200 1.26431800
19 -1.74403800 0.00003300 -0.00000800 -0.02836300 -0.00827500 1.69883200
20 -1.36877100 0.00002500 0.00000200 0.01196900 0.05106200 0.12629600
21 -2.03839800 -0.89278700 0.93250485 2.31093700 0.31633100 0.79560400
22 -1.62789215 0.15474885 0.01182500 -0.13461700 0.15578500 0.35407600
23 -1.59928500 0.00000400 0.00001600 0.02557400 -0.03449400 0.91320200
24 5.51181500 0.00000800 -0.00000100 2.10370077 -0.09267336 3.10418229
25 0.19684700 -0.00000100 0.00000300 2.79340677 -0.00116505 -3.14126810
26 2.53848600 -13.69475700 -1.63169900 1.97586200 1.15990900 1.84280300
27 6.21448500 0.00000600 0.00002000 -0.87937630 0.83439698 -1.62802095
28 11.94488500 -0.00002900 -0.00019400 -0.14523612 -0.37706386 -1.47393479
29 10.62016600 0.00000200 0.00001000 -2.94489484 -0.11943648 0.75554385
30 4.75115600 0.69437600 -0.83047300 -0.00402900 -0.10904900 0.38691600
31 1.68806500 -0.00002600 0.00000200 -0.00432100 -0.02432800 1.61481100
32 1.33615100 -0.00005100 -0.00000900 0.00924200 -0.03762600 0.12943000
33 4.82051300 0.50934000 0.22486500 -0.20590800 -0.00932300 0.86451500
34 1.82699600 0.00006600 0.00000800 0.01614600 0.03712600 1.68280400
35 1.43657700 -0.00001000 0.00000700 0.01515000 0.00045200 -0.75718600
36 3.99235300 0.89108700 1.82799400 -0.42620000 0.27844800 1.39074000
37 1.40591800 0.00002100 -0.00000700 -0.01231800 -0.02677000 1.30554600
38 1.17536900 -0.00013100 0.00000200 -0.09551900 0.07798600 -0.93359900
39 4.52675600 0.69046000 1.12084200 -0.35863200 0.11631600 1.17997500
40 1.74404100 -0.00003100 -0.00000200 -0.02749900 -0.01076800 1.60922000
41 1.36876300 -0.00003100 -0.00001700 -0.12957300 0.09181900 -1.14340300
42 1.80927207 0.89529315 -1.12011085 1.88461400 0.36803000 0.40774200
43 1.49513715 -0.24140500 0.04488023 0.00360000 -0.23414300 0.03443400
44 1.57424838 -0.10445300 0.03324200 0.03981700 0.07342300 -0.24671300
45 5.51180600 -0.00000200 0.00000600 -1.22958000 0.00000000 0.00000000
46 0.19685000 0.00000300 -0.00000200 -0.34822500 0.00001500 -0.00000200
47 0.00000000 1.00000000 0.00000000 0.00000000 0.00000000 -1.57079600
48 -3.18096000 33.22035600 -3.27546900 0.00000000 0.00000000 -3.14156200
49 -8.57314092 49.70907967 -2.63180817 0.15872384 -0.14196201 -0.87256109
50 10.32273500 1.03200331 -4.47403915 0.49059400 1.12092400 1.98870900
51 3.73549700 0.00125700 -1.32376300 0.00000000 0.00000000 0.00000000
52 4.80553000 0.89926700 -0.32590700 0.00000000 0.00000000 0.00000000
53 -1.55556500 -0.00054600 0.65577800 0.00000000 0.00000000 0.00000000
54 -17.55704100 -0.07892100 -2.36514300 0.00000000 0.00000000 0.00000000
55 1.59894600 -0.03355100 -0.60974000 0.00000000 0.00000000 0.00000000
56 1.35182600 0.00000000 -0.67877500 0.00000000 0.00000000 0.00000000
57 -14.97013500 -0.07892100 -1.81620400 0.00000000 0.00000000 0.00000000
58 -1.56441500 0.00000000 0.00000000 0.00000000 0.00000000 0.00000000
59 -12.01197200 0.40999300 -1.95628300 0.00000000 -0.65622100 0.00000000
60 -13.22667100 -1.31173800 -0.24158000 0.00000000 0.00000000 0.00000000
61 -10.22775454 -0.06713915 -2.05487500 0.00000000 0.00000000 0.00000000
62 -17.41236500 0.31651300 -0.95933400 0.00000000 0.00000000 0.00000000
63 -3.72439400 -2.13677900 -2.09378300 3.09200100 1.15353800 -2.39145700
64 -0.00066900 -0.00054600 -1.33911600 0.00000000 0.00000000 0.00000000
65 0.04766100 0.00000000 0.67144200 0.00000000 0.00000000 0.00000000
time 10
0 -0.00000100 8.45008800 -27.50902600 0.00000000 0.00000000 0.00003100
1 -0.00000200 0.00000000 0.00000000 1.57074300 -1.56713700 -1.57074300
2 4.25546800 -0.33518300 -0.00000200 0.00000000 0.00000000 -0.12484800
3 7.43124800 1.49647700 0.00000200 0.00000000 0.00000000 0.24545000
4 5.27847900 0.16554100 0.00000100 0.00000000 0.00000000 0.04851100
5 3.41088057 -5.30633400 -0.91149131 1.97586400 1.15990900 -1.29878600
6 -6.21448200 -0.00000700 -0.00002700 -3.12818923 -0.51885348 1.75674123
7 11.94488200 0.00000000 0.00000100 -0.33980769 -0.38078621 1.50288338
8 10.62018100 0.00000200 0.00000000 0.55221053 -0.26200003 2.91765679
9 -4.75110600 -0.69449400 0.83057700 -0.13822700 -0.15282100 0.18761000
10 -1.68806800 0.00004600 -0.00003200 0.02141900 -0.01231500 0.38900200
11 -1.33614000 0.00005700 -0.00001200 0.02584200 0.00517300 0.35617200
12 -4.82049400 -0.50946000 -0.22475900 -0.34140000 -0.06545200 1.04871000
13 -1.82699200 -0.00006400 0.00000600 0.01748100 0.03646500 1.72004300
14 -1.43657300 0.00000600 0.00000200 -0.02382900 -0.07399300 0.22023700
15 -3.99235500 -0.89118800 -1.82790900 -0.59999900 0.19887300 1.32587600
16 -1.40591800 -0.00002500 -0.00000300 -0.01642200 -0.02447400 1.46410200
17 -1.17535800 0.00012800 -0.00002000 0.02747700 0.06211700 0.32120800
18 -4.52675100 -0.69057500 -1.12074400 -0.42612300 0.11490200 1.26431800
19 -1.74403800 0.00003300 -0.00000800 -0.02836300 -0.00827500 1.69883200
20 -1.36877100 0.00002500 0.00000200 0.01196900 0.05106200 0.12629600
21 -2.03839800 -0.89278700 0.93250485 2.31093700 0.31633100 0.79560400
22 -1.62789215 0.15474885 0.01182500 -0.13461700 0.15578500 0.35407600
23 -1.59928500 0.00000400 0.00001600 0.02557400 -0.03449400 0.91320200
24 5.51181500 0.00000800 -0.00000100 2.10370077 -0.09267336 3.10418229
25 0.19684700 -0.00000100 0.00000300 2.79340677 -0.00116505 -3.14126810
26 2.53848600 -13.69475700 -1.63169900 1.97586200 1.15990900 1.84280300
27 6.21448500 0.00000600 0.00002000 -0.87775075 0.84821976 -1.63673053
28 11.94488500 -0.00002900 -0.00019400 -0.14412864 -0.38172462 -1.47746391
29 10.62016600 0.00000200 0.00001000 -2.94596214 -0.13305545 0.75041048
30 4.75115600 0.69437600 -0.83047300 -0.00402900 -0.10904900 0.38691600
31 1.68806500 -0.00002600 0.00000200 -0.00432100 -0.02432800 1.61481100
32 1.33615100 -0.00005100 -0.00000900 0.00924200 -0.03762600 0.12943000
33 4.82051300 0.50934000 0.22486500 -0.20590800 -0.00932300 0.86451500
34 1.82699600 0.00006600 0.00000800 0.01614600 0.03712600 1.68280400
35 1.43657700 -0.00001000 0.00000700 0.01515000 0.00045200 -0.75718600
36 3.99235300 0.89108700 1.82799400 -0.42620000 0.27844800 1.39074000
37 1.40591800 0.00002100 -0.00000700 -0.01231800 -0.02677000 1.30554600
38 1.17536900 -0.00013100 0.00000200 -0.09551900 0.07798600 -0.93359900
39 4.52675600 0.69046000 1.12084200 -0.35863200 0.11631600 1.17997500
40 1.74404100 -0.00003100 -0.00000200 -0.02749900 -0.01076800 1.60922000
41 1.36876300 -0.00003100 -0.00001700 -0.12957300 0.09181900 -1.14340300
42 1.80927207 0.89529315 -1.12011085 1.88461400 0.36803000 0.40774200
43 1.49513715 -0.24140500 0.04488023 0.00360000 -0.23414300 0.03443400
44 1.57424838 -0.10445300 0.03324200 0.03981700 0.07342300 -0.24671300
45 5.51180600 -0.00000200 0.00000600 -1.22958000 0.00000000 0.00000000
46 0.19685000 0.00000300 -0.00000200 -0.34822500 0.00001500 -0.00000200
47 0.00000000 1.00000000 0.00000000 0.00000000 0.00000000 -1.57079600
48 -3.18096000 33.22035600 -3.27546900 0.00000000 0.00000000 -3.14156200
49 -8.41887006 49.70256685 -2.77569918 0.16043095 -0.14765097 -0.86789200
50 10.32273500 1.03200331 -4.47403915 0.49059400 1.12092400 1.98870900
51 3.73549700 0.00125700 -1.32376300 0.00000000 0.00000000 0.00000000
52 4.80553000 0.89926700 -0.32590700 0.00000000 0.00000000 0.00000000
53 -1.55556500 -0.00054600 0.65577800 0.00000000 0.00000000 0.00000000
54 -17.55704100 -0.07892100 -2.36514300 0.00000000 0.00000000 0.00000000
55 1.59894600 -0.03355100 -0.60974000 0.00000000 0.00000000 0.00000000
56 1.35182600 0.00000000 -0.67877500 0.00000000 0.00000000 0.00000000
57 -14.97013500 -0.07892100 -1.81620400 0.00000000 0.00000000 0.00000000
58 -1.56441500 0.00000000 0.00000000 0.00000000 0.00000000 0.00000000
59 -12.01197200 0.40999300 -1.95628300 0.00000000 -0.65622100 0.00000000
60 -13.22667100 -1.31173800 -0.24158000 0.00000000 0.00000000 0.00000000
61 -10.22775454 -0.06713915 -2.05487500 0.00000000 0.00000000 0.00000000
62 -17.41236500 0.31651300 -0.95933400 0.00000000 0.00000000 0.00000000
63 -3.72439400 -2.13677900 -2.09378300 3.09200100 1.15353800 -2.39145700
64 -0.00066900 -0.00054600 -1.33911600 0.00000000 0.00000000 0.00000000
65 0.04766100 0.00000000 0.67144200 0.00000000 0.00000000 0.00000000
time 11
0 -0.00000100 8.45008800 -27.50902600 0.00000000 0.00000000 0.00003100
1 -0.00000200 0.00000000 0.00000000 1.57074300 -1.56713700 -1.57074300
2 4.25546800 -0.33518300 -0.00000200 0.00000000 0.00000000 -0.12484800
3 7.43124800 1.49647700 0.00000200 0.00000000 0.00000000 0.24545000
4 5.27847900 0.16554100 0.00000100 0.00000000 0.00000000 0.04851100
5 3.36134949 -5.38257191 -0.84079271 1.97586400 1.15990900 -1.29878600
6 -6.21448200 -0.00000700 -0.00002700 -3.13065523 -0.52548303 1.78379603
7 11.94488200 0.00000000 0.00000100 -0.34918321 -0.38089354 1.53018248
8 10.62018100 0.00000200 0.00000000 0.56211612 -0.26785961 2.91054781
9 -4.75110600 -0.69449400 0.83057700 -0.13822700 -0.15282100 0.18761000
10 -1.68806800 0.00004600 -0.00003200 0.02141900 -0.01231500 0.38900200
11 -1.33614000 0.00005700 -0.00001200 0.02584200 0.00517300 0.35617200
12 -4.82049400 -0.50946000 -0.22475900 -0.34140000 -0.06545200 1.04871000
13 -1.82699200 -0.00006400 0.00000600 0.01748100 0.03646500 1.72004300
14 -1.43657300 0.00000600 0.00000200 -0.02382900 -0.07399300 0.22023700
15 -3.99235500 -0.89118800 -1.82790900 -0.59999900 0.19887300 1.32587600
16 -1.40591800 -0.00002500 -0.00000300 -0.01642200 -0.02447400 1.46410200
17 -1.17535800 0.00012800 -0.00002000 0.02747700 0.06211700 0.32120800
18 -4.52675100 -0.69057500 -1.12074400 -0.42612300 0.11490200 1.26431800
19 -1.74403800 0.00003300 -0.00000800 -0.02836300 -0.00827500 1.69883200
20 -1.36877100 0.00002500 0.00000200 0.01196900 0.05106200 0.12629600
21 -2.03839800 -0.89278700 0.93250485 2.31093700 0.31633100 0.79560400
22 -1.62789215 0.15474885 0.01182500 -0.13461700 0.15578500 0.35407600
23 -1.59928500 0.00000400 0.00001600 0.02557400 -0.03449400 0.91320200
24 5.51181500 0.00000800 -0.00000100 2.10370077 -0.09267336 3.10418229
25 0.19684700 -0.00000100 0.00000300 2.79340677 -0.00116505 -3.14126810
26 2.53848600 -13.69475700 -1.63169900 1.97586200 1.15990900 1.84280300
27 6.21448500 0.00000600 0.00002000 -0.87999766 0.85618656 -1.66564057
28 11.94488500 -0.00002900 -0.00019400 -0.14517283 -0.38396424 -1.47457397
29 10.62016600 0.00000200 0.00001000 -2.94720885 -0.14750065 0.74087004
30 4.75115600 0.69437600 -0.83047300 -0.00402900 -0.10904900 0.38691600
31 1.68806500 -0.00002600 0.00000200 -0.00432100 -0.02432800 1.61481100
32 1.33615100 -0.00005100 -0.00000900 0.00924200 -0.03762600 0.12943000
33 4.82051300 0.50934000 0.22486500 -0.20590800 -0.00932300 0.86451500
34 1.82699600 0.00006600 0.00000800 0.01614600 0.03712600 1.68280400
35 1.43657700 -0.00001000 0.00000700 0.01515000 0.00045200 -0.75718600
36 3.99235300 0.89108700 1.82799400 -0.42620000 0.27844800 1.39074000
37 1.40591800 0.00002100 -0.00000700 -0.01231800 -0.02677000 1.30554600
38 1.17536900 -0.00013100 0.00000200 -0.09551900 0.07798600 -0.93359900
39 4.52675600 0.69046000 1.12084200 -0.35863200 0.11631600 1.17997500
40 1.74404100 -0.00003100 -0.00000200 -0.02749900 -0.01076800 1.60922000
41 1.36876300 -0.00003100 -0.00001700 -0.12957300 0.09181900 -1.14340300
42 1.80927207 0.89529315 -1.12011085 1.88461400 0.36803000 0.40774200
43 1.49513715 -0.24140500 0.04488023 0.00360000 -0.23414300 0.03443400
44 1.57424838 -0.10445300 0.03324200 0.03981700 0.07342300 -0.24671300
45 5.51180600 -0.00000200 0.00000600 -1.22958000 0.00000000 0.00000000
46 0.19685000 0.00000300 -0.00000200 -0.34822500 0.00001500 -0.00000200
47 0.00000000 1.00000000 0.00000000 0.00000000 0.00000000 -1.57079600
48 -3.18096000 33.22035600 -3.27546900 0.00000000 0.00000000 -3.14156200
49 -8.00400375 49.69510136 -2.83889842 0.16556869 -0.14707515 -0.87979767
50 10.32273500 1.03200331 -4.47403915 0.49059400 1.12092400 1.98870900
51 3.73549700 0.00125700 -1.32376300 0.00000000 0.00000000 0.00000000
52 4.80553000 0.89926700 -0.32590700 0.00000000 0.00000000 0.00000000
53 -1.55556500 -0.00054600 0.65577800 0.00000000 0.00000000 0.00000000
54 -17.55704100 -0.07892100 -2.36514300 0.00000000 0.00000000 0.00000000
55 1.59894600 -0.03355100 -0.60974000 0.00000000 0.00000000 0.00000000
56 1.35182600 0.00000000 -0.67877500 0.00000000 0.00000000 0.00000000
57 -14.97013500 -0.07892100 -1.81620400 0.00000000 0.00000000 0.00000000
58 -1.56441500 0.00000000 0.00000000 0.00000000 0.00000000 0.00000000
59 -12.01197200 0.40999300 -1.95628300 0.00000000 -0.65622100 0.00000000
60 -13.22667100 -1.31173800 -0.24158000 0.00000000 0.00000000 0.00000000
61 -10.22775454 -0.06713915 -2.05487500 0.00000000 0.00000000 0.00000000
62 -17.41236500 0.31651300 -0.95933400 0.00000000 0.00000000 0.00000000
63 -3.72439400 -2.13677900 -2.09378300 3.09200100 1.15353800 -2.39145700
64 -0.00066900 -0.00054600 -1.33911600 0.00000000 0.00000000 0.00000000
65 0.04766100 0.00000000 0.67144200 0.00000000 0.00000000 0.00000000
time 12
0 -0.00000100 8.45008800 -27.50902600 0.00000000 0.00000000 0.00003100
1 -0.00000200 0.00000000 0.00000000 1.57074300 -1.56713700 -1.57074300
2 4.25546800 -0.33518300 -0.00000200 0.00000000 0.00000000 -0.12484800
3 7.43124800 1.49647700 0.00000200 0.00000000 0.00000000 0.24545000
4 5.27847900 0.16554100 0.00000100 0.00000000 0.00000000 0.04851100
5 3.34343444 -5.41014721 -0.81522103 1.97586400 1.15990900 -1.29878600
6 -6.21448200 -0.00000700 -0.00002700 -3.11821182 -0.52754831 1.80017907
7 11.94488200 0.00000000 0.00000100 -0.35934648 -0.37798372 1.56016791
8 10.62018100 0.00000200 0.00000000 0.58317638 -0.27285087 2.88569004
9 -4.75110600 -0.69449400 0.83057700 -0.13822700 -0.15282100 0.18761000
10 -1.68806800 0.00004600 -0.00003200 0.02141900 -0.01231500 0.38900200
11 -1.33614000 0.00005700 -0.00001200 0.02584200 0.00517300 0.35617200
12 -4.82049400 -0.50946000 -0.22475900 -0.34140000 -0.06545200 1.04871000
13 -1.82699200 -0.00006400 0.00000600 0.01748100 0.03646500 1.72004300
14 -1.43657300 0.00000600 0.00000200 -0.02382900 -0.07399300 0.22023700
15 -3.99235500 -0.89118800 -1.82790900 -0.59999900 0.19887300 1.32587600
16 -1.40591800 -0.00002500 -0.00000300 -0.01642200 -0.02447400 1.46410200
17 -1.17535800 0.00012800 -0.00002000 0.02747700 0.06211700 0.32120800
18 -4.52675100 -0.69057500 -1.12074400 -0.42612300 0.11490200 1.26431800
19 -1.74403800 0.00003300 -0.00000800 -0.02836300 -0.00827500 1.69883200
20 -1.36877100 0.00002500 0.00000200 0.01196900 0.05106200 0.12629600
21 -2.03839800 -0.89278700 0.93250485 2.31093700 0.31633100 0.79560400
22 -1.62789215 0.15474885 0.01182500 -0.13461700 0.15578500 0.35407600
23 -1.59928500 0.00000400 0.00001600 0.02557400 -0.03449400 0.91320200
24 5.51181500 0.00000800 -0.00000100 2.10370077 -0.09267336 3.10418229
25 0.19684700 -0.00000100 0.00000300 2.79340677 -0.00116505 -3.14126810
26 2.53848600 -13.69475700 -1.63169900 1.97586200 1.15990900 1.84280300
27 6.21448500 0.00000600 0.00002000 -0.91291833 0.84687600 -1.71476439
28 11.94488500 -0.00002900 -0.00019400 -0.14804297 -0.38253465 -1.46593342
29 10.62016600 0.00000200 0.00001000 -2.93413385 -0.14870668 0.73640985
30 4.75115600 0.69437600 -0.83047300 -0.00402900 -0.10904900 0.38691600
31 1.68806500 -0.00002600 0.00000200 -0.00432100 -0.02432800 1.61481100
32 1.33615100 -0.00005100 -0.00000900 0.00924200 -0.03762600 0.12943000
33 4.82051300 0.50934000 0.22486500 -0.20590800 -0.00932300 0.86451500
34 1.82699600 0.00006600 0.00000800 0.01614600 0.03712600 1.68280400
35 1.43657700 -0.00001000 0.00000700 0.01515000 0.00045200 -0.75718600
36 3.99235300 0.89108700 1.82799400 -0.42620000 0.27844800 1.39074000
37 1.40591800 0.00002100 -0.00000700 -0.01231800 -0.02677000 1.30554600
38 1.17536900 -0.00013100 0.00000200 -0.09551900 0.07798600 -0.93359900
39 4.52675600 0.69046000 1.12084200 -0.35863200 0.11631600 1.17997500
40 1.74404100 -0.00003100 -0.00000200 -0.02749900 -0.01076800 1.60922000
41 1.36876300 -0.00003100 -0.00001700 -0.12957300 0.09181900 -1.14340300
42 1.80927207 0.89529315 -1.12011085 1.88461400 0.36803000 0.40774200
43 1.49513715 -0.24140500 0.04488023 0.00360000 -0.23414300 0.03443400
44 1.57424838 -0.10445300 0.03324200 0.03981700 0.07342300 -0.24671300
45 5.51180600 -0.00000200 0.00000600 -1.22958000 0.00000000 0.00000000
46 0.19685000 0.00000300 -0.00000200 -0.34822500 0.00001500 -0.00000200
47 0.00000000 1.00000000 0.00000000 0.00000000 0.00000000 -1.57079600
48 -3.18096000 33.22035600 -3.27546900 0.00000000 0.00000000 -3.14156200
49 -7.62550692 49.68763525 -2.62403602 0.17664992 -0.13917088 -0.90435047
50 10.32273500 1.03200331 -4.47403915 0.49059400 1.12092400 1.98870900
51 3.73549700 0.00125700 -1.32376300 0.00000000 0.00000000 0.00000000
52 4.80553000 0.89926700 -0.32590700 0.00000000 0.00000000 0.00000000
53 -1.55556500 -0.00054600 0.65577800 0.00000000 0.00000000 0.00000000
54 -17.55704100 -0.07892100 -2.36514300 0.00000000 0.00000000 0.00000000
55 1.59894600 -0.03355100 -0.60974000 0.00000000 0.00000000 0.00000000
56 1.35182600 0.00000000 -0.67877500 0.00000000 0.00000000 0.00000000
57 -14.97013500 -0.07892100 -1.81620400 0.00000000 0.00000000 0.00000000
58 -1.56441500 0.00000000 0.00000000 0.00000000 0.00000000 0.00000000
59 -12.01197200 0.40999300 -1.95628300 0.00000000 -0.65622100 0.00000000
60 -13.22667100 -1.31173800 -0.24158000 0.00000000 0.00000000 0.00000000
61 -10.22775454 -0.06713915 -2.05487500 0.00000000 0.00000000 0.00000000
62 -17.41236500 0.31651300 -0.95933400 0.00000000 0.00000000 0.00000000
63 -3.72439400 -2.13677900 -2.09378300 3.09200100 1.15353800 -2.39145700
64 -0.00066900 -0.00054600 -1.33911600 0.00000000 0.00000000 0.00000000
65 0.04766100 0.00000000 0.67144200 0.00000000 0.00000000 0.00000000
time 13
0 -0.00000100 8.45008800 -27.50902600 0.00000000 0.00000000 0.00003100
1 -0.00000200 0.00000000 0.00000000 1.57074300 -1.56713700 -1.57074300
2 4.25546800 -0.33518300 -0.00000200 0.00000000 0.00000000 -0.12484800
3 7.43124800 1.49647700 0.00000200 0.00000000 0.00000000 0.24545000
4 5.27847900 0.16554100 0.00000100 0.00000000 0.00000000 0.04851100
5 3.34343444 -5.41014721 -0.81522103 1.97586400 1.15990900 -1.29878600
6 -6.21448200 -0.00000700 -0.00002700 -3.09857894 -0.52704969 1.80852214
7 11.94488200 0.00000000 0.00000100 -0.36586443 -0.37489029 1.57965174
8 10.62018100 0.00000200 0.00000000 0.60486585 -0.26988329 2.86999124
9 -4.75110600 -0.69449400 0.83057700 -0.13822700 -0.15282100 0.18761000
10 -1.68806800 0.00004600 -0.00003200 0.02141900 -0.01231500 0.38900200
11 -1.33614000 0.00005700 -0.00001200 0.02584200 0.00517300 0.35617200
12 -4.82049400 -0.50946000 -0.22475900 -0.34140000 -0.06545200 1.04871000
13 -1.82699200 -0.00006400 0.00000600 0.01748100 0.03646500 1.72004300
14 -1.43657300 0.00000600 0.00000200 -0.02382900 -0.07399300 0.22023700
15 -3.99235500 -0.89118800 -1.82790900 -0.59999900 0.19887300 1.32587600
16 -1.40591800 -0.00002500 -0.00000300 -0.01642200 -0.02447400 1.46410200
17 -1.17535800 0.00012800 -0.00002000 0.02747700 0.06211700 0.32120800
18 -4.52675100 -0.69057500 -1.12074400 -0.42612300 0.11490200 1.26431800
19 -1.74403800 0.00003300 -0.00000800 -0.02836300 -0.00827500 1.69883200
20 -1.36877100 0.00002500 0.00000200 0.01196900 0.05106200 0.12629600
21 -2.03839800 -0.89278700 0.93250485 2.31093700 0.31633100 0.79560400
22 -1.62789215 0.15474885 0.01182500 -0.13461700 0.15578500 0.35407600
23 -1.59928500 0.00000400 0.00001600 0.02557400 -0.03449400 0.91320200
24 5.51181500 0.00000800 -0.00000100 2.10370077 -0.09267336 3.10418229
25 0.19684700 -0.00000100 0.00000300 2.79340677 -0.00116505 -3.14126810
26 2.53848600 -13.69475700 -1.63169900 1.97586200 1.15990900 1.84280300
27 6.21448500 0.00000600 0.00002000 -0.96621911 0.82469963 -1.77447791
28 11.94488500 -0.00002900 -0.00019400 -0.15177888 -0.37872094 -1.45458462
29 10.62016600 0.00000200 0.00001000 -2.90597485 -0.14772113 0.73123632
30 4.75115600 0.69437600 -0.83047300 -0.00402900 -0.10904900 0.38691600
31 1.68806500 -0.00002600 0.00000200 -0.00432100 -0.02432800 1.61481100
32 1.33615100 -0.00005100 -0.00000900 0.00924200 -0.03762600 0.12943000
33 4.82051300 0.50934000 0.22486500 -0.20590800 -0.00932300 0.86451500
34 1.82699600 0.00006600 0.00000800 0.01614600 0.03712600 1.68280400
35 1.43657700 -0.00001000 0.00000700 0.01515000 0.00045200 -0.75718600
36 3.99235300 0.89108700 1.82799400 -0.42620000 0.27844800 1.39074000
37 1.40591800 0.00002100 -0.00000700 -0.01231800 -0.02677000 1.30554600
38 1.17536900 -0.00013100 0.00000200 -0.09551900 0.07798600 -0.93359900
39 4.52675600 0.69046000 1.12084200 -0.35863200 0.11631600 1.17997500
40 1.74404100 -0.00003100 -0.00000200 -0.02749900 -0.01076800 1.60922000
41 1.36876300 -0.00003100 -0.00001700 -0.12957300 0.09181900 -1.14340300
42 1.80927207 0.89529315 -1.12011085 1.88461400 0.36803000 0.40774200
43 1.49513715 -0.24140500 0.04488023 0.00360000 -0.23414300 0.03443400
44 1.57424838 -0.10445300 0.03324200 0.03981700 0.07342300 -0.24671300
45 5.51180600 -0.00000200 0.00000600 -1.22958000 0.00000000 0.00000000
46 0.19685000 0.00000300 -0.00000200 -0.34822500 0.00001500 -0.00000200
47 0.00000000 1.00000000 0.00000000 0.00000000 0.00000000 -1.57079600
48 -3.18096000 33.22035600 -3.27546900 0.00000000 0.00000000 -3.14156200
49 -7.28399208 49.68112243 -2.23333851 0.19070005 -0.12012657 -0.92808933
50 10.32273500 1.03200331 -4.47403915 0.49059400 1.12092400 1.98870900
51 3.73549700 0.00125700 -1.32376300 0.00000000 0.00000000 0.00000000
52 4.80553000 0.89926700 -0.32590700 0.00000000 0.00000000 0.00000000
53 -1.55556500 -0.00054600 0.65577800 0.00000000 0.00000000 0.00000000
54 -17.55704100 -0.07892100 -2.36514300 0.00000000 0.00000000 0.00000000
55 1.59894600 -0.03355100 -0.60974000 0.00000000 0.00000000 0.00000000
56 1.35182600 0.00000000 -0.67877500 0.00000000 0.00000000 0.00000000
57 -14.97013500 -0.07892100 -1.81620400 0.00000000 0.00000000 0.00000000
58 -1.56441500 0.00000000 0.00000000 0.00000000 0.00000000 0.00000000
59 -12.01197200 0.40999300 -1.95628300 0.00000000 -0.65622100 0.00000000
60 -13.22667100 -1.31173800 -0.24158000 0.00000000 0.00000000 0.00000000
61 -10.22775454 -0.06713915 -2.05487500 0.00000000 0.00000000 0.00000000
62 -17.41236500 0.31651300 -0.95933400 0.00000000 0.00000000 0.00000000
63 -3.72439400 -2.13677900 -2.09378300 3.09200100 1.15353800 -2.39145700
64 -0.00066900 -0.00054600 -1.33911600 0.00000000 0.00000000 0.00000000
65 0.04766100 0.00000000 0.67144200 0.00000000 0.00000000 0.00000000
time 14
0 -0.00000100 8.45008800 -27.50902600 0.00000000 0.00000000 0.00003100
1 -0.00000200 0.00000000 0.00000000 1.57074300 -1.56713700 -1.57074300
2 4.25546800 -0.33518300 -0.00000200 0.00000000 0.00000000 -0.12484800
3 7.43124800 1.49647700 0.00000200 0.00000000 0.00000000 0.24545000
4 5.27847900 0.16554100 0.00000100 0.00000000 0.00000000 0.04851100
5 3.34343444 -5.41014721 -0.81522103 1.97586400 1.15990900 -1.29878600
6 -6.21448200 -0.00000700 -0.00002700 -3.09355697 -0.52961774 1.82582312
7 11.94488200 0.00000000 0.00000100 -0.36472466 -0.37508540 1.57631650
8 10.62018100 0.00000200 0.00000000 0.61273777 -0.24881390 2.89923385
9 -4.75110600 -0.69449400 0.83057700 -0.13822700 -0.15282100 0.18761000
10 -1.68806800 0.00004600 -0.00003200 0.02141900 -0.01231500 0.38900200
11 -1.33614000 0.00005700 -0.00001200 0.02584200 0.00517300 0.35617200
12 -4.82049400 -0.50946000 -0.22475900 -0.34140000 -0.06545200 1.04871000
13 -1.82699200 -0.00006400 0.00000600 0.01748100 0.03646500 1.72004300
14 -1.43657300 0.00000600 0.00000200 -0.02382900 -0.07399300 0.22023700
15 -3.99235500 -0.89118800 -1.82790900 -0.59999900 0.19887300 1.32587600
16 -1.40591800 -0.00002500 -0.00000300 -0.01642200 -0.02447400 1.46410200
17 -1.17535800 0.00012800 -0.00002000 0.02747700 0.06211700 0.32120800
18 -4.52675100 -0.69057500 -1.12074400 -0.42612300 0.11490200 1.26431800
19 -1.74403800 0.00003300 -0.00000800 -0.02836300 -0.00827500 1.69883200
20 -1.36877100 0.00002500 0.00000200 0.01196900 0.05106200 0.12629600
21 -2.03839800 -0.89278700 0.93250485 2.31093700 0.31633100 0.79560400
22 -1.62789215 0.15474885 0.01182500 -0.13461700 0.15578500 0.35407600
23 -1.59928500 0.00000400 0.00001600 0.02557400 -0.03449400 0.91320200
24 5.51181500 0.00000800 -0.00000100 2.10370077 -0.09267336 3.10418229
25 0.19684700 -0.00000100 0.00000300 2.79340677 -0.00116505 -3.14126810
26 2.53848600 -13.69475700 -1.63169900 1.97586200 1.15990900 1.84280300
27 6.21448500 0.00000600 0.00002000 -1.01705965 0.81010137 -1.83065182
28 11.94488500 -0.00002900 -0.00019400 -0.15548274 -0.37555647 -1.44343023
29 10.62016600 0.00000200 0.00001000 -2.87007556 -0.16017018 0.70807562
30 4.75115600 0.69437600 -0.83047300 -0.00402900 -0.10904900 0.38691600
31 1.68806500 -0.00002600 0.00000200 -0.00432100 -0.02432800 1.61481100
32 1.33615100 -0.00005100 -0.00000900 0.00924200 -0.03762600 0.12943000
33 4.82051300 0.50934000 0.22486500 -0.20590800 -0.00932300 0.86451500
34 1.82699600 0.00006600 0.00000800 0.01614600 0.03712600 1.68280400
35 1.43657700 -0.00001000 0.00000700 0.01515000 0.00045200 -0.75718600
36 3.99235300 0.89108700 1.82799400 -0.42620000 0.27844800 1.39074000
37 1.40591800 0.00002100 -0.00000700 -0.01231800 -0.02677000 1.30554600
38 1.17536900 -0.00013100 0.00000200 -0.09551900 0.07798600 -0.93359900
39 4.52675600 0.69046000 1.12084200 -0.35863200 0.11631600 1.17997500
40 1.74404100 -0.00003100 -0.00000200 -0.02749900 -0.01076800 1.60922000
41 1.36876300 -0.00003100 -0.00001700 -0.12957300 0.09181900 -1.14340300
42 1.80927207 0.89529315 -1.12011085 1.88461400 0.36803000 0.40774200
43 1.49513715 -0.24140500 0.04488023 0.00360000 -0.23414300 0.03443400
44 1.57424838 -0.10445300 0.03324200 0.03981700 0.07342300 -0.24671300
45 5.51180600 -0.00000200 0.00000600 -1.22958000 0.00000000 0.00000000
46 0.19685000 0.00000300 -0.00000200 -0.34822500 0.00001500 -0.00000200
47 0.00000000 1.00000000 0.00000000 0.00000000 0.00000000 -1.57079600
48 -3.18096000 33.22035600 -3.27546900 0.00000000 0.00000000 -3.14156200
49 -6.90467087 49.67651560 -2.01458064 0.20470408 -0.09231634 -0.93600932
50 10.32273500 1.03200331 -4.47403915 0.49059400 1.12092400 1.98870900
51 3.73549700 0.00125700 -1.32376300 0.00000000 0.00000000 0.00000000
52 4.80553000 0.89926700 -0.32590700 0.00000000 0.00000000 0.00000000
53 -1.55556500 -0.00054600 0.65577800 0.00000000 0.00000000 0.00000000
54 -17.55704100 -0.07892100 -2.36514300 0.00000000 0.00000000 0.00000000
55 1.59894600 -0.03355100 -0.60974000 0.00000000 0.00000000 0.00000000
56 1.35182600 0.00000000 -0.67877500 0.00000000 0.00000000 0.00000000
57 -14.97013500 -0.07892100 -1.81620400 0.00000000 0.00000000 0.00000000
58 -1.56441500 0.00000000 0.00000000 0.00000000 0.00000000 0.00000000
59 -12.01197200 0.40999300 -1.95628300 0.00000000 -0.65622100 0.00000000
60 -13.22667100 -1.31173800 -0.24158000 0.00000000 0.00000000 0.00000000
61 -10.22775454 -0.06713915 -2.05487500 0.00000000 0.00000000 0.00000000
62 -17.41236500 0.31651300 -0.95933400 0.00000000 0.00000000 0.00000000
63 -3.72439400 -2.13677900 -2.09378300 3.09200100 1.15353800 -2.39145700
64 -0.00066900 -0.00054600 -1.33911600 0.00000000 0.00000000 0.00000000
65 0.04766100 0.00000000 0.67144200 0.00000000 0.00000000 0.00000000
time 15
0 -0.00000100 8.45008800 -27.50902600 0.00000000 0.00000000 0.00003100
1 -0.00000200 0.00000000 0.00000000 1.57074300 -1.56713700 -1.57074300
2 4.25546800 -0.33518300 -0.00000200 0.00000000 0.00000000 -0.12484800
3 7.43124800 1.49647700 0.00000200 0.00000000 0.00000000 0.24545000
4 5.27847900 0.16554100 0.00000100 0.00000000 0.00000000 0.04851100
5 3.34343444 -5.41014721 -0.81522103 1.97586400 1.15990900 -1.29878600
6 -6.21448200 -0.00000700 -0.00002700 -3.10808591 -0.53607687 1.85710525
7 11.94488200 0.00000000 0.00000100 -0.35596476 -0.37824907 1.55036694
8 10.62018100 0.00000200 0.00000000 0.60669583 -0.21024503 2.97282694
9 -4.75110600 -0.69449400 0.83057700 -0.13822700 -0.15282100 0.18761000
10 -1.68806800 0.00004600 -0.00003200 0.02141900 -0.01231500 0.38900200
11 -1.33614000 0.00005700 -0.00001200 0.02584200 0.00517300 0.35617200
12 -4.82049400 -0.50946000 -0.22475900 -0.34140000 -0.06545200 1.04871000
13 -1.82699200 -0.00006400 0.00000600 0.01748100 0.03646500 1.72004300
14 -1.43657300 0.00000600 0.00000200 -0.02382900 -0.07399300 0.22023700
15 -3.99235500 -0.89118800 -1.82790900 -0.59999900 0.19887300 1.32587600
16 -1.40591800 -0.00002500 -0.00000300 -0.01642200 -0.02447400 1.46410200
17 -1.17535800 0.00012800 -0.00002000 0.02747700 0.06211700 0.32120800
18 -4.52675100 -0.69057500 -1.12074400 -0.42612300 0.11490200 1.26431800
19 -1.74403800 0.00003300 -0.00000800 -0.02836300 -0.00827500 1.69883200
20 -1.36877100 0.00002500 0.00000200 0.01196900 0.05106200 0.12629600
21 -2.03839800 -0.89278700 0.93250400 2.31093700 0.31633100 0.79560400
22 -1.62789300 0.15474800 0.01182500 -0.13461700 0.15578500 0.35407600
23 -1.59928500 0.00000400 0.00001600 0.02557400 -0.03449400 0.91320200
24 5.51181500 0.00000800 -0.00000100 2.10370077 -0.09267336 3.10418229
25 0.19684700 -0.00000100 0.00000300 2.79340677 -0.00116505 -3.14126810
26 2.53848600 -13.69475700 -1.63169900 1.97586200 1.15990900 1.84280300
27 6.21448500 0.00000600 0.00002000 -1.05694574 0.81158607 -1.88013444
28 11.94488500 -0.00002900 -0.00019400 -0.15877792 -0.37404490 -1.43358006
29 10.62016600 0.00000200 0.00001000 -2.83286166 -0.18617946 0.66364050
30 4.75115600 0.69437600 -0.83047300 -0.00402900 -0.10904900 0.38691600
31 1.68806500 -0.00002600 0.00000200 -0.00432100 -0.02432800 1.61481100
32 1.33615100 -0.00005100 -0.00000900 0.00924200 -0.03762600 0.12943000
33 4.82051300 0.50934000 0.22486500 -0.20590800 -0.00932300 0.86451500
34 1.82699600 0.00006600 0.00000800 0.01614600 0.03712600 1.68280400
35 1.43657700 -0.00001000 0.00000700 0.01515000 0.00045200 -0.75718600
36 3.99235300 0.89108700 1.82799400 -0.42620000 0.27844800 1.39074000
37 1.40591800 0.00002100 -0.00000700 -0.01231800 -0.02677000 1.30554600
38 1.17536900 -0.00013100 0.00000200 -0.09551900 0.07798600 -0.93359900
39 4.52675600 0.69046000 1.12084200 -0.35863200 0.11631600 1.17997500
40 1.74404100 -0.00003100 -0.00000200 -0.02749900 -0.01076800 1.60922000
41 1.36876300 -0.00003100 -0.00001700 -0.12957300 0.09181900 -1.14340300
42 1.80926700 0.89529400 -1.12011000 1.88461400 0.36803000 0.40774200
43 1.49513800 -0.24140500 0.04487600 0.00360000 -0.23414300 0.03443400
44 1.57424500 -0.10445300 0.03324200 0.03981700 0.07342300 -0.24671300
45 5.51180600 -0.00000200 0.00000600 -1.22958000 0.00000000 0.00000000
46 0.19685000 0.00000300 -0.00000200 -0.34822500 0.00001500 -0.00000200
47 0.00000000 1.00000000 0.00000000 0.00000000 0.00000000 -1.57079600
48 -3.18096000 33.22035600 -3.27546900 0.00000000 0.00000000 -3.14156200
49 -6.44745855 49.67476850 -2.09178086 0.21779274 -0.06147892 -0.92843286
50 10.32273500 1.03200500 -4.47404000 0.49059400 1.12092400 1.98870900
51 3.73549700 0.00125700 -1.32376300 0.00000000 0.00000000 0.00000000
52 4.80553000 0.89926700 -0.32590700 0.00000000 0.00000000 0.00000000
53 -1.55556500 -0.00054600 0.65577800 0.00000000 0.00000000 0.00000000
54 -17.55704100 -0.07892100 -2.36514300 0.00000000 0.00000000 0.00000000
55 1.59894600 -0.03355100 -0.60974000 0.00000000 0.00000000 0.00000000
56 1.35182600 0.00000000 -0.67877500 0.00000000 0.00000000 0.00000000
57 -14.97013500 -0.07892100 -1.81620400 0.00000000 0.00000000 0.00000000
58 -1.56441500 0.00000000 0.00000000 0.00000000 0.00000000 0.00000000
59 -12.01197200 0.40999300 -1.95628300 0.00000000 -0.65622100 0.00000000
60 -13.22667100 -1.31173800 -0.24158000 0.00000000 0.00000000 0.00000000
61 -10.22775200 -0.06714000 -2.05487500 0.00000000 0.00000000 0.00000000
62 -17.41236500 0.31651300 -0.95933400 0.00000000 0.00000000 0.00000000
63 -3.72439400 -2.13677900 -2.09378300 3.09200100 1.15353800 -2.39145700
64 -0.00066900 -0.00054600 -1.33911600 0.00000000 0.00000000 0.00000000
65 0.04766100 0.00000000 0.67144200 0.00000000 0.00000000 0.00000000
end
