version 1
nodes
0 "root" -1
1 "pelvis" 0
2 "spine_01" 1
3 "spine_02" 2
4 "spine_03" 3
5 "clavicle_r" 4
6 "upperarm_r" 5
7 "lowerarm_r" 6
8 "hand_r" 7
9 "index_01_r" 8
10 "index_02_r" 9
11 "index_03_r" 10
12 "middle_01_r" 8
13 "middle_02_r" 12
14 "middle_03_r" 13
15 "pinky_01_r" 8
16 "pinky_02_r" 15
17 "pinky_03_r" 16
18 "ring_01_r" 8
19 "ring_02_r" 18
20 "ring_03_r" 19
21 "thumb_01_r" 8
22 "thumb_02_r" 21
23 "thumb_03_r" 22
24 "BaseMesh" 8
25 "Mag" 24
26 "Trigger" 24
27 "Bolt" 24
28 "rhand_ikTarget" 24
29 "LHand_IKtarget" 24
30 "Boltpuller" 24
31 "lowerarm_twist_01_r" 7
32 "upperarm_twist_01_r" 6
33 "clavicle_l" 4
34 "upperarm_l" 33
35 "lowerarm_l" 34
36 "hand_l" 35
37 "index_01_l" 36
38 "index_02_l" 37
39 "index_03_l" 38
40 "middle_01_l" 36
41 "middle_02_l" 40
42 "middle_03_l" 41
43 "pinky_01_l" 36
44 "pinky_02_l" 43
45 "pinky_03_l" 44
46 "ring_01_l" 36
47 "ring_02_l" 46
48 "ring_03_l" 47
49 "thumb_01_l" 36
50 "thumb_02_l" 49
51 "thumb_03_l" 50
52 "BaseLeftMesh" 36
53 "MagLeft" 52
54 "TriggerLeft" 52
55 "BoltLeft" 52
56 "BoltpullerLeft" 52
57 "lowerarm_twist_01_l" 35
58 "upperarm_twist_01_l" 34
59 "cam_driver" -1
60 "Bullet" 25
61 "BulletLeft" 53
end
skeleton
time 0
0 -0.00000100 7.45008900 -27.50902600 0.00000000 0.00000000 0.00003100
1 -0.00000200 0.00000000 0.00000000 1.57074300 -1.56713700 -1.57074300
2 4.25546800 -0.33518300 -0.00000200 0.00000000 0.00000000 -0.12484800
3 7.43124800 1.49647700 0.00000200 0.00000000 0.00000000 0.24545000
4 5.27847900 0.16554100 0.00000100 0.00000000 0.00000000 0.04851100
5 -5.56772400 -8.99463200 1.48897400 1.97586400 1.15990900 -1.29878600
6 -6.21448200 -0.00000700 -0.00002700 -2.11217281 -0.28473207 1.10963124
7 11.94488200 0.00000000 0.00000100 -1.81614333 -0.34899760 1.51839311
8 10.62018100 0.00000200 0.00000000 -0.40825392 0.25569866 2.43955737
9 -4.75110600 -0.69449400 0.83057700 -0.13482700 -0.13716900 0.57386900
10 -1.68806800 0.00004600 -0.00003200 0.02023500 -0.01422900 0.48281900
11 -1.33614000 0.00005700 -0.00001200 0.02541900 0.00700600 0.28395600
12 -4.82049400 -0.50946000 -0.22475900 -0.22167300 -0.16487600 1.09608400
13 -1.82699200 -0.00006400 0.00000600 -0.00075400 0.04515300 1.13731700
14 -1.43657300 0.00000600 0.00000200 -0.05890600 -0.05081700 0.76792200
15 -3.99235500 -0.89118800 -1.82790900 -0.42234000 -0.18157200 0.58053200
16 -1.40591800 -0.00002500 -0.00000300 -0.02037100 -0.04590600 1.23673800
17 -1.17535800 0.00012800 -0.00002000 0.12880500 0.01657100 0.35385900
18 -4.52675100 -0.69057500 -1.12074400 -0.41795000 -0.15722600 1.08433300
19 -1.74403800 0.00003300 -0.00000800 -0.01333200 -0.01880300 1.23350000
20 -1.36877100 0.00002500 0.00000200 0.04417400 0.02828600 0.89690400
21 -1.71880600 -1.28270400 0.93153600 1.98258500 0.58454300 0.82372200
22 -1.52345300 0.00003200 0.00003100 -0.19097800 0.11191200 0.75188300
23 -1.59928500 0.00000400 0.00001600 -0.07634400 -0.04309900 0.82700900
24 -4.55332300 -1.97231900 1.39767500 -0.11901000 -0.22495700 0.46932700
25 0.04783700 -0.01874400 1.23517100 0.00000000 0.00000200 0.00000000
26 -2.08521900 -0.00968900 0.29123200 0.00000000 0.00000200 0.00000000
27 -1.29638800 -1.50489400 2.48615200 0.00000000 0.00000200 0.00000000
28 4.51640500 -0.00514200 -2.48549200 0.47682000 1.13057900 1.68958900
29 4.88365600 -10.35742500 -4.05612300 -3.10214100 0.30390300 -1.05983000
30 6.54782500 -0.58494100 2.04761000 0.00000000 0.00000200 0.00000000
31 5.51181500 0.00000800 -0.00000100 1.26606390 -0.00025916 -3.14127084
32 0.19684700 -0.00000100 0.00000300 2.79340697 -0.00039015 -3.14149391
33 -5.56772600 -8.99463300 -1.48897900 1.97586200 1.15990900 1.84280300
34 6.21448500 0.00000600 0.00002000 -1.12831914 0.29396475 -2.08607802
35 11.94488500 -0.00002900 -0.00019400 -0.40598735 -0.34884003 -1.62507462
36 10.62016600 0.00000200 0.00001000 -1.06732199 -0.26856178 -0.60441000
37 4.75115600 0.69437600 -0.83047300 -0.05602700 -0.27916300 0.54604800
38 1.68806500 -0.00002600 0.00000200 0.01539000 -0.01932400 0.76600700
39 1.33615100 -0.00005100 -0.00000900 -0.01007300 -0.03740000 0.63314200
40 4.82051300 0.50934000 0.22486500 -0.33338500 -0.24189700 1.38676300
41 1.82699600 0.00006600 0.00000800 -0.01526600 0.03746400 0.88753300
42 1.43657700 -0.00001000 0.00000700 -0.00389100 -0.01462300 1.09868500
43 3.99235300 0.89108700 1.82799400 -0.56486600 -0.22308000 1.17500100
44 1.40591800 0.00002100 -0.00000700 -0.00568500 -0.02893600 1.06850600
45 1.17536900 -0.00013100 0.00000200 0.10607100 0.06286200 0.99298000
46 4.52675600 0.69046000 1.12084200 -0.43875100 -0.18081400 1.40218300
47 1.74404100 -0.00003100 -0.00000200 -0.00550500 -0.01495600 1.15331800
48 1.36876300 -0.00003100 -0.00001700 0.05723200 0.13091500 0.99301600
49 1.86460400 0.94986600 -0.98556900 2.13900500 0.45946700 1.11095100
50 1.52344900 -0.00003400 -0.00000300 -0.46017900 -0.05709800 0.78018400
51 1.59928100 -0.00000200 0.00000900 0.08322400 -0.00653500 0.90419200
52 4.30976700 2.07444600 -1.27166100 -3.01379600 0.35420400 -2.68193300
53 0.04783500 -0.01874300 1.23517400 -0.00000100 0.00000000 0.00000000
54 -2.08522200 -0.00968900 0.29123300 -0.00000100 0.00000000 0.00000000
55 -1.29639700 -1.50489800 2.48616400 -0.00000100 0.00000000 -0.00000100
56 6.54782200 -0.58493800 2.04762000 -0.00000100 0.00000000 0.00000000
57 5.51180600 -0.00000200 0.00000600 -0.23579700 0.00000500 0.00000700
58 0.19685000 0.00000300 -0.00000200 -0.34822500 0.00001500 -0.00000200
59 0.00000000 0.00000000 0.00000000 0.00000000 0.00000000 -1.57079600
60 0.05262900 0.00000000 -0.39527200 0.00000000 0.00000000 0.00000000
61 -0.21726700 0.00000000 -0.61545300 0.00000000 0.00000000 0.00000000
time 1
0 -0.00000100 7.45008900 -27.50902600 0.00000000 0.00000000 0.00003100
1 -0.00000200 0.00000000 0.00000000 1.57074300 -1.56713700 -1.57074300
2 4.25546800 -0.33518300 -0.00000200 0.00000000 0.00000000 -0.12484800
3 7.43124800 1.49647700 0.00000200 0.00000000 0.00000000 0.24545000
4 5.27847900 0.16554100 0.00000100 0.00000000 0.00000000 0.04851100
5 -5.56772400 -8.99463200 1.48897400 1.97586400 1.15990900 -1.29878600
6 -6.21448200 -0.00000700 -0.00002700 -2.14187192 -0.30205175 1.11988486
7 11.94488200 0.00000000 0.00000100 -1.83507664 -0.34941390 1.57390124
8 10.62018100 0.00000200 0.00000000 -0.36065443 0.12572394 2.43027350
9 -4.75110600 -0.69449400 0.83057700 -0.13482700 -0.13716900 0.57386900
10 -1.68806800 0.00004600 -0.00003200 0.02023500 -0.01422900 0.48281900
11 -1.33614000 0.00005700 -0.00001200 0.02541900 0.00700600 0.28395600
12 -4.82049400 -0.50946000 -0.22475900 -0.22167300 -0.16487600 1.09608400
13 -1.82699200 -0.00006400 0.00000600 -0.00075400 0.04515300 1.13731700
14 -1.43657300 0.00000600 0.00000200 -0.05890600 -0.05081700 0.76792200
15 -3.99235500 -0.89118800 -1.82790900 -0.42234000 -0.18157200 0.58053200
16 -1.40591800 -0.00002500 -0.00000300 -0.02037100 -0.04590600 1.23673800
17 -1.17535800 0.00012800 -0.00002000 0.12880500 0.01657100 0.35385900
18 -4.52675100 -0.69057500 -1.12074400 -0.41795000 -0.15722600 1.08433300
19 -1.74403800 0.00003300 -0.00000800 -0.01333200 -0.01880300 1.23350000
20 -1.36877100 0.00002500 0.00000200 0.04417400 0.02828600 0.89690400
21 -1.71880600 -1.28270400 0.93153600 1.98258500 0.58454300 0.82372200
22 -1.52345300 0.00003200 0.00003100 -0.19097800 0.11191200 0.75188300
23 -1.59928500 0.00000400 0.00001600 -0.07634400 -0.04309900 0.82700900
24 -4.55332300 -1.97231900 1.39767500 -0.11901000 -0.22495700 0.46932700
25 0.04783700 -0.01874400 1.23517100 0.00000000 0.00000200 0.00000000
26 -2.08521900 -0.00968900 0.29123200 0.00000000 0.00000200 0.00000000
27 -1.29638800 -1.50489400 2.48615200 0.00000000 0.00000200 0.00000000
28 4.51640500 -0.00514200 -2.48549200 0.47682000 1.13057900 1.68958900
29 5.20879500 -10.04159600 -4.48561300 -3.08518600 0.30978300 -1.03466800
30 6.54782500 -0.58494100 2.04761000 0.00000000 0.00000200 0.00000000
31 5.51181500 0.00000800 -0.00000100 1.26606390 -0.00025916 -3.14127084
32 0.19684700 -0.00000100 0.00000300 2.79340697 -0.00039015 -3.14149391
33 -5.56772600 -8.99463300 -1.48897900 1.97586200 1.15990900 1.84280300
34 6.21448500 0.00000600 0.00002000 -1.09886194 0.31854647 -2.06760179
35 11.94488500 -0.00002900 -0.00019400 -0.39949647 -0.34850457 -1.64406003
36 10.62016600 0.00000200 0.00001000 -1.04003264 -0.34480675 -0.55180924
37 4.75115600 0.69437600 -0.83047300 -0.05602700 -0.27916300 0.54604800
38 1.68806500 -0.00002600 0.00000200 0.01539000 -0.01932400 0.76600700
39 1.33615100 -0.00005100 -0.00000900 -0.01007300 -0.03740000 0.63314200
40 4.82051300 0.50934000 0.22486500 -0.33338500 -0.24189700 1.38676300
41 1.82699600 0.00006600 0.00000800 -0.01526600 0.03746400 0.88753300
42 1.43657700 -0.00001000 0.00000700 -0.00389100 -0.01462300 1.09868500
43 3.99235300 0.89108700 1.82799400 -0.56486600 -0.22308000 1.17500100
44 1.40591800 0.00002100 -0.00000700 -0.00568500 -0.02893600 1.06850600
45 1.17536900 -0.00013100 0.00000200 0.10607100 0.06286200 0.99298000
46 4.52675600 0.69046000 1.12084200 -0.43875100 -0.18081400 1.40218300
47 1.74404100 -0.00003100 -0.00000200 -0.00550500 -0.01495600 1.15331800
48 1.36876300 -0.00003100 -0.00001700 0.05723200 0.13091500 0.99301600
49 1.86460400 0.94986600 -0.98556900 2.13900500 0.45946700 1.11095100
50 1.52344900 -0.00003400 -0.00000300 -0.46017900 -0.05709800 0.78018400
51 1.59928100 -0.00000200 0.00000900 0.08322400 -0.00653500 0.90419200
52 4.30975600 2.07444300 -1.27166800 -3.01379600 0.35420400 -2.68193300
53 0.04783500 -0.01874300 1.23517400 -0.00000100 0.00000000 0.00000000
54 -2.08522200 -0.00968900 0.29123300 -0.00000100 0.00000000 0.00000000
55 -1.29639700 -1.50489800 2.48616400 -0.00000100 0.00000000 -0.00000100
56 6.54782200 -0.58493800 2.04762000 -0.00000100 0.00000000 0.00000000
57 5.51180600 -0.00000200 0.00000600 -0.23579700 0.00000500 0.00000700
58 0.19685000 0.00000300 -0.00000200 -0.34822500 0.00001500 -0.00000200
59 0.00000000 0.00000000 0.00000000 0.00000000 0.00000000 -1.57079600
60 0.05262900 0.00000000 -0.39527200 0.00000000 0.00000000 0.00000000
61 -0.21726700 0.00000000 -0.61545300 0.00000000 0.00000000 0.00000000
time 2
0 -0.00000100 7.45008900 -27.50902600 0.00000000 0.00000000 0.00003100
1 -0.00000200 0.00000000 0.00000000 1.57074300 -1.56713700 -1.57074300
2 4.25546800 -0.33518300 -0.00000200 0.00000000 0.00000000 -0.12484800
3 7.43124800 1.49647700 0.00000200 0.00000000 0.00000000 0.24545000
4 5.27847900 0.16554100 0.00000100 0.00000000 0.00000000 0.04851100
5 -4.19105300 -9.10072500 1.48897400 1.97586400 1.15990900 -1.29878600
6 -6.21448200 -0.00000700 -0.00002700 -2.20748543 -0.44382278 1.16221500
7 11.94488200 0.00000000 0.00000100 -1.89604781 -0.34410461 1.75279910
8 10.62018100 0.00000200 0.00000000 -0.23264548 -0.12179422 2.39108806
9 -4.75110600 -0.69449400 0.83057700 -0.13482700 -0.13716900 0.57386900
10 -1.68806800 0.00004600 -0.00003200 0.02023500 -0.01422900 0.48281900
11 -1.33614000 0.00005700 -0.00001200 0.02541900 0.00700600 0.28395600
12 -4.82049400 -0.50946000 -0.22475900 -0.22167300 -0.16487600 1.09608400
13 -1.82699200 -0.00006400 0.00000600 -0.00075400 0.04515300 1.13731700
14 -1.43657300 0.00000600 0.00000200 -0.05890600 -0.05081700 0.76792200
15 -3.99235500 -0.89118800 -1.82790900 -0.42234000 -0.18157200 0.58053200
16 -1.40591800 -0.00002500 -0.00000300 -0.02037100 -0.04590600 1.23673800
17 -1.17535800 0.00012800 -0.00002000 0.12880500 0.01657100 0.35385900
18 -4.52675100 -0.69057500 -1.12074400 -0.41795000 -0.15722600 1.08433300
19 -1.74403800 0.00003300 -0.00000800 -0.01333200 -0.01880300 1.23350000
20 -1.36877100 0.00002500 0.00000200 0.04417400 0.02828600 0.89690400
21 -1.71880600 -1.28270400 0.93153600 1.98258500 0.58454300 0.82372200
22 -1.52345300 0.00003200 0.00003100 -0.19097800 0.11191200 0.75188300
23 -1.59928500 0.00000400 0.00001600 -0.07634400 -0.04309900 0.82700900
24 -4.55332300 -1.97231900 1.39767500 -0.11901000 -0.22495700 0.46932700
25 0.04783700 -0.01874400 1.23517100 0.00000000 0.00000200 0.00000000
26 -2.08521900 -0.00968900 0.29123200 0.00000000 0.00000200 0.00000000
27 -1.29638800 -1.50489400 2.48615200 0.00000000 0.00000200 0.00000000
28 4.51640500 -0.00514200 -2.48549200 0.47682000 1.13057900 1.68958900
29 5.49671200 -9.32720000 -5.44453800 -3.04075800 0.33498600 -0.99741200
30 6.54782500 -0.58494100 2.04761000 0.00000000 0.00000200 0.00000000
31 5.51181500 0.00000800 -0.00000100 1.26606390 -0.00025916 -3.14127084
32 0.19684700 -0.00000100 0.00000300 2.79340697 -0.00039015 -3.14149391
33 -4.19105500 -9.10072400 -1.48897900 1.97586200 1.15990900 1.84280300
34 6.21448500 0.00000600 0.00002000 -1.01983191 0.47427366 -2.00241539
35 11.94488500 -0.00002900 -0.00019400 -0.36308451 -0.34409760 -1.75123869
36 10.62016600 0.00000200 0.00001000 -0.99919145 -0.51727744 -0.43017156
37 4.75115600 0.69437600 -0.83047300 -0.05602700 -0.27916300 0.54604800
38 1.68806500 -0.00002600 0.00000200 0.01539000 -0.01932400 0.76600700
39 1.33615100 -0.00005100 -0.00000900 -0.01007300 -0.03740000 0.63314200
40 4.82051300 0.50934000 0.22486500 -0.33338500 -0.24189700 1.38676300
41 1.82699600 0.00006600 0.00000800 -0.01526600 0.03746400 0.88753300
42 1.43657700 -0.00001000 0.00000700 -0.00389100 -0.01462300 1.09868500
43 3.99235300 0.89108700 1.82799400 -0.56486600 -0.22308000 1.17500100
44 1.40591800 0.00002100 -0.00000700 -0.00568500 -0.02893600 1.06850600
45 1.17536900 -0.00013100 0.00000200 0.10607100 0.06286200 0.99298000
46 4.52675600 0.69046000 1.12084200 -0.43875100 -0.18081400 1.40218300
47 1.74404100 -0.00003100 -0.00000200 -0.00550500 -0.01495600 1.15331800
48 1.36876300 -0.00003100 -0.00001700 0.05723200 0.13091500 0.99301600
49 1.86460400 0.94986600 -0.98556900 2.13900500 0.45946700 1.11095100
50 1.52344900 -0.00003400 -0.00000300 -0.46017900 -0.05709800 0.78018400
51 1.59928100 -0.00000200 0.00000900 0.08322400 -0.00653500 0.90419200
52 4.30969000 2.07439000 -1.27174400 -3.01379600 0.35420400 -2.68193300
53 0.04783500 -0.01874300 1.23517400 -0.00000100 0.00000000 0.00000000
54 -2.08522200 -0.00968900 0.29123300 -0.00000100 0.00000000 0.00000000
55 -1.29639700 -1.50489800 2.48616400 -0.00000100 0.00000000 -0.00000100
56 6.54782200 -0.58493800 2.04762000 -0.00000100 0.00000000 0.00000000
57 5.51180600 -0.00000200 0.00000600 -0.23579700 0.00000500 0.00000700
58 0.19685000 0.00000300 -0.00000200 -0.34822500 0.00001500 -0.00000200
59 0.00000000 0.00000000 0.00000000 0.00000000 0.00000000 -1.57079600
60 0.05262900 0.00000000 -0.39527200 0.00000000 0.00000000 0.00000000
61 -0.21726700 0.00000000 -0.61545300 0.00000000 0.00000000 0.00000000
time 3
0 -0.00000100 7.45008900 -27.50902600 0.00000000 0.00000000 0.00003100
1 -0.00000200 0.00000000 0.00000000 1.57074300 -1.56713700 -1.57074300
2 4.25546800 -0.33518300 -0.00000200 0.00000000 0.00000000 -0.12484800
3 7.43124800 1.49647700 0.00000200 0.00000000 0.00000000 0.24545000
4 5.27847900 0.16554100 0.00000100 0.00000000 0.00000000 0.04851100
5 -1.16238200 -9.33412200 1.48897500 1.97586400 1.15990900 -1.29878600
6 -6.21448200 -0.00000700 -0.00002700 -2.31531896 -0.69998513 1.25970838
7 11.94488200 0.00000000 0.00000100 -1.95398924 -0.32890985 1.92803351
8 10.62018100 0.00000200 0.00000000 -0.11441913 -0.33202679 2.33391466
9 -4.75110600 -0.69449400 0.83057700 -0.13482700 -0.13716900 0.57386900
10 -1.68806800 0.00004600 -0.00003200 0.02023500 -0.01422900 0.48281900
11 -1.33614000 0.00005700 -0.00001200 0.02541900 0.00700600 0.28395600
12 -4.82049400 -0.50946000 -0.22475900 -0.22167300 -0.16487600 1.09608400
13 -1.82699200 -0.00006400 0.00000600 -0.00075400 0.04515300 1.13731700
14 -1.43657300 0.00000600 0.00000200 -0.05890600 -0.05081700 0.76792200
15 -3.99235500 -0.89118800 -1.82790900 -0.42234000 -0.18157200 0.58053200
16 -1.40591800 -0.00002500 -0.00000300 -0.02037100 -0.04590600 1.23673800
17 -1.17535800 0.00012800 -0.00002000 0.12880500 0.01657100 0.35385900
18 -4.52675100 -0.69057500 -1.12074400 -0.41795000 -0.15722600 1.08433300
19 -1.74403800 0.00003300 -0.00000800 -0.01333200 -0.01880300 1.23350000
20 -1.36877100 0.00002500 0.00000200 0.04417400 0.02828600 0.89690400
21 -1.71880600 -1.28270400 0.93153600 1.98258500 0.58454300 0.82372200
22 -1.52345300 0.00003200 0.00003100 -0.19097800 0.11191200 0.75188300
23 -1.59928500 0.00000400 0.00001600 -0.07634400 -0.04309900 0.82700900
24 -4.55332300 -1.97231900 1.39767500 -0.11901000 -0.22495700 0.46932700
25 0.04783700 -0.01874400 1.23517100 0.00000000 0.00000200 0.00000000
26 -2.08521900 -0.00968900 0.29123200 0.00000000 0.00000200 0.00000000
27 -1.29638800 -1.50489400 2.48615200 0.00000000 0.00000200 0.00000000
28 4.51640500 -0.00514200 -2.48549200 0.47682000 1.13057900 1.68958900
29 4.98089300 -8.75187100 -6.15317000 -2.98995700 0.36571800 -1.00467300
30 6.54782500 -0.58494100 2.04761000 0.00000000 0.00000200 0.00000000
31 5.51181500 0.00000800 -0.00000100 1.26606390 -0.00025916 -3.14127084
32 0.19684700 -0.00000100 0.00000300 2.79340697 -0.00039015 -3.14149391
33 -1.16238200 -9.33412300 -1.48897800 1.97586200 1.15990900 1.84280300
34 6.21448500 0.00000600 0.00002000 -0.87336662 0.72001885 -1.87764631
35 11.94488500 -0.00002900 -0.00019400 -0.32945669 -0.33666585 -1.85189383
36 10.62016600 0.00000200 0.00001000 -1.00202799 -0.71456214 -0.30374474
37 4.75115600 0.69437600 -0.83047300 -0.05602700 -0.27916300 0.54604800
38 1.68806500 -0.00002600 0.00000200 0.01539000 -0.01932400 0.76600700
39 1.33615100 -0.00005100 -0.00000900 -0.01007300 -0.03740000 0.63314200
40 4.82051300 0.50934000 0.22486500 -0.33338500 -0.24189700 1.38676300
41 1.82699600 0.00006600 0.00000800 -0.01526600 0.03746400 0.88753300
42 1.43657700 -0.00001000 0.00000700 -0.00389100 -0.01462300 1.09868500
43 3.99235300 0.89108700 1.82799400 -0.56486600 -0.22308000 1.17500100
44 1.40591800 0.00002100 -0.00000700 -0.00568500 -0.02893600 1.06850600
45 1.17536900 -0.00013100 0.00000200 0.10607100 0.06286200 0.99298000
46 4.52675600 0.69046000 1.12084200 -0.43875100 -0.18081400 1.40218300
47 1.74404100 -0.00003100 -0.00000200 -0.00550500 -0.01495600 1.15331800
48 1.36876300 -0.00003100 -0.00001700 0.05723200 0.13091500 0.99301600
49 1.86460400 0.94986600 -0.98556900 2.13900500 0.45946700 1.11095100
50 1.52344900 -0.00003400 -0.00000300 -0.46017900 -0.05709800 0.78018400
51 1.59928100 -0.00000200 0.00000900 0.08322400 -0.00653500 0.90419200
52 4.30955000 2.07425600 -1.27186000 -3.01379600 0.35420400 -2.68193300
53 0.04783500 -0.01874300 1.23517400 -0.00000100 0.00000000 0.00000000
54 -2.08522200 -0.00968900 0.29123300 -0.00000100 0.00000000 0.00000000
55 -1.29639700 -1.50489800 2.48616400 -0.00000100 0.00000000 -0.00000100
56 6.54782200 -0.58493800 2.04762000 -0.00000100 0.00000000 0.00000000
57 5.51180600 -0.00000200 0.00000600 -0.23579700 0.00000500 0.00000700
58 0.19685000 0.00000300 -0.00000200 -0.34822500 0.00001500 -0.00000200
59 0.00000000 0.00000000 0.00000000 0.00000000 0.00000000 -1.57079600
60 0.05262900 0.00000000 -0.39527200 0.00000000 0.00000000 0.00000000
61 -0.21726700 0.00000000 -0.61545300 0.00000000 0.00000000 0.00000000
time 4
0 -0.00000100 7.45008900 -27.50902600 0.00000000 0.00000000 0.00003100
1 -0.00000200 0.00000000 0.00000000 1.57074300 -1.56713700 -1.57074300
2 4.25546800 -0.33518300 -0.00000200 0.00000000 0.00000000 -0.12484800
3 7.43124800 1.49647700 0.00000200 0.00000000 0.00000000 0.24545000
4 5.27847900 0.16554100 0.00000100 0.00000000 0.00000000 0.04851100
5 1.86629000 -9.56752200 1.48897500 1.97586400 1.15990900 -1.29878600
6 -6.21448200 -0.00000700 -0.00002700 -2.47338668 -0.88861166 1.41898980
7 11.94488200 0.00000000 0.00000100 -1.95188574 -0.32966508 1.92160893
8 10.62018100 0.00000200 0.00000000 -0.08099897 -0.45749186 2.33744503
9 -4.75110600 -0.69449400 0.83057700 -0.13482700 -0.13716900 0.57386900
10 -1.68806800 0.00004600 -0.00003200 0.02023500 -0.01422900 0.48281900
11 -1.33614000 0.00005700 -0.00001200 0.02541900 0.00700600 0.28395600
12 -4.82049400 -0.50946000 -0.22475900 -0.22167300 -0.16487600 1.09608400
13 -1.82699200 -0.00006400 0.00000600 -0.00075400 0.04515300 1.13731700
14 -1.43657300 0.00000600 0.00000200 -0.05890600 -0.05081700 0.76792200
15 -3.99235500 -0.89118800 -1.82790900 -0.42234000 -0.18157200 0.58053200
16 -1.40591800 -0.00002500 -0.00000300 -0.02037100 -0.04590600 1.23673800
17 -1.17535800 0.00012800 -0.00002000 0.12880500 0.01657100 0.35385900
18 -4.52675100 -0.69057500 -1.12074400 -0.41795000 -0.15722600 1.08433300
19 -1.74403800 0.00003300 -0.00000800 -0.01333200 -0.01880300 1.23350000
20 -1.36877100 0.00002500 0.00000200 0.04417400 0.02828600 0.89690400
21 -1.71880600 -1.28270400 0.93153600 1.98258500 0.58454300 0.82372200
22 -1.52345300 0.00003200 0.00003100 -0.19097800 0.11191200 0.75188300
23 -1.59928500 0.00000400 0.00001600 -0.07634400 -0.04309900 0.82700900
24 -4.55332300 -1.97231900 1.39767500 -0.11901000 -0.22495700 0.46932700
25 0.04783700 -0.01874400 1.23517100 0.00000000 0.00000200 0.00000000
26 -2.08521900 -0.00968900 0.29123200 0.00000000 0.00000200 0.00000000
27 -1.29638800 -1.50489400 2.48615200 0.00000000 0.00000200 0.00000000
28 4.51640500 -0.00514200 -2.48549200 0.47682000 1.13057900 1.68958900
29 4.14630900 -8.82370200 -5.54176800 -3.00058600 0.35016100 -1.08143500
30 6.54782500 -0.58494100 2.04761000 0.00000000 0.00000200 0.00000000
31 5.51181500 0.00000800 -0.00000100 1.26606390 -0.00025916 -3.14127084
32 0.19684700 -0.00000100 0.00000300 2.79340697 -0.00039015 -3.14149391
33 1.86629000 -9.56752100 -1.48897800 1.97586200 1.15990900 1.84280300
34 6.21448500 0.00000600 0.00002000 -0.67122955 0.86913481 -1.71924281
35 11.94488500 -0.00002900 -0.00019400 -0.34118231 -0.33963062 -1.81654205
36 10.62016600 0.00000200 0.00001000 -1.09755308 -0.88145821 -0.16409728
37 4.75115600 0.69437600 -0.83047300 -0.05602700 -0.27916300 0.54604800
38 1.68806500 -0.00002600 0.00000200 0.01539000 -0.01932400 0.76600700
39 1.33615100 -0.00005100 -0.00000900 -0.01007300 -0.03740000 0.63314200
40 4.82051300 0.50934000 0.22486500 -0.33338500 -0.24189700 1.38676300
41 1.82699600 0.00006600 0.00000800 -0.01526600 0.03746400 0.88753300
42 1.43657700 -0.00001000 0.00000700 -0.00389100 -0.01462300 1.09868500
43 3.99235300 0.89108700 1.82799400 -0.56486600 -0.22308000 1.17500100
44 1.40591800 0.00002100 -0.00000700 -0.00568500 -0.02893600 1.06850600
45 1.17536900 -0.00013100 0.00000200 0.10607100 0.06286200 0.99298000
46 4.52675600 0.69046000 1.12084200 -0.43875100 -0.18081400 1.40218300
47 1.74404100 -0.00003100 -0.00000200 -0.00550500 -0.01495600 1.15331800
48 1.36876300 -0.00003100 -0.00001700 0.05723200 0.13091500 0.99301600
49 1.86460400 0.94986600 -0.98556900 2.13900500 0.45946700 1.11095100
50 1.52344900 -0.00003400 -0.00000300 -0.46017900 -0.05709800 0.78018400
51 1.59928100 -0.00000200 0.00000900 0.08322400 -0.00653500 0.90419200
52 4.30955200 2.07425700 -1.27179900 -3.01379600 0.35420400 -2.68193300
53 0.04783500 -0.01874300 1.23517400 -0.00000100 0.00000000 0.00000000
54 -2.08522200 -0.00968900 0.29123300 -0.00000100 0.00000000 0.00000000
55 -1.29639700 -1.50489800 2.48616400 -0.00000100 0.00000000 -0.00000100
56 6.54782200 -0.58493800 2.04762000 -0.00000100 0.00000000 0.00000000
57 5.51180600 -0.00000200 0.00000600 -0.23579700 0.00000500 0.00000700
58 0.19685000 0.00000300 -0.00000200 -0.34822500 0.00001500 -0.00000200
59 0.00000000 0.00000000 0.00000000 0.00000000 0.00000000 -1.57079600
60 0.05262900 0.00000000 -0.39527200 0.00000000 0.00000000 0.00000000
61 -0.21726700 0.00000000 -0.61545300 0.00000000 0.00000000 0.00000000
time 5
0 -0.00000100 7.45008900 -27.50902600 0.00000000 0.00000000 0.00003100
1 -0.00000200 0.00000000 0.00000000 1.57074300 -1.56713700 -1.57074300
2 4.25546800 -0.33518300 -0.00000200 0.00000000 0.00000000 -0.12484800
3 7.43124800 1.49647700 0.00000200 0.00000000 0.00000000 0.24545000
4 5.27847900 0.16554100 0.00000100 0.00000000 0.00000000 0.04851100
5 3.24296100 -9.67361200 1.48897600 1.97586400 1.15990900 -1.29878600
6 -6.21448200 -0.00000700 -0.00002700 -2.56228814 -0.88521928 1.49873304
7 11.94488200 0.00000000 0.00000100 -1.90431079 -0.34253646 1.77738725
8 10.62018100 0.00000200 0.00000000 -0.03863393 -0.57628034 2.39816124
9 -4.75110600 -0.69449400 0.83057700 -0.13482700 -0.13716900 0.57386900
10 -1.68806800 0.00004600 -0.00003200 0.02023500 -0.01422900 0.48281900
11 -1.33614000 0.00005700 -0.00001200 0.02541900 0.00700600 0.28395600
12 -4.82049400 -0.50946000 -0.22475900 -0.22167300 -0.16487600 1.09608400
13 -1.82699200 -0.00006400 0.00000600 -0.00075400 0.04515300 1.13731700
14 -1.43657300 0.00000600 0.00000200 -0.05890600 -0.05081700 0.76792200
15 -3.99235500 -0.89118800 -1.82790900 -0.42234000 -0.18157200 0.58053200
16 -1.40591800 -0.00002500 -0.00000300 -0.02037100 -0.04590600 1.23673800
17 -1.17535800 0.00012800 -0.00002000 0.12880500 0.01657100 0.35385900
18 -4.52675100 -0.69057500 -1.12074400 -0.41795000 -0.15722600 1.08433300
19 -1.74403800 0.00003300 -0.00000800 -0.01333200 -0.01880300 1.23350000
20 -1.36877100 0.00002500 0.00000200 0.04417400 0.02828600 0.89690400
21 -1.71880600 -1.28270400 0.93153600 1.98258500 0.58454300 0.82372200
22 -1.52345300 0.00003200 0.00003100 -0.19097800 0.11191200 0.75188300
23 -1.59928500 0.00000400 0.00001600 -0.07634400 -0.04309900 0.82700900
24 -4.55332300 -1.97231900 1.39767500 -0.11901000 -0.22495700 0.46932700
25 0.04783700 -0.01874400 1.23517100 0.00000000 0.00000200 0.00000000
26 -2.08521900 -0.00968900 0.29123200 0.00000000 0.00000200 0.00000000
27 -1.29638800 -1.50489400 2.48615200 0.00000000 0.00000200 0.00000000
28 4.51640500 -0.00514200 -2.48549200 0.47682000 1.13057900 1.68958900
29 3.95816800 -9.08197500 -4.27191800 -3.12148200 0.29410900 -1.16883800
30 6.54782500 -0.58494100 2.04761000 0.00000000 0.00000200 0.00000000
31 5.51181500 0.00000800 -0.00000100 1.26606390 -0.00025916 -3.14127084
32 0.19684700 -0.00000100 0.00000300 2.79340697 -0.00039015 -3.14149391
33 3.24296000 -9.67361100 -1.48897800 1.97586200 1.15990900 1.84280300
34 6.21448500 0.00000600 0.00002000 -0.52812674 0.85145432 -1.63383980
35 11.94488500 -0.00002900 -0.00019400 -0.38567541 -0.34724817 -1.68451166
36 10.62016600 0.00000200 0.00001000 -1.27927384 -0.97310266 0.00268470
37 4.75115600 0.69437600 -0.83047300 -0.05602700 -0.27916300 0.54604800
38 1.68806500 -0.00002600 0.00000200 0.01539000 -0.01932400 0.76600700
39 1.33615100 -0.00005100 -0.00000900 -0.01007300 -0.03740000 0.63314200
40 4.82051300 0.50934000 0.22486500 -0.33338500 -0.24189700 1.38676300
41 1.82699600 0.00006600 0.00000800 -0.01526600 0.03746400 0.88753300
42 1.43657700 -0.00001000 0.00000700 -0.00389100 -0.01462300 1.09868500
43 3.99235300 0.89108700 1.82799400 -0.56486600 -0.22308000 1.17500100
44 1.40591800 0.00002100 -0.00000700 -0.00568500 -0.02893600 1.06850600
45 1.17536900 -0.00013100 0.00000200 0.10607100 0.06286200 0.99298000
46 4.52675600 0.69046000 1.12084200 -0.43875100 -0.18081400 1.40218300
47 1.74404100 -0.00003100 -0.00000200 -0.00550500 -0.01495600 1.15331800
48 1.36876300 -0.00003100 -0.00001700 0.05723200 0.13091500 0.99301600
49 1.86460400 0.94986600 -0.98556900 2.13900500 0.45946700 1.11095100
50 1.52344900 -0.00003400 -0.00000300 -0.46017900 -0.05709800 0.78018400
51 1.59928100 -0.00000200 0.00000900 0.08322400 -0.00653500 0.90419200
52 4.30969300 2.07440700 -1.27166100 -3.01379600 0.35420400 -2.68193300
53 0.04783500 -0.01874300 1.23517400 -0.00000100 0.00000000 0.00000000
54 -2.08522200 -0.00968900 0.29123300 -0.00000100 0.00000000 0.00000000
55 -1.29639700 -1.50489800 2.48616400 -0.00000100 0.00000000 -0.00000100
56 6.54782200 -0.58493800 2.04762000 -0.00000100 0.00000000 0.00000000
57 5.51180600 -0.00000200 0.00000600 -0.23579700 0.00000500 0.00000700
58 0.19685000 0.00000300 -0.00000200 -0.34822500 0.00001500 -0.00000200
59 0.00000000 0.00000000 0.00000000 0.00000000 0.00000000 -1.57079600
60 0.05262900 0.00000000 -0.39527200 0.00000000 0.00000000 0.00000000
61 -0.21726700 0.00000000 -0.61545300 0.00000000 0.00000000 0.00000000
time 6
0 -0.00000100 7.45008900 -27.50902600 0.00000000 0.00000000 0.00003100
1 -0.00000200 0.00000000 0.00000000 1.57074300 -1.56713700 -1.57074300
2 4.25546800 -0.33518300 -0.00000200 0.00000000 0.00000000 -0.12484800
3 7.43124800 1.49647700 0.00000200 0.00000000 0.00000000 0.24545000
4 5.27847900 0.16554100 0.00000100 0.00000000 0.00000000 0.04851100
5 3.24296100 -9.67361200 1.48897600 1.97586400 1.15990900 -1.29878600
6 -6.21448200 -0.00000700 -0.00002700 -2.59600109 -0.78489607 1.50081621
7 11.94488200 0.00000000 0.00000100 -1.84664233 -0.34915481 1.60758340
8 10.62018100 0.00000200 0.00000000 -0.00669629 -0.67871906 2.46434474
9 -4.75110600 -0.69449400 0.83057700 -0.13482700 -0.13716900 0.57386900
10 -1.68806800 0.00004600 -0.00003200 0.02023500 -0.01422900 0.48281900
11 -1.33614000 0.00005700 -0.00001200 0.02541900 0.00700600 0.28395600
12 -4.82049400 -0.50946000 -0.22475900 -0.22167300 -0.16487600 1.09608400
13 -1.82699200 -0.00006400 0.00000600 -0.00075400 0.04515300 1.13731700
14 -1.43657300 0.00000600 0.00000200 -0.05890600 -0.05081700 0.76792200
15 -3.99235500 -0.89118800 -1.82790900 -0.42234000 -0.18157200 0.58053200
16 -1.40591800 -0.00002500 -0.00000300 -0.02037100 -0.04590600 1.23673800
17 -1.17535800 0.00012800 -0.00002000 0.12880500 0.01657100 0.35385900
18 -4.52675100 -0.69057500 -1.12074400 -0.41795000 -0.15722600 1.08433300
19 -1.74403800 0.00003300 -0.00000800 -0.01333200 -0.01880300 1.23350000
20 -1.36877100 0.00002500 0.00000200 0.04417400 0.02828600 0.89690400
21 -1.71880600 -1.28270400 0.93153600 1.98258500 0.58454300 0.82372200
22 -1.52345300 0.00003200 0.00003100 -0.19097800 0.11191200 0.75188300
23 -1.59928500 0.00000400 0.00001600 -0.07634400 -0.04309900 0.82700900
24 -4.55332300 -1.97231900 1.39767500 -0.11901000 -0.22495700 0.46932700
25 0.04783700 -0.01874400 1.23517100 0.00000000 0.00000200 0.00000000
26 -2.08521900 -0.00968900 0.29123200 0.00000000 0.00000200 0.00000000
27 -1.29638800 -1.50489400 2.48615200 0.00000000 0.00000200 0.00000000
28 4.51640500 -0.00514200 -2.48549200 0.47682000 1.13057900 1.68958900
29 4.33566500 -9.31782900 -3.27069300 3.00368300 0.19132800 -1.23299900
30 6.54782500 -0.58494100 2.04761000 0.00000000 0.00000200 0.00000000
31 5.51181500 0.00000800 -0.00000100 1.26606390 -0.00025916 -3.14127084
32 0.19684700 -0.00000100 0.00000300 2.79340697 -0.00039015 -3.14149391
33 3.24296000 -9.67361100 -1.48897800 1.97586200 1.15990900 1.84280300
34 6.21448500 0.00000600 0.00002000 -0.43798093 0.76080916 -1.60002078
35 11.94488500 -0.00002900 -0.00019400 -0.42974089 -0.34930923 -1.55554080
36 10.62016600 0.00000200 0.00001000 -1.43400402 -0.98495193 0.13185130
37 4.75115600 0.69437600 -0.83047300 -0.05602700 -0.27916300 0.54604800
38 1.68806500 -0.00002600 0.00000200 0.01539000 -0.01932400 0.76600700
39 1.33615100 -0.00005100 -0.00000900 -0.01007300 -0.03740000 0.63314200
40 4.82051300 0.50934000 0.22486500 -0.33338500 -0.24189700 1.38676300
41 1.82699600 0.00006600 0.00000800 -0.01526600 0.03746400 0.88753300
42 1.43657700 -0.00001000 0.00000700 -0.00389100 -0.01462300 1.09868500
43 3.99235300 0.89108700 1.82799400 -0.56486600 -0.22308000 1.17500100
44 1.40591800 0.00002100 -0.00000700 -0.00568500 -0.02893600 1.06850600
45 1.17536900 -0.00013100 0.00000200 0.10607100 0.06286200 0.99298000
46 4.52675600 0.69046000 1.12084200 -0.43875100 -0.18081400 1.40218300
47 1.74404100 -0.00003100 -0.00000200 -0.00550500 -0.01495600 1.15331800
48 1.36876300 -0.00003100 -0.00001700 0.05723200 0.13091500 0.99301600
49 1.86460400 0.94986600 -0.98556900 2.13900500 0.45946700 1.11095100
50 1.52344900 -0.00003400 -0.00000300 -0.46017900 -0.05709800 0.78018400
51 1.59928100 -0.00000200 0.00000900 0.08322400 -0.00653500 0.90419200
52 4.30971500 2.07443200 -1.27164000 -3.01379600 0.35420400 -2.68193300
53 0.04783500 -0.01874300 1.23517400 -0.00000100 0.00000000 0.00000000
54 -2.08522200 -0.00968900 0.29123300 -0.00000100 0.00000000 0.00000000
55 -1.29639700 -1.50489800 2.48616400 -0.00000100 0.00000000 -0.00000100
56 6.54782200 -0.58493800 2.04762000 -0.00000100 0.00000000 0.00000000
57 5.51180600 -0.00000200 0.00000600 -0.23579700 0.00000500 0.00000700
58 0.19685000 0.00000300 -0.00000200 -0.34822500 0.00001500 -0.00000200
59 0.00000000 0.00000000 0.00000000 0.00000000 0.00000000 -1.57079600
60 0.05262900 0.00000000 -0.39527200 0.00000000 0.00000000 0.00000000
61 -0.21726700 0.00000000 -0.61545300 0.00000000 0.00000000 0.00000000
time 7
0 -0.00000100 7.45008900 -27.50902600 0.00000000 0.00000000 0.00003100
1 -0.00000200 0.00000000 0.00000000 1.57074300 -1.56713700 -1.57074300
2 4.25546800 -0.33518300 -0.00000200 0.00000000 0.00000000 -0.12484800
3 7.43124800 1.49647700 0.00000200 0.00000000 0.00000000 0.24545000
4 5.27847900 0.16554100 0.00000100 0.00000000 0.00000000 0.04851100
5 3.24296100 -9.67361200 1.48897600 1.97586400 1.15990900 -1.29878600
6 -6.21448200 -0.00000700 -0.00002700 -2.65930044 -0.72070887 1.52271516
7 11.94488200 0.00000000 0.00000100 -1.80981250 -0.34856428 1.50018773
8 10.62018100 0.00000200 0.00000000 -0.03098278 -0.70018745 2.49798638
9 -4.75110600 -0.69449400 0.83057700 -0.13482700 -0.13716900 0.57386900
10 -1.68806800 0.00004600 -0.00003200 0.02023500 -0.01422900 0.48281900
11 -1.33614000 0.00005700 -0.00001200 0.02541900 0.00700600 0.28395600
12 -4.82049400 -0.50946000 -0.22475900 -0.22167300 -0.16487600 1.09608400
13 -1.82699200 -0.00006400 0.00000600 -0.00075400 0.04515300 1.13731700
14 -1.43657300 0.00000600 0.00000200 -0.05890600 -0.05081700 0.76792200
15 -3.99235500 -0.89118800 -1.82790900 -0.42234000 -0.18157200 0.58053200
16 -1.40591800 -0.00002500 -0.00000300 -0.02037100 -0.04590600 1.23673800
17 -1.17535800 0.00012800 -0.00002000 0.12880500 0.01657100 0.35385900
18 -4.52675100 -0.69057500 -1.12074400 -0.41795000 -0.15722600 1.08433300
19 -1.74403800 0.00003300 -0.00000800 -0.01333200 -0.01880300 1.23350000
20 -1.36877100 0.00002500 0.00000200 0.04417400 0.02828600 0.89690400
21 -1.71880600 -1.28270400 0.93153600 1.98258500 0.58454300 0.82372200
22 -1.52345300 0.00003200 0.00003100 -0.19097800 0.11191200 0.75188300
23 -1.59928500 0.00000400 0.00001600 -0.07634400 -0.04309900 0.82700900
24 -4.55332300 -1.97231900 1.39767500 -0.11901000 -0.22495700 0.46932700
25 0.04783700 -0.01874400 1.23517100 0.00000000 0.00000200 0.00000000
26 -2.08521900 -0.00968900 0.29123200 0.00000000 0.00000200 0.00000000
27 -1.29638800 -1.50489400 2.48615200 0.00000000 0.00000200 0.00000000
28 4.51640500 -0.00514200 -2.48549200 0.47682000 1.13057900 1.68958900
29 4.53952600 -9.64610100 -2.54238400 2.93294100 0.04105200 -1.25493900
30 6.54782500 -0.58494100 2.04761000 0.00000000 0.00000200 0.00000000
31 5.51181500 0.00000800 -0.00000100 1.26606390 -0.00025916 -3.14127084
32 0.19684700 -0.00000100 0.00000300 2.79340697 -0.00039015 -3.14149391
33 3.24296000 -9.67361100 -1.48897800 1.97586200 1.15990900 1.84280300
34 6.21448500 0.00000600 0.00002000 -0.35801905 0.68640822 -1.56516338
35 11.94488500 -0.00002900 -0.00019400 -0.46312645 -0.34729237 -1.45770807
36 10.62016600 0.00000200 0.00001000 -1.48868383 -0.94564376 0.18396995
37 4.75115600 0.69437600 -0.83047300 -0.05602700 -0.27916300 0.54604800
38 1.68806500 -0.00002600 0.00000200 0.01539000 -0.01932400 0.76600700
39 1.33615100 -0.00005100 -0.00000900 -0.01007300 -0.03740000 0.63314200
40 4.82051300 0.50934000 0.22486500 -0.33338500 -0.24189700 1.38676300
41 1.82699600 0.00006600 0.00000800 -0.01526600 0.03746400 0.88753300
42 1.43657700 -0.00001000 0.00000700 -0.00389100 -0.01462300 1.09868500
43 3.99235300 0.89108700 1.82799400 -0.56486600 -0.22308000 1.17500100
44 1.40591800 0.00002100 -0.00000700 -0.00568500 -0.02893600 1.06850600
45 1.17536900 -0.00013100 0.00000200 0.10607100 0.06286200 0.99298000
46 4.52675600 0.69046000 1.12084200 -0.43875100 -0.18081400 1.40218300
47 1.74404100 -0.00003100 -0.00000200 -0.00550500 -0.01495600 1.15331800
48 1.36876300 -0.00003100 -0.00001700 0.05723200 0.13091500 0.99301600
49 1.86460400 0.94986600 -0.98556900 2.13900500 0.45946700 1.11095100
50 1.52344900 -0.00003400 -0.00000300 -0.46017900 -0.05709800 0.78018400
51 1.59928100 -0.00000200 0.00000900 0.08322400 -0.00653500 0.90419200
52 4.30973200 2.07444900 -1.27162200 -3.01379600 0.35420400 -2.68193300
53 0.04783500 -0.01874300 1.23517400 -0.00000100 0.00000000 0.00000000
54 -2.08522200 -0.00968900 0.29123300 -0.00000100 0.00000000 0.00000000
55 -1.29639700 -1.50489800 2.48616400 -0.00000100 0.00000000 -0.00000100
56 6.54782200 -0.58493800 2.04762000 -0.00000100 0.00000000 0.00000000
57 5.51180600 -0.00000200 0.00000600 -0.23579700 0.00000500 0.00000700
58 0.19685000 0.00000300 -0.00000200 -0.34822500 0.00001500 -0.00000200
59 0.00000000 0.00000000 0.00000000 0.00000000 0.00000000 -1.57079600
60 0.05262900 0.00000000 -0.39527200 0.00000000 0.00000000 0.00000000
61 -0.21726700 0.00000000 -0.61545300 0.00000000 0.00000000 0.00000000
time 8
0 -0.00000100 7.45008900 -27.50902600 0.00000000 0.00000000 0.00003100
1 -0.00000200 0.00000000 0.00000000 1.57074300 -1.56713700 -1.57074300
2 4.25546800 -0.33518300 -0.00000200 0.00000000 0.00000000 -0.12484800
3 7.43124800 1.49647700 0.00000200 0.00000000 0.00000000 0.24545000
4 5.27847900 0.16554100 0.00000100 0.00000000 0.00000000 0.04851100
5 3.24296100 -9.67361200 1.48897600 1.97586400 1.15990900 -1.29878600
6 -6.21448200 -0.00000700 -0.00002700 -2.73419161 -0.69297624 1.56427675
7 11.94488200 0.00000000 0.00000100 -1.80278413 -0.34797111 1.47955224
8 10.62018100 0.00000200 0.00000000 -0.06508024 -0.70425170 2.49705967
9 -4.75110600 -0.69449400 0.83057700 -0.13482700 -0.13716900 0.57386900
10 -1.68806800 0.00004600 -0.00003200 0.02023500 -0.01422900 0.48281900
11 -1.33614000 0.00005700 -0.00001200 0.02541900 0.00700600 0.28395600
12 -4.82049400 -0.50946000 -0.22475900 -0.22167300 -0.16487600 1.09608400
13 -1.82699200 -0.00006400 0.00000600 -0.00075400 0.04515300 1.13731700
14 -1.43657300 0.00000600 0.00000200 -0.05890600 -0.05081700 0.76792200
15 -3.99235500 -0.89118800 -1.82790900 -0.42234000 -0.18157200 0.58053200
16 -1.40591800 -0.00002500 -0.00000300 -0.02037100 -0.04590600 1.23673800
17 -1.17535800 0.00012800 -0.00002000 0.12880500 0.01657100 0.35385900
18 -4.52675100 -0.69057500 -1.12074400 -0.41795000 -0.15722600 1.08433300
19 -1.74403800 0.00003300 -0.00000800 -0.01333200 -0.01880300 1.23350000
20 -1.36877100 0.00002500 0.00000200 0.04417400 0.02828600 0.89690400
21 -1.71880600 -1.28270400 0.93153600 1.98258500 0.58454300 0.82372200
22 -1.52345300 0.00003200 0.00003100 -0.19097800 0.11191200 0.75188300
23 -1.59928500 0.00000400 0.00001600 -0.07634400 -0.04309900 0.82700900
24 -4.55332300 -1.97231900 1.39767500 -0.11901000 -0.22495700 0.46932700
25 0.04783700 -0.01874400 1.23517100 0.00000000 0.00000200 0.00000000
26 -2.08521900 -0.00968900 0.29123200 0.00000000 0.00000200 0.00000000
27 -1.29638800 -1.50489400 2.48615200 0.00000000 0.00000200 0.00000000
28 4.51640500 -0.00514200 -2.48549200 0.47682000 1.13057900 1.68958900
29 4.32944700 -10.02354700 -2.11645600 2.91513100 -0.09678900 -1.26245000
30 6.54782500 -0.58494100 2.04761000 0.00000000 0.00000200 0.00000000
31 5.51181500 0.00000800 -0.00000100 1.26606390 -0.00025916 -3.14127084
32 0.19684700 -0.00000100 0.00000300 2.79340697 -0.00039015 -3.14149391
33 3.24296000 -9.67361100 -1.48897800 1.97586200 1.15990900 1.84280300
34 6.21448500 0.00000600 0.00002000 -0.29412935 0.62975079 -1.53458163
35 11.94488500 -0.00002900 -0.00019400 -0.48566291 -0.34410194 -1.39120622
36 10.62016600 0.00000200 0.00001000 -1.47526125 -0.89300417 0.18343888
37 4.75115600 0.69437600 -0.83047300 -0.05602700 -0.27916300 0.54604800
38 1.68806500 -0.00002600 0.00000200 0.01539000 -0.01932400 0.76600700
39 1.33615100 -0.00005100 -0.00000900 -0.01007300 -0.03740000 0.63314200
40 4.82051300 0.50934000 0.22486500 -0.33338500 -0.24189700 1.38676300
41 1.82699600 0.00006600 0.00000800 -0.01526600 0.03746400 0.88753300
42 1.43657700 -0.00001000 0.00000700 -0.00389100 -0.01462300 1.09868500
43 3.99235300 0.89108700 1.82799400 -0.56486600 -0.22308000 1.17500100
44 1.40591800 0.00002100 -0.00000700 -0.00568500 -0.02893600 1.06850600
45 1.17536900 -0.00013100 0.00000200 0.10607100 0.06286200 0.99298000
46 4.52675600 0.69046000 1.12084200 -0.43875100 -0.18081400 1.40218300
47 1.74404100 -0.00003100 -0.00000200 -0.00550500 -0.01495600 1.15331800
48 1.36876300 -0.00003100 -0.00001700 0.05723200 0.13091500 0.99301600
49 1.86460400 0.94986600 -0.98556900 2.13900500 0.45946700 1.11095100
50 1.52344900 -0.00003400 -0.00000300 -0.46017900 -0.05709800 0.78018400
51 1.59928100 -0.00000200 0.00000900 0.08322400 -0.00653500 0.90419200
52 4.30974800 2.07445700 -1.27161800 -3.01379600 0.35420400 -2.68193300
53 0.04783500 -0.01874300 1.23517400 -0.00000100 0.00000000 0.00000000
54 -2.08522200 -0.00968900 0.29123300 -0.00000100 0.00000000 0.00000000
55 -1.29639700 -1.50489800 2.48616400 -0.00000100 0.00000000 -0.00000100
56 6.54782200 -0.58493800 2.04762000 -0.00000100 0.00000000 0.00000000
57 5.51180600 -0.00000200 0.00000600 -0.23579700 0.00000500 0.00000700
58 0.19685000 0.00000300 -0.00000200 -0.34822500 0.00001500 -0.00000200
59 0.00000000 0.00000000 0.00000000 0.00000000 0.00000000 -1.57079600
60 0.05262900 0.00000000 -0.39527200 0.00000000 0.00000000 0.00000000
61 -0.21726700 0.00000000 -0.61545300 0.00000000 0.00000000 0.00000000
time 9
0 -0.00000100 7.45008900 -27.50902600 0.00000000 0.00000000 0.00003100
1 -0.00000200 0.00000000 0.00000000 1.57074300 -1.56713700 -1.57074300
2 4.25546800 -0.33518300 -0.00000200 0.00000000 0.00000000 -0.12484800
3 7.43124800 1.49647700 0.00000200 0.00000000 0.00000000 0.24545000
4 5.27847900 0.16554100 0.00000100 0.00000000 0.00000000 0.04851100
5 3.24296100 -9.67361200 1.48897600 1.97586400 1.15990900 -1.29878600
6 -6.21448200 -0.00000700 -0.00002700 -2.78445115 -0.67499448 1.59292358
7 11.94488200 0.00000000 0.00000100 -1.80182835 -0.34798600 1.47656217
8 10.62018100 0.00000200 0.00000000 -0.08554101 -0.71791335 2.49615833
9 -4.75110600 -0.69449400 0.83057700 -0.13482700 -0.13716900 0.57386900
10 -1.68806800 0.00004600 -0.00003200 0.02023500 -0.01422900 0.48281900
11 -1.33614000 0.00005700 -0.00001200 0.02541900 0.00700600 0.28395600
12 -4.82049400 -0.50946000 -0.22475900 -0.22167300 -0.16487600 1.09608400
13 -1.82699200 -0.00006400 0.00000600 -0.00075400 0.04515300 1.13731700
14 -1.43657300 0.00000600 0.00000200 -0.05890600 -0.05081700 0.76792200
15 -3.99235500 -0.89118800 -1.82790900 -0.42234000 -0.18157200 0.58053200
16 -1.40591800 -0.00002500 -0.00000300 -0.02037100 -0.04590600 1.23673800
17 -1.17535800 0.00012800 -0.00002000 0.12880500 0.01657100 0.35385900
18 -4.52675100 -0.69057500 -1.12074400 -0.41795000 -0.15722600 1.08433300
19 -1.74403800 0.00003300 -0.00000800 -0.01333200 -0.01880300 1.23350000
20 -1.36877100 0.00002500 0.00000200 0.04417400 0.02828600 0.89690400
21 -1.71880600 -1.28270400 0.93153600 1.98258500 0.58454300 0.82372200
22 -1.52345300 0.00003200 0.00003100 -0.19097800 0.11191200 0.75188300
23 -1.59928500 0.00000400 0.00001600 -0.07634400 -0.04309900 0.82700900
24 -4.55332300 -1.97231900 1.39767500 -0.11901000 -0.22495700 0.46932700
25 0.04783700 -0.01874400 1.23517100 0.00000000 0.00000200 0.00000000
26 -2.08521900 -0.00968900 0.29123200 0.00000000 0.00000200 0.00000000
27 -1.29638800 -1.50489400 2.48615200 0.00000000 0.00000200 0.00000000
28 4.51640500 -0.00514200 -2.48549200 0.47682000 1.13057900 1.68958900
29 4.17057600 -10.32540300 -1.91145600 2.89439000 -0.19379600 -1.26689200
30 6.54782500 -0.58494100 2.04761000 0.00000000 0.00000200 0.00000000
31 5.51181500 0.00000800 -0.00000100 1.26606390 -0.00025916 -3.14127084
32 0.19684700 -0.00000100 0.00000300 2.79340697 -0.00039015 -3.14149391
33 3.24296000 -9.67361100 -1.48897800 1.97586200 1.15990900 1.84280300
34 6.21448500 0.00000600 0.00002000 -0.25202157 0.59318420 -1.51247589
35 11.94488500 -0.00002900 -0.00019400 -0.49840491 -0.34171178 -1.35340041
36 10.62016600 0.00000200 0.00001000 -1.43745659 -0.84929350 0.16508901
37 4.75115600 0.69437600 -0.83047300 -0.05602700 -0.27916300 0.54604800
38 1.68806500 -0.00002600 0.00000200 0.01539000 -0.01932400 0.76600700
39 1.33615100 -0.00005100 -0.00000900 -0.01007300 -0.03740000 0.63314200
40 4.82051300 0.50934000 0.22486500 -0.33338500 -0.24189700 1.38676300
41 1.82699600 0.00006600 0.00000800 -0.01526600 0.03746400 0.88753300
42 1.43657700 -0.00001000 0.00000700 -0.00389100 -0.01462300 1.09868500
43 3.99235300 0.89108700 1.82799400 -0.56486600 -0.22308000 1.17500100
44 1.40591800 0.00002100 -0.00000700 -0.00568500 -0.02893600 1.06850600
45 1.17536900 -0.00013100 0.00000200 0.10607100 0.06286200 0.99298000
46 4.52675600 0.69046000 1.12084200 -0.43875100 -0.18081400 1.40218300
47 1.74404100 -0.00003100 -0.00000200 -0.00550500 -0.01495600 1.15331800
48 1.36876300 -0.00003100 -0.00001700 0.05723200 0.13091500 0.99301600
49 1.86460400 0.94986600 -0.98556900 2.13900500 0.45946700 1.11095100
50 1.52344900 -0.00003400 -0.00000300 -0.46017900 -0.05709800 0.78018400
51 1.59928100 -0.00000200 0.00000900 0.08322400 -0.00653500 0.90419200
52 4.30974700 2.07445500 -1.27162000 -3.01379600 0.35420400 -2.68193300
53 0.04783500 -0.01874300 1.23517400 -0.00000100 0.00000000 0.00000000
54 -2.08522200 -0.00968900 0.29123300 -0.00000100 0.00000000 0.00000000
55 -1.29639700 -1.50489800 2.48616400 -0.00000100 0.00000000 -0.00000100
56 6.54782200 -0.58493800 2.04762000 -0.00000100 0.00000000 0.00000000
57 5.51180600 -0.00000200 0.00000600 -0.23579700 0.00000500 0.00000700
58 0.19685000 0.00000300 -0.00000200 -0.34822500 0.00001500 -0.00000200
59 0.00000000 0.00000000 0.00000000 0.00000000 0.00000000 -1.57079600
60 0.05262900 0.00000000 -0.39527200 0.00000000 0.00000000 0.00000000
61 -0.21726700 0.00000000 -0.61545300 0.00000000 0.00000000 0.00000000
time 10
0 -0.00000100 7.45008900 -27.50902600 0.00000000 0.00000000 0.00003100
1 -0.00000200 0.00000000 0.00000000 1.57074300 -1.56713700 -1.57074300
2 4.25546800 -0.33518300 -0.00000200 0.00000000 0.00000000 -0.12484800
3 7.43124800 1.49647700 0.00000200 0.00000000 0.00000000 0.24545000
4 5.27847900 0.16554100 0.00000100 0.00000000 0.00000000 0.04851100
5 3.24296100 -9.67361200 1.48897600 1.97586400 1.15990900 -1.29878600
6 -6.21448200 -0.00000700 -0.00002700 -2.80273661 -0.66929477 1.60548361
7 11.94488200 0.00000000 0.00000100 -1.80354941 -0.34808328 1.48176779
8 10.62018100 0.00000200 0.00000000 -0.08513119 -0.72862697 2.50041821
9 -4.75110600 -0.69449400 0.83057700 -0.13482700 -0.13716900 0.57386900
10 -1.68806800 0.00004600 -0.00003200 0.02023500 -0.01422900 0.48281900
11 -1.33614000 0.00005700 -0.00001200 0.02541900 0.00700600 0.28395600
12 -4.82049400 -0.50946000 -0.22475900 -0.22167300 -0.16487600 1.09608400
13 -1.82699200 -0.00006400 0.00000600 -0.00075400 0.04515300 1.13731700
14 -1.43657300 0.00000600 0.00000200 -0.05890600 -0.05081700 0.76792200
15 -3.99235500 -0.89118800 -1.82790900 -0.42234000 -0.18157200 0.58053200
16 -1.40591800 -0.00002500 -0.00000300 -0.02037100 -0.04590600 1.23673800
17 -1.17535800 0.00012800 -0.00002000 0.12880500 0.01657100 0.35385900
18 -4.52675100 -0.69057500 -1.12074400 -0.41795000 -0.15722600 1.08433300
19 -1.74403800 0.00003300 -0.00000800 -0.01333200 -0.01880300 1.23350000
20 -1.36877100 0.00002500 0.00000200 0.04417400 0.02828600 0.89690400
21 -1.71880600 -1.28270400 0.93153600 1.98258500 0.58454300 0.82372200
22 -1.52345300 0.00003200 0.00003100 -0.19097800 0.11191200 0.75188300
23 -1.59928500 0.00000400 0.00001600 -0.07634400 -0.04309900 0.82700900
24 -4.55332300 -1.97231900 1.39767500 -0.11901000 -0.22495700 0.46932700
25 0.04783700 -0.01874400 1.23517100 0.00000000 0.00000200 0.00000000
26 -2.08521900 -0.00968900 0.29123200 0.00000000 0.00000200 0.00000000
27 -1.29638800 -1.50489400 2.48615200 0.00000000 0.00000200 0.00000000
28 4.51640500 -0.00514200 -2.48549200 0.47682000 1.13057900 1.68958900
29 4.10786100 -10.45101300 -1.85914000 2.88433700 -0.23055600 -1.26824600
30 6.54782500 -0.58494100 2.04761000 0.00000000 0.00000200 0.00000000
31 5.51181500 0.00000800 -0.00000100 1.26606390 -0.00025916 -3.14127084
32 0.19684700 -0.00000100 0.00000300 2.79340697 -0.00039015 -3.14149391
33 3.24296000 -9.67361100 -1.48897800 1.97586200 1.15990900 1.84280300
34 6.21448500 0.00000600 0.00002000 -0.23687402 0.58019214 -1.50380511
35 11.94488500 -0.00002900 -0.00019400 -0.50296032 -0.34068815 -1.33982207
36 10.62016600 0.00000200 0.00001000 -1.41155780 -0.83000610 0.15279793
37 4.75115600 0.69437600 -0.83047300 -0.05602700 -0.27916300 0.54604800
38 1.68806500 -0.00002600 0.00000200 0.01539000 -0.01932400 0.76600700
39 1.33615100 -0.00005100 -0.00000900 -0.01007300 -0.03740000 0.63314200
40 4.82051300 0.50934000 0.22486500 -0.33338500 -0.24189700 1.38676300
41 1.82699600 0.00006600 0.00000800 -0.01526600 0.03746400 0.88753300
42 1.43657700 -0.00001000 0.00000700 -0.00389100 -0.01462300 1.09868500
43 3.99235300 0.89108700 1.82799400 -0.56486600 -0.22308000 1.17500100
44 1.40591800 0.00002100 -0.00000700 -0.00568500 -0.02893600 1.06850600
45 1.17536900 -0.00013100 0.00000200 0.10607100 0.06286200 0.99298000
46 4.52675600 0.69046000 1.12084200 -0.43875100 -0.18081400 1.40218300
47 1.74404100 -0.00003100 -0.00000200 -0.00550500 -0.01495600 1.15331800
48 1.36876300 -0.00003100 -0.00001700 0.05723200 0.13091500 0.99301600
49 1.86460400 0.94986600 -0.98556900 2.13900500 0.45946700 1.11095100
50 1.52344900 -0.00003400 -0.00000300 -0.46017900 -0.05709800 0.78018400
51 1.59928100 -0.00000200 0.00000900 0.08322400 -0.00653500 0.90419200
52 4.30975100 2.07445300 -1.27161700 -3.01379600 0.35420400 -2.68193300
53 0.04783500 -0.01874300 1.23517400 -0.00000100 0.00000000 0.00000000
54 -2.08522200 -0.00968900 0.29123300 -0.00000100 0.00000000 0.00000000
55 -1.29639700 -1.50489800 2.48616400 -0.00000100 0.00000000 -0.00000100
56 6.54782200 -0.58493800 2.04762000 -0.00000100 0.00000000 0.00000000
57 5.51180600 -0.00000200 0.00000600 -0.23579700 0.00000500 0.00000700
58 0.19685000 0.00000300 -0.00000200 -0.34822500 0.00001500 -0.00000200
59 0.00000000 0.00000000 0.00000000 0.00000000 0.00000000 -1.57079600
60 0.05262900 0.00000000 -0.39527200 0.00000000 0.00000000 0.00000000
61 -0.21726700 0.00000000 -0.61545300 0.00000000 0.00000000 0.00000000
end
