// Created by Crowbar 0.74
version 1
nodes
  0 "root" -1
  1 "pelvis" 0
  2 "spine_01" 1
  3 "spine_02" 2
  4 "spine_03" 3
  5 "clavicle_r" 4
  6 "upperarm_r" 5
  7 "lowerarm_r" 6
  8 "hand_r" 7
  9 "index_01_r" 8
  10 "index_02_r" 9
  11 "index_03_r" 10
  12 "middle_01_r" 8
  13 "middle_02_r" 12
  14 "middle_03_r" 13
  15 "pinky_01_r" 8
  16 "pinky_02_r" 15
  17 "pinky_03_r" 16
  18 "ring_01_r" 8
  19 "ring_02_r" 18
  20 "ring_03_r" 19
  21 "thumb_01_r" 8
  22 "thumb_02_r" 21
  23 "thumb_03_r" 22
  24 "lowerarm_twist_01_r" 7
  25 "upperarm_twist_01_r" 6
  26 "clavicle_l" 4
  27 "upperarm_l" 26
  28 "lowerarm_l" 27
  29 "hand_l" 28
  30 "index_01_l" 29
  31 "index_02_l" 30
  32 "index_03_l" 31
  33 "middle_01_l" 29
  34 "middle_02_l" 33
  35 "middle_03_l" 34
  36 "pinky_01_l" 29
  37 "pinky_02_l" 36
  38 "pinky_03_l" 37
  39 "ring_01_l" 29
  40 "ring_02_l" 39
  41 "ring_03_l" 40
  42 "thumb_01_l" 29
  43 "thumb_02_l" 42
  44 "thumb_03_l" 43
  45 "lowerarm_twist_01_l" 28
  46 "upperarm_twist_01_l" 27
  47 "cam_driver" -1
  48 "Base" -1
  49 "rhand_ikTarget" 48
  50 "Handle" 48
  51 "Trigger" 50
  52 "BarrelRelease" 50
  53 "Shell" 48
  54 "ShellTip" 53
  55 "lhand_ikTarget" 48
end
skeleton
  time 0
    0 -0.000001 8.445313 -27.500000 0.000000 0.000000 -0.000001
    1 -0.000002 0.000000 0.000000 1.570747 -1.567142 -1.570747
    2 4.255466 -0.335183 -0.000002 0.000000 0.000000 -0.124848
    3 7.431250 1.496479 0.000002 0.000000 0.000000 0.245450
    4 5.278479 0.165544 0.000001 0.000000 0.000000 0.048511
    5 -1.156250 -7.234375 1.488281 1.975865 1.159909 -1.298786
    6 -6.214478 -0.000009 -0.000026 3.588342 -0.289677 1.587133
    7 11.944885 0.000000 0.000000 -0.278316 -0.345189 1.731241
    8 10.620188 0.000000 0.000000 1.140720 -0.247214 1.512044
    9 -4.751108 -0.694498 0.830580 0.091089 -0.137791 0.512572
    10 -1.688068 0.000047 -0.000031 0.021339 -0.012592 0.401006
    11 -1.336140 0.000055 -0.000010 0.026028 0.004411 0.385914
    12 -4.820494 -0.509464 -0.224759 -0.483770 0.048669 1.471721
    13 -1.826984 -0.000069 0.000008 -0.020071 0.035210 0.755575
    14 -1.436569 0.000004 0.000003 -0.037180 -0.068375 0.406210
    15 -3.992357 -0.891191 -1.827909 -0.663700 0.330731 1.641158
    16 -1.405918 -0.000025 -0.000002 0.015413 -0.025188 0.326537
    17 -1.175358 0.000126 -0.000019 0.035883 0.057750 0.459783
    18 -4.526751 -0.690580 -1.120741 -0.566792 0.240105 1.658922
    19 -1.744038 0.000032 -0.000008 -0.003776 -0.029371 0.538782
    20 -1.368771 0.000023 0.000002 0.026576 0.045310 0.425758
    21 -1.874796 -0.935125 0.999175 2.324522 0.378348 1.332630
    22 -1.523447 0.000031 0.000031 0.050586 0.166436 0.397571
    23 -1.599285 0.000011 0.000015 0.027731 -0.032813 0.849193
    24 5.511820 0.000008 -0.000002 2.907040 -0.050466 3.092448
    25 0.196846 -0.000002 0.000003 2.793407 0.000006 -3.141577
    26 -2.098896 -13.087720 -2.942147 2.139883 1.274363 2.017310
    27 6.214486 0.000008 0.000019 -0.522777 0.313989 -2.141038
    28 11.944888 -0.000031 -0.000200 -0.877912 -0.277727 -0.898956
    29 10.620165 0.000002 0.000006 -2.805082 -0.384901 0.505052
    30 4.751158 0.694374 -0.830474 0.397153 -0.126288 -0.041558
    31 1.688065 -0.000022 0.000002 0.008622 -0.023226 1.083578
    32 1.336151 -0.000051 -0.000009 -0.029733 -0.024874 1.245624
    33 4.820515 0.509338 0.224866 -0.031966 -0.281670 0.635635
    34 1.826992 0.000066 0.000010 0.024005 0.032651 1.907846
    35 1.436581 -0.000006 0.000010 0.015170 -0.000693 -0.684193
    36 3.992353 0.891087 1.827993 -0.456713 -0.110919 1.257059
    37 1.405926 0.000031 -0.000003 -0.015539 -0.025101 1.430077
    38 1.175362 -0.000132 0.000001 -0.058407 0.108647 -0.539646
    39 4.526758 0.690464 1.120843 -0.278067 -0.219562 1.109903
    40 1.744041 -0.000031 -0.000002 -0.027862 -0.010047 1.635993
    41 1.368767 -0.000031 -0.000018 -0.094437 0.127744 -0.824846
    42 1.874857 0.935081 -0.999129 1.749196 0.271567 0.493460
    43 1.550797 -0.293010 0.136721 0.105508 -0.217335 -0.082620
    44 1.599281 -0.000004 0.000010 0.039764 0.073479 -0.247738
    45 5.511806 -0.000002 0.000003 -0.806744 0.000005 0.000007
    46 0.196849 0.000003 -0.000001 -0.348225 0.000015 -0.000002
    47 0.000000 0.999512 0.000000 0.000000 0.000000 -1.570796
    48 -4.525663 -19.832160 -5.771154 0.058255 0.068526 1.570757
    49 10.507813 1.268555 0.331787 -0.768919 1.026263 0.762760
    50 -2.845604 0.419043 -0.467847 0.000000 0.000000 0.000000
    51 6.850185 -0.544975 -0.107286 0.000000 0.000000 0.000000
    52 6.282042 -0.570026 2.993409 0.000000 0.000000 0.000000
    53 0.456358 -0.073310 1.286493 0.000000 0.000000 0.000000
    54 -0.892130 0.000000 0.000000 0.000000 0.000000 0.000000
    55 1.079403 -2.486098 -2.090076 2.985660 1.179572 -2.432297
  time 1
    0 -0.000001 8.445313 -27.500000 0.000000 0.000000 -0.000001
    1 -0.000002 0.000000 0.000000 1.570747 -1.567142 -1.570747
    2 4.255466 -0.335183 -0.000002 0.000000 0.000000 -0.124848
    3 7.431250 1.496479 0.000002 0.000000 0.000000 0.245450
    4 5.278479 0.165544 0.000001 0.000000 0.000000 0.048511
    5 -1.156250 -7.234375 1.488281 1.975865 1.159909 -1.298786
    6 -6.214478 -0.000009 -0.000026 3.587762 -0.293077 1.591012
    7 11.944885 0.000000 0.000000 -0.286987 -0.343763 1.756898
    8 10.620188 0.000000 0.000000 1.121315 -0.253806 1.487032
    9 -4.751108 -0.694498 0.830580 0.091089 -0.137791 0.512572
    10 -1.688068 0.000047 -0.000031 0.021339 -0.012592 0.401006
    11 -1.336140 0.000055 -0.000010 0.026028 0.004411 0.385914
    12 -4.820494 -0.509464 -0.224759 -0.483770 0.048669 1.471721
    13 -1.826984 -0.000069 0.000008 -0.020071 0.035210 0.755575
    14 -1.436569 0.000004 0.000003 -0.037180 -0.068375 0.406210
    15 -3.992357 -0.891191 -1.827909 -0.663700 0.330731 1.641158
    16 -1.405918 -0.000025 -0.000002 0.015413 -0.025188 0.326537
    17 -1.175358 0.000126 -0.000019 0.035883 0.057750 0.459783
    18 -4.526751 -0.690580 -1.120741 -0.566792 0.240105 1.658922
    19 -1.744038 0.000032 -0.000008 -0.003776 -0.029371 0.538782
    20 -1.368771 0.000023 0.000002 0.026576 0.045310 0.425758
    21 -1.874796 -0.935125 0.999175 2.324522 0.378348 1.332630
    22 -1.523447 0.000031 0.000031 0.050586 0.166436 0.397571
    23 -1.599285 0.000011 0.000015 0.027731 -0.032813 0.849193
    24 5.511820 0.000008 -0.000002 2.907040 -0.050466 3.092448
    25 0.196846 -0.000002 0.000003 2.793407 0.000006 -3.141577
    26 -2.130147 -13.146316 -2.918709 2.135436 1.272229 2.012660
    27 6.214486 0.000008 0.000019 -0.506230 0.319688 -2.130381
    28 11.944888 -0.000031 -0.000200 -0.833008 -0.286991 -0.944593
    29 10.620165 0.000002 0.000006 -2.842409 -0.379295 0.561765
    30 4.751158 0.694374 -0.830474 0.394193 -0.120356 -0.024540
    31 1.688065 -0.000022 0.000002 0.009784 -0.022758 1.033222
    32 1.336151 -0.000051 -0.000009 -0.027984 -0.026839 1.177820
    33 4.820515 0.509338 0.224866 -0.029557 -0.281686 0.632788
    34 1.826992 0.000066 0.000010 0.020757 0.034797 1.811919
    35 1.436581 -0.000006 0.000010 0.015134 -0.001244 -0.648290
    36 3.992353 0.891087 1.827993 -0.450757 -0.123443 1.238435
    37 1.405926 0.000031 -0.000003 -0.013658 -0.026180 1.356762
    38 1.175362 -0.000132 0.000001 -0.058335 0.108695 -0.538954
    39 4.526758 0.690464 1.120843 -0.277968 -0.225627 1.094377
    40 1.744041 -0.000031 -0.000002 -0.027071 -0.011880 1.571095
    41 1.368767 -0.000031 -0.000018 -0.094497 0.127696 -0.825307
    42 1.878763 0.935081 -0.995223 1.762109 0.311763 0.517038
    43 1.546891 -0.273478 0.128908 0.095573 -0.209868 -0.075681
    44 1.599281 -0.000004 0.000010 0.038949 0.073911 -0.258808
    45 5.511806 -0.000002 0.000003 -0.795504 0.000005 0.000007
    46 0.196849 0.000003 -0.000001 -0.348225 0.000015 -0.000002
    47 0.000000 0.999512 0.000000 0.000000 0.000000 -1.570796
    48 -4.549102 -19.617309 -5.755529 0.031488 0.067657 1.565873
    49 10.507813 1.268555 0.331787 -0.768919 1.026263 0.762760
    50 -2.845604 0.419043 -0.467847 0.000000 0.000000 0.000000
    51 6.850185 -0.544975 -0.107286 0.000000 0.000000 0.000000
    52 6.282042 -0.570026 2.993409 0.000000 0.000000 0.000000
    53 0.456358 -0.073310 1.286493 0.000000 0.000000 0.000000
    54 -0.892130 0.000000 0.000000 0.000000 0.000000 0.000000
    55 1.079403 -2.486098 -2.090076 2.985660 1.179572 -2.432297
  time 2
    0 -0.000001 8.445313 -27.500000 0.000000 0.000000 -0.000001
    1 -0.000002 0.000000 0.000000 1.570747 -1.567142 -1.570747
    2 4.255466 -0.335183 -0.000002 0.000000 0.000000 -0.124848
    3 7.431250 1.496479 0.000002 0.000000 0.000000 0.245450
    4 5.278479 0.165544 0.000001 0.000000 0.000000 0.048511
    5 -1.156250 -7.234375 1.488281 1.975865 1.159909 -1.298786
    6 -6.214478 -0.000009 -0.000026 3.587898 -0.297930 1.598112
    7 11.944885 0.000000 0.000000 -0.305210 -0.340048 1.811242
    8 10.620188 0.000000 0.000000 1.073505 -0.272236 1.427084
    9 -4.751108 -0.694498 0.830580 0.091089 -0.137791 0.512572
    10 -1.688068 0.000047 -0.000031 0.021339 -0.012592 0.401006
    11 -1.336140 0.000055 -0.000010 0.026028 0.004411 0.385914
    12 -4.820494 -0.509464 -0.224759 -0.483770 0.048669 1.471721
    13 -1.826984 -0.000069 0.000008 -0.020071 0.035210 0.755575
    14 -1.436569 0.000004 0.000003 -0.037180 -0.068375 0.406210
    15 -3.992357 -0.891191 -1.827909 -0.663700 0.330731 1.641158
    16 -1.405918 -0.000025 -0.000002 0.015413 -0.025188 0.326537
    17 -1.175358 0.000126 -0.000019 0.035883 0.057750 0.459783
    18 -4.526751 -0.690580 -1.120741 -0.566792 0.240105 1.658922
    19 -1.744038 0.000032 -0.000008 -0.003776 -0.029371 0.538782
    20 -1.368771 0.000023 0.000002 0.026576 0.045310 0.425758
    21 -1.874796 -0.935125 0.999175 2.324522 0.378348 1.332630
    22 -1.523447 0.000031 0.000031 0.050586 0.166436 0.397571
    23 -1.599285 0.000011 0.000015 0.027731 -0.032813 0.849193
    24 5.511820 0.000008 -0.000002 2.907040 -0.050466 3.092448
    25 0.196846 -0.000002 0.000003 2.793407 0.000006 -3.141577
    26 -2.212181 -13.310383 -2.860113 2.123476 1.266273 2.000136
    27 6.214486 0.000008 0.000019 -0.466111 0.324930 -2.108164
    28 11.944888 -0.000031 -0.000200 -0.716235 -0.304704 -1.041963
    29 10.620165 0.000002 0.000006 -2.936983 -0.338945 0.698755
    30 4.751158 0.694374 -0.830474 0.387218 -0.105627 0.018956
    31 1.688065 -0.000022 0.000002 0.012649 -0.021308 0.903318
    32 1.336151 -0.000051 -0.000009 -0.022770 -0.031382 0.999236
    33 4.820515 0.509338 0.224866 -0.023505 -0.281467 0.625685
    34 1.826992 0.000066 0.000010 0.011241 0.038931 1.554993
    35 1.436581 -0.000006 0.000010 0.014966 -0.002610 -0.557678
    36 3.992353 0.891087 1.827993 -0.434697 -0.155586 1.189947
    37 1.405926 0.000031 -0.000003 -0.008432 -0.028301 1.165561
    38 1.175362 -0.000132 0.000001 -0.057796 0.108971 -0.534054
    39 4.526758 0.690464 1.120843 -0.279346 -0.241183 1.054924
    40 1.744041 -0.000031 -0.000002 -0.024387 -0.016482 1.398934
    41 1.368767 -0.000031 -0.000018 -0.094604 0.127624 -0.826132
    42 1.886576 0.942894 -0.983504 1.800362 0.412386 0.581081
    43 1.542985 -0.218789 0.101564 0.070166 -0.190801 -0.055786
    44 1.599281 -0.000004 0.000010 0.036888 0.074965 -0.286609
    45 5.511806 -0.000002 0.000003 -0.764584 0.000005 0.000007
    46 0.196849 0.000003 -0.000001 -0.348225 0.000015 -0.000002
    47 0.000000 0.999512 0.000000 0.000000 0.000000 -1.570796
    48 -4.627229 -19.140732 -5.728184 -0.035689 0.062157 1.553712
    49 10.507813 1.268555 0.331787 -0.768919 1.026263 0.762760
    50 -2.845604 0.419043 -0.467847 0.000000 0.000000 0.000000
    51 6.850185 -0.544975 -0.107286 0.000000 0.000000 0.000000
    52 6.282042 -0.570026 2.993409 0.000000 0.000000 0.000000
    53 0.456358 -0.073310 1.286493 0.000000 0.000000 0.000000
    54 -0.892130 0.000000 0.000000 0.000000 0.000000 0.000000
    55 1.079403 -2.486098 -2.090076 2.985660 1.179572 -2.432297
  time 3
    0 -0.000001 8.445313 -27.500000 0.000000 0.000000 -0.000001
    1 -0.000002 0.000000 0.000000 1.570747 -1.567142 -1.570747
    2 4.255466 -0.335183 -0.000002 0.000000 0.000000 -0.124848
    3 7.431250 1.496479 0.000002 0.000000 0.000000 0.245450
    4 5.278479 0.165544 0.000001 0.000000 0.000000 0.048511
    5 -1.156250 -7.234375 1.488281 1.975865 1.159909 -1.298786
    6 -6.214478 -0.000009 -0.000026 3.591756 -0.297080 1.602714
    7 11.944885 0.000000 0.000000 -0.321899 -0.335758 1.861580
    8 10.620188 0.000000 0.000000 1.013827 -0.301474 1.355260
    9 -4.751108 -0.694498 0.830580 0.091089 -0.137791 0.512572
    10 -1.688068 0.000047 -0.000031 0.021339 -0.012592 0.401006
    11 -1.336140 0.000055 -0.000010 0.026028 0.004411 0.385914
    12 -4.820494 -0.509464 -0.224759 -0.483770 0.048669 1.471721
    13 -1.826984 -0.000069 0.000008 -0.020071 0.035210 0.755575
    14 -1.436569 0.000004 0.000003 -0.037180 -0.068375 0.406210
    15 -3.992357 -0.891191 -1.827909 -0.663700 0.330731 1.641158
    16 -1.405918 -0.000025 -0.000002 0.015413 -0.025188 0.326537
    17 -1.175358 0.000126 -0.000019 0.035883 0.057750 0.459783
    18 -4.526751 -0.690580 -1.120741 -0.566792 0.240105 1.658922
    19 -1.744038 0.000032 -0.000008 -0.003776 -0.029371 0.538782
    20 -1.368771 0.000023 0.000002 0.026576 0.045310 0.425758
    21 -1.874796 -0.935125 0.999175 2.324522 0.378348 1.332630
    22 -1.523447 0.000031 0.000031 0.050586 0.166436 0.397571
    23 -1.599285 0.000011 0.000015 0.027731 -0.032813 0.849193
    24 5.511820 0.000008 -0.000002 2.907040 -0.050466 3.092448
    25 0.196846 -0.000002 0.000003 2.793407 0.000006 -3.141577
    26 -2.341091 -13.556485 -2.774173 2.106290 1.257201 1.982088
    27 6.214486 0.000008 0.000019 -0.430260 0.312831 -2.075741
    28 11.944888 -0.000031 -0.000200 -0.576837 -0.308863 -1.067410
    29 10.620165 0.000002 0.000006 -2.961679 -0.137196 0.769076
    30 4.751158 0.694374 -0.830474 0.379068 -0.086739 0.077629
    31 1.688065 -0.000022 0.000002 0.016196 -0.018756 0.726847
    32 1.336151 -0.000051 -0.000009 -0.014321 -0.036020 0.749615
    33 4.820515 0.509338 0.224866 -0.015583 -0.280709 0.616421
    34 1.826992 0.000066 0.000010 -0.003332 0.040382 1.191751
    35 1.436581 -0.000006 0.000010 0.014547 -0.004372 -0.438486
    36 3.992353 0.891087 1.827993 -0.411004 -0.198994 1.122539
    37 1.405926 0.000031 -0.000003 -0.000822 -0.029512 0.903796
    38 1.175362 -0.000132 0.000001 -0.056346 0.109738 -0.520738
    39 4.526758 0.690464 1.120843 -0.284744 -0.262455 1.002240
    40 1.744041 -0.000031 -0.000002 -0.019233 -0.022103 1.155364
    41 1.368767 -0.000031 -0.000018 -0.094664 0.127576 -0.826641
    42 1.898295 0.950707 -0.967878 1.865457 0.541520 0.677812
    43 1.535172 -0.144568 0.066406 0.036034 -0.164878 -0.024243
    44 1.599281 -0.000004 0.000010 0.034155 0.076248 -0.322812
    45 5.511806 -0.000002 0.000003 -0.718204 0.000005 0.000007
    46 0.196849 0.000003 -0.000001 -0.348225 0.000015 -0.000002
    47 0.000000 0.999512 0.000000 0.000000 0.000000 -1.570796
    48 -4.756139 -18.664155 -5.700839 -0.123253 0.047668 1.538007
    49 10.507813 1.268555 0.331787 -0.768919 1.026263 0.762760
    50 -2.845604 0.419043 -0.467847 0.000000 0.000000 0.000000
    51 6.850185 -0.544975 -0.107286 0.000000 0.000000 0.000000
    52 6.282042 -0.570026 2.993409 0.000000 0.000000 0.000000
    53 0.456358 -0.073310 1.286493 0.000000 0.000000 0.000000
    54 -0.892130 0.000000 0.000000 0.000000 0.000000 0.000000
    55 0.321567 -2.775169 -2.429930 3.011064 1.129172 -2.474093
  time 4
    0 -0.000001 8.445313 -27.500000 0.000000 0.000000 -0.000001
    1 -0.000002 0.000000 0.000000 1.570747 -1.567142 -1.570747
    2 4.255466 -0.335183 -0.000002 0.000000 0.000000 -0.124848
    3 7.431250 1.496479 0.000002 0.000000 0.000000 0.245450
    4 5.278479 0.165544 0.000001 0.000000 0.000000 0.048511
    5 -1.156250 -7.234375 1.488281 1.975865 1.159909 -1.298786
    6 -6.214478 -0.000009 -0.000026 3.601723 -0.285957 1.602385
    7 11.944885 0.000000 0.000000 -0.327386 -0.334164 1.878251
    8 10.620188 0.000000 0.000000 0.959718 -0.340890 1.295197
    9 -4.751108 -0.694498 0.830580 0.091089 -0.137791 0.512572
    10 -1.688068 0.000047 -0.000031 0.021339 -0.012592 0.401006
    11 -1.336140 0.000055 -0.000010 0.026028 0.004411 0.385914
    12 -4.820494 -0.509464 -0.224759 -0.483770 0.048669 1.471721
    13 -1.826984 -0.000069 0.000008 -0.020071 0.035210 0.755575
    14 -1.436569 0.000004 0.000003 -0.037180 -0.068375 0.406210
    15 -3.992357 -0.891191 -1.827909 -0.663700 0.330731 1.641158
    16 -1.405918 -0.000025 -0.000002 0.015413 -0.025188 0.326537
    17 -1.175358 0.000126 -0.000019 0.035883 0.057750 0.459783
    18 -4.526751 -0.690580 -1.120741 -0.566792 0.240105 1.658922
    19 -1.744038 0.000032 -0.000008 -0.003776 -0.029371 0.538782
    20 -1.368771 0.000023 0.000002 0.026576 0.045310 0.425758
    21 -1.874796 -0.935125 0.999175 2.324522 0.378348 1.332630
    22 -1.523447 0.000031 0.000031 0.050586 0.166436 0.397571
    23 -1.599285 0.000011 0.000015 0.027731 -0.032813 0.849193
    24 5.511820 0.000008 -0.000002 2.907040 -0.050466 3.092448
    25 0.196846 -0.000002 0.000003 2.793407 0.000006 -3.141577
    26 -2.497346 -13.865088 -2.664795 2.086120 1.245707 1.960851
    27 6.214486 0.000008 0.000019 -0.396838 0.307894 -2.008549
    28 11.944888 -0.000031 -0.000200 -0.415695 -0.309091 -1.068808
    29 10.620165 0.000002 0.000006 -2.913825 0.169963 0.731670
    30 4.751158 0.694374 -0.830474 0.371950 -0.068702 0.140120
    31 1.688065 -0.000022 0.000002 0.019384 -0.015448 0.541010
    32 1.336151 -0.000051 -0.000009 -0.004170 -0.038536 0.479131
    33 4.820515 0.509338 0.224866 -0.007565 -0.279126 0.607158
    34 1.826992 0.000066 0.000010 -0.018205 0.036211 0.808094
    35 1.436581 -0.000006 0.000010 0.013924 -0.006074 -0.318619
    36 3.992353 0.891087 1.827993 -0.383367 -0.245530 1.047955
    37 1.405926 0.000031 -0.000003 0.007148 -0.028649 0.631406
    38 1.175362 -0.000132 0.000001 -0.053469 0.111152 -0.494701
    39 4.526758 0.690464 1.120843 -0.297268 -0.285957 0.947521
    40 1.744041 -0.000031 -0.000002 -0.011971 -0.026741 0.885107
    41 1.368767 -0.000031 -0.000018 -0.094592 0.127636 -0.826011
    42 1.913921 0.958520 -0.952253 1.953129 0.665680 0.795317
    43 1.527359 -0.074253 0.035155 -0.000004 -0.137146 0.018039
    44 1.599281 -0.000004 0.000010 0.031351 0.077434 -0.359267
    45 5.511806 -0.000002 0.000003 -0.660651 0.000005 0.000007
    46 0.196849 0.000003 -0.000001 -0.348225 0.000015 -0.000002
    47 0.000000 0.999512 0.000000 0.000000 0.000000 -1.570796
    48 -4.943645 -18.445399 -5.689120 -0.210661 0.020728 1.523643
    49 10.507813 1.268555 0.331787 -0.768919 1.026263 0.762760
    50 -2.845604 0.419043 -0.467847 0.000000 0.000000 0.000000
    51 6.850185 -0.544975 -0.107286 0.000000 0.000000 0.000000
    52 6.282042 -0.570026 2.993409 0.000000 0.000000 0.000000
    53 0.456358 -0.073310 1.286493 0.000000 0.000000 0.000000
    54 -0.892130 0.000000 0.000000 0.000000 0.000000 0.000000
    55 -0.803467 -3.630664 -3.301050 3.035615 1.000596 -2.563300
  time 5
    0 -0.000001 8.445313 -27.500000 0.000000 0.000000 -0.000001
    1 -0.000002 0.000000 0.000000 1.570747 -1.567142 -1.570747
    2 4.255466 -0.335183 -0.000002 0.000000 0.000000 -0.124848
    3 7.431250 1.496479 0.000002 0.000000 0.000000 0.245450
    4 5.278479 0.165544 0.000001 0.000000 0.000000 0.048511
    5 -1.156250 -7.234375 1.488281 1.975865 1.159909 -1.298786
    6 -6.214478 -0.000009 -0.000026 3.611555 -0.277137 1.605869
    7 11.944885 0.000000 0.000000 -0.323940 -0.335170 1.867805
    8 10.620188 0.000000 0.000000 0.923157 -0.384970 1.255901
    9 -4.751108 -0.694498 0.830580 0.091089 -0.137791 0.512572
    10 -1.688068 0.000047 -0.000031 0.021339 -0.012592 0.401006
    11 -1.336140 0.000055 -0.000010 0.026028 0.004411 0.385914
    12 -4.820494 -0.509464 -0.224759 -0.483770 0.048669 1.471721
    13 -1.826984 -0.000069 0.000008 -0.020071 0.035210 0.755575
    14 -1.436569 0.000004 0.000003 -0.037180 -0.068375 0.406210
    15 -3.992357 -0.891191 -1.827909 -0.663700 0.330731 1.641158
    16 -1.405918 -0.000025 -0.000002 0.015413 -0.025188 0.326537
    17 -1.175358 0.000126 -0.000019 0.035883 0.057750 0.459783
    18 -4.526751 -0.690580 -1.120741 -0.566792 0.240105 1.658922
    19 -1.744038 0.000032 -0.000008 -0.003776 -0.029371 0.538782
    20 -1.368771 0.000023 0.000002 0.026576 0.045310 0.425758
    21 -1.874796 -0.935125 0.999175 2.324522 0.378348 1.332630
    22 -1.523447 0.000031 0.000031 0.050586 0.166436 0.397571
    23 -1.599285 0.000011 0.000015 0.027731 -0.032813 0.849193
    24 5.511820 0.000008 -0.000002 2.907040 -0.050466 3.092448
    25 0.196846 -0.000002 0.000003 2.793407 0.000006 -3.141577
    26 -2.677039 -14.216661 -2.539791 2.064931 1.232500 1.938440
    27 6.214486 0.000008 0.000019 -0.343061 0.345076 -1.881388
    28 11.944888 -0.000031 -0.000200 -0.190746 -0.330687 -1.229768
    29 10.620165 0.000002 0.000006 -2.897388 0.391030 0.679549
    30 4.751158 0.694374 -0.830474 0.367060 -0.056921 0.195265
    31 1.688065 -0.000022 0.000002 0.021553 -0.012236 0.384607
    32 1.336151 -0.000051 -0.000009 0.004974 -0.038440 0.242485
    33 4.820515 0.509338 0.224866 -0.001261 -0.276498 0.600022
    34 1.826992 0.000066 0.000010 -0.028392 0.028924 0.497778
    35 1.436581 -0.000006 0.000010 0.013312 -0.007320 -0.226692
    36 3.992353 0.891087 1.827993 -0.357828 -0.288039 0.979539
    37 1.405926 0.000031 -0.000003 0.013236 -0.026408 0.411158
    38 1.175362 -0.000132 0.000001 -0.048627 0.113357 -0.451447
    39 4.526758 0.690464 1.120843 -0.320967 -0.308248 0.902568
    40 1.744041 -0.000031 -0.000002 -0.004193 -0.029186 0.638281
    41 1.368767 -0.000031 -0.000018 -0.094269 0.127863 -0.823537
    42 1.921733 0.966332 -0.940534 2.041802 0.756404 0.906132
    43 1.523453 -0.019564 0.007811 -0.031308 -0.113393 0.070771
    44 1.599281 -0.000004 0.000010 0.029146 0.078297 -0.387717
    45 5.511806 -0.000002 0.000003 -0.596318 0.000005 0.000007
    46 0.196849 0.000003 -0.000001 -0.348225 0.000015 -0.000002
    47 0.000000 0.999512 0.000000 0.000000 0.000000 -1.570796
    48 -5.189746 -18.503994 -5.888345 -0.281262 -0.019755 1.514259
    49 10.507813 1.268555 0.331787 -0.768919 1.026263 0.762760
    50 -2.845604 0.419043 -0.467847 0.000000 0.000000 0.000000
    51 6.850185 -0.544975 -0.107286 0.000000 0.000000 0.000000
    52 6.282042 -0.570026 2.993409 0.000000 0.000000 0.000000
    53 0.456358 -0.073310 1.286493 0.000000 0.000000 0.000000
    54 -0.892130 0.000000 0.000000 0.000000 0.000000 0.000000
    55 -0.819093 -4.954923 -4.308894 3.001016 0.807290 -2.627659
  time 6
    0 -0.000001 8.445313 -27.500000 0.000000 0.000000 -0.000001
    1 -0.000002 0.000000 0.000000 1.570747 -1.567142 -1.570747
    2 4.255466 -0.335183 -0.000002 0.000000 0.000000 -0.124848
    3 7.431250 1.496479 0.000002 0.000000 0.000000 0.245450
    4 5.278479 0.165544 0.000001 0.000000 0.000000 0.048511
    5 -1.156250 -7.234375 1.488281 1.975865 1.159909 -1.298786
    6 -6.214478 -0.000009 -0.000026 3.615446 -0.282380 1.620003
    7 11.944885 0.000000 0.000000 -0.319825 -0.336345 1.855247
    8 10.620188 0.000000 0.000000 0.902852 -0.427750 1.229111
    9 -4.751108 -0.694498 0.830580 0.091089 -0.137791 0.512572
    10 -1.688068 0.000047 -0.000031 0.021339 -0.012592 0.401006
    11 -1.336140 0.000055 -0.000010 0.026028 0.004411 0.385914
    12 -4.820494 -0.509464 -0.224759 -0.483770 0.048669 1.471721
    13 -1.826984 -0.000069 0.000008 -0.020071 0.035210 0.755575
    14 -1.436569 0.000004 0.000003 -0.037180 -0.068375 0.406210
    15 -3.992357 -0.891191 -1.827909 -0.663700 0.330731 1.641158
    16 -1.405918 -0.000025 -0.000002 0.015413 -0.025188 0.326537
    17 -1.175358 0.000126 -0.000019 0.035883 0.057750 0.459783
    18 -4.526751 -0.690580 -1.120741 -0.566792 0.240105 1.658922
    19 -1.744038 0.000032 -0.000008 -0.003776 -0.029371 0.538782
    20 -1.368771 0.000023 0.000002 0.026576 0.045310 0.425758
    21 -1.874796 -0.935125 0.999175 2.324522 0.378348 1.332630
    22 -1.523447 0.000031 0.000031 0.050586 0.166436 0.397571
    23 -1.599285 0.000011 0.000015 0.027731 -0.032813 0.849193
    24 5.511820 0.000008 -0.000002 2.907040 -0.050466 3.092448
    25 0.196846 -0.000002 0.000003 2.793407 0.000006 -3.141577
    26 -2.864544 -14.587766 -2.406975 2.044270 1.218347 1.916472
    27 6.214486 0.000008 0.000019 -0.361249 0.382532 -1.735533
    28 11.944888 -0.000031 -0.000200 0.047592 -0.346051 -1.427976
    29 10.620165 0.000002 0.000006 -2.782734 0.454875 0.658935
    30 4.751158 0.694374 -0.830474 0.364819 -0.056957 0.232055
    31 1.688065 -0.000022 0.000002 0.022572 -0.010223 0.293583
    32 1.336151 -0.000051 -0.000009 0.010894 -0.037206 0.086488
    33 4.820515 0.509338 0.224866 0.001531 -0.272607 0.597158
    34 1.826992 0.000066 0.000010 -0.032946 0.023615 0.324789
    35 1.436581 -0.000006 0.000010 0.013037 -0.007800 -0.190184
    36 3.992353 0.891087 1.827993 -0.342763 -0.320889 0.932089
    37 1.405926 0.000031 -0.000003 0.016208 -0.024694 0.294968
    38 1.175362 -0.000132 0.000001 -0.041161 0.116258 -0.386268
    39 4.526758 0.690464 1.120843 -0.360733 -0.325458 0.879528
    40 1.744041 -0.000031 -0.000002 0.002207 -0.029809 0.458667
    41 1.368767 -0.000031 -0.000018 -0.093610 0.128343 -0.818419
    42 1.925640 0.970239 -0.936627 2.088616 0.795557 0.962549
    43 1.523453 -0.000032 -0.000002 -0.051765 -0.100413 0.134074
    44 1.599281 -0.000004 0.000010 0.028199 0.078633 -0.399725
    45 5.511806 -0.000002 0.000003 -0.529689 0.000005 0.000007
    46 0.196849 0.000003 -0.000001 -0.348225 0.000015 -0.000002
    47 0.000000 0.999512 0.000000 0.000000 0.000000 -1.570796
    48 -5.478818 -18.664155 -6.411799 -0.334018 -0.069901 1.509758
    49 10.507813 1.268555 0.331787 -0.768919 1.026263 0.762760
    50 -2.845604 0.419043 -0.467847 0.000000 0.000000 0.000000
    51 6.850185 -0.544975 -0.107286 0.000000 0.000000 0.000000
    52 6.282042 -0.570026 2.993409 0.000000 0.000000 0.000000
    53 0.456358 -0.073310 1.286493 0.000000 0.000000 0.000000
    54 -0.892130 0.000000 0.000000 0.000000 0.000000 0.000000
    55 -0.385486 -7.204992 -4.890943 2.912575 0.557303 -2.501797
  time 7
    0 -0.000001 8.445313 -27.500000 0.000000 0.000000 -0.000001
    1 -0.000002 0.000000 0.000000 1.570747 -1.567142 -1.570747
    2 4.255466 -0.335183 -0.000002 0.000000 0.000000 -0.124848
    3 7.431250 1.496479 0.000002 0.000000 0.000000 0.245450
    4 5.278479 0.165544 0.000001 0.000000 0.000000 0.048511
    5 -1.156250 -7.234375 1.488281 1.975865 1.159909 -1.298786
    6 -6.214478 -0.000009 -0.000026 3.614593 -0.297328 1.640843
    7 11.944885 0.000000 0.000000 -0.314534 -0.337759 1.839280
    8 10.620188 0.000000 0.000000 0.895371 -0.467346 1.213450
    9 -4.751108 -0.694498 0.830580 0.091089 -0.137791 0.512572
    10 -1.688068 0.000047 -0.000031 0.021339 -0.012592 0.401006
    11 -1.336140 0.000055 -0.000010 0.026028 0.004411 0.385914
    12 -4.820494 -0.509464 -0.224759 -0.483770 0.048669 1.471721
    13 -1.826984 -0.000069 0.000008 -0.020071 0.035210 0.755575
    14 -1.436569 0.000004 0.000003 -0.037180 -0.068375 0.406210
    15 -3.992357 -0.891191 -1.827909 -0.663700 0.330731 1.641158
    16 -1.405918 -0.000025 -0.000002 0.015413 -0.025188 0.326537
    17 -1.175358 0.000126 -0.000019 0.035883 0.057750 0.459783
    18 -4.526751 -0.690580 -1.120741 -0.566792 0.240105 1.658922
    19 -1.744038 0.000032 -0.000008 -0.003776 -0.029371 0.538782
    20 -1.368771 0.000023 0.000002 0.026576 0.045310 0.425758
    21 -1.874796 -0.935125 0.999175 2.324522 0.378348 1.332630
    22 -1.523447 0.000031 0.000031 0.050586 0.166436 0.397571
    23 -1.599285 0.000011 0.000015 0.027731 -0.032813 0.849193
    24 5.511820 0.000008 -0.000002 2.907040 -0.050466 3.092448
    25 0.196846 -0.000002 0.000003 2.793407 0.000006 -3.141577
    26 -3.055956 -14.958871 -2.278064 2.025238 1.204049 1.896146
    27 6.214486 0.000008 0.000019 -0.466111 0.322279 -1.720993
    28 11.944888 -0.000031 -0.000200 0.151137 -0.334510 -1.266904
    29 10.620165 0.000002 0.000006 -2.521443 0.268730 0.532604
    30 4.751158 0.694374 -0.830474 0.363788 -0.065167 0.256729
    31 1.688065 -0.000022 0.000002 0.023051 -0.009120 0.244936
    32 1.336151 -0.000051 -0.000009 0.014754 -0.035852 -0.019076
    33 4.820515 0.509338 0.224866 0.001399 -0.267301 0.598189
    34 1.826992 0.000066 0.000010 -0.034971 0.020487 0.232996
    35 1.436581 -0.000006 0.000010 0.013073 -0.007752 -0.193775
    36 3.992353 0.891087 1.827993 -0.336531 -0.350587 0.900268
    37 1.405926 0.000031 -0.000003 0.017442 -0.023843 0.244182
    38 1.175362 -0.000132 0.000001 -0.028901 0.119889 -0.282236
    39 4.526758 0.690464 1.120843 -0.420839 -0.338905 0.872794
    40 1.744041 -0.000031 -0.000002 0.007672 -0.029581 0.321032
    41 1.368767 -0.000031 -0.000018 -0.088528 0.131890 -0.779200
    42 1.925640 0.970239 -0.936627 2.098108 0.804762 0.974112
    43 1.523453 -0.000032 -0.000002 -0.064972 -0.094553 0.211590
    44 1.599281 -0.000004 0.000010 0.030979 0.077590 -0.364171
    45 5.511806 -0.000002 0.000003 -0.465357 0.000005 0.000007
    46 0.196849 0.000003 -0.000001 -0.348225 0.000015 -0.000002
    47 0.000000 0.999512 0.000000 0.000000 0.000000 -1.570796
    48 -5.795233 -18.886818 -7.161821 -0.371938 -0.125040 1.508609
    49 10.507813 1.268555 0.331787 -0.768919 1.026263 0.762760
    50 -2.845604 0.419043 -0.467847 0.000000 0.000000 0.000000
    51 6.850185 -0.544975 -0.107286 0.000000 0.000000 0.000000
    52 6.282042 -0.570026 2.993409 0.000000 0.000000 0.000000
    53 0.456358 -0.073310 1.286493 0.000000 0.000000 0.000000
    54 -0.892130 0.000000 0.000000 0.000000 0.000000 0.000000
    55 -1.748808 -9.548813 -4.492493 2.777782 0.311343 -2.080990
  time 8
    0 -0.000001 8.445313 -27.500000 0.000000 0.000000 -0.000001
    1 -0.000002 0.000000 0.000000 1.570747 -1.567142 -1.570747
    2 4.255466 -0.335183 -0.000002 0.000000 0.000000 -0.124848
    3 7.431250 1.496479 0.000002 0.000000 0.000000 0.245450
    4 5.278479 0.165544 0.000001 0.000000 0.000000 0.048511
    5 -1.156250 -7.234375 1.488281 1.975865 1.159909 -1.298786
    6 -6.214478 -0.000009 -0.000026 3.609882 -0.317307 1.664641
    7 11.944885 0.000000 0.000000 -0.307774 -0.339437 1.818928
    8 10.620188 0.000000 0.000000 0.896777 -0.501651 1.207312
    9 -4.751108 -0.694498 0.830580 0.091089 -0.137791 0.512572
    10 -1.688068 0.000047 -0.000031 0.021339 -0.012592 0.401006
    11 -1.336140 0.000055 -0.000010 0.026028 0.004411 0.385914
    12 -4.820494 -0.509464 -0.224759 -0.483770 0.048669 1.471721
    13 -1.826984 -0.000069 0.000008 -0.020071 0.035210 0.755575
    14 -1.436569 0.000004 0.000003 -0.037180 -0.068375 0.406210
    15 -3.992357 -0.891191 -1.827909 -0.663700 0.330731 1.641158
    16 -1.405918 -0.000025 -0.000002 0.015413 -0.025188 0.326537
    17 -1.175358 0.000126 -0.000019 0.035883 0.057750 0.459783
    18 -4.526751 -0.690580 -1.120741 -0.566792 0.240105 1.658922
    19 -1.744038 0.000032 -0.000008 -0.003776 -0.029371 0.538782
    20 -1.368771 0.000023 0.000002 0.026576 0.045310 0.425758
    21 -1.874796 -0.935125 0.999175 2.324522 0.378348 1.332630
    22 -1.523447 0.000031 0.000031 0.050586 0.166436 0.397571
    23 -1.599285 0.000011 0.000015 0.027731 -0.032813 0.849193
    24 5.511820 0.000008 -0.000002 2.907040 -0.050466 3.092448
    25 0.196846 -0.000002 0.000003 2.793407 0.000006 -3.141577
    26 -3.235649 -15.310444 -2.153061 2.008627 1.190434 1.878301
    27 6.214486 0.000008 0.000019 -0.493098 0.180743 -1.800829
    28 11.944888 -0.000031 -0.000200 0.178075 -0.282557 -0.922334
    29 10.620165 0.000002 0.000006 -2.278694 -0.093597 0.327673
    30 4.751158 0.694374 -0.830474 0.362398 -0.073484 0.280261
    31 1.688065 -0.000022 0.000002 0.023435 -0.008053 0.198583
    32 1.336151 -0.000051 -0.000009 0.018253 -0.034198 -0.119123
    33 4.820515 0.509338 0.224866 -0.000506 -0.260361 0.602231
    34 1.826992 0.000066 0.000010 -0.036613 0.017383 0.145907
    35 1.436581 -0.000006 0.000010 0.013169 -0.007572 -0.207034
    36 3.992353 0.891087 1.827993 -0.332828 -0.386409 0.873044
    37 1.405926 0.000031 -0.000003 0.018569 -0.022968 0.195807
    38 1.175362 -0.000132 0.000001 -0.008215 0.123029 -0.112007
    39 4.526758 0.690464 1.120843 -0.504840 -0.351249 0.870845
    40 1.744041 -0.000031 -0.000002 0.013173 -0.028826 0.191023
    41 1.368767 -0.000031 -0.000018 -0.070096 0.142509 -0.644687
    42 1.925640 0.970239 -0.936627 2.106597 0.813666 0.985359
    43 1.523453 -0.000032 -0.000002 -0.076334 -0.087422 0.305405
    44 1.599281 -0.000004 0.000010 0.041801 0.072341 -0.219829
    45 5.511806 -0.000002 0.000003 -0.407803 0.000005 0.000007
    46 0.196849 0.000003 -0.000001 -0.348225 0.000015 -0.000002
    47 0.000000 0.999512 0.000000 0.000000 0.000000 -1.570796
    48 -6.115556 -19.140732 -8.025129 -0.397615 -0.180777 1.508896
    49 10.507813 1.268555 0.331787 -0.768919 1.026263 0.762760
    50 -2.845604 0.419043 -0.467847 0.000000 0.000000 0.000000
    51 6.850185 -0.544975 -0.107286 0.000000 0.000000 0.000000
    52 6.282042 -0.570026 2.993409 0.000000 0.000000 0.000000
    53 0.456358 -0.073310 1.286493 0.000000 0.000000 0.000000
    54 -0.892130 0.000000 0.000000 0.000000 0.000000 0.000000
    55 -3.405109 -10.935574 -3.183859 2.594077 0.121659 -1.569453
  time 9
    0 -0.000001 8.445313 -27.500000 0.000000 0.000000 -0.000001
    1 -0.000002 0.000000 0.000000 1.570747 -1.567142 -1.570747
    2 4.255466 -0.335183 -0.000002 0.000000 0.000000 -0.124848
    3 7.431250 1.496479 0.000002 0.000000 0.000000 0.245450
    4 5.278479 0.165544 0.000001 0.000000 0.000000 0.048511
    5 -1.156250 -7.234375 1.488281 1.975865 1.159909 -1.298786
    6 -6.214478 -0.000009 -0.000026 3.602611 -0.337958 1.687584
    7 11.944885 0.000000 0.000000 -0.299789 -0.341247 1.795057
    8 10.620188 0.000000 0.000000 0.902965 -0.528825 1.207943
    9 -4.751108 -0.694498 0.830580 0.091089 -0.137791 0.512572
    10 -1.688068 0.000047 -0.000031 0.021339 -0.012592 0.401006
    11 -1.336140 0.000055 -0.000010 0.026028 0.004411 0.385914
    12 -4.820494 -0.509464 -0.224759 -0.483770 0.048669 1.471721
    13 -1.826984 -0.000069 0.000008 -0.020071 0.035210 0.755575
    14 -1.436569 0.000004 0.000003 -0.037180 -0.068375 0.406210
    15 -3.992357 -0.891191 -1.827909 -0.663700 0.330731 1.641158
    16 -1.405918 -0.000025 -0.000002 0.015413 -0.025188 0.326537
    17 -1.175358 0.000126 -0.000019 0.035883 0.057750 0.459783
    18 -4.526751 -0.690580 -1.120741 -0.566792 0.240105 1.658922
    19 -1.744038 0.000032 -0.000008 -0.003776 -0.029371 0.538782
    20 -1.368771 0.000023 0.000002 0.026576 0.045310 0.425758
    21 -1.874796 -0.935125 0.999175 2.324522 0.378348 1.332630
    22 -1.523447 0.000031 0.000031 0.050586 0.166436 0.397571
    23 -1.599285 0.000011 0.000015 0.027731 -0.032813 0.849193
    24 5.511820 0.000008 -0.000002 2.907040 -0.050466 3.092448
    25 0.196846 -0.000002 0.000003 2.793407 0.000006 -3.141577
    26 -3.391904 -15.622954 -2.043682 1.994977 1.178354 1.863572
    27 6.214486 0.000008 0.000019 -0.476026 0.081784 -1.866126
    28 11.944888 -0.000031 -0.000200 0.235885 -0.245177 -0.757235
    29 10.620165 0.000002 0.000006 -2.056593 -0.297881 0.189543
    30 4.751158 0.694374 -0.830474 0.361175 -0.079093 0.294430
    31 1.688065 -0.000022 0.000002 0.023651 -0.007382 0.170457
    32 1.336151 -0.000051 -0.000009 0.020266 -0.033047 -0.179384
    33 4.820515 0.509338 0.224866 -0.003646 -0.254044 0.608140
    34 1.826992 0.000066 0.000010 -0.037476 0.015430 0.093344
    35 1.436581 -0.000006 0.000010 0.013312 -0.007320 -0.226337
    36 3.992353 0.891087 1.827993 -0.333763 -0.416778 0.860470
    37 1.405926 0.000031 -0.000003 0.019228 -0.022429 0.166496
    38 1.175362 -0.000132 0.000001 0.014208 0.122490 0.070788
    39 4.526758 0.690464 1.120843 -0.585707 -0.357589 0.874483
    40 1.744041 -0.000031 -0.000002 0.016852 -0.028155 0.113060
    41 1.368767 -0.000031 -0.000018 -0.041465 0.153247 -0.450873
    42 1.925640 0.970239 -0.936627 2.110935 0.819263 0.992284
    43 1.523453 -0.000032 -0.000002 -0.081835 -0.081933 0.384468
    44 1.599281 -0.000004 0.000010 0.056231 0.061806 -0.005282
    45 5.511806 -0.000002 0.000003 -0.361423 0.000005 0.000007
    46 0.196849 0.000003 -0.000001 -0.348225 0.000015 -0.000002
    47 0.000000 0.999512 0.000000 0.000000 0.000000 -1.570796
    48 -6.428065 -19.394646 -8.900156 -0.413592 -0.232842 1.508704
    49 10.507813 1.268555 0.331787 -0.768919 1.026263 0.762760
    50 -2.845604 0.419043 -0.467847 0.000000 0.000000 0.000000
    51 6.850185 -0.544975 -0.107286 0.000000 0.000000 0.000000
    52 6.282042 -0.570026 2.993409 0.000000 0.000000 0.000000
    53 0.456358 -0.073310 1.286493 0.000000 0.000000 0.000000
    54 -0.892130 0.000000 0.000000 0.000000 0.000000 0.000000
    55 -3.471517 -11.693410 -1.609593 2.408096 -0.020201 -1.198629
  time 10
    0 -0.000001 8.445313 -27.500000 0.000000 0.000000 -0.000001
    1 -0.000002 0.000000 0.000000 1.570747 -1.567142 -1.570747
    2 4.255466 -0.335183 -0.000002 0.000000 0.000000 -0.124848
    3 7.431250 1.496479 0.000002 0.000000 0.000000 0.245450
    4 5.278479 0.165544 0.000001 0.000000 0.000000 0.048511
    5 -1.156250 -7.234375 1.488281 1.975865 1.159909 -1.298786
    6 -6.214478 -0.000009 -0.000026 3.594418 -0.355812 1.706649
    7 11.944885 0.000000 0.000000 -0.291657 -0.342900 1.770808
    8 10.620188 0.000000 0.000000 0.910108 -0.547300 1.211671
    9 -4.751108 -0.694498 0.830580 0.091089 -0.137791 0.512572
    10 -1.688068 0.000047 -0.000031 0.021339 -0.012592 0.401006
    11 -1.336140 0.000055 -0.000010 0.026028 0.004411 0.385914
    12 -4.820494 -0.509464 -0.224759 -0.483770 0.048669 1.471721
    13 -1.826984 -0.000069 0.000008 -0.020071 0.035210 0.755575
    14 -1.436569 0.000004 0.000003 -0.037180 -0.068375 0.406210
    15 -3.992357 -0.891191 -1.827909 -0.663700 0.330731 1.641158
    16 -1.405918 -0.000025 -0.000002 0.015413 -0.025188 0.326537
    17 -1.175358 0.000126 -0.000019 0.035883 0.057750 0.459783
    18 -4.526751 -0.690580 -1.120741 -0.566792 0.240105 1.658922
    19 -1.744038 0.000032 -0.000008 -0.003776 -0.029371 0.538782
    20 -1.368771 0.000023 0.000002 0.026576 0.045310 0.425758
    21 -1.874796 -0.935125 0.999175 2.324522 0.378348 1.332630
    22 -1.523447 0.000031 0.000031 0.050586 0.166436 0.397571
    23 -1.599285 0.000011 0.000015 0.027731 -0.032813 0.849193
    24 5.511820 0.000008 -0.000002 2.907040 -0.050466 3.092448
    25 0.196846 -0.000002 0.000003 2.793407 0.000006 -3.141577
    26 -3.516908 -15.869055 -1.957742 1.984694 1.168670 1.852414
    27 6.214486 0.000008 0.000019 -0.463747 0.015893 -1.910650
    28 11.944888 -0.000031 -0.000200 0.281432 -0.224108 -0.676084
    29 10.620165 0.000002 0.000006 -1.945988 -0.319877 0.135244
    30 4.751158 0.694374 -0.830474 0.360528 -0.081622 0.299818
    31 1.688065 -0.000022 0.000002 0.023723 -0.007131 0.159596
    32 1.336151 -0.000051 -0.000009 0.021033 -0.032568 -0.202531
    33 4.820515 0.509338 0.224866 -0.006115 -0.250271 0.612608
    34 1.826992 0.000066 0.000010 -0.037776 0.014675 0.073083
    35 1.436581 -0.000006 0.000010 0.013420 -0.007129 -0.240911
    36 3.992353 0.891087 1.827993 -0.336424 -0.433988 0.858335
    37 1.405926 0.000031 -0.000003 0.019480 -0.022201 0.155156
    38 1.175362 -0.000132 0.000001 0.028673 0.119937 0.190270
    39 4.526758 0.690464 1.120843 -0.635636 -0.359075 0.878727
    40 1.744041 -0.000031 -0.000002 0.018530 -0.027904 0.083245
    41 1.368767 -0.000031 -0.000018 -0.018994 0.157585 -0.305955
    42 1.925640 0.970239 -0.936627 2.112037 0.821540 0.994937
    43 1.523453 -0.000032 -0.000002 -0.083141 -0.079308 0.428859
    44 1.599281 -0.000004 0.000010 0.065411 0.051991 0.155827
    45 5.511806 -0.000002 0.000003 -0.330503 0.000005 0.000007
    46 0.196849 0.000003 -0.000001 -0.348225 0.000015 -0.000002
    47 0.000000 0.999512 0.000000 0.000000 0.000000 -1.570796
    48 -6.713230 -19.617309 -9.681430 -0.422100 -0.277060 1.506310
    49 10.507813 1.268555 0.331787 -0.768919 1.026263 0.762760
    50 -2.845604 0.419043 -0.467847 0.000000 0.000000 0.000000
    51 6.850185 -0.544975 -0.107286 0.000000 0.000000 0.000000
    52 6.282042 -0.570026 2.993409 0.000000 0.000000 0.000000
    53 0.456358 -0.073310 1.286493 0.000000 0.000000 0.000000
    54 -0.892130 0.000000 0.000000 0.000000 0.000000 0.000000
    55 -2.940251 -12.345774 -0.246270 2.319845 -0.099746 -1.017739
  time 11
    0 -0.000001 8.445313 -27.500000 0.000000 0.000000 -0.000001
    1 -0.000002 0.000000 0.000000 1.570747 -1.567142 -1.570747
    2 4.255466 -0.335183 -0.000002 0.000000 0.000000 -0.124848
    3 7.431250 1.496479 0.000002 0.000000 0.000000 0.245450
    4 5.278479 0.165544 0.000001 0.000000 0.000000 0.048511
    5 -1.156250 -7.234375 1.488281 1.975865 1.159909 -1.298786
    6 -6.214478 -0.000009 -0.000026 3.587420 -0.368422 1.719665
    7 11.944885 0.000000 0.000000 -0.285158 -0.344087 1.751431
    8 10.620188 0.000000 0.000000 0.914889 -0.555775 1.213966
    9 -4.751108 -0.694498 0.830580 0.091089 -0.137791 0.512572
    10 -1.688068 0.000047 -0.000031 0.021339 -0.012592 0.401006
    11 -1.336140 0.000055 -0.000010 0.026028 0.004411 0.385914
    12 -4.820494 -0.509464 -0.224759 -0.483770 0.048669 1.471721
    13 -1.826984 -0.000069 0.000008 -0.020071 0.035210 0.755575
    14 -1.436569 0.000004 0.000003 -0.037180 -0.068375 0.406210
    15 -3.992357 -0.891191 -1.827909 -0.663700 0.330731 1.641158
    16 -1.405918 -0.000025 -0.000002 0.015413 -0.025188 0.326537
    17 -1.175358 0.000126 -0.000019 0.035883 0.057750 0.459783
    18 -4.526751 -0.690580 -1.120741 -0.566792 0.240105 1.658922
    19 -1.744038 0.000032 -0.000008 -0.003776 -0.029371 0.538782
    20 -1.368771 0.000023 0.000002 0.026576 0.045310 0.425758
    21 -1.874796 -0.935125 0.999175 2.324522 0.378348 1.332630
    22 -1.523447 0.000031 0.000031 0.050586 0.166436 0.397571
    23 -1.599285 0.000011 0.000015 0.027731 -0.032813 0.849193
    24 5.511820 0.000008 -0.000002 2.907040 -0.050466 3.092448
    25 0.196846 -0.000002 0.000003 2.793407 0.000006 -3.141577
    26 -3.602848 -16.033123 -1.899147 1.978163 1.162235 1.845319
    27 6.214486 0.000008 0.000019 -0.451731 -0.016657 -1.934402
    28 11.944888 -0.000031 -0.000200 0.300122 -0.218931 -0.657125
    29 10.620165 0.000002 0.000006 -1.920158 -0.258388 0.156193
    30 4.751158 0.694374 -0.830474 0.360181 -0.082748 0.301776
    31 1.688065 -0.000022 0.000002 0.023758 -0.007035 0.155540
    32 1.336151 -0.000051 -0.000009 0.021309 -0.032388 -0.211152
    33 4.820515 0.509338 0.224866 -0.007697 -0.248149 0.615439
    34 1.826992 0.000066 0.000010 -0.037884 0.014387 0.065537
    35 1.436581 -0.000006 0.000010 0.013480 -0.006997 -0.250154
    36 3.992353 0.891087 1.827993 -0.338713 -0.443348 0.859017
    37 1.405926 0.000031 -0.000003 0.019576 -0.022117 0.150937
    38 1.175362 -0.000132 0.000001 0.036990 0.117648 0.260425
    39 4.526758 0.690464 1.120843 -0.664170 -0.359051 0.881759
    40 1.744041 -0.000031 -0.000002 0.019309 -0.027844 0.072108
    41 1.368767 -0.000031 -0.000018 -0.004732 0.158628 -0.215391
    42 1.925640 0.970239 -0.936627 2.112123 0.822463 0.995921
    43 1.523453 -0.000032 -0.000002 -0.083201 -0.078110 0.452804
    44 1.599281 -0.000004 0.000010 0.070289 0.045172 0.256250
    45 5.511806 -0.000002 0.000003 -0.319241 0.000005 0.000007
    46 0.196849 0.000003 -0.000001 -0.348225 0.000015 -0.000002
    47 0.000000 0.999512 0.000000 0.000000 0.000000 -1.570796
    48 -6.955425 -19.773564 -10.267385 -0.425368 -0.309241 1.500182
    49 10.507813 1.268555 0.331787 -0.768919 1.026263 0.762760
    50 -2.845604 0.419043 -0.467847 0.000000 0.000000 0.000000
    51 6.850185 -0.544975 -0.107286 0.000000 0.000000 0.000000
    52 6.282042 -0.570026 2.993409 0.000000 0.000000 0.000000
    53 0.456358 -0.073310 1.286493 0.000000 0.000000 0.000000
    54 -0.892130 0.000000 0.000000 0.000000 0.000000 0.000000
    55 -2.252730 -12.736411 0.652195 2.318613 -0.152400 -0.970327
  time 12
    0 -0.000001 8.445313 -27.500000 0.000000 0.000000 -0.000001
    1 -0.000002 0.000000 0.000000 1.570747 -1.567142 -1.570747
    2 4.255466 -0.335183 -0.000002 0.000000 0.000000 -0.124848
    3 7.431250 1.496479 0.000002 0.000000 0.000000 0.245450
    4 5.278479 0.165544 0.000001 0.000000 0.000000 0.048511
    5 -1.156250 -7.234375 1.488281 1.975865 1.159909 -1.298786
    6 -6.214478 -0.000009 -0.000026 3.583699 -0.374019 1.724924
    7 11.944885 0.000000 0.000000 -0.282382 -0.344542 1.743257
    8 10.620188 0.000000 0.000000 0.914495 -0.553130 1.209950
    9 -4.751108 -0.694498 0.830580 0.091089 -0.137791 0.512572
    10 -1.688068 0.000047 -0.000031 0.021339 -0.012592 0.401006
    11 -1.336140 0.000055 -0.000010 0.026028 0.004411 0.385914
    12 -4.820494 -0.509464 -0.224759 -0.483770 0.048669 1.471721
    13 -1.826984 -0.000069 0.000008 -0.020071 0.035210 0.755575
    14 -1.436569 0.000004 0.000003 -0.037180 -0.068375 0.406210
    15 -3.992357 -0.891191 -1.827909 -0.663700 0.330731 1.641158
    16 -1.405918 -0.000025 -0.000002 0.015413 -0.025188 0.326537
    17 -1.175358 0.000126 -0.000019 0.035883 0.057750 0.459783
    18 -4.526751 -0.690580 -1.120741 -0.566792 0.240105 1.658922
    19 -1.744038 0.000032 -0.000008 -0.003776 -0.029371 0.538782
    20 -1.368771 0.000023 0.000002 0.026576 0.045310 0.425758
    21 -1.874796 -0.935125 0.999175 2.324522 0.378348 1.332630
    22 -1.523447 0.000031 0.000031 0.050586 0.166436 0.397571
    23 -1.599285 0.000011 0.000015 0.027731 -0.032813 0.849193
    24 5.511820 0.000008 -0.000002 2.907040 -0.050466 3.092448
    25 0.196846 -0.000002 0.000003 2.793407 0.000006 -3.141577
    26 -3.630193 -16.091718 -1.875708 1.975862 1.159910 1.842803
    27 6.214486 0.000008 0.000019 -0.448579 -0.034730 -1.949484
    28 11.944888 -0.000031 -0.000200 0.296373 -0.214101 -0.639676
    29 10.620165 0.000002 0.000006 -1.882183 -0.233643 0.150897
    30 4.751158 0.694374 -0.830474 0.360001 -0.083299 0.302493
    31 1.688065 -0.000022 0.000002 0.023770 -0.006999 0.153992
    32 1.336151 -0.000051 -0.000009 0.021417 -0.032316 -0.214471
    33 4.820515 0.509338 0.224866 -0.008680 -0.246936 0.617190
    34 1.826992 0.000066 0.000010 -0.037932 0.014279 0.062643
    35 1.436581 -0.000006 0.000010 0.013528 -0.006925 -0.255912
    36 3.992353 0.891087 1.827993 -0.340354 -0.448621 0.860144
    37 1.405926 0.000031 -0.000003 0.019612 -0.022093 0.149316
    38 1.175362 -0.000132 0.000001 0.041844 0.116018 0.301988
    39 4.526758 0.690464 1.120843 -0.680827 -0.358715 0.883729
    40 1.744041 -0.000031 -0.000002 0.019693 -0.027832 0.067867
    41 1.368767 -0.000031 -0.000018 0.004041 0.158652 -0.159873
    42 1.925640 0.970239 -0.936627 2.111965 0.822858 0.996289
    43 1.523453 -0.000032 -0.000002 -0.082997 -0.077535 0.466251
    44 1.599281 -0.000004 0.000010 0.072925 0.040761 0.317621
    45 5.511806 -0.000002 0.000003 -0.319263 0.000005 0.000007
    46 0.196849 0.000003 -0.000001 -0.348225 0.000015 -0.000002
    47 0.000000 0.999512 0.000000 0.000000 0.000000 -1.570796
    48 -7.131212 -19.832160 -10.544737 -0.425627 -0.325208 1.489074
    49 10.507813 1.268555 0.331787 -0.768919 1.026263 0.762760
    50 -2.845604 0.419043 -0.467847 0.000000 0.000000 0.000000
    51 6.850185 -0.544975 -0.107286 0.000000 0.000000 0.000000
    52 6.282042 -0.570026 2.993409 0.000000 0.000000 0.000000
    53 0.456358 -0.073310 1.286493 0.000000 0.000000 0.000000
    54 -0.892130 0.000000 0.000000 0.000000 0.000000 0.000000
    55 -1.811310 -12.990325 1.058458 2.312736 -0.184121 -0.931673
  time 13
    0 -0.000001 8.445313 -27.500000 0.000000 0.000000 -0.000001
    1 -0.000002 0.000000 0.000000 1.570747 -1.567142 -1.570747
    2 4.255466 -0.335183 -0.000002 0.000000 0.000000 -0.124848
    3 7.431250 1.496479 0.000002 0.000000 0.000000 0.245450
    4 5.278479 0.165544 0.000001 0.000000 0.000000 0.048511
    5 -1.156250 -7.234375 1.488281 1.975865 1.159909 -1.298786
    6 -6.214478 -0.000009 -0.000026 3.581958 -0.374303 1.723018
    7 11.944885 0.000000 0.000000 -0.282088 -0.344590 1.742391
    8 10.620188 0.000000 0.000000 0.908758 -0.543354 1.200428
    9 -4.751108 -0.694498 0.830580 0.091089 -0.137791 0.512572
    10 -1.688068 0.000047 -0.000031 0.021339 -0.012592 0.401006
    11 -1.336140 0.000055 -0.000010 0.026028 0.004411 0.385914
    12 -4.820494 -0.509464 -0.224759 -0.483770 0.048669 1.471721
    13 -1.826984 -0.000069 0.000008 -0.020071 0.035210 0.755575
    14 -1.436569 0.000004 0.000003 -0.037180 -0.068375 0.406210
    15 -3.992357 -0.891191 -1.827909 -0.663700 0.330731 1.641158
    16 -1.405918 -0.000025 -0.000002 0.015413 -0.025188 0.326537
    17 -1.175358 0.000126 -0.000019 0.035883 0.057750 0.459783
    18 -4.526751 -0.690580 -1.120741 -0.566792 0.240105 1.658922
    19 -1.744038 0.000032 -0.000008 -0.003776 -0.029371 0.538782
    20 -1.368771 0.000023 0.000002 0.026576 0.045310 0.425758
    21 -1.874796 -0.935125 0.999175 2.324522 0.378348 1.332630
    22 -1.523447 0.000031 0.000031 0.050586 0.166436 0.397571
    23 -1.599285 0.000011 0.000015 0.027731 -0.032813 0.849193
    24 5.511820 0.000008 -0.000002 2.907040 -0.050466 3.092448
    25 0.196846 -0.000002 0.000003 2.793407 0.000006 -3.141577
    26 -3.630193 -16.091718 -1.875708 1.975862 1.159910 1.842803
    27 6.214486 0.000008 0.000019 -0.450615 -0.040764 -1.954632
    28 11.944888 -0.000031 -0.000200 0.294472 -0.211584 -0.630671
    29 10.620165 0.000002 0.000006 -1.839593 -0.248854 0.137489
    30 4.751158 0.694374 -0.830474 0.359905 -0.083563 0.302726
    31 1.688065 -0.000022 0.000002 0.023770 -0.006987 0.153432
    32 1.336151 -0.000051 -0.000009 0.021453 -0.032292 -0.215678
    33 4.820515 0.509338 0.224866 -0.009279 -0.246245 0.618238
    34 1.826992 0.000066 0.000010 -0.037944 0.014231 0.061609
    35 1.436581 -0.000006 0.000010 0.013552 -0.006877 -0.259325
    36 3.992353 0.891087 1.827993 -0.341409 -0.451533 0.861093
    37 1.405926 0.000031 -0.000003 0.019624 -0.022081 0.148751
    38 1.175362 -0.000132 0.000001 0.044589 0.114999 0.325892
    39 4.526758 0.690464 1.120843 -0.690301 -0.358392 0.884942
    40 1.744041 -0.000031 -0.000002 0.019884 -0.027844 0.066325
    41 1.368767 -0.000031 -0.000018 0.009194 0.158448 -0.127227
    42 1.925640 0.970239 -0.936627 2.111794 0.823014 0.996405
    43 1.523453 -0.000032 -0.000002 -0.082781 -0.077259 0.473681
    44 1.599281 -0.000004 0.000010 0.074352 0.038113 0.353608
    45 5.511806 -0.000002 0.000003 -0.319263 0.000005 0.000007
    46 0.196849 0.000003 -0.000001 -0.348225 0.000015 -0.000002
    47 0.000000 0.999512 0.000000 0.000000 0.000000 -1.570796
    48 -7.232777 -19.832160 -10.611145 -0.425057 -0.330578 1.474997
    49 10.507813 1.268555 0.331787 -0.768919 1.026263 0.762760
    50 -2.845604 0.419043 -0.467847 0.000000 0.000000 0.000000
    51 6.850185 -0.544975 -0.107286 0.000000 0.000000 0.000000
    52 6.282042 -0.570026 2.993409 0.000000 0.000000 0.000000
    53 0.456358 -0.073310 1.286493 0.000000 0.000000 0.000000
    54 -0.892130 0.000000 0.000000 0.000000 0.000000 0.000000
    55 -1.573022 -13.142673 1.101428 2.299655 -0.192253 -0.876549
  time 14
    0 -0.000001 8.445313 -27.500000 0.000000 0.000000 -0.000001
    1 -0.000002 0.000000 0.000000 1.570747 -1.567142 -1.570747
    2 4.255466 -0.335183 -0.000002 0.000000 0.000000 -0.124848
    3 7.431250 1.496479 0.000002 0.000000 0.000000 0.245450
    4 5.278479 0.165544 0.000001 0.000000 0.000000 0.048511
    5 -1.156250 -7.234375 1.488281 1.975865 1.159909 -1.298786
    6 -6.214478 -0.000009 -0.000026 3.580252 -0.373240 1.718745
    7 11.944885 0.000000 0.000000 -0.281729 -0.344650 1.741309
    8 10.620188 0.000000 0.000000 0.902290 -0.534251 1.191823
    9 -4.751108 -0.694498 0.830580 0.091089 -0.137791 0.512572
    10 -1.688068 0.000047 -0.000031 0.021339 -0.012592 0.401006
    11 -1.336140 0.000055 -0.000010 0.026028 0.004411 0.385914
    12 -4.820494 -0.509464 -0.224759 -0.483770 0.048669 1.471721
    13 -1.826984 -0.000069 0.000008 -0.020071 0.035210 0.755575
    14 -1.436569 0.000004 0.000003 -0.037180 -0.068375 0.406210
    15 -3.992357 -0.891191 -1.827909 -0.663700 0.330731 1.641158
    16 -1.405918 -0.000025 -0.000002 0.015413 -0.025188 0.326537
    17 -1.175358 0.000126 -0.000019 0.035883 0.057750 0.459783
    18 -4.526751 -0.690580 -1.120741 -0.566792 0.240105 1.658922
    19 -1.744038 0.000032 -0.000008 -0.003776 -0.029371 0.538782
    20 -1.368771 0.000023 0.000002 0.026576 0.045310 0.425758
    21 -1.874796 -0.935125 0.999175 2.324522 0.378348 1.332630
    22 -1.523447 0.000031 0.000031 0.050586 0.166436 0.397571
    23 -1.599285 0.000011 0.000015 0.027731 -0.032813 0.849193
    24 5.511820 0.000008 -0.000002 2.907040 -0.050466 3.092448
    25 0.196846 -0.000002 0.000003 2.793407 0.000006 -3.141577
    26 -3.630193 -16.091718 -1.875708 1.975862 1.159910 1.842803
    27 6.214486 0.000008 0.000019 -0.451337 -0.042989 -1.956529
    28 11.944888 -0.000031 -0.000200 0.293776 -0.210637 -0.627316
    29 10.620165 0.000002 0.000006 -1.797407 -0.271779 0.124585
    30 4.751158 0.694374 -0.830474 0.359857 -0.083671 0.302784
    31 1.688065 -0.000022 0.000002 0.023770 -0.006975 0.153272
    32 1.336151 -0.000051 -0.000009 0.021465 -0.032292 -0.215980
    33 4.820515 0.509338 0.224866 -0.009579 -0.245891 0.618762
    34 1.826992 0.000066 0.000010 -0.037944 0.014219 0.061351
    35 1.436581 -0.000006 0.000010 0.013564 -0.006853 -0.261067
    36 3.992353 0.891087 1.827993 -0.341984 -0.452971 0.861656
    37 1.405926 0.000031 -0.000003 0.019624 -0.022069 0.148563
    38 1.175362 -0.000132 0.000001 0.045967 0.114448 0.337920
    39 4.526758 0.690464 1.120843 -0.695024 -0.358188 0.885570
    40 1.744041 -0.000031 -0.000002 0.019968 -0.027856 0.065896
    41 1.368767 -0.000031 -0.000018 0.011831 0.158280 -0.110541
    42 1.925640 0.970239 -0.936627 2.111679 0.823074 0.996439
    43 1.523453 -0.000032 -0.000002 -0.082638 -0.077139 0.477312
    44 1.599281 -0.000004 0.000010 0.075035 0.036735 0.371998
    45 5.511806 -0.000002 0.000003 -0.319263 0.000005 0.000007
    46 0.196849 0.000003 -0.000001 -0.348225 0.000015 -0.000002
    47 0.000000 0.999512 0.000000 0.000000 0.000000 -1.570796
    48 -7.275747 -19.832160 -10.634584 -0.424434 -0.333873 1.463410
    49 10.507813 1.268555 0.331787 -0.768919 1.026263 0.762760
    50 -2.845604 0.419043 -0.467847 0.000000 0.000000 0.000000
    51 6.850185 -0.544975 -0.107286 0.000000 0.000000 0.000000
    52 6.282042 -0.570026 2.993409 0.000000 0.000000 0.000000
    53 0.456358 -0.073310 1.286493 0.000000 0.000000 0.000000
    54 -0.892130 0.000000 0.000000 0.000000 0.000000 0.000000
    55 -1.401142 -13.216894 1.089709 2.283919 -0.194910 -0.819902
  time 15
    0 -0.000001 8.445313 -27.500000 0.000000 0.000000 -0.000001
    1 -0.000002 0.000000 0.000000 1.570747 -1.567142 -1.570747
    2 4.255466 -0.335183 -0.000002 0.000000 0.000000 -0.124848
    3 7.431250 1.496479 0.000002 0.000000 0.000000 0.245450
    4 5.278479 0.165544 0.000001 0.000000 0.000000 0.048511
    5 -1.156250 -7.234375 1.488281 1.975865 1.159909 -1.298786
    6 -6.214478 -0.000009 -0.000026 3.579466 -0.372496 1.716313
    7 11.944885 0.000000 0.000000 -0.281533 -0.344686 1.740713
    8 10.620188 0.000000 0.000000 0.899252 -0.530305 1.187922
    9 -4.751108 -0.694498 0.830580 0.091089 -0.137791 0.512572
    10 -1.688068 0.000047 -0.000031 0.021339 -0.012592 0.401006
    11 -1.336140 0.000055 -0.000010 0.026028 0.004411 0.385914
    12 -4.820494 -0.509464 -0.224759 -0.483770 0.048669 1.471721
    13 -1.826984 -0.000069 0.000008 -0.020071 0.035210 0.755575
    14 -1.436569 0.000004 0.000003 -0.037180 -0.068375 0.406210
    15 -3.992357 -0.891191 -1.827909 -0.663700 0.330731 1.641158
    16 -1.405918 -0.000025 -0.000002 0.015413 -0.025188 0.326537
    17 -1.175358 0.000126 -0.000019 0.035883 0.057750 0.459783
    18 -4.526751 -0.690580 -1.120741 -0.566792 0.240105 1.658922
    19 -1.744038 0.000032 -0.000008 -0.003776 -0.029371 0.538782
    20 -1.368771 0.000023 0.000002 0.026576 0.045310 0.425758
    21 -1.874796 -0.935125 0.999175 2.324522 0.378348 1.332630
    22 -1.523447 0.000031 0.000031 0.050586 0.166436 0.397571
    23 -1.599285 0.000011 0.000015 0.027731 -0.032813 0.849193
    24 5.511820 0.000008 -0.000002 2.907040 -0.050466 3.092448
    25 0.196846 -0.000002 0.000003 2.793407 0.000006 -3.141577
    26 -3.630193 -16.091718 -1.875708 1.975862 1.159910 1.842803
    27 6.214486 0.000008 0.000019 -0.451403 -0.043324 -1.956800
    28 11.944888 -0.000031 -0.000200 0.293669 -0.210494 -0.626812
    29 10.620165 0.000002 0.000006 -1.775950 -0.284812 0.117345
    30 4.751158 0.694374 -0.830474 0.359845 -0.083695 0.302784
    31 1.688065 -0.000022 0.000002 0.023770 -0.006975 0.153245
    32 1.336151 -0.000051 -0.000009 0.021465 -0.032280 -0.216023
    33 4.820515 0.509338 0.224866 -0.009674 -0.245790 0.618925
    34 1.826992 0.000066 0.000010 -0.037944 0.014219 0.061299
    35 1.436581 -0.000006 0.000010 0.013564 -0.006853 -0.261600
    36 3.992353 0.891087 1.827993 -0.342164 -0.453379 0.861864
    37 1.405926 0.000031 -0.000003 0.019624 -0.022069 0.148563
    38 1.175362 -0.000132 0.000001 0.046374 0.114292 0.341437
    39 4.526758 0.690464 1.120843 -0.696402 -0.358116 0.885743
    40 1.744041 -0.000031 -0.000002 0.019992 -0.027868 0.065854
    41 1.368767 -0.000031 -0.000018 0.012598 0.158220 -0.105617
    42 1.925640 0.970239 -0.936627 2.111636 0.823086 0.996439
    43 1.523453 -0.000032 -0.000002 -0.082590 -0.077103 0.478343
    44 1.599281 -0.000004 0.000010 0.075227 0.036327 0.377406
    45 5.511806 -0.000002 0.000003 -0.319263 0.000005 0.000007
    46 0.196849 0.000003 -0.000001 -0.348225 0.000015 -0.000002
    47 0.000000 0.999512 0.000000 0.000000 0.000000 -1.570796
    48 -7.283560 -19.832160 -10.638490 -0.424175 -0.335131 1.458622
    49 10.507813 1.268555 0.331787 -0.768919 1.026263 0.762760
    50 -2.845604 0.419043 -0.467847 0.000000 0.000000 0.000000
    51 6.850185 -0.544975 -0.107286 0.000000 0.000000 0.000000
    52 6.282042 -0.570026 2.993409 0.000000 0.000000 0.000000
    53 0.456358 -0.073310 1.286493 0.000000 0.000000 0.000000
    54 -0.892130 0.000000 0.000000 0.000000 0.000000 0.000000
    55 -1.338640 -13.232520 1.074083 2.274725 -0.194990 -0.791436
end
