version 1
nodes
0 "root" -1
1 "pelvis" 0
2 "spine_01" 1
3 "spine_02" 2
4 "spine_03" 3
5 "clavicle_r" 4
6 "upperarm_r" 5
7 "lowerarm_r" 6
8 "hand_r" 7
9 "index_01_r" 8
10 "index_02_r" 9
11 "index_03_r" 10
12 "middle_01_r" 8
13 "middle_02_r" 12
14 "middle_03_r" 13
15 "pinky_01_r" 8
16 "pinky_02_r" 15
17 "pinky_03_r" 16
18 "ring_01_r" 8
19 "ring_02_r" 18
20 "ring_03_r" 19
21 "thumb_01_r" 8
22 "thumb_02_r" 21
23 "thumb_03_r" 22
24 "BaseMesh" 8
25 "Mag" 24
26 "Bullet.001" 25
27 "Bullet.002" 25
28 "Hammer" 24
29 "Trigger" 24
30 "Slide" 24
31 "MagRelease" 24
32 "rhand_ikTarget" 24
33 "LHand_IKtarget" 24
34 "lowerarm_twist_01_r" 7
35 "upperarm_twist_01_r" 6
36 "clavicle_l" 4
37 "upperarm_l" 36
38 "lowerarm_l" 37
39 "hand_l" 38
40 "index_01_l" 39
41 "index_02_l" 40
42 "index_03_l" 41
43 "middle_01_l" 39
44 "middle_02_l" 43
45 "middle_03_l" 44
46 "pinky_01_l" 39
47 "pinky_02_l" 46
48 "pinky_03_l" 47
49 "ring_01_l" 39
50 "ring_02_l" 49
51 "ring_03_l" 50
52 "thumb_01_l" 39
53 "thumb_02_l" 52
54 "thumb_03_l" 53
55 "BaseLeftMesh" 39
56 "lowerarm_twist_01_l" 38
57 "upperarm_twist_01_l" 37
58 "cam_driver" -1
59 "MagLeft" 55
60 "BulletLeft.001" 59
61 "BulletLeft.002" 59
62 "HammerLeft" 55
63 "TriggerLeft" 55
64 "SlideLeft" 55
65 "MagReleaseLeft" 55
end
skeleton
time 0
0 -0.00000100 7.45008900 -27.50902600 0.00000000 0.00000000 0.00003100
1 -0.00000200 0.00000000 0.00000000 1.57074300 -1.56713700 -1.57074300
2 4.25546800 -0.33518300 -0.00000200 0.00000000 0.00000000 -0.12484800
3 7.43124800 1.49647700 0.00000200 0.00000000 0.00000000 0.24545000
4 5.27847900 0.16554100 0.00000100 0.00000000 0.00000000 0.04851100
5 -5.43565849 -11.28980471 3.65194830 1.97586400 1.15990900 -1.29878600
6 -6.21448200 -0.00000700 -0.00002700 -2.46739895 -0.28357535 1.27817374
7 11.94488200 0.00000000 0.00000100 -0.17151766 -0.34546454 1.41796306
8 10.62018100 0.00000200 0.00000000 1.55714842 0.94756261 -2.90089004
9 -4.75110600 -0.69449400 0.83057700 -0.26506600 -0.18521200 0.63841500
10 -1.68806800 0.00004600 -0.00003200 0.01731800 -0.01762500 0.66104700
11 -1.33614000 0.00005700 -0.00001200 0.02626800 0.00232700 0.46266200
12 -4.82049400 -0.50946000 -0.22475900 -0.38762900 -0.15787300 1.43729400
13 -1.82699200 -0.00006400 0.00000600 -0.00832800 0.03958800 1.06556400
14 -1.43657300 0.00000600 0.00000200 -0.06013400 -0.04938400 0.79162700
15 -3.99235500 -0.89118800 -1.82790900 -0.52403500 -0.01122400 1.32361200
16 -1.40591800 -0.00002500 -0.00000300 0.00059000 -0.02949400 0.85590800
17 -1.17535800 0.00012800 -0.00002000 0.06441700 0.02146300 1.15302800
18 -4.52675100 -0.69057500 -1.12074400 -0.41812900 0.00776900 1.49266300
19 -1.74403800 0.00003300 -0.00000800 -0.01905300 -0.02261400 1.11317400
20 -1.36877100 0.00002500 0.00000200 0.03795400 0.03618700 0.70440900
21 -1.71880667 -1.28270602 0.93153533 1.57572100 0.71979300 0.76744700
22 -1.52345300 0.00003200 0.00003100 0.06700800 -0.06405200 0.80965500
23 -1.59928500 0.00000400 0.00001600 -0.08164900 -0.03194200 0.96752300
24 -4.17018119 -1.85440029 0.75344233 -0.19041700 -0.17086800 0.45004000
25 -0.42046500 -0.01874300 1.27144000 0.00000000 0.00000200 0.00000000
26 0.51676100 0.00000000 0.12868700 0.00000000 0.00000000 0.00000000
27 0.55741200 0.00000000 -0.30289500 0.00000000 0.00000000 0.00000000
28 1.38857800 -0.00968900 0.99806900 0.00000000 0.92497500 0.00000000
29 -1.50030400 -0.00968900 0.35764300 0.00000000 0.00000200 0.00000000
30 -2.97853600 -0.00968700 2.09113200 0.00000000 0.00000200 0.00000000
31 -1.12622600 -0.58494000 -0.29313200 0.00000000 0.00000200 0.00000000
32 4.36703641 0.14565127 -1.51804760 0.34342901 1.05904066 1.58127267
33 4.43368108 -9.39531277 -2.20139626 3.09329560 0.06376267 -1.35009939
34 5.51181500 0.00000800 -0.00000100 2.24315252 0.00101627 3.14101364
35 0.19684700 -0.00000100 0.00000300 2.79340691 -0.00074555 -3.14141936
36 -5.87552610 -11.36554451 -1.48897967 1.97586200 1.15990900 1.84280300
37 6.21448500 0.00000600 0.00002000 -0.83933619 0.37331910 -1.91190608
38 11.94488500 -0.00002900 -0.00019400 0.11671367 -0.30795889 -1.79652973
39 10.62016600 0.00000200 0.00001000 -1.80499125 -0.78058696 0.21851334
40 4.75115600 0.69437600 -0.83047300 -0.05602700 -0.27916300 0.54604800
41 1.68806500 -0.00002600 0.00000200 0.01539067 -0.01932333 0.76594386
42 1.33615100 -0.00005100 -0.00000900 -0.01007300 -0.03740000 0.63314200
43 4.82051300 0.50934000 0.22486500 -0.28205900 -0.32014200 1.39285600
44 1.82699600 0.00006600 0.00000800 0.00429700 0.04021300 1.37938400
45 1.43657700 -0.00001000 0.00000700 0.00705100 -0.01338400 0.35840500
46 3.99235300 0.89108700 1.82799400 -0.53567300 0.00104600 1.72652200
47 1.40591800 0.00002100 -0.00000700 -0.00899200 -0.02807500 1.18372600
48 1.17536900 -0.00013100 0.00000200 0.07309900 0.09934300 0.59118900
49 4.52675600 0.69046000 1.12084200 -0.48549600 -0.17575400 1.64130100
50 1.74404100 -0.00003100 -0.00000200 -0.02571800 -0.01458600 1.46815600
51 1.36876300 -0.00003100 -0.00001700 0.05083100 0.15037000 0.14223800
52 1.87485500 0.93508100 -0.99913000 2.12600600 0.48345000 1.08286200
53 1.52344900 -0.00003400 -0.00000300 -0.46017900 -0.05709800 0.78018400
54 1.59928100 -0.00000200 0.00000900 0.07977600 -0.02452500 1.12383700
55 4.12304470 1.85985845 -0.74225751 3.13944600 0.28836000 -2.79269100
56 5.51180600 -0.00000200 0.00000600 -0.45644935 0.00000390 0.00000435
57 0.19685000 0.00000300 -0.00000200 -0.34822500 0.00001500 -0.00000200
58 0.00000000 0.00000000 0.00000000 0.00000000 0.00000000 -1.57079600
59 -0.42046300 -0.01874400 1.27144300 0.00000000 0.00000000 0.00000000
60 0.51676100 0.00000000 0.12868700 0.00000000 0.00000000 0.00000000
61 0.55741200 0.00000000 -0.30289600 0.00000000 0.00000000 0.00000000
62 1.38857800 -0.00968900 0.99807100 0.00000000 0.92497500 0.00000000
63 -1.50030300 -0.00968900 0.35764200 0.00000000 0.00000000 0.00000000
64 -2.97854100 -0.00968700 2.09113500 0.00000000 0.00000000 0.00000000
65 -1.12622600 -0.58494000 -0.29313400 0.00000000 0.00000000 0.00000000
time 1
0 -0.00000100 7.45008900 -27.50902600 0.00000000 0.00000000 0.00003100
1 -0.00000200 0.00000000 0.00000000 1.57074300 -1.56713700 -1.57074300
2 4.25546800 -0.33518300 -0.00000200 0.00000000 0.00000000 -0.12484800
3 7.43124800 1.49647700 0.00000200 0.00000000 0.00000000 0.24545000
4 5.27847900 0.16554100 0.00000100 0.00000000 0.00000000 0.04851100
5 -5.38696266 -11.25979408 3.65194830 1.97586400 1.15990900 -1.29878600
6 -6.21448200 -0.00000700 -0.00002700 -2.47702145 -0.30903044 1.27646659
7 11.94488200 0.00000000 0.00000100 -0.18654021 -0.34740801 1.46230104
8 10.62018100 0.00000200 0.00000000 1.37866509 0.93301412 -3.12145219
9 -4.75110600 -0.69449400 0.83057700 -0.26506600 -0.18521200 0.63841500
10 -1.68806800 0.00004600 -0.00003200 0.01731800 -0.01762500 0.66104700
11 -1.33614000 0.00005700 -0.00001200 0.02626800 0.00232700 0.46266200
12 -4.82049400 -0.50946000 -0.22475900 -0.38762900 -0.15787300 1.43729400
13 -1.82699200 -0.00006400 0.00000600 -0.00832800 0.03958800 1.06556400
14 -1.43657300 0.00000600 0.00000200 -0.06013400 -0.04938400 0.79162700
15 -3.99235500 -0.89118800 -1.82790900 -0.52403500 -0.01122400 1.32361200
16 -1.40591800 -0.00002500 -0.00000300 0.00059000 -0.02949400 0.85590800
17 -1.17535800 0.00012800 -0.00002000 0.06441700 0.02146300 1.15302800
18 -4.52675100 -0.69057500 -1.12074400 -0.41812900 0.00776900 1.49266300
19 -1.74403800 0.00003300 -0.00000800 -0.01905300 -0.02261400 1.11317400
20 -1.36877100 0.00002500 0.00000200 0.03795400 0.03618700 0.70440900
21 -1.71880667 -1.28270602 0.93153533 1.57572100 0.71979300 0.76744700
22 -1.52345300 0.00003200 0.00003100 0.06700800 -0.06405200 0.80965500
23 -1.59928500 0.00000400 0.00001600 -0.08164900 -0.03194200 0.96752300
24 -4.17018119 -1.85440029 0.75344233 -0.19041700 -0.17086800 0.45004000
25 -0.42046500 -0.01874300 1.27144000 0.00000000 0.00000200 0.00000000
26 0.51676100 0.00000000 0.12868700 0.00000000 0.00000000 0.00000000
27 0.55741200 0.00000000 -0.30289500 0.00000000 0.00000000 0.00000000
28 1.38857800 -0.00968900 0.99806900 0.00000000 0.92497500 0.00000000
29 -1.50030400 -0.00968900 0.35764300 0.00000000 0.00000200 0.00000000
30 -2.97853600 -0.00968700 2.09113200 0.00000000 0.00000200 0.00000000
31 -1.12622600 -0.58494000 -0.29313200 0.00000000 0.00000200 0.00000000
32 4.36703641 0.14565127 -1.51804760 0.34340800 1.05906200 1.58127300
33 4.50907839 -9.60379944 -2.03975551 3.09093553 0.05084850 -1.39590649
34 5.51181500 0.00000800 -0.00000100 2.24315252 0.00101627 3.14101364
35 0.19684700 -0.00000100 0.00000300 2.79340691 -0.00074555 -3.14141936
36 -5.82682993 -11.33553387 -1.48897967 1.97586200 1.15990900 1.84280300
37 6.21448500 0.00000600 0.00002000 -0.83762472 0.36585393 -1.90783775
38 11.94488500 -0.00002900 -0.00019400 0.09741474 -0.34321087 -1.73573865
39 10.62016600 0.00000200 0.00001000 -1.83676498 -0.73980172 0.10396337
40 4.75115600 0.69437600 -0.83047300 -0.05602700 -0.27916300 0.54604800
41 1.68806500 -0.00002600 0.00000200 0.01539067 -0.01932333 0.76594386
42 1.33615100 -0.00005100 -0.00000900 -0.01007300 -0.03740000 0.63314200
43 4.82051300 0.50934000 0.22486500 -0.28205900 -0.32014200 1.39285600
44 1.82699600 0.00006600 0.00000800 0.00429700 0.04021300 1.37938400
45 1.43657700 -0.00001000 0.00000700 0.00705100 -0.01338400 0.35840500
46 3.99235300 0.89108700 1.82799400 -0.53567300 0.00104600 1.72652200
47 1.40591800 0.00002100 -0.00000700 -0.00899200 -0.02807500 1.18372600
48 1.17536900 -0.00013100 0.00000200 0.07309900 0.09934300 0.59118900
49 4.52675600 0.69046000 1.12084200 -0.48549600 -0.17575400 1.64130100
50 1.74404100 -0.00003100 -0.00000200 -0.02571800 -0.01458600 1.46815600
51 1.36876300 -0.00003100 -0.00001700 0.05083100 0.15037000 0.14223800
52 1.87485500 0.93508100 -0.99913000 2.12600600 0.48345000 1.08286200
53 1.52344900 -0.00003400 -0.00000300 -0.46017900 -0.05709800 0.78018400
54 1.59928100 -0.00000200 0.00000900 0.07977600 -0.02452500 1.12383700
55 4.12299119 1.85984565 -0.74224208 3.13944600 0.28836000 -2.79269100
56 5.51180600 -0.00000200 0.00000600 -0.45644935 0.00000390 0.00000435
57 0.19685000 0.00000300 -0.00000200 -0.34822500 0.00001500 -0.00000200
58 0.00000000 0.00000000 0.00000000 0.00000000 0.00000000 -1.57079600
59 -0.42046300 -0.01874400 1.27144300 0.00000000 0.00000000 0.00000000
60 0.51676100 0.00000000 0.12868700 0.00000000 0.00000000 0.00000000
61 0.55741200 0.00000000 -0.30289600 0.00000000 0.00000000 0.00000000
62 1.38857800 -0.00968900 0.99807100 0.00000000 0.92497500 0.00000000
63 -1.50030300 -0.00968900 0.35764200 0.00000000 0.00000000 0.00000000
64 -2.97854100 -0.00968700 2.09113500 0.00000000 0.00000000 0.00000000
65 -1.12622600 -0.58494000 -0.29313400 0.00000000 0.00000000 0.00000000
time 2
0 -0.00000100 7.45008900 -27.50902600 0.00000000 0.00000000 0.00003100
1 -0.00000200 0.00000000 0.00000000 1.57074300 -1.56713700 -1.57074300
2 4.25546800 -0.33518300 -0.00000200 0.00000000 0.00000000 -0.12484800
3 7.43124800 1.49647700 0.00000200 0.00000000 0.00000000 0.24545000
4 5.27847900 0.16554100 0.00000100 0.00000000 0.00000000 0.04851100
5 -5.25478549 -11.17833726 3.65194863 1.97586400 1.15990900 -1.29878600
6 -6.21448200 -0.00000700 -0.00002700 -2.48103734 -0.32690467 1.26165687
7 11.94488200 0.00000000 0.00000100 -0.20045042 -0.34853866 1.50303102
8 10.62018100 0.00000200 0.00000000 1.20467679 0.82582596 2.89621085
9 -4.75110600 -0.69449400 0.83057700 -0.26506600 -0.18521200 0.63841500
10 -1.68806800 0.00004600 -0.00003200 0.01731800 -0.01762500 0.66104700
11 -1.33614000 0.00005700 -0.00001200 0.02626800 0.00232700 0.46266200
12 -4.82049400 -0.50946000 -0.22475900 -0.38762900 -0.15787300 1.43729400
13 -1.82699200 -0.00006400 0.00000600 -0.00832800 0.03958800 1.06556400
14 -1.43657300 0.00000600 0.00000200 -0.06013400 -0.04938400 0.79162700
15 -3.99235500 -0.89118800 -1.82790900 -0.52403500 -0.01122400 1.32361200
16 -1.40591800 -0.00002500 -0.00000300 0.00059000 -0.02949400 0.85590800
17 -1.17535800 0.00012800 -0.00002000 0.06441700 0.02146300 1.15302800
18 -4.52675100 -0.69057500 -1.12074400 -0.41812900 0.00776900 1.49266300
19 -1.74403800 0.00003300 -0.00000800 -0.01905300 -0.02261400 1.11317400
20 -1.36877100 0.00002500 0.00000200 0.03795400 0.03618700 0.70440900
21 -1.71880667 -1.28270602 0.93153533 1.57572100 0.71979300 0.76744700
22 -1.52345300 0.00003200 0.00003100 0.06700800 -0.06405200 0.80965500
23 -1.59928500 0.00000400 0.00001600 -0.08164900 -0.03194200 0.96752300
24 -4.17018119 -1.85440029 0.75344233 -0.19041700 -0.17086800 0.45004000
25 -0.42046500 -0.01874300 1.27144000 0.00000000 0.00000200 0.00000000
26 0.51676100 0.00000000 0.12868700 0.00000000 0.00000000 0.00000000
27 0.55741200 0.00000000 -0.30289500 0.00000000 0.00000000 0.00000000
28 1.38857800 -0.00968900 0.99806900 0.00000000 0.92497500 0.00000000
29 -1.50030400 -0.00968900 0.35764300 0.00000000 0.00000200 0.00000000
30 -2.97853600 -0.00968700 2.09113200 0.00000000 0.00000200 0.00000000
31 -1.12622600 -0.58494000 -0.29313200 0.00000000 0.00000200 0.00000000
32 4.36703641 0.14565127 -1.51804760 0.34340800 1.05906200 1.58127300
33 4.65690095 -10.00878027 -1.91826382 3.08538035 -0.01979860 -1.48484510
34 5.51181500 0.00000800 -0.00000100 2.24315252 0.00101627 3.14101364
35 0.19684700 -0.00000100 0.00000300 2.79340691 -0.00074555 -3.14141936
36 -5.69465243 -11.25407738 -1.48897967 1.97586200 1.15990900 1.84280300
37 6.21448500 0.00000600 0.00002000 -0.83485154 0.36821040 -1.89281873
38 11.94488500 -0.00002900 -0.00019400 0.07057284 -0.38129764 -1.66046348
39 10.62016600 0.00000200 0.00001000 -1.83547818 -0.65005193 -0.01292367
40 4.75115600 0.69437600 -0.83047300 -0.05602700 -0.27916300 0.54604800
41 1.68806500 -0.00002600 0.00000200 0.01539067 -0.01932333 0.76594386
42 1.33615100 -0.00005100 -0.00000900 -0.01007300 -0.03740000 0.63314200
43 4.82051300 0.50934000 0.22486500 -0.28205900 -0.32014200 1.39285600
44 1.82699600 0.00006600 0.00000800 0.00429700 0.04021300 1.37938400
45 1.43657700 -0.00001000 0.00000700 0.00705100 -0.01338400 0.35840500
46 3.99235300 0.89108700 1.82799400 -0.53567300 0.00104600 1.72652200
47 1.40591800 0.00002100 -0.00000700 -0.00899200 -0.02807500 1.18372600
48 1.17536900 -0.00013100 0.00000200 0.07309900 0.09934300 0.59118900
49 4.52675600 0.69046000 1.12084200 -0.48549600 -0.17575400 1.64130100
50 1.74404100 -0.00003100 -0.00000200 -0.02571800 -0.01458600 1.46815600
51 1.36876300 -0.00003100 -0.00001700 0.05083100 0.15037000 0.14223800
52 1.87485500 0.93508100 -0.99913000 2.12600600 0.48345000 1.08286200
53 1.52344900 -0.00003400 -0.00000300 -0.46017900 -0.05709800 0.78018400
54 1.59928100 -0.00000200 0.00000900 0.07977600 -0.02452500 1.12383700
55 4.12292356 1.85984335 -0.74217478 3.13944600 0.28836000 -2.79269100
56 5.51180600 -0.00000200 0.00000600 -0.45644935 0.00000390 0.00000435
57 0.19685000 0.00000300 -0.00000200 -0.34822500 0.00001500 -0.00000200
58 0.00000000 0.00000000 0.00000000 0.00000000 0.00000000 -1.57079600
59 -0.42046300 -0.01874400 1.27144300 0.00000000 0.00000000 0.00000000
60 0.51676100 0.00000000 0.12868700 0.00000000 0.00000000 0.00000000
61 0.55741200 0.00000000 -0.30289600 0.00000000 0.00000000 0.00000000
62 1.38857800 -0.00968900 0.99807100 0.00000000 0.92497500 0.00000000
63 -1.50030300 -0.00968900 0.35764200 0.00000000 0.00000000 0.00000000
64 -2.97854100 -0.00968700 2.09113500 0.00000000 0.00000000 0.00000000
65 -1.12622600 -0.58494000 -0.29313400 0.00000000 0.00000000 0.00000000
time 3
0 -0.00000100 7.45008900 -27.50902600 0.00000000 0.00000000 0.00003100
1 -0.00000200 0.00000000 0.00000000 1.57074300 -1.56713700 -1.57074300
2 4.25546800 -0.33518300 -0.00000200 0.00000000 0.00000000 -0.12484800
3 7.43124800 1.49647700 0.00000200 0.00000000 0.00000000 0.24545000
4 5.27847900 0.16554100 0.00000100 0.00000000 0.00000000 0.04851100
5 -5.05999887 -11.05829605 3.65194863 1.97586400 1.15990900 -1.29878600
6 -6.21448200 -0.00000700 -0.00002700 -2.47229388 -0.32168994 1.23342560
7 11.94488200 0.00000000 0.00000100 -0.20109713 -0.34856735 1.50485449
8 10.62018100 0.00000200 0.00000000 1.19139693 0.68477604 2.79022439
9 -4.75110600 -0.69449400 0.83057700 -0.26506600 -0.18521200 0.63841500
10 -1.68806800 0.00004600 -0.00003200 0.01731800 -0.01762500 0.66104700
11 -1.33614000 0.00005700 -0.00001200 0.02626800 0.00232700 0.46266200
12 -4.82049400 -0.50946000 -0.22475900 -0.38762900 -0.15787300 1.43729400
13 -1.82699200 -0.00006400 0.00000600 -0.00832800 0.03958800 1.06556400
14 -1.43657300 0.00000600 0.00000200 -0.06013400 -0.04938400 0.79162700
15 -3.99235500 -0.89118800 -1.82790900 -0.52403500 -0.01122400 1.32361200
16 -1.40591800 -0.00002500 -0.00000300 0.00059000 -0.02949400 0.85590800
17 -1.17535800 0.00012800 -0.00002000 0.06441700 0.02146300 1.15302800
18 -4.52675100 -0.69057500 -1.12074400 -0.41812900 0.00776900 1.49266300
19 -1.74403800 0.00003300 -0.00000800 -0.01905300 -0.02261400 1.11317400
20 -1.36877100 0.00002500 0.00000200 0.03795400 0.03618700 0.70440900
21 -1.71880667 -1.28270602 0.93153533 1.57572100 0.71979300 0.76744700
22 -1.52345300 0.00003200 0.00003100 0.06700800 -0.06405200 0.80965500
23 -1.59928500 0.00000400 0.00001600 -0.08164900 -0.03194200 0.96752300
24 -4.17018119 -1.85440029 0.75344233 -0.19041700 -0.17086800 0.45004000
25 -0.42046500 -0.01874300 1.27144000 0.00000000 0.00000200 0.00000000
26 0.51676100 0.00000000 0.12868700 0.00000000 0.00000000 0.00000000
27 0.55741200 0.00000000 -0.30289500 0.00000000 0.00000000 0.00000000
28 1.38857800 -0.00968900 0.99806900 0.00000000 0.92497500 0.00000000
29 -1.50030400 -0.00968900 0.35764300 0.00000000 0.00000200 0.00000000
30 -2.97853600 -0.00968700 2.09113200 0.00000000 0.00000200 0.00000000
31 -1.12622600 -0.58494000 -0.29313200 0.00000000 0.00000200 0.00000000
32 4.36703641 0.14565127 -1.51804760 0.34340800 1.05906200 1.58127300
33 4.74851676 -10.38545343 -1.70335248 3.06948490 -0.15765177 -1.56435795
34 5.51181500 0.00000800 -0.00000100 2.24315252 0.00101627 3.14101364
35 0.19684700 -0.00000100 0.00000300 2.79340691 -0.00074555 -3.14141936
36 -5.49986647 -11.13403552 -1.48897934 1.97586200 1.15990900 1.84280300
37 6.21448500 0.00000600 0.00002000 -0.83847104 0.36127985 -1.88438263
38 11.94488500 -0.00002900 -0.00019400 0.03194536 -0.41848140 -1.56128173
39 10.62016600 0.00000200 0.00001000 -1.75957905 -0.53215485 -0.15634237
40 4.75115600 0.69437600 -0.83047300 -0.05602700 -0.27916300 0.54604800
41 1.68806500 -0.00002600 0.00000200 0.01539067 -0.01932333 0.76594386
42 1.33615100 -0.00005100 -0.00000900 -0.01007300 -0.03740000 0.63314200
43 4.82051300 0.50934000 0.22486500 -0.28205900 -0.32014200 1.39285600
44 1.82699600 0.00006600 0.00000800 0.00429700 0.04021300 1.37938400
45 1.43657700 -0.00001000 0.00000700 0.00705100 -0.01338400 0.35840500
46 3.99235300 0.89108700 1.82799400 -0.53567300 0.00104600 1.72652200
47 1.40591800 0.00002100 -0.00000700 -0.00899200 -0.02807500 1.18372600
48 1.17536900 -0.00013100 0.00000200 0.07309900 0.09934300 0.59118900
49 4.52675600 0.69046000 1.12084200 -0.48549600 -0.17575400 1.64130100
50 1.74404100 -0.00003100 -0.00000200 -0.02571800 -0.01458600 1.46815600
51 1.36876300 -0.00003100 -0.00001700 0.05083100 0.15037000 0.14223800
52 1.87485500 0.93508100 -0.99913000 2.12600600 0.48345000 1.08286200
53 1.52344900 -0.00003400 -0.00000300 -0.46017900 -0.05709800 0.78018400
54 1.59928100 -0.00000200 0.00000900 0.07977600 -0.02452500 1.12383700
55 4.12292356 1.85986469 -0.74200933 3.13944600 0.28836000 -2.79269100
56 5.51180600 -0.00000200 0.00000600 -0.45644935 0.00000390 0.00000435
57 0.19685000 0.00000300 -0.00000200 -0.34822500 0.00001500 -0.00000200
58 0.00000000 0.00000000 0.00000000 0.00000000 0.00000000 -1.57079600
59 -0.42046300 -0.01874400 1.27144300 0.00000000 0.00000000 0.00000000
60 0.51676100 0.00000000 0.12868700 0.00000000 0.00000000 0.00000000
61 0.55741200 0.00000000 -0.30289600 0.00000000 0.00000000 0.00000000
62 1.38857800 -0.00968900 0.99807100 0.00000000 0.92497500 0.00000000
63 -1.50030300 -0.00968900 0.35764200 0.00000000 0.00000000 0.00000000
64 -2.97854100 -0.00968700 2.09113500 0.00000000 0.00000000 0.00000000
65 -1.12622600 -0.58494000 -0.29313400 0.00000000 0.00000000 0.00000000
time 4
0 -0.00000100 7.45008900 -27.50902600 0.00000000 0.00000000 0.00003100
1 -0.00000200 0.00000000 0.00000000 1.57074300 -1.56713700 -1.57074300
2 4.25546800 -0.33518300 -0.00000200 0.00000000 0.00000000 -0.12484800
3 7.43124800 1.49647700 0.00000200 0.00000000 0.00000000 0.24545000
4 5.27847900 0.16554100 0.00000100 0.00000000 0.00000000 0.04851100
5 -4.82347175 -10.91253125 3.65194863 1.97586400 1.15990900 -1.29878600
6 -6.21448200 -0.00000700 -0.00002700 -2.45120504 -0.30261630 1.20545228
7 11.94488200 0.00000000 0.00000100 -0.19574999 -0.34825132 1.48921986
8 10.62018100 0.00000200 0.00000000 1.28740782 0.55981773 2.80338525
9 -4.75110600 -0.69449400 0.83057700 -0.26506600 -0.18521200 0.63841500
10 -1.68806800 0.00004600 -0.00003200 0.01731800 -0.01762500 0.66104700
11 -1.33614000 0.00005700 -0.00001200 0.02626800 0.00232700 0.46266200
12 -4.82049400 -0.50946000 -0.22475900 -0.38762900 -0.15787300 1.43729400
13 -1.82699200 -0.00006400 0.00000600 -0.00832800 0.03958800 1.06556400
14 -1.43657300 0.00000600 0.00000200 -0.06013400 -0.04938400 0.79162700
15 -3.99235500 -0.89118800 -1.82790900 -0.52403500 -0.01122400 1.32361200
16 -1.40591800 -0.00002500 -0.00000300 0.00059000 -0.02949400 0.85590800
17 -1.17535800 0.00012800 -0.00002000 0.06441700 0.02146300 1.15302800
18 -4.52675100 -0.69057500 -1.12074400 -0.41812900 0.00776900 1.49266300
19 -1.74403800 0.00003300 -0.00000800 -0.01905300 -0.02261400 1.11317400
20 -1.36877100 0.00002500 0.00000200 0.03795400 0.03618700 0.70440900
21 -1.71880667 -1.28270602 0.93153533 1.57572100 0.71979300 0.76744700
22 -1.52345300 0.00003200 0.00003100 0.06700800 -0.06405200 0.80965500
23 -1.59928500 0.00000400 0.00001600 -0.08164900 -0.03194200 0.96752300
24 -4.17018119 -1.85440029 0.75344233 -0.19041700 -0.17086800 0.45004000
25 -0.42046500 -0.01874300 1.27144000 0.00000000 0.00000200 0.00000000
26 0.51676100 0.00000000 0.12868700 0.00000000 0.00000000 0.00000000
27 0.55741200 0.00000000 -0.30289500 0.00000000 0.00000000 0.00000000
28 1.38857800 -0.00968900 0.99806900 0.00000000 0.92497500 0.00000000
29 -1.50030400 -0.00968900 0.35764300 0.00000000 0.00000200 0.00000000
30 -2.97853600 -0.00968700 2.09113200 0.00000000 0.00000200 0.00000000
31 -1.12622600 -0.58494000 -0.29313200 0.00000000 0.00000200 0.00000000
32 4.36703641 0.14565127 -1.51804760 0.34340800 1.05906200 1.58127300
33 4.83123570 -10.36657401 -1.23272363 3.03709480 -0.34640418 -1.57879996
34 5.51181500 0.00000800 -0.00000100 2.24315252 0.00101627 3.14101364
35 0.19684700 -0.00000100 0.00000300 2.79340691 -0.00074555 -3.14141936
36 -5.26333935 -10.98827072 -1.48897934 1.97586200 1.15990900 1.84280300
37 6.21448500 0.00000600 0.00002000 -0.84485103 0.34752292 -1.89675109
38 11.94488500 -0.00002900 -0.00019400 -0.00926248 -0.43941654 -1.45800769
39 10.62016600 0.00000200 0.00001000 -1.69154864 -0.42249715 -0.24075858
40 4.75115600 0.69437600 -0.83047300 -0.05602700 -0.27916300 0.54604800
41 1.68806500 -0.00002600 0.00000200 0.01539067 -0.01932333 0.76594386
42 1.33615100 -0.00005100 -0.00000900 -0.01007300 -0.03740000 0.63314200
43 4.82051300 0.50934000 0.22486500 -0.28205900 -0.32014200 1.39285600
44 1.82699600 0.00006600 0.00000800 0.00429700 0.04021300 1.37938400
45 1.43657700 -0.00001000 0.00000700 0.00705100 -0.01338400 0.35840500
46 3.99235300 0.89108700 1.82799400 -0.53567300 0.00104600 1.72652200
47 1.40591800 0.00002100 -0.00000700 -0.00899200 -0.02807500 1.18372600
48 1.17536900 -0.00013100 0.00000200 0.07309900 0.09934300 0.59118900
49 4.52675600 0.69046000 1.12084200 -0.48549600 -0.17575400 1.64130100
50 1.74404100 -0.00003100 -0.00000200 -0.02571800 -0.01458600 1.46815600
51 1.36876300 -0.00003100 -0.00001700 0.05083100 0.15037000 0.14223800
52 1.87485500 0.93508100 -0.99913000 2.12600600 0.48345000 1.08286200
53 1.52344900 -0.00003400 -0.00000300 -0.46017900 -0.05709800 0.78018400
54 1.59928100 -0.00000200 0.00000900 0.07977600 -0.02452500 1.12383700
55 4.12309821 1.85994774 -0.74176935 3.13944600 0.28836000 -2.79269100
56 5.51180600 -0.00000200 0.00000600 -0.45644935 0.00000390 0.00000435
57 0.19685000 0.00000300 -0.00000200 -0.34822500 0.00001500 -0.00000200
58 0.00000000 0.00000000 0.00000000 0.00000000 0.00000000 -1.57079600
59 -0.42046300 -0.01874400 1.27144300 0.00000000 0.00000000 0.00000000
60 0.51676100 0.00000000 0.12868700 0.00000000 0.00000000 0.00000000
61 0.55741200 0.00000000 -0.30289600 0.00000000 0.00000000 0.00000000
62 1.38857800 -0.00968900 0.99807100 0.00000000 0.92497500 0.00000000
63 -1.50030300 -0.00968900 0.35764200 0.00000000 0.00000000 0.00000000
64 -2.97854100 -0.00968700 2.09113500 0.00000000 0.00000000 0.00000000
65 -1.12622600 -0.58494000 -0.29313400 0.00000000 0.00000000 0.00000000
time 5
0 -0.00000100 7.45008900 -27.50902600 0.00000000 0.00000000 0.00003100
1 -0.00000200 0.00000000 0.00000000 1.57074300 -1.56713700 -1.57074300
2 4.25546800 -0.33518300 -0.00000200 0.00000000 0.00000000 -0.12484800
3 7.43124800 1.49647700 0.00000200 0.00000000 0.00000000 0.24545000
4 5.27847900 0.16554100 0.00000100 0.00000000 0.00000000 0.04851100
5 -4.56607504 -10.75390466 3.65194863 1.97586400 1.15990900 -1.29878600
6 -6.21448200 -0.00000700 -0.00002700 -2.43086896 -0.28786192 1.17589176
7 11.94488200 0.00000000 0.00000100 -0.19231751 -0.34794762 1.47925337
8 10.62018100 0.00000200 0.00000000 1.39503841 0.45631303 2.82558269
9 -4.75110600 -0.69449400 0.83057700 -0.26506600 -0.18521200 0.63841500
10 -1.68806800 0.00004600 -0.00003200 0.01731800 -0.01762500 0.66104700
11 -1.33614000 0.00005700 -0.00001200 0.02626800 0.00232700 0.46266200
12 -4.82049400 -0.50946000 -0.22475900 -0.38762900 -0.15787300 1.43729400
13 -1.82699200 -0.00006400 0.00000600 -0.00832800 0.03958800 1.06556400
14 -1.43657300 0.00000600 0.00000200 -0.06013400 -0.04938400 0.79162700
15 -3.99235500 -0.89118800 -1.82790900 -0.52403500 -0.01122400 1.32361200
16 -1.40591800 -0.00002500 -0.00000300 0.00059000 -0.02949400 0.85590800
17 -1.17535800 0.00012800 -0.00002000 0.06441700 0.02146300 1.15302800
18 -4.52675100 -0.69057500 -1.12074400 -0.41812900 0.00776900 1.49266300
19 -1.74403800 0.00003300 -0.00000800 -0.01905300 -0.02261400 1.11317400
20 -1.36877100 0.00002500 0.00000200 0.03795400 0.03618700 0.70440900
21 -1.71880802 -1.28270467 0.93153466 1.57572100 0.71979300 0.76744700
22 -1.52345300 0.00003200 0.00003100 0.06700800 -0.06405200 0.80965500
23 -1.59928500 0.00000400 0.00001600 -0.08164900 -0.03194200 0.96752300
24 -4.17018455 -1.85439895 0.75344099 -0.19041700 -0.17086800 0.45004000
25 -0.42046500 -0.01874300 1.27144000 0.00000000 0.00000200 0.00000000
26 0.51676100 0.00000000 0.12868700 0.00000000 0.00000000 0.00000000
27 0.55741200 0.00000000 -0.30289500 0.00000000 0.00000000 0.00000000
28 1.38857800 -0.00968900 0.99806900 0.00000000 0.92497500 0.00000000
29 -1.50030400 -0.00968900 0.35764300 0.00000000 0.00000200 0.00000000
30 -2.97853600 -0.00968700 2.09113200 0.00000000 0.00000200 0.00000000
31 -1.12622600 -0.58494000 -0.29313200 0.00000000 0.00000200 0.00000000
32 4.36703977 0.14566202 -1.51803483 0.34340800 1.05906200 1.58127300
33 4.94445102 -9.86956816 -0.88274436 2.98259396 -0.50728197 -1.51183863
34 5.51181500 0.00000800 -0.00000100 2.24315252 0.00101627 3.14101364
35 0.19684700 -0.00000100 0.00000300 2.79340691 -0.00074555 -3.14141936
36 -5.00594231 -10.82964380 -1.48897934 1.97586200 1.15990900 1.84280300
37 6.21448500 0.00000600 0.00002000 -0.84714193 0.33798499 -1.93044581
38 11.94488500 -0.00002900 -0.00019400 -0.04290600 -0.43400430 -1.36767225
39 10.62016600 0.00000200 0.00001000 -1.67895354 -0.38684203 -0.24172518
40 4.75115600 0.69437600 -0.83047300 -0.05602700 -0.27916300 0.54604800
41 1.68806500 -0.00002600 0.00000200 0.01539067 -0.01932333 0.76594386
42 1.33615100 -0.00005100 -0.00000900 -0.01007300 -0.03740000 0.63314200
43 4.82051300 0.50934000 0.22486500 -0.28205900 -0.32014200 1.39285600
44 1.82699600 0.00006600 0.00000800 0.00429700 0.04021300 1.37938400
45 1.43657700 -0.00001000 0.00000700 0.00705100 -0.01338400 0.35840500
46 3.99235300 0.89108700 1.82799400 -0.53567300 0.00104600 1.72652200
47 1.40591800 0.00002100 -0.00000700 -0.00899200 -0.02807500 1.18372600
48 1.17536900 -0.00013100 0.00000200 0.07309900 0.09934300 0.59118900
49 4.52675600 0.69046000 1.12084200 -0.48549600 -0.17575400 1.64130100
50 1.74404100 -0.00003100 -0.00000200 -0.02571800 -0.01458600 1.46815600
51 1.36876300 -0.00003100 -0.00001700 0.05083100 0.15037000 0.14223800
52 1.87485500 0.93508100 -0.99913000 2.12600600 0.48345000 1.08286200
53 1.52344900 -0.00003400 -0.00000300 -0.46017900 -0.05709800 0.78018400
54 1.59928100 -0.00000200 0.00000900 0.07977600 -0.02452500 1.12383700
55 4.12322854 1.86000188 -0.74167190 3.13944600 0.28836000 -2.79269100
56 5.51180600 -0.00000200 0.00000600 -0.45644935 0.00000390 0.00000435
57 0.19685000 0.00000300 -0.00000200 -0.34822500 0.00001500 -0.00000200
58 0.00000000 0.00000000 0.00000000 0.00000000 0.00000000 -1.57079600
59 -0.42046300 -0.01874400 1.27144300 0.00000000 0.00000000 0.00000000
60 0.51676100 0.00000000 0.12868700 0.00000000 0.00000000 0.00000000
61 0.55741200 0.00000000 -0.30289600 0.00000000 0.00000000 0.00000000
62 1.38857800 -0.00968900 0.99807100 0.00000000 0.92497500 0.00000000
63 -1.50030300 -0.00968900 0.35764200 0.00000000 0.00000000 0.00000000
64 -2.97854100 -0.00968700 2.09113500 0.00000000 0.00000000 0.00000000
65 -1.12622600 -0.58494000 -0.29313400 0.00000000 0.00000000 0.00000000
time 6
0 -0.00000100 7.45008900 -27.50902600 0.00000000 0.00000000 0.00003100
1 -0.00000200 0.00000000 0.00000000 1.57074300 -1.56713700 -1.57074300
2 4.25546800 -0.33518300 -0.00000200 0.00000000 0.00000000 -0.12484800
3 7.43124800 1.49647700 0.00000200 0.00000000 0.00000000 0.24545000
4 5.27847900 0.16554100 0.00000100 0.00000000 0.00000000 0.04851100
5 -4.30867832 -10.59527839 3.65194863 1.97586400 1.15990900 -1.29878600
6 -6.21448200 -0.00000700 -0.00002700 -2.42592387 -0.29811639 1.14474103
7 11.94488200 0.00000000 0.00000100 -0.19084941 -0.34780710 1.47496636
8 10.62018100 0.00000200 0.00000000 1.44034466 0.42154794 2.82881217
9 -4.75110600 -0.69449400 0.83057700 -0.26506600 -0.18521200 0.63841500
10 -1.68806800 0.00004600 -0.00003200 0.01731800 -0.01762500 0.66104700
11 -1.33614000 0.00005700 -0.00001200 0.02626800 0.00232700 0.46266200
12 -4.82049400 -0.50946000 -0.22475900 -0.38762900 -0.15787300 1.43729400
13 -1.82699200 -0.00006400 0.00000600 -0.00832800 0.03958800 1.06556400
14 -1.43657300 0.00000600 0.00000200 -0.06013400 -0.04938400 0.79162700
15 -3.99235500 -0.89118800 -1.82790900 -0.52403500 -0.01122400 1.32361200
16 -1.40591800 -0.00002500 -0.00000300 0.00059000 -0.02949400 0.85590800
17 -1.17535800 0.00012800 -0.00002000 0.06441700 0.02146300 1.15302800
18 -4.52675100 -0.69057500 -1.12074400 -0.41812900 0.00776900 1.49266300
19 -1.74403800 0.00003300 -0.00000800 -0.01905300 -0.02261400 1.11317400
20 -1.36877100 0.00002500 0.00000200 0.03795400 0.03618700 0.70440900
21 -1.71880802 -1.28270467 0.93153466 1.57572100 0.71979300 0.76744700
22 -1.52345300 0.00003200 0.00003100 0.06700800 -0.06405200 0.80965500
23 -1.59928500 0.00000400 0.00001600 -0.08164900 -0.03194200 0.96752300
24 -4.17018455 -1.85439895 0.75344099 -0.19041700 -0.17086800 0.45004000
25 -0.42046500 -0.01874300 1.27144000 0.00000000 0.00000200 0.00000000
26 0.51676100 0.00000000 0.12868700 0.00000000 0.00000000 0.00000000
27 0.55741200 0.00000000 -0.30289500 0.00000000 0.00000000 0.00000000
28 1.38857800 -0.00968900 0.99806900 0.00000000 0.92497500 0.00000000
29 -1.50030400 -0.00968900 0.35764300 0.00000000 0.00000200 0.00000000
30 -2.97853600 -0.00968700 2.09113200 0.00000000 0.00000200 0.00000000
31 -1.12622600 -0.58494000 -0.29313200 0.00000000 0.00000200 0.00000000
32 4.36703977 0.14566202 -1.51803483 0.34340800 1.05906200 1.58127300
33 4.89681193 -9.27806566 -0.88835723 2.91916067 -0.59285672 -1.41664809
34 5.51181500 0.00000800 -0.00000100 2.24315252 0.00101627 3.14101364
35 0.19684700 -0.00000100 0.00000300 2.79340691 -0.00074555 -3.14141936
36 -4.74854559 -10.67101786 -1.48897934 1.97586200 1.15990900 1.84280300
37 6.21448500 0.00000600 0.00002000 -0.85185430 0.33136303 -1.96688892
38 11.94488500 -0.00002900 -0.00019400 -0.07345332 -0.41173249 -1.27804496
39 10.62016600 0.00000200 0.00001000 -1.68227629 -0.38595883 -0.23747002
40 4.75115600 0.69437600 -0.83047300 -0.05602700 -0.27916300 0.54604800
41 1.68806500 -0.00002600 0.00000200 0.01539067 -0.01932333 0.76594386
42 1.33615100 -0.00005100 -0.00000900 -0.01007300 -0.03740000 0.63314200
43 4.82051300 0.50934000 0.22486500 -0.28205900 -0.32014200 1.39285600
44 1.82699600 0.00006600 0.00000800 0.00429700 0.04021300 1.37938400
45 1.43657700 -0.00001000 0.00000700 0.00705100 -0.01338400 0.35840500
46 3.99235300 0.89108700 1.82799400 -0.53567300 0.00104600 1.72652200
47 1.40591800 0.00002100 -0.00000700 -0.00899200 -0.02807500 1.18372600
48 1.17536900 -0.00013100 0.00000200 0.07309900 0.09934300 0.59118900
49 4.52675600 0.69046000 1.12084200 -0.48549600 -0.17575400 1.64130100
50 1.74404100 -0.00003100 -0.00000200 -0.02571800 -0.01458600 1.46815600
51 1.36876300 -0.00003100 -0.00001700 0.05083100 0.15037000 0.14223800
52 1.87485500 0.93508100 -0.99913000 2.12600600 0.48345000 1.08286200
53 1.52344900 -0.00003400 -0.00000300 -0.46017900 -0.05709800 0.78018400
54 1.59928100 -0.00000200 0.00000900 0.07977600 -0.02452500 1.12383700
55 4.12332801 1.86004291 -0.74163447 3.13944600 0.28836000 -2.79269100
56 5.51180600 -0.00000200 0.00000600 -0.45644935 0.00000390 0.00000435
57 0.19685000 0.00000300 -0.00000200 -0.34822500 0.00001500 -0.00000200
58 0.00000000 0.00000000 0.00000000 0.00000000 0.00000000 -1.57079600
59 -0.42046300 -0.01874400 1.27144300 0.00000000 0.00000000 0.00000000
60 0.51676100 0.00000000 0.12868700 0.00000000 0.00000000 0.00000000
61 0.55741200 0.00000000 -0.30289600 0.00000000 0.00000000 0.00000000
62 1.38857800 -0.00968900 0.99807100 0.00000000 0.92497500 0.00000000
63 -1.50030300 -0.00968900 0.35764200 0.00000000 0.00000000 0.00000000
64 -2.97854100 -0.00968700 2.09113500 0.00000000 0.00000000 0.00000000
65 -1.12622600 -0.58494000 -0.29313400 0.00000000 0.00000000 0.00000000
time 7
0 -0.00000100 7.45008900 -27.50902600 0.00000000 0.00000000 0.00003100
1 -0.00000200 0.00000000 0.00000000 1.57074300 -1.56713700 -1.57074300
2 4.25546800 -0.33518300 -0.00000200 0.00000000 0.00000000 -0.12484800
3 7.43124800 1.49647700 0.00000200 0.00000000 0.00000000 0.24545000
4 5.27847900 0.16554100 0.00000100 0.00000000 0.00000000 0.04851100
5 -4.07215218 -10.44951327 3.65194895 1.97586400 1.15990900 -1.29878600
6 -6.21448200 -0.00000700 -0.00002700 -2.42919230 -0.32888908 1.13019930
7 11.94488200 0.00000000 0.00000100 -0.19362890 -0.34802268 1.48320452
8 10.62018100 0.00000200 0.00000000 1.44760601 0.43775262 2.84146379
9 -4.75110600 -0.69449400 0.83057700 -0.26506600 -0.18521200 0.63841500
10 -1.68806800 0.00004600 -0.00003200 0.01731800 -0.01762500 0.66104700
11 -1.33614000 0.00005700 -0.00001200 0.02626800 0.00232700 0.46266200
12 -4.82049400 -0.50946000 -0.22475900 -0.38762900 -0.15787300 1.43729400
13 -1.82699200 -0.00006400 0.00000600 -0.00832800 0.03958800 1.06556400
14 -1.43657300 0.00000600 0.00000200 -0.06013400 -0.04938400 0.79162700
15 -3.99235500 -0.89118800 -1.82790900 -0.52403500 -0.01122400 1.32361200
16 -1.40591800 -0.00002500 -0.00000300 0.00059000 -0.02949400 0.85590800
17 -1.17535800 0.00012800 -0.00002000 0.06441700 0.02146300 1.15302800
18 -4.52675100 -0.69057500 -1.12074400 -0.41812900 0.00776900 1.49266300
19 -1.74403800 0.00003300 -0.00000800 -0.01905300 -0.02261400 1.11317400
20 -1.36877100 0.00002500 0.00000200 0.03795400 0.03618700 0.70440900
21 -1.71880802 -1.28270467 0.93153466 1.57572100 0.71979300 0.76744700
22 -1.52345300 0.00003200 0.00003100 0.06700800 -0.06405200 0.80965500
23 -1.59928500 0.00000400 0.00001600 -0.08164900 -0.03194200 0.96752300
24 -4.17018455 -1.85439895 0.75344099 -0.19041700 -0.17086800 0.45004000
25 -0.42046500 -0.01874300 1.27144000 0.00000000 0.00000200 0.00000000
26 0.51676100 0.00000000 0.12868700 0.00000000 0.00000000 0.00000000
27 0.55741200 0.00000000 -0.30289500 0.00000000 0.00000000 0.00000000
28 1.38857800 -0.00968900 0.99806900 0.00000000 0.92497500 0.00000000
29 -1.50030400 -0.00968900 0.35764300 0.00000000 0.00000200 0.00000000
30 -2.97853600 -0.00968700 2.09113200 0.00000000 0.00000200 0.00000000
31 -1.12622600 -0.58494000 -0.29313200 0.00000000 0.00000200 0.00000000
32 4.36703977 0.14566202 -1.51803483 0.34342901 1.05904066 1.58127267
33 4.66869196 -8.88984432 -1.08476969 2.89188315 -0.61469328 -1.36171117
34 5.51181500 0.00000800 -0.00000100 2.24315252 0.00101627 3.14101364
35 0.19684700 -0.00000100 0.00000300 2.79340691 -0.00074555 -3.14141936
36 -4.51201913 -10.52525307 -1.48897934 1.97586200 1.15990900 1.84280300
37 6.21448500 0.00000600 0.00002000 -0.85978423 0.32514680 -1.99692978
38 11.94488500 -0.00002900 -0.00019400 -0.10371513 -0.38347968 -1.18464785
39 10.62016600 0.00000200 0.00001000 -1.68442884 -0.37644240 -0.26280332
40 4.75115600 0.69437600 -0.83047300 -0.05602700 -0.27916300 0.54604800
41 1.68806500 -0.00002600 0.00000200 0.01539067 -0.01932333 0.76594386
42 1.33615100 -0.00005100 -0.00000900 -0.01007300 -0.03740000 0.63314200
43 4.82051300 0.50934000 0.22486500 -0.28205900 -0.32014200 1.39285600
44 1.82699600 0.00006600 0.00000800 0.00429700 0.04021300 1.37938400
45 1.43657700 -0.00001000 0.00000700 0.00705100 -0.01338400 0.35840500
46 3.99235300 0.89108700 1.82799400 -0.53567300 0.00104600 1.72652200
47 1.40591800 0.00002100 -0.00000700 -0.00899200 -0.02807500 1.18372600
48 1.17536900 -0.00013100 0.00000200 0.07309900 0.09934300 0.59118900
49 4.52675600 0.69046000 1.12084200 -0.48549600 -0.17575400 1.64130100
50 1.74404100 -0.00003100 -0.00000200 -0.02571800 -0.01458600 1.46815600
51 1.36876300 -0.00003100 -0.00001700 0.05083100 0.15037000 0.14223800
52 1.87485500 0.93508100 -0.99913000 2.12600600 0.48345000 1.08286200
53 1.52344900 -0.00003400 -0.00000300 -0.46017900 -0.05709800 0.78018400
54 1.59928100 -0.00000200 0.00000900 0.07977600 -0.02452500 1.12383700
55 4.12334639 1.86005375 -0.74162758 3.13944600 0.28836000 -2.79269100
56 5.51180600 -0.00000200 0.00000600 -0.45644935 0.00000390 0.00000435
57 0.19685000 0.00000300 -0.00000200 -0.34822500 0.00001500 -0.00000200
58 0.00000000 0.00000000 0.00000000 0.00000000 0.00000000 -1.57079600
59 -0.42046300 -0.01874400 1.27144300 0.00000000 0.00000000 0.00000000
60 0.51676100 0.00000000 0.12868700 0.00000000 0.00000000 0.00000000
61 0.55741200 0.00000000 -0.30289600 0.00000000 0.00000000 0.00000000
62 1.38857800 -0.00968900 0.99807100 0.00000000 0.92497500 0.00000000
63 -1.50030300 -0.00968900 0.35764200 0.00000000 0.00000000 0.00000000
64 -2.97854100 -0.00968700 2.09113500 0.00000000 0.00000000 0.00000000
65 -1.12622600 -0.58494000 -0.29313400 0.00000000 0.00000000 0.00000000
time 8
0 -0.00000100 7.45008900 -27.50902600 0.00000000 0.00000000 0.00003100
1 -0.00000200 0.00000000 0.00000000 1.57074300 -1.56713700 -1.57074300
2 4.25546800 -0.33518300 -0.00000200 0.00000000 0.00000000 -0.12484800
3 7.43124800 1.49647700 0.00000200 0.00000000 0.00000000 0.24545000
4 5.27847900 0.16554100 0.00000100 0.00000000 0.00000000 0.04851100
5 -3.87736524 -10.32947107 3.65194895 1.97586400 1.15990900 -1.29878600
6 -6.21448200 -0.00000700 -0.00002700 -2.43162517 -0.36395162 1.13397013
7 11.94488200 0.00000000 0.00000100 -0.20013715 -0.34849569 1.50221870
8 10.62018100 0.00000200 0.00000000 1.45644959 0.45465197 2.85999692
9 -4.75110600 -0.69449400 0.83057700 -0.26506600 -0.18521200 0.63841500
10 -1.68806800 0.00004600 -0.00003200 0.01731800 -0.01762500 0.66104700
11 -1.33614000 0.00005700 -0.00001200 0.02626800 0.00232700 0.46266200
12 -4.82049400 -0.50946000 -0.22475900 -0.38762900 -0.15787300 1.43729400
13 -1.82699200 -0.00006400 0.00000600 -0.00832800 0.03958800 1.06556400
14 -1.43657300 0.00000600 0.00000200 -0.06013400 -0.04938400 0.79162700
15 -3.99235500 -0.89118800 -1.82790900 -0.52403500 -0.01122400 1.32361200
16 -1.40591800 -0.00002500 -0.00000300 0.00059000 -0.02949400 0.85590800
17 -1.17535800 0.00012800 -0.00002000 0.06441700 0.02146300 1.15302800
18 -4.52675100 -0.69057500 -1.12074400 -0.41812900 0.00776900 1.49266300
19 -1.74403800 0.00003300 -0.00000800 -0.01905300 -0.02261400 1.11317400
20 -1.36877100 0.00002500 0.00000200 0.03795400 0.03618700 0.70440900
21 -1.71880802 -1.28270467 0.93153466 1.57572100 0.71979300 0.76744700
22 -1.52345300 0.00003200 0.00003100 0.06700800 -0.06405200 0.80965500
23 -1.59928500 0.00000400 0.00001600 -0.08164900 -0.03194200 0.96752300
24 -4.17018455 -1.85439895 0.75344099 -0.19041700 -0.17086800 0.45004000
25 -0.42046500 -0.01874300 1.27144000 0.00000000 0.00000200 0.00000000
26 0.51676100 0.00000000 0.12868700 0.00000000 0.00000000 0.00000000
27 0.55741200 0.00000000 -0.30289500 0.00000000 0.00000000 0.00000000
28 1.38857800 -0.00968900 0.99806900 0.00000000 0.92497500 0.00000000
29 -1.50030400 -0.00968900 0.35764300 0.00000000 0.00000200 0.00000000
30 -2.97853600 -0.00968700 2.09113200 0.00000000 0.00000200 0.00000000
31 -1.12622600 -0.58494000 -0.29313200 0.00000000 0.00000200 0.00000000
32 4.36703977 0.14566202 -1.51803483 0.34340800 1.05906200 1.58127300
33 4.42632995 -8.65433527 -1.35846206 2.89716849 -0.59468439 -1.34891784
34 5.51181500 0.00000800 -0.00000100 2.24315252 0.00101627 3.14101364
35 0.19684700 -0.00000100 0.00000300 2.79340691 -0.00074555 -3.14141936
36 -4.31723251 -10.40521087 -1.48897934 1.97586200 1.15990900 1.84280300
37 6.21448500 0.00000600 0.00002000 -0.86673845 0.32205609 -2.02237578
38 11.94488500 -0.00002900 -0.00019400 -0.12606759 -0.34985056 -1.11038953
39 10.62016600 0.00000200 0.00001000 -1.68774035 -0.37365546 -0.27853183
40 4.75115600 0.69437600 -0.83047300 -0.05602700 -0.27916300 0.54604800
41 1.68806500 -0.00002600 0.00000200 0.01539067 -0.01932333 0.76594386
42 1.33615100 -0.00005100 -0.00000900 -0.01007300 -0.03740000 0.63314200
43 4.82051300 0.50934000 0.22486500 -0.28205900 -0.32014200 1.39285600
44 1.82699600 0.00006600 0.00000800 0.00429700 0.04021300 1.37938400
45 1.43657700 -0.00001000 0.00000700 0.00705100 -0.01338400 0.35840500
46 3.99235300 0.89108700 1.82799400 -0.53567300 0.00104600 1.72652200
47 1.40591800 0.00002100 -0.00000700 -0.00899200 -0.02807500 1.18372600
48 1.17536900 -0.00013100 0.00000200 0.07309900 0.09934300 0.59118900
49 4.52675600 0.69046000 1.12084200 -0.48549600 -0.17575400 1.64130100
50 1.74404100 -0.00003100 -0.00000200 -0.02571800 -0.01458600 1.46815600
51 1.36876300 -0.00003100 -0.00001700 0.05083100 0.15037000 0.14223800
52 1.87485500 0.93508100 -0.99913000 2.12600600 0.48345000 1.08286200
53 1.52344900 -0.00003400 -0.00000300 -0.46017900 -0.05709800 0.78018400
54 1.59928100 -0.00000200 0.00000900 0.07977600 -0.02452500 1.12383700
55 4.12335164 1.86005736 -0.74162364 3.13944600 0.28836000 -2.79269100
56 5.51180600 -0.00000200 0.00000600 -0.45644935 0.00000390 0.00000435
57 0.19685000 0.00000300 -0.00000200 -0.34822500 0.00001500 -0.00000200
58 0.00000000 0.00000000 0.00000000 0.00000000 0.00000000 -1.57079600
59 -0.42046300 -0.01874400 1.27144300 0.00000000 0.00000000 0.00000000
60 0.51676100 0.00000000 0.12868700 0.00000000 0.00000000 0.00000000
61 0.55741200 0.00000000 -0.30289600 0.00000000 0.00000000 0.00000000
62 1.38857800 -0.00968900 0.99807100 0.00000000 0.92497500 0.00000000
63 -1.50030300 -0.00968900 0.35764200 0.00000000 0.00000000 0.00000000
64 -2.97854100 -0.00968700 2.09113500 0.00000000 0.00000000 0.00000000
65 -1.12622600 -0.58494000 -0.29313400 0.00000000 0.00000000 0.00000000
time 9
0 -0.00000100 7.45008900 -27.50902600 0.00000000 0.00000000 0.00003100
1 -0.00000200 0.00000000 0.00000000 1.57074300 -1.56713700 -1.57074300
2 4.25546800 -0.33518300 -0.00000200 0.00000000 0.00000000 -0.12484800
3 7.43124800 1.49647700 0.00000200 0.00000000 0.00000000 0.24545000
4 5.27847900 0.16554100 0.00000100 0.00000000 0.00000000 0.04851100
5 -3.74518839 -10.24801392 3.65194895 1.97586400 1.15990900 -1.29878600
6 -6.21448200 -0.00000700 -0.00002700 -2.42994734 -0.38090062 1.13710575
7 11.94488200 0.00000000 0.00000100 -0.19940669 -0.34844352 1.50014466
8 10.62018100 0.00000200 0.00000000 1.46330117 0.46477314 2.89300736
9 -4.75110600 -0.69449400 0.83057700 -0.26506600 -0.18521200 0.63841500
10 -1.68806800 0.00004600 -0.00003200 0.01731800 -0.01762500 0.66104700
11 -1.33614000 0.00005700 -0.00001200 0.02626800 0.00232700 0.46266200
12 -4.82049400 -0.50946000 -0.22475900 -0.38762900 -0.15787300 1.43729400
13 -1.82699200 -0.00006400 0.00000600 -0.00832800 0.03958800 1.06556400
14 -1.43657300 0.00000600 0.00000200 -0.06013400 -0.04938400 0.79162700
15 -3.99235500 -0.89118800 -1.82790900 -0.52403500 -0.01122400 1.32361200
16 -1.40591800 -0.00002500 -0.00000300 0.00059000 -0.02949400 0.85590800
17 -1.17535800 0.00012800 -0.00002000 0.06441700 0.02146300 1.15302800
18 -4.52675100 -0.69057500 -1.12074400 -0.41812900 0.00776900 1.49266300
19 -1.74403800 0.00003300 -0.00000800 -0.01905300 -0.02261400 1.11317400
20 -1.36877100 0.00002500 0.00000200 0.03795400 0.03618700 0.70440900
21 -1.71880802 -1.28270467 0.93153466 1.57572100 0.71979300 0.76744700
22 -1.52345300 0.00003200 0.00003100 0.06700800 -0.06405200 0.80965500
23 -1.59928500 0.00000400 0.00001600 -0.08164900 -0.03194200 0.96752300
24 -4.17018455 -1.85439895 0.75344099 -0.19041700 -0.17086800 0.45004000
25 -0.42046500 -0.01874300 1.27144000 0.00000000 0.00000200 0.00000000
26 0.51676100 0.00000000 0.12868700 0.00000000 0.00000000 0.00000000
27 0.55741200 0.00000000 -0.30289500 0.00000000 0.00000000 0.00000000
28 1.38857800 -0.00968900 0.99806900 0.00000000 0.92497500 0.00000000
29 -1.50030400 -0.00968900 0.35764300 0.00000000 0.00000200 0.00000000
30 -2.97853600 -0.00968700 2.09113200 0.00000000 0.00000200 0.00000000
31 -1.12622600 -0.58494000 -0.29313200 0.00000000 0.00000200 0.00000000
32 4.36703977 0.14566202 -1.51803483 0.34340800 1.05906200 1.58127300
33 4.25991902 -8.47928817 -1.65657420 2.90453531 -0.56204683 -1.34483729
34 5.51181500 0.00000800 -0.00000100 2.24315252 0.00101627 3.14101364
35 0.19684700 -0.00000100 0.00000300 2.79340691 -0.00074555 -3.14141936
36 -4.18505567 -10.32375405 -1.48897934 1.97586200 1.15990900 1.84280300
37 6.21448500 0.00000600 0.00002000 -0.86864268 0.32911419 -2.04123194
38 11.94488500 -0.00002900 -0.00019400 -0.13178538 -0.31244191 -1.08870552
39 10.62016600 0.00000200 0.00001000 -1.67919839 -0.39126010 -0.23343624
40 4.75115600 0.69437600 -0.83047300 -0.05602700 -0.27916300 0.54604800
41 1.68806500 -0.00002600 0.00000200 0.01539067 -0.01932333 0.76594386
42 1.33615100 -0.00005100 -0.00000900 -0.01007300 -0.03740000 0.63314200
43 4.82051300 0.50934000 0.22486500 -0.28205900 -0.32014200 1.39285600
44 1.82699600 0.00006600 0.00000800 0.00429700 0.04021300 1.37938400
45 1.43657700 -0.00001000 0.00000700 0.00705100 -0.01338400 0.35840500
46 3.99235300 0.89108700 1.82799400 -0.53567300 0.00104600 1.72652200
47 1.40591800 0.00002100 -0.00000700 -0.00899200 -0.02807500 1.18372600
48 1.17536900 -0.00013100 0.00000200 0.07309900 0.09934300 0.59118900
49 4.52675600 0.69046000 1.12084200 -0.48549600 -0.17575400 1.64130100
50 1.74404100 -0.00003100 -0.00000200 -0.02571800 -0.01458600 1.46815600
51 1.36876300 -0.00003100 -0.00001700 0.05083100 0.15037000 0.14223800
52 1.87485500 0.93508100 -0.99913000 2.12600600 0.48345000 1.08286200
53 1.52344900 -0.00003400 -0.00000300 -0.46017900 -0.05709800 0.78018400
54 1.59928100 -0.00000200 0.00000900 0.07977600 -0.02452500 1.12383700
55 4.12335328 1.86005834 -0.74162102 3.13944600 0.28836000 -2.79269100
56 5.51180600 -0.00000200 0.00000600 -0.45644935 0.00000390 0.00000435
57 0.19685000 0.00000300 -0.00000200 -0.34822500 0.00001500 -0.00000200
58 0.00000000 0.00000000 0.00000000 0.00000000 0.00000000 -1.57079600
59 -0.42046300 -0.01874400 1.27144300 0.00000000 0.00000000 0.00000000
60 0.51676100 0.00000000 0.12868700 0.00000000 0.00000000 0.00000000
61 0.55741200 0.00000000 -0.30289600 0.00000000 0.00000000 0.00000000
62 1.38857800 -0.00968900 0.99807100 0.00000000 0.92497500 0.00000000
63 -1.50030300 -0.00968900 0.35764200 0.00000000 0.00000000 0.00000000
64 -2.97854100 -0.00968700 2.09113500 0.00000000 0.00000000 0.00000000
65 -1.12622600 -0.58494000 -0.29313400 0.00000000 0.00000000 0.00000000
time 10
0 -0.00000100 7.45008900 -27.50902600 0.00000000 0.00000000 0.00003100
1 -0.00000200 0.00000000 0.00000000 1.57074300 -1.56713700 -1.57074300
2 4.25546800 -0.33518300 -0.00000200 0.00000000 0.00000000 -0.12484800
3 7.43124800 1.49647700 0.00000200 0.00000000 0.00000000 0.24545000
4 5.27847900 0.16554100 0.00000100 0.00000000 0.00000000 0.04851100
5 -3.69649190 -10.21800395 3.65194895 1.97586400 1.15990900 -1.29878600
6 -6.21448200 -0.00000700 -0.00002700 -2.41745221 -0.36228085 1.13491591
7 11.94488200 0.00000000 0.00000100 -0.17502635 -0.34594847 1.42829147
8 10.62018100 0.00000200 0.00000000 1.47406472 0.47337608 3.05737157
9 -4.75110600 -0.69449400 0.83057700 -0.26506600 -0.18521200 0.63841500
10 -1.68806800 0.00004600 -0.00003200 0.01731800 -0.01762500 0.66104700
11 -1.33614000 0.00005700 -0.00001200 0.02626800 0.00232700 0.46266200
12 -4.82049400 -0.50946000 -0.22475900 -0.38762900 -0.15787300 1.43729400
13 -1.82699200 -0.00006400 0.00000600 -0.00832800 0.03958800 1.06556400
14 -1.43657300 0.00000600 0.00000200 -0.06013400 -0.04938400 0.79162700
15 -3.99235500 -0.89118800 -1.82790900 -0.52403500 -0.01122400 1.32361200
16 -1.40591800 -0.00002500 -0.00000300 0.00059000 -0.02949400 0.85590800
17 -1.17535800 0.00012800 -0.00002000 0.06441700 0.02146300 1.15302800
18 -4.52675100 -0.69057500 -1.12074400 -0.41812900 0.00776900 1.49266300
19 -1.74403800 0.00003300 -0.00000800 -0.01905300 -0.02261400 1.11317400
20 -1.36877100 0.00002500 0.00000200 0.03795400 0.03618700 0.70440900
21 -1.71880667 -1.28270602 0.93153533 1.57572100 0.71979300 0.76744700
22 -1.52345300 0.00003200 0.00003100 0.06700800 -0.06405200 0.80965500
23 -1.59928500 0.00000400 0.00001600 -0.08164900 -0.03194200 0.96752300
24 -4.17018119 -1.85440029 0.75344233 -0.19041700 -0.17086800 0.45004000
25 -0.42046500 -0.01874300 1.27144000 0.00000000 0.00000200 0.00000000
26 0.51676100 0.00000000 0.12868700 0.00000000 0.00000000 0.00000000
27 0.55741200 0.00000000 -0.30289500 0.00000000 0.00000000 0.00000000
28 1.38857800 -0.00968900 0.99806900 0.00000000 0.92497500 0.00000000
29 -1.50030400 -0.00968900 0.35764300 0.00000000 0.00000200 0.00000000
30 -2.97853600 -0.00968700 2.09113200 0.00000000 0.00000200 0.00000000
31 -1.12622600 -0.58494000 -0.29313200 0.00000000 0.00000200 0.00000000
32 4.36703641 0.14565127 -1.51804760 0.34340800 1.05906200 1.58127300
33 4.20295439 -8.39304363 -1.84210613 2.91129361 -0.54356904 -1.34562343
34 5.51181500 0.00000800 -0.00000100 2.24315252 0.00101627 3.14101364
35 0.19684700 -0.00000100 0.00000300 2.79340691 -0.00074555 -3.14141936
36 -4.13635918 -10.29374309 -1.48897934 1.97586200 1.15990900 1.84280300
37 6.21448500 0.00000600 0.00002000 -0.85669559 0.34663883 -2.05411895
38 11.94488500 -0.00002900 -0.00019400 -0.11628597 -0.27809364 -1.14455523
39 10.62016600 0.00000200 0.00001000 -1.67797708 -0.46936147 -0.06911745
40 4.75115600 0.69437600 -0.83047300 -0.05602700 -0.27916300 0.54604800
41 1.68806500 -0.00002600 0.00000200 0.01539067 -0.01932333 0.76594386
42 1.33615100 -0.00005100 -0.00000900 -0.01007300 -0.03740000 0.63314200
43 4.82051300 0.50934000 0.22486500 -0.28205900 -0.32014200 1.39285600
44 1.82699600 0.00006600 0.00000800 0.00429700 0.04021300 1.37938400
45 1.43657700 -0.00001000 0.00000700 0.00705100 -0.01338400 0.35840500
46 3.99235300 0.89108700 1.82799400 -0.53567300 0.00104600 1.72652200
47 1.40591800 0.00002100 -0.00000700 -0.00899200 -0.02807500 1.18372600
48 1.17536900 -0.00013100 0.00000200 0.07309900 0.09934300 0.59118900
49 4.52675600 0.69046000 1.12084200 -0.48549600 -0.17575400 1.64130100
50 1.74404100 -0.00003100 -0.00000200 -0.02571800 -0.01458600 1.46815600
51 1.36876300 -0.00003100 -0.00001700 0.05083100 0.15037000 0.14223800
52 1.87485500 0.93508100 -0.99913000 2.12600600 0.48345000 1.08286200
53 1.52344900 -0.00003400 -0.00000300 -0.46017900 -0.05709800 0.78018400
54 1.59928100 -0.00000200 0.00000900 0.07977600 -0.02452500 1.12383700
55 4.12335230 1.86005936 -0.74161703 3.13944600 0.28836000 -2.79269100
56 5.51180600 -0.00000200 0.00000600 -0.45644935 0.00000390 0.00000435
57 0.19685000 0.00000300 -0.00000200 -0.34822500 0.00001500 -0.00000200
58 0.00000000 0.00000000 0.00000000 0.00000000 0.00000000 -1.57079600
59 -0.42046300 -0.01874400 1.27144300 0.00000000 0.00000000 0.00000000
60 0.51676100 0.00000000 0.12868700 0.00000000 0.00000000 0.00000000
61 0.55741200 0.00000000 -0.30289600 0.00000000 0.00000000 0.00000000
62 1.38857800 -0.00968900 0.99807100 0.00000000 0.92497500 0.00000000
63 -1.50030300 -0.00968900 0.35764200 0.00000000 0.00000000 0.00000000
64 -2.97854100 -0.00968700 2.09113500 0.00000000 0.00000000 0.00000000
65 -1.12622600 -0.58494000 -0.29313400 0.00000000 0.00000000 0.00000000
end
