version 1
nodes
0 "root" -1
1 "pelvis" 0
2 "spine_01" 1
3 "spine_02" 2
4 "spine_03" 3
5 "clavicle_r" 4
6 "upperarm_r" 5
7 "lowerarm_r" 6
8 "hand_r" 7
9 "index_01_r" 8
10 "index_02_r" 9
11 "index_03_r" 10
12 "middle_01_r" 8
13 "middle_02_r" 12
14 "middle_03_r" 13
15 "pinky_01_r" 8
16 "pinky_02_r" 15
17 "pinky_03_r" 16
18 "ring_01_r" 8
19 "ring_02_r" 18
20 "ring_03_r" 19
21 "thumb_01_r" 8
22 "thumb_02_r" 21
23 "thumb_03_r" 22
24 "lowerarm_twist_01_r" 7
25 "upperarm_twist_01_r" 6
26 "clavicle_l" 4
27 "upperarm_l" 26
28 "lowerarm_l" 27
29 "hand_l" 28
30 "index_01_l" 29
31 "index_02_l" 30
32 "index_03_l" 31
33 "middle_01_l" 29
34 "middle_02_l" 33
35 "middle_03_l" 34
36 "pinky_01_l" 29
37 "pinky_02_l" 36
38 "pinky_03_l" 37
39 "ring_01_l" 29
40 "ring_02_l" 39
41 "ring_03_l" 40
42 "thumb_01_l" 29
43 "thumb_02_l" 42
44 "thumb_03_l" 43
45 "lowerarm_twist_01_l" 28
46 "upperarm_twist_01_l" 27
47 "cam_driver" -1
48 "BaseRoot" -1
49 "Base" 48
50 "lhand_ikTarget" 49
51 "rhand_ikTarget" 49
52 "Trigger" 49
53 "Mag" 49
54 "MagCover" 53
55 "Bullet" 53
56 "Bullet.001" 55
57 "Bullet.002" 56
58 "Bullet.003" 57
59 "Bullet.004" 58
60 "Bullet.005" 59
61 "Bullet.006" 60
62 "Bullet.007" 61
63 "Bullet.008" 62
64 "Bullet.009" 63
65 "Bullet.010" 64
66 "Trigger.001" 49
67 "Cover" 49
68 "Magholder" 49
end
skeleton
time 0
0 -0.00000100 8.45008800 -27.50902600 0.00000000 0.00000000 0.00003100
1 -0.00000200 0.00000000 0.00000000 1.57074700 -1.56714200 -1.57074700
2 4.25546600 -0.33518300 -0.00000200 0.00000000 0.00000000 -0.12484800
3 7.43125000 1.49647900 0.00000200 0.00000000 0.00000000 0.24545000
4 5.27847900 0.16554400 0.00000100 0.00000000 0.00000000 0.04851100
5 -2.58210500 -18.68377900 10.99160600 1.97586500 1.15990900 -1.29878600
6 -6.21447800 -0.00000900 -0.00002600 -3.14133500 -0.62642800 1.35861900
7 11.94488500 0.00000000 0.00000000 0.18670800 -0.34898600 1.52904200
8 10.62018800 0.00000000 0.00000000 1.43262100 0.27810100 -3.06058600
9 -4.75110800 -0.69449800 0.83058000 -0.19617500 -0.07598900 0.33735800
10 -1.68806800 0.00004700 -0.00003100 0.01642800 -0.01846600 0.71331500
11 -1.33614000 0.00005500 -0.00001000 0.02584200 0.00517300 0.35617200
12 -4.82049400 -0.50946400 -0.22475900 -0.43210000 -0.06904400 1.18347900
13 -1.82698400 -0.00006900 0.00000800 0.00062300 0.04047200 1.28961100
14 -1.43656900 0.00000400 0.00000300 -0.06360300 -0.04470400 0.86686500
15 -3.99235700 -0.89119100 -1.82790900 -0.77162000 0.11408800 1.28870000
16 -1.40591800 -0.00002500 -0.00000200 0.00603500 -0.02888300 0.66990400
17 -1.17535800 0.00012600 -0.00001900 0.06674100 0.01248300 1.28927800
18 -4.52675100 -0.69058000 -1.12074100 -0.60925600 0.08426700 1.37684800
19 -1.74403800 0.00003200 -0.00000800 -0.02225500 -0.01944400 1.26365700
20 -1.36877100 0.00002300 0.00000200 0.04001900 0.03390800 0.76286100
21 -2.03839700 -0.89278900 0.93250800 1.84958100 0.50887600 0.72095600
22 -1.62789200 0.15474500 0.01182700 -0.09987500 0.17985400 0.56094000
23 -1.59928500 0.00001100 0.00001500 0.03412200 -0.02595000 0.63135700
24 5.51182000 0.00000800 -0.00000200 2.08601200 -0.06607600 3.11653600
25 0.19684600 -0.00000200 0.00000300 2.79340700 0.00000600 -3.14157700
26 -4.62411100 -16.59368300 -2.73566700 1.97586200 1.15991000 1.84280300
27 6.21448600 0.00000800 0.00001900 -0.97196200 0.27845600 -1.85508500
28 11.94488800 -0.00003100 -0.00020000 0.16789600 -0.33318100 -1.25412500
29 10.62016500 0.00000200 0.00000600 -2.71862500 -0.47986000 1.15035900
30 4.75115800 0.69437400 -0.83047400 -0.39999500 -0.50587900 1.10614300
31 1.68806500 -0.00002200 0.00000200 0.01051200 -0.02236200 0.99954000
32 1.33615100 -0.00005100 -0.00000900 -0.00339200 -0.03856600 0.45733500
33 4.82051500 0.50933800 0.22486600 -0.64350000 -0.23354800 1.61754800
34 1.82699200 0.00006600 0.00001000 -0.02693900 0.03024000 0.54682000
35 1.43658100 -0.00000600 0.00001000 0.00553800 -0.01408500 0.46469400
36 3.99235300 0.89108700 1.82799300 -0.75383000 -0.02936800 1.66174600
37 1.40592600 0.00003100 -0.00000300 0.00593600 -0.02885900 0.67109400
38 1.17536200 -0.00013200 0.00000100 0.02575500 0.12051600 0.16615700
39 4.52675800 0.69046400 1.12084300 -0.73571000 -0.12113100 1.69537000
40 1.74404100 -0.00003100 -0.00000200 -0.01099700 -0.02749700 0.79003300
41 1.36876700 -0.00003100 -0.00001800 0.03377900 0.15507400 0.03016400
42 1.87485700 0.93508100 -0.99912900 2.00785100 0.84305200 1.11121000
43 1.52345300 -0.00003200 -0.00000200 -0.03674500 0.12788100 0.22185000
44 1.59928100 -0.00000400 0.00001000 0.08257300 0.01253600 0.67607500
45 5.51180600 -0.00000200 0.00000300 -1.09321900 0.08900100 0.07878500
46 0.19684900 0.00000300 -0.00000100 -0.34822500 0.00001500 -0.00000200
47 0.00000000 1.00000000 0.00000000 0.00000000 0.00000000 -1.57079600
48 -4.48972800 26.54571200 -6.92574700 0.00000000 0.00000000 -3.14156200
49 -7.79494000 49.99999200 -0.27950000 0.42807800 0.26617200 -0.37397100
50 -4.34611700 -2.91451600 0.38708700 -2.62704400 0.61078600 -1.83318400
51 12.86816500 0.68670300 -3.22977800 0.43373700 1.03399400 1.73352400
52 5.75149200 0.00352400 0.08463000 0.00000000 0.00000000 0.00000000
53 -1.14123500 -1.15100600 -4.96482800 0.00000000 0.00000000 0.00000000
54 0.00000000 -3.08737400 1.87855200 2.96404600 0.00000000 0.00000000
55 0.21272100 -1.38514300 2.34137300 1.54305900 0.04193700 -0.00039900
56 0.00000200 0.68917300 -0.00000100 -0.14698600 -0.00476100 -0.07757300
57 0.00000000 0.72159500 0.00000000 0.18353100 -0.00843600 0.12266400
58 0.00000400 0.70041700 0.00000000 0.07838700 0.00342600 0.03382900
59 0.00000800 0.70401300 0.00000000 0.00284800 -0.00129700 0.00172500
60 0.00000000 0.72335700 0.00000000 -0.05730900 0.00585400 -0.02175900
61 0.00000800 0.70771600 0.00000000 -0.07775800 -0.00848400 -0.08911600
62 0.00000000 0.73422500 0.00000000 -0.76878500 0.03976400 0.05890600
63 0.00000200 0.69739300 0.00000000 -0.67318400 0.00972000 0.00739100
64 0.00000400 0.70033700 0.00000000 -0.11831100 -0.01160100 -0.03814400
65 0.00000000 0.70310500 0.00000000 -0.03850200 0.01155200 -0.01438300
66 3.31058900 1.54779400 1.66797500 0.00000000 0.00000000 0.00000000
67 -3.14822200 -0.05751300 3.29479100 0.00000000 0.00000000 0.00000000
68 0.83884000 -0.93570700 -0.98533800 0.00000000 0.00000000 0.00000000
time 1
0 -0.00000100 8.45008800 -27.50902600 0.00000000 0.00000000 0.00003100
1 -0.00000200 0.00000000 0.00000000 1.57074700 -1.56714200 -1.57074700
2 4.25546600 -0.33518300 -0.00000200 0.00000000 0.00000000 -0.12484800
3 7.43125000 1.49647900 0.00000200 0.00000000 0.00000000 0.24545000
4 5.27847900 0.16554400 0.00000100 0.00000000 0.00000000 0.04851100
5 -2.58210500 -18.68377900 10.99160600 1.97586500 1.15990900 -1.29878600
6 -6.21447800 -0.00000900 -0.00002600 -3.14021500 -0.62834000 1.36155800
7 11.94488500 0.00000000 0.00000000 0.18514200 -0.34903100 1.53365000
8 10.62018800 0.00000000 0.00000000 1.43486600 0.27562700 -3.06327800
9 -4.75110800 -0.69449800 0.83058000 -0.19617500 -0.07598900 0.33735800
10 -1.68806800 0.00004700 -0.00003100 0.01642800 -0.01846600 0.71331500
11 -1.33614000 0.00005500 -0.00001000 0.02584200 0.00517300 0.35617200
12 -4.82049400 -0.50946400 -0.22475900 -0.43210000 -0.06904400 1.18347900
13 -1.82698400 -0.00006900 0.00000800 0.00062300 0.04047200 1.28961100
14 -1.43656900 0.00000400 0.00000300 -0.06360300 -0.04470400 0.86686500
15 -3.99235700 -0.89119100 -1.82790900 -0.77162000 0.11408800 1.28870000
16 -1.40591800 -0.00002500 -0.00000200 0.00603500 -0.02888300 0.66990400
17 -1.17535800 0.00012600 -0.00001900 0.06674100 0.01248300 1.28927800
18 -4.52675100 -0.69058000 -1.12074100 -0.60925600 0.08426700 1.37684800
19 -1.74403800 0.00003200 -0.00000800 -0.02225500 -0.01944400 1.26365700
20 -1.36877100 0.00002300 0.00000200 0.04001900 0.03390800 0.76286100
21 -2.03839700 -0.89278900 0.93250800 1.84958100 0.50887600 0.72095600
22 -1.62789200 0.15474500 0.01182700 -0.09987500 0.17985400 0.56094000
23 -1.59928500 0.00001100 0.00001500 0.03412200 -0.02595000 0.63135700
24 5.51182000 0.00000800 -0.00000200 2.08601200 -0.06607600 3.11653600
25 0.19684600 -0.00000200 0.00000300 2.79340700 0.00000600 -3.14157700
26 -4.62411100 -16.59368300 -2.73566700 1.97586200 1.15991000 1.84280300
27 6.21448600 0.00000800 0.00001900 -0.96940500 0.27876600 -1.85552300
28 11.94488800 -0.00003100 -0.00020000 0.16772900 -0.33316500 -1.25344000
29 10.62016500 0.00000200 0.00000600 -2.72279800 -0.47910600 1.15175600
30 4.75115800 0.69437400 -0.83047400 -0.39999500 -0.50587900 1.10614300
31 1.68806500 -0.00002200 0.00000200 0.01051200 -0.02236200 0.99954000
32 1.33615100 -0.00005100 -0.00000900 -0.00339200 -0.03856600 0.45733500
33 4.82051500 0.50933800 0.22486600 -0.64350000 -0.23354800 1.61754800
34 1.82699200 0.00006600 0.00001000 -0.02693900 0.03024000 0.54682000
35 1.43658100 -0.00000600 0.00001000 0.00553800 -0.01408500 0.46469400
36 3.99235300 0.89108700 1.82799300 -0.75383000 -0.02936800 1.66174600
37 1.40592600 0.00003100 -0.00000300 0.00593600 -0.02885900 0.67109400
38 1.17536200 -0.00013200 0.00000100 0.02575500 0.12051600 0.16615700
39 4.52675800 0.69046400 1.12084300 -0.73571000 -0.12113100 1.69537000
40 1.74404100 -0.00003100 -0.00000200 -0.01099700 -0.02749700 0.79003300
41 1.36876700 -0.00003100 -0.00001800 0.03377900 0.15507400 0.03016400
42 1.87485700 0.93508100 -0.99912900 2.00785100 0.84305200 1.11121000
43 1.52345300 -0.00003200 -0.00000200 -0.03674500 0.12788100 0.22185000
44 1.59928100 -0.00000400 0.00001000 0.08257300 0.01253600 0.67607500
45 5.51180600 -0.00000200 0.00000300 -1.09321900 0.08900100 0.07878500
46 0.19684900 0.00000300 -0.00000100 -0.34822500 0.00001500 -0.00000200
47 0.00000000 1.00000000 0.00000000 0.00000000 0.00000000 -1.57079600
48 -4.48972800 26.54571200 -6.92574700 0.00000000 0.00000000 -3.14156200
49 -7.75934700 49.99999200 -0.28376500 0.42881900 0.26531200 -0.37534600
50 -4.34611700 -2.91451600 0.38708700 -2.62704400 0.61078600 -1.83318400
51 12.86816500 0.68670300 -3.22977800 0.43373700 1.03399400 1.73352400
52 5.75149200 0.00352400 0.08463000 0.00000000 0.00000000 0.00000000
53 -1.14123500 -1.15100600 -4.96482800 0.00000000 0.00000000 0.00000000
54 0.00000000 -3.08737400 1.87855200 2.96404600 0.00000000 0.00000000
55 0.21272100 -1.38514300 2.34137300 1.54305900 0.04193700 -0.00039900
56 0.00000200 0.68917300 -0.00000100 -0.14698600 -0.00476100 -0.07757300
57 0.00000000 0.72159500 0.00000000 0.18353100 -0.00843600 0.12266400
58 0.00000400 0.70041700 0.00000000 0.07838700 0.00342600 0.03382900
59 0.00000800 0.70401300 0.00000000 0.00284800 -0.00129700 0.00172500
60 0.00000000 0.72335700 0.00000000 -0.05730900 0.00585400 -0.02175900
61 0.00000800 0.70771600 0.00000000 -0.07775800 -0.00848400 -0.08911600
62 0.00000000 0.73422500 0.00000000 -0.76878500 0.03976400 0.05890600
63 0.00000200 0.69739300 0.00000000 -0.67318400 0.00972000 0.00739100
64 0.00000400 0.70033700 0.00000000 -0.11831100 -0.01160100 -0.03814400
65 0.00000000 0.70310500 0.00000000 -0.03850200 0.01155200 -0.01438300
66 3.31058900 1.54779400 1.66797500 0.00000000 0.00000000 0.00000000
67 -3.14822200 -0.05751300 3.29479100 0.00000000 0.00000000 0.00000000
68 0.83884000 -0.93570700 -0.98533800 0.00000000 0.00000000 0.00000000
time 2
0 -0.00000100 8.45008800 -27.50902600 0.00000000 0.00000000 0.00003100
1 -0.00000200 0.00000000 0.00000000 1.57074700 -1.56714200 -1.57074700
2 4.25546600 -0.33518300 -0.00000200 0.00000000 0.00000000 -0.12484800
3 7.43125000 1.49647900 0.00000200 0.00000000 0.00000000 0.24545000
4 5.27847900 0.16554400 0.00000100 0.00000000 0.00000000 0.04851100
5 -2.58210500 -18.68377900 10.99160600 1.97586500 1.15990900 -1.29878600
6 -6.21447800 -0.00000900 -0.00002600 -3.13664600 -0.63481400 1.37183400
7 11.94488500 0.00000000 0.00000000 0.17944000 -0.34926300 1.55037600
8 10.62018800 0.00000000 0.00000000 1.44295300 0.26788100 -3.07321500
9 -4.75110800 -0.69449800 0.83058000 -0.19617500 -0.07598900 0.33735800
10 -1.68806800 0.00004700 -0.00003100 0.01642800 -0.01846600 0.71331500
11 -1.33614000 0.00005500 -0.00001000 0.02584200 0.00517300 0.35617200
12 -4.82049400 -0.50946400 -0.22475900 -0.43210000 -0.06904400 1.18347900
13 -1.82698400 -0.00006900 0.00000800 0.00062300 0.04047200 1.28961100
14 -1.43656900 0.00000400 0.00000300 -0.06360300 -0.04470400 0.86686500
15 -3.99235700 -0.89119100 -1.82790900 -0.77162000 0.11408800 1.28870000
16 -1.40591800 -0.00002500 -0.00000200 0.00603500 -0.02888300 0.66990400
17 -1.17535800 0.00012600 -0.00001900 0.06674100 0.01248300 1.28927800
18 -4.52675100 -0.69058000 -1.12074100 -0.60925600 0.08426700 1.37684800
19 -1.74403800 0.00003200 -0.00000800 -0.02225500 -0.01944400 1.26365700
20 -1.36877100 0.00002300 0.00000200 0.04001900 0.03390800 0.76286100
21 -2.03839700 -0.89278900 0.93250800 1.84958100 0.50887600 0.72095600
22 -1.62789200 0.15474500 0.01182700 -0.09987500 0.17985400 0.56094000
23 -1.59928500 0.00001100 0.00001500 0.03412200 -0.02595000 0.63135700
24 5.51182000 0.00000800 -0.00000200 2.08601200 -0.06607600 3.11653600
25 0.19684600 -0.00000200 0.00000300 2.79340700 0.00000600 -3.14157700
26 -4.62411100 -16.59368300 -2.73566700 1.97586200 1.15991000 1.84280300
27 6.21448600 0.00000800 0.00001900 -0.96073500 0.27995000 -1.85705500
28 11.94488800 -0.00003100 -0.00020000 0.16694600 -0.33286400 -1.25094800
29 10.62016500 0.00000200 0.00000600 -2.73718600 -0.47616700 1.15653300
30 4.75115800 0.69437400 -0.83047400 -0.39999500 -0.50587900 1.10614300
31 1.68806500 -0.00002200 0.00000200 0.01051200 -0.02236200 0.99954000
32 1.33615100 -0.00005100 -0.00000900 -0.00339200 -0.03856600 0.45733500
33 4.82051500 0.50933800 0.22486600 -0.64350000 -0.23354800 1.61754800
34 1.82699200 0.00006600 0.00001000 -0.02693900 0.03024000 0.54682000
35 1.43658100 -0.00000600 0.00001000 0.00553800 -0.01408500 0.46469400
36 3.99235300 0.89108700 1.82799300 -0.75383000 -0.02936800 1.66174600
37 1.40592600 0.00003100 -0.00000300 0.00593600 -0.02885900 0.67109400
38 1.17536200 -0.00013200 0.00000100 0.02575500 0.12051600 0.16615700
39 4.52675800 0.69046400 1.12084300 -0.73571000 -0.12113100 1.69537000
40 1.74404100 -0.00003100 -0.00000200 -0.01099700 -0.02749700 0.79003300
41 1.36876700 -0.00003100 -0.00001800 0.03377900 0.15507400 0.03016400
42 1.87485700 0.93508100 -0.99912900 2.00785100 0.84305200 1.11121000
43 1.52345300 -0.00003200 -0.00000200 -0.03674500 0.12788100 0.22185000
44 1.59928100 -0.00000400 0.00001000 0.08257300 0.01253600 0.67607500
45 5.51180600 -0.00000200 0.00000300 -1.09321900 0.08900100 0.07878500
46 0.19684900 0.00000300 -0.00000100 -0.34822500 0.00001500 -0.00000200
47 0.00000000 1.00000000 0.00000000 0.00000000 0.00000000 -1.57079600
48 -4.48972800 26.54571200 -6.92574700 0.00000000 0.00000000 -3.14156200
49 -7.63663400 49.99999200 -0.29847300 0.43138500 0.26234600 -0.38052300
50 -4.34611700 -2.91451600 0.38708700 -2.62704400 0.61078600 -1.83318400
51 12.86816500 0.68670300 -3.22977800 0.43373700 1.03399400 1.73352400
52 5.75149200 0.00352400 0.08463000 0.00000000 0.00000000 0.00000000
53 -1.14123500 -1.15100600 -4.96482800 0.00000000 0.00000000 0.00000000
54 0.00000000 -3.08737400 1.87855200 2.96404600 0.00000000 0.00000000
55 0.21272100 -1.38514300 2.34137300 1.54305900 0.04193700 -0.00039900
56 0.00000200 0.68917300 -0.00000100 -0.14698600 -0.00476100 -0.07757300
57 0.00000000 0.72159500 0.00000000 0.18353100 -0.00843600 0.12266400
58 0.00000400 0.70041700 0.00000000 0.07838700 0.00342600 0.03382900
59 0.00000800 0.70401300 0.00000000 0.00284800 -0.00129700 0.00172500
60 0.00000000 0.72335700 0.00000000 -0.05730900 0.00585400 -0.02175900
61 0.00000800 0.70771600 0.00000000 -0.07775800 -0.00848400 -0.08911600
62 0.00000000 0.73422500 0.00000000 -0.76878500 0.03976400 0.05890600
63 0.00000200 0.69739300 0.00000000 -0.67318400 0.00972000 0.00739100
64 0.00000400 0.70033700 0.00000000 -0.11831100 -0.01160100 -0.03814400
65 0.00000000 0.70310500 0.00000000 -0.03850200 0.01155200 -0.01438300
66 3.31058900 1.54779400 1.66797500 0.00000000 0.00000000 0.00000000
67 -3.14822200 -0.05751300 3.29479100 0.00000000 0.00000000 0.00000000
68 0.83884000 -0.93570700 -0.98533800 0.00000000 0.00000000 0.00000000
time 3
0 -0.00000100 8.45008800 -27.50902600 0.00000000 0.00000000 0.00003100
1 -0.00000200 0.00000000 0.00000000 1.57074700 -1.56714200 -1.57074700
2 4.25546600 -0.33518300 -0.00000200 0.00000000 0.00000000 -0.12484800
3 7.43125000 1.49647900 0.00000200 0.00000000 0.00000000 0.24545000
4 5.27847900 0.16554400 0.00000100 0.00000000 0.00000000 0.04851100
5 -2.58210500 -18.68377900 10.99160600 1.97586500 1.15990900 -1.29878600
6 -6.21447800 -0.00000900 -0.00002600 -3.13012500 -0.64799500 1.39216700
7 11.94488500 0.00000000 0.00000000 0.16775800 -0.34926000 1.58446900
8 10.62018800 0.00000000 0.00000000 1.45925200 0.25387900 -3.09481900
9 -4.75110800 -0.69449800 0.83058000 -0.19617500 -0.07598900 0.33735800
10 -1.68806800 0.00004700 -0.00003100 0.01642800 -0.01846600 0.71331500
11 -1.33614000 0.00005500 -0.00001000 0.02584200 0.00517300 0.35617200
12 -4.82049400 -0.50946400 -0.22475900 -0.43210000 -0.06904400 1.18347900
13 -1.82698400 -0.00006900 0.00000800 0.00062300 0.04047200 1.28961100
14 -1.43656900 0.00000400 0.00000300 -0.06360300 -0.04470400 0.86686500
15 -3.99235700 -0.89119100 -1.82790900 -0.77162000 0.11408800 1.28870000
16 -1.40591800 -0.00002500 -0.00000200 0.00603500 -0.02888300 0.66990400
17 -1.17535800 0.00012600 -0.00001900 0.06674100 0.01248300 1.28927800
18 -4.52675100 -0.69058000 -1.12074100 -0.60925600 0.08426700 1.37684800
19 -1.74403800 0.00003200 -0.00000800 -0.02225500 -0.01944400 1.26365700
20 -1.36877100 0.00002300 0.00000200 0.04001900 0.03390800 0.76286100
21 -2.03839700 -0.89278900 0.93250800 1.84958100 0.50887600 0.72095600
22 -1.62789200 0.15474500 0.01182700 -0.09987500 0.17985400 0.56094000
23 -1.59928500 0.00001100 0.00001500 0.03412200 -0.02595000 0.63135700
24 5.51182000 0.00000800 -0.00000200 2.08601200 -0.06607600 3.11653600
25 0.19684600 -0.00000200 0.00000300 2.79340700 0.00000600 -3.14157700
26 -4.62411100 -16.59368300 -2.73566700 1.97586200 1.15991000 1.84280300
27 6.21448600 0.00000800 0.00001900 -0.94342700 0.28158500 -1.86041300
28 11.94488800 -0.00003100 -0.00020000 0.16479500 -0.33218600 -1.24454000
29 10.62016500 0.00000200 0.00000600 -2.76563800 -0.46888400 1.16490200
30 4.75115800 0.69437400 -0.83047400 -0.39999500 -0.50587900 1.10614300
31 1.68806500 -0.00002200 0.00000200 0.01051200 -0.02236200 0.99954000
32 1.33615100 -0.00005100 -0.00000900 -0.00339200 -0.03856600 0.45733500
33 4.82051500 0.50933800 0.22486600 -0.64350000 -0.23354800 1.61754800
34 1.82699200 0.00006600 0.00001000 -0.02693900 0.03024000 0.54682000
35 1.43658100 -0.00000600 0.00001000 0.00553800 -0.01408500 0.46469400
36 3.99235300 0.89108700 1.82799300 -0.75383000 -0.02936800 1.66174600
37 1.40592600 0.00003100 -0.00000300 0.00593600 -0.02885900 0.67109400
38 1.17536200 -0.00013200 0.00000100 0.02575500 0.12051600 0.16615700
39 4.52675800 0.69046400 1.12084300 -0.73571000 -0.12113100 1.69537000
40 1.74404100 -0.00003100 -0.00000200 -0.01099700 -0.02749700 0.79003300
41 1.36876700 -0.00003100 -0.00001800 0.03377900 0.15507400 0.03016400
42 1.87485700 0.93508100 -0.99912900 2.00785100 0.84305200 1.11121000
43 1.52345300 -0.00003200 -0.00000200 -0.03674500 0.12788100 0.22185000
44 1.59928100 -0.00000400 0.00001000 0.08257300 0.01253600 0.67607500
45 5.51180600 -0.00000200 0.00000300 -1.09321900 0.08900100 0.07878500
46 0.19684900 0.00000300 -0.00000100 -0.34822500 0.00001500 -0.00000200
47 0.00000000 1.00000000 0.00000000 0.00000000 0.00000000 -1.57079600
48 -4.48972800 26.54571200 -6.92574700 0.00000000 0.00000000 -3.14156200
49 -7.39149300 49.99999200 -0.32785400 0.43605000 0.25621100 -0.39218600
50 -4.34611700 -2.91451600 0.38708700 -2.62704400 0.61078600 -1.83318400
51 12.86816500 0.68670300 -3.22977800 0.43373700 1.03399400 1.73352400
52 5.75149200 0.00352400 0.08463000 0.00000000 0.00000000 0.00000000
53 -1.14123500 -1.15100600 -4.96482800 0.00000000 0.00000000 0.00000000
54 0.00000000 -3.08737400 1.87855200 2.96404600 0.00000000 0.00000000
55 0.21272100 -1.38514300 2.34137300 1.54305900 0.04193700 -0.00039900
56 0.00000200 0.68917300 -0.00000100 -0.14698600 -0.00476100 -0.07757300
57 0.00000000 0.72159500 0.00000000 0.18353100 -0.00843600 0.12266400
58 0.00000400 0.70041700 0.00000000 0.07838700 0.00342600 0.03382900
59 0.00000800 0.70401300 0.00000000 0.00284800 -0.00129700 0.00172500
60 0.00000000 0.72335700 0.00000000 -0.05730900 0.00585400 -0.02175900
61 0.00000800 0.70771600 0.00000000 -0.07775800 -0.00848400 -0.08911600
62 0.00000000 0.73422500 0.00000000 -0.76878500 0.03976400 0.05890600
63 0.00000200 0.69739300 0.00000000 -0.67318400 0.00972000 0.00739100
64 0.00000400 0.70033700 0.00000000 -0.11831100 -0.01160100 -0.03814400
65 0.00000000 0.70310500 0.00000000 -0.03850200 0.01155200 -0.01438300
66 3.31058900 1.54779400 1.66797500 0.00000000 0.00000000 0.00000000
67 -3.14822200 -0.05751300 3.29479100 0.00000000 0.00000000 0.00000000
68 0.83884000 -0.93570700 -0.98533800 0.00000000 0.00000000 0.00000000
time 4
0 -0.00000100 8.45008800 -27.50902600 0.00000000 0.00000000 0.00003100
1 -0.00000200 0.00000000 0.00000000 1.57074700 -1.56714200 -1.57074700
2 4.25546600 -0.33518300 -0.00000200 0.00000000 0.00000000 -0.12484800
3 7.43125000 1.49647900 0.00000200 0.00000000 0.00000000 0.24545000
4 5.27847900 0.16554400 0.00000100 0.00000000 0.00000000 0.04851100
5 -2.34086900 -18.35086600 10.49067200 1.97586500 1.15990900 -1.29878600
6 -6.21447800 -0.00000900 -0.00002600 -3.05642400 -0.71740000 1.44203400
7 11.94488500 0.00000000 0.00000000 0.15148000 -0.34870700 1.63204100
8 10.62018800 0.00000000 0.00000000 1.52071600 0.15133900 -3.10325700
9 -4.75110800 -0.69449800 0.83058000 -0.19617500 -0.07598900 0.33735800
10 -1.68806800 0.00004700 -0.00003100 0.01642800 -0.01846600 0.71331500
11 -1.33614000 0.00005500 -0.00001000 0.02584200 0.00517300 0.35617200
12 -4.82049400 -0.50946400 -0.22475900 -0.43210000 -0.06904400 1.18347900
13 -1.82698400 -0.00006900 0.00000800 0.00062300 0.04047200 1.28961100
14 -1.43656900 0.00000400 0.00000300 -0.06360300 -0.04470400 0.86686500
15 -3.99235700 -0.89119100 -1.82790900 -0.77162000 0.11408800 1.28870000
16 -1.40591800 -0.00002500 -0.00000200 0.00603500 -0.02888300 0.66990400
17 -1.17535800 0.00012600 -0.00001900 0.06674100 0.01248300 1.28927800
18 -4.52675100 -0.69058000 -1.12074100 -0.60925600 0.08426700 1.37684800
19 -1.74403800 0.00003200 -0.00000800 -0.02225500 -0.01944400 1.26365700
20 -1.36877100 0.00002300 0.00000200 0.04001900 0.03390800 0.76286100
21 -2.03839700 -0.89278900 0.93250800 1.84958100 0.50887600 0.72095600
22 -1.62789200 0.15474500 0.01182700 -0.09987500 0.17985400 0.56094000
23 -1.59928500 0.00001100 0.00001500 0.03412200 -0.02595000 0.63135700
24 5.51182000 0.00000800 -0.00000200 2.08601200 -0.06607600 3.11653600
25 0.19684600 -0.00000200 0.00000300 2.79340700 0.00000600 -3.14157700
26 -4.62411100 -16.59368300 -2.73566700 1.97586200 1.15991000 1.84280300
27 6.21448600 0.00000800 0.00001900 -0.91327500 0.28283700 -1.86684300
28 11.94488800 -0.00003100 -0.00020000 0.15976900 -0.33057100 -1.22911600
29 10.62016500 0.00000200 0.00000600 -2.81502400 -0.45253600 1.17643100
30 4.75115800 0.69437400 -0.83047400 -0.39999500 -0.50587900 1.10614300
31 1.68806500 -0.00002200 0.00000200 0.01051200 -0.02236200 0.99954000
32 1.33615100 -0.00005100 -0.00000900 -0.00339200 -0.03856600 0.45733500
33 4.82051500 0.50933800 0.22486600 -0.64350000 -0.23354800 1.61754800
34 1.82699200 0.00006600 0.00001000 -0.02693900 0.03024000 0.54682000
35 1.43658100 -0.00000600 0.00001000 0.00553800 -0.01408500 0.46469400
36 3.99235300 0.89108700 1.82799300 -0.75383000 -0.02936800 1.66174600
37 1.40592600 0.00003100 -0.00000300 0.00593600 -0.02885900 0.67109400
38 1.17536200 -0.00013200 0.00000100 0.02575500 0.12051600 0.16615700
39 4.52675800 0.69046400 1.12084300 -0.73571000 -0.12113100 1.69537000
40 1.74404100 -0.00003100 -0.00000200 -0.01099700 -0.02749700 0.79003300
41 1.36876700 -0.00003100 -0.00001800 0.03377900 0.15507400 0.03016400
42 1.87485700 0.93508100 -0.99912900 2.00785100 0.84305200 1.11121000
43 1.52345300 -0.00003200 -0.00000200 -0.03674500 0.12788100 0.22185000
44 1.59928100 -0.00000400 0.00001000 0.08257300 0.01253600 0.67607500
45 5.51180600 -0.00000200 0.00000300 -1.09321900 0.08900100 0.07878500
46 0.19684900 0.00000300 -0.00000100 -0.34822500 0.00001500 -0.00000200
47 0.00000000 1.00000000 0.00000000 0.00000000 0.00000000 -1.57079600
48 -4.48972800 26.54571200 -6.92574700 0.00000000 0.00000000 -3.14156200
49 -6.96132000 49.99999200 -0.37941100 0.44364000 0.24536400 -0.41615800
50 -4.34611700 -2.91451600 0.38708700 -2.62704400 0.61078600 -1.83318400
51 12.86816500 0.68670300 -3.22977800 0.43373700 1.03399400 1.73352400
52 5.75149200 0.00352400 0.08463000 0.00000000 0.00000000 0.00000000
53 -1.14123500 -1.15100600 -4.96482800 0.00000000 0.00000000 0.00000000
54 0.00000000 -3.08737400 1.87855200 2.96404600 0.00000000 0.00000000
55 0.21272100 -1.38514300 2.34137300 1.54305900 0.04193700 -0.00039900
56 0.00000200 0.68917300 -0.00000100 -0.14698600 -0.00476100 -0.07757300
57 0.00000000 0.72159500 0.00000000 0.18353100 -0.00843600 0.12266400
58 0.00000400 0.70041700 0.00000000 0.07838700 0.00342600 0.03382900
59 0.00000800 0.70401300 0.00000000 0.00284800 -0.00129700 0.00172500
60 0.00000000 0.72335700 0.00000000 -0.05730900 0.00585400 -0.02175900
61 0.00000800 0.70771600 0.00000000 -0.07775800 -0.00848400 -0.08911600
62 0.00000000 0.73422500 0.00000000 -0.76878500 0.03976400 0.05890600
63 0.00000200 0.69739300 0.00000000 -0.67318400 0.00972000 0.00739100
64 0.00000400 0.70033700 0.00000000 -0.11831100 -0.01160100 -0.03814400
65 0.00000000 0.70310500 0.00000000 -0.03850200 0.01155200 -0.01438300
66 3.31058900 1.54779400 1.66797500 0.00000000 0.00000000 0.00000000
67 -3.14822200 -0.05751300 3.29479100 0.00000000 0.00000000 0.00000000
68 0.83884000 -0.93570700 -0.98533800 0.00000000 0.00000000 0.00000000
time 5
0 -0.00000100 8.45008800 -27.50902600 0.00000000 0.00000000 0.00003100
1 -0.00000200 0.00000000 0.00000000 1.57074700 -1.56714200 -1.57074700
2 4.25546600 -0.33518300 -0.00000200 0.00000000 0.00000000 -0.12484800
3 7.43125000 1.49647900 0.00000200 0.00000000 0.00000000 0.24545000
4 5.27847900 0.16554400 0.00000100 0.00000000 0.00000000 0.04851100
5 -1.70487500 -17.47318600 9.17002300 1.97586500 1.15990900 -1.29878600
6 -6.21447800 -0.00000900 -0.00002600 -2.83205000 -0.87245800 1.49250900
7 11.94488500 0.00000000 0.00000000 0.13303800 -0.34714800 1.68614200
8 10.62018800 0.00000000 0.00000000 1.64763000 -0.10330500 -3.11889700
9 -4.75110800 -0.69449800 0.83058000 -0.19617500 -0.07598900 0.33735800
10 -1.68806800 0.00004700 -0.00003100 0.01642800 -0.01846600 0.71331500
11 -1.33614000 0.00005500 -0.00001000 0.02584200 0.00517300 0.35617200
12 -4.82049400 -0.50946400 -0.22475900 -0.43210000 -0.06904400 1.18347900
13 -1.82698400 -0.00006900 0.00000800 0.00062300 0.04047200 1.28961100
14 -1.43656900 0.00000400 0.00000300 -0.06360300 -0.04470400 0.86686500
15 -3.99235700 -0.89119100 -1.82790900 -0.77162000 0.11408800 1.28870000
16 -1.40591800 -0.00002500 -0.00000200 0.00603500 -0.02888300 0.66990400
17 -1.17535800 0.00012600 -0.00001900 0.06674100 0.01248300 1.28927800
18 -4.52675100 -0.69058000 -1.12074100 -0.60925600 0.08426700 1.37684800
19 -1.74403800 0.00003200 -0.00000800 -0.02225500 -0.01944400 1.26365700
20 -1.36877100 0.00002300 0.00000200 0.04001900 0.03390800 0.76286100
21 -2.03839700 -0.89278900 0.93250800 1.84958100 0.50887600 0.72095600
22 -1.62789200 0.15474500 0.01182700 -0.09987500 0.17985400 0.56094000
23 -1.59928500 0.00001100 0.00001500 0.03412200 -0.02595000 0.63135700
24 5.51182000 0.00000800 -0.00000200 2.08601200 -0.06607600 3.11653600
25 0.19684600 -0.00000200 0.00000300 2.79340700 0.00000600 -3.14157700
26 -4.62411100 -16.59368300 -2.73566700 1.97586200 1.15991000 1.84280300
27 6.21448600 0.00000800 0.00001900 -0.86297600 0.27963900 -1.88052100
28 11.94488800 -0.00003100 -0.00020000 0.14722800 -0.32605500 -1.19021600
29 10.62016500 0.00000200 0.00000600 -2.89624400 -0.41375600 1.18403000
30 4.75115800 0.69437400 -0.83047400 -0.39999500 -0.50587900 1.10614300
31 1.68806500 -0.00002200 0.00000200 0.01051200 -0.02236200 0.99954000
32 1.33615100 -0.00005100 -0.00000900 -0.00339200 -0.03856600 0.45733500
33 4.82051500 0.50933800 0.22486600 -0.64350000 -0.23354800 1.61754800
34 1.82699200 0.00006600 0.00001000 -0.02693900 0.03024000 0.54682000
35 1.43658100 -0.00000600 0.00001000 0.00553800 -0.01408500 0.46469400
36 3.99235300 0.89108700 1.82799300 -0.75383000 -0.02936800 1.66174600
37 1.40592600 0.00003100 -0.00000300 0.00593600 -0.02885900 0.67109400
38 1.17536200 -0.00013200 0.00000100 0.02575500 0.12051600 0.16615700
39 4.52675800 0.69046400 1.12084300 -0.73571000 -0.12113100 1.69537000
40 1.74404100 -0.00003100 -0.00000200 -0.01099700 -0.02749700 0.79003300
41 1.36876700 -0.00003100 -0.00001800 0.03377900 0.15507400 0.03016400
42 1.87485700 0.93508100 -0.99912900 2.00785100 0.84305200 1.11121000
43 1.52345300 -0.00003200 -0.00000200 -0.03674500 0.12788100 0.22185000
44 1.59928100 -0.00000400 0.00001000 0.08257300 0.01253600 0.67607500
45 5.51180600 -0.00000200 0.00000300 -1.09321900 0.08900100 0.07878500
46 0.19684900 0.00000300 -0.00000100 -0.34822500 0.00001500 -0.00000200
47 0.00000000 1.00000000 0.00000000 0.00000000 0.00000000 -1.57079600
48 -4.48972800 26.54571200 -6.92574700 0.00000000 0.00000000 -3.14156200
49 -6.22998000 49.99999200 -0.46706400 0.45443500 0.22625900 -0.46776500
50 -4.34611700 -2.91451600 0.38708700 -2.62704400 0.61078600 -1.83318400
51 12.86816500 0.68670300 -3.22977800 0.43373700 1.03399400 1.73352400
52 5.75149200 0.00352400 0.08463000 0.00000000 0.00000000 0.00000000
53 -1.14123500 -1.15100600 -4.96482800 0.00000000 0.00000000 0.00000000
54 0.00000000 -3.08737400 1.87855200 2.96404600 0.00000000 0.00000000
55 0.21272100 -1.38514300 2.34137300 1.54305900 0.04193700 -0.00039900
56 0.00000200 0.68917300 -0.00000100 -0.14698600 -0.00476100 -0.07757300
57 0.00000000 0.72159500 0.00000000 0.18353100 -0.00843600 0.12266400
58 0.00000400 0.70041700 0.00000000 0.07838700 0.00342600 0.03382900
59 0.00000800 0.70401300 0.00000000 0.00284800 -0.00129700 0.00172500
60 0.00000000 0.72335700 0.00000000 -0.05730900 0.00585400 -0.02175900
61 0.00000800 0.70771600 0.00000000 -0.07775800 -0.00848400 -0.08911600
62 0.00000000 0.73422500 0.00000000 -0.76878500 0.03976400 0.05890600
63 0.00000200 0.69739300 0.00000000 -0.67318400 0.00972000 0.00739100
64 0.00000400 0.70033700 0.00000000 -0.11831100 -0.01160100 -0.03814400
65 0.00000000 0.70310500 0.00000000 -0.03850200 0.01155200 -0.01438300
66 3.31058900 1.54779400 1.66797500 0.00000000 0.00000000 0.00000000
67 -3.14822200 -0.05751300 3.29479100 0.00000000 0.00000000 0.00000000
68 0.83884000 -0.93570700 -0.98533800 0.00000000 0.00000000 0.00000000
time 6
0 -0.00000100 8.45008800 -27.50902600 0.00000000 0.00000000 0.00003100
1 -0.00000200 0.00000000 0.00000000 1.57074700 -1.56714200 -1.57074700
2 4.25546600 -0.33518300 -0.00000200 0.00000000 0.00000000 -0.12484800
3 7.43125000 1.49647900 0.00000200 0.00000000 0.00000000 0.24545000
4 5.27847900 0.16554400 0.00000100 0.00000000 0.00000000 0.04851100
5 -0.80571600 -16.23233800 7.30290300 1.97586500 1.15990900 -1.29878600
6 -6.21447800 -0.00000900 -0.00002600 -2.60531300 -1.00405300 1.56075000
7 11.94488500 0.00000000 0.00000000 0.10571300 -0.34311900 1.76682000
8 10.62018800 0.00000000 0.00000000 1.77370800 -0.32245300 3.08958500
9 -4.75110800 -0.69449800 0.83058000 -0.19617500 -0.07598900 0.33735800
10 -1.68806800 0.00004700 -0.00003100 0.01642800 -0.01846600 0.71331500
11 -1.33614000 0.00005500 -0.00001000 0.02584200 0.00517300 0.35617200
12 -4.82049400 -0.50946400 -0.22475900 -0.43210000 -0.06904400 1.18347900
13 -1.82698400 -0.00006900 0.00000800 0.00062300 0.04047200 1.28961100
14 -1.43656900 0.00000400 0.00000300 -0.06360300 -0.04470400 0.86686500
15 -3.99235700 -0.89119100 -1.82790900 -0.77162000 0.11408800 1.28870000
16 -1.40591800 -0.00002500 -0.00000200 0.00603500 -0.02888300 0.66990400
17 -1.17535800 0.00012600 -0.00001900 0.06674100 0.01248300 1.28927800
18 -4.52675100 -0.69058000 -1.12074100 -0.60925600 0.08426700 1.37684800
19 -1.74403800 0.00003200 -0.00000800 -0.02225500 -0.01944400 1.26365700
20 -1.36877100 0.00002300 0.00000200 0.04001900 0.03390800 0.76286100
21 -2.03839700 -0.89278900 0.93250800 1.84958100 0.50887600 0.72095600
22 -1.62789200 0.15474500 0.01182700 -0.09987500 0.17985400 0.56094000
23 -1.59928500 0.00001100 0.00001500 0.03412200 -0.02595000 0.63135700
24 5.51182000 0.00000800 -0.00000200 2.08601200 -0.06607600 3.11653600
25 0.19684600 -0.00000200 0.00000300 2.79340700 0.00000600 -3.14157700
26 -4.64503800 -16.71900900 -2.82990700 1.97586200 1.15991000 1.84280300
27 6.21448600 0.00000800 0.00001900 -0.77093900 0.26058900 -1.90723300
28 11.94488800 -0.00003100 -0.00020000 0.09812700 -0.31434200 -1.10303100
29 10.62016500 0.00000200 0.00000600 -3.01785000 -0.33193300 1.16801700
30 4.75115800 0.69437400 -0.83047400 -0.39999500 -0.50587900 1.10614300
31 1.68806500 -0.00002200 0.00000200 0.01051200 -0.02236200 0.99954000
32 1.33615100 -0.00005100 -0.00000900 -0.00339200 -0.03856600 0.45733500
33 4.82051500 0.50933800 0.22486600 -0.64350000 -0.23354800 1.61754800
34 1.82699200 0.00006600 0.00001000 -0.02693900 0.03024000 0.54682000
35 1.43658100 -0.00000600 0.00001000 0.00553800 -0.01408500 0.46469400
36 3.99235300 0.89108700 1.82799300 -0.75383000 -0.02936800 1.66174600
37 1.40592600 0.00003100 -0.00000300 0.00593600 -0.02885900 0.67109400
38 1.17536200 -0.00013200 0.00000100 0.02575500 0.12051600 0.16615700
39 4.52675800 0.69046400 1.12084300 -0.73571000 -0.12113100 1.69537000
40 1.74404100 -0.00003100 -0.00000200 -0.01099700 -0.02749700 0.79003300
41 1.36876700 -0.00003100 -0.00001800 0.03377900 0.15507400 0.03016400
42 1.87485700 0.93508100 -0.99912900 2.00785100 0.84305200 1.11121000
43 1.52345300 -0.00003200 -0.00000200 -0.03674500 0.12788100 0.22185000
44 1.59928100 -0.00000400 0.00001000 0.08257300 0.01253600 0.67607500
45 5.51180600 -0.00000200 0.00000300 -1.09321900 0.08900100 0.07878500
46 0.19684900 0.00000300 -0.00000100 -0.34822500 0.00001500 -0.00000200
47 0.00000000 1.00000000 0.00000000 0.00000000 0.00000000 -1.57079600
48 -4.48972800 26.54571200 -6.92574700 0.00000000 0.00000000 -3.14156200
49 -5.09363100 49.99999200 -0.60326000 0.46408700 0.19370300 -0.58732200
50 -4.34611700 -2.91451600 0.38708700 -2.62704400 0.61078600 -1.83318400
51 12.86816500 0.68670300 -3.22977800 0.43373700 1.03399400 1.73352400
52 5.75149200 0.00352400 0.08463000 0.00000000 0.00000000 0.00000000
53 -1.14123500 -1.15100600 -4.96482800 0.00000000 0.00000000 0.00000000
54 0.00000000 -3.08737400 1.87855200 2.96404600 0.00000000 0.00000000
55 0.21272100 -1.38514300 2.34137300 1.54305900 0.04193700 -0.00039900
56 0.00000200 0.68917300 -0.00000100 -0.14698600 -0.00476100 -0.07757300
57 0.00000000 0.72159500 0.00000000 0.18353100 -0.00843600 0.12266400
58 0.00000400 0.70041700 0.00000000 0.07838700 0.00342600 0.03382900
59 0.00000800 0.70401300 0.00000000 0.00284800 -0.00129700 0.00172500
60 0.00000000 0.72335700 0.00000000 -0.05730900 0.00585400 -0.02175900
61 0.00000800 0.70771600 0.00000000 -0.07775800 -0.00848400 -0.08911600
62 0.00000000 0.73422500 0.00000000 -0.76878500 0.03976400 0.05890600
63 0.00000200 0.69739300 0.00000000 -0.67318400 0.00972000 0.00739100
64 0.00000400 0.70033700 0.00000000 -0.11831100 -0.01160100 -0.03814400
65 0.00000000 0.70310500 0.00000000 -0.03850200 0.01155200 -0.01438300
66 3.31058900 1.54779400 1.66797500 0.00000000 0.00000000 0.00000000
67 -3.14822200 -0.05751300 3.29479100 0.00000000 0.00000000 0.00000000
68 0.83884000 -0.93570700 -0.98533800 0.00000000 0.00000000 0.00000000
time 7
0 -0.00000100 8.45008800 -27.50902600 0.00000000 0.00000000 0.00003100
1 -0.00000200 0.00000000 0.00000000 1.57074700 -1.56714200 -1.57074700
2 4.25546600 -0.33518300 -0.00000200 0.00000000 0.00000000 -0.12484800
3 7.43125000 1.49647900 0.00000200 0.00000000 0.00000000 0.24545000
4 5.27847900 0.16554400 0.00000100 0.00000000 0.00000000 0.04851100
5 0.22502800 -14.80989500 5.16254900 1.97586500 1.15990900 -1.29878600
6 -6.21447800 -0.00000900 -0.00002600 -2.76237900 -1.01844500 1.83703200
7 11.94488500 0.00000000 0.00000000 0.07585800 -0.33621200 1.85637700
8 10.62018800 0.00000000 0.00000000 1.79471200 -0.24454500 3.04557000
9 -4.75110800 -0.69449800 0.83058000 -0.19617500 -0.07598900 0.33735800
10 -1.68806800 0.00004700 -0.00003100 0.01642800 -0.01846600 0.71331500
11 -1.33614000 0.00005500 -0.00001000 0.02584200 0.00517300 0.35617200
12 -4.82049400 -0.50946400 -0.22475900 -0.43210000 -0.06904400 1.18347900
13 -1.82698400 -0.00006900 0.00000800 0.00062300 0.04047200 1.28961100
14 -1.43656900 0.00000400 0.00000300 -0.06360300 -0.04470400 0.86686500
15 -3.99235700 -0.89119100 -1.82790900 -0.77162000 0.11408800 1.28870000
16 -1.40591800 -0.00002500 -0.00000200 0.00603500 -0.02888300 0.66990400
17 -1.17535800 0.00012600 -0.00001900 0.06674100 0.01248300 1.28927800
18 -4.52675100 -0.69058000 -1.12074100 -0.60925600 0.08426700 1.37684800
19 -1.74403800 0.00003200 -0.00000800 -0.02225500 -0.01944400 1.26365700
20 -1.36877100 0.00002300 0.00000200 0.04001900 0.03390800 0.76286100
21 -2.03839700 -0.89278900 0.93250800 1.84958100 0.50887600 0.72095600
22 -1.62789200 0.15474500 0.01182700 -0.09987500 0.17985400 0.56094000
23 -1.59928500 0.00001100 0.00001500 0.03412200 -0.02595000 0.63135700
24 5.51182000 0.00000800 -0.00000200 2.08601200 -0.06607600 3.11653600
25 0.19684600 -0.00000200 0.00000300 2.79340700 0.00000600 -3.14157700
26 -4.70184100 -17.05919100 -3.08570500 1.97586200 1.15991000 1.84280300
27 6.21448600 0.00000800 0.00001900 -0.66154300 0.21305000 -1.94736600
28 11.94488800 -0.00003100 -0.00020000 -0.00303200 -0.29015300 -0.96102300
29 10.62016500 0.00000200 0.00000600 -3.11372000 -0.20451800 1.08289800
30 4.75115800 0.69437400 -0.83047400 -0.39999500 -0.50587900 1.10614300
31 1.68806500 -0.00002200 0.00000200 0.01051200 -0.02236200 0.99954000
32 1.33615100 -0.00005100 -0.00000900 -0.00339200 -0.03856600 0.45733500
33 4.82051500 0.50933800 0.22486600 -0.64350000 -0.23354800 1.61754800
34 1.82699200 0.00006600 0.00001000 -0.02693900 0.03024000 0.54682000
35 1.43658100 -0.00000600 0.00001000 0.00553800 -0.01408500 0.46469400
36 3.99235300 0.89108700 1.82799300 -0.75383000 -0.02936800 1.66174600
37 1.40592600 0.00003100 -0.00000300 0.00593600 -0.02885900 0.67109400
38 1.17536200 -0.00013200 0.00000100 0.02575500 0.12051600 0.16615700
39 4.52675800 0.69046400 1.12084300 -0.73571000 -0.12113100 1.69537000
40 1.74404100 -0.00003100 -0.00000200 -0.01099700 -0.02749700 0.79003300
41 1.36876700 -0.00003100 -0.00001800 0.03377900 0.15507400 0.03016400
42 1.87485700 0.93508100 -0.99912900 2.00785100 0.84305200 1.11121000
43 1.52345300 -0.00003200 -0.00000200 -0.03674500 0.12788100 0.22185000
44 1.59928100 -0.00000400 0.00001000 0.08257300 0.01253600 0.67607500
45 5.51180600 -0.00000200 0.00000300 -1.09321900 0.08900100 0.07878500
46 0.19684900 0.00000300 -0.00000100 -0.34822500 0.00001500 -0.00000200
47 0.00000000 1.00000000 0.00000000 0.00000000 0.00000000 -1.57079600
48 -4.48972800 26.54571200 -6.92574700 0.00000000 0.00000000 -3.14156200
49 -4.15275700 49.99999200 -0.71602600 0.45446100 0.15633900 -0.78440300
50 -4.34611700 -2.91451600 0.38708700 -2.62704400 0.61078600 -1.83318400
51 12.86816500 0.68670300 -3.22977800 0.43373700 1.03399400 1.73352400
52 5.75149200 0.00352400 0.08463000 0.00000000 0.00000000 0.00000000
53 -1.14123500 -1.15100600 -4.96482800 0.00000000 0.00000000 0.00000000
54 0.00000000 -3.08737400 1.87855200 2.96404600 0.00000000 0.00000000
55 0.21272100 -1.38514300 2.34137300 1.54305900 0.04193700 -0.00039900
56 0.00000200 0.68917300 -0.00000100 -0.14698600 -0.00476100 -0.07757300
57 0.00000000 0.72159500 0.00000000 0.18353100 -0.00843600 0.12266400
58 0.00000400 0.70041700 0.00000000 0.07838700 0.00342600 0.03382900
59 0.00000800 0.70401300 0.00000000 0.00284800 -0.00129700 0.00172500
60 0.00000000 0.72335700 0.00000000 -0.05730900 0.00585400 -0.02175900
61 0.00000800 0.70771600 0.00000000 -0.07775800 -0.00848400 -0.08911600
62 0.00000000 0.73422500 0.00000000 -0.76878500 0.03976400 0.05890600
63 0.00000200 0.69739300 0.00000000 -0.67318400 0.00972000 0.00739100
64 0.00000400 0.70033700 0.00000000 -0.11831100 -0.01160100 -0.03814400
65 0.00000000 0.70310500 0.00000000 -0.03850200 0.01155200 -0.01438300
66 3.31058900 1.54779400 1.66797500 0.00000000 0.00000000 0.00000000
67 -3.14822200 -0.05751300 3.29479100 0.00000000 0.00000000 0.00000000
68 0.83884000 -0.93570700 -0.98533800 0.00000000 0.00000000 0.00000000
time 8
0 -0.00000100 8.45008800 -27.50902600 0.00000000 0.00000000 0.00003100
1 -0.00000200 0.00000000 0.00000000 1.57074700 -1.56714200 -1.57074700
2 4.25546600 -0.33518300 -0.00000200 0.00000000 0.00000000 -0.12484800
3 7.43125000 1.49647900 0.00000200 0.00000000 0.00000000 0.24545000
4 5.27847900 0.16554400 0.00000100 0.00000000 0.00000000 0.04851100
5 1.25577400 -13.38745500 3.02219100 1.97586500 1.15990900 -1.29878600
6 -6.21447800 -0.00000900 -0.00002600 -3.00941500 -0.95076900 2.07180400
7 11.94488500 0.00000000 0.00000000 0.06922300 -0.33424600 1.87676500
8 10.62018800 0.00000000 0.00000000 1.76532200 -0.03313000 3.03999200
9 -4.75110800 -0.69449800 0.83058000 -0.19617500 -0.07598900 0.33735800
10 -1.68806800 0.00004700 -0.00003100 0.01642800 -0.01846600 0.71331500
11 -1.33614000 0.00005500 -0.00001000 0.02584200 0.00517300 0.35617200
12 -4.82049400 -0.50946400 -0.22475900 -0.43210000 -0.06904400 1.18347900
13 -1.82698400 -0.00006900 0.00000800 0.00062300 0.04047200 1.28961100
14 -1.43656900 0.00000400 0.00000300 -0.06360300 -0.04470400 0.86686500
15 -3.99235700 -0.89119100 -1.82790900 -0.77162000 0.11408800 1.28870000
16 -1.40591800 -0.00002500 -0.00000200 0.00603500 -0.02888300 0.66990400
17 -1.17535800 0.00012600 -0.00001900 0.06674100 0.01248300 1.28927800
18 -4.52675100 -0.69058000 -1.12074100 -0.60925600 0.08426700 1.37684800
19 -1.74403800 0.00003200 -0.00000800 -0.02225500 -0.01944400 1.26365700
20 -1.36877100 0.00002300 0.00000200 0.04001900 0.03390800 0.76286100
21 -2.03839700 -0.89278900 0.93250800 1.84958100 0.50887600 0.72095600
22 -1.62789200 0.15474500 0.01182700 -0.09987500 0.17985400 0.56094000
23 -1.59928500 0.00001100 0.00001500 0.03412200 -0.02595000 0.63135700
24 5.51182000 0.00000800 -0.00000200 2.08601200 -0.06607600 3.11653600
25 0.19684600 -0.00000200 0.00000300 2.79340700 0.00000600 -3.14157700
26 -4.78555000 -17.56050500 -3.46266900 1.97586200 1.15991000 1.84280300
27 6.21448600 0.00000800 0.00001900 -0.56301900 0.16447900 -1.97719500
28 11.94488800 -0.00003100 -0.00020000 -0.11927500 -0.26753700 -0.85218700
29 10.62016500 0.00000200 0.00000600 3.13779300 -0.09489600 0.98938200
30 4.75115800 0.69437400 -0.83047400 -0.39999500 -0.50587900 1.10614300
31 1.68806500 -0.00002200 0.00000200 0.01051200 -0.02236200 0.99954000
32 1.33615100 -0.00005100 -0.00000900 -0.00339200 -0.03856600 0.45733500
33 4.82051500 0.50933800 0.22486600 -0.64350000 -0.23354800 1.61754800
34 1.82699200 0.00006600 0.00001000 -0.02693900 0.03024000 0.54682000
35 1.43658100 -0.00000600 0.00001000 0.00553800 -0.01408500 0.46469400
36 3.99235300 0.89108700 1.82799300 -0.75383000 -0.02936800 1.66174600
37 1.40592600 0.00003100 -0.00000300 0.00593600 -0.02885900 0.67109400
38 1.17536200 -0.00013200 0.00000100 0.02575500 0.12051600 0.16615700
39 4.52675800 0.69046400 1.12084300 -0.73571000 -0.12113100 1.69537000
40 1.74404100 -0.00003100 -0.00000200 -0.01099700 -0.02749700 0.79003300
41 1.36876700 -0.00003100 -0.00001800 0.03377900 0.15507400 0.03016400
42 1.87485700 0.93508100 -0.99912900 2.00785100 0.84305200 1.11121000
43 1.52345300 -0.00003200 -0.00000200 -0.03674500 0.12788100 0.22185000
44 1.59928100 -0.00000400 0.00001000 0.08257300 0.01253600 0.67607500
45 5.51180600 -0.00000200 0.00000300 -1.09321900 0.08900100 0.07878500
46 0.19684900 0.00000300 -0.00000100 -0.34822500 0.00001500 -0.00000200
47 0.00000000 1.00000000 0.00000000 0.00000000 0.00000000 -1.57079600
48 -4.48972800 26.54571200 -6.92574700 0.00000000 0.00000000 -3.14156200
49 -3.91171400 49.99999200 -0.74491500 0.42727600 0.12672300 -0.97034900
50 -4.34611700 -2.91451600 0.38708700 -2.62704400 0.61078600 -1.83318400
51 12.86816500 0.68670300 -3.22977800 0.43373700 1.03399400 1.73352400
52 5.75149200 0.00352400 0.08463000 0.00000000 0.00000000 0.00000000
53 -1.14123500 -1.15100600 -4.96482800 0.00000000 0.00000000 0.00000000
54 0.00000000 -3.08737400 1.87855200 2.96404600 0.00000000 0.00000000
55 0.21272100 -1.38514300 2.34137300 1.54305900 0.04193700 -0.00039900
56 0.00000200 0.68917300 -0.00000100 -0.14698600 -0.00476100 -0.07757300
57 0.00000000 0.72159500 0.00000000 0.18353100 -0.00843600 0.12266400
58 0.00000400 0.70041700 0.00000000 0.07838700 0.00342600 0.03382900
59 0.00000800 0.70401300 0.00000000 0.00284800 -0.00129700 0.00172500
60 0.00000000 0.72335700 0.00000000 -0.05730900 0.00585400 -0.02175900
61 0.00000800 0.70771600 0.00000000 -0.07775800 -0.00848400 -0.08911600
62 0.00000000 0.73422500 0.00000000 -0.76878500 0.03976400 0.05890600
63 0.00000200 0.69739300 0.00000000 -0.67318400 0.00972000 0.00739100
64 0.00000400 0.70033700 0.00000000 -0.11831100 -0.01160100 -0.03814400
65 0.00000000 0.70310500 0.00000000 -0.03850200 0.01155200 -0.01438300
66 3.31058900 1.54779400 1.66797500 0.00000000 0.00000000 0.00000000
67 -3.14822200 -0.05751300 3.29479100 0.00000000 0.00000000 0.00000000
68 0.83884000 -0.93570700 -0.98533800 0.00000000 0.00000000 0.00000000
time 9
0 -0.00000100 8.45008800 -27.50902600 0.00000000 0.00000000 0.00003100
1 -0.00000200 0.00000000 0.00000000 1.57074700 -1.56714200 -1.57074700
2 4.25546600 -0.33518300 -0.00000200 0.00000000 0.00000000 -0.12484800
3 7.43125000 1.49647900 0.00000200 0.00000000 0.00000000 0.24545000
4 5.27847900 0.16554400 0.00000100 0.00000000 0.00000000 0.04851100
5 2.15493400 -12.14660300 1.15507100 1.97586500 1.15990900 -1.29878600
6 -6.21447800 -0.00000900 -0.00002600 3.13542600 -0.89498600 2.16789500
7 11.94488500 0.00000000 0.00000000 0.06800100 -0.33395000 1.88028900
8 10.62018800 0.00000000 0.00000000 1.73709400 0.17087800 2.99894400
9 -4.75110800 -0.69449800 0.83058000 -0.19617500 -0.07598900 0.33735800
10 -1.68806800 0.00004700 -0.00003100 0.01642800 -0.01846600 0.71331500
11 -1.33614000 0.00005500 -0.00001000 0.02584200 0.00517300 0.35617200
12 -4.82049400 -0.50946400 -0.22475900 -0.43210000 -0.06904400 1.18347900
13 -1.82698400 -0.00006900 0.00000800 0.00062300 0.04047200 1.28961100
14 -1.43656900 0.00000400 0.00000300 -0.06360300 -0.04470400 0.86686500
15 -3.99235700 -0.89119100 -1.82790900 -0.77162000 0.11408800 1.28870000
16 -1.40591800 -0.00002500 -0.00000200 0.00603500 -0.02888300 0.66990400
17 -1.17535800 0.00012600 -0.00001900 0.06674100 0.01248300 1.28927800
18 -4.52675100 -0.69058000 -1.12074100 -0.60925600 0.08426700 1.37684800
19 -1.74403800 0.00003200 -0.00000800 -0.02225500 -0.01944400 1.26365700
20 -1.36877100 0.00002300 0.00000200 0.04001900 0.03390800 0.76286100
21 -2.03839700 -0.89278900 0.93250800 1.84958100 0.50887600 0.72095600
22 -1.62789200 0.15474500 0.01182700 -0.09987500 0.17985400 0.56094000
23 -1.59928500 0.00001100 0.00001500 0.03412200 -0.02595000 0.63135700
24 5.51182000 0.00000800 -0.00000200 2.08601200 -0.06607600 3.11653600
25 0.19684600 -0.00000200 0.00000300 2.79340700 0.00000600 -3.14157700
26 -4.88719700 -18.16924300 -3.92041100 1.97586200 1.15991000 1.84280300
27 6.21448600 0.00000800 0.00001900 -0.46306800 0.11930400 -1.99773200
28 11.94488800 -0.00003100 -0.00020000 -0.23493800 -0.25705100 -0.80637200
29 10.62016500 0.00000200 0.00000600 -3.13546900 -0.00963400 0.94653100
30 4.75115800 0.69437400 -0.83047400 -0.39999500 -0.50587900 1.10614300
31 1.68806500 -0.00002200 0.00000200 0.01051200 -0.02236200 0.99954000
32 1.33615100 -0.00005100 -0.00000900 -0.00339200 -0.03856600 0.45733500
33 4.82051500 0.50933800 0.22486600 -0.64350000 -0.23354800 1.61754800
34 1.82699200 0.00006600 0.00001000 -0.02693900 0.03024000 0.54682000
35 1.43658100 -0.00000600 0.00001000 0.00553800 -0.01408500 0.46469400
36 3.99235300 0.89108700 1.82799300 -0.75383000 -0.02936800 1.66174600
37 1.40592600 0.00003100 -0.00000300 0.00593600 -0.02885900 0.67109400
38 1.17536200 -0.00013200 0.00000100 0.02575500 0.12051600 0.16615700
39 4.52675800 0.69046400 1.12084300 -0.73571000 -0.12113100 1.69537000
40 1.74404100 -0.00003100 -0.00000200 -0.01099700 -0.02749700 0.79003300
41 1.36876700 -0.00003100 -0.00001800 0.03377900 0.15507400 0.03016400
42 1.87485700 0.93508100 -0.99912900 2.00785100 0.84305200 1.11121000
43 1.52345300 -0.00003200 -0.00000200 -0.03674500 0.12788100 0.22185000
44 1.59928100 -0.00000400 0.00001000 0.08257300 0.01253600 0.67607500
45 5.51180600 -0.00000200 0.00000300 -1.09321900 0.08900100 0.07878500
46 0.19684900 0.00000300 -0.00000100 -0.34822500 0.00001500 -0.00000200
47 0.00000000 1.00000000 0.00000000 0.00000000 0.00000000 -1.57079600
48 -4.48972800 26.54571200 -6.92574700 0.00000000 0.00000000 -3.14156200
49 -3.94543300 49.87015500 -0.57562500 0.38027800 0.10385300 -1.12911000
50 -4.34611700 -2.91451600 0.38708700 -2.62704400 0.61078600 -1.83318400
51 12.86816500 0.68670300 -3.22977800 0.43373700 1.03399400 1.73352400
52 5.75149200 0.00352400 0.08463000 0.00000000 0.00000000 0.00000000
53 -1.14123500 -1.15100600 -4.96482800 0.00000000 0.00000000 0.00000000
54 0.00000000 -3.08737400 1.87855200 2.96404600 0.00000000 0.00000000
55 0.21272100 -1.38514300 2.34137300 1.54305900 0.04193700 -0.00039900
56 0.00000200 0.68917300 -0.00000100 -0.14698600 -0.00476100 -0.07757300
57 0.00000000 0.72159500 0.00000000 0.18353100 -0.00843600 0.12266400
58 0.00000400 0.70041700 0.00000000 0.07838700 0.00342600 0.03382900
59 0.00000800 0.70401300 0.00000000 0.00284800 -0.00129700 0.00172500
60 0.00000000 0.72335700 0.00000000 -0.05730900 0.00585400 -0.02175900
61 0.00000800 0.70771600 0.00000000 -0.07775800 -0.00848400 -0.08911600
62 0.00000000 0.73422500 0.00000000 -0.76878500 0.03976400 0.05890600
63 0.00000200 0.69739300 0.00000000 -0.67318500 0.00969100 0.00731000
64 0.00000400 0.70033700 0.00000000 -0.11831100 -0.01160100 -0.03814400
65 0.00000000 0.70310500 0.00000000 -0.03850200 0.01155200 -0.01438300
66 3.31058900 1.54779400 1.66797500 0.00000000 0.00000000 0.00000000
67 -3.14822200 -0.05751300 3.29479100 0.00000000 0.00000000 0.00000000
68 0.83884000 -0.93570700 -0.98533800 0.00000000 0.00000000 0.00000000
time 10
0 -0.00000100 8.45008800 -27.50902600 0.00000000 0.00000000 0.00003100
1 -0.00000200 0.00000000 0.00000000 1.57074700 -1.56714200 -1.57074700
2 4.25546600 -0.33518300 -0.00000200 0.00000000 0.00000000 -0.12484800
3 7.43125000 1.49647900 0.00000200 0.00000000 0.00000000 0.24545000
4 5.27847900 0.16554400 0.00000100 0.00000000 0.00000000 0.04851100
5 2.79092600 -11.26892500 -0.16557800 1.97586500 1.15990900 -1.29878600
6 -6.21447800 -0.00000900 -0.00002600 3.06335100 -0.87157300 2.18478600
7 11.94488500 0.00000000 0.00000000 0.05414500 -0.32941700 1.92292200
8 10.62018800 0.00000000 0.00000000 1.69770400 0.36654300 2.88940100
9 -4.75110800 -0.69449800 0.83058000 -0.19617500 -0.07598900 0.33735800
10 -1.68806800 0.00004700 -0.00003100 0.01642800 -0.01846600 0.71331500
11 -1.33614000 0.00005500 -0.00001000 0.02584200 0.00517300 0.35617200
12 -4.82049400 -0.50946400 -0.22475900 -0.43210000 -0.06904400 1.18347900
13 -1.82698400 -0.00006900 0.00000800 0.00062300 0.04047200 1.28961100
14 -1.43656900 0.00000400 0.00000300 -0.06360300 -0.04470400 0.86686500
15 -3.99235700 -0.89119100 -1.82790900 -0.77162000 0.11408800 1.28870000
16 -1.40591800 -0.00002500 -0.00000200 0.00603500 -0.02888300 0.66990400
17 -1.17535800 0.00012600 -0.00001900 0.06674100 0.01248300 1.28927800
18 -4.52675100 -0.69058000 -1.12074100 -0.60925600 0.08426700 1.37684800
19 -1.74403800 0.00003200 -0.00000800 -0.02225500 -0.01944400 1.26365700
20 -1.36877100 0.00002300 0.00000200 0.04001900 0.03390800 0.76286100
21 -2.03839700 -0.89278900 0.93250800 1.84958100 0.50887600 0.72095600
22 -1.62789200 0.15474500 0.01182700 -0.09987500 0.17985400 0.56094000
23 -1.59928500 0.00001100 0.00001500 0.03412200 -0.02595000 0.63135700
24 5.51182000 0.00000800 -0.00000200 2.08601200 -0.06607600 3.11653600
25 0.19684600 -0.00000200 0.00000300 2.79340700 0.00000600 -3.14157700
26 -4.99781400 -18.83169600 -4.41854300 1.97586200 1.15991000 1.84280300
27 6.21448600 0.00000800 0.00001900 -0.36658700 0.06988500 -2.01481600
28 11.94488800 -0.00003100 -0.00020000 -0.34430400 -0.25865300 -0.81330100
29 10.62016500 0.00000200 0.00000600 -3.09296500 0.05758800 0.96579500
30 4.75115800 0.69437400 -0.83047400 -0.39999500 -0.50587900 1.10614300
31 1.68806500 -0.00002200 0.00000200 0.01051200 -0.02236200 0.99954000
32 1.33615100 -0.00005100 -0.00000900 -0.00339200 -0.03856600 0.45733500
33 4.82051500 0.50933800 0.22486600 -0.64350000 -0.23354800 1.61754800
34 1.82699200 0.00006600 0.00001000 -0.02693900 0.03024000 0.54682000
35 1.43658100 -0.00000600 0.00001000 0.00553800 -0.01408500 0.46469400
36 3.99235300 0.89108700 1.82799300 -0.75383000 -0.02936800 1.66174600
37 1.40592600 0.00003100 -0.00000300 0.00593600 -0.02885900 0.67109400
38 1.17536200 -0.00013200 0.00000100 0.02575500 0.12051600 0.16615700
39 4.52675800 0.69046400 1.12084300 -0.73571000 -0.12113100 1.69537000
40 1.74404100 -0.00003100 -0.00000200 -0.01099700 -0.02749700 0.79003300
41 1.36876700 -0.00003100 -0.00001800 0.03377900 0.15507400 0.03016400
42 1.87485700 0.93508100 -0.99912900 2.00785100 0.84305200 1.11121000
43 1.52345300 -0.00003200 -0.00000200 -0.03674500 0.12788100 0.22185000
44 1.59928100 -0.00000400 0.00001000 0.08257300 0.01253600 0.67607500
45 5.51180600 -0.00000200 0.00000300 -1.09321900 0.08900100 0.07878500
46 0.19684900 0.00000300 -0.00000100 -0.34822500 0.00001500 -0.00000200
47 0.00000000 1.00000000 0.00000000 0.00000000 0.00000000 -1.57079600
48 -4.48972800 26.54571200 -6.92574700 0.00000000 0.00000000 -3.14156200
49 -4.03239200 49.53530900 -0.13903300 0.30833800 0.08368200 -1.26502200
50 -4.34611700 -2.91451600 0.38708700 -2.62704400 0.61078600 -1.83318400
51 12.86816500 0.68670300 -3.22977800 0.43373700 1.03399400 1.73352400
52 5.75149200 0.00352400 0.08463000 0.00000000 0.00000000 0.00000000
53 -1.14123500 -1.15100600 -4.96482800 0.00000000 0.00000000 0.00000000
54 0.00000000 -3.08737400 1.87855200 2.96404600 0.00000000 0.00000000
55 0.21272100 -1.38514300 2.34137300 1.54305900 0.04193700 -0.00039900
56 0.00000200 0.68917300 -0.00000100 -0.14698600 -0.00476100 -0.07757300
57 0.00000000 0.72159500 0.00000000 0.18353100 -0.00843600 0.12266400
58 0.00000400 0.70041700 0.00000000 0.07838700 0.00342600 0.03382900
59 0.00000800 0.70401300 0.00000000 0.00284800 -0.00129700 0.00172500
60 0.00000000 0.72335700 0.00000000 -0.05730900 0.00585400 -0.02175900
61 0.00000800 0.70771600 0.00000000 -0.07775800 -0.00848400 -0.08911600
62 0.00000000 0.73422500 0.00000000 -0.76878500 0.03976400 0.05890600
63 0.00000200 0.69739300 0.00000000 -0.67318400 0.00972000 0.00739100
64 0.00000400 0.70033700 0.00000000 -0.11831100 -0.01160100 -0.03814400
65 0.00000000 0.70310500 0.00000000 -0.03850200 0.01155200 -0.01438300
66 3.31058900 1.54779400 1.66797500 0.00000000 0.00000000 0.00000000
67 -3.14822200 -0.05751300 3.29479100 0.00000000 0.00000000 0.00000000
68 0.83884000 -0.93570700 -0.98533800 0.00000000 0.00000000 0.00000000
time 11
0 -0.00000100 8.45008800 -27.50902600 0.00000000 0.00000000 0.00003100
1 -0.00000200 0.00000000 0.00000000 1.57074700 -1.56714200 -1.57074700
2 4.25546600 -0.33518300 -0.00000200 0.00000000 0.00000000 -0.12484800
3 7.43125000 1.49647900 0.00000200 0.00000000 0.00000000 0.24545000
4 5.27847900 0.16554400 0.00000100 0.00000000 0.00000000 0.04851100
5 3.03216500 -10.93601200 -0.66651200 1.97586500 1.15990900 -1.29878600
6 -6.21447800 -0.00000900 -0.00002600 3.03331800 -0.87592600 2.12842200
7 11.94488500 0.00000000 0.00000000 0.02412500 -0.31742300 2.01731700
8 10.62018800 0.00000000 0.00000000 1.64620300 0.57170200 2.70028600
9 -4.75110800 -0.69449800 0.83058000 -0.19617500 -0.07598900 0.33735800
10 -1.68806800 0.00004700 -0.00003100 0.01642800 -0.01846600 0.71331500
11 -1.33614000 0.00005500 -0.00001000 0.02584200 0.00517300 0.35617200
12 -4.82049400 -0.50946400 -0.22475900 -0.43210000 -0.06904400 1.18347900
13 -1.82698400 -0.00006900 0.00000800 0.00062300 0.04047200 1.28961100
14 -1.43656900 0.00000400 0.00000300 -0.06360300 -0.04470400 0.86686500
15 -3.99235700 -0.89119100 -1.82790900 -0.77162000 0.11408800 1.28870000
16 -1.40591800 -0.00002500 -0.00000200 0.00603500 -0.02888300 0.66990400
17 -1.17535800 0.00012600 -0.00001900 0.06674100 0.01248300 1.28927800
18 -4.52675100 -0.69058000 -1.12074100 -0.60925600 0.08426700 1.37684800
19 -1.74403800 0.00003200 -0.00000800 -0.02225500 -0.01944400 1.26365700
20 -1.36877100 0.00002300 0.00000200 0.04001900 0.03390800 0.76286100
21 -2.03839700 -0.89278900 0.93250800 1.84958100 0.50887600 0.72095600
22 -1.62789200 0.15474500 0.01182700 -0.09987500 0.17985400 0.56094000
23 -1.59928500 0.00001100 0.00001500 0.03412200 -0.02595000 0.63135700
24 5.51182000 0.00000800 -0.00000200 2.08601200 -0.06607600 3.11653600
25 0.19684600 -0.00000200 0.00000300 2.79340700 0.00000600 -3.14157700
26 -5.10843100 -19.49415200 -4.91667400 1.97586200 1.15991000 1.84280300
27 6.21448600 0.00000800 0.00001900 -0.27992500 0.01428200 -2.03006800
28 11.94488800 -0.00003100 -0.00020000 -0.44433200 -0.26621000 -0.84625900
29 10.62016500 0.00000200 0.00000600 -3.03778200 0.10842800 1.02412000
30 4.75115800 0.69437400 -0.83047400 -0.39999500 -0.50587900 1.10614300
31 1.68806500 -0.00002200 0.00000200 0.01051200 -0.02236200 0.99954000
32 1.33615100 -0.00005100 -0.00000900 -0.00339200 -0.03856600 0.45733500
33 4.82051500 0.50933800 0.22486600 -0.64350000 -0.23354800 1.61754800
34 1.82699200 0.00006600 0.00001000 -0.02693900 0.03024000 0.54682000
35 1.43658100 -0.00000600 0.00001000 0.00553800 -0.01408500 0.46469400
36 3.99235300 0.89108700 1.82799300 -0.75383000 -0.02936800 1.66174600
37 1.40592600 0.00003100 -0.00000300 0.00593600 -0.02885900 0.67109400
38 1.17536200 -0.00013200 0.00000100 0.02575500 0.12051600 0.16615700
39 4.52675800 0.69046400 1.12084300 -0.73571000 -0.12113100 1.69537000
40 1.74404100 -0.00003100 -0.00000200 -0.01099700 -0.02749700 0.79003300
41 1.36876700 -0.00003100 -0.00001800 0.03377900 0.15507400 0.03016400
42 1.87485700 0.93508100 -0.99912900 2.00785100 0.84305200 1.11121000
43 1.52345300 -0.00003200 -0.00000200 -0.03674500 0.12788100 0.22185000
44 1.59928100 -0.00000400 0.00001000 0.08257300 0.01253600 0.67607500
45 5.51180600 -0.00000200 0.00000300 -1.09321900 0.08900100 0.07878500
46 0.19684900 0.00000300 -0.00000100 -0.34822500 0.00001500 -0.00000200
47 0.00000000 1.00000000 0.00000000 0.00000000 0.00000000 -1.57079600
48 -4.48972800 26.54571200 -6.92574700 0.00000000 0.00000000 -3.14156200
49 -4.15129500 49.07746100 0.45794000 0.22346300 0.06220600 -1.37647600
50 -4.34611700 -2.91451600 0.38708700 -2.62704400 0.61078600 -1.83318400
51 12.86816500 0.68670300 -3.22977800 0.43373700 1.03399400 1.73352400
52 5.75149200 0.00352400 0.08463000 0.00000000 0.00000000 0.00000000
53 -1.14123500 -1.15100600 -4.96482800 0.00000000 0.00000000 0.00000000
54 0.00000000 -3.08737400 1.87855200 2.96404600 0.00000000 0.00000000
55 0.21272100 -1.38514300 2.34137300 1.54305900 0.04193700 -0.00039900
56 0.00000200 0.68917300 -0.00000100 -0.14698600 -0.00476100 -0.07757300
57 0.00000000 0.72159500 0.00000000 0.18353100 -0.00843600 0.12266400
58 0.00000400 0.70041700 0.00000000 0.07838700 0.00342600 0.03382900
59 0.00000800 0.70401300 0.00000000 0.00284800 -0.00129700 0.00172500
60 0.00000000 0.72335700 0.00000000 -0.05730900 0.00585400 -0.02175900
61 0.00000800 0.70771600 0.00000000 -0.07775800 -0.00848400 -0.08911600
62 0.00000000 0.73422500 0.00000000 -0.76878500 0.03976400 0.05890600
63 0.00000200 0.69739300 0.00000000 -0.67318400 0.00972000 0.00739100
64 0.00000400 0.70033700 0.00000000 -0.11831100 -0.01160100 -0.03814400
65 0.00000000 0.70310500 0.00000000 -0.03850200 0.01155200 -0.01438300
66 3.31058900 1.54779400 1.66797500 0.00000000 0.00000000 0.00000000
67 -3.14822200 -0.05751300 3.29479100 0.00000000 0.00000000 0.00000000
68 0.83884000 -0.93570700 -0.98533800 0.00000000 0.00000000 0.00000000
time 12
0 -0.00000100 8.45008800 -27.50902600 0.00000000 0.00000000 0.00003100
1 -0.00000200 0.00000000 0.00000000 1.57074700 -1.56714200 -1.57074700
2 4.25546600 -0.33518300 -0.00000200 0.00000000 0.00000000 -0.12484800
3 7.43125000 1.49647900 0.00000200 0.00000000 0.00000000 0.24545000
4 5.27847900 0.16554400 0.00000100 0.00000000 0.00000000 0.04851100
5 3.03216500 -10.93601200 -0.66651200 1.97586500 1.15990900 -1.29878600
6 -6.21447800 -0.00000900 -0.00002600 3.04327800 -0.87742300 2.00155600
7 11.94488500 0.00000000 0.00000000 -0.00461800 -0.30272500 2.11134900
8 10.62018800 0.00000000 0.00000000 1.54952400 0.77486200 2.45425600
9 -4.75110800 -0.69449800 0.83058000 -0.19617500 -0.07598900 0.33735800
10 -1.68806800 0.00004700 -0.00003100 0.01642800 -0.01846600 0.71331500
11 -1.33614000 0.00005500 -0.00001000 0.02584200 0.00517300 0.35617200
12 -4.82049400 -0.50946400 -0.22475900 -0.43210000 -0.06904400 1.18347900
13 -1.82698400 -0.00006900 0.00000800 0.00062300 0.04047200 1.28961100
14 -1.43656900 0.00000400 0.00000300 -0.06360300 -0.04470400 0.86686500
15 -3.99235700 -0.89119100 -1.82790900 -0.77162000 0.11408800 1.28870000
16 -1.40591800 -0.00002500 -0.00000200 0.00603500 -0.02888300 0.66990400
17 -1.17535800 0.00012600 -0.00001900 0.06674100 0.01248300 1.28927800
18 -4.52675100 -0.69058000 -1.12074100 -0.60925600 0.08426700 1.37684800
19 -1.74403800 0.00003200 -0.00000800 -0.02225500 -0.01944400 1.26365700
20 -1.36877100 0.00002300 0.00000200 0.04001900 0.03390800 0.76286100
21 -2.03839700 -0.89278900 0.93250800 1.84958100 0.50887600 0.72095600
22 -1.62789200 0.15474500 0.01182700 -0.09987500 0.17985400 0.56094000
23 -1.59928500 0.00001100 0.00001500 0.03412200 -0.02595000 0.63135700
24 5.51182000 0.00000800 -0.00000200 2.08601200 -0.06607600 3.11653600
25 0.19684600 -0.00000200 0.00000300 2.79340700 0.00000600 -3.14157700
26 -5.21007700 -20.10289000 -5.37441800 1.97586200 1.15991000 1.84280300
27 6.21448600 0.00000800 0.00001900 -0.20748600 -0.04569100 -2.04663700
28 11.94488800 -0.00003100 -0.00020000 -0.53189400 -0.27421400 -0.88265700
29 10.62016500 0.00000200 0.00000600 -2.98333500 0.14593900 1.09667500
30 4.75115800 0.69437400 -0.83047400 -0.39999500 -0.50587900 1.10614300
31 1.68806500 -0.00002200 0.00000200 0.01051200 -0.02236200 0.99954000
32 1.33615100 -0.00005100 -0.00000900 -0.00339200 -0.03856600 0.45733500
33 4.82051500 0.50933800 0.22486600 -0.64350000 -0.23354800 1.61754800
34 1.82699200 0.00006600 0.00001000 -0.02693900 0.03024000 0.54682000
35 1.43658100 -0.00000600 0.00001000 0.00553800 -0.01408500 0.46469400
36 3.99235300 0.89108700 1.82799300 -0.75383000 -0.02936800 1.66174600
37 1.40592600 0.00003100 -0.00000300 0.00593600 -0.02885900 0.67109400
38 1.17536200 -0.00013200 0.00000100 0.02575500 0.12051600 0.16615700
39 4.52675800 0.69046400 1.12084300 -0.73571000 -0.12113100 1.69537000
40 1.74404100 -0.00003100 -0.00000200 -0.01099700 -0.02749700 0.79003300
41 1.36876700 -0.00003100 -0.00001800 0.03377900 0.15507400 0.03016400
42 1.87485700 0.93508100 -0.99912900 2.00785100 0.84305200 1.11121000
43 1.52345300 -0.00003200 -0.00000200 -0.03674500 0.12788100 0.22185000
44 1.59928100 -0.00000400 0.00001000 0.08257300 0.01253600 0.67607500
45 5.51180600 -0.00000200 0.00000300 -1.09321900 0.08900100 0.07878500
46 0.19684900 0.00000300 -0.00000100 -0.34822500 0.00001500 -0.00000200
47 0.00000000 1.00000000 0.00000000 0.00000000 0.00000000 -1.57079600
48 -4.48972800 26.54571200 -6.92574700 0.00000000 0.00000000 -3.14156200
49 -4.28084700 48.57860600 1.10837400 0.13800700 0.03994500 -1.46256400
50 -4.34611700 -2.91451600 0.38708700 -2.62704400 0.61078600 -1.83318400
51 12.86816500 0.68670300 -3.22977800 0.43373700 1.03399400 1.73352400
52 5.75149200 0.00352400 0.08463000 0.00000000 0.00000000 0.00000000
53 -1.14123500 -1.15100600 -4.96482800 0.00000000 0.00000000 0.00000000
54 0.00000000 -3.08737400 1.87855200 2.96404600 0.00000000 0.00000000
55 0.21272100 -1.38514300 2.34137300 1.54305900 0.04193700 -0.00039900
56 0.00000200 0.68917300 -0.00000100 -0.14698600 -0.00476100 -0.07757300
57 0.00000000 0.72159500 0.00000000 0.18353100 -0.00843600 0.12266400
58 0.00000400 0.70041700 0.00000000 0.07838700 0.00342600 0.03382900
59 0.00000800 0.70401300 0.00000000 0.00284800 -0.00129700 0.00172500
60 0.00000000 0.72335700 0.00000000 -0.05730900 0.00585400 -0.02175900
61 0.00000800 0.70771600 0.00000000 -0.07775800 -0.00848400 -0.08911600
62 0.00000000 0.73422500 0.00000000 -0.76878500 0.03976400 0.05890600
63 0.00000200 0.69739300 0.00000000 -0.67318400 0.00972000 0.00739100
64 0.00000400 0.70033700 0.00000000 -0.11831100 -0.01160100 -0.03814400
65 0.00000000 0.70310500 0.00000000 -0.03850200 0.01155200 -0.01438300
66 3.31058900 1.54779400 1.66797500 0.00000000 0.00000000 0.00000000
67 -3.14822200 -0.05751300 3.29479100 0.00000000 0.00000000 0.00000000
68 0.83884000 -0.93570700 -0.98533800 0.00000000 0.00000000 0.00000000
time 13
0 -0.00000100 8.45008800 -27.50902600 0.00000000 0.00000000 0.00003100
1 -0.00000200 0.00000000 0.00000000 1.57074700 -1.56714200 -1.57074700
2 4.25546600 -0.33518300 -0.00000200 0.00000000 0.00000000 -0.12484800
3 7.43125000 1.49647900 0.00000200 0.00000000 0.00000000 0.24545000
4 5.27847900 0.16554400 0.00000100 0.00000000 0.00000000 0.04851100
5 3.03216500 -10.93601200 -0.66651200 1.97586500 1.15990900 -1.29878600
6 -6.21447800 -0.00000900 -0.00002600 3.07576500 -0.85411400 1.86275000
7 11.94488500 0.00000000 0.00000000 -0.02018600 -0.29324600 2.16436900
8 10.62018800 0.00000000 0.00000000 1.38147300 0.92302900 2.18492000
9 -4.75110800 -0.69449800 0.83058000 -0.19617500 -0.07598900 0.33735800
10 -1.68806800 0.00004700 -0.00003100 0.01642800 -0.01846600 0.71331500
11 -1.33614000 0.00005500 -0.00001000 0.02584200 0.00517300 0.35617200
12 -4.82049400 -0.50946400 -0.22475900 -0.43210000 -0.06904400 1.18347900
13 -1.82698400 -0.00006900 0.00000800 0.00062300 0.04047200 1.28961100
14 -1.43656900 0.00000400 0.00000300 -0.06360300 -0.04470400 0.86686500
15 -3.99235700 -0.89119100 -1.82790900 -0.77162000 0.11408800 1.28870000
16 -1.40591800 -0.00002500 -0.00000200 0.00603500 -0.02888300 0.66990400
17 -1.17535800 0.00012600 -0.00001900 0.06674100 0.01248300 1.28927800
18 -4.52675100 -0.69058000 -1.12074100 -0.60925600 0.08426700 1.37684800
19 -1.74403800 0.00003200 -0.00000800 -0.02225500 -0.01944400 1.26365700
20 -1.36877100 0.00002300 0.00000200 0.04001900 0.03390800 0.76286100
21 -2.03839700 -0.89278900 0.93250800 1.84958100 0.50887600 0.72095600
22 -1.62789200 0.15474500 0.01182700 -0.09987500 0.17985400 0.56094000
23 -1.59928500 0.00001100 0.00001500 0.03412200 -0.02595000 0.63135700
24 5.51182000 0.00000800 -0.00000200 2.08601200 -0.06607600 3.11653600
25 0.19684600 -0.00000200 0.00000300 2.79340700 0.00000600 -3.14157700
26 -5.29378800 -20.60420200 -5.75138200 1.97586200 1.15991000 1.84280300
27 6.21448600 0.00000800 0.00001900 -0.15216000 -0.10239500 -2.06413200
28 11.94488800 -0.00003100 -0.00020000 -0.60211800 -0.28010400 -0.91023100
29 10.62016500 0.00000200 0.00000600 -2.93717000 0.17280200 1.16408100
30 4.75115800 0.69437400 -0.83047400 -0.39999500 -0.50587900 1.10614300
31 1.68806500 -0.00002200 0.00000200 0.01051200 -0.02236200 0.99954000
32 1.33615100 -0.00005100 -0.00000900 -0.00339200 -0.03856600 0.45733500
33 4.82051500 0.50933800 0.22486600 -0.64350000 -0.23354800 1.61754800
34 1.82699200 0.00006600 0.00001000 -0.02693900 0.03024000 0.54682000
35 1.43658100 -0.00000600 0.00001000 0.00553800 -0.01408500 0.46469400
36 3.99235300 0.89108700 1.82799300 -0.75383000 -0.02936800 1.66174600
37 1.40592600 0.00003100 -0.00000300 0.00593600 -0.02885900 0.67109400
38 1.17536200 -0.00013200 0.00000100 0.02575500 0.12051600 0.16615700
39 4.52675800 0.69046400 1.12084300 -0.73571000 -0.12113100 1.69537000
40 1.74404100 -0.00003100 -0.00000200 -0.01099700 -0.02749700 0.79003300
41 1.36876700 -0.00003100 -0.00001800 0.03377900 0.15507400 0.03016400
42 1.87485700 0.93508100 -0.99912900 2.00785100 0.84305200 1.11121000
43 1.52345300 -0.00003200 -0.00000200 -0.03674500 0.12788100 0.22185000
44 1.59928100 -0.00000400 0.00001000 0.08257300 0.01253600 0.67607500
45 5.51180600 -0.00000200 0.00000300 -1.09321900 0.08900100 0.07878500
46 0.19684900 0.00000300 -0.00000100 -0.34822500 0.00001500 -0.00000200
47 0.00000000 1.00000000 0.00000000 0.00000000 0.00000000 -1.57079600
48 -4.48972800 26.54571200 -6.92574700 0.00000000 0.00000000 -3.14156200
49 -4.39974900 48.12075800 1.70534600 0.06349800 0.01974300 -1.52305700
50 -4.34611700 -2.91451600 0.38708700 -2.62704400 0.61078600 -1.83318400
51 12.86816500 0.68670300 -3.22977800 0.43373700 1.03399400 1.73352400
52 5.75149200 0.00352400 0.08463000 0.00000000 0.00000000 0.00000000
53 -1.14123500 -1.15100600 -4.96482800 0.00000000 0.00000000 0.00000000
54 0.00000000 -3.08737400 1.87855200 2.96404600 0.00000000 0.00000000
55 0.21272100 -1.38514300 2.34137300 1.54305900 0.04193700 -0.00039900
56 0.00000200 0.68917300 -0.00000100 -0.14698600 -0.00476100 -0.07757300
57 0.00000000 0.72159500 0.00000000 0.18353100 -0.00843600 0.12266400
58 0.00000400 0.70041700 0.00000000 0.07838700 0.00342600 0.03382900
59 0.00000800 0.70401300 0.00000000 0.00284800 -0.00129700 0.00172500
60 0.00000000 0.72335700 0.00000000 -0.05730900 0.00585400 -0.02175900
61 0.00000800 0.70771600 0.00000000 -0.07775800 -0.00848400 -0.08911600
62 0.00000000 0.73422500 0.00000000 -0.76878500 0.03976400 0.05890600
63 0.00000200 0.69739300 0.00000000 -0.67318400 0.00972000 0.00739100
64 0.00000400 0.70033700 0.00000000 -0.11831100 -0.01160100 -0.03814400
65 0.00000000 0.70310500 0.00000000 -0.03850200 0.01155200 -0.01438300
66 3.31058900 1.54779400 1.66797500 0.00000000 0.00000000 0.00000000
67 -3.14822200 -0.05751300 3.29479100 0.00000000 0.00000000 0.00000000
68 0.83884000 -0.93570700 -0.98533800 0.00000000 0.00000000 0.00000000
time 14
0 -0.00000100 8.45008800 -27.50902600 0.00000000 0.00000000 0.00003100
1 -0.00000200 0.00000000 0.00000000 1.57074700 -1.56714200 -1.57074700
2 4.25546600 -0.33518300 -0.00000200 0.00000000 0.00000000 -0.12484800
3 7.43125000 1.49647900 0.00000200 0.00000000 0.00000000 0.24545000
4 5.27847900 0.16554400 0.00000100 0.00000000 0.00000000 0.04851100
5 3.03216500 -10.93601200 -0.66651200 1.97586500 1.15990900 -1.29878600
6 -6.21447800 -0.00000900 -0.00002600 3.10288100 -0.82104100 1.75968300
7 11.94488500 0.00000000 0.00000000 -0.02716000 -0.28854500 2.18882200
8 10.62018800 0.00000000 0.00000000 1.19675600 0.99952300 1.94248500
9 -4.75110800 -0.69449800 0.83058000 -0.19617500 -0.07598900 0.33735800
10 -1.68806800 0.00004700 -0.00003100 0.01642800 -0.01846600 0.71331500
11 -1.33614000 0.00005500 -0.00001000 0.02584200 0.00517300 0.35617200
12 -4.82049400 -0.50946400 -0.22475900 -0.43210000 -0.06904400 1.18347900
13 -1.82698400 -0.00006900 0.00000800 0.00062300 0.04047200 1.28961100
14 -1.43656900 0.00000400 0.00000300 -0.06360300 -0.04470400 0.86686500
15 -3.99235700 -0.89119100 -1.82790900 -0.77162000 0.11408800 1.28870000
16 -1.40591800 -0.00002500 -0.00000200 0.00603500 -0.02888300 0.66990400
17 -1.17535800 0.00012600 -0.00001900 0.06674100 0.01248300 1.28927800
18 -4.52675100 -0.69058000 -1.12074100 -0.60925600 0.08426700 1.37684800
19 -1.74403800 0.00003200 -0.00000800 -0.02225500 -0.01944400 1.26365700
20 -1.36877100 0.00002300 0.00000200 0.04001900 0.03390800 0.76286100
21 -2.03839700 -0.89278900 0.93250800 1.84958100 0.50887600 0.72095600
22 -1.62789200 0.15474500 0.01182700 -0.09987500 0.17985400 0.56094000
23 -1.59928500 0.00001100 0.00001500 0.03412200 -0.02595000 0.63135700
24 5.51182000 0.00000800 -0.00000200 2.08601200 -0.06607600 3.11653600
25 0.19684600 -0.00000200 0.00000300 2.79340700 0.00000600 -3.14157700
26 -5.35058900 -20.94438600 -6.00718000 1.97586200 1.15991000 1.84280300
27 6.21448600 0.00000800 0.00001900 -0.11674800 -0.14485200 -2.07870500
28 11.94488800 -0.00003100 -0.00020000 -0.64948100 -0.28329000 -0.92597300
29 10.62016500 0.00000200 0.00000600 -2.90454200 0.18973900 1.21281000
30 4.75115800 0.69437400 -0.83047400 -0.39999500 -0.50587900 1.10614300
31 1.68806500 -0.00002200 0.00000200 0.01051200 -0.02236200 0.99954000
32 1.33615100 -0.00005100 -0.00000900 -0.00339200 -0.03856600 0.45733500
33 4.82051500 0.50933800 0.22486600 -0.64350000 -0.23354800 1.61754800
34 1.82699200 0.00006600 0.00001000 -0.02693900 0.03024000 0.54682000
35 1.43658100 -0.00000600 0.00001000 0.00553800 -0.01408500 0.46469400
36 3.99235300 0.89108700 1.82799300 -0.75383000 -0.02936800 1.66174600
37 1.40592600 0.00003100 -0.00000300 0.00593600 -0.02885900 0.67109400
38 1.17536200 -0.00013200 0.00000100 0.02575500 0.12051600 0.16615700
39 4.52675800 0.69046400 1.12084300 -0.73571000 -0.12113100 1.69537000
40 1.74404100 -0.00003100 -0.00000200 -0.01099700 -0.02749700 0.79003300
41 1.36876700 -0.00003100 -0.00001800 0.03377900 0.15507400 0.03016400
42 1.87485700 0.93508100 -0.99912900 2.00785100 0.84305200 1.11121000
43 1.52345300 -0.00003200 -0.00000200 -0.03674500 0.12788100 0.22185000
44 1.59928100 -0.00000400 0.00001000 0.08257300 0.01253600 0.67607500
45 5.51180600 -0.00000200 0.00000300 -1.09321900 0.08900100 0.07878500
46 0.19684900 0.00000300 -0.00000100 -0.34822500 0.00001500 -0.00000200
47 0.00000000 1.00000000 0.00000000 0.00000000 0.00000000 -1.57079600
48 -4.48972800 26.54571200 -6.92574700 0.00000000 0.00000000 -3.14156200
49 -4.48670800 47.78591200 2.14193800 0.01089700 0.00530700 -1.55884500
50 -4.34611700 -2.91451600 0.38708700 -2.62704400 0.61078600 -1.83318400
51 12.86816500 0.68670300 -3.22977800 0.43373700 1.03399400 1.73352400
52 5.75149200 0.00352400 0.08463000 0.00000000 0.00000000 0.00000000
53 -1.14123500 -1.15100600 -4.96482800 0.00000000 0.00000000 0.00000000
54 0.00000000 -3.08737400 1.87855200 2.96404600 0.00000000 0.00000000
55 0.21272100 -1.38514300 2.34137300 1.54305900 0.04193700 -0.00039900
56 0.00000200 0.68917300 -0.00000100 -0.14698600 -0.00476100 -0.07757300
57 0.00000000 0.72159500 0.00000000 0.18353100 -0.00843600 0.12266400
58 0.00000400 0.70041700 0.00000000 0.07838700 0.00342600 0.03382900
59 0.00000800 0.70401300 0.00000000 0.00284800 -0.00129700 0.00172500
60 0.00000000 0.72335700 0.00000000 -0.05730900 0.00585400 -0.02175900
61 0.00000800 0.70771600 0.00000000 -0.07775800 -0.00848400 -0.08911600
62 0.00000000 0.73422500 0.00000000 -0.76878500 0.03976400 0.05890600
63 0.00000200 0.69739300 0.00000000 -0.67318400 0.00972000 0.00739100
64 0.00000400 0.70033700 0.00000000 -0.11831100 -0.01160100 -0.03814400
65 0.00000000 0.70310500 0.00000000 -0.03850200 0.01155200 -0.01438300
66 3.31058900 1.54779400 1.66797500 0.00000000 0.00000000 0.00000000
67 -3.14822200 -0.05751300 3.29479100 0.00000000 0.00000000 0.00000000
68 0.83884000 -0.93570700 -0.98533800 0.00000000 0.00000000 0.00000000
time 15
0 -0.00000100 8.45008800 -27.50902600 0.00000000 0.00000000 0.00003100
1 -0.00000200 0.00000000 0.00000000 1.57074700 -1.56714200 -1.57074700
2 4.25546600 -0.33518300 -0.00000200 0.00000000 0.00000000 -0.12484800
3 7.43125000 1.49647900 0.00000200 0.00000000 0.00000000 0.24545000
4 5.27847900 0.16554400 0.00000100 0.00000000 0.00000000 0.04851100
5 3.03216500 -10.93601200 -0.66651200 1.97586500 1.15990900 -1.29878600
6 -6.21447800 -0.00000900 -0.00002600 3.11171300 -0.80390400 1.72186600
7 11.94488500 0.00000000 0.00000000 -0.02912700 -0.28717300 2.19585200
8 10.62018800 0.00000000 0.00000000 1.11031500 1.01923400 1.83778000
9 -4.75110800 -0.69449800 0.83058000 -0.19617500 -0.07598900 0.33735800
10 -1.68806800 0.00004700 -0.00003100 0.01642800 -0.01846600 0.71331500
11 -1.33614000 0.00005500 -0.00001000 0.02584200 0.00517300 0.35617200
12 -4.82049400 -0.50946400 -0.22475900 -0.43210000 -0.06904400 1.18347900
13 -1.82698400 -0.00006900 0.00000800 0.00062300 0.04047200 1.28961100
14 -1.43656900 0.00000400 0.00000300 -0.06360300 -0.04470400 0.86686500
15 -3.99235700 -0.89119100 -1.82790900 -0.77162000 0.11408800 1.28870000
16 -1.40591800 -0.00002500 -0.00000200 0.00603500 -0.02888300 0.66990400
17 -1.17535800 0.00012600 -0.00001900 0.06674100 0.01248300 1.28927800
18 -4.52675100 -0.69058000 -1.12074100 -0.60925600 0.08426700 1.37684800
19 -1.74403800 0.00003200 -0.00000800 -0.02225500 -0.01944400 1.26365700
20 -1.36877100 0.00002300 0.00000200 0.04001900 0.03390800 0.76286100
21 -2.03839700 -0.89278900 0.93250800 1.84958100 0.50887600 0.72095600
22 -1.62789200 0.15474500 0.01182700 -0.09987500 0.17985400 0.56094000
23 -1.59928500 0.00001100 0.00001500 0.03412200 -0.02595000 0.63135700
24 5.51182000 0.00000800 -0.00000200 2.08601200 -0.06607600 3.11653600
25 0.19684600 -0.00000200 0.00000300 2.79340700 0.00000600 -3.14157700
26 -5.37151700 -21.06971400 -6.10141900 1.97586200 1.15991000 1.84280300
27 6.21448600 0.00000800 0.00001900 -0.10423700 -0.16147800 -2.08462000
28 11.94488800 -0.00003100 -0.00020000 -0.66677700 -0.28434900 -0.93103800
29 10.62016500 0.00000200 0.00000600 -2.89181500 0.19556300 1.23176200
30 4.75115800 0.69437400 -0.83047400 -0.39999500 -0.50587900 1.10614300
31 1.68806500 -0.00002200 0.00000200 0.01051200 -0.02236200 0.99954000
32 1.33615100 -0.00005100 -0.00000900 -0.00339200 -0.03856600 0.45733500
33 4.82051500 0.50933800 0.22486600 -0.64350000 -0.23354800 1.61754800
34 1.82699200 0.00006600 0.00001000 -0.02693900 0.03024000 0.54682000
35 1.43658100 -0.00000600 0.00001000 0.00553800 -0.01408500 0.46469400
36 3.99235300 0.89108700 1.82799300 -0.75383000 -0.02936800 1.66174600
37 1.40592600 0.00003100 -0.00000300 0.00593600 -0.02885900 0.67109400
38 1.17536200 -0.00013200 0.00000100 0.02575500 0.12051600 0.16615700
39 4.52675800 0.69046400 1.12084300 -0.73571000 -0.12113100 1.69537000
40 1.74404100 -0.00003100 -0.00000200 -0.01099700 -0.02749700 0.79003300
41 1.36876700 -0.00003100 -0.00001800 0.03377900 0.15507400 0.03016400
42 1.87485700 0.93508100 -0.99912900 2.00785100 0.84305200 1.11121000
43 1.52345300 -0.00003200 -0.00000200 -0.03674500 0.12788100 0.22185000
44 1.59928100 -0.00000400 0.00001000 0.08257300 0.01253600 0.67607500
45 5.51180600 -0.00000200 0.00000300 -1.09321900 0.08900100 0.07878500
46 0.19684900 0.00000300 -0.00000100 -0.34822500 0.00001500 -0.00000200
47 0.00000000 1.00000000 0.00000000 0.00000000 0.00000000 -1.57079600
48 -4.48972800 26.54571200 -6.92574700 0.00000000 0.00000000 -3.14156200
49 -4.52042700 47.65607500 2.31122800 -0.00915600 0.00000000 -1.57078700
50 -4.34611700 -2.91451600 0.38708700 -2.62704400 0.61078600 -1.83318400
51 12.86816500 0.68670300 -3.22977800 0.43373700 1.03399400 1.73352400
52 5.75149200 0.00352400 0.08463000 0.00000000 0.00000000 0.00000000
53 -1.14123500 -1.15100600 -4.96482800 0.00000000 0.00000000 0.00000000
54 0.00000000 -3.08737400 1.87855200 2.96404600 0.00000000 0.00000000
55 0.21272100 -1.38514300 2.34137300 1.54305900 0.04193700 -0.00039900
56 0.00000200 0.68917300 -0.00000100 -0.14698600 -0.00476100 -0.07757300
57 0.00000000 0.72159500 0.00000000 0.18353100 -0.00843600 0.12266400
58 0.00000400 0.70041700 0.00000000 0.07838700 0.00342600 0.03382900
59 0.00000800 0.70401300 0.00000000 0.00284800 -0.00129700 0.00172500
60 0.00000000 0.72335700 0.00000000 -0.05730900 0.00585400 -0.02175900
61 0.00000800 0.70771600 0.00000000 -0.07775800 -0.00848400 -0.08911600
62 0.00000000 0.73422500 0.00000000 -0.76878500 0.03976400 0.05890600
63 0.00000200 0.69739300 0.00000000 -0.67318400 0.00972000 0.00739100
64 0.00000400 0.70033700 0.00000000 -0.11831100 -0.01160100 -0.03814400
65 0.00000000 0.70310500 0.00000000 -0.03850200 0.01155200 -0.01438300
66 3.31058900 1.54779400 1.66797500 0.00000000 0.00000000 0.00000000
67 -3.14822200 -0.05751300 3.29479100 0.00000000 0.00000000 0.00000000
68 0.83884000 -0.93570700 -0.98533800 0.00000000 0.00000000 0.00000000
end
