version 1
nodes
0 "root" -1
1 "pelvis" 0
2 "spine_01" 1
3 "spine_02" 2
4 "spine_03" 3
5 "clavicle_r" 4
6 "upperarm_r" 5
7 "lowerarm_r" 6
8 "hand_r" 7
9 "index_01_r" 8
10 "index_02_r" 9
11 "index_03_r" 10
12 "middle_01_r" 8
13 "middle_02_r" 12
14 "middle_03_r" 13
15 "pinky_01_r" 8
16 "pinky_02_r" 15
17 "pinky_03_r" 16
18 "ring_01_r" 8
19 "ring_02_r" 18
20 "ring_03_r" 19
21 "thumb_01_r" 8
22 "thumb_02_r" 21
23 "thumb_03_r" 22
24 "lowerarm_twist_01_r" 7
25 "upperarm_twist_01_r" 6
26 "clavicle_l" 4
27 "upperarm_l" 26
28 "lowerarm_l" 27
29 "hand_l" 28
30 "index_01_l" 29
31 "index_02_l" 30
32 "index_03_l" 31
33 "middle_01_l" 29
34 "middle_02_l" 33
35 "middle_03_l" 34
36 "pinky_01_l" 29
37 "pinky_02_l" 36
38 "pinky_03_l" 37
39 "ring_01_l" 29
40 "ring_02_l" 39
41 "ring_03_l" 40
42 "thumb_01_l" 29
43 "thumb_02_l" 42
44 "thumb_03_l" 43
45 "lowerarm_twist_01_l" 28
46 "upperarm_twist_01_l" 27
47 "cam_driver" -1
48 "BaseRoot" -1
49 "Base" 48
50 "rhand_ikTarget" 49
51 "Trigger" 49
52 "Mag" 49
53 "Bullet" 52
54 "Bolt" 49
55 "MagRelease" 49
56 "TrueBolt" 49
57 "Object001" -1
58 "Bipod1" 49
59 "Bipod2" 49
60 "lhand_ikTarget" 49
end
skeleton
time 0
0 -0.00000100 8.45008800 -27.50902600 0.00000000 0.00000000 0.00003100
1 -0.00000200 0.00000000 0.00000000 1.57074700 -1.56714200 -1.57074700
2 4.25546500 -0.33518600 -0.00000200 0.00000000 0.00000000 -0.12484800
3 7.43125200 1.49648100 0.00000200 0.00000000 0.00000000 0.24545000
4 5.27847900 0.16554500 0.00000100 0.00000000 0.00000000 0.04851100
5 -1.58640100 -12.72076000 13.48778600 1.97586600 1.15990900 -1.29878500
6 -6.21447700 -0.00001100 -0.00002900 2.98732443 -0.16313234 1.05395006
7 11.94488700 0.00000000 0.00000000 -0.30517421 -0.31272178 1.40528705
8 10.62019100 0.00000000 0.00000000 0.23072674 -0.05736663 2.92376648
9 -4.75110800 -0.69449600 0.83058400 0.25822100 -0.42679800 -0.01814500
10 -1.68808000 0.00004500 -0.00003100 0.02077300 -0.01344700 0.44370400
11 -1.33614000 0.00005700 -0.00001000 0.02262200 0.01357900 0.01310400
12 -4.82049000 -0.50946000 -0.22475800 -0.51794700 -0.20395100 1.27501100
13 -1.82698100 -0.00007200 0.00001000 -0.00564800 0.04001900 1.13316200
14 -1.43657300 0.00001000 0.00000400 -0.03832500 -0.06763600 0.42386300
15 -3.99235200 -0.89119000 -1.82790600 -0.63154300 0.23003500 1.59020800
16 -1.40592600 -0.00002900 -0.00000100 0.01041600 -0.02756200 0.51517700
17 -1.17535800 0.00012400 -0.00002200 0.02756300 0.06210400 0.32121000
18 -4.52674700 -0.69057800 -1.12074200 -0.53814300 0.05119000 1.51083300
19 -1.74403400 0.00003400 -0.00000500 -0.10441400 0.03513400 0.99703200
20 -1.36877400 0.00002300 0.00000400 0.00993500 0.05150500 0.08698400
21 -2.03839600 -0.89278700 0.93250300 1.87406100 0.59212900 0.93407900
22 -1.70606700 0.14882300 0.13171700 -0.00219900 0.10978600 0.45261700
23 -1.59927600 0.00001100 0.00001000 0.02756800 -0.03282500 0.85320200
24 5.51182300 0.00001100 -0.00000300 2.10196300 0.00000000 -3.14159231
25 0.19684700 -0.00000100 0.00000300 2.79340693 -0.00049817 -3.14147732
26 -2.40499600 -16.72850600 -3.12523400 1.97586200 1.15991000 1.84280300
27 6.21448900 0.00001000 0.00002100 -0.96701365 0.59989747 -1.58395318
28 11.94488500 -0.00003700 -0.00019900 -0.44644051 -0.32347440 -2.05900147
29 10.62017900 -0.00000400 0.00001000 -2.45470165 -0.86030042 0.74755626
30 4.75117700 0.69437400 -0.83047800 -0.00218500 -0.27934700 0.09492700
31 1.68806800 -0.00001600 0.00000000 0.00755100 -0.02358000 1.12872900
32 1.33615100 -0.00005100 -0.00001000 -0.02572300 -0.02900100 1.09740300
33 4.82052000 0.50934200 0.22486500 -0.20771000 -0.26184600 0.41698400
34 1.82699200 0.00006700 0.00001000 0.02485800 0.03193200 1.93402400
35 1.43658100 -0.00000600 0.00001000 0.01515000 0.00045200 -0.75718600
36 3.99235900 0.89108700 1.82799600 -0.45840900 0.11077300 1.10533100
37 1.40592600 0.00003300 -0.00000300 -0.01231800 -0.02677000 1.30554600
38 1.17535400 -0.00013000 0.00000200 -0.09551900 0.07798600 -0.93359900
39 4.52677200 0.69046600 1.12084100 -0.37138300 -0.06910400 0.81424300
40 1.74403400 -0.00002200 -0.00000100 -0.02939300 -0.00337500 1.86812600
41 1.36875900 -0.00003200 -0.00002200 -0.12957300 0.09181900 -1.14340300
42 1.80926600 0.89529100 -1.12011200 1.88461400 0.36803000 0.40774200
43 1.49513600 -0.24140400 0.04487600 0.00360000 -0.23414300 0.03443400
44 1.57424700 -0.10445100 0.03324300 0.03981700 0.07342300 -0.24671300
45 5.51181100 -0.00001100 0.00000900 -0.95227000 0.00000000 0.00000000
46 0.19684800 0.00001000 -0.00000100 -0.34822500 0.00001500 -0.00000200
47 0.00000000 1.00000000 0.00000000 0.00000000 0.00000000 -1.57079600
48 -2.88370600 60.35387800 -4.45282200 0.00000000 0.00000000 -3.14156200
49 -7.68523791 75.05594098 -0.77411682 0.42848620 0.26612422 -0.37434991
50 12.20148900 2.53350700 -1.62972800 0.03858800 1.27717300 1.83666800
51 4.53929200 0.00125700 -1.22600900 0.00000000 0.00000000 0.00000000
52 -1.39520600 -0.00627800 -1.83046200 0.00000000 0.00000000 0.00000000
53 0.35743300 0.00066700 1.95120800 0.00000000 0.00000000 0.00000000
54 2.07324200 -1.19960400 0.38264400 0.00000000 0.00000000 0.00000000
55 3.48523300 -0.00628100 -2.12263900 0.00000000 0.00000000 0.00000000
56 2.90164200 0.00125700 1.45321600 0.00000000 0.00000000 0.00000000
57 0.00000000 0.00000000 0.00000000 0.00000000 0.00000000 -1.57079600
58 -31.74032600 -1.30138900 -0.17479500 -0.44920900 0.00000000 0.00000000
59 -31.74769600 1.26414300 -0.16570300 0.44106700 0.00000000 0.00000000
60 -5.81618500 -2.35348000 -2.95539300 3.05410900 1.21994400 -2.42261400
time 1
0 -0.00000100 8.45008800 -27.50902600 0.00000000 0.00000000 0.00003100
1 -0.00000200 0.00000000 0.00000000 1.57074700 -1.56714200 -1.57074700
2 4.25546500 -0.33518600 -0.00000200 0.00000000 0.00000000 -0.12484800
3 7.43125200 1.49648100 0.00000200 0.00000000 0.00000000 0.24545000
4 5.27847900 0.16554500 0.00000100 0.00000000 0.00000000 0.04851100
5 -1.58640100 -12.72076000 13.48778600 1.97586600 1.15990900 -1.29878500
6 -6.21447700 -0.00001100 -0.00002900 2.98658401 -0.16364921 1.05327513
7 11.94488700 0.00000000 0.00000000 -0.30536985 -0.31407750 1.40571459
8 10.62019100 0.00000000 0.00000000 0.22416798 -0.05886235 2.92072383
9 -4.75110800 -0.69449600 0.83058400 0.25822100 -0.42679800 -0.01814500
10 -1.68808000 0.00004500 -0.00003100 0.02077300 -0.01344700 0.44370400
11 -1.33614000 0.00005700 -0.00001000 0.02262200 0.01357900 0.01310400
12 -4.82049000 -0.50946000 -0.22475800 -0.51794700 -0.20395100 1.27501100
13 -1.82698100 -0.00007200 0.00001000 -0.00564800 0.04001900 1.13316200
14 -1.43657300 0.00001000 0.00000400 -0.03832500 -0.06763600 0.42386300
15 -3.99235200 -0.89119000 -1.82790600 -0.63154300 0.23003500 1.59020800
16 -1.40592600 -0.00002900 -0.00000100 0.01041600 -0.02756200 0.51517700
17 -1.17535800 0.00012400 -0.00002200 0.02756300 0.06210400 0.32121000
18 -4.52674700 -0.69057800 -1.12074200 -0.53814300 0.05119000 1.51083300
19 -1.74403400 0.00003400 -0.00000500 -0.10441400 0.03513400 0.99703200
20 -1.36877400 0.00002300 0.00000400 0.00993500 0.05150500 0.08698400
21 -2.03839600 -0.89278700 0.93250300 1.87406100 0.59212900 0.93407900
22 -1.70606700 0.14882300 0.13171700 -0.00219900 0.10978600 0.45261700
23 -1.59927600 0.00001100 0.00001000 0.02756800 -0.03282500 0.85320200
24 5.51182300 0.00001100 -0.00000300 2.10196300 0.00000000 -3.14159231
25 0.19684700 -0.00000100 0.00000300 2.79340693 -0.00049817 -3.14147732
26 -2.40499600 -16.72850600 -3.12523400 1.97586200 1.15991000 1.84280300
27 6.21448900 0.00001000 0.00002100 -0.96653298 0.59931814 -1.58301012
28 11.94488500 -0.00003700 -0.00019900 -0.44666432 -0.32334886 -2.05854349
29 10.62017900 -0.00000400 0.00001000 -2.45751569 -0.86124047 0.75687305
30 4.75117700 0.69437400 -0.83047800 -0.00218500 -0.27934700 0.09492700
31 1.68806800 -0.00001600 0.00000000 0.00755100 -0.02358000 1.12872900
32 1.33615100 -0.00005100 -0.00001000 -0.02572300 -0.02900100 1.09740300
33 4.82052000 0.50934200 0.22486500 -0.20771000 -0.26184600 0.41698400
34 1.82699200 0.00006700 0.00001000 0.02485800 0.03193200 1.93402400
35 1.43658100 -0.00000600 0.00001000 0.01515000 0.00045200 -0.75718600
36 3.99235900 0.89108700 1.82799600 -0.45840900 0.11077300 1.10533100
37 1.40592600 0.00003300 -0.00000300 -0.01231800 -0.02677000 1.30554600
38 1.17535400 -0.00013000 0.00000200 -0.09551900 0.07798600 -0.93359900
39 4.52677200 0.69046600 1.12084100 -0.37138300 -0.06910400 0.81424300
40 1.74403400 -0.00002200 -0.00000100 -0.02939300 -0.00337500 1.86812600
41 1.36875900 -0.00003200 -0.00002200 -0.12957300 0.09181900 -1.14340300
42 1.80926600 0.89529100 -1.12011200 1.88461400 0.36803000 0.40774200
43 1.49513600 -0.24140400 0.04487600 0.00360000 -0.23414300 0.03443400
44 1.57424700 -0.10445100 0.03324300 0.03981700 0.07342300 -0.24671300
45 5.51181100 -0.00001100 0.00000900 -0.95227000 0.00000000 0.00000000
46 0.19684800 0.00001000 -0.00000100 -0.34822500 0.00001500 -0.00000200
47 0.00000000 1.00000000 0.00000000 0.00000000 0.00000000 -1.57079600
48 -2.88370600 60.35387800 -4.45282200 0.00000000 0.00000000 -3.14156200
49 -7.68753662 75.07125298 -0.76804047 0.42073951 0.26474391 -0.37650118
50 12.20148800 2.53350700 -1.62973000 0.03858800 1.27717300 1.83666800
51 4.53929200 0.00125700 -1.22600900 0.00000000 0.00000000 0.00000000
52 -1.39520600 -0.00627800 -1.83046200 0.00000000 0.00000000 0.00000000
53 0.35743300 0.00066700 1.95120800 0.00000000 0.00000000 0.00000000
54 2.07324200 -1.19960400 0.38264400 0.00000000 0.00000000 0.00000000
55 3.48523300 -0.00628100 -2.12263900 0.00000000 0.00000000 0.00000000
56 2.90164200 0.00125700 1.45321600 0.00000000 0.00000000 0.00000000
57 0.00000000 0.00000000 0.00000000 0.00000000 0.00000000 -1.57079600
58 -31.74032600 -1.30138900 -0.17479500 -0.44920900 0.00000000 0.00000000
59 -31.74769600 1.26414300 -0.16570300 0.44106700 0.00000000 0.00000000
60 -5.81618500 -2.35348000 -2.95539300 3.05410900 1.21994400 -2.42261400
time 2
0 -0.00000100 8.45008800 -27.50902600 0.00000000 0.00000000 0.00003100
1 -0.00000200 0.00000000 0.00000000 1.57074700 -1.56714200 -1.57074700
2 4.25546500 -0.33518600 -0.00000200 0.00000000 0.00000000 -0.12484800
3 7.43125200 1.49648100 0.00000200 0.00000000 0.00000000 0.24545000
4 5.27847900 0.16554500 0.00000100 0.00000000 0.00000000 0.04851100
5 -1.58640100 -12.72076000 13.48778600 1.97586600 1.15990900 -1.29878500
6 -6.21447700 -0.00001100 -0.00002900 2.98793685 -0.16514864 1.05259964
7 11.94488700 0.00000000 0.00000000 -0.30628933 -0.31688662 1.40793724
8 10.62019100 0.00000000 0.00000000 0.22398187 -0.06496885 2.91412688
9 -4.75110800 -0.69449600 0.83058400 0.25822100 -0.42679800 -0.01814500
10 -1.68808000 0.00004500 -0.00003100 0.02077300 -0.01344700 0.44370400
11 -1.33614000 0.00005700 -0.00001000 0.02262200 0.01357900 0.01310400
12 -4.82049000 -0.50946000 -0.22475800 -0.51794700 -0.20395100 1.27501100
13 -1.82698100 -0.00007200 0.00001000 -0.00564800 0.04001900 1.13316200
14 -1.43657300 0.00001000 0.00000400 -0.03832500 -0.06763600 0.42386300
15 -3.99235200 -0.89119000 -1.82790600 -0.63154300 0.23003500 1.59020800
16 -1.40592600 -0.00002900 -0.00000100 0.01041600 -0.02756200 0.51517700
17 -1.17535800 0.00012400 -0.00002200 0.02756300 0.06210400 0.32121000
18 -4.52674700 -0.69057800 -1.12074200 -0.53814300 0.05119000 1.51083300
19 -1.74403400 0.00003400 -0.00000500 -0.10441400 0.03513400 0.99703200
20 -1.36877400 0.00002300 0.00000400 0.00993500 0.05150500 0.08698400
21 -2.03839600 -0.89278700 0.93250300 1.87406100 0.59212900 0.93407900
22 -1.70606700 0.14882300 0.13171700 -0.00219900 0.10978600 0.45261700
23 -1.59927600 0.00001100 0.00001000 0.02756800 -0.03282500 0.85320200
24 5.51182300 0.00001100 -0.00000300 2.10196300 0.00000000 -3.14159231
25 0.19684700 -0.00000100 0.00000300 2.79340693 -0.00049817 -3.14147732
26 -2.40499600 -16.72850600 -3.12523400 1.97586200 1.15991000 1.84280300
27 6.21448900 0.00001000 0.00002100 -0.96261495 0.59799306 -1.58255163
28 11.94488500 -0.00003700 -0.00019900 -0.44853333 -0.32445800 -2.05244898
29 10.62017900 -0.00000400 0.00001000 -2.46306975 -0.85994962 0.75962179
30 4.75117700 0.69437400 -0.83047800 -0.00218500 -0.27934700 0.09492700
31 1.68806800 -0.00001600 0.00000000 0.00755100 -0.02358000 1.12872900
32 1.33615100 -0.00005100 -0.00001000 -0.02572300 -0.02900100 1.09740300
33 4.82052000 0.50934200 0.22486500 -0.20771000 -0.26184600 0.41698400
34 1.82699200 0.00006700 0.00001000 0.02485800 0.03193200 1.93402400
35 1.43658100 -0.00000600 0.00001000 0.01515000 0.00045200 -0.75718600
36 3.99235900 0.89108700 1.82799600 -0.45840900 0.11077300 1.10533100
37 1.40592600 0.00003300 -0.00000300 -0.01231800 -0.02677000 1.30554600
38 1.17535400 -0.00013000 0.00000200 -0.09551900 0.07798600 -0.93359900
39 4.52677200 0.69046600 1.12084100 -0.37138300 -0.06910400 0.81424300
40 1.74403400 -0.00002200 -0.00000100 -0.02939300 -0.00337500 1.86812600
41 1.36875900 -0.00003200 -0.00002200 -0.12957300 0.09181900 -1.14340300
42 1.80926600 0.89529100 -1.12011200 1.88461400 0.36803000 0.40774200
43 1.49513600 -0.24140400 0.04487600 0.00360000 -0.23414300 0.03443400
44 1.57424700 -0.10445100 0.03324300 0.03981700 0.07342300 -0.24671300
45 5.51181100 -0.00001100 0.00000900 -0.95227000 0.00000000 0.00000000
46 0.19684800 0.00001000 -0.00000100 -0.34822500 0.00001500 -0.00000200
47 0.00000000 1.00000000 0.00000000 0.00000000 0.00000000 -1.57079600
48 -2.88370600 60.35387800 -4.45282200 0.00000000 0.00000000 -3.14156200
49 -7.68041283 75.11432798 -0.75473331 0.41641696 0.26283068 -0.38202819
50 12.20148400 2.53350500 -1.62973000 0.03858800 1.27717300 1.83666800
51 4.53929200 0.00125700 -1.22600900 0.00000000 0.00000000 0.00000000
52 -1.39520600 -0.00627800 -1.83046200 0.00000000 0.00000000 0.00000000
53 0.35743300 0.00066700 1.95120800 0.00000000 0.00000000 0.00000000
54 2.07324200 -1.19960400 0.38264400 0.00000000 0.00000000 0.00000000
55 3.48523300 -0.00628100 -2.12263900 0.00000000 0.00000000 0.00000000
56 2.90164200 0.00125700 1.45321600 0.00000000 0.00000000 0.00000000
57 0.00000000 0.00000000 0.00000000 0.00000000 0.00000000 -1.57079600
58 -31.74032600 -1.30138900 -0.17479500 -0.44920900 0.00000000 0.00000000
59 -31.74769600 1.26414300 -0.16570300 0.44106700 0.00000000 0.00000000
60 -5.81618500 -2.35348000 -2.95539300 3.05410900 1.21994400 -2.42261400
time 3
0 -0.00000100 8.45008800 -27.50902600 0.00000000 0.00000000 0.00003100
1 -0.00000200 0.00000000 0.00000000 1.57074700 -1.56714200 -1.57074700
2 4.25546500 -0.33518600 -0.00000200 0.00000000 0.00000000 -0.12484800
3 7.43125200 1.49648100 0.00000200 0.00000000 0.00000000 0.24545000
4 5.27847900 0.16554500 0.00000100 0.00000000 0.00000000 0.04851100
5 -1.58640100 -12.72076000 13.48778600 1.97586600 1.15990900 -1.29878500
6 -6.21447700 -0.00001100 -0.00002900 2.99533111 -0.16819058 1.05368766
7 11.94488700 0.00000000 0.00000000 -0.30999191 -0.32023606 1.41880478
8 10.62019100 0.00000000 0.00000000 0.23538786 -0.08288811 2.89791650
9 -4.75110800 -0.69449600 0.83058400 0.25822100 -0.42679800 -0.01814500
10 -1.68808000 0.00004500 -0.00003100 0.02077300 -0.01344700 0.44370400
11 -1.33614000 0.00005700 -0.00001000 0.02262200 0.01357900 0.01310400
12 -4.82049000 -0.50946000 -0.22475800 -0.51794700 -0.20395100 1.27501100
13 -1.82698100 -0.00007200 0.00001000 -0.00564800 0.04001900 1.13316200
14 -1.43657300 0.00001000 0.00000400 -0.03832500 -0.06763600 0.42386300
15 -3.99235200 -0.89119000 -1.82790600 -0.63154300 0.23003500 1.59020800
16 -1.40592600 -0.00002900 -0.00000100 0.01041600 -0.02756200 0.51517700
17 -1.17535800 0.00012400 -0.00002200 0.02756300 0.06210400 0.32121000
18 -4.52674700 -0.69057800 -1.12074200 -0.53814300 0.05119000 1.51083300
19 -1.74403400 0.00003400 -0.00000500 -0.10441400 0.03513400 0.99703200
20 -1.36877400 0.00002300 0.00000400 0.00993500 0.05150500 0.08698400
21 -2.03839600 -0.89278700 0.93250300 1.87406100 0.59212900 0.93407900
22 -1.70606700 0.14882300 0.13171700 -0.00219900 0.10978600 0.45261700
23 -1.59927600 0.00001100 0.00001000 0.02756800 -0.03282500 0.85320200
24 5.51182300 0.00001100 -0.00000300 2.10196300 0.00000000 -3.14159231
25 0.19684700 -0.00000100 0.00000300 2.79340693 -0.00049817 -3.14147732
26 -2.40499600 -16.72850600 -3.12523400 1.97586200 1.15991000 1.84280300
27 6.21448900 0.00001000 0.00002100 -0.95162757 0.59791397 -1.58291100
28 11.94488500 -0.00003700 -0.00019900 -0.45231135 -0.32686981 -2.04013433
29 10.62017900 -0.00000400 0.00001000 -2.47633154 -0.85749559 0.75375881
30 4.75117700 0.69437400 -0.83047800 -0.00218500 -0.27934700 0.09492700
31 1.68806800 -0.00001600 0.00000000 0.00755100 -0.02358000 1.12872900
32 1.33615100 -0.00005100 -0.00001000 -0.02572300 -0.02900100 1.09740300
33 4.82052000 0.50934200 0.22486500 -0.20771000 -0.26184600 0.41698400
34 1.82699200 0.00006700 0.00001000 0.02485800 0.03193200 1.93402400
35 1.43658100 -0.00000600 0.00001000 0.01515000 0.00045200 -0.75718600
36 3.99235900 0.89108700 1.82799600 -0.45840900 0.11077300 1.10533100
37 1.40592600 0.00003300 -0.00000300 -0.01231800 -0.02677000 1.30554600
38 1.17535400 -0.00013000 0.00000200 -0.09551900 0.07798600 -0.93359900
39 4.52677200 0.69046600 1.12084100 -0.37138300 -0.06910400 0.81424300
40 1.74403400 -0.00002200 -0.00000100 -0.02939300 -0.00337500 1.86812600
41 1.36875900 -0.00003200 -0.00002200 -0.12957300 0.09181900 -1.14340300
42 1.80926600 0.89529100 -1.12011200 1.88461400 0.36803000 0.40774200
43 1.49513600 -0.24140400 0.04487600 0.00360000 -0.23414300 0.03443400
44 1.57424700 -0.10445100 0.03324300 0.03981700 0.07342300 -0.24671300
45 5.51181100 -0.00001100 0.00000900 -0.95227000 0.00000000 0.00000000
46 0.19684800 0.00001000 -0.00000100 -0.34822500 0.00001500 -0.00000200
47 0.00000000 1.00000000 0.00000000 0.00000000 0.00000000 -1.57079600
48 -2.88370600 60.35387800 -4.45282200 0.00000000 0.00000000 -3.14156200
49 -7.63698593 75.18090198 -0.74097810 0.41784412 0.25791305 -0.39400479
50 12.20149000 2.53350800 -1.62973100 0.03858800 1.27717300 1.83666800
51 4.53929200 0.00125700 -1.22600900 0.00000000 0.00000000 0.00000000
52 -1.39520600 -0.00627800 -1.83046200 0.00000000 0.00000000 0.00000000
53 0.35743300 0.00066700 1.95120800 0.00000000 0.00000000 0.00000000
54 2.07324200 -1.19960400 0.38264400 0.00000000 0.00000000 0.00000000
55 3.48523300 -0.00628100 -2.12263900 0.00000000 0.00000000 0.00000000
56 2.90164200 0.00125700 1.45321600 0.00000000 0.00000000 0.00000000
57 0.00000000 0.00000000 0.00000000 0.00000000 0.00000000 -1.57079600
58 -31.74032600 -1.30138900 -0.17479500 -0.44920900 0.00000000 0.00000000
59 -31.74769600 1.26414300 -0.16570300 0.44106700 0.00000000 0.00000000
60 -5.81618500 -2.35348000 -2.95539300 3.05410900 1.21994400 -2.42261400
time 4
0 -0.00000100 8.45008800 -27.50902600 0.00000000 0.00000000 0.00003100
1 -0.00000200 0.00000000 0.00000000 1.57074700 -1.56714200 -1.57074700
2 4.25546500 -0.33518600 -0.00000200 0.00000000 0.00000000 -0.12484800
3 7.43125200 1.49648100 0.00000200 0.00000000 0.00000000 0.24545000
4 5.27847900 0.16554500 0.00000100 0.00000000 0.00000000 0.04851100
5 -1.48276400 -12.49208800 12.77945900 1.97586600 1.15990900 -1.29878500
6 -6.21447700 -0.00001100 -0.00002900 3.03988112 -0.20025457 1.11252630
7 11.94488700 0.00000000 0.00000000 -0.33566477 -0.32506742 1.49417797
8 10.62019100 0.00000000 0.00000000 0.28651364 -0.14275329 2.88300077
9 -4.75110800 -0.69449600 0.83058400 0.25822100 -0.42679800 -0.01814500
10 -1.68808000 0.00004500 -0.00003100 0.02077300 -0.01344700 0.44370400
11 -1.33614000 0.00005700 -0.00001000 0.02262200 0.01357900 0.01310400
12 -4.82049000 -0.50946000 -0.22475800 -0.51794700 -0.20395100 1.27501100
13 -1.82698100 -0.00007200 0.00001000 -0.00564800 0.04001900 1.13316200
14 -1.43657300 0.00001000 0.00000400 -0.03832500 -0.06763600 0.42386300
15 -3.99235200 -0.89119000 -1.82790600 -0.63154300 0.23003500 1.59020800
16 -1.40592600 -0.00002900 -0.00000100 0.01041600 -0.02756200 0.51517700
17 -1.17535800 0.00012400 -0.00002200 0.02756300 0.06210400 0.32121000
18 -4.52674700 -0.69057800 -1.12074200 -0.53814300 0.05119000 1.51083300
19 -1.74403400 0.00003400 -0.00000500 -0.10441400 0.03513400 0.99703200
20 -1.36877400 0.00002300 0.00000400 0.00993500 0.05150500 0.08698400
21 -2.03839600 -0.89278700 0.93250300 1.87406100 0.59212900 0.93407900
22 -1.70606700 0.14882300 0.13171700 -0.00219900 0.10978600 0.45261700
23 -1.59927600 0.00001100 0.00001000 0.02756800 -0.03282500 0.85320200
24 5.51182300 0.00001100 -0.00000300 2.10196300 0.00000000 -3.14159231
25 0.19684700 -0.00000100 0.00000300 2.79340693 -0.00049817 -3.14147732
26 -2.40499600 -16.72850600 -3.12523400 1.97586200 1.15991000 1.84280300
27 6.21448900 0.00001000 0.00002100 -0.93691983 0.60130618 -1.59152033
28 11.94488500 -0.00003700 -0.00019900 -0.45854716 -0.33021961 -2.02007367
29 10.62017900 -0.00000400 0.00001000 -2.49542376 -0.85312640 0.73832458
30 4.75117700 0.69437400 -0.83047800 -0.00218500 -0.27934700 0.09492700
31 1.68806800 -0.00001600 0.00000000 0.00755100 -0.02358000 1.12872900
32 1.33615100 -0.00005100 -0.00001000 -0.02572300 -0.02900100 1.09740300
33 4.82052000 0.50934200 0.22486500 -0.20771000 -0.26184600 0.41698400
34 1.82699200 0.00006700 0.00001000 0.02485800 0.03193200 1.93402400
35 1.43658100 -0.00000600 0.00001000 0.01515000 0.00045200 -0.75718600
36 3.99235900 0.89108700 1.82799600 -0.45840900 0.11077300 1.10533100
37 1.40592600 0.00003300 -0.00000300 -0.01231800 -0.02677000 1.30554600
38 1.17535400 -0.00013000 0.00000200 -0.09551900 0.07798600 -0.93359900
39 4.52677200 0.69046600 1.12084100 -0.37138300 -0.06910400 0.81424300
40 1.74403400 -0.00002200 -0.00000100 -0.02939300 -0.00337500 1.86812600
41 1.36875900 -0.00003200 -0.00002200 -0.12957300 0.09181900 -1.14340300
42 1.80926600 0.89529100 -1.12011200 1.88461400 0.36803000 0.40774200
43 1.49513600 -0.24140400 0.04487600 0.00360000 -0.23414300 0.03443400
44 1.57424700 -0.10445100 0.03324300 0.03981700 0.07342300 -0.24671300
45 5.51181100 -0.00001100 0.00000900 -0.95227000 0.00000000 0.00000000
46 0.19684800 0.00001000 -0.00000100 -0.34822500 0.00001500 -0.00000200
47 0.00000000 1.00000000 0.00000000 0.00000000 0.00000000 -1.57079600
48 -2.88370600 60.35387800 -4.45282200 0.00000000 0.00000000 -3.14156200
49 -7.51470767 75.26669498 -0.73107676 0.42425230 0.24821344 -0.41813589
50 12.20148700 2.53350000 -1.62973400 0.03858800 1.27717300 1.83666800
51 4.53929200 0.00125700 -1.22600900 0.00000000 0.00000000 0.00000000
52 -1.39520600 -0.00627800 -1.83046200 0.00000000 0.00000000 0.00000000
53 0.35743300 0.00066700 1.95120800 0.00000000 0.00000000 0.00000000
54 2.07324200 -1.19960400 0.38264400 0.00000000 0.00000000 0.00000000
55 3.48523300 -0.00628100 -2.12263900 0.00000000 0.00000000 0.00000000
56 2.90164200 0.00125700 1.45321600 0.00000000 0.00000000 0.00000000
57 0.00000000 0.00000000 0.00000000 0.00000000 0.00000000 -1.57079600
58 -31.74032600 -1.30138900 -0.17479500 -0.44920900 0.00000000 0.00000000
59 -31.74769600 1.26414300 -0.16570300 0.44106700 0.00000000 0.00000000
60 -5.81618500 -2.35348000 -2.95539300 3.05410900 1.21994400 -2.42261400
time 5
0 -0.00000100 8.45008800 -27.50902600 0.00000000 0.00000000 0.00003100
1 -0.00000200 0.00000000 0.00000000 1.57074700 -1.56714200 -1.57074700
2 4.25546500 -0.33518600 -0.00000200 0.00000000 0.00000000 -0.12484800
3 7.43125200 1.49648100 0.00000200 0.00000000 0.00000000 0.24545000
4 5.27847900 0.16554500 0.00000100 0.00000000 0.00000000 0.04851100
5 -1.20953600 -11.88922800 10.91205500 1.97586600 1.15990900 -1.29878500
6 -6.21447700 -0.00001100 -0.00002900 -3.12635435 -0.29557176 1.25287304
7 11.94488700 0.00000000 0.00000000 -0.39260469 -0.32566270 1.66052910
8 10.62019100 0.00000000 0.00000000 0.40519479 -0.28834703 2.86789380
9 -4.75110800 -0.69449600 0.83058400 0.25822100 -0.42679800 -0.01814500
10 -1.68808000 0.00004500 -0.00003100 0.02077300 -0.01344700 0.44370400
11 -1.33614000 0.00005700 -0.00001000 0.02262200 0.01357900 0.01310400
12 -4.82049000 -0.50946000 -0.22475800 -0.51794700 -0.20395100 1.27501100
13 -1.82698100 -0.00007200 0.00001000 -0.00564800 0.04001900 1.13316200
14 -1.43657300 0.00001000 0.00000400 -0.03832500 -0.06763600 0.42386300
15 -3.99235200 -0.89119000 -1.82790600 -0.63154300 0.23003500 1.59020800
16 -1.40592600 -0.00002900 -0.00000100 0.01041600 -0.02756200 0.51517700
17 -1.17535800 0.00012400 -0.00002200 0.02756300 0.06210400 0.32121000
18 -4.52674700 -0.69057800 -1.12074200 -0.53814300 0.05119000 1.51083300
19 -1.74403400 0.00003400 -0.00000500 -0.10441400 0.03513400 0.99703200
20 -1.36877400 0.00002300 0.00000400 0.00993500 0.05150500 0.08698400
21 -2.03839600 -0.89278700 0.93250300 1.87406100 0.59212900 0.93407900
22 -1.70606700 0.14882300 0.13171700 -0.00219900 0.10978600 0.45261700
23 -1.59927600 0.00001100 0.00001000 0.02756800 -0.03282500 0.85320200
24 5.51182300 0.00001100 -0.00000300 2.10196300 0.00000000 -3.14159231
25 0.19684700 -0.00000100 0.00000300 2.79340693 -0.00049817 -3.14147732
26 -2.40499600 -16.72850600 -3.12523400 1.97586200 1.15991000 1.84280300
27 6.21448900 0.00001000 0.00002100 -0.91222677 0.60939826 -1.61532803
28 11.94488500 -0.00003700 -0.00019900 -0.46931515 -0.33509924 -1.98579705
29 10.62017900 -0.00000400 0.00001000 -2.53086509 -0.84516364 0.71373559
30 4.75117700 0.69437400 -0.83047800 -0.00218500 -0.27934700 0.09492700
31 1.68806800 -0.00001600 0.00000000 0.00755100 -0.02358000 1.12872900
32 1.33615100 -0.00005100 -0.00001000 -0.02572300 -0.02900100 1.09740300
33 4.82052000 0.50934200 0.22486500 -0.20771000 -0.26184600 0.41698400
34 1.82699200 0.00006700 0.00001000 0.02485800 0.03193200 1.93402400
35 1.43658100 -0.00000600 0.00001000 0.01515000 0.00045200 -0.75718600
36 3.99235900 0.89108700 1.82799600 -0.45840900 0.11077300 1.10533100
37 1.40592600 0.00003300 -0.00000300 -0.01231800 -0.02677000 1.30554600
38 1.17535400 -0.00013000 0.00000200 -0.09551900 0.07798600 -0.93359900
39 4.52677200 0.69046600 1.12084100 -0.37138300 -0.06910400 0.81424300
40 1.74403400 -0.00002200 -0.00000100 -0.02939300 -0.00337500 1.86812600
41 1.36875900 -0.00003200 -0.00002200 -0.12957300 0.09181900 -1.14340300
42 1.80926600 0.89529100 -1.12011200 1.88461400 0.36803000 0.40774200
43 1.49513600 -0.24140400 0.04487600 0.00360000 -0.23414300 0.03443400
44 1.57424700 -0.10445100 0.03324300 0.03981700 0.07342300 -0.24671300
45 5.51181100 -0.00001100 0.00000900 -0.95227000 0.00000000 0.00000000
46 0.19684800 0.00001000 -0.00000100 -0.34822500 0.00001500 -0.00000200
47 0.00000000 1.00000000 0.00000000 0.00000000 0.00000000 -1.57079600
48 -2.88370600 60.35387800 -4.45282200 0.00000000 0.00000000 -3.14156200
49 -7.21113682 75.36744098 -0.72886700 0.43490264 0.23007524 -0.46946293
50 12.20146800 2.53349800 -1.62973000 0.03858800 1.27717300 1.83666800
51 4.53929200 0.00125700 -1.22600900 0.00000000 0.00000000 0.00000000
52 -1.39520600 -0.00627800 -1.83046200 0.00000000 0.00000000 0.00000000
53 0.35743300 0.00066700 1.95120800 0.00000000 0.00000000 0.00000000
54 2.07324200 -1.19960400 0.38264400 0.00000000 0.00000000 0.00000000
55 3.48523300 -0.00628100 -2.12263900 0.00000000 0.00000000 0.00000000
56 2.90164200 0.00125700 1.45321600 0.00000000 0.00000000 0.00000000
57 0.00000000 0.00000000 0.00000000 0.00000000 0.00000000 -1.57079600
58 -31.74032600 -1.30138900 -0.17479500 -0.44920900 0.00000000 0.00000000
59 -31.74769600 1.26414300 -0.16570300 0.44106700 0.00000000 0.00000000
60 -5.81618500 -2.35348000 -2.95539300 3.05410900 1.21994400 -2.42261400
time 6
0 -0.00000100 8.45008800 -27.50902600 0.00000000 0.00000000 0.00003100
1 -0.00000200 0.00000000 0.00000000 1.57074700 -1.56714200 -1.57074700
2 4.25546500 -0.33518600 -0.00000200 0.00000000 0.00000000 -0.12484800
3 7.43125200 1.49648100 0.00000200 0.00000000 0.00000000 0.24545000
4 5.27847900 0.16554500 0.00000100 0.00000000 0.00000000 0.04851100
5 -0.82324800 -11.03690800 8.27193400 1.97586600 1.15990900 -1.29878500
6 -6.21447700 -0.00001100 -0.00002900 -2.94263541 -0.44386712 1.42109234
7 11.94488700 0.00000000 0.00000000 -0.47159992 -0.31153283 1.89604654
8 10.62019100 0.00000000 0.00000000 0.59085375 -0.53488226 2.77157038
9 -4.75110800 -0.69449600 0.83058400 0.25822100 -0.42679800 -0.01814500
10 -1.68808000 0.00004500 -0.00003100 0.02077300 -0.01344700 0.44370400
11 -1.33614000 0.00005700 -0.00001000 0.02262200 0.01357900 0.01310400
12 -4.82049000 -0.50946000 -0.22475800 -0.51794700 -0.20395100 1.27501100
13 -1.82698100 -0.00007200 0.00001000 -0.00564800 0.04001900 1.13316200
14 -1.43657300 0.00001000 0.00000400 -0.03832500 -0.06763600 0.42386300
15 -3.99235200 -0.89119000 -1.82790600 -0.63154300 0.23003500 1.59020800
16 -1.40592600 -0.00002900 -0.00000100 0.01041600 -0.02756200 0.51517700
17 -1.17535800 0.00012400 -0.00002200 0.02756300 0.06210400 0.32121000
18 -4.52674700 -0.69057800 -1.12074200 -0.53814300 0.05119000 1.51083300
19 -1.74403400 0.00003400 -0.00000500 -0.10441400 0.03513400 0.99703200
20 -1.36877400 0.00002300 0.00000400 0.00993500 0.05150500 0.08698400
21 -2.03839600 -0.89278700 0.93250300 1.87406100 0.59212900 0.93407900
22 -1.70606700 0.14882300 0.13171700 -0.00219900 0.10978600 0.45261700
23 -1.59927600 0.00001100 0.00001000 0.02756800 -0.03282500 0.85320200
24 5.51182300 0.00001100 -0.00000300 2.10196300 0.00000000 -3.14159231
25 0.19684700 -0.00000100 0.00000300 2.79340693 -0.00049817 -3.14147732
26 -2.40499600 -16.72850600 -3.12523400 1.97586200 1.15991000 1.84280300
27 6.21448900 0.00001000 0.00002100 -0.84513865 0.61569995 -1.66042993
28 11.94488500 -0.00003700 -0.00019900 -0.49231449 -0.34295824 -1.91399021
29 10.62017900 -0.00000400 0.00001000 -2.62454998 -0.82719606 0.68552697
30 4.75117700 0.69437400 -0.83047800 -0.00218500 -0.27934700 0.09492700
31 1.68806800 -0.00001600 0.00000000 0.00755100 -0.02358000 1.12872900
32 1.33615100 -0.00005100 -0.00001000 -0.02572300 -0.02900100 1.09740300
33 4.82052000 0.50934200 0.22486500 -0.20771000 -0.26184600 0.41698400
34 1.82699200 0.00006700 0.00001000 0.02485800 0.03193200 1.93402400
35 1.43658100 -0.00000600 0.00001000 0.01515000 0.00045200 -0.75718600
36 3.99235900 0.89108700 1.82799600 -0.45840900 0.11077300 1.10533100
37 1.40592600 0.00003300 -0.00000300 -0.01231800 -0.02677000 1.30554600
38 1.17535400 -0.00013000 0.00000200 -0.09551900 0.07798600 -0.93359900
39 4.52677200 0.69046600 1.12084100 -0.37138300 -0.06910400 0.81424300
40 1.74403400 -0.00002200 -0.00000100 -0.02939300 -0.00337500 1.86812600
41 1.36875900 -0.00003200 -0.00002200 -0.12957300 0.09181900 -1.14340300
42 1.80926600 0.89529100 -1.12011200 1.88461400 0.36803000 0.40774200
43 1.49513600 -0.24140400 0.04487600 0.00360000 -0.23414300 0.03443400
44 1.57424700 -0.10445100 0.03324300 0.03981700 0.07342300 -0.24671300
45 5.51181100 -0.00001100 0.00000900 -0.95227000 0.00000000 0.00000000
46 0.19684800 0.00001000 -0.00000100 -0.34822500 0.00001500 -0.00000200
47 0.00000000 1.00000000 0.00000000 0.00000000 0.00000000 -1.57079600
48 -2.88370600 60.35387800 -4.45282200 0.00000000 0.00000000 -3.14156200
49 -6.46182782 75.47887598 -0.73788557 0.44672639 0.19824003 -0.58822462
50 12.20139600 2.53350300 -1.62971500 0.03858800 1.27717300 1.83666800
51 4.53929200 0.00125700 -1.22600900 0.00000000 0.00000000 0.00000000
52 -1.39520600 -0.00627800 -1.83046200 0.00000000 0.00000000 0.00000000
53 0.35743300 0.00066700 1.95120800 0.00000000 0.00000000 0.00000000
54 2.07324200 -1.19960400 0.38264400 0.00000000 0.00000000 0.00000000
55 3.48523300 -0.00628100 -2.12263900 0.00000000 0.00000000 0.00000000
56 2.90164200 0.00125700 1.45321600 0.00000000 0.00000000 0.00000000
57 0.00000000 0.00000000 0.00000000 0.00000000 0.00000000 -1.57079600
58 -31.74032600 -1.30138900 -0.17479500 -0.44920900 0.00000000 0.00000000
59 -31.74769600 1.26414300 -0.16570300 0.44106700 0.00000000 0.00000000
60 -5.81618500 -2.35348000 -2.95539300 3.05410900 1.21994400 -2.42261400
time 7
0 -0.00000100 8.45008800 -27.50902600 0.00000000 0.00000000 0.00003100
1 -0.00000200 0.00000000 0.00000000 1.57074700 -1.56714200 -1.57074700
2 4.25546500 -0.33518600 -0.00000200 0.00000000 0.00000000 -0.12484800
3 7.43125200 1.49648100 0.00000200 0.00000000 0.00000000 0.24545000
4 5.27847900 0.16554500 0.00000100 0.00000000 0.00000000 0.04851100
5 -0.38042900 -10.05985800 5.24545400 1.97586600 1.15990900 -1.29878500
6 -6.21447700 -0.00001100 -0.00002900 -2.77140159 -0.55351097 1.59987420
7 11.94488700 0.00000000 0.00000000 -0.54466282 -0.28327279 2.13040453
8 10.62019100 0.00000000 0.00000000 0.77854426 -0.77229972 2.57287613
9 -4.75110800 -0.69449600 0.83058400 0.25822100 -0.42679800 -0.01814500
10 -1.68808000 0.00004500 -0.00003100 0.02077300 -0.01344700 0.44370400
11 -1.33614000 0.00005700 -0.00001000 0.02262200 0.01357900 0.01310400
12 -4.82049000 -0.50946000 -0.22475800 -0.51794700 -0.20395100 1.27501100
13 -1.82698100 -0.00007200 0.00001000 -0.00564800 0.04001900 1.13316200
14 -1.43657300 0.00001000 0.00000400 -0.03832500 -0.06763600 0.42386300
15 -3.99235200 -0.89119000 -1.82790600 -0.63154300 0.23003500 1.59020800
16 -1.40592600 -0.00002900 -0.00000100 0.01041600 -0.02756200 0.51517700
17 -1.17535800 0.00012400 -0.00002200 0.02756300 0.06210400 0.32121000
18 -4.52674700 -0.69057800 -1.12074200 -0.53814300 0.05119000 1.51083300
19 -1.74403400 0.00003400 -0.00000500 -0.10441400 0.03513400 0.99703200
20 -1.36877400 0.00002300 0.00000400 0.00993500 0.05150500 0.08698400
21 -2.03839600 -0.89278700 0.93250300 1.87406100 0.59212900 0.93407900
22 -1.70606700 0.14882300 0.13171700 -0.00219900 0.10978600 0.45261700
23 -1.59927600 0.00001100 0.00001000 0.02756800 -0.03282500 0.85320200
24 5.51182300 0.00001100 -0.00000300 2.10196300 0.00000000 -3.14159231
25 0.19684700 -0.00000100 0.00000300 2.79340693 -0.00049817 -3.14147732
26 -2.40499600 -16.72850600 -3.12523400 1.97586200 1.15991000 1.84280300
27 6.21448900 0.00001000 0.00002100 -0.74460351 0.60170696 -1.73962507
28 11.94488500 -0.00003700 -0.00019900 -0.53474650 -0.35214474 -1.78562972
29 10.62017900 -0.00000400 0.00001000 -2.76493346 -0.77887923 0.66136472
30 4.75117700 0.69437400 -0.83047800 -0.00218500 -0.27934700 0.09492700
31 1.68806800 -0.00001600 0.00000000 0.00755100 -0.02358000 1.12872900
32 1.33615100 -0.00005100 -0.00001000 -0.02572300 -0.02900100 1.09740300
33 4.82052000 0.50934200 0.22486500 -0.20771000 -0.26184600 0.41698400
34 1.82699200 0.00006700 0.00001000 0.02485800 0.03193200 1.93402400
35 1.43658100 -0.00000600 0.00001000 0.01515000 0.00045200 -0.75718600
36 3.99235900 0.89108700 1.82799600 -0.45840900 0.11077300 1.10533100
37 1.40592600 0.00003300 -0.00000300 -0.01231800 -0.02677000 1.30554600
38 1.17535400 -0.00013000 0.00000200 -0.09551900 0.07798600 -0.93359900
39 4.52677200 0.69046600 1.12084100 -0.37138300 -0.06910400 0.81424300
40 1.74403400 -0.00002200 -0.00000100 -0.02939300 -0.00337500 1.86812600
41 1.36875900 -0.00003200 -0.00002200 -0.12957300 0.09181900 -1.14340300
42 1.80926600 0.89529100 -1.12011200 1.88461400 0.36803000 0.40774200
43 1.49513600 -0.24140400 0.04487600 0.00360000 -0.23414300 0.03443400
44 1.57424700 -0.10445100 0.03324300 0.03981700 0.07342300 -0.24671300
45 5.51181100 -0.00001100 0.00000900 -0.95227000 0.00000000 0.00000000
46 0.19684800 0.00001000 -0.00000100 -0.34822500 0.00001500 -0.00000200
47 0.00000000 1.00000000 0.00000000 0.00000000 0.00000000 -1.57079600
48 -2.88370600 60.35387800 -4.45282200 0.00000000 0.00000000 -3.14156200
49 -5.20309808 75.59671198 -0.75334241 0.44221336 0.16096467 -0.78405290
50 12.20125600 2.53357100 -1.62965600 0.03858800 1.27717300 1.83666800
51 4.53929200 0.00125700 -1.22600900 0.00000000 0.00000000 0.00000000
52 -1.39520600 -0.00627800 -1.83046200 0.00000000 0.00000000 0.00000000
53 0.35743300 0.00066700 1.95120800 0.00000000 0.00000000 0.00000000
54 2.07324200 -1.19960400 0.38264400 0.00000000 0.00000000 0.00000000
55 3.48523300 -0.00628100 -2.12263900 0.00000000 0.00000000 0.00000000
56 2.90164200 0.00125700 1.45321600 0.00000000 0.00000000 0.00000000
57 0.00000000 0.00000000 0.00000000 0.00000000 0.00000000 -1.57079600
58 -31.74032600 -1.30138900 -0.17479500 -0.44920900 0.00000000 0.00000000
59 -31.74769600 1.26414300 -0.16570300 0.44106700 0.00000000 0.00000000
60 -5.81618500 -2.35348000 -2.95539300 3.05410900 1.21994400 -2.42261400
time 8
0 -0.00000100 8.45008800 -27.50902600 0.00000000 0.00000000 0.00003100
1 -0.00000200 0.00000000 0.00000000 1.57074700 -1.56714200 -1.57074700
2 4.25546500 -0.33518600 -0.00000200 0.00000000 0.00000000 -0.12484800
3 7.43125200 1.49648100 0.00000200 0.00000000 0.00000000 0.24545000
4 5.27847900 0.16554500 0.00000100 0.00000000 0.00000000 0.04851100
5 0.06238900 -9.08280900 2.21897400 1.97586600 1.15990900 -1.29878500
6 -6.21447700 -0.00001100 -0.00002900 -2.68126902 -0.57219182 1.81878964
7 11.94488700 0.00000000 0.00000000 -0.57532965 -0.26910318 2.23799422
8 10.62019100 0.00000000 0.00000000 0.80092929 -0.91685671 2.52410578
9 -4.75110800 -0.69449600 0.83058400 0.25822100 -0.42679800 -0.01814500
10 -1.68808000 0.00004500 -0.00003100 0.02077300 -0.01344700 0.44370400
11 -1.33614000 0.00005700 -0.00001000 0.02262200 0.01357900 0.01310400
12 -4.82049000 -0.50946000 -0.22475800 -0.51794700 -0.20395100 1.27501100
13 -1.82698100 -0.00007200 0.00001000 -0.00564800 0.04001900 1.13316200
14 -1.43657300 0.00001000 0.00000400 -0.03832500 -0.06763600 0.42386300
15 -3.99235200 -0.89119000 -1.82790600 -0.63154300 0.23003500 1.59020800
16 -1.40592600 -0.00002900 -0.00000100 0.01041600 -0.02756200 0.51517700
17 -1.17535800 0.00012400 -0.00002200 0.02756300 0.06210400 0.32121000
18 -4.52674700 -0.69057800 -1.12074200 -0.53814300 0.05119000 1.51083300
19 -1.74403400 0.00003400 -0.00000500 -0.10441400 0.03513400 0.99703200
20 -1.36877400 0.00002300 0.00000400 0.00993500 0.05150500 0.08698400
21 -2.03839600 -0.89278700 0.93250300 1.87406100 0.59212900 0.93407900
22 -1.70606700 0.14882300 0.13171700 -0.00219900 0.10978600 0.45261700
23 -1.59927600 0.00001100 0.00001000 0.02756800 -0.03282500 0.85320200
24 5.51182300 0.00001100 -0.00000300 2.10196300 0.00000000 -3.14159231
25 0.19684700 -0.00000100 0.00000300 2.79340693 -0.00049817 -3.14147732
26 -2.40499600 -16.72850600 -3.12523400 1.97586200 1.15991000 1.84280300
27 6.21448900 0.00001000 0.00002100 -0.67795461 0.57422308 -1.83422235
28 11.94488500 -0.00003700 -0.00019900 -0.58280816 -0.35617927 -1.64369668
29 10.62017900 -0.00000400 0.00001000 -2.86403455 -0.70743593 0.63526454
30 4.75117700 0.69437400 -0.83047800 -0.00218500 -0.27934700 0.09492700
31 1.68806800 -0.00001600 0.00000000 0.00755100 -0.02358000 1.12872900
32 1.33615100 -0.00005100 -0.00001000 -0.02572300 -0.02900100 1.09740300
33 4.82052000 0.50934200 0.22486500 -0.20771000 -0.26184600 0.41698400
34 1.82699200 0.00006700 0.00001000 0.02485800 0.03193200 1.93402400
35 1.43658100 -0.00000600 0.00001000 0.01515000 0.00045200 -0.75718600
36 3.99235900 0.89108700 1.82799600 -0.45840900 0.11077300 1.10533100
37 1.40592600 0.00003300 -0.00000300 -0.01231800 -0.02677000 1.30554600
38 1.17535400 -0.00013000 0.00000200 -0.09551900 0.07798600 -0.93359900
39 4.52677200 0.69046600 1.12084100 -0.37138300 -0.06910400 0.81424300
40 1.74403400 -0.00002200 -0.00000100 -0.02939300 -0.00337500 1.86812600
41 1.36875900 -0.00003200 -0.00002200 -0.12957300 0.09181900 -1.14340300
42 1.80926600 0.89529100 -1.12011200 1.88461400 0.36803000 0.40774200
43 1.49513600 -0.24140400 0.04487600 0.00360000 -0.23414300 0.03443400
44 1.57424700 -0.10445100 0.03324300 0.03981700 0.07342300 -0.24671300
45 5.51181100 -0.00001100 0.00000900 -0.95227000 0.00000000 0.00000000
46 0.19684800 0.00001000 -0.00000100 -0.34822500 0.00001500 -0.00000200
47 0.00000000 1.00000000 0.00000000 0.00000000 0.00000000 -1.57079600
48 -2.88370600 60.35387800 -4.45282200 0.00000000 0.00000000 -3.14156200
49 -4.00150622 75.71667698 -0.76795666 0.42135361 0.13074646 -0.96899167
50 12.20105600 2.53372100 -1.62956500 0.03858800 1.27717300 1.83666800
51 4.53929200 0.00125700 -1.22600900 0.00000000 0.00000000 0.00000000
52 -1.39520600 -0.00627800 -1.83046200 0.00000000 0.00000000 0.00000000
53 0.35743300 0.00066700 1.95120800 0.00000000 0.00000000 0.00000000
54 2.07324200 -1.19960400 0.38264400 0.00000000 0.00000000 0.00000000
55 3.48523300 -0.00628100 -2.12263900 0.00000000 0.00000000 0.00000000
56 2.90164200 0.00125700 1.45321600 0.00000000 0.00000000 0.00000000
57 0.00000000 0.00000000 0.00000000 0.00000000 0.00000000 -1.57079600
58 -31.74032600 -1.30138900 -0.17479500 -0.44920900 0.00000000 0.00000000
59 -31.74769600 1.26414300 -0.16570300 0.44106700 0.00000000 0.00000000
60 -5.81618500 -2.35348000 -2.95539300 3.05410900 1.21994400 -2.42261400
time 9
0 -0.00000100 8.45008800 -27.50902600 0.00000000 0.00000000 0.00003100
1 -0.00000200 0.00000000 0.00000000 1.57074700 -1.56714200 -1.57074700
2 4.25546500 -0.33518600 -0.00000200 0.00000000 0.00000000 -0.12484800
3 7.43125200 1.49648100 0.00000200 0.00000000 0.00000000 0.24545000
4 5.27847900 0.16554500 0.00000100 0.00000000 0.00000000 0.04851100
5 0.44867600 -8.23048700 -0.42114700 1.97586600 1.15990900 -1.29878500
6 -6.21447700 -0.00001100 -0.00002900 -2.65627811 -0.54586684 2.03117016
7 11.94488700 0.00000000 0.00000000 -0.57714128 -0.27293098 2.24456098
8 10.62019100 0.00000000 0.00000000 0.69629973 -0.97435613 2.60716321
9 -4.75110800 -0.69449600 0.83058400 0.25822100 -0.42679800 -0.01814500
10 -1.68808000 0.00004500 -0.00003100 0.02077300 -0.01344700 0.44370400
11 -1.33614000 0.00005700 -0.00001000 0.02262200 0.01357900 0.01310400
12 -4.82049000 -0.50946000 -0.22475800 -0.51794700 -0.20395100 1.27501100
13 -1.82698100 -0.00007200 0.00001000 -0.00564800 0.04001900 1.13316200
14 -1.43657300 0.00001000 0.00000400 -0.03832500 -0.06763600 0.42386300
15 -3.99235200 -0.89119000 -1.82790600 -0.63154300 0.23003500 1.59020800
16 -1.40592600 -0.00002900 -0.00000100 0.01041600 -0.02756200 0.51517700
17 -1.17535800 0.00012400 -0.00002200 0.02756300 0.06210400 0.32121000
18 -4.52674700 -0.69057800 -1.12074200 -0.53814300 0.05119000 1.51083300
19 -1.74403400 0.00003400 -0.00000500 -0.10441400 0.03513400 0.99703200
20 -1.36877400 0.00002300 0.00000400 0.00993500 0.05150500 0.08698400
21 -2.03839600 -0.89278700 0.93250300 1.87406100 0.59212900 0.93407900
22 -1.70606700 0.14882300 0.13171700 -0.00219900 0.10978600 0.45261700
23 -1.59927600 0.00001100 0.00001000 0.02756800 -0.03282500 0.85320200
24 5.51182300 0.00001100 -0.00000300 2.10196300 0.00000000 -3.14159231
25 0.19684700 -0.00000100 0.00000300 2.79340693 -0.00049817 -3.14147732
26 -2.40499600 -16.72850600 -3.12523400 1.97586200 1.15991000 1.84280300
27 6.21448900 0.00001000 0.00002100 -0.64344445 0.54055437 -1.92869477
28 11.94488500 -0.00003700 -0.00019900 -0.62995621 -0.35413385 -1.50576763
29 10.62017900 -0.00000400 0.00001000 -2.92017246 -0.62635775 0.61613007
30 4.75117700 0.69437400 -0.83047800 -0.00218500 -0.27934700 0.09492700
31 1.68806800 -0.00001600 0.00000000 0.00755100 -0.02358000 1.12872900
32 1.33615100 -0.00005100 -0.00001000 -0.02572300 -0.02900100 1.09740300
33 4.82052000 0.50934200 0.22486500 -0.20771000 -0.26184600 0.41698400
34 1.82699200 0.00006700 0.00001000 0.02485800 0.03193200 1.93402400
35 1.43658100 -0.00000600 0.00001000 0.01515000 0.00045200 -0.75718600
36 3.99235900 0.89108700 1.82799600 -0.45840900 0.11077300 1.10533100
37 1.40592600 0.00003300 -0.00000300 -0.01231800 -0.02677000 1.30554600
38 1.17535400 -0.00013000 0.00000200 -0.09551900 0.07798600 -0.93359900
39 4.52677200 0.69046600 1.12084100 -0.37138300 -0.06910400 0.81424300
40 1.74403400 -0.00002200 -0.00000100 -0.02939300 -0.00337500 1.86812600
41 1.36875900 -0.00003200 -0.00002200 -0.12957300 0.09181900 -1.14340300
42 1.80926600 0.89529100 -1.12011200 1.88461400 0.36803000 0.40774200
43 1.49513600 -0.24140400 0.04487600 0.00360000 -0.23414300 0.03443400
44 1.57424700 -0.10445100 0.03324300 0.03981700 0.07342300 -0.24671300
45 5.51181100 -0.00001100 0.00000900 -0.95227000 0.00000000 0.00000000
46 0.19684800 0.00001000 -0.00000100 -0.34822500 0.00001500 -0.00000200
47 0.00000000 1.00000000 0.00000000 0.00000000 0.00000000 -1.57079600
48 -2.88370600 60.35387800 -4.45282200 0.00000000 0.00000000 -3.14156200
49 -2.95526536 75.83451298 -0.73394227 0.38518976 0.10572773 -1.12727066
50 12.20105700 2.53375100 -1.62955000 0.03858800 1.27717300 1.83666800
51 4.53929200 0.00125700 -1.22600900 0.00000000 0.00000000 0.00000000
52 -1.39520600 -0.00627800 -1.83046200 0.00000000 0.00000000 0.00000000
53 0.35743300 0.00066700 1.95120800 0.00000000 0.00000000 0.00000000
54 2.07324200 -1.19960400 0.38264400 0.00000000 0.00000000 0.00000000
55 3.48523300 -0.00628100 -2.12263900 0.00000000 0.00000000 0.00000000
56 2.90164200 0.00125700 1.45321600 0.00000000 0.00000000 0.00000000
57 0.00000000 0.00000000 0.00000000 0.00000000 0.00000000 -1.57079600
58 -31.74032600 -1.30138900 -0.17479500 -0.44920900 0.00000000 0.00000000
59 -31.74769600 1.26414300 -0.16570300 0.44106700 0.00000000 0.00000000
60 -5.81618500 -2.35348000 -2.95539300 3.05410900 1.21994400 -2.42261400
time 10
0 -0.00000100 8.45008800 -27.50902600 0.00000000 0.00000000 0.00003100
1 -0.00000200 0.00000000 0.00000000 1.57074700 -1.56714200 -1.57074700
2 4.25546500 -0.33518600 -0.00000200 0.00000000 0.00000000 -0.12484800
3 7.43125200 1.49648100 0.00000200 0.00000000 0.00000000 0.24545000
4 5.27847900 0.16554500 0.00000100 0.00000000 0.00000000 0.04851100
5 0.72190500 -7.62762600 -2.28855300 1.97586600 1.15990900 -1.29878500
6 -6.21447700 -0.00001100 -0.00002900 -2.65234036 -0.51309861 2.16544096
7 11.94488700 0.00000000 0.00000000 -0.57119644 -0.28016636 2.22298014
8 10.62019100 0.00000000 0.00000000 0.62638929 -0.98072854 2.62659568
9 -4.75110800 -0.69449600 0.83058400 0.25822100 -0.42679800 -0.01814500
10 -1.68808000 0.00004500 -0.00003100 0.02077300 -0.01344700 0.44370400
11 -1.33614000 0.00005700 -0.00001000 0.02262200 0.01357900 0.01310400
12 -4.82049000 -0.50946000 -0.22475800 -0.51794700 -0.20395100 1.27501100
13 -1.82698100 -0.00007200 0.00001000 -0.00564800 0.04001900 1.13316200
14 -1.43657300 0.00001000 0.00000400 -0.03832500 -0.06763600 0.42386300
15 -3.99235200 -0.89119000 -1.82790600 -0.63154300 0.23003500 1.59020800
16 -1.40592600 -0.00002900 -0.00000100 0.01041600 -0.02756200 0.51517700
17 -1.17535800 0.00012400 -0.00002200 0.02756300 0.06210400 0.32121000
18 -4.52674700 -0.69057800 -1.12074200 -0.53814300 0.05119000 1.51083300
19 -1.74403400 0.00003400 -0.00000500 -0.10441400 0.03513400 0.99703200
20 -1.36877400 0.00002300 0.00000400 0.00993500 0.05150500 0.08698400
21 -2.03839600 -0.89278700 0.93250300 1.87406100 0.59212900 0.93407900
22 -1.70606700 0.14882300 0.13171700 -0.00219900 0.10978600 0.45261700
23 -1.59927600 0.00001100 0.00001000 0.02756800 -0.03282500 0.85320200
24 5.51182300 0.00001100 -0.00000300 2.10196300 0.00000000 -3.14159231
25 0.19684700 -0.00000100 0.00000300 2.79340693 -0.00049817 -3.14147732
26 -2.40499600 -16.72850600 -3.12523400 1.97586200 1.15991000 1.84280300
27 6.21448900 0.00001000 0.00002100 -0.62945203 0.50236615 -2.01723704
28 11.94488500 -0.00003700 -0.00019900 -0.67411178 -0.34660307 -1.37559319
29 10.62017900 -0.00000400 0.00001000 -2.94335784 -0.54230946 0.61189474
30 4.75117700 0.69437400 -0.83047800 -0.00218500 -0.27934700 0.09492700
31 1.68806800 -0.00001600 0.00000000 0.00755100 -0.02358000 1.12872900
32 1.33615100 -0.00005100 -0.00001000 -0.02572300 -0.02900100 1.09740300
33 4.82052000 0.50934200 0.22486500 -0.20771000 -0.26184600 0.41698400
34 1.82699200 0.00006700 0.00001000 0.02485800 0.03193200 1.93402400
35 1.43658100 -0.00000600 0.00001000 0.01515000 0.00045200 -0.75718600
36 3.99235900 0.89108700 1.82799600 -0.45840900 0.11077300 1.10533100
37 1.40592600 0.00003300 -0.00000300 -0.01231800 -0.02677000 1.30554600
38 1.17535400 -0.00013000 0.00000200 -0.09551900 0.07798600 -0.93359900
39 4.52677200 0.69046600 1.12084100 -0.37138300 -0.06910400 0.81424300
40 1.74403400 -0.00002200 -0.00000100 -0.02939300 -0.00337500 1.86812600
41 1.36875900 -0.00003200 -0.00002200 -0.12957300 0.09181900 -1.14340300
42 1.80926600 0.89529100 -1.12011200 1.88461400 0.36803000 0.40774200
43 1.49513600 -0.24140400 0.04487600 0.00360000 -0.23414300 0.03443400
44 1.57424700 -0.10445100 0.03324300 0.03981700 0.07342300 -0.24671300
45 5.51181100 -0.00001100 0.00000900 -0.95227000 0.00000000 0.00000000
46 0.19684800 0.00001000 -0.00000100 -0.34822500 0.00001500 -0.00000200
47 0.00000000 1.00000000 0.00000000 0.00000000 0.00000000 -1.57079600
48 -2.88370600 60.35387800 -4.45282200 0.00000000 0.00000000 -3.14156200
49 -2.03171032 75.94593998 -0.62538798 0.33146842 0.08262280 -1.26277484
50 12.20110900 2.53371600 -1.62955200 0.03858800 1.27717300 1.83666800
51 4.53929200 0.00125700 -1.22600900 0.00000000 0.00000000 0.00000000
52 -1.39520600 -0.00627800 -1.83046200 0.00000000 0.00000000 0.00000000
53 0.35743300 0.00066700 1.95120800 0.00000000 0.00000000 0.00000000
54 2.07324200 -1.19960400 0.38264400 0.00000000 0.00000000 0.00000000
55 3.48523300 -0.00628100 -2.12263900 0.00000000 0.00000000 0.00000000
56 2.90164200 0.00125700 1.45321600 0.00000000 0.00000000 0.00000000
57 0.00000000 0.00000000 0.00000000 0.00000000 0.00000000 -1.57079600
58 -31.74032600 -1.30138900 -0.17479500 -0.44920900 0.00000000 0.00000000
59 -31.74769600 1.26414300 -0.16570300 0.44106700 0.00000000 0.00000000
60 -5.81618500 -2.35348000 -2.95539300 3.05410900 1.21994400 -2.42261400
time 11
0 -0.00000100 8.45008800 -27.50902600 0.00000000 0.00000000 0.00003100
1 -0.00000200 0.00000000 0.00000000 1.57074700 -1.56714200 -1.57074700
2 4.25546500 -0.33518600 -0.00000200 0.00000000 0.00000000 -0.12484800
3 7.43125200 1.49648100 0.00000200 0.00000000 0.00000000 0.24545000
4 5.27847900 0.16554500 0.00000100 0.00000000 0.00000000 0.04851100
5 0.82554300 -7.39895600 -2.99688000 1.97586600 1.15990900 -1.29878500
6 -6.21447700 -0.00001100 -0.00002900 -2.64474281 -0.48666236 2.19873687
7 11.94488700 0.00000000 0.00000000 -0.57550775 -0.27728020 2.23872639
8 10.62019100 0.00000000 0.00000000 0.67087837 -0.97864844 2.46846324
9 -4.75110800 -0.69449600 0.83058400 0.25822100 -0.42679800 -0.01814500
10 -1.68808000 0.00004500 -0.00003100 0.02077300 -0.01344700 0.44370400
11 -1.33614000 0.00005700 -0.00001000 0.02262200 0.01357900 0.01310400
12 -4.82049000 -0.50946000 -0.22475800 -0.51794700 -0.20395100 1.27501100
13 -1.82698100 -0.00007200 0.00001000 -0.00564800 0.04001900 1.13316200
14 -1.43657300 0.00001000 0.00000400 -0.03832500 -0.06763600 0.42386300
15 -3.99235200 -0.89119000 -1.82790600 -0.63154300 0.23003500 1.59020800
16 -1.40592600 -0.00002900 -0.00000100 0.01041600 -0.02756200 0.51517700
17 -1.17535800 0.00012400 -0.00002200 0.02756300 0.06210400 0.32121000
18 -4.52674700 -0.69057800 -1.12074200 -0.53814300 0.05119000 1.51083300
19 -1.74403400 0.00003400 -0.00000500 -0.10441400 0.03513400 0.99703200
20 -1.36877400 0.00002300 0.00000400 0.00993500 0.05150500 0.08698400
21 -2.03839600 -0.89278700 0.93250300 1.87406100 0.59212900 0.93407900
22 -1.70606700 0.14882300 0.13171700 -0.00219900 0.10978600 0.45261700
23 -1.59927600 0.00001100 0.00001000 0.02756800 -0.03282500 0.85320200
24 5.51182300 0.00001100 -0.00000300 2.10196300 0.00000000 -3.14159231
25 0.19684700 -0.00000100 0.00000300 2.79340693 -0.00049817 -3.14147732
26 -2.40499600 -16.72850600 -3.12523400 1.97586200 1.15991000 1.84280300
27 6.21448900 0.00001000 0.00002100 -0.62623371 0.46409775 -2.09381542
28 11.94488500 -0.00003700 -0.00019900 -0.71276308 -0.33550967 -1.25920314
29 10.62017900 -0.00000400 0.00001000 -2.94402807 -0.46400018 0.61884476
30 4.75117700 0.69437400 -0.83047800 -0.00218500 -0.27934700 0.09492700
31 1.68806800 -0.00001600 0.00000000 0.00755100 -0.02358000 1.12872900
32 1.33615100 -0.00005100 -0.00001000 -0.02572300 -0.02900100 1.09740300
33 4.82052000 0.50934200 0.22486500 -0.20771000 -0.26184600 0.41698400
34 1.82699200 0.00006700 0.00001000 0.02485800 0.03193200 1.93402400
35 1.43658100 -0.00000600 0.00001000 0.01515000 0.00045200 -0.75718600
36 3.99235900 0.89108700 1.82799600 -0.45840900 0.11077300 1.10533100
37 1.40592600 0.00003300 -0.00000300 -0.01231800 -0.02677000 1.30554600
38 1.17535400 -0.00013000 0.00000200 -0.09551900 0.07798600 -0.93359900
39 4.52677200 0.69046600 1.12084100 -0.37138300 -0.06910400 0.81424300
40 1.74403400 -0.00002200 -0.00000100 -0.02939300 -0.00337500 1.86812600
41 1.36875900 -0.00003200 -0.00002200 -0.12957300 0.09181900 -1.14340300
42 1.80926600 0.89529100 -1.12011200 1.88461400 0.36803000 0.40774200
43 1.49513600 -0.24140400 0.04487600 0.00360000 -0.23414300 0.03443400
44 1.57424700 -0.10445100 0.03324300 0.03981700 0.07342300 -0.24671300
45 5.51181100 -0.00001100 0.00000900 -0.95227000 0.00000000 0.00000000
46 0.19684800 0.00001000 -0.00000100 -0.34822500 0.00001500 -0.00000200
47 0.00000000 1.00000000 0.00000000 0.00000000 0.00000000 -1.57079600
48 -2.88370600 60.35387800 -4.45282200 0.00000000 0.00000000 -3.14156200
49 -1.24174908 76.04669398 -0.47047200 0.26953296 0.05899897 -1.37378871
50 12.20107500 2.53369700 -1.62949500 0.03858800 1.27717300 1.83666800
51 4.53929200 0.00125700 -1.22600900 0.00000000 0.00000000 0.00000000
52 -1.39520600 -0.00627800 -1.83046200 0.00000000 0.00000000 0.00000000
53 0.35743300 0.00066700 1.95120800 0.00000000 0.00000000 0.00000000
54 2.07324200 -1.19960400 0.38264400 0.00000000 0.00000000 0.00000000
55 3.48523300 -0.00628100 -2.12263900 0.00000000 0.00000000 0.00000000
56 2.90164200 0.00125700 1.45321600 0.00000000 0.00000000 0.00000000
57 0.00000000 0.00000000 0.00000000 0.00000000 0.00000000 -1.57079600
58 -31.74032600 -1.30138900 -0.17479500 -0.44920900 0.00000000 0.00000000
59 -31.74769600 1.26414300 -0.16570300 0.44106700 0.00000000 0.00000000
60 -5.81618500 -2.35348000 -2.95539300 3.05410900 1.21994400 -2.42261400
time 12
0 -0.00000100 8.45008800 -27.50902600 0.00000000 0.00000000 0.00003100
1 -0.00000200 0.00000000 0.00000000 1.57074700 -1.56714200 -1.57074700
2 4.25546500 -0.33518600 -0.00000200 0.00000000 0.00000000 -0.12484800
3 7.43125200 1.49648100 0.00000200 0.00000000 0.00000000 0.24545000
4 5.27847900 0.16554500 0.00000100 0.00000000 0.00000000 0.04851100
5 0.82554300 -7.39895600 -2.99688000 1.97586600 1.15990900 -1.29878500
6 -6.21447700 -0.00001100 -0.00002900 -2.64416577 -0.45294377 2.18324154
7 11.94488700 0.00000000 0.00000000 -0.58576681 -0.26888546 2.27635164
8 10.62019100 0.00000000 0.00000000 0.74676781 -0.96220019 2.24033909
9 -4.75110800 -0.69449600 0.83058400 0.25822100 -0.42679800 -0.01814500
10 -1.68808000 0.00004500 -0.00003100 0.02077300 -0.01344700 0.44370400
11 -1.33614000 0.00005700 -0.00001000 0.02262200 0.01357900 0.01310400
12 -4.82049000 -0.50946000 -0.22475800 -0.51794700 -0.20395100 1.27501100
13 -1.82698100 -0.00007200 0.00001000 -0.00564800 0.04001900 1.13316200
14 -1.43657300 0.00001000 0.00000400 -0.03832500 -0.06763600 0.42386300
15 -3.99235200 -0.89119000 -1.82790600 -0.63154300 0.23003500 1.59020800
16 -1.40592600 -0.00002900 -0.00000100 0.01041600 -0.02756200 0.51517700
17 -1.17535800 0.00012400 -0.00002200 0.02756300 0.06210400 0.32121000
18 -4.52674700 -0.69057800 -1.12074200 -0.53814300 0.05119000 1.51083300
19 -1.74403400 0.00003400 -0.00000500 -0.10441400 0.03513400 0.99703200
20 -1.36877400 0.00002300 0.00000400 0.00993500 0.05150500 0.08698400
21 -2.03839600 -0.89278700 0.93250300 1.87406100 0.59212900 0.93407900
22 -1.70606700 0.14882300 0.13171700 -0.00219900 0.10978600 0.45261700
23 -1.59927600 0.00001100 0.00001000 0.02756800 -0.03282500 0.85320200
24 5.51182300 0.00001100 -0.00000300 2.10196300 0.00000000 -3.14159231
25 0.19684700 -0.00000100 0.00000300 2.79340693 -0.00049817 -3.14147732
26 -2.40499600 -16.72850600 -3.12523400 1.97586200 1.15991000 1.84280300
27 6.21448900 0.00001000 0.00002100 -0.62839240 0.42883774 -2.15564546
28 11.94488500 -0.00003700 -0.00019900 -0.74438737 -0.32306603 -1.16115685
29 10.62017900 -0.00000400 0.00001000 -2.93100470 -0.39810786 0.63313025
30 4.75117700 0.69437400 -0.83047800 -0.00218500 -0.27934700 0.09492700
31 1.68806800 -0.00001600 0.00000000 0.00755100 -0.02358000 1.12872900
32 1.33615100 -0.00005100 -0.00001000 -0.02572300 -0.02900100 1.09740300
33 4.82052000 0.50934200 0.22486500 -0.20771000 -0.26184600 0.41698400
34 1.82699200 0.00006700 0.00001000 0.02485800 0.03193200 1.93402400
35 1.43658100 -0.00000600 0.00001000 0.01515000 0.00045200 -0.75718600
36 3.99235900 0.89108700 1.82799600 -0.45840900 0.11077300 1.10533100
37 1.40592600 0.00003300 -0.00000300 -0.01231800 -0.02677000 1.30554600
38 1.17535400 -0.00013000 0.00000200 -0.09551900 0.07798600 -0.93359900
39 4.52677200 0.69046600 1.12084100 -0.37138300 -0.06910400 0.81424300
40 1.74403400 -0.00002200 -0.00000100 -0.02939300 -0.00337500 1.86812600
41 1.36875900 -0.00003200 -0.00002200 -0.12957300 0.09181900 -1.14340300
42 1.80926600 0.89529100 -1.12011200 1.88461400 0.36803000 0.40774200
43 1.49513600 -0.24140400 0.04487600 0.00360000 -0.23414300 0.03443400
44 1.57424700 -0.10445100 0.03324300 0.03981700 0.07342300 -0.24671300
45 5.51181100 -0.00001100 0.00000900 -0.95227000 0.00000000 0.00000000
46 0.19684800 0.00001000 -0.00000100 -0.34822500 0.00001500 -0.00000200
47 0.00000000 1.00000000 0.00000000 0.00000000 0.00000000 -1.57079600
48 -2.88370600 60.35387800 -4.45282200 0.00000000 0.00000000 -3.14156200
49 -0.59725647 76.13248598 -0.29593702 0.20819786 0.03533073 -1.45919868
50 12.20099800 2.53366400 -1.62939800 0.03858800 1.27717300 1.83666800
51 4.53929200 0.00125700 -1.22600900 0.00000000 0.00000000 0.00000000
52 -1.39520600 -0.00627800 -1.83046200 0.00000000 0.00000000 0.00000000
53 0.35743300 0.00066700 1.95120800 0.00000000 0.00000000 0.00000000
54 2.07324200 -1.19960400 0.38264400 0.00000000 0.00000000 0.00000000
55 3.48523300 -0.00628100 -2.12263900 0.00000000 0.00000000 0.00000000
56 2.90164200 0.00125700 1.45321600 0.00000000 0.00000000 0.00000000
57 0.00000000 0.00000000 0.00000000 0.00000000 0.00000000 -1.57079600
58 -31.74032600 -1.30138900 -0.17479500 -0.44920900 0.00000000 0.00000000
59 -31.74769600 1.26414300 -0.16570300 0.44106700 0.00000000 0.00000000
60 -5.81618500 -2.35348000 -2.95539300 3.05410900 1.21994400 -2.42261400
time 13
0 -0.00000100 8.45008800 -27.50902600 0.00000000 0.00000000 0.00003100
1 -0.00000200 0.00000000 0.00000000 1.57074700 -1.56714200 -1.57074700
2 4.25546500 -0.33518600 -0.00000200 0.00000000 0.00000000 -0.12484800
3 7.43125200 1.49648100 0.00000200 0.00000000 0.00000000 0.24545000
4 5.27847900 0.16554500 0.00000100 0.00000000 0.00000000 0.04851100
5 0.82554300 -7.39895600 -2.99688000 1.97586600 1.15990900 -1.29878500
6 -6.21447700 -0.00001100 -0.00002900 -2.66013039 -0.41003556 2.17998899
7 11.94488700 0.00000000 0.00000000 -0.59065209 -0.26518528 2.29498188
8 10.62019100 0.00000000 0.00000000 0.75286439 -0.93913819 2.09826969
9 -4.75110800 -0.69449600 0.83058400 0.25822100 -0.42679800 -0.01814500
10 -1.68808000 0.00004500 -0.00003100 0.02077300 -0.01344700 0.44370400
11 -1.33614000 0.00005700 -0.00001000 0.02262200 0.01357900 0.01310400
12 -4.82049000 -0.50946000 -0.22475800 -0.51794700 -0.20395100 1.27501100
13 -1.82698100 -0.00007200 0.00001000 -0.00564800 0.04001900 1.13316200
14 -1.43657300 0.00001000 0.00000400 -0.03832500 -0.06763600 0.42386300
15 -3.99235200 -0.89119000 -1.82790600 -0.63154300 0.23003500 1.59020800
16 -1.40592600 -0.00002900 -0.00000100 0.01041600 -0.02756200 0.51517700
17 -1.17535800 0.00012400 -0.00002200 0.02756300 0.06210400 0.32121000
18 -4.52674700 -0.69057800 -1.12074200 -0.53814300 0.05119000 1.51083300
19 -1.74403400 0.00003400 -0.00000500 -0.10441400 0.03513400 0.99703200
20 -1.36877400 0.00002300 0.00000400 0.00993500 0.05150500 0.08698400
21 -2.03839600 -0.89278700 0.93250300 1.87406100 0.59212900 0.93407900
22 -1.70606700 0.14882300 0.13171700 -0.00219900 0.10978600 0.45261700
23 -1.59927600 0.00001100 0.00001000 0.02756800 -0.03282500 0.85320200
24 5.51182300 0.00001100 -0.00000300 2.10196300 0.00000000 -3.14159231
25 0.19684700 -0.00000100 0.00000300 2.79340693 -0.00049817 -3.14147732
26 -2.40499600 -16.72850600 -3.12523400 1.97586200 1.15991000 1.84280300
27 6.21448900 0.00001000 0.00002100 -0.63326928 0.39903413 -2.20141711
28 11.94488500 -0.00003700 -0.00019900 -0.76802892 -0.31165729 -1.08543151
29 10.62017900 -0.00000400 0.00001000 -2.90958380 -0.34832577 0.65148895
30 4.75117700 0.69437400 -0.83047800 -0.00218500 -0.27934700 0.09492700
31 1.68806800 -0.00001600 0.00000000 0.00755100 -0.02358000 1.12872900
32 1.33615100 -0.00005100 -0.00001000 -0.02572300 -0.02900100 1.09740300
33 4.82052000 0.50934200 0.22486500 -0.20771000 -0.26184600 0.41698400
34 1.82699200 0.00006700 0.00001000 0.02485800 0.03193200 1.93402400
35 1.43658100 -0.00000600 0.00001000 0.01515000 0.00045200 -0.75718600
36 3.99235900 0.89108700 1.82799600 -0.45840900 0.11077300 1.10533100
37 1.40592600 0.00003300 -0.00000300 -0.01231800 -0.02677000 1.30554600
38 1.17535400 -0.00013000 0.00000200 -0.09551900 0.07798600 -0.93359900
39 4.52677200 0.69046600 1.12084100 -0.37138300 -0.06910400 0.81424300
40 1.74403400 -0.00002200 -0.00000100 -0.02939300 -0.00337500 1.86812600
41 1.36875900 -0.00003200 -0.00002200 -0.12957300 0.09181900 -1.14340300
42 1.80926600 0.89529100 -1.12011200 1.88461400 0.36803000 0.40774200
43 1.49513600 -0.24140400 0.04487600 0.00360000 -0.23414300 0.03443400
44 1.57424700 -0.10445100 0.03324300 0.03981700 0.07342300 -0.24671300
45 5.51181100 -0.00001100 0.00000900 -0.95227000 0.00000000 0.00000000
46 0.19684800 0.00001000 -0.00000100 -0.34822500 0.00001500 -0.00000200
47 0.00000000 1.00000000 0.00000000 0.00000000 0.00000000 -1.57079600
48 -2.88370600 60.35387800 -4.45282200 0.00000000 0.00000000 -3.14156200
49 -0.11098584 76.19905998 -0.12881672 0.15243293 0.01538450 -1.51966153
50 12.20096500 2.53360900 -1.62933400 0.03858800 1.27717300 1.83666800
51 4.53929200 0.00125700 -1.22600900 0.00000000 0.00000000 0.00000000
52 -1.39520600 -0.00627800 -1.83046200 0.00000000 0.00000000 0.00000000
53 0.35743300 0.00066700 1.95120800 0.00000000 0.00000000 0.00000000
54 2.07324200 -1.19960400 0.38264400 0.00000000 0.00000000 0.00000000
55 3.48523300 -0.00628100 -2.12263900 0.00000000 0.00000000 0.00000000
56 2.90164200 0.00125700 1.45321600 0.00000000 0.00000000 0.00000000
57 0.00000000 0.00000000 0.00000000 0.00000000 0.00000000 -1.57079600
58 -31.74032600 -1.30138900 -0.17479500 -0.44920900 0.00000000 0.00000000
59 -31.74769600 1.26414300 -0.16570300 0.44106700 0.00000000 0.00000000
60 -5.81618500 -2.35348000 -2.95539300 3.05410900 1.21994400 -2.42261400
time 14
0 -0.00000100 8.45008800 -27.50902600 0.00000000 0.00000000 0.00003100
1 -0.00000200 0.00000000 0.00000000 1.57074700 -1.56714200 -1.57074700
2 4.25546500 -0.33518600 -0.00000200 0.00000000 0.00000000 -0.12484800
3 7.43125200 1.49648100 0.00000200 0.00000000 0.00000000 0.24545000
4 5.27847900 0.16554500 0.00000100 0.00000000 0.00000000 0.04851100
5 0.82554300 -7.39895600 -2.99688000 1.97586600 1.15990900 -1.29878500
6 -6.21447700 -0.00001100 -0.00002900 -2.67975563 -0.37370043 2.18474072
7 11.94488700 0.00000000 0.00000000 -0.59264011 -0.26405806 2.30246269
8 10.62019100 0.00000000 0.00000000 0.72298752 -0.92243780 2.02741831
9 -4.75110800 -0.69449600 0.83058400 0.25822100 -0.42679800 -0.01814500
10 -1.68808000 0.00004500 -0.00003100 0.02077300 -0.01344700 0.44370400
11 -1.33614000 0.00005700 -0.00001000 0.02262200 0.01357900 0.01310400
12 -4.82049000 -0.50946000 -0.22475800 -0.51794700 -0.20395100 1.27501100
13 -1.82698100 -0.00007200 0.00001000 -0.00564800 0.04001900 1.13316200
14 -1.43657300 0.00001000 0.00000400 -0.03832500 -0.06763600 0.42386300
15 -3.99235200 -0.89119000 -1.82790600 -0.63154300 0.23003500 1.59020800
16 -1.40592600 -0.00002900 -0.00000100 0.01041600 -0.02756200 0.51517700
17 -1.17535800 0.00012400 -0.00002200 0.02756300 0.06210400 0.32121000
18 -4.52674700 -0.69057800 -1.12074200 -0.53814300 0.05119000 1.51083300
19 -1.74403400 0.00003400 -0.00000500 -0.10441400 0.03513400 0.99703200
20 -1.36877400 0.00002300 0.00000400 0.00993500 0.05150500 0.08698400
21 -2.03839600 -0.89278700 0.93250300 1.87406100 0.59212900 0.93407900
22 -1.70606700 0.14882300 0.13171700 -0.00219900 0.10978600 0.45261700
23 -1.59927600 0.00001100 0.00001000 0.02756800 -0.03282500 0.85320200
24 5.51182300 0.00001100 -0.00000300 2.10196300 0.00000000 -3.14159231
25 0.19684700 -0.00000100 0.00000300 2.79340693 -0.00049817 -3.14147732
26 -2.40499600 -16.72850600 -3.12523400 1.97586200 1.15991000 1.84280300
27 6.21448900 0.00001000 0.00002100 -0.63859349 0.37750964 -2.23021561
28 11.94488500 -0.00003700 -0.00019900 -0.78303764 -0.30337124 -1.03595333
29 10.62017900 -0.00000400 0.00001000 -2.88688156 -0.31716078 0.66887129
30 4.75117700 0.69437400 -0.83047800 -0.00218500 -0.27934700 0.09492700
31 1.68806800 -0.00001600 0.00000000 0.00755100 -0.02358000 1.12872900
32 1.33615100 -0.00005100 -0.00001000 -0.02572300 -0.02900100 1.09740300
33 4.82052000 0.50934200 0.22486500 -0.20771000 -0.26184600 0.41698400
34 1.82699200 0.00006700 0.00001000 0.02485800 0.03193200 1.93402400
35 1.43658100 -0.00000600 0.00001000 0.01515000 0.00045200 -0.75718600
36 3.99235900 0.89108700 1.82799600 -0.45840900 0.11077300 1.10533100
37 1.40592600 0.00003300 -0.00000300 -0.01231800 -0.02677000 1.30554600
38 1.17535400 -0.00013000 0.00000200 -0.09551900 0.07798600 -0.93359900
39 4.52677200 0.69046600 1.12084100 -0.37138300 -0.06910400 0.81424300
40 1.74403400 -0.00002200 -0.00000100 -0.02939300 -0.00337500 1.86812600
41 1.36875900 -0.00003200 -0.00002200 -0.12957300 0.09181900 -1.14340300
42 1.80926600 0.89529100 -1.12011200 1.88461400 0.36803000 0.40774200
43 1.49513600 -0.24140400 0.04487600 0.00360000 -0.23414300 0.03443400
44 1.57424700 -0.10445100 0.03324300 0.03981700 0.07342300 -0.24671300
45 5.51181100 -0.00001100 0.00000900 -0.95227000 0.00000000 0.00000000
46 0.19684800 0.00001000 -0.00000100 -0.34822500 0.00001500 -0.00000200
47 0.00000000 1.00000000 0.00000000 0.00000000 0.00000000 -1.57079600
48 -2.88370600 60.35387800 -4.45282200 0.00000000 0.00000000 -3.14156200
49 0.20427439 76.24213598 0.00118028 0.10916869 0.00239442 -1.55571668
50 12.20095800 2.53356200 -1.62930400 0.03858800 1.27717300 1.83666800
51 4.53929200 0.00125700 -1.22600900 0.00000000 0.00000000 0.00000000
52 -1.39520600 -0.00627800 -1.83046200 0.00000000 0.00000000 0.00000000
53 0.35743300 0.00066700 1.95120800 0.00000000 0.00000000 0.00000000
54 2.07324200 -1.19960400 0.38264400 0.00000000 0.00000000 0.00000000
55 3.48523300 -0.00628100 -2.12263900 0.00000000 0.00000000 0.00000000
56 2.90164200 0.00125700 1.45321600 0.00000000 0.00000000 0.00000000
57 0.00000000 0.00000000 0.00000000 0.00000000 0.00000000 -1.57079600
58 -31.74032600 -1.30138900 -0.17479500 -0.44920900 0.00000000 0.00000000
59 -31.74769600 1.26414300 -0.16570300 0.44106700 0.00000000 0.00000000
60 -5.81618500 -2.35348000 -2.95539300 3.05410900 1.21994400 -2.42261400
time 15
0 -0.00000100 8.45008800 -27.50902600 0.00000000 0.00000000 0.00003100
1 -0.00000200 0.00000000 0.00000000 1.57074700 -1.56714200 -1.57074700
2 4.25546500 -0.33518600 -0.00000200 0.00000000 0.00000000 -0.12484800
3 7.43125200 1.49648100 0.00000200 0.00000000 0.00000000 0.24545000
4 5.27847900 0.16554500 0.00000100 0.00000000 0.00000000 0.04851100
5 0.82554300 -7.39895600 -2.99688000 1.97586600 1.15990900 -1.29878500
6 -6.21447700 -0.00001100 -0.00002900 -2.68887687 -0.35906530 2.18960319
7 11.94488700 0.00000000 0.00000000 -0.59304369 -0.26397836 2.30388039
8 10.62019100 0.00000000 0.00000000 0.69996504 -0.91666105 2.01011830
9 -4.75110800 -0.69449600 0.83058400 0.25822100 -0.42679800 -0.01814500
10 -1.68808000 0.00004500 -0.00003100 0.02077300 -0.01344700 0.44370400
11 -1.33614000 0.00005700 -0.00001000 0.02262200 0.01357900 0.01310400
12 -4.82049000 -0.50946000 -0.22475800 -0.51794700 -0.20395100 1.27501100
13 -1.82698100 -0.00007200 0.00001000 -0.00564800 0.04001900 1.13316200
14 -1.43657300 0.00001000 0.00000400 -0.03832500 -0.06763600 0.42386300
15 -3.99235200 -0.89119000 -1.82790600 -0.63154300 0.23003500 1.59020800
16 -1.40592600 -0.00002900 -0.00000100 0.01041600 -0.02756200 0.51517700
17 -1.17535800 0.00012400 -0.00002200 0.02756300 0.06210400 0.32121000
18 -4.52674700 -0.69057800 -1.12074200 -0.53814300 0.05119000 1.51083300
19 -1.74403400 0.00003400 -0.00000500 -0.10441400 0.03513400 0.99703200
20 -1.36877400 0.00002300 0.00000400 0.00993500 0.05150500 0.08698400
21 -2.03839600 -0.89278700 0.93250300 1.87406100 0.59212900 0.93407900
22 -1.70606700 0.14882300 0.13171700 -0.00219900 0.10978600 0.45261700
23 -1.59927600 0.00001100 0.00001000 0.02756800 -0.03282500 0.85320200
24 5.51182300 0.00001100 -0.00000300 2.10196300 0.00000000 -3.14159231
25 0.19684700 -0.00000100 0.00000300 2.79340693 -0.00049817 -3.14147732
26 -2.40499600 -16.72850600 -3.12523400 1.97586200 1.15991000 1.84280300
27 6.21448900 0.00001000 0.00002100 -0.64139469 0.36821212 -2.24125930
28 11.94488500 -0.00003700 -0.00019900 -0.78873435 -0.29997894 -1.01670574
29 10.62017900 -0.00000400 0.00001000 -2.87474884 -0.30665056 0.67747498
30 4.75117700 0.69437400 -0.83047800 -0.00218500 -0.27934700 0.09492700
31 1.68806800 -0.00001600 0.00000000 0.00755100 -0.02358000 1.12872900
32 1.33615100 -0.00005100 -0.00001000 -0.02572300 -0.02900100 1.09740300
33 4.82052000 0.50934200 0.22486500 -0.20771000 -0.26184600 0.41698400
34 1.82699200 0.00006700 0.00001000 0.02485800 0.03193200 1.93402400
35 1.43658100 -0.00000600 0.00001000 0.01515000 0.00045200 -0.75718600
36 3.99235900 0.89108700 1.82799600 -0.45840900 0.11077300 1.10533100
37 1.40592600 0.00003300 -0.00000300 -0.01231800 -0.02677000 1.30554600
38 1.17535400 -0.00013000 0.00000200 -0.09551900 0.07798600 -0.93359900
39 4.52677200 0.69046600 1.12084100 -0.37138300 -0.06910400 0.81424300
40 1.74403400 -0.00002200 -0.00000100 -0.02939300 -0.00337500 1.86812600
41 1.36875900 -0.00003200 -0.00002200 -0.12957300 0.09181900 -1.14340300
42 1.80926600 0.89529100 -1.12011200 1.88461400 0.36803000 0.40774200
43 1.49513600 -0.24140400 0.04487600 0.00360000 -0.23414300 0.03443400
44 1.57424700 -0.10445100 0.03324300 0.03981700 0.07342300 -0.24671300
45 5.51181100 -0.00001100 0.00000900 -0.95227000 0.00000000 0.00000000
46 0.19684800 0.00001000 -0.00000100 -0.34822500 0.00001500 -0.00000200
47 0.00000000 1.00000000 0.00000000 0.00000000 0.00000000 -1.57079600
48 -2.88370600 60.35387800 -4.45282200 0.00000000 0.00000000 -3.14156200
49 0.33346138 76.25744798 0.05997843 0.08953118 -0.00188736 -1.56775779
50 12.20096000 2.53354300 -1.62929400 0.03858800 1.27717300 1.83666800
51 4.53929200 0.00125700 -1.22600900 0.00000000 0.00000000 0.00000000
52 -1.39520600 -0.00627800 -1.83046200 0.00000000 0.00000000 0.00000000
53 0.35743300 0.00066700 1.95120800 0.00000000 0.00000000 0.00000000
54 2.07324200 -1.19960400 0.38264400 0.00000000 0.00000000 0.00000000
55 3.48523300 -0.00628100 -2.12263900 0.00000000 0.00000000 0.00000000
56 2.90164200 0.00125700 1.45321600 0.00000000 0.00000000 0.00000000
57 0.00000000 0.00000000 0.00000000 0.00000000 0.00000000 -1.57079600
58 -31.74032600 -1.30138900 -0.17479500 -0.44920900 0.00000000 0.00000000
59 -31.74769600 1.26414300 -0.16570300 0.44106700 0.00000000 0.00000000
60 -5.81618500 -2.35348000 -2.95539300 3.05410900 1.21994400 -2.42261400
end
