version 1
nodes
0 "root" -1
1 "pelvis" 0
2 "spine_01" 1
3 "spine_02" 2
4 "spine_03" 3
5 "clavicle_r" 4
6 "upperarm_r" 5
7 "lowerarm_r" 6
8 "hand_r" 7
9 "index_01_r" 8
10 "index_02_r" 9
11 "index_03_r" 10
12 "middle_01_r" 8
13 "middle_02_r" 12
14 "middle_03_r" 13
15 "pinky_01_r" 8
16 "pinky_02_r" 15
17 "pinky_03_r" 16
18 "ring_01_r" 8
19 "ring_02_r" 18
20 "ring_03_r" 19
21 "thumb_01_r" 8
22 "thumb_02_r" 21
23 "thumb_03_r" 22
24 "lowerarm_twist_01_r" 7
25 "upperarm_twist_01_r" 6
26 "clavicle_l" 4
27 "upperarm_l" 26
28 "lowerarm_l" 27
29 "hand_l" 28
30 "index_01_l" 29
31 "index_02_l" 30
32 "index_03_l" 31
33 "middle_01_l" 29
34 "middle_02_l" 33
35 "middle_03_l" 34
36 "pinky_01_l" 29
37 "pinky_02_l" 36
38 "pinky_03_l" 37
39 "ring_01_l" 29
40 "ring_02_l" 39
41 "ring_03_l" 40
42 "thumb_01_l" 29
43 "thumb_02_l" 42
44 "thumb_03_l" 43
45 "lowerarm_twist_01_l" 28
46 "upperarm_twist_01_l" 27
47 "cam_driver" -1
48 "BaseRoot" -1
49 "Base" 48
50 "Mag" 49
51 "Bullet.001" 50
52 "Bullet.002" 50
53 "Hammer" 49
54 "Trigger" 49
55 "Slide" 49
56 "Rhand_IKtarget" 49
57 "LHand_IKtarget" 49
end
skeleton
time 0
0 -0.00000100 7.45008900 -27.50902600 0.00000000 0.00000000 0.00003100
1 -0.00000200 0.00000000 0.00000000 1.57074700 -1.56714200 -1.57074700
2 4.25546600 -0.33518300 -0.00000200 0.00000000 0.00000000 -0.12484800
3 7.43125000 1.49647900 0.00000200 0.00000000 0.00000000 0.24545000
4 5.27847900 0.16554400 0.00000100 0.00000000 0.00000000 0.04851100
5 3.87697700 -7.41803100 1.48897600 1.97586500 1.15990900 -1.29878600
6 -6.21447800 -0.00000900 -0.00002600 -2.63365972 -0.29971419 1.08606587
7 11.94488500 0.00000000 0.00000000 0.03057369 -0.23981952 0.74551217
8 10.62018800 0.00000000 0.00000000 0.93760342 0.56960623 2.32618575
9 -4.75110800 -0.69449800 0.83058000 -0.26506600 -0.18521200 0.63841500
10 -1.68806800 0.00004700 -0.00003100 0.01731800 -0.01762500 0.66104700
11 -1.33614000 0.00005500 -0.00001000 0.02626800 0.00232700 0.46266200
12 -4.82049400 -0.50946400 -0.22475900 -0.30496400 -0.06094000 1.40487400
13 -1.82698400 -0.00006900 0.00000800 -0.00832800 0.03958800 1.06556400
14 -1.43656900 0.00000400 0.00000300 -0.06013400 -0.04938400 0.79162700
15 -3.99235700 -0.89119100 -1.82790900 -0.45253100 0.08799900 1.29457900
16 -1.40591800 -0.00002500 -0.00000200 0.00059000 -0.02949400 0.85590800
17 -1.17535800 0.00012600 -0.00001900 0.06441700 0.02146300 1.15302800
18 -4.52675100 -0.69058000 -1.12074100 -0.33008200 0.10310600 1.46474500
19 -1.74403800 0.00003200 -0.00000800 -0.01905300 -0.02261400 1.11317400
20 -1.36877100 0.00002300 0.00000200 0.03795400 0.03618700 0.70440900
21 -1.71880500 -1.28270900 0.93153300 1.77370800 0.56821800 0.78269700
22 -1.52344700 0.00003100 0.00003100 0.07372000 -0.05612300 0.69721800
23 -1.59928500 0.00001100 0.00001500 -0.04580400 -0.07477900 0.31886600
24 5.51182000 0.00000800 -0.00000200 2.24315296 0.00016299 3.14150008
25 0.19684600 -0.00000200 0.00000300 2.79340698 -0.00021881 -3.14153255
26 3.24665400 -11.19288100 -1.58033000 1.97586200 1.15991000 1.84280300
27 6.21448600 0.00000800 0.00001900 -0.27354779 0.54745995 -1.73439180
28 11.94488800 -0.00003100 -0.00020000 0.16937732 -0.34920909 -1.41176281
29 10.62016500 0.00000200 0.00000600 -2.96306346 -0.16925044 0.83957313
30 4.75115800 0.69437400 -0.83047400 0.27008600 -0.31842200 0.81032700
31 1.68806500 -0.00002200 0.00000200 0.01539000 -0.01932400 0.76600700
32 1.33615100 -0.00005100 -0.00000900 0.00904800 -0.03764700 0.13514500
33 4.82051500 0.50933800 0.22486600 0.23182200 -0.24475900 0.91537200
34 1.82699200 0.00006600 0.00001000 -0.01154300 0.03879400 0.98337600
35 1.43658100 -0.00000600 0.00001000 0.01325200 -0.00726600 -0.22688700
36 3.99235300 0.89108700 1.82799300 0.04076900 -0.25921600 0.55173200
37 1.40592600 0.00003100 -0.00000300 -0.00899200 -0.02807500 1.18372600
38 1.17536200 -0.00013200 0.00000100 0.07309900 0.09934300 0.59118900
39 4.52675800 0.69046400 1.12084300 0.12505500 -0.23595800 0.82170200
40 1.74404100 -0.00003100 -0.00000200 -0.02363500 -0.01773100 1.34027200
41 1.36876700 -0.00003100 -0.00001800 -0.00637400 0.15858000 -0.22582000
42 1.87485700 0.93508100 -0.99912900 1.90999600 0.49077500 0.45897800
43 1.52345300 -0.00003200 -0.00000200 -0.00806100 -0.03646600 0.60634800
44 1.59928100 -0.00000400 0.00001000 0.06220500 0.05569400 0.09724300
45 5.51180600 -0.00000200 0.00000300 -1.07120500 0.00000000 0.00000000
46 0.19684900 0.00000300 -0.00000100 -0.34822500 0.00001500 -0.00000200
47 0.00000000 0.00000000 0.00000000 0.00000000 0.00000000 -1.57079600
48 -2.98601200 20.86685400 -3.83864100 0.00000000 0.00000000 -3.14156200
49 -2.87978424 40.85797673 0.83215133 -0.00489659 0.00383866 -1.57074539
50 -0.42046500 -0.01874400 1.27144500 0.00000000 0.00000000 0.00000000
51 0.51676100 0.00000000 0.12868600 0.00000000 0.00000000 0.00000000
52 0.55741300 0.00000000 -0.30289700 0.00000000 0.00000000 0.00000000
53 1.17399300 -0.00968900 1.28929900 -0.01138300 1.22624600 -0.03598100
54 -1.50030500 -0.00968900 0.35764300 0.00000000 0.00000000 0.00000000
55 -2.97854200 -0.00968900 2.09113700 0.00000000 0.00000000 0.00000000
56 4.36710500 0.14569600 -1.51799100 0.34347200 1.05899700 1.58127200
57 3.88902300 -2.02805700 -3.39220200 3.01912500 0.54322100 -1.88188800
time 1
0 -0.00000100 7.45008900 -27.50902600 0.00000000 0.00000000 0.00003100
1 -0.00000200 0.00000000 0.00000000 1.57074700 -1.56714200 -1.57074700
2 4.25546600 -0.33518300 -0.00000200 0.00000000 0.00000000 -0.12484800
3 7.43125000 1.49647900 0.00000200 0.00000000 0.00000000 0.24545000
4 5.27847900 0.16554400 0.00000100 0.00000000 0.00000000 0.04851100
5 3.52461900 -7.48408100 1.48897600 1.97586500 1.15990900 -1.29878600
6 -6.21447800 -0.00000900 -0.00002600 -2.63943320 -0.29825040 1.10259306
7 11.94488500 0.00000000 0.00000000 0.01427341 -0.25636702 0.81124087
8 10.62018800 0.00000000 0.00000000 0.91845109 0.52179734 2.24435528
9 -4.75110800 -0.69449800 0.83058000 -0.26506600 -0.18521200 0.63841500
10 -1.68806800 0.00004700 -0.00003100 0.01731800 -0.01762500 0.66104700
11 -1.33614000 0.00005500 -0.00001000 0.02626800 0.00232700 0.46266200
12 -4.82049400 -0.50946400 -0.22475900 -0.30496400 -0.06094000 1.40487400
13 -1.82698400 -0.00006900 0.00000800 -0.00832800 0.03958800 1.06556400
14 -1.43656900 0.00000400 0.00000300 -0.06013400 -0.04938400 0.79162700
15 -3.99235700 -0.89119100 -1.82790900 -0.45253100 0.08799900 1.29457900
16 -1.40591800 -0.00002500 -0.00000200 0.00059000 -0.02949400 0.85590800
17 -1.17535800 0.00012600 -0.00001900 0.06441700 0.02146300 1.15302800
18 -4.52675100 -0.69058000 -1.12074100 -0.33008200 0.10310600 1.46474500
19 -1.74403800 0.00003200 -0.00000800 -0.01905300 -0.02261400 1.11317400
20 -1.36877100 0.00002300 0.00000200 0.03795400 0.03618700 0.70440900
21 -1.71880500 -1.28270900 0.93153300 1.77370800 0.56821800 0.78269700
22 -1.52344700 0.00003100 0.00003100 0.07372000 -0.05612300 0.69721800
23 -1.59928500 0.00001100 0.00001500 -0.04580400 -0.07477900 0.31886600
24 5.51182000 0.00000800 -0.00000200 2.24315296 0.00016299 3.14150008
25 0.19684600 -0.00000200 0.00000300 2.79340698 -0.00021881 -3.14153255
26 2.89429400 -11.25893200 -1.58033000 1.97586200 1.15991000 1.84280300
27 6.21448600 0.00000800 0.00001900 -0.27159435 0.53012065 -1.73341526
28 11.94488800 -0.00003100 -0.00020000 0.18639242 -0.35197681 -1.46180534
29 10.62016500 0.00000200 0.00000600 -2.93861188 -0.12633507 0.91629542
30 4.75115800 0.69437400 -0.83047400 0.27008600 -0.31842200 0.81032700
31 1.68806500 -0.00002200 0.00000200 0.01539000 -0.01932400 0.76600700
32 1.33615100 -0.00005100 -0.00000900 0.00904800 -0.03764700 0.13514500
33 4.82051500 0.50933800 0.22486600 0.23182200 -0.24475900 0.91537200
34 1.82699200 0.00006600 0.00001000 -0.01154300 0.03879400 0.98337600
35 1.43658100 -0.00000600 0.00001000 0.01325200 -0.00726600 -0.22688700
36 3.99235300 0.89108700 1.82799300 0.04076900 -0.25921600 0.55173200
37 1.40592600 0.00003100 -0.00000300 -0.00899200 -0.02807500 1.18372600
38 1.17536200 -0.00013200 0.00000100 0.07309900 0.09934300 0.59118900
39 4.52675800 0.69046400 1.12084300 0.12505500 -0.23595800 0.82170200
40 1.74404100 -0.00003100 -0.00000200 -0.02363500 -0.01773100 1.34027200
41 1.36876700 -0.00003100 -0.00001800 -0.00637400 0.15858000 -0.22582000
42 1.87485700 0.93508100 -0.99912900 1.90999600 0.49077500 0.45897800
43 1.52345300 -0.00003200 -0.00000200 -0.00806100 -0.03646600 0.60634800
44 1.59928100 -0.00000400 0.00001000 0.06220500 0.05569400 0.09724300
45 5.51180600 -0.00000200 0.00000300 -1.07120500 0.00000000 0.00000000
46 0.19684900 0.00000300 -0.00000100 -0.34822500 0.00001500 -0.00000200
47 0.00000000 0.00000000 0.00000000 0.00000000 0.00000000 -1.57079600
48 -2.98601200 20.86685400 -3.83864100 0.00000000 0.00000000 -3.14156200
49 -2.75922189 40.69647773 0.83382827 -0.03204180 -0.02718715 -1.56754968
50 -0.42046500 -0.01874400 1.27144500 0.00000000 0.00000000 0.00000000
51 0.51676100 0.00000000 0.12868600 0.00000000 0.00000000 0.00000000
52 0.55741300 0.00000000 -0.30289700 0.00000000 0.00000000 0.00000000
53 1.17399300 -0.00968900 1.28929900 -0.01138300 1.22624600 -0.03598100
54 -1.50030500 -0.00968900 0.35764300 0.00000000 0.00000000 0.00000000
55 -2.97854200 -0.00968900 2.09113700 0.00000000 0.00000000 0.00000000
56 4.36710500 0.14569600 -1.51799100 0.34347200 1.05899700 1.58127200
57 3.88902300 -2.02805700 -3.39220200 3.01912500 0.54322100 -1.88188800
time 2
0 -0.00000100 7.45008900 -27.50902600 0.00000000 0.00000000 0.00003100
1 -0.00000200 0.00000000 0.00000000 1.57074700 -1.56714200 -1.57074700
2 4.25546600 -0.33518300 -0.00000200 0.00000000 0.00000000 -0.12484800
3 7.43125000 1.49647900 0.00000200 0.00000000 0.00000000 0.24545000
4 5.27847900 0.16554400 0.00000100 0.00000000 0.00000000 0.04851100
5 2.59567000 -7.65821800 1.48897600 1.97586500 1.15990900 -1.29878600
6 -6.21447800 -0.00000900 -0.00002600 -2.65151962 -0.28622488 1.14489560
7 11.94488500 0.00000000 0.00000000 -0.02713968 -0.29004804 0.96379192
8 10.62018800 0.00000000 0.00000000 0.89686028 0.41470667 2.07588453
9 -4.75110800 -0.69449800 0.83058000 -0.26506600 -0.18521200 0.63841500
10 -1.68806800 0.00004700 -0.00003100 0.01731800 -0.01762500 0.66104700
11 -1.33614000 0.00005500 -0.00001000 0.02626800 0.00232700 0.46266200
12 -4.82049400 -0.50946400 -0.22475900 -0.30496400 -0.06094000 1.40487400
13 -1.82698400 -0.00006900 0.00000800 -0.00832800 0.03958800 1.06556400
14 -1.43656900 0.00000400 0.00000300 -0.06013400 -0.04938400 0.79162700
15 -3.99235700 -0.89119100 -1.82790900 -0.45253100 0.08799900 1.29457900
16 -1.40591800 -0.00002500 -0.00000200 0.00059000 -0.02949400 0.85590800
17 -1.17535800 0.00012600 -0.00001900 0.06441700 0.02146300 1.15302800
18 -4.52675100 -0.69058000 -1.12074100 -0.33008200 0.10310600 1.46474500
19 -1.74403800 0.00003200 -0.00000800 -0.01905300 -0.02261400 1.11317400
20 -1.36877100 0.00002300 0.00000200 0.03795400 0.03618700 0.70440900
21 -1.71880500 -1.28270900 0.93153300 1.77370800 0.56821800 0.78269700
22 -1.52344700 0.00003100 0.00003100 0.07372000 -0.05612300 0.69721800
23 -1.59928500 0.00001100 0.00001500 -0.04580400 -0.07477900 0.31886600
24 5.51182000 0.00000800 -0.00000200 2.24315296 0.00016299 3.14150008
25 0.19684600 -0.00000200 0.00000300 2.79340698 -0.00021881 -3.14153255
26 1.96534600 -11.43306700 -1.58033000 1.97586200 1.15991000 1.84280300
27 6.21448600 0.00000800 0.00001900 -0.26432981 0.47421676 -1.74643439
28 11.94488800 -0.00003100 -0.00020000 0.22121741 -0.35500955 -1.56378032
29 10.62016500 0.00000200 0.00000600 -2.89378199 -0.04331779 1.09592229
30 4.75115800 0.69437400 -0.83047400 0.27008600 -0.31842200 0.81032700
31 1.68806500 -0.00002200 0.00000200 0.01539000 -0.01932400 0.76600700
32 1.33615100 -0.00005100 -0.00000900 0.00904800 -0.03764700 0.13514500
33 4.82051500 0.50933800 0.22486600 0.23182200 -0.24475900 0.91537200
34 1.82699200 0.00006600 0.00001000 -0.01154300 0.03879400 0.98337600
35 1.43658100 -0.00000600 0.00001000 0.01325200 -0.00726600 -0.22688700
36 3.99235300 0.89108700 1.82799300 0.04076900 -0.25921600 0.55173200
37 1.40592600 0.00003100 -0.00000300 -0.00899200 -0.02807500 1.18372600
38 1.17536200 -0.00013200 0.00000100 0.07309900 0.09934300 0.59118900
39 4.52675800 0.69046400 1.12084300 0.12505500 -0.23595800 0.82170200
40 1.74404100 -0.00003100 -0.00000200 -0.02363500 -0.01773100 1.34027200
41 1.36876700 -0.00003100 -0.00001800 -0.00637400 0.15858000 -0.22582000
42 1.87485700 0.93508100 -0.99912900 1.90999600 0.49077500 0.45897800
43 1.52345300 -0.00003200 -0.00000200 -0.00806100 -0.03646600 0.60634800
44 1.59928100 -0.00000400 0.00001000 0.06220500 0.05569400 0.09724300
45 5.51180600 -0.00000200 0.00000300 -1.07120500 0.00000000 0.00000000
46 0.19684900 0.00000300 -0.00000100 -0.34822500 0.00001500 -0.00000200
47 0.00000000 0.00000000 0.00000000 0.00000000 0.00000000 -1.57079600
48 -2.98601200 20.86685400 -3.83864100 0.00000000 0.00000000 -3.14156200
49 -2.37113125 40.23321373 0.84603968 -0.08551755 -0.08350674 -1.55655514
50 -0.42046500 -0.01874400 1.27144500 0.00000000 0.00000000 0.00000000
51 0.51676100 0.00000000 0.12868600 0.00000000 0.00000000 0.00000000
52 0.55741300 0.00000000 -0.30289700 0.00000000 0.00000000 0.00000000
53 1.17399300 -0.00968900 1.28929900 -0.01138300 1.22624600 -0.03598100
54 -1.50030500 -0.00968900 0.35764300 0.00000000 0.00000000 0.00000000
55 -2.97854200 -0.00968900 2.09113700 0.00000000 0.00000000 0.00000000
56 4.36710500 0.14569600 -1.51799100 0.34347200 1.05899700 1.58127200
57 3.88902300 -2.02805700 -3.39220200 3.01912500 0.54322100 -1.88188800
time 3
0 -0.00000100 7.45008900 -27.50902600 0.00000000 0.00000000 0.00003100
1 -0.00000200 0.00000000 0.00000000 1.57074700 -1.56714200 -1.57074700
2 4.25546600 -0.33518300 -0.00000200 0.00000000 0.00000000 -0.12484800
3 7.43125000 1.49647900 0.00000200 0.00000000 0.00000000 0.24545000
4 5.27847900 0.16554400 0.00000100 0.00000000 0.00000000 0.04851100
5 1.28232900 -7.90441000 1.48897500 1.97586500 1.15990900 -1.29878600
6 -6.21447800 -0.00000900 -0.00002600 -2.66324986 -0.25690006 1.20662256
7 11.94488500 0.00000000 0.00000000 -0.08336488 -0.32200213 1.15001320
8 10.62018800 0.00000000 0.00000000 0.89283592 0.29810724 1.90798331
9 -4.75110800 -0.69449800 0.83058000 -0.26506600 -0.18521200 0.63841500
10 -1.68806800 0.00004700 -0.00003100 0.01731800 -0.01762500 0.66104700
11 -1.33614000 0.00005500 -0.00001000 0.02626800 0.00232700 0.46266200
12 -4.82049400 -0.50946400 -0.22475900 -0.30496400 -0.06094000 1.40487400
13 -1.82698400 -0.00006900 0.00000800 -0.00832800 0.03958800 1.06556400
14 -1.43656900 0.00000400 0.00000300 -0.06013400 -0.04938400 0.79162700
15 -3.99235700 -0.89119100 -1.82790900 -0.45253100 0.08799900 1.29457900
16 -1.40591800 -0.00002500 -0.00000200 0.00059000 -0.02949400 0.85590800
17 -1.17535800 0.00012600 -0.00001900 0.06441700 0.02146300 1.15302800
18 -4.52675100 -0.69058000 -1.12074100 -0.33008200 0.10310600 1.46474500
19 -1.74403800 0.00003200 -0.00000800 -0.01905300 -0.02261400 1.11317400
20 -1.36877100 0.00002300 0.00000200 0.03795400 0.03618700 0.70440900
21 -1.71880500 -1.28270900 0.93153300 1.77370800 0.56821800 0.78269700
22 -1.52344700 0.00003100 0.00003100 0.07372000 -0.05612300 0.69721800
23 -1.59928500 0.00001100 0.00001500 -0.04580400 -0.07477900 0.31886600
24 5.51182000 0.00000800 -0.00000200 2.24315296 0.00016299 3.14150008
25 0.19684600 -0.00000200 0.00000300 2.79340698 -0.00021881 -3.14153255
26 0.65200400 -11.67925900 -1.58033000 1.97586200 1.15991000 1.84280300
27 6.21448600 0.00000800 0.00001900 -0.24360440 0.37667606 -1.78703937
28 11.94488800 -0.00003100 -0.00020000 0.25278781 -0.35509215 -1.65634699
29 10.62016500 0.00000200 0.00000600 -2.86046176 0.02589434 1.30114721
30 4.75115800 0.69437400 -0.83047400 0.27008600 -0.31842200 0.81032700
31 1.68806500 -0.00002200 0.00000200 0.01539000 -0.01932400 0.76600700
32 1.33615100 -0.00005100 -0.00000900 0.00904800 -0.03764700 0.13514500
33 4.82051500 0.50933800 0.22486600 0.23182200 -0.24475900 0.91537200
34 1.82699200 0.00006600 0.00001000 -0.01154300 0.03879400 0.98337600
35 1.43658100 -0.00000600 0.00001000 0.01325200 -0.00726600 -0.22688700
36 3.99235300 0.89108700 1.82799300 0.04076900 -0.25921600 0.55173200
37 1.40592600 0.00003100 -0.00000300 -0.00899200 -0.02807500 1.18372600
38 1.17536200 -0.00013200 0.00000100 0.07309900 0.09934300 0.59118900
39 4.52675800 0.69046400 1.12084300 0.12505500 -0.23595800 0.82170200
40 1.74404100 -0.00003100 -0.00000200 -0.02363500 -0.01773100 1.34027200
41 1.36876700 -0.00003100 -0.00001800 -0.00637400 0.15858000 -0.22582000
42 1.87485700 0.93508100 -0.99912900 1.90999600 0.49077500 0.45897800
43 1.52345300 -0.00003200 -0.00000200 -0.00806100 -0.03646600 0.60634800
44 1.59928100 -0.00000400 0.00001000 0.06220500 0.05569400 0.09724300
45 5.51180600 -0.00000200 0.00000300 -1.07120500 0.00000000 0.00000000
46 0.19684900 0.00000300 -0.00000100 -0.34822500 0.00001500 -0.00000200
47 0.00000000 0.00000000 0.00000000 0.00000000 0.00000000 -1.57079600
48 -2.98601200 20.86685400 -3.83864100 0.00000000 0.00000000 -3.14156200
49 -1.66418802 39.49998273 0.85861228 -0.13957605 -0.11233517 -1.53915479
50 -0.42046500 -0.01874400 1.27144500 0.00000000 0.00000000 0.00000000
51 0.51676100 0.00000000 0.12868600 0.00000000 0.00000000 0.00000000
52 0.55741300 0.00000000 -0.30289700 0.00000000 0.00000000 0.00000000
53 1.17399300 -0.00968900 1.28929900 -0.01138300 1.22624600 -0.03598100
54 -1.50030500 -0.00968900 0.35764300 0.00000000 0.00000000 0.00000000
55 -2.97854200 -0.00968900 2.09113700 0.00000000 0.00000000 0.00000000
56 4.36710500 0.14569600 -1.51799100 0.34347200 1.05899700 1.58127200
57 3.88902300 -2.02805700 -3.39220200 3.01912500 0.54322100 -1.88188800
time 4
0 -0.00000100 7.45008900 -27.50902600 0.00000000 0.00000000 0.00003100
1 -0.00000200 0.00000000 0.00000000 1.57074700 -1.56714200 -1.57074700
2 4.25546600 -0.33518300 -0.00000200 0.00000000 0.00000000 -0.12484800
3 7.43125000 1.49647900 0.00000200 0.00000000 0.00000000 0.24545000
4 5.27847900 0.16554400 0.00000100 0.00000000 0.00000000 0.04851100
5 -0.22320700 -8.18662800 1.48897500 1.97586500 1.15990900 -1.29878600
6 -6.21447800 -0.00000900 -0.00002600 -2.67342644 -0.22117333 1.28937538
7 11.94488500 0.00000000 0.00000000 -0.14677851 -0.34396926 1.34467785
8 10.62018800 0.00000000 0.00000000 0.88391335 0.22509282 1.81125906
9 -4.75110800 -0.69449800 0.83058000 -0.26506600 -0.18521200 0.63841500
10 -1.68806800 0.00004700 -0.00003100 0.01731800 -0.01762500 0.66104700
11 -1.33614000 0.00005500 -0.00001000 0.02626800 0.00232700 0.46266200
12 -4.82049400 -0.50946400 -0.22475900 -0.30496400 -0.06094000 1.40487400
13 -1.82698400 -0.00006900 0.00000800 -0.00832800 0.03958800 1.06556400
14 -1.43656900 0.00000400 0.00000300 -0.06013400 -0.04938400 0.79162700
15 -3.99235700 -0.89119100 -1.82790900 -0.45253100 0.08799900 1.29457900
16 -1.40591800 -0.00002500 -0.00000200 0.00059000 -0.02949400 0.85590800
17 -1.17535800 0.00012600 -0.00001900 0.06441700 0.02146300 1.15302800
18 -4.52675100 -0.69058000 -1.12074100 -0.33008200 0.10310600 1.46474500
19 -1.74403800 0.00003200 -0.00000800 -0.01905300 -0.02261400 1.11317400
20 -1.36877100 0.00002300 0.00000200 0.03795400 0.03618700 0.70440900
21 -1.71880500 -1.28270900 0.93153300 1.77370800 0.56821800 0.78269700
22 -1.52344700 0.00003100 0.00003100 0.07372000 -0.05612300 0.69721800
23 -1.59928500 0.00001100 0.00001500 -0.04580400 -0.07477900 0.31886600
24 5.51182000 0.00000800 -0.00000200 2.24315296 0.00016299 3.14150008
25 0.19684600 -0.00000200 0.00000300 2.79340698 -0.00021881 -3.14153255
26 -0.85353300 -11.96147800 -1.58033100 1.97586200 1.15991000 1.84280300
27 6.21448600 0.00000800 0.00001900 -0.19120875 0.25232879 -1.84781307
28 11.94488800 -0.00003100 -0.00020000 0.26969647 -0.35471158 -1.70602200
29 10.62016500 0.00000200 0.00000600 -2.86812420 0.03036388 1.44034379
30 4.75115800 0.69437400 -0.83047400 0.27008600 -0.31842200 0.81032700
31 1.68806500 -0.00002200 0.00000200 0.01539000 -0.01932400 0.76600700
32 1.33615100 -0.00005100 -0.00000900 0.00904800 -0.03764700 0.13514500
33 4.82051500 0.50933800 0.22486600 0.23182200 -0.24475900 0.91537200
34 1.82699200 0.00006600 0.00001000 -0.01154300 0.03879400 0.98337600
35 1.43658100 -0.00000600 0.00001000 0.01325200 -0.00726600 -0.22688700
36 3.99235300 0.89108700 1.82799300 0.04076900 -0.25921600 0.55173200
37 1.40592600 0.00003100 -0.00000300 -0.00899200 -0.02807500 1.18372600
38 1.17536200 -0.00013200 0.00000100 0.07309900 0.09934300 0.59118900
39 4.52675800 0.69046400 1.12084300 0.12505500 -0.23595800 0.82170200
40 1.74404100 -0.00003100 -0.00000200 -0.02363500 -0.01773100 1.34027200
41 1.36876700 -0.00003100 -0.00001800 -0.00637400 0.15858000 -0.22582000
42 1.87485700 0.93508100 -0.99912900 1.90999600 0.49077500 0.45897800
43 1.52345300 -0.00003200 -0.00000200 -0.00806100 -0.03646600 0.60634800
44 1.59928100 -0.00000400 0.00001000 0.06220500 0.05569400 0.09724300
45 5.51180600 -0.00000200 0.00000300 -1.07120500 0.00000000 0.00000000
46 0.19684900 0.00000300 -0.00000100 -0.34822500 0.00001500 -0.00000200
47 0.00000000 0.00000000 0.00000000 0.00000000 0.00000000 -1.57079600
48 -2.98601200 20.86685400 -3.83864100 0.00000000 0.00000000 -3.14156200
49 -0.63793069 38.53526073 0.86257326 -0.18035994 -0.04890400 -1.52375074
50 -0.42046500 -0.01874400 1.27144500 0.00000000 0.00000000 0.00000000
51 0.51676100 0.00000000 0.12868600 0.00000000 0.00000000 0.00000000
52 0.55741300 0.00000000 -0.30289700 0.00000000 0.00000000 0.00000000
53 1.17399300 -0.00968900 1.28929900 -0.01138300 1.22624600 -0.03598100
54 -1.50030500 -0.00968900 0.35764300 0.00000000 0.00000000 0.00000000
55 -2.97854200 -0.00968900 2.09113700 0.00000000 0.00000000 0.00000000
56 4.36710500 0.14569600 -1.51799100 0.34347200 1.05899700 1.58127200
57 3.88902300 -2.02805700 -3.39220200 3.01912500 0.54322100 -1.88188800
time 5
0 -0.00000100 7.45008900 -27.50902600 0.00000000 0.00000000 0.00003100
1 -0.00000200 0.00000000 0.00000000 1.57074700 -1.56714200 -1.57074700
2 4.25546600 -0.33518300 -0.00000200 0.00000000 0.00000000 -0.12484800
3 7.43125000 1.49647900 0.00000200 0.00000000 0.00000000 0.24545000
4 5.27847900 0.16554400 0.00000100 0.00000000 0.00000000 0.04851100
5 -1.72874700 -8.46884800 1.48897500 1.97586500 1.15990900 -1.29878600
6 -6.21447800 -0.00000900 -0.00002600 -2.68248677 -0.18980219 1.38492752
7 11.94488500 0.00000000 0.00000000 -0.20694583 -0.35346112 1.52226755
8 10.62018800 0.00000000 0.00000000 0.83502484 0.22071072 1.81382813
9 -4.75110800 -0.69449800 0.83058000 -0.26506600 -0.18521200 0.63841500
10 -1.68806800 0.00004700 -0.00003100 0.01731800 -0.01762500 0.66104700
11 -1.33614000 0.00005500 -0.00001000 0.02626800 0.00232700 0.46266200
12 -4.82049400 -0.50946400 -0.22475900 -0.30496400 -0.06094000 1.40487400
13 -1.82698400 -0.00006900 0.00000800 -0.00832800 0.03958800 1.06556400
14 -1.43656900 0.00000400 0.00000300 -0.06013400 -0.04938400 0.79162700
15 -3.99235700 -0.89119100 -1.82790900 -0.45253100 0.08799900 1.29457900
16 -1.40591800 -0.00002500 -0.00000200 0.00059000 -0.02949400 0.85590800
17 -1.17535800 0.00012600 -0.00001900 0.06441700 0.02146300 1.15302800
18 -4.52675100 -0.69058000 -1.12074100 -0.33008200 0.10310600 1.46474500
19 -1.74403800 0.00003200 -0.00000800 -0.01905300 -0.02261400 1.11317400
20 -1.36877100 0.00002300 0.00000200 0.03795400 0.03618700 0.70440900
21 -1.71880500 -1.28270900 0.93153300 1.77370800 0.56821800 0.78269700
22 -1.52344700 0.00003100 0.00003100 0.07372000 -0.05612300 0.69721800
23 -1.59928500 0.00001100 0.00001500 -0.04580400 -0.07477900 0.31886600
24 5.51182000 0.00000800 -0.00000200 2.24315296 0.00016299 3.14150008
25 0.19684600 -0.00000200 0.00000300 2.79340698 -0.00021881 -3.14153255
26 -2.35907100 -12.24370000 -1.58033000 1.97586200 1.15991000 1.84280300
27 6.21448600 0.00000800 0.00001900 -0.10830173 0.12368173 -1.91064217
28 11.94488800 -0.00003100 -0.00020000 0.27185876 -0.35568077 -1.71255969
29 10.62016500 0.00000200 0.00000600 -2.90882580 -0.04420029 1.47527346
30 4.75115800 0.69437400 -0.83047400 0.27008600 -0.31842200 0.81032700
31 1.68806500 -0.00002200 0.00000200 0.01539000 -0.01932400 0.76600700
32 1.33615100 -0.00005100 -0.00000900 0.00904800 -0.03764700 0.13514500
33 4.82051500 0.50933800 0.22486600 0.23182200 -0.24475900 0.91537200
34 1.82699200 0.00006600 0.00001000 -0.01154300 0.03879400 0.98337600
35 1.43658100 -0.00000600 0.00001000 0.01325200 -0.00726600 -0.22688700
36 3.99235300 0.89108700 1.82799300 0.04076900 -0.25921600 0.55173200
37 1.40592600 0.00003100 -0.00000300 -0.00899200 -0.02807500 1.18372600
38 1.17536200 -0.00013200 0.00000100 0.07309900 0.09934300 0.59118900
39 4.52675800 0.69046400 1.12084300 0.12505500 -0.23595800 0.82170200
40 1.74404100 -0.00003100 -0.00000200 -0.02363500 -0.01773100 1.34027200
41 1.36876700 -0.00003100 -0.00001800 -0.00637400 0.15858000 -0.22582000
42 1.87485700 0.93508100 -0.99912900 1.90999600 0.49077500 0.45897800
43 1.52345300 -0.00003200 -0.00000200 -0.00806100 -0.03646600 0.60634800
44 1.59928100 -0.00000400 0.00001000 0.06220500 0.05569400 0.09724300
45 5.51180600 -0.00000200 0.00000300 -1.07120500 0.00000000 0.00000000
46 0.19684900 0.00000300 -0.00000100 -0.34822500 0.00001500 -0.00000200
47 0.00000000 0.00000000 0.00000000 0.00000000 0.00000000 -1.57079600
48 -2.98601200 20.86685400 -3.83864100 0.00000000 0.00000000 -3.14156200
49 0.52319684 37.40418073 0.84629892 -0.20959418 0.12598950 -1.51698887
50 -0.42046500 -0.01874400 1.27144500 0.00000000 0.00000000 0.00000000
51 0.51676100 0.00000000 0.12868600 0.00000000 0.00000000 0.00000000
52 0.55741300 0.00000000 -0.30289700 0.00000000 0.00000000 0.00000000
53 1.17399300 -0.00968900 1.28929900 -0.01138300 1.22624600 -0.03598100
54 -1.50030500 -0.00968900 0.35764300 0.00000000 0.00000000 0.00000000
55 -2.97854200 -0.00968900 2.09113700 0.00000000 0.00000000 0.00000000
56 4.36710500 0.14569600 -1.51799100 0.34347200 1.05899700 1.58127200
57 3.88902300 -2.02805700 -3.39220200 3.01912500 0.54322100 -1.88188800
time 6
0 -0.00000100 7.45008900 -27.50902600 0.00000000 0.00000000 0.00003100
1 -0.00000200 0.00000000 0.00000000 1.57074700 -1.56714200 -1.57074700
2 4.25546600 -0.33518300 -0.00000200 0.00000000 0.00000000 -0.12484800
3 7.43125000 1.49647900 0.00000200 0.00000000 0.00000000 0.24545000
4 5.27847900 0.16554400 0.00000100 0.00000000 0.00000000 0.04851100
5 -3.04208800 -8.71504200 1.48897500 1.97586500 1.15990900 -1.29878600
6 -6.21447800 -0.00000900 -0.00002600 -2.69473541 -0.17019301 1.47773051
7 11.94488500 0.00000000 0.00000000 -0.25196341 -0.35406176 1.65392837
8 10.62018800 0.00000000 0.00000000 0.73770865 0.30378964 1.91221590
9 -4.75110800 -0.69449800 0.83058000 -0.26506600 -0.18521200 0.63841500
10 -1.68806800 0.00004700 -0.00003100 0.01731800 -0.01762500 0.66104700
11 -1.33614000 0.00005500 -0.00001000 0.02626800 0.00232700 0.46266200
12 -4.82049400 -0.50946400 -0.22475900 -0.30496400 -0.06094000 1.40487400
13 -1.82698400 -0.00006900 0.00000800 -0.00832800 0.03958800 1.06556400
14 -1.43656900 0.00000400 0.00000300 -0.06013400 -0.04938400 0.79162700
15 -3.99235700 -0.89119100 -1.82790900 -0.45253100 0.08799900 1.29457900
16 -1.40591800 -0.00002500 -0.00000200 0.00059000 -0.02949400 0.85590800
17 -1.17535800 0.00012600 -0.00001900 0.06441700 0.02146300 1.15302800
18 -4.52675100 -0.69058000 -1.12074100 -0.33008200 0.10310600 1.46474500
19 -1.74403800 0.00003200 -0.00000800 -0.01905300 -0.02261400 1.11317400
20 -1.36877100 0.00002300 0.00000200 0.03795400 0.03618700 0.70440900
21 -1.71880500 -1.28270900 0.93153300 1.77370800 0.56821800 0.78269700
22 -1.52344700 0.00003100 0.00003100 0.07372000 -0.05612300 0.69721800
23 -1.59928500 0.00001100 0.00001500 -0.04580400 -0.07477900 0.31886600
24 5.51182000 0.00000800 -0.00000200 2.24315296 0.00016299 3.14150008
25 0.19684600 -0.00000200 0.00000300 2.79340698 -0.00021881 -3.14153255
26 -3.67241100 -12.48988900 -1.58033000 1.97586200 1.15991000 1.84280300
27 6.21448600 0.00000800 0.00001900 -0.01503339 0.01062875 -1.96163574
28 11.94488800 -0.00003100 -0.00020000 0.26197317 -0.35761558 -1.68331771
29 10.62016500 0.00000200 0.00000600 -2.94887708 -0.19942225 1.41068839
30 4.75115800 0.69437400 -0.83047400 0.27008600 -0.31842200 0.81032700
31 1.68806500 -0.00002200 0.00000200 0.01539000 -0.01932400 0.76600700
32 1.33615100 -0.00005100 -0.00000900 0.00904800 -0.03764700 0.13514500
33 4.82051500 0.50933800 0.22486600 0.23182200 -0.24475900 0.91537200
34 1.82699200 0.00006600 0.00001000 -0.01154300 0.03879400 0.98337600
35 1.43658100 -0.00000600 0.00001000 0.01325200 -0.00726600 -0.22688700
36 3.99235300 0.89108700 1.82799300 0.04076900 -0.25921600 0.55173200
37 1.40592600 0.00003100 -0.00000300 -0.00899200 -0.02807500 1.18372600
38 1.17536200 -0.00013200 0.00000100 0.07309900 0.09934300 0.59118900
39 4.52675800 0.69046400 1.12084300 0.12505500 -0.23595800 0.82170200
40 1.74404100 -0.00003100 -0.00000200 -0.02363500 -0.01773100 1.34027200
41 1.36876700 -0.00003100 -0.00001800 -0.00637400 0.15858000 -0.22582000
42 1.87485700 0.93508100 -0.99912900 1.90999600 0.49077500 0.45897800
43 1.52345300 -0.00003200 -0.00000200 -0.00806100 -0.03646600 0.60634800
44 1.59928100 -0.00000400 0.00001000 0.06220500 0.05569400 0.09724300
45 5.51180600 -0.00000200 0.00000300 -1.07120500 0.00000000 0.00000000
46 0.19684900 0.00000300 -0.00000100 -0.34822500 0.00001500 -0.00000200
47 0.00000000 0.00000000 0.00000000 0.00000000 0.00000000 -1.57079600
48 -2.98601200 20.86685400 -3.83864100 0.00000000 0.00000000 -3.14156200
49 1.59030188 36.17853373 0.79900386 -0.23367738 0.39581406 -1.52164634
50 -0.42046500 -0.01874400 1.27144500 0.00000000 0.00000000 0.00000000
51 0.51676100 0.00000000 0.12868600 0.00000000 0.00000000 0.00000000
52 0.55741300 0.00000000 -0.30289700 0.00000000 0.00000000 0.00000000
53 1.17399300 -0.00968900 1.28929900 -0.01138300 1.22624600 -0.03598100
54 -1.50030500 -0.00968900 0.35764300 0.00000000 0.00000000 0.00000000
55 -2.97854200 -0.00968900 2.09113700 0.00000000 0.00000000 0.00000000
56 4.36710500 0.14569600 -1.51799100 0.34347200 1.05899700 1.58127200
57 3.88902300 -2.02805700 -3.39220200 3.01912500 0.54322100 -1.88188800
time 7
0 -0.00000100 7.45008900 -27.50902600 0.00000000 0.00000000 0.00003100
1 -0.00000200 0.00000000 0.00000000 1.57074700 -1.56714200 -1.57074700
2 4.25546600 -0.33518300 -0.00000200 0.00000000 0.00000000 -0.12484800
3 7.43125000 1.49647900 0.00000200 0.00000000 0.00000000 0.24545000
4 5.27847900 0.16554400 0.00000100 0.00000000 0.00000000 0.04851100
5 -3.97103300 -8.88917500 1.48897500 1.97586500 1.15990900 -1.29878600
6 -6.21447800 -0.00000900 -0.00002600 -2.71705655 -0.16388204 1.54678188
7 11.94488500 0.00000000 0.00000000 -0.27338372 -0.35225899 1.71695472
8 10.62018800 0.00000000 0.00000000 0.61957849 0.49213455 2.07788158
9 -4.75110800 -0.69449800 0.83058000 -0.26506600 -0.18521200 0.63841500
10 -1.68806800 0.00004700 -0.00003100 0.01731800 -0.01762500 0.66104700
11 -1.33614000 0.00005500 -0.00001000 0.02626800 0.00232700 0.46266200
12 -4.82049400 -0.50946400 -0.22475900 -0.30496400 -0.06094000 1.40487400
13 -1.82698400 -0.00006900 0.00000800 -0.00832800 0.03958800 1.06556400
14 -1.43656900 0.00000400 0.00000300 -0.06013400 -0.04938400 0.79162700
15 -3.99235700 -0.89119100 -1.82790900 -0.45253100 0.08799900 1.29457900
16 -1.40591800 -0.00002500 -0.00000200 0.00059000 -0.02949400 0.85590800
17 -1.17535800 0.00012600 -0.00001900 0.06441700 0.02146300 1.15302800
18 -4.52675100 -0.69058000 -1.12074100 -0.33008200 0.10310600 1.46474500
19 -1.74403800 0.00003200 -0.00000800 -0.01905300 -0.02261400 1.11317400
20 -1.36877100 0.00002300 0.00000200 0.03795400 0.03618700 0.70440900
21 -1.71880500 -1.28270900 0.93153300 1.77370800 0.56821800 0.78269700
22 -1.52344700 0.00003100 0.00003100 0.07372000 -0.05612300 0.69721800
23 -1.59928500 0.00001100 0.00001500 -0.04580400 -0.07477900 0.31886600
24 5.51182000 0.00000800 -0.00000200 2.24315296 0.00016299 3.14150008
25 0.19684600 -0.00000200 0.00000300 2.79340698 -0.00021881 -3.14153255
26 -4.60135900 -12.66402700 -1.58033100 1.97586200 1.15991000 1.84280300
27 6.21448600 0.00000800 0.00001900 0.05817540 -0.07019676 -1.99053927
28 11.94488800 -0.00003100 -0.00020000 0.24397913 -0.35876200 -1.63053274
29 10.62016500 0.00000200 0.00000600 -2.94310819 -0.42565376 1.25343872
30 4.75115800 0.69437400 -0.83047400 0.27008600 -0.31842200 0.81032700
31 1.68806500 -0.00002200 0.00000200 0.01539000 -0.01932400 0.76600700
32 1.33615100 -0.00005100 -0.00000900 0.00904800 -0.03764700 0.13514500
33 4.82051500 0.50933800 0.22486600 0.23182200 -0.24475900 0.91537200
34 1.82699200 0.00006600 0.00001000 -0.01154300 0.03879400 0.98337600
35 1.43658100 -0.00000600 0.00001000 0.01325200 -0.00726600 -0.22688700
36 3.99235300 0.89108700 1.82799300 0.04076900 -0.25921600 0.55173200
37 1.40592600 0.00003100 -0.00000300 -0.00899200 -0.02807500 1.18372600
38 1.17536200 -0.00013200 0.00000100 0.07309900 0.09934300 0.59118900
39 4.52675800 0.69046400 1.12084300 0.12505500 -0.23595800 0.82170200
40 1.74404100 -0.00003100 -0.00000200 -0.02363500 -0.01773100 1.34027200
41 1.36876700 -0.00003100 -0.00001800 -0.00637400 0.15858000 -0.22582000
42 1.87485700 0.93508100 -0.99912900 1.90999600 0.49077500 0.45897800
43 1.52345300 -0.00003200 -0.00000200 -0.00806100 -0.03646600 0.60634800
44 1.59928100 -0.00000400 0.00001000 0.06220500 0.05569400 0.09724300
45 5.51180600 -0.00000200 0.00000300 -1.07120500 0.00000000 0.00000000
46 0.19684900 0.00000300 -0.00000100 -0.34822500 0.00001500 -0.00000200
47 0.00000000 0.00000000 0.00000000 0.00000000 0.00000000 -1.57079600
48 -2.98601200 20.86685400 -3.83864100 0.00000000 0.00000000 -3.14156200
49 2.33866347 34.93010473 0.71727494 -0.26114891 0.72924208 -1.54280231
50 -0.42046500 -0.01874400 1.27144500 0.00000000 0.00000000 0.00000000
51 0.51676100 0.00000000 0.12868600 0.00000000 0.00000000 0.00000000
52 0.55741300 0.00000000 -0.30289700 0.00000000 0.00000000 0.00000000
53 1.17399300 -0.00968900 1.28929900 -0.01138300 1.22624600 -0.03598100
54 -1.50030500 -0.00968900 0.35764300 0.00000000 0.00000000 0.00000000
55 -2.97854200 -0.00968900 2.09113700 0.00000000 0.00000000 0.00000000
56 4.36710500 0.14569600 -1.51799100 0.34347200 1.05899700 1.58127200
57 3.88902300 -2.02805700 -3.39220200 3.01912500 0.54322100 -1.88188800
time 8
0 -0.00000100 7.45008900 -27.50902600 0.00000000 0.00000000 0.00003100
1 -0.00000200 0.00000000 0.00000000 1.57074700 -1.56714200 -1.57074700
2 4.25546600 -0.33518300 -0.00000200 0.00000000 0.00000000 -0.12484800
3 7.43125000 1.49647900 0.00000200 0.00000000 0.00000000 0.24545000
4 5.27847900 0.16554400 0.00000100 0.00000000 0.00000000 0.04851100
5 -4.32339300 -8.95522800 1.48897400 1.97586500 1.15990900 -1.29878600
6 -6.21447800 -0.00000900 -0.00002600 -2.74129828 -0.17093270 1.57715734
7 11.94488500 0.00000000 0.00000000 -0.27445404 -0.35204317 1.71996666
8 10.62018800 0.00000000 0.00000000 0.54562786 0.75221547 2.27725420
9 -4.75110800 -0.69449800 0.83058000 -0.26506600 -0.18521200 0.63841500
10 -1.68806800 0.00004700 -0.00003100 0.01731800 -0.01762500 0.66104700
11 -1.33614000 0.00005500 -0.00001000 0.02626800 0.00232700 0.46266200
12 -4.82049400 -0.50946400 -0.22475900 -0.30496400 -0.06094000 1.40487400
13 -1.82698400 -0.00006900 0.00000800 -0.00832800 0.03958800 1.06556400
14 -1.43656900 0.00000400 0.00000300 -0.06013400 -0.04938400 0.79162700
15 -3.99235700 -0.89119100 -1.82790900 -0.45253100 0.08799900 1.29457900
16 -1.40591800 -0.00002500 -0.00000200 0.00059000 -0.02949400 0.85590800
17 -1.17535800 0.00012600 -0.00001900 0.06441700 0.02146300 1.15302800
18 -4.52675100 -0.69058000 -1.12074100 -0.33008200 0.10310600 1.46474500
19 -1.74403800 0.00003200 -0.00000800 -0.01905300 -0.02261400 1.11317400
20 -1.36877100 0.00002300 0.00000200 0.03795400 0.03618700 0.70440900
21 -1.71880500 -1.28270900 0.93153300 1.77370800 0.56821800 0.78269700
22 -1.52344700 0.00003100 0.00003100 0.07372000 -0.05612300 0.69721800
23 -1.59928500 0.00001100 0.00001500 -0.04580400 -0.07477900 0.31886600
24 5.51182000 0.00000800 -0.00000200 2.24315296 0.00016299 3.14150008
25 0.19684600 -0.00000200 0.00000300 2.79340698 -0.00021881 -3.14153255
26 -4.95372000 -12.73007900 -1.58033100 1.97586200 1.15991000 1.84280300
27 6.21448600 0.00000800 0.00001900 0.08459660 -0.10423429 -2.00054391
28 11.94488800 -0.00003100 -0.00020000 0.22523981 -0.35818887 -1.57562094
29 10.62016500 0.00000200 0.00000600 -2.83209619 -0.67514288 0.99820144
30 4.75115800 0.69437400 -0.83047400 0.27008600 -0.31842200 0.81032700
31 1.68806500 -0.00002200 0.00000200 0.01539000 -0.01932400 0.76600700
32 1.33615100 -0.00005100 -0.00000900 0.00904800 -0.03764700 0.13514500
33 4.82051500 0.50933800 0.22486600 0.23182200 -0.24475900 0.91537200
34 1.82699200 0.00006600 0.00001000 -0.01154300 0.03879400 0.98337600
35 1.43658100 -0.00000600 0.00001000 0.01325200 -0.00726600 -0.22688700
36 3.99235300 0.89108700 1.82799300 0.04076900 -0.25921600 0.55173200
37 1.40592600 0.00003100 -0.00000300 -0.00899200 -0.02807500 1.18372600
38 1.17536200 -0.00013200 0.00000100 0.07309900 0.09934300 0.59118900
39 4.52675800 0.69046400 1.12084300 0.12505500 -0.23595800 0.82170200
40 1.74404100 -0.00003100 -0.00000200 -0.02363500 -0.01773100 1.34027200
41 1.36876700 -0.00003100 -0.00001800 -0.00637400 0.15858000 -0.22582000
42 1.87485700 0.93508100 -0.99912900 1.90999600 0.49077500 0.45897800
43 1.52345300 -0.00003200 -0.00000200 -0.00806100 -0.03646600 0.60634800
44 1.59928100 -0.00000400 0.00001000 0.06220500 0.05569400 0.09724300
45 5.51180600 -0.00000200 0.00000300 -1.07120500 0.00000000 0.00000000
46 0.19684900 0.00000300 -0.00000100 -0.34822500 0.00001500 -0.00000200
47 0.00000000 0.00000000 0.00000000 0.00000000 0.00000000 -1.57079600
48 -2.98601200 20.86685400 -3.83864100 0.00000000 0.00000000 -3.14156200
49 2.69756128 33.72723973 0.60717214 -0.31411416 1.06879783 -1.59847527
50 -0.42046500 -0.01874400 1.27144500 0.00000000 0.00000000 0.00000000
51 0.51676100 0.00000000 0.12868600 0.00000000 0.00000000 0.00000000
52 0.55741300 0.00000000 -0.30289700 0.00000000 0.00000000 0.00000000
53 1.17399300 -0.00968900 1.28929900 -0.01138300 1.22624600 -0.03598100
54 -1.50030500 -0.00968900 0.35764300 0.00000000 0.00000000 0.00000000
55 -2.97854200 -0.00968900 2.09113700 0.00000000 0.00000000 0.00000000
56 4.36710500 0.14569600 -1.51799100 0.34347200 1.05899700 1.58127200
57 3.88902300 -2.02805700 -3.39220200 3.01912500 0.54322100 -1.88188800
time 9
0 -0.00000100 7.45008900 -27.50902600 0.00000000 0.00000000 0.00003100
1 -0.00000200 0.00000000 0.00000000 1.57074700 -1.56714200 -1.57074700
2 4.25546600 -0.33518300 -0.00000200 0.00000000 0.00000000 -0.12484800
3 7.43125000 1.49647900 0.00000200 0.00000000 0.00000000 0.24545000
4 5.27847900 0.16554400 0.00000100 0.00000000 0.00000000 0.04851100
5 -4.32339300 -8.95522800 1.48897400 1.97586500 1.15990900 -1.29878600
6 -6.21447800 -0.00000900 -0.00002600 -2.75015862 -0.17656235 1.57932938
7 11.94488500 0.00000000 0.00000000 -0.26842131 -0.35253596 1.70223796
8 10.62018800 0.00000000 0.00000000 0.56916944 0.98674710 2.49532794
9 -4.75110800 -0.69449800 0.83058000 -0.26506600 -0.18521200 0.63841500
10 -1.68806800 0.00004700 -0.00003100 0.01731800 -0.01762500 0.66104700
11 -1.33614000 0.00005500 -0.00001000 0.02626800 0.00232700 0.46266200
12 -4.82049400 -0.50946400 -0.22475900 -0.30496400 -0.06094000 1.40487400
13 -1.82698400 -0.00006900 0.00000800 -0.00832800 0.03958800 1.06556400
14 -1.43656900 0.00000400 0.00000300 -0.06013400 -0.04938400 0.79162700
15 -3.99235700 -0.89119100 -1.82790900 -0.45253100 0.08799900 1.29457900
16 -1.40591800 -0.00002500 -0.00000200 0.00059000 -0.02949400 0.85590800
17 -1.17535800 0.00012600 -0.00001900 0.06441700 0.02146300 1.15302800
18 -4.52675100 -0.69058000 -1.12074100 -0.33008200 0.10310600 1.46474500
19 -1.74403800 0.00003200 -0.00000800 -0.01905300 -0.02261400 1.11317400
20 -1.36877100 0.00002300 0.00000200 0.03795400 0.03618700 0.70440900
21 -1.71880500 -1.28270900 0.93153300 1.77370800 0.56821800 0.78269700
22 -1.52344700 0.00003100 0.00003100 0.07372000 -0.05612300 0.69721800
23 -1.59928500 0.00001100 0.00001500 -0.04580400 -0.07477900 0.31886600
24 5.51182000 0.00000800 -0.00000200 2.24315296 0.00016299 3.14150008
25 0.19684600 -0.00000200 0.00000300 2.79340698 -0.00021881 -3.14153255
26 -4.95372000 -12.73007900 -1.58033100 1.97586200 1.15991000 1.84280300
27 6.21448600 0.00000800 0.00001900 0.07541651 -0.11723125 -2.00814087
28 11.94488800 -0.00003100 -0.00020000 0.21107722 -0.35696366 -1.53430379
29 10.62016500 0.00000200 0.00000600 -2.61264836 -0.85154460 0.67041236
30 4.75115800 0.69437400 -0.83047400 0.27008600 -0.31842200 0.81032700
31 1.68806500 -0.00002200 0.00000200 0.01539000 -0.01932400 0.76600700
32 1.33615100 -0.00005100 -0.00000900 0.00904800 -0.03764700 0.13514500
33 4.82051500 0.50933800 0.22486600 0.23182200 -0.24475900 0.91537200
34 1.82699200 0.00006600 0.00001000 -0.01154300 0.03879400 0.98337600
35 1.43658100 -0.00000600 0.00001000 0.01325200 -0.00726600 -0.22688700
36 3.99235300 0.89108700 1.82799300 0.04076900 -0.25921600 0.55173200
37 1.40592600 0.00003100 -0.00000300 -0.00899200 -0.02807500 1.18372600
38 1.17536200 -0.00013200 0.00000100 0.07309900 0.09934300 0.59118900
39 4.52675800 0.69046400 1.12084300 0.12505500 -0.23595800 0.82170200
40 1.74404100 -0.00003100 -0.00000200 -0.02363500 -0.01773100 1.34027200
41 1.36876700 -0.00003100 -0.00001800 -0.00637400 0.15858000 -0.22582000
42 1.87485700 0.93508100 -0.99912900 1.90999600 0.49077500 0.45897800
43 1.52345300 -0.00003200 -0.00000200 -0.00806100 -0.03646600 0.60634800
44 1.59928100 -0.00000400 0.00001000 0.06220500 0.05569400 0.09724300
45 5.51180600 -0.00000200 0.00000300 -1.07120500 0.00000000 0.00000000
46 0.19684900 0.00000300 -0.00000100 -0.34822500 0.00001500 -0.00000200
47 0.00000000 0.00000000 0.00000000 0.00000000 0.00000000 -1.57079600
48 -2.98601200 20.86685400 -3.83864100 0.00000000 0.00000000 -3.14156200
49 2.82640542 32.63597673 0.49510104 -0.48405235 1.34973441 -1.77804810
50 -0.42046500 -0.01874400 1.27144500 0.00000000 0.00000000 0.00000000
51 0.51676100 0.00000000 0.12868600 0.00000000 0.00000000 0.00000000
52 0.55741300 0.00000000 -0.30289700 0.00000000 0.00000000 0.00000000
53 1.17399300 -0.00968900 1.28929900 -0.01138300 1.22624600 -0.03598100
54 -1.50030500 -0.00968900 0.35764300 0.00000000 0.00000000 0.00000000
55 -2.97854200 -0.00968900 2.09113700 0.00000000 0.00000000 0.00000000
56 4.36710500 0.14569600 -1.51799100 0.34347200 1.05899700 1.58127200
57 3.88902300 -2.02805700 -3.39220200 3.01912500 0.54322100 -1.88188800
time 10
0 -0.00000100 7.45008900 -27.50902600 0.00000000 0.00000000 0.00003100
1 -0.00000200 0.00000000 0.00000000 1.57074700 -1.56714200 -1.57074700
2 4.25546600 -0.33518300 -0.00000200 0.00000000 0.00000000 -0.12484800
3 7.43125000 1.49647900 0.00000200 0.00000000 0.00000000 0.24545000
4 5.27847900 0.16554400 0.00000100 0.00000000 0.00000000 0.04851100
5 -4.32339300 -8.95522800 1.48897400 1.97586500 1.15990900 -1.29878600
6 -6.21447800 -0.00000900 -0.00002600 -2.74796342 -0.17175838 1.57421569
7 11.94488500 0.00000000 0.00000000 -0.26635265 -0.35239464 1.69621972
8 10.62018800 0.00000000 0.00000000 0.65024535 1.11020886 2.66107093
9 -4.75110800 -0.69449800 0.83058000 -0.26506600 -0.18521200 0.63841500
10 -1.68806800 0.00004700 -0.00003100 0.01731800 -0.01762500 0.66104700
11 -1.33614000 0.00005500 -0.00001000 0.02626800 0.00232700 0.46266200
12 -4.82049400 -0.50946400 -0.22475900 -0.30496400 -0.06094000 1.40487400
13 -1.82698400 -0.00006900 0.00000800 -0.00832800 0.03958800 1.06556400
14 -1.43656900 0.00000400 0.00000300 -0.06013400 -0.04938400 0.79162700
15 -3.99235700 -0.89119100 -1.82790900 -0.45253100 0.08799900 1.29457900
16 -1.40591800 -0.00002500 -0.00000200 0.00059000 -0.02949400 0.85590800
17 -1.17535800 0.00012600 -0.00001900 0.06441700 0.02146300 1.15302800
18 -4.52675100 -0.69058000 -1.12074100 -0.33008200 0.10310600 1.46474500
19 -1.74403800 0.00003200 -0.00000800 -0.01905300 -0.02261400 1.11317400
20 -1.36877100 0.00002300 0.00000200 0.03795400 0.03618700 0.70440900
21 -1.71880500 -1.28270900 0.93153300 1.77370800 0.56821800 0.78269700
22 -1.52344700 0.00003100 0.00003100 0.07372000 -0.05612300 0.69721800
23 -1.59928500 0.00001100 0.00001500 -0.04580400 -0.07477900 0.31886600
24 5.51182000 0.00000800 -0.00000200 2.24315296 0.00016299 3.14150008
25 0.19684600 -0.00000200 0.00000300 2.79340698 -0.00021881 -3.14153255
26 -4.95372000 -12.73007900 -1.58033100 1.97586200 1.15991000 1.84280300
27 6.21448600 0.00000800 0.00001900 0.06376776 -0.13289346 -2.01502268
28 11.94488800 -0.00003100 -0.00020000 0.20538941 -0.35623138 -1.51773540
29 10.62016500 0.00000200 0.00000600 -2.44490792 -0.91364936 0.44442935
30 4.75115800 0.69437400 -0.83047400 0.27008600 -0.31842200 0.81032700
31 1.68806500 -0.00002200 0.00000200 0.01539000 -0.01932400 0.76600700
32 1.33615100 -0.00005100 -0.00000900 0.00904800 -0.03764700 0.13514500
33 4.82051500 0.50933800 0.22486600 0.23182200 -0.24475900 0.91537200
34 1.82699200 0.00006600 0.00001000 -0.01154300 0.03879400 0.98337600
35 1.43658100 -0.00000600 0.00001000 0.01325200 -0.00726600 -0.22688700
36 3.99235300 0.89108700 1.82799300 0.04076900 -0.25921600 0.55173200
37 1.40592600 0.00003100 -0.00000300 -0.00899200 -0.02807500 1.18372600
38 1.17536200 -0.00013200 0.00000100 0.07309900 0.09934300 0.59118900
39 4.52675800 0.69046400 1.12084300 0.12505500 -0.23595800 0.82170200
40 1.74404100 -0.00003100 -0.00000200 -0.02363500 -0.01773100 1.34027200
41 1.36876700 -0.00003100 -0.00001800 -0.00637400 0.15858000 -0.22582000
42 1.87485700 0.93508100 -0.99912900 1.90999600 0.49077500 0.45897800
43 1.52345300 -0.00003200 -0.00000200 -0.00806100 -0.03646600 0.60634800
44 1.59928100 -0.00000400 0.00001000 0.06220500 0.05569400 0.09724300
45 5.51180600 -0.00000200 0.00000300 -1.07120500 0.00000000 0.00000000
46 0.19684900 0.00000300 -0.00000100 -0.34822500 0.00001500 -0.00000200
47 0.00000000 0.00000000 0.00000000 0.00000000 0.00000000 -1.57079600
48 -2.98601200 20.86685400 -3.83864100 0.00000000 0.00000000 -3.14156200
49 2.84242180 31.91521973 0.41583462 -1.12247858 1.48720946 -2.42873868
50 -0.42046500 -0.01874400 1.27144500 0.00000000 0.00000000 0.00000000
51 0.51676100 0.00000000 0.12868600 0.00000000 0.00000000 0.00000000
52 0.55741300 0.00000000 -0.30289700 0.00000000 0.00000000 0.00000000
53 1.17399300 -0.00968900 1.28929900 -0.01138300 1.22624600 -0.03598100
54 -1.50030500 -0.00968900 0.35764300 0.00000000 0.00000000 0.00000000
55 -2.97854200 -0.00968900 2.09113700 0.00000000 0.00000000 0.00000000
56 4.36710500 0.14569600 -1.51799100 0.34347200 1.05899700 1.58127200
57 3.88902300 -2.02805700 -3.39220200 3.01912500 0.54322100 -1.88188800
end
