version 1
nodes
0 "root" -1
1 "pelvis" 0
2 "spine_01" 1
3 "spine_02" 2
4 "spine_03" 3
5 "clavicle_r" 4
6 "upperarm_r" 5
7 "lowerarm_r" 6
8 "hand_r" 7
9 "index_01_r" 8
10 "index_02_r" 9
11 "index_03_r" 10
12 "middle_01_r" 8
13 "middle_02_r" 12
14 "middle_03_r" 13
15 "pinky_01_r" 8
16 "pinky_02_r" 15
17 "pinky_03_r" 16
18 "ring_01_r" 8
19 "ring_02_r" 18
20 "ring_03_r" 19
21 "thumb_01_r" 8
22 "thumb_02_r" 21
23 "thumb_03_r" 22
24 "lowerarm_twist_01_r" 7
25 "upperarm_twist_01_r" 6
26 "clavicle_l" 4
27 "upperarm_l" 26
28 "lowerarm_l" 27
29 "hand_l" 28
30 "index_01_l" 29
31 "index_02_l" 30
32 "index_03_l" 31
33 "middle_01_l" 29
34 "middle_02_l" 33
35 "middle_03_l" 34
36 "pinky_01_l" 29
37 "pinky_02_l" 36
38 "pinky_03_l" 37
39 "ring_01_l" 29
40 "ring_02_l" 39
41 "ring_03_l" 40
42 "thumb_01_l" 29
43 "thumb_02_l" 42
44 "thumb_03_l" 43
45 "lowerarm_twist_01_l" 28
46 "upperarm_twist_01_l" 27
47 "cam_driver" -1
48 "BaseRoot" -1
49 "Base" 48
50 "Mag" 49
51 "Bullet" 50
52 "Trigger" 49
53 "Bolt" 49
54 "rhand_ikTarget" 49
55 "lhand_ikTarget" 49
56 "MagRelease" 49
end
skeleton
time 0
0 -0.00000100 8.45008800 -27.50902600 0.00000000 0.00000000 0.00003100
1 -0.00000200 0.00000000 0.00000000 1.57074700 -1.56714200 -1.57074700
2 4.25546500 -0.33518400 -0.00000200 0.00000000 0.00000000 -0.12484800
3 7.43125000 1.49647900 0.00000200 0.00000000 0.00000000 0.24545000
4 5.27847900 0.16554300 0.00000100 0.00000000 0.00000000 0.04851100
5 -1.64873900 -13.09409500 6.31045700 1.97586600 1.15990900 -1.29878500
6 -6.21447800 -0.00001000 -0.00002700 -2.51826041 -0.52592582 1.09397223
7 11.94488900 0.00000000 0.00000000 -0.05624721 -0.30728233 1.06238082
8 10.62019000 0.00000000 0.00000000 1.05780289 -0.45058503 -2.91066554
9 -4.75111000 -0.69449400 0.83057900 -0.07754700 -0.10769900 -0.03752200
10 -1.68807600 0.00004300 -0.00003100 0.00938000 -0.02289700 1.05047000
11 -1.33614300 0.00005300 -0.00001000 0.02638000 -0.00058900 0.57428600
12 -4.82049600 -0.50945900 -0.22476100 -0.57092300 -0.10555800 1.44992400
13 -1.82699200 -0.00007200 0.00000800 0.00656300 0.03990300 1.43686000
14 -1.43657300 0.00000800 0.00000400 -0.02777900 -0.07262600 0.27329100
15 -3.99235900 -0.89118600 -1.82791000 -0.63293500 0.34569000 1.73009700
16 -1.40592200 -0.00002700 0.00000000 -0.00296100 -0.02931600 0.97649500
17 -1.17535800 0.00012800 -0.00002100 0.01386900 0.06651400 0.10995400
18 -4.52675200 -0.69057500 -1.12074400 -0.60402400 0.11592100 1.64682700
19 -1.74403800 0.00003300 -0.00000400 -0.02372800 -0.01764400 1.34313800
20 -1.36877400 0.00002500 0.00000400 -0.23930400 0.01835900 -0.00351200
21 -1.87479800 -0.93512200 0.99917500 2.06727500 0.44154900 0.74971800
22 -1.52344900 0.00003400 0.00003100 0.07418300 0.23397300 0.56369800
23 -1.59927600 0.00000800 0.00001500 0.02972300 -0.03090300 0.78512800
24 5.58312600 0.11572300 0.29499800 1.94756400 -0.06728900 3.12123600
25 0.19684600 -0.00000100 0.00000400 2.79340697 -0.00036364 -3.14147950
26 -2.20447900 -17.79016500 1.21744100 1.97586200 1.15991000 1.84280300
27 6.21448500 0.00001000 0.00002000 -2.62546804 0.29121911 -1.39914258
28 11.94488500 -0.00003200 -0.00019900 -1.00731608 1.26542642 -0.93909887
29 10.62016900 -0.00000200 0.00000800 -1.19244956 -0.66628941 -0.31963746
30 4.75116500 0.69437600 -0.83047400 0.05436000 -0.56975700 0.36612000
31 1.68806100 -0.00002400 0.00000200 -0.01309700 -0.02096100 1.99734200
32 1.33615100 -0.00005000 -0.00001000 0.03223000 -0.02151500 -0.61144300
33 4.82051700 0.50934200 0.22486600 -0.28415000 -0.52070100 0.87084800
34 1.82700300 0.00006200 0.00001000 0.02775100 0.02944300 2.02953400
35 1.43658100 -0.00000600 0.00001000 0.01503200 0.00167500 -0.83651700
36 3.99235500 0.89109000 1.82799500 -0.58287400 -0.10354100 1.34741900
37 1.40592200 0.00003100 -0.00000400 -0.02039300 -0.02129600 1.63879800
38 1.17536200 -0.00013200 0.00000400 -0.07487300 0.09798600 -0.69969900
39 4.52676200 0.69046800 1.12084200 -0.57965900 -0.30454000 1.33627400
40 1.74404100 -0.00002700 0.00000100 -0.02932600 -0.00357100 1.85952500
41 1.36876300 -0.00003100 -0.00002000 -0.12191500 0.10180800 -1.06387600
42 2.10919800 1.21153900 -0.81156700 1.55586900 0.56231100 0.17976400
43 1.61730500 -0.08409800 -0.17136400 -0.00389400 -0.07294600 0.12080700
44 1.59179100 -0.07171800 0.01248500 0.03799300 0.07429800 -0.27107500
45 5.51180800 -0.00000600 0.00000400 -0.15788100 0.00000000 0.00000000
46 0.19684600 0.00000600 0.00000000 -0.34822500 0.00001500 -0.00000200
47 0.00000000 1.00000000 0.00000000 0.00000000 0.00000000 -1.57079600
48 -3.61777500 2.37672400 -4.27288200 0.00000000 0.00000000 -3.14156200
49 -7.62010057 22.14284416 -0.85117962 0.41872112 0.25841546 -0.38030135
50 -2.73809200 -0.01506700 -1.41866600 0.00000000 0.00000000 0.00000000
51 0.08252900 0.01004300 1.10143700 0.00000000 0.00000000 0.00000000
52 2.93059500 0.00515100 -1.91167600 0.00000000 0.00000000 0.00000000
53 -2.05538000 -0.45364600 1.82713400 0.00000000 0.00000000 0.00000000
54 9.36482400 1.44277900 -3.99952300 0.07390500 1.14671000 1.69417200
55 -7.13254800 -2.15651700 -1.15508800 3.07613000 1.14376700 -2.35758400
56 -0.78580700 -0.81322800 -1.37688400 0.00000000 0.00000000 0.00000000
time 1
0 -0.00000100 8.45008800 -27.50902600 0.00000000 0.00000000 0.00003100
1 -0.00000200 0.00000000 0.00000000 1.57074700 -1.56714200 -1.57074700
2 4.25546500 -0.33518400 -0.00000200 0.00000000 0.00000000 -0.12484800
3 7.43125000 1.49647900 0.00000200 0.00000000 0.00000000 0.24545000
4 5.27847900 0.16554300 0.00000100 0.00000000 0.00000000 0.04851100
5 -1.64873900 -13.09409500 6.31045700 1.97586600 1.15990900 -1.29878500
6 -6.21447800 -0.00001000 -0.00002700 -2.52005368 -0.53043623 1.09675613
7 11.94488900 0.00000000 0.00000000 -0.05976074 -0.30992674 1.07398905
8 10.62019000 0.00000000 0.00000000 1.05153899 -0.45250939 -2.92029921
9 -4.75111000 -0.69449400 0.83057900 -0.07754700 -0.10769900 -0.03752200
10 -1.68807600 0.00004300 -0.00003100 0.00938000 -0.02289700 1.05047000
11 -1.33614300 0.00005300 -0.00001000 0.02638000 -0.00058900 0.57428600
12 -4.82049600 -0.50945900 -0.22476100 -0.57092300 -0.10555800 1.44992400
13 -1.82699200 -0.00007200 0.00000800 0.00656300 0.03990300 1.43686000
14 -1.43657300 0.00000800 0.00000400 -0.02777900 -0.07262600 0.27329100
15 -3.99235900 -0.89118600 -1.82791000 -0.63293500 0.34569000 1.73009700
16 -1.40592200 -0.00002700 0.00000000 -0.00296100 -0.02931600 0.97649500
17 -1.17535800 0.00012800 -0.00002100 0.01386900 0.06651400 0.10995400
18 -4.52675200 -0.69057500 -1.12074400 -0.60402400 0.11592100 1.64682700
19 -1.74403800 0.00003300 -0.00000400 -0.02372800 -0.01764400 1.34313800
20 -1.36877400 0.00002500 0.00000400 -0.23930400 0.01835900 -0.00351200
21 -1.87479800 -0.93512200 0.99917500 2.06727500 0.44154900 0.74971800
22 -1.52344900 0.00003400 0.00003100 0.07418300 0.23397300 0.56369800
23 -1.59927600 0.00000800 0.00001500 0.02972300 -0.03090300 0.78512800
24 5.58312600 0.11572300 0.29499800 1.94756400 -0.06728900 3.12123600
25 0.19684600 -0.00000100 0.00000400 2.79340697 -0.00036364 -3.14147950
26 -2.20447900 -17.79016500 1.21744100 1.97586200 1.15991000 1.84280300
27 6.21448500 0.00001000 0.00002000 -2.62416173 0.29175222 -1.39830272
28 11.94488500 -0.00003200 -0.00019900 -1.01759254 1.26863907 -0.94981333
29 10.62016900 -0.00000200 0.00000800 -1.18641465 -0.67582227 -0.32120927
30 4.75116500 0.69437600 -0.83047400 0.05436000 -0.56975700 0.36612000
31 1.68806100 -0.00002400 0.00000200 -0.01309700 -0.02096100 1.99734200
32 1.33615100 -0.00005000 -0.00001000 0.03223000 -0.02151500 -0.61144300
33 4.82051700 0.50934200 0.22486600 -0.28415000 -0.52070100 0.87084800
34 1.82700300 0.00006200 0.00001000 0.02775100 0.02944300 2.02953400
35 1.43658100 -0.00000600 0.00001000 0.01503200 0.00167500 -0.83651700
36 3.99235500 0.89109000 1.82799500 -0.58287400 -0.10354100 1.34741900
37 1.40592200 0.00003100 -0.00000400 -0.02039300 -0.02129600 1.63879800
38 1.17536200 -0.00013200 0.00000400 -0.07487300 0.09798600 -0.69969900
39 4.52676200 0.69046800 1.12084200 -0.57965900 -0.30454000 1.33627400
40 1.74404100 -0.00002700 0.00000100 -0.02932600 -0.00357100 1.85952500
41 1.36876300 -0.00003100 -0.00002000 -0.12191500 0.10180800 -1.06387600
42 2.10919800 1.21153900 -0.81156700 1.55586900 0.56231100 0.17976400
43 1.61730500 -0.08409800 -0.17136400 -0.00389400 -0.07294600 0.12080700
44 1.59179100 -0.07171800 0.01248500 0.03799300 0.07429800 -0.27107500
45 5.51180800 -0.00000600 0.00000400 -0.15788100 0.00000000 0.00000000
46 0.19684600 0.00000600 0.00000000 -0.34822500 0.00001500 -0.00000200
47 0.00000000 1.00000000 0.00000000 0.00000000 0.00000000 -1.57079600
48 -3.61777500 2.37672400 -4.27288200 0.00000000 0.00000000 -3.14156200
49 -7.59264045 22.11917916 -0.84224980 0.41016269 0.25671285 -0.38194232
50 -2.73809200 -0.01506700 -1.41866600 0.00000000 0.00000000 0.00000000
51 0.08252900 0.01004300 1.10143700 0.00000000 0.00000000 0.00000000
52 2.93059500 0.00515100 -1.91167600 0.00000000 0.00000000 0.00000000
53 -2.05538000 -0.45364600 1.82713400 0.00000000 0.00000000 0.00000000
54 9.36482400 1.44277900 -3.99952300 0.07390500 1.14671000 1.69417200
55 -7.13254800 -2.15651700 -1.15508800 3.07613000 1.14376700 -2.35758400
56 -0.78580700 -0.81322800 -1.37688400 0.00000000 0.00000000 0.00000000
time 2
0 -0.00000100 8.45008800 -27.50902600 0.00000000 0.00000000 0.00003100
1 -0.00000200 0.00000000 0.00000000 1.57074700 -1.56714200 -1.57074700
2 4.25546500 -0.33518400 -0.00000200 0.00000000 0.00000000 -0.12484800
3 7.43125000 1.49647900 0.00000200 0.00000000 0.00000000 0.24545000
4 5.27847900 0.16554300 0.00000100 0.00000000 0.00000000 0.04851100
5 -1.64873900 -13.09409500 6.31045700 1.97586600 1.15990900 -1.29878500
6 -6.21447800 -0.00001000 -0.00002700 -2.51766273 -0.53799216 1.10353649
7 11.94488900 0.00000000 0.00000000 -0.06767686 -0.31400249 1.09962348
8 10.62019000 0.00000000 0.00000000 1.05482373 -0.46160779 -2.94014000
9 -4.75111000 -0.69449400 0.83057900 -0.07754700 -0.10769900 -0.03752200
10 -1.68807600 0.00004300 -0.00003100 0.00938000 -0.02289700 1.05047000
11 -1.33614300 0.00005300 -0.00001000 0.02638000 -0.00058900 0.57428600
12 -4.82049600 -0.50945900 -0.22476100 -0.57092300 -0.10555800 1.44992400
13 -1.82699200 -0.00007200 0.00000800 0.00656300 0.03990300 1.43686000
14 -1.43657300 0.00000800 0.00000400 -0.02777900 -0.07262600 0.27329100
15 -3.99235900 -0.89118600 -1.82791000 -0.63293500 0.34569000 1.73009700
16 -1.40592200 -0.00002700 0.00000000 -0.00296100 -0.02931600 0.97649500
17 -1.17535800 0.00012800 -0.00002100 0.01386900 0.06651400 0.10995400
18 -4.52675200 -0.69057500 -1.12074400 -0.60402400 0.11592100 1.64682700
19 -1.74403800 0.00003300 -0.00000400 -0.02372800 -0.01764400 1.34313800
20 -1.36877400 0.00002500 0.00000400 -0.23930400 0.01835900 -0.00351200
21 -1.87479800 -0.93512200 0.99917500 2.06727500 0.44154900 0.74971800
22 -1.52344900 0.00003400 0.00003100 0.07418300 0.23397300 0.56369800
23 -1.59927600 0.00000800 0.00001500 0.02972300 -0.03090300 0.78512800
24 5.58312600 0.11572300 0.29499800 1.94756400 -0.06728900 3.12123600
25 0.19684600 -0.00000100 0.00000400 2.79340697 -0.00036364 -3.14147950
26 -2.20447900 -17.79016500 1.21744100 1.97586200 1.15991000 1.84280300
27 6.21448500 0.00001000 0.00002000 -2.61797881 0.29332573 -1.39736154
28 11.94488500 -0.00003200 -0.00019900 -1.03899317 1.27474139 -0.97215740
29 10.62016900 -0.00000200 0.00000800 -1.18972342 -0.68689640 -0.32523833
30 4.75116500 0.69437600 -0.83047400 0.05436000 -0.56975700 0.36612000
31 1.68806100 -0.00002400 0.00000200 -0.01309700 -0.02096100 1.99734200
32 1.33615100 -0.00005000 -0.00001000 0.03223000 -0.02151500 -0.61144300
33 4.82051700 0.50934200 0.22486600 -0.28415000 -0.52070100 0.87084800
34 1.82700300 0.00006200 0.00001000 0.02775100 0.02944300 2.02953400
35 1.43658100 -0.00000600 0.00001000 0.01503200 0.00167500 -0.83651700
36 3.99235500 0.89109000 1.82799500 -0.58287400 -0.10354100 1.34741900
37 1.40592200 0.00003100 -0.00000400 -0.02039300 -0.02129600 1.63879800
38 1.17536200 -0.00013200 0.00000400 -0.07487300 0.09798600 -0.69969900
39 4.52676200 0.69046800 1.12084200 -0.57965900 -0.30454000 1.33627400
40 1.74404100 -0.00002700 0.00000100 -0.02932600 -0.00357100 1.85952500
41 1.36876300 -0.00003100 -0.00002000 -0.12191500 0.10180800 -1.06387600
42 2.10919800 1.21153900 -0.81156700 1.55586900 0.56231100 0.17976400
43 1.61730500 -0.08409800 -0.17136400 -0.00389400 -0.07294600 0.12080700
44 1.59179100 -0.07171800 0.01248500 0.03799300 0.07429800 -0.27107500
45 5.51180800 -0.00000600 0.00000400 -0.15788100 0.00000000 0.00000000
46 0.19684600 0.00000600 0.00000000 -0.34822500 0.00001500 -0.00000200
47 0.00000000 1.00000000 0.00000000 0.00000000 0.00000000 -1.57079600
48 -3.61777500 2.37672400 -4.27288200 0.00000000 0.00000000 -3.14156200
49 -7.50238359 22.05258616 -0.81170969 0.40867161 0.25350803 -0.38681890
50 -2.73809200 -0.01506700 -1.41866600 0.00000000 0.00000000 0.00000000
51 0.08252900 0.01004300 1.10143700 0.00000000 0.00000000 0.00000000
52 2.93059500 0.00515100 -1.91167600 0.00000000 0.00000000 0.00000000
53 -2.05538000 -0.45364600 1.82713400 0.00000000 0.00000000 0.00000000
54 9.36482400 1.44277900 -3.99952300 0.07390500 1.14671000 1.69417200
55 -7.13254800 -2.15651700 -1.15508800 3.07613000 1.14376700 -2.35758400
56 -0.78580700 -0.81322800 -1.37688400 0.00000000 0.00000000 0.00000000
time 3
0 -0.00000100 8.45008800 -27.50902600 0.00000000 0.00000000 0.00003100
1 -0.00000200 0.00000000 0.00000000 1.57074700 -1.56714200 -1.57074700
2 4.25546500 -0.33518400 -0.00000200 0.00000000 0.00000000 -0.12484800
3 7.43125000 1.49647900 0.00000200 0.00000000 0.00000000 0.24545000
4 5.27847900 0.16554300 0.00000100 0.00000000 0.00000000 0.04851100
5 -1.64873900 -13.09409500 6.31045700 1.97586600 1.15990900 -1.29878500
6 -6.21447800 -0.00001000 -0.00002700 -2.51034200 -0.55104871 1.11680225
7 11.94488900 0.00000000 0.00000000 -0.08091248 -0.31979398 1.14231446
8 10.62019000 0.00000000 0.00000000 1.07172655 -0.47882998 -2.97093112
9 -4.75111000 -0.69449400 0.83057900 -0.07754700 -0.10769900 -0.03752200
10 -1.68807600 0.00004300 -0.00003100 0.00938000 -0.02289700 1.05047000
11 -1.33614300 0.00005300 -0.00001000 0.02638000 -0.00058900 0.57428600
12 -4.82049600 -0.50945900 -0.22476100 -0.57092300 -0.10555800 1.44992400
13 -1.82699200 -0.00007200 0.00000800 0.00656300 0.03990300 1.43686000
14 -1.43657300 0.00000800 0.00000400 -0.02777900 -0.07262600 0.27329100
15 -3.99235900 -0.89118600 -1.82791000 -0.63293500 0.34569000 1.73009700
16 -1.40592200 -0.00002700 0.00000000 -0.00296100 -0.02931600 0.97649500
17 -1.17535800 0.00012800 -0.00002100 0.01386900 0.06651400 0.10995400
18 -4.52675200 -0.69057500 -1.12074400 -0.60402400 0.11592100 1.64682700
19 -1.74403800 0.00003300 -0.00000400 -0.02372800 -0.01764400 1.34313800
20 -1.36877400 0.00002500 0.00000400 -0.23930400 0.01835900 -0.00351200
21 -1.87479800 -0.93512200 0.99917500 2.06727500 0.44154900 0.74971800
22 -1.52344900 0.00003400 0.00003100 0.07418300 0.23397300 0.56369800
23 -1.59927600 0.00000800 0.00001500 0.02972300 -0.03090300 0.78512800
24 5.58312600 0.11572300 0.29499800 1.94756400 -0.06728900 3.12123600
25 0.19684600 -0.00000100 0.00000400 2.79340697 -0.00036364 -3.14147950
26 -2.20447900 -17.79016500 1.21744100 1.97586200 1.15991000 1.84280300
27 6.21448500 0.00001000 0.00002000 -2.60298571 0.29753160 -1.39760015
28 11.94488500 -0.00003200 -0.00019900 -1.07611024 1.28284473 -1.01082309
29 10.62016900 -0.00000200 0.00000800 -1.20619780 -0.69740400 -0.33319966
30 4.75116500 0.69437600 -0.83047400 0.05436000 -0.56975700 0.36612000
31 1.68806100 -0.00002400 0.00000200 -0.01309700 -0.02096100 1.99734200
32 1.33615100 -0.00005000 -0.00001000 0.03223000 -0.02151500 -0.61144300
33 4.82051700 0.50934200 0.22486600 -0.28415000 -0.52070100 0.87084800
34 1.82700300 0.00006200 0.00001000 0.02775100 0.02944300 2.02953400
35 1.43658100 -0.00000600 0.00001000 0.01503200 0.00167500 -0.83651700
36 3.99235500 0.89109000 1.82799500 -0.58287400 -0.10354100 1.34741900
37 1.40592200 0.00003100 -0.00000400 -0.02039300 -0.02129600 1.63879800
38 1.17536200 -0.00013200 0.00000400 -0.07487300 0.09798600 -0.69969900
39 4.52676200 0.69046800 1.12084200 -0.57965900 -0.30454000 1.33627400
40 1.74404100 -0.00002700 0.00000100 -0.02932600 -0.00357100 1.85952500
41 1.36876300 -0.00003100 -0.00002000 -0.12191500 0.10180800 -1.06387600
42 2.10919800 1.21153900 -0.81156700 1.55586900 0.56231100 0.17976400
43 1.61730500 -0.08409800 -0.17136400 -0.00389400 -0.07294600 0.12080700
44 1.59179100 -0.07171800 0.01248500 0.03799300 0.07429800 -0.27107500
45 5.51180800 -0.00000600 0.00000400 -0.15788100 0.00000000 0.00000000
46 0.19684600 0.00000600 0.00000000 -0.34822500 0.00001500 -0.00000200
47 0.00000000 1.00000000 0.00000000 0.00000000 0.00000000 -1.57079600
48 -3.61777500 2.37672400 -4.27288200 0.00000000 0.00000000 -3.14156200
49 -7.30465758 21.94966916 -0.78607077 0.41659971 0.24937437 -0.39697900
50 -2.73809200 -0.01506700 -1.41866600 0.00000000 0.00000000 0.00000000
51 0.08252900 0.01004300 1.10143700 0.00000000 0.00000000 0.00000000
52 2.93059500 0.00515100 -1.91167600 0.00000000 0.00000000 0.00000000
53 -2.05538000 -0.45364600 1.82713400 0.00000000 0.00000000 0.00000000
54 9.36482400 1.44277900 -3.99952300 0.07390500 1.14671000 1.69417200
55 -7.13254800 -2.15651700 -1.15508800 3.07613000 1.14376700 -2.35758400
56 -0.78580700 -0.81322800 -1.37688400 0.00000000 0.00000000 0.00000000
time 4
0 -0.00000100 8.45008800 -27.50902600 0.00000000 0.00000000 0.00003100
1 -0.00000200 0.00000000 0.00000000 1.57074700 -1.56714200 -1.57074700
2 4.25546500 -0.33518400 -0.00000200 0.00000000 0.00000000 -0.12484800
3 7.43125000 1.49647900 0.00000200 0.00000000 0.00000000 0.24545000
4 5.27847900 0.16554300 0.00000100 0.00000000 0.00000000 0.04851100
5 -1.48138000 -12.82838700 6.05071200 1.97586600 1.15990900 -1.29878500
6 -6.21447800 -0.00001000 -0.00002700 -2.49321762 -0.56763183 1.15113010
7 11.94488900 0.00000000 0.00000000 -0.09401353 -0.32521705 1.18349438
8 10.62019000 0.00000000 0.00000000 1.09564776 -0.51275508 -2.98954798
9 -4.75111000 -0.69449400 0.83057900 -0.07754700 -0.10769900 -0.03752200
10 -1.68807600 0.00004300 -0.00003100 0.00938000 -0.02289700 1.05047000
11 -1.33614300 0.00005300 -0.00001000 0.02638000 -0.00058900 0.57428600
12 -4.82049600 -0.50945900 -0.22476100 -0.57092300 -0.10555800 1.44992400
13 -1.82699200 -0.00007200 0.00000800 0.00656300 0.03990300 1.43686000
14 -1.43657300 0.00000800 0.00000400 -0.02777900 -0.07262600 0.27329100
15 -3.99235900 -0.89118600 -1.82791000 -0.63293500 0.34569000 1.73009700
16 -1.40592200 -0.00002700 0.00000000 -0.00296100 -0.02931600 0.97649500
17 -1.17535800 0.00012800 -0.00002100 0.01386900 0.06651400 0.10995400
18 -4.52675200 -0.69057500 -1.12074400 -0.60402400 0.11592100 1.64682700
19 -1.74403800 0.00003300 -0.00000400 -0.02372800 -0.01764400 1.34313800
20 -1.36877400 0.00002500 0.00000400 -0.23930400 0.01835900 -0.00351200
21 -1.87479800 -0.93512200 0.99917500 2.06727500 0.44154900 0.74971800
22 -1.52344900 0.00003400 0.00003100 0.07418300 0.23397300 0.56369800
23 -1.59927600 0.00000800 0.00001500 0.02972300 -0.03090300 0.78512800
24 5.58312600 0.11572300 0.29499800 1.94756400 -0.06728900 3.12123600
25 0.19684600 -0.00000100 0.00000400 2.79340697 -0.00036364 -3.14147950
26 -2.23867100 -17.82038900 1.17530700 1.97586200 1.15991000 1.84280300
27 6.21448500 0.00001000 0.00002000 -2.57215219 0.30423643 -1.40117374
28 11.94488500 -0.00003200 -0.00019900 -1.14196853 1.29427704 -1.07933064
29 10.62016900 -0.00000200 0.00000800 -1.23648076 -0.71478256 -0.34944544
30 4.75116500 0.69437600 -0.83047400 0.05436000 -0.56975700 0.36612000
31 1.68806100 -0.00002400 0.00000200 -0.01309700 -0.02096100 1.99734200
32 1.33615100 -0.00005000 -0.00001000 0.03223000 -0.02151500 -0.61144300
33 4.82051700 0.50934200 0.22486600 -0.28415000 -0.52070100 0.87084800
34 1.82700300 0.00006200 0.00001000 0.02775100 0.02944300 2.02953400
35 1.43658100 -0.00000600 0.00001000 0.01503200 0.00167500 -0.83651700
36 3.99235500 0.89109000 1.82799500 -0.58287400 -0.10354100 1.34741900
37 1.40592200 0.00003100 -0.00000400 -0.02039300 -0.02129600 1.63879800
38 1.17536200 -0.00013200 0.00000400 -0.07487300 0.09798600 -0.69969900
39 4.52676200 0.69046800 1.12084200 -0.57965900 -0.30454000 1.33627400
40 1.74404100 -0.00002700 0.00000100 -0.02932600 -0.00357100 1.85952500
41 1.36876300 -0.00003100 -0.00002000 -0.12191500 0.10180800 -1.06387600
42 2.10919800 1.21153900 -0.81156700 1.55586900 0.56231100 0.17976400
43 1.61730500 -0.08409800 -0.17136400 -0.00389400 -0.07294600 0.12080700
44 1.59179100 -0.07171800 0.01248500 0.03799300 0.07429800 -0.27107500
45 5.51180800 -0.00000600 0.00000400 -0.15788100 0.00000000 0.00000000
46 0.19684600 0.00000600 0.00000000 -0.34822500 0.00001500 -0.00000200
47 0.00000000 1.00000000 0.00000000 0.00000000 0.00000000 -1.57079600
48 -3.61777500 2.37672400 -4.27288200 0.00000000 0.00000000 -3.14156200
49 -6.93721944 21.81703416 -0.77206771 0.43067603 0.24226373 -0.41841485
50 -2.73809200 -0.01506700 -1.41866600 0.00000000 0.00000000 0.00000000
51 0.08252900 0.01004300 1.10143700 0.00000000 0.00000000 0.00000000
52 2.93059500 0.00515100 -1.91167600 0.00000000 0.00000000 0.00000000
53 -2.05538000 -0.45364600 1.82713400 0.00000000 0.00000000 0.00000000
54 9.36482400 1.44277900 -3.99952300 0.07390500 1.14671000 1.69417200
55 -7.13254800 -2.15651700 -1.15508800 3.07613000 1.14376700 -2.35758400
56 -0.78580700 -0.81322800 -1.37688400 0.00000000 0.00000000 0.00000000
time 5
0 -0.00000100 8.45008800 -27.50902600 0.00000000 0.00000000 0.00003100
1 -0.00000200 0.00000000 0.00000000 1.57074700 -1.56714200 -1.57074700
2 4.25546500 -0.33518400 -0.00000200 0.00000000 0.00000000 -0.12484800
3 7.43125000 1.49647900 0.00000200 0.00000000 0.00000000 0.24545000
4 5.27847900 0.16554300 0.00000100 0.00000000 0.00000000 0.04851100
5 -1.04015500 -12.12788700 5.36592800 1.97586600 1.15990900 -1.29878500
6 -6.21447800 -0.00001000 -0.00002700 -2.46694065 -0.58747833 1.22230818
7 11.94488900 0.00000000 0.00000000 -0.10761607 -0.33039270 1.22575620
8 10.62019000 0.00000000 0.00000000 1.12744988 -0.56904853 -3.00318981
9 -4.75111000 -0.69449400 0.83057900 -0.07754700 -0.10769900 -0.03752200
10 -1.68807600 0.00004300 -0.00003100 0.00938000 -0.02289700 1.05047000
11 -1.33614300 0.00005300 -0.00001000 0.02638000 -0.00058900 0.57428600
12 -4.82049600 -0.50945900 -0.22476100 -0.57092300 -0.10555800 1.44992400
13 -1.82699200 -0.00007200 0.00000800 0.00656300 0.03990300 1.43686000
14 -1.43657300 0.00000800 0.00000400 -0.02777900 -0.07262600 0.27329100
15 -3.99235900 -0.89118600 -1.82791000 -0.63293500 0.34569000 1.73009700
16 -1.40592200 -0.00002700 0.00000000 -0.00296100 -0.02931600 0.97649500
17 -1.17535800 0.00012800 -0.00002100 0.01386900 0.06651400 0.10995400
18 -4.52675200 -0.69057500 -1.12074400 -0.60402400 0.11592100 1.64682700
19 -1.74403800 0.00003300 -0.00000400 -0.02372800 -0.01764400 1.34313800
20 -1.36877400 0.00002500 0.00000400 -0.23930400 0.01835900 -0.00351200
21 -1.87479800 -0.93512200 0.99917500 2.06727500 0.44154900 0.74971800
22 -1.52344900 0.00003400 0.00003100 0.07418300 0.23397300 0.56369800
23 -1.59927600 0.00000800 0.00001500 0.02972300 -0.03090300 0.78512800
24 5.58312600 0.11572300 0.29499800 1.94756400 -0.06728900 3.12123600
25 0.19684600 -0.00000100 0.00000400 2.79340697 -0.00036364 -3.14147950
26 -2.33320500 -17.90394600 1.05881300 1.97586200 1.15991000 1.84280300
27 6.21448500 0.00001000 0.00002000 -2.51157685 0.31172766 -1.41298082
28 11.94488500 -0.00003200 -0.00019900 -1.22760045 1.30535868 -1.16807690
29 10.62016900 -0.00000200 0.00000800 -1.29610567 -0.74640360 -0.37378162
30 4.75116500 0.69437600 -0.83047400 0.05436000 -0.56975700 0.36612000
31 1.68806100 -0.00002400 0.00000200 -0.01309700 -0.02096100 1.99734200
32 1.33615100 -0.00005000 -0.00001000 0.03223000 -0.02151500 -0.61144300
33 4.82051700 0.50934200 0.22486600 -0.28415000 -0.52070100 0.87084800
34 1.82700300 0.00006200 0.00001000 0.02775100 0.02944300 2.02953400
35 1.43658100 -0.00000600 0.00001000 0.01503200 0.00167500 -0.83651700
36 3.99235500 0.89109000 1.82799500 -0.58287400 -0.10354100 1.34741900
37 1.40592200 0.00003100 -0.00000400 -0.02039300 -0.02129600 1.63879800
38 1.17536200 -0.00013200 0.00000400 -0.07487300 0.09798600 -0.69969900
39 4.52676200 0.69046800 1.12084200 -0.57965900 -0.30454000 1.33627400
40 1.74404100 -0.00002700 0.00000100 -0.02932600 -0.00357100 1.85952500
41 1.36876300 -0.00003100 -0.00002000 -0.12191500 0.10180800 -1.06387600
42 2.10919800 1.21153900 -0.81156700 1.55586900 0.56231100 0.17976400
43 1.61730500 -0.08409800 -0.17136400 -0.00389400 -0.07294600 0.12080700
44 1.59179100 -0.07171800 0.01248500 0.03799300 0.07429800 -0.27107500
45 5.51180800 -0.00000600 0.00000400 -0.15788100 0.00000000 0.00000000
46 0.19684600 0.00000600 0.00000000 -0.34822500 0.00001500 -0.00000200
47 0.00000000 1.00000000 0.00000000 0.00000000 0.00000000 -1.57079600
48 -3.61777500 2.37672400 -4.27288200 0.00000000 0.00000000 -3.14156200
49 -6.28886963 21.66128416 -0.76940803 0.44752553 0.22474428 -0.46801159
50 -2.73809200 -0.01506700 -1.41866600 0.00000000 0.00000000 0.00000000
51 0.08252900 0.01004300 1.10143700 0.00000000 0.00000000 0.00000000
52 2.93059500 0.00515100 -1.91167600 0.00000000 0.00000000 0.00000000
53 -2.05538000 -0.45364600 1.82713400 0.00000000 0.00000000 0.00000000
54 9.36482400 1.44277900 -3.99952300 0.07390500 1.14671000 1.69417200
55 -7.13254800 -2.15651700 -1.15508800 3.07613000 1.14376700 -2.35758400
56 -0.78580700 -0.81322800 -1.37688400 0.00000000 0.00000000 0.00000000
time 6
0 -0.00000100 8.45008800 -27.50902600 0.00000000 0.00000000 0.00003100
1 -0.00000200 0.00000000 0.00000000 1.57074700 -1.56714200 -1.57074700
2 4.25546500 -0.33518400 -0.00000200 0.00000000 0.00000000 -0.12484800
3 7.43125000 1.49647900 0.00000200 0.00000000 0.00000000 0.24545000
4 5.27847900 0.16554300 0.00000100 0.00000000 0.00000000 0.04851100
5 -0.41635800 -11.13752400 4.39778700 1.97586600 1.15990900 -1.29878500
6 -6.21447800 -0.00001000 -0.00002700 -2.45520679 -0.62188802 1.34006914
7 11.94488900 0.00000000 0.00000000 -0.13942911 -0.33999170 1.32241165
8 10.62019000 0.00000000 0.00000000 1.19122069 -0.61814838 -3.09070135
9 -4.75111000 -0.69449400 0.83057900 -0.07754700 -0.10769900 -0.03752200
10 -1.68807600 0.00004300 -0.00003100 0.00938000 -0.02289700 1.05047000
11 -1.33614300 0.00005300 -0.00001000 0.02638000 -0.00058900 0.57428600
12 -4.82049600 -0.50945900 -0.22476100 -0.57092300 -0.10555800 1.44992400
13 -1.82699200 -0.00007200 0.00000800 0.00656300 0.03990300 1.43686000
14 -1.43657300 0.00000800 0.00000400 -0.02777900 -0.07262600 0.27329100
15 -3.99235900 -0.89118600 -1.82791000 -0.63293500 0.34569000 1.73009700
16 -1.40592200 -0.00002700 0.00000000 -0.00296100 -0.02931600 0.97649500
17 -1.17535800 0.00012800 -0.00002100 0.01386900 0.06651400 0.10995400
18 -4.52675200 -0.69057500 -1.12074400 -0.60402400 0.11592100 1.64682700
19 -1.74403800 0.00003300 -0.00000400 -0.02372800 -0.01764400 1.34313800
20 -1.36877400 0.00002500 0.00000400 -0.23930400 0.01835900 -0.00351200
21 -1.87479800 -0.93512200 0.99917500 2.06727500 0.44154900 0.74971800
22 -1.52344900 0.00003400 0.00003100 0.07418300 0.23397300 0.56369800
23 -1.59927600 0.00000800 0.00001500 0.02972300 -0.03090300 0.78512800
24 5.58312600 0.11572300 0.29499800 1.94756400 -0.06728900 3.12123600
25 0.19684600 -0.00000100 0.00000400 2.79340697 -0.00036364 -3.14147950
26 -2.47600800 -18.03017000 0.88283700 1.97586200 1.15991000 1.84280300
27 6.21448500 0.00001000 0.00002000 -2.40239139 0.30874963 -1.44659826
28 11.94488500 -0.00003200 -0.00019900 -1.21863331 1.30418447 -1.15886167
29 10.62016900 -0.00000200 0.00000800 -1.43688560 -0.78339068 -0.37282456
30 4.75116500 0.69437600 -0.83047400 0.05436000 -0.56975700 0.36612000
31 1.68806100 -0.00002400 0.00000200 -0.01309700 -0.02096100 1.99734200
32 1.33615100 -0.00005000 -0.00001000 0.03223000 -0.02151500 -0.61144300
33 4.82051700 0.50934200 0.22486600 -0.28415000 -0.52070100 0.87084800
34 1.82700300 0.00006200 0.00001000 0.02775100 0.02944300 2.02953400
35 1.43658100 -0.00000600 0.00001000 0.01503200 0.00167500 -0.83651700
36 3.99235500 0.89109000 1.82799500 -0.58287400 -0.10354100 1.34741900
37 1.40592200 0.00003100 -0.00000400 -0.02039300 -0.02129600 1.63879800
38 1.17536200 -0.00013200 0.00000400 -0.07487300 0.09798600 -0.69969900
39 4.52676200 0.69046800 1.12084200 -0.57965900 -0.30454000 1.33627400
40 1.74404100 -0.00002700 0.00000100 -0.02932600 -0.00357100 1.85952500
41 1.36876300 -0.00003100 -0.00002000 -0.12191500 0.10180800 -1.06387600
42 2.10919800 1.21153900 -0.81156700 1.55586900 0.56231100 0.17976400
43 1.61730500 -0.08409800 -0.17136400 -0.00389400 -0.07294600 0.12080700
44 1.59179100 -0.07171800 0.01248500 0.03799300 0.07429800 -0.27107500
45 5.51180800 -0.00000600 0.00000400 -0.15788100 0.00000000 0.00000000
46 0.19684600 0.00000600 0.00000000 -0.34822500 0.00001500 -0.00000200
47 0.00000000 1.00000000 0.00000000 0.00000000 0.00000000 -1.57079600
48 -3.61777500 2.37672400 -4.27288200 0.00000000 0.00000000 -3.14156200
49 -5.23817545 21.48902216 -0.78410257 0.46022704 0.19148893 -0.58639435
50 -2.73809200 -0.01506700 -1.41866600 0.00000000 0.00000000 0.00000000
51 0.08252900 0.01004300 1.10143700 0.00000000 0.00000000 0.00000000
52 2.93059500 0.00515100 -1.91167600 0.00000000 0.00000000 0.00000000
53 -2.05538000 -0.45364600 1.82713400 0.00000000 0.00000000 0.00000000
54 9.36482400 1.44277900 -3.99952300 0.07390500 1.14671000 1.69417200
55 -7.13254800 -2.15651700 -1.15508800 3.07613000 1.14376700 -2.35758400
56 -0.78580700 -0.81322800 -1.37688400 0.00000000 0.00000000 0.00000000
time 7
0 -0.00000100 8.45008800 -27.50902600 0.00000000 0.00000000 0.00003100
1 -0.00000200 0.00000000 0.00000000 1.57074700 -1.56714200 -1.57074700
2 4.25546500 -0.33518400 -0.00000200 0.00000000 0.00000000 -0.12484800
3 7.43125000 1.49647900 0.00000200 0.00000000 0.00000000 0.24545000
4 5.27847900 0.16554300 0.00000100 0.00000000 0.00000000 0.04851100
5 0.29872500 -10.00223200 3.28796700 1.97586600 1.15990900 -1.29878500
6 -6.21447800 -0.00001000 -0.00002700 -2.52293002 -0.65991027 1.48851376
7 11.94488900 0.00000000 0.00000000 -0.18633879 -0.34846712 1.46163946
8 10.62019000 0.00000000 0.00000000 1.26438911 -0.56728738 3.01331313
9 -4.75111000 -0.69449400 0.83057900 -0.07754700 -0.10769900 -0.03752200
10 -1.68807600 0.00004300 -0.00003100 0.00938000 -0.02289700 1.05047000
11 -1.33614300 0.00005300 -0.00001000 0.02638000 -0.00058900 0.57428600
12 -4.82049600 -0.50945900 -0.22476100 -0.57092300 -0.10555800 1.44992400
13 -1.82699200 -0.00007200 0.00000800 0.00656300 0.03990300 1.43686000
14 -1.43657300 0.00000800 0.00000400 -0.02777900 -0.07262600 0.27329100
15 -3.99235900 -0.89118600 -1.82791000 -0.63293500 0.34569000 1.73009700
16 -1.40592200 -0.00002700 0.00000000 -0.00296100 -0.02931600 0.97649500
17 -1.17535800 0.00012800 -0.00002100 0.01386900 0.06651400 0.10995400
18 -4.52675200 -0.69057500 -1.12074400 -0.60402400 0.11592100 1.64682700
19 -1.74403800 0.00003300 -0.00000400 -0.02372800 -0.01764400 1.34313800
20 -1.36877400 0.00002500 0.00000400 -0.23930400 0.01835900 -0.00351200
21 -1.87479800 -0.93512200 0.99917500 2.06727500 0.44154900 0.74971800
22 -1.52344900 0.00003400 0.00003100 0.07418300 0.23397300 0.56369800
23 -1.59927600 0.00000800 0.00001500 0.02972300 -0.03090300 0.78512800
24 5.58312600 0.11572300 0.29499800 1.94756400 -0.06728900 3.12123600
25 0.19684600 -0.00000100 0.00000400 2.79340697 -0.00036364 -3.14147950
26 -2.65501700 -18.18839100 0.66224600 1.97586200 1.15991000 1.84280300
27 6.21448500 0.00001000 0.00002000 -2.28666192 0.28332836 -1.51324716
28 11.94488500 -0.00003200 -0.00019900 -1.01934391 1.27301285 -0.95155061
29 10.62016900 -0.00000200 0.00000800 -1.67224941 -0.78922649 -0.26900589
30 4.75116500 0.69437600 -0.83047400 0.05436000 -0.56975700 0.36612000
31 1.68806100 -0.00002400 0.00000200 -0.01309700 -0.02096100 1.99734200
32 1.33615100 -0.00005000 -0.00001000 0.03223000 -0.02151500 -0.61144300
33 4.82051700 0.50934200 0.22486600 -0.28415000 -0.52070100 0.87084800
34 1.82700300 0.00006200 0.00001000 0.02775100 0.02944300 2.02953400
35 1.43658100 -0.00000600 0.00001000 0.01503200 0.00167500 -0.83651700
36 3.99235500 0.89109000 1.82799500 -0.58287400 -0.10354100 1.34741900
37 1.40592200 0.00003100 -0.00000400 -0.02039300 -0.02129600 1.63879800
38 1.17536200 -0.00013200 0.00000400 -0.07487300 0.09798600 -0.69969900
39 4.52676200 0.69046800 1.12084200 -0.57965900 -0.30454000 1.33627400
40 1.74404100 -0.00002700 0.00000100 -0.02932600 -0.00357100 1.85952500
41 1.36876300 -0.00003100 -0.00002000 -0.12191500 0.10180800 -1.06387600
42 2.10919800 1.21153900 -0.81156700 1.55586900 0.56231100 0.17976400
43 1.61730500 -0.08409800 -0.17136400 -0.00389400 -0.07294600 0.12080700
44 1.59179100 -0.07171800 0.01248500 0.03799300 0.07429800 -0.27107500
45 5.51180800 -0.00000600 0.00000400 -0.15788100 0.00000000 0.00000000
46 0.19684600 0.00000600 0.00000000 -0.34822500 0.00001500 -0.00000200
47 0.00000000 1.00000000 0.00000000 0.00000000 0.00000000 -1.57079600
48 -3.61777500 2.37672400 -4.27288200 0.00000000 0.00000000 -3.14156200
49 -4.30067104 21.30685516 -0.81218178 0.45202408 0.15303421 -0.78247298
50 -2.73809200 -0.01506700 -1.41866600 0.00000000 0.00000000 0.00000000
51 0.08252900 0.01004300 1.10143700 0.00000000 0.00000000 0.00000000
52 2.93059500 0.00515100 -1.91167600 0.00000000 0.00000000 0.00000000
53 -2.05538000 -0.45364600 1.82713400 0.00000000 0.00000000 0.00000000
54 9.36482400 1.44277900 -3.99952300 0.07390500 1.14671000 1.69417200
55 -7.13254800 -2.15651700 -1.15508800 3.07613000 1.14376700 -2.35758400
56 -0.78580700 -0.81322800 -1.37688400 0.00000000 0.00000000 0.00000000
time 8
0 -0.00000100 8.45008800 -27.50902600 0.00000000 0.00000000 0.00003100
1 -0.00000200 0.00000000 0.00000000 1.57074700 -1.56714200 -1.57074700
2 4.25546500 -0.33518400 -0.00000200 0.00000000 0.00000000 -0.12484800
3 7.43125000 1.49647900 0.00000200 0.00000000 0.00000000 0.24545000
4 5.27847900 0.16554300 0.00000100 0.00000000 0.00000000 0.04851100
5 1.01381200 -8.86693800 2.17814700 1.97586600 1.15990900 -1.29878500
6 -6.21447800 -0.00001000 -0.00002700 -2.65599877 -0.66476062 1.61456956
7 11.94488900 0.00000000 0.00000000 -0.21470579 -0.35004267 1.54474584
8 10.62019000 0.00000000 0.00000000 1.27180012 -0.43179822 2.86343415
9 -4.75111000 -0.69449400 0.83057900 -0.07754700 -0.10769900 -0.03752200
10 -1.68807600 0.00004300 -0.00003100 0.00938000 -0.02289700 1.05047000
11 -1.33614300 0.00005300 -0.00001000 0.02638000 -0.00058900 0.57428600
12 -4.82049600 -0.50945900 -0.22476100 -0.57092300 -0.10555800 1.44992400
13 -1.82699200 -0.00007200 0.00000800 0.00656300 0.03990300 1.43686000
14 -1.43657300 0.00000800 0.00000400 -0.02777900 -0.07262600 0.27329100
15 -3.99235900 -0.89118600 -1.82791000 -0.63293500 0.34569000 1.73009700
16 -1.40592200 -0.00002700 0.00000000 -0.00296100 -0.02931600 0.97649500
17 -1.17535800 0.00012800 -0.00002100 0.01386900 0.06651400 0.10995400
18 -4.52675200 -0.69057500 -1.12074400 -0.60402400 0.11592100 1.64682700
19 -1.74403800 0.00003300 -0.00000400 -0.02372800 -0.01764400 1.34313800
20 -1.36877400 0.00002500 0.00000400 -0.23930400 0.01835900 -0.00351200
21 -1.87479800 -0.93512200 0.99917500 2.06727500 0.44154900 0.74971800
22 -1.52344900 0.00003400 0.00003100 0.07418300 0.23397300 0.56369800
23 -1.59927600 0.00000800 0.00001500 0.02972300 -0.03090300 0.78512800
24 5.58312600 0.11572300 0.29499800 1.94756400 -0.06728900 3.12123600
25 0.19684600 -0.00000100 0.00000400 2.79340697 -0.00036364 -3.14147950
26 -2.85816200 -18.36795400 0.41191000 1.97586200 1.15991000 1.84280300
27 6.21448500 0.00001000 0.00002000 -2.21840780 0.25732449 -1.57930215
28 11.94488500 -0.00003200 -0.00019900 -0.85598229 1.23015241 -0.77976669
29 10.62016900 -0.00000200 0.00000800 -1.87587539 -0.76284863 -0.12062425
30 4.75116500 0.69437600 -0.83047400 0.05436000 -0.56975700 0.36612000
31 1.68806100 -0.00002400 0.00000200 -0.01309700 -0.02096100 1.99734200
32 1.33615100 -0.00005000 -0.00001000 0.03223000 -0.02151500 -0.61144300
33 4.82051700 0.50934200 0.22486600 -0.28415000 -0.52070100 0.87084800
34 1.82700300 0.00006200 0.00001000 0.02775100 0.02944300 2.02953400
35 1.43658100 -0.00000600 0.00001000 0.01503200 0.00167500 -0.83651700
36 3.99235500 0.89109000 1.82799500 -0.58287400 -0.10354100 1.34741900
37 1.40592200 0.00003100 -0.00000400 -0.02039300 -0.02129600 1.63879800
38 1.17536200 -0.00013200 0.00000400 -0.07487300 0.09798600 -0.69969900
39 4.52676200 0.69046800 1.12084200 -0.57965900 -0.30454000 1.33627400
40 1.74404100 -0.00002700 0.00000100 -0.02932600 -0.00357100 1.85952500
41 1.36876300 -0.00003100 -0.00002000 -0.12191500 0.10180800 -1.06387600
42 2.10919800 1.21153900 -0.81156700 1.55586900 0.56231100 0.17976400
43 1.61730500 -0.08409800 -0.17136400 -0.00389400 -0.07294600 0.12080700
44 1.59179100 -0.07171800 0.01248500 0.03799300 0.07429800 -0.27107500
45 5.51180800 -0.00000600 0.00000400 -0.15788100 0.00000000 0.00000000
46 0.19684600 0.00000600 0.00000000 -0.34822500 0.00001500 -0.00000200
47 0.00000000 1.00000000 0.00000000 0.00000000 0.00000000 -1.57079600
48 -3.61777500 2.37672400 -4.27288200 0.00000000 0.00000000 -3.14156200
49 -3.97911418 21.12138416 -0.83975805 0.42697762 0.12228661 -0.96801688
50 -2.73809200 -0.01506700 -1.41866600 0.00000000 0.00000000 0.00000000
51 0.08252900 0.01004300 1.10143700 0.00000000 0.00000000 0.00000000
52 2.93059500 0.00515100 -1.91167600 0.00000000 0.00000000 0.00000000
53 -2.05538000 -0.45364600 1.82713400 0.00000000 0.00000000 0.00000000
54 9.36482400 1.44277900 -3.99952300 0.07390500 1.14671000 1.69417200
55 -7.13254800 -2.15651700 -1.15508800 3.07613000 1.14376700 -2.35758400
56 -0.78580700 -0.81322800 -1.37688400 0.00000000 0.00000000 0.00000000
time 9
0 -0.00000100 8.45008800 -27.50902600 0.00000000 0.00000000 0.00003100
1 -0.00000200 0.00000000 0.00000000 1.57074700 -1.56714200 -1.57074700
2 4.25546500 -0.33518400 -0.00000200 0.00000000 0.00000000 -0.12484800
3 7.43125000 1.49647900 0.00000200 0.00000000 0.00000000 0.24545000
4 5.27847900 0.16554300 0.00000100 0.00000000 0.00000000 0.04851100
5 1.63761100 -7.87657700 1.21000700 1.97586600 1.15990900 -1.29878500
6 -6.21447800 -0.00001000 -0.00002700 -2.77803101 -0.65146190 1.69372798
7 11.94488900 0.00000000 0.00000000 -0.23063475 -0.34936132 1.59121653
8 10.62019000 0.00000000 0.00000000 1.23632199 -0.28770158 2.72788253
9 -4.75111000 -0.69449400 0.83057900 -0.07754700 -0.10769900 -0.03752200
10 -1.68807600 0.00004300 -0.00003100 0.00938000 -0.02289700 1.05047000
11 -1.33614300 0.00005300 -0.00001000 0.02638000 -0.00058900 0.57428600
12 -4.82049600 -0.50945900 -0.22476100 -0.57092300 -0.10555800 1.44992400
13 -1.82699200 -0.00007200 0.00000800 0.00656300 0.03990300 1.43686000
14 -1.43657300 0.00000800 0.00000400 -0.02777900 -0.07262600 0.27329100
15 -3.99235900 -0.89118600 -1.82791000 -0.63293500 0.34569000 1.73009700
16 -1.40592200 -0.00002700 0.00000000 -0.00296100 -0.02931600 0.97649500
17 -1.17535800 0.00012800 -0.00002100 0.01386900 0.06651400 0.10995400
18 -4.52675200 -0.69057500 -1.12074400 -0.60402400 0.11592100 1.64682700
19 -1.74403800 0.00003300 -0.00000400 -0.02372800 -0.01764400 1.34313800
20 -1.36877400 0.00002500 0.00000400 -0.23930400 0.01835900 -0.00351200
21 -1.87479800 -0.93512200 0.99917500 2.06727500 0.44154900 0.74971800
22 -1.52344900 0.00003400 0.00003100 0.07418300 0.23397300 0.56369800
23 -1.59927600 0.00000800 0.00001500 0.02972300 -0.03090300 0.78512800
24 5.58312600 0.11572300 0.29499800 1.94756400 -0.06728900 3.12123600
25 0.19684600 -0.00000100 0.00000400 2.79340697 -0.00036364 -3.14147950
26 -3.07337200 -18.55817800 0.14670500 1.97586200 1.15991000 1.84280300
27 6.21448500 0.00001000 0.00002000 -2.17883259 0.23228297 -1.64134033
28 11.94488500 -0.00003200 -0.00019900 -0.76095563 1.19389881 -0.67836497
29 10.62016900 -0.00000200 0.00000800 -2.01707319 -0.73502108 0.01977729
30 4.75116500 0.69437600 -0.83047400 0.05436000 -0.56975700 0.36612000
31 1.68806100 -0.00002400 0.00000200 -0.01309700 -0.02096100 1.99734200
32 1.33615100 -0.00005000 -0.00001000 0.03223000 -0.02151500 -0.61144300
33 4.82051700 0.50934200 0.22486600 -0.28415000 -0.52070100 0.87084800
34 1.82700300 0.00006200 0.00001000 0.02775100 0.02944300 2.02953400
35 1.43658100 -0.00000600 0.00001000 0.01503200 0.00167500 -0.83651700
36 3.99235500 0.89109000 1.82799500 -0.58287400 -0.10354100 1.34741900
37 1.40592200 0.00003100 -0.00000400 -0.02039300 -0.02129600 1.63879800
38 1.17536200 -0.00013200 0.00000400 -0.07487300 0.09798600 -0.69969900
39 4.52676200 0.69046800 1.12084200 -0.57965900 -0.30454000 1.33627400
40 1.74404100 -0.00002700 0.00000100 -0.02932600 -0.00357100 1.85952500
41 1.36876300 -0.00003100 -0.00002000 -0.12191500 0.10180800 -1.06387600
42 2.10919800 1.21153900 -0.81156700 1.55586900 0.56231100 0.17976400
43 1.61730500 -0.08409800 -0.17136400 -0.00389400 -0.07294600 0.12080700
44 1.59179100 -0.07171800 0.01248500 0.03799300 0.07429800 -0.27107500
45 5.51180800 -0.00000600 0.00000400 -0.15788100 0.00000000 0.00000000
46 0.19684600 0.00000600 0.00000000 -0.34822500 0.00001500 -0.00000200
47 0.00000000 1.00000000 0.00000000 0.00000000 0.00000000 -1.57079600
48 -3.61777500 2.37672400 -4.27288200 0.00000000 0.00000000 -3.14156200
49 -3.88469607 20.93921716 -0.77968826 0.38538917 0.09770842 -1.12693715
50 -2.73809200 -0.01506700 -1.41866600 0.00000000 0.00000000 0.00000000
51 0.08252900 0.01004300 1.10143700 0.00000000 0.00000000 0.00000000
52 2.93059500 0.00515100 -1.91167600 0.00000000 0.00000000 0.00000000
53 -2.05538000 -0.45364600 1.82713400 0.00000000 0.00000000 0.00000000
54 9.36482400 1.44277900 -3.99952300 0.07390500 1.14671000 1.69417200
55 -7.13254800 -2.15651700 -1.15508800 3.07613000 1.14376700 -2.35758400
56 -0.78580700 -0.81322800 -1.37688400 0.00000000 0.00000000 0.00000000
time 10
0 -0.00000100 8.45008800 -27.50902600 0.00000000 0.00000000 0.00003100
1 -0.00000200 0.00000000 0.00000000 1.57074700 -1.56714200 -1.57074700
2 4.25546500 -0.33518400 -0.00000200 0.00000000 0.00000000 -0.12484800
3 7.43125000 1.49647900 0.00000200 0.00000000 0.00000000 0.24545000
4 5.27847900 0.16554300 0.00000100 0.00000000 0.00000000 0.04851100
5 2.07883400 -7.17607600 0.52522300 1.97586600 1.15990900 -1.29878500
6 -6.21447800 -0.00001000 -0.00002700 -2.85859482 -0.63980893 1.72087111
7 11.94488900 0.00000000 0.00000000 -0.24504670 -0.34799768 1.63365848
8 10.62019000 0.00000000 0.00000000 1.18212036 -0.16244130 2.57623356
9 -4.75111000 -0.69449400 0.83057900 -0.07754700 -0.10769900 -0.03752200
10 -1.68807600 0.00004300 -0.00003100 0.00938000 -0.02289700 1.05047000
11 -1.33614300 0.00005300 -0.00001000 0.02638000 -0.00058900 0.57428600
12 -4.82049600 -0.50945900 -0.22476100 -0.57092300 -0.10555800 1.44992400
13 -1.82699200 -0.00007200 0.00000800 0.00656300 0.03990300 1.43686000
14 -1.43657300 0.00000800 0.00000400 -0.02777900 -0.07262600 0.27329100
15 -3.99235900 -0.89118600 -1.82791000 -0.63293500 0.34569000 1.73009700
16 -1.40592200 -0.00002700 0.00000000 -0.00296100 -0.02931600 0.97649500
17 -1.17535800 0.00012800 -0.00002100 0.01386900 0.06651400 0.10995400
18 -4.52675200 -0.69057500 -1.12074400 -0.60402400 0.11592100 1.64682700
19 -1.74403800 0.00003300 -0.00000400 -0.02372800 -0.01764400 1.34313800
20 -1.36877400 0.00002500 0.00000400 -0.23930400 0.01835900 -0.00351200
21 -1.87479800 -0.93512200 0.99917500 2.06727500 0.44154900 0.74971800
22 -1.52344900 0.00003400 0.00003100 0.07418300 0.23397300 0.56369800
23 -1.59927600 0.00000800 0.00001500 0.02972300 -0.03090300 0.78512800
24 5.58312600 0.11572300 0.29499800 1.94756400 -0.06728900 3.12123600
25 0.19684600 -0.00000100 0.00000400 2.79340697 -0.00036364 -3.14147950
26 -3.28858700 -18.74840500 -0.11850100 1.97586200 1.15991000 1.84280300
27 6.21448500 0.00001000 0.00002000 -2.15595363 0.20376825 -1.70312004
28 11.94488500 -0.00003200 -0.00019900 -0.69904194 1.16353065 -0.61144170
29 10.62016900 -0.00000200 0.00000800 -2.10969362 -0.71810888 0.15342058
30 4.75116500 0.69437600 -0.83047400 0.05436000 -0.56975700 0.36612000
31 1.68806100 -0.00002400 0.00000200 -0.01309700 -0.02096100 1.99734200
32 1.33615100 -0.00005000 -0.00001000 0.03223000 -0.02151500 -0.61144300
33 4.82051700 0.50934200 0.22486600 -0.28415000 -0.52070100 0.87084800
34 1.82700300 0.00006200 0.00001000 0.02775100 0.02944300 2.02953400
35 1.43658100 -0.00000600 0.00001000 0.01503200 0.00167500 -0.83651700
36 3.99235500 0.89109000 1.82799500 -0.58287400 -0.10354100 1.34741900
37 1.40592200 0.00003100 -0.00000400 -0.02039300 -0.02129600 1.63879800
38 1.17536200 -0.00013200 0.00000400 -0.07487300 0.09798600 -0.69969900
39 4.52676200 0.69046800 1.12084200 -0.57965900 -0.30454000 1.33627400
40 1.74404100 -0.00002700 0.00000100 -0.02932600 -0.00357100 1.85952500
41 1.36876300 -0.00003100 -0.00002000 -0.12191500 0.10180800 -1.06387600
42 2.10919800 1.21153900 -0.81156700 1.55586900 0.56231100 0.17976400
43 1.61730500 -0.08409800 -0.17136400 -0.00389400 -0.07294600 0.12080700
44 1.59179100 -0.07171800 0.01248500 0.03799300 0.07429800 -0.27107500
45 5.51180800 -0.00000600 0.00000400 -0.15788100 0.00000000 0.00000000
46 0.19684600 0.00000600 0.00000000 -0.34822500 0.00001500 -0.00000200
47 0.00000000 1.00000000 0.00000000 0.00000000 0.00000000 -1.57079600
48 -3.61777500 2.37672400 -4.27288200 0.00000000 0.00000000 -3.14156200
49 -3.81063544 20.76695516 -0.58665498 0.32263557 0.07563796 -1.26303022
50 -2.73809200 -0.01506700 -1.41866600 0.00000000 0.00000000 0.00000000
51 0.08252900 0.01004300 1.10143700 0.00000000 0.00000000 0.00000000
52 2.93059500 0.00515100 -1.91167600 0.00000000 0.00000000 0.00000000
53 -2.05538000 -0.45364600 1.82713400 0.00000000 0.00000000 0.00000000
54 9.36482400 1.44277900 -3.99952300 0.07390500 1.14671000 1.69417200
55 -7.13254800 -2.15651700 -1.15508800 3.07613000 1.14376700 -2.35758400
56 -0.78580700 -0.81322800 -1.37688400 0.00000000 0.00000000 0.00000000
time 11
0 -0.00000100 8.45008800 -27.50902600 0.00000000 0.00000000 0.00003100
1 -0.00000200 0.00000000 0.00000000 1.57074700 -1.56714200 -1.57074700
2 4.25546500 -0.33518400 -0.00000200 0.00000000 0.00000000 -0.12484800
3 7.43125000 1.49647900 0.00000200 0.00000000 0.00000000 0.24545000
4 5.27847900 0.16554300 0.00000100 0.00000000 0.00000000 0.04851100
5 2.24619300 -6.91036900 0.26547900 1.97586600 1.15990900 -1.29878500
6 -6.21447800 -0.00001000 -0.00002700 -2.89484176 -0.63857670 1.69732033
7 11.94488900 0.00000000 0.00000000 -0.26475324 -0.34573261 1.69127917
8 10.62019000 0.00000000 0.00000000 1.13228213 -0.05976283 2.39754917
9 -4.75111000 -0.69449400 0.83057900 -0.07754700 -0.10769900 -0.03752200
10 -1.68807600 0.00004300 -0.00003100 0.00938000 -0.02289700 1.05047000
11 -1.33614300 0.00005300 -0.00001000 0.02638000 -0.00058900 0.57428600
12 -4.82049600 -0.50945900 -0.22476100 -0.57092300 -0.10555800 1.44992400
13 -1.82699200 -0.00007200 0.00000800 0.00656300 0.03990300 1.43686000
14 -1.43657300 0.00000800 0.00000400 -0.02777900 -0.07262600 0.27329100
15 -3.99235900 -0.89118600 -1.82791000 -0.63293500 0.34569000 1.73009700
16 -1.40592200 -0.00002700 0.00000000 -0.00296100 -0.02931600 0.97649500
17 -1.17535800 0.00012800 -0.00002100 0.01386900 0.06651400 0.10995400
18 -4.52675200 -0.69057500 -1.12074400 -0.60402400 0.11592100 1.64682700
19 -1.74403800 0.00003300 -0.00000400 -0.02372800 -0.01764400 1.34313800
20 -1.36877400 0.00002500 0.00000400 -0.23930400 0.01835900 -0.00351200
21 -1.87479800 -0.93512200 0.99917500 2.06727500 0.44154900 0.74971800
22 -1.52344900 0.00003400 0.00003100 0.07418300 0.23397300 0.56369800
23 -1.59927600 0.00000800 0.00001500 0.02972300 -0.03090300 0.78512800
24 5.58312600 0.11572300 0.29499800 1.94756400 -0.06728900 3.12123600
25 0.19684600 -0.00000100 0.00000400 2.79340697 -0.00036364 -3.14147950
26 -3.49173000 -18.92796300 -0.36883400 1.97586200 1.15991000 1.84280300
27 6.21448500 0.00001000 0.00002000 -2.14367169 0.17482304 -1.75910980
28 11.94488500 -0.00003200 -0.00019900 -0.65765619 1.13872498 -0.56613938
29 10.62016900 -0.00000200 0.00000800 -2.17137488 -0.71128772 0.27889787
30 4.75116500 0.69437600 -0.83047400 0.05436000 -0.56975700 0.36612000
31 1.68806100 -0.00002400 0.00000200 -0.01309700 -0.02096100 1.99734200
32 1.33615100 -0.00005000 -0.00001000 0.03223000 -0.02151500 -0.61144300
33 4.82051700 0.50934200 0.22486600 -0.28415000 -0.52070100 0.87084800
34 1.82700300 0.00006200 0.00001000 0.02775100 0.02944300 2.02953400
35 1.43658100 -0.00000600 0.00001000 0.01503200 0.00167500 -0.83651700
36 3.99235500 0.89109000 1.82799500 -0.58287400 -0.10354100 1.34741900
37 1.40592200 0.00003100 -0.00000400 -0.02039300 -0.02129600 1.63879800
38 1.17536200 -0.00013200 0.00000400 -0.07487300 0.09798600 -0.69969900
39 4.52676200 0.69046800 1.12084200 -0.57965900 -0.30454000 1.33627400
40 1.74404100 -0.00002700 0.00000100 -0.02932600 -0.00357100 1.85952500
41 1.36876300 -0.00003100 -0.00002000 -0.12191500 0.10180800 -1.06387600
42 2.10919800 1.21153900 -0.81156700 1.55586900 0.56231100 0.17976400
43 1.61730500 -0.08409800 -0.17136400 -0.00389400 -0.07294600 0.12080700
44 1.59179100 -0.07171800 0.01248500 0.03799300 0.07429800 -0.27107500
45 5.51180800 -0.00000600 0.00000400 -0.15788100 0.00000000 0.00000000
46 0.19684600 0.00000600 0.00000000 -0.34822500 0.00001500 -0.00000200
47 0.00000000 1.00000000 0.00000000 0.00000000 0.00000000 -1.57079600
48 -3.61777500 2.37672400 -4.27288200 0.00000000 0.00000000 -3.14156200
49 -3.75719585 20.61120516 -0.31214705 0.24972023 0.05284980 -1.37439376
50 -2.73809200 -0.01506700 -1.41866600 0.00000000 0.00000000 0.00000000
51 0.08252900 0.01004300 1.10143700 0.00000000 0.00000000 0.00000000
52 2.93059500 0.00515100 -1.91167600 0.00000000 0.00000000 0.00000000
53 -2.05538000 -0.45364600 1.82713400 0.00000000 0.00000000 0.00000000
54 9.36482400 1.44277900 -3.99952300 0.07390500 1.14671000 1.69417200
55 -7.13254800 -2.15651700 -1.15508800 3.07613000 1.14376700 -2.35758400
56 -0.78580700 -0.81322800 -1.37688400 0.00000000 0.00000000 0.00000000
time 12
0 -0.00000100 8.45008800 -27.50902600 0.00000000 0.00000000 0.00003100
1 -0.00000200 0.00000000 0.00000000 1.57074700 -1.56714200 -1.57074700
2 4.25546500 -0.33518400 -0.00000200 0.00000000 0.00000000 -0.12484800
3 7.43125000 1.49647900 0.00000200 0.00000000 0.00000000 0.24545000
4 5.27847900 0.16554300 0.00000100 0.00000000 0.00000000 0.04851100
5 2.24619300 -6.91036900 0.26547900 1.97586600 1.15990900 -1.29878500
6 -6.21447800 -0.00001000 -0.00002700 -2.89950559 -0.63776156 1.64141532
7 11.94488900 0.00000000 0.00000000 -0.28208566 -0.34290726 1.74243437
8 10.62019000 0.00000000 0.00000000 1.08421186 0.02329471 2.22425336
9 -4.75111000 -0.69449400 0.83057900 -0.07754700 -0.10769900 -0.03752200
10 -1.68807600 0.00004300 -0.00003100 0.00938000 -0.02289700 1.05047000
11 -1.33614300 0.00005300 -0.00001000 0.02638000 -0.00058900 0.57428600
12 -4.82049600 -0.50945900 -0.22476100 -0.57092300 -0.10555800 1.44992400
13 -1.82699200 -0.00007200 0.00000800 0.00656300 0.03990300 1.43686000
14 -1.43657300 0.00000800 0.00000400 -0.02777900 -0.07262600 0.27329100
15 -3.99235900 -0.89118600 -1.82791000 -0.63293500 0.34569000 1.73009700
16 -1.40592200 -0.00002700 0.00000000 -0.00296100 -0.02931600 0.97649500
17 -1.17535800 0.00012800 -0.00002100 0.01386900 0.06651400 0.10995400
18 -4.52675200 -0.69057500 -1.12074400 -0.60402400 0.11592100 1.64682700
19 -1.74403800 0.00003300 -0.00000400 -0.02372800 -0.01764400 1.34313800
20 -1.36877400 0.00002500 0.00000400 -0.23930400 0.01835900 -0.00351200
21 -1.87479800 -0.93512200 0.99917500 2.06727500 0.44154900 0.74971800
22 -1.52344900 0.00003400 0.00003100 0.07418300 0.23397300 0.56369800
23 -1.59927600 0.00000800 0.00001500 0.02972300 -0.03090300 0.78512800
24 5.58312600 0.11572300 0.29499800 1.94756400 -0.06728900 3.12123600
25 0.19684600 -0.00000100 0.00000400 2.79340697 -0.00036364 -3.14147950
26 -3.67073700 -19.08618500 -0.58942600 1.97586200 1.15991000 1.84280300
27 6.21448500 0.00001000 0.00002000 -2.13808244 0.14639122 -1.80765367
28 11.94488500 -0.00003200 -0.00019900 -0.62727087 1.11707170 -0.53254001
29 10.62016900 -0.00000200 0.00000800 -2.21288107 -0.71119214 0.39142140
30 4.75116500 0.69437600 -0.83047400 0.05436000 -0.56975700 0.36612000
31 1.68806100 -0.00002400 0.00000200 -0.01309700 -0.02096100 1.99734200
32 1.33615100 -0.00005000 -0.00001000 0.03223000 -0.02151500 -0.61144300
33 4.82051700 0.50934200 0.22486600 -0.28415000 -0.52070100 0.87084800
34 1.82700300 0.00006200 0.00001000 0.02775100 0.02944300 2.02953400
35 1.43658100 -0.00000600 0.00001000 0.01503200 0.00167500 -0.83651700
36 3.99235500 0.89109000 1.82799500 -0.58287400 -0.10354100 1.34741900
37 1.40592200 0.00003100 -0.00000400 -0.02039300 -0.02129600 1.63879800
38 1.17536200 -0.00013200 0.00000400 -0.07487300 0.09798600 -0.69969900
39 4.52676200 0.69046800 1.12084200 -0.57965900 -0.30454000 1.33627400
40 1.74404100 -0.00002700 0.00000100 -0.02932600 -0.00357100 1.85952500
41 1.36876300 -0.00003100 -0.00002000 -0.12191500 0.10180800 -1.06387600
42 2.10919800 1.21153900 -0.81156700 1.55586900 0.56231100 0.17976400
43 1.61730500 -0.08409800 -0.17136400 -0.00389400 -0.07294600 0.12080700
44 1.59179100 -0.07171800 0.01248500 0.03799300 0.07429800 -0.27107500
45 5.51180800 -0.00000600 0.00000400 -0.15788100 0.00000000 0.00000000
46 0.19684600 0.00000600 0.00000000 -0.34822500 0.00001500 -0.00000200
47 0.00000000 1.00000000 0.00000000 0.00000000 0.00000000 -1.57079600
48 -3.61777500 2.37672400 -4.27288200 0.00000000 0.00000000 -3.14156200
49 -3.70918340 20.47856916 0.00931399 0.17693078 0.03025757 -1.46039889
50 -2.73809200 -0.01506700 -1.41866600 0.00000000 0.00000000 0.00000000
51 0.08252900 0.01004300 1.10143700 0.00000000 0.00000000 0.00000000
52 2.93059500 0.00515100 -1.91167600 0.00000000 0.00000000 0.00000000
53 -2.05538000 -0.45364600 1.82713400 0.00000000 0.00000000 0.00000000
54 9.36482400 1.44277900 -3.99952300 0.07390500 1.14671000 1.69417200
55 -7.13254800 -2.15651700 -1.15508800 3.07613000 1.14376700 -2.35758400
56 -0.78580700 -0.81322800 -1.37688400 0.00000000 0.00000000 0.00000000
time 13
0 -0.00000100 8.45008800 -27.50902600 0.00000000 0.00000000 0.00003100
1 -0.00000200 0.00000000 0.00000000 1.57074700 -1.56714200 -1.57074700
2 4.25546500 -0.33518400 -0.00000200 0.00000000 0.00000000 -0.12484800
3 7.43125000 1.49647900 0.00000200 0.00000000 0.00000000 0.24545000
4 5.27847900 0.16554300 0.00000100 0.00000000 0.00000000 0.04851100
5 2.24619300 -6.91036900 0.26547900 1.97586600 1.15990900 -1.29878500
6 -6.21447800 -0.00001000 -0.00002700 -2.89113111 -0.62947536 1.58379259
7 11.94488900 0.00000000 0.00000000 -0.28963528 -0.34105683 1.76487052
8 10.62019000 0.00000000 0.00000000 1.02953611 0.08242681 2.09475784
9 -4.75111000 -0.69449400 0.83057900 -0.07754700 -0.10769900 -0.03752200
10 -1.68807600 0.00004300 -0.00003100 0.00938000 -0.02289700 1.05047000
11 -1.33614300 0.00005300 -0.00001000 0.02638000 -0.00058900 0.57428600
12 -4.82049600 -0.50945900 -0.22476100 -0.57092300 -0.10555800 1.44992400
13 -1.82699200 -0.00007200 0.00000800 0.00656300 0.03990300 1.43686000
14 -1.43657300 0.00000800 0.00000400 -0.02777900 -0.07262600 0.27329100
15 -3.99235900 -0.89118600 -1.82791000 -0.63293500 0.34569000 1.73009700
16 -1.40592200 -0.00002700 0.00000000 -0.00296100 -0.02931600 0.97649500
17 -1.17535800 0.00012800 -0.00002100 0.01386900 0.06651400 0.10995400
18 -4.52675200 -0.69057500 -1.12074400 -0.60402400 0.11592100 1.64682700
19 -1.74403800 0.00003300 -0.00000400 -0.02372800 -0.01764400 1.34313800
20 -1.36877400 0.00002500 0.00000400 -0.23930400 0.01835900 -0.00351200
21 -1.87479800 -0.93512200 0.99917500 2.06727500 0.44154900 0.74971800
22 -1.52344900 0.00003400 0.00003100 0.07418300 0.23397300 0.56369800
23 -1.59927600 0.00000800 0.00001500 0.02972300 -0.03090300 0.78512800
24 5.58312600 0.11572300 0.29499800 1.94756400 -0.06728900 3.12123600
25 0.19684600 -0.00000100 0.00000400 2.79340697 -0.00036364 -3.14147950
26 -3.81354300 -19.21241000 -0.76540300 1.97586200 1.15991000 1.84280300
27 6.21448500 0.00001000 0.00002000 -2.13666737 0.12007175 -1.84670273
28 11.94488500 -0.00003200 -0.00019900 -0.60352532 1.09757439 -0.50598876
29 10.62016900 -0.00000200 0.00000800 -2.23828035 -0.71512764 0.48606133
30 4.75116500 0.69437600 -0.83047400 0.05436000 -0.56975700 0.36612000
31 1.68806100 -0.00002400 0.00000200 -0.01309700 -0.02096100 1.99734200
32 1.33615100 -0.00005000 -0.00001000 0.03223000 -0.02151500 -0.61144300
33 4.82051700 0.50934200 0.22486600 -0.28415000 -0.52070100 0.87084800
34 1.82700300 0.00006200 0.00001000 0.02775100 0.02944300 2.02953400
35 1.43658100 -0.00000600 0.00001000 0.01503200 0.00167500 -0.83651700
36 3.99235500 0.89109000 1.82799500 -0.58287400 -0.10354100 1.34741900
37 1.40592200 0.00003100 -0.00000400 -0.02039300 -0.02129600 1.63879800
38 1.17536200 -0.00013200 0.00000400 -0.07487300 0.09798600 -0.69969900
39 4.52676200 0.69046800 1.12084200 -0.57965900 -0.30454000 1.33627400
40 1.74404100 -0.00002700 0.00000100 -0.02932600 -0.00357100 1.85952500
41 1.36876300 -0.00003100 -0.00002000 -0.12191500 0.10180800 -1.06387600
42 2.10919800 1.21153900 -0.81156700 1.55586900 0.56231100 0.17976400
43 1.61730500 -0.08409800 -0.17136400 -0.00389400 -0.07294600 0.12080700
44 1.59179100 -0.07171800 0.01248500 0.03799300 0.07429800 -0.27107500
45 5.51180800 -0.00000600 0.00000400 -0.15788100 0.00000000 0.00000000
46 0.19684600 0.00000600 0.00000000 -0.34822500 0.00001500 -0.00000200
47 0.00000000 1.00000000 0.00000000 0.00000000 0.00000000 -1.57079600
48 -3.61777500 2.37672400 -4.27288200 0.00000000 0.00000000 -3.14156200
49 -3.65928300 20.37565316 0.32496749 0.10987851 0.01040027 -1.52150785
50 -2.73809200 -0.01506700 -1.41866600 0.00000000 0.00000000 0.00000000
51 0.08252900 0.01004300 1.10143700 0.00000000 0.00000000 0.00000000
52 2.93059500 0.00515100 -1.91167600 0.00000000 0.00000000 0.00000000
53 -2.05538000 -0.45364600 1.82713400 0.00000000 0.00000000 0.00000000
54 9.36482400 1.44277900 -3.99952300 0.07390500 1.14671000 1.69417200
55 -7.13254800 -2.15651700 -1.15508800 3.07613000 1.14376700 -2.35758400
56 -0.78580700 -0.81322800 -1.37688400 0.00000000 0.00000000 0.00000000
time 14
0 -0.00000100 8.45008800 -27.50902600 0.00000000 0.00000000 0.00003100
1 -0.00000200 0.00000000 0.00000000 1.57074700 -1.56714200 -1.57074700
2 4.25546500 -0.33518400 -0.00000200 0.00000000 0.00000000 -0.12484800
3 7.43125000 1.49647900 0.00000200 0.00000000 0.00000000 0.24545000
4 5.27847900 0.16554300 0.00000100 0.00000000 0.00000000 0.04851100
5 2.24619300 -6.91036900 0.26547900 1.97586600 1.15990900 -1.29878500
6 -6.21447800 -0.00001000 -0.00002700 -2.88180551 -0.62075038 1.54074730
7 11.94488900 0.00000000 0.00000000 -0.29157771 -0.34048820 1.77063569
8 10.62019000 0.00000000 0.00000000 0.98041553 0.11887050 2.01421839
9 -4.75111000 -0.69449400 0.83057900 -0.07754700 -0.10769900 -0.03752200
10 -1.68807600 0.00004300 -0.00003100 0.00938000 -0.02289700 1.05047000
11 -1.33614300 0.00005300 -0.00001000 0.02638000 -0.00058900 0.57428600
12 -4.82049600 -0.50945900 -0.22476100 -0.57092300 -0.10555800 1.44992400
13 -1.82699200 -0.00007200 0.00000800 0.00656300 0.03990300 1.43686000
14 -1.43657300 0.00000800 0.00000400 -0.02777900 -0.07262600 0.27329100
15 -3.99235900 -0.89118600 -1.82791000 -0.63293500 0.34569000 1.73009700
16 -1.40592200 -0.00002700 0.00000000 -0.00296100 -0.02931600 0.97649500
17 -1.17535800 0.00012800 -0.00002100 0.01386900 0.06651400 0.10995400
18 -4.52675200 -0.69057500 -1.12074400 -0.60402400 0.11592100 1.64682700
19 -1.74403800 0.00003300 -0.00000400 -0.02372800 -0.01764400 1.34313800
20 -1.36877400 0.00002500 0.00000400 -0.23930400 0.01835900 -0.00351200
21 -1.87479800 -0.93512200 0.99917500 2.06727500 0.44154900 0.74971800
22 -1.52344900 0.00003400 0.00003100 0.07418300 0.23397300 0.56369800
23 -1.59927600 0.00000800 0.00001500 0.02972300 -0.03090300 0.78512800
24 5.58312600 0.11572300 0.29499800 1.94756400 -0.06728900 3.12123600
25 0.19684600 -0.00000100 0.00000400 2.79340697 -0.00036364 -3.14147950
26 -3.90807400 -19.29596900 -0.88189600 1.97586200 1.15991000 1.84280300
27 6.21448500 0.00001000 0.00002000 -2.13745806 0.09965781 -1.87314867
28 11.94488500 -0.00003200 -0.00019900 -0.58615637 1.08222225 -0.48640451
29 10.62016900 -0.00000200 0.00000800 -2.24833475 -0.72022666 0.55324861
30 4.75116500 0.69437600 -0.83047400 0.05436000 -0.56975700 0.36612000
31 1.68806100 -0.00002400 0.00000200 -0.01309700 -0.02096100 1.99734200
32 1.33615100 -0.00005000 -0.00001000 0.03223000 -0.02151500 -0.61144300
33 4.82051700 0.50934200 0.22486600 -0.28415000 -0.52070100 0.87084800
34 1.82700300 0.00006200 0.00001000 0.02775100 0.02944300 2.02953400
35 1.43658100 -0.00000600 0.00001000 0.01503200 0.00167500 -0.83651700
36 3.99235500 0.89109000 1.82799500 -0.58287400 -0.10354100 1.34741900
37 1.40592200 0.00003100 -0.00000400 -0.02039300 -0.02129600 1.63879800
38 1.17536200 -0.00013200 0.00000400 -0.07487300 0.09798600 -0.69969900
39 4.52676200 0.69046800 1.12084200 -0.57965900 -0.30454000 1.33627400
40 1.74404100 -0.00002700 0.00000100 -0.02932600 -0.00357100 1.85952500
41 1.36876300 -0.00003100 -0.00002000 -0.12191500 0.10180800 -1.06387600
42 2.10919800 1.21153900 -0.81156700 1.55586900 0.56231100 0.17976400
43 1.61730500 -0.08409800 -0.17136400 -0.00389400 -0.07294600 0.12080700
44 1.59179100 -0.07171800 0.01248500 0.03799300 0.07429800 -0.27107500
45 5.51180800 -0.00000600 0.00000400 -0.15788100 0.00000000 0.00000000
46 0.19684600 0.00000600 0.00000000 -0.34822500 0.00001500 -0.00000200
47 0.00000000 1.00000000 0.00000000 0.00000000 0.00000000 -1.57079600
48 -3.61777500 2.37672400 -4.27288200 0.00000000 0.00000000 -3.14156200
49 -3.61698298 20.30905916 0.56054381 0.05657348 -0.00255457 -1.55800726
50 -2.73809200 -0.01506700 -1.41866600 0.00000000 0.00000000 0.00000000
51 0.08252900 0.01004300 1.10143700 0.00000000 0.00000000 0.00000000
52 2.93059500 0.00515100 -1.91167600 0.00000000 0.00000000 0.00000000
53 -2.05538000 -0.45364600 1.82713400 0.00000000 0.00000000 0.00000000
54 9.36482400 1.44277900 -3.99952300 0.07390500 1.14671000 1.69417200
55 -7.13254800 -2.15651700 -1.15508800 3.07613000 1.14376700 -2.35758400
56 -0.78580700 -0.81322800 -1.37688400 0.00000000 0.00000000 0.00000000
time 15
0 -0.00000100 8.45008800 -27.50902600 0.00000000 0.00000000 0.00003100
1 -0.00000200 0.00000000 0.00000000 1.57074700 -1.56714200 -1.57074700
2 4.25546500 -0.33518400 -0.00000200 0.00000000 0.00000000 -0.12484800
3 7.43125000 1.49647900 0.00000200 0.00000000 0.00000000 0.24545000
4 5.27847900 0.16554300 0.00000100 0.00000000 0.00000000 0.04851100
5 2.24619300 -6.91036900 0.26547900 1.97586600 1.15990900 -1.29878500
6 -6.21447800 -0.00001000 -0.00002700 -2.87871270 -0.61751164 1.52484808
7 11.94488900 0.00000000 0.00000000 -0.29139437 -0.34052451 1.77009083
8 10.62019000 0.00000000 0.00000000 0.95521662 0.13372136 1.98829655
9 -4.75111000 -0.69449400 0.83057900 -0.07754700 -0.10769900 -0.03752200
10 -1.68807600 0.00004300 -0.00003100 0.00938000 -0.02289700 1.05047000
11 -1.33614300 0.00005300 -0.00001000 0.02638000 -0.00058900 0.57428600
12 -4.82049600 -0.50945900 -0.22476100 -0.57092300 -0.10555800 1.44992400
13 -1.82699200 -0.00007200 0.00000800 0.00656300 0.03990300 1.43686000
14 -1.43657300 0.00000800 0.00000400 -0.02777900 -0.07262600 0.27329100
15 -3.99235900 -0.89118600 -1.82791000 -0.63293500 0.34569000 1.73009700
16 -1.40592200 -0.00002700 0.00000000 -0.00296100 -0.02931600 0.97649500
17 -1.17535800 0.00012800 -0.00002100 0.01386900 0.06651400 0.10995400
18 -4.52675200 -0.69057500 -1.12074400 -0.60402400 0.11592100 1.64682700
19 -1.74403800 0.00003300 -0.00000400 -0.02372800 -0.01764400 1.34313800
20 -1.36877400 0.00002500 0.00000400 -0.23930400 0.01835900 -0.00351200
21 -1.87479800 -0.93512200 0.99917500 2.06727500 0.44154900 0.74971800
22 -1.52344900 0.00003400 0.00003100 0.07418300 0.23397300 0.56369800
23 -1.59927600 0.00000800 0.00001500 0.02972300 -0.03090300 0.78512800
24 5.58312600 0.11572300 0.29499800 1.94756400 -0.06728900 3.12123600
25 0.19684600 -0.00000100 0.00000400 2.79340697 -0.00036364 -3.14147950
26 -3.94226700 -19.32619300 -0.92403100 1.97586200 1.15991000 1.84280300
27 6.21448500 0.00001000 0.00002000 -2.13864057 0.08929620 -1.88478173
28 11.94488500 -0.00003200 -0.00019900 -0.57597697 1.07328869 -0.47495287
29 10.62016900 -0.00000200 0.00000800 -2.24617517 -0.72233934 0.57919912
30 4.75116500 0.69437600 -0.83047400 0.05436000 -0.56975700 0.36612000
31 1.68806100 -0.00002400 0.00000200 -0.01309700 -0.02096100 1.99734200
32 1.33615100 -0.00005000 -0.00001000 0.03223000 -0.02151500 -0.61144300
33 4.82051700 0.50934200 0.22486600 -0.28415000 -0.52070100 0.87084800
34 1.82700300 0.00006200 0.00001000 0.02775100 0.02944300 2.02953400
35 1.43658100 -0.00000600 0.00001000 0.01503200 0.00167500 -0.83651700
36 3.99235500 0.89109000 1.82799500 -0.58287400 -0.10354100 1.34741900
37 1.40592200 0.00003100 -0.00000400 -0.02039300 -0.02129600 1.63879800
38 1.17536200 -0.00013200 0.00000400 -0.07487300 0.09798600 -0.69969900
39 4.52676200 0.69046800 1.12084200 -0.57965900 -0.30454000 1.33627400
40 1.74404100 -0.00002700 0.00000100 -0.02932600 -0.00357100 1.85952500
41 1.36876300 -0.00003100 -0.00002000 -0.12191500 0.10180800 -1.06387600
42 2.10919800 1.21153900 -0.81156700 1.55586900 0.56231100 0.17976400
43 1.61730500 -0.08409800 -0.17136400 -0.00389400 -0.07294600 0.12080700
44 1.59179100 -0.07171800 0.01248500 0.03799300 0.07429800 -0.27107500
45 5.51180800 -0.00000600 0.00000400 -0.15788100 0.00000000 0.00000000
46 0.19684600 0.00000600 0.00000000 -0.34822500 0.00001500 -0.00000200
47 0.00000000 1.00000000 0.00000000 0.00000000 0.00000000 -1.57079600
48 -3.61777500 2.37672400 -4.27288200 0.00000000 0.00000000 -3.14156200
49 -3.58147566 20.28539516 0.66008378 0.03127683 -0.00517309 -1.57089323
50 -2.73809200 -0.01506700 -1.41866600 0.00000000 0.00000000 0.00000000
51 0.08252900 0.01004300 1.10143700 0.00000000 0.00000000 0.00000000
52 2.93059500 0.00515100 -1.91167600 0.00000000 0.00000000 0.00000000
53 -2.05538000 -0.45364600 1.82713400 0.00000000 0.00000000 0.00000000
54 9.36482400 1.44277900 -3.99952300 0.07390500 1.14671000 1.69417200
55 -7.13254800 -2.15651700 -1.15508800 3.07613000 1.14376700 -2.35758400
56 -0.78580700 -0.81322800 -1.37688400 0.00000000 0.00000000 0.00000000
end
