version 1
nodes
0 "root" -1
1 "pelvis" 0
2 "spine_01" 1
3 "spine_02" 2
4 "spine_03" 3
5 "clavicle_r" 4
6 "upperarm_r" 5
7 "lowerarm_r" 6
8 "hand_r" 7
9 "index_01_r" 8
10 "index_02_r" 9
11 "index_03_r" 10
12 "middle_01_r" 8
13 "middle_02_r" 12
14 "middle_03_r" 13
15 "pinky_01_r" 8
16 "pinky_02_r" 15
17 "pinky_03_r" 16
18 "ring_01_r" 8
19 "ring_02_r" 18
20 "ring_03_r" 19
21 "thumb_01_r" 8
22 "thumb_02_r" 21
23 "thumb_03_r" 22
24 "lowerarm_twist_01_r" 7
25 "upperarm_twist_01_r" 6
26 "clavicle_l" 4
27 "upperarm_l" 26
28 "lowerarm_l" 27
29 "hand_l" 28
30 "index_01_l" 29
31 "index_02_l" 30
32 "index_03_l" 31
33 "middle_01_l" 29
34 "middle_02_l" 33
35 "middle_03_l" 34
36 "pinky_01_l" 29
37 "pinky_02_l" 36
38 "pinky_03_l" 37
39 "ring_01_l" 29
40 "ring_02_l" 39
41 "ring_03_l" 40
42 "thumb_01_l" 29
43 "thumb_02_l" 42
44 "thumb_03_l" 43
45 "lowerarm_twist_01_l" 28
46 "upperarm_twist_01_l" 27
47 "cam_driver" -1
48 "BaseRoot" -1
49 "Base" 48
50 "rhand_ikTarget" 49
51 "lhand_ikTarget" 49
end
skeleton
time 0
0 -0.00000100 7.45008900 -27.50902600 0.00000000 0.00000000 0.00003100
1 -0.00000200 0.00000000 0.00000000 1.57074300 -1.56713700 -1.57074300
2 4.25546800 -0.33518300 -0.00000200 0.00000000 0.00000000 -0.12484800
3 7.43124800 1.49647700 0.00000200 0.00000000 0.00000000 0.24545000
4 5.27847900 0.16554100 0.00000100 0.00000000 0.00000000 0.04851100
5 2.57162200 -13.89860700 1.51929800 1.97586400 1.15990900 -1.29878600
6 -6.21448200 -0.00000700 -0.00002700 -3.08828481 -1.06966853 2.04159712
7 11.94488200 0.00000000 0.00000100 -1.72747130 -0.35211549 1.61897136
8 10.62018100 0.00000200 0.00000000 -0.73063762 -0.16207929 2.84315459
9 -4.75110600 -0.69449400 0.83057700 0.22568400 -0.33047300 0.17652300
10 -1.68806800 0.00004600 -0.00003200 0.02340800 -0.00797900 0.19923300
11 -1.33614000 0.00005700 -0.00001200 0.01900200 0.01823200 -0.20965600
12 -4.82049400 -0.50946000 -0.22475900 0.15830900 -0.24430600 0.16574500
13 -1.82699200 -0.00006400 0.00000600 -0.03675300 0.01694200 0.13526600
14 -1.43657300 0.00000600 0.00000200 -0.07209300 -0.02918200 1.09493100
15 -3.99235500 -0.89118800 -1.82790900 -0.14912700 -0.09109400 -0.06426300
16 -1.40591800 -0.00002500 -0.00000300 0.01713000 -0.02394900 0.25439400
17 -1.17535800 0.00012800 -0.00002000 0.00109800 0.06796300 -0.07953600
18 -4.52675100 -0.69057500 -1.12074400 -0.04485800 -0.15560900 0.07297300
19 -1.74403800 0.00003300 -0.00000800 0.00771800 -0.02851600 0.14445500
20 -1.36877100 0.00002500 0.00000200 -0.17476200 -0.10676900 0.91238500
21 -1.87480000 -0.93512500 0.99917400 2.59450300 0.73691000 1.07456600
22 -1.52345300 0.00003200 0.00003100 -0.01433300 0.00894200 0.01892900
23 -1.59928500 0.00000400 0.00001600 0.03988100 0.01579900 -0.39821300
24 5.51181500 0.00000800 -0.00000100 0.80759366 -0.00041115 -3.14068937
25 0.19684700 -0.00000100 0.00000300 2.79340683 -0.00097859 -3.14131728
26 2.82419600 -15.55495700 -1.64370500 1.97586200 1.15990900 1.84280300
27 6.21448500 0.00000600 0.00002000 0.02308804 0.73626150 -1.24080949
28 11.94488500 -0.00002900 -0.00019400 0.28782654 -0.32739595 -1.75981062
29 10.62016600 0.00000200 0.00001000 -2.42962938 -0.42783401 0.44816535
30 4.75115600 0.69437600 -0.83047300 0.03879200 -0.19804500 0.65401300
31 1.68806500 -0.00002600 0.00000200 0.00892000 -0.02304800 1.06998800
32 1.33615100 -0.00005100 -0.00000900 0.03375600 -0.01901100 -0.68693900
33 4.82051300 0.50934000 0.22486500 -0.12275600 -0.09826900 0.99657500
34 1.82699600 0.00006600 0.00000800 -0.01519300 0.03755700 0.88944700
35 1.43657700 -0.00001000 0.00000700 0.01505700 0.00194300 -0.85696800
36 3.99235300 0.89108700 1.82799400 -0.27752100 0.07965200 1.30807300
37 1.40591800 0.00002100 -0.00000700 0.02259200 -0.01894000 0.00289400
38 1.17536900 -0.00013100 0.00000200 -0.01238200 0.12260400 -0.14636500
39 4.52675600 0.69046000 1.12084200 -0.17456500 0.02416900 1.23073800
40 1.74404100 -0.00003100 -0.00000200 -0.00084600 -0.02953200 0.43944700
41 1.36876300 -0.00003100 -0.00001700 -0.28730500 -0.09722100 -0.74619600
42 1.87485500 0.93508100 -0.99913000 2.02277800 0.69056000 0.67886000
43 1.45054417 -0.06018300 0.09121700 -0.30488300 -0.32213100 1.02281700
44 1.59928100 -0.00000200 0.00000900 0.05030500 0.06659900 -0.09686100
45 5.51180600 -0.00000200 0.00000600 -0.83754300 0.00000000 0.00000000
46 0.19685000 0.00000300 -0.00000200 -0.34822500 0.00001500 -0.00000200
47 0.00000000 0.00000000 0.00000000 0.00000000 0.00000000 -1.57079600
48 -3.30740400 24.45101500 -2.33000000 -0.00438200 0.00562600 -3.13695300
49 -2.01703943 44.73591896 -6.90193175 -0.22238744 0.12977025 -1.43727867
50 4.99273066 5.61610783 -2.65927000 0.64618244 1.26325245 2.23420391
51 1.12932600 -6.48943500 -1.39556600 2.79764987 0.25790420 -1.95141483
time 1
0 -0.00000100 7.45008900 -27.50902600 0.00000000 0.00000000 0.00003100
1 -0.00000200 0.00000000 0.00000000 1.57074300 -1.56713700 -1.57074300
2 4.25546800 -0.33518300 -0.00000200 0.00000000 0.00000000 -0.12484800
3 7.43124800 1.49647700 0.00000200 0.00000000 0.00000000 0.24545000
4 5.27847900 0.16554100 0.00000100 0.00000000 0.00000000 0.04851100
5 2.57162200 -13.89860700 1.51929800 1.97586400 1.15990900 -1.29878600
6 -6.21448200 -0.00000700 -0.00002700 -3.08730858 -1.07183145 2.03631113
7 11.94488200 0.00000000 0.00000100 -1.72539966 -0.35305581 1.61437061
8 10.62018100 0.00000200 0.00000000 -0.73606221 -0.15689245 2.83691022
9 -4.75110600 -0.69449400 0.83057700 0.22568400 -0.33047300 0.17652300
10 -1.68806800 0.00004600 -0.00003200 0.02340800 -0.00797900 0.19923300
11 -1.33614000 0.00005700 -0.00001200 0.01900200 0.01823200 -0.20965600
12 -4.82049400 -0.50946000 -0.22475900 0.15830900 -0.24430600 0.16574500
13 -1.82699200 -0.00006400 0.00000600 -0.03675300 0.01694200 0.13526600
14 -1.43657300 0.00000600 0.00000200 -0.07209300 -0.02918200 1.09493100
15 -3.99235500 -0.89118800 -1.82790900 -0.14912700 -0.09109400 -0.06426300
16 -1.40591800 -0.00002500 -0.00000300 0.01713000 -0.02394900 0.25439400
17 -1.17535800 0.00012800 -0.00002000 0.00109800 0.06796300 -0.07953600
18 -4.52675100 -0.69057500 -1.12074400 -0.04485800 -0.15560900 0.07297300
19 -1.74403800 0.00003300 -0.00000800 0.00771800 -0.02851600 0.14445500
20 -1.36877100 0.00002500 0.00000200 -0.17476200 -0.10676900 0.91238500
21 -1.87480000 -0.93512500 0.99917400 2.59450300 0.73691000 1.07456600
22 -1.52345300 0.00003200 0.00003100 -0.01433300 0.00894200 0.01892900
23 -1.59928500 0.00000400 0.00001600 0.03988100 0.01579900 -0.39821300
24 5.51181500 0.00000800 -0.00000100 0.80790461 -0.00041143 -3.14068950
25 0.19684700 -0.00000100 0.00000300 2.79340683 -0.00097859 -3.14131728
26 2.82419600 -15.55495700 -1.64370500 1.97586200 1.15990900 1.84280300
27 6.21448500 0.00000600 0.00002000 0.01268912 0.74112295 -1.24481200
28 11.94488500 -0.00002900 -0.00019400 0.28889344 -0.32992889 -1.76304913
29 10.62016600 0.00000200 0.00001000 -2.40989608 -0.41742271 0.44104599
30 4.75115600 0.69437600 -0.83047300 0.03879200 -0.19804500 0.65401300
31 1.68806500 -0.00002600 0.00000200 0.00892000 -0.02304800 1.06998800
32 1.33615100 -0.00005100 -0.00000900 0.03375600 -0.01901100 -0.68693900
33 4.82051300 0.50934000 0.22486500 -0.12275600 -0.09826900 0.99657500
34 1.82699600 0.00006600 0.00000800 -0.01519300 0.03755700 0.88944700
35 1.43657700 -0.00001000 0.00000700 0.01505700 0.00194300 -0.85696800
36 3.99235300 0.89108700 1.82799400 -0.27752100 0.07965200 1.30807300
37 1.40591800 0.00002100 -0.00000700 0.02259200 -0.01894000 0.00289400
38 1.17536900 -0.00013100 0.00000200 -0.01238200 0.12260400 -0.14636500
39 4.52675600 0.69046000 1.12084200 -0.17456500 0.02416900 1.23073800
40 1.74404100 -0.00003100 -0.00000200 -0.00084600 -0.02953200 0.43944700
41 1.36876300 -0.00003100 -0.00001700 -0.28730500 -0.09722100 -0.74619600
42 1.87485500 0.93508100 -0.99913000 2.02277800 0.69056000 0.67886000
43 1.45054417 -0.06018300 0.09121700 -0.30488300 -0.32213100 1.02281700
44 1.59928100 -0.00000200 0.00000900 0.05030500 0.06659900 -0.09686100
45 5.51180600 -0.00000200 0.00000600 -0.83754300 0.00000000 0.00000000
46 0.19685000 0.00000300 -0.00000200 -0.34822500 0.00001500 -0.00000200
47 0.00000000 0.00000000 0.00000000 0.00000000 0.00000000 -1.57079600
48 -3.30740400 24.45101500 -2.33000000 -0.00438200 0.00562600 -3.13695300
49 -2.03865585 44.73327303 -6.88493879 -0.23071889 0.13374716 -1.43743699
50 4.99273066 5.61610783 -2.65927000 0.64590117 1.26330629 2.23427637
51 1.12932600 -6.48943500 -1.39556600 2.79768879 0.25796829 -1.95132042
time 2
0 -0.00000100 7.45008900 -27.50902600 0.00000000 0.00000000 0.00003100
1 -0.00000200 0.00000000 0.00000000 1.57074300 -1.56713700 -1.57074300
2 4.25546800 -0.33518300 -0.00000200 0.00000000 0.00000000 -0.12484800
3 7.43124800 1.49647700 0.00000200 0.00000000 0.00000000 0.24545000
4 5.27847900 0.16554100 0.00000100 0.00000000 0.00000000 0.04851100
5 2.57162200 -13.89860700 1.51929800 1.97586400 1.15990900 -1.29878600
6 -6.21448200 -0.00000700 -0.00002700 -3.07842775 -1.07209116 2.02265312
7 11.94488200 0.00000000 0.00000100 -1.72207134 -0.35403894 1.60903351
8 10.62018100 0.00000200 0.00000000 -0.72996583 -0.14412636 2.82894506
9 -4.75110600 -0.69449400 0.83057700 0.22568400 -0.33047300 0.17652300
10 -1.68806800 0.00004600 -0.00003200 0.02340800 -0.00797900 0.19923300
11 -1.33614000 0.00005700 -0.00001200 0.01900200 0.01823200 -0.20965600
12 -4.82049400 -0.50946000 -0.22475900 0.15830900 -0.24430600 0.16574500
13 -1.82699200 -0.00006400 0.00000600 -0.03675300 0.01694200 0.13526600
14 -1.43657300 0.00000600 0.00000200 -0.07209300 -0.02918200 1.09493100
15 -3.99235500 -0.89118800 -1.82790900 -0.14912700 -0.09109400 -0.06426300
16 -1.40591800 -0.00002500 -0.00000300 0.01713000 -0.02394900 0.25439400
17 -1.17535800 0.00012800 -0.00002000 0.00109800 0.06796300 -0.07953600
18 -4.52675100 -0.69057500 -1.12074400 -0.04485800 -0.15560900 0.07297300
19 -1.74403800 0.00003300 -0.00000800 0.00771800 -0.02851600 0.14445500
20 -1.36877100 0.00002500 0.00000200 -0.17476200 -0.10676900 0.91238500
21 -1.87480000 -0.93512500 0.99917400 2.59450300 0.73691000 1.07456600
22 -1.52345300 0.00003200 0.00003100 -0.01433300 0.00894200 0.01892900
23 -1.59928500 0.00000400 0.00001600 0.03988100 0.01579900 -0.39821300
24 5.51181500 0.00000800 -0.00000100 0.80876118 -0.00041220 -3.14068985
25 0.19684700 -0.00000100 0.00000300 2.79340683 -0.00097859 -3.14131728
26 2.82419600 -15.55495700 -1.64370500 1.97586200 1.15990900 1.84280300
27 6.21448500 0.00000600 0.00002000 0.00512856 0.74629998 -1.24322904
28 11.94488500 -0.00002900 -0.00019400 0.28968024 -0.33258186 -1.76541200
29 10.62016600 0.00000200 0.00001000 -2.39733449 -0.41607921 0.42251218
30 4.75115600 0.69437600 -0.83047300 0.03879200 -0.19804500 0.65401300
31 1.68806500 -0.00002600 0.00000200 0.00892000 -0.02304800 1.06998800
32 1.33615100 -0.00005100 -0.00000900 0.03375600 -0.01901100 -0.68693900
33 4.82051300 0.50934000 0.22486500 -0.12275600 -0.09826900 0.99657500
34 1.82699600 0.00006600 0.00000800 -0.01519300 0.03755700 0.88944700
35 1.43657700 -0.00001000 0.00000700 0.01505700 0.00194300 -0.85696800
36 3.99235300 0.89108700 1.82799400 -0.27752100 0.07965200 1.30807300
37 1.40591800 0.00002100 -0.00000700 0.02259200 -0.01894000 0.00289400
38 1.17536900 -0.00013100 0.00000200 -0.01238200 0.12260400 -0.14636500
39 4.52675600 0.69046000 1.12084200 -0.17456500 0.02416900 1.23073800
40 1.74404100 -0.00003100 -0.00000200 -0.00084600 -0.02953200 0.43944700
41 1.36876300 -0.00003100 -0.00001700 -0.28730500 -0.09722100 -0.74619600
42 1.87485500 0.93508100 -0.99913000 2.02277800 0.69056000 0.67886000
43 1.45054417 -0.06018300 0.09121700 -0.30488300 -0.32213100 1.02281700
44 1.59928100 -0.00000200 0.00000900 0.05030500 0.06659900 -0.09686100
45 5.51180600 -0.00000200 0.00000600 -0.83754300 0.00000000 0.00000000
46 0.19685000 0.00000300 -0.00000200 -0.34822500 0.00001500 -0.00000200
47 0.00000000 0.00000000 0.00000000 0.00000000 0.00000000 -1.57079600
48 -3.30740400 24.45101500 -2.33000000 -0.00438200 0.00562600 -3.13695300
49 -2.11298290 44.72539063 -6.82774884 -0.22833837 0.14697903 -1.43817550
50 4.99273066 5.61610783 -2.65927000 0.64594268 1.26328607 2.23453725
51 1.12932600 -6.48943500 -1.39556600 2.79768849 0.25801489 -1.95132156
time 3
0 -0.00000100 7.45008900 -27.50902600 0.00000000 0.00000000 0.00003100
1 -0.00000200 0.00000000 0.00000000 1.57074300 -1.56713700 -1.57074300
2 4.25546800 -0.33518300 -0.00000200 0.00000000 0.00000000 -0.12484800
3 7.43124800 1.49647700 0.00000200 0.00000000 0.00000000 0.24545000
4 5.27847900 0.16554100 0.00000100 0.00000000 0.00000000 0.04851100
5 2.57162200 -13.89860700 1.51929800 1.97586400 1.15990900 -1.29878600
6 -6.21448200 -0.00000700 -0.00002700 -3.06947866 -1.07129583 2.00644660
7 11.94488200 0.00000000 0.00000100 -1.71477714 -0.35261467 1.59487616
8 10.62018100 0.00000200 0.00000000 -0.72533114 -0.11585078 2.80942239
9 -4.75110600 -0.69449400 0.83057700 0.22568400 -0.33047300 0.17652300
10 -1.68806800 0.00004600 -0.00003200 0.02340800 -0.00797900 0.19923300
11 -1.33614000 0.00005700 -0.00001200 0.01900200 0.01823200 -0.20965600
12 -4.82049400 -0.50946000 -0.22475900 0.15830900 -0.24430600 0.16574500
13 -1.82699200 -0.00006400 0.00000600 -0.03675300 0.01694200 0.13526600
14 -1.43657300 0.00000600 0.00000200 -0.07209300 -0.02918200 1.09493100
15 -3.99235500 -0.89118800 -1.82790900 -0.14912700 -0.09109400 -0.06426300
16 -1.40591800 -0.00002500 -0.00000300 0.01713000 -0.02394900 0.25439400
17 -1.17535800 0.00012800 -0.00002000 0.00109800 0.06796300 -0.07953600
18 -4.52675100 -0.69057500 -1.12074400 -0.04485800 -0.15560900 0.07297300
19 -1.74403800 0.00003300 -0.00000800 0.00771800 -0.02851600 0.14445500
20 -1.36877100 0.00002500 0.00000200 -0.17476200 -0.10676900 0.91238500
21 -1.87480000 -0.93512500 0.99917400 2.59450300 0.73691000 1.07456600
22 -1.52345300 0.00003200 0.00003100 -0.01433300 0.00894200 0.01892900
23 -1.59928500 0.00000400 0.00001600 0.03988100 0.01579900 -0.39821300
24 5.51181500 0.00000800 -0.00000100 0.81008542 -0.00041339 -3.14069040
25 0.19684700 -0.00000100 0.00000300 2.79340683 -0.00097859 -3.14131728
26 2.82419600 -15.55495700 -1.64370500 1.97586200 1.15990900 1.84280300
27 6.21448500 0.00000600 0.00002000 -0.00168534 0.74961525 -1.23815363
28 11.94488500 -0.00002900 -0.00019400 0.28972768 -0.33123058 -1.76545947
29 10.62016600 0.00000200 0.00001000 -2.38409112 -0.42141354 0.39127026
30 4.75115600 0.69437600 -0.83047300 0.03879200 -0.19804500 0.65401300
31 1.68806500 -0.00002600 0.00000200 0.00892000 -0.02304800 1.06998800
32 1.33615100 -0.00005100 -0.00000900 0.03375600 -0.01901100 -0.68693900
33 4.82051300 0.50934000 0.22486500 -0.12275600 -0.09826900 0.99657500
34 1.82699600 0.00006600 0.00000800 -0.01519300 0.03755700 0.88944700
35 1.43657700 -0.00001000 0.00000700 0.01505700 0.00194300 -0.85696800
36 3.99235300 0.89108700 1.82799400 -0.27752100 0.07965200 1.30807300
37 1.40591800 0.00002100 -0.00000700 0.02259200 -0.01894000 0.00289400
38 1.17536900 -0.00013100 0.00000200 -0.01238200 0.12260400 -0.14636500
39 4.52675600 0.69046000 1.12084200 -0.17456500 0.02416900 1.23073800
40 1.74404100 -0.00003100 -0.00000200 -0.00084600 -0.02953200 0.43944700
41 1.36876300 -0.00003100 -0.00001700 -0.28730500 -0.09722100 -0.74619600
42 1.87485500 0.93508100 -0.99913000 2.02277800 0.69056000 0.67886000
43 1.45054417 -0.06018300 0.09121700 -0.30488300 -0.32213100 1.02281700
44 1.59928100 -0.00000200 0.00000900 0.05030500 0.06659900 -0.09686100
45 5.51180600 -0.00000200 0.00000600 -0.83754300 0.00000000 0.00000000
46 0.19685000 0.00000300 -0.00000200 -0.34822500 0.00001500 -0.00000200
47 0.00000000 0.00000000 0.00000000 0.00000000 0.00000000 -1.57079600
48 -3.30740400 24.45101500 -2.33000000 -0.00438200 0.00562600 -3.13695300
49 -2.20503053 44.71294464 -6.79278605 -0.22607070 0.17154546 -1.44104444
50 4.99273066 5.61610783 -2.65927000 0.64593551 1.26330199 2.23443367
51 1.12932600 -6.48943500 -1.39556600 2.79767045 0.25797459 -1.95139233
time 4
0 -0.00000100 7.45008900 -27.50902600 0.00000000 0.00000000 0.00003100
1 -0.00000200 0.00000000 0.00000000 1.57074300 -1.56713700 -1.57074300
2 4.25546800 -0.33518300 -0.00000200 0.00000000 0.00000000 -0.12484800
3 7.43124800 1.49647700 0.00000200 0.00000000 0.00000000 0.24545000
4 5.27847900 0.16554100 0.00000100 0.00000000 0.00000000 0.04851100
5 2.57162200 -13.89860700 1.51929800 1.97586400 1.15990900 -1.29878600
6 -6.21448200 -0.00000700 -0.00002700 -3.06008069 -1.07006419 1.98957238
7 11.94488200 0.00000000 0.00000100 -1.70431208 -0.35041850 1.57447664
8 10.62018100 0.00000200 0.00000000 -0.71849926 -0.07458108 2.78470679
9 -4.75110600 -0.69449400 0.83057700 0.22568400 -0.33047300 0.17652300
10 -1.68806800 0.00004600 -0.00003200 0.02340800 -0.00797900 0.19923300
11 -1.33614000 0.00005700 -0.00001200 0.01900200 0.01823200 -0.20965600
12 -4.82049400 -0.50946000 -0.22475900 0.15830900 -0.24430600 0.16574500
13 -1.82699200 -0.00006400 0.00000600 -0.03675300 0.01694200 0.13526600
14 -1.43657300 0.00000600 0.00000200 -0.07209300 -0.02918200 1.09493100
15 -3.99235500 -0.89118800 -1.82790900 -0.14912700 -0.09109400 -0.06426300
16 -1.40591800 -0.00002500 -0.00000300 0.01713000 -0.02394900 0.25439400
17 -1.17535800 0.00012800 -0.00002000 0.00109800 0.06796300 -0.07953600
18 -4.52675100 -0.69057500 -1.12074400 -0.04485800 -0.15560900 0.07297300
19 -1.74403800 0.00003300 -0.00000800 0.00771800 -0.02851600 0.14445500
20 -1.36877100 0.00002500 0.00000200 -0.17476200 -0.10676900 0.91238500
21 -1.87480000 -0.93512500 0.99917400 2.59450300 0.73691000 1.07456600
22 -1.52345300 0.00003200 0.00003100 -0.01433300 0.00894200 0.01892900
23 -1.59928500 0.00000400 0.00001600 0.03988100 0.01579900 -0.39821300
24 5.51181500 0.00000800 -0.00000100 0.81203323 -0.00041515 -3.14069120
25 0.19684700 -0.00000100 0.00000300 2.79340683 -0.00097859 -3.14131728
26 2.82419600 -15.55495700 -1.64370500 1.97586200 1.15990900 1.84280300
27 6.21448500 0.00000600 0.00002000 -0.00060569 0.75040834 -1.22775106
28 11.94488500 -0.00002900 -0.00019400 0.28840680 -0.32762040 -1.76159104
29 10.62016600 0.00000200 0.00001000 -2.37725830 -0.43854468 0.35010889
30 4.75115600 0.69437600 -0.83047300 0.03879200 -0.19804500 0.65401300
31 1.68806500 -0.00002600 0.00000200 0.00892000 -0.02304800 1.06998800
32 1.33615100 -0.00005100 -0.00000900 0.03375600 -0.01901100 -0.68693900
33 4.82051300 0.50934000 0.22486500 -0.12275600 -0.09826900 0.99657500
34 1.82699600 0.00006600 0.00000800 -0.01519300 0.03755700 0.88944700
35 1.43657700 -0.00001000 0.00000700 0.01505700 0.00194300 -0.85696800
36 3.99235300 0.89108700 1.82799400 -0.27752100 0.07965200 1.30807300
37 1.40591800 0.00002100 -0.00000700 0.02259200 -0.01894000 0.00289400
38 1.17536900 -0.00013100 0.00000200 -0.01238200 0.12260400 -0.14636500
39 4.52675600 0.69046000 1.12084200 -0.17456500 0.02416900 1.23073800
40 1.74404100 -0.00003100 -0.00000200 -0.00084600 -0.02953200 0.43944700
41 1.36876300 -0.00003100 -0.00001700 -0.28730500 -0.09722100 -0.74619600
42 1.87485500 0.93508100 -0.99913000 2.02277800 0.69056000 0.67886000
43 1.45054417 -0.06018300 0.09121700 -0.30488300 -0.32213100 1.02281700
44 1.59928100 -0.00000200 0.00000900 0.05030500 0.06659900 -0.09686100
45 5.51180600 -0.00000200 0.00000600 -0.83754300 0.00000000 0.00000000
46 0.19685000 0.00000300 -0.00000200 -0.34822500 0.00001500 -0.00000200
47 0.00000000 0.00000000 0.00000000 0.00000000 0.00000000 -1.57079600
48 -3.30740400 24.45101500 -2.33000000 -0.00438200 0.00562600 -3.13695300
49 -2.29990557 44.69624967 -6.79807548 -0.21972019 0.20410892 -1.44574940
50 4.99273066 5.61610783 -2.65927000 0.64610207 1.26340126 2.23432135
51 1.12932600 -6.48943500 -1.39556600 2.79766751 0.25793504 -1.95150470
time 5
0 -0.00000100 7.45008900 -27.50902600 0.00000000 0.00000000 0.00003100
1 -0.00000200 0.00000000 0.00000000 1.57074300 -1.56713700 -1.57074300
2 4.25546800 -0.33518300 -0.00000200 0.00000000 0.00000000 -0.12484800
3 7.43124800 1.49647700 0.00000200 0.00000000 0.00000000 0.24545000
4 5.27847900 0.16554100 0.00000100 0.00000000 0.00000000 0.04851100
5 2.57162200 -13.89860700 1.51929800 1.97586400 1.15990900 -1.29878600
6 -6.21448200 -0.00000700 -0.00002700 -3.05497407 -1.06999838 1.97592193
7 11.94488200 0.00000000 0.00000100 -1.69274845 -0.34860619 1.55405524
8 10.62018100 0.00000200 0.00000000 -0.71188512 -0.03412988 2.75960794
9 -4.75110600 -0.69449400 0.83057700 0.22568400 -0.33047300 0.17652300
10 -1.68806800 0.00004600 -0.00003200 0.02340800 -0.00797900 0.19923300
11 -1.33614000 0.00005700 -0.00001200 0.01900200 0.01823200 -0.20965600
12 -4.82049400 -0.50946000 -0.22475900 0.15830900 -0.24430600 0.16574500
13 -1.82699200 -0.00006400 0.00000600 -0.03675300 0.01694200 0.13526600
14 -1.43657300 0.00000600 0.00000200 -0.07209300 -0.02918200 1.09493100
15 -3.99235500 -0.89118800 -1.82790900 -0.14912700 -0.09109400 -0.06426300
16 -1.40591800 -0.00002500 -0.00000300 0.01713000 -0.02394900 0.25439400
17 -1.17535800 0.00012800 -0.00002000 0.00109800 0.06796300 -0.07953600
18 -4.52675100 -0.69057500 -1.12074400 -0.04485800 -0.15560900 0.07297300
19 -1.74403800 0.00003300 -0.00000800 0.00771800 -0.02851600 0.14445500
20 -1.36877100 0.00002500 0.00000200 -0.17476200 -0.10676900 0.91238500
21 -1.87480000 -0.93512500 0.99917400 2.59450300 0.73691000 1.07456600
22 -1.52345300 0.00003200 0.00003100 -0.01433300 0.00894200 0.01892900
23 -1.59928500 0.00000400 0.00001600 0.03988100 0.01579900 -0.39821300
24 5.51181500 0.00000800 -0.00000100 0.81444954 -0.00041733 -3.14069221
25 0.19684700 -0.00000100 0.00000300 2.79340683 -0.00097859 -3.14131728
26 2.82419600 -15.55495700 -1.64370500 1.97586200 1.15990900 1.84280300
27 6.21448500 0.00000600 0.00002000 0.00299495 0.75041702 -1.21519131
28 11.94488500 -0.00002900 -0.00019400 0.28662808 -0.32214840 -1.75632794
29 10.62016600 0.00000200 0.00001000 -2.37321941 -0.45640533 0.31014833
30 4.75115600 0.69437600 -0.83047300 0.03879200 -0.19804500 0.65401300
31 1.68806500 -0.00002600 0.00000200 0.00892000 -0.02304800 1.06998800
32 1.33615100 -0.00005100 -0.00000900 0.03375600 -0.01901100 -0.68693900
33 4.82051300 0.50934000 0.22486500 -0.12275600 -0.09826900 0.99657500
34 1.82699600 0.00006600 0.00000800 -0.01519300 0.03755700 0.88944700
35 1.43657700 -0.00001000 0.00000700 0.01505700 0.00194300 -0.85696800
36 3.99235300 0.89108700 1.82799400 -0.27752100 0.07965200 1.30807300
37 1.40591800 0.00002100 -0.00000700 0.02259200 -0.01894000 0.00289400
38 1.17536900 -0.00013100 0.00000200 -0.01238200 0.12260400 -0.14636500
39 4.52675600 0.69046000 1.12084200 -0.17456500 0.02416900 1.23073800
40 1.74404100 -0.00003100 -0.00000200 -0.00084600 -0.02953200 0.43944700
41 1.36876300 -0.00003100 -0.00001700 -0.28730500 -0.09722100 -0.74619600
42 1.87485500 0.93508100 -0.99913000 2.02277800 0.69056000 0.67886000
43 1.45054417 -0.06018300 0.09121700 -0.30488300 -0.32213100 1.02281700
44 1.59928100 -0.00000200 0.00000900 0.05030500 0.06659900 -0.09686100
45 5.51180600 -0.00000200 0.00000600 -0.83754300 0.00000000 0.00000000
46 0.19685000 0.00000300 -0.00000200 -0.34822500 0.00001500 -0.00000200
47 0.00000000 0.00000000 0.00000000 0.00000000 0.00000000 -1.57079600
48 -3.30740400 24.45101500 -2.33000000 -0.00438200 0.00562600 -3.13695300
49 -2.39497578 44.67544195 -6.84554695 -0.21414471 0.23377446 -1.45090825
50 4.99273066 5.61610783 -2.65927000 0.64607878 1.26343491 2.23401153
51 1.12932600 -6.48943500 -1.39556600 2.79770460 0.25784383 -1.95159910
time 6
0 -0.00000100 7.45008900 -27.50902600 0.00000000 0.00000000 0.00003100
1 -0.00000200 0.00000000 0.00000000 1.57074300 -1.56713700 -1.57074300
2 4.25546800 -0.33518300 -0.00000200 0.00000000 0.00000000 -0.12484800
3 7.43124800 1.49647700 0.00000200 0.00000000 0.00000000 0.24545000
4 5.27847900 0.16554100 0.00000100 0.00000000 0.00000000 0.04851100
5 2.57162200 -13.89860700 1.51929800 1.97586400 1.15990900 -1.29878600
6 -6.21448200 -0.00000700 -0.00002700 -3.05710784 -1.07266956 1.96799200
7 11.94488200 0.00000000 0.00000100 -1.68090378 -0.34786417 1.53502799
8 10.62018100 0.00000200 0.00000000 -0.70752331 0.00159880 2.73481078
9 -4.75110600 -0.69449400 0.83057700 0.22568400 -0.33047300 0.17652300
10 -1.68806800 0.00004600 -0.00003200 0.02340800 -0.00797900 0.19923300
11 -1.33614000 0.00005700 -0.00001200 0.01900200 0.01823200 -0.20965600
12 -4.82049400 -0.50946000 -0.22475900 0.15830900 -0.24430600 0.16574500
13 -1.82699200 -0.00006400 0.00000600 -0.03675300 0.01694200 0.13526600
14 -1.43657300 0.00000600 0.00000200 -0.07209300 -0.02918200 1.09493100
15 -3.99235500 -0.89118800 -1.82790900 -0.14912700 -0.09109400 -0.06426300
16 -1.40591800 -0.00002500 -0.00000300 0.01713000 -0.02394900 0.25439400
17 -1.17535800 0.00012800 -0.00002000 0.00109800 0.06796300 -0.07953600
18 -4.52675100 -0.69057500 -1.12074400 -0.04485800 -0.15560900 0.07297300
19 -1.74403800 0.00003300 -0.00000800 0.00771800 -0.02851600 0.14445500
20 -1.36877100 0.00002500 0.00000200 -0.17476200 -0.10676900 0.91238500
21 -1.87480000 -0.93512500 0.99917400 2.59450300 0.73691000 1.07456600
22 -1.52345300 0.00003200 0.00003100 -0.01433300 0.00894200 0.01892900
23 -1.59928500 0.00000400 0.00001600 0.03988100 0.01579900 -0.39821300
24 5.51181500 0.00000800 -0.00000100 0.81741396 -0.00041999 -3.14069345
25 0.19684700 -0.00000100 0.00000300 2.79340683 -0.00097859 -3.14131728
26 2.82419600 -15.55495700 -1.64370500 1.97586200 1.15990900 1.84280300
27 6.21448500 0.00000600 0.00002000 0.00796376 0.75002541 -1.20140258
28 11.94488500 -0.00002900 -0.00019400 0.28461844 -0.31442452 -1.75049842
29 10.62016600 0.00000200 0.00001000 -2.37100332 -0.47112803 0.27595086
30 4.75115600 0.69437600 -0.83047300 0.03879200 -0.19804500 0.65401300
31 1.68806500 -0.00002600 0.00000200 0.00892000 -0.02304800 1.06998800
32 1.33615100 -0.00005100 -0.00000900 0.03375600 -0.01901100 -0.68693900
33 4.82051300 0.50934000 0.22486500 -0.12275600 -0.09826900 0.99657500
34 1.82699600 0.00006600 0.00000800 -0.01519300 0.03755700 0.88944700
35 1.43657700 -0.00001000 0.00000700 0.01505700 0.00194300 -0.85696800
36 3.99235300 0.89108700 1.82799400 -0.27752100 0.07965200 1.30807300
37 1.40591800 0.00002100 -0.00000700 0.02259200 -0.01894000 0.00289400
38 1.17536900 -0.00013100 0.00000200 -0.01238200 0.12260400 -0.14636500
39 4.52675600 0.69046000 1.12084200 -0.17456500 0.02416900 1.23073800
40 1.74404100 -0.00003100 -0.00000200 -0.00084600 -0.02953200 0.43944700
41 1.36876300 -0.00003100 -0.00001700 -0.28730500 -0.09722100 -0.74619600
42 1.87485500 0.93508100 -0.99913000 2.02277800 0.69056000 0.67886000
43 1.45054417 -0.06018300 0.09121700 -0.30488300 -0.32213100 1.02281700
44 1.59928100 -0.00000200 0.00000900 0.05030500 0.06659900 -0.09686100
45 5.51180600 -0.00000200 0.00000600 -0.83754300 0.00000000 0.00000000
46 0.19685000 0.00000300 -0.00000200 -0.34822500 0.00001500 -0.00000200
47 0.00000000 0.00000000 0.00000000 0.00000000 0.00000000 -1.57079600
48 -3.30740400 24.45101500 -2.33000000 -0.00438200 0.00562600 -3.13695300
49 -2.48199361 44.65086690 -6.95418841 -0.21247081 0.25604972 -1.45688764
50 4.99273066 5.61610783 -2.65927000 0.64619369 1.26344387 2.23397301
51 1.12932600 -6.48943500 -1.39556600 2.79770224 0.25782483 -1.95160838
time 7
0 -0.00000100 7.45008900 -27.50902600 0.00000000 0.00000000 0.00003100
1 -0.00000200 0.00000000 0.00000000 1.57074300 -1.56713700 -1.57074300
2 4.25546800 -0.33518300 -0.00000200 0.00000000 0.00000000 -0.12484800
3 7.43124800 1.49647700 0.00000200 0.00000000 0.00000000 0.24545000
4 5.27847900 0.16554100 0.00000100 0.00000000 0.00000000 0.04851100
5 2.57162200 -13.89860700 1.51929800 1.97586400 1.15990900 -1.29878600
6 -6.21448200 -0.00000700 -0.00002700 -3.06626697 -1.07700808 1.96904059
7 11.94488200 0.00000000 0.00000100 -1.66974939 -0.34753512 1.52057235
8 10.62018100 0.00000200 0.00000000 -0.70355146 0.03003468 2.71343062
9 -4.75110600 -0.69449400 0.83057700 0.22568400 -0.33047300 0.17652300
10 -1.68806800 0.00004600 -0.00003200 0.02340800 -0.00797900 0.19923300
11 -1.33614000 0.00005700 -0.00001200 0.01900200 0.01823200 -0.20965600
12 -4.82049400 -0.50946000 -0.22475900 0.15830900 -0.24430600 0.16574500
13 -1.82699200 -0.00006400 0.00000600 -0.03675300 0.01694200 0.13526600
14 -1.43657300 0.00000600 0.00000200 -0.07209300 -0.02918200 1.09493100
15 -3.99235500 -0.89118800 -1.82790900 -0.14912700 -0.09109400 -0.06426300
16 -1.40591800 -0.00002500 -0.00000300 0.01713000 -0.02394900 0.25439400
17 -1.17535800 0.00012800 -0.00002000 0.00109800 0.06796300 -0.07953600
18 -4.52675100 -0.69057500 -1.12074400 -0.04485800 -0.15560900 0.07297300
19 -1.74403800 0.00003300 -0.00000800 0.00771800 -0.02851600 0.14445500
20 -1.36877100 0.00002500 0.00000200 -0.17476200 -0.10676900 0.91238500
21 -1.87480000 -0.93512500 0.99917400 2.59450300 0.73691000 1.07456600
22 -1.52345300 0.00003200 0.00003100 -0.01433300 0.00894200 0.01892900
23 -1.59928500 0.00000400 0.00001600 0.03988100 0.01579900 -0.39821300
24 5.51181500 0.00000800 -0.00000100 0.82077142 -0.00042301 -3.14069486
25 0.19684700 -0.00000100 0.00000300 2.79340683 -0.00097859 -3.14131728
26 2.82419600 -15.55495700 -1.64370500 1.97586200 1.15990900 1.84280300
27 6.21448500 0.00000600 0.00002000 0.01728338 0.74736152 -1.18804935
28 11.94488500 -0.00002900 -0.00019400 0.28205152 -0.30531214 -1.74327234
29 10.62016600 0.00000200 0.00001000 -2.37496188 -0.48632538 0.25119181
30 4.75115600 0.69437600 -0.83047300 0.03879200 -0.19804500 0.65401300
31 1.68806500 -0.00002600 0.00000200 0.00892000 -0.02304800 1.06998800
32 1.33615100 -0.00005100 -0.00000900 0.03375600 -0.01901100 -0.68693900
33 4.82051300 0.50934000 0.22486500 -0.12275600 -0.09826900 0.99657500
34 1.82699600 0.00006600 0.00000800 -0.01519300 0.03755700 0.88944700
35 1.43657700 -0.00001000 0.00000700 0.01505700 0.00194300 -0.85696800
36 3.99235300 0.89108700 1.82799400 -0.27752100 0.07965200 1.30807300
37 1.40591800 0.00002100 -0.00000700 0.02259200 -0.01894000 0.00289400
38 1.17536900 -0.00013100 0.00000200 -0.01238200 0.12260400 -0.14636500
39 4.52675600 0.69046000 1.12084200 -0.17456500 0.02416900 1.23073800
40 1.74404100 -0.00003100 -0.00000200 -0.00084600 -0.02953200 0.43944700
41 1.36876300 -0.00003100 -0.00001700 -0.28730500 -0.09722100 -0.74619600
42 1.87485500 0.93508100 -0.99913000 2.02277800 0.69056000 0.67886000
43 1.45054417 -0.06018300 0.09121700 -0.30488300 -0.32213100 1.02281700
44 1.59928100 -0.00000200 0.00000900 0.05030500 0.06659900 -0.09686100
45 5.51180600 -0.00000200 0.00000600 -0.83754300 0.00000000 0.00000000
46 0.19685000 0.00000300 -0.00000200 -0.34822500 0.00001500 -0.00000200
47 0.00000000 0.00000000 0.00000000 0.00000000 0.00000000 -1.57079600
48 -3.30740400 24.45101500 -2.33000000 -0.00438200 0.00562600 -3.13695300
49 -2.53038537 44.62247077 -7.10590124 -0.21232758 0.27004947 -1.46382025
50 4.99273066 5.61610783 -2.65927000 0.64623946 1.26343212 2.23394363
51 1.12932600 -6.48943500 -1.39556600 2.79769627 0.25780109 -1.95163185
time 8
0 -0.00000100 7.45008900 -27.50902600 0.00000000 0.00000000 0.00003100
1 -0.00000200 0.00000000 0.00000000 1.57074300 -1.56713700 -1.57074300
2 4.25546800 -0.33518300 -0.00000200 0.00000000 0.00000000 -0.12484800
3 7.43124800 1.49647700 0.00000200 0.00000000 0.00000000 0.24545000
4 5.27847900 0.16554100 0.00000100 0.00000000 0.00000000 0.04851100
5 2.57162200 -13.89860700 1.51929800 1.97586400 1.15990900 -1.29878600
6 -6.21448200 -0.00000700 -0.00002700 -3.08227202 -1.08174259 1.98372533
7 11.94488200 0.00000000 0.00000100 -1.66204697 -0.34671333 1.51878689
8 10.62018100 0.00000200 0.00000000 -0.69582714 0.04156176 2.70217147
9 -4.75110600 -0.69449400 0.83057700 0.22568400 -0.33047300 0.17652300
10 -1.68806800 0.00004600 -0.00003200 0.02340800 -0.00797900 0.19923300
11 -1.33614000 0.00005700 -0.00001200 0.01900200 0.01823200 -0.20965600
12 -4.82049400 -0.50946000 -0.22475900 0.15830900 -0.24430600 0.16574500
13 -1.82699200 -0.00006400 0.00000600 -0.03675300 0.01694200 0.13526600
14 -1.43657300 0.00000600 0.00000200 -0.07209300 -0.02918200 1.09493100
15 -3.99235500 -0.89118800 -1.82790900 -0.14912700 -0.09109400 -0.06426300
16 -1.40591800 -0.00002500 -0.00000300 0.01713000 -0.02394900 0.25439400
17 -1.17535800 0.00012800 -0.00002000 0.00109800 0.06796300 -0.07953600
18 -4.52675100 -0.69057500 -1.12074400 -0.04485800 -0.15560900 0.07297300
19 -1.74403800 0.00003300 -0.00000800 0.00771800 -0.02851600 0.14445500
20 -1.36877100 0.00002500 0.00000200 -0.17476200 -0.10676900 0.91238500
21 -1.87480000 -0.93512500 0.99917400 2.59450300 0.73691000 1.07456600
22 -1.52345300 0.00003200 0.00003100 -0.01433300 0.00894200 0.01892900
23 -1.59928500 0.00000400 0.00001600 0.03988100 0.01579900 -0.39821300
24 5.51181500 0.00000800 -0.00000100 0.82467865 -0.00042651 -3.14069652
25 0.19684700 -0.00000100 0.00000300 2.79340683 -0.00097859 -3.14131728
26 2.82419600 -15.55495700 -1.64370500 1.97586200 1.15990900 1.84280300
27 6.21448500 0.00000600 0.00002000 0.03190258 0.74118097 -1.17918187
28 11.94488500 -0.00002900 -0.00019400 0.27956351 -0.29732997 -1.73593676
29 10.62016600 0.00000200 0.00001000 -2.39029961 -0.50127635 0.24516839
30 4.75115600 0.69437600 -0.83047300 0.03879200 -0.19804500 0.65401300
31 1.68806500 -0.00002600 0.00000200 0.00892000 -0.02304800 1.06998800
32 1.33615100 -0.00005100 -0.00000900 0.03375600 -0.01901100 -0.68693900
33 4.82051300 0.50934000 0.22486500 -0.12275600 -0.09826900 0.99657500
34 1.82699600 0.00006600 0.00000800 -0.01519300 0.03755700 0.88944700
35 1.43657700 -0.00001000 0.00000700 0.01505700 0.00194300 -0.85696800
36 3.99235300 0.89108700 1.82799400 -0.27752100 0.07965200 1.30807300
37 1.40591800 0.00002100 -0.00000700 0.02259200 -0.01894000 0.00289400
38 1.17536900 -0.00013100 0.00000200 -0.01238200 0.12260400 -0.14636500
39 4.52675600 0.69046000 1.12084200 -0.17456500 0.02416900 1.23073800
40 1.74404100 -0.00003100 -0.00000200 -0.00084600 -0.02953200 0.43944700
41 1.36876300 -0.00003100 -0.00001700 -0.28730500 -0.09722100 -0.74619600
42 1.87485500 0.93508100 -0.99913000 2.02277800 0.69056000 0.67886000
43 1.45054400 -0.06018351 0.09121717 -0.30488300 -0.32213100 1.02281700
44 1.59928100 -0.00000200 0.00000900 0.05030500 0.06659900 -0.09686100
45 5.51180600 -0.00000200 0.00000600 -0.83754300 0.00000000 0.00000000
46 0.19685000 0.00000300 -0.00000200 -0.34822500 0.00001500 -0.00000200
47 0.00000000 0.00000000 0.00000000 0.00000000 0.00000000 -1.57079600
48 -3.30740400 24.45101500 -2.33000000 -0.00438200 0.00562600 -3.13695300
49 -2.50647758 44.59030126 -7.25277451 -0.21112085 0.27122628 -1.47100690
50 4.99273237 5.61610749 -2.65926932 0.64635533 1.26341131 2.23395330
51 1.12932600 -6.48943500 -1.39556600 2.79769757 0.25778726 -1.95162673
time 9
0 -0.00000100 7.45008900 -27.50902600 0.00000000 0.00000000 0.00003100
1 -0.00000200 0.00000000 0.00000000 1.57074300 -1.56713700 -1.57074300
2 4.25546800 -0.33518300 -0.00000200 0.00000000 0.00000000 -0.12484800
3 7.43124800 1.49647700 0.00000200 0.00000000 0.00000000 0.24545000
4 5.27847900 0.16554100 0.00000100 0.00000000 0.00000000 0.04851100
5 2.57162200 -13.89860700 1.51929800 1.97586400 1.15990900 -1.29878600
6 -6.21448200 -0.00000700 -0.00002700 -3.10151309 -1.08447914 2.01161829
7 11.94488200 0.00000000 0.00000100 -1.65781554 -0.34574972 1.52949493
8 10.62018100 0.00000200 0.00000000 -0.67764756 0.04306178 2.70285487
9 -4.75110600 -0.69449400 0.83057700 0.22568400 -0.33047300 0.17652300
10 -1.68806800 0.00004600 -0.00003200 0.02340800 -0.00797900 0.19923300
11 -1.33614000 0.00005700 -0.00001200 0.01900200 0.01823200 -0.20965600
12 -4.82049400 -0.50946000 -0.22475900 0.15830900 -0.24430600 0.16574500
13 -1.82699200 -0.00006400 0.00000600 -0.03675300 0.01694200 0.13526600
14 -1.43657300 0.00000600 0.00000200 -0.07209300 -0.02918200 1.09493100
15 -3.99235500 -0.89118800 -1.82790900 -0.14912700 -0.09109400 -0.06426300
16 -1.40591800 -0.00002500 -0.00000300 0.01713000 -0.02394900 0.25439400
17 -1.17535800 0.00012800 -0.00002000 0.00109800 0.06796300 -0.07953600
18 -4.52675100 -0.69057500 -1.12074400 -0.04485800 -0.15560900 0.07297300
19 -1.74403800 0.00003300 -0.00000800 0.00771800 -0.02851600 0.14445500
20 -1.36877100 0.00002500 0.00000200 -0.17476200 -0.10676900 0.91238500
21 -1.87480000 -0.93512500 0.99917400 2.59450300 0.73691000 1.07456600
22 -1.52345300 0.00003200 0.00003100 -0.01433300 0.00894200 0.01892900
23 -1.59928500 0.00000400 0.00001600 0.03988100 0.01579900 -0.39821300
24 5.51181500 0.00000800 -0.00000100 0.82913813 -0.00043050 -3.14069844
25 0.19684700 -0.00000100 0.00000300 2.79340683 -0.00097859 -3.14131728
26 2.82419600 -15.55495700 -1.64370500 1.97586200 1.15990900 1.84280300
27 6.21448500 0.00000600 0.00002000 0.05605267 0.73052245 -1.17545009
28 11.94488500 -0.00002900 -0.00019400 0.27566131 -0.29135176 -1.72420730
29 10.62016600 0.00000200 0.00001000 -2.42303699 -0.52748175 0.25088928
30 4.75115600 0.69437600 -0.83047300 0.03879200 -0.19804500 0.65401300
31 1.68806500 -0.00002600 0.00000200 0.00892000 -0.02304800 1.06998800
32 1.33615100 -0.00005100 -0.00000900 0.03375600 -0.01901100 -0.68693900
33 4.82051300 0.50934000 0.22486500 -0.12275600 -0.09826900 0.99657500
34 1.82699600 0.00006600 0.00000800 -0.01519300 0.03755700 0.88944700
35 1.43657700 -0.00001000 0.00000700 0.01505700 0.00194300 -0.85696800
36 3.99235300 0.89108700 1.82799400 -0.27752100 0.07965200 1.30807300
37 1.40591800 0.00002100 -0.00000700 0.02259200 -0.01894000 0.00289400
38 1.17536900 -0.00013100 0.00000200 -0.01238200 0.12260400 -0.14636500
39 4.52675600 0.69046000 1.12084200 -0.17456500 0.02416900 1.23073800
40 1.74404100 -0.00003100 -0.00000200 -0.00084600 -0.02953200 0.43944700
41 1.36876300 -0.00003100 -0.00001700 -0.28730500 -0.09722100 -0.74619600
42 1.87485500 0.93508100 -0.99913000 2.02277800 0.69056000 0.67886000
43 1.45054400 -0.06018351 0.09121717 -0.30488300 -0.32213100 1.02281700
44 1.59928100 -0.00000200 0.00000900 0.05030500 0.06659900 -0.09686100
45 5.51180600 -0.00000200 0.00000600 -0.83754300 0.00000000 0.00000000
46 0.19685000 0.00000300 -0.00000200 -0.34822500 0.00001500 -0.00000200
47 0.00000000 0.00000000 0.00000000 0.00000000 0.00000000 -1.57079600
48 -3.30740400 24.45101500 -2.33000000 -0.00438200 0.00562600 -3.13695300
49 -2.39178018 44.55585906 -7.37528111 -0.20016726 0.26660324 -1.47868815
50 4.99273237 5.61610749 -2.65926932 0.64638654 1.26338191 2.23400166
51 1.12932600 -6.48943500 -1.39556600 2.79768767 0.25777824 -1.95160724
time 10
0 -0.00000100 7.45008900 -27.50902600 0.00000000 0.00000000 0.00003100
1 -0.00000200 0.00000000 0.00000000 1.57074300 -1.56713700 -1.57074300
2 4.25546800 -0.33518300 -0.00000200 0.00000000 0.00000000 -0.12484800
3 7.43124800 1.49647700 0.00000200 0.00000000 0.00000000 0.24545000
4 5.27847900 0.16554100 0.00000100 0.00000000 0.00000000 0.04851100
5 2.57162200 -13.89860700 1.51929800 1.97586400 1.15990900 -1.29878600
6 -6.21448200 -0.00000700 -0.00002700 -3.12222826 -1.08442252 2.05175107
7 11.94488200 0.00000000 0.00000100 -1.65659182 -0.34571351 1.55156298
8 10.62018100 0.00000200 0.00000000 -0.64522342 0.03855950 2.71655177
9 -4.75110600 -0.69449400 0.83057700 0.22568400 -0.33047300 0.17652300
10 -1.68806800 0.00004600 -0.00003200 0.02340800 -0.00797900 0.19923300
11 -1.33614000 0.00005700 -0.00001200 0.01900200 0.01823200 -0.20965600
12 -4.82049400 -0.50946000 -0.22475900 0.15830900 -0.24430600 0.16574500
13 -1.82699200 -0.00006400 0.00000600 -0.03675300 0.01694200 0.13526600
14 -1.43657300 0.00000600 0.00000200 -0.07209300 -0.02918200 1.09493100
15 -3.99235500 -0.89118800 -1.82790900 -0.14912700 -0.09109400 -0.06426300
16 -1.40591800 -0.00002500 -0.00000300 0.01713000 -0.02394900 0.25439400
17 -1.17535800 0.00012800 -0.00002000 0.00109800 0.06796300 -0.07953600
18 -4.52675100 -0.69057500 -1.12074400 -0.04485800 -0.15560900 0.07297300
19 -1.74403800 0.00003300 -0.00000800 0.00771800 -0.02851600 0.14445500
20 -1.36877100 0.00002500 0.00000200 -0.17476200 -0.10676900 0.91238500
21 -1.87480000 -0.93512500 0.99917400 2.59450300 0.73691000 1.07456600
22 -1.52345300 0.00003200 0.00003100 -0.01433300 0.00894200 0.01892900
23 -1.59928500 0.00000400 0.00001600 0.03988100 0.01579900 -0.39821300
24 5.51181500 0.00000800 -0.00000100 0.83391685 -0.00043477 -3.14070050
25 0.19684700 -0.00000100 0.00000300 2.79340683 -0.00097859 -3.14131728
26 2.82419600 -15.55495700 -1.64370500 1.97586200 1.15990900 1.84280300
27 6.21448500 0.00000600 0.00002000 0.09370603 0.71438627 -1.17774410
28 11.94488500 -0.00002900 -0.00019400 0.26913728 -0.28824213 -1.70499786
29 10.62016600 0.00000200 0.00001000 -2.47926764 -0.57212906 0.26609746
30 4.75115600 0.69437600 -0.83047300 0.03879200 -0.19804500 0.65401300
31 1.68806500 -0.00002600 0.00000200 0.00892000 -0.02304800 1.06998800
32 1.33615100 -0.00005100 -0.00000900 0.03375600 -0.01901100 -0.68693900
33 4.82051300 0.50934000 0.22486500 -0.12275600 -0.09826900 0.99657500
34 1.82699600 0.00006600 0.00000800 -0.01519300 0.03755700 0.88944700
35 1.43657700 -0.00001000 0.00000700 0.01505700 0.00194300 -0.85696800
36 3.99235300 0.89108700 1.82799400 -0.27752100 0.07965200 1.30807300
37 1.40591800 0.00002100 -0.00000700 0.02259200 -0.01894000 0.00289400
38 1.17536900 -0.00013100 0.00000200 -0.01238200 0.12260400 -0.14636500
39 4.52675600 0.69046000 1.12084200 -0.17456500 0.02416900 1.23073800
40 1.74404100 -0.00003100 -0.00000200 -0.00084600 -0.02953200 0.43944700
41 1.36876300 -0.00003100 -0.00001700 -0.28730500 -0.09722100 -0.74619600
42 1.87485500 0.93508100 -0.99913000 2.02277800 0.69056000 0.67886000
43 1.45054400 -0.06018351 0.09121717 -0.30488300 -0.32213100 1.02281700
44 1.59928100 -0.00000200 0.00000900 0.05030500 0.06659900 -0.09686100
45 5.51180600 -0.00000200 0.00000600 -0.83754300 0.00000000 0.00000000
46 0.19685000 0.00000300 -0.00000200 -0.34822500 0.00001500 -0.00000200
47 0.00000000 0.00000000 0.00000000 0.00000000 0.00000000 -1.57079600
48 -3.30740400 24.45101500 -2.33000000 -0.00438200 0.00562600 -3.13695300
49 -2.17798188 44.52113188 -7.47585121 -0.17443631 0.25988748 -1.48735735
50 4.99273237 5.61610749 -2.65926932 0.64657495 1.26336409 2.23401354
51 1.12932600 -6.48943500 -1.39556600 2.79769131 0.25778319 -1.95159294
time 11
0 -0.00000100 7.45008900 -27.50902600 0.00000000 0.00000000 0.00003100
1 -0.00000200 0.00000000 0.00000000 1.57074300 -1.56713700 -1.57074300
2 4.25546800 -0.33518300 -0.00000200 0.00000000 0.00000000 -0.12484800
3 7.43124800 1.49647700 0.00000200 0.00000000 0.00000000 0.24545000
4 5.27847900 0.16554100 0.00000100 0.00000000 0.00000000 0.04851100
5 2.57162200 -13.89860700 1.51929800 1.97586400 1.15990900 -1.29878600
6 -6.21448200 -0.00000700 -0.00002700 -3.13996834 -1.08183671 2.09396883
7 11.94488200 0.00000000 0.00000100 -1.65599206 -0.34563536 1.57774788
8 10.62018100 0.00000200 0.00000000 -0.60751307 0.03179984 2.73493230
9 -4.75110600 -0.69449400 0.83057700 0.22568400 -0.33047300 0.17652300
10 -1.68806800 0.00004600 -0.00003200 0.02340800 -0.00797900 0.19923300
11 -1.33614000 0.00005700 -0.00001200 0.01900200 0.01823200 -0.20965600
12 -4.82049400 -0.50946000 -0.22475900 0.15830900 -0.24430600 0.16574500
13 -1.82699200 -0.00006400 0.00000600 -0.03675300 0.01694200 0.13526600
14 -1.43657300 0.00000600 0.00000200 -0.07209300 -0.02918200 1.09493100
15 -3.99235500 -0.89118800 -1.82790900 -0.14912700 -0.09109400 -0.06426300
16 -1.40591800 -0.00002500 -0.00000300 0.01713000 -0.02394900 0.25439400
17 -1.17535800 0.00012800 -0.00002000 0.00109800 0.06796300 -0.07953600
18 -4.52675100 -0.69057500 -1.12074400 -0.04485800 -0.15560900 0.07297300
19 -1.74403800 0.00003300 -0.00000800 0.00771800 -0.02851600 0.14445500
20 -1.36877100 0.00002500 0.00000200 -0.17476200 -0.10676900 0.91238500
21 -1.87480000 -0.93512500 0.99917400 2.59450300 0.73691000 1.07456600
22 -1.52345300 0.00003200 0.00003100 -0.01433300 0.00894200 0.01892900
23 -1.59928500 0.00000400 0.00001600 0.03988100 0.01579900 -0.39821300
24 5.51181500 0.00000800 -0.00000100 0.83925032 -0.00043952 -3.14070283
25 0.19684700 -0.00000100 0.00000300 2.79340683 -0.00097859 -3.14131728
26 2.82419600 -15.55495700 -1.64370500 1.97586200 1.15990900 1.84280300
27 6.21448500 0.00000600 0.00002000 0.13508901 0.69550212 -1.18703275
28 11.94488500 -0.00002900 -0.00019400 0.26152506 -0.28802003 -1.68226229
29 10.62016600 0.00000200 0.00001000 -2.54645128 -0.62251963 0.28802422
30 4.75115600 0.69437600 -0.83047300 0.03879200 -0.19804500 0.65401300
31 1.68806500 -0.00002600 0.00000200 0.00892000 -0.02304800 1.06998800
32 1.33615100 -0.00005100 -0.00000900 0.03375600 -0.01901100 -0.68693900
33 4.82051300 0.50934000 0.22486500 -0.12275600 -0.09826900 0.99657500
34 1.82699600 0.00006600 0.00000800 -0.01519300 0.03755700 0.88944700
35 1.43657700 -0.00001000 0.00000700 0.01505700 0.00194300 -0.85696800
36 3.99235300 0.89108700 1.82799400 -0.27752100 0.07965200 1.30807300
37 1.40591800 0.00002100 -0.00000700 0.02259200 -0.01894000 0.00289400
38 1.17536900 -0.00013100 0.00000200 -0.01238200 0.12260400 -0.14636500
39 4.52675600 0.69046000 1.12084200 -0.17456500 0.02416900 1.23073800
40 1.74404100 -0.00003100 -0.00000200 -0.00084600 -0.02953200 0.43944700
41 1.36876300 -0.00003100 -0.00001700 -0.28730500 -0.09722100 -0.74619600
42 1.87485500 0.93508100 -0.99913000 2.02277800 0.69056000 0.67886000
43 1.45054400 -0.06018351 0.09121717 -0.30488300 -0.32213100 1.02281700
44 1.59928100 -0.00000200 0.00000900 0.05030500 0.06659900 -0.09686100
45 5.51180600 -0.00000200 0.00000600 -0.83754300 0.00000000 0.00000000
46 0.19685000 0.00000300 -0.00000200 -0.34822500 0.00001500 -0.00000200
47 0.00000000 0.00000000 0.00000000 0.00000000 0.00000000 -1.57079600
48 -3.30740400 24.45101500 -2.33000000 -0.00438200 0.00562600 -3.13695300
49 -1.91582905 44.48800018 -7.54277242 -0.14309662 0.25410679 -1.49692613
50 4.99273237 5.61610749 -2.65926932 0.64629932 1.26344199 2.23353609
51 1.12932600 -6.48943500 -1.39556600 2.79767218 0.25775719 -1.95166802
time 12
0 -0.00000100 7.45008900 -27.50902600 0.00000000 0.00000000 0.00003100
1 -0.00000200 0.00000000 0.00000000 1.57074300 -1.56713700 -1.57074300
2 4.25546800 -0.33518300 -0.00000200 0.00000000 0.00000000 -0.12484800
3 7.43124800 1.49647700 0.00000200 0.00000000 0.00000000 0.24545000
4 5.27847900 0.16554100 0.00000100 0.00000000 0.00000000 0.04851100
5 2.57162200 -13.89860700 1.51929800 1.97586400 1.15990900 -1.29878600
6 -6.21448200 -0.00000700 -0.00002700 3.13552706 -1.07692959 2.12903099
7 11.94488200 0.00000000 0.00000100 -1.65634969 -0.34423791 1.60883999
8 10.62018100 0.00000200 0.00000000 -0.56663039 0.01892414 2.75482925
9 -4.75110600 -0.69449400 0.83057700 0.22568400 -0.33047300 0.17652300
10 -1.68806800 0.00004600 -0.00003200 0.02340800 -0.00797900 0.19923300
11 -1.33614000 0.00005700 -0.00001200 0.01900200 0.01823200 -0.20965600
12 -4.82049400 -0.50946000 -0.22475900 0.15830900 -0.24430600 0.16574500
13 -1.82699200 -0.00006400 0.00000600 -0.03675300 0.01694200 0.13526600
14 -1.43657300 0.00000600 0.00000200 -0.07209300 -0.02918200 1.09493100
15 -3.99235500 -0.89118800 -1.82790900 -0.14912700 -0.09109400 -0.06426300
16 -1.40591800 -0.00002500 -0.00000300 0.01713000 -0.02394900 0.25439400
17 -1.17535800 0.00012800 -0.00002000 0.00109800 0.06796300 -0.07953600
18 -4.52675100 -0.69057500 -1.12074400 -0.04485800 -0.15560900 0.07297300
19 -1.74403800 0.00003300 -0.00000800 0.00771800 -0.02851600 0.14445500
20 -1.36877100 0.00002500 0.00000200 -0.17476200 -0.10676900 0.91238500
21 -1.87480000 -0.93512500 0.99917400 2.59450300 0.73691000 1.07456600
22 -1.52345300 0.00003200 0.00003100 -0.01433300 0.00894200 0.01892900
23 -1.59928500 0.00000400 0.00001600 0.03988100 0.01579900 -0.39821300
24 5.51181500 0.00000800 -0.00000100 0.84498512 -0.00044461 -3.14070537
25 0.19684700 -0.00000100 0.00000300 2.79340683 -0.00097859 -3.14131728
26 2.82419600 -15.55495700 -1.64370500 1.97586200 1.15990900 1.84280300
27 6.21448500 0.00000600 0.00002000 0.16486850 0.67908301 -1.20458551
28 11.94488500 -0.00002900 -0.00019400 0.25432717 -0.29062658 -1.66070202
29 10.62016600 0.00000200 0.00001000 -2.61024354 -0.66279932 0.31103231
30 4.75115600 0.69437600 -0.83047300 0.03879200 -0.19804500 0.65401300
31 1.68806500 -0.00002600 0.00000200 0.00892000 -0.02304800 1.06998800
32 1.33615100 -0.00005100 -0.00000900 0.03375600 -0.01901100 -0.68693900
33 4.82051300 0.50934000 0.22486500 -0.12275600 -0.09826900 0.99657500
34 1.82699600 0.00006600 0.00000800 -0.01519300 0.03755700 0.88944700
35 1.43657700 -0.00001000 0.00000700 0.01505700 0.00194300 -0.85696800
36 3.99235300 0.89108700 1.82799400 -0.27752100 0.07965200 1.30807300
37 1.40591800 0.00002100 -0.00000700 0.02259200 -0.01894000 0.00289400
38 1.17536900 -0.00013100 0.00000200 -0.01238200 0.12260400 -0.14636500
39 4.52675600 0.69046000 1.12084200 -0.17456500 0.02416900 1.23073800
40 1.74404100 -0.00003100 -0.00000200 -0.00084600 -0.02953200 0.43944700
41 1.36876300 -0.00003100 -0.00001700 -0.28730500 -0.09722100 -0.74619600
42 1.87485500 0.93508100 -0.99913000 2.02277800 0.69056000 0.67886000
43 1.45054400 -0.06018351 0.09121717 -0.30488300 -0.32213100 1.02281700
44 1.59928100 -0.00000200 0.00000900 0.05030500 0.06659900 -0.09686100
45 5.51180600 -0.00000200 0.00000600 -0.83754300 0.00000000 0.00000000
46 0.19685000 0.00000300 -0.00000200 -0.34822500 0.00001500 -0.00000200
47 0.00000000 0.00000000 0.00000000 0.00000000 0.00000000 -1.57079600
48 -3.30740400 24.45101500 -2.33000000 -0.00438200 0.00562600 -3.13695300
49 -1.64849721 44.45778218 -7.50093815 -0.11113542 0.25075816 -1.50769911
50 4.99273237 5.61610749 -2.65926932 0.64671142 1.26340766 2.23374872
51 1.12932600 -6.48943500 -1.39556600 2.79767586 0.25776220 -1.95165355
time 13
0 -0.00000100 7.45008900 -27.50902600 0.00000000 0.00000000 0.00003100
1 -0.00000200 0.00000000 0.00000000 1.57074300 -1.56713700 -1.57074300
2 4.25546800 -0.33518300 -0.00000200 0.00000000 0.00000000 -0.12484800
3 7.43124800 1.49647700 0.00000200 0.00000000 0.00000000 0.24545000
4 5.27847900 0.16554100 0.00000100 0.00000000 0.00000000 0.04851100
5 2.57162200 -13.89860700 1.51929800 1.97586400 1.15990900 -1.29878600
6 -6.21448200 -0.00000700 -0.00002700 3.13567157 -1.07151083 2.15342018
7 11.94488200 0.00000000 0.00000100 -1.65440150 -0.34288871 1.63522805
8 10.62018100 0.00000200 0.00000000 -0.53657941 0.00761612 2.76941164
9 -4.75110600 -0.69449400 0.83057700 0.22568400 -0.33047300 0.17652300
10 -1.68806800 0.00004600 -0.00003200 0.02340800 -0.00797900 0.19923300
11 -1.33614000 0.00005700 -0.00001200 0.01900200 0.01823200 -0.20965600
12 -4.82049400 -0.50946000 -0.22475900 0.15830900 -0.24430600 0.16574500
13 -1.82699200 -0.00006400 0.00000600 -0.03675300 0.01694200 0.13526600
14 -1.43657300 0.00000600 0.00000200 -0.07209300 -0.02918200 1.09493100
15 -3.99235500 -0.89118800 -1.82790900 -0.14912700 -0.09109400 -0.06426300
16 -1.40591800 -0.00002500 -0.00000300 0.01713000 -0.02394900 0.25439400
17 -1.17535800 0.00012800 -0.00002000 0.00109800 0.06796300 -0.07953600
18 -4.52675100 -0.69057500 -1.12074400 -0.04485800 -0.15560900 0.07297300
19 -1.74403800 0.00003300 -0.00000800 0.00771800 -0.02851600 0.14445500
20 -1.36877100 0.00002500 0.00000200 -0.17476200 -0.10676900 0.91238500
21 -1.87480000 -0.93512500 0.99917400 2.59450300 0.73691000 1.07456600
22 -1.52345300 0.00003200 0.00003100 -0.01433300 0.00894200 0.01892900
23 -1.59928500 0.00000400 0.00001600 0.03988100 0.01579900 -0.39821300
24 5.51181500 0.00000800 -0.00000100 0.85112291 -0.00045005 -3.14070811
25 0.19684700 -0.00000100 0.00000300 2.79340683 -0.00097859 -3.14131728
26 2.82419600 -15.55495700 -1.64370500 1.97586200 1.15990900 1.84280300
27 6.21448500 0.00000600 0.00002000 0.17572974 0.67031196 -1.22878176
28 11.94488500 -0.00002900 -0.00019400 0.24931508 -0.29720402 -1.64584680
29 10.62016600 0.00000200 0.00001000 -2.64437014 -0.68156115 0.32446842
30 4.75115600 0.69437600 -0.83047300 0.03879200 -0.19804500 0.65401300
31 1.68806500 -0.00002600 0.00000200 0.00892000 -0.02304800 1.06998800
32 1.33615100 -0.00005100 -0.00000900 0.03375600 -0.01901100 -0.68693900
33 4.82051300 0.50934000 0.22486500 -0.12275600 -0.09826900 0.99657500
34 1.82699600 0.00006600 0.00000800 -0.01519300 0.03755700 0.88944700
35 1.43657700 -0.00001000 0.00000700 0.01505700 0.00194300 -0.85696800
36 3.99235300 0.89108700 1.82799400 -0.27752100 0.07965200 1.30807300
37 1.40591800 0.00002100 -0.00000700 0.02259200 -0.01894000 0.00289400
38 1.17536900 -0.00013100 0.00000200 -0.01238200 0.12260400 -0.14636500
39 4.52675600 0.69046000 1.12084200 -0.17456500 0.02416900 1.23073800
40 1.74404100 -0.00003100 -0.00000200 -0.00084600 -0.02953200 0.43944700
41 1.36876300 -0.00003100 -0.00001700 -0.28730500 -0.09722100 -0.74619600
42 1.87485500 0.93508100 -0.99913000 2.02277800 0.69056000 0.67886000
43 1.45054400 -0.06018351 0.09121717 -0.30488300 -0.32213100 1.02281700
44 1.59928100 -0.00000200 0.00000900 0.05030500 0.06659900 -0.09686100
45 5.51180600 -0.00000200 0.00000600 -0.83754300 0.00000000 0.00000000
46 0.19685000 0.00000300 -0.00000200 -0.34822500 0.00001500 -0.00000200
47 0.00000000 0.00000000 0.00000000 0.00000000 0.00000000 -1.57079600
48 -3.30740400 24.45101500 -2.33000000 -0.00438200 0.00562600 -3.13695300
49 -1.38164448 44.43265414 -7.37341287 -0.09131074 0.25176684 -1.51877758
50 4.99273237 5.61610749 -2.65926932 0.64656394 1.26343596 2.23357812
51 1.12932600 -6.48943500 -1.39556600 2.79767454 0.25777619 -1.95165874
time 14
0 -0.00000100 7.45008900 -27.50902600 0.00000000 0.00000000 0.00003100
1 -0.00000200 0.00000000 0.00000000 1.57074300 -1.56713700 -1.57074300
2 4.25546800 -0.33518300 -0.00000200 0.00000000 0.00000000 -0.12484800
3 7.43124800 1.49647700 0.00000200 0.00000000 0.00000000 0.24545000
4 5.27847900 0.16554100 0.00000100 0.00000000 0.00000000 0.04851100
5 2.57162200 -13.89860700 1.51929800 1.97586400 1.15990900 -1.29878600
6 -6.21448200 -0.00000700 -0.00002700 3.13500737 -1.06824462 2.16886764
7 11.94488200 0.00000000 0.00000100 -1.64570337 -0.34359271 1.64424402
8 10.62018100 0.00000200 0.00000000 -0.52577730 0.01249472 2.77288779
9 -4.75110600 -0.69449400 0.83057700 0.22568400 -0.33047300 0.17652300
10 -1.68806800 0.00004600 -0.00003200 0.02340800 -0.00797900 0.19923300
11 -1.33614000 0.00005700 -0.00001200 0.01900200 0.01823200 -0.20965600
12 -4.82049400 -0.50946000 -0.22475900 0.15830900 -0.24430600 0.16574500
13 -1.82699200 -0.00006400 0.00000600 -0.03675300 0.01694200 0.13526600
14 -1.43657300 0.00000600 0.00000200 -0.07209300 -0.02918200 1.09493100
15 -3.99235500 -0.89118800 -1.82790900 -0.14912700 -0.09109400 -0.06426300
16 -1.40591800 -0.00002500 -0.00000300 0.01713000 -0.02394900 0.25439400
17 -1.17535800 0.00012800 -0.00002000 0.00109800 0.06796300 -0.07953600
18 -4.52675100 -0.69057500 -1.12074400 -0.04485800 -0.15560900 0.07297300
19 -1.74403800 0.00003300 -0.00000800 0.00771800 -0.02851600 0.14445500
20 -1.36877100 0.00002500 0.00000200 -0.17476200 -0.10676900 0.91238500
21 -1.87480000 -0.93512500 0.99917400 2.59450300 0.73691000 1.07456600
22 -1.52345300 0.00003200 0.00003100 -0.01433300 0.00894200 0.01892900
23 -1.59928500 0.00000400 0.00001600 0.03988100 0.01579900 -0.39821300
24 5.51181500 0.00000800 -0.00000100 0.85774414 -0.00045589 -3.14071111
25 0.19684700 -0.00000100 0.00000300 2.79340683 -0.00097859 -3.14131728
26 2.82419600 -15.55495700 -1.64370500 1.97586200 1.15990900 1.84280300
27 6.21448500 0.00000600 0.00002000 0.17442376 0.66845866 -1.25194060
28 11.94488500 -0.00002900 -0.00019400 0.24633235 -0.30462379 -1.63712170
29 10.62016600 0.00000200 0.00001000 -2.64235953 -0.68559491 0.32183861
30 4.75115600 0.69437600 -0.83047300 0.03879200 -0.19804500 0.65401300
31 1.68806500 -0.00002600 0.00000200 0.00892000 -0.02304800 1.06998800
32 1.33615100 -0.00005100 -0.00000900 0.03375600 -0.01901100 -0.68693900
33 4.82051300 0.50934000 0.22486500 -0.12275600 -0.09826900 0.99657500
34 1.82699600 0.00006600 0.00000800 -0.01519300 0.03755700 0.88944700
35 1.43657700 -0.00001000 0.00000700 0.01505700 0.00194300 -0.85696800
36 3.99235300 0.89108700 1.82799400 -0.27752100 0.07965200 1.30807300
37 1.40591800 0.00002100 -0.00000700 0.02259200 -0.01894000 0.00289400
38 1.17536900 -0.00013100 0.00000200 -0.01238200 0.12260400 -0.14636500
39 4.52675600 0.69046000 1.12084200 -0.17456500 0.02416900 1.23073800
40 1.74404100 -0.00003100 -0.00000200 -0.00084600 -0.02953200 0.43944700
41 1.36876300 -0.00003100 -0.00001700 -0.28730500 -0.09722100 -0.74619600
42 1.87485500 0.93508100 -0.99913000 2.02277800 0.69056000 0.67886000
43 1.45054400 -0.06018351 0.09121717 -0.30488300 -0.32213100 1.02281700
44 1.59928100 -0.00000200 0.00000900 0.05030500 0.06659900 -0.09686100
45 5.51180600 -0.00000200 0.00000600 -0.83754300 0.00000000 0.00000000
46 0.19685000 0.00000300 -0.00000200 -0.34822500 0.00001500 -0.00000200
47 0.00000000 0.00000000 0.00000000 0.00000000 0.00000000 -1.57079600
48 -3.30740400 24.45101500 -2.33000000 -0.00438200 0.00562600 -3.13695300
49 -1.14466242 44.41563606 -7.28066136 -0.08941348 0.25874687 -1.52818671
50 4.99273237 5.61610749 -2.65926932 0.64655962 1.26337842 2.23356208
51 1.12932600 -6.48943500 -1.39556600 2.79767454 0.25777619 -1.95165874
time 15
0 -0.00000100 7.45008900 -27.50902600 0.00000000 0.00000000 0.00003100
1 -0.00000200 0.00000000 0.00000000 1.57074300 -1.56713700 -1.57074300
2 4.25546800 -0.33518300 -0.00000200 0.00000000 0.00000000 -0.12484800
3 7.43124800 1.49647700 0.00000200 0.00000000 0.00000000 0.24545000
4 5.27847900 0.16554100 0.00000100 0.00000000 0.00000000 0.04851100
5 2.57162200 -13.89860700 1.51929800 1.97586400 1.15990900 -1.29878600
6 -6.21448200 -0.00000700 -0.00002700 3.13196917 -1.06705330 2.17779733
7 11.94488200 0.00000000 0.00000100 -1.63076805 -0.34624047 1.63728862
8 10.62018100 0.00000200 0.00000000 -0.52800623 0.03402383 2.76833003
9 -4.75110600 -0.69449400 0.83057700 0.22568400 -0.33047300 0.17652300
10 -1.68806800 0.00004600 -0.00003200 0.02340800 -0.00797900 0.19923300
11 -1.33614000 0.00005700 -0.00001200 0.01900200 0.01823200 -0.20965600
12 -4.82049400 -0.50946000 -0.22475900 0.15830900 -0.24430600 0.16574500
13 -1.82699200 -0.00006400 0.00000600 -0.03675300 0.01694200 0.13526600
14 -1.43657300 0.00000600 0.00000200 -0.07209300 -0.02918200 1.09493100
15 -3.99235500 -0.89118800 -1.82790900 -0.14912700 -0.09109400 -0.06426300
16 -1.40591800 -0.00002500 -0.00000300 0.01713000 -0.02394900 0.25439400
17 -1.17535800 0.00012800 -0.00002000 0.00109800 0.06796300 -0.07953600
18 -4.52675100 -0.69057500 -1.12074400 -0.04485800 -0.15560900 0.07297300
19 -1.74403800 0.00003300 -0.00000800 0.00771800 -0.02851600 0.14445500
20 -1.36877100 0.00002500 0.00000200 -0.17476200 -0.10676900 0.91238500
21 -1.87480000 -0.93512500 0.99917400 2.59450300 0.73691000 1.07456600
22 -1.52345300 0.00003200 0.00003100 -0.01433300 0.00894200 0.01892900
23 -1.59928500 0.00000400 0.00001600 0.03988100 0.01579900 -0.39821300
24 5.51181500 0.00000800 -0.00000100 0.86469372 -0.00046201 -3.14071430
25 0.19684700 -0.00000100 0.00000300 2.79340683 -0.00097859 -3.14131728
26 2.82419600 -15.55495700 -1.64370500 1.97586200 1.15990900 1.84280300
27 6.21448500 0.00000600 0.00002000 0.17126418 0.66902636 -1.27054988
28 11.94488500 -0.00002900 -0.00019400 0.24435125 -0.31127426 -1.63136451
29 10.62016600 0.00000200 0.00001000 -2.62093261 -0.68678834 0.30881667
30 4.75115600 0.69437600 -0.83047300 0.03879200 -0.19804500 0.65401300
31 1.68806500 -0.00002600 0.00000200 0.00892000 -0.02304800 1.06998800
32 1.33615100 -0.00005100 -0.00000900 0.03375600 -0.01901100 -0.68693900
33 4.82051300 0.50934000 0.22486500 -0.12275600 -0.09826900 0.99657500
34 1.82699600 0.00006600 0.00000800 -0.01519300 0.03755700 0.88944700
35 1.43657700 -0.00001000 0.00000700 0.01505700 0.00194300 -0.85696800
36 3.99235300 0.89108700 1.82799400 -0.27752100 0.07965200 1.30807300
37 1.40591800 0.00002100 -0.00000700 0.02259200 -0.01894000 0.00289400
38 1.17536900 -0.00013100 0.00000200 -0.01238200 0.12260400 -0.14636500
39 4.52675600 0.69046000 1.12084200 -0.17456500 0.02416900 1.23073800
40 1.74404100 -0.00003100 -0.00000200 -0.00084600 -0.02953200 0.43944700
41 1.36876300 -0.00003100 -0.00001700 -0.28730500 -0.09722100 -0.74619600
42 1.87485500 0.93508100 -0.99913000 2.02277800 0.69056000 0.67886000
43 1.45054417 -0.06018300 0.09121700 -0.30488300 -0.32213100 1.02281700
44 1.59928100 -0.00000200 0.00000900 0.05030500 0.06659900 -0.09686100
45 5.51180600 -0.00000200 0.00000600 -0.83754300 0.00000000 0.00000000
46 0.19685000 0.00000300 -0.00000200 -0.34822500 0.00001500 -0.00000200
47 0.00000000 0.00000000 0.00000000 0.00000000 0.00000000 -1.57079600
48 -3.30740400 24.45101500 -2.33000000 -0.00438200 0.00562600 -3.13695300
49 -0.95016399 44.40900257 -7.25915454 -0.09874173 0.27077788 -1.53532453
50 4.99273066 5.61610783 -2.65927000 0.64643542 1.26338941 2.23352892
51 1.12932600 -6.48943500 -1.39556600 2.79767454 0.25777619 -1.95165874
end
