version 1
nodes
0 "root" -1
1 "pelvis" 0
2 "spine_01" 1
3 "spine_02" 2
4 "spine_03" 3
5 "clavicle_r" 4
6 "upperarm_r" 5
7 "lowerarm_r" 6
8 "hand_r" 7
9 "index_01_r" 8
10 "index_02_r" 9
11 "index_03_r" 10
12 "middle_01_r" 8
13 "middle_02_r" 12
14 "middle_03_r" 13
15 "pinky_01_r" 8
16 "pinky_02_r" 15
17 "pinky_03_r" 16
18 "ring_01_r" 8
19 "ring_02_r" 18
20 "ring_03_r" 19
21 "thumb_01_r" 8
22 "thumb_02_r" 21
23 "thumb_03_r" 22
24 "BaseMesh" 8
25 "Barrel_release" 24
26 "Trigger" 24
27 "Barrel" 24
28 "Bullet.001" 27
29 "Bullet.002" 27
30 "rhand_ikTarget" 24
31 "LHand_IKtarget" 24
32 "lowerarm_twist_01_r" 7
33 "upperarm_twist_01_r" 6
34 "clavicle_l" 4
35 "upperarm_l" 34
36 "lowerarm_l" 35
37 "hand_l" 36
38 "index_01_l" 37
39 "index_02_l" 38
40 "index_03_l" 39
41 "middle_01_l" 37
42 "middle_02_l" 41
43 "middle_03_l" 42
44 "pinky_01_l" 37
45 "pinky_02_l" 44
46 "pinky_03_l" 45
47 "ring_01_l" 37
48 "ring_02_l" 47
49 "ring_03_l" 48
50 "thumb_01_l" 37
51 "thumb_02_l" 50
52 "thumb_03_l" 51
53 "BaseLeftMesh" 37
54 "Barrel_releaseLeft" 53
55 "TriggerLeft" 53
56 "BarrelLeft" 53
57 "BulletLeft.001" 56
58 "BulletLeft.002" 56
59 "lowerarm_twist_01_l" 36
60 "upperarm_twist_01_l" 35
61 "cam_driver" -1
end
skeleton
time 0
0 -0.00000100 7.45008900 -27.50902600 0.00000000 0.00000000 0.00003100
1 -0.00000200 0.00000000 0.00000000 1.57074700 -1.56714200 -1.57074700
2 4.25546500 -0.33518400 -0.00000200 0.00000000 0.00000000 -0.12484800
3 7.43125000 1.49647900 0.00000200 0.00000000 0.00000000 0.24545000
4 5.27847900 0.16554300 0.00000100 0.00000000 0.00000000 0.04851100
5 -9.34318400 -9.82867000 1.48897300 1.97586600 1.15990900 -1.29878500
6 -6.21447800 -0.00001000 -0.00002700 -2.35157800 -0.50856800 1.69662900
7 11.94488900 0.00000000 0.00000000 -0.23866000 -0.34892400 1.61485400
8 10.62019000 0.00000000 0.00000000 0.88072500 0.37549500 -3.10303300
9 -4.75111000 -0.69449400 0.83057900 0.19013700 -0.19986900 0.44151000
10 -1.68807600 0.00004300 -0.00003100 0.02301200 -0.00893700 0.23900300
11 -1.33614300 0.00005300 -0.00001000 0.02378900 0.01132500 0.10905500
12 -4.82049600 -0.50945900 -0.22476100 -0.50006700 -0.22016700 1.51512600
13 -1.82699200 -0.00007200 0.00000800 -0.01037100 0.03913100 1.01349300
14 -1.43657300 0.00000800 0.00000400 -0.06013400 -0.04938400 0.79162700
15 -3.99235900 -0.89118600 -1.82791000 -0.65908400 0.34980400 2.08680100
16 -1.40592200 -0.00002700 0.00000000 0.01705600 -0.02407900 0.25961700
17 -1.17535800 0.00012800 -0.00002100 0.04564400 0.05036800 0.64063400
18 -4.52675200 -0.69057500 -1.12074400 -0.70136900 0.10096500 1.93468300
19 -1.74403800 0.00003300 -0.00000400 -0.00856500 -0.02830800 0.70440700
20 -1.36877400 0.00002500 0.00000400 0.03266700 0.04101200 0.56827500
21 -1.71880200 -1.28270400 0.93153400 1.72294100 0.51883700 0.85815300
22 -1.52344900 0.00003400 0.00003100 0.07259500 -0.05759400 0.71774800
23 -1.59927600 0.00000800 0.00001500 -0.06457100 -0.05937700 0.59775600
24 -11.98750500 -3.54696600 3.45870100 -0.18319400 0.21726400 0.20892600
25 3.65343300 0.03132500 1.21165300 0.00000000 0.00000200 0.00000000
26 5.47071200 -0.00969600 -1.15548600 0.00000000 0.00000200 -0.00000100
27 -0.15673800 -0.00969100 -0.65243100 0.00000000 0.00000200 0.00000000
28 1.78860700 0.72573000 1.30873600 0.00000000 0.00000000 0.00000000
29 1.78860900 -0.65262200 1.31042100 0.00000000 0.00000000 0.00000000
30 12.91507600 1.09258500 -0.49989700 -0.45060500 0.96097800 1.06727700
31 14.18015000 -20.41942200 -5.12589500 -2.70012700 0.66249300 -1.50086200
32 5.51182400 0.00000800 -0.00000400 2.24315300 0.00000000 -3.14159231
33 0.19684600 -0.00000100 0.00000400 2.79340700 0.00000600 -3.14157700
34 -9.34318800 -9.82867000 -1.48897900 1.97586200 1.15991000 1.84280300
35 6.21448500 0.00001000 0.00002000 -0.63664300 0.46488600 -1.28808900
36 11.94488500 -0.00003200 -0.00019900 -0.36609400 -0.34464200 -1.74221200
37 10.62016900 -0.00000200 0.00000800 -2.01312800 -0.20643500 -0.13389600
38 4.75116500 0.69437600 -0.83047400 0.26696000 -0.32298800 0.34388100
39 1.68806100 -0.00002400 0.00000200 0.02386000 -0.00658700 0.13842300
40 1.33615100 -0.00005000 -0.00001000 0.00169400 -0.03868600 0.32561900
41 4.82051700 0.50934200 0.22486600 -0.47278700 -0.28849100 1.55482800
42 1.82700300 0.00006200 0.00001000 -0.00707500 0.03986300 1.09883200
43 1.43658100 -0.00000600 0.00001000 0.00705100 -0.01338400 0.35840500
44 3.99235500 0.89109000 1.82799500 -0.68725100 0.21281300 2.13070400
45 1.40592200 0.00003100 -0.00000400 0.01473700 -0.02552000 0.35338100
46 1.17536200 -0.00013200 0.00000400 0.05937100 0.10805400 0.45923700
47 4.52676200 0.69046800 1.12084200 -0.60577200 -0.00516400 1.91912100
48 1.74404100 -0.00002700 0.00000100 -0.01568800 -0.02510500 0.97108200
49 1.36876300 -0.00003100 -0.00002000 0.02476100 0.15669200 -0.02767400
50 1.87486300 0.93508300 -0.99912900 2.10190700 0.32057400 1.26810200
51 1.52345700 -0.00003100 0.00000000 -0.45478400 -0.09259900 0.70777600
52 1.59927700 -0.00000400 0.00001000 0.08269700 -0.01172200 0.96681100
53 12.37255400 3.21341100 -2.53611600 3.04348400 -0.10787100 -3.04832300
54 3.65469000 -0.19993500 1.21672500 -0.00000100 0.00000000 0.00000000
55 5.47071800 -0.00968800 -1.15548900 -0.00000100 0.00000000 0.00000000
56 -0.15673600 -0.00968900 -0.65243200 -0.00000100 0.00000000 0.00000000
57 1.80230300 0.50251100 1.31199700 0.00000000 0.00000000 0.00000000
58 1.80230300 -0.88462200 1.30344000 0.00000000 0.00000000 0.00003700
59 5.51180800 -0.00000600 0.00000400 -0.23579700 0.00000500 0.00000700
60 0.19684600 0.00000600 0.00000000 -0.34822500 0.00001500 -0.00000200
61 0.00000000 0.00000000 0.00000000 0.00000000 0.00000000 -1.57079600
time 1
0 -0.00000100 7.45008900 -27.50902600 0.00000000 0.00000000 0.00003100
1 -0.00000200 0.00000000 0.00000000 1.57074700 -1.56714200 -1.57074700
2 4.25546500 -0.33518400 -0.00000200 0.00000000 0.00000000 -0.12484800
3 7.43125000 1.49647900 0.00000200 0.00000000 0.00000000 0.24545000
4 5.27847900 0.16554300 0.00000100 0.00000000 0.00000000 0.04851100
5 -8.86465400 -9.60564400 1.52417400 1.97586600 1.15990900 -1.29878500
6 -6.21447800 -0.00001000 -0.00002700 -2.42123400 -0.55243300 1.73547900
7 11.94488900 0.00000000 0.00000000 -0.27667400 -0.34542600 1.72638400
8 10.62019000 0.00000000 0.00000000 0.84711700 0.38789200 3.01699200
9 -4.75111000 -0.69449400 0.83057900 0.19013700 -0.19986900 0.44151000
10 -1.68807600 0.00004300 -0.00003100 0.02301200 -0.00893700 0.23900300
11 -1.33614300 0.00005300 -0.00001000 0.02378900 0.01132500 0.10905500
12 -4.82049600 -0.50945900 -0.22476100 -0.50006700 -0.22016700 1.51512600
13 -1.82699200 -0.00007200 0.00000800 -0.01037100 0.03913100 1.01349300
14 -1.43657300 0.00000800 0.00000400 -0.06013400 -0.04938400 0.79162700
15 -3.99235900 -0.89118600 -1.82791000 -0.65908400 0.34980400 2.08680100
16 -1.40592200 -0.00002700 0.00000000 0.01705600 -0.02407900 0.25961700
17 -1.17535800 0.00012800 -0.00002100 0.04564400 0.05036800 0.64063400
18 -4.52675200 -0.69057500 -1.12074400 -0.70136900 0.10096500 1.93468300
19 -1.74403800 0.00003300 -0.00000400 -0.00856500 -0.02830800 0.70440700
20 -1.36877400 0.00002500 0.00000400 0.03266700 0.04101200 0.56827500
21 -1.71880200 -1.28270400 0.93153400 1.72294100 0.51883700 0.85815300
22 -1.52344900 0.00003400 0.00003100 0.07259500 -0.05759400 0.71774800
23 -1.59927600 0.00000800 0.00001500 -0.06457100 -0.05937700 0.59775600
24 -11.98748500 -3.54697500 3.45871000 -0.18319400 0.21726400 0.20892600
25 3.65343300 0.03132500 1.21165300 0.00000000 0.00000200 0.00000000
26 5.47071200 -0.00969600 -1.15548600 0.00000000 0.00000200 -0.00000100
27 -0.15673800 -0.00969100 -0.65243100 0.00000000 0.00000200 0.00000000
28 1.78860700 0.72573000 1.30873600 0.00000000 0.00000000 0.00000000
29 1.78860900 -0.65262200 1.31042100 0.00000000 0.00000000 0.00000000
30 12.91507600 1.09258500 -0.49989700 -0.45060500 0.96097800 1.06727700
31 14.89065500 -19.70058800 -5.43032500 -2.67778200 0.65817100 -1.45481500
32 5.51182400 0.00000800 -0.00000400 2.24315300 0.00000000 -3.14159231
33 0.19684600 -0.00000100 0.00000400 2.79340700 0.00000600 -3.14157700
34 -8.86184800 -9.60734800 -1.52145100 1.97586200 1.15991000 1.84280300
35 6.21448500 0.00001000 0.00002000 -0.61348400 0.49594100 -1.26122300
36 11.94488500 -0.00003200 -0.00019900 -0.34921600 -0.34150600 -1.79239400
37 10.62016900 -0.00000200 0.00000800 -2.02131400 -0.22109400 -0.03022800
38 4.75116500 0.69437600 -0.83047400 0.26696000 -0.32298800 0.34388100
39 1.68806100 -0.00002400 0.00000200 0.02386000 -0.00658700 0.13842300
40 1.33615100 -0.00005000 -0.00001000 0.00169400 -0.03868600 0.32561900
41 4.82051700 0.50934200 0.22486600 -0.47278700 -0.28849100 1.55482800
42 1.82700300 0.00006200 0.00001000 -0.00707500 0.03986300 1.09883200
43 1.43658100 -0.00000600 0.00001000 0.00705100 -0.01338400 0.35840500
44 3.99235500 0.89109000 1.82799500 -0.68725100 0.21281300 2.13070400
45 1.40592200 0.00003100 -0.00000400 0.01473700 -0.02552000 0.35338100
46 1.17536200 -0.00013200 0.00000400 0.05937100 0.10805400 0.45923700
47 4.52676200 0.69046800 1.12084200 -0.60577200 -0.00516400 1.91912100
48 1.74404100 -0.00002700 0.00000100 -0.01568800 -0.02510500 0.97108200
49 1.36876300 -0.00003100 -0.00002000 0.02476100 0.15669200 -0.02767400
50 1.87486300 0.93508300 -0.99912900 2.10190700 0.32057400 1.26810200
51 1.52345700 -0.00003100 0.00000000 -0.45478400 -0.09259900 0.70777600
52 1.59927700 -0.00000400 0.00001000 0.08269700 -0.01172200 0.96681100
53 12.37255400 3.21341100 -2.53611600 3.04348400 -0.10787100 -3.04832300
54 3.65469000 -0.19993500 1.21672500 -0.00000100 0.00000000 0.00000000
55 5.47071800 -0.00968800 -1.15548900 -0.00000100 0.00000000 0.00000000
56 -0.15673600 -0.00968900 -0.65243200 -0.00000100 0.00000000 0.00000000
57 1.80230300 0.50251100 1.31199700 0.00000000 0.00000000 0.00000000
58 1.80230300 -0.88462200 1.30344000 0.00000000 0.00000000 0.00003700
59 5.51180800 -0.00000600 0.00000400 -0.23579700 0.00000500 0.00000700
60 0.19684600 0.00000600 0.00000000 -0.34822500 0.00001500 -0.00000200
61 0.00000000 0.00000000 0.00000000 0.00000000 0.00000000 -1.57079600
time 2
0 -0.00000100 7.45008900 -27.50902600 0.00000000 0.00000000 0.00003100
1 -0.00000200 0.00000000 0.00000000 1.57074700 -1.56714200 -1.57074700
2 4.25546500 -0.33518400 -0.00000200 0.00000000 0.00000000 -0.12484800
3 7.43125000 1.49647900 0.00000200 0.00000000 0.00000000 0.24545000
4 5.27847900 0.16554300 0.00000100 0.00000000 0.00000000 0.04851100
5 -7.56577800 -9.00029700 1.61972000 1.97586600 1.15990900 -1.29878500
6 -6.21447800 -0.00001000 -0.00002700 -2.57606600 -0.61306400 1.82435600
7 11.94488900 0.00000000 0.00000000 -0.35450100 -0.32478700 1.96199700
8 10.62019000 0.00000000 0.00000000 0.76805300 0.35958500 2.61842100
9 -4.75111000 -0.69449400 0.83057900 0.19013700 -0.19986900 0.44151000
10 -1.68807600 0.00004300 -0.00003100 0.02301200 -0.00893700 0.23900300
11 -1.33614300 0.00005300 -0.00001000 0.02378900 0.01132500 0.10905500
12 -4.82049600 -0.50945900 -0.22476100 -0.50006700 -0.22016700 1.51512600
13 -1.82699200 -0.00007200 0.00000800 -0.01037100 0.03913100 1.01349300
14 -1.43657300 0.00000800 0.00000400 -0.06013400 -0.04938400 0.79162700
15 -3.99235900 -0.89118600 -1.82791000 -0.65908400 0.34980400 2.08680100
16 -1.40592200 -0.00002700 0.00000000 0.01705600 -0.02407900 0.25961700
17 -1.17535800 0.00012800 -0.00002100 0.04564400 0.05036800 0.64063400
18 -4.52675200 -0.69057500 -1.12074400 -0.70136900 0.10096500 1.93468300
19 -1.74403800 0.00003300 -0.00000400 -0.00856500 -0.02830800 0.70440700
20 -1.36877400 0.00002500 0.00000400 0.03266700 0.04101200 0.56827500
21 -1.71880200 -1.28270400 0.93153400 1.72294100 0.51883700 0.85815300
22 -1.52344900 0.00003400 0.00003100 0.07259500 -0.05759400 0.71774800
23 -1.59927600 0.00000800 0.00001500 -0.06457100 -0.05937700 0.59775600
24 -11.98737800 -3.54695900 3.45875500 -0.18319400 0.21726400 0.20892600
25 3.65343300 0.03132500 1.21165300 0.00000000 0.00000200 0.00000000
26 5.47071200 -0.00969600 -1.15548600 0.00000000 0.00000200 -0.00000100
27 -0.15673800 -0.00969100 -0.65243100 0.00000000 0.00000200 0.00000000
28 1.78860700 0.72573000 1.30873600 0.00000000 0.00000000 0.00000000
29 1.78860900 -0.65262200 1.31042100 0.00000000 0.00000000 0.00000000
30 12.91507600 1.09258500 -0.49989700 -0.45060500 0.96097800 1.06727700
31 15.60438100 -18.03947100 -6.41543400 -2.63764900 0.66106300 -1.37101300
32 5.51182400 0.00000800 -0.00000400 2.24315300 0.00000000 -3.14159231
33 0.19684600 -0.00000100 0.00000400 2.79340700 0.00000600 -3.14157700
34 -7.55536400 -9.00662400 -1.60959200 1.97586200 1.15991000 1.84280300
35 6.21448500 0.00001000 0.00002000 -0.57266800 0.54207800 -1.21902200
36 11.94488500 -0.00003200 -0.00019900 -0.31502200 -0.33236200 -1.89585500
37 10.62016900 -0.00000200 0.00000800 -2.05335000 -0.25386000 0.25436800
38 4.75116500 0.69437600 -0.83047400 0.26696000 -0.32298800 0.34388100
39 1.68806100 -0.00002400 0.00000200 0.02386000 -0.00658700 0.13842300
40 1.33615100 -0.00005000 -0.00001000 0.00169400 -0.03868600 0.32561900
41 4.82051700 0.50934200 0.22486600 -0.47278700 -0.28849100 1.55482800
42 1.82700300 0.00006200 0.00001000 -0.00707500 0.03986300 1.09883200
43 1.43658100 -0.00000600 0.00001000 0.00705100 -0.01338400 0.35840500
44 3.99235500 0.89109000 1.82799500 -0.68725100 0.21281300 2.13070400
45 1.40592200 0.00003100 -0.00000400 0.01473700 -0.02552000 0.35338100
46 1.17536200 -0.00013200 0.00000400 0.05937100 0.10805400 0.45923700
47 4.52676200 0.69046800 1.12084200 -0.60577200 -0.00516400 1.91912100
48 1.74404100 -0.00002700 0.00000100 -0.01568800 -0.02510500 0.97108200
49 1.36876300 -0.00003100 -0.00002000 0.02476100 0.15669200 -0.02767400
50 1.87486300 0.93508300 -0.99912900 2.10190700 0.32057400 1.26810200
51 1.52345700 -0.00003100 0.00000000 -0.45478400 -0.09259900 0.70777600
52 1.59927700 -0.00000400 0.00001000 0.08269700 -0.01172200 0.96681100
53 12.37255400 3.21341100 -2.53611600 3.04348400 -0.10787100 -3.04832300
54 3.65469000 -0.19993500 1.21672500 -0.00000100 0.00000000 0.00000000
55 5.47071800 -0.00968800 -1.15548900 -0.00000100 0.00000000 0.00000000
56 -0.15673600 -0.00968900 -0.65243200 -0.00000100 0.00000000 0.00000000
57 1.80230300 0.50251100 1.31199700 0.00000000 0.00000000 0.00000000
58 1.80230300 -0.88462200 1.30344000 0.00000000 0.00000000 0.00003700
59 5.51180800 -0.00000600 0.00000400 -0.23579700 0.00000500 0.00000700
60 0.19684600 0.00000600 0.00000000 -0.34822500 0.00001500 -0.00000200
61 0.00000000 0.00000000 0.00000000 0.00000000 0.00000000 -1.57079600
time 3
0 -0.00000100 7.45008900 -27.50902600 0.00000000 0.00000000 0.00003100
1 -0.00000200 0.00000000 0.00000000 1.57074700 -1.56714200 -1.57074700
2 4.25546500 -0.33518400 -0.00000200 0.00000000 0.00000000 -0.12484800
3 7.43125000 1.49647900 0.00000200 0.00000000 0.00000000 0.24545000
4 5.27847900 0.16554300 0.00000100 0.00000000 0.00000000 0.04851100
5 -5.65164400 -8.10820700 1.76052200 1.97586600 1.15990900 -1.29878500
6 -6.21447800 -0.00001000 -0.00002700 -2.66825600 -0.61050600 1.87769200
7 11.94488900 0.00000000 0.00000000 -0.41627500 -0.29318300 2.16454300
8 10.62019000 0.00000000 0.00000000 0.74257900 0.18204100 2.17581100
9 -4.75111000 -0.69449400 0.83057900 0.19013700 -0.19986900 0.44151000
10 -1.68807600 0.00004300 -0.00003100 0.02301200 -0.00893700 0.23900300
11 -1.33614300 0.00005300 -0.00001000 0.02378900 0.01132500 0.10905500
12 -4.82049600 -0.50945900 -0.22476100 -0.50006700 -0.22016700 1.51512600
13 -1.82699200 -0.00007200 0.00000800 -0.01037100 0.03913100 1.01349300
14 -1.43657300 0.00000800 0.00000400 -0.06013400 -0.04938400 0.79162700
15 -3.99235900 -0.89118600 -1.82791000 -0.65908400 0.34980400 2.08680100
16 -1.40592200 -0.00002700 0.00000000 0.01705600 -0.02407900 0.25961700
17 -1.17535800 0.00012800 -0.00002100 0.04564400 0.05036800 0.64063400
18 -4.52675200 -0.69057500 -1.12074400 -0.70136900 0.10096500 1.93468300
19 -1.74403800 0.00003300 -0.00000400 -0.00856500 -0.02830800 0.70440700
20 -1.36877400 0.00002500 0.00000400 0.03266700 0.04101200 0.56827500
21 -1.71880200 -1.28270400 0.93153400 1.72294100 0.51883700 0.85815300
22 -1.52344900 0.00003400 0.00003100 0.07259500 -0.05759400 0.71774800
23 -1.59927600 0.00000800 0.00001500 -0.06457100 -0.05937700 0.59775600
24 -11.98705900 -3.54683900 3.45875500 -0.18319400 0.21726400 0.20892600
25 3.65343300 0.03132500 1.21165300 0.00000000 0.00000200 0.00000000
26 5.47071200 -0.00969600 -1.15548600 0.00000000 0.00000200 -0.00000100
27 -0.15673800 -0.00969100 -0.65243100 0.00000000 0.00000200 0.00000000
28 1.78860700 0.72573000 1.30873600 0.00000000 0.00000000 0.00000000
29 1.78860900 -0.65262200 1.31042100 0.00000000 0.00000000 0.00000000
30 12.91507600 1.09258500 -0.49989700 -0.45060500 0.96097800 1.06727700
31 14.38963200 -16.77285800 -7.41539300 -2.60978900 0.67705200 -1.34258100
32 5.51182400 0.00000800 -0.00000400 2.24315300 0.00000000 -3.14159231
33 0.19684600 -0.00000100 0.00000400 2.79340700 0.00000600 -3.14157700
34 -5.63001300 -8.12134400 -1.73948100 1.97586200 1.15991000 1.84280300
35 6.21448500 0.00001000 0.00002000 -0.57709200 0.53059100 -1.24102000
36 11.94488500 -0.00003200 -0.00019900 -0.29260200 -0.32442400 -1.96519500
37 10.62016900 -0.00000200 0.00000800 -2.11386900 -0.27221300 0.68142500
38 4.75116500 0.69437600 -0.83047400 0.26696000 -0.32298800 0.34388100
39 1.68806100 -0.00002400 0.00000200 0.02386000 -0.00658700 0.13842300
40 1.33615100 -0.00005000 -0.00001000 0.00169400 -0.03868600 0.32561900
41 4.82051700 0.50934200 0.22486600 -0.47278700 -0.28849100 1.55482800
42 1.82700300 0.00006200 0.00001000 -0.00707500 0.03986300 1.09883200
43 1.43658100 -0.00000600 0.00001000 0.00705100 -0.01338400 0.35840500
44 3.99235500 0.89109000 1.82799500 -0.68725100 0.21281300 2.13070400
45 1.40592200 0.00003100 -0.00000400 0.01473700 -0.02552000 0.35338100
46 1.17536200 -0.00013200 0.00000400 0.05937100 0.10805400 0.45923700
47 4.52676200 0.69046800 1.12084200 -0.60577200 -0.00516400 1.91912100
48 1.74404100 -0.00002700 0.00000100 -0.01568800 -0.02510500 0.97108200
49 1.36876300 -0.00003100 -0.00002000 0.02476100 0.15669200 -0.02767400
50 1.87486300 0.93508300 -0.99912900 2.10190700 0.32057400 1.26810200
51 1.52345700 -0.00003100 0.00000000 -0.45478400 -0.09259900 0.70777600
52 1.59927700 -0.00000400 0.00001000 0.08269700 -0.01172200 0.96681100
53 12.37255400 3.21341100 -2.53611600 3.04348400 -0.10787100 -3.04832300
54 3.65469000 -0.19993500 1.21672500 -0.00000100 0.00000000 0.00000000
55 5.47071800 -0.00968800 -1.15548900 -0.00000100 0.00000000 0.00000000
56 -0.15673600 -0.00968900 -0.65243200 -0.00000100 0.00000000 0.00000000
57 1.80230300 0.50251100 1.31199700 0.00000000 0.00000000 0.00000000
58 1.80230300 -0.88462200 1.30344000 0.00000000 0.00000000 0.00003700
59 5.51180800 -0.00000600 0.00000400 -0.23579700 0.00000500 0.00000700
60 0.19684600 0.00000600 0.00000000 -0.34822500 0.00001500 -0.00000200
61 0.00000000 0.00000000 0.00000000 0.00000000 0.00000000 -1.57079600
time 4
0 -0.00000100 7.45008900 -27.50902600 0.00000000 0.00000000 0.00003100
1 -0.00000200 0.00000000 0.00000000 1.57074700 -1.56714200 -1.57074700
2 4.25546500 -0.33518400 -0.00000200 0.00000000 0.00000000 -0.12484800
3 7.43125000 1.49647900 0.00000200 0.00000000 0.00000000 0.24545000
4 5.27847900 0.16554300 0.00000100 0.00000000 0.00000000 0.04851100
5 -3.32734400 -7.02495300 1.93149900 1.97586600 1.15990900 -1.29878500
6 -6.21447800 -0.00001000 -0.00002700 -2.67258000 -0.54756400 1.86918500
7 11.94488900 0.00000000 0.00000000 -0.43266200 -0.28193200 2.22230900
8 10.62019000 0.00000000 0.00000000 0.84735400 -0.06354800 1.84617300
9 -4.75111000 -0.69449400 0.83057900 0.19013700 -0.19986900 0.44151000
10 -1.68807600 0.00004300 -0.00003100 0.02301200 -0.00893700 0.23900300
11 -1.33614300 0.00005300 -0.00001000 0.02378900 0.01132500 0.10905500
12 -4.82049600 -0.50945900 -0.22476100 -0.50006700 -0.22016700 1.51512600
13 -1.82699200 -0.00007200 0.00000800 -0.01037100 0.03913100 1.01349300
14 -1.43657300 0.00000800 0.00000400 -0.06013400 -0.04938400 0.79162700
15 -3.99235900 -0.89118600 -1.82791000 -0.65908400 0.34980400 2.08680100
16 -1.40592200 -0.00002700 0.00000000 0.01705600 -0.02407900 0.25961700
17 -1.17535800 0.00012800 -0.00002100 0.04564400 0.05036800 0.64063400
18 -4.52675200 -0.69057500 -1.12074400 -0.70136900 0.10096500 1.93468300
19 -1.74403800 0.00003300 -0.00000400 -0.00856500 -0.02830800 0.70440700
20 -1.36877400 0.00002500 0.00000400 0.03266700 0.04101200 0.56827500
21 -1.71880200 -1.28270400 0.93153400 1.72294100 0.51883700 0.85815300
22 -1.52344900 0.00003400 0.00003100 0.07259500 -0.05759400 0.71774800
23 -1.59927600 0.00000800 0.00001500 -0.06457100 -0.05937700 0.59775600
24 -11.98691400 -3.54675500 3.45853000 -0.18319400 0.21726400 0.20892600
25 3.65343300 0.03132500 1.21165300 0.00000000 0.00000200 0.00000000
26 5.47071200 -0.00969600 -1.15548600 0.00000000 0.00000200 -0.00000100
27 -0.15673800 -0.00969100 -0.65243100 0.00000000 0.00000200 0.00000000
28 1.78860700 0.72573000 1.30873600 0.00000000 0.00000000 0.00000000
29 1.78860900 -0.65262200 1.31042100 0.00000000 0.00000000 0.00000000
30 12.91507600 1.09258500 -0.49989700 -0.45060500 0.96097800 1.06727700
31 11.75820400 -16.55812800 -6.69796500 -2.64446600 0.64613500 -1.41280900
32 5.51182400 0.00000800 -0.00000400 2.24315300 0.00000000 -3.14159231
33 0.19684600 -0.00000100 0.00000400 2.79340700 0.00000600 -3.14157700
34 -3.29208900 -7.04636200 -1.89720500 1.97586200 1.15991000 1.84280300
35 6.21448500 0.00001000 0.00002000 -0.58525900 0.45613800 -1.32023300
36 11.94488500 -0.00003200 -0.00019900 -0.31237500 -0.33154300 -1.90407800
37 10.62016900 -0.00000200 0.00000800 -2.18131300 -0.26574300 1.04454900
38 4.75116500 0.69437600 -0.83047400 0.26696000 -0.32298800 0.34388100
39 1.68806100 -0.00002400 0.00000200 0.02386000 -0.00658700 0.13842300
40 1.33615100 -0.00005000 -0.00001000 0.00169400 -0.03868600 0.32561900
41 4.82051700 0.50934200 0.22486600 -0.47278700 -0.28849100 1.55482800
42 1.82700300 0.00006200 0.00001000 -0.00707500 0.03986300 1.09883200
43 1.43658100 -0.00000600 0.00001000 0.00705100 -0.01338400 0.35840500
44 3.99235500 0.89109000 1.82799500 -0.68725100 0.21281300 2.13070400
45 1.40592200 0.00003100 -0.00000400 0.01473700 -0.02552000 0.35338100
46 1.17536200 -0.00013200 0.00000400 0.05937100 0.10805400 0.45923700
47 4.52676200 0.69046800 1.12084200 -0.60577200 -0.00516400 1.91912100
48 1.74404100 -0.00002700 0.00000100 -0.01568800 -0.02510500 0.97108200
49 1.36876300 -0.00003100 -0.00002000 0.02476100 0.15669200 -0.02767400
50 1.87486300 0.93508300 -0.99912900 2.10190700 0.32057400 1.26810200
51 1.52345700 -0.00003100 0.00000000 -0.45478400 -0.09259900 0.70777600
52 1.59927700 -0.00000400 0.00001000 0.08269700 -0.01172200 0.96681100
53 12.37255400 3.21341100 -2.53611600 3.04348400 -0.10787100 -3.04832300
54 3.65469000 -0.19993500 1.21672500 -0.00000100 0.00000000 0.00000000
55 5.47071800 -0.00968800 -1.15548900 -0.00000100 0.00000000 0.00000000
56 -0.15673600 -0.00968900 -0.65243200 -0.00000100 0.00000000 0.00000000
57 1.80230300 0.50251100 1.31199700 0.00000000 0.00000000 0.00000000
58 1.80230300 -0.88462200 1.30344000 0.00000000 0.00000000 0.00003700
59 5.51180800 -0.00000600 0.00000400 -0.23579700 0.00000500 0.00000700
60 0.19684600 0.00000600 0.00000000 -0.34822500 0.00001500 -0.00000200
61 0.00000000 0.00000000 0.00000000 0.00000000 0.00000000 -1.57079600
time 5
0 -0.00000100 7.45008900 -27.50902600 0.00000000 0.00000000 0.00003100
1 -0.00000200 0.00000000 0.00000000 1.57074700 -1.56714200 -1.57074700
2 4.25546500 -0.33518400 -0.00000200 0.00000000 0.00000000 -0.12484800
3 7.43125000 1.49647900 0.00000200 0.00000000 0.00000000 0.24545000
4 5.27847900 0.16554300 0.00000100 0.00000000 0.00000000 0.04851100
5 -0.79795700 -5.84611700 2.11756100 1.97586600 1.15990900 -1.29878500
6 -6.21447800 -0.00001000 -0.00002700 -2.71691800 -0.46664600 1.83290700
7 11.94488900 0.00000000 0.00000000 -0.40539000 -0.29994900 2.12723800
8 10.62019000 0.00000000 0.00000000 0.97989200 -0.20522800 1.65917000
9 -4.75111000 -0.69449400 0.83057900 0.19013700 -0.19986900 0.44151000
10 -1.68807600 0.00004300 -0.00003100 0.02301200 -0.00893700 0.23900300
11 -1.33614300 0.00005300 -0.00001000 0.02378900 0.01132500 0.10905500
12 -4.82049600 -0.50945900 -0.22476100 -0.50006700 -0.22016700 1.51512600
13 -1.82699200 -0.00007200 0.00000800 -0.01037100 0.03913100 1.01349300
14 -1.43657300 0.00000800 0.00000400 -0.06013400 -0.04938400 0.79162700
15 -3.99235900 -0.89118600 -1.82791000 -0.65908400 0.34980400 2.08680100
16 -1.40592200 -0.00002700 0.00000000 0.01705600 -0.02407900 0.25961700
17 -1.17535800 0.00012800 -0.00002100 0.04564400 0.05036800 0.64063400
18 -4.52675200 -0.69057500 -1.12074400 -0.70136900 0.10096500 1.93468300
19 -1.74403800 0.00003300 -0.00000400 -0.00856500 -0.02830800 0.70440700
20 -1.36877400 0.00002500 0.00000400 0.03266700 0.04101200 0.56827500
21 -1.71880200 -1.28270400 0.93153400 1.72294100 0.51883700 0.85815300
22 -1.52344900 0.00003400 0.00003100 0.07259500 -0.05759400 0.71774800
23 -1.59927600 0.00000800 0.00001500 -0.06457100 -0.05937700 0.59775600
24 -11.98714600 -3.54684700 3.45849700 -0.18319400 0.21726400 0.20892600
25 3.65343300 0.03132500 1.21165300 0.00000000 0.00000200 0.00000000
26 5.47071200 -0.00969600 -1.15548600 0.00000000 0.00000200 -0.00000100
27 -0.15673800 -0.00969100 -0.65243100 0.00000000 0.00000200 0.00000000
28 1.78860700 0.72573000 1.30873600 0.00000000 0.00000000 0.00000000
29 1.78860900 -0.65262200 1.31042100 0.00000000 0.00000000 0.00000000
30 12.91507600 1.09258500 -0.49989700 -0.45060500 0.96097800 1.06727700
31 10.41733000 -16.26197600 -4.74531900 -2.77021100 0.54616300 -1.52100100
32 5.51182400 0.00000800 -0.00000400 2.24315300 0.00000000 -3.14159231
33 0.19684600 -0.00000100 0.00000400 2.79340700 0.00000600 -3.14157700
34 -0.74788000 -5.87652700 -2.06884500 1.97586200 1.15991000 1.84280300
35 6.21448500 0.00001000 0.00002000 -0.50451200 0.42536000 -1.34847400
36 11.94488500 -0.00003200 -0.00019900 -0.35282000 -0.34221000 -1.78182000
37 10.62016900 -0.00000200 0.00000800 -2.24087300 -0.25643600 1.14121400
38 4.75116500 0.69437600 -0.83047400 0.26696000 -0.32298800 0.34388100
39 1.68806100 -0.00002400 0.00000200 0.02386000 -0.00658700 0.13842300
40 1.33615100 -0.00005000 -0.00001000 0.00169400 -0.03868600 0.32561900
41 4.82051700 0.50934200 0.22486600 -0.47278700 -0.28849100 1.55482800
42 1.82700300 0.00006200 0.00001000 -0.00707500 0.03986300 1.09883200
43 1.43658100 -0.00000600 0.00001000 0.00705100 -0.01338400 0.35840500
44 3.99235500 0.89109000 1.82799500 -0.68725100 0.21281300 2.13070400
45 1.40592200 0.00003100 -0.00000400 0.01473700 -0.02552000 0.35338100
46 1.17536200 -0.00013200 0.00000400 0.05937100 0.10805400 0.45923700
47 4.52676200 0.69046800 1.12084200 -0.60577200 -0.00516400 1.91912100
48 1.74404100 -0.00002700 0.00000100 -0.01568800 -0.02510500 0.97108200
49 1.36876300 -0.00003100 -0.00002000 0.02476100 0.15669200 -0.02767400
50 1.87486300 0.93508300 -0.99912900 2.10190700 0.32057400 1.26810200
51 1.52345700 -0.00003100 0.00000000 -0.45478400 -0.09259900 0.70777600
52 1.59927700 -0.00000400 0.00001000 0.08269700 -0.01172200 0.96681100
53 12.37255400 3.21341100 -2.53611600 3.04348400 -0.10787100 -3.04832300
54 3.65469000 -0.19993500 1.21672500 -0.00000100 0.00000000 0.00000000
55 5.47071800 -0.00968800 -1.15548900 -0.00000100 0.00000000 0.00000000
56 -0.15673600 -0.00968900 -0.65243200 -0.00000100 0.00000000 0.00000000
57 1.80230300 0.50251100 1.31199700 0.00000000 0.00000000 0.00000000
58 1.80230300 -0.88462200 1.30344000 0.00000000 0.00000000 0.00003700
59 5.51180800 -0.00000600 0.00000400 -0.23579700 0.00000500 0.00000700
60 0.19684600 0.00000600 0.00000000 -0.34822500 0.00001500 -0.00000200
61 0.00000000 0.00000000 0.00000000 0.00000000 0.00000000 -1.57079600
time 6
0 -0.00000100 7.45008900 -27.50902600 0.00000000 0.00000000 0.00003100
1 -0.00000200 0.00000000 0.00000000 1.57074700 -1.56714200 -1.57074700
2 4.25546500 -0.33518400 -0.00000200 0.00000000 0.00000000 -0.12484800
3 7.43125000 1.49647900 0.00000200 0.00000000 0.00000000 0.24545000
4 5.27847900 0.16554300 0.00000100 0.00000000 0.00000000 0.04851100
5 1.73142900 -4.66728100 2.30362400 1.97586600 1.15990900 -1.29878500
6 -6.21447800 -0.00001000 -0.00002700 -2.81665400 -0.41983600 1.79445200
7 11.94488900 0.00000000 0.00000000 -0.34718100 -0.32751000 1.93929300
8 10.62019000 0.00000000 0.00000000 1.04858200 -0.23770800 1.65179900
9 -4.75111000 -0.69449400 0.83057900 0.19013700 -0.19986900 0.44151000
10 -1.68807600 0.00004300 -0.00003100 0.02301200 -0.00893700 0.23900300
11 -1.33614300 0.00005300 -0.00001000 0.02378900 0.01132500 0.10905500
12 -4.82049600 -0.50945900 -0.22476100 -0.50006700 -0.22016700 1.51512600
13 -1.82699200 -0.00007200 0.00000800 -0.01037100 0.03913100 1.01349300
14 -1.43657300 0.00000800 0.00000400 -0.06013400 -0.04938400 0.79162700
15 -3.99235900 -0.89118600 -1.82791000 -0.65908400 0.34980400 2.08680100
16 -1.40592200 -0.00002700 0.00000000 0.01705600 -0.02407900 0.25961700
17 -1.17535800 0.00012800 -0.00002100 0.04564400 0.05036800 0.64063400
18 -4.52675200 -0.69057500 -1.12074400 -0.70136900 0.10096500 1.93468300
19 -1.74403800 0.00003300 -0.00000400 -0.00856500 -0.02830800 0.70440700
20 -1.36877400 0.00002500 0.00000400 0.03266700 0.04101200 0.56827500
21 -1.71880200 -1.28270400 0.93153400 1.72294100 0.51883700 0.85815300
22 -1.52344900 0.00003400 0.00003100 0.07259500 -0.05759400 0.71774800
23 -1.59927600 0.00000800 0.00001500 -0.06457100 -0.05937700 0.59775600
24 -11.98731600 -3.54691000 3.45857800 -0.18319400 0.21726400 0.20892600
25 3.65343300 0.03132500 1.21165300 0.00000000 0.00000200 0.00000000
26 5.47071200 -0.00969600 -1.15548600 0.00000000 0.00000200 -0.00000100
27 -0.15673800 -0.00969100 -0.65243100 0.00000000 0.00000200 0.00000000
28 1.78860700 0.72573000 1.30873600 0.00000000 0.00000000 0.00000000
29 1.78860900 -0.65262200 1.31042100 0.00000000 0.00000000 0.00000000
30 12.91507600 1.09258500 -0.49989700 -0.45060500 0.96097800 1.06727700
31 10.67999500 -15.67401500 -2.89962700 -2.89354000 0.35654300 -1.60323900
32 5.51182400 0.00000800 -0.00000400 2.24315300 0.00000000 -3.14159231
33 0.19684600 -0.00000100 0.00000400 2.79340700 0.00000600 -3.14157700
34 1.79633200 -4.70669400 -2.24048500 1.97586200 1.15991000 1.84280300
35 6.21448500 0.00001000 0.00002000 -0.34542700 0.43812900 -1.31499800
36 11.94488500 -0.00003200 -0.00019900 -0.38704600 -0.34740600 -1.68062000
37 10.62016900 -0.00000200 0.00000800 -2.26217800 -0.26689100 1.05560200
38 4.75116500 0.69437600 -0.83047400 0.26696000 -0.32298800 0.34388100
39 1.68806100 -0.00002400 0.00000200 0.02386000 -0.00658700 0.13842300
40 1.33615100 -0.00005000 -0.00001000 0.00169400 -0.03868600 0.32561900
41 4.82051700 0.50934200 0.22486600 -0.47278700 -0.28849100 1.55482800
42 1.82700300 0.00006200 0.00001000 -0.00707500 0.03986300 1.09883200
43 1.43658100 -0.00000600 0.00001000 0.00705100 -0.01338400 0.35840500
44 3.99235500 0.89109000 1.82799500 -0.68725100 0.21281300 2.13070400
45 1.40592200 0.00003100 -0.00000400 0.01473700 -0.02552000 0.35338100
46 1.17536200 -0.00013200 0.00000400 0.05937100 0.10805400 0.45923700
47 4.52676200 0.69046800 1.12084200 -0.60577200 -0.00516400 1.91912100
48 1.74404100 -0.00002700 0.00000100 -0.01568800 -0.02510500 0.97108200
49 1.36876300 -0.00003100 -0.00002000 0.02476100 0.15669200 -0.02767400
50 1.87486300 0.93508300 -0.99912900 2.10190700 0.32057400 1.26810200
51 1.52345700 -0.00003100 0.00000000 -0.45478400 -0.09259900 0.70777600
52 1.59927700 -0.00000400 0.00001000 0.08269700 -0.01172200 0.96681100
53 12.37255400 3.21341100 -2.53611600 3.04348400 -0.10787100 -3.04832300
54 3.65469000 -0.19993500 1.21672500 -0.00000100 0.00000000 0.00000000
55 5.47071800 -0.00968800 -1.15548900 -0.00000100 0.00000000 0.00000000
56 -0.15673600 -0.00968900 -0.65243200 -0.00000100 0.00000000 0.00000000
57 1.80230300 0.50251100 1.31199700 0.00000000 0.00000000 0.00000000
58 1.80230300 -0.88462200 1.30344000 0.00000000 0.00000000 0.00003700
59 5.51180800 -0.00000600 0.00000400 -0.23579700 0.00000500 0.00000700
60 0.19684600 0.00000600 0.00000000 -0.34822500 0.00001500 -0.00000200
61 0.00000000 0.00000000 0.00000000 0.00000000 0.00000000 -1.57079600
time 7
0 -0.00000100 7.45008900 -27.50902600 0.00000000 0.00000000 0.00003100
1 -0.00000200 0.00000000 0.00000000 1.57074700 -1.56714200 -1.57074700
2 4.25546500 -0.33518400 -0.00000200 0.00000000 0.00000000 -0.12484800
3 7.43125000 1.49647900 0.00000200 0.00000000 0.00000000 0.24545000
4 5.27847900 0.16554300 0.00000100 0.00000000 0.00000000 0.04851100
5 4.05573100 -3.58402700 2.47459900 1.97586600 1.15990900 -1.29878500
6 -6.21447800 -0.00001000 -0.00002700 -2.93595200 -0.42019800 1.77729000
7 11.94488900 0.00000000 0.00000000 -0.27813700 -0.34511000 1.73074500
8 10.62019000 0.00000000 0.00000000 1.04114300 -0.18175400 1.79571600
9 -4.75111000 -0.69449400 0.83057900 0.19013700 -0.19986900 0.44151000
10 -1.68807600 0.00004300 -0.00003100 0.02301200 -0.00893700 0.23900300
11 -1.33614300 0.00005300 -0.00001000 0.02378900 0.01132500 0.10905500
12 -4.82049600 -0.50945900 -0.22476100 -0.50006700 -0.22016700 1.51512600
13 -1.82699200 -0.00007200 0.00000800 -0.01037100 0.03913100 1.01349300
14 -1.43657300 0.00000800 0.00000400 -0.06013400 -0.04938400 0.79162700
15 -3.99235900 -0.89118600 -1.82791000 -0.65908400 0.34980400 2.08680100
16 -1.40592200 -0.00002700 0.00000000 0.01705600 -0.02407900 0.25961700
17 -1.17535800 0.00012800 -0.00002100 0.04564400 0.05036800 0.64063400
18 -4.52675200 -0.69057500 -1.12074400 -0.70136900 0.10096500 1.93468300
19 -1.74403800 0.00003300 -0.00000400 -0.00856500 -0.02830800 0.70440700
20 -1.36877400 0.00002500 0.00000400 0.03266700 0.04101200 0.56827500
21 -1.71880200 -1.28270400 0.93153400 1.72294100 0.51883700 0.85815300
22 -1.52344900 0.00003400 0.00003100 0.07259500 -0.05759400 0.71774800
23 -1.59927600 0.00000800 0.00001500 -0.06457100 -0.05937700 0.59775600
24 -11.98738300 -3.54692200 3.45863500 -0.18319400 0.21726400 0.20892600
25 3.65343300 0.03132500 1.21165300 0.00000000 0.00000200 0.00000000
26 5.47071200 -0.00969600 -1.15548600 0.00000000 0.00000200 -0.00000100
27 -0.15673800 -0.00969100 -0.65243100 0.00000000 0.00000200 0.00000000
28 1.78860700 0.72573000 1.30873600 0.00000000 0.00000000 0.00000000
29 1.78860900 -0.65262200 1.31042100 0.00000000 0.00000000 0.00000000
30 12.91507600 1.09258500 -0.49989700 -0.45060500 0.96097800 1.06727700
31 11.51720200 -15.14863500 -0.82519900 -2.90288200 0.10260400 -1.61991900
32 5.51182400 0.00000800 -0.00000400 2.24315300 0.00000000 -3.14159231
33 0.19684600 -0.00000100 0.00000400 2.79340700 0.00000600 -3.14157700
34 4.13425400 -3.63171200 -2.39820900 1.97586200 1.15991000 1.84280300
35 6.21448500 0.00001000 0.00002000 -0.18026200 0.42762700 -1.29387900
36 11.94488500 -0.00003200 -0.00019900 -0.42549100 -0.34933600 -1.56800300
37 10.62016900 -0.00000200 0.00000800 -2.23036000 -0.29390300 0.94595700
38 4.75116500 0.69437600 -0.83047400 0.26696000 -0.32298800 0.34388100
39 1.68806100 -0.00002400 0.00000200 0.02386000 -0.00658700 0.13842300
40 1.33615100 -0.00005000 -0.00001000 0.00169400 -0.03868600 0.32561900
41 4.82051700 0.50934200 0.22486600 -0.47278700 -0.28849100 1.55482800
42 1.82700300 0.00006200 0.00001000 -0.00707500 0.03986300 1.09883200
43 1.43658100 -0.00000600 0.00001000 0.00705100 -0.01338400 0.35840500
44 3.99235500 0.89109000 1.82799500 -0.68725100 0.21281300 2.13070400
45 1.40592200 0.00003100 -0.00000400 0.01473700 -0.02552000 0.35338100
46 1.17536200 -0.00013200 0.00000400 0.05937100 0.10805400 0.45923700
47 4.52676200 0.69046800 1.12084200 -0.60577200 -0.00516400 1.91912100
48 1.74404100 -0.00002700 0.00000100 -0.01568800 -0.02510500 0.97108200
49 1.36876300 -0.00003100 -0.00002000 0.02476100 0.15669200 -0.02767400
50 1.87486300 0.93508300 -0.99912900 2.10190700 0.32057400 1.26810200
51 1.52345700 -0.00003100 0.00000000 -0.45478400 -0.09259900 0.70777600
52 1.59927700 -0.00000400 0.00001000 0.08269700 -0.01172200 0.96681100
53 12.37255400 3.21341100 -2.53611600 3.04348400 -0.10787100 -3.04832300
54 3.65469000 -0.19993500 1.21672500 -0.00000100 0.00000000 0.00000000
55 5.47071800 -0.00968800 -1.15548900 -0.00000100 0.00000000 0.00000000
56 -0.15673600 -0.00968900 -0.65243200 -0.00000100 0.00000000 0.00000000
57 1.80230300 0.50251100 1.31199700 0.00000000 0.00000000 0.00000000
58 1.80230300 -0.88462200 1.30344000 0.00000000 0.00000000 0.00003700
59 5.51180800 -0.00000600 0.00000400 -0.23579700 0.00000500 0.00000700
60 0.19684600 0.00000600 0.00000000 -0.34822500 0.00001500 -0.00000200
61 0.00000000 0.00000000 0.00000000 0.00000000 0.00000000 -1.57079600
time 8
0 -0.00000100 7.45008900 -27.50902600 0.00000000 0.00000000 0.00003100
1 -0.00000200 0.00000000 0.00000000 1.57074700 -1.56714200 -1.57074700
2 4.25546500 -0.33518400 -0.00000200 0.00000000 0.00000000 -0.12484800
3 7.43125000 1.49647900 0.00000200 0.00000000 0.00000000 0.24545000
4 5.27847900 0.16554300 0.00000100 0.00000000 0.00000000 0.04851100
5 5.96986200 -2.69193500 2.61540400 1.97586600 1.15990900 -1.29878500
6 -6.21447800 -0.00001000 -0.00002700 -3.02916000 -0.43312900 1.76560500
7 11.94488900 0.00000000 0.00000000 -0.21318100 -0.34912800 1.54018300
8 10.62019000 0.00000000 0.00000000 1.01377300 -0.09077700 1.96853000
9 -4.75111000 -0.69449400 0.83057900 0.19013700 -0.19986900 0.44151000
10 -1.68807600 0.00004300 -0.00003100 0.02301200 -0.00893700 0.23900300
11 -1.33614300 0.00005300 -0.00001000 0.02378900 0.01132500 0.10905500
12 -4.82049600 -0.50945900 -0.22476100 -0.50006700 -0.22016700 1.51512600
13 -1.82699200 -0.00007200 0.00000800 -0.01037100 0.03913100 1.01349300
14 -1.43657300 0.00000800 0.00000400 -0.06013400 -0.04938400 0.79162700
15 -3.99235900 -0.89118600 -1.82791000 -0.65908400 0.34980400 2.08680100
16 -1.40592200 -0.00002700 0.00000000 0.01705600 -0.02407900 0.25961700
17 -1.17535800 0.00012800 -0.00002100 0.04564400 0.05036800 0.64063400
18 -4.52675200 -0.69057500 -1.12074400 -0.70136900 0.10096500 1.93468300
19 -1.74403800 0.00003300 -0.00000400 -0.00856500 -0.02830800 0.70440700
20 -1.36877400 0.00002500 0.00000400 0.03266700 0.04101200 0.56827500
21 -1.71880200 -1.28270400 0.93153400 1.72294100 0.51883700 0.85815300
22 -1.52344900 0.00003400 0.00003100 0.07259500 -0.05759400 0.71774800
23 -1.59927600 0.00000800 0.00001500 -0.06457100 -0.05937700 0.59775600
24 -11.98741000 -3.54691800 3.45865900 -0.18319400 0.21726400 0.20892600
25 3.65343300 0.03132500 1.21165300 0.00000000 0.00000200 0.00000000
26 5.47071200 -0.00969600 -1.15548600 0.00000000 0.00000200 -0.00000100
27 -0.15673800 -0.00969100 -0.65243100 0.00000000 0.00000200 0.00000000
28 1.78860700 0.72573000 1.30873600 0.00000000 0.00000000 0.00000000
29 1.78860900 -0.65262200 1.31042100 0.00000000 0.00000000 0.00000000
30 12.91507600 1.09258500 -0.49989700 -0.45060500 0.96097800 1.06727700
31 12.27240100 -14.68623300 1.03996400 -2.86416500 -0.14332400 -1.62588500
32 5.51182400 0.00000800 -0.00000400 2.24315300 0.00000000 -3.14159231
33 0.19684600 -0.00000100 0.00000400 2.79340700 0.00000600 -3.14157700
34 6.05960200 -2.74643100 -2.52809900 1.97586200 1.15991000 1.84280300
35 6.21448500 0.00001000 0.00002000 -0.03705800 0.40377100 -1.29687600
36 11.94488500 -0.00003200 -0.00019900 -0.46251100 -0.34731000 -1.45959100
37 10.62016900 -0.00000200 0.00000800 -2.17951200 -0.33043700 0.84848100
38 4.75116500 0.69437600 -0.83047400 0.26696000 -0.32298800 0.34388100
39 1.68806100 -0.00002400 0.00000200 0.02386000 -0.00658700 0.13842300
40 1.33615100 -0.00005000 -0.00001000 0.00169400 -0.03868600 0.32561900
41 4.82051700 0.50934200 0.22486600 -0.47278700 -0.28849100 1.55482800
42 1.82700300 0.00006200 0.00001000 -0.00707500 0.03986300 1.09883200
43 1.43658100 -0.00000600 0.00001000 0.00705100 -0.01338400 0.35840500
44 3.99235500 0.89109000 1.82799500 -0.68725100 0.21281300 2.13070400
45 1.40592200 0.00003100 -0.00000400 0.01473700 -0.02552000 0.35338100
46 1.17536200 -0.00013200 0.00000400 0.05937100 0.10805400 0.45923700
47 4.52676200 0.69046800 1.12084200 -0.60577200 -0.00516400 1.91912100
48 1.74404100 -0.00002700 0.00000100 -0.01568800 -0.02510500 0.97108200
49 1.36876300 -0.00003100 -0.00002000 0.02476100 0.15669200 -0.02767400
50 1.87486300 0.93508300 -0.99912900 2.10190700 0.32057400 1.26810200
51 1.52345700 -0.00003100 0.00000000 -0.45478400 -0.09259900 0.70777600
52 1.59927700 -0.00000400 0.00001000 0.08269700 -0.01172200 0.96681100
53 12.37255400 3.21341100 -2.53611600 3.04348400 -0.10787100 -3.04832300
54 3.65469000 -0.19993500 1.21672500 -0.00000100 0.00000000 0.00000000
55 5.47071800 -0.00968800 -1.15548900 -0.00000100 0.00000000 0.00000000
56 -0.15673600 -0.00968900 -0.65243200 -0.00000100 0.00000000 0.00000000
57 1.80230300 0.50251100 1.31199700 0.00000000 0.00000000 0.00000000
58 1.80230300 -0.88462200 1.30344000 0.00000000 0.00000000 0.00003700
59 5.51180800 -0.00000600 0.00000400 -0.23579700 0.00000500 0.00000700
60 0.19684600 0.00000600 0.00000000 -0.34822500 0.00001500 -0.00000200
61 0.00000000 0.00000000 0.00000000 0.00000000 0.00000000 -1.57079600
time 9
0 -0.00000100 7.45008900 -27.50902600 0.00000000 0.00000000 0.00003100
1 -0.00000200 0.00000000 0.00000000 1.57074700 -1.56714200 -1.57074700
2 4.25546500 -0.33518400 -0.00000200 0.00000000 0.00000000 -0.12484800
3 7.43125000 1.49647900 0.00000200 0.00000000 0.00000000 0.24545000
4 5.27847900 0.16554300 0.00000100 0.00000000 0.00000000 0.04851100
5 7.26873900 -2.08658700 2.71094900 1.97586600 1.15990900 -1.29878500
6 -6.21447800 -0.00001000 -0.00002700 -3.07323200 -0.43632100 1.73939600
7 11.94488900 0.00000000 0.00000000 -0.16507800 -0.34452700 1.39888200
8 10.62019000 0.00000000 0.00000000 1.00620900 -0.03044500 2.07397400
9 -4.75111000 -0.69449400 0.83057900 0.19013700 -0.19986900 0.44151000
10 -1.68807600 0.00004300 -0.00003100 0.02301200 -0.00893700 0.23900300
11 -1.33614300 0.00005300 -0.00001000 0.02378900 0.01132500 0.10905500
12 -4.82049600 -0.50945900 -0.22476100 -0.50006700 -0.22016700 1.51512600
13 -1.82699200 -0.00007200 0.00000800 -0.01037100 0.03913100 1.01349300
14 -1.43657300 0.00000800 0.00000400 -0.06013400 -0.04938400 0.79162700
15 -3.99235900 -0.89118600 -1.82791000 -0.65908400 0.34980400 2.08680100
16 -1.40592200 -0.00002700 0.00000000 0.01705600 -0.02407900 0.25961700
17 -1.17535800 0.00012800 -0.00002100 0.04564400 0.05036800 0.64063400
18 -4.52675200 -0.69057500 -1.12074400 -0.70136900 0.10096500 1.93468300
19 -1.74403800 0.00003300 -0.00000400 -0.00856500 -0.02830800 0.70440700
20 -1.36877400 0.00002500 0.00000400 0.03266700 0.04101200 0.56827500
21 -1.71880200 -1.28270400 0.93153400 1.72294100 0.51883700 0.85815300
22 -1.52344900 0.00003400 0.00003100 0.07259500 -0.05759400 0.71774800
23 -1.59927600 0.00000800 0.00001500 -0.06457100 -0.05937700 0.59775600
24 -11.98742900 -3.54690900 3.45867400 -0.18319400 0.21726400 0.20892600
25 3.65343300 0.03132500 1.21165300 0.00000000 0.00000200 0.00000000
26 5.47071200 -0.00969600 -1.15548600 0.00000000 0.00000200 -0.00000100
27 -0.15673800 -0.00969100 -0.65243100 0.00000000 0.00000200 0.00000000
28 1.78860700 0.72573000 1.30873600 0.00000000 0.00000000 0.00000000
29 1.78860900 -0.65262200 1.31042100 0.00000000 0.00000000 0.00000000
30 12.91507600 1.09258500 -0.49989700 -0.45060500 0.96097800 1.06727700
31 12.73971000 -14.24567600 2.12167800 -2.84161600 -0.32858800 -1.63587900
32 5.51182400 0.00000800 -0.00000400 2.24315300 0.00000000 -3.14159231
33 0.19684600 -0.00000100 0.00000400 2.79340700 0.00000600 -3.14157700
34 7.36608800 -2.14570500 -2.61623900 1.97586200 1.15991000 1.84280300
35 6.21448500 0.00001000 0.00002000 0.06072700 0.38318700 -1.31339100
36 11.94488500 -0.00003200 -0.00019900 -0.49001700 -0.34334800 -1.37842400
37 10.62016900 -0.00000200 0.00000800 -2.13175400 -0.36268500 0.78247900
38 4.75116500 0.69437600 -0.83047400 0.26696000 -0.32298800 0.34388100
39 1.68806100 -0.00002400 0.00000200 0.02386000 -0.00658700 0.13842300
40 1.33615100 -0.00005000 -0.00001000 0.00169400 -0.03868600 0.32561900
41 4.82051700 0.50934200 0.22486600 -0.47278700 -0.28849100 1.55482800
42 1.82700300 0.00006200 0.00001000 -0.00707500 0.03986300 1.09883200
43 1.43658100 -0.00000600 0.00001000 0.00705100 -0.01338400 0.35840500
44 3.99235500 0.89109000 1.82799500 -0.68725100 0.21281300 2.13070400
45 1.40592200 0.00003100 -0.00000400 0.01473700 -0.02552000 0.35338100
46 1.17536200 -0.00013200 0.00000400 0.05937100 0.10805400 0.45923700
47 4.52676200 0.69046800 1.12084200 -0.60577200 -0.00516400 1.91912100
48 1.74404100 -0.00002700 0.00000100 -0.01568800 -0.02510500 0.97108200
49 1.36876300 -0.00003100 -0.00002000 0.02476100 0.15669200 -0.02767400
50 1.87486300 0.93508300 -0.99912900 2.10190700 0.32057400 1.26810200
51 1.52345700 -0.00003100 0.00000000 -0.45478400 -0.09259900 0.70777600
52 1.59927700 -0.00000400 0.00001000 0.08269700 -0.01172200 0.96681100
53 12.37255400 3.21341100 -2.53611600 3.04348400 -0.10787100 -3.04832300
54 3.65469000 -0.19993500 1.21672500 -0.00000100 0.00000000 0.00000000
55 5.47071800 -0.00968800 -1.15548900 -0.00000100 0.00000000 0.00000000
56 -0.15673600 -0.00968900 -0.65243200 -0.00000100 0.00000000 0.00000000
57 1.80230300 0.50251100 1.31199700 0.00000000 0.00000000 0.00000000
58 1.80230300 -0.88462200 1.30344000 0.00000000 0.00000000 0.00003700
59 5.51180800 -0.00000600 0.00000400 -0.23579700 0.00000500 0.00000700
60 0.19684600 0.00000600 0.00000000 -0.34822500 0.00001500 -0.00000200
61 0.00000000 0.00000000 0.00000000 0.00000000 0.00000000 -1.57079600
time 10
0 -0.00000100 7.45008900 -27.50902600 0.00000000 0.00000000 0.00003100
1 -0.00000200 0.00000000 0.00000000 1.57074700 -1.56714200 -1.57074700
2 4.25546500 -0.33518400 -0.00000200 0.00000000 0.00000000 -0.12484800
3 7.43125000 1.49647900 0.00000200 0.00000000 0.00000000 0.24545000
4 5.27847900 0.16554300 0.00000100 0.00000000 0.00000000 0.04851100
5 7.74727100 -1.86356500 2.74615000 1.97586600 1.15990900 -1.29878500
6 -6.21447800 -0.00001000 -0.00002700 -3.08583200 -0.43685100 1.72680900
7 11.94488900 0.00000000 0.00000000 -0.14699000 -0.34110700 1.34525700
8 10.62019000 0.00000000 0.00000000 1.00525800 -0.00896700 2.11081000
9 -4.75111000 -0.69449400 0.83057900 0.19013700 -0.19986900 0.44151000
10 -1.68807600 0.00004300 -0.00003100 0.02301200 -0.00893700 0.23900300
11 -1.33614300 0.00005300 -0.00001000 0.02378900 0.01132500 0.10905500
12 -4.82049600 -0.50945900 -0.22476100 -0.50006700 -0.22016700 1.51512600
13 -1.82699200 -0.00007200 0.00000800 -0.01037100 0.03913100 1.01349300
14 -1.43657300 0.00000800 0.00000400 -0.06013400 -0.04938400 0.79162700
15 -3.99235900 -0.89118600 -1.82791000 -0.65908400 0.34980400 2.08680100
16 -1.40592200 -0.00002700 0.00000000 0.01705600 -0.02407900 0.25961700
17 -1.17535800 0.00012800 -0.00002100 0.04564400 0.05036800 0.64063400
18 -4.52675200 -0.69057500 -1.12074400 -0.70136900 0.10096500 1.93468300
19 -1.74403800 0.00003300 -0.00000400 -0.00856500 -0.02830800 0.70440700
20 -1.36877400 0.00002500 0.00000400 0.03266700 0.04101200 0.56827500
21 -1.71880200 -1.28270400 0.93153400 1.72294100 0.51883700 0.85815300
22 -1.52344900 0.00003400 0.00003100 0.07259500 -0.05759400 0.71774800
23 -1.59927600 0.00000800 0.00001500 -0.06457100 -0.05937700 0.59775600
24 -11.98742400 -3.54690100 3.45867300 -0.18319400 0.21726400 0.20892600
25 3.65343300 0.03132500 1.21165300 0.00000000 0.00000200 0.00000000
26 5.47071200 -0.00969600 -1.15548600 0.00000000 0.00000200 -0.00000100
27 -0.15673800 -0.00969100 -0.65243100 0.00000000 0.00000200 0.00000000
28 1.78860700 0.72573000 1.30873600 0.00000000 0.00000000 0.00000000
29 1.78860900 -0.65262200 1.31042100 0.00000000 0.00000000 0.00000000
30 12.91507600 1.09258500 -0.49989700 -0.45060500 0.96097800 1.06727700
31 12.90127200 -14.06508400 2.47537700 -2.83391500 -0.40185000 -1.64123700
32 5.51182400 0.00000800 -0.00000400 2.24315300 0.00000000 -3.14159231
33 0.19684600 -0.00000100 0.00000400 2.79340700 0.00000600 -3.14157700
34 7.84742600 -1.92438500 -2.64871100 1.97586200 1.15991000 1.84280300
35 6.21448500 0.00001000 0.00002000 0.09667400 0.37544300 -1.32248200
36 11.94488500 -0.00003200 -0.00019900 -0.50049600 -0.34130300 -1.34728900
37 10.62016900 -0.00000200 0.00000800 -2.10977000 -0.37646800 0.75805600
38 4.75116500 0.69437600 -0.83047400 0.26696000 -0.32298800 0.34388100
39 1.68806100 -0.00002400 0.00000200 0.02386000 -0.00658700 0.13842300
40 1.33615100 -0.00005000 -0.00001000 0.00169400 -0.03868600 0.32561900
41 4.82051700 0.50934200 0.22486600 -0.47278700 -0.28849100 1.55482800
42 1.82700300 0.00006200 0.00001000 -0.00707500 0.03986300 1.09883200
43 1.43658100 -0.00000600 0.00001000 0.00705100 -0.01338400 0.35840500
44 3.99235500 0.89109000 1.82799500 -0.68725100 0.21281300 2.13070400
45 1.40592200 0.00003100 -0.00000400 0.01473700 -0.02552000 0.35338100
46 1.17536200 -0.00013200 0.00000400 0.05937100 0.10805400 0.45923700
47 4.52676200 0.69046800 1.12084200 -0.60577200 -0.00516400 1.91912100
48 1.74404100 -0.00002700 0.00000100 -0.01568800 -0.02510500 0.97108200
49 1.36876300 -0.00003100 -0.00002000 0.02476100 0.15669200 -0.02767400
50 1.87486300 0.93508300 -0.99912900 2.10190700 0.32057400 1.26810200
51 1.52345700 -0.00003100 0.00000000 -0.45478400 -0.09259900 0.70777600
52 1.59927700 -0.00000400 0.00001000 0.08269700 -0.01172200 0.96681100
53 12.37255400 3.21341100 -2.53611600 3.04348400 -0.10787100 -3.04832300
54 3.65469000 -0.19993500 1.21672500 -0.00000100 0.00000000 0.00000000
55 5.47071800 -0.00968800 -1.15548900 -0.00000100 0.00000000 0.00000000
56 -0.15673600 -0.00968900 -0.65243200 -0.00000100 0.00000000 0.00000000
57 1.80230300 0.50251100 1.31199700 0.00000000 0.00000000 0.00000000
58 1.80230300 -0.88462200 1.30344000 0.00000000 0.00000000 0.00003700
59 5.51180800 -0.00000600 0.00000400 -0.23579700 0.00000500 0.00000700
60 0.19684600 0.00000600 0.00000000 -0.34822500 0.00001500 -0.00000200
61 0.00000000 0.00000000 0.00000000 0.00000000 0.00000000 -1.57079600
end
