version 1
nodes
0 "root" -1
1 "pelvis" 0
2 "spine_01" 1
3 "spine_02" 2
4 "spine_03" 3
5 "clavicle_r" 4
6 "upperarm_r" 5
7 "lowerarm_r" 6
8 "hand_r" 7
9 "index_01_r" 8
10 "index_02_r" 9
11 "index_03_r" 10
12 "middle_01_r" 8
13 "middle_02_r" 12
14 "middle_03_r" 13
15 "pinky_01_r" 8
16 "pinky_02_r" 15
17 "pinky_03_r" 16
18 "ring_01_r" 8
19 "ring_02_r" 18
20 "ring_03_r" 19
21 "thumb_01_r" 8
22 "thumb_02_r" 21
23 "thumb_03_r" 22
24 "lowerarm_twist_01_r" 7
25 "upperarm_twist_01_r" 6
26 "clavicle_l" 4
27 "upperarm_l" 26
28 "lowerarm_l" 27
29 "hand_l" 28
30 "index_01_l" 29
31 "index_02_l" 30
32 "index_03_l" 31
33 "middle_01_l" 29
34 "middle_02_l" 33
35 "middle_03_l" 34
36 "pinky_01_l" 29
37 "pinky_02_l" 36
38 "pinky_03_l" 37
39 "ring_01_l" 29
40 "ring_02_l" 39
41 "ring_03_l" 40
42 "thumb_01_l" 29
43 "thumb_02_l" 42
44 "thumb_03_l" 43
45 "lowerarm_twist_01_l" 28
46 "upperarm_twist_01_l" 27
47 "cam_driver" -1
48 "BaseRoot" -1
49 "Base" 48
50 "rhand_ikTarget" 49
51 "Trigger" 49
52 "Mag" 49
53 "Bullet" 52
54 "Bolt" 49
55 "MagRelease" 49
56 "Boltpuller" 49
57 "Bayonet" 49
58 "lhand_ikTarget" 49
end
skeleton
time 0
0 -0.00000100 7.45008900 -27.50902600 0.00000000 0.00000000 0.00003100
1 -0.00000200 0.00000000 0.00000000 1.57074700 -1.56714200 -1.57074700
2 4.25546600 -0.33518300 -0.00000200 0.00000000 0.00000000 -0.12484800
3 7.43125000 1.49647900 0.00000200 0.00000000 0.00000000 0.24545000
4 5.27847900 0.16554400 0.00000100 0.00000000 0.00000000 0.04851100
5 3.72195228 -5.72514457 0.56417212 1.97586500 1.15990900 -1.29878600
6 -6.21447800 -0.00000900 -0.00002600 3.08158330 -0.52615353 2.10412592
7 11.94488500 0.00000000 0.00000000 -0.39421188 -0.32676823 1.66708799
8 10.62018800 0.00000000 0.00000000 0.61367792 -0.09238175 3.11958746
9 -4.75110800 -0.69449800 0.83058000 -0.04275600 -0.14370200 0.21348200
10 -1.68806800 0.00004700 -0.00003100 0.01416200 -0.02030400 0.83076300
11 -1.33614000 0.00005500 -0.00001000 0.02620400 -0.00294000 0.66573400
12 -4.82049400 -0.50946400 -0.22475900 -0.47850200 -0.28490200 1.21053600
13 -1.82698400 -0.00006900 0.00000800 0.01386400 0.03805500 1.62217300
14 -1.43656900 0.00000400 0.00000300 -0.01732100 -0.07578600 0.13241200
15 -3.99235700 -0.89119100 -1.82790900 -0.68571500 0.29337500 1.78792400
16 -1.40591800 -0.00002500 -0.00000200 -0.00474800 -0.02908900 1.03564800
17 -1.17535800 0.00012600 -0.00001900 0.03337100 0.05922500 0.41712000
18 -4.52675100 -0.69058000 -1.12074100 -0.58814800 -0.00853300 1.62350700
19 -1.74403800 0.00003200 -0.00000800 -0.07404200 0.08160700 1.50629900
20 -1.36877100 0.00002300 0.00000200 0.00993500 0.05150500 0.08698400
21 -2.03839569 -0.89278969 0.93250400 1.93898400 0.21538600 0.74875200
22 -1.70606969 0.14881976 0.13171369 -0.00729200 0.04641800 0.40163700
23 -1.59928500 0.00001100 0.00001500 0.02997200 -0.03067600 0.77840300
24 5.51182000 0.00000800 -0.00000200 2.10196205 0.00133094 3.14078467
25 0.19684600 -0.00000200 0.00000300 2.79340670 -0.00135498 -3.14130791
26 -1.29483000 -15.58672000 -4.01722200 1.97586200 1.15991000 1.84280300
27 6.21448600 0.00000800 0.00001900 -2.16333052 0.62900650 -1.87071625
28 11.94488800 -0.00003100 -0.00020000 -1.56700894 1.31578612 -2.31915965
29 10.62016500 0.00000200 0.00000600 -3.05456577 -1.16169721 0.67611439
30 4.75115800 0.69437400 -0.83047400 0.01035400 -0.18701200 0.22546800
31 1.68806500 -0.00002200 0.00000200 0.00871700 -0.02311100 1.07732400
32 1.33615100 -0.00005100 -0.00000900 -0.01966400 -0.03335100 0.90470300
33 4.82051500 0.50933800 0.22486600 -0.16078000 -0.19857400 0.43859100
34 1.82699200 0.00006600 0.00001000 0.02668100 0.03043800 1.99251200
35 1.43658100 -0.00000600 0.00001000 0.01484100 0.00319600 -0.94170300
36 3.99235300 0.89108700 1.82799300 -0.53062100 0.08867800 0.91105900
37 1.40592600 0.00003100 -0.00000300 -0.01988900 -0.02179500 1.61407600
38 1.17536200 -0.00013200 0.00000100 -0.09551900 0.07798600 -0.93359900
39 4.52675800 0.69046400 1.12084300 -0.40167000 -0.05563700 0.80364000
40 1.74404100 -0.00003100 -0.00000200 -0.02939300 -0.00337500 1.86812600
41 1.36876700 -0.00003100 -0.00001800 -0.12957300 0.09181900 -1.14340300
42 1.80926762 0.89529069 -1.12010931 1.99067500 0.37480500 0.55887600
43 1.49513738 -0.24140500 0.04487807 0.00360000 -0.23414300 0.03443400
44 1.57425022 -0.10445062 0.03324338 0.03981700 0.07342300 -0.24671300
45 5.48872238 -0.02716262 0.01694638 -0.87631700 0.01765400 0.01041400
46 0.19684900 0.00000300 -0.00000100 -0.34822500 0.00001500 -0.00000200
47 0.00000000 0.00000000 0.00000000 0.00000000 0.00000000 -1.57079600
48 -4.16381200 1.79473400 -4.25436000 0.00000000 0.00000000 -3.14156200
49 -3.95427648 17.18936858 -1.47448406 0.45679815 0.00464323 -0.92162237
50 9.68055049 0.76709533 -4.42390907 0.66994200 1.22657000 2.14442700
51 2.97751900 0.00125700 -1.28020400 0.00000000 0.00000000 0.00000000
52 -1.13600500 -0.00628100 -0.29562500 0.00000000 0.00000000 0.00000000
53 0.05843500 0.00066700 0.09728300 0.00000000 0.00000000 0.00000000
54 -1.09087800 0.04617100 0.46137700 0.00000000 0.00000000 0.00000000
55 0.76532200 -0.03277500 -1.35591700 0.00000000 0.00000000 0.00000000
56 -10.18440400 -0.01003900 1.60133600 0.00000000 0.00000000 0.00000000
57 -21.17495700 0.16805800 -1.06791200 0.00000000 0.00000000 0.00000000
58 -4.17994500 -2.40243000 -1.82029200 -2.93780700 1.27049300 -2.15177200
time 1
0 -0.00000100 7.45008900 -27.50902600 0.00000000 0.00000000 0.00003100
1 -0.00000200 0.00000000 0.00000000 1.57074700 -1.56714200 -1.57074700
2 4.25546600 -0.33518300 -0.00000200 0.00000000 0.00000000 -0.12484800
3 7.43125000 1.49647900 0.00000200 0.00000000 0.00000000 0.24545000
4 5.27847900 0.16554400 0.00000100 0.00000000 0.00000000 0.04851100
5 3.72195228 -5.72514457 0.56417212 1.97586500 1.15990900 -1.29878600
6 -6.21447800 -0.00000900 -0.00002600 3.11313726 -0.53229492 2.09153320
7 11.94488500 0.00000000 0.00000000 -0.39201429 -0.32831563 1.66121112
8 10.62018800 0.00000000 0.00000000 0.65611987 -0.12524413 3.13780989
9 -4.75110800 -0.69449800 0.83058000 -0.04275600 -0.14370200 0.21348200
10 -1.68806800 0.00004700 -0.00003100 0.01416200 -0.02030400 0.83076300
11 -1.33614000 0.00005500 -0.00001000 0.02620400 -0.00294000 0.66573400
12 -4.82049400 -0.50946400 -0.22475900 -0.47850200 -0.28490200 1.21053600
13 -1.82698400 -0.00006900 0.00000800 0.01386400 0.03805500 1.62217300
14 -1.43656900 0.00000400 0.00000300 -0.01732100 -0.07578600 0.13241200
15 -3.99235700 -0.89119100 -1.82790900 -0.68571500 0.29337500 1.78792400
16 -1.40591800 -0.00002500 -0.00000200 -0.00474800 -0.02908900 1.03564800
17 -1.17535800 0.00012600 -0.00001900 0.03337100 0.05922500 0.41712000
18 -4.52675100 -0.69058000 -1.12074100 -0.58814800 -0.00853300 1.62350700
19 -1.74403800 0.00003200 -0.00000800 -0.07404200 0.08160700 1.50629900
20 -1.36877100 0.00002300 0.00000200 0.00993500 0.05150500 0.08698400
21 -2.03839569 -0.89278969 0.93250400 1.93898400 0.21538600 0.74875200
22 -1.70606969 0.14881976 0.13171369 -0.00729200 0.04641800 0.40163700
23 -1.59928500 0.00001100 0.00001500 0.02997200 -0.03067600 0.77840300
24 5.51182000 0.00000800 -0.00000200 2.10196205 0.00133094 3.14078467
25 0.19684600 -0.00000200 0.00000300 2.79340670 -0.00135498 -3.14130791
26 -1.29483000 -15.58672000 -4.01722200 1.97586200 1.15991000 1.84280300
27 6.21448600 0.00000800 0.00001900 -2.15652139 0.62987992 -1.87031736
28 11.94488800 -0.00003100 -0.00020000 -1.54242092 1.31508274 -2.29384481
29 10.62016500 0.00000200 0.00000600 -3.04349622 -1.16164956 0.62239572
30 4.75115800 0.69437400 -0.83047400 0.01035400 -0.18701200 0.22546800
31 1.68806500 -0.00002200 0.00000200 0.00871700 -0.02311100 1.07732400
32 1.33615100 -0.00005100 -0.00000900 -0.01966400 -0.03335100 0.90470300
33 4.82051500 0.50933800 0.22486600 -0.16078000 -0.19857400 0.43859100
34 1.82699200 0.00006600 0.00001000 0.02668100 0.03043800 1.99251200
35 1.43658100 -0.00000600 0.00001000 0.01484100 0.00319600 -0.94170300
36 3.99235300 0.89108700 1.82799300 -0.53062100 0.08867800 0.91105900
37 1.40592600 0.00003100 -0.00000300 -0.01988900 -0.02179500 1.61407600
38 1.17536200 -0.00013200 0.00000100 -0.09551900 0.07798600 -0.93359900
39 4.52675800 0.69046400 1.12084300 -0.40167000 -0.05563700 0.80364000
40 1.74404100 -0.00003100 -0.00000200 -0.02939300 -0.00337500 1.86812600
41 1.36876700 -0.00003100 -0.00001800 -0.12957300 0.09181900 -1.14340300
42 1.80926762 0.89529069 -1.12010931 1.99067500 0.37480500 0.55887600
43 1.49513738 -0.24140500 0.04487807 0.00360000 -0.23414300 0.03443400
44 1.57425022 -0.10445062 0.03324338 0.03981700 0.07342300 -0.24671300
45 5.48872238 -0.02716262 0.01694638 -0.87631700 0.01765400 0.01041400
46 0.19684900 0.00000300 -0.00000100 -0.34822500 0.00001500 -0.00000200
47 0.00000000 0.00000000 0.00000000 0.00000000 0.00000000 -1.57079600
48 -4.16381200 1.79473400 -4.25436000 0.00000000 0.00000000 -3.14156200
49 -4.02387307 17.18149380 -1.44202852 0.49520104 -0.00096810 -0.92026282
50 9.68055049 0.76709533 -4.42390907 0.66994200 1.22657000 2.14442700
51 2.97751900 0.00125700 -1.28020400 0.00000000 0.00000000 0.00000000
52 -1.13600500 -0.00628100 -0.29562500 0.00000000 0.00000000 0.00000000
53 0.05843500 0.00066700 0.09728300 0.00000000 0.00000000 0.00000000
54 -1.09087800 0.04617100 0.46137700 0.00000000 0.00000000 0.00000000
55 0.76532200 -0.03277500 -1.35591700 0.00000000 0.00000000 0.00000000
56 -10.18440400 -0.01003900 1.60133600 0.00000000 0.00000000 0.00000000
57 -21.17495700 0.16805800 -1.06791200 0.00000000 0.00000000 0.00000000
58 -4.17994500 -2.40243000 -1.82029200 -2.93780700 1.27049300 -2.15177200
time 2
0 -0.00000100 7.45008900 -27.50902600 0.00000000 0.00000000 0.00003100
1 -0.00000200 0.00000000 0.00000000 1.57074700 -1.56714200 -1.57074700
2 4.25546600 -0.33518300 -0.00000200 0.00000000 0.00000000 -0.12484800
3 7.43125000 1.49647900 0.00000200 0.00000000 0.00000000 0.24545000
4 5.27847900 0.16554400 0.00000100 0.00000000 0.00000000 0.04851100
5 3.72195228 -5.72514457 0.56417212 1.97586500 1.15990900 -1.29878600
6 -6.21447800 -0.00000900 -0.00002600 -3.13758326 -0.53553770 2.06947437
7 11.94488500 0.00000000 0.00000000 -0.39010353 -0.33337574 1.65520407
8 10.62018800 0.00000000 0.00000000 0.70028572 -0.16428681 -3.13036775
9 -4.75110800 -0.69449800 0.83058000 -0.04275600 -0.14370200 0.21348200
10 -1.68806800 0.00004700 -0.00003100 0.01416200 -0.02030400 0.83076300
11 -1.33614000 0.00005500 -0.00001000 0.02620400 -0.00294000 0.66573400
12 -4.82049400 -0.50946400 -0.22475900 -0.47850200 -0.28490200 1.21053600
13 -1.82698400 -0.00006900 0.00000800 0.01386400 0.03805500 1.62217300
14 -1.43656900 0.00000400 0.00000300 -0.01732100 -0.07578600 0.13241200
15 -3.99235700 -0.89119100 -1.82790900 -0.68571500 0.29337500 1.78792400
16 -1.40591800 -0.00002500 -0.00000200 -0.00474800 -0.02908900 1.03564800
17 -1.17535800 0.00012600 -0.00001900 0.03337100 0.05922500 0.41712000
18 -4.52675100 -0.69058000 -1.12074100 -0.58814800 -0.00853300 1.62350700
19 -1.74403800 0.00003200 -0.00000800 -0.07404200 0.08160700 1.50629900
20 -1.36877100 0.00002300 0.00000200 0.00993500 0.05150500 0.08698400
21 -2.03839569 -0.89278969 0.93250400 1.93898400 0.21538600 0.74875200
22 -1.70606969 0.14881976 0.13171369 -0.00729200 0.04641800 0.40163700
23 -1.59928500 0.00001100 0.00001500 0.02997200 -0.03067600 0.77840300
24 5.51182000 0.00000800 -0.00000200 2.10196205 0.00133094 3.14078467
25 0.19684600 -0.00000200 0.00000300 2.79340670 -0.00135498 -3.14130791
26 -1.29483000 -15.58672000 -4.01722200 1.97586200 1.15991000 1.84280300
27 6.21448600 0.00000800 0.00001900 -2.15624044 0.63266265 -1.86480870
28 11.94488800 -0.00003100 -0.00020000 -1.54406372 1.30982234 -2.29555246
29 10.62016500 0.00000200 0.00000600 -3.03494999 -1.16194969 0.57468564
30 4.75115800 0.69437400 -0.83047400 0.01035400 -0.18701200 0.22546800
31 1.68806500 -0.00002200 0.00000200 0.00871700 -0.02311100 1.07732400
32 1.33615100 -0.00005100 -0.00000900 -0.01966400 -0.03335100 0.90470300
33 4.82051500 0.50933800 0.22486600 -0.16078000 -0.19857400 0.43859100
34 1.82699200 0.00006600 0.00001000 0.02668100 0.03043800 1.99251200
35 1.43658100 -0.00000600 0.00001000 0.01484100 0.00319600 -0.94170300
36 3.99235300 0.89108700 1.82799300 -0.53062100 0.08867800 0.91105900
37 1.40592600 0.00003100 -0.00000300 -0.01988900 -0.02179500 1.61407600
38 1.17536200 -0.00013200 0.00000100 -0.09551900 0.07798600 -0.93359900
39 4.52675800 0.69046400 1.12084300 -0.40167000 -0.05563700 0.80364000
40 1.74404100 -0.00003100 -0.00000200 -0.02939300 -0.00337500 1.86812600
41 1.36876700 -0.00003100 -0.00001800 -0.12957300 0.09181900 -1.14340300
42 1.80926762 0.89529069 -1.12010931 1.99067500 0.37480500 0.55887600
43 1.49513738 -0.24140500 0.04487807 0.00360000 -0.23414300 0.03443400
44 1.57425022 -0.10445062 0.03324338 0.03981700 0.07342300 -0.24671300
45 5.48872238 -0.02716262 0.01694638 -0.87631700 0.01765400 0.01041400
46 0.19684900 0.00000300 -0.00000100 -0.34822500 0.00001500 -0.00000200
47 0.00000000 0.00000000 0.00000000 0.00000000 0.00000000 -1.57079600
48 -4.16381200 1.79473400 -4.25436000 0.00000000 0.00000000 -3.14156200
49 -4.21817334 17.15924526 -1.36874324 0.53821458 -0.00865347 -0.91491759
50 9.68055049 0.76709533 -4.42390907 0.66994200 1.22657000 2.14442700
51 2.97751900 0.00125700 -1.28020400 0.00000000 0.00000000 0.00000000
52 -1.13600500 -0.00628100 -0.29562500 0.00000000 0.00000000 0.00000000
53 0.05843500 0.00066700 0.09728300 0.00000000 0.00000000 0.00000000
54 -1.09087800 0.04617100 0.46137700 0.00000000 0.00000000 0.00000000
55 0.76532200 -0.03277500 -1.35591700 0.00000000 0.00000000 0.00000000
56 -10.18440400 -0.01003900 1.60133600 0.00000000 0.00000000 0.00000000
57 -21.17495700 0.16805800 -1.06791200 0.00000000 0.00000000 0.00000000
58 -4.17994500 -2.40243000 -1.82029200 -2.93780700 1.27049300 -2.15177200
time 3
0 -0.00000100 7.45008900 -27.50902600 0.00000000 0.00000000 0.00003100
1 -0.00000200 0.00000000 0.00000000 1.57074700 -1.56714200 -1.57074700
2 4.25546600 -0.33518300 -0.00000200 0.00000000 0.00000000 -0.12484800
3 7.43125000 1.49647900 0.00000200 0.00000000 0.00000000 0.24545000
4 5.27847900 0.16554400 0.00000100 0.00000000 0.00000000 0.04851100
5 3.72195228 -5.72514457 0.56417212 1.97586500 1.15990900 -1.29878600
6 -6.21447800 -0.00000900 -0.00002600 3.14007596 -0.52962099 2.05312928
7 11.94488500 0.00000000 0.00000000 -0.38973565 -0.33556124 1.65326263
8 10.62018800 0.00000000 0.00000000 0.68743826 -0.16232348 -3.13764232
9 -4.75110800 -0.69449800 0.83058000 -0.04275600 -0.14370200 0.21348200
10 -1.68806800 0.00004700 -0.00003100 0.01416200 -0.02030400 0.83076300
11 -1.33614000 0.00005500 -0.00001000 0.02620400 -0.00294000 0.66573400
12 -4.82049400 -0.50946400 -0.22475900 -0.47850200 -0.28490200 1.21053600
13 -1.82698400 -0.00006900 0.00000800 0.01386400 0.03805500 1.62217300
14 -1.43656900 0.00000400 0.00000300 -0.01732100 -0.07578600 0.13241200
15 -3.99235700 -0.89119100 -1.82790900 -0.68571500 0.29337500 1.78792400
16 -1.40591800 -0.00002500 -0.00000200 -0.00474800 -0.02908900 1.03564800
17 -1.17535800 0.00012600 -0.00001900 0.03337100 0.05922500 0.41712000
18 -4.52675100 -0.69058000 -1.12074100 -0.58814800 -0.00853300 1.62350700
19 -1.74403800 0.00003200 -0.00000800 -0.07404200 0.08160700 1.50629900
20 -1.36877100 0.00002300 0.00000200 0.00993500 0.05150500 0.08698400
21 -2.03839569 -0.89278969 0.93250400 1.93898400 0.21538600 0.74875200
22 -1.70606969 0.14881976 0.13171369 -0.00729200 0.04641800 0.40163700
23 -1.59928500 0.00001100 0.00001500 0.02997200 -0.03067600 0.77840300
24 5.51182000 0.00000800 -0.00000200 2.10196205 0.00133094 3.14078467
25 0.19684600 -0.00000200 0.00000300 2.79340670 -0.00135498 -3.14130791
26 -1.29483000 -15.58672000 -4.01722200 1.97586200 1.15991000 1.84280300
27 6.21448600 0.00000800 0.00001900 -2.17339984 0.63922219 -1.85065925
28 11.94488800 -0.00003100 -0.00020000 -1.61489390 1.29366354 -2.36873913
29 10.62016500 0.00000200 0.00000600 -3.03899168 -1.16555627 0.61162344
30 4.75115800 0.69437400 -0.83047400 0.01035400 -0.18701200 0.22546800
31 1.68806500 -0.00002200 0.00000200 0.00871700 -0.02311100 1.07732400
32 1.33615100 -0.00005100 -0.00000900 -0.01966400 -0.03335100 0.90470300
33 4.82051500 0.50933800 0.22486600 -0.16078000 -0.19857400 0.43859100
34 1.82699200 0.00006600 0.00001000 0.02668100 0.03043800 1.99251200
35 1.43658100 -0.00000600 0.00001000 0.01484100 0.00319600 -0.94170300
36 3.99235300 0.89108700 1.82799300 -0.53062100 0.08867800 0.91105900
37 1.40592600 0.00003100 -0.00000300 -0.01988900 -0.02179500 1.61407600
38 1.17536200 -0.00013200 0.00000100 -0.09551900 0.07798600 -0.93359900
39 4.52675800 0.69046400 1.12084300 -0.40167000 -0.05563700 0.80364000
40 1.74404100 -0.00003100 -0.00000200 -0.02939300 -0.00337500 1.86812600
41 1.36876700 -0.00003100 -0.00001800 -0.12957300 0.09181900 -1.14340300
42 1.80926762 0.89529069 -1.12010931 1.99067500 0.37480500 0.55887600
43 1.49513738 -0.24140500 0.04487807 0.00360000 -0.23414300 0.03443400
44 1.57425022 -0.10445062 0.03324338 0.03981700 0.07342300 -0.24671300
45 5.48872238 -0.02716262 0.01694638 -0.87631700 0.01765400 0.01041400
46 0.19684900 0.00000300 -0.00000100 -0.34822500 0.00001500 -0.00000200
47 0.00000000 0.00000000 0.00000000 0.00000000 0.00000000 -1.57079600
48 -4.16381200 1.79473400 -4.25436000 0.00000000 0.00000000 -3.14156200
49 -4.50957119 17.12469143 -1.28939660 0.53047493 -0.01002355 -0.90185944
50 9.68055049 0.76709533 -4.42390907 0.66994200 1.22657000 2.14442700
51 2.97751900 0.00125700 -1.28020400 0.00000000 0.00000000 0.00000000
52 -1.13600500 -0.00628100 -0.29562500 0.00000000 0.00000000 0.00000000
53 0.05843500 0.00066700 0.09728300 0.00000000 0.00000000 0.00000000
54 -1.09087800 0.04617100 0.46137700 0.00000000 0.00000000 0.00000000
55 0.76532200 -0.03277500 -1.35591700 0.00000000 0.00000000 0.00000000
56 -10.18440400 -0.01003900 1.60133600 0.00000000 0.00000000 0.00000000
57 -21.17495700 0.16805800 -1.06791200 0.00000000 0.00000000 0.00000000
58 -4.17994500 -2.40243000 -1.82029200 -2.93780700 1.27049300 -2.15177200
time 4
0 -0.00000100 7.45008900 -27.50902600 0.00000000 0.00000000 0.00003100
1 -0.00000200 0.00000000 0.00000000 1.57074700 -1.56714200 -1.57074700
2 4.25546600 -0.33518300 -0.00000200 0.00000000 0.00000000 -0.12484800
3 7.43125000 1.49647900 0.00000200 0.00000000 0.00000000 0.24545000
4 5.27847900 0.16554400 0.00000100 0.00000000 0.00000000 0.04851100
5 3.82524993 -5.58341236 0.45365007 1.97586500 1.15990900 -1.29878600
6 -6.21447800 -0.00000900 -0.00002600 3.13008887 -0.52557478 2.03325526
7 11.94488500 0.00000000 0.00000000 -0.38261441 -0.34168920 1.63049178
8 10.62018800 0.00000000 0.00000000 0.66971398 -0.15110955 -3.13166047
9 -4.75110800 -0.69449800 0.83058000 -0.04275600 -0.14370200 0.21348200
10 -1.68806800 0.00004700 -0.00003100 0.01416200 -0.02030400 0.83076300
11 -1.33614000 0.00005500 -0.00001000 0.02620400 -0.00294000 0.66573400
12 -4.82049400 -0.50946400 -0.22475900 -0.47850200 -0.28490200 1.21053600
13 -1.82698400 -0.00006900 0.00000800 0.01386400 0.03805500 1.62217300
14 -1.43656900 0.00000400 0.00000300 -0.01732100 -0.07578600 0.13241200
15 -3.99235700 -0.89119100 -1.82790900 -0.68571500 0.29337500 1.78792400
16 -1.40591800 -0.00002500 -0.00000200 -0.00474800 -0.02908900 1.03564800
17 -1.17535800 0.00012600 -0.00001900 0.03337100 0.05922500 0.41712000
18 -4.52675100 -0.69058000 -1.12074100 -0.58814800 -0.00853300 1.62350700
19 -1.74403800 0.00003200 -0.00000800 -0.07404200 0.08160700 1.50629900
20 -1.36877100 0.00002300 0.00000200 0.00993500 0.05150500 0.08698400
21 -2.03839569 -0.89278969 0.93250400 1.93898400 0.21538600 0.74875200
22 -1.70606969 0.14881976 0.13171369 -0.00729200 0.04641800 0.40163700
23 -1.59928500 0.00001100 0.00001500 0.02997200 -0.03067600 0.77840300
24 5.51182000 0.00000800 -0.00000200 2.10196205 0.00133094 3.14078467
25 0.19684600 -0.00000200 0.00000300 2.79340670 -0.00135498 -3.14130791
26 -1.29483000 -15.58672000 -4.01722200 1.97586200 1.15991000 1.84280300
27 6.21448600 0.00000800 0.00001900 -2.19536553 0.64834280 -1.83296307
28 11.94488800 -0.00003100 -0.00020000 -1.69418387 1.27394788 -2.45138578
29 10.62016500 0.00000200 0.00000600 -3.04729393 -1.16689853 0.66458591
30 4.75115800 0.69437400 -0.83047400 0.01035400 -0.18701200 0.22546800
31 1.68806500 -0.00002200 0.00000200 0.00871700 -0.02311100 1.07732400
32 1.33615100 -0.00005100 -0.00000900 -0.01966400 -0.03335100 0.90470300
33 4.82051500 0.50933800 0.22486600 -0.16078000 -0.19857400 0.43859100
34 1.82699200 0.00006600 0.00001000 0.02668100 0.03043800 1.99251200
35 1.43658100 -0.00000600 0.00001000 0.01484100 0.00319600 -0.94170300
36 3.99235300 0.89108700 1.82799300 -0.53062100 0.08867800 0.91105900
37 1.40592600 0.00003100 -0.00000300 -0.01988900 -0.02179500 1.61407600
38 1.17536200 -0.00013200 0.00000100 -0.09551900 0.07798600 -0.93359900
39 4.52675800 0.69046400 1.12084300 -0.40167000 -0.05563700 0.80364000
40 1.74404100 -0.00003100 -0.00000200 -0.02939300 -0.00337500 1.86812600
41 1.36876700 -0.00003100 -0.00001800 -0.12957300 0.09181900 -1.14340300
42 1.80926762 0.89529069 -1.12010931 1.99067500 0.37480500 0.55887600
43 1.49513738 -0.24140500 0.04487807 0.00360000 -0.23414300 0.03443400
44 1.57425022 -0.10445062 0.03324338 0.03981700 0.07342300 -0.24671300
45 5.48872238 -0.02716262 0.01694638 -0.87631700 0.01765400 0.01041400
46 0.19684900 0.00000300 -0.00000100 -0.34822500 0.00001500 -0.00000200
47 0.00000000 0.00000000 0.00000000 0.00000000 0.00000000 -1.57079600
48 -4.16381200 1.79473400 -4.25436000 0.00000000 0.00000000 -3.14156200
49 -4.84986154 17.07989945 -1.23333869 0.51455385 -0.01068266 -0.88793099
50 9.68055049 0.76709533 -4.42390907 0.66994200 1.22657000 2.14442700
51 2.97751900 0.00125700 -1.28020400 0.00000000 0.00000000 0.00000000
52 -1.13600500 -0.00628100 -0.29562500 0.00000000 0.00000000 0.00000000
53 0.05843500 0.00066700 0.09728300 0.00000000 0.00000000 0.00000000
54 -1.09087800 0.04617100 0.46137700 0.00000000 0.00000000 0.00000000
55 0.76532200 -0.03277500 -1.35591700 0.00000000 0.00000000 0.00000000
56 -10.18440400 -0.01003900 1.60133600 0.00000000 0.00000000 0.00000000
57 -21.17495700 0.16805800 -1.06791200 0.00000000 0.00000000 0.00000000
58 -4.17994500 -2.40243000 -1.82029200 -2.93780700 1.27049300 -2.15177200
time 5
0 -0.00000100 7.45008900 -27.50902600 0.00000000 0.00000000 0.00003100
1 -0.00000200 0.00000000 0.00000000 1.57074700 -1.56714200 -1.57074700
2 4.25546600 -0.33518300 -0.00000200 0.00000000 0.00000000 -0.12484800
3 7.43125000 1.49647900 0.00000200 0.00000000 0.00000000 0.24545000
4 5.27847900 0.16554400 0.00000100 0.00000000 0.00000000 0.04851100
5 4.09758123 -5.20975680 0.16227419 1.97586500 1.15990900 -1.29878600
6 -6.21447800 -0.00000900 -0.00002600 3.12578765 -0.52981230 2.01092336
7 11.94488500 0.00000000 0.00000000 -0.36572340 -0.35307115 1.57896347
8 10.62018800 0.00000000 0.00000000 0.66435117 -0.13910629 -3.10516241
9 -4.75110800 -0.69449800 0.83058000 -0.04275600 -0.14370200 0.21348200
10 -1.68806800 0.00004700 -0.00003100 0.01416200 -0.02030400 0.83076300
11 -1.33614000 0.00005500 -0.00001000 0.02620400 -0.00294000 0.66573400
12 -4.82049400 -0.50946400 -0.22475900 -0.47850200 -0.28490200 1.21053600
13 -1.82698400 -0.00006900 0.00000800 0.01386400 0.03805500 1.62217300
14 -1.43656900 0.00000400 0.00000300 -0.01732100 -0.07578600 0.13241200
15 -3.99235700 -0.89119100 -1.82790900 -0.68571500 0.29337500 1.78792400
16 -1.40591800 -0.00002500 -0.00000200 -0.00474800 -0.02908900 1.03564800
17 -1.17535800 0.00012600 -0.00001900 0.03337100 0.05922500 0.41712000
18 -4.52675100 -0.69058000 -1.12074100 -0.58814800 -0.00853300 1.62350700
19 -1.74403800 0.00003200 -0.00000800 -0.07404200 0.08160700 1.50629900
20 -1.36877100 0.00002300 0.00000200 0.00993500 0.05150500 0.08698400
21 -2.03839569 -0.89278969 0.93250400 1.93898400 0.21538600 0.74875200
22 -1.70606969 0.14881976 0.13171369 -0.00729200 0.04641800 0.40163700
23 -1.59928500 0.00001100 0.00001500 0.02997200 -0.03067600 0.77840300
24 5.51182000 0.00000800 -0.00000200 2.10196205 0.00133094 3.14078467
25 0.19684600 -0.00000200 0.00000300 2.79340670 -0.00135498 -3.14130791
26 -1.29483000 -15.58672000 -4.01722200 1.97586200 1.15991000 1.84280300
27 6.21448600 0.00000800 0.00001900 -2.21513623 0.65831389 -1.81460853
28 11.94488800 -0.00003100 -0.00020000 -1.76264842 1.25757926 -2.52321640
29 10.62016500 0.00000200 0.00000600 -3.06356875 -1.15982752 0.71690647
30 4.75115800 0.69437400 -0.83047400 0.01035400 -0.18701200 0.22546800
31 1.68806500 -0.00002200 0.00000200 0.00871700 -0.02311100 1.07732400
32 1.33615100 -0.00005100 -0.00000900 -0.01966400 -0.03335100 0.90470300
33 4.82051500 0.50933800 0.22486600 -0.16078000 -0.19857400 0.43859100
34 1.82699200 0.00006600 0.00001000 0.02668100 0.03043800 1.99251200
35 1.43658100 -0.00000600 0.00001000 0.01484100 0.00319600 -0.94170300
36 3.99235300 0.89108700 1.82799300 -0.53062100 0.08867800 0.91105900
37 1.40592600 0.00003100 -0.00000300 -0.01988900 -0.02179500 1.61407600
38 1.17536200 -0.00013200 0.00000100 -0.09551900 0.07798600 -0.93359900
39 4.52675800 0.69046400 1.12084300 -0.40167000 -0.05563700 0.80364000
40 1.74404100 -0.00003100 -0.00000200 -0.02939300 -0.00337500 1.86812600
41 1.36876700 -0.00003100 -0.00001800 -0.12957300 0.09181900 -1.14340300
42 1.80926762 0.89529069 -1.12010931 1.99067500 0.37480500 0.55887600
43 1.49513738 -0.24140500 0.04487807 0.00360000 -0.23414300 0.03443400
44 1.57425022 -0.10445062 0.03324338 0.03981700 0.07342300 -0.24671300
45 5.48872238 -0.02716262 0.01694638 -0.87631700 0.01765400 0.01041400
46 0.19684900 0.00000300 -0.00000100 -0.34822500 0.00001500 -0.00000200
47 0.00000000 0.00000000 0.00000000 0.00000000 0.00000000 -1.57079600
48 -4.16381200 1.79473400 -4.25436000 0.00000000 0.00000000 -3.14156200
49 -5.16880337 17.02693457 -1.22861732 0.49927931 -0.01283350 -0.88216237
50 9.68055049 0.76709533 -4.42390907 0.66994200 1.22657000 2.14442700
51 2.97751900 0.00125700 -1.28020400 0.00000000 0.00000000 0.00000000
52 -1.13600500 -0.00628100 -0.29562500 0.00000000 0.00000000 0.00000000
53 0.05843500 0.00066700 0.09728300 0.00000000 0.00000000 0.00000000
54 -1.09087800 0.04617100 0.46137700 0.00000000 0.00000000 0.00000000
55 0.76532200 -0.03277500 -1.35591700 0.00000000 0.00000000 0.00000000
56 -10.18440400 -0.01003900 1.60133600 0.00000000 0.00000000 0.00000000
57 -21.17495700 0.16805800 -1.06791200 0.00000000 0.00000000 0.00000000
58 -4.17994500 -2.40243000 -1.82029200 -2.93780700 1.27049300 -2.15177200
time 6
0 -0.00000100 7.45008900 -27.50902600 0.00000000 0.00000000 0.00003100
1 -0.00000200 0.00000000 0.00000000 1.57074700 -1.56714200 -1.57074700
2 4.25546600 -0.33518300 -0.00000200 0.00000000 0.00000000 -0.12484800
3 7.43125000 1.49647900 0.00000200 0.00000000 0.00000000 0.24545000
4 5.27847900 0.16554400 0.00000100 0.00000000 0.00000000 0.04851100
5 4.48260090 -4.68148360 -0.24967122 1.97586500 1.15990900 -1.29878600
6 -6.21447800 -0.00000900 -0.00002600 3.12823028 -0.54234377 1.99754833
7 11.94488500 0.00000000 0.00000000 -0.34810768 -0.36355489 1.52669432
8 10.62018800 0.00000000 0.00000000 0.68093735 -0.13466344 -3.08759657
9 -4.75110800 -0.69449800 0.83058000 -0.04275600 -0.14370200 0.21348200
10 -1.68806800 0.00004700 -0.00003100 0.01416200 -0.02030400 0.83076300
11 -1.33614000 0.00005500 -0.00001000 0.02620400 -0.00294000 0.66573400
12 -4.82049400 -0.50946400 -0.22475900 -0.47850200 -0.28490200 1.21053600
13 -1.82698400 -0.00006900 0.00000800 0.01386400 0.03805500 1.62217300
14 -1.43656900 0.00000400 0.00000300 -0.01732100 -0.07578600 0.13241200
15 -3.99235700 -0.89119100 -1.82790900 -0.68571500 0.29337500 1.78792400
16 -1.40591800 -0.00002500 -0.00000200 -0.00474800 -0.02908900 1.03564800
17 -1.17535800 0.00012600 -0.00001900 0.03337100 0.05922500 0.41712000
18 -4.52675100 -0.69058000 -1.12074100 -0.58814800 -0.00853300 1.62350700
19 -1.74403800 0.00003200 -0.00000800 -0.07404200 0.08160700 1.50629900
20 -1.36877100 0.00002300 0.00000200 0.00993500 0.05150500 0.08698400
21 -2.03839569 -0.89278969 0.93250400 1.93898400 0.21538600 0.74875200
22 -1.70606969 0.14881976 0.13171369 -0.00729200 0.04641800 0.40163700
23 -1.59928500 0.00001100 0.00001500 0.02997200 -0.03067600 0.77840300
24 5.51182000 0.00000800 -0.00000200 2.10196205 0.00133094 3.14078467
25 0.19684600 -0.00000200 0.00000300 2.79340670 -0.00135498 -3.14130791
26 -1.29483000 -15.58672000 -4.01722200 1.97586200 1.15991000 1.84280300
27 6.21448600 0.00000800 0.00001900 -2.22139013 0.66811810 -1.80024141
28 11.94488800 -0.00003100 -0.00020000 -1.80655228 1.25492048 -2.56965432
29 10.62016500 0.00000200 0.00000600 -3.09981611 -1.13615033 0.75654671
30 4.75115800 0.69437400 -0.83047400 0.01035400 -0.18701200 0.22546800
31 1.68806500 -0.00002200 0.00000200 0.00871700 -0.02311100 1.07732400
32 1.33615100 -0.00005100 -0.00000900 -0.01966400 -0.03335100 0.90470300
33 4.82051500 0.50933800 0.22486600 -0.16078000 -0.19857400 0.43859100
34 1.82699200 0.00006600 0.00001000 0.02668100 0.03043800 1.99251200
35 1.43658100 -0.00000600 0.00001000 0.01484100 0.00319600 -0.94170300
36 3.99235300 0.89108700 1.82799300 -0.53062100 0.08867800 0.91105900
37 1.40592600 0.00003100 -0.00000300 -0.01988900 -0.02179500 1.61407600
38 1.17536200 -0.00013200 0.00000100 -0.09551900 0.07798600 -0.93359900
39 4.52675800 0.69046400 1.12084300 -0.40167000 -0.05563700 0.80364000
40 1.74404100 -0.00003100 -0.00000200 -0.02939300 -0.00337500 1.86812600
41 1.36876700 -0.00003100 -0.00001800 -0.12957300 0.09181900 -1.14340300
42 1.80926762 0.89529069 -1.12010931 1.99067500 0.37480500 0.55887600
43 1.49513738 -0.24140500 0.04487807 0.00360000 -0.23414300 0.03443400
44 1.57425022 -0.10445062 0.03324338 0.03981700 0.07342300 -0.24671300
45 5.48872238 -0.02716262 0.01694638 -0.87631700 0.01765400 0.01041400
46 0.19684900 0.00000300 -0.00000100 -0.34822500 0.00001500 -0.00000200
47 0.00000000 0.00000000 0.00000000 0.00000000 0.00000000 -1.57079600
48 -4.16381200 1.79473400 -4.25436000 0.00000000 0.00000000 -3.14156200
49 -5.35113621 16.96786639 -1.31523417 0.49098985 -0.02227241 -0.90037349
50 9.68055049 0.76709533 -4.42390907 0.66994200 1.22657000 2.14442700
51 2.97751900 0.00125700 -1.28020400 0.00000000 0.00000000 0.00000000
52 -1.13600500 -0.00628100 -0.29562500 0.00000000 0.00000000 0.00000000
53 0.05843500 0.00066700 0.09728300 0.00000000 0.00000000 0.00000000
54 -1.09087800 0.04617100 0.46137700 0.00000000 0.00000000 0.00000000
55 0.76532200 -0.03277500 -1.35591700 0.00000000 0.00000000 0.00000000
56 -10.18440400 -0.01003900 1.60133600 0.00000000 0.00000000 0.00000000
57 -21.17495700 0.16805800 -1.06791200 0.00000000 0.00000000 0.00000000
58 -4.17994500 -2.40243000 -1.82029200 -2.93780700 1.27049300 -2.15177200
time 7
0 -0.00000100 7.45008900 -27.50902600 0.00000000 0.00000000 0.00003100
1 -0.00000200 0.00000000 0.00000000 1.57074700 -1.56714200 -1.57074700
2 4.25546600 -0.33518300 -0.00000200 0.00000000 0.00000000 -0.12484800
3 7.43125000 1.49647900 0.00000200 0.00000000 0.00000000 0.24545000
4 5.27847900 0.16554400 0.00000100 0.00000000 0.00000000 0.04851100
5 4.92396399 -4.07590344 -0.72190094 1.97586500 1.15990900 -1.29878600
6 -6.21447800 -0.00000900 -0.00002600 3.12521785 -0.55530366 2.00048019
7 11.94488500 0.00000000 0.00000000 -0.33770170 -0.36914043 1.49650255
8 10.62018800 0.00000000 0.00000000 0.69967179 -0.13082498 -3.10797472
9 -4.75110800 -0.69449800 0.83058000 -0.04275600 -0.14370200 0.21348200
10 -1.68806800 0.00004700 -0.00003100 0.01416200 -0.02030400 0.83076300
11 -1.33614000 0.00005500 -0.00001000 0.02620400 -0.00294000 0.66573400
12 -4.82049400 -0.50946400 -0.22475900 -0.47850200 -0.28490200 1.21053600
13 -1.82698400 -0.00006900 0.00000800 0.01386400 0.03805500 1.62217300
14 -1.43656900 0.00000400 0.00000300 -0.01732100 -0.07578600 0.13241200
15 -3.99235700 -0.89119100 -1.82790900 -0.68571500 0.29337500 1.78792400
16 -1.40591800 -0.00002500 -0.00000200 -0.00474800 -0.02908900 1.03564800
17 -1.17535800 0.00012600 -0.00001900 0.03337100 0.05922500 0.41712000
18 -4.52675100 -0.69058000 -1.12074100 -0.58814800 -0.00853300 1.62350700
19 -1.74403800 0.00003200 -0.00000800 -0.07404200 0.08160700 1.50629900
20 -1.36877100 0.00002300 0.00000200 0.00993500 0.05150500 0.08698400
21 -2.03839569 -0.89278969 0.93250400 1.93898400 0.21538600 0.74875200
22 -1.70606969 0.14881976 0.13171369 -0.00729200 0.04641800 0.40163700
23 -1.59928500 0.00001100 0.00001500 0.02997200 -0.03067600 0.77840300
24 5.51182000 0.00000800 -0.00000200 2.10196205 0.00133094 3.14078467
25 0.19684600 -0.00000200 0.00000300 2.79340670 -0.00135498 -3.14130791
26 -1.29483000 -15.58672000 -4.01722200 1.97586200 1.15991000 1.84280300
27 6.21448600 0.00000800 0.00001900 -2.22074159 0.67674279 -1.79721457
28 11.94488800 -0.00003100 -0.00020000 -1.83248691 1.26661115 -2.59701215
29 10.62016500 0.00000200 0.00000600 3.12651173 -1.09470852 0.80263689
30 4.75115800 0.69437400 -0.83047400 0.01035400 -0.18701200 0.22546800
31 1.68806500 -0.00002200 0.00000200 0.00871700 -0.02311100 1.07732400
32 1.33615100 -0.00005100 -0.00000900 -0.01966400 -0.03335100 0.90470300
33 4.82051500 0.50933800 0.22486600 -0.16078000 -0.19857400 0.43859100
34 1.82699200 0.00006600 0.00001000 0.02668100 0.03043800 1.99251200
35 1.43658100 -0.00000600 0.00001000 0.01484100 0.00319600 -0.94170300
36 3.99235300 0.89108700 1.82799300 -0.53062100 0.08867800 0.91105900
37 1.40592600 0.00003100 -0.00000300 -0.01988900 -0.02179500 1.61407600
38 1.17536200 -0.00013200 0.00000100 -0.09551900 0.07798600 -0.93359900
39 4.52675800 0.69046400 1.12084300 -0.40167000 -0.05563700 0.80364000
40 1.74404100 -0.00003100 -0.00000200 -0.02939300 -0.00337500 1.86812600
41 1.36876700 -0.00003100 -0.00001800 -0.12957300 0.09181900 -1.14340300
42 1.80926762 0.89529069 -1.12010931 1.99067500 0.37480500 0.55887600
43 1.49513738 -0.24140500 0.04487807 0.00360000 -0.23414300 0.03443400
44 1.57425022 -0.10445062 0.03324338 0.03981700 0.07342300 -0.24671300
45 5.48872238 -0.02716262 0.01694638 -0.87631700 0.01765400 0.01041400
46 0.19684900 0.00000300 -0.00000100 -0.34822500 0.00001500 -0.00000200
47 0.00000000 0.00000000 0.00000000 0.00000000 0.00000000 -1.57079600
48 -4.16381200 1.79473400 -4.25436000 0.00000000 0.00000000 -3.14156200
49 -5.35521867 16.90476339 -1.44626515 0.47635142 -0.04133915 -0.94684236
50 9.68055049 0.76709533 -4.42390907 0.66994200 1.22657000 2.14442700
51 2.97751900 0.00125700 -1.28020400 0.00000000 0.00000000 0.00000000
52 -1.13600500 -0.00628100 -0.29562500 0.00000000 0.00000000 0.00000000
53 0.05843500 0.00066700 0.09728300 0.00000000 0.00000000 0.00000000
54 -1.09087800 0.04617100 0.46137700 0.00000000 0.00000000 0.00000000
55 0.76532200 -0.03277500 -1.35591700 0.00000000 0.00000000 0.00000000
56 -10.18440400 -0.01003900 1.60133600 0.00000000 0.00000000 0.00000000
57 -21.17495700 0.16805800 -1.06791200 0.00000000 0.00000000 0.00000000
58 -4.17994500 -2.40243000 -1.82029200 -2.93780700 1.27049300 -2.15177200
time 8
0 -0.00000100 7.45008900 -27.50902600 0.00000000 0.00000000 0.00003100
1 -0.00000200 0.00000000 0.00000000 1.57074700 -1.56714200 -1.57074700
2 4.25546600 -0.33518300 -0.00000200 0.00000000 0.00000000 -0.12484800
3 7.43125000 1.49647900 0.00000200 0.00000000 0.00000000 0.24545000
4 5.27847900 0.16554400 0.00000100 0.00000000 0.00000000 0.04851100
5 5.36532769 -3.47032266 -1.19413066 1.97586500 1.15990900 -1.29878600
6 -6.21447800 -0.00000900 -0.00002600 3.13002937 -0.56207369 2.00758960
7 11.94488500 0.00000000 0.00000000 -0.33707104 -0.36986788 1.49523192
8 10.62018800 0.00000000 0.00000000 0.70318626 -0.15914034 3.10892147
9 -4.75110800 -0.69449800 0.83058000 -0.04275600 -0.14370200 0.21348200
10 -1.68806800 0.00004700 -0.00003100 0.01416200 -0.02030400 0.83076300
11 -1.33614000 0.00005500 -0.00001000 0.02620400 -0.00294000 0.66573400
12 -4.82049400 -0.50946400 -0.22475900 -0.47850200 -0.28490200 1.21053600
13 -1.82698400 -0.00006900 0.00000800 0.01386400 0.03805500 1.62217300
14 -1.43656900 0.00000400 0.00000300 -0.01732100 -0.07578600 0.13241200
15 -3.99235700 -0.89119100 -1.82790900 -0.68571500 0.29337500 1.78792400
16 -1.40591800 -0.00002500 -0.00000200 -0.00474800 -0.02908900 1.03564800
17 -1.17535800 0.00012600 -0.00001900 0.03337100 0.05922500 0.41712000
18 -4.52675100 -0.69058000 -1.12074100 -0.58814800 -0.00853300 1.62350700
19 -1.74403800 0.00003200 -0.00000800 -0.07404200 0.08160700 1.50629900
20 -1.36877100 0.00002300 0.00000200 0.00993500 0.05150500 0.08698400
21 -2.03839569 -0.89278969 0.93250331 1.93898400 0.21538600 0.74875200
22 -1.70606969 0.14881976 0.13171369 -0.00729200 0.04641800 0.40163700
23 -1.59928500 0.00001100 0.00001500 0.02997200 -0.03067600 0.77840300
24 5.51182000 0.00000800 -0.00000200 2.10196205 0.00133094 3.14078467
25 0.19684600 -0.00000200 0.00000300 2.79340670 -0.00135498 -3.14130791
26 -1.29483000 -15.58672000 -4.01722200 1.97586200 1.15991000 1.84280300
27 6.21448600 0.00000800 0.00001900 -2.21372056 0.68850585 -1.79790451
28 11.94488800 -0.00003100 -0.00020000 -1.86133748 1.27511936 -2.62718721
29 10.62016500 0.00000200 0.00000600 3.02435884 -1.05034688 0.90103682
30 4.75115800 0.69437400 -0.83047400 0.01035400 -0.18701200 0.22546800
31 1.68806500 -0.00002200 0.00000200 0.00871700 -0.02311100 1.07732400
32 1.33615100 -0.00005100 -0.00000900 -0.01966400 -0.03335100 0.90470300
33 4.82051500 0.50933800 0.22486600 -0.16078000 -0.19857400 0.43859100
34 1.82699200 0.00006600 0.00001000 0.02668100 0.03043800 1.99251200
35 1.43658100 -0.00000600 0.00001000 0.01484100 0.00319600 -0.94170300
36 3.99235300 0.89108700 1.82799300 -0.53062100 0.08867800 0.91105900
37 1.40592600 0.00003100 -0.00000300 -0.01988900 -0.02179500 1.61407600
38 1.17536200 -0.00013200 0.00000100 -0.09551900 0.07798600 -0.93359900
39 4.52675800 0.69046400 1.12084300 -0.40167000 -0.05563700 0.80364000
40 1.74404100 -0.00003100 -0.00000200 -0.02939300 -0.00337500 1.86812600
41 1.36876700 -0.00003100 -0.00001800 -0.12957300 0.09181900 -1.14340300
42 1.80926900 0.89529069 -1.12011069 1.99067500 0.37480500 0.55887600
43 1.49513462 -0.24140500 0.04487669 0.00360000 -0.23414300 0.03443400
44 1.57424469 -0.10445131 0.03324338 0.03981700 0.07342300 -0.24671300
45 5.48872238 -0.02716331 0.01694638 -0.87631700 0.01765400 0.01041400
46 0.19684900 0.00000300 -0.00000100 -0.34822500 0.00001500 -0.00000200
47 0.00000000 0.00000000 0.00000000 0.00000000 0.00000000 -1.57079600
48 -4.16381200 1.79473400 -4.25436000 0.00000000 0.00000000 -3.14156200
49 -5.29859465 16.83969776 -1.54156090 0.44431428 -0.08652493 -1.00388321
50 9.68055049 0.76709326 -4.42390631 0.66994200 1.22657000 2.14442700
51 2.97751900 0.00125700 -1.28020400 0.00000000 0.00000000 0.00000000
52 -1.13600500 -0.00628100 -0.29562500 0.00000000 0.00000000 0.00000000
53 0.05843500 0.00066700 0.09728300 0.00000000 0.00000000 0.00000000
54 -1.09087800 0.04617100 0.46137700 0.00000000 0.00000000 0.00000000
55 0.76532200 -0.03277500 -1.35591700 0.00000000 0.00000000 0.00000000
56 -10.18440400 -0.01003900 1.60133600 0.00000000 0.00000000 0.00000000
57 -21.17495700 0.16805800 -1.06791200 0.00000000 0.00000000 0.00000000
58 -4.17994500 -2.40243000 -1.82029200 -2.93780700 1.27049300 -2.15177200
time 9
0 -0.00000100 7.45008900 -27.50902600 0.00000000 0.00000000 0.00003100
1 -0.00000200 0.00000000 0.00000000 1.57074700 -1.56714200 -1.57074700
2 4.25546600 -0.33518300 -0.00000200 0.00000000 0.00000000 -0.12484800
3 7.43125000 1.49647900 0.00000200 0.00000000 0.00000000 0.24545000
4 5.27847900 0.16554400 0.00000100 0.00000000 0.00000000 0.04851100
5 5.75034674 -2.94205009 -1.60607607 1.97586500 1.15990900 -1.29878600
6 -6.21447800 -0.00000900 -0.00002600 3.14092613 -0.56411262 2.01456581
7 11.94488500 0.00000000 0.00000000 -0.33753897 -0.36848815 1.49688146
8 10.62018800 0.00000000 0.00000000 0.70702234 -0.19116672 3.04439146
9 -4.75110800 -0.69449800 0.83058000 -0.04275600 -0.14370200 0.21348200
10 -1.68806800 0.00004700 -0.00003100 0.01416200 -0.02030400 0.83076300
11 -1.33614000 0.00005500 -0.00001000 0.02620400 -0.00294000 0.66573400
12 -4.82049400 -0.50946400 -0.22475900 -0.47850200 -0.28490200 1.21053600
13 -1.82698400 -0.00006900 0.00000800 0.01386400 0.03805500 1.62217300
14 -1.43656900 0.00000400 0.00000300 -0.01732100 -0.07578600 0.13241200
15 -3.99235700 -0.89119100 -1.82790900 -0.68571500 0.29337500 1.78792400
16 -1.40591800 -0.00002500 -0.00000200 -0.00474800 -0.02908900 1.03564800
17 -1.17535800 0.00012600 -0.00001900 0.03337100 0.05922500 0.41712000
18 -4.52675100 -0.69058000 -1.12074100 -0.58814800 -0.00853300 1.62350700
19 -1.74403800 0.00003200 -0.00000800 -0.07404200 0.08160700 1.50629900
20 -1.36877100 0.00002300 0.00000200 0.00993500 0.05150500 0.08698400
21 -2.03839569 -0.89278969 0.93250331 1.93898400 0.21538600 0.74875200
22 -1.70606969 0.14881976 0.13171369 -0.00729200 0.04641800 0.40163700
23 -1.59928500 0.00001100 0.00001500 0.02997200 -0.03067600 0.77840300
24 5.51182000 0.00000800 -0.00000200 2.10196205 0.00133094 3.14078467
25 0.19684600 -0.00000200 0.00000300 2.79340670 -0.00135498 -3.14130791
26 -1.29483000 -15.58672000 -4.01722200 1.97586200 1.15991000 1.84280300
27 6.21448600 0.00000800 0.00001900 -2.20021524 0.69471882 -1.80669406
28 11.94488800 -0.00003100 -0.00020000 -1.86784762 1.28441830 -2.63364989
29 10.62016500 0.00000200 0.00000600 2.93821842 -1.01107779 0.97876052
30 4.75115800 0.69437400 -0.83047400 0.01035400 -0.18701200 0.22546800
31 1.68806500 -0.00002200 0.00000200 0.00871700 -0.02311100 1.07732400
32 1.33615100 -0.00005100 -0.00000900 -0.01966400 -0.03335100 0.90470300
33 4.82051500 0.50933800 0.22486600 -0.16078000 -0.19857400 0.43859100
34 1.82699200 0.00006600 0.00001000 0.02668100 0.03043800 1.99251200
35 1.43658100 -0.00000600 0.00001000 0.01484100 0.00319600 -0.94170300
36 3.99235300 0.89108700 1.82799300 -0.53062100 0.08867800 0.91105900
37 1.40592600 0.00003100 -0.00000300 -0.01988900 -0.02179500 1.61407600
38 1.17536200 -0.00013200 0.00000100 -0.09551900 0.07798600 -0.93359900
39 4.52675800 0.69046400 1.12084300 -0.40167000 -0.05563700 0.80364000
40 1.74404100 -0.00003100 -0.00000200 -0.02939300 -0.00337500 1.86812600
41 1.36876700 -0.00003100 -0.00001800 -0.12957300 0.09181900 -1.14340300
42 1.80926900 0.89529069 -1.12011069 1.99067500 0.37480500 0.55887600
43 1.49513462 -0.24140500 0.04487669 0.00360000 -0.23414300 0.03443400
44 1.57424469 -0.10445131 0.03324338 0.03981700 0.07342300 -0.24671300
45 5.48872238 -0.02716331 0.01694638 -0.87631700 0.01765400 0.01041400
46 0.19684900 0.00000300 -0.00000100 -0.34822500 0.00001500 -0.00000200
47 0.00000000 0.00000000 0.00000000 0.00000000 0.00000000 -1.57079600
48 -4.16381200 1.79473400 -4.25436000 0.00000000 0.00000000 -3.14156200
49 -5.13899190 16.77498874 -1.58773584 0.41774804 -0.13063991 -1.05703134
50 9.68055049 0.76709326 -4.42390631 0.66994200 1.22657000 2.14442700
51 2.97751900 0.00125700 -1.28020400 0.00000000 0.00000000 0.00000000
52 -1.13600500 -0.00628100 -0.29562500 0.00000000 0.00000000 0.00000000
53 0.05843500 0.00066700 0.09728300 0.00000000 0.00000000 0.00000000
54 -1.09087800 0.04617100 0.46137700 0.00000000 0.00000000 0.00000000
55 0.76532200 -0.03277500 -1.35591700 0.00000000 0.00000000 0.00000000
56 -10.18440400 -0.01003900 1.60133600 0.00000000 0.00000000 0.00000000
57 -21.17495700 0.16805800 -1.06791200 0.00000000 0.00000000 0.00000000
58 -4.17994500 -2.40243000 -1.82029200 -2.93780700 1.27049300 -2.15177200
time 10
0 -0.00000100 7.45008900 -27.50902600 0.00000000 0.00000000 0.00003100
1 -0.00000200 0.00000000 0.00000000 1.57074700 -1.56714200 -1.57074700
2 4.25546600 -0.33518300 -0.00000200 0.00000000 0.00000000 -0.12484800
3 7.43125000 1.49647900 0.00000200 0.00000000 0.00000000 0.24545000
4 5.27847900 0.16554400 0.00000100 0.00000000 0.00000000 0.04851100
5 6.02267773 -2.56839390 -1.89745226 1.97586500 1.15990900 -1.29878600
6 -6.21447800 -0.00000900 -0.00002600 3.13900864 -0.56696596 2.03250057
7 11.94488500 0.00000000 0.00000000 -0.33524777 -0.36961163 1.48999691
8 10.62018800 0.00000000 0.00000000 0.71017928 -0.18549906 3.01766989
9 -4.75110800 -0.69449800 0.83058000 -0.04275600 -0.14370200 0.21348200
10 -1.68806800 0.00004700 -0.00003100 0.01416200 -0.02030400 0.83076300
11 -1.33614000 0.00005500 -0.00001000 0.02620400 -0.00294000 0.66573400
12 -4.82049400 -0.50946400 -0.22475900 -0.47850200 -0.28490200 1.21053600
13 -1.82698400 -0.00006900 0.00000800 0.01386400 0.03805500 1.62217300
14 -1.43656900 0.00000400 0.00000300 -0.01732100 -0.07578600 0.13241200
15 -3.99235700 -0.89119100 -1.82790900 -0.68571500 0.29337500 1.78792400
16 -1.40591800 -0.00002500 -0.00000200 -0.00474800 -0.02908900 1.03564800
17 -1.17535800 0.00012600 -0.00001900 0.03337100 0.05922500 0.41712000
18 -4.52675100 -0.69058000 -1.12074100 -0.58814800 -0.00853300 1.62350700
19 -1.74403800 0.00003200 -0.00000800 -0.07404200 0.08160700 1.50629900
20 -1.36877100 0.00002300 0.00000200 0.00993500 0.05150500 0.08698400
21 -2.03839569 -0.89278969 0.93250331 1.93898400 0.21538600 0.74875200
22 -1.70606969 0.14881976 0.13171369 -0.00729200 0.04641800 0.40163700
23 -1.59928500 0.00001100 0.00001500 0.02997200 -0.03067600 0.77840300
24 5.51182000 0.00000800 -0.00000200 2.10196205 0.00133094 3.14078467
25 0.19684600 -0.00000200 0.00000300 2.79340670 -0.00135498 -3.14130791
26 -1.29483000 -15.58672000 -4.01722200 1.97586200 1.15991000 1.84280300
27 6.21448600 0.00000800 0.00001900 -2.18186134 0.68481113 -1.83436074
28 11.94488800 -0.00003100 -0.00020000 -1.81081941 1.30524397 -2.57310002
29 10.62016500 0.00000200 0.00000600 2.91461178 -0.98711591 0.98710531
30 4.75115800 0.69437400 -0.83047400 0.01035400 -0.18701200 0.22546800
31 1.68806500 -0.00002200 0.00000200 0.00871700 -0.02311100 1.07732400
32 1.33615100 -0.00005100 -0.00000900 -0.01966400 -0.03335100 0.90470300
33 4.82051500 0.50933800 0.22486600 -0.16078000 -0.19857400 0.43859100
34 1.82699200 0.00006600 0.00001000 0.02668100 0.03043800 1.99251200
35 1.43658100 -0.00000600 0.00001000 0.01484100 0.00319600 -0.94170300
36 3.99235300 0.89108700 1.82799300 -0.53062100 0.08867800 0.91105900
37 1.40592600 0.00003100 -0.00000300 -0.01988900 -0.02179500 1.61407600
38 1.17536200 -0.00013200 0.00000100 -0.09551900 0.07798600 -0.93359900
39 4.52675800 0.69046400 1.12084300 -0.40167000 -0.05563700 0.80364000
40 1.74404100 -0.00003100 -0.00000200 -0.02939300 -0.00337500 1.86812600
41 1.36876700 -0.00003100 -0.00001800 -0.12957300 0.09181900 -1.14340300
42 1.80926900 0.89529069 -1.12011069 1.99067500 0.37480500 0.55887600
43 1.49513462 -0.24140500 0.04487669 0.00360000 -0.23414300 0.03443400
44 1.57424469 -0.10445131 0.03324338 0.03981700 0.07342300 -0.24671300
45 5.48872238 -0.02716331 0.01694638 -0.87631700 0.01765400 0.01041400
46 0.19684900 0.00000300 -0.00000100 -0.34822500 0.00001500 -0.00000200
47 0.00000000 0.00000000 0.00000000 0.00000000 0.00000000 -1.57079600
48 -4.16381200 1.79473400 -4.25436000 0.00000000 0.00000000 -3.14156200
49 -4.74773746 16.71319333 -1.59305975 0.40415785 -0.14214940 -1.10228920
50 9.68055049 0.76709326 -4.42390631 0.66994200 1.22657000 2.14442700
51 2.97751900 0.00125700 -1.28020400 0.00000000 0.00000000 0.00000000
52 -1.13600500 -0.00628100 -0.29562500 0.00000000 0.00000000 0.00000000
53 0.05843500 0.00066700 0.09728300 0.00000000 0.00000000 0.00000000
54 -1.09087800 0.04617100 0.46137700 0.00000000 0.00000000 0.00000000
55 0.76532200 -0.03277500 -1.35591700 0.00000000 0.00000000 0.00000000
56 -10.18440400 -0.01003900 1.60133600 0.00000000 0.00000000 0.00000000
57 -21.17495700 0.16805800 -1.06791200 0.00000000 0.00000000 0.00000000
58 -4.17994500 -2.40243000 -1.82029200 -2.93780700 1.27049300 -2.15177200
time 11
0 -0.00000100 7.45008900 -27.50902600 0.00000000 0.00000000 0.00003100
1 -0.00000200 0.00000000 0.00000000 1.57074700 -1.56714200 -1.57074700
2 4.25546600 -0.33518300 -0.00000200 0.00000000 0.00000000 -0.12484800
3 7.43125000 1.49647900 0.00000200 0.00000000 0.00000000 0.24545000
4 5.27847900 0.16554400 0.00000100 0.00000000 0.00000000 0.04851100
5 6.12597600 -2.42666200 -2.00797400 1.97586500 1.15990900 -1.29878600
6 -6.21447800 -0.00000900 -0.00002600 3.13235381 -0.57383462 2.06018884
7 11.94488500 0.00000000 0.00000000 -0.34460277 -0.37170482 1.51755616
8 10.62018800 0.00000000 0.00000000 0.71558231 -0.17707414 2.97105352
9 -4.75110800 -0.69449800 0.83058000 -0.04275600 -0.14370200 0.21348200
10 -1.68806800 0.00004700 -0.00003100 0.01416200 -0.02030400 0.83076300
11 -1.33614000 0.00005500 -0.00001000 0.02620400 -0.00294000 0.66573400
12 -4.82049400 -0.50946400 -0.22475900 -0.47850200 -0.28490200 1.21053600
13 -1.82698400 -0.00006900 0.00000800 0.01386400 0.03805500 1.62217300
14 -1.43656900 0.00000400 0.00000300 -0.01732100 -0.07578600 0.13241200
15 -3.99235700 -0.89119100 -1.82790900 -0.68571500 0.29337500 1.78792400
16 -1.40591800 -0.00002500 -0.00000200 -0.00474800 -0.02908900 1.03564800
17 -1.17535800 0.00012600 -0.00001900 0.03337100 0.05922500 0.41712000
18 -4.52675100 -0.69058000 -1.12074100 -0.58814800 -0.00853300 1.62350700
19 -1.74403800 0.00003200 -0.00000800 -0.07404200 0.08160700 1.50629900
20 -1.36877100 0.00002300 0.00000200 0.00993500 0.05150500 0.08698400
21 -2.03839569 -0.89278969 0.93250331 1.93898400 0.21538600 0.74875200
22 -1.70606969 0.14881976 0.13171369 -0.00729200 0.04641800 0.40163700
23 -1.59928500 0.00001100 0.00001500 0.02997200 -0.03067600 0.77840300
24 5.51182000 0.00000800 -0.00000200 2.10196205 0.00133094 3.14078467
25 0.19684600 -0.00000200 0.00000300 2.79340670 -0.00135498 -3.14130791
26 -1.29483000 -15.58672000 -4.01722200 1.97586200 1.15991000 1.84280300
27 6.21448600 0.00000800 0.00001900 -2.16490340 0.66381408 -1.87632329
28 11.94488800 -0.00003100 -0.00020000 -1.69365264 1.33281534 -2.45045704
29 10.62016500 0.00000200 0.00000600 2.90855999 -0.96341203 0.97920095
30 4.75115800 0.69437400 -0.83047400 0.01035400 -0.18701200 0.22546800
31 1.68806500 -0.00002200 0.00000200 0.00871700 -0.02311100 1.07732400
32 1.33615100 -0.00005100 -0.00000900 -0.01966400 -0.03335100 0.90470300
33 4.82051500 0.50933800 0.22486600 -0.16078000 -0.19857400 0.43859100
34 1.82699200 0.00006600 0.00001000 0.02668100 0.03043800 1.99251200
35 1.43658100 -0.00000600 0.00001000 0.01484100 0.00319600 -0.94170300
36 3.99235300 0.89108700 1.82799300 -0.53062100 0.08867800 0.91105900
37 1.40592600 0.00003100 -0.00000300 -0.01988900 -0.02179500 1.61407600
38 1.17536200 -0.00013200 0.00000100 -0.09551900 0.07798600 -0.93359900
39 4.52675800 0.69046400 1.12084300 -0.40167000 -0.05563700 0.80364000
40 1.74404100 -0.00003100 -0.00000200 -0.02939300 -0.00337500 1.86812600
41 1.36876700 -0.00003100 -0.00001800 -0.12957300 0.09181900 -1.14340300
42 1.80926900 0.89529069 -1.12011069 1.99067500 0.37480500 0.55887600
43 1.49513462 -0.24140500 0.04487669 0.00360000 -0.23414300 0.03443400
44 1.57424469 -0.10445131 0.03324338 0.03981700 0.07342300 -0.24671300
45 5.48872238 -0.02716331 0.01694638 -0.87631700 0.01765400 0.01041400
46 0.19684900 0.00000300 -0.00000100 -0.34822500 0.00001500 -0.00000200
47 0.00000000 0.00000000 0.00000000 0.00000000 0.00000000 -1.57079600
48 -4.16381200 1.79473400 -4.25436000 0.00000000 0.00000000 -3.14156200
49 -4.22573174 16.65687935 -1.51970794 0.39113258 -0.14322387 -1.15012976
50 9.68055049 0.76709326 -4.42390631 0.66994200 1.22657000 2.14442700
51 2.97751900 0.00125700 -1.28020400 0.00000000 0.00000000 0.00000000
52 -1.13600500 -0.00628100 -0.29562500 0.00000000 0.00000000 0.00000000
53 0.05843500 0.00066700 0.09728300 0.00000000 0.00000000 0.00000000
54 -1.09087800 0.04617100 0.46137700 0.00000000 0.00000000 0.00000000
55 0.76532200 -0.03277500 -1.35591700 0.00000000 0.00000000 0.00000000
56 -10.18440400 -0.01003900 1.60133600 0.00000000 0.00000000 0.00000000
57 -21.17495700 0.16805800 -1.06791200 0.00000000 0.00000000 0.00000000
58 -4.17994500 -2.40243000 -1.82029200 -2.93780700 1.27049300 -2.15177200
time 12
0 -0.00000100 7.45008900 -27.50902600 0.00000000 0.00000000 0.00003100
1 -0.00000200 0.00000000 0.00000000 1.57074700 -1.56714200 -1.57074700
2 4.25546600 -0.33518300 -0.00000200 0.00000000 0.00000000 -0.12484800
3 7.43125000 1.49647900 0.00000200 0.00000000 0.00000000 0.24545000
4 5.27847900 0.16554400 0.00000100 0.00000000 0.00000000 0.04851100
5 6.12597600 -2.42666200 -2.00797400 1.97586500 1.15990900 -1.29878600
6 -6.21447800 -0.00000900 -0.00002600 3.13708492 -0.58096431 2.07866939
7 11.94488500 0.00000000 0.00000000 -0.36169908 -0.37167237 1.56787387
8 10.62018800 0.00000000 0.00000000 0.73016983 -0.17366552 2.90340814
9 -4.75110800 -0.69449800 0.83058000 -0.04275600 -0.14370200 0.21348200
10 -1.68806800 0.00004700 -0.00003100 0.01416200 -0.02030400 0.83076300
11 -1.33614000 0.00005500 -0.00001000 0.02620400 -0.00294000 0.66573400
12 -4.82049400 -0.50946400 -0.22475900 -0.47850200 -0.28490200 1.21053600
13 -1.82698400 -0.00006900 0.00000800 0.01386400 0.03805500 1.62217300
14 -1.43656900 0.00000400 0.00000300 -0.01732100 -0.07578600 0.13241200
15 -3.99235700 -0.89119100 -1.82790900 -0.68571500 0.29337500 1.78792400
16 -1.40591800 -0.00002500 -0.00000200 -0.00474800 -0.02908900 1.03564800
17 -1.17535800 0.00012600 -0.00001900 0.03337100 0.05922500 0.41712000
18 -4.52675100 -0.69058000 -1.12074100 -0.58814800 -0.00853300 1.62350700
19 -1.74403800 0.00003200 -0.00000800 -0.07404200 0.08160700 1.50629900
20 -1.36877100 0.00002300 0.00000200 0.00993500 0.05150500 0.08698400
21 -2.03839569 -0.89278969 0.93250331 1.93898400 0.21538600 0.74875200
22 -1.70606969 0.14881976 0.13171369 -0.00729200 0.04641800 0.40163700
23 -1.59928500 0.00001100 0.00001500 0.02997200 -0.03067600 0.77840300
24 5.51182000 0.00000800 -0.00000200 2.10196205 0.00133094 3.14078467
25 0.19684600 -0.00000200 0.00000300 2.79340670 -0.00135498 -3.14130791
26 -1.29483000 -15.58672000 -4.01722200 1.97586200 1.15991000 1.84280300
27 6.21448600 0.00000800 0.00001900 -2.17848811 0.63576642 -1.93200816
28 11.94488800 -0.00003100 -0.00020000 -1.53178404 1.35940603 -2.28286088
29 10.62016500 0.00000200 0.00000600 2.92773886 -0.93433198 0.96810720
30 4.75115800 0.69437400 -0.83047400 0.01035400 -0.18701200 0.22546800
31 1.68806500 -0.00002200 0.00000200 0.00871700 -0.02311100 1.07732400
32 1.33615100 -0.00005100 -0.00000900 -0.01966400 -0.03335100 0.90470300
33 4.82051500 0.50933800 0.22486600 -0.16078000 -0.19857400 0.43859100
34 1.82699200 0.00006600 0.00001000 0.02668100 0.03043800 1.99251200
35 1.43658100 -0.00000600 0.00001000 0.01484100 0.00319600 -0.94170300
36 3.99235300 0.89108700 1.82799300 -0.53062100 0.08867800 0.91105900
37 1.40592600 0.00003100 -0.00000300 -0.01988900 -0.02179500 1.61407600
38 1.17536200 -0.00013200 0.00000100 -0.09551900 0.07798600 -0.93359900
39 4.52675800 0.69046400 1.12084300 -0.40167000 -0.05563700 0.80364000
40 1.74404100 -0.00003100 -0.00000200 -0.02939300 -0.00337500 1.86812600
41 1.36876700 -0.00003100 -0.00001800 -0.12957300 0.09181900 -1.14340300
42 1.80926900 0.89529069 -1.12011069 1.99067500 0.37480500 0.55887600
43 1.49513462 -0.24140500 0.04487669 0.00360000 -0.23414300 0.03443400
44 1.57424469 -0.10445131 0.03324338 0.03981700 0.07342300 -0.24671300
45 5.48872238 -0.02716331 0.01694638 -0.87631700 0.01765400 0.01041400
46 0.19684900 0.00000300 -0.00000100 -0.34822500 0.00001500 -0.00000200
47 0.00000000 0.00000000 0.00000000 0.00000000 0.00000000 -1.57079600
48 -4.16381200 1.79473400 -4.25436000 0.00000000 0.00000000 -3.14156200
49 -3.78410309 16.60861071 -1.22537529 0.38257644 -0.13631537 -1.19799808
50 9.68055049 0.76709326 -4.42390631 0.66994200 1.22657000 2.14442700
51 2.97751900 0.00125700 -1.28020400 0.00000000 0.00000000 0.00000000
52 -1.13600500 -0.00628100 -0.29562500 0.00000000 0.00000000 0.00000000
53 0.05843500 0.00066700 0.09728300 0.00000000 0.00000000 0.00000000
54 -1.09087800 0.04617100 0.46137700 0.00000000 0.00000000 0.00000000
55 0.76532200 -0.03277500 -1.35591700 0.00000000 0.00000000 0.00000000
56 -10.18440400 -0.01003900 1.60133600 0.00000000 0.00000000 0.00000000
57 -21.17495700 0.16805800 -1.06791200 0.00000000 0.00000000 0.00000000
58 -4.17994500 -2.40243000 -1.82029200 -2.93780700 1.27049300 -2.15177200
time 13
0 -0.00000100 7.45008900 -27.50902600 0.00000000 0.00000000 0.00003100
1 -0.00000200 0.00000000 0.00000000 1.57074700 -1.56714200 -1.57074700
2 4.25546600 -0.33518300 -0.00000200 0.00000000 0.00000000 -0.12484800
3 7.43125000 1.49647900 0.00000200 0.00000000 0.00000000 0.24545000
4 5.27847900 0.16554400 0.00000100 0.00000000 0.00000000 0.04851100
5 6.12597600 -2.42666200 -2.00797400 1.97586500 1.15990900 -1.29878600
6 -6.21447800 -0.00000900 -0.00002600 -3.12829799 -0.58607035 2.08499629
7 11.94488500 0.00000000 0.00000000 -0.37336697 -0.36927572 1.60227073
8 10.62018800 0.00000000 0.00000000 0.74441508 -0.16728526 2.85605814
9 -4.75110800 -0.69449800 0.83058000 -0.04275600 -0.14370200 0.21348200
10 -1.68806800 0.00004700 -0.00003100 0.01416200 -0.02030400 0.83076300
11 -1.33614000 0.00005500 -0.00001000 0.02620400 -0.00294000 0.66573400
12 -4.82049400 -0.50946400 -0.22475900 -0.47850200 -0.28490200 1.21053600
13 -1.82698400 -0.00006900 0.00000800 0.01386400 0.03805500 1.62217300
14 -1.43656900 0.00000400 0.00000300 -0.01732100 -0.07578600 0.13241200
15 -3.99235700 -0.89119100 -1.82790900 -0.68571500 0.29337500 1.78792400
16 -1.40591800 -0.00002500 -0.00000200 -0.00474800 -0.02908900 1.03564800
17 -1.17535800 0.00012600 -0.00001900 0.03337100 0.05922500 0.41712000
18 -4.52675100 -0.69058000 -1.12074100 -0.58814800 -0.00853300 1.62350700
19 -1.74403800 0.00003200 -0.00000800 -0.07404200 0.08160700 1.50629900
20 -1.36877100 0.00002300 0.00000200 0.00993500 0.05150500 0.08698400
21 -2.03839569 -0.89278969 0.93250331 1.93898400 0.21538600 0.74875200
22 -1.70606969 0.14881976 0.13171369 -0.00729200 0.04641800 0.40163700
23 -1.59928500 0.00001100 0.00001500 0.02997200 -0.03067600 0.77840300
24 5.51182000 0.00000800 -0.00000200 2.10196205 0.00133094 3.14078467
25 0.19684600 -0.00000200 0.00000300 2.79340670 -0.00135498 -3.14130791
26 -1.29483000 -15.58672000 -4.01722200 1.97586200 1.15991000 1.84280300
27 6.21448600 0.00000800 0.00001900 -2.20976268 0.60288775 -1.99059586
28 11.94488800 -0.00003100 -0.00020000 -1.32954235 1.37958959 -2.07538540
29 10.62016500 0.00000200 0.00000600 2.96649868 -0.91041775 0.95408934
30 4.75115800 0.69437400 -0.83047400 0.01035400 -0.18701200 0.22546800
31 1.68806500 -0.00002200 0.00000200 0.00871700 -0.02311100 1.07732400
32 1.33615100 -0.00005100 -0.00000900 -0.01966400 -0.03335100 0.90470300
33 4.82051500 0.50933800 0.22486600 -0.16078000 -0.19857400 0.43859100
34 1.82699200 0.00006600 0.00001000 0.02668100 0.03043800 1.99251200
35 1.43658100 -0.00000600 0.00001000 0.01484100 0.00319600 -0.94170300
36 3.99235300 0.89108700 1.82799300 -0.53062100 0.08867800 0.91105900
37 1.40592600 0.00003100 -0.00000300 -0.01988900 -0.02179500 1.61407600
38 1.17536200 -0.00013200 0.00000100 -0.09551900 0.07798600 -0.93359900
39 4.52675800 0.69046400 1.12084300 -0.40167000 -0.05563700 0.80364000
40 1.74404100 -0.00003100 -0.00000200 -0.02939300 -0.00337500 1.86812600
41 1.36876700 -0.00003100 -0.00001800 -0.12957300 0.09181900 -1.14340300
42 1.80926900 0.89529069 -1.12011069 1.99067500 0.37480500 0.55887600
43 1.49513462 -0.24140500 0.04487669 0.00360000 -0.23414300 0.03443400
44 1.57424469 -0.10445131 0.03324338 0.03981700 0.07342300 -0.24671300
45 5.48872238 -0.02716331 0.01694638 -0.87631700 0.01765400 0.01041400
46 0.19684900 0.00000300 -0.00000100 -0.34822500 0.00001500 -0.00000200
47 0.00000000 0.00000000 0.00000000 0.00000000 0.00000000 -1.57079600
48 -4.16381200 1.79473400 -4.25436000 0.00000000 0.00000000 -3.14156200
49 -3.41353571 16.57095461 -0.80027736 0.37601318 -0.11968591 -1.23553106
50 9.68055049 0.76709326 -4.42390631 0.66994200 1.22657000 2.14442700
51 2.97751900 0.00125700 -1.28020400 0.00000000 0.00000000 0.00000000
52 -1.13600500 -0.00628100 -0.29562500 0.00000000 0.00000000 0.00000000
53 0.05843500 0.00066700 0.09728300 0.00000000 0.00000000 0.00000000
54 -1.09087800 0.04617100 0.46137700 0.00000000 0.00000000 0.00000000
55 0.76532200 -0.03277500 -1.35591700 0.00000000 0.00000000 0.00000000
56 -10.18440400 -0.01003900 1.60133600 0.00000000 0.00000000 0.00000000
57 -21.17495700 0.16805800 -1.06791200 0.00000000 0.00000000 0.00000000
58 -4.17994500 -2.40243000 -1.82029200 -2.93780700 1.27049300 -2.15177200
time 14
0 -0.00000100 7.45008900 -27.50902600 0.00000000 0.00000000 0.00003100
1 -0.00000200 0.00000000 0.00000000 1.57074700 -1.56714200 -1.57074700
2 4.25546600 -0.33518300 -0.00000200 0.00000000 0.00000000 -0.12484800
3 7.43125000 1.49647900 0.00000200 0.00000000 0.00000000 0.24545000
4 5.27847900 0.16554400 0.00000100 0.00000000 0.00000000 0.04851100
5 6.12597600 -2.42666200 -2.00797400 1.97586500 1.15990900 -1.29878600
6 -6.21447800 -0.00000900 -0.00002600 -3.11692240 -0.59045952 2.09458667
7 11.94488500 0.00000000 0.00000000 -0.37473601 -0.36808754 1.60616651
8 10.62018800 0.00000000 0.00000000 0.74539479 -0.15124241 2.86008832
9 -4.75110800 -0.69449800 0.83058000 -0.04275600 -0.14370200 0.21348200
10 -1.68806800 0.00004700 -0.00003100 0.01416200 -0.02030400 0.83076300
11 -1.33614000 0.00005500 -0.00001000 0.02620400 -0.00294000 0.66573400
12 -4.82049400 -0.50946400 -0.22475900 -0.47850200 -0.28490200 1.21053600
13 -1.82698400 -0.00006900 0.00000800 0.01386400 0.03805500 1.62217300
14 -1.43656900 0.00000400 0.00000300 -0.01732100 -0.07578600 0.13241200
15 -3.99235700 -0.89119100 -1.82790900 -0.68571500 0.29337500 1.78792400
16 -1.40591800 -0.00002500 -0.00000200 -0.00474800 -0.02908900 1.03564800
17 -1.17535800 0.00012600 -0.00001900 0.03337100 0.05922500 0.41712000
18 -4.52675100 -0.69058000 -1.12074100 -0.58814800 -0.00853300 1.62350700
19 -1.74403800 0.00003200 -0.00000800 -0.07404200 0.08160700 1.50629900
20 -1.36877100 0.00002300 0.00000200 0.00993500 0.05150500 0.08698400
21 -2.03839569 -0.89278969 0.93250331 1.93898400 0.21538600 0.74875200
22 -1.70606969 0.14881976 0.13171369 -0.00729200 0.04641800 0.40163700
23 -1.59928500 0.00001100 0.00001500 0.02997200 -0.03067600 0.77840300
24 5.51182000 0.00000800 -0.00000200 2.10196205 0.00133094 3.14078467
25 0.19684600 -0.00000200 0.00000300 2.79340670 -0.00135498 -3.14130791
26 -1.29483000 -15.58672000 -4.01722200 1.97586200 1.15991000 1.84280300
27 6.21448600 0.00000800 0.00001900 -2.22636743 0.57625910 -2.03343301
28 11.94488800 -0.00003100 -0.00020000 -1.12747912 1.38863510 -1.86922453
29 10.62016500 0.00000200 0.00000600 3.00950580 -0.90487162 0.92697465
30 4.75115800 0.69437400 -0.83047400 0.01035400 -0.18701200 0.22546800
31 1.68806500 -0.00002200 0.00000200 0.00871700 -0.02311100 1.07732400
32 1.33615100 -0.00005100 -0.00000900 -0.01966400 -0.03335100 0.90470300
33 4.82051500 0.50933800 0.22486600 -0.16078000 -0.19857400 0.43859100
34 1.82699200 0.00006600 0.00001000 0.02668100 0.03043800 1.99251200
35 1.43658100 -0.00000600 0.00001000 0.01484100 0.00319600 -0.94170300
36 3.99235300 0.89108700 1.82799300 -0.53062100 0.08867800 0.91105900
37 1.40592600 0.00003100 -0.00000300 -0.01988900 -0.02179500 1.61407600
38 1.17536200 -0.00013200 0.00000100 -0.09551900 0.07798600 -0.93359900
39 4.52675800 0.69046400 1.12084300 -0.40167000 -0.05563700 0.80364000
40 1.74404100 -0.00003100 -0.00000200 -0.02939300 -0.00337500 1.86812600
41 1.36876700 -0.00003100 -0.00001800 -0.12957300 0.09181900 -1.14340300
42 1.80926900 0.89529069 -1.12011069 1.99067500 0.37480500 0.55887600
43 1.49513462 -0.24140500 0.04487669 0.00360000 -0.23414300 0.03443400
44 1.57424469 -0.10445131 0.03324338 0.03981700 0.07342300 -0.24671300
45 5.48872238 -0.02716331 0.01694638 -0.87631700 0.01765400 0.01041400
46 0.19684900 0.00000300 -0.00000100 -0.34822500 0.00001500 -0.00000200
47 0.00000000 0.00000000 0.00000000 0.00000000 0.00000000 -1.57079600
48 -4.16381200 1.79473400 -4.25436000 0.00000000 0.00000000 -3.14156200
49 -3.04897873 16.54647958 -0.53695812 0.37068271 -0.09667841 -1.25155164
50 9.68055049 0.76709326 -4.42390631 0.66994200 1.22657000 2.14442700
51 2.97751900 0.00125700 -1.28020400 0.00000000 0.00000000 0.00000000
52 -1.13600500 -0.00628100 -0.29562500 0.00000000 0.00000000 0.00000000
53 0.05843500 0.00066700 0.09728300 0.00000000 0.00000000 0.00000000
54 -1.09087800 0.04617100 0.46137700 0.00000000 0.00000000 0.00000000
55 0.76532200 -0.03277500 -1.35591700 0.00000000 0.00000000 0.00000000
56 -10.18440400 -0.01003900 1.60133600 0.00000000 0.00000000 0.00000000
57 -21.17495700 0.16805800 -1.06791200 0.00000000 0.00000000 0.00000000
58 -4.17994500 -2.40243000 -1.82029200 -2.93780700 1.27049300 -2.15177200
time 15
0 -0.00000100 7.45008900 -27.50902600 0.00000000 0.00000000 0.00003100
1 -0.00000200 0.00000000 0.00000000 1.57074700 -1.56714200 -1.57074700
2 4.25546600 -0.33518300 -0.00000200 0.00000000 0.00000000 -0.12484800
3 7.43125000 1.49647900 0.00000200 0.00000000 0.00000000 0.24545000
4 5.27847900 0.16554400 0.00000100 0.00000000 0.00000000 0.04851100
5 6.12597600 -2.42666200 -2.00797400 1.97586500 1.15990900 -1.29878600
6 -6.21447800 -0.00000900 -0.00002600 -3.11887889 -0.59403844 2.11383428
7 11.94488500 0.00000000 0.00000000 -0.36556758 -0.36893124 1.57890987
8 10.62018800 0.00000000 0.00000000 0.73458968 -0.12615732 2.91723157
9 -4.75110800 -0.69449800 0.83058000 -0.04275600 -0.14370200 0.21348200
10 -1.68806800 0.00004700 -0.00003100 0.01416200 -0.02030400 0.83076300
11 -1.33614000 0.00005500 -0.00001000 0.02620400 -0.00294000 0.66573400
12 -4.82049400 -0.50946400 -0.22475900 -0.47850200 -0.28490200 1.21053600
13 -1.82698400 -0.00006900 0.00000800 0.01386400 0.03805500 1.62217300
14 -1.43656900 0.00000400 0.00000300 -0.01732100 -0.07578600 0.13241200
15 -3.99235700 -0.89119100 -1.82790900 -0.68571500 0.29337500 1.78792400
16 -1.40591800 -0.00002500 -0.00000200 -0.00474800 -0.02908900 1.03564800
17 -1.17535800 0.00012600 -0.00001900 0.03337100 0.05922500 0.41712000
18 -4.52675100 -0.69058000 -1.12074100 -0.58814800 -0.00853300 1.62350700
19 -1.74403800 0.00003200 -0.00000800 -0.07404200 0.08160700 1.50629900
20 -1.36877100 0.00002300 0.00000200 0.00993500 0.05150500 0.08698400
21 -2.03839569 -0.89278969 0.93250400 1.93898400 0.21538600 0.74875200
22 -1.70606969 0.14881976 0.13171369 -0.00729200 0.04641800 0.40163700
23 -1.59928500 0.00001100 0.00001500 0.02997200 -0.03067600 0.77840300
24 5.51182000 0.00000800 -0.00000200 2.10196205 0.00133094 3.14078467
25 0.19684600 -0.00000200 0.00000300 2.79340670 -0.00135498 -3.14130791
26 -1.29483000 -15.58672000 -4.01722200 1.97586200 1.15991000 1.84280300
27 6.21448600 0.00000800 0.00001900 -2.21670230 0.56150501 -2.05612718
28 11.94488800 -0.00003100 -0.00020000 -0.96238645 1.38999260 -1.70123712
29 10.62016500 0.00000200 0.00000600 3.04576093 -0.91823111 0.88036518
30 4.75115800 0.69437400 -0.83047400 0.01035400 -0.18701200 0.22546800
31 1.68806500 -0.00002200 0.00000200 0.00871700 -0.02311100 1.07732400
32 1.33615100 -0.00005100 -0.00000900 -0.01966400 -0.03335100 0.90470300
33 4.82051500 0.50933800 0.22486600 -0.16078000 -0.19857400 0.43859100
34 1.82699200 0.00006600 0.00001000 0.02668100 0.03043800 1.99251200
35 1.43658100 -0.00000600 0.00001000 0.01484100 0.00319600 -0.94170300
36 3.99235300 0.89108700 1.82799300 -0.53062100 0.08867800 0.91105900
37 1.40592600 0.00003100 -0.00000300 -0.01988900 -0.02179500 1.61407600
38 1.17536200 -0.00013200 0.00000100 -0.09551900 0.07798600 -0.93359900
39 4.52675800 0.69046400 1.12084300 -0.40167000 -0.05563700 0.80364000
40 1.74404100 -0.00003100 -0.00000200 -0.02939300 -0.00337500 1.86812600
41 1.36876700 -0.00003100 -0.00001800 -0.12957300 0.09181900 -1.14340300
42 1.80926762 0.89529069 -1.12010931 1.99067500 0.37480500 0.55887600
43 1.49513738 -0.24140500 0.04487807 0.00360000 -0.23414300 0.03443400
44 1.57425022 -0.10445062 0.03324338 0.03981700 0.07342300 -0.24671300
45 5.48872238 -0.02716262 0.01694638 -0.87631700 0.01765400 0.01041400
46 0.19684900 0.00000300 -0.00000100 -0.34822500 0.00001500 -0.00000200
47 0.00000000 0.00000000 0.00000000 0.00000000 0.00000000 -1.57079600
48 -4.16381200 1.79473400 -4.25436000 0.00000000 0.00000000 -3.14156200
49 -2.65136071 16.53775037 -0.55910520 0.37036420 -0.07218396 -1.24727782
50 9.68055049 0.76709533 -4.42390907 0.66994200 1.22657000 2.14442700
51 2.97751900 0.00125700 -1.28020400 0.00000000 0.00000000 0.00000000
52 -1.13600500 -0.00628100 -0.29562500 0.00000000 0.00000000 0.00000000
53 0.05843500 0.00066700 0.09728300 0.00000000 0.00000000 0.00000000
54 -1.09087800 0.04617100 0.46137700 0.00000000 0.00000000 0.00000000
55 0.76532200 -0.03277500 -1.35591700 0.00000000 0.00000000 0.00000000
56 -10.18440400 -0.01003900 1.60133600 0.00000000 0.00000000 0.00000000
57 -21.17495700 0.16805800 -1.06791200 0.00000000 0.00000000 0.00000000
58 -4.17994500 -2.40243000 -1.82029200 -2.93780700 1.27049300 -2.15177200
end
