version 1
nodes
0 "root" -1
1 "pelvis" 0
2 "spine_01" 1
3 "spine_02" 2
4 "spine_03" 3
5 "clavicle_r" 4
6 "upperarm_r" 5
7 "lowerarm_r" 6
8 "hand_r" 7
9 "index_01_r" 8
10 "index_02_r" 9
11 "index_03_r" 10
12 "middle_01_r" 8
13 "middle_02_r" 12
14 "middle_03_r" 13
15 "pinky_01_r" 8
16 "pinky_02_r" 15
17 "pinky_03_r" 16
18 "ring_01_r" 8
19 "ring_02_r" 18
20 "ring_03_r" 19
21 "thumb_01_r" 8
22 "thumb_02_r" 21
23 "thumb_03_r" 22
24 "lowerarm_twist_01_r" 7
25 "upperarm_twist_01_r" 6
26 "clavicle_l" 4
27 "upperarm_l" 26
28 "lowerarm_l" 27
29 "hand_l" 28
30 "index_01_l" 29
31 "index_02_l" 30
32 "index_03_l" 31
33 "middle_01_l" 29
34 "middle_02_l" 33
35 "middle_03_l" 34
36 "pinky_01_l" 29
37 "pinky_02_l" 36
38 "pinky_03_l" 37
39 "ring_01_l" 29
40 "ring_02_l" 39
41 "ring_03_l" 40
42 "thumb_01_l" 29
43 "thumb_02_l" 42
44 "thumb_03_l" 43
45 "lowerarm_twist_01_l" 28
46 "upperarm_twist_01_l" 27
47 "cam_driver" -1
48 "BaseRoot" -1
49 "Base" 48
50 "rhand_ikTarget" 49
51 "Trigger" 49
52 "Mag" 49
53 "Bullets" 52
54 "Bolt" 49
55 "MagRelease" 49
56 "lhand_ikTarget" 49
end
skeleton
time 0
0 -0.00000100 8.45008800 -27.50902600 0.00000000 0.00000000 0.00003100
1 -0.00000200 0.00000000 0.00000000 1.57074300 -1.56713700 -1.57074300
2 4.25546800 -0.33518300 -0.00000200 0.00000000 0.00000000 -0.12484800
3 7.43124800 1.49647700 0.00000200 0.00000000 0.00000000 0.24545000
4 5.27847900 0.16554100 0.00000100 0.00000000 0.00000000 0.04851100
5 -1.30667000 -11.04553000 8.07962300 1.97586400 1.15990900 -1.29878600
6 -6.21448200 -0.00000700 -0.00002700 -3.09038381 -0.30408778 1.35583048
7 11.94488200 0.00000000 0.00000100 -0.15219792 -0.31835569 1.36243250
8 10.62018100 0.00000200 0.00000000 0.73392457 0.10620173 3.03349624
9 -4.75110600 -0.69449400 0.83057700 -0.21244700 0.13723700 0.56559200
10 -1.68806800 0.00004600 -0.00003200 0.01476400 -0.01983500 0.80019500
11 -1.33614000 0.00005700 -0.00001200 0.02599100 -0.00450100 0.72485300
12 -4.82049400 -0.50946000 -0.22475900 -0.33666500 0.06009700 1.41259200
13 -1.82699200 -0.00006400 0.00000600 -0.00131800 0.04043600 1.24234300
14 -1.43657300 0.00000600 0.00000200 -0.04286600 -0.06491600 0.49261200
15 -3.99235500 -0.89118800 -1.82790900 -0.41942700 0.35068000 1.51819800
16 -1.40591800 -0.00002500 -0.00000300 0.00712800 -0.02856300 0.62998400
17 -1.17535800 0.00012800 -0.00002000 0.06062700 0.03058100 1.00743600
18 -4.52675100 -0.69057500 -1.12074400 -0.43113200 0.21594300 1.61193500
19 -1.74403800 0.00003300 -0.00000800 -0.02031700 -0.02143900 1.17042900
20 -1.36877100 0.00002500 0.00000200 0.02081800 0.04817500 0.30338500
21 -1.84032000 -1.13761000 1.04589900 2.22706100 0.43026100 0.92075000
22 -1.52345300 0.00003200 0.00003100 0.06200100 0.16249200 0.46746700
23 -1.59928500 0.00000400 0.00001600 0.02989500 -0.03079900 0.78129700
24 5.58312500 0.11572300 0.29500000 2.23698600 -0.06403800 3.11154600
25 0.19684700 -0.00000100 0.00000300 2.79340694 -0.00050641 -3.14144184
26 -1.53932800 -13.19416800 0.14667300 1.97586200 1.15990900 1.84280300
27 6.21448500 0.00000600 0.00002000 -1.08492340 0.44987551 -1.70109432
28 11.94488500 -0.00002900 -0.00019400 1.28118774 -0.36140880 -1.25077611
29 10.62016600 0.00000200 0.00001000 -2.77159705 -0.36622951 0.46042730
30 4.75115600 0.69437600 -0.83047300 -0.06963100 -0.18956200 1.20293400
31 1.68806500 -0.00002600 0.00000200 -0.00178600 -0.02466300 1.51256600
32 1.33615100 -0.00005100 -0.00000900 0.00162500 -0.03868900 0.32920800
33 4.82051300 0.50934000 0.22486500 -0.15643200 -0.01406900 1.57957000
34 1.82699600 0.00006600 0.00000800 -0.00186700 0.04038300 1.22708400
35 1.43657700 -0.00001000 0.00000700 0.00808100 -0.01279400 0.27447100
36 3.99235300 0.89108700 1.82799400 -0.26823800 0.10724000 1.40713400
37 1.40591800 0.00002100 -0.00000700 -0.01645600 -0.02445100 1.46689000
38 1.17536900 -0.00013100 0.00000200 0.02096900 0.12149700 0.12659500
39 4.52675600 0.69046000 1.12084200 -0.15292900 0.08798300 1.61269300
40 1.74404100 -0.00003100 -0.00000200 -0.02493600 -0.01580100 1.41848500
41 1.36876300 -0.00003100 -0.00001700 -0.24626800 0.17807500 0.18497200
42 1.87485500 0.93508100 -0.99913000 2.44808600 0.23419600 1.08300800
43 1.45054600 -0.06019000 0.09121600 0.04429500 0.17016300 0.35957300
44 1.59928100 -0.00000200 0.00000900 0.08169400 -0.01721100 1.03306000
45 5.51180600 -0.00000200 0.00000600 -0.66744800 0.00000000 0.00000000
46 0.19685000 0.00000300 -0.00000200 -0.34822500 0.00001500 -0.00000200
47 0.00000000 1.00000000 0.00000000 0.00000000 0.00000000 -1.57079600
48 -3.47734200 3.27852200 -2.72292100 0.00000000 0.00000000 -3.14156200
49 -7.62662178 20.92159578 -0.86826911 0.39983203 0.25328731 -0.38421897
50 11.97565600 0.60073800 -3.41185600 0.21793700 1.03451400 1.57217400
51 5.68842700 -0.01178200 -0.37496100 0.00000000 0.00000000 0.00000000
52 -5.79591200 -0.00336600 0.65722100 0.00000000 0.00000000 0.00000000
53 0.12109200 0.00000000 -0.11972000 0.00000000 0.00000000 0.00000000
54 -0.81526300 0.44890800 1.20490500 0.00000000 0.00000000 0.00000000
55 -4.54927400 -0.05422000 -0.66098900 0.00000000 0.00000000 0.00000000
56 -4.11342000 -2.62846000 -4.75590600 2.73160200 -0.06448900 -1.98897400
time 1
0 -0.00000100 8.45008800 -27.50902600 0.00000000 0.00000000 0.00003100
1 -0.00000200 0.00000000 0.00000000 1.57074300 -1.56713700 -1.57074300
2 4.25546800 -0.33518300 -0.00000200 0.00000000 0.00000000 -0.12484800
3 7.43124800 1.49647700 0.00000200 0.00000000 0.00000000 0.24545000
4 5.27847900 0.16554100 0.00000100 0.00000000 0.00000000 0.04851100
5 -1.30667000 -11.04553000 8.07962300 1.97586400 1.15990900 -1.29878600
6 -6.21448200 -0.00000700 -0.00002700 -3.08935454 -0.30476355 1.35734292
7 11.94488200 0.00000000 0.00000100 -0.15397552 -0.31869097 1.36791550
8 10.62018100 0.00000200 0.00000000 0.72399691 0.10039919 3.02481355
9 -4.75110600 -0.69449400 0.83057700 -0.21244700 0.13723700 0.56559200
10 -1.68806800 0.00004600 -0.00003200 0.01476400 -0.01983500 0.80019500
11 -1.33614000 0.00005700 -0.00001200 0.02599100 -0.00450100 0.72485300
12 -4.82049400 -0.50946000 -0.22475900 -0.33666500 0.06009700 1.41259200
13 -1.82699200 -0.00006400 0.00000600 -0.00131800 0.04043600 1.24234300
14 -1.43657300 0.00000600 0.00000200 -0.04286600 -0.06491600 0.49261200
15 -3.99235500 -0.89118800 -1.82790900 -0.41942700 0.35068000 1.51819800
16 -1.40591800 -0.00002500 -0.00000300 0.00712800 -0.02856300 0.62998400
17 -1.17535800 0.00012800 -0.00002000 0.06062700 0.03058100 1.00743600
18 -4.52675100 -0.69057500 -1.12074400 -0.43113200 0.21594300 1.61193500
19 -1.74403800 0.00003300 -0.00000800 -0.02031700 -0.02143900 1.17042900
20 -1.36877100 0.00002500 0.00000200 0.02081800 0.04817500 0.30338500
21 -1.84032000 -1.13761000 1.04589900 2.22706100 0.43026100 0.92075000
22 -1.52345300 0.00003200 0.00003100 0.06200100 0.16249200 0.46746700
23 -1.59928500 0.00000400 0.00001600 0.02989500 -0.03079900 0.78129700
24 5.58312500 0.11572300 0.29500000 2.23698600 -0.06403800 3.11154600
25 0.19684700 -0.00000100 0.00000300 2.79340694 -0.00050641 -3.14144184
26 -1.53932800 -13.19416800 0.14667300 1.97586200 1.15990900 1.84280300
27 6.21448500 0.00000600 0.00002000 -1.08484597 0.45152074 -1.69867406
28 11.94488500 -0.00002900 -0.00019400 1.28250792 -0.35798259 -1.25711984
29 10.62016600 0.00000200 0.00001000 -2.76111854 -0.35513730 0.45966062
30 4.75115600 0.69437600 -0.83047300 -0.06963100 -0.18956200 1.20293400
31 1.68806500 -0.00002600 0.00000200 -0.00178600 -0.02466300 1.51256600
32 1.33615100 -0.00005100 -0.00000900 0.00162500 -0.03868900 0.32920800
33 4.82051300 0.50934000 0.22486500 -0.15643200 -0.01406900 1.57957000
34 1.82699600 0.00006600 0.00000800 -0.00186700 0.04038300 1.22708400
35 1.43657700 -0.00001000 0.00000700 0.00808100 -0.01279400 0.27447100
36 3.99235300 0.89108700 1.82799400 -0.26823800 0.10724000 1.40713400
37 1.40591800 0.00002100 -0.00000700 -0.01645600 -0.02445100 1.46689000
38 1.17536900 -0.00013100 0.00000200 0.02096900 0.12149700 0.12659500
39 4.52675600 0.69046000 1.12084200 -0.15292900 0.08798300 1.61269300
40 1.74404100 -0.00003100 -0.00000200 -0.02493600 -0.01580100 1.41848500
41 1.36876300 -0.00003100 -0.00001700 -0.24626800 0.17807500 0.18497200
42 1.87485500 0.93508100 -0.99913000 2.44808600 0.23419600 1.08300800
43 1.45054600 -0.06019000 0.09121600 0.04429500 0.17016300 0.35957300
44 1.59928100 -0.00000200 0.00000900 0.08169400 -0.01721100 1.03306000
45 5.51180600 -0.00000200 0.00000600 -0.66744800 0.00000000 0.00000000
46 0.19685000 0.00000300 -0.00000200 -0.34822500 0.00001500 -0.00000200
47 0.00000000 1.00000000 0.00000000 0.00000000 0.00000000 -1.57079600
48 -3.47734200 3.27852200 -2.72292100 0.00000000 0.00000000 -3.14156200
49 -7.60284478 20.93963578 -0.85584656 0.38777072 0.25105553 -0.38599517
50 11.97565600 0.60073800 -3.41185600 0.21793700 1.03451400 1.57217400
51 5.68842700 -0.01178200 -0.37496100 0.00000000 0.00000000 0.00000000
52 -5.79591200 -0.00336600 0.65722100 0.00000000 0.00000000 0.00000000
53 0.12109200 0.00000000 -0.11972000 0.00000000 0.00000000 0.00000000
54 -0.81526300 0.44890800 1.20490500 0.00000000 0.00000000 0.00000000
55 -4.54927400 -0.05422000 -0.66098900 0.00000000 0.00000000 0.00000000
56 -4.11342000 -2.62846000 -4.75590600 2.73160200 -0.06448900 -1.98897400
time 2
0 -0.00000100 8.45008800 -27.50902600 0.00000000 0.00000000 0.00003100
1 -0.00000200 0.00000000 0.00000000 1.57074300 -1.56713700 -1.57074300
2 4.25546800 -0.33518300 -0.00000200 0.00000000 0.00000000 -0.12484800
3 7.43124800 1.49647700 0.00000200 0.00000000 0.00000000 0.24545000
4 5.27847900 0.16554100 0.00000100 0.00000000 0.00000000 0.04851100
5 -1.30667000 -11.04553000 8.07962300 1.97586400 1.15990900 -1.29878600
6 -6.21448200 -0.00000700 -0.00002700 -3.08334575 -0.30520450 1.36036149
7 11.94488200 0.00000000 0.00000100 -0.15548231 -0.31959629 1.37221044
8 10.62018100 0.00000200 0.00000000 0.72489340 0.09135742 3.02057171
9 -4.75110600 -0.69449400 0.83057700 -0.21244700 0.13723700 0.56559200
10 -1.68806800 0.00004600 -0.00003200 0.01476400 -0.01983500 0.80019500
11 -1.33614000 0.00005700 -0.00001200 0.02599100 -0.00450100 0.72485300
12 -4.82049400 -0.50946000 -0.22475900 -0.33666500 0.06009700 1.41259200
13 -1.82699200 -0.00006400 0.00000600 -0.00131800 0.04043600 1.24234300
14 -1.43657300 0.00000600 0.00000200 -0.04286600 -0.06491600 0.49261200
15 -3.99235500 -0.89118800 -1.82790900 -0.41942700 0.35068000 1.51819800
16 -1.40591800 -0.00002500 -0.00000300 0.00712800 -0.02856300 0.62998400
17 -1.17535800 0.00012800 -0.00002000 0.06062700 0.03058100 1.00743600
18 -4.52675100 -0.69057500 -1.12074400 -0.43113200 0.21594300 1.61193500
19 -1.74403800 0.00003300 -0.00000800 -0.02031700 -0.02143900 1.17042900
20 -1.36877100 0.00002500 0.00000200 0.02081800 0.04817500 0.30338500
21 -1.84032000 -1.13761000 1.04589900 2.22706100 0.43026100 0.92075000
22 -1.52345300 0.00003200 0.00003100 0.06200100 0.16249200 0.46746700
23 -1.59928500 0.00000400 0.00001600 0.02989500 -0.03079900 0.78129700
24 5.58312500 0.11572300 0.29500000 2.23698600 -0.06403800 3.11154600
25 0.19684700 -0.00000100 0.00000300 2.79340694 -0.00050641 -3.14144184
26 -1.53932800 -13.19416800 0.14667300 1.97586200 1.15990900 1.84280300
27 6.21448500 0.00000600 0.00002000 -1.07309376 0.44708537 -1.69541385
28 11.94488500 -0.00002900 -0.00019400 1.28011237 -0.35324969 -1.25109355
29 10.62016600 0.00000200 0.00001000 -2.76957434 -0.35165155 0.47352366
30 4.75115600 0.69437600 -0.83047300 -0.06963100 -0.18956200 1.20293400
31 1.68806500 -0.00002600 0.00000200 -0.00178600 -0.02466300 1.51256600
32 1.33615100 -0.00005100 -0.00000900 0.00162500 -0.03868900 0.32920800
33 4.82051300 0.50934000 0.22486500 -0.15643200 -0.01406900 1.57957000
34 1.82699600 0.00006600 0.00000800 -0.00186700 0.04038300 1.22708400
35 1.43657700 -0.00001000 0.00000700 0.00808100 -0.01279400 0.27447100
36 3.99235300 0.89108700 1.82799400 -0.26823800 0.10724000 1.40713400
37 1.40591800 0.00002100 -0.00000700 -0.01645600 -0.02445100 1.46689000
38 1.17536900 -0.00013100 0.00000200 0.02096900 0.12149700 0.12659500
39 4.52675600 0.69046000 1.12084200 -0.15292900 0.08798300 1.61269300
40 1.74404100 -0.00003100 -0.00000200 -0.02493600 -0.01580100 1.41848500
41 1.36876300 -0.00003100 -0.00001700 -0.24626800 0.17807500 0.18497200
42 1.87485500 0.93508100 -0.99913000 2.44808600 0.23419600 1.08300800
43 1.45054600 -0.06019000 0.09121600 0.04429500 0.17016300 0.35957300
44 1.59928100 -0.00000200 0.00000900 0.08169400 -0.01721100 1.03306000
45 5.51180600 -0.00000200 0.00000600 -0.66744800 0.00000000 0.00000000
46 0.19685000 0.00000300 -0.00000200 -0.34822500 0.00001500 -0.00000200
47 0.00000000 1.00000000 0.00000000 0.00000000 0.00000000 -1.57079600
48 -3.47734200 3.27852200 -2.72292100 0.00000000 0.00000000 -3.14156200
49 -7.52692944 20.99040178 -0.81336067 0.38488625 0.24906101 -0.39024196
50 11.97565600 0.60073800 -3.41185600 0.21793700 1.03451400 1.57217400
51 5.68842700 -0.01178200 -0.37496100 0.00000000 0.00000000 0.00000000
52 -5.79591200 -0.00336600 0.65722100 0.00000000 0.00000000 0.00000000
53 0.12109200 0.00000000 -0.11972000 0.00000000 0.00000000 0.00000000
54 -0.81526300 0.44890800 1.20490500 0.00000000 0.00000000 0.00000000
55 -4.54927400 -0.05422000 -0.66098900 0.00000000 0.00000000 0.00000000
56 -4.11342000 -2.62846000 -4.75590600 2.73160200 -0.06448900 -1.98897400
time 3
0 -0.00000100 8.45008800 -27.50902600 0.00000000 0.00000000 0.00003100
1 -0.00000200 0.00000000 0.00000000 1.57074300 -1.56713700 -1.57074300
2 4.25546800 -0.33518300 -0.00000200 0.00000000 0.00000000 -0.12484800
3 7.43124800 1.49647700 0.00000200 0.00000000 0.00000000 0.24545000
4 5.27847900 0.16554100 0.00000100 0.00000000 0.00000000 0.04851100
5 -1.30667000 -11.04553000 8.07962300 1.97586400 1.15990900 -1.29878600
6 -6.21448200 -0.00000700 -0.00002700 -3.07292209 -0.30762739 1.36975501
7 11.94488200 0.00000000 0.00000100 -0.15909836 -0.32134418 1.38276197
8 10.62018100 0.00000200 0.00000000 0.74082349 0.07806729 3.01748019
9 -4.75110600 -0.69449400 0.83057700 -0.21244700 0.13723700 0.56559200
10 -1.68806800 0.00004600 -0.00003200 0.01476400 -0.01983500 0.80019500
11 -1.33614000 0.00005700 -0.00001200 0.02599100 -0.00450100 0.72485300
12 -4.82049400 -0.50946000 -0.22475900 -0.33666500 0.06009700 1.41259200
13 -1.82699200 -0.00006400 0.00000600 -0.00131800 0.04043600 1.24234300
14 -1.43657300 0.00000600 0.00000200 -0.04286600 -0.06491600 0.49261200
15 -3.99235500 -0.89118800 -1.82790900 -0.41942700 0.35068000 1.51819800
16 -1.40591800 -0.00002500 -0.00000300 0.00712800 -0.02856300 0.62998400
17 -1.17535800 0.00012800 -0.00002000 0.06062700 0.03058100 1.00743600
18 -4.52675100 -0.69057500 -1.12074400 -0.43113200 0.21594300 1.61193500
19 -1.74403800 0.00003300 -0.00000800 -0.02031700 -0.02143900 1.17042900
20 -1.36877100 0.00002500 0.00000200 0.02081800 0.04817500 0.30338500
21 -1.84032000 -1.13761000 1.04589900 2.22706100 0.43026100 0.92075000
22 -1.52345300 0.00003200 0.00003100 0.06200100 0.16249200 0.46746700
23 -1.59928500 0.00000400 0.00001600 0.02989500 -0.03079900 0.78129700
24 5.58312500 0.11572300 0.29500000 2.23698600 -0.06403800 3.11154600
25 0.19684700 -0.00000100 0.00000300 2.79340694 -0.00050641 -3.14144184
26 -1.53932800 -13.19416800 0.14667300 1.97586200 1.15990900 1.84280300
27 6.21448500 0.00000600 0.00002000 -1.04060138 0.43891876 -1.69105779
28 11.94488500 -0.00002900 -0.00019400 1.27393507 -0.34981091 -1.23171205
29 10.62016600 0.00000200 0.00001000 -2.80652270 -0.35625068 0.50959690
30 4.75115600 0.69437600 -0.83047300 -0.06963100 -0.18956200 1.20293400
31 1.68806500 -0.00002600 0.00000200 -0.00178600 -0.02466300 1.51256600
32 1.33615100 -0.00005100 -0.00000900 0.00162500 -0.03868900 0.32920800
33 4.82051300 0.50934000 0.22486500 -0.15643200 -0.01406900 1.57957000
34 1.82699600 0.00006600 0.00000800 -0.00186700 0.04038300 1.22708400
35 1.43657700 -0.00001000 0.00000700 0.00808100 -0.01279400 0.27447100
36 3.99235300 0.89108700 1.82799400 -0.26823800 0.10724000 1.40713400
37 1.40591800 0.00002100 -0.00000700 -0.01645600 -0.02445100 1.46689000
38 1.17536900 -0.00013100 0.00000200 0.02096900 0.12149700 0.12659500
39 4.52675600 0.69046000 1.12084200 -0.15292900 0.08798300 1.61269300
40 1.74404100 -0.00003100 -0.00000200 -0.02493600 -0.01580100 1.41848500
41 1.36876300 -0.00003100 -0.00001700 -0.24626800 0.17807500 0.18497200
42 1.87485500 0.93508100 -0.99913000 2.44808600 0.23419600 1.08300800
43 1.45054600 -0.06019000 0.09121600 0.04429500 0.17016300 0.35957300
44 1.59928100 -0.00000200 0.00000900 0.08169400 -0.01721100 1.03306000
45 5.51180600 -0.00000200 0.00000600 -0.66744800 0.00000000 0.00000000
46 0.19685000 0.00000300 -0.00000200 -0.34822500 0.00001500 -0.00000200
47 0.00000000 1.00000000 0.00000000 0.00000000 0.00000000 -1.57079600
48 -3.47734200 3.27852200 -2.72292100 0.00000000 0.00000000 -3.14156200
49 -7.35094711 21.06885478 -0.77751778 0.39377988 0.24611455 -0.39982835
50 11.97565600 0.60073800 -3.41185600 0.21793700 1.03451400 1.57217400
51 5.68842700 -0.01178200 -0.37496100 0.00000000 0.00000000 0.00000000
52 -5.79591200 -0.00336600 0.65722100 0.00000000 0.00000000 0.00000000
53 0.12109200 0.00000000 -0.11972000 0.00000000 0.00000000 0.00000000
54 -0.81526300 0.44890800 1.20490500 0.00000000 0.00000000 0.00000000
55 -4.54927400 -0.05422000 -0.66098900 0.00000000 0.00000000 0.00000000
56 -4.11342000 -2.62846000 -4.75590600 2.73160200 -0.06448900 -1.98897400
time 4
0 -0.00000100 8.45008800 -27.50902600 0.00000000 0.00000000 0.00003100
1 -0.00000200 0.00000000 0.00000000 1.57074300 -1.56713700 -1.57074300
2 4.25546800 -0.33518300 -0.00000200 0.00000000 0.00000000 -0.12484800
3 7.43124800 1.49647700 0.00000200 0.00000000 0.00000000 0.24545000
4 5.27847900 0.16554100 0.00000100 0.00000000 0.00000000 0.04851100
5 -1.28972800 -10.75853700 7.63169400 1.97586400 1.15990900 -1.29878600
6 -6.21448200 -0.00000700 -0.00002700 -3.04621579 -0.31217434 1.41197829
7 11.94488200 0.00000000 0.00000100 -0.16454016 -0.32464999 1.39834463
8 10.62018100 0.00000200 0.00000000 0.76609305 0.04156842 3.03685508
9 -4.75110600 -0.69449400 0.83057700 -0.21244700 0.13723700 0.56559200
10 -1.68806800 0.00004600 -0.00003200 0.01476400 -0.01983500 0.80019500
11 -1.33614000 0.00005700 -0.00001200 0.02599100 -0.00450100 0.72485300
12 -4.82049400 -0.50946000 -0.22475900 -0.33666500 0.06009700 1.41259200
13 -1.82699200 -0.00006400 0.00000600 -0.00131800 0.04043600 1.24234300
14 -1.43657300 0.00000600 0.00000200 -0.04286600 -0.06491600 0.49261200
15 -3.99235500 -0.89118800 -1.82790900 -0.41942700 0.35068000 1.51819800
16 -1.40591800 -0.00002500 -0.00000300 0.00712800 -0.02856300 0.62998400
17 -1.17535800 0.00012800 -0.00002000 0.06062700 0.03058100 1.00743600
18 -4.52675100 -0.69057500 -1.12074400 -0.43113200 0.21594300 1.61193500
19 -1.74403800 0.00003300 -0.00000800 -0.02031700 -0.02143900 1.17042900
20 -1.36877100 0.00002500 0.00000200 0.02081800 0.04817500 0.30338500
21 -1.84032000 -1.13761000 1.04589900 2.22706100 0.43026100 0.92075000
22 -1.52345300 0.00003200 0.00003100 0.06200100 0.16249200 0.46746700
23 -1.59928500 0.00000400 0.00001600 0.02989500 -0.03079900 0.78129700
24 5.58312500 0.11572300 0.29500000 2.23698600 -0.06403800 3.11154600
25 0.19684700 -0.00000100 0.00000300 2.79340694 -0.00050641 -3.14144184
26 -1.57203700 -13.28621200 0.11030800 1.97586200 1.15990900 1.84280300
27 6.21448500 0.00000600 0.00002000 -0.97858791 0.43211213 -1.68497091
28 11.94488500 -0.00002900 -0.00019400 1.21905357 -0.34848222 -1.21642356
29 10.62016600 0.00000200 0.00001000 -2.82491394 -0.37843916 0.55900959
30 4.75115600 0.69437600 -0.83047300 -0.06963100 -0.18956200 1.20293400
31 1.68806500 -0.00002600 0.00000200 -0.00178600 -0.02466300 1.51256600
32 1.33615100 -0.00005100 -0.00000900 0.00162500 -0.03868900 0.32920800
33 4.82051300 0.50934000 0.22486500 -0.15643200 -0.01406900 1.57957000
34 1.82699600 0.00006600 0.00000800 -0.00186700 0.04038300 1.22708400
35 1.43657700 -0.00001000 0.00000700 0.00808100 -0.01279400 0.27447100
36 3.99235300 0.89108700 1.82799400 -0.26823800 0.10724000 1.40713400
37 1.40591800 0.00002100 -0.00000700 -0.01645600 -0.02445100 1.46689000
38 1.17536900 -0.00013100 0.00000200 0.02096900 0.12149700 0.12659500
39 4.52675600 0.69046000 1.12084200 -0.15292900 0.08798300 1.61269300
40 1.74404100 -0.00003100 -0.00000200 -0.02493600 -0.01580100 1.41848500
41 1.36876300 -0.00003100 -0.00001700 -0.24626800 0.17807500 0.18497200
42 1.87485500 0.93508100 -0.99913000 2.44808600 0.23419600 1.08300800
43 1.45054600 -0.06019000 0.09121600 0.04429500 0.17016300 0.35957300
44 1.59928100 -0.00000200 0.00000900 0.08169400 -0.01721100 1.03306000
45 5.51180600 -0.00000200 0.00000600 -0.66744800 0.00000000 0.00000000
46 0.19685000 0.00000300 -0.00000200 -0.34822500 0.00001500 -0.00000200
47 0.00000000 1.00000000 0.00000000 0.00000000 0.00000000 -1.57079600
48 -3.47734200 3.27852200 -2.72292100 0.00000000 0.00000000 -3.14156200
49 -7.01328667 21.16995978 -0.75758089 0.41014577 0.23988407 -0.42077682
50 11.97565600 0.60073800 -3.41185600 0.21793700 1.03451400 1.57217400
51 5.68842700 -0.01178200 -0.37496100 0.00000000 0.00000000 0.00000000
52 -5.79591200 -0.00336600 0.65722100 0.00000000 0.00000000 0.00000000
53 0.12109200 0.00000000 -0.11972000 0.00000000 0.00000000 0.00000000
54 -0.81526300 0.44890800 1.20490500 0.00000000 0.00000000 0.00000000
55 -4.54927400 -0.05422000 -0.66098900 0.00000000 0.00000000 0.00000000
56 -4.11342000 -2.62846000 -4.75590600 2.73160200 -0.06448900 -1.98897400
time 5
0 -0.00000100 8.45008800 -27.50902600 0.00000000 0.00000000 0.00003100
1 -0.00000200 0.00000000 0.00000000 1.57074300 -1.56713700 -1.57074300
2 4.25546800 -0.33518300 -0.00000200 0.00000000 0.00000000 -0.12484800
3 7.43124800 1.49647700 0.00000200 0.00000000 0.00000000 0.24545000
4 5.27847900 0.16554100 0.00000100 0.00000000 0.00000000 0.04851100
5 -1.24506000 -10.00192100 6.45078700 1.97586400 1.15990900 -1.29878600
6 -6.21448200 -0.00000700 -0.00002700 -2.98627184 -0.31957557 1.50081740
7 11.94488200 0.00000000 0.00000100 -0.17276081 -0.32984223 1.42245210
8 10.62018100 0.00000200 0.00000000 0.80122411 -0.04202542 3.07501704
9 -4.75110600 -0.69449400 0.83057700 -0.21244700 0.13723700 0.56559200
10 -1.68806800 0.00004600 -0.00003200 0.01476400 -0.01983500 0.80019500
11 -1.33614000 0.00005700 -0.00001200 0.02599100 -0.00450100 0.72485300
12 -4.82049400 -0.50946000 -0.22475900 -0.33666500 0.06009700 1.41259200
13 -1.82699200 -0.00006400 0.00000600 -0.00131800 0.04043600 1.24234300
14 -1.43657300 0.00000600 0.00000200 -0.04286600 -0.06491600 0.49261200
15 -3.99235500 -0.89118800 -1.82790900 -0.41942700 0.35068000 1.51819800
16 -1.40591800 -0.00002500 -0.00000300 0.00712800 -0.02856300 0.62998400
17 -1.17535800 0.00012800 -0.00002000 0.06062700 0.03058100 1.00743600
18 -4.52675100 -0.69057500 -1.12074400 -0.43113200 0.21594300 1.61193500
19 -1.74403800 0.00003300 -0.00000800 -0.02031700 -0.02143900 1.17042900
20 -1.36877100 0.00002500 0.00000200 0.02081800 0.04817500 0.30338500
21 -1.84032000 -1.13761000 1.04589900 2.22706100 0.43026100 0.92075000
22 -1.52345300 0.00003200 0.00003100 0.06200100 0.16249200 0.46746700
23 -1.59928500 0.00000400 0.00001600 0.02989500 -0.03079900 0.78129700
24 5.58312500 0.11572300 0.29500000 2.23698600 -0.06403800 3.11154600
25 0.19684700 -0.00000100 0.00000300 2.79340694 -0.00050641 -3.14144184
26 -1.66246600 -13.54068300 0.00977100 1.97586200 1.15990900 1.84280300
27 6.21448500 0.00000600 0.00002000 -0.87012393 0.42674588 -1.67706314
28 11.94488500 -0.00002900 -0.00019400 1.08433558 -0.34832811 -1.21286853
29 10.62016600 0.00000200 0.00001000 -2.81287007 -0.42548592 0.62662240
30 4.75115600 0.69437600 -0.83047300 -0.06963100 -0.18956200 1.20293400
31 1.68806500 -0.00002600 0.00000200 -0.00178600 -0.02466300 1.51256600
32 1.33615100 -0.00005100 -0.00000900 0.00162500 -0.03868900 0.32920800
33 4.82051300 0.50934000 0.22486500 -0.15643200 -0.01406900 1.57957000
34 1.82699600 0.00006600 0.00000800 -0.00186700 0.04038300 1.22708400
35 1.43657700 -0.00001000 0.00000700 0.00808100 -0.01279400 0.27447100
36 3.99235300 0.89108700 1.82799400 -0.26823800 0.10724000 1.40713400
37 1.40591800 0.00002100 -0.00000700 -0.01645600 -0.02445100 1.46689000
38 1.17536900 -0.00013100 0.00000200 0.02096900 0.12149700 0.12659500
39 4.52675600 0.69046000 1.12084200 -0.15292900 0.08798300 1.61269300
40 1.74404100 -0.00003100 -0.00000200 -0.02493600 -0.01580100 1.41848500
41 1.36876300 -0.00003100 -0.00001700 -0.24626800 0.17807500 0.18497200
42 1.87485500 0.93508100 -0.99913000 2.44808600 0.23419600 1.08300800
43 1.45054600 -0.06019000 0.09121600 0.04429500 0.17016300 0.35957300
44 1.59928100 -0.00000200 0.00000900 0.08169400 -0.01721100 1.03306000
45 5.51180600 -0.00000200 0.00000600 -0.66744800 0.00000000 0.00000000
46 0.19685000 0.00000300 -0.00000200 -0.34822500 0.00001500 -0.00000200
47 0.00000000 1.00000000 0.00000000 0.00000000 0.00000000 -1.57079600
48 -3.47734200 3.27852200 -2.72292100 0.00000000 0.00000000 -3.14156200
49 -6.40498700 21.28868878 -0.75300033 0.42927001 0.22296230 -0.46987543
50 11.97565600 0.60073800 -3.41185600 0.21793700 1.03451400 1.57217400
51 5.68842700 -0.01178200 -0.37496100 0.00000000 0.00000000 0.00000000
52 -5.79591200 -0.00336600 0.65722100 0.00000000 0.00000000 0.00000000
53 0.12109200 0.00000000 -0.11972000 0.00000000 0.00000000 0.00000000
54 -0.81526300 0.44890800 1.20490500 0.00000000 0.00000000 0.00000000
55 -4.54927400 -0.05422000 -0.66098900 0.00000000 0.00000000 0.00000000
56 -4.11342000 -2.62846000 -4.75590600 2.73160200 -0.06448900 -1.98897400
time 6
0 -0.00000100 8.45008800 -27.50902600 0.00000000 0.00000000 0.00003100
1 -0.00000200 0.00000000 0.00000000 1.57074300 -1.56713700 -1.57074300
2 4.25546800 -0.33518300 -0.00000200 0.00000000 0.00000000 -0.12484800
3 7.43124800 1.49647700 0.00000200 0.00000000 0.00000000 0.24545000
4 5.27847900 0.16554100 0.00000100 0.00000000 0.00000000 0.04851100
5 -1.18190900 -8.93221800 4.78122800 1.97586400 1.15990900 -1.29878600
6 -6.21448200 -0.00000700 -0.00002700 -2.89625434 -0.33388347 1.62213023
7 11.94488200 0.00000000 0.00000100 -0.19592039 -0.33707670 1.49011676
8 10.62018100 0.00000200 0.00000000 0.86486823 -0.16915455 3.04794544
9 -4.75110600 -0.69449400 0.83057700 -0.21244700 0.13723700 0.56559200
10 -1.68806800 0.00004600 -0.00003200 0.01476400 -0.01983500 0.80019500
11 -1.33614000 0.00005700 -0.00001200 0.02599100 -0.00450100 0.72485300
12 -4.82049400 -0.50946000 -0.22475900 -0.33666500 0.06009700 1.41259200
13 -1.82699200 -0.00006400 0.00000600 -0.00131800 0.04043600 1.24234300
14 -1.43657300 0.00000600 0.00000200 -0.04286600 -0.06491600 0.49261200
15 -3.99235500 -0.89118800 -1.82790900 -0.41942700 0.35068000 1.51819800
16 -1.40591800 -0.00002500 -0.00000300 0.00712800 -0.02856300 0.62998400
17 -1.17535800 0.00012800 -0.00002000 0.06062700 0.03058100 1.00743600
18 -4.52675100 -0.69057500 -1.12074400 -0.43113200 0.21594300 1.61193500
19 -1.74403800 0.00003300 -0.00000800 -0.02031700 -0.02143900 1.17042900
20 -1.36877100 0.00002500 0.00000200 0.02081800 0.04817500 0.30338500
21 -1.84032000 -1.13761000 1.04589900 2.22706100 0.43026100 0.92075000
22 -1.52345300 0.00003200 0.00003100 0.06200100 0.16249200 0.46746700
23 -1.59928500 0.00000400 0.00001600 0.02989500 -0.03079900 0.78129700
24 5.58312500 0.11572300 0.29500000 2.23698600 -0.06403800 3.11154600
25 0.19684700 -0.00000100 0.00000300 2.79340694 -0.00050641 -3.14144184
26 -1.79907300 -13.92509700 -0.14210700 1.97586200 1.15990900 1.84280300
27 6.21448500 0.00000600 0.00002000 -0.70157475 0.40535958 -1.67908856
28 11.94488500 -0.00002900 -0.00019400 0.89173352 -0.34392721 -1.19170784
29 10.62016600 0.00000200 0.00001000 -2.84605910 -0.47875387 0.72573273
30 4.75115600 0.69437600 -0.83047300 -0.06963100 -0.18956200 1.20293400
31 1.68806500 -0.00002600 0.00000200 -0.00178600 -0.02466300 1.51256600
32 1.33615100 -0.00005100 -0.00000900 0.00162500 -0.03868900 0.32920800
33 4.82051300 0.50934000 0.22486500 -0.15643200 -0.01406900 1.57957000
34 1.82699600 0.00006600 0.00000800 -0.00186700 0.04038300 1.22708400
35 1.43657700 -0.00001000 0.00000700 0.00808100 -0.01279400 0.27447100
36 3.99235300 0.89108700 1.82799400 -0.26823800 0.10724000 1.40713400
37 1.40591800 0.00002100 -0.00000700 -0.01645600 -0.02445100 1.46689000
38 1.17536900 -0.00013100 0.00000200 0.02096900 0.12149700 0.12659500
39 4.52675600 0.69046000 1.12084200 -0.15292900 0.08798300 1.61269300
40 1.74404100 -0.00003100 -0.00000200 -0.02493600 -0.01580100 1.41848500
41 1.36876300 -0.00003100 -0.00001700 -0.24626800 0.17807500 0.18497200
42 1.87485500 0.93508100 -0.99913000 2.44808600 0.23419600 1.08300800
43 1.45054600 -0.06019000 0.09121600 0.04429500 0.17016300 0.35957300
44 1.59928100 -0.00000200 0.00000900 0.08169400 -0.01721100 1.03306000
45 5.51180600 -0.00000200 0.00000600 -0.66744800 0.00000000 0.00000000
46 0.19685000 0.00000300 -0.00000200 -0.34822500 0.00001500 -0.00000200
47 0.00000000 1.00000000 0.00000000 0.00000000 0.00000000 -1.57079600
48 -3.47734200 3.27852200 -2.72292100 0.00000000 0.00000000 -3.14156200
49 -5.39463689 21.42000378 -0.77198122 0.44326198 0.18998624 -0.58768382
50 11.97565600 0.60073800 -3.41185600 0.21793700 1.03451400 1.57217400
51 5.68842700 -0.01178200 -0.37496100 0.00000000 0.00000000 0.00000000
52 -5.79591200 -0.00336600 0.65722100 0.00000000 0.00000000 0.00000000
53 0.12109200 0.00000000 -0.11972000 0.00000000 0.00000000 0.00000000
54 -0.81526300 0.44890800 1.20490500 0.00000000 0.00000000 0.00000000
55 -4.54927400 -0.05422000 -0.66098900 0.00000000 0.00000000 0.00000000
56 -4.11342000 -2.62846000 -4.75590600 2.73160200 -0.06448900 -1.98897400
time 7
0 -0.00000100 8.45008800 -27.50902600 0.00000000 0.00000000 0.00003100
1 -0.00000200 0.00000000 0.00000000 1.57074300 -1.56713700 -1.57074300
2 4.25546800 -0.33518300 -0.00000200 0.00000000 0.00000000 -0.12484800
3 7.43124800 1.49647700 0.00000200 0.00000000 0.00000000 0.24545000
4 5.27847900 0.16554100 0.00000100 0.00000000 0.00000000 0.04851100
5 -1.10951600 -7.70597300 2.86734500 1.97586400 1.15990900 -1.29878600
6 -6.21448200 -0.00000700 -0.00002700 -2.84024328 -0.33306820 1.73619984
7 11.94488200 0.00000000 0.00000100 -0.23011434 -0.34292857 1.59010967
8 10.62018100 0.00000200 0.00000000 0.94704750 -0.25361176 2.89284513
9 -4.75110600 -0.69449400 0.83057700 -0.21244700 0.13723700 0.56559200
10 -1.68806800 0.00004600 -0.00003200 0.01476400 -0.01983500 0.80019500
11 -1.33614000 0.00005700 -0.00001200 0.02599100 -0.00450100 0.72485300
12 -4.82049400 -0.50946000 -0.22475900 -0.33666500 0.06009700 1.41259200
13 -1.82699200 -0.00006400 0.00000600 -0.00131800 0.04043600 1.24234300
14 -1.43657300 0.00000600 0.00000200 -0.04286600 -0.06491600 0.49261200
15 -3.99235500 -0.89118800 -1.82790900 -0.41942700 0.35068000 1.51819800
16 -1.40591800 -0.00002500 -0.00000300 0.00712800 -0.02856300 0.62998400
17 -1.17535800 0.00012800 -0.00002000 0.06062700 0.03058100 1.00743600
18 -4.52675100 -0.69057500 -1.12074400 -0.43113200 0.21594300 1.61193500
19 -1.74403800 0.00003300 -0.00000800 -0.02031700 -0.02143900 1.17042900
20 -1.36877100 0.00002500 0.00000200 0.02081800 0.04817500 0.30338500
21 -1.84032000 -1.13761000 1.04589900 2.22706100 0.43026100 0.92075000
22 -1.52345300 0.00003200 0.00003100 0.06200100 0.16249200 0.46746700
23 -1.59928500 0.00000400 0.00001600 0.02989500 -0.03079900 0.78129700
24 5.58312500 0.11572300 0.29500000 2.23698600 -0.06403800 3.11154600
25 0.19684700 -0.00000100 0.00000300 2.79340694 -0.00050641 -3.14144184
26 -1.97031100 -14.40697100 -0.33248800 1.97586200 1.15990900 1.84280300
27 6.21448500 0.00000600 0.00002000 -0.55033598 0.36868313 -1.71317012
28 11.94488500 -0.00002900 -0.00019400 0.67054205 -0.33447526 -1.14200357
29 10.62016600 0.00000200 0.00001000 -2.89489916 -0.51712381 0.75697183
30 4.75115600 0.69437600 -0.83047300 -0.06963100 -0.18956200 1.20293400
31 1.68806500 -0.00002600 0.00000200 -0.00178600 -0.02466300 1.51256600
32 1.33615100 -0.00005100 -0.00000900 0.00162500 -0.03868900 0.32920800
33 4.82051300 0.50934000 0.22486500 -0.15643200 -0.01406900 1.57957000
34 1.82699600 0.00006600 0.00000800 -0.00186700 0.04038300 1.22708400
35 1.43657700 -0.00001000 0.00000700 0.00808100 -0.01279400 0.27447100
36 3.99235300 0.89108700 1.82799400 -0.26823800 0.10724000 1.40713400
37 1.40591800 0.00002100 -0.00000700 -0.01645600 -0.02445100 1.46689000
38 1.17536900 -0.00013100 0.00000200 0.02096900 0.12149700 0.12659500
39 4.52675600 0.69046000 1.12084200 -0.15292900 0.08798300 1.61269300
40 1.74404100 -0.00003100 -0.00000200 -0.02493600 -0.01580100 1.41848500
41 1.36876300 -0.00003100 -0.00001700 -0.24626800 0.17807500 0.18497200
42 1.87485500 0.93508100 -0.99913000 2.44808600 0.23419600 1.08300800
43 1.45054600 -0.06019000 0.09121600 0.04429500 0.17016300 0.35957300
44 1.59928100 -0.00000200 0.00000900 0.08169400 -0.01721100 1.03306000
45 5.51180600 -0.00000200 0.00000600 -0.66744800 0.00000000 0.00000000
46 0.19685000 0.00000300 -0.00000200 -0.34822500 0.00001500 -0.00000200
47 0.00000000 1.00000000 0.00000000 0.00000000 0.00000000 -1.57079600
48 -3.47734200 3.27852200 -2.72292100 0.00000000 0.00000000 -3.14156200
49 -4.45158644 21.55886978 -0.80975467 0.43563389 0.15104343 -0.78320104
50 11.97565600 0.60073800 -3.41185600 0.21793700 1.03451400 1.57217400
51 5.68842700 -0.01178200 -0.37496100 0.00000000 0.00000000 0.00000000
52 -5.79591200 -0.00336600 0.65722100 0.00000000 0.00000000 0.00000000
53 0.12109200 0.00000000 -0.11972000 0.00000000 0.00000000 0.00000000
54 -0.81526300 0.44890800 1.20490500 0.00000000 0.00000000 0.00000000
55 -4.54927400 -0.05422000 -0.66098900 0.00000000 0.00000000 0.00000000
56 -4.11342000 -2.62846000 -4.75590600 2.73160200 -0.06448900 -1.98897400
time 8
0 -0.00000100 8.45008800 -27.50902600 0.00000000 0.00000000 0.00003100
1 -0.00000200 0.00000000 0.00000000 1.57074300 -1.56713700 -1.57074300
2 4.25546800 -0.33518300 -0.00000200 0.00000000 0.00000000 -0.12484800
3 7.43124800 1.49647700 0.00000200 0.00000000 0.00000000 0.24545000
4 5.27847900 0.16554100 0.00000100 0.00000000 0.00000000 0.04851100
5 -1.03712400 -6.47972900 0.95346200 1.97586400 1.15990900 -1.29878600
6 -6.21448200 -0.00000700 -0.00002700 -2.85716065 -0.28893014 1.81268428
7 11.94488200 0.00000000 0.00000100 -0.24358801 -0.34616082 1.62936332
8 10.62018100 0.00000200 0.00000000 0.97724237 -0.24898844 2.73076601
9 -4.75110600 -0.69449400 0.83057700 -0.21244700 0.13723700 0.56559200
10 -1.68806800 0.00004600 -0.00003200 0.01476400 -0.01983500 0.80019500
11 -1.33614000 0.00005700 -0.00001200 0.02599100 -0.00450100 0.72485300
12 -4.82049400 -0.50946000 -0.22475900 -0.33666500 0.06009700 1.41259200
13 -1.82699200 -0.00006400 0.00000600 -0.00131800 0.04043600 1.24234300
14 -1.43657300 0.00000600 0.00000200 -0.04286600 -0.06491600 0.49261200
15 -3.99235500 -0.89118800 -1.82790900 -0.41942700 0.35068000 1.51819800
16 -1.40591800 -0.00002500 -0.00000300 0.00712800 -0.02856300 0.62998400
17 -1.17535800 0.00012800 -0.00002000 0.06062700 0.03058100 1.00743600
18 -4.52675100 -0.69057500 -1.12074400 -0.43113200 0.21594300 1.61193500
19 -1.74403800 0.00003300 -0.00000800 -0.02031700 -0.02143900 1.17042900
20 -1.36877100 0.00002500 0.00000200 0.02081800 0.04817500 0.30338500
21 -1.84032000 -1.13761000 1.04589900 2.22706100 0.43026100 0.92075000
22 -1.52345300 0.00003200 0.00003100 0.06200100 0.16249200 0.46746700
23 -1.59928500 0.00000400 0.00001600 0.02989500 -0.03079900 0.78129700
24 5.58312500 0.11572300 0.29500000 2.23698600 -0.06403800 3.11154600
25 0.19684700 -0.00000100 0.00000300 2.79340694 -0.00050641 -3.14144184
26 -2.16464100 -14.95381200 -0.54853800 1.97586200 1.15990900 1.84280300
27 6.21448500 0.00000600 0.00002000 -0.47178571 0.35066419 -1.74725239
28 11.94488500 -0.00002900 -0.00019400 0.46649362 -0.32973758 -1.12307529
29 10.62016600 0.00000200 0.00001000 -2.85327628 -0.54385360 0.68713732
30 4.75115600 0.69437600 -0.83047300 -0.06963100 -0.18956200 1.20293400
31 1.68806500 -0.00002600 0.00000200 -0.00178600 -0.02466300 1.51256600
32 1.33615100 -0.00005100 -0.00000900 0.00162500 -0.03868900 0.32920800
33 4.82051300 0.50934000 0.22486500 -0.15643200 -0.01406900 1.57957000
34 1.82699600 0.00006600 0.00000800 -0.00186700 0.04038300 1.22708400
35 1.43657700 -0.00001000 0.00000700 0.00808100 -0.01279400 0.27447100
36 3.99235300 0.89108700 1.82799400 -0.26823800 0.10724000 1.40713400
37 1.40591800 0.00002100 -0.00000700 -0.01645600 -0.02445100 1.46689000
38 1.17536900 -0.00013100 0.00000200 0.02096900 0.12149700 0.12659500
39 4.52675600 0.69046000 1.12084200 -0.15292900 0.08798300 1.61269300
40 1.74404100 -0.00003100 -0.00000200 -0.02493600 -0.01580100 1.41848500
41 1.36876300 -0.00003100 -0.00001700 -0.24626800 0.17807500 0.18497200
42 1.87485500 0.93508100 -0.99913000 2.44808600 0.23419600 1.08300800
43 1.45054600 -0.06019000 0.09121600 0.04429500 0.17016300 0.35957300
44 1.59928100 -0.00000200 0.00000900 0.08169400 -0.01721100 1.03306000
45 5.51180600 -0.00000200 0.00000600 -0.66744800 0.00000000 0.00000000
46 0.19685000 0.00000300 -0.00000200 -0.34822500 0.00001500 -0.00000200
47 0.00000000 1.00000000 0.00000000 0.00000000 0.00000000 -1.57079600
48 -3.47734200 3.27852200 -2.72292100 0.00000000 0.00000000 -3.14156200
49 -4.07920078 21.70024978 -0.84768933 0.41119577 0.11928992 -0.96850194
50 11.97565600 0.60073800 -3.41185600 0.21793700 1.03451400 1.57217400
51 5.68842700 -0.01178200 -0.37496100 0.00000000 0.00000000 0.00000000
52 -5.79591200 -0.00336600 0.65722100 0.00000000 0.00000000 0.00000000
53 0.12109200 0.00000000 -0.11972000 0.00000000 0.00000000 0.00000000
54 -0.81526300 0.44890800 1.20490500 0.00000000 0.00000000 0.00000000
55 -4.54927400 -0.05422000 -0.66098900 0.00000000 0.00000000 0.00000000
56 -4.11342000 -2.62846000 -4.75590600 2.73160200 -0.06448900 -1.98897400
time 9
0 -0.00000100 8.45008800 -27.50902600 0.00000000 0.00000000 0.00003100
1 -0.00000200 0.00000000 0.00000000 1.57074300 -1.56713700 -1.57074300
2 4.25546800 -0.33518300 -0.00000200 0.00000000 0.00000000 -0.12484800
3 7.43124800 1.49647700 0.00000200 0.00000000 0.00000000 0.24545000
4 5.27847900 0.16554100 0.00000100 0.00000000 0.00000000 0.04851100
5 -0.97397300 -5.41002700 -0.71609700 1.97586400 1.15990900 -1.29878600
6 -6.21448200 -0.00000700 -0.00002700 -2.90030978 -0.22877114 1.85342777
7 11.94488200 0.00000000 0.00000100 -0.24363580 -0.34847632 1.62955230
8 10.62018100 0.00000200 0.00000000 0.96278292 -0.21413584 2.58048228
9 -4.75110600 -0.69449400 0.83057700 -0.21244700 0.13723700 0.56559200
10 -1.68806800 0.00004600 -0.00003200 0.01476400 -0.01983500 0.80019500
11 -1.33614000 0.00005700 -0.00001200 0.02599100 -0.00450100 0.72485300
12 -4.82049400 -0.50946000 -0.22475900 -0.33666500 0.06009700 1.41259200
13 -1.82699200 -0.00006400 0.00000600 -0.00131800 0.04043600 1.24234300
14 -1.43657300 0.00000600 0.00000200 -0.04286600 -0.06491600 0.49261200
15 -3.99235500 -0.89118800 -1.82790900 -0.41942700 0.35068000 1.51819800
16 -1.40591800 -0.00002500 -0.00000300 0.00712800 -0.02856300 0.62998400
17 -1.17535800 0.00012800 -0.00002000 0.06062700 0.03058100 1.00743600
18 -4.52675100 -0.69057500 -1.12074400 -0.43113200 0.21594300 1.61193500
19 -1.74403800 0.00003300 -0.00000800 -0.02031700 -0.02143900 1.17042900
20 -1.36877100 0.00002500 0.00000200 0.02081800 0.04817500 0.30338500
21 -1.84032000 -1.13761000 1.04589900 2.22706100 0.43026100 0.92075000
22 -1.52345300 0.00003200 0.00003100 0.06200100 0.16249200 0.46746700
23 -1.59928500 0.00000400 0.00001600 0.02989500 -0.03079900 0.78129700
24 5.58312500 0.11572300 0.29500000 2.23698600 -0.06403800 3.11154600
25 0.19684700 -0.00000100 0.00000300 2.79340694 -0.00050641 -3.14144184
26 -2.37051100 -15.53314000 -0.77742200 1.97586200 1.15990900 1.84280300
27 6.21448500 0.00000600 0.00002000 -0.42983998 0.34536507 -1.77213847
28 11.94488500 -0.00002900 -0.00019400 0.29644296 -0.33099260 -1.13840268
29 10.62016600 0.00000200 0.00001000 -2.74838560 -0.54145617 0.58951376
30 4.75115600 0.69437600 -0.83047300 -0.06963100 -0.18956200 1.20293400
31 1.68806500 -0.00002600 0.00000200 -0.00178600 -0.02466300 1.51256600
32 1.33615100 -0.00005100 -0.00000900 0.00162500 -0.03868900 0.32920800
33 4.82051300 0.50934000 0.22486500 -0.15643200 -0.01406900 1.57957000
34 1.82699600 0.00006600 0.00000800 -0.00186700 0.04038300 1.22708400
35 1.43657700 -0.00001000 0.00000700 0.00808100 -0.01279400 0.27447100
36 3.99235300 0.89108700 1.82799400 -0.26823800 0.10724000 1.40713400
37 1.40591800 0.00002100 -0.00000700 -0.01645600 -0.02445100 1.46689000
38 1.17536900 -0.00013100 0.00000200 0.02096900 0.12149700 0.12659500
39 4.52675600 0.69046000 1.12084200 -0.15292900 0.08798300 1.61269300
40 1.74404100 -0.00003100 -0.00000200 -0.02493600 -0.01580100 1.41848500
41 1.36876300 -0.00003100 -0.00001700 -0.24626800 0.17807500 0.18497200
42 1.87485500 0.93508100 -0.99913000 2.44808600 0.23419600 1.08300800
43 1.45054600 -0.06019000 0.09121600 0.04429500 0.17016300 0.35957300
44 1.59928100 -0.00000200 0.00000900 0.08169400 -0.01721100 1.03306000
45 5.51180600 -0.00000200 0.00000600 -0.66744800 0.00000000 0.00000000
46 0.19685000 0.00000300 -0.00000200 -0.34822500 0.00001500 -0.00000200
47 0.00000000 1.00000000 0.00000000 0.00000000 0.00000000 -1.57079600
48 -3.47734200 3.27852200 -2.72292100 0.00000000 0.00000000 -3.14156200
49 -3.92879622 21.83911678 -0.82658689 0.37100394 0.09356668 -1.12720642
50 11.97565600 0.60073800 -3.41185600 0.21793700 1.03451400 1.57217400
51 5.68842700 -0.01178200 -0.37496100 0.00000000 0.00000000 0.00000000
52 -5.79591200 -0.00336600 0.65722100 0.00000000 0.00000000 0.00000000
53 0.12109200 0.00000000 -0.11972000 0.00000000 0.00000000 0.00000000
54 -0.81526300 0.44890800 1.20490500 0.00000000 0.00000000 0.00000000
55 -4.54927400 -0.05422000 -0.66098900 0.00000000 0.00000000 0.00000000
56 -4.11342000 -2.62846000 -4.75590600 2.73160200 -0.06448900 -1.98897400
time 10
0 -0.00000100 8.45008800 -27.50902600 0.00000000 0.00000000 0.00003100
1 -0.00000200 0.00000000 0.00000000 1.57074300 -1.56713700 -1.57074300
2 4.25546800 -0.33518300 -0.00000200 0.00000000 0.00000000 -0.12484800
3 7.43124800 1.49647700 0.00000200 0.00000000 0.00000000 0.24545000
4 5.27847900 0.16554100 0.00000100 0.00000000 0.00000000 0.04851100
5 -0.92930700 -4.65340700 -1.89700600 1.97586400 1.15990900 -1.29878600
6 -6.21448200 -0.00000700 -0.00002700 -2.93838179 -0.17627267 1.85426964
7 11.94488200 0.00000000 0.00000100 -0.24259750 -0.34968516 1.62642559
8 10.62018100 0.00000200 0.00000000 0.93241734 -0.18050423 2.41335556
9 -4.75110600 -0.69449400 0.83057700 -0.21244700 0.13723700 0.56559200
10 -1.68806800 0.00004600 -0.00003200 0.01476400 -0.01983500 0.80019500
11 -1.33614000 0.00005700 -0.00001200 0.02599100 -0.00450100 0.72485300
12 -4.82049400 -0.50946000 -0.22475900 -0.33666500 0.06009700 1.41259200
13 -1.82699200 -0.00006400 0.00000600 -0.00131800 0.04043600 1.24234300
14 -1.43657300 0.00000600 0.00000200 -0.04286600 -0.06491600 0.49261200
15 -3.99235500 -0.89118800 -1.82790900 -0.41942700 0.35068000 1.51819800
16 -1.40591800 -0.00002500 -0.00000300 0.00712800 -0.02856300 0.62998400
17 -1.17535800 0.00012800 -0.00002000 0.06062700 0.03058100 1.00743600
18 -4.52675100 -0.69057500 -1.12074400 -0.43113200 0.21594300 1.61193500
19 -1.74403800 0.00003300 -0.00000800 -0.02031700 -0.02143900 1.17042900
20 -1.36877100 0.00002500 0.00000200 0.02081800 0.04817500 0.30338500
21 -1.84032000 -1.13761000 1.04589900 2.22706100 0.43026100 0.92075000
22 -1.52345300 0.00003200 0.00003100 0.06200100 0.16249200 0.46746700
23 -1.59928500 0.00000400 0.00001600 0.02989500 -0.03079900 0.78129700
24 5.58312500 0.11572300 0.29500000 2.23698600 -0.06403800 3.11154600
25 0.19684700 -0.00000100 0.00000300 2.79340694 -0.00050641 -3.14144184
26 -2.57638500 -16.11247100 -1.00630800 1.97586200 1.15990900 1.84280300
27 6.21448500 0.00000600 0.00002000 -0.41046715 0.34463871 -1.79163047
28 11.94488500 -0.00002900 -0.00019400 0.16236527 -0.33579707 -1.17343644
29 10.62016600 0.00000200 0.00001000 -2.61414423 -0.50056694 0.50192684
30 4.75115600 0.69437600 -0.83047300 -0.06963100 -0.18956200 1.20293400
31 1.68806500 -0.00002600 0.00000200 -0.00178600 -0.02466300 1.51256600
32 1.33615100 -0.00005100 -0.00000900 0.00162500 -0.03868900 0.32920800
33 4.82051300 0.50934000 0.22486500 -0.15643200 -0.01406900 1.57957000
34 1.82699600 0.00006600 0.00000800 -0.00186700 0.04038300 1.22708400
35 1.43657700 -0.00001000 0.00000700 0.00808100 -0.01279400 0.27447100
36 3.99235300 0.89108700 1.82799400 -0.26823800 0.10724000 1.40713400
37 1.40591800 0.00002100 -0.00000700 -0.01645600 -0.02445100 1.46689000
38 1.17536900 -0.00013100 0.00000200 0.02096900 0.12149700 0.12659500
39 4.52675600 0.69046000 1.12084200 -0.15292900 0.08798300 1.61269300
40 1.74404100 -0.00003100 -0.00000200 -0.02493600 -0.01580100 1.41848500
41 1.36876300 -0.00003100 -0.00001700 -0.24626800 0.17807500 0.18497200
42 1.87485500 0.93508100 -0.99913000 2.44808600 0.23419600 1.08300800
43 1.45054600 -0.06019000 0.09121600 0.04429500 0.17016300 0.35957300
44 1.59928100 -0.00000200 0.00000900 0.08169400 -0.01721100 1.03306000
45 5.51180600 -0.00000200 0.00000600 -0.66744800 0.00000000 0.00000000
46 0.19685000 0.00000300 -0.00000200 -0.34822500 0.00001500 -0.00000200
47 0.00000000 1.00000000 0.00000000 0.00000000 0.00000000 -1.57079600
48 -3.47734200 3.27852200 -2.72292100 0.00000000 0.00000000 -3.14156200
49 -3.81214833 21.97042978 -0.71932811 0.31018133 0.07032709 -1.26300633
50 11.97565600 0.60073800 -3.41185600 0.21793700 1.03451400 1.57217400
51 5.68842700 -0.01178200 -0.37496100 0.00000000 0.00000000 0.00000000
52 -5.79591200 -0.00336600 0.65722100 0.00000000 0.00000000 0.00000000
53 0.12109200 0.00000000 -0.11972000 0.00000000 0.00000000 0.00000000
54 -0.81526300 0.44890800 1.20490500 0.00000000 0.00000000 0.00000000
55 -4.54927400 -0.05422000 -0.66098900 0.00000000 0.00000000 0.00000000
56 -4.11342000 -2.62846000 -4.75590600 2.73160200 -0.06448900 -1.98897400
time 11
0 -0.00000100 8.45008800 -27.50902600 0.00000000 0.00000000 0.00003100
1 -0.00000200 0.00000000 0.00000000 1.57074300 -1.56713700 -1.57074300
2 4.25546800 -0.33518300 -0.00000200 0.00000000 0.00000000 -0.12484800
3 7.43124800 1.49647700 0.00000200 0.00000000 0.00000000 0.24545000
4 5.27847900 0.16554100 0.00000100 0.00000000 0.00000000 0.04851100
5 -0.91236200 -4.36641300 -2.34493400 1.97586400 1.15990900 -1.29878600
6 -6.21448200 -0.00000700 -0.00002700 -2.95920604 -0.14295410 1.81085388
7 11.94488200 0.00000000 0.00000100 -0.24848123 -0.34903085 1.64360792
8 10.62018100 0.00000200 0.00000000 0.91554827 -0.15082847 2.21406014
9 -4.75110600 -0.69449400 0.83057700 -0.21244700 0.13723700 0.56559200
10 -1.68806800 0.00004600 -0.00003200 0.01476400 -0.01983500 0.80019500
11 -1.33614000 0.00005700 -0.00001200 0.02599100 -0.00450100 0.72485300
12 -4.82049400 -0.50946000 -0.22475900 -0.33666500 0.06009700 1.41259200
13 -1.82699200 -0.00006400 0.00000600 -0.00131800 0.04043600 1.24234300
14 -1.43657300 0.00000600 0.00000200 -0.04286600 -0.06491600 0.49261200
15 -3.99235500 -0.89118800 -1.82790900 -0.41942700 0.35068000 1.51819800
16 -1.40591800 -0.00002500 -0.00000300 0.00712800 -0.02856300 0.62998400
17 -1.17535800 0.00012800 -0.00002000 0.06062700 0.03058100 1.00743600
18 -4.52675100 -0.69057500 -1.12074400 -0.43113200 0.21594300 1.61193500
19 -1.74403800 0.00003300 -0.00000800 -0.02031700 -0.02143900 1.17042900
20 -1.36877100 0.00002500 0.00000200 0.02081800 0.04817500 0.30338500
21 -1.84032000 -1.13761000 1.04589900 2.22706100 0.43026100 0.92075000
22 -1.52345300 0.00003200 0.00003100 0.06200100 0.16249200 0.46746700
23 -1.59928500 0.00000400 0.00001600 0.02989500 -0.03079900 0.78129700
24 5.58312500 0.11572300 0.29500000 2.23698600 -0.06403800 3.11154600
25 0.19684700 -0.00000100 0.00000300 2.79340694 -0.00050641 -3.14144184
26 -2.77071400 -16.65931300 -1.22235700 1.97586200 1.15990900 1.84280300
27 6.21448500 0.00000600 0.00002000 -0.40716728 0.34552000 -1.80682099
28 11.94488500 -0.00002900 -0.00019400 0.06073509 -0.34195627 -1.21594470
29 10.62016600 0.00000200 0.00001000 -2.48326521 -0.43431531 0.44584173
30 4.75115600 0.69437600 -0.83047300 -0.06963100 -0.18956200 1.20293400
31 1.68806500 -0.00002600 0.00000200 -0.00178600 -0.02466300 1.51256600
32 1.33615100 -0.00005100 -0.00000900 0.00162500 -0.03868900 0.32920800
33 4.82051300 0.50934000 0.22486500 -0.15643200 -0.01406900 1.57957000
34 1.82699600 0.00006600 0.00000800 -0.00186700 0.04038300 1.22708400
35 1.43657700 -0.00001000 0.00000700 0.00808100 -0.01279400 0.27447100
36 3.99235300 0.89108700 1.82799400 -0.26823800 0.10724000 1.40713400
37 1.40591800 0.00002100 -0.00000700 -0.01645600 -0.02445100 1.46689000
38 1.17536900 -0.00013100 0.00000200 0.02096900 0.12149700 0.12659500
39 4.52675600 0.69046000 1.12084200 -0.15292900 0.08798300 1.61269300
40 1.74404100 -0.00003100 -0.00000200 -0.02493600 -0.01580100 1.41848500
41 1.36876300 -0.00003100 -0.00001700 -0.24626800 0.17807500 0.18497200
42 1.87485500 0.93508100 -0.99913000 2.44808600 0.23419600 1.08300800
43 1.45054600 -0.06019000 0.09121600 0.04429500 0.17016300 0.35957300
44 1.59928100 -0.00000200 0.00000900 0.08169400 -0.01721100 1.03306000
45 5.51180600 -0.00000200 0.00000600 -0.66744800 0.00000000 0.00000000
46 0.19685000 0.00000300 -0.00000200 -0.34822500 0.00001500 -0.00000200
47 0.00000000 1.00000000 0.00000000 0.00000000 0.00000000 -1.57079600
48 -3.47734200 3.27852200 -2.72292100 0.00000000 0.00000000 -3.14156200
49 -3.72869233 22.08915878 -0.55802389 0.23950775 0.04673496 -1.37395102
50 11.97565600 0.60073800 -3.41185600 0.21793700 1.03451400 1.57217400
51 5.68842700 -0.01178200 -0.37496100 0.00000000 0.00000000 0.00000000
52 -5.79591200 -0.00336600 0.65722100 0.00000000 0.00000000 0.00000000
53 0.12109200 0.00000000 -0.11972000 0.00000000 0.00000000 0.00000000
54 -0.81526300 0.44890800 1.20490500 0.00000000 0.00000000 0.00000000
55 -4.54927400 -0.05422000 -0.66098900 0.00000000 0.00000000 0.00000000
56 -4.11342000 -2.62846000 -4.75590600 2.73160200 -0.06448900 -1.98897400
time 12
0 -0.00000100 8.45008800 -27.50902600 0.00000000 0.00000000 0.00003100
1 -0.00000200 0.00000000 0.00000000 1.57074300 -1.56713700 -1.57074300
2 4.25546800 -0.33518300 -0.00000200 0.00000000 0.00000000 -0.12484800
3 7.43124800 1.49647700 0.00000200 0.00000000 0.00000000 0.24545000
4 5.27847900 0.16554100 0.00000100 0.00000000 0.00000000 0.04851100
5 -0.91236200 -4.36641300 -2.34493400 1.97586400 1.15990900 -1.29878600
6 -6.21448200 -0.00000700 -0.00002700 -2.96574848 -0.11912142 1.74206706
7 11.94488200 0.00000000 0.00000100 -0.25297899 -0.34752668 1.65686367
8 10.62018100 0.00000200 0.00000000 0.90403919 -0.12181795 2.02299493
9 -4.75110600 -0.69449400 0.83057700 -0.21244700 0.13723700 0.56559200
10 -1.68806800 0.00004600 -0.00003200 0.01476400 -0.01983500 0.80019500
11 -1.33614000 0.00005700 -0.00001200 0.02599100 -0.00450100 0.72485300
12 -4.82049400 -0.50946000 -0.22475900 -0.33666500 0.06009700 1.41259200
13 -1.82699200 -0.00006400 0.00000600 -0.00131800 0.04043600 1.24234300
14 -1.43657300 0.00000600 0.00000200 -0.04286600 -0.06491600 0.49261200
15 -3.99235500 -0.89118800 -1.82790900 -0.41942700 0.35068000 1.51819800
16 -1.40591800 -0.00002500 -0.00000300 0.00712800 -0.02856300 0.62998400
17 -1.17535800 0.00012800 -0.00002000 0.06062700 0.03058100 1.00743600
18 -4.52675100 -0.69057500 -1.12074400 -0.43113200 0.21594300 1.61193500
19 -1.74403800 0.00003300 -0.00000800 -0.02031700 -0.02143900 1.17042900
20 -1.36877100 0.00002500 0.00000200 0.02081800 0.04817500 0.30338500
21 -1.84032000 -1.13761000 1.04589900 2.22706100 0.43026100 0.92075000
22 -1.52345300 0.00003200 0.00003100 0.06200100 0.16249200 0.46746700
23 -1.59928500 0.00000400 0.00001600 0.02989500 -0.03079900 0.78129700
24 5.58312500 0.11572300 0.29500000 2.23698600 -0.06403800 3.11154600
25 0.19684700 -0.00000100 0.00000300 2.79340694 -0.00050641 -3.14144184
26 -2.94195100 -17.14118600 -1.41273800 1.97586200 1.15990900 1.84280300
27 6.21448500 0.00000600 0.00002000 -0.41561760 0.34432489 -1.82108794
28 11.94488500 -0.00002900 -0.00019400 -0.01387853 -0.34712798 -1.25465641
29 10.62016600 0.00000200 0.00001000 -2.37038307 -0.35998795 0.42231388
30 4.75115600 0.69437600 -0.83047300 -0.06963100 -0.18956200 1.20293400
31 1.68806500 -0.00002600 0.00000200 -0.00178600 -0.02466300 1.51256600
32 1.33615100 -0.00005100 -0.00000900 0.00162500 -0.03868900 0.32920800
33 4.82051300 0.50934000 0.22486500 -0.15643200 -0.01406900 1.57957000
34 1.82699600 0.00006600 0.00000800 -0.00186700 0.04038300 1.22708400
35 1.43657700 -0.00001000 0.00000700 0.00808100 -0.01279400 0.27447100
36 3.99235300 0.89108700 1.82799400 -0.26823800 0.10724000 1.40713400
37 1.40591800 0.00002100 -0.00000700 -0.01645600 -0.02445100 1.46689000
38 1.17536900 -0.00013100 0.00000200 0.02096900 0.12149700 0.12659500
39 4.52675600 0.69046000 1.12084200 -0.15292900 0.08798300 1.61269300
40 1.74404100 -0.00003100 -0.00000200 -0.02493600 -0.01580100 1.41848500
41 1.36876300 -0.00003100 -0.00001700 -0.24626800 0.17807500 0.18497200
42 1.87485500 0.93508100 -0.99913000 2.44808600 0.23419600 1.08300800
43 1.45054600 -0.06019000 0.09121600 0.04429500 0.17016300 0.35957300
44 1.59928100 -0.00000200 0.00000900 0.08169400 -0.01721100 1.03306000
45 5.51180600 -0.00000200 0.00000600 -0.66744800 0.00000000 0.00000000
46 0.19685000 0.00000300 -0.00000200 -0.34822500 0.00001500 -0.00000200
47 0.00000000 1.00000000 0.00000000 0.00000000 0.00000000 -1.57079600
48 -3.47734200 3.27852200 -2.72292100 0.00000000 0.00000000 -3.14156200
49 -3.65645033 22.19026678 -0.35126489 0.16911564 0.02374247 -1.45968224
50 11.97565600 0.60073800 -3.41185600 0.21793700 1.03451400 1.57217400
51 5.68842700 -0.01178200 -0.37496100 0.00000000 0.00000000 0.00000000
52 -5.79591200 -0.00336600 0.65722100 0.00000000 0.00000000 0.00000000
53 0.12109200 0.00000000 -0.11972000 0.00000000 0.00000000 0.00000000
54 -0.81526300 0.44890800 1.20490500 0.00000000 0.00000000 0.00000000
55 -4.54927400 -0.05422000 -0.66098900 0.00000000 0.00000000 0.00000000
56 -4.11342000 -2.62846000 -4.75590600 2.73160200 -0.06448900 -1.98897400
time 13
0 -0.00000100 8.45008800 -27.50902600 0.00000000 0.00000000 0.00003100
1 -0.00000200 0.00000000 0.00000000 1.57074300 -1.56713700 -1.57074300
2 4.25546800 -0.33518300 -0.00000200 0.00000000 0.00000000 -0.12484800
3 7.43124800 1.49647700 0.00000200 0.00000000 0.00000000 0.24545000
4 5.27847900 0.16554100 0.00000100 0.00000000 0.00000000 0.04851100
5 -0.91236200 -4.36641300 -2.34493400 1.97586400 1.15990900 -1.29878600
6 -6.21448200 -0.00000700 -0.00002700 -2.96617304 -0.09524088 1.67998153
7 11.94488200 0.00000000 0.00000100 -0.24876403 -0.34687371 1.64454914
8 10.62018100 0.00000200 0.00000000 0.87962025 -0.10317899 1.88633714
9 -4.75110600 -0.69449400 0.83057700 -0.21244700 0.13723700 0.56559200
10 -1.68806800 0.00004600 -0.00003200 0.01476400 -0.01983500 0.80019500
11 -1.33614000 0.00005700 -0.00001200 0.02599100 -0.00450100 0.72485300
12 -4.82049400 -0.50946000 -0.22475900 -0.33666500 0.06009700 1.41259200
13 -1.82699200 -0.00006400 0.00000600 -0.00131800 0.04043600 1.24234300
14 -1.43657300 0.00000600 0.00000200 -0.04286600 -0.06491600 0.49261200
15 -3.99235500 -0.89118800 -1.82790900 -0.41942700 0.35068000 1.51819800
16 -1.40591800 -0.00002500 -0.00000300 0.00712800 -0.02856300 0.62998400
17 -1.17535800 0.00012800 -0.00002000 0.06062700 0.03058100 1.00743600
18 -4.52675100 -0.69057500 -1.12074400 -0.43113200 0.21594300 1.61193500
19 -1.74403800 0.00003300 -0.00000800 -0.02031700 -0.02143900 1.17042900
20 -1.36877100 0.00002500 0.00000200 0.02081800 0.04817500 0.30338500
21 -1.84032000 -1.13761000 1.04589900 2.22706100 0.43026100 0.92075000
22 -1.52345300 0.00003200 0.00003100 0.06200100 0.16249200 0.46746700
23 -1.59928500 0.00000400 0.00001600 0.02989500 -0.03079900 0.78129700
24 5.58312500 0.11572300 0.29500000 2.23698600 -0.06403800 3.11154600
25 0.19684700 -0.00000100 0.00000300 2.79340694 -0.00050641 -3.14144184
26 -3.07855900 -17.52560200 -1.56461600 1.97586200 1.15990900 1.84280300
27 6.21448500 0.00000600 0.00002000 -0.43177475 0.34046859 -1.83432706
28 11.94488500 -0.00002900 -0.00019400 -0.06552659 -0.35044697 -1.28458286
29 10.62016600 0.00000200 0.00001000 -2.27679417 -0.28826968 0.42102130
30 4.75115600 0.69437600 -0.83047300 -0.06963100 -0.18956200 1.20293400
31 1.68806500 -0.00002600 0.00000200 -0.00178600 -0.02466300 1.51256600
32 1.33615100 -0.00005100 -0.00000900 0.00162500 -0.03868900 0.32920800
33 4.82051300 0.50934000 0.22486500 -0.15643200 -0.01406900 1.57957000
34 1.82699600 0.00006600 0.00000800 -0.00186700 0.04038300 1.22708400
35 1.43657700 -0.00001000 0.00000700 0.00808100 -0.01279400 0.27447100
36 3.99235300 0.89108700 1.82799400 -0.26823800 0.10724000 1.40713400
37 1.40591800 0.00002100 -0.00000700 -0.01645600 -0.02445100 1.46689000
38 1.17536900 -0.00013100 0.00000200 0.02096900 0.12149700 0.12659500
39 4.52675600 0.69046000 1.12084200 -0.15292900 0.08798300 1.61269300
40 1.74404100 -0.00003100 -0.00000200 -0.02493600 -0.01580100 1.41848500
41 1.36876300 -0.00003100 -0.00001700 -0.24626800 0.17807500 0.18497200
42 1.87485500 0.93508100 -0.99913000 2.44808600 0.23419600 1.08300800
43 1.45054600 -0.06019000 0.09121600 0.04429500 0.17016300 0.35957300
44 1.59928100 -0.00000200 0.00000900 0.08169400 -0.01721100 1.03306000
45 5.51180600 -0.00000200 0.00000600 -0.66744800 0.00000000 0.00000000
46 0.19685000 0.00000300 -0.00000200 -0.34822500 0.00001500 -0.00000200
47 0.00000000 1.00000000 0.00000000 0.00000000 0.00000000 -1.57079600
48 -3.47734200 3.27852200 -2.72292100 0.00000000 0.00000000 -3.14156200
49 -3.58435522 22.26871978 -0.13292389 0.10260599 0.00343181 -1.52069878
50 11.97565600 0.60073800 -3.41185600 0.21793700 1.03451400 1.57217400
51 5.68842700 -0.01178200 -0.37496100 0.00000000 0.00000000 0.00000000
52 -5.79591200 -0.00336600 0.65722100 0.00000000 0.00000000 0.00000000
53 0.12109200 0.00000000 -0.11972000 0.00000000 0.00000000 0.00000000
54 -0.81526300 0.44890800 1.20490500 0.00000000 0.00000000 0.00000000
55 -4.54927400 -0.05422000 -0.66098900 0.00000000 0.00000000 0.00000000
56 -4.11342000 -2.62846000 -4.75590600 2.73160200 -0.06448900 -1.98897400
time 14
0 -0.00000100 8.45008800 -27.50902600 0.00000000 0.00000000 0.00003100
1 -0.00000200 0.00000000 0.00000000 1.57074300 -1.56713700 -1.57074300
2 4.25546800 -0.33518300 -0.00000200 0.00000000 0.00000000 -0.12484800
3 7.43124800 1.49647700 0.00000200 0.00000000 0.00000000 0.24545000
4 5.27847900 0.16554100 0.00000100 0.00000000 0.00000000 0.04851100
5 -0.91236200 -4.36641300 -2.34493400 1.97586400 1.15990900 -1.29878600
6 -6.21448200 -0.00000700 -0.00002700 -2.96617999 -0.07776282 1.63652979
7 11.94488200 0.00000000 0.00000100 -0.24260647 -0.34669981 1.62646124
8 10.62018100 0.00000200 0.00000000 0.84900287 -0.09310889 1.80224336
9 -4.75110600 -0.69449400 0.83057700 -0.21244700 0.13723700 0.56559200
10 -1.68806800 0.00004600 -0.00003200 0.01476400 -0.01983500 0.80019500
11 -1.33614000 0.00005700 -0.00001200 0.02599100 -0.00450100 0.72485300
12 -4.82049400 -0.50946000 -0.22475900 -0.33666500 0.06009700 1.41259200
13 -1.82699200 -0.00006400 0.00000600 -0.00131800 0.04043600 1.24234300
14 -1.43657300 0.00000600 0.00000200 -0.04286600 -0.06491600 0.49261200
15 -3.99235500 -0.89118800 -1.82790900 -0.41942700 0.35068000 1.51819800
16 -1.40591800 -0.00002500 -0.00000300 0.00712800 -0.02856300 0.62998400
17 -1.17535800 0.00012800 -0.00002000 0.06062700 0.03058100 1.00743600
18 -4.52675100 -0.69057500 -1.12074400 -0.43113200 0.21594300 1.61193500
19 -1.74403800 0.00003300 -0.00000800 -0.02031700 -0.02143900 1.17042900
20 -1.36877100 0.00002500 0.00000200 0.02081800 0.04817500 0.30338500
21 -1.84032000 -1.13761000 1.04589900 2.22706100 0.43026100 0.92075000
22 -1.52345300 0.00003200 0.00003100 0.06200100 0.16249200 0.46746700
23 -1.59928500 0.00000400 0.00001600 0.02989500 -0.03079900 0.78129700
24 5.58312500 0.11572300 0.29500000 2.23698600 -0.06403800 3.11154600
25 0.19684700 -0.00000100 0.00000300 2.79340694 -0.00050641 -3.14144184
26 -3.16898700 -17.78007100 -1.66515400 1.97586200 1.15990900 1.84280300
27 6.21448500 0.00000600 0.00002000 -0.44939205 0.33552268 -1.84404259
28 11.94488500 -0.00002900 -0.00019400 -0.09691961 -0.35181406 -1.30255246
29 10.62016600 0.00000200 0.00001000 -2.20617387 -0.23069742 0.42759860
30 4.75115600 0.69437600 -0.83047300 -0.06963100 -0.18956200 1.20293400
31 1.68806500 -0.00002600 0.00000200 -0.00178600 -0.02466300 1.51256600
32 1.33615100 -0.00005100 -0.00000900 0.00162500 -0.03868900 0.32920800
33 4.82051300 0.50934000 0.22486500 -0.15643200 -0.01406900 1.57957000
34 1.82699600 0.00006600 0.00000800 -0.00186700 0.04038300 1.22708400
35 1.43657700 -0.00001000 0.00000700 0.00808100 -0.01279400 0.27447100
36 3.99235300 0.89108700 1.82799400 -0.26823800 0.10724000 1.40713400
37 1.40591800 0.00002100 -0.00000700 -0.01645600 -0.02445100 1.46689000
38 1.17536900 -0.00013100 0.00000200 0.02096900 0.12149700 0.12659500
39 4.52675600 0.69046000 1.12084200 -0.15292900 0.08798300 1.61269300
40 1.74404100 -0.00003100 -0.00000200 -0.02493600 -0.01580100 1.41848500
41 1.36876300 -0.00003100 -0.00001700 -0.24626800 0.17807500 0.18497200
42 1.87485500 0.93508100 -0.99913000 2.44808600 0.23419600 1.08300800
43 1.45054600 -0.06019000 0.09121600 0.04429500 0.17016300 0.35957300
44 1.59928100 -0.00000200 0.00000900 0.08169400 -0.01721100 1.03306000
45 5.51180600 -0.00000200 0.00000600 -0.66744800 0.00000000 0.00000000
46 0.19685000 0.00000300 -0.00000200 -0.34822500 0.00001500 -0.00000200
47 0.00000000 1.00000000 0.00000000 0.00000000 0.00000000 -1.57079600
48 -3.47734200 3.27852200 -2.72292100 0.00000000 0.00000000 -3.14156200
49 -3.52464056 22.31948278 0.03331089 0.04750371 -0.00987340 -1.55734531
50 11.97565600 0.60073800 -3.41185600 0.21793700 1.03451400 1.57217400
51 5.68842700 -0.01178200 -0.37496100 0.00000000 0.00000000 0.00000000
52 -5.79591200 -0.00336600 0.65722100 0.00000000 0.00000000 0.00000000
53 0.12109200 0.00000000 -0.11972000 0.00000000 0.00000000 0.00000000
54 -0.81526300 0.44890800 1.20490500 0.00000000 0.00000000 0.00000000
55 -4.54927400 -0.05422000 -0.66098900 0.00000000 0.00000000 0.00000000
56 -4.11342000 -2.62846000 -4.75590600 2.73160200 -0.06448900 -1.98897400
time 15
0 -0.00000100 8.45008800 -27.50902600 0.00000000 0.00000000 0.00003100
1 -0.00000200 0.00000000 0.00000000 1.57074300 -1.56713700 -1.57074300
2 4.25546800 -0.33518300 -0.00000200 0.00000000 0.00000000 -0.12484800
3 7.43124800 1.49647700 0.00000200 0.00000000 0.00000000 0.24545000
4 5.27847900 0.16554100 0.00000100 0.00000000 0.00000000 0.04851100
5 -0.91236200 -4.36641300 -2.34493400 1.97586400 1.15990900 -1.29878600
6 -6.21448200 -0.00000700 -0.00002700 -2.96772870 -0.07173370 1.62100216
7 11.94488200 0.00000000 0.00000100 -0.23972180 -0.34686270 1.61810411
8 10.62018100 0.00000200 0.00000000 0.82773790 -0.08806240 1.77244697
9 -4.75110600 -0.69449400 0.83057700 -0.21244700 0.13723700 0.56559200
10 -1.68806800 0.00004600 -0.00003200 0.01476400 -0.01983500 0.80019500
11 -1.33614000 0.00005700 -0.00001200 0.02599100 -0.00450100 0.72485300
12 -4.82049400 -0.50946000 -0.22475900 -0.33666500 0.06009700 1.41259200
13 -1.82699200 -0.00006400 0.00000600 -0.00131800 0.04043600 1.24234300
14 -1.43657300 0.00000600 0.00000200 -0.04286600 -0.06491600 0.49261200
15 -3.99235500 -0.89118800 -1.82790900 -0.41942700 0.35068000 1.51819800
16 -1.40591800 -0.00002500 -0.00000300 0.00712800 -0.02856300 0.62998400
17 -1.17535800 0.00012800 -0.00002000 0.06062700 0.03058100 1.00743600
18 -4.52675100 -0.69057500 -1.12074400 -0.43113200 0.21594300 1.61193500
19 -1.74403800 0.00003300 -0.00000800 -0.02031700 -0.02143900 1.17042900
20 -1.36877100 0.00002500 0.00000200 0.02081800 0.04817500 0.30338500
21 -1.84032000 -1.13761000 1.04589900 2.22706100 0.43026100 0.92075000
22 -1.52345300 0.00003200 0.00003100 0.06200100 0.16249200 0.46746700
23 -1.59928500 0.00000400 0.00001600 0.02989500 -0.03079900 0.78129700
24 5.58312500 0.11572300 0.29500000 2.23698600 -0.06403800 3.11154600
25 0.19684700 -0.00000100 0.00000300 2.79340694 -0.00050641 -3.14144184
26 -3.20169700 -17.87211600 -1.70151700 1.97586200 1.15990900 1.84280300
27 6.21448500 0.00000600 0.00002000 -0.46003400 0.33091323 -1.84957442
28 11.94488500 -0.00002900 -0.00019400 -0.10887325 -0.35122410 -1.30537969
29 10.62016600 0.00000200 0.00001000 -2.17234213 -0.20340204 0.42854057
30 4.75115600 0.69437600 -0.83047300 -0.06963100 -0.18956200 1.20293400
31 1.68806500 -0.00002600 0.00000200 -0.00178600 -0.02466300 1.51256600
32 1.33615100 -0.00005100 -0.00000900 0.00162500 -0.03868900 0.32920800
33 4.82051300 0.50934000 0.22486500 -0.15643200 -0.01406900 1.57957000
34 1.82699600 0.00006600 0.00000800 -0.00186700 0.04038300 1.22708400
35 1.43657700 -0.00001000 0.00000700 0.00808100 -0.01279400 0.27447100
36 3.99235300 0.89108700 1.82799400 -0.26823800 0.10724000 1.40713400
37 1.40591800 0.00002100 -0.00000700 -0.01645600 -0.02445100 1.46689000
38 1.17536900 -0.00013100 0.00000200 0.02096900 0.12149700 0.12659500
39 4.52675600 0.69046000 1.12084200 -0.15292900 0.08798300 1.61269300
40 1.74404100 -0.00003100 -0.00000200 -0.02493600 -0.01580100 1.41848500
41 1.36876300 -0.00003100 -0.00001700 -0.24626800 0.17807500 0.18497200
42 1.87485500 0.93508100 -0.99913000 2.44808600 0.23419600 1.08300800
43 1.45054600 -0.06019000 0.09121600 0.04429500 0.17016300 0.35957300
44 1.59928100 -0.00000200 0.00000900 0.08169400 -0.01721100 1.03306000
45 5.51180600 -0.00000200 0.00000600 -0.66744800 0.00000000 0.00000000
46 0.19685000 0.00000300 -0.00000200 -0.34822500 0.00001500 -0.00000200
47 0.00000000 1.00000000 0.00000000 0.00000000 0.00000000 -1.57079600
48 -3.47734200 3.27852200 -2.72292100 0.00000000 0.00000000 -3.14156200
49 -3.47526567 22.33752178 0.10912622 0.01937316 -0.01236540 -1.57032924
50 11.97565600 0.60073800 -3.41185600 0.21793700 1.03451400 1.57217400
51 5.68842700 -0.01178200 -0.37496100 0.00000000 0.00000000 0.00000000
52 -5.79591200 -0.00336600 0.65722100 0.00000000 0.00000000 0.00000000
53 0.12109200 0.00000000 -0.11972000 0.00000000 0.00000000 0.00000000
54 -0.81526300 0.44890800 1.20490500 0.00000000 0.00000000 0.00000000
55 -4.54927400 -0.05422000 -0.66098900 0.00000000 0.00000000 0.00000000
56 -4.11342000 -2.62846000 -4.75590600 2.73160200 -0.06448900 -1.98897400
end
