version 1
nodes
0 "root" -1
1 "pelvis" 0
2 "spine_01" 1
3 "spine_02" 2
4 "spine_03" 3
5 "clavicle_r" 4
6 "upperarm_r" 5
7 "lowerarm_r" 6
8 "hand_r" 7
9 "index_01_r" 8
10 "index_02_r" 9
11 "index_03_r" 10
12 "middle_01_r" 8
13 "middle_02_r" 12
14 "middle_03_r" 13
15 "pinky_01_r" 8
16 "pinky_02_r" 15
17 "pinky_03_r" 16
18 "ring_01_r" 8
19 "ring_02_r" 18
20 "ring_03_r" 19
21 "thumb_01_r" 8
22 "thumb_02_r" 21
23 "thumb_03_r" 22
24 "lowerarm_twist_01_r" 7
25 "upperarm_twist_01_r" 6
26 "clavicle_l" 4
27 "upperarm_l" 26
28 "lowerarm_l" 27
29 "hand_l" 28
30 "index_01_l" 29
31 "index_02_l" 30
32 "index_03_l" 31
33 "middle_01_l" 29
34 "middle_02_l" 33
35 "middle_03_l" 34
36 "pinky_01_l" 29
37 "pinky_02_l" 36
38 "pinky_03_l" 37
39 "ring_01_l" 29
40 "ring_02_l" 39
41 "ring_03_l" 40
42 "thumb_01_l" 29
43 "thumb_02_l" 42
44 "thumb_03_l" 43
45 "lowerarm_twist_01_l" 28
46 "upperarm_twist_01_l" 27
47 "cam_driver" -1
48 "BaseRoot" -1
49 "Base" 48
50 "rhand_ikTarget" 49
51 "Trigger" 49
52 "Mag" 49
53 "Bullets" 52
54 "Bolt" 49
55 "MagRelease" 49
56 "lhand_ikTarget" 49
end
skeleton
time 0
0 -0.00000100 8.45008800 -27.50902600 0.00000000 0.00000000 0.00003100
1 -0.00000200 0.00000000 0.00000000 1.57074300 -1.56713700 -1.57074300
2 4.25546800 -0.33518300 -0.00000200 0.00000000 0.00000000 -0.12484800
3 7.43124800 1.49647700 0.00000200 0.00000000 0.00000000 0.24545000
4 5.27847900 0.16554100 0.00000100 0.00000000 0.00000000 0.04851100
5 -0.91236200 -4.36641300 -2.34493400 1.97586400 1.15990900 -1.29878600
6 -6.21448200 -0.00000700 -0.00002700 -2.93186727 -0.18628965 1.92065171
7 11.94488200 0.00000000 0.00000100 -0.28244904 -0.34975988 1.74364203
8 10.62018100 0.00000200 0.00000000 0.83431956 -0.16295746 1.96370705
9 -4.75110600 -0.69449400 0.83057700 -0.21244700 0.13723700 0.56559200
10 -1.68806800 0.00004600 -0.00003200 0.01476400 -0.01983500 0.80019500
11 -1.33614000 0.00005700 -0.00001200 0.02599100 -0.00450100 0.72485300
12 -4.82049400 -0.50946000 -0.22475900 -0.33666500 0.06009700 1.41259200
13 -1.82699200 -0.00006400 0.00000600 -0.00131800 0.04043600 1.24234300
14 -1.43657300 0.00000600 0.00000200 -0.04286600 -0.06491600 0.49261200
15 -3.99235500 -0.89118800 -1.82790900 -0.41942700 0.35068000 1.51819800
16 -1.40591800 -0.00002500 -0.00000300 0.00712800 -0.02856300 0.62998400
17 -1.17535800 0.00012800 -0.00002000 0.06062700 0.03058100 1.00743600
18 -4.52675100 -0.69057500 -1.12074400 -0.43113200 0.21594300 1.61193500
19 -1.74403800 0.00003300 -0.00000800 -0.02031700 -0.02143900 1.17042900
20 -1.36877100 0.00002500 0.00000200 0.02081800 0.04817500 0.30338500
21 -1.84032200 -1.13761100 1.04590200 2.22706100 0.43026100 0.92075000
22 -1.52345300 0.00003200 0.00003100 0.06200100 0.16249200 0.46746700
23 -1.59928500 0.00000400 0.00001600 0.02989500 -0.03079900 0.78129700
24 5.58312400 0.11572600 0.29499600 2.23698600 -0.06403800 3.11154600
25 0.19684700 -0.00000100 0.00000300 2.79340689 -0.00076261 -3.14137426
26 -3.20169700 -17.87211600 -1.70151700 1.97586200 1.15990900 1.84280300
27 6.21448500 0.00000600 0.00002000 -0.43955447 0.40038526 -2.08360504
28 11.94488500 -0.00002900 -0.00019400 -0.15885613 -0.32122118 -1.15107267
29 10.62016600 0.00000200 0.00001000 -2.08760791 -0.41261973 0.36121338
30 4.75115600 0.69437600 -0.83047300 -0.06963100 -0.18956200 1.20293400
31 1.68806500 -0.00002600 0.00000200 -0.00178600 -0.02466300 1.51256600
32 1.33615100 -0.00005100 -0.00000900 0.00162500 -0.03868900 0.32920800
33 4.82051300 0.50934000 0.22486500 -0.15643200 -0.01406900 1.57957000
34 1.82699600 0.00006600 0.00000800 -0.00186700 0.04038300 1.22708400
35 1.43657700 -0.00001000 0.00000700 0.00808100 -0.01279400 0.27447100
36 3.99235300 0.89108700 1.82799400 -0.26823800 0.10724000 1.40713400
37 1.40591800 0.00002100 -0.00000700 -0.01645600 -0.02445100 1.46689000
38 1.17536900 -0.00013100 0.00000200 0.02096900 0.12149700 0.12659500
39 4.52675600 0.69046000 1.12084200 -0.15292900 0.08798300 1.61269300
40 1.74404100 -0.00003100 -0.00000200 -0.02493600 -0.01580100 1.41848500
41 1.36876300 -0.00003100 -0.00001700 -0.24626800 0.17807500 0.18497200
42 1.87485500 0.93508100 -0.99913000 2.44808600 0.23419600 1.08300800
43 1.45054500 -0.06018600 0.09121800 0.04429500 0.17016300 0.35957300
44 1.59928100 -0.00000200 0.00000900 0.08169400 -0.01721100 1.03306000
45 5.51180600 -0.00000200 0.00000600 -0.66744800 0.00000000 0.00000000
46 0.19685000 0.00000300 -0.00000200 -0.34822500 0.00001500 -0.00000200
47 0.00000000 1.00000000 0.00000000 0.00000000 0.00000000 -1.57079600
48 -3.47734200 3.27852200 -2.72292100 0.00000000 0.00000000 -3.14156200
49 0.68778283 22.05708517 -1.52847217 0.00878315 -0.02349936 -1.57719818
50 11.97563200 0.60074200 -3.41184100 0.21793700 1.03451400 1.57217400
51 5.68842700 -0.01178200 -0.37496100 0.00000000 0.00000000 0.00000000
52 -5.79591200 -0.00336600 0.65722100 0.00000000 0.00000000 0.00000000
53 0.12109200 0.00000000 -0.11972000 0.00000000 0.00000000 0.00000000
54 -0.81526600 0.44891200 1.20490200 0.00000000 0.00000000 0.00000000
55 -4.54927400 -0.05422000 -0.66098900 0.00000000 0.00000000 0.00000000
56 -4.11342000 -2.62846000 -4.75590600 2.73160200 -0.06448900 -1.98897400
time 1
0 -0.00000100 8.45008800 -27.50902600 0.00000000 0.00000000 0.00003100
1 -0.00000200 0.00000000 0.00000000 1.57074300 -1.56713700 -1.57074300
2 4.25546800 -0.33518300 -0.00000200 0.00000000 0.00000000 -0.12484800
3 7.43124800 1.49647700 0.00000200 0.00000000 0.00000000 0.24545000
4 5.27847900 0.16554100 0.00000100 0.00000000 0.00000000 0.04851100
5 -0.92012200 -4.49783000 -2.13982200 1.97586400 1.15990900 -1.29878600
6 -6.21448200 -0.00000700 -0.00002700 -2.93622281 -0.19572954 1.91577478
7 11.94488200 0.00000000 0.00000100 -0.28915809 -0.34760599 1.76343733
8 10.62018100 0.00000200 0.00000000 0.81882949 -0.15387106 1.96736774
9 -4.75110600 -0.69449400 0.83057700 -0.21244700 0.13723700 0.56559200
10 -1.68806800 0.00004600 -0.00003200 0.01476400 -0.01983500 0.80019500
11 -1.33614000 0.00005700 -0.00001200 0.02599100 -0.00450100 0.72485300
12 -4.82049400 -0.50946000 -0.22475900 -0.33666500 0.06009700 1.41259200
13 -1.82699200 -0.00006400 0.00000600 -0.00131800 0.04043600 1.24234300
14 -1.43657300 0.00000600 0.00000200 -0.04286600 -0.06491600 0.49261200
15 -3.99235500 -0.89118800 -1.82790900 -0.41942700 0.35068000 1.51819800
16 -1.40591800 -0.00002500 -0.00000300 0.00712800 -0.02856300 0.62998400
17 -1.17535800 0.00012800 -0.00002000 0.06062700 0.03058100 1.00743600
18 -4.52675100 -0.69057500 -1.12074400 -0.43113200 0.21594300 1.61193500
19 -1.74403800 0.00003300 -0.00000800 -0.02031700 -0.02143900 1.17042900
20 -1.36877100 0.00002500 0.00000200 0.02081800 0.04817500 0.30338500
21 -1.84032200 -1.13761100 1.04590200 2.22706100 0.43026100 0.92075000
22 -1.52345300 0.00003200 0.00003100 0.06200100 0.16249200 0.46746700
23 -1.59928500 0.00000400 0.00001600 0.02989500 -0.03079900 0.78129700
24 5.58312400 0.11572600 0.29499600 2.23698600 -0.06403800 3.11154600
25 0.19684700 -0.00000100 0.00000300 2.79340689 -0.00076261 -3.14137426
26 -3.16898700 -17.78007100 -1.66515400 1.97586200 1.15990900 1.84280300
27 6.21448500 0.00000600 0.00002000 -0.46609789 0.40262159 -2.07149441
28 11.94488500 -0.00002900 -0.00019400 -0.14103090 -0.32314899 -1.16700074
29 10.62016600 0.00000200 0.00001000 -2.05810262 -0.39649729 0.35750743
30 4.75115600 0.69437600 -0.83047300 -0.06963100 -0.18956200 1.20293400
31 1.68806500 -0.00002600 0.00000200 -0.00178600 -0.02466300 1.51256600
32 1.33615100 -0.00005100 -0.00000900 0.00162500 -0.03868900 0.32920800
33 4.82051300 0.50934000 0.22486500 -0.15643200 -0.01406900 1.57957000
34 1.82699600 0.00006600 0.00000800 -0.00186700 0.04038300 1.22708400
35 1.43657700 -0.00001000 0.00000700 0.00808100 -0.01279400 0.27447100
36 3.99235300 0.89108700 1.82799400 -0.26823800 0.10724000 1.40713400
37 1.40591800 0.00002100 -0.00000700 -0.01645600 -0.02445100 1.46689000
38 1.17536900 -0.00013100 0.00000200 0.02096900 0.12149700 0.12659500
39 4.52675600 0.69046000 1.12084200 -0.15292900 0.08798300 1.61269300
40 1.74404100 -0.00003100 -0.00000200 -0.02493600 -0.01580100 1.41848500
41 1.36876300 -0.00003100 -0.00001700 -0.24626800 0.17807500 0.18497200
42 1.87485500 0.93508100 -0.99913000 2.44808600 0.23419600 1.08300800
43 1.45054500 -0.06018600 0.09121800 0.04429500 0.17016300 0.35957300
44 1.59928100 -0.00000200 0.00000900 0.08169400 -0.01721100 1.03306000
45 5.51180600 -0.00000200 0.00000600 -0.66744800 0.00000000 0.00000000
46 0.19685000 0.00000300 -0.00000200 -0.34822500 0.00001500 -0.00000200
47 0.00000000 1.00000000 0.00000000 0.00000000 0.00000000 -1.57079600
48 -3.47734200 3.27852200 -2.72292100 0.00000000 0.00000000 -3.14156200
49 0.46940233 22.00535817 -1.42465283 0.00047871 -0.00755971 -1.55632944
50 11.97563200 0.60074200 -3.41184100 0.21793700 1.03451400 1.57217400
51 5.68842700 -0.01178200 -0.37496100 0.00000000 0.00000000 0.00000000
52 -5.79591200 -0.00336600 0.65722100 0.00000000 0.00000000 0.00000000
53 0.12109200 0.00000000 -0.11972000 0.00000000 0.00000000 0.00000000
54 -0.81526600 0.44891200 1.20490200 0.00000000 0.00000000 0.00000000
55 -4.54927400 -0.05422000 -0.66098900 0.00000000 0.00000000 0.00000000
56 -4.11342000 -2.62846000 -4.75590600 2.73160200 -0.06448900 -1.98897400
time 2
0 -0.00000100 8.45008800 -27.50902600 0.00000000 0.00000000 0.00003100
1 -0.00000200 0.00000000 0.00000000 1.57074300 -1.56713700 -1.57074300
2 4.25546800 -0.33518300 -0.00000200 0.00000000 0.00000000 -0.12484800
3 7.43124800 1.49647700 0.00000200 0.00000000 0.00000000 0.24545000
4 5.27847900 0.16554100 0.00000100 0.00000000 0.00000000 0.04851100
5 -0.94157100 -4.86116300 -1.57274500 1.97586400 1.15990900 -1.29878600
6 -6.21448200 -0.00000700 -0.00002700 -2.94740194 -0.22251650 1.90782604
7 11.94488200 0.00000000 0.00000100 -0.30369770 -0.34175286 1.80694732
8 10.62018100 0.00000200 0.00000000 0.81130511 -0.12065920 2.01034329
9 -4.75110600 -0.69449400 0.83057700 -0.21244700 0.13723700 0.56559200
10 -1.68806800 0.00004600 -0.00003200 0.01476400 -0.01983500 0.80019500
11 -1.33614000 0.00005700 -0.00001200 0.02599100 -0.00450100 0.72485300
12 -4.82049400 -0.50946000 -0.22475900 -0.33666500 0.06009700 1.41259200
13 -1.82699200 -0.00006400 0.00000600 -0.00131800 0.04043600 1.24234300
14 -1.43657300 0.00000600 0.00000200 -0.04286600 -0.06491600 0.49261200
15 -3.99235500 -0.89118800 -1.82790900 -0.41942700 0.35068000 1.51819800
16 -1.40591800 -0.00002500 -0.00000300 0.00712800 -0.02856300 0.62998400
17 -1.17535800 0.00012800 -0.00002000 0.06062700 0.03058100 1.00743600
18 -4.52675100 -0.69057500 -1.12074400 -0.43113200 0.21594300 1.61193500
19 -1.74403800 0.00003300 -0.00000800 -0.02031700 -0.02143900 1.17042900
20 -1.36877100 0.00002500 0.00000200 0.02081800 0.04817500 0.30338500
21 -1.84032200 -1.13761100 1.04590200 2.22706100 0.43026100 0.92075000
22 -1.52345300 0.00003200 0.00003100 0.06200100 0.16249200 0.46746700
23 -1.59928500 0.00000400 0.00001600 0.02989500 -0.03079900 0.78129700
24 5.58312400 0.11572600 0.29499600 2.23698600 -0.06403800 3.11154600
25 0.19684700 -0.00000100 0.00000300 2.79340689 -0.00076261 -3.14137426
26 -3.07856000 -17.52560000 -1.56461600 1.97586200 1.15990900 1.84280300
27 6.21448500 0.00000600 0.00002000 -0.53003829 0.40435723 -2.04938519
28 11.94488500 -0.00002900 -0.00019400 -0.09663094 -0.32664199 -1.18966260
29 10.62016600 0.00000200 0.00001000 -2.01705135 -0.38858224 0.33261223
30 4.75115600 0.69437600 -0.83047300 -0.06963100 -0.18956200 1.20293400
31 1.68806500 -0.00002600 0.00000200 -0.00178600 -0.02466300 1.51256600
32 1.33615100 -0.00005100 -0.00000900 0.00162500 -0.03868900 0.32920800
33 4.82051300 0.50934000 0.22486500 -0.15643200 -0.01406900 1.57957000
34 1.82699600 0.00006600 0.00000800 -0.00186700 0.04038300 1.22708400
35 1.43657700 -0.00001000 0.00000700 0.00808100 -0.01279400 0.27447100
36 3.99235300 0.89108700 1.82799400 -0.26823800 0.10724000 1.40713400
37 1.40591800 0.00002100 -0.00000700 -0.01645600 -0.02445100 1.46689000
38 1.17536900 -0.00013100 0.00000200 0.02096900 0.12149700 0.12659500
39 4.52675600 0.69046000 1.12084200 -0.15292900 0.08798300 1.61269300
40 1.74404100 -0.00003100 -0.00000200 -0.02493600 -0.01580100 1.41848500
41 1.36876300 -0.00003100 -0.00001700 -0.24626800 0.17807500 0.18497200
42 1.87485500 0.93508100 -0.99913000 2.44808600 0.23419600 1.08300800
43 1.45054500 -0.06018600 0.09121800 0.04429500 0.17016300 0.35957300
44 1.59928100 -0.00000200 0.00000900 0.08169400 -0.01721100 1.03306000
45 5.51180600 -0.00000200 0.00000600 -0.66744800 0.00000000 0.00000000
46 0.19685000 0.00000300 -0.00000200 -0.34822500 0.00001500 -0.00000200
47 0.00000000 1.00000000 0.00000000 0.00000000 0.00000000 -1.57079600
48 -3.47734200 3.27852200 -2.72292100 0.00000000 0.00000000 -3.14156200
49 -0.14028317 21.86899017 -1.14108700 0.02215601 0.04114095 -1.49717998
50 11.97563200 0.60074200 -3.41184100 0.21793700 1.03451400 1.57217400
51 5.68842700 -0.01178200 -0.37496100 0.00000000 0.00000000 0.00000000
52 -5.79591200 -0.00336600 0.65722100 0.00000000 0.00000000 0.00000000
53 0.12109200 0.00000000 -0.11972000 0.00000000 0.00000000 0.00000000
54 -0.81526600 0.44891200 1.20490200 0.00000000 0.00000000 0.00000000
55 -4.54927400 -0.05422000 -0.66098900 0.00000000 0.00000000 0.00000000
56 -4.11342000 -2.62846000 -4.75590600 2.73160200 -0.06448900 -1.98897400
time 3
0 -0.00000100 8.45008800 -27.50902600 0.00000000 0.00000000 0.00003100
1 -0.00000200 0.00000000 0.00000000 1.57074300 -1.56713700 -1.57074300
2 4.25546800 -0.33518300 -0.00000200 0.00000000 0.00000000 -0.12484800
3 7.43124800 1.49647700 0.00000200 0.00000000 0.00000000 0.24545000
4 5.27847900 0.16554100 0.00000100 0.00000000 0.00000000 0.04851100
5 -0.97397300 -5.41002600 -0.71609700 1.97586400 1.15990900 -1.29878600
6 -6.21448200 -0.00000700 -0.00002700 -2.96652452 -0.25889144 1.89426857
7 11.94488200 0.00000000 0.00000100 -0.31789201 -0.33414625 1.84971256
8 10.62018100 0.00000200 0.00000000 0.81581941 -0.06989135 2.09756849
9 -4.75110600 -0.69449400 0.83057700 -0.21244700 0.13723700 0.56559200
10 -1.68806800 0.00004600 -0.00003200 0.01476400 -0.01983500 0.80019500
11 -1.33614000 0.00005700 -0.00001200 0.02599100 -0.00450100 0.72485300
12 -4.82049400 -0.50946000 -0.22475900 -0.33666500 0.06009700 1.41259200
13 -1.82699200 -0.00006400 0.00000600 -0.00131800 0.04043600 1.24234300
14 -1.43657300 0.00000600 0.00000200 -0.04286600 -0.06491600 0.49261200
15 -3.99235500 -0.89118800 -1.82790900 -0.41942700 0.35068000 1.51819800
16 -1.40591800 -0.00002500 -0.00000300 0.00712800 -0.02856300 0.62998400
17 -1.17535800 0.00012800 -0.00002000 0.06062700 0.03058100 1.00743600
18 -4.52675100 -0.69057500 -1.12074400 -0.43113200 0.21594300 1.61193500
19 -1.74403800 0.00003300 -0.00000800 -0.02031700 -0.02143900 1.17042900
20 -1.36877100 0.00002500 0.00000200 0.02081800 0.04817500 0.30338500
21 -1.84032200 -1.13761100 1.04590200 2.22706100 0.43026100 0.92075000
22 -1.52345300 0.00003200 0.00003100 0.06200100 0.16249200 0.46746700
23 -1.59928500 0.00000400 0.00001600 0.02989500 -0.03079900 0.78129700
24 5.58312400 0.11572600 0.29499600 2.23698600 -0.06403800 3.11154600
25 0.19684700 -0.00000100 0.00000300 2.79340689 -0.00076261 -3.14137426
26 -2.94195100 -17.14118600 -1.41273800 1.97586200 1.15990900 1.84280300
27 6.21448500 0.00000600 0.00002000 -0.62261952 0.40528814 -2.02481936
28 11.94488500 -0.00002900 -0.00019400 -0.02925077 -0.33086846 -1.20905815
29 10.62016600 0.00000200 0.00001000 -1.97897867 -0.38875797 0.28513419
30 4.75115600 0.69437600 -0.83047300 -0.06963100 -0.18956200 1.20293400
31 1.68806500 -0.00002600 0.00000200 -0.00178600 -0.02466300 1.51256600
32 1.33615100 -0.00005100 -0.00000900 0.00162500 -0.03868900 0.32920800
33 4.82051300 0.50934000 0.22486500 -0.15643200 -0.01406900 1.57957000
34 1.82699600 0.00006600 0.00000800 -0.00186700 0.04038300 1.22708400
35 1.43657700 -0.00001000 0.00000700 0.00808100 -0.01279400 0.27447100
36 3.99235300 0.89108700 1.82799400 -0.26823800 0.10724000 1.40713400
37 1.40591800 0.00002100 -0.00000700 -0.01645600 -0.02445100 1.46689000
38 1.17536900 -0.00013100 0.00000200 0.02096900 0.12149700 0.12659500
39 4.52675600 0.69046000 1.12084200 -0.15292900 0.08798300 1.61269300
40 1.74404100 -0.00003100 -0.00000200 -0.02493600 -0.01580100 1.41848500
41 1.36876300 -0.00003100 -0.00001700 -0.24626800 0.17807500 0.18497200
42 1.87485500 0.93508100 -0.99913000 2.44808600 0.23419600 1.08300800
43 1.45054500 -0.06018600 0.09121800 0.04429500 0.17016300 0.35957300
44 1.59928100 -0.00000200 0.00000900 0.08169400 -0.01721100 1.03306000
45 5.51180600 -0.00000200 0.00000600 -0.66744800 0.00000000 0.00000000
46 0.19685000 0.00000300 -0.00000200 -0.34822500 0.00001500 -0.00000200
47 0.00000000 1.00000000 0.00000000 0.00000000 0.00000000 -1.57079600
48 -3.47734200 3.27852200 -2.72292100 0.00000000 0.00000000 -3.14156200
49 -1.02743867 21.67618817 -0.78636167 0.07549411 0.10998456 -1.40381272
50 11.97563200 0.60074200 -3.41184100 0.21793700 1.03451400 1.57217400
51 5.68842700 -0.01178200 -0.37496100 0.00000000 0.00000000 0.00000000
52 -5.79591200 -0.00336600 0.65722100 0.00000000 0.00000000 0.00000000
53 0.12109200 0.00000000 -0.11972000 0.00000000 0.00000000 0.00000000
54 -0.81526600 0.44891200 1.20490200 0.00000000 0.00000000 0.00000000
55 -4.54927400 -0.05422000 -0.66098900 0.00000000 0.00000000 0.00000000
56 -4.11342000 -2.62846000 -4.75590600 2.73160200 -0.06448900 -1.98897400
time 4
0 -0.00000100 8.45008800 -27.50902600 0.00000000 0.00000000 0.00003100
1 -0.00000200 0.00000000 0.00000000 1.57074300 -1.56713700 -1.57074300
2 4.25546800 -0.33518300 -0.00000200 0.00000000 0.00000000 -0.12484800
3 7.43124800 1.49647700 0.00000200 0.00000000 0.00000000 0.24545000
4 5.27847900 0.16554100 0.00000100 0.00000000 0.00000000 0.04851100
5 -1.01459000 -6.09803700 0.35773000 1.97586400 1.15990900 -1.29878600
6 -6.21448200 -0.00000700 -0.00002700 -2.99074897 -0.29437941 1.86663093
7 11.94488200 0.00000000 0.00000100 -0.32429674 -0.32781290 1.86905885
8 10.62018100 0.00000200 0.00000000 0.82917081 -0.01158900 2.22133631
9 -4.75110600 -0.69449400 0.83057700 -0.21244700 0.13723700 0.56559200
10 -1.68806800 0.00004600 -0.00003200 0.01476400 -0.01983500 0.80019500
11 -1.33614000 0.00005700 -0.00001200 0.02599100 -0.00450100 0.72485300
12 -4.82049400 -0.50946000 -0.22475900 -0.33666500 0.06009700 1.41259200
13 -1.82699200 -0.00006400 0.00000600 -0.00131800 0.04043600 1.24234300
14 -1.43657300 0.00000600 0.00000200 -0.04286600 -0.06491600 0.49261200
15 -3.99235500 -0.89118800 -1.82790900 -0.41942700 0.35068000 1.51819800
16 -1.40591800 -0.00002500 -0.00000300 0.00712800 -0.02856300 0.62998400
17 -1.17535800 0.00012800 -0.00002000 0.06062700 0.03058100 1.00743600
18 -4.52675100 -0.69057500 -1.12074400 -0.43113200 0.21594300 1.61193500
19 -1.74403800 0.00003300 -0.00000800 -0.02031700 -0.02143900 1.17042900
20 -1.36877100 0.00002500 0.00000200 0.02081800 0.04817500 0.30338500
21 -1.84032200 -1.13761100 1.04590200 2.22706100 0.43026100 0.92075000
22 -1.52345300 0.00003200 0.00003100 0.06200100 0.16249200 0.46746700
23 -1.59928500 0.00000400 0.00001600 0.02989500 -0.03079900 0.78129700
24 5.58312400 0.11572600 0.29499600 2.23698600 -0.06403800 3.11154600
25 0.19684700 -0.00000100 0.00000300 2.79340689 -0.00076261 -3.14137426
26 -2.77071400 -16.65931300 -1.22235800 1.97586200 1.15990900 1.84280300
27 6.21448500 0.00000600 0.00002000 -0.74136160 0.40354676 -2.00288765
28 11.94488500 -0.00002900 -0.00019400 0.06134889 -0.33590453 -1.22049936
29 10.62016600 0.00000200 0.00001000 -1.94878226 -0.38620510 0.21897942
30 4.75115600 0.69437600 -0.83047300 -0.06963100 -0.18956200 1.20293400
31 1.68806500 -0.00002600 0.00000200 -0.00178600 -0.02466300 1.51256600
32 1.33615100 -0.00005100 -0.00000900 0.00162500 -0.03868900 0.32920800
33 4.82051300 0.50934000 0.22486500 -0.15643200 -0.01406900 1.57957000
34 1.82699600 0.00006600 0.00000800 -0.00186700 0.04038300 1.22708400
35 1.43657700 -0.00001000 0.00000700 0.00808100 -0.01279400 0.27447100
36 3.99235300 0.89108700 1.82799400 -0.26823800 0.10724000 1.40713400
37 1.40591800 0.00002100 -0.00000700 -0.01645600 -0.02445100 1.46689000
38 1.17536900 -0.00013100 0.00000200 0.02096900 0.12149700 0.12659500
39 4.52675600 0.69046000 1.12084200 -0.15292900 0.08798300 1.61269300
40 1.74404100 -0.00003100 -0.00000200 -0.02493600 -0.01580100 1.41848500
41 1.36876300 -0.00003100 -0.00001700 -0.24626800 0.17807500 0.18497200
42 1.87485500 0.93508100 -0.99913000 2.44808600 0.23419600 1.08300800
43 1.45054500 -0.06018600 0.09121800 0.04429500 0.17016300 0.35957300
44 1.59928100 -0.00000200 0.00000900 0.08169400 -0.01721100 1.03306000
45 5.51180600 -0.00000200 0.00000600 -0.66744800 0.00000000 0.00000000
46 0.19685000 0.00000300 -0.00000200 -0.34822500 0.00001500 -0.00000200
47 0.00000000 1.00000000 0.00000000 0.00000000 0.00000000 -1.57079600
48 -3.47734200 3.27852200 -2.72292100 0.00000000 0.00000000 -3.14156200
49 -2.09685550 21.45515517 -0.42776833 0.15042115 0.18457851 -1.28040986
50 11.97563200 0.60074200 -3.41184100 0.21793700 1.03451400 1.57217400
51 5.68842700 -0.01178200 -0.37496100 0.00000000 0.00000000 0.00000000
52 -5.79591200 -0.00336600 0.65722100 0.00000000 0.00000000 0.00000000
53 0.12109200 0.00000000 -0.11972000 0.00000000 0.00000000 0.00000000
54 -0.81526600 0.44891200 1.20490200 0.00000000 0.00000000 0.00000000
55 -4.54927400 -0.05422000 -0.66098900 0.00000000 0.00000000 0.00000000
56 -4.11342000 -2.62846000 -4.75590600 2.73160200 -0.06448900 -1.98897400
time 5
0 -0.00000100 8.45008800 -27.50902600 0.00000000 0.00000000 0.00003100
1 -0.00000200 0.00000000 0.00000000 1.57074300 -1.56713700 -1.57074300
2 4.25546800 -0.33518300 -0.00000200 0.00000000 0.00000000 -0.12484800
3 7.43124800 1.49647700 0.00000200 0.00000000 0.00000000 0.24545000
4 5.27847900 0.16554100 0.00000100 0.00000000 0.00000000 0.04851100
5 -1.06068400 -6.87881400 1.57634100 1.97586400 1.15990900 -1.29878600
6 -6.21448200 -0.00000700 -0.00002700 -3.00944040 -0.31901760 1.81382029
7 11.94488200 0.00000000 0.00000100 -0.31996543 -0.32439604 1.85585314
8 10.62018100 0.00000200 0.00000000 0.84990064 0.03490949 2.35753679
9 -4.75110600 -0.69449400 0.83057700 -0.21244700 0.13723700 0.56559200
10 -1.68806800 0.00004600 -0.00003200 0.01476400 -0.01983500 0.80019500
11 -1.33614000 0.00005700 -0.00001200 0.02599100 -0.00450100 0.72485300
12 -4.82049400 -0.50946000 -0.22475900 -0.33666500 0.06009700 1.41259200
13 -1.82699200 -0.00006400 0.00000600 -0.00131800 0.04043600 1.24234300
14 -1.43657300 0.00000600 0.00000200 -0.04286600 -0.06491600 0.49261200
15 -3.99235500 -0.89118800 -1.82790900 -0.41942700 0.35068000 1.51819800
16 -1.40591800 -0.00002500 -0.00000300 0.00712800 -0.02856300 0.62998400
17 -1.17535800 0.00012800 -0.00002000 0.06062700 0.03058100 1.00743600
18 -4.52675100 -0.69057500 -1.12074400 -0.43113200 0.21594300 1.61193500
19 -1.74403800 0.00003300 -0.00000800 -0.02031700 -0.02143900 1.17042900
20 -1.36877100 0.00002500 0.00000200 0.02081800 0.04817500 0.30338500
21 -1.84032200 -1.13761100 1.04590200 2.22706100 0.43026100 0.92075000
22 -1.52345300 0.00003200 0.00003100 0.06200100 0.16249200 0.46746700
23 -1.59928500 0.00000400 0.00001600 0.02989500 -0.03079900 0.78129700
24 5.58312400 0.11572600 0.29499600 2.23698600 -0.06403800 3.11154600
25 0.19684700 -0.00000100 0.00000300 2.79340689 -0.00076261 -3.14137426
26 -2.57638500 -16.11246900 -1.00630700 1.97586200 1.15990900 1.84280300
27 6.21448500 0.00000600 0.00002000 -0.87838845 0.39960895 -1.98542072
28 11.94488500 -0.00002900 -0.00019400 0.17792306 -0.34199148 -1.22588841
29 10.62016600 0.00000200 0.00001000 -1.93919228 -0.37478135 0.15043623
30 4.75115600 0.69437600 -0.83047300 -0.06963100 -0.18956200 1.20293400
31 1.68806500 -0.00002600 0.00000200 -0.00178600 -0.02466300 1.51256600
32 1.33615100 -0.00005100 -0.00000900 0.00162500 -0.03868900 0.32920800
33 4.82051300 0.50934000 0.22486500 -0.15643200 -0.01406900 1.57957000
34 1.82699600 0.00006600 0.00000800 -0.00186700 0.04038300 1.22708400
35 1.43657700 -0.00001000 0.00000700 0.00808100 -0.01279400 0.27447100
36 3.99235300 0.89108700 1.82799400 -0.26823800 0.10724000 1.40713400
37 1.40591800 0.00002100 -0.00000700 -0.01645600 -0.02445100 1.46689000
38 1.17536900 -0.00013100 0.00000200 0.02096900 0.12149700 0.12659500
39 4.52675600 0.69046000 1.12084200 -0.15292900 0.08798300 1.61269300
40 1.74404100 -0.00003100 -0.00000200 -0.02493600 -0.01580100 1.41848500
41 1.36876300 -0.00003100 -0.00001700 -0.24626800 0.17807500 0.18497200
42 1.87485500 0.93508100 -0.99913000 2.44808600 0.23419600 1.08300800
43 1.45054500 -0.06018600 0.09121800 0.04429500 0.17016300 0.35957300
44 1.59928100 -0.00000200 0.00000900 0.08169400 -0.01721100 1.03306000
45 5.51180600 -0.00000200 0.00000600 -0.66744800 0.00000000 0.00000000
46 0.19685000 0.00000300 -0.00000200 -0.34822500 0.00001500 -0.00000200
47 0.00000000 1.00000000 0.00000000 0.00000000 0.00000000 -1.57079600
48 -3.47734200 3.27852200 -2.72292100 0.00000000 0.00000000 -3.14156200
49 -3.26469850 21.23410417 -0.11762800 0.23335496 0.24516092 -1.13585346
50 11.97563200 0.60074200 -3.41184100 0.21793700 1.03451400 1.57217400
51 5.68842700 -0.01178200 -0.37496100 0.00000000 0.00000000 0.00000000
52 -5.79591200 -0.00336600 0.65722100 0.00000000 0.00000000 0.00000000
53 0.12109200 0.00000000 -0.11972000 0.00000000 0.00000000 0.00000000
54 -0.81526600 0.44891200 1.20490200 0.00000000 0.00000000 0.00000000
55 -4.54927400 -0.05422000 -0.66098900 0.00000000 0.00000000 0.00000000
56 -4.11342000 -2.62846000 -4.75590600 2.73160200 -0.06448900 -1.98897400
time 6
0 -0.00000100 8.45008800 -27.50902600 0.00000000 0.00000000 0.00003100
1 -0.00000200 0.00000000 0.00000000 1.57074300 -1.56713700 -1.57074300
2 4.25546800 -0.33518300 -0.00000200 0.00000000 0.00000000 -0.12484800
3 7.43124800 1.49647700 0.00000200 0.00000000 0.00000000 0.24545000
4 5.27847900 0.16554100 0.00000100 0.00000000 0.00000000 0.04851100
5 -1.10951600 -7.70597300 2.86734500 1.97586400 1.15990900 -1.29878600
6 -6.21448200 -0.00000700 -0.00002700 -3.02107235 -0.33085369 1.73510176
7 11.94488200 0.00000000 0.00000100 -0.30611049 -0.32301198 1.81399072
8 10.62018100 0.00000200 0.00000000 0.86544607 0.06277399 2.48209792
9 -4.75110600 -0.69449400 0.83057700 -0.21244700 0.13723700 0.56559200
10 -1.68806800 0.00004600 -0.00003200 0.01476400 -0.01983500 0.80019500
11 -1.33614000 0.00005700 -0.00001200 0.02599100 -0.00450100 0.72485300
12 -4.82049400 -0.50946000 -0.22475900 -0.33666500 0.06009700 1.41259200
13 -1.82699200 -0.00006400 0.00000600 -0.00131800 0.04043600 1.24234300
14 -1.43657300 0.00000600 0.00000200 -0.04286600 -0.06491600 0.49261200
15 -3.99235500 -0.89118800 -1.82790900 -0.41942700 0.35068000 1.51819800
16 -1.40591800 -0.00002500 -0.00000300 0.00712800 -0.02856300 0.62998400
17 -1.17535800 0.00012800 -0.00002000 0.06062700 0.03058100 1.00743600
18 -4.52675100 -0.69057500 -1.12074400 -0.43113200 0.21594300 1.61193500
19 -1.74403800 0.00003300 -0.00000800 -0.02031700 -0.02143900 1.17042900
20 -1.36877100 0.00002500 0.00000200 0.02081800 0.04817500 0.30338500
21 -1.84032200 -1.13761100 1.04590200 2.22706100 0.43026100 0.92075000
22 -1.52345300 0.00003200 0.00003100 0.06200100 0.16249200 0.46746700
23 -1.59928500 0.00000400 0.00001600 0.02989500 -0.03079900 0.78129700
24 5.58312400 0.11572600 0.29499600 2.23698600 -0.06403800 3.11154600
25 0.19684700 -0.00000100 0.00000300 2.79340689 -0.00076261 -3.14137426
26 -2.37051300 -15.53314200 -0.77742200 1.97586200 1.15990900 1.84280300
27 6.21448500 0.00000600 0.00002000 -1.02210870 0.39490038 -1.97145970
28 11.94488500 -0.00002900 -0.00019400 0.32283721 -0.34956265 -1.22745782
29 10.62016600 0.00000200 0.00001000 -1.96008800 -0.35413044 0.09176187
30 4.75115600 0.69437600 -0.83047300 -0.06963100 -0.18956200 1.20293400
31 1.68806500 -0.00002600 0.00000200 -0.00178600 -0.02466300 1.51256600
32 1.33615100 -0.00005100 -0.00000900 0.00162500 -0.03868900 0.32920800
33 4.82051300 0.50934000 0.22486500 -0.15643200 -0.01406900 1.57957000
34 1.82699600 0.00006600 0.00000800 -0.00186700 0.04038300 1.22708400
35 1.43657700 -0.00001000 0.00000700 0.00808100 -0.01279400 0.27447100
36 3.99235300 0.89108700 1.82799400 -0.26823800 0.10724000 1.40713400
37 1.40591800 0.00002100 -0.00000700 -0.01645600 -0.02445100 1.46689000
38 1.17536900 -0.00013100 0.00000200 0.02096900 0.12149700 0.12659500
39 4.52675600 0.69046000 1.12084200 -0.15292900 0.08798300 1.61269300
40 1.74404100 -0.00003100 -0.00000200 -0.02493600 -0.01580100 1.41848500
41 1.36876300 -0.00003100 -0.00001700 -0.24626800 0.17807500 0.18497200
42 1.87485500 0.93508100 -0.99913000 2.44808600 0.23419600 1.08300800
43 1.45054500 -0.06018600 0.09121800 0.04429500 0.17016300 0.35957300
44 1.59928100 -0.00000200 0.00000900 0.08169400 -0.01721100 1.03306000
45 5.51180600 -0.00000200 0.00000600 -0.66744800 0.00000000 0.00000000
46 0.19685000 0.00000300 -0.00000200 -0.34822500 0.00001500 -0.00000200
47 0.00000000 1.00000000 0.00000000 0.00000000 0.00000000 -1.57079600
48 -3.47734200 3.27852200 -2.72292100 0.00000000 0.00000000 -3.14156200
49 -4.44304833 21.04124517 0.07855117 0.30607315 0.28104362 -0.98447823
50 11.97563200 0.60074200 -3.41184100 0.21793700 1.03451400 1.57217400
51 5.68842700 -0.01178200 -0.37496100 0.00000000 0.00000000 0.00000000
52 -5.79591200 -0.00336600 0.65722100 0.00000000 0.00000000 0.00000000
53 0.12109200 0.00000000 -0.11972000 0.00000000 0.00000000 0.00000000
54 -0.81526600 0.44891200 1.20490200 0.00000000 0.00000000 0.00000000
55 -4.54927400 -0.05422000 -0.66098900 0.00000000 0.00000000 0.00000000
56 -4.11342000 -2.62846000 -4.75590600 2.73160200 -0.06448900 -1.98897400
time 7
0 -0.00000100 8.45008800 -27.50902600 0.00000000 0.00000000 0.00003100
1 -0.00000200 0.00000000 0.00000000 1.57074300 -1.56713700 -1.57074300
2 4.25546800 -0.33518300 -0.00000200 0.00000000 0.00000000 -0.12484800
3 7.43124800 1.49647700 0.00000200 0.00000000 0.00000000 0.24545000
4 5.27847900 0.16554100 0.00000100 0.00000000 0.00000000 0.04851100
5 -1.15834800 -8.53313200 4.15835000 1.97586400 1.15990900 -1.29878600
6 -6.21448200 -0.00000700 -0.00002700 -3.03180540 -0.33272150 1.64091088
7 11.94488200 0.00000000 0.00000100 -0.28614132 -0.32289942 1.75434683
8 10.62018100 0.00000200 0.00000000 0.86504188 0.07586335 2.57916092
9 -4.75110600 -0.69449400 0.83057700 -0.21244700 0.13723700 0.56559200
10 -1.68806800 0.00004600 -0.00003200 0.01476400 -0.01983500 0.80019500
11 -1.33614000 0.00005700 -0.00001200 0.02599100 -0.00450100 0.72485300
12 -4.82049400 -0.50946000 -0.22475900 -0.33666500 0.06009700 1.41259200
13 -1.82699200 -0.00006400 0.00000600 -0.00131800 0.04043600 1.24234300
14 -1.43657300 0.00000600 0.00000200 -0.04286600 -0.06491600 0.49261200
15 -3.99235500 -0.89118800 -1.82790900 -0.41942700 0.35068000 1.51819800
16 -1.40591800 -0.00002500 -0.00000300 0.00712800 -0.02856300 0.62998400
17 -1.17535800 0.00012800 -0.00002000 0.06062700 0.03058100 1.00743600
18 -4.52675100 -0.69057500 -1.12074400 -0.43113200 0.21594300 1.61193500
19 -1.74403800 0.00003300 -0.00000800 -0.02031700 -0.02143900 1.17042900
20 -1.36877100 0.00002500 0.00000200 0.02081800 0.04817500 0.30338500
21 -1.84032200 -1.13761100 1.04590200 2.22706100 0.43026100 0.92075000
22 -1.52345300 0.00003200 0.00003100 0.06200100 0.16249200 0.46746700
23 -1.59928500 0.00000400 0.00001600 0.02989500 -0.03079900 0.78129700
24 5.58312400 0.11572600 0.29499600 2.23698600 -0.06403800 3.11154600
25 0.19684700 -0.00000100 0.00000300 2.79340689 -0.00076261 -3.14137426
26 -2.16463900 -14.95381300 -0.54853800 1.97586200 1.15990900 1.84280300
27 6.21448500 0.00000600 0.00002000 -1.15856850 0.39200687 -1.96048136
28 11.94488500 -0.00002900 -0.00019400 0.49608516 -0.35857620 -1.22623433
29 10.62016600 0.00000200 0.00001000 -2.01783151 -0.33070297 0.04967386
30 4.75115600 0.69437600 -0.83047300 -0.06963100 -0.18956200 1.20293400
31 1.68806500 -0.00002600 0.00000200 -0.00178600 -0.02466300 1.51256600
32 1.33615100 -0.00005100 -0.00000900 0.00162500 -0.03868900 0.32920800
33 4.82051300 0.50934000 0.22486500 -0.15643200 -0.01406900 1.57957000
34 1.82699600 0.00006600 0.00000800 -0.00186700 0.04038300 1.22708400
35 1.43657700 -0.00001000 0.00000700 0.00808100 -0.01279400 0.27447100
36 3.99235300 0.89108700 1.82799400 -0.26823800 0.10724000 1.40713400
37 1.40591800 0.00002100 -0.00000700 -0.01645600 -0.02445100 1.46689000
38 1.17536900 -0.00013100 0.00000200 0.02096900 0.12149700 0.12659500
39 4.52675600 0.69046000 1.12084200 -0.15292900 0.08798300 1.61269300
40 1.74404100 -0.00003100 -0.00000200 -0.02493600 -0.01580100 1.41848500
41 1.36876300 -0.00003100 -0.00001700 -0.24626800 0.17807500 0.18497200
42 1.87485500 0.93508100 -0.99913000 2.44808600 0.23419600 1.08300800
43 1.45054500 -0.06018600 0.09121800 0.04429500 0.17016300 0.35957300
44 1.59928100 -0.00000200 0.00000900 0.08169400 -0.01721100 1.03306000
45 5.51180600 -0.00000200 0.00000600 -0.66744800 0.00000000 0.00000000
46 0.19685000 0.00000300 -0.00000200 -0.34822500 0.00001500 -0.00000200
47 0.00000000 1.00000000 0.00000000 0.00000000 0.00000000 -1.57079600
48 -3.47734200 3.27852200 -2.72292100 0.00000000 0.00000000 -3.14156200
49 -5.52763367 20.90478217 0.11137650 0.35389237 0.29085227 -0.84352092
50 11.97563200 0.60074200 -3.41184100 0.21793700 1.03451400 1.57217400
51 5.68842700 -0.01178200 -0.37496100 0.00000000 0.00000000 0.00000000
52 -5.79591200 -0.00336600 0.65722100 0.00000000 0.00000000 0.00000000
53 0.12109200 0.00000000 -0.11972000 0.00000000 0.00000000 0.00000000
54 -0.81526600 0.44891200 1.20490200 0.00000000 0.00000000 0.00000000
55 -4.54927400 -0.05422000 -0.66098900 0.00000000 0.00000000 0.00000000
56 -4.11342000 -2.62846000 -4.75590600 2.73160200 -0.06448900 -1.98897400
time 8
0 -0.00000100 8.45008800 -27.50902600 0.00000000 0.00000000 0.00003100
1 -0.00000200 0.00000000 0.00000000 1.57074300 -1.56713700 -1.57074300
2 4.25546800 -0.33518300 -0.00000200 0.00000000 0.00000000 -0.12484800
3 7.43124800 1.49647700 0.00000200 0.00000000 0.00000000 0.24545000
4 5.27847900 0.16554100 0.00000100 0.00000000 0.00000000 0.04851100
5 -1.20444200 -9.31391000 5.37696200 1.97586400 1.15990900 -1.29878600
6 -6.21448200 -0.00000700 -0.00002700 -3.05078712 -0.32599742 1.53892098
7 11.94488200 0.00000000 0.00000100 -0.26141287 -0.32284421 1.68120205
8 10.62018100 0.00000200 0.00000000 0.85078451 0.09159719 2.64835402
9 -4.75110600 -0.69449400 0.83057700 -0.21244700 0.13723700 0.56559200
10 -1.68806800 0.00004600 -0.00003200 0.01476400 -0.01983500 0.80019500
11 -1.33614000 0.00005700 -0.00001200 0.02599100 -0.00450100 0.72485300
12 -4.82049400 -0.50946000 -0.22475900 -0.33666500 0.06009700 1.41259200
13 -1.82699200 -0.00006400 0.00000600 -0.00131800 0.04043600 1.24234300
14 -1.43657300 0.00000600 0.00000200 -0.04286600 -0.06491600 0.49261200
15 -3.99235500 -0.89118800 -1.82790900 -0.41942700 0.35068000 1.51819800
16 -1.40591800 -0.00002500 -0.00000300 0.00712800 -0.02856300 0.62998400
17 -1.17535800 0.00012800 -0.00002000 0.06062700 0.03058100 1.00743600
18 -4.52675100 -0.69057500 -1.12074400 -0.43113200 0.21594300 1.61193500
19 -1.74403800 0.00003300 -0.00000800 -0.02031700 -0.02143900 1.17042900
20 -1.36877100 0.00002500 0.00000200 0.02081800 0.04817500 0.30338500
21 -1.84032200 -1.13761100 1.04590200 2.22706100 0.43026100 0.92075000
22 -1.52345300 0.00003200 0.00003100 0.06200100 0.16249200 0.46746700
23 -1.59928500 0.00000400 0.00001600 0.02989500 -0.03079900 0.78129700
24 5.58312400 0.11572600 0.29499600 2.23698600 -0.06403800 3.11154600
25 0.19684700 -0.00000100 0.00000300 2.79340689 -0.00076261 -3.14137426
26 -1.97031100 -14.40696900 -0.33248800 1.97586200 1.15990900 1.84280300
27 6.21448500 0.00000600 0.00002000 -1.28875599 0.38776639 -1.95304079
28 11.94488500 -0.00002900 -0.00019400 0.68946610 -0.36755993 -1.21625210
29 10.62016600 0.00000200 0.00001000 -2.11187311 -0.31237068 0.01357676
30 4.75115600 0.69437600 -0.83047300 -0.06963100 -0.18956200 1.20293400
31 1.68806500 -0.00002600 0.00000200 -0.00178600 -0.02466300 1.51256600
32 1.33615100 -0.00005100 -0.00000900 0.00162500 -0.03868900 0.32920800
33 4.82051300 0.50934000 0.22486500 -0.15643200 -0.01406900 1.57957000
34 1.82699600 0.00006600 0.00000800 -0.00186700 0.04038300 1.22708400
35 1.43657700 -0.00001000 0.00000700 0.00808100 -0.01279400 0.27447100
36 3.99235300 0.89108700 1.82799400 -0.26823800 0.10724000 1.40713400
37 1.40591800 0.00002100 -0.00000700 -0.01645600 -0.02445100 1.46689000
38 1.17536900 -0.00013100 0.00000200 0.02096900 0.12149700 0.12659500
39 4.52675600 0.69046000 1.12084200 -0.15292900 0.08798300 1.61269300
40 1.74404100 -0.00003100 -0.00000200 -0.02493600 -0.01580100 1.41848500
41 1.36876300 -0.00003100 -0.00001700 -0.24626800 0.17807500 0.18497200
42 1.87485500 0.93508100 -0.99913000 2.44808600 0.23419600 1.08300800
43 1.45054500 -0.06018600 0.09121800 0.04429500 0.17016300 0.35957300
44 1.59928100 -0.00000200 0.00000900 0.08169400 -0.01721100 1.03306000
45 5.51180600 -0.00000200 0.00000600 -0.66744800 0.00000000 0.00000000
46 0.19685000 0.00000300 -0.00000200 -0.34822500 0.00001500 -0.00000200
47 0.00000000 1.00000000 0.00000000 0.00000000 0.00000000 -1.57079600
48 -3.47734200 3.27852200 -2.72292100 0.00000000 0.00000000 -3.14156200
49 -6.55279067 20.81776617 -0.00287800 0.38146122 0.28504078 -0.72400253
50 11.97563200 0.60074200 -3.41184100 0.21793700 1.03451400 1.57217400
51 5.68842700 -0.01178200 -0.37496100 0.00000000 0.00000000 0.00000000
52 -5.79591200 -0.00336600 0.65722100 0.00000000 0.00000000 0.00000000
53 0.12109200 0.00000000 -0.11972000 0.00000000 0.00000000 0.00000000
54 -0.81526600 0.44891200 1.20490200 0.00000000 0.00000000 0.00000000
55 -4.54927400 -0.05422000 -0.66098900 0.00000000 0.00000000 0.00000000
56 -4.11342000 -2.62846000 -4.75590600 2.73160200 -0.06448900 -1.98897400
time 9
0 -0.00000100 8.45008800 -27.50902600 0.00000000 0.00000000 0.00003100
1 -0.00000200 0.00000000 0.00000000 1.57074300 -1.56713700 -1.57074300
2 4.25546800 -0.33518300 -0.00000200 0.00000000 0.00000000 -0.12484800
3 7.43124800 1.49647700 0.00000200 0.00000000 0.00000000 0.24545000
4 5.27847900 0.16554100 0.00000100 0.00000000 0.00000000 0.04851100
5 -1.24506000 -10.00192100 6.45078800 1.97586400 1.15990900 -1.29878600
6 -6.21448200 -0.00000700 -0.00002700 -3.07920418 -0.31596241 1.44412683
7 11.94488200 0.00000000 0.00000100 -0.23249406 -0.32171771 1.59648989
8 10.62018100 0.00000200 0.00000000 0.83488880 0.11938261 2.71337280
9 -4.75110600 -0.69449400 0.83057700 -0.21244700 0.13723700 0.56559200
10 -1.68806800 0.00004600 -0.00003200 0.01476400 -0.01983500 0.80019500
11 -1.33614000 0.00005700 -0.00001200 0.02599100 -0.00450100 0.72485300
12 -4.82049400 -0.50946000 -0.22475900 -0.33666500 0.06009700 1.41259200
13 -1.82699200 -0.00006400 0.00000600 -0.00131800 0.04043600 1.24234300
14 -1.43657300 0.00000600 0.00000200 -0.04286600 -0.06491600 0.49261200
15 -3.99235500 -0.89118800 -1.82790900 -0.41942700 0.35068000 1.51819800
16 -1.40591800 -0.00002500 -0.00000300 0.00712800 -0.02856300 0.62998400
17 -1.17535800 0.00012800 -0.00002000 0.06062700 0.03058100 1.00743600
18 -4.52675100 -0.69057500 -1.12074400 -0.43113200 0.21594300 1.61193500
19 -1.74403800 0.00003300 -0.00000800 -0.02031700 -0.02143900 1.17042900
20 -1.36877100 0.00002500 0.00000200 0.02081800 0.04817500 0.30338500
21 -1.84032200 -1.13761100 1.04590200 2.22706100 0.43026100 0.92075000
22 -1.52345300 0.00003200 0.00003100 0.06200100 0.16249200 0.46746700
23 -1.59928500 0.00000400 0.00001600 0.02989500 -0.03079900 0.78129700
24 5.58312400 0.11572600 0.29499600 2.23698600 -0.06403800 3.11154600
25 0.19684700 -0.00000100 0.00000300 2.79340689 -0.00076261 -3.14137426
26 -1.79907300 -13.92509700 -0.14210600 1.97586200 1.15990900 1.84280300
27 6.21448500 0.00000600 0.00002000 -1.40636793 0.38158965 -1.94869899
28 11.94488500 -0.00002900 -0.00019400 0.88722407 -0.37522496 -1.19533126
29 10.62016600 0.00000200 0.00001000 -2.23498434 -0.32183818 -0.02148739
30 4.75115600 0.69437600 -0.83047300 -0.06963100 -0.18956200 1.20293400
31 1.68806500 -0.00002600 0.00000200 -0.00178600 -0.02466300 1.51256600
32 1.33615100 -0.00005100 -0.00000900 0.00162500 -0.03868900 0.32920800
33 4.82051300 0.50934000 0.22486500 -0.15643200 -0.01406900 1.57957000
34 1.82699600 0.00006600 0.00000800 -0.00186700 0.04038300 1.22708400
35 1.43657700 -0.00001000 0.00000700 0.00808100 -0.01279400 0.27447100
36 3.99235300 0.89108700 1.82799400 -0.26823800 0.10724000 1.40713400
37 1.40591800 0.00002100 -0.00000700 -0.01645600 -0.02445100 1.46689000
38 1.17536900 -0.00013100 0.00000200 0.02096900 0.12149700 0.12659500
39 4.52675600 0.69046000 1.12084200 -0.15292900 0.08798300 1.61269300
40 1.74404100 -0.00003100 -0.00000200 -0.02493600 -0.01580100 1.41848500
41 1.36876300 -0.00003100 -0.00001700 -0.24626800 0.17807500 0.18497200
42 1.87485500 0.93508100 -0.99913000 2.44808600 0.23419600 1.08300800
43 1.45054500 -0.06018600 0.09121800 0.04429500 0.17016300 0.35957300
44 1.59928100 -0.00000200 0.00000900 0.08169400 -0.01721100 1.03306000
45 5.51180600 -0.00000200 0.00000600 -0.66744800 0.00000000 0.00000000
46 0.19685000 0.00000300 -0.00000200 -0.34822500 0.00001500 -0.00000200
47 0.00000000 1.00000000 0.00000000 0.00000000 0.00000000 -1.57079600
48 -3.47734200 3.27852200 -2.72292100 0.00000000 0.00000000 -3.14156200
49 -7.46434583 20.75237517 -0.26986983 0.40595686 0.27544979 -0.62499437
50 11.97563200 0.60074200 -3.41184100 0.21793700 1.03451400 1.57217400
51 5.68842700 -0.01178200 -0.37496100 0.00000000 0.00000000 0.00000000
52 -5.79591200 -0.00336600 0.65722100 0.00000000 0.00000000 0.00000000
53 0.12109200 0.00000000 -0.11972000 0.00000000 0.00000000 0.00000000
54 -0.81526600 0.44891200 1.20490200 0.00000000 0.00000000 0.00000000
55 -4.54927400 -0.05422000 -0.66098900 0.00000000 0.00000000 0.00000000
56 -4.11342000 -2.62846000 -4.75590600 2.73160200 -0.06448900 -1.98897400
time 10
0 -0.00000100 8.45008800 -27.50902600 0.00000000 0.00000000 0.00003100
1 -0.00000200 0.00000000 0.00000000 1.57074300 -1.56713700 -1.57074300
2 4.25546800 -0.33518300 -0.00000200 0.00000000 0.00000000 -0.12484800
3 7.43124800 1.49647700 0.00000200 0.00000000 0.00000000 0.24545000
4 5.27847900 0.16554100 0.00000100 0.00000000 0.00000000 0.04851100
5 -1.27746300 -10.55078200 7.30743600 1.97586400 1.15990900 -1.29878600
6 -6.21448200 -0.00000700 -0.00002700 -3.09681766 -0.31102027 1.38398247
7 11.94488200 0.00000000 0.00000100 -0.20804073 -0.31969439 1.52516498
8 10.62018100 0.00000200 0.00000000 0.82649700 0.13365686 2.78754587
9 -4.75110600 -0.69449400 0.83057700 -0.21244700 0.13723700 0.56559200
10 -1.68806800 0.00004600 -0.00003200 0.01476400 -0.01983500 0.80019500
11 -1.33614000 0.00005700 -0.00001200 0.02599100 -0.00450100 0.72485300
12 -4.82049400 -0.50946000 -0.22475900 -0.33666500 0.06009700 1.41259200
13 -1.82699200 -0.00006400 0.00000600 -0.00131800 0.04043600 1.24234300
14 -1.43657300 0.00000600 0.00000200 -0.04286600 -0.06491600 0.49261200
15 -3.99235500 -0.89118800 -1.82790900 -0.41942700 0.35068000 1.51819800
16 -1.40591800 -0.00002500 -0.00000300 0.00712800 -0.02856300 0.62998400
17 -1.17535800 0.00012800 -0.00002000 0.06062700 0.03058100 1.00743600
18 -4.52675100 -0.69057500 -1.12074400 -0.43113200 0.21594300 1.61193500
19 -1.74403800 0.00003300 -0.00000800 -0.02031700 -0.02143900 1.17042900
20 -1.36877100 0.00002500 0.00000200 0.02081800 0.04817500 0.30338500
21 -1.84032200 -1.13761100 1.04590200 2.22706100 0.43026100 0.92075000
22 -1.52345300 0.00003200 0.00003100 0.06200100 0.16249200 0.46746700
23 -1.59928500 0.00000400 0.00001600 0.02989500 -0.03079900 0.78129700
24 5.58312400 0.11572600 0.29499600 2.23698600 -0.06403800 3.11154600
25 0.19684700 -0.00000100 0.00000300 2.79340689 -0.00076261 -3.14137426
26 -1.66246600 -13.54068300 0.00977100 1.97586200 1.15990900 1.84280300
27 6.21448500 0.00000600 0.00002000 -1.47368422 0.38367248 -1.94695924
28 11.94488500 -0.00002900 -0.00019400 1.06840331 -0.38193037 -1.17953816
29 10.62016600 0.00000200 0.00001000 -2.37372020 -0.36704981 -0.01248858
30 4.75115600 0.69437600 -0.83047300 -0.06963100 -0.18956200 1.20293400
31 1.68806500 -0.00002600 0.00000200 -0.00178600 -0.02466300 1.51256600
32 1.33615100 -0.00005100 -0.00000900 0.00162500 -0.03868900 0.32920800
33 4.82051300 0.50934000 0.22486500 -0.15643200 -0.01406900 1.57957000
34 1.82699600 0.00006600 0.00000800 -0.00186700 0.04038300 1.22708400
35 1.43657700 -0.00001000 0.00000700 0.00808100 -0.01279400 0.27447100
36 3.99235300 0.89108700 1.82799400 -0.26823800 0.10724000 1.40713400
37 1.40591800 0.00002100 -0.00000700 -0.01645600 -0.02445100 1.46689000
38 1.17536900 -0.00013100 0.00000200 0.02096900 0.12149700 0.12659500
39 4.52675600 0.69046000 1.12084200 -0.15292900 0.08798300 1.61269300
40 1.74404100 -0.00003100 -0.00000200 -0.02493600 -0.01580100 1.41848500
41 1.36876300 -0.00003100 -0.00001700 -0.24626800 0.17807500 0.18497200
42 1.87485500 0.93508100 -0.99913000 2.44808600 0.23419600 1.08300800
43 1.45054500 -0.06018600 0.09121800 0.04429500 0.17016300 0.35957300
44 1.59928100 -0.00000200 0.00000900 0.08169400 -0.01721100 1.03306000
45 5.51180600 -0.00000200 0.00000600 -0.66744800 0.00000000 0.00000000
46 0.19685000 0.00000300 -0.00000200 -0.34822500 0.00001500 -0.00000200
47 0.00000000 1.00000000 0.00000000 0.00000000 0.00000000 -1.57079600
48 -3.47734200 3.27852200 -2.72292100 0.00000000 0.00000000 -3.14156200
49 -7.90100650 20.70551917 -0.56607917 0.42920760 0.26493575 -0.54492948
50 11.97563200 0.60074200 -3.41184100 0.21793700 1.03451400 1.57217400
51 5.68842700 -0.01178200 -0.37496100 0.00000000 0.00000000 0.00000000
52 -5.79591200 -0.00336600 0.65722100 0.00000000 0.00000000 0.00000000
53 0.12109200 0.00000000 -0.11972000 0.00000000 0.00000000 0.00000000
54 -0.81526600 0.44891200 1.20490200 0.00000000 0.00000000 0.00000000
55 -4.54927400 -0.05422000 -0.66098900 0.00000000 0.00000000 0.00000000
56 -4.11342000 -2.62846000 -4.75590600 2.73160200 -0.06448900 -1.98897400
time 11
0 -0.00000100 8.45008800 -27.50902600 0.00000000 0.00000000 0.00003100
1 -0.00000200 0.00000000 0.00000000 1.57074300 -1.56713700 -1.57074300
2 4.25546800 -0.33518300 -0.00000200 0.00000000 0.00000000 -0.12484800
3 7.43124800 1.49647700 0.00000200 0.00000000 0.00000000 0.24545000
4 5.27847900 0.16554100 0.00000100 0.00000000 0.00000000 0.04851100
5 -1.29891100 -10.91411400 7.87451100 1.97586400 1.15990900 -1.29878600
6 -6.21448200 -0.00000700 -0.00002700 -3.09824672 -0.30698035 1.35035816
7 11.94488200 0.00000000 0.00000100 -0.18840364 -0.31733979 1.46743787
8 10.62018100 0.00000200 0.00000000 0.82606223 0.13182337 2.86518455
9 -4.75110600 -0.69449400 0.83057700 -0.21244700 0.13723700 0.56559200
10 -1.68806800 0.00004600 -0.00003200 0.01476400 -0.01983500 0.80019500
11 -1.33614000 0.00005700 -0.00001200 0.02599100 -0.00450100 0.72485300
12 -4.82049400 -0.50946000 -0.22475900 -0.33666500 0.06009700 1.41259200
13 -1.82699200 -0.00006400 0.00000600 -0.00131800 0.04043600 1.24234300
14 -1.43657300 0.00000600 0.00000200 -0.04286600 -0.06491600 0.49261200
15 -3.99235500 -0.89118800 -1.82790900 -0.41942700 0.35068000 1.51819800
16 -1.40591800 -0.00002500 -0.00000300 0.00712800 -0.02856300 0.62998400
17 -1.17535800 0.00012800 -0.00002000 0.06062700 0.03058100 1.00743600
18 -4.52675100 -0.69057500 -1.12074400 -0.43113200 0.21594300 1.61193500
19 -1.74403800 0.00003300 -0.00000800 -0.02031700 -0.02143900 1.17042900
20 -1.36877100 0.00002500 0.00000200 0.02081800 0.04817500 0.30338500
21 -1.84032200 -1.13761100 1.04590200 2.22706100 0.43026100 0.92075000
22 -1.52345300 0.00003200 0.00003100 0.06200100 0.16249200 0.46746700
23 -1.59928500 0.00000400 0.00001600 0.02989500 -0.03079900 0.78129700
24 5.58312400 0.11572600 0.29499600 2.23698600 -0.06403800 3.11154600
25 0.19684700 -0.00000100 0.00000300 2.79340689 -0.00076261 -3.14137426
26 -1.57203700 -13.28621200 0.11030800 1.97586200 1.15990900 1.84280300
27 6.21448500 0.00000600 0.00002000 -1.50445189 0.38884758 -1.94827080
28 11.94488500 -0.00002900 -0.00019400 1.20189134 -0.38893916 -1.17420178
29 10.62016600 0.00000200 0.00001000 -2.48699192 -0.41302331 0.02636506
30 4.75115600 0.69437600 -0.83047300 -0.06963100 -0.18956200 1.20293400
31 1.68806500 -0.00002600 0.00000200 -0.00178600 -0.02466300 1.51256600
32 1.33615100 -0.00005100 -0.00000900 0.00162500 -0.03868900 0.32920800
33 4.82051300 0.50934000 0.22486500 -0.15643200 -0.01406900 1.57957000
34 1.82699600 0.00006600 0.00000800 -0.00186700 0.04038300 1.22708400
35 1.43657700 -0.00001000 0.00000700 0.00808100 -0.01279400 0.27447100
36 3.99235300 0.89108700 1.82799400 -0.26823800 0.10724000 1.40713400
37 1.40591800 0.00002100 -0.00000700 -0.01645600 -0.02445100 1.46689000
38 1.17536900 -0.00013100 0.00000200 0.02096900 0.12149700 0.12659500
39 4.52675600 0.69046000 1.12084200 -0.15292900 0.08798300 1.61269300
40 1.74404100 -0.00003100 -0.00000200 -0.02493600 -0.01580100 1.41848500
41 1.36876300 -0.00003100 -0.00001700 -0.24626800 0.17807500 0.18497200
42 1.87485500 0.93508100 -0.99913000 2.44808600 0.23419600 1.08300800
43 1.45054500 -0.06018600 0.09121800 0.04429500 0.17016300 0.35957300
44 1.59928100 -0.00000200 0.00000900 0.08169400 -0.01721100 1.03306000
45 5.51180600 -0.00000200 0.00000600 -0.66744800 0.00000000 0.00000000
46 0.19685000 0.00000300 -0.00000200 -0.34822500 0.00001500 -0.00000200
47 0.00000000 1.00000000 0.00000000 0.00000000 0.00000000 -1.57079600
48 -3.47734200 3.27852200 -2.72292100 0.00000000 0.00000000 -3.14156200
49 -8.03960950 20.67411317 -0.74953933 0.45151308 0.25603052 -0.48211204
50 11.97563200 0.60074200 -3.41184100 0.21793700 1.03451400 1.57217400
51 5.68842700 -0.01178200 -0.37496100 0.00000000 0.00000000 0.00000000
52 -5.79591200 -0.00336600 0.65722100 0.00000000 0.00000000 0.00000000
53 0.12109200 0.00000000 -0.11972000 0.00000000 0.00000000 0.00000000
54 -0.81526600 0.44891200 1.20490200 0.00000000 0.00000000 0.00000000
55 -4.54927400 -0.05422000 -0.66098900 0.00000000 0.00000000 0.00000000
56 -4.11342000 -2.62846000 -4.75590600 2.73160200 -0.06448900 -1.98897400
time 12
0 -0.00000100 8.45008800 -27.50902600 0.00000000 0.00000000 0.00003100
1 -0.00000200 0.00000000 0.00000000 1.57074300 -1.56713700 -1.57074300
2 4.25546800 -0.33518300 -0.00000200 0.00000000 0.00000000 -0.12484800
3 7.43124800 1.49647700 0.00000200 0.00000000 0.00000000 0.24545000
4 5.27847900 0.16554100 0.00000100 0.00000000 0.00000000 0.04851100
5 -1.30667000 -11.04553000 8.07962300 1.97586400 1.15990900 -1.29878600
6 -6.21448200 -0.00000700 -0.00002700 -3.08797842 -0.30173631 1.33802099
7 11.94488200 0.00000000 0.00000100 -0.17173908 -0.31472351 1.41861701
8 10.62018100 0.00000200 0.00000000 0.82789942 0.12018805 2.94350242
9 -4.75110600 -0.69449400 0.83057700 -0.21244700 0.13723700 0.56559200
10 -1.68806800 0.00004600 -0.00003200 0.01476400 -0.01983500 0.80019500
11 -1.33614000 0.00005700 -0.00001200 0.02599100 -0.00450100 0.72485300
12 -4.82049400 -0.50946000 -0.22475900 -0.33666500 0.06009700 1.41259200
13 -1.82699200 -0.00006400 0.00000600 -0.00131800 0.04043600 1.24234300
14 -1.43657300 0.00000600 0.00000200 -0.04286600 -0.06491600 0.49261200
15 -3.99235500 -0.89118800 -1.82790900 -0.41942700 0.35068000 1.51819800
16 -1.40591800 -0.00002500 -0.00000300 0.00712800 -0.02856300 0.62998400
17 -1.17535800 0.00012800 -0.00002000 0.06062700 0.03058100 1.00743600
18 -4.52675100 -0.69057500 -1.12074400 -0.43113200 0.21594300 1.61193500
19 -1.74403800 0.00003300 -0.00000800 -0.02031700 -0.02143900 1.17042900
20 -1.36877100 0.00002500 0.00000200 0.02081800 0.04817500 0.30338500
21 -1.84032200 -1.13761100 1.04590200 2.22706100 0.43026100 0.92075000
22 -1.52345300 0.00003200 0.00003100 0.06200100 0.16249200 0.46746700
23 -1.59928500 0.00000400 0.00001600 0.02989500 -0.03079900 0.78129700
24 5.58312400 0.11572600 0.29499600 2.23698600 -0.06403800 3.11154600
25 0.19684700 -0.00000100 0.00000300 2.79340689 -0.00076261 -3.14137426
26 -1.53932800 -13.19416800 0.14667300 1.97586200 1.15990900 1.84280300
27 6.21448500 0.00000600 0.00002000 -1.52004530 0.39465524 -1.95292613
28 11.94488500 -0.00002900 -0.00019400 1.25719137 -0.39309622 -1.18431974
29 10.62016600 0.00000200 0.00001000 -2.52378671 -0.44256350 0.05262023
30 4.75115600 0.69437600 -0.83047300 -0.06963100 -0.18956200 1.20293400
31 1.68806500 -0.00002600 0.00000200 -0.00178600 -0.02466300 1.51256600
32 1.33615100 -0.00005100 -0.00000900 0.00162500 -0.03868900 0.32920800
33 4.82051300 0.50934000 0.22486500 -0.15643200 -0.01406900 1.57957000
34 1.82699600 0.00006600 0.00000800 -0.00186700 0.04038300 1.22708400
35 1.43657700 -0.00001000 0.00000700 0.00808100 -0.01279400 0.27447100
36 3.99235300 0.89108700 1.82799400 -0.26823800 0.10724000 1.40713400
37 1.40591800 0.00002100 -0.00000700 -0.01645600 -0.02445100 1.46689000
38 1.17536900 -0.00013100 0.00000200 0.02096900 0.12149700 0.12659500
39 4.52675600 0.69046000 1.12084200 -0.15292900 0.08798300 1.61269300
40 1.74404100 -0.00003100 -0.00000200 -0.02493600 -0.01580100 1.41848500
41 1.36876300 -0.00003100 -0.00001700 -0.24626800 0.17807500 0.18497200
42 1.87485500 0.93508100 -0.99913000 2.44808600 0.23419600 1.08300800
43 1.45054500 -0.06018600 0.09121800 0.04429500 0.17016300 0.35957300
44 1.59928100 -0.00000200 0.00000900 0.08169400 -0.01721100 1.03306000
45 5.51180600 -0.00000200 0.00000600 -0.66744800 0.00000000 0.00000000
46 0.19685000 0.00000300 -0.00000200 -0.34822500 0.00001500 -0.00000200
47 0.00000000 1.00000000 0.00000000 0.00000000 0.00000000 -1.57079600
48 -3.47734200 3.27852200 -2.72292100 0.00000000 0.00000000 -3.14156200
49 -8.05459050 20.65506217 -0.81393133 0.47121961 0.25048154 -0.43566969
50 11.97563200 0.60074200 -3.41184100 0.21793700 1.03451400 1.57217400
51 5.68842700 -0.01178200 -0.37496100 0.00000000 0.00000000 0.00000000
52 -5.79591200 -0.00336600 0.65722100 0.00000000 0.00000000 0.00000000
53 0.12109200 0.00000000 -0.11972000 0.00000000 0.00000000 0.00000000
54 -0.81526600 0.44891200 1.20490200 0.00000000 0.00000000 0.00000000
55 -4.54927400 -0.05422000 -0.66098900 0.00000000 0.00000000 0.00000000
56 -4.11342000 -2.62846000 -4.75590600 2.73160200 -0.06448900 -1.98897400
time 13
0 -0.00000100 8.45008800 -27.50902600 0.00000000 0.00000000 0.00003100
1 -0.00000200 0.00000000 0.00000000 1.57074300 -1.56713700 -1.57074300
2 4.25546800 -0.33518300 -0.00000200 0.00000000 0.00000000 -0.12484800
3 7.43124800 1.49647700 0.00000200 0.00000000 0.00000000 0.24545000
4 5.27847900 0.16554100 0.00000100 0.00000000 0.00000000 0.04851100
5 -1.30667000 -11.04553000 8.07962300 1.97586400 1.15990900 -1.29878600
6 -6.21448200 -0.00000700 -0.00002700 -3.07455201 -0.29689399 1.33764284
7 11.94488200 0.00000000 0.00000100 -0.15989408 -0.31218979 1.38399445
8 10.62018100 0.00000200 0.00000000 0.82192116 0.10569901 3.00433617
9 -4.75110600 -0.69449400 0.83057700 -0.21244700 0.13723700 0.56559200
10 -1.68806800 0.00004600 -0.00003200 0.01476400 -0.01983500 0.80019500
11 -1.33614000 0.00005700 -0.00001200 0.02599100 -0.00450100 0.72485300
12 -4.82049400 -0.50946000 -0.22475900 -0.33666500 0.06009700 1.41259200
13 -1.82699200 -0.00006400 0.00000600 -0.00131800 0.04043600 1.24234300
14 -1.43657300 0.00000600 0.00000200 -0.04286600 -0.06491600 0.49261200
15 -3.99235500 -0.89118800 -1.82790900 -0.41942700 0.35068000 1.51819800
16 -1.40591800 -0.00002500 -0.00000300 0.00712800 -0.02856300 0.62998400
17 -1.17535800 0.00012800 -0.00002000 0.06062700 0.03058100 1.00743600
18 -4.52675100 -0.69057500 -1.12074400 -0.43113200 0.21594300 1.61193500
19 -1.74403800 0.00003300 -0.00000800 -0.02031700 -0.02143900 1.17042900
20 -1.36877100 0.00002500 0.00000200 0.02081800 0.04817500 0.30338500
21 -1.84032200 -1.13761100 1.04590200 2.22706100 0.43026100 0.92075000
22 -1.52345300 0.00003200 0.00003100 0.06200100 0.16249200 0.46746700
23 -1.59928500 0.00000400 0.00001600 0.02989500 -0.03079900 0.78129700
24 5.58312400 0.11572600 0.29499600 2.23698600 -0.06403800 3.11154600
25 0.19684700 -0.00000100 0.00000300 2.79340689 -0.00076261 -3.14137426
26 -1.53932800 -13.19416800 0.14667300 1.97586200 1.15990900 1.84280300
27 6.21448500 0.00000600 0.00002000 -1.53133743 0.40054620 -1.95885915
28 11.94488500 -0.00002900 -0.00019400 1.26521711 -0.39170581 -1.20640052
29 10.62016600 0.00000200 0.00001000 -2.50231918 -0.45208189 0.05883307
30 4.75115600 0.69437600 -0.83047300 -0.06963100 -0.18956200 1.20293400
31 1.68806500 -0.00002600 0.00000200 -0.00178600 -0.02466300 1.51256600
32 1.33615100 -0.00005100 -0.00000900 0.00162500 -0.03868900 0.32920800
33 4.82051300 0.50934000 0.22486500 -0.15643200 -0.01406900 1.57957000
34 1.82699600 0.00006600 0.00000800 -0.00186700 0.04038300 1.22708400
35 1.43657700 -0.00001000 0.00000700 0.00808100 -0.01279400 0.27447100
36 3.99235300 0.89108700 1.82799400 -0.26823800 0.10724000 1.40713400
37 1.40591800 0.00002100 -0.00000700 -0.01645600 -0.02445100 1.46689000
38 1.17536900 -0.00013100 0.00000200 0.02096900 0.12149700 0.12659500
39 4.52675600 0.69046000 1.12084200 -0.15292900 0.08798300 1.61269300
40 1.74404100 -0.00003100 -0.00000200 -0.02493600 -0.01580100 1.41848500
41 1.36876300 -0.00003100 -0.00001700 -0.24626800 0.17807500 0.18497200
42 1.87485500 0.93508100 -0.99913000 2.44808600 0.23419600 1.08300800
43 1.45054500 -0.06018600 0.09121800 0.04429500 0.17016300 0.35957300
44 1.59928100 -0.00000200 0.00000900 0.08169400 -0.01721100 1.03306000
45 5.51180600 -0.00000200 0.00000600 -0.66744800 0.00000000 0.00000000
46 0.19685000 0.00000300 -0.00000200 -0.34822500 0.00001500 -0.00000200
47 0.00000000 1.00000000 0.00000000 0.00000000 0.00000000 -1.57079600
48 -3.47734200 3.27852200 -2.72292100 0.00000000 0.00000000 -3.14156200
49 -8.00139733 20.64527717 -0.79384083 0.47847955 0.24807234 -0.40457300
50 11.97563200 0.60074200 -3.41184100 0.21793700 1.03451400 1.57217400
51 5.68842700 -0.01178200 -0.37496100 0.00000000 0.00000000 0.00000000
52 -5.79591200 -0.00336600 0.65722100 0.00000000 0.00000000 0.00000000
53 0.12109200 0.00000000 -0.11972000 0.00000000 0.00000000 0.00000000
54 -0.81526600 0.44891200 1.20490200 0.00000000 0.00000000 0.00000000
55 -4.54927400 -0.05422000 -0.66098900 0.00000000 0.00000000 0.00000000
56 -4.11342000 -2.62846000 -4.75590600 2.73160200 -0.06448900 -1.98897400
time 14
0 -0.00000100 8.45008800 -27.50902600 0.00000000 0.00000000 0.00003100
1 -0.00000200 0.00000000 0.00000000 1.57074300 -1.56713700 -1.57074300
2 4.25546800 -0.33518300 -0.00000200 0.00000000 0.00000000 -0.12484800
3 7.43124800 1.49647700 0.00000200 0.00000000 0.00000000 0.24545000
4 5.27847900 0.16554100 0.00000100 0.00000000 0.00000000 0.04851100
5 -1.30667000 -11.04553000 8.07962300 1.97586400 1.15990900 -1.29878600
6 -6.21448200 -0.00000700 -0.00002700 -3.06866799 -0.29483139 1.33864436
7 11.94488200 0.00000000 0.00000100 -0.15381566 -0.31069929 1.36643243
8 10.62018100 0.00000200 0.00000000 0.80550988 0.09951621 3.03465967
9 -4.75110600 -0.69449400 0.83057700 -0.21244700 0.13723700 0.56559200
10 -1.68806800 0.00004600 -0.00003200 0.01476400 -0.01983500 0.80019500
11 -1.33614000 0.00005700 -0.00001200 0.02599100 -0.00450100 0.72485300
12 -4.82049400 -0.50946000 -0.22475900 -0.33666500 0.06009700 1.41259200
13 -1.82699200 -0.00006400 0.00000600 -0.00131800 0.04043600 1.24234300
14 -1.43657300 0.00000600 0.00000200 -0.04286600 -0.06491600 0.49261200
15 -3.99235500 -0.89118800 -1.82790900 -0.41942700 0.35068000 1.51819800
16 -1.40591800 -0.00002500 -0.00000300 0.00712800 -0.02856300 0.62998400
17 -1.17535800 0.00012800 -0.00002000 0.06062700 0.03058100 1.00743600
18 -4.52675100 -0.69057500 -1.12074400 -0.43113200 0.21594300 1.61193500
19 -1.74403800 0.00003300 -0.00000800 -0.02031700 -0.02143900 1.17042900
20 -1.36877100 0.00002500 0.00000200 0.02081800 0.04817500 0.30338500
21 -1.84032200 -1.13761100 1.04590200 2.22706100 0.43026100 0.92075000
22 -1.52345300 0.00003200 0.00003100 0.06200100 0.16249200 0.46746700
23 -1.59928500 0.00000400 0.00001600 0.02989500 -0.03079900 0.78129700
24 5.58312400 0.11572600 0.29499600 2.23698600 -0.06403800 3.11154600
25 0.19684700 -0.00000100 0.00000300 2.79340689 -0.00076261 -3.14137426
26 -1.53932800 -13.19416800 0.14667300 1.97586200 1.15990900 1.84280300
27 6.21448500 0.00000600 0.00002000 -1.54191508 0.40479491 -1.96244341
28 11.94488500 -0.00002900 -0.00019400 1.27258326 -0.38600498 -1.22828919
29 10.62016600 0.00000200 0.00001000 -2.47465951 -0.44553183 0.05858002
30 4.75115600 0.69437600 -0.83047300 -0.06963100 -0.18956200 1.20293400
31 1.68806500 -0.00002600 0.00000200 -0.00178600 -0.02466300 1.51256600
32 1.33615100 -0.00005100 -0.00000900 0.00162500 -0.03868900 0.32920800
33 4.82051300 0.50934000 0.22486500 -0.15643200 -0.01406900 1.57957000
34 1.82699600 0.00006600 0.00000800 -0.00186700 0.04038300 1.22708400
35 1.43657700 -0.00001000 0.00000700 0.00808100 -0.01279400 0.27447100
36 3.99235300 0.89108700 1.82799400 -0.26823800 0.10724000 1.40713400
37 1.40591800 0.00002100 -0.00000700 -0.01645600 -0.02445100 1.46689000
38 1.17536900 -0.00013100 0.00000200 0.02096900 0.12149700 0.12659500
39 4.52675600 0.69046000 1.12084200 -0.15292900 0.08798300 1.61269300
40 1.74404100 -0.00003100 -0.00000200 -0.02493600 -0.01580100 1.41848500
41 1.36876300 -0.00003100 -0.00001700 -0.24626800 0.17807500 0.18497200
42 1.87485500 0.93508100 -0.99913000 2.44808600 0.23419600 1.08300800
43 1.45054500 -0.06018600 0.09121800 0.04429500 0.17016300 0.35957300
44 1.59928100 -0.00000200 0.00000900 0.08169400 -0.01721100 1.03306000
45 5.51180600 -0.00000200 0.00000600 -0.66744800 0.00000000 0.00000000
46 0.19685000 0.00000300 -0.00000200 -0.34822500 0.00001500 -0.00000200
47 0.00000000 1.00000000 0.00000000 0.00000000 0.00000000 -1.57079600
48 -3.47734200 3.27852200 -2.72292100 0.00000000 0.00000000 -3.14156200
49 -7.93045433 20.64167217 -0.75559167 0.47001577 0.24892871 -0.38630967
50 11.97563200 0.60074200 -3.41184100 0.21793700 1.03451400 1.57217400
51 5.68842700 -0.01178200 -0.37496100 0.00000000 0.00000000 0.00000000
52 -5.79591200 -0.00336600 0.65722100 0.00000000 0.00000000 0.00000000
53 0.12109200 0.00000000 -0.11972000 0.00000000 0.00000000 0.00000000
54 -0.81526600 0.44891200 1.20490200 0.00000000 0.00000000 0.00000000
55 -4.54927400 -0.05422000 -0.66098900 0.00000000 0.00000000 0.00000000
56 -4.11342000 -2.62846000 -4.75590600 2.73160200 -0.06448900 -1.98897400
time 15
0 -0.00000100 8.45008800 -27.50902600 0.00000000 0.00000000 0.00003100
1 -0.00000200 0.00000000 0.00000000 1.57074300 -1.56713700 -1.57074300
2 4.25546800 -0.33518300 -0.00000200 0.00000000 0.00000000 -0.12484800
3 7.43124800 1.49647700 0.00000200 0.00000000 0.00000000 0.24545000
4 5.27847900 0.16554100 0.00000100 0.00000000 0.00000000 0.04851100
5 -1.30667000 -11.04553000 8.07962300 1.97586400 1.15990900 -1.29878600
6 -6.21448200 -0.00000700 -0.00002700 -3.07033929 -0.29576375 1.34143147
7 11.94488200 0.00000000 0.00000100 -0.15252138 -0.31047897 1.36273219
8 10.62018100 0.00000200 0.00000000 0.78745435 0.10262219 3.04232528
9 -4.75110600 -0.69449400 0.83057700 -0.21244700 0.13723700 0.56559200
10 -1.68806800 0.00004600 -0.00003200 0.01476400 -0.01983500 0.80019500
11 -1.33614000 0.00005700 -0.00001200 0.02599100 -0.00450100 0.72485300
12 -4.82049400 -0.50946000 -0.22475900 -0.33666500 0.06009700 1.41259200
13 -1.82699200 -0.00006400 0.00000600 -0.00131800 0.04043600 1.24234300
14 -1.43657300 0.00000600 0.00000200 -0.04286600 -0.06491600 0.49261200
15 -3.99235500 -0.89118800 -1.82790900 -0.41942700 0.35068000 1.51819800
16 -1.40591800 -0.00002500 -0.00000300 0.00712800 -0.02856300 0.62998400
17 -1.17535800 0.00012800 -0.00002000 0.06062700 0.03058100 1.00743600
18 -4.52675100 -0.69057500 -1.12074400 -0.43113200 0.21594300 1.61193500
19 -1.74403800 0.00003300 -0.00000800 -0.02031700 -0.02143900 1.17042900
20 -1.36877100 0.00002500 0.00000200 0.02081800 0.04817500 0.30338500
21 -1.84032200 -1.13761100 1.04590200 2.22706100 0.43026100 0.92075000
22 -1.52345300 0.00003200 0.00003100 0.06200100 0.16249200 0.46746700
23 -1.59928500 0.00000400 0.00001600 0.02989500 -0.03079900 0.78129700
24 5.58312400 0.11572600 0.29499600 2.23698600 -0.06403800 3.11154600
25 0.19684700 -0.00000100 0.00000300 2.79340689 -0.00076261 -3.14137426
26 -1.53932800 -13.19416800 0.14667300 1.97586200 1.15990900 1.84280300
27 6.21448500 0.00000600 0.00002000 -1.54966371 0.40660506 -1.96363039
28 11.94488500 -0.00002900 -0.00019400 1.27745940 -0.37843621 -1.24389142
29 10.62016600 0.00000200 0.00001000 -2.45061024 -0.43269463 0.05415793
30 4.75115600 0.69437600 -0.83047300 -0.06963100 -0.18956200 1.20293400
31 1.68806500 -0.00002600 0.00000200 -0.00178600 -0.02466300 1.51256600
32 1.33615100 -0.00005100 -0.00000900 0.00162500 -0.03868900 0.32920800
33 4.82051300 0.50934000 0.22486500 -0.15643200 -0.01406900 1.57957000
34 1.82699600 0.00006600 0.00000800 -0.00186700 0.04038300 1.22708400
35 1.43657700 -0.00001000 0.00000700 0.00808100 -0.01279400 0.27447100
36 3.99235300 0.89108700 1.82799400 -0.26823800 0.10724000 1.40713400
37 1.40591800 0.00002100 -0.00000700 -0.01645600 -0.02445100 1.46689000
38 1.17536900 -0.00013100 0.00000200 0.02096900 0.12149700 0.12659500
39 4.52675600 0.69046000 1.12084200 -0.15292900 0.08798300 1.61269300
40 1.74404100 -0.00003100 -0.00000200 -0.02493600 -0.01580100 1.41848500
41 1.36876300 -0.00003100 -0.00001700 -0.24626800 0.17807500 0.18497200
42 1.87485500 0.93508100 -0.99913000 2.44808600 0.23419600 1.08300800
43 1.45054500 -0.06018600 0.09121800 0.04429500 0.17016300 0.35957300
44 1.59928100 -0.00000200 0.00000900 0.08169400 -0.01721100 1.03306000
45 5.51180600 -0.00000200 0.00000600 -0.66744800 0.00000000 0.00000000
46 0.19685000 0.00000300 -0.00000200 -0.34822500 0.00001500 -0.00000200
47 0.00000000 1.00000000 0.00000000 0.00000000 0.00000000 -1.57079600
48 -3.47734200 3.27852200 -2.72292100 0.00000000 0.00000000 -3.14156200
49 -7.85892400 20.64115717 -0.72081467 0.45578725 0.25354300 -0.37924799
50 11.97563200 0.60074200 -3.41184100 0.21793700 1.03451400 1.57217400
51 5.68842700 -0.01178200 -0.37496100 0.00000000 0.00000000 0.00000000
52 -5.79591200 -0.00336600 0.65722100 0.00000000 0.00000000 0.00000000
53 0.12109200 0.00000000 -0.11972000 0.00000000 0.00000000 0.00000000
54 -0.81526600 0.44891200 1.20490200 0.00000000 0.00000000 0.00000000
55 -4.54927400 -0.05422000 -0.66098900 0.00000000 0.00000000 0.00000000
56 -4.11342000 -2.62846000 -4.75590600 2.73160200 -0.06448900 -1.98897400
end
