version 1
nodes
0 "root" -1
1 "pelvis" 0
2 "spine_01" 1
3 "spine_02" 2
4 "spine_03" 3
5 "clavicle_r" 4
6 "upperarm_r" 5
7 "lowerarm_r" 6
8 "hand_r" 7
9 "index_01_r" 8
10 "index_02_r" 9
11 "index_03_r" 10
12 "middle_01_r" 8
13 "middle_02_r" 12
14 "middle_03_r" 13
15 "pinky_01_r" 8
16 "pinky_02_r" 15
17 "pinky_03_r" 16
18 "ring_01_r" 8
19 "ring_02_r" 18
20 "ring_03_r" 19
21 "thumb_01_r" 8
22 "thumb_02_r" 21
23 "thumb_03_r" 22
24 "lowerarm_twist_01_r" 7
25 "upperarm_twist_01_r" 6
26 "clavicle_l" 4
27 "upperarm_l" 26
28 "lowerarm_l" 27
29 "hand_l" 28
30 "index_01_l" 29
31 "index_02_l" 30
32 "index_03_l" 31
33 "middle_01_l" 29
34 "middle_02_l" 33
35 "middle_03_l" 34
36 "pinky_01_l" 29
37 "pinky_02_l" 36
38 "pinky_03_l" 37
39 "ring_01_l" 29
40 "ring_02_l" 39
41 "ring_03_l" 40
42 "thumb_01_l" 29
43 "thumb_02_l" 42
44 "thumb_03_l" 43
45 "lowerarm_twist_01_l" 28
46 "upperarm_twist_01_l" 27
47 "cam_driver" -1
48 "BaseRoot" -1
49 "Base" 48
50 "rhand_ikTarget" 49
51 "Trigger" 49
52 "Mag" 49
53 "Bullets" 52
54 "Bolt" 49
55 "MagRelease" 49
56 "lhand_ikTarget" 49
end
skeleton
time 0
0 -0.00000100 8.45008800 -27.50902600 0.00000000 0.00000000 0.00003100
1 -0.00000200 0.00000000 0.00000000 1.57074300 -1.56713700 -1.57074300
2 4.25546800 -0.33518300 -0.00000200 0.00000000 0.00000000 -0.12484800
3 7.43124800 1.49647700 0.00000200 0.00000000 0.00000000 0.24545000
4 5.27847900 0.16554100 0.00000100 0.00000000 0.00000000 0.04851100
5 -0.91236200 -4.36641300 -2.34493400 1.97586400 1.15990900 -1.29878600
6 -6.21448200 -0.00000700 -0.00002700 -2.96743637 -0.07818144 1.63303644
7 11.94488200 0.00000000 0.00000100 -0.25442830 -0.34730649 1.66111471
8 10.62018100 0.00000200 0.00000000 0.79049044 -0.10576907 1.71448250
9 -4.75110600 -0.69449400 0.83057700 -0.21244700 0.13723700 0.56559200
10 -1.68806800 0.00004600 -0.00003200 0.01476400 -0.01983500 0.80019500
11 -1.33614000 0.00005700 -0.00001200 0.02599100 -0.00450100 0.72485300
12 -4.82049400 -0.50946000 -0.22475900 -0.33666500 0.06009700 1.41259200
13 -1.82699200 -0.00006400 0.00000600 -0.00131800 0.04043600 1.24234300
14 -1.43657300 0.00000600 0.00000200 -0.04286600 -0.06491600 0.49261200
15 -3.99235500 -0.89118800 -1.82790900 -0.41942700 0.35068000 1.51819800
16 -1.40591800 -0.00002500 -0.00000300 0.00712800 -0.02856300 0.62998400
17 -1.17535800 0.00012800 -0.00002000 0.06062700 0.03058100 1.00743600
18 -4.52675100 -0.69057500 -1.12074400 -0.43113200 0.21594300 1.61193500
19 -1.74403800 0.00003300 -0.00000800 -0.02031700 -0.02143900 1.17042900
20 -1.36877100 0.00002500 0.00000200 0.02081800 0.04817500 0.30338500
21 -1.84032200 -1.13761000 1.04590200 2.22706100 0.43026100 0.92075000
22 -1.52345300 0.00003200 0.00003100 0.06200100 0.16249200 0.46746700
23 -1.59928500 0.00000400 0.00001600 0.02989500 -0.03079900 0.78129700
24 5.58312500 0.11572600 0.29499900 2.23698600 -0.06403800 3.11154600
25 0.19684700 -0.00000100 0.00000300 2.79340689 -0.00076261 -3.14137426
26 -3.20169700 -17.87211600 -1.70151700 1.97586200 1.15990900 1.84280300
27 6.21448500 0.00000600 0.00002000 -0.44063125 0.34651882 -1.83835617
28 11.94488500 -0.00002900 -0.00019400 -0.09264155 -0.36147807 -1.35407319
29 10.62016600 0.00000200 0.00001000 -2.13848413 -0.16858431 0.46592723
30 4.75115600 0.69437600 -0.83047300 -0.06963100 -0.18956200 1.20293400
31 1.68806500 -0.00002600 0.00000200 -0.00178600 -0.02466300 1.51256600
32 1.33615100 -0.00005100 -0.00000900 0.00162500 -0.03868900 0.32920800
33 4.82051300 0.50934000 0.22486500 -0.15643200 -0.01406900 1.57957000
34 1.82699600 0.00006600 0.00000800 -0.00186700 0.04038300 1.22708400
35 1.43657700 -0.00001000 0.00000700 0.00808100 -0.01279400 0.27447100
36 3.99235300 0.89108700 1.82799400 -0.26823800 0.10724000 1.40713400
37 1.40591800 0.00002100 -0.00000700 -0.01645600 -0.02445100 1.46689000
38 1.17536900 -0.00013100 0.00000200 0.02096900 0.12149700 0.12659500
39 4.52675600 0.69046000 1.12084200 -0.15292900 0.08798300 1.61269300
40 1.74404100 -0.00003100 -0.00000200 -0.02493600 -0.01580100 1.41848500
41 1.36876300 -0.00003100 -0.00001700 -0.24626800 0.17807500 0.18497200
42 1.87485500 0.93508100 -0.99913000 2.44808600 0.23419600 1.08300800
43 1.45054400 -0.06019000 0.09121800 0.04429500 0.17016300 0.35957300
44 1.59928100 -0.00000200 0.00000900 0.08169400 -0.01721100 1.03306000
45 5.51180600 -0.00000200 0.00000600 -0.66744800 0.00000000 0.00000000
46 0.19685000 0.00000300 -0.00000200 -0.34822500 0.00001500 -0.00000200
47 0.00000000 1.00000000 0.00000000 0.00000000 0.00000000 -1.57079600
48 -3.47734200 3.27852200 -2.72292100 0.00000000 0.00000000 -3.14156200
49 -3.18013317 22.05708317 -0.10221517 -0.03834049 -0.02707284 -1.57614224
50 11.97563400 0.60075400 -3.41184400 0.21793700 1.03451400 1.57217400
51 5.68842700 -0.01178200 -0.37496100 0.00000000 0.00000000 0.00000000
52 -5.79591200 -0.00336600 0.65722100 0.00000000 0.00000000 0.00000000
53 0.12109200 0.00000000 -0.11972000 0.00000000 0.00000000 0.00000000
54 -0.81526600 0.44891200 1.20490200 0.00000000 0.00000000 0.00000000
55 -4.54927400 -0.05422000 -0.66098900 0.00000000 0.00000000 0.00000000
56 -4.11342000 -2.62846000 -4.75590600 2.73160200 -0.06448900 -1.98897400
time 1
0 -0.00000100 8.45008800 -27.50902600 0.00000000 0.00000000 0.00003100
1 -0.00000200 0.00000000 0.00000000 1.57074300 -1.56713700 -1.57074300
2 4.25546800 -0.33518300 -0.00000200 0.00000000 0.00000000 -0.12484800
3 7.43124800 1.49647700 0.00000200 0.00000000 0.00000000 0.24545000
4 5.27847900 0.16554100 0.00000100 0.00000000 0.00000000 0.04851100
5 -0.92012200 -4.49783000 -2.13982200 1.97586400 1.15990900 -1.29878600
6 -6.21448200 -0.00000700 -0.00002700 -2.97032923 -0.09249559 1.63842752
7 11.94488200 0.00000000 0.00000100 -0.26210745 -0.34605028 1.68354049
8 10.62018100 0.00000200 0.00000000 0.77592253 -0.09659719 1.72806518
9 -4.75110600 -0.69449400 0.83057700 -0.21244700 0.13723700 0.56559200
10 -1.68806800 0.00004600 -0.00003200 0.01476400 -0.01983500 0.80019500
11 -1.33614000 0.00005700 -0.00001200 0.02599100 -0.00450100 0.72485300
12 -4.82049400 -0.50946000 -0.22475900 -0.33666500 0.06009700 1.41259200
13 -1.82699200 -0.00006400 0.00000600 -0.00131800 0.04043600 1.24234300
14 -1.43657300 0.00000600 0.00000200 -0.04286600 -0.06491600 0.49261200
15 -3.99235500 -0.89118800 -1.82790900 -0.41942700 0.35068000 1.51819800
16 -1.40591800 -0.00002500 -0.00000300 0.00712800 -0.02856300 0.62998400
17 -1.17535800 0.00012800 -0.00002000 0.06062700 0.03058100 1.00743600
18 -4.52675100 -0.69057500 -1.12074400 -0.43113200 0.21594300 1.61193500
19 -1.74403800 0.00003300 -0.00000800 -0.02031700 -0.02143900 1.17042900
20 -1.36877100 0.00002500 0.00000200 0.02081800 0.04817500 0.30338500
21 -1.84032200 -1.13761000 1.04590200 2.22706100 0.43026100 0.92075000
22 -1.52345300 0.00003200 0.00003100 0.06200100 0.16249200 0.46746700
23 -1.59928500 0.00000400 0.00001600 0.02989500 -0.03079900 0.78129700
24 5.58312500 0.11572600 0.29499900 2.23698600 -0.06403800 3.11154600
25 0.19684700 -0.00000100 0.00000300 2.79340689 -0.00076261 -3.14137426
26 -3.16898700 -17.78007100 -1.66515400 1.97586200 1.15990900 1.84280300
27 6.21448500 0.00000600 0.00002000 -0.45513964 0.34394934 -1.83518195
28 11.94488500 -0.00002900 -0.00019400 -0.08128378 -0.36102007 -1.34970527
29 10.62016600 0.00000200 0.00001000 -2.12287051 -0.16561323 0.45661781
30 4.75115600 0.69437600 -0.83047300 -0.06963100 -0.18956200 1.20293400
31 1.68806500 -0.00002600 0.00000200 -0.00178600 -0.02466300 1.51256600
32 1.33615100 -0.00005100 -0.00000900 0.00162500 -0.03868900 0.32920800
33 4.82051300 0.50934000 0.22486500 -0.15643200 -0.01406900 1.57957000
34 1.82699600 0.00006600 0.00000800 -0.00186700 0.04038300 1.22708400
35 1.43657700 -0.00001000 0.00000700 0.00808100 -0.01279400 0.27447100
36 3.99235300 0.89108700 1.82799400 -0.26823800 0.10724000 1.40713400
37 1.40591800 0.00002100 -0.00000700 -0.01645600 -0.02445100 1.46689000
38 1.17536900 -0.00013100 0.00000200 0.02096900 0.12149700 0.12659500
39 4.52675600 0.69046000 1.12084200 -0.15292900 0.08798300 1.61269300
40 1.74404100 -0.00003100 -0.00000200 -0.02493600 -0.01580100 1.41848500
41 1.36876300 -0.00003100 -0.00001700 -0.24626800 0.17807500 0.18497200
42 1.87485500 0.93508100 -0.99913000 2.44808600 0.23419600 1.08300800
43 1.45054400 -0.06019000 0.09121800 0.04429500 0.17016300 0.35957300
44 1.59928100 -0.00000200 0.00000900 0.08169400 -0.01721100 1.03306000
45 5.51180600 -0.00000200 0.00000600 -0.66744800 0.00000000 0.00000000
46 0.19685000 0.00000300 -0.00000200 -0.34822500 0.00001500 -0.00000200
47 0.00000000 1.00000000 0.00000000 0.00000000 0.00000000 -1.57079600
48 -3.47734200 3.27852200 -2.72292100 0.00000000 0.00000000 -3.14156200
49 -3.22505567 22.00536017 -0.07739983 -0.04422625 -0.01053374 -1.55552254
50 11.97563400 0.60075400 -3.41184400 0.21793700 1.03451400 1.57217400
51 5.68842700 -0.01178200 -0.37496100 0.00000000 0.00000000 0.00000000
52 -5.79591200 -0.00336600 0.65722100 0.00000000 0.00000000 0.00000000
53 0.12109200 0.00000000 -0.11972000 0.00000000 0.00000000 0.00000000
54 -0.81526600 0.44891200 1.20490200 0.00000000 0.00000000 0.00000000
55 -4.54927400 -0.05422000 -0.66098900 0.00000000 0.00000000 0.00000000
56 -4.11342000 -2.62846000 -4.75590600 2.73160200 -0.06448900 -1.98897400
time 2
0 -0.00000100 8.45008800 -27.50902600 0.00000000 0.00000000 0.00003100
1 -0.00000200 0.00000000 0.00000000 1.57074300 -1.56713700 -1.57074300
2 4.25546800 -0.33518300 -0.00000200 0.00000000 0.00000000 -0.12484800
3 7.43124800 1.49647700 0.00000200 0.00000000 0.00000000 0.24545000
4 5.27847900 0.16554100 0.00000100 0.00000000 0.00000000 0.04851100
5 -0.94157100 -4.86116300 -1.57274500 1.97586400 1.15990900 -1.29878600
6 -6.21448200 -0.00000700 -0.00002700 -2.97784608 -0.13267976 1.66038332
7 11.94488200 0.00000000 0.00000100 -0.28071185 -0.34099994 1.73848044
8 10.62018100 0.00000200 0.00000000 0.77244739 -0.06358215 1.79524440
9 -4.75110600 -0.69449400 0.83057700 -0.21244700 0.13723700 0.56559200
10 -1.68806800 0.00004600 -0.00003200 0.01476400 -0.01983500 0.80019500
11 -1.33614000 0.00005700 -0.00001200 0.02599100 -0.00450100 0.72485300
12 -4.82049400 -0.50946000 -0.22475900 -0.33666500 0.06009700 1.41259200
13 -1.82699200 -0.00006400 0.00000600 -0.00131800 0.04043600 1.24234300
14 -1.43657300 0.00000600 0.00000200 -0.04286600 -0.06491600 0.49261200
15 -3.99235500 -0.89118800 -1.82790900 -0.41942700 0.35068000 1.51819800
16 -1.40591800 -0.00002500 -0.00000300 0.00712800 -0.02856300 0.62998400
17 -1.17535800 0.00012800 -0.00002000 0.06062700 0.03058100 1.00743600
18 -4.52675100 -0.69057500 -1.12074400 -0.43113200 0.21594300 1.61193500
19 -1.74403800 0.00003300 -0.00000800 -0.02031700 -0.02143900 1.17042900
20 -1.36877100 0.00002500 0.00000200 0.02081800 0.04817500 0.30338500
21 -1.84032200 -1.13761000 1.04590200 2.22706100 0.43026100 0.92075000
22 -1.52345300 0.00003200 0.00003100 0.06200100 0.16249200 0.46746700
23 -1.59928500 0.00000400 0.00001600 0.02989500 -0.03079900 0.78129700
24 5.58312500 0.11572600 0.29499900 2.23698600 -0.06403800 3.11154600
25 0.19684700 -0.00000100 0.00000300 2.79340689 -0.00076261 -3.14137426
26 -3.07856000 -17.52560000 -1.56461600 1.97586200 1.15990900 1.84280300
27 6.21448500 0.00000600 0.00002000 -0.48355909 0.33656008 -1.83077352
28 11.94488500 -0.00002900 -0.00019400 -0.05067459 -0.35906081 -1.33014044
29 10.62016600 0.00000200 0.00001000 -2.11979756 -0.19725319 0.42364307
30 4.75115600 0.69437600 -0.83047300 -0.06963100 -0.18956200 1.20293400
31 1.68806500 -0.00002600 0.00000200 -0.00178600 -0.02466300 1.51256600
32 1.33615100 -0.00005100 -0.00000900 0.00162500 -0.03868900 0.32920800
33 4.82051300 0.50934000 0.22486500 -0.15643200 -0.01406900 1.57957000
34 1.82699600 0.00006600 0.00000800 -0.00186700 0.04038300 1.22708400
35 1.43657700 -0.00001000 0.00000700 0.00808100 -0.01279400 0.27447100
36 3.99235300 0.89108700 1.82799400 -0.26823800 0.10724000 1.40713400
37 1.40591800 0.00002100 -0.00000700 -0.01645600 -0.02445100 1.46689000
38 1.17536900 -0.00013100 0.00000200 0.02096900 0.12149700 0.12659500
39 4.52675600 0.69046000 1.12084200 -0.15292900 0.08798300 1.61269300
40 1.74404100 -0.00003100 -0.00000200 -0.02493600 -0.01580100 1.41848500
41 1.36876300 -0.00003100 -0.00001700 -0.24626800 0.17807500 0.18497200
42 1.87485500 0.93508100 -0.99913000 2.44808600 0.23419600 1.08300800
43 1.45054400 -0.06019000 0.09121800 0.04429500 0.17016300 0.35957300
44 1.59928100 -0.00000200 0.00000900 0.08169400 -0.01721100 1.03306000
45 5.51180600 -0.00000200 0.00000600 -0.66744800 0.00000000 0.00000000
46 0.19685000 0.00000300 -0.00000200 -0.34822500 0.00001500 -0.00000200
47 0.00000000 1.00000000 0.00000000 0.00000000 0.00000000 -1.57079600
48 -3.47734200 3.27852200 -2.72292100 0.00000000 0.00000000 -3.14156200
49 -3.37738117 21.86899217 0.00241400 -0.01634936 0.03969184 -1.49756958
50 11.97563400 0.60075400 -3.41184400 0.21793700 1.03451400 1.57217400
51 5.68842700 -0.01178200 -0.37496100 0.00000000 0.00000000 0.00000000
52 -5.79591200 -0.00336600 0.65722100 0.00000000 0.00000000 0.00000000
53 0.12109200 0.00000000 -0.11972000 0.00000000 0.00000000 0.00000000
54 -0.81526600 0.44891200 1.20490200 0.00000000 0.00000000 0.00000000
55 -4.54927400 -0.05422000 -0.66098900 0.00000000 0.00000000 0.00000000
56 -4.11342000 -2.62846000 -4.75590600 2.73160200 -0.06448900 -1.98897400
time 3
0 -0.00000100 8.45008800 -27.50902600 0.00000000 0.00000000 0.00003100
1 -0.00000200 0.00000000 0.00000000 1.57074300 -1.56713700 -1.57074300
2 4.25546800 -0.33518300 -0.00000200 0.00000000 0.00000000 -0.12484800
3 7.43124800 1.49647700 0.00000200 0.00000000 0.00000000 0.24545000
4 5.27847900 0.16554100 0.00000100 0.00000000 0.00000000 0.04851100
5 -0.97397300 -5.41002600 -0.71609700 1.97586400 1.15990900 -1.29878600
6 -6.21448200 -0.00000700 -0.00002700 -2.99268355 -0.18831509 1.69347463
7 11.94488200 0.00000000 0.00000100 -0.30059505 -0.33348662 1.79760206
8 10.62018100 0.00000200 0.00000000 0.78367172 -0.01601910 1.92011577
9 -4.75110600 -0.69449400 0.83057700 -0.21244700 0.13723700 0.56559200
10 -1.68806800 0.00004600 -0.00003200 0.01476400 -0.01983500 0.80019500
11 -1.33614000 0.00005700 -0.00001200 0.02599100 -0.00450100 0.72485300
12 -4.82049400 -0.50946000 -0.22475900 -0.33666500 0.06009700 1.41259200
13 -1.82699200 -0.00006400 0.00000600 -0.00131800 0.04043600 1.24234300
14 -1.43657300 0.00000600 0.00000200 -0.04286600 -0.06491600 0.49261200
15 -3.99235500 -0.89118800 -1.82790900 -0.41942700 0.35068000 1.51819800
16 -1.40591800 -0.00002500 -0.00000300 0.00712800 -0.02856300 0.62998400
17 -1.17535800 0.00012800 -0.00002000 0.06062700 0.03058100 1.00743600
18 -4.52675100 -0.69057500 -1.12074400 -0.43113200 0.21594300 1.61193500
19 -1.74403800 0.00003300 -0.00000800 -0.02031700 -0.02143900 1.17042900
20 -1.36877100 0.00002500 0.00000200 0.02081800 0.04817500 0.30338500
21 -1.84032200 -1.13761000 1.04590200 2.22706100 0.43026100 0.92075000
22 -1.52345300 0.00003200 0.00003100 0.06200100 0.16249200 0.46746700
23 -1.59928500 0.00000400 0.00001600 0.02989500 -0.03079900 0.78129700
24 5.58312500 0.11572600 0.29499900 2.23698600 -0.06403800 3.11154600
25 0.19684700 -0.00000100 0.00000300 2.79340689 -0.00076261 -3.14137426
26 -2.94195100 -17.14118600 -1.41273800 1.97586200 1.15990900 1.84280300
27 6.21448500 0.00000600 0.00002000 -0.51952151 0.32801492 -1.82349084
28 11.94488500 -0.00002900 -0.00019400 0.00090493 -0.35660773 -1.30096666
29 10.62016600 0.00000200 0.00001000 -2.13542515 -0.26088628 0.37652013
30 4.75115600 0.69437600 -0.83047300 -0.06963100 -0.18956200 1.20293400
31 1.68806500 -0.00002600 0.00000200 -0.00178600 -0.02466300 1.51256600
32 1.33615100 -0.00005100 -0.00000900 0.00162500 -0.03868900 0.32920800
33 4.82051300 0.50934000 0.22486500 -0.15643200 -0.01406900 1.57957000
34 1.82699600 0.00006600 0.00000800 -0.00186700 0.04038300 1.22708400
35 1.43657700 -0.00001000 0.00000700 0.00808100 -0.01279400 0.27447100
36 3.99235300 0.89108700 1.82799400 -0.26823800 0.10724000 1.40713400
37 1.40591800 0.00002100 -0.00000700 -0.01645600 -0.02445100 1.46689000
38 1.17536900 -0.00013100 0.00000200 0.02096900 0.12149700 0.12659500
39 4.52675600 0.69046000 1.12084200 -0.15292900 0.08798300 1.61269300
40 1.74404100 -0.00003100 -0.00000200 -0.02493600 -0.01580100 1.41848500
41 1.36876300 -0.00003100 -0.00001700 -0.24626800 0.17807500 0.18497200
42 1.87485500 0.93508100 -0.99913000 2.44808600 0.23419600 1.08300800
43 1.45054400 -0.06019000 0.09121800 0.04429500 0.17016300 0.35957300
44 1.59928100 -0.00000200 0.00000900 0.08169400 -0.01721100 1.03306000
45 5.51180600 -0.00000200 0.00000600 -0.66744800 0.00000000 0.00000000
46 0.19685000 0.00000300 -0.00000200 -0.34822500 0.00001500 -0.00000200
47 0.00000000 1.00000000 0.00000000 0.00000000 0.00000000 -1.57079600
48 -3.47734200 3.27852200 -2.72292100 0.00000000 0.00000000 -3.14156200
49 -3.61779567 21.67618617 0.07854133 0.04583438 0.11040240 -1.40524250
50 11.97563400 0.60075400 -3.41184400 0.21793700 1.03451400 1.57217400
51 5.68842700 -0.01178200 -0.37496100 0.00000000 0.00000000 0.00000000
52 -5.79591200 -0.00336600 0.65722100 0.00000000 0.00000000 0.00000000
53 0.12109200 0.00000000 -0.11972000 0.00000000 0.00000000 0.00000000
54 -0.81526600 0.44891200 1.20490200 0.00000000 0.00000000 0.00000000
55 -4.54927400 -0.05422000 -0.66098900 0.00000000 0.00000000 0.00000000
56 -4.11342000 -2.62846000 -4.75590600 2.73160200 -0.06448900 -1.98897400
time 4
0 -0.00000100 8.45008800 -27.50902600 0.00000000 0.00000000 0.00003100
1 -0.00000200 0.00000000 0.00000000 1.57074300 -1.56713700 -1.57074300
2 4.25546800 -0.33518300 -0.00000200 0.00000000 0.00000000 -0.12484800
3 7.43124800 1.49647700 0.00000200 0.00000000 0.00000000 0.24545000
4 5.27847900 0.16554100 0.00000100 0.00000000 0.00000000 0.04851100
5 -1.01459000 -6.09803700 0.35773000 1.97586400 1.15990900 -1.29878600
6 -6.21448200 -0.00000700 -0.00002700 -3.01318604 -0.24515934 1.72398642
7 11.94488200 0.00000000 0.00000100 -0.31232061 -0.32702770 1.83294116
8 10.62018100 0.00000200 0.00000000 0.80501917 0.03437056 2.09366387
9 -4.75110600 -0.69449400 0.83057700 -0.21244700 0.13723700 0.56559200
10 -1.68806800 0.00004600 -0.00003200 0.01476400 -0.01983500 0.80019500
11 -1.33614000 0.00005700 -0.00001200 0.02599100 -0.00450100 0.72485300
12 -4.82049400 -0.50946000 -0.22475900 -0.33666500 0.06009700 1.41259200
13 -1.82699200 -0.00006400 0.00000600 -0.00131800 0.04043600 1.24234300
14 -1.43657300 0.00000600 0.00000200 -0.04286600 -0.06491600 0.49261200
15 -3.99235500 -0.89118800 -1.82790900 -0.41942700 0.35068000 1.51819800
16 -1.40591800 -0.00002500 -0.00000300 0.00712800 -0.02856300 0.62998400
17 -1.17535800 0.00012800 -0.00002000 0.06062700 0.03058100 1.00743600
18 -4.52675100 -0.69057500 -1.12074400 -0.43113200 0.21594300 1.61193500
19 -1.74403800 0.00003300 -0.00000800 -0.02031700 -0.02143900 1.17042900
20 -1.36877100 0.00002500 0.00000200 0.02081800 0.04817500 0.30338500
21 -1.84032200 -1.13761000 1.04590200 2.22706100 0.43026100 0.92075000
22 -1.52345300 0.00003200 0.00003100 0.06200100 0.16249200 0.46746700
23 -1.59928500 0.00000400 0.00001600 0.02989500 -0.03079900 0.78129700
24 5.58312500 0.11572600 0.29499900 2.23698600 -0.06403800 3.11154600
25 0.19684700 -0.00000100 0.00000300 2.79340689 -0.00076261 -3.14137426
26 -2.77071400 -16.65931300 -1.22235800 1.97586200 1.15990900 1.84280300
27 6.21448500 0.00000600 0.00002000 -0.56454608 0.32069419 -1.81172932
28 11.94488500 -0.00002900 -0.00019400 0.07706225 -0.35476045 -1.26831467
29 10.62016600 0.00000200 0.00001000 -2.16649053 -0.33953283 0.32865550
30 4.75115600 0.69437600 -0.83047300 -0.06963100 -0.18956200 1.20293400
31 1.68806500 -0.00002600 0.00000200 -0.00178600 -0.02466300 1.51256600
32 1.33615100 -0.00005100 -0.00000900 0.00162500 -0.03868900 0.32920800
33 4.82051300 0.50934000 0.22486500 -0.15643200 -0.01406900 1.57957000
34 1.82699600 0.00006600 0.00000800 -0.00186700 0.04038300 1.22708400
35 1.43657700 -0.00001000 0.00000700 0.00808100 -0.01279400 0.27447100
36 3.99235300 0.89108700 1.82799400 -0.26823800 0.10724000 1.40713400
37 1.40591800 0.00002100 -0.00000700 -0.01645600 -0.02445100 1.46689000
38 1.17536900 -0.00013100 0.00000200 0.02096900 0.12149700 0.12659500
39 4.52675600 0.69046000 1.12084200 -0.15292900 0.08798300 1.61269300
40 1.74404100 -0.00003100 -0.00000200 -0.02493600 -0.01580100 1.41848500
41 1.36876300 -0.00003100 -0.00001700 -0.24626800 0.17807500 0.18497200
42 1.87485500 0.93508100 -0.99913000 2.44808600 0.23419600 1.08300800
43 1.45054400 -0.06019000 0.09121800 0.04429500 0.17016300 0.35957300
44 1.59928100 -0.00000200 0.00000900 0.08169400 -0.01721100 1.03306000
45 5.51180600 -0.00000200 0.00000600 -0.66744800 0.00000000 0.00000000
46 0.19685000 0.00000300 -0.00000200 -0.34822500 0.00001500 -0.00000200
47 0.00000000 1.00000000 0.00000000 0.00000000 0.00000000 -1.57079600
48 -3.47734200 3.27852200 -2.72292100 0.00000000 0.00000000 -3.14156200
49 -3.94561150 21.45515517 0.13358667 0.13083868 0.18612493 -1.28213179
50 11.97563400 0.60075400 -3.41184400 0.21793700 1.03451400 1.57217400
51 5.68842700 -0.01178200 -0.37496100 0.00000000 0.00000000 0.00000000
52 -5.79591200 -0.00336600 0.65722100 0.00000000 0.00000000 0.00000000
53 0.12109200 0.00000000 -0.11972000 0.00000000 0.00000000 0.00000000
54 -0.81526600 0.44891200 1.20490200 0.00000000 0.00000000 0.00000000
55 -4.54927400 -0.05422000 -0.66098900 0.00000000 0.00000000 0.00000000
56 -4.11342000 -2.62846000 -4.75590600 2.73160200 -0.06448900 -1.98897400
time 5
0 -0.00000100 8.45008800 -27.50902600 0.00000000 0.00000000 0.00003100
1 -0.00000200 0.00000000 0.00000000 1.57074300 -1.56713700 -1.57074300
2 4.25546800 -0.33518300 -0.00000200 0.00000000 0.00000000 -0.12484800
3 7.43124800 1.49647700 0.00000200 0.00000000 0.00000000 0.24545000
4 5.27847900 0.16554100 0.00000100 0.00000000 0.00000000 0.04851100
5 -1.06068400 -6.87881400 1.57634100 1.97586400 1.15990900 -1.29878600
6 -6.21448200 -0.00000700 -0.00002700 -3.02758462 -0.29027159 1.73120329
7 11.94488200 0.00000000 0.00000100 -0.31231151 -0.32389211 1.83267006
8 10.62018100 0.00000200 0.00000000 0.83481919 0.06837596 2.28429748
9 -4.75110600 -0.69449400 0.83057700 -0.21244700 0.13723700 0.56559200
10 -1.68806800 0.00004600 -0.00003200 0.01476400 -0.01983500 0.80019500
11 -1.33614000 0.00005700 -0.00001200 0.02599100 -0.00450100 0.72485300
12 -4.82049400 -0.50946000 -0.22475900 -0.33666500 0.06009700 1.41259200
13 -1.82699200 -0.00006400 0.00000600 -0.00131800 0.04043600 1.24234300
14 -1.43657300 0.00000600 0.00000200 -0.04286600 -0.06491600 0.49261200
15 -3.99235500 -0.89118800 -1.82790900 -0.41942700 0.35068000 1.51819800
16 -1.40591800 -0.00002500 -0.00000300 0.00712800 -0.02856300 0.62998400
17 -1.17535800 0.00012800 -0.00002000 0.06062700 0.03058100 1.00743600
18 -4.52675100 -0.69057500 -1.12074400 -0.43113200 0.21594300 1.61193500
19 -1.74403800 0.00003300 -0.00000800 -0.02031700 -0.02143900 1.17042900
20 -1.36877100 0.00002500 0.00000200 0.02081800 0.04817500 0.30338500
21 -1.84032200 -1.13761000 1.04590200 2.22706100 0.43026100 0.92075000
22 -1.52345300 0.00003200 0.00003100 0.06200100 0.16249200 0.46746700
23 -1.59928500 0.00000400 0.00001600 0.02989500 -0.03079900 0.78129700
24 5.58312500 0.11572600 0.29499900 2.23698600 -0.06403800 3.11154600
25 0.19684700 -0.00000100 0.00000300 2.79340689 -0.00076261 -3.14137426
26 -2.57638500 -16.11246900 -1.00630700 1.97586200 1.15990900 1.84280300
27 6.21448500 0.00000600 0.00002000 -0.61895427 0.31923522 -1.79343528
28 11.94488500 -0.00002900 -0.00019400 0.18349169 -0.35486677 -1.24266060
29 10.62016600 0.00000200 0.00001000 -2.21603434 -0.41265143 0.30094652
30 4.75115600 0.69437600 -0.83047300 -0.06963100 -0.18956200 1.20293400
31 1.68806500 -0.00002600 0.00000200 -0.00178600 -0.02466300 1.51256600
32 1.33615100 -0.00005100 -0.00000900 0.00162500 -0.03868900 0.32920800
33 4.82051300 0.50934000 0.22486500 -0.15643200 -0.01406900 1.57957000
34 1.82699600 0.00006600 0.00000800 -0.00186700 0.04038300 1.22708400
35 1.43657700 -0.00001000 0.00000700 0.00808100 -0.01279400 0.27447100
36 3.99235300 0.89108700 1.82799400 -0.26823800 0.10724000 1.40713400
37 1.40591800 0.00002100 -0.00000700 -0.01645600 -0.02445100 1.46689000
38 1.17536900 -0.00013100 0.00000200 0.02096900 0.12149700 0.12659500
39 4.52675600 0.69046000 1.12084200 -0.15292900 0.08798300 1.61269300
40 1.74404100 -0.00003100 -0.00000200 -0.02493600 -0.01580100 1.41848500
41 1.36876300 -0.00003100 -0.00001700 -0.24626800 0.17807500 0.18497200
42 1.87485500 0.93508100 -0.99913000 2.44808600 0.23419600 1.08300800
43 1.45054400 -0.06019000 0.09121800 0.04429500 0.17016300 0.35957300
44 1.59928100 -0.00000200 0.00000900 0.08169400 -0.01721100 1.03306000
45 5.51180600 -0.00000200 0.00000600 -0.66744800 0.00000000 0.00000000
46 0.19685000 0.00000300 -0.00000200 -0.34822500 0.00001500 -0.00000200
47 0.00000000 1.00000000 0.00000000 0.00000000 0.00000000 -1.57079600
48 -3.47734200 3.27852200 -2.72292100 0.00000000 0.00000000 -3.14156200
49 -4.37151350 21.23410417 0.16512900 0.22341256 0.24667313 -1.13696845
50 11.97563400 0.60075400 -3.41184400 0.21793700 1.03451400 1.57217400
51 5.68842700 -0.01178200 -0.37496100 0.00000000 0.00000000 0.00000000
52 -5.79591200 -0.00336600 0.65722100 0.00000000 0.00000000 0.00000000
53 0.12109200 0.00000000 -0.11972000 0.00000000 0.00000000 0.00000000
54 -0.81526600 0.44891200 1.20490200 0.00000000 0.00000000 0.00000000
55 -4.54927400 -0.05422000 -0.66098900 0.00000000 0.00000000 0.00000000
56 -4.11342000 -2.62846000 -4.75590600 2.73160200 -0.06448900 -1.98897400
time 6
0 -0.00000100 8.45008800 -27.50902600 0.00000000 0.00000000 0.00003100
1 -0.00000200 0.00000000 0.00000000 1.57074300 -1.56713700 -1.57074300
2 4.25546800 -0.33518300 -0.00000200 0.00000000 0.00000000 -0.12484800
3 7.43124800 1.49647700 0.00000200 0.00000000 0.00000000 0.24545000
4 5.27847900 0.16554100 0.00000100 0.00000000 0.00000000 0.04851100
5 -1.10951600 -7.70597300 2.86734500 1.97586400 1.15990900 -1.29878600
6 -6.21448200 -0.00000700 -0.00002700 -3.03178192 -0.31929613 1.70302352
7 11.94488200 0.00000000 0.00000100 -0.30226878 -0.32286518 1.80266107
8 10.62018100 0.00000200 0.00000000 0.85909611 0.07988239 2.45500600
9 -4.75110600 -0.69449400 0.83057700 -0.21244700 0.13723700 0.56559200
10 -1.68806800 0.00004600 -0.00003200 0.01476400 -0.01983500 0.80019500
11 -1.33614000 0.00005700 -0.00001200 0.02599100 -0.00450100 0.72485300
12 -4.82049400 -0.50946000 -0.22475900 -0.33666500 0.06009700 1.41259200
13 -1.82699200 -0.00006400 0.00000600 -0.00131800 0.04043600 1.24234300
14 -1.43657300 0.00000600 0.00000200 -0.04286600 -0.06491600 0.49261200
15 -3.99235500 -0.89118800 -1.82790900 -0.41942700 0.35068000 1.51819800
16 -1.40591800 -0.00002500 -0.00000300 0.00712800 -0.02856300 0.62998400
17 -1.17535800 0.00012800 -0.00002000 0.06062700 0.03058100 1.00743600
18 -4.52675100 -0.69057500 -1.12074400 -0.43113200 0.21594300 1.61193500
19 -1.74403800 0.00003300 -0.00000800 -0.02031700 -0.02143900 1.17042900
20 -1.36877100 0.00002500 0.00000200 0.02081800 0.04817500 0.30338500
21 -1.84032200 -1.13761000 1.04590200 2.22706100 0.43026100 0.92075000
22 -1.52345300 0.00003200 0.00003100 0.06200100 0.16249200 0.46746700
23 -1.59928500 0.00000400 0.00001600 0.02989500 -0.03079900 0.78129700
24 5.58312500 0.11572600 0.29499900 2.23698600 -0.06403800 3.11154600
25 0.19684700 -0.00000100 0.00000300 2.79340689 -0.00076261 -3.14137426
26 -2.37051300 -15.53314200 -0.77742200 1.97586200 1.15990900 1.84280300
27 6.21448500 0.00000600 0.00002000 -0.68306603 0.32718639 -1.76883897
28 11.94488500 -0.00002900 -0.00019400 0.32359357 -0.35730487 -1.22949853
29 10.62016600 0.00000200 0.00001000 -2.28660306 -0.45912307 0.30321492
30 4.75115600 0.69437600 -0.83047300 -0.06963100 -0.18956200 1.20293400
31 1.68806500 -0.00002600 0.00000200 -0.00178600 -0.02466300 1.51256600
32 1.33615100 -0.00005100 -0.00000900 0.00162500 -0.03868900 0.32920800
33 4.82051300 0.50934000 0.22486500 -0.15643200 -0.01406900 1.57957000
34 1.82699600 0.00006600 0.00000800 -0.00186700 0.04038300 1.22708400
35 1.43657700 -0.00001000 0.00000700 0.00808100 -0.01279400 0.27447100
36 3.99235300 0.89108700 1.82799400 -0.26823800 0.10724000 1.40713400
37 1.40591800 0.00002100 -0.00000700 -0.01645600 -0.02445100 1.46689000
38 1.17536900 -0.00013100 0.00000200 0.02096900 0.12149700 0.12659500
39 4.52675600 0.69046000 1.12084200 -0.15292900 0.08798300 1.61269300
40 1.74404100 -0.00003100 -0.00000200 -0.02493600 -0.01580100 1.41848500
41 1.36876300 -0.00003100 -0.00001700 -0.24626800 0.17807500 0.18497200
42 1.87485500 0.93508100 -0.99913000 2.44808600 0.23419600 1.08300800
43 1.45054400 -0.06019000 0.09121800 0.04429500 0.17016300 0.35957300
44 1.59928100 -0.00000200 0.00000900 0.08169400 -0.01721100 1.03306000
45 5.51180600 -0.00000200 0.00000600 -0.66744800 0.00000000 0.00000000
46 0.19685000 0.00000300 -0.00000200 -0.34822500 0.00001500 -0.00000200
47 0.00000000 1.00000000 0.00000000 0.00000000 0.00000000 -1.57079600
48 -3.47734200 3.27852200 -2.72292100 0.00000000 0.00000000 -3.14156200
49 -4.90210433 21.04124517 0.15755717 0.30338032 0.28170201 -0.98474919
50 11.97563400 0.60075400 -3.41184400 0.21793700 1.03451400 1.57217400
51 5.68842700 -0.01178200 -0.37496100 0.00000000 0.00000000 0.00000000
52 -5.79591200 -0.00336600 0.65722100 0.00000000 0.00000000 0.00000000
53 0.12109200 0.00000000 -0.11972000 0.00000000 0.00000000 0.00000000
54 -0.81526600 0.44891200 1.20490200 0.00000000 0.00000000 0.00000000
55 -4.54927400 -0.05422000 -0.66098900 0.00000000 0.00000000 0.00000000
56 -4.11342000 -2.62846000 -4.75590600 2.73160200 -0.06448900 -1.98897400
time 7
0 -0.00000100 8.45008800 -27.50902600 0.00000000 0.00000000 0.00003100
1 -0.00000200 0.00000000 0.00000000 1.57074300 -1.56713700 -1.57074300
2 4.25546800 -0.33518300 -0.00000200 0.00000000 0.00000000 -0.12484800
3 7.43124800 1.49647700 0.00000200 0.00000000 0.00000000 0.24545000
4 5.27847900 0.16554100 0.00000100 0.00000000 0.00000000 0.04851100
5 -1.15834800 -8.53313200 4.15835000 1.97586400 1.15990900 -1.29878600
6 -6.21448200 -0.00000700 -0.00002700 -3.03180540 -0.33272150 1.64091088
7 11.94488200 0.00000000 0.00000100 -0.28614132 -0.32289942 1.75434683
8 10.62018100 0.00000200 0.00000000 0.86504188 0.07586335 2.57916092
9 -4.75110600 -0.69449400 0.83057700 -0.21244700 0.13723700 0.56559200
10 -1.68806800 0.00004600 -0.00003200 0.01476400 -0.01983500 0.80019500
11 -1.33614000 0.00005700 -0.00001200 0.02599100 -0.00450100 0.72485300
12 -4.82049400 -0.50946000 -0.22475900 -0.33666500 0.06009700 1.41259200
13 -1.82699200 -0.00006400 0.00000600 -0.00131800 0.04043600 1.24234300
14 -1.43657300 0.00000600 0.00000200 -0.04286600 -0.06491600 0.49261200
15 -3.99235500 -0.89118800 -1.82790900 -0.41942700 0.35068000 1.51819800
16 -1.40591800 -0.00002500 -0.00000300 0.00712800 -0.02856300 0.62998400
17 -1.17535800 0.00012800 -0.00002000 0.06062700 0.03058100 1.00743600
18 -4.52675100 -0.69057500 -1.12074400 -0.43113200 0.21594300 1.61193500
19 -1.74403800 0.00003300 -0.00000800 -0.02031700 -0.02143900 1.17042900
20 -1.36877100 0.00002500 0.00000200 0.02081800 0.04817500 0.30338500
21 -1.84032200 -1.13761000 1.04590200 2.22706100 0.43026100 0.92075000
22 -1.52345300 0.00003200 0.00003100 0.06200100 0.16249200 0.46746700
23 -1.59928500 0.00000400 0.00001600 0.02989500 -0.03079900 0.78129700
24 5.58312500 0.11572600 0.29499900 2.23698600 -0.06403800 3.11154600
25 0.19684700 -0.00000100 0.00000300 2.79340689 -0.00076261 -3.14137426
26 -2.16463900 -14.95381300 -0.54853800 1.97586200 1.15990900 1.84280300
27 6.21448500 0.00000600 0.00002000 -0.75658931 0.34380368 -1.74280664
28 11.94488500 -0.00002900 -0.00019400 0.49597051 -0.36230474 -1.22573255
29 10.62016600 0.00000200 0.00001000 -2.37705577 -0.46358669 0.32903001
30 4.75115600 0.69437600 -0.83047300 -0.06963100 -0.18956200 1.20293400
31 1.68806500 -0.00002600 0.00000200 -0.00178600 -0.02466300 1.51256600
32 1.33615100 -0.00005100 -0.00000900 0.00162500 -0.03868900 0.32920800
33 4.82051300 0.50934000 0.22486500 -0.15643200 -0.01406900 1.57957000
34 1.82699600 0.00006600 0.00000800 -0.00186700 0.04038300 1.22708400
35 1.43657700 -0.00001000 0.00000700 0.00808100 -0.01279400 0.27447100
36 3.99235300 0.89108700 1.82799400 -0.26823800 0.10724000 1.40713400
37 1.40591800 0.00002100 -0.00000700 -0.01645600 -0.02445100 1.46689000
38 1.17536900 -0.00013100 0.00000200 0.02096900 0.12149700 0.12659500
39 4.52675600 0.69046000 1.12084200 -0.15292900 0.08798300 1.61269300
40 1.74404100 -0.00003100 -0.00000200 -0.02493600 -0.01580100 1.41848500
41 1.36876300 -0.00003100 -0.00001700 -0.24626800 0.17807500 0.18497200
42 1.87485500 0.93508100 -0.99913000 2.44808600 0.23419600 1.08300800
43 1.45054400 -0.06019000 0.09121800 0.04429500 0.17016300 0.35957300
44 1.59928100 -0.00000200 0.00000900 0.08169400 -0.01721100 1.03306000
45 5.51180600 -0.00000200 0.00000600 -0.66744800 0.00000000 0.00000000
46 0.19685000 0.00000300 -0.00000200 -0.34822500 0.00001500 -0.00000200
47 0.00000000 1.00000000 0.00000000 0.00000000 0.00000000 -1.57079600
48 -3.47734200 3.27852200 -2.72292100 0.00000000 0.00000000 -3.14156200
49 -5.52763367 20.90478217 0.11137650 0.35389237 0.29085227 -0.84352092
50 11.97563400 0.60075400 -3.41184400 0.21793700 1.03451400 1.57217400
51 5.68842700 -0.01178200 -0.37496100 0.00000000 0.00000000 0.00000000
52 -5.79591200 -0.00336600 0.65722100 0.00000000 0.00000000 0.00000000
53 0.12109200 0.00000000 -0.11972000 0.00000000 0.00000000 0.00000000
54 -0.81526600 0.44891200 1.20490200 0.00000000 0.00000000 0.00000000
55 -4.54927400 -0.05422000 -0.66098900 0.00000000 0.00000000 0.00000000
56 -4.11342000 -2.62846000 -4.75590600 2.73160200 -0.06448900 -1.98897400
time 8
0 -0.00000100 8.45008800 -27.50902600 0.00000000 0.00000000 0.00003100
1 -0.00000200 0.00000000 0.00000000 1.57074300 -1.56713700 -1.57074300
2 4.25546800 -0.33518300 -0.00000200 0.00000000 0.00000000 -0.12484800
3 7.43124800 1.49647700 0.00000200 0.00000000 0.00000000 0.24545000
4 5.27847900 0.16554100 0.00000100 0.00000000 0.00000000 0.04851100
5 -1.20444200 -9.31391000 5.37696200 1.97586400 1.15990900 -1.29878600
6 -6.21448200 -0.00000700 -0.00002700 -3.04167519 -0.33236171 1.55756266
7 11.94488200 0.00000000 0.00000100 -0.26534386 -0.32287821 1.69281072
8 10.62018100 0.00000200 0.00000000 0.85407454 0.07836722 2.65956958
9 -4.75110600 -0.69449400 0.83057700 -0.21244700 0.13723700 0.56559200
10 -1.68806800 0.00004600 -0.00003200 0.01476400 -0.01983500 0.80019500
11 -1.33614000 0.00005700 -0.00001200 0.02599100 -0.00450100 0.72485300
12 -4.82049400 -0.50946000 -0.22475900 -0.33666500 0.06009700 1.41259200
13 -1.82699200 -0.00006400 0.00000600 -0.00131800 0.04043600 1.24234300
14 -1.43657300 0.00000600 0.00000200 -0.04286600 -0.06491600 0.49261200
15 -3.99235500 -0.89118800 -1.82790900 -0.41942700 0.35068000 1.51819800
16 -1.40591800 -0.00002500 -0.00000300 0.00712800 -0.02856300 0.62998400
17 -1.17535800 0.00012800 -0.00002000 0.06062700 0.03058100 1.00743600
18 -4.52675100 -0.69057500 -1.12074400 -0.43113200 0.21594300 1.61193500
19 -1.74403800 0.00003300 -0.00000800 -0.02031700 -0.02143900 1.17042900
20 -1.36877100 0.00002500 0.00000200 0.02081800 0.04817500 0.30338500
21 -1.84032200 -1.13761000 1.04590200 2.22706100 0.43026100 0.92075000
22 -1.52345300 0.00003200 0.00003100 0.06200100 0.16249200 0.46746700
23 -1.59928500 0.00000400 0.00001600 0.02989500 -0.03079900 0.78129700
24 5.58312500 0.11572600 0.29499900 2.23698600 -0.06403800 3.11154600
25 0.19684700 -0.00000100 0.00000300 2.79340689 -0.00076261 -3.14137426
26 -1.97031100 -14.40696900 -0.33248800 1.97586200 1.15990900 1.84280300
27 6.21448500 0.00000600 0.00002000 -0.83898651 0.36442329 -1.72117049
28 11.94488500 -0.00002900 -0.00019400 0.69070003 -0.36858566 -1.21998065
29 10.62016600 0.00000200 0.00001000 -2.48896406 -0.43595866 0.35608605
30 4.75115600 0.69437600 -0.83047300 -0.06963100 -0.18956200 1.20293400
31 1.68806500 -0.00002600 0.00000200 -0.00178600 -0.02466300 1.51256600
32 1.33615100 -0.00005100 -0.00000900 0.00162500 -0.03868900 0.32920800
33 4.82051300 0.50934000 0.22486500 -0.15643200 -0.01406900 1.57957000
34 1.82699600 0.00006600 0.00000800 -0.00186700 0.04038300 1.22708400
35 1.43657700 -0.00001000 0.00000700 0.00808100 -0.01279400 0.27447100
36 3.99235300 0.89108700 1.82799400 -0.26823800 0.10724000 1.40713400
37 1.40591800 0.00002100 -0.00000700 -0.01645600 -0.02445100 1.46689000
38 1.17536900 -0.00013100 0.00000200 0.02096900 0.12149700 0.12659500
39 4.52675600 0.69046000 1.12084200 -0.15292900 0.08798300 1.61269300
40 1.74404100 -0.00003100 -0.00000200 -0.02493600 -0.01580100 1.41848500
41 1.36876300 -0.00003100 -0.00001700 -0.24626800 0.17807500 0.18497200
42 1.87485500 0.93508100 -0.99913000 2.44808600 0.23419600 1.08300800
43 1.45054400 -0.06019000 0.09121800 0.04429500 0.17016300 0.35957300
44 1.59928100 -0.00000200 0.00000900 0.08169400 -0.01721100 1.03306000
45 5.51180600 -0.00000200 0.00000600 -0.66744800 0.00000000 0.00000000
46 0.19685000 0.00000300 -0.00000200 -0.34822500 0.00001500 -0.00000200
47 0.00000000 1.00000000 0.00000000 0.00000000 0.00000000 -1.57079600
48 -3.47734200 3.27852200 -2.72292100 0.00000000 0.00000000 -3.14156200
49 -6.26177767 20.81776617 -0.00287800 0.38146122 0.28504078 -0.72400253
50 11.97563400 0.60075400 -3.41184400 0.21793700 1.03451400 1.57217400
51 5.68842700 -0.01178200 -0.37496100 0.00000000 0.00000000 0.00000000
52 -5.79591200 -0.00336600 0.65722100 0.00000000 0.00000000 0.00000000
53 0.12109200 0.00000000 -0.11972000 0.00000000 0.00000000 0.00000000
54 -0.81526600 0.44891200 1.20490200 0.00000000 0.00000000 0.00000000
55 -4.54927400 -0.05422000 -0.66098900 0.00000000 0.00000000 0.00000000
56 -4.11342000 -2.62846000 -4.75590600 2.73160200 -0.06448900 -1.98897400
time 9
0 -0.00000100 8.45008800 -27.50902600 0.00000000 0.00000000 0.00003100
1 -0.00000200 0.00000000 0.00000000 1.57074300 -1.56713700 -1.57074300
2 4.25546800 -0.33518300 -0.00000200 0.00000000 0.00000000 -0.12484800
3 7.43124800 1.49647700 0.00000200 0.00000000 0.00000000 0.24545000
4 5.27847900 0.16554100 0.00000100 0.00000000 0.00000000 0.04851100
5 -1.24506000 -10.00192100 6.45078800 1.97586400 1.15990900 -1.29878600
6 -6.21448200 -0.00000700 -0.00002700 -3.06944101 -0.32369004 1.47077735
7 11.94488200 0.00000000 0.00000100 -0.23925726 -0.32191312 1.61628515
8 10.62018100 0.00000200 0.00000000 0.83841505 0.10297529 2.72520582
9 -4.75110600 -0.69449400 0.83057700 -0.21244700 0.13723700 0.56559200
10 -1.68806800 0.00004600 -0.00003200 0.01476400 -0.01983500 0.80019500
11 -1.33614000 0.00005700 -0.00001200 0.02599100 -0.00450100 0.72485300
12 -4.82049400 -0.50946000 -0.22475900 -0.33666500 0.06009700 1.41259200
13 -1.82699200 -0.00006400 0.00000600 -0.00131800 0.04043600 1.24234300
14 -1.43657300 0.00000600 0.00000200 -0.04286600 -0.06491600 0.49261200
15 -3.99235500 -0.89118800 -1.82790900 -0.41942700 0.35068000 1.51819800
16 -1.40591800 -0.00002500 -0.00000300 0.00712800 -0.02856300 0.62998400
17 -1.17535800 0.00012800 -0.00002000 0.06062700 0.03058100 1.00743600
18 -4.52675100 -0.69057500 -1.12074400 -0.43113200 0.21594300 1.61193500
19 -1.74403800 0.00003300 -0.00000800 -0.02031700 -0.02143900 1.17042900
20 -1.36877100 0.00002500 0.00000200 0.02081800 0.04817500 0.30338500
21 -1.84032200 -1.13761000 1.04590200 2.22706100 0.43026100 0.92075000
22 -1.52345300 0.00003200 0.00003100 0.06200100 0.16249200 0.46746700
23 -1.59928500 0.00000400 0.00001600 0.02989500 -0.03079900 0.78129700
24 5.58312500 0.11572600 0.29499900 2.23698600 -0.06403800 3.11154600
25 0.19684700 -0.00000100 0.00000300 2.79340689 -0.00076261 -3.14137426
26 -1.79907300 -13.92509700 -0.14210600 1.97586200 1.15990900 1.84280300
27 6.21448500 0.00000600 0.00002000 -0.92569134 0.38719386 -1.70625844
28 11.94488500 -0.00002900 -0.00019400 0.89029090 -0.37477718 -1.20490477
29 10.62016600 0.00000200 0.00001000 -2.62297074 -0.40875965 0.37173810
30 4.75115600 0.69437600 -0.83047300 -0.06963100 -0.18956200 1.20293400
31 1.68806500 -0.00002600 0.00000200 -0.00178600 -0.02466300 1.51256600
32 1.33615100 -0.00005100 -0.00000900 0.00162500 -0.03868900 0.32920800
33 4.82051300 0.50934000 0.22486500 -0.15643200 -0.01406900 1.57957000
34 1.82699600 0.00006600 0.00000800 -0.00186700 0.04038300 1.22708400
35 1.43657700 -0.00001000 0.00000700 0.00808100 -0.01279400 0.27447100
36 3.99235300 0.89108700 1.82799400 -0.26823800 0.10724000 1.40713400
37 1.40591800 0.00002100 -0.00000700 -0.01645600 -0.02445100 1.46689000
38 1.17536900 -0.00013100 0.00000200 0.02096900 0.12149700 0.12659500
39 4.52675600 0.69046000 1.12084200 -0.15292900 0.08798300 1.61269300
40 1.74404100 -0.00003100 -0.00000200 -0.02493600 -0.01580100 1.41848500
41 1.36876300 -0.00003100 -0.00001700 -0.24626800 0.17807500 0.18497200
42 1.87485500 0.93508100 -0.99913000 2.44808600 0.23419600 1.08300800
43 1.45054400 -0.06019000 0.09121800 0.04429500 0.17016300 0.35957300
44 1.59928100 -0.00000200 0.00000900 0.08169400 -0.01721100 1.03306000
45 5.51180600 -0.00000200 0.00000600 -0.66744800 0.00000000 0.00000000
46 0.19685000 0.00000300 -0.00000200 -0.34822500 0.00001500 -0.00000200
47 0.00000000 1.00000000 0.00000000 0.00000000 0.00000000 -1.57079600
48 -3.47734200 3.27852200 -2.72292100 0.00000000 0.00000000 -3.14156200
49 -7.07226283 20.75237517 -0.26986983 0.40596976 0.27542976 -0.62490159
50 11.97563400 0.60075400 -3.41184400 0.21793700 1.03451400 1.57217400
51 5.68842700 -0.01178200 -0.37496100 0.00000000 0.00000000 0.00000000
52 -5.79591200 -0.00336600 0.65722100 0.00000000 0.00000000 0.00000000
53 0.12109200 0.00000000 -0.11972000 0.00000000 0.00000000 0.00000000
54 -0.81526600 0.44891200 1.20490200 0.00000000 0.00000000 0.00000000
55 -4.54927400 -0.05422000 -0.66098900 0.00000000 0.00000000 0.00000000
56 -4.11342000 -2.62846000 -4.75590600 2.73160200 -0.06448900 -1.98897400
time 10
0 -0.00000100 8.45008800 -27.50902600 0.00000000 0.00000000 0.00003100
1 -0.00000200 0.00000000 0.00000000 1.57074300 -1.56713700 -1.57074300
2 4.25546800 -0.33518300 -0.00000200 0.00000000 0.00000000 -0.12484800
3 7.43124800 1.49647700 0.00000200 0.00000000 0.00000000 0.24545000
4 5.27847900 0.16554100 0.00000100 0.00000000 0.00000000 0.04851100
5 -1.27746300 -10.55078200 7.30743600 1.97586400 1.15990900 -1.29878600
6 -6.21448200 -0.00000700 -0.00002700 -3.09098830 -0.31615980 1.40397814
7 11.94488200 0.00000000 0.00000100 -0.21374862 -0.32012567 1.54170276
8 10.62018100 0.00000200 0.00000000 0.82841177 0.12247607 2.79445939
9 -4.75110600 -0.69449400 0.83057700 -0.21244700 0.13723700 0.56559200
10 -1.68806800 0.00004600 -0.00003200 0.01476400 -0.01983500 0.80019500
11 -1.33614000 0.00005700 -0.00001200 0.02599100 -0.00450100 0.72485300
12 -4.82049400 -0.50946000 -0.22475900 -0.33666500 0.06009700 1.41259200
13 -1.82699200 -0.00006400 0.00000600 -0.00131800 0.04043600 1.24234300
14 -1.43657300 0.00000600 0.00000200 -0.04286600 -0.06491600 0.49261200
15 -3.99235500 -0.89118800 -1.82790900 -0.41942700 0.35068000 1.51819800
16 -1.40591800 -0.00002500 -0.00000300 0.00712800 -0.02856300 0.62998400
17 -1.17535800 0.00012800 -0.00002000 0.06062700 0.03058100 1.00743600
18 -4.52675100 -0.69057500 -1.12074400 -0.43113200 0.21594300 1.61193500
19 -1.74403800 0.00003300 -0.00000800 -0.02031700 -0.02143900 1.17042900
20 -1.36877100 0.00002500 0.00000200 0.02081800 0.04817500 0.30338500
21 -1.84032200 -1.13761000 1.04590200 2.22706100 0.43026100 0.92075000
22 -1.52345300 0.00003200 0.00003100 0.06200100 0.16249200 0.46746700
23 -1.59928500 0.00000400 0.00001600 0.02989500 -0.03079900 0.78129700
24 5.58312500 0.11572600 0.29499900 2.23698600 -0.06403800 3.11154600
25 0.19684700 -0.00000100 0.00000300 2.79340689 -0.00076261 -3.14137426
26 -1.66246600 -13.54068300 0.00977100 1.97586200 1.15990900 1.84280300
27 6.21448500 0.00000600 0.00002000 -0.98893284 0.40609392 -1.69954507
28 11.94488500 -0.00002900 -0.00019400 1.07132724 -0.37992661 -1.18889041
29 10.62016600 0.00000200 0.00001000 -2.76399446 -0.39375310 0.40564073
30 4.75115600 0.69437600 -0.83047300 -0.06963100 -0.18956200 1.20293400
31 1.68806500 -0.00002600 0.00000200 -0.00178600 -0.02466300 1.51256600
32 1.33615100 -0.00005100 -0.00000900 0.00162500 -0.03868900 0.32920800
33 4.82051300 0.50934000 0.22486500 -0.15643200 -0.01406900 1.57957000
34 1.82699600 0.00006600 0.00000800 -0.00186700 0.04038300 1.22708400
35 1.43657700 -0.00001000 0.00000700 0.00808100 -0.01279400 0.27447100
36 3.99235300 0.89108700 1.82799400 -0.26823800 0.10724000 1.40713400
37 1.40591800 0.00002100 -0.00000700 -0.01645600 -0.02445100 1.46689000
38 1.17536900 -0.00013100 0.00000200 0.02096900 0.12149700 0.12659500
39 4.52675600 0.69046000 1.12084200 -0.15292900 0.08798300 1.61269300
40 1.74404100 -0.00003100 -0.00000200 -0.02493600 -0.01580100 1.41848500
41 1.36876300 -0.00003100 -0.00001700 -0.24626800 0.17807500 0.18497200
42 1.87485500 0.93508100 -0.99913000 2.44808600 0.23419600 1.08300800
43 1.45054400 -0.06019000 0.09121800 0.04429500 0.17016300 0.35957300
44 1.59928100 -0.00000200 0.00000900 0.08169400 -0.01721100 1.03306000
45 5.51180600 -0.00000200 0.00000600 -0.66744800 0.00000000 0.00000000
46 0.19685000 0.00000300 -0.00000200 -0.34822500 0.00001500 -0.00000200
47 0.00000000 1.00000000 0.00000000 0.00000000 0.00000000 -1.57079600
48 -3.47734200 3.27852200 -2.72292100 0.00000000 0.00000000 -3.14156200
49 -7.61604750 20.70551917 -0.56607917 0.42922051 0.26491674 -0.54483873
50 11.97563400 0.60075400 -3.41184400 0.21793700 1.03451400 1.57217400
51 5.68842700 -0.01178200 -0.37496100 0.00000000 0.00000000 0.00000000
52 -5.79591200 -0.00336600 0.65722100 0.00000000 0.00000000 0.00000000
53 0.12109200 0.00000000 -0.11972000 0.00000000 0.00000000 0.00000000
54 -0.81526600 0.44891200 1.20490200 0.00000000 0.00000000 0.00000000
55 -4.54927400 -0.05422000 -0.66098900 0.00000000 0.00000000 0.00000000
56 -4.11342000 -2.62846000 -4.75590600 2.73160200 -0.06448900 -1.98897400
time 11
0 -0.00000100 8.45008800 -27.50902600 0.00000000 0.00000000 0.00003100
1 -0.00000200 0.00000000 0.00000000 1.57074300 -1.56713700 -1.57074300
2 4.25546800 -0.33518300 -0.00000200 0.00000000 0.00000000 -0.12484800
3 7.43124800 1.49647700 0.00000200 0.00000000 0.00000000 0.24545000
4 5.27847900 0.16554100 0.00000100 0.00000000 0.00000000 0.04851100
5 -1.29891100 -10.91411400 7.87451100 1.97586400 1.15990900 -1.29878600
6 -6.21448200 -0.00000700 -0.00002700 -3.09516231 -0.30980269 1.36215295
7 11.94488200 0.00000000 0.00000100 -0.19185459 -0.31779696 1.47772902
8 10.62018100 0.00000200 0.00000000 0.82678098 0.12535706 2.86864154
9 -4.75110600 -0.69449400 0.83057700 -0.21244700 0.13723700 0.56559200
10 -1.68806800 0.00004600 -0.00003200 0.01476400 -0.01983500 0.80019500
11 -1.33614000 0.00005700 -0.00001200 0.02599100 -0.00450100 0.72485300
12 -4.82049400 -0.50946000 -0.22475900 -0.33666500 0.06009700 1.41259200
13 -1.82699200 -0.00006400 0.00000600 -0.00131800 0.04043600 1.24234300
14 -1.43657300 0.00000600 0.00000200 -0.04286600 -0.06491600 0.49261200
15 -3.99235500 -0.89118800 -1.82790900 -0.41942700 0.35068000 1.51819800
16 -1.40591800 -0.00002500 -0.00000300 0.00712800 -0.02856300 0.62998400
17 -1.17535800 0.00012800 -0.00002000 0.06062700 0.03058100 1.00743600
18 -4.52675100 -0.69057500 -1.12074400 -0.43113200 0.21594300 1.61193500
19 -1.74403800 0.00003300 -0.00000800 -0.02031700 -0.02143900 1.17042900
20 -1.36877100 0.00002500 0.00000200 0.02081800 0.04817500 0.30338500
21 -1.84032200 -1.13761000 1.04590200 2.22706100 0.43026100 0.92075000
22 -1.52345300 0.00003200 0.00003100 0.06200100 0.16249200 0.46746700
23 -1.59928500 0.00000400 0.00001600 0.02989500 -0.03079900 0.78129700
24 5.58312500 0.11572600 0.29499900 2.23698600 -0.06403800 3.11154600
25 0.19684700 -0.00000100 0.00000300 2.79340689 -0.00076261 -3.14137426
26 -1.57203700 -13.28621200 0.11030800 1.97586200 1.15990900 1.84280300
27 6.21448500 0.00000600 0.00002000 -1.02397303 0.41856606 -1.69814382
28 11.94488500 -0.00002900 -0.00019400 1.20380105 -0.38508386 -1.18071633
29 10.62016600 0.00000200 0.00001000 -2.87221309 -0.38546840 0.45175755
30 4.75115600 0.69437600 -0.83047300 -0.06963100 -0.18956200 1.20293400
31 1.68806500 -0.00002600 0.00000200 -0.00178600 -0.02466300 1.51256600
32 1.33615100 -0.00005100 -0.00000900 0.00162500 -0.03868900 0.32920800
33 4.82051300 0.50934000 0.22486500 -0.15643200 -0.01406900 1.57957000
34 1.82699600 0.00006600 0.00000800 -0.00186700 0.04038300 1.22708400
35 1.43657700 -0.00001000 0.00000700 0.00808100 -0.01279400 0.27447100
36 3.99235300 0.89108700 1.82799400 -0.26823800 0.10724000 1.40713400
37 1.40591800 0.00002100 -0.00000700 -0.01645600 -0.02445100 1.46689000
38 1.17536900 -0.00013100 0.00000200 0.02096900 0.12149700 0.12659500
39 4.52675600 0.69046000 1.12084200 -0.15292900 0.08798300 1.61269300
40 1.74404100 -0.00003100 -0.00000200 -0.02493600 -0.01580100 1.41848500
41 1.36876300 -0.00003100 -0.00001700 -0.24626800 0.17807500 0.18497200
42 1.87485500 0.93508100 -0.99913000 2.44808600 0.23419600 1.08300800
43 1.45054400 -0.06019000 0.09121800 0.04429500 0.17016300 0.35957300
44 1.59928100 -0.00000200 0.00000900 0.08169400 -0.01721100 1.03306000
45 5.51180600 -0.00000200 0.00000600 -0.66744800 0.00000000 0.00000000
46 0.19685000 0.00000300 -0.00000200 -0.34822500 0.00001500 -0.00000200
47 0.00000000 1.00000000 0.00000000 0.00000000 0.00000000 -1.57079600
48 -3.47734200 3.27852200 -2.72292100 0.00000000 0.00000000 -3.14156200
49 -7.87260450 20.67411317 -0.74953933 0.45152402 0.25601153 -0.48202227
50 11.97563400 0.60075400 -3.41184400 0.21793700 1.03451400 1.57217400
51 5.68842700 -0.01178200 -0.37496100 0.00000000 0.00000000 0.00000000
52 -5.79591200 -0.00336600 0.65722100 0.00000000 0.00000000 0.00000000
53 0.12109200 0.00000000 -0.11972000 0.00000000 0.00000000 0.00000000
54 -0.81526600 0.44891200 1.20490200 0.00000000 0.00000000 0.00000000
55 -4.54927400 -0.05422000 -0.66098900 0.00000000 0.00000000 0.00000000
56 -4.11342000 -2.62846000 -4.75590600 2.73160200 -0.06448900 -1.98897400
time 12
0 -0.00000100 8.45008800 -27.50902600 0.00000000 0.00000000 0.00003100
1 -0.00000200 0.00000000 0.00000000 1.57074300 -1.56713700 -1.57074300
2 4.25546800 -0.33518300 -0.00000200 0.00000000 0.00000000 -0.12484800
3 7.43124800 1.49647700 0.00000200 0.00000000 0.00000000 0.24545000
4 5.27847900 0.16554100 0.00000100 0.00000000 0.00000000 0.04851100
5 -1.30667000 -11.04553000 8.07962300 1.97586400 1.15990900 -1.29878600
6 -6.21448200 -0.00000700 -0.00002700 -3.08644979 -0.30315853 1.34400647
7 11.94488200 0.00000000 0.00000100 -0.17351427 -0.31505944 1.42389582
8 10.62018100 0.00000200 0.00000000 0.82814528 0.11686485 2.94516084
9 -4.75110600 -0.69449400 0.83057700 -0.21244700 0.13723700 0.56559200
10 -1.68806800 0.00004600 -0.00003200 0.01476400 -0.01983500 0.80019500
11 -1.33614000 0.00005700 -0.00001200 0.02599100 -0.00450100 0.72485300
12 -4.82049400 -0.50946000 -0.22475900 -0.33666500 0.06009700 1.41259200
13 -1.82699200 -0.00006400 0.00000600 -0.00131800 0.04043600 1.24234300
14 -1.43657300 0.00000600 0.00000200 -0.04286600 -0.06491600 0.49261200
15 -3.99235500 -0.89118800 -1.82790900 -0.41942700 0.35068000 1.51819800
16 -1.40591800 -0.00002500 -0.00000300 0.00712800 -0.02856300 0.62998400
17 -1.17535800 0.00012800 -0.00002000 0.06062700 0.03058100 1.00743600
18 -4.52675100 -0.69057500 -1.12074400 -0.43113200 0.21594300 1.61193500
19 -1.74403800 0.00003300 -0.00000800 -0.02031700 -0.02143900 1.17042900
20 -1.36877100 0.00002500 0.00000200 0.02081800 0.04817500 0.30338500
21 -1.84032200 -1.13761000 1.04590200 2.22706100 0.43026100 0.92075000
22 -1.52345300 0.00003200 0.00003100 0.06200100 0.16249200 0.46746700
23 -1.59928500 0.00000400 0.00001600 0.02989500 -0.03079900 0.78129700
24 5.58312500 0.11572600 0.29499900 2.23698600 -0.06403800 3.11154600
25 0.19684700 -0.00000100 0.00000300 2.79340689 -0.00076261 -3.14137426
26 -1.53932800 -13.19416800 0.14667300 1.97586200 1.15990900 1.84280300
27 6.21448500 0.00000600 0.00002000 -1.04434392 0.42755860 -1.70004192
28 11.94488500 -0.00002900 -0.00019400 1.25824024 -0.38906479 -1.18813631
29 10.62016600 0.00000200 0.00001000 -2.90396900 -0.39166698 0.47996901
30 4.75115600 0.69437600 -0.83047300 -0.06963100 -0.18956200 1.20293400
31 1.68806500 -0.00002600 0.00000200 -0.00178600 -0.02466300 1.51256600
32 1.33615100 -0.00005100 -0.00000900 0.00162500 -0.03868900 0.32920800
33 4.82051300 0.50934000 0.22486500 -0.15643200 -0.01406900 1.57957000
34 1.82699600 0.00006600 0.00000800 -0.00186700 0.04038300 1.22708400
35 1.43657700 -0.00001000 0.00000700 0.00808100 -0.01279400 0.27447100
36 3.99235300 0.89108700 1.82799400 -0.26823800 0.10724000 1.40713400
37 1.40591800 0.00002100 -0.00000700 -0.01645600 -0.02445100 1.46689000
38 1.17536900 -0.00013100 0.00000200 0.02096900 0.12149700 0.12659500
39 4.52675600 0.69046000 1.12084200 -0.15292900 0.08798300 1.61269300
40 1.74404100 -0.00003100 -0.00000200 -0.02493600 -0.01580100 1.41848500
41 1.36876300 -0.00003100 -0.00001700 -0.24626800 0.17807500 0.18497200
42 1.87485500 0.93508100 -0.99913000 2.44808600 0.23419600 1.08300800
43 1.45054400 -0.06019000 0.09121800 0.04429500 0.17016300 0.35957300
44 1.59928100 -0.00000200 0.00000900 0.08169400 -0.01721100 1.03306000
45 5.51180600 -0.00000200 0.00000600 -0.66744800 0.00000000 0.00000000
46 0.19685000 0.00000300 -0.00000200 -0.34822500 0.00001500 -0.00000200
47 0.00000000 1.00000000 0.00000000 0.00000000 0.00000000 -1.57079600
48 -3.47734200 3.27852200 -2.72292100 0.00000000 0.00000000 -3.14156200
49 -7.96937450 20.65506217 -0.81393133 0.47132006 0.25048172 -0.43557084
50 11.97563400 0.60075400 -3.41184400 0.21793700 1.03451400 1.57217400
51 5.68842700 -0.01178200 -0.37496100 0.00000000 0.00000000 0.00000000
52 -5.79591200 -0.00336600 0.65722100 0.00000000 0.00000000 0.00000000
53 0.12109200 0.00000000 -0.11972000 0.00000000 0.00000000 0.00000000
54 -0.81526600 0.44891200 1.20490200 0.00000000 0.00000000 0.00000000
55 -4.54927400 -0.05422000 -0.66098900 0.00000000 0.00000000 0.00000000
56 -4.11342000 -2.62846000 -4.75590600 2.73160200 -0.06448900 -1.98897400
time 13
0 -0.00000100 8.45008800 -27.50902600 0.00000000 0.00000000 0.00003100
1 -0.00000200 0.00000000 0.00000000 1.57074300 -1.56713700 -1.57074300
2 4.25546800 -0.33518300 -0.00000200 0.00000000 0.00000000 -0.12484800
3 7.43124800 1.49647700 0.00000200 0.00000000 0.00000000 0.24545000
4 5.27847900 0.16554100 0.00000100 0.00000000 0.00000000 0.04851100
5 -1.30667000 -11.04553000 8.07962300 1.97586400 1.15990900 -1.29878600
6 -6.21448200 -0.00000700 -0.00002700 -3.07386100 -0.29745640 1.34005021
7 11.94488200 0.00000000 0.00000100 -0.16058775 -0.31231855 1.38607818
8 10.62018100 0.00000200 0.00000000 0.82198255 0.10440568 3.00499669
9 -4.75110600 -0.69449400 0.83057700 -0.21244700 0.13723700 0.56559200
10 -1.68806800 0.00004600 -0.00003200 0.01476400 -0.01983500 0.80019500
11 -1.33614000 0.00005700 -0.00001200 0.02599100 -0.00450100 0.72485300
12 -4.82049400 -0.50946000 -0.22475900 -0.33666500 0.06009700 1.41259200
13 -1.82699200 -0.00006400 0.00000600 -0.00131800 0.04043600 1.24234300
14 -1.43657300 0.00000600 0.00000200 -0.04286600 -0.06491600 0.49261200
15 -3.99235500 -0.89118800 -1.82790900 -0.41942700 0.35068000 1.51819800
16 -1.40591800 -0.00002500 -0.00000300 0.00712800 -0.02856300 0.62998400
17 -1.17535800 0.00012800 -0.00002000 0.06062700 0.03058100 1.00743600
18 -4.52675100 -0.69057500 -1.12074400 -0.43113200 0.21594300 1.61193500
19 -1.74403800 0.00003300 -0.00000800 -0.02031700 -0.02143900 1.17042900
20 -1.36877100 0.00002500 0.00000200 0.02081800 0.04817500 0.30338500
21 -1.84032200 -1.13761000 1.04590200 2.22706100 0.43026100 0.92075000
22 -1.52345300 0.00003200 0.00003100 0.06200100 0.16249200 0.46746700
23 -1.59928500 0.00000400 0.00001600 0.02989500 -0.03079900 0.78129700
24 5.58312500 0.11572600 0.29499900 2.23698600 -0.06403800 3.11154600
25 0.19684700 -0.00000100 0.00000300 2.79340689 -0.00076261 -3.14137426
26 -1.53932800 -13.19416800 0.14667300 1.97586200 1.15990900 1.84280300
27 6.21448500 0.00000600 0.00002000 -1.05900939 0.43447672 -1.70288586
28 11.94488500 -0.00002900 -0.00019400 1.26572818 -0.38943765 -1.20798290
29 10.62016600 0.00000200 0.00001000 -2.87880898 -0.40063483 0.48559906
30 4.75115600 0.69437600 -0.83047300 -0.06963100 -0.18956200 1.20293400
31 1.68806500 -0.00002600 0.00000200 -0.00178600 -0.02466300 1.51256600
32 1.33615100 -0.00005100 -0.00000900 0.00162500 -0.03868900 0.32920800
33 4.82051300 0.50934000 0.22486500 -0.15643200 -0.01406900 1.57957000
34 1.82699600 0.00006600 0.00000800 -0.00186700 0.04038300 1.22708400
35 1.43657700 -0.00001000 0.00000700 0.00808100 -0.01279400 0.27447100
36 3.99235300 0.89108700 1.82799400 -0.26823800 0.10724000 1.40713400
37 1.40591800 0.00002100 -0.00000700 -0.01645600 -0.02445100 1.46689000
38 1.17536900 -0.00013100 0.00000200 0.02096900 0.12149700 0.12659500
39 4.52675600 0.69046000 1.12084200 -0.15292900 0.08798300 1.61269300
40 1.74404100 -0.00003100 -0.00000200 -0.02493600 -0.01580100 1.41848500
41 1.36876300 -0.00003100 -0.00001700 -0.24626800 0.17807500 0.18497200
42 1.87485500 0.93508100 -0.99913000 2.44808600 0.23419600 1.08300800
43 1.45054400 -0.06019000 0.09121800 0.04429500 0.17016300 0.35957300
44 1.59928100 -0.00000200 0.00000900 0.08169400 -0.01721100 1.03306000
45 5.51180600 -0.00000200 0.00000600 -0.66744800 0.00000000 0.00000000
46 0.19685000 0.00000300 -0.00000200 -0.34822500 0.00001500 -0.00000200
47 0.00000000 1.00000000 0.00000000 0.00000000 0.00000000 -1.57079600
48 -3.47734200 3.27852200 -2.72292100 0.00000000 0.00000000 -3.14156200
49 -7.96677333 20.64527717 -0.79384083 0.47849156 0.24805339 -0.40448422
50 11.97563400 0.60075400 -3.41184400 0.21793700 1.03451400 1.57217400
51 5.68842700 -0.01178200 -0.37496100 0.00000000 0.00000000 0.00000000
52 -5.79591200 -0.00336600 0.65722100 0.00000000 0.00000000 0.00000000
53 0.12109200 0.00000000 -0.11972000 0.00000000 0.00000000 0.00000000
54 -0.81526600 0.44891200 1.20490200 0.00000000 0.00000000 0.00000000
55 -4.54927400 -0.05422000 -0.66098900 0.00000000 0.00000000 0.00000000
56 -4.11342000 -2.62846000 -4.75590600 2.73160200 -0.06448900 -1.98897400
time 14
0 -0.00000100 8.45008800 -27.50902600 0.00000000 0.00000000 0.00003100
1 -0.00000200 0.00000000 0.00000000 1.57074300 -1.56713700 -1.57074300
2 4.25546800 -0.33518300 -0.00000200 0.00000000 0.00000000 -0.12484800
3 7.43124800 1.49647700 0.00000200 0.00000000 0.00000000 0.24545000
4 5.27847900 0.16554100 0.00000100 0.00000000 0.00000000 0.04851100
5 -1.30667000 -11.04553000 8.07962300 1.97586400 1.15990900 -1.29878600
6 -6.21448200 -0.00000700 -0.00002700 -3.06856588 -0.29501574 1.33932229
7 11.94488200 0.00000000 0.00000100 -0.15401243 -0.31069492 1.36689507
8 10.62018100 0.00000200 0.00000000 0.80550310 0.09924345 3.03485362
9 -4.75110600 -0.69449400 0.83057700 -0.21244700 0.13723700 0.56559200
10 -1.68806800 0.00004600 -0.00003200 0.01476400 -0.01983500 0.80019500
11 -1.33614000 0.00005700 -0.00001200 0.02599100 -0.00450100 0.72485300
12 -4.82049400 -0.50946000 -0.22475900 -0.33666500 0.06009700 1.41259200
13 -1.82699200 -0.00006400 0.00000600 -0.00131800 0.04043600 1.24234300
14 -1.43657300 0.00000600 0.00000200 -0.04286600 -0.06491600 0.49261200
15 -3.99235500 -0.89118800 -1.82790900 -0.41942700 0.35068000 1.51819800
16 -1.40591800 -0.00002500 -0.00000300 0.00712800 -0.02856300 0.62998400
17 -1.17535800 0.00012800 -0.00002000 0.06062700 0.03058100 1.00743600
18 -4.52675100 -0.69057500 -1.12074400 -0.43113200 0.21594300 1.61193500
19 -1.74403800 0.00003300 -0.00000800 -0.02031700 -0.02143900 1.17042900
20 -1.36877100 0.00002500 0.00000200 0.02081800 0.04817500 0.30338500
21 -1.84032200 -1.13761000 1.04590200 2.22706100 0.43026100 0.92075000
22 -1.52345300 0.00003200 0.00003100 0.06200100 0.16249200 0.46746700
23 -1.59928500 0.00000400 0.00001600 0.02989500 -0.03079900 0.78129700
24 5.58312500 0.11572600 0.29499900 2.23698600 -0.06403800 3.11154600
25 0.19684700 -0.00000100 0.00000300 2.79340689 -0.00076261 -3.14137426
26 -1.53932800 -13.19416800 0.14667300 1.97586200 1.15990900 1.84280300
27 6.21448500 0.00000600 0.00002000 -1.07159465 0.43922614 -1.70426107
28 11.94488500 -0.00002900 -0.00019400 1.27265546 -0.38637222 -1.22853448
29 10.62016600 0.00000200 0.00001000 -2.84579945 -0.39713228 0.48053497
30 4.75115600 0.69437600 -0.83047300 -0.06963100 -0.18956200 1.20293400
31 1.68806500 -0.00002600 0.00000200 -0.00178600 -0.02466300 1.51256600
32 1.33615100 -0.00005100 -0.00000900 0.00162500 -0.03868900 0.32920800
33 4.82051300 0.50934000 0.22486500 -0.15643200 -0.01406900 1.57957000
34 1.82699600 0.00006600 0.00000800 -0.00186700 0.04038300 1.22708400
35 1.43657700 -0.00001000 0.00000700 0.00808100 -0.01279400 0.27447100
36 3.99235300 0.89108700 1.82799400 -0.26823800 0.10724000 1.40713400
37 1.40591800 0.00002100 -0.00000700 -0.01645600 -0.02445100 1.46689000
38 1.17536900 -0.00013100 0.00000200 0.02096900 0.12149700 0.12659500
39 4.52675600 0.69046000 1.12084200 -0.15292900 0.08798300 1.61269300
40 1.74404100 -0.00003100 -0.00000200 -0.02493600 -0.01580100 1.41848500
41 1.36876300 -0.00003100 -0.00001700 -0.24626800 0.17807500 0.18497200
42 1.87485500 0.93508100 -0.99913000 2.44808600 0.23419600 1.08300800
43 1.45054400 -0.06019000 0.09121800 0.04429500 0.17016300 0.35957300
44 1.59928100 -0.00000200 0.00000900 0.08169400 -0.01721100 1.03306000
45 5.51180600 -0.00000200 0.00000600 -0.66744800 0.00000000 0.00000000
46 0.19685000 0.00000300 -0.00000200 -0.34822500 0.00001500 -0.00000200
47 0.00000000 1.00000000 0.00000000 0.00000000 0.00000000 -1.57079600
48 -3.47734200 3.27852200 -2.72292100 0.00000000 0.00000000 -3.14156200
49 -7.92246933 20.64167217 -0.75559167 0.47001577 0.24892871 -0.38630967
50 11.97563400 0.60075400 -3.41184400 0.21793700 1.03451400 1.57217400
51 5.68842700 -0.01178200 -0.37496100 0.00000000 0.00000000 0.00000000
52 -5.79591200 -0.00336600 0.65722100 0.00000000 0.00000000 0.00000000
53 0.12109200 0.00000000 -0.11972000 0.00000000 0.00000000 0.00000000
54 -0.81526600 0.44891200 1.20490200 0.00000000 0.00000000 0.00000000
55 -4.54927400 -0.05422000 -0.66098900 0.00000000 0.00000000 0.00000000
56 -4.11342000 -2.62846000 -4.75590600 2.73160200 -0.06448900 -1.98897400
time 15
0 -0.00000100 8.45008800 -27.50902600 0.00000000 0.00000000 0.00003100
1 -0.00000200 0.00000000 0.00000000 1.57074300 -1.56713700 -1.57074300
2 4.25546800 -0.33518300 -0.00000200 0.00000000 0.00000000 -0.12484800
3 7.43124800 1.49647700 0.00000200 0.00000000 0.00000000 0.24545000
4 5.27847900 0.16554100 0.00000100 0.00000000 0.00000000 0.04851100
5 -1.30667000 -11.04553000 8.07962300 1.97586400 1.15990900 -1.29878600
6 -6.21448200 -0.00000700 -0.00002700 -3.07033929 -0.29576375 1.34143147
7 11.94488200 0.00000000 0.00000100 -0.15252138 -0.31047897 1.36273219
8 10.62018100 0.00000200 0.00000000 0.78745435 0.10262219 3.04232528
9 -4.75110600 -0.69449400 0.83057700 -0.21244700 0.13723700 0.56559200
10 -1.68806800 0.00004600 -0.00003200 0.01476400 -0.01983500 0.80019500
11 -1.33614000 0.00005700 -0.00001200 0.02599100 -0.00450100 0.72485300
12 -4.82049400 -0.50946000 -0.22475900 -0.33666500 0.06009700 1.41259200
13 -1.82699200 -0.00006400 0.00000600 -0.00131800 0.04043600 1.24234300
14 -1.43657300 0.00000600 0.00000200 -0.04286600 -0.06491600 0.49261200
15 -3.99235500 -0.89118800 -1.82790900 -0.41942700 0.35068000 1.51819800
16 -1.40591800 -0.00002500 -0.00000300 0.00712800 -0.02856300 0.62998400
17 -1.17535800 0.00012800 -0.00002000 0.06062700 0.03058100 1.00743600
18 -4.52675100 -0.69057500 -1.12074400 -0.43113200 0.21594300 1.61193500
19 -1.74403800 0.00003300 -0.00000800 -0.02031700 -0.02143900 1.17042900
20 -1.36877100 0.00002500 0.00000200 0.02081800 0.04817500 0.30338500
21 -1.84032200 -1.13761000 1.04590200 2.22706100 0.43026100 0.92075000
22 -1.52345300 0.00003200 0.00003100 0.06200100 0.16249200 0.46746700
23 -1.59928500 0.00000400 0.00001600 0.02989500 -0.03079900 0.78129700
24 5.58312500 0.11572600 0.29499900 2.23698600 -0.06403800 3.11154600
25 0.19684700 -0.00000100 0.00000300 2.79340689 -0.00076261 -3.14137426
26 -1.53932800 -13.19416800 0.14667300 1.97586200 1.15990900 1.84280300
27 6.21448500 0.00000600 0.00002000 -1.08007137 0.44083154 -1.70456505
28 11.94488500 -0.00002900 -0.00019400 1.27743856 -0.38174160 -1.24343992
29 10.62016600 0.00000200 0.00001000 -2.81695249 -0.38859061 0.47016699
30 4.75115600 0.69437600 -0.83047300 -0.06963100 -0.18956200 1.20293400
31 1.68806500 -0.00002600 0.00000200 -0.00178600 -0.02466300 1.51256600
32 1.33615100 -0.00005100 -0.00000900 0.00162500 -0.03868900 0.32920800
33 4.82051300 0.50934000 0.22486500 -0.15643200 -0.01406900 1.57957000
34 1.82699600 0.00006600 0.00000800 -0.00186700 0.04038300 1.22708400
35 1.43657700 -0.00001000 0.00000700 0.00808100 -0.01279400 0.27447100
36 3.99235300 0.89108700 1.82799400 -0.26823800 0.10724000 1.40713400
37 1.40591800 0.00002100 -0.00000700 -0.01645600 -0.02445100 1.46689000
38 1.17536900 -0.00013100 0.00000200 0.02096900 0.12149700 0.12659500
39 4.52675600 0.69046000 1.12084200 -0.15292900 0.08798300 1.61269300
40 1.74404100 -0.00003100 -0.00000200 -0.02493600 -0.01580100 1.41848500
41 1.36876300 -0.00003100 -0.00001700 -0.24626800 0.17807500 0.18497200
42 1.87485500 0.93508100 -0.99913000 2.44808600 0.23419600 1.08300800
43 1.45054400 -0.06019000 0.09121800 0.04429500 0.17016300 0.35957300
44 1.59928100 -0.00000200 0.00000900 0.08169400 -0.01721100 1.03306000
45 5.51180600 -0.00000200 0.00000600 -0.66744800 0.00000000 0.00000000
46 0.19685000 0.00000300 -0.00000200 -0.34822500 0.00001500 -0.00000200
47 0.00000000 1.00000000 0.00000000 0.00000000 0.00000000 -1.57079600
48 -3.47734200 3.27852200 -2.72292100 0.00000000 0.00000000 -3.14156200
49 -7.85892400 20.64115717 -0.72081467 0.45578725 0.25354300 -0.37924799
50 11.97563400 0.60075400 -3.41184400 0.21793700 1.03451400 1.57217400
51 5.68842700 -0.01178200 -0.37496100 0.00000000 0.00000000 0.00000000
52 -5.79591200 -0.00336600 0.65722100 0.00000000 0.00000000 0.00000000
53 0.12109200 0.00000000 -0.11972000 0.00000000 0.00000000 0.00000000
54 -0.81526600 0.44891200 1.20490200 0.00000000 0.00000000 0.00000000
55 -4.54927400 -0.05422000 -0.66098900 0.00000000 0.00000000 0.00000000
56 -4.11342000 -2.62846000 -4.75590600 2.73160200 -0.06448900 -1.98897400
end
