version 1
nodes
0 "root" -1
1 "pelvis" 0
2 "spine_01" 1
3 "spine_02" 2
4 "spine_03" 3
5 "clavicle_r" 4
6 "upperarm_r" 5
7 "lowerarm_r" 6
8 "hand_r" 7
9 "index_01_r" 8
10 "index_02_r" 9
11 "index_03_r" 10
12 "middle_01_r" 8
13 "middle_02_r" 12
14 "middle_03_r" 13
15 "pinky_01_r" 8
16 "pinky_02_r" 15
17 "pinky_03_r" 16
18 "ring_01_r" 8
19 "ring_02_r" 18
20 "ring_03_r" 19
21 "thumb_01_r" 8
22 "thumb_02_r" 21
23 "thumb_03_r" 22
24 "lowerarm_twist_01_r" 7
25 "upperarm_twist_01_r" 6
26 "clavicle_l" 4
27 "upperarm_l" 26
28 "lowerarm_l" 27
29 "hand_l" 28
30 "index_01_l" 29
31 "index_02_l" 30
32 "index_03_l" 31
33 "middle_01_l" 29
34 "middle_02_l" 33
35 "middle_03_l" 34
36 "pinky_01_l" 29
37 "pinky_02_l" 36
38 "pinky_03_l" 37
39 "ring_01_l" 29
40 "ring_02_l" 39
41 "ring_03_l" 40
42 "thumb_01_l" 29
43 "thumb_02_l" 42
44 "thumb_03_l" 43
45 "lowerarm_twist_01_l" 28
46 "upperarm_twist_01_l" 27
47 "cam_driver" -1
48 "BaseRoot" -1
49 "Base" 48
50 "Mag" 49
51 "Bullet" 50
52 "BulletMove" 51
53 "Trigger" 49
54 "Bolt" 49
55 "rhand_ikTarget" 49
56 "lhand_ikTarget" 49
57 "MagRelease" 49
58 "Bayonet" 49
end
skeleton
time 0
0 -0.00000100 7.45008900 -27.50902600 0.00000000 0.00000000 0.00003100
1 -0.00000200 0.00000000 0.00000000 1.57074700 -1.56714200 -1.57074700
2 4.25546500 -0.33518400 -0.00000200 0.00000000 0.00000000 -0.12484800
3 7.43125000 1.49647900 0.00000200 0.00000000 0.00000000 0.24545000
4 5.27847900 0.16554300 0.00000100 0.00000000 0.00000000 0.04851100
5 -1.64873900 -13.09409500 6.31045700 1.97586600 1.15990900 -1.29878500
6 -6.21447800 -0.00001000 -0.00002700 -2.39370000 -0.68993200 1.20340800
7 11.94488900 0.00000000 0.00000000 -0.30938200 -0.33898400 1.82384100
8 10.62019000 0.00000000 0.00000000 1.09326100 -0.95276900 2.78503800
9 -4.75111000 -0.69449400 0.83057900 0.07531300 -0.09554300 -0.01484500
10 -1.68807600 0.00004300 -0.00003100 0.02373900 -0.00676800 0.14690400
11 -1.33614300 0.00005300 -0.00001000 0.02592200 0.00450900 0.38004900
12 -4.82049600 -0.50945900 -0.22476100 -0.55713100 0.09927900 1.56147500
13 -1.82699200 -0.00007200 0.00000800 -0.01487100 0.03761200 0.89634400
14 -1.43657300 0.00000800 0.00000400 -0.05788200 -0.05197400 0.74803500
15 -3.99235900 -0.89118600 -1.82791000 -0.71620000 0.44693300 1.79365000
16 -1.40592200 -0.00002700 0.00000000 0.01654100 -0.02437900 0.27905000
17 -1.17535800 0.00012800 -0.00002100 0.04192500 0.05340800 0.56994100
18 -4.52675200 -0.69057500 -1.12074400 -0.64107200 0.31847900 1.75602400
19 -1.74403800 0.00003300 -0.00000400 -0.00916900 -0.02809900 0.72431900
20 -1.36877400 0.00002500 0.00000400 -0.22704800 0.07843600 0.24818000
21 -1.87479800 -0.93512200 0.99917500 1.79809700 0.60097600 0.84312900
22 -1.52344900 0.00003400 0.00003100 0.07543500 0.15680800 0.55183900
23 -1.59927600 0.00000800 0.00001500 0.02972300 -0.03090300 0.78512800
24 5.58312100 0.11572800 0.29500000 1.94756400 -0.06728900 3.12123600
25 0.19684600 -0.00000100 0.00000400 2.79340700 0.00000600 -3.14157700
26 -1.90343200 -16.01610200 -2.61350300 1.97586200 1.15991000 1.84280300
27 6.21448500 0.00001000 0.00002000 -0.98116100 0.50998500 -1.74632900
28 11.94488500 -0.00003200 -0.00019900 -0.90594000 -0.33184600 -1.90144500
29 10.62016900 -0.00000200 0.00000800 -1.71103600 -1.01613000 0.07733700
30 4.75116500 0.69437600 -0.83047400 0.13489800 -0.26683500 0.73932100
31 1.68806100 -0.00002400 0.00000200 -0.00200500 -0.02465900 1.52041700
32 1.33615100 -0.00005000 -0.00001000 0.01118100 -0.03706500 0.07734700
33 4.82051700 0.50934200 0.22486600 -0.16188000 -0.32220700 1.12238200
34 1.82700300 0.00006200 0.00001000 0.01510100 0.03754700 1.65575300
35 1.43658100 -0.00000600 0.00001000 0.01503200 0.00167500 -0.83651700
36 3.99235500 0.89109000 1.82799500 -0.41383600 -0.16958300 1.43490600
37 1.40592200 0.00003100 -0.00000400 -0.01421100 -0.02586600 1.37541000
38 1.17536200 -0.00013200 0.00000400 -0.07487300 0.09798600 -0.69969900
39 4.52676200 0.69046800 1.12084200 -0.34365100 -0.22798800 1.41166500
40 1.74404100 -0.00002700 0.00000100 -0.02639200 -0.01328600 1.51729600
41 1.36876300 -0.00003100 -0.00002000 -0.12191500 0.10180800 -1.06387600
42 2.10920200 1.21154000 -0.81156600 1.74515600 0.71608000 0.34735400
43 1.61730300 -0.08409400 -0.17136300 -0.00389400 -0.07294600 0.12080700
44 1.59178800 -0.07171700 0.01248600 0.03799300 0.07429800 -0.27107500
45 5.51180800 -0.00000600 0.00000400 -0.99849200 0.00000000 0.00000000
46 0.19684600 0.00000600 0.00000000 -0.34822500 0.00001500 -0.00000200
47 0.00000000 0.00000000 0.00000000 0.00000000 0.00000000 -1.57079600
48 -4.03556700 2.94847100 -3.65649800 0.00000000 0.00000000 -3.14156200
49 -8.44494000 20.29905100 -0.73262300 0.42807800 0.26617200 -0.37397100
50 -0.96673800 -0.01506600 -0.82006200 0.00000000 0.00000000 0.00000000
51 0.33536900 -0.00000100 1.02541900 0.00000000 0.00000000 0.00000000
52 0.00000000 -0.28240300 0.38909100 0.00000000 0.00000000 0.00000000
53 4.72605300 -0.00328400 -0.99586500 0.00000000 0.00000000 0.00000000
54 -1.02523600 0.00102100 0.83057100 0.00000000 0.00000000 0.00000000
55 12.55854000 2.22460700 -1.80913900 -0.33928300 1.22459100 1.46351300
56 -4.05639500 -2.26518700 -1.70752700 2.94762400 1.25576900 -2.60506400
57 0.88211100 -0.00328400 -1.44158800 0.00000000 0.00000000 0.00000000
58 -32.12060500 -0.00157300 0.13907200 0.00000000 0.00000000 0.00000000
time 1
0 -0.00000100 7.45008900 -27.50902600 0.00000000 0.00000000 0.00003100
1 -0.00000200 0.00000000 0.00000000 1.57074700 -1.56714200 -1.57074700
2 4.25546500 -0.33518400 -0.00000200 0.00000000 0.00000000 -0.12484800
3 7.43125000 1.49647900 0.00000200 0.00000000 0.00000000 0.24545000
4 5.27847900 0.16554300 0.00000100 0.00000000 0.00000000 0.04851100
5 -1.64873900 -13.09409500 6.31045700 1.97586600 1.15990900 -1.29878500
6 -6.21447800 -0.00001000 -0.00002700 -2.39063600 -0.69013300 1.20333800
7 11.94488900 0.00000000 0.00000000 -0.31008900 -0.33880500 1.82604800
8 10.62019000 0.00000000 0.00000000 1.09764600 -0.95582600 2.78007000
9 -4.75111000 -0.69449400 0.83057900 0.07531300 -0.09554300 -0.01484500
10 -1.68807600 0.00004300 -0.00003100 0.02373900 -0.00676800 0.14690400
11 -1.33614300 0.00005300 -0.00001000 0.02592200 0.00450900 0.38004900
12 -4.82049600 -0.50945900 -0.22476100 -0.55713100 0.09927900 1.56147500
13 -1.82699200 -0.00007200 0.00000800 -0.01487100 0.03761200 0.89634400
14 -1.43657300 0.00000800 0.00000400 -0.05788200 -0.05197400 0.74803500
15 -3.99235900 -0.89118600 -1.82791000 -0.71620000 0.44693300 1.79365000
16 -1.40592200 -0.00002700 0.00000000 0.01654100 -0.02437900 0.27905000
17 -1.17535800 0.00012800 -0.00002100 0.04192500 0.05340800 0.56994100
18 -4.52675200 -0.69057500 -1.12074400 -0.64107200 0.31847900 1.75602400
19 -1.74403800 0.00003300 -0.00000400 -0.00916900 -0.02809900 0.72431900
20 -1.36877400 0.00002500 0.00000400 -0.22704800 0.07843600 0.24818000
21 -1.87479800 -0.93512200 0.99917500 1.79809700 0.60097600 0.84312900
22 -1.52344900 0.00003400 0.00003100 0.07543500 0.15680800 0.55183900
23 -1.59927600 0.00000800 0.00001500 0.02972300 -0.03090300 0.78512800
24 5.58312100 0.11572800 0.29500000 1.94756400 -0.06728900 3.12123600
25 0.19684600 -0.00000100 0.00000400 2.79340700 0.00000600 -3.14157700
26 -1.90343200 -16.01610200 -2.61350300 1.97586200 1.15991000 1.84280300
27 6.21448500 0.00001000 0.00002000 -0.97804000 0.51012100 -1.74645700
28 11.94488500 -0.00003200 -0.00019900 -0.90630400 -0.33196100 -1.90041000
29 10.62016900 -0.00000200 0.00000800 -1.71241000 -1.01676600 0.07445300
30 4.75116500 0.69437600 -0.83047400 0.13489800 -0.26683500 0.73932100
31 1.68806100 -0.00002400 0.00000200 -0.00200500 -0.02465900 1.52041700
32 1.33615100 -0.00005000 -0.00001000 0.01118100 -0.03706500 0.07734700
33 4.82051700 0.50934200 0.22486600 -0.16188000 -0.32220700 1.12238200
34 1.82700300 0.00006200 0.00001000 0.01510100 0.03754700 1.65575300
35 1.43658100 -0.00000600 0.00001000 0.01503200 0.00167500 -0.83651700
36 3.99235500 0.89109000 1.82799500 -0.41383600 -0.16958300 1.43490600
37 1.40592200 0.00003100 -0.00000400 -0.01421100 -0.02586600 1.37541000
38 1.17536200 -0.00013200 0.00000400 -0.07487300 0.09798600 -0.69969900
39 4.52676200 0.69046800 1.12084200 -0.34365100 -0.22798800 1.41166500
40 1.74404100 -0.00002700 0.00000100 -0.02639200 -0.01328600 1.51729600
41 1.36876300 -0.00003100 -0.00002000 -0.12191500 0.10180800 -1.06387600
42 2.10920200 1.21154000 -0.81156600 1.74515600 0.71608000 0.34735400
43 1.61730300 -0.08409400 -0.17136300 -0.00389400 -0.07294600 0.12080700
44 1.59178800 -0.07171700 0.01248600 0.03799300 0.07429800 -0.27107500
45 5.51180800 -0.00000600 0.00000400 -0.99849200 0.00000000 0.00000000
46 0.19684600 0.00000600 0.00000000 -0.34822500 0.00001500 -0.00000200
47 0.00000000 0.00000000 0.00000000 0.00000000 0.00000000 -1.57079600
48 -4.03556700 2.94847100 -3.65649800 0.00000000 0.00000000 -3.14156200
49 -8.41520000 20.30515900 -0.73273600 0.42881900 0.26531200 -0.37534600
50 -0.96673800 -0.01506600 -0.82006200 0.00000000 0.00000000 0.00000000
51 0.33536900 -0.00000100 1.02541900 0.00000000 0.00000000 0.00000000
52 0.00000000 -0.28240300 0.38909100 0.00000000 0.00000000 0.00000000
53 4.72605300 -0.00328400 -0.99586500 0.00000000 0.00000000 0.00000000
54 -1.02523600 0.00102100 0.83057100 0.00000000 0.00000000 0.00000000
55 12.55854000 2.22460700 -1.80913900 -0.33928300 1.22459100 1.46351300
56 -4.05639400 -2.26518600 -1.70752700 2.94762400 1.25576900 -2.60506400
57 0.88211100 -0.00328400 -1.44158800 0.00000000 0.00000000 0.00000000
58 -32.12060500 -0.00157300 0.13907200 0.00000000 0.00000000 0.00000000
time 2
0 -0.00000100 7.45008900 -27.50902600 0.00000000 0.00000000 0.00003100
1 -0.00000200 0.00000000 0.00000000 1.57074700 -1.56714200 -1.57074700
2 4.25546500 -0.33518400 -0.00000200 0.00000000 0.00000000 -0.12484800
3 7.43125000 1.49647900 0.00000200 0.00000000 0.00000000 0.24545000
4 5.27847900 0.16554300 0.00000100 0.00000000 0.00000000 0.04851100
5 -1.64873900 -13.09409500 6.31045700 1.97586600 1.15990900 -1.29878500
6 -6.21447800 -0.00001000 -0.00002700 -2.38033100 -0.69115600 1.20296800
7 11.94488900 0.00000000 0.00000000 -0.31290900 -0.33806600 1.83450900
8 10.62019000 0.00000000 0.00000000 1.11406000 -0.96603500 2.76091200
9 -4.75111000 -0.69449400 0.83057900 0.07531300 -0.09554300 -0.01484500
10 -1.68807600 0.00004300 -0.00003100 0.02373900 -0.00676800 0.14690400
11 -1.33614300 0.00005300 -0.00001000 0.02592200 0.00450900 0.38004900
12 -4.82049600 -0.50945900 -0.22476100 -0.55713100 0.09927900 1.56147500
13 -1.82699200 -0.00007200 0.00000800 -0.01487100 0.03761200 0.89634400
14 -1.43657300 0.00000800 0.00000400 -0.05788200 -0.05197400 0.74803500
15 -3.99235900 -0.89118600 -1.82791000 -0.71620000 0.44693300 1.79365000
16 -1.40592200 -0.00002700 0.00000000 0.01654100 -0.02437900 0.27905000
17 -1.17535800 0.00012800 -0.00002100 0.04192500 0.05340800 0.56994100
18 -4.52675200 -0.69057500 -1.12074400 -0.64107200 0.31847900 1.75602400
19 -1.74403800 0.00003300 -0.00000400 -0.00916900 -0.02809900 0.72431900
20 -1.36877400 0.00002500 0.00000400 -0.22704800 0.07843600 0.24818000
21 -1.87479800 -0.93512200 0.99917500 1.79809700 0.60097600 0.84312900
22 -1.52344900 0.00003400 0.00003100 0.07543500 0.15680800 0.55183900
23 -1.59927600 0.00000800 0.00001500 0.02972300 -0.03090300 0.78512800
24 5.58312100 0.11572800 0.29500000 1.94756400 -0.06728900 3.12123600
25 0.19684600 -0.00000100 0.00000400 2.79340700 0.00000600 -3.14157700
26 -1.90343200 -16.01610200 -2.61350300 1.97586200 1.15991000 1.84280300
27 6.21448500 0.00001000 0.00002000 -0.96713300 0.51066500 -1.74672700
28 11.94488500 -0.00003200 -0.00019900 -0.90735400 -0.33232800 -1.89697200
29 10.62016900 -0.00000200 0.00000800 -1.71767400 -1.01939100 0.06517600
30 4.75116500 0.69437600 -0.83047400 0.13489800 -0.26683500 0.73932100
31 1.68806100 -0.00002400 0.00000200 -0.00200500 -0.02465900 1.52041700
32 1.33615100 -0.00005000 -0.00001000 0.01118100 -0.03706500 0.07734700
33 4.82051700 0.50934200 0.22486600 -0.16188000 -0.32220700 1.12238200
34 1.82700300 0.00006200 0.00001000 0.01510100 0.03754700 1.65575300
35 1.43658100 -0.00000600 0.00001000 0.01503200 0.00167500 -0.83651700
36 3.99235500 0.89109000 1.82799500 -0.41383600 -0.16958300 1.43490600
37 1.40592200 0.00003100 -0.00000400 -0.01421100 -0.02586600 1.37541000
38 1.17536200 -0.00013200 0.00000400 -0.07487300 0.09798600 -0.69969900
39 4.52676200 0.69046800 1.12084200 -0.34365100 -0.22798800 1.41166500
40 1.74404100 -0.00002700 0.00000100 -0.02639200 -0.01328600 1.51729600
41 1.36876300 -0.00003100 -0.00002000 -0.12191500 0.10180800 -1.06387600
42 2.10920200 1.21154000 -0.81156600 1.74515600 0.71608000 0.34735400
43 1.61730300 -0.08409400 -0.17136300 -0.00389400 -0.07294600 0.12080700
44 1.59178800 -0.07171700 0.01248600 0.03799300 0.07429800 -0.27107500
45 5.51180800 -0.00000600 0.00000400 -0.99849200 0.00000000 0.00000000
46 0.19684600 0.00000600 0.00000000 -0.34822500 0.00001500 -0.00000200
47 0.00000000 0.00000000 0.00000000 0.00000000 0.00000000 -1.57079600
48 -4.03556700 2.94847100 -3.65649800 0.00000000 0.00000000 -3.14156200
49 -8.31201300 20.32234600 -0.73312400 0.43130800 0.26224500 -0.38055000
50 -0.96673800 -0.01506600 -0.82006200 0.00000000 0.00000000 0.00000000
51 0.33536900 -0.00000100 1.02541900 0.00000000 0.00000000 0.00000000
52 0.00000000 -0.28240300 0.38909100 0.00000000 0.00000000 0.00000000
53 4.72605300 -0.00328400 -0.99586500 0.00000000 0.00000000 0.00000000
54 -1.02523600 0.00102100 0.83057100 0.00000000 0.00000000 0.00000000
55 12.55854000 2.22460700 -1.80913900 -0.33928300 1.22459100 1.46351300
56 -4.05638800 -2.26518700 -1.70753400 2.94762400 1.25576900 -2.60506400
57 0.88211100 -0.00328400 -1.44158800 0.00000000 0.00000000 0.00000000
58 -32.12060500 -0.00157300 0.13907200 0.00000000 0.00000000 0.00000000
time 3
0 -0.00000100 7.45008900 -27.50902600 0.00000000 0.00000000 0.00003100
1 -0.00000200 0.00000000 0.00000000 1.57074700 -1.56714200 -1.57074700
2 4.25546500 -0.33518400 -0.00000200 0.00000000 0.00000000 -0.12484800
3 7.43125000 1.49647900 0.00000200 0.00000000 0.00000000 0.24545000
4 5.27847900 0.16554300 0.00000100 0.00000000 0.00000000 0.04851100
5 -1.64873900 -13.09409500 6.31045700 1.97586600 1.15990900 -1.29878500
6 -6.21447800 -0.00001000 -0.00002700 -2.36018400 -0.69331800 1.20208300
7 11.94488900 0.00000000 0.00000000 -0.31918100 -0.33642800 1.85352200
8 10.62019000 0.00000000 0.00000000 1.14988900 -0.98516800 2.71751100
9 -4.75111000 -0.69449400 0.83057900 0.07531300 -0.09554300 -0.01484500
10 -1.68807600 0.00004300 -0.00003100 0.02373900 -0.00676800 0.14690400
11 -1.33614300 0.00005300 -0.00001000 0.02592200 0.00450900 0.38004900
12 -4.82049600 -0.50945900 -0.22476100 -0.55713100 0.09927900 1.56147500
13 -1.82699200 -0.00007200 0.00000800 -0.01487100 0.03761200 0.89634400
14 -1.43657300 0.00000800 0.00000400 -0.05788200 -0.05197400 0.74803500
15 -3.99235900 -0.89118600 -1.82791000 -0.71620000 0.44693300 1.79365000
16 -1.40592200 -0.00002700 0.00000000 0.01654100 -0.02437900 0.27905000
17 -1.17535800 0.00012800 -0.00002100 0.04192500 0.05340800 0.56994100
18 -4.52675200 -0.69057500 -1.12074400 -0.64107200 0.31847900 1.75602400
19 -1.74403800 0.00003300 -0.00000400 -0.00916900 -0.02809900 0.72431900
20 -1.36877400 0.00002500 0.00000400 -0.22704800 0.07843600 0.24818000
21 -1.87479800 -0.93512200 0.99917500 1.79809700 0.60097600 0.84312900
22 -1.52344900 0.00003400 0.00003100 0.07543500 0.15680800 0.55183900
23 -1.59927600 0.00000800 0.00001500 0.02972300 -0.03090300 0.78512800
24 5.58312100 0.11572800 0.29500000 1.94756400 -0.06728900 3.12123600
25 0.19684600 -0.00000100 0.00000400 2.79340700 0.00000600 -3.14157700
26 -1.90343200 -16.01610200 -2.61350300 1.97586200 1.15991000 1.84280300
27 6.21448500 0.00001000 0.00002000 -0.94545000 0.51150400 -1.74760700
28 11.94488500 -0.00003200 -0.00019900 -0.90970100 -0.33305700 -1.88984600
29 10.62016900 -0.00000200 0.00000800 -1.73048200 -1.02471300 0.04895400
30 4.75116500 0.69437600 -0.83047400 0.13489800 -0.26683500 0.73932100
31 1.68806100 -0.00002400 0.00000200 -0.00200500 -0.02465900 1.52041700
32 1.33615100 -0.00005000 -0.00001000 0.01118100 -0.03706500 0.07734700
33 4.82051700 0.50934200 0.22486600 -0.16188000 -0.32220700 1.12238200
34 1.82700300 0.00006200 0.00001000 0.01510100 0.03754700 1.65575300
35 1.43658100 -0.00000600 0.00001000 0.01503200 0.00167500 -0.83651700
36 3.99235500 0.89109000 1.82799500 -0.41383600 -0.16958300 1.43490600
37 1.40592200 0.00003100 -0.00000400 -0.01421100 -0.02586600 1.37541000
38 1.17536200 -0.00013200 0.00000400 -0.07487300 0.09798600 -0.69969900
39 4.52676200 0.69046800 1.12084200 -0.34365100 -0.22798800 1.41166500
40 1.74404100 -0.00002700 0.00000100 -0.02639200 -0.01328600 1.51729600
41 1.36876300 -0.00003100 -0.00002000 -0.12191500 0.10180800 -1.06387600
42 2.10920200 1.21154000 -0.81156600 1.74515600 0.71608000 0.34735400
43 1.61730300 -0.08409400 -0.17136300 -0.00389400 -0.07294600 0.12080700
44 1.59178800 -0.07171700 0.01248600 0.03799300 0.07429800 -0.27107500
45 5.51180800 -0.00000600 0.00000400 -0.99849200 0.00000000 0.00000000
46 0.19684600 0.00000600 0.00000000 -0.34822500 0.00001500 -0.00000200
47 0.00000000 0.00000000 0.00000000 0.00000000 0.00000000 -1.57079600
48 -4.03556700 2.94847100 -3.65649800 0.00000000 0.00000000 -3.14156200
49 -8.10395500 20.34890700 -0.73390000 0.43597300 0.25611000 -0.39221300
50 -0.96673800 -0.01506600 -0.82006200 0.00000000 0.00000000 0.00000000
51 0.33536900 -0.00000100 1.02541900 0.00000000 0.00000000 0.00000000
52 0.00000000 -0.28240300 0.38909100 0.00000000 0.00000000 0.00000000
53 4.72605300 -0.00328400 -0.99586500 0.00000000 0.00000000 0.00000000
54 -1.02523600 0.00102100 0.83057100 0.00000000 0.00000000 0.00000000
55 12.55854000 2.22460700 -1.80913900 -0.33928300 1.22459100 1.46351300
56 -4.05636900 -2.26519700 -1.70754100 2.94762400 1.25576900 -2.60506400
57 0.88211100 -0.00328400 -1.44158800 0.00000000 0.00000000 0.00000000
58 -32.12060500 -0.00157300 0.13907200 0.00000000 0.00000000 0.00000000
time 4
0 -0.00000100 7.45008900 -27.50902600 0.00000000 0.00000000 0.00003100
1 -0.00000200 0.00000000 0.00000000 1.57074700 -1.56714200 -1.57074700
2 4.25546500 -0.33518400 -0.00000200 0.00000000 0.00000000 -0.12484800
3 7.43125000 1.49647900 0.00000200 0.00000000 0.00000000 0.24545000
4 5.27847900 0.16554300 0.00000100 0.00000000 0.00000000 0.04851100
5 -1.46470500 -12.79399400 6.13141100 1.97586600 1.15990900 -1.29878500
6 -6.21447800 -0.00001000 -0.00002700 -2.32393900 -0.69811800 1.21618100
7 11.94488900 0.00000000 0.00000000 -0.32268100 -0.33545400 1.86405800
8 10.62019000 0.00000000 0.00000000 1.20035700 -1.02213300 2.67823700
9 -4.75111000 -0.69449400 0.83057900 0.07531300 -0.09554300 -0.01484500
10 -1.68807600 0.00004300 -0.00003100 0.02373900 -0.00676800 0.14690400
11 -1.33614300 0.00005300 -0.00001000 0.02592200 0.00450900 0.38004900
12 -4.82049600 -0.50945900 -0.22476100 -0.55713100 0.09927900 1.56147500
13 -1.82699200 -0.00007200 0.00000800 -0.01487100 0.03761200 0.89634400
14 -1.43657300 0.00000800 0.00000400 -0.05788200 -0.05197400 0.74803500
15 -3.99235900 -0.89118600 -1.82791000 -0.71620000 0.44693300 1.79365000
16 -1.40592200 -0.00002700 0.00000000 0.01654100 -0.02437900 0.27905000
17 -1.17535800 0.00012800 -0.00002100 0.04192500 0.05340800 0.56994100
18 -4.52675200 -0.69057500 -1.12074400 -0.64107200 0.31847900 1.75602400
19 -1.74403800 0.00003300 -0.00000400 -0.00916900 -0.02809900 0.72431900
20 -1.36877400 0.00002500 0.00000400 -0.22704800 0.07843600 0.24818000
21 -1.87479800 -0.93512200 0.99917500 1.79809700 0.60097600 0.84312900
22 -1.52344900 0.00003400 0.00003100 0.07543500 0.15680800 0.55183900
23 -1.59927600 0.00000800 0.00001500 0.02972300 -0.03090300 0.78512800
24 5.58312100 0.11572800 0.29500000 1.94756400 -0.06728900 3.12123600
25 0.19684600 -0.00000100 0.00000400 2.79340700 0.00000600 -3.14157700
26 -1.90343200 -16.01610200 -2.61350300 1.97586200 1.15991000 1.84280300
27 6.21448500 0.00001000 0.00002000 -0.90723800 0.51172500 -1.74977200
28 11.94488500 -0.00003200 -0.00019900 -0.91419000 -0.33437400 -1.87616600
29 10.62016900 -0.00000200 0.00000800 -1.75879100 -1.03368600 0.02591600
30 4.75116500 0.69437600 -0.83047400 0.13489800 -0.26683500 0.73932100
31 1.68806100 -0.00002400 0.00000200 -0.00200500 -0.02465900 1.52041700
32 1.33615100 -0.00005000 -0.00001000 0.01118100 -0.03706500 0.07734700
33 4.82051700 0.50934200 0.22486600 -0.16188000 -0.32220700 1.12238200
34 1.82700300 0.00006200 0.00001000 0.01510100 0.03754700 1.65575300
35 1.43658100 -0.00000600 0.00001000 0.01503200 0.00167500 -0.83651700
36 3.99235500 0.89109000 1.82799500 -0.41383600 -0.16958300 1.43490600
37 1.40592200 0.00003100 -0.00000400 -0.01421100 -0.02586600 1.37541000
38 1.17536200 -0.00013200 0.00000400 -0.07487300 0.09798600 -0.69969900
39 4.52676200 0.69046800 1.12084200 -0.34365100 -0.22798800 1.41166500
40 1.74404100 -0.00002700 0.00000100 -0.02639200 -0.01328600 1.51729600
41 1.36876300 -0.00003100 -0.00002000 -0.12191500 0.10180800 -1.06387600
42 2.10920200 1.21154000 -0.81156600 1.74515600 0.71608000 0.34735400
43 1.61730300 -0.08409400 -0.17136300 -0.00389400 -0.07294600 0.12080700
44 1.59178800 -0.07171700 0.01248600 0.03799300 0.07429800 -0.27107500
45 5.51180800 -0.00000600 0.00000400 -0.99849200 0.00000000 0.00000000
46 0.19684600 0.00000600 0.00000000 -0.34822500 0.00001500 -0.00000200
47 0.00000000 0.00000000 0.00000000 0.00000000 0.00000000 -1.57079600
48 -4.03556700 2.94847100 -3.65649800 0.00000000 0.00000000 -3.14156200
49 -7.73373000 20.38313900 -0.73526200 0.44350500 0.24507700 -0.41622500
50 -0.96673800 -0.01506600 -0.82006200 0.00000000 0.00000000 0.00000000
51 0.33536900 -0.00000100 1.02541900 0.00000000 0.00000000 0.00000000
52 0.00000000 -0.28240300 0.38909100 0.00000000 0.00000000 0.00000000
53 4.72605300 -0.00328400 -0.99586500 0.00000000 0.00000000 0.00000000
54 -1.02523600 0.00102100 0.83057100 0.00000000 0.00000000 0.00000000
55 12.55854000 2.22460700 -1.80913900 -0.33928300 1.22459100 1.46351300
56 -4.05635200 -2.26521100 -1.70755300 2.94762400 1.25576900 -2.60506400
57 0.88211100 -0.00328400 -1.44158800 0.00000000 0.00000000 0.00000000
58 -32.12060500 -0.00157300 0.13907200 0.00000000 0.00000000 0.00000000
time 5
0 -0.00000100 7.45008900 -27.50902600 0.00000000 0.00000000 0.00003100
1 -0.00000200 0.00000000 0.00000000 1.57074700 -1.56714200 -1.57074700
2 4.25546500 -0.33518400 -0.00000200 0.00000000 0.00000000 -0.12484800
3 7.43125000 1.49647900 0.00000200 0.00000000 0.00000000 0.24545000
4 5.27847900 0.16554300 0.00000100 0.00000000 0.00000000 0.04851100
5 -0.97952500 -12.00282100 5.65938000 1.97586600 1.15990900 -1.29878500
6 -6.21447800 -0.00001000 -0.00002700 -2.27330800 -0.70471200 1.25942500
7 11.94488900 0.00000000 0.00000000 -0.32279200 -0.33547200 1.86429000
8 10.62019000 0.00000000 0.00000000 1.27766800 -1.07608100 2.63362100
9 -4.75111000 -0.69449400 0.83057900 0.07531300 -0.09554300 -0.01484500
10 -1.68807600 0.00004300 -0.00003100 0.02373900 -0.00676800 0.14690400
11 -1.33614300 0.00005300 -0.00001000 0.02592200 0.00450900 0.38004900
12 -4.82049600 -0.50945900 -0.22476100 -0.55713100 0.09927900 1.56147500
13 -1.82699200 -0.00007200 0.00000800 -0.01487100 0.03761200 0.89634400
14 -1.43657300 0.00000800 0.00000400 -0.05788200 -0.05197400 0.74803500
15 -3.99235900 -0.89118600 -1.82791000 -0.71620000 0.44693300 1.79365000
16 -1.40592200 -0.00002700 0.00000000 0.01654100 -0.02437900 0.27905000
17 -1.17535800 0.00012800 -0.00002100 0.04192500 0.05340800 0.56994100
18 -4.52675200 -0.69057500 -1.12074400 -0.64107200 0.31847900 1.75602400
19 -1.74403800 0.00003300 -0.00000400 -0.00916900 -0.02809900 0.72431900
20 -1.36877400 0.00002500 0.00000400 -0.22704800 0.07843600 0.24818000
21 -1.87479800 -0.93512200 0.99917500 1.79809700 0.60097600 0.84312900
22 -1.52344900 0.00003400 0.00003100 0.07543500 0.15680800 0.55183900
23 -1.59927600 0.00000800 0.00001500 0.02972300 -0.03090300 0.78512800
24 5.58312100 0.11572800 0.29500000 1.94756400 -0.06728900 3.12123600
25 0.19684600 -0.00000100 0.00000400 2.79340700 0.00000600 -3.14157700
26 -1.90343200 -16.01610200 -2.61350300 1.97586200 1.15991000 1.84280300
27 6.21448500 0.00001000 0.00002000 -0.84222600 0.50871000 -1.75626700
28 11.94488500 -0.00003200 -0.00019900 -0.92400700 -0.33718400 -1.84639300
29 10.62016900 -0.00000200 0.00000800 -1.82705300 -1.04579400 0.00431500
30 4.75116500 0.69437600 -0.83047400 0.13489800 -0.26683500 0.73932100
31 1.68806100 -0.00002400 0.00000200 -0.00200500 -0.02465900 1.52041700
32 1.33615100 -0.00005000 -0.00001000 0.01118100 -0.03706500 0.07734700
33 4.82051700 0.50934200 0.22486600 -0.16188000 -0.32220700 1.12238200
34 1.82700300 0.00006200 0.00001000 0.01510100 0.03754700 1.65575300
35 1.43658100 -0.00000600 0.00001000 0.01503200 0.00167500 -0.83651700
36 3.99235500 0.89109000 1.82799500 -0.41383600 -0.16958300 1.43490600
37 1.40592200 0.00003100 -0.00000400 -0.01421100 -0.02586600 1.37541000
38 1.17536200 -0.00013200 0.00000400 -0.07487300 0.09798600 -0.69969900
39 4.52676200 0.69046800 1.12084200 -0.34365100 -0.22798800 1.41166500
40 1.74404100 -0.00002700 0.00000100 -0.02639200 -0.01328600 1.51729600
41 1.36876300 -0.00003100 -0.00002000 -0.12191500 0.10180800 -1.06387600
42 2.10920200 1.21154000 -0.81156600 1.74515600 0.71608000 0.34735400
43 1.61730300 -0.08409400 -0.17136300 -0.00389400 -0.07294600 0.12080700
44 1.59178800 -0.07171700 0.01248600 0.03799300 0.07429800 -0.27107500
45 5.51180800 -0.00000600 0.00000400 -0.99849200 0.00000000 0.00000000
46 0.19684600 0.00000600 0.00000000 -0.34822500 0.00001500 -0.00000200
47 0.00000000 0.00000000 0.00000000 0.00000000 0.00000000 -1.57079600
48 -4.03556700 2.94847100 -3.65649800 0.00000000 0.00000000 -3.14156200
49 -7.08884800 20.42333600 -0.73757600 0.45413800 0.22586600 -0.46795500
50 -0.96673800 -0.01506600 -0.82006200 0.00000000 0.00000000 0.00000000
51 0.33536900 -0.00000100 1.02541900 0.00000000 0.00000000 0.00000000
52 0.00000000 -0.28240300 0.38909100 0.00000000 0.00000000 0.00000000
53 4.72605300 -0.00328400 -0.99586500 0.00000000 0.00000000 0.00000000
54 -1.02523600 0.00102100 0.83057100 0.00000000 0.00000000 0.00000000
55 12.55854000 2.22460700 -1.80913900 -0.33928300 1.22459100 1.46351300
56 -4.05631600 -2.26524900 -1.70757500 2.94762400 1.25576900 -2.60506400
57 0.88211100 -0.00328400 -1.44158800 0.00000000 0.00000000 0.00000000
58 -32.12060500 -0.00157300 0.13907200 0.00000000 0.00000000 0.00000000
time 6
0 -0.00000100 7.45008900 -27.50902600 0.00000000 0.00000000 0.00003100
1 -0.00000200 0.00000000 0.00000000 1.57074700 -1.56714200 -1.57074700
2 4.25546500 -0.33518400 -0.00000200 0.00000000 0.00000000 -0.12484800
3 7.43125000 1.49647900 0.00000200 0.00000000 0.00000000 0.24545000
4 5.27847900 0.16554300 0.00000100 0.00000000 0.00000000 0.04851100
5 -0.29357900 -10.88426700 4.99202700 1.97586600 1.15990900 -1.29878500
6 -6.21447800 -0.00001000 -0.00002700 -2.23430300 -0.71479600 1.33444500
7 11.94488900 0.00000000 0.00000000 -0.33773600 -0.33078000 1.90999800
8 10.62019000 0.00000000 0.00000000 1.44363000 -1.10184500 2.46070300
9 -4.75111000 -0.69449400 0.83057900 0.07531300 -0.09554300 -0.01484500
10 -1.68807600 0.00004300 -0.00003100 0.02373900 -0.00676800 0.14690400
11 -1.33614300 0.00005300 -0.00001000 0.02592200 0.00450900 0.38004900
12 -4.82049600 -0.50945900 -0.22476100 -0.55713100 0.09927900 1.56147500
13 -1.82699200 -0.00007200 0.00000800 -0.01487100 0.03761200 0.89634400
14 -1.43657300 0.00000800 0.00000400 -0.05788200 -0.05197400 0.74803500
15 -3.99235900 -0.89118600 -1.82791000 -0.71620000 0.44693300 1.79365000
16 -1.40592200 -0.00002700 0.00000000 0.01654100 -0.02437900 0.27905000
17 -1.17535800 0.00012800 -0.00002100 0.04192500 0.05340800 0.56994100
18 -4.52675200 -0.69057500 -1.12074400 -0.64107200 0.31847900 1.75602400
19 -1.74403800 0.00003300 -0.00000400 -0.00916900 -0.02809900 0.72431900
20 -1.36877400 0.00002500 0.00000400 -0.22704800 0.07843600 0.24818000
21 -1.87479800 -0.93512200 0.99917500 1.79809700 0.60097600 0.84312900
22 -1.52344900 0.00003400 0.00003100 0.07543500 0.15680800 0.55183900
23 -1.59927600 0.00000800 0.00001500 0.02972300 -0.03090300 0.78512800
24 5.58312100 0.11572800 0.29500000 1.94756400 -0.06728900 3.12123600
25 0.19684600 -0.00000100 0.00000400 2.79340700 0.00000600 -3.14157700
26 -1.90343200 -16.01610200 -2.61350300 1.97586200 1.15991000 1.84280300
27 6.21448500 0.00001000 0.00002000 -0.74157200 0.49325500 -1.77780900
28 11.94488500 -0.00003200 -0.00019900 -0.94821000 -0.34276800 -1.77372800
29 10.62016900 -0.00000200 0.00000800 -2.00622400 -1.04546700 0.03281400
30 4.75116500 0.69437600 -0.83047400 0.13489800 -0.26683500 0.73932100
31 1.68806100 -0.00002400 0.00000200 -0.00200500 -0.02465900 1.52041700
32 1.33615100 -0.00005000 -0.00001000 0.01118100 -0.03706500 0.07734700
33 4.82051700 0.50934200 0.22486600 -0.16188000 -0.32220700 1.12238200
34 1.82700300 0.00006200 0.00001000 0.01510100 0.03754700 1.65575300
35 1.43658100 -0.00000600 0.00001000 0.01503200 0.00167500 -0.83651700
36 3.99235500 0.89109000 1.82799500 -0.41383600 -0.16958300 1.43490600
37 1.40592200 0.00003100 -0.00000400 -0.01421100 -0.02586600 1.37541000
38 1.17536200 -0.00013200 0.00000400 -0.07487300 0.09798600 -0.69969900
39 4.52676200 0.69046800 1.12084200 -0.34365100 -0.22798800 1.41166500
40 1.74404100 -0.00002700 0.00000100 -0.02639200 -0.01328600 1.51729600
41 1.36876300 -0.00003100 -0.00002000 -0.12191500 0.10180800 -1.06387600
42 2.10920200 1.21154000 -0.81156600 1.74515600 0.71608000 0.34735400
43 1.61730300 -0.08409400 -0.17136300 -0.00389400 -0.07294600 0.12080700
44 1.59178800 -0.07171700 0.01248600 0.03799300 0.07429800 -0.27107500
45 5.51180800 -0.00000600 0.00000400 -0.99849200 0.00000000 0.00000000
46 0.19684600 0.00000600 0.00000000 -0.34822500 0.00001500 -0.00000200
47 0.00000000 0.00000000 0.00000000 0.00000000 0.00000000 -1.57079600
48 -4.03556700 2.94847100 -3.65649800 0.00000000 0.00000000 -3.14156200
49 -6.03101800 20.46779300 -0.74117400 0.46378000 0.19310900 -0.58754700
50 -0.96673800 -0.01506600 -0.82006200 0.00000000 0.00000000 0.00000000
51 0.33536900 -0.00000100 1.02541900 0.00000000 0.00000000 0.00000000
52 0.00000000 -0.28240300 0.38909100 0.00000000 0.00000000 0.00000000
53 4.72605300 -0.00328400 -0.99586500 0.00000000 0.00000000 0.00000000
54 -1.02523600 0.00102100 0.83057100 0.00000000 0.00000000 0.00000000
55 12.55854000 2.22460700 -1.80913900 -0.33928300 1.22459100 1.46351300
56 -4.05625800 -2.26537100 -1.70761300 2.94762400 1.25576900 -2.60506400
57 0.88211100 -0.00328400 -1.44158800 0.00000000 0.00000000 0.00000000
58 -32.12060500 -0.00157300 0.13907200 0.00000000 0.00000000 0.00000000
time 7
0 -0.00000100 7.45008900 -27.50902600 0.00000000 0.00000000 0.00003100
1 -0.00000200 0.00000000 0.00000000 1.57074700 -1.56714200 -1.57074700
2 4.25546500 -0.33518400 -0.00000200 0.00000000 0.00000000 -0.12484800
3 7.43125000 1.49647900 0.00000200 0.00000000 0.00000000 0.24545000
4 5.27847900 0.16554300 0.00000100 0.00000000 0.00000000 0.04851100
5 0.49274600 -9.60202200 4.22701300 1.97586600 1.15990900 -1.29878500
6 -6.21447800 -0.00001000 -0.00002700 -2.29201500 -0.73007700 1.44226300
7 11.94488900 0.00000000 0.00000000 -0.36967200 -0.31835700 2.01020700
8 10.62019000 0.00000000 0.00000000 1.57128700 -0.99921300 2.23626200
9 -4.75111000 -0.69449400 0.83057900 0.07531300 -0.09554300 -0.01484500
10 -1.68807600 0.00004300 -0.00003100 0.02373900 -0.00676800 0.14690400
11 -1.33614300 0.00005300 -0.00001000 0.02592200 0.00450900 0.38004900
12 -4.82049600 -0.50945900 -0.22476100 -0.55713100 0.09927900 1.56147500
13 -1.82699200 -0.00007200 0.00000800 -0.01487100 0.03761200 0.89634400
14 -1.43657300 0.00000800 0.00000400 -0.05788200 -0.05197400 0.74803500
15 -3.99235900 -0.89118600 -1.82791000 -0.71620000 0.44693300 1.79365000
16 -1.40592200 -0.00002700 0.00000000 0.01654100 -0.02437900 0.27905000
17 -1.17535800 0.00012800 -0.00002100 0.04192500 0.05340800 0.56994100
18 -4.52675200 -0.69057500 -1.12074400 -0.64107200 0.31847900 1.75602400
19 -1.74403800 0.00003300 -0.00000400 -0.00916900 -0.02809900 0.72431900
20 -1.36877400 0.00002500 0.00000400 -0.22704800 0.07843600 0.24818000
21 -1.87479800 -0.93512200 0.99917500 1.79809700 0.60097600 0.84312900
22 -1.52344900 0.00003400 0.00003100 0.07543500 0.15680800 0.55183900
23 -1.59927600 0.00000800 0.00001500 0.02972300 -0.03090300 0.78512800
24 5.58312100 0.11572800 0.29500000 1.94756400 -0.06728900 3.12123600
25 0.19684600 -0.00000100 0.00000400 2.79340700 0.00000600 -3.14157700
26 -1.90343200 -16.01610200 -2.61350300 1.97586200 1.15991000 1.84280300
27 6.21448500 0.00001000 0.00002000 -0.65128500 0.46206500 -1.81974300
28 11.94488500 -0.00003200 -0.00019900 -0.98927000 -0.34832300 -1.65265900
29 10.62016900 -0.00000200 0.00000800 -2.30136700 -0.97935700 0.17250000
30 4.75116500 0.69437600 -0.83047400 0.13489800 -0.26683500 0.73932100
31 1.68806100 -0.00002400 0.00000200 -0.00200500 -0.02465900 1.52041700
32 1.33615100 -0.00005000 -0.00001000 0.01118100 -0.03706500 0.07734700
33 4.82051700 0.50934200 0.22486600 -0.16188000 -0.32220700 1.12238200
34 1.82700300 0.00006200 0.00001000 0.01510100 0.03754700 1.65575300
35 1.43658100 -0.00000600 0.00001000 0.01503200 0.00167500 -0.83651700
36 3.99235500 0.89109000 1.82799500 -0.41383600 -0.16958300 1.43490600
37 1.40592200 0.00003100 -0.00000400 -0.01421100 -0.02586600 1.37541000
38 1.17536200 -0.00013200 0.00000400 -0.07487300 0.09798600 -0.69969900
39 4.52676200 0.69046800 1.12084200 -0.34365100 -0.22798800 1.41166500
40 1.74404100 -0.00002700 0.00000100 -0.02639200 -0.01328600 1.51729600
41 1.36876300 -0.00003100 -0.00002000 -0.12191500 0.10180800 -1.06387600
42 2.10920200 1.21154000 -0.81156600 1.74515600 0.71608000 0.34735400
43 1.61730300 -0.08409400 -0.17136300 -0.00389400 -0.07294600 0.12080700
44 1.59178800 -0.07171700 0.01248600 0.03799300 0.07429800 -0.27107500
45 5.51180800 -0.00000600 0.00000400 -0.99849200 0.00000000 0.00000000
46 0.19684600 0.00000600 0.00000000 -0.34822500 0.00001500 -0.00000200
47 0.00000000 0.00000000 0.00000000 0.00000000 0.00000000 -1.57079600
48 -4.03556700 2.94847100 -3.65649800 0.00000000 0.00000000 -3.14156200
49 -5.01606500 20.51480900 -0.74415300 0.45428500 0.15581300 -0.78450500
50 -0.96673800 -0.01506600 -0.82006200 0.00000000 0.00000000 0.00000000
51 0.33536900 -0.00000100 1.02541900 0.00000000 0.00000000 0.00000000
52 0.00000000 -0.28240300 0.38909100 0.00000000 0.00000000 0.00000000
53 4.72605300 -0.00328400 -0.99586500 0.00000000 0.00000000 0.00000000
54 -1.02523600 0.00102100 0.83057100 0.00000000 0.00000000 0.00000000
55 12.55854000 2.22460700 -1.80913900 -0.33928300 1.22459100 1.46351300
56 -4.05617500 -2.26558300 -1.70763600 2.94762400 1.25576900 -2.60506400
57 0.88211100 -0.00328400 -1.44158800 0.00000000 0.00000000 0.00000000
58 -32.12060500 -0.00157300 0.13907200 0.00000000 0.00000000 0.00000000
time 8
0 -0.00000100 7.45008900 -27.50902600 0.00000000 0.00000000 0.00003100
1 -0.00000200 0.00000000 0.00000000 1.57074700 -1.56714200 -1.57074700
2 4.25546500 -0.33518400 -0.00000200 0.00000000 0.00000000 -0.12484800
3 7.43125000 1.49647900 0.00000200 0.00000000 0.00000000 0.24545000
4 5.27847900 0.16554300 0.00000100 0.00000000 0.00000000 0.04851100
5 1.27907300 -8.31977800 3.46199800 1.97586600 1.15990900 -1.29878500
6 -6.21447800 -0.00001000 -0.00002700 -2.44413800 -0.72894600 1.55025600
7 11.94488900 0.00000000 0.00000000 -0.38725500 -0.30993500 2.06687700
8 10.62019000 0.00000000 0.00000000 1.52918600 -0.81555900 2.14739300
9 -4.75111000 -0.69449400 0.83057900 0.07531300 -0.09554300 -0.01484500
10 -1.68807600 0.00004300 -0.00003100 0.02373900 -0.00676800 0.14690400
11 -1.33614300 0.00005300 -0.00001000 0.02592200 0.00450900 0.38004900
12 -4.82049600 -0.50945900 -0.22476100 -0.55713100 0.09927900 1.56147500
13 -1.82699200 -0.00007200 0.00000800 -0.01487100 0.03761200 0.89634400
14 -1.43657300 0.00000800 0.00000400 -0.05788200 -0.05197400 0.74803500
15 -3.99235900 -0.89118600 -1.82791000 -0.71620000 0.44693300 1.79365000
16 -1.40592200 -0.00002700 0.00000000 0.01654100 -0.02437900 0.27905000
17 -1.17535800 0.00012800 -0.00002100 0.04192500 0.05340800 0.56994100
18 -4.52675200 -0.69057500 -1.12074400 -0.64107200 0.31847900 1.75602400
19 -1.74403800 0.00003300 -0.00000400 -0.00916900 -0.02809900 0.72431900
20 -1.36877400 0.00002500 0.00000400 -0.22704800 0.07843600 0.24818000
21 -1.87479800 -0.93512200 0.99917500 1.79809700 0.60097600 0.84312900
22 -1.52344900 0.00003400 0.00003100 0.07543500 0.15680800 0.55183900
23 -1.59927600 0.00000800 0.00001500 0.02972300 -0.03090300 0.78512800
24 5.58312100 0.11572800 0.29500000 1.94756400 -0.06728900 3.12123600
25 0.19684600 -0.00000100 0.00000400 2.79340700 0.00000600 -3.14157700
26 -1.90343200 -16.01610200 -2.61350300 1.97586200 1.15991000 1.84280300
27 6.21448500 0.00001000 0.00002000 -0.60739800 0.43416800 -1.85753700
28 11.94488500 -0.00003200 -0.00019900 -1.02590100 -0.34928900 -1.54566100
29 10.62016900 -0.00000200 0.00000800 -2.52020200 -0.86325600 0.30806300
30 4.75116500 0.69437600 -0.83047400 0.13489800 -0.26683500 0.73932100
31 1.68806100 -0.00002400 0.00000200 -0.00200500 -0.02465900 1.52041700
32 1.33615100 -0.00005000 -0.00001000 0.01118100 -0.03706500 0.07734700
33 4.82051700 0.50934200 0.22486600 -0.16188000 -0.32220700 1.12238200
34 1.82700300 0.00006200 0.00001000 0.01510100 0.03754700 1.65575300
35 1.43658100 -0.00000600 0.00001000 0.01503200 0.00167500 -0.83651700
36 3.99235500 0.89109000 1.82799500 -0.41383600 -0.16958300 1.43490600
37 1.40592200 0.00003100 -0.00000400 -0.01421100 -0.02586600 1.37541000
38 1.17536200 -0.00013200 0.00000400 -0.07487300 0.09798600 -0.69969900
39 4.52676200 0.69046800 1.12084200 -0.34365100 -0.22798800 1.41166500
40 1.74404100 -0.00002700 0.00000100 -0.02639200 -0.01328600 1.51729600
41 1.36876300 -0.00003100 -0.00002000 -0.12191500 0.10180800 -1.06387600
42 2.10920200 1.21154000 -0.81156600 1.74515600 0.71608000 0.34735400
43 1.61730300 -0.08409400 -0.17136300 -0.00389400 -0.07294600 0.12080700
44 1.59178800 -0.07171700 0.01248600 0.03799300 0.07429800 -0.27107500
45 5.51180800 -0.00000600 0.00000400 -0.99849200 0.00000000 0.00000000
46 0.19684600 0.00000600 0.00000000 -0.34822500 0.00001500 -0.00000200
47 0.00000000 0.00000000 0.00000000 0.00000000 0.00000000 -1.57079600
48 -4.03556700 2.94847100 -3.65649800 0.00000000 0.00000000 -3.14156200
49 -4.56171400 20.56267500 -0.74491600 0.42727600 0.12672300 -0.97034900
50 -0.96673800 -0.01506600 -0.82006200 0.00000000 0.00000000 0.00000000
51 0.33536900 -0.00000100 1.02541900 0.00000000 0.00000000 0.00000000
52 0.00000000 -0.28240300 0.38909100 0.00000000 0.00000000 0.00000000
53 4.72605300 -0.00328400 -0.99586500 0.00000000 0.00000000 0.00000000
54 -1.02523600 0.00102100 0.83057100 0.00000000 0.00000000 0.00000000
55 12.55854000 2.22460700 -1.80913900 -0.33928300 1.22459100 1.46351300
56 -4.05616900 -2.26561500 -1.70763600 2.94762400 1.25576900 -2.60506400
57 0.88211100 -0.00328400 -1.44158800 0.00000000 0.00000000 0.00000000
58 -32.12060500 -0.00157300 0.13907200 0.00000000 0.00000000 0.00000000
time 9
0 -0.00000100 7.45008900 -27.50902600 0.00000000 0.00000000 0.00003100
1 -0.00000200 0.00000000 0.00000000 1.57074700 -1.56714200 -1.57074700
2 4.25546500 -0.33518400 -0.00000200 0.00000000 0.00000000 -0.12484800
3 7.43125000 1.49647900 0.00000200 0.00000000 0.00000000 0.24545000
4 5.27847900 0.16554300 0.00000100 0.00000000 0.00000000 0.04851100
5 1.96501800 -7.20122300 2.79464700 1.97586600 1.15990900 -1.29878500
6 -6.21447800 -0.00001000 -0.00002700 -2.58993400 -0.70795300 1.60970000
7 11.94488900 0.00000000 0.00000000 -0.39187000 -0.30752100 2.08207500
8 10.62019000 0.00000000 0.00000000 1.43956400 -0.62437600 2.07882500
9 -4.75111000 -0.69449400 0.83057900 0.07531300 -0.09554300 -0.01484500
10 -1.68807600 0.00004300 -0.00003100 0.02373900 -0.00676800 0.14690400
11 -1.33614300 0.00005300 -0.00001000 0.02592200 0.00450900 0.38004900
12 -4.82049600 -0.50945900 -0.22476100 -0.55713100 0.09927900 1.56147500
13 -1.82699200 -0.00007200 0.00000800 -0.01487100 0.03761200 0.89634400
14 -1.43657300 0.00000800 0.00000400 -0.05788200 -0.05197400 0.74803500
15 -3.99235900 -0.89118600 -1.82791000 -0.71620000 0.44693300 1.79365000
16 -1.40592200 -0.00002700 0.00000000 0.01654100 -0.02437900 0.27905000
17 -1.17535800 0.00012800 -0.00002100 0.04192500 0.05340800 0.56994100
18 -4.52675200 -0.69057500 -1.12074400 -0.64107200 0.31847900 1.75602400
19 -1.74403800 0.00003300 -0.00000400 -0.00916900 -0.02809900 0.72431900
20 -1.36877400 0.00002500 0.00000400 -0.22704800 0.07843600 0.24818000
21 -1.87479800 -0.93512200 0.99917500 1.79809700 0.60097600 0.84312900
22 -1.52344900 0.00003400 0.00003100 0.07543500 0.15680800 0.55183900
23 -1.59927600 0.00000800 0.00001500 0.02972300 -0.03090300 0.78512800
24 5.58312100 0.11572800 0.29500000 1.94756400 -0.06728900 3.12123600
25 0.19684600 -0.00000100 0.00000400 2.79340700 0.00000600 -3.14157700
26 -1.90343200 -16.01610200 -2.61350300 1.97586200 1.15991000 1.84280300
27 6.21448500 0.00001000 0.00002000 -0.59031000 0.40443700 -1.89346500
28 11.94488500 -0.00003200 -0.00019900 -1.05589600 -0.34730700 -1.45774200
29 10.62016900 -0.00000200 0.00000800 -2.64753500 -0.74316200 0.41828900
30 4.75116500 0.69437600 -0.83047400 0.13489800 -0.26683500 0.73932100
31 1.68806100 -0.00002400 0.00000200 -0.00200500 -0.02465900 1.52041700
32 1.33615100 -0.00005000 -0.00001000 0.01118100 -0.03706500 0.07734700
33 4.82051700 0.50934200 0.22486600 -0.16188000 -0.32220700 1.12238200
34 1.82700300 0.00006200 0.00001000 0.01510100 0.03754700 1.65575300
35 1.43658100 -0.00000600 0.00001000 0.01503200 0.00167500 -0.83651700
36 3.99235500 0.89109000 1.82799500 -0.41383600 -0.16958300 1.43490600
37 1.40592200 0.00003100 -0.00000400 -0.01421100 -0.02586600 1.37541000
38 1.17536200 -0.00013200 0.00000400 -0.07487300 0.09798600 -0.69969900
39 4.52676200 0.69046800 1.12084200 -0.34365100 -0.22798800 1.41166500
40 1.74404100 -0.00002700 0.00000100 -0.02639200 -0.01328600 1.51729600
41 1.36876300 -0.00003100 -0.00002000 -0.12191500 0.10180800 -1.06387600
42 2.10920200 1.21154000 -0.81156600 1.74515600 0.71608000 0.34735400
43 1.61730300 -0.08409400 -0.17136300 -0.00389400 -0.07294600 0.12080700
44 1.59178800 -0.07171700 0.01248600 0.03799300 0.07429800 -0.27107500
45 5.51180800 -0.00000600 0.00000400 -0.99849200 0.00000000 0.00000000
46 0.19684600 0.00000600 0.00000000 -0.34822500 0.00001500 -0.00000200
47 0.00000000 0.00000000 0.00000000 0.00000000 0.00000000 -1.57079600
48 -4.03556700 2.94847100 -3.65649800 0.00000000 0.00000000 -3.14156200
49 -4.35071600 20.60969200 -0.63279700 0.38098700 0.10437900 -1.12897000
50 -0.96673800 -0.01506600 -0.82006200 0.00000000 0.00000000 0.00000000
51 0.33536900 -0.00000100 1.02541900 0.00000000 0.00000000 0.00000000
52 0.00000000 -0.28240300 0.38909100 0.00000000 0.00000000 0.00000000
53 4.72605300 -0.00328400 -0.99586500 0.00000000 0.00000000 0.00000000
54 -1.02523600 0.00102100 0.83057100 0.00000000 0.00000000 0.00000000
55 12.55854000 2.22460700 -1.80913900 -0.33928300 1.22459100 1.46351300
56 -4.05614700 -2.26564100 -1.70763400 2.94762400 1.25576900 -2.60506400
57 0.88211100 -0.00328400 -1.44158800 0.00000000 0.00000000 0.00000000
58 -32.12060500 -0.00157300 0.13907200 0.00000000 0.00000000 0.00000000
time 10
0 -0.00000100 7.45008900 -27.50902600 0.00000000 0.00000000 0.00003100
1 -0.00000200 0.00000000 0.00000000 1.57074700 -1.56714200 -1.57074700
2 4.25546500 -0.33518400 -0.00000200 0.00000000 0.00000000 -0.12484800
3 7.43125000 1.49647900 0.00000200 0.00000000 0.00000000 0.24545000
4 5.27847900 0.16554300 0.00000100 0.00000000 0.00000000 0.04851100
5 2.45019900 -6.41004900 2.32261400 1.97586600 1.15990900 -1.29878500
6 -6.21447800 -0.00001000 -0.00002700 -2.67986700 -0.67826100 1.59976000
7 11.94488900 0.00000000 0.00000000 -0.39149900 -0.30772400 2.08092600
8 10.62019000 0.00000000 0.00000000 1.34545700 -0.45234900 1.97886700
9 -4.75111000 -0.69449400 0.83057900 0.07531300 -0.09554300 -0.01484500
10 -1.68807600 0.00004300 -0.00003100 0.02373900 -0.00676800 0.14690400
11 -1.33614300 0.00005300 -0.00001000 0.02592200 0.00450900 0.38004900
12 -4.82049600 -0.50945900 -0.22476100 -0.55713100 0.09927900 1.56147500
13 -1.82699200 -0.00007200 0.00000800 -0.01487100 0.03761200 0.89634400
14 -1.43657300 0.00000800 0.00000400 -0.05788200 -0.05197400 0.74803500
15 -3.99235900 -0.89118600 -1.82791000 -0.71620000 0.44693300 1.79365000
16 -1.40592200 -0.00002700 0.00000000 0.01654100 -0.02437900 0.27905000
17 -1.17535800 0.00012800 -0.00002100 0.04192500 0.05340800 0.56994100
18 -4.52675200 -0.69057500 -1.12074400 -0.64107200 0.31847900 1.75602400
19 -1.74403800 0.00003300 -0.00000400 -0.00916900 -0.02809900 0.72431900
20 -1.36877400 0.00002500 0.00000400 -0.22704800 0.07843600 0.24818000
21 -1.87479800 -0.93512200 0.99917500 1.79809700 0.60097600 0.84312900
22 -1.52344900 0.00003400 0.00003100 0.07543500 0.15680800 0.55183900
23 -1.59927600 0.00000800 0.00001500 0.02972300 -0.03090300 0.78512800
24 5.58312100 0.11572800 0.29500000 1.94756400 -0.06728900 3.12123600
25 0.19684600 -0.00000100 0.00000400 2.79340700 0.00000600 -3.14157700
26 -1.90343200 -16.01610200 -2.61350300 1.97586200 1.15991000 1.84280300
27 6.21448500 0.00001000 0.00002000 -0.59084900 0.36696700 -1.93181200
28 11.94488500 -0.00003200 -0.00019900 -1.08238000 -0.34348600 -1.37944900
29 10.62016900 -0.00000200 0.00000800 -2.71215100 -0.63395400 0.52615000
30 4.75116500 0.69437600 -0.83047400 0.13489800 -0.26683500 0.73932100
31 1.68806100 -0.00002400 0.00000200 -0.00200500 -0.02465900 1.52041700
32 1.33615100 -0.00005000 -0.00001000 0.01118100 -0.03706500 0.07734700
33 4.82051700 0.50934200 0.22486600 -0.16188000 -0.32220700 1.12238200
34 1.82700300 0.00006200 0.00001000 0.01510100 0.03754700 1.65575300
35 1.43658100 -0.00000600 0.00001000 0.01503200 0.00167500 -0.83651700
36 3.99235500 0.89109000 1.82799500 -0.41383600 -0.16958300 1.43490600
37 1.40592200 0.00003100 -0.00000400 -0.01421100 -0.02586600 1.37541000
38 1.17536200 -0.00013200 0.00000400 -0.07487300 0.09798600 -0.69969900
39 4.52676200 0.69046800 1.12084200 -0.34365100 -0.22798800 1.41166500
40 1.74404100 -0.00002700 0.00000100 -0.02639200 -0.01328600 1.51729600
41 1.36876300 -0.00003100 -0.00002000 -0.12191500 0.10180800 -1.06387600
42 2.10920200 1.21154000 -0.81156600 1.74515600 0.71608000 0.34735400
43 1.61730300 -0.08409400 -0.17136300 -0.00389400 -0.07294600 0.12080700
44 1.59178800 -0.07171700 0.01248600 0.03799300 0.07429800 -0.27107500
45 5.51180800 -0.00000600 0.00000400 -0.99849200 0.00000000 0.00000000
46 0.19684600 0.00000600 0.00000000 -0.34822500 0.00001500 -0.00000200
47 0.00000000 0.00000000 0.00000000 0.00000000 0.00000000 -1.57079600
48 -4.03556700 2.94847100 -3.65649800 0.00000000 0.00000000 -3.14156200
49 -4.19952700 20.65414800 -0.34365000 0.31039800 0.08470900 -1.26471500
50 -0.96673800 -0.01506600 -0.82006200 0.00000000 0.00000000 0.00000000
51 0.33536900 -0.00000100 1.02541900 0.00000000 0.00000000 0.00000000
52 0.00000000 -0.28240300 0.38909100 0.00000000 0.00000000 0.00000000
53 4.72605300 -0.00328400 -0.99586500 0.00000000 0.00000000 0.00000000
54 -1.02523600 0.00102100 0.83057100 0.00000000 0.00000000 0.00000000
55 12.55854000 2.22460700 -1.80913900 -0.33928300 1.22459100 1.46351300
56 -4.05613700 -2.26565400 -1.70763500 2.94762400 1.25576900 -2.60506400
57 0.88211100 -0.00328400 -1.44158800 0.00000000 0.00000000 0.00000000
58 -32.12060500 -0.00157300 0.13907200 0.00000000 0.00000000 0.00000000
time 11
0 -0.00000100 7.45008900 -27.50902600 0.00000000 0.00000000 0.00003100
1 -0.00000200 0.00000000 0.00000000 1.57074700 -1.56714200 -1.57074700
2 4.25546500 -0.33518400 -0.00000200 0.00000000 0.00000000 -0.12484800
3 7.43125000 1.49647900 0.00000200 0.00000000 0.00000000 0.24545000
4 5.27847900 0.16554300 0.00000100 0.00000000 0.00000000 0.04851100
5 2.63423300 -6.10995000 2.14356900 1.97586600 1.15990900 -1.29878500
6 -6.21447800 -0.00001000 -0.00002700 -2.71055500 -0.64699800 1.52370700
7 11.94488900 0.00000000 0.00000000 -0.39216800 -0.30743200 2.08302200
8 10.62019000 0.00000000 0.00000000 1.26345100 -0.30365800 1.83890500
9 -4.75111000 -0.69449400 0.83057900 0.07531300 -0.09554300 -0.01484500
10 -1.68807600 0.00004300 -0.00003100 0.02373900 -0.00676800 0.14690400
11 -1.33614300 0.00005300 -0.00001000 0.02592200 0.00450900 0.38004900
12 -4.82049600 -0.50945900 -0.22476100 -0.55713100 0.09927900 1.56147500
13 -1.82699200 -0.00007200 0.00000800 -0.01487100 0.03761200 0.89634400
14 -1.43657300 0.00000800 0.00000400 -0.05788200 -0.05197400 0.74803500
15 -3.99235900 -0.89118600 -1.82791000 -0.71620000 0.44693300 1.79365000
16 -1.40592200 -0.00002700 0.00000000 0.01654100 -0.02437900 0.27905000
17 -1.17535800 0.00012800 -0.00002100 0.04192500 0.05340800 0.56994100
18 -4.52675200 -0.69057500 -1.12074400 -0.64107200 0.31847900 1.75602400
19 -1.74403800 0.00003300 -0.00000400 -0.00916900 -0.02809900 0.72431900
20 -1.36877400 0.00002500 0.00000400 -0.22704800 0.07843600 0.24818000
21 -1.87479800 -0.93512200 0.99917500 1.79809700 0.60097600 0.84312900
22 -1.52344900 0.00003400 0.00003100 0.07543500 0.15680800 0.55183900
23 -1.59927600 0.00000800 0.00001500 0.02972300 -0.03090300 0.78512800
24 5.58312100 0.11572800 0.29500000 1.94756400 -0.06728900 3.12123600
25 0.19684600 -0.00000100 0.00000400 2.79340700 0.00000600 -3.14157700
26 -1.90343200 -16.01610200 -2.61350300 1.97586200 1.15991000 1.84280300
27 6.21448500 0.00001000 0.00002000 -0.60120000 0.32639300 -1.96744300
28 11.94488500 -0.00003200 -0.00019900 -1.10545500 -0.33836300 -1.31039400
29 10.62016900 -0.00000200 0.00000800 -2.73477000 -0.54136400 0.63110500
30 4.75116500 0.69437600 -0.83047400 0.13489800 -0.26683500 0.73932100
31 1.68806100 -0.00002400 0.00000200 -0.00200500 -0.02465900 1.52041700
32 1.33615100 -0.00005000 -0.00001000 0.01118100 -0.03706500 0.07734700
33 4.82051700 0.50934200 0.22486600 -0.16188000 -0.32220700 1.12238200
34 1.82700300 0.00006200 0.00001000 0.01510100 0.03754700 1.65575300
35 1.43658100 -0.00000600 0.00001000 0.01503200 0.00167500 -0.83651700
36 3.99235500 0.89109000 1.82799500 -0.41383600 -0.16958300 1.43490600
37 1.40592200 0.00003100 -0.00000400 -0.01421100 -0.02586600 1.37541000
38 1.17536200 -0.00013200 0.00000400 -0.07487300 0.09798600 -0.69969900
39 4.52676200 0.69046800 1.12084200 -0.34365100 -0.22798800 1.41166500
40 1.74404100 -0.00002700 0.00000100 -0.02639200 -0.01328600 1.51729600
41 1.36876300 -0.00003100 -0.00002000 -0.12191500 0.10180800 -1.06387600
42 2.10920200 1.21154000 -0.81156600 1.74515600 0.71608000 0.34735400
43 1.61730300 -0.08409400 -0.17136300 -0.00389400 -0.07294600 0.12080700
44 1.59178800 -0.07171700 0.01248600 0.03799300 0.07429800 -0.27107500
45 5.51180800 -0.00000600 0.00000400 -0.99849200 0.00000000 0.00000000
46 0.19684600 0.00000600 0.00000000 -0.34822500 0.00001500 -0.00000200
47 0.00000000 0.00000000 0.00000000 0.00000000 0.00000000 -1.57079600
48 -4.03556700 2.94847100 -3.65649800 0.00000000 0.00000000 -3.14156200
49 -4.09818100 20.69434500 0.05171500 0.22736600 0.06402200 -1.37610600
50 -0.96673800 -0.01506600 -0.82006200 0.00000000 0.00000000 0.00000000
51 0.33536900 -0.00000100 1.02541900 0.00000000 0.00000000 0.00000000
52 0.00000000 -0.28240300 0.38909100 0.00000000 0.00000000 0.00000000
53 4.72605300 -0.00328400 -0.99586500 0.00000000 0.00000000 0.00000000
54 -1.02523600 0.00102100 0.83057100 0.00000000 0.00000000 0.00000000
55 12.55854000 2.22460700 -1.80913900 -0.33928300 1.22459100 1.46351300
56 -4.05613500 -2.26565700 -1.70763400 2.94762400 1.25576900 -2.60506400
57 0.88211100 -0.00328400 -1.44158800 0.00000000 0.00000000 0.00000000
58 -32.12060500 -0.00157300 0.13907200 0.00000000 0.00000000 0.00000000
time 12
0 -0.00000100 7.45008900 -27.50902600 0.00000000 0.00000000 0.00003100
1 -0.00000200 0.00000000 0.00000000 1.57074700 -1.56714200 -1.57074700
2 4.25546500 -0.33518400 -0.00000200 0.00000000 0.00000000 -0.12484800
3 7.43125000 1.49647900 0.00000200 0.00000000 0.00000000 0.24545000
4 5.27847900 0.16554300 0.00000100 0.00000000 0.00000000 0.04851100
5 2.63423300 -6.10995000 2.14356900 1.97586600 1.15990900 -1.29878500
6 -6.21447800 -0.00001000 -0.00002700 -2.70736100 -0.61155300 1.41942600
7 11.94488900 0.00000000 0.00000000 -0.39015200 -0.30848700 2.07643200
8 10.62019000 0.00000000 0.00000000 1.18429400 -0.18275000 1.70129400
9 -4.75111000 -0.69449400 0.83057900 0.07531300 -0.09554300 -0.01484500
10 -1.68807600 0.00004300 -0.00003100 0.02373900 -0.00676800 0.14690400
11 -1.33614300 0.00005300 -0.00001000 0.02592200 0.00450900 0.38004900
12 -4.82049600 -0.50945900 -0.22476100 -0.55713100 0.09927900 1.56147500
13 -1.82699200 -0.00007200 0.00000800 -0.01487100 0.03761200 0.89634400
14 -1.43657300 0.00000800 0.00000400 -0.05788200 -0.05197400 0.74803500
15 -3.99235900 -0.89118600 -1.82791000 -0.71620000 0.44693300 1.79365000
16 -1.40592200 -0.00002700 0.00000000 0.01654100 -0.02437900 0.27905000
17 -1.17535800 0.00012800 -0.00002100 0.04192500 0.05340800 0.56994100
18 -4.52675200 -0.69057500 -1.12074400 -0.64107200 0.31847900 1.75602400
19 -1.74403800 0.00003300 -0.00000400 -0.00916900 -0.02809900 0.72431900
20 -1.36877400 0.00002500 0.00000400 -0.22704800 0.07843600 0.24818000
21 -1.87479800 -0.93512200 0.99917500 1.79809700 0.60097600 0.84312900
22 -1.52344900 0.00003400 0.00003100 0.07543500 0.15680800 0.55183900
23 -1.59927600 0.00000800 0.00001500 0.02972300 -0.03090300 0.78512800
24 5.58312100 0.11572800 0.29500000 1.94756400 -0.06728900 3.12123600
25 0.19684600 -0.00000100 0.00000400 2.79340700 0.00000600 -3.14157700
26 -1.90343200 -16.01610200 -2.61350300 1.97586200 1.15991000 1.84280300
27 6.21448500 0.00001000 0.00002000 -0.61531500 0.28631100 -1.99766700
28 11.94488500 -0.00003200 -0.00019900 -1.12510200 -0.33290500 -1.25091400
29 10.62016900 -0.00000200 0.00000800 -2.73132800 -0.46898900 0.72761400
30 4.75116500 0.69437600 -0.83047400 0.13489800 -0.26683500 0.73932100
31 1.68806100 -0.00002400 0.00000200 -0.00200500 -0.02465900 1.52041700
32 1.33615100 -0.00005000 -0.00001000 0.01118100 -0.03706500 0.07734700
33 4.82051700 0.50934200 0.22486600 -0.16188000 -0.32220700 1.12238200
34 1.82700300 0.00006200 0.00001000 0.01510100 0.03754700 1.65575300
35 1.43658100 -0.00000600 0.00001000 0.01503200 0.00167500 -0.83651700
36 3.99235500 0.89109000 1.82799500 -0.41383600 -0.16958300 1.43490600
37 1.40592200 0.00003100 -0.00000400 -0.01421100 -0.02586600 1.37541000
38 1.17536200 -0.00013200 0.00000400 -0.07487300 0.09798600 -0.69969900
39 4.52676200 0.69046800 1.12084200 -0.34365100 -0.22798800 1.41166500
40 1.74404100 -0.00002700 0.00000100 -0.02639200 -0.01328600 1.51729600
41 1.36876300 -0.00003100 -0.00002000 -0.12191500 0.10180800 -1.06387600
42 2.10920200 1.21154000 -0.81156600 1.74515600 0.71608000 0.34735400
43 1.61730300 -0.08409400 -0.17136300 -0.00389400 -0.07294600 0.12080700
44 1.59178800 -0.07171700 0.01248600 0.03799300 0.07429800 -0.27107500
45 5.51180800 -0.00000600 0.00000400 -0.99849200 0.00000000 0.00000000
46 0.19684600 0.00000600 0.00000000 -0.34822500 0.00001500 -0.00000200
47 0.00000000 0.00000000 0.00000000 0.00000000 0.00000000 -1.57079600
48 -4.03556700 2.94847100 -3.65649800 0.00000000 0.00000000 -3.14156200
49 -4.03670800 20.72857700 0.48248600 0.14385700 0.04249300 -1.46221500
50 -0.96673800 -0.01506600 -0.82006200 0.00000000 0.00000000 0.00000000
51 0.33536900 -0.00000100 1.02541900 0.00000000 0.00000000 0.00000000
52 0.00000000 -0.28240300 0.38909100 0.00000000 0.00000000 0.00000000
53 4.72605300 -0.00328400 -0.99586500 0.00000000 0.00000000 0.00000000
54 -1.02523600 0.00102100 0.83057100 0.00000000 0.00000000 0.00000000
55 12.55854000 2.22460700 -1.80913900 -0.33928300 1.22459100 1.46351300
56 -4.05612900 -2.26565600 -1.70763700 2.94762400 1.25576900 -2.60506400
57 0.88211100 -0.00328400 -1.44158800 0.00000000 0.00000000 0.00000000
58 -32.12060500 -0.00157300 0.13907200 0.00000000 0.00000000 0.00000000
time 13
0 -0.00000100 7.45008900 -27.50902600 0.00000000 0.00000000 0.00003100
1 -0.00000200 0.00000000 0.00000000 1.57074700 -1.56714200 -1.57074700
2 4.25546500 -0.33518400 -0.00000200 0.00000000 0.00000000 -0.12484800
3 7.43125000 1.49647900 0.00000200 0.00000000 0.00000000 0.24545000
4 5.27847900 0.16554300 0.00000100 0.00000000 0.00000000 0.04851100
5 2.63423300 -6.10995000 2.14356900 1.97586600 1.15990900 -1.29878500
6 -6.21447800 -0.00001000 -0.00002700 -2.69656300 -0.57631100 1.33396100
7 11.94488900 0.00000000 0.00000000 -0.38247200 -0.31235900 2.05148300
8 10.62019000 0.00000000 0.00000000 1.10742400 -0.10150000 1.60746900
9 -4.75111000 -0.69449400 0.83057900 0.07531300 -0.09554300 -0.01484500
10 -1.68807600 0.00004300 -0.00003100 0.02373900 -0.00676800 0.14690400
11 -1.33614300 0.00005300 -0.00001000 0.02592200 0.00450900 0.38004900
12 -4.82049600 -0.50945900 -0.22476100 -0.55713100 0.09927900 1.56147500
13 -1.82699200 -0.00007200 0.00000800 -0.01487100 0.03761200 0.89634400
14 -1.43657300 0.00000800 0.00000400 -0.05788200 -0.05197400 0.74803500
15 -3.99235900 -0.89118600 -1.82791000 -0.71620000 0.44693300 1.79365000
16 -1.40592200 -0.00002700 0.00000000 0.01654100 -0.02437900 0.27905000
17 -1.17535800 0.00012800 -0.00002100 0.04192500 0.05340800 0.56994100
18 -4.52675200 -0.69057500 -1.12074400 -0.64107200 0.31847900 1.75602400
19 -1.74403800 0.00003300 -0.00000400 -0.00916900 -0.02809900 0.72431900
20 -1.36877400 0.00002500 0.00000400 -0.22704800 0.07843600 0.24818000
21 -1.87479800 -0.93512200 0.99917500 1.79809700 0.60097600 0.84312900
22 -1.52344900 0.00003400 0.00003100 0.07543500 0.15680800 0.55183900
23 -1.59927600 0.00000800 0.00001500 0.02972300 -0.03090300 0.78512800
24 5.58312100 0.11572800 0.29500000 1.94756400 -0.06728900 3.12123600
25 0.19684600 -0.00000100 0.00000400 2.79340700 0.00000600 -3.14157700
26 -1.90343200 -16.01610200 -2.61350300 1.97586200 1.15991000 1.84280300
27 6.21448500 0.00001000 0.00002000 -0.62899500 0.25086200 -2.02099400
28 11.94488500 -0.00003200 -0.00019900 -1.14072600 -0.32763600 -1.20268700
29 10.62016900 -0.00000200 0.00000800 -2.71517400 -0.41819200 0.80790900
30 4.75116500 0.69437600 -0.83047400 0.13489800 -0.26683500 0.73932100
31 1.68806100 -0.00002400 0.00000200 -0.00200500 -0.02465900 1.52041700
32 1.33615100 -0.00005000 -0.00001000 0.01118100 -0.03706500 0.07734700
33 4.82051700 0.50934200 0.22486600 -0.16188000 -0.32220700 1.12238200
34 1.82700300 0.00006200 0.00001000 0.01510100 0.03754700 1.65575300
35 1.43658100 -0.00000600 0.00001000 0.01503200 0.00167500 -0.83651700
36 3.99235500 0.89109000 1.82799500 -0.41383600 -0.16958300 1.43490600
37 1.40592200 0.00003100 -0.00000400 -0.01421100 -0.02586600 1.37541000
38 1.17536200 -0.00013200 0.00000400 -0.07487300 0.09798600 -0.69969900
39 4.52676200 0.69046800 1.12084200 -0.34365100 -0.22798800 1.41166500
40 1.74404100 -0.00002700 0.00000100 -0.02639200 -0.01328600 1.51729600
41 1.36876300 -0.00003100 -0.00002000 -0.12191500 0.10180800 -1.06387600
42 2.10920200 1.21154000 -0.81156600 1.74515600 0.71608000 0.34735400
43 1.61730300 -0.08409400 -0.17136300 -0.00389400 -0.07294600 0.12080700
44 1.59178800 -0.07171700 0.01248600 0.03799300 0.07429800 -0.27107500
45 5.51180800 -0.00000600 0.00000400 -0.99849200 0.00000000 0.00000000
46 0.19684600 0.00000600 0.00000000 -0.34822500 0.00001500 -0.00000200
47 0.00000000 0.00000000 0.00000000 0.00000000 0.00000000 -1.57079600
48 -4.03556700 2.94847100 -3.65649800 0.00000000 0.00000000 -3.14156200
49 -4.00514200 20.75513800 0.87785100 0.07102900 0.02286000 -1.52290600
50 -0.96673800 -0.01506600 -0.82006200 0.00000000 0.00000000 0.00000000
51 0.33536900 -0.00000100 1.02541900 0.00000000 0.00000000 0.00000000
52 0.00000000 -0.28240300 0.38909100 0.00000000 0.00000000 0.00000000
53 4.72605300 -0.00328400 -0.99586500 0.00000000 0.00000000 0.00000000
54 -1.02523600 0.00102100 0.83057100 0.00000000 0.00000000 0.00000000
55 12.55854000 2.22460700 -1.80913900 -0.33928300 1.22459100 1.46351300
56 -4.05613700 -2.26566000 -1.70763600 2.94762400 1.25576900 -2.60506400
57 0.88211100 -0.00328400 -1.44158800 0.00000000 0.00000000 0.00000000
58 -32.12060500 -0.00157300 0.13907200 0.00000000 0.00000000 0.00000000
time 14
0 -0.00000100 7.45008900 -27.50902600 0.00000000 0.00000000 0.00003100
1 -0.00000200 0.00000000 0.00000000 1.57074700 -1.56714200 -1.57074700
2 4.25546500 -0.33518400 -0.00000200 0.00000000 0.00000000 -0.12484800
3 7.43125000 1.49647900 0.00000200 0.00000000 0.00000000 0.24545000
4 5.27847900 0.16554300 0.00000100 0.00000000 0.00000000 0.04851100
5 2.63423300 -6.10995000 2.14356900 1.97586600 1.15990900 -1.29878500
6 -6.21447800 -0.00001000 -0.00002700 -2.68665200 -0.54965200 1.27845200
7 11.94488900 0.00000000 0.00000000 -0.37488300 -0.31604500 2.02661200
8 10.62019000 0.00000000 0.00000000 1.05071800 -0.05624000 1.55313500
9 -4.75111000 -0.69449400 0.83057900 0.07531300 -0.09554300 -0.01484500
10 -1.68807600 0.00004300 -0.00003100 0.02373900 -0.00676800 0.14690400
11 -1.33614300 0.00005300 -0.00001000 0.02592200 0.00450900 0.38004900
12 -4.82049600 -0.50945900 -0.22476100 -0.55713100 0.09927900 1.56147500
13 -1.82699200 -0.00007200 0.00000800 -0.01487100 0.03761200 0.89634400
14 -1.43657300 0.00000800 0.00000400 -0.05788200 -0.05197400 0.74803500
15 -3.99235900 -0.89118600 -1.82791000 -0.71620000 0.44693300 1.79365000
16 -1.40592200 -0.00002700 0.00000000 0.01654100 -0.02437900 0.27905000
17 -1.17535800 0.00012800 -0.00002100 0.04192500 0.05340800 0.56994100
18 -4.52675200 -0.69057500 -1.12074400 -0.64107200 0.31847900 1.75602400
19 -1.74403800 0.00003300 -0.00000400 -0.00916900 -0.02809900 0.72431900
20 -1.36877400 0.00002500 0.00000400 -0.22704800 0.07843600 0.24818000
21 -1.87479800 -0.93512200 0.99917500 1.79809700 0.60097600 0.84312900
22 -1.52344900 0.00003400 0.00003100 0.07543500 0.15680800 0.55183900
23 -1.59927600 0.00000800 0.00001500 0.02972300 -0.03090300 0.78512800
24 5.58312100 0.11572800 0.29500000 1.94756400 -0.06728900 3.12123600
25 0.19684600 -0.00000100 0.00000400 2.79340700 0.00000600 -3.14157700
26 -1.90343200 -16.01610200 -2.61350300 1.97586200 1.15991000 1.84280300
27 6.21448500 0.00001000 0.00002000 -0.63932800 0.22526000 -2.03619500
28 11.94488500 -0.00003200 -0.00019900 -1.15128200 -0.32356000 -1.16957500
29 10.62016900 -0.00000200 0.00000800 -2.69798000 -0.38869900 0.86305900
30 4.75116500 0.69437600 -0.83047400 0.13489800 -0.26683500 0.73932100
31 1.68806100 -0.00002400 0.00000200 -0.00200500 -0.02465900 1.52041700
32 1.33615100 -0.00005000 -0.00001000 0.01118100 -0.03706500 0.07734700
33 4.82051700 0.50934200 0.22486600 -0.16188000 -0.32220700 1.12238200
34 1.82700300 0.00006200 0.00001000 0.01510100 0.03754700 1.65575300
35 1.43658100 -0.00000600 0.00001000 0.01503200 0.00167500 -0.83651700
36 3.99235500 0.89109000 1.82799500 -0.41383600 -0.16958300 1.43490600
37 1.40592200 0.00003100 -0.00000400 -0.01421100 -0.02586600 1.37541000
38 1.17536200 -0.00013200 0.00000400 -0.07487300 0.09798600 -0.69969900
39 4.52676200 0.69046800 1.12084200 -0.34365100 -0.22798800 1.41166500
40 1.74404100 -0.00002700 0.00000100 -0.02639200 -0.01328600 1.51729600
41 1.36876300 -0.00003100 -0.00002000 -0.12191500 0.10180800 -1.06387600
42 2.10920200 1.21154000 -0.81156600 1.74515600 0.71608000 0.34735400
43 1.61730300 -0.08409400 -0.17136300 -0.00389400 -0.07294600 0.12080700
44 1.59178800 -0.07171700 0.01248600 0.03799300 0.07429800 -0.27107500
45 5.51180800 -0.00000600 0.00000400 -0.99849200 0.00000000 0.00000000
46 0.19684600 0.00000600 0.00000000 -0.34822500 0.00001500 -0.00000200
47 0.00000000 0.00000000 0.00000000 0.00000000 0.00000000 -1.57079600
48 -4.03556700 2.94847100 -3.65649800 0.00000000 0.00000000 -3.14156200
49 -3.99351200 20.77232600 1.16699900 0.01952700 0.00897800 -1.55874200
50 -0.96673800 -0.01506600 -0.82006200 0.00000000 0.00000000 0.00000000
51 0.33536900 -0.00000100 1.02541900 0.00000000 0.00000000 0.00000000
52 0.00000000 -0.28240300 0.38909100 0.00000000 0.00000000 0.00000000
53 4.72605300 -0.00328400 -0.99586500 0.00000000 0.00000000 0.00000000
54 -1.02523600 0.00102100 0.83057100 0.00000000 0.00000000 0.00000000
55 12.55854000 2.22460700 -1.80913900 -0.33928300 1.22459100 1.46351300
56 -4.05612900 -2.26565900 -1.70763500 2.94762400 1.25576900 -2.60506400
57 0.88211100 -0.00328400 -1.44158800 0.00000000 0.00000000 0.00000000
58 -32.12060500 -0.00157300 0.13907200 0.00000000 0.00000000 0.00000000
time 15
0 -0.00000100 7.45008900 -27.50902600 0.00000000 0.00000000 0.00003100
1 -0.00000200 0.00000000 0.00000000 1.57074700 -1.56714200 -1.57074700
2 4.25546500 -0.33518400 -0.00000200 0.00000000 0.00000000 -0.12484800
3 7.43125000 1.49647900 0.00000200 0.00000000 0.00000000 0.24545000
4 5.27847900 0.16554300 0.00000100 0.00000000 0.00000000 0.04851100
5 2.63423300 -6.10995000 2.14356900 1.97586600 1.15990900 -1.29878500
6 -6.21447800 -0.00001000 -0.00002700 -2.68256500 -0.53934600 1.25884600
7 11.94488900 0.00000000 0.00000000 -0.37156700 -0.31760200 2.01612300
8 10.62019000 0.00000000 0.00000000 1.02888200 -0.04173800 1.53507300
9 -4.75111000 -0.69449400 0.83057900 0.07531300 -0.09554300 -0.01484500
10 -1.68807600 0.00004300 -0.00003100 0.02373900 -0.00676800 0.14690400
11 -1.33614300 0.00005300 -0.00001000 0.02592200 0.00450900 0.38004900
12 -4.82049600 -0.50945900 -0.22476100 -0.55713100 0.09927900 1.56147500
13 -1.82699200 -0.00007200 0.00000800 -0.01487100 0.03761200 0.89634400
14 -1.43657300 0.00000800 0.00000400 -0.05788200 -0.05197400 0.74803500
15 -3.99235900 -0.89118600 -1.82791000 -0.71620000 0.44693300 1.79365000
16 -1.40592200 -0.00002700 0.00000000 0.01654100 -0.02437900 0.27905000
17 -1.17535800 0.00012800 -0.00002100 0.04192500 0.05340800 0.56994100
18 -4.52675200 -0.69057500 -1.12074400 -0.64107200 0.31847900 1.75602400
19 -1.74403800 0.00003300 -0.00000400 -0.00916900 -0.02809900 0.72431900
20 -1.36877400 0.00002500 0.00000400 -0.22704800 0.07843600 0.24818000
21 -1.87479800 -0.93512200 0.99917500 1.79809700 0.60097600 0.84312900
22 -1.52344900 0.00003400 0.00003100 0.07543500 0.15680800 0.55183900
23 -1.59927600 0.00000800 0.00001500 0.02972300 -0.03090300 0.78512800
24 5.58312100 0.11572800 0.29500000 1.94756400 -0.06728900 3.12123600
25 0.19684600 -0.00000100 0.00000400 2.79340700 0.00000600 -3.14157700
26 -1.90343200 -16.01610200 -2.61350300 1.97586200 1.15991000 1.84280300
27 6.21448500 0.00001000 0.00002000 -0.64345000 0.21537400 -2.04159200
28 11.94488500 -0.00003200 -0.00019900 -1.15518700 -0.32188300 -1.15717100
29 10.62016900 -0.00000200 0.00000800 -2.69022300 -0.37913100 0.88371900
30 4.75116500 0.69437600 -0.83047400 0.13489800 -0.26683500 0.73932100
31 1.68806100 -0.00002400 0.00000200 -0.00200500 -0.02465900 1.52041700
32 1.33615100 -0.00005000 -0.00001000 0.01118100 -0.03706500 0.07734700
33 4.82051700 0.50934200 0.22486600 -0.16188000 -0.32220700 1.12238200
34 1.82700300 0.00006200 0.00001000 0.01510100 0.03754700 1.65575300
35 1.43658100 -0.00000600 0.00001000 0.01503200 0.00167500 -0.83651700
36 3.99235500 0.89109000 1.82799500 -0.41383600 -0.16958300 1.43490600
37 1.40592200 0.00003100 -0.00000400 -0.01421100 -0.02586600 1.37541000
38 1.17536200 -0.00013200 0.00000400 -0.07487300 0.09798600 -0.69969900
39 4.52676200 0.69046800 1.12084200 -0.34365100 -0.22798800 1.41166500
40 1.74404100 -0.00002700 0.00000100 -0.02639200 -0.01328600 1.51729600
41 1.36876300 -0.00003100 -0.00002000 -0.12191500 0.10180800 -1.06387600
42 2.10920200 1.21154000 -0.81156600 1.74515600 0.71608000 0.34735400
43 1.61730300 -0.08409400 -0.17136300 -0.00389400 -0.07294600 0.12080700
44 1.59178800 -0.07171700 0.01248600 0.03799300 0.07429800 -0.27107500
45 5.51180800 -0.00000600 0.00000400 -0.99849200 0.00000000 0.00000000
46 0.19684600 0.00000600 0.00000000 -0.34822500 0.00001500 -0.00000200
47 0.00000000 0.00000000 0.00000000 0.00000000 0.00000000 -1.57079600
48 -4.03556700 2.94847100 -3.65649800 0.00000000 0.00000000 -3.14156200
49 -3.99185100 20.77843300 1.27911700 0.00000000 0.00378500 -1.57076900
50 -0.96673800 -0.01506600 -0.82006200 0.00000000 0.00000000 0.00000000
51 0.33536900 -0.00000100 1.02541900 0.00000000 0.00000000 0.00000000
52 0.00000000 -0.28240300 0.38909100 0.00000000 0.00000000 0.00000000
53 4.72605300 -0.00328400 -0.99586500 0.00000000 0.00000000 0.00000000
54 -1.02523600 0.00102100 0.83057100 0.00000000 0.00000000 0.00000000
55 12.55854000 2.22460700 -1.80913900 -0.33928300 1.22459100 1.46351300
56 -4.05613100 -2.26566000 -1.70763500 2.94762400 1.25576900 -2.60506400
57 0.88211100 -0.00328400 -1.44158800 0.00000000 0.00000000 0.00000000
58 -32.12060500 -0.00157300 0.13907200 0.00000000 0.00000000 0.00000000
end
