version 1
nodes
0 "root" -1
1 "pelvis" 0
2 "spine_01" 1
3 "spine_02" 2
4 "spine_03" 3
5 "clavicle_r" 4
6 "upperarm_r" 5
7 "lowerarm_r" 6
8 "hand_r" 7
9 "index_01_r" 8
10 "index_02_r" 9
11 "index_03_r" 10
12 "middle_01_r" 8
13 "middle_02_r" 12
14 "middle_03_r" 13
15 "pinky_01_r" 8
16 "pinky_02_r" 15
17 "pinky_03_r" 16
18 "ring_01_r" 8
19 "ring_02_r" 18
20 "ring_03_r" 19
21 "thumb_01_r" 8
22 "thumb_02_r" 21
23 "thumb_03_r" 22
24 "lowerarm_twist_01_r" 7
25 "upperarm_twist_01_r" 6
26 "clavicle_l" 4
27 "upperarm_l" 26
28 "lowerarm_l" 27
29 "hand_l" 28
30 "index_01_l" 29
31 "index_02_l" 30
32 "index_03_l" 31
33 "middle_01_l" 29
34 "middle_02_l" 33
35 "middle_03_l" 34
36 "pinky_01_l" 29
37 "pinky_02_l" 36
38 "pinky_03_l" 37
39 "ring_01_l" 29
40 "ring_02_l" 39
41 "ring_03_l" 40
42 "thumb_01_l" 29
43 "thumb_02_l" 42
44 "thumb_03_l" 43
45 "lowerarm_twist_01_l" 28
46 "upperarm_twist_01_l" 27
47 "cam_driver" -1
48 "BaseRoot" -1
49 "Base" 48
50 "Mag" 49
51 "Bullet.001" 50
52 "Bullet.002" 50
53 "Hammer" 49
54 "Trigger" 49
55 "Slide" 49
56 "Rhand_IKtarget" 49
57 "LHand_IKtarget" 49
58 "MagRelease" 49
end
skeleton
time 0
0 -0.00000100 7.45008900 -27.50902600 0.00000000 0.00000000 0.00003100
1 -0.00000200 0.00000000 0.00000000 1.57074300 -1.56713700 -1.57074300
2 4.25546800 -0.33518300 -0.00000200 0.00000000 0.00000000 -0.12484800
3 7.43124800 1.49647700 0.00000200 0.00000000 0.00000000 0.24545000
4 5.27847900 0.16554100 0.00000100 0.00000000 0.00000000 0.04851100
5 -4.32339500 -8.95523300 1.48897400 1.97586400 1.15990900 -1.29878600
6 -6.21448200 -0.00000700 -0.00002700 -2.75624845 -0.20158321 1.61018528
7 11.94488200 0.00000000 0.00000100 -0.30541522 -0.36745608 1.81477060
8 10.62018100 0.00000200 0.00000000 0.64134148 1.07351998 2.60536263
9 -4.75110600 -0.69449400 0.83057700 -0.26506600 -0.18521200 0.63841500
10 -1.68806800 0.00004600 -0.00003200 0.01731800 -0.01762500 0.66104700
11 -1.33614000 0.00005700 -0.00001200 0.02626800 0.00232700 0.46266200
12 -4.82049400 -0.50946000 -0.22475900 -0.30496400 -0.06094000 1.40487400
13 -1.82699200 -0.00006400 0.00000600 -0.00832800 0.03958800 1.06556400
14 -1.43657300 0.00000600 0.00000200 -0.06013400 -0.04938400 0.79162700
15 -3.99235500 -0.89118800 -1.82790900 -0.45253100 0.08799900 1.29457900
16 -1.40591800 -0.00002500 -0.00000300 0.00059000 -0.02949400 0.85590800
17 -1.17535800 0.00012800 -0.00002000 0.06441700 0.02146300 1.15302800
18 -4.52675100 -0.69057500 -1.12074400 -0.33008200 0.10310600 1.46474500
19 -1.74403800 0.00003300 -0.00000800 -0.01905300 -0.02261400 1.11317400
20 -1.36877100 0.00002500 0.00000200 0.03795400 0.03618700 0.70440900
21 -1.71880600 -1.28270400 0.93153600 1.77370800 0.56821800 0.78269700
22 -1.52345300 0.00003200 0.00003100 0.07372000 -0.05612300 0.69721800
23 -1.59928500 0.00000400 0.00001600 -0.04580400 -0.07477900 0.31886600
24 5.51181500 0.00000800 -0.00000100 2.24315271 0.00073344 3.14117487
25 0.19684700 -0.00000100 0.00000300 2.79340695 -0.00053640 -3.14146323
26 -4.95372200 -12.73008500 -1.58033200 1.97586200 1.15990900 1.84280300
27 6.21448500 0.00000600 0.00002000 0.11221805 -0.12666633 -2.03903544
28 11.94488500 -0.00002900 -0.00019400 0.23028722 -0.39843425 -1.59260195
29 10.62016600 0.00000200 0.00001000 -2.39284166 -0.89741850 0.51263317
30 4.75115600 0.69437600 -0.83047300 0.27008600 -0.31842200 0.81032700
31 1.68806500 -0.00002600 0.00000200 0.01539000 -0.01932400 0.76600700
32 1.33615100 -0.00005100 -0.00000900 0.00904800 -0.03764700 0.13514500
33 4.82051300 0.50934000 0.22486500 0.23182200 -0.24475900 0.91537200
34 1.82699600 0.00006600 0.00000800 -0.01154300 0.03879400 0.98337600
35 1.43657700 -0.00001000 0.00000700 0.01325200 -0.00726600 -0.22688700
36 3.99235300 0.89108700 1.82799400 0.04076900 -0.25921600 0.55173200
37 1.40591800 0.00002100 -0.00000700 -0.00899200 -0.02807500 1.18372600
38 1.17536900 -0.00013100 0.00000200 0.07309900 0.09934300 0.59118900
39 4.52675600 0.69046000 1.12084200 0.12505500 -0.23595800 0.82170200
40 1.74404100 -0.00003100 -0.00000200 -0.02363500 -0.01773100 1.34027200
41 1.36876300 -0.00003100 -0.00001700 -0.00637400 0.15858000 -0.22582000
42 1.87485500 0.93508100 -0.99913000 1.90999600 0.49077500 0.45897800
43 1.52344900 -0.00003400 -0.00000300 -0.00806100 -0.03646600 0.60634800
44 1.59928100 -0.00000200 0.00000900 0.06220500 0.05569400 0.09724300
45 5.51180600 -0.00000200 0.00000600 -1.07120500 0.00000000 0.00000000
46 0.19685000 0.00000300 -0.00000200 -0.34822500 0.00001500 -0.00000200
47 0.00000000 0.00000000 0.00000000 0.00000000 0.00000000 -1.57079600
48 -2.98601200 20.86685400 -3.83864100 0.00000000 0.00000000 -3.14156200
49 3.18657641 31.05470928 0.16195300 -1.11806307 1.48197482 -2.40060850
50 -0.42046500 -0.01874400 1.27144500 0.00000000 0.00000000 0.00000000
51 0.51676100 0.00000000 0.12868600 0.00000000 0.00000000 0.00000000
52 0.55741300 0.00000000 -0.30289700 0.00000000 0.00000000 0.00000000
53 1.17399300 -0.00968900 1.28929900 -0.01138300 1.22624600 -0.03598100
54 -1.50030500 -0.00968900 0.35764300 0.00000000 0.00000000 0.00000000
55 -2.97854400 -0.00968900 2.09113700 0.00000000 0.00000000 0.00000000
56 4.36714400 0.14568200 -1.51795000 0.34347200 1.05899700 1.58127200
57 3.88901500 -2.02803400 -3.39221700 3.01912500 0.54322100 -1.88188800
58 -1.12622600 -0.58494100 -0.29313400 0.00000000 0.00000000 0.00000000
time 1
0 -0.00000100 7.45008900 -27.50902600 0.00000000 0.00000000 0.00003100
1 -0.00000200 0.00000000 0.00000000 1.57074300 -1.56713700 -1.57074300
2 4.25546800 -0.33518300 -0.00000200 0.00000000 0.00000000 -0.12484800
3 7.43124800 1.49647700 0.00000200 0.00000000 0.00000000 0.24545000
4 5.27847900 0.16554100 0.00000100 0.00000000 0.00000000 0.04851100
5 -4.32339500 -8.95523300 1.48897400 1.97586400 1.15990900 -1.29878600
6 -6.21448200 -0.00000700 -0.00002700 -2.77876418 -0.19939970 1.59146817
7 11.94488200 0.00000000 0.00000100 -0.29422160 -0.36819437 1.78085564
8 10.62018100 0.00000200 0.00000000 0.49926722 1.05562458 2.43030775
9 -4.75110600 -0.69449400 0.83057700 -0.26506600 -0.18521200 0.63841500
10 -1.68806800 0.00004600 -0.00003200 0.01731800 -0.01762500 0.66104700
11 -1.33614000 0.00005700 -0.00001200 0.02626800 0.00232700 0.46266200
12 -4.82049400 -0.50946000 -0.22475900 -0.30496400 -0.06094000 1.40487400
13 -1.82699200 -0.00006400 0.00000600 -0.00832800 0.03958800 1.06556400
14 -1.43657300 0.00000600 0.00000200 -0.06013400 -0.04938400 0.79162700
15 -3.99235500 -0.89118800 -1.82790900 -0.45253100 0.08799900 1.29457900
16 -1.40591800 -0.00002500 -0.00000300 0.00059000 -0.02949400 0.85590800
17 -1.17535800 0.00012800 -0.00002000 0.06441700 0.02146300 1.15302800
18 -4.52675100 -0.69057500 -1.12074400 -0.33008200 0.10310600 1.46474500
19 -1.74403800 0.00003300 -0.00000800 -0.01905300 -0.02261400 1.11317400
20 -1.36877100 0.00002500 0.00000200 0.03795400 0.03618700 0.70440900
21 -1.71880600 -1.28270400 0.93153600 1.77370800 0.56821800 0.78269700
22 -1.52345300 0.00003200 0.00003100 0.07372000 -0.05612300 0.69721800
23 -1.59928500 0.00000400 0.00001600 -0.04580400 -0.07477900 0.31886600
24 5.51181500 0.00000800 -0.00000100 2.24315271 0.00073344 3.14117487
25 0.19684700 -0.00000100 0.00000300 2.79340695 -0.00053640 -3.14146323
26 -4.95372200 -12.73008500 -1.58033200 1.97586200 1.15990900 1.84280300
27 6.21448500 0.00000600 0.00002000 0.10350441 -0.11603439 -2.00427353
28 11.94488500 -0.00002900 -0.00019400 0.23567376 -0.39556853 -1.60776962
29 10.62016600 0.00000200 0.00001000 -2.45502686 -0.82196944 0.58999630
30 4.75115600 0.69437600 -0.83047300 0.27008600 -0.31842200 0.81032700
31 1.68806500 -0.00002600 0.00000200 0.01539000 -0.01932400 0.76600700
32 1.33615100 -0.00005100 -0.00000900 0.00904800 -0.03764700 0.13514500
33 4.82051300 0.50934000 0.22486500 0.23182200 -0.24475900 0.91537200
34 1.82699600 0.00006600 0.00000800 -0.01154300 0.03879400 0.98337600
35 1.43657700 -0.00001000 0.00000700 0.01325200 -0.00726600 -0.22688700
36 3.99235300 0.89108700 1.82799400 0.04076900 -0.25921600 0.55173200
37 1.40591800 0.00002100 -0.00000700 -0.00899200 -0.02807500 1.18372600
38 1.17536900 -0.00013100 0.00000200 0.07309900 0.09934300 0.59118900
39 4.52675600 0.69046000 1.12084200 0.12505500 -0.23595800 0.82170200
40 1.74404100 -0.00003100 -0.00000200 -0.02363500 -0.01773100 1.34027200
41 1.36876300 -0.00003100 -0.00001700 -0.00637400 0.15858000 -0.22582000
42 1.87485500 0.93508100 -0.99913000 1.90999600 0.49077500 0.45897800
43 1.52344900 -0.00003400 -0.00000300 -0.00806100 -0.03646600 0.60634800
44 1.59928100 -0.00000200 0.00000900 0.06220500 0.05569400 0.09724300
45 5.51180600 -0.00000200 0.00000600 -1.07120500 0.00000000 0.00000000
46 0.19685000 0.00000300 -0.00000200 -0.34822500 0.00001500 -0.00000200
47 0.00000000 0.00000000 0.00000000 0.00000000 0.00000000 -1.57079600
48 -2.98601200 20.86685400 -3.83864100 0.00000000 0.00000000 -3.14156200
49 3.01175650 31.78914128 0.13036523 -0.88032497 1.38881159 -2.13509788
50 -0.42046500 -0.01874400 1.27144500 0.00000000 0.00000000 0.00000000
51 0.51676100 0.00000000 0.12868600 0.00000000 0.00000000 0.00000000
52 0.55741300 0.00000000 -0.30289700 0.00000000 0.00000000 0.00000000
53 1.17399300 -0.00968900 1.28929900 -0.01138300 1.22624600 -0.03598100
54 -1.50030500 -0.00968900 0.35764300 0.00000000 0.00000000 0.00000000
55 -2.97854400 -0.00968900 2.09113700 0.00000000 0.00000000 0.00000000
56 4.36714400 0.14568200 -1.51795000 0.34347200 1.05899700 1.58127200
57 3.88901500 -2.02803400 -3.39221700 3.01912500 0.54322100 -1.88188800
58 -1.12622600 -0.58494100 -0.29313400 0.00000000 0.00000000 0.00000000
time 2
0 -0.00000100 7.45008900 -27.50902600 0.00000000 0.00000000 0.00003100
1 -0.00000200 0.00000000 0.00000000 1.57074300 -1.56713700 -1.57074300
2 4.25546800 -0.33518300 -0.00000200 0.00000000 0.00000000 -0.12484800
3 7.43124800 1.49647700 0.00000200 0.00000000 0.00000000 0.24545000
4 5.27847900 0.16554100 0.00000100 0.00000000 0.00000000 0.04851100
5 -3.47055800 -8.79536400 1.48897500 1.97586400 1.15990900 -1.29878600
6 -6.21448200 -0.00000700 -0.00002700 -2.81264456 -0.25063601 1.54047920
7 11.94488200 0.00000000 0.00000100 -0.26528662 -0.36686566 1.69466024
8 10.62018100 0.00000200 0.00000000 0.34133357 0.99711584 2.19150542
9 -4.75110600 -0.69449400 0.83057700 -0.26506600 -0.18521200 0.63841500
10 -1.68806800 0.00004600 -0.00003200 0.01731800 -0.01762500 0.66104700
11 -1.33614000 0.00005700 -0.00001200 0.02626800 0.00232700 0.46266200
12 -4.82049400 -0.50946000 -0.22475900 -0.30496400 -0.06094000 1.40487400
13 -1.82699200 -0.00006400 0.00000600 -0.00832800 0.03958800 1.06556400
14 -1.43657300 0.00000600 0.00000200 -0.06013400 -0.04938400 0.79162700
15 -3.99235500 -0.89118800 -1.82790900 -0.45253100 0.08799900 1.29457900
16 -1.40591800 -0.00002500 -0.00000300 0.00059000 -0.02949400 0.85590800
17 -1.17535800 0.00012800 -0.00002000 0.06441700 0.02146300 1.15302800
18 -4.52675100 -0.69057500 -1.12074400 -0.33008200 0.10310600 1.46474500
19 -1.74403800 0.00003300 -0.00000800 -0.01905300 -0.02261400 1.11317400
20 -1.36877100 0.00002500 0.00000200 0.03795400 0.03618700 0.70440900
21 -1.71880600 -1.28270400 0.93153600 1.77370800 0.56821800 0.78269700
22 -1.52345300 0.00003200 0.00003100 0.07372000 -0.05612300 0.69721800
23 -1.59928500 0.00000400 0.00001600 -0.04580400 -0.07477900 0.31886600
24 5.51181500 0.00000800 -0.00000100 2.24315271 0.00073344 3.14117487
25 0.19684700 -0.00000100 0.00000300 2.79340695 -0.00053640 -3.14146323
26 -4.10088300 -12.57021500 -1.58033200 1.97586200 1.15990900 1.84280300
27 6.21448500 0.00000600 0.00002000 0.05265269 -0.00058496 -1.92965834
28 11.94488500 -0.00002900 -0.00019400 0.24487562 -0.38929160 -1.63422430
29 10.62016600 0.00000200 0.00001000 -2.50027880 -0.66715599 0.64293022
30 4.75115600 0.69437600 -0.83047300 0.27008600 -0.31842200 0.81032700
31 1.68806500 -0.00002600 0.00000200 0.01539000 -0.01932400 0.76600700
32 1.33615100 -0.00005100 -0.00000900 0.00904800 -0.03764700 0.13514500
33 4.82051300 0.50934000 0.22486500 0.23182200 -0.24475900 0.91537200
34 1.82699600 0.00006600 0.00000800 -0.01154300 0.03879400 0.98337600
35 1.43657700 -0.00001000 0.00000700 0.01325200 -0.00726600 -0.22688700
36 3.99235300 0.89108700 1.82799400 0.04076900 -0.25921600 0.55173200
37 1.40591800 0.00002100 -0.00000700 -0.00899200 -0.02807500 1.18372600
38 1.17536900 -0.00013100 0.00000200 0.07309900 0.09934300 0.59118900
39 4.52675600 0.69046000 1.12084200 0.12505500 -0.23595800 0.82170200
40 1.74404100 -0.00003100 -0.00000200 -0.02363500 -0.01773100 1.34027200
41 1.36876300 -0.00003100 -0.00001700 -0.00637400 0.15858000 -0.22582000
42 1.87485500 0.93508100 -0.99913000 1.90999600 0.49077500 0.45897800
43 1.52344900 -0.00003400 -0.00000300 -0.00806100 -0.03646600 0.60634800
44 1.59928100 -0.00000200 0.00000900 0.06220500 0.05569400 0.09724300
45 5.51180600 -0.00000200 0.00000600 -1.07120500 0.00000000 0.00000000
46 0.19685000 0.00000300 -0.00000200 -0.34822500 0.00001500 -0.00000200
47 0.00000000 0.00000000 0.00000000 0.00000000 0.00000000 -1.57079600
48 -2.98601200 20.86685400 -3.83864100 0.00000000 0.00000000 -3.14156200
49 2.47230840 33.53875928 0.12228656 -0.71136582 1.15002508 -1.94264812
50 -0.42046500 -0.01874400 1.27144500 0.00000000 0.00000000 0.00000000
51 0.51676100 0.00000000 0.12868600 0.00000000 0.00000000 0.00000000
52 0.55741300 0.00000000 -0.30289700 0.00000000 0.00000000 0.00000000
53 1.17399300 -0.00968900 1.28929900 -0.01138300 1.22624600 -0.03598100
54 -1.50030500 -0.00968900 0.35764300 0.00000000 0.00000000 0.00000000
55 -2.97854400 -0.00968900 2.09113700 0.00000000 0.00000000 0.00000000
56 4.36714400 0.14568200 -1.51795000 0.34347200 1.05899700 1.58127200
57 3.88901500 -2.02803400 -3.39221700 3.01912500 0.54322100 -1.88188800
58 -1.12622600 -0.58494100 -0.29313400 0.00000000 0.00000000 0.00000000
time 3
0 -0.00000100 7.45008900 -27.50902600 0.00000000 0.00000000 0.00003100
1 -0.00000200 0.00000000 0.00000000 1.57074300 -1.56713700 -1.57074300
2 4.25546800 -0.33518300 -0.00000200 0.00000000 0.00000000 -0.12484800
3 7.43124800 1.49647700 0.00000200 0.00000000 0.00000000 0.24545000
4 5.27847900 0.16554100 0.00000100 0.00000000 0.00000000 0.04851100
5 -1.43686500 -8.41413800 1.48897500 1.97586400 1.15990900 -1.29878600
6 -6.21448200 -0.00000700 -0.00002700 -2.81178716 -0.35507092 1.47124546
7 11.94488200 0.00000000 0.00000100 -0.22046029 -0.36011298 1.56229593
8 10.62018100 0.00000200 0.00000000 0.34013826 0.88868834 2.10803983
9 -4.75110600 -0.69449400 0.83057700 -0.26506600 -0.18521200 0.63841500
10 -1.68806800 0.00004600 -0.00003200 0.01731800 -0.01762500 0.66104700
11 -1.33614000 0.00005700 -0.00001200 0.02626800 0.00232700 0.46266200
12 -4.82049400 -0.50946000 -0.22475900 -0.30496400 -0.06094000 1.40487400
13 -1.82699200 -0.00006400 0.00000600 -0.00832800 0.03958800 1.06556400
14 -1.43657300 0.00000600 0.00000200 -0.06013400 -0.04938400 0.79162700
15 -3.99235500 -0.89118800 -1.82790900 -0.45253100 0.08799900 1.29457900
16 -1.40591800 -0.00002500 -0.00000300 0.00059000 -0.02949400 0.85590800
17 -1.17535800 0.00012800 -0.00002000 0.06441700 0.02146300 1.15302800
18 -4.52675100 -0.69057500 -1.12074400 -0.33008200 0.10310600 1.46474500
19 -1.74403800 0.00003300 -0.00000800 -0.01905300 -0.02261400 1.11317400
20 -1.36877100 0.00002500 0.00000200 0.03795400 0.03618700 0.70440900
21 -1.71880600 -1.28270400 0.93153600 1.77370800 0.56821800 0.78269700
22 -1.52345300 0.00003200 0.00003100 0.07372000 -0.05612300 0.69721800
23 -1.59928500 0.00000400 0.00001600 -0.04580400 -0.07477900 0.31886600
24 5.51181500 0.00000800 -0.00000100 2.24315271 0.00073344 3.14117487
25 0.19684700 -0.00000100 0.00000300 2.79340695 -0.00053640 -3.14146323
26 -2.06718900 -12.18899100 -1.58033200 1.97586200 1.15990900 1.84280300
27 6.21448500 0.00000600 0.00002000 -0.03197774 0.21843674 -1.85387954
28 11.94488500 -0.00002900 -0.00019400 0.24769741 -0.37799521 -1.64216596
29 10.62016600 0.00000200 0.00001000 -2.50374906 -0.52510853 0.66861144
30 4.75115600 0.69437600 -0.83047300 0.27008600 -0.31842200 0.81032700
31 1.68806500 -0.00002600 0.00000200 0.01539000 -0.01932400 0.76600700
32 1.33615100 -0.00005100 -0.00000900 0.00904800 -0.03764700 0.13514500
33 4.82051300 0.50934000 0.22486500 0.23182200 -0.24475900 0.91537200
34 1.82699600 0.00006600 0.00000800 -0.01154300 0.03879400 0.98337600
35 1.43657700 -0.00001000 0.00000700 0.01325200 -0.00726600 -0.22688700
36 3.99235300 0.89108700 1.82799400 0.04076900 -0.25921600 0.55173200
37 1.40591800 0.00002100 -0.00000700 -0.00899200 -0.02807500 1.18372600
38 1.17536900 -0.00013100 0.00000200 0.07309900 0.09934300 0.59118900
39 4.52675600 0.69046000 1.12084200 0.12505500 -0.23595800 0.82170200
40 1.74404100 -0.00003100 -0.00000200 -0.02363500 -0.01773100 1.34027200
41 1.36876300 -0.00003100 -0.00001700 -0.00637400 0.15858000 -0.22582000
42 1.87485500 0.93508100 -0.99913000 1.90999600 0.49077500 0.45897800
43 1.52344900 -0.00003400 -0.00000300 -0.00806100 -0.03646600 0.60634800
44 1.59928100 -0.00000200 0.00000900 0.06220500 0.05569400 0.09724300
45 5.51180600 -0.00000200 0.00000600 -1.07120500 0.00000000 0.00000000
46 0.19685000 0.00000300 -0.00000200 -0.34822500 0.00001500 -0.00000200
47 0.00000000 0.00000000 0.00000000 0.00000000 0.00000000 -1.57079600
48 -2.98601200 20.86685400 -3.83864100 0.00000000 0.00000000 -3.14156200
49 1.59845692 35.61494328 0.17438026 -0.56730246 0.83923410 -1.79066926
50 -0.42046500 -0.01874400 1.27144500 0.00000000 0.00000000 0.00000000
51 0.51676100 0.00000000 0.12868600 0.00000000 0.00000000 0.00000000
52 0.55741300 0.00000000 -0.30289700 0.00000000 0.00000000 0.00000000
53 1.17399300 -0.00968900 1.28929900 -0.01138300 1.22624600 -0.03598100
54 -1.50030500 -0.00968900 0.35764300 0.00000000 0.00000000 0.00000000
55 -2.97854400 -0.00968900 2.09113700 0.00000000 0.00000000 0.00000000
56 4.36714400 0.14568200 -1.51795000 0.34347200 1.05899700 1.58127200
57 3.88901500 -2.02803400 -3.39221700 3.01912500 0.54322100 -1.88188800
58 -1.12622600 -0.58494100 -0.29313400 0.00000000 0.00000000 0.00000000
time 4
0 -0.00000100 7.45008900 -27.50902600 0.00000000 0.00000000 0.00003100
1 -0.00000200 0.00000000 0.00000000 1.57074300 -1.56713700 -1.57074300
2 4.25546800 -0.33518300 -0.00000200 0.00000000 0.00000000 -0.12484800
3 7.43124800 1.49647700 0.00000200 0.00000000 0.00000000 0.24545000
4 5.27847900 0.16554100 0.00000100 0.00000000 0.00000000 0.04851100
5 0.99044800 -7.95912600 1.48897600 1.97586400 1.15990900 -1.29878600
6 -6.21448200 -0.00000700 -0.00002700 -2.77007288 -0.43519517 1.39246217
7 11.94488200 0.00000000 0.00000100 -0.16167454 -0.34660775 1.38918375
8 10.62018100 0.00000200 0.00000000 0.51285998 0.75542237 2.17001468
9 -4.75110600 -0.69449400 0.83057700 -0.26506600 -0.18521200 0.63841500
10 -1.68806800 0.00004600 -0.00003200 0.01731800 -0.01762500 0.66104700
11 -1.33614000 0.00005700 -0.00001200 0.02626800 0.00232700 0.46266200
12 -4.82049400 -0.50946000 -0.22475900 -0.30496400 -0.06094000 1.40487400
13 -1.82699200 -0.00006400 0.00000600 -0.00832800 0.03958800 1.06556400
14 -1.43657300 0.00000600 0.00000200 -0.06013400 -0.04938400 0.79162700
15 -3.99235500 -0.89118800 -1.82790900 -0.45253100 0.08799900 1.29457900
16 -1.40591800 -0.00002500 -0.00000300 0.00059000 -0.02949400 0.85590800
17 -1.17535800 0.00012800 -0.00002000 0.06441700 0.02146300 1.15302800
18 -4.52675100 -0.69057500 -1.12074400 -0.33008200 0.10310600 1.46474500
19 -1.74403800 0.00003300 -0.00000800 -0.01905300 -0.02261400 1.11317400
20 -1.36877100 0.00002500 0.00000200 0.03795400 0.03618700 0.70440900
21 -1.71880600 -1.28270400 0.93153600 1.77370800 0.56821800 0.78269700
22 -1.52345300 0.00003200 0.00003100 0.07372000 -0.05612300 0.69721800
23 -1.59928500 0.00000400 0.00001600 -0.04580400 -0.07477900 0.31886600
24 5.51181500 0.00000800 -0.00000100 2.24315271 0.00073344 3.14117487
25 0.19684700 -0.00000100 0.00000300 2.79340695 -0.00053640 -3.14146323
26 0.36012200 -11.73398000 -1.58033000 1.97586200 1.15990900 1.84280300
27 6.21448500 0.00000600 0.00002000 -0.10301624 0.42146564 -1.79790682
28 11.94488500 -0.00002900 -0.00019400 0.23405737 -0.36961674 -1.60198160
29 10.62016600 0.00000200 0.00001000 -2.59718491 -0.44632566 0.73269624
30 4.75115600 0.69437600 -0.83047300 0.27008600 -0.31842200 0.81032700
31 1.68806500 -0.00002600 0.00000200 0.01539000 -0.01932400 0.76600700
32 1.33615100 -0.00005100 -0.00000900 0.00904800 -0.03764700 0.13514500
33 4.82051300 0.50934000 0.22486500 0.23182200 -0.24475900 0.91537200
34 1.82699600 0.00006600 0.00000800 -0.01154300 0.03879400 0.98337600
35 1.43657700 -0.00001000 0.00000700 0.01325200 -0.00726600 -0.22688700
36 3.99235300 0.89108700 1.82799400 0.04076900 -0.25921600 0.55173200
37 1.40591800 0.00002100 -0.00000700 -0.00899200 -0.02807500 1.18372600
38 1.17536900 -0.00013100 0.00000200 0.07309900 0.09934300 0.59118900
39 4.52675600 0.69046000 1.12084200 0.12505500 -0.23595800 0.82170200
40 1.74404100 -0.00003100 -0.00000200 -0.02363500 -0.01773100 1.34027200
41 1.36876300 -0.00003100 -0.00001700 -0.00637400 0.15858000 -0.22582000
42 1.87485500 0.93508100 -0.99913000 1.90999600 0.49077500 0.45897800
43 1.52344900 -0.00003400 -0.00000300 -0.00806100 -0.03646600 0.60634800
44 1.59928100 -0.00000200 0.00000900 0.06220500 0.05569400 0.09724300
45 5.51180600 -0.00000200 0.00000600 -1.07120500 0.00000000 0.00000000
46 0.19685000 0.00000300 -0.00000200 -0.34822500 0.00001500 -0.00000200
47 0.00000000 0.00000000 0.00000000 0.00000000 0.00000000 -1.57079600
48 -2.98601200 20.86685400 -3.83864100 0.00000000 0.00000000 -3.14156200
49 0.43490340 37.42982328 0.31052567 -0.38593568 0.52702334 -1.65422837
50 -0.42046500 -0.01874400 1.27144500 0.00000000 0.00000000 0.00000000
51 0.51676100 0.00000000 0.12868600 0.00000000 0.00000000 0.00000000
52 0.55741300 0.00000000 -0.30289700 0.00000000 0.00000000 0.00000000
53 1.17399300 -0.00968900 1.28929900 -0.01138300 1.22624600 -0.03598100
54 -1.50030500 -0.00968900 0.35764300 0.00000000 0.00000000 0.00000000
55 -2.97854400 -0.00968900 2.09113700 0.00000000 0.00000000 0.00000000
56 4.36714400 0.14568200 -1.51795000 0.34347200 1.05899700 1.58127200
57 3.88901500 -2.02803400 -3.39221700 3.01912500 0.54322100 -1.88188800
58 -1.12622600 -0.58494100 -0.29313400 0.00000000 0.00000000 0.00000000
time 5
0 -0.00000100 7.45008900 -27.50902600 0.00000000 0.00000000 0.00003100
1 -0.00000200 0.00000000 0.00000000 1.57074300 -1.56713700 -1.57074300
2 4.25546800 -0.33518300 -0.00000200 0.00000000 0.00000000 -0.12484800
3 7.43124800 1.49647700 0.00000200 0.00000000 0.00000000 0.24545000
4 5.27847900 0.16554100 0.00000100 0.00000000 0.00000000 0.04851100
5 3.02414100 -7.57790400 1.48897600 1.97586400 1.15990900 -1.29878600
6 -6.21448200 -0.00000700 -0.00002700 -2.71074707 -0.45096241 1.29693690
7 11.94488200 0.00000000 0.00000100 -0.09516555 -0.32255233 1.18712836
8 10.62018100 0.00000200 0.00000000 0.74293497 0.64895055 2.24437474
9 -4.75110600 -0.69449400 0.83057700 -0.26506600 -0.18521200 0.63841500
10 -1.68806800 0.00004600 -0.00003200 0.01731800 -0.01762500 0.66104700
11 -1.33614000 0.00005700 -0.00001200 0.02626800 0.00232700 0.46266200
12 -4.82049400 -0.50946000 -0.22475900 -0.30496400 -0.06094000 1.40487400
13 -1.82699200 -0.00006400 0.00000600 -0.00832800 0.03958800 1.06556400
14 -1.43657300 0.00000600 0.00000200 -0.06013400 -0.04938400 0.79162700
15 -3.99235500 -0.89118800 -1.82790900 -0.45253100 0.08799900 1.29457900
16 -1.40591800 -0.00002500 -0.00000300 0.00059000 -0.02949400 0.85590800
17 -1.17535800 0.00012800 -0.00002000 0.06441700 0.02146300 1.15302800
18 -4.52675100 -0.69057500 -1.12074400 -0.33008200 0.10310600 1.46474500
19 -1.74403800 0.00003300 -0.00000800 -0.01905300 -0.02261400 1.11317400
20 -1.36877100 0.00002500 0.00000200 0.03795400 0.03618700 0.70440900
21 -1.71880600 -1.28270400 0.93153600 1.77370800 0.56821800 0.78269700
22 -1.52345300 0.00003200 0.00003100 0.07372000 -0.05612300 0.69721800
23 -1.59928500 0.00000400 0.00001600 -0.04580400 -0.07477900 0.31886600
24 5.51181500 0.00000800 -0.00000100 2.24315271 0.00073344 3.14117487
25 0.19684700 -0.00000100 0.00000300 2.79340695 -0.00053640 -3.14146323
26 2.39381700 -11.35275600 -1.58033100 1.97586200 1.15990900 1.84280300
27 6.21448500 0.00000600 0.00002000 -0.15715657 0.54554158 -1.76271931
28 11.94488500 -0.00002900 -0.00019400 0.21005033 -0.36531698 -1.53142527
29 10.62016600 0.00000200 0.00001000 -2.77789972 -0.36907408 0.80299365
30 4.75115600 0.69437600 -0.83047300 0.27008600 -0.31842200 0.81032700
31 1.68806500 -0.00002600 0.00000200 0.01539000 -0.01932400 0.76600700
32 1.33615100 -0.00005100 -0.00000900 0.00904800 -0.03764700 0.13514500
33 4.82051300 0.50934000 0.22486500 0.23182200 -0.24475900 0.91537200
34 1.82699600 0.00006600 0.00000800 -0.01154300 0.03879400 0.98337600
35 1.43657700 -0.00001000 0.00000700 0.01325200 -0.00726600 -0.22688700
36 3.99235300 0.89108700 1.82799400 0.04076900 -0.25921600 0.55173200
37 1.40591800 0.00002100 -0.00000700 -0.00899200 -0.02807500 1.18372600
38 1.17536900 -0.00013100 0.00000200 0.07309900 0.09934300 0.59118900
39 4.52675600 0.69046000 1.12084200 0.12505500 -0.23595800 0.82170200
40 1.74404100 -0.00003100 -0.00000200 -0.02363500 -0.01773100 1.34027200
41 1.36876300 -0.00003100 -0.00001700 -0.00637400 0.15858000 -0.22582000
42 1.87485500 0.93508100 -0.99913000 1.90999600 0.49077500 0.45897800
43 1.52344900 -0.00003400 -0.00000300 -0.00806100 -0.03646600 0.60634800
44 1.59928100 -0.00000200 0.00000900 0.06220500 0.05569400 0.09724300
45 5.51180600 -0.00000200 0.00000600 -1.07120500 0.00000000 0.00000000
46 0.19685000 0.00000300 -0.00000200 -0.34822500 0.00001500 -0.00000200
47 0.00000000 0.00000000 0.00000000 0.00000000 0.00000000 -1.57079600
48 -2.98601200 20.86685400 -3.83864100 0.00000000 0.00000000 -3.14156200
49 -0.83235124 38.81110228 0.47774415 -0.19574301 0.25439552 -1.58259456
50 -0.42046500 -0.01874400 1.27144500 0.00000000 0.00000000 0.00000000
51 0.51676100 0.00000000 0.12868600 0.00000000 0.00000000 0.00000000
52 0.55741300 0.00000000 -0.30289700 0.00000000 0.00000000 0.00000000
53 1.17399300 -0.00968900 1.28929900 -0.01138300 1.22624600 -0.03598100
54 -1.50030500 -0.00968900 0.35764300 0.00000000 0.00000000 0.00000000
55 -2.97854400 -0.00968900 2.09113700 0.00000000 0.00000000 0.00000000
56 4.36714400 0.14568200 -1.51795000 0.34347200 1.05899700 1.58127200
57 3.88901500 -2.02803400 -3.39221700 3.01912500 0.54322100 -1.88188800
58 -1.12622600 -0.58494100 -0.29313400 0.00000000 0.00000000 0.00000000
time 6
0 -0.00000100 7.45008900 -27.50902600 0.00000000 0.00000000 0.00003100
1 -0.00000200 0.00000000 0.00000000 1.57074300 -1.56713700 -1.57074300
2 4.25546800 -0.33518300 -0.00000200 0.00000000 0.00000000 -0.12484800
3 7.43124800 1.49647700 0.00000200 0.00000000 0.00000000 0.24545000
4 5.27847900 0.16554100 0.00000100 0.00000000 0.00000000 0.04851100
5 3.87697900 -7.41803500 1.48897600 1.97586400 1.15990900 -1.29878600
6 -6.21448200 -0.00000700 -0.00002700 -2.66832741 -0.40671341 1.20427133
7 11.94488200 0.00000000 0.00000100 -0.04294364 -0.29502265 1.01803758
8 10.62018100 0.00000200 0.00000000 0.91522095 0.57337178 2.26299116
9 -4.75110600 -0.69449400 0.83057700 -0.26506600 -0.18521200 0.63841500
10 -1.68806800 0.00004600 -0.00003200 0.01731800 -0.01762500 0.66104700
11 -1.33614000 0.00005700 -0.00001200 0.02626800 0.00232700 0.46266200
12 -4.82049400 -0.50946000 -0.22475900 -0.30496400 -0.06094000 1.40487400
13 -1.82699200 -0.00006400 0.00000600 -0.00832800 0.03958800 1.06556400
14 -1.43657300 0.00000600 0.00000200 -0.06013400 -0.04938400 0.79162700
15 -3.99235500 -0.89118800 -1.82790900 -0.45253100 0.08799900 1.29457900
16 -1.40591800 -0.00002500 -0.00000300 0.00059000 -0.02949400 0.85590800
17 -1.17535800 0.00012800 -0.00002000 0.06441700 0.02146300 1.15302800
18 -4.52675100 -0.69057500 -1.12074400 -0.33008200 0.10310600 1.46474500
19 -1.74403800 0.00003300 -0.00000800 -0.01905300 -0.02261400 1.11317400
20 -1.36877100 0.00002500 0.00000200 0.03795400 0.03618700 0.70440900
21 -1.71880600 -1.28270400 0.93153600 1.77370800 0.56821800 0.78269700
22 -1.52345300 0.00003200 0.00003100 0.07372000 -0.05612300 0.69721800
23 -1.59928500 0.00000400 0.00001600 -0.04580400 -0.07477900 0.31886600
24 5.51181500 0.00000800 -0.00000100 2.24315271 0.00073344 3.14117487
25 0.19684700 -0.00000100 0.00000300 2.79340695 -0.00053640 -3.14146323
26 3.24665400 -11.19288600 -1.58033100 1.97586200 1.15990900 1.84280300
27 6.21448500 0.00000600 0.00002000 -0.19833805 0.58171601 -1.73859324
28 11.94488500 -0.00002900 -0.00019400 0.19982391 -0.36431508 -1.50150308
29 10.62016600 0.00000200 0.00001000 -2.93296748 -0.26658669 0.88319927
30 4.75115600 0.69437600 -0.83047300 0.27008600 -0.31842200 0.81032700
31 1.68806500 -0.00002600 0.00000200 0.01539000 -0.01932400 0.76600700
32 1.33615100 -0.00005100 -0.00000900 0.00904800 -0.03764700 0.13514500
33 4.82051300 0.50934000 0.22486500 0.23182200 -0.24475900 0.91537200
34 1.82699600 0.00006600 0.00000800 -0.01154300 0.03879400 0.98337600
35 1.43657700 -0.00001000 0.00000700 0.01325200 -0.00726600 -0.22688700
36 3.99235300 0.89108700 1.82799400 0.04076900 -0.25921600 0.55173200
37 1.40591800 0.00002100 -0.00000700 -0.00899200 -0.02807500 1.18372600
38 1.17536900 -0.00013100 0.00000200 0.07309900 0.09934300 0.59118900
39 4.52675600 0.69046000 1.12084200 0.12505500 -0.23595800 0.82170200
40 1.74404100 -0.00003100 -0.00000200 -0.02363500 -0.01773100 1.34027200
41 1.36876300 -0.00003100 -0.00001700 -0.00637400 0.15858000 -0.22582000
42 1.87485500 0.93508100 -0.99913000 1.90999600 0.49077500 0.45897800
43 1.52344900 -0.00003400 -0.00000300 -0.00806100 -0.03646600 0.60634800
44 1.59928100 -0.00000200 0.00000900 0.06220500 0.05569400 0.09724300
45 5.51180600 -0.00000200 0.00000600 -1.07120500 0.00000000 0.00000000
46 0.19685000 0.00000300 -0.00000200 -0.34822500 0.00001500 -0.00000200
47 0.00000000 0.00000000 0.00000000 0.00000000 0.00000000 -1.57079600
48 -2.98601200 20.86685400 -3.83864100 0.00000000 0.00000000 -3.14156200
49 -1.97396655 39.69018028 0.61256539 -0.04722281 0.06784212 -1.56038146
50 -0.42046500 -0.01874400 1.27144500 0.00000000 0.00000000 0.00000000
51 0.51676100 0.00000000 0.12868600 0.00000000 0.00000000 0.00000000
52 0.55741300 0.00000000 -0.30289700 0.00000000 0.00000000 0.00000000
53 1.17399300 -0.00968900 1.28929900 -0.01138300 1.22624600 -0.03598100
54 -1.50030500 -0.00968900 0.35764300 0.00000000 0.00000000 0.00000000
55 -2.97854400 -0.00968900 2.09113700 0.00000000 0.00000000 0.00000000
56 4.36714400 0.14568200 -1.51795000 0.34347200 1.05899700 1.58127200
57 3.88901500 -2.02803400 -3.39221700 3.01912500 0.54322100 -1.88188800
58 -1.12622600 -0.58494100 -0.29313400 0.00000000 0.00000000 0.00000000
time 7
0 -0.00000100 7.45008900 -27.50902600 0.00000000 0.00000000 0.00003100
1 -0.00000200 0.00000000 0.00000000 1.57074300 -1.56713700 -1.57074300
2 4.25546800 -0.33518300 -0.00000200 0.00000000 0.00000000 -0.12484800
3 7.43124800 1.49647700 0.00000200 0.00000000 0.00000000 0.24545000
4 5.27847900 0.16554100 0.00000100 0.00000000 0.00000000 0.04851100
5 3.87697900 -7.41803500 1.48897600 1.97586400 1.15990900 -1.29878600
6 -6.21448200 -0.00000700 -0.00002700 -2.65955813 -0.36526404 1.14815504
7 11.94488200 0.00000000 0.00000100 -0.01950851 -0.27885126 0.93722366
8 10.62018100 0.00000200 0.00000000 0.97321649 0.54689079 2.24948689
9 -4.75110600 -0.69449400 0.83057700 -0.26506600 -0.18521200 0.63841500
10 -1.68806800 0.00004600 -0.00003200 0.01731800 -0.01762500 0.66104700
11 -1.33614000 0.00005700 -0.00001200 0.02626800 0.00232700 0.46266200
12 -4.82049400 -0.50946000 -0.22475900 -0.30496400 -0.06094000 1.40487400
13 -1.82699200 -0.00006400 0.00000600 -0.00832800 0.03958800 1.06556400
14 -1.43657300 0.00000600 0.00000200 -0.06013400 -0.04938400 0.79162700
15 -3.99235500 -0.89118800 -1.82790900 -0.45253100 0.08799900 1.29457900
16 -1.40591800 -0.00002500 -0.00000300 0.00059000 -0.02949400 0.85590800
17 -1.17535800 0.00012800 -0.00002000 0.06441700 0.02146300 1.15302800
18 -4.52675100 -0.69057500 -1.12074400 -0.33008200 0.10310600 1.46474500
19 -1.74403800 0.00003300 -0.00000800 -0.01905300 -0.02261400 1.11317400
20 -1.36877100 0.00002500 0.00000200 0.03795400 0.03618700 0.70440900
21 -1.71880600 -1.28270400 0.93153600 1.77370800 0.56821800 0.78269700
22 -1.52345300 0.00003200 0.00003100 0.07372000 -0.05612300 0.69721800
23 -1.59928500 0.00000400 0.00001600 -0.04580400 -0.07477900 0.31886600
24 5.51181500 0.00000800 -0.00000100 2.24315271 0.00073344 3.14117487
25 0.19684700 -0.00000100 0.00000300 2.79340695 -0.00053640 -3.14146323
26 3.24665400 -11.19288600 -1.58033100 1.97586200 1.15990900 1.84280300
27 6.21448500 0.00000600 0.00002000 -0.21792641 0.57990938 -1.71174326
28 11.94488500 -0.00002900 -0.00019400 0.20586127 -0.36496982 -1.51914667
29 10.62016600 0.00000200 0.00001000 -2.98893295 -0.20010335 0.92737454
30 4.75115600 0.69437600 -0.83047300 0.27008600 -0.31842200 0.81032700
31 1.68806500 -0.00002600 0.00000200 0.01539000 -0.01932400 0.76600700
32 1.33615100 -0.00005100 -0.00000900 0.00904800 -0.03764700 0.13514500
33 4.82051300 0.50934000 0.22486500 0.23182200 -0.24475900 0.91537200
34 1.82699600 0.00006600 0.00000800 -0.01154300 0.03879400 0.98337600
35 1.43657700 -0.00001000 0.00000700 0.01325200 -0.00726600 -0.22688700
36 3.99235300 0.89108700 1.82799400 0.04076900 -0.25921600 0.55173200
37 1.40591800 0.00002100 -0.00000700 -0.00899200 -0.02807500 1.18372600
38 1.17536900 -0.00013100 0.00000200 0.07309900 0.09934300 0.59118900
39 4.52675600 0.69046000 1.12084200 0.12505500 -0.23595800 0.82170200
40 1.74404100 -0.00003100 -0.00000200 -0.02363500 -0.01773100 1.34027200
41 1.36876300 -0.00003100 -0.00001700 -0.00637400 0.15858000 -0.22582000
42 1.87485500 0.93508100 -0.99913000 1.90999600 0.49077500 0.45897800
43 1.52344900 -0.00003400 -0.00000300 -0.00806100 -0.03646600 0.60634800
44 1.59928100 -0.00000200 0.00000900 0.06220500 0.05569400 0.09724300
45 5.51180600 -0.00000200 0.00000600 -1.07120500 0.00000000 0.00000000
46 0.19685000 0.00000300 -0.00000200 -0.34822500 0.00001500 -0.00000200
47 0.00000000 0.00000000 0.00000000 0.00000000 0.00000000 -1.57079600
48 -2.98601200 20.86685400 -3.83864100 0.00000000 0.00000000 -3.14156200
49 -2.74183538 39.99845328 0.68470375 0.01540088 0.00061995 -1.55672658
50 -0.42046500 -0.01874400 1.27144500 0.00000000 0.00000000 0.00000000
51 0.51676100 0.00000000 0.12868600 0.00000000 0.00000000 0.00000000
52 0.55741300 0.00000000 -0.30289700 0.00000000 0.00000000 0.00000000
53 1.17399300 -0.00968900 1.28929900 -0.01138300 1.22624600 -0.03598100
54 -1.50030500 -0.00968900 0.35764300 0.00000000 0.00000000 0.00000000
55 -2.97854400 -0.00968900 2.09113700 0.00000000 0.00000000 0.00000000
56 4.36714400 0.14568200 -1.51795000 0.34347200 1.05899700 1.58127200
57 3.88901500 -2.02803400 -3.39221700 3.01912500 0.54322100 -1.88188800
58 -1.12622600 -0.58494100 -0.29313400 0.00000000 0.00000000 0.00000000
time 8
0 -0.00000100 7.45008900 -27.50902600 0.00000000 0.00000000 0.00003100
1 -0.00000200 0.00000000 0.00000000 1.57074300 -1.56713700 -1.57074300
2 4.25546800 -0.33518300 -0.00000200 0.00000000 0.00000000 -0.12484800
3 7.43124800 1.49647700 0.00000200 0.00000000 0.00000000 0.24545000
4 5.27847900 0.16554100 0.00000100 0.00000000 0.00000000 0.04851100
5 3.87697900 -7.41803500 1.48897600 1.97586400 1.15990900 -1.29878600
6 -6.21448200 -0.00000700 -0.00002700 -2.66446969 -0.35779293 1.12629998
7 11.94488200 0.00000000 0.00000100 -0.01255737 -0.27260183 0.91237177
8 10.62018100 0.00000200 0.00000000 0.95042485 0.55818193 2.24256389
9 -4.75110600 -0.69449400 0.83057700 -0.26506600 -0.18521200 0.63841500
10 -1.68806800 0.00004600 -0.00003200 0.01731800 -0.01762500 0.66104700
11 -1.33614000 0.00005700 -0.00001200 0.02626800 0.00232700 0.46266200
12 -4.82049400 -0.50946000 -0.22475900 -0.30496400 -0.06094000 1.40487400
13 -1.82699200 -0.00006400 0.00000600 -0.00832800 0.03958800 1.06556400
14 -1.43657300 0.00000600 0.00000200 -0.06013400 -0.04938400 0.79162700
15 -3.99235500 -0.89118800 -1.82790900 -0.45253100 0.08799900 1.29457900
16 -1.40591800 -0.00002500 -0.00000300 0.00059000 -0.02949400 0.85590800
17 -1.17535800 0.00012800 -0.00002000 0.06441700 0.02146300 1.15302800
18 -4.52675100 -0.69057500 -1.12074400 -0.33008200 0.10310600 1.46474500
19 -1.74403800 0.00003300 -0.00000800 -0.01905300 -0.02261400 1.11317400
20 -1.36877100 0.00002500 0.00000200 0.03795400 0.03618700 0.70440900
21 -1.71880600 -1.28270400 0.93153600 1.77370800 0.56821800 0.78269700
22 -1.52345300 0.00003200 0.00003100 0.07372000 -0.05612300 0.69721800
23 -1.59928500 0.00000400 0.00001600 -0.04580400 -0.07477900 0.31886600
24 5.51181500 0.00000800 -0.00000100 2.24315271 0.00073344 3.14117487
25 0.19684700 -0.00000100 0.00000300 2.79340695 -0.00053640 -3.14146323
26 3.24665400 -11.19288600 -1.58033100 1.97586200 1.15990900 1.84280300
27 6.21448500 0.00000600 0.00002000 -0.22260611 0.58445634 -1.68638501
28 11.94488500 -0.00002900 -0.00019400 0.21159173 -0.36400431 -1.53593794
29 10.62016600 0.00000200 0.00001000 -2.97321022 -0.18695886 0.91657081
30 4.75115600 0.69437600 -0.83047300 0.27008600 -0.31842200 0.81032700
31 1.68806500 -0.00002600 0.00000200 0.01539000 -0.01932400 0.76600700
32 1.33615100 -0.00005100 -0.00000900 0.00904800 -0.03764700 0.13514500
33 4.82051300 0.50934000 0.22486500 0.23182200 -0.24475900 0.91537200
34 1.82699600 0.00006600 0.00000800 -0.01154300 0.03879400 0.98337600
35 1.43657700 -0.00001000 0.00000700 0.01325200 -0.00726600 -0.22688700
36 3.99235300 0.89108700 1.82799400 0.04076900 -0.25921600 0.55173200
37 1.40591800 0.00002100 -0.00000700 -0.00899200 -0.02807500 1.18372600
38 1.17536900 -0.00013100 0.00000200 0.07309900 0.09934300 0.59118900
39 4.52675600 0.69046000 1.12084200 0.12505500 -0.23595800 0.82170200
40 1.74404100 -0.00003100 -0.00000200 -0.02363500 -0.01773100 1.34027200
41 1.36876300 -0.00003100 -0.00001700 -0.00637400 0.15858000 -0.22582000
42 1.87485500 0.93508100 -0.99913000 1.90999600 0.49077500 0.45897800
43 1.52344900 -0.00003400 -0.00000300 -0.00806100 -0.03646600 0.60634800
44 1.59928100 -0.00000200 0.00000900 0.06220500 0.05569400 0.09724300
45 5.51180600 -0.00000200 0.00000600 -1.07120500 0.00000000 0.00000000
46 0.19685000 0.00000300 -0.00000200 -0.34822500 0.00001500 -0.00000200
47 0.00000000 0.00000000 0.00000000 0.00000000 0.00000000 -1.57079600
48 -2.98601200 20.86685400 -3.83864100 0.00000000 0.00000000 -3.14156200
49 -3.10538024 39.99819428 0.68186564 0.00923529 0.00294549 -1.55462755
50 -0.42046500 -0.01874400 1.27144500 0.00000000 0.00000000 0.00000000
51 0.51676100 0.00000000 0.12868600 0.00000000 0.00000000 0.00000000
52 0.55741300 0.00000000 -0.30289700 0.00000000 0.00000000 0.00000000
53 1.17399300 -0.00968900 1.28929900 -0.01138300 1.22624600 -0.03598100
54 -1.50030500 -0.00968900 0.35764300 0.00000000 0.00000000 0.00000000
55 -2.97854400 -0.00968900 2.09113700 0.00000000 0.00000000 0.00000000
56 4.36714400 0.14568200 -1.51795000 0.34347200 1.05899700 1.58127200
57 3.88901500 -2.02803400 -3.39221700 3.01912500 0.54322100 -1.88188800
58 -1.12622600 -0.58494100 -0.29313400 0.00000000 0.00000000 0.00000000
time 9
0 -0.00000100 7.45008900 -27.50902600 0.00000000 0.00000000 0.00003100
1 -0.00000200 0.00000000 0.00000000 1.57074300 -1.56713700 -1.57074300
2 4.25546800 -0.33518300 -0.00000200 0.00000000 0.00000000 -0.12484800
3 7.43124800 1.49647700 0.00000200 0.00000000 0.00000000 0.24545000
4 5.27847900 0.16554100 0.00000100 0.00000000 0.00000000 0.04851100
5 3.87697900 -7.41803500 1.48897600 1.97586400 1.15990900 -1.29878600
6 -6.21448200 -0.00000700 -0.00002700 -2.66780169 -0.35605691 1.11763243
7 11.94488200 0.00000000 0.00000100 -0.00978261 -0.26999397 0.90251558
8 10.62018100 0.00000200 0.00000000 0.93115175 0.56083674 2.23382963
9 -4.75110600 -0.69449400 0.83057700 -0.26506600 -0.18521200 0.63841500
10 -1.68806800 0.00004600 -0.00003200 0.01731800 -0.01762500 0.66104700
11 -1.33614000 0.00005700 -0.00001200 0.02626800 0.00232700 0.46266200
12 -4.82049400 -0.50946000 -0.22475900 -0.30496400 -0.06094000 1.40487400
13 -1.82699200 -0.00006400 0.00000600 -0.00832800 0.03958800 1.06556400
14 -1.43657300 0.00000600 0.00000200 -0.06013400 -0.04938400 0.79162700
15 -3.99235500 -0.89118800 -1.82790900 -0.45253100 0.08799900 1.29457900
16 -1.40591800 -0.00002500 -0.00000300 0.00059000 -0.02949400 0.85590800
17 -1.17535800 0.00012800 -0.00002000 0.06441700 0.02146300 1.15302800
18 -4.52675100 -0.69057500 -1.12074400 -0.33008200 0.10310600 1.46474500
19 -1.74403800 0.00003300 -0.00000800 -0.01905300 -0.02261400 1.11317400
20 -1.36877100 0.00002500 0.00000200 0.03795400 0.03618700 0.70440900
21 -1.71880600 -1.28270400 0.93153600 1.77370800 0.56821800 0.78269700
22 -1.52345300 0.00003200 0.00003100 0.07372000 -0.05612300 0.69721800
23 -1.59928500 0.00000400 0.00001600 -0.04580400 -0.07477900 0.31886600
24 5.51181500 0.00000800 -0.00000100 2.24315271 0.00073344 3.14117487
25 0.19684700 -0.00000100 0.00000300 2.79340695 -0.00053640 -3.14146323
26 3.24665400 -11.19288600 -1.58033100 1.97586200 1.15990900 1.84280300
27 6.21448500 0.00000600 0.00002000 -0.22356503 0.58734418 -1.67337287
28 11.94488500 -0.00002900 -0.00019400 0.21462810 -0.36324689 -1.54483579
29 10.62016600 0.00000200 0.00001000 -2.96043012 -0.17862414 0.91301030
30 4.75115600 0.69437600 -0.83047300 0.27008600 -0.31842200 0.81032700
31 1.68806500 -0.00002600 0.00000200 0.01539000 -0.01932400 0.76600700
32 1.33615100 -0.00005100 -0.00000900 0.00904800 -0.03764700 0.13514500
33 4.82051300 0.50934000 0.22486500 0.23182200 -0.24475900 0.91537200
34 1.82699600 0.00006600 0.00000800 -0.01154300 0.03879400 0.98337600
35 1.43657700 -0.00001000 0.00000700 0.01325200 -0.00726600 -0.22688700
36 3.99235300 0.89108700 1.82799400 0.04076900 -0.25921600 0.55173200
37 1.40591800 0.00002100 -0.00000700 -0.00899200 -0.02807500 1.18372600
38 1.17536900 -0.00013100 0.00000200 0.07309900 0.09934300 0.59118900
39 4.52675600 0.69046000 1.12084200 0.12505500 -0.23595800 0.82170200
40 1.74404100 -0.00003100 -0.00000200 -0.02363500 -0.01773100 1.34027200
41 1.36876300 -0.00003100 -0.00001700 -0.00637400 0.15858000 -0.22582000
42 1.87485500 0.93508100 -0.99913000 1.90999600 0.49077500 0.45897800
43 1.52344900 -0.00003400 -0.00000300 -0.00806100 -0.03646600 0.60634800
44 1.59928100 -0.00000200 0.00000900 0.06220500 0.05569400 0.09724300
45 5.51180600 -0.00000200 0.00000600 -1.07120500 0.00000000 0.00000000
46 0.19685000 0.00000300 -0.00000200 -0.34822500 0.00001500 -0.00000200
47 0.00000000 0.00000000 0.00000000 0.00000000 0.00000000 -1.57079600
48 -2.98601200 20.86685400 -3.83864100 0.00000000 0.00000000 -3.14156200
49 -3.25452963 39.99772128 0.63806718 -0.00036508 0.00117713 -1.55365573
50 -0.42046500 -0.01874400 1.27144500 0.00000000 0.00000000 0.00000000
51 0.51676100 0.00000000 0.12868600 0.00000000 0.00000000 0.00000000
52 0.55741300 0.00000000 -0.30289700 0.00000000 0.00000000 0.00000000
53 1.17399300 -0.00968900 1.28929900 -0.01138300 1.22624600 -0.03598100
54 -1.50030500 -0.00968900 0.35764300 0.00000000 0.00000000 0.00000000
55 -2.97854400 -0.00968900 2.09113700 0.00000000 0.00000000 0.00000000
56 4.36714400 0.14568200 -1.51795000 0.34347200 1.05899700 1.58127200
57 3.88901500 -2.02803400 -3.39221700 3.01912500 0.54322100 -1.88188800
58 -1.12622600 -0.58494100 -0.29313400 0.00000000 0.00000000 0.00000000
time 10
0 -0.00000100 7.45008900 -27.50902600 0.00000000 0.00000000 0.00003100
1 -0.00000200 0.00000000 0.00000000 1.57074300 -1.56713700 -1.57074300
2 4.25546800 -0.33518300 -0.00000200 0.00000000 0.00000000 -0.12484800
3 7.43124800 1.49647700 0.00000200 0.00000000 0.00000000 0.24545000
4 5.27847900 0.16554100 0.00000100 0.00000000 0.00000000 0.04851100
5 3.87697900 -7.41803500 1.48897600 1.97586400 1.15990900 -1.29878600
6 -6.21448200 -0.00000700 -0.00002700 -2.66856558 -0.35682684 1.11709474
7 11.94488200 0.00000000 0.00000100 -0.01012567 -0.26997266 0.90366816
8 10.62018100 0.00000200 0.00000000 0.93611268 0.55550024 2.22881472
9 -4.75110600 -0.69449400 0.83057700 -0.26506600 -0.18521200 0.63841500
10 -1.68806800 0.00004600 -0.00003200 0.01731800 -0.01762500 0.66104700
11 -1.33614000 0.00005700 -0.00001200 0.02626800 0.00232700 0.46266200
12 -4.82049400 -0.50946000 -0.22475900 -0.30496400 -0.06094000 1.40487400
13 -1.82699200 -0.00006400 0.00000600 -0.00832800 0.03958800 1.06556400
14 -1.43657300 0.00000600 0.00000200 -0.06013400 -0.04938400 0.79162700
15 -3.99235500 -0.89118800 -1.82790900 -0.45253100 0.08799900 1.29457900
16 -1.40591800 -0.00002500 -0.00000300 0.00059000 -0.02949400 0.85590800
17 -1.17535800 0.00012800 -0.00002000 0.06441700 0.02146300 1.15302800
18 -4.52675100 -0.69057500 -1.12074400 -0.33008200 0.10310600 1.46474500
19 -1.74403800 0.00003300 -0.00000800 -0.01905300 -0.02261400 1.11317400
20 -1.36877100 0.00002500 0.00000200 0.03795400 0.03618700 0.70440900
21 -1.71880600 -1.28270400 0.93153600 1.77370800 0.56821800 0.78269700
22 -1.52345300 0.00003200 0.00003100 0.07372000 -0.05612300 0.69721800
23 -1.59928500 0.00000400 0.00001600 -0.04580400 -0.07477900 0.31886600
24 5.51181500 0.00000800 -0.00000100 2.24315271 0.00073344 3.14117487
25 0.19684700 -0.00000100 0.00000300 2.79340695 -0.00053640 -3.14146323
26 3.24665400 -11.19288600 -1.58033100 1.97586200 1.15990900 1.84280300
27 6.21448500 0.00000600 0.00002000 -0.22045208 0.58896320 -1.67011298
28 11.94488500 -0.00002900 -0.00019400 0.21623489 -0.36313229 -1.54947780
29 10.62016600 0.00000200 0.00001000 -2.96775308 -0.17418653 0.92226880
30 4.75115600 0.69437600 -0.83047300 0.27008600 -0.31842200 0.81032700
31 1.68806500 -0.00002600 0.00000200 0.01539000 -0.01932400 0.76600700
32 1.33615100 -0.00005100 -0.00000900 0.00904800 -0.03764700 0.13514500
33 4.82051300 0.50934000 0.22486500 0.23182200 -0.24475900 0.91537200
34 1.82699600 0.00006600 0.00000800 -0.01154300 0.03879400 0.98337600
35 1.43657700 -0.00001000 0.00000700 0.01325200 -0.00726600 -0.22688700
36 3.99235300 0.89108700 1.82799400 0.04076900 -0.25921600 0.55173200
37 1.40591800 0.00002100 -0.00000700 -0.00899200 -0.02807500 1.18372600
38 1.17536900 -0.00013100 0.00000200 0.07309900 0.09934300 0.59118900
39 4.52675600 0.69046000 1.12084200 0.12505500 -0.23595800 0.82170200
40 1.74404100 -0.00003100 -0.00000200 -0.02363500 -0.01773100 1.34027200
41 1.36876300 -0.00003100 -0.00001700 -0.00637400 0.15858000 -0.22582000
42 1.87485500 0.93508100 -0.99913000 1.90999600 0.49077500 0.45897800
43 1.52344900 -0.00003400 -0.00000300 -0.00806100 -0.03646600 0.60634800
44 1.59928100 -0.00000200 0.00000900 0.06220500 0.05569400 0.09724300
45 5.51180600 -0.00000200 0.00000600 -1.07120500 0.00000000 0.00000000
46 0.19685000 0.00000300 -0.00000200 -0.34822500 0.00001500 -0.00000200
47 0.00000000 0.00000000 0.00000000 0.00000000 0.00000000 -1.57079600
48 -2.98601200 20.86685400 -3.83864100 0.00000000 0.00000000 -3.14156200
49 -3.28659391 39.99746128 0.58976078 0.00464953 -0.00780205 -1.55281464
50 -0.42046500 -0.01874400 1.27144500 0.00000000 0.00000000 0.00000000
51 0.51676100 0.00000000 0.12868600 0.00000000 0.00000000 0.00000000
52 0.55741300 0.00000000 -0.30289700 0.00000000 0.00000000 0.00000000
53 1.17399300 -0.00968900 1.28929900 -0.01138300 1.22624600 -0.03598100
54 -1.50030500 -0.00968900 0.35764300 0.00000000 0.00000000 0.00000000
55 -2.97854400 -0.00968900 2.09113700 0.00000000 0.00000000 0.00000000
56 4.36714400 0.14568200 -1.51795000 0.34347200 1.05899700 1.58127200
57 3.88901500 -2.02803400 -3.39221700 3.01912500 0.54322100 -1.88188800
58 -1.12622600 -0.58494100 -0.29313400 0.00000000 0.00000000 0.00000000
end
