version 1
nodes
0 "root" -1
1 "pelvis" 0
2 "spine_01" 1
3 "spine_02" 2
4 "spine_03" 3
5 "clavicle_r" 4
6 "upperarm_r" 5
7 "lowerarm_r" 6
8 "hand_r" 7
9 "index_01_r" 8
10 "index_02_r" 9
11 "index_03_r" 10
12 "middle_01_r" 8
13 "middle_02_r" 12
14 "middle_03_r" 13
15 "pinky_01_r" 8
16 "pinky_02_r" 15
17 "pinky_03_r" 16
18 "ring_01_r" 8
19 "ring_02_r" 18
20 "ring_03_r" 19
21 "thumb_01_r" 8
22 "thumb_02_r" 21
23 "thumb_03_r" 22
24 "lowerarm_twist_01_r" 7
25 "upperarm_twist_01_r" 6
26 "clavicle_l" 4
27 "upperarm_l" 26
28 "lowerarm_l" 27
29 "hand_l" 28
30 "index_01_l" 29
31 "index_02_l" 30
32 "index_03_l" 31
33 "middle_01_l" 29
34 "middle_02_l" 33
35 "middle_03_l" 34
36 "pinky_01_l" 29
37 "pinky_02_l" 36
38 "pinky_03_l" 37
39 "ring_01_l" 29
40 "ring_02_l" 39
41 "ring_03_l" 40
42 "thumb_01_l" 29
43 "thumb_02_l" 42
44 "thumb_03_l" 43
45 "lowerarm_twist_01_l" 28
46 "upperarm_twist_01_l" 27
47 "cam_driver" -1
48 "BaseRoot" -1
49 "Base" 48
50 "rhand_ikTarget" 49
51 "Trigger" 49
52 "Mag" 49
53 "MagRotate" 52
54 "Lock" 53
55 "Bullet" 52
56 "Bipod1" 49
57 "Bipod2" 49
58 "Bolt" 49
59 "MagRelease" 49
60 "lhand_ikTarget" 49
end
skeleton
time 0
0 -0.00000100 8.45008800 -27.50902600 0.00000000 0.00000000 0.00003100
1 -0.00000200 0.00000000 0.00000000 1.57074300 -1.56713700 -1.57074300
2 4.25546800 -0.33518300 -0.00000200 0.00000000 0.00000000 -0.12484800
3 7.43124800 1.49647700 0.00000200 0.00000000 0.00000000 0.24545000
4 5.27847900 0.16554100 0.00000100 0.00000000 0.00000000 0.04851100
5 7.49497000 -2.65204900 -0.81884700 1.97586400 1.15990900 -1.29878600
6 -6.21448200 -0.00000700 -0.00002700 -2.89257209 -0.73856578 1.94475512
7 11.94488200 0.00000000 0.00000100 -0.49710428 -0.32309629 1.97546185
8 10.62018100 0.00000200 0.00000000 0.97835722 -0.40218759 2.08155796
9 -4.75110600 -0.69449400 0.83057700 -0.03960500 -0.29626300 -0.00308100
10 -1.68806800 0.00004600 -0.00003200 0.02141900 -0.01231500 0.38900200
11 -1.33614000 0.00005700 -0.00001200 0.02584200 0.00517300 0.35617200
12 -4.82049400 -0.50946000 -0.22475900 -0.36006500 -0.14363500 1.28431000
13 -1.82699200 -0.00006400 0.00000600 0.00061400 0.04047200 1.28917900
14 -1.43657300 0.00000600 0.00000200 -0.02382900 -0.07399300 0.22023700
15 -3.99235500 -0.89118800 -1.82790900 -0.63632800 0.21455600 1.56865800
16 -1.40591800 -0.00002500 -0.00000300 0.00317800 -0.02929700 0.76622800
17 -1.17535800 0.00012800 -0.00002000 0.02747700 0.06211700 0.32120800
18 -4.52675100 -0.69057500 -1.12074400 -0.53952200 -0.03143700 1.37279500
19 -1.74403800 0.00003300 -0.00000800 -0.03482500 0.00222300 1.35013600
20 -1.36877100 0.00002500 0.00000200 0.00993500 0.05150500 0.08698400
21 -2.03839800 -0.89278600 0.93250400 2.37017400 0.23488800 0.89251600
22 -1.62789200 0.15474800 0.01182500 -0.13461700 0.15578500 0.35407600
23 -1.59928500 0.00000400 0.00001600 0.02557400 -0.03449400 0.91320200
24 5.51181500 0.00000800 -0.00000100 2.10279959 -0.06580024 3.11572998
25 0.19684700 -0.00000100 0.00000300 2.79340696 -0.00042058 -3.14146448
26 -3.53538300 -17.47193700 -3.54308500 1.97586200 1.15990900 1.84280300
27 6.21448500 0.00000600 0.00002000 -0.58736096 0.10561573 -2.30905211
28 11.94488500 -0.00002900 -0.00019400 -0.87293904 -0.23004433 -0.69837871
29 10.62016600 0.00000200 0.00001000 -2.85234712 -0.19945314 0.65861930
30 4.75115600 0.69437600 -0.83047300 0.02505900 -0.18560800 0.14615800
31 1.68806500 -0.00002600 0.00000200 -0.00776500 -0.02349400 1.75632300
32 1.33615100 -0.00005100 -0.00000900 0.00924200 -0.03762600 0.12943000
33 4.82051300 0.50934000 0.22486500 -0.20655200 -0.13961500 0.62947100
34 1.82699600 0.00006600 0.00000800 0.02735300 0.02979100 2.01690100
35 1.43657700 -0.00001000 0.00000700 0.01515000 0.00045200 -0.75718600
36 3.99235300 0.89108700 1.82799400 -0.42620000 0.27844800 1.39074000
37 1.40591800 0.00002100 -0.00000700 -0.01231800 -0.02677000 1.30554600
38 1.17536900 -0.00013100 0.00000200 -0.09551900 0.07798600 -0.93359900
39 4.52675600 0.69046000 1.12084200 -0.36932500 0.01644200 1.00623400
40 1.74404100 -0.00003100 -0.00000200 -0.02939300 -0.00337500 1.86812600
41 1.36876300 -0.00003100 -0.00001700 -0.12957300 0.09181900 -1.14340300
42 1.80927100 0.89529200 -1.12011000 1.88461400 0.36803000 0.40774200
43 1.49514200 -0.24140600 0.04488000 0.00360000 -0.23414300 0.03443400
44 1.57424700 -0.10445300 0.03324400 0.03981700 0.07342300 -0.24671300
45 5.51180600 -0.00000200 0.00000600 -0.95227000 0.00000000 0.00000000
46 0.19685000 0.00000300 -0.00000200 -0.34822500 0.00001500 -0.00000200
47 0.00000000 1.00000000 0.00000000 0.00000000 0.00000000 -1.57079600
48 -2.88370300 33.22035600 -3.42586400 0.00000000 0.00000000 -3.14156200
49 0.30426561 48.16783456 0.04450638 0.05925858 -0.00019970 -1.57075609
50 12.56762700 2.09891000 -1.00402300 -0.46114000 1.17637700 1.30017600
51 5.51488500 0.00125700 -1.24599700 0.00000000 0.00000000 0.00000000
52 -4.75217100 -0.00628100 1.20006800 0.00000000 0.00000000 0.00000000
53 0.00061400 0.00066700 0.50325400 0.00000000 0.00000000 0.00000000
54 4.54271700 0.00537300 0.21708100 0.00000000 0.00000000 0.00000000
55 4.17129300 0.00604000 -0.31881100 0.00000000 0.00000000 0.00000000
56 -17.25021400 -0.94309300 -1.90536400 -0.92939900 -0.90116900 0.80976100
57 -17.25021000 0.90359500 -1.88984800 0.91516600 -0.94896100 -0.81298500
58 -1.11169400 1.28617900 -1.15214400 0.00000000 0.00000000 0.00000000
59 4.93526200 0.00125700 2.07058000 0.00000000 0.00000000 0.00000000
60 -8.44460300 -2.21927500 -2.25476700 3.09200100 1.15353800 -2.39145700
time 1
0 -0.00000100 8.45008800 -27.50902600 0.00000000 0.00000000 0.00003100
1 -0.00000200 0.00000000 0.00000000 1.57074300 -1.56713700 -1.57074300
2 4.25546800 -0.33518300 -0.00000200 0.00000000 0.00000000 -0.12484800
3 7.43124800 1.49647700 0.00000200 0.00000000 0.00000000 0.24545000
4 5.27847900 0.16554100 0.00000100 0.00000000 0.00000000 0.04851100
5 7.31505900 -2.85750600 -0.67857100 1.97586400 1.15990900 -1.29878600
6 -6.21448200 -0.00000700 -0.00002700 -2.90289480 -0.74790900 1.94991961
7 11.94488200 0.00000000 0.00000100 -0.50099399 -0.32156815 1.98787479
8 10.62018100 0.00000200 0.00000000 0.97614545 -0.39930838 2.10396426
9 -4.75110600 -0.69449400 0.83057700 -0.03960500 -0.29626300 -0.00308100
10 -1.68806800 0.00004600 -0.00003200 0.02141900 -0.01231500 0.38900200
11 -1.33614000 0.00005700 -0.00001200 0.02584200 0.00517300 0.35617200
12 -4.82049400 -0.50946000 -0.22475900 -0.36006500 -0.14363500 1.28431000
13 -1.82699200 -0.00006400 0.00000600 0.00061400 0.04047200 1.28917900
14 -1.43657300 0.00000600 0.00000200 -0.02382900 -0.07399300 0.22023700
15 -3.99235500 -0.89118800 -1.82790900 -0.63632800 0.21455600 1.56865800
16 -1.40591800 -0.00002500 -0.00000300 0.00317800 -0.02929700 0.76622800
17 -1.17535800 0.00012800 -0.00002000 0.02747700 0.06211700 0.32120800
18 -4.52675100 -0.69057500 -1.12074400 -0.53952200 -0.03143700 1.37279500
19 -1.74403800 0.00003300 -0.00000800 -0.03482500 0.00222300 1.35013600
20 -1.36877100 0.00002500 0.00000200 0.00993500 0.05150500 0.08698400
21 -2.03839800 -0.89278600 0.93250400 2.37017400 0.23488800 0.89251600
22 -1.62789200 0.15474800 0.01182500 -0.13461700 0.15578500 0.35407600
23 -1.59928500 0.00000400 0.00001600 0.02557400 -0.03449400 0.91320200
24 5.51181500 0.00000800 -0.00000100 2.10279959 -0.06580024 3.11572998
25 0.19684700 -0.00000100 0.00000300 2.79340696 -0.00042058 -3.14146448
26 -3.53538300 -17.47193700 -3.54308500 1.97586200 1.15990900 1.84280300
27 6.21448500 0.00000600 0.00002000 -0.60428335 0.10983386 -2.29141971
28 11.94488500 -0.00002900 -0.00019400 -0.86729448 -0.23630497 -0.72287101
29 10.62016600 0.00000200 0.00001000 -2.83218197 -0.21534027 0.66092801
30 4.75115600 0.69437600 -0.83047300 0.02505900 -0.18560800 0.14615800
31 1.68806500 -0.00002600 0.00000200 -0.00776500 -0.02349400 1.75632300
32 1.33615100 -0.00005100 -0.00000900 0.00924200 -0.03762600 0.12943000
33 4.82051300 0.50934000 0.22486500 -0.20655200 -0.13961500 0.62947100
34 1.82699600 0.00006600 0.00000800 0.02735300 0.02979100 2.01690100
35 1.43657700 -0.00001000 0.00000700 0.01515000 0.00045200 -0.75718600
36 3.99235300 0.89108700 1.82799400 -0.42620000 0.27844800 1.39074000
37 1.40591800 0.00002100 -0.00000700 -0.01231800 -0.02677000 1.30554600
38 1.17536900 -0.00013100 0.00000200 -0.09551900 0.07798600 -0.93359900
39 4.52675600 0.69046000 1.12084200 -0.36932500 0.01644200 1.00623400
40 1.74404100 -0.00003100 -0.00000200 -0.02939300 -0.00337500 1.86812600
41 1.36876300 -0.00003100 -0.00001700 -0.12957300 0.09181900 -1.14340300
42 1.80927100 0.89529200 -1.12011000 1.88461400 0.36803000 0.40774200
43 1.49514200 -0.24140600 0.04488000 0.00360000 -0.23414300 0.03443400
44 1.57424700 -0.10445300 0.03324400 0.03981700 0.07342300 -0.24671300
45 5.51180600 -0.00000200 0.00000600 -0.95227000 0.00000000 0.00000000
46 0.19685000 0.00000300 -0.00000200 -0.34822500 0.00001500 -0.00000200
47 0.00000000 1.00000000 0.00000000 0.00000000 0.00000000 -1.57079600
48 -2.88370300 33.22035600 -3.42586400 0.00000000 0.00000000 -3.14156200
49 0.10501846 48.22460156 0.01696102 0.06364182 0.01673446 -1.55019376
50 12.56762700 2.09891000 -1.00402300 -0.46114000 1.17637700 1.30017600
51 5.51488500 0.00125700 -1.24599700 0.00000000 0.00000000 0.00000000
52 -4.75217100 -0.00628100 1.20006800 0.00000000 0.00000000 0.00000000
53 0.00061400 0.00066700 0.50325400 0.00000000 0.00000000 0.00000000
54 4.54271700 0.00537300 0.21708100 0.00000000 0.00000000 0.00000000
55 4.17129300 0.00604000 -0.31881100 0.00000000 0.00000000 0.00000000
56 -17.25021400 -0.94309300 -1.90536400 -0.92939900 -0.90116900 0.80976100
57 -17.25021000 0.90359500 -1.88984800 0.91516600 -0.94896100 -0.81298500
58 -1.11169400 1.28617900 -1.15214400 0.00000000 0.00000000 0.00000000
59 4.93526200 0.00125700 2.07058000 0.00000000 0.00000000 0.00000000
60 -8.44460300 -2.21927500 -2.25476700 3.09200100 1.15353800 -2.39145700
time 2
0 -0.00000100 8.45008800 -27.50902600 0.00000000 0.00000000 0.00003100
1 -0.00000200 0.00000000 0.00000000 1.57074300 -1.56713700 -1.57074300
2 4.25546800 -0.33518300 -0.00000200 0.00000000 0.00000000 -0.12484800
3 7.43124800 1.49647700 0.00000200 0.00000000 0.00000000 0.24545000
4 5.27847900 0.16554100 0.00000100 0.00000000 0.00000000 0.04851100
5 6.81765700 -3.42553400 -0.29075000 1.97586400 1.15990900 -1.29878600
6 -6.21448200 -0.00000700 -0.00002700 -2.91795327 -0.76966607 1.95557652
7 11.94488200 0.00000000 0.00000100 -0.51030969 -0.31779232 2.01753224
8 10.62018100 0.00000200 0.00000000 0.98912853 -0.39742637 2.16295165
9 -4.75110600 -0.69449400 0.83057700 -0.03960500 -0.29626300 -0.00308100
10 -1.68806800 0.00004600 -0.00003200 0.02141900 -0.01231500 0.38900200
11 -1.33614000 0.00005700 -0.00001200 0.02584200 0.00517300 0.35617200
12 -4.82049400 -0.50946000 -0.22475900 -0.36006500 -0.14363500 1.28431000
13 -1.82699200 -0.00006400 0.00000600 0.00061400 0.04047200 1.28917900
14 -1.43657300 0.00000600 0.00000200 -0.02382900 -0.07399300 0.22023700
15 -3.99235500 -0.89118800 -1.82790900 -0.63632800 0.21455600 1.56865800
16 -1.40591800 -0.00002500 -0.00000300 0.00317800 -0.02929700 0.76622800
17 -1.17535800 0.00012800 -0.00002000 0.02747700 0.06211700 0.32120800
18 -4.52675100 -0.69057500 -1.12074400 -0.53952200 -0.03143700 1.37279500
19 -1.74403800 0.00003300 -0.00000800 -0.03482500 0.00222300 1.35013600
20 -1.36877100 0.00002500 0.00000200 0.00993500 0.05150500 0.08698400
21 -2.03839800 -0.89278600 0.93250400 2.37017400 0.23488800 0.89251600
22 -1.62789200 0.15474800 0.01182500 -0.13461700 0.15578500 0.35407600
23 -1.59928500 0.00000400 0.00001600 0.02557400 -0.03449400 0.91320200
24 5.51181500 0.00000800 -0.00000100 2.10279959 -0.06580024 3.11572998
25 0.19684700 -0.00000100 0.00000300 2.79340696 -0.00042058 -3.14146448
26 -3.53538300 -17.47193700 -3.54308500 1.97586200 1.15990900 1.84280300
27 6.21448500 0.00000600 0.00002000 -0.65385697 0.11588166 -2.24919425
28 11.94488500 -0.00002900 -0.00019400 -0.85326937 -0.25055329 -0.78081980
29 10.62016600 0.00000200 0.00001000 -2.78101362 -0.25702574 0.65652163
30 4.75115600 0.69437600 -0.83047300 0.02505900 -0.18560800 0.14615800
31 1.68806500 -0.00002600 0.00000200 -0.00776500 -0.02349400 1.75632300
32 1.33615100 -0.00005100 -0.00000900 0.00924200 -0.03762600 0.12943000
33 4.82051300 0.50934000 0.22486500 -0.20655200 -0.13961500 0.62947100
34 1.82699600 0.00006600 0.00000800 0.02735300 0.02979100 2.01690100
35 1.43657700 -0.00001000 0.00000700 0.01515000 0.00045200 -0.75718600
36 3.99235300 0.89108700 1.82799400 -0.42620000 0.27844800 1.39074000
37 1.40591800 0.00002100 -0.00000700 -0.01231800 -0.02677000 1.30554600
38 1.17536900 -0.00013100 0.00000200 -0.09551900 0.07798600 -0.93359900
39 4.52675600 0.69046000 1.12084200 -0.36932500 0.01644200 1.00623400
40 1.74404100 -0.00003100 -0.00000200 -0.02939300 -0.00337500 1.86812600
41 1.36876300 -0.00003100 -0.00001700 -0.12957300 0.09181900 -1.14340300
42 1.80927100 0.89529200 -1.12011000 1.88461400 0.36803000 0.40774200
43 1.49514200 -0.24140600 0.04488000 0.00360000 -0.23414300 0.03443400
44 1.57424700 -0.10445300 0.03324400 0.03981700 0.07342300 -0.24671300
45 5.51180600 -0.00000200 0.00000600 -0.95227000 0.00000000 0.00000000
46 0.19685000 0.00000300 -0.00000200 -0.34822500 0.00001500 -0.00000200
47 0.00000000 1.00000000 0.00000000 0.00000000 0.00000000 -1.57079600
48 -2.88370300 33.22035600 -3.42586400 0.00000000 0.00000000 -3.14156200
49 -0.43850891 48.37099856 0.01621891 0.08937990 0.06369991 -1.49146149
50 12.56762700 2.09891000 -1.00402300 -0.46114000 1.17637700 1.30017600
51 5.51488500 0.00125700 -1.24599700 0.00000000 0.00000000 0.00000000
52 -4.75217100 -0.00628100 1.20006800 0.00000000 0.00000000 0.00000000
53 0.00061400 0.00066700 0.50325400 0.00000000 0.00000000 0.00000000
54 4.54271700 0.00537300 0.21708100 0.00000000 0.00000000 0.00000000
55 4.17129300 0.00604000 -0.31881100 0.00000000 0.00000000 0.00000000
56 -17.25021400 -0.94309300 -1.90536400 -0.92939900 -0.90116900 0.80976100
57 -17.25021000 0.90359500 -1.88984800 0.91516600 -0.94896100 -0.81298500
58 -1.11169400 1.28617900 -1.15214400 0.00000000 0.00000000 0.00000000
59 4.93526200 0.00125700 2.07058000 0.00000000 0.00000000 0.00000000
60 -8.44460300 -2.21927500 -2.25476700 3.09200100 1.15353800 -2.39145700
time 3
0 -0.00000100 8.45008800 -27.50902600 0.00000000 0.00000000 0.00003100
1 -0.00000200 0.00000000 0.00000000 1.57074300 -1.56713700 -1.57074300
2 4.25546800 -0.33518300 -0.00000200 0.00000000 0.00000000 -0.12484800
3 7.43124800 1.49647700 0.00000200 0.00000000 0.00000000 0.24545000
4 5.27847900 0.16554100 0.00000100 0.00000000 0.00000000 0.04851100
5 6.06626500 -4.28361900 0.29510800 1.97586400 1.15990900 -1.29878600
6 -6.21448200 -0.00000700 -0.00002700 -2.91825628 -0.79576366 1.94577526
7 11.94488200 0.00000000 0.00000100 -0.52066629 -0.31317135 2.05089673
8 10.62018100 0.00000200 0.00000000 1.02228137 -0.40994834 2.24476631
9 -4.75110600 -0.69449400 0.83057700 -0.03960500 -0.29626300 -0.00308100
10 -1.68806800 0.00004600 -0.00003200 0.02141900 -0.01231500 0.38900200
11 -1.33614000 0.00005700 -0.00001200 0.02584200 0.00517300 0.35617200
12 -4.82049400 -0.50946000 -0.22475900 -0.36006500 -0.14363500 1.28431000
13 -1.82699200 -0.00006400 0.00000600 0.00061400 0.04047200 1.28917900
14 -1.43657300 0.00000600 0.00000200 -0.02382900 -0.07399300 0.22023700
15 -3.99235500 -0.89118800 -1.82790900 -0.63632800 0.21455600 1.56865800
16 -1.40591800 -0.00002500 -0.00000300 0.00317800 -0.02929700 0.76622800
17 -1.17535800 0.00012800 -0.00002000 0.02747700 0.06211700 0.32120800
18 -4.52675100 -0.69057500 -1.12074400 -0.53952200 -0.03143700 1.37279500
19 -1.74403800 0.00003300 -0.00000800 -0.03482500 0.00222300 1.35013600
20 -1.36877100 0.00002500 0.00000200 0.00993500 0.05150500 0.08698400
21 -2.03839800 -0.89278600 0.93250400 2.37017400 0.23488800 0.89251600
22 -1.62789200 0.15474800 0.01182500 -0.13461700 0.15578500 0.35407600
23 -1.59928500 0.00000400 0.00001600 0.02557400 -0.03449400 0.91320200
24 5.51181500 0.00000800 -0.00000100 2.10279959 -0.06580024 3.11572998
25 0.19684700 -0.00000100 0.00000300 2.79340696 -0.00042058 -3.14146448
26 -3.53538300 -17.47193700 -3.54308500 1.97586200 1.15990900 1.84280300
27 6.21448500 0.00000600 0.00002000 -0.73272906 0.12396305 -2.19350745
28 11.94488500 -0.00002900 -0.00019400 -0.83215713 -0.26942584 -0.86270134
29 10.62016600 0.00000200 0.00001000 -2.70321247 -0.31416627 0.64519170
30 4.75115600 0.69437600 -0.83047300 0.02505900 -0.18560800 0.14615800
31 1.68806500 -0.00002600 0.00000200 -0.00776500 -0.02349400 1.75632300
32 1.33615100 -0.00005100 -0.00000900 0.00924200 -0.03762600 0.12943000
33 4.82051300 0.50934000 0.22486500 -0.20655200 -0.13961500 0.62947100
34 1.82699600 0.00006600 0.00000800 0.02735300 0.02979100 2.01690100
35 1.43657700 -0.00001000 0.00000700 0.01515000 0.00045200 -0.75718600
36 3.99235300 0.89108700 1.82799400 -0.42620000 0.27844800 1.39074000
37 1.40591800 0.00002100 -0.00000700 -0.01231800 -0.02677000 1.30554600
38 1.17536900 -0.00013100 0.00000200 -0.09551900 0.07798600 -0.93359900
39 4.52675600 0.69046000 1.12084200 -0.36932500 0.01644200 1.00623400
40 1.74404100 -0.00003100 -0.00000200 -0.02939300 -0.00337500 1.86812600
41 1.36876300 -0.00003100 -0.00001700 -0.12957300 0.09181900 -1.14340300
42 1.80927100 0.89529200 -1.12011000 1.88461400 0.36803000 0.40774200
43 1.49514200 -0.24140600 0.04488000 0.00360000 -0.23414300 0.03443400
44 1.57424700 -0.10445300 0.03324400 0.03981700 0.07342300 -0.24671300
45 5.51180600 -0.00000200 0.00000600 -0.95227000 0.00000000 0.00000000
46 0.19685000 0.00000300 -0.00000200 -0.34822500 0.00001500 -0.00000200
47 0.00000000 1.00000000 0.00000000 0.00000000 0.00000000 -1.57079600
48 -2.88370300 33.22035600 -3.42586400 0.00000000 0.00000000 -3.14156200
49 -1.24475555 48.57117856 0.05699111 0.13652538 0.12760415 -1.39888780
50 12.56762700 2.09891000 -1.00402300 -0.46114000 1.17637700 1.30017600
51 5.51488500 0.00125700 -1.24599700 0.00000000 0.00000000 0.00000000
52 -4.75217100 -0.00628100 1.20006800 0.00000000 0.00000000 0.00000000
53 0.00061400 0.00066700 0.50325400 0.00000000 0.00000000 0.00000000
54 4.54271700 0.00537300 0.21708100 0.00000000 0.00000000 0.00000000
55 4.17129300 0.00604000 -0.31881100 0.00000000 0.00000000 0.00000000
56 -17.25021400 -0.94309300 -1.90536400 -0.92939900 -0.90116900 0.80976100
57 -17.25021000 0.90359500 -1.88984800 0.91516600 -0.94896100 -0.81298500
58 -1.11169400 1.28617900 -1.15214400 0.00000000 0.00000000 0.00000000
59 4.93526200 0.00125700 2.07058000 0.00000000 0.00000000 0.00000000
60 -8.44460300 -2.21927500 -2.25476700 3.09200100 1.15353800 -2.39145700
time 4
0 -0.00000100 8.45008800 -27.50902600 0.00000000 0.00000000 0.00003100
1 -0.00000200 0.00000000 0.00000000 1.57074300 -1.56713700 -1.57074300
2 4.25546800 -0.33518300 -0.00000200 0.00000000 0.00000000 -0.12484800
3 7.43124800 1.49647700 0.00000200 0.00000000 0.00000000 0.24545000
4 5.27847900 0.16554100 0.00000100 0.00000000 0.00000000 0.04851100
5 5.12437900 -5.35924800 1.02949200 1.97586400 1.15990900 -1.29878600
6 -6.21448200 -0.00000700 -0.00002700 -2.88787902 -0.81962484 1.90440169
7 11.94488200 0.00000000 0.00000100 -0.52831145 -0.30928464 2.07593108
8 10.62018100 0.00000200 0.00000000 1.07029683 -0.44661021 2.33683509
9 -4.75110600 -0.69449400 0.83057700 -0.03960500 -0.29626300 -0.00308100
10 -1.68806800 0.00004600 -0.00003200 0.02141900 -0.01231500 0.38900200
11 -1.33614000 0.00005700 -0.00001200 0.02584200 0.00517300 0.35617200
12 -4.82049400 -0.50946000 -0.22475900 -0.36006500 -0.14363500 1.28431000
13 -1.82699200 -0.00006400 0.00000600 0.00061400 0.04047200 1.28917900
14 -1.43657300 0.00000600 0.00000200 -0.02382900 -0.07399300 0.22023700
15 -3.99235500 -0.89118800 -1.82790900 -0.63632800 0.21455600 1.56865800
16 -1.40591800 -0.00002500 -0.00000300 0.00317800 -0.02929700 0.76622800
17 -1.17535800 0.00012800 -0.00002000 0.02747700 0.06211700 0.32120800
18 -4.52675100 -0.69057500 -1.12074400 -0.53952200 -0.03143700 1.37279500
19 -1.74403800 0.00003300 -0.00000800 -0.03482500 0.00222300 1.35013600
20 -1.36877100 0.00002500 0.00000200 0.00993500 0.05150500 0.08698400
21 -2.03839800 -0.89278600 0.93250400 2.37017400 0.23488800 0.89251600
22 -1.62789200 0.15474800 0.01182500 -0.13461700 0.15578500 0.35407600
23 -1.59928500 0.00000400 0.00001600 0.02557400 -0.03449400 0.91320200
24 5.51181500 0.00000800 -0.00000100 2.10279959 -0.06580024 3.11572998
25 0.19684700 -0.00000100 0.00000300 2.79340696 -0.00042058 -3.14146448
26 -3.53538300 -17.47193700 -3.54308500 1.97586200 1.15990900 1.84280300
27 6.21448500 0.00000600 0.00002000 -0.83522045 0.13446706 -2.13410577
28 11.94488500 -0.00002900 -0.00019400 -0.80500536 -0.28953802 -0.96097989
29 10.62016600 0.00000200 0.00001000 -2.60166078 -0.37557189 0.62730361
30 4.75115600 0.69437600 -0.83047300 0.02505900 -0.18560800 0.14615800
31 1.68806500 -0.00002600 0.00000200 -0.00776500 -0.02349400 1.75632300
32 1.33615100 -0.00005100 -0.00000900 0.00924200 -0.03762600 0.12943000
33 4.82051300 0.50934000 0.22486500 -0.20655200 -0.13961500 0.62947100
34 1.82699600 0.00006600 0.00000800 0.02735300 0.02979100 2.01690100
35 1.43657700 -0.00001000 0.00000700 0.01515000 0.00045200 -0.75718600
36 3.99235300 0.89108700 1.82799400 -0.42620000 0.27844800 1.39074000
37 1.40591800 0.00002100 -0.00000700 -0.01231800 -0.02677000 1.30554600
38 1.17536900 -0.00013100 0.00000200 -0.09551900 0.07798600 -0.93359900
39 4.52675600 0.69046000 1.12084200 -0.36932500 0.01644200 1.00623400
40 1.74404100 -0.00003100 -0.00000200 -0.02939300 -0.00337500 1.86812600
41 1.36876300 -0.00003100 -0.00001700 -0.12957300 0.09181900 -1.14340300
42 1.80927100 0.89529200 -1.12011000 1.88461400 0.36803000 0.40774200
43 1.49514200 -0.24140600 0.04488000 0.00360000 -0.23414300 0.03443400
44 1.57424700 -0.10445300 0.03324400 0.03981700 0.07342300 -0.24671300
45 5.51180600 -0.00000200 0.00000600 -0.95227000 0.00000000 0.00000000
46 0.19685000 0.00000300 -0.00000200 -0.34822500 0.00001500 -0.00000200
47 0.00000000 1.00000000 0.00000000 0.00000000 0.00000000 -1.57079600
48 -2.88370300 33.22035600 -3.42586400 0.00000000 0.00000000 -3.14156200
49 -2.23119140 48.78928356 0.11041040 0.20106388 0.19510735 -1.27741610
50 12.56762700 2.09891000 -1.00402300 -0.46114000 1.17637700 1.30017600
51 5.51488500 0.00125700 -1.24599700 0.00000000 0.00000000 0.00000000
52 -4.75217100 -0.00628100 1.20006800 0.00000000 0.00000000 0.00000000
53 0.00061400 0.00066700 0.50325400 0.00000000 0.00000000 0.00000000
54 4.54271700 0.00537300 0.21708100 0.00000000 0.00000000 0.00000000
55 4.17129300 0.00604000 -0.31881100 0.00000000 0.00000000 0.00000000
56 -17.25021400 -0.94309300 -1.90536400 -0.92939900 -0.90116900 0.80976100
57 -17.25021000 0.90359500 -1.88984800 0.91516600 -0.94896100 -0.81298500
58 -1.11169400 1.28617900 -1.15214400 0.00000000 0.00000000 0.00000000
59 4.93526200 0.00125700 2.07058000 0.00000000 0.00000000 0.00000000
60 -8.44460300 -2.21927500 -2.25476700 3.09200100 1.15353800 -2.39145700
time 5
0 -0.00000100 8.45008800 -27.50902600 0.00000000 0.00000000 0.00003100
1 -0.00000200 0.00000000 0.00000000 1.57074300 -1.56713700 -1.57074300
2 4.25546800 -0.33518300 -0.00000200 0.00000000 0.00000000 -0.12484800
3 7.43124800 1.49647700 0.00000200 0.00000000 0.00000000 0.24545000
4 5.27847900 0.16554100 0.00000100 0.00000000 0.00000000 0.04851100
5 4.05549600 -6.57990500 1.86289500 1.97586400 1.15990900 -1.29878600
6 -6.21448200 -0.00000700 -0.00002700 -2.81763249 -0.83328822 1.81732209
7 11.94488200 0.00000000 0.00000100 -0.53166436 -0.30751442 2.08686264
8 10.62018100 0.00000200 0.00000000 1.12003279 -0.51171781 2.41896806
9 -4.75110600 -0.69449400 0.83057700 -0.03960500 -0.29626300 -0.00308100
10 -1.68806800 0.00004600 -0.00003200 0.02141900 -0.01231500 0.38900200
11 -1.33614000 0.00005700 -0.00001200 0.02584200 0.00517300 0.35617200
12 -4.82049400 -0.50946000 -0.22475900 -0.36006500 -0.14363500 1.28431000
13 -1.82699200 -0.00006400 0.00000600 0.00061400 0.04047200 1.28917900
14 -1.43657300 0.00000600 0.00000200 -0.02382900 -0.07399300 0.22023700
15 -3.99235500 -0.89118800 -1.82790900 -0.63632800 0.21455600 1.56865800
16 -1.40591800 -0.00002500 -0.00000300 0.00317800 -0.02929700 0.76622800
17 -1.17535800 0.00012800 -0.00002000 0.02747700 0.06211700 0.32120800
18 -4.52675100 -0.69057500 -1.12074400 -0.53952200 -0.03143700 1.37279500
19 -1.74403800 0.00003300 -0.00000800 -0.03482500 0.00222300 1.35013600
20 -1.36877100 0.00002500 0.00000200 0.00993500 0.05150500 0.08698400
21 -2.03839800 -0.89278600 0.93250400 2.37017400 0.23488800 0.89251600
22 -1.62789200 0.15474800 0.01182500 -0.13461700 0.15578500 0.35407600
23 -1.59928500 0.00000400 0.00001600 0.02557400 -0.03449400 0.91320200
24 5.51181500 0.00000800 -0.00000100 2.10279959 -0.06580024 3.11572998
25 0.19684700 -0.00000100 0.00000300 2.79340696 -0.00042058 -3.14146448
26 -3.53538300 -17.47193700 -3.54308500 1.97586200 1.15990900 1.84280300
27 6.21448500 0.00000600 0.00002000 -0.95370122 0.14597496 -2.07929814
28 11.94488500 -0.00002900 -0.00019400 -0.77315866 -0.30827656 -1.06855614
29 10.62016600 0.00000200 0.00001000 -2.48054263 -0.43250270 0.61062719
30 4.75115600 0.69437600 -0.83047300 0.02505900 -0.18560800 0.14615800
31 1.68806500 -0.00002600 0.00000200 -0.00776500 -0.02349400 1.75632300
32 1.33615100 -0.00005100 -0.00000900 0.00924200 -0.03762600 0.12943000
33 4.82051300 0.50934000 0.22486500 -0.20655200 -0.13961500 0.62947100
34 1.82699600 0.00006600 0.00000800 0.02735300 0.02979100 2.01690100
35 1.43657700 -0.00001000 0.00000700 0.01515000 0.00045200 -0.75718600
36 3.99235300 0.89108700 1.82799400 -0.42620000 0.27844800 1.39074000
37 1.40591800 0.00002100 -0.00000700 -0.01231800 -0.02677000 1.30554600
38 1.17536900 -0.00013100 0.00000200 -0.09551900 0.07798600 -0.93359900
39 4.52675600 0.69046000 1.12084200 -0.36932500 0.01644200 1.00623400
40 1.74404100 -0.00003100 -0.00000200 -0.02939300 -0.00337500 1.86812600
41 1.36876300 -0.00003100 -0.00001700 -0.12957300 0.09181900 -1.14340300
42 1.80927100 0.89529200 -1.12011000 1.88461400 0.36803000 0.40774200
43 1.49514200 -0.24140600 0.04488000 0.00360000 -0.23414300 0.03443400
44 1.57424700 -0.10445300 0.03324400 0.03981700 0.07342300 -0.24671300
45 5.51180600 -0.00000200 0.00000600 -0.95227000 0.00000000 0.00000000
46 0.19685000 0.00000300 -0.00000200 -0.34822500 0.00001500 -0.00000200
47 0.00000000 1.00000000 0.00000000 0.00000000 0.00000000 -1.57079600
48 -2.88370300 33.22035600 -3.42586400 0.00000000 0.00000000 -3.14156200
49 -3.31504738 48.98945956 0.16710239 0.27087375 0.25321015 -1.13536478
50 12.56762700 2.09891000 -1.00402300 -0.46114000 1.17637700 1.30017600
51 5.51488500 0.00125700 -1.24599700 0.00000000 0.00000000 0.00000000
52 -4.75217100 -0.00628100 1.20006800 0.00000000 0.00000000 0.00000000
53 0.00061400 0.00066700 0.50325400 0.00000000 0.00000000 0.00000000
54 4.54271700 0.00537300 0.21708100 0.00000000 0.00000000 0.00000000
55 4.17129300 0.00604000 -0.31881100 0.00000000 0.00000000 0.00000000
56 -17.25021400 -0.94309300 -1.90536400 -0.92939900 -0.90116900 0.80976100
57 -17.25021000 0.90359500 -1.88984800 0.91516600 -0.94896100 -0.81298500
58 -1.11169400 1.28617900 -1.15214400 0.00000000 0.00000000 0.00000000
59 4.93526200 0.00125700 2.07058000 0.00000000 0.00000000 0.00000000
60 -8.44460300 -2.21927500 -2.25476700 3.09200100 1.15353800 -2.39145700
time 6
0 -0.00000100 8.45008800 -27.50902600 0.00000000 0.00000000 0.00003100
1 -0.00000200 0.00000000 0.00000000 1.57074300 -1.56713700 -1.57074300
2 4.25546800 -0.33518300 -0.00000200 0.00000000 0.00000000 -0.12484800
3 7.43124800 1.49647700 0.00000200 0.00000000 0.00000000 0.24545000
4 5.27847900 0.16554100 0.00000100 0.00000000 0.00000000 0.04851100
5 2.92311400 -7.87307600 2.74580600 1.97586400 1.15990900 -1.29878600
6 -6.21448200 -0.00000700 -0.00002700 -2.71704812 -0.82671938 1.68633462
7 11.94488200 0.00000000 0.00000100 -0.53099061 -0.30781646 2.08483545
8 10.62018100 0.00000200 0.00000000 1.15963915 -0.59843982 2.46886825
9 -4.75110600 -0.69449400 0.83057700 -0.03960500 -0.29626300 -0.00308100
10 -1.68806800 0.00004600 -0.00003200 0.02141900 -0.01231500 0.38900200
11 -1.33614000 0.00005700 -0.00001200 0.02584200 0.00517300 0.35617200
12 -4.82049400 -0.50946000 -0.22475900 -0.36006500 -0.14363500 1.28431000
13 -1.82699200 -0.00006400 0.00000600 0.00061400 0.04047200 1.28917900
14 -1.43657300 0.00000600 0.00000200 -0.02382900 -0.07399300 0.22023700
15 -3.99235500 -0.89118800 -1.82790900 -0.63632800 0.21455600 1.56865800
16 -1.40591800 -0.00002500 -0.00000300 0.00317800 -0.02929700 0.76622800
17 -1.17535800 0.00012800 -0.00002000 0.02747700 0.06211700 0.32120800
18 -4.52675100 -0.69057500 -1.12074400 -0.53952200 -0.03143700 1.37279500
19 -1.74403800 0.00003300 -0.00000800 -0.03482500 0.00222300 1.35013600
20 -1.36877100 0.00002500 0.00000200 0.00993500 0.05150500 0.08698400
21 -2.03839800 -0.89278600 0.93250400 2.37017400 0.23488800 0.89251600
22 -1.62789200 0.15474800 0.01182500 -0.13461700 0.15578500 0.35407600
23 -1.59928500 0.00000400 0.00001600 0.02557400 -0.03449400 0.91320200
24 5.51181500 0.00000800 -0.00000100 2.10279959 -0.06580024 3.11572998
25 0.19684700 -0.00000100 0.00000300 2.79340696 -0.00042058 -3.14146448
26 -3.53538300 -17.47193700 -3.54308500 1.97586200 1.15990900 1.84280300
27 6.21448500 0.00000600 0.00002000 -1.07762091 0.15720149 -2.03302977
28 11.94488500 -0.00002900 -0.00019400 -0.73824815 -0.32296473 -1.18050136
29 10.62016600 0.00000200 0.00001000 -2.35203697 -0.48365259 0.60586207
30 4.75115600 0.69437600 -0.83047300 0.02505900 -0.18560800 0.14615800
31 1.68806500 -0.00002600 0.00000200 -0.00776500 -0.02349400 1.75632300
32 1.33615100 -0.00005100 -0.00000900 0.00924200 -0.03762600 0.12943000
33 4.82051300 0.50934000 0.22486500 -0.20655200 -0.13961500 0.62947100
34 1.82699600 0.00006600 0.00000800 0.02735300 0.02979100 2.01690100
35 1.43657700 -0.00001000 0.00000700 0.01515000 0.00045200 -0.75718600
36 3.99235300 0.89108700 1.82799400 -0.42620000 0.27844800 1.39074000
37 1.40591800 0.00002100 -0.00000700 -0.01231800 -0.02677000 1.30554600
38 1.17536900 -0.00013100 0.00000200 -0.09551900 0.07798600 -0.93359900
39 4.52675600 0.69046000 1.12084200 -0.36932500 0.01644200 1.00623400
40 1.74404100 -0.00003100 -0.00000200 -0.02939300 -0.00337500 1.86812600
41 1.36876300 -0.00003100 -0.00001700 -0.12957300 0.09181900 -1.14340300
42 1.80927100 0.89529200 -1.12011000 1.88461400 0.36803000 0.40774200
43 1.49514200 -0.24140600 0.04488000 0.00360000 -0.23414300 0.03443400
44 1.57424700 -0.10445300 0.03324400 0.03981700 0.07342300 -0.24671300
45 5.51180600 -0.00000200 0.00000600 -0.95227000 0.00000000 0.00000000
46 0.19685000 0.00000300 -0.00000200 -0.34822500 0.00001500 -0.00000200
47 0.00000000 1.00000000 0.00000000 0.00000000 0.00000000 -1.57079600
48 -2.88370300 33.22035600 -3.42586400 0.00000000 0.00000000 -3.14156200
49 -4.41305635 49.13586056 0.21695724 0.33159404 0.29130879 -0.98574996
50 12.56762700 2.09891000 -1.00402300 -0.46114000 1.17637700 1.30017600
51 5.51488500 0.00125700 -1.24599700 0.00000000 0.00000000 0.00000000
52 -4.75217100 -0.00628100 1.20006800 0.00000000 0.00000000 0.00000000
53 0.00061400 0.00066700 0.50325400 0.00000000 0.00000000 0.00000000
54 4.54271700 0.00537300 0.21708100 0.00000000 0.00000000 0.00000000
55 4.17129300 0.00604000 -0.31881100 0.00000000 0.00000000 0.00000000
56 -17.25021400 -0.94309300 -1.90536400 -0.92939900 -0.90116900 0.80976100
57 -17.25021000 0.90359500 -1.88984800 0.91516600 -0.94896100 -0.81298500
58 -1.11169400 1.28617900 -1.15214400 0.00000000 0.00000000 0.00000000
59 4.93526200 0.00125700 2.07058000 0.00000000 0.00000000 0.00000000
60 -8.44460300 -2.21927500 -2.25476700 3.09200100 1.15353800 -2.39145700
time 7
0 -0.00000100 8.45008800 -27.50902600 0.00000000 0.00000000 0.00003100
1 -0.00000200 0.00000000 0.00000000 1.57074300 -1.56713700 -1.57074300
2 4.25546800 -0.33518300 -0.00000200 0.00000000 0.00000000 -0.12484800
3 7.43124800 1.49647700 0.00000200 0.00000000 0.00000000 0.24545000
4 5.27847900 0.16554100 0.00000100 0.00000000 0.00000000 0.04851100
5 1.79073400 -9.16624800 3.62871700 1.97586400 1.15990900 -1.29878600
6 -6.21448200 -0.00000700 -0.00002700 -2.61299876 -0.79448440 1.53289477
7 11.94488200 0.00000000 0.00000100 -0.52866489 -0.30904769 2.07702860
8 10.62018100 0.00000200 0.00000000 1.18698681 -0.69147818 2.46640980
9 -4.75110600 -0.69449400 0.83057700 -0.03960500 -0.29626300 -0.00308100
10 -1.68806800 0.00004600 -0.00003200 0.02141900 -0.01231500 0.38900200
11 -1.33614000 0.00005700 -0.00001200 0.02584200 0.00517300 0.35617200
12 -4.82049400 -0.50946000 -0.22475900 -0.36006500 -0.14363500 1.28431000
13 -1.82699200 -0.00006400 0.00000600 0.00061400 0.04047200 1.28917900
14 -1.43657300 0.00000600 0.00000200 -0.02382900 -0.07399300 0.22023700
15 -3.99235500 -0.89118800 -1.82790900 -0.63632800 0.21455600 1.56865800
16 -1.40591800 -0.00002500 -0.00000300 0.00317800 -0.02929700 0.76622800
17 -1.17535800 0.00012800 -0.00002000 0.02747700 0.06211700 0.32120800
18 -4.52675100 -0.69057500 -1.12074400 -0.53952200 -0.03143700 1.37279500
19 -1.74403800 0.00003300 -0.00000800 -0.03482500 0.00222300 1.35013600
20 -1.36877100 0.00002500 0.00000200 0.00993500 0.05150500 0.08698400
21 -2.03839800 -0.89278600 0.93250400 2.37017400 0.23488800 0.89251600
22 -1.62789200 0.15474800 0.01182500 -0.13461700 0.15578500 0.35407600
23 -1.59928500 0.00000400 0.00001600 0.02557400 -0.03449400 0.91320200
24 5.51181500 0.00000800 -0.00000100 2.10279959 -0.06580024 3.11572998
25 0.19684700 -0.00000100 0.00000300 2.79340696 -0.00042058 -3.14146448
26 -3.53538300 -17.47193700 -3.54308500 1.97586200 1.15990900 1.84280300
27 6.21448500 0.00000600 0.00002000 -1.19500714 0.16886715 -1.99677718
28 11.94488500 -0.00002900 -0.00019400 -0.70176181 -0.33306003 -1.29268093
29 10.62016600 0.00000200 0.00001000 -2.23254273 -0.53263957 0.62145872
30 4.75115600 0.69437600 -0.83047300 0.02505900 -0.18560800 0.14615800
31 1.68806500 -0.00002600 0.00000200 -0.00776500 -0.02349400 1.75632300
32 1.33615100 -0.00005100 -0.00000900 0.00924200 -0.03762600 0.12943000
33 4.82051300 0.50934000 0.22486500 -0.20655200 -0.13961500 0.62947100
34 1.82699600 0.00006600 0.00000800 0.02735300 0.02979100 2.01690100
35 1.43657700 -0.00001000 0.00000700 0.01515000 0.00045200 -0.75718600
36 3.99235300 0.89108700 1.82799400 -0.42620000 0.27844800 1.39074000
37 1.40591800 0.00002100 -0.00000700 -0.01231800 -0.02677000 1.30554600
38 1.17536900 -0.00013100 0.00000200 -0.09551900 0.07798600 -0.93359900
39 4.52675600 0.69046000 1.12084200 -0.36932500 0.01644200 1.00623400
40 1.74404100 -0.00003100 -0.00000200 -0.02939300 -0.00337500 1.86812600
41 1.36876300 -0.00003100 -0.00001700 -0.12957300 0.09181900 -1.14340300
42 1.80927100 0.89529200 -1.12011000 1.88461400 0.36803000 0.40774200
43 1.49514200 -0.24140600 0.04488000 0.00360000 -0.23414300 0.03443400
44 1.57424700 -0.10445300 0.03324400 0.03981700 0.07342300 -0.24671300
45 5.51180600 -0.00000200 0.00000600 -0.95227000 0.00000000 0.00000000
46 0.19685000 0.00000300 -0.00000200 -0.34822500 0.00001500 -0.00000200
47 0.00000000 1.00000000 0.00000000 0.00000000 0.00000000 -1.57079600
48 -2.88370300 33.22035600 -3.42586400 0.00000000 0.00000000 -3.14156200
49 -5.43995729 49.19262256 0.24694134 0.37068719 0.30376517 -0.84557143
50 12.56762700 2.09891000 -1.00402300 -0.46114000 1.17637700 1.30017600
51 5.51488500 0.00125700 -1.24599700 0.00000000 0.00000000 0.00000000
52 -4.75217100 -0.00628100 1.20006800 0.00000000 0.00000000 0.00000000
53 0.00061400 0.00066700 0.50325400 0.00000000 0.00000000 0.00000000
54 4.54271700 0.00537300 0.21708100 0.00000000 0.00000000 0.00000000
55 4.17129300 0.00604000 -0.31881100 0.00000000 0.00000000 0.00000000
56 -17.25021400 -0.94309300 -1.90536400 -0.92939900 -0.90116900 0.80976100
57 -17.25021000 0.90359500 -1.88984800 0.91516600 -0.94896100 -0.81298500
58 -1.11169400 1.28617900 -1.15214400 0.00000000 0.00000000 0.00000000
59 4.93526200 0.00125700 2.07058000 0.00000000 0.00000000 0.00000000
60 -8.44460300 -2.21927500 -2.25476700 3.09200100 1.15353800 -2.39145700
time 8
0 -0.00000100 8.45008800 -27.50902600 0.00000000 0.00000000 0.00003100
1 -0.00000200 0.00000000 0.00000000 1.57074300 -1.56713700 -1.57074300
2 4.25546800 -0.33518300 -0.00000200 0.00000000 0.00000000 -0.12484800
3 7.43124800 1.49647700 0.00000200 0.00000000 0.00000000 0.24545000
4 5.27847900 0.16554100 0.00000100 0.00000000 0.00000000 0.04851100
5 0.72185000 -10.38690600 4.46212100 1.97586400 1.15990900 -1.29878600
6 -6.21448200 -0.00000700 -0.00002700 -2.54645188 -0.74374896 1.38864168
7 11.94488200 0.00000000 0.00000100 -0.52360144 -0.31152283 2.06035137
8 10.62018100 0.00000200 0.00000000 1.19985870 -0.75622768 2.43141928
9 -4.75110600 -0.69449400 0.83057700 -0.03960500 -0.29626300 -0.00308100
10 -1.68806800 0.00004600 -0.00003200 0.02141900 -0.01231500 0.38900200
11 -1.33614000 0.00005700 -0.00001200 0.02584200 0.00517300 0.35617200
12 -4.82049400 -0.50946000 -0.22475900 -0.36006500 -0.14363500 1.28431000
13 -1.82699200 -0.00006400 0.00000600 0.00061400 0.04047200 1.28917900
14 -1.43657300 0.00000600 0.00000200 -0.02382900 -0.07399300 0.22023700
15 -3.99235500 -0.89118800 -1.82790900 -0.63632800 0.21455600 1.56865800
16 -1.40591800 -0.00002500 -0.00000300 0.00317800 -0.02929700 0.76622800
17 -1.17535800 0.00012800 -0.00002000 0.02747700 0.06211700 0.32120800
18 -4.52675100 -0.69057500 -1.12074400 -0.53952200 -0.03143700 1.37279500
19 -1.74403800 0.00003300 -0.00000800 -0.03482500 0.00222300 1.35013600
20 -1.36877100 0.00002500 0.00000200 0.00993500 0.05150500 0.08698400
21 -2.03839800 -0.89278600 0.93250400 2.37017400 0.23488800 0.89251600
22 -1.62789200 0.15474800 0.01182500 -0.13461700 0.15578500 0.35407600
23 -1.59928500 0.00000400 0.00001600 0.02557400 -0.03449400 0.91320200
24 5.51181500 0.00000800 -0.00000100 2.10279959 -0.06580024 3.11572998
25 0.19684700 -0.00000100 0.00000300 2.79340696 -0.00042058 -3.14146448
26 -3.53538300 -17.47193700 -3.54308500 1.97586200 1.15990900 1.84280300
27 6.21448500 0.00000600 0.00002000 -1.30460527 0.17900280 -1.96879334
28 11.94488500 -0.00002900 -0.00019400 -0.66776661 -0.33918622 -1.39428694
29 10.62016600 0.00000200 0.00001000 -2.12567281 -0.57034890 0.64795079
30 4.75115600 0.69437600 -0.83047300 0.02505900 -0.18560800 0.14615800
31 1.68806500 -0.00002600 0.00000200 -0.00776500 -0.02349400 1.75632300
32 1.33615100 -0.00005100 -0.00000900 0.00924200 -0.03762600 0.12943000
33 4.82051300 0.50934000 0.22486500 -0.20655200 -0.13961500 0.62947100
34 1.82699600 0.00006600 0.00000800 0.02735300 0.02979100 2.01690100
35 1.43657700 -0.00001000 0.00000700 0.01515000 0.00045200 -0.75718600
36 3.99235300 0.89108700 1.82799400 -0.42620000 0.27844800 1.39074000
37 1.40591800 0.00002100 -0.00000700 -0.01231800 -0.02677000 1.30554600
38 1.17536900 -0.00013100 0.00000200 -0.09551900 0.07798600 -0.93359900
39 4.52675600 0.69046000 1.12084200 -0.36932500 0.01644200 1.00623400
40 1.74404100 -0.00003100 -0.00000200 -0.02939300 -0.00337500 1.86812600
41 1.36876300 -0.00003100 -0.00001700 -0.12957300 0.09181900 -1.14340300
42 1.80927100 0.89529200 -1.12011000 1.88461400 0.36803000 0.40774200
43 1.49514200 -0.24140600 0.04488000 0.00360000 -0.23414300 0.03443400
44 1.57424700 -0.10445300 0.03324400 0.03981700 0.07342300 -0.24671300
45 5.51180600 -0.00000200 0.00000600 -0.95227000 0.00000000 0.00000000
46 0.19685000 0.00000300 -0.00000200 -0.34822500 0.00001500 -0.00000200
47 0.00000000 1.00000000 0.00000000 0.00000000 0.00000000 -1.57079600
48 -2.88370300 33.22035600 -3.42586400 0.00000000 0.00000000 -3.14156200
49 -6.43263150 49.18130056 0.19679986 0.39166823 0.30016121 -0.72570995
50 12.56762700 2.09891000 -1.00402300 -0.46114000 1.17637700 1.30017600
51 5.51488500 0.00125700 -1.24599700 0.00000000 0.00000000 0.00000000
52 -4.75217100 -0.00628100 1.20006800 0.00000000 0.00000000 0.00000000
53 0.00061400 0.00066700 0.50325400 0.00000000 0.00000000 0.00000000
54 4.54271700 0.00537300 0.21708100 0.00000000 0.00000000 0.00000000
55 4.17129300 0.00604000 -0.31881100 0.00000000 0.00000000 0.00000000
56 -17.25021400 -0.94309300 -1.90536400 -0.92939900 -0.90116900 0.80976100
57 -17.25021000 0.90359500 -1.88984800 0.91516600 -0.94896100 -0.81298500
58 -1.11169400 1.28617900 -1.15214400 0.00000000 0.00000000 0.00000000
59 4.93526200 0.00125700 2.07058000 0.00000000 0.00000000 0.00000000
60 -8.44460300 -2.21927500 -2.25476700 3.09200100 1.15353800 -2.39145700
time 9
0 -0.00000100 8.45008800 -27.50902600 0.00000000 0.00000000 0.00003100
1 -0.00000200 0.00000000 0.00000000 1.57074300 -1.56713700 -1.57074300
2 4.25546800 -0.33518300 -0.00000200 0.00000000 0.00000000 -0.12484800
3 7.43124800 1.49647700 0.00000200 0.00000000 0.00000000 0.24545000
4 5.27847900 0.16554100 0.00000100 0.00000000 0.00000000 0.04851100
5 -0.22003800 -11.46253200 5.19650500 1.97586400 1.15990900 -1.29878600
6 -6.21448200 -0.00000700 -0.00002700 -2.52334272 -0.69741902 1.27674580
7 11.94488200 0.00000000 0.00000100 -0.51435251 -0.31574162 2.03040500
8 10.62018100 0.00000200 0.00000000 1.19438054 -0.78605584 2.41657985
9 -4.75110600 -0.69449400 0.83057700 -0.03960500 -0.29626300 -0.00308100
10 -1.68806800 0.00004600 -0.00003200 0.02141900 -0.01231500 0.38900200
11 -1.33614000 0.00005700 -0.00001200 0.02584200 0.00517300 0.35617200
12 -4.82049400 -0.50946000 -0.22475900 -0.36006500 -0.14363500 1.28431000
13 -1.82699200 -0.00006400 0.00000600 0.00061400 0.04047200 1.28917900
14 -1.43657300 0.00000600 0.00000200 -0.02382900 -0.07399300 0.22023700
15 -3.99235500 -0.89118800 -1.82790900 -0.63632800 0.21455600 1.56865800
16 -1.40591800 -0.00002500 -0.00000300 0.00317800 -0.02929700 0.76622800
17 -1.17535800 0.00012800 -0.00002000 0.02747700 0.06211700 0.32120800
18 -4.52675100 -0.69057500 -1.12074400 -0.53952200 -0.03143700 1.37279500
19 -1.74403800 0.00003300 -0.00000800 -0.03482500 0.00222300 1.35013600
20 -1.36877100 0.00002500 0.00000200 0.00993500 0.05150500 0.08698400
21 -2.03839800 -0.89278600 0.93250400 2.37017400 0.23488800 0.89251600
22 -1.62789200 0.15474800 0.01182500 -0.13461700 0.15578500 0.35407600
23 -1.59928500 0.00000400 0.00001600 0.02557400 -0.03449400 0.91320200
24 5.51181500 0.00000800 -0.00000100 2.10279959 -0.06580024 3.11572998
25 0.19684700 -0.00000100 0.00000300 2.79340696 -0.00042058 -3.14146448
26 -3.53538300 -17.47193700 -3.54308500 1.97586200 1.15990900 1.84280300
27 6.21448500 0.00000600 0.00002000 -1.40322957 0.19160344 -1.94776590
28 11.94488500 -0.00002900 -0.00019400 -0.63800421 -0.34294969 -1.48201898
29 10.62016600 0.00000200 0.00001000 -2.03212243 -0.58895189 0.66664469
30 4.75115600 0.69437600 -0.83047300 0.02505900 -0.18560800 0.14615800
31 1.68806500 -0.00002600 0.00000200 -0.00776500 -0.02349400 1.75632300
32 1.33615100 -0.00005100 -0.00000900 0.00924200 -0.03762600 0.12943000
33 4.82051300 0.50934000 0.22486500 -0.20655200 -0.13961500 0.62947100
34 1.82699600 0.00006600 0.00000800 0.02735300 0.02979100 2.01690100
35 1.43657700 -0.00001000 0.00000700 0.01515000 0.00045200 -0.75718600
36 3.99235300 0.89108700 1.82799400 -0.42620000 0.27844800 1.39074000
37 1.40591800 0.00002100 -0.00000700 -0.01231800 -0.02677000 1.30554600
38 1.17536900 -0.00013100 0.00000200 -0.09551900 0.07798600 -0.93359900
39 4.52675600 0.69046000 1.12084200 -0.36932500 0.01644200 1.00623400
40 1.74404100 -0.00003100 -0.00000200 -0.02939300 -0.00337500 1.86812600
41 1.36876300 -0.00003100 -0.00001700 -0.12957300 0.09181900 -1.14340300
42 1.80927100 0.89529200 -1.12011000 1.88461400 0.36803000 0.40774200
43 1.49514200 -0.24140600 0.04488000 0.00360000 -0.23414300 0.03443400
44 1.57424700 -0.10445300 0.03324400 0.03981700 0.07342300 -0.24671300
45 5.51180600 -0.00000200 0.00000600 -0.95227000 0.00000000 0.00000000
46 0.19685000 0.00000300 -0.00000200 -0.34822500 0.00001500 -0.00000200
47 0.00000000 1.00000000 0.00000000 0.00000000 0.00000000 -1.57079600
48 -2.88370300 33.22035600 -3.42586400 0.00000000 0.00000000 -3.14156200
49 -7.32904565 49.15143556 -0.03272522 0.40822763 0.29287436 -0.62538586
50 12.56762700 2.09891000 -1.00402300 -0.46114000 1.17637700 1.30017600
51 5.51488500 0.00125700 -1.24599700 0.00000000 0.00000000 0.00000000
52 -4.75217100 -0.00628100 1.20006800 0.00000000 0.00000000 0.00000000
53 0.00061400 0.00066700 0.50325400 0.00000000 0.00000000 0.00000000
54 4.54271700 0.00537300 0.21708100 0.00000000 0.00000000 0.00000000
55 4.17129300 0.00604000 -0.31881100 0.00000000 0.00000000 0.00000000
56 -17.25021400 -0.94309300 -1.90536400 -0.92939900 -0.90116900 0.80976100
57 -17.25021000 0.90359500 -1.88984800 0.91516600 -0.94896100 -0.81298500
58 -1.11169400 1.28617900 -1.15214400 0.00000000 0.00000000 0.00000000
59 4.93526200 0.00125700 2.07058000 0.00000000 0.00000000 0.00000000
60 -8.44460300 -2.21927500 -2.25476700 3.09200100 1.15353800 -2.39145700
time 10
0 -0.00000100 8.45008800 -27.50902600 0.00000000 0.00000000 0.00003100
1 -0.00000200 0.00000000 0.00000000 1.57074300 -1.56713700 -1.57074300
2 4.25546800 -0.33518300 -0.00000200 0.00000000 0.00000000 -0.12484800
3 7.43124800 1.49647700 0.00000200 0.00000000 0.00000000 0.24545000
4 5.27847900 0.16554100 0.00000100 0.00000000 0.00000000 0.04851100
5 -0.97142900 -12.32061800 5.78236300 1.97586400 1.15990900 -1.29878600
6 -6.21448200 -0.00000700 -0.00002700 -2.49758510 -0.66790361 1.20313214
7 11.94488200 0.00000000 0.00000100 -0.50639566 -0.31912640 2.00489413
8 10.62018100 0.00000200 0.00000000 1.18381440 -0.82644903 2.42636324
9 -4.75110600 -0.69449400 0.83057700 -0.03960500 -0.29626300 -0.00308100
10 -1.68806800 0.00004600 -0.00003200 0.02141900 -0.01231500 0.38900200
11 -1.33614000 0.00005700 -0.00001200 0.02584200 0.00517300 0.35617200
12 -4.82049400 -0.50946000 -0.22475900 -0.36006500 -0.14363500 1.28431000
13 -1.82699200 -0.00006400 0.00000600 0.00061400 0.04047200 1.28917900
14 -1.43657300 0.00000600 0.00000200 -0.02382900 -0.07399300 0.22023700
15 -3.99235500 -0.89118800 -1.82790900 -0.63632800 0.21455600 1.56865800
16 -1.40591800 -0.00002500 -0.00000300 0.00317800 -0.02929700 0.76622800
17 -1.17535800 0.00012800 -0.00002000 0.02747700 0.06211700 0.32120800
18 -4.52675100 -0.69057500 -1.12074400 -0.53952200 -0.03143700 1.37279500
19 -1.74403800 0.00003300 -0.00000800 -0.03482500 0.00222300 1.35013600
20 -1.36877100 0.00002500 0.00000200 0.00993500 0.05150500 0.08698400
21 -2.03839800 -0.89278600 0.93250400 2.37017400 0.23488800 0.89251600
22 -1.62789200 0.15474800 0.01182500 -0.13461700 0.15578500 0.35407600
23 -1.59928500 0.00000400 0.00001600 0.02557400 -0.03449400 0.91320200
24 5.51181500 0.00000800 -0.00000100 2.10279959 -0.06580024 3.11572998
25 0.19684700 -0.00000100 0.00000300 2.79340696 -0.00042058 -3.14146448
26 -3.53538300 -17.47193700 -3.54308500 1.97586200 1.15990900 1.84280300
27 6.21448500 0.00000600 0.00002000 -1.46589706 0.21056471 -1.93958962
28 11.94488500 -0.00002900 -0.00019400 -0.61031127 -0.34572763 -1.56304570
29 10.62016600 0.00000200 0.00001000 -1.96426551 -0.61232995 0.67313606
30 4.75115600 0.69437600 -0.83047300 0.02505900 -0.18560800 0.14615800
31 1.68806500 -0.00002600 0.00000200 -0.00776500 -0.02349400 1.75632300
32 1.33615100 -0.00005100 -0.00000900 0.00924200 -0.03762600 0.12943000
33 4.82051300 0.50934000 0.22486500 -0.20655200 -0.13961500 0.62947100
34 1.82699600 0.00006600 0.00000800 0.02735300 0.02979100 2.01690100
35 1.43657700 -0.00001000 0.00000700 0.01515000 0.00045200 -0.75718600
36 3.99235300 0.89108700 1.82799400 -0.42620000 0.27844800 1.39074000
37 1.40591800 0.00002100 -0.00000700 -0.01231800 -0.02677000 1.30554600
38 1.17536900 -0.00013100 0.00000200 -0.09551900 0.07798600 -0.93359900
39 4.52675600 0.69046000 1.12084200 -0.36932500 0.01644200 1.00623400
40 1.74404100 -0.00003100 -0.00000200 -0.02939300 -0.00337500 1.86812600
41 1.36876300 -0.00003100 -0.00001700 -0.12957300 0.09181900 -1.14340300
42 1.80927100 0.89529200 -1.12011000 1.88461400 0.36803000 0.40774200
43 1.49514200 -0.24140600 0.04488000 0.00360000 -0.23414300 0.03443400
44 1.57424700 -0.10445300 0.03324400 0.03981700 0.07342300 -0.24671300
45 5.51180600 -0.00000200 0.00000600 -0.95227000 0.00000000 0.00000000
46 0.19685000 0.00000300 -0.00000200 -0.34822500 0.00001500 -0.00000200
47 0.00000000 1.00000000 0.00000000 0.00000000 0.00000000 -1.57079600
48 -2.88370300 33.22035600 -3.42586400 0.00000000 0.00000000 -3.14156200
49 -7.76284987 49.10921456 -0.31682669 0.42027275 0.28432378 -0.54364865
50 12.56762700 2.09891000 -1.00402300 -0.46114000 1.17637700 1.30017600
51 5.51488500 0.00125700 -1.24599700 0.00000000 0.00000000 0.00000000
52 -4.75217100 -0.00628100 1.20006800 0.00000000 0.00000000 0.00000000
53 0.00061400 0.00066700 0.50325400 0.00000000 0.00000000 0.00000000
54 4.54271700 0.00537300 0.21708100 0.00000000 0.00000000 0.00000000
55 4.17129300 0.00604000 -0.31881100 0.00000000 0.00000000 0.00000000
56 -17.25021400 -0.94309300 -1.90536400 -0.92939900 -0.90116900 0.80976100
57 -17.25021000 0.90359500 -1.88984800 0.91516600 -0.94896100 -0.81298500
58 -1.11169400 1.28617900 -1.15214400 0.00000000 0.00000000 0.00000000
59 4.93526200 0.00125700 2.07058000 0.00000000 0.00000000 0.00000000
60 -8.44460300 -2.21927500 -2.25476700 3.09200100 1.15353800 -2.39145700
time 11
0 -0.00000100 8.45008800 -27.50902600 0.00000000 0.00000000 0.00003100
1 -0.00000200 0.00000000 0.00000000 1.57074300 -1.56713700 -1.57074300
2 4.25546800 -0.33518300 -0.00000200 0.00000000 0.00000000 -0.12484800
3 7.43124800 1.49647700 0.00000200 0.00000000 0.00000000 0.24545000
4 5.27847900 0.16554100 0.00000100 0.00000000 0.00000000 0.04851100
5 -1.46883000 -12.88864400 6.17018100 1.97586400 1.15990900 -1.29878600
6 -6.21448200 -0.00000700 -0.00002700 -2.46682103 -0.64836631 1.15928344
7 11.94488200 0.00000000 0.00000100 -0.49868537 -0.32187660 1.98055184
8 10.62018100 0.00000200 0.00000000 1.16685886 -0.87502720 2.45679460
9 -4.75110600 -0.69449400 0.83057700 -0.03960500 -0.29626300 -0.00308100
10 -1.68806800 0.00004600 -0.00003200 0.02141900 -0.01231500 0.38900200
11 -1.33614000 0.00005700 -0.00001200 0.02584200 0.00517300 0.35617200
12 -4.82049400 -0.50946000 -0.22475900 -0.36006500 -0.14363500 1.28431000
13 -1.82699200 -0.00006400 0.00000600 0.00061400 0.04047200 1.28917900
14 -1.43657300 0.00000600 0.00000200 -0.02382900 -0.07399300 0.22023700
15 -3.99235500 -0.89118800 -1.82790900 -0.63632800 0.21455600 1.56865800
16 -1.40591800 -0.00002500 -0.00000300 0.00317800 -0.02929700 0.76622800
17 -1.17535800 0.00012800 -0.00002000 0.02747700 0.06211700 0.32120800
18 -4.52675100 -0.69057500 -1.12074400 -0.53952200 -0.03143700 1.37279500
19 -1.74403800 0.00003300 -0.00000800 -0.03482500 0.00222300 1.35013600
20 -1.36877100 0.00002500 0.00000200 0.00993500 0.05150500 0.08698400
21 -2.03839800 -0.89278600 0.93250400 2.37017400 0.23488800 0.89251600
22 -1.62789200 0.15474800 0.01182500 -0.13461700 0.15578500 0.35407600
23 -1.59928500 0.00000400 0.00001600 0.02557400 -0.03449400 0.91320200
24 5.51181500 0.00000800 -0.00000100 2.10279959 -0.06580024 3.11572998
25 0.19684700 -0.00000100 0.00000300 2.79340696 -0.00042058 -3.14146448
26 -3.53538300 -17.47193700 -3.54308500 1.97586200 1.15990900 1.84280300
27 6.21448500 0.00000600 0.00002000 -1.50032817 0.22686411 -1.93907322
28 11.94488500 -0.00002900 -0.00019400 -0.58675997 -0.34841634 -1.63196116
29 10.62016600 0.00000200 0.00001000 -1.91561094 -0.64049455 0.67369423
30 4.75115600 0.69437600 -0.83047300 0.02505900 -0.18560800 0.14615800
31 1.68806500 -0.00002600 0.00000200 -0.00776500 -0.02349400 1.75632300
32 1.33615100 -0.00005100 -0.00000900 0.00924200 -0.03762600 0.12943000
33 4.82051300 0.50934000 0.22486500 -0.20655200 -0.13961500 0.62947100
34 1.82699600 0.00006600 0.00000800 0.02735300 0.02979100 2.01690100
35 1.43657700 -0.00001000 0.00000700 0.01515000 0.00045200 -0.75718600
36 3.99235300 0.89108700 1.82799400 -0.42620000 0.27844800 1.39074000
37 1.40591800 0.00002100 -0.00000700 -0.01231800 -0.02677000 1.30554600
38 1.17536900 -0.00013100 0.00000200 -0.09551900 0.07798600 -0.93359900
39 4.52675600 0.69046000 1.12084200 -0.36932500 0.01644200 1.00623400
40 1.74404100 -0.00003100 -0.00000200 -0.02939300 -0.00337500 1.86812600
41 1.36876300 -0.00003100 -0.00001700 -0.12957300 0.09181900 -1.14340300
42 1.80927100 0.89529200 -1.12011000 1.88461400 0.36803000 0.40774200
43 1.49514200 -0.24140600 0.04488000 0.00360000 -0.23414300 0.03443400
44 1.57424700 -0.10445300 0.03324400 0.03981700 0.07342300 -0.24671300
45 5.51180600 -0.00000200 0.00000600 -0.95227000 0.00000000 0.00000000
46 0.19685000 0.00000300 -0.00000200 -0.34822500 0.00001500 -0.00000200
47 0.00000000 1.00000000 0.00000000 0.00000000 0.00000000 -1.57079600
48 -2.88370300 33.22035600 -3.42586400 0.00000000 0.00000000 -3.14156200
49 -7.90238866 49.06081756 -0.51690951 0.42789443 0.27605440 -0.47944919
50 12.56762700 2.09891000 -1.00402300 -0.46114000 1.17637700 1.30017600
51 5.51488500 0.00125700 -1.24599700 0.00000000 0.00000000 0.00000000
52 -4.75217100 -0.00628100 1.20006800 0.00000000 0.00000000 0.00000000
53 0.00061400 0.00066700 0.50325400 0.00000000 0.00000000 0.00000000
54 4.54271700 0.00537300 0.21708100 0.00000000 0.00000000 0.00000000
55 4.17129300 0.00604000 -0.31881100 0.00000000 0.00000000 0.00000000
56 -17.25021400 -0.94309300 -1.90536400 -0.92939900 -0.90116900 0.80976100
57 -17.25021000 0.90359500 -1.88984800 0.91516600 -0.94896100 -0.81298500
58 -1.11169400 1.28617900 -1.15214400 0.00000000 0.00000000 0.00000000
59 4.93526200 0.00125700 2.07058000 0.00000000 0.00000000 0.00000000
60 -8.44460300 -2.21927500 -2.25476700 3.09200100 1.15353800 -2.39145700
time 12
0 -0.00000100 8.45008800 -27.50902600 0.00000000 0.00000000 0.00003100
1 -0.00000200 0.00000000 0.00000000 1.57074300 -1.56713700 -1.57074300
2 4.25546800 -0.33518300 -0.00000200 0.00000000 0.00000000 -0.12484800
3 7.43124800 1.49647700 0.00000200 0.00000000 0.00000000 0.24545000
4 5.27847900 0.16554100 0.00000100 0.00000000 0.00000000 0.04851100
5 -1.64874100 -13.09410300 6.31045700 1.97586400 1.15990900 -1.29878600
6 -6.21448200 -0.00000700 -0.00002700 -2.44337109 -0.64170898 1.14707929
7 11.94488200 0.00000000 0.00000100 -0.48899519 -0.32551763 1.95002302
8 10.62018100 0.00000200 0.00000000 1.13131630 -0.91899756 2.52430471
9 -4.75110600 -0.69449400 0.83057700 -0.03960500 -0.29626300 -0.00308100
10 -1.68806800 0.00004600 -0.00003200 0.02141900 -0.01231500 0.38900200
11 -1.33614000 0.00005700 -0.00001200 0.02584200 0.00517300 0.35617200
12 -4.82049400 -0.50946000 -0.22475900 -0.36006500 -0.14363500 1.28431000
13 -1.82699200 -0.00006400 0.00000600 0.00061400 0.04047200 1.28917900
14 -1.43657300 0.00000600 0.00000200 -0.02382900 -0.07399300 0.22023700
15 -3.99235500 -0.89118800 -1.82790900 -0.63632800 0.21455600 1.56865800
16 -1.40591800 -0.00002500 -0.00000300 0.00317800 -0.02929700 0.76622800
17 -1.17535800 0.00012800 -0.00002000 0.02747700 0.06211700 0.32120800
18 -4.52675100 -0.69057500 -1.12074400 -0.53952200 -0.03143700 1.37279500
19 -1.74403800 0.00003300 -0.00000800 -0.03482500 0.00222300 1.35013600
20 -1.36877100 0.00002500 0.00000200 0.00993500 0.05150500 0.08698400
21 -2.03839800 -0.89278600 0.93250400 2.37017400 0.23488800 0.89251600
22 -1.62789200 0.15474800 0.01182500 -0.13461700 0.15578500 0.35407600
23 -1.59928500 0.00000400 0.00001600 0.02557400 -0.03449400 0.91320200
24 5.51181500 0.00000800 -0.00000100 2.10279959 -0.06580024 3.11572998
25 0.19684700 -0.00000100 0.00000300 2.79340696 -0.00042058 -3.14146448
26 -3.53538300 -17.47193700 -3.54308500 1.97586200 1.15990900 1.84280300
27 6.21448500 0.00000600 0.00002000 -1.52024797 0.23940970 -1.94166815
28 11.94488500 -0.00002900 -0.00019400 -0.56804894 -0.35178717 -1.68699373
29 10.62016600 0.00000200 0.00001000 -1.87816065 -0.66577565 0.67313075
30 4.75115600 0.69437600 -0.83047300 0.02505900 -0.18560800 0.14615800
31 1.68806500 -0.00002600 0.00000200 -0.00776500 -0.02349400 1.75632300
32 1.33615100 -0.00005100 -0.00000900 0.00924200 -0.03762600 0.12943000
33 4.82051300 0.50934000 0.22486500 -0.20655200 -0.13961500 0.62947100
34 1.82699600 0.00006600 0.00000800 0.02735300 0.02979100 2.01690100
35 1.43657700 -0.00001000 0.00000700 0.01515000 0.00045200 -0.75718600
36 3.99235300 0.89108700 1.82799400 -0.42620000 0.27844800 1.39074000
37 1.40591800 0.00002100 -0.00000700 -0.01231800 -0.02677000 1.30554600
38 1.17536900 -0.00013100 0.00000200 -0.09551900 0.07798600 -0.93359900
39 4.52675600 0.69046000 1.12084200 -0.36932500 0.01644200 1.00623400
40 1.74404100 -0.00003100 -0.00000200 -0.02939300 -0.00337500 1.86812600
41 1.36876300 -0.00003100 -0.00001700 -0.12957300 0.09181900 -1.14340300
42 1.80927100 0.89529200 -1.12011000 1.88461400 0.36803000 0.40774200
43 1.49514200 -0.24140600 0.04488000 0.00360000 -0.23414300 0.03443400
44 1.57424700 -0.10445300 0.03324400 0.03981700 0.07342300 -0.24671300
45 5.51180600 -0.00000200 0.00000600 -0.95227000 0.00000000 0.00000000
46 0.19685000 0.00000300 -0.00000200 -0.34822500 0.00001500 -0.00000200
47 0.00000000 1.00000000 0.00000000 0.00000000 0.00000000 -1.57079600
48 -2.88370300 33.22035600 -3.42586400 0.00000000 0.00000000 -3.14156200
49 -7.94156084 49.01241656 -0.66176964 0.43150910 0.26876795 -0.43137472
50 12.56762700 2.09891000 -1.00402300 -0.46114000 1.17637700 1.30017600
51 5.51488500 0.00125700 -1.24599700 0.00000000 0.00000000 0.00000000
52 -4.75217100 -0.00628100 1.20006800 0.00000000 0.00000000 0.00000000
53 0.00061400 0.00066700 0.50325400 0.00000000 0.00000000 0.00000000
54 4.54271700 0.00537300 0.21708100 0.00000000 0.00000000 0.00000000
55 4.17129300 0.00604000 -0.31881100 0.00000000 0.00000000 0.00000000
56 -17.25021400 -0.94309300 -1.90536400 -0.92939900 -0.90116900 0.80976100
57 -17.25021000 0.90359500 -1.88984800 0.91516600 -0.94896100 -0.81298500
58 -1.11169400 1.28617900 -1.15214400 0.00000000 0.00000000 0.00000000
59 4.93526200 0.00125700 2.07058000 0.00000000 0.00000000 0.00000000
60 -8.44460300 -2.21927500 -2.25476700 3.09200100 1.15353800 -2.39145700
time 13
0 -0.00000100 8.45008800 -27.50902600 0.00000000 0.00000000 0.00003100
1 -0.00000200 0.00000000 0.00000000 1.57074300 -1.56713700 -1.57074300
2 4.25546800 -0.33518300 -0.00000200 0.00000000 0.00000000 -0.12484800
3 7.43124800 1.49647700 0.00000200 0.00000000 0.00000000 0.24545000
4 5.27847900 0.16554100 0.00000100 0.00000000 0.00000000 0.04851100
5 -1.64874100 -13.09410300 6.31045700 1.97586400 1.15990900 -1.29878600
6 -6.21448200 -0.00000700 -0.00002700 -2.42656942 -0.64140420 1.15042980
7 11.94488200 0.00000000 0.00000100 -0.47938653 -0.32890249 1.92039141
8 10.62018100 0.00000200 0.00000000 1.08948457 -0.95178451 2.60219267
9 -4.75110600 -0.69449400 0.83057700 -0.03960500 -0.29626300 -0.00308100
10 -1.68806800 0.00004600 -0.00003200 0.02141900 -0.01231500 0.38900200
11 -1.33614000 0.00005700 -0.00001200 0.02584200 0.00517300 0.35617200
12 -4.82049400 -0.50946000 -0.22475900 -0.36006500 -0.14363500 1.28431000
13 -1.82699200 -0.00006400 0.00000600 0.00061400 0.04047200 1.28917900
14 -1.43657300 0.00000600 0.00000200 -0.02382900 -0.07399300 0.22023700
15 -3.99235500 -0.89118800 -1.82790900 -0.63632800 0.21455600 1.56865800
16 -1.40591800 -0.00002500 -0.00000300 0.00317800 -0.02929700 0.76622800
17 -1.17535800 0.00012800 -0.00002000 0.02747700 0.06211700 0.32120800
18 -4.52675100 -0.69057500 -1.12074400 -0.53952200 -0.03143700 1.37279500
19 -1.74403800 0.00003300 -0.00000800 -0.03482500 0.00222300 1.35013600
20 -1.36877100 0.00002500 0.00000200 0.00993500 0.05150500 0.08698400
21 -2.03839800 -0.89278600 0.93250400 2.37017400 0.23488800 0.89251600
22 -1.62789200 0.15474800 0.01182500 -0.13461700 0.15578500 0.35407600
23 -1.59928500 0.00000400 0.00001600 0.02557400 -0.03449400 0.91320200
24 5.51181500 0.00000800 -0.00000100 2.10279959 -0.06580024 3.11572998
25 0.19684700 -0.00000100 0.00000300 2.79340696 -0.00042058 -3.14146448
26 -3.53538300 -17.47193700 -3.54308500 1.97586200 1.15990900 1.84280300
27 6.21448500 0.00000600 0.00002000 -1.53150038 0.24683574 -1.94447553
28 11.94488500 -0.00002900 -0.00019400 -0.55490859 -0.35304933 -1.72583641
29 10.62016600 0.00000200 0.00001000 -1.85171885 -0.68564324 0.67225774
30 4.75115600 0.69437600 -0.83047300 0.02505900 -0.18560800 0.14615800
31 1.68806500 -0.00002600 0.00000200 -0.00776500 -0.02349400 1.75632300
32 1.33615100 -0.00005100 -0.00000900 0.00924200 -0.03762600 0.12943000
33 4.82051300 0.50934000 0.22486500 -0.20655200 -0.13961500 0.62947100
34 1.82699600 0.00006600 0.00000800 0.02735300 0.02979100 2.01690100
35 1.43657700 -0.00001000 0.00000700 0.01515000 0.00045200 -0.75718600
36 3.99235300 0.89108700 1.82799400 -0.42620000 0.27844800 1.39074000
37 1.40591800 0.00002100 -0.00000700 -0.01231800 -0.02677000 1.30554600
38 1.17536900 -0.00013100 0.00000200 -0.09551900 0.07798600 -0.93359900
39 4.52675600 0.69046000 1.12084200 -0.36932500 0.01644200 1.00623400
40 1.74404100 -0.00003100 -0.00000200 -0.02939300 -0.00337500 1.86812600
41 1.36876300 -0.00003100 -0.00001700 -0.12957300 0.09181900 -1.14340300
42 1.80927100 0.89529200 -1.12011000 1.88461400 0.36803000 0.40774200
43 1.49514200 -0.24140600 0.04488000 0.00360000 -0.23414300 0.03443400
44 1.57424700 -0.10445300 0.03324400 0.03981700 0.07342300 -0.24671300
45 5.51180600 -0.00000200 0.00000600 -0.95227000 0.00000000 0.00000000
46 0.19685000 0.00000300 -0.00000200 -0.34822500 0.00001500 -0.00000200
47 0.00000000 1.00000000 0.00000000 0.00000000 0.00000000 -1.57079600
48 -2.88370300 33.22035600 -3.42586400 0.00000000 0.00000000 -3.14156200
49 -7.93287252 48.97019556 -0.74567154 0.43311427 0.26436691 -0.39808159
50 12.56762700 2.09891000 -1.00402300 -0.46114000 1.17637700 1.30017600
51 5.51488500 0.00125700 -1.24599700 0.00000000 0.00000000 0.00000000
52 -4.75217100 -0.00628100 1.20006800 0.00000000 0.00000000 0.00000000
53 0.00061400 0.00066700 0.50325400 0.00000000 0.00000000 0.00000000
54 4.54271700 0.00537300 0.21708100 0.00000000 0.00000000 0.00000000
55 4.17129300 0.00604000 -0.31881100 0.00000000 0.00000000 0.00000000
56 -17.25021400 -0.94309300 -1.90536400 -0.92939900 -0.90116900 0.80976100
57 -17.25021000 0.90359500 -1.88984800 0.91516600 -0.94896100 -0.81298500
58 -1.11169400 1.28617900 -1.15214400 0.00000000 0.00000000 0.00000000
59 4.93526200 0.00125700 2.07058000 0.00000000 0.00000000 0.00000000
60 -8.44460300 -2.21927500 -2.25476700 3.09200100 1.15353800 -2.39145700
time 14
0 -0.00000100 8.45008800 -27.50902600 0.00000000 0.00000000 0.00003100
1 -0.00000200 0.00000000 0.00000000 1.57074300 -1.56713700 -1.57074300
2 4.25546800 -0.33518300 -0.00000200 0.00000000 0.00000000 -0.12484800
3 7.43124800 1.49647700 0.00000200 0.00000000 0.00000000 0.24545000
4 5.27847900 0.16554100 0.00000100 0.00000000 0.00000000 0.04851100
5 -1.64874100 -13.09410300 6.31045700 1.97586400 1.15990900 -1.29878600
6 -6.21448200 -0.00000700 -0.00002700 -2.41404162 -0.64065331 1.15207690
7 11.94488200 0.00000000 0.00000100 -0.47389999 -0.33045723 1.90342396
8 10.62018100 0.00000200 0.00000000 1.06281759 -0.97177431 2.65072070
9 -4.75110600 -0.69449400 0.83057700 -0.03960500 -0.29626300 -0.00308100
10 -1.68806800 0.00004600 -0.00003200 0.02141900 -0.01231500 0.38900200
11 -1.33614000 0.00005700 -0.00001200 0.02584200 0.00517300 0.35617200
12 -4.82049400 -0.50946000 -0.22475900 -0.36006500 -0.14363500 1.28431000
13 -1.82699200 -0.00006400 0.00000600 0.00061400 0.04047200 1.28917900
14 -1.43657300 0.00000600 0.00000200 -0.02382900 -0.07399300 0.22023700
15 -3.99235500 -0.89118800 -1.82790900 -0.63632800 0.21455600 1.56865800
16 -1.40591800 -0.00002500 -0.00000300 0.00317800 -0.02929700 0.76622800
17 -1.17535800 0.00012800 -0.00002000 0.02747700 0.06211700 0.32120800
18 -4.52675100 -0.69057500 -1.12074400 -0.53952200 -0.03143700 1.37279500
19 -1.74403800 0.00003300 -0.00000800 -0.03482500 0.00222300 1.35013600
20 -1.36877100 0.00002500 0.00000200 0.00993500 0.05150500 0.08698400
21 -2.03839800 -0.89278600 0.93250400 2.37017400 0.23488800 0.89251600
22 -1.62789200 0.15474800 0.01182500 -0.13461700 0.15578500 0.35407600
23 -1.59928500 0.00000400 0.00001600 0.02557400 -0.03449400 0.91320200
24 5.51181500 0.00000800 -0.00000100 2.10279959 -0.06580024 3.11572998
25 0.19684700 -0.00000100 0.00000300 2.79340696 -0.00042058 -3.14146448
26 -3.53538300 -17.47193700 -3.54308500 1.97586200 1.15990900 1.84280300
27 6.21448500 0.00000600 0.00002000 -1.53673913 0.24925901 -1.94664051
28 11.94488500 -0.00002900 -0.00019400 -0.54748577 -0.35147206 -1.74783318
29 10.62016600 0.00000200 0.00001000 -1.83674866 -0.69909279 0.67064706
30 4.75115600 0.69437600 -0.83047300 0.02505900 -0.18560800 0.14615800
31 1.68806500 -0.00002600 0.00000200 -0.00776500 -0.02349400 1.75632300
32 1.33615100 -0.00005100 -0.00000900 0.00924200 -0.03762600 0.12943000
33 4.82051300 0.50934000 0.22486500 -0.20655200 -0.13961500 0.62947100
34 1.82699600 0.00006600 0.00000800 0.02735300 0.02979100 2.01690100
35 1.43657700 -0.00001000 0.00000700 0.01515000 0.00045200 -0.75718600
36 3.99235300 0.89108700 1.82799400 -0.42620000 0.27844800 1.39074000
37 1.40591800 0.00002100 -0.00000700 -0.01231800 -0.02677000 1.30554600
38 1.17536900 -0.00013100 0.00000200 -0.09551900 0.07798600 -0.93359900
39 4.52675600 0.69046000 1.12084200 -0.36932500 0.01644200 1.00623400
40 1.74404100 -0.00003100 -0.00000200 -0.02939300 -0.00337500 1.86812600
41 1.36876300 -0.00003100 -0.00001700 -0.12957300 0.09181900 -1.14340300
42 1.80927100 0.89529200 -1.12011000 1.88461400 0.36803000 0.40774200
43 1.49514200 -0.24140600 0.04488000 0.00360000 -0.23414300 0.03443400
44 1.57424700 -0.10445300 0.03324400 0.03981700 0.07342300 -0.24671300
45 5.51180600 -0.00000200 0.00000600 -0.95227000 0.00000000 0.00000000
46 0.19685000 0.00000300 -0.00000200 -0.34822500 0.00001500 -0.00000200
47 0.00000000 1.00000000 0.00000000 0.00000000 0.00000000 -1.57079600
48 -2.88370300 33.22035600 -3.42586400 0.00000000 0.00000000 -3.14156200
49 -7.89287984 48.94033056 -0.76947188 0.43447700 0.26298128 -0.37846576
50 12.56762700 2.09891000 -1.00402300 -0.46114000 1.17637700 1.30017600
51 5.51488500 0.00125700 -1.24599700 0.00000000 0.00000000 0.00000000
52 -4.75217100 -0.00628100 1.20006800 0.00000000 0.00000000 0.00000000
53 0.00061400 0.00066700 0.50325400 0.00000000 0.00000000 0.00000000
54 4.54271700 0.00537300 0.21708100 0.00000000 0.00000000 0.00000000
55 4.17129300 0.00604000 -0.31881100 0.00000000 0.00000000 0.00000000
56 -17.25021400 -0.94309300 -1.90536400 -0.92939900 -0.90116900 0.80976100
57 -17.25021000 0.90359500 -1.88984800 0.91516600 -0.94896100 -0.81298500
58 -1.11169400 1.28617900 -1.15214400 0.00000000 0.00000000 0.00000000
59 4.93526200 0.00125700 2.07058000 0.00000000 0.00000000 0.00000000
60 -8.44460300 -2.21927500 -2.25476700 3.09200100 1.15353800 -2.39145700
time 15
0 -0.00000100 8.45008800 -27.50902600 0.00000000 0.00000000 0.00003100
1 -0.00000200 0.00000000 0.00000000 1.57074300 -1.56713700 -1.57074300
2 4.25546800 -0.33518300 -0.00000200 0.00000000 0.00000000 -0.12484800
3 7.43124800 1.49647700 0.00000200 0.00000000 0.00000000 0.24545000
4 5.27847900 0.16554100 0.00000100 0.00000000 0.00000000 0.04851100
5 -1.64874100 -13.09410300 6.31045700 1.97586400 1.15990900 -1.29878600
6 -6.21448200 -0.00000700 -0.00002700 -2.40604101 -0.64054674 1.15306900
7 11.94488200 0.00000000 0.00000100 -0.47230451 -0.33059357 1.89839858
8 10.62018100 0.00000200 0.00000000 1.05467860 -0.98156670 2.66917567
9 -4.75110600 -0.69449400 0.83057700 -0.03960500 -0.29626300 -0.00308100
10 -1.68806800 0.00004600 -0.00003200 0.02141900 -0.01231500 0.38900200
11 -1.33614000 0.00005700 -0.00001200 0.02584200 0.00517300 0.35617200
12 -4.82049400 -0.50946000 -0.22475900 -0.36006500 -0.14363500 1.28431000
13 -1.82699200 -0.00006400 0.00000600 0.00061400 0.04047200 1.28917900
14 -1.43657300 0.00000600 0.00000200 -0.02382900 -0.07399300 0.22023700
15 -3.99235500 -0.89118800 -1.82790900 -0.63632800 0.21455600 1.56865800
16 -1.40591800 -0.00002500 -0.00000300 0.00317800 -0.02929700 0.76622800
17 -1.17535800 0.00012800 -0.00002000 0.02747700 0.06211700 0.32120800
18 -4.52675100 -0.69057500 -1.12074400 -0.53952200 -0.03143700 1.37279500
19 -1.74403800 0.00003300 -0.00000800 -0.03482500 0.00222300 1.35013600
20 -1.36877100 0.00002500 0.00000200 0.00993500 0.05150500 0.08698400
21 -2.03839800 -0.89278600 0.93250400 2.37017400 0.23488800 0.89251600
22 -1.62789200 0.15474800 0.01182500 -0.13461700 0.15578500 0.35407600
23 -1.59928500 0.00000400 0.00001600 0.02557400 -0.03449400 0.91320200
24 5.51181500 0.00000800 -0.00000100 2.10279959 -0.06580024 3.11572998
25 0.19684700 -0.00000100 0.00000300 2.79340696 -0.00042058 -3.14146448
26 -3.53538300 -17.47193700 -3.54308500 1.97586200 1.15990900 1.84280300
27 6.21448500 0.00000600 0.00002000 -1.53716984 0.24970519 -1.94865641
28 11.94488500 -0.00002900 -0.00019400 -0.54489507 -0.34929154 -1.75543227
29 10.62016600 0.00000200 0.00001000 -1.83225866 -0.70512868 0.66745630
30 4.75115600 0.69437600 -0.83047300 0.02505900 -0.18560800 0.14615800
31 1.68806500 -0.00002600 0.00000200 -0.00776500 -0.02349400 1.75632300
32 1.33615100 -0.00005100 -0.00000900 0.00924200 -0.03762600 0.12943000
33 4.82051300 0.50934000 0.22486500 -0.20655200 -0.13961500 0.62947100
34 1.82699600 0.00006600 0.00000800 0.02735300 0.02979100 2.01690100
35 1.43657700 -0.00001000 0.00000700 0.01515000 0.00045200 -0.75718600
36 3.99235300 0.89108700 1.82799400 -0.42620000 0.27844800 1.39074000
37 1.40591800 0.00002100 -0.00000700 -0.01231800 -0.02677000 1.30554600
38 1.17536900 -0.00013100 0.00000200 -0.09551900 0.07798600 -0.93359900
39 4.52675600 0.69046000 1.12084200 -0.36932500 0.01644200 1.00623400
40 1.74404100 -0.00003100 -0.00000200 -0.02939300 -0.00337500 1.86812600
41 1.36876300 -0.00003100 -0.00001700 -0.12957300 0.09181900 -1.14340300
42 1.80927100 0.89529200 -1.12011000 1.88461400 0.36803000 0.40774200
43 1.49514200 -0.24140600 0.04488000 0.00360000 -0.23414300 0.03443400
44 1.57424700 -0.10445300 0.03324400 0.03981700 0.07342300 -0.24671300
45 5.51180600 -0.00000200 0.00000600 -0.95227000 0.00000000 0.00000000
46 0.19685000 0.00000300 -0.00000200 -0.34822500 0.00001500 -0.00000200
47 0.00000000 1.00000000 0.00000000 0.00000000 0.00000000 -1.57079600
48 -2.88370300 33.22035600 -3.42586400 0.00000000 0.00000000 -3.14156200
49 -7.83780905 48.92900456 -0.76282471 0.43691482 0.26341092 -0.37132752
50 12.56762700 2.09891000 -1.00402300 -0.46114000 1.17637700 1.30017600
51 5.51488500 0.00125700 -1.24599700 0.00000000 0.00000000 0.00000000
52 -4.75217100 -0.00628100 1.20006800 0.00000000 0.00000000 0.00000000
53 0.00061400 0.00066700 0.50325400 0.00000000 0.00000000 0.00000000
54 4.54271700 0.00537300 0.21708100 0.00000000 0.00000000 0.00000000
55 4.17129300 0.00604000 -0.31881100 0.00000000 0.00000000 0.00000000
56 -17.25021400 -0.94309300 -1.90536400 -0.92939900 -0.90116900 0.80976100
57 -17.25021000 0.90359500 -1.88984800 0.91516600 -0.94896100 -0.81298500
58 -1.11169400 1.28617900 -1.15214400 0.00000000 0.00000000 0.00000000
59 4.93526200 0.00125700 2.07058000 0.00000000 0.00000000 0.00000000
60 -8.44460300 -2.21927500 -2.25476700 3.09200100 1.15353800 -2.39145700
end
