version 1
nodes
0 "root" -1
1 "pelvis" 0
2 "spine_01" 1
3 "spine_02" 2
4 "spine_03" 3
5 "clavicle_r" 4
6 "upperarm_r" 5
7 "lowerarm_r" 6
8 "hand_r" 7
9 "index_01_r" 8
10 "index_02_r" 9
11 "index_03_r" 10
12 "middle_01_r" 8
13 "middle_02_r" 12
14 "middle_03_r" 13
15 "pinky_01_r" 8
16 "pinky_02_r" 15
17 "pinky_03_r" 16
18 "ring_01_r" 8
19 "ring_02_r" 18
20 "ring_03_r" 19
21 "thumb_01_r" 8
22 "thumb_02_r" 21
23 "thumb_03_r" 22
24 "lowerarm_twist_01_r" 7
25 "upperarm_twist_01_r" 6
26 "clavicle_l" 4
27 "upperarm_l" 26
28 "lowerarm_l" 27
29 "hand_l" 28
30 "index_01_l" 29
31 "index_02_l" 30
32 "index_03_l" 31
33 "middle_01_l" 29
34 "middle_02_l" 33
35 "middle_03_l" 34
36 "pinky_01_l" 29
37 "pinky_02_l" 36
38 "pinky_03_l" 37
39 "ring_01_l" 29
40 "ring_02_l" 39
41 "ring_03_l" 40
42 "thumb_01_l" 29
43 "thumb_02_l" 42
44 "thumb_03_l" 43
45 "lowerarm_twist_01_l" 28
46 "upperarm_twist_01_l" 27
47 "cam_driver" -1
48 "BaseRoot" -1
49 "Base" 48
50 "rhand_ikTarget" 49
51 "BlastingCap" 49
52 "Rope" 51
53 "Rope.001" 52
54 "Rope.002" 53
55 "Rope.003" 54
56 "Rope.004" 55
57 "Rope.005" 56
58 "Rope.006" 57
59 "Rope.007" 58
60 "Rope.008" 59
61 "Rope.009" 60
62 "Rope.010" 61
63 "Object001" -1
64 "Object002" 63
65 "jf1" 63
66 "jf2" 65
67 "jf3" 66
68 "lhand_ikTarget" 49
end
skeleton
time 0
0 -0.00000100 7.45008900 -27.50902600 0.00000000 0.00000000 0.00003100
1 -0.00000200 0.00000000 0.00000000 1.57074300 -1.56713700 -1.57074300
2 4.25546800 -0.33518300 -0.00000200 0.00000000 0.00000000 -0.12484800
3 7.43124800 1.49647700 0.00000200 0.00000000 0.00000000 0.24545000
4 5.27847900 0.16554100 0.00000100 0.00000000 0.00000000 0.04851100
5 3.06561000 -12.65744000 1.08368000 2.12269900 1.26566500 -1.14230500
6 -6.21448200 -0.00000700 -0.00002700 -3.12416486 -0.83257121 1.85509222
7 11.94488200 0.00000000 0.00000100 -1.91362161 -0.48248625 1.44210946
8 10.62018100 0.00000200 0.00000000 0.31676140 0.16171218 2.80658174
9 -4.75110600 -0.69449400 0.83057700 0.08967600 -0.13098500 0.50038700
10 -1.68806800 0.00004600 -0.00003200 0.01671600 -0.01820000 0.69721500
11 -1.33614000 0.00005700 -0.00001200 0.02585500 -0.00498100 0.74325400
12 -4.82049400 -0.50946000 -0.22475900 -0.03127800 -0.08831000 0.88545800
13 -1.82699200 -0.00006400 0.00000600 -0.01893000 0.03570700 0.78653700
14 -1.43657300 0.00000600 0.00000200 -0.01017500 -0.07709500 0.03978900
15 -3.99235500 -0.89118800 -1.82790900 -0.35801500 0.10592100 1.28642800
16 -1.40591800 -0.00002500 -0.00000300 0.01423200 -0.02576700 0.37050100
17 -1.17535800 0.00012800 -0.00002000 0.02414000 0.06349200 0.26733300
18 -4.52675100 -0.69057500 -1.12074400 -0.15126300 -0.02698800 1.18332100
19 -1.74403800 0.00003300 -0.00000800 -0.00996000 -0.02781000 0.75209900
20 -1.36877100 0.00002500 0.00000200 0.00284900 0.05240600 -0.04949900
21 -1.87480000 -0.93512500 0.99917400 2.71530800 0.29281300 1.14742800
22 -1.62789245 0.15474811 0.01182334 -0.45142800 0.39058000 0.17554000
23 -1.59928500 0.00000400 0.00001600 0.05913200 -0.03395700 0.69875300
24 5.51181500 0.00000800 -0.00000100 1.60015648 0.00071863 3.14081800
25 0.19684700 -0.00000100 0.00000300 2.79340692 -0.00068162 -3.14143277
26 3.25266400 -11.66983600 -2.70820900 1.97586200 1.15990900 1.84280300
27 6.21448500 0.00000600 0.00002000 -0.82268847 0.77057554 -2.03664727
28 11.94488500 -0.00002900 -0.00019400 -1.06353104 -0.28529815 -0.96100279
29 10.62016600 0.00000200 0.00001000 -1.48522874 -0.64742939 -0.39575148
30 4.75115600 0.69437600 -0.83047300 -0.04117600 -0.18863600 0.60355500
31 1.68806500 -0.00002600 0.00000200 0.00262100 -0.02458500 1.33370800
32 1.33615100 -0.00005100 -0.00000900 0.01348100 -0.03626600 0.01365700
33 4.82051300 0.50934000 0.22486500 0.07478500 0.04514400 1.05758200
34 1.82699600 0.00006600 0.00000800 -0.00950200 0.03929900 1.03599800
35 1.43657700 -0.00001000 0.00000700 0.01323600 -0.00739800 -0.21985200
36 3.99235300 0.89108700 1.82799400 -0.32807200 -0.04594200 0.96946400
37 1.40591800 0.00002100 -0.00000700 -0.00225300 -0.02943200 0.95183300
38 1.17536900 -0.00013100 0.00000200 0.00681700 0.12305700 0.01097200
39 4.52675600 0.69046000 1.12084200 -0.13684300 0.00749600 1.02191100
40 1.74404100 -0.00003100 -0.00000200 -0.02263700 -0.01908800 1.28169000
41 1.36876300 -0.00003100 -0.00001700 -0.05058800 0.21380200 -0.54106800
42 2.00827778 1.42615145 -0.76232700 2.06590300 0.96199600 1.25446300
43 1.52344900 -0.00003400 -0.00000300 0.10241895 0.16806532 0.77425778
44 1.59928100 -0.00000200 0.00000900 0.07625000 0.03398500 0.40775500
45 5.51180600 -0.00000200 0.00000600 -0.23579700 0.00000500 0.00000700
46 0.19685000 0.00000300 -0.00000200 -0.34822500 0.00001500 -0.00000200
47 0.00000000 0.00000000 0.00000000 0.00000000 0.00000000 -1.57079600
48 -4.33264200 23.46635400 -4.02389200 0.00000000 0.00000000 -3.14156200
49 -3.31762929 45.26684676 -6.23301158 0.08624621 1.06159632 3.04178596
50 -0.94676041 3.09898103 -4.38386026 1.39142500 0.76772300 -2.23544400
51 9.26444266 18.73908822 -11.60672089 0.00000000 0.00000000 0.00000000
52 -0.14427800 -0.01905500 0.77712700 0.00000000 0.00000000 0.00000000
53 -0.03040300 0.00000000 0.97060100 0.00000000 0.00000000 0.00000000
54 0.25083200 0.00887700 0.66073700 0.00000000 0.00000000 0.00000000
55 1.02156300 0.00000000 0.05472700 0.00000000 0.00000000 0.00000000
56 0.58919200 0.02250000 -0.43769800 0.00000000 0.00000000 0.00000000
57 0.06109300 -0.00834800 -1.09328200 0.00000000 0.00000000 0.00000000
58 -0.43080900 0.02895100 -0.96669100 0.00000000 0.00000000 0.00000000
59 -0.41086000 0.04068300 -1.16810300 0.00000000 0.00000000 0.00000000
60 -0.05530300 0.03252600 -2.02691900 0.00000000 0.00000000 0.00000000
61 0.28229000 -0.08289900 -1.34992400 0.00000000 0.00000000 0.00000000
62 0.99636700 -0.37373900 -0.37975200 0.00000000 0.00000000 0.00000000
63 5.29182100 -7.72295500 -27.65712900 0.81371100 -0.71543000 0.13770700
64 1.37038600 -0.02054000 1.25849300 0.00000200 0.00000000 0.00000100
65 0.15487200 -0.02709800 2.44212200 -0.07802400 0.05925800 0.12926400
66 0.00000100 0.00000200 0.99728300 0.00000000 0.00000000 0.00000000
67 0.00000000 0.00000200 1.00801400 0.00000000 0.00000000 0.00000000
68 2.06719000 3.60588200 2.07666800 2.85305200 -0.22672800 0.10415500
time 1
0 -0.00000100 7.45008900 -27.50902600 0.00000000 0.00000000 0.00003100
1 -0.00000200 0.00000000 0.00000000 1.57074300 -1.56713700 -1.57074300
2 4.25546800 -0.33518300 -0.00000200 0.00000000 0.00000000 -0.12484800
3 7.43124800 1.49647700 0.00000200 0.00000000 0.00000000 0.24545000
4 5.27847900 0.16554100 0.00000100 0.00000000 0.00000000 0.04851100
5 3.06561000 -12.65744000 1.08368000 2.12269900 1.26566500 -1.14230500
6 -6.21448200 -0.00000700 -0.00002700 -3.11522020 -0.83061036 1.84878401
7 11.94488200 0.00000000 0.00000100 -1.91954661 -0.47389574 1.45640340
8 10.62018100 0.00000200 0.00000000 0.35252101 0.11689293 2.82380250
9 -4.75110600 -0.69449400 0.83057700 0.08967600 -0.13098500 0.50038700
10 -1.68806800 0.00004600 -0.00003200 0.01671600 -0.01820000 0.69721500
11 -1.33614000 0.00005700 -0.00001200 0.02585500 -0.00498100 0.74325400
12 -4.82049400 -0.50946000 -0.22475900 -0.03127800 -0.08831000 0.88545800
13 -1.82699200 -0.00006400 0.00000600 -0.01893000 0.03570700 0.78653700
14 -1.43657300 0.00000600 0.00000200 -0.01017500 -0.07709500 0.03978900
15 -3.99235500 -0.89118800 -1.82790900 -0.35801500 0.10592100 1.28642800
16 -1.40591800 -0.00002500 -0.00000300 0.01423200 -0.02576700 0.37050100
17 -1.17535800 0.00012800 -0.00002000 0.02414000 0.06349200 0.26733300
18 -4.52675100 -0.69057500 -1.12074400 -0.15126300 -0.02698800 1.18332100
19 -1.74403800 0.00003300 -0.00000800 -0.00996000 -0.02781000 0.75209900
20 -1.36877100 0.00002500 0.00000200 0.00284900 0.05240600 -0.04949900
21 -1.87480000 -0.93512500 0.99917400 2.71530800 0.29281300 1.14742800
22 -1.62789245 0.15474811 0.01182334 -0.45142800 0.39058000 0.17554000
23 -1.59928500 0.00000400 0.00001600 0.05913200 -0.03395700 0.69875300
24 5.51181500 0.00000800 -0.00000100 1.60015648 0.00071863 3.14081800
25 0.19684700 -0.00000100 0.00000300 2.79340692 -0.00068162 -3.14143277
26 3.25266400 -11.66983600 -2.70820900 1.97586200 1.15990900 1.84280300
27 6.21448500 0.00000600 0.00002000 -0.82940891 0.76195972 -2.03404673
28 11.94488500 -0.00002900 -0.00019400 -1.06919267 -0.27963419 -0.94160565
29 10.62016600 0.00000200 0.00001000 -1.53518728 -0.63947033 -0.34648863
30 4.75115600 0.69437600 -0.83047300 -0.04117600 -0.18863600 0.60355500
31 1.68806500 -0.00002600 0.00000200 0.00262100 -0.02458500 1.33370800
32 1.33615100 -0.00005100 -0.00000900 0.01348100 -0.03626600 0.01365700
33 4.82051300 0.50934000 0.22486500 0.07478500 0.04514400 1.05758200
34 1.82699600 0.00006600 0.00000800 -0.00950200 0.03929900 1.03599800
35 1.43657700 -0.00001000 0.00000700 0.01323600 -0.00739800 -0.21985200
36 3.99235300 0.89108700 1.82799400 -0.32807200 -0.04594200 0.96946400
37 1.40591800 0.00002100 -0.00000700 -0.00225300 -0.02943200 0.95183300
38 1.17536900 -0.00013100 0.00000200 0.00681700 0.12305700 0.01097200
39 4.52675600 0.69046000 1.12084200 -0.13684300 0.00749600 1.02191100
40 1.74404100 -0.00003100 -0.00000200 -0.02263700 -0.01908800 1.28169000
41 1.36876300 -0.00003100 -0.00001700 -0.05058800 0.21380200 -0.54106800
42 2.00827778 1.42615145 -0.76232700 2.06590300 0.96199600 1.25446300
43 1.52344900 -0.00003400 -0.00000300 0.10241895 0.16806532 0.77425778
44 1.59928100 -0.00000200 0.00000900 0.07625000 0.03398500 0.40775500
45 5.51180600 -0.00000200 0.00000600 -0.23579700 0.00000500 0.00000700
46 0.19685000 0.00000300 -0.00000200 -0.34822500 0.00001500 -0.00000200
47 0.00000000 0.00000000 0.00000000 0.00000000 0.00000000 -1.57079600
48 -4.33264200 23.46635400 -4.02389200 0.00000000 0.00000000 -3.14156200
49 -3.35733120 45.32098781 -6.25611484 0.12626526 1.08541187 3.04853116
50 -0.94676041 3.09898103 -4.38386026 1.39142500 0.76772300 -2.23544400
51 9.26444266 18.73908822 -11.60672089 0.00000000 0.00000000 0.00000000
52 -0.14427800 -0.01905500 0.77712700 0.00000000 0.00000000 0.00000000
53 -0.03040300 0.00000000 0.97060100 0.00000000 0.00000000 0.00000000
54 0.25083200 0.00887700 0.66073700 0.00000000 0.00000000 0.00000000
55 1.02156300 0.00000000 0.05472700 0.00000000 0.00000000 0.00000000
56 0.58919200 0.02250000 -0.43769800 0.00000000 0.00000000 0.00000000
57 0.06109300 -0.00834800 -1.09328200 0.00000000 0.00000000 0.00000000
58 -0.43080900 0.02895100 -0.96669100 0.00000000 0.00000000 0.00000000
59 -0.41086000 0.04068300 -1.16810300 0.00000000 0.00000000 0.00000000
60 -0.05530300 0.03252600 -2.02691900 0.00000000 0.00000000 0.00000000
61 0.28229000 -0.08289900 -1.34992400 0.00000000 0.00000000 0.00000000
62 0.99636700 -0.37373900 -0.37975200 0.00000000 0.00000000 0.00000000
63 5.29182100 -7.72295500 -27.65712900 0.81371100 -0.71543000 0.13770700
64 1.37038600 -0.02054000 1.25849300 0.00000200 0.00000000 0.00000100
65 0.15487200 -0.02709800 2.44212200 -0.07802400 0.05925800 0.12926400
66 0.00000100 0.00000200 0.99728300 0.00000000 0.00000000 0.00000000
67 0.00000000 0.00000200 1.00801400 0.00000000 0.00000000 0.00000000
68 2.06719000 3.60588200 2.07666800 2.85305200 -0.22672800 0.10415500
time 2
0 -0.00000100 7.45008900 -27.50902600 0.00000000 0.00000000 0.00003100
1 -0.00000200 0.00000000 0.00000000 1.57074300 -1.56713700 -1.57074300
2 4.25546800 -0.33518300 -0.00000200 0.00000000 0.00000000 -0.12484800
3 7.43124800 1.49647700 0.00000200 0.00000000 0.00000000 0.24545000
4 5.27847900 0.16554100 0.00000100 0.00000000 0.00000000 0.04851100
5 3.06561000 -12.65744000 1.08368000 2.12269900 1.26566500 -1.14230500
6 -6.21448200 -0.00000700 -0.00002700 -3.09694732 -0.82478787 1.82867676
7 11.94488200 0.00000000 0.00000100 -1.92001741 -0.46468106 1.45804557
8 10.62018100 0.00000200 0.00000000 0.39404469 0.06842543 2.84750244
9 -4.75110600 -0.69449400 0.83057700 0.08967600 -0.13098500 0.50038700
10 -1.68806800 0.00004600 -0.00003200 0.01671600 -0.01820000 0.69721500
11 -1.33614000 0.00005700 -0.00001200 0.02585500 -0.00498100 0.74325400
12 -4.82049400 -0.50946000 -0.22475900 -0.03127800 -0.08831000 0.88545800
13 -1.82699200 -0.00006400 0.00000600 -0.01893000 0.03570700 0.78653700
14 -1.43657300 0.00000600 0.00000200 -0.01017500 -0.07709500 0.03978900
15 -3.99235500 -0.89118800 -1.82790900 -0.35801500 0.10592100 1.28642800
16 -1.40591800 -0.00002500 -0.00000300 0.01423200 -0.02576700 0.37050100
17 -1.17535800 0.00012800 -0.00002000 0.02414000 0.06349200 0.26733300
18 -4.52675100 -0.69057500 -1.12074400 -0.15126300 -0.02698800 1.18332100
19 -1.74403800 0.00003300 -0.00000800 -0.00996000 -0.02781000 0.75209900
20 -1.36877100 0.00002500 0.00000200 0.00284900 0.05240600 -0.04949900
21 -1.87480000 -0.93512500 0.99917400 2.71530800 0.29281300 1.14742800
22 -1.62789245 0.15474811 0.01182334 -0.45142800 0.39058000 0.17554000
23 -1.59928500 0.00000400 0.00001600 0.05913200 -0.03395700 0.69875300
24 5.51181500 0.00000800 -0.00000100 1.60015648 0.00071863 3.14081800
25 0.19684700 -0.00000100 0.00000300 2.79340692 -0.00068162 -3.14143277
26 3.25266400 -11.66983600 -2.70820900 1.97586200 1.15990900 1.84280300
27 6.21448500 0.00000600 0.00002000 -0.83943447 0.74785380 -2.03143328
28 11.94488500 -0.00002900 -0.00019400 -1.07904237 -0.27231147 -0.90626657
29 10.62016600 0.00000200 0.00001000 -1.59990892 -0.62397951 -0.29010033
30 4.75115600 0.69437600 -0.83047300 -0.04117600 -0.18863600 0.60355500
31 1.68806500 -0.00002600 0.00000200 0.00262100 -0.02458500 1.33370800
32 1.33615100 -0.00005100 -0.00000900 0.01348100 -0.03626600 0.01365700
33 4.82051300 0.50934000 0.22486500 0.07478500 0.04514400 1.05758200
34 1.82699600 0.00006600 0.00000800 -0.00950200 0.03929900 1.03599800
35 1.43657700 -0.00001000 0.00000700 0.01323600 -0.00739800 -0.21985200
36 3.99235300 0.89108700 1.82799400 -0.32807200 -0.04594200 0.96946400
37 1.40591800 0.00002100 -0.00000700 -0.00225300 -0.02943200 0.95183300
38 1.17536900 -0.00013100 0.00000200 0.00681700 0.12305700 0.01097200
39 4.52675600 0.69046000 1.12084200 -0.13684300 0.00749600 1.02191100
40 1.74404100 -0.00003100 -0.00000200 -0.02263700 -0.01908800 1.28169000
41 1.36876300 -0.00003100 -0.00001700 -0.05058800 0.21380200 -0.54106800
42 2.00827778 1.42615145 -0.76232700 2.06590300 0.96199600 1.25446300
43 1.52344900 -0.00003400 -0.00000300 0.10241895 0.16806532 0.77425778
44 1.59928100 -0.00000200 0.00000900 0.07625000 0.03398500 0.40775500
45 5.51180600 -0.00000200 0.00000600 -0.23579700 0.00000500 0.00000700
46 0.19685000 0.00000300 -0.00000200 -0.34822500 0.00001500 -0.00000200
47 0.00000000 0.00000000 0.00000000 0.00000000 0.00000000 -1.57079600
48 -4.33264200 23.46635400 -4.02389200 0.00000000 0.00000000 -3.14156200
49 -3.46814938 45.46298148 -6.30489231 0.18076533 1.11900793 3.06719992
50 -0.94676041 3.09898103 -4.38386026 1.39142500 0.76772300 -2.23544400
51 9.26444266 18.73908822 -11.60672089 0.00000000 0.00000000 0.00000000
52 -0.14427800 -0.01905500 0.77712700 0.00000000 0.00000000 0.00000000
53 -0.03040300 0.00000000 0.97060100 0.00000000 0.00000000 0.00000000
54 0.25083200 0.00887700 0.66073700 0.00000000 0.00000000 0.00000000
55 1.02156300 0.00000000 0.05472700 0.00000000 0.00000000 0.00000000
56 0.58919200 0.02250000 -0.43769800 0.00000000 0.00000000 0.00000000
57 0.06109300 -0.00834800 -1.09328200 0.00000000 0.00000000 0.00000000
58 -0.43080900 0.02895100 -0.96669100 0.00000000 0.00000000 0.00000000
59 -0.41086000 0.04068300 -1.16810300 0.00000000 0.00000000 0.00000000
60 -0.05530300 0.03252600 -2.02691900 0.00000000 0.00000000 0.00000000
61 0.28229000 -0.08289900 -1.34992400 0.00000000 0.00000000 0.00000000
62 0.99636700 -0.37373900 -0.37975200 0.00000000 0.00000000 0.00000000
63 5.29182100 -7.72295500 -27.65712900 0.81371100 -0.71543000 0.13770700
64 1.37038600 -0.02054000 1.25849300 0.00000200 0.00000000 0.00000100
65 0.15487200 -0.02709800 2.44212200 -0.07802400 0.05925800 0.12926400
66 0.00000100 0.00000200 0.99728300 0.00000000 0.00000000 0.00000000
67 0.00000000 0.00000200 1.00801400 0.00000000 0.00000000 0.00000000
68 2.06719000 3.60588200 2.07666800 2.85305200 -0.22672800 0.10415500
time 3
0 -0.00000100 7.45008900 -27.50902600 0.00000000 0.00000000 0.00003100
1 -0.00000200 0.00000000 0.00000000 1.57074300 -1.56713700 -1.57074300
2 4.25546800 -0.33518300 -0.00000200 0.00000000 0.00000000 -0.12484800
3 7.43124800 1.49647700 0.00000200 0.00000000 0.00000000 0.24545000
4 5.27847900 0.16554100 0.00000100 0.00000000 0.00000000 0.04851100
5 3.06561000 -12.65744000 1.08368000 2.12269900 1.26566500 -1.14230500
6 -6.21448200 -0.00000700 -0.00002700 -3.08046277 -0.81864262 1.80167504
7 11.94488200 0.00000000 0.00000100 -1.90575663 -0.46150658 1.42486237
8 10.62018100 0.00000200 0.00000000 0.39627962 0.06683601 2.84855891
9 -4.75110600 -0.69449400 0.83057700 0.08967600 -0.13098500 0.50038700
10 -1.68806800 0.00004600 -0.00003200 0.01671600 -0.01820000 0.69721500
11 -1.33614000 0.00005700 -0.00001200 0.02585500 -0.00498100 0.74325400
12 -4.82049400 -0.50946000 -0.22475900 -0.03127800 -0.08831000 0.88545800
13 -1.82699200 -0.00006400 0.00000600 -0.01893000 0.03570700 0.78653700
14 -1.43657300 0.00000600 0.00000200 -0.01017500 -0.07709500 0.03978900
15 -3.99235500 -0.89118800 -1.82790900 -0.35801500 0.10592100 1.28642800
16 -1.40591800 -0.00002500 -0.00000300 0.01423200 -0.02576700 0.37050100
17 -1.17535800 0.00012800 -0.00002000 0.02414000 0.06349200 0.26733300
18 -4.52675100 -0.69057500 -1.12074400 -0.15126300 -0.02698800 1.18332100
19 -1.74403800 0.00003300 -0.00000800 -0.00996000 -0.02781000 0.75209900
20 -1.36877100 0.00002500 0.00000200 0.00284900 0.05240600 -0.04949900
21 -1.87480000 -0.93512500 0.99917400 2.71530800 0.29281300 1.14742800
22 -1.62789245 0.15474811 0.01182334 -0.45142800 0.39058000 0.17554000
23 -1.59928500 0.00000400 0.00001600 0.05913200 -0.03395700 0.69875300
24 5.51181500 0.00000800 -0.00000100 1.60015648 0.00071863 3.14081800
25 0.19684700 -0.00000100 0.00000300 2.79340692 -0.00068162 -3.14143277
26 3.25266400 -11.66983600 -2.70820900 1.97586200 1.15990900 1.84280300
27 6.21448500 0.00000600 0.00002000 -0.84749384 0.73482351 -2.03025527
28 11.94488500 -0.00002900 -0.00019400 -1.08837266 -0.26807759 -0.87090382
29 10.62016600 0.00000200 0.00001000 -1.61727474 -0.60840340 -0.27711124
30 4.75115600 0.69437600 -0.83047300 -0.04117600 -0.18863600 0.60355500
31 1.68806500 -0.00002600 0.00000200 0.00262100 -0.02458500 1.33370800
32 1.33615100 -0.00005100 -0.00000900 0.01348100 -0.03626600 0.01365700
33 4.82051300 0.50934000 0.22486500 0.07478500 0.04514400 1.05758200
34 1.82699600 0.00006600 0.00000800 -0.00950200 0.03929900 1.03599800
35 1.43657700 -0.00001000 0.00000700 0.01323600 -0.00739800 -0.21985200
36 3.99235300 0.89108700 1.82799400 -0.32807200 -0.04594200 0.96946400
37 1.40591800 0.00002100 -0.00000700 -0.00225300 -0.02943200 0.95183300
38 1.17536900 -0.00013100 0.00000200 0.00681700 0.12305700 0.01097200
39 4.52675600 0.69046000 1.12084200 -0.13684300 0.00749600 1.02191100
40 1.74404100 -0.00003100 -0.00000200 -0.02263700 -0.01908800 1.28169000
41 1.36876300 -0.00003100 -0.00001700 -0.05058800 0.21380200 -0.54106800
42 2.00827778 1.42615145 -0.76232700 2.06590300 0.96199600 1.25446300
43 1.52344900 -0.00003400 -0.00000300 0.10241895 0.16806532 0.77425778
44 1.59928100 -0.00000200 0.00000900 0.07625000 0.03398500 0.40775500
45 5.51180600 -0.00000200 0.00000600 -0.23579700 0.00000500 0.00000700
46 0.19685000 0.00000300 -0.00000200 -0.34822500 0.00001500 -0.00000200
47 0.00000000 0.00000000 0.00000000 0.00000000 0.00000000 -1.57079600
48 -4.33264200 23.46635400 -4.02389200 0.00000000 0.00000000 -3.14156200
49 -3.63381536 45.67623638 -6.40898877 0.20939363 1.12547154 3.09106374
50 -0.94676041 3.09898103 -4.38386026 1.39142500 0.76772300 -2.23544400
51 9.26444266 18.73908822 -11.60672089 0.00000000 0.00000000 0.00000000
52 -0.14427800 -0.01905500 0.77712700 0.00000000 0.00000000 0.00000000
53 -0.03040300 0.00000000 0.97060100 0.00000000 0.00000000 0.00000000
54 0.25083200 0.00887700 0.66073700 0.00000000 0.00000000 0.00000000
55 1.02156300 0.00000000 0.05472700 0.00000000 0.00000000 0.00000000
56 0.58919200 0.02250000 -0.43769800 0.00000000 0.00000000 0.00000000
57 0.06109300 -0.00834800 -1.09328200 0.00000000 0.00000000 0.00000000
58 -0.43080900 0.02895100 -0.96669100 0.00000000 0.00000000 0.00000000
59 -0.41086000 0.04068300 -1.16810300 0.00000000 0.00000000 0.00000000
60 -0.05530300 0.03252600 -2.02691900 0.00000000 0.00000000 0.00000000
61 0.28229000 -0.08289900 -1.34992400 0.00000000 0.00000000 0.00000000
62 0.99636700 -0.37373900 -0.37975200 0.00000000 0.00000000 0.00000000
63 5.29182100 -7.72295500 -27.65712900 0.81371100 -0.71543000 0.13770700
64 1.37038600 -0.02054000 1.25849300 0.00000200 0.00000000 0.00000100
65 0.15487200 -0.02709800 2.44212200 -0.07802400 0.05925800 0.12926400
66 0.00000100 0.00000200 0.99728300 0.00000000 0.00000000 0.00000000
67 0.00000000 0.00000200 1.00801400 0.00000000 0.00000000 0.00000000
68 2.06719000 3.60588200 2.07666800 2.85305200 -0.22672800 0.10415500
time 4
0 -0.00000100 7.45008900 -27.50902600 0.00000000 0.00000000 0.00003100
1 -0.00000200 0.00000000 0.00000000 1.57074300 -1.56713700 -1.57074300
2 4.25546800 -0.33518300 -0.00000200 0.00000000 0.00000000 -0.12484800
3 7.43124800 1.49647700 0.00000200 0.00000000 0.00000000 0.24545000
4 5.27847900 0.16554100 0.00000100 0.00000000 0.00000000 0.04851100
5 3.06561000 -12.65744000 1.08368000 2.12269900 1.26566500 -1.14230500
6 -6.21448200 -0.00000700 -0.00002700 -3.06119076 -0.80950885 1.76924836
7 11.94488200 0.00000000 0.00000100 -1.88494472 -0.45813079 1.37622447
8 10.62018100 0.00000200 0.00000000 0.38157334 0.07738464 2.84456401
9 -4.75110600 -0.69449400 0.83057700 0.08967600 -0.13098500 0.50038700
10 -1.68806800 0.00004600 -0.00003200 0.01671600 -0.01820000 0.69721500
11 -1.33614000 0.00005700 -0.00001200 0.02585500 -0.00498100 0.74325400
12 -4.82049400 -0.50946000 -0.22475900 -0.03127800 -0.08831000 0.88545800
13 -1.82699200 -0.00006400 0.00000600 -0.01893000 0.03570700 0.78653700
14 -1.43657300 0.00000600 0.00000200 -0.01017500 -0.07709500 0.03978900
15 -3.99235500 -0.89118800 -1.82790900 -0.35801500 0.10592100 1.28642800
16 -1.40591800 -0.00002500 -0.00000300 0.01423200 -0.02576700 0.37050100
17 -1.17535800 0.00012800 -0.00002000 0.02414000 0.06349200 0.26733300
18 -4.52675100 -0.69057500 -1.12074400 -0.15126300 -0.02698800 1.18332100
19 -1.74403800 0.00003300 -0.00000800 -0.00996000 -0.02781000 0.75209900
20 -1.36877100 0.00002500 0.00000200 0.00284900 0.05240600 -0.04949900
21 -1.87480000 -0.93512500 0.99917400 2.71530800 0.29281300 1.14742800
22 -1.62789245 0.15474811 0.01182334 -0.45142800 0.39058000 0.17554000
23 -1.59928500 0.00000400 0.00001600 0.05913200 -0.03395700 0.69875300
24 5.51181500 0.00000800 -0.00000100 1.60015648 0.00071863 3.14081800
25 0.19684700 -0.00000100 0.00000300 2.79340692 -0.00068162 -3.14143277
26 3.25266400 -11.66983600 -2.70820900 1.97586200 1.15990900 1.84280300
27 6.21448500 0.00000600 0.00002000 -0.85762865 0.71898653 -2.02971183
28 11.94488500 -0.00002900 -0.00019400 -1.09834460 -0.26239678 -0.83268134
29 10.62016600 0.00000200 0.00001000 -1.61711572 -0.59645340 -0.27541108
30 4.75115600 0.69437600 -0.83047300 -0.04117600 -0.18863600 0.60355500
31 1.68806500 -0.00002600 0.00000200 0.00262100 -0.02458500 1.33370800
32 1.33615100 -0.00005100 -0.00000900 0.01348100 -0.03626600 0.01365700
33 4.82051300 0.50934000 0.22486500 0.07478500 0.04514400 1.05758200
34 1.82699600 0.00006600 0.00000800 -0.00950200 0.03929900 1.03599800
35 1.43657700 -0.00001000 0.00000700 0.01323600 -0.00739800 -0.21985200
36 3.99235300 0.89108700 1.82799400 -0.32807200 -0.04594200 0.96946400
37 1.40591800 0.00002100 -0.00000700 -0.00225300 -0.02943200 0.95183300
38 1.17536900 -0.00013100 0.00000200 0.00681700 0.12305700 0.01097200
39 4.52675600 0.69046000 1.12084200 -0.13684300 0.00749600 1.02191100
40 1.74404100 -0.00003100 -0.00000200 -0.02263700 -0.01908800 1.28169000
41 1.36876300 -0.00003100 -0.00001700 -0.05058800 0.21380200 -0.54106800
42 2.00827778 1.42615145 -0.76232700 2.06590300 0.96199600 1.25446300
43 1.52344900 -0.00003400 -0.00000300 0.10241895 0.16806532 0.77425778
44 1.59928100 -0.00000200 0.00000900 0.07625000 0.03398500 0.40775500
45 5.51180600 -0.00000200 0.00000600 -0.23579700 0.00000500 0.00000700
46 0.19685000 0.00000300 -0.00000200 -0.34822500 0.00001500 -0.00000200
47 0.00000000 0.00000000 0.00000000 0.00000000 0.00000000 -1.57079600
48 -4.33264200 23.46635400 -4.02389200 0.00000000 0.00000000 -3.14156200
49 -3.83560481 45.94131296 -6.52385627 0.24020482 1.12145543 3.12722321
50 -0.94676041 3.09898103 -4.38386026 1.39142500 0.76772300 -2.23544400
51 9.26444266 18.73908822 -11.60672089 0.00000000 0.00000000 0.00000000
52 -0.14427800 -0.01905500 0.77712700 0.00000000 0.00000000 0.00000000
53 -0.03040300 0.00000000 0.97060100 0.00000000 0.00000000 0.00000000
54 0.25083200 0.00887700 0.66073700 0.00000000 0.00000000 0.00000000
55 1.02156300 0.00000000 0.05472700 0.00000000 0.00000000 0.00000000
56 0.58919200 0.02250000 -0.43769800 0.00000000 0.00000000 0.00000000
57 0.06109300 -0.00834800 -1.09328200 0.00000000 0.00000000 0.00000000
58 -0.43080900 0.02895100 -0.96669100 0.00000000 0.00000000 0.00000000
59 -0.41086000 0.04068300 -1.16810300 0.00000000 0.00000000 0.00000000
60 -0.05530300 0.03252600 -2.02691900 0.00000000 0.00000000 0.00000000
61 0.28229000 -0.08289900 -1.34992400 0.00000000 0.00000000 0.00000000
62 0.99636700 -0.37373900 -0.37975200 0.00000000 0.00000000 0.00000000
63 5.29182100 -7.72295500 -27.65712900 0.81371100 -0.71543000 0.13770700
64 1.37038600 -0.02054000 1.25849300 0.00000200 0.00000000 0.00000100
65 0.15487200 -0.02709800 2.44212200 -0.07802400 0.05925800 0.12926400
66 0.00000100 0.00000200 0.99728300 0.00000000 0.00000000 0.00000000
67 0.00000000 0.00000200 1.00801400 0.00000000 0.00000000 0.00000000
68 2.06719000 3.60588200 2.07666800 2.85305200 -0.22672800 0.10415500
time 5
0 -0.00000100 7.45008900 -27.50902600 0.00000000 0.00000000 0.00003100
1 -0.00000200 0.00000000 0.00000000 1.57074300 -1.56713700 -1.57074300
2 4.25546800 -0.33518300 -0.00000200 0.00000000 0.00000000 -0.12484800
3 7.43124800 1.49647700 0.00000200 0.00000000 0.00000000 0.24545000
4 5.27847900 0.16554100 0.00000100 0.00000000 0.00000000 0.04851100
5 3.06561000 -12.65744000 1.08368000 2.12269900 1.26566500 -1.14230500
6 -6.21448200 -0.00000700 -0.00002700 -3.03798552 -0.79481459 1.73291295
7 11.94488200 0.00000000 0.00000100 -1.85921927 -0.45217719 1.31544201
8 10.62018100 0.00000200 0.00000000 0.34604687 0.09988685 2.83476588
9 -4.75110600 -0.69449400 0.83057700 0.08967600 -0.13098500 0.50038700
10 -1.68806800 0.00004600 -0.00003200 0.01671600 -0.01820000 0.69721500
11 -1.33614000 0.00005700 -0.00001200 0.02585500 -0.00498100 0.74325400
12 -4.82049400 -0.50946000 -0.22475900 -0.03127800 -0.08831000 0.88545800
13 -1.82699200 -0.00006400 0.00000600 -0.01893000 0.03570700 0.78653700
14 -1.43657300 0.00000600 0.00000200 -0.01017500 -0.07709500 0.03978900
15 -3.99235500 -0.89118800 -1.82790900 -0.35801500 0.10592100 1.28642800
16 -1.40591800 -0.00002500 -0.00000300 0.01423200 -0.02576700 0.37050100
17 -1.17535800 0.00012800 -0.00002000 0.02414000 0.06349200 0.26733300
18 -4.52675100 -0.69057500 -1.12074400 -0.15126300 -0.02698800 1.18332100
19 -1.74403800 0.00003300 -0.00000800 -0.00996000 -0.02781000 0.75209900
20 -1.36877100 0.00002500 0.00000200 0.00284900 0.05240600 -0.04949900
21 -1.87480000 -0.93512500 0.99917400 2.71530800 0.29281300 1.14742800
22 -1.62789245 0.15474811 0.01182445 -0.45142800 0.39058000 0.17554000
23 -1.59928500 0.00000400 0.00001600 0.05913200 -0.03395700 0.69875300
24 5.51181500 0.00000800 -0.00000100 1.60015648 0.00071863 3.14081800
25 0.19684700 -0.00000100 0.00000300 2.79340692 -0.00068162 -3.14143277
26 3.25266400 -11.66983600 -2.70820900 1.97586200 1.15990900 1.84280300
27 6.21448500 0.00000600 0.00002000 -0.87043010 0.69950672 -2.03073320
28 11.94488500 -0.00002900 -0.00019400 -1.10714863 -0.25607487 -0.79798613
29 10.62016600 0.00000200 0.00001000 -1.59249151 -0.59209884 -0.28745354
30 4.75115600 0.69437600 -0.83047300 -0.04117600 -0.18863600 0.60355500
31 1.68806500 -0.00002600 0.00000200 0.00262100 -0.02458500 1.33370800
32 1.33615100 -0.00005100 -0.00000900 0.01348100 -0.03626600 0.01365700
33 4.82051300 0.50934000 0.22486500 0.07478500 0.04514400 1.05758200
34 1.82699600 0.00006600 0.00000800 -0.00950200 0.03929900 1.03599800
35 1.43657700 -0.00001000 0.00000700 0.01323600 -0.00739800 -0.21985200
36 3.99235300 0.89108700 1.82799400 -0.32807200 -0.04594200 0.96946400
37 1.40591800 0.00002100 -0.00000700 -0.00225300 -0.02943200 0.95183300
38 1.17536900 -0.00013100 0.00000200 0.00681700 0.12305700 0.01097200
39 4.52675600 0.69046000 1.12084200 -0.13684300 0.00749600 1.02191100
40 1.74404100 -0.00003100 -0.00000200 -0.02263700 -0.01908800 1.28169000
41 1.36876300 -0.00003100 -0.00001700 -0.05058800 0.21380200 -0.54106800
42 2.00827778 1.42615200 -0.76232700 2.06590300 0.96199600 1.25446300
43 1.52344900 -0.00003400 -0.00000300 0.10241895 0.16806532 0.77425778
44 1.59928100 -0.00000200 0.00000900 0.07625000 0.03398500 0.40775500
45 5.51180600 -0.00000200 0.00000600 -0.23579700 0.00000500 0.00000700
46 0.19685000 0.00000300 -0.00000200 -0.34822500 0.00001500 -0.00000200
47 0.00000000 0.00000000 0.00000000 0.00000000 0.00000000 -1.57079600
48 -4.33264200 23.46635400 -4.02389200 0.00000000 0.00000000 -3.14156200
49 -4.05375980 46.24257090 -6.56979224 0.26365054 1.10363005 -3.11482857
50 -0.94675985 3.09898214 -4.38386026 1.39142500 0.76772300 -2.23544400
51 9.26444155 18.73908933 -11.60672089 0.00000000 0.00000000 0.00000000
52 -0.14427800 -0.01905500 0.77712700 0.00000000 0.00000000 0.00000000
53 -0.03040300 0.00000000 0.97060100 0.00000000 0.00000000 0.00000000
54 0.25083200 0.00887700 0.66073700 0.00000000 0.00000000 0.00000000
55 1.02156300 0.00000000 0.05472700 0.00000000 0.00000000 0.00000000
56 0.58919200 0.02250000 -0.43769800 0.00000000 0.00000000 0.00000000
57 0.06109300 -0.00834800 -1.09328200 0.00000000 0.00000000 0.00000000
58 -0.43080900 0.02895100 -0.96669100 0.00000000 0.00000000 0.00000000
59 -0.41086000 0.04068300 -1.16810300 0.00000000 0.00000000 0.00000000
60 -0.05530300 0.03252600 -2.02691900 0.00000000 0.00000000 0.00000000
61 0.28229000 -0.08289900 -1.34992400 0.00000000 0.00000000 0.00000000
62 0.99636700 -0.37373900 -0.37975200 0.00000000 0.00000000 0.00000000
63 5.29182100 -7.72295500 -27.65712900 0.81371100 -0.71543000 0.13770700
64 1.37038600 -0.02054000 1.25849300 0.00000200 0.00000000 0.00000100
65 0.15487200 -0.02709800 2.44212200 -0.07802400 0.05925800 0.12926400
66 0.00000100 0.00000200 0.99728300 0.00000000 0.00000000 0.00000000
67 0.00000000 0.00000200 1.00801400 0.00000000 0.00000000 0.00000000
68 2.06719000 3.60588200 2.07666800 2.85305200 -0.22672800 0.10415500
time 6
0 -0.00000100 7.45008900 -27.50902600 0.00000000 0.00000000 0.00003100
1 -0.00000200 0.00000000 0.00000000 1.57074300 -1.56713700 -1.57074300
2 4.25546800 -0.33518300 -0.00000200 0.00000000 0.00000000 -0.12484800
3 7.43124800 1.49647700 0.00000200 0.00000000 0.00000000 0.24545000
4 5.27847900 0.16554100 0.00000100 0.00000000 0.00000000 0.04851100
5 3.06561000 -12.65744000 1.08368000 2.12269900 1.26566500 -1.14230500
6 -6.21448200 -0.00000700 -0.00002700 -3.01283664 -0.77464414 1.69555433
7 11.94488200 0.00000000 0.00000100 -1.83140389 -0.44336570 1.24886299
8 10.62018100 0.00000200 0.00000000 0.29426684 0.12633576 2.82209405
9 -4.75110600 -0.69449400 0.83057700 0.08967600 -0.13098500 0.50038700
10 -1.68806800 0.00004600 -0.00003200 0.01671600 -0.01820000 0.69721500
11 -1.33614000 0.00005700 -0.00001200 0.02585500 -0.00498100 0.74325400
12 -4.82049400 -0.50946000 -0.22475900 -0.03127800 -0.08831000 0.88545800
13 -1.82699200 -0.00006400 0.00000600 -0.01893000 0.03570700 0.78653700
14 -1.43657300 0.00000600 0.00000200 -0.01017500 -0.07709500 0.03978900
15 -3.99235500 -0.89118800 -1.82790900 -0.35801500 0.10592100 1.28642800
16 -1.40591800 -0.00002500 -0.00000300 0.01423200 -0.02576700 0.37050100
17 -1.17535800 0.00012800 -0.00002000 0.02414000 0.06349200 0.26733300
18 -4.52675100 -0.69057500 -1.12074400 -0.15126300 -0.02698800 1.18332100
19 -1.74403800 0.00003300 -0.00000800 -0.00996000 -0.02781000 0.75209900
20 -1.36877100 0.00002500 0.00000200 0.00284900 0.05240600 -0.04949900
21 -1.87480000 -0.93512500 0.99917400 2.71530800 0.29281300 1.14742800
22 -1.62789245 0.15474811 0.01182445 -0.45142800 0.39058000 0.17554000
23 -1.59928500 0.00000400 0.00001600 0.05913200 -0.03395700 0.69875300
24 5.51181500 0.00000800 -0.00000100 1.60015648 0.00071863 3.14081800
25 0.19684700 -0.00000100 0.00000300 2.79340692 -0.00068162 -3.14143277
26 3.25266400 -11.66983600 -2.70820900 1.97586200 1.15990900 1.84280300
27 6.21448500 0.00000600 0.00002000 -0.88582821 0.67685633 -2.03383676
28 11.94488500 -0.00002900 -0.00019400 -1.11452317 -0.24941942 -0.76823152
29 10.62016600 0.00000200 0.00001000 -1.54832651 -0.59621798 -0.30717565
30 4.75115600 0.69437600 -0.83047300 -0.04117600 -0.18863600 0.60355500
31 1.68806500 -0.00002600 0.00000200 0.00262100 -0.02458500 1.33370800
32 1.33615100 -0.00005100 -0.00000900 0.01348100 -0.03626600 0.01365700
33 4.82051300 0.50934000 0.22486500 0.07478500 0.04514400 1.05758200
34 1.82699600 0.00006600 0.00000800 -0.00950200 0.03929900 1.03599800
35 1.43657700 -0.00001000 0.00000700 0.01323600 -0.00739800 -0.21985200
36 3.99235300 0.89108700 1.82799400 -0.32807200 -0.04594200 0.96946400
37 1.40591800 0.00002100 -0.00000700 -0.00225300 -0.02943200 0.95183300
38 1.17536900 -0.00013100 0.00000200 0.00681700 0.12305700 0.01097200
39 4.52675600 0.69046000 1.12084200 -0.13684300 0.00749600 1.02191100
40 1.74404100 -0.00003100 -0.00000200 -0.02263700 -0.01908800 1.28169000
41 1.36876300 -0.00003100 -0.00001700 -0.05058800 0.21380200 -0.54106800
42 2.00827778 1.42615200 -0.76232700 2.06590300 0.96199600 1.25446300
43 1.52344900 -0.00003400 -0.00000300 0.10241895 0.16806532 0.77425778
44 1.59928100 -0.00000200 0.00000900 0.07625000 0.03398500 0.40775500
45 5.51180600 -0.00000200 0.00000600 -0.23579700 0.00000500 0.00000700
46 0.19685000 0.00000300 -0.00000200 -0.34822500 0.00001500 -0.00000200
47 0.00000000 0.00000000 0.00000000 0.00000000 0.00000000 -1.57079600
48 -4.33264200 23.46635400 -4.02389200 0.00000000 0.00000000 -3.14156200
49 -4.26563881 46.55873156 -6.53542615 0.28414068 1.07490815 -3.06893896
50 -0.94675985 3.09898214 -4.38386026 1.39142500 0.76772300 -2.23544400
51 9.26444155 18.73908933 -11.60672089 0.00000000 0.00000000 0.00000000
52 -0.14427800 -0.01905500 0.77712700 0.00000000 0.00000000 0.00000000
53 -0.03040300 0.00000000 0.97060100 0.00000000 0.00000000 0.00000000
54 0.25083200 0.00887700 0.66073700 0.00000000 0.00000000 0.00000000
55 1.02156300 0.00000000 0.05472700 0.00000000 0.00000000 0.00000000
56 0.58919200 0.02250000 -0.43769800 0.00000000 0.00000000 0.00000000
57 0.06109300 -0.00834800 -1.09328200 0.00000000 0.00000000 0.00000000
58 -0.43080900 0.02895100 -0.96669100 0.00000000 0.00000000 0.00000000
59 -0.41086000 0.04068300 -1.16810300 0.00000000 0.00000000 0.00000000
60 -0.05530300 0.03252600 -2.02691900 0.00000000 0.00000000 0.00000000
61 0.28229000 -0.08289900 -1.34992400 0.00000000 0.00000000 0.00000000
62 0.99636700 -0.37373900 -0.37975200 0.00000000 0.00000000 0.00000000
63 5.29182100 -7.72295500 -27.65712900 0.81371100 -0.71543000 0.13770700
64 1.37038600 -0.02054000 1.25849300 0.00000200 0.00000000 0.00000100
65 0.15487200 -0.02709800 2.44212200 -0.07802400 0.05925800 0.12926400
66 0.00000100 0.00000200 0.99728300 0.00000000 0.00000000 0.00000000
67 0.00000000 0.00000200 1.00801400 0.00000000 0.00000000 0.00000000
68 2.06719000 3.60588200 2.07666800 2.85305200 -0.22672800 0.10415500
time 7
0 -0.00000100 7.45008900 -27.50902600 0.00000000 0.00000000 0.00003100
1 -0.00000200 0.00000000 0.00000000 1.57074300 -1.56713700 -1.57074300
2 4.25546800 -0.33518300 -0.00000200 0.00000000 0.00000000 -0.12484800
3 7.43124800 1.49647700 0.00000200 0.00000000 0.00000000 0.24545000
4 5.27847900 0.16554100 0.00000100 0.00000000 0.00000000 0.04851100
5 3.06561000 -12.65744000 1.08368000 2.12269900 1.26566500 -1.14230500
6 -6.21448200 -0.00000700 -0.00002700 -2.99085194 -0.75253595 1.66279798
7 11.94488200 0.00000000 0.00000100 -1.80636634 -0.43275016 1.18790949
8 10.62018100 0.00000200 0.00000000 0.23231863 0.14542989 2.80568924
9 -4.75110600 -0.69449400 0.83057700 0.08967600 -0.13098500 0.50038700
10 -1.68806800 0.00004600 -0.00003200 0.01671600 -0.01820000 0.69721500
11 -1.33614000 0.00005700 -0.00001200 0.02585500 -0.00498100 0.74325400
12 -4.82049400 -0.50946000 -0.22475900 -0.03127800 -0.08831000 0.88545800
13 -1.82699200 -0.00006400 0.00000600 -0.01893000 0.03570700 0.78653700
14 -1.43657300 0.00000600 0.00000200 -0.01017500 -0.07709500 0.03978900
15 -3.99235500 -0.89118800 -1.82790900 -0.35801500 0.10592100 1.28642800
16 -1.40591800 -0.00002500 -0.00000300 0.01423200 -0.02576700 0.37050100
17 -1.17535800 0.00012800 -0.00002000 0.02414000 0.06349200 0.26733300
18 -4.52675100 -0.69057500 -1.12074400 -0.15126300 -0.02698800 1.18332100
19 -1.74403800 0.00003300 -0.00000800 -0.00996000 -0.02781000 0.75209900
20 -1.36877100 0.00002500 0.00000200 0.00284900 0.05240600 -0.04949900
21 -1.87480000 -0.93512500 0.99917400 2.71530800 0.29281300 1.14742800
22 -1.62789245 0.15474811 0.01182445 -0.45142800 0.39058000 0.17554000
23 -1.59928500 0.00000400 0.00001600 0.05913200 -0.03395700 0.69875300
24 5.51181500 0.00000800 -0.00000100 1.60015648 0.00071863 3.14081800
25 0.19684700 -0.00000100 0.00000300 2.79340692 -0.00068162 -3.14143277
26 3.25266400 -11.66983600 -2.70820900 1.97586200 1.15990900 1.84280300
27 6.21448500 0.00000600 0.00002000 -0.90209814 0.65261965 -2.03929518
28 11.94488500 -0.00002900 -0.00019400 -1.12005399 -0.24439602 -0.74558006
29 10.62016600 0.00000200 0.00001000 -1.48841012 -0.60646420 -0.32657738
30 4.75115600 0.69437600 -0.83047300 -0.04117600 -0.18863600 0.60355500
31 1.68806500 -0.00002600 0.00000200 0.00262100 -0.02458500 1.33370800
32 1.33615100 -0.00005100 -0.00000900 0.01348100 -0.03626600 0.01365700
33 4.82051300 0.50934000 0.22486500 0.07478500 0.04514400 1.05758200
34 1.82699600 0.00006600 0.00000800 -0.00950200 0.03929900 1.03599800
35 1.43657700 -0.00001000 0.00000700 0.01323600 -0.00739800 -0.21985200
36 3.99235300 0.89108700 1.82799400 -0.32807200 -0.04594200 0.96946400
37 1.40591800 0.00002100 -0.00000700 -0.00225300 -0.02943200 0.95183300
38 1.17536900 -0.00013100 0.00000200 0.00681700 0.12305700 0.01097200
39 4.52675600 0.69046000 1.12084200 -0.13684300 0.00749600 1.02191100
40 1.74404100 -0.00003100 -0.00000200 -0.02263700 -0.01908800 1.28169000
41 1.36876300 -0.00003100 -0.00001700 -0.05058800 0.21380200 -0.54106800
42 2.00827778 1.42615200 -0.76232700 2.06590300 0.96199600 1.25446300
43 1.52344900 -0.00003400 -0.00000300 0.10241895 0.16806532 0.77425778
44 1.59928100 -0.00000200 0.00000900 0.07625000 0.03398500 0.40775500
45 5.51180600 -0.00000200 0.00000600 -0.23579700 0.00000500 0.00000700
46 0.19685000 0.00000300 -0.00000200 -0.34822500 0.00001500 -0.00000200
47 0.00000000 0.00000000 0.00000000 0.00000000 0.00000000 -1.57079600
48 -4.33264200 23.46635400 -4.02389200 0.00000000 0.00000000 -3.14156200
49 -4.43707703 46.84580876 -6.42650106 0.30437099 1.03573731 -3.02348860
50 -0.94675985 3.09898214 -4.38386026 1.39142500 0.76772300 -2.23544400
51 9.26444155 18.73908933 -11.60672089 0.00000000 0.00000000 0.00000000
52 -0.14427800 -0.01905500 0.77712700 0.00000000 0.00000000 0.00000000
53 -0.03040300 0.00000000 0.97060100 0.00000000 0.00000000 0.00000000
54 0.25083200 0.00887700 0.66073700 0.00000000 0.00000000 0.00000000
55 1.02156300 0.00000000 0.05472700 0.00000000 0.00000000 0.00000000
56 0.58919200 0.02250000 -0.43769800 0.00000000 0.00000000 0.00000000
57 0.06109300 -0.00834800 -1.09328200 0.00000000 0.00000000 0.00000000
58 -0.43080900 0.02895100 -0.96669100 0.00000000 0.00000000 0.00000000
59 -0.41086000 0.04068300 -1.16810300 0.00000000 0.00000000 0.00000000
60 -0.05530300 0.03252600 -2.02691900 0.00000000 0.00000000 0.00000000
61 0.28229000 -0.08289900 -1.34992400 0.00000000 0.00000000 0.00000000
62 0.99636700 -0.37373900 -0.37975200 0.00000000 0.00000000 0.00000000
63 5.29182100 -7.72295500 -27.65712900 0.81371100 -0.71543000 0.13770700
64 1.37038600 -0.02054000 1.25849300 0.00000200 0.00000000 0.00000100
65 0.15487200 -0.02709800 2.44212200 -0.07802400 0.05925800 0.12926400
66 0.00000100 0.00000200 0.99728300 0.00000000 0.00000000 0.00000000
67 0.00000000 0.00000200 1.00801400 0.00000000 0.00000000 0.00000000
68 2.06719000 3.60588200 2.07666800 2.85305200 -0.22672800 0.10415500
time 8
0 -0.00000100 7.45008900 -27.50902600 0.00000000 0.00000000 0.00003100
1 -0.00000200 0.00000000 0.00000000 1.57074300 -1.56713700 -1.57074300
2 4.25546800 -0.33518300 -0.00000200 0.00000000 0.00000000 -0.12484800
3 7.43124800 1.49647700 0.00000200 0.00000000 0.00000000 0.24545000
4 5.27847900 0.16554100 0.00000100 0.00000000 0.00000000 0.04851100
5 3.06561000 -12.65744000 1.08368000 2.12269900 1.26566500 -1.14230500
6 -6.21448200 -0.00000700 -0.00002700 -2.97832644 -0.73533597 1.64108045
7 11.94488200 0.00000000 0.00000100 -1.79129409 -0.42360584 1.15065909
8 10.62018100 0.00000200 0.00000000 0.16179567 0.12806857 2.78050123
9 -4.75110600 -0.69449400 0.83057700 0.08967600 -0.13098500 0.50038700
10 -1.68806800 0.00004600 -0.00003200 0.01671600 -0.01820000 0.69721500
11 -1.33614000 0.00005700 -0.00001200 0.02585500 -0.00498100 0.74325400
12 -4.82049400 -0.50946000 -0.22475900 -0.03127800 -0.08831000 0.88545800
13 -1.82699200 -0.00006400 0.00000600 -0.01893000 0.03570700 0.78653700
14 -1.43657300 0.00000600 0.00000200 -0.01017500 -0.07709500 0.03978900
15 -3.99235500 -0.89118800 -1.82790900 -0.35801500 0.10592100 1.28642800
16 -1.40591800 -0.00002500 -0.00000300 0.01423200 -0.02576700 0.37050100
17 -1.17535800 0.00012800 -0.00002000 0.02414000 0.06349200 0.26733300
18 -4.52675100 -0.69057500 -1.12074400 -0.15126300 -0.02698800 1.18332100
19 -1.74403800 0.00003300 -0.00000800 -0.00996000 -0.02781000 0.75209900
20 -1.36877100 0.00002500 0.00000200 0.00284900 0.05240600 -0.04949900
21 -1.87480000 -0.93512500 0.99917400 2.71530800 0.29281300 1.14742800
22 -1.62789245 0.15474811 0.01182445 -0.45142800 0.39058000 0.17554000
23 -1.59928500 0.00000400 0.00001600 0.05913200 -0.03395700 0.69875300
24 5.51181500 0.00000800 -0.00000100 1.60015648 0.00071863 3.14081800
25 0.19684700 -0.00000100 0.00000300 2.79340692 -0.00068162 -3.14143277
26 3.25266400 -11.66983600 -2.70820900 1.97586200 1.15990900 1.84280300
27 6.21448500 0.00000600 0.00002000 -0.92064269 0.62532802 -2.04786880
28 11.94488500 -0.00002900 -0.00019400 -1.12309029 -0.24253185 -0.73282748
29 10.62016600 0.00000200 0.00001000 -1.40644785 -0.62150497 -0.32466546
30 4.75115600 0.69437600 -0.83047300 -0.04117600 -0.18863600 0.60355500
31 1.68806500 -0.00002600 0.00000200 0.00262100 -0.02458500 1.33370800
32 1.33615100 -0.00005100 -0.00000900 0.01348100 -0.03626600 0.01365700
33 4.82051300 0.50934000 0.22486500 0.07478500 0.04514400 1.05758200
34 1.82699600 0.00006600 0.00000800 -0.00950200 0.03929900 1.03599800
35 1.43657700 -0.00001000 0.00000700 0.01323600 -0.00739800 -0.21985200
36 3.99235300 0.89108700 1.82799400 -0.32807200 -0.04594200 0.96946400
37 1.40591800 0.00002100 -0.00000700 -0.00225300 -0.02943200 0.95183300
38 1.17536900 -0.00013100 0.00000200 0.00681700 0.12305700 0.01097200
39 4.52675600 0.69046000 1.12084200 -0.13684300 0.00749600 1.02191100
40 1.74404100 -0.00003100 -0.00000200 -0.02263700 -0.01908800 1.28169000
41 1.36876300 -0.00003100 -0.00001700 -0.05058800 0.21380200 -0.54106800
42 2.00827778 1.42615200 -0.76232700 2.06590300 0.96199600 1.25446300
43 1.52344900 -0.00003400 -0.00000300 0.10241895 0.16806532 0.77425778
44 1.59928100 -0.00000200 0.00000900 0.07625000 0.03398500 0.40775500
45 5.51180600 -0.00000200 0.00000600 -0.23579700 0.00000500 0.00000700
46 0.19685000 0.00000300 -0.00000200 -0.34822500 0.00001500 -0.00000200
47 0.00000000 0.00000000 0.00000000 0.00000000 0.00000000 -1.57079600
48 -4.33264200 23.46635400 -4.02389200 0.00000000 0.00000000 -3.14156200
49 -4.53102061 47.05416315 -6.25159450 0.34049209 0.97350088 -2.97985354
50 -0.94675985 3.09898214 -4.38386026 1.39142500 0.76772300 -2.23544400
51 9.26444155 18.73908933 -11.60672089 0.00000000 0.00000000 0.00000000
52 -0.14427800 -0.01905500 0.77712700 0.00000000 0.00000000 0.00000000
53 -0.03040300 0.00000000 0.97060100 0.00000000 0.00000000 0.00000000
54 0.25083200 0.00887700 0.66073700 0.00000000 0.00000000 0.00000000
55 1.02156300 0.00000000 0.05472700 0.00000000 0.00000000 0.00000000
56 0.58919200 0.02250000 -0.43769800 0.00000000 0.00000000 0.00000000
57 0.06109300 -0.00834800 -1.09328200 0.00000000 0.00000000 0.00000000
58 -0.43080900 0.02895100 -0.96669100 0.00000000 0.00000000 0.00000000
59 -0.41086000 0.04068300 -1.16810300 0.00000000 0.00000000 0.00000000
60 -0.05530300 0.03252600 -2.02691900 0.00000000 0.00000000 0.00000000
61 0.28229000 -0.08289900 -1.34992400 0.00000000 0.00000000 0.00000000
62 0.99636700 -0.37373900 -0.37975200 0.00000000 0.00000000 0.00000000
63 5.29182100 -7.72295500 -27.65712900 0.81371100 -0.71543000 0.13770700
64 1.37038600 -0.02054000 1.25849300 0.00000200 0.00000000 0.00000100
65 0.15487200 -0.02709800 2.44212200 -0.07802400 0.05925800 0.12926400
66 0.00000100 0.00000200 0.99728300 0.00000000 0.00000000 0.00000000
67 0.00000000 0.00000200 1.00801400 0.00000000 0.00000000 0.00000000
68 2.06719000 3.60588200 2.07666800 2.85305200 -0.22672800 0.10415500
time 9
0 -0.00000100 7.45008900 -27.50902600 0.00000000 0.00000000 0.00003100
1 -0.00000200 0.00000000 0.00000000 1.57074300 -1.56713700 -1.57074300
2 4.25546800 -0.33518300 -0.00000200 0.00000000 0.00000000 -0.12484800
3 7.43124800 1.49647700 0.00000200 0.00000000 0.00000000 0.24545000
4 5.27847900 0.16554100 0.00000100 0.00000000 0.00000000 0.04851100
5 3.06561000 -12.65744000 1.08368000 2.12269900 1.26566500 -1.14230500
6 -6.21448200 -0.00000700 -0.00002700 -2.97441346 -0.72518935 1.63353162
7 11.94488200 0.00000000 0.00000100 -1.78913761 -0.41957173 1.14534851
8 10.62018100 0.00000200 0.00000000 0.11112380 0.07513736 2.77178005
9 -4.75110600 -0.69449400 0.83057700 0.08967600 -0.13098500 0.50038700
10 -1.68806800 0.00004600 -0.00003200 0.01671600 -0.01820000 0.69721500
11 -1.33614000 0.00005700 -0.00001200 0.02585500 -0.00498100 0.74325400
12 -4.82049400 -0.50946000 -0.22475900 -0.03127800 -0.08831000 0.88545800
13 -1.82699200 -0.00006400 0.00000600 -0.01893000 0.03570700 0.78653700
14 -1.43657300 0.00000600 0.00000200 -0.01017500 -0.07709500 0.03978900
15 -3.99235500 -0.89118800 -1.82790900 -0.35801500 0.10592100 1.28642800
16 -1.40591800 -0.00002500 -0.00000300 0.01423200 -0.02576700 0.37050100
17 -1.17535800 0.00012800 -0.00002000 0.02414000 0.06349200 0.26733300
18 -4.52675100 -0.69057500 -1.12074400 -0.15126300 -0.02698800 1.18332100
19 -1.74403800 0.00003300 -0.00000800 -0.00996000 -0.02781000 0.75209900
20 -1.36877100 0.00002500 0.00000200 0.00284900 0.05240600 -0.04949900
21 -1.87480000 -0.93512500 0.99917400 2.71530800 0.29281300 1.14742800
22 -1.62789245 0.15474811 0.01182445 -0.45142800 0.39058000 0.17554000
23 -1.59928500 0.00000400 0.00001600 0.05913200 -0.03395700 0.69875300
24 5.51181500 0.00000800 -0.00000100 1.60015648 0.00071863 3.14081800
25 0.19684700 -0.00000100 0.00000300 2.79340692 -0.00068162 -3.14143277
26 3.25266400 -11.66983600 -2.70820900 1.97586200 1.15990900 1.84280300
27 6.21448500 0.00000600 0.00002000 -0.93489559 0.59701200 -2.05808322
28 11.94488500 -0.00002900 -0.00019400 -1.12668740 -0.24025681 -0.71750902
29 10.62016600 0.00000200 0.00001000 -1.34551131 -0.64230105 -0.29649205
30 4.75115600 0.69437600 -0.83047300 -0.04117600 -0.18863600 0.60355500
31 1.68806500 -0.00002600 0.00000200 0.00262100 -0.02458500 1.33370800
32 1.33615100 -0.00005100 -0.00000900 0.01348100 -0.03626600 0.01365700
33 4.82051300 0.50934000 0.22486500 0.07478500 0.04514400 1.05758200
34 1.82699600 0.00006600 0.00000800 -0.00950200 0.03929900 1.03599800
35 1.43657700 -0.00001000 0.00000700 0.01323600 -0.00739800 -0.21985200
36 3.99235300 0.89108700 1.82799400 -0.32807200 -0.04594200 0.96946400
37 1.40591800 0.00002100 -0.00000700 -0.00225300 -0.02943200 0.95183300
38 1.17536900 -0.00013100 0.00000200 0.00681700 0.12305700 0.01097200
39 4.52675600 0.69046000 1.12084200 -0.13684300 0.00749600 1.02191100
40 1.74404100 -0.00003100 -0.00000200 -0.02263700 -0.01908800 1.28169000
41 1.36876300 -0.00003100 -0.00001700 -0.05058800 0.21380200 -0.54106800
42 2.00827778 1.42615200 -0.76232700 2.06590300 0.96199600 1.25446300
43 1.52344900 -0.00003400 -0.00000300 0.10241895 0.16806532 0.77425778
44 1.59928100 -0.00000200 0.00000900 0.07625000 0.03398500 0.40775500
45 5.51180600 -0.00000200 0.00000600 -0.23579700 0.00000500 0.00000700
46 0.19685000 0.00000300 -0.00000200 -0.34822500 0.00001500 -0.00000200
47 0.00000000 0.00000000 0.00000000 0.00000000 0.00000000 -1.57079600
48 -4.33264200 23.46635400 -4.02389200 0.00000000 0.00000000 -3.14156200
49 -4.52256736 47.17463123 -6.09709004 0.39699334 0.91617906 -2.93906050
50 -0.94675985 3.09898214 -4.38386026 1.39142500 0.76772300 -2.23544400
51 9.26444155 18.73908933 -11.60672089 0.00000000 0.00000000 0.00000000
52 -0.14427800 -0.01905500 0.77712700 0.00000000 0.00000000 0.00000000
53 -0.03040300 0.00000000 0.97060100 0.00000000 0.00000000 0.00000000
54 0.25083200 0.00887700 0.66073700 0.00000000 0.00000000 0.00000000
55 1.02156300 0.00000000 0.05472700 0.00000000 0.00000000 0.00000000
56 0.58919200 0.02250000 -0.43769800 0.00000000 0.00000000 0.00000000
57 0.06109300 -0.00834800 -1.09328200 0.00000000 0.00000000 0.00000000
58 -0.43080900 0.02895100 -0.96669100 0.00000000 0.00000000 0.00000000
59 -0.41086000 0.04068300 -1.16810300 0.00000000 0.00000000 0.00000000
60 -0.05530300 0.03252600 -2.02691900 0.00000000 0.00000000 0.00000000
61 0.28229000 -0.08289900 -1.34992400 0.00000000 0.00000000 0.00000000
62 0.99636700 -0.37373900 -0.37975200 0.00000000 0.00000000 0.00000000
63 5.29182100 -7.72295500 -27.65712900 0.81371100 -0.71543000 0.13770700
64 1.37038600 -0.02054000 1.25849300 0.00000200 0.00000000 0.00000100
65 0.15487200 -0.02709800 2.44212200 -0.07802400 0.05925800 0.12926400
66 0.00000100 0.00000200 0.99728300 0.00000000 0.00000000 0.00000000
67 0.00000000 0.00000200 1.00801400 0.00000000 0.00000000 0.00000000
68 2.06719000 3.60588200 2.07666800 2.85305200 -0.22672800 0.10415500
time 10
0 -0.00000100 7.45008900 -27.50902600 0.00000000 0.00000000 0.00003100
1 -0.00000200 0.00000000 0.00000000 1.57074300 -1.56713700 -1.57074300
2 4.25546800 -0.33518300 -0.00000200 0.00000000 0.00000000 -0.12484800
3 7.43124800 1.49647700 0.00000200 0.00000000 0.00000000 0.24545000
4 5.27847900 0.16554100 0.00000100 0.00000000 0.00000000 0.04851100
5 3.06561000 -12.65744000 1.08368000 2.12269900 1.26566500 -1.14230500
6 -6.21448200 -0.00000700 -0.00002700 -2.97839623 -0.72334687 1.64353828
7 11.94488200 0.00000000 0.00000100 -1.79426532 -0.42148966 1.15801921
8 10.62018100 0.00000200 0.00000000 0.09634946 0.03398921 2.78166893
9 -4.75110600 -0.69449400 0.83057700 0.08967600 -0.13098500 0.50038700
10 -1.68806800 0.00004600 -0.00003200 0.01671600 -0.01820000 0.69721500
11 -1.33614000 0.00005700 -0.00001200 0.02585500 -0.00498100 0.74325400
12 -4.82049400 -0.50946000 -0.22475900 -0.03127800 -0.08831000 0.88545800
13 -1.82699200 -0.00006400 0.00000600 -0.01893000 0.03570700 0.78653700
14 -1.43657300 0.00000600 0.00000200 -0.01017500 -0.07709500 0.03978900
15 -3.99235500 -0.89118800 -1.82790900 -0.35801500 0.10592100 1.28642800
16 -1.40591800 -0.00002500 -0.00000300 0.01423200 -0.02576700 0.37050100
17 -1.17535800 0.00012800 -0.00002000 0.02414000 0.06349200 0.26733300
18 -4.52675100 -0.69057500 -1.12074400 -0.15126300 -0.02698800 1.18332100
19 -1.74403800 0.00003300 -0.00000800 -0.00996000 -0.02781000 0.75209900
20 -1.36877100 0.00002500 0.00000200 0.00284900 0.05240600 -0.04949900
21 -1.87480000 -0.93512500 0.99917400 2.71530800 0.29281300 1.14742800
22 -1.62789245 0.15474811 0.01182334 -0.45142800 0.39058000 0.17554000
23 -1.59928500 0.00000400 0.00001600 0.05913200 -0.03395700 0.69875300
24 5.51181500 0.00000800 -0.00000100 1.60015648 0.00071863 3.14081800
25 0.19684700 -0.00000100 0.00000300 2.79340692 -0.00068162 -3.14143277
26 3.25266400 -11.66983600 -2.70820900 1.97586200 1.15990900 1.84280300
27 6.21448500 0.00000600 0.00002000 -0.93392277 0.57732944 -2.06812081
28 11.94488500 -0.00002900 -0.00019400 -1.13253325 -0.23425381 -0.69176318
29 10.62016600 0.00000200 0.00001000 -1.34131900 -0.65568840 -0.27103108
30 4.75115600 0.69437600 -0.83047300 -0.04117600 -0.18863600 0.60355500
31 1.68806500 -0.00002600 0.00000200 0.00262100 -0.02458500 1.33370800
32 1.33615100 -0.00005100 -0.00000900 0.01348100 -0.03626600 0.01365700
33 4.82051300 0.50934000 0.22486500 0.07478500 0.04514400 1.05758200
34 1.82699600 0.00006600 0.00000800 -0.00950200 0.03929900 1.03599800
35 1.43657700 -0.00001000 0.00000700 0.01323600 -0.00739800 -0.21985200
36 3.99235300 0.89108700 1.82799400 -0.32807200 -0.04594200 0.96946400
37 1.40591800 0.00002100 -0.00000700 -0.00225300 -0.02943200 0.95183300
38 1.17536900 -0.00013100 0.00000200 0.00681700 0.12305700 0.01097200
39 4.52675600 0.69046000 1.12084200 -0.13684300 0.00749600 1.02191100
40 1.74404100 -0.00003100 -0.00000200 -0.02263700 -0.01908800 1.28169000
41 1.36876300 -0.00003100 -0.00001700 -0.05058800 0.21380200 -0.54106800
42 2.00827778 1.42615145 -0.76232700 2.06590300 0.96199600 1.25446300
43 1.52344900 -0.00003400 -0.00000300 0.10241895 0.16806532 0.77425778
44 1.59928100 -0.00000200 0.00000900 0.07625000 0.03398500 0.40775500
45 5.51180600 -0.00000200 0.00000600 -0.23579700 0.00000500 0.00000700
46 0.19685000 0.00000300 -0.00000200 -0.34822500 0.00001500 -0.00000200
47 0.00000000 0.00000000 0.00000000 0.00000000 0.00000000 -1.57079600
48 -4.33264200 23.46635400 -4.02389200 0.00000000 0.00000000 -3.14156200
49 -4.35100864 47.21807472 -6.08502225 0.44207809 0.89447849 -2.91690835
50 -0.94676041 3.09898103 -4.38386026 1.39142500 0.76772300 -2.23544400
51 9.26444266 18.73908822 -11.60672089 0.00000000 0.00000000 0.00000000
52 -0.14427800 -0.01905500 0.77712700 0.00000000 0.00000000 0.00000000
53 -0.03040300 0.00000000 0.97060100 0.00000000 0.00000000 0.00000000
54 0.25083200 0.00887700 0.66073700 0.00000000 0.00000000 0.00000000
55 1.02156300 0.00000000 0.05472700 0.00000000 0.00000000 0.00000000
56 0.58919200 0.02250000 -0.43769800 0.00000000 0.00000000 0.00000000
57 0.06109300 -0.00834800 -1.09328200 0.00000000 0.00000000 0.00000000
58 -0.43080900 0.02895100 -0.96669100 0.00000000 0.00000000 0.00000000
59 -0.41086000 0.04068300 -1.16810300 0.00000000 0.00000000 0.00000000
60 -0.05530300 0.03252600 -2.02691900 0.00000000 0.00000000 0.00000000
61 0.28229000 -0.08289900 -1.34992400 0.00000000 0.00000000 0.00000000
62 0.99636700 -0.37373900 -0.37975200 0.00000000 0.00000000 0.00000000
63 5.29182100 -7.72295500 -27.65712900 0.81371100 -0.71543000 0.13770700
64 1.37038600 -0.02054000 1.25849300 0.00000200 0.00000000 0.00000100
65 0.15487200 -0.02709800 2.44212200 -0.07802400 0.05925800 0.12926400
66 0.00000100 0.00000200 0.99728300 0.00000000 0.00000000 0.00000000
67 0.00000000 0.00000200 1.00801400 0.00000000 0.00000000 0.00000000
68 2.06719000 3.60588200 2.07666800 2.85305200 -0.22672800 0.10415500
end
