version 1
nodes
0 "root" -1
1 "pelvis" 0
2 "spine_01" 1
3 "spine_02" 2
4 "spine_03" 3
5 "clavicle_r" 4
6 "upperarm_r" 5
7 "lowerarm_r" 6
8 "hand_r" 7
9 "index_01_r" 8
10 "index_02_r" 9
11 "index_03_r" 10
12 "middle_01_r" 8
13 "middle_02_r" 12
14 "middle_03_r" 13
15 "pinky_01_r" 8
16 "pinky_02_r" 15
17 "pinky_03_r" 16
18 "ring_01_r" 8
19 "ring_02_r" 18
20 "ring_03_r" 19
21 "thumb_01_r" 8
22 "thumb_02_r" 21
23 "thumb_03_r" 22
24 "lowerarm_twist_01_r" 7
25 "upperarm_twist_01_r" 6
26 "clavicle_l" 4
27 "upperarm_l" 26
28 "lowerarm_l" 27
29 "hand_l" 28
30 "index_01_l" 29
31 "index_02_l" 30
32 "index_03_l" 31
33 "middle_01_l" 29
34 "middle_02_l" 33
35 "middle_03_l" 34
36 "pinky_01_l" 29
37 "pinky_02_l" 36
38 "pinky_03_l" 37
39 "ring_01_l" 29
40 "ring_02_l" 39
41 "ring_03_l" 40
42 "thumb_01_l" 29
43 "thumb_02_l" 42
44 "thumb_03_l" 43
45 "lowerarm_twist_01_l" 28
46 "upperarm_twist_01_l" 27
47 "cam_driver" -1
48 "BaseRoot" -1
49 "Base" 48
50 "rhand_ikTarget" 49
51 "Trigger" 49
52 "Mag" 49
53 "Bullets" 52
54 "Lock" 49
55 "Bolt" 49
56 "lhand_ikTarget" 49
end
skeleton
time 0
0 -0.00000100 8.45008800 -27.50902600 0.00000000 0.00000000 0.00003100
1 -0.00000200 0.00000000 0.00000000 1.57074300 -1.56713700 -1.57074300
2 4.25546800 -0.33518300 -0.00000200 0.00000000 0.00000000 -0.12484800
3 7.43124800 1.49647700 0.00000200 0.00000000 0.00000000 0.24545000
4 5.27847900 0.16554100 0.00000100 0.00000000 0.00000000 0.04851100
5 4.25395700 -4.00867100 -2.11487300 1.97586400 1.15990900 -1.29878600
6 -6.21448200 -0.00000700 -0.00002700 -3.10586192 -0.60500449 2.09403582
7 11.94488200 0.00000000 0.00000100 -0.48275350 -0.32857539 1.93074058
8 10.62018100 0.00000200 0.00000000 0.72575470 0.01192064 2.29982681
9 -4.75110600 -0.69449400 0.83057700 -0.13822700 -0.15282100 0.18761000
10 -1.68806800 0.00004600 -0.00003200 0.02141900 -0.01231500 0.38900200
11 -1.33614000 0.00005700 -0.00001200 0.02584200 0.00517300 0.35617200
12 -4.82049400 -0.50946000 -0.22475900 -0.34140000 -0.06545200 1.04871000
13 -1.82699200 -0.00006400 0.00000600 0.01748100 0.03646500 1.72004300
14 -1.43657300 0.00000600 0.00000200 -0.02382900 -0.07399300 0.22023700
15 -3.99235500 -0.89118800 -1.82790900 -0.59999900 0.19887300 1.32587600
16 -1.40591800 -0.00002500 -0.00000300 -0.01642200 -0.02447400 1.46410200
17 -1.17535800 0.00012800 -0.00002000 0.02747700 0.06211700 0.32120800
18 -4.52675100 -0.69057500 -1.12074400 -0.42612300 0.11490200 1.26431800
19 -1.74403800 0.00003300 -0.00000800 -0.02836300 -0.00827500 1.69883200
20 -1.36877100 0.00002500 0.00000200 0.01196900 0.05106200 0.12629600
21 -2.03839800 -0.89278700 0.93250400 2.31093700 0.31633100 0.79560400
22 -1.62789300 0.15474800 0.01182500 -0.13461700 0.15578500 0.35407600
23 -1.59928500 0.00000400 0.00001600 0.02557400 -0.03449400 0.91320200
24 5.51181500 0.00000800 -0.00000100 2.10197241 -0.00682816 3.13883368
25 0.19684700 -0.00000100 0.00000300 2.79340699 -0.00009091 -3.14155144
26 2.53848600 -13.69475700 -1.63169900 1.97586200 1.15990900 1.84280300
27 6.21448500 0.00000600 0.00002000 -0.55212671 0.54435065 -2.14161928
28 11.94488500 -0.00002900 -0.00019400 -0.31756198 -0.28424608 -0.93108702
29 10.62016600 0.00000200 0.00001000 -1.84105680 -0.68053102 0.18539829
30 4.75115600 0.69437600 -0.83047300 -0.15830200 -0.11329300 1.15258400
31 1.68806500 -0.00002600 0.00000200 -0.00137900 -0.02473200 1.49459700
32 1.33615100 -0.00005100 -0.00000900 -0.00671400 -0.03810400 0.54546200
33 4.82051300 0.50934000 0.22486500 -0.20990300 0.06730400 1.50415200
34 1.82699600 0.00006600 0.00000800 0.00444000 0.04027000 1.38375700
35 1.43657700 -0.00001000 0.00000700 0.00898400 -0.01220700 0.20516200
36 3.99235300 0.89108700 1.82799400 -0.34236700 0.17987500 0.98690000
37 1.40591800 0.00002100 -0.00000700 -0.02343900 -0.01796500 1.79280300
38 1.17536900 -0.00013100 0.00000200 0.03068200 0.11936300 0.20717600
39 4.52675600 0.69046000 1.12084200 -0.18036100 0.18528700 1.43657100
40 1.74404100 -0.00003100 -0.00000200 -0.02653400 -0.01295000 1.52898100
41 1.36876300 -0.00003100 -0.00001700 0.03461200 0.15489300 0.03533500
42 1.87485500 0.93508100 -0.99913000 2.65257500 0.29448800 1.07979500
43 1.65859200 -0.32464400 -0.11923700 0.15923200 0.10877700 0.63043100
44 1.57424700 -0.10445100 0.03324200 0.08348700 0.00112200 0.81252200
45 5.51180600 -0.00000200 0.00000600 -0.23579700 0.00000500 0.00000700
46 0.19685000 0.00000300 -0.00000200 -0.34822500 0.00001500 -0.00000200
47 0.00000000 1.00000000 0.00000000 0.00000000 0.00000000 -1.57079600
48 -3.18096000 33.22035600 -3.27546900 0.00000000 0.00000000 -3.14156200
49 0.17595677 48.12247036 -0.06656981 0.06364476 -0.00068956 -1.57050489
50 10.32273500 1.03200500 -4.47404000 0.49059400 1.12092400 1.98870900
51 3.73549700 0.00125700 -1.32376300 0.00000000 0.00000000 0.00000000
52 -0.00066900 -0.00054600 -1.33911600 0.00000000 0.00000000 0.00000000
53 0.04766100 0.00000000 0.67144200 0.00000000 0.00000000 0.00000000
54 4.80553000 0.89926700 -0.32590700 0.00000000 0.00000000 0.00000000
55 -1.55556500 -0.00054600 0.65577800 0.00000000 0.00000000 0.00000000
56 -4.22386600 -1.63767800 -4.26925600 2.89813300 -0.03107300 -1.70865400
time 1
0 -0.00000100 8.45008800 -27.50902600 0.00000000 0.00000000 0.00003100
1 -0.00000200 0.00000000 0.00000000 1.57074300 -1.56713700 -1.57074300
2 4.25546800 -0.33518300 -0.00000200 0.00000000 0.00000000 -0.12484800
3 7.43124800 1.49647700 0.00000200 0.00000000 0.00000000 0.24545000
4 5.27847900 0.16554100 0.00000100 0.00000000 0.00000000 0.04851100
5 4.13781600 -4.18743500 -1.94909500 1.97586400 1.15990900 -1.29878600
6 -6.21448200 -0.00000700 -0.00002700 -3.10965662 -0.61299784 2.09059354
7 11.94488200 0.00000000 0.00000100 -0.48393779 -0.32810834 1.93430374
8 10.62018100 0.00000200 0.00000000 0.73101680 0.02212320 2.32471436
9 -4.75110600 -0.69449400 0.83057700 -0.13822700 -0.15282100 0.18761000
10 -1.68806800 0.00004600 -0.00003200 0.02141900 -0.01231500 0.38900200
11 -1.33614000 0.00005700 -0.00001200 0.02584200 0.00517300 0.35617200
12 -4.82049400 -0.50946000 -0.22475900 -0.34140000 -0.06545200 1.04871000
13 -1.82699200 -0.00006400 0.00000600 0.01748100 0.03646500 1.72004300
14 -1.43657300 0.00000600 0.00000200 -0.02382900 -0.07399300 0.22023700
15 -3.99235500 -0.89118800 -1.82790900 -0.59999900 0.19887300 1.32587600
16 -1.40591800 -0.00002500 -0.00000300 -0.01642200 -0.02447400 1.46410200
17 -1.17535800 0.00012800 -0.00002000 0.02747700 0.06211700 0.32120800
18 -4.52675100 -0.69057500 -1.12074400 -0.42612300 0.11490200 1.26431800
19 -1.74403800 0.00003300 -0.00000800 -0.02836300 -0.00827500 1.69883200
20 -1.36877100 0.00002500 0.00000200 0.01196900 0.05106200 0.12629600
21 -2.03839800 -0.89278700 0.93250400 2.31093700 0.31633100 0.79560400
22 -1.62789300 0.15474800 0.01182500 -0.13461700 0.15578500 0.35407600
23 -1.59928500 0.00000400 0.00001600 0.02557400 -0.03449400 0.91320200
24 5.51181500 0.00000800 -0.00000100 2.10197241 -0.00682816 3.13883368
25 0.19684700 -0.00000100 0.00000300 2.79340699 -0.00009091 -3.14155144
26 2.53848600 -13.69475700 -1.63169900 1.97586200 1.15990900 1.84280300
27 6.21448500 0.00000600 0.00002000 -0.56965226 0.54475646 -2.13383479
28 11.94488500 -0.00002900 -0.00019400 -0.29873642 -0.28517624 -0.93582454
29 10.62016600 0.00000200 0.00001000 -1.83577978 -0.68349427 0.17367436
30 4.75115600 0.69437600 -0.83047300 -0.15830200 -0.11329300 1.15258400
31 1.68806500 -0.00002600 0.00000200 -0.00137900 -0.02473200 1.49459700
32 1.33615100 -0.00005100 -0.00000900 -0.00671400 -0.03810400 0.54546200
33 4.82051300 0.50934000 0.22486500 -0.20990300 0.06730400 1.50415200
34 1.82699600 0.00006600 0.00000800 0.00444000 0.04027000 1.38375700
35 1.43657700 -0.00001000 0.00000700 0.00898400 -0.01220700 0.20516200
36 3.99235300 0.89108700 1.82799400 -0.34236700 0.17987500 0.98690000
37 1.40591800 0.00002100 -0.00000700 -0.02343900 -0.01796500 1.79280300
38 1.17536900 -0.00013100 0.00000200 0.03068200 0.11936300 0.20717600
39 4.52675600 0.69046000 1.12084200 -0.18036100 0.18528700 1.43657100
40 1.74404100 -0.00003100 -0.00000200 -0.02653400 -0.01295000 1.52898100
41 1.36876300 -0.00003100 -0.00001700 0.03461200 0.15489300 0.03533500
42 1.87485500 0.93508100 -0.99913000 2.65257500 0.29448800 1.07979500
43 1.65859200 -0.32464400 -0.11923700 0.15923200 0.10877700 0.63043100
44 1.57424700 -0.10445100 0.03324200 0.08348700 0.00112200 0.81252200
45 5.51180600 -0.00000200 0.00000600 -0.23579700 0.00000500 0.00000700
46 0.19685000 0.00000300 -0.00000200 -0.34822500 0.00001500 -0.00000200
47 0.00000000 1.00000000 0.00000000 0.00000000 0.00000000 -1.57079600
48 -3.18096000 33.22035600 -3.27546900 0.00000000 0.00000000 -3.14156200
49 -0.01686811 48.17923736 -0.04999883 0.07151831 0.01713368 -1.54954359
50 10.32273500 1.03200500 -4.47404000 0.49059400 1.12092400 1.98870900
51 3.73549700 0.00125700 -1.32376300 0.00000000 0.00000000 0.00000000
52 -0.00066900 -0.00054600 -1.33911600 0.00000000 0.00000000 0.00000000
53 0.04766100 0.00000000 0.67144200 0.00000000 0.00000000 0.00000000
54 4.80553000 0.89926700 -0.32590700 0.00000000 0.00000000 0.00000000
55 -1.55556500 -0.00054600 0.65577800 0.00000000 0.00000000 0.00000000
56 -4.22386600 -1.63767800 -4.26925600 2.89813300 -0.03107300 -1.70865400
time 2
0 -0.00000100 8.45008800 -27.50902600 0.00000000 0.00000000 0.00003100
1 -0.00000200 0.00000000 0.00000000 1.57074300 -1.56713700 -1.57074300
2 4.25546800 -0.33518300 -0.00000200 0.00000000 0.00000000 -0.12484800
3 7.43124800 1.49647700 0.00000200 0.00000000 0.00000000 0.24545000
4 5.27847900 0.16554100 0.00000100 0.00000000 0.00000000 0.04851100
5 3.81672000 -4.68166500 -1.49077400 1.97586400 1.15990900 -1.29878600
6 -6.21448200 -0.00000700 -0.00002700 -3.11423740 -0.63407867 2.07785030
7 11.94488200 0.00000000 0.00000100 -0.48605612 -0.32714707 1.94088728
8 10.62018100 0.00000200 0.00000000 0.75226993 0.04301615 2.39541025
9 -4.75110600 -0.69449400 0.83057700 -0.13822700 -0.15282100 0.18761000
10 -1.68806800 0.00004600 -0.00003200 0.02141900 -0.01231500 0.38900200
11 -1.33614000 0.00005700 -0.00001200 0.02584200 0.00517300 0.35617200
12 -4.82049400 -0.50946000 -0.22475900 -0.34140000 -0.06545200 1.04871000
13 -1.82699200 -0.00006400 0.00000600 0.01748100 0.03646500 1.72004300
14 -1.43657300 0.00000600 0.00000200 -0.02382900 -0.07399300 0.22023700
15 -3.99235500 -0.89118800 -1.82790900 -0.59999900 0.19887300 1.32587600
16 -1.40591800 -0.00002500 -0.00000300 -0.01642200 -0.02447400 1.46410200
17 -1.17535800 0.00012800 -0.00002000 0.02747700 0.06211700 0.32120800
18 -4.52675100 -0.69057500 -1.12074400 -0.42612300 0.11490200 1.26431800
19 -1.74403800 0.00003300 -0.00000800 -0.02836300 -0.00827500 1.69883200
20 -1.36877100 0.00002500 0.00000200 0.01196900 0.05106200 0.12629600
21 -2.03839800 -0.89278700 0.93250400 2.31093700 0.31633100 0.79560400
22 -1.62789300 0.15474800 0.01182500 -0.13461700 0.15578500 0.35407600
23 -1.59928500 0.00000400 0.00001600 0.02557400 -0.03449400 0.91320200
24 5.51181500 0.00000800 -0.00000100 2.10197241 -0.00682816 3.13883368
25 0.19684700 -0.00000100 0.00000300 2.79340699 -0.00009091 -3.14155144
26 2.53848600 -13.69475700 -1.63169900 1.97586200 1.15990900 1.84280300
27 6.21448500 0.00000600 0.00002000 -0.61819587 0.54647591 -2.11413087
28 11.94488500 -0.00002900 -0.00019400 -0.24559527 -0.28783441 -0.94943636
29 10.62016600 0.00000200 0.00001000 -1.82817468 -0.69384227 0.14504204
30 4.75115600 0.69437600 -0.83047300 -0.15830200 -0.11329300 1.15258400
31 1.68806500 -0.00002600 0.00000200 -0.00137900 -0.02473200 1.49459700
32 1.33615100 -0.00005100 -0.00000900 -0.00671400 -0.03810400 0.54546200
33 4.82051300 0.50934000 0.22486500 -0.20990300 0.06730400 1.50415200
34 1.82699600 0.00006600 0.00000800 0.00444000 0.04027000 1.38375700
35 1.43657700 -0.00001000 0.00000700 0.00898400 -0.01220700 0.20516200
36 3.99235300 0.89108700 1.82799400 -0.34236700 0.17987500 0.98690000
37 1.40591800 0.00002100 -0.00000700 -0.02343900 -0.01796500 1.79280300
38 1.17536900 -0.00013100 0.00000200 0.03068200 0.11936300 0.20717600
39 4.52675600 0.69046000 1.12084200 -0.18036100 0.18528700 1.43657100
40 1.74404100 -0.00003100 -0.00000200 -0.02653400 -0.01295000 1.52898100
41 1.36876300 -0.00003100 -0.00001700 0.03461200 0.15489300 0.03533500
42 1.87485500 0.93508100 -0.99913000 2.65257500 0.29448800 1.07979500
43 1.65859200 -0.32464400 -0.11923700 0.15923200 0.10877700 0.63043100
44 1.57424700 -0.10445100 0.03324200 0.08348700 0.00112200 0.81252200
45 5.51180600 -0.00000200 0.00000600 -0.23579700 0.00000500 0.00000700
46 0.19685000 0.00000300 -0.00000200 -0.34822500 0.00001500 -0.00000200
47 0.00000000 1.00000000 0.00000000 0.00000000 0.00000000 -1.57079600
48 -3.18096000 33.22035600 -3.27546900 0.00000000 0.00000000 -3.14156200
49 -0.54191499 48.32563436 -0.00866109 0.09819494 0.06334196 -1.49021169
50 10.32273500 1.03200500 -4.47404000 0.49059400 1.12092400 1.98870900
51 3.73549700 0.00125700 -1.32376300 0.00000000 0.00000000 0.00000000
52 -0.00066900 -0.00054600 -1.33911600 0.00000000 0.00000000 0.00000000
53 0.04766100 0.00000000 0.67144200 0.00000000 0.00000000 0.00000000
54 4.80553000 0.89926700 -0.32590700 0.00000000 0.00000000 0.00000000
55 -1.55556500 -0.00054600 0.65577800 0.00000000 0.00000000 0.00000000
56 -4.22386600 -1.63767800 -4.26925600 2.89813300 -0.03107300 -1.70865400
time 3
0 -0.00000100 8.45008800 -27.50902600 0.00000000 0.00000000 0.00003100
1 -0.00000200 0.00000000 0.00000000 1.57074300 -1.56713700 -1.57074300
2 4.25546800 -0.33518300 -0.00000200 0.00000000 0.00000000 -0.12484800
3 7.43124800 1.49647700 0.00000200 0.00000000 0.00000000 0.24545000
4 5.27847900 0.16554100 0.00000100 0.00000000 0.00000000 0.04851100
5 3.33166000 -5.42826900 -0.79841400 1.97586400 1.15990900 -1.29878600
6 -6.21448200 -0.00000700 -0.00002700 -3.10846991 -0.66269889 2.04739044
7 11.94488200 0.00000000 0.00000100 -0.48641364 -0.32681121 1.94203620
8 10.62018100 0.00000200 0.00000000 0.79005664 0.06011456 2.50238425
9 -4.75110600 -0.69449400 0.83057700 -0.13822700 -0.15282100 0.18761000
10 -1.68806800 0.00004600 -0.00003200 0.02141900 -0.01231500 0.38900200
11 -1.33614000 0.00005700 -0.00001200 0.02584200 0.00517300 0.35617200
12 -4.82049400 -0.50946000 -0.22475900 -0.34140000 -0.06545200 1.04871000
13 -1.82699200 -0.00006400 0.00000600 0.01748100 0.03646500 1.72004300
14 -1.43657300 0.00000600 0.00000200 -0.02382900 -0.07399300 0.22023700
15 -3.99235500 -0.89118800 -1.82790900 -0.59999900 0.19887300 1.32587600
16 -1.40591800 -0.00002500 -0.00000300 -0.01642200 -0.02447400 1.46410200
17 -1.17535800 0.00012800 -0.00002000 0.02747700 0.06211700 0.32120800
18 -4.52675100 -0.69057500 -1.12074400 -0.42612300 0.11490200 1.26431800
19 -1.74403800 0.00003300 -0.00000800 -0.02836300 -0.00827500 1.69883200
20 -1.36877100 0.00002500 0.00000200 0.01196900 0.05106200 0.12629600
21 -2.03839800 -0.89278700 0.93250400 2.31093700 0.31633100 0.79560400
22 -1.62789300 0.15474800 0.01182500 -0.13461700 0.15578500 0.35407600
23 -1.59928500 0.00000400 0.00001600 0.02557400 -0.03449400 0.91320200
24 5.51181500 0.00000800 -0.00000100 2.10197241 -0.00682816 3.13883368
25 0.19684700 -0.00000100 0.00000300 2.79340699 -0.00009091 -3.14155144
26 2.53848600 -13.69475700 -1.63169900 1.97586200 1.15990900 1.84280300
27 6.21448500 0.00000600 0.00002000 -0.69509435 0.55032853 -2.08749216
28 11.94488500 -0.00002900 -0.00019400 -0.16184222 -0.29227011 -0.97263183
29 10.62016600 0.00000200 0.00001000 -1.82119041 -0.70804057 0.10712790
30 4.75115600 0.69437600 -0.83047300 -0.15830200 -0.11329300 1.15258400
31 1.68806500 -0.00002600 0.00000200 -0.00137900 -0.02473200 1.49459700
32 1.33615100 -0.00005100 -0.00000900 -0.00671400 -0.03810400 0.54546200
33 4.82051300 0.50934000 0.22486500 -0.20990300 0.06730400 1.50415200
34 1.82699600 0.00006600 0.00000800 0.00444000 0.04027000 1.38375700
35 1.43657700 -0.00001000 0.00000700 0.00898400 -0.01220700 0.20516200
36 3.99235300 0.89108700 1.82799400 -0.34236700 0.17987500 0.98690000
37 1.40591800 0.00002100 -0.00000700 -0.02343900 -0.01796500 1.79280300
38 1.17536900 -0.00013100 0.00000200 0.03068200 0.11936300 0.20717600
39 4.52675600 0.69046000 1.12084200 -0.18036100 0.18528700 1.43657100
40 1.74404100 -0.00003100 -0.00000200 -0.02653400 -0.01295000 1.52898100
41 1.36876300 -0.00003100 -0.00001700 0.03461200 0.15489300 0.03533500
42 1.87485500 0.93508100 -0.99913000 2.65257500 0.29448800 1.07979500
43 1.65859200 -0.32464400 -0.11923700 0.15923200 0.10877700 0.63043100
44 1.57424700 -0.10445100 0.03324200 0.08348700 0.00112200 0.81252200
45 5.51180600 -0.00000200 0.00000600 -0.23579700 0.00000500 0.00000700
46 0.19685000 0.00000300 -0.00000200 -0.34822500 0.00001500 -0.00000200
47 0.00000000 1.00000000 0.00000000 0.00000000 0.00000000 -1.57079600
48 -3.18096000 33.22035600 -3.27546900 0.00000000 0.00000000 -3.14156200
49 -1.31937414 48.52581436 0.04702025 0.14213316 0.12622116 -1.39719739
50 10.32273500 1.03200500 -4.47404000 0.49059400 1.12092400 1.98870900
51 3.73549700 0.00125700 -1.32376300 0.00000000 0.00000000 0.00000000
52 -0.00066900 -0.00054600 -1.33911600 0.00000000 0.00000000 0.00000000
53 0.04766100 0.00000000 0.67144200 0.00000000 0.00000000 0.00000000
54 4.80553000 0.89926700 -0.32590700 0.00000000 0.00000000 0.00000000
55 -1.55556500 -0.00054600 0.65577800 0.00000000 0.00000000 0.00000000
56 -4.22386600 -1.63767800 -4.26925600 2.89813300 -0.03107300 -1.70865400
time 4
0 -0.00000100 8.45008800 -27.50902600 0.00000000 0.00000000 0.00003100
1 -0.00000200 0.00000000 0.00000000 1.57074300 -1.56713700 -1.57074300
2 4.25546800 -0.33518300 -0.00000200 0.00000000 0.00000000 -0.12484800
3 7.43124800 1.49647700 0.00000200 0.00000000 0.00000000 0.24545000
4 5.27847900 0.16554100 0.00000100 0.00000000 0.00000000 0.04851100
5 2.72362800 -6.36415300 0.06947300 1.97586400 1.15990900 -1.29878600
6 -6.21448200 -0.00000700 -0.00002700 -3.07951865 -0.69369745 1.98776773
7 11.94488200 0.00000000 0.00000100 -0.48281468 -0.32793534 1.93105275
8 10.62018100 0.00000200 0.00000000 0.84121289 0.05785417 2.63103732
9 -4.75110600 -0.69449400 0.83057700 -0.13822700 -0.15282100 0.18761000
10 -1.68806800 0.00004600 -0.00003200 0.02141900 -0.01231500 0.38900200
11 -1.33614000 0.00005700 -0.00001200 0.02584200 0.00517300 0.35617200
12 -4.82049400 -0.50946000 -0.22475900 -0.34140000 -0.06545200 1.04871000
13 -1.82699200 -0.00006400 0.00000600 0.01748100 0.03646500 1.72004300
14 -1.43657300 0.00000600 0.00000200 -0.02382900 -0.07399300 0.22023700
15 -3.99235500 -0.89118800 -1.82790900 -0.59999900 0.19887300 1.32587600
16 -1.40591800 -0.00002500 -0.00000300 -0.01642200 -0.02447400 1.46410200
17 -1.17535800 0.00012800 -0.00002000 0.02747700 0.06211700 0.32120800
18 -4.52675100 -0.69057500 -1.12074400 -0.42612300 0.11490200 1.26431800
19 -1.74403800 0.00003300 -0.00000800 -0.02836300 -0.00827500 1.69883200
20 -1.36877100 0.00002500 0.00000200 0.01196900 0.05106200 0.12629600
21 -2.03839800 -0.89278700 0.93250400 2.31093700 0.31633100 0.79560400
22 -1.62789300 0.15474800 0.01182500 -0.13461700 0.15578500 0.35407600
23 -1.59928500 0.00000400 0.00001600 0.02557400 -0.03449400 0.91320200
24 5.51181500 0.00000800 -0.00000100 2.10197241 -0.00682816 3.13883368
25 0.19684700 -0.00000100 0.00000300 2.79340699 -0.00009091 -3.14155144
26 2.53848600 -13.69475700 -1.63169900 1.97586200 1.15990900 1.84280300
27 6.21448500 0.00000600 0.00002000 -0.79733956 0.55733950 -2.05968785
28 11.94488500 -0.00002900 -0.00019400 -0.05093077 -0.29843034 -1.00606199
29 10.62016600 0.00000200 0.00001000 -1.82021471 -0.72204218 0.06914595
30 4.75115600 0.69437600 -0.83047300 -0.15830200 -0.11329300 1.15258400
31 1.68806500 -0.00002600 0.00000200 -0.00137900 -0.02473200 1.49459700
32 1.33615100 -0.00005100 -0.00000900 -0.00671400 -0.03810400 0.54546200
33 4.82051300 0.50934000 0.22486500 -0.20990300 0.06730400 1.50415200
34 1.82699600 0.00006600 0.00000800 0.00444000 0.04027000 1.38375700
35 1.43657700 -0.00001000 0.00000700 0.00898400 -0.01220700 0.20516200
36 3.99235300 0.89108700 1.82799400 -0.34236700 0.17987500 0.98690000
37 1.40591800 0.00002100 -0.00000700 -0.02343900 -0.01796500 1.79280300
38 1.17536900 -0.00013100 0.00000200 0.03068200 0.11936300 0.20717600
39 4.52675600 0.69046000 1.12084200 -0.18036100 0.18528700 1.43657100
40 1.74404100 -0.00003100 -0.00000200 -0.02653400 -0.01295000 1.52898100
41 1.36876300 -0.00003100 -0.00001700 0.03461200 0.15489300 0.03533500
42 1.87485500 0.93508100 -0.99913000 2.65257500 0.29448800 1.07979500
43 1.65859200 -0.32464400 -0.11923700 0.15923200 0.10877700 0.63043100
44 1.57424700 -0.10445100 0.03324200 0.08348700 0.00112200 0.81252200
45 5.51180600 -0.00000200 0.00000600 -0.23579700 0.00000500 0.00000700
46 0.19685000 0.00000300 -0.00000200 -0.34822500 0.00001500 -0.00000200
47 0.00000000 1.00000000 0.00000000 0.00000000 0.00000000 -1.57079600
48 -3.18096000 33.22035600 -3.27546900 0.00000000 0.00000000 -3.14156200
49 -2.26987114 48.74391936 0.10699281 0.20083761 0.19301082 -1.27541193
50 10.32273500 1.03200500 -4.47404000 0.49059400 1.12092400 1.98870900
51 3.73549700 0.00125700 -1.32376300 0.00000000 0.00000000 0.00000000
52 -0.00066900 -0.00054600 -1.33911600 0.00000000 0.00000000 0.00000000
53 0.04766100 0.00000000 0.67144200 0.00000000 0.00000000 0.00000000
54 4.80553000 0.89926700 -0.32590700 0.00000000 0.00000000 0.00000000
55 -1.55556500 -0.00054600 0.65577800 0.00000000 0.00000000 0.00000000
56 -4.22386600 -1.63767800 -4.26925600 2.89813300 -0.03107300 -1.70865400
time 5
0 -0.00000100 8.45008800 -27.50902600 0.00000000 0.00000000 0.00003100
1 -0.00000200 0.00000000 0.00000000 1.57074300 -1.56713700 -1.57074300
2 4.25546800 -0.33518300 -0.00000200 0.00000000 0.00000000 -0.12484800
3 7.43124800 1.49647700 0.00000200 0.00000000 0.00000000 0.24545000
4 5.27847900 0.16554100 0.00000100 0.00000000 0.00000000 0.04851100
5 2.03361400 -7.42622400 1.05437800 1.97586400 1.15990900 -1.29878600
6 -6.21448200 -0.00000700 -0.00002700 -3.02059976 -0.72089340 1.89112301
7 11.94488200 0.00000000 0.00000100 -0.47531401 -0.33037910 1.90771356
8 10.62018100 0.00000200 0.00000000 0.89572817 0.02658607 2.75850642
9 -4.75110600 -0.69449400 0.83057700 -0.13822700 -0.15282100 0.18761000
10 -1.68806800 0.00004600 -0.00003200 0.02141900 -0.01231500 0.38900200
11 -1.33614000 0.00005700 -0.00001200 0.02584200 0.00517300 0.35617200
12 -4.82049400 -0.50946000 -0.22475900 -0.34140000 -0.06545200 1.04871000
13 -1.82699200 -0.00006400 0.00000600 0.01748100 0.03646500 1.72004300
14 -1.43657300 0.00000600 0.00000200 -0.02382900 -0.07399300 0.22023700
15 -3.99235500 -0.89118800 -1.82790900 -0.59999900 0.19887300 1.32587600
16 -1.40591800 -0.00002500 -0.00000300 -0.01642200 -0.02447400 1.46410200
17 -1.17535800 0.00012800 -0.00002000 0.02747700 0.06211700 0.32120800
18 -4.52675100 -0.69057500 -1.12074400 -0.42612300 0.11490200 1.26431800
19 -1.74403800 0.00003300 -0.00000800 -0.02836300 -0.00827500 1.69883200
20 -1.36877100 0.00002500 0.00000200 0.01196900 0.05106200 0.12629600
21 -2.03839800 -0.89278700 0.93250400 2.31093700 0.31633100 0.79560400
22 -1.62789300 0.15474800 0.01182500 -0.13461700 0.15578500 0.35407600
23 -1.59928500 0.00000400 0.00001600 0.02557400 -0.03449400 0.91320200
24 5.51181500 0.00000800 -0.00000100 2.10197241 -0.00682816 3.13883368
25 0.19684700 -0.00000100 0.00000300 2.79340699 -0.00009091 -3.14155144
26 2.53848600 -13.69475700 -1.63169900 1.97586200 1.15990900 1.84280300
27 6.21448500 0.00000600 0.00002000 -0.91837027 0.56795925 -2.03564262
28 11.94488500 -0.00002900 -0.00019400 0.08293200 -0.30614648 -1.05053680
29 10.62016600 0.00000200 0.00001000 -1.83183827 -0.73200054 0.04206859
30 4.75115600 0.69437600 -0.83047300 -0.15830200 -0.11329300 1.15258400
31 1.68806500 -0.00002600 0.00000200 -0.00137900 -0.02473200 1.49459700
32 1.33615100 -0.00005100 -0.00000900 -0.00671400 -0.03810400 0.54546200
33 4.82051300 0.50934000 0.22486500 -0.20990300 0.06730400 1.50415200
34 1.82699600 0.00006600 0.00000800 0.00444000 0.04027000 1.38375700
35 1.43657700 -0.00001000 0.00000700 0.00898400 -0.01220700 0.20516200
36 3.99235300 0.89108700 1.82799400 -0.34236700 0.17987500 0.98690000
37 1.40591800 0.00002100 -0.00000700 -0.02343900 -0.01796500 1.79280300
38 1.17536900 -0.00013100 0.00000200 0.03068200 0.11936300 0.20717600
39 4.52675600 0.69046000 1.12084200 -0.18036100 0.18528700 1.43657100
40 1.74404100 -0.00003100 -0.00000200 -0.02653400 -0.01295000 1.52898100
41 1.36876300 -0.00003100 -0.00001700 0.03461200 0.15489300 0.03533500
42 1.87485500 0.93508100 -0.99913000 2.65257500 0.29448800 1.07979500
43 1.65859200 -0.32464400 -0.11923700 0.15923200 0.10877700 0.63043100
44 1.57424700 -0.10445100 0.03324200 0.08348700 0.00112200 0.81252200
45 5.51180600 -0.00000200 0.00000600 -0.23579700 0.00000500 0.00000700
46 0.19685000 0.00000300 -0.00000200 -0.34822500 0.00001500 -0.00000200
47 0.00000000 1.00000000 0.00000000 0.00000000 0.00000000 -1.57079600
48 -3.18096000 33.22035600 -3.27546900 0.00000000 0.00000000 -3.14156200
49 -3.31303749 48.94409536 0.16145488 0.26802141 0.25020209 -1.13356465
50 10.32273500 1.03200500 -4.47404000 0.49059400 1.12092400 1.98870900
51 3.73549700 0.00125700 -1.32376300 0.00000000 0.00000000 0.00000000
52 -0.00066900 -0.00054600 -1.33911600 0.00000000 0.00000000 0.00000000
53 0.04766100 0.00000000 0.67144200 0.00000000 0.00000000 0.00000000
54 4.80553000 0.89926700 -0.32590700 0.00000000 0.00000000 0.00000000
55 -1.55556500 -0.00054600 0.65577800 0.00000000 0.00000000 0.00000000
56 -4.22386600 -1.63767800 -4.26925600 2.89813300 -0.03107300 -1.70865400
time 6
0 -0.00000100 8.45008800 -27.50902600 0.00000000 0.00000000 0.00003100
1 -0.00000200 0.00000000 0.00000000 1.57074300 -1.56713700 -1.57074300
2 4.25546800 -0.33518300 -0.00000200 0.00000000 0.00000000 -0.12484800
3 7.43124800 1.49647700 0.00000200 0.00000000 0.00000000 0.24545000
4 5.27847900 0.16554100 0.00000100 0.00000000 0.00000000 0.04851100
5 1.30260800 -8.55138500 2.09779200 1.97586400 1.15990900 -1.29878600
6 -6.21448200 -0.00000700 -0.00002700 -2.93994488 -0.73754886 1.76189555
7 11.94488200 0.00000000 0.00000100 -0.46577193 -0.33330524 1.87863800
8 10.62018100 0.00000200 0.00000000 0.93986358 -0.02969942 2.85834766
9 -4.75110600 -0.69449400 0.83057700 -0.13822700 -0.15282100 0.18761000
10 -1.68806800 0.00004600 -0.00003200 0.02141900 -0.01231500 0.38900200
11 -1.33614000 0.00005700 -0.00001200 0.02584200 0.00517300 0.35617200
12 -4.82049400 -0.50946000 -0.22475900 -0.34140000 -0.06545200 1.04871000
13 -1.82699200 -0.00006400 0.00000600 0.01748100 0.03646500 1.72004300
14 -1.43657300 0.00000600 0.00000200 -0.02382900 -0.07399300 0.22023700
15 -3.99235500 -0.89118800 -1.82790900 -0.59999900 0.19887300 1.32587600
16 -1.40591800 -0.00002500 -0.00000300 -0.01642200 -0.02447400 1.46410200
17 -1.17535800 0.00012800 -0.00002000 0.02747700 0.06211700 0.32120800
18 -4.52675100 -0.69057500 -1.12074400 -0.42612300 0.11490200 1.26431800
19 -1.74403800 0.00003300 -0.00000800 -0.02836300 -0.00827500 1.69883200
20 -1.36877100 0.00002500 0.00000200 0.01196900 0.05106200 0.12629600
21 -2.03839800 -0.89278700 0.93250400 2.31093700 0.31633100 0.79560400
22 -1.62789300 0.15474800 0.01182500 -0.13461700 0.15578500 0.35407600
23 -1.59928500 0.00000400 0.00001600 0.02557400 -0.03449400 0.91320200
24 5.51181500 0.00000800 -0.00000100 2.10197241 -0.00682816 3.13883368
25 0.19684700 -0.00000100 0.00000300 2.79340699 -0.00009091 -3.14155144
26 2.53848600 -13.69475700 -1.63169900 1.97586200 1.15990900 1.84280300
27 6.21448500 0.00000600 0.00002000 -1.04855871 0.58282721 -2.01823952
28 11.94488500 -0.00002900 -0.00019400 0.23426584 -0.31512607 -1.10721444
29 10.62016600 0.00000200 0.00001000 -1.86084982 -0.73335617 0.03689988
30 4.75115600 0.69437600 -0.83047300 -0.15830200 -0.11329300 1.15258400
31 1.68806500 -0.00002600 0.00000200 -0.00137900 -0.02473200 1.49459700
32 1.33615100 -0.00005100 -0.00000900 -0.00671400 -0.03810400 0.54546200
33 4.82051300 0.50934000 0.22486500 -0.20990300 0.06730400 1.50415200
34 1.82699600 0.00006600 0.00000800 0.00444000 0.04027000 1.38375700
35 1.43657700 -0.00001000 0.00000700 0.00898400 -0.01220700 0.20516200
36 3.99235300 0.89108700 1.82799400 -0.34236700 0.17987500 0.98690000
37 1.40591800 0.00002100 -0.00000700 -0.02343900 -0.01796500 1.79280300
38 1.17536900 -0.00013100 0.00000200 0.03068200 0.11936300 0.20717600
39 4.52675600 0.69046000 1.12084200 -0.18036100 0.18528700 1.43657100
40 1.74404100 -0.00003100 -0.00000200 -0.02653400 -0.01295000 1.52898100
41 1.36876300 -0.00003100 -0.00001700 0.03461200 0.15489300 0.03533500
42 1.87485500 0.93508100 -0.99913000 2.65257500 0.29448800 1.07979500
43 1.65859200 -0.32464400 -0.11923700 0.15923200 0.10877700 0.63043100
44 1.57424700 -0.10445100 0.03324200 0.08348700 0.00112200 0.81252200
45 5.51180600 -0.00000200 0.00000600 -0.23579700 0.00000500 0.00000700
46 0.19685000 0.00000300 -0.00000200 -0.34822500 0.00001500 -0.00000200
47 0.00000000 1.00000000 0.00000000 0.00000000 0.00000000 -1.57079600
48 -3.18096000 33.22035600 -3.27546900 0.00000000 0.00000000 -3.14156200
49 -4.36812646 49.09049636 0.20070714 0.33181888 0.28753920 -0.98477902
50 10.32273500 1.03200500 -4.47404000 0.49059400 1.12092400 1.98870900
51 3.73549700 0.00125700 -1.32376300 0.00000000 0.00000000 0.00000000
52 -0.00066900 -0.00054600 -1.33911600 0.00000000 0.00000000 0.00000000
53 0.04766100 0.00000000 0.67144200 0.00000000 0.00000000 0.00000000
54 4.80553000 0.89926700 -0.32590700 0.00000000 0.00000000 0.00000000
55 -1.55556500 -0.00054600 0.65577800 0.00000000 0.00000000 0.00000000
56 -4.22386600 -1.63767800 -4.26925600 2.89813300 -0.03107300 -1.70865400
time 7
0 -0.00000100 8.45008800 -27.50902600 0.00000000 0.00000000 0.00003100
1 -0.00000200 0.00000000 0.00000000 1.57074300 -1.56713700 -1.57074300
2 4.25546800 -0.33518300 -0.00000200 0.00000000 0.00000000 -0.12484800
3 7.43124800 1.49647700 0.00000200 0.00000000 0.00000000 0.24545000
4 5.27847900 0.16554100 0.00000100 0.00000000 0.00000000 0.04851100
5 0.57160300 -9.67655100 3.14120700 1.97586400 1.15990900 -1.29878600
6 -6.21448200 -0.00000700 -0.00002700 -2.85924675 -0.74018632 1.61796768
7 11.94488200 0.00000000 0.00000100 -0.45836404 -0.33536049 1.85585056
8 10.62018100 0.00000200 0.00000000 0.96327157 -0.09583882 2.90759602
9 -4.75110600 -0.69449400 0.83057700 -0.13822700 -0.15282100 0.18761000
10 -1.68806800 0.00004600 -0.00003200 0.02141900 -0.01231500 0.38900200
11 -1.33614000 0.00005700 -0.00001200 0.02584200 0.00517300 0.35617200
12 -4.82049400 -0.50946000 -0.22475900 -0.34140000 -0.06545200 1.04871000
13 -1.82699200 -0.00006400 0.00000600 0.01748100 0.03646500 1.72004300
14 -1.43657300 0.00000600 0.00000200 -0.02382900 -0.07399300 0.22023700
15 -3.99235500 -0.89118800 -1.82790900 -0.59999900 0.19887300 1.32587600
16 -1.40591800 -0.00002500 -0.00000300 -0.01642200 -0.02447400 1.46410200
17 -1.17535800 0.00012800 -0.00002000 0.02747700 0.06211700 0.32120800
18 -4.52675100 -0.69057500 -1.12074400 -0.42612300 0.11490200 1.26431800
19 -1.74403800 0.00003300 -0.00000800 -0.02836300 -0.00827500 1.69883200
20 -1.36877100 0.00002500 0.00000200 0.01196900 0.05106200 0.12629600
21 -2.03839800 -0.89278700 0.93250400 2.31093700 0.31633100 0.79560400
22 -1.62789300 0.15474800 0.01182500 -0.13461700 0.15578500 0.35407600
23 -1.59928500 0.00000400 0.00001600 0.02557400 -0.03449400 0.91320200
24 5.51181500 0.00000800 -0.00000100 2.10197241 -0.00682816 3.13883368
25 0.19684700 -0.00000100 0.00000300 2.79340699 -0.00009091 -3.14155144
26 2.53848600 -13.69475700 -1.63169900 1.97586200 1.15990900 1.84280300
27 6.21448500 0.00000600 0.00002000 -1.17696554 0.60427072 -2.00928369
28 11.94488500 -0.00002900 -0.00019400 0.39642373 -0.32512782 -1.17856783
29 10.62016600 0.00000200 0.00001000 -1.90520630 -0.71928319 0.06078372
30 4.75115600 0.69437600 -0.83047300 -0.15830200 -0.11329300 1.15258400
31 1.68806500 -0.00002600 0.00000200 -0.00137900 -0.02473200 1.49459700
32 1.33615100 -0.00005100 -0.00000900 -0.00671400 -0.03810400 0.54546200
33 4.82051300 0.50934000 0.22486500 -0.20990300 0.06730400 1.50415200
34 1.82699600 0.00006600 0.00000800 0.00444000 0.04027000 1.38375700
35 1.43657700 -0.00001000 0.00000700 0.00898400 -0.01220700 0.20516200
36 3.99235300 0.89108700 1.82799400 -0.34236700 0.17987500 0.98690000
37 1.40591800 0.00002100 -0.00000700 -0.02343900 -0.01796500 1.79280300
38 1.17536900 -0.00013100 0.00000200 0.03068200 0.11936300 0.20717600
39 4.52675600 0.69046000 1.12084200 -0.18036100 0.18528700 1.43657100
40 1.74404100 -0.00003100 -0.00000200 -0.02653400 -0.01295000 1.52898100
41 1.36876300 -0.00003100 -0.00001700 0.03461200 0.15489300 0.03533500
42 1.87485500 0.93508100 -0.99913000 2.65257500 0.29448800 1.07979500
43 1.65859200 -0.32464400 -0.11923700 0.15923200 0.10877700 0.63043100
44 1.57424700 -0.10445100 0.03324200 0.08348700 0.00112200 0.81252200
45 5.51180600 -0.00000200 0.00000600 -0.23579700 0.00000500 0.00000700
46 0.19685000 0.00000300 -0.00000200 -0.34822500 0.00001500 -0.00000200
47 0.00000000 1.00000000 0.00000000 0.00000000 0.00000000 -1.57079600
48 -3.18096000 33.22035600 -3.27546900 0.00000000 0.00000000 -3.14156200
49 -5.35431388 49.14725836 0.21478455 0.37578494 0.29980155 -0.84591484
50 10.32273500 1.03200500 -4.47404000 0.49059400 1.12092400 1.98870900
51 3.73549700 0.00125700 -1.32376300 0.00000000 0.00000000 0.00000000
52 -0.00066900 -0.00054600 -1.33911600 0.00000000 0.00000000 0.00000000
53 0.04766100 0.00000000 0.67144200 0.00000000 0.00000000 0.00000000
54 4.80553000 0.89926700 -0.32590700 0.00000000 0.00000000 0.00000000
55 -1.55556500 -0.00054600 0.65577800 0.00000000 0.00000000 0.00000000
56 -4.22386600 -1.63767800 -4.26925600 2.89813300 -0.03107300 -1.70865400
time 8
0 -0.00000100 8.45008800 -27.50902600 0.00000000 0.00000000 0.00003100
1 -0.00000200 0.00000000 0.00000000 1.57074300 -1.56713700 -1.57074300
2 4.25546800 -0.33518300 -0.00000200 0.00000000 0.00000000 -0.12484800
3 7.43124800 1.49647700 0.00000200 0.00000000 0.00000000 0.24545000
4 5.27847900 0.16554100 0.00000100 0.00000000 0.00000000 0.04851100
5 -0.11841400 -10.73862300 4.12611300 1.97586400 1.15990900 -1.29878600
6 -6.21448200 -0.00000700 -0.00002700 -2.80537073 -0.72831696 1.47734217
7 11.94488200 0.00000000 0.00000100 -0.45019448 -0.33744924 1.83120063
8 10.62018100 0.00000200 0.00000000 0.96975655 -0.13980928 2.91713143
9 -4.75110600 -0.69449400 0.83057700 -0.13822700 -0.15282100 0.18761000
10 -1.68806800 0.00004600 -0.00003200 0.02141900 -0.01231500 0.38900200
11 -1.33614000 0.00005700 -0.00001200 0.02584200 0.00517300 0.35617200
12 -4.82049400 -0.50946000 -0.22475900 -0.34140000 -0.06545200 1.04871000
13 -1.82699200 -0.00006400 0.00000600 0.01748100 0.03646500 1.72004300
14 -1.43657300 0.00000600 0.00000200 -0.02382900 -0.07399300 0.22023700
15 -3.99235500 -0.89118800 -1.82790900 -0.59999900 0.19887300 1.32587600
16 -1.40591800 -0.00002500 -0.00000300 -0.01642200 -0.02447400 1.46410200
17 -1.17535800 0.00012800 -0.00002000 0.02747700 0.06211700 0.32120800
18 -4.52675100 -0.69057500 -1.12074400 -0.42612300 0.11490200 1.26431800
19 -1.74403800 0.00003300 -0.00000800 -0.02836300 -0.00827500 1.69883200
20 -1.36877100 0.00002500 0.00000200 0.01196900 0.05106200 0.12629600
21 -2.03839800 -0.89278700 0.93250400 2.31093700 0.31633100 0.79560400
22 -1.62789300 0.15474800 0.01182500 -0.13461700 0.15578500 0.35407600
23 -1.59928500 0.00000400 0.00001600 0.02557400 -0.03449400 0.91320200
24 5.51181500 0.00000800 -0.00000100 2.10197241 -0.00682816 3.13883368
25 0.19684700 -0.00000100 0.00000300 2.79340699 -0.00009091 -3.14155144
26 2.53848600 -13.69475700 -1.63169900 1.97586200 1.15990900 1.84280300
27 6.21448500 0.00000600 0.00002000 -1.30719402 0.62735709 -2.00969036
28 11.94488500 -0.00002900 -0.00019400 0.55628058 -0.33383129 -1.25191606
29 10.62016600 0.00000200 0.00001000 -1.95237015 -0.68541027 0.08600938
30 4.75115600 0.69437600 -0.83047300 -0.15830200 -0.11329300 1.15258400
31 1.68806500 -0.00002600 0.00000200 -0.00137900 -0.02473200 1.49459700
32 1.33615100 -0.00005100 -0.00000900 -0.00671400 -0.03810400 0.54546200
33 4.82051300 0.50934000 0.22486500 -0.20990300 0.06730400 1.50415200
34 1.82699600 0.00006600 0.00000800 0.00444000 0.04027000 1.38375700
35 1.43657700 -0.00001000 0.00000700 0.00898400 -0.01220700 0.20516200
36 3.99235300 0.89108700 1.82799400 -0.34236700 0.17987500 0.98690000
37 1.40591800 0.00002100 -0.00000700 -0.02343900 -0.01796500 1.79280300
38 1.17536900 -0.00013100 0.00000200 0.03068200 0.11936300 0.20717600
39 4.52675600 0.69046000 1.12084200 -0.18036100 0.18528700 1.43657100
40 1.74404100 -0.00003100 -0.00000200 -0.02653400 -0.01295000 1.52898100
41 1.36876300 -0.00003100 -0.00001700 0.03461200 0.15489300 0.03533500
42 1.87485500 0.93508100 -0.99913000 2.65257500 0.29448800 1.07979500
43 1.65859200 -0.32464400 -0.11923700 0.15923200 0.10877700 0.63043100
44 1.57424700 -0.10445100 0.03324200 0.08348700 0.00112200 0.81252200
45 5.51180600 -0.00000200 0.00000600 -0.23579700 0.00000500 0.00000700
46 0.19685000 0.00000300 -0.00000200 -0.34822500 0.00001500 -0.00000200
47 0.00000000 1.00000000 0.00000000 0.00000000 0.00000000 -1.57079600
48 -3.18096000 33.22035600 -3.27546900 0.00000000 0.00000000 -3.14156200
49 -6.31436439 49.13593636 0.15389978 0.39960635 0.29678848 -0.72698777
50 10.32273500 1.03200500 -4.47404000 0.49059400 1.12092400 1.98870900
51 3.73549700 0.00125700 -1.32376300 0.00000000 0.00000000 0.00000000
52 -0.00066900 -0.00054600 -1.33911600 0.00000000 0.00000000 0.00000000
53 0.04766100 0.00000000 0.67144200 0.00000000 0.00000000 0.00000000
54 4.80553000 0.89926700 -0.32590700 0.00000000 0.00000000 0.00000000
55 -1.55556500 -0.00054600 0.65577800 0.00000000 0.00000000 0.00000000
56 -4.22386600 -1.63767800 -4.26925600 2.89813300 -0.03107300 -1.70865400
time 9
0 -0.00000100 8.45008800 -27.50902600 0.00000000 0.00000000 0.00003100
1 -0.00000200 0.00000000 0.00000000 1.57074300 -1.56713700 -1.57074300
2 4.25546800 -0.33518300 -0.00000200 0.00000000 0.00000000 -0.12484800
3 7.43124800 1.49647700 0.00000200 0.00000000 0.00000000 0.24545000
4 5.27847900 0.16554100 0.00000100 0.00000000 0.00000000 0.04851100
5 -0.72644500 -11.67450400 4.99400100 1.97586400 1.15990900 -1.29878600
6 -6.21448200 -0.00000700 -0.00002700 -2.78498723 -0.71070462 1.36011177
7 11.94488200 0.00000000 0.00000100 -0.43677259 -0.34047213 1.79103852
8 10.62018100 0.00000200 0.00000000 0.96583227 -0.15056260 2.92835847
9 -4.75110600 -0.69449400 0.83057700 -0.13822700 -0.15282100 0.18761000
10 -1.68806800 0.00004600 -0.00003200 0.02141900 -0.01231500 0.38900200
11 -1.33614000 0.00005700 -0.00001200 0.02584200 0.00517300 0.35617200
12 -4.82049400 -0.50946000 -0.22475900 -0.34140000 -0.06545200 1.04871000
13 -1.82699200 -0.00006400 0.00000600 0.01748100 0.03646500 1.72004300
14 -1.43657300 0.00000600 0.00000200 -0.02382900 -0.07399300 0.22023700
15 -3.99235500 -0.89118800 -1.82790900 -0.59999900 0.19887300 1.32587600
16 -1.40591800 -0.00002500 -0.00000300 -0.01642200 -0.02447400 1.46410200
17 -1.17535800 0.00012800 -0.00002000 0.02747700 0.06211700 0.32120800
18 -4.52675100 -0.69057500 -1.12074400 -0.42612300 0.11490200 1.26431800
19 -1.74403800 0.00003300 -0.00000800 -0.02836300 -0.00827500 1.69883200
20 -1.36877100 0.00002500 0.00000200 0.01196900 0.05106200 0.12629600
21 -2.03839800 -0.89278700 0.93250400 2.31093700 0.31633100 0.79560400
22 -1.62789300 0.15474800 0.01182500 -0.13461700 0.15578500 0.35407600
23 -1.59928500 0.00000400 0.00001600 0.02557400 -0.03449400 0.91320200
24 5.51181500 0.00000800 -0.00000100 2.10197241 -0.00682816 3.13883368
25 0.19684700 -0.00000100 0.00000300 2.79340699 -0.00009091 -3.14155144
26 2.53848600 -13.69475700 -1.63169900 1.97586200 1.15990900 1.84280300
27 6.21448500 0.00000600 0.00002000 -1.43387204 0.64736117 -2.01792824
28 11.94488500 -0.00002900 -0.00019400 0.69815699 -0.33977511 -1.31051159
29 10.62016600 0.00000200 0.00001000 -1.99793777 -0.65201578 0.08861143
30 4.75115600 0.69437600 -0.83047300 -0.15830200 -0.11329300 1.15258400
31 1.68806500 -0.00002600 0.00000200 -0.00137900 -0.02473200 1.49459700
32 1.33615100 -0.00005100 -0.00000900 -0.00671400 -0.03810400 0.54546200
33 4.82051300 0.50934000 0.22486500 -0.20990300 0.06730400 1.50415200
34 1.82699600 0.00006600 0.00000800 0.00444000 0.04027000 1.38375700
35 1.43657700 -0.00001000 0.00000700 0.00898400 -0.01220700 0.20516200
36 3.99235300 0.89108700 1.82799400 -0.34236700 0.17987500 0.98690000
37 1.40591800 0.00002100 -0.00000700 -0.02343900 -0.01796500 1.79280300
38 1.17536900 -0.00013100 0.00000200 0.03068200 0.11936300 0.20717600
39 4.52675600 0.69046000 1.12084200 -0.18036100 0.18528700 1.43657100
40 1.74404100 -0.00003100 -0.00000200 -0.02653400 -0.01295000 1.52898100
41 1.36876300 -0.00003100 -0.00001700 0.03461200 0.15489300 0.03533500
42 1.87485500 0.93508100 -0.99913000 2.65257500 0.29448800 1.07979500
43 1.65859200 -0.32464400 -0.11923700 0.15923200 0.10877700 0.63043100
44 1.57424700 -0.10445100 0.03324200 0.08348700 0.00112200 0.81252200
45 5.51180600 -0.00000200 0.00000600 -0.23579700 0.00000500 0.00000700
46 0.19685000 0.00000300 -0.00000200 -0.34822500 0.00001500 -0.00000200
47 0.00000000 1.00000000 0.00000000 0.00000000 0.00000000 -1.57079600
48 -3.18096000 33.22035600 -3.27546900 0.00000000 0.00000000 -3.14156200
49 -7.19090504 49.10607136 -0.07774737 0.41570926 0.29060252 -0.62694700
50 10.32273500 1.03200500 -4.47404000 0.49059400 1.12092400 1.98870900
51 3.73549700 0.00125700 -1.32376300 0.00000000 0.00000000 0.00000000
52 -0.00066900 -0.00054600 -1.33911600 0.00000000 0.00000000 0.00000000
53 0.04766100 0.00000000 0.67144200 0.00000000 0.00000000 0.00000000
54 4.80553000 0.89926700 -0.32590700 0.00000000 0.00000000 0.00000000
55 -1.55556500 -0.00054600 0.65577800 0.00000000 0.00000000 0.00000000
56 -4.22386600 -1.63767800 -4.26925600 2.89813300 -0.03107300 -1.70865400
time 10
0 -0.00000100 8.45008800 -27.50902600 0.00000000 0.00000000 0.00003100
1 -0.00000200 0.00000000 0.00000000 1.57074300 -1.56713700 -1.57074300
2 4.25546800 -0.33518300 -0.00000200 0.00000000 0.00000000 -0.12484800
3 7.43124800 1.49647700 0.00000200 0.00000000 0.00000000 0.24545000
4 5.27847900 0.16554100 0.00000100 0.00000000 0.00000000 0.04851100
5 -1.21150400 -12.42110700 5.68636000 1.97586400 1.15990900 -1.29878600
6 -6.21448200 -0.00000700 -0.00002700 -2.76842415 -0.70101000 1.28496574
7 11.94488200 0.00000000 0.00000100 -0.42616742 -0.34241501 1.75948187
8 10.62018100 0.00000200 0.00000000 0.95251618 -0.16824397 2.95412778
9 -4.75110600 -0.69449400 0.83057700 -0.13822700 -0.15282100 0.18761000
10 -1.68806800 0.00004600 -0.00003200 0.02141900 -0.01231500 0.38900200
11 -1.33614000 0.00005700 -0.00001200 0.02584200 0.00517300 0.35617200
12 -4.82049400 -0.50946000 -0.22475900 -0.34140000 -0.06545200 1.04871000
13 -1.82699200 -0.00006400 0.00000600 0.01748100 0.03646500 1.72004300
14 -1.43657300 0.00000600 0.00000200 -0.02382900 -0.07399300 0.22023700
15 -3.99235500 -0.89118800 -1.82790900 -0.59999900 0.19887300 1.32587600
16 -1.40591800 -0.00002500 -0.00000300 -0.01642200 -0.02447400 1.46410200
17 -1.17535800 0.00012800 -0.00002000 0.02747700 0.06211700 0.32120800
18 -4.52675100 -0.69057500 -1.12074400 -0.42612300 0.11490200 1.26431800
19 -1.74403800 0.00003300 -0.00000800 -0.02836300 -0.00827500 1.69883200
20 -1.36877100 0.00002500 0.00000200 0.01196900 0.05106200 0.12629600
21 -2.03839800 -0.89278700 0.93250400 2.31093700 0.31633100 0.79560400
22 -1.62789300 0.15474800 0.01182500 -0.13461700 0.15578500 0.35407600
23 -1.59928500 0.00000400 0.00001600 0.02557400 -0.03449400 0.91320200
24 5.51181500 0.00000800 -0.00000100 2.10197241 -0.00682816 3.13883368
25 0.19684700 -0.00000100 0.00000300 2.79340699 -0.00009091 -3.14155144
26 2.53848600 -13.69475700 -1.63169900 1.97586200 1.15990900 1.84280300
27 6.21448500 0.00000600 0.00002000 -1.51625375 0.67011595 -2.03014955
28 11.94488500 -0.00002900 -0.00019400 0.81337428 -0.34402497 -1.35981155
29 10.62016600 0.00000200 0.00001000 -2.04691364 -0.64746859 0.10437201
30 4.75115600 0.69437600 -0.83047300 -0.15830200 -0.11329300 1.15258400
31 1.68806500 -0.00002600 0.00000200 -0.00137900 -0.02473200 1.49459700
32 1.33615100 -0.00005100 -0.00000900 -0.00671400 -0.03810400 0.54546200
33 4.82051300 0.50934000 0.22486500 -0.20990300 0.06730400 1.50415200
34 1.82699600 0.00006600 0.00000800 0.00444000 0.04027000 1.38375700
35 1.43657700 -0.00001000 0.00000700 0.00898400 -0.01220700 0.20516200
36 3.99235300 0.89108700 1.82799400 -0.34236700 0.17987500 0.98690000
37 1.40591800 0.00002100 -0.00000700 -0.02343900 -0.01796500 1.79280300
38 1.17536900 -0.00013100 0.00000200 0.03068200 0.11936300 0.20717600
39 4.52675600 0.69046000 1.12084200 -0.18036100 0.18528700 1.43657100
40 1.74404100 -0.00003100 -0.00000200 -0.02653400 -0.01295000 1.52898100
41 1.36876300 -0.00003100 -0.00001700 0.03461200 0.15489300 0.03533500
42 1.87485500 0.93508100 -0.99913000 2.65257500 0.29448800 1.07979500
43 1.65859200 -0.32464400 -0.11923700 0.15923200 0.10877700 0.63043100
44 1.57424700 -0.10445100 0.03324200 0.08348700 0.00112200 0.81252200
45 5.51180600 -0.00000200 0.00000600 -0.23579700 0.00000500 0.00000700
46 0.19685000 0.00000300 -0.00000200 -0.34822500 0.00001500 -0.00000200
47 0.00000000 1.00000000 0.00000000 0.00000000 0.00000000 -1.57079600
48 -3.18096000 33.22035600 -3.27546900 0.00000000 0.00000000 -3.14156200
49 -7.61513423 49.06385036 -0.35694001 0.42564456 0.28309272 -0.54534532
50 10.32273500 1.03200500 -4.47404000 0.49059400 1.12092400 1.98870900
51 3.73549700 0.00125700 -1.32376300 0.00000000 0.00000000 0.00000000
52 -0.00066900 -0.00054600 -1.33911600 0.00000000 0.00000000 0.00000000
53 0.04766100 0.00000000 0.67144200 0.00000000 0.00000000 0.00000000
54 4.80553000 0.89926700 -0.32590700 0.00000000 0.00000000 0.00000000
55 -1.55556500 -0.00054600 0.65577800 0.00000000 0.00000000 0.00000000
56 -4.22386600 -1.63767800 -4.26925600 2.89813300 -0.03107300 -1.70865400
time 11
0 -0.00000100 8.45008800 -27.50902600 0.00000000 0.00000000 0.00003100
1 -0.00000200 0.00000000 0.00000000 1.57074300 -1.56713700 -1.57074300
2 4.25546800 -0.33518300 -0.00000200 0.00000000 0.00000000 -0.12484800
3 7.43124800 1.49647700 0.00000200 0.00000000 0.00000000 0.24545000
4 5.27847900 0.16554100 0.00000100 0.00000000 0.00000000 0.04851100
5 -1.53260200 -12.91533900 6.14468200 1.97586400 1.15990900 -1.29878600
6 -6.21448200 -0.00000700 -0.00002700 -2.74726461 -0.69475181 1.24025306
7 11.94488200 0.00000000 0.00000100 -0.41795371 -0.34364028 1.73513561
8 10.62018100 0.00000200 0.00000000 0.93277094 -0.19569398 2.98851742
9 -4.75110600 -0.69449400 0.83057700 -0.13822700 -0.15282100 0.18761000
10 -1.68806800 0.00004600 -0.00003200 0.02141900 -0.01231500 0.38900200
11 -1.33614000 0.00005700 -0.00001200 0.02584200 0.00517300 0.35617200
12 -4.82049400 -0.50946000 -0.22475900 -0.34140000 -0.06545200 1.04871000
13 -1.82699200 -0.00006400 0.00000600 0.01748100 0.03646500 1.72004300
14 -1.43657300 0.00000600 0.00000200 -0.02382900 -0.07399300 0.22023700
15 -3.99235500 -0.89118800 -1.82790900 -0.59999900 0.19887300 1.32587600
16 -1.40591800 -0.00002500 -0.00000300 -0.01642200 -0.02447400 1.46410200
17 -1.17535800 0.00012800 -0.00002000 0.02747700 0.06211700 0.32120800
18 -4.52675100 -0.69057500 -1.12074400 -0.42612300 0.11490200 1.26431800
19 -1.74403800 0.00003300 -0.00000800 -0.02836300 -0.00827500 1.69883200
20 -1.36877100 0.00002500 0.00000200 0.01196900 0.05106200 0.12629600
21 -2.03839800 -0.89278700 0.93250400 2.31093700 0.31633100 0.79560400
22 -1.62789300 0.15474800 0.01182500 -0.13461700 0.15578500 0.35407600
23 -1.59928500 0.00000400 0.00001600 0.02557400 -0.03449400 0.91320200
24 5.51181500 0.00000800 -0.00000100 2.10197241 -0.00682816 3.13883368
25 0.19684700 -0.00000100 0.00000300 2.79340699 -0.00009091 -3.14155144
26 2.53848600 -13.69475700 -1.63169900 1.97586200 1.15990900 1.84280300
27 6.21448500 0.00000600 0.00002000 -1.56374941 0.69083945 -2.04289415
28 11.94488500 -0.00002900 -0.00019400 0.89373506 -0.34721006 -1.40340438
29 10.62016600 0.00000200 0.00001000 -2.07834363 -0.65571195 0.12710688
30 4.75115600 0.69437600 -0.83047300 -0.15830200 -0.11329300 1.15258400
31 1.68806500 -0.00002600 0.00000200 -0.00137900 -0.02473200 1.49459700
32 1.33615100 -0.00005100 -0.00000900 -0.00671400 -0.03810400 0.54546200
33 4.82051300 0.50934000 0.22486500 -0.20990300 0.06730400 1.50415200
34 1.82699600 0.00006600 0.00000800 0.00444000 0.04027000 1.38375700
35 1.43657700 -0.00001000 0.00000700 0.00898400 -0.01220700 0.20516200
36 3.99235300 0.89108700 1.82799400 -0.34236700 0.17987500 0.98690000
37 1.40591800 0.00002100 -0.00000700 -0.02343900 -0.01796500 1.79280300
38 1.17536900 -0.00013100 0.00000200 0.03068200 0.11936300 0.20717600
39 4.52675600 0.69046000 1.12084200 -0.18036100 0.18528700 1.43657100
40 1.74404100 -0.00003100 -0.00000200 -0.02653400 -0.01295000 1.52898100
41 1.36876300 -0.00003100 -0.00001700 0.03461200 0.15489300 0.03533500
42 1.87485500 0.93508100 -0.99913000 2.65257500 0.29448800 1.07979500
43 1.65859200 -0.32464400 -0.11923700 0.15923200 0.10877700 0.63043100
44 1.57424700 -0.10445100 0.03324200 0.08348700 0.00112200 0.81252200
45 5.51180600 -0.00000200 0.00000600 -0.23579700 0.00000500 0.00000700
46 0.19685000 0.00000300 -0.00000200 -0.34822500 0.00001500 -0.00000200
47 0.00000000 1.00000000 0.00000000 0.00000000 0.00000000 -1.57079600
48 -3.18096000 33.22035600 -3.27546900 0.00000000 0.00000000 -3.14156200
49 -7.75215665 49.01545336 -0.53604739 0.43077310 0.27587602 -0.48128076
50 10.32273500 1.03200500 -4.47404000 0.49059400 1.12092400 1.98870900
51 3.73549700 0.00125700 -1.32376300 0.00000000 0.00000000 0.00000000
52 -0.00066900 -0.00054600 -1.33911600 0.00000000 0.00000000 0.00000000
53 0.04766100 0.00000000 0.67144200 0.00000000 0.00000000 0.00000000
54 4.80553000 0.89926700 -0.32590700 0.00000000 0.00000000 0.00000000
55 -1.55556500 -0.00054600 0.65577800 0.00000000 0.00000000 0.00000000
56 -4.22386600 -1.63767800 -4.26925600 2.89813300 -0.03107300 -1.70865400
time 12
0 -0.00000100 8.45008800 -27.50902600 0.00000000 0.00000000 0.00003100
1 -0.00000200 0.00000000 0.00000000 1.57074300 -1.56713700 -1.57074300
2 4.25546800 -0.33518300 -0.00000200 0.00000000 0.00000000 -0.12484800
3 7.43124800 1.49647700 0.00000200 0.00000000 0.00000000 0.24545000
4 5.27847900 0.16554100 0.00000100 0.00000000 0.00000000 0.04851100
5 -1.64874100 -13.09410300 6.31045700 1.97586400 1.15990900 -1.29878600
6 -6.21448200 -0.00000700 -0.00002700 -2.72926946 -0.69020426 1.22327316
7 11.94488200 0.00000000 0.00000100 -0.40863625 -0.34480059 1.70763208
8 10.62018100 0.00000200 0.00000000 0.90593732 -0.22117717 3.03672298
9 -4.75110600 -0.69449400 0.83057700 -0.13822700 -0.15282100 0.18761000
10 -1.68806800 0.00004600 -0.00003200 0.02141900 -0.01231500 0.38900200
11 -1.33614000 0.00005700 -0.00001200 0.02584200 0.00517300 0.35617200
12 -4.82049400 -0.50946000 -0.22475900 -0.34140000 -0.06545200 1.04871000
13 -1.82699200 -0.00006400 0.00000600 0.01748100 0.03646500 1.72004300
14 -1.43657300 0.00000600 0.00000200 -0.02382900 -0.07399300 0.22023700
15 -3.99235500 -0.89118800 -1.82790900 -0.59999900 0.19887300 1.32587600
16 -1.40591800 -0.00002500 -0.00000300 -0.01642200 -0.02447400 1.46410200
17 -1.17535800 0.00012800 -0.00002000 0.02747700 0.06211700 0.32120800
18 -4.52675100 -0.69057500 -1.12074400 -0.42612300 0.11490200 1.26431800
19 -1.74403800 0.00003300 -0.00000800 -0.02836300 -0.00827500 1.69883200
20 -1.36877100 0.00002500 0.00000200 0.01196900 0.05106200 0.12629600
21 -2.03839800 -0.89278700 0.93250400 2.31093700 0.31633100 0.79560400
22 -1.62789300 0.15474800 0.01182500 -0.13461700 0.15578500 0.35407600
23 -1.59928500 0.00000400 0.00001600 0.02557400 -0.03449400 0.91320200
24 5.51181500 0.00000800 -0.00000100 2.10197241 -0.00682816 3.13883368
25 0.19684700 -0.00000100 0.00000300 2.79340699 -0.00009091 -3.14155144
26 2.53848600 -13.69475700 -1.63169900 1.97586200 1.15990900 1.84280300
27 6.21448500 0.00000600 0.00002000 -1.59467360 0.70700237 -2.05401820
28 11.94488500 -0.00002900 -0.00019400 0.92982049 -0.34910706 -1.43962703
29 10.62016600 0.00000200 0.00001000 -2.07072619 -0.66603408 0.13160211
30 4.75115600 0.69437600 -0.83047300 -0.15830200 -0.11329300 1.15258400
31 1.68806500 -0.00002600 0.00000200 -0.00137900 -0.02473200 1.49459700
32 1.33615100 -0.00005100 -0.00000900 -0.00671400 -0.03810400 0.54546200
33 4.82051300 0.50934000 0.22486500 -0.20990300 0.06730400 1.50415200
34 1.82699600 0.00006600 0.00000800 0.00444000 0.04027000 1.38375700
35 1.43657700 -0.00001000 0.00000700 0.00898400 -0.01220700 0.20516200
36 3.99235300 0.89108700 1.82799400 -0.34236700 0.17987500 0.98690000
37 1.40591800 0.00002100 -0.00000700 -0.02343900 -0.01796500 1.79280300
38 1.17536900 -0.00013100 0.00000200 0.03068200 0.11936300 0.20717600
39 4.52675600 0.69046000 1.12084200 -0.18036100 0.18528700 1.43657100
40 1.74404100 -0.00003100 -0.00000200 -0.02653400 -0.01295000 1.52898100
41 1.36876300 -0.00003100 -0.00001700 0.03461200 0.15489300 0.03533500
42 1.87485500 0.93508100 -0.99913000 2.65257500 0.29448800 1.07979500
43 1.65859200 -0.32464400 -0.11923700 0.15923200 0.10877700 0.63043100
44 1.57424700 -0.10445100 0.03324200 0.08348700 0.00112200 0.81252200
45 5.51180600 -0.00000200 0.00000600 -0.23579700 0.00000500 0.00000700
46 0.19685000 0.00000300 -0.00000200 -0.34822500 0.00001500 -0.00000200
47 0.00000000 1.00000000 0.00000000 0.00000000 0.00000000 -1.57079600
48 -3.18096000 33.22035600 -3.27546900 0.00000000 0.00000000 -3.14156200
49 -7.79726773 48.96705236 -0.63842941 0.43232513 0.26996984 -0.43329882
50 10.32273500 1.03200500 -4.47404000 0.49059400 1.12092400 1.98870900
51 3.73549700 0.00125700 -1.32376300 0.00000000 0.00000000 0.00000000
52 -0.00066900 -0.00054600 -1.33911600 0.00000000 0.00000000 0.00000000
53 0.04766100 0.00000000 0.67144200 0.00000000 0.00000000 0.00000000
54 4.80553000 0.89926700 -0.32590700 0.00000000 0.00000000 0.00000000
55 -1.55556500 -0.00054600 0.65577800 0.00000000 0.00000000 0.00000000
56 -4.22386600 -1.63767800 -4.26925600 2.89813300 -0.03107300 -1.70865400
time 13
0 -0.00000100 8.45008800 -27.50902600 0.00000000 0.00000000 0.00003100
1 -0.00000200 0.00000000 0.00000000 1.57074300 -1.56713700 -1.57074300
2 4.25546800 -0.33518300 -0.00000200 0.00000000 0.00000000 -0.12484800
3 7.43124800 1.49647700 0.00000200 0.00000000 0.00000000 0.24545000
4 5.27847900 0.16554100 0.00000100 0.00000000 0.00000000 0.04851100
5 -1.64874100 -13.09410300 6.31045700 1.97586400 1.15990900 -1.29878600
6 -6.21448200 -0.00000700 -0.00002700 -2.71712342 -0.68703763 1.22116053
7 11.94488200 0.00000000 0.00000100 -0.39995054 -0.34559386 1.68211586
8 10.62018100 0.00000200 0.00000000 0.87927371 -0.23910410 3.08422270
9 -4.75110600 -0.69449400 0.83057700 -0.13822700 -0.15282100 0.18761000
10 -1.68806800 0.00004600 -0.00003200 0.02141900 -0.01231500 0.38900200
11 -1.33614000 0.00005700 -0.00001200 0.02584200 0.00517300 0.35617200
12 -4.82049400 -0.50946000 -0.22475900 -0.34140000 -0.06545200 1.04871000
13 -1.82699200 -0.00006400 0.00000600 0.01748100 0.03646500 1.72004300
14 -1.43657300 0.00000600 0.00000200 -0.02382900 -0.07399300 0.22023700
15 -3.99235500 -0.89118800 -1.82790900 -0.59999900 0.19887300 1.32587600
16 -1.40591800 -0.00002500 -0.00000300 -0.01642200 -0.02447400 1.46410200
17 -1.17535800 0.00012800 -0.00002000 0.02747700 0.06211700 0.32120800
18 -4.52675100 -0.69057500 -1.12074400 -0.42612300 0.11490200 1.26431800
19 -1.74403800 0.00003300 -0.00000800 -0.02836300 -0.00827500 1.69883200
20 -1.36877100 0.00002500 0.00000200 0.01196900 0.05106200 0.12629600
21 -2.03839800 -0.89278700 0.93250400 2.31093700 0.31633100 0.79560400
22 -1.62789300 0.15474800 0.01182500 -0.13461700 0.15578500 0.35407600
23 -1.59928500 0.00000400 0.00001600 0.02557400 -0.03449400 0.91320200
24 5.51181500 0.00000800 -0.00000100 2.10197241 -0.00682816 3.13883368
25 0.19684700 -0.00000100 0.00000300 2.79340699 -0.00009091 -3.14155144
26 2.53848600 -13.69475700 -1.63169900 1.97586200 1.15990900 1.84280300
27 6.21448500 0.00000600 0.00002000 -1.61525377 0.71854175 -2.06270494
28 11.94488500 -0.00002900 -0.00019400 0.93927229 -0.34997318 -1.46729839
29 10.62016600 0.00000200 0.00001000 -2.04236876 -0.67402457 0.12286568
30 4.75115600 0.69437600 -0.83047300 -0.15830200 -0.11329300 1.15258400
31 1.68806500 -0.00002600 0.00000200 -0.00137900 -0.02473200 1.49459700
32 1.33615100 -0.00005100 -0.00000900 -0.00671400 -0.03810400 0.54546200
33 4.82051300 0.50934000 0.22486500 -0.20990300 0.06730400 1.50415200
34 1.82699600 0.00006600 0.00000800 0.00444000 0.04027000 1.38375700
35 1.43657700 -0.00001000 0.00000700 0.00898400 -0.01220700 0.20516200
36 3.99235300 0.89108700 1.82799400 -0.34236700 0.17987500 0.98690000
37 1.40591800 0.00002100 -0.00000700 -0.02343900 -0.01796500 1.79280300
38 1.17536900 -0.00013100 0.00000200 0.03068200 0.11936300 0.20717600
39 4.52675600 0.69046000 1.12084200 -0.18036100 0.18528700 1.43657100
40 1.74404100 -0.00003100 -0.00000200 -0.02653400 -0.01295000 1.52898100
41 1.36876300 -0.00003100 -0.00001700 0.03461200 0.15489300 0.03533500
42 1.87485500 0.93508100 -0.99913000 2.65257500 0.29448800 1.07979500
43 1.65859200 -0.32464400 -0.11923700 0.15923200 0.10877700 0.63043100
44 1.57424700 -0.10445100 0.03324200 0.08348700 0.00112200 0.81252200
45 5.51180600 -0.00000200 0.00000600 -0.23579700 0.00000500 0.00000700
46 0.19685000 0.00000300 -0.00000200 -0.34822500 0.00001500 -0.00000200
47 0.00000000 1.00000000 0.00000000 0.00000000 0.00000000 -1.57079600
48 -3.18096000 33.22035600 -3.27546900 0.00000000 0.00000000 -3.14156200
49 -7.80962468 48.92483136 -0.69411779 0.43122951 0.26635553 -0.40006935
50 10.32273500 1.03200500 -4.47404000 0.49059400 1.12092400 1.98870900
51 3.73549700 0.00125700 -1.32376300 0.00000000 0.00000000 0.00000000
52 -0.00066900 -0.00054600 -1.33911600 0.00000000 0.00000000 0.00000000
53 0.04766100 0.00000000 0.67144200 0.00000000 0.00000000 0.00000000
54 4.80553000 0.89926700 -0.32590700 0.00000000 0.00000000 0.00000000
55 -1.55556500 -0.00054600 0.65577800 0.00000000 0.00000000 0.00000000
56 -4.22386600 -1.63767800 -4.26925600 2.89813300 -0.03107300 -1.70865400
time 14
0 -0.00000100 8.45008800 -27.50902600 0.00000000 0.00000000 0.00003100
1 -0.00000200 0.00000000 0.00000000 1.57074300 -1.56713700 -1.57074300
2 4.25546800 -0.33518300 -0.00000200 0.00000000 0.00000000 -0.12484800
3 7.43124800 1.49647700 0.00000200 0.00000000 0.00000000 0.24545000
4 5.27847900 0.16554100 0.00000100 0.00000000 0.00000000 0.04851100
5 -1.64874100 -13.09410300 6.31045700 1.97586400 1.15990900 -1.29878600
6 -6.21448200 -0.00000700 -0.00002700 -2.71100723 -0.68530985 1.22002839
7 11.94488200 0.00000000 0.00000100 -0.39494980 -0.34605893 1.66732822
8 10.62018100 0.00000200 0.00000000 0.86153584 -0.24752745 3.11183644
9 -4.75110600 -0.69449400 0.83057700 -0.13822700 -0.15282100 0.18761000
10 -1.68806800 0.00004600 -0.00003200 0.02141900 -0.01231500 0.38900200
11 -1.33614000 0.00005700 -0.00001200 0.02584200 0.00517300 0.35617200
12 -4.82049400 -0.50946000 -0.22475900 -0.34140000 -0.06545200 1.04871000
13 -1.82699200 -0.00006400 0.00000600 0.01748100 0.03646500 1.72004300
14 -1.43657300 0.00000600 0.00000200 -0.02382900 -0.07399300 0.22023700
15 -3.99235500 -0.89118800 -1.82790900 -0.59999900 0.19887300 1.32587600
16 -1.40591800 -0.00002500 -0.00000300 -0.01642200 -0.02447400 1.46410200
17 -1.17535800 0.00012800 -0.00002000 0.02747700 0.06211700 0.32120800
18 -4.52675100 -0.69057500 -1.12074400 -0.42612300 0.11490200 1.26431800
19 -1.74403800 0.00003300 -0.00000800 -0.02836300 -0.00827500 1.69883200
20 -1.36877100 0.00002500 0.00000200 0.01196900 0.05106200 0.12629600
21 -2.03839800 -0.89278700 0.93250400 2.31093700 0.31633100 0.79560400
22 -1.62789300 0.15474800 0.01182500 -0.13461700 0.15578500 0.35407600
23 -1.59928500 0.00000400 0.00001600 0.02557400 -0.03449400 0.91320200
24 5.51181500 0.00000800 -0.00000100 2.10197241 -0.00682816 3.13883368
25 0.19684700 -0.00000100 0.00000300 2.79340699 -0.00009091 -3.14155144
26 2.53848600 -13.69475700 -1.63169900 1.97586200 1.15990900 1.84280300
27 6.21448500 0.00000600 0.00002000 -1.62749041 0.72546607 -2.06837705
28 11.94488500 -0.00002900 -0.00019400 0.94530681 -0.35021496 -1.48518810
29 10.62016600 0.00000200 0.00001000 -2.02293288 -0.67733401 0.11699255
30 4.75115600 0.69437600 -0.83047300 -0.15830200 -0.11329300 1.15258400
31 1.68806500 -0.00002600 0.00000200 -0.00137900 -0.02473200 1.49459700
32 1.33615100 -0.00005100 -0.00000900 -0.00671400 -0.03810400 0.54546200
33 4.82051300 0.50934000 0.22486500 -0.20990300 0.06730400 1.50415200
34 1.82699600 0.00006600 0.00000800 0.00444000 0.04027000 1.38375700
35 1.43657700 -0.00001000 0.00000700 0.00898400 -0.01220700 0.20516200
36 3.99235300 0.89108700 1.82799400 -0.34236700 0.17987500 0.98690000
37 1.40591800 0.00002100 -0.00000700 -0.02343900 -0.01796500 1.79280300
38 1.17536900 -0.00013100 0.00000200 0.03068200 0.11936300 0.20717600
39 4.52675600 0.69046000 1.12084200 -0.18036100 0.18528700 1.43657100
40 1.74404100 -0.00003100 -0.00000200 -0.02653400 -0.01295000 1.52898100
41 1.36876300 -0.00003100 -0.00001700 0.03461200 0.15489300 0.03533500
42 1.87485500 0.93508100 -0.99913000 2.65257500 0.29448800 1.07979500
43 1.65859200 -0.32464400 -0.11923700 0.15923200 0.10877700 0.63043100
44 1.57424700 -0.10445100 0.03324200 0.08348700 0.00112200 0.81252200
45 5.51180600 -0.00000200 0.00000600 -0.23579700 0.00000500 0.00000700
46 0.19685000 0.00000300 -0.00000200 -0.34822500 0.00001500 -0.00000200
47 0.00000000 1.00000000 0.00000000 0.00000000 0.00000000 -1.57079600
48 -3.18096000 33.22035600 -3.27546900 0.00000000 0.00000000 -3.14156200
49 -7.80813242 48.89496636 -0.72106493 0.42861178 0.26497212 -0.38042543
50 10.32273500 1.03200500 -4.47404000 0.49059400 1.12092400 1.98870900
51 3.73549700 0.00125700 -1.32376300 0.00000000 0.00000000 0.00000000
52 -0.00066900 -0.00054600 -1.33911600 0.00000000 0.00000000 0.00000000
53 0.04766100 0.00000000 0.67144200 0.00000000 0.00000000 0.00000000
54 4.80553000 0.89926700 -0.32590700 0.00000000 0.00000000 0.00000000
55 -1.55556500 -0.00054600 0.65577800 0.00000000 0.00000000 0.00000000
56 -4.22386600 -1.63767800 -4.26925600 2.89813300 -0.03107300 -1.70865400
time 15
0 -0.00000100 8.45008800 -27.50902600 0.00000000 0.00000000 0.00003100
1 -0.00000200 0.00000000 0.00000000 1.57074300 -1.56713700 -1.57074300
2 4.25546800 -0.33518300 -0.00000200 0.00000000 0.00000000 -0.12484800
3 7.43124800 1.49647700 0.00000200 0.00000000 0.00000000 0.24545000
4 5.27847900 0.16554100 0.00000100 0.00000000 0.00000000 0.04851100
5 -1.64874100 -13.09410300 6.31045700 1.97586400 1.15990900 -1.29878600
6 -6.21448200 -0.00000700 -0.00002700 -2.70950562 -0.68490348 1.22006154
7 11.94488200 0.00000000 0.00000100 -0.39312966 -0.34627790 1.66202190
8 10.62018100 0.00000200 0.00000000 0.85439463 -0.24931267 3.12217870
9 -4.75110600 -0.69449400 0.83057700 -0.13822700 -0.15282100 0.18761000
10 -1.68806800 0.00004600 -0.00003200 0.02141900 -0.01231500 0.38900200
11 -1.33614000 0.00005700 -0.00001200 0.02584200 0.00517300 0.35617200
12 -4.82049400 -0.50946000 -0.22475900 -0.34140000 -0.06545200 1.04871000
13 -1.82699200 -0.00006400 0.00000600 0.01748100 0.03646500 1.72004300
14 -1.43657300 0.00000600 0.00000200 -0.02382900 -0.07399300 0.22023700
15 -3.99235500 -0.89118800 -1.82790900 -0.59999900 0.19887300 1.32587600
16 -1.40591800 -0.00002500 -0.00000300 -0.01642200 -0.02447400 1.46410200
17 -1.17535800 0.00012800 -0.00002000 0.02747700 0.06211700 0.32120800
18 -4.52675100 -0.69057500 -1.12074400 -0.42612300 0.11490200 1.26431800
19 -1.74403800 0.00003300 -0.00000800 -0.02836300 -0.00827500 1.69883200
20 -1.36877100 0.00002500 0.00000200 0.01196900 0.05106200 0.12629600
21 -2.03839800 -0.89278700 0.93250400 2.31093700 0.31633100 0.79560400
22 -1.62789300 0.15474800 0.01182500 -0.13461700 0.15578500 0.35407600
23 -1.59928500 0.00000400 0.00001600 0.02557400 -0.03449400 0.91320200
24 5.51181500 0.00000800 -0.00000100 2.10197241 -0.00682816 3.13883368
25 0.19684700 -0.00000100 0.00000300 2.79340699 -0.00009091 -3.14155144
26 2.53848600 -13.69475700 -1.63169900 1.97586200 1.15990900 1.84280300
27 6.21448500 0.00000600 0.00002000 -1.63186346 0.72787192 -2.07048490
28 11.94488500 -0.00002900 -0.00019400 0.94779393 -0.35003222 -1.49230389
29 10.62016600 0.00000200 0.00001000 -2.01464124 -0.67797155 0.11424423
30 4.75115600 0.69437600 -0.83047300 -0.15830200 -0.11329300 1.15258400
31 1.68806500 -0.00002600 0.00000200 -0.00137900 -0.02473200 1.49459700
32 1.33615100 -0.00005100 -0.00000900 -0.00671400 -0.03810400 0.54546200
33 4.82051300 0.50934000 0.22486500 -0.20990300 0.06730400 1.50415200
34 1.82699600 0.00006600 0.00000800 0.00444000 0.04027000 1.38375700
35 1.43657700 -0.00001000 0.00000700 0.00898400 -0.01220700 0.20516200
36 3.99235300 0.89108700 1.82799400 -0.34236700 0.17987500 0.98690000
37 1.40591800 0.00002100 -0.00000700 -0.02343900 -0.01796500 1.79280300
38 1.17536900 -0.00013100 0.00000200 0.03068200 0.11936300 0.20717600
39 4.52675600 0.69046000 1.12084200 -0.18036100 0.18528700 1.43657100
40 1.74404100 -0.00003100 -0.00000200 -0.02653400 -0.01295000 1.52898100
41 1.36876300 -0.00003100 -0.00001700 0.03461200 0.15489300 0.03533500
42 1.87485500 0.93508100 -0.99913000 2.65257500 0.29448800 1.07979500
43 1.65859200 -0.32464400 -0.11923700 0.15923200 0.10877700 0.63043100
44 1.57424700 -0.10445100 0.03324200 0.08348700 0.00112200 0.81252200
45 5.51180600 -0.00000200 0.00000600 -0.23579700 0.00000500 0.00000700
46 0.19685000 0.00000300 -0.00000200 -0.34822500 0.00001500 -0.00000200
47 0.00000000 1.00000000 0.00000000 0.00000000 0.00000000 -1.57079600
48 -3.18096000 33.22035600 -3.27546900 0.00000000 0.00000000 -3.14156200
49 -7.80134406 48.88364036 -0.72818947 0.42700054 0.26525181 -0.37323821
50 10.32273500 1.03200500 -4.47404000 0.49059400 1.12092400 1.98870900
51 3.73549700 0.00125700 -1.32376300 0.00000000 0.00000000 0.00000000
52 -0.00066900 -0.00054600 -1.33911600 0.00000000 0.00000000 0.00000000
53 0.04766100 0.00000000 0.67144200 0.00000000 0.00000000 0.00000000
54 4.80553000 0.89926700 -0.32590700 0.00000000 0.00000000 0.00000000
55 -1.55556500 -0.00054600 0.65577800 0.00000000 0.00000000 0.00000000
56 -4.22386600 -1.63767800 -4.26925600 2.89813300 -0.03107300 -1.70865400
end
