version 1
nodes
0 "root" -1
1 "pelvis" 0
2 "spine_01" 1
3 "spine_02" 2
4 "spine_03" 3
5 "clavicle_r" 4
6 "upperarm_r" 5
7 "lowerarm_r" 6
8 "hand_r" 7
9 "index_01_r" 8
10 "index_02_r" 9
11 "index_03_r" 10
12 "middle_01_r" 8
13 "middle_02_r" 12
14 "middle_03_r" 13
15 "pinky_01_r" 8
16 "pinky_02_r" 15
17 "pinky_03_r" 16
18 "ring_01_r" 8
19 "ring_02_r" 18
20 "ring_03_r" 19
21 "thumb_01_r" 8
22 "thumb_02_r" 21
23 "thumb_03_r" 22
24 "lowerarm_twist_01_r" 7
25 "upperarm_twist_01_r" 6
26 "clavicle_l" 4
27 "upperarm_l" 26
28 "lowerarm_l" 27
29 "hand_l" 28
30 "index_01_l" 29
31 "index_02_l" 30
32 "index_03_l" 31
33 "middle_01_l" 29
34 "middle_02_l" 33
35 "middle_03_l" 34
36 "pinky_01_l" 29
37 "pinky_02_l" 36
38 "pinky_03_l" 37
39 "ring_01_l" 29
40 "ring_02_l" 39
41 "ring_03_l" 40
42 "thumb_01_l" 29
43 "thumb_02_l" 42
44 "thumb_03_l" 43
45 "lowerarm_twist_01_l" 28
46 "upperarm_twist_01_l" 27
47 "cam_driver" -1
48 "BaseRoot" -1
49 "Base" 48
50 "rhand_ikTarget" 49
51 "Trigger" 49
52 "Mag" 49
53 "Bullets" 52
54 "Bolt" 49
55 "lhand_ikTarget" 49
end
skeleton
time 0
0 -0.00000100 7.45008900 -27.50902600 0.00000000 0.00000000 0.00003100
1 -0.00000200 0.00000000 0.00000000 1.57074300 -1.56713700 -1.57074300
2 4.25546800 -0.33518300 -0.00000200 0.00000000 0.00000000 -0.12484800
3 7.43124800 1.49647700 0.00000200 0.00000000 0.00000000 0.24545000
4 5.27847900 0.16554100 0.00000100 0.00000000 0.00000000 0.04851100
5 4.00252383 -4.95842208 2.60065756 1.97586400 1.15990900 -1.29878600
6 -6.21448200 -0.00000700 -0.00002700 -2.91026530 -0.49532805 1.14060112
7 11.94488200 0.00000000 0.00000100 0.03531475 -0.32312431 0.71555975
8 10.62018100 0.00000200 0.00000000 0.92490317 0.23894320 -3.09641883
9 -4.75110600 -0.69449400 0.83057700 0.01571000 -0.16543500 0.43812000
10 -1.68806800 0.00004600 -0.00003200 0.01457400 -0.01993700 0.80788900
11 -1.33614000 0.00005700 -0.00001200 0.02114300 -0.01573300 1.19424300
12 -4.82049400 -0.50946000 -0.22475900 -0.29733500 -0.05057600 1.32850400
13 -1.82699200 -0.00006400 0.00000600 0.00421900 0.04026900 1.37882300
14 -1.43657300 0.00000600 0.00000200 -0.05454800 -0.05545500 0.68560300
15 -3.99235500 -0.89118800 -1.82790900 -0.52370500 0.13815700 1.09576700
16 -1.40591800 -0.00002500 -0.00000300 -0.01630900 -0.02456400 1.46015900
17 -1.17535800 0.00012800 -0.00002000 0.04970300 0.04625500 0.72560100
18 -4.52675100 -0.69057500 -1.12074400 -0.36124800 0.11255600 1.35155400
19 -1.74403800 0.00003300 -0.00000800 -0.02649400 -0.01314800 1.52325100
20 -1.36877100 0.00002500 0.00000200 0.02081800 0.04817500 0.30338500
21 -1.87480000 -0.93512500 0.99917400 2.03358000 0.44787100 0.71499600
22 -1.52345300 0.00003200 0.00003100 0.08365400 0.15258100 0.60551300
23 -1.59928500 0.00000400 0.00001600 0.03405500 -0.02608500 0.63444600
24 5.58312549 0.11572600 0.29499951 2.70854400 -0.05523500 3.09750200
25 0.19684700 -0.00000100 0.00000300 2.79340698 -0.00028757 -3.14151542
26 1.29243000 -15.31615700 -2.15135800 1.97586200 1.15990900 1.84280300
27 6.21448500 0.00000600 0.00002000 -0.85353609 0.99268212 -1.67225960
28 11.94488500 -0.00002900 -0.00019400 -0.88714237 -0.30181712 -1.90141731
29 10.62016600 0.00000200 0.00001000 -1.88439003 -0.79721957 0.30115304
30 4.75115600 0.69437600 -0.83047300 -0.35541600 -0.40076200 0.96512700
31 1.68806500 -0.00002600 0.00000200 -0.00367600 -0.02375600 1.75077900
32 1.33615100 -0.00005100 -0.00000900 0.03096200 -0.02321100 -0.55646100
33 4.82051300 0.50934000 0.22486500 -0.51051400 -0.29296900 1.25320400
34 1.82699600 0.00006600 0.00000800 0.01740600 0.03653900 1.71901600
35 1.43657700 -0.00001000 0.00000700 0.01508100 0.00113100 -0.80048000
36 3.99235300 0.89108700 1.82799400 -0.59409300 0.14997600 1.42316900
37 1.40591800 0.00002100 -0.00000700 -0.02571600 -0.01440300 1.93866100
38 1.17536900 -0.00013100 0.00000200 0.10276000 0.06814600 0.94199700
39 4.52675600 0.69046000 1.12084200 -0.54396700 0.08405600 1.61621100
40 1.74404100 -0.00003100 -0.00000200 -0.02193600 -0.01984600 1.24733900
41 1.36876300 -0.00003100 -0.00001700 -0.10584200 0.11837400 -0.91845200
42 1.93928198 1.01468951 -0.90910246 1.40068400 0.75422800 0.39461500
43 1.52344900 -0.00003400 -0.00000300 -0.00578400 -0.08060400 0.05769500
44 1.59928100 -0.00000200 0.00000900 0.03666200 0.07497700 -0.28908900
45 5.51180600 -0.00000200 0.00000600 -0.68868500 0.00000000 0.00000000
46 0.19685000 0.00000300 -0.00000200 -0.34822500 0.00001500 -0.00000200
47 0.00000000 0.00000000 0.00000000 0.00000000 0.00000000 -1.57079600
48 -3.47734200 5.97447700 -4.02610900 0.00000000 0.00000000 -3.14156200
49 -6.18959644 20.91960067 -2.15118198 0.28634884 0.04143586 -0.78253385
50 5.11284625 0.15002274 -3.45886282 0.54237100 1.11856900 1.82356300
51 -1.88195000 -0.01178200 0.03357100 0.00000000 0.00000000 0.00000000
52 0.01125900 -0.01178200 0.16934900 0.00000000 0.00000000 0.00000000
53 -0.02757200 0.00000000 0.20638000 0.00000000 0.00000000 0.00000000
54 -1.26834800 -0.01178200 1.78904500 0.00000000 0.00000000 0.00000000
55 -4.82520500 -2.17145400 -2.49543300 -3.06199100 0.99804500 -2.35750200
time 1
0 -0.00000100 7.45008900 -27.50902600 0.00000000 0.00000000 0.00003100
1 -0.00000200 0.00000000 0.00000000 1.57074300 -1.56713700 -1.57074300
2 4.25546800 -0.33518300 -0.00000200 0.00000000 0.00000000 -0.12484800
3 7.43124800 1.49647700 0.00000200 0.00000000 0.00000000 0.24545000
4 5.27847900 0.16554100 0.00000100 0.00000000 0.00000000 0.04851100
5 4.00252383 -4.95842208 2.60065756 1.97586400 1.15990900 -1.29878600
6 -6.21448200 -0.00000700 -0.00002700 -2.90410234 -0.48922242 1.13585964
7 11.94488200 0.00000000 0.00000100 0.03754440 -0.32134456 0.70586884
8 10.62018100 0.00000200 0.00000000 0.94845926 0.22758076 -3.08418533
9 -4.75110600 -0.69449400 0.83057700 0.01571000 -0.16543500 0.43812000
10 -1.68806800 0.00004600 -0.00003200 0.01457400 -0.01993700 0.80788900
11 -1.33614000 0.00005700 -0.00001200 0.02114300 -0.01573300 1.19424300
12 -4.82049400 -0.50946000 -0.22475900 -0.29733500 -0.05057600 1.32850400
13 -1.82699200 -0.00006400 0.00000600 0.00421900 0.04026900 1.37882300
14 -1.43657300 0.00000600 0.00000200 -0.05454800 -0.05545500 0.68560300
15 -3.99235500 -0.89118800 -1.82790900 -0.52370500 0.13815700 1.09576700
16 -1.40591800 -0.00002500 -0.00000300 -0.01630900 -0.02456400 1.46015900
17 -1.17535800 0.00012800 -0.00002000 0.04970300 0.04625500 0.72560100
18 -4.52675100 -0.69057500 -1.12074400 -0.36124800 0.11255600 1.35155400
19 -1.74403800 0.00003300 -0.00000800 -0.02649400 -0.01314800 1.52325100
20 -1.36877100 0.00002500 0.00000200 0.02081800 0.04817500 0.30338500
21 -1.87480000 -0.93512500 0.99917400 2.03358000 0.44787100 0.71499600
22 -1.52345300 0.00003200 0.00003100 0.08365400 0.15258100 0.60551300
23 -1.59928500 0.00000400 0.00001600 0.03405500 -0.02608500 0.63444600
24 5.58312549 0.11572600 0.29499951 2.70854400 -0.05523500 3.09750200
25 0.19684700 -0.00000100 0.00000300 2.79340698 -0.00028757 -3.14151542
26 1.29243000 -15.31615700 -2.15135800 1.97586200 1.15990900 1.84280300
27 6.21448500 0.00000600 0.00002000 -0.84797627 0.99196967 -1.67079961
28 11.94488500 -0.00002900 -0.00019400 -0.88896501 -0.30588082 -1.89614176
29 10.62016600 0.00000200 0.00001000 -1.89650455 -0.79001219 0.28519739
30 4.75115600 0.69437600 -0.83047300 -0.35541600 -0.40076200 0.96512700
31 1.68806500 -0.00002600 0.00000200 -0.00367600 -0.02375600 1.75077900
32 1.33615100 -0.00005100 -0.00000900 0.03096200 -0.02321100 -0.55646100
33 4.82051300 0.50934000 0.22486500 -0.51051400 -0.29296900 1.25320400
34 1.82699600 0.00006600 0.00000800 0.01740600 0.03653900 1.71901600
35 1.43657700 -0.00001000 0.00000700 0.01508100 0.00113100 -0.80048000
36 3.99235300 0.89108700 1.82799400 -0.59409300 0.14997600 1.42316900
37 1.40591800 0.00002100 -0.00000700 -0.02571600 -0.01440300 1.93866100
38 1.17536900 -0.00013100 0.00000200 0.10276000 0.06814600 0.94199700
39 4.52675600 0.69046000 1.12084200 -0.54396700 0.08405600 1.61621100
40 1.74404100 -0.00003100 -0.00000200 -0.02193600 -0.01984600 1.24733900
41 1.36876300 -0.00003100 -0.00001700 -0.10584200 0.11837400 -0.91845200
42 1.93928198 1.01468951 -0.90910246 1.40068400 0.75422800 0.39461500
43 1.52344900 -0.00003400 -0.00000300 -0.00578400 -0.08060400 0.05769500
44 1.59928100 -0.00000200 0.00000900 0.03666200 0.07497700 -0.28908900
45 5.51180600 -0.00000200 0.00000600 -0.68868500 0.00000000 0.00000000
46 0.19685000 0.00000300 -0.00000200 -0.34822500 0.00001500 -0.00000200
47 0.00000000 0.00000000 0.00000000 0.00000000 0.00000000 -1.57079600
48 -3.47734200 5.97447700 -4.02610900 0.00000000 0.00000000 -3.14156200
49 -6.24837793 20.93894448 -2.11580622 0.30888160 0.03440305 -0.78076188
50 5.11414917 0.13331000 -3.47459075 0.54237100 1.11856900 1.82356300
51 -1.88195000 -0.01178200 0.03357100 0.00000000 0.00000000 0.00000000
52 0.01125900 -0.01178200 0.16934900 0.00000000 0.00000000 0.00000000
53 -0.02757200 0.00000000 0.20638000 0.00000000 0.00000000 0.00000000
54 -1.26834800 -0.01178200 1.78904500 0.00000000 0.00000000 0.00000000
55 -4.82520500 -2.17145400 -2.49543300 -3.06199100 0.99804500 -2.35750200
time 2
0 -0.00000100 7.45008900 -27.50902600 0.00000000 0.00000000 0.00003100
1 -0.00000200 0.00000000 0.00000000 1.57074300 -1.56713700 -1.57074300
2 4.25546800 -0.33518300 -0.00000200 0.00000000 0.00000000 -0.12484800
3 7.43124800 1.49647700 0.00000200 0.00000000 0.00000000 0.24545000
4 5.27847900 0.16554100 0.00000100 0.00000000 0.00000000 0.04851100
5 4.00252383 -4.95842208 2.60065756 1.97586400 1.15990900 -1.29878600
6 -6.21448200 -0.00000700 -0.00002700 -2.89003691 -0.47345256 1.12146312
7 11.94488200 0.00000000 0.00000100 0.04421760 -0.31162166 0.67963704
8 10.62018100 0.00000200 0.00000000 0.98553438 0.21345304 -3.06041886
9 -4.75110600 -0.69449400 0.83057700 0.01571000 -0.16543500 0.43812000
10 -1.68806800 0.00004600 -0.00003200 0.01457400 -0.01993700 0.80788900
11 -1.33614000 0.00005700 -0.00001200 0.02114300 -0.01573300 1.19424300
12 -4.82049400 -0.50946000 -0.22475900 -0.29733500 -0.05057600 1.32850400
13 -1.82699200 -0.00006400 0.00000600 0.00421900 0.04026900 1.37882300
14 -1.43657300 0.00000600 0.00000200 -0.05454800 -0.05545500 0.68560300
15 -3.99235500 -0.89118800 -1.82790900 -0.52370500 0.13815700 1.09576700
16 -1.40591800 -0.00002500 -0.00000300 -0.01630900 -0.02456400 1.46015900
17 -1.17535800 0.00012800 -0.00002000 0.04970300 0.04625500 0.72560100
18 -4.52675100 -0.69057500 -1.12074400 -0.36124800 0.11255600 1.35155400
19 -1.74403800 0.00003300 -0.00000800 -0.02649400 -0.01314800 1.52325100
20 -1.36877100 0.00002500 0.00000200 0.02081800 0.04817500 0.30338500
21 -1.87480000 -0.93512500 0.99917400 2.03358000 0.44787100 0.71499600
22 -1.52345300 0.00003200 0.00003100 0.08365400 0.15258100 0.60551300
23 -1.59928500 0.00000400 0.00001600 0.03405500 -0.02608500 0.63444600
24 5.58312549 0.11572600 0.29499951 2.70854400 -0.05523500 3.09750200
25 0.19684700 -0.00000100 0.00000300 2.79340698 -0.00028757 -3.14151542
26 1.29243000 -15.31615700 -2.15135800 1.97586200 1.15990900 1.84280300
27 6.21448500 0.00000600 0.00002000 -0.84833966 0.98550762 -1.66919947
28 11.94488500 -0.00002900 -0.00019400 -0.89258733 -0.30916465 -1.88542968
29 10.62016600 0.00000200 0.00001000 -1.91872673 -0.77669772 0.26722513
30 4.75115600 0.69437600 -0.83047300 -0.35541600 -0.40076200 0.96512700
31 1.68806500 -0.00002600 0.00000200 -0.00367600 -0.02375600 1.75077900
32 1.33615100 -0.00005100 -0.00000900 0.03096200 -0.02321100 -0.55646100
33 4.82051300 0.50934000 0.22486500 -0.51051400 -0.29296900 1.25320400
34 1.82699600 0.00006600 0.00000800 0.01740600 0.03653900 1.71901600
35 1.43657700 -0.00001000 0.00000700 0.01508100 0.00113100 -0.80048000
36 3.99235300 0.89108700 1.82799400 -0.59409300 0.14997600 1.42316900
37 1.40591800 0.00002100 -0.00000700 -0.02571600 -0.01440300 1.93866100
38 1.17536900 -0.00013100 0.00000200 0.10276000 0.06814600 0.94199700
39 4.52675600 0.69046000 1.12084200 -0.54396700 0.08405600 1.61621100
40 1.74404100 -0.00003100 -0.00000200 -0.02193600 -0.01984600 1.24733900
41 1.36876300 -0.00003100 -0.00001700 -0.10584200 0.11837400 -0.91845200
42 1.93928198 1.01468951 -0.90910246 1.40068400 0.75422800 0.39461500
43 1.52344900 -0.00003400 -0.00000300 -0.00578400 -0.08060400 0.05769500
44 1.59928100 -0.00000200 0.00000900 0.03666200 0.07497700 -0.28908900
45 5.51180600 -0.00000200 0.00000600 -0.68868500 0.00000000 0.00000000
46 0.19685000 0.00000300 -0.00000200 -0.34822500 0.00001500 -0.00000200
47 0.00000000 0.00000000 0.00000000 0.00000000 0.00000000 -1.57079600
48 -3.47734200 5.97447700 -4.02610900 0.00000000 0.00000000 -3.14156200
49 -6.39802381 20.99309756 -2.01620401 0.34464841 0.02568494 -0.77724781
50 5.15276909 0.10596498 -3.49345255 0.54237100 1.11856900 1.82356300
51 -1.88195000 -0.01178200 0.03357100 0.00000000 0.00000000 0.00000000
52 0.01125900 -0.01178200 0.16934900 0.00000000 0.00000000 0.00000000
53 -0.02757200 0.00000000 0.20638000 0.00000000 0.00000000 0.00000000
54 -1.26834800 -0.01178200 1.78904500 0.00000000 0.00000000 0.00000000
55 -4.82520500 -2.17145400 -2.49543300 -3.06199100 0.99804500 -2.35750200
time 3
0 -0.00000100 7.45008900 -27.50902600 0.00000000 0.00000000 0.00003100
1 -0.00000200 0.00000000 0.00000000 1.57074300 -1.56713700 -1.57074300
2 4.25546800 -0.33518300 -0.00000200 0.00000000 0.00000000 -0.12484800
3 7.43124800 1.49647700 0.00000200 0.00000000 0.00000000 0.24545000
4 5.27847900 0.16554100 0.00000100 0.00000000 0.00000000 0.04851100
5 4.00252383 -4.95842208 2.60065756 1.97586400 1.15990900 -1.29878600
6 -6.21448200 -0.00000700 -0.00002700 -2.87650984 -0.45556009 1.09959951
7 11.94488200 0.00000000 0.00000100 0.05359266 -0.29443189 0.64268352
8 10.62018100 0.00000200 0.00000000 0.99360353 0.21216849 -3.04087103
9 -4.75110600 -0.69449400 0.83057700 0.01571000 -0.16543500 0.43812000
10 -1.68806800 0.00004600 -0.00003200 0.01457400 -0.01993700 0.80788900
11 -1.33614000 0.00005700 -0.00001200 0.02114300 -0.01573300 1.19424300
12 -4.82049400 -0.50946000 -0.22475900 -0.29733500 -0.05057600 1.32850400
13 -1.82699200 -0.00006400 0.00000600 0.00421900 0.04026900 1.37882300
14 -1.43657300 0.00000600 0.00000200 -0.05454800 -0.05545500 0.68560300
15 -3.99235500 -0.89118800 -1.82790900 -0.52370500 0.13815700 1.09576700
16 -1.40591800 -0.00002500 -0.00000300 -0.01630900 -0.02456400 1.46015900
17 -1.17535800 0.00012800 -0.00002000 0.04970300 0.04625500 0.72560100
18 -4.52675100 -0.69057500 -1.12074400 -0.36124800 0.11255600 1.35155400
19 -1.74403800 0.00003300 -0.00000800 -0.02649400 -0.01314800 1.52325100
20 -1.36877100 0.00002500 0.00000200 0.02081800 0.04817500 0.30338500
21 -1.87480000 -0.93512500 0.99917400 2.03358000 0.44787100 0.71499600
22 -1.52345300 0.00003200 0.00003100 0.08365400 0.15258100 0.60551300
23 -1.59928500 0.00000400 0.00001600 0.03405500 -0.02608500 0.63444600
24 5.58312549 0.11572600 0.29499951 2.70854400 -0.05523500 3.09750200
25 0.19684700 -0.00000100 0.00000300 2.79340698 -0.00028757 -3.14151542
26 1.29243000 -15.31615700 -2.15135800 1.97586200 1.15990900 1.84280300
27 6.21448500 0.00000600 0.00002000 -0.86507259 0.97652055 -1.66672888
28 11.94488500 -0.00002900 -0.00019400 -0.89461409 -0.30628275 -1.87897080
29 10.62016600 0.00000200 0.00001000 -1.92935989 -0.77079289 0.27624398
30 4.75115600 0.69437600 -0.83047300 -0.35541600 -0.40076200 0.96512700
31 1.68806500 -0.00002600 0.00000200 -0.00367600 -0.02375600 1.75077900
32 1.33615100 -0.00005100 -0.00000900 0.03096200 -0.02321100 -0.55646100
33 4.82051300 0.50934000 0.22486500 -0.51051400 -0.29296900 1.25320400
34 1.82699600 0.00006600 0.00000800 0.01740600 0.03653900 1.71901600
35 1.43657700 -0.00001000 0.00000700 0.01508100 0.00113100 -0.80048000
36 3.99235300 0.89108700 1.82799400 -0.59409300 0.14997600 1.42316900
37 1.40591800 0.00002100 -0.00000700 -0.02571600 -0.01440300 1.93866100
38 1.17536900 -0.00013100 0.00000200 0.10276000 0.06814600 0.94199700
39 4.52675600 0.69046000 1.12084200 -0.54396700 0.08405600 1.61621100
40 1.74404100 -0.00003100 -0.00000200 -0.02193600 -0.01984600 1.24733900
41 1.36876300 -0.00003100 -0.00001700 -0.10584200 0.11837400 -0.91845200
42 1.93928198 1.01468951 -0.90910246 1.40068400 0.75422800 0.39461500
43 1.52344900 -0.00003400 -0.00000300 -0.00578400 -0.08060400 0.05769500
44 1.59928100 -0.00000200 0.00000900 0.03666200 0.07497700 -0.28908900
45 5.51180600 -0.00000200 0.00000600 -0.68868500 0.00000000 0.00000000
46 0.19685000 0.00000300 -0.00000200 -0.34822500 0.00001500 -0.00000200
47 0.00000000 0.00000000 0.00000000 0.00000000 0.00000000 -1.57079600
48 -3.47734200 5.97447700 -4.02610900 0.00000000 0.00000000 -3.14156200
49 -6.59232053 21.07623741 -1.91673677 0.35276075 0.02321082 -0.77059529
50 5.24365220 0.08386800 -3.49735147 0.54237100 1.11856900 1.82356300
51 -1.88195000 -0.01178200 0.03357100 0.00000000 0.00000000 0.00000000
52 0.01125900 -0.01178200 0.16934900 0.00000000 0.00000000 0.00000000
53 -0.02757200 0.00000000 0.20638000 0.00000000 0.00000000 0.00000000
54 -1.26834800 -0.01178200 1.78904500 0.00000000 0.00000000 0.00000000
55 -4.82520500 -2.17145400 -2.49543300 -3.06199100 0.99804500 -2.35750200
time 4
0 -0.00000100 7.45008900 -27.50902600 0.00000000 0.00000000 0.00003100
1 -0.00000200 0.00000000 0.00000000 1.57074300 -1.56713700 -1.57074300
2 4.25546800 -0.33518300 -0.00000200 0.00000000 0.00000000 -0.12484800
3 7.43124800 1.49647700 0.00000200 0.00000000 0.00000000 0.24545000
4 5.27847900 0.16554100 0.00000100 0.00000000 0.00000000 0.04851100
5 4.00252383 -4.95842208 2.60065756 1.97586400 1.15990900 -1.29878600
6 -6.21448200 -0.00000700 -0.00002700 -2.85744740 -0.43631256 1.07496217
7 11.94488200 0.00000000 0.00000100 0.06399511 -0.27079669 0.59842388
8 10.62018100 0.00000200 0.00000000 1.00630351 0.21613469 -3.01617581
9 -4.75110600 -0.69449400 0.83057700 0.01571000 -0.16543500 0.43812000
10 -1.68806800 0.00004600 -0.00003200 0.01457400 -0.01993700 0.80788900
11 -1.33614000 0.00005700 -0.00001200 0.02114300 -0.01573300 1.19424300
12 -4.82049400 -0.50946000 -0.22475900 -0.29733500 -0.05057600 1.32850400
13 -1.82699200 -0.00006400 0.00000600 0.00421900 0.04026900 1.37882300
14 -1.43657300 0.00000600 0.00000200 -0.05454800 -0.05545500 0.68560300
15 -3.99235500 -0.89118800 -1.82790900 -0.52370500 0.13815700 1.09576700
16 -1.40591800 -0.00002500 -0.00000300 -0.01630900 -0.02456400 1.46015900
17 -1.17535800 0.00012800 -0.00002000 0.04970300 0.04625500 0.72560100
18 -4.52675100 -0.69057500 -1.12074400 -0.36124800 0.11255600 1.35155400
19 -1.74403800 0.00003300 -0.00000800 -0.02649400 -0.01314800 1.52325100
20 -1.36877100 0.00002500 0.00000200 0.02081800 0.04817500 0.30338500
21 -1.87480000 -0.93512500 0.99917400 2.03358000 0.44787100 0.71499600
22 -1.52345300 0.00003200 0.00003100 0.08365400 0.15258100 0.60551300
23 -1.59928500 0.00000400 0.00001600 0.03405500 -0.02608500 0.63444600
24 5.58312549 0.11572600 0.29499951 2.70854400 -0.05523500 3.09750200
25 0.19684700 -0.00000100 0.00000300 2.79340698 -0.00028757 -3.14151542
26 1.29243000 -15.31615700 -2.15135800 1.97586200 1.15990900 1.84280300
27 6.21448500 0.00000600 0.00002000 -0.88361369 0.96697727 -1.66449970
28 11.94488500 -0.00002900 -0.00019400 -0.89815105 -0.30196791 -1.86743732
29 10.62016600 0.00000200 0.00001000 -1.93980910 -0.75924547 0.28450785
30 4.75115600 0.69437600 -0.83047300 -0.35541600 -0.40076200 0.96512700
31 1.68806500 -0.00002600 0.00000200 -0.00367600 -0.02375600 1.75077900
32 1.33615100 -0.00005100 -0.00000900 0.03096200 -0.02321100 -0.55646100
33 4.82051300 0.50934000 0.22486500 -0.51051400 -0.29296900 1.25320400
34 1.82699600 0.00006600 0.00000800 0.01740600 0.03653900 1.71901600
35 1.43657700 -0.00001000 0.00000700 0.01508100 0.00113100 -0.80048000
36 3.99235300 0.89108700 1.82799400 -0.59409300 0.14997600 1.42316900
37 1.40591800 0.00002100 -0.00000700 -0.02571600 -0.01440300 1.93866100
38 1.17536900 -0.00013100 0.00000200 0.10276000 0.06814600 0.94199700
39 4.52675600 0.69046000 1.12084200 -0.54396700 0.08405600 1.61621100
40 1.74404100 -0.00003100 -0.00000200 -0.02193600 -0.01984600 1.24733900
41 1.36876300 -0.00003100 -0.00001700 -0.10584200 0.11837400 -0.91845200
42 1.93928198 1.01468951 -0.90910246 1.40068400 0.75422800 0.39461500
43 1.52344900 -0.00003400 -0.00000300 -0.00578400 -0.08060400 0.05769500
44 1.59928100 -0.00000200 0.00000900 0.03666200 0.07497700 -0.28908900
45 5.51180600 -0.00000200 0.00000600 -0.68868500 0.00000000 0.00000000
46 0.19685000 0.00000300 -0.00000200 -0.34822500 0.00001500 -0.00000200
47 0.00000000 0.00000000 0.00000000 0.00000000 0.00000000 -1.57079600
48 -3.47734200 5.97447700 -4.02610900 0.00000000 0.00000000 -3.14156200
49 -6.78697866 21.18254151 -1.84804999 0.36036283 0.02247533 -0.76655712
50 5.36874252 0.05845031 -3.49239547 0.54237100 1.11856900 1.82356300
51 -1.88195000 -0.01178200 0.03357100 0.00000000 0.00000000 0.00000000
52 0.01125900 -0.01178200 0.16934900 0.00000000 0.00000000 0.00000000
53 -0.02757200 0.00000000 0.20638000 0.00000000 0.00000000 0.00000000
54 -1.26834800 -0.01178200 1.78904500 0.00000000 0.00000000 0.00000000
55 -4.82520500 -2.17145400 -2.49543300 -3.06199100 0.99804500 -2.35750200
time 5
0 -0.00000100 7.45008900 -27.50902600 0.00000000 0.00000000 0.00003100
1 -0.00000200 0.00000000 0.00000000 1.57074300 -1.56713700 -1.57074300
2 4.25546800 -0.33518300 -0.00000200 0.00000000 0.00000000 -0.12484800
3 7.43124800 1.49647700 0.00000200 0.00000000 0.00000000 0.24545000
4 5.27847900 0.16554100 0.00000100 0.00000000 0.00000000 0.04851100
5 4.00252383 -4.95842208 2.60065756 1.97586400 1.15990900 -1.29878600
6 -6.21448200 -0.00000700 -0.00002700 -2.83323078 -0.42406584 1.05848710
7 11.94488200 0.00000000 0.00000100 0.07007535 -0.25076904 0.57220701
8 10.62018100 0.00000200 0.00000000 1.03152696 0.21663761 -3.01055211
9 -4.75110600 -0.69449400 0.83057700 0.01571000 -0.16543500 0.43812000
10 -1.68806800 0.00004600 -0.00003200 0.01457400 -0.01993700 0.80788900
11 -1.33614000 0.00005700 -0.00001200 0.02114300 -0.01573300 1.19424300
12 -4.82049400 -0.50946000 -0.22475900 -0.29733500 -0.05057600 1.32850400
13 -1.82699200 -0.00006400 0.00000600 0.00421900 0.04026900 1.37882300
14 -1.43657300 0.00000600 0.00000200 -0.05454800 -0.05545500 0.68560300
15 -3.99235500 -0.89118800 -1.82790900 -0.52370500 0.13815700 1.09576700
16 -1.40591800 -0.00002500 -0.00000300 -0.01630900 -0.02456400 1.46015900
17 -1.17535800 0.00012800 -0.00002000 0.04970300 0.04625500 0.72560100
18 -4.52675100 -0.69057500 -1.12074400 -0.36124800 0.11255600 1.35155400
19 -1.74403800 0.00003300 -0.00000800 -0.02649400 -0.01314800 1.52325100
20 -1.36877100 0.00002500 0.00000200 0.02081800 0.04817500 0.30338500
21 -1.87480000 -0.93512500 0.99917400 2.03358000 0.44787100 0.71499600
22 -1.52345300 0.00003200 0.00003100 0.08365400 0.15258100 0.60551300
23 -1.59928500 0.00000400 0.00001600 0.03405500 -0.02608500 0.63444600
24 5.58312549 0.11572600 0.29499951 2.70854400 -0.05523500 3.09750200
25 0.19684700 -0.00000100 0.00000300 2.79340698 -0.00028757 -3.14151542
26 1.29243000 -15.31615700 -2.15135800 1.97586200 1.15990900 1.84280300
27 6.21448500 0.00000600 0.00002000 -0.88224438 0.95730306 -1.65271395
28 11.94488500 -0.00002900 -0.00019400 -0.90464812 -0.29363964 -1.84700684
29 10.62016600 0.00000200 0.00001000 -1.97143073 -0.74554494 0.29358175
30 4.75115600 0.69437600 -0.83047300 -0.35541600 -0.40076200 0.96512700
31 1.68806500 -0.00002600 0.00000200 -0.00367600 -0.02375600 1.75077900
32 1.33615100 -0.00005100 -0.00000900 0.03096200 -0.02321100 -0.55646100
33 4.82051300 0.50934000 0.22486500 -0.51051400 -0.29296900 1.25320400
34 1.82699600 0.00006600 0.00000800 0.01740600 0.03653900 1.71901600
35 1.43657700 -0.00001000 0.00000700 0.01508100 0.00113100 -0.80048000
36 3.99235300 0.89108700 1.82799400 -0.59409300 0.14997600 1.42316900
37 1.40591800 0.00002100 -0.00000700 -0.02571600 -0.01440300 1.93866100
38 1.17536900 -0.00013100 0.00000200 0.10276000 0.06814600 0.94199700
39 4.52675600 0.69046000 1.12084200 -0.54396700 0.08405600 1.61621100
40 1.74404100 -0.00003100 -0.00000200 -0.02193600 -0.01984600 1.24733900
41 1.36876300 -0.00003100 -0.00001700 -0.10584200 0.11837400 -0.91845200
42 1.93928198 1.01468951 -0.90910246 1.40068400 0.75422800 0.39461500
43 1.52344900 -0.00003400 -0.00000300 -0.00578400 -0.08060400 0.05769500
44 1.59928100 -0.00000200 0.00000900 0.03666200 0.07497700 -0.28908900
45 5.51180600 -0.00000200 0.00000600 -0.68868500 0.00000000 0.00000000
46 0.19685000 0.00000300 -0.00000200 -0.34822500 0.00001500 -0.00000200
47 0.00000000 0.00000000 0.00000000 0.00000000 0.00000000 -1.57079600
48 -3.47734200 5.97447700 -4.02610900 0.00000000 0.00000000 -3.14156200
49 -6.91350953 21.30619271 -1.82865147 0.36750628 0.01428415 -0.77676491
50 5.51835767 0.03441715 -3.47640745 0.54237100 1.11856900 1.82356300
51 -1.88195000 -0.01178200 0.03357100 0.00000000 0.00000000 0.00000000
52 0.01125900 -0.01178200 0.16934900 0.00000000 0.00000000 0.00000000
53 -0.02757200 0.00000000 0.20638000 0.00000000 0.00000000 0.00000000
54 -1.26834800 -0.01178200 1.78904500 0.00000000 0.00000000 0.00000000
55 -4.82520500 -2.17145400 -2.49543300 -3.06199100 0.99804500 -2.35750200
time 6
0 -0.00000100 7.45008900 -27.50902600 0.00000000 0.00000000 0.00003100
1 -0.00000200 0.00000000 0.00000000 1.57074300 -1.56713700 -1.57074300
2 4.25546800 -0.33518300 -0.00000200 0.00000000 0.00000000 -0.12484800
3 7.43124800 1.49647700 0.00000200 0.00000000 0.00000000 0.24545000
4 5.27847900 0.16554100 0.00000100 0.00000000 0.00000000 0.04851100
5 4.00252383 -4.95842208 2.60065756 1.97586400 1.15990900 -1.29878600
6 -6.21448200 -0.00000700 -0.00002700 -2.81177778 -0.43321469 1.06924158
7 11.94488200 0.00000000 0.00000100 0.06349589 -0.24825569 0.60502355
8 10.62018100 0.00000200 0.00000000 1.07107702 0.21806802 -3.06407658
9 -4.75110600 -0.69449400 0.83057700 0.01571000 -0.16543500 0.43812000
10 -1.68806800 0.00004600 -0.00003200 0.01457400 -0.01993700 0.80788900
11 -1.33614000 0.00005700 -0.00001200 0.02114300 -0.01573300 1.19424300
12 -4.82049400 -0.50946000 -0.22475900 -0.29733500 -0.05057600 1.32850400
13 -1.82699200 -0.00006400 0.00000600 0.00421900 0.04026900 1.37882300
14 -1.43657300 0.00000600 0.00000200 -0.05454800 -0.05545500 0.68560300
15 -3.99235500 -0.89118800 -1.82790900 -0.52370500 0.13815700 1.09576700
16 -1.40591800 -0.00002500 -0.00000300 -0.01630900 -0.02456400 1.46015900
17 -1.17535800 0.00012800 -0.00002000 0.04970300 0.04625500 0.72560100
18 -4.52675100 -0.69057500 -1.12074400 -0.36124800 0.11255600 1.35155400
19 -1.74403800 0.00003300 -0.00000800 -0.02649400 -0.01314800 1.52325100
20 -1.36877100 0.00002500 0.00000200 0.02081800 0.04817500 0.30338500
21 -1.87480000 -0.93512500 0.99917400 2.03358000 0.44787100 0.71499600
22 -1.52345300 0.00003200 0.00003100 0.08365400 0.15258100 0.60551300
23 -1.59928500 0.00000400 0.00001600 0.03405500 -0.02608500 0.63444600
24 5.58312549 0.11572600 0.29499951 2.70854400 -0.05523500 3.09750200
25 0.19684700 -0.00000100 0.00000300 2.79340698 -0.00028757 -3.14151542
26 1.29243000 -15.31615700 -2.15135800 1.97586200 1.15990900 1.84280300
27 6.21448500 0.00000600 0.00002000 -0.83115316 0.94295187 -1.62341821
28 11.94488500 -0.00002900 -0.00019400 -0.91687047 -0.27798173 -1.80880453
29 10.62016600 0.00000200 0.00001000 -2.05050340 -0.72830945 0.30677386
30 4.75115600 0.69437600 -0.83047300 -0.35541600 -0.40076200 0.96512700
31 1.68806500 -0.00002600 0.00000200 -0.00367600 -0.02375600 1.75077900
32 1.33615100 -0.00005100 -0.00000900 0.03096200 -0.02321100 -0.55646100
33 4.82051300 0.50934000 0.22486500 -0.51051400 -0.29296900 1.25320400
34 1.82699600 0.00006600 0.00000800 0.01740600 0.03653900 1.71901600
35 1.43657700 -0.00001000 0.00000700 0.01508100 0.00113100 -0.80048000
36 3.99235300 0.89108700 1.82799400 -0.59409300 0.14997600 1.42316900
37 1.40591800 0.00002100 -0.00000700 -0.02571600 -0.01440300 1.93866100
38 1.17536900 -0.00013100 0.00000200 0.10276000 0.06814600 0.94199700
39 4.52675600 0.69046000 1.12084200 -0.54396700 0.08405600 1.61621100
40 1.74404100 -0.00003100 -0.00000200 -0.02193600 -0.01984600 1.24733900
41 1.36876300 -0.00003100 -0.00001700 -0.10584200 0.11837400 -0.91845200
42 1.93928198 1.01468951 -0.90910246 1.40068400 0.75422800 0.39461500
43 1.52344900 -0.00003400 -0.00000300 -0.00578400 -0.08060400 0.05769500
44 1.59928100 -0.00000200 0.00000900 0.03666200 0.07497700 -0.28908900
45 5.51180600 -0.00000200 0.00000600 -0.68868500 0.00000000 0.00000000
46 0.19685000 0.00000300 -0.00000200 -0.34822500 0.00001500 -0.00000200
47 0.00000000 0.00000000 0.00000000 0.00000000 0.00000000 -1.57079600
48 -3.47734200 5.97447700 -4.02610900 0.00000000 0.00000000 -3.14156200
49 -6.82348124 21.44136788 -1.89607393 0.37134447 -0.00672088 -0.82380970
50 5.67966613 0.01803236 -3.44886035 0.54237100 1.11856900 1.82356300
51 -1.88195000 -0.01178200 0.03357100 0.00000000 0.00000000 0.00000000
52 0.01125900 -0.01178200 0.16934900 0.00000000 0.00000000 0.00000000
53 -0.02757200 0.00000000 0.20638000 0.00000000 0.00000000 0.00000000
54 -1.26834800 -0.01178200 1.78904500 0.00000000 0.00000000 0.00000000
55 -4.82520500 -2.17145400 -2.49543300 -3.06199100 0.99804500 -2.35750200
time 7
0 -0.00000100 7.45008900 -27.50902600 0.00000000 0.00000000 0.00003100
1 -0.00000200 0.00000000 0.00000000 1.57074300 -1.56713700 -1.57074300
2 4.25546800 -0.33518300 -0.00000200 0.00000000 0.00000000 -0.12484800
3 7.43124800 1.49647700 0.00000200 0.00000000 0.00000000 0.24545000
4 5.27847900 0.16554100 0.00000100 0.00000000 0.00000000 0.04851100
5 4.00252383 -4.95842208 2.60065756 1.97586400 1.15990900 -1.29878600
6 -6.21448200 -0.00000700 -0.00002700 -2.79944963 -0.46341659 1.10439216
7 11.94488200 0.00000000 0.00000100 0.04374439 -0.26127766 0.69408371
8 10.62018100 0.00000200 0.00000000 1.10418734 0.23676724 3.09798684
9 -4.75110600 -0.69449400 0.83057700 0.01571000 -0.16543500 0.43812000
10 -1.68806800 0.00004600 -0.00003200 0.01457400 -0.01993700 0.80788900
11 -1.33614000 0.00005700 -0.00001200 0.02114300 -0.01573300 1.19424300
12 -4.82049400 -0.50946000 -0.22475900 -0.29733500 -0.05057600 1.32850400
13 -1.82699200 -0.00006400 0.00000600 0.00421900 0.04026900 1.37882300
14 -1.43657300 0.00000600 0.00000200 -0.05454800 -0.05545500 0.68560300
15 -3.99235500 -0.89118800 -1.82790900 -0.52370500 0.13815700 1.09576700
16 -1.40591800 -0.00002500 -0.00000300 -0.01630900 -0.02456400 1.46015900
17 -1.17535800 0.00012800 -0.00002000 0.04970300 0.04625500 0.72560100
18 -4.52675100 -0.69057500 -1.12074400 -0.36124800 0.11255600 1.35155400
19 -1.74403800 0.00003300 -0.00000800 -0.02649400 -0.01314800 1.52325100
20 -1.36877100 0.00002500 0.00000200 0.02081800 0.04817500 0.30338500
21 -1.87480000 -0.93512500 0.99917400 2.03358000 0.44787100 0.71499600
22 -1.52345300 0.00003200 0.00003100 0.08365400 0.15258100 0.60551300
23 -1.59928500 0.00000400 0.00001600 0.03405500 -0.02608500 0.63444600
24 5.58312549 0.11572600 0.29499951 2.70854400 -0.05523500 3.09750200
25 0.19684700 -0.00000100 0.00000300 2.79340698 -0.00028757 -3.14151542
26 1.29243000 -15.31615700 -2.15135800 1.97586200 1.15990900 1.84280300
27 6.21448500 0.00000600 0.00002000 -0.75720987 0.91998612 -1.60364608
28 11.94488500 -0.00002900 -0.00019400 -0.93530382 -0.25838062 -1.75395979
29 10.62016600 0.00000200 0.00001000 -2.15332354 -0.70274071 0.33746805
30 4.75115600 0.69437600 -0.83047300 -0.35541600 -0.40076200 0.96512700
31 1.68806500 -0.00002600 0.00000200 -0.00367600 -0.02375600 1.75077900
32 1.33615100 -0.00005100 -0.00000900 0.03096200 -0.02321100 -0.55646100
33 4.82051300 0.50934000 0.22486500 -0.51051400 -0.29296900 1.25320400
34 1.82699600 0.00006600 0.00000800 0.01740600 0.03653900 1.71901600
35 1.43657700 -0.00001000 0.00000700 0.01508100 0.00113100 -0.80048000
36 3.99235300 0.89108700 1.82799400 -0.59409300 0.14997600 1.42316900
37 1.40591800 0.00002100 -0.00000700 -0.02571600 -0.01440300 1.93866100
38 1.17536900 -0.00013100 0.00000200 0.10276000 0.06814600 0.94199700
39 4.52675600 0.69046000 1.12084200 -0.54396700 0.08405600 1.61621100
40 1.74404100 -0.00003100 -0.00000200 -0.02193600 -0.01984600 1.24733900
41 1.36876300 -0.00003100 -0.00001700 -0.10584200 0.11837400 -0.91845200
42 1.93928198 1.01468951 -0.90910246 1.40068400 0.75422800 0.39461500
43 1.52344900 -0.00003400 -0.00000300 -0.00578400 -0.08060400 0.05769500
44 1.59928100 -0.00000200 0.00000900 0.03666200 0.07497700 -0.28908900
45 5.51180600 -0.00000200 0.00000600 -0.68868500 0.00000000 0.00000000
46 0.19685000 0.00000300 -0.00000200 -0.34822500 0.00001500 -0.00000200
47 0.00000000 0.00000000 0.00000000 0.00000000 0.00000000 -1.57079600
48 -3.47734200 5.97447700 -4.02610900 0.00000000 0.00000000 -3.14156200
49 -6.47434010 21.58224961 -2.01679301 0.35792808 -0.03504150 -0.91258218
50 5.82167717 0.01263337 -3.42428440 0.54237100 1.11856900 1.82356300
51 -1.88195000 -0.01178200 0.03357100 0.00000000 0.00000000 0.00000000
52 0.01125900 -0.01178200 0.16934900 0.00000000 0.00000000 0.00000000
53 -0.02757200 0.00000000 0.20638000 0.00000000 0.00000000 0.00000000
54 -1.26834800 -0.01178200 1.78904500 0.00000000 0.00000000 0.00000000
55 -4.82520500 -2.17145400 -2.49543300 -3.06199100 0.99804500 -2.35750200
time 8
0 -0.00000100 7.45008900 -27.50902600 0.00000000 0.00000000 0.00003100
1 -0.00000200 0.00000000 0.00000000 1.57074300 -1.56713700 -1.57074300
2 4.25546800 -0.33518300 -0.00000200 0.00000000 0.00000000 -0.12484800
3 7.43124800 1.49647700 0.00000200 0.00000000 0.00000000 0.24545000
4 5.27847900 0.16554100 0.00000100 0.00000000 0.00000000 0.04851100
5 4.00252383 -4.95842208 2.60065756 1.97586400 1.15990900 -1.29878600
6 -6.21448200 -0.00000700 -0.00002700 -2.79488037 -0.49052984 1.13513105
7 11.94488200 0.00000000 0.00000100 0.02294658 -0.27251636 0.78008751
8 10.62018100 0.00000200 0.00000000 1.10802574 0.25921609 2.95556116
9 -4.75110600 -0.69449400 0.83057700 0.01571000 -0.16543500 0.43812000
10 -1.68806800 0.00004600 -0.00003200 0.01457400 -0.01993700 0.80788900
11 -1.33614000 0.00005700 -0.00001200 0.02114300 -0.01573300 1.19424300
12 -4.82049400 -0.50946000 -0.22475900 -0.29733500 -0.05057600 1.32850400
13 -1.82699200 -0.00006400 0.00000600 0.00421900 0.04026900 1.37882300
14 -1.43657300 0.00000600 0.00000200 -0.05454800 -0.05545500 0.68560300
15 -3.99235500 -0.89118800 -1.82790900 -0.52370500 0.13815700 1.09576700
16 -1.40591800 -0.00002500 -0.00000300 -0.01630900 -0.02456400 1.46015900
17 -1.17535800 0.00012800 -0.00002000 0.04970300 0.04625500 0.72560100
18 -4.52675100 -0.69057500 -1.12074400 -0.36124800 0.11255600 1.35155400
19 -1.74403800 0.00003300 -0.00000800 -0.02649400 -0.01314800 1.52325100
20 -1.36877100 0.00002500 0.00000200 0.02081800 0.04817500 0.30338500
21 -1.87480000 -0.93512500 0.99917400 2.03358000 0.44787100 0.71499600
22 -1.52345300 0.00003200 0.00003100 0.08365400 0.15258100 0.60551300
23 -1.59928500 0.00000400 0.00001600 0.03405500 -0.02608500 0.63444600
24 5.58312598 0.11572649 0.29499951 2.70854400 -0.05523500 3.09750200
25 0.19684700 -0.00000100 0.00000300 2.79340698 -0.00028757 -3.14151542
26 1.29243000 -15.31615700 -2.15135800 1.97586200 1.15990900 1.84280300
27 6.21448500 0.00000600 0.00002000 -0.71512427 0.90533207 -1.61146624
28 11.94488500 -0.00002900 -0.00019400 -0.95236832 -0.24382791 -1.70514408
29 10.62016600 0.00000200 0.00001000 -2.23258903 -0.67753001 0.39084498
30 4.75115600 0.69437600 -0.83047300 -0.35541600 -0.40076200 0.96512700
31 1.68806500 -0.00002600 0.00000200 -0.00367600 -0.02375600 1.75077900
32 1.33615100 -0.00005100 -0.00000900 0.03096200 -0.02321100 -0.55646100
33 4.82051300 0.50934000 0.22486500 -0.51051400 -0.29296900 1.25320400
34 1.82699600 0.00006600 0.00000800 0.01740600 0.03653900 1.71901600
35 1.43657700 -0.00001000 0.00000700 0.01508100 0.00113100 -0.80048000
36 3.99235300 0.89108700 1.82799400 -0.59409300 0.14997600 1.42316900
37 1.40591800 0.00002100 -0.00000700 -0.02571600 -0.01440300 1.93866100
38 1.17536900 -0.00013100 0.00000200 0.10276000 0.06814600 0.94199700
39 4.52675600 0.69046000 1.12084200 -0.54396700 0.08405600 1.61621100
40 1.74404100 -0.00003100 -0.00000200 -0.02193600 -0.01984600 1.24733900
41 1.36876300 -0.00003100 -0.00001700 -0.10584200 0.11837400 -0.91845200
42 1.93928051 1.01468902 -0.90910295 1.40068400 0.75422800 0.39461500
43 1.52344900 -0.00003400 -0.00000300 -0.00578400 -0.08060400 0.05769500
44 1.59928100 -0.00000200 0.00000900 0.03666200 0.07497700 -0.28908900
45 5.51180600 -0.00000200 0.00000600 -0.68868500 0.00000000 0.00000000
46 0.19685000 0.00000300 -0.00000200 -0.34822500 0.00001500 -0.00000200
47 0.00000000 0.00000000 0.00000000 0.00000000 0.00000000 -1.57079600
48 -3.47734200 5.97447700 -4.02610900 0.00000000 0.00000000 -3.14156200
49 -6.10468123 21.72304483 -2.11884215 0.32545897 -0.07395868 -1.00368965
50 5.86779894 0.02030091 -3.47381786 0.54237100 1.11856900 1.82356300
51 -1.88195000 -0.01178200 0.03357100 0.00000000 0.00000000 0.00000000
52 0.01125900 -0.01178200 0.16934900 0.00000000 0.00000000 0.00000000
53 -0.02757200 0.00000000 0.20638000 0.00000000 0.00000000 0.00000000
54 -1.26834800 -0.01178200 1.78904500 0.00000000 0.00000000 0.00000000
55 -4.82520500 -2.17145400 -2.49543300 -3.06199100 0.99804500 -2.35750200
time 9
0 -0.00000100 7.45008900 -27.50902600 0.00000000 0.00000000 0.00003100
1 -0.00000200 0.00000000 0.00000000 1.57074300 -1.56713700 -1.57074300
2 4.25546800 -0.33518300 -0.00000200 0.00000000 0.00000000 -0.12484800
3 7.43124800 1.49647700 0.00000200 0.00000000 0.00000000 0.24545000
4 5.27847900 0.16554100 0.00000100 0.00000000 0.00000000 0.04851100
5 4.00252383 -4.95842208 2.60065756 1.97586400 1.15990900 -1.29878600
6 -6.21448200 -0.00000700 -0.00002700 -2.79714533 -0.50902675 1.16134568
7 11.94488200 0.00000000 0.00000100 0.00558613 -0.28129619 0.84852435
8 10.62018100 0.00000200 0.00000000 1.09701963 0.27883566 2.82496064
9 -4.75110600 -0.69449400 0.83057700 0.01571000 -0.16543500 0.43812000
10 -1.68806800 0.00004600 -0.00003200 0.01457400 -0.01993700 0.80788900
11 -1.33614000 0.00005700 -0.00001200 0.02114300 -0.01573300 1.19424300
12 -4.82049400 -0.50946000 -0.22475900 -0.29733500 -0.05057600 1.32850400
13 -1.82699200 -0.00006400 0.00000600 0.00421900 0.04026900 1.37882300
14 -1.43657300 0.00000600 0.00000200 -0.05454800 -0.05545500 0.68560300
15 -3.99235500 -0.89118800 -1.82790900 -0.52370500 0.13815700 1.09576700
16 -1.40591800 -0.00002500 -0.00000300 -0.01630900 -0.02456400 1.46015900
17 -1.17535800 0.00012800 -0.00002000 0.04970300 0.04625500 0.72560100
18 -4.52675100 -0.69057500 -1.12074400 -0.36124800 0.11255600 1.35155400
19 -1.74403800 0.00003300 -0.00000800 -0.02649400 -0.01314800 1.52325100
20 -1.36877100 0.00002500 0.00000200 0.02081800 0.04817500 0.30338500
21 -1.87480000 -0.93512500 0.99917400 2.03358000 0.44787100 0.71499600
22 -1.52345300 0.00003200 0.00003100 0.08365400 0.15258100 0.60551300
23 -1.59928500 0.00000400 0.00001600 0.03405500 -0.02608500 0.63444600
24 5.58312598 0.11572649 0.29499951 2.70854400 -0.05523500 3.09750200
25 0.19684700 -0.00000100 0.00000300 2.79340698 -0.00028757 -3.14151542
26 1.29243000 -15.31615700 -2.15135800 1.97586200 1.15990900 1.84280300
27 6.21448500 0.00000600 0.00002000 -0.69199000 0.89561237 -1.63797798
28 11.94488500 -0.00002900 -0.00019400 -0.96837216 -0.23703927 -1.66081164
29 10.62016600 0.00000200 0.00001000 -2.28572431 -0.65387988 0.43937648
30 4.75115600 0.69437600 -0.83047300 -0.35541600 -0.40076200 0.96512700
31 1.68806500 -0.00002600 0.00000200 -0.00367600 -0.02375600 1.75077900
32 1.33615100 -0.00005100 -0.00000900 0.03096200 -0.02321100 -0.55646100
33 4.82051300 0.50934000 0.22486500 -0.51051400 -0.29296900 1.25320400
34 1.82699600 0.00006600 0.00000800 0.01740600 0.03653900 1.71901600
35 1.43657700 -0.00001000 0.00000700 0.01508100 0.00113100 -0.80048000
36 3.99235300 0.89108700 1.82799400 -0.59409300 0.14997600 1.42316900
37 1.40591800 0.00002100 -0.00000700 -0.02571600 -0.01440300 1.93866100
38 1.17536900 -0.00013100 0.00000200 0.10276000 0.06814600 0.94199700
39 4.52675600 0.69046000 1.12084200 -0.54396700 0.08405600 1.61621100
40 1.74404100 -0.00003100 -0.00000200 -0.02193600 -0.01984600 1.24733900
41 1.36876300 -0.00003100 -0.00001700 -0.10584200 0.11837400 -0.91845200
42 1.93928051 1.01468902 -0.90910295 1.40068400 0.75422800 0.39461500
43 1.52344900 -0.00003400 -0.00000300 -0.00578400 -0.08060400 0.05769500
44 1.59928100 -0.00000200 0.00000900 0.03666200 0.07497700 -0.28908900
45 5.51180600 -0.00000200 0.00000600 -0.68868500 0.00000000 0.00000000
46 0.19685000 0.00000300 -0.00000200 -0.34822500 0.00001500 -0.00000200
47 0.00000000 0.00000000 0.00000000 0.00000000 0.00000000 -1.57079600
48 -3.47734200 5.97447700 -4.02610900 0.00000000 0.00000000 -3.14156200
49 -5.70251739 21.85874284 -2.18808789 0.29361800 -0.11304820 -1.08498944
50 5.83566017 0.03100892 -3.55203859 0.54237100 1.11856900 1.82356300
51 -1.88195000 -0.01178200 0.03357100 0.00000000 0.00000000 0.00000000
52 0.01125900 -0.01178200 0.16934900 0.00000000 0.00000000 0.00000000
53 -0.02757200 0.00000000 0.20638000 0.00000000 0.00000000 0.00000000
54 -1.26834800 -0.01178200 1.78904500 0.00000000 0.00000000 0.00000000
55 -4.82520500 -2.17145400 -2.49543300 -3.06199100 0.99804500 -2.35750200
time 10
0 -0.00000100 7.45008900 -27.50902600 0.00000000 0.00000000 0.00003100
1 -0.00000200 0.00000000 0.00000000 1.57074300 -1.56713700 -1.57074300
2 4.25546800 -0.33518300 -0.00000200 0.00000000 0.00000000 -0.12484800
3 7.43124800 1.49647700 0.00000200 0.00000000 0.00000000 0.24545000
4 5.27847900 0.16554100 0.00000100 0.00000000 0.00000000 0.04851100
5 4.00252383 -4.95842208 2.60065756 1.97586400 1.15990900 -1.29878600
6 -6.21448200 -0.00000700 -0.00002700 -2.80895994 -0.52294383 1.18971230
7 11.94488200 0.00000000 0.00000100 -0.00748880 -0.29289411 0.89802224
8 10.62018100 0.00000200 0.00000000 1.07657793 0.30256835 2.73182778
9 -4.75110600 -0.69449400 0.83057700 0.01571000 -0.16543500 0.43812000
10 -1.68806800 0.00004600 -0.00003200 0.01457400 -0.01993700 0.80788900
11 -1.33614000 0.00005700 -0.00001200 0.02114300 -0.01573300 1.19424300
12 -4.82049400 -0.50946000 -0.22475900 -0.29733500 -0.05057600 1.32850400
13 -1.82699200 -0.00006400 0.00000600 0.00421900 0.04026900 1.37882300
14 -1.43657300 0.00000600 0.00000200 -0.05454800 -0.05545500 0.68560300
15 -3.99235500 -0.89118800 -1.82790900 -0.52370500 0.13815700 1.09576700
16 -1.40591800 -0.00002500 -0.00000300 -0.01630900 -0.02456400 1.46015900
17 -1.17535800 0.00012800 -0.00002000 0.04970300 0.04625500 0.72560100
18 -4.52675100 -0.69057500 -1.12074400 -0.36124800 0.11255600 1.35155400
19 -1.74403800 0.00003300 -0.00000800 -0.02649400 -0.01314800 1.52325100
20 -1.36877100 0.00002500 0.00000200 0.02081800 0.04817500 0.30338500
21 -1.87480000 -0.93512500 0.99917400 2.03358000 0.44787100 0.71499600
22 -1.52345300 0.00003200 0.00003100 0.08365400 0.15258100 0.60551300
23 -1.59928500 0.00000400 0.00001600 0.03405500 -0.02608500 0.63444600
24 5.58312598 0.11572649 0.29499951 2.70854400 -0.05523500 3.09750200
25 0.19684700 -0.00000100 0.00000300 2.79340698 -0.00028757 -3.14151542
26 1.29243000 -15.31615700 -2.15135800 1.97586200 1.15990900 1.84280300
27 6.21448500 0.00000600 0.00002000 -0.67197708 0.88040565 -1.68167382
28 11.94488500 -0.00002900 -0.00019400 -0.98576415 -0.24352043 -1.61223088
29 10.62016600 0.00000200 0.00001000 -2.30484584 -0.63104316 0.46107535
30 4.75115600 0.69437600 -0.83047300 -0.35541600 -0.40076200 0.96512700
31 1.68806500 -0.00002600 0.00000200 -0.00367600 -0.02375600 1.75077900
32 1.33615100 -0.00005100 -0.00000900 0.03096200 -0.02321100 -0.55646100
33 4.82051300 0.50934000 0.22486500 -0.51051400 -0.29296900 1.25320400
34 1.82699600 0.00006600 0.00000800 0.01740600 0.03653900 1.71901600
35 1.43657700 -0.00001000 0.00000700 0.01508100 0.00113100 -0.80048000
36 3.99235300 0.89108700 1.82799400 -0.59409300 0.14997600 1.42316900
37 1.40591800 0.00002100 -0.00000700 -0.02571600 -0.01440300 1.93866100
38 1.17536900 -0.00013100 0.00000200 0.10276000 0.06814600 0.94199700
39 4.52675600 0.69046000 1.12084200 -0.54396700 0.08405600 1.61621100
40 1.74404100 -0.00003100 -0.00000200 -0.02193600 -0.01984600 1.24733900
41 1.36876300 -0.00003100 -0.00001700 -0.10584200 0.11837400 -0.91845200
42 1.93928051 1.01468902 -0.90910295 1.40068400 0.75422800 0.39461500
43 1.52344900 -0.00003400 -0.00000300 -0.00578400 -0.08060400 0.05769500
44 1.59928100 -0.00000200 0.00000900 0.03666200 0.07497700 -0.28908900
45 5.51180600 -0.00000200 0.00000600 -0.68868500 0.00000000 0.00000000
46 0.19685000 0.00000300 -0.00000200 -0.34822500 0.00001500 -0.00000200
47 0.00000000 0.00000000 0.00000000 0.00000000 0.00000000 -1.57079600
48 -3.47734200 5.97447700 -4.02610900 0.00000000 0.00000000 -3.14156200
49 -5.17021196 21.98510557 -2.23336477 0.26719230 -0.13206288 -1.15389052
50 5.76030930 0.03832492 -3.56616810 0.54237100 1.11856900 1.82356300
51 -1.88195000 -0.01178200 0.03357100 0.00000000 0.00000000 0.00000000
52 0.01125900 -0.01178200 0.16934900 0.00000000 0.00000000 0.00000000
53 -0.02757200 0.00000000 0.20638000 0.00000000 0.00000000 0.00000000
54 -1.26834800 -0.01178200 1.78904500 0.00000000 0.00000000 0.00000000
55 -4.82520500 -2.17145400 -2.49543300 -3.06199100 0.99804500 -2.35750200
time 11
0 -0.00000100 7.45008900 -27.50902600 0.00000000 0.00000000 0.00003100
1 -0.00000200 0.00000000 0.00000000 1.57074300 -1.56713700 -1.57074300
2 4.25546800 -0.33518300 -0.00000200 0.00000000 0.00000000 -0.12484800
3 7.43124800 1.49647700 0.00000200 0.00000000 0.00000000 0.24545000
4 5.27847900 0.16554100 0.00000100 0.00000000 0.00000000 0.04851100
5 4.00252383 -4.95842208 2.60065756 1.97586400 1.15990900 -1.29878600
6 -6.21448200 -0.00000700 -0.00002700 -2.82813936 -0.53125793 1.21879025
7 11.94488200 0.00000000 0.00000100 -0.01796424 -0.30612965 0.93585234
8 10.62018100 0.00000200 0.00000000 1.04596802 0.32522542 2.65786801
9 -4.75110600 -0.69449400 0.83057700 0.01571000 -0.16543500 0.43812000
10 -1.68806800 0.00004600 -0.00003200 0.01457400 -0.01993700 0.80788900
11 -1.33614000 0.00005700 -0.00001200 0.02114300 -0.01573300 1.19424300
12 -4.82049400 -0.50946000 -0.22475900 -0.29733500 -0.05057600 1.32850400
13 -1.82699200 -0.00006400 0.00000600 0.00421900 0.04026900 1.37882300
14 -1.43657300 0.00000600 0.00000200 -0.05454800 -0.05545500 0.68560300
15 -3.99235500 -0.89118800 -1.82790900 -0.52370500 0.13815700 1.09576700
16 -1.40591800 -0.00002500 -0.00000300 -0.01630900 -0.02456400 1.46015900
17 -1.17535800 0.00012800 -0.00002000 0.04970300 0.04625500 0.72560100
18 -4.52675100 -0.69057500 -1.12074400 -0.36124800 0.11255600 1.35155400
19 -1.74403800 0.00003300 -0.00000800 -0.02649400 -0.01314800 1.52325100
20 -1.36877100 0.00002500 0.00000200 0.02081800 0.04817500 0.30338500
21 -1.87480000 -0.93512500 0.99917400 2.03358000 0.44787100 0.71499600
22 -1.52345300 0.00003200 0.00003100 0.08365400 0.15258100 0.60551300
23 -1.59928500 0.00000400 0.00001600 0.03405500 -0.02608500 0.63444600
24 5.58312598 0.11572649 0.29499951 2.70854400 -0.05523500 3.09750200
25 0.19684700 -0.00000100 0.00000300 2.79340698 -0.00028757 -3.14151542
26 1.29243000 -15.31615700 -2.15135800 1.97586200 1.15990900 1.84280300
27 6.21448500 0.00000600 0.00002000 -0.65349557 0.85959339 -1.73303399
28 11.94488500 -0.00002900 -0.00019400 -1.00329529 -0.25855718 -1.56191916
29 10.62016600 0.00000200 0.00001000 -2.30875868 -0.61077697 0.47402144
30 4.75115600 0.69437600 -0.83047300 -0.35541600 -0.40076200 0.96512700
31 1.68806500 -0.00002600 0.00000200 -0.00367600 -0.02375600 1.75077900
32 1.33615100 -0.00005100 -0.00000900 0.03096200 -0.02321100 -0.55646100
33 4.82051300 0.50934000 0.22486500 -0.51051400 -0.29296900 1.25320400
34 1.82699600 0.00006600 0.00000800 0.01740600 0.03653900 1.71901600
35 1.43657700 -0.00001000 0.00000700 0.01508100 0.00113100 -0.80048000
36 3.99235300 0.89108700 1.82799400 -0.59409300 0.14997600 1.42316900
37 1.40591800 0.00002100 -0.00000700 -0.02571600 -0.01440300 1.93866100
38 1.17536900 -0.00013100 0.00000200 0.10276000 0.06814600 0.94199700
39 4.52675600 0.69046000 1.12084200 -0.54396700 0.08405600 1.61621100
40 1.74404100 -0.00003100 -0.00000200 -0.02193600 -0.01984600 1.24733900
41 1.36876300 -0.00003100 -0.00001700 -0.10584200 0.11837400 -0.91845200
42 1.93928051 1.01468902 -0.90910295 1.40068400 0.75422800 0.39461500
43 1.52344900 -0.00003400 -0.00000300 -0.00578400 -0.08060400 0.05769500
44 1.59928100 -0.00000200 0.00000900 0.03666200 0.07497700 -0.28908900
45 5.51180600 -0.00000200 0.00000600 -0.68868500 0.00000000 0.00000000
46 0.19685000 0.00000300 -0.00000200 -0.34822500 0.00001500 -0.00000200
47 0.00000000 0.00000000 0.00000000 0.00000000 0.00000000 -1.57079600
48 -3.47734200 5.97447700 -4.02610900 0.00000000 0.00000000 -3.14156200
49 -4.58855883 22.09792645 -2.22401971 0.24123703 -0.13957037 -1.21328340
50 5.64978706 0.05574270 -3.55226230 0.54237100 1.11856900 1.82356300
51 -1.88195000 -0.01178200 0.03357100 0.00000000 0.00000000 0.00000000
52 0.01125900 -0.01178200 0.16934900 0.00000000 0.00000000 0.00000000
53 -0.02757200 0.00000000 0.20638000 0.00000000 0.00000000 0.00000000
54 -1.26834800 -0.01178200 1.78904500 0.00000000 0.00000000 0.00000000
55 -4.82520500 -2.17145400 -2.49543300 -3.06199100 0.99804500 -2.35750200
time 12
0 -0.00000100 7.45008900 -27.50902600 0.00000000 0.00000000 0.00003100
1 -0.00000200 0.00000000 0.00000000 1.57074300 -1.56713700 -1.57074300
2 4.25546800 -0.33518300 -0.00000200 0.00000000 0.00000000 -0.12484800
3 7.43124800 1.49647700 0.00000200 0.00000000 0.00000000 0.24545000
4 5.27847900 0.16554100 0.00000100 0.00000000 0.00000000 0.04851100
5 4.00252383 -4.95842208 2.60065756 1.97586400 1.15990900 -1.29878600
6 -6.21448200 -0.00000700 -0.00002700 -2.83797894 -0.52869352 1.23809023
7 11.94488200 0.00000000 0.00000100 -0.02565657 -0.31393369 0.96295303
8 10.62018100 0.00000200 0.00000000 1.01937150 0.34418303 2.59576422
9 -4.75110600 -0.69449400 0.83057700 0.01571000 -0.16543500 0.43812000
10 -1.68806800 0.00004600 -0.00003200 0.01457400 -0.01993700 0.80788900
11 -1.33614000 0.00005700 -0.00001200 0.02114300 -0.01573300 1.19424300
12 -4.82049400 -0.50946000 -0.22475900 -0.29733500 -0.05057600 1.32850400
13 -1.82699200 -0.00006400 0.00000600 0.00421900 0.04026900 1.37882300
14 -1.43657300 0.00000600 0.00000200 -0.05454800 -0.05545500 0.68560300
15 -3.99235500 -0.89118800 -1.82790900 -0.52370500 0.13815700 1.09576700
16 -1.40591800 -0.00002500 -0.00000300 -0.01630900 -0.02456400 1.46015900
17 -1.17535800 0.00012800 -0.00002000 0.04970300 0.04625500 0.72560100
18 -4.52675100 -0.69057500 -1.12074400 -0.36124800 0.11255600 1.35155400
19 -1.74403800 0.00003300 -0.00000800 -0.02649400 -0.01314800 1.52325100
20 -1.36877100 0.00002500 0.00000200 0.02081800 0.04817500 0.30338500
21 -1.87480000 -0.93512500 0.99917400 2.03358000 0.44787100 0.71499600
22 -1.52345300 0.00003200 0.00003100 0.08365400 0.15258100 0.60551300
23 -1.59928500 0.00000400 0.00001600 0.03405500 -0.02608500 0.63444600
24 5.58312598 0.11572649 0.29499951 2.70854400 -0.05523500 3.09750200
25 0.19684700 -0.00000100 0.00000300 2.79340698 -0.00028757 -3.14151542
26 1.29243000 -15.31615700 -2.15135800 1.97586200 1.15990900 1.84280300
27 6.21448500 0.00000600 0.00002000 -0.65006020 0.83175486 -1.78902758
28 11.94488500 -0.00002900 -0.00019400 -1.01867005 -0.27761684 -1.51665025
29 10.62016600 0.00000200 0.00001000 -2.30749127 -0.59336289 0.49535350
30 4.75115600 0.69437600 -0.83047300 -0.35541600 -0.40076200 0.96512700
31 1.68806500 -0.00002600 0.00000200 -0.00367600 -0.02375600 1.75077900
32 1.33615100 -0.00005100 -0.00000900 0.03096200 -0.02321100 -0.55646100
33 4.82051300 0.50934000 0.22486500 -0.51051400 -0.29296900 1.25320400
34 1.82699600 0.00006600 0.00000800 0.01740600 0.03653900 1.71901600
35 1.43657700 -0.00001000 0.00000700 0.01508100 0.00113100 -0.80048000
36 3.99235300 0.89108700 1.82799400 -0.59409300 0.14997600 1.42316900
37 1.40591800 0.00002100 -0.00000700 -0.02571600 -0.01440300 1.93866100
38 1.17536900 -0.00013100 0.00000200 0.10276000 0.06814600 0.94199700
39 4.52675600 0.69046000 1.12084200 -0.54396700 0.08405600 1.61621100
40 1.74404100 -0.00003100 -0.00000200 -0.02193600 -0.01984600 1.24733900
41 1.36876300 -0.00003100 -0.00001700 -0.10584200 0.11837400 -0.91845200
42 1.93928051 1.01468902 -0.90910295 1.40068400 0.75422800 0.39461500
43 1.52344900 -0.00003400 -0.00000300 -0.00578400 -0.08060400 0.05769500
44 1.59928100 -0.00000200 0.00000900 0.03666200 0.07497700 -0.28908900
45 5.51180600 -0.00000200 0.00000600 -0.68868500 0.00000000 0.00000000
46 0.19685000 0.00000300 -0.00000200 -0.34822500 0.00001500 -0.00000200
47 0.00000000 0.00000000 0.00000000 0.00000000 0.00000000 -1.57079600
48 -3.47734200 5.97447700 -4.02610900 0.00000000 0.00000000 -3.14156200
49 -4.10371633 22.19299750 -2.02739671 0.21927569 -0.13960255 -1.26385163
50 5.54878299 0.08336798 -3.54421715 0.54237100 1.11856900 1.82356300
51 -1.88195000 -0.01178200 0.03357100 0.00000000 0.00000000 0.00000000
52 0.01125900 -0.01178200 0.16934900 0.00000000 0.00000000 0.00000000
53 -0.02757200 0.00000000 0.20638000 0.00000000 0.00000000 0.00000000
54 -1.26834800 -0.01178200 1.78904500 0.00000000 0.00000000 0.00000000
55 -4.82520500 -2.17145400 -2.49543300 -3.06199100 0.99804500 -2.35750200
time 13
0 -0.00000100 7.45008900 -27.50902600 0.00000000 0.00000000 0.00003100
1 -0.00000200 0.00000000 0.00000000 1.57074300 -1.56713700 -1.57074300
2 4.25546800 -0.33518300 -0.00000200 0.00000000 0.00000000 -0.12484800
3 7.43124800 1.49647700 0.00000200 0.00000000 0.00000000 0.24545000
4 5.27847900 0.16554100 0.00000100 0.00000000 0.00000000 0.04851100
5 4.00252383 -4.95842208 2.60065756 1.97586400 1.15990900 -1.29878600
6 -6.21448200 -0.00000700 -0.00002700 -2.83431414 -0.52097219 1.24772088
7 11.94488200 0.00000000 0.00000100 -0.03068367 -0.31692560 0.98030122
8 10.62018100 0.00000200 0.00000000 0.99921349 0.36094515 2.55101706
9 -4.75110600 -0.69449400 0.83057700 0.01571000 -0.16543500 0.43812000
10 -1.68806800 0.00004600 -0.00003200 0.01457400 -0.01993700 0.80788900
11 -1.33614000 0.00005700 -0.00001200 0.02114300 -0.01573300 1.19424300
12 -4.82049400 -0.50946000 -0.22475900 -0.29733500 -0.05057600 1.32850400
13 -1.82699200 -0.00006400 0.00000600 0.00421900 0.04026900 1.37882300
14 -1.43657300 0.00000600 0.00000200 -0.05454800 -0.05545500 0.68560300
15 -3.99235500 -0.89118800 -1.82790900 -0.52370500 0.13815700 1.09576700
16 -1.40591800 -0.00002500 -0.00000300 -0.01630900 -0.02456400 1.46015900
17 -1.17535800 0.00012800 -0.00002000 0.04970300 0.04625500 0.72560100
18 -4.52675100 -0.69057500 -1.12074400 -0.36124800 0.11255600 1.35155400
19 -1.74403800 0.00003300 -0.00000800 -0.02649400 -0.01314800 1.52325100
20 -1.36877100 0.00002500 0.00000200 0.02081800 0.04817500 0.30338500
21 -1.87480000 -0.93512500 0.99917400 2.03358000 0.44787100 0.71499600
22 -1.52345300 0.00003200 0.00003100 0.08365400 0.15258100 0.60551300
23 -1.59928500 0.00000400 0.00001600 0.03405500 -0.02608500 0.63444600
24 5.58312598 0.11572649 0.29499951 2.70854400 -0.05523500 3.09750200
25 0.19684700 -0.00000100 0.00000300 2.79340698 -0.00028757 -3.14151542
26 1.29243000 -15.31615700 -2.15135800 1.97586200 1.15990900 1.84280300
27 6.21448500 0.00000600 0.00002000 -0.65809272 0.80004138 -1.84321849
28 11.94488500 -0.00002900 -0.00019400 -1.03141800 -0.29730991 -1.47827938
29 10.62016600 0.00000200 0.00001000 -2.29735493 -0.58124119 0.52169248
30 4.75115600 0.69437600 -0.83047300 -0.35541600 -0.40076200 0.96512700
31 1.68806500 -0.00002600 0.00000200 -0.00367600 -0.02375600 1.75077900
32 1.33615100 -0.00005100 -0.00000900 0.03096200 -0.02321100 -0.55646100
33 4.82051300 0.50934000 0.22486500 -0.51051400 -0.29296900 1.25320400
34 1.82699600 0.00006600 0.00000800 0.01740600 0.03653900 1.71901600
35 1.43657700 -0.00001000 0.00000700 0.01508100 0.00113100 -0.80048000
36 3.99235300 0.89108700 1.82799400 -0.59409300 0.14997600 1.42316900
37 1.40591800 0.00002100 -0.00000700 -0.02571600 -0.01440300 1.93866100
38 1.17536900 -0.00013100 0.00000200 0.10276000 0.06814600 0.94199700
39 4.52675600 0.69046000 1.12084200 -0.54396700 0.08405600 1.61621100
40 1.74404100 -0.00003100 -0.00000200 -0.02193600 -0.01984600 1.24733900
41 1.36876300 -0.00003100 -0.00001700 -0.10584200 0.11837400 -0.91845200
42 1.93928051 1.01468902 -0.90910295 1.40068400 0.75422800 0.39461500
43 1.52344900 -0.00003400 -0.00000300 -0.00578400 -0.08060400 0.05769500
44 1.59928100 -0.00000200 0.00000900 0.03666200 0.07497700 -0.28908900
45 5.51180600 -0.00000200 0.00000600 -0.68868500 0.00000000 0.00000000
46 0.19685000 0.00000300 -0.00000200 -0.34822500 0.00001500 -0.00000200
47 0.00000000 0.00000000 0.00000000 0.00000000 0.00000000 -1.57079600
48 -3.47734200 5.97447700 -4.02610900 0.00000000 0.00000000 -3.14156200
49 -3.70887257 22.26611390 -1.70708626 0.19725809 -0.13149407 -1.30284494
50 5.46692344 0.10970951 -3.53296045 0.54237100 1.11856900 1.82356300
51 -1.88195000 -0.01178200 0.03357100 0.00000000 0.00000000 0.00000000
52 0.01125900 -0.01178200 0.16934900 0.00000000 0.00000000 0.00000000
53 -0.02757200 0.00000000 0.20638000 0.00000000 0.00000000 0.00000000
54 -1.26834800 -0.01178200 1.78904500 0.00000000 0.00000000 0.00000000
55 -4.82520500 -2.17145400 -2.49543300 -3.06199100 0.99804500 -2.35750200
time 14
0 -0.00000100 7.45008900 -27.50902600 0.00000000 0.00000000 0.00003100
1 -0.00000200 0.00000000 0.00000000 1.57074300 -1.56713700 -1.57074300
2 4.25546800 -0.33518300 -0.00000200 0.00000000 0.00000000 -0.12484800
3 7.43124800 1.49647700 0.00000200 0.00000000 0.00000000 0.24545000
4 5.27847900 0.16554100 0.00000100 0.00000000 0.00000000 0.04851100
5 4.00252383 -4.95842208 2.60065756 1.97586400 1.15990900 -1.29878600
6 -6.21448200 -0.00000700 -0.00002700 -2.83070784 -0.51826230 1.25560416
7 11.94488200 0.00000000 0.00000100 -0.03330760 -0.31923379 0.98792983
8 10.62018100 0.00000200 0.00000000 0.97907784 0.37926839 2.53244756
9 -4.75110600 -0.69449400 0.83057700 0.01571000 -0.16543500 0.43812000
10 -1.68806800 0.00004600 -0.00003200 0.01457400 -0.01993700 0.80788900
11 -1.33614000 0.00005700 -0.00001200 0.02114300 -0.01573300 1.19424300
12 -4.82049400 -0.50946000 -0.22475900 -0.29733500 -0.05057600 1.32850400
13 -1.82699200 -0.00006400 0.00000600 0.00421900 0.04026900 1.37882300
14 -1.43657300 0.00000600 0.00000200 -0.05454800 -0.05545500 0.68560300
15 -3.99235500 -0.89118800 -1.82790900 -0.52370500 0.13815700 1.09576700
16 -1.40591800 -0.00002500 -0.00000300 -0.01630900 -0.02456400 1.46015900
17 -1.17535800 0.00012800 -0.00002000 0.04970300 0.04625500 0.72560100
18 -4.52675100 -0.69057500 -1.12074400 -0.36124800 0.11255600 1.35155400
19 -1.74403800 0.00003300 -0.00000800 -0.02649400 -0.01314800 1.52325100
20 -1.36877100 0.00002500 0.00000200 0.02081800 0.04817500 0.30338500
21 -1.87480000 -0.93512500 0.99917400 2.03358000 0.44787100 0.71499600
22 -1.52345300 0.00003200 0.00003100 0.08365400 0.15258100 0.60551300
23 -1.59928500 0.00000400 0.00001600 0.03405500 -0.02608500 0.63444600
24 5.58312598 0.11572649 0.29499951 2.70854400 -0.05523500 3.09750200
25 0.19684700 -0.00000100 0.00000300 2.79340698 -0.00028757 -3.14151542
26 1.29243000 -15.31615700 -2.15135800 1.97586200 1.15990900 1.84280300
27 6.21448500 0.00000600 0.00002000 -0.66321466 0.77424960 -1.88359611
28 11.94488500 -0.00002900 -0.00019400 -1.04228129 -0.31253871 -1.44544190
29 10.62016600 0.00000200 0.00001000 -2.27556555 -0.57171941 0.53317046
30 4.75115600 0.69437600 -0.83047300 -0.35541600 -0.40076200 0.96512700
31 1.68806500 -0.00002600 0.00000200 -0.00367600 -0.02375600 1.75077900
32 1.33615100 -0.00005100 -0.00000900 0.03096200 -0.02321100 -0.55646100
33 4.82051300 0.50934000 0.22486500 -0.51051400 -0.29296900 1.25320400
34 1.82699600 0.00006600 0.00000800 0.01740600 0.03653900 1.71901600
35 1.43657700 -0.00001000 0.00000700 0.01508100 0.00113100 -0.80048000
36 3.99235300 0.89108700 1.82799400 -0.59409300 0.14997600 1.42316900
37 1.40591800 0.00002100 -0.00000700 -0.02571600 -0.01440300 1.93866100
38 1.17536900 -0.00013100 0.00000200 0.10276000 0.06814600 0.94199700
39 4.52675600 0.69046000 1.12084200 -0.54396700 0.08405600 1.61621100
40 1.74404100 -0.00003100 -0.00000200 -0.02193600 -0.01984600 1.24733900
41 1.36876300 -0.00003100 -0.00001700 -0.10584200 0.11837400 -0.91845200
42 1.93928051 1.01468902 -0.90910295 1.40068400 0.75422800 0.39461500
43 1.52344900 -0.00003400 -0.00000300 -0.00578400 -0.08060400 0.05769500
44 1.59928100 -0.00000200 0.00000900 0.03666200 0.07497700 -0.28908900
45 5.51180600 -0.00000200 0.00000600 -0.68868500 0.00000000 0.00000000
46 0.19685000 0.00000300 -0.00000200 -0.34822500 0.00001500 -0.00000200
47 0.00000000 0.00000000 0.00000000 0.00000000 0.00000000 -1.57079600
48 -3.47734200 5.97447700 -4.02610900 0.00000000 0.00000000 -3.14156200
49 -3.37009857 22.31306505 -1.50500573 0.17538071 -0.11574249 -1.32757522
50 5.40655808 0.12546448 -3.50047800 0.54237100 1.11856900 1.82356300
51 -1.88195000 -0.01178200 0.03357100 0.00000000 0.00000000 0.00000000
52 0.01125900 -0.01178200 0.16934900 0.00000000 0.00000000 0.00000000
53 -0.02757200 0.00000000 0.20638000 0.00000000 0.00000000 0.00000000
54 -1.26834800 -0.01178200 1.78904500 0.00000000 0.00000000 0.00000000
55 -4.82520500 -2.17145400 -2.49543300 -3.06199100 0.99804500 -2.35750200
time 15
0 -0.00000100 7.45008900 -27.50902600 0.00000000 0.00000000 0.00003100
1 -0.00000200 0.00000000 0.00000000 1.57074300 -1.56713700 -1.57074300
2 4.25546800 -0.33518300 -0.00000200 0.00000000 0.00000000 -0.12484800
3 7.43124800 1.49647700 0.00000200 0.00000000 0.00000000 0.24545000
4 5.27847900 0.16554100 0.00000100 0.00000000 0.00000000 0.04851100
5 4.00252383 -4.95842208 2.60065756 1.97586400 1.15990900 -1.29878600
6 -6.21448200 -0.00000700 -0.00002700 -2.83502412 -0.52356417 1.26885635
7 11.94488200 0.00000000 0.00000100 -0.03490160 -0.32344798 0.99045468
8 10.62018100 0.00000200 0.00000000 0.96635948 0.39672014 2.54318934
9 -4.75110600 -0.69449400 0.83057700 0.01571000 -0.16543500 0.43812000
10 -1.68806800 0.00004600 -0.00003200 0.01457400 -0.01993700 0.80788900
11 -1.33614000 0.00005700 -0.00001200 0.02114300 -0.01573300 1.19424300
12 -4.82049400 -0.50946000 -0.22475900 -0.29733500 -0.05057600 1.32850400
13 -1.82699200 -0.00006400 0.00000600 0.00421900 0.04026900 1.37882300
14 -1.43657300 0.00000600 0.00000200 -0.05454800 -0.05545500 0.68560300
15 -3.99235500 -0.89118800 -1.82790900 -0.52370500 0.13815700 1.09576700
16 -1.40591800 -0.00002500 -0.00000300 -0.01630900 -0.02456400 1.46015900
17 -1.17535800 0.00012800 -0.00002000 0.04970300 0.04625500 0.72560100
18 -4.52675100 -0.69057500 -1.12074400 -0.36124800 0.11255600 1.35155400
19 -1.74403800 0.00003300 -0.00000800 -0.02649400 -0.01314800 1.52325100
20 -1.36877100 0.00002500 0.00000200 0.02081800 0.04817500 0.30338500
21 -1.87480000 -0.93512500 0.99917400 2.03358000 0.44787100 0.71499600
22 -1.52345300 0.00003200 0.00003100 0.08365400 0.15258100 0.60551300
23 -1.59928500 0.00000400 0.00001600 0.03405500 -0.02608500 0.63444600
24 5.58312549 0.11572600 0.29499951 2.70854400 -0.05523500 3.09750200
25 0.19684700 -0.00000100 0.00000300 2.79340698 -0.00028757 -3.14151542
26 1.29243000 -15.31615700 -2.15135800 1.97586200 1.15990900 1.84280300
27 6.21448500 0.00000600 0.00002000 -0.65741185 0.75836031 -1.90747881
28 11.94488500 -0.00002900 -0.00019400 -1.05145102 -0.32068184 -1.41775963
29 10.62016600 0.00000200 0.00001000 -2.25126659 -0.56272032 0.51602209
30 4.75115600 0.69437600 -0.83047300 -0.35541600 -0.40076200 0.96512700
31 1.68806500 -0.00002600 0.00000200 -0.00367600 -0.02375600 1.75077900
32 1.33615100 -0.00005100 -0.00000900 0.03096200 -0.02321100 -0.55646100
33 4.82051300 0.50934000 0.22486500 -0.51051400 -0.29296900 1.25320400
34 1.82699600 0.00006600 0.00000800 0.01740600 0.03653900 1.71901600
35 1.43657700 -0.00001000 0.00000700 0.01508100 0.00113100 -0.80048000
36 3.99235300 0.89108700 1.82799400 -0.59409300 0.14997600 1.42316900
37 1.40591800 0.00002100 -0.00000700 -0.02571600 -0.01440300 1.93866100
38 1.17536900 -0.00013100 0.00000200 0.10276000 0.06814600 0.94199700
39 4.52675600 0.69046000 1.12084200 -0.54396700 0.08405600 1.61621100
40 1.74404100 -0.00003100 -0.00000200 -0.02193600 -0.01984600 1.24733900
41 1.36876300 -0.00003100 -0.00001700 -0.10584200 0.11837400 -0.91845200
42 1.93928198 1.01468951 -0.90910246 1.40068400 0.75422800 0.39461500
43 1.52344900 -0.00003400 -0.00000300 -0.00578400 -0.08060400 0.05769500
44 1.59928100 -0.00000200 0.00000900 0.03666200 0.07497700 -0.28908900
45 5.51180600 -0.00000200 0.00000600 -0.68868500 0.00000000 0.00000000
46 0.19685000 0.00000300 -0.00000200 -0.34822500 0.00001500 -0.00000200
47 0.00000000 0.00000000 0.00000000 0.00000000 0.00000000 -1.57079600
48 -3.47734200 5.97447700 -4.02610900 0.00000000 0.00000000 -3.14156200
49 -3.06185011 22.32965356 -1.50813230 0.16435643 -0.09498916 -1.33862256
50 5.35736782 0.12959743 -3.44647331 0.54237100 1.11856900 1.82356300
51 -1.88195000 -0.01178200 0.03357100 0.00000000 0.00000000 0.00000000
52 0.01125900 -0.01178200 0.16934900 0.00000000 0.00000000 0.00000000
53 -0.02757200 0.00000000 0.20638000 0.00000000 0.00000000 0.00000000
54 -1.26834800 -0.01178200 1.78904500 0.00000000 0.00000000 0.00000000
55 -4.82520500 -2.17145400 -2.49543300 -3.06199100 0.99804500 -2.35750200
end
