version 1
nodes
0 "root" -1
1 "pelvis" 0
2 "spine_01" 1
3 "spine_02" 2
4 "spine_03" 3
5 "clavicle_r" 4
6 "upperarm_r" 5
7 "lowerarm_r" 6
8 "hand_r" 7
9 "index_01_r" 8
10 "index_02_r" 9
11 "index_03_r" 10
12 "middle_01_r" 8
13 "middle_02_r" 12
14 "middle_03_r" 13
15 "pinky_01_r" 8
16 "pinky_02_r" 15
17 "pinky_03_r" 16
18 "ring_01_r" 8
19 "ring_02_r" 18
20 "ring_03_r" 19
21 "thumb_01_r" 8
22 "thumb_02_r" 21
23 "thumb_03_r" 22
24 "lowerarm_twist_01_r" 7
25 "upperarm_twist_01_r" 6
26 "clavicle_l" 4
27 "upperarm_l" 26
28 "lowerarm_l" 27
29 "hand_l" 28
30 "index_01_l" 29
31 "index_02_l" 30
32 "index_03_l" 31
33 "middle_01_l" 29
34 "middle_02_l" 33
35 "middle_03_l" 34
36 "pinky_01_l" 29
37 "pinky_02_l" 36
38 "pinky_03_l" 37
39 "ring_01_l" 29
40 "ring_02_l" 39
41 "ring_03_l" 40
42 "thumb_01_l" 29
43 "thumb_02_l" 42
44 "thumb_03_l" 43
45 "lowerarm_twist_01_l" 28
46 "upperarm_twist_01_l" 27
47 "cam_driver" -1
48 "BaseRoot" -1
49 "Base" 48
50 "Clip" 49
51 "ClipHolder" 50
52 "Bullet" 49
53 "Bullet02" 49
54 "Bullet03" 49
55 "Bullet04" 49
56 "Bullet05" 49
57 "Trigger" 49
58 "Bolt" 49
59 "BoltRotate" 58
60 "BoltHammer" 58
61 "rhand_ikTarget" 49
62 "lhand_ikTarget" 49
63 "Bayonet" 49
64 "Grenade" -1
end
skeleton
time 0
0 -0.00000100 7.45008900 -27.50902600 0.00000000 0.00000000 0.00003100
1 -0.00000200 0.00000000 0.00000000 1.57074700 -1.56714200 -1.57074700
2 4.25546500 -0.33518400 -0.00000200 0.00000000 0.00000000 -0.12484800
3 7.43125000 1.49647900 0.00000200 0.00000000 0.00000000 0.24545000
4 5.27847900 0.16554300 0.00000100 0.00000000 0.00000000 0.04851100
5 4.59191800 -1.71342400 -5.63502400 1.97586600 1.15990900 -1.29878500
6 -6.21447800 -0.00001000 -0.00002700 3.02479337 -0.11218493 2.08811939
7 11.94488900 0.00000000 0.00000000 -0.29668220 -0.33810130 1.78589497
8 10.62019000 0.00000000 0.00000000 0.44134629 -0.31090904 2.09128886
9 -4.75111000 -0.69449400 0.83057900 -0.15418600 -0.29167200 0.37319500
10 -1.68807600 0.00004300 -0.00003100 0.02287100 -0.00946300 0.26249200
11 -1.33614300 0.00005300 -0.00001000 0.02592200 0.00450900 0.38004900
12 -4.82049600 -0.50945900 -0.22476100 -0.67850600 -0.12493700 1.39189400
13 -1.82699200 -0.00007200 0.00000800 -0.01519000 0.03755800 0.88963800
14 -1.43657300 0.00000800 0.00000400 -0.05788200 -0.05197400 0.74803500
15 -3.99235900 -0.89118600 -1.82791000 -0.78312200 0.47783100 1.73317100
16 -1.40592200 -0.00002700 0.00000000 0.01158200 -0.02712100 0.47278000
17 -1.17535800 0.00012800 -0.00002100 0.02643300 0.06261000 0.30325800
18 -4.52675200 -0.69057500 -1.12074400 -0.76414900 0.22720200 1.67117900
19 -1.74403800 0.00003300 -0.00000400 -0.01149500 -0.02729000 0.80897100
20 -1.36877400 0.00002500 0.00000400 -0.22704800 0.07843600 0.24818000
21 -1.87479800 -0.93512200 0.99917500 1.79694600 0.72864500 1.01706100
22 -1.52344900 0.00003400 0.00003100 0.10575300 0.13820400 0.75781300
23 -1.59927600 0.00000800 0.00001500 0.02972300 -0.03090300 0.78512800
24 5.58312500 0.11572400 0.29499800 1.94756400 -0.06728900 3.12123600
25 0.19684600 -0.00000100 0.00000400 2.79340680 -0.00105030 -3.14136815
26 -0.17821700 -13.29995500 -6.89535600 1.97586200 1.15991000 1.84280300
27 6.21448500 0.00001000 0.00002000 -0.22611710 0.21428449 -2.10681387
28 11.94488500 -0.00003200 -0.00019900 -1.15500485 -0.32120366 -1.15780298
29 10.62016900 -0.00000200 0.00000800 -2.87641116 -0.56763550 0.76599763
30 4.75116500 0.69437600 -0.83047400 0.12842900 -0.44158200 0.41817400
31 1.68806100 -0.00002400 0.00000200 0.00068800 -0.02474600 1.41163600
32 1.33615100 -0.00005000 -0.00001000 0.00291500 -0.03857300 0.29474600
33 4.82051700 0.50934200 0.22486600 -0.14851600 -0.31147800 1.00052700
34 1.82700300 0.00006200 0.00001000 0.01090700 0.03895400 1.54771100
35 1.43658100 -0.00000600 0.00001000 0.01503200 0.00167500 -0.83651700
36 3.99235500 0.89109000 1.82799500 -0.45399300 -0.08851700 1.25458700
37 1.40592200 0.00003100 -0.00000400 -0.01421100 -0.02586600 1.37541000
38 1.17536200 -0.00013200 0.00000400 -0.07487300 0.09798600 -0.69969900
39 4.52676200 0.69046800 1.12084200 -0.34960800 -0.17836200 1.24133300
40 1.74404100 -0.00002700 0.00000100 -0.02639200 -0.01328600 1.51729600
41 1.36876300 -0.00003100 -0.00002000 -0.12191500 0.10180800 -1.06387600
42 2.12628300 1.15633100 -0.76951100 1.84706400 0.52542000 0.27660500
43 1.57833900 -0.31926800 -0.04171300 -0.04202400 -0.07377300 0.12077200
44 1.59178900 -0.07172200 0.01248600 0.03799300 0.07429800 -0.27107500
45 5.51180800 -0.00000600 0.00000400 -0.99849200 0.00000000 0.00000000
46 0.19684600 0.00000600 0.00000000 -0.34822500 0.00001500 -0.00000200
47 0.00000000 0.00000000 0.00000000 0.00000000 0.00000000 -1.57079600
48 -4.14904400 0.00000000 -4.12447000 0.00000000 0.00000000 -3.14156200
49 -3.81627090 16.17893800 1.15217600 0.02254902 0.00201479 -1.57995040
50 44.49528500 2.91572600 -17.31057200 0.00000000 0.00000000 0.00000000
51 0.85166200 0.00000100 0.00000000 0.00000000 0.00000000 0.00000000
52 0.34715400 -0.00505900 -1.70929100 0.00000000 0.00000000 0.00000000
53 0.36657500 -0.00505900 0.90475500 0.00000000 0.00000000 0.00000000
54 0.34912600 -0.00505900 0.26595700 0.00000000 0.00000000 0.00000000
55 0.34945900 -0.00505900 -0.38449600 0.00000000 0.00000000 0.00000000
56 0.33780700 -0.00505900 -1.09133600 0.00000000 0.00000000 0.00000000
57 3.93872000 -0.00328400 -1.03767400 0.00000000 0.00000000 0.00000000
58 0.45171900 0.00102000 1.29854300 0.00000000 0.00000000 0.00000000
59 -0.52680000 0.00000000 0.00000000 0.00000000 0.00000000 0.00000000
60 0.62233900 0.00000000 0.00000000 0.00000000 0.00000000 0.00000000
61 11.82441600 1.48995400 -1.86720200 -0.20588600 1.09315300 1.34480400
62 -1.31450500 -2.67034700 -2.04237500 -3.02352800 1.09807700 -2.21761800
63 -34.91577900 -0.00157300 0.20016800 0.00000000 0.00000000 0.00000000
64 -0.67735650 -57.59797879 -1.53926735 0.00000000 0.00880500 1.57079600
time 1
0 -0.00000100 7.45008900 -27.50902600 0.00000000 0.00000000 0.00003100
1 -0.00000200 0.00000000 0.00000000 1.57074700 -1.56714200 -1.57074700
2 4.25546500 -0.33518400 -0.00000200 0.00000000 0.00000000 -0.12484800
3 7.43125000 1.49647900 0.00000200 0.00000000 0.00000000 0.24545000
4 5.27847900 0.16554300 0.00000100 0.00000000 0.00000000 0.04851100
5 4.46912800 -1.93734800 -5.39998600 1.97586600 1.15990900 -1.29878500
6 -6.21447800 -0.00001000 -0.00002700 3.01435732 -0.11693977 2.09071979
7 11.94488900 0.00000000 0.00000000 -0.30108076 -0.33824853 1.79893670
8 10.62019000 0.00000000 0.00000000 0.39765149 -0.29720874 2.10542216
9 -4.75111000 -0.69449400 0.83057900 -0.15418600 -0.29167200 0.37319500
10 -1.68807600 0.00004300 -0.00003100 0.02287100 -0.00946300 0.26249200
11 -1.33614300 0.00005300 -0.00001000 0.02592200 0.00450900 0.38004900
12 -4.82049600 -0.50945900 -0.22476100 -0.67850600 -0.12493700 1.39189400
13 -1.82699200 -0.00007200 0.00000800 -0.01519000 0.03755800 0.88963800
14 -1.43657300 0.00000800 0.00000400 -0.05788200 -0.05197400 0.74803500
15 -3.99235900 -0.89118600 -1.82791000 -0.78312200 0.47783100 1.73317100
16 -1.40592200 -0.00002700 0.00000000 0.01158200 -0.02712100 0.47278000
17 -1.17535800 0.00012800 -0.00002100 0.02643300 0.06261000 0.30325800
18 -4.52675200 -0.69057500 -1.12074400 -0.76414900 0.22720200 1.67117900
19 -1.74403800 0.00003300 -0.00000400 -0.01149500 -0.02729000 0.80897100
20 -1.36877400 0.00002500 0.00000400 -0.22704800 0.07843600 0.24818000
21 -1.87479800 -0.93512200 0.99917500 1.79694600 0.72864500 1.01706100
22 -1.52344900 0.00003400 0.00003100 0.10575300 0.13820400 0.75781300
23 -1.59927600 0.00000800 0.00001500 0.02972300 -0.03090300 0.78512800
24 5.58312500 0.11572400 0.29499800 1.94756400 -0.06728900 3.12123600
25 0.19684600 -0.00000100 0.00000400 2.79340680 -0.00105030 -3.14136815
26 -0.17821700 -13.29995500 -6.89535600 1.97586200 1.15991000 1.84280300
27 6.21448500 0.00001000 0.00002000 -0.24602681 0.21226530 -2.10909933
28 11.94488500 -0.00003200 -0.00019900 -1.15727946 -0.32041489 -1.15067825
29 10.62016900 -0.00000200 0.00000800 -2.82800081 -0.58585124 0.77574386
30 4.75116500 0.69437600 -0.83047400 0.12842900 -0.44158200 0.41817400
31 1.68806100 -0.00002400 0.00000200 0.00068800 -0.02474600 1.41163600
32 1.33615100 -0.00005000 -0.00001000 0.00291500 -0.03857300 0.29474600
33 4.82051700 0.50934200 0.22486600 -0.14851600 -0.31147800 1.00052700
34 1.82700300 0.00006200 0.00001000 0.01090700 0.03895400 1.54771100
35 1.43658100 -0.00000600 0.00001000 0.01503200 0.00167500 -0.83651700
36 3.99235500 0.89109000 1.82799500 -0.45399300 -0.08851700 1.25458700
37 1.40592200 0.00003100 -0.00000400 -0.01421100 -0.02586600 1.37541000
38 1.17536200 -0.00013200 0.00000400 -0.07487300 0.09798600 -0.69969900
39 4.52676200 0.69046800 1.12084200 -0.34960800 -0.17836200 1.24133300
40 1.74404100 -0.00002700 0.00000100 -0.02639200 -0.01328600 1.51729600
41 1.36876300 -0.00003100 -0.00002000 -0.12191500 0.10180800 -1.06387600
42 2.12628300 1.15633100 -0.76951100 1.84706400 0.52542000 0.27660500
43 1.57833900 -0.31926800 -0.04171300 -0.04202400 -0.07377300 0.12077200
44 1.59178900 -0.07172200 0.01248600 0.03799300 0.07429800 -0.27107500
45 5.51180800 -0.00000600 0.00000400 -0.99849200 0.00000000 0.00000000
46 0.19684600 0.00000600 0.00000000 -0.34822500 0.00001500 -0.00000200
47 0.00000000 0.00000000 0.00000000 0.00000000 0.00000000 -1.57079600
48 -4.14904400 0.00000000 -4.12447000 0.00000000 0.00000000 -3.14156200
49 -3.83061423 16.27372000 1.19856407 -0.00968124 0.01968916 -1.56078189
50 44.49528500 2.91572600 -17.31057200 0.00000000 0.00000000 0.00000000
51 0.85166200 0.00000100 0.00000000 0.00000000 0.00000000 0.00000000
52 0.34715400 -0.00505900 -1.70929100 0.00000000 0.00000000 0.00000000
53 0.36657500 -0.00505900 0.90475500 0.00000000 0.00000000 0.00000000
54 0.34912600 -0.00505900 0.26595700 0.00000000 0.00000000 0.00000000
55 0.34945900 -0.00505900 -0.38449600 0.00000000 0.00000000 0.00000000
56 0.33780700 -0.00505900 -1.09133600 0.00000000 0.00000000 0.00000000
57 3.93872000 -0.00328400 -1.03767400 0.00000000 0.00000000 0.00000000
58 0.45171900 0.00102000 1.29854300 0.00000000 0.00000000 0.00000000
59 -0.52680000 0.00000000 0.00000000 0.00000000 0.00000000 0.00000000
60 0.62233900 0.00000000 0.00000000 0.00000000 0.00000000 0.00000000
61 11.82441600 1.48995400 -1.86720200 -0.20588600 1.09315300 1.34480400
62 -1.31450500 -2.67034700 -2.04237500 -3.02352800 1.09807700 -2.21761800
63 -34.91577900 -0.00157300 0.20016800 0.00000000 0.00000000 0.00000000
64 0.08747358 -57.64170497 -0.76216562 -0.03214737 0.02643965 1.58999267
time 2
0 -0.00000100 7.45008900 -27.50902600 0.00000000 0.00000000 0.00003100
1 -0.00000200 0.00000000 0.00000000 1.57074700 -1.56714200 -1.57074700
2 4.25546500 -0.33518400 -0.00000200 0.00000000 0.00000000 -0.12484800
3 7.43125000 1.49647900 0.00000200 0.00000000 0.00000000 0.24545000
4 5.27847900 0.16554300 0.00000100 0.00000000 0.00000000 0.04851100
5 4.12964700 -2.55643600 -4.75017300 1.97586600 1.15990900 -1.29878500
6 -6.21447800 -0.00001000 -0.00002700 2.99317873 -0.12713185 2.09983319
7 11.94488900 0.00000000 0.00000000 -0.31058881 -0.33740502 1.82738794
8 10.62019000 0.00000000 0.00000000 0.34536622 -0.24886043 2.15559957
9 -4.75111000 -0.69449400 0.83057900 -0.15418600 -0.29167200 0.37319500
10 -1.68807600 0.00004300 -0.00003100 0.02287100 -0.00946300 0.26249200
11 -1.33614300 0.00005300 -0.00001000 0.02592200 0.00450900 0.38004900
12 -4.82049600 -0.50945900 -0.22476100 -0.67850600 -0.12493700 1.39189400
13 -1.82699200 -0.00007200 0.00000800 -0.01519000 0.03755800 0.88963800
14 -1.43657300 0.00000800 0.00000400 -0.05788200 -0.05197400 0.74803500
15 -3.99235900 -0.89118600 -1.82791000 -0.78312200 0.47783100 1.73317100
16 -1.40592200 -0.00002700 0.00000000 0.01158200 -0.02712100 0.47278000
17 -1.17535800 0.00012800 -0.00002100 0.02643300 0.06261000 0.30325800
18 -4.52675200 -0.69057500 -1.12074400 -0.76414900 0.22720200 1.67117900
19 -1.74403800 0.00003300 -0.00000400 -0.01149500 -0.02729000 0.80897100
20 -1.36877400 0.00002500 0.00000400 -0.22704800 0.07843600 0.24818000
21 -1.87479800 -0.93512200 0.99917500 1.79694600 0.72864500 1.01706100
22 -1.52344900 0.00003400 0.00003100 0.10575300 0.13820400 0.75781300
23 -1.59927600 0.00000800 0.00001500 0.02972300 -0.03090300 0.78512800
24 5.58312500 0.11572400 0.29499800 1.94756400 -0.06728900 3.12123600
25 0.19684600 -0.00000100 0.00000400 2.79340680 -0.00105030 -3.14136815
26 -0.17821700 -13.29995500 -6.89535600 1.97586200 1.15991000 1.84280300
27 6.21448500 0.00001000 0.00002000 -0.29302203 0.21202860 -2.11848002
28 11.94488500 -0.00003200 -0.00019900 -1.16378749 -0.31738065 -1.12988740
29 10.62016900 -0.00000200 0.00000800 -2.72304434 -0.64101271 0.74157101
30 4.75116500 0.69437600 -0.83047400 0.12842900 -0.44158200 0.41817400
31 1.68806100 -0.00002400 0.00000200 0.00068800 -0.02474600 1.41163600
32 1.33615100 -0.00005000 -0.00001000 0.00291500 -0.03857300 0.29474600
33 4.82051700 0.50934200 0.22486600 -0.14851600 -0.31147800 1.00052700
34 1.82700300 0.00006200 0.00001000 0.01090700 0.03895400 1.54771100
35 1.43658100 -0.00000600 0.00001000 0.01503200 0.00167500 -0.83651700
36 3.99235500 0.89109000 1.82799500 -0.45399300 -0.08851700 1.25458700
37 1.40592200 0.00003100 -0.00000400 -0.01421100 -0.02586600 1.37541000
38 1.17536200 -0.00013200 0.00000400 -0.07487300 0.09798600 -0.69969900
39 4.52676200 0.69046800 1.12084200 -0.34960800 -0.17836200 1.24133300
40 1.74404100 -0.00002700 0.00000100 -0.02639200 -0.01328600 1.51729600
41 1.36876300 -0.00003100 -0.00002000 -0.12191500 0.10180800 -1.06387600
42 2.12628300 1.15633100 -0.76951100 1.84706400 0.52542000 0.27660500
43 1.57833900 -0.31926800 -0.04171300 -0.04202400 -0.07377300 0.12077200
44 1.59178900 -0.07172200 0.01248600 0.03799300 0.07429800 -0.27107500
45 5.51180800 -0.00000600 0.00000400 -0.99849200 0.00000000 0.00000000
46 0.19684600 0.00000600 0.00000000 -0.34822500 0.00001500 -0.00000200
47 0.00000000 0.00000000 0.00000000 0.00000000 0.00000000 -1.57079600
48 -4.14904400 0.00000000 -4.12447000 0.00000000 0.00000000 -3.14156200
49 -3.90048189 16.51815400 1.33620083 -0.02989750 0.07210055 -1.50675811
50 44.49528500 2.91572600 -17.31057200 0.00000000 0.00000000 0.00000000
51 0.85166200 0.00000100 0.00000000 0.00000000 0.00000000 0.00000000
52 0.34715400 -0.00505900 -1.70929100 0.00000000 0.00000000 0.00000000
53 0.36657500 -0.00505900 0.90475500 0.00000000 0.00000000 0.00000000
54 0.34912600 -0.00505900 0.26595700 0.00000000 0.00000000 0.00000000
55 0.34945900 -0.00505900 -0.38449600 0.00000000 0.00000000 0.00000000
56 0.33780700 -0.00505900 -1.09133600 0.00000000 0.00000000 0.00000000
57 3.93872000 -0.00328400 -1.03767400 0.00000000 0.00000000 0.00000000
58 0.45171900 0.00102000 1.29854300 0.00000000 0.00000000 0.00000000
59 -0.52680000 0.00000000 0.00000000 0.00000000 0.00000000 0.00000000
60 0.62233900 0.00000000 0.00000000 0.00000000 0.00000000 0.00000000
61 11.82441600 1.48995400 -1.86720200 -0.20588600 1.09315300 1.34480400
62 -1.31450500 -2.67034700 -2.04237500 -3.02352800 1.09807700 -2.21761800
63 -34.91577900 -0.00157300 0.20016800 0.00000000 0.00000000 0.00000000
64 2.35623094 -57.60470322 1.53957786 -0.05177129 0.07879422 1.64404474
time 3
0 -0.00000100 7.45008900 -27.50902600 0.00000000 0.00000000 0.00003100
1 -0.00000200 0.00000000 0.00000000 1.57074700 -1.56714200 -1.57074700
2 4.25546500 -0.33518400 -0.00000200 0.00000000 0.00000000 -0.12484800
3 7.43125000 1.49647900 0.00000200 0.00000000 0.00000000 0.24545000
4 5.27847900 0.16554300 0.00000100 0.00000000 0.00000000 0.04851100
5 3.61681400 -3.49165300 -3.76854100 1.97586600 1.15990900 -1.29878500
6 -6.21447800 -0.00001000 -0.00002700 2.96689441 -0.13874856 2.11173644
7 11.94488900 0.00000000 0.00000000 -0.32045191 -0.33507861 1.85717916
8 10.62019000 0.00000000 0.00000000 0.32639019 -0.16910497 2.23870287
9 -4.75111000 -0.69449400 0.83057900 -0.15418600 -0.29167200 0.37319500
10 -1.68807600 0.00004300 -0.00003100 0.02287100 -0.00946300 0.26249200
11 -1.33614300 0.00005300 -0.00001000 0.02592200 0.00450900 0.38004900
12 -4.82049600 -0.50945900 -0.22476100 -0.67850600 -0.12493700 1.39189400
13 -1.82699200 -0.00007200 0.00000800 -0.01519000 0.03755800 0.88963800
14 -1.43657300 0.00000800 0.00000400 -0.05788200 -0.05197400 0.74803500
15 -3.99235900 -0.89118600 -1.82791000 -0.78312200 0.47783100 1.73317100
16 -1.40592200 -0.00002700 0.00000000 0.01158200 -0.02712100 0.47278000
17 -1.17535800 0.00012800 -0.00002100 0.02643300 0.06261000 0.30325800
18 -4.52675200 -0.69057500 -1.12074400 -0.76414900 0.22720200 1.67117900
19 -1.74403800 0.00003300 -0.00000400 -0.01149500 -0.02729000 0.80897100
20 -1.36877400 0.00002500 0.00000400 -0.22704800 0.07843600 0.24818000
21 -1.87479800 -0.93512200 0.99917500 1.79694600 0.72864500 1.01706100
22 -1.52344900 0.00003400 0.00003100 0.10575300 0.13820400 0.75781300
23 -1.59927600 0.00000800 0.00001500 0.02972300 -0.03090300 0.78512800
24 5.58312500 0.11572400 0.29499800 1.94756400 -0.06728900 3.12123600
25 0.19684600 -0.00000100 0.00000400 2.79340680 -0.00105030 -3.14136815
26 -0.17821700 -13.29995500 -6.89535600 1.97586200 1.15991000 1.84280300
27 6.21448500 0.00001000 0.00002000 -0.35559950 0.21910829 -2.13406301
28 11.94488500 -0.00003200 -0.00019900 -1.17236083 -0.31235635 -1.10234424
29 10.62016900 -0.00000200 0.00000800 -2.57589039 -0.71642728 0.62580804
30 4.75116500 0.69437600 -0.83047400 0.12842900 -0.44158200 0.41817400
31 1.68806100 -0.00002400 0.00000200 0.00068800 -0.02474600 1.41163600
32 1.33615100 -0.00005000 -0.00001000 0.00291500 -0.03857300 0.29474600
33 4.82051700 0.50934200 0.22486600 -0.14851600 -0.31147800 1.00052700
34 1.82700300 0.00006200 0.00001000 0.01090700 0.03895400 1.54771100
35 1.43658100 -0.00000600 0.00001000 0.01503200 0.00167500 -0.83651700
36 3.99235500 0.89109000 1.82799500 -0.45399300 -0.08851700 1.25458700
37 1.40592200 0.00003100 -0.00000400 -0.01421100 -0.02586600 1.37541000
38 1.17536200 -0.00013200 0.00000400 -0.07487300 0.09798600 -0.69969900
39 4.52676200 0.69046800 1.12084200 -0.34960800 -0.17836200 1.24133300
40 1.74404100 -0.00002700 0.00000100 -0.02639200 -0.01328600 1.51729600
41 1.36876300 -0.00003100 -0.00002000 -0.12191500 0.10180800 -1.06387600
42 2.12628300 1.15633100 -0.76951100 1.84706400 0.52542000 0.27660500
43 1.57833900 -0.31926800 -0.04171300 -0.04202400 -0.07377300 0.12077200
44 1.59178900 -0.07172200 0.01248600 0.03799300 0.07429800 -0.27107500
45 5.51180800 -0.00000600 0.00000400 -0.99849200 0.00000000 0.00000000
46 0.19684600 0.00000600 0.00000000 -0.34822500 0.00001500 -0.00000200
47 0.00000000 0.00000000 0.00000000 0.00000000 0.00000000 -1.57079600
48 -4.14904400 0.00000000 -4.12447000 0.00000000 0.00000000 -3.14156200
49 -4.01418554 16.85237900 1.48682885 -0.00242011 0.14873693 -1.42341821
50 44.49528500 2.91572600 -17.31057200 0.00000000 0.00000000 0.00000000
51 0.85166200 0.00000100 0.00000000 0.00000000 0.00000000 0.00000000
52 0.34715400 -0.00505900 -1.70929100 0.00000000 0.00000000 0.00000000
53 0.36657500 -0.00505900 0.90475500 0.00000000 0.00000000 0.00000000
54 0.34912600 -0.00505900 0.26595700 0.00000000 0.00000000 0.00000000
55 0.34945900 -0.00505900 -0.38449600 0.00000000 0.00000000 0.00000000
56 0.33780700 -0.00505900 -1.09133600 0.00000000 0.00000000 0.00000000
57 3.93872000 -0.00328400 -1.03767400 0.00000000 0.00000000 0.00000000
58 0.45171900 0.00102000 1.29854300 0.00000000 0.00000000 0.00000000
59 -0.52680000 0.00000000 0.00000000 0.00000000 0.00000000 0.00000000
60 0.62233900 0.00000000 0.00000000 0.00000000 0.00000000 0.00000000
61 11.82441600 1.48995400 -1.86720200 -0.20588600 1.09315300 1.34480400
62 -1.31450500 -2.67034700 -2.04237500 -3.02352800 1.09807700 -2.21761800
63 -34.91577900 -0.00157300 0.20016800 0.00000000 0.00000000 0.00000000
64 5.85879158 -57.11557680 4.83213436 -0.02362641 0.15534187 1.72756406
time 4
0 -0.00000100 7.45008900 -27.50902600 0.00000000 0.00000000 0.00003100
1 -0.00000200 0.00000000 0.00000000 1.57074700 -1.56714200 -1.57074700
2 4.25546500 -0.33518400 -0.00000200 0.00000000 0.00000000 -0.12484800
3 7.43125000 1.49647900 0.00000200 0.00000000 0.00000000 0.24545000
4 5.27847900 0.16554300 0.00000100 0.00000000 0.00000000 0.04851100
5 2.97397000 -4.66396800 -2.53804600 1.97586600 1.15990900 -1.29878500
6 -6.21447800 -0.00001000 -0.00002700 2.94198169 -0.14955631 2.11390087
7 11.94488900 0.00000000 0.00000000 -0.32763931 -0.33331523 1.87917933
8 10.62019000 0.00000000 0.00000000 0.32555635 -0.07906214 2.34070743
9 -4.75111000 -0.69449400 0.83057900 -0.15418600 -0.29167200 0.37319500
10 -1.68807600 0.00004300 -0.00003100 0.02287100 -0.00946300 0.26249200
11 -1.33614300 0.00005300 -0.00001000 0.02592200 0.00450900 0.38004900
12 -4.82049600 -0.50945900 -0.22476100 -0.67850600 -0.12493700 1.39189400
13 -1.82699200 -0.00007200 0.00000800 -0.01519000 0.03755800 0.88963800
14 -1.43657300 0.00000800 0.00000400 -0.05788200 -0.05197400 0.74803500
15 -3.99235900 -0.89118600 -1.82791000 -0.78312200 0.47783100 1.73317100
16 -1.40592200 -0.00002700 0.00000000 0.01158200 -0.02712100 0.47278000
17 -1.17535800 0.00012800 -0.00002100 0.02643300 0.06261000 0.30325800
18 -4.52675200 -0.69057500 -1.12074400 -0.76414900 0.22720200 1.67117900
19 -1.74403800 0.00003300 -0.00000400 -0.01149500 -0.02729000 0.80897100
20 -1.36877400 0.00002500 0.00000400 -0.22704800 0.07843600 0.24818000
21 -1.87479800 -0.93512200 0.99917500 1.79694600 0.72864500 1.01706100
22 -1.52344900 0.00003400 0.00003100 0.10575300 0.13820400 0.75781300
23 -1.59927600 0.00000800 0.00001500 0.02972300 -0.03090300 0.78512800
24 5.58312500 0.11572400 0.29499800 1.94756400 -0.06728900 3.12123600
25 0.19684600 -0.00000100 0.00000400 2.79340680 -0.00105030 -3.14136815
26 -0.17821700 -13.29995500 -6.89535600 1.97586200 1.15991000 1.84280300
27 6.21448500 0.00001000 0.00002000 -0.43270582 0.23315152 -2.15194230
28 11.94488500 -0.00003200 -0.00019900 -1.17880770 -0.30812668 -1.08135797
29 10.62016900 -0.00000200 0.00000800 -2.37203509 -0.79107161 0.44845143
30 4.75116500 0.69437600 -0.83047400 0.12842900 -0.44158200 0.41817400
31 1.68806100 -0.00002400 0.00000200 0.00068800 -0.02474600 1.41163600
32 1.33615100 -0.00005000 -0.00001000 0.00291500 -0.03857300 0.29474600
33 4.82051700 0.50934200 0.22486600 -0.14851600 -0.31147800 1.00052700
34 1.82700300 0.00006200 0.00001000 0.01090700 0.03895400 1.54771100
35 1.43658100 -0.00000600 0.00001000 0.01503200 0.00167500 -0.83651700
36 3.99235500 0.89109000 1.82799500 -0.45399300 -0.08851700 1.25458700
37 1.40592200 0.00003100 -0.00000400 -0.01421100 -0.02586600 1.37541000
38 1.17536200 -0.00013200 0.00000400 -0.07487300 0.09798600 -0.69969900
39 4.52676200 0.69046800 1.12084200 -0.34960800 -0.17836200 1.24133300
40 1.74404100 -0.00002700 0.00000100 -0.02639200 -0.01328600 1.51729600
41 1.36876300 -0.00003100 -0.00002000 -0.12191500 0.10180800 -1.06387600
42 2.12628300 1.15633100 -0.76951100 1.84706400 0.52542000 0.27660500
43 1.57833900 -0.31926800 -0.04171300 -0.04202400 -0.07377300 0.12077200
44 1.59178900 -0.07172200 0.01248600 0.03799300 0.07429800 -0.27107500
45 5.51180800 -0.00000600 0.00000400 -0.99849200 0.00000000 0.00000000
46 0.19684600 0.00000600 0.00000000 -0.34822500 0.00001500 -0.00000200
47 0.00000000 0.00000000 0.00000000 0.00000000 0.00000000 -1.57079600
48 -4.14904400 0.00000000 -4.12447000 0.00000000 0.00000000 -3.14156200
49 -4.18122806 17.21653700 1.61919309 0.04664821 0.23341059 -1.31379690
50 44.49528500 2.91572600 -17.31057200 0.00000000 0.00000000 0.00000000
51 0.85166200 0.00000100 0.00000000 0.00000000 0.00000000 0.00000000
52 0.34715400 -0.00505900 -1.70929100 0.00000000 0.00000000 0.00000000
53 0.36657500 -0.00505900 0.90475500 0.00000000 0.00000000 0.00000000
54 0.34912600 -0.00505900 0.26595700 0.00000000 0.00000000 0.00000000
55 0.34945900 -0.00505900 -0.38449600 0.00000000 0.00000000 0.00000000
56 0.33780700 -0.00505900 -1.09133600 0.00000000 0.00000000 0.00000000
57 3.93872000 -0.00328400 -1.03767400 0.00000000 0.00000000 0.00000000
58 0.45171900 0.00102000 1.29854300 0.00000000 0.00000000 0.00000000
59 -0.52680000 0.00000000 0.00000000 0.00000000 0.00000000 0.00000000
60 0.62233900 0.00000000 0.00000000 0.00000000 0.00000000 0.00000000
61 11.82441600 1.48995400 -1.86720200 -0.20588600 1.09315300 1.34480400
62 -1.31450500 -2.67034700 -2.04237500 -3.02352800 1.09807700 -2.21761800
63 -34.91577900 -0.00157300 0.20016800 0.00000000 0.00000000 0.00000000
64 10.26894155 -55.83913042 8.38614100 0.02628019 0.23966128 1.83750449
time 5
0 -0.00000100 7.45008900 -27.50902600 0.00000000 0.00000000 0.00003100
1 -0.00000200 0.00000000 0.00000000 1.57074700 -1.56714200 -1.57074700
2 4.25546500 -0.33518400 -0.00000200 0.00000000 0.00000000 -0.12484800
3 7.43125000 1.49647900 0.00000200 0.00000000 0.00000000 0.24545000
4 5.27847900 0.16554300 0.00000100 0.00000000 0.00000000 0.04851100
5 2.24444800 -5.99434800 -1.14164200 1.97586600 1.15990900 -1.29878500
6 -6.21447800 -0.00001000 -0.00002700 2.93049938 -0.16021478 2.09695449
7 11.94488900 0.00000000 0.00000000 -0.33192038 -0.33264706 1.89213454
8 10.62019000 0.00000000 0.00000000 0.34605220 -0.00401291 2.44839747
9 -4.75111000 -0.69449400 0.83057900 -0.15418600 -0.29167200 0.37319500
10 -1.68807600 0.00004300 -0.00003100 0.02287100 -0.00946300 0.26249200
11 -1.33614300 0.00005300 -0.00001000 0.02592200 0.00450900 0.38004900
12 -4.82049600 -0.50945900 -0.22476100 -0.67850600 -0.12493700 1.39189400
13 -1.82699200 -0.00007200 0.00000800 -0.01519000 0.03755800 0.88963800
14 -1.43657300 0.00000800 0.00000400 -0.05788200 -0.05197400 0.74803500
15 -3.99235900 -0.89118600 -1.82791000 -0.78312200 0.47783100 1.73317100
16 -1.40592200 -0.00002700 0.00000000 0.01158200 -0.02712100 0.47278000
17 -1.17535800 0.00012800 -0.00002100 0.02643300 0.06261000 0.30325800
18 -4.52675200 -0.69057500 -1.12074400 -0.76414900 0.22720200 1.67117900
19 -1.74403800 0.00003300 -0.00000400 -0.01149500 -0.02729000 0.80897100
20 -1.36877400 0.00002500 0.00000400 -0.22704800 0.07843600 0.24818000
21 -1.87479800 -0.93512200 0.99917500 1.79694600 0.72864500 1.01706100
22 -1.52344900 0.00003400 0.00003100 0.10575300 0.13820400 0.75781300
23 -1.59927600 0.00000800 0.00001500 0.02972300 -0.03090300 0.78512800
24 5.58312500 0.11572400 0.29499800 1.94756400 -0.06728900 3.12123600
25 0.19684600 -0.00000100 0.00000400 2.79340680 -0.00105030 -3.14136815
26 -0.17821700 -13.29995500 -6.89535600 1.97586200 1.15991000 1.84280300
27 6.21448500 0.00001000 0.00002000 -0.51976035 0.25606446 -2.16905963
28 11.94488500 -0.00003200 -0.00019900 -1.17953995 -0.30798956 -1.07909617
29 10.62016900 -0.00000200 0.00000800 -2.11837397 -0.84615266 0.22537145
30 4.75116500 0.69437600 -0.83047400 0.12842900 -0.44158200 0.41817400
31 1.68806100 -0.00002400 0.00000200 0.00068800 -0.02474600 1.41163600
32 1.33615100 -0.00005000 -0.00001000 0.00291500 -0.03857300 0.29474600
33 4.82051700 0.50934200 0.22486600 -0.14851600 -0.31147800 1.00052700
34 1.82700300 0.00006200 0.00001000 0.01090700 0.03895400 1.54771100
35 1.43658100 -0.00000600 0.00001000 0.01503200 0.00167500 -0.83651700
36 3.99235500 0.89109000 1.82799500 -0.45399300 -0.08851700 1.25458700
37 1.40592200 0.00003100 -0.00000400 -0.01421100 -0.02586600 1.37541000
38 1.17536200 -0.00013200 0.00000400 -0.07487300 0.09798600 -0.69969900
39 4.52676200 0.69046800 1.12084200 -0.34960800 -0.17836200 1.24133300
40 1.74404100 -0.00002700 0.00000100 -0.02639200 -0.01328600 1.51729600
41 1.36876300 -0.00003100 -0.00002000 -0.12191500 0.10180800 -1.06387600
42 2.12628300 1.15633100 -0.76951100 1.84706400 0.52542000 0.27660500
43 1.57833900 -0.31926800 -0.04171300 -0.04202400 -0.07377300 0.12077200
44 1.59178900 -0.07172200 0.01248600 0.03799300 0.07429800 -0.27107500
45 5.51180800 -0.00000600 0.00000400 -0.99849200 0.00000000 0.00000000
46 0.19684600 0.00000600 0.00000000 -0.34822500 0.00001500 -0.00000200
47 0.00000000 0.00000000 0.00000000 0.00000000 0.00000000 -1.57079600
48 -4.14904400 0.00000000 -4.12447000 0.00000000 0.00000000 -3.14156200
49 -4.42406199 17.55076400 1.71907836 0.10996324 0.31032003 -1.18218363
50 44.49528500 2.91572600 -17.31057200 0.00000000 0.00000000 0.00000000
51 0.85166200 0.00000100 0.00000000 0.00000000 0.00000000 0.00000000
52 0.34715400 -0.00505900 -1.70929100 0.00000000 0.00000000 0.00000000
53 0.36657500 -0.00505900 0.90475500 0.00000000 0.00000000 0.00000000
54 0.34912600 -0.00505900 0.26595700 0.00000000 0.00000000 0.00000000
55 0.34945900 -0.00505900 -0.38449600 0.00000000 0.00000000 0.00000000
56 0.33780700 -0.00505900 -1.09133600 0.00000000 0.00000000 0.00000000
57 3.93872000 -0.00328400 -1.03767400 0.00000000 0.00000000 0.00000000
58 0.45171900 0.00102000 1.29854300 0.00000000 0.00000000 0.00000000
59 -0.52680000 0.00000000 0.00000000 0.00000000 0.00000000 0.00000000
60 0.62233900 0.00000000 0.00000000 0.00000000 0.00000000 0.00000000
61 11.82441600 1.48995400 -1.86720200 -0.20588600 1.09315300 1.34480400
62 -1.31450500 -2.67034700 -2.04237500 -3.02352800 1.09807700 -2.21761800
63 -34.91577900 -0.00157300 0.20016800 0.00000000 0.00000000 0.00000000
64 15.22123851 -53.65975168 11.53984021 0.09049045 0.31618513 1.96955717
time 6
0 -0.00000100 7.45008900 -27.50902600 0.00000000 0.00000000 0.00003100
1 -0.00000200 0.00000000 0.00000000 1.57074700 -1.56714200 -1.57074700
2 4.25546500 -0.33518400 -0.00000200 0.00000000 0.00000000 -0.12484800
3 7.43125000 1.49647900 0.00000200 0.00000000 0.00000000 0.24545000
4 5.27847900 0.16554300 0.00000100 0.00000000 0.00000000 0.04851100
5 1.47158900 -7.40376000 0.33771700 1.97586600 1.15990900 -1.29878500
6 -6.21447800 -0.00001000 -0.00002700 2.94350028 -0.17452139 2.05627832
7 11.94488900 0.00000000 0.00000000 -0.33591597 -0.33206806 1.90444821
8 10.62019000 0.00000000 0.00000000 0.38491527 0.02875594 2.54528987
9 -4.75111000 -0.69449400 0.83057900 -0.15418600 -0.29167200 0.37319500
10 -1.68807600 0.00004300 -0.00003100 0.02287100 -0.00946300 0.26249200
11 -1.33614300 0.00005300 -0.00001000 0.02592200 0.00450900 0.38004900
12 -4.82049600 -0.50945900 -0.22476100 -0.67850600 -0.12493700 1.39189400
13 -1.82699200 -0.00007200 0.00000800 -0.01519000 0.03755800 0.88963800
14 -1.43657300 0.00000800 0.00000400 -0.05788200 -0.05197400 0.74803500
15 -3.99235900 -0.89118600 -1.82791000 -0.78312200 0.47783100 1.73317100
16 -1.40592200 -0.00002700 0.00000000 0.01158200 -0.02712100 0.47278000
17 -1.17535800 0.00012800 -0.00002100 0.02643300 0.06261000 0.30325800
18 -4.52675200 -0.69057500 -1.12074400 -0.76414900 0.22720200 1.67117900
19 -1.74403800 0.00003300 -0.00000400 -0.01149500 -0.02729000 0.80897100
20 -1.36877400 0.00002500 0.00000400 -0.22704800 0.07843600 0.24818000
21 -1.87479800 -0.93512200 0.99917500 1.79694600 0.72864500 1.01706100
22 -1.52344900 0.00003400 0.00003100 0.10575300 0.13820400 0.75781300
23 -1.59927600 0.00000800 0.00001500 0.02972300 -0.03090300 0.78512800
24 5.58312500 0.11572400 0.29499800 1.94756400 -0.06728900 3.12123600
25 0.19684600 -0.00000100 0.00000400 2.79340680 -0.00105030 -3.14136815
26 -0.17821700 -13.29995500 -6.89535600 1.97586200 1.15991000 1.84280300
27 6.21448500 0.00001000 0.00002000 -0.61065488 0.29119248 -2.18334816
28 11.94488500 -0.00003200 -0.00019900 -1.17071919 -0.31373200 -1.10775755
29 10.62016900 -0.00000200 0.00000800 -1.84231346 -0.87659945 -0.01007184
30 4.75116500 0.69437600 -0.83047400 0.12842900 -0.44158200 0.41817400
31 1.68806100 -0.00002400 0.00000200 0.00068800 -0.02474600 1.41163600
32 1.33615100 -0.00005000 -0.00001000 0.00291500 -0.03857300 0.29474600
33 4.82051700 0.50934200 0.22486600 -0.14851600 -0.31147800 1.00052700
34 1.82700300 0.00006200 0.00001000 0.01090700 0.03895400 1.54771100
35 1.43658100 -0.00000600 0.00001000 0.01503200 0.00167500 -0.83651700
36 3.99235500 0.89109000 1.82799500 -0.45399300 -0.08851700 1.25458700
37 1.40592200 0.00003100 -0.00000400 -0.01421100 -0.02586600 1.37541000
38 1.17536200 -0.00013200 0.00000400 -0.07487300 0.09798600 -0.69969900
39 4.52676200 0.69046800 1.12084200 -0.34960800 -0.17836200 1.24133300
40 1.74404100 -0.00002700 0.00000100 -0.02639200 -0.01328600 1.51729600
41 1.36876300 -0.00003100 -0.00002000 -0.12191500 0.10180800 -1.06387600
42 2.12628300 1.15633100 -0.76951100 1.84706400 0.52542000 0.27660500
43 1.57833900 -0.31926800 -0.04171300 -0.04202400 -0.07377300 0.12077200
44 1.59178900 -0.07172200 0.01248600 0.03799300 0.07429800 -0.27107500
45 5.51180800 -0.00000600 0.00000400 -0.99849200 0.00000000 0.00000000
46 0.19684600 0.00000600 0.00000000 -0.34822500 0.00001500 -0.00000200
47 0.00000000 0.00000000 0.00000000 0.00000000 0.00000000 -1.57079600
48 -4.14904400 0.00000000 -4.12447000 0.00000000 0.00000000 -3.14156200
49 -4.76048552 17.79519700 1.75725446 0.17670121 0.36392563 -1.03747826
50 44.49528500 2.91572600 -17.31057200 0.00000000 0.00000000 0.00000000
51 0.85166200 0.00000100 0.00000000 0.00000000 0.00000000 0.00000000
52 0.34715400 -0.00505900 -1.70929100 0.00000000 0.00000000 0.00000000
53 0.36657500 -0.00505900 0.90475500 0.00000000 0.00000000 0.00000000
54 0.34912600 -0.00505900 0.26595700 0.00000000 0.00000000 0.00000000
55 0.34945900 -0.00505900 -0.38449600 0.00000000 0.00000000 0.00000000
56 0.33780700 -0.00505900 -1.09133600 0.00000000 0.00000000 0.00000000
57 3.93872000 -0.00328400 -1.03767400 0.00000000 0.00000000 0.00000000
58 0.45171900 0.00102000 1.29854300 0.00000000 0.00000000 0.00000000
59 -0.52680000 0.00000000 0.00000000 0.00000000 0.00000000 0.00000000
60 0.62233900 0.00000000 0.00000000 0.00000000 0.00000000 0.00000000
61 11.82441600 1.48995400 -1.86720200 -0.20588600 1.09315300 1.34480400
62 -1.31450500 -2.67034700 -2.04237500 -3.02352800 1.09807700 -2.21761800
63 -34.91577900 -0.00157300 0.20016800 0.00000000 0.00000000 0.00000000
64 20.30245304 -50.76990544 13.67435136 0.15780508 0.36925487 2.11470675
time 7
0 -0.00000100 7.45008900 -27.50902600 0.00000000 0.00000000 0.00003100
1 -0.00000200 0.00000000 0.00000000 1.57074700 -1.56714200 -1.57074700
2 4.25546500 -0.33518400 -0.00000200 0.00000000 0.00000000 -0.12484800
3 7.43125000 1.49647900 0.00000200 0.00000000 0.00000000 0.24545000
4 5.27847900 0.16554300 0.00000100 0.00000000 0.00000000 0.04851100
5 0.69873000 -8.81316900 1.81707500 1.97586600 1.15990900 -1.29878500
6 -6.21447800 -0.00001000 -0.00002700 2.98934817 -0.19496727 1.99229379
7 11.94488900 0.00000000 0.00000000 -0.34401699 -0.32946171 1.92937259
8 10.62019000 0.00000000 0.00000000 0.43820639 -0.00508173 2.60912407
9 -4.75111000 -0.69449400 0.83057900 -0.15418600 -0.29167200 0.37319500
10 -1.68807600 0.00004300 -0.00003100 0.02287100 -0.00946300 0.26249200
11 -1.33614300 0.00005300 -0.00001000 0.02592200 0.00450900 0.38004900
12 -4.82049600 -0.50945900 -0.22476100 -0.67850600 -0.12493700 1.39189400
13 -1.82699200 -0.00007200 0.00000800 -0.01519000 0.03755800 0.88963800
14 -1.43657300 0.00000800 0.00000400 -0.05788200 -0.05197400 0.74803500
15 -3.99235900 -0.89118600 -1.82791000 -0.78312200 0.47783100 1.73317100
16 -1.40592200 -0.00002700 0.00000000 0.01158200 -0.02712100 0.47278000
17 -1.17535800 0.00012800 -0.00002100 0.02643300 0.06261000 0.30325800
18 -4.52675200 -0.69057500 -1.12074400 -0.76414900 0.22720200 1.67117900
19 -1.74403800 0.00003300 -0.00000400 -0.01149500 -0.02729000 0.80897100
20 -1.36877400 0.00002500 0.00000400 -0.22704800 0.07843600 0.24818000
21 -1.87479800 -0.93512200 0.99917500 1.79694600 0.72864500 1.01706100
22 -1.52344900 0.00003400 0.00003100 0.10575300 0.13820400 0.75781300
23 -1.59927600 0.00000800 0.00001500 0.02972300 -0.03090300 0.78512800
24 5.58312500 0.11572400 0.29499800 1.94756400 -0.06728900 3.12123600
25 0.19684600 -0.00000100 0.00000400 2.79340680 -0.00105030 -3.14136815
26 -0.17821700 -13.29995500 -6.89535600 1.97586200 1.15991000 1.84280300
27 6.21448500 0.00001000 0.00002000 -0.69792298 0.34069068 -2.19596361
28 11.94488500 -0.00003200 -0.00019900 -1.15057843 -0.32557141 -1.17194213
29 10.62016900 -0.00000200 0.00000800 -1.57969369 -0.89187692 -0.22559715
30 4.75116500 0.69437600 -0.83047400 0.12842900 -0.44158200 0.41817400
31 1.68806100 -0.00002400 0.00000200 0.00068800 -0.02474600 1.41163600
32 1.33615100 -0.00005000 -0.00001000 0.00291500 -0.03857300 0.29474600
33 4.82051700 0.50934200 0.22486600 -0.14851600 -0.31147800 1.00052700
34 1.82700300 0.00006200 0.00001000 0.01090700 0.03895400 1.54771100
35 1.43658100 -0.00000600 0.00001000 0.01503200 0.00167500 -0.83651700
36 3.99235500 0.89109000 1.82799500 -0.45399300 -0.08851700 1.25458700
37 1.40592200 0.00003100 -0.00000400 -0.01421100 -0.02586600 1.37541000
38 1.17536200 -0.00013200 0.00000400 -0.07487300 0.09798600 -0.69969900
39 4.52676200 0.69046800 1.12084200 -0.34960800 -0.17836200 1.24133300
40 1.74404100 -0.00002700 0.00000100 -0.02639200 -0.01328600 1.51729600
41 1.36876300 -0.00003100 -0.00002000 -0.12191500 0.10180800 -1.06387600
42 2.12628300 1.15633100 -0.76951100 1.84706400 0.52542000 0.27660500
43 1.57833900 -0.31926800 -0.04171300 -0.04202400 -0.07377300 0.12077200
44 1.59178900 -0.07172200 0.01248600 0.03799300 0.07429800 -0.27107500
45 5.51180800 -0.00000600 0.00000400 -0.99849200 0.00000000 0.00000000
46 0.19684600 0.00000600 0.00000000 -0.34822500 0.00001500 -0.00000200
47 0.00000000 0.00000000 0.00000000 0.00000000 0.00000000 -1.57079600
48 -4.14904400 0.00000000 -4.12447000 0.00000000 0.00000000 -3.14156200
49 -5.18969477 17.88997800 1.72283920 0.23723641 0.38163500 -0.89497889
50 44.49528500 2.91572600 -17.31057200 0.00000000 0.00000000 0.00000000
51 0.85166200 0.00000100 0.00000000 0.00000000 0.00000000 0.00000000
52 0.34715400 -0.00505900 -1.70929100 0.00000000 0.00000000 0.00000000
53 0.36657500 -0.00505900 0.90475500 0.00000000 0.00000000 0.00000000
54 0.34912600 -0.00505900 0.26595700 0.00000000 0.00000000 0.00000000
55 0.34945900 -0.00505900 -0.38449600 0.00000000 0.00000000 0.00000000
56 0.33780700 -0.00505900 -1.09133600 0.00000000 0.00000000 0.00000000
57 3.93872000 -0.00328400 -1.03767400 0.00000000 0.00000000 0.00000000
58 0.45171900 0.00102000 1.29854300 0.00000000 0.00000000 0.00000000
59 -0.52680000 0.00000000 0.00000000 0.00000000 0.00000000 0.00000000
60 0.62233900 0.00000000 0.00000000 0.00000000 0.00000000 0.00000000
61 11.82441600 1.48995400 -1.86720200 -0.20588600 1.09315300 1.34480400
62 -1.31450500 -2.67034700 -2.04237500 -3.02352800 1.09807700 -2.21761800
63 -34.91577900 -0.00157300 0.20016800 0.00000000 0.00000000 0.00000000
64 25.12235564 -47.61776410 14.34848035 0.21870435 0.38645140 2.25754766
time 8
0 -0.00000100 7.45008900 -27.50902600 0.00000000 0.00000000 0.00003100
1 -0.00000200 0.00000000 0.00000000 1.57074700 -1.56714200 -1.57074700
2 4.25546500 -0.33518400 -0.00000200 0.00000000 0.00000000 -0.12484800
3 7.43125000 1.49647900 0.00000200 0.00000000 0.00000000 0.24545000
4 5.27847900 0.16554300 0.00000100 0.00000000 0.00000000 0.04851100
5 -0.03079200 -10.14355200 3.21348000 1.97586600 1.15990900 -1.29878500
6 -6.21447800 -0.00001000 -0.00002700 3.03758931 -0.21286780 1.89623198
7 11.94488900 0.00000000 0.00000000 -0.35177144 -0.32606875 1.95351353
8 10.62019000 0.00000000 0.00000000 0.49210436 -0.06432300 2.62498796
9 -4.75111000 -0.69449400 0.83057900 -0.15418600 -0.29167200 0.37319500
10 -1.68807600 0.00004300 -0.00003100 0.02287100 -0.00946300 0.26249200
11 -1.33614300 0.00005300 -0.00001000 0.02592200 0.00450900 0.38004900
12 -4.82049600 -0.50945900 -0.22476100 -0.67850600 -0.12493700 1.39189400
13 -1.82699200 -0.00007200 0.00000800 -0.01519000 0.03755800 0.88963800
14 -1.43657300 0.00000800 0.00000400 -0.05788200 -0.05197400 0.74803500
15 -3.99235900 -0.89118600 -1.82791000 -0.78312200 0.47783100 1.73317100
16 -1.40592200 -0.00002700 0.00000000 0.01158200 -0.02712100 0.47278000
17 -1.17535800 0.00012800 -0.00002100 0.02643300 0.06261000 0.30325800
18 -4.52675200 -0.69057500 -1.12074400 -0.76414900 0.22720200 1.67117900
19 -1.74403800 0.00003300 -0.00000400 -0.01149500 -0.02729000 0.80897100
20 -1.36877400 0.00002500 0.00000400 -0.22704800 0.07843600 0.24818000
21 -1.87479800 -0.93512200 0.99917500 1.79694600 0.72864500 1.01706100
22 -1.52344900 0.00003400 0.00003100 0.10575300 0.13820400 0.75781300
23 -1.59927600 0.00000800 0.00001500 0.02972300 -0.03090300 0.78512800
24 5.58312500 0.11572400 0.29499800 1.94756400 -0.06728900 3.12123600
25 0.19684600 -0.00000100 0.00000400 2.79340680 -0.00105030 -3.14136815
26 -0.17821700 -13.29995500 -6.89535600 1.97586200 1.15991000 1.84280300
27 6.21448500 0.00001000 0.00002000 -0.78346083 0.40648652 -2.20269551
28 11.94488500 -0.00003200 -0.00019900 -1.12042325 -0.34088054 -1.26501942
29 10.62016900 -0.00000200 0.00000800 -1.35338784 -0.88186662 -0.40083973
30 4.75116500 0.69437600 -0.83047400 0.12842900 -0.44158200 0.41817400
31 1.68806100 -0.00002400 0.00000200 0.00068800 -0.02474600 1.41163600
32 1.33615100 -0.00005000 -0.00001000 0.00291500 -0.03857300 0.29474600
33 4.82051700 0.50934200 0.22486600 -0.14851600 -0.31147800 1.00052700
34 1.82700300 0.00006200 0.00001000 0.01090700 0.03895400 1.54771100
35 1.43658100 -0.00000600 0.00001000 0.01503200 0.00167500 -0.83651700
36 3.99235500 0.89109000 1.82799500 -0.45399300 -0.08851700 1.25458700
37 1.40592200 0.00003100 -0.00000400 -0.01421100 -0.02586600 1.37541000
38 1.17536200 -0.00013200 0.00000400 -0.07487300 0.09798600 -0.69969900
39 4.52676200 0.69046800 1.12084200 -0.34960800 -0.17836200 1.24133300
40 1.74404100 -0.00002700 0.00000100 -0.02639200 -0.01328600 1.51729600
41 1.36876300 -0.00003100 -0.00002000 -0.12191500 0.10180800 -1.06387600
42 2.12628300 1.15633100 -0.76951100 1.84706400 0.52542000 0.27660500
43 1.57833900 -0.31926800 -0.04171300 -0.04202400 -0.07377300 0.12077200
44 1.59178900 -0.07172200 0.01248600 0.03799300 0.07429800 -0.27107500
45 5.51180800 -0.00000600 0.00000400 -0.99849200 0.00000000 0.00000000
46 0.19684600 0.00000600 0.00000000 -0.34822500 0.00001500 -0.00000200
47 0.00000000 0.00000000 0.00000000 0.00000000 0.00000000 -1.57079600
48 -4.14904400 0.00000000 -4.12447000 0.00000000 0.00000000 -3.14156200
49 -5.84324463 17.88997800 1.53588847 0.28893184 0.37364093 -0.76804652
50 44.49528500 2.91572600 -17.31057200 0.00000000 0.00000000 0.00000000
51 0.85166200 0.00000100 0.00000000 0.00000000 0.00000000 0.00000000
52 0.34715400 -0.00505900 -1.70929100 0.00000000 0.00000000 0.00000000
53 0.36657500 -0.00505900 0.90475500 0.00000000 0.00000000 0.00000000
54 0.34912600 -0.00505900 0.26595700 0.00000000 0.00000000 0.00000000
55 0.34945900 -0.00505900 -0.38449600 0.00000000 0.00000000 0.00000000
56 0.33780700 -0.00505900 -1.09133600 0.00000000 0.00000000 0.00000000
57 3.93872000 -0.00328400 -1.03767400 0.00000000 0.00000000 0.00000000
58 0.45171900 0.00102000 1.29854300 0.00000000 0.00000000 0.00000000
59 -0.52680000 0.00000000 0.00000000 0.00000000 0.00000000 0.00000000
60 0.62233900 0.00000000 0.00000000 0.00000000 0.00000000 0.00000000
61 11.82441600 1.48995400 -1.86720200 -0.20588600 1.09315300 1.34480400
62 -1.31450500 -2.67034700 -2.04237500 -3.02352800 1.09807700 -2.21761800
63 -34.91577900 -0.00157300 0.20016800 0.00000000 0.00000000 0.00000000
64 29.50937922 -44.50560914 13.88199541 0.27032710 0.37801981 2.38470182
time 9
0 -0.00000100 7.45008900 -27.50902600 0.00000000 0.00000000 0.00003100
1 -0.00000200 0.00000000 0.00000000 1.57074700 -1.56714200 -1.57074700
2 4.25546500 -0.33518400 -0.00000200 0.00000000 0.00000000 -0.12484800
3 7.43125000 1.49647900 0.00000200 0.00000000 0.00000000 0.24545000
4 5.27847900 0.16554300 0.00000100 0.00000000 0.00000000 0.04851100
5 -0.67363600 -11.31586300 4.44397500 1.97586600 1.15990900 -1.29878500
6 -6.21447800 -0.00001000 -0.00002700 3.03493405 -0.21459514 1.76712787
7 11.94488900 0.00000000 0.00000000 -0.34979381 -0.32735274 1.94730954
8 10.62019000 0.00000000 0.00000000 0.53636810 -0.07682406 2.60576805
9 -4.75111000 -0.69449400 0.83057900 -0.15418600 -0.29167200 0.37319500
10 -1.68807600 0.00004300 -0.00003100 0.02287100 -0.00946300 0.26249200
11 -1.33614300 0.00005300 -0.00001000 0.02592200 0.00450900 0.38004900
12 -4.82049600 -0.50945900 -0.22476100 -0.67850600 -0.12493700 1.39189400
13 -1.82699200 -0.00007200 0.00000800 -0.01519000 0.03755800 0.88963800
14 -1.43657300 0.00000800 0.00000400 -0.05788200 -0.05197400 0.74803500
15 -3.99235900 -0.89118600 -1.82791000 -0.78312200 0.47783100 1.73317100
16 -1.40592200 -0.00002700 0.00000000 0.01158200 -0.02712100 0.47278000
17 -1.17535800 0.00012800 -0.00002100 0.02643300 0.06261000 0.30325800
18 -4.52675200 -0.69057500 -1.12074400 -0.76414900 0.22720200 1.67117900
19 -1.74403800 0.00003300 -0.00000400 -0.01149500 -0.02729000 0.80897100
20 -1.36877400 0.00002500 0.00000400 -0.22704800 0.07843600 0.24818000
21 -1.87479800 -0.93512200 0.99917500 1.79694600 0.72864500 1.01706100
22 -1.52344900 0.00003400 0.00003100 0.10575300 0.13820400 0.75781300
23 -1.59927600 0.00000800 0.00001500 0.02972300 -0.03090300 0.78512800
24 5.58312500 0.11572400 0.29499800 1.94756400 -0.06728900 3.12123600
25 0.19684600 -0.00000100 0.00000400 2.79340680 -0.00105030 -3.14136815
26 -0.17821700 -13.29995500 -6.89535600 1.97586200 1.15991000 1.84280300
27 6.21448500 0.00001000 0.00002000 -0.87972781 0.49739589 -2.19586367
28 11.94488500 -0.00003200 -0.00019900 -1.08123645 -0.35710489 -1.38314804
29 10.62016900 -0.00000200 0.00000800 -1.19816286 -0.82962178 -0.50074338
30 4.75116500 0.69437600 -0.83047400 0.12842900 -0.44158200 0.41817400
31 1.68806100 -0.00002400 0.00000200 0.00068800 -0.02474600 1.41163600
32 1.33615100 -0.00005000 -0.00001000 0.00291500 -0.03857300 0.29474600
33 4.82051700 0.50934200 0.22486600 -0.14851600 -0.31147800 1.00052700
34 1.82700300 0.00006200 0.00001000 0.01090700 0.03895400 1.54771100
35 1.43658100 -0.00000600 0.00001000 0.01503200 0.00167500 -0.83651700
36 3.99235500 0.89109000 1.82799500 -0.45399300 -0.08851700 1.25458700
37 1.40592200 0.00003100 -0.00000400 -0.01421100 -0.02586600 1.37541000
38 1.17536200 -0.00013200 0.00000400 -0.07487300 0.09798600 -0.69969900
39 4.52676200 0.69046800 1.12084200 -0.34960800 -0.17836200 1.24133300
40 1.74404100 -0.00002700 0.00000100 -0.02639200 -0.01328600 1.51729600
41 1.36876300 -0.00003100 -0.00002000 -0.12191500 0.10180800 -1.06387600
42 2.12628300 1.15633100 -0.76951100 1.84706400 0.52542000 0.27660500
43 1.57833900 -0.31926800 -0.04171300 -0.04202400 -0.07377300 0.12077200
44 1.59178900 -0.07172200 0.01248600 0.03799300 0.07429800 -0.27107500
45 5.51180800 -0.00000600 0.00000400 -0.99849200 0.00000000 0.00000000
46 0.19684600 0.00000600 0.00000000 -0.34822500 0.00001500 -0.00000200
47 0.00000000 0.00000000 0.00000000 0.00000000 0.00000000 -1.57079600
48 -4.14904400 0.00000000 -4.12447000 0.00000000 0.00000000 -3.14156200
49 -6.94643893 17.88997800 1.00986710 0.33888460 0.35591053 -0.65934159
50 44.49528500 2.91572600 -17.31057200 0.00000000 0.00000000 0.00000000
51 0.85166200 0.00000100 0.00000000 0.00000000 0.00000000 0.00000000
52 0.34715400 -0.00505900 -1.70929100 0.00000000 0.00000000 0.00000000
53 0.36657500 -0.00505900 0.90475500 0.00000000 0.00000000 0.00000000
54 0.34912600 -0.00505900 0.26595700 0.00000000 0.00000000 0.00000000
55 0.34945900 -0.00505900 -0.38449600 0.00000000 0.00000000 0.00000000
56 0.33780700 -0.00505900 -1.09133600 0.00000000 0.00000000 0.00000000
57 3.93872000 -0.00328400 -1.03767400 0.00000000 0.00000000 0.00000000
58 0.45171900 0.00102000 1.29854300 0.00000000 0.00000000 0.00000000
59 -0.52680000 0.00000000 0.00000000 0.00000000 0.00000000 0.00000000
60 0.62233900 0.00000000 0.00000000 0.00000000 0.00000000 0.00000000
61 11.82441600 1.48995400 -1.86720200 -0.20588600 1.09315300 1.34480400
62 -1.31450500 -2.67034700 -2.04237500 -3.02352800 1.09807700 -2.21761800
63 -34.91577900 -0.00157300 0.20016800 0.00000000 0.00000000 0.00000000
64 33.59574357 -41.50161714 12.67568452 0.32024001 0.35991048 2.49354368
time 10
0 -0.00000100 7.45008900 -27.50902600 0.00000000 0.00000000 0.00003100
1 -0.00000200 0.00000000 0.00000000 1.57074700 -1.56714200 -1.57074700
2 4.25546500 -0.33518400 -0.00000200 0.00000000 0.00000000 -0.12484800
3 7.43125000 1.49647900 0.00000200 0.00000000 0.00000000 0.24545000
4 5.27847900 0.16554300 0.00000100 0.00000000 0.00000000 0.04851100
5 -1.18646900 -12.25108400 5.42560700 1.97586600 1.15990900 -1.29878500
6 -6.21447800 -0.00001000 -0.00002700 3.02248356 -0.21116224 1.64751108
7 11.94488900 0.00000000 0.00000000 -0.33842663 -0.33258548 1.91219729
8 10.62019000 0.00000000 0.00000000 0.57499221 -0.07974905 2.60211328
9 -4.75111000 -0.69449400 0.83057900 -0.15418600 -0.29167200 0.37319500
10 -1.68807600 0.00004300 -0.00003100 0.02287100 -0.00946300 0.26249200
11 -1.33614300 0.00005300 -0.00001000 0.02592200 0.00450900 0.38004900
12 -4.82049600 -0.50945900 -0.22476100 -0.67850600 -0.12493700 1.39189400
13 -1.82699200 -0.00007200 0.00000800 -0.01519000 0.03755800 0.88963800
14 -1.43657300 0.00000800 0.00000400 -0.05788200 -0.05197400 0.74803500
15 -3.99235900 -0.89118600 -1.82791000 -0.78312200 0.47783100 1.73317100
16 -1.40592200 -0.00002700 0.00000000 0.01158200 -0.02712100 0.47278000
17 -1.17535800 0.00012800 -0.00002100 0.02643300 0.06261000 0.30325800
18 -4.52675200 -0.69057500 -1.12074400 -0.76414900 0.22720200 1.67117900
19 -1.74403800 0.00003300 -0.00000400 -0.01149500 -0.02729000 0.80897100
20 -1.36877400 0.00002500 0.00000400 -0.22704800 0.07843600 0.24818000
21 -1.87479800 -0.93512200 0.99917500 1.79694600 0.72864500 1.01706100
22 -1.52344900 0.00003400 0.00003100 0.10575300 0.13820400 0.75781300
23 -1.59927600 0.00000800 0.00001500 0.02972300 -0.03090300 0.78512800
24 5.58312500 0.11572400 0.29499800 1.94756400 -0.06728900 3.12123600
25 0.19684600 -0.00000100 0.00000400 2.79340680 -0.00105030 -3.14136815
26 -0.17821700 -13.29995500 -6.89535600 1.97586200 1.15991000 1.84280300
27 6.21448500 0.00001000 0.00002000 -0.97646905 0.58220002 -2.20066774
28 11.94488500 -0.00003200 -0.00019900 -1.04950065 -0.36915014 -1.47723002
29 10.62016900 -0.00000200 0.00000800 -1.11423802 -0.75766369 -0.54919112
30 4.75116500 0.69437600 -0.83047400 0.12842900 -0.44158200 0.41817400
31 1.68806100 -0.00002400 0.00000200 0.00068800 -0.02474600 1.41163600
32 1.33615100 -0.00005000 -0.00001000 0.00291500 -0.03857300 0.29474600
33 4.82051700 0.50934200 0.22486600 -0.14851600 -0.31147800 1.00052700
34 1.82700300 0.00006200 0.00001000 0.01090700 0.03895400 1.54771100
35 1.43658100 -0.00000600 0.00001000 0.01503200 0.00167500 -0.83651700
36 3.99235500 0.89109000 1.82799500 -0.45399300 -0.08851700 1.25458700
37 1.40592200 0.00003100 -0.00000400 -0.01421100 -0.02586600 1.37541000
38 1.17536200 -0.00013200 0.00000400 -0.07487300 0.09798600 -0.69969900
39 4.52676200 0.69046800 1.12084200 -0.34960800 -0.17836200 1.24133300
40 1.74404100 -0.00002700 0.00000100 -0.02639200 -0.01328600 1.51729600
41 1.36876300 -0.00003100 -0.00002000 -0.12191500 0.10180800 -1.06387600
42 2.12628300 1.15633100 -0.76951100 1.84706400 0.52542000 0.27660500
43 1.57833900 -0.31926800 -0.04171300 -0.04202400 -0.07377300 0.12077200
44 1.59178900 -0.07172200 0.01248600 0.03799300 0.07429800 -0.27107500
45 5.51180800 -0.00000600 0.00000400 -0.99849200 0.00000000 0.00000000
46 0.19684600 0.00000600 0.00000000 -0.34822500 0.00001500 -0.00000200
47 0.00000000 0.00000000 0.00000000 0.00000000 0.00000000 -1.57079600
48 -4.14904400 0.00000000 -4.12447000 0.00000000 0.00000000 -3.14156200
49 -7.98101949 17.88997800 0.40443978 0.38699358 0.33161479 -0.57014819
50 44.49528500 2.91572600 -17.31057200 0.00000000 0.00000000 0.00000000
51 0.85166200 0.00000100 0.00000000 0.00000000 0.00000000 0.00000000
52 0.34715400 -0.00505900 -1.70929100 0.00000000 0.00000000 0.00000000
53 0.36657500 -0.00505900 0.90475500 0.00000000 0.00000000 0.00000000
54 0.34912600 -0.00505900 0.26595700 0.00000000 0.00000000 0.00000000
55 0.34945900 -0.00505900 -0.38449600 0.00000000 0.00000000 0.00000000
56 0.33780700 -0.00505900 -1.09133600 0.00000000 0.00000000 0.00000000
57 3.93872000 -0.00328400 -1.03767400 0.00000000 0.00000000 0.00000000
58 0.45171900 0.00102000 1.29854300 0.00000000 0.00000000 0.00000000
59 -0.52680000 0.00000000 0.00000000 0.00000000 0.00000000 0.00000000
60 0.62233900 0.00000000 0.00000000 0.00000000 0.00000000 0.00000000
61 11.82441600 1.48995400 -1.86720200 -0.20588600 1.09315300 1.34480400
62 -1.31450500 -2.67034700 -2.04237500 -3.02352800 1.09807700 -2.21761800
63 -34.91577900 -0.00157300 0.20016800 0.00000000 0.00000000 0.00000000
64 36.93887267 -38.76702578 11.10184492 0.36820756 0.33529576 2.58291555
time 11
0 -0.00000100 7.45008900 -27.50902600 0.00000000 0.00000000 0.00003100
1 -0.00000200 0.00000000 0.00000000 1.57074700 -1.56714200 -1.57074700
2 4.25546500 -0.33518400 -0.00000200 0.00000000 0.00000000 -0.12484800
3 7.43125000 1.49647900 0.00000200 0.00000000 0.00000000 0.24545000
4 5.27847900 0.16554300 0.00000100 0.00000000 0.00000000 0.04851100
5 -1.52594800 -12.87016700 6.07541700 1.97586600 1.15990900 -1.29878500
6 -6.21447800 -0.00001000 -0.00002700 3.03272185 -0.20684429 1.57108162
7 11.94488900 0.00000000 0.00000000 -0.32352925 -0.33757683 1.86660375
8 10.62019000 0.00000000 0.00000000 0.60868230 -0.10320855 2.63812514
9 -4.75111000 -0.69449400 0.83057900 -0.15418600 -0.29167200 0.37319500
10 -1.68807600 0.00004300 -0.00003100 0.02287100 -0.00946300 0.26249200
11 -1.33614300 0.00005300 -0.00001000 0.02592200 0.00450900 0.38004900
12 -4.82049600 -0.50945900 -0.22476100 -0.67850600 -0.12493700 1.39189400
13 -1.82699200 -0.00007200 0.00000800 -0.01519000 0.03755800 0.88963800
14 -1.43657300 0.00000800 0.00000400 -0.05788200 -0.05197400 0.74803500
15 -3.99235900 -0.89118600 -1.82791000 -0.78312200 0.47783100 1.73317100
16 -1.40592200 -0.00002700 0.00000000 0.01158200 -0.02712100 0.47278000
17 -1.17535800 0.00012800 -0.00002100 0.02643300 0.06261000 0.30325800
18 -4.52675200 -0.69057500 -1.12074400 -0.76414900 0.22720200 1.67117900
19 -1.74403800 0.00003300 -0.00000400 -0.01149500 -0.02729000 0.80897100
20 -1.36877400 0.00002500 0.00000400 -0.22704800 0.07843600 0.24818000
21 -1.87479800 -0.93512200 0.99917500 1.79694600 0.72864500 1.01706100
22 -1.52344900 0.00003400 0.00003100 0.10575300 0.13820400 0.75781300
23 -1.59927600 0.00000800 0.00001500 0.02972300 -0.03090300 0.78512800
24 5.58312500 0.11572400 0.29499800 1.94756400 -0.06728900 3.12123600
25 0.19684600 -0.00000100 0.00000400 2.79340680 -0.00105030 -3.14136815
26 -0.17821700 -13.29995500 -6.89535600 1.97586200 1.15991000 1.84280300
27 6.21448500 0.00001000 0.00002000 -1.05065348 0.63445259 -2.22202746
28 11.94488500 -0.00003200 -0.00019900 -1.03289430 -0.37827864 -1.52644105
29 10.62016900 -0.00000200 0.00000800 -1.07108548 -0.69091347 -0.59014087
30 4.75116500 0.69437600 -0.83047400 0.12842900 -0.44158200 0.41817400
31 1.68806100 -0.00002400 0.00000200 0.00068800 -0.02474600 1.41163600
32 1.33615100 -0.00005000 -0.00001000 0.00291500 -0.03857300 0.29474600
33 4.82051700 0.50934200 0.22486600 -0.14851600 -0.31147800 1.00052700
34 1.82700300 0.00006200 0.00001000 0.01090700 0.03895400 1.54771100
35 1.43658100 -0.00000600 0.00001000 0.01503200 0.00167500 -0.83651700
36 3.99235500 0.89109000 1.82799500 -0.45399300 -0.08851700 1.25458700
37 1.40592200 0.00003100 -0.00000400 -0.01421100 -0.02586600 1.37541000
38 1.17536200 -0.00013200 0.00000400 -0.07487300 0.09798600 -0.69969900
39 4.52676200 0.69046800 1.12084200 -0.34960800 -0.17836200 1.24133300
40 1.74404100 -0.00002700 0.00000100 -0.02639200 -0.01328600 1.51729600
41 1.36876300 -0.00003100 -0.00002000 -0.12191500 0.10180800 -1.06387600
42 2.12628300 1.15633100 -0.76951100 1.84706400 0.52542000 0.27660500
43 1.57833900 -0.31926800 -0.04171300 -0.04202400 -0.07377300 0.12077200
44 1.59178900 -0.07172200 0.01248600 0.03799300 0.07429800 -0.27107500
45 5.51180800 -0.00000600 0.00000400 -0.99849200 0.00000000 0.00000000
46 0.19684600 0.00000600 0.00000000 -0.34822500 0.00001500 -0.00000200
47 0.00000000 0.00000000 0.00000000 0.00000000 0.00000000 -1.57079600
48 -4.14904400 0.00000000 -4.12447000 0.00000000 0.00000000 -3.14156200
49 -8.58275115 17.88997800 0.02296224 0.43303647 0.30647909 -0.49910935
50 44.49528500 2.91572600 -17.31057200 0.00000000 0.00000000 0.00000000
51 0.85166200 0.00000100 0.00000000 0.00000000 0.00000000 0.00000000
52 0.34715400 -0.00505900 -1.70929100 0.00000000 0.00000000 0.00000000
53 0.36657500 -0.00505900 0.90475500 0.00000000 0.00000000 0.00000000
54 0.34912600 -0.00505900 0.26595700 0.00000000 0.00000000 0.00000000
55 0.34945900 -0.00505900 -0.38449600 0.00000000 0.00000000 0.00000000
56 0.33780700 -0.00505900 -1.09133600 0.00000000 0.00000000 0.00000000
57 3.93872000 -0.00328400 -1.03767400 0.00000000 0.00000000 0.00000000
58 0.45171900 0.00102000 1.29854300 0.00000000 0.00000000 0.00000000
59 -0.52680000 0.00000000 0.00000000 0.00000000 0.00000000 0.00000000
60 0.62233900 0.00000000 0.00000000 0.00000000 0.00000000 0.00000000
61 11.82441600 1.48995400 -1.86720200 -0.20588600 1.09315300 1.34480400
62 -1.31450500 -2.67034700 -2.04237500 -3.02352800 1.09807700 -2.21761800
63 -34.91577900 -0.00157300 0.20016800 0.00000000 0.00000000 0.00000000
64 39.26807005 -36.41348996 9.69517825 0.41404272 0.30979385 2.65407359
time 12
0 -0.00000100 7.45008900 -27.50902600 0.00000000 0.00000000 0.00003100
1 -0.00000200 0.00000000 0.00000000 1.57074700 -1.56714200 -1.57074700
2 4.25546500 -0.33518400 -0.00000200 0.00000000 0.00000000 -0.12484800
3 7.43125000 1.49647900 0.00000200 0.00000000 0.00000000 0.24545000
4 5.27847900 0.16554300 0.00000100 0.00000000 0.00000000 0.04851100
5 -1.64873900 -13.09409500 6.31045700 1.97586600 1.15990900 -1.29878500
6 -6.21447800 -0.00001000 -0.00002700 3.05093504 -0.19974829 1.53993597
7 11.94488900 0.00000000 0.00000000 -0.30663536 -0.34125306 1.81570756
8 10.62019000 0.00000000 0.00000000 0.62961025 -0.13025148 2.70907363
9 -4.75111000 -0.69449400 0.83057900 -0.15418600 -0.29167200 0.37319500
10 -1.68807600 0.00004300 -0.00003100 0.02287100 -0.00946300 0.26249200
11 -1.33614300 0.00005300 -0.00001000 0.02592200 0.00450900 0.38004900
12 -4.82049600 -0.50945900 -0.22476100 -0.67850600 -0.12493700 1.39189400
13 -1.82699200 -0.00007200 0.00000800 -0.01519000 0.03755800 0.88963800
14 -1.43657300 0.00000800 0.00000400 -0.05788200 -0.05197400 0.74803500
15 -3.99235900 -0.89118600 -1.82791000 -0.78312200 0.47783100 1.73317100
16 -1.40592200 -0.00002700 0.00000000 0.01158200 -0.02712100 0.47278000
17 -1.17535800 0.00012800 -0.00002100 0.02643300 0.06261000 0.30325800
18 -4.52675200 -0.69057500 -1.12074400 -0.76414900 0.22720200 1.67117900
19 -1.74403800 0.00003300 -0.00000400 -0.01149500 -0.02729000 0.80897100
20 -1.36877400 0.00002500 0.00000400 -0.22704800 0.07843600 0.24818000
21 -1.87479800 -0.93512200 0.99917500 1.79694600 0.72864500 1.01706100
22 -1.52344900 0.00003400 0.00003100 0.10575300 0.13820400 0.75781300
23 -1.59927600 0.00000800 0.00001500 0.02972300 -0.03090300 0.78512800
24 5.58312500 0.11572400 0.29499800 1.94756400 -0.06728900 3.12123600
25 0.19684600 -0.00000100 0.00000400 2.79340680 -0.00105030 -3.14136815
26 -0.17821700 -13.29995500 -6.89535600 1.97586200 1.15991000 1.84280300
27 6.21448500 0.00001000 0.00002000 -1.09784799 0.66050807 -2.24237139
28 11.94488500 -0.00003200 -0.00019900 -1.02575279 -0.38260617 -1.54769604
29 10.62016900 -0.00000200 0.00000800 -1.05234200 -0.64020202 -0.62841984
30 4.75116500 0.69437600 -0.83047400 0.12842900 -0.44158200 0.41817400
31 1.68806100 -0.00002400 0.00000200 0.00068800 -0.02474600 1.41163600
32 1.33615100 -0.00005000 -0.00001000 0.00291500 -0.03857300 0.29474600
33 4.82051700 0.50934200 0.22486600 -0.14851600 -0.31147800 1.00052700
34 1.82700300 0.00006200 0.00001000 0.01090700 0.03895400 1.54771100
35 1.43658100 -0.00000600 0.00001000 0.01503200 0.00167500 -0.83651700
36 3.99235500 0.89109000 1.82799500 -0.45399300 -0.08851700 1.25458700
37 1.40592200 0.00003100 -0.00000400 -0.01421100 -0.02586600 1.37541000
38 1.17536200 -0.00013200 0.00000400 -0.07487300 0.09798600 -0.69969900
39 4.52676200 0.69046800 1.12084200 -0.34960800 -0.17836200 1.24133300
40 1.74404100 -0.00002700 0.00000100 -0.02639200 -0.01328600 1.51729600
41 1.36876300 -0.00003100 -0.00002000 -0.12191500 0.10180800 -1.06387600
42 2.12628300 1.15633100 -0.76951100 1.84706400 0.52542000 0.27660500
43 1.57833900 -0.31926800 -0.04171300 -0.04202400 -0.07377300 0.12077200
44 1.59178900 -0.07172200 0.01248600 0.03799300 0.07429800 -0.27107500
45 5.51180800 -0.00000600 0.00000400 -0.99849200 0.00000000 0.00000000
46 0.19684600 0.00000600 0.00000000 -0.34822500 0.00001500 -0.00000200
47 0.00000000 0.00000000 0.00000000 0.00000000 0.00000000 -1.57079600
48 -4.14904400 0.00000000 -4.12447000 0.00000000 0.00000000 -3.14156200
49 -8.88575442 17.88997800 -0.14919908 0.47416467 0.28509374 -0.44549821
50 44.49528500 2.91572600 -17.31057200 0.00000000 0.00000000 0.00000000
51 0.85166200 0.00000100 0.00000000 0.00000000 0.00000000 0.00000000
52 0.34715400 -0.00505900 -1.70929100 0.00000000 0.00000000 0.00000000
53 0.36657500 -0.00505900 0.90475500 0.00000000 0.00000000 0.00000000
54 0.34912600 -0.00505900 0.26595700 0.00000000 0.00000000 0.00000000
55 0.34945900 -0.00505900 -0.38449600 0.00000000 0.00000000 0.00000000
56 0.33780700 -0.00505900 -1.09133600 0.00000000 0.00000000 0.00000000
57 3.93872000 -0.00328400 -1.03767400 0.00000000 0.00000000 0.00000000
58 0.45171900 0.00102000 1.29854300 0.00000000 0.00000000 0.00000000
59 -0.52680000 0.00000000 0.00000000 0.00000000 0.00000000 0.00000000
60 0.62233900 0.00000000 0.00000000 0.00000000 0.00000000 0.00000000
61 11.82441600 1.48995400 -1.86720200 -0.20588600 1.09315300 1.34480400
62 -1.31450500 -2.67034700 -2.04237500 -3.02352800 1.09807700 -2.21761800
63 -34.91577900 -0.00157300 0.20016800 0.00000000 0.00000000 0.00000000
64 40.76757018 -34.50964665 8.63356670 0.45504566 0.28815919 2.70773782
time 13
0 -0.00000100 7.45008900 -27.50902600 0.00000000 0.00000000 0.00003100
1 -0.00000200 0.00000000 0.00000000 1.57074700 -1.56714200 -1.57074700
2 4.25546500 -0.33518400 -0.00000200 0.00000000 0.00000000 -0.12484800
3 7.43125000 1.49647900 0.00000200 0.00000000 0.00000000 0.24545000
4 5.27847900 0.16554300 0.00000100 0.00000000 0.00000000 0.04851100
5 -1.64873900 -13.09409500 6.31045700 1.97586600 1.15990900 -1.29878500
6 -6.21447800 -0.00001000 -0.00002700 3.06832392 -0.19245334 1.53455569
7 11.94488900 0.00000000 0.00000000 -0.29191472 -0.34286780 1.77154949
8 10.62019000 0.00000000 0.00000000 0.63315651 -0.15260532 2.78315368
9 -4.75111000 -0.69449400 0.83057900 -0.15418600 -0.29167200 0.37319500
10 -1.68807600 0.00004300 -0.00003100 0.02287100 -0.00946300 0.26249200
11 -1.33614300 0.00005300 -0.00001000 0.02592200 0.00450900 0.38004900
12 -4.82049600 -0.50945900 -0.22476100 -0.67850600 -0.12493700 1.39189400
13 -1.82699200 -0.00007200 0.00000800 -0.01519000 0.03755800 0.88963800
14 -1.43657300 0.00000800 0.00000400 -0.05788200 -0.05197400 0.74803500
15 -3.99235900 -0.89118600 -1.82791000 -0.78312200 0.47783100 1.73317100
16 -1.40592200 -0.00002700 0.00000000 0.01158200 -0.02712100 0.47278000
17 -1.17535800 0.00012800 -0.00002100 0.02643300 0.06261000 0.30325800
18 -4.52675200 -0.69057500 -1.12074400 -0.76414900 0.22720200 1.67117900
19 -1.74403800 0.00003300 -0.00000400 -0.01149500 -0.02729000 0.80897100
20 -1.36877400 0.00002500 0.00000400 -0.22704800 0.07843600 0.24818000
21 -1.87479800 -0.93512200 0.99917500 1.79694600 0.72864500 1.01706100
22 -1.52344900 0.00003400 0.00003100 0.10575300 0.13820400 0.75781300
23 -1.59927600 0.00000800 0.00001500 0.02972300 -0.03090300 0.78512800
24 5.58312500 0.11572400 0.29499800 1.94756400 -0.06728900 3.12123600
25 0.19684600 -0.00000100 0.00000400 2.79340680 -0.00105030 -3.14136815
26 -0.17821700 -13.29995500 -6.89535600 1.97586200 1.15991000 1.84280300
27 6.21448500 0.00001000 0.00002000 -1.11636253 0.67031201 -2.25010951
28 11.94488500 -0.00003200 -0.00019900 -1.02280181 -0.37933706 -1.55617751
29 10.62016900 -0.00000200 0.00000800 -1.03918110 -0.61748328 -0.66654562
30 4.75116500 0.69437600 -0.83047400 0.12842900 -0.44158200 0.41817400
31 1.68806100 -0.00002400 0.00000200 0.00068800 -0.02474600 1.41163600
32 1.33615100 -0.00005000 -0.00001000 0.00291500 -0.03857300 0.29474600
33 4.82051700 0.50934200 0.22486600 -0.14851600 -0.31147800 1.00052700
34 1.82700300 0.00006200 0.00001000 0.01090700 0.03895400 1.54771100
35 1.43658100 -0.00000600 0.00001000 0.01503200 0.00167500 -0.83651700
36 3.99235500 0.89109000 1.82799500 -0.45399300 -0.08851700 1.25458700
37 1.40592200 0.00003100 -0.00000400 -0.01421100 -0.02586600 1.37541000
38 1.17536200 -0.00013200 0.00000400 -0.07487300 0.09798600 -0.69969900
39 4.52676200 0.69046800 1.12084200 -0.34960800 -0.17836200 1.24133300
40 1.74404100 -0.00002700 0.00000100 -0.02639200 -0.01328600 1.51729600
41 1.36876300 -0.00003100 -0.00002000 -0.12191500 0.10180800 -1.06387600
42 2.12628300 1.15633100 -0.76951100 1.84706400 0.52542000 0.27660500
43 1.57833900 -0.31926800 -0.04171300 -0.04202400 -0.07377300 0.12077200
44 1.59178900 -0.07172200 0.01248600 0.03799300 0.07429800 -0.27107500
45 5.51180800 -0.00000600 0.00000400 -0.99849200 0.00000000 0.00000000
46 0.19684600 0.00000600 0.00000000 -0.34822500 0.00001500 -0.00000200
47 0.00000000 0.00000000 0.00000000 0.00000000 0.00000000 -1.57079600
48 -4.14904400 0.00000000 -4.12447000 0.00000000 0.00000000 -3.14156200
49 -8.99613347 17.88997800 -0.18690352 0.49909641 0.26977918 -0.40831229
50 44.49528500 2.91572600 -17.31057200 0.00000000 0.00000000 0.00000000
51 0.85166200 0.00000100 0.00000000 0.00000000 0.00000000 0.00000000
52 0.34715400 -0.00505900 -1.70929100 0.00000000 0.00000000 0.00000000
53 0.36657500 -0.00505900 0.90475500 0.00000000 0.00000000 0.00000000
54 0.34912600 -0.00505900 0.26595700 0.00000000 0.00000000 0.00000000
55 0.34945900 -0.00505900 -0.38449600 0.00000000 0.00000000 0.00000000
56 0.33780700 -0.00505900 -1.09133600 0.00000000 0.00000000 0.00000000
57 3.93872000 -0.00328400 -1.03767400 0.00000000 0.00000000 0.00000000
58 0.45171900 0.00102000 1.29854300 0.00000000 0.00000000 0.00000000
59 -0.52680000 0.00000000 0.00000000 0.00000000 0.00000000 0.00000000
60 0.62233900 0.00000000 0.00000000 0.00000000 0.00000000 0.00000000
61 11.82441600 1.48995400 -1.86720200 -0.20588600 1.09315300 1.34480400
62 -1.31450500 -2.67034700 -2.04237500 -3.02352800 1.09807700 -2.21761800
63 -34.91577900 -0.00157300 0.20016800 0.00000000 0.00000000 0.00000000
64 41.61363765 -33.10137806 7.93205547 0.47977637 0.27258343 2.74495702
time 14
0 -0.00000100 7.45008900 -27.50902600 0.00000000 0.00000000 0.00003100
1 -0.00000200 0.00000000 0.00000000 1.57074700 -1.56714200 -1.57074700
2 4.25546500 -0.33518400 -0.00000200 0.00000000 0.00000000 -0.12484800
3 7.43125000 1.49647900 0.00000200 0.00000000 0.00000000 0.24545000
4 5.27847900 0.16554300 0.00000100 0.00000000 0.00000000 0.04851100
5 -1.64873900 -13.09409500 6.31045700 1.97586600 1.15990900 -1.29878500
6 -6.21447800 -0.00001000 -0.00002700 3.07888797 -0.18961735 1.53369129
7 11.94488900 0.00000000 0.00000000 -0.28330831 -0.34337374 1.74604605
8 10.62019000 0.00000000 0.00000000 0.62155628 -0.16702312 2.82930494
9 -4.75111000 -0.69449400 0.83057900 -0.15418600 -0.29167200 0.37319500
10 -1.68807600 0.00004300 -0.00003100 0.02287100 -0.00946300 0.26249200
11 -1.33614300 0.00005300 -0.00001000 0.02592200 0.00450900 0.38004900
12 -4.82049600 -0.50945900 -0.22476100 -0.67850600 -0.12493700 1.39189400
13 -1.82699200 -0.00007200 0.00000800 -0.01519000 0.03755800 0.88963800
14 -1.43657300 0.00000800 0.00000400 -0.05788200 -0.05197400 0.74803500
15 -3.99235900 -0.89118600 -1.82791000 -0.78312200 0.47783100 1.73317100
16 -1.40592200 -0.00002700 0.00000000 0.01158200 -0.02712100 0.47278000
17 -1.17535800 0.00012800 -0.00002100 0.02643300 0.06261000 0.30325800
18 -4.52675200 -0.69057500 -1.12074400 -0.76414900 0.22720200 1.67117900
19 -1.74403800 0.00003300 -0.00000400 -0.01149500 -0.02729000 0.80897100
20 -1.36877400 0.00002500 0.00000400 -0.22704800 0.07843600 0.24818000
21 -1.87479800 -0.93512200 0.99917500 1.79694600 0.72864500 1.01706100
22 -1.52344900 0.00003400 0.00003100 0.10575300 0.13820400 0.75781300
23 -1.59927600 0.00000800 0.00001500 0.02972300 -0.03090300 0.78512800
24 5.58312500 0.11572400 0.29499800 1.94756400 -0.06728900 3.12123600
25 0.19684600 -0.00000100 0.00000400 2.79340680 -0.00105030 -3.14136815
26 -0.17821700 -13.29995500 -6.89535600 1.97586200 1.15991000 1.84280300
27 6.21448500 0.00001000 0.00002000 -1.11848139 0.67438601 -2.24848245
28 11.94488500 -0.00003200 -0.00019900 -1.02002779 -0.37120576 -1.56354563
29 10.62016900 -0.00000200 0.00000800 -1.01582009 -0.61951230 -0.70044428
30 4.75116500 0.69437600 -0.83047400 0.12842900 -0.44158200 0.41817400
31 1.68806100 -0.00002400 0.00000200 0.00068800 -0.02474600 1.41163600
32 1.33615100 -0.00005000 -0.00001000 0.00291500 -0.03857300 0.29474600
33 4.82051700 0.50934200 0.22486600 -0.14851600 -0.31147800 1.00052700
34 1.82700300 0.00006200 0.00001000 0.01090700 0.03895400 1.54771100
35 1.43658100 -0.00000600 0.00001000 0.01503200 0.00167500 -0.83651700
36 3.99235500 0.89109000 1.82799500 -0.45399300 -0.08851700 1.25458700
37 1.40592200 0.00003100 -0.00000400 -0.01421100 -0.02586600 1.37541000
38 1.17536200 -0.00013200 0.00000400 -0.07487300 0.09798600 -0.69969900
39 4.52676200 0.69046800 1.12084200 -0.34960800 -0.17836200 1.24133300
40 1.74404100 -0.00002700 0.00000100 -0.02639200 -0.01328600 1.51729600
41 1.36876300 -0.00003100 -0.00002000 -0.12191500 0.10180800 -1.06387600
42 2.12628300 1.15633100 -0.76951100 1.84706400 0.52542000 0.27660500
43 1.57833900 -0.31926800 -0.04171300 -0.04202400 -0.07377300 0.12077200
44 1.59178900 -0.07172200 0.01248600 0.03799300 0.07429800 -0.27107500
45 5.51180800 -0.00000600 0.00000400 -0.99849200 0.00000000 0.00000000
46 0.19684600 0.00000600 0.00000000 -0.34822500 0.00001500 -0.00000200
47 0.00000000 0.00000000 0.00000000 0.00000000 0.00000000 -1.57079600
48 -4.14904400 0.00000000 -4.12447000 0.00000000 0.00000000 -3.14156200
49 -9.00357490 17.88997800 -0.19109009 0.49984437 0.26126531 -0.38541713
50 44.49528500 2.91572600 -17.31057200 0.00000000 0.00000000 0.00000000
51 0.85166200 0.00000100 0.00000000 0.00000000 0.00000000 0.00000000
52 0.34715400 -0.00505900 -1.70929100 0.00000000 0.00000000 0.00000000
53 0.36657500 -0.00505900 0.90475500 0.00000000 0.00000000 0.00000000
54 0.34912600 -0.00505900 0.26595700 0.00000000 0.00000000 0.00000000
55 0.34945900 -0.00505900 -0.38449600 0.00000000 0.00000000 0.00000000
56 0.33780700 -0.00505900 -1.09133600 0.00000000 0.00000000 0.00000000
57 3.93872000 -0.00328400 -1.03767400 0.00000000 0.00000000 0.00000000
58 0.45171900 0.00102000 1.29854300 0.00000000 0.00000000 0.00000000
59 -0.52680000 0.00000000 0.00000000 0.00000000 0.00000000 0.00000000
60 0.62233900 0.00000000 0.00000000 0.00000000 0.00000000 0.00000000
61 11.82441600 1.48995400 -1.86720200 -0.20588600 1.09315300 1.34480400
62 -1.31450500 -2.67034700 -2.04237500 -3.02352800 1.09807700 -2.21761800
63 -34.91577900 -0.00157300 0.20016800 0.00000000 0.00000000 0.00000000
64 42.00428244 -32.22150013 7.55756909 0.48033259 0.26397976 2.76781866
time 15
0 -0.00000100 7.45008900 -27.50902600 0.00000000 0.00000000 0.00003100
1 -0.00000200 0.00000000 0.00000000 1.57074700 -1.56714200 -1.57074700
2 4.25546500 -0.33518400 -0.00000200 0.00000000 0.00000000 -0.12484800
3 7.43125000 1.49647900 0.00000200 0.00000000 0.00000000 0.24545000
4 5.27847900 0.16554300 0.00000100 0.00000000 0.00000000 0.04851100
5 -1.64873900 -13.09409500 6.31045700 1.97586600 1.15990900 -1.29878500
6 -6.21447800 -0.00001000 -0.00002700 3.07965757 -0.19066273 1.53756158
7 11.94488900 0.00000000 0.00000000 -0.28105606 -0.34352559 1.73947117
8 10.62019000 0.00000000 0.00000000 0.60455818 -0.16866906 2.84721631
9 -4.75111000 -0.69449400 0.83057900 -0.15418600 -0.29167200 0.37319500
10 -1.68807600 0.00004300 -0.00003100 0.02287100 -0.00946300 0.26249200
11 -1.33614300 0.00005300 -0.00001000 0.02592200 0.00450900 0.38004900
12 -4.82049600 -0.50945900 -0.22476100 -0.67850600 -0.12493700 1.39189400
13 -1.82699200 -0.00007200 0.00000800 -0.01519000 0.03755800 0.88963800
14 -1.43657300 0.00000800 0.00000400 -0.05788200 -0.05197400 0.74803500
15 -3.99235900 -0.89118600 -1.82791000 -0.78312200 0.47783100 1.73317100
16 -1.40592200 -0.00002700 0.00000000 0.01158200 -0.02712100 0.47278000
17 -1.17535800 0.00012800 -0.00002100 0.02643300 0.06261000 0.30325800
18 -4.52675200 -0.69057500 -1.12074400 -0.76414900 0.22720200 1.67117900
19 -1.74403800 0.00003300 -0.00000400 -0.01149500 -0.02729000 0.80897100
20 -1.36877400 0.00002500 0.00000400 -0.22704800 0.07843600 0.24818000
21 -1.87479800 -0.93512200 0.99917500 1.79694600 0.72864500 1.01706100
22 -1.52344900 0.00003400 0.00003100 0.10575300 0.13820400 0.75781300
23 -1.59927600 0.00000800 0.00001500 0.02972300 -0.03090300 0.78512800
24 5.58312500 0.11572400 0.29499800 1.94756400 -0.06728900 3.12123600
25 0.19684600 -0.00000100 0.00000400 2.79340680 -0.00105030 -3.14136815
26 -0.17821700 -13.29995500 -6.89535600 1.97586200 1.15991000 1.84280300
27 6.21448500 0.00001000 0.00002000 -1.11934642 0.67454343 -2.24733628
28 11.94488500 -0.00003200 -0.00019900 -1.01825033 -0.36213037 -1.56819769
29 10.62016900 -0.00000200 0.00000800 -0.98996270 -0.62867291 -0.71932887
30 4.75116500 0.69437600 -0.83047400 0.12842900 -0.44158200 0.41817400
31 1.68806100 -0.00002400 0.00000200 0.00068800 -0.02474600 1.41163600
32 1.33615100 -0.00005000 -0.00001000 0.00291500 -0.03857300 0.29474600
33 4.82051700 0.50934200 0.22486600 -0.14851600 -0.31147800 1.00052700
34 1.82700300 0.00006200 0.00001000 0.01090700 0.03895400 1.54771100
35 1.43658100 -0.00000600 0.00001000 0.01503200 0.00167500 -0.83651700
36 3.99235500 0.89109000 1.82799500 -0.45399300 -0.08851700 1.25458700
37 1.40592200 0.00003100 -0.00000400 -0.01421100 -0.02586600 1.37541000
38 1.17536200 -0.00013200 0.00000400 -0.07487300 0.09798600 -0.69969900
39 4.52676200 0.69046800 1.12084200 -0.34960800 -0.17836200 1.24133300
40 1.74404100 -0.00002700 0.00000100 -0.02639200 -0.01328600 1.51729600
41 1.36876300 -0.00003100 -0.00002000 -0.12191500 0.10180800 -1.06387600
42 2.12628300 1.15633100 -0.76951100 1.84706400 0.52542000 0.27660500
43 1.57833900 -0.31926800 -0.04171300 -0.04202400 -0.07377300 0.12077200
44 1.59178900 -0.07172200 0.01248600 0.03799300 0.07429800 -0.27107500
45 5.51180800 -0.00000600 0.00000400 -0.99849200 0.00000000 0.00000000
46 0.19684600 0.00000600 0.00000000 -0.34822500 0.00001500 -0.00000200
47 0.00000000 0.00000000 0.00000000 0.00000000 0.00000000 -1.57079600
48 -4.14904400 0.00000000 -4.12447000 0.00000000 0.00000000 -3.14156200
49 -8.94825670 17.88997800 -0.18344532 0.48715467 0.26124951 -0.37667163
50 44.49528500 2.91572600 -17.31057200 0.00000000 0.00000000 0.00000000
51 0.85166200 0.00000100 0.00000000 0.00000000 0.00000000 0.00000000
52 0.34715400 -0.00505900 -1.70929100 0.00000000 0.00000000 0.00000000
53 0.36657500 -0.00505900 0.90475500 0.00000000 0.00000000 0.00000000
54 0.34912600 -0.00505900 0.26595700 0.00000000 0.00000000 0.00000000
55 0.34945900 -0.00505900 -0.38449600 0.00000000 0.00000000 0.00000000
56 0.33780700 -0.00505900 -1.09133600 0.00000000 0.00000000 0.00000000
57 3.93872000 -0.00328400 -1.03767400 0.00000000 0.00000000 0.00000000
58 0.45171900 0.00102000 1.29854300 0.00000000 0.00000000 0.00000000
59 -0.52680000 0.00000000 0.00000000 0.00000000 0.00000000 0.00000000
60 0.62233900 0.00000000 0.00000000 0.00000000 0.00000000 0.00000000
61 11.82441600 1.48995400 -1.86720200 -0.20588600 1.09315300 1.34480400
62 -1.31450500 -2.67034700 -2.04237500 -3.02352800 1.09807700 -2.21761800
63 -34.91577900 -0.00157300 0.20016800 0.00000000 0.00000000 0.00000000
64 42.02084499 -31.88403003 7.55451769 0.46756655 0.26388581 2.77641306
end
