// Created by Crowbar 0.74
version 1
nodes
  0 "root" -1
  1 "pelvis" 0
  2 "spine_01" 1
  3 "spine_02" 2
  4 "spine_03" 3
  5 "clavicle_r" 4
  6 "upperarm_r" 5
  7 "lowerarm_r" 6
  8 "hand_r" 7
  9 "index_01_r" 8
  10 "index_02_r" 9
  11 "index_03_r" 10
  12 "middle_01_r" 8
  13 "middle_02_r" 12
  14 "middle_03_r" 13
  15 "pinky_01_r" 8
  16 "pinky_02_r" 15
  17 "pinky_03_r" 16
  18 "ring_01_r" 8
  19 "ring_02_r" 18
  20 "ring_03_r" 19
  21 "thumb_01_r" 8
  22 "thumb_02_r" 21
  23 "thumb_03_r" 22
  24 "lowerarm_twist_01_r" 7
  25 "upperarm_twist_01_r" 6
  26 "clavicle_l" 4
  27 "upperarm_l" 26
  28 "lowerarm_l" 27
  29 "hand_l" 28
  30 "index_01_l" 29
  31 "index_02_l" 30
  32 "index_03_l" 31
  33 "middle_01_l" 29
  34 "middle_02_l" 33
  35 "middle_03_l" 34
  36 "pinky_01_l" 29
  37 "pinky_02_l" 36
  38 "pinky_03_l" 37
  39 "ring_01_l" 29
  40 "ring_02_l" 39
  41 "ring_03_l" 40
  42 "thumb_01_l" 29
  43 "thumb_02_l" 42
  44 "thumb_03_l" 43
  45 "lowerarm_twist_01_l" 28
  46 "upperarm_twist_01_l" 27
  47 "cam_driver" -1
  48 "Base" -1
  49 "Trigger" 48
  50 "Bolt" 48
  51 "rhand_ikTarget" 48
  52 "lhand_ikTarget" 48
  53 "MagRelease" 48
  54 "BoltCover" 48
  55 "Boltpuller" 48
  56 "Mag" 48
  57 "Bullet" 56
  58 "BulletMove" 57
end
skeleton
  time 0
    0 -0.000001 9.445313 -27.500000 0.000000 0.000000 -0.000001
    1 -0.000002 0.000000 0.000000 1.570743 -1.567137 -1.570743
    2 4.255468 -0.335183 -0.000002 0.000000 0.000000 -0.124848
    3 7.431248 1.496477 0.000002 0.000000 0.000000 0.245450
    4 5.278479 0.165541 0.000001 0.000000 0.000000 0.048511
    5 4.643497 -1.298299 0.098310 1.975864 1.159909 -1.298786
    6 -6.214482 -0.000007 -0.000027 2.634197 -0.246089 2.679303
    7 11.944882 0.000000 0.000001 -0.416571 -0.293044 2.165452
    8 10.620181 0.000002 0.000000 0.269131 0.250736 2.511857
    9 -4.751106 -0.694494 0.830577 0.158601 -0.097860 -0.042117
    10 -1.688068 0.000046 -0.000032 0.017336 -0.017701 0.663687
    11 -1.336140 0.000057 -0.000012 0.026393 -0.000544 0.574362
    12 -4.820494 -0.509460 -0.224759 -0.571001 -0.105504 1.450021
    13 -1.826992 -0.000064 0.000006 0.006567 0.039974 1.436945
    14 -1.436573 0.000006 0.000002 -0.027803 -0.072691 0.273305
    15 -3.992355 -0.891188 -1.827909 -0.633029 0.345677 1.729988
    16 -1.405918 -0.000025 -0.000003 -0.002971 -0.029380 0.976527
    17 -1.175358 0.000128 -0.000020 0.013935 0.066537 0.109985
    18 -4.526751 -0.690575 -1.120744 -0.604095 0.115941 1.646758
    19 -1.744038 0.000033 -0.000008 -0.023781 -0.017656 1.343242
    20 -1.368771 0.000025 0.000002 -0.239317 0.018432 -0.003573
    21 -1.874800 -0.935125 0.999174 2.067204 0.441573 0.749806
    22 -1.523453 0.000032 0.000031 0.074265 0.233956 0.563732
    23 -1.599285 0.000004 0.000016 0.029772 -0.030974 0.785151
    24 5.511815 0.000008 -0.000001 2.243089 -0.002559 -3.140365
    25 0.196847 -0.000001 0.000003 2.793407 0.000006 -3.141577
    26 -1.884046 -19.255878 -3.918740 1.975862 1.159909 1.842803
    27 6.214485 0.000006 0.000020 -0.311933 0.300946 -1.673942
    28 11.944885 -0.000029 -0.000194 -0.032136 -0.240623 -0.739164
    29 10.620166 0.000002 0.000010 -1.018661 0.007858 0.013040
    30 4.751156 0.694376 -0.830473 -0.056768 0.023932 0.325074
    31 1.688065 -0.000026 0.000002 0.128120 -0.152971 0.079269
    32 1.336151 -0.000051 -0.000009 0.083929 -0.146338 -0.285773
    33 4.820513 0.509340 0.224865 -0.227607 -0.145633 0.325140
    34 1.826996 0.000066 0.000008 -0.037584 0.015166 0.086382
    35 1.436577 -0.000010 0.000007 0.011107 -0.010364 0.022072
    36 3.992353 0.891087 1.827994 -0.336124 -0.275054 0.359546
    37 1.405918 0.000021 -0.000007 0.013955 -0.026024 0.383425
    38 1.175369 -0.000131 0.000002 0.021230 0.121471 0.128410
    39 4.526756 0.690460 1.120842 -0.285250 -0.195737 0.415005
    40 1.744041 -0.000031 -0.000002 0.009865 -0.027940 0.071242
    41 1.368763 -0.000031 -0.000017 0.036590 0.154469 0.048116
    42 1.874855 0.935081 -0.999130 1.495480 0.797439 0.199906
    43 1.523449 -0.000034 -0.000003 0.038203 -0.033000 0.408780
    44 1.599281 -0.000002 0.000009 0.047722 0.068590 -0.135647
    45 5.511806 -0.000002 0.000006 -0.023278 0.000004 0.000006
    46 0.196850 0.000003 -0.000002 -0.348225 0.000015 -0.000002
    47 0.000000 1.999023 0.000000 0.000000 0.000000 -1.570796
    48 -8.046340 -6.837718 -5.548050 0.084970 0.000000 1.612857
    49 3.332491 -0.003284 -0.934897 0.000000 0.000000 0.000000
    50 0.381264 0.001021 0.888928 0.000000 0.000000 0.000000
    51 9.568965 1.446741 -4.365668 0.569552 1.156004 2.164662
    52 -21.428074 -16.773267 -3.357825 1.265023 -1.449438 0.142932
    53 1.813139 0.139032 -0.745562 0.000000 0.000000 0.000000
    54 0.381264 0.783885 0.615359 -3.023270 0.000000 0.000000
    55 6.501173 0.256559 2.048409 0.000000 0.000000 0.000000
    56 0.050734 -0.015066 -0.906442 0.000000 0.000000 0.000000
    57 0.026926 -0.174474 1.260252 0.000000 0.000000 0.000000
    58 0.000000 0.345213 0.242352 0.000000 0.000000 0.000000
  time 1
    0 -0.000001 9.445313 -27.500000 0.000000 0.000000 -0.000001
    1 -0.000002 0.000000 0.000000 1.570743 -1.567137 -1.570743
    2 4.255468 -0.335183 -0.000002 0.000000 0.000000 -0.124848
    3 7.431248 1.496477 0.000002 0.000000 0.000000 0.245450
    4 5.278479 0.165541 0.000001 0.000000 0.000000 0.048511
    5 4.573182 -1.560026 0.156905 1.975864 1.159909 -1.298786
    6 -6.214482 -0.000007 -0.000027 2.635775 -0.245075 2.690137
    7 11.944882 0.000000 0.000001 -0.422593 -0.289054 2.186431
    8 10.620181 0.000002 0.000000 0.275342 0.244904 2.504182
    9 -4.751106 -0.694494 0.830577 0.158601 -0.097860 -0.042117
    10 -1.688068 0.000046 -0.000032 0.017336 -0.017701 0.663687
    11 -1.336140 0.000057 -0.000012 0.026393 -0.000544 0.574362
    12 -4.820494 -0.509460 -0.224759 -0.571001 -0.105504 1.450021
    13 -1.826992 -0.000064 0.000006 0.006567 0.039986 1.436945
    14 -1.436573 0.000006 0.000002 -0.027803 -0.072691 0.273305
    15 -3.992355 -0.891188 -1.827909 -0.633029 0.345677 1.729988
    16 -1.405918 -0.000025 -0.000003 -0.002971 -0.029380 0.976527
    17 -1.175358 0.000128 -0.000020 0.013935 0.066537 0.109985
    18 -4.526751 -0.690575 -1.120744 -0.604095 0.115941 1.646758
    19 -1.744038 0.000033 -0.000008 -0.023781 -0.017656 1.343242
    20 -1.368771 0.000025 0.000002 -0.239317 0.018432 -0.003573
    21 -1.874800 -0.935125 0.999174 2.067204 0.441573 0.749806
    22 -1.523453 0.000032 0.000031 0.074265 0.233956 0.563732
    23 -1.599285 0.000004 0.000016 0.029772 -0.030974 0.785151
    24 5.511815 0.000008 -0.000001 2.243089 -0.002559 -3.140365
    25 0.196847 -0.000001 0.000003 2.793407 0.000006 -3.141577
    26 -1.805918 -18.900399 -3.946084 1.975862 1.159909 1.842803
    27 6.214485 0.000006 0.000020 -0.123444 0.340380 -1.490687
    28 11.944885 -0.000029 -0.000194 0.070433 -0.315203 -1.108810
    29 10.620166 0.000002 0.000010 -1.150512 -0.000439 0.204154
    30 4.751156 0.694376 -0.830473 -0.054740 0.023402 0.327143
    31 1.688065 -0.000026 0.000002 0.126934 -0.152492 0.085724
    32 1.336151 -0.000051 -0.000009 0.083018 -0.145858 -0.280093
    33 4.820513 0.509340 0.224865 -0.226358 -0.142960 0.329289
    34 1.826996 0.000066 0.000008 -0.037488 0.015406 0.092515
    35 1.436577 -0.000010 0.000007 0.011035 -0.010436 0.028222
    36 3.992353 0.891087 1.827994 -0.337898 -0.273359 0.365720
    37 1.405918 0.000021 -0.000007 0.013799 -0.026108 0.389456
    38 1.175369 -0.000131 0.000002 0.021674 0.121387 0.132169
    39 4.526756 0.690460 1.120842 -0.285292 -0.194802 0.420017
    40 1.744041 -0.000031 -0.000002 0.009649 -0.028011 0.079039
    41 1.368763 -0.000031 -0.000017 0.037166 0.154337 0.051881
    42 1.874855 0.935081 -0.999130 1.473554 0.781464 0.203238
    43 1.523449 -0.000034 -0.000003 0.038203 -0.033000 0.408780
    44 1.599281 -0.000002 0.000009 0.048249 0.068218 -0.127985
    45 5.511806 -0.000002 0.000006 -0.023278 0.000004 0.000006
    46 0.196850 0.000003 -0.000002 -0.348225 0.000015 -0.000002
    47 0.000000 1.999023 0.000000 0.000000 0.000000 -1.570796
    48 -8.046340 -6.923658 -5.501173 0.088809 -0.000038 1.612383
    49 3.332491 -0.003284 -0.934897 0.000000 0.000000 0.000000
    50 0.381264 0.001021 0.888928 0.000000 0.000000 0.000000
    51 9.568965 1.446741 -4.365668 0.569552 1.156004 2.164662
    52 -19.111598 -16.929522 -3.322668 1.252141 -1.447302 0.140740
    53 1.813139 0.139032 -0.745562 0.000000 0.000000 0.000000
    54 0.381264 0.783885 0.615359 -3.023270 0.000000 0.000000
    55 6.501173 0.256559 2.048409 0.000000 0.000000 0.000000
    56 0.050734 -0.015066 -0.906442 0.000000 0.000000 0.000000
    57 0.026926 -0.174474 1.260252 0.000000 0.000000 0.000000
    58 0.000000 0.345213 0.242352 0.000000 0.000000 0.000000
  time 2
    0 -0.000001 9.445313 -27.500000 0.000000 0.000000 -0.000001
    1 -0.000002 0.000000 0.000000 1.570743 -1.567137 -1.570743
    2 4.255468 -0.335183 -0.000002 0.000000 0.000000 -0.124848
    3 7.431248 1.496477 0.000002 0.000000 0.000000 0.245450
    4 5.278479 0.165541 0.000001 0.000000 0.000000 0.048511
    5 4.377864 -2.286610 0.313160 1.975864 1.159909 -1.298786
    6 -6.214482 -0.000007 -0.000027 2.648742 -0.242673 2.711879
    7 11.944882 0.000000 0.000001 -0.436543 -0.279058 2.236290
    8 10.620181 0.000002 0.000000 0.294945 0.222170 2.484211
    9 -4.751106 -0.694494 0.830577 0.158601 -0.097860 -0.042117
    10 -1.688068 0.000046 -0.000032 0.017336 -0.017701 0.663687
    11 -1.336140 0.000057 -0.000012 0.026393 -0.000544 0.574362
    12 -4.820494 -0.509460 -0.224759 -0.571001 -0.105504 1.450021
    13 -1.826992 -0.000064 0.000006 0.006567 0.039974 1.436945
    14 -1.436573 0.000006 0.000002 -0.027803 -0.072691 0.273305
    15 -3.992355 -0.891188 -1.827909 -0.633029 0.345677 1.729988
    16 -1.405918 -0.000025 -0.000003 -0.002971 -0.029380 0.976527
    17 -1.175358 0.000128 -0.000020 0.013935 0.066537 0.109985
    18 -4.526751 -0.690575 -1.120744 -0.604095 0.115941 1.646758
    19 -1.744038 0.000033 -0.000008 -0.023781 -0.017656 1.343242
    20 -1.368771 0.000025 0.000002 -0.239317 0.018432 -0.003573
    21 -1.874800 -0.935125 0.999174 2.067204 0.441573 0.749806
    22 -1.523453 0.000032 0.000031 0.074265 0.233956 0.563732
    23 -1.599285 0.000004 0.000016 0.029772 -0.030974 0.785151
    24 5.511815 0.000008 -0.000001 2.243089 -0.002559 -3.140365
    25 0.196847 -0.000001 0.000003 2.793407 0.000006 -3.141577
    26 -1.598881 -17.919900 -4.016399 1.975862 1.159909 1.842803
    27 6.214485 0.000006 0.000020 0.028513 0.316123 -1.362126
    28 11.944885 -0.000029 -0.000194 0.145690 -0.340874 -1.341390
    29 10.620166 0.000002 0.000010 -1.276313 -0.020497 0.298538
    30 4.751156 0.694376 -0.830473 -0.050021 0.022150 0.332673
    31 1.688065 -0.000026 0.000002 0.123542 -0.151065 0.104263
    32 1.336151 -0.000051 -0.000009 0.080429 -0.144480 -0.263725
    33 4.820513 0.509340 0.224865 -0.222651 -0.139676 0.341542
    34 1.826996 0.000066 0.000008 -0.037213 0.016065 0.110159
    35 1.436577 -0.000010 0.000007 0.010855 -0.010628 0.045889
    36 3.992353 0.891087 1.827994 -0.342943 -0.268400 0.383345
    37 1.405918 0.000021 -0.000007 0.013343 -0.026348 0.406733
    38 1.175369 -0.000131 0.000002 0.022980 0.121159 0.142853
    39 4.526756 0.690460 1.120842 -0.285404 -0.192106 0.434410
    40 1.744041 -0.000031 -0.000002 0.009026 -0.028215 0.101366
    41 1.368763 -0.000031 -0.000017 0.038808 0.153930 0.062614
    42 1.874855 0.935081 -0.999130 1.459481 0.764649 0.214536
    43 1.523449 -0.000034 -0.000003 0.038203 -0.033000 0.408780
    44 1.599281 -0.000002 0.000009 0.049735 0.067139 -0.105950
    45 5.511806 -0.000002 0.000006 -0.023278 0.000004 0.000006
    46 0.196850 0.000003 -0.000002 -0.348225 0.000015 -0.000002
    47 0.000000 1.999023 0.000000 0.000000 0.000000 -1.570796
    48 -8.046340 -7.251793 -5.337106 0.102970 -0.000154 1.610678
    49 3.332491 -0.003284 -0.934897 0.000000 0.000000 0.000000
    50 0.381264 0.001021 0.888928 0.000000 0.000000 0.000000
    51 9.568965 1.446741 -4.365668 0.569552 1.156004 2.164662
    52 -16.310731 -17.234218 -3.221102 1.192597 -1.441426 0.158431
    53 1.813139 0.139032 -0.745562 0.000000 0.000000 0.000000
    54 0.381264 0.783885 0.615359 -3.023270 0.000000 0.000000
    55 6.501173 0.256559 2.048409 0.000000 0.000000 0.000000
    56 0.050734 -0.015066 -0.906442 0.000000 0.000000 0.000000
    57 0.026926 -0.174474 1.260252 0.000000 0.000000 0.000000
    58 0.000000 0.345213 0.242352 0.000000 0.000000 0.000000
  time 3
    0 -0.000001 9.445313 -27.500000 0.000000 0.000000 -0.000001
    1 -0.000002 0.000000 0.000000 1.570743 -1.567137 -1.570743
    2 4.255468 -0.335183 -0.000002 0.000000 0.000000 -0.124848
    3 7.431248 1.496477 0.000002 0.000000 0.000000 0.245450
    4 5.278479 0.165541 0.000001 0.000000 0.000000 0.048511
    5 4.084886 -3.392113 0.551448 1.975864 1.159909 -1.298786
    6 -6.214482 -0.000007 -0.000027 2.694724 -0.241523 2.717557
    7 11.944882 0.000000 0.000001 -0.449795 -0.268536 2.285195
    8 10.620181 0.000002 0.000000 0.331744 0.168400 2.457100
    9 -4.751106 -0.694494 0.830577 0.158601 -0.097860 -0.042117
    10 -1.688068 0.000046 -0.000032 0.017336 -0.017701 0.663687
    11 -1.336140 0.000057 -0.000012 0.026393 -0.000544 0.574362
    12 -4.820494 -0.509460 -0.224759 -0.571001 -0.105504 1.450021
    13 -1.826992 -0.000064 0.000006 0.006567 0.039974 1.436945
    14 -1.436573 0.000006 0.000002 -0.027803 -0.072691 0.273305
    15 -3.992355 -0.891188 -1.827909 -0.633029 0.345677 1.729988
    16 -1.405918 -0.000025 -0.000003 -0.002971 -0.029380 0.976527
    17 -1.175358 0.000128 -0.000020 0.013935 0.066537 0.109985
    18 -4.526751 -0.690575 -1.120744 -0.604095 0.115941 1.646758
    19 -1.744038 0.000033 -0.000008 -0.023781 -0.017656 1.343242
    20 -1.368771 0.000025 0.000002 -0.239317 0.018432 -0.003573
    21 -1.874800 -0.935125 0.999174 2.067204 0.441573 0.749806
    22 -1.523453 0.000032 0.000031 0.074265 0.233956 0.563732
    23 -1.599285 0.000004 0.000016 0.029772 -0.030974 0.785151
    24 5.511815 0.000008 -0.000001 2.243089 -0.002559 -3.140365
    25 0.196847 -0.000001 0.000003 2.793407 0.000006 -3.141577
    26 -1.278558 -16.419854 -4.125777 1.975862 1.159909 1.842803
    27 6.214485 0.000006 0.000020 0.143169 0.268973 -1.278717
    28 11.944885 -0.000029 -0.000194 0.194497 -0.348161 -1.485696
    29 10.620166 0.000002 0.000010 -1.391549 -0.052005 0.325773
    30 4.751156 0.694376 -0.830473 -0.042903 0.020175 0.341229
    31 1.688065 -0.000026 0.000002 0.118209 -0.148692 0.133671
    32 1.336151 -0.000051 -0.000009 0.076390 -0.142203 -0.237829
    33 4.820513 0.509340 0.224865 -0.216712 -0.135925 0.361046
    34 1.826996 0.000066 0.000008 -0.036745 0.017095 0.138094
    35 1.436577 -0.000010 0.000007 0.010556 -0.010928 0.073829
    36 3.992353 0.891087 1.827994 -0.350733 -0.260358 0.411208
    37 1.405918 0.000021 -0.000007 0.012624 -0.026695 0.434197
    38 1.175369 -0.000131 0.000002 0.025018 0.120752 0.159768
    39 4.526756 0.690460 1.120842 -0.285503 -0.187839 0.457156
    40 1.744041 -0.000031 -0.000002 0.008007 -0.028527 0.136894
    41 1.368763 -0.000031 -0.000017 0.041408 0.153259 0.079605
    42 1.874855 0.935081 -0.999130 1.452121 0.747224 0.232555
    43 1.523449 -0.000034 -0.000003 0.038215 -0.033000 0.408780
    44 1.599281 -0.000002 0.000009 0.052060 0.065366 -0.070937
    45 5.511806 -0.000002 0.000006 -0.023278 0.000004 0.000006
    46 0.196850 0.000003 -0.000002 -0.348225 0.000015 -0.000002
    47 0.000000 1.999023 0.000000 0.000000 0.000000 -1.570796
    48 -8.046340 -8.056505 -4.985532 0.133472 -0.000096 1.607174
    49 3.332491 -0.003284 -0.934897 0.000000 0.000000 0.000000
    50 0.381264 0.001021 0.888928 0.000000 0.000000 0.000000
    51 9.568965 1.446741 -4.365668 0.569552 1.156004 2.164662
    52 -12.923909 -17.706889 -2.998439 1.044119 -1.431945 0.242656
    53 1.813139 0.139032 -0.745562 0.000000 0.000000 0.000000
    54 0.381264 0.783885 0.615359 -3.023270 0.000000 0.000000
    55 6.501173 0.256559 2.048409 0.000000 0.000000 0.000000
    56 0.050734 -0.015066 -0.906442 0.000000 0.000000 0.000000
    57 0.026926 -0.174474 1.260252 0.000000 0.000000 0.000000
    58 0.000000 0.345213 0.242352 0.000000 0.000000 0.000000
  time 4
    0 -0.000001 9.445313 -27.500000 0.000000 0.000000 -0.000001
    1 -0.000002 0.000000 0.000000 1.570743 -1.567137 -1.570743
    2 4.255468 -0.335183 -0.000002 0.000000 0.000000 -0.124848
    3 7.431248 1.496477 0.000002 0.000000 0.000000 0.245450
    4 5.278479 0.165541 0.000001 0.000000 0.000000 0.048511
    5 3.709875 -4.794499 0.856145 1.975864 1.159909 -1.298786
    6 -6.214482 -0.000007 -0.000027 2.804695 -0.241997 2.646503
    7 11.944882 0.000000 0.000001 -0.445000 -0.272455 2.267350
    8 10.620181 0.000002 0.000000 0.395111 0.068865 2.433350
    9 -4.751106 -0.694494 0.830577 0.158601 -0.097860 -0.042117
    10 -1.688068 0.000046 -0.000032 0.017336 -0.017701 0.663687
    11 -1.336140 0.000057 -0.000012 0.026393 -0.000544 0.574362
    12 -4.820494 -0.509460 -0.224759 -0.571001 -0.105504 1.450021
    13 -1.826992 -0.000064 0.000006 0.006567 0.039974 1.436945
    14 -1.436573 0.000006 0.000002 -0.027803 -0.072691 0.273305
    15 -3.992355 -0.891188 -1.827909 -0.633029 0.345677 1.729988
    16 -1.405918 -0.000025 -0.000003 -0.002971 -0.029380 0.976527
    17 -1.175358 0.000128 -0.000020 0.013935 0.066537 0.109985
    18 -4.526751 -0.690575 -1.120744 -0.604095 0.115941 1.646758
    19 -1.744038 0.000033 -0.000008 -0.023781 -0.017656 1.343242
    20 -1.368771 0.000025 0.000002 -0.239317 0.018432 -0.003573
    21 -1.874800 -0.935125 0.999174 2.067204 0.441573 0.749806
    22 -1.523453 0.000032 0.000031 0.074265 0.233956 0.563732
    23 -1.599285 0.000004 0.000016 0.029772 -0.030974 0.785151
    24 5.511815 0.000008 -0.000001 2.243089 -0.002559 -3.140365
    25 0.196847 -0.000001 0.000003 2.793407 0.000006 -3.141577
    26 -0.868390 -14.517452 -4.266407 1.975862 1.159909 1.842803
    27 6.214485 0.000006 0.000020 0.229105 0.218712 -1.227911
    28 11.944885 -0.000029 -0.000194 0.223379 -0.349323 -1.570138
    29 10.620166 0.000002 0.000010 -1.492772 -0.095240 0.304120
    30 4.751156 0.694376 -0.830473 -0.033730 0.017525 0.352411
    31 1.688065 -0.000026 0.000002 0.111246 -0.145277 0.172789
    32 1.336151 -0.000051 -0.000009 0.071105 -0.139027 -0.203487
    33 4.820513 0.509340 0.224865 -0.208730 -0.131922 0.386987
    34 1.826996 0.000066 0.000008 -0.036086 0.018450 0.175271
    35 1.436577 -0.000010 0.000007 0.010136 -0.011311 0.111013
    36 3.992353 0.891087 1.827994 -0.360705 -0.249377 0.448098
    37 1.405918 0.000021 -0.000007 0.011642 -0.027139 0.470626
    38 1.175369 -0.000131 0.000002 0.027702 0.120165 0.182173
    39 4.526756 0.690460 1.120842 -0.285489 -0.182158 0.487270
    40 1.744041 -0.000031 -0.000002 0.006653 -0.028874 0.184338
    41 1.368763 -0.000031 -0.000017 0.044836 0.152300 0.102089
    42 1.874855 0.935081 -0.999130 1.450397 0.729271 0.256145
    43 1.523449 -0.000034 -0.000003 0.038215 -0.033000 0.408780
    44 1.599281 -0.000002 0.000009 0.055044 0.062861 -0.024302
    45 5.511806 -0.000002 0.000006 -0.023278 0.000004 0.000006
    46 0.196850 0.000003 -0.000002 -0.348225 0.000015 -0.000002
    47 0.000000 1.999023 0.000000 0.000000 0.000000 -1.570796
    48 -8.046340 -9.943281 -4.333169 0.190378 0.001230 1.600638
    49 3.332491 -0.003284 -0.934897 0.000000 0.000000 0.000000
    50 0.381264 0.001021 0.888928 0.000000 0.000000 0.000000
    51 9.568965 1.446741 -4.365668 0.569552 1.156004 2.164662
    52 -8.361269 -18.378785 -2.564832 0.760522 -1.415119 0.444373
    53 1.813139 0.139032 -0.745562 0.000000 0.000000 0.000000
    54 0.381264 0.783885 0.615359 -3.023270 0.000000 0.000000
    55 6.501173 0.256559 2.048409 0.000000 0.000000 0.000000
    56 0.050734 -0.015066 -0.906442 0.000000 0.000000 0.000000
    57 0.026926 -0.174474 1.260252 0.000000 0.000000 0.000000
    58 0.000000 0.345213 0.242352 0.000000 0.000000 0.000000
  time 5
    0 -0.000001 9.445313 -27.500000 0.000000 0.000000 -0.000001
    1 -0.000002 0.000000 0.000000 1.570743 -1.567137 -1.570743
    2 4.255468 -0.335183 -0.000002 0.000000 0.000000 -0.124848
    3 7.431248 1.496477 0.000002 0.000000 0.000000 0.245450
    4 5.278479 0.165541 0.000001 0.000000 0.000000 0.048511
    5 3.276268 -6.407830 1.203812 1.975864 1.159909 -1.298786
    6 -6.214482 -0.000007 -0.000027 2.932213 -0.231411 2.461285
    7 11.944882 0.000000 0.000001 -0.395145 -0.305832 2.092911
    8 10.620181 0.000002 0.000000 0.474814 -0.010901 2.452709
    9 -4.751106 -0.694494 0.830577 0.158601 -0.097860 -0.042117
    10 -1.688068 0.000046 -0.000032 0.017336 -0.017701 0.663687
    11 -1.336140 0.000057 -0.000012 0.026393 -0.000544 0.574362
    12 -4.820494 -0.509460 -0.224759 -0.571001 -0.105504 1.450021
    13 -1.826992 -0.000064 0.000006 0.006567 0.039974 1.436945
    14 -1.436573 0.000006 0.000002 -0.027803 -0.072691 0.273305
    15 -3.992355 -0.891188 -1.827909 -0.633029 0.345677 1.729988
    16 -1.405918 -0.000025 -0.000003 -0.002971 -0.029380 0.976527
    17 -1.175358 0.000128 -0.000020 0.013935 0.066537 0.109985
    18 -4.526751 -0.690575 -1.120744 -0.604095 0.115941 1.646758
    19 -1.744038 0.000033 -0.000008 -0.023781 -0.017656 1.343242
    20 -1.368771 0.000025 0.000002 -0.239317 0.018432 -0.003573
    21 -1.874800 -0.935125 0.999174 2.067204 0.441573 0.749806
    22 -1.523453 0.000032 0.000031 0.074265 0.233956 0.563732
    23 -1.599285 0.000004 0.000016 0.029772 -0.030974 0.785151
    24 5.511815 0.000008 -0.000001 2.243089 -0.002559 -3.140365
    25 0.196847 -0.000001 0.000003 2.793407 0.000006 -3.141577
    26 -0.403532 -12.329886 -4.426568 1.975862 1.159909 1.842803
    27 6.214485 0.000006 0.000020 0.294851 0.173436 -1.198929
    28 11.944885 -0.000029 -0.000194 0.238484 -0.349023 -1.614306
    29 10.620166 0.000002 0.000010 -1.578145 -0.149240 0.248242
    30 4.751156 0.694376 -0.830473 -0.022795 0.014217 0.365848
    31 1.688065 -0.000026 0.000002 0.102953 -0.140771 0.220239
    32 1.336151 -0.000051 -0.000009 0.064849 -0.134916 -0.161784
    33 4.820513 0.509340 0.224865 -0.198919 -0.127872 0.418512
    34 1.826996 0.000066 0.000008 -0.035223 0.020044 0.220429
    35 1.436577 -0.000010 0.000007 0.009621 -0.011755 0.156229
    36 3.992353 0.891087 1.827994 -0.372234 -0.235529 0.492648
    37 1.405918 0.000021 -0.000007 0.010431 -0.027630 0.514959
    38 1.175369 -0.000131 0.000002 0.030950 0.119374 0.209276
    39 4.526756 0.690460 1.120842 -0.285236 -0.175279 0.523809
    40 1.744041 -0.000031 -0.000002 0.004975 -0.029198 0.242237
    41 1.368763 -0.000031 -0.000017 0.048947 0.151042 0.129305
    42 1.874855 0.935081 -0.999130 1.453353 0.710851 0.284160
    43 1.523449 -0.000034 -0.000003 0.038215 -0.033000 0.408780
    44 1.599281 -0.000002 0.000009 0.058532 0.059625 0.032710
    45 5.511806 -0.000002 0.000006 -0.023278 0.000004 0.000006
    46 0.196850 0.000003 -0.000002 -0.348225 0.000015 -0.000002
    47 0.000000 1.999023 0.000000 0.000000 0.000000 -1.570796
    48 -8.046340 -13.548860 -3.563614 0.257140 0.006591 1.593534
    49 3.332491 -0.003284 -0.934897 0.000000 0.000000 0.000000
    50 0.381264 0.001021 0.888928 0.000000 0.000000 0.000000
    51 9.568965 1.446741 -4.365668 0.569552 1.156004 2.164662
    52 -2.032951 -19.117088 -1.971064 0.464710 -1.395177 0.645073
    53 1.813139 0.139032 -0.745562 0.000000 0.000000 0.000000
    54 0.381264 0.783885 0.615359 -3.023270 0.000000 0.000000
    55 6.501173 0.256559 2.048409 0.000000 0.000000 0.000000
    56 0.050734 -0.015066 -0.906442 0.000000 0.000000 0.000000
    57 0.026926 -0.174474 1.260252 0.000000 0.000000 0.000000
    58 0.000000 0.345213 0.242352 0.000000 0.000000 0.000000
  time 6
    0 -0.000001 9.445313 -27.500000 0.000000 0.000000 -0.000001
    1 -0.000002 0.000000 0.000000 1.570743 -1.567137 -1.570743
    2 4.255468 -0.335183 -0.000002 0.000000 0.000000 -0.124848
    3 7.431248 1.496477 0.000002 0.000000 0.000000 0.245450
    4 5.278479 0.165541 0.000001 0.000000 0.000000 0.048511
    5 2.811410 -8.146164 1.574917 1.975864 1.159909 -1.298786
    6 -6.214482 -0.000007 -0.000027 2.988853 -0.233846 2.306625
    7 11.944882 0.000000 0.000001 -0.336531 -0.331287 1.906280
    8 10.620181 0.000002 0.000000 0.522922 -0.011692 2.495705
    9 -4.751106 -0.694494 0.830577 0.158601 -0.097860 -0.042117
    10 -1.688068 0.000046 -0.000032 0.017336 -0.017701 0.663687
    11 -1.336140 0.000057 -0.000012 0.026393 -0.000544 0.574362
    12 -4.820494 -0.509460 -0.224759 -0.571001 -0.105504 1.450021
    13 -1.826992 -0.000064 0.000006 0.006567 0.039986 1.436945
    14 -1.436573 0.000006 0.000002 -0.027803 -0.072691 0.273305
    15 -3.992355 -0.891188 -1.827909 -0.633029 0.345677 1.729988
    16 -1.405918 -0.000025 -0.000003 -0.002971 -0.029380 0.976527
    17 -1.175358 0.000128 -0.000020 0.013935 0.066537 0.109985
    18 -4.526751 -0.690575 -1.120744 -0.604095 0.115941 1.646758
    19 -1.744038 0.000033 -0.000008 -0.023781 -0.017656 1.343242
    20 -1.368771 0.000025 0.000002 -0.239317 0.018432 -0.003573
    21 -1.874800 -0.935125 0.999174 2.067204 0.441573 0.749806
    22 -1.523453 0.000032 0.000031 0.074265 0.233956 0.563732
    23 -1.599285 0.000004 0.000016 0.029772 -0.030974 0.785151
    24 5.511815 0.000008 -0.000001 2.243089 -0.002559 -3.140365
    25 0.196847 -0.000001 0.000003 2.793407 0.000006 -3.141577
    26 0.100390 -9.970439 -4.598448 1.975862 1.159909 1.842803
    27 6.214485 0.000006 0.000020 0.347007 0.135495 -1.183202
    28 11.944885 -0.000029 -0.000194 0.245185 -0.348688 -1.633956
    29 10.620166 0.000002 0.000010 -1.647210 -0.211263 0.171128
    30 4.751156 0.694376 -0.830473 -0.010441 0.010283 0.381169
    31 1.688065 -0.000026 0.000002 0.093676 -0.135102 0.274916
    32 1.336151 -0.000051 -0.000009 0.057862 -0.129883 -0.113877
    33 4.820513 0.509340 0.224865 -0.187520 -0.123965 0.454806
    34 1.826996 0.000066 0.000008 -0.034133 0.021853 0.272519
    35 1.436577 -0.000010 0.000007 0.008986 -0.012246 0.208343
    36 3.992353 0.891087 1.827994 -0.384662 -0.218976 0.543607
    37 1.405918 0.000021 -0.000007 0.009005 -0.028121 0.566016
    38 1.175369 -0.000131 0.000002 0.034629 0.118367 0.240337
    39 4.526756 0.690460 1.120842 -0.284617 -0.167393 0.565746
    40 1.744041 -0.000031 -0.000002 0.003010 -0.029462 0.309395
    41 1.368763 -0.000031 -0.000017 0.053609 0.149448 0.160488
    42 1.874855 0.935081 -0.999130 1.460036 0.692023 0.315563
    43 1.523449 -0.000034 -0.000003 0.038215 -0.033000 0.408780
    44 1.599281 -0.000002 0.000009 0.062331 0.055646 0.098593
    45 5.511806 -0.000002 0.000006 -0.023278 0.000004 0.000006
    46 0.196850 0.000003 -0.000002 -0.348225 0.000015 -0.000002
    47 0.000000 1.999023 0.000000 0.000000 0.000000 -1.570796
    48 -8.046340 -17.166158 -3.317513 0.278460 0.014277 1.592114
    49 3.332491 -0.003284 -0.934897 0.000000 0.000000 0.000000
    50 0.381264 0.001021 0.888928 0.000000 0.000000 0.000000
    51 9.572872 1.446741 -4.365668 0.569552 1.156004 2.164662
    52 4.225052 -19.566321 -1.623397 0.383601 -1.407596 0.621199
    53 1.813139 0.139032 -0.745562 0.000000 0.000000 0.000000
    54 0.381264 0.783885 0.615359 -3.023270 0.000000 0.000000
    55 6.501173 0.256559 2.048409 0.000000 0.000000 0.000000
    56 0.050734 -0.015066 -0.906442 0.000000 0.000000 0.000000
    57 0.026926 -0.174474 1.260252 0.000000 0.000000 0.000000
    58 0.000000 0.345213 0.242352 0.000000 0.000000 0.000000
  time 7
    0 -0.000001 9.445313 -27.500000 0.000000 0.000000 -0.000001
    1 -0.000002 0.000000 0.000000 1.570743 -1.567137 -1.570743
    2 4.255468 -0.335183 -0.000002 0.000000 0.000000 -0.124848
    3 7.431248 1.496477 0.000002 0.000000 0.000000 0.245450
    4 5.278479 0.165541 0.000001 0.000000 0.000000 0.048511
    5 2.334833 -9.931375 1.961648 1.975864 1.159909 -1.298786
    6 -6.214482 -0.000007 -0.000027 3.009362 -0.261241 2.205312
    7 11.944882 0.000000 0.000001 -0.298870 -0.341450 1.792258
    8 10.620181 0.000002 0.000000 0.525507 0.031749 2.511628
    9 -4.751106 -0.694494 0.830577 0.158601 -0.097860 -0.042117
    10 -1.688068 0.000046 -0.000032 0.017336 -0.017701 0.663687
    11 -1.336140 0.000057 -0.000012 0.026393 -0.000544 0.574362
    12 -4.820494 -0.509460 -0.224759 -0.571001 -0.105504 1.450021
    13 -1.826992 -0.000064 0.000006 0.006567 0.039974 1.436945
    14 -1.436573 0.000006 0.000002 -0.027803 -0.072691 0.273305
    15 -3.992355 -0.891188 -1.827909 -0.633029 0.345677 1.729988
    16 -1.405918 -0.000025 -0.000003 -0.002971 -0.029380 0.976527
    17 -1.175358 0.000128 -0.000020 0.013935 0.066537 0.109985
    18 -4.526751 -0.690575 -1.120744 -0.604095 0.115941 1.646758
    19 -1.744038 0.000033 -0.000008 -0.023781 -0.017656 1.343242
    20 -1.368771 0.000025 0.000002 -0.239317 0.018432 -0.003573
    21 -1.874800 -0.935125 0.999174 2.067204 0.441573 0.749806
    22 -1.523453 0.000032 0.000031 0.074265 0.233956 0.563732
    23 -1.599285 0.000004 0.000016 0.029772 -0.030974 0.785151
    24 5.511815 0.000008 -0.000001 2.243089 -0.002559 -3.140365
    25 0.196847 -0.000001 0.000003 2.793407 0.000006 -3.141577
    26 0.619937 -7.552396 -4.774235 1.975862 1.159909 1.842803
    27 6.214485 0.000006 0.000020 0.389700 0.104665 -1.173482
    28 11.944885 -0.000029 -0.000194 0.248436 -0.348484 -1.643386
    29 10.620166 0.000002 0.000010 -1.700425 -0.276989 0.084988
    30 4.751156 0.694376 -0.830473 0.003053 0.005738 0.397972
    31 1.688065 -0.000026 0.000002 0.083789 -0.128235 0.335442
    32 1.336151 -0.000051 -0.000009 0.050444 -0.123926 -0.060889
    33 4.820513 0.509340 0.224865 -0.174809 -0.120441 0.494938
    34 1.826996 0.000066 0.000008 -0.032814 0.023783 0.330196
    35 1.436577 -0.000010 0.000007 0.008267 -0.012737 0.266072
    36 3.992353 0.891087 1.827994 -0.397353 -0.199952 0.599607
    37 1.405918 0.000021 -0.000007 0.007399 -0.028589 0.622574
    38 1.175369 -0.000131 0.000002 0.038656 0.117121 0.274612
    39 4.526756 0.690460 1.120842 -0.283563 -0.158705 0.612052
    40 1.744041 -0.000031 -0.000002 0.000804 -0.029605 0.384128
    41 1.368763 -0.000031 -0.000017 0.058702 0.147542 0.194877
    42 1.874855 0.935081 -0.999130 1.469613 0.672835 0.349379
    43 1.523449 -0.000034 -0.000003 0.038215 -0.033000 0.408780
    44 1.599281 -0.000002 0.000009 0.066238 0.050936 0.171809
    45 5.511806 -0.000002 0.000006 -0.023278 0.000004 0.000006
    46 0.196850 0.000003 -0.000002 -0.348225 0.000015 -0.000002
    47 0.000000 1.999023 0.000000 0.000000 0.000000 -1.570796
    48 -8.046340 -20.049058 -3.360483 0.240540 0.031495 1.594008
    49 3.332491 -0.003284 -0.934897 0.000000 0.000000 0.000000
    50 0.381264 0.001021 0.888928 0.000000 0.000000 0.000000
    51 9.572872 1.446741 -4.365668 0.569552 1.156004 2.164662
    52 9.725220 -19.796797 -1.998408 0.685042 -1.458608 0.215337
    53 1.813139 0.139032 -0.745562 0.000000 0.000000 0.000000
    54 0.381264 0.783885 0.615359 -3.023270 0.000000 0.000000
    55 6.501173 0.256559 2.048409 0.000000 0.000000 0.000000
    56 0.050734 -0.015066 -0.906442 0.000000 0.000000 0.000000
    57 0.026926 -0.174474 1.260252 0.000000 0.000000 0.000000
    58 0.000000 0.345213 0.242352 0.000000 0.000000 0.000000
  time 8
    0 -0.000001 9.445313 -27.500000 0.000000 0.000000 -0.000001
    1 -0.000002 0.000000 0.000000 1.570743 -1.567137 -1.570743
    2 4.255468 -0.335183 -0.000002 0.000000 0.000000 -0.124848
    3 7.431248 1.496477 0.000002 0.000000 0.000000 0.245450
    4 5.278479 0.165541 0.000001 0.000000 0.000000 0.048511
    5 1.869975 -11.669709 2.336659 1.975864 1.159909 -1.298786
    6 -6.214482 -0.000007 -0.000027 3.016788 -0.304972 2.121631
    7 11.944882 0.000000 0.000001 -0.271252 -0.346196 1.710385
    8 10.620181 0.000002 0.000000 0.489067 0.106623 2.509795
    9 -4.751106 -0.694494 0.830577 0.158601 -0.097860 -0.042117
    10 -1.688068 0.000046 -0.000032 0.017336 -0.017701 0.663687
    11 -1.336140 0.000057 -0.000012 0.026393 -0.000544 0.574362
    12 -4.820494 -0.509460 -0.224759 -0.571001 -0.105504 1.450021
    13 -1.826992 -0.000064 0.000006 0.006567 0.039974 1.436945
    14 -1.436573 0.000006 0.000002 -0.027803 -0.072691 0.273305
    15 -3.992355 -0.891188 -1.827909 -0.633029 0.345677 1.729988
    16 -1.405918 -0.000025 -0.000003 -0.002971 -0.029380 0.976527
    17 -1.175358 0.000128 -0.000020 0.013935 0.066537 0.109985
    18 -4.526751 -0.690575 -1.120744 -0.604095 0.115941 1.646758
    19 -1.744038 0.000033 -0.000008 -0.023781 -0.017656 1.343242
    20 -1.368771 0.000025 0.000002 -0.239317 0.018432 -0.003573
    21 -1.874800 -0.935125 0.999174 2.067204 0.441573 0.749806
    22 -1.523453 0.000032 0.000031 0.074265 0.233956 0.563732
    23 -1.599285 0.000004 0.000016 0.029772 -0.030974 0.785151
    24 5.511815 0.000008 -0.000001 2.243089 -0.002559 -3.140365
    25 0.196847 -0.000001 0.000003 2.793407 0.000006 -3.141577
    26 1.123859 -5.192949 -4.950021 1.975862 1.159909 1.842803
    27 6.214485 0.000006 0.000020 0.425627 0.079677 -1.163674
    28 11.944885 -0.000029 -0.000194 0.252836 -0.348149 -1.656344
    29 10.620166 0.000002 0.000010 -1.739475 -0.341309 0.001614
    30 4.751156 0.694376 -0.830473 0.017342 0.000632 0.415826
    31 1.688065 -0.000026 0.000002 0.073662 -0.120205 0.400382
    32 1.336151 -0.000051 -0.000009 0.042845 -0.117119 -0.004126
    33 4.820513 0.509340 0.224865 -0.161039 -0.117433 0.538018
    34 1.826996 0.000066 0.000008 -0.031280 0.025772 0.392241
    35 1.436577 -0.000010 0.000007 0.007464 -0.013229 0.328103
    36 3.992353 0.891087 1.827994 -0.409722 -0.178765 0.659281
    37 1.405918 0.000021 -0.000007 0.005649 -0.028984 0.683329
    38 1.175369 -0.000131 0.000002 0.042911 0.115635 0.311311
    39 4.526756 0.690460 1.120842 -0.281975 -0.149464 0.661656
    40 1.744041 -0.000031 -0.000002 -0.001580 -0.029569 0.464753
    41 1.368763 -0.000031 -0.000017 0.064071 0.145301 0.231656
    42 1.874855 0.935081 -0.999130 1.481315 0.653372 0.384708
    43 1.523449 -0.000034 -0.000003 0.038215 -0.033000 0.408780
    44 1.599281 -0.000002 0.000009 0.070037 0.045555 0.250708
    45 5.511806 -0.000002 0.000006 -0.023278 0.000004 0.000006
    46 0.196850 0.000003 -0.000002 -0.348225 0.000015 -0.000002
    47 0.000000 1.999023 0.000000 0.000000 0.000000 -1.570796
    48 -8.046340 -22.513977 -3.501112 0.156660 0.059722 1.595334
    49 3.332491 -0.003284 -0.934897 0.000000 0.000000 0.000000
    50 0.381264 0.001021 0.888928 0.000000 0.000000 0.000000
    51 9.572872 1.446741 -4.365668 0.569552 1.156004 2.164662
    52 14.834751 -19.824141 -2.885154 1.721337 -1.454869 -0.917787
    53 1.813139 0.139032 -0.745562 0.000000 0.000000 0.000000
    54 0.381264 0.783885 0.615359 -3.023270 0.000000 0.000000
    55 6.501173 0.256559 2.048409 0.000000 0.000000 0.000000
    56 0.050734 -0.015066 -0.906442 0.000000 0.000000 0.000000
    57 0.026926 -0.174474 1.260252 0.000000 0.000000 0.000000
    58 0.000000 0.345213 0.242352 0.000000 0.000000 0.000000
  time 9
    0 -0.000001 9.445313 -27.500000 0.000000 0.000000 -0.000001
    1 -0.000002 0.000000 0.000000 1.570743 -1.567137 -1.570743
    2 4.255468 -0.335183 -0.000002 0.000000 0.000000 -0.124848
    3 7.431248 1.496477 0.000002 0.000000 0.000000 0.245450
    4 5.278479 0.165541 0.000001 0.000000 0.000000 0.048511
    5 1.440274 -13.283040 2.688232 1.975864 1.159909 -1.298786
    6 -6.214482 -0.000007 -0.000027 3.029217 -0.350292 2.037876
    7 11.944882 0.000000 0.000001 -0.238972 -0.349001 1.615639
    8 10.620181 0.000002 0.000000 0.448785 0.184659 2.522319
    9 -4.751106 -0.694494 0.830577 0.158601 -0.097860 -0.042117
    10 -1.688068 0.000046 -0.000032 0.017336 -0.017701 0.663687
    11 -1.336140 0.000057 -0.000012 0.026393 -0.000544 0.574362
    12 -4.820494 -0.509460 -0.224759 -0.571001 -0.105504 1.450021
    13 -1.826992 -0.000064 0.000006 0.006567 0.039974 1.436945
    14 -1.436573 0.000006 0.000002 -0.027803 -0.072691 0.273305
    15 -3.992355 -0.891188 -1.827909 -0.633029 0.345677 1.729988
    16 -1.405918 -0.000025 -0.000003 -0.002971 -0.029380 0.976527
    17 -1.175358 0.000128 -0.000020 0.013935 0.066537 0.109985
    18 -4.526751 -0.690575 -1.120744 -0.604095 0.115941 1.646758
    19 -1.744038 0.000033 -0.000008 -0.023781 -0.017656 1.343242
    20 -1.368771 0.000025 0.000002 -0.239317 0.018432 -0.003573
    21 -1.874800 -0.935125 0.999174 2.067204 0.441573 0.749806
    22 -1.523453 0.000032 0.000031 0.074265 0.233956 0.563732
    23 -1.599285 0.000004 0.000016 0.029772 -0.030974 0.785151
    24 5.511815 0.000008 -0.000001 2.243089 -0.002559 -3.140365
    25 0.196847 -0.000001 0.000003 2.793407 0.000006 -3.141577
    26 1.592623 -3.005382 -5.110182 1.975862 1.159909 1.842803
    27 6.214485 0.000006 0.000020 0.456326 0.058912 -1.147947
    28 11.944885 -0.000029 -0.000194 0.262832 -0.347202 -1.685668
    29 10.620166 0.000002 0.000010 -1.767652 -0.399149 -0.067569
    30 4.751156 0.694376 -0.830473 0.032121 -0.004941 0.434422
    31 1.688065 -0.000026 0.000002 0.063643 -0.111121 0.468246
    32 1.336151 -0.000051 -0.000009 0.035331 -0.109533 0.055178
    33 4.820513 0.509340 0.224865 -0.146563 -0.115120 0.583114
    34 1.826996 0.000066 0.000008 -0.029543 0.027750 0.457186
    35 1.436577 -0.000010 0.000007 0.006589 -0.013684 0.393085
    36 3.992353 0.891087 1.827994 -0.421227 -0.155847 0.721221
    37 1.405918 0.000021 -0.000007 0.003792 -0.029284 0.746977
    38 1.175369 -0.000131 0.000002 0.047297 0.113909 0.349593
    39 4.526756 0.690460 1.120842 -0.279824 -0.139889 0.713488
    40 1.744041 -0.000031 -0.000002 -0.004085 -0.029330 0.549409
    41 1.368763 -0.000031 -0.000017 0.069572 0.142760 0.270012
    42 1.874855 0.935081 -0.999130 1.494495 0.633766 0.420688
    43 1.523449 -0.000034 -0.000003 0.038215 -0.033000 0.408780
    44 1.599281 -0.000002 0.000009 0.073561 0.039611 0.333457
    45 5.511806 -0.000002 0.000006 -0.023278 0.000004 0.000006
    46 0.196850 0.000003 -0.000002 -0.348225 0.000015 -0.000002
    47 0.000000 1.999023 0.000000 0.000000 0.000000 -1.570796
    48 -8.046340 -24.861705 -3.774558 0.072416 0.086029 1.595145
    49 3.332491 -0.003284 -0.934897 0.000000 0.000000 0.000000
    50 0.381264 0.001021 0.888928 0.000000 0.000000 0.000000
    51 9.572872 1.446741 -4.365668 0.569552 1.156004 2.164662
    52 19.760682 -19.773358 -3.443765 2.147973 -1.362816 -1.434095
    53 1.813139 0.139032 -0.745562 0.000000 0.000000 0.000000
    54 0.381264 0.783885 0.615359 -3.023270 0.000000 0.000000
    55 6.501173 0.256559 2.048409 0.000000 0.000000 0.000000
    56 0.050734 -0.015066 -0.906442 0.000000 0.000000 0.000000
    57 0.026926 -0.174474 1.260252 0.000000 0.000000 0.000000
    58 0.000000 0.345213 0.242352 0.000000 0.000000 0.000000
  time 10
    0 -0.000001 9.445313 -27.500000 0.000000 0.000000 -0.000001
    1 -0.000002 0.000000 0.000000 1.570743 -1.567137 -1.570743
    2 4.255468 -0.335183 -0.000002 0.000000 0.000000 -0.124848
    3 7.431248 1.496477 0.000002 0.000000 0.000000 0.245450
    4 5.278479 0.165541 0.000001 0.000000 0.000000 0.048511
    5 1.065263 -14.685426 2.989023 1.975864 1.159909 -1.298786
    6 -6.214482 -0.000007 -0.000027 3.062770 -0.379683 1.942017
    7 11.944882 0.000000 0.000001 -0.186417 -0.347431 1.461975
    8 10.620181 0.000002 0.000000 0.443794 0.238825 2.587615
    9 -4.751106 -0.694494 0.830577 0.158601 -0.097860 -0.042117
    10 -1.688068 0.000046 -0.000032 0.017336 -0.017701 0.663687
    11 -1.336140 0.000057 -0.000012 0.026393 -0.000544 0.574362
    12 -4.820494 -0.509460 -0.224759 -0.571001 -0.105504 1.450021
    13 -1.826992 -0.000064 0.000006 0.006567 0.039974 1.436945
    14 -1.436573 0.000006 0.000002 -0.027803 -0.072691 0.273305
    15 -3.992355 -0.891188 -1.827909 -0.633029 0.345677 1.729988
    16 -1.405918 -0.000025 -0.000003 -0.002971 -0.029380 0.976527
    17 -1.175358 0.000128 -0.000020 0.013935 0.066537 0.109985
    18 -4.526751 -0.690575 -1.120744 -0.604095 0.115941 1.646758
    19 -1.744038 0.000033 -0.000008 -0.023781 -0.017656 1.343242
    20 -1.368771 0.000025 0.000002 -0.239317 0.018432 -0.003573
    21 -1.874800 -0.935125 0.999174 2.067204 0.441573 0.749806
    22 -1.523453 0.000032 0.000031 0.074265 0.233956 0.563732
    23 -1.599285 0.000004 0.000016 0.029772 -0.030974 0.785151
    24 5.511815 0.000008 -0.000001 2.243089 -0.002559 -3.140365
    25 0.196847 -0.000001 0.000003 2.793407 0.000006 -3.141577
    26 1.998885 -1.102980 -5.246905 1.975862 1.159909 1.842803
    27 6.214485 0.000006 0.000020 0.482844 0.040688 -1.121704
    28 11.944885 -0.000029 -0.000194 0.282161 -0.344577 -1.742672
    29 10.620166 0.000002 0.000010 -1.788938 -0.446086 -0.111448
    30 4.751156 0.694376 -0.830473 0.047086 -0.010931 0.453264
    31 1.688065 -0.000026 0.000002 0.054067 -0.101138 0.537490
    32 1.336151 -0.000051 -0.000009 0.028128 -0.101347 0.115715
    33 4.820513 0.509340 0.224865 -0.131695 -0.113562 0.629179
    34 1.826996 0.000066 0.000008 -0.027637 0.029655 0.523642
    35 1.436577 -0.000010 0.000007 0.005666 -0.014092 0.459524
    36 3.992353 0.891087 1.827994 -0.431450 -0.131739 0.784099
    37 1.405918 0.000021 -0.000007 0.001886 -0.029464 0.812011
    38 1.175369 -0.000131 0.000002 0.051707 0.111991 0.388666
    39 4.526756 0.690460 1.120842 -0.277111 -0.130229 0.766391
    40 1.744041 -0.000031 -0.000002 -0.006602 -0.028874 0.636147
    41 1.368763 -0.000031 -0.000017 0.075097 0.139956 0.309182
    42 1.874855 0.935081 -0.999130 1.508476 0.614159 0.456514
    43 1.523449 -0.000034 -0.000003 0.038215 -0.033000 0.408780
    44 1.599281 -0.000002 0.000009 0.076641 0.033235 0.418076
    45 5.511806 -0.000002 0.000006 -0.023278 0.000004 0.000006
    46 0.196850 0.000003 -0.000002 -0.348225 0.000015 -0.000002
    47 0.000000 1.999023 0.000000 0.000000 0.000000 -1.570796
    48 -8.046340 -27.385220 -4.208165 0.034133 0.097462 1.596281
    49 3.332491 -0.003284 -0.934897 0.000000 0.000000 0.000000
    50 0.381264 0.001021 0.888928 0.000000 0.000000 0.000000
    51 9.572872 1.446741 -4.365668 0.569552 1.156004 2.164662
    52 24.647550 -19.929613 -3.053128 2.218872 -1.300720 -1.587751
    53 1.813139 0.139032 -0.745562 0.000000 0.000000 0.000000
    54 0.381264 0.783885 0.615359 -3.023270 0.000000 0.000000
    55 6.501173 0.256559 2.048409 0.000000 0.000000 0.000000
    56 0.050734 -0.015066 -0.906442 0.000000 0.000000 0.000000
    57 0.026926 -0.174474 1.260252 0.000000 0.000000 0.000000
    58 0.000000 0.345213 0.242352 0.000000 0.000000 0.000000
  time 11
    0 -0.000001 9.445313 -27.500000 0.000000 0.000000 -0.000001
    1 -0.000002 0.000000 0.000000 1.570743 -1.567137 -1.570743
    2 4.255468 -0.335183 -0.000002 0.000000 0.000000 -0.124848
    3 7.431248 1.496477 0.000002 0.000000 0.000000 0.245450
    4 5.278479 0.165541 0.000001 0.000000 0.000000 0.048511
    5 0.768379 -15.790929 3.227311 1.975864 1.159909 -1.298786
    6 -6.214482 -0.000007 -0.000027 3.125990 -0.375354 1.824042
    7 11.944882 0.000000 0.000001 -0.109095 -0.330760 1.230458
    8 10.620181 0.000002 0.000000 0.478655 0.238430 2.704154
    9 -4.751106 -0.694494 0.830577 0.158601 -0.097860 -0.042117
    10 -1.688068 0.000046 -0.000032 0.017336 -0.017701 0.663687
    11 -1.336140 0.000057 -0.000012 0.026393 -0.000544 0.574362
    12 -4.820494 -0.509460 -0.224759 -0.571001 -0.105504 1.450021
    13 -1.826992 -0.000064 0.000006 0.006567 0.039974 1.436945
    14 -1.436573 0.000006 0.000002 -0.027803 -0.072691 0.273305
    15 -3.992355 -0.891188 -1.827909 -0.633029 0.345677 1.729988
    16 -1.405918 -0.000025 -0.000003 -0.002971 -0.029380 0.976527
    17 -1.175358 0.000128 -0.000020 0.013935 0.066537 0.109985
    18 -4.526751 -0.690575 -1.120744 -0.604095 0.115941 1.646758
    19 -1.744038 0.000033 -0.000008 -0.023781 -0.017656 1.343242
    20 -1.368771 0.000025 0.000002 -0.239317 0.018432 -0.003573
    21 -1.874800 -0.935125 0.999174 2.067204 0.441573 0.749806
    22 -1.523453 0.000032 0.000031 0.074265 0.233956 0.563732
    23 -1.599285 0.000004 0.000016 0.029772 -0.030974 0.785151
    24 5.511815 0.000008 -0.000001 2.243089 -0.002559 -3.140365
    25 0.196847 -0.000001 0.000003 2.793407 0.000006 -3.141577
    26 2.319208 0.393159 -5.356284 1.975862 1.159909 1.842803
    27 6.214485 0.000006 0.000020 0.505787 0.023638 -1.081678
    28 11.944885 -0.000029 -0.000194 0.313122 -0.338117 -1.835084
    29 10.620166 0.000002 0.000010 -1.807697 -0.478658 -0.120161
    30 4.751156 0.694376 -0.830473 0.061932 -0.017177 0.472075
    31 1.688065 -0.000026 0.000002 0.045223 -0.090531 0.606568
    32 1.336151 -0.000051 -0.000009 0.021453 -0.092743 0.176102
    33 4.820513 0.509340 0.224865 -0.116778 -0.112807 0.675245
    34 1.826996 0.000066 0.000008 -0.025600 0.031417 0.590056
    35 1.436577 -0.000010 0.000007 0.004719 -0.014439 0.525962
    36 3.992353 0.891087 1.827994 -0.440090 -0.107036 0.846507
    37 1.405918 0.000021 -0.000007 -0.000043 -0.029524 0.877085
    38 1.175369 -0.000131 0.000002 0.056034 0.109894 0.427739
    39 4.526756 0.690460 1.120842 -0.273892 -0.120725 0.819251
    40 1.744041 -0.000031 -0.000002 -0.009083 -0.028203 0.722840
    41 1.368763 -0.000031 -0.000017 0.080502 0.136924 0.348352
    42 1.874855 0.935081 -0.999130 1.522795 0.594804 0.491479
    43 1.523449 -0.000034 -0.000003 0.038215 -0.033000 0.408780
    44 1.599281 -0.000002 0.000009 0.079181 0.026644 0.502621
    45 5.511806 -0.000002 0.000006 -0.023278 0.000004 0.000006
    46 0.196850 0.000003 -0.000002 -0.348225 0.000015 -0.000002
    47 0.000000 1.999023 0.000000 0.000000 0.000000 -1.570796
    48 -8.046340 -30.186087 -4.786308 0.047517 0.072155 1.602533
    49 3.332491 -0.003284 -0.934897 0.000000 0.000000 0.000000
    50 0.381264 0.001021 0.888928 0.000000 0.000000 0.000000
    51 9.572872 1.446741 -4.365668 0.569552 1.156004 2.164662
    52 29.456291 -20.421816 -2.447641 2.152458 -1.293509 -1.597771
    53 1.813139 0.139032 -0.745562 0.000000 0.000000 0.000000
    54 0.381264 0.783885 0.615359 -3.023270 0.000000 0.000000
    55 6.501173 0.256559 2.048409 0.000000 0.000000 0.000000
    56 0.050734 -0.015066 -0.906442 0.000000 0.000000 0.000000
    57 0.026926 -0.174474 1.260252 0.000000 0.000000 0.000000
    58 0.000000 0.345213 0.242352 0.000000 0.000000 0.000000
  time 12
    0 -0.000001 9.445313 -27.500000 0.000000 0.000000 -0.000001
    1 -0.000002 0.000000 0.000000 1.570743 -1.567137 -1.570743
    2 4.255468 -0.335183 -0.000002 0.000000 0.000000 -0.124848
    3 7.431248 1.496477 0.000002 0.000000 0.000000 0.245450
    4 5.278479 0.165541 0.000001 0.000000 0.000000 0.048511
    5 0.573060 -16.517513 3.387473 1.975864 1.159909 -1.298786
    6 -6.214482 -0.000007 -0.000027 3.192212 -0.344306 1.707562
    7 11.944882 0.000000 0.000001 -0.034756 -0.295657 0.990221
    8 10.620181 0.000002 0.000000 0.516388 0.206504 2.818745
    9 -4.751106 -0.694494 0.830577 0.158601 -0.097860 -0.042117
    10 -1.688068 0.000046 -0.000032 0.017336 -0.017701 0.663687
    11 -1.336140 0.000057 -0.000012 0.026393 -0.000544 0.574362
    12 -4.820494 -0.509460 -0.224759 -0.571001 -0.105504 1.450021
    13 -1.826992 -0.000064 0.000006 0.006567 0.039974 1.436945
    14 -1.436573 0.000006 0.000002 -0.027803 -0.072691 0.273305
    15 -3.992355 -0.891188 -1.827909 -0.633029 0.345677 1.729988
    16 -1.405918 -0.000025 -0.000003 -0.002971 -0.029380 0.976527
    17 -1.175358 0.000128 -0.000020 0.013935 0.066537 0.109985
    18 -4.526751 -0.690575 -1.120744 -0.604095 0.115941 1.646758
    19 -1.744038 0.000033 -0.000008 -0.023781 -0.017656 1.343242
    20 -1.368771 0.000025 0.000002 -0.239317 0.018432 -0.003573
    21 -1.874800 -0.935125 0.999174 2.067204 0.441573 0.749806
    22 -1.523453 0.000032 0.000031 0.074265 0.233956 0.563732
    23 -1.599285 0.000004 0.000016 0.029772 -0.030974 0.785151
    24 5.511815 0.000008 -0.000001 2.243089 -0.002559 -3.140365
    25 0.196847 -0.000001 0.000003 2.793407 0.000006 -3.141577
    26 2.530152 1.377564 -5.430505 1.975862 1.159909 1.842803
    27 6.214485 0.000006 0.000020 0.525703 0.007223 -1.028133
    28 11.944885 -0.000029 -0.000194 0.355118 -0.324563 -1.964058
    29 10.620166 0.000002 0.000010 -1.827605 -0.494463 -0.086665
    30 4.751156 0.694376 -0.830473 0.076367 -0.023585 0.490424
    31 1.688065 -0.000026 0.000002 0.037313 -0.079601 0.673935
    32 1.336151 -0.000051 -0.000009 0.015461 -0.083946 0.235107
    33 4.820513 0.509340 0.224865 -0.102188 -0.112819 0.720380
    34 1.826996 0.000066 0.000008 -0.023514 0.033011 0.655043
    35 1.436577 -0.000010 0.000007 0.003772 -0.014715 0.590908
    36 3.992353 0.891087 1.827994 -0.447018 -0.082404 0.907236
    37 1.405918 0.000021 -0.000007 -0.001913 -0.029464 0.940692
    38 1.175369 -0.000131 0.000002 0.060180 0.107677 0.465971
    39 4.526756 0.690460 1.120842 -0.270266 -0.111605 0.870955
    40 1.744041 -0.000031 -0.000002 -0.011432 -0.027328 0.807496
    41 1.368763 -0.000031 -0.000017 0.085667 0.133772 0.386607
    42 1.874855 0.935081 -0.999130 1.536930 0.575952 0.524951
    43 1.523449 -0.000034 -0.000003 0.038215 -0.033000 0.408780
    44 1.599281 -0.000002 0.000009 0.081099 0.020016 0.585076
    45 5.511806 -0.000002 0.000006 -0.023278 0.000004 0.000006
    46 0.196850 0.000003 -0.000002 -0.348225 0.000015 -0.000002
    47 0.000000 1.999023 0.000000 0.000000 0.000000 -1.570796
    48 -8.046340 -32.541627 -5.313667 0.071949 0.025269 1.609731
    49 3.332491 -0.003284 -0.934897 0.000000 0.000000 0.000000
    50 0.381264 0.001021 0.888928 0.000000 0.000000 0.000000
    51 9.572872 1.446741 -4.365668 0.569552 1.156004 2.164662
    52 33.573604 -21.015584 -2.650772 2.039572 -1.303702 -1.544308
    53 1.813139 0.139032 -0.745562 0.000000 0.000000 0.000000
    54 0.381264 0.783885 0.615359 -3.023270 0.000000 0.000000
    55 6.501173 0.256559 2.048409 0.000000 0.000000 0.000000
    56 0.050734 -0.015066 -0.906442 0.000000 0.000000 0.000000
    57 0.026926 -0.174474 1.260252 0.000000 0.000000 0.000000
    58 0.000000 0.345213 0.242352 0.000000 0.000000 0.000000
  time 13
    0 -0.000001 9.445313 -27.500000 0.000000 0.000000 -0.000001
    1 -0.000002 0.000000 0.000000 1.570743 -1.567137 -1.570743
    2 4.255468 -0.335183 -0.000002 0.000000 0.000000 -0.124848
    3 7.431248 1.496477 0.000002 0.000000 0.000000 0.245450
    4 5.278479 0.165541 0.000001 0.000000 0.000000 0.048511
    5 0.506652 -16.779240 3.442162 1.975864 1.159909 -1.298786
    6 -6.214482 -0.000007 -0.000027 3.222494 -0.321849 1.650778
    7 11.944882 0.000000 0.000001 -0.000927 -0.271436 0.869456
    8 10.620181 0.000002 0.000000 0.534375 0.188218 2.875220
    9 -4.751106 -0.694494 0.830577 0.158601 -0.097860 -0.042117
    10 -1.688068 0.000046 -0.000032 0.017336 -0.017701 0.663687
    11 -1.336140 0.000057 -0.000012 0.026393 -0.000544 0.574362
    12 -4.820494 -0.509460 -0.224759 -0.571001 -0.105504 1.450021
    13 -1.826992 -0.000064 0.000006 0.006567 0.039974 1.436945
    14 -1.436573 0.000006 0.000002 -0.027803 -0.072691 0.273305
    15 -3.992355 -0.891188 -1.827909 -0.633029 0.345677 1.729988
    16 -1.405918 -0.000025 -0.000003 -0.002971 -0.029380 0.976527
    17 -1.175358 0.000128 -0.000020 0.013935 0.066537 0.109985
    18 -4.526751 -0.690575 -1.120744 -0.604095 0.115941 1.646758
    19 -1.744038 0.000033 -0.000008 -0.023781 -0.017656 1.343242
    20 -1.368771 0.000025 0.000002 -0.239317 0.018432 -0.003573
    21 -1.874800 -0.935125 0.999174 2.067204 0.441573 0.749806
    22 -1.523453 0.000032 0.000031 0.074265 0.233956 0.563732
    23 -1.599285 0.000004 0.000016 0.029772 -0.030974 0.785151
    24 5.511815 0.000008 -0.000001 2.243089 -0.002559 -3.140365
    25 0.196847 -0.000001 0.000003 2.793407 0.000006 -3.141577
    26 2.604373 1.729137 -5.453943 1.975862 1.159909 1.842803
    27 6.214485 0.000006 0.000020 0.542428 -0.007192 -0.968138
    28 11.944885 -0.000029 -0.000194 0.401626 -0.302188 -2.114569
    29 10.620166 0.000002 0.000010 -1.850575 -0.491858 -0.012317
    30 4.751156 0.694376 -0.830473 0.090086 -0.029976 0.507969
    31 1.688065 -0.000026 0.000002 0.030470 -0.068695 0.738158
    32 1.336151 -0.000051 -0.000009 0.010211 -0.075233 0.291384
    33 4.820513 0.509340 0.224865 -0.088254 -0.113514 0.763537
    34 1.826996 0.000066 0.000008 -0.021417 0.034413 0.717088
    35 1.436577 -0.000010 0.000007 0.002850 -0.014919 0.652939
    36 3.992353 0.891087 1.827994 -0.452219 -0.058549 0.964916
    37 1.405918 0.000021 -0.000007 -0.003699 -0.029296 1.001447
    38 1.175369 -0.000131 0.000002 0.064075 0.105412 0.502571
    39 4.526756 0.690460 1.120842 -0.266358 -0.103060 0.920388
    40 1.744041 -0.000031 -0.000002 -0.013589 -0.026322 0.888121
    41 1.368763 -0.000031 -0.000017 0.090497 0.130560 0.423284
    42 1.874855 0.935081 -0.999130 1.550480 0.557927 0.556335
    43 1.523449 -0.000034 -0.000003 0.038215 -0.033000 0.408780
    44 1.599281 -0.000002 0.000009 0.082417 0.013580 0.663535
    45 5.511806 -0.000002 0.000006 -0.023278 0.000004 0.000006
    46 0.196850 0.000003 -0.000002 -0.348225 0.000015 -0.000002
    47 0.000000 1.999023 0.000000 0.000000 0.000000 -1.570796
    48 -8.046340 -33.529939 -5.548050 0.084970 0.000000 1.612857
    49 3.332491 -0.003284 -0.934897 0.000000 0.000000 0.000000
    50 0.381264 0.001021 0.888928 0.000000 0.000000 0.000000
    51 9.572872 1.446741 -4.365668 0.569552 1.156004 2.164662
    52 36.120557 -21.351532 -2.967188 2.039954 -1.309044 -1.568887
    53 1.813139 0.139032 -0.745562 0.000000 0.000000 0.000000
    54 0.381264 0.783885 0.615359 -3.023270 0.000000 0.000000
    55 6.501173 0.256559 2.048409 0.000000 0.000000 0.000000
    56 0.050734 -0.015066 -0.906442 0.000000 0.000000 0.000000
    57 0.026926 -0.174474 1.260252 0.000000 0.000000 0.000000
    58 0.000000 0.345213 0.242352 0.000000 0.000000 0.000000
  time 14
    0 -0.000001 9.445313 -27.500000 0.000000 0.000000 -0.000001
    1 -0.000002 0.000000 0.000000 1.570743 -1.567137 -1.570743
    2 4.255468 -0.335183 -0.000002 0.000000 0.000000 -0.124848
    3 7.431248 1.496477 0.000002 0.000000 0.000000 0.245450
    4 5.278479 0.165541 0.000001 0.000000 0.000000 0.048511
    5 0.584779 -16.474543 3.375753 1.975864 1.159909 -1.298786
    6 -6.214482 -0.000007 -0.000027 3.204525 -0.326550 1.675584
    7 11.944882 0.000000 0.000001 -0.012254 -0.280245 0.911005
    8 10.620181 0.000002 0.000000 0.523999 0.186192 2.855135
    9 -4.751106 -0.694494 0.830577 0.158601 -0.097860 -0.042117
    10 -1.688068 0.000046 -0.000032 0.017336 -0.017701 0.663687
    11 -1.336140 0.000057 -0.000012 0.026393 -0.000544 0.574362
    12 -4.820494 -0.509460 -0.224759 -0.571001 -0.105504 1.450021
    13 -1.826992 -0.000064 0.000006 0.006567 0.039974 1.436945
    14 -1.436573 0.000006 0.000002 -0.027803 -0.072691 0.273305
    15 -3.992355 -0.891188 -1.827909 -0.633029 0.345677 1.729988
    16 -1.405918 -0.000025 -0.000003 -0.002971 -0.029380 0.976527
    17 -1.175358 0.000128 -0.000020 0.013935 0.066537 0.109985
    18 -4.526751 -0.690575 -1.120744 -0.604095 0.115941 1.646758
    19 -1.744038 0.000033 -0.000008 -0.023781 -0.017656 1.343242
    20 -1.368771 0.000025 0.000002 -0.239317 0.018432 -0.003573
    21 -1.874800 -0.935125 0.999174 2.067204 0.441573 0.749806
    22 -1.523453 0.000032 0.000031 0.074265 0.233956 0.563732
    23 -1.599285 0.000004 0.000016 0.029772 -0.030974 0.785151
    24 5.511815 0.000008 -0.000001 2.243089 -0.002559 -3.140365
    25 0.196847 -0.000001 0.000003 2.793407 0.000006 -3.141577
    26 2.405148 1.111931 -5.410973 1.975862 1.159909 1.842803
    27 6.214485 0.000006 0.000020 0.507437 -0.006747 -0.935446
    28 11.944885 -0.000029 -0.000194 0.433206 -0.281538 -2.224259
    29 10.620166 0.000002 0.000010 -1.902335 -0.405355 0.099649
    30 4.751156 0.694376 -0.830473 0.102838 -0.036174 0.524309
    31 1.688065 -0.000026 0.000002 0.024753 -0.058173 0.797746
    32 1.336151 -0.000051 -0.000009 0.005777 -0.066856 0.343738
    33 4.820513 0.509340 0.224865 -0.075304 -0.114772 0.803825
    34 1.826996 0.000066 0.000008 -0.019392 0.035588 0.774849
    35 1.436577 -0.000010 0.000007 0.001987 -0.015062 0.710705
    36 3.992353 0.891087 1.827994 -0.455802 -0.036117 1.018454
    37 1.405918 0.000021 -0.000007 -0.005353 -0.029032 1.058005
    38 1.175369 -0.000131 0.000002 0.067635 0.103171 0.536747
    39 4.526756 0.690460 1.120842 -0.262338 -0.095282 0.966480
    40 1.744041 -0.000031 -0.000002 -0.015519 -0.025231 0.962854
    41 1.368763 -0.000031 -0.000017 0.094896 0.127408 0.457469
    42 1.874855 0.935081 -0.999130 1.563105 0.541065 0.585058
    43 1.523449 -0.000034 -0.000003 0.038215 -0.033000 0.408780
    44 1.599281 -0.000002 0.000009 0.083184 0.007540 0.736275
    45 5.511806 -0.000002 0.000006 -0.023278 0.000004 0.000006
    46 0.196850 0.000003 -0.000002 -0.348225 0.000015 -0.000002
    47 0.000000 1.999023 0.000000 0.000000 0.000000 -1.570796
    48 -8.046340 -33.006485 -5.548050 0.084970 0.000000 1.612857
    49 3.332491 -0.003284 -0.934897 0.000000 0.000000 0.000000
    50 0.381264 0.001021 0.888928 0.000000 0.000000 0.000000
    51 9.572872 1.446741 -4.365668 0.569552 1.156004 2.164662
    52 35.979927 -21.187464 -2.713274 2.219731 -1.322709 -1.711741
    53 1.813139 0.139032 -0.745562 0.000000 0.000000 0.000000
    54 0.381264 0.783885 0.615359 -3.023270 0.000000 0.000000
    55 6.501173 0.256559 2.048409 0.000000 0.000000 0.000000
    56 0.050734 -0.015066 -0.906442 0.000000 0.000000 0.000000
    57 0.026926 -0.174474 1.260252 0.000000 0.000000 0.000000
    58 0.000000 0.345213 0.242352 0.000000 0.000000 0.000000
  time 15
    0 -0.000001 9.445313 -27.500000 0.000000 0.000000 -0.000001
    1 -0.000002 0.000000 0.000000 1.570743 -1.567137 -1.570743
    2 4.255468 -0.335183 -0.000002 0.000000 0.000000 -0.124848
    3 7.431248 1.496477 0.000002 0.000000 0.000000 0.245450
    4 5.278479 0.165541 0.000001 0.000000 0.000000 0.048511
    5 0.811349 -15.630768 3.192154 1.975864 1.159909 -1.298786
    6 -6.214482 -0.000007 -0.000027 3.157273 -0.336189 1.741482
    7 11.944882 0.000000 0.000001 -0.043099 -0.300739 1.018624
    8 10.620181 0.000002 0.000000 0.497360 0.181447 2.804502
    9 -4.751106 -0.694494 0.830577 0.158601 -0.097860 -0.042117
    10 -1.688068 0.000046 -0.000032 0.017336 -0.017701 0.663687
    11 -1.336140 0.000057 -0.000012 0.026393 -0.000544 0.574362
    12 -4.820494 -0.509460 -0.224759 -0.571001 -0.105504 1.450021
    13 -1.826992 -0.000064 0.000006 0.006567 0.039986 1.436945
    14 -1.436573 0.000006 0.000002 -0.027803 -0.072691 0.273305
    15 -3.992355 -0.891188 -1.827909 -0.633029 0.345677 1.729988
    16 -1.405918 -0.000025 -0.000003 -0.002971 -0.029380 0.976527
    17 -1.175358 0.000128 -0.000020 0.013935 0.066537 0.109985
    18 -4.526751 -0.690575 -1.120744 -0.604095 0.115941 1.646758
    19 -1.744038 0.000033 -0.000008 -0.023781 -0.017656 1.343242
    20 -1.368771 0.000025 0.000002 -0.239317 0.018432 -0.003573
    21 -1.874800 -0.935125 0.999174 2.067204 0.441573 0.749806
    22 -1.523453 0.000032 0.000031 0.074265 0.233956 0.563732
    23 -1.599285 0.000004 0.000016 0.029772 -0.030974 0.785151
    24 5.511815 0.000008 -0.000001 2.243089 -0.002559 -3.140365
    25 0.196847 -0.000001 0.000003 2.793407 0.000006 -3.141577
    26 1.862162 -0.563902 -5.293782 1.975862 1.159909 1.842803
    27 6.214485 0.000006 0.000020 0.397513 0.010112 -0.961953
    28 11.944885 -0.000029 -0.000194 0.435483 -0.279848 -2.232472
    29 10.620166 0.000002 0.000010 -1.974233 -0.209240 0.210833
    30 4.751156 0.694376 -0.830473 0.114317 -0.041988 0.539074
    31 1.688065 -0.000026 0.000002 0.020151 -0.048405 0.851430
    32 1.336151 -0.000051 -0.000009 0.002146 -0.059102 0.390971
    33 4.820513 0.509340 0.224865 -0.063652 -0.116402 0.840274
    34 1.826996 0.000066 0.000008 -0.017522 0.036546 0.826981
    35 1.436577 -0.000010 0.000007 0.001196 -0.015134 0.762782
    36 3.992353 0.891087 1.827994 -0.457995 -0.015724 1.066678
    37 1.405918 0.000021 -0.000007 -0.006827 -0.028721 1.109102
    38 1.175369 -0.000131 0.000002 0.070787 0.101037 0.567709
    39 4.526756 0.690460 1.120842 -0.258402 -0.088403 1.008159
    40 1.744041 -0.000031 -0.000002 -0.017172 -0.024140 1.029967
    41 1.368763 -0.000031 -0.000017 0.098779 0.124424 0.488449
    42 1.874855 0.935081 -0.999130 1.574530 0.525737 0.610640
    43 1.523449 -0.000034 -0.000003 0.038215 -0.033000 0.408780
    44 1.599281 -0.000002 0.000009 0.083496 0.002087 0.801572
    45 5.511806 -0.000002 0.000006 -0.023278 0.000004 0.000006
    46 0.196850 0.000003 -0.000002 -0.348225 0.000015 -0.000002
    47 0.000000 1.999023 0.000000 0.000000 0.000000 -1.570796
    48 -8.046340 -31.553316 -5.548050 0.084970 0.000000 1.612857
    49 3.332491 -0.003284 -0.934897 0.000000 0.000000 0.000000
    50 0.381264 0.001021 0.888928 0.000000 0.000000 0.000000
    51 9.572872 1.446741 -4.365668 0.569552 1.156004 2.164662
    52 32.858738 -20.656198 -2.123412 2.539112 -1.352489 -1.933966
    53 1.813139 0.139032 -0.745562 0.000000 0.000000 0.000000
    54 0.381264 0.783885 0.615359 -3.023270 0.000000 0.000000
    55 6.501173 0.256559 2.048409 0.000000 0.000000 0.000000
    56 0.050734 -0.015066 -0.906442 0.000000 0.000000 0.000000
    57 0.026926 -0.174474 1.260252 0.000000 0.000000 0.000000
    58 0.000000 0.345213 0.242352 0.000000 0.000000 0.000000
  time 16
    0 -0.000001 9.445313 -27.500000 0.000000 0.000000 -0.000001
    1 -0.000002 0.000000 0.000000 1.570743 -1.567137 -1.570743
    2 4.255468 -0.335183 -0.000002 0.000000 0.000000 -0.124848
    3 7.431248 1.496477 0.000002 0.000000 0.000000 0.245450
    4 5.278479 0.165541 0.000001 0.000000 0.000000 0.048511
    5 1.151203 -14.361198 2.918708 1.975864 1.159909 -1.298786
    6 -6.214482 -0.000007 -0.000027 3.092129 -0.343799 1.834950
    7 11.944882 0.000000 0.000001 -0.088330 -0.323066 1.165750
    8 10.620181 0.000002 0.000000 0.461925 0.176604 2.739016
    9 -4.751106 -0.694494 0.830577 0.158601 -0.097860 -0.042117
    10 -1.688068 0.000046 -0.000032 0.017336 -0.017701 0.663687
    11 -1.336140 0.000057 -0.000012 0.026393 -0.000544 0.574362
    12 -4.820494 -0.509460 -0.224759 -0.571001 -0.105504 1.450021
    13 -1.826992 -0.000064 0.000006 0.006567 0.039974 1.436945
    14 -1.436573 0.000006 0.000002 -0.027803 -0.072691 0.273305
    15 -3.992355 -0.891188 -1.827909 -0.633029 0.345677 1.729988
    16 -1.405918 -0.000025 -0.000003 -0.002971 -0.029380 0.976527
    17 -1.175358 0.000128 -0.000020 0.013935 0.066537 0.109985
    18 -4.526751 -0.690575 -1.120744 -0.604095 0.115941 1.646758
    19 -1.744038 0.000033 -0.000008 -0.023781 -0.017656 1.343242
    20 -1.368771 0.000025 0.000002 -0.239317 0.018432 -0.003573
    21 -1.874800 -0.935125 0.999174 2.067204 0.441573 0.749806
    22 -1.523453 0.000032 0.000031 0.074265 0.233956 0.563732
    23 -1.599285 0.000004 0.000016 0.029772 -0.030974 0.785151
    24 5.511815 0.000008 -0.000001 2.243089 -0.002559 -3.140365
    25 0.196847 -0.000001 0.000003 2.793407 0.000006 -3.141577
    26 1.065263 -3.032727 -5.121901 1.975862 1.159909 1.842803
    27 6.214485 0.000006 0.000020 0.282417 0.011890 -1.048014
    28 11.944885 -0.000029 -0.000194 0.399547 -0.303362 -2.107695
    29 10.620166 0.000002 0.000010 -2.018642 -0.000817 0.268746
    30 4.751156 0.694376 -0.830473 0.124298 -0.047207 0.551955
    31 1.688065 -0.000026 0.000002 0.016592 -0.039753 0.897887
    32 1.336151 -0.000051 -0.000009 -0.000695 -0.052223 0.431965
    33 4.820513 0.509340 0.224865 -0.053552 -0.118200 0.871992
    34 1.826996 0.000066 0.000008 -0.015844 0.037302 0.872223
    35 1.436577 -0.000010 0.000007 0.000513 -0.015182 0.808035
    36 3.992353 0.891087 1.827994 -0.459110 0.002038 1.108453
    37 1.405918 0.000021 -0.000007 -0.008097 -0.028397 1.153436
    38 1.175369 -0.000131 0.000002 0.073483 0.099096 0.594713
    39 4.526756 0.690460 1.120842 -0.254747 -0.082566 1.044399
    40 1.744041 -0.000031 -0.000002 -0.018551 -0.023098 1.087911
    41 1.368763 -0.000031 -0.000017 0.102098 0.121715 0.515410
    42 1.874855 0.935081 -0.999130 1.584477 0.512314 0.632603
    43 1.523449 -0.000034 -0.000003 0.038215 -0.033000 0.408780
    44 1.599281 -0.000002 0.000009 0.083484 -0.002635 0.857996
    45 5.511806 -0.000002 0.000006 -0.023278 0.000004 0.000006
    46 0.196850 0.000003 -0.000002 -0.348225 0.000015 -0.000002
    47 0.000000 1.999023 0.000000 0.000000 0.000000 -1.570796
    48 -8.046340 -29.357936 -5.548050 0.084970 0.000000 1.612857
    49 3.332491 -0.003284 -0.934897 0.000000 0.000000 0.000000
    50 0.381264 0.001021 0.888928 0.000000 0.000000 0.000000
    51 9.572872 1.446741 -4.365668 0.569552 1.156004 2.164662
    52 27.003091 -19.894456 -1.424172 2.959928 -1.369181 -2.218578
    53 1.813139 0.139032 -0.745562 0.000000 0.000000 0.000000
    54 0.381264 0.783885 0.615359 -3.023270 0.000000 0.000000
    55 6.501173 0.256559 2.048409 0.000000 0.000000 0.000000
    56 0.050734 -0.015066 -0.906442 0.000000 0.000000 0.000000
    57 0.026926 -0.174474 1.260252 0.000000 0.000000 0.000000
    58 0.000000 0.345213 0.242352 0.000000 0.000000 0.000000
  time 17
    0 -0.000001 9.445313 -27.500000 0.000000 0.000000 -0.000001
    1 -0.000002 0.000000 0.000000 1.570743 -1.567137 -1.570743
    2 4.255468 -0.335183 -0.000002 0.000000 0.000000 -0.124848
    3 7.431248 1.496477 0.000002 0.000000 0.000000 0.245450
    4 5.278479 0.165541 0.000001 0.000000 0.000000 0.048511
    5 1.576997 -12.763493 2.574948 1.975864 1.159909 -1.298786
    6 -6.214482 -0.000007 -0.000027 3.019405 -0.345490 1.944931
    7 11.944882 0.000000 0.000001 -0.142263 -0.340108 1.331129
    8 10.620181 0.000002 0.000000 0.424335 0.173688 2.671200
    9 -4.751106 -0.694494 0.830577 0.158601 -0.097860 -0.042117
    10 -1.688068 0.000046 -0.000032 0.017336 -0.017701 0.663687
    11 -1.336140 0.000057 -0.000012 0.026393 -0.000544 0.574362
    12 -4.820494 -0.509460 -0.224759 -0.571001 -0.105504 1.450021
    13 -1.826992 -0.000064 0.000006 0.006567 0.039974 1.436945
    14 -1.436573 0.000006 0.000002 -0.027803 -0.072691 0.273305
    15 -3.992355 -0.891188 -1.827909 -0.633029 0.345677 1.729988
    16 -1.405918 -0.000025 -0.000003 -0.002971 -0.029380 0.976527
    17 -1.175358 0.000128 -0.000020 0.013935 0.066537 0.109985
    18 -4.526751 -0.690575 -1.120744 -0.604095 0.115941 1.646758
    19 -1.744038 0.000033 -0.000008 -0.023781 -0.017656 1.343242
    20 -1.368771 0.000025 0.000002 -0.239317 0.018432 -0.003573
    21 -1.874800 -0.935125 0.999174 2.067204 0.441573 0.749806
    22 -1.523453 0.000032 0.000031 0.074265 0.233956 0.563732
    23 -1.599285 0.000004 0.000016 0.029772 -0.030974 0.785151
    24 5.511815 0.000008 -0.000001 2.243089 -0.002559 -3.140365
    25 0.196847 -0.000001 0.000003 2.793407 0.000006 -3.141577
    26 0.092577 -6.036725 -4.914864 1.975862 1.159909 1.842803
    27 6.214485 0.000006 0.000020 0.216837 -0.011066 -1.170301
    28 11.944885 -0.000029 -0.000194 0.320862 -0.336044 -1.858506
    29 10.620166 0.000002 0.000010 -2.023007 0.136635 0.269842
    30 4.751156 0.694376 -0.830473 0.132503 -0.051623 0.562581
    31 1.688065 -0.000026 0.000002 0.013967 -0.032526 0.936067
    32 1.336151 -0.000051 -0.000009 -0.002828 -0.046494 0.465708
    33 4.820513 0.509340 0.224865 -0.045292 -0.119938 0.898127
    34 1.826996 0.000066 0.000008 -0.014442 0.037865 0.909400
    35 1.436577 -0.000010 0.000007 -0.000051 -0.015182 0.845218
    36 3.992353 0.891087 1.827994 -0.459458 0.016661 1.142803
    37 1.405918 0.000021 -0.000007 -0.009128 -0.028085 1.189865
    38 1.175369 -0.000131 0.000002 0.075676 0.097442 0.616970
    39 4.526756 0.690460 1.120842 -0.251571 -0.077857 1.074299
    40 1.744041 -0.000031 -0.000002 -0.019617 -0.022199 1.135311
    41 1.368763 -0.000031 -0.000017 0.104771 0.119426 0.537691
    42 1.874855 0.935081 -0.999130 1.592699 0.501216 0.650507
    43 1.523449 -0.000034 -0.000003 0.038215 -0.033000 0.408780
    44 1.599281 -0.000002 0.000009 0.083268 -0.006494 0.904118
    45 5.511806 -0.000002 0.000006 -0.023278 0.000004 0.000006
    46 0.196850 0.000003 -0.000002 -0.348225 0.000015 -0.000002
    47 0.000000 1.999023 0.000000 0.000000 0.000000 -1.570796
    48 -8.046340 -26.611759 -5.548050 0.084970 0.000000 1.612857
    49 3.332491 -0.003284 -0.934897 0.000000 0.000000 0.000000
    50 0.381264 0.001021 0.888928 0.000000 0.000000 0.000000
    51 9.572872 1.446741 -4.365668 0.569552 1.156004 2.164662
    52 19.084881 -19.054586 -0.861655 -2.970233 -1.364685 -2.419043
    53 1.813139 0.139032 -0.745562 0.000000 0.000000 0.000000
    54 0.381264 0.783885 0.615359 -3.023270 0.000000 0.000000
    55 6.501173 0.256559 2.048409 0.000000 0.000000 0.000000
    56 0.050734 -0.015066 -0.906442 0.000000 0.000000 0.000000
    57 0.026926 -0.174474 1.260252 0.000000 0.000000 0.000000
    58 0.000000 0.345213 0.242352 0.000000 0.000000 0.000000
  time 18
    0 -0.000001 9.445313 -27.500000 0.000000 0.000000 -0.000001
    1 -0.000002 0.000000 0.000000 1.570743 -1.567137 -1.570743
    2 4.255468 -0.335183 -0.000002 0.000000 0.000000 -0.124848
    3 7.431248 1.496477 0.000002 0.000000 0.000000 0.245450
    4 5.278479 0.165541 0.000001 0.000000 0.000000 0.048511
    5 2.061387 -10.954844 2.184311 1.975864 1.159909 -1.298786
    6 -6.214482 -0.000007 -0.000027 2.946488 -0.340687 2.063279
    7 11.944882 0.000000 0.000001 -0.199291 -0.348521 1.499710
    8 10.620181 0.000002 0.000000 0.389008 0.174034 2.609533
    9 -4.751106 -0.694494 0.830577 0.158601 -0.097860 -0.042117
    10 -1.688068 0.000046 -0.000032 0.017336 -0.017701 0.663687
    11 -1.336140 0.000057 -0.000012 0.026393 -0.000544 0.574362
    12 -4.820494 -0.509460 -0.224759 -0.571001 -0.105504 1.450021
    13 -1.826992 -0.000064 0.000006 0.006567 0.039974 1.436945
    14 -1.436573 0.000006 0.000002 -0.027803 -0.072691 0.273305
    15 -3.992355 -0.891188 -1.827909 -0.633029 0.345677 1.729988
    16 -1.405918 -0.000025 -0.000003 -0.002971 -0.029380 0.976527
    17 -1.175358 0.000128 -0.000020 0.013935 0.066537 0.109985
    18 -4.526751 -0.690575 -1.120744 -0.604095 0.115941 1.646758
    19 -1.744038 0.000033 -0.000008 -0.023781 -0.017656 1.343242
    20 -1.368771 0.000025 0.000002 -0.239317 0.018432 -0.003573
    21 -1.874800 -0.935125 0.999174 2.067204 0.441573 0.749806
    22 -1.523453 0.000032 0.000031 0.074265 0.233956 0.563732
    23 -1.599285 0.000004 0.000016 0.029772 -0.030974 0.785151
    24 5.511815 0.000008 -0.000001 2.243089 -0.002559 -3.140365
    25 0.196847 -0.000001 0.000003 2.793407 0.000006 -3.141577
    26 -0.962142 -9.302449 -4.688294 1.975862 1.159909 1.842803
    27 6.214485 0.000006 0.000020 0.199946 -0.036847 -1.309465
    28 11.944885 -0.000029 -0.000194 0.208916 -0.349035 -1.527856
    29 10.620166 0.000002 0.000010 -2.000036 0.173732 0.233737
    30 4.751156 0.694376 -0.830473 0.138680 -0.055027 0.570612
    31 1.688065 -0.000026 0.000002 0.012169 -0.027025 0.964702
    32 1.336151 -0.000051 -0.000009 -0.004302 -0.042120 0.491082
    33 4.820513 0.509340 0.224865 -0.039088 -0.121412 0.917864
    34 1.826996 0.000066 0.000008 -0.013387 0.038248 0.937377
    35 1.436577 -0.000010 0.000007 -0.000482 -0.015182 0.873158
    36 3.992353 0.891087 1.827994 -0.459398 0.027678 1.168635
    37 1.405918 0.000021 -0.000007 -0.009895 -0.027822 1.217288
    38 1.175369 -0.000131 0.000002 0.077294 0.096160 0.633786
    39 4.526756 0.690460 1.120842 -0.249097 -0.074369 1.096831
    40 1.744041 -0.000031 -0.000002 -0.020396 -0.021480 1.170839
    41 1.368763 -0.000031 -0.000017 0.106772 0.117653 0.554529
    42 1.874855 0.935081 -0.999130 1.598919 0.492815 0.663911
    43 1.523449 -0.000034 -0.000003 0.038215 -0.033000 0.408780
    44 1.599281 -0.000002 0.000009 0.083005 -0.009382 0.938728
    45 5.511806 -0.000002 0.000006 -0.023278 0.000004 0.000006
    46 0.196850 0.000003 -0.000002 -0.348225 0.000015 -0.000002
    47 0.000000 1.999023 0.000000 0.000000 0.000000 -1.570796
    48 -8.046340 -23.490570 -5.548050 0.084970 0.000000 1.612857
    49 3.332491 -0.003284 -0.934897 0.000000 0.000000 0.000000
    50 0.381264 0.001021 0.888928 0.000000 0.000000 0.000000
    51 9.572872 1.446741 -4.365668 0.569552 1.156004 2.164662
    52 10.092419 -18.292844 -0.658524 -2.849619 -1.357207 -2.394151
    53 1.813139 0.139032 -0.745562 0.000000 0.000000 0.000000
    54 0.381264 0.783885 0.615359 -3.023270 0.000000 0.000000
    55 6.501173 0.256559 2.048409 0.000000 0.000000 0.000000
    56 0.050734 -0.015066 -0.906442 0.000000 0.000000 0.000000
    57 0.026926 -0.174474 1.260252 0.000000 0.000000 0.000000
    58 0.000000 0.345213 0.242352 0.000000 0.000000 0.000000
  time 19
    0 -0.000001 9.445313 -27.500000 0.000000 0.000000 -0.000001
    1 -0.000002 0.000000 0.000000 1.570743 -1.567137 -1.570743
    2 4.255468 -0.335183 -0.000002 0.000000 0.000000 -0.124848
    3 7.431248 1.496477 0.000002 0.000000 0.000000 0.245450
    4 5.278479 0.165541 0.000001 0.000000 0.000000 0.048511
    5 2.573121 -9.040723 1.770236 1.975864 1.159909 -1.298786
    6 -6.214482 -0.000007 -0.000027 2.877496 -0.330439 2.184242
    7 11.944882 0.000000 0.000001 -0.254357 -0.348030 1.660731
    8 10.620181 0.000002 0.000000 0.358025 0.178482 2.559435
    9 -4.751106 -0.694494 0.830577 0.158601 -0.097860 -0.042117
    10 -1.688068 0.000046 -0.000032 0.017336 -0.017701 0.663687
    11 -1.336140 0.000057 -0.000012 0.026393 -0.000544 0.574362
    12 -4.820494 -0.509460 -0.224759 -0.571001 -0.105504 1.450021
    13 -1.826992 -0.000064 0.000006 0.006567 0.039974 1.436945
    14 -1.436573 0.000006 0.000002 -0.027803 -0.072691 0.273305
    15 -3.992355 -0.891188 -1.827909 -0.633029 0.345677 1.729988
    16 -1.405918 -0.000025 -0.000003 -0.002971 -0.029380 0.976527
    17 -1.175358 0.000128 -0.000020 0.013935 0.066537 0.109985
    18 -4.526751 -0.690575 -1.120744 -0.604095 0.115941 1.646758
    19 -1.744038 0.000033 -0.000008 -0.023781 -0.017656 1.343242
    20 -1.368771 0.000025 0.000002 -0.239317 0.018432 -0.003573
    21 -1.874800 -0.935125 0.999174 2.067204 0.441573 0.749806
    22 -1.523453 0.000032 0.000031 0.074265 0.233956 0.563732
    23 -1.599285 0.000004 0.000016 0.029772 -0.030974 0.785151
    24 5.511815 0.000008 -0.000001 2.243089 -0.002559 -3.140365
    25 0.196847 -0.000001 0.000003 2.793407 0.000006 -3.141577
    26 -2.016862 -12.568174 -4.461725 1.975862 1.159909 1.842803
    27 6.214485 0.000006 0.000020 0.200221 -0.050246 -1.457906
    28 11.944885 -0.000029 -0.000194 0.087063 -0.322561 -1.161860
    29 10.620166 0.000002 0.000010 -1.956545 0.097035 0.171337
    30 4.751156 0.694376 -0.830473 0.142577 -0.057195 0.575709
    31 1.688065 -0.000026 0.000002 0.011127 -0.023537 0.982800
    32 1.336151 -0.000051 -0.000009 -0.005165 -0.039351 0.507113
    33 4.820513 0.509340 0.224865 -0.035179 -0.122419 0.930311
    34 1.826996 0.000066 0.000008 -0.012704 0.038488 0.955063
    35 1.436577 -0.000010 0.000007 -0.000746 -0.015170 0.890826
    36 3.992353 0.891087 1.827994 -0.459206 0.034603 1.184930
    37 1.405918 0.000021 -0.000007 -0.010374 -0.027642 1.234606
    38 1.175369 -0.000131 0.000002 0.078313 0.095333 0.644469
    39 4.526756 0.690460 1.120842 -0.247480 -0.072188 1.111052
    40 1.744041 -0.000031 -0.000002 -0.020864 -0.021024 1.193166
    41 1.368763 -0.000031 -0.000017 0.108007 0.116514 0.565161
    42 1.874855 0.935081 -0.999130 1.602923 0.487506 0.672317
    43 1.523449 -0.000034 -0.000003 0.038215 -0.033000 0.408780
    44 1.599281 -0.000002 0.000009 0.082777 -0.011180 0.960470
    45 5.511806 -0.000002 0.000006 -0.023278 0.000004 0.000006
    46 0.196850 0.000003 -0.000002 -0.348225 0.000015 -0.000002
    47 0.000000 1.999023 0.000000 0.000000 0.000000 -1.570796
    48 -8.046340 -20.185781 -5.548050 0.084970 0.000000 1.612857
    49 3.332491 -0.003284 -0.934897 0.000000 0.000000 0.000000
    50 0.381264 0.001021 0.888928 0.000000 0.000000 0.000000
    51 9.572872 1.446741 -4.365668 0.569552 1.156004 2.164662
    52 0.994485 -17.714702 -0.834310 -3.120906 -1.363172 -2.004336
    53 1.813139 0.139032 -0.745562 0.000000 0.000000 0.000000
    54 0.381264 0.783885 0.615359 -3.023270 0.000000 0.000000
    55 6.501173 0.256559 2.048409 0.000000 0.000000 0.000000
    56 0.050734 -0.015066 -0.906442 0.000000 0.000000 0.000000
    57 0.026926 -0.174474 1.260252 0.000000 0.000000 0.000000
    58 0.000000 0.345213 0.242352 0.000000 0.000000 0.000000
  time 20
    0 -0.000001 9.445313 -27.500000 0.000000 0.000000 -0.000001
    1 -0.000002 0.000000 0.000000 1.570743 -1.567137 -1.570743
    2 4.255468 -0.335183 -0.000002 0.000000 0.000000 -0.124848
    3 7.431248 1.496477 0.000002 0.000000 0.000000 0.245450
    4 5.278479 0.165541 0.000001 0.000000 0.000000 0.048511
    5 3.084856 -7.122695 1.360067 1.975864 1.159909 -1.298786
    6 -6.214482 -0.000007 -0.000027 2.814238 -0.316268 2.303487
    7 11.944882 0.000000 0.000001 -0.303608 -0.340408 1.806425
    8 10.620181 0.000002 0.000000 0.331996 0.187378 2.523961
    9 -4.751106 -0.694494 0.830577 0.158601 -0.097860 -0.042117
    10 -1.688068 0.000046 -0.000032 0.017336 -0.017701 0.663687
    11 -1.336140 0.000057 -0.000012 0.026393 -0.000544 0.574362
    12 -4.820494 -0.509460 -0.224759 -0.571001 -0.105504 1.450021
    13 -1.826992 -0.000064 0.000006 0.006567 0.039974 1.436945
    14 -1.436573 0.000006 0.000002 -0.027803 -0.072691 0.273305
    15 -3.992355 -0.891188 -1.827909 -0.633029 0.345677 1.729988
    16 -1.405918 -0.000025 -0.000003 -0.002971 -0.029380 0.976527
    17 -1.175358 0.000128 -0.000020 0.013935 0.066537 0.109985
    18 -4.526751 -0.690575 -1.120744 -0.604095 0.115941 1.646758
    19 -1.744038 0.000033 -0.000008 -0.023781 -0.017656 1.343242
    20 -1.368771 0.000025 0.000002 -0.239317 0.018432 -0.003573
    21 -1.874800 -0.935125 0.999174 2.067204 0.441573 0.749806
    22 -1.523453 0.000032 0.000031 0.074265 0.233956 0.563732
    23 -1.599285 0.000004 0.000016 0.029772 -0.030974 0.785151
    24 5.511815 0.000008 -0.000001 2.243089 -0.002559 -3.140365
    25 0.196847 -0.000001 0.000003 2.793407 0.000006 -3.141577
    26 -2.985642 -15.572172 -4.250781 1.975862 1.159909 1.842803
    27 6.214485 0.000006 0.000020 0.191364 -0.055992 -1.618453
    28 11.944885 -0.000029 -0.000194 -0.021543 -0.251433 -0.782662
    29 10.620166 0.000002 0.000010 -1.896516 -0.059822 0.076536
    30 4.751156 0.694376 -0.830473 0.143942 -0.057966 0.577469
    31 1.688065 -0.000026 0.000002 0.010779 -0.022315 0.989089
    32 1.336151 -0.000051 -0.000009 -0.005465 -0.038380 0.512681
    33 4.820513 0.509340 0.224865 -0.033817 -0.122778 0.934654
    34 1.826996 0.000066 0.000008 -0.012465 0.038560 0.961196
    35 1.436577 -0.000010 0.000007 -0.000842 -0.015158 0.896940
    36 3.992353 0.891087 1.827994 -0.459122 0.037037 1.190636
    37 1.405918 0.000021 -0.000007 -0.010542 -0.027582 1.240636
    38 1.175369 -0.000131 0.000002 0.078673 0.095045 0.648179
    39 4.526756 0.690460 1.120842 -0.246918 -0.071433 1.116021
    40 1.744041 -0.000031 -0.000002 -0.021031 -0.020857 1.200962
    41 1.368763 -0.000031 -0.000017 0.108438 0.116107 0.568875
    42 1.874855 0.935081 -0.999130 1.604309 0.485648 0.675247
    43 1.523449 -0.000034 -0.000003 0.038215 -0.033000 0.408780
    44 1.599281 -0.000002 0.000009 0.082693 -0.011815 0.968022
    45 5.511806 -0.000002 0.000006 -0.023278 0.000004 0.000006
    46 0.196850 0.000003 -0.000002 -0.348225 0.000015 -0.000002
    47 0.000000 1.999023 0.000000 0.000000 0.000000 -1.570796
    48 -8.046340 -16.880993 -5.548050 0.084970 0.000000 1.612857
    49 3.332491 -0.003284 -0.934897 0.000000 0.000000 0.000000
    50 0.381264 0.001021 0.888928 0.000000 0.000000 0.000000
    51 9.572872 1.446741 -4.365668 0.569552 1.156004 2.164662
    52 -7.423741 -17.288908 -1.189790 2.616977 -1.327739 -1.368813
    53 1.813139 0.139032 -0.745562 0.000000 0.000000 0.000000
    54 0.381264 0.783885 0.615359 -3.023270 0.000000 0.000000
    55 6.501173 0.256559 2.048409 0.000000 0.000000 0.000000
    56 0.050734 -0.015066 -0.906442 0.000000 0.000000 0.000000
    57 0.026926 -0.174474 1.260252 0.000000 0.000000 0.000000
    58 0.000000 0.345213 0.242352 0.000000 0.000000 0.000000
  time 21
    0 -0.000001 9.445313 -27.500000 0.000000 0.000000 -0.000001
    1 -0.000002 0.000000 0.000000 1.570743 -1.567137 -1.570743
    2 4.255468 -0.335183 -0.000002 0.000000 0.000000 -0.124848
    3 7.431248 1.496477 0.000002 0.000000 0.000000 0.245450
    4 5.278479 0.165541 0.000001 0.000000 0.000000 0.048511
    5 3.569245 -5.314047 0.969430 1.975864 1.159909 -1.298786
    6 -6.214482 -0.000007 -0.000027 2.757674 -0.299425 2.416830
    7 11.944882 0.000000 0.000001 -0.344591 -0.328519 1.931141
    8 10.620181 0.000002 0.000000 0.310598 0.200375 2.504029
    9 -4.751106 -0.694494 0.830577 0.158601 -0.097860 -0.042117
    10 -1.688068 0.000046 -0.000032 0.017336 -0.017701 0.663687
    11 -1.336140 0.000057 -0.000012 0.026393 -0.000544 0.574362
    12 -4.820494 -0.509460 -0.224759 -0.571001 -0.105504 1.450021
    13 -1.826992 -0.000064 0.000006 0.006567 0.039974 1.436945
    14 -1.436573 0.000006 0.000002 -0.027803 -0.072691 0.273305
    15 -3.992355 -0.891188 -1.827909 -0.633029 0.345677 1.729988
    16 -1.405918 -0.000025 -0.000003 -0.002971 -0.029380 0.976527
    17 -1.175358 0.000128 -0.000020 0.013935 0.066537 0.109985
    18 -4.526751 -0.690575 -1.120744 -0.604095 0.115941 1.646758
    19 -1.744038 0.000033 -0.000008 -0.023781 -0.017656 1.343242
    20 -1.368771 0.000025 0.000002 -0.239317 0.018432 -0.003573
    21 -1.874800 -0.935125 0.999174 2.067204 0.441573 0.749806
    22 -1.523453 0.000032 0.000031 0.074265 0.233956 0.563732
    23 -1.599285 0.000004 0.000016 0.029772 -0.030974 0.785151
    24 5.511815 0.000008 -0.000001 2.243089 -0.002559 -3.140365
    25 0.196847 -0.000001 0.000003 2.793407 0.000006 -3.141577
    26 -3.786447 -18.040997 -4.082807 1.975862 1.159909 1.842803
    27 6.214485 0.000006 0.000020 0.161379 -0.060374 -1.778911
    28 11.944885 -0.000029 -0.000194 -0.093328 -0.149444 -0.426157
    29 10.620166 0.000002 0.000010 -1.818110 -0.236189 -0.050613
    30 4.751156 0.694376 -0.830473 0.124139 -0.047175 0.552078
    31 1.688065 -0.000026 0.000002 0.016592 -0.039753 0.897887
    32 1.336151 -0.000051 -0.000009 -0.000695 -0.052223 0.431965
    33 4.820513 0.509340 0.224865 -0.053917 -0.119662 0.872031
    34 1.826996 0.000066 0.000008 -0.015844 0.037302 0.872223
    35 1.436577 -0.000010 0.000007 0.000513 -0.015182 0.808035
    36 3.992353 0.891087 1.827994 -0.459110 0.002038 1.108453
    37 1.405918 0.000021 -0.000007 -0.008097 -0.028397 1.153436
    38 1.175369 -0.000131 0.000002 0.073483 0.099096 0.594713
    39 4.526756 0.690460 1.120842 -0.254747 -0.082566 1.044399
    40 1.744041 -0.000031 -0.000002 -0.018551 -0.023098 1.087911
    41 1.368763 -0.000031 -0.000017 0.102098 0.121715 0.515410
    42 1.874855 0.935081 -0.999130 1.602122 0.519205 0.632297
    43 1.523449 -0.000034 -0.000003 0.038215 -0.033000 0.408780
    44 1.599281 -0.000002 0.000009 0.083484 -0.002635 0.857996
    45 5.511806 -0.000002 0.000006 -0.023278 0.000004 0.000006
    46 0.196850 0.000003 -0.000002 -0.348225 0.000015 -0.000002
    47 0.000000 1.999023 0.000000 0.000000 0.000000 -1.570796
    48 -8.046340 -13.759804 -5.548050 0.084970 0.000000 1.612857
    49 3.332491 -0.003284 -0.934897 0.000000 0.000000 0.000000
    50 0.381264 0.001021 0.888928 0.000000 0.000000 0.000000
    51 9.572872 1.446741 -4.365668 0.569552 1.156004 2.164662
    52 -14.412235 -16.995930 -1.670273 2.245877 -1.233327 -0.930780
    53 1.813139 0.139032 -0.745562 0.000000 0.000000 0.000000
    54 0.381264 0.783885 0.615359 -3.023270 0.000000 0.000000
    55 6.501173 0.256559 2.048409 0.000000 0.000000 0.000000
    56 0.050734 -0.015066 -0.906442 0.000000 0.000000 0.000000
    57 0.026926 -0.174474 1.260252 0.000000 0.000000 0.000000
    58 0.000000 0.345213 0.242352 0.000000 0.000000 0.000000
  time 22
    0 -0.000001 9.445313 -27.500000 0.000000 0.000000 -0.000001
    1 -0.000002 0.000000 0.000000 1.570743 -1.567137 -1.570743
    2 4.255468 -0.335183 -0.000002 0.000000 0.000000 -0.124848
    3 7.431248 1.496477 0.000002 0.000000 0.000000 0.245450
    4 5.278479 0.165541 0.000001 0.000000 0.000000 0.048511
    5 3.995040 -3.720248 0.621763 1.975864 1.159909 -1.298786
    6 -6.214482 -0.000007 -0.000027 2.708884 -0.281365 2.518666
    7 11.944882 0.000000 0.000001 -0.376305 -0.315432 2.031268
    8 10.620181 0.000002 0.000000 0.293473 0.216339 2.498034
    9 -4.751106 -0.694494 0.830577 0.158601 -0.097860 -0.042117
    10 -1.688068 0.000046 -0.000032 0.017336 -0.017701 0.663687
    11 -1.336140 0.000057 -0.000012 0.026393 -0.000544 0.574362
    12 -4.820494 -0.509460 -0.224759 -0.571001 -0.105504 1.450021
    13 -1.826992 -0.000064 0.000006 0.006567 0.039974 1.436945
    14 -1.436573 0.000006 0.000002 -0.027803 -0.072691 0.273305
    15 -3.992355 -0.891188 -1.827909 -0.633029 0.345677 1.729988
    16 -1.405918 -0.000025 -0.000003 -0.002971 -0.029380 0.976527
    17 -1.175358 0.000128 -0.000020 0.013935 0.066537 0.109985
    18 -4.526751 -0.690575 -1.120744 -0.604095 0.115941 1.646758
    19 -1.744038 0.000033 -0.000008 -0.023781 -0.017656 1.343242
    20 -1.368771 0.000025 0.000002 -0.239317 0.018432 -0.003573
    21 -1.874800 -0.935125 0.999174 2.067204 0.441573 0.749806
    22 -1.523453 0.000032 0.000031 0.074265 0.233956 0.563732
    23 -1.599285 0.000004 0.000016 0.029772 -0.030974 0.785151
    24 5.511815 0.000008 -0.000001 2.243089 -0.002559 -3.140365
    25 0.196847 -0.000001 0.000003 2.793407 0.000006 -3.141577
    26 -4.325526 -19.720736 -3.965616 1.975862 1.159909 1.842803
    27 6.214485 0.000006 0.000020 0.098990 -0.047007 -1.826182
    28 11.944885 -0.000029 -0.000194 -0.107238 -0.114209 -0.320422
    29 10.620166 0.000002 0.000010 -1.709613 -0.344772 -0.093813
    30 4.751156 0.694376 -0.830473 0.075744 -0.023424 0.490578
    31 1.688065 -0.000026 0.000002 0.037313 -0.079601 0.673935
    32 1.336151 -0.000051 -0.000009 0.015461 -0.083946 0.235107
    33 4.820513 0.509340 0.224865 -0.102945 -0.117301 0.720612
    34 1.826996 0.000066 0.000008 -0.023514 0.033011 0.655043
    35 1.436577 -0.000010 0.000007 0.003772 -0.014715 0.590908
    36 3.992353 0.891087 1.827994 -0.447018 -0.082404 0.907236
    37 1.405918 0.000021 -0.000007 -0.001913 -0.029464 0.940692
    38 1.175369 -0.000131 0.000002 0.060180 0.107677 0.465971
    39 4.526756 0.690460 1.120842 -0.270266 -0.111605 0.870955
    40 1.744041 -0.000031 -0.000002 -0.011432 -0.027328 0.807496
    41 1.368763 -0.000031 -0.000017 0.085667 0.133772 0.386607
    42 1.874855 0.935081 -0.999130 1.589466 0.599262 0.524874
    43 1.523449 -0.000034 -0.000003 0.038215 -0.033000 0.408780
    44 1.599281 -0.000002 0.000009 0.081099 0.020016 0.585076
    45 5.511806 -0.000002 0.000006 -0.023278 0.000004 0.000006
    46 0.196850 0.000003 -0.000002 -0.348225 0.000015 -0.000002
    47 0.000000 1.999023 0.000000 0.000000 0.000000 -1.570796
    48 -8.046340 -11.009720 -5.548050 0.084970 0.000000 1.612857
    49 3.332491 -0.003284 -0.934897 0.000000 0.000000 0.000000
    50 0.381264 0.001021 0.888928 0.000000 0.000000 0.000000
    51 9.572872 1.446741 -4.365668 0.569552 1.156004 2.164662
    52 -19.185819 -16.812330 -2.197633 2.067436 -1.152135 -0.704171
    53 1.813139 0.139032 -0.745562 0.000000 0.000000 0.000000
    54 0.381264 0.783885 0.615359 -3.023270 0.000000 0.000000
    55 6.501173 0.256559 2.048409 0.000000 0.000000 0.000000
    56 0.050734 -0.015066 -0.906442 0.000000 0.000000 0.000000
    57 0.026926 -0.174474 1.260252 0.000000 0.000000 0.000000
    58 0.000000 0.345213 0.242352 0.000000 0.000000 0.000000
  time 23
    0 -0.000001 9.445313 -27.500000 0.000000 0.000000 -0.000001
    1 -0.000002 0.000000 0.000000 1.570743 -1.567137 -1.570743
    2 4.255468 -0.335183 -0.000002 0.000000 0.000000 -0.124848
    3 7.431248 1.496477 0.000002 0.000000 0.000000 0.245450
    4 5.278479 0.165541 0.000001 0.000000 0.000000 0.048511
    5 4.334894 -2.446772 0.348317 1.975864 1.159909 -1.298786
    6 -6.214482 -0.000007 -0.000027 2.669866 -0.264217 2.602123
    7 11.944882 0.000000 0.000001 -0.398637 -0.303879 2.104558
    8 10.620181 0.000002 0.000000 0.280512 0.232648 2.501662
    9 -4.751106 -0.694494 0.830577 0.158601 -0.097860 -0.042117
    10 -1.688068 0.000046 -0.000032 0.017336 -0.017701 0.663687
    11 -1.336140 0.000057 -0.000012 0.026393 -0.000544 0.574362
    12 -4.820494 -0.509460 -0.224759 -0.571001 -0.105504 1.450021
    13 -1.826992 -0.000064 0.000006 0.006567 0.039974 1.436945
    14 -1.436573 0.000006 0.000002 -0.027803 -0.072691 0.273305
    15 -3.992355 -0.891188 -1.827909 -0.633029 0.345677 1.729988
    16 -1.405918 -0.000025 -0.000003 -0.002971 -0.029380 0.976527
    17 -1.175358 0.000128 -0.000020 0.013935 0.066537 0.109985
    18 -4.526751 -0.690575 -1.120744 -0.604095 0.115941 1.646758
    19 -1.744038 0.000033 -0.000008 -0.023781 -0.017656 1.343242
    20 -1.368771 0.000025 0.000002 -0.239317 0.018432 -0.003573
    21 -1.874800 -0.935125 0.999174 2.067204 0.441573 0.749806
    22 -1.523453 0.000032 0.000031 0.074265 0.233956 0.563732
    23 -1.599285 0.000004 0.000016 0.029772 -0.030974 0.785151
    24 5.511815 0.000008 -0.000001 2.243089 -0.002559 -3.140365
    25 0.196847 -0.000001 0.000003 2.793407 0.000006 -3.141577
    26 -4.528658 -20.337942 -3.922646 1.975862 1.159909 1.842803
    27 6.214485 0.000006 0.000020 0.009422 0.010620 -1.748692
    28 11.944885 -0.000029 -0.000194 -0.082956 -0.170189 -0.491374
    29 10.620166 0.000002 0.000010 -1.547441 -0.286451 -0.032352
    30 4.751156 0.694376 -0.830473 0.016096 0.000953 0.415641
    31 1.688065 -0.000026 0.000002 0.073662 -0.120205 0.400382
    32 1.336151 -0.000051 -0.000009 0.042845 -0.117119 -0.004126
    33 4.820513 0.509340 0.224865 -0.161581 -0.124216 0.538522
    34 1.826996 0.000066 0.000008 -0.031280 0.025772 0.392241
    35 1.436577 -0.000010 0.000007 0.007464 -0.013229 0.328103
    36 3.992353 0.891087 1.827994 -0.409722 -0.178765 0.659242
    37 1.405918 0.000021 -0.000007 0.005649 -0.028984 0.683329
    38 1.175369 -0.000131 0.000002 0.042911 0.115635 0.311311
    39 4.526756 0.690460 1.120842 -0.281975 -0.149464 0.661656
    40 1.744041 -0.000031 -0.000002 -0.001580 -0.029569 0.464753
    41 1.368763 -0.000031 -0.000017 0.064071 0.145301 0.231656
    42 1.874855 0.935081 -0.999130 1.558732 0.692958 0.385531
    43 1.523449 -0.000034 -0.000003 0.038203 -0.033000 0.408780
    44 1.599281 -0.000002 0.000009 0.070037 0.045555 0.250708
    45 5.511806 -0.000002 0.000006 -0.023278 0.000004 0.000006
    46 0.196850 0.000003 -0.000002 -0.348225 0.000015 -0.000002
    47 0.000000 1.999023 0.000000 0.000000 0.000000 -1.570796
    48 -8.046340 -8.818247 -5.548050 0.084970 0.000000 1.612857
    49 3.332491 -0.003284 -0.934897 0.000000 0.000000 0.000000
    50 0.381264 0.001021 0.888928 0.000000 0.000000 0.000000
    51 9.568965 1.446741 -4.365668 0.569552 1.156004 2.164662
    52 -21.650738 -16.722484 -2.713274 1.950352 -1.194823 -0.557091
    53 1.813139 0.139032 -0.745562 0.000000 0.000000 0.000000
    54 0.381264 0.783885 0.615359 -3.023270 0.000000 0.000000
    55 6.501173 0.256559 2.048409 0.000000 0.000000 0.000000
    56 0.050734 -0.015066 -0.906442 0.000000 0.000000 0.000000
    57 0.026926 -0.174474 1.260252 0.000000 0.000000 0.000000
    58 0.000000 0.345213 0.242352 0.000000 0.000000 0.000000
  time 24
    0 -0.000001 9.445313 -27.500000 0.000000 0.000000 -0.000001
    1 -0.000002 0.000000 0.000000 1.570743 -1.567137 -1.570743
    2 4.255468 -0.335183 -0.000002 0.000000 0.000000 -0.124848
    3 7.431248 1.496477 0.000002 0.000000 0.000000 0.245450
    4 5.278479 0.165541 0.000001 0.000000 0.000000 0.048511
    5 4.561463 -1.602996 0.164718 1.975864 1.159909 -1.298786
    6 -6.214482 -0.000007 -0.000027 2.643740 -0.251162 2.658607
    7 11.944882 0.000000 0.000001 -0.412003 -0.295945 2.149786
    8 10.620181 0.000002 0.000000 0.272147 0.245596 2.508497
    9 -4.751106 -0.694494 0.830577 0.158601 -0.097860 -0.042117
    10 -1.688068 0.000046 -0.000032 0.017336 -0.017701 0.663687
    11 -1.336140 0.000057 -0.000012 0.026393 -0.000544 0.574362
    12 -4.820494 -0.509460 -0.224759 -0.571001 -0.105504 1.450021
    13 -1.826992 -0.000064 0.000006 0.006567 0.039974 1.436945
    14 -1.436573 0.000006 0.000002 -0.027803 -0.072691 0.273305
    15 -3.992355 -0.891188 -1.827909 -0.633029 0.345677 1.729988
    16 -1.405918 -0.000025 -0.000003 -0.002971 -0.029380 0.976527
    17 -1.175358 0.000128 -0.000020 0.013935 0.066537 0.109985
    18 -4.526751 -0.690575 -1.120744 -0.604095 0.115941 1.646758
    19 -1.744038 0.000033 -0.000008 -0.023781 -0.017656 1.343242
    20 -1.368771 0.000025 0.000002 -0.239317 0.018432 -0.003573
    21 -1.874800 -0.935125 0.999174 2.067204 0.441573 0.749806
    22 -1.523453 0.000032 0.000031 0.074265 0.233956 0.563732
    23 -1.599285 0.000004 0.000016 0.029772 -0.030974 0.785151
    24 5.511815 0.000008 -0.000001 2.243089 -0.002559 -3.140365
    25 0.196847 -0.000001 0.000003 2.793407 0.000006 -3.141577
    26 -2.415312 -20.740299 -4.199998 1.975862 1.159909 1.842803
    27 6.214485 0.000006 0.000020 -0.288496 0.275800 -1.681717
    28 11.944885 -0.000029 -0.000194 -0.029328 -0.243595 -0.750905
    29 10.620166 0.000002 0.000010 -1.095919 -0.094108 -0.000421
    30 4.751156 0.694376 -0.830473 -0.035083 0.017846 0.351947
    31 1.688065 -0.000026 0.000002 0.111246 -0.145277 0.172789
    32 1.336151 -0.000051 -0.000009 0.071105 -0.139027 -0.203487
    33 4.820513 0.509340 0.224865 -0.208755 -0.137927 0.387530
    34 1.826996 0.000066 0.000008 -0.036086 0.018450 0.175271
    35 1.436577 -0.000010 0.000007 0.010136 -0.011311 0.111013
    36 3.992353 0.891087 1.827994 -0.360705 -0.249377 0.448098
    37 1.405918 0.000021 -0.000007 0.011642 -0.027139 0.470626
    38 1.175369 -0.000131 0.000002 0.027702 0.120165 0.182173
    39 4.526756 0.690460 1.120842 -0.285489 -0.182158 0.487270
    40 1.744041 -0.000031 -0.000002 0.006653 -0.028874 0.184294
    41 1.368763 -0.000031 -0.000017 0.044836 0.152300 0.102089
    42 1.874855 0.935081 -0.999130 1.517498 0.767682 0.257294
    43 1.523449 -0.000034 -0.000003 0.038215 -0.033000 0.408780
    44 1.599281 -0.000002 0.000009 0.055044 0.062861 -0.024302
    45 5.511806 -0.000002 0.000006 -0.023278 0.000004 0.000006
    46 0.196850 0.000003 -0.000002 -0.348225 0.000015 -0.000002
    47 0.000000 1.999023 0.000000 0.000000 0.000000 -1.570796
    48 -8.046340 -7.365078 -5.548050 0.084970 0.000000 1.612857
    49 3.332491 -0.003284 -0.934897 0.000000 0.000000 0.000000
    50 0.381264 0.001021 0.888928 0.000000 0.000000 0.000000
    51 9.568965 1.446741 -4.365668 0.569552 1.156004 2.164662
    52 -22.392948 -16.714671 -3.150787 1.722291 -1.350040 -0.316235
    53 1.813139 0.139032 -0.745562 0.000000 0.000000 0.000000
    54 0.381264 0.783885 0.615359 -3.023270 0.000000 0.000000
    55 6.501173 0.256559 2.048409 0.000000 0.000000 0.000000
    56 0.050734 -0.015066 -0.906442 0.000000 0.000000 0.000000
    57 0.026926 -0.174474 1.260252 0.000000 0.000000 0.000000
    58 0.000000 0.345213 0.242352 0.000000 0.000000 0.000000
  time 25
    0 -0.000001 9.445313 -27.500000 0.000000 0.000000 -0.000001
    1 -0.000002 0.000000 0.000000 1.570743 -1.567137 -1.570743
    2 4.255468 -0.335183 -0.000002 0.000000 0.000000 -0.124848
    3 7.431248 1.496477 0.000002 0.000000 0.000000 0.245450
    4 5.278479 0.165541 0.000001 0.000000 0.000000 0.048511
    5 4.643497 -1.298299 0.098310 1.975864 1.159909 -1.298786
    6 -6.214482 -0.000007 -0.000027 2.634197 -0.246089 2.679303
    7 11.944882 0.000000 0.000001 -0.416571 -0.293044 2.165452
    8 10.620181 0.000002 0.000000 0.269131 0.250736 2.511857
    9 -4.751106 -0.694494 0.830577 0.158601 -0.097860 -0.042117
    10 -1.688068 0.000046 -0.000032 0.017336 -0.017701 0.663687
    11 -1.336140 0.000057 -0.000012 0.026393 -0.000544 0.574362
    12 -4.820494 -0.509460 -0.224759 -0.571001 -0.105504 1.450021
    13 -1.826992 -0.000064 0.000006 0.006567 0.039974 1.436945
    14 -1.436573 0.000006 0.000002 -0.027803 -0.072691 0.273305
    15 -3.992355 -0.891188 -1.827909 -0.633029 0.345677 1.729988
    16 -1.405918 -0.000025 -0.000003 -0.002971 -0.029380 0.976527
    17 -1.175358 0.000128 -0.000020 0.013935 0.066537 0.109985
    18 -4.526751 -0.690575 -1.120744 -0.604095 0.115941 1.646758
    19 -1.744038 0.000033 -0.000008 -0.023781 -0.017656 1.343242
    20 -1.368771 0.000025 0.000002 -0.239317 0.018432 -0.003573
    21 -1.874800 -0.935125 0.999174 2.067204 0.441573 0.749806
    22 -1.523453 0.000032 0.000031 0.074265 0.233956 0.563732
    23 -1.599285 0.000004 0.000016 0.029772 -0.030974 0.785151
    24 5.511815 0.000008 -0.000001 2.243089 -0.002559 -3.140365
    25 0.196847 -0.000001 0.000003 2.793407 0.000006 -3.141577
    26 -1.884046 -19.255878 -3.918740 1.975862 1.159909 1.842803
    27 6.214485 0.000006 0.000020 -0.311933 0.300946 -1.673942
    28 11.944885 -0.000029 -0.000194 -0.032136 -0.240623 -0.739164
    29 10.620166 0.000002 0.000010 -1.018661 0.007858 0.013040
    30 4.751156 0.694376 -0.830473 -0.056768 0.023932 0.325074
    31 1.688065 -0.000026 0.000002 0.128120 -0.152971 0.079269
    32 1.336151 -0.000051 -0.000009 0.083929 -0.146338 -0.285773
    33 4.820513 0.509340 0.224865 -0.227607 -0.145633 0.325140
    34 1.826996 0.000066 0.000008 -0.037584 0.015166 0.086382
    35 1.436577 -0.000010 0.000007 0.011107 -0.010364 0.022072
    36 3.992353 0.891087 1.827994 -0.336124 -0.275054 0.359546
    37 1.405918 0.000021 -0.000007 0.013955 -0.026024 0.383425
    38 1.175369 -0.000131 0.000002 0.021230 0.121471 0.128410
    39 4.526756 0.690460 1.120842 -0.285250 -0.195737 0.415005
    40 1.744041 -0.000031 -0.000002 0.009865 -0.027940 0.071242
    41 1.368763 -0.000031 -0.000017 0.036590 0.154469 0.048116
    42 1.874855 0.935081 -0.999130 1.495480 0.797439 0.199906
    43 1.523449 -0.000034 -0.000003 0.038203 -0.033000 0.408780
    44 1.599281 -0.000002 0.000009 0.047722 0.068590 -0.135647
    45 5.511806 -0.000002 0.000006 -0.023278 0.000004 0.000006
    46 0.196850 0.000003 -0.000002 -0.348225 0.000015 -0.000002
    47 0.000000 1.999023 0.000000 0.000000 0.000000 -1.570796
    48 -8.046340 -6.837718 -5.548050 0.084970 0.000000 1.612857
    49 3.332491 -0.003284 -0.934897 0.000000 0.000000 0.000000
    50 0.381264 0.001021 0.888928 0.000000 0.000000 0.000000
    51 9.568965 1.446741 -4.365668 0.569552 1.156004 2.164662
    52 -21.428074 -16.773267 -3.357825 1.265023 -1.449438 0.142932
    53 1.813139 0.139032 -0.745562 0.000000 0.000000 0.000000
    54 0.381264 0.783885 0.615359 -3.023270 0.000000 0.000000
    55 6.501173 0.256559 2.048409 0.000000 0.000000 0.000000
    56 0.050734 -0.015066 -0.906442 0.000000 0.000000 0.000000
    57 0.026926 -0.174474 1.260252 0.000000 0.000000 0.000000
    58 0.000000 0.345213 0.242352 0.000000 0.000000 0.000000
end
