version 1
nodes
0 "root" -1
1 "pelvis" 0
2 "spine_01" 1
3 "spine_02" 2
4 "spine_03" 3
5 "clavicle_r" 4
6 "upperarm_r" 5
7 "lowerarm_r" 6
8 "hand_r" 7
9 "index_01_r" 8
10 "index_02_r" 9
11 "index_03_r" 10
12 "middle_01_r" 8
13 "middle_02_r" 12
14 "middle_03_r" 13
15 "pinky_01_r" 8
16 "pinky_02_r" 15
17 "pinky_03_r" 16
18 "ring_01_r" 8
19 "ring_02_r" 18
20 "ring_03_r" 19
21 "thumb_01_r" 8
22 "thumb_02_r" 21
23 "thumb_03_r" 22
24 "lowerarm_twist_01_r" 7
25 "upperarm_twist_01_r" 6
26 "clavicle_l" 4
27 "upperarm_l" 26
28 "lowerarm_l" 27
29 "hand_l" 28
30 "index_01_l" 29
31 "index_02_l" 30
32 "index_03_l" 31
33 "middle_01_l" 29
34 "middle_02_l" 33
35 "middle_03_l" 34
36 "pinky_01_l" 29
37 "pinky_02_l" 36
38 "pinky_03_l" 37
39 "ring_01_l" 29
40 "ring_02_l" 39
41 "ring_03_l" 40
42 "thumb_01_l" 29
43 "thumb_02_l" 42
44 "thumb_03_l" 43
45 "lowerarm_twist_01_l" 28
46 "upperarm_twist_01_l" 27
47 "cam_driver" -1
48 "BaseRoot" -1
49 "Base" 48
50 "rhand_ikTarget" 49
51 "Trigger" 49
52 "Mag" 49
53 "Bullets" 52
54 "Bolt" 49
55 "MagRelease" 49
56 "lhand_ikTarget" 49
end
skeleton
time 0
0 -0.00000100 9.45008800 -27.50902600 0.00000000 0.00000000 0.00003100
1 -0.00000200 0.00000000 0.00000000 1.57074300 -1.56713700 -1.57074300
2 4.25546800 -0.33518300 -0.00000200 0.00000000 0.00000000 -0.12484800
3 7.43124800 1.49647700 0.00000200 0.00000000 0.00000000 0.24545000
4 5.27847900 0.16554100 0.00000100 0.00000000 0.00000000 0.04851100
5 3.25893982 -9.78243520 3.71176939 1.97586400 1.15990900 -1.29878600
6 -6.21448200 -0.00000700 -0.00002700 -2.82388491 -0.61596620 1.34800087
7 11.94488200 0.00000000 0.00000100 -0.04348101 -0.30267943 1.01998157
8 10.62018100 0.00000200 0.00000000 1.01891548 0.37866941 2.51684462
9 -4.75110600 -0.69449400 0.83057700 -0.28768500 0.16844900 0.45488600
10 -1.68806800 0.00004600 -0.00003200 0.01151400 -0.02189700 0.95484700
11 -1.33614000 0.00005700 -0.00001200 0.02407200 -0.01080900 0.97502800
12 -4.82049400 -0.50946000 -0.22475900 -0.33846200 -0.01336700 1.23585300
13 -1.82699200 -0.00006400 0.00000600 -0.00024500 0.04047200 1.26807400
14 -1.43657300 0.00000600 0.00000200 -0.05524000 -0.05469200 0.69918900
15 -3.99235500 -0.89118800 -1.82790900 -0.53822200 0.04573000 0.93801100
16 -1.40591800 -0.00002500 -0.00000300 -0.00798600 -0.02836000 1.14978400
17 -1.17535800 0.00012800 -0.00002000 0.05560900 0.03892800 0.86426700
18 -4.52675100 -0.69057500 -1.12074400 -0.43382200 0.07827300 1.31804700
19 -1.74403800 0.00003300 -0.00000800 -0.02662600 -0.01282800 1.53365100
20 -1.36877100 0.00002500 0.00000200 0.02081800 0.04817500 0.30338500
21 -1.87480000 -0.93512500 0.99917400 2.00022900 0.52323300 0.75414300
22 -1.52345300 0.00003200 0.00003100 0.08365400 0.15258100 0.60551300
23 -1.59928500 0.00000400 0.00001600 0.03148800 -0.02916500 0.72724000
24 5.58312600 0.11572600 0.29499900 2.23698600 -0.06403800 3.11154600
25 0.19684700 -0.00000100 0.00000300 2.79340692 -0.00066464 -3.14143633
26 -5.32508100 -21.36004100 -0.46058000 1.97586200 1.15990900 1.84280300
27 6.21448500 0.00000600 0.00002000 -0.53825972 0.40182930 -1.92912457
28 11.94488500 -0.00002900 -0.00019400 -0.45061590 -0.29494817 -1.07183750
29 10.62016600 0.00000200 0.00001000 -1.90156396 -0.53512049 0.41498159
30 4.75115600 0.69437600 -0.83047300 -0.13177500 -0.10523900 1.30931800
31 1.68806500 -0.00002600 0.00000200 0.00013200 -0.02471200 1.43157800
32 1.33615100 -0.00005100 -0.00000900 0.00162500 -0.03868900 0.32920800
33 4.82051300 0.50934000 0.22486500 -0.17729900 0.05107200 1.64852700
34 1.82699600 0.00006600 0.00000800 -0.00186700 0.04038300 1.22708400
35 1.43657700 -0.00001000 0.00000700 0.01218200 -0.00892200 -0.09591600
36 3.99235300 0.89108700 1.82799400 -0.34472300 0.17445200 1.46465000
37 1.40591800 0.00002100 -0.00000700 -0.01645600 -0.02445100 1.46689000
38 1.17536900 -0.00013100 0.00000200 -0.02767100 0.12011300 -0.27268800
39 4.52675600 0.69046000 1.12084200 -0.19762200 0.19418700 1.75354700
40 1.74404100 -0.00003100 -0.00000200 -0.02317300 -0.01832700 1.31332100
41 1.36876300 -0.00003100 -0.00001700 -0.30583900 0.14860800 -0.53799100
42 1.74532500 0.96075400 -1.05080800 2.49883200 0.33095300 1.17695300
43 1.45054500 -0.06019000 0.09121800 0.05420100 0.16732000 0.41843800
44 1.59928100 -0.00000200 0.00000900 0.07646600 -0.03347200 1.23758300
45 5.51180600 -0.00000200 0.00000600 -0.66744800 0.00000000 0.00000000
46 0.19685000 0.00000300 -0.00000200 -0.34822500 0.00001500 -0.00000200
47 0.00000000 2.00000000 0.00000000 0.00000000 0.00000000 -1.57079600
48 -3.33884900 8.49800200 -2.72292100 0.00000000 0.00000000 -3.14156200
49 -1.34698742 32.40249574 -3.48653651 0.07657191 -0.08534229 -1.40937929
50 8.78724900 0.42903800 -4.69286800 0.21793700 1.03451400 1.57217400
51 3.02089300 0.12671100 -1.46232800 0.00000000 0.00000000 0.00000000
52 -0.63081700 -0.00336600 1.80821700 0.00000000 0.00000000 0.00000000
53 -0.00019500 0.00000000 0.15614900 0.00000000 0.00000000 0.00000000
54 12.89026300 1.09924600 0.34832700 0.00000000 0.00000000 0.00000000
55 0.03627200 0.00371900 2.20172900 0.00000000 0.00000000 0.00000000
56 -4.47961800 -2.28337400 -4.39486200 2.90953900 0.01384100 -1.88872600
time 1
0 -0.00000100 9.45008800 -27.50902600 0.00000000 0.00000000 0.00003100
1 -0.00000200 0.00000000 0.00000000 1.57074300 -1.56713700 -1.57074300
2 4.25546800 -0.33518300 -0.00000200 0.00000000 0.00000000 -0.12484800
3 7.43124800 1.49647700 0.00000200 0.00000000 0.00000000 0.24545000
4 5.27847900 0.16554100 0.00000100 0.00000000 0.00000000 0.04851100
5 3.18446131 -9.91043085 3.86337043 1.97586400 1.15990900 -1.29878600
6 -6.21448200 -0.00000700 -0.00002700 -2.82982025 -0.62442600 1.35444465
7 11.94488200 0.00000000 0.00000100 -0.05410502 -0.30387001 1.05660456
8 10.62018100 0.00000200 0.00000000 1.04261277 0.37882711 2.51577088
9 -4.75110600 -0.69449400 0.83057700 -0.28768500 0.16844900 0.45488600
10 -1.68806800 0.00004600 -0.00003200 0.01151400 -0.02189700 0.95484700
11 -1.33614000 0.00005700 -0.00001200 0.02407200 -0.01080900 0.97502800
12 -4.82049400 -0.50946000 -0.22475900 -0.33846200 -0.01336700 1.23585300
13 -1.82699200 -0.00006400 0.00000600 -0.00024500 0.04047200 1.26807400
14 -1.43657300 0.00000600 0.00000200 -0.05524000 -0.05469200 0.69918900
15 -3.99235500 -0.89118800 -1.82790900 -0.53822200 0.04573000 0.93801100
16 -1.40591800 -0.00002500 -0.00000300 -0.00798600 -0.02836000 1.14978400
17 -1.17535800 0.00012800 -0.00002000 0.05560900 0.03892800 0.86426700
18 -4.52675100 -0.69057500 -1.12074400 -0.43382200 0.07827300 1.31804700
19 -1.74403800 0.00003300 -0.00000800 -0.02662600 -0.01282800 1.53365100
20 -1.36877100 0.00002500 0.00000200 0.02081800 0.04817500 0.30338500
21 -1.87480000 -0.93512500 0.99917400 2.00022900 0.52323300 0.75414300
22 -1.52345300 0.00003200 0.00003100 0.08365400 0.15258100 0.60551300
23 -1.59928500 0.00000400 0.00001600 0.03148800 -0.02916500 0.72724000
24 5.58312600 0.11572600 0.29499900 2.23698600 -0.06403800 3.11154600
25 0.19684700 -0.00000100 0.00000300 2.79340692 -0.00066464 -3.14143633
26 -5.29670756 -21.30950443 -0.45210125 1.97586200 1.15990900 1.84280300
27 6.21448500 0.00000600 0.00002000 -0.55600069 0.41434772 -1.92634548
28 11.94488500 -0.00002900 -0.00019400 -0.43626015 -0.30622325 -1.09668065
29 10.62016600 0.00000200 0.00001000 -1.89362490 -0.54578317 0.41690260
30 4.75115600 0.69437600 -0.83047300 -0.13177500 -0.10523900 1.30931800
31 1.68806500 -0.00002600 0.00000200 0.00013200 -0.02471200 1.43157800
32 1.33615100 -0.00005100 -0.00000900 0.00162500 -0.03868900 0.32920800
33 4.82051300 0.50934000 0.22486500 -0.17729900 0.05107200 1.64852700
34 1.82699600 0.00006600 0.00000800 -0.00186700 0.04038300 1.22708400
35 1.43657700 -0.00001000 0.00000700 0.01218200 -0.00892200 -0.09591600
36 3.99235300 0.89108700 1.82799400 -0.34472300 0.17445200 1.46465000
37 1.40591800 0.00002100 -0.00000700 -0.01645600 -0.02445100 1.46689000
38 1.17536900 -0.00013100 0.00000200 -0.02767100 0.12011300 -0.27268800
39 4.52675600 0.69046000 1.12084200 -0.19762200 0.19418700 1.75354700
40 1.74404100 -0.00003100 -0.00000200 -0.02317300 -0.01832700 1.31332100
41 1.36876300 -0.00003100 -0.00001700 -0.30583900 0.14860800 -0.53799100
42 1.74532500 0.96075400 -1.05080800 2.49883200 0.33095300 1.17695300
43 1.45054500 -0.06019000 0.09121800 0.05420100 0.16732000 0.41843800
44 1.59928100 -0.00000200 0.00000900 0.07646600 -0.03347200 1.23758300
45 5.51180600 -0.00000200 0.00000600 -0.66744800 0.00000000 0.00000000
46 0.19685000 0.00000300 -0.00000200 -0.34822500 0.00001500 -0.00000200
47 0.00000000 2.00000000 0.00000000 0.00000000 0.00000000 -1.57079600
48 -3.33884900 8.49800200 -2.72292100 0.00000000 0.00000000 -3.14156200
49 -1.54113479 32.22230478 -3.40454643 0.09638599 -0.07643688 -1.39387433
50 8.78724900 0.42903800 -4.69286800 0.21793700 1.03451400 1.57217400
51 3.02089300 0.12671100 -1.46232800 0.00000000 0.00000000 0.00000000
52 -0.63081700 -0.00336600 1.80821700 0.00000000 0.00000000 0.00000000
53 -0.00019500 0.00000000 0.15614900 0.00000000 0.00000000 0.00000000
54 12.89026300 1.09924600 0.34832700 0.00000000 0.00000000 0.00000000
55 0.03627200 0.00371900 2.20172900 0.00000000 0.00000000 0.00000000
56 -4.47961800 -2.28337400 -4.39486200 2.90953900 0.01384100 -1.88872600
time 2
0 -0.00000100 9.45008800 -27.50902600 0.00000000 0.00000000 0.00003100
1 -0.00000200 0.00000000 0.00000000 1.57074300 -1.56713700 -1.57074300
2 4.25546800 -0.33518300 -0.00000200 0.00000000 0.00000000 -0.12484800
3 7.43124800 1.49647700 0.00000200 0.00000000 0.00000000 0.24545000
4 5.27847900 0.16554100 0.00000100 0.00000000 0.00000000 0.04851100
5 2.97855103 -10.26430091 4.28250393 1.97586400 1.15990900 -1.29878600
6 -6.21448200 -0.00000700 -0.00002700 -2.84554282 -0.64332217 1.36014558
7 11.94488200 0.00000000 0.00000100 -0.07913702 -0.30706347 1.13884035
8 10.62018100 0.00000200 0.00000000 1.09421387 0.38328580 2.51444138
9 -4.75110600 -0.69449400 0.83057700 -0.28768500 0.16844900 0.45488600
10 -1.68806800 0.00004600 -0.00003200 0.01151400 -0.02189700 0.95484700
11 -1.33614000 0.00005700 -0.00001200 0.02407200 -0.01080900 0.97502800
12 -4.82049400 -0.50946000 -0.22475900 -0.33846200 -0.01336700 1.23585300
13 -1.82699200 -0.00006400 0.00000600 -0.00024500 0.04047200 1.26807400
14 -1.43657300 0.00000600 0.00000200 -0.05524000 -0.05469200 0.69918900
15 -3.99235500 -0.89118800 -1.82790900 -0.53822200 0.04573000 0.93801100
16 -1.40591800 -0.00002500 -0.00000300 -0.00798600 -0.02836000 1.14978400
17 -1.17535800 0.00012800 -0.00002000 0.05560900 0.03892800 0.86426700
18 -4.52675100 -0.69057500 -1.12074400 -0.43382200 0.07827300 1.31804700
19 -1.74403800 0.00003300 -0.00000800 -0.02662600 -0.01282800 1.53365100
20 -1.36877100 0.00002500 0.00000200 0.02081800 0.04817500 0.30338500
21 -1.87480000 -0.93512500 0.99917400 2.00022900 0.52323300 0.75414300
22 -1.52345300 0.00003200 0.00003100 0.08365400 0.15258100 0.60551300
23 -1.59928500 0.00000400 0.00001600 0.03148800 -0.02916500 0.72724000
24 5.58312600 0.11572600 0.29499900 2.23698600 -0.06403800 3.11154600
25 0.19684700 -0.00000100 0.00000300 2.79340692 -0.00066464 -3.14143633
26 -5.21686476 -21.16729323 -0.42824361 1.97586200 1.15990900 1.84280300
27 6.21448500 0.00000600 0.00002000 -0.58785665 0.43426656 -1.90880491
28 11.94488500 -0.00002900 -0.00019400 -0.39874238 -0.32511243 -1.15635943
29 10.62016600 0.00000200 0.00001000 -1.88970597 -0.56956424 0.42350540
30 4.75115600 0.69437600 -0.83047300 -0.13177500 -0.10523900 1.30931800
31 1.68806500 -0.00002600 0.00000200 0.00013200 -0.02471200 1.43157800
32 1.33615100 -0.00005100 -0.00000900 0.00162500 -0.03868900 0.32920800
33 4.82051300 0.50934000 0.22486500 -0.17729900 0.05107200 1.64852700
34 1.82699600 0.00006600 0.00000800 -0.00186700 0.04038300 1.22708400
35 1.43657700 -0.00001000 0.00000700 0.01218200 -0.00892200 -0.09591600
36 3.99235300 0.89108700 1.82799400 -0.34472300 0.17445200 1.46465000
37 1.40591800 0.00002100 -0.00000700 -0.01645600 -0.02445100 1.46689000
38 1.17536900 -0.00013100 0.00000200 -0.02767100 0.12011300 -0.27268800
39 4.52675600 0.69046000 1.12084200 -0.19762200 0.19418700 1.75354700
40 1.74404100 -0.00003100 -0.00000200 -0.02317300 -0.01832700 1.31332100
41 1.36876300 -0.00003100 -0.00001700 -0.30583900 0.14860800 -0.53799100
42 1.74532500 0.96075400 -1.05080800 2.49883200 0.33095300 1.17695300
43 1.45054500 -0.06019000 0.09121800 0.05420100 0.16732000 0.41843800
44 1.59928100 -0.00000200 0.00000900 0.07646600 -0.03347200 1.23758300
45 5.51180600 -0.00000200 0.00000600 -0.66744800 0.00000000 0.00000000
46 0.19685000 0.00000300 -0.00000200 -0.34822500 0.00001500 -0.00000200
47 0.00000000 2.00000000 0.00000000 0.00000000 0.00000000 -1.57079600
48 -3.33884900 8.49800200 -2.72292100 0.00000000 0.00000000 -3.14156200
49 -2.07331896 31.75576457 -3.18255718 0.14221961 -0.05004661 -1.35312344
50 8.78724900 0.42903800 -4.69286800 0.21793700 1.03451400 1.57217400
51 3.02089300 0.12671100 -1.46232800 0.00000000 0.00000000 0.00000000
52 -0.63081700 -0.00336600 1.80821700 0.00000000 0.00000000 0.00000000
53 -0.00019500 0.00000000 0.15614900 0.00000000 0.00000000 0.00000000
54 12.89026300 1.09924600 0.34832700 0.00000000 0.00000000 0.00000000
55 0.03627200 0.00371900 2.20172900 0.00000000 0.00000000 0.00000000
56 -4.47961800 -2.28337400 -4.39486200 2.90953900 0.01384100 -1.88872600
time 3
0 -0.00000100 9.45008800 -27.50902600 0.00000000 0.00000000 0.00003100
1 -0.00000200 0.00000000 0.00000000 1.57074300 -1.56713700 -1.57074300
2 4.25546800 -0.33518300 -0.00000200 0.00000000 0.00000000 -0.12484800
3 7.43124800 1.49647700 0.00000200 0.00000000 0.00000000 0.24545000
4 5.27847900 0.16554100 0.00000100 0.00000000 0.00000000 0.04851100
5 2.66749618 -10.79886998 4.91566202 1.97586400 1.15990900 -1.29878600
6 -6.21448200 -0.00000700 -0.00002700 -2.87165132 -0.66264031 1.34966030
7 11.94488200 0.00000000 0.00000100 -0.10669502 -0.30766386 1.22600492
8 10.62018100 0.00000200 0.00000000 1.12674052 0.39621401 2.51263583
9 -4.75110600 -0.69449400 0.83057700 -0.28768500 0.16844900 0.45488600
10 -1.68806800 0.00004600 -0.00003200 0.01151400 -0.02189700 0.95484700
11 -1.33614000 0.00005700 -0.00001200 0.02407200 -0.01080900 0.97502800
12 -4.82049400 -0.50946000 -0.22475900 -0.33846200 -0.01336700 1.23585300
13 -1.82699200 -0.00006400 0.00000600 -0.00024500 0.04047200 1.26807400
14 -1.43657300 0.00000600 0.00000200 -0.05524000 -0.05469200 0.69918900
15 -3.99235500 -0.89118800 -1.82790900 -0.53822200 0.04573000 0.93801100
16 -1.40591800 -0.00002500 -0.00000300 -0.00798600 -0.02836000 1.14978400
17 -1.17535800 0.00012800 -0.00002000 0.05560900 0.03892800 0.86426700
18 -4.52675100 -0.69057500 -1.12074400 -0.43382200 0.07827300 1.31804700
19 -1.74403800 0.00003300 -0.00000800 -0.02662600 -0.01282800 1.53365100
20 -1.36877100 0.00002500 0.00000200 0.02081800 0.04817500 0.30338500
21 -1.87480000 -0.93512500 0.99917400 2.00022900 0.52323300 0.75414300
22 -1.52345300 0.00003200 0.00003100 0.08365400 0.15258100 0.60551300
23 -1.59928500 0.00000400 0.00001600 0.03148800 -0.02916500 0.72724000
24 5.58312600 0.11572600 0.29499900 2.23698600 -0.06403800 3.11154600
25 0.19684700 -0.00000100 0.00000300 2.79340692 -0.00066464 -3.14143633
26 -5.09347291 -20.94751820 -0.39137220 1.97586200 1.15990900 1.84280300
27 6.21448500 0.00000600 0.00002000 -0.62431889 0.45393302 -1.87289621
28 11.94488500 -0.00002900 -0.00019400 -0.34251124 -0.34816719 -1.23692755
29 10.62016600 0.00000200 0.00001000 -1.87191785 -0.58280726 0.43334520
30 4.75115600 0.69437600 -0.83047300 -0.13177500 -0.10523900 1.30931800
31 1.68806500 -0.00002600 0.00000200 0.00013200 -0.02471200 1.43157800
32 1.33615100 -0.00005100 -0.00000900 0.00162500 -0.03868900 0.32920800
33 4.82051300 0.50934000 0.22486500 -0.17729900 0.05107200 1.64852700
34 1.82699600 0.00006600 0.00000800 -0.00186700 0.04038300 1.22708400
35 1.43657700 -0.00001000 0.00000700 0.01218200 -0.00892200 -0.09591600
36 3.99235300 0.89108700 1.82799400 -0.34472300 0.17445200 1.46465000
37 1.40591800 0.00002100 -0.00000700 -0.01645600 -0.02445100 1.46689000
38 1.17536900 -0.00013100 0.00000200 -0.02767100 0.12011300 -0.27268800
39 4.52675600 0.69046000 1.12084200 -0.19762200 0.19418700 1.75354700
40 1.74404100 -0.00003100 -0.00000200 -0.02317300 -0.01832700 1.31332100
41 1.36876300 -0.00003100 -0.00001700 -0.30583900 0.14860800 -0.53799100
42 1.74532500 0.96075400 -1.05080800 2.49883200 0.33095300 1.17695300
43 1.45054500 -0.06019000 0.09121800 0.05420100 0.16732000 0.41843800
44 1.59928100 -0.00000200 0.00000900 0.07646600 -0.03347200 1.23758300
45 5.51180600 -0.00000200 0.00000600 -0.66744800 0.00000000 0.00000000
46 0.19685000 0.00000300 -0.00000200 -0.34822500 0.00001500 -0.00000200
47 0.00000000 2.00000000 0.00000000 0.00000000 0.00000000 -1.57079600
48 -3.33884900 8.49800200 -2.72292100 0.00000000 0.00000000 -3.14156200
49 -2.84373573 31.11393965 -2.91603195 0.17999360 -0.00969119 -1.28952370
50 8.78724900 0.42903800 -4.69286800 0.21793700 1.03451400 1.57217400
51 3.02089300 0.12671100 -1.46232800 0.00000000 0.00000000 0.00000000
52 -0.63081700 -0.00336600 1.80821700 0.00000000 0.00000000 0.00000000
53 -0.00019500 0.00000000 0.15614900 0.00000000 0.00000000 0.00000000
54 12.89026300 1.09924600 0.34832700 0.00000000 0.00000000 0.00000000
55 0.03627200 0.00371900 2.20172900 0.00000000 0.00000000 0.00000000
56 -4.47961800 -2.28337400 -4.39486200 2.90953900 0.01384100 -1.88872600
time 4
0 -0.00000100 9.45008800 -27.50902600 0.00000000 0.00000000 0.00003100
1 -0.00000200 0.00000000 0.00000000 1.57074300 -1.56713700 -1.57074300
2 4.25546800 -0.33518300 -0.00000200 0.00000000 0.00000000 -0.12484800
3 7.43124800 1.49647700 0.00000200 0.00000000 0.00000000 0.24545000
4 5.27847900 0.16554100 0.00000100 0.00000000 0.00000000 0.04851100
5 2.27758029 -11.46896394 5.70933934 1.97586400 1.15990900 -1.29878600
6 -6.21448200 -0.00000700 -0.00002700 -2.90350934 -0.67094285 1.31966386
7 11.94488200 0.00000000 0.00000100 -0.12890036 -0.30638322 1.29430974
8 10.62018100 0.00000200 0.00000000 1.15427221 0.40916428 2.52068632
9 -4.75110600 -0.69449400 0.83057700 -0.28768500 0.16844900 0.45488600
10 -1.68806800 0.00004600 -0.00003200 0.01151400 -0.02189700 0.95484700
11 -1.33614000 0.00005700 -0.00001200 0.02407200 -0.01080900 0.97502800
12 -4.82049400 -0.50946000 -0.22475900 -0.33846200 -0.01336700 1.23585300
13 -1.82699200 -0.00006400 0.00000600 -0.00024500 0.04047200 1.26807400
14 -1.43657300 0.00000600 0.00000200 -0.05524000 -0.05469200 0.69918900
15 -3.99235500 -0.89118800 -1.82790900 -0.53822200 0.04573000 0.93801100
16 -1.40591800 -0.00002500 -0.00000300 -0.00798600 -0.02836000 1.14978400
17 -1.17535800 0.00012800 -0.00002000 0.05560900 0.03892800 0.86426700
18 -4.52675100 -0.69057500 -1.12074400 -0.43382200 0.07827300 1.31804700
19 -1.74403800 0.00003300 -0.00000800 -0.02662600 -0.01282800 1.53365100
20 -1.36877100 0.00002500 0.00000200 0.02081800 0.04817500 0.30338500
21 -1.87480000 -0.93512500 0.99917400 2.00022900 0.52323300 0.75414300
22 -1.52345300 0.00003200 0.00003100 0.08365400 0.15258100 0.60551300
23 -1.59928500 0.00000400 0.00001600 0.03148800 -0.02916500 0.72724000
24 5.58312600 0.11572600 0.29499900 2.23698600 -0.06403800 3.11154600
25 0.19684700 -0.00000100 0.00000300 2.79340692 -0.00066464 -3.14143633
26 -4.93444801 -20.66427527 -0.34385340 1.97586200 1.15990900 1.84280300
27 6.21448500 0.00000600 0.00002000 -0.67443375 0.47539943 -1.83728356
28 11.94488500 -0.00002900 -0.00019400 -0.27478968 -0.37638079 -1.31560844
29 10.62016600 0.00000200 0.00001000 -1.84418980 -0.58616817 0.43083649
30 4.75115600 0.69437600 -0.83047300 -0.13177500 -0.10523900 1.30931800
31 1.68806500 -0.00002600 0.00000200 0.00013200 -0.02471200 1.43157800
32 1.33615100 -0.00005100 -0.00000900 0.00162500 -0.03868900 0.32920800
33 4.82051300 0.50934000 0.22486500 -0.17729900 0.05107200 1.64852700
34 1.82699600 0.00006600 0.00000800 -0.00186700 0.04038300 1.22708400
35 1.43657700 -0.00001000 0.00000700 0.01218200 -0.00892200 -0.09591600
36 3.99235300 0.89108700 1.82799400 -0.34472300 0.17445200 1.46465000
37 1.40591800 0.00002100 -0.00000700 -0.01645600 -0.02445100 1.46689000
38 1.17536900 -0.00013100 0.00000200 -0.02767100 0.12011300 -0.27268800
39 4.52675600 0.69046000 1.12084200 -0.19762200 0.19418700 1.75354700
40 1.74404100 -0.00003100 -0.00000200 -0.02317300 -0.01832700 1.31332100
41 1.36876300 -0.00003100 -0.00001700 -0.30583900 0.14860800 -0.53799100
42 1.74532500 0.96075400 -1.05080800 2.49883200 0.33095300 1.17695300
43 1.45054500 -0.06019000 0.09121800 0.05420100 0.16732000 0.41843800
44 1.59928100 -0.00000200 0.00000900 0.07646600 -0.03347200 1.23758300
45 5.51180600 -0.00000200 0.00000600 -0.66744800 0.00000000 0.00000000
46 0.19685000 0.00000300 -0.00000200 -0.34822500 0.00001500 -0.00000200
47 0.00000000 2.00000000 0.00000000 0.00000000 0.00000000 -1.57079600
48 -3.33884900 8.49800200 -2.72292100 0.00000000 0.00000000 -3.14156200
49 -3.76886857 30.40789133 -2.66362238 0.22524113 0.03508258 -1.20724369
50 8.78724900 0.42903800 -4.69286800 0.21793700 1.03451400 1.57217400
51 3.02089300 0.12671100 -1.46232800 0.00000000 0.00000000 0.00000000
52 -0.63081700 -0.00336600 1.80821700 0.00000000 0.00000000 0.00000000
53 -0.00019500 0.00000000 0.15614900 0.00000000 0.00000000 0.00000000
54 12.89026300 1.09924600 0.34832700 0.00000000 0.00000000 0.00000000
55 0.03627200 0.00371900 2.20172900 0.00000000 0.00000000 0.00000000
56 -4.47961800 -2.28337400 -4.39486200 2.90953900 0.01384100 -1.88872600
time 5
0 -0.00000100 9.45008800 -27.50902600 0.00000000 0.00000000 0.00003100
1 -0.00000200 0.00000000 0.00000000 1.57074300 -1.56713700 -1.57074300
2 4.25546800 -0.33518300 -0.00000200 0.00000000 0.00000000 -0.12484800
3 7.43124800 1.49647700 0.00000200 0.00000000 0.00000000 0.24545000
4 5.27847900 0.16554100 0.00000100 0.00000000 0.00000000 0.04851100
5 1.83509304 -12.22940617 6.61002927 1.97586400 1.15990900 -1.29878600
6 -6.21448200 -0.00000700 -0.00002700 -2.93394273 -0.66195817 1.26486194
7 11.94488200 0.00000000 0.00000100 -0.13995811 -0.30283995 1.32872858
8 10.62018100 0.00000200 0.00000000 1.16719751 0.41790227 2.53081696
9 -4.75110600 -0.69449400 0.83057700 -0.28768500 0.16844900 0.45488600
10 -1.68806800 0.00004600 -0.00003200 0.01151400 -0.02189700 0.95484700
11 -1.33614000 0.00005700 -0.00001200 0.02407200 -0.01080900 0.97502800
12 -4.82049400 -0.50946000 -0.22475900 -0.33846200 -0.01336700 1.23585300
13 -1.82699200 -0.00006400 0.00000600 -0.00024500 0.04047200 1.26807400
14 -1.43657300 0.00000600 0.00000200 -0.05524000 -0.05469200 0.69918900
15 -3.99235500 -0.89118800 -1.82790900 -0.53822200 0.04573000 0.93801100
16 -1.40591800 -0.00002500 -0.00000300 -0.00798600 -0.02836000 1.14978400
17 -1.17535800 0.00012800 -0.00002000 0.05560900 0.03892800 0.86426700
18 -4.52675100 -0.69057500 -1.12074400 -0.43382200 0.07827300 1.31804700
19 -1.74403800 0.00003300 -0.00000800 -0.02662600 -0.01282800 1.53365100
20 -1.36877100 0.00002500 0.00000200 0.02081800 0.04817500 0.30338500
21 -1.87480000 -0.93512500 0.99917400 2.00022900 0.52323300 0.75414300
22 -1.52345300 0.00003200 0.00003100 0.08365400 0.15258100 0.60551300
23 -1.59928500 0.00000400 0.00001600 0.03148800 -0.02916500 0.72724000
24 5.58312600 0.11572600 0.29499900 2.23698600 -0.06403800 3.11154600
25 0.19684700 -0.00000100 0.00000300 2.79340692 -0.00066464 -3.14143633
26 -4.74770911 -20.33167399 -0.28805355 1.97586200 1.15990900 1.84280300
27 6.21448500 0.00000600 0.00002000 -0.73930291 0.49780314 -1.80908698
28 11.94488500 -0.00002900 -0.00019400 -0.20049156 -0.40900635 -1.38051607
29 10.62016600 0.00000200 0.00001000 -1.80782053 -0.57149364 0.41603903
30 4.75115600 0.69437600 -0.83047300 -0.13177500 -0.10523900 1.30931800
31 1.68806500 -0.00002600 0.00000200 0.00013200 -0.02471200 1.43157800
32 1.33615100 -0.00005100 -0.00000900 0.00162500 -0.03868900 0.32920800
33 4.82051300 0.50934000 0.22486500 -0.17729900 0.05107200 1.64852700
34 1.82699600 0.00006600 0.00000800 -0.00186700 0.04038300 1.22708400
35 1.43657700 -0.00001000 0.00000700 0.01218200 -0.00892200 -0.09591600
36 3.99235300 0.89108700 1.82799400 -0.34472300 0.17445200 1.46465000
37 1.40591800 0.00002100 -0.00000700 -0.01645600 -0.02445100 1.46689000
38 1.17536900 -0.00013100 0.00000200 -0.02767100 0.12011300 -0.27268800
39 4.52675600 0.69046000 1.12084200 -0.19762200 0.19418700 1.75354700
40 1.74404100 -0.00003100 -0.00000200 -0.02317300 -0.01832700 1.31332100
41 1.36876300 -0.00003100 -0.00001700 -0.30583900 0.14860800 -0.53799100
42 1.74532500 0.96075400 -1.05080800 2.49883200 0.33095300 1.17695300
43 1.45054500 -0.06019000 0.09121800 0.05420100 0.16732000 0.41843800
44 1.59928100 -0.00000200 0.00000900 0.07646600 -0.03347200 1.23758300
45 5.51180600 -0.00000200 0.00000600 -0.66744800 0.00000000 0.00000000
46 0.19685000 0.00000300 -0.00000200 -0.34822500 0.00001500 -0.00000200
47 0.00000000 2.00000000 0.00000000 0.00000000 0.00000000 -1.57079600
48 -3.33884900 8.49800200 -2.72292100 0.00000000 0.00000000 -3.14156200
49 -4.77519953 29.74868305 -2.47062991 0.27047641 0.07317381 -1.11356028
50 8.78724900 0.42903800 -4.69286800 0.21793700 1.03451400 1.57217400
51 3.02089300 0.12671100 -1.46232800 0.00000000 0.00000000 0.00000000
52 -0.63081700 -0.00336600 1.80821700 0.00000000 0.00000000 0.00000000
53 -0.00019500 0.00000000 0.15614900 0.00000000 0.00000000 0.00000000
54 12.89026300 1.09924600 0.34832700 0.00000000 0.00000000 0.00000000
55 0.03627200 0.00371900 2.20172900 0.00000000 0.00000000 0.00000000
56 -4.47961800 -2.28337400 -4.39486200 2.90953900 0.01384100 -1.88872600
time 6
0 -0.00000100 9.45008800 -27.50902600 0.00000000 0.00000000 0.00003100
1 -0.00000200 0.00000000 0.00000000 1.57074300 -1.56713700 -1.57074300
2 4.25546800 -0.33518300 -0.00000200 0.00000000 0.00000000 -0.12484800
3 7.43124800 1.49647700 0.00000200 0.00000000 0.00000000 0.24545000
4 5.27847900 0.16554100 0.00000100 0.00000000 0.00000000 0.04851100
5 1.36631857 -13.03502315 7.56422457 1.97586400 1.15990900 -1.29878600
6 -6.21448200 -0.00000700 -0.00002700 -2.95813994 -0.63594855 1.18651677
7 11.94488200 0.00000000 0.00000100 -0.13605965 -0.29562999 1.31875911
8 10.62018100 0.00000200 0.00000000 1.15632371 0.42426530 2.54227230
9 -4.75110600 -0.69449400 0.83057700 -0.28768500 0.16844900 0.45488600
10 -1.68806800 0.00004600 -0.00003200 0.01151400 -0.02189700 0.95484700
11 -1.33614000 0.00005700 -0.00001200 0.02407200 -0.01080900 0.97502800
12 -4.82049400 -0.50946000 -0.22475900 -0.33846200 -0.01336700 1.23585300
13 -1.82699200 -0.00006400 0.00000600 -0.00024500 0.04047200 1.26807400
14 -1.43657300 0.00000600 0.00000200 -0.05524000 -0.05469200 0.69918900
15 -3.99235500 -0.89118800 -1.82790900 -0.53822200 0.04573000 0.93801100
16 -1.40591800 -0.00002500 -0.00000300 -0.00798600 -0.02836000 1.14978400
17 -1.17535800 0.00012800 -0.00002000 0.05560900 0.03892800 0.86426700
18 -4.52675100 -0.69057500 -1.12074400 -0.43382200 0.07827300 1.31804700
19 -1.74403800 0.00003300 -0.00000800 -0.02662600 -0.01282800 1.53365100
20 -1.36877100 0.00002500 0.00000200 0.02081800 0.04817500 0.30338500
21 -1.87480000 -0.93512500 0.99917400 2.00022900 0.52323300 0.75414300
22 -1.52345300 0.00003200 0.00003100 0.08365400 0.15258100 0.60551300
23 -1.59928500 0.00000400 0.00001600 0.03148800 -0.02916500 0.72724000
24 5.58312600 0.11572600 0.29499900 2.23698600 -0.06403800 3.11154600
25 0.19684700 -0.00000100 0.00000300 2.79340692 -0.00066464 -3.14143633
26 -4.54117594 -19.96381338 -0.22633904 1.97586200 1.15990900 1.84280300
27 6.21448500 0.00000600 0.00002000 -0.81575949 0.51925990 -1.79202819
28 11.94488500 -0.00002900 -0.00019400 -0.12503429 -0.44441097 -1.41987731
29 10.62016600 0.00000200 0.00001000 -1.76835371 -0.53539154 0.38704424
30 4.75115600 0.69437600 -0.83047300 -0.13177500 -0.10523900 1.30931800
31 1.68806500 -0.00002600 0.00000200 0.00013200 -0.02471200 1.43157800
32 1.33615100 -0.00005100 -0.00000900 0.00162500 -0.03868900 0.32920800
33 4.82051300 0.50934000 0.22486500 -0.17729900 0.05107200 1.64852700
34 1.82699600 0.00006600 0.00000800 -0.00186700 0.04038300 1.22708400
35 1.43657700 -0.00001000 0.00000700 0.01218200 -0.00892200 -0.09591600
36 3.99235300 0.89108700 1.82799400 -0.34472300 0.17445200 1.46465000
37 1.40591800 0.00002100 -0.00000700 -0.01645600 -0.02445100 1.46689000
38 1.17536900 -0.00013100 0.00000200 -0.02767100 0.12011300 -0.27268800
39 4.52675600 0.69046000 1.12084200 -0.19762200 0.19418700 1.75354700
40 1.74404100 -0.00003100 -0.00000200 -0.02317300 -0.01832700 1.31332100
41 1.36876300 -0.00003100 -0.00001700 -0.30583900 0.14860800 -0.53799100
42 1.74532500 0.96075400 -1.05080800 2.49883200 0.33095300 1.17695300
43 1.45054500 -0.06019000 0.09121800 0.05420100 0.16732000 0.41843800
44 1.59928100 -0.00000200 0.00000900 0.07646600 -0.03347200 1.23758300
45 5.51180600 -0.00000200 0.00000600 -0.66744800 0.00000000 0.00000000
46 0.19685000 0.00000300 -0.00000200 -0.34822500 0.00001500 -0.00000200
47 0.00000000 2.00000000 0.00000000 0.00000000 0.00000000 -1.57079600
48 -3.33884900 8.49800200 -2.72292100 0.00000000 0.00000000 -3.14156200
49 -5.78282767 29.24737143 -2.40051605 0.30640701 0.09914939 -1.01741359
50 8.78724900 0.42903800 -4.69286800 0.21793700 1.03451400 1.57217400
51 3.02089300 0.12671100 -1.46232800 0.00000000 0.00000000 0.00000000
52 -0.63081700 -0.00336600 1.80821700 0.00000000 0.00000000 0.00000000
53 -0.00019500 0.00000000 0.15614900 0.00000000 0.00000000 0.00000000
54 12.89026300 1.09924600 0.34832700 0.00000000 0.00000000 0.00000000
55 0.03627200 0.00371900 2.20172900 0.00000000 0.00000000 0.00000000
56 -4.47961800 -2.28337400 -4.39486200 2.90953900 0.01384100 -1.88872600
time 7
0 -0.00000100 9.45008800 -27.50902600 0.00000000 0.00000000 0.00003100
1 -0.00000200 0.00000000 0.00000000 1.57074300 -1.56713700 -1.57074300
2 4.25546800 -0.33518300 -0.00000200 0.00000000 0.00000000 -0.12484800
3 7.43124800 1.49647700 0.00000200 0.00000000 0.00000000 0.24545000
4 5.27847900 0.16554100 0.00000100 0.00000000 0.00000000 0.04851100
5 0.89754410 -13.84064261 8.51842173 1.97586400 1.15990900 -1.29878600
6 -6.21448200 -0.00000700 -0.00002700 -2.97434796 -0.59664621 1.09323338
7 11.94488200 0.00000000 0.00000100 -0.11712213 -0.28381275 1.26440545
8 10.62018100 0.00000200 0.00000000 1.11550171 0.42625584 2.55426350
9 -4.75110600 -0.69449400 0.83057700 -0.28768500 0.16844900 0.45488600
10 -1.68806800 0.00004600 -0.00003200 0.01151400 -0.02189700 0.95484700
11 -1.33614000 0.00005700 -0.00001200 0.02407200 -0.01080900 0.97502800
12 -4.82049400 -0.50946000 -0.22475900 -0.33846200 -0.01336700 1.23585300
13 -1.82699200 -0.00006400 0.00000600 -0.00024500 0.04047200 1.26807400
14 -1.43657300 0.00000600 0.00000200 -0.05524000 -0.05469200 0.69918900
15 -3.99235500 -0.89118800 -1.82790900 -0.53822200 0.04573000 0.93801100
16 -1.40591800 -0.00002500 -0.00000300 -0.00798600 -0.02836000 1.14978400
17 -1.17535800 0.00012800 -0.00002000 0.05560900 0.03892800 0.86426700
18 -4.52675100 -0.69057500 -1.12074400 -0.43382200 0.07827300 1.31804700
19 -1.74403800 0.00003300 -0.00000800 -0.02662600 -0.01282800 1.53365100
20 -1.36877100 0.00002500 0.00000200 0.02081800 0.04817500 0.30338500
21 -1.87480000 -0.93512500 0.99917400 2.00022900 0.52323300 0.75414300
22 -1.52345300 0.00003200 0.00003100 0.08365400 0.15258100 0.60551300
23 -1.59928500 0.00000400 0.00001600 0.03148800 -0.02916500 0.72724000
24 5.58312600 0.11572600 0.29499900 2.23698600 -0.06403800 3.11154600
25 0.19684700 -0.00000100 0.00000300 2.79340692 -0.00066464 -3.14143633
26 -4.32276445 -19.57479680 -0.16107435 1.97586200 1.15990900 1.84280300
27 6.21448500 0.00000600 0.00002000 -0.89327527 0.53390152 -1.78391473
28 11.94488500 -0.00002900 -0.00019400 -0.05414940 -0.47713284 -1.42237239
29 10.62016600 0.00000200 0.00001000 -1.73907082 -0.48440705 0.34996051
30 4.75115600 0.69437600 -0.83047300 -0.13177500 -0.10523900 1.30931800
31 1.68806500 -0.00002600 0.00000200 0.00013200 -0.02471200 1.43157800
32 1.33615100 -0.00005100 -0.00000900 0.00162500 -0.03868900 0.32920800
33 4.82051300 0.50934000 0.22486500 -0.17729900 0.05107200 1.64852700
34 1.82699600 0.00006600 0.00000800 -0.00186700 0.04038300 1.22708400
35 1.43657700 -0.00001000 0.00000700 0.01218200 -0.00892200 -0.09591600
36 3.99235300 0.89108700 1.82799400 -0.34472300 0.17445200 1.46465000
37 1.40591800 0.00002100 -0.00000700 -0.01645600 -0.02445100 1.46689000
38 1.17536900 -0.00013100 0.00000200 -0.02767100 0.12011300 -0.27268800
39 4.52675600 0.69046000 1.12084200 -0.19762200 0.19418700 1.75354700
40 1.74404100 -0.00003100 -0.00000200 -0.02317300 -0.01832700 1.31332100
41 1.36876300 -0.00003100 -0.00001700 -0.30583900 0.14860800 -0.53799100
42 1.74532500 0.96075400 -1.05080800 2.49883200 0.33095300 1.17695300
43 1.45054500 -0.06019000 0.09121800 0.05420100 0.16732000 0.41843800
44 1.59928100 -0.00000200 0.00000900 0.07646600 -0.03347200 1.23758300
45 5.51180600 -0.00000200 0.00000600 -0.66744800 0.00000000 0.00000000
46 0.19685000 0.00000300 -0.00000200 -0.34822500 0.00001500 -0.00000200
47 0.00000000 2.00000000 0.00000000 0.00000000 0.00000000 -1.57079600
48 -3.33884900 8.49800200 -2.72292100 0.00000000 0.00000000 -3.14156200
49 -6.68656991 29.01502752 -2.45848886 0.32243864 0.10980862 -0.92831977
50 8.78724900 0.42903800 -4.69286800 0.21793700 1.03451400 1.57217400
51 3.02089300 0.12671100 -1.46232800 0.00000000 0.00000000 0.00000000
52 -0.63081700 -0.00336600 1.80821700 0.00000000 0.00000000 0.00000000
53 -0.00019500 0.00000000 0.15614900 0.00000000 0.00000000 0.00000000
54 12.89026300 1.09924600 0.34832700 0.00000000 0.00000000 0.00000000
55 0.03627200 0.00371900 2.20172900 0.00000000 0.00000000 0.00000000
56 -4.47961800 -2.28337400 -4.39486200 2.90953900 0.01384100 -1.88872600
time 8
0 -0.00000100 9.45008800 -27.50902600 0.00000000 0.00000000 0.00003100
1 -0.00000200 0.00000000 0.00000000 1.57074300 -1.56713700 -1.57074300
2 4.25546800 -0.33518300 -0.00000200 0.00000000 0.00000000 -0.12484800
3 7.43124800 1.49647700 0.00000200 0.00000000 0.00000000 0.24545000
4 5.27847900 0.16554100 0.00000100 0.00000000 0.00000000 0.04851100
5 0.45505624 -14.60108546 9.41911352 1.97586400 1.15990900 -1.29878600
6 -6.21448200 -0.00000700 -0.00002700 -2.98758146 -0.55008746 0.99593457
7 11.94488200 0.00000000 0.00000100 -0.09344355 -0.27046178 1.19464167
8 10.62018100 0.00000200 0.00000000 1.05252340 0.41402222 2.54185906
9 -4.75110600 -0.69449400 0.83057700 -0.28768500 0.16844900 0.45488600
10 -1.68806800 0.00004600 -0.00003200 0.01151400 -0.02189700 0.95484700
11 -1.33614000 0.00005700 -0.00001200 0.02407200 -0.01080900 0.97502800
12 -4.82049400 -0.50946000 -0.22475900 -0.33846200 -0.01336700 1.23585300
13 -1.82699200 -0.00006400 0.00000600 -0.00024500 0.04047200 1.26807400
14 -1.43657300 0.00000600 0.00000200 -0.05524000 -0.05469200 0.69918900
15 -3.99235500 -0.89118800 -1.82790900 -0.53822200 0.04573000 0.93801100
16 -1.40591800 -0.00002500 -0.00000300 -0.00798600 -0.02836000 1.14978400
17 -1.17535800 0.00012800 -0.00002000 0.05560900 0.03892800 0.86426700
18 -4.52675100 -0.69057500 -1.12074400 -0.43382200 0.07827300 1.31804700
19 -1.74403800 0.00003300 -0.00000800 -0.02662600 -0.01282800 1.53365100
20 -1.36877100 0.00002500 0.00000200 0.02081800 0.04817500 0.30338500
21 -1.87480000 -0.93512500 0.99917400 2.00022900 0.52323300 0.75414300
22 -1.52345300 0.00003200 0.00003100 0.08365400 0.15258100 0.60551300
23 -1.59928500 0.00000400 0.00001600 0.03148800 -0.02916500 0.72724000
24 5.58312600 0.11572562 0.29499938 2.23698600 -0.06403800 3.11154600
25 0.19684700 -0.00000100 0.00000300 2.79340692 -0.00066464 -3.14143633
26 -4.10039436 -19.17872761 -0.09462773 1.97586200 1.15990900 1.84280300
27 6.21448500 0.00000600 0.00002000 -0.97020094 0.54650041 -1.78287386
28 11.94488500 -0.00002900 -0.00019400 0.01531899 -0.50211237 -1.40440173
29 10.62016600 0.00000200 0.00001000 -1.73040379 -0.42854775 0.32541620
30 4.75115600 0.69437600 -0.83047300 -0.13177500 -0.10523900 1.30931800
31 1.68806500 -0.00002600 0.00000200 0.00013200 -0.02471200 1.43157800
32 1.33615100 -0.00005100 -0.00000900 0.00162500 -0.03868900 0.32920800
33 4.82051300 0.50934000 0.22486500 -0.17729900 0.05107200 1.64852700
34 1.82699600 0.00006600 0.00000800 -0.00186700 0.04038300 1.22708400
35 1.43657700 -0.00001000 0.00000700 0.01218200 -0.00892200 -0.09591600
36 3.99235300 0.89108700 1.82799400 -0.34472300 0.17445200 1.46465000
37 1.40591800 0.00002100 -0.00000700 -0.01645600 -0.02445100 1.46689000
38 1.17536900 -0.00013100 0.00000200 -0.02767100 0.12011300 -0.27268800
39 4.52675600 0.69046000 1.12084200 -0.19762200 0.19418700 1.75354700
40 1.74404100 -0.00003100 -0.00000200 -0.02317300 -0.01832700 1.31332100
41 1.36876300 -0.00003100 -0.00001700 -0.30583900 0.14860800 -0.53799100
42 1.74532652 0.96075400 -1.05080876 2.49883200 0.33095300 1.17695300
43 1.45054500 -0.06018924 0.09121800 0.05420100 0.16732000 0.41843800
44 1.59928100 -0.00000200 0.00000900 0.07646600 -0.03347200 1.23758300
45 5.51180600 -0.00000200 0.00000600 -0.66744800 0.00000000 0.00000000
46 0.19685000 0.00000300 -0.00000200 -0.34822500 0.00001500 -0.00000200
47 0.00000000 2.00000000 0.00000000 0.00000000 0.00000000 -1.57079600
48 -3.33884900 8.49800200 -2.72292100 0.00000000 0.00000000 -3.14156200
49 -7.47929232 28.96109511 -2.58782842 0.31968492 0.09751291 -0.85712772
50 8.78724824 0.42903648 -4.69286800 0.21793700 1.03451400 1.57217400
51 3.02089300 0.12671100 -1.46232800 0.00000000 0.00000000 0.00000000
52 -0.63081700 -0.00336600 1.80821700 0.00000000 0.00000000 0.00000000
53 -0.00019500 0.00000000 0.15614900 0.00000000 0.00000000 0.00000000
54 12.89026224 1.09924600 0.34832700 0.00000000 0.00000000 0.00000000
55 0.03627200 0.00371900 2.20172900 0.00000000 0.00000000 0.00000000
56 -4.47961800 -2.28337400 -4.39486200 2.90953900 0.01384100 -1.88872600
time 9
0 -0.00000100 9.45008800 -27.50902600 0.00000000 0.00000000 0.00003100
1 -0.00000200 0.00000000 0.00000000 1.57074300 -1.56713700 -1.57074300
2 4.25546800 -0.33518300 -0.00000200 0.00000000 0.00000000 -0.12484800
3 7.43124800 1.49647700 0.00000200 0.00000000 0.00000000 0.24545000
4 5.27847900 0.16554100 0.00000100 0.00000000 0.00000000 0.04851100
5 0.06514220 -15.27117880 10.21278835 1.97586400 1.15990900 -1.29878600
6 -6.21448200 -0.00000700 -0.00002700 -3.00577080 -0.50638366 0.91386945
7 11.94488200 0.00000000 0.00000100 -0.07187369 -0.25684814 1.13039456
8 10.62018100 0.00000200 0.00000000 0.99753194 0.39622648 2.52616639
9 -4.75110600 -0.69449400 0.83057700 -0.28768500 0.16844900 0.45488600
10 -1.68806800 0.00004600 -0.00003200 0.01151400 -0.02189700 0.95484700
11 -1.33614000 0.00005700 -0.00001200 0.02407200 -0.01080900 0.97502800
12 -4.82049400 -0.50946000 -0.22475900 -0.33846200 -0.01336700 1.23585300
13 -1.82699200 -0.00006400 0.00000600 -0.00024500 0.04047200 1.26807400
14 -1.43657300 0.00000600 0.00000200 -0.05524000 -0.05469200 0.69918900
15 -3.99235500 -0.89118800 -1.82790900 -0.53822200 0.04573000 0.93801100
16 -1.40591800 -0.00002500 -0.00000300 -0.00798600 -0.02836000 1.14978400
17 -1.17535800 0.00012800 -0.00002000 0.05560900 0.03892800 0.86426700
18 -4.52675100 -0.69057500 -1.12074400 -0.43382200 0.07827300 1.31804700
19 -1.74403800 0.00003300 -0.00000800 -0.02662600 -0.01282800 1.53365100
20 -1.36877100 0.00002500 0.00000200 0.02081800 0.04817500 0.30338500
21 -1.87480000 -0.93512500 0.99917400 2.00022900 0.52323300 0.75414300
22 -1.52345300 0.00003200 0.00003100 0.08365400 0.15258100 0.60551300
23 -1.59928500 0.00000400 0.00001600 0.03148800 -0.02916500 0.72724000
24 5.58312600 0.11572562 0.29499938 2.23698600 -0.06403800 3.11154600
25 0.19684700 -0.00000100 0.00000300 2.79340692 -0.00066464 -3.14143633
26 -3.88198349 -18.78971290 -0.02936367 1.97586200 1.15990900 1.84280300
27 6.21448500 0.00000600 0.00002000 -1.04571209 0.55987550 -1.79320009
28 11.94488500 -0.00002900 -0.00019400 0.08555073 -0.52048070 -1.37777959
29 10.62016600 0.00000200 0.00001000 -1.74588182 -0.38332832 0.29996225
30 4.75115600 0.69437600 -0.83047300 -0.13177500 -0.10523900 1.30931800
31 1.68806500 -0.00002600 0.00000200 0.00013200 -0.02471200 1.43157800
32 1.33615100 -0.00005100 -0.00000900 0.00162500 -0.03868900 0.32920800
33 4.82051300 0.50934000 0.22486500 -0.17729900 0.05107200 1.64852700
34 1.82699600 0.00006600 0.00000800 -0.00186700 0.04038300 1.22708400
35 1.43657700 -0.00001000 0.00000700 0.01218200 -0.00892200 -0.09591600
36 3.99235300 0.89108700 1.82799400 -0.34472300 0.17445200 1.46465000
37 1.40591800 0.00002100 -0.00000700 -0.01645600 -0.02445100 1.46689000
38 1.17536900 -0.00013100 0.00000200 -0.02767100 0.12011300 -0.27268800
39 4.52675600 0.69046000 1.12084200 -0.19762200 0.19418700 1.75354700
40 1.74404100 -0.00003100 -0.00000200 -0.02317300 -0.01832700 1.31332100
41 1.36876300 -0.00003100 -0.00001700 -0.30583900 0.14860800 -0.53799100
42 1.74532652 0.96075400 -1.05080876 2.49883200 0.33095300 1.17695300
43 1.45054500 -0.06018924 0.09121800 0.05420100 0.16732000 0.41843800
44 1.59928100 -0.00000200 0.00000900 0.07646600 -0.03347200 1.23758300
45 5.51180600 -0.00000200 0.00000600 -0.66744800 0.00000000 0.00000000
46 0.19685000 0.00000300 -0.00000200 -0.34822500 0.00001500 -0.00000200
47 0.00000000 2.00000000 0.00000000 0.00000000 0.00000000 -1.57079600
48 -3.33884900 8.49800200 -2.72292100 0.00000000 0.00000000 -3.14156200
49 -8.10632285 28.91978613 -2.79698515 0.32187363 0.07712479 -0.80238308
50 8.78724824 0.42903648 -4.69286800 0.21793700 1.03451400 1.57217400
51 3.02089300 0.12671100 -1.46232800 0.00000000 0.00000000 0.00000000
52 -0.63081700 -0.00336600 1.80821700 0.00000000 0.00000000 0.00000000
53 -0.00019500 0.00000000 0.15614900 0.00000000 0.00000000 0.00000000
54 12.89026224 1.09924600 0.34832700 0.00000000 0.00000000 0.00000000
55 0.03627200 0.00371900 2.20172900 0.00000000 0.00000000 0.00000000
56 -4.47961800 -2.28337400 -4.39486200 2.90953900 0.01384100 -1.88872600
time 10
0 -0.00000100 9.45008800 -27.50902600 0.00000000 0.00000000 0.00003100
1 -0.00000200 0.00000000 0.00000000 1.57074300 -1.56713700 -1.57074300
2 4.25546800 -0.33518300 -0.00000200 0.00000000 0.00000000 -0.12484800
3 7.43124800 1.49647700 0.00000200 0.00000000 0.00000000 0.24545000
4 5.27847900 0.16554100 0.00000100 0.00000000 0.00000000 0.04851100
5 -0.24591326 -15.80574726 10.84594583 1.97586400 1.15990900 -1.29878600
6 -6.21448200 -0.00000700 -0.00002700 -3.02949619 -0.47729339 0.87641148
7 11.94488200 0.00000000 0.00000100 -0.06115850 -0.24471132 1.10077300
8 10.62018100 0.00000200 0.00000000 0.96426829 0.38297994 2.52708270
9 -4.75110600 -0.69449400 0.83057700 -0.28768500 0.16844900 0.45488600
10 -1.68806800 0.00004600 -0.00003200 0.01151400 -0.02189700 0.95484700
11 -1.33614000 0.00005700 -0.00001200 0.02407200 -0.01080900 0.97502800
12 -4.82049400 -0.50946000 -0.22475900 -0.33846200 -0.01336700 1.23585300
13 -1.82699200 -0.00006400 0.00000600 -0.00024500 0.04047200 1.26807400
14 -1.43657300 0.00000600 0.00000200 -0.05524000 -0.05469200 0.69918900
15 -3.99235500 -0.89118800 -1.82790900 -0.53822200 0.04573000 0.93801100
16 -1.40591800 -0.00002500 -0.00000300 -0.00798600 -0.02836000 1.14978400
17 -1.17535800 0.00012800 -0.00002000 0.05560900 0.03892800 0.86426700
18 -4.52675100 -0.69057500 -1.12074400 -0.43382200 0.07827300 1.31804700
19 -1.74403800 0.00003300 -0.00000800 -0.02662600 -0.01282800 1.53365100
20 -1.36877100 0.00002500 0.00000200 0.02081800 0.04817500 0.30338500
21 -1.87480000 -0.93512500 0.99917400 2.00022900 0.52323300 0.75414300
22 -1.52345300 0.00003200 0.00003100 0.08365400 0.15258100 0.60551300
23 -1.59928500 0.00000400 0.00001600 0.03148800 -0.02916500 0.72724000
24 5.58312600 0.11572562 0.29499938 2.23698600 -0.06403800 3.11154600
25 0.19684700 -0.00000100 0.00000300 2.79340692 -0.00066464 -3.14143633
26 -3.67544908 -18.42185043 0.03235085 1.97586200 1.15990900 1.84280300
27 6.21448500 0.00000600 0.00002000 -1.09703324 0.56923490 -1.81215971
28 11.94488500 -0.00002900 -0.00019400 0.15469307 -0.52830837 -1.34356442
29 10.62016600 0.00000200 0.00001000 -1.78981594 -0.37234683 0.26928343
30 4.75115600 0.69437600 -0.83047300 -0.13177500 -0.10523900 1.30931800
31 1.68806500 -0.00002600 0.00000200 0.00013200 -0.02471200 1.43157800
32 1.33615100 -0.00005100 -0.00000900 0.00162500 -0.03868900 0.32920800
33 4.82051300 0.50934000 0.22486500 -0.17729900 0.05107200 1.64852700
34 1.82699600 0.00006600 0.00000800 -0.00186700 0.04038300 1.22708400
35 1.43657700 -0.00001000 0.00000700 0.01218200 -0.00892200 -0.09591600
36 3.99235300 0.89108700 1.82799400 -0.34472300 0.17445200 1.46465000
37 1.40591800 0.00002100 -0.00000700 -0.01645600 -0.02445100 1.46689000
38 1.17536900 -0.00013100 0.00000200 -0.02767100 0.12011300 -0.27268800
39 4.52675600 0.69046000 1.12084200 -0.19762200 0.19418700 1.75354700
40 1.74404100 -0.00003100 -0.00000200 -0.02317300 -0.01832700 1.31332100
41 1.36876300 -0.00003100 -0.00001700 -0.30583900 0.14860800 -0.53799100
42 1.74532652 0.96075400 -1.05080876 2.49883200 0.33095300 1.17695300
43 1.45054500 -0.06018924 0.09121800 0.05420100 0.16732000 0.41843800
44 1.59928100 -0.00000200 0.00000900 0.07646600 -0.03347200 1.23758300
45 5.51180600 -0.00000200 0.00000600 -0.66744800 0.00000000 0.00000000
46 0.19685000 0.00000300 -0.00000200 -0.34822500 0.00001500 -0.00000200
47 0.00000000 2.00000000 0.00000000 0.00000000 0.00000000 -1.57079600
48 -3.33884900 8.49800200 -2.72292100 0.00000000 0.00000000 -3.14156200
49 -8.28399695 28.88941938 -3.02236722 0.33421138 0.06709766 -0.75935805
50 8.78724824 0.42903648 -4.69286800 0.21793700 1.03451400 1.57217400
51 3.02089300 0.12671100 -1.46232800 0.00000000 0.00000000 0.00000000
52 -0.63081700 -0.00336600 1.80821700 0.00000000 0.00000000 0.00000000
53 -0.00019500 0.00000000 0.15614900 0.00000000 0.00000000 0.00000000
54 12.89026224 1.09924600 0.34832700 0.00000000 0.00000000 0.00000000
55 0.03627200 0.00371900 2.20172900 0.00000000 0.00000000 0.00000000
56 -4.47961800 -2.28337400 -4.39486200 2.90953900 0.01384100 -1.88872600
time 11
0 -0.00000100 9.45008800 -27.50902600 0.00000000 0.00000000 0.00003100
1 -0.00000200 0.00000000 0.00000000 1.57074300 -1.56713700 -1.57074300
2 4.25546800 -0.33518300 -0.00000200 0.00000000 0.00000000 -0.12484800
3 7.43124800 1.49647700 0.00000200 0.00000000 0.00000000 0.24545000
4 5.27847900 0.16554100 0.00000100 0.00000000 0.00000000 0.04851100
5 -0.45182355 -16.15961731 11.26507994 1.97586400 1.15990900 -1.29878600
6 -6.21448200 -0.00000700 -0.00002700 -3.04856613 -0.46046083 0.87134411
7 11.94488200 0.00000000 0.00000100 -0.06012478 -0.23781138 1.10251073
8 10.62018100 0.00000200 0.00000000 0.95141766 0.37060153 2.53283833
9 -4.75110600 -0.69449400 0.83057700 -0.28768500 0.16844900 0.45488600
10 -1.68806800 0.00004600 -0.00003200 0.01151400 -0.02189700 0.95484700
11 -1.33614000 0.00005700 -0.00001200 0.02407200 -0.01080900 0.97502800
12 -4.82049400 -0.50946000 -0.22475900 -0.33846200 -0.01336700 1.23585300
13 -1.82699200 -0.00006400 0.00000600 -0.00024500 0.04047200 1.26807400
14 -1.43657300 0.00000600 0.00000200 -0.05524000 -0.05469200 0.69918900
15 -3.99235500 -0.89118800 -1.82790900 -0.53822200 0.04573000 0.93801100
16 -1.40591800 -0.00002500 -0.00000300 -0.00798600 -0.02836000 1.14978400
17 -1.17535800 0.00012800 -0.00002000 0.05560900 0.03892800 0.86426700
18 -4.52675100 -0.69057500 -1.12074400 -0.43382200 0.07827300 1.31804700
19 -1.74403800 0.00003300 -0.00000800 -0.02662600 -0.01282800 1.53365100
20 -1.36877100 0.00002500 0.00000200 0.02081800 0.04817500 0.30338500
21 -1.87480000 -0.93512500 0.99917400 2.00022900 0.52323300 0.75414300
22 -1.52345300 0.00003200 0.00003100 0.08365400 0.15258100 0.60551300
23 -1.59928500 0.00000400 0.00001600 0.03148800 -0.02916500 0.72724000
24 5.58312600 0.11572562 0.29499938 2.23698600 -0.06403800 3.11154600
25 0.19684700 -0.00000100 0.00000300 2.79340692 -0.00066464 -3.14143633
26 -3.48871143 -18.08924729 0.08815131 1.97586200 1.15990900 1.84280300
27 6.21448500 0.00000600 0.00002000 -1.12905612 0.57096231 -1.83402814
28 11.94488500 -0.00002900 -0.00019400 0.21995461 -0.52892771 -1.30612402
29 10.62016600 0.00000200 0.00001000 -1.85011689 -0.38075489 0.24775266
30 4.75115600 0.69437600 -0.83047300 -0.13177500 -0.10523900 1.30931800
31 1.68806500 -0.00002600 0.00000200 0.00013200 -0.02471200 1.43157800
32 1.33615100 -0.00005100 -0.00000900 0.00162500 -0.03868900 0.32920800
33 4.82051300 0.50934000 0.22486500 -0.17729900 0.05107200 1.64852700
34 1.82699600 0.00006600 0.00000800 -0.00186700 0.04038300 1.22708400
35 1.43657700 -0.00001000 0.00000700 0.01218200 -0.00892200 -0.09591600
36 3.99235300 0.89108700 1.82799400 -0.34472300 0.17445200 1.46465000
37 1.40591800 0.00002100 -0.00000700 -0.01645600 -0.02445100 1.46689000
38 1.17536900 -0.00013100 0.00000200 -0.02767100 0.12011300 -0.27268800
39 4.52675600 0.69046000 1.12084200 -0.19762200 0.19418700 1.75354700
40 1.74404100 -0.00003100 -0.00000200 -0.02317300 -0.01832700 1.31332100
41 1.36876300 -0.00003100 -0.00001700 -0.30583900 0.14860800 -0.53799100
42 1.74532652 0.96075400 -1.05080876 2.49883200 0.33095300 1.17695300
43 1.45054500 -0.06018924 0.09121800 0.05420100 0.16732000 0.41843800
44 1.59928100 -0.00000200 0.00000900 0.07646600 -0.03347200 1.23758300
45 5.51180600 -0.00000200 0.00000600 -0.66744800 0.00000000 0.00000000
46 0.19685000 0.00000300 -0.00000200 -0.34822500 0.00001500 -0.00000200
47 0.00000000 2.00000000 0.00000000 0.00000000 0.00000000 -1.57079600
48 -3.33884900 8.49800200 -2.72292100 0.00000000 0.00000000 -3.14156200
49 -8.18293496 28.86832139 -3.14702053 0.34929731 0.06366286 -0.72938593
50 8.78724824 0.42903648 -4.69286800 0.21793700 1.03451400 1.57217400
51 3.02089300 0.12671100 -1.46232800 0.00000000 0.00000000 0.00000000
52 -0.63081700 -0.00336600 1.80821700 0.00000000 0.00000000 0.00000000
53 -0.00019500 0.00000000 0.15614900 0.00000000 0.00000000 0.00000000
54 12.89026224 1.09924600 0.34832700 0.00000000 0.00000000 0.00000000
55 0.03627200 0.00371900 2.20172900 0.00000000 0.00000000 0.00000000
56 -4.47961800 -2.28337400 -4.39486200 2.90953900 0.01384100 -1.88872600
time 12
0 -0.00000100 9.45008800 -27.50902600 0.00000000 0.00000000 0.00003100
1 -0.00000200 0.00000000 0.00000000 1.57074300 -1.56713700 -1.57074300
2 4.25546800 -0.33518300 -0.00000200 0.00000000 0.00000000 -0.12484800
3 7.43124800 1.49647700 0.00000200 0.00000000 0.00000000 0.24545000
4 5.27847900 0.16554100 0.00000100 0.00000000 0.00000000 0.04851100
5 -0.52630205 -16.28761420 11.41668160 1.97586400 1.15990900 -1.29878600
6 -6.21448200 -0.00000700 -0.00002700 -3.05434068 -0.45241156 0.88215109
7 11.94488200 0.00000000 0.00000100 -0.06333034 -0.24012267 1.11376995
8 10.62018100 0.00000200 0.00000000 0.96253452 0.35549031 2.55039250
9 -4.75110600 -0.69449400 0.83057700 -0.28768500 0.16844900 0.45488600
10 -1.68806800 0.00004600 -0.00003200 0.01151400 -0.02189700 0.95484700
11 -1.33614000 0.00005700 -0.00001200 0.02407200 -0.01080900 0.97502800
12 -4.82049400 -0.50946000 -0.22475900 -0.33846200 -0.01336700 1.23585300
13 -1.82699200 -0.00006400 0.00000600 -0.00024500 0.04047200 1.26807400
14 -1.43657300 0.00000600 0.00000200 -0.05524000 -0.05469200 0.69918900
15 -3.99235500 -0.89118800 -1.82790900 -0.53822200 0.04573000 0.93801100
16 -1.40591800 -0.00002500 -0.00000300 -0.00798600 -0.02836000 1.14978400
17 -1.17535800 0.00012800 -0.00002000 0.05560900 0.03892800 0.86426700
18 -4.52675100 -0.69057500 -1.12074400 -0.43382200 0.07827300 1.31804700
19 -1.74403800 0.00003300 -0.00000800 -0.02662600 -0.01282800 1.53365100
20 -1.36877100 0.00002500 0.00000200 0.02081800 0.04817500 0.30338500
21 -1.87480000 -0.93512500 0.99917400 2.00022900 0.52323300 0.75414300
22 -1.52345300 0.00003200 0.00003100 0.08365400 0.15258100 0.60551300
23 -1.59928500 0.00000400 0.00001600 0.03148800 -0.02916500 0.72724000
24 5.58312600 0.11572562 0.29499938 2.23698600 -0.06403800 3.11154600
25 0.19684700 -0.00000100 0.00000300 2.79340692 -0.00066464 -3.14143633
26 -3.32968528 -17.80600435 0.13567012 1.97586200 1.15990900 1.84280300
27 6.21448500 0.00000600 0.00002000 -1.14807996 0.55765596 -1.85021207
28 11.94488500 -0.00002900 -0.00019400 0.27594923 -0.52114480 -1.26353620
29 10.62016600 0.00000200 0.00001000 -1.91882148 -0.39462721 0.23986753
30 4.75115600 0.69437600 -0.83047300 -0.13177500 -0.10523900 1.30931800
31 1.68806500 -0.00002600 0.00000200 0.00013200 -0.02471200 1.43157800
32 1.33615100 -0.00005100 -0.00000900 0.00162500 -0.03868900 0.32920800
33 4.82051300 0.50934000 0.22486500 -0.17729900 0.05107200 1.64852700
34 1.82699600 0.00006600 0.00000800 -0.00186700 0.04038300 1.22708400
35 1.43657700 -0.00001000 0.00000700 0.01218200 -0.00892200 -0.09591600
36 3.99235300 0.89108700 1.82799400 -0.34472300 0.17445200 1.46465000
37 1.40591800 0.00002100 -0.00000700 -0.01645600 -0.02445100 1.46689000
38 1.17536900 -0.00013100 0.00000200 -0.02767100 0.12011300 -0.27268800
39 4.52675600 0.69046000 1.12084200 -0.19762200 0.19418700 1.75354700
40 1.74404100 -0.00003100 -0.00000200 -0.02317300 -0.01832700 1.31332100
41 1.36876300 -0.00003100 -0.00001700 -0.30583900 0.14860800 -0.53799100
42 1.74532652 0.96075400 -1.05080876 2.49883200 0.33095300 1.17695300
43 1.45054500 -0.06018924 0.09121800 0.05420100 0.16732000 0.41843800
44 1.59928100 -0.00000200 0.00000900 0.07646600 -0.03347200 1.23758300
45 5.51180600 -0.00000200 0.00000600 -0.66744800 0.00000000 0.00000000
46 0.19685000 0.00000300 -0.00000200 -0.34822500 0.00001500 -0.00000200
47 0.00000000 2.00000000 0.00000000 0.00000000 0.00000000 -1.57079600
48 -3.33884900 8.49800200 -2.72292100 0.00000000 0.00000000 -3.14156200
49 -8.02343472 28.85482257 -3.07189625 0.36597224 0.06596931 -0.71091978
50 8.78724824 0.42903648 -4.69286800 0.21793700 1.03451400 1.57217400
51 3.02089300 0.12671100 -1.46232800 0.00000000 0.00000000 0.00000000
52 -0.63081700 -0.00336600 1.80821700 0.00000000 0.00000000 0.00000000
53 -0.00019500 0.00000000 0.15614900 0.00000000 0.00000000 0.00000000
54 12.89026224 1.09924600 0.34832700 0.00000000 0.00000000 0.00000000
55 0.03627200 0.00371900 2.20172900 0.00000000 0.00000000 0.00000000
56 -4.47961800 -2.28337400 -4.39486200 2.90953900 0.01384100 -1.88872600
time 13
0 -0.00000100 9.45008800 -27.50902600 0.00000000 0.00000000 0.00003100
1 -0.00000200 0.00000000 0.00000000 1.57074300 -1.56713700 -1.57074300
2 4.25546800 -0.33518300 -0.00000200 0.00000000 0.00000000 -0.12484800
3 7.43124800 1.49647700 0.00000200 0.00000000 0.00000000 0.24545000
4 5.27847900 0.16554100 0.00000100 0.00000000 0.00000000 0.04851100
5 -0.52630205 -16.28761420 11.41668160 1.97586400 1.15990900 -1.29878600
6 -6.21448200 -0.00000700 -0.00002700 -3.05327044 -0.44960424 0.89853139
7 11.94488200 0.00000000 0.00000100 -0.06774612 -0.24660698 1.12644740
8 10.62018100 0.00000200 0.00000000 0.97557965 0.34444221 2.57167107
9 -4.75110600 -0.69449400 0.83057700 -0.28768500 0.16844900 0.45488600
10 -1.68806800 0.00004600 -0.00003200 0.01151400 -0.02189700 0.95484700
11 -1.33614000 0.00005700 -0.00001200 0.02407200 -0.01080900 0.97502800
12 -4.82049400 -0.50946000 -0.22475900 -0.33846200 -0.01336700 1.23585300
13 -1.82699200 -0.00006400 0.00000600 -0.00024500 0.04047200 1.26807400
14 -1.43657300 0.00000600 0.00000200 -0.05524000 -0.05469200 0.69918900
15 -3.99235500 -0.89118800 -1.82790900 -0.53822200 0.04573000 0.93801100
16 -1.40591800 -0.00002500 -0.00000300 -0.00798600 -0.02836000 1.14978400
17 -1.17535800 0.00012800 -0.00002000 0.05560900 0.03892800 0.86426700
18 -4.52675100 -0.69057500 -1.12074400 -0.43382200 0.07827300 1.31804700
19 -1.74403800 0.00003300 -0.00000800 -0.02662600 -0.01282800 1.53365100
20 -1.36877100 0.00002500 0.00000200 0.02081800 0.04817500 0.30338500
21 -1.87480000 -0.93512500 0.99917400 2.00022900 0.52323300 0.75414300
22 -1.52345300 0.00003200 0.00003100 0.08365400 0.15258100 0.60551300
23 -1.59928500 0.00000400 0.00001600 0.03148800 -0.02916500 0.72724000
24 5.58312600 0.11572562 0.29499938 2.23698600 -0.06403800 3.11154600
25 0.19684700 -0.00000100 0.00000300 2.79340692 -0.00066464 -3.14143633
26 -3.20629406 -17.58622809 0.17254153 1.97586200 1.15990900 1.84280300
27 6.21448500 0.00000600 0.00002000 -1.16098001 0.53478652 -1.86155131
28 11.94488500 -0.00002900 -0.00019400 0.32031542 -0.50804638 -1.22497937
29 10.62016600 0.00000200 0.00001000 -1.97209405 -0.40458275 0.23848898
30 4.75115600 0.69437600 -0.83047300 -0.13177500 -0.10523900 1.30931800
31 1.68806500 -0.00002600 0.00000200 0.00013200 -0.02471200 1.43157800
32 1.33615100 -0.00005100 -0.00000900 0.00162500 -0.03868900 0.32920800
33 4.82051300 0.50934000 0.22486500 -0.17729900 0.05107200 1.64852700
34 1.82699600 0.00006600 0.00000800 -0.00186700 0.04038300 1.22708400
35 1.43657700 -0.00001000 0.00000700 0.01218200 -0.00892200 -0.09591600
36 3.99235300 0.89108700 1.82799400 -0.34472300 0.17445200 1.46465000
37 1.40591800 0.00002100 -0.00000700 -0.01645600 -0.02445100 1.46689000
38 1.17536900 -0.00013100 0.00000200 -0.02767100 0.12011300 -0.27268800
39 4.52675600 0.69046000 1.12084200 -0.19762200 0.19418700 1.75354700
40 1.74404100 -0.00003100 -0.00000200 -0.02317300 -0.01832700 1.31332100
41 1.36876300 -0.00003100 -0.00001700 -0.30583900 0.14860800 -0.53799100
42 1.74532652 0.96075400 -1.05080876 2.49883200 0.33095300 1.17695300
43 1.45054500 -0.06018924 0.09121800 0.05420100 0.16732000 0.41843800
44 1.59928100 -0.00000200 0.00000900 0.07646600 -0.03347200 1.23758300
45 5.51180600 -0.00000200 0.00000600 -0.66744800 0.00000000 0.00000000
46 0.19685000 0.00000300 -0.00000200 -0.34822500 0.00001500 -0.00000200
47 0.00000000 2.00000000 0.00000000 0.00000000 0.00000000 -1.57079600
48 -3.33884900 8.49800200 -2.72292100 0.00000000 0.00000000 -3.14156200
49 -7.83405804 28.84725210 -2.86139709 0.37511098 0.07558088 -0.69979494
50 8.78724824 0.42903648 -4.69286800 0.21793700 1.03451400 1.57217400
51 3.02089300 0.12671100 -1.46232800 0.00000000 0.00000000 0.00000000
52 -0.63081700 -0.00336600 1.80821700 0.00000000 0.00000000 0.00000000
53 -0.00019500 0.00000000 0.15614900 0.00000000 0.00000000 0.00000000
54 12.89026224 1.09924600 0.34832700 0.00000000 0.00000000 0.00000000
55 0.03627200 0.00371900 2.20172900 0.00000000 0.00000000 0.00000000
56 -4.47961800 -2.28337400 -4.39486200 2.90953900 0.01384100 -1.88872600
time 14
0 -0.00000100 9.45008800 -27.50902600 0.00000000 0.00000000 0.00003100
1 -0.00000200 0.00000000 0.00000000 1.57074300 -1.56713700 -1.57074300
2 4.25546800 -0.33518300 -0.00000200 0.00000000 0.00000000 -0.12484800
3 7.43124800 1.49647700 0.00000200 0.00000000 0.00000000 0.24545000
4 5.27847900 0.16554100 0.00000100 0.00000000 0.00000000 0.04851100
5 -0.52630205 -16.28761420 11.41668160 1.97586400 1.15990900 -1.29878600
6 -6.21448200 -0.00000700 -0.00002700 -3.05645572 -0.44927557 0.91395593
7 11.94488200 0.00000000 0.00000100 -0.07042940 -0.24641533 1.13593090
8 10.62018100 0.00000200 0.00000000 0.97044868 0.35109334 2.58838315
9 -4.75110600 -0.69449400 0.83057700 -0.28768500 0.16844900 0.45488600
10 -1.68806800 0.00004600 -0.00003200 0.01151400 -0.02189700 0.95484700
11 -1.33614000 0.00005700 -0.00001200 0.02407200 -0.01080900 0.97502800
12 -4.82049400 -0.50946000 -0.22475900 -0.33846200 -0.01336700 1.23585300
13 -1.82699200 -0.00006400 0.00000600 -0.00024500 0.04047200 1.26807400
14 -1.43657300 0.00000600 0.00000200 -0.05524000 -0.05469200 0.69918900
15 -3.99235500 -0.89118800 -1.82790900 -0.53822200 0.04573000 0.93801100
16 -1.40591800 -0.00002500 -0.00000300 -0.00798600 -0.02836000 1.14978400
17 -1.17535800 0.00012800 -0.00002000 0.05560900 0.03892800 0.86426700
18 -4.52675100 -0.69057500 -1.12074400 -0.43382200 0.07827300 1.31804700
19 -1.74403800 0.00003300 -0.00000800 -0.02662600 -0.01282800 1.53365100
20 -1.36877100 0.00002500 0.00000200 0.02081800 0.04817500 0.30338500
21 -1.87480000 -0.93512500 0.99917400 2.00022900 0.52323300 0.75414300
22 -1.52345300 0.00003200 0.00003100 0.08365400 0.15258100 0.60551300
23 -1.59928500 0.00000400 0.00001600 0.03148800 -0.02916500 0.72724000
24 5.58312600 0.11572562 0.29499938 2.23698600 -0.06403800 3.11154600
25 0.19684700 -0.00000100 0.00000300 2.79340692 -0.00066464 -3.14143633
26 -3.12645311 -17.44402061 0.19639917 1.97586200 1.15990900 1.84280300
27 6.21448500 0.00000600 0.00002000 -1.17505756 0.51657848 -1.87414255
28 11.94488500 -0.00002900 -0.00019400 0.35030562 -0.49961286 -1.19953753
29 10.62016600 0.00000200 0.00001000 -1.98959009 -0.40668146 0.22636573
30 4.75115600 0.69437600 -0.83047300 -0.13177500 -0.10523900 1.30931800
31 1.68806500 -0.00002600 0.00000200 0.00013200 -0.02471200 1.43157800
32 1.33615100 -0.00005100 -0.00000900 0.00162500 -0.03868900 0.32920800
33 4.82051300 0.50934000 0.22486500 -0.17729900 0.05107200 1.64852700
34 1.82699600 0.00006600 0.00000800 -0.00186700 0.04038300 1.22708400
35 1.43657700 -0.00001000 0.00000700 0.01218200 -0.00892200 -0.09591600
36 3.99235300 0.89108700 1.82799400 -0.34472300 0.17445200 1.46465000
37 1.40591800 0.00002100 -0.00000700 -0.01645600 -0.02445100 1.46689000
38 1.17536900 -0.00013100 0.00000200 -0.02767100 0.12011300 -0.27268800
39 4.52675600 0.69046000 1.12084200 -0.19762200 0.19418700 1.75354700
40 1.74404100 -0.00003100 -0.00000200 -0.02317300 -0.01832700 1.31332100
41 1.36876300 -0.00003100 -0.00001700 -0.30583900 0.14860800 -0.53799100
42 1.74532652 0.96075400 -1.05080876 2.49883200 0.33095300 1.17695300
43 1.45054500 -0.06018924 0.09121800 0.05420100 0.16732000 0.41843800
44 1.59928100 -0.00000200 0.00000900 0.07646600 -0.03347200 1.23758300
45 5.51180600 -0.00000200 0.00000600 -0.66744800 0.00000000 0.00000000
46 0.19685000 0.00000300 -0.00000200 -0.34822500 0.00001500 -0.00000200
47 0.00000000 2.00000000 0.00000000 0.00000000 0.00000000 -1.57079600
48 -3.33884900 8.49800200 -2.72292100 0.00000000 0.00000000 -3.14156200
49 -7.61914190 28.84393568 -2.72138045 0.37318836 0.09204791 -0.69203517
50 8.78724824 0.42903648 -4.69286800 0.21793700 1.03451400 1.57217400
51 3.02089300 0.12671100 -1.46232800 0.00000000 0.00000000 0.00000000
52 -0.63081700 -0.00336600 1.80821700 0.00000000 0.00000000 0.00000000
53 -0.00019500 0.00000000 0.15614900 0.00000000 0.00000000 0.00000000
54 12.89026224 1.09924600 0.34832700 0.00000000 0.00000000 0.00000000
55 0.03627200 0.00371900 2.20172900 0.00000000 0.00000000 0.00000000
56 -4.47961800 -2.28337400 -4.39486200 2.90953900 0.01384100 -1.88872600
time 15
0 -0.00000100 9.45008800 -27.50902600 0.00000000 0.00000000 0.00003100
1 -0.00000200 0.00000000 0.00000000 1.57074300 -1.56713700 -1.57074300
2 4.25546800 -0.33518300 -0.00000200 0.00000000 0.00000000 -0.12484800
3 7.43124800 1.49647700 0.00000200 0.00000000 0.00000000 0.24545000
4 5.27847900 0.16554100 0.00000100 0.00000000 0.00000000 0.04851100
5 -0.52630205 -16.28761420 11.41668160 1.97586400 1.15990900 -1.29878600
6 -6.21448200 -0.00000700 -0.00002700 -3.06583670 -0.45214598 0.93304104
7 11.94488200 0.00000000 0.00000100 -0.07199497 -0.23802871 1.14594082
8 10.62018100 0.00000200 0.00000000 0.95456650 0.37498987 2.60161255
9 -4.75110600 -0.69449400 0.83057700 -0.28768500 0.16844900 0.45488600
10 -1.68806800 0.00004600 -0.00003200 0.01151400 -0.02189700 0.95484700
11 -1.33614000 0.00005700 -0.00001200 0.02407200 -0.01080900 0.97502800
12 -4.82049400 -0.50946000 -0.22475900 -0.33846200 -0.01336700 1.23585300
13 -1.82699200 -0.00006400 0.00000600 -0.00024500 0.04047200 1.26807400
14 -1.43657300 0.00000600 0.00000200 -0.05524000 -0.05469200 0.69918900
15 -3.99235500 -0.89118800 -1.82790900 -0.53822200 0.04573000 0.93801100
16 -1.40591800 -0.00002500 -0.00000300 -0.00798600 -0.02836000 1.14978400
17 -1.17535800 0.00012800 -0.00002000 0.05560900 0.03892800 0.86426700
18 -4.52675100 -0.69057500 -1.12074400 -0.43382200 0.07827300 1.31804700
19 -1.74403800 0.00003300 -0.00000800 -0.02662600 -0.01282800 1.53365100
20 -1.36877100 0.00002500 0.00000200 0.02081800 0.04817500 0.30338500
21 -1.87480000 -0.93512500 0.99917400 2.00022900 0.52323300 0.75414300
22 -1.52345300 0.00003200 0.00003100 0.08365400 0.15258100 0.60551300
23 -1.59928500 0.00000400 0.00001600 0.03148800 -0.02916500 0.72724000
24 5.58312600 0.11572600 0.29499900 2.23698600 -0.06403800 3.11154600
25 0.19684700 -0.00000100 0.00000300 2.79340692 -0.00066464 -3.14143633
26 -3.09807905 -17.39348404 0.20487792 1.97586200 1.15990900 1.84280300
27 6.21448500 0.00000600 0.00002000 -1.19126302 0.50859423 -1.89193701
28 11.94488500 -0.00002900 -0.00019400 0.36209731 -0.49898525 -1.18944283
29 10.62016600 0.00000200 0.00001000 -1.97227073 -0.40551449 0.19919625
30 4.75115600 0.69437600 -0.83047300 -0.13177500 -0.10523900 1.30931800
31 1.68806500 -0.00002600 0.00000200 0.00013200 -0.02471200 1.43157800
32 1.33615100 -0.00005100 -0.00000900 0.00162500 -0.03868900 0.32920800
33 4.82051300 0.50934000 0.22486500 -0.17729900 0.05107200 1.64852700
34 1.82699600 0.00006600 0.00000800 -0.00186700 0.04038300 1.22708400
35 1.43657700 -0.00001000 0.00000700 0.01218200 -0.00892200 -0.09591600
36 3.99235300 0.89108700 1.82799400 -0.34472300 0.17445200 1.46465000
37 1.40591800 0.00002100 -0.00000700 -0.01645600 -0.02445100 1.46689000
38 1.17536900 -0.00013100 0.00000200 -0.02767100 0.12011300 -0.27268800
39 4.52675600 0.69046000 1.12084200 -0.19762200 0.19418700 1.75354700
40 1.74404100 -0.00003100 -0.00000200 -0.02317300 -0.01832700 1.31332100
41 1.36876300 -0.00003100 -0.00001700 -0.30583900 0.14860800 -0.53799100
42 1.74532500 0.96075400 -1.05080800 2.49883200 0.33095300 1.17695300
43 1.45054500 -0.06019000 0.09121800 0.05420100 0.16732000 0.41843800
44 1.59928100 -0.00000200 0.00000900 0.07646600 -0.03347200 1.23758300
45 5.51180600 -0.00000200 0.00000600 -0.66744800 0.00000000 0.00000000
46 0.19685000 0.00000300 -0.00000200 -0.34822500 0.00001500 -0.00000200
47 0.00000000 2.00000000 0.00000000 0.00000000 0.00000000 -1.57079600
48 -3.33884900 8.49800200 -2.72292100 0.00000000 0.00000000 -3.14156200
49 -7.37027336 28.84320016 -2.72390254 0.36761850 0.11234142 -0.68791456
50 8.78724900 0.42903800 -4.69286800 0.21793700 1.03451400 1.57217400
51 3.02089300 0.12671100 -1.46232800 0.00000000 0.00000000 0.00000000
52 -0.63081700 -0.00336600 1.80821700 0.00000000 0.00000000 0.00000000
53 -0.00019500 0.00000000 0.15614900 0.00000000 0.00000000 0.00000000
54 12.89026300 1.09924600 0.34832700 0.00000000 0.00000000 0.00000000
55 0.03627200 0.00371900 2.20172900 0.00000000 0.00000000 0.00000000
56 -4.47961800 -2.28337400 -4.39486200 2.90953900 0.01384100 -1.88872600
end
