version 1
nodes
0 "root" -1
1 "pelvis" 0
2 "spine_01" 1
3 "spine_02" 2
4 "spine_03" 3
5 "clavicle_r" 4
6 "upperarm_r" 5
7 "lowerarm_r" 6
8 "hand_r" 7
9 "index_01_r" 8
10 "index_02_r" 9
11 "index_03_r" 10
12 "middle_01_r" 8
13 "middle_02_r" 12
14 "middle_03_r" 13
15 "pinky_01_r" 8
16 "pinky_02_r" 15
17 "pinky_03_r" 16
18 "ring_01_r" 8
19 "ring_02_r" 18
20 "ring_03_r" 19
21 "thumb_01_r" 8
22 "thumb_02_r" 21
23 "thumb_03_r" 22
24 "lowerarm_twist_01_r" 7
25 "upperarm_twist_01_r" 6
26 "clavicle_l" 4
27 "upperarm_l" 26
28 "lowerarm_l" 27
29 "hand_l" 28
30 "index_01_l" 29
31 "index_02_l" 30
32 "index_03_l" 31
33 "middle_01_l" 29
34 "middle_02_l" 33
35 "middle_03_l" 34
36 "pinky_01_l" 29
37 "pinky_02_l" 36
38 "pinky_03_l" 37
39 "ring_01_l" 29
40 "ring_02_l" 39
41 "ring_03_l" 40
42 "thumb_01_l" 29
43 "thumb_02_l" 42
44 "thumb_03_l" 43
45 "lowerarm_twist_01_l" 28
46 "upperarm_twist_01_l" 27
47 "cam_driver" -1
48 "BaseRoot" -1
49 "Base" 48
50 "rhand_ikTarget" 49
51 "Trigger" 49
52 "Mag" 49
53 "Bullets" 52
54 "Bolt" 49
55 "MagRelease" 49
56 "lhand_ikTarget" 49
end
skeleton
time 0
0 -0.00000200 8.44531300 -27.50000000 0.00000000 0.00000000 0.00002800
1 -0.00000435 0.00000000 0.00000000 1.57074300 -1.56713700 -1.57074300
2 4.25546800 -0.33518300 -0.00000200 0.00000000 0.00000000 -0.12484800
3 7.43124600 1.49647700 0.00000200 0.00000000 0.00000000 0.24545000
4 5.27847700 0.16554100 0.00000100 0.00000000 0.00000000 0.04851100
5 1.43912736 -8.78986301 2.01078226 1.97586400 1.15990900 -1.29878600
6 -6.21840867 -0.00001739 -0.00005871 -3.06643510 -0.67772161 1.77735824
7 11.94851562 -0.00000217 0.00000000 -0.35180238 -0.36014770 1.94490547
8 10.62329776 0.00000870 -0.00000435 0.99223999 -0.12882682 2.48152189
9 -4.75110100 -0.69449200 0.83057700 -0.09752300 -0.07215300 0.36368500
10 -1.68806800 0.00004500 -0.00003200 0.01721300 -0.01778000 0.66972300
11 -1.33614000 0.00005700 -0.00001200 0.02612700 -0.00326400 0.67798200
12 -4.82049000 -0.50946000 -0.22476000 -0.31019300 0.01220500 1.54294140
13 -1.82699600 -0.00006200 0.00000700 0.00229100 0.04043200 1.32937700
14 -1.43845225 0.00000984 0.00000328 -0.04326500 -0.06466056 0.49793836
15 -3.99235200 -0.89118600 -1.82790800 -0.39356900 0.38726400 1.76891800
16 -1.40591800 -0.00002400 -0.00000200 -0.00904047 -0.02805953 1.18716000
17 -1.17535800 0.00012800 -0.00002000 0.03573700 0.05772000 0.45865800
18 -4.52674700 -0.69057500 -1.12074400 -0.29888400 0.23439300 1.70854600
19 -1.74403800 0.00003500 -0.00000800 -0.02612493 -0.01378753 1.49740900
20 -1.36877100 0.00002500 0.00000400 0.00109907 0.05249600 -0.08315600
21 -1.87674627 -0.93592792 1.00080181 2.10043383 0.44180665 0.86547172
22 -1.52345300 0.00003100 0.00003100 0.08365293 0.15258047 0.60551100
23 -1.59928500 0.00000400 0.00001600 0.03405400 -0.02608300 0.63444500
24 5.58407703 0.11572888 0.29492200 2.70854510 -0.05530712 3.09751720
25 0.19684700 -0.00000100 0.00000300 2.79340692 -0.00069406 -3.14143033
26 0.76683393 -12.43143049 -1.56082822 1.97586200 1.15990900 1.84280300
27 6.21842171 0.00001522 0.00004349 -1.00262272 0.91914421 -2.00089689
28 11.94852649 -0.00006740 -0.00042398 -0.02045174 -0.43728705 -1.55884897
29 10.62327285 0.00000000 0.00002174 -1.29330189 -0.58710969 -0.02604121
30 4.75115200 0.69437400 -0.83047200 -0.33658232 -0.22394700 1.27218571
31 1.68806500 -0.00002500 0.00000100 -0.00123447 -0.02467147 1.48765907
32 1.33615100 -0.00005000 -0.00000800 0.01621200 -0.03516700 -0.06228800
33 4.82050900 0.50933800 0.22486500 -0.37684886 -0.01491234 1.55224837
34 1.82699600 0.00006700 0.00000900 -0.00051400 0.04045100 1.26078800
35 1.43657300 -0.00001000 0.00000700 0.01098500 -0.01043400 0.02903500
36 3.99235000 0.89108500 1.82799200 -0.58773400 -0.00855700 1.20567800
37 1.40591800 0.00002100 -0.00000600 -0.01283800 -0.02655500 1.32518600
38 1.17536900 -0.00013200 0.00000100 0.05517100 0.11024900 0.42008900
39 4.52675100 0.69045800 1.12084100 -0.49028947 0.04882253 1.52995347
40 1.74404100 -0.00003100 -0.00000200 -0.02474100 -0.01616300 1.40363107
41 1.36876300 -0.00003100 -0.00001700 -0.32324100 0.09379900 -0.20753000
42 1.94282419 1.01635893 -0.91221972 2.09828691 0.36918914 1.35024799
43 1.52344900 -0.00003400 -0.00000200 0.01413000 -0.08869300 0.51775900
44 1.59927900 -0.00000200 0.00001000 0.07477333 -0.03718786 1.28670049
45 5.51425263 -0.00000656 0.00001312 -0.27200968 0.00000429 0.00000346
46 0.19685100 0.00000200 -0.00000100 -0.34822500 0.00001500 -0.00000200
47 0.00000000 0.99951200 0.00000000 0.00000000 0.00000000 -1.57079600
48 -4.49218800 5.84765600 -3.19726600 0.00000000 0.00000000 -3.14155900
49 -6.57556916 21.65788548 -2.43137863 0.25887312 0.02224863 -0.81609724
50 9.62500000 0.04133497 -3.51562500 0.22850700 1.17432700 1.53866900
51 3.14881800 -0.01178200 -0.88071700 0.00000000 0.00000000 0.00000000
52 -3.96235800 -0.01178200 0.07771100 0.00000000 0.00000000 0.00000000
53 0.05046500 0.00000000 0.46481100 0.00000000 0.00000000 0.00000000
54 1.34472700 0.64062500 1.02734400 0.00000000 0.00000000 0.00000000
55 -2.55633500 -0.02560600 -1.23524000 0.00000000 0.00000000 0.00000000
56 -1.93822700 -2.78882700 -4.40212100 2.85215900 -0.11258400 -1.97203800
time 1
0 -0.00000200 8.44531300 -27.50000000 0.00000000 0.00000000 0.00002800
1 -0.00000435 0.00000000 0.00000000 1.57074300 -1.56713700 -1.57074300
2 4.25546800 -0.33518300 -0.00000200 0.00000000 0.00000000 -0.12484800
3 7.43124600 1.49647700 0.00000200 0.00000000 0.00000000 0.24545000
4 5.27847700 0.16554100 0.00000100 0.00000000 0.00000000 0.04851100
5 1.43912736 -8.78986301 2.01078226 1.97586400 1.15990900 -1.29878600
6 -6.21840867 -0.00001739 -0.00005871 -3.05060455 -0.67526334 1.76802649
7 11.94851562 -0.00000217 0.00000000 -0.34985200 -0.36169707 1.93880958
8 10.62329776 0.00000870 -0.00000435 1.02010510 -0.14198108 2.49033721
9 -4.75110100 -0.69449200 0.83057700 -0.09752300 -0.07215300 0.36368500
10 -1.68806800 0.00004500 -0.00003200 0.01721300 -0.01778000 0.66972300
11 -1.33614000 0.00005700 -0.00001200 0.02612700 -0.00326400 0.67798200
12 -4.82049000 -0.50946000 -0.22476000 -0.31019300 0.01220500 1.54294140
13 -1.82699600 -0.00006200 0.00000700 0.00229100 0.04043200 1.32937700
14 -1.43845225 0.00000984 0.00000328 -0.04326500 -0.06466056 0.49793836
15 -3.99235200 -0.89118600 -1.82790800 -0.39356900 0.38726400 1.76891800
16 -1.40591800 -0.00002400 -0.00000200 -0.00904047 -0.02805953 1.18716000
17 -1.17535800 0.00012800 -0.00002000 0.03573700 0.05772000 0.45865800
18 -4.52674700 -0.69057500 -1.12074400 -0.29888400 0.23439300 1.70854600
19 -1.74403800 0.00003500 -0.00000800 -0.02612493 -0.01378753 1.49740900
20 -1.36877100 0.00002500 0.00000400 0.00109907 0.05249600 -0.08315600
21 -1.87674627 -0.93592792 1.00080181 2.10043383 0.44180665 0.86547172
22 -1.52345300 0.00003100 0.00003100 0.08365293 0.15258047 0.60551100
23 -1.59928500 0.00000400 0.00001600 0.03405400 -0.02608300 0.63444500
24 5.58407703 0.11572888 0.29492200 2.70854510 -0.05530712 3.09751720
25 0.19684700 -0.00000100 0.00000300 2.79340692 -0.00069406 -3.14143033
26 0.76683393 -12.43143049 -1.56082822 1.97586200 1.15990900 1.84280300
27 6.21842171 0.00001522 0.00004349 -0.99534425 0.91529096 -2.00158721
28 11.94852649 -0.00006740 -0.00042398 -0.02415478 -0.44181910 -1.54858628
29 10.62327285 0.00000000 0.00002174 -1.31085185 -0.60407607 -0.03929772
30 4.75115200 0.69437400 -0.83047200 -0.33658232 -0.22394700 1.27218571
31 1.68806500 -0.00002500 0.00000100 -0.00123447 -0.02467147 1.48765907
32 1.33615100 -0.00005000 -0.00000800 0.01621200 -0.03516700 -0.06228800
33 4.82050900 0.50933800 0.22486500 -0.37684886 -0.01491234 1.55224837
34 1.82699600 0.00006700 0.00000900 -0.00051400 0.04045100 1.26078800
35 1.43657300 -0.00001000 0.00000700 0.01098500 -0.01043400 0.02903500
36 3.99235000 0.89108500 1.82799200 -0.58773400 -0.00855700 1.20567800
37 1.40591800 0.00002100 -0.00000600 -0.01283800 -0.02655500 1.32518600
38 1.17536900 -0.00013200 0.00000100 0.05517100 0.11024900 0.42008900
39 4.52675100 0.69045800 1.12084100 -0.49028947 0.04882253 1.52995347
40 1.74404100 -0.00003100 -0.00000200 -0.02474100 -0.01616300 1.40363107
41 1.36876300 -0.00003100 -0.00001700 -0.32324100 0.09379900 -0.20753000
42 1.94282419 1.01635893 -0.91221972 2.09828691 0.36918914 1.35024799
43 1.52344900 -0.00003400 -0.00000200 0.01413000 -0.08869300 0.51775900
44 1.59927900 -0.00000200 0.00001000 0.07477333 -0.03718786 1.28670049
45 5.51425263 -0.00000656 0.00001312 -0.27200968 0.00000429 0.00000346
46 0.19685100 0.00000200 -0.00000100 -0.34822500 0.00001500 -0.00000200
47 0.00000000 0.99951200 0.00000000 0.00000000 0.00000000 -1.57079600
48 -4.49218800 5.84765600 -3.19726600 0.00000000 0.00000000 -3.14155900
49 -6.64021570 21.65997211 -2.39160178 0.28457293 0.01735155 -0.81358917
50 9.62500000 0.04133497 -3.51562500 0.22850700 1.17432700 1.53866900
51 3.14881800 -0.01178200 -0.88071700 0.00000000 0.00000000 0.00000000
52 -3.96235800 -0.01178200 0.07771100 0.00000000 0.00000000 0.00000000
53 0.05046500 0.00000000 0.46481100 0.00000000 0.00000000 0.00000000
54 1.34472700 0.64062500 1.02734400 0.00000000 0.00000000 0.00000000
55 -2.55633500 -0.02560600 -1.23524000 0.00000000 0.00000000 0.00000000
56 -1.93822700 -2.78882700 -4.40212100 2.85215900 -0.11258400 -1.97203800
time 2
0 -0.00000200 8.44531300 -27.50000000 0.00000000 0.00000000 0.00002800
1 -0.00000435 0.00000000 0.00000000 1.57074300 -1.56713700 -1.57074300
2 4.25546800 -0.33518300 -0.00000200 0.00000000 0.00000000 -0.12484800
3 7.43124600 1.49647700 0.00000200 0.00000000 0.00000000 0.24545000
4 5.27847700 0.16554100 0.00000100 0.00000000 0.00000000 0.04851100
5 1.43912736 -8.78986301 2.01078226 1.97586400 1.15990900 -1.29878600
6 -6.21840867 -0.00001739 -0.00005871 -3.02388675 -0.66891345 1.74533096
7 11.94851562 -0.00000217 0.00000000 -0.34631499 -0.36463637 1.92760051
8 10.62329776 0.00000870 -0.00000435 1.06131265 -0.16111949 2.49801788
9 -4.75110100 -0.69449200 0.83057700 -0.09752300 -0.07215300 0.36368500
10 -1.68806800 0.00004500 -0.00003200 0.01721300 -0.01778000 0.66972300
11 -1.33614000 0.00005700 -0.00001200 0.02612700 -0.00326400 0.67798200
12 -4.82049000 -0.50946000 -0.22476000 -0.31019300 0.01220500 1.54294140
13 -1.82699600 -0.00006200 0.00000700 0.00229100 0.04043200 1.32937700
14 -1.43845225 0.00000984 0.00000328 -0.04326500 -0.06466056 0.49793836
15 -3.99235200 -0.89118600 -1.82790800 -0.39356900 0.38726400 1.76891800
16 -1.40591800 -0.00002400 -0.00000200 -0.00904047 -0.02805953 1.18716000
17 -1.17535800 0.00012800 -0.00002000 0.03573700 0.05772000 0.45865800
18 -4.52674700 -0.69057500 -1.12074400 -0.29888400 0.23439300 1.70854600
19 -1.74403800 0.00003500 -0.00000800 -0.02612493 -0.01378753 1.49740900
20 -1.36877100 0.00002500 0.00000400 0.00109907 0.05249600 -0.08315600
21 -1.87674627 -0.93592792 1.00080181 2.10043383 0.44180665 0.86547172
22 -1.52345300 0.00003100 0.00003100 0.08365293 0.15258047 0.60551100
23 -1.59928500 0.00000400 0.00001600 0.03405400 -0.02608300 0.63444500
24 5.58407703 0.11572888 0.29492200 2.70854510 -0.05530712 3.09751720
25 0.19684700 -0.00000100 0.00000300 2.79340692 -0.00069406 -3.14143033
26 0.76683393 -12.43143049 -1.56082822 1.97586200 1.15990900 1.84280300
27 6.21842171 0.00001522 0.00004349 -0.99546480 0.90722028 -2.00316745
28 11.94852649 -0.00006740 -0.00042398 -0.02853761 -0.44483201 -1.53678784
29 10.62327285 0.00000000 0.00002174 -1.33498887 -0.62291113 -0.05364013
30 4.75115200 0.69437400 -0.83047200 -0.33658232 -0.22394700 1.27218571
31 1.68806500 -0.00002500 0.00000100 -0.00123447 -0.02467147 1.48765907
32 1.33615100 -0.00005000 -0.00000800 0.01621200 -0.03516700 -0.06228800
33 4.82050900 0.50933800 0.22486500 -0.37684886 -0.01491234 1.55224837
34 1.82699600 0.00006700 0.00000900 -0.00051400 0.04045100 1.26078800
35 1.43657300 -0.00001000 0.00000700 0.01098500 -0.01043400 0.02903500
36 3.99235000 0.89108500 1.82799200 -0.58773400 -0.00855700 1.20567800
37 1.40591800 0.00002100 -0.00000600 -0.01283800 -0.02655500 1.32518600
38 1.17536900 -0.00013200 0.00000100 0.05517100 0.11024900 0.42008900
39 4.52675100 0.69045800 1.12084100 -0.49028947 0.04882253 1.52995347
40 1.74404100 -0.00003100 -0.00000200 -0.02474100 -0.01616300 1.40363107
41 1.36876300 -0.00003100 -0.00001700 -0.32324100 0.09379900 -0.20753000
42 1.94282419 1.01635893 -0.91221972 2.09828691 0.36918914 1.35024799
43 1.52344900 -0.00003400 -0.00000200 0.01413000 -0.08869300 0.51775900
44 1.59927900 -0.00000200 0.00001000 0.07477333 -0.03718786 1.28670049
45 5.51425263 -0.00000656 0.00001312 -0.27198600 0.00000429 0.00000346
46 0.19685100 0.00000200 -0.00000100 -0.34822500 0.00001500 -0.00000200
47 0.00000000 0.99951200 0.00000000 0.00000000 0.00000000 -1.57079600
48 -4.49218800 5.84765600 -3.19726600 0.00000000 0.00000000 -3.14155900
49 -6.80754435 21.65997211 -2.28396590 0.32188652 0.01020958 -0.80905662
50 9.62500000 0.04133497 -3.51562500 0.22850700 1.17432700 1.53866900
51 3.14881800 -0.01178200 -0.88071700 0.00000000 0.00000000 0.00000000
52 -3.96235800 -0.01178200 0.07771100 0.00000000 0.00000000 0.00000000
53 0.05046500 0.00000000 0.46481100 0.00000000 0.00000000 0.00000000
54 1.34472700 0.64062500 1.02734400 0.00000000 0.00000000 0.00000000
55 -2.55633500 -0.02560600 -1.23524000 0.00000000 0.00000000 0.00000000
56 -1.93822700 -2.78882700 -4.40212100 2.85215900 -0.11258400 -1.97203800
time 3
0 -0.00000200 8.44531300 -27.50000000 0.00000000 0.00000000 0.00002800
1 -0.00000435 0.00000000 0.00000000 1.57074300 -1.56713700 -1.57074300
2 4.25546800 -0.33518300 -0.00000200 0.00000000 0.00000000 -0.12484800
3 7.43124600 1.49647700 0.00000200 0.00000000 0.00000000 0.24545000
4 5.27847700 0.16554100 0.00000100 0.00000000 0.00000000 0.04851100
5 1.43912736 -8.78986301 2.01078226 1.97586400 1.15990900 -1.29878600
6 -6.21840867 -0.00001739 -0.00005871 -3.01250219 -0.66201756 1.72244878
7 11.94851562 -0.00000217 0.00000000 -0.34252548 -0.36703754 1.91613922
8 10.62329776 0.00000870 -0.00000435 1.06598596 -0.16563729 2.49657939
9 -4.75110100 -0.69449200 0.83057700 -0.09752300 -0.07215300 0.36368500
10 -1.68806800 0.00004500 -0.00003200 0.01721300 -0.01778000 0.66972300
11 -1.33614000 0.00005700 -0.00001200 0.02612700 -0.00326400 0.67798200
12 -4.82049000 -0.50946000 -0.22476000 -0.31019300 0.01220500 1.54294140
13 -1.82699600 -0.00006200 0.00000700 0.00229100 0.04043200 1.32937700
14 -1.43845225 0.00000984 0.00000328 -0.04326500 -0.06466056 0.49793836
15 -3.99235200 -0.89118600 -1.82790800 -0.39356900 0.38726400 1.76891800
16 -1.40591800 -0.00002400 -0.00000200 -0.00904047 -0.02805953 1.18716000
17 -1.17535800 0.00012800 -0.00002000 0.03573700 0.05772000 0.45865800
18 -4.52674700 -0.69057500 -1.12074400 -0.29888400 0.23439300 1.70854600
19 -1.74403800 0.00003500 -0.00000800 -0.02612493 -0.01378753 1.49740900
20 -1.36877100 0.00002500 0.00000400 0.00109907 0.05249600 -0.08315600
21 -1.87674627 -0.93592792 1.00080181 2.10043383 0.44180665 0.86547172
22 -1.52345300 0.00003100 0.00003100 0.08365293 0.15258047 0.60551100
23 -1.59928500 0.00000400 0.00001600 0.03405400 -0.02608300 0.63444500
24 5.58407703 0.11572888 0.29492200 2.70854510 -0.05530712 3.09751720
25 0.19684700 -0.00000100 0.00000300 2.79340692 -0.00069406 -3.14143033
26 0.76683393 -12.43143049 -1.56082822 1.97586200 1.15990900 1.84280300
27 6.21842171 0.00001522 0.00004349 -1.01507784 0.90237279 -2.00049568
28 11.94852649 -0.00006740 -0.00042398 -0.02649297 -0.43920775 -1.54379550
29 10.62327285 0.00000000 0.00002174 -1.33342370 -0.61512875 -0.04754733
30 4.75115200 0.69437400 -0.83047200 -0.33658232 -0.22394700 1.27218571
31 1.68806500 -0.00002500 0.00000100 -0.00123447 -0.02467147 1.48765907
32 1.33615100 -0.00005000 -0.00000800 0.01621200 -0.03516700 -0.06228800
33 4.82050900 0.50933800 0.22486500 -0.37684886 -0.01491234 1.55224837
34 1.82699600 0.00006700 0.00000900 -0.00051400 0.04045100 1.26078800
35 1.43657300 -0.00001000 0.00000700 0.01098500 -0.01043400 0.02903500
36 3.99235000 0.89108500 1.82799200 -0.58773400 -0.00855700 1.20567800
37 1.40591800 0.00002100 -0.00000600 -0.01283800 -0.02655500 1.32518600
38 1.17536900 -0.00013200 0.00000100 0.05517100 0.11024900 0.42008900
39 4.52675100 0.69045800 1.12084100 -0.49028947 0.04882253 1.52995347
40 1.74404100 -0.00003100 -0.00000200 -0.02474100 -0.01616300 1.40363107
41 1.36876300 -0.00003100 -0.00001700 -0.32324100 0.09379900 -0.20753000
42 1.94282419 1.01635893 -0.91221972 2.09828691 0.36918914 1.35024799
43 1.52344900 -0.00003400 -0.00000200 0.01413000 -0.08869300 0.51775900
44 1.59927900 -0.00000200 0.00001000 0.07477333 -0.03718786 1.28670049
45 5.51425263 -0.00000656 0.00001312 -0.27198600 0.00000429 0.00000346
46 0.19685100 0.00000200 -0.00000100 -0.34822500 0.00001500 -0.00000200
47 0.00000000 0.99951200 0.00000000 0.00000000 0.00000000 -1.57079600
48 -4.49218800 5.84765600 -3.19726600 0.00000000 0.00000000 -3.14155900
49 -7.03202528 21.65815227 -2.16611769 0.32674688 0.00934609 -0.80096415
50 9.62500000 0.04133497 -3.51562500 0.22850700 1.17432700 1.53866900
51 3.14881800 -0.01178200 -0.88071700 0.00000000 0.00000000 0.00000000
52 -3.96235800 -0.01178200 0.07771100 0.00000000 0.00000000 0.00000000
53 0.05046500 0.00000000 0.46481100 0.00000000 0.00000000 0.00000000
54 1.34472700 0.64062500 1.02734400 0.00000000 0.00000000 0.00000000
55 -2.55633500 -0.02560600 -1.23524000 0.00000000 0.00000000 0.00000000
56 -1.93822700 -2.78882700 -4.40212100 2.85215900 -0.11258400 -1.97203800
time 4
0 -0.00000200 8.44531300 -27.50000000 0.00000000 0.00000000 0.00002800
1 -0.00000435 0.00000000 0.00000000 1.57074300 -1.56713700 -1.57074300
2 4.25546800 -0.33518300 -0.00000200 0.00000000 0.00000000 -0.12484800
3 7.43124600 1.49647700 0.00000200 0.00000000 0.00000000 0.24545000
4 5.27847700 0.16554100 0.00000100 0.00000000 0.00000000 0.04851100
5 1.55375862 -8.62974276 1.84884263 1.97586400 1.15990900 -1.29878600
6 -6.21840867 -0.00001739 -0.00005871 -3.00366727 -0.65735288 1.71068138
7 11.94851562 -0.00000217 0.00000000 -0.33328099 -0.37058355 1.88878658
8 10.62329776 0.00000870 -0.00000435 1.06503932 -0.16817774 2.51811627
9 -4.75110100 -0.69449200 0.83057700 -0.09752300 -0.07215300 0.36368500
10 -1.68806800 0.00004500 -0.00003200 0.01721300 -0.01778000 0.66972300
11 -1.33614000 0.00005700 -0.00001200 0.02612700 -0.00326400 0.67798200
12 -4.82049000 -0.50946000 -0.22476000 -0.31019300 0.01220500 1.54294140
13 -1.82699600 -0.00006200 0.00000700 0.00229100 0.04043200 1.32937700
14 -1.43845225 0.00000984 0.00000328 -0.04326500 -0.06466056 0.49793836
15 -3.99235200 -0.89118600 -1.82790800 -0.39356900 0.38726400 1.76891800
16 -1.40591800 -0.00002400 -0.00000200 -0.00904047 -0.02805953 1.18716000
17 -1.17535800 0.00012800 -0.00002000 0.03573700 0.05772000 0.45865800
18 -4.52674700 -0.69057500 -1.12074400 -0.29888400 0.23439300 1.70854600
19 -1.74403800 0.00003500 -0.00000800 -0.02612493 -0.01378753 1.49740900
20 -1.36877100 0.00002500 0.00000400 0.00109907 0.05249600 -0.08315600
21 -1.87674627 -0.93592792 1.00080181 2.10043383 0.44180665 0.86547172
22 -1.52345300 0.00003100 0.00003100 0.08365293 0.15258047 0.60551100
23 -1.59928500 0.00000400 0.00001600 0.03405400 -0.02608300 0.63444500
24 5.58407703 0.11572888 0.29492200 2.70854510 -0.05530712 3.09751720
25 0.19684700 -0.00000100 0.00000300 2.79340692 -0.00069406 -3.14143033
26 0.79412686 -12.48601682 -1.56810618 1.97586200 1.15990900 1.84280300
27 6.21842171 0.00001522 0.00004349 -1.03428364 0.90280111 -1.99252483
28 11.94852649 -0.00006740 -0.00042398 -0.02269036 -0.42806694 -1.55590919
29 10.62327285 0.00000000 0.00002174 -1.33437785 -0.60615199 -0.04021314
30 4.75115200 0.69437400 -0.83047200 -0.33658232 -0.22394700 1.27218571
31 1.68806500 -0.00002500 0.00000100 -0.00123447 -0.02467147 1.48765907
32 1.33615100 -0.00005000 -0.00000800 0.01621200 -0.03516700 -0.06228800
33 4.82050900 0.50933800 0.22486500 -0.37684886 -0.01491234 1.55224837
34 1.82699600 0.00006700 0.00000900 -0.00051400 0.04045100 1.26078800
35 1.43657300 -0.00001000 0.00000700 0.01098500 -0.01043400 0.02903500
36 3.99235000 0.89108500 1.82799200 -0.58773400 -0.00855700 1.20567800
37 1.40591800 0.00002100 -0.00000600 -0.01283800 -0.02655500 1.32518600
38 1.17536900 -0.00013200 0.00000100 0.05517100 0.11024900 0.42008900
39 4.52675100 0.69045800 1.12084100 -0.49028947 0.04882253 1.52995347
40 1.74404100 -0.00003100 -0.00000200 -0.02474100 -0.01616300 1.40363107
41 1.36876300 -0.00003100 -0.00001700 -0.32324100 0.09379900 -0.20753000
42 1.94282419 1.01635893 -0.91221972 2.09828691 0.36918914 1.35024799
43 1.52344900 -0.00003400 -0.00000200 0.01413000 -0.08869300 0.51775900
44 1.59927900 -0.00000200 0.00001000 0.07477333 -0.03718786 1.28670049
45 5.51425263 -0.00000656 0.00001312 -0.27198600 0.00000429 0.00000346
46 0.19685100 0.00000200 -0.00000100 -0.34822500 0.00001500 -0.00000200
47 0.00000000 0.99951200 0.00000000 0.00000000 0.00000000 -1.57079600
48 -4.49218800 5.84765600 -3.19726600 0.00000000 0.00000000 -3.14155900
49 -7.27015463 21.65842006 -2.07283569 0.32988549 0.00989450 -0.79509741
50 9.62500000 0.04133497 -3.51562500 0.22850700 1.17432700 1.53866900
51 3.14881800 -0.01178200 -0.88071700 0.00000000 0.00000000 0.00000000
52 -3.96235800 -0.01178200 0.07771100 0.00000000 0.00000000 0.00000000
53 0.05046500 0.00000000 0.46481100 0.00000000 0.00000000 0.00000000
54 1.34472700 0.64062500 1.02734400 0.00000000 0.00000000 0.00000000
55 -2.55633500 -0.02560600 -1.23524000 0.00000000 0.00000000 0.00000000
56 -1.93822700 -2.78882700 -4.40212100 2.85215900 -0.11258400 -1.97203800
time 5
0 -0.00000200 8.44531300 -27.50000000 0.00000000 0.00000000 0.00002800
1 -0.00000435 0.00000000 0.00000000 1.57074300 -1.56713700 -1.57074300
2 4.25546800 -0.33518300 -0.00000200 0.00000000 0.00000000 -0.12484800
3 7.43124600 1.49647700 0.00000200 0.00000000 0.00000000 0.24545000
4 5.27847700 0.16554100 0.00000100 0.00000000 0.00000000 0.04851100
5 1.85944228 -8.20396926 1.42488850 1.97586400 1.15990900 -1.29878600
6 -6.21840867 -0.00001739 -0.00005871 -2.99077437 -0.65493804 1.71619419
7 11.94851562 -0.00000217 0.00000000 -0.31829834 -0.37163799 1.84569436
8 10.62329776 0.00000870 -0.00000435 1.06493881 -0.17479400 2.55557704
9 -4.75110100 -0.69449200 0.83057700 -0.09752300 -0.07215300 0.36368500
10 -1.68806800 0.00004500 -0.00003200 0.01721300 -0.01778000 0.66972300
11 -1.33614000 0.00005700 -0.00001200 0.02612700 -0.00326400 0.67798200
12 -4.82049000 -0.50946000 -0.22476000 -0.31019300 0.01220500 1.54294140
13 -1.82699600 -0.00006200 0.00000700 0.00229100 0.04043200 1.32937700
14 -1.43845225 0.00000984 0.00000328 -0.04326500 -0.06466056 0.49793836
15 -3.99235200 -0.89118600 -1.82790800 -0.39356900 0.38726400 1.76891800
16 -1.40591800 -0.00002400 -0.00000200 -0.00904047 -0.02805953 1.18716000
17 -1.17535800 0.00012800 -0.00002000 0.03573700 0.05772000 0.45865800
18 -4.52674700 -0.69057500 -1.12074400 -0.29888400 0.23439300 1.70854600
19 -1.74403800 0.00003500 -0.00000800 -0.02612493 -0.01378753 1.49740900
20 -1.36877100 0.00002500 0.00000400 0.00109907 0.05249600 -0.08315600
21 -1.87674627 -0.93592792 1.00080181 2.10040659 0.44180665 0.86547172
22 -1.52345300 0.00003100 0.00003100 0.08365293 0.15258047 0.60551100
23 -1.59928500 0.00000400 0.00001600 0.03405400 -0.02608300 0.63444500
24 5.58407703 0.11572888 0.29492200 2.70854510 -0.05530712 3.09751720
25 0.19684700 -0.00000100 0.00000300 2.79340692 -0.00069406 -3.14143033
26 0.86690880 -12.63340006 -1.58448194 1.97586200 1.15990900 1.84280300
27 6.21842171 0.00001522 0.00004349 -1.03651069 0.91373781 -1.97250665
28 11.94852649 -0.00006740 -0.00042398 -0.01626890 -0.40921252 -1.57595104
29 10.62327285 0.00000000 0.00002174 -1.35620718 -0.60651856 -0.01920927
30 4.75115200 0.69437400 -0.83047200 -0.33658232 -0.22394700 1.27218571
31 1.68806500 -0.00002500 0.00000100 -0.00123447 -0.02467147 1.48765907
32 1.33615100 -0.00005000 -0.00000800 0.01621200 -0.03516700 -0.06228800
33 4.82050900 0.50933800 0.22486500 -0.37684886 -0.01491234 1.55224837
34 1.82699600 0.00006700 0.00000900 -0.00051400 0.04045100 1.26078800
35 1.43657300 -0.00001000 0.00000700 0.01098500 -0.01043400 0.02903500
36 3.99235000 0.89108500 1.82799200 -0.58773400 -0.00855700 1.20567800
37 1.40591800 0.00002100 -0.00000600 -0.01283800 -0.02655500 1.32518600
38 1.17536900 -0.00013200 0.00000100 0.05517100 0.11024900 0.42008900
39 4.52675100 0.69045800 1.12084100 -0.49028947 0.04882253 1.52995347
40 1.74404100 -0.00003100 -0.00000200 -0.02474100 -0.01616300 1.40363107
41 1.36876300 -0.00003100 -0.00001700 -0.32324100 0.09379900 -0.20753000
42 1.94282419 1.01635893 -0.91221972 2.09829119 0.36918269 1.35025985
43 1.52344900 -0.00003400 -0.00000200 0.01413000 -0.08869300 0.51775900
44 1.59927900 -0.00000200 0.00001000 0.07477333 -0.03718786 1.28670049
45 5.51425263 -0.00000656 0.00001312 -0.27198600 0.00000429 0.00000346
46 0.19685100 0.00000200 -0.00000100 -0.34822500 0.00001500 -0.00000200
47 0.00000000 0.99951200 0.00000000 0.00000000 0.00000000 -1.57079600
48 -4.49218800 5.84765600 -3.19726600 0.00000000 0.00000000 -3.14155900
49 -7.45584336 21.65660022 -2.02525315 0.33186057 0.00402254 -0.80193247
50 9.62500000 0.04133497 -3.51562500 0.22850700 1.17432700 1.53866900
51 3.14881800 -0.01178200 -0.88071700 0.00000000 0.00000000 0.00000000
52 -3.96235800 -0.01178200 0.07771100 0.00000000 0.00000000 0.00000000
53 0.05046500 0.00000000 0.46481100 0.00000000 0.00000000 0.00000000
54 1.34472700 0.64062500 1.02734400 0.00000000 0.00000000 0.00000000
55 -2.55633500 -0.02560600 -1.23524000 0.00000000 0.00000000 0.00000000
56 -1.93822700 -2.78882700 -4.40212100 2.85215900 -0.11258400 -1.97203800
time 6
0 -0.00000200 8.44531300 -27.50000000 0.00000000 0.00000000 0.00002800
1 -0.00000435 0.00000000 0.00000000 1.57074300 -1.56713700 -1.57074300
2 4.25546800 -0.33518300 -0.00000200 0.00000000 0.00000000 -0.12484800
3 7.43124600 1.49647700 0.00000200 0.00000000 0.00000000 0.24545000
4 5.27847700 0.16554100 0.00000100 0.00000000 0.00000000 0.04851100
5 2.29067436 -7.60351912 0.82443836 1.97586400 1.15990900 -1.29878600
6 -6.21840867 -0.00001739 -0.00005871 -2.98417680 -0.65325491 1.74247846
7 11.94851562 -0.00000217 0.00000000 -0.30704845 -0.36549646 1.81444940
8 10.62329776 0.00000870 -0.00000435 1.07237518 -0.17106509 2.56455007
9 -4.75110100 -0.69449200 0.83057700 -0.09752300 -0.07215300 0.36368500
10 -1.68806800 0.00004500 -0.00003200 0.01721300 -0.01778000 0.66972300
11 -1.33614000 0.00005700 -0.00001200 0.02612700 -0.00326400 0.67798200
12 -4.82049000 -0.50946000 -0.22476000 -0.31019300 0.01220500 1.54294140
13 -1.82699600 -0.00006200 0.00000700 0.00229100 0.04043200 1.32937700
14 -1.43845225 0.00000984 0.00000328 -0.04326500 -0.06466056 0.49793836
15 -3.99235200 -0.89118600 -1.82790800 -0.39356900 0.38726400 1.76891800
16 -1.40591800 -0.00002400 -0.00000200 -0.00904047 -0.02805953 1.18716000
17 -1.17535800 0.00012800 -0.00002000 0.03573700 0.05772000 0.45865800
18 -4.52674700 -0.69057500 -1.12074400 -0.29888400 0.23439300 1.70854600
19 -1.74403800 0.00003500 -0.00000800 -0.02612493 -0.01378753 1.49740900
20 -1.36877100 0.00002500 0.00000400 0.00109907 0.05249600 -0.08315600
21 -1.87674627 -0.93592792 1.00080181 2.10043383 0.44180665 0.86547172
22 -1.52345300 0.00003100 0.00003100 0.08365293 0.15258047 0.60551100
23 -1.59928500 0.00000400 0.00001600 0.03405400 -0.02608300 0.63444500
24 5.58407703 0.11572888 0.29492200 2.70854510 -0.05530712 3.09751720
25 0.19684700 -0.00000100 0.00000300 2.79340692 -0.00069406 -3.14143033
26 0.97790131 -12.85720399 -1.61177534 1.97586200 1.15990900 1.84280300
27 6.21842171 0.00001522 0.00004349 -0.99395218 0.93271805 -1.93039919
28 11.94852649 -0.00006740 -0.00042398 -0.01029597 -0.38156094 -1.59462112
29 10.62327285 0.00000000 0.00002174 -1.42655910 -0.62253692 0.02933914
30 4.75115200 0.69437400 -0.83047200 -0.33658232 -0.22394700 1.27218571
31 1.68806500 -0.00002500 0.00000100 -0.00123447 -0.02467147 1.48765907
32 1.33615100 -0.00005000 -0.00000800 0.01621200 -0.03516700 -0.06228800
33 4.82050900 0.50933800 0.22486500 -0.37684886 -0.01491234 1.55224837
34 1.82699600 0.00006700 0.00000900 -0.00051400 0.04045100 1.26078800
35 1.43657300 -0.00001000 0.00000700 0.01098500 -0.01043400 0.02903500
36 3.99235000 0.89108500 1.82799200 -0.58773400 -0.00855700 1.20567800
37 1.40591800 0.00002100 -0.00000600 -0.01283800 -0.02655500 1.32518600
38 1.17536900 -0.00013200 0.00000100 0.05517100 0.11024900 0.42008900
39 4.52675100 0.69045800 1.12084100 -0.49028947 0.04882253 1.52995347
40 1.74404100 -0.00003100 -0.00000200 -0.02474100 -0.01616300 1.40363107
41 1.36876300 -0.00003100 -0.00001700 -0.32324100 0.09379900 -0.20753000
42 1.94282419 1.01635893 -0.91221972 2.09829119 0.36918269 1.35025985
43 1.52344900 -0.00003400 -0.00000200 0.01413000 -0.08869300 0.51775900
44 1.59927900 -0.00000200 0.00001000 0.07477333 -0.03718786 1.28670049
45 5.51425263 -0.00000656 0.00001312 -0.27198600 0.00000429 0.00000346
46 0.19685100 0.00000200 -0.00000100 -0.34822500 0.00001500 -0.00000200
47 0.00000000 0.99951200 0.00000000 0.00000000 0.00000000 -1.57079600
48 -4.49218800 5.84765600 -3.19726600 0.00000000 0.00000000 -3.14155900
49 -7.44801149 21.65686747 -2.05982032 0.33134804 -0.01351308 -0.84257453
50 9.62500000 0.04133497 -3.51562500 0.22850700 1.17432700 1.53866900
51 3.14881800 -0.01178200 -0.88071700 0.00000000 0.00000000 0.00000000
52 -3.96235800 -0.01178200 0.07771100 0.00000000 0.00000000 0.00000000
53 0.05046500 0.00000000 0.46481100 0.00000000 0.00000000 0.00000000
54 1.34472700 0.64062500 1.02734400 0.00000000 0.00000000 0.00000000
55 -2.55633500 -0.02560600 -1.23524000 0.00000000 0.00000000 0.00000000
56 -1.93822700 -2.78882700 -4.40212100 2.85215900 -0.11258400 -1.97203800
time 7
0 -0.00000200 8.44531300 -27.50000000 0.00000000 0.00000000 0.00002800
1 -0.00000435 0.00000000 0.00000000 1.57074300 -1.56713700 -1.57074300
2 4.25546800 -0.33518300 -0.00000200 0.00000000 0.00000000 -0.12484800
3 7.43124600 1.49647700 0.00000200 0.00000000 0.00000000 0.24545000
4 5.27847700 0.16554100 0.00000100 0.00000000 0.00000000 0.04851100
5 2.78559105 -6.91391128 0.13664989 1.97586400 1.15990900 -1.29878600
6 -6.21840867 -0.00001739 -0.00005871 -2.99681880 -0.64883376 1.78510932
7 11.94851562 -0.00000217 0.00000000 -0.30374882 -0.35358842 1.80606767
8 10.62329776 0.00000870 -0.00000435 1.07006820 -0.14263808 2.52197880
9 -4.75110100 -0.69449200 0.83057700 -0.09752300 -0.07215300 0.36368500
10 -1.68806800 0.00004500 -0.00003200 0.01721300 -0.01778000 0.66972300
11 -1.33614000 0.00005700 -0.00001200 0.02612700 -0.00326400 0.67798200
12 -4.82049000 -0.50946000 -0.22476000 -0.31019300 0.01220500 1.54294140
13 -1.82699600 -0.00006200 0.00000700 0.00229100 0.04043200 1.32937700
14 -1.43845225 0.00000984 0.00000328 -0.04326500 -0.06466056 0.49793836
15 -3.99235200 -0.89118600 -1.82790800 -0.39356900 0.38726400 1.76891800
16 -1.40591800 -0.00002400 -0.00000200 -0.00904047 -0.02805953 1.18716000
17 -1.17535800 0.00012800 -0.00002000 0.03573700 0.05772000 0.45865800
18 -4.52674700 -0.69057500 -1.12074400 -0.29888400 0.23439300 1.70854600
19 -1.74403800 0.00003500 -0.00000800 -0.02612493 -0.01378753 1.49740900
20 -1.36877100 0.00002500 0.00000400 0.00109907 0.05249600 -0.08315600
21 -1.87674627 -0.93592792 1.00080181 2.10043383 0.44180665 0.86547172
22 -1.52345300 0.00003100 0.00003100 0.08365293 0.15258047 0.60551100
23 -1.59928500 0.00000400 0.00001600 0.03405400 -0.02608300 0.63444500
24 5.58407703 0.11572888 0.29492200 2.70854768 -0.05532864 3.09747058
25 0.19684700 -0.00000100 0.00000300 2.79340692 -0.00069406 -3.14143033
26 1.11800612 -13.13923392 -1.64634671 1.97586200 1.15990900 1.84280300
27 6.21842171 0.00001522 0.00004349 -0.91768061 0.95391528 -1.87700173
28 11.94852649 -0.00006740 -0.00042398 -0.00423096 -0.35198180 -1.61357866
29 10.62327285 0.00000000 0.00002174 -1.52878754 -0.62686096 0.10807054
30 4.75115200 0.69437400 -0.83047200 -0.33658232 -0.22394700 1.27219907
31 1.68806500 -0.00002500 0.00000100 -0.00123447 -0.02467147 1.48765907
32 1.33615100 -0.00005000 -0.00000800 0.01621200 -0.03516700 -0.06228800
33 4.82050900 0.50933800 0.22486500 -0.37684886 -0.01491234 1.55224837
34 1.82699600 0.00006700 0.00000900 -0.00051400 0.04045100 1.26078800
35 1.43657300 -0.00001000 0.00000700 0.01098500 -0.01043400 0.02903500
36 3.99235000 0.89108500 1.82799200 -0.58773400 -0.00855700 1.20567800
37 1.40591800 0.00002100 -0.00000600 -0.01283800 -0.02655500 1.32518600
38 1.17536900 -0.00013200 0.00000100 0.05517100 0.11024900 0.42008900
39 4.52675100 0.69045800 1.12084100 -0.49028947 0.04882253 1.52995347
40 1.74404100 -0.00003100 -0.00000200 -0.02474100 -0.01616300 1.40363107
41 1.36876300 -0.00003100 -0.00001700 -0.32324100 0.09379900 -0.20753000
42 1.94282419 1.01635893 -0.91221972 2.09825967 0.36918914 1.35024799
43 1.52344900 -0.00003400 -0.00000200 0.01413000 -0.08869300 0.51775900
44 1.59927900 -0.00000200 0.00001000 0.07477333 -0.03718786 1.28670049
45 5.51425263 -0.00000656 0.00001312 -0.27198600 0.00000429 0.00000346
46 0.19685100 0.00000200 -0.00000100 -0.34822500 0.00001500 -0.00000200
47 0.00000000 0.99951200 0.00000000 0.00000000 0.00000000 -1.57079600
48 -4.49218800 5.84765600 -3.19726600 0.00000000 0.00000000 -3.14155900
49 -7.21251228 21.65504810 -2.14482074 0.31531921 -0.03893716 -0.92135636
50 9.62500000 0.04133497 -3.51562500 0.22850700 1.17432700 1.53866900
51 3.14881800 -0.01178200 -0.88071700 0.00000000 0.00000000 0.00000000
52 -3.96235800 -0.01178200 0.07771100 0.00000000 0.00000000 0.00000000
53 0.05046500 0.00000000 0.46481100 0.00000000 0.00000000 0.00000000
54 1.34472700 0.64062500 1.02734400 0.00000000 0.00000000 0.00000000
55 -2.55633500 -0.02560600 -1.23524000 0.00000000 0.00000000 0.00000000
56 -1.93822700 -2.78882700 -4.40212100 2.85215900 -0.11258400 -1.97203800
time 8
0 -0.00000200 8.44531300 -27.50000000 0.00000000 0.00000000 0.00002800
1 -0.00000435 0.00000000 0.00000000 1.57074300 -1.56713700 -1.57074300
2 4.25546800 -0.33518300 -0.00000200 0.00000000 0.00000000 -0.12484800
3 7.43124600 1.49647700 0.00000200 0.00000000 0.00000000 0.24545000
4 5.27847700 0.16554100 0.00000100 0.00000000 0.00000000 0.04851100
5 3.27868790 -6.22612282 -0.55113810 1.97586400 1.15990900 -1.29878600
6 -6.21840867 -0.00001739 -0.00005871 -3.01274245 -0.63168854 1.82064214
7 11.94851562 -0.00000217 0.00000000 -0.30155519 -0.34271262 1.80008634
8 10.62329776 0.00000870 -0.00000435 1.04563713 -0.12407640 2.44835184
9 -4.75110100 -0.69449200 0.83057700 -0.09752300 -0.07215407 0.36368500
10 -1.68806800 0.00004500 -0.00003200 0.01721300 -0.01778000 0.66972300
11 -1.33614000 0.00005700 -0.00001200 0.02612700 -0.00326400 0.67798200
12 -4.82049000 -0.50946000 -0.22476000 -0.31019300 0.01220500 1.54294140
13 -1.82699600 -0.00006200 0.00000700 0.00229100 0.04043200 1.32937700
14 -1.43845225 0.00000984 0.00000328 -0.04326500 -0.06466056 0.49793836
15 -3.99235200 -0.89118600 -1.82790800 -0.39356900 0.38726400 1.76891800
16 -1.40591800 -0.00002400 -0.00000200 -0.00904100 -0.02805900 1.18716000
17 -1.17535800 0.00012800 -0.00002000 0.03573700 0.05772000 0.45865800
18 -4.52674700 -0.69057500 -1.12074400 -0.29888400 0.23439300 1.70854600
19 -1.74403800 0.00003500 -0.00000800 -0.02612600 -0.01378700 1.49740900
20 -1.36877100 0.00002500 0.00000400 0.00109800 0.05249600 -0.08315600
21 -1.87674627 -0.93592792 1.00080181 2.10043383 0.44180665 0.86547172
22 -1.52345300 0.00003100 0.00003100 0.08365347 0.15257993 0.60551100
23 -1.59928500 0.00000400 0.00001600 0.03405400 -0.02608300 0.63444500
24 5.58407703 0.11572888 0.29492200 2.70854510 -0.05530712 3.09751720
25 0.19684700 -0.00000100 0.00000300 2.79340692 -0.00069406 -3.14143033
26 1.27630654 -13.45765413 -1.68273744 1.97586200 1.15990900 1.84280300
27 6.21842171 0.00001522 0.00004349 -0.85453189 0.98233613 -1.83542630
28 11.94852649 -0.00006740 -0.00042398 0.00707336 -0.32857668 -1.64824835
29 10.62327285 0.00000000 0.00002174 -1.61269728 -0.60744492 0.20267556
30 4.75115200 0.69437400 -0.83047200 -0.33658232 -0.22394700 1.27218571
31 1.68806500 -0.00002500 0.00000100 -0.00123447 -0.02467147 1.48765907
32 1.33615100 -0.00005000 -0.00000800 0.01621200 -0.03516700 -0.06228800
33 4.82050900 0.50933800 0.22486500 -0.37684886 -0.01491234 1.55224837
34 1.82699600 0.00006700 0.00000900 -0.00051293 0.04045047 1.26078800
35 1.43657300 -0.00001000 0.00000700 0.01098500 -0.01043400 0.02903500
36 3.99235000 0.89108500 1.82799200 -0.58773400 -0.00855700 1.20567800
37 1.40591800 0.00002100 -0.00000600 -0.01283800 -0.02655500 1.32518600
38 1.17536900 -0.00013200 0.00000100 0.05517100 0.11024900 0.42008900
39 4.52675100 0.69045800 1.12084100 -0.49028947 0.04882253 1.52995347
40 1.74404100 -0.00003100 -0.00000200 -0.02474100 -0.01616300 1.40363000
41 1.36876300 -0.00003100 -0.00001700 -0.32324100 0.09379900 -0.20753000
42 1.94282419 1.01635893 -0.91221972 2.09829119 0.36918269 1.35025985
43 1.52344900 -0.00003400 -0.00000200 0.01413000 -0.08869300 0.51775900
44 1.59927900 -0.00000200 0.00001000 0.07477333 -0.03718786 1.28670049
45 5.51425263 -0.00000656 0.00001312 -0.27198600 0.00000429 0.00000346
46 0.19685100 0.00000200 -0.00000100 -0.34822500 0.00001500 -0.00000200
47 0.00000000 0.99951200 0.00000000 0.00000000 0.00000000 -1.57079600
48 -4.49218800 5.84765600 -3.19726600 0.00000000 0.00000000 -3.14155900
49 -6.94040285 21.65322826 -2.20781412 0.28126155 -0.07798658 -1.00295278
50 9.62500000 0.04133497 -3.51562500 0.22850700 1.17432700 1.53866900
51 3.14881800 -0.01178200 -0.88071700 0.00000000 0.00000000 0.00000000
52 -3.96235800 -0.01178200 0.07771100 0.00000000 0.00000000 0.00000000
53 0.05046500 0.00000000 0.46481100 0.00000000 0.00000000 0.00000000
54 1.34472700 0.64062500 1.02734400 0.00000000 0.00000000 0.00000000
55 -2.55633500 -0.02560600 -1.23524000 0.00000000 0.00000000 0.00000000
56 -1.93822700 -2.78882700 -4.40212100 2.85215900 -0.11258400 -1.97203800
time 9
0 -0.00000200 8.44531300 -27.50000000 0.00000000 0.00000000 0.00002800
1 -0.00000435 0.00000000 0.00000000 1.57074300 -1.56713700 -1.57074300
2 4.25546800 -0.33518300 -0.00000200 0.00000000 0.00000000 -0.12484800
3 7.43124600 1.49647700 0.00000200 0.00000000 0.00000000 0.24545000
4 5.27847700 0.16554100 0.00000100 0.00000000 0.00000000 0.04851100
5 3.70991998 -5.62567314 -1.15158824 1.97586400 1.15990900 -1.29878600
6 -6.21840867 -0.00001739 -0.00005871 -3.02793312 -0.60892419 1.84757825
7 11.94851562 -0.00000217 0.00000000 -0.29881045 -0.33885905 1.79234076
8 10.62329776 0.00000870 -0.00000435 1.02063006 -0.11783728 2.37412940
9 -4.75110100 -0.69449200 0.83057700 -0.09752300 -0.07215407 0.36368500
10 -1.68806800 0.00004500 -0.00003200 0.01721300 -0.01778000 0.66972300
11 -1.33614000 0.00005700 -0.00001200 0.02612700 -0.00326400 0.67798200
12 -4.82049000 -0.50946000 -0.22476000 -0.31019300 0.01220500 1.54294140
13 -1.82699600 -0.00006200 0.00000700 0.00229100 0.04043200 1.32937700
14 -1.43845225 0.00000984 0.00000328 -0.04326500 -0.06466056 0.49793836
15 -3.99235200 -0.89118600 -1.82790800 -0.39356900 0.38726400 1.76891800
16 -1.40591800 -0.00002400 -0.00000200 -0.00904100 -0.02805900 1.18716000
17 -1.17535800 0.00012800 -0.00002000 0.03573700 0.05772000 0.45865800
18 -4.52674700 -0.69057500 -1.12074400 -0.29888400 0.23439300 1.70854600
19 -1.74403800 0.00003500 -0.00000800 -0.02612600 -0.01378700 1.49740900
20 -1.36877100 0.00002500 0.00000400 0.00109800 0.05249600 -0.08315600
21 -1.87674627 -0.93592792 1.00080181 2.10043383 0.44180665 0.86547172
22 -1.52345300 0.00003100 0.00003100 0.08365347 0.15257993 0.60551100
23 -1.59928500 0.00000400 0.00001600 0.03405400 -0.02608300 0.63444500
24 5.58407703 0.11572888 0.29492200 2.70854768 -0.05532864 3.09747058
25 0.19684700 -0.00000100 0.00000300 2.79340692 -0.00069406 -3.14143033
26 1.44552413 -13.79426993 -1.72276785 1.97586200 1.15990900 1.84280300
27 6.21842171 0.00001522 0.00004349 -0.79159991 1.01090029 -1.80235576
28 11.94852649 -0.00006740 -0.00042398 0.01845103 -0.31273839 -1.68295306
29 10.62327285 0.00000000 0.00002174 -1.68097136 -0.58765523 0.28582715
30 4.75115200 0.69437400 -0.83047200 -0.33658232 -0.22394700 1.27218571
31 1.68806500 -0.00002500 0.00000100 -0.00123447 -0.02467147 1.48765907
32 1.33615100 -0.00005000 -0.00000800 0.01621200 -0.03516700 -0.06228800
33 4.82050900 0.50933800 0.22486500 -0.37684886 -0.01491234 1.55224837
34 1.82699600 0.00006700 0.00000900 -0.00051293 0.04045047 1.26078800
35 1.43657300 -0.00001000 0.00000700 0.01098500 -0.01043400 0.02903500
36 3.99235000 0.89108500 1.82799200 -0.58773400 -0.00855700 1.20567800
37 1.40591800 0.00002100 -0.00000600 -0.01283800 -0.02655500 1.32518600
38 1.17536900 -0.00013200 0.00000100 0.05517100 0.11024900 0.42008900
39 4.52675100 0.69045800 1.12084100 -0.49028947 0.04882253 1.52995347
40 1.74404100 -0.00003100 -0.00000200 -0.02474100 -0.01616300 1.40363000
41 1.36876300 -0.00003100 -0.00001700 -0.32324100 0.09379900 -0.20753000
42 1.94282419 1.01635893 -0.91221972 2.09829119 0.36918269 1.35025985
43 1.52344900 -0.00003400 -0.00000200 0.01413000 -0.08869300 0.51775900
44 1.59927900 -0.00000200 0.00001000 0.07477333 -0.03718786 1.28670049
45 5.51425263 -0.00000656 0.00001312 -0.27198600 0.00000429 0.00000346
46 0.19685100 0.00000200 -0.00000100 -0.34822500 0.00001500 -0.00000200
47 0.00000000 0.99951200 0.00000000 0.00000000 0.00000000 -1.57079600
48 -4.49218800 5.84765600 -3.19726600 0.00000000 0.00000000 -3.14155900
49 -6.61417977 21.65140888 -2.25022757 0.25055232 -0.11970654 -1.07648307
50 9.62500000 0.04133497 -3.51562500 0.22850700 1.17432700 1.53866900
51 3.14881800 -0.01178200 -0.88071700 0.00000000 0.00000000 0.00000000
52 -3.96235800 -0.01178200 0.07771100 0.00000000 0.00000000 0.00000000
53 0.05046500 0.00000000 0.46481100 0.00000000 0.00000000 0.00000000
54 1.34472700 0.64062500 1.02734400 0.00000000 0.00000000 0.00000000
55 -2.55633500 -0.02560600 -1.23524000 0.00000000 0.00000000 0.00000000
56 -1.93822700 -2.78882700 -4.40212100 2.85215900 -0.11258400 -1.97203800
time 10
0 -0.00000200 8.44531300 -27.50000000 0.00000000 0.00000000 0.00002800
1 -0.00000435 0.00000000 0.00000000 1.57074300 -1.56713700 -1.57074300
2 4.25546800 -0.33518300 -0.00000200 0.00000000 0.00000000 -0.12484800
3 7.43124600 1.49647700 0.00000200 0.00000000 0.00000000 0.24545000
4 5.27847700 0.16554100 0.00000100 0.00000000 0.00000000 0.04851100
5 4.01560364 -5.19989917 -1.57554237 1.97586400 1.15990900 -1.29878600
6 -6.21840867 -0.00001739 -0.00005871 -3.05263434 -0.59378616 1.87850529
7 11.94851562 -0.00000217 0.00000000 -0.29740526 -0.34269746 1.78790601
8 10.62329776 0.00000870 -0.00000435 0.99644746 -0.10068584 2.32639788
9 -4.75110100 -0.69449200 0.83057700 -0.09752300 -0.07215407 0.36368500
10 -1.68806800 0.00004500 -0.00003200 0.01721300 -0.01778000 0.66972300
11 -1.33614000 0.00005700 -0.00001200 0.02612700 -0.00326400 0.67798200
12 -4.82049000 -0.50946000 -0.22476000 -0.31019300 0.01220500 1.54294140
13 -1.82699600 -0.00006200 0.00000700 0.00229100 0.04043200 1.32937700
14 -1.43845225 0.00000984 0.00000328 -0.04326500 -0.06466056 0.49793836
15 -3.99235200 -0.89118600 -1.82790800 -0.39356900 0.38726400 1.76891800
16 -1.40591800 -0.00002400 -0.00000200 -0.00904100 -0.02805900 1.18716000
17 -1.17535800 0.00012800 -0.00002000 0.03573700 0.05772000 0.45865800
18 -4.52674700 -0.69057500 -1.12074400 -0.29888400 0.23439300 1.70854600
19 -1.74403800 0.00003500 -0.00000800 -0.02612600 -0.01378700 1.49740900
20 -1.36877100 0.00002500 0.00000400 0.00109800 0.05249600 -0.08315600
21 -1.87674627 -0.93592792 1.00080181 2.10042969 0.44181178 0.86546203
22 -1.52345300 0.00003100 0.00003100 0.08365347 0.15257993 0.60551100
23 -1.59928500 0.00000400 0.00001600 0.03405400 -0.02608300 0.63444500
24 5.58407703 0.11572888 0.29492200 2.70854510 -0.05530712 3.09751720
25 0.19684700 -0.00000100 0.00000300 2.79340692 -0.00069406 -3.14143033
26 1.61292234 -14.13270558 -1.76279780 1.97586200 1.15990900 1.84280300
27 6.21842171 0.00001522 0.00004349 -0.71651000 1.02819292 -1.77740447
28 11.94852649 -0.00006740 -0.00042398 0.02422226 -0.30653417 -1.70031530
29 10.62327285 0.00000000 0.00002174 -1.73059321 -0.58076023 0.33055752
30 4.75115200 0.69437400 -0.83047200 -0.33658232 -0.22394700 1.27218571
31 1.68806500 -0.00002500 0.00000100 -0.00123447 -0.02467147 1.48765907
32 1.33615100 -0.00005000 -0.00000800 0.01621200 -0.03516700 -0.06228800
33 4.82050900 0.50933800 0.22486500 -0.37684886 -0.01491234 1.55226760
34 1.82699600 0.00006700 0.00000900 -0.00051293 0.04045047 1.26078800
35 1.43657300 -0.00001000 0.00000700 0.01098500 -0.01043400 0.02903500
36 3.99235000 0.89108500 1.82799200 -0.58773400 -0.00855700 1.20567800
37 1.40591800 0.00002100 -0.00000600 -0.01283800 -0.02655500 1.32518600
38 1.17536900 -0.00013200 0.00000100 0.05517100 0.11024900 0.42008900
39 4.52675100 0.69045800 1.12084100 -0.49028947 0.04882253 1.52995347
40 1.74404100 -0.00003100 -0.00000200 -0.02474100 -0.01616300 1.40363000
41 1.36876300 -0.00003100 -0.00001700 -0.32324100 0.09379900 -0.20753000
42 1.94282419 1.01635893 -0.91221972 2.09829119 0.36918269 1.35025985
43 1.52344900 -0.00003400 -0.00000200 0.01413000 -0.08869300 0.51775900
44 1.59927900 -0.00000200 0.00001000 0.07477333 -0.03718786 1.28672453
45 5.51425263 -0.00000656 0.00001312 -0.27198600 0.00000429 0.00000346
46 0.19685100 0.00000200 -0.00000100 -0.34822500 0.00001500 -0.00000200
47 0.00000000 0.99951200 0.00000000 0.00000000 0.00000000 -1.57079600
48 -4.49218800 5.84765600 -3.19726600 0.00000000 0.00000000 -3.14155900
49 -6.12868149 21.64750288 -2.29057117 0.22887137 -0.14130895 -1.14004121
50 9.62500000 0.04133497 -3.51562500 0.22850700 1.17432700 1.53866900
51 3.14881800 -0.01178200 -0.88071700 0.00000000 0.00000000 0.00000000
52 -3.96235800 -0.01178200 0.07771100 0.00000000 0.00000000 0.00000000
53 0.05046500 0.00000000 0.46481100 0.00000000 0.00000000 0.00000000
54 1.34472700 0.64062500 1.02734400 0.00000000 0.00000000 0.00000000
55 -2.55633500 -0.02560600 -1.23524000 0.00000000 0.00000000 0.00000000
56 -1.93822700 -2.78882700 -4.40212100 2.85215900 -0.11258400 -1.97203800
time 11
0 -0.00000200 8.44531300 -27.50000000 0.00000000 0.00000000 0.00002800
1 -0.00000435 0.00000000 0.00000000 1.57074300 -1.56713700 -1.57074300
2 4.25546800 -0.33518300 -0.00000200 0.00000000 0.00000000 -0.12484800
3 7.43124600 1.49647700 0.00000200 0.00000000 0.00000000 0.24545000
4 5.27847700 0.16554100 0.00000100 0.00000000 0.00000000 0.04851100
5 4.13023536 -5.03977938 -1.73566263 1.97586400 1.15990900 -1.29878600
6 -6.21840867 -0.00001739 -0.00005871 -3.07363297 -0.58586929 1.90171472
7 11.94851562 -0.00000217 0.00000000 -0.30347742 -0.34707459 1.80569992
8 10.62329776 0.00000870 -0.00000435 0.97930507 -0.07986048 2.26819278
9 -4.75110100 -0.69449200 0.83057700 -0.09752300 -0.07215407 0.36368500
10 -1.68806800 0.00004500 -0.00003200 0.01721300 -0.01778000 0.66972300
11 -1.33614000 0.00005700 -0.00001200 0.02612700 -0.00326400 0.67798200
12 -4.82049000 -0.50946000 -0.22476000 -0.31019300 0.01220500 1.54294140
13 -1.82699600 -0.00006200 0.00000700 0.00229100 0.04043200 1.32937700
14 -1.43845225 0.00000984 0.00000328 -0.04326674 -0.06465939 0.49796528
15 -3.99235200 -0.89118600 -1.82790800 -0.39356900 0.38726400 1.76891800
16 -1.40591800 -0.00002400 -0.00000200 -0.00904100 -0.02805900 1.18716000
17 -1.17535800 0.00012800 -0.00002000 0.03573700 0.05772000 0.45865800
18 -4.52674700 -0.69057500 -1.12074400 -0.29888400 0.23439300 1.70854600
19 -1.74403800 0.00003500 -0.00000800 -0.02612600 -0.01378700 1.49740900
20 -1.36877100 0.00002500 0.00000400 0.00109800 0.05249600 -0.08315600
21 -1.87674627 -0.93592792 1.00080181 2.10040659 0.44180665 0.86547172
22 -1.52345300 0.00003100 0.00003100 0.08365347 0.15257993 0.60551100
23 -1.59928500 0.00000400 0.00001600 0.03405400 -0.02608300 0.63444500
24 5.58407703 0.11572888 0.29492200 2.70854768 -0.05532864 3.09747058
25 0.19684700 -0.00000100 0.00000300 2.79340692 -0.00069406 -3.14143033
26 1.77122322 -14.45112625 -1.80100791 1.97586200 1.15990900 1.84280300
27 6.21842171 0.00001522 0.00004349 -0.64595826 1.03505859 -1.76564810
28 11.94852649 -0.00006740 -0.00042398 0.02649329 -0.30620989 -1.70682549
29 10.62327285 0.00000000 0.00002174 -1.76538374 -0.57936553 0.35770655
30 4.75115200 0.69437400 -0.83047200 -0.33658232 -0.22394700 1.27218571
31 1.68806500 -0.00002500 0.00000100 -0.00123447 -0.02467147 1.48765907
32 1.33615100 -0.00005000 -0.00000800 0.01621200 -0.03516700 -0.06228800
33 4.82050900 0.50933800 0.22486500 -0.37684886 -0.01491234 1.55224837
34 1.82699600 0.00006700 0.00000900 -0.00051293 0.04045047 1.26078800
35 1.43657300 -0.00001000 0.00000700 0.01098500 -0.01043400 0.02903500
36 3.99235000 0.89108500 1.82799200 -0.58773400 -0.00855700 1.20567800
37 1.40591800 0.00002100 -0.00000600 -0.01283800 -0.02655500 1.32518600
38 1.17536900 -0.00013200 0.00000100 0.05517100 0.11024900 0.42008900
39 4.52675100 0.69045800 1.12084100 -0.49028947 0.04882253 1.52995347
40 1.74404100 -0.00003100 -0.00000200 -0.02474100 -0.01616300 1.40363000
41 1.36876300 -0.00003100 -0.00001700 -0.32324100 0.09379900 -0.20753000
42 1.94282419 1.01635893 -0.91221972 2.09829119 0.36918269 1.35025985
43 1.52344900 -0.00003400 -0.00000200 0.01413000 -0.08869300 0.51775900
44 1.59927900 -0.00000200 0.00001000 0.07477333 -0.03718786 1.28670049
45 5.51425263 -0.00000656 0.00001312 -0.27200968 0.00000429 0.00000346
46 0.19685100 0.00000200 -0.00000100 -0.34822500 0.00001500 -0.00000200
47 0.00000000 0.99951200 0.00000000 0.00000000 0.00000000 -1.57079600
48 -4.49218800 5.84765600 -3.19726600 0.00000000 0.00000000 -3.14155900
49 -5.57070719 21.64568305 -2.27808363 0.20963449 -0.15160335 -1.19634999
50 9.62500000 0.04133497 -3.51562500 0.22850700 1.17432700 1.53866900
51 3.14881800 -0.01178200 -0.88071700 0.00000000 0.00000000 0.00000000
52 -3.96235800 -0.01178200 0.07771100 0.00000000 0.00000000 0.00000000
53 0.05046500 0.00000000 0.46481100 0.00000000 0.00000000 0.00000000
54 1.34472700 0.64062500 1.02734400 0.00000000 0.00000000 0.00000000
55 -2.55633500 -0.02560600 -1.23524000 0.00000000 0.00000000 0.00000000
56 -1.93822700 -2.78882700 -4.40212100 2.85215900 -0.11258400 -1.97203800
time 12
0 -0.00000200 8.44531300 -27.50000000 0.00000000 0.00000000 0.00002800
1 -0.00000435 0.00000000 0.00000000 1.57074300 -1.56713700 -1.57074300
2 4.25546800 -0.33518300 -0.00000200 0.00000000 0.00000000 -0.12484800
3 7.43124600 1.49647700 0.00000200 0.00000000 0.00000000 0.24545000
4 5.27847700 0.16554100 0.00000100 0.00000000 0.00000000 0.04851100
5 4.13023536 -5.03977938 -1.73566263 1.97586400 1.15990900 -1.29878600
6 -6.21840867 -0.00001739 -0.00005871 -3.07068243 -0.58074401 1.90383699
7 11.94851562 -0.00000217 0.00000000 -0.31307361 -0.34617495 1.83442841
8 10.62329776 0.00000870 -0.00000435 0.97780203 -0.06187153 2.19842940
9 -4.75110100 -0.69449200 0.83057700 -0.09752300 -0.07215407 0.36368500
10 -1.68806800 0.00004500 -0.00003200 0.01721300 -0.01778000 0.66972300
11 -1.33614000 0.00005700 -0.00001200 0.02612700 -0.00326400 0.67798200
12 -4.82049000 -0.50946000 -0.22476000 -0.31019300 0.01220500 1.54294140
13 -1.82699600 -0.00006200 0.00000700 0.00229100 0.04043200 1.32937700
14 -1.43845225 0.00000984 0.00000328 -0.04326674 -0.06465939 0.49796528
15 -3.99235200 -0.89118600 -1.82790800 -0.39356900 0.38726400 1.76891800
16 -1.40591800 -0.00002400 -0.00000200 -0.00904100 -0.02805900 1.18716000
17 -1.17535800 0.00012800 -0.00002000 0.03573700 0.05772000 0.45865800
18 -4.52674700 -0.69057500 -1.12074400 -0.29888400 0.23439300 1.70854600
19 -1.74403800 0.00003500 -0.00000800 -0.02612600 -0.01378700 1.49740900
20 -1.36877100 0.00002500 0.00000400 0.00109800 0.05249600 -0.08315600
21 -1.87674627 -0.93592792 1.00080181 2.10042969 0.44181178 0.86546203
22 -1.52345300 0.00003100 0.00003100 0.08365347 0.15257993 0.60551100
23 -1.59928500 0.00000400 0.00001600 0.03405400 -0.02608300 0.63444500
24 5.58407703 0.11572888 0.29492200 2.70854510 -0.05530712 3.09751720
25 0.19684700 -0.00000100 0.00000300 2.79340692 -0.00069406 -3.14143033
26 1.91132804 -14.73133635 -1.83375989 1.97586200 1.15990900 1.84280300
27 6.21842171 0.00001522 0.00004349 -0.61113083 1.03230381 -1.77922302
28 11.94852649 -0.00006740 -0.00042398 0.02822370 -0.30995342 -1.71150363
29 10.62327285 0.00000000 0.00002174 -1.78240600 -0.56946214 0.37922201
30 4.75115200 0.69437400 -0.83047200 -0.33658232 -0.22394700 1.27219907
31 1.68806500 -0.00002500 0.00000100 -0.00123447 -0.02467147 1.48765907
32 1.33615100 -0.00005000 -0.00000800 0.01621200 -0.03516700 -0.06228800
33 4.82050900 0.50933800 0.22486500 -0.37684886 -0.01491234 1.55224837
34 1.82699600 0.00006700 0.00000900 -0.00051293 0.04045047 1.26078800
35 1.43657300 -0.00001000 0.00000700 0.01098500 -0.01043400 0.02903500
36 3.99235000 0.89108500 1.82799200 -0.58773400 -0.00855700 1.20567800
37 1.40591800 0.00002100 -0.00000600 -0.01283800 -0.02655500 1.32518600
38 1.17536900 -0.00013200 0.00000100 0.05517100 0.11024900 0.42008900
39 4.52675100 0.69045800 1.12084100 -0.49028947 0.04882253 1.52995347
40 1.74404100 -0.00003100 -0.00000200 -0.02474100 -0.01616300 1.40363000
41 1.36876300 -0.00003100 -0.00001700 -0.32324100 0.09379900 -0.20753000
42 1.94282419 1.01635893 -0.91221972 2.09829119 0.36918269 1.35025985
43 1.52344900 -0.00003400 -0.00000200 0.01413000 -0.08869300 0.51775900
44 1.59927900 -0.00000200 0.00001000 0.07477333 -0.03718786 1.28670049
45 5.51425263 -0.00000656 0.00001312 -0.27198600 0.00000429 0.00000346
46 0.19685100 0.00000200 -0.00000100 -0.34822500 0.00001500 -0.00000200
47 0.00000000 0.99951200 0.00000000 0.00000000 0.00000000 -1.57079600
48 -4.49218800 5.84765600 -3.19726600 0.00000000 0.00000000 -3.14155900
49 -5.09356523 21.64177651 -2.08412455 0.19527447 -0.15407194 -1.24508383
50 9.62500000 0.04133497 -3.51562500 0.22850700 1.17432700 1.53866900
51 3.14881800 -0.01178200 -0.88071700 0.00000000 0.00000000 0.00000000
52 -3.96235800 -0.01178200 0.07771100 0.00000000 0.00000000 0.00000000
53 0.05046500 0.00000000 0.46481100 0.00000000 0.00000000 0.00000000
54 1.34472700 0.64062500 1.02734400 0.00000000 0.00000000 0.00000000
55 -2.55633500 -0.02560600 -1.23524000 0.00000000 0.00000000 0.00000000
56 -1.93822700 -2.78882700 -4.40212100 2.85215900 -0.11258400 -1.97203800
time 13
0 -0.00000200 8.44531300 -27.50000000 0.00000000 0.00000000 0.00002800
1 -0.00000435 0.00000000 0.00000000 1.57074300 -1.56713700 -1.57074300
2 4.25546800 -0.33518300 -0.00000200 0.00000000 0.00000000 -0.12484800
3 7.43124600 1.49647700 0.00000200 0.00000000 0.00000000 0.24545000
4 5.27847700 0.16554100 0.00000100 0.00000000 0.00000000 0.04851100
5 4.13023536 -5.03977938 -1.73566263 1.97586400 1.15990900 -1.29878600
6 -6.21840867 -0.00001739 -0.00005871 -3.05160234 -0.57852262 1.89737524
7 11.94851562 -0.00000217 0.00000000 -0.31907308 -0.34386961 1.85263004
8 10.62329776 0.00000870 -0.00000435 0.98029670 -0.04622224 2.14921595
9 -4.75110100 -0.69449200 0.83057700 -0.09752300 -0.07215407 0.36368500
10 -1.68806800 0.00004500 -0.00003200 0.01721300 -0.01778000 0.66972300
11 -1.33614000 0.00005700 -0.00001200 0.02612700 -0.00326400 0.67798200
12 -4.82049000 -0.50946000 -0.22476000 -0.31019300 0.01220500 1.54294140
13 -1.82699600 -0.00006200 0.00000700 0.00229100 0.04043200 1.32937700
14 -1.43845225 0.00000984 0.00000328 -0.04326674 -0.06465939 0.49796528
15 -3.99235200 -0.89118600 -1.82790800 -0.39356900 0.38726400 1.76891800
16 -1.40591800 -0.00002400 -0.00000200 -0.00904100 -0.02805900 1.18716000
17 -1.17535800 0.00012800 -0.00002000 0.03573700 0.05772000 0.45865800
18 -4.52674700 -0.69057500 -1.12074400 -0.29888400 0.23439300 1.70854600
19 -1.74403800 0.00003500 -0.00000800 -0.02612600 -0.01378700 1.49740900
20 -1.36877100 0.00002500 0.00000400 0.00109800 0.05249600 -0.08315600
21 -1.87674627 -0.93592792 1.00080181 2.10043383 0.44180665 0.86547172
22 -1.52345300 0.00003100 0.00003100 0.08365347 0.15257993 0.60551100
23 -1.59928500 0.00000400 0.00001600 0.03405400 -0.02608300 0.63444500
24 5.58407703 0.11572888 0.29492200 2.70854768 -0.05532864 3.09747058
25 0.19684700 -0.00000100 0.00000300 2.79340692 -0.00069406 -3.14143033
26 2.02232008 -14.95514027 -1.86105329 1.97586200 1.15990900 1.84280300
27 6.21842171 0.00001522 0.00004349 -0.60795568 1.02173015 -1.81185313
28 11.94852649 -0.00006740 -0.00042398 0.02897132 -0.31556927 -1.71326746
29 10.62327285 0.00000000 0.00002174 -1.77891697 -0.55328246 0.39324008
30 4.75115200 0.69437400 -0.83047200 -0.33658232 -0.22394700 1.27218571
31 1.68806500 -0.00002500 0.00000100 -0.00123447 -0.02467147 1.48765907
32 1.33615100 -0.00005000 -0.00000800 0.01621200 -0.03516700 -0.06228800
33 4.82050900 0.50933800 0.22486500 -0.37684886 -0.01491234 1.55224837
34 1.82699600 0.00006700 0.00000900 -0.00051293 0.04045047 1.26078800
35 1.43657300 -0.00001000 0.00000700 0.01098500 -0.01043400 0.02903500
36 3.99235000 0.89108500 1.82799200 -0.58773400 -0.00855700 1.20567800
37 1.40591800 0.00002100 -0.00000600 -0.01283800 -0.02655500 1.32518600
38 1.17536900 -0.00013200 0.00000100 0.05517100 0.11024900 0.42008900
39 4.52675100 0.69045800 1.12084100 -0.49028947 0.04882253 1.52995347
40 1.74404100 -0.00003100 -0.00000200 -0.02474100 -0.01616300 1.40363000
41 1.36876300 -0.00003100 -0.00001700 -0.32324100 0.09379900 -0.20753000
42 1.94282419 1.01635893 -0.91221972 2.09829119 0.36918269 1.35025985
43 1.52344900 -0.00003400 -0.00000200 0.01413000 -0.08869300 0.51775900
44 1.59927900 -0.00000200 0.00001000 0.07477333 -0.03718786 1.28670049
45 5.51425263 -0.00000656 0.00001312 -0.27198600 0.00000429 0.00000346
46 0.19685100 0.00000200 -0.00000100 -0.34822500 0.00001500 -0.00000200
47 0.00000000 0.99951200 0.00000000 0.00000000 0.00000000 -1.57079600
48 -4.49218800 5.84765600 -3.19726600 0.00000000 0.00000000 -3.14155900
49 -4.68504308 21.63995667 -1.76127916 0.18109210 -0.14685941 -1.28323614
50 9.62500000 0.04133497 -3.51562500 0.22850700 1.17432700 1.53866900
51 3.14881800 -0.01178200 -0.88071700 0.00000000 0.00000000 0.00000000
52 -3.96235800 -0.01178200 0.07771100 0.00000000 0.00000000 0.00000000
53 0.05046500 0.00000000 0.46481100 0.00000000 0.00000000 0.00000000
54 1.34472700 0.64062500 1.02734400 0.00000000 0.00000000 0.00000000
55 -2.55633500 -0.02560600 -1.23524000 0.00000000 0.00000000 0.00000000
56 -1.93822700 -2.78882700 -4.40212100 2.85215900 -0.11258400 -1.97203800
time 14
0 -0.00000200 8.44531300 -27.50000000 0.00000000 0.00000000 0.00002800
1 -0.00000435 0.00000000 0.00000000 1.57074300 -1.56713700 -1.57074300
2 4.25546800 -0.33518300 -0.00000200 0.00000000 0.00000000 -0.12484800
3 7.43124600 1.49647700 0.00000200 0.00000000 0.00000000 0.24545000
4 5.27847700 0.16554100 0.00000100 0.00000000 0.00000000 0.04851100
5 4.13023536 -5.03977938 -1.73566263 1.97586400 1.15990900 -1.29878600
6 -6.21840867 -0.00001739 -0.00005871 -3.04486573 -0.58324251 1.90227548
7 11.94851562 -0.00000217 0.00000000 -0.32165998 -0.34226936 1.86062417
8 10.62329776 0.00000870 -0.00000435 0.97106333 -0.02392142 2.13637994
9 -4.75110100 -0.69449200 0.83057700 -0.09752300 -0.07215407 0.36368500
10 -1.68806800 0.00004500 -0.00003200 0.01721300 -0.01778000 0.66972300
11 -1.33614000 0.00005700 -0.00001200 0.02612700 -0.00326400 0.67798200
12 -4.82049000 -0.50946000 -0.22476000 -0.31019300 0.01220500 1.54294140
13 -1.82699600 -0.00006200 0.00000700 0.00229100 0.04043200 1.32937700
14 -1.43845225 0.00000984 0.00000328 -0.04326674 -0.06465939 0.49796528
15 -3.99235200 -0.89118600 -1.82790800 -0.39356900 0.38726400 1.76891800
16 -1.40591800 -0.00002400 -0.00000200 -0.00904100 -0.02805900 1.18716000
17 -1.17535800 0.00012800 -0.00002000 0.03573700 0.05772000 0.45865800
18 -4.52674700 -0.69057500 -1.12074400 -0.29888400 0.23439300 1.70854600
19 -1.74403800 0.00003500 -0.00000800 -0.02612600 -0.01378700 1.49740900
20 -1.36877100 0.00002500 0.00000400 0.00109800 0.05249600 -0.08315600
21 -1.87674627 -0.93592792 1.00080181 2.10042969 0.44181178 0.86546203
22 -1.52345300 0.00003100 0.00003100 0.08365347 0.15257993 0.60551100
23 -1.59928500 0.00000400 0.00001600 0.03405400 -0.02608300 0.63444500
24 5.58407703 0.11572888 0.29492200 2.70854510 -0.05530712 3.09751720
25 0.19684700 -0.00000100 0.00000300 2.79340692 -0.00069406 -3.14143033
26 2.09692186 -15.10434289 -1.87924843 1.97586200 1.15990900 1.84280300
27 6.21842171 0.00001522 0.00004349 -0.60956442 1.01048846 -1.84186865
28 11.94852649 -0.00006740 -0.00042398 0.02637006 -0.32208135 -1.70499878
29 10.62327285 0.00000000 0.00002174 -1.76160944 -0.54138253 0.38560938
30 4.75115200 0.69437400 -0.83047200 -0.33658232 -0.22394700 1.27218571
31 1.68806500 -0.00002500 0.00000100 -0.00123447 -0.02467147 1.48765907
32 1.33615100 -0.00005000 -0.00000800 0.01621200 -0.03516700 -0.06228800
33 4.82050900 0.50933800 0.22486500 -0.37684886 -0.01491234 1.55224837
34 1.82699600 0.00006700 0.00000900 -0.00051293 0.04045047 1.26078800
35 1.43657300 -0.00001000 0.00000700 0.01098500 -0.01043400 0.02903500
36 3.99235000 0.89108500 1.82799200 -0.58773400 -0.00855700 1.20567800
37 1.40591800 0.00002100 -0.00000600 -0.01283800 -0.02655500 1.32518600
38 1.17536900 -0.00013200 0.00000100 0.05517100 0.11024900 0.42008900
39 4.52675100 0.69045800 1.12084100 -0.49028947 0.04882253 1.52995347
40 1.74404100 -0.00003100 -0.00000200 -0.02474100 -0.01616300 1.40363000
41 1.36876300 -0.00003100 -0.00001700 -0.32324100 0.09379900 -0.20753000
42 1.94282419 1.01635893 -0.91221972 2.09829119 0.36918269 1.35025985
43 1.52344900 -0.00003400 -0.00000200 0.01413000 -0.08869300 0.51775900
44 1.59927900 -0.00000200 0.00001000 0.07477333 -0.03718786 1.28670049
45 5.51425263 -0.00000656 0.00001312 -0.27200968 0.00000429 0.00000346
46 0.19685100 0.00000200 -0.00000100 -0.34822500 0.00001500 -0.00000200
47 0.00000000 0.99951200 0.00000000 0.00000000 0.00000000 -1.57079600
48 -4.49218800 5.84765600 -3.19726600 0.00000000 0.00000000 -3.14155900
49 -4.32032948 21.63995667 -1.56328066 0.16642362 -0.12974090 -1.30780167
50 9.62500000 0.04133497 -3.51562500 0.22850700 1.17432700 1.53866900
51 3.14881800 -0.01178200 -0.88071700 0.00000000 0.00000000 0.00000000
52 -3.96235800 -0.01178200 0.07771100 0.00000000 0.00000000 0.00000000
53 0.05046500 0.00000000 0.46481100 0.00000000 0.00000000 0.00000000
54 1.34472700 0.64062500 1.02734400 0.00000000 0.00000000 0.00000000
55 -2.55633500 -0.02560600 -1.23524000 0.00000000 0.00000000 0.00000000
56 -1.93822700 -2.78882700 -4.40212100 2.85215900 -0.11258400 -1.97203800
time 15
0 -0.00000200 8.44531300 -27.50000000 0.00000000 0.00000000 0.00002800
1 -0.00000435 0.00000000 0.00000000 1.57074300 -1.56713700 -1.57074300
2 4.25546800 -0.33518300 -0.00000200 0.00000000 0.00000000 -0.12484800
3 7.43124600 1.49647700 0.00000200 0.00000000 0.00000000 0.24545000
4 5.27847700 0.16554100 0.00000100 0.00000000 0.00000000 0.04851100
5 4.13023536 -5.03977938 -1.73566263 1.97586400 1.15990900 -1.29878600
6 -6.21840867 -0.00001739 -0.00005871 -3.06015848 -0.59279145 1.92738232
7 11.94851562 -0.00000217 0.00000000 -0.32130601 -0.34287221 1.85945090
8 10.62329776 0.00000870 -0.00000435 0.95282749 0.00280609 2.16333006
9 -4.75110100 -0.69449200 0.83057700 -0.09752300 -0.07215300 0.36368500
10 -1.68806800 0.00004500 -0.00003200 0.01721300 -0.01778000 0.66972300
11 -1.33614000 0.00005700 -0.00001200 0.02612700 -0.00326400 0.67798200
12 -4.82049000 -0.50946000 -0.22476000 -0.31019300 0.01220500 1.54294140
13 -1.82699600 -0.00006200 0.00000700 0.00229100 0.04043200 1.32937700
14 -1.43845225 0.00000984 0.00000328 -0.04326674 -0.06465939 0.49796528
15 -3.99235200 -0.89118600 -1.82790800 -0.39356900 0.38726400 1.76891800
16 -1.40591800 -0.00002400 -0.00000200 -0.00904047 -0.02805953 1.18716000
17 -1.17535800 0.00012800 -0.00002000 0.03573700 0.05772000 0.45865800
18 -4.52674700 -0.69057500 -1.12074400 -0.29888400 0.23439300 1.70854600
19 -1.74403800 0.00003500 -0.00000800 -0.02612493 -0.01378753 1.49740900
20 -1.36877100 0.00002500 0.00000400 0.00109907 0.05249600 -0.08315600
21 -1.87674627 -0.93592792 1.00080181 2.10043383 0.44180665 0.86547172
22 -1.52345300 0.00003100 0.00003100 0.08365293 0.15258047 0.60551100
23 -1.59928500 0.00000400 0.00001600 0.03405400 -0.02608300 0.63444500
24 5.58407703 0.11572888 0.29492200 2.70854510 -0.05530712 3.09751720
25 0.19684700 -0.00000100 0.00000300 2.79340692 -0.00069406 -3.14143033
26 2.12239542 -15.15710985 -1.88470702 1.97586200 1.15990900 1.84280300
27 6.21842171 0.00001522 0.00004349 -0.60142081 0.99952983 -1.86171148
28 11.94852649 -0.00006740 -0.00042398 0.01857950 -0.32771020 -1.68173412
29 10.62327285 0.00000000 0.00002174 -1.74584685 -0.54606846 0.35437906
30 4.75115200 0.69437400 -0.83047200 -0.33659300 -0.22394700 1.27219800
31 1.68806500 -0.00002500 0.00000100 -0.00123447 -0.02467147 1.48765907
32 1.33615100 -0.00005000 -0.00000800 0.01621200 -0.03516700 -0.06228800
33 4.82050900 0.50933800 0.22486500 -0.37685100 -0.01490700 1.55226600
34 1.82699600 0.00006700 0.00000900 -0.00051400 0.04045100 1.26078800
35 1.43657300 -0.00001000 0.00000700 0.01098500 -0.01043400 0.02903500
36 3.99235000 0.89108500 1.82799200 -0.58773400 -0.00855700 1.20567800
37 1.40591800 0.00002100 -0.00000600 -0.01283800 -0.02655500 1.32518600
38 1.17536900 -0.00013200 0.00000100 0.05517100 0.11024900 0.42008900
39 4.52675100 0.69045800 1.12084100 -0.49028947 0.04882253 1.52995347
40 1.74404100 -0.00003100 -0.00000200 -0.02474100 -0.01616300 1.40363107
41 1.36876300 -0.00003100 -0.00001700 -0.32324100 0.09379900 -0.20753000
42 1.94282419 1.01635893 -0.91221972 2.09829119 0.36918269 1.35025985
43 1.52344900 -0.00003400 -0.00000200 0.01413000 -0.08869300 0.51775900
44 1.59927900 -0.00000200 0.00001000 0.07477600 -0.03719000 1.28672400
45 5.51425263 -0.00000656 0.00001312 -0.27200968 0.00000429 0.00000346
46 0.19685100 0.00000200 -0.00000100 -0.34822500 0.00001500 -0.00000200
47 0.00000000 0.99951200 0.00000000 0.00000000 0.00000000 -1.57079600
48 -4.49218800 5.84765600 -3.19726600 0.00000000 0.00000000 -3.14155900
49 -3.97452682 21.63301208 -1.57957017 0.15973281 -0.10662447 -1.31905345
50 9.62500000 0.04133497 -3.51562500 0.22850700 1.17432700 1.53866900
51 3.14881800 -0.01178200 -0.88071700 0.00000000 0.00000000 0.00000000
52 -3.96235800 -0.01178200 0.07771100 0.00000000 0.00000000 0.00000000
53 0.05046500 0.00000000 0.46481100 0.00000000 0.00000000 0.00000000
54 1.34472700 0.64062500 1.02734400 0.00000000 0.00000000 0.00000000
55 -2.55633500 -0.02560600 -1.23524000 0.00000000 0.00000000 0.00000000
56 -1.93822700 -2.78882700 -4.40212100 2.85215900 -0.11258400 -1.97203800
end
