version 1
nodes
0 "root" -1
1 "pelvis" 0
2 "spine_01" 1
3 "spine_02" 2
4 "spine_03" 3
5 "clavicle_r" 4
6 "upperarm_r" 5
7 "lowerarm_r" 6
8 "hand_r" 7
9 "index_01_r" 8
10 "index_02_r" 9
11 "index_03_r" 10
12 "middle_01_r" 8
13 "middle_02_r" 12
14 "middle_03_r" 13
15 "pinky_01_r" 8
16 "pinky_02_r" 15
17 "pinky_03_r" 16
18 "ring_01_r" 8
19 "ring_02_r" 18
20 "ring_03_r" 19
21 "thumb_01_r" 8
22 "thumb_02_r" 21
23 "thumb_03_r" 22
24 "lowerarm_twist_01_r" 7
25 "upperarm_twist_01_r" 6
26 "clavicle_l" 4
27 "upperarm_l" 26
28 "lowerarm_l" 27
29 "hand_l" 28
30 "index_01_l" 29
31 "index_02_l" 30
32 "index_03_l" 31
33 "middle_01_l" 29
34 "middle_02_l" 33
35 "middle_03_l" 34
36 "pinky_01_l" 29
37 "pinky_02_l" 36
38 "pinky_03_l" 37
39 "ring_01_l" 29
40 "ring_02_l" 39
41 "ring_03_l" 40
42 "thumb_01_l" 29
43 "thumb_02_l" 42
44 "thumb_03_l" 43
45 "lowerarm_twist_01_l" 28
46 "upperarm_twist_01_l" 27
47 "cam_driver" -1
48 "BaseRoot" -1
49 "Base" 48
50 "rhand_ikTarget" 49
51 "Trigger" 49
52 "Mag" 49
53 "Bullets" 52
54 "Bolt" 49
55 "MagRelease" 49
56 "BoltMover" 49
57 "lhand_ikTarget" 49
end
skeleton
time 0
0 -0.00000100 7.45008900 -27.50902600 0.00000000 0.00000000 0.00003100
1 -0.00000200 0.00000000 0.00000000 1.57074300 -1.56713700 -1.57074300
2 4.25546800 -0.33518300 -0.00000200 0.00000000 0.00000000 -0.12484800
3 7.43124800 1.49647700 0.00000200 0.00000000 0.00000000 0.24545000
4 5.27847900 0.16554100 0.00000100 0.00000000 0.00000000 0.04851100
5 3.48287100 -6.54552800 -1.49833800 1.97586400 1.15990900 -1.29878600
6 -6.21448200 -0.00000700 -0.00002700 -3.08213676 -0.30627301 1.49993544
7 11.94488500 0.00000000 0.00000000 -0.08203902 -0.32002067 1.14592686
8 10.62018100 0.00000000 -0.00000100 0.73903564 0.31353332 2.13315828
9 -4.75111000 -0.69449200 0.83057500 -0.22614300 -0.17766500 0.36328700
10 -1.68807100 0.00004600 -0.00003500 0.00949800 -0.02279200 1.04398900
11 -1.33613800 0.00005600 -0.00001200 0.02590800 -0.00478700 0.73446100
12 -4.82049900 -0.50945800 -0.22476000 -0.36210500 -0.06757800 1.36923200
13 -1.82699100 -0.00006500 0.00000700 -0.00054800 0.04045100 1.25907900
14 -1.43657900 0.00001000 0.00000400 -0.05524000 -0.05469200 0.69918900
15 -3.99236100 -0.89118600 -1.82790900 -0.62977000 0.05424300 1.31213700
16 -1.40592300 -0.00002600 -0.00000400 -0.00006700 -0.02943000 0.87674900
17 -1.17536200 0.00012700 -0.00002000 0.05560900 0.03892800 0.86426700
18 -4.52675500 -0.69057300 -1.12074500 -0.56604600 0.05440300 1.53571000
19 -1.74404500 0.00003700 -0.00000700 -0.02073900 -0.02109500 1.18985900
20 -1.36876500 0.00002400 0.00000200 0.03508000 0.03899700 0.62765500
21 -1.87480200 -0.93512500 0.99917200 1.80705300 0.58092500 0.78096600
22 -1.52345100 0.00003100 0.00002800 0.08099400 0.15396900 0.58815600
23 -1.59928400 0.00000300 0.00001400 0.01453800 -0.04039900 1.20561000
24 5.58312600 0.11572700 0.29499600 2.23698600 -0.06403800 3.11154600
25 0.19684800 -0.00000300 0.00000300 2.79340686 -0.00086605 -3.14134697
26 -1.12532900 -15.67512200 -2.64496700 1.97586200 1.15990900 1.84280300
27 6.21448500 0.00000600 0.00002000 -0.14372597 0.21406860 -1.83706885
28 11.94488900 -0.00003100 -0.00019000 -0.43226196 -0.31978518 -1.13120569
29 10.62016700 0.00000400 0.00000900 -2.23610388 -0.41619173 0.36567542
30 4.75115400 0.69437600 -0.83047200 -0.08930000 -0.18117900 1.30935300
31 1.68806600 -0.00002700 0.00000200 -0.00178600 -0.02466300 1.51256600
32 1.33614400 -0.00005300 -0.00000900 0.01567100 -0.03539000 -0.04612900
33 4.82051300 0.50934000 0.22486600 -0.20765200 -0.00866600 1.74733900
34 1.82699700 0.00006700 0.00000800 -0.00960000 0.03933600 1.03480400
35 1.43658000 -0.00000900 0.00000700 0.00920600 -0.01195300 0.18538500
36 3.99234900 0.89108800 1.82799500 -0.35970300 0.17444700 1.85336800
37 1.40592100 0.00002400 -0.00000600 -0.00532700 -0.02898000 1.05708400
38 1.17536400 -0.00013000 0.00000400 -0.02438600 0.12085600 -0.24485400
39 4.52675300 0.69045800 1.12084200 -0.19850600 0.11142400 1.89012200
40 1.74404300 -0.00003100 -0.00000300 -0.01824500 -0.02329100 1.07737500
41 1.36876500 -0.00003300 -0.00001700 -0.30904900 0.21082100 -0.41806400
42 1.87484800 0.93507900 -0.99912900 2.44808600 0.23419600 1.08300800
43 1.45054400 -0.06018600 0.09121600 0.04429500 0.17016300 0.35957300
44 1.59928000 0.00000200 0.00000700 0.08169400 -0.01721100 1.03306000
45 5.51180800 -0.00000200 0.00000400 -0.66744800 0.00000000 0.00000000
46 0.19684700 0.00000100 -0.00000100 -0.34822500 0.00001500 -0.00000200
47 0.00000000 0.00000000 0.00000000 0.00000000 0.00000000 -1.57079600
48 -3.25924500 2.61795900 -2.47946000 0.00000000 0.00000000 -3.14156200
49 -2.91158732 24.39941200 0.91950586 -0.01886944 -0.01465281 -1.57914173
50 8.01364500 0.37442000 -4.98689200 0.28404100 0.91604400 1.56278700
51 2.12611000 0.20631500 -2.36892700 0.00000000 0.00000000 0.00000000
52 -3.30176700 0.07623700 -0.96686500 0.00000000 0.00000000 0.00000000
53 -0.04653700 0.00000000 0.34724600 0.00000000 0.00000000 0.00000000
54 -0.86789300 0.29605900 -0.14169800 0.00000000 0.00000000 0.00000000
55 -1.56189500 0.77710900 -1.42271700 0.00000000 0.00000000 0.00000000
56 -1.93101900 -1.53806600 -0.13749900 0.00000000 0.00000000 0.00000000
57 -0.80925900 -2.27591700 -5.33634200 2.79391700 -0.01755000 -1.99099700
time 1
0 -0.00000100 7.45008900 -27.50902600 0.00000000 0.00000000 0.00003100
1 -0.00000200 0.00000000 0.00000000 1.57074300 -1.56713700 -1.57074300
2 4.25546800 -0.33518300 -0.00000200 0.00000000 0.00000000 -0.12484800
3 7.43124800 1.49647700 0.00000200 0.00000000 0.00000000 0.24545000
4 5.27847900 0.16554100 0.00000100 0.00000000 0.00000000 0.04851100
5 3.36217900 -6.79248800 -1.25029100 1.97586400 1.15990900 -1.29878600
6 -6.21448200 -0.00000700 -0.00002700 -3.09142444 -0.31251721 1.50126795
7 11.94488500 0.00000000 0.00000000 -0.08991382 -0.32303105 1.17063194
8 10.62018100 0.00000000 -0.00000100 0.72282427 0.32188034 2.13205146
9 -4.75111000 -0.69449200 0.83057500 -0.22614300 -0.17766500 0.36328700
10 -1.68807100 0.00004600 -0.00003500 0.00949800 -0.02279200 1.04398900
11 -1.33613800 0.00005600 -0.00001200 0.02590800 -0.00478700 0.73446100
12 -4.82049900 -0.50945800 -0.22476000 -0.36210500 -0.06757800 1.36923200
13 -1.82699100 -0.00006500 0.00000700 -0.00054800 0.04045100 1.25907900
14 -1.43657900 0.00001000 0.00000400 -0.05524000 -0.05469200 0.69918900
15 -3.99236100 -0.89118600 -1.82790900 -0.62977000 0.05424300 1.31213700
16 -1.40592300 -0.00002600 -0.00000400 -0.00006700 -0.02943000 0.87674900
17 -1.17536200 0.00012700 -0.00002000 0.05560900 0.03892800 0.86426700
18 -4.52675500 -0.69057300 -1.12074500 -0.56604600 0.05440300 1.53571000
19 -1.74404500 0.00003700 -0.00000700 -0.02073900 -0.02109500 1.18985900
20 -1.36876500 0.00002400 0.00000200 0.03508000 0.03899700 0.62765500
21 -1.87480200 -0.93512500 0.99917200 1.80705300 0.58092500 0.78096600
22 -1.52345100 0.00003100 0.00002800 0.08099400 0.15396900 0.58815600
23 -1.59928400 0.00000300 0.00001400 0.01453800 -0.04039900 1.20561000
24 5.58312600 0.11572700 0.29499600 2.23698600 -0.06403800 3.11154600
25 0.19684800 -0.00000300 0.00000300 2.79340686 -0.00086605 -3.14134697
26 -1.28531600 -15.70823100 -2.35805000 1.97586200 1.15990900 1.84280300
27 6.21448500 0.00000600 0.00002000 -0.17149955 0.21761453 -1.81877209
28 11.94488900 -0.00003100 -0.00019000 -0.41256725 -0.32268016 -1.15230274
29 10.62016700 0.00000400 0.00000900 -2.20657148 -0.40476608 0.36808077
30 4.75115400 0.69437600 -0.83047200 -0.08930000 -0.18117900 1.30935300
31 1.68806600 -0.00002700 0.00000200 -0.00178600 -0.02466300 1.51256600
32 1.33614400 -0.00005300 -0.00000900 0.01567100 -0.03539000 -0.04612900
33 4.82051300 0.50934000 0.22486600 -0.20765200 -0.00866600 1.74733900
34 1.82699700 0.00006700 0.00000800 -0.00960000 0.03933600 1.03480400
35 1.43658000 -0.00000900 0.00000700 0.00920600 -0.01195300 0.18538500
36 3.99234900 0.89108800 1.82799500 -0.35970300 0.17444700 1.85336800
37 1.40592100 0.00002400 -0.00000600 -0.00532700 -0.02898000 1.05708400
38 1.17536400 -0.00013000 0.00000400 -0.02438600 0.12085600 -0.24485400
39 4.52675300 0.69045800 1.12084200 -0.19850600 0.11142400 1.89012200
40 1.74404300 -0.00003100 -0.00000300 -0.01824500 -0.02329100 1.07737500
41 1.36876500 -0.00003300 -0.00001700 -0.30904900 0.21082100 -0.41806400
42 1.87484800 0.93507900 -0.99912900 2.44808600 0.23419600 1.08300800
43 1.45054400 -0.06018600 0.09121600 0.04429500 0.17016300 0.35957300
44 1.59928000 0.00000200 0.00000700 0.08169400 -0.01721100 1.03306000
45 5.51180800 -0.00000200 0.00000400 -0.66744800 0.00000000 0.00000000
46 0.19684700 0.00000100 -0.00000100 -0.34822500 0.00001500 -0.00000200
47 0.00000000 0.00000000 0.00000000 0.00000000 0.00000000 -1.57079600
48 -3.25924500 2.61795900 -2.47946000 0.00000000 0.00000000 -3.14156200
49 -2.96435466 24.38365400 0.92429859 -0.02760244 0.00311298 -1.55845311
50 8.01364500 0.37442000 -4.98689200 0.28404100 0.91604400 1.56278700
51 2.12611000 0.20631500 -2.36892700 0.00000000 0.00000000 0.00000000
52 -3.30176700 0.07623700 -0.96686500 0.00000000 0.00000000 0.00000000
53 -0.04653700 0.00000000 0.34724600 0.00000000 0.00000000 0.00000000
54 -0.86789300 0.29605900 -0.14169800 0.00000000 0.00000000 0.00000000
55 -1.56189500 0.77710900 -1.42271700 0.00000000 0.00000000 0.00000000
56 -1.93101900 -1.53806600 -0.13749900 0.00000000 0.00000000 0.00000000
57 -0.80925900 -2.27591700 -5.33634200 2.79391700 -0.01755000 -1.99099700
time 2
0 -0.00000100 7.45008900 -27.50902600 0.00000000 0.00000000 0.00003100
1 -0.00000200 0.00000000 0.00000000 1.57074300 -1.56713700 -1.57074300
2 4.25546800 -0.33518300 -0.00000200 0.00000000 0.00000000 -0.12484800
3 7.43124800 1.49647700 0.00000200 0.00000000 0.00000000 0.24545000
4 5.27847900 0.16554100 0.00000100 0.00000000 0.00000000 0.04851100
5 3.02850300 -7.47526000 -0.56451100 1.97586400 1.15990900 -1.29878600
6 -6.21448200 -0.00000700 -0.00002700 -3.11325563 -0.32751445 1.51345625
7 11.94488500 0.00000000 0.00000000 -0.11048899 -0.32941108 1.23475396
8 10.62018100 0.00000000 -0.00000100 0.73262656 0.35300071 2.16393155
9 -4.75111000 -0.69449200 0.83057500 -0.22614300 -0.17766500 0.36328700
10 -1.68807100 0.00004600 -0.00003500 0.00949800 -0.02279200 1.04398900
11 -1.33613800 0.00005600 -0.00001200 0.02590800 -0.00478700 0.73446100
12 -4.82049900 -0.50945800 -0.22476000 -0.36210500 -0.06757800 1.36923200
13 -1.82699100 -0.00006500 0.00000700 -0.00054800 0.04045100 1.25907900
14 -1.43657900 0.00001000 0.00000400 -0.05524000 -0.05469200 0.69918900
15 -3.99236100 -0.89118600 -1.82790900 -0.62977000 0.05424300 1.31213700
16 -1.40592300 -0.00002600 -0.00000400 -0.00006700 -0.02943000 0.87674900
17 -1.17536200 0.00012700 -0.00002000 0.05560900 0.03892800 0.86426700
18 -4.52675500 -0.69057300 -1.12074500 -0.56604600 0.05440300 1.53571000
19 -1.74404500 0.00003700 -0.00000700 -0.02073900 -0.02109500 1.18985900
20 -1.36876500 0.00002400 0.00000200 0.03508000 0.03899700 0.62765500
21 -1.87480200 -0.93512500 0.99917200 1.80705300 0.58092500 0.78096600
22 -1.52345100 0.00003100 0.00002800 0.08099400 0.15396900 0.58815600
23 -1.59928400 0.00000300 0.00001400 0.01453800 -0.04039900 1.20561000
24 5.58312600 0.11572700 0.29499600 2.23698600 -0.06403800 3.11154600
25 0.19684800 -0.00000300 0.00000300 2.79340686 -0.00086605 -3.14134697
26 -1.71956200 -15.79809600 -1.57927600 1.97586200 1.15990900 1.84280300
27 6.21448500 0.00000600 0.00002000 -0.23352078 0.22365311 -1.78268117
28 11.94488900 -0.00003100 -0.00019000 -0.36235618 -0.32714488 -1.19131638
29 10.62016700 0.00000400 0.00000900 -2.17777796 -0.41150275 0.36803239
30 4.75115400 0.69437600 -0.83047200 -0.08930000 -0.18117900 1.30935300
31 1.68806600 -0.00002700 0.00000200 -0.00178600 -0.02466300 1.51256600
32 1.33614400 -0.00005300 -0.00000900 0.01567100 -0.03539000 -0.04612900
33 4.82051300 0.50934000 0.22486600 -0.20765200 -0.00866600 1.74733900
34 1.82699700 0.00006700 0.00000800 -0.00960000 0.03933600 1.03480400
35 1.43658000 -0.00000900 0.00000700 0.00920600 -0.01195300 0.18538500
36 3.99234900 0.89108800 1.82799500 -0.35970300 0.17444700 1.85336800
37 1.40592100 0.00002400 -0.00000600 -0.00532700 -0.02898000 1.05708400
38 1.17536400 -0.00013000 0.00000400 -0.02438600 0.12085600 -0.24485400
39 4.52675300 0.69045800 1.12084200 -0.19850600 0.11142400 1.89012200
40 1.74404300 -0.00003100 -0.00000300 -0.01824500 -0.02329100 1.07737500
41 1.36876500 -0.00003300 -0.00001700 -0.30904900 0.21082100 -0.41806400
42 1.87484800 0.93507900 -0.99912900 2.44808600 0.23419600 1.08300800
43 1.45054400 -0.06018600 0.09121600 0.04429500 0.17016300 0.35957300
44 1.59928000 0.00000200 0.00000700 0.08169400 -0.01721100 1.03306000
45 5.51180800 -0.00000200 0.00000400 -0.66744800 0.00000000 0.00000000
46 0.19684700 0.00000100 -0.00000100 -0.34822500 0.00001500 -0.00000200
47 0.00000000 0.00000000 0.00000000 0.00000000 0.00000000 -1.57079600
48 -3.25924500 2.61795900 -2.47946000 0.00000000 0.00000000 -3.14156200
49 -3.14027311 24.34078000 0.94742301 -0.00090997 0.05454309 -1.49988820
50 8.01364500 0.37442000 -4.98689200 0.28404100 0.91604400 1.56278700
51 2.12611000 0.20631500 -2.36892700 0.00000000 0.00000000 0.00000000
52 -3.30176700 0.07623700 -0.96686500 0.00000000 0.00000000 0.00000000
53 -0.04653700 0.00000000 0.34724600 0.00000000 0.00000000 0.00000000
54 -0.86789300 0.29605900 -0.14169800 0.00000000 0.00000000 0.00000000
55 -1.56189500 0.77710900 -1.42271700 0.00000000 0.00000000 0.00000000
56 -1.93101900 -1.53806600 -0.13749900 0.00000000 0.00000000 0.00000000
57 -0.80925900 -2.27591700 -5.33634200 2.79391700 -0.01755000 -1.99099700
time 3
0 -0.00000100 7.45008900 -27.50902600 0.00000000 0.00000000 0.00003100
1 -0.00000200 0.00000000 0.00000000 1.57074300 -1.56713700 -1.57074300
2 4.25546800 -0.33518300 -0.00000200 0.00000000 0.00000000 -0.12484800
3 7.43124800 1.49647700 0.00000200 0.00000000 0.00000000 0.24545000
4 5.27847900 0.16554100 0.00000100 0.00000000 0.00000000 0.04851100
5 2.52444000 -8.50668000 0.47145500 1.97586400 1.15990900 -1.29878600
6 -6.21448200 -0.00000700 -0.00002700 3.13804490 -0.34350254 1.52736040
7 11.94488500 0.00000000 0.00000000 -0.13607578 -0.33629277 1.31233484
8 10.62018100 0.00000000 -0.00000100 0.77051140 0.39678671 2.23330172
9 -4.75111000 -0.69449200 0.83057500 -0.22614300 -0.17766500 0.36328700
10 -1.68807100 0.00004600 -0.00003500 0.00949800 -0.02279200 1.04398900
11 -1.33613800 0.00005600 -0.00001200 0.02590800 -0.00478700 0.73446100
12 -4.82049900 -0.50945800 -0.22476000 -0.36210500 -0.06757800 1.36923200
13 -1.82699100 -0.00006500 0.00000700 -0.00054800 0.04045100 1.25907900
14 -1.43657900 0.00001000 0.00000400 -0.05524000 -0.05469200 0.69918900
15 -3.99236100 -0.89118600 -1.82790900 -0.62977000 0.05424300 1.31213700
16 -1.40592300 -0.00002600 -0.00000400 -0.00006700 -0.02943000 0.87674900
17 -1.17536200 0.00012700 -0.00002000 0.05560900 0.03892800 0.86426700
18 -4.52675500 -0.69057300 -1.12074500 -0.56604600 0.05440300 1.53571000
19 -1.74404500 0.00003700 -0.00000700 -0.02073900 -0.02109500 1.18985900
20 -1.36876500 0.00002400 0.00000200 0.03508000 0.03899700 0.62765500
21 -1.87480200 -0.93512500 0.99917200 1.80705300 0.58092500 0.78096600
22 -1.52345100 0.00003100 0.00002800 0.08099400 0.15396900 0.58815600
23 -1.59928400 0.00000300 0.00001400 0.01453800 -0.04039900 1.20561000
24 5.58312600 0.11572700 0.29499600 2.23698600 -0.06403800 3.11154600
25 0.19684800 -0.00000300 0.00000300 2.79340686 -0.00086605 -3.14134697
26 -2.35950300 -15.93052700 -0.43160800 1.97586200 1.15990900 1.84280300
27 6.21448500 0.00000600 0.00002000 -0.32030127 0.22984976 -1.73872478
28 11.94488900 -0.00003100 -0.00019000 -0.28746916 -0.33037168 -1.23182020
29 10.62016700 0.00000400 0.00000900 -2.16258948 -0.43142772 0.36116016
30 4.75115400 0.69437600 -0.83047200 -0.08930000 -0.18117900 1.30935300
31 1.68806600 -0.00002700 0.00000200 -0.00178600 -0.02466300 1.51256600
32 1.33614400 -0.00005300 -0.00000900 0.01567100 -0.03539000 -0.04612900
33 4.82051300 0.50934000 0.22486600 -0.20765200 -0.00866600 1.74733900
34 1.82699700 0.00006700 0.00000800 -0.00960000 0.03933600 1.03480400
35 1.43658000 -0.00000900 0.00000700 0.00920600 -0.01195300 0.18538500
36 3.99234900 0.89108800 1.82799500 -0.35970300 0.17444700 1.85336800
37 1.40592100 0.00002400 -0.00000600 -0.00532700 -0.02898000 1.05708400
38 1.17536400 -0.00013000 0.00000400 -0.02438600 0.12085600 -0.24485400
39 4.52675300 0.69045800 1.12084200 -0.19850600 0.11142400 1.89012200
40 1.74404300 -0.00003100 -0.00000300 -0.01824500 -0.02329100 1.07737500
41 1.36876500 -0.00003300 -0.00001700 -0.30904900 0.21082100 -0.41806400
42 1.87484800 0.93507900 -0.99912900 2.44808600 0.23419600 1.08300800
43 1.45054400 -0.06018600 0.09121600 0.04429500 0.17016300 0.35957300
44 1.59928000 0.00000200 0.00000700 0.08169400 -0.01721100 1.03306000
45 5.51180800 -0.00000200 0.00000400 -0.66744800 0.00000000 0.00000000
46 0.19684700 0.00000100 -0.00000100 -0.34822500 0.00001500 -0.00000200
47 0.00000000 0.00000000 0.00000000 0.00000000 0.00000000 -1.57079600
48 -3.25924500 2.61795900 -2.47946000 0.00000000 0.00000000 -3.14156200
49 -3.41397865 24.27738800 0.92628730 0.06235241 0.12621418 -1.40618579
50 8.01364500 0.37442000 -4.98689200 0.28404100 0.91604400 1.56278700
51 2.12611000 0.20631500 -2.36892700 0.00000000 0.00000000 0.00000000
52 -3.30176700 0.07623700 -0.96686500 0.00000000 0.00000000 0.00000000
53 -0.04653700 0.00000000 0.34724600 0.00000000 0.00000000 0.00000000
54 -0.86789300 0.29605900 -0.14169800 0.00000000 0.00000000 0.00000000
55 -1.56189500 0.77710900 -1.42271700 0.00000000 0.00000000 0.00000000
56 -1.93101900 -1.53806600 -0.13749900 0.00000000 0.00000000 0.00000000
57 -0.80925900 -2.27591700 -5.33634200 2.79391700 -0.01755000 -1.99099700
time 4
0 -0.00000100 7.45008900 -27.50902600 0.00000000 0.00000000 0.00003100
1 -0.00000200 0.00000000 0.00000000 1.57074300 -1.56713700 -1.57074300
2 4.25546800 -0.33518300 -0.00000200 0.00000000 0.00000000 -0.12484800
3 7.43124800 1.49647700 0.00000200 0.00000000 0.00000000 0.24545000
4 5.27847900 0.16554100 0.00000100 0.00000000 0.00000000 0.04851100
5 1.89258500 -9.79958900 1.77006000 1.97586400 1.15990900 -1.29878600
6 -6.21448200 -0.00000700 -0.00002700 3.10199617 -0.35159688 1.52679644
7 11.94488500 0.00000000 0.00000000 -0.15849579 -0.34192075 1.37930643
8 10.62018100 0.00000000 -0.00000100 0.82380141 0.44025172 2.32982080
9 -4.75111000 -0.69449200 0.83057500 -0.22614300 -0.17766500 0.36328700
10 -1.68807100 0.00004600 -0.00003500 0.00949800 -0.02279200 1.04398900
11 -1.33613800 0.00005600 -0.00001200 0.02590800 -0.00478700 0.73446100
12 -4.82049900 -0.50945800 -0.22476000 -0.36210500 -0.06757800 1.36923200
13 -1.82699100 -0.00006500 0.00000700 -0.00054800 0.04045100 1.25907900
14 -1.43657900 0.00001000 0.00000400 -0.05524000 -0.05469200 0.69918900
15 -3.99236100 -0.89118600 -1.82790900 -0.62977000 0.05424300 1.31213700
16 -1.40592300 -0.00002600 -0.00000400 -0.00006700 -0.02943000 0.87674900
17 -1.17536200 0.00012700 -0.00002000 0.05560900 0.03892800 0.86426700
18 -4.52675500 -0.69057300 -1.12074500 -0.56604600 0.05440300 1.53571000
19 -1.74404500 0.00003700 -0.00000700 -0.02073900 -0.02109500 1.18985900
20 -1.36876500 0.00002400 0.00000200 0.03508000 0.03899700 0.62765500
21 -1.87480200 -0.93512500 0.99917200 1.80705300 0.58092500 0.78096600
22 -1.52345100 0.00003100 0.00002800 0.08099400 0.15396900 0.58815600
23 -1.59928400 0.00000300 0.00001400 0.01453800 -0.04039900 1.20561000
24 5.58312600 0.11572700 0.29499600 2.23698600 -0.06403800 3.11154600
25 0.19684800 -0.00000300 0.00000300 2.79340686 -0.00086605 -3.14134697
26 -3.13657500 -16.09133700 0.96198900 1.97586200 1.15990900 1.84280300
27 6.21448500 0.00000600 0.00002000 -0.43022030 0.23211071 -1.69349511
28 11.94488900 -0.00003100 -0.00019000 -0.19147506 -0.33192958 -1.26045517
29 10.62016700 0.00000400 0.00000900 -2.16003965 -0.44576035 0.34621106
30 4.75115400 0.69437600 -0.83047200 -0.08930000 -0.18117900 1.30935300
31 1.68806600 -0.00002700 0.00000200 -0.00178600 -0.02466300 1.51256600
32 1.33614400 -0.00005300 -0.00000900 0.01567100 -0.03539000 -0.04612900
33 4.82051300 0.50934000 0.22486600 -0.20765200 -0.00866600 1.74733900
34 1.82699700 0.00006700 0.00000800 -0.00960000 0.03933600 1.03480400
35 1.43658000 -0.00000900 0.00000700 0.00920600 -0.01195300 0.18538500
36 3.99234900 0.89108800 1.82799500 -0.35970300 0.17444700 1.85336800
37 1.40592100 0.00002400 -0.00000600 -0.00532700 -0.02898000 1.05708400
38 1.17536400 -0.00013000 0.00000400 -0.02438600 0.12085600 -0.24485400
39 4.52675300 0.69045800 1.12084200 -0.19850600 0.11142400 1.89012200
40 1.74404300 -0.00003100 -0.00000300 -0.01824500 -0.02329100 1.07737500
41 1.36876500 -0.00003300 -0.00001700 -0.30904900 0.21082100 -0.41806400
42 1.87484800 0.93507900 -0.99912900 2.44808600 0.23419600 1.08300800
43 1.45054400 -0.06018600 0.09121600 0.04429500 0.17016300 0.35957300
44 1.59928000 0.00000200 0.00000700 0.08169400 -0.01721100 1.03306000
45 5.51180800 -0.00000200 0.00000400 -0.66744800 0.00000000 0.00000000
46 0.19684700 0.00000100 -0.00000100 -0.34822500 0.00001500 -0.00000200
47 0.00000000 0.00000000 0.00000000 0.00000000 0.00000000 -1.57079600
48 -3.25924500 2.61795900 -2.47946000 0.00000000 0.00000000 -3.14156200
49 -3.78123594 24.20007100 0.84514212 0.14973386 0.20256389 -1.28117741
50 8.01364500 0.37442000 -4.98689200 0.28404100 0.91604400 1.56278700
51 2.12611000 0.20631500 -2.36892700 0.00000000 0.00000000 0.00000000
52 -3.30176700 0.07623700 -0.96686500 0.00000000 0.00000000 0.00000000
53 -0.04653700 0.00000000 0.34724600 0.00000000 0.00000000 0.00000000
54 -0.86789300 0.29605900 -0.14169800 0.00000000 0.00000000 0.00000000
55 -1.56189500 0.77710900 -1.42271700 0.00000000 0.00000000 0.00000000
56 -1.93101900 -1.53806600 -0.13749900 0.00000000 0.00000000 0.00000000
57 -0.80925900 -2.27591700 -5.33634200 2.79391700 -0.01755000 -1.99099700
time 5
0 -0.00000100 7.45008900 -27.50902600 0.00000000 0.00000000 0.00003100
1 -0.00000200 0.00000000 0.00000000 1.57074300 -1.56713700 -1.57074300
2 4.25546800 -0.33518300 -0.00000200 0.00000000 0.00000000 -0.12484800
3 7.43124800 1.49647700 0.00000200 0.00000000 0.00000000 0.24545000
4 5.27847900 0.16554100 0.00000100 0.00000000 0.00000000 0.04851100
5 1.17553600 -11.26682100 3.24375600 1.97586400 1.15990900 -1.29878600
6 -6.21448200 -0.00000700 -0.00002700 3.06922716 -0.34704353 1.49787086
7 11.94488500 0.00000000 0.00000000 -0.17476560 -0.34625437 1.42764998
8 10.62018100 0.00000000 -0.00000100 0.87702090 0.46612979 2.42565848
9 -4.75111000 -0.69449200 0.83057500 -0.22614300 -0.17766500 0.36328700
10 -1.68807100 0.00004600 -0.00003500 0.00949800 -0.02279200 1.04398900
11 -1.33613800 0.00005600 -0.00001200 0.02590800 -0.00478700 0.73446100
12 -4.82049900 -0.50945800 -0.22476000 -0.36210500 -0.06757800 1.36923200
13 -1.82699100 -0.00006500 0.00000700 -0.00054800 0.04045100 1.25907900
14 -1.43657900 0.00001000 0.00000400 -0.05524000 -0.05469200 0.69918900
15 -3.99236100 -0.89118600 -1.82790900 -0.62977000 0.05424300 1.31213700
16 -1.40592300 -0.00002600 -0.00000400 -0.00006700 -0.02943000 0.87674900
17 -1.17536200 0.00012700 -0.00002000 0.05560900 0.03892800 0.86426700
18 -4.52675500 -0.69057300 -1.12074500 -0.56604600 0.05440300 1.53571000
19 -1.74404500 0.00003700 -0.00000700 -0.02073900 -0.02109500 1.18985900
20 -1.36876500 0.00002400 0.00000200 0.03508000 0.03899700 0.62765500
21 -1.87480200 -0.93512500 0.99917200 1.80705300 0.58092500 0.78096600
22 -1.52345100 0.00003100 0.00002800 0.08099400 0.15396900 0.58815600
23 -1.59928400 0.00000300 0.00001400 0.01453800 -0.04039900 1.20561000
24 5.58312600 0.11572700 0.29499600 2.23698600 -0.06403800 3.11154600
25 0.19684800 -0.00000300 0.00000300 2.79340686 -0.00086605 -3.14134697
26 -3.98221500 -16.26633800 2.47855200 1.97586200 1.15990900 1.84280300
27 6.21448500 0.00000600 0.00002000 -0.55836541 0.22752943 -1.64926743
28 11.94488900 -0.00003100 -0.00019000 -0.07482947 -0.33271905 -1.27303449
29 10.62016700 0.00000400 0.00000900 -2.17595882 -0.43783273 0.33420740
30 4.75115400 0.69437600 -0.83047200 -0.08930000 -0.18117900 1.30935300
31 1.68806600 -0.00002700 0.00000200 -0.00178600 -0.02466300 1.51256600
32 1.33614400 -0.00005300 -0.00000900 0.01567100 -0.03539000 -0.04612900
33 4.82051300 0.50934000 0.22486600 -0.20765200 -0.00866600 1.74733900
34 1.82699700 0.00006700 0.00000800 -0.00960000 0.03933600 1.03480400
35 1.43658000 -0.00000900 0.00000700 0.00920600 -0.01195300 0.18538500
36 3.99234900 0.89108800 1.82799500 -0.35970300 0.17444700 1.85336800
37 1.40592100 0.00002400 -0.00000600 -0.00532700 -0.02898000 1.05708400
38 1.17536400 -0.00013000 0.00000400 -0.02438600 0.12085600 -0.24485400
39 4.52675300 0.69045800 1.12084200 -0.19850600 0.11142400 1.89012200
40 1.74404300 -0.00003100 -0.00000300 -0.01824500 -0.02329100 1.07737500
41 1.36876500 -0.00003300 -0.00001700 -0.30904900 0.21082100 -0.41806400
42 1.87484800 0.93507900 -0.99912900 2.44808600 0.23419600 1.08300800
43 1.45054400 -0.06018600 0.09121600 0.04429500 0.17016300 0.35957300
44 1.59928000 0.00000200 0.00000700 0.08169400 -0.01721100 1.03306000
45 5.51180800 -0.00000200 0.00000400 -0.66744800 0.00000000 0.00000000
46 0.19684700 0.00000100 -0.00000100 -0.34822500 0.00001500 -0.00000200
47 0.00000000 0.00000000 0.00000000 0.00000000 0.00000000 -1.57079600
48 -3.25924500 2.61795900 -2.47946000 0.00000000 0.00000000 -3.14156200
49 -4.25071335 24.11543300 0.70523140 0.24478919 0.26322744 -1.13408370
50 8.01364500 0.37442000 -4.98689200 0.28404100 0.91604400 1.56278700
51 2.12611000 0.20631500 -2.36892700 0.00000000 0.00000000 0.00000000
52 -3.30176700 0.07623700 -0.96686500 0.00000000 0.00000000 0.00000000
53 -0.04653700 0.00000000 0.34724600 0.00000000 0.00000000 0.00000000
54 -0.86789300 0.29605900 -0.14169800 0.00000000 0.00000000 0.00000000
55 -1.56189500 0.77710900 -1.42271700 0.00000000 0.00000000 0.00000000
56 -1.93101900 -1.53806600 -0.13749900 0.00000000 0.00000000 0.00000000
57 -0.80925900 -2.27591700 -5.33634200 2.79391700 -0.01755000 -1.99099700
time 6
0 -0.00000100 7.45008900 -27.50902600 0.00000000 0.00000000 0.00003100
1 -0.00000200 0.00000000 0.00000000 1.57074300 -1.56713700 -1.57074300
2 4.25546800 -0.33518300 -0.00000200 0.00000000 0.00000000 -0.12484800
3 7.43124800 1.49647700 0.00000200 0.00000000 0.00000000 0.24545000
4 5.27847900 0.16554100 0.00000100 0.00000000 0.00000000 0.04851100
5 0.41589100 -12.82121500 4.80500000 1.97586400 1.15990900 -1.29878600
6 -6.21448200 -0.00000700 -0.00002700 3.03995027 -0.33027530 1.43298109
7 11.94488500 0.00000000 0.00000000 -0.18339629 -0.34908096 1.45314971
8 10.62018100 0.00000000 -0.00000100 0.90626881 0.47270639 2.49101420
9 -4.75111000 -0.69449200 0.83057500 -0.22614300 -0.17766500 0.36328700
10 -1.68807100 0.00004600 -0.00003500 0.00949800 -0.02279200 1.04398900
11 -1.33613800 0.00005600 -0.00001200 0.02590800 -0.00478700 0.73446100
12 -4.82049900 -0.50945800 -0.22476000 -0.36210500 -0.06757800 1.36923200
13 -1.82699100 -0.00006500 0.00000700 -0.00054800 0.04045100 1.25907900
14 -1.43657900 0.00001000 0.00000400 -0.05524000 -0.05469200 0.69918900
15 -3.99236100 -0.89118600 -1.82790900 -0.62977000 0.05424300 1.31213700
16 -1.40592300 -0.00002600 -0.00000400 -0.00006700 -0.02943000 0.87674900
17 -1.17536200 0.00012700 -0.00002000 0.05560900 0.03892800 0.86426700
18 -4.52675500 -0.69057300 -1.12074500 -0.56604600 0.05440300 1.53571000
19 -1.74404500 0.00003700 -0.00000700 -0.02073900 -0.02109500 1.18985900
20 -1.36876500 0.00002400 0.00000200 0.03508000 0.03899700 0.62765500
21 -1.87480200 -0.93512500 0.99917200 1.80705300 0.58092500 0.78096600
22 -1.52345100 0.00003100 0.00002800 0.08099400 0.15396900 0.58815600
23 -1.59928400 0.00000300 0.00001400 0.01453800 -0.04039900 1.20561000
24 5.58312600 0.11572700 0.29499600 2.23698600 -0.06403800 3.11154600
25 0.19684800 -0.00000300 0.00000300 2.79340686 -0.00086605 -3.14134697
26 -4.82785200 -16.44134100 3.99511200 1.97586200 1.15990900 1.84280300
27 6.21448500 0.00000600 0.00002000 -0.69614149 0.21599302 -1.60553877
28 11.94488900 -0.00003100 -0.00019000 0.06307822 -0.33376326 -1.26925905
29 10.62016700 0.00000400 0.00000900 -2.21174321 -0.39753671 0.32816263
30 4.75115400 0.69437600 -0.83047200 -0.08930000 -0.18117900 1.30935300
31 1.68806600 -0.00002700 0.00000200 -0.00178600 -0.02466300 1.51256600
32 1.33614400 -0.00005300 -0.00000900 0.01567100 -0.03539000 -0.04612900
33 4.82051300 0.50934000 0.22486600 -0.20765200 -0.00866600 1.74733900
34 1.82699700 0.00006700 0.00000800 -0.00960000 0.03933600 1.03480400
35 1.43658000 -0.00000900 0.00000700 0.00920600 -0.01195300 0.18538500
36 3.99234900 0.89108800 1.82799500 -0.35970300 0.17444700 1.85336800
37 1.40592100 0.00002400 -0.00000600 -0.00532700 -0.02898000 1.05708400
38 1.17536400 -0.00013000 0.00000400 -0.02438600 0.12085600 -0.24485400
39 4.52675300 0.69045800 1.12084200 -0.19850600 0.11142400 1.89012200
40 1.74404300 -0.00003100 -0.00000300 -0.01824500 -0.02329100 1.07737500
41 1.36876500 -0.00003300 -0.00001700 -0.30904900 0.21082100 -0.41806400
42 1.87484800 0.93507900 -0.99912900 2.44808600 0.23419600 1.08300800
43 1.45054400 -0.06018600 0.09121600 0.04429500 0.17016300 0.35957300
44 1.59928000 0.00000200 0.00000700 0.08169400 -0.01721100 1.03306000
45 5.51180800 -0.00000200 0.00000400 -0.66744800 0.00000000 0.00000000
46 0.19684700 0.00000100 -0.00000100 -0.34822500 0.00001500 -0.00000200
47 0.00000000 0.00000000 0.00000000 0.00000000 0.00000000 -1.57079600
48 -3.25924500 2.61795900 -2.47946000 0.00000000 0.00000000 -3.14156200
49 -4.82644563 24.03006600 0.49283209 0.32626022 0.29769061 -0.98027687
50 8.01364500 0.37442000 -4.98689200 0.28404100 0.91604400 1.56278700
51 2.12611000 0.20631500 -2.36892700 0.00000000 0.00000000 0.00000000
52 -3.30176700 0.07623700 -0.96686500 0.00000000 0.00000000 0.00000000
53 -0.04653700 0.00000000 0.34724600 0.00000000 0.00000000 0.00000000
54 -0.86789300 0.29605900 -0.14169800 0.00000000 0.00000000 0.00000000
55 -1.56189500 0.77710900 -1.42271700 0.00000000 0.00000000 0.00000000
56 -1.93101900 -1.53806600 -0.13749900 0.00000000 0.00000000 0.00000000
57 -0.80925900 -2.27591700 -5.33634200 2.79391700 -0.01755000 -1.99099700
time 7
0 -0.00000100 7.45008900 -27.50902600 0.00000000 0.00000000 0.00003100
1 -0.00000200 0.00000000 0.00000000 1.57074300 -1.56713700 -1.57074300
2 4.25546800 -0.33518300 -0.00000200 0.00000000 0.00000000 -0.12484800
3 7.43124800 1.49647700 0.00000200 0.00000000 0.00000000 0.24545000
4 5.27847900 0.16554100 0.00000100 0.00000000 0.00000000 0.04851100
5 -0.34375600 -14.37561100 6.36624300 1.97586400 1.15990900 -1.29878600
6 -6.21448200 -0.00000700 -0.00002700 3.01051746 -0.30486879 1.33323670
7 11.94488500 0.00000000 0.00000000 -0.18305944 -0.35067805 1.45208680
8 10.62018100 0.00000000 -0.00000100 0.89633016 0.46747987 2.51086834
9 -4.75111000 -0.69449200 0.83057500 -0.22614300 -0.17766500 0.36328700
10 -1.68807100 0.00004600 -0.00003500 0.00949800 -0.02279200 1.04398900
11 -1.33613800 0.00005600 -0.00001200 0.02590800 -0.00478700 0.73446100
12 -4.82049900 -0.50945800 -0.22476000 -0.36210500 -0.06757800 1.36923200
13 -1.82699100 -0.00006500 0.00000700 -0.00054800 0.04045100 1.25907900
14 -1.43657900 0.00001000 0.00000400 -0.05524000 -0.05469200 0.69918900
15 -3.99236100 -0.89118600 -1.82790900 -0.62977000 0.05424300 1.31213700
16 -1.40592300 -0.00002600 -0.00000400 -0.00006700 -0.02943000 0.87674900
17 -1.17536200 0.00012700 -0.00002000 0.05560900 0.03892800 0.86426700
18 -4.52675500 -0.69057300 -1.12074500 -0.56604600 0.05440300 1.53571000
19 -1.74404500 0.00003700 -0.00000700 -0.02073900 -0.02109500 1.18985900
20 -1.36876500 0.00002400 0.00000200 0.03508000 0.03899700 0.62765500
21 -1.87480200 -0.93512500 0.99917200 1.80705300 0.58092500 0.78096600
22 -1.52345100 0.00003100 0.00002800 0.08099400 0.15396900 0.58815600
23 -1.59928400 0.00000300 0.00001400 0.01453800 -0.04039900 1.20561000
24 5.58312600 0.11572700 0.29499600 2.23698600 -0.06403800 3.11154600
25 0.19684800 -0.00000300 0.00000300 2.79340686 -0.00086605 -3.14134697
26 -5.60492500 -16.60215400 5.38871000 1.97586200 1.15990900 1.84280300
27 6.21448500 0.00000600 0.00002000 -0.83355888 0.19890651 -1.56345913
28 11.94488900 -0.00003100 -0.00019000 0.22026794 -0.33540283 -1.25082288
29 10.62016700 0.00000400 0.00000900 -2.26506815 -0.32525460 0.32236240
30 4.75115400 0.69437600 -0.83047200 -0.08930000 -0.18117900 1.30935300
31 1.68806600 -0.00002700 0.00000200 -0.00178600 -0.02466300 1.51256600
32 1.33614400 -0.00005300 -0.00000900 0.01567100 -0.03539000 -0.04612900
33 4.82051300 0.50934000 0.22486600 -0.20765200 -0.00866600 1.74733900
34 1.82699700 0.00006700 0.00000800 -0.00960000 0.03933600 1.03480400
35 1.43658000 -0.00000900 0.00000700 0.00920600 -0.01195300 0.18538500
36 3.99234900 0.89108800 1.82799500 -0.35970300 0.17444700 1.85336800
37 1.40592100 0.00002400 -0.00000600 -0.00532700 -0.02898000 1.05708400
38 1.17536400 -0.00013000 0.00000400 -0.02438600 0.12085600 -0.24485400
39 4.52675300 0.69045800 1.12084200 -0.19850600 0.11142400 1.89012200
40 1.74404300 -0.00003100 -0.00000300 -0.01824500 -0.02329100 1.07737500
41 1.36876500 -0.00003300 -0.00001700 -0.30904900 0.21082100 -0.41806400
42 1.87484800 0.93507900 -0.99912900 2.44808600 0.23419600 1.08300800
43 1.45054400 -0.06018600 0.09121600 0.04429500 0.17016300 0.35957300
44 1.59928000 0.00000200 0.00000700 0.08169400 -0.01721100 1.03306000
45 5.51180800 -0.00000200 0.00000400 -0.66744800 0.00000000 0.00000000
46 0.19684700 0.00000100 -0.00000100 -0.34822500 0.00001500 -0.00000200
47 0.00000000 0.00000000 0.00000000 0.00000000 0.00000000 -1.57079600
48 -3.25924500 2.61795900 -2.47946000 0.00000000 0.00000000 -3.14156200
49 -5.49392103 23.95056900 0.21250482 0.37745613 0.30631917 -0.83803272
50 8.01364500 0.37442000 -4.98689200 0.28404100 0.91604400 1.56278700
51 2.12611000 0.20631500 -2.36892700 0.00000000 0.00000000 0.00000000
52 -3.30176700 0.07623700 -0.96686500 0.00000000 0.00000000 0.00000000
53 -0.04653700 0.00000000 0.34724600 0.00000000 0.00000000 0.00000000
54 -0.86789300 0.29605900 -0.14169800 0.00000000 0.00000000 0.00000000
55 -1.56189500 0.77710900 -1.42271700 0.00000000 0.00000000 0.00000000
56 -1.93101900 -1.53806600 -0.13749900 0.00000000 0.00000000 0.00000000
57 -0.80925900 -2.27591700 -5.33634200 2.79391700 -0.01755000 -1.99099700
time 8
0 -0.00000100 7.45008900 -27.50902600 0.00000000 0.00000000 0.00003100
1 -0.00000200 0.00000000 0.00000000 1.57074300 -1.56713700 -1.57074300
2 4.25546800 -0.33518300 -0.00000200 0.00000000 0.00000000 -0.12484800
3 7.43124800 1.49647700 0.00000200 0.00000000 0.00000000 0.24545000
4 5.27847900 0.16554100 0.00000100 0.00000000 0.00000000 0.04851100
5 -1.06080300 -15.84284200 7.83994100 1.97586400 1.15990900 -1.29878600
6 -6.21448200 -0.00000700 -0.00002700 2.98045206 -0.27468830 1.20538226
7 11.94488500 0.00000000 0.00000000 -0.16992875 -0.35107853 1.41362171
8 10.62018100 0.00000000 -0.00000100 0.85966248 0.46131007 2.50285717
9 -4.75111000 -0.69449200 0.83057500 -0.22614300 -0.17766500 0.36328700
10 -1.68807100 0.00004600 -0.00003500 0.00949800 -0.02279200 1.04398900
11 -1.33613800 0.00005600 -0.00001200 0.02590800 -0.00478700 0.73446100
12 -4.82049900 -0.50945800 -0.22476000 -0.36210500 -0.06757800 1.36923200
13 -1.82699100 -0.00006500 0.00000700 -0.00054800 0.04045100 1.25907900
14 -1.43657900 0.00001000 0.00000400 -0.05524000 -0.05469200 0.69918900
15 -3.99236100 -0.89118600 -1.82790900 -0.62977000 0.05424300 1.31213700
16 -1.40592300 -0.00002600 -0.00000400 -0.00006700 -0.02943000 0.87674900
17 -1.17536200 0.00012700 -0.00002000 0.05560900 0.03892800 0.86426700
18 -4.52675500 -0.69057300 -1.12074500 -0.56604600 0.05440300 1.53571000
19 -1.74404500 0.00003700 -0.00000700 -0.02073900 -0.02109500 1.18985900
20 -1.36876500 0.00002400 0.00000200 0.03508000 0.03899700 0.62765500
21 -1.87480200 -0.93512500 0.99917200 1.80705300 0.58092500 0.78096600
22 -1.52345100 0.00003100 0.00002800 0.08099400 0.15396900 0.58815600
23 -1.59928400 0.00000300 0.00001400 0.01453800 -0.04039900 1.20561000
24 5.58312600 0.11572700 0.29499600 2.23698600 -0.06403800 3.11154600
25 0.19684800 -0.00000300 0.00000300 2.79340686 -0.00086605 -3.14134697
26 -6.24486800 -16.73458500 6.53637800 1.97586200 1.15990900 1.84280300
27 6.21448500 0.00000600 0.00002000 -0.96080786 0.17772864 -1.52632768
28 11.94488900 -0.00003100 -0.00019000 0.38834493 -0.33586096 -1.21439173
29 10.62016700 0.00000400 0.00000900 -2.34015074 -0.24424117 0.30247605
30 4.75115400 0.69437600 -0.83047200 -0.08930000 -0.18117900 1.30935300
31 1.68806600 -0.00002700 0.00000200 -0.00178600 -0.02466300 1.51256600
32 1.33614400 -0.00005300 -0.00000900 0.01567100 -0.03539000 -0.04612900
33 4.82051300 0.50934000 0.22486600 -0.20765200 -0.00866600 1.74733900
34 1.82699700 0.00006700 0.00000800 -0.00960000 0.03933600 1.03480400
35 1.43658000 -0.00000900 0.00000700 0.00920600 -0.01195300 0.18538500
36 3.99234900 0.89108800 1.82799500 -0.35970300 0.17444700 1.85336800
37 1.40592100 0.00002400 -0.00000600 -0.00532700 -0.02898000 1.05708400
38 1.17536400 -0.00013000 0.00000400 -0.02438600 0.12085600 -0.24485400
39 4.52675300 0.69045800 1.12084200 -0.19850600 0.11142400 1.89012200
40 1.74404300 -0.00003100 -0.00000300 -0.01824500 -0.02329100 1.07737500
41 1.36876500 -0.00003300 -0.00001700 -0.30904900 0.21082100 -0.41806400
42 1.87484800 0.93507900 -0.99912900 2.44808600 0.23419600 1.08300800
43 1.45054400 -0.06018600 0.09121600 0.04429500 0.17016300 0.35957300
44 1.59928000 0.00000200 0.00000700 0.08169400 -0.01721100 1.03306000
45 5.51180800 -0.00000200 0.00000400 -0.66744800 0.00000000 0.00000000
46 0.19684700 0.00000100 -0.00000100 -0.34822500 0.00001500 -0.00000200
47 0.00000000 0.00000000 0.00000000 0.00000000 0.00000000 -1.57079600
48 -3.25924500 2.61795900 -2.47946000 0.00000000 0.00000000 -3.14156200
49 -6.26155505 23.88230500 -0.11770028 0.40542878 0.29964851 -0.71824878
50 8.01364500 0.37442000 -4.98689200 0.28404100 0.91604400 1.56278700
51 2.12611000 0.20631500 -2.36892700 0.00000000 0.00000000 0.00000000
52 -3.30176700 0.07623700 -0.96686500 0.00000000 0.00000000 0.00000000
53 -0.04653700 0.00000000 0.34724600 0.00000000 0.00000000 0.00000000
54 -0.86789300 0.29605900 -0.14169800 0.00000000 0.00000000 0.00000000
55 -1.56189500 0.77710900 -1.42271700 0.00000000 0.00000000 0.00000000
56 -1.93101900 -1.53806600 -0.13749900 0.00000000 0.00000000 0.00000000
57 -0.80925900 -2.27591700 -5.33634200 2.79391700 -0.01755000 -1.99099700
time 9
0 -0.00000100 7.45008900 -27.50902600 0.00000000 0.00000000 0.00003100
1 -0.00000200 0.00000000 0.00000000 1.57074300 -1.56713700 -1.57074300
2 4.25546800 -0.33518300 -0.00000200 0.00000000 0.00000000 -0.12484800
3 7.43124800 1.49647700 0.00000200 0.00000000 0.00000000 0.24545000
4 5.27847900 0.16554100 0.00000100 0.00000000 0.00000000 0.04851100
5 -1.69266000 -17.13575000 9.13854400 1.97586400 1.15990900 -1.29878600
6 -6.21448200 -0.00000700 -0.00002700 2.95413481 -0.24337198 1.06635647
7 11.94488500 0.00000000 0.00000000 -0.14179596 -0.34755556 1.32999315
8 10.62018100 0.00000000 -0.00000100 0.82052579 0.45942193 2.50639408
9 -4.75111000 -0.69449200 0.83057500 -0.22614300 -0.17766500 0.36328700
10 -1.68807100 0.00004600 -0.00003500 0.00949800 -0.02279200 1.04398900
11 -1.33613800 0.00005600 -0.00001200 0.02590800 -0.00478700 0.73446100
12 -4.82049900 -0.50945800 -0.22476000 -0.36210500 -0.06757800 1.36923200
13 -1.82699100 -0.00006500 0.00000700 -0.00054800 0.04045100 1.25907900
14 -1.43657900 0.00001000 0.00000400 -0.05524000 -0.05469200 0.69918900
15 -3.99236100 -0.89118600 -1.82790900 -0.62977000 0.05424300 1.31213700
16 -1.40592300 -0.00002600 -0.00000400 -0.00006700 -0.02943000 0.87674900
17 -1.17536200 0.00012700 -0.00002000 0.05560900 0.03892800 0.86426700
18 -4.52675500 -0.69057300 -1.12074500 -0.56604600 0.05440300 1.53571000
19 -1.74404500 0.00003700 -0.00000700 -0.02073900 -0.02109500 1.18985900
20 -1.36876500 0.00002400 0.00000200 0.03508000 0.03899700 0.62765500
21 -1.87480200 -0.93512500 0.99917200 1.80705300 0.58092500 0.78096600
22 -1.52345100 0.00003100 0.00002800 0.08099400 0.15396900 0.58815600
23 -1.59928400 0.00000300 0.00001400 0.01453800 -0.04039900 1.20561000
24 5.58312600 0.11572700 0.29499600 2.23698600 -0.06403800 3.11154600
25 0.19684800 -0.00000300 0.00000300 2.79340686 -0.00086605 -3.14134697
26 -6.67911400 -16.82445100 7.31515200 1.97586200 1.15990900 1.84280300
27 6.21448500 0.00000600 0.00002000 -1.06655263 0.15644095 -1.49864168
28 11.94488900 -0.00003100 -0.00019000 0.55369778 -0.33315760 -1.16272539
29 10.62016700 0.00000400 0.00000900 -2.43932198 -0.19373392 0.26925398
30 4.75115400 0.69437600 -0.83047200 -0.08930000 -0.18117900 1.30935300
31 1.68806600 -0.00002700 0.00000200 -0.00178600 -0.02466300 1.51256600
32 1.33614400 -0.00005300 -0.00000900 0.01567100 -0.03539000 -0.04612900
33 4.82051300 0.50934000 0.22486600 -0.20765200 -0.00866600 1.74733900
34 1.82699700 0.00006700 0.00000800 -0.00960000 0.03933600 1.03480400
35 1.43658000 -0.00000900 0.00000700 0.00920600 -0.01195300 0.18538500
36 3.99234900 0.89108800 1.82799500 -0.35970300 0.17444700 1.85336800
37 1.40592100 0.00002400 -0.00000600 -0.00532700 -0.02898000 1.05708400
38 1.17536400 -0.00013000 0.00000400 -0.02438600 0.12085600 -0.24485400
39 4.52675300 0.69045800 1.12084200 -0.19850600 0.11142400 1.89012200
40 1.74404300 -0.00003100 -0.00000300 -0.01824500 -0.02329100 1.07737500
41 1.36876500 -0.00003300 -0.00001700 -0.30904900 0.21082100 -0.41806400
42 1.87484800 0.93507900 -0.99912900 2.44808600 0.23419600 1.08300800
43 1.45054400 -0.06018600 0.09121600 0.04429500 0.17016300 0.35957300
44 1.59928000 0.00000200 0.00000700 0.08169400 -0.01721100 1.03306000
45 5.51180800 -0.00000200 0.00000400 -0.66744800 0.00000000 0.00000000
46 0.19684700 0.00000100 -0.00000100 -0.34822500 0.00001500 -0.00000200
47 0.00000000 0.00000000 0.00000000 0.00000000 0.00000000 -1.57079600
48 -3.25924500 2.61795900 -2.47946000 0.00000000 0.00000000 -3.14156200
49 -7.08575629 23.82571800 -0.46228820 0.43088196 0.28890902 -0.61933842
50 8.01364500 0.37442000 -4.98689200 0.28404100 0.91604400 1.56278700
51 2.12611000 0.20631500 -2.36892700 0.00000000 0.00000000 0.00000000
52 -3.30176700 0.07623700 -0.96686500 0.00000000 0.00000000 0.00000000
53 -0.04653700 0.00000000 0.34724600 0.00000000 0.00000000 0.00000000
54 -0.86789300 0.29605900 -0.14169800 0.00000000 0.00000000 0.00000000
55 -1.56189500 0.77710900 -1.42271700 0.00000000 0.00000000 0.00000000
56 -1.93101900 -1.53806600 -0.13749900 0.00000000 0.00000000 0.00000000
57 -0.80925900 -2.27591700 -5.33634200 2.79391700 -0.01755000 -1.99099700
time 10
0 -0.00000100 7.45008900 -27.50902600 0.00000000 0.00000000 0.00003100
1 -0.00000200 0.00000000 0.00000000 1.57074300 -1.56713700 -1.57074300
2 4.25546800 -0.33518300 -0.00000200 0.00000000 0.00000000 -0.12484800
3 7.43124800 1.49647700 0.00000200 0.00000000 0.00000000 0.24545000
4 5.27847900 0.16554100 0.00000100 0.00000000 0.00000000 0.04851100
5 -2.19672300 -18.16717000 10.17451000 1.97586400 1.15990900 -1.29878600
6 -6.21448200 -0.00000700 -0.00002700 2.93797912 -0.21389033 0.95650871
7 11.94488500 0.00000000 0.00000000 -0.11381064 -0.34068801 1.24520944
8 10.62018100 0.00000000 -0.00000100 0.79263126 0.44987078 2.53099219
9 -4.75111000 -0.69449200 0.83057500 -0.22614300 -0.17766500 0.36328700
10 -1.68807100 0.00004600 -0.00003500 0.00949800 -0.02279200 1.04398900
11 -1.33613800 0.00005600 -0.00001200 0.02590800 -0.00478700 0.73446100
12 -4.82049900 -0.50945800 -0.22476000 -0.36210500 -0.06757800 1.36923200
13 -1.82699100 -0.00006500 0.00000700 -0.00054800 0.04045100 1.25907900
14 -1.43657900 0.00001000 0.00000400 -0.05524000 -0.05469200 0.69918900
15 -3.99236100 -0.89118600 -1.82790900 -0.62977000 0.05424300 1.31213700
16 -1.40592300 -0.00002600 -0.00000400 -0.00006700 -0.02943000 0.87674900
17 -1.17536200 0.00012700 -0.00002000 0.05560900 0.03892800 0.86426700
18 -4.52675500 -0.69057300 -1.12074500 -0.56604600 0.05440300 1.53571000
19 -1.74404500 0.00003700 -0.00000700 -0.02073900 -0.02109500 1.18985900
20 -1.36876500 0.00002400 0.00000200 0.03508000 0.03899700 0.62765500
21 -1.87480200 -0.93512500 0.99917200 1.80705300 0.58092500 0.78096600
22 -1.52345100 0.00003100 0.00002800 0.08099400 0.15396900 0.58815600
23 -1.59928400 0.00000300 0.00001400 0.01453800 -0.04039900 1.20561000
24 5.58312600 0.11572700 0.29499600 2.23698600 -0.06403800 3.11154600
25 0.19684800 -0.00000300 0.00000300 2.79340686 -0.00086605 -3.14134697
26 -6.83909900 -16.85755900 7.60207100 1.97586200 1.15990900 1.84280300
27 6.21448500 0.00000600 0.00002000 -1.12484779 0.14947372 -1.48708451
28 11.94488900 -0.00003100 -0.00019000 0.70681963 -0.33213593 -1.13577350
29 10.62016700 0.00000400 0.00000900 -2.54475598 -0.18294151 0.26888934
30 4.75115400 0.69437600 -0.83047200 -0.08930000 -0.18117900 1.30935300
31 1.68806600 -0.00002700 0.00000200 -0.00178600 -0.02466300 1.51256600
32 1.33614400 -0.00005300 -0.00000900 0.01567100 -0.03539000 -0.04612900
33 4.82051300 0.50934000 0.22486600 -0.20765200 -0.00866600 1.74733900
34 1.82699700 0.00006700 0.00000800 -0.00960000 0.03933600 1.03480400
35 1.43658000 -0.00000900 0.00000700 0.00920600 -0.01195300 0.18538500
36 3.99234900 0.89108800 1.82799500 -0.35970300 0.17444700 1.85336800
37 1.40592100 0.00002400 -0.00000600 -0.00532700 -0.02898000 1.05708400
38 1.17536400 -0.00013000 0.00000400 -0.02438600 0.12085600 -0.24485400
39 4.52675300 0.69045800 1.12084200 -0.19850600 0.11142400 1.89012200
40 1.74404300 -0.00003100 -0.00000300 -0.01824500 -0.02329100 1.07737500
41 1.36876500 -0.00003300 -0.00001700 -0.30904900 0.21082100 -0.41806400
42 1.87484800 0.93507900 -0.99912900 2.44808600 0.23419600 1.08300800
43 1.45054400 -0.06018600 0.09121600 0.04429500 0.17016300 0.35957300
44 1.59928000 0.00000200 0.00000700 0.08169400 -0.01721100 1.03306000
45 5.51180800 -0.00000200 0.00000400 -0.66744800 0.00000000 0.00000000
46 0.19684700 0.00000100 -0.00000100 -0.34822500 0.00001500 -0.00000200
47 0.00000000 0.00000000 0.00000000 0.00000000 0.00000000 -1.57079600
48 -3.25924500 2.61795900 -2.47946000 0.00000000 0.00000000 -3.14156200
49 -7.62288966 23.78001000 -0.68451534 0.45559882 0.27701459 -0.53978611
50 8.01364500 0.37442000 -4.98689200 0.28404100 0.91604400 1.56278700
51 2.12611000 0.20631500 -2.36892700 0.00000000 0.00000000 0.00000000
52 -3.30176700 0.07623700 -0.96686500 0.00000000 0.00000000 0.00000000
53 -0.04653700 0.00000000 0.34724600 0.00000000 0.00000000 0.00000000
54 -0.86789300 0.29605900 -0.14169800 0.00000000 0.00000000 0.00000000
55 -1.56189500 0.77710900 -1.42271700 0.00000000 0.00000000 0.00000000
56 -1.93101900 -1.53806600 -0.13749900 0.00000000 0.00000000 0.00000000
57 -0.80925900 -2.27591700 -5.33634200 2.79391700 -0.01755000 -1.99099700
time 11
0 -0.00000100 7.45008900 -27.50902600 0.00000000 0.00000000 0.00003100
1 -0.00000200 0.00000000 0.00000000 1.57074300 -1.56713700 -1.57074300
2 4.25546800 -0.33518300 -0.00000200 0.00000000 0.00000000 -0.12484800
3 7.43124800 1.49647700 0.00000200 0.00000000 0.00000000 0.24545000
4 5.27847900 0.16554100 0.00000100 0.00000000 0.00000000 0.04851100
5 -2.53039800 -18.84993700 10.86029000 1.97586400 1.15990900 -1.29878600
6 -6.21448200 -0.00000700 -0.00002700 2.93200243 -0.19103523 0.89012481
7 11.94488500 0.00000000 0.00000000 -0.09331499 -0.33339357 1.18181895
8 10.62018100 0.00000000 -0.00000100 0.78182399 0.43696838 2.57457129
9 -4.75111000 -0.69449200 0.83057500 -0.22614300 -0.17766500 0.36328700
10 -1.68807100 0.00004600 -0.00003500 0.00949800 -0.02279200 1.04398900
11 -1.33613800 0.00005600 -0.00001200 0.02590800 -0.00478700 0.73446100
12 -4.82049900 -0.50945800 -0.22476000 -0.36210500 -0.06757800 1.36923200
13 -1.82699100 -0.00006500 0.00000700 -0.00054800 0.04045100 1.25907900
14 -1.43657900 0.00001000 0.00000400 -0.05524000 -0.05469200 0.69918900
15 -3.99236100 -0.89118600 -1.82790900 -0.62977000 0.05424300 1.31213700
16 -1.40592300 -0.00002600 -0.00000400 -0.00006700 -0.02943000 0.87674900
17 -1.17536200 0.00012700 -0.00002000 0.05560900 0.03892800 0.86426700
18 -4.52675500 -0.69057300 -1.12074500 -0.56604600 0.05440300 1.53571000
19 -1.74404500 0.00003700 -0.00000700 -0.02073900 -0.02109500 1.18985900
20 -1.36876500 0.00002400 0.00000200 0.03508000 0.03899700 0.62765500
21 -1.87480200 -0.93512500 0.99917200 1.80705300 0.58092500 0.78096600
22 -1.52345100 0.00003100 0.00002800 0.08099400 0.15396900 0.58815600
23 -1.59928400 0.00000300 0.00001400 0.01453800 -0.04039900 1.20561000
24 5.58312600 0.11572700 0.29499600 2.23698600 -0.06403800 3.11154600
25 0.19684800 -0.00000300 0.00000300 2.79340686 -0.00086605 -3.14134697
26 -6.83909900 -16.85755900 7.60207100 1.97586200 1.15990900 1.84280300
27 6.21448500 0.00000600 0.00002000 -1.14682735 0.15439507 -1.48689533
28 11.94488900 -0.00003100 -0.00019000 0.82134334 -0.33379591 -1.13425679
29 10.62016700 0.00000400 0.00000900 -2.62574663 -0.19197741 0.29685162
30 4.75115400 0.69437600 -0.83047200 -0.08930000 -0.18117900 1.30935300
31 1.68806600 -0.00002700 0.00000200 -0.00178600 -0.02466300 1.51256600
32 1.33614400 -0.00005300 -0.00000900 0.01567100 -0.03539000 -0.04612900
33 4.82051300 0.50934000 0.22486600 -0.20765200 -0.00866600 1.74733900
34 1.82699700 0.00006700 0.00000800 -0.00960000 0.03933600 1.03480400
35 1.43658000 -0.00000900 0.00000700 0.00920600 -0.01195300 0.18538500
36 3.99234900 0.89108800 1.82799500 -0.35970300 0.17444700 1.85336800
37 1.40592100 0.00002400 -0.00000600 -0.00532700 -0.02898000 1.05708400
38 1.17536400 -0.00013000 0.00000400 -0.02438600 0.12085600 -0.24485400
39 4.52675300 0.69045800 1.12084200 -0.19850600 0.11142400 1.89012200
40 1.74404300 -0.00003100 -0.00000300 -0.01824500 -0.02329100 1.07737500
41 1.36876500 -0.00003300 -0.00001700 -0.30904900 0.21082100 -0.41806400
42 1.87484800 0.93507900 -0.99912900 2.44808600 0.23419600 1.08300800
43 1.45054400 -0.06018600 0.09121600 0.04429500 0.17016300 0.35957300
44 1.59928000 0.00000200 0.00000700 0.08169400 -0.01721100 1.03306000
45 5.51180800 -0.00000200 0.00000400 -0.66744800 0.00000000 0.00000000
46 0.19684700 0.00000100 -0.00000100 -0.34822500 0.00001500 -0.00000200
47 0.00000000 0.00000000 0.00000000 0.00000000 0.00000000 -1.57079600
48 -3.25924500 2.61795900 -2.47946000 0.00000000 0.00000000 -3.14156200
49 -7.87015392 23.74439200 -0.78429142 0.48007341 0.26663009 -0.47775273
50 8.01364500 0.37442000 -4.98689200 0.28404100 0.91604400 1.56278700
51 2.12611000 0.20631500 -2.36892700 0.00000000 0.00000000 0.00000000
52 -3.30176700 0.07623700 -0.96686500 0.00000000 0.00000000 0.00000000
53 -0.04653700 0.00000000 0.34724600 0.00000000 0.00000000 0.00000000
54 -0.86789300 0.29605900 -0.14169800 0.00000000 0.00000000 0.00000000
55 -1.56189500 0.77710900 -1.42271700 0.00000000 0.00000000 0.00000000
56 -1.93101900 -1.53806600 -0.13749900 0.00000000 0.00000000 0.00000000
57 -0.80925900 -2.27591700 -5.33634200 2.79391700 -0.01755000 -1.99099700
time 12
0 -0.00000100 7.45008900 -27.50902600 0.00000000 0.00000000 0.00003100
1 -0.00000200 0.00000000 0.00000000 1.57074300 -1.56713700 -1.57074300
2 4.25546800 -0.33518300 -0.00000200 0.00000000 0.00000000 -0.12484800
3 7.43124800 1.49647700 0.00000200 0.00000000 0.00000000 0.24545000
4 5.27847900 0.16554100 0.00000100 0.00000000 0.00000000 0.04851100
5 -2.65109000 -19.09690300 11.10834000 1.97586400 1.15990900 -1.29878600
6 -6.21448200 -0.00000700 -0.00002700 2.93667236 -0.17886462 0.86776341
7 11.94488500 0.00000000 0.00000000 -0.08052552 -0.32717605 1.14159426
8 10.62018100 0.00000000 -0.00000100 0.78802829 0.42673050 2.63605651
9 -4.75111000 -0.69449200 0.83057500 -0.22614300 -0.17766500 0.36328700
10 -1.68807100 0.00004600 -0.00003500 0.00949800 -0.02279200 1.04398900
11 -1.33613800 0.00005600 -0.00001200 0.02590800 -0.00478700 0.73446100
12 -4.82049900 -0.50945800 -0.22476000 -0.36210500 -0.06757800 1.36923200
13 -1.82699100 -0.00006500 0.00000700 -0.00054800 0.04045100 1.25907900
14 -1.43657900 0.00001000 0.00000400 -0.05524000 -0.05469200 0.69918900
15 -3.99236100 -0.89118600 -1.82790900 -0.62977000 0.05424300 1.31213700
16 -1.40592300 -0.00002600 -0.00000400 -0.00006700 -0.02943000 0.87674900
17 -1.17536200 0.00012700 -0.00002000 0.05560900 0.03892800 0.86426700
18 -4.52675500 -0.69057300 -1.12074500 -0.56604600 0.05440300 1.53571000
19 -1.74404500 0.00003700 -0.00000700 -0.02073900 -0.02109500 1.18985900
20 -1.36876500 0.00002400 0.00000200 0.03508000 0.03899700 0.62765500
21 -1.87480200 -0.93512500 0.99917200 1.80705300 0.58092500 0.78096600
22 -1.52345100 0.00003100 0.00002800 0.08099400 0.15396900 0.58815600
23 -1.59928400 0.00000300 0.00001400 0.01453800 -0.04039900 1.20561000
24 5.58312600 0.11572700 0.29499600 2.23698600 -0.06403800 3.11154600
25 0.19684800 -0.00000300 0.00000300 2.79340686 -0.00086605 -3.14134697
26 -6.83909900 -16.85755900 7.60207100 1.97586200 1.15990900 1.84280300
27 6.21448500 0.00000600 0.00002000 -1.15774961 0.15360447 -1.48853382
28 11.94488900 -0.00003100 -0.00019000 0.86363593 -0.33172117 -1.13196639
29 10.62016700 0.00000400 0.00000900 -2.65041532 -0.21441661 0.32055686
30 4.75115400 0.69437600 -0.83047200 -0.08930000 -0.18117900 1.30935300
31 1.68806600 -0.00002700 0.00000200 -0.00178600 -0.02466300 1.51256600
32 1.33614400 -0.00005300 -0.00000900 0.01567100 -0.03539000 -0.04612900
33 4.82051300 0.50934000 0.22486600 -0.20765200 -0.00866600 1.74733900
34 1.82699700 0.00006700 0.00000800 -0.00960000 0.03933600 1.03480400
35 1.43658000 -0.00000900 0.00000700 0.00920600 -0.01195300 0.18538500
36 3.99234900 0.89108800 1.82799500 -0.35970300 0.17444700 1.85336800
37 1.40592100 0.00002400 -0.00000600 -0.00532700 -0.02898000 1.05708400
38 1.17536400 -0.00013000 0.00000400 -0.02438600 0.12085600 -0.24485400
39 4.52675300 0.69045800 1.12084200 -0.19850600 0.11142400 1.89012200
40 1.74404300 -0.00003100 -0.00000300 -0.01824500 -0.02329100 1.07737500
41 1.36876500 -0.00003300 -0.00001700 -0.30904900 0.21082100 -0.41806400
42 1.87484800 0.93507900 -0.99912900 2.44808600 0.23419600 1.08300800
43 1.45054400 -0.06018600 0.09121600 0.04429500 0.17016300 0.35957300
44 1.59928000 0.00000200 0.00000700 0.08169400 -0.01721100 1.03306000
45 5.51180800 -0.00000200 0.00000400 -0.66744800 0.00000000 0.00000000
46 0.19684700 0.00000100 -0.00000100 -0.34822500 0.00001500 -0.00000200
47 0.00000000 0.00000000 0.00000000 0.00000000 0.00000000 -1.57079600
48 -3.25924500 2.61795900 -2.47946000 0.00000000 0.00000000 -3.14156200
49 -7.95608364 23.71806900 -0.78471682 0.50221838 0.25976174 -0.43197523
50 8.01364500 0.37442000 -4.98689200 0.28404100 0.91604400 1.56278700
51 2.12611000 0.20631500 -2.36892700 0.00000000 0.00000000 0.00000000
52 -3.30176700 0.07623700 -0.96686500 0.00000000 0.00000000 0.00000000
53 -0.04653700 0.00000000 0.34724600 0.00000000 0.00000000 0.00000000
54 -0.86789300 0.29605900 -0.14169800 0.00000000 0.00000000 0.00000000
55 -1.56189500 0.77710900 -1.42271700 0.00000000 0.00000000 0.00000000
56 -1.93101900 -1.53806600 -0.13749900 0.00000000 0.00000000 0.00000000
57 -0.80925900 -2.27591700 -5.33634200 2.79391700 -0.01755000 -1.99099700
time 13
0 -0.00000100 7.45008900 -27.50902600 0.00000000 0.00000000 0.00003100
1 -0.00000200 0.00000000 0.00000000 1.57074300 -1.56713700 -1.57074300
2 4.25546800 -0.33518300 -0.00000200 0.00000000 0.00000000 -0.12484800
3 7.43124800 1.49647700 0.00000200 0.00000000 0.00000000 0.24545000
4 5.27847900 0.16554100 0.00000100 0.00000000 0.00000000 0.04851100
5 -2.65109000 -19.09690300 11.10834000 1.97586400 1.15990900 -1.29878600
6 -6.21448200 -0.00000700 -0.00002700 2.94579876 -0.17425907 0.86923629
7 11.94488500 0.00000000 0.00000000 -0.07467367 -0.32292149 1.12271880
8 10.62018100 0.00000000 -0.00000100 0.79137763 0.41917690 2.68740366
9 -4.75111000 -0.69449200 0.83057500 -0.22614300 -0.17766500 0.36328700
10 -1.68807100 0.00004600 -0.00003500 0.00949800 -0.02279200 1.04398900
11 -1.33613800 0.00005600 -0.00001200 0.02590800 -0.00478700 0.73446100
12 -4.82049900 -0.50945800 -0.22476000 -0.36210500 -0.06757800 1.36923200
13 -1.82699100 -0.00006500 0.00000700 -0.00054800 0.04045100 1.25907900
14 -1.43657900 0.00001000 0.00000400 -0.05524000 -0.05469200 0.69918900
15 -3.99236100 -0.89118600 -1.82790900 -0.62977000 0.05424300 1.31213700
16 -1.40592300 -0.00002600 -0.00000400 -0.00006700 -0.02943000 0.87674900
17 -1.17536200 0.00012700 -0.00002000 0.05560900 0.03892800 0.86426700
18 -4.52675500 -0.69057300 -1.12074500 -0.56604600 0.05440300 1.53571000
19 -1.74404500 0.00003700 -0.00000700 -0.02073900 -0.02109500 1.18985900
20 -1.36876500 0.00002400 0.00000200 0.03508000 0.03899700 0.62765500
21 -1.87480200 -0.93512500 0.99917200 1.80705300 0.58092500 0.78096600
22 -1.52345100 0.00003100 0.00002800 0.08099400 0.15396900 0.58815600
23 -1.59928400 0.00000300 0.00001400 0.01453800 -0.04039900 1.20561000
24 5.58312600 0.11572700 0.29499600 2.23698600 -0.06403800 3.11154600
25 0.19684800 -0.00000300 0.00000300 2.79340686 -0.00086605 -3.14134697
26 -6.83909900 -16.85755900 7.60207100 1.97586200 1.15990900 1.84280300
27 6.21448500 0.00000600 0.00002000 -1.16749587 0.15032753 -1.49031581
28 11.94488900 -0.00003100 -0.00019000 0.86412004 -0.32594890 -1.13427696
29 10.62016700 0.00000400 0.00000900 -2.63069591 -0.23365531 0.33210177
30 4.75115400 0.69437600 -0.83047200 -0.08930000 -0.18117900 1.30935300
31 1.68806600 -0.00002700 0.00000200 -0.00178600 -0.02466300 1.51256600
32 1.33614400 -0.00005300 -0.00000900 0.01567100 -0.03539000 -0.04612900
33 4.82051300 0.50934000 0.22486600 -0.20765200 -0.00866600 1.74733900
34 1.82699700 0.00006700 0.00000800 -0.00960000 0.03933600 1.03480400
35 1.43658000 -0.00000900 0.00000700 0.00920600 -0.01195300 0.18538500
36 3.99234900 0.89108800 1.82799500 -0.35970300 0.17444700 1.85336800
37 1.40592100 0.00002400 -0.00000600 -0.00532700 -0.02898000 1.05708400
38 1.17536400 -0.00013000 0.00000400 -0.02438600 0.12085600 -0.24485400
39 4.52675300 0.69045800 1.12084200 -0.19850600 0.11142400 1.89012200
40 1.74404300 -0.00003100 -0.00000300 -0.01824500 -0.02329100 1.07737500
41 1.36876500 -0.00003300 -0.00001700 -0.30904900 0.21082100 -0.41806400
42 1.87484800 0.93507900 -0.99912900 2.44808600 0.23419600 1.08300800
43 1.45054400 -0.06018600 0.09121600 0.04429500 0.17016300 0.35957300
44 1.59928000 0.00000200 0.00000700 0.08169400 -0.01721100 1.03306000
45 5.51180800 -0.00000200 0.00000400 -0.66744800 0.00000000 0.00000000
46 0.19684700 0.00000100 -0.00000100 -0.34822500 0.00001500 -0.00000200
47 0.00000000 0.00000000 0.00000000 0.00000000 0.00000000 -1.57079600
48 -3.25924500 2.61795900 -2.47946000 0.00000000 0.00000000 -3.14156200
49 -7.94014749 23.70024900 -0.71767855 0.51049915 0.25697397 -0.40140831
50 8.01364500 0.37442000 -4.98689200 0.28404100 0.91604400 1.56278700
51 2.12611000 0.20631500 -2.36892700 0.00000000 0.00000000 0.00000000
52 -3.30176700 0.07623700 -0.96686500 0.00000000 0.00000000 0.00000000
53 -0.04653700 0.00000000 0.34724600 0.00000000 0.00000000 0.00000000
54 -0.86789300 0.29605900 -0.14169800 0.00000000 0.00000000 0.00000000
55 -1.56189500 0.77710900 -1.42271700 0.00000000 0.00000000 0.00000000
56 -1.93101900 -1.53806600 -0.13749900 0.00000000 0.00000000 0.00000000
57 -0.80925900 -2.27591700 -5.33634200 2.79391700 -0.01755000 -1.99099700
time 14
0 -0.00000100 7.45008900 -27.50902600 0.00000000 0.00000000 0.00003100
1 -0.00000200 0.00000000 0.00000000 1.57074300 -1.56713700 -1.57074300
2 4.25546800 -0.33518300 -0.00000200 0.00000000 0.00000000 -0.12484800
3 7.43124800 1.49647700 0.00000200 0.00000000 0.00000000 0.24545000
4 5.27847900 0.16554100 0.00000100 0.00000000 0.00000000 0.04851100
5 -2.65109000 -19.09690300 11.10834000 1.97586400 1.15990900 -1.29878600
6 -6.21448200 -0.00000700 -0.00002700 2.94952891 -0.17233762 0.87031478
7 11.94488500 0.00000000 0.00000000 -0.07253495 -0.31989254 1.11548817
8 10.62018100 0.00000000 -0.00000100 0.77667671 0.41737990 2.70778170
9 -4.75111000 -0.69449200 0.83057500 -0.22614300 -0.17766500 0.36328700
10 -1.68807100 0.00004600 -0.00003500 0.00949800 -0.02279200 1.04398900
11 -1.33613800 0.00005600 -0.00001200 0.02590800 -0.00478700 0.73446100
12 -4.82049900 -0.50945800 -0.22476000 -0.36210500 -0.06757800 1.36923200
13 -1.82699100 -0.00006500 0.00000700 -0.00054800 0.04045100 1.25907900
14 -1.43657900 0.00001000 0.00000400 -0.05524000 -0.05469200 0.69918900
15 -3.99236100 -0.89118600 -1.82790900 -0.62977000 0.05424300 1.31213700
16 -1.40592300 -0.00002600 -0.00000400 -0.00006700 -0.02943000 0.87674900
17 -1.17536200 0.00012700 -0.00002000 0.05560900 0.03892800 0.86426700
18 -4.52675500 -0.69057300 -1.12074500 -0.56604600 0.05440300 1.53571000
19 -1.74404500 0.00003700 -0.00000700 -0.02073900 -0.02109500 1.18985900
20 -1.36876500 0.00002400 0.00000200 0.03508000 0.03899700 0.62765500
21 -1.87480200 -0.93512500 0.99917200 1.80705300 0.58092500 0.78096600
22 -1.52345100 0.00003100 0.00002800 0.08099400 0.15396900 0.58815600
23 -1.59928400 0.00000300 0.00001400 0.01453800 -0.04039900 1.20561000
24 5.58312600 0.11572700 0.29499600 2.23698600 -0.06403800 3.11154600
25 0.19684800 -0.00000300 0.00000300 2.79340686 -0.00086605 -3.14134697
26 -6.83909900 -16.85755900 7.60207100 1.97586200 1.15990900 1.84280300
27 6.21448500 0.00000600 0.00002000 -1.17821349 0.14900581 -1.49083056
28 11.94488900 -0.00003100 -0.00019000 0.86699479 -0.32094295 -1.14355454
29 10.62016700 0.00000400 0.00000900 -2.60197861 -0.23412390 0.33276783
30 4.75115400 0.69437600 -0.83047200 -0.08930000 -0.18117900 1.30935300
31 1.68806600 -0.00002700 0.00000200 -0.00178600 -0.02466300 1.51256600
32 1.33614400 -0.00005300 -0.00000900 0.01567100 -0.03539000 -0.04612900
33 4.82051300 0.50934000 0.22486600 -0.20765200 -0.00866600 1.74733900
34 1.82699700 0.00006700 0.00000800 -0.00960000 0.03933600 1.03480400
35 1.43658000 -0.00000900 0.00000700 0.00920600 -0.01195300 0.18538500
36 3.99234900 0.89108800 1.82799500 -0.35970300 0.17444700 1.85336800
37 1.40592100 0.00002400 -0.00000600 -0.00532700 -0.02898000 1.05708400
38 1.17536400 -0.00013000 0.00000400 -0.02438600 0.12085600 -0.24485400
39 4.52675300 0.69045800 1.12084200 -0.19850600 0.11142400 1.89012200
40 1.74404300 -0.00003100 -0.00000300 -0.01824500 -0.02329100 1.07737500
41 1.36876500 -0.00003300 -0.00001700 -0.30904900 0.21082100 -0.41806400
42 1.87484800 0.93507900 -0.99912900 2.44808600 0.23419600 1.08300800
43 1.45054400 -0.06018600 0.09121600 0.04429500 0.17016300 0.35957300
44 1.59928000 0.00000200 0.00000700 0.08169400 -0.01721100 1.03306000
45 5.51180800 -0.00000200 0.00000400 -0.66744800 0.00000000 0.00000000
46 0.19684700 0.00000100 -0.00000100 -0.34822500 0.00001500 -0.00000200
47 0.00000000 0.00000000 0.00000000 0.00000000 0.00000000 -1.57079600
48 -3.25924500 2.61795900 -2.47946000 0.00000000 0.00000000 -3.14156200
49 -7.88358419 23.69013800 -0.65119434 0.50136636 0.25861711 -0.38312853
50 8.01364500 0.37442000 -4.98689200 0.28404100 0.91604400 1.56278700
51 2.12611000 0.20631500 -2.36892700 0.00000000 0.00000000 0.00000000
52 -3.30176700 0.07623700 -0.96686500 0.00000000 0.00000000 0.00000000
53 -0.04653700 0.00000000 0.34724600 0.00000000 0.00000000 0.00000000
54 -0.86789300 0.29605900 -0.14169800 0.00000000 0.00000000 0.00000000
55 -1.56189500 0.77710900 -1.42271700 0.00000000 0.00000000 0.00000000
56 -1.93101900 -1.53806600 -0.13749900 0.00000000 0.00000000 0.00000000
57 -0.80925900 -2.27591700 -5.33634200 2.79391700 -0.01755000 -1.99099700
time 15
0 -0.00000100 7.45008900 -27.50902600 0.00000000 0.00000000 0.00003100
1 -0.00000200 0.00000000 0.00000000 1.57074300 -1.56713700 -1.57074300
2 4.25546800 -0.33518300 -0.00000200 0.00000000 0.00000000 -0.12484800
3 7.43124800 1.49647700 0.00000200 0.00000000 0.00000000 0.24545000
4 5.27847900 0.16554100 0.00000100 0.00000000 0.00000000 0.04851100
5 -2.65109000 -19.09690300 11.10834000 1.97586400 1.15990900 -1.29878600
6 -6.21448200 -0.00000700 -0.00002700 2.94861893 -0.17279138 0.87133551
7 11.94488500 0.00000000 0.00000000 -0.07269067 -0.31805945 1.11587841
8 10.62018100 0.00000000 -0.00000100 0.75548252 0.42250246 2.70731661
9 -4.75111000 -0.69449200 0.83057500 -0.22614300 -0.17766500 0.36328700
10 -1.68807100 0.00004600 -0.00003500 0.00949800 -0.02279200 1.04398900
11 -1.33613800 0.00005600 -0.00001200 0.02590800 -0.00478700 0.73446100
12 -4.82049900 -0.50945800 -0.22476000 -0.36210500 -0.06757800 1.36923200
13 -1.82699100 -0.00006500 0.00000700 -0.00054800 0.04045100 1.25907900
14 -1.43657900 0.00001000 0.00000400 -0.05524000 -0.05469200 0.69918900
15 -3.99236100 -0.89118600 -1.82790900 -0.62977000 0.05424300 1.31213700
16 -1.40592300 -0.00002600 -0.00000400 -0.00006700 -0.02943000 0.87674900
17 -1.17536200 0.00012700 -0.00002000 0.05560900 0.03892800 0.86426700
18 -4.52675500 -0.69057300 -1.12074500 -0.56604600 0.05440300 1.53571000
19 -1.74404500 0.00003700 -0.00000700 -0.02073900 -0.02109500 1.18985900
20 -1.36876500 0.00002400 0.00000200 0.03508000 0.03899700 0.62765500
21 -1.87480200 -0.93512500 0.99917200 1.80705300 0.58092500 0.78096600
22 -1.52345100 0.00003100 0.00002800 0.08099400 0.15396900 0.58815600
23 -1.59928400 0.00000300 0.00001400 0.01453800 -0.04039900 1.20561000
24 5.58312600 0.11572700 0.29499600 2.23698600 -0.06403800 3.11154600
25 0.19684800 -0.00000300 0.00000300 2.79340686 -0.00086605 -3.14134697
26 -6.83909900 -16.85755900 7.60207100 1.97586200 1.15990900 1.84280300
27 6.21448500 0.00000600 0.00002000 -1.18646724 0.14837122 -1.49050450
28 11.94488900 -0.00003100 -0.00019000 0.87002238 -0.31701734 -1.15290108
29 10.62016700 0.00000400 0.00000900 -2.57603453 -0.22622189 0.32607273
30 4.75115400 0.69437600 -0.83047200 -0.08930000 -0.18117900 1.30935300
31 1.68806600 -0.00002700 0.00000200 -0.00178600 -0.02466300 1.51256600
32 1.33614400 -0.00005300 -0.00000900 0.01567100 -0.03539000 -0.04612900
33 4.82051300 0.50934000 0.22486600 -0.20765200 -0.00866600 1.74733900
34 1.82699700 0.00006700 0.00000800 -0.00960000 0.03933600 1.03480400
35 1.43658000 -0.00000900 0.00000700 0.00920600 -0.01195300 0.18538500
36 3.99234900 0.89108800 1.82799500 -0.35970300 0.17444700 1.85336800
37 1.40592100 0.00002400 -0.00000600 -0.00532700 -0.02898000 1.05708400
38 1.17536400 -0.00013000 0.00000400 -0.02438600 0.12085600 -0.24485400
39 4.52675300 0.69045800 1.12084200 -0.19850600 0.11142400 1.89012200
40 1.74404300 -0.00003100 -0.00000300 -0.01824500 -0.02329100 1.07737500
41 1.36876500 -0.00003300 -0.00001700 -0.30904900 0.21082100 -0.41806400
42 1.87484800 0.93507900 -0.99912900 2.44808600 0.23419600 1.08300800
43 1.45054400 -0.06018600 0.09121600 0.04429500 0.17016300 0.35957300
44 1.59928000 0.00000200 0.00000700 0.08169400 -0.01721100 1.03306000
45 5.51180800 -0.00000200 0.00000400 -0.66744800 0.00000000 0.00000000
46 0.19684700 0.00000100 -0.00000100 -0.34822500 0.00001500 -0.00000200
47 0.00000000 0.00000000 0.00000000 0.00000000 0.00000000 -1.57079600
48 -3.25924500 2.61795900 -2.47946000 0.00000000 0.00000000 -3.14156200
49 -7.80970170 23.68694300 -0.60485479 0.48596889 0.26470185 -0.37547407
50 8.01364500 0.37442000 -4.98689200 0.28404100 0.91604400 1.56278700
51 2.12611000 0.20631500 -2.36892700 0.00000000 0.00000000 0.00000000
52 -3.30176700 0.07623700 -0.96686500 0.00000000 0.00000000 0.00000000
53 -0.04653700 0.00000000 0.34724600 0.00000000 0.00000000 0.00000000
54 -0.86789300 0.29605900 -0.14169800 0.00000000 0.00000000 0.00000000
55 -1.56189500 0.77710900 -1.42271700 0.00000000 0.00000000 0.00000000
56 -1.93101900 -1.53806600 -0.13749900 0.00000000 0.00000000 0.00000000
57 -0.80925900 -2.27591700 -5.33634200 2.79391700 -0.01755000 -1.99099700
end
