// Created by Crowbar 0.74
version 1
nodes
  0 "root" -1
  1 "pelvis" 0
  2 "spine_01" 1
  3 "spine_02" 2
  4 "spine_03" 3
  5 "clavicle_r" 4
  6 "upperarm_r" 5
  7 "lowerarm_r" 6
  8 "hand_r" 7
  9 "index_01_r" 8
  10 "index_02_r" 9
  11 "index_03_r" 10
  12 "middle_01_r" 8
  13 "middle_02_r" 12
  14 "middle_03_r" 13
  15 "pinky_01_r" 8
  16 "pinky_02_r" 15
  17 "pinky_03_r" 16
  18 "ring_01_r" 8
  19 "ring_02_r" 18
  20 "ring_03_r" 19
  21 "thumb_01_r" 8
  22 "thumb_02_r" 21
  23 "thumb_03_r" 22
  24 "lowerarm_twist_01_r" 7
  25 "upperarm_twist_01_r" 6
  26 "clavicle_l" 4
  27 "upperarm_l" 26
  28 "lowerarm_l" 27
  29 "hand_l" 28
  30 "index_01_l" 29
  31 "index_02_l" 30
  32 "index_03_l" 31
  33 "middle_01_l" 29
  34 "middle_02_l" 33
  35 "middle_03_l" 34
  36 "pinky_01_l" 29
  37 "pinky_02_l" 36
  38 "pinky_03_l" 37
  39 "ring_01_l" 29
  40 "ring_02_l" 39
  41 "ring_03_l" 40
  42 "thumb_01_l" 29
  43 "thumb_02_l" 42
  44 "thumb_03_l" 43
  45 "lowerarm_twist_01_l" 28
  46 "upperarm_twist_01_l" 27
  47 "cam_driver" -1
  48 "Base" -1
  49 "rhand_ikTarget" 48
  50 "Trigger" 48
  51 "Mag" 48
  52 "Bullets" 51
  53 "Bolt" 48
  54 "MagRelease" 48
  55 "lhand_ikTarget" 48
end
skeleton
  time 0
    0 -0.000001 8.445313 -27.500000 0.000000 0.000000 -0.000001
    1 -0.000002 0.000000 0.000000 1.570747 -1.567142 -1.570747
    2 4.255466 -0.335183 -0.000002 0.000000 0.000000 -0.124848
    3 7.431250 1.496479 0.000002 0.000000 0.000000 0.245450
    4 5.278479 0.165544 0.000001 0.000000 0.000000 0.048511
    5 3.444242 -9.169635 1.051463 1.975865 1.159909 -1.298786
    6 -6.214478 -0.000009 -0.000026 3.334206 -0.536736 1.405243
    7 11.944885 0.000000 0.000000 -0.256573 -0.347838 1.667236
    8 10.620188 0.000000 0.000000 0.854382 0.491976 1.839617
    9 -4.751108 -0.694498 0.830580 -0.138724 -0.155520 0.348731
    10 -1.688068 0.000047 -0.000031 0.017236 -0.017798 0.669784
    11 -1.336140 0.000055 -0.000010 0.026197 -0.003271 0.678008
    12 -4.820494 -0.509464 -0.224759 -0.357827 -0.084205 1.336877
    13 -1.826984 -0.000069 0.000008 0.001177 0.040509 1.302865
    14 -1.436569 0.000004 0.000003 -0.043286 -0.064688 0.497982
    15 -3.992357 -0.891191 -1.827909 -0.441009 0.257459 1.615500
    16 -1.405918 -0.000025 -0.000002 -0.008644 -0.028235 1.172937
    17 -1.175358 0.000126 -0.000019 0.035820 0.057786 0.458700
    18 -4.526751 -0.690580 -1.120741 -0.315741 0.210772 1.632415
    19 -1.744038 0.000032 -0.000008 -0.024048 -0.017286 1.358630
    20 -1.368771 0.000023 0.000002 0.012522 0.051009 0.135918
    21 -1.874796 -0.935125 0.999175 2.100355 0.441886 0.865551
    22 -1.523447 0.000031 0.000031 0.089509 0.149288 0.643925
    23 -1.599285 0.000011 0.000015 0.036995 -0.021841 0.513351
    24 5.582031 0.115723 0.294922 2.423181 -0.061064 3.105775
    25 0.196846 -0.000002 0.000003 2.793407 0.000006 -3.141577
    26 -1.380124 -17.349569 -1.199906 1.975862 1.159910 1.842803
    27 6.214486 0.000008 0.000019 -1.271319 0.021907 -1.797532
    28 11.944888 -0.000031 -0.000200 -1.323753 0.715699 -0.748769
    29 10.620165 0.000002 0.000006 -0.643965 -0.567768 -0.410365
    30 4.751158 0.694374 -0.830474 -0.210364 -0.452744 0.709260
    31 1.688065 -0.000022 0.000002 0.000087 -0.024777 1.435340
    32 1.336151 -0.000051 -0.000009 -0.018216 -0.034222 0.860592
    33 4.820515 0.509338 0.224866 -0.572968 -0.272712 1.234842
    34 1.826992 0.000066 0.000010 -0.001994 0.040478 1.224572
    35 1.436581 -0.000006 0.000010 0.002497 -0.014984 0.676024
    36 3.992353 0.891087 1.827993 -0.771838 0.260222 1.674607
    37 1.405926 0.000031 -0.000003 0.000994 -0.029515 0.841936
    38 1.175362 -0.000132 0.000001 0.037919 0.117350 0.268302
    39 4.526758 0.690464 1.120843 -0.780499 0.039748 1.632211
    40 1.744041 -0.000031 -0.000002 -0.018971 -0.022747 1.106327
    41 1.368767 -0.000031 -0.000018 -0.151087 0.088387 0.079887
    42 2.091797 1.019531 -0.707520 2.760546 0.275867 1.220493
    43 1.455078 -0.195068 0.011063 -0.209513 0.223773 0.554874
    44 1.599281 -0.000004 0.000010 -0.008375 -0.021947 0.838714
    45 5.511806 -0.000002 0.000003 0.099819 0.000003 0.000008
    46 0.196849 0.000003 -0.000001 -0.348225 0.000015 -0.000002
    47 0.000000 0.999512 0.000000 0.000000 0.000000 -1.570796
    48 0.123437 -18.029623 -2.536984 0.000000 0.000000 1.570735
    49 7.359375 0.563965 -3.140625 0.422255 1.066391 1.740807
    50 0.696635 -0.011782 0.136167 0.000000 0.000000 0.000000
    51 -1.478932 -0.011782 1.098058 0.000000 0.000000 0.000000
    52 0.096140 0.000000 0.432839 0.000000 0.000000 0.000000
    53 3.292969 0.140137 2.103516 0.000000 0.000000 0.000000
    54 0.147536 -0.811491 -0.247168 0.000000 0.000000 0.000000
    55 -6.321769 -1.847687 -2.720937 3.027418 0.046220 -1.803449
  time 1
    0 -0.000001 8.445313 -27.500000 0.000000 0.000000 -0.000001
    1 -0.000002 0.000000 0.000000 1.570747 -1.567142 -1.570747
    2 4.255466 -0.335183 -0.000002 0.000000 0.000000 -0.124848
    3 7.431250 1.496479 0.000002 0.000000 0.000000 0.245450
    4 5.278479 0.165544 0.000001 0.000000 0.000000 0.048511
    5 3.342676 -9.247762 1.153029 1.975865 1.159909 -1.298786
    6 -6.214478 -0.000009 -0.000026 3.327651 -0.551257 1.417257
    7 11.944885 0.000000 0.000000 -0.270480 -0.346304 1.708085
    8 10.620188 0.000000 0.000000 0.879581 0.497737 1.856622
    9 -4.751108 -0.694498 0.830580 -0.138724 -0.155520 0.348731
    10 -1.688068 0.000047 -0.000031 0.017236 -0.017798 0.669784
    11 -1.336140 0.000055 -0.000010 0.026197 -0.003271 0.678008
    12 -4.820494 -0.509464 -0.224759 -0.357827 -0.084205 1.336877
    13 -1.826984 -0.000069 0.000008 0.001177 0.040509 1.302865
    14 -1.436569 0.000004 0.000003 -0.043286 -0.064688 0.497982
    15 -3.992357 -0.891191 -1.827909 -0.441009 0.257459 1.615500
    16 -1.405918 -0.000025 -0.000002 -0.008644 -0.028235 1.172937
    17 -1.175358 0.000126 -0.000019 0.035820 0.057786 0.458700
    18 -4.526751 -0.690580 -1.120741 -0.315741 0.210772 1.632415
    19 -1.744038 0.000032 -0.000008 -0.024048 -0.017286 1.358630
    20 -1.368771 0.000023 0.000002 0.012522 0.051009 0.135918
    21 -1.874796 -0.935125 0.999175 2.100355 0.441886 0.865551
    22 -1.523447 0.000031 0.000031 0.089509 0.149288 0.643925
    23 -1.599285 0.000011 0.000015 0.036995 -0.021841 0.513351
    24 5.582031 0.115723 0.294922 2.423181 -0.061064 3.105775
    25 0.196846 -0.000002 0.000003 2.793407 0.000006 -3.141577
    26 -1.372311 -17.240191 -1.231157 1.975862 1.159910 1.842803
    27 6.214486 0.000008 0.000019 -1.288738 0.028574 -1.786190
    28 11.944888 -0.000031 -0.000200 -1.321315 0.733434 -0.783186
    29 10.620165 0.000002 0.000006 -0.635147 -0.587908 -0.436508
    30 4.751158 0.694374 -0.830474 -0.210364 -0.452744 0.709260
    31 1.688065 -0.000022 0.000002 0.000087 -0.024777 1.435340
    32 1.336151 -0.000051 -0.000009 -0.018216 -0.034222 0.860592
    33 4.820515 0.509338 0.224866 -0.572968 -0.272712 1.234842
    34 1.826992 0.000066 0.000010 -0.001994 0.040478 1.224572
    35 1.436581 -0.000006 0.000010 0.002497 -0.014984 0.676024
    36 3.992353 0.891087 1.827993 -0.771838 0.260222 1.674607
    37 1.405926 0.000031 -0.000003 0.000994 -0.029515 0.841936
    38 1.175362 -0.000132 0.000001 0.037919 0.117350 0.268302
    39 4.526758 0.690464 1.120843 -0.780499 0.039748 1.632211
    40 1.744041 -0.000031 -0.000002 -0.018971 -0.022747 1.106327
    41 1.368767 -0.000031 -0.000018 -0.151087 0.088387 0.079887
    42 2.091797 1.019531 -0.707520 2.760546 0.275867 1.220493
    43 1.455078 -0.195068 0.011063 -0.209513 0.223773 0.554874
    44 1.599281 -0.000004 0.000010 -0.008375 -0.021947 0.838714
    45 5.511806 -0.000002 0.000003 0.099819 0.000003 0.000008
    46 0.196849 0.000003 -0.000001 -0.348225 0.000015 -0.000002
    47 0.000000 0.999512 0.000000 0.000000 0.000000 -1.570796
    48 0.139063 -17.732738 -2.564329 0.013259 0.018480 1.591244
    49 7.359375 0.563965 -3.140625 0.422255 1.066391 1.740807
    50 0.696635 -0.011782 0.136167 0.000000 0.000000 0.000000
    51 -1.478932 -0.011782 1.098058 0.000000 0.000000 0.000000
    52 0.096140 0.000000 0.432839 0.000000 0.000000 0.000000
    53 3.292969 0.140137 2.103516 0.000000 0.000000 0.000000
    54 0.147536 -0.811491 -0.247168 0.000000 0.000000 0.000000
    55 -6.321769 -1.847687 -2.720937 3.027418 0.046220 -1.803449
  time 2
    0 -0.000001 8.445313 -27.500000 0.000000 0.000000 -0.000001
    1 -0.000002 0.000000 0.000000 1.570747 -1.567142 -1.570747
    2 4.255466 -0.335183 -0.000002 0.000000 0.000000 -0.124848
    3 7.431250 1.496479 0.000002 0.000000 0.000000 0.245450
    4 5.278479 0.165544 0.000001 0.000000 0.000000 0.048511
    5 3.065324 -9.458706 1.438194 1.975865 1.159909 -1.298786
    6 -6.214478 -0.000009 -0.000026 3.311114 -0.586933 1.445709
    7 11.944885 0.000000 0.000000 -0.303909 -0.340348 1.807373
    8 10.620188 0.000000 0.000000 0.947556 0.506366 1.908244
    9 -4.751108 -0.694498 0.830580 -0.138724 -0.155520 0.348731
    10 -1.688068 0.000047 -0.000031 0.017236 -0.017798 0.669784
    11 -1.336140 0.000055 -0.000010 0.026197 -0.003271 0.678008
    12 -4.820494 -0.509464 -0.224759 -0.357827 -0.084205 1.336877
    13 -1.826984 -0.000069 0.000008 0.001177 0.040509 1.302865
    14 -1.436569 0.000004 0.000003 -0.043286 -0.064688 0.497982
    15 -3.992357 -0.891191 -1.827909 -0.441009 0.257459 1.615500
    16 -1.405918 -0.000025 -0.000002 -0.008644 -0.028235 1.172937
    17 -1.175358 0.000126 -0.000019 0.035820 0.057786 0.458700
    18 -4.526751 -0.690580 -1.120741 -0.315741 0.210772 1.632415
    19 -1.744038 0.000032 -0.000008 -0.024048 -0.017286 1.358630
    20 -1.368771 0.000023 0.000002 0.012522 0.051009 0.135918
    21 -1.874796 -0.935125 0.999175 2.100355 0.441886 0.865551
    22 -1.523447 0.000031 0.000031 0.089497 0.149288 0.643925
    23 -1.599285 0.000011 0.000015 0.036995 -0.021841 0.513351
    24 5.582031 0.115723 0.294922 2.423181 -0.061064 3.105775
    25 0.196846 -0.000002 0.000003 2.793407 0.000006 -3.141577
    26 -1.348873 -16.939400 -1.313191 1.975862 1.159910 1.842803
    27 6.214486 0.000008 0.000019 -1.338747 0.048985 -1.758956
    28 11.944888 -0.000031 -0.000200 -1.308410 0.774757 -0.873305
    29 10.620165 0.000002 0.000006 -0.609880 -0.640795 -0.499719
    30 4.751158 0.694374 -0.830474 -0.210364 -0.452744 0.709260
    31 1.688065 -0.000022 0.000002 0.000087 -0.024777 1.435340
    32 1.336151 -0.000051 -0.000009 -0.018216 -0.034222 0.860592
    33 4.820515 0.509338 0.224866 -0.572968 -0.272712 1.234842
    34 1.826992 0.000066 0.000010 -0.001994 0.040478 1.224572
    35 1.436581 -0.000006 0.000010 0.002497 -0.014984 0.676024
    36 3.992353 0.891087 1.827993 -0.771838 0.260222 1.674607
    37 1.405926 0.000031 -0.000003 0.000994 -0.029515 0.841936
    38 1.175362 -0.000132 0.000001 0.037919 0.117350 0.268302
    39 4.526758 0.690464 1.120843 -0.780499 0.039748 1.632211
    40 1.744041 -0.000031 -0.000002 -0.018971 -0.022747 1.106327
    41 1.368767 -0.000031 -0.000018 -0.151087 0.088387 0.079887
    42 2.091797 1.019531 -0.707520 2.760546 0.275867 1.220493
    43 1.455078 -0.195068 0.011063 -0.209513 0.223773 0.554874
    44 1.599281 -0.000004 0.000010 -0.008375 -0.021947 0.838714
    45 5.511806 -0.000002 0.000003 0.099819 0.000003 0.000008
    46 0.196849 0.000003 -0.000001 -0.348225 0.000015 -0.000002
    47 0.000000 0.999512 0.000000 0.000000 0.000000 -1.570796
    48 0.193752 -16.967090 -2.638550 0.050117 0.066216 1.649434
    49 7.359375 0.563965 -3.140625 0.422255 1.066391 1.740807
    50 0.696635 -0.011782 0.136167 0.000000 0.000000 0.000000
    51 -1.478932 -0.011782 1.098058 0.000000 0.000000 0.000000
    52 0.096140 0.000000 0.432839 0.000000 0.000000 0.000000
    53 3.292969 0.140137 2.103516 0.000000 0.000000 0.000000
    54 0.147536 -0.811491 -0.247168 0.000000 0.000000 0.000000
    55 -6.321769 -1.847687 -2.720937 3.027418 0.046220 -1.803449
  time 3
    0 -0.000001 8.445313 -27.500000 0.000000 0.000000 -0.000001
    1 -0.000002 0.000000 0.000000 1.570747 -1.567142 -1.570747
    2 4.255466 -0.335183 -0.000002 0.000000 0.000000 -0.124848
    3 7.431250 1.496479 0.000002 0.000000 0.000000 0.245450
    4 5.278479 0.165544 0.000001 0.000000 0.000000 0.048511
    5 2.647343 -9.782935 1.867895 1.975865 1.159909 -1.298786
    6 -6.214478 -0.000009 -0.000026 3.290603 -0.630766 1.477815
    7 11.944885 0.000000 0.000000 -0.343719 -0.328830 1.928441
    8 10.620188 0.000000 0.000000 1.044677 0.501427 1.993650
    9 -4.751108 -0.694498 0.830580 -0.138724 -0.155520 0.348731
    10 -1.688068 0.000047 -0.000031 0.017236 -0.017798 0.669753
    11 -1.336140 0.000055 -0.000010 0.026197 -0.003271 0.678008
    12 -4.820494 -0.509464 -0.224759 -0.357827 -0.084205 1.336877
    13 -1.826984 -0.000069 0.000008 0.001177 0.040509 1.302865
    14 -1.436569 0.000004 0.000003 -0.043286 -0.064688 0.497982
    15 -3.992357 -0.891191 -1.827909 -0.441009 0.257459 1.615500
    16 -1.405918 -0.000025 -0.000002 -0.008644 -0.028235 1.172937
    17 -1.175358 0.000126 -0.000019 0.035820 0.057786 0.458700
    18 -4.526751 -0.690580 -1.120741 -0.315741 0.210772 1.632415
    19 -1.744038 0.000032 -0.000008 -0.024048 -0.017286 1.358630
    20 -1.368771 0.000023 0.000002 0.012522 0.051009 0.135918
    21 -1.874796 -0.935125 0.999175 2.100355 0.441886 0.865551
    22 -1.523447 0.000031 0.000031 0.089497 0.149288 0.643925
    23 -1.599285 0.000011 0.000015 0.036995 -0.021841 0.513351
    24 5.582031 0.115723 0.294922 2.423181 -0.061064 3.105775
    25 0.196846 -0.000002 0.000003 2.793407 0.000006 -3.141577
    26 -1.313716 -16.474542 -1.438195 1.975862 1.159910 1.842803
    27 6.214486 0.000008 0.000019 -1.420409 0.086228 -1.727173
    28 11.944888 -0.000031 -0.000200 -1.271344 0.822342 -1.002939
    29 10.620165 0.000002 0.000006 -0.573836 -0.717663 -0.570619
    30 4.751158 0.694374 -0.830474 -0.210364 -0.452744 0.709260
    31 1.688065 -0.000022 0.000002 0.000087 -0.024777 1.435340
    32 1.336151 -0.000051 -0.000009 -0.018216 -0.034222 0.860592
    33 4.820515 0.509338 0.224866 -0.572968 -0.272712 1.234842
    34 1.826992 0.000066 0.000010 -0.001994 0.040478 1.224572
    35 1.436581 -0.000006 0.000010 0.002497 -0.014984 0.676024
    36 3.992353 0.891087 1.827993 -0.771838 0.260222 1.674607
    37 1.405926 0.000031 -0.000003 0.000994 -0.029515 0.841936
    38 1.175362 -0.000132 0.000001 0.037919 0.117350 0.268302
    39 4.526758 0.690464 1.120843 -0.780499 0.039748 1.632211
    40 1.744041 -0.000031 -0.000002 -0.018971 -0.022747 1.106327
    41 1.368767 -0.000031 -0.000018 -0.151087 0.088387 0.079887
    42 2.091797 1.019531 -0.707520 2.760546 0.275867 1.220493
    43 1.455078 -0.195068 0.011063 -0.209513 0.223773 0.554874
    44 1.599281 -0.000004 0.000010 -0.008375 -0.021947 0.838714
    45 5.511806 -0.000002 0.000003 0.099819 0.000003 0.000008
    46 0.196849 0.000003 -0.000001 -0.348225 0.000015 -0.000002
    47 0.000000 0.999512 0.000000 0.000000 0.000000 -1.570796
    48 0.299224 -15.920183 -2.759647 0.107318 0.130571 1.741869
    49 7.359375 0.563965 -3.140625 0.422255 1.066391 1.740807
    50 0.696635 -0.011782 0.136167 0.000000 0.000000 0.000000
    51 -1.478932 -0.011782 1.098058 0.000000 0.000000 0.000000
    52 0.096140 0.000000 0.432839 0.000000 0.000000 0.000000
    53 3.292969 0.140137 2.103516 0.000000 0.000000 0.000000
    54 0.147536 -0.811491 -0.247168 0.000000 0.000000 0.000000
    55 -6.321769 -1.847687 -2.720937 3.027418 0.046220 -1.803449
  time 4
    0 -0.000001 8.445313 -27.500000 0.000000 0.000000 -0.000001
    1 -0.000002 0.000000 0.000000 1.570747 -1.567142 -1.570747
    2 4.255466 -0.335183 -0.000002 0.000000 0.000000 -0.124848
    3 7.431250 1.496479 0.000002 0.000000 0.000000 0.245450
    4 5.278479 0.165544 0.000001 0.000000 0.000000 0.048511
    5 2.123889 -10.185291 2.410880 1.975865 1.159909 -1.298786
    6 -6.214478 -0.000009 -0.000026 3.276327 -0.671479 1.498610
    7 11.944885 0.000000 0.000000 -0.379074 -0.314101 2.040245
    8 10.620188 0.000000 0.000000 1.151168 0.468446 2.101315
    9 -4.751108 -0.694498 0.830580 -0.138724 -0.155520 0.348731
    10 -1.688068 0.000047 -0.000031 0.017236 -0.017798 0.669753
    11 -1.336140 0.000055 -0.000010 0.026197 -0.003271 0.678008
    12 -4.820494 -0.509464 -0.224759 -0.357827 -0.084205 1.336877
    13 -1.826984 -0.000069 0.000008 0.001177 0.040509 1.302865
    14 -1.436569 0.000004 0.000003 -0.043286 -0.064688 0.497982
    15 -3.992357 -0.891191 -1.827909 -0.441009 0.257459 1.615500
    16 -1.405918 -0.000025 -0.000002 -0.008644 -0.028235 1.172937
    17 -1.175358 0.000126 -0.000019 0.035820 0.057786 0.458700
    18 -4.526751 -0.690580 -1.120741 -0.315741 0.210772 1.632415
    19 -1.744038 0.000032 -0.000008 -0.024048 -0.017286 1.358630
    20 -1.368771 0.000023 0.000002 0.012522 0.051009 0.135918
    21 -1.874796 -0.935125 0.999175 2.100355 0.441886 0.865551
    22 -1.523447 0.000031 0.000031 0.089497 0.149288 0.643925
    23 -1.599285 0.000011 0.000015 0.036995 -0.021841 0.513351
    24 5.582031 0.115723 0.294922 2.423181 -0.061064 3.105775
    25 0.196846 -0.000002 0.000003 2.793407 0.000006 -3.141577
    26 -1.266839 -15.872962 -1.598356 1.975862 1.159910 1.842803
    27 6.214486 0.000008 0.000019 -1.534287 0.143759 -1.703896
    28 11.944888 -0.000031 -0.000200 -1.185597 0.862922 -1.155117
    29 10.620165 0.000002 0.000006 -0.552746 -0.812993 -0.603869
    30 4.751158 0.694374 -0.830474 -0.210364 -0.452744 0.709260
    31 1.688065 -0.000022 0.000002 0.000087 -0.024777 1.435340
    32 1.336151 -0.000051 -0.000009 -0.018216 -0.034222 0.860592
    33 4.820515 0.509338 0.224866 -0.572968 -0.272712 1.234842
    34 1.826992 0.000066 0.000010 -0.001994 0.040478 1.224572
    35 1.436581 -0.000006 0.000010 0.002497 -0.014984 0.676024
    36 3.992353 0.891087 1.827993 -0.771838 0.260222 1.674607
    37 1.405926 0.000031 -0.000003 0.000994 -0.029515 0.841936
    38 1.175362 -0.000132 0.000001 0.037919 0.117350 0.268302
    39 4.526758 0.690464 1.120843 -0.780499 0.039748 1.632211
    40 1.744041 -0.000031 -0.000002 -0.018971 -0.022747 1.106327
    41 1.368767 -0.000031 -0.000018 -0.151087 0.088387 0.079887
    42 2.091797 1.019531 -0.707520 2.760546 0.275867 1.220493
    43 1.455078 -0.195068 0.011063 -0.209513 0.223773 0.554874
    44 1.599281 -0.000004 0.000010 -0.008375 -0.021947 0.838714
    45 5.511806 -0.000002 0.000003 0.099819 0.000003 0.000008
    46 0.196849 0.000003 -0.000001 -0.348225 0.000015 -0.000002
    47 0.000000 0.999512 0.000000 0.000000 0.000000 -1.570796
    48 0.467198 -14.779523 -2.919808 0.180651 0.197494 1.863877
    49 7.359375 0.563965 -3.140625 0.422255 1.066391 1.740807
    50 0.696635 -0.011782 0.136167 0.000000 0.000000 0.000000
    51 -1.478932 -0.011782 1.098058 0.000000 0.000000 0.000000
    52 0.096140 0.000000 0.432839 0.000000 0.000000 0.000000
    53 3.292969 0.140137 2.103516 0.000000 0.000000 0.000000
    54 0.147536 -0.811491 -0.247168 0.000000 0.000000 0.000000
    55 -6.321769 -1.847687 -2.720937 3.027418 0.046220 -1.803449
  time 5
    0 -0.000001 8.445313 -27.500000 0.000000 0.000000 -0.000001
    1 -0.000002 0.000000 0.000000 1.570747 -1.567142 -1.570747
    2 4.255466 -0.335183 -0.000002 0.000000 0.000000 -0.124848
    3 7.431250 1.496479 0.000002 0.000000 0.000000 0.245450
    4 5.278479 0.165544 0.000001 0.000000 0.000000 0.048511
    5 1.530121 -10.646242 3.024180 1.975865 1.159909 -1.298786
    6 -6.214478 -0.000009 -0.000026 3.280553 -0.701356 1.492076
    7 11.944885 0.000000 0.000000 -0.403381 -0.301158 2.120464
    8 10.620188 0.000000 0.000000 1.243177 0.403961 2.210756
    9 -4.751108 -0.694498 0.830580 -0.138724 -0.155520 0.348731
    10 -1.688068 0.000047 -0.000031 0.017236 -0.017798 0.669784
    11 -1.336140 0.000055 -0.000010 0.026197 -0.003271 0.678008
    12 -4.820494 -0.509464 -0.224759 -0.357827 -0.084205 1.336877
    13 -1.826984 -0.000069 0.000008 0.001177 0.040509 1.302865
    14 -1.436569 0.000004 0.000003 -0.043286 -0.064688 0.497982
    15 -3.992357 -0.891191 -1.827909 -0.441009 0.257459 1.615500
    16 -1.405918 -0.000025 -0.000002 -0.008644 -0.028235 1.172937
    17 -1.175358 0.000126 -0.000019 0.035820 0.057786 0.458700
    18 -4.526751 -0.690580 -1.120741 -0.315741 0.210772 1.632415
    19 -1.744038 0.000032 -0.000008 -0.024048 -0.017286 1.358630
    20 -1.368771 0.000023 0.000002 0.012522 0.051009 0.135918
    21 -1.874796 -0.935125 0.999175 2.100355 0.441886 0.865551
    22 -1.523447 0.000031 0.000031 0.089497 0.149288 0.643925
    23 -1.599285 0.000011 0.000015 0.036995 -0.021841 0.513351
    24 5.582031 0.115723 0.294922 2.423181 -0.061064 3.105775
    25 0.196846 -0.000002 0.000003 2.793407 0.000006 -3.141577
    26 -1.212150 -15.169815 -1.789768 1.975862 1.159910 1.842803
    27 6.214486 0.000008 0.000019 -1.680287 0.220508 -1.702840
    28 11.944888 -0.000031 -0.000200 -1.013960 0.889151 -1.305197
    29 10.620165 0.000002 0.000006 -0.618646 -0.917349 -0.523635
    30 4.751158 0.694374 -0.830474 -0.210364 -0.452744 0.709260
    31 1.688065 -0.000022 0.000002 0.000087 -0.024777 1.435340
    32 1.336151 -0.000051 -0.000009 -0.018216 -0.034210 0.860592
    33 4.820515 0.509338 0.224866 -0.572968 -0.272712 1.234842
    34 1.826992 0.000066 0.000010 -0.001994 0.040478 1.224572
    35 1.436581 -0.000006 0.000010 0.002497 -0.014984 0.676024
    36 3.992353 0.891087 1.827993 -0.771838 0.260222 1.674607
    37 1.405926 0.000031 -0.000003 0.000994 -0.029515 0.841936
    38 1.175362 -0.000132 0.000001 0.037919 0.117350 0.268302
    39 4.526758 0.690464 1.120843 -0.780499 0.039748 1.632211
    40 1.744041 -0.000031 -0.000002 -0.018971 -0.022747 1.106327
    41 1.368767 -0.000031 -0.000018 -0.151087 0.088387 0.079887
    42 2.091797 1.019531 -0.707520 2.760546 0.275867 1.220493
    43 1.455078 -0.195068 0.011063 -0.209513 0.223773 0.554874
    44 1.599281 -0.000004 0.000010 -0.008375 -0.021947 0.838714
    45 5.511806 -0.000002 0.000003 0.099819 0.000003 0.000008
    46 0.196849 0.000003 -0.000001 -0.348225 0.000015 -0.000002
    47 0.000000 0.999512 0.000000 0.000000 0.000000 -1.570796
    48 0.717205 -13.732616 -3.122939 0.261450 0.253358 2.006775
    49 7.359375 0.563965 -3.140625 0.422255 1.066391 1.740807
    50 0.696635 -0.011782 0.136167 0.000000 0.000000 0.000000
    51 -1.478932 -0.011782 1.098058 0.000000 0.000000 0.000000
    52 0.096140 0.000000 0.432839 0.000000 0.000000 0.000000
    53 3.292969 0.140137 2.103516 0.000000 0.000000 0.000000
    54 0.147536 -0.811491 -0.247168 0.000000 0.000000 0.000000
    55 -6.321769 -1.847687 -2.720937 3.027418 0.046220 -1.803449
  time 6
    0 -0.000001 8.445313 -27.500000 0.000000 0.000000 -0.000001
    1 -0.000002 0.000000 0.000000 1.570747 -1.567142 -1.570747
    2 4.255466 -0.335183 -0.000002 0.000000 0.000000 -0.124848
    3 7.431250 1.496479 0.000002 0.000000 0.000000 0.245450
    4 5.278479 0.165544 0.000001 0.000000 0.000000 0.048511
    5 0.897289 -11.130632 3.676544 1.975865 1.159909 -1.298786
    6 -6.214478 -0.000009 -0.000026 3.309218 -0.716246 1.448800
    7 11.944885 0.000000 0.000000 -0.413390 -0.295070 2.154562
    8 10.620188 0.000000 0.000000 1.301288 0.319635 2.305572
    9 -4.751108 -0.694498 0.830580 -0.138724 -0.155520 0.348731
    10 -1.688068 0.000047 -0.000031 0.017236 -0.017798 0.669784
    11 -1.336140 0.000055 -0.000010 0.026197 -0.003271 0.678008
    12 -4.820494 -0.509464 -0.224759 -0.357827 -0.084205 1.336877
    13 -1.826984 -0.000069 0.000008 0.001177 0.040509 1.302865
    14 -1.436569 0.000004 0.000003 -0.043286 -0.064688 0.497982
    15 -3.992357 -0.891191 -1.827909 -0.441009 0.257459 1.615500
    16 -1.405918 -0.000025 -0.000002 -0.008644 -0.028235 1.172937
    17 -1.175358 0.000126 -0.000019 0.035820 0.057786 0.458700
    18 -4.526751 -0.690580 -1.120741 -0.315741 0.210772 1.632415
    19 -1.744038 0.000032 -0.000008 -0.024048 -0.017286 1.358630
    20 -1.368771 0.000023 0.000002 0.012522 0.051009 0.135918
    21 -1.874796 -0.935125 0.999175 2.100355 0.441886 0.865551
    22 -1.523447 0.000031 0.000031 0.089509 0.149288 0.643925
    23 -1.599285 0.000011 0.000015 0.036995 -0.021841 0.513351
    24 5.582031 0.115723 0.294922 2.423181 -0.061064 3.105775
    25 0.196846 -0.000002 0.000003 2.793407 0.000006 -3.141577
    26 -1.149648 -14.388541 -2.004619 1.975862 1.159910 1.842803
    27 6.214486 0.000008 0.000019 -1.856629 0.305940 -1.735152
    28 11.944888 -0.000031 -0.000200 -0.718937 0.900895 -1.418821
    29 10.620165 0.000002 0.000006 -0.887198 -0.983998 -0.237861
    30 4.751158 0.694374 -0.830474 -0.210364 -0.452744 0.709260
    31 1.688065 -0.000022 0.000002 0.000087 -0.024777 1.435340
    32 1.336151 -0.000051 -0.000009 -0.018216 -0.034222 0.860592
    33 4.820515 0.509338 0.224866 -0.572968 -0.272712 1.234842
    34 1.826992 0.000066 0.000010 -0.001994 0.040478 1.224572
    35 1.436581 -0.000006 0.000010 0.002497 -0.014984 0.676024
    36 3.992353 0.891087 1.827993 -0.771838 0.260222 1.674607
    37 1.405926 0.000031 -0.000003 0.000994 -0.029515 0.841936
    38 1.175362 -0.000132 0.000001 0.037919 0.117350 0.268302
    39 4.526758 0.690464 1.120843 -0.780499 0.039748 1.632211
    40 1.744041 -0.000031 -0.000002 -0.018971 -0.022747 1.106327
    41 1.368767 -0.000031 -0.000018 -0.151087 0.088387 0.079887
    42 2.091797 1.019531 -0.707520 2.760546 0.275867 1.220493
    43 1.455078 -0.195068 0.011063 -0.209513 0.223773 0.554874
    44 1.599281 -0.000004 0.000010 -0.008375 -0.021947 0.838714
    45 5.511806 -0.000002 0.000003 0.099819 0.000003 0.000008
    46 0.196849 0.000003 -0.000001 -0.348225 0.000015 -0.000002
    47 0.000000 0.999512 0.000000 0.000000 0.000000 -1.570796
    48 1.057060 -12.966968 -3.361228 0.334974 0.288336 2.156637
    49 7.359375 0.563965 -3.140625 0.422255 1.066391 1.740807
    50 0.696635 -0.011782 0.136167 0.000000 0.000000 0.000000
    51 -1.478932 -0.011782 1.098058 0.000000 0.000000 0.000000
    52 0.096140 0.000000 0.432839 0.000000 0.000000 0.000000
    53 3.292969 0.140137 2.103516 0.000000 0.000000 0.000000
    54 0.147536 -0.811491 -0.247168 0.000000 0.000000 0.000000
    55 -6.321769 -1.847687 -2.720937 3.027418 0.046220 -1.803449
  time 7
    0 -0.000001 8.445313 -27.500000 0.000000 0.000000 -0.000001
    1 -0.000002 0.000000 0.000000 1.570747 -1.567142 -1.570747
    2 4.255466 -0.335183 -0.000002 0.000000 0.000000 -0.124848
    3 7.431250 1.496479 0.000002 0.000000 0.000000 0.245450
    4 5.278479 0.165544 0.000001 0.000000 0.000000 0.048511
    5 0.268364 -11.615022 4.328907 1.975865 1.159909 -1.298786
    6 -6.214478 -0.000009 -0.000026 3.355517 -0.714575 1.374121
    7 11.944885 0.000000 0.000000 -0.407009 -0.299001 2.132733
    8 10.620188 0.000000 0.000000 1.314829 0.236615 2.383609
    9 -4.751108 -0.694498 0.830580 -0.138724 -0.155520 0.348731
    10 -1.688068 0.000047 -0.000031 0.017236 -0.017798 0.669784
    11 -1.336140 0.000055 -0.000010 0.026197 -0.003271 0.678008
    12 -4.820494 -0.509464 -0.224759 -0.357827 -0.084205 1.336877
    13 -1.826984 -0.000069 0.000008 0.001177 0.040509 1.302865
    14 -1.436569 0.000004 0.000003 -0.043286 -0.064688 0.497982
    15 -3.992357 -0.891191 -1.827909 -0.441009 0.257459 1.615500
    16 -1.405918 -0.000025 -0.000002 -0.008644 -0.028235 1.172937
    17 -1.175358 0.000126 -0.000019 0.035820 0.057786 0.458700
    18 -4.526751 -0.690580 -1.120741 -0.315741 0.210772 1.632415
    19 -1.744038 0.000032 -0.000008 -0.024048 -0.017286 1.358630
    20 -1.368771 0.000023 0.000002 0.012522 0.051009 0.135918
    21 -1.874796 -0.935125 0.999175 2.100355 0.441886 0.865551
    22 -1.523447 0.000031 0.000031 0.089509 0.149288 0.643925
    23 -1.599285 0.000011 0.000015 0.036995 -0.021841 0.513351
    24 5.582031 0.115723 0.294922 2.423181 -0.061064 3.105775
    25 0.196846 -0.000002 0.000003 2.793407 0.000006 -3.141577
    26 -1.087146 -13.564297 -2.231188 1.975862 1.159910 1.842803
    27 6.214486 0.000008 0.000019 -2.058162 0.379602 -1.801818
    28 11.944888 -0.000031 -0.000200 -0.297588 0.903264 -1.455097
    29 10.620165 0.000002 0.000006 -1.300287 -0.916342 0.150261
    30 4.751158 0.694374 -0.830474 -0.210364 -0.452744 0.709260
    31 1.688065 -0.000022 0.000002 0.000087 -0.024777 1.435340
    32 1.336151 -0.000051 -0.000009 -0.018216 -0.034222 0.860592
    33 4.820515 0.509338 0.224866 -0.572968 -0.272712 1.234842
    34 1.826992 0.000066 0.000010 -0.001994 0.040478 1.224572
    35 1.436581 -0.000006 0.000010 0.002497 -0.014984 0.676024
    36 3.992353 0.891087 1.827993 -0.771838 0.260222 1.674607
    37 1.405926 0.000031 -0.000003 0.000994 -0.029515 0.841936
    38 1.175362 -0.000132 0.000001 0.037919 0.117350 0.268302
    39 4.526758 0.690464 1.120843 -0.780499 0.039748 1.632211
    40 1.744041 -0.000031 -0.000002 -0.018971 -0.022747 1.106327
    41 1.368767 -0.000031 -0.000018 -0.151087 0.088387 0.079887
    42 2.091797 1.019531 -0.707520 2.760546 0.275867 1.220493
    43 1.455078 -0.195068 0.011063 -0.209513 0.223773 0.554874
    44 1.599281 -0.000004 0.000010 -0.008375 -0.021947 0.838714
    45 5.511806 -0.000002 0.000003 0.099819 0.000003 0.000008
    46 0.196849 0.000003 -0.000001 -0.348225 0.000015 -0.000002
    47 0.000000 0.999512 0.000000 0.000000 0.000000 -1.570796
    48 1.498479 -12.670084 -3.630767 0.382076 0.299274 2.295719
    49 7.359375 0.563965 -3.140625 0.422255 1.066391 1.740807
    50 0.696635 -0.011782 0.136167 0.000000 0.000000 0.000000
    51 -1.478932 -0.011782 1.098058 0.000000 0.000000 0.000000
    52 0.096140 0.000000 0.432839 0.000000 0.000000 0.000000
    53 3.292969 0.140137 2.103516 0.000000 0.000000 0.000000
    54 0.147536 -0.811491 -0.247168 0.000000 0.000000 0.000000
    55 -6.321769 -1.847687 -2.720937 3.027418 0.046220 -1.803449
  time 8
    0 -0.000001 8.445313 -27.500000 0.000000 0.000000 -0.000001
    1 -0.000002 0.000000 0.000000 1.570747 -1.567142 -1.570747
    2 4.255466 -0.335183 -0.000002 0.000000 0.000000 -0.124848
    3 7.431250 1.496479 0.000002 0.000000 0.000000 0.245450
    4 5.278479 0.165544 0.000001 0.000000 0.000000 0.048511
    5 -0.325404 -12.075974 4.946114 1.975865 1.159909 -1.298786
    6 -6.214478 -0.000009 -0.000026 3.396585 -0.699563 1.284408
    7 11.944885 0.000000 0.000000 -0.388511 -0.309379 2.070992
    8 10.620188 0.000000 0.000000 1.298777 0.179225 2.448117
    9 -4.751108 -0.694498 0.830580 -0.138724 -0.155520 0.348731
    10 -1.688068 0.000047 -0.000031 0.017236 -0.017798 0.669784
    11 -1.336140 0.000055 -0.000010 0.026197 -0.003271 0.678008
    12 -4.820494 -0.509464 -0.224759 -0.357827 -0.084205 1.336877
    13 -1.826984 -0.000069 0.000008 0.001177 0.040509 1.302865
    14 -1.436569 0.000004 0.000003 -0.043286 -0.064688 0.497982
    15 -3.992357 -0.891191 -1.827909 -0.441009 0.257459 1.615500
    16 -1.405918 -0.000025 -0.000002 -0.008644 -0.028235 1.172937
    17 -1.175358 0.000126 -0.000019 0.035820 0.057786 0.458700
    18 -4.526751 -0.690580 -1.120741 -0.315741 0.210772 1.632415
    19 -1.744038 0.000032 -0.000008 -0.024048 -0.017286 1.358630
    20 -1.368771 0.000023 0.000002 0.012522 0.051009 0.135918
    21 -1.874796 -0.935125 0.999175 2.100355 0.441886 0.865551
    22 -1.523447 0.000031 0.000031 0.089509 0.149288 0.643925
    23 -1.599285 0.000011 0.000015 0.036995 -0.021841 0.513351
    24 5.582031 0.115723 0.294922 2.423181 -0.061064 3.105775
    25 0.196846 -0.000002 0.000003 2.793407 0.000006 -3.141577
    26 -1.020738 -12.724428 -2.457757 1.975862 1.159910 1.842803
    27 6.214486 0.000008 0.000019 -2.276928 0.425322 -1.888596
    28 11.944888 -0.000031 -0.000200 0.148639 0.901809 -1.431533
    29 10.620165 0.000002 0.000006 -1.585185 -0.744815 0.349173
    30 4.751158 0.694374 -0.830474 -0.210364 -0.452744 0.709260
    31 1.688065 -0.000022 0.000002 0.000087 -0.024777 1.435340
    32 1.336151 -0.000051 -0.000009 -0.018216 -0.034222 0.860592
    33 4.820515 0.509338 0.224866 -0.572968 -0.272712 1.234842
    34 1.826992 0.000066 0.000010 -0.001994 0.040478 1.224572
    35 1.436581 -0.000006 0.000010 0.002497 -0.014984 0.676024
    36 3.992353 0.891087 1.827993 -0.771838 0.260222 1.674607
    37 1.405926 0.000031 -0.000003 0.000994 -0.029515 0.841936
    38 1.175362 -0.000132 0.000001 0.037919 0.117350 0.268302
    39 4.526758 0.690464 1.120843 -0.780515 0.039748 1.632211
    40 1.744041 -0.000031 -0.000002 -0.018971 -0.022747 1.106327
    41 1.368767 -0.000031 -0.000018 -0.151087 0.088387 0.079887
    42 2.091797 1.019531 -0.707520 2.760546 0.275867 1.220493
    43 1.455078 -0.195068 0.011063 -0.209513 0.223773 0.554874
    44 1.599281 -0.000004 0.000010 -0.008375 -0.021947 0.838714
    45 5.511806 -0.000002 0.000003 0.099819 0.000003 0.000008
    46 0.196849 0.000003 -0.000001 -0.348225 0.000015 -0.000002
    47 0.000000 0.999512 0.000000 0.000000 0.000000 -1.570796
    48 2.088341 -12.673990 -3.923745 0.405004 0.296201 2.414388
    49 7.359375 0.563965 -3.140625 0.422255 1.066391 1.740807
    50 0.696635 -0.011782 0.136167 0.000000 0.000000 0.000000
    51 -1.478932 -0.011782 1.098058 0.000000 0.000000 0.000000
    52 0.096140 0.000000 0.432839 0.000000 0.000000 0.000000
    53 3.292969 0.140137 2.103516 0.000000 0.000000 0.000000
    54 0.147536 -0.811491 -0.247168 0.000000 0.000000 0.000000
    55 -6.321769 -1.847687 -2.720937 3.027418 0.046220 -1.803449
  time 9
    0 -0.000001 8.445313 -27.500000 0.000000 0.000000 -0.000001
    1 -0.000002 0.000000 0.000000 1.570747 -1.567142 -1.570747
    2 4.255466 -0.335183 -0.000002 0.000000 0.000000 -0.124848
    3 7.431250 1.496479 0.000002 0.000000 0.000000 0.245450
    4 5.278479 0.165544 0.000001 0.000000 0.000000 0.048511
    5 -0.852764 -12.478330 5.485193 1.975865 1.159909 -1.298786
    6 -6.214478 -0.000009 -0.000026 3.420066 -0.676467 1.192306
    7 11.944885 0.000000 0.000000 -0.363902 -0.320981 1.991660
    8 10.620188 0.000000 0.000000 1.274654 0.152631 2.503896
    9 -4.751108 -0.694498 0.830580 -0.138724 -0.155520 0.348731
    10 -1.688068 0.000047 -0.000031 0.017236 -0.017798 0.669784
    11 -1.336140 0.000055 -0.000010 0.026197 -0.003271 0.678008
    12 -4.820494 -0.509464 -0.224759 -0.357827 -0.084205 1.336877
    13 -1.826984 -0.000069 0.000008 0.001177 0.040509 1.302865
    14 -1.436569 0.000004 0.000003 -0.043286 -0.064688 0.497982
    15 -3.992357 -0.891191 -1.827909 -0.441009 0.257459 1.615500
    16 -1.405918 -0.000025 -0.000002 -0.008644 -0.028235 1.172937
    17 -1.175358 0.000126 -0.000019 0.035820 0.057786 0.458700
    18 -4.526751 -0.690580 -1.120741 -0.315741 0.210772 1.632415
    19 -1.744038 0.000032 -0.000008 -0.024048 -0.017286 1.358630
    20 -1.368771 0.000023 0.000002 0.012522 0.051009 0.135918
    21 -1.874796 -0.935125 0.999175 2.100355 0.441886 0.865551
    22 -1.523447 0.000031 0.000031 0.089509 0.149288 0.643925
    23 -1.599285 0.000011 0.000015 0.036995 -0.021841 0.513351
    24 5.582031 0.115723 0.294922 2.423181 -0.061064 3.105775
    25 0.196846 -0.000002 0.000003 2.793407 0.000006 -3.141577
    26 -0.954330 -11.900184 -2.684327 1.975862 1.159910 1.842803
    27 6.214486 0.000008 0.000019 -2.491573 0.438861 -1.971946
    28 11.944888 -0.000031 -0.000200 0.482664 0.898729 -1.391899
    29 10.620165 0.000002 0.000006 -1.695380 -0.601223 0.351082
    30 4.751158 0.694374 -0.830474 -0.210364 -0.452744 0.709260
    31 1.688065 -0.000022 0.000002 0.000087 -0.024777 1.435340
    32 1.336151 -0.000051 -0.000009 -0.018216 -0.034222 0.860592
    33 4.820515 0.509338 0.224866 -0.572968 -0.272712 1.234842
    34 1.826992 0.000066 0.000010 -0.001994 0.040478 1.224572
    35 1.436581 -0.000006 0.000010 0.002497 -0.014984 0.676024
    36 3.992353 0.891087 1.827993 -0.771838 0.260222 1.674607
    37 1.405926 0.000031 -0.000003 0.000994 -0.029515 0.841936
    38 1.175362 -0.000132 0.000001 0.037919 0.117350 0.268302
    39 4.526758 0.690464 1.120843 -0.780499 0.039748 1.632211
    40 1.744041 -0.000031 -0.000002 -0.018971 -0.022747 1.106327
    41 1.368767 -0.000031 -0.000018 -0.151087 0.088387 0.079887
    42 2.091797 1.019531 -0.707520 2.760546 0.275867 1.220493
    43 1.455078 -0.195068 0.011063 -0.209513 0.223773 0.554874
    44 1.599281 -0.000004 0.000010 -0.008375 -0.021947 0.838714
    45 5.511806 -0.000002 0.000003 0.099819 0.000003 0.000008
    46 0.196849 0.000003 -0.000001 -0.348225 0.000015 -0.000002
    47 0.000000 0.999512 0.000000 0.000000 0.000000 -1.570796
    48 2.834458 -12.685709 -4.228442 0.420130 0.290035 2.514168
    49 7.359375 0.563965 -3.140625 0.422255 1.066391 1.740807
    50 0.696635 -0.011782 0.136167 0.000000 0.000000 0.000000
    51 -1.478932 -0.011782 1.098058 0.000000 0.000000 0.000000
    52 0.096140 0.000000 0.432839 0.000000 0.000000 0.000000
    53 3.292969 0.140137 2.103516 0.000000 0.000000 0.000000
    54 0.147536 -0.811491 -0.247168 0.000000 0.000000 0.000000
    55 -6.321769 -1.847687 -2.720937 3.027418 0.046220 -1.803449
  time 10
    0 -0.000001 8.445313 -27.500000 0.000000 0.000000 -0.000001
    1 -0.000002 0.000000 0.000000 1.570747 -1.567142 -1.570747
    2 4.255466 -0.335183 -0.000002 0.000000 0.000000 -0.124848
    3 7.431250 1.496479 0.000002 0.000000 0.000000 0.245450
    4 5.278479 0.165544 0.000001 0.000000 0.000000 0.048511
    5 -1.270746 -12.802558 5.918800 1.975865 1.159909 -1.298786
    6 -6.214478 -0.000009 -0.000026 3.437357 -0.656368 1.124160
    7 11.944885 0.000000 0.000000 -0.341326 -0.329669 1.921000
    8 10.620188 0.000000 0.000000 1.247975 0.128902 2.556575
    9 -4.751108 -0.694498 0.830580 -0.138724 -0.155520 0.348731
    10 -1.688068 0.000047 -0.000031 0.017236 -0.017798 0.669784
    11 -1.336140 0.000055 -0.000010 0.026197 -0.003271 0.678008
    12 -4.820494 -0.509464 -0.224759 -0.357827 -0.084205 1.336877
    13 -1.826984 -0.000069 0.000008 0.001177 0.040509 1.302865
    14 -1.436569 0.000004 0.000003 -0.043286 -0.064688 0.497982
    15 -3.992357 -0.891191 -1.827909 -0.441009 0.257459 1.615500
    16 -1.405918 -0.000025 -0.000002 -0.008644 -0.028235 1.172937
    17 -1.175358 0.000126 -0.000019 0.035820 0.057786 0.458700
    18 -4.526751 -0.690580 -1.120741 -0.315741 0.210772 1.632453
    19 -1.744038 0.000032 -0.000008 -0.024048 -0.017286 1.358630
    20 -1.368771 0.000023 0.000002 0.012522 0.051009 0.135918
    21 -1.874796 -0.935125 0.999175 2.100355 0.441886 0.865551
    22 -1.523447 0.000031 0.000031 0.089509 0.149288 0.643925
    23 -1.599285 0.000011 0.000015 0.036995 -0.021841 0.513351
    24 5.582031 0.115723 0.294922 2.423181 -0.061064 3.105775
    25 0.196846 -0.000002 0.000003 2.793407 0.000006 -3.141577
    26 -0.895734 -11.122817 -2.895271 1.975862 1.159910 1.842803
    27 6.214486 0.000008 0.000019 -2.627271 0.431454 -2.018961
    28 11.944888 -0.000031 -0.000200 0.635804 0.893212 -1.337995
    29 10.620165 0.000002 0.000006 -1.671763 -0.566873 0.265811
    30 4.751158 0.694374 -0.830474 -0.210364 -0.452744 0.709260
    31 1.688065 -0.000022 0.000002 0.000087 -0.024777 1.435340
    32 1.336151 -0.000051 -0.000009 -0.018216 -0.034222 0.860592
    33 4.820515 0.509338 0.224866 -0.572968 -0.272712 1.234842
    34 1.826992 0.000066 0.000010 -0.001994 0.040478 1.224572
    35 1.436581 -0.000006 0.000010 0.002497 -0.014984 0.676024
    36 3.992353 0.891087 1.827993 -0.771838 0.260222 1.674607
    37 1.405926 0.000031 -0.000003 0.000994 -0.029515 0.841936
    38 1.175362 -0.000132 0.000001 0.037919 0.117350 0.268302
    39 4.526758 0.690464 1.120843 -0.780499 0.039748 1.632211
    40 1.744041 -0.000031 -0.000002 -0.018971 -0.022747 1.106327
    41 1.368767 -0.000031 -0.000018 -0.151087 0.088387 0.079887
    42 2.091797 1.019531 -0.707520 2.760546 0.275867 1.220493
    43 1.455078 -0.195068 0.011063 -0.209513 0.223773 0.554874
    44 1.599281 -0.000004 0.000010 -0.008375 -0.021947 0.838714
    45 5.511806 -0.000002 0.000003 0.099819 0.000003 0.000008
    46 0.196849 0.000003 -0.000001 -0.348225 0.000015 -0.000002
    47 0.000000 0.999512 0.000000 0.000000 0.000000 -1.570796
    48 3.389162 -12.697429 -4.501888 0.428938 0.282978 2.595538
    49 7.359375 0.563965 -3.140625 0.422255 1.066391 1.740807
    50 0.696635 -0.011782 0.136167 0.000000 0.000000 0.000000
    51 -1.478932 -0.011782 1.098058 0.000000 0.000000 0.000000
    52 0.096140 0.000000 0.432839 0.000000 0.000000 0.000000
    53 3.292969 0.140137 2.103516 0.000000 0.000000 0.000000
    54 0.147536 -0.811491 -0.247168 0.000000 0.000000 0.000000
    55 -6.321769 -1.847687 -2.720937 3.027418 0.046220 -1.803449
  time 11
    0 -0.000001 8.445313 -27.500000 0.000000 0.000000 -0.000001
    1 -0.000002 0.000000 0.000000 1.570747 -1.567142 -1.570747
    2 4.255466 -0.335183 -0.000002 0.000000 0.000000 -0.124848
    3 7.431250 1.496479 0.000002 0.000000 0.000000 0.245450
    4 5.278479 0.165544 0.000001 0.000000 0.000000 0.048511
    5 -1.548098 -13.013502 6.203964 1.975865 1.159909 -1.298786
    6 -6.214478 -0.000009 -0.000026 3.451358 -0.643985 1.087137
    7 11.944885 0.000000 0.000000 -0.325251 -0.334799 1.871775
    8 10.620188 0.000000 0.000000 1.221565 0.100378 2.605098
    9 -4.751108 -0.694498 0.830580 -0.138736 -0.155520 0.348731
    10 -1.688068 0.000047 -0.000031 0.017236 -0.017798 0.669784
    11 -1.336140 0.000055 -0.000010 0.026197 -0.003271 0.678008
    12 -4.820494 -0.509464 -0.224759 -0.357827 -0.084205 1.336877
    13 -1.826984 -0.000069 0.000008 0.001177 0.040509 1.302865
    14 -1.436569 0.000004 0.000003 -0.043286 -0.064688 0.497982
    15 -3.992357 -0.891191 -1.827909 -0.441009 0.257459 1.615500
    16 -1.405918 -0.000025 -0.000002 -0.008644 -0.028235 1.172937
    17 -1.175358 0.000126 -0.000019 0.035820 0.057786 0.458700
    18 -4.526751 -0.690580 -1.120741 -0.315741 0.210772 1.632415
    19 -1.744038 0.000032 -0.000008 -0.024048 -0.017286 1.358630
    20 -1.368771 0.000023 0.000002 0.012522 0.051009 0.135918
    21 -1.874796 -0.935125 0.999175 2.100355 0.441886 0.865551
    22 -1.523447 0.000031 0.000031 0.089509 0.149288 0.643925
    23 -1.599285 0.000011 0.000015 0.036995 -0.021841 0.513351
    24 5.582031 0.115723 0.294922 2.423181 -0.061064 3.105775
    25 0.196846 -0.000002 0.000003 2.793407 0.000006 -3.141577
    26 -0.841045 -10.415764 -3.086683 1.975862 1.159910 1.842803
    27 6.214486 0.000008 0.000019 -2.687956 0.421372 -2.036634
    28 11.944888 -0.000031 -0.000200 0.681832 0.885428 -1.278755
    29 10.620165 0.000002 0.000006 -1.588382 -0.593279 0.168291
    30 4.751158 0.694374 -0.830474 -0.210364 -0.452744 0.709260
    31 1.688065 -0.000022 0.000002 0.000087 -0.024777 1.435340
    32 1.336151 -0.000051 -0.000009 -0.018216 -0.034222 0.860592
    33 4.820515 0.509338 0.224866 -0.572968 -0.272712 1.234842
    34 1.826992 0.000066 0.000010 -0.001994 0.040478 1.224572
    35 1.436581 -0.000006 0.000010 0.002497 -0.014984 0.676024
    36 3.992353 0.891087 1.827993 -0.771838 0.260222 1.674607
    37 1.405926 0.000031 -0.000003 0.000994 -0.029515 0.841936
    38 1.175362 -0.000132 0.000001 0.037919 0.117350 0.268302
    39 4.526758 0.690464 1.120843 -0.780499 0.039748 1.632211
    40 1.744041 -0.000031 -0.000002 -0.018971 -0.022747 1.106327
    41 1.368767 -0.000031 -0.000018 -0.151087 0.088387 0.079887
    42 2.091797 1.019531 -0.707520 2.760546 0.275867 1.220493
    43 1.455078 -0.195068 0.011063 -0.209513 0.223773 0.554874
    44 1.599281 -0.000004 0.000010 -0.008375 -0.021947 0.838714
    45 5.511806 -0.000002 0.000003 0.099819 0.000003 0.000008
    46 0.196849 0.000003 -0.000001 -0.348225 0.000015 -0.000002
    47 0.000000 0.999512 0.000000 0.000000 0.000000 -1.570796
    48 3.674327 -12.713054 -4.697206 0.432959 0.276407 2.659737
    49 7.359375 0.563965 -3.140625 0.422255 1.066391 1.740807
    50 0.696635 -0.011782 0.136167 0.000000 0.000000 0.000000
    51 -1.478932 -0.011782 1.098058 0.000000 0.000000 0.000000
    52 0.096140 0.000000 0.432839 0.000000 0.000000 0.000000
    53 3.292969 0.140137 2.103516 0.000000 0.000000 0.000000
    54 0.147536 -0.811491 -0.247168 0.000000 0.000000 0.000000
    55 -6.321769 -1.847687 -2.720937 3.027418 0.046220 -1.803449
  time 12
    0 -0.000001 8.445313 -27.500000 0.000000 0.000000 -0.000001
    1 -0.000002 0.000000 0.000000 1.570747 -1.567142 -1.570747
    2 4.255466 -0.335183 -0.000002 0.000000 0.000000 -0.124848
    3 7.431250 1.496479 0.000002 0.000000 0.000000 0.245450
    4 5.278479 0.165544 0.000001 0.000000 0.000000 0.048511
    5 -1.645757 -13.091630 6.309436 1.975865 1.159909 -1.298786
    6 -6.214478 -0.000009 -0.000026 3.458645 -0.639095 1.076458
    7 11.944885 0.000000 0.000000 -0.314249 -0.337831 1.838416
    8 10.620188 0.000000 0.000000 1.195334 0.073584 2.651845
    9 -4.751108 -0.694498 0.830580 -0.138724 -0.155520 0.348731
    10 -1.688068 0.000047 -0.000031 0.017236 -0.017798 0.669784
    11 -1.336140 0.000055 -0.000010 0.026197 -0.003271 0.678008
    12 -4.820494 -0.509464 -0.224759 -0.357827 -0.084205 1.336877
    13 -1.826984 -0.000069 0.000008 0.001177 0.040509 1.302865
    14 -1.436569 0.000004 0.000003 -0.043286 -0.064688 0.497982
    15 -3.992357 -0.891191 -1.827909 -0.441009 0.257459 1.615500
    16 -1.405918 -0.000025 -0.000002 -0.008644 -0.028235 1.172937
    17 -1.175358 0.000126 -0.000019 0.035820 0.057786 0.458700
    18 -4.526751 -0.690580 -1.120741 -0.315741 0.210772 1.632415
    19 -1.744038 0.000032 -0.000008 -0.024048 -0.017286 1.358630
    20 -1.368771 0.000023 0.000002 0.012522 0.051009 0.135918
    21 -1.874796 -0.935125 0.999175 2.100355 0.441886 0.865551
    22 -1.523447 0.000031 0.000031 0.089509 0.149288 0.643925
    23 -1.599285 0.000011 0.000015 0.036995 -0.021841 0.513351
    24 5.582031 0.115723 0.294922 2.423181 -0.061064 3.105775
    25 0.196846 -0.000002 0.000003 2.793407 0.000006 -3.141577
    26 -0.794169 -9.818089 -3.250750 1.975862 1.159910 1.842803
    27 6.214486 0.000008 0.000019 -2.721201 0.410096 -2.046723
    28 11.944888 -0.000031 -0.000200 0.726569 0.875952 -1.220653
    29 10.620165 0.000002 0.000006 -1.527896 -0.621475 0.094421
    30 4.751158 0.694374 -0.830474 -0.210364 -0.452744 0.709260
    31 1.688065 -0.000022 0.000002 0.000087 -0.024777 1.435340
    32 1.336151 -0.000051 -0.000009 -0.018216 -0.034222 0.860592
    33 4.820515 0.509338 0.224866 -0.572968 -0.272712 1.234842
    34 1.826992 0.000066 0.000010 -0.001994 0.040478 1.224572
    35 1.436581 -0.000006 0.000010 0.002497 -0.014984 0.676024
    36 3.992353 0.891087 1.827993 -0.771838 0.260222 1.674607
    37 1.405926 0.000031 -0.000003 0.000994 -0.029515 0.841936
    38 1.175362 -0.000132 0.000001 0.037919 0.117350 0.268302
    39 4.526758 0.690464 1.120843 -0.780499 0.039748 1.632211
    40 1.744041 -0.000031 -0.000002 -0.018971 -0.022747 1.106327
    41 1.368767 -0.000031 -0.000018 -0.151087 0.088387 0.079887
    42 2.091797 1.019531 -0.707520 2.760546 0.275867 1.220493
    43 1.455078 -0.195068 0.011063 -0.209513 0.223773 0.554874
    44 1.599281 -0.000004 0.000010 -0.008375 -0.021947 0.838714
    45 5.511806 -0.000002 0.000003 0.099819 0.000003 0.000008
    46 0.196849 0.000003 -0.000001 -0.348225 0.000015 -0.000002
    47 0.000000 0.999512 0.000000 0.000000 0.000000 -1.570796
    48 3.822769 -12.728680 -4.826116 0.433533 0.271211 2.707720
    49 7.359375 0.563965 -3.140625 0.422255 1.066391 1.740807
    50 0.696635 -0.011782 0.136167 0.000000 0.000000 0.000000
    51 -1.478932 -0.011782 1.098058 0.000000 0.000000 0.000000
    52 0.096140 0.000000 0.432839 0.000000 0.000000 0.000000
    53 3.292969 0.140137 2.103516 0.000000 0.000000 0.000000
    54 0.147536 -0.811491 -0.247168 0.000000 0.000000 0.000000
    55 -6.321769 -1.847687 -2.720937 3.027418 0.046220 -1.803449
  time 13
    0 -0.000001 8.445313 -27.500000 0.000000 0.000000 -0.000001
    1 -0.000002 0.000000 0.000000 1.570747 -1.567142 -1.570747
    2 4.255466 -0.335183 -0.000002 0.000000 0.000000 -0.124848
    3 7.431250 1.496479 0.000002 0.000000 0.000000 0.245450
    4 5.278479 0.165544 0.000001 0.000000 0.000000 0.048511
    5 -1.645757 -13.091630 6.309436 1.975865 1.159909 -1.298786
    6 -6.214478 -0.000009 -0.000026 3.461363 -0.638260 1.078566
    7 11.944885 0.000000 0.000000 -0.306994 -0.339629 1.816587
    8 10.620188 0.000000 0.000000 1.172646 0.053291 2.690618
    9 -4.751108 -0.694498 0.830580 -0.138724 -0.155520 0.348731
    10 -1.688068 0.000047 -0.000031 0.017236 -0.017798 0.669784
    11 -1.336140 0.000055 -0.000010 0.026197 -0.003271 0.678008
    12 -4.820494 -0.509464 -0.224759 -0.357827 -0.084205 1.336877
    13 -1.826984 -0.000069 0.000008 0.001177 0.040509 1.302865
    14 -1.436569 0.000004 0.000003 -0.043286 -0.064688 0.497982
    15 -3.992357 -0.891191 -1.827909 -0.441009 0.257459 1.615500
    16 -1.405918 -0.000025 -0.000002 -0.008644 -0.028235 1.172937
    17 -1.175358 0.000126 -0.000019 0.035820 0.057786 0.458700
    18 -4.526751 -0.690580 -1.120741 -0.315741 0.210772 1.632415
    19 -1.744038 0.000032 -0.000008 -0.024048 -0.017286 1.358630
    20 -1.368771 0.000023 0.000002 0.012522 0.051009 0.135918
    21 -1.874796 -0.935125 0.999175 2.100355 0.441886 0.865551
    22 -1.523447 0.000031 0.000031 0.089509 0.149288 0.643925
    23 -1.599285 0.000011 0.000015 0.036995 -0.021841 0.513351
    24 5.582031 0.115723 0.294922 2.423181 -0.061064 3.105775
    25 0.196846 -0.000002 0.000003 2.793407 0.000006 -3.141577
    26 -0.759011 -9.353231 -3.379660 1.975862 1.159910 1.842803
    27 6.214486 0.000008 0.000019 -2.738339 0.399314 -2.051932
    28 11.944888 -0.000031 -0.000200 0.764854 0.866239 -1.170707
    29 10.620165 0.000002 0.000006 -1.485097 -0.645271 0.040967
    30 4.751158 0.694374 -0.830474 -0.210364 -0.452744 0.709260
    31 1.688065 -0.000022 0.000002 0.000087 -0.024777 1.435340
    32 1.336151 -0.000051 -0.000009 -0.018216 -0.034210 0.860592
    33 4.820515 0.509338 0.224866 -0.572968 -0.272712 1.234842
    34 1.826992 0.000066 0.000010 -0.001994 0.040478 1.224572
    35 1.436581 -0.000006 0.000010 0.002497 -0.014984 0.676024
    36 3.992353 0.891087 1.827993 -0.771838 0.260222 1.674607
    37 1.405926 0.000031 -0.000003 0.000994 -0.029515 0.841936
    38 1.175362 -0.000132 0.000001 0.037919 0.117350 0.268302
    39 4.526758 0.690464 1.120843 -0.780499 0.039748 1.632211
    40 1.744041 -0.000031 -0.000002 -0.018971 -0.022747 1.106327
    41 1.368767 -0.000031 -0.000018 -0.151087 0.088387 0.079887
    42 2.091797 1.019531 -0.707520 2.760546 0.275867 1.220493
    43 1.455078 -0.195068 0.011063 -0.209513 0.223773 0.554874
    44 1.599281 -0.000004 0.000010 -0.008375 -0.021947 0.838714
    45 5.511806 -0.000002 0.000003 0.099819 0.000003 0.000008
    46 0.196849 0.000003 -0.000001 -0.348225 0.000015 -0.000002
    47 0.000000 0.999512 0.000000 0.000000 0.000000 -1.570796
    48 3.900896 -12.744305 -4.900337 0.431953 0.267835 2.740917
    49 7.359375 0.563965 -3.140625 0.422255 1.066391 1.740807
    50 0.696635 -0.011782 0.136167 0.000000 0.000000 0.000000
    51 -1.478932 -0.011782 1.098058 0.000000 0.000000 0.000000
    52 0.096140 0.000000 0.432839 0.000000 0.000000 0.000000
    53 3.292969 0.140137 2.103516 0.000000 0.000000 0.000000
    54 0.147536 -0.811491 -0.247168 0.000000 0.000000 0.000000
    55 -6.321769 -1.847687 -2.720937 3.027418 0.046220 -1.803449
  time 14
    0 -0.000001 8.445313 -27.500000 0.000000 0.000000 -0.000001
    1 -0.000002 0.000000 0.000000 1.570747 -1.567142 -1.570747
    2 4.255466 -0.335183 -0.000002 0.000000 0.000000 -0.124848
    3 7.431250 1.496479 0.000002 0.000000 0.000000 0.245450
    4 5.278479 0.165544 0.000001 0.000000 0.000000 0.048511
    5 -1.645757 -13.091630 6.309436 1.975865 1.159909 -1.298786
    6 -6.214478 -0.000009 -0.000026 3.463167 -0.637646 1.079620
    7 11.944885 0.000000 0.000000 -0.302689 -0.340623 1.803677
    8 10.620188 0.000000 0.000000 1.157759 0.041909 2.713216
    9 -4.751108 -0.694498 0.830580 -0.138724 -0.155520 0.348731
    10 -1.688068 0.000047 -0.000031 0.017236 -0.017798 0.669784
    11 -1.336140 0.000055 -0.000010 0.026197 -0.003271 0.678008
    12 -4.820494 -0.509464 -0.224759 -0.357827 -0.084205 1.336877
    13 -1.826984 -0.000069 0.000008 0.001177 0.040509 1.302865
    14 -1.436569 0.000004 0.000003 -0.043286 -0.064688 0.497982
    15 -3.992357 -0.891191 -1.827909 -0.441009 0.257459 1.615500
    16 -1.405918 -0.000025 -0.000002 -0.008644 -0.028235 1.172937
    17 -1.175358 0.000126 -0.000019 0.035820 0.057786 0.458700
    18 -4.526751 -0.690580 -1.120741 -0.315741 0.210772 1.632415
    19 -1.744038 0.000032 -0.000008 -0.024048 -0.017286 1.358630
    20 -1.368771 0.000023 0.000002 0.012522 0.051009 0.135918
    21 -1.874796 -0.935125 0.999175 2.100355 0.441886 0.865551
    22 -1.523447 0.000031 0.000031 0.089509 0.149288 0.643925
    23 -1.599285 0.000011 0.000015 0.036995 -0.021841 0.513351
    24 5.582031 0.115723 0.294922 2.423181 -0.061064 3.105775
    25 0.196846 -0.000002 0.000003 2.793407 0.000006 -3.141577
    26 -0.735573 -9.048535 -3.461694 1.975862 1.159910 1.842803
    27 6.214486 0.000008 0.000019 -2.746018 0.391125 -2.054108
    28 11.944888 -0.000031 -0.000200 0.791166 0.858657 -1.136050
    29 10.620165 0.000002 0.000006 -1.458334 -0.660898 0.007877
    30 4.751158 0.694374 -0.830474 -0.210364 -0.452744 0.709260
    31 1.688065 -0.000022 0.000002 0.000087 -0.024777 1.435340
    32 1.336151 -0.000051 -0.000009 -0.018216 -0.034222 0.860592
    33 4.820515 0.509338 0.224866 -0.572968 -0.272712 1.234842
    34 1.826992 0.000066 0.000010 -0.001994 0.040478 1.224572
    35 1.436581 -0.000006 0.000010 0.002497 -0.014984 0.676024
    36 3.992353 0.891087 1.827993 -0.771838 0.260222 1.674607
    37 1.405926 0.000031 -0.000003 0.000994 -0.029515 0.841936
    38 1.175362 -0.000132 0.000001 0.037919 0.117350 0.268302
    39 4.526758 0.690464 1.120843 -0.780499 0.039748 1.632211
    40 1.744041 -0.000031 -0.000002 -0.018971 -0.022747 1.106327
    41 1.368767 -0.000031 -0.000018 -0.151087 0.088387 0.079887
    42 2.091797 1.019531 -0.707520 2.760546 0.275867 1.220493
    43 1.455078 -0.195068 0.011063 -0.209513 0.223773 0.554874
    44 1.599281 -0.000004 0.000010 -0.008375 -0.021947 0.838714
    45 5.511806 -0.000002 0.000003 0.099819 0.000003 0.000008
    46 0.196849 0.000003 -0.000001 -0.348225 0.000015 -0.000002
    47 0.000000 0.999512 0.000000 0.000000 0.000000 -1.570796
    48 3.936054 -12.752118 -4.935495 0.429464 0.266338 2.760567
    49 7.359375 0.563965 -3.140625 0.422255 1.066391 1.740807
    50 0.696635 -0.011782 0.136167 0.000000 0.000000 0.000000
    51 -1.478932 -0.011782 1.098058 0.000000 0.000000 0.000000
    52 0.096140 0.000000 0.432839 0.000000 0.000000 0.000000
    53 3.292969 0.140137 2.103516 0.000000 0.000000 0.000000
    54 0.147536 -0.811491 -0.247168 0.000000 0.000000 0.000000
    55 -6.321769 -1.847687 -2.720937 3.027418 0.046220 -1.803449
  time 15
    0 -0.000001 8.445313 -27.500000 0.000000 0.000000 -0.000001
    1 -0.000002 0.000000 0.000000 1.570747 -1.567142 -1.570747
    2 4.255466 -0.335183 -0.000002 0.000000 0.000000 -0.124848
    3 7.431250 1.496479 0.000002 0.000000 0.000000 0.245450
    4 5.278479 0.165544 0.000001 0.000000 0.000000 0.048511
    5 -1.645757 -13.091630 6.309436 1.975865 1.159909 -1.298786
    6 -6.214478 -0.000009 -0.000026 3.463784 -0.637424 1.079971
    7 11.944885 0.000000 0.000000 -0.301139 -0.340959 1.799046
    8 10.620188 0.000000 0.000000 1.151841 0.038304 2.721379
    9 -4.751108 -0.694498 0.830580 -0.138724 -0.155520 0.348731
    10 -1.688068 0.000047 -0.000031 0.017236 -0.017798 0.669784
    11 -1.336140 0.000055 -0.000010 0.026197 -0.003271 0.678008
    12 -4.820494 -0.509464 -0.224759 -0.357827 -0.084205 1.336877
    13 -1.826984 -0.000069 0.000008 0.001177 0.040509 1.302865
    14 -1.436569 0.000004 0.000003 -0.043286 -0.064688 0.497982
    15 -3.992357 -0.891191 -1.827909 -0.441009 0.257459 1.615500
    16 -1.405918 -0.000025 -0.000002 -0.008644 -0.028235 1.172937
    17 -1.175358 0.000126 -0.000019 0.035820 0.057786 0.458700
    18 -4.526751 -0.690580 -1.120741 -0.315741 0.210772 1.632415
    19 -1.744038 0.000032 -0.000008 -0.024048 -0.017286 1.358630
    20 -1.368771 0.000023 0.000002 0.012522 0.051009 0.135918
    21 -1.874796 -0.935125 0.999175 2.100355 0.441886 0.865551
    22 -1.523447 0.000031 0.000031 0.089509 0.149288 0.643925
    23 -1.599285 0.000011 0.000015 0.036995 -0.021841 0.513351
    24 5.582031 0.115723 0.294922 2.423181 -0.061064 3.105775
    25 0.196846 -0.000002 0.000003 2.793407 0.000006 -3.141577
    26 -0.723854 -8.943063 -3.492945 1.975862 1.159910 1.842803
    27 6.214486 0.000008 0.000019 -2.748172 0.387915 -2.054767
    28 11.944888 -0.000031 -0.000200 0.800415 0.855814 -1.123818
    29 10.620165 0.000002 0.000006 -1.448124 -0.666343 -0.003895
    30 4.751158 0.694374 -0.830474 -0.210364 -0.452744 0.709260
    31 1.688065 -0.000022 0.000002 0.000087 -0.024777 1.435340
    32 1.336151 -0.000051 -0.000009 -0.018216 -0.034222 0.860592
    33 4.820515 0.509338 0.224866 -0.572968 -0.272712 1.234842
    34 1.826992 0.000066 0.000010 -0.001994 0.040478 1.224572
    35 1.436581 -0.000006 0.000010 0.002497 -0.014984 0.676024
    36 3.992353 0.891087 1.827993 -0.771838 0.260222 1.674607
    37 1.405926 0.000031 -0.000003 0.000994 -0.029515 0.841936
    38 1.175362 -0.000132 0.000001 0.037919 0.117350 0.268302
    39 4.526758 0.690464 1.120843 -0.780499 0.039748 1.632211
    40 1.744041 -0.000031 -0.000002 -0.018971 -0.022747 1.106327
    41 1.368767 -0.000031 -0.000018 -0.151087 0.088387 0.079887
    42 2.091797 1.019531 -0.707520 2.760546 0.275867 1.220493
    43 1.455078 -0.195068 0.011063 -0.209513 0.223773 0.554874
    44 1.599281 -0.000004 0.000010 -0.008375 -0.021947 0.838714
    45 5.511806 -0.000002 0.000003 0.099819 0.000003 0.000008
    46 0.196849 0.000003 -0.000001 -0.348225 0.000015 -0.000002
    47 0.000000 0.999512 0.000000 0.000000 0.000000 -1.570796
    48 3.947773 -12.756024 -4.947214 0.428076 0.266237 2.767531
    49 7.359375 0.563965 -3.140625 0.422255 1.066391 1.740807
    50 0.696635 -0.011782 0.136167 0.000000 0.000000 0.000000
    51 -1.478932 -0.011782 1.098058 0.000000 0.000000 0.000000
    52 0.096140 0.000000 0.432839 0.000000 0.000000 0.000000
    53 3.292969 0.140137 2.103516 0.000000 0.000000 0.000000
    54 0.147536 -0.811491 -0.247168 0.000000 0.000000 0.000000
    55 -6.321769 -1.847687 -2.720937 3.027418 0.046220 -1.803449
end
