// Created by Crowbar 0.74
version 1
nodes
  0 "root" -1
  1 "pelvis" 0
  2 "spine_01" 1
  3 "spine_02" 2
  4 "spine_03" 3
  5 "clavicle_r" 4
  6 "upperarm_r" 5
  7 "lowerarm_r" 6
  8 "hand_r" 7
  9 "index_01_r" 8
  10 "index_02_r" 9
  11 "index_03_r" 10
  12 "middle_01_r" 8
  13 "middle_02_r" 12
  14 "middle_03_r" 13
  15 "pinky_01_r" 8
  16 "pinky_02_r" 15
  17 "pinky_03_r" 16
  18 "ring_01_r" 8
  19 "ring_02_r" 18
  20 "ring_03_r" 19
  21 "thumb_01_r" 8
  22 "thumb_02_r" 21
  23 "thumb_03_r" 22
  24 "lowerarm_twist_01_r" 7
  25 "upperarm_twist_01_r" 6
  26 "clavicle_l" 4
  27 "upperarm_l" 26
  28 "lowerarm_l" 27
  29 "hand_l" 28
  30 "index_01_l" 29
  31 "index_02_l" 30
  32 "index_03_l" 31
  33 "middle_01_l" 29
  34 "middle_02_l" 33
  35 "middle_03_l" 34
  36 "pinky_01_l" 29
  37 "pinky_02_l" 36
  38 "pinky_03_l" 37
  39 "ring_01_l" 29
  40 "ring_02_l" 39
  41 "ring_03_l" 40
  42 "thumb_01_l" 29
  43 "thumb_02_l" 42
  44 "thumb_03_l" 43
  45 "lowerarm_twist_01_l" 28
  46 "upperarm_twist_01_l" 27
  47 "cam_driver" -1
  48 "Base" -1
  49 "rhand_ikTarget" 48
  50 "Hammer" 48
  51 "CyHolder" 48
  52 "Cy" 51
  53 "BulletPos" 52
  54 "Bullet.001" 53
  55 "Bullet.002" 53
  56 "Bullet.003" 53
  57 "Bullet.004" 53
  58 "Bullet.005" 53
  59 "Bullet.006" 53
  60 "Pusher" 51
  61 "Trigger" 48
  62 "lhand_ikTarget" 48
end
skeleton
  time 0
    0 -0.000001 8.445313 -27.500000 0.000000 0.000000 -0.000001
    1 -0.000002 0.000000 0.000000 1.570747 -1.567142 -1.570747
    2 4.255466 -0.335183 -0.000002 0.000000 0.000000 -0.124848
    3 7.431250 1.496478 0.000002 0.000000 0.000000 0.245450
    4 5.278479 0.165543 0.000001 0.000000 0.000000 0.048511
    5 -0.063679 -8.704776 -0.757185 1.975864 1.159909 -1.298786
    6 -6.214481 -0.000008 -0.000026 3.603575 -0.261931 1.527906
    7 11.944883 0.000000 0.000000 -1.455313 -0.345165 1.409985
    8 10.620180 0.000000 0.000001 0.512020 -0.966273 2.556412
    9 -4.751106 -0.694494 0.830578 -0.288129 -0.241473 0.769847
    10 -1.688068 0.000049 -0.000031 0.008847 -0.023143 1.073858
    11 -1.336140 0.000057 -0.000011 0.019662 -0.017619 1.284895
    12 -4.820494 -0.509457 -0.224758 -0.260903 0.213693 1.648925
    13 -1.826977 -0.000069 0.000006 -0.015209 0.037565 0.889001
    14 -1.436573 0.000006 0.000002 -0.065252 -0.042429 0.902686
    15 -3.992355 -0.891188 -1.827906 -0.520906 0.341754 1.515172
    16 -1.405918 -0.000031 -0.000005 0.005103 -0.029084 0.702011
    17 -1.175362 0.000123 -0.000019 0.056843 0.037297 0.894105
    18 -4.526749 -0.690577 -1.120743 -0.365943 0.315850 1.756587
    19 -1.744045 0.000031 -0.000006 -0.016753 -0.024422 1.012301
    20 -1.368771 0.000028 0.000004 0.025976 0.045654 0.412606
    21 -1.874800 -0.935122 0.999173 1.994955 0.493826 0.930947
    22 -1.523449 0.000031 0.000030 0.064935 0.040579 0.552922
    23 -1.599281 0.000006 0.000016 0.037783 -0.020449 0.476130
    24 5.511816 0.000006 -0.000001 0.691190 -0.000007 3.141588
    25 0.196850 -0.000002 0.000002 2.793407 0.000006 -3.141577
    26 0.190236 -12.845523 -5.239092 1.975863 1.159910 1.842803
    27 6.214486 0.000007 0.000017 0.014503 -0.075495 -2.246316
    28 11.944885 -0.000031 -0.000195 -0.206590 -0.251864 -0.784463
    29 10.620169 0.000004 0.000005 -1.381160 -0.156205 -0.665701
    30 4.751158 0.694378 -0.830476 0.337971 -0.306782 0.341018
    31 1.688068 -0.000029 0.000002 0.017634 -0.017413 0.647386
    32 1.336147 -0.000051 -0.000009 0.011046 -0.037162 0.082120
    33 4.820515 0.509344 0.224866 0.016973 -0.411850 0.503281
    34 1.826992 0.000065 0.000010 -0.017881 0.036367 0.817016
    35 1.436577 -0.000010 0.000009 -0.062730 -0.051483 0.395175
    36 3.992352 0.891088 1.827995 -0.571808 -0.437734 0.854412
    37 1.405922 0.000027 -0.000006 -0.002416 -0.029428 0.957563
    38 1.175365 -0.000129 0.000002 0.070583 0.101181 0.565682
    39 4.526758 0.690462 1.120839 -0.358846 -0.466355 0.751331
    40 1.744034 -0.000033 0.000000 -0.094221 -0.040619 0.926565
    41 1.368763 -0.000032 -0.000018 0.075673 0.139645 0.313283
    42 1.921730 0.938988 -0.999131 1.534322 0.542693 0.591791
    43 1.511734 -0.113317 0.058594 -0.025339 0.032951 0.314015
    44 1.599279 -0.000002 0.000008 0.083436 0.003885 0.780084
    45 5.511805 -0.000002 0.000002 -0.235797 0.000005 0.000007
    46 0.196850 0.000002 -0.000002 -0.348225 0.000015 -0.000002
    47 0.000000 0.999512 0.000000 0.000000 0.000000 -1.570796
    48 -2.657277 -19.379021 -3.461376 0.313474 -0.011916 1.566769
    49 6.105469 0.544434 -1.899414 0.033162 0.989106 1.355239
    50 1.172841 0.003867 0.361636 0.000000 0.000000 0.000000
    51 -2.909418 -0.116088 -0.378866 0.000000 0.000000 0.000000
    52 1.368917 0.119955 1.216499 0.000000 0.000000 0.000000
    53 1.166946 0.000000 0.000000 0.000000 0.000000 0.000000
    54 -0.699533 0.501534 0.289546 0.000000 0.000000 0.000000
    55 -0.699533 0.001722 0.577368 0.000000 0.000000 0.000000
    56 -0.699533 -0.498777 0.287822 0.000000 0.000000 0.000000
    57 -0.699533 -0.496295 -0.290442 0.000000 0.000000 0.000000
    58 -0.699533 0.002550 -0.578333 0.000000 0.000000 0.000000
    59 -0.699533 0.502241 -0.290088 0.000000 0.000000 0.000000
    60 -0.630154 0.119955 1.216499 0.000000 0.000000 0.000000
    61 -1.045788 0.006302 -0.388174 0.000000 -0.944725 0.000000
    62 2.787950 -1.436113 1.626238 0.628073 -1.209180 -0.643816
  time 1
    0 -0.000001 8.445313 -27.500000 0.000000 0.000000 -0.000001
    1 -0.000002 0.000000 0.000000 1.570747 -1.567142 -1.570747
    2 4.255466 -0.335183 -0.000002 0.000000 0.000000 -0.124848
    3 7.431250 1.496478 0.000002 0.000000 0.000000 0.245450
    4 5.278479 0.165543 0.000001 0.000000 0.000000 0.048511
    5 0.022262 -8.681338 -0.706403 1.962593 1.162342 -1.310960
    6 -6.214481 -0.000008 -0.000026 3.618330 -0.253524 1.504630
    7 11.944883 0.000000 0.000000 -1.444132 -0.336381 1.400817
    8 10.620180 0.000000 0.000001 0.531112 -1.015046 2.491598
    9 -4.751106 -0.694494 0.830578 -0.283823 -0.239999 0.762667
    10 -1.688068 0.000049 -0.000031 0.009254 -0.022987 1.056319
    11 -1.336140 0.000057 -0.000011 0.020082 -0.017128 1.259724
    12 -4.820494 -0.509457 -0.224758 -0.260903 0.213693 1.648925
    13 -1.826977 -0.000069 0.000006 -0.015209 0.037565 0.889001
    14 -1.436573 0.000006 0.000002 -0.065252 -0.042429 0.902686
    15 -3.992355 -0.891188 -1.827906 -0.520906 0.341754 1.515172
    16 -1.405918 -0.000031 -0.000005 0.005103 -0.029084 0.702011
    17 -1.175362 0.000123 -0.000019 0.056843 0.037297 0.894105
    18 -4.526749 -0.690577 -1.120743 -0.365943 0.315850 1.756587
    19 -1.744045 0.000031 -0.000006 -0.016753 -0.024422 1.012301
    20 -1.368771 0.000028 0.000004 0.025976 0.045654 0.412606
    21 -1.874800 -0.935122 0.999173 1.994955 0.493826 0.930947
    22 -1.523449 0.000031 0.000030 0.064935 0.040579 0.552922
    23 -1.599281 0.000006 0.000016 0.037783 -0.020449 0.476130
    24 5.511816 0.000006 -0.000001 0.691190 -0.000007 3.141588
    25 0.196850 -0.000002 0.000002 2.793407 0.000006 -3.141577
    26 0.225393 -12.720520 -5.121901 1.991256 1.156974 1.856909
    27 6.214486 0.000007 0.000017 -0.433923 0.303487 -2.113531
    28 11.944885 -0.000031 -0.000195 -0.057126 -0.343331 -1.377649
    29 10.620169 0.000004 0.000005 -1.241016 0.046721 -0.165905
    30 4.751158 0.694378 -0.830476 0.366135 -0.264531 0.211178
    31 1.688068 -0.000029 0.000002 0.020175 -0.014381 0.487436
    32 1.336147 -0.000051 -0.000009 0.011046 -0.037162 0.082120
    33 4.820515 0.509344 0.224866 0.022927 -0.394714 0.415978
    34 1.826992 0.000065 0.000010 -0.017881 0.036367 0.817016
    35 1.436577 -0.000010 0.000009 -0.062730 -0.051483 0.395175
    36 3.992352 0.891088 1.827995 -0.557148 -0.424934 0.870526
    37 1.405922 0.000027 -0.000006 -0.002416 -0.029428 0.957563
    38 1.175365 -0.000129 0.000002 0.070583 0.101181 0.565682
    39 4.526758 0.690462 1.120839 -0.363059 -0.456824 0.786279
    40 1.744034 -0.000033 0.000000 -0.094221 -0.040619 0.926565
    41 1.368763 -0.000032 -0.000018 0.075673 0.139645 0.313283
    42 1.921730 0.938988 -0.999131 1.671352 0.637938 0.819878
    43 1.511734 -0.113317 0.058594 -0.027461 0.031753 0.268391
    44 1.599279 -0.000002 0.000008 0.077695 0.030706 0.450916
    45 5.511805 -0.000002 0.000002 -0.235797 0.000005 0.000007
    46 0.196850 0.000002 -0.000002 -0.348225 0.000015 -0.000002
    47 0.000000 0.999512 0.000000 0.000000 0.000000 -1.570796
    48 -2.520554 -19.386834 -3.320746 0.257872 -0.044891 1.562833
    49 6.105469 0.544434 -1.899414 0.033162 0.989106 1.355239
    50 1.172841 0.003867 0.361636 0.000000 0.000000 0.000000
    51 -2.909418 -0.116088 -0.378866 0.000000 0.000000 0.000000
    52 1.368917 0.119955 1.216499 0.000000 0.000000 0.000000
    53 1.166946 0.000000 0.000000 0.000000 0.000000 0.000000
    54 -0.699533 0.501534 0.289546 0.000000 0.000000 0.000000
    55 -0.699533 0.001722 0.577368 0.000000 0.000000 0.000000
    56 -0.699533 -0.498777 0.287822 0.000000 0.000000 0.000000
    57 -0.699533 -0.496295 -0.290442 0.000000 0.000000 0.000000
    58 -0.699533 0.002550 -0.578333 0.000000 0.000000 0.000000
    59 -0.699533 0.502241 -0.290088 0.000000 0.000000 0.000000
    60 -0.630154 0.119955 1.216499 0.000000 0.000000 0.000000
    61 -1.045788 0.006302 -0.388174 0.000000 -0.894039 0.000000
    62 4.807543 -4.186197 0.266822 1.557427 -1.113602 -1.327045
  time 2
    0 -0.000001 8.445313 -27.500000 0.000000 0.000000 -0.000001
    1 -0.000002 0.000000 0.000000 1.570747 -1.567142 -1.570747
    2 4.255466 -0.335183 -0.000002 0.000000 0.000000 -0.124848
    3 7.431250 1.496478 0.000002 0.000000 0.000000 0.245450
    4 5.278479 0.165543 0.000001 0.000000 0.000000 0.048511
    5 0.252737 -8.622742 -0.561867 1.925410 1.168682 -1.345132
    6 -6.214481 -0.000008 -0.000026 3.648409 -0.270251 1.479908
    7 11.944883 0.000000 0.000000 -1.419970 -0.313094 1.394806
    8 10.620180 0.000000 0.000001 0.531421 -1.043677 2.368953
    9 -4.751106 -0.694494 0.830578 -0.272150 -0.235828 0.743180
    10 -1.688068 0.000049 -0.000031 0.010345 -0.022520 1.008570
    11 -1.336140 0.000057 -0.000011 0.021220 -0.015701 1.190755
    12 -4.820494 -0.509457 -0.224758 -0.260903 0.213693 1.648925
    13 -1.826977 -0.000069 0.000006 -0.015209 0.037565 0.889001
    14 -1.436573 0.000006 0.000002 -0.065252 -0.042429 0.902686
    15 -3.992355 -0.891188 -1.827906 -0.520906 0.341754 1.515172
    16 -1.405918 -0.000031 -0.000005 0.005103 -0.029084 0.702011
    17 -1.175362 0.000123 -0.000019 0.056843 0.037297 0.894105
    18 -4.526749 -0.690577 -1.120743 -0.365943 0.315850 1.756587
    19 -1.744045 0.000031 -0.000006 -0.016753 -0.024422 1.012301
    20 -1.368771 0.000028 0.000004 0.025976 0.045654 0.412606
    21 -1.874800 -0.935122 0.999173 1.994955 0.493826 0.930947
    22 -1.523449 0.000031 0.000030 0.064935 0.040579 0.552922
    23 -1.599281 0.000006 0.000016 0.037783 -0.020449 0.476130
    24 5.511816 0.000006 -0.000001 0.691190 -0.000007 3.141588
    25 0.196850 -0.000002 0.000002 2.793407 0.000006 -3.141577
    26 0.326959 -12.372853 -4.797673 2.032444 1.148476 1.894551
    27 6.214486 0.000007 0.000017 -0.631547 0.632028 -2.030709
    28 11.944885 -0.000031 -0.000195 0.018335 -0.338249 -1.833558
    29 10.620169 0.000004 0.000005 -1.281819 -0.237825 0.249968
    30 4.751158 0.694378 -0.830476 0.370727 -0.257819 0.188360
    31 1.688068 -0.000029 0.000002 0.022452 -0.010498 0.305497
    32 1.336147 -0.000051 -0.000009 0.011046 -0.037162 0.082120
    33 4.820515 0.509344 0.224866 0.023529 -0.371264 0.404158
    34 1.826992 0.000065 0.000010 -0.017881 0.036367 0.817016
    35 1.436577 -0.000010 0.000009 -0.062730 -0.051483 0.395175
    36 3.992352 0.891088 1.827995 -0.528876 -0.415708 0.886540
    37 1.405922 0.000027 -0.000006 -0.002416 -0.029428 0.957563
    38 1.175365 -0.000129 0.000002 0.070583 0.101181 0.565682
    39 4.526758 0.690462 1.120839 -0.353207 -0.448014 0.818839
    40 1.744034 -0.000033 0.000000 -0.094233 -0.040619 0.926565
    41 1.368763 -0.000032 -0.000018 0.075673 0.139645 0.313283
    42 1.921730 0.938988 -0.999131 1.707783 0.730483 0.882527
    43 1.511734 -0.113317 0.058594 -0.028264 0.030482 0.221675
    44 1.599279 -0.000002 0.000008 0.062139 0.055862 0.095103
    45 5.511805 -0.000002 0.000002 -0.235797 0.000005 0.000007
    46 0.196850 0.000002 -0.000002 -0.348225 0.000015 -0.000002
    47 0.000000 0.999512 0.000000 0.000000 0.000000 -1.570796
    48 -2.465865 -19.402459 -3.266057 0.134599 -0.069770 1.564031
    49 6.105469 0.544434 -1.899414 0.033162 0.989106 1.355239
    50 1.172841 0.003867 0.361636 0.000000 0.000000 0.000000
    51 -2.909418 -0.116088 -0.378866 0.000000 0.000000 0.000000
    52 1.368917 0.119955 1.216499 0.000000 0.000000 0.000000
    53 1.166946 0.000000 0.000000 0.000000 0.000000 0.000000
    54 -0.699533 0.501534 0.289546 0.000000 0.000000 0.000000
    55 -0.699533 0.001722 0.577368 0.000000 0.000000 0.000000
    56 -0.699533 -0.498777 0.287822 0.000000 0.000000 0.000000
    57 -0.699533 -0.496295 -0.290442 0.000000 0.000000 0.000000
    58 -0.699533 0.002550 -0.578333 0.000000 0.000000 0.000000
    59 -0.699533 0.502241 -0.290088 0.000000 0.000000 0.000000
    60 -0.630154 0.119955 1.216499 0.000000 0.000000 0.000000
    61 -1.045788 0.006302 -0.388174 0.000000 -0.760837 0.000000
    62 6.827136 -6.936281 -2.276225 2.234470 -0.546070 -1.687837
  time 3
    0 -0.000001 8.445313 -27.500000 0.000000 0.000000 -0.000001
    1 -0.000002 0.000000 0.000000 1.570747 -1.567142 -1.570747
    2 4.255466 -0.335183 -0.000002 0.000000 0.000000 -0.124848
    3 7.431250 1.496478 0.000002 0.000000 0.000000 0.245450
    4 5.278479 0.165543 0.000001 0.000000 0.000000 0.048511
    5 0.600404 -8.528989 -0.347017 1.867807 1.177203 -1.398245
    6 -6.214481 -0.000008 -0.000026 3.693432 -0.299417 1.453741
    7 11.944883 0.000000 0.000000 -1.384081 -0.277788 1.386590
    8 10.620180 0.000000 0.000001 0.525315 -1.037293 2.244186
    9 -4.751106 -0.694494 0.830578 -0.255095 -0.229285 0.714560
    10 -1.688068 0.000049 -0.000031 0.011903 -0.021729 0.937662
    11 -1.336140 0.000057 -0.000011 0.022718 -0.013424 1.087493
    12 -4.820494 -0.509457 -0.224758 -0.260903 0.213693 1.648925
    13 -1.826977 -0.000069 0.000006 -0.015209 0.037565 0.889001
    14 -1.436573 0.000006 0.000002 -0.065252 -0.042429 0.902686
    15 -3.992355 -0.891188 -1.827906 -0.520906 0.341754 1.515172
    16 -1.405918 -0.000031 -0.000005 0.005103 -0.029084 0.702011
    17 -1.175362 0.000123 -0.000019 0.056843 0.037297 0.894105
    18 -4.526749 -0.690577 -1.120743 -0.365943 0.315850 1.756587
    19 -1.744045 0.000031 -0.000006 -0.016753 -0.024422 1.012301
    20 -1.368771 0.000028 0.000004 0.025976 0.045654 0.412606
    21 -1.874800 -0.935122 0.999173 1.994955 0.493826 0.930947
    22 -1.523449 0.000031 0.000030 0.064935 0.040579 0.552922
    23 -1.599281 0.000006 0.000016 0.037783 -0.020449 0.476130
    24 5.511816 0.000006 -0.000001 0.691190 -0.000007 3.141588
    25 0.196850 -0.000002 0.000002 2.793407 0.000006 -3.141577
    26 0.479307 -11.857212 -4.317189 2.091112 1.134622 1.947892
    27 6.214486 0.000007 0.000017 -0.540632 0.659132 -1.894231
    28 11.944885 -0.000031 -0.000195 -0.103568 -0.339843 -1.813911
    29 10.620169 0.000004 0.000005 -1.547107 -0.536739 0.465315
    30 4.751158 0.694378 -0.830476 0.364719 -0.250843 0.167147
    31 1.688068 -0.000029 0.000002 0.022824 -0.009647 0.268248
    32 1.336147 -0.000051 -0.000009 0.011046 -0.037162 0.082120
    33 4.820515 0.509344 0.224866 0.034949 -0.357809 0.403366
    34 1.826992 0.000065 0.000010 -0.019368 0.035600 0.775490
    35 1.436577 -0.000010 0.000009 -0.059902 -0.054755 0.341840
    36 3.992352 0.891088 1.827995 -0.507779 -0.424934 0.878736
    37 1.405922 0.000027 -0.000006 -0.001493 -0.029488 0.926235
    38 1.175365 -0.000129 0.000002 0.067371 0.103350 0.534238
    39 4.526758 0.690462 1.120839 -0.314003 -0.448469 0.799232
    40 1.744034 -0.000033 0.000000 -0.092339 -0.044754 0.882381
    41 1.368763 -0.000032 -0.000018 0.073120 0.140987 0.295098
    42 1.921730 0.938988 -0.999131 1.646218 0.730834 0.833373
    43 1.511734 -0.113317 0.058594 -0.026190 0.032640 0.219801
    44 1.599279 -0.000002 0.000008 0.059539 0.058630 0.049597
    45 5.511805 -0.000002 0.000002 -0.235797 0.000005 0.000007
    46 0.196850 0.000002 -0.000002 -0.348225 0.000015 -0.000002
    47 0.000000 0.999512 0.000000 0.000000 0.000000 -1.570796
    48 -2.442427 -19.418085 -3.238713 0.011040 -0.084961 1.568224
    49 6.105469 0.544434 -1.899414 0.033162 0.989106 1.355239
    50 1.172841 0.003867 0.361636 0.000000 0.000000 0.000000
    51 -2.909418 -0.116088 -0.378866 0.000000 0.000000 0.000000
    52 1.368917 0.119955 1.216499 0.000000 0.000000 0.000000
    53 1.166946 0.000000 0.000000 0.000000 0.000000 0.000000
    54 -0.699533 0.501534 0.289546 0.000000 0.000000 0.000000
    55 -0.699533 0.001722 0.577368 0.000000 0.000000 0.000000
    56 -0.699533 -0.498777 0.287822 0.000000 0.000000 0.000000
    57 -0.699533 -0.496295 -0.290442 0.000000 0.000000 0.000000
    58 -0.699533 0.002550 -0.578333 0.000000 0.000000 0.000000
    59 -0.699533 0.502241 -0.290088 0.000000 0.000000 0.000000
    60 -0.630154 0.119955 1.216499 0.000000 0.000000 0.000000
    61 -1.045788 0.006302 -0.388174 0.000000 -0.574729 0.000000
    62 6.448218 -6.916749 -4.131750 2.546440 -0.097072 -1.745896
  time 4
    0 -0.000001 8.445313 -27.500000 0.000000 0.000000 -0.000001
    1 -0.000002 0.000000 0.000000 1.570747 -1.567142 -1.570747
    2 4.255466 -0.335183 -0.000002 0.000000 0.000000 -0.124848
    3 7.431250 1.496478 0.000002 0.000000 0.000000 0.245450
    4 5.278479 0.165543 0.000001 0.000000 0.000000 0.048511
    5 1.030105 -8.415705 -0.081384 1.793441 1.186047 -1.467055
    6 -6.214481 -0.000008 -0.000026 3.750886 -0.331434 1.428368
    7 11.944883 0.000000 0.000000 -1.339194 -0.233241 1.373715
    8 10.620180 0.000000 0.000001 0.534513 -0.984374 2.164329
    9 -4.751106 -0.694494 0.830578 -0.234683 -0.220680 0.679980
    10 -1.688068 0.000049 -0.000031 0.013748 -0.020614 0.850951
    11 -1.336140 0.000057 -0.000011 0.024240 -0.010428 0.960254
    12 -4.820494 -0.509457 -0.224758 -0.260903 0.213693 1.648925
    13 -1.826977 -0.000069 0.000006 -0.015209 0.037565 0.889001
    14 -1.436573 0.000006 0.000002 -0.065252 -0.042429 0.902686
    15 -3.992355 -0.891188 -1.827906 -0.520906 0.341754 1.515172
    16 -1.405918 -0.000031 -0.000005 0.005103 -0.029084 0.702011
    17 -1.175362 0.000123 -0.000019 0.056843 0.037297 0.894105
    18 -4.526749 -0.690577 -1.120743 -0.365943 0.315850 1.756587
    19 -1.744045 0.000031 -0.000006 -0.016753 -0.024422 1.012301
    20 -1.368771 0.000028 0.000004 0.025976 0.045654 0.412606
    21 -1.874800 -0.935122 0.999173 1.994955 0.493826 0.930947
    22 -1.523449 0.000031 0.000030 0.064935 0.040579 0.552922
    23 -1.599281 0.000006 0.000016 0.037783 -0.020449 0.476130
    24 5.511816 0.000006 -0.000001 0.691190 -0.000007 3.141588
    25 0.196850 -0.000002 0.000002 2.793407 0.000006 -3.141577
    26 0.666813 -11.220474 -3.719515 2.158855 1.115770 2.009031
    27 6.214486 0.000007 0.000017 -0.447883 0.619263 -1.771920
    28 11.944885 -0.000031 -0.000195 -0.279319 -0.346722 -1.698126
    29 10.620169 0.000004 0.000005 -1.826396 -0.570106 0.623500
    30 4.751158 0.694378 -0.830476 0.345560 -0.239818 0.133266
    31 1.688068 -0.000029 0.000002 0.023063 -0.009072 0.243262
    32 1.336147 -0.000051 -0.000009 0.011046 -0.037162 0.082120
    33 4.820515 0.509344 0.224866 0.063343 -0.348878 0.401877
    34 1.826992 0.000065 0.000010 -0.022987 0.033383 0.670929
    35 1.436577 -0.000010 0.000009 -0.051968 -0.062329 0.206572
    36 3.992352 0.891088 1.827995 -0.493174 -0.438040 0.859783
    37 1.405922 0.000027 -0.000006 0.000832 -0.029512 0.847459
    38 1.175365 -0.000129 0.000002 0.059018 0.108324 0.455215
    39 4.526758 0.690462 1.120839 -0.258275 -0.445554 0.757426
    40 1.744034 -0.000033 0.000000 -0.086791 -0.054773 0.770872
    41 1.368763 -0.000032 -0.000018 0.066648 0.144151 0.249548
    42 1.921730 0.938988 -0.999131 1.521509 0.716343 0.700379
    43 1.511734 -0.113317 0.058594 -0.024896 0.037949 0.218545
    44 1.599279 -0.000002 0.000008 0.057717 0.060428 0.018986
    45 5.511805 -0.000002 0.000002 -0.235797 0.000005 0.000007
    46 0.196850 0.000002 -0.000002 -0.348225 0.000015 -0.000002
    47 0.000000 0.999512 0.000000 0.000000 0.000000 -1.570796
    48 -2.395550 -19.421991 -3.191836 -0.044905 -0.089964 1.570791
    49 6.105469 0.544434 -1.899414 0.033162 0.989106 1.355239
    50 1.172841 0.003867 0.361636 0.000000 0.000000 0.000000
    51 -2.909418 -0.116088 -0.378866 0.000000 0.000000 0.000000
    52 1.368917 0.119955 1.216499 0.000000 0.000000 0.000000
    53 1.166946 0.000000 0.000000 0.000000 0.000000 0.000000
    54 -0.699533 0.501534 0.289546 0.000000 0.000000 0.000000
    55 -0.699533 0.001722 0.577368 0.000000 0.000000 0.000000
    56 -0.699533 -0.498777 0.287822 0.000000 0.000000 0.000000
    57 -0.699533 -0.496295 -0.290442 0.000000 0.000000 0.000000
    58 -0.699533 0.002550 -0.578333 0.000000 0.000000 0.000000
    59 -0.699533 0.502241 -0.290088 0.000000 0.000000 0.000000
    60 -0.630154 0.119955 1.216499 0.000000 0.000000 0.000000
    61 -1.045788 0.006302 -0.388174 0.000000 -0.369996 0.000000
    62 5.612255 -6.776120 -5.127874 2.772059 0.160832 -1.837720
  time 5
    0 -0.000001 8.445313 -27.500000 0.000000 0.000000 -0.000001
    1 -0.000002 0.000000 0.000000 1.570747 -1.567142 -1.570747
    2 4.255466 -0.335183 -0.000002 0.000000 0.000000 -0.124848
    3 7.431250 1.496478 0.000002 0.000000 0.000000 0.245450
    4 5.278479 0.165543 0.000001 0.000000 0.000000 0.048511
    5 1.506682 -8.286794 0.211594 1.707048 1.193538 -1.547256
    6 -6.214481 -0.000008 -0.000026 3.816689 -0.358959 1.404369
    7 11.944883 0.000000 0.000000 -1.289125 -0.182690 1.355780
    8 10.620180 0.000000 0.000001 0.581121 -0.893938 2.133907
    9 -4.751106 -0.694494 0.830578 -0.212836 -0.210553 0.642615
    10 -1.688068 0.000049 -0.000031 0.015630 -0.019224 0.756206
    11 -1.336140 0.000057 -0.000011 0.025463 -0.006953 0.820501
    12 -4.820494 -0.509457 -0.224758 -0.260903 0.213693 1.648925
    13 -1.826977 -0.000069 0.000006 -0.015209 0.037565 0.889001
    14 -1.436573 0.000006 0.000002 -0.065252 -0.042429 0.902686
    15 -3.992355 -0.891188 -1.827906 -0.520906 0.341754 1.515172
    16 -1.405918 -0.000031 -0.000005 0.005103 -0.029084 0.702011
    17 -1.175362 0.000123 -0.000019 0.056843 0.037309 0.894105
    18 -4.526749 -0.690577 -1.120743 -0.365943 0.315850 1.756587
    19 -1.744045 0.000031 -0.000006 -0.016753 -0.024422 1.012301
    20 -1.368771 0.000028 0.000004 0.025976 0.045654 0.412606
    21 -1.874800 -0.935122 0.999173 1.994955 0.493826 0.930947
    22 -1.523449 0.000031 0.000030 0.064935 0.040579 0.552922
    23 -1.599281 0.000006 0.000016 0.037783 -0.020449 0.476130
    24 5.511816 0.000006 -0.000001 0.691190 -0.000007 3.141588
    25 0.196850 -0.000002 0.000002 2.793407 0.000006 -3.141577
    26 0.873851 -10.509515 -3.055432 2.228282 1.092760 2.071052
    27 6.214486 0.000007 0.000017 -0.288352 0.524014 -1.680659
    28 11.944885 -0.000031 -0.000195 -0.479718 -0.349047 -1.528737
    29 10.620169 0.000004 0.000005 -2.109952 -0.524752 0.661996
    30 4.751158 0.694378 -0.830476 0.317769 -0.228155 0.093876
    31 1.688068 -0.000029 0.000002 0.023195 -0.008724 0.228078
    32 1.336147 -0.000051 -0.000009 0.011046 -0.037162 0.082120
    33 4.820515 0.509344 0.224866 0.099784 -0.343695 0.402017
    34 1.826992 0.000065 0.000010 -0.027325 0.029931 0.533948
    35 1.436577 -0.000010 0.000009 -0.040103 -0.070551 0.028216
    36 3.992352 0.891088 1.827995 -0.477683 -0.453819 0.834749
    37 1.405922 0.000027 -0.000006 0.003864 -0.029272 0.744594
    38 1.175365 -0.000129 0.000002 0.047561 0.113801 0.351941
    39 4.526758 0.690462 1.120839 -0.196924 -0.438643 0.705309
    40 1.744034 -0.000033 0.000000 -0.077874 -0.066853 0.624460
    41 1.368763 -0.000032 -0.000018 0.058007 0.147818 0.190144
    42 1.921730 0.938988 -0.999131 1.368816 0.676073 0.522998
    43 1.511734 -0.113317 0.058594 -0.024189 0.044828 0.217799
    44 1.599279 -0.000002 0.000008 0.056579 0.061483 0.000424
    45 5.511805 -0.000002 0.000002 -0.235797 0.000005 0.000007
    46 0.196850 0.000002 -0.000002 -0.348225 0.000015 -0.000002
    47 0.000000 0.999512 0.000000 0.000000 0.000000 -1.570796
    48 -2.286172 -19.418085 -3.082458 -0.011155 -0.089919 1.570449
    49 6.105469 0.544434 -1.899414 0.033162 0.989106 1.355239
    50 1.172841 0.003867 0.361636 0.000000 0.000000 0.000000
    51 -2.909418 -0.116088 -0.378866 0.000000 0.000000 0.000000
    52 1.368917 0.119955 1.216499 0.000000 0.000000 0.000000
    53 1.166946 0.000000 0.000000 0.000000 0.000000 0.000000
    54 -0.699533 0.501534 0.289546 0.000000 0.000000 0.000000
    55 -0.699533 0.001722 0.577368 0.000000 0.000000 0.000000
    56 -0.699533 -0.498777 0.287822 0.000000 0.000000 0.000000
    57 -0.699533 -0.496295 -0.290442 0.000000 0.000000 0.000000
    58 -0.699533 0.002550 -0.578333 0.000000 0.000000 0.000000
    59 -0.699533 0.502241 -0.290088 0.000000 0.000000 0.000000
    60 -0.630154 0.119955 1.216499 0.000000 0.000000 0.000000
    61 -1.045788 0.006302 -0.388174 0.000000 -0.183888 0.000000
    62 4.776292 -6.397202 -5.534137 2.927997 0.323520 -1.949439
  time 6
    0 -0.000001 8.445313 -27.500000 0.000000 0.000000 -0.000001
    1 -0.000002 0.000000 0.000000 1.570747 -1.567142 -1.570747
    2 4.255466 -0.335183 -0.000002 0.000000 0.000000 -0.124848
    3 7.431250 1.496478 0.000002 0.000000 0.000000 0.245450
    4 5.278479 0.165543 0.000001 0.000000 0.000000 0.048511
    5 1.998884 -8.157884 0.520197 1.614812 1.198511 -1.633106
    6 -6.214481 -0.000008 -0.000026 3.885150 -0.378796 1.379864
    7 11.944883 0.000000 0.000000 -1.238074 -0.129814 1.332636
    8 10.620180 0.000000 0.000001 0.650453 -0.790996 2.128923
    9 -4.751106 -0.694494 0.830578 -0.191453 -0.199623 0.605565
    10 -1.688068 0.000049 -0.000031 0.017380 -0.017654 0.661461
    11 -1.336140 0.000057 -0.000011 0.026182 -0.003333 0.680747
    12 -4.820494 -0.509457 -0.224758 -0.260903 0.213693 1.648925
    13 -1.826977 -0.000069 0.000006 -0.015209 0.037565 0.889001
    14 -1.436573 0.000006 0.000002 -0.065252 -0.042429 0.902686
    15 -3.992355 -0.891188 -1.827906 -0.520906 0.341754 1.515172
    16 -1.405918 -0.000031 -0.000005 0.005103 -0.029084 0.702011
    17 -1.175362 0.000123 -0.000019 0.056843 0.037297 0.894105
    18 -4.526749 -0.690577 -1.120743 -0.365943 0.315850 1.756587
    19 -1.744045 0.000031 -0.000006 -0.016753 -0.024422 1.012301
    20 -1.368771 0.000028 0.000004 0.025976 0.045654 0.412606
    21 -1.874800 -0.935122 0.999173 1.994955 0.493826 0.930947
    22 -1.523449 0.000031 0.000030 0.064935 0.040579 0.552922
    23 -1.599281 0.000006 0.000016 0.037783 -0.020449 0.476130
    24 5.511816 0.000006 -0.000001 0.691190 -0.000007 3.141588
    25 0.196850 -0.000002 0.000002 2.793407 0.000006 -3.141577
    26 1.088701 -9.775117 -2.364004 2.293671 1.067077 2.128726
    27 6.214486 0.000007 0.000017 -0.087060 0.397382 -1.647048
    28 11.944885 -0.000031 -0.000195 -0.665365 -0.343067 -1.373410
    29 10.620169 0.000004 0.000005 -2.372306 -0.513716 0.617682
    30 4.751158 0.694378 -0.830476 0.286266 -0.218824 0.056438
    31 1.688068 -0.000029 0.000002 0.023267 -0.008545 0.220313
    32 1.336147 -0.000051 -0.000009 0.011046 -0.037162 0.082120
    33 4.820515 0.509344 0.224866 0.135436 -0.341686 0.405926
    34 1.826992 0.000065 0.000010 -0.031160 0.025928 0.397006
    35 1.436577 -0.000010 0.000009 -0.026944 -0.076531 -0.150255
    36 3.992352 0.891088 1.827995 -0.453957 -0.470891 0.808753
    37 1.405922 0.000027 -0.000006 0.006848 -0.028721 0.641775
    38 1.175365 -0.000129 0.000002 0.035600 0.118079 0.248539
    39 4.526758 0.690462 1.120839 -0.140788 -0.428992 0.654665
    40 1.744034 -0.000033 0.000000 -0.067280 -0.077508 0.477791
    41 1.368763 -0.000032 -0.000018 0.049163 0.150970 0.130713
    42 1.921730 0.938988 -0.999131 1.226599 0.610634 0.344180
    43 1.511734 -0.113317 0.058594 -0.023901 0.051695 0.217399
    44 1.599279 -0.000002 0.000008 0.055991 0.062022 -0.009044
    45 5.511805 -0.000002 0.000002 -0.235797 0.000005 0.000007
    46 0.196850 0.000002 -0.000002 -0.348225 0.000015 -0.000002
    47 0.000000 0.999512 0.000000 0.000000 0.000000 -1.570796
    48 -2.118198 -19.406366 -2.918390 0.069502 -0.088918 1.569850
    49 6.105469 0.544434 -1.899414 0.033162 0.989106 1.355239
    50 1.172841 0.003867 0.361636 0.000000 0.000000 0.000000
    51 -2.909418 -0.116088 -0.378866 0.000000 0.000000 0.000000
    52 1.368917 0.119955 1.216499 0.000000 0.000000 0.000000
    53 1.166946 0.000000 0.000000 0.000000 0.000000 0.000000
    54 -0.699533 0.501534 0.289546 0.000000 0.000000 0.000000
    55 -0.699533 0.001722 0.577368 0.000000 0.000000 0.000000
    56 -0.699533 -0.498777 0.287822 0.000000 0.000000 0.000000
    57 -0.699533 -0.496295 -0.290442 0.000000 0.000000 0.000000
    58 -0.699533 0.002550 -0.578333 0.000000 0.000000 0.000000
    59 -0.699533 0.502241 -0.290088 0.000000 0.000000 0.000000
    60 -0.630154 0.119955 1.216499 0.000000 0.000000 0.000000
    61 -1.045788 0.006302 -0.388174 0.000000 -0.050686 0.000000
    62 4.397374 -5.662805 -5.608358 3.013037 0.427941 -2.014290
  time 7
    0 -0.000001 8.445313 -27.500000 0.000000 0.000000 -0.000001
    1 -0.000002 0.000000 0.000000 1.570747 -1.567142 -1.570747
    2 4.255466 -0.335183 -0.000002 0.000000 0.000000 -0.124848
    3 7.431250 1.496478 0.000002 0.000000 0.000000 0.245450
    4 5.278479 0.165543 0.000001 0.000000 0.000000 0.048511
    5 2.475461 -8.028974 0.813175 1.524062 1.200513 -1.717669
    6 -6.214481 -0.000008 -0.000026 3.950479 -0.390802 1.354420
    7 11.944883 0.000000 0.000000 -1.190296 -0.078628 1.305233
    8 10.620180 0.000000 0.000001 0.725737 -0.688844 2.135721
    9 -4.751106 -0.694494 0.830578 -0.172245 -0.188921 0.571847
    10 -1.688068 0.000049 -0.000031 0.018842 -0.016084 0.574787
    11 -1.336140 0.000057 -0.000011 0.026398 0.000010 0.553508
    12 -4.820494 -0.509457 -0.224758 -0.260903 0.213693 1.648925
    13 -1.826977 -0.000069 0.000006 -0.015209 0.037565 0.889001
    14 -1.436573 0.000006 0.000002 -0.065252 -0.042429 0.902686
    15 -3.992355 -0.891188 -1.827906 -0.520906 0.341754 1.515172
    16 -1.405918 -0.000031 -0.000005 0.005103 -0.029084 0.702011
    17 -1.175362 0.000123 -0.000019 0.056843 0.037297 0.894105
    18 -4.526749 -0.690577 -1.120743 -0.365943 0.315850 1.756587
    19 -1.744045 0.000031 -0.000006 -0.016753 -0.024422 1.012301
    20 -1.368771 0.000028 0.000004 0.025976 0.045654 0.412606
    21 -1.874800 -0.935122 0.999173 1.994955 0.493826 0.930947
    22 -1.523449 0.000031 0.000030 0.064935 0.040579 0.552922
    23 -1.599281 0.000006 0.000016 0.037783 -0.020449 0.476130
    24 5.511816 0.000006 -0.000001 0.691190 -0.000007 3.141588
    25 0.196850 -0.000002 0.000002 2.793407 0.000006 -3.141577
    26 1.295738 -9.064158 -1.699922 2.351161 1.040687 2.178723
    27 6.214486 0.000007 0.000017 0.073358 0.280846 -1.683221
    28 11.944885 -0.000031 -0.000195 -0.809851 -0.334606 -1.267847
    29 10.620169 0.000004 0.000005 -2.609392 -0.570019 0.620363
    30 4.751158 0.694378 -0.830476 0.256209 -0.213961 0.028457
    31 1.688068 -0.000029 0.000002 0.023291 -0.008485 0.217430
    32 1.336147 -0.000051 -0.000009 0.011046 -0.037162 0.082120
    33 4.820515 0.509344 0.224866 0.161485 -0.342345 0.415885
    34 1.826992 0.000065 0.000010 -0.033689 0.022537 0.292484
    35 1.436577 -0.000010 0.000009 -0.016362 -0.079467 -0.285867
    36 3.992352 0.891088 1.827995 -0.414861 -0.487691 0.786810
    37 1.405922 0.000027 -0.000006 0.009089 -0.028097 0.562999
    38 1.175365 -0.000129 0.000002 0.026156 0.120512 0.169259
    39 4.526758 0.690462 1.120839 -0.100144 -0.419928 0.616669
    40 1.744034 -0.000033 0.000000 -0.058207 -0.084531 0.365812
    41 1.368763 -0.000032 -0.000018 0.042236 0.153031 0.085020
    42 1.921730 0.938988 -0.999131 1.120874 0.536134 0.194974
    43 1.511734 -0.113317 0.058594 -0.023853 0.056980 0.217271
    44 1.599279 -0.000002 0.000008 0.055788 0.062202 -0.012337
    45 5.511805 -0.000002 0.000002 -0.235797 0.000005 0.000007
    46 0.196850 0.000002 -0.000002 -0.348225 0.000015 -0.000002
    47 0.000000 0.999512 0.000000 0.000000 0.000000 -1.570796
    48 -1.911161 -19.394646 -2.723072 0.166004 -0.085916 1.569251
    49 6.105469 0.544434 -1.899414 0.033162 0.989106 1.355239
    50 1.172841 0.003867 0.361636 0.000000 0.000000 0.000000
    51 -2.909418 -0.116088 -0.378866 0.000000 0.000000 0.000000
    52 1.368917 0.119955 1.216499 0.000000 0.000000 0.000000
    53 1.166946 0.000000 0.000000 0.000000 0.000000 0.000000
    54 -0.699533 0.501534 0.289546 0.000000 0.000000 0.000000
    55 -0.699533 0.001722 0.577368 0.000000 0.000000 0.000000
    56 -0.699533 -0.498777 0.287822 0.000000 0.000000 0.000000
    57 -0.699533 -0.496295 -0.290442 0.000000 0.000000 0.000000
    58 -0.699533 0.002550 -0.578333 0.000000 0.000000 0.000000
    59 -0.699533 0.502241 -0.290088 0.000000 0.000000 0.000000
    60 -0.630154 0.119955 1.216499 0.000000 0.000000 0.000000
    61 -1.045788 0.006302 -0.388174 0.000000 0.000000 0.000000
    62 4.655194 -4.514332 -5.299755 3.070167 0.500140 -1.998125
  time 8
    0 -0.000001 8.445313 -27.500000 0.000000 0.000000 -0.000001
    1 -0.000002 0.000000 0.000000 1.570747 -1.567142 -1.570747
    2 4.255466 -0.335183 -0.000002 0.000000 0.000000 -0.124848
    3 7.431250 1.496478 0.000002 0.000000 0.000000 0.245450
    4 5.278479 0.165543 0.000001 0.000000 0.000000 0.048511
    5 2.905162 -7.915689 1.078808 1.442407 1.199937 -1.793788
    6 -6.214481 -0.000008 -0.000026 4.007505 -0.396301 1.327963
    7 11.944883 0.000000 0.000000 -1.149553 -0.033122 1.274924
    8 10.620180 0.000000 0.000001 0.785331 -0.597948 2.142827
    9 -4.751106 -0.694494 0.830578 -0.156730 -0.179656 0.544318
    10 -1.688068 0.000049 -0.000031 0.019932 -0.014718 0.503879
    11 -1.336140 0.000057 -0.000011 0.026254 0.002731 0.450294
    12 -4.820494 -0.509457 -0.224758 -0.260903 0.213693 1.648925
    13 -1.826977 -0.000069 0.000006 -0.015209 0.037565 0.889001
    14 -1.436573 0.000006 0.000002 -0.065252 -0.042429 0.902686
    15 -3.992355 -0.891188 -1.827906 -0.520906 0.341754 1.515172
    16 -1.405918 -0.000031 -0.000005 0.005103 -0.029084 0.702011
    17 -1.175362 0.000123 -0.000019 0.056843 0.037309 0.894105
    18 -4.526749 -0.690577 -1.120743 -0.365943 0.315850 1.756587
    19 -1.744045 0.000031 -0.000006 -0.016753 -0.024422 1.012301
    20 -1.368771 0.000028 0.000004 0.025976 0.045654 0.412606
    21 -1.874800 -0.935122 0.999173 1.994955 0.493826 0.930947
    22 -1.523449 0.000031 0.000030 0.064935 0.040579 0.552922
    23 -1.599281 0.000006 0.000016 0.037783 -0.020449 0.476130
    24 5.511816 0.000006 -0.000001 0.691190 -0.000007 3.141588
    25 0.196850 -0.000002 0.000002 2.793407 0.000006 -3.141577
    26 1.483244 -8.427420 -1.106154 2.398370 1.015903 2.219144
    27 6.214486 0.000007 0.000017 0.146943 0.189657 -1.752703
    28 11.944885 -0.000031 -0.000195 -0.908806 -0.326133 -1.190259
    29 10.620169 0.000004 0.000005 -2.791607 -0.596159 0.695029
    30 4.751158 0.694378 -0.830476 0.232682 -0.215017 0.017569
    31 1.688068 -0.000029 0.000002 0.023291 -0.008473 0.217046
    32 1.336147 -0.000051 -0.000009 0.011046 -0.037162 0.082120
    33 4.820515 0.509344 0.224866 0.169006 -0.344962 0.434220
    34 1.826992 0.000065 0.000010 -0.034600 0.021122 0.250997
    35 1.436577 -0.000010 0.000009 -0.012083 -0.080234 -0.339431
    36 3.992352 0.891088 1.827995 -0.353555 -0.502874 0.773786
    37 1.405922 0.000027 -0.000006 0.009964 -0.027798 0.531670
    38 1.175365 -0.000129 0.000002 0.022345 0.121267 0.137712
    39 4.526758 0.690462 1.120839 -0.084512 -0.415931 0.601684
    40 1.744034 -0.000033 0.000000 -0.054396 -0.087023 0.321414
    41 1.368763 -0.000032 -0.000018 0.039455 0.153774 0.066749
    42 1.921730 0.938988 -0.999131 1.060703 0.476538 0.090272
    43 1.511734 -0.113317 0.058594 -0.023877 0.059090 0.217253
    44 1.599279 -0.000002 0.000008 0.055788 0.062214 -0.012449
    45 5.511805 -0.000002 0.000002 -0.235797 0.000005 0.000007
    46 0.196850 0.000002 -0.000002 -0.348225 0.000015 -0.000002
    47 0.000000 0.999512 0.000000 0.000000 0.000000 -1.570796
    48 -1.676779 -19.382927 -2.519941 0.246603 -0.079913 1.569507
    49 6.105469 0.544434 -1.899414 0.033162 0.989106 1.355239
    50 1.172841 0.003867 0.361636 0.000000 0.000000 0.000000
    51 -2.909418 -0.116088 -0.378866 0.000000 0.000000 0.000000
    52 1.368917 0.119955 1.216499 0.000000 0.000000 0.000000
    53 1.166946 0.000000 0.000000 0.000000 0.000000 0.000000
    54 -0.699533 0.501534 0.289546 0.000000 0.000000 0.000000
    55 -0.699533 0.001722 0.577368 0.000000 0.000000 0.000000
    56 -0.699533 -0.498777 0.287822 0.000000 0.000000 0.000000
    57 -0.699533 -0.496295 -0.290442 0.000000 0.000000 0.000000
    58 -0.699533 0.002550 -0.578333 0.000000 0.000000 0.000000
    59 -0.699533 0.502241 -0.290088 0.000000 0.000000 0.000000
    60 -0.630154 0.119955 1.216499 0.000000 0.000000 0.000000
    61 -1.045788 0.006302 -0.388174 0.000000 -0.004181 0.000000
    62 5.221618 -3.233043 -4.623953 3.134884 0.553016 -1.946761
  time 9
    0 -0.000001 8.445313 -27.500000 0.000000 0.000000 -0.000001
    1 -0.000002 0.000000 0.000000 1.570747 -1.567142 -1.570747
    2 4.255466 -0.335183 -0.000002 0.000000 0.000000 -0.124848
    3 7.431250 1.496478 0.000002 0.000000 0.000000 0.245450
    4 5.278479 0.165543 0.000001 0.000000 0.000000 0.048511
    5 3.252829 -7.825843 1.293658 1.376914 1.197840 -1.854805
    6 -6.214481 -0.000008 -0.000026 4.051200 -0.397971 1.300566
    7 11.944883 0.000000 0.000000 -1.118683 0.003011 1.243614
    8 10.620180 0.000000 0.000001 0.804345 -0.525678 2.139690
    9 -4.751106 -0.694494 0.830578 -0.146408 -0.173137 0.525764
    10 -1.688068 0.000049 -0.000031 0.020616 -0.013747 0.456130
    11 -1.336140 0.000057 -0.000011 0.026002 0.004540 0.381324
    12 -4.820494 -0.509457 -0.224758 -0.260903 0.213693 1.648925
    13 -1.826977 -0.000069 0.000006 -0.015209 0.037565 0.889001
    14 -1.436573 0.000006 0.000002 -0.065252 -0.042429 0.902686
    15 -3.992355 -0.891188 -1.827906 -0.520906 0.341754 1.515172
    16 -1.405918 -0.000031 -0.000005 0.005103 -0.029084 0.702011
    17 -1.175362 0.000123 -0.000019 0.056843 0.037297 0.894105
    18 -4.526749 -0.690577 -1.120743 -0.365943 0.315850 1.756587
    19 -1.744045 0.000031 -0.000006 -0.016753 -0.024422 1.012301
    20 -1.368771 0.000028 0.000004 0.025976 0.045654 0.412606
    21 -1.874800 -0.935122 0.999173 1.994955 0.493826 0.930947
    22 -1.523449 0.000031 0.000030 0.064935 0.040579 0.552922
    23 -1.599281 0.000006 0.000016 0.037783 -0.020449 0.476130
    24 5.511816 0.000006 -0.000001 0.691190 -0.000007 3.141588
    25 0.196850 -0.000002 0.000002 2.793407 0.000006 -3.141577
    26 1.635593 -7.911779 -0.625670 2.433776 0.995217 2.249054
    27 6.214486 0.000007 0.000017 0.168178 0.122976 -1.804175
    28 11.944885 -0.000031 -0.000195 -0.953063 -0.319098 -1.136106
    29 10.620169 0.000004 0.000005 -2.888681 -0.578588 0.779762
    30 4.751158 0.694378 -0.830476 0.193545 -0.292324 0.247184
    31 1.688068 -0.000029 0.000002 0.022200 -0.011013 0.328561
    32 1.336147 -0.000051 -0.000009 0.011046 -0.037162 0.082120
    33 4.820515 0.509344 0.224866 0.112896 -0.366081 0.626603
    34 1.826992 0.000065 0.000010 -0.031160 0.025928 0.397006
    35 1.436577 -0.000010 0.000009 -0.026944 -0.076531 -0.150293
    36 3.992352 0.891088 1.827995 -0.289245 -0.452355 0.866929
    37 1.405922 0.000027 -0.000006 0.006848 -0.028721 0.641775
    38 1.175365 -0.000129 0.000002 0.035600 0.118079 0.248539
    39 4.526758 0.690462 1.120839 -0.140240 -0.406119 0.786990
    40 1.744034 -0.000033 0.000000 -0.067280 -0.077508 0.477791
    41 1.368763 -0.000032 -0.000018 0.049163 0.150970 0.130713
    42 1.921730 0.938988 -0.999131 1.061871 0.450271 0.032293
    43 1.511734 -0.113317 0.058594 -0.024021 0.052306 0.242349
    44 1.599279 -0.000002 0.000008 0.067329 0.049486 0.193561
    45 5.511805 -0.000002 0.000002 -0.235797 0.000005 0.000007
    46 0.196850 0.000002 -0.000002 -0.348225 0.000015 -0.000002
    47 0.000000 0.999512 0.000000 0.000000 0.000000 -1.570796
    48 -1.434584 -19.379021 -2.336341 0.280239 -0.069998 1.570791
    49 6.105469 0.544434 -1.899414 0.033162 0.989106 1.355239
    50 1.172841 0.003867 0.361636 0.000000 0.000000 0.000000
    51 -2.909418 -0.116088 -0.378866 0.000000 0.000000 0.000000
    52 1.368917 0.119955 1.216499 0.000000 0.000000 0.000000
    53 1.166946 0.000000 0.000000 0.000000 0.000000 0.000000
    54 -0.699533 0.501534 0.289546 0.000000 0.000000 0.000000
    55 -0.699533 0.001722 0.577368 0.000000 0.000000 0.000000
    56 -0.699533 -0.498777 0.287822 0.000000 0.000000 0.000000
    57 -0.699533 -0.496295 -0.290442 0.000000 0.000000 0.000000
    58 -0.699533 0.002550 -0.578333 0.000000 0.000000 0.000000
    59 -0.699533 0.502241 -0.290088 0.000000 0.000000 0.000000
    60 -0.630154 0.119955 1.216499 0.000000 0.000000 0.000000
    61 -1.045788 0.006302 -0.388174 0.000000 -0.016088 0.000000
    62 5.788041 -2.193949 -3.944244 3.189486 0.583543 -1.891571
  time 10
    0 -0.000001 8.445313 -27.500000 0.000000 0.000000 -0.000001
    1 -0.000002 0.000000 0.000000 1.570747 -1.567142 -1.570747
    2 4.255466 -0.335183 -0.000002 0.000000 0.000000 -0.124848
    3 7.431250 1.496478 0.000002 0.000000 0.000000 0.245450
    4 5.278479 0.165543 0.000001 0.000000 0.000000 0.048511
    5 3.483305 -7.763341 1.438194 1.333628 1.195623 -1.895111
    6 -6.214481 -0.000008 -0.000026 4.077009 -0.399325 1.273098
    7 11.944883 0.000000 0.000000 -1.099648 0.026597 1.213556
    8 10.620180 0.000000 0.000001 0.765003 -0.470916 2.123417
    9 -4.751106 -0.694494 0.830578 -0.142630 -0.170680 0.518958
    10 -1.688068 0.000049 -0.000031 0.020855 -0.013376 0.438629
    11 -1.336140 0.000057 -0.000011 0.025882 0.005188 0.356154
    12 -4.820494 -0.509457 -0.224758 -0.260903 0.213693 1.648925
    13 -1.826977 -0.000069 0.000006 -0.015209 0.037565 0.889001
    14 -1.436573 0.000006 0.000002 -0.065252 -0.042429 0.902686
    15 -3.992355 -0.891188 -1.827906 -0.520906 0.341754 1.515172
    16 -1.405918 -0.000031 -0.000005 0.005103 -0.029084 0.702011
    17 -1.175362 0.000123 -0.000019 0.056843 0.037297 0.894105
    18 -4.526749 -0.690577 -1.120743 -0.365943 0.315850 1.756587
    19 -1.744045 0.000031 -0.000006 -0.016753 -0.024422 1.012301
    20 -1.368771 0.000028 0.000004 0.025976 0.045654 0.412606
    21 -1.874800 -0.935122 0.999173 1.994955 0.493826 0.930947
    22 -1.523449 0.000031 0.000030 0.064935 0.040579 0.552922
    23 -1.599281 0.000006 0.000016 0.037783 -0.020449 0.476130
    24 5.511816 0.000006 -0.000001 0.691190 -0.000007 3.141588
    25 0.196850 -0.000002 0.000002 2.793407 0.000006 -3.141577
    26 1.737158 -7.568019 -0.301442 2.456203 0.981076 2.267783
    27 6.214486 0.000007 0.000017 0.172792 0.086874 -1.807114
    28 11.944885 -0.000031 -0.000195 -0.962412 -0.314807 -1.106088
    29 10.620169 0.000004 0.000005 -2.862812 -0.543793 0.792813
    30 4.751158 0.694378 -0.830476 0.091744 -0.406932 0.700559
    31 1.688068 -0.000029 0.000002 0.019456 -0.015352 0.536409
    32 1.336147 -0.000051 -0.000009 0.011046 -0.037162 0.082120
    33 4.820515 0.509344 0.224866 0.006882 -0.376954 0.963576
    34 1.826992 0.000065 0.000010 -0.022987 0.033383 0.670929
    35 1.436577 -0.000010 0.000009 -0.051968 -0.062329 0.206572
    36 3.992352 0.891088 1.827995 -0.233586 -0.349733 1.045611
    37 1.405922 0.000027 -0.000006 0.000832 -0.029512 0.847459
    38 1.175365 -0.000129 0.000002 0.059018 0.108324 0.455215
    39 4.526758 0.690462 1.120839 -0.234499 -0.363543 1.127988
    40 1.744034 -0.000033 0.000000 -0.086791 -0.054773 0.770872
    41 1.368763 -0.000032 -0.000018 0.066648 0.144151 0.249548
    42 1.921730 0.938988 -0.999131 1.100803 0.448974 0.007046
    43 1.511734 -0.113317 0.058594 -0.024716 0.039711 0.288937
    44 1.599279 -0.000002 0.000008 0.080979 0.020507 0.578938
    45 5.511805 -0.000002 0.000002 -0.235797 0.000005 0.000007
    46 0.196850 0.000002 -0.000002 -0.348225 0.000015 -0.000002
    47 0.000000 0.999512 0.000000 0.000000 0.000000 -1.570796
    48 -1.196295 -19.379021 -2.187899 0.251294 -0.050304 1.572674
    49 6.105469 0.544434 -1.899414 0.033162 0.989106 1.355239
    50 1.172841 0.003867 0.361636 0.000000 0.000000 0.000000
    51 -2.909418 -0.116088 -0.378866 0.000000 0.000000 0.000000
    52 1.368917 0.119955 1.216499 0.000000 0.000000 0.000000
    53 1.166946 0.000000 0.000000 0.000000 0.000000 0.000000
    54 -0.699533 0.501534 0.289546 0.000000 0.000000 0.000000
    55 -0.699533 0.001722 0.577368 0.000000 0.000000 0.000000
    56 -0.699533 -0.498777 0.287822 0.000000 0.000000 0.000000
    57 -0.699533 -0.496295 -0.290442 0.000000 0.000000 0.000000
    58 -0.699533 0.002550 -0.578333 0.000000 0.000000 0.000000
    59 -0.699533 0.502241 -0.290088 0.000000 0.000000 0.000000
    60 -0.630154 0.119955 1.216499 0.000000 0.000000 0.000000
    61 -1.045788 0.006302 -0.388174 0.000000 -0.034598 0.000000
    62 6.045862 -1.764248 -3.635641 3.212432 0.593053 -1.865937
  time 11
    0 -0.000001 8.445313 -27.500000 0.000000 0.000000 -0.000001
    1 -0.000002 0.000000 0.000000 1.570747 -1.567142 -1.570747
    2 4.255466 -0.335183 -0.000002 0.000000 0.000000 -0.124848
    3 7.431250 1.496478 0.000002 0.000000 0.000000 0.245450
    4 5.278479 0.165543 0.000001 0.000000 0.000000 0.048511
    5 3.565338 -7.739903 1.488977 1.317967 1.194664 -1.909671
    6 -6.214481 -0.000008 -0.000026 4.083272 -0.399065 1.248231
    7 11.944883 0.000000 0.000000 -1.093539 0.034830 1.188407
    8 10.620180 0.000000 0.000001 0.688559 -0.437151 2.101238
    9 -4.751106 -0.694494 0.830578 -0.142630 -0.170680 0.518958
    10 -1.688068 0.000049 -0.000031 0.020855 -0.013376 0.438629
    11 -1.336140 0.000057 -0.000011 0.025882 0.005188 0.356154
    12 -4.820494 -0.509457 -0.224758 -0.260903 0.213693 1.648925
    13 -1.826977 -0.000069 0.000006 -0.015209 0.037565 0.889001
    14 -1.436573 0.000006 0.000002 -0.065252 -0.042429 0.902686
    15 -3.992355 -0.891188 -1.827906 -0.520906 0.341754 1.515172
    16 -1.405918 -0.000031 -0.000005 0.005103 -0.029084 0.702011
    17 -1.175362 0.000123 -0.000019 0.056843 0.037297 0.894105
    18 -4.526749 -0.690577 -1.120743 -0.365943 0.315850 1.756587
    19 -1.744045 0.000031 -0.000006 -0.016753 -0.024422 1.012301
    20 -1.368771 0.000028 0.000004 0.025976 0.045654 0.412606
    21 -1.874800 -0.935122 0.999173 1.994955 0.493826 0.930947
    22 -1.523449 0.000031 0.000030 0.064935 0.040579 0.552922
    23 -1.599281 0.000006 0.000016 0.037783 -0.020449 0.476130
    24 5.511816 0.000006 -0.000001 0.691190 -0.000007 3.141588
    25 0.196850 -0.000002 0.000002 2.793407 0.000006 -3.141577
    26 1.772316 -7.443015 -0.184250 2.464146 0.975874 2.274369
    27 6.214486 0.000007 0.000017 0.167941 0.075169 -1.779230
    28 11.944885 -0.000031 -0.000195 -0.964537 -0.313789 -1.099206
    29 10.620169 0.000004 0.000005 -2.758404 -0.519126 0.751484
    30 4.751158 0.694378 -0.830476 0.019956 -0.446235 0.946920
    31 1.688068 -0.000029 0.000002 0.017634 -0.017413 0.647386
    32 1.336147 -0.000051 -0.000009 0.011046 -0.037162 0.082120
    33 4.820515 0.509344 0.224866 -0.048062 -0.369390 1.137810
    34 1.826992 0.000065 0.000010 -0.017881 0.036367 0.817016
    35 1.436577 -0.000010 0.000009 -0.062730 -0.051483 0.395213
    36 3.992352 0.891088 1.827995 -0.203959 -0.296541 1.140730
    37 1.405922 0.000027 -0.000006 -0.002416 -0.029428 0.957563
    38 1.175365 -0.000129 0.000002 0.070583 0.101181 0.565682
    39 4.526758 0.690462 1.120839 -0.275958 -0.329923 1.303490
    40 1.744034 -0.000033 0.000000 -0.094221 -0.040619 0.926565
    41 1.368763 -0.000032 -0.000018 0.075673 0.139645 0.313283
    42 1.921730 0.938988 -0.999131 1.125015 0.453001 0.001476
    43 1.511734 -0.113317 0.058594 -0.025339 0.032951 0.314015
    44 1.599279 -0.000002 0.000008 0.083436 0.003885 0.780084
    45 5.511805 -0.000002 0.000002 -0.235797 0.000005 0.000007
    46 0.196850 0.000002 -0.000002 -0.348225 0.000015 -0.000002
    47 0.000000 0.999512 0.000000 0.000000 0.000000 -1.570796
    48 -0.973632 -19.379021 -2.078521 0.183165 -0.022923 1.573273
    49 6.105469 0.544434 -1.899414 0.033162 0.989106 1.355239
    50 1.172841 0.003867 0.361636 0.000000 0.000000 0.000000
    51 -2.909418 -0.116088 -0.378866 0.000000 0.000000 0.000000
    52 1.368917 0.119955 1.216499 0.000000 0.000000 0.000000
    53 1.166946 0.000000 0.000000 0.000000 0.000000 0.000000
    54 -0.699533 0.501534 0.289546 0.000000 0.000000 0.000000
    55 -0.699533 0.001722 0.577368 0.000000 0.000000 0.000000
    56 -0.699533 -0.498777 0.287822 0.000000 0.000000 0.000000
    57 -0.699533 -0.496295 -0.290442 0.000000 0.000000 0.000000
    58 -0.699533 0.002550 -0.578333 0.000000 0.000000 0.000000
    59 -0.699533 0.502241 -0.290088 0.000000 0.000000 0.000000
    60 -0.630154 0.119955 1.216499 0.000000 0.000000 0.000000
    61 -1.045788 0.006302 -0.388174 0.000000 -0.058643 0.000000
    62 6.045862 -1.764248 -3.635641 3.212432 0.593053 -1.865937
  time 12
    0 -0.000001 8.445313 -27.500000 0.000000 0.000000 -0.000001
    1 -0.000002 0.000000 0.000000 1.570747 -1.567142 -1.570747
    2 4.255466 -0.335183 -0.000002 0.000000 0.000000 -0.124848
    3 7.431250 1.496478 0.000002 0.000000 0.000000 0.245450
    4 5.278479 0.165543 0.000001 0.000000 0.000000 0.048511
    5 3.565338 -7.739903 1.488977 1.317967 1.194664 -1.909671
    6 -6.214481 -0.000008 -0.000026 4.079713 -0.396359 1.225678
    7 11.944883 0.000000 0.000000 -1.094248 0.034531 1.166966
    8 10.620180 0.000000 0.000001 0.605005 -0.422671 2.076875
    9 -4.751106 -0.694494 0.830578 -0.142630 -0.170680 0.518958
    10 -1.688068 0.000049 -0.000031 0.020855 -0.013376 0.438629
    11 -1.336140 0.000057 -0.000011 0.025882 0.005188 0.356154
    12 -4.820494 -0.509457 -0.224758 -0.260903 0.213693 1.648925
    13 -1.826977 -0.000069 0.000006 -0.015209 0.037565 0.889001
    14 -1.436573 0.000006 0.000002 -0.065252 -0.042429 0.902686
    15 -3.992355 -0.891188 -1.827906 -0.520906 0.341754 1.515172
    16 -1.405918 -0.000031 -0.000005 0.005103 -0.029084 0.702011
    17 -1.175362 0.000123 -0.000019 0.056843 0.037297 0.894105
    18 -4.526749 -0.690577 -1.120743 -0.365943 0.315850 1.756587
    19 -1.744045 0.000031 -0.000006 -0.016753 -0.024422 1.012301
    20 -1.368771 0.000028 0.000004 0.025976 0.045654 0.412606
    21 -1.874800 -0.935122 0.999173 1.994955 0.493826 0.930947
    22 -1.523449 0.000031 0.000030 0.064935 0.040579 0.552922
    23 -1.599281 0.000006 0.000016 0.037783 -0.020449 0.476130
    24 5.511816 0.000006 -0.000001 0.691190 -0.000007 3.141588
    25 0.196850 -0.000002 0.000002 2.793407 0.000006 -3.141577
    26 1.772316 -7.443015 -0.184250 2.464146 0.975874 2.274369
    27 6.214486 0.000007 0.000017 0.152503 0.070377 -1.752477
    28 11.944885 -0.000031 -0.000195 -0.962169 -0.314939 -1.106985
    29 10.620169 0.000004 0.000005 -2.648728 -0.501728 0.726545
    30 4.751158 0.694378 -0.830476 0.019956 -0.446235 0.946920
    31 1.688068 -0.000029 0.000002 0.017634 -0.017413 0.647386
    32 1.336147 -0.000051 -0.000009 0.011046 -0.037162 0.082120
    33 4.820515 0.509344 0.224866 -0.048062 -0.369390 1.137810
    34 1.826992 0.000065 0.000010 -0.017881 0.036367 0.817016
    35 1.436577 -0.000010 0.000009 -0.062730 -0.051483 0.395213
    36 3.992352 0.891088 1.827995 -0.203959 -0.296541 1.140730
    37 1.405922 0.000027 -0.000006 -0.002416 -0.029428 0.957563
    38 1.175365 -0.000129 0.000002 0.070583 0.101181 0.565682
    39 4.526758 0.690462 1.120839 -0.275958 -0.329923 1.303490
    40 1.744034 -0.000033 0.000000 -0.094221 -0.040619 0.926565
    41 1.368763 -0.000032 -0.000018 0.075673 0.139645 0.313283
    42 1.921730 0.938988 -0.999131 1.125015 0.453001 0.001476
    43 1.511734 -0.113317 0.058594 -0.025339 0.032951 0.314015
    44 1.599279 -0.000002 0.000008 0.083436 0.003885 0.780084
    45 5.511805 -0.000002 0.000002 -0.235797 0.000005 0.000007
    46 0.196850 0.000002 -0.000002 -0.348225 0.000015 -0.000002
    47 0.000000 0.999512 0.000000 0.000000 0.000000 -1.570796
    48 -0.762688 -19.379021 -2.016019 0.103652 0.001364 1.571903
    49 6.105469 0.544434 -1.899414 0.033162 0.989106 1.355239
    50 1.172841 0.003867 0.361636 0.000000 0.000000 0.000000
    51 -2.909418 -0.116088 -0.378866 0.000000 0.000000 0.000000
    52 1.368917 0.119955 1.216499 0.000000 0.000000 0.000000
    53 1.166946 0.000000 0.000000 0.000000 0.000000 0.000000
    54 -0.699533 0.501534 0.289546 0.000000 0.000000 0.000000
    55 -0.699533 0.001722 0.577368 0.000000 0.000000 0.000000
    56 -0.699533 -0.498777 0.287822 0.000000 0.000000 0.000000
    57 -0.699533 -0.496295 -0.290442 0.000000 0.000000 0.000000
    58 -0.699533 0.002550 -0.578333 0.000000 0.000000 0.000000
    59 -0.699533 0.502241 -0.290088 0.000000 0.000000 0.000000
    60 -0.630154 0.119955 1.216499 0.000000 0.000000 0.000000
    61 -1.045788 0.006302 -0.388174 0.000000 -0.087129 0.000000
    62 6.045862 -1.764248 -3.635641 3.212432 0.593053 -1.865937
  time 13
    0 -0.000001 8.445313 -27.500000 0.000000 0.000000 -0.000001
    1 -0.000002 0.000000 0.000000 1.570747 -1.567142 -1.570747
    2 4.255466 -0.335183 -0.000002 0.000000 0.000000 -0.124848
    3 7.431250 1.496478 0.000002 0.000000 0.000000 0.245450
    4 5.278479 0.165543 0.000001 0.000000 0.000000 0.048511
    5 3.565338 -7.739903 1.488977 1.317967 1.194664 -1.909671
    6 -6.214481 -0.000008 -0.000026 4.077721 -0.392011 1.205872
    7 11.944883 0.000000 0.000000 -1.094903 0.034255 1.149031
    8 10.620180 0.000000 0.000001 0.543170 -0.421354 2.055127
    9 -4.751106 -0.694494 0.830578 -0.142630 -0.170680 0.518958
    10 -1.688068 0.000049 -0.000031 0.020855 -0.013376 0.438629
    11 -1.336140 0.000057 -0.000011 0.025882 0.005188 0.356154
    12 -4.820494 -0.509457 -0.224758 -0.260903 0.213693 1.648925
    13 -1.826977 -0.000069 0.000006 -0.015209 0.037565 0.889001
    14 -1.436573 0.000006 0.000002 -0.065252 -0.042429 0.902686
    15 -3.992355 -0.891188 -1.827906 -0.520906 0.341754 1.515172
    16 -1.405918 -0.000031 -0.000005 0.005103 -0.029084 0.702011
    17 -1.175362 0.000123 -0.000019 0.056843 0.037309 0.894105
    18 -4.526749 -0.690577 -1.120743 -0.365943 0.315850 1.756587
    19 -1.744045 0.000031 -0.000006 -0.016753 -0.024422 1.012301
    20 -1.368771 0.000028 0.000004 0.025976 0.045654 0.412606
    21 -1.874800 -0.935122 0.999173 1.994955 0.493826 0.930947
    22 -1.523449 0.000031 0.000030 0.064935 0.040579 0.552922
    23 -1.599281 0.000006 0.000016 0.037783 -0.020449 0.476130
    24 5.511816 0.000006 -0.000001 0.691190 -0.000007 3.141588
    25 0.196850 -0.000002 0.000002 2.793407 0.000006 -3.141577
    26 1.772316 -7.443015 -0.184250 2.464146 0.975874 2.274369
    27 6.214486 0.000007 0.000017 0.136414 0.066098 -1.731000
    28 11.944885 -0.000031 -0.000195 -0.959377 -0.316234 -1.115911
    29 10.620169 0.000004 0.000005 -2.566789 -0.484634 0.720778
    30 4.751158 0.694378 -0.830476 0.019956 -0.446235 0.946920
    31 1.688068 -0.000029 0.000002 0.017634 -0.017413 0.647386
    32 1.336147 -0.000051 -0.000009 0.011046 -0.037162 0.082120
    33 4.820515 0.509344 0.224866 -0.048062 -0.369390 1.137810
    34 1.826992 0.000065 0.000010 -0.017881 0.036367 0.817016
    35 1.436577 -0.000010 0.000009 -0.062730 -0.051483 0.395213
    36 3.992352 0.891088 1.827995 -0.203959 -0.296541 1.140730
    37 1.405922 0.000027 -0.000006 -0.002416 -0.029428 0.957563
    38 1.175365 -0.000129 0.000002 0.070583 0.101181 0.565682
    39 4.526758 0.690462 1.120839 -0.275958 -0.329923 1.303490
    40 1.744034 -0.000033 0.000000 -0.094221 -0.040619 0.926565
    41 1.368763 -0.000032 -0.000018 0.075673 0.139645 0.313283
    42 1.921730 0.938988 -0.999131 1.125015 0.453001 0.001476
    43 1.511734 -0.113317 0.058594 -0.025339 0.032951 0.314015
    44 1.599279 -0.000002 0.000008 0.083436 0.003885 0.780084
    45 5.511805 -0.000002 0.000002 -0.235797 0.000005 0.000007
    46 0.196850 0.000002 -0.000002 -0.348225 0.000015 -0.000002
    47 0.000000 0.999512 0.000000 0.000000 0.000000 -1.570796
    48 -0.575182 -19.379021 -1.992581 0.040557 0.011780 1.570449
    49 6.105469 0.544434 -1.899414 0.033162 0.989106 1.355239
    50 1.172841 0.003867 0.361636 0.000000 0.000000 0.000000
    51 -2.909418 -0.116088 -0.378866 0.000000 0.000000 0.000000
    52 1.368917 0.119955 1.216499 0.000000 0.000000 0.000000
    53 1.166946 0.000000 0.000000 0.000000 0.000000 0.000000
    54 -0.699533 0.501534 0.289546 0.000000 0.000000 0.000000
    55 -0.699533 0.001722 0.577368 0.000000 0.000000 0.000000
    56 -0.699533 -0.498777 0.287822 0.000000 0.000000 0.000000
    57 -0.699533 -0.496295 -0.290442 0.000000 0.000000 0.000000
    58 -0.699533 0.002550 -0.578333 0.000000 0.000000 0.000000
    59 -0.699533 0.502241 -0.290088 0.000000 0.000000 0.000000
    60 -0.630154 0.119955 1.216499 0.000000 0.000000 0.000000
    61 -1.045788 0.006302 -0.388174 0.000000 -0.118988 0.000000
    62 6.045862 -1.764248 -3.635641 3.212432 0.593053 -1.865937
  time 14
    0 -0.000001 8.445313 -27.500000 0.000000 0.000000 -0.000001
    1 -0.000002 0.000000 0.000000 1.570747 -1.567142 -1.570747
    2 4.255466 -0.335183 -0.000002 0.000000 0.000000 -0.124848
    3 7.431250 1.496478 0.000002 0.000000 0.000000 0.245450
    4 5.278479 0.165543 0.000001 0.000000 0.000000 0.048511
    5 3.565338 -7.739903 1.488977 1.317967 1.194664 -1.909671
    6 -6.214481 -0.000008 -0.000026 4.076962 -0.387405 1.191415
    7 11.944883 0.000000 0.000000 -1.095284 0.034075 1.137008
    8 10.620180 0.000000 0.000001 0.511943 -0.426883 2.040208
    9 -4.751106 -0.694494 0.830578 -0.142630 -0.170680 0.518958
    10 -1.688068 0.000049 -0.000031 0.020855 -0.013376 0.438629
    11 -1.336140 0.000057 -0.000011 0.025882 0.005188 0.356154
    12 -4.820494 -0.509457 -0.224758 -0.260903 0.213693 1.648925
    13 -1.826977 -0.000069 0.000006 -0.015209 0.037565 0.889001
    14 -1.436573 0.000006 0.000002 -0.065252 -0.042429 0.902686
    15 -3.992355 -0.891188 -1.827906 -0.520906 0.341754 1.515172
    16 -1.405918 -0.000031 -0.000005 0.005103 -0.029084 0.702011
    17 -1.175362 0.000123 -0.000019 0.056843 0.037297 0.894105
    18 -4.526749 -0.690577 -1.120743 -0.365943 0.315850 1.756587
    19 -1.744045 0.000031 -0.000006 -0.016753 -0.024422 1.012301
    20 -1.368771 0.000028 0.000004 0.025976 0.045654 0.412606
    21 -1.874800 -0.935122 0.999173 1.994955 0.493826 0.930947
    22 -1.523449 0.000031 0.000030 0.064935 0.040579 0.552922
    23 -1.599281 0.000006 0.000016 0.037783 -0.020449 0.476130
    24 5.511816 0.000006 -0.000001 0.691190 -0.000007 3.141588
    25 0.196850 -0.000002 0.000002 2.793407 0.000006 -3.141577
    26 1.772316 -7.443015 -0.184250 2.464146 0.975874 2.274369
    27 6.214486 0.000007 0.000017 0.123874 0.063318 -1.716078
    28 11.944885 -0.000031 -0.000195 -0.956523 -0.317564 -1.125136
    29 10.620169 0.000004 0.000005 -2.523518 -0.472863 0.727809
    30 4.751158 0.694378 -0.830476 0.019956 -0.446235 0.946920
    31 1.688068 -0.000029 0.000002 0.017634 -0.017413 0.647386
    32 1.336147 -0.000051 -0.000009 0.011046 -0.037162 0.082120
    33 4.820515 0.509344 0.224866 -0.048062 -0.369390 1.137810
    34 1.826992 0.000065 0.000010 -0.017881 0.036367 0.817016
    35 1.436577 -0.000010 0.000009 -0.062730 -0.051483 0.395213
    36 3.992352 0.891088 1.827995 -0.203959 -0.296541 1.140730
    37 1.405922 0.000027 -0.000006 -0.002416 -0.029428 0.957563
    38 1.175365 -0.000129 0.000002 0.070583 0.101181 0.565682
    39 4.526758 0.690462 1.120839 -0.275958 -0.329923 1.303490
    40 1.744034 -0.000033 0.000000 -0.094221 -0.040619 0.926565
    41 1.368763 -0.000032 -0.000018 0.075673 0.139645 0.313283
    42 1.921730 0.938988 -0.999131 1.125015 0.453001 0.001476
    43 1.511734 -0.113317 0.058594 -0.025339 0.032951 0.314015
    44 1.599279 -0.000002 0.000008 0.083436 0.003885 0.780084
    45 5.511805 -0.000002 0.000002 -0.235797 0.000005 0.000007
    46 0.196850 0.000002 -0.000002 -0.348225 0.000015 -0.000002
    47 0.000000 0.999512 0.000000 0.000000 0.000000 -1.570796
    48 -0.411115 -19.379021 -2.000394 0.005320 0.011234 1.570363
    49 6.105469 0.544434 -1.899414 0.033162 0.989106 1.355239
    50 1.172841 0.003867 0.361636 0.000000 0.000000 0.000000
    51 -2.909418 -0.116088 -0.378866 0.000000 0.000000 0.000000
    52 1.368917 0.119955 1.216499 0.000000 0.000000 0.000000
    53 1.166946 0.000000 0.000000 0.000000 0.000000 0.000000
    54 -0.699533 0.501534 0.289546 0.000000 0.000000 0.000000
    55 -0.699533 0.001722 0.577368 0.000000 0.000000 0.000000
    56 -0.699533 -0.498777 0.287822 0.000000 0.000000 0.000000
    57 -0.699533 -0.496295 -0.290442 0.000000 0.000000 0.000000
    58 -0.699533 0.002550 -0.578333 0.000000 0.000000 0.000000
    59 -0.699533 0.502241 -0.290088 0.000000 0.000000 0.000000
    60 -0.630154 0.119955 1.216499 0.000000 0.000000 0.000000
    61 -1.045788 0.006302 -0.388174 0.000000 -0.153067 0.000000
    62 6.045862 -1.764248 -3.635641 3.212432 0.593053 -1.865937
  time 15
    0 -0.000001 8.445313 -27.500000 0.000000 0.000000 -0.000001
    1 -0.000002 0.000000 0.000000 1.570747 -1.567142 -1.570747
    2 4.255466 -0.335183 -0.000002 0.000000 0.000000 -0.124848
    3 7.431250 1.496478 0.000002 0.000000 0.000000 0.245450
    4 5.278479 0.165543 0.000001 0.000000 0.000000 0.048511
    5 3.565338 -7.739903 1.488977 1.317967 1.194664 -1.909671
    6 -6.214481 -0.000008 -0.000026 4.076487 -0.383979 1.180644
    7 11.944883 0.000000 0.000000 -1.095612 0.033931 1.128091
    8 10.620180 0.000000 0.000001 0.496098 -0.429845 2.030887
    9 -4.751106 -0.694494 0.830578 -0.142630 -0.170680 0.518958
    10 -1.688068 0.000049 -0.000031 0.020855 -0.013376 0.438629
    11 -1.336140 0.000057 -0.000011 0.025882 0.005188 0.356154
    12 -4.820494 -0.509457 -0.224758 -0.260903 0.213693 1.648925
    13 -1.826977 -0.000069 0.000006 -0.015209 0.037565 0.889001
    14 -1.436573 0.000006 0.000002 -0.065252 -0.042429 0.902686
    15 -3.992355 -0.891188 -1.827906 -0.520906 0.341754 1.515172
    16 -1.405918 -0.000031 -0.000005 0.005103 -0.029084 0.702011
    17 -1.175362 0.000123 -0.000019 0.056843 0.037309 0.894105
    18 -4.526749 -0.690577 -1.120743 -0.365943 0.315850 1.756587
    19 -1.744045 0.000031 -0.000006 -0.016753 -0.024422 1.012301
    20 -1.368771 0.000028 0.000004 0.025976 0.045654 0.412606
    21 -1.874800 -0.935122 0.999173 1.994955 0.493826 0.930947
    22 -1.523449 0.000031 0.000030 0.064935 0.040579 0.552922
    23 -1.599281 0.000006 0.000016 0.037783 -0.020449 0.476130
    24 5.511816 0.000006 -0.000001 0.691190 -0.000007 3.141588
    25 0.196850 -0.000002 0.000002 2.793407 0.000006 -3.141577
    26 1.772316 -7.443015 -0.184250 2.464146 0.975874 2.274369
    27 6.214486 0.000007 0.000017 0.115770 0.061891 -1.705151
    28 11.944885 -0.000031 -0.000195 -0.954277 -0.318571 -1.132316
    29 10.620169 0.000004 0.000005 -2.500650 -0.465159 0.733273
    30 4.751158 0.694378 -0.830476 0.019956 -0.446235 0.946920
    31 1.688068 -0.000029 0.000002 0.017634 -0.017413 0.647386
    32 1.336147 -0.000051 -0.000009 0.011046 -0.037162 0.082120
    33 4.820515 0.509344 0.224866 -0.048062 -0.369390 1.137810
    34 1.826992 0.000065 0.000010 -0.017881 0.036367 0.817016
    35 1.436577 -0.000010 0.000009 -0.062730 -0.051483 0.395175
    36 3.992352 0.891088 1.827995 -0.203959 -0.296541 1.140730
    37 1.405922 0.000027 -0.000006 -0.002416 -0.029428 0.957563
    38 1.175365 -0.000129 0.000002 0.070583 0.101181 0.565682
    39 4.526758 0.690462 1.120839 -0.275958 -0.329923 1.303490
    40 1.744034 -0.000033 0.000000 -0.094221 -0.040619 0.926565
    41 1.368763 -0.000032 -0.000018 0.075673 0.139645 0.313283
    42 1.921730 0.938988 -0.999131 1.125015 0.453001 0.001476
    43 1.511734 -0.113317 0.058594 -0.025339 0.032951 0.314015
    44 1.599279 -0.000002 0.000008 0.083436 0.003885 0.780084
    45 5.511805 -0.000002 0.000002 -0.235797 0.000005 0.000007
    46 0.196850 0.000002 -0.000002 -0.348225 0.000015 -0.000002
    47 0.000000 0.999512 0.000000 0.000000 0.000000 -1.570796
    48 -0.274392 -19.379021 -2.016019 -0.012699 0.009551 1.570363
    49 6.105469 0.544434 -1.899414 0.033162 0.989106 1.355239
    50 1.172841 0.003867 0.361636 0.000000 0.000000 0.000000
    51 -2.909418 -0.116088 -0.378866 0.000000 0.000000 0.000000
    52 1.368917 0.119955 1.216499 0.000000 0.000000 0.000000
    53 1.166946 0.000000 0.000000 0.000000 0.000000 0.000000
    54 -0.699533 0.501534 0.289546 0.000000 0.000000 0.000000
    55 -0.699533 0.001722 0.577368 0.000000 0.000000 0.000000
    56 -0.699533 -0.498777 0.287822 0.000000 0.000000 0.000000
    57 -0.699533 -0.496295 -0.290442 0.000000 0.000000 0.000000
    58 -0.699533 0.002550 -0.578333 0.000000 0.000000 0.000000
    59 -0.699533 0.502241 -0.290088 0.000000 0.000000 0.000000
    60 -0.630154 0.119955 1.216499 0.000000 0.000000 0.000000
    61 -1.045788 0.006302 -0.388174 0.000000 -0.188299 0.000000
    62 6.045862 -1.764248 -3.635641 3.212432 0.593053 -1.865937
  time 16
    0 -0.000001 8.445313 -27.500000 0.000000 0.000000 -0.000001
    1 -0.000002 0.000000 0.000000 1.570747 -1.567142 -1.570747
    2 4.255466 -0.335183 -0.000002 0.000000 0.000000 -0.124848
    3 7.431250 1.496478 0.000002 0.000000 0.000000 0.245450
    4 5.278479 0.165543 0.000001 0.000000 0.000000 0.048511
    5 3.565338 -7.739903 1.488977 1.317967 1.194664 -1.909671
    6 -6.214481 -0.000008 -0.000026 4.076297 -0.381272 1.173271
    7 11.944883 0.000000 0.000000 -1.095830 0.033835 1.122230
    8 10.620180 0.000000 0.000001 0.491151 -0.432083 2.025135
    9 -4.751106 -0.694494 0.830578 -0.142630 -0.170680 0.518958
    10 -1.688068 0.000049 -0.000031 0.020855 -0.013376 0.438629
    11 -1.336140 0.000057 -0.000011 0.025882 0.005188 0.356154
    12 -4.820494 -0.509457 -0.224758 -0.260903 0.213693 1.648925
    13 -1.826977 -0.000069 0.000006 -0.015209 0.037565 0.889001
    14 -1.436573 0.000006 0.000002 -0.065252 -0.042429 0.902686
    15 -3.992355 -0.891188 -1.827906 -0.520906 0.341754 1.515172
    16 -1.405918 -0.000031 -0.000005 0.005103 -0.029084 0.702011
    17 -1.175362 0.000123 -0.000019 0.056843 0.037297 0.894105
    18 -4.526749 -0.690577 -1.120743 -0.365943 0.315850 1.756587
    19 -1.744045 0.000031 -0.000006 -0.016753 -0.024422 1.012301
    20 -1.368771 0.000028 0.000004 0.025976 0.045654 0.412606
    21 -1.874800 -0.935122 0.999173 1.994955 0.493826 0.930947
    22 -1.523449 0.000031 0.000030 0.064935 0.040579 0.552922
    23 -1.599281 0.000006 0.000016 0.037783 -0.020449 0.476130
    24 5.511816 0.000006 -0.000001 0.691190 -0.000007 3.141588
    25 0.196850 -0.000002 0.000002 2.793407 0.000006 -3.141577
    26 1.772316 -7.443015 -0.184250 2.464146 0.975874 2.274369
    27 6.214486 0.000007 0.000017 0.110624 0.061233 -1.697765
    28 11.944885 -0.000031 -0.000195 -0.952517 -0.319350 -1.137951
    29 10.620169 0.000004 0.000005 -2.492049 -0.460269 0.738584
    30 4.751158 0.694378 -0.830476 0.019956 -0.446235 0.946920
    31 1.688068 -0.000029 0.000002 0.017634 -0.017413 0.647386
    32 1.336147 -0.000051 -0.000009 0.011046 -0.037162 0.082120
    33 4.820515 0.509344 0.224866 -0.048062 -0.369390 1.137810
    34 1.826992 0.000065 0.000010 -0.017881 0.036367 0.817016
    35 1.436577 -0.000010 0.000009 -0.062730 -0.051483 0.395213
    36 3.992352 0.891088 1.827995 -0.203959 -0.296541 1.140730
    37 1.405922 0.000027 -0.000006 -0.002416 -0.029428 0.957563
    38 1.175365 -0.000129 0.000002 0.070583 0.101181 0.565682
    39 4.526758 0.690462 1.120839 -0.275958 -0.329923 1.303490
    40 1.744034 -0.000033 0.000000 -0.094221 -0.040619 0.926565
    41 1.368763 -0.000032 -0.000018 0.075673 0.139645 0.313283
    42 1.921730 0.938988 -0.999131 1.125015 0.453001 0.001476
    43 1.511734 -0.113317 0.058594 -0.025339 0.032951 0.314015
    44 1.599279 -0.000002 0.000008 0.083436 0.003885 0.780084
    45 5.511805 -0.000002 0.000002 -0.235797 0.000005 0.000007
    46 0.196850 0.000002 -0.000002 -0.348225 0.000015 -0.000002
    47 0.000000 0.999512 0.000000 0.000000 0.000000 -1.570796
    48 -0.165014 -19.379021 -2.035551 -0.019335 0.006686 1.570534
    49 6.105469 0.544434 -1.899414 0.033162 0.989106 1.355239
    50 1.172841 0.003867 0.361636 0.000000 0.000000 0.000000
    51 -2.909418 -0.116088 -0.378866 0.000000 0.000000 0.000000
    52 1.368917 0.119955 1.216499 0.000000 0.000000 0.000000
    53 1.166946 0.000000 0.000000 0.000000 0.000000 0.000000
    54 -0.699533 0.501534 0.289546 0.000000 0.000000 0.000000
    55 -0.699533 0.001722 0.577368 0.000000 0.000000 0.000000
    56 -0.699533 -0.498777 0.287822 0.000000 0.000000 0.000000
    57 -0.699533 -0.496295 -0.290442 0.000000 0.000000 0.000000
    58 -0.699533 0.002550 -0.578333 0.000000 0.000000 0.000000
    59 -0.699533 0.502241 -0.290088 0.000000 0.000000 0.000000
    60 -0.630154 0.119955 1.216499 0.000000 0.000000 0.000000
    61 -1.045788 0.006302 -0.388174 0.000000 -0.223531 0.000000
    62 6.045862 -1.764248 -3.635641 3.212432 0.593053 -1.865937
  time 17
    0 -0.000001 8.445313 -27.500000 0.000000 0.000000 -0.000001
    1 -0.000002 0.000000 0.000000 1.570747 -1.567142 -1.570747
    2 4.255466 -0.335183 -0.000002 0.000000 0.000000 -0.124848
    3 7.431250 1.496478 0.000002 0.000000 0.000000 0.245450
    4 5.278479 0.165543 0.000001 0.000000 0.000000 0.048511
    5 3.565338 -7.739903 1.488977 1.317967 1.194664 -1.909671
    6 -6.214481 -0.000008 -0.000026 4.076535 -0.378796 1.168644
    7 11.944883 0.000000 0.000000 -1.095939 0.033776 1.119023
    8 10.620180 0.000000 0.000001 0.492929 -0.435374 2.021197
    9 -4.751106 -0.694494 0.830578 -0.142630 -0.170680 0.518958
    10 -1.688068 0.000049 -0.000031 0.020855 -0.013376 0.438629
    11 -1.336140 0.000057 -0.000011 0.025882 0.005188 0.356154
    12 -4.820494 -0.509457 -0.224758 -0.260903 0.213693 1.648925
    13 -1.826977 -0.000069 0.000006 -0.015209 0.037565 0.889001
    14 -1.436573 0.000006 0.000002 -0.065252 -0.042429 0.902686
    15 -3.992355 -0.891188 -1.827906 -0.520906 0.341754 1.515172
    16 -1.405918 -0.000031 -0.000005 0.005103 -0.029084 0.702011
    17 -1.175362 0.000123 -0.000019 0.056843 0.037297 0.894105
    18 -4.526749 -0.690577 -1.120743 -0.365943 0.315850 1.756587
    19 -1.744045 0.000031 -0.000006 -0.016753 -0.024422 1.012301
    20 -1.368771 0.000028 0.000004 0.025976 0.045654 0.412606
    21 -1.874800 -0.935122 0.999173 1.994955 0.493826 0.930947
    22 -1.523449 0.000031 0.000030 0.064935 0.040579 0.552922
    23 -1.599281 0.000006 0.000016 0.037783 -0.020449 0.476130
    24 5.511816 0.000006 -0.000001 0.691190 -0.000007 3.141588
    25 0.196850 -0.000002 0.000002 2.793407 0.000006 -3.141577
    26 1.772316 -7.443015 -0.184250 2.464146 0.975874 2.274369
    27 6.214486 0.000007 0.000017 0.106897 0.060684 -1.693545
    28 11.944885 -0.000031 -0.000195 -0.951181 -0.319925 -1.142140
    29 10.620169 0.000004 0.000005 -2.491183 -0.457066 0.745211
    30 4.751158 0.694378 -0.830476 0.019956 -0.446235 0.946920
    31 1.688068 -0.000029 0.000002 0.017634 -0.017413 0.647386
    32 1.336147 -0.000051 -0.000009 0.011046 -0.037162 0.082120
    33 4.820515 0.509344 0.224866 -0.048062 -0.369390 1.137810
    34 1.826992 0.000065 0.000010 -0.017881 0.036367 0.817016
    35 1.436577 -0.000010 0.000009 -0.062730 -0.051483 0.395213
    36 3.992352 0.891088 1.827995 -0.203959 -0.296541 1.140730
    37 1.405922 0.000027 -0.000006 -0.002416 -0.029428 0.957563
    38 1.175365 -0.000129 0.000002 0.070583 0.101181 0.565682
    39 4.526758 0.690462 1.120839 -0.275958 -0.329923 1.303490
    40 1.744034 -0.000033 0.000000 -0.094221 -0.040619 0.926565
    41 1.368763 -0.000032 -0.000018 0.075673 0.139645 0.313283
    42 1.921730 0.938988 -0.999131 1.125015 0.453001 0.001476
    43 1.511734 -0.113317 0.058594 -0.025339 0.032951 0.314015
    44 1.599279 -0.000002 0.000008 0.083436 0.003885 0.780084
    45 5.511805 -0.000002 0.000002 -0.235797 0.000005 0.000007
    46 0.196850 0.000002 -0.000002 -0.348225 0.000015 -0.000002
    47 0.000000 0.999512 0.000000 0.000000 0.000000 -1.570796
    48 -0.094699 -19.379021 -2.043364 -0.020307 0.002502 1.570620
    49 6.105469 0.544434 -1.899414 0.033162 0.989106 1.355239
    50 1.172841 0.003867 0.361636 0.000000 0.000000 0.000000
    51 -2.909418 -0.116088 -0.378866 0.000000 0.000000 0.000000
    52 1.368917 0.119955 1.216499 0.000000 0.000000 0.000000
    53 1.166946 0.000000 0.000000 0.000000 0.000000 0.000000
    54 -0.699533 0.501534 0.289546 0.000000 0.000000 0.000000
    55 -0.699533 0.001722 0.577368 0.000000 0.000000 0.000000
    56 -0.699533 -0.498777 0.287822 0.000000 0.000000 0.000000
    57 -0.699533 -0.496295 -0.290442 0.000000 0.000000 0.000000
    58 -0.699533 0.002550 -0.578333 0.000000 0.000000 0.000000
    59 -0.699533 0.502241 -0.290088 0.000000 0.000000 0.000000
    60 -0.630154 0.119955 1.216499 0.000000 0.000000 0.000000
    61 -1.045788 0.006302 -0.388174 0.000000 -0.257639 0.000000
    62 6.045862 -1.764248 -3.635641 3.212432 0.593053 -1.865937
  time 18
    0 -0.000001 8.445313 -27.500000 0.000000 0.000000 -0.000001
    1 -0.000002 0.000000 0.000000 1.570747 -1.567142 -1.570747
    2 4.255466 -0.335183 -0.000002 0.000000 0.000000 -0.124848
    3 7.431250 1.496478 0.000002 0.000000 0.000000 0.245450
    4 5.278479 0.165543 0.000001 0.000000 0.000000 0.048511
    5 3.565338 -7.739903 1.488977 1.317967 1.194664 -1.909671
    6 -6.214481 -0.000008 -0.000026 4.077151 -0.376349 1.166042
    7 11.944883 0.000000 0.000000 -1.095939 0.033764 1.117721
    8 10.620180 0.000000 0.000001 0.498107 -0.440442 2.017814
    9 -4.751106 -0.694494 0.830578 -0.142630 -0.170680 0.518958
    10 -1.688068 0.000049 -0.000031 0.020855 -0.013376 0.438629
    11 -1.336140 0.000057 -0.000011 0.025882 0.005188 0.356154
    12 -4.820494 -0.509457 -0.224758 -0.260903 0.213693 1.648925
    13 -1.826977 -0.000069 0.000006 -0.015209 0.037565 0.889001
    14 -1.436573 0.000006 0.000002 -0.065252 -0.042429 0.902686
    15 -3.992355 -0.891188 -1.827906 -0.520906 0.341754 1.515172
    16 -1.405918 -0.000031 -0.000005 0.005103 -0.029084 0.702011
    17 -1.175362 0.000123 -0.000019 0.056843 0.037309 0.894105
    18 -4.526749 -0.690577 -1.120743 -0.365943 0.315850 1.756587
    19 -1.744045 0.000031 -0.000006 -0.016753 -0.024422 1.012301
    20 -1.368771 0.000028 0.000004 0.025976 0.045654 0.412606
    21 -1.874800 -0.935122 0.999173 1.994955 0.493826 0.930947
    22 -1.523449 0.000031 0.000030 0.064935 0.040579 0.552922
    23 -1.599281 0.000006 0.000016 0.037783 -0.020449 0.476130
    24 5.511816 0.000006 -0.000001 0.691122 -0.000007 3.141588
    25 0.196850 -0.000002 0.000002 2.793407 0.000006 -3.141577
    26 1.772316 -7.443015 -0.184250 2.464146 0.975874 2.274369
    27 6.214486 0.000007 0.000017 0.103526 0.060026 -1.691586
    28 11.944885 -0.000031 -0.000195 -0.950210 -0.320356 -1.145331
    29 10.620169 0.000004 0.000005 -2.493849 -0.454600 0.753710
    30 4.751158 0.694378 -0.830476 0.019956 -0.446235 0.946920
    31 1.688068 -0.000029 0.000002 0.017634 -0.017413 0.647386
    32 1.336147 -0.000051 -0.000009 0.011046 -0.037162 0.082120
    33 4.820515 0.509344 0.224866 -0.048062 -0.369390 1.137810
    34 1.826992 0.000065 0.000010 -0.017881 0.036367 0.817016
    35 1.436577 -0.000010 0.000009 -0.062730 -0.051483 0.395175
    36 3.992352 0.891088 1.827995 -0.203959 -0.296541 1.140730
    37 1.405922 0.000027 -0.000006 -0.002416 -0.029428 0.957563
    38 1.175365 -0.000129 0.000002 0.070583 0.101181 0.565682
    39 4.526758 0.690462 1.120839 -0.275958 -0.329923 1.303490
    40 1.744034 -0.000033 0.000000 -0.094221 -0.040619 0.926565
    41 1.368763 -0.000032 -0.000018 0.075673 0.139645 0.313283
    42 1.921730 0.938988 -0.999131 1.125015 0.453001 0.001476
    43 1.511734 -0.113317 0.058594 -0.025339 0.032951 0.314015
    44 1.599279 -0.000002 0.000008 0.083436 0.003885 0.780084
    45 5.511805 -0.000002 0.000002 -0.235797 0.000005 0.000007
    46 0.196850 0.000002 -0.000002 -0.348225 0.000015 -0.000002
    47 0.000000 0.999512 0.000000 0.000000 0.000000 -1.570796
    48 -0.047823 -19.379021 -2.043364 -0.019220 -0.002820 1.570705
    49 6.105469 0.544434 -1.899414 0.033162 0.989106 1.355239
    50 1.172841 0.003867 0.361636 0.000000 0.000000 0.000000
    51 -2.909418 -0.116088 -0.378866 0.000000 0.000000 0.000000
    52 1.368917 0.119955 1.216499 0.000000 0.000000 0.000000
    53 1.166946 0.000000 0.000000 0.000000 0.000000 0.000000
    54 -0.699533 0.501534 0.289546 0.000000 0.000000 0.000000
    55 -0.699533 0.001722 0.577368 0.000000 0.000000 0.000000
    56 -0.699533 -0.498777 0.287822 0.000000 0.000000 0.000000
    57 -0.699533 -0.496295 -0.290442 0.000000 0.000000 0.000000
    58 -0.699533 0.002550 -0.578333 0.000000 0.000000 0.000000
    59 -0.699533 0.502241 -0.290088 0.000000 0.000000 0.000000
    60 -0.630154 0.119955 1.216499 0.000000 0.000000 0.000000
    61 -1.045788 0.006302 -0.388174 0.000000 -0.289469 0.000000
    62 6.045862 -1.764248 -3.635641 3.212432 0.593053 -1.865937
  time 19
    0 -0.000001 8.445313 -27.500000 0.000000 0.000000 -0.000001
    1 -0.000002 0.000000 0.000000 1.570747 -1.567142 -1.570747
    2 4.255466 -0.335183 -0.000002 0.000000 0.000000 -0.124848
    3 7.431250 1.496478 0.000002 0.000000 0.000000 0.245450
    4 5.278479 0.165543 0.000001 0.000000 0.000000 0.048511
    5 3.565338 -7.739903 1.488977 1.317967 1.194664 -1.909671
    6 -6.214481 -0.000008 -0.000026 4.077816 -0.374161 1.164524
    7 11.944883 0.000000 0.000000 -1.095939 0.033752 1.117520
    8 10.620180 0.000000 0.000001 0.505296 -0.446234 2.014922
    9 -4.751106 -0.694494 0.830578 -0.142630 -0.170680 0.518958
    10 -1.688068 0.000049 -0.000031 0.020855 -0.013376 0.438629
    11 -1.336140 0.000057 -0.000011 0.025882 0.005188 0.356154
    12 -4.820494 -0.509457 -0.224758 -0.260903 0.213693 1.648925
    13 -1.826977 -0.000069 0.000006 -0.015209 0.037565 0.889001
    14 -1.436573 0.000006 0.000002 -0.065252 -0.042429 0.902686
    15 -3.992355 -0.891188 -1.827906 -0.520906 0.341754 1.515172
    16 -1.405918 -0.000031 -0.000005 0.005103 -0.029084 0.702011
    17 -1.175362 0.000123 -0.000019 0.056843 0.037297 0.894105
    18 -4.526749 -0.690577 -1.120743 -0.365943 0.315850 1.756587
    19 -1.744045 0.000031 -0.000006 -0.016753 -0.024422 1.012301
    20 -1.368771 0.000028 0.000004 0.025976 0.045654 0.412606
    21 -1.874800 -0.935122 0.999173 1.994955 0.493826 0.930947
    22 -1.523449 0.000031 0.000030 0.064935 0.040579 0.552922
    23 -1.599281 0.000006 0.000016 0.037783 -0.020449 0.476130
    24 5.511816 0.000006 -0.000001 0.691122 -0.000007 3.141588
    25 0.196850 -0.000002 0.000002 2.793407 0.000006 -3.141577
    26 1.772316 -7.443015 -0.184250 2.464146 0.975874 2.274369
    27 6.214486 0.000007 0.000017 0.100805 0.059441 -1.690832
    28 11.944885 -0.000031 -0.000195 -0.949299 -0.320728 -1.148123
    29 10.620169 0.000004 0.000005 -2.499183 -0.452782 0.762967
    30 4.751158 0.694378 -0.830476 0.019956 -0.446235 0.946920
    31 1.688068 -0.000029 0.000002 0.017634 -0.017413 0.647386
    32 1.336147 -0.000051 -0.000009 0.011046 -0.037162 0.082120
    33 4.820515 0.509344 0.224866 -0.048062 -0.369390 1.137810
    34 1.826992 0.000065 0.000010 -0.017881 0.036367 0.817016
    35 1.436577 -0.000010 0.000009 -0.062730 -0.051483 0.395175
    36 3.992352 0.891088 1.827995 -0.203959 -0.296541 1.140730
    37 1.405922 0.000027 -0.000006 -0.002416 -0.029428 0.957563
    38 1.175365 -0.000129 0.000002 0.070583 0.101181 0.565682
    39 4.526758 0.690462 1.120839 -0.275958 -0.329923 1.303490
    40 1.744034 -0.000033 0.000000 -0.094221 -0.040619 0.926565
    41 1.368763 -0.000032 -0.000018 0.075673 0.139645 0.313283
    42 1.921730 0.938988 -0.999131 1.125015 0.453001 0.001476
    43 1.511734 -0.113317 0.058594 -0.025339 0.032951 0.314015
    44 1.599279 -0.000002 0.000008 0.083436 0.003885 0.780084
    45 5.511805 -0.000002 0.000002 -0.235797 0.000005 0.000007
    46 0.196850 0.000002 -0.000002 -0.348225 0.000015 -0.000002
    47 0.000000 0.999512 0.000000 0.000000 0.000000 -1.570796
    48 -0.016572 -19.379021 -2.043364 -0.016532 -0.008869 1.570791
    49 6.105469 0.544434 -1.899414 0.033162 0.989106 1.355239
    50 1.172841 0.003867 0.361636 0.000000 0.000000 0.000000
    51 -2.909418 -0.116088 -0.378866 0.000000 0.000000 0.000000
    52 1.368917 0.119955 1.216499 0.000000 0.000000 0.000000
    53 1.166946 0.000000 0.000000 0.000000 0.000000 0.000000
    54 -0.699533 0.501534 0.289546 0.000000 0.000000 0.000000
    55 -0.699533 0.001722 0.577368 0.000000 0.000000 0.000000
    56 -0.699533 -0.498777 0.287822 0.000000 0.000000 0.000000
    57 -0.699533 -0.496295 -0.290442 0.000000 0.000000 0.000000
    58 -0.699533 0.002550 -0.578333 0.000000 0.000000 0.000000
    59 -0.699533 0.502241 -0.290088 0.000000 0.000000 0.000000
    60 -0.630154 0.119955 1.216499 0.000000 0.000000 0.000000
    61 -1.045788 0.006302 -0.388174 0.000000 -0.317984 0.000000
    62 6.045862 -1.764248 -3.635641 3.212432 0.593053 -1.865937
  time 20
    0 -0.000001 8.445313 -27.500000 0.000000 0.000000 -0.000001
    1 -0.000002 0.000000 0.000000 1.570747 -1.567142 -1.570747
    2 4.255466 -0.335183 -0.000002 0.000000 0.000000 -0.124848
    3 7.431250 1.496478 0.000002 0.000000 0.000000 0.245450
    4 5.278479 0.165543 0.000001 0.000000 0.000000 0.048511
    5 3.565338 -7.739903 1.488977 1.317967 1.194664 -1.909671
    6 -6.214481 -0.000008 -0.000026 4.078480 -0.372318 1.163874
    7 11.944883 0.000000 0.000000 -1.095939 0.033764 1.118021
    8 10.620180 0.000000 0.000001 0.513257 -0.451894 2.012584
    9 -4.751106 -0.694494 0.830578 -0.142630 -0.170680 0.518958
    10 -1.688068 0.000049 -0.000031 0.020855 -0.013376 0.438629
    11 -1.336140 0.000057 -0.000011 0.025882 0.005188 0.356154
    12 -4.820494 -0.509457 -0.224758 -0.260903 0.213693 1.648925
    13 -1.826977 -0.000069 0.000006 -0.015209 0.037565 0.889001
    14 -1.436573 0.000006 0.000002 -0.065252 -0.042429 0.902686
    15 -3.992355 -0.891188 -1.827906 -0.520906 0.341754 1.515172
    16 -1.405918 -0.000031 -0.000005 0.005103 -0.029084 0.702011
    17 -1.175362 0.000123 -0.000019 0.056843 0.037309 0.894105
    18 -4.526749 -0.690577 -1.120743 -0.365943 0.315850 1.756587
    19 -1.744045 0.000031 -0.000006 -0.016753 -0.024422 1.012301
    20 -1.368771 0.000028 0.000004 0.025976 0.045654 0.412606
    21 -1.874800 -0.935122 0.999173 1.994955 0.493826 0.930947
    22 -1.523449 0.000031 0.000030 0.064935 0.040579 0.552922
    23 -1.599281 0.000006 0.000016 0.037783 -0.020449 0.476130
    24 5.511816 0.000006 -0.000001 0.691190 -0.000007 3.141588
    25 0.196850 -0.000002 0.000002 2.793407 0.000006 -3.141577
    26 1.772316 -7.443015 -0.184250 2.464146 0.975874 2.274369
    27 6.214486 0.000007 0.000017 0.098616 0.058929 -1.690832
    28 11.944885 -0.000031 -0.000195 -0.948571 -0.321039 -1.150417
    29 10.620169 0.000004 0.000005 -2.505717 -0.451484 0.771921
    30 4.751158 0.694378 -0.830476 0.019956 -0.446235 0.946920
    31 1.688068 -0.000029 0.000002 0.017634 -0.017413 0.647386
    32 1.336147 -0.000051 -0.000009 0.011046 -0.037162 0.082120
    33 4.820515 0.509344 0.224866 -0.048062 -0.369390 1.137810
    34 1.826992 0.000065 0.000010 -0.017881 0.036367 0.817016
    35 1.436577 -0.000010 0.000009 -0.062730 -0.051483 0.395175
    36 3.992352 0.891088 1.827995 -0.203959 -0.296541 1.140730
    37 1.405922 0.000027 -0.000006 -0.002416 -0.029428 0.957563
    38 1.175365 -0.000129 0.000002 0.070583 0.101181 0.565682
    39 4.526758 0.690462 1.120839 -0.275958 -0.329923 1.303490
    40 1.744034 -0.000033 0.000000 -0.094221 -0.040619 0.926565
    41 1.368763 -0.000032 -0.000018 0.075673 0.139645 0.313283
    42 1.921730 0.938988 -0.999131 1.125015 0.453001 0.001476
    43 1.511734 -0.113317 0.058594 -0.025339 0.032951 0.314015
    44 1.599279 -0.000002 0.000008 0.083436 0.003885 0.780084
    45 5.511805 -0.000002 0.000002 -0.235797 0.000005 0.000007
    46 0.196850 0.000002 -0.000002 -0.348225 0.000015 -0.000002
    47 0.000000 0.999512 0.000000 0.000000 0.000000 -1.570796
    48 0.002960 -19.379021 -2.039457 -0.012985 -0.014873 1.570791
    49 6.105469 0.544434 -1.899414 0.033162 0.989106 1.355239
    50 1.172841 0.003867 0.361636 0.000000 0.000000 0.000000
    51 -2.909418 -0.116088 -0.378866 0.000000 0.000000 0.000000
    52 1.368917 0.119955 1.216499 0.000000 0.000000 0.000000
    53 1.166946 0.000000 0.000000 0.000000 0.000000 0.000000
    54 -0.699533 0.501534 0.289546 0.000000 0.000000 0.000000
    55 -0.699533 0.001722 0.577368 0.000000 0.000000 0.000000
    56 -0.699533 -0.498777 0.287822 0.000000 0.000000 0.000000
    57 -0.699533 -0.496295 -0.290442 0.000000 0.000000 0.000000
    58 -0.699533 0.002550 -0.578333 0.000000 0.000000 0.000000
    59 -0.699533 0.502241 -0.290088 0.000000 0.000000 0.000000
    60 -0.630154 0.119955 1.216499 0.000000 0.000000 0.000000
    61 -1.045788 0.006302 -0.388174 0.000000 -0.342001 0.000000
    62 6.045862 -1.764248 -3.635641 3.212432 0.593053 -1.865937
  time 21
    0 -0.000001 8.445313 -27.500000 0.000000 0.000000 -0.000001
    1 -0.000002 0.000000 0.000000 1.570747 -1.567142 -1.570747
    2 4.255466 -0.335183 -0.000002 0.000000 0.000000 -0.124848
    3 7.431250 1.496478 0.000002 0.000000 0.000000 0.245450
    4 5.278479 0.165543 0.000001 0.000000 0.000000 0.048511
    5 3.565338 -7.739903 1.488977 1.317967 1.194664 -1.909671
    6 -6.214481 -0.000008 -0.000026 4.079097 -0.370850 1.163729
    7 11.944883 0.000000 0.000000 -1.095939 0.033776 1.118873
    8 10.620180 0.000000 0.000001 0.520677 -0.456831 2.010800
    9 -4.751106 -0.694494 0.830578 -0.142630 -0.170680 0.518958
    10 -1.688068 0.000049 -0.000031 0.020855 -0.013376 0.438629
    11 -1.336140 0.000057 -0.000011 0.025882 0.005188 0.356154
    12 -4.820494 -0.509457 -0.224758 -0.260903 0.213693 1.648925
    13 -1.826977 -0.000069 0.000006 -0.015209 0.037565 0.889001
    14 -1.436573 0.000006 0.000002 -0.065252 -0.042429 0.902686
    15 -3.992355 -0.891188 -1.827906 -0.520906 0.341754 1.515172
    16 -1.405918 -0.000031 -0.000005 0.005103 -0.029084 0.702011
    17 -1.175362 0.000123 -0.000019 0.056843 0.037297 0.894105
    18 -4.526749 -0.690577 -1.120743 -0.365943 0.315850 1.756587
    19 -1.744045 0.000031 -0.000006 -0.016753 -0.024422 1.012301
    20 -1.368771 0.000028 0.000004 0.025976 0.045654 0.412606
    21 -1.874800 -0.935122 0.999173 1.994955 0.493826 0.930947
    22 -1.523449 0.000031 0.000030 0.064935 0.040579 0.552922
    23 -1.599281 0.000006 0.000016 0.037783 -0.020449 0.476130
    24 5.511816 0.000006 -0.000001 0.691122 -0.000007 3.141588
    25 0.196850 -0.000002 0.000002 2.793407 0.000006 -3.141577
    26 1.772316 -7.443015 -0.184250 2.464146 0.975874 2.274369
    27 6.214486 0.000007 0.000017 0.097137 0.058563 -1.691209
    28 11.944885 -0.000031 -0.000195 -0.948024 -0.321267 -1.152112
    29 10.620169 0.000004 0.000005 -2.512118 -0.450575 0.779560
    30 4.751158 0.694378 -0.830476 0.019956 -0.446235 0.946920
    31 1.688068 -0.000029 0.000002 0.017634 -0.017413 0.647386
    32 1.336147 -0.000051 -0.000009 0.011046 -0.037162 0.082120
    33 4.820515 0.509344 0.224866 -0.048062 -0.369390 1.137810
    34 1.826992 0.000065 0.000010 -0.017881 0.036367 0.817016
    35 1.436577 -0.000010 0.000009 -0.062730 -0.051483 0.395175
    36 3.992352 0.891088 1.827995 -0.203959 -0.296541 1.140730
    37 1.405922 0.000027 -0.000006 -0.002416 -0.029428 0.957563
    38 1.175365 -0.000129 0.000002 0.070583 0.101181 0.565682
    39 4.526758 0.690462 1.120839 -0.275958 -0.329923 1.303490
    40 1.744034 -0.000033 0.000000 -0.094221 -0.040619 0.926565
    41 1.368763 -0.000032 -0.000018 0.075673 0.139645 0.313283
    42 1.921730 0.938988 -0.999131 1.125015 0.453001 0.001476
    43 1.511734 -0.113317 0.058594 -0.025339 0.032951 0.314015
    44 1.599279 -0.000002 0.000008 0.083436 0.003885 0.780084
    45 5.511805 -0.000002 0.000002 -0.235797 0.000005 0.000007
    46 0.196850 0.000002 -0.000002 -0.348225 0.000015 -0.000002
    47 0.000000 0.999512 0.000000 0.000000 0.000000 -1.570796
    48 0.010773 -19.379021 -2.039457 -0.009496 -0.020012 1.570791
    49 6.105469 0.544434 -1.899414 0.033162 0.989106 1.355239
    50 1.172841 0.003867 0.361636 0.000000 0.000000 0.000000
    51 -2.909418 -0.116088 -0.378866 0.000000 0.000000 0.000000
    52 1.368917 0.119955 1.216499 0.000000 0.000000 0.000000
    53 1.166946 0.000000 0.000000 0.000000 0.000000 0.000000
    54 -0.699533 0.501534 0.289546 0.000000 0.000000 0.000000
    55 -0.699533 0.001722 0.577368 0.000000 0.000000 0.000000
    56 -0.699533 -0.498777 0.287822 0.000000 0.000000 0.000000
    57 -0.699533 -0.496295 -0.290442 0.000000 0.000000 0.000000
    58 -0.699533 0.002550 -0.578333 0.000000 0.000000 0.000000
    59 -0.699533 0.502241 -0.290088 0.000000 0.000000 0.000000
    60 -0.630154 0.119955 1.216499 0.000000 0.000000 0.000000
    61 -1.045788 0.006302 -0.388174 0.000000 -0.360510 0.000000
    62 6.045862 -1.764248 -3.635641 3.212432 0.593053 -1.865937
  time 22
    0 -0.000001 8.445313 -27.500000 0.000000 0.000000 -0.000001
    1 -0.000002 0.000000 0.000000 1.570747 -1.567142 -1.570747
    2 4.255466 -0.335183 -0.000002 0.000000 0.000000 -0.124848
    3 7.431250 1.496478 0.000002 0.000000 0.000000 0.245450
    4 5.278479 0.165543 0.000001 0.000000 0.000000 0.048511
    5 3.565338 -7.739903 1.488977 1.317967 1.194664 -1.909671
    6 -6.214481 -0.000008 -0.000026 4.079524 -0.369899 1.163874
    7 11.944883 0.000000 0.000000 -1.095884 0.033788 1.119625
    8 10.620180 0.000000 0.000001 0.526088 -0.460319 2.009693
    9 -4.751106 -0.694494 0.830578 -0.142630 -0.170680 0.518958
    10 -1.688068 0.000049 -0.000031 0.020855 -0.013376 0.438629
    11 -1.336140 0.000057 -0.000011 0.025882 0.005188 0.356154
    12 -4.820494 -0.509457 -0.224758 -0.260903 0.213693 1.648925
    13 -1.826977 -0.000069 0.000006 -0.015209 0.037565 0.889001
    14 -1.436573 0.000006 0.000002 -0.065252 -0.042429 0.902686
    15 -3.992355 -0.891188 -1.827906 -0.520906 0.341754 1.515172
    16 -1.405918 -0.000031 -0.000005 0.005103 -0.029084 0.702011
    17 -1.175362 0.000123 -0.000019 0.056843 0.037297 0.894105
    18 -4.526749 -0.690577 -1.120743 -0.365943 0.315850 1.756587
    19 -1.744045 0.000031 -0.000006 -0.016753 -0.024422 1.012301
    20 -1.368771 0.000028 0.000004 0.025976 0.045654 0.412606
    21 -1.874800 -0.935122 0.999173 1.994955 0.493826 0.930947
    22 -1.523449 0.000031 0.000030 0.064935 0.040579 0.552922
    23 -1.599281 0.000006 0.000016 0.037783 -0.020449 0.476130
    24 5.511816 0.000006 -0.000001 0.691190 -0.000007 3.141588
    25 0.196850 -0.000002 0.000002 2.793407 0.000006 -3.141577
    26 1.772316 -7.443015 -0.184250 2.464146 0.975874 2.274369
    27 6.214486 0.000007 0.000017 0.096191 0.058270 -1.691737
    28 11.944885 -0.000031 -0.000195 -0.947721 -0.321411 -1.153209
    29 10.620169 0.000004 0.000005 -2.516918 -0.450056 0.784871
    30 4.751158 0.694378 -0.830476 0.019956 -0.446235 0.946920
    31 1.688068 -0.000029 0.000002 0.017634 -0.017413 0.647386
    32 1.336147 -0.000051 -0.000009 0.011046 -0.037162 0.082120
    33 4.820515 0.509344 0.224866 -0.048062 -0.369390 1.137810
    34 1.826992 0.000065 0.000010 -0.017881 0.036367 0.817016
    35 1.436577 -0.000010 0.000009 -0.062730 -0.051483 0.395175
    36 3.992352 0.891088 1.827995 -0.203959 -0.296541 1.140730
    37 1.405922 0.000027 -0.000006 -0.002416 -0.029428 0.957563
    38 1.175365 -0.000129 0.000002 0.070583 0.101181 0.565682
    39 4.526758 0.690462 1.120839 -0.275958 -0.329923 1.303490
    40 1.744034 -0.000033 0.000000 -0.094221 -0.040619 0.926565
    41 1.368763 -0.000032 -0.000018 0.075673 0.139645 0.313283
    42 1.921730 0.938988 -0.999131 1.125015 0.453001 0.001476
    43 1.511734 -0.113317 0.058594 -0.025339 0.032951 0.314015
    44 1.599279 -0.000002 0.000008 0.083436 0.003885 0.780084
    45 5.511805 -0.000002 0.000002 -0.235797 0.000005 0.000007
    46 0.196850 0.000002 -0.000002 -0.348225 0.000015 -0.000002
    47 0.000000 0.999512 0.000000 0.000000 0.000000 -1.570796
    48 0.014679 -19.379021 -2.039457 -0.006807 -0.023651 1.570791
    49 6.105469 0.544434 -1.899414 0.033162 0.989106 1.355239
    50 1.172841 0.003867 0.361636 0.000000 0.000000 0.000000
    51 -2.909418 -0.116088 -0.378866 0.000000 0.000000 0.000000
    52 1.368917 0.119955 1.216499 0.000000 0.000000 0.000000
    53 1.166946 0.000000 0.000000 0.000000 0.000000 0.000000
    54 -0.699533 0.501534 0.289546 0.000000 0.000000 0.000000
    55 -0.699533 0.001722 0.577368 0.000000 0.000000 0.000000
    56 -0.699533 -0.498777 0.287822 0.000000 0.000000 0.000000
    57 -0.699533 -0.496295 -0.290442 0.000000 0.000000 0.000000
    58 -0.699533 0.002550 -0.578333 0.000000 0.000000 0.000000
    59 -0.699533 0.502241 -0.290088 0.000000 0.000000 0.000000
    60 -0.630154 0.119955 1.216499 0.000000 0.000000 0.000000
    61 -1.045788 0.006302 -0.388174 0.000000 -0.372418 0.000000
    62 6.045862 -1.764248 -3.635641 3.212432 0.593053 -1.865937
  time 23
    0 -0.000001 8.445313 -27.500000 0.000000 0.000000 -0.000001
    1 -0.000002 0.000000 0.000000 1.570747 -1.567142 -1.570747
    2 4.255466 -0.335183 -0.000002 0.000000 0.000000 -0.124848
    3 7.431250 1.496478 0.000002 0.000000 0.000000 0.245450
    4 5.278479 0.165543 0.000001 0.000000 0.000000 0.048511
    5 3.565338 -7.739903 1.488977 1.317967 1.194664 -1.909671
    6 -6.214481 -0.000008 -0.000026 4.079713 -0.369583 1.164018
    7 11.944883 0.000000 0.000000 -1.095884 0.033800 1.119975
    8 10.620180 0.000000 0.000001 0.528175 -0.461636 2.009293
    9 -4.751106 -0.694494 0.830578 -0.142630 -0.170680 0.518958
    10 -1.688068 0.000049 -0.000031 0.020855 -0.013376 0.438629
    11 -1.336140 0.000057 -0.000011 0.025882 0.005188 0.356154
    12 -4.820494 -0.509457 -0.224758 -0.260903 0.213693 1.648925
    13 -1.826977 -0.000069 0.000006 -0.015209 0.037565 0.889001
    14 -1.436573 0.000006 0.000002 -0.065252 -0.042429 0.902686
    15 -3.992355 -0.891188 -1.827906 -0.520906 0.341754 1.515172
    16 -1.405918 -0.000031 -0.000005 0.005103 -0.029084 0.702011
    17 -1.175362 0.000123 -0.000019 0.056843 0.037297 0.894105
    18 -4.526749 -0.690577 -1.120743 -0.365943 0.315850 1.756587
    19 -1.744045 0.000031 -0.000006 -0.016753 -0.024422 1.012301
    20 -1.368771 0.000028 0.000004 0.025976 0.045654 0.412606
    21 -1.874800 -0.935122 0.999173 1.994955 0.493826 0.930947
    22 -1.523449 0.000031 0.000030 0.064935 0.040579 0.552922
    23 -1.599281 0.000006 0.000016 0.037783 -0.020449 0.476130
    24 5.511816 0.000006 -0.000001 0.691190 -0.000007 3.141588
    25 0.196850 -0.000002 0.000002 2.793407 0.000006 -3.141577
    26 1.772316 -7.443015 -0.184250 2.464146 0.975874 2.274369
    27 6.214486 0.000007 0.000017 0.095895 0.058197 -1.691963
    28 11.944885 -0.000031 -0.000195 -0.947599 -0.321459 -1.153558
    29 10.620169 0.000004 0.000005 -2.518851 -0.449882 0.786844
    30 4.751158 0.694378 -0.830476 0.019956 -0.446235 0.946920
    31 1.688068 -0.000029 0.000002 0.017634 -0.017413 0.647386
    32 1.336147 -0.000051 -0.000009 0.011046 -0.037162 0.082120
    33 4.820515 0.509344 0.224866 -0.048062 -0.369390 1.137810
    34 1.826992 0.000065 0.000010 -0.017881 0.036367 0.817016
    35 1.436577 -0.000010 0.000009 -0.062730 -0.051483 0.395175
    36 3.992352 0.891088 1.827995 -0.203959 -0.296541 1.140730
    37 1.405922 0.000027 -0.000006 -0.002416 -0.029428 0.957563
    38 1.175365 -0.000129 0.000002 0.070583 0.101181 0.565682
    39 4.526758 0.690462 1.120839 -0.275958 -0.329923 1.303490
    40 1.744034 -0.000033 0.000000 -0.094221 -0.040619 0.926565
    41 1.368763 -0.000032 -0.000018 0.075673 0.139645 0.313283
    42 1.921730 0.938988 -0.999131 1.125015 0.453001 0.001476
    43 1.511734 -0.113317 0.058594 -0.025339 0.032951 0.314015
    44 1.599279 -0.000002 0.000008 0.083436 0.003885 0.780084
    45 5.511805 -0.000002 0.000002 -0.235797 0.000005 0.000007
    46 0.196850 0.000002 -0.000002 -0.348225 0.000015 -0.000002
    47 0.000000 0.999512 0.000000 0.000000 0.000000 -1.570796
    48 0.014679 -19.379021 -2.039457 -0.005720 -0.025015 1.570791
    49 6.105469 0.544434 -1.899414 0.033162 0.989106 1.355239
    50 1.172841 0.003867 0.361636 0.000000 0.000000 0.000000
    51 -2.909418 -0.116088 -0.378866 0.000000 0.000000 0.000000
    52 1.368917 0.119955 1.216499 0.000000 0.000000 0.000000
    53 1.166946 0.000000 0.000000 0.000000 0.000000 0.000000
    54 -0.699533 0.501534 0.289546 0.000000 0.000000 0.000000
    55 -0.699533 0.001722 0.577368 0.000000 0.000000 0.000000
    56 -0.699533 -0.498777 0.287822 0.000000 0.000000 0.000000
    57 -0.699533 -0.496295 -0.290442 0.000000 0.000000 0.000000
    58 -0.699533 0.002550 -0.578333 0.000000 0.000000 0.000000
    59 -0.699533 0.502241 -0.290088 0.000000 0.000000 0.000000
    60 -0.630154 0.119955 1.216499 0.000000 0.000000 0.000000
    61 -1.045788 0.006302 -0.388174 0.000000 -0.376627 0.000000
    62 6.045862 -1.764248 -3.635641 3.212432 0.593053 -1.865937
end
