version 1
nodes
0 "root" -1
1 "pelvis" 0
2 "spine_01" 1
3 "spine_02" 2
4 "spine_03" 3
5 "clavicle_r" 4
6 "upperarm_r" 5
7 "lowerarm_r" 6
8 "hand_r" 7
9 "index_01_r" 8
10 "index_02_r" 9
11 "index_03_r" 10
12 "middle_01_r" 8
13 "middle_02_r" 12
14 "middle_03_r" 13
15 "pinky_01_r" 8
16 "pinky_02_r" 15
17 "pinky_03_r" 16
18 "ring_01_r" 8
19 "ring_02_r" 18
20 "ring_03_r" 19
21 "thumb_01_r" 8
22 "thumb_02_r" 21
23 "thumb_03_r" 22
24 "lowerarm_twist_01_r" 7
25 "upperarm_twist_01_r" 6
26 "clavicle_l" 4
27 "upperarm_l" 26
28 "lowerarm_l" 27
29 "hand_l" 28
30 "index_01_l" 29
31 "index_02_l" 30
32 "index_03_l" 31
33 "middle_01_l" 29
34 "middle_02_l" 33
35 "middle_03_l" 34
36 "pinky_01_l" 29
37 "pinky_02_l" 36
38 "pinky_03_l" 37
39 "ring_01_l" 29
40 "ring_02_l" 39
41 "ring_03_l" 40
42 "thumb_01_l" 29
43 "thumb_02_l" 42
44 "thumb_03_l" 43
45 "lowerarm_twist_01_l" 28
46 "upperarm_twist_01_l" 27
47 "cam_driver" -1
48 "BaseRoot" -1
49 "Base" 48
50 "rhand_ikTarget" 49
51 "Hammer" 49
52 "CyHolder" 49
53 "Cy" 52
54 "Pusher" 53
55 "Trigger" 49
56 "Release" 49
57 "BulletPos" 53
58 "Bullet.001" 57
59 "BulletHead.001" 58
60 "Bullet.002" 57
61 "BulletHead.002" 60
62 "Bullet.003" 57
63 "BulletHead.003" 62
64 "Bullet.004" 57
65 "BulletHead.004" 64
66 "Bullet.005" 57
67 "BulletHead.005" 66
68 "Bullet.006" 57
69 "BulletHead.006" 68
70 "lhand_ikTarget" 49
end
skeleton
time 0
0 -0.00000100 8.45008800 -27.50902600 0.00000000 0.00000000 0.00003100
1 -0.00000200 0.00000000 0.00000000 1.57074300 -1.56713700 -1.57074300
2 4.25546800 -0.33518300 -0.00000200 0.00000000 0.00000000 -0.12484800
3 7.43124800 1.49647700 0.00000200 0.00000000 0.00000000 0.24545000
4 5.27847900 0.16554100 0.00000100 0.00000000 0.00000000 0.04851100
5 -6.06668100 -12.07244200 1.43908500 1.97599600 1.15993000 -1.29863100
6 -6.21448200 -0.00000700 -0.00002700 -2.18403799 -0.36237211 1.31422196
7 11.94488200 0.00000000 0.00000100 -1.58616819 -0.35265711 1.79433026
8 10.62018100 0.00000200 0.00000000 -0.03447387 0.05442788 2.62989716
9 -4.75110600 -0.69449400 0.83057700 -0.14257400 -0.17062400 0.51888500
10 -1.68806800 0.00004600 -0.00003200 0.02082600 -0.01331000 0.43857400
11 -1.33614000 0.00005700 -0.00001200 0.02584200 0.00517300 0.35617200
12 -4.82049400 -0.50946000 -0.22475900 -0.26084500 0.21374100 1.64897400
13 -1.82699200 -0.00006400 0.00000600 -0.01520200 0.03755300 0.88896800
14 -1.43657300 0.00000600 0.00000200 -0.06517800 -0.04241000 0.90266200
15 -3.99235500 -0.89118800 -1.82790900 -0.52084900 0.34179900 1.51527800
16 -1.40591800 -0.00002500 -0.00000300 0.00507600 -0.02907100 0.70200400
17 -1.17535800 0.00012800 -0.00002000 0.05677300 0.03733400 0.89401900
18 -4.52675100 -0.69057500 -1.12074400 -0.36586200 0.31587000 1.75669500
19 -1.74403800 0.00003300 -0.00000800 -0.01668800 -0.02440900 1.01221400
20 -1.36877100 0.00002500 0.00000200 0.02596100 0.04564200 0.41256700
21 -1.87480000 -0.93512500 0.99917400 1.99500900 0.49378100 0.93085200
22 -1.52345300 0.00003200 0.00003100 0.06491800 0.04056800 0.55288000
23 -1.59928500 0.00000400 0.00001600 0.03779100 -0.02036500 0.47607600
24 5.51181500 0.00000800 -0.00000100 0.69106988 -0.00021224 -3.14108962
25 0.19684700 -0.00000100 0.00000300 2.79340690 -0.00066844 -3.14144365
26 -8.53279600 -13.38349600 -0.52561500 1.97599600 1.15993000 1.84296200
27 6.21448500 0.00000600 0.00002000 -0.44880939 0.02735260 -2.28800548
28 11.94488500 -0.00002900 -0.00019400 0.10401593 -0.31913169 -1.21521402
29 10.62016600 0.00000200 0.00001000 -2.00887674 -0.50956549 0.04979422
30 4.75115600 0.69437600 -0.83047300 0.01997700 -0.44619900 0.94690800
31 1.68806500 -0.00002600 0.00000200 0.01757500 -0.01737000 0.64737200
32 1.33615100 -0.00005100 -0.00000900 0.01100700 -0.03708800 0.08210300
33 4.82051300 0.50934000 0.22486500 -0.04807500 -0.36934800 1.13781900
34 1.82699600 0.00006600 0.00000800 -0.01786200 0.03632900 0.81693800
35 1.43657700 -0.00001000 0.00000700 -0.06271600 -0.05148600 0.39518300
36 3.99235300 0.89108700 1.82799400 -0.20393000 -0.29652600 1.14066800
37 1.40591800 0.00002100 -0.00000700 -0.00241400 -0.02938600 0.95757000
38 1.17536900 -0.00013100 0.00000200 0.07055700 0.10117400 0.56560400
39 4.52675600 0.69046000 1.12084200 -0.27589600 -0.32990300 1.30340500
40 1.74404100 -0.00003100 -0.00000200 -0.09416100 -0.04065700 0.92656100
41 1.36876300 -0.00003100 -0.00001700 0.07560900 0.13958700 0.31323400
42 1.92187300 0.94015500 -0.99612400 1.12490200 0.45289400 0.00144600
43 1.50960800 -0.11666200 0.06074800 -0.02529400 0.03293700 0.31396200
44 1.59928100 -0.00000200 0.00000900 0.08335800 0.00382800 0.78001600
45 5.51180600 -0.00000200 0.00000600 -0.70632100 0.00000000 0.00000000
46 0.19685000 0.00000300 -0.00000200 -0.34822500 0.00001500 -0.00000200
47 0.00000000 1.00000000 0.00000000 0.00000000 0.00000000 -1.57079600
48 -4.33264100 17.56767300 -4.02389200 0.00000000 0.00000000 -3.14156200
49 3.11545046 29.71999591 1.55480710 -1.05791554 1.47990825 -2.36761588
50 6.10935800 0.54460800 -1.89989600 0.03306700 0.98900600 1.35504400
51 0.82983100 0.00386700 0.16645600 0.00000000 0.00000000 0.00000000
52 -2.90941800 0.16192400 -0.37886600 0.00000000 0.00000000 0.00000000
53 1.36891700 -0.15662100 1.20644400 0.00000000 0.00000000 0.00000000
54 -2.88351400 0.00000000 0.00000000 0.00000000 0.00000000 0.00000000
55 -1.12836800 0.00630200 -0.34957700 0.00000000 0.00000000 0.00000000
56 -0.00248100 0.41638900 0.41662900 0.00000000 0.00000000 0.00000000
57 1.16694600 0.00000000 0.00000000 0.00000000 0.00000000 0.00000000
58 -0.69953300 0.50009800 0.29959900 0.00000000 0.00000000 0.00000000
59 -0.62833600 0.00000000 0.00000000 0.00000000 0.00000000 0.00000000
60 -0.69953300 0.00028700 0.58742100 0.00000000 0.00000000 0.00000000
61 -0.62833600 0.00000000 0.00000000 0.00000000 0.00000000 0.00000000
62 -0.69954100 -0.50021300 0.29787600 0.00000000 0.00000000 0.00000000
63 -0.62833600 0.00000000 0.00000000 0.00000000 0.00000000 0.00000000
64 -0.69954100 -0.49773000 -0.28038800 0.00000000 0.00000000 0.00000000
65 -0.62833600 0.00000000 0.00000000 0.00000000 0.00000000 0.00000000
66 -0.69953300 0.00111400 -0.56828000 0.00000000 0.00000000 0.00000000
67 -0.62833600 0.00000000 0.00000000 0.00000000 0.00000000 0.00000000
68 -0.69953300 0.50080500 -0.28003500 0.00000000 0.00000000 0.00000000
69 -0.62833600 0.00000000 0.00000000 0.00000000 0.00000000 0.00000000
70 6.04272900 -1.76208200 -3.63433700 -3.07075800 0.59300700 -1.86589300
time 1
0 -0.00000100 8.45008800 -27.50902600 0.00000000 0.00000000 0.00003100
1 -0.00000200 0.00000000 0.00000000 1.57074300 -1.56713700 -1.57074300
2 4.25546800 -0.33518300 -0.00000200 0.00000000 0.00000000 -0.12484800
3 7.43124800 1.49647700 0.00000200 0.00000000 0.00000000 0.24545000
4 5.27847900 0.16554100 0.00000100 0.00000000 0.00000000 0.04851100
5 -5.79698800 -11.95122500 1.44048200 1.96020100 1.16288300 -1.31313600
6 -6.21448200 -0.00000700 -0.00002700 -2.20443351 -0.38890163 1.31095890
7 11.94488200 0.00000000 0.00000100 -1.58223043 -0.33820799 1.82383488
8 10.62018100 0.00000200 0.00000000 0.00902419 -0.02564357 2.55765024
9 -4.75110600 -0.69449400 0.83057700 -0.14257400 -0.17062400 0.51888500
10 -1.68806800 0.00004600 -0.00003200 0.02082600 -0.01331000 0.43857400
11 -1.33614000 0.00005700 -0.00001200 0.02584200 0.00517300 0.35617200
12 -4.82049400 -0.50946000 -0.22475900 -0.26084500 0.21374100 1.64897400
13 -1.82699200 -0.00006400 0.00000600 -0.01520200 0.03755300 0.88896800
14 -1.43657300 0.00000600 0.00000200 -0.06517800 -0.04241000 0.90266200
15 -3.99235500 -0.89118800 -1.82790900 -0.52084900 0.34179900 1.51527800
16 -1.40591800 -0.00002500 -0.00000300 0.00507600 -0.02907100 0.70200400
17 -1.17535800 0.00012800 -0.00002000 0.05677300 0.03733400 0.89401900
18 -4.52675100 -0.69057500 -1.12074400 -0.36586200 0.31587000 1.75669500
19 -1.74403800 0.00003300 -0.00000800 -0.01668800 -0.02440900 1.01221400
20 -1.36877100 0.00002500 0.00000200 0.02596100 0.04564200 0.41256700
21 -1.87480000 -0.93512500 0.99917400 1.99500900 0.49378100 0.93085200
22 -1.52345300 0.00003200 0.00003100 0.06491800 0.04056800 0.55288000
23 -1.59928500 0.00000400 0.00001600 0.03779100 -0.02036500 0.47607600
24 5.51181500 0.00000800 -0.00000100 0.69106988 -0.00021224 -3.14108962
25 0.19684700 -0.00000100 0.00000300 2.79340690 -0.00066844 -3.14144365
26 -8.24429000 -13.21718000 -0.51598500 1.99441500 1.15639700 1.85976900
27 6.21448500 0.00000600 0.00002000 -0.46125991 0.06023600 -2.25503425
28 11.94488500 -0.00002900 -0.00019400 0.10741815 -0.32201729 -1.29210289
29 10.62016600 0.00000200 0.00001000 -2.01922991 -0.45041858 0.16439825
30 4.75115600 0.69437600 -0.83047300 0.01997700 -0.44619900 0.94690800
31 1.68806500 -0.00002600 0.00000200 0.01757500 -0.01737000 0.64737200
32 1.33615100 -0.00005100 -0.00000900 0.01100700 -0.03708800 0.08210300
33 4.82051300 0.50934000 0.22486500 -0.04807500 -0.36934800 1.13781900
34 1.82699600 0.00006600 0.00000800 -0.01786200 0.03632900 0.81693800
35 1.43657700 -0.00001000 0.00000700 -0.06271600 -0.05148600 0.39518300
36 3.99235300 0.89108700 1.82799400 -0.20393000 -0.29652600 1.14066800
37 1.40591800 0.00002100 -0.00000700 -0.00241400 -0.02938600 0.95757000
38 1.17536900 -0.00013100 0.00000200 0.07055700 0.10117400 0.56560400
39 4.52675600 0.69046000 1.12084200 -0.27589600 -0.32990300 1.30340500
40 1.74404100 -0.00003100 -0.00000200 -0.09416100 -0.04065700 0.92656100
41 1.36876300 -0.00003100 -0.00001700 0.07560900 0.13958700 0.31323400
42 1.92187300 0.94015500 -0.99612400 1.12490200 0.45289400 0.00144600
43 1.50960800 -0.11666200 0.06074800 -0.02529400 0.03293700 0.31396200
44 1.59928100 -0.00000200 0.00000900 0.08335800 0.00382800 0.78001600
45 5.51180600 -0.00000200 0.00000600 -0.69327200 0.00000000 0.00000000
46 0.19685000 0.00000300 -0.00000200 -0.34822500 0.00001500 -0.00000200
47 0.00000000 1.00000000 0.00000000 0.00000000 0.00000000 -1.57079600
48 -4.33264100 17.56767300 -4.02389200 0.00000000 0.00000000 -3.14156200
49 2.89467811 30.02136091 1.62549791 -0.82932856 1.38516432 -2.12063394
50 6.10933500 0.54460300 -1.89990900 0.03306700 0.98900600 1.35504400
51 0.82983100 0.00386700 0.16645600 0.00000000 0.00000000 0.00000000
52 -2.90941800 0.16192400 -0.37886600 0.00000000 0.00000000 0.00000000
53 1.36891700 -0.15662100 1.20644400 0.00000000 0.00000000 0.00000000
54 -2.88351400 0.00000000 0.00000000 0.00000000 0.00000000 0.00000000
55 -1.12836800 0.00630200 -0.34957700 0.00000000 0.00000000 0.00000000
56 -0.00248100 0.41638900 0.41662900 0.00000000 0.00000000 0.00000000
57 1.16694600 0.00000000 0.00000000 0.00000000 0.00000000 0.00000000
58 -0.69953300 0.50009800 0.29959900 0.00653555 0.00034867 0.00533332
59 -0.62833600 0.00000000 0.00000000 0.00000000 0.00000000 0.00000000
60 -0.69953300 0.00028700 0.58742100 0.00885814 -0.00582072 -0.00786796
61 -0.62833600 0.00000000 0.00000000 0.00000000 0.00000000 0.00000000
62 -0.69954100 -0.50021300 0.29787600 0.00142233 0.00234601 0.00899372
63 -0.62833600 0.00000000 0.00000000 0.00000000 0.00000000 0.00000000
64 -0.69954100 -0.49773000 -0.28038800 -0.00789571 0.00213662 -0.00168108
65 -0.62833600 0.00000000 0.00000000 0.00000000 0.00000000 0.00000000
66 -0.69953300 0.00111400 -0.56828000 -0.00360073 -0.00868121 -0.00150049
67 -0.62833600 0.00000000 0.00000000 0.00000000 0.00000000 0.00000000
68 -0.69953300 0.50080500 -0.28003500 -0.00047175 0.00706156 0.01447984
69 -0.62833600 0.00000000 0.00000000 0.00000000 0.00000000 0.00000000
70 6.04272900 -1.76208200 -3.63433700 -3.07075800 0.59300700 -1.86589300
time 2
0 -0.00000100 8.45008800 -27.50902600 0.00000000 0.00000000 0.00003100
1 -0.00000200 0.00000000 0.00000000 1.57074300 -1.56713700 -1.57074300
2 4.25546800 -0.33518300 -0.00000200 0.00000000 0.00000000 -0.12484800
3 7.43124800 1.49647700 0.00000200 0.00000000 0.00000000 0.24545000
4 5.27847900 0.16554100 0.00000100 0.00000000 0.00000000 0.04851100
5 -5.06495600 -11.62221200 1.44427400 1.91564200 1.17030400 -1.35409900
6 -6.21448200 -0.00000700 -0.00002700 -2.24561031 -0.43472640 1.30479682
7 11.94488200 0.00000000 0.00000100 -1.55853082 -0.30321582 1.87116927
8 10.62018100 0.00000200 0.00000000 0.14927097 -0.19904466 2.37758880
9 -4.75110600 -0.69449400 0.83057700 -0.14257400 -0.17062400 0.51888500
10 -1.68806800 0.00004600 -0.00003200 0.02082600 -0.01331000 0.43857400
11 -1.33614000 0.00005700 -0.00001200 0.02584200 0.00517300 0.35617200
12 -4.82049400 -0.50946000 -0.22475900 -0.26084500 0.21374100 1.64897400
13 -1.82699200 -0.00006400 0.00000600 -0.01520200 0.03755300 0.88896800
14 -1.43657300 0.00000600 0.00000200 -0.06517800 -0.04241000 0.90266200
15 -3.99235500 -0.89118800 -1.82790900 -0.52084900 0.34179900 1.51527800
16 -1.40591800 -0.00002500 -0.00000300 0.00507600 -0.02907100 0.70200400
17 -1.17535800 0.00012800 -0.00002000 0.05677300 0.03733400 0.89401900
18 -4.52675100 -0.69057500 -1.12074400 -0.36586200 0.31587000 1.75669500
19 -1.74403800 0.00003300 -0.00000800 -0.01668800 -0.02440900 1.01221400
20 -1.36877100 0.00002500 0.00000200 0.02596100 0.04564200 0.41256700
21 -1.87480000 -0.93512500 0.99917400 1.99500900 0.49378100 0.93085200
22 -1.52345300 0.00003200 0.00003100 0.06491800 0.04056800 0.55288000
23 -1.59928500 0.00000400 0.00001600 0.03779100 -0.02036500 0.47607600
24 5.51181500 0.00000800 -0.00000100 0.69106988 -0.00021224 -3.14108962
25 0.19684700 -0.00000100 0.00000300 2.79340690 -0.00066844 -3.14144365
26 -7.46120000 -12.76575500 -0.48984600 2.04320600 1.14617400 1.90440700
27 6.21448500 0.00000600 0.00002000 -0.48089308 0.12828433 -2.19347128
28 11.94488500 -0.00002900 -0.00019400 0.09268671 -0.33119092 -1.42848409
29 10.62016600 0.00000200 0.00001000 -2.04165461 -0.33389513 0.41556580
30 4.75115600 0.69437600 -0.83047300 0.01997700 -0.44619900 0.94690800
31 1.68806500 -0.00002600 0.00000200 0.01757500 -0.01737000 0.64737200
32 1.33615100 -0.00005100 -0.00000900 0.01100700 -0.03708800 0.08210300
33 4.82051300 0.50934000 0.22486500 -0.04807500 -0.36934800 1.13781900
34 1.82699600 0.00006600 0.00000800 -0.01786200 0.03632900 0.81693800
35 1.43657700 -0.00001000 0.00000700 -0.06271600 -0.05148600 0.39518300
36 3.99235300 0.89108700 1.82799400 -0.20393000 -0.29652600 1.14066800
37 1.40591800 0.00002100 -0.00000700 -0.00241400 -0.02938600 0.95757000
38 1.17536900 -0.00013100 0.00000200 0.07055700 0.10117400 0.56560400
39 4.52675600 0.69046000 1.12084200 -0.27589600 -0.32990300 1.30340500
40 1.74404100 -0.00003100 -0.00000200 -0.09416100 -0.04065700 0.92656100
41 1.36876300 -0.00003100 -0.00001700 0.07560900 0.13958700 0.31323400
42 1.92187300 0.94015500 -0.99612400 1.12490200 0.45289400 0.00144600
43 1.50960800 -0.11666200 0.06074800 -0.02529400 0.03293700 0.31396200
44 1.59928100 -0.00000200 0.00000900 0.08335800 0.00382800 0.78001600
45 5.51180600 -0.00000200 0.00000600 -0.65777100 0.00000000 0.00000000
46 0.19685000 0.00000300 -0.00000200 -0.34822500 0.00001500 -0.00000200
47 0.00000000 1.00000000 0.00000000 0.00000000 0.00000000 -1.57079600
48 -4.33264100 17.56767300 -4.02389200 0.00000000 0.00000000 -3.14156200
49 2.32091106 30.85084391 1.78925802 -0.66462750 1.14471135 -1.93862439
50 6.10930300 0.54459100 -1.89992500 0.03306700 0.98900600 1.35504400
51 0.82983100 0.00386700 0.16645600 0.00000000 0.00000000 0.00000000
52 -2.90941800 0.16192400 -0.37886600 0.00000000 0.00000000 0.00000000
53 1.36891700 -0.15662100 1.20644400 0.00000000 0.00000000 0.00000000
54 -2.88351400 0.00000000 0.00000000 0.00000000 0.00000000 0.00000000
55 -1.12836800 0.00630200 -0.34957700 0.00000000 0.00000000 0.00000000
56 -0.00248100 0.41638900 0.41662900 0.00000000 0.00000000 0.00000000
57 1.16694600 0.00000000 0.00000000 0.00000000 0.00000000 0.00000000
58 -0.69953300 0.50009800 0.29959900 0.02039729 0.00089027 0.01522365
59 -0.62833600 0.00000000 0.00000000 0.00000000 0.00000000 0.00000000
60 -0.69953300 0.00028700 0.58742100 0.02550093 -0.01643470 -0.02342696
61 -0.62833600 0.00000000 0.00000000 0.00000000 0.00000000 0.00000000
62 -0.69954100 -0.50021300 0.29787600 0.00416454 0.00669151 0.02573717
63 -0.62833600 0.00000000 0.00000000 0.00000000 0.00000000 0.00000000
64 -0.69954100 -0.49773000 -0.28038800 -0.02438123 0.00609820 -0.00587824
65 -0.62833600 0.00000000 0.00000000 0.00000000 0.00000000 0.00000000
66 -0.69953300 0.00111400 -0.56828000 -0.01029892 -0.02485689 -0.00431606
67 -0.62833600 0.00000000 0.00000000 0.00000000 0.00000000 0.00000000
68 -0.69953300 0.50080500 -0.28003500 -0.00114161 0.02062935 0.04145666
69 -0.62833600 0.00000000 0.00000000 0.00000000 0.00000000 0.00000000
70 6.04272900 -1.76208200 -3.63433700 -3.07075800 0.59300700 -1.86589300
time 3
0 -0.00000100 8.45008800 -27.50902600 0.00000000 0.00000000 0.00003100
1 -0.00000200 0.00000000 0.00000000 1.57074300 -1.56713700 -1.57074300
2 4.25546800 -0.33518300 -0.00000200 0.00000000 0.00000000 -0.12484800
3 7.43124800 1.49647700 0.00000200 0.00000000 0.00000000 0.24545000
4 5.27847900 0.16554100 0.00000100 0.00000000 0.00000000 0.04851100
5 -3.98617600 -11.13734800 1.44986200 1.84735600 1.17992700 -1.41714800
6 -6.21448200 -0.00000700 -0.00002700 -2.27107797 -0.46144959 1.30660071
7 11.94488200 0.00000000 0.00000100 -1.50411582 -0.25973345 1.88724574
8 10.62018100 0.00000200 0.00000000 0.34612015 -0.40784421 2.17101412
9 -4.75110600 -0.69449400 0.83057700 -0.14257400 -0.17062400 0.51888500
10 -1.68806800 0.00004600 -0.00003200 0.02082600 -0.01331000 0.43857400
11 -1.33614000 0.00005700 -0.00001200 0.02584200 0.00517300 0.35617200
12 -4.82049400 -0.50946000 -0.22475900 -0.26084500 0.21374100 1.64897400
13 -1.82699200 -0.00006400 0.00000600 -0.01520200 0.03755300 0.88896800
14 -1.43657300 0.00000600 0.00000200 -0.06517800 -0.04241000 0.90266200
15 -3.99235500 -0.89118800 -1.82790900 -0.52084900 0.34179900 1.51527800
16 -1.40591800 -0.00002500 -0.00000300 0.00507600 -0.02907100 0.70200400
17 -1.17535800 0.00012800 -0.00002000 0.05677300 0.03733400 0.89401900
18 -4.52675100 -0.69057500 -1.12074400 -0.36586200 0.31587000 1.75669500
19 -1.74403800 0.00003300 -0.00000800 -0.01668800 -0.02440900 1.01221400
20 -1.36877100 0.00002500 0.00000200 0.02596100 0.04564200 0.41256700
21 -1.87480000 -0.93512500 0.99917400 1.99500900 0.49378100 0.93085200
22 -1.52345300 0.00003200 0.00003100 0.06491800 0.04056800 0.55288000
23 -1.59928500 0.00000400 0.00001600 0.03779100 -0.02036500 0.47607600
24 5.51181500 0.00000800 -0.00000100 0.69106988 -0.00021224 -3.14108962
25 0.19684700 -0.00000100 0.00000300 2.79340690 -0.00066844 -3.14144365
26 -6.30717300 -12.10049800 -0.45132600 2.11115200 1.12946000 1.96607600
27 6.21448500 0.00000600 0.00002000 -0.49065527 0.19524476 -2.14214651
28 11.94488500 -0.00002900 -0.00019400 0.03211032 -0.33849115 -1.52784611
29 10.62016600 0.00000200 0.00001000 -2.06409867 -0.28221223 0.71936844
30 4.75115600 0.69437600 -0.83047300 0.01997700 -0.44619900 0.94690800
31 1.68806500 -0.00002600 0.00000200 0.01757500 -0.01737000 0.64737200
32 1.33615100 -0.00005100 -0.00000900 0.01100700 -0.03708800 0.08210300
33 4.82051300 0.50934000 0.22486500 -0.04807500 -0.36934800 1.13781900
34 1.82699600 0.00006600 0.00000800 -0.01786200 0.03632900 0.81693800
35 1.43657700 -0.00001000 0.00000700 -0.06271600 -0.05148600 0.39518300
36 3.99235300 0.89108700 1.82799400 -0.20393000 -0.29652600 1.14066800
37 1.40591800 0.00002100 -0.00000700 -0.00241400 -0.02938600 0.95757000
38 1.17536900 -0.00013100 0.00000200 0.07055700 0.10117400 0.56560400
39 4.52675600 0.69046000 1.12084200 -0.27589600 -0.32990300 1.30340500
40 1.74404100 -0.00003100 -0.00000200 -0.09416100 -0.04065700 0.92656100
41 1.36876300 -0.00003100 -0.00001700 0.07560900 0.13958700 0.31323400
42 1.92187300 0.94015500 -0.99612400 1.12490200 0.45289400 0.00144600
43 1.50960800 -0.11666200 0.06074800 -0.02529400 0.03293700 0.31396200
44 1.59928100 -0.00000200 0.00000900 0.08335800 0.00382800 0.78001600
45 5.51180600 -0.00000200 0.00000600 -0.60509700 0.00000000 0.00000000
46 0.19685000 0.00000300 -0.00000200 -0.34822500 0.00001500 -0.00000200
47 0.00000000 1.00000000 0.00000000 0.00000000 0.00000000 -1.57079600
48 -4.33264100 17.56767300 -4.02389200 0.00000000 0.00000000 -3.14156200
49 1.56426146 32.09367291 1.91259045 -0.52580204 0.83344842 -1.78984927
50 6.10921600 0.54455500 -1.89992700 0.03306700 0.98900600 1.35504400
51 0.82983100 0.00386700 0.16645600 0.00000000 0.00000000 0.00000000
52 -2.90941800 0.16192400 -0.37886600 0.00000000 0.00000000 0.00000000
53 1.36891700 -0.15662100 1.20644400 0.00000000 0.00000000 0.00000000
54 -2.88351400 0.00000000 0.00000000 0.00000000 0.00000000 0.00000000
55 -1.12836800 0.00630200 -0.34957700 0.00000000 0.00000000 0.00000000
56 -0.00248100 0.41638900 0.41662900 0.00000000 0.00000000 0.00000000
57 1.16694600 0.00000000 0.00000000 0.00000000 0.00000000 0.00000000
58 -0.69953300 0.50009800 0.29959900 0.03279631 0.00107432 0.02056803
59 -0.62833600 0.00000000 0.00000000 0.00000000 0.00000000 0.00000000
60 -0.69953300 0.00028700 0.58742100 0.03457731 -0.02201146 -0.03380170
61 -0.62833600 0.00000000 0.00000000 0.00000000 0.00000000 0.00000000
62 -0.69954100 -0.50021300 0.29787600 0.00569919 0.00899954 0.03474377
63 -0.62833600 0.00000000 0.00000000 0.00000000 0.00000000 0.00000000
64 -0.69954100 -0.49773000 -0.28038800 -0.03868602 0.00815669 -0.01087834
65 -0.62833600 0.00000000 0.00000000 0.00000000 0.00000000 0.00000000
66 -0.69953300 0.00111400 -0.56828000 -0.01391703 -0.03360861 -0.00577953
67 -0.62833600 0.00000000 0.00000000 0.00000000 0.00000000 0.00000000
68 -0.69953300 0.50080500 -0.28003500 -0.00132546 0.02928152 0.05594753
69 -0.62833600 0.00000000 0.00000000 0.00000000 0.00000000 0.00000000
70 6.04272900 -1.76208200 -3.63433700 -3.07075800 0.59300700 -1.86589300
time 4
0 -0.00000100 8.45008800 -27.50902600 0.00000000 0.00000000 0.00003100
1 -0.00000200 0.00000000 0.00000000 1.57074300 -1.56713700 -1.57074300
2 4.25546800 -0.33518300 -0.00000200 0.00000000 0.00000000 -0.12484800
3 7.43124800 1.49647700 0.00000200 0.00000000 0.00000000 0.24545000
4 5.27847900 0.16554100 0.00000100 0.00000000 0.00000000 0.04851100
5 -2.67622900 -10.54858400 1.45664700 1.76010100 1.18934100 -1.49793800
6 -6.21448200 -0.00000700 -0.00002700 -2.27026300 -0.48453959 1.34083129
7 11.94488200 0.00000000 0.00000100 -1.42277028 -0.21177506 1.84899955
8 10.62018100 0.00000200 0.00000000 0.53889634 -0.58893570 2.04780364
9 -4.75110600 -0.69449400 0.83057700 -0.14257400 -0.17062400 0.51888500
10 -1.68806800 0.00004600 -0.00003200 0.02082600 -0.01331000 0.43857400
11 -1.33614000 0.00005700 -0.00001200 0.02584200 0.00517300 0.35617200
12 -4.82049400 -0.50946000 -0.22475900 -0.26084500 0.21374100 1.64897400
13 -1.82699200 -0.00006400 0.00000600 -0.01520200 0.03755300 0.88896800
14 -1.43657300 0.00000600 0.00000200 -0.06517800 -0.04241000 0.90266200
15 -3.99235500 -0.89118800 -1.82790900 -0.52084900 0.34179900 1.51527800
16 -1.40591800 -0.00002500 -0.00000300 0.00507600 -0.02907100 0.70200400
17 -1.17535800 0.00012800 -0.00002000 0.05677300 0.03733400 0.89401900
18 -4.52675100 -0.69057500 -1.12074400 -0.36586200 0.31587000 1.75669500
19 -1.74403800 0.00003300 -0.00000800 -0.01668800 -0.02440900 1.01221400
20 -1.36877100 0.00002500 0.00000200 0.02596100 0.04564200 0.41256700
21 -1.87480000 -0.93512500 0.99917400 1.99500900 0.49378100 0.93085200
22 -1.52345300 0.00003200 0.00003100 0.06491800 0.04056800 0.55288000
23 -1.59928500 0.00000400 0.00001600 0.03779100 -0.02036500 0.47607600
24 5.51181500 0.00000800 -0.00000100 0.69106988 -0.00021224 -3.14108962
25 0.19684700 -0.00000100 0.00000300 2.79340690 -0.00066844 -3.14144365
26 -4.90585800 -11.29268500 -0.40455100 2.18703700 1.10701100 2.03428900
27 6.21448500 0.00000600 0.00002000 -0.45896475 0.26196856 -2.10054091
28 11.94488500 -0.00002900 -0.00019400 -0.08704064 -0.34299137 -1.54247349
29 10.62016600 0.00000200 0.00001000 -2.17965103 -0.36220543 0.96516536
30 4.75115600 0.69437600 -0.83047300 0.01997700 -0.44619900 0.94690800
31 1.68806500 -0.00002600 0.00000200 0.01757500 -0.01737000 0.64737200
32 1.33615100 -0.00005100 -0.00000900 0.01100700 -0.03708800 0.08210300
33 4.82051300 0.50934000 0.22486500 -0.04807500 -0.36934800 1.13781900
34 1.82699600 0.00006600 0.00000800 -0.01786200 0.03632900 0.81693800
35 1.43657700 -0.00001000 0.00000700 -0.06271600 -0.05148600 0.39518300
36 3.99235300 0.89108700 1.82799400 -0.20393000 -0.29652600 1.14066800
37 1.40591800 0.00002100 -0.00000700 -0.00241400 -0.02938600 0.95757000
38 1.17536900 -0.00013100 0.00000200 0.07055700 0.10117400 0.56560400
39 4.52675600 0.69046000 1.12084200 -0.27589600 -0.32990300 1.30340500
40 1.74404100 -0.00003100 -0.00000200 -0.09416100 -0.04065700 0.92656100
41 1.36876300 -0.00003100 -0.00001700 0.07560900 0.13958700 0.31323400
42 1.92187300 0.94015500 -0.99612400 1.12490200 0.45289400 0.00144600
43 1.50960800 -0.11666200 0.06074800 -0.02529400 0.03293700 0.31396200
44 1.59928100 -0.00000200 0.00000900 0.08335800 0.00382800 0.78001600
45 5.51180600 -0.00000200 0.00000600 -0.54101800 0.00000000 0.00000000
46 0.19685000 0.00000300 -0.00000200 -0.34822500 0.00001500 -0.00000200
47 0.00000000 1.00000000 0.00000000 0.00000000 0.00000000 -1.57079600
48 -4.33264100 17.56767300 -4.02389200 0.00000000 0.00000000 -3.14156200
49 0.77753583 33.60000891 1.63596489 -0.35031713 0.52093704 -1.65493332
50 6.10906600 0.54448800 -1.89988600 0.03306700 0.98900600 1.35504400
51 0.82983100 0.00386700 0.16645600 0.00000000 0.00000000 0.00000000
52 -2.90941800 0.16192400 -0.37886600 0.00000000 0.00000000 0.00000000
53 1.36891700 -0.15662100 1.20644400 0.00000000 0.00000000 0.00000000
54 -2.88351400 0.00000000 0.00000000 0.00000000 0.00000000 0.00000000
55 -1.12836800 0.00630200 -0.34957700 0.00000000 0.00000000 0.00000000
56 -0.00248100 0.41638900 0.41662900 0.00000000 0.00000000 0.00000000
57 1.16694600 0.00000000 0.00000000 0.00000000 0.00000000 0.00000000
58 -0.69953300 0.50009800 0.29959900 0.03995074 -0.00004343 0.02049964
59 -0.62833600 0.00000000 0.00000000 0.00000000 0.00000000 0.00000000
60 -0.69953300 0.00028700 0.58742100 0.02352765 -0.01975967 -0.03636852
61 -0.62833600 0.00000000 0.00000000 0.00000000 0.00000000 0.00000000
62 -0.69954100 -0.50021300 0.29787600 -0.00101173 0.00801809 0.03466146
63 -0.62833600 0.00000000 0.00000000 0.00000000 0.00000000 0.00000000
64 -0.69954100 -0.49773000 -0.28038800 -0.04643562 0.00665392 -0.01527010
65 -0.62833600 0.00000000 0.00000000 0.00000000 0.00000000 0.00000000
66 -0.69953300 0.00111400 -0.56828000 -0.01246392 -0.02908449 -0.00227635
67 -0.62833600 0.00000000 0.00000000 0.00000000 0.00000000 0.00000000
68 -0.69953300 0.50080500 -0.28003500 0.00395548 0.03106980 0.05587260
69 -0.62833600 0.00000000 0.00000000 0.00000000 0.00000000 0.00000000
70 6.04272900 -1.76208200 -3.63433700 -3.07075800 0.59300700 -1.86589300
time 5
0 -0.00000100 8.45008800 -27.50902600 0.00000000 0.00000000 0.00003100
1 -0.00000200 0.00000000 0.00000000 1.57074300 -1.56713700 -1.57074300
2 4.25546800 -0.33518300 -0.00000200 0.00000000 0.00000000 -0.12484800
3 7.43124800 1.49647700 0.00000200 0.00000000 0.00000000 0.24545000
4 5.27847900 0.16554100 0.00000100 0.00000000 0.00000000 0.04851100
5 -1.25069900 -9.90787100 1.46403000 1.66129600 1.19644900 -1.58975700
6 -6.21448200 -0.00000700 -0.00002700 -2.26497927 -0.50727339 1.38154207
7 11.94488200 0.00000000 0.00000100 -1.32682751 -0.15896137 1.74528499
8 10.62018100 0.00000200 0.00000000 0.68638976 -0.67993526 2.01764513
9 -4.75110600 -0.69449400 0.83057700 -0.14257400 -0.17062400 0.51888500
10 -1.68806800 0.00004600 -0.00003200 0.02082600 -0.01331000 0.43857400
11 -1.33614000 0.00005700 -0.00001200 0.02584200 0.00517300 0.35617200
12 -4.82049400 -0.50946000 -0.22475900 -0.26084500 0.21374100 1.64897400
13 -1.82699200 -0.00006400 0.00000600 -0.01520200 0.03755300 0.88896800
14 -1.43657300 0.00000600 0.00000200 -0.06517800 -0.04241000 0.90266200
15 -3.99235500 -0.89118800 -1.82790900 -0.52084900 0.34179900 1.51527800
16 -1.40591800 -0.00002500 -0.00000300 0.00507600 -0.02907100 0.70200400
17 -1.17535800 0.00012800 -0.00002000 0.05677300 0.03733400 0.89401900
18 -4.52675100 -0.69057500 -1.12074400 -0.36586200 0.31587000 1.75669500
19 -1.74403800 0.00003300 -0.00000800 -0.01668800 -0.02440900 1.01221400
20 -1.36877100 0.00002500 0.00000200 0.02596100 0.04564200 0.41256700
21 -1.87480000 -0.93512500 0.99917400 1.99500900 0.49378100 0.93085200
22 -1.52345300 0.00003200 0.00003100 0.06491800 0.04056800 0.55288000
23 -1.59928500 0.00000400 0.00001600 0.03779100 -0.02036500 0.47607600
24 5.51181500 0.00000800 -0.00000100 0.69106988 -0.00021224 -3.14108962
25 0.19684700 -0.00000100 0.00000300 2.79340690 -0.00066844 -3.14144365
26 -3.38089600 -10.41359300 -0.35364900 2.26198600 1.08017900 2.10091200
27 6.21448500 0.00000600 0.00002000 -0.40808554 0.32709616 -2.05670318
28 11.94488500 -0.00002900 -0.00019400 -0.25606068 -0.34469893 -1.47825377
29 10.62016600 0.00000200 0.00001000 -2.36483413 -0.46753453 1.07950792
30 4.75115600 0.69437600 -0.83047300 0.01997700 -0.44619900 0.94690800
31 1.68806500 -0.00002600 0.00000200 0.01757500 -0.01737000 0.64737200
32 1.33615100 -0.00005100 -0.00000900 0.01100700 -0.03708800 0.08210300
33 4.82051300 0.50934000 0.22486500 -0.04807500 -0.36934800 1.13781900
34 1.82699600 0.00006600 0.00000800 -0.01786200 0.03632900 0.81693800
35 1.43657700 -0.00001000 0.00000700 -0.06271600 -0.05148600 0.39518300
36 3.99235300 0.89108700 1.82799400 -0.20393000 -0.29652600 1.14066800
37 1.40591800 0.00002100 -0.00000700 -0.00241400 -0.02938600 0.95757000
38 1.17536900 -0.00013100 0.00000200 0.07055700 0.10117400 0.56560400
39 4.52675600 0.69046000 1.12084200 -0.27589600 -0.32990300 1.30340500
40 1.74404100 -0.00003100 -0.00000200 -0.09416100 -0.04065700 0.92656100
41 1.36876300 -0.00003100 -0.00001700 0.07560900 0.13958700 0.31323400
42 1.92187300 0.94015500 -0.99612400 1.12490200 0.45289400 0.00144600
43 1.50960800 -0.11666200 0.06074800 -0.02529400 0.03293700 0.31396200
44 1.59928100 -0.00000200 0.00000900 0.08335800 0.00382800 0.78001600
45 5.51180600 -0.00000200 0.00000600 -0.47102000 0.00000000 0.00000000
46 0.19685000 0.00000300 -0.00000200 -0.34822500 0.00001500 -0.00000200
47 0.00000000 1.00000000 0.00000000 0.00000000 0.00000000 -1.57079600
48 -4.33264100 17.56767300 -4.02389200 0.00000000 0.00000000 -3.14156200
49 0.05757330 35.08968291 0.93714046 -0.16485544 0.24799461 -1.58472436
50 6.10911300 0.54451300 -1.89983300 0.03306700 0.98900600 1.35504400
51 0.82983100 0.00386700 0.16645600 0.00000000 0.00000000 0.00000000
52 -2.90941800 0.16192400 -0.37886600 0.00000000 0.00000000 0.00000000
53 1.36891700 -0.15662100 1.20644400 0.00000000 0.00000000 0.00000000
54 -2.88351400 0.00000000 0.00000000 0.00000000 0.00000000 0.00000000
55 -1.12836800 0.00630200 -0.34957700 0.00000000 0.00000000 0.00000000
56 -0.00248100 0.41638900 0.41662900 0.00000000 0.00000000 0.00000000
57 1.16694600 0.00000000 0.00000000 0.00000000 0.00000000 0.00000000
58 -0.69953300 0.50009800 0.29959900 0.04431932 -0.00259261 0.02023510
59 -0.62833600 0.00000000 0.00000000 0.00000000 0.00000000 0.00000000
60 -0.69953300 0.00028700 0.58742100 -0.00276203 -0.01448489 -0.03741893
61 -0.62833600 0.00000000 0.00000000 0.00000000 0.00000000 0.00000000
62 -0.69954100 -0.50021300 0.29787600 -0.01851959 0.00560119 0.03451102
63 -0.62833600 0.00000000 0.00000000 0.00000000 0.00000000 0.00000000
64 -0.69954100 -0.49773000 -0.28038800 -0.05112617 0.00333900 -0.01875890
65 -0.62833600 0.00000000 0.00000000 0.00000000 0.00000000 0.00000000
66 -0.69953300 0.00111400 -0.56828000 -0.00889096 -0.01832414 0.00604141
67 -0.62833600 0.00000000 0.00000000 0.00000000 0.00000000 0.00000000
68 -0.69953300 0.50080500 -0.28003500 0.01658043 0.03187315 0.05545085
69 -0.62833600 0.00000000 0.00000000 0.00000000 0.00000000 0.00000000
70 6.04272900 -1.76208200 -3.63433700 -3.07075800 0.59300700 -1.86589300
time 6
0 -0.00000100 8.45008800 -27.50902600 0.00000000 0.00000000 0.00003100
1 -0.00000200 0.00000000 0.00000000 1.57074300 -1.56713700 -1.57074300
2 4.25546800 -0.33518300 -0.00000200 0.00000000 0.00000000 -0.12484800
3 7.43124800 1.49647700 0.00000200 0.00000000 0.00000000 0.24545000
4 5.27847900 0.16554100 0.00000100 0.00000000 0.00000000 0.04851100
5 0.17483200 -9.26715900 1.47141400 1.55956200 1.20012100 -1.68455000
6 -6.21448200 -0.00000700 -0.00002700 -2.26265368 -0.52180520 1.40100617
7 11.94488200 0.00000000 0.00000100 -1.23699177 -0.10254429 1.59735369
8 10.62018100 0.00000200 0.00000000 0.73165574 -0.67394994 2.05639716
9 -4.75110600 -0.69449400 0.83057700 -0.14257400 -0.17062400 0.51888500
10 -1.68806800 0.00004600 -0.00003200 0.02082600 -0.01331000 0.43857400
11 -1.33614000 0.00005700 -0.00001200 0.02584200 0.00517300 0.35617200
12 -4.82049400 -0.50946000 -0.22475900 -0.26084500 0.21374100 1.64897400
13 -1.82699200 -0.00006400 0.00000600 -0.01520200 0.03755300 0.88896800
14 -1.43657300 0.00000600 0.00000200 -0.06517800 -0.04241000 0.90266200
15 -3.99235500 -0.89118800 -1.82790900 -0.52084900 0.34179900 1.51527800
16 -1.40591800 -0.00002500 -0.00000300 0.00507600 -0.02907100 0.70200400
17 -1.17535800 0.00012800 -0.00002000 0.05677300 0.03733400 0.89401900
18 -4.52675100 -0.69057500 -1.12074400 -0.36586200 0.31587000 1.75669500
19 -1.74403800 0.00003300 -0.00000800 -0.01668800 -0.02440900 1.01221400
20 -1.36877100 0.00002500 0.00000200 0.02596100 0.04564200 0.41256700
21 -1.87480000 -0.93512500 0.99917400 1.99500900 0.49378100 0.93085200
22 -1.52345300 0.00003200 0.00003100 0.06491800 0.04056800 0.55288000
23 -1.59928500 0.00000400 0.00001600 0.03779100 -0.02036500 0.47607600
24 5.51181500 0.00000800 -0.00000100 0.69106988 -0.00021224 -3.14108962
25 0.19684700 -0.00000100 0.00000300 2.79340690 -0.00066844 -3.14144365
26 -1.85593300 -9.53450400 -0.30274800 2.32951900 1.05115900 2.15998000
27 6.21448500 0.00000600 0.00002000 -0.36884015 0.37863211 -2.01596003
28 11.94488500 -0.00002900 -0.00019400 -0.45432880 -0.34035861 -1.36408267
29 10.62016600 0.00000200 0.00001000 -2.46033768 -0.56129155 1.04552483
30 4.75115600 0.69437600 -0.83047300 0.01997700 -0.44619900 0.94690800
31 1.68806500 -0.00002600 0.00000200 0.01757500 -0.01737000 0.64737200
32 1.33615100 -0.00005100 -0.00000900 0.01100700 -0.03708800 0.08210300
33 4.82051300 0.50934000 0.22486500 -0.04807500 -0.36934800 1.13781900
34 1.82699600 0.00006600 0.00000800 -0.01786200 0.03632900 0.81693800
35 1.43657700 -0.00001000 0.00000700 -0.06271600 -0.05148600 0.39518300
36 3.99235300 0.89108700 1.82799400 -0.20393000 -0.29652600 1.14066800
37 1.40591800 0.00002100 -0.00000700 -0.00241400 -0.02938600 0.95757000
38 1.17536900 -0.00013100 0.00000200 0.07055700 0.10117400 0.56560400
39 4.52675600 0.69046000 1.12084200 -0.27589600 -0.32990300 1.30340500
40 1.74404100 -0.00003100 -0.00000200 -0.09416100 -0.04065700 0.92656100
41 1.36876300 -0.00003100 -0.00001700 0.07560900 0.13958700 0.31323400
42 1.92187300 0.94015500 -0.99612400 1.12490200 0.45289400 0.00144600
43 1.50960800 -0.11666200 0.06074800 -0.02529400 0.03293700 0.31396200
44 1.59928100 -0.00000200 0.00000900 0.08335800 0.00382800 0.78001600
45 5.51180600 -0.00000200 0.00000600 -0.40107700 0.00000000 0.00000000
46 0.19685000 0.00000300 -0.00000200 -0.34822500 0.00001500 -0.00000200
47 0.00000000 1.00000000 0.00000000 0.00000000 0.00000000 -1.57079600
48 -4.33264100 17.56767300 -4.02389200 0.00000000 0.00000000 -3.14156200
49 -0.51168036 36.25011391 0.19553997 -0.01848609 0.06105306 -1.56412145
50 6.10928800 0.54458300 -1.89986800 0.03306700 0.98900600 1.35504400
51 0.82983100 0.00386700 0.16645600 0.00000000 0.00000000 0.00000000
52 -2.90941800 0.16192400 -0.37886600 0.00000000 0.00000000 0.00000000
53 1.36891700 -0.15662100 1.20644400 0.00000000 0.00000000 0.00000000
54 -2.88351400 0.00000000 0.00000000 0.00000000 0.00000000 0.00000000
55 -1.12836800 0.00630200 -0.34957700 0.00000000 0.00000000 0.00000000
56 -0.00248100 0.41638900 0.41662900 0.00000000 0.00000000 0.00000000
57 1.16694600 0.00000000 0.00000000 0.00000000 0.00000000 0.00000000
58 -0.69953300 0.50009800 0.29959900 0.04648783 -0.00563140 0.01948302
59 -0.62833600 0.00000000 0.00000000 0.00000000 0.00000000 0.00000000
60 -0.69953300 0.00028700 0.58742100 -0.03425886 -0.00818073 -0.03788145
61 -0.62833600 0.00000000 0.00000000 0.00000000 0.00000000 0.00000000
62 -0.69954100 -0.50021300 0.29787600 -0.04279581 0.00225372 0.03442034
63 -0.62833600 0.00000000 0.00000000 0.00000000 0.00000000 0.00000000
64 -0.69954100 -0.49773000 -0.28038800 -0.05354899 -0.00056984 -0.02127497
65 -0.62833600 0.00000000 0.00000000 0.00000000 0.00000000 0.00000000
66 -0.69953300 0.00111400 -0.56828000 -0.00459288 -0.00555749 0.01606268
67 -0.62833600 0.00000000 0.00000000 0.00000000 0.00000000 0.00000000
68 -0.69953300 0.50080500 -0.28003500 0.03158813 0.03205152 0.05449672
69 -0.62833600 0.00000000 0.00000000 0.00000000 0.00000000 0.00000000
70 6.04272900 -1.76208200 -3.63433700 -3.07075800 0.59300700 -1.86589300
time 7
0 -0.00000100 8.45008800 -27.50902600 0.00000000 0.00000000 0.00003100
1 -0.00000200 0.00000000 0.00000000 1.57074300 -1.56713700 -1.57074300
2 4.25546800 -0.33518300 -0.00000200 0.00000000 0.00000000 -0.12484800
3 7.43124800 1.49647700 0.00000200 0.00000000 0.00000000 0.24545000
4 5.27847900 0.16554100 0.00000100 0.00000000 0.00000000 0.04851100
5 1.48477900 -8.67839400 1.47820000 1.46528100 1.20041700 -1.77248500
6 -6.21448200 -0.00000700 -0.00002700 -2.26502206 -0.53908008 1.40575420
7 11.94488200 0.00000000 0.00000100 -1.16934637 -0.04828859 1.46701547
8 10.62018100 0.00000200 0.00000000 0.66483029 -0.59126186 2.11224921
9 -4.75110600 -0.69449400 0.83057700 -0.14257400 -0.17062400 0.51888500
10 -1.68806800 0.00004600 -0.00003200 0.02082600 -0.01331000 0.43857400
11 -1.33614000 0.00005700 -0.00001200 0.02584200 0.00517300 0.35617200
12 -4.82049400 -0.50946000 -0.22475900 -0.26084500 0.21374100 1.64897400
13 -1.82699200 -0.00006400 0.00000600 -0.01520200 0.03755300 0.88896800
14 -1.43657300 0.00000600 0.00000200 -0.06517800 -0.04241000 0.90266200
15 -3.99235500 -0.89118800 -1.82790900 -0.52084900 0.34179900 1.51527800
16 -1.40591800 -0.00002500 -0.00000300 0.00507600 -0.02907100 0.70200400
17 -1.17535800 0.00012800 -0.00002000 0.05677300 0.03733400 0.89401900
18 -4.52675100 -0.69057500 -1.12074400 -0.36586200 0.31587000 1.75669500
19 -1.74403800 0.00003300 -0.00000800 -0.01668800 -0.02440900 1.01221400
20 -1.36877100 0.00002500 0.00000200 0.02596100 0.04564200 0.41256700
21 -1.87480000 -0.93512500 0.99917400 1.99500900 0.49378100 0.93085200
22 -1.52345300 0.00003200 0.00003100 0.06491800 0.04056800 0.55288000
23 -1.59928500 0.00000400 0.00001600 0.03779100 -0.02036500 0.47607600
24 5.51181500 0.00000800 -0.00000100 0.69106988 -0.00021224 -3.14108962
25 0.19684700 -0.00000100 0.00000300 2.79340690 -0.00066844 -3.14144365
26 -0.45461500 -8.72668800 -0.25597300 2.38548800 1.02303400 2.20816600
27 6.21448500 0.00000600 0.00002000 -0.34417149 0.41716840 -1.97951719
28 11.94488500 -0.00002900 -0.00019400 -0.64887238 -0.33075668 -1.25140227
29 10.62016600 0.00000200 0.00001000 -2.36166619 -0.64869383 0.87834057
30 4.75115600 0.69437600 -0.83047300 0.01997700 -0.44619900 0.94690800
31 1.68806500 -0.00002600 0.00000200 0.01757500 -0.01737000 0.64737200
32 1.33615100 -0.00005100 -0.00000900 0.01100700 -0.03708800 0.08210300
33 4.82051300 0.50934000 0.22486500 -0.04807500 -0.36934800 1.13781900
34 1.82699600 0.00006600 0.00000800 -0.01786200 0.03632900 0.81693800
35 1.43657700 -0.00001000 0.00000700 -0.06271600 -0.05148600 0.39518300
36 3.99235300 0.89108700 1.82799400 -0.20393000 -0.29652600 1.14066800
37 1.40591800 0.00002100 -0.00000700 -0.00241400 -0.02938600 0.95757000
38 1.17536900 -0.00013100 0.00000200 0.07055700 0.10117400 0.56560400
39 4.52675600 0.69046000 1.12084200 -0.27589600 -0.32990300 1.30340500
40 1.74404100 -0.00003100 -0.00000200 -0.09416100 -0.04065700 0.92656100
41 1.36876300 -0.00003100 -0.00001700 0.07560900 0.13958700 0.31323400
42 1.92187300 0.94015500 -0.99612400 1.12490200 0.45289400 0.00144600
43 1.50960800 -0.11666200 0.06074800 -0.02529400 0.03293700 0.31396200
44 1.59928100 -0.00000200 0.00000900 0.08335800 0.00382800 0.78001600
45 5.51180600 -0.00000200 0.00000600 -0.33696800 0.00000000 0.00000000
46 0.19685000 0.00000300 -0.00000200 -0.34822500 0.00001500 -0.00000200
47 0.00000000 1.00000000 0.00000000 0.00000000 0.00000000 -1.57079600
48 -4.33264100 17.56767300 -4.02389200 0.00000000 0.00000000 -3.14156200
49 -0.84938039 36.76872191 -0.18403448 0.04325956 -0.00644877 -1.56182438
50 6.10933000 0.54459900 -1.89988400 0.03306700 0.98900600 1.35504400
51 0.82983100 0.00386700 0.16645600 0.00000000 0.00000000 0.00000000
52 -2.90941800 0.16192400 -0.37886600 0.00000000 0.00000000 0.00000000
53 1.36891700 -0.15662100 1.20644400 0.00000000 0.00000000 0.00000000
54 -2.88351400 0.00000000 0.00000000 0.00000000 0.00000000 0.00000000
55 -1.12836800 0.00630200 -0.34957700 0.00000000 0.00000000 0.00000000
56 -0.00248100 0.41638900 0.41662900 0.00000000 0.00000000 0.00000000
57 1.16694600 0.00000000 0.00000000 0.00000000 0.00000000 0.00000000
58 -0.69953300 0.50009800 0.29959900 0.04730582 -0.00811871 0.01816650
59 -0.62833600 0.00000000 0.00000000 0.00000000 0.00000000 0.00000000
60 -0.69953300 0.00028700 0.58742100 -0.06063016 -0.00289087 -0.03837138
61 -0.62833600 0.00000000 0.00000000 0.00000000 0.00000000 0.00000000
62 -0.69954100 -0.50021300 0.29787600 -0.06992013 -0.00125556 0.03442812
63 -0.62833600 0.00000000 0.00000000 0.00000000 0.00000000 0.00000000
64 -0.69954100 -0.49773000 -0.28038800 -0.05440193 -0.00381201 -0.02280903
65 -0.62833600 0.00000000 0.00000000 0.00000000 0.00000000 0.00000000
66 -0.69953300 0.00111400 -0.56828000 -0.00082668 0.00508195 0.02451842
67 -0.62833600 0.00000000 0.00000000 0.00000000 0.00000000 0.00000000
68 -0.69953300 0.50080500 -0.28003500 0.04417416 0.03195741 0.05292644
69 -0.62833600 0.00000000 0.00000000 0.00000000 0.00000000 0.00000000
70 6.04272900 -1.76208200 -3.63433700 -3.07075800 0.59300700 -1.86589300
time 8
0 -0.00000100 8.45008800 -27.50902600 0.00000000 0.00000000 0.00003100
1 -0.00000200 0.00000000 0.00000000 1.57074300 -1.56713700 -1.57074300
2 4.25546800 -0.33518300 -0.00000200 0.00000000 0.00000000 -0.12484800
3 7.43124800 1.49647700 0.00000200 0.00000000 0.00000000 0.24545000
4 5.27847900 0.16554100 0.00000100 0.00000000 0.00000000 0.04851100
5 2.56355800 -8.19353200 1.48378700 1.38829100 1.19837300 -1.84420800
6 -6.21448200 -0.00000700 -0.00002700 -2.26650343 -0.55482383 1.40392787
7 11.94488200 0.00000000 0.00000100 -1.12431486 -0.00413891 1.37434830
8 10.62018100 0.00000200 0.00000000 0.55251600 -0.49613203 2.14546733
9 -4.75110600 -0.69449400 0.83057700 -0.14257400 -0.17062400 0.51888500
10 -1.68806800 0.00004600 -0.00003200 0.02082600 -0.01331000 0.43857400
11 -1.33614000 0.00005700 -0.00001200 0.02584200 0.00517300 0.35617200
12 -4.82049400 -0.50946000 -0.22475900 -0.26084500 0.21374100 1.64897400
13 -1.82699200 -0.00006400 0.00000600 -0.01520200 0.03755300 0.88896800
14 -1.43657300 0.00000600 0.00000200 -0.06517800 -0.04241000 0.90266200
15 -3.99235500 -0.89118800 -1.82790900 -0.52084900 0.34179900 1.51527800
16 -1.40591800 -0.00002500 -0.00000300 0.00507600 -0.02907100 0.70200400
17 -1.17535800 0.00012800 -0.00002000 0.05677300 0.03733400 0.89401900
18 -4.52675100 -0.69057500 -1.12074400 -0.36586200 0.31587000 1.75669500
19 -1.74403800 0.00003300 -0.00000800 -0.01668800 -0.02440900 1.01221400
20 -1.36877100 0.00002500 0.00000200 0.02596100 0.04564200 0.41256700
21 -1.87480000 -0.93512500 0.99917400 1.99500900 0.49378100 0.93085200
22 -1.52345300 0.00003200 0.00003100 0.06491800 0.04056800 0.55288000
23 -1.59928500 0.00000400 0.00001600 0.03779100 -0.02036500 0.47607600
24 5.51181500 0.00000800 -0.00000100 0.69106988 -0.00021224 -3.14108962
25 0.19684700 -0.00000100 0.00000300 2.79340690 -0.00066844 -3.14144365
26 0.69941000 -8.06143200 -0.21745300 2.42782900 0.99888800 2.24407500
27 6.21448500 0.00000600 0.00002000 -0.33340766 0.44060205 -1.95277733
28 11.94488500 -0.00002900 -0.00019400 -0.81327171 -0.32029715 -1.16365554
29 10.62016600 0.00000200 0.00001000 -2.13541176 -0.69978605 0.66884281
30 4.75115600 0.69437600 -0.83047300 0.01997700 -0.44619900 0.94690800
31 1.68806500 -0.00002600 0.00000200 0.01757500 -0.01737000 0.64737200
32 1.33615100 -0.00005100 -0.00000900 0.01100700 -0.03708800 0.08210300
33 4.82051300 0.50934000 0.22486500 -0.04807500 -0.36934800 1.13781900
34 1.82699600 0.00006600 0.00000800 -0.01786200 0.03632900 0.81693800
35 1.43657700 -0.00001000 0.00000700 -0.06271600 -0.05148600 0.39518300
36 3.99235300 0.89108700 1.82799400 -0.20393000 -0.29652600 1.14066800
37 1.40591800 0.00002100 -0.00000700 -0.00241400 -0.02938600 0.95757000
38 1.17536900 -0.00013100 0.00000200 0.07055700 0.10117400 0.56560400
39 4.52675600 0.69046000 1.12084200 -0.27589600 -0.32990300 1.30340500
40 1.74404100 -0.00003100 -0.00000200 -0.09416100 -0.04065700 0.92656100
41 1.36876300 -0.00003100 -0.00001700 0.07560900 0.13958700 0.31323400
42 1.92187300 0.94015500 -0.99612400 1.12490200 0.45289400 0.00144600
43 1.50960800 -0.11666200 0.06074800 -0.02529400 0.03293700 0.31396200
44 1.59928100 -0.00000200 0.00000900 0.08335800 0.00382800 0.78001600
45 5.51180600 -0.00000200 0.00000600 -0.28436500 0.00000000 0.00000000
46 0.19685000 0.00000300 -0.00000200 -0.34822500 0.00001500 -0.00000200
47 0.00000000 1.00000000 0.00000000 0.00000000 0.00000000 -1.57079600
48 -4.33264100 17.56767300 -4.02389200 0.00000000 0.00000000 -3.14156200
49 -0.99303998 36.83452091 -0.18973710 0.03397686 -0.00561249 -1.56034765
50 6.10935600 0.54461200 -1.89989800 0.03306700 0.98900600 1.35504400
51 0.82983100 0.00386700 0.16645600 0.00000000 0.00000000 0.00000000
52 -2.90941800 0.16192400 -0.37886600 0.00000000 0.00000000 0.00000000
53 1.36891700 -0.15662100 1.20644400 0.00000000 0.00000000 0.00000000
54 -2.88351400 0.00000000 0.00000000 0.00000000 0.00000000 0.00000000
55 -1.12836800 0.00630200 -0.34957700 0.00000000 0.00000000 0.00000000
56 -0.00248100 0.41638900 0.41662900 0.00000000 0.00000000 0.00000000
57 1.16694600 0.00000000 0.00000000 0.00000000 0.00000000 0.00000000
58 -0.69953300 0.50009800 0.29959900 0.04741029 -0.00916783 0.01604885
59 -0.62833600 0.00000000 0.00000000 0.00000000 0.00000000 0.00000000
60 -0.69953300 0.00028700 0.58742100 -0.07166932 -0.00078194 -0.03933170
61 -0.62833600 0.00000000 0.00000000 0.00000000 0.00000000 0.00000000
62 -0.69954100 -0.50021300 0.29787600 -0.09586724 -0.00436822 0.03451876
63 -0.62833600 0.00000000 0.00000000 0.00000000 0.00000000 0.00000000
64 -0.69954100 -0.49773000 -0.28038800 -0.05449043 -0.00518742 -0.02334656
65 -0.62833600 0.00000000 0.00000000 0.00000000 0.00000000 0.00000000
66 -0.69953300 0.00111400 -0.56828000 0.00070959 0.00955880 0.02807976
67 -0.62833600 0.00000000 0.00000000 0.00000000 0.00000000 0.00000000
68 -0.69953300 0.50080500 -0.28003500 0.04942084 0.03193127 0.05055398
69 -0.62833600 0.00000000 0.00000000 0.00000000 0.00000000 0.00000000
70 6.04272900 -1.76208200 -3.63433700 -3.07075800 0.59300700 -1.86589300
time 9
0 -0.00000100 8.45008800 -27.50902600 0.00000000 0.00000000 0.00003100
1 -0.00000200 0.00000000 0.00000000 1.57074300 -1.56713700 -1.57074300
2 4.25546800 -0.33518300 -0.00000200 0.00000000 0.00000000 -0.12484800
3 7.43124800 1.49647700 0.00000200 0.00000000 0.00000000 0.24545000
4 5.27847900 0.16554100 0.00000100 0.00000000 0.00000000 0.04851100
5 3.29558800 -7.86451600 1.48757900 1.33650300 1.19585800 -1.89247300
6 -6.21448200 -0.00000700 -0.00002700 -2.26208106 -0.55799269 1.39611982
7 11.94488200 0.00000000 0.00000100 -1.09862377 0.02458802 1.30587378
8 10.62018100 0.00000200 0.00000000 0.47658094 -0.44083478 2.16229107
9 -4.75110600 -0.69449400 0.83057700 -0.14257400 -0.17062400 0.51888500
10 -1.68806800 0.00004600 -0.00003200 0.02082600 -0.01331000 0.43857400
11 -1.33614000 0.00005700 -0.00001200 0.02584200 0.00517300 0.35617200
12 -4.82049400 -0.50946000 -0.22475900 -0.26084500 0.21374100 1.64897400
13 -1.82699200 -0.00006400 0.00000600 -0.01520200 0.03755300 0.88896800
14 -1.43657300 0.00000600 0.00000200 -0.06517800 -0.04241000 0.90266200
15 -3.99235500 -0.89118800 -1.82790900 -0.52084900 0.34179900 1.51527800
16 -1.40591800 -0.00002500 -0.00000300 0.00507600 -0.02907100 0.70200400
17 -1.17535800 0.00012800 -0.00002000 0.05677300 0.03733400 0.89401900
18 -4.52675100 -0.69057500 -1.12074400 -0.36586200 0.31587000 1.75669500
19 -1.74403800 0.00003300 -0.00000800 -0.01668800 -0.02440900 1.01221400
20 -1.36877100 0.00002500 0.00000200 0.02596100 0.04564200 0.41256700
21 -1.87480000 -0.93512500 0.99917400 1.99500900 0.49378100 0.93085200
22 -1.52345300 0.00003200 0.00003100 0.06491800 0.04056800 0.55288000
23 -1.59928500 0.00000400 0.00001600 0.03779100 -0.02036500 0.47607600
24 5.51181500 0.00000800 -0.00000100 0.69106988 -0.00021224 -3.14108962
25 0.19684700 -0.00000100 0.00000300 2.79340690 -0.00066844 -3.14144365
26 1.48250000 -7.61000700 -0.19131400 2.45471300 0.98213500 2.26659000
27 6.21448500 0.00000600 0.00002000 -0.33238552 0.44847954 -1.94144047
28 11.94488500 -0.00002900 -0.00019400 -0.92934444 -0.31097335 -1.09741256
29 10.62016600 0.00000200 0.00001000 -1.95826386 -0.71221125 0.52768288
30 4.75115600 0.69437600 -0.83047300 0.01997700 -0.44619900 0.94690800
31 1.68806500 -0.00002600 0.00000200 0.01757500 -0.01737000 0.64737200
32 1.33615100 -0.00005100 -0.00000900 0.01100700 -0.03708800 0.08210300
33 4.82051300 0.50934000 0.22486500 -0.04807500 -0.36934800 1.13781900
34 1.82699600 0.00006600 0.00000800 -0.01786200 0.03632900 0.81693800
35 1.43657700 -0.00001000 0.00000700 -0.06271600 -0.05148600 0.39518300
36 3.99235300 0.89108700 1.82799400 -0.20393000 -0.29652600 1.14066800
37 1.40591800 0.00002100 -0.00000700 -0.00241400 -0.02938600 0.95757000
38 1.17536900 -0.00013100 0.00000200 0.07055700 0.10117400 0.56560400
39 4.52675600 0.69046000 1.12084200 -0.27589600 -0.32990300 1.30340500
40 1.74404100 -0.00003100 -0.00000200 -0.09416100 -0.04065700 0.92656100
41 1.36876300 -0.00003100 -0.00001700 0.07560900 0.13958700 0.31323400
42 1.92187300 0.94015500 -0.99612400 1.12490200 0.45289400 0.00144600
43 1.50960800 -0.11666200 0.06074800 -0.02529400 0.03293700 0.31396200
44 1.59928100 -0.00000200 0.00000900 0.08335800 0.00382800 0.78001600
45 5.51180600 -0.00000200 0.00000600 -0.24882900 0.00000000 0.00000000
46 0.19685000 0.00000300 -0.00000200 -0.34822500 0.00001500 -0.00000200
47 0.00000000 1.00000000 0.00000000 0.00000000 0.00000000 -1.57079600
48 -4.33264100 17.56767300 -4.02389200 0.00000000 0.00000000 -3.14156200
49 -1.05802064 36.85875991 -0.13575236 0.01829452 -0.00777114 -1.55968329
50 6.10936900 0.54461900 -1.89989900 0.03306700 0.98900600 1.35504400
51 0.82983100 0.00386700 0.16645600 0.00000000 0.00000000 0.00000000
52 -2.90941800 0.16192400 -0.37886600 0.00000000 0.00000000 0.00000000
53 1.36891700 -0.15662100 1.20644400 0.00000000 0.00000000 0.00000000
54 -2.88351400 0.00000000 0.00000000 0.00000000 0.00000000 0.00000000
55 -1.12836800 0.00630200 -0.34957700 0.00000000 0.00000000 0.00000000
56 -0.00248100 0.41638900 0.41662900 0.00000000 0.00000000 0.00000000
57 1.16694600 0.00000000 0.00000000 0.00000000 0.00000000 0.00000000
58 -0.69953300 0.50009800 0.29959900 0.04361002 -0.00889209 0.01204431
59 -0.62833600 0.00000000 0.00000000 0.00000000 0.00000000 0.00000000
60 -0.69953300 0.00028700 0.58742100 -0.05852740 -0.00067842 -0.04105434
61 -0.62833600 0.00000000 0.00000000 0.00000000 0.00000000 0.00000000
62 -0.69954100 -0.50021300 0.29787600 -0.11737934 -0.00658629 0.03514666
63 -0.62833600 0.00000000 0.00000000 0.00000000 0.00000000 0.00000000
64 -0.69954100 -0.49773000 -0.28038800 -0.05201109 -0.00252087 -0.02049184
65 -0.62833600 0.00000000 0.00000000 0.00000000 0.00000000 0.00000000
66 -0.69953300 0.00111400 -0.56828000 -0.00456708 0.00659581 0.02623085
67 -0.62833600 0.00000000 0.00000000 0.00000000 0.00000000 0.00000000
68 -0.69953300 0.50080500 -0.28003500 0.04861005 0.03092738 0.04737391
69 -0.62833600 0.00000000 0.00000000 0.00000000 0.00000000 0.00000000
70 6.04272900 -1.76208200 -3.63433700 -3.07075800 0.59300700 -1.86589300
time 10
0 -0.00000100 8.45008800 -27.50902600 0.00000000 0.00000000 0.00003100
1 -0.00000200 0.00000000 0.00000000 1.57074300 -1.56713700 -1.57074300
2 4.25546800 -0.33518300 -0.00000200 0.00000000 0.00000000 -0.12484800
3 7.43124800 1.49647700 0.00000200 0.00000000 0.00000000 0.24545000
4 5.27847900 0.16554100 0.00000100 0.00000000 0.00000000 0.04851100
5 3.56528400 -7.74330000 1.48897600 1.31768800 1.19473000 -1.90992800
6 -6.21448200 -0.00000700 -0.00002700 -2.25879888 -0.55732756 1.39249365
7 11.94488200 0.00000000 0.00000100 -1.09019838 0.03462369 1.28150709
8 10.62018100 0.00000200 0.00000000 0.45731448 -0.42596579 2.16799382
9 -4.75110600 -0.69449400 0.83057700 -0.14257400 -0.17062400 0.51888500
10 -1.68806800 0.00004600 -0.00003200 0.02082600 -0.01331000 0.43857400
11 -1.33614000 0.00005700 -0.00001200 0.02584200 0.00517300 0.35617200
12 -4.82049400 -0.50946000 -0.22475900 -0.26084500 0.21374100 1.64897400
13 -1.82699200 -0.00006400 0.00000600 -0.01520200 0.03755300 0.88896800
14 -1.43657300 0.00000600 0.00000200 -0.06517800 -0.04241000 0.90266200
15 -3.99235500 -0.89118800 -1.82790900 -0.52084900 0.34179900 1.51527800
16 -1.40591800 -0.00002500 -0.00000300 0.00507600 -0.02907100 0.70200400
17 -1.17535800 0.00012800 -0.00002000 0.05677300 0.03733400 0.89401900
18 -4.52675100 -0.69057500 -1.12074400 -0.36586200 0.31587000 1.75669500
19 -1.74403800 0.00003300 -0.00000800 -0.01668800 -0.02440900 1.01221400
20 -1.36877100 0.00002500 0.00000200 0.02596100 0.04564200 0.41256700
21 -1.87480000 -0.93512500 0.99917400 1.99500900 0.49378100 0.93085200
22 -1.52345300 0.00003200 0.00003100 0.06491800 0.04056800 0.55288000
23 -1.59928500 0.00000400 0.00001600 0.03779100 -0.02036500 0.47607600
24 5.51181500 0.00000800 -0.00000100 0.69106988 -0.00021224 -3.14108962
25 0.19684700 -0.00000100 0.00000300 2.79340690 -0.00066844 -3.14144365
26 1.77100600 -7.44369200 -0.18168400 2.46425400 0.97590900 2.27447600
27 6.21448500 0.00000600 0.00002000 -0.33239862 0.44983121 -1.93936368
28 11.94488500 -0.00002900 -0.00019400 -0.97245190 -0.30695586 -1.07315647
29 10.62016600 0.00000200 0.00001000 -1.90139121 -0.71544724 0.48310726
30 4.75115600 0.69437600 -0.83047300 0.01997700 -0.44619900 0.94690800
31 1.68806500 -0.00002600 0.00000200 0.01757500 -0.01737000 0.64737200
32 1.33615100 -0.00005100 -0.00000900 0.01100700 -0.03708800 0.08210300
33 4.82051300 0.50934000 0.22486500 -0.04807500 -0.36934800 1.13781900
34 1.82699600 0.00006600 0.00000800 -0.01786200 0.03632900 0.81693800
35 1.43657700 -0.00001000 0.00000700 -0.06271600 -0.05148600 0.39518300
36 3.99235300 0.89108700 1.82799400 -0.20393000 -0.29652600 1.14066800
37 1.40591800 0.00002100 -0.00000700 -0.00241400 -0.02938600 0.95757000
38 1.17536900 -0.00013100 0.00000200 0.07055700 0.10117400 0.56560400
39 4.52675600 0.69046000 1.12084200 -0.27589600 -0.32990300 1.30340500
40 1.74404100 -0.00003100 -0.00000200 -0.09416100 -0.04065700 0.92656100
41 1.36876300 -0.00003100 -0.00001700 0.07560900 0.13958700 0.31323400
42 1.92187300 0.94015500 -0.99612400 1.12490200 0.45289400 0.00144600
43 1.50960800 -0.11666200 0.06074800 -0.02529400 0.03293700 0.31396200
44 1.59928100 -0.00000200 0.00000900 0.08335800 0.00382800 0.78001600
45 5.51180600 -0.00000200 0.00000600 -0.23578400 0.00000000 0.00000000
46 0.19685000 0.00000300 -0.00000200 -0.34822500 0.00001500 -0.00000200
47 0.00000000 1.00000000 0.00000000 0.00000000 0.00000000 -1.57079600
48 -4.33264100 17.56767300 -4.02389200 0.00000000 0.00000000 -3.14156200
49 -1.07917666 36.86222391 -0.10925919 0.01729528 -0.01350206 -1.55945425
50 6.10936500 0.54461900 -1.89989800 0.03306700 0.98900600 1.35504400
51 0.82983100 0.00386700 0.16645600 0.00000000 0.00000000 0.00000000
52 -2.90941800 0.16192400 -0.37886600 0.00000000 0.00000000 0.00000000
53 1.36891700 -0.15662100 1.20644400 0.00000000 0.00000000 0.00000000
54 -2.88351400 0.00000000 0.00000000 0.00000000 0.00000000 0.00000000
55 -1.12836800 0.00630200 -0.34957700 0.00000000 0.00000000 0.00000000
56 -0.00248100 0.41638900 0.41662900 0.00000000 0.00000000 0.00000000
57 1.16694600 0.00000000 0.00000000 0.00000000 0.00000000 0.00000000
58 -0.69953300 0.50009800 0.29959900 0.03406608 -0.00825750 0.00587264
59 -0.62833600 0.00000000 0.00000000 0.00000000 0.00000000 0.00000000
60 -0.69953300 0.00028700 0.58742100 -0.02551105 -0.00055511 -0.04350343
61 -0.62833600 0.00000000 0.00000000 0.00000000 0.00000000 0.00000000
62 -0.69954100 -0.50021300 0.29787600 -0.13413184 -0.00804843 0.03643145
63 -0.62833600 0.00000000 0.00000000 0.00000000 0.00000000 0.00000000
64 -0.69954100 -0.49773000 -0.28038800 -0.04520777 0.00409076 -0.01337693
65 -0.62833600 0.00000000 0.00000000 0.00000000 0.00000000 0.00000000
66 -0.69953300 0.00111400 -0.56828000 -0.01783789 -0.00079926 0.02175749
67 -0.62833600 0.00000000 0.00000000 0.00000000 0.00000000 0.00000000
68 -0.69953300 0.50080500 -0.28003500 0.04639205 0.02818770 0.04350332
69 -0.62833600 0.00000000 0.00000000 0.00000000 0.00000000 0.00000000
70 6.04272900 -1.76208200 -3.63433700 -3.07075800 0.59300700 -1.86589300
end
