version 1
nodes
0 "root" -1
1 "pelvis" 0
2 "spine_01" 1
3 "spine_02" 2
4 "spine_03" 3
5 "clavicle_r" 4
6 "upperarm_r" 5
7 "lowerarm_r" 6
8 "hand_r" 7
9 "index_01_r" 8
10 "index_02_r" 9
11 "index_03_r" 10
12 "middle_01_r" 8
13 "middle_02_r" 12
14 "middle_03_r" 13
15 "pinky_01_r" 8
16 "pinky_02_r" 15
17 "pinky_03_r" 16
18 "ring_01_r" 8
19 "ring_02_r" 18
20 "ring_03_r" 19
21 "thumb_01_r" 8
22 "thumb_02_r" 21
23 "thumb_03_r" 22
24 "lowerarm_twist_01_r" 7
25 "upperarm_twist_01_r" 6
26 "clavicle_l" 4
27 "upperarm_l" 26
28 "lowerarm_l" 27
29 "hand_l" 28
30 "index_01_l" 29
31 "index_02_l" 30
32 "index_03_l" 31
33 "middle_01_l" 29
34 "middle_02_l" 33
35 "middle_03_l" 34
36 "pinky_01_l" 29
37 "pinky_02_l" 36
38 "pinky_03_l" 37
39 "ring_01_l" 29
40 "ring_02_l" 39
41 "ring_03_l" 40
42 "thumb_01_l" 29
43 "thumb_02_l" 42
44 "thumb_03_l" 43
45 "lowerarm_twist_01_l" 28
46 "upperarm_twist_01_l" 27
47 "cam_driver" -1
48 "BaseRoot" -1
49 "Base" 48
50 "rhand_ikTarget" 49
51 "Hammer" 49
52 "CyHolder" 49
53 "Cy" 52
54 "Pusher" 53
55 "Trigger" 49
56 "Release" 49
57 "BulletPos" 53
58 "Bullet.001" 57
59 "BulletHead.001" 58
60 "Bullet.002" 57
61 "BulletHead.002" 60
62 "Bullet.003" 57
63 "BulletHead.003" 62
64 "Bullet.004" 57
65 "BulletHead.004" 64
66 "Bullet.005" 57
67 "BulletHead.005" 66
68 "Bullet.006" 57
69 "BulletHead.006" 68
70 "lhand_ikTarget" 49
end
skeleton
time 0
0 -0.00000100 8.45008800 -27.50902600 0.00000000 0.00000000 0.00003100
1 -0.00000200 0.00000000 0.00000000 1.57074300 -1.56713700 -1.57074300
2 4.25546800 -0.33518300 -0.00000200 0.00000000 0.00000000 -0.12484800
3 7.43124800 1.49647700 0.00000200 0.00000000 0.00000000 0.24545000
4 5.27847900 0.16554100 0.00000100 0.00000000 0.00000000 0.04851100
5 -5.00743653 -11.64397964 1.04478804 1.97586400 1.15990900 -1.29878600
6 -6.21448200 -0.00000700 -0.00002700 -2.33168399 -0.57882552 1.45098141
7 11.94488200 0.00000000 0.00000100 -1.63966513 -0.40028991 1.93989537
8 10.62018100 0.00000200 0.00000000 0.14972417 -0.07203967 2.71509808
9 -4.75110600 -0.69449400 0.83057700 -0.28808200 -0.24146600 0.76981700
10 -1.68806800 0.00004600 -0.00003200 0.00883989 -0.02312573 1.07380482
11 -1.33614000 0.00005700 -0.00001200 0.01961600 -0.01759000 1.28482400
12 -4.82049400 -0.50946000 -0.22475900 -0.26084500 0.21374100 1.64897400
13 -1.82699200 -0.00006400 0.00000600 -0.01520200 0.03755300 0.88896800
14 -1.43657300 0.00000600 0.00000200 -0.06517800 -0.04241000 0.90266200
15 -3.99235500 -0.89118800 -1.82790900 -0.52084900 0.34179900 1.51527800
16 -1.40591800 -0.00002500 -0.00000300 0.00507600 -0.02907100 0.70200400
17 -1.17535800 0.00012800 -0.00002000 0.05677300 0.03733400 0.89401900
18 -4.52675100 -0.69057500 -1.12074400 -0.36586200 0.31587000 1.75669500
19 -1.74403800 0.00003300 -0.00000800 -0.01668800 -0.02440900 1.01221400
20 -1.36877100 0.00002500 0.00000200 0.02596100 0.04564200 0.41256700
21 -1.87480000 -0.93512500 0.99917400 1.99500900 0.49378100 0.93085200
22 -1.52345300 0.00003200 0.00003100 0.06491800 0.04056800 0.55288000
23 -1.59928500 0.00000400 0.00001600 0.03779100 -0.02036500 0.47607600
24 5.51181500 0.00000800 -0.00000100 0.69106968 -0.00039238 -3.14065931
25 0.19684700 -0.00000100 0.00000300 2.79340676 -0.00118459 -3.14134160
26 0.18839300 -12.84705500 -5.24150100 1.97586200 1.15990900 1.84280300
27 6.21448500 0.00000600 0.00002000 0.01339949 0.57357162 -2.37510435
28 11.94488500 -0.00002900 -0.00019400 -0.03268585 -0.26100052 -1.37756423
29 10.62016600 0.00000200 0.00001000 -1.11580467 -0.12587658 -0.46659849
30 4.75115600 0.69437600 -0.83047300 0.33798500 -0.30674000 0.34098200
31 1.68806500 -0.00002600 0.00000200 0.01757500 -0.01737000 0.64737200
32 1.33615100 -0.00005100 -0.00000900 0.01100700 -0.03708800 0.08210300
33 4.82051300 0.50934000 0.22486500 0.01692600 -0.41175000 0.50323800
34 1.82699600 0.00006600 0.00000800 -0.01786200 0.03632900 0.81693800
35 1.43657700 -0.00001000 0.00000700 -0.06271600 -0.05148600 0.39518300
36 3.99235300 0.89108700 1.82799400 -0.57177300 -0.43776000 0.85434600
37 1.40591800 0.00002100 -0.00000700 -0.00241400 -0.02938600 0.95757000
38 1.17536900 -0.00013100 0.00000200 0.07055700 0.10117400 0.56560400
39 4.52675600 0.69046000 1.12084200 -0.35878000 -0.46637900 0.75126100
40 1.74404100 -0.00003100 -0.00000200 -0.09416100 -0.04065700 0.92656100
41 1.36876300 -0.00003100 -0.00001700 0.07560900 0.13958700 0.31323400
42 1.92187500 0.94015318 -0.99612400 1.53421100 0.54272100 0.59169000
43 1.50961018 -0.11666382 0.06074600 -0.02529400 0.03293700 0.31396200
44 1.59928100 -0.00000200 0.00000900 0.08335800 0.00382800 0.78001600
45 5.51180600 -0.00000200 0.00000600 -0.62195937 0.00000113 0.00000107
46 0.19685000 0.00000300 -0.00000200 -0.34822500 0.00001500 -0.00000200
47 0.00000000 1.00000000 0.00000000 0.00000000 0.00000000 -1.57079600
48 -4.33264100 17.56767300 -4.02389200 0.00000000 0.00000000 -3.14156200
49 2.30465267 30.97498119 -0.06754774 0.00749643 1.20795445 -1.45964148
50 6.10935277 0.54460839 -1.89990708 0.03306700 0.98900600 1.35504400
51 0.82983100 0.00386700 0.16645600 0.00000000 0.00000000 0.00000000
52 -2.90941800 0.16192400 -0.37886600 0.00000000 0.00000000 0.00000000
53 1.36891700 -0.15662100 1.20644400 0.00000000 0.00000000 0.00000000
54 -2.88351400 0.00000000 0.00000000 0.00000000 0.00000000 0.00000000
55 -1.12836800 0.00630200 -0.34957700 0.00000000 -0.94470200 0.00000000
56 -0.00248100 0.41638900 0.41662900 0.00000000 0.00000000 0.00000000
57 1.16694600 0.00000000 0.00000000 0.00000000 0.00000000 0.00000000
58 -0.69953300 0.50009800 0.29959900 0.00000000 0.00000000 0.00000000
59 -0.62833600 0.00000000 0.00000000 0.00000000 0.00000000 0.00000000
60 -0.69953300 0.00028700 0.58742100 0.00000000 0.00000000 0.00000000
61 -0.62833600 0.00000000 0.00000000 0.00000000 0.00000000 0.00000000
62 -0.69954100 -0.50021300 0.29787600 0.00000000 0.00000000 0.00000000
63 -0.62833600 0.00000000 0.00000000 0.00000000 0.00000000 0.00000000
64 -0.69954100 -0.49773000 -0.28038800 0.00000000 0.00000000 0.00000000
65 -0.62833600 0.00000000 0.00000000 0.00000000 0.00000000 0.00000000
66 -0.69953300 0.00111400 -0.56828000 0.00000000 0.00000000 0.00000000
67 -0.62833600 0.00000000 0.00000000 0.00000000 0.00000000 0.00000000
68 -0.69953300 0.50080500 -0.28003500 0.00000000 0.00000000 0.00000000
69 -0.62833600 0.00000000 0.00000000 0.00000000 0.00000000 0.00000000
70 8.61647366 -2.78935003 1.21568352 2.59235893 -0.17787388 -2.74441333
time 1
0 -0.00000100 8.45008800 -27.50902600 0.00000000 0.00000000 0.00003100
1 -0.00000200 0.00000000 0.00000000 1.57074300 -1.56713700 -1.57074300
2 4.25546800 -0.33518300 -0.00000200 0.00000000 0.00000000 -0.12484800
3 7.43124800 1.49647700 0.00000200 0.00000000 0.00000000 0.24545000
4 5.27847900 0.16554100 0.00000100 0.00000000 0.00000000 0.04851100
5 -4.86901772 -11.56173822 0.99425218 1.97586400 1.15990900 -1.29878600
6 -6.21448200 -0.00000700 -0.00002700 -2.36174439 -0.57480770 1.45250130
7 11.94488200 0.00000000 0.00000100 -1.63641000 -0.39098069 1.93301970
8 10.62018100 0.00000200 0.00000000 0.16837460 -0.14431550 2.64703689
9 -4.75110600 -0.69449400 0.83057700 -0.28808200 -0.24146600 0.76981700
10 -1.68806800 0.00004600 -0.00003200 0.00883989 -0.02312573 1.07380482
11 -1.33614000 0.00005700 -0.00001200 0.01961600 -0.01759000 1.28482400
12 -4.82049400 -0.50946000 -0.22475900 -0.26084500 0.21374100 1.64897400
13 -1.82699200 -0.00006400 0.00000600 -0.01520200 0.03755300 0.88896800
14 -1.43657300 0.00000600 0.00000200 -0.06517800 -0.04241000 0.90266200
15 -3.99235500 -0.89118800 -1.82790900 -0.52084900 0.34179900 1.51527800
16 -1.40591800 -0.00002500 -0.00000300 0.00507600 -0.02907100 0.70200400
17 -1.17535800 0.00012800 -0.00002000 0.05677300 0.03733400 0.89401900
18 -4.52675100 -0.69057500 -1.12074400 -0.36586200 0.31587000 1.75669500
19 -1.74403800 0.00003300 -0.00000800 -0.01668800 -0.02440900 1.01221400
20 -1.36877100 0.00002500 0.00000200 0.02596100 0.04564200 0.41256700
21 -1.87480000 -0.93512500 0.99917400 1.99500900 0.49378100 0.93085200
22 -1.52345300 0.00003200 0.00003100 0.06491800 0.04056800 0.55288000
23 -1.59928500 0.00000400 0.00001600 0.03779100 -0.02036500 0.47607600
24 5.51181500 0.00000800 -0.00000100 0.69106968 -0.00039238 -3.14065931
25 0.19684700 -0.00000100 0.00000300 2.79340676 -0.00118459 -3.14134160
26 0.18839300 -12.84705500 -5.24150100 1.97586200 1.15990900 1.84280300
27 6.21448500 0.00000600 0.00002000 0.00834118 0.56900326 -2.34922930
28 11.94488500 -0.00002900 -0.00019400 -0.00976309 -0.27407290 -1.44292349
29 10.62016600 0.00000200 0.00001000 -1.16746367 -0.11527442 -0.37267288
30 4.75115600 0.69437600 -0.83047300 0.33834870 -0.30632610 0.33973339
31 1.68806500 -0.00002600 0.00000200 0.01760554 -0.01734911 0.64611551
32 1.33615100 -0.00005100 -0.00000900 0.01106116 -0.03708242 0.08084723
33 4.82051300 0.50934000 0.22486500 0.01747306 -0.41174117 0.50186746
34 1.82699600 0.00006600 0.00000800 -0.01790509 0.03630976 0.81568994
35 1.43657700 -0.00001000 0.00000700 -0.06264397 -0.05156492 0.39392044
36 3.99235300 0.89108700 1.82799400 -0.57127119 -0.43843643 0.85318069
37 1.40591800 0.00002100 -0.00000700 -0.00238193 -0.02939470 0.95631495
38 1.17536900 -0.00013100 0.00000200 0.07042313 0.10125489 0.56434147
39 4.52675600 0.69046000 1.12084200 -0.35819276 -0.46681177 0.74995275
40 1.74404100 -0.00003100 -0.00000200 -0.09410788 -0.04076491 0.92530185
41 1.36876300 -0.00003100 -0.00001700 0.07543375 0.13967966 0.31196863
42 1.92187500 0.94015318 -0.99612400 1.53417682 0.54397157 0.59163374
43 1.50961018 -0.11666382 0.06074600 -0.02533483 0.03289301 0.31270820
44 1.59928100 -0.00000200 0.00000900 0.08336478 0.00394345 0.77876579
45 5.51180600 -0.00000200 0.00000600 -0.61124997 0.00000112 0.00000107
46 0.19685000 0.00000300 -0.00000200 -0.34822500 0.00001500 -0.00000200
47 0.00000000 1.00000000 0.00000000 0.00000000 0.00000000 -1.57079600
48 -4.33264100 17.56767300 -4.02389200 0.00000000 0.00000000 -3.14156200
49 2.07490717 31.43810444 0.00357671 -0.08710060 1.13061627 -1.53957226
50 6.10935277 0.54460839 -1.89990708 0.03306700 0.98900600 1.35504400
51 0.82983100 0.00386700 0.16645600 0.00000000 0.00000000 0.00000000
52 -2.90941800 0.16192400 -0.37886600 0.00000000 0.00000000 0.00000000
53 1.36891700 -0.15662100 1.20644400 0.00000000 0.00000000 0.00000000
54 -2.88351400 0.00000000 0.00000000 0.00000000 0.00000000 0.00000000
55 -1.12836800 0.00630200 -0.34957700 0.00000000 -0.94470200 0.00000000
56 -0.00248100 0.41638900 0.41662900 0.00000000 0.00000000 0.00000000
57 1.16694600 0.00000000 0.00000000 0.00000000 0.00000000 0.00000000
58 -0.69953300 0.50009800 0.29959900 0.00960285 0.00050025 0.00783664
59 -0.62833600 0.00000000 0.00000000 0.00000000 0.00000000 0.00000000
60 -0.69953300 0.00028700 0.58742100 0.01303049 -0.00852786 -0.01157766
61 -0.62833600 0.00000000 0.00000000 0.00000000 0.00000000 0.00000000
62 -0.69954100 -0.50021300 0.29787600 0.00209700 0.00344239 0.01321502
63 -0.62833600 0.00000000 0.00000000 0.00000000 0.00000000 0.00000000
64 -0.69954100 -0.49773000 -0.28038800 -0.01160187 0.00313460 -0.00247571
65 -0.62833600 0.00000000 0.00000000 0.00000000 0.00000000 0.00000000
66 -0.69953300 0.00111400 -0.56828000 -0.00528592 -0.01275654 -0.00219384
67 -0.62833600 0.00000000 0.00000000 0.00000000 0.00000000 0.00000000
68 -0.69953300 0.50080500 -0.28003500 -0.00065786 0.01037726 0.02127336
69 -0.62833600 0.00000000 0.00000000 0.00000000 0.00000000 0.00000000
70 8.60375889 -2.76277908 1.15855365 2.59204602 -0.22386838 -2.72635482
time 2
0 -0.00000100 8.45008800 -27.50902600 0.00000000 0.00000000 0.00003100
1 -0.00000200 0.00000000 0.00000000 1.57074300 -1.56713700 -1.57074300
2 4.25546800 -0.33518300 -0.00000200 0.00000000 0.00000000 -0.12484800
3 7.43124800 1.49647700 0.00000200 0.00000000 0.00000000 0.24545000
4 5.27847900 0.16554100 0.00000100 0.00000000 0.00000000 0.04851100
5 -4.49330705 -11.33850754 0.85708084 1.97586400 1.15990900 -1.29878600
6 -6.21448200 -0.00000700 -0.00002700 -2.42279462 -0.54824819 1.45127705
7 11.94488200 0.00000000 0.00000100 -1.62653218 -0.37652288 1.90798757
8 10.62018100 0.00000200 0.00000000 0.24336297 -0.32261297 2.50214559
9 -4.75110600 -0.69449400 0.83057700 -0.28808200 -0.24146600 0.76981700
10 -1.68806800 0.00004600 -0.00003200 0.00883989 -0.02312573 1.07380482
11 -1.33614000 0.00005700 -0.00001200 0.01961600 -0.01759000 1.28482400
12 -4.82049400 -0.50946000 -0.22475900 -0.26084500 0.21374100 1.64897400
13 -1.82699200 -0.00006400 0.00000600 -0.01520200 0.03755300 0.88896800
14 -1.43657300 0.00000600 0.00000200 -0.06517800 -0.04241000 0.90266200
15 -3.99235500 -0.89118800 -1.82790900 -0.52084900 0.34179900 1.51527800
16 -1.40591800 -0.00002500 -0.00000300 0.00507600 -0.02907100 0.70200400
17 -1.17535800 0.00012800 -0.00002000 0.05677300 0.03733400 0.89401900
18 -4.52675100 -0.69057500 -1.12074400 -0.36586200 0.31587000 1.75669500
19 -1.74403800 0.00003300 -0.00000800 -0.01668800 -0.02440900 1.01221400
20 -1.36877100 0.00002500 0.00000200 0.02596100 0.04564200 0.41256700
21 -1.87480000 -0.93512500 0.99917400 1.99500900 0.49378100 0.93085200
22 -1.52345300 0.00003200 0.00003100 0.06491800 0.04056800 0.55288000
23 -1.59928500 0.00000400 0.00001600 0.03779100 -0.02036500 0.47607600
24 5.51181500 0.00000800 -0.00000100 0.69106968 -0.00039238 -3.14065931
25 0.19684700 -0.00000100 0.00000300 2.79340676 -0.00118459 -3.14134160
26 0.18839300 -12.84705500 -5.24150100 1.97586200 1.15990900 1.84280300
27 6.21448500 0.00000600 0.00002000 -0.02459782 0.54734960 -2.31163977
28 11.94488500 -0.00002900 -0.00019400 0.03336177 -0.31005441 -1.56343543
29 10.62016600 0.00000200 0.00001000 -1.27174710 -0.05702957 -0.18577502
30 4.75115600 0.69437600 -0.83047300 0.33924074 -0.30532855 0.33677498
31 1.68806500 -0.00002600 0.00000200 0.01765603 -0.01729835 0.64311897
32 1.33615100 -0.00005100 -0.00000900 0.01116406 -0.03705241 0.07784046
33 4.82051300 0.50934000 0.22486500 0.01878581 -0.41168276 0.49859410
34 1.82699600 0.00006600 0.00000800 -0.01800637 0.03625276 0.81269552
35 1.43657700 -0.00001000 0.00000700 -0.06249143 -0.05175320 0.39092578
36 3.99235300 0.89108700 1.82799400 -0.57008497 -0.44004850 0.85039897
37 1.40591800 0.00002100 -0.00000700 -0.00229601 -0.02938518 0.95330839
38 1.17536900 -0.00013100 0.00000200 0.07012528 0.10146777 0.56133848
39 4.52675600 0.69046000 1.12084200 -0.35676829 -0.46786858 0.74680513
40 1.74404100 -0.00003100 -0.00000200 -0.09399899 -0.04105125 0.92231206
41 1.36876300 -0.00003100 -0.00001700 0.07500563 0.13990611 0.30894960
42 1.92187500 0.94015318 -0.99612400 1.53412602 0.54697027 0.59151723
43 1.50961018 -0.11666382 0.06074600 -0.02543755 0.03281647 0.30970156
44 1.59928100 -0.00000200 0.00000900 0.08334341 0.00419159 0.77578723
45 5.51180600 -0.00000200 0.00000600 -0.58211405 0.00000111 0.00000109
46 0.19685000 0.00000300 -0.00000200 -0.34822500 0.00001500 -0.00000200
47 0.00000000 1.00000000 0.00000000 0.00000000 0.00000000 -1.57079600
48 -4.33264100 17.56767300 -4.02389200 0.00000000 0.00000000 -3.14156200
49 1.50398829 32.52710476 0.18579696 -0.18256718 0.93364467 -1.62273236
50 6.10935277 0.54460839 -1.89990708 0.03306700 0.98900600 1.35504400
51 0.82983100 0.00386700 0.16645600 0.00000000 0.00000000 0.00000000
52 -2.90941800 0.16192400 -0.37886600 0.00000000 0.00000000 0.00000000
53 1.36891700 -0.15662100 1.20644400 0.00000000 0.00000000 0.00000000
54 -2.88351400 0.00000000 0.00000000 0.00000000 0.00000000 0.00000000
55 -1.12836800 0.00630200 -0.34957700 0.00000000 -0.94470200 0.00000000
56 -0.00248100 0.41638900 0.41662900 0.00000000 0.00000000 0.00000000
57 1.16694600 0.00000000 0.00000000 0.00000000 0.00000000 0.00000000
58 -0.69953300 0.50009800 0.29959900 0.02997248 0.00120091 0.02237261
59 -0.62833600 0.00000000 0.00000000 0.00000000 0.00000000 0.00000000
60 -0.69953300 0.00028700 0.58742100 0.03760060 -0.02393823 -0.03456486
61 -0.62833600 0.00000000 0.00000000 0.00000000 0.00000000 0.00000000
62 -0.69954100 -0.50021300 0.29787600 0.00617781 0.00979392 0.03782385
63 -0.62833600 0.00000000 0.00000000 0.00000000 0.00000000 0.00000000
64 -0.69954100 -0.49773000 -0.28038800 -0.03583427 0.00890984 -0.00868743
65 -0.62833600 0.00000000 0.00000000 0.00000000 0.00000000 0.00000000
66 -0.69953300 0.00111400 -0.56828000 -0.01509699 -0.03653548 -0.00625400
67 -0.62833600 0.00000000 0.00000000 0.00000000 0.00000000 0.00000000
68 -0.69953300 0.50080500 -0.28003500 -0.00138237 0.03032164 0.06090825
69 -0.62833600 0.00000000 0.00000000 0.00000000 0.00000000 0.00000000
70 8.54829991 -2.69520176 1.02553172 2.58534083 -0.35742590 -2.67484995
time 3
0 -0.00000100 8.45008800 -27.50902600 0.00000000 0.00000000 0.00003100
1 -0.00000200 0.00000000 0.00000000 1.57074300 -1.56713700 -1.57074300
2 4.25546800 -0.33518300 -0.00000200 0.00000000 0.00000000 -0.12484800
3 7.43124800 1.49647700 0.00000200 0.00000000 0.00000000 0.24545000
4 5.27847900 0.16554100 0.00000100 0.00000000 0.00000000 0.04851100
5 -3.93963015 -11.00953778 0.65493330 1.97586400 1.15990900 -1.29878600
6 -6.21448200 -0.00000700 -0.00002700 -2.47428987 -0.49413636 1.45096588
7 11.94488200 0.00000000 0.00000100 -1.61227150 -0.37071176 1.86772160
8 10.62018100 0.00000200 0.00000000 0.35271193 -0.57579538 2.37693344
9 -4.75110600 -0.69449400 0.83057700 -0.28808200 -0.24146600 0.76981700
10 -1.68806800 0.00004600 -0.00003200 0.00883989 -0.02312573 1.07380482
11 -1.33614000 0.00005700 -0.00001200 0.01961600 -0.01759000 1.28482400
12 -4.82049400 -0.50946000 -0.22475900 -0.26084500 0.21374100 1.64897400
13 -1.82699200 -0.00006400 0.00000600 -0.01520200 0.03755300 0.88896800
14 -1.43657300 0.00000600 0.00000200 -0.06517800 -0.04241000 0.90266200
15 -3.99235500 -0.89118800 -1.82790900 -0.52084900 0.34179900 1.51527800
16 -1.40591800 -0.00002500 -0.00000300 0.00507600 -0.02907100 0.70200400
17 -1.17535800 0.00012800 -0.00002000 0.05677300 0.03733400 0.89401900
18 -4.52675100 -0.69057500 -1.12074400 -0.36586200 0.31587000 1.75669500
19 -1.74403800 0.00003300 -0.00000800 -0.01668800 -0.02440900 1.01221400
20 -1.36877100 0.00002500 0.00000200 0.02596100 0.04564200 0.41256700
21 -1.87480000 -0.93512500 0.99917400 1.99500900 0.49378100 0.93085200
22 -1.52345300 0.00003200 0.00003100 0.06491800 0.04056800 0.55288000
23 -1.59928500 0.00000400 0.00001600 0.03779100 -0.02036500 0.47607600
24 5.51181500 0.00000800 -0.00000100 0.69106968 -0.00039238 -3.14065931
25 0.19684700 -0.00000100 0.00000300 2.79340676 -0.00118459 -3.14134160
26 0.18839300 -12.84705500 -5.24150100 1.97586200 1.15990900 1.84280300
27 6.21448500 0.00000600 0.00002000 -0.10775000 0.49056699 -2.32405724
28 11.94488500 -0.00002900 -0.00019400 0.05307842 -0.34826474 -1.61698335
29 10.62016600 0.00000200 0.00001000 -1.34739932 0.02472486 0.00335714
30 4.75115600 0.69437600 -0.83047300 0.34030136 -0.30413856 0.33323250
31 1.68806500 -0.00002600 0.00000200 0.01771689 -0.01722800 0.63953053
32 1.33615100 -0.00005100 -0.00000900 0.01129364 -0.03700455 0.07426133
33 4.82051300 0.50934000 0.22486500 0.02034519 -0.41161849 0.49469114
34 1.82699600 0.00006600 0.00000800 -0.01813883 0.03618278 0.80910916
35 1.43657700 -0.00001000 0.00000700 -0.06230906 -0.05196278 0.38735363
36 3.99235300 0.89108700 1.82799400 -0.56865923 -0.44198539 0.84705397
37 1.40591800 0.00002100 -0.00000700 -0.00218120 -0.02940452 0.94972756
38 1.17536900 -0.00013100 0.00000200 0.06975324 0.10171492 0.55774577
39 4.52675600 0.69046000 1.12084200 -0.35506824 -0.46911759 0.74303848
40 1.74404100 -0.00003100 -0.00000200 -0.09383763 -0.04138550 0.91875192
41 1.36876300 -0.00003100 -0.00001700 0.07450912 0.14017533 0.30535128
42 1.92187500 0.94015318 -0.99612400 1.53404084 0.55054277 0.59135706
43 1.50961018 -0.11666382 0.06074600 -0.02554982 0.03273284 0.30612056
44 1.59928100 -0.00000200 0.00000900 0.08332714 0.00447900 0.77220594
45 5.51180600 -0.00000200 0.00000600 -0.53888412 0.00000108 0.00000111
46 0.19685000 0.00000300 -0.00000200 -0.34822500 0.00001500 -0.00000200
47 0.00000000 1.00000000 0.00000000 0.00000000 0.00000000 -1.57079600
48 -4.33264100 17.56767300 -4.02389200 0.00000000 0.00000000 -3.14156200
49 0.82415143 33.78634516 0.34237706 -0.18567523 0.67155904 -1.61319427
50 6.10935277 0.54460839 -1.89990708 0.03306700 0.98900600 1.35504400
51 0.82983100 0.00386700 0.16645600 0.00000000 0.00000000 0.00000000
52 -2.90941800 0.16192400 -0.37886600 0.00000000 0.00000000 0.00000000
53 1.36891700 -0.15662100 1.20644400 0.00000000 0.00000000 0.00000000
54 -2.88351400 0.00000000 0.00000000 0.00000000 0.00000000 0.00000000
55 -1.12836800 0.00630200 -0.34957700 0.00000000 -0.94470200 0.00000000
56 -0.00248100 0.41638900 0.41662900 0.00000000 0.00000000 0.00000000
57 1.16694600 0.00000000 0.00000000 0.00000000 0.00000000 0.00000000
58 -0.69953300 0.50009800 0.29959900 0.04819144 0.00134575 0.03022886
59 -0.62833600 0.00000000 0.00000000 0.00000000 0.00000000 0.00000000
60 -0.69953300 0.00028700 0.58742100 0.05106064 -0.03193129 -0.04992673
61 -0.62833600 0.00000000 0.00000000 0.00000000 0.00000000 0.00000000
62 -0.69954100 -0.50021300 0.29787600 0.00848063 0.01315290 0.05106527
63 -0.62833600 0.00000000 0.00000000 0.00000000 0.00000000 0.00000000
64 -0.69954100 -0.49773000 -0.28038800 -0.05686976 0.01183753 -0.01609003
65 -0.62833600 0.00000000 0.00000000 0.00000000 0.00000000 0.00000000
66 -0.69953300 0.00111400 -0.56828000 -0.02038648 -0.04940569 -0.00833251
67 -0.62833600 0.00000000 0.00000000 0.00000000 0.00000000 0.00000000
68 -0.69953300 0.50080500 -0.28003500 -0.00138230 0.04303666 0.08220541
69 -0.62833600 0.00000000 0.00000000 0.00000000 0.00000000 0.00000000
70 8.40164286 -2.58937255 0.84512189 2.55647184 -0.55924594 -2.58989400
time 4
0 -0.00000100 8.45008800 -27.50902600 0.00000000 0.00000000 0.00003100
1 -0.00000200 0.00000000 0.00000000 1.57074300 -1.56713700 -1.57074300
2 4.25546800 -0.33518300 -0.00000200 0.00000000 0.00000000 -0.12484800
3 7.43124800 1.49647700 0.00000200 0.00000000 0.00000000 0.24545000
4 5.27847900 0.16554100 0.00000100 0.00000000 0.00000000 0.04851100
5 -3.26730938 -10.61007257 0.40946803 1.97586400 1.15990900 -1.29878600
6 -6.21448200 -0.00000700 -0.00002700 -2.51391847 -0.44448854 1.48056302
7 11.94488200 0.00000000 0.00000100 -1.59687966 -0.36571813 1.82335501
8 10.62018100 0.00000200 0.00000000 0.45617317 -0.83172515 2.33227211
9 -4.75110600 -0.69449400 0.83057700 -0.28808200 -0.24146600 0.76981700
10 -1.68806800 0.00004600 -0.00003200 0.00883989 -0.02312573 1.07380482
11 -1.33614000 0.00005700 -0.00001200 0.01961600 -0.01759000 1.28482400
12 -4.82049400 -0.50946000 -0.22475900 -0.26084500 0.21374100 1.64897400
13 -1.82699200 -0.00006400 0.00000600 -0.01520200 0.03755300 0.88896800
14 -1.43657300 0.00000600 0.00000200 -0.06517800 -0.04241000 0.90266200
15 -3.99235500 -0.89118800 -1.82790900 -0.52084900 0.34179900 1.51527800
16 -1.40591800 -0.00002500 -0.00000300 0.00507600 -0.02907100 0.70200400
17 -1.17535800 0.00012800 -0.00002000 0.05677300 0.03733400 0.89401900
18 -4.52675100 -0.69057500 -1.12074400 -0.36586200 0.31587000 1.75669500
19 -1.74403800 0.00003300 -0.00000800 -0.01668800 -0.02440900 1.01221400
20 -1.36877100 0.00002500 0.00000200 0.02596100 0.04564200 0.41256700
21 -1.87480000 -0.93512500 0.99917400 1.99500900 0.49378100 0.93085200
22 -1.52345300 0.00003200 0.00003100 0.06491800 0.04056800 0.55288000
23 -1.59928500 0.00000400 0.00001600 0.03779100 -0.02036500 0.47607600
24 5.51181500 0.00000800 -0.00000100 0.69106968 -0.00039238 -3.14065931
25 0.19684700 -0.00000100 0.00000300 2.79340676 -0.00118459 -3.14134160
26 0.18839300 -12.84705500 -5.24150100 1.97586200 1.15990900 1.84280300
27 6.21448500 0.00000600 0.00002000 -0.17088847 0.40978984 -2.34755209
28 11.94488500 -0.00002900 -0.00019400 0.03837240 -0.37292544 -1.57247334
29 10.62016600 0.00000200 0.00001000 -1.36893217 0.05580209 0.10468774
30 4.75115600 0.69437600 -0.83047300 0.34119898 -0.30312735 0.33027148
31 1.68806500 -0.00002600 0.00000200 0.01776759 -0.01717729 0.63653519
32 1.33615100 -0.00005100 -0.00000900 0.01141196 -0.03697554 0.07125574
33 4.82051300 0.50934000 0.22486500 0.02166278 -0.41154761 0.49141398
34 1.82699600 0.00006600 0.00000800 -0.01825470 0.03613209 0.80610386
35 1.43657700 -0.00001000 0.00000700 -0.06214143 -0.05215459 0.38435277
36 3.99235300 0.89108700 1.82799400 -0.56746419 -0.44360744 0.84427273
37 1.40591800 0.00002100 -0.00000700 -0.00210264 -0.02940897 0.94673123
38 1.17536900 -0.00013100 0.00000200 0.06945569 0.10192880 0.55474136
39 4.52675600 0.69046000 1.12084200 -0.35364576 -0.47014366 0.73988213
40 1.74404100 -0.00003100 -0.00000200 -0.09372254 -0.04165888 0.91575281
41 1.36876300 -0.00003100 -0.00001700 0.07408091 0.14040330 0.30232408
42 1.92187500 0.94015318 -0.99612400 1.53396021 0.55354067 0.59122475
43 1.50961018 -0.11666382 0.06074600 -0.02565272 0.03265675 0.30312167
44 1.59928100 -0.00000200 0.00000900 0.08331202 0.00474125 0.76923305
45 5.51180600 -0.00000200 0.00000600 -0.48629403 0.00000105 0.00000114
46 0.19685000 0.00000300 -0.00000200 -0.34822500 0.00001500 -0.00000200
47 0.00000000 1.00000000 0.00000000 0.00000000 0.00000000 -1.57079600
48 -4.33264100 17.56767300 -4.02389200 0.00000000 0.00000000 -3.14156200
49 0.22054047 34.83971366 0.08974193 -0.11519713 0.40501947 -1.55758975
50 6.10935277 0.54460839 -1.89990708 0.03306700 0.98900600 1.35504400
51 0.82983100 0.00386700 0.16645600 0.00000000 0.00000000 0.00000000
52 -2.90941800 0.16192400 -0.37886600 0.00000000 0.00000000 0.00000000
53 1.36891700 -0.15662100 1.20644400 0.00000000 0.00000000 0.00000000
54 -2.88351400 0.00000000 0.00000000 0.00000000 0.00000000 0.00000000
55 -1.12836800 0.00630200 -0.34957700 0.00000000 -0.94470200 0.00000000
56 -0.00248100 0.41638900 0.41662900 0.00000000 0.00000000 0.00000000
57 1.16694600 0.00000000 0.00000000 0.00000000 0.00000000 0.00000000
58 -0.69953300 0.50009800 0.29959900 0.05869468 -0.00034607 0.03011446
59 -0.62833600 0.00000000 0.00000000 0.00000000 0.00000000 0.00000000
60 -0.69953300 0.00028700 0.58742100 0.03481542 -0.02873242 -0.05359728
61 -0.62833600 0.00000000 0.00000000 0.00000000 0.00000000 0.00000000
62 -0.69954100 -0.50021300 0.29787600 -0.00139055 0.01179144 0.05092377
63 -0.62833600 0.00000000 0.00000000 0.00000000 0.00000000 0.00000000
64 -0.69954100 -0.49773000 -0.28038800 -0.06825922 0.00952998 -0.02253839
65 -0.62833600 0.00000000 0.00000000 0.00000000 0.00000000 0.00000000
66 -0.69953300 0.00111400 -0.56828000 -0.01829370 -0.04274109 -0.00322014
67 -0.62833600 0.00000000 0.00000000 0.00000000 0.00000000 0.00000000
68 -0.69953300 0.50080500 -0.28003500 0.00641051 0.04556165 0.08215328
69 -0.62833600 0.00000000 0.00000000 0.00000000 0.00000000 0.00000000
70 8.11071211 -2.44937147 0.64426325 2.47821599 -0.79913387 -2.45814591
time 5
0 -0.00000100 8.45008800 -27.50902600 0.00000000 0.00000000 0.00003100
1 -0.00000200 0.00000000 0.00000000 1.57074300 -1.56713700 -1.57074300
2 4.25546800 -0.33518300 -0.00000200 0.00000000 0.00000000 -0.12484800
3 7.43124800 1.49647700 0.00000200 0.00000000 0.00000000 0.24545000
4 5.27847900 0.16554100 0.00000100 0.00000000 0.00000000 0.04851100
5 -2.53566544 -10.17536291 0.14234511 1.97586400 1.15990900 -1.29878600
6 -6.21448200 -0.00000700 -0.00002700 -2.56211558 -0.42168322 1.53009471
7 11.94488200 0.00000000 0.00000100 -1.57789394 -0.35643243 1.76871797
8 10.62018100 0.00000200 0.00000000 0.51641136 -1.00777575 2.35758054
9 -4.75110600 -0.69449400 0.83057700 -0.28808200 -0.24146600 0.76981700
10 -1.68806800 0.00004600 -0.00003200 0.00883989 -0.02312573 1.07380482
11 -1.33614000 0.00005700 -0.00001200 0.01961600 -0.01759000 1.28482400
12 -4.82049400 -0.50946000 -0.22475900 -0.26084500 0.21374100 1.64897400
13 -1.82699200 -0.00006400 0.00000600 -0.01520200 0.03755300 0.88896800
14 -1.43657300 0.00000600 0.00000200 -0.06517800 -0.04241000 0.90266200
15 -3.99235500 -0.89118800 -1.82790900 -0.52084900 0.34179900 1.51527800
16 -1.40591800 -0.00002500 -0.00000300 0.00507600 -0.02907100 0.70200400
17 -1.17535800 0.00012800 -0.00002000 0.05677300 0.03733400 0.89401900
18 -4.52675100 -0.69057500 -1.12074400 -0.36586200 0.31587000 1.75669500
19 -1.74403800 0.00003300 -0.00000800 -0.01668800 -0.02440900 1.01221400
20 -1.36877100 0.00002500 0.00000200 0.02596100 0.04564200 0.41256700
21 -1.87480000 -0.93512500 0.99917400 1.99500900 0.49378100 0.93085200
22 -1.52345300 0.00003200 0.00003100 0.06491800 0.04056800 0.55288000
23 -1.59928500 0.00000400 0.00001600 0.03779100 -0.02036500 0.47607600
24 5.51181500 0.00000800 -0.00000100 0.69106968 -0.00039238 -3.14065931
25 0.19684700 -0.00000100 0.00000300 2.79340676 -0.00118459 -3.14134160
26 0.18839300 -12.84705500 -5.24150100 1.97586200 1.15990900 1.84280300
27 6.21448500 0.00000600 0.00002000 -0.17287666 0.33958122 -2.31906183
28 11.94488500 -0.00002900 -0.00019400 0.01227784 -0.37126646 -1.49684988
29 10.62016600 0.00000200 0.00001000 -1.37537017 0.02807497 0.09807924
30 4.75115600 0.69437600 -0.83047300 0.34156350 -0.30271651 0.32903085
31 1.68806500 -0.00002600 0.00000200 0.01778358 -0.01715171 0.63527454
32 1.33615100 -0.00005100 -0.00000900 0.01145149 -0.03695410 0.07000115
33 4.82051300 0.50934000 0.22486500 0.02221223 -0.41152552 0.49005194
34 1.82699600 0.00006600 0.00000800 -0.01829799 0.03611322 0.80485465
35 1.43657700 -0.00001000 0.00000700 -0.06208531 -0.05223069 0.38309759
36 3.99235300 0.89108700 1.82799400 -0.56695293 -0.44427939 0.84307957
37 1.40591800 0.00002100 -0.00000700 -0.00206343 -0.02940413 0.94547761
38 1.17536900 -0.00013100 0.00000200 0.06932263 0.10200978 0.55348935
39 4.52675600 0.69046000 1.12084200 -0.35304338 -0.47058558 0.73856568
40 1.74404100 -0.00003100 -0.00000200 -0.09366322 -0.04178691 0.91451267
41 1.36876300 -0.00003100 -0.00001700 0.07390626 0.14049653 0.30106373
42 1.92187518 0.94015318 -0.99612418 1.53394718 0.55480814 0.59117499
43 1.50961018 -0.11666400 0.06074618 -0.02569113 0.03262812 0.30187315
44 1.59928100 -0.00000200 0.00000900 0.08331348 0.00484244 0.76798039
45 5.51180600 -0.00000200 0.00000600 -0.42884618 0.00000102 0.00000117
46 0.19685000 0.00000300 -0.00000200 -0.34822500 0.00001500 -0.00000200
47 0.00000000 1.00000000 0.00000000 0.00000000 0.00000000 -1.57079600
48 -4.33264100 17.56767300 -4.02389200 0.00000000 0.00000000 -3.14156200
49 -0.29067616 35.63638161 -0.68121253 -0.01560881 0.17667485 -1.52137119
50 6.10935312 0.54460839 -1.89990726 0.03306700 0.98900600 1.35504400
51 0.82983100 0.00386700 0.16645600 0.00000000 0.00000000 0.00000000
52 -2.90941800 0.16192400 -0.37886600 0.00000000 0.00000000 0.00000000
53 1.36891700 -0.15662100 1.20644400 0.00000000 0.00000000 0.00000000
54 -2.88351400 0.00000000 0.00000000 0.00000000 0.00000000 0.00000000
55 -1.12836800 0.00630200 -0.34957700 0.00000000 -0.94470200 0.00000000
56 -0.00248100 0.41638900 0.41662900 0.00000000 0.00000000 0.00000000
57 1.16694600 0.00000000 0.00000000 0.00000000 0.00000000 0.00000000
58 -0.69953300 0.50009800 0.29959900 0.06509535 -0.00411755 0.02968607
59 -0.62833600 0.00000000 0.00000000 0.00000000 0.00000000 0.00000000
60 -0.69953300 0.00028700 0.58742100 -0.00387100 -0.02131500 -0.05496633
61 -0.62833600 0.00000000 0.00000000 0.00000000 0.00000000 0.00000000
62 -0.69954100 -0.50021300 0.29787600 -0.02714070 0.00844877 0.05066803
63 -0.62833600 0.00000000 0.00000000 0.00000000 0.00000000 0.00000000
64 -0.69954100 -0.49773000 -0.28038800 -0.07513591 0.00457411 -0.02761459
65 -0.62833600 0.00000000 0.00000000 0.00000000 0.00000000 0.00000000
66 -0.69953300 0.00111400 -0.56828000 -0.01310219 -0.02690364 0.00893315
67 -0.62833600 0.00000000 0.00000000 0.00000000 0.00000000 0.00000000
68 -0.69953300 0.50080500 -0.28003500 0.02497109 0.04650014 0.08167265
69 -0.62833600 0.00000000 0.00000000 0.00000000 0.00000000 0.00000000
70 7.62124030 -2.27857880 0.45000998 2.30054174 -1.03123606 -2.23963286
time 6
0 -0.00000100 8.45008800 -27.50902600 0.00000000 0.00000000 0.00003100
1 -0.00000200 0.00000000 0.00000000 1.57074300 -1.56713700 -1.57074300
2 4.25546800 -0.33518300 -0.00000200 0.00000000 0.00000000 -0.12484800
3 7.43124800 1.49647700 0.00000200 0.00000000 0.00000000 0.24545000
4 5.27847900 0.16554100 0.00000100 0.00000000 0.00000000 0.04851100
5 -1.80402151 -9.74065079 -0.12477781 1.97586400 1.15990900 -1.29878600
6 -6.21448200 -0.00000700 -0.00002700 -2.62584770 -0.42719351 1.58063971
7 11.94488200 0.00000000 0.00000100 -1.55590019 -0.34883515 1.70439616
8 10.62018100 0.00000200 0.00000000 0.49378019 -1.06814748 2.45166186
9 -4.75110600 -0.69449400 0.83057700 -0.28808200 -0.24146600 0.76981700
10 -1.68806800 0.00004600 -0.00003200 0.00883989 -0.02312573 1.07380482
11 -1.33614000 0.00005700 -0.00001200 0.01961600 -0.01759000 1.28482400
12 -4.82049400 -0.50946000 -0.22475900 -0.26084500 0.21374100 1.64897400
13 -1.82699200 -0.00006400 0.00000600 -0.01520200 0.03755300 0.88896800
14 -1.43657300 0.00000600 0.00000200 -0.06517800 -0.04241000 0.90266200
15 -3.99235500 -0.89118800 -1.82790900 -0.52084900 0.34179900 1.51527800
16 -1.40591800 -0.00002500 -0.00000300 0.00507600 -0.02907100 0.70200400
17 -1.17535800 0.00012800 -0.00002000 0.05677300 0.03733400 0.89401900
18 -4.52675100 -0.69057500 -1.12074400 -0.36586200 0.31587000 1.75669500
19 -1.74403800 0.00003300 -0.00000800 -0.01668800 -0.02440900 1.01221400
20 -1.36877100 0.00002500 0.00000200 0.02596100 0.04564200 0.41256700
21 -1.87480000 -0.93512500 0.99917400 1.99500900 0.49378100 0.93085200
22 -1.52345300 0.00003200 0.00003100 0.06491800 0.04056800 0.55288000
23 -1.59928500 0.00000400 0.00001600 0.03779100 -0.02036500 0.47607600
24 5.51181500 0.00000800 -0.00000100 0.69106968 -0.00039238 -3.14065931
25 0.19684700 -0.00000100 0.00000300 2.79340676 -0.00118459 -3.14134160
26 0.18839300 -12.84705500 -5.24150100 1.97586200 1.15990900 1.84280300
27 6.21448500 0.00000600 0.00002000 -0.10648348 0.27948960 -2.24685615
28 11.94488500 -0.00002900 -0.00019400 -0.01468549 -0.34585894 -1.42089159
29 10.62016600 0.00000200 0.00001000 -1.37344989 -0.05956959 0.01794688
30 4.75115600 0.69437600 -0.83047300 0.34119898 -0.30312735 0.33027148
31 1.68806500 -0.00002600 0.00000200 0.01776759 -0.01717729 0.63653519
32 1.33615100 -0.00005100 -0.00000900 0.01141196 -0.03697554 0.07125574
33 4.82051300 0.50934000 0.22486500 0.02166278 -0.41154761 0.49141398
34 1.82699600 0.00006600 0.00000800 -0.01825470 0.03613209 0.80610386
35 1.43657700 -0.00001000 0.00000700 -0.06214143 -0.05215459 0.38435277
36 3.99235300 0.89108700 1.82799400 -0.56746419 -0.44360744 0.84427273
37 1.40591800 0.00002100 -0.00000700 -0.00210264 -0.02940897 0.94673123
38 1.17536900 -0.00013100 0.00000200 0.06945569 0.10192880 0.55474136
39 4.52675600 0.69046000 1.12084200 -0.35364576 -0.47014366 0.73988213
40 1.74404100 -0.00003100 -0.00000200 -0.09372254 -0.04165888 0.91575281
41 1.36876300 -0.00003100 -0.00001700 0.07408091 0.14040330 0.30232408
42 1.92187518 0.94015318 -0.99612418 1.53396021 0.55354067 0.59122475
43 1.50961018 -0.11666400 0.06074618 -0.02565272 0.03265675 0.30312167
44 1.59928100 -0.00000200 0.00000900 0.08331202 0.00474125 0.76923305
45 5.51180600 -0.00000200 0.00000600 -0.37144346 0.00000098 0.00000119
46 0.19685000 0.00000300 -0.00000200 -0.34822500 0.00001500 -0.00000200
47 0.00000000 1.00000000 0.00000000 0.00000000 0.00000000 -1.57079600
48 -4.33264100 17.56767300 -4.02389200 0.00000000 0.00000000 -3.14156200
49 -0.73298043 36.20670080 -1.68950219 0.08713905 0.02175215 -1.50689046
50 6.10935312 0.54460839 -1.89990726 0.03306700 0.98900600 1.35504400
51 0.82983100 0.00386700 0.16645600 0.00000000 0.00000000 0.00000000
52 -2.90941800 0.16192400 -0.37886600 0.00000000 0.00000000 0.00000000
53 1.36891700 -0.15662100 1.20644400 0.00000000 0.00000000 0.00000000
54 -2.88351400 0.00000000 0.00000000 0.00000000 0.00000000 0.00000000
55 -1.12836800 0.00630200 -0.34957700 0.00000000 -0.94470200 0.00000000
56 -0.00248100 0.41638900 0.41662900 0.00000000 0.00000000 0.00000000
57 1.16694600 0.00000000 0.00000000 0.00000000 0.00000000 0.00000000
58 -0.69953300 0.50009800 0.29959900 0.06826220 -0.00858439 0.02853040
59 -0.62833600 0.00000000 0.00000000 0.00000000 0.00000000 0.00000000
60 -0.69953300 0.00028700 0.58742100 -0.05022286 -0.01246430 -0.05555612
61 -0.62833600 0.00000000 0.00000000 0.00000000 0.00000000 0.00000000
62 -0.69954100 -0.50021300 0.29787600 -0.06284465 0.00381815 0.05053125
63 -0.62833600 0.00000000 0.00000000 0.00000000 0.00000000 0.00000000
64 -0.69954100 -0.49773000 -0.28038800 -0.07866896 -0.00122965 -0.03124054
65 -0.62833600 0.00000000 0.00000000 0.00000000 0.00000000 0.00000000
66 -0.69953300 0.00111400 -0.56828000 -0.00677870 -0.00813964 0.02360873
67 -0.62833600 0.00000000 0.00000000 0.00000000 0.00000000 0.00000000
68 -0.69953300 0.50080500 -0.28003500 0.04701484 0.04648344 0.08043299
69 -0.62833600 0.00000000 0.00000000 0.00000000 0.00000000 0.00000000
70 6.90196328 -2.08523961 0.30704480 1.93908609 -1.20447825 -1.85564026
time 7
0 -0.00000100 8.45008800 -27.50902600 0.00000000 0.00000000 0.00003100
1 -0.00000200 0.00000000 0.00000000 1.57074300 -1.56713700 -1.57074300
2 4.25546800 -0.33518300 -0.00000200 0.00000000 0.00000000 -0.12484800
3 7.43124800 1.49647700 0.00000200 0.00000000 0.00000000 0.24545000
4 5.27847900 0.16554100 0.00000100 0.00000000 0.00000000 0.04851100
5 -1.13170073 -9.34118886 -0.37024227 1.97586400 1.15990900 -1.29878600
6 -6.21448200 -0.00000700 -0.00002700 -2.70076996 -0.45266832 1.62465971
7 11.94488200 0.00000000 0.00000100 -1.53298448 -0.34464185 1.63749862
8 10.62018100 0.00000200 0.00000000 0.42945410 -1.00828904 2.54840426
9 -4.75110600 -0.69449400 0.83057700 -0.28808200 -0.24146600 0.76981700
10 -1.68806800 0.00004600 -0.00003200 0.00883989 -0.02312573 1.07380482
11 -1.33614000 0.00005700 -0.00001200 0.01961600 -0.01759000 1.28482400
12 -4.82049400 -0.50946000 -0.22475900 -0.26084500 0.21374100 1.64897400
13 -1.82699200 -0.00006400 0.00000600 -0.01520200 0.03755300 0.88896800
14 -1.43657300 0.00000600 0.00000200 -0.06517800 -0.04241000 0.90266200
15 -3.99235500 -0.89118800 -1.82790900 -0.52084900 0.34179900 1.51527800
16 -1.40591800 -0.00002500 -0.00000300 0.00507600 -0.02907100 0.70200400
17 -1.17535800 0.00012800 -0.00002000 0.05677300 0.03733400 0.89401900
18 -4.52675100 -0.69057500 -1.12074400 -0.36586200 0.31587000 1.75669500
19 -1.74403800 0.00003300 -0.00000800 -0.01668800 -0.02440900 1.01221400
20 -1.36877100 0.00002500 0.00000200 0.02596100 0.04564200 0.41256700
21 -1.87480000 -0.93512500 0.99917400 1.99500900 0.49378100 0.93085200
22 -1.52345300 0.00003200 0.00003100 0.06491800 0.04056800 0.55288000
23 -1.59928500 0.00000400 0.00001600 0.03779100 -0.02036500 0.47607600
24 5.51181500 0.00000800 -0.00000100 0.69106968 -0.00039238 -3.14065931
25 0.19684700 -0.00000100 0.00000300 2.79340676 -0.00118459 -3.14134160
26 0.18839300 -12.84705500 -5.24150100 1.97586200 1.15990900 1.84280300
27 6.21448500 0.00000600 0.00002000 0.02920550 0.20631365 -2.16549981
28 11.94488500 -0.00002900 -0.00019400 -0.04496232 -0.30971802 -1.33620066
29 10.62016600 0.00000200 0.00001000 -1.35335967 -0.20768791 -0.11596715
30 4.75115600 0.69437600 -0.83047300 0.34030136 -0.30413856 0.33323250
31 1.68806500 -0.00002600 0.00000200 0.01771689 -0.01722800 0.63953053
32 1.33615100 -0.00005100 -0.00000900 0.01129364 -0.03700455 0.07426133
33 4.82051300 0.50934000 0.22486500 0.02034519 -0.41161849 0.49469114
34 1.82699600 0.00006600 0.00000800 -0.01813883 0.03618278 0.80910916
35 1.43657700 -0.00001000 0.00000700 -0.06230906 -0.05196278 0.38735363
36 3.99235300 0.89108700 1.82799400 -0.56865923 -0.44198539 0.84705397
37 1.40591800 0.00002100 -0.00000700 -0.00218120 -0.02940452 0.94972756
38 1.17536900 -0.00013100 0.00000200 0.06975324 0.10171492 0.55774577
39 4.52675600 0.69046000 1.12084200 -0.35506824 -0.46911759 0.74303848
40 1.74404100 -0.00003100 -0.00000200 -0.09383763 -0.04138550 0.91875192
41 1.36876300 -0.00003100 -0.00001700 0.07450912 0.14017533 0.30535128
42 1.92187518 0.94015318 -0.99612418 1.53404084 0.55054277 0.59135706
43 1.50961018 -0.11666400 0.06074618 -0.02554982 0.03273284 0.30612056
44 1.59928100 -0.00000200 0.00000900 0.08332714 0.00447900 0.77220594
45 5.51180600 -0.00000200 0.00000600 -0.31882876 0.00000095 0.00000122
46 0.19685000 0.00000300 -0.00000200 -0.34822500 0.00001500 -0.00000200
47 0.00000000 1.00000000 0.00000000 0.00000000 0.00000000 -1.57079600
48 -4.33264100 17.56767300 -4.02389200 0.00000000 0.00000000 -3.14156200
49 -1.13046526 36.58102529 -2.60101722 0.17856334 -0.03706259 -1.50379845
50 6.10935312 0.54460839 -1.89990726 0.03306700 0.98900600 1.35504400
51 0.82983100 0.00386700 0.16645600 0.00000000 0.00000000 0.00000000
52 -2.90941800 0.16192400 -0.37886600 0.00000000 0.00000000 0.00000000
53 1.36891700 -0.15662100 1.20644400 0.00000000 0.00000000 0.00000000
54 -2.88351400 0.00000000 0.00000000 0.00000000 0.00000000 0.00000000
55 -1.12836800 0.00630200 -0.34957700 0.00000000 -0.94470200 0.00000000
56 -0.00248100 0.41638900 0.41662900 0.00000000 0.00000000 0.00000000
57 1.16694600 0.00000000 0.00000000 0.00000000 0.00000000 0.00000000
58 -0.69953300 0.50009800 0.29959900 0.06945189 -0.01222213 0.02655437
59 -0.62833600 0.00000000 0.00000000 0.00000000 0.00000000 0.00000000
60 -0.69953300 0.00028700 0.58742100 -0.08903182 -0.00504740 -0.05630048
61 -0.62833600 0.00000000 0.00000000 0.00000000 0.00000000 0.00000000
62 -0.69954100 -0.50021300 0.29787600 -0.10273448 -0.00101438 0.05059437
63 -0.62833600 0.00000000 0.00000000 0.00000000 0.00000000 0.00000000
64 -0.69954100 -0.49773000 -0.28038800 -0.07989623 -0.00602689 -0.03343289
65 -0.62833600 0.00000000 0.00000000 0.00000000 0.00000000 0.00000000
66 -0.69953300 0.00111400 -0.56828000 -0.00117159 0.00747320 0.03602202
67 -0.62833600 0.00000000 0.00000000 0.00000000 0.00000000 0.00000000
68 -0.69953300 0.50080500 -0.28003500 0.06548886 0.04612991 0.07825718
69 -0.62833600 0.00000000 0.00000000 0.00000000 0.00000000 0.00000000
70 5.91110292 -1.87867321 0.25751109 1.39446850 -1.27378757 -1.31047371
time 8
0 -0.00000100 8.45008800 -27.50902600 0.00000000 0.00000000 0.00003100
1 -0.00000200 0.00000000 0.00000000 1.57074300 -1.56713700 -1.57074300
2 4.25546800 -0.33518300 -0.00000200 0.00000000 0.00000000 -0.12484800
3 7.43124800 1.49647700 0.00000200 0.00000000 0.00000000 0.24545000
4 5.27847900 0.16554100 0.00000100 0.00000000 0.00000000 0.04851100
5 -0.57802302 -9.01221828 -0.57238898 1.97586400 1.15990900 -1.29878600
6 -6.21448200 -0.00000700 -0.00002700 -2.76199071 -0.46976408 1.64879496
7 11.94488200 0.00000000 0.00000100 -1.51161861 -0.34331177 1.57536021
8 10.62018100 0.00000200 0.00000000 0.39560338 -0.92266338 2.59047803
9 -4.75110600 -0.69449400 0.83057700 -0.28808200 -0.24146600 0.76981700
10 -1.68806800 0.00004600 -0.00003200 0.00883989 -0.02312573 1.07380482
11 -1.33614000 0.00005700 -0.00001200 0.01961600 -0.01759000 1.28482400
12 -4.82049400 -0.50946000 -0.22475900 -0.26084500 0.21374100 1.64897400
13 -1.82699200 -0.00006400 0.00000600 -0.01520200 0.03755300 0.88896800
14 -1.43657300 0.00000600 0.00000200 -0.06517800 -0.04241000 0.90266200
15 -3.99235500 -0.89118800 -1.82790900 -0.52084900 0.34179900 1.51527800
16 -1.40591800 -0.00002500 -0.00000300 0.00507600 -0.02907100 0.70200400
17 -1.17535800 0.00012800 -0.00002000 0.05677300 0.03733400 0.89401900
18 -4.52675100 -0.69057500 -1.12074400 -0.36586200 0.31587000 1.75669500
19 -1.74403800 0.00003300 -0.00000800 -0.01668800 -0.02440900 1.01221400
20 -1.36877100 0.00002500 0.00000200 0.02596100 0.04564200 0.41256700
21 -1.87480000 -0.93512500 0.99917400 1.99500900 0.49378100 0.93085200
22 -1.52345300 0.00003200 0.00003100 0.06491800 0.04056800 0.55288000
23 -1.59928500 0.00000400 0.00001600 0.03779100 -0.02036500 0.47607600
24 5.51181500 0.00000800 -0.00000100 0.69106968 -0.00039238 -3.14065931
25 0.19684700 -0.00000100 0.00000300 2.79340676 -0.00118459 -3.14134160
26 0.18839300 -12.84705500 -5.24150100 1.97586200 1.15990900 1.84280300
27 6.21448500 0.00000600 0.00002000 0.15302277 0.11210546 -2.12378666
28 11.94488500 -0.00002900 -0.00019400 -0.08879482 -0.27537075 -1.20999902
29 10.62016600 0.00000200 0.00001000 -1.33594497 -0.33936246 -0.28549569
30 4.75115600 0.69437600 -0.83047300 0.33924074 -0.30532855 0.33677498
31 1.68806500 -0.00002600 0.00000200 0.01765603 -0.01729835 0.64311897
32 1.33615100 -0.00005100 -0.00000900 0.01116406 -0.03705241 0.07784046
33 4.82051300 0.50934000 0.22486500 0.01878581 -0.41168276 0.49859410
34 1.82699600 0.00006600 0.00000800 -0.01800637 0.03625276 0.81269552
35 1.43657700 -0.00001000 0.00000700 -0.06249143 -0.05175320 0.39092578
36 3.99235300 0.89108700 1.82799400 -0.57008497 -0.44004850 0.85039897
37 1.40591800 0.00002100 -0.00000700 -0.00229601 -0.02938518 0.95330839
38 1.17536900 -0.00013100 0.00000200 0.07012528 0.10146777 0.56133848
39 4.52675600 0.69046000 1.12084200 -0.35676829 -0.46786858 0.74680513
40 1.74404100 -0.00003100 -0.00000200 -0.09399899 -0.04105125 0.92231206
41 1.36876300 -0.00003100 -0.00001700 0.07500563 0.13990611 0.30894960
42 1.92187518 0.94015318 -0.99612418 1.53412602 0.54697027 0.59151723
43 1.50961018 -0.11666400 0.06074618 -0.02543755 0.03281647 0.30970156
44 1.59928100 -0.00000200 0.00000900 0.08334341 0.00419159 0.77578723
45 5.51180600 -0.00000200 0.00000600 -0.27565710 0.00000092 0.00000124
46 0.19685000 0.00000300 -0.00000200 -0.34822500 0.00001500 -0.00000200
47 0.00000000 1.00000000 0.00000000 0.00000000 0.00000000 -1.57079600
48 -4.33264100 17.56767300 -4.02389200 0.00000000 0.00000000 -3.14156200
49 -1.49002057 36.79243861 -3.14753768 0.24643651 -0.04901365 -1.50441691
50 6.10935312 0.54460839 -1.89990726 0.03306700 0.98900600 1.35504400
51 0.82983100 0.00386700 0.16645600 0.00000000 0.00000000 0.00000000
52 -2.90941800 0.16192400 -0.37886600 0.00000000 0.00000000 0.00000000
53 1.36891700 -0.15662100 1.20644400 0.00000000 0.00000000 0.00000000
54 -2.88351400 0.00000000 0.00000000 0.00000000 0.00000000 0.00000000
55 -1.12836800 0.00630200 -0.34957700 0.00000000 -0.94470200 0.00000000
56 -0.00248100 0.41638900 0.41662900 0.00000000 0.00000000 0.00000000
57 1.16694600 0.00000000 0.00000000 0.00000000 0.00000000 0.00000000
58 -0.69953300 0.50009800 0.29959900 0.06960623 -0.01372934 0.02342618
59 -0.62833600 0.00000000 0.00000000 0.00000000 0.00000000 0.00000000
60 -0.69953300 0.00028700 0.58742100 -0.10527589 -0.00211957 -0.05774556
61 -0.62833600 0.00000000 0.00000000 0.00000000 0.00000000 0.00000000
62 -0.69954100 -0.50021300 0.29787600 -0.14089079 -0.00527284 0.05082514
63 -0.62833600 0.00000000 0.00000000 0.00000000 0.00000000 0.00000000
64 -0.69954100 -0.49773000 -0.28038800 -0.08001463 -0.00805792 -0.03419663
65 -0.62833600 0.00000000 0.00000000 0.00000000 0.00000000 0.00000000
66 -0.69953300 0.00111400 -0.56828000 0.00113504 0.01403637 0.04125900
67 -0.62833600 0.00000000 0.00000000 0.00000000 0.00000000 0.00000000
68 -0.69953300 0.50080500 -0.28003500 0.07317249 0.04603535 0.07482561
69 -0.62833600 0.00000000 0.00000000 0.00000000 0.00000000 0.00000000
70 4.59295524 -1.67083456 0.61765715 0.94369566 -1.25803212 -0.89037229
time 9
0 -0.00000100 8.45008800 -27.50902600 0.00000000 0.00000000 0.00003100
1 -0.00000200 0.00000000 0.00000000 1.57074300 -1.56713700 -1.57074300
2 4.25546800 -0.33518300 -0.00000200 0.00000000 0.00000000 -0.12484800
3 7.43124800 1.49647700 0.00000200 0.00000000 0.00000000 0.24545000
4 5.27847900 0.16554100 0.00000100 0.00000000 0.00000000 0.04851100
5 -0.20231481 -8.78898759 -0.70956032 1.97586400 1.15990900 -1.29878600
6 -6.21448200 -0.00000700 -0.00002700 -2.79531212 -0.47146639 1.65541148
7 11.94488200 0.00000000 0.00000100 -1.49734044 -0.34229763 1.53378172
8 10.62018100 0.00000200 0.00000000 0.39445180 -0.88252492 2.60483999
9 -4.75110600 -0.69449400 0.83057700 -0.28808200 -0.24146600 0.76981700
10 -1.68806800 0.00004600 -0.00003200 0.00883989 -0.02312573 1.07380482
11 -1.33614000 0.00005700 -0.00001200 0.01961600 -0.01759000 1.28482400
12 -4.82049400 -0.50946000 -0.22475900 -0.26084500 0.21374100 1.64897400
13 -1.82699200 -0.00006400 0.00000600 -0.01520200 0.03755300 0.88896800
14 -1.43657300 0.00000600 0.00000200 -0.06517800 -0.04241000 0.90266200
15 -3.99235500 -0.89118800 -1.82790900 -0.52084900 0.34179900 1.51527800
16 -1.40591800 -0.00002500 -0.00000300 0.00507600 -0.02907100 0.70200400
17 -1.17535800 0.00012800 -0.00002000 0.05677300 0.03733400 0.89401900
18 -4.52675100 -0.69057500 -1.12074400 -0.36586200 0.31587000 1.75669500
19 -1.74403800 0.00003300 -0.00000800 -0.01668800 -0.02440900 1.01221400
20 -1.36877100 0.00002500 0.00000200 0.02596100 0.04564200 0.41256700
21 -1.87480000 -0.93512500 0.99917400 1.99500900 0.49378100 0.93085200
22 -1.52345300 0.00003200 0.00003100 0.06491800 0.04056800 0.55288000
23 -1.59928500 0.00000400 0.00001600 0.03779100 -0.02036500 0.47607600
24 5.51181500 0.00000800 -0.00000100 0.69106968 -0.00039238 -3.14065931
25 0.19684700 -0.00000100 0.00000300 2.79340676 -0.00118459 -3.14134160
26 0.18839300 -12.84705500 -5.24150100 1.97586200 1.15990900 1.84280300
27 6.21448500 0.00000600 0.00002000 0.22070501 0.03304989 -2.11857674
28 11.94488500 -0.00002900 -0.00019400 -0.13513254 -0.24373393 -1.07188065
29 10.62016600 0.00000200 0.00001000 -1.33403235 -0.41678061 -0.44912902
30 4.75115600 0.69437600 -0.83047300 0.33834870 -0.30632610 0.33973339
31 1.68806500 -0.00002600 0.00000200 0.01760554 -0.01734911 0.64611551
32 1.33615100 -0.00005100 -0.00000900 0.01106116 -0.03708242 0.08084723
33 4.82051300 0.50934000 0.22486500 0.01747306 -0.41174117 0.50186746
34 1.82699600 0.00006600 0.00000800 -0.01790509 0.03630976 0.81568994
35 1.43657700 -0.00001000 0.00000700 -0.06264397 -0.05156492 0.39392044
36 3.99235300 0.89108700 1.82799400 -0.57127119 -0.43843643 0.85318069
37 1.40591800 0.00002100 -0.00000700 -0.00238193 -0.02939470 0.95631495
38 1.17536900 -0.00013100 0.00000200 0.07042313 0.10125489 0.56434147
39 4.52675600 0.69046000 1.12084200 -0.35819276 -0.46681177 0.74995275
40 1.74404100 -0.00003100 -0.00000200 -0.09410788 -0.04076491 0.92530185
41 1.36876300 -0.00003100 -0.00001700 0.07543375 0.13967966 0.31196863
42 1.92187518 0.94015318 -0.99612418 1.53417682 0.54397157 0.59163374
43 1.50961018 -0.11666400 0.06074618 -0.02533483 0.03289301 0.31270820
44 1.59928100 -0.00000200 0.00000900 0.08336478 0.00394345 0.77876579
45 5.51180600 -0.00000200 0.00000600 -0.24649245 0.00000090 0.00000125
46 0.19685000 0.00000300 -0.00000200 -0.34822500 0.00001500 -0.00000200
47 0.00000000 1.00000000 0.00000000 0.00000000 0.00000000 -1.57079600
48 -4.33264100 17.56767300 -4.02389200 0.00000000 0.00000000 -3.14156200
49 -1.74836185 36.88497744 -3.38925313 0.29351409 -0.06359924 -1.50801267
50 6.10935312 0.54460839 -1.89990726 0.03306700 0.98900600 1.35504400
51 0.82983100 0.00386700 0.16645600 0.00000000 0.00000000 0.00000000
52 -2.90941800 0.16192400 -0.37886600 0.00000000 0.00000000 0.00000000
53 1.36891700 -0.15662100 1.20644400 0.00000000 0.00000000 0.00000000
54 -2.88351400 0.00000000 0.00000000 0.00000000 0.00000000 0.00000000
55 -1.12836800 0.00630200 -0.34957700 0.00000000 -0.94470200 0.00000000
56 -0.00248100 0.41638900 0.41662900 0.00000000 0.00000000 0.00000000
57 1.16694600 0.00000000 0.00000000 0.00000000 0.00000000 0.00000000
58 -0.69953300 0.50009800 0.29959900 0.06403697 -0.01324355 0.01756005
59 -0.62833600 0.00000000 0.00000000 0.00000000 0.00000000 0.00000000
60 -0.69953300 0.00028700 0.58742100 -0.08596971 -0.00182438 -0.06028899
61 -0.62833600 0.00000000 0.00000000 0.00000000 0.00000000 0.00000000
62 -0.69954100 -0.50021300 0.29787600 -0.17252232 -0.00824491 0.05185133
63 -0.62833600 0.00000000 0.00000000 0.00000000 0.00000000 0.00000000
64 -0.69954100 -0.49773000 -0.28038800 -0.07639622 -0.00407019 -0.03005594
65 -0.62833600 0.00000000 0.00000000 0.00000000 0.00000000 0.00000000
66 -0.69953300 0.00111400 -0.56828000 -0.00665019 0.00973155 0.03852918
67 -0.62833600 0.00000000 0.00000000 0.00000000 0.00000000 0.00000000
68 -0.69953300 0.50080500 -0.28003500 0.07193028 0.04462973 0.07012653
69 -0.62833600 0.00000000 0.00000000 0.00000000 0.00000000 0.00000000
70 3.34408949 -1.50559900 1.27874434 0.70025552 -1.22354494 -0.69208540
time 10
0 -0.00000100 8.45008800 -27.50902600 0.00000000 0.00000000 0.00003100
1 -0.00000200 0.00000000 0.00000000 1.57074300 -1.56713700 -1.57074300
2 4.25546800 -0.33518300 -0.00000200 0.00000000 0.00000000 -0.12484800
3 7.43124800 1.49647700 0.00000200 0.00000000 0.00000000 0.24545000
4 5.27847900 0.16554100 0.00000100 0.00000000 0.00000000 0.04851100
5 -0.06389600 -8.70674700 -0.76009700 1.97586400 1.15990900 -1.29878600
6 -6.21448200 -0.00000700 -0.00002700 -2.80611925 -0.46953786 1.65966639
7 11.94488200 0.00000000 0.00000100 -1.49256833 -0.34136913 1.51997594
8 10.62018100 0.00000200 0.00000000 0.40812212 -0.86829103 2.61310201
9 -4.75110600 -0.69449400 0.83057700 -0.28808200 -0.24146600 0.76981700
10 -1.68806800 0.00004600 -0.00003200 0.00883989 -0.02312573 1.07380482
11 -1.33614000 0.00005700 -0.00001200 0.01961600 -0.01759000 1.28482400
12 -4.82049400 -0.50946000 -0.22475900 -0.26084500 0.21374100 1.64897400
13 -1.82699200 -0.00006400 0.00000600 -0.01520200 0.03755300 0.88896800
14 -1.43657300 0.00000600 0.00000200 -0.06517800 -0.04241000 0.90266200
15 -3.99235500 -0.89118800 -1.82790900 -0.52084900 0.34179900 1.51527800
16 -1.40591800 -0.00002500 -0.00000300 0.00507600 -0.02907100 0.70200400
17 -1.17535800 0.00012800 -0.00002000 0.05677300 0.03733400 0.89401900
18 -4.52675100 -0.69057500 -1.12074400 -0.36586200 0.31587000 1.75669500
19 -1.74403800 0.00003300 -0.00000800 -0.01668800 -0.02440900 1.01221400
20 -1.36877100 0.00002500 0.00000200 0.02596100 0.04564200 0.41256700
21 -1.87480000 -0.93512500 0.99917400 1.99500900 0.49378100 0.93085200
22 -1.52345300 0.00003200 0.00003100 0.06491800 0.04056800 0.55288000
23 -1.59928500 0.00000400 0.00001600 0.03779100 -0.02036500 0.47607600
24 5.51181500 0.00000800 -0.00000100 0.69106968 -0.00039238 -3.14065931
25 0.19684700 -0.00000100 0.00000300 2.79340676 -0.00118459 -3.14134160
26 0.18839300 -12.84705500 -5.24150100 1.97586200 1.15990900 1.84280300
27 6.21448500 0.00000600 0.00002000 0.24965309 0.00255153 -2.12452297
28 11.94488500 -0.00002900 -0.00019400 -0.15778205 -0.22952538 -1.00100470
29 10.62016600 0.00000200 0.00001000 -1.33266681 -0.46394256 -0.53008227
30 4.75115600 0.69437600 -0.83047300 0.33798500 -0.30674000 0.34098200
31 1.68806500 -0.00002600 0.00000200 0.01757500 -0.01737000 0.64737200
32 1.33615100 -0.00005100 -0.00000900 0.01100700 -0.03708800 0.08210300
33 4.82051300 0.50934000 0.22486500 0.01692600 -0.41175000 0.50323800
34 1.82699600 0.00006600 0.00000800 -0.01786200 0.03632900 0.81693800
35 1.43657700 -0.00001000 0.00000700 -0.06271600 -0.05148600 0.39518300
36 3.99235300 0.89108700 1.82799400 -0.57177300 -0.43776000 0.85434600
37 1.40591800 0.00002100 -0.00000700 -0.00241400 -0.02938600 0.95757000
38 1.17536900 -0.00013100 0.00000200 0.07055700 0.10117400 0.56560400
39 4.52675600 0.69046000 1.12084200 -0.35878000 -0.46637900 0.75126100
40 1.74404100 -0.00003100 -0.00000200 -0.09416100 -0.04065700 0.92656100
41 1.36876300 -0.00003100 -0.00001700 0.07560900 0.13958700 0.31323400
42 1.92187500 0.94015318 -0.99612400 1.53421100 0.54272100 0.59169000
43 1.50961018 -0.11666382 0.06074600 -0.02529400 0.03293700 0.31396200
44 1.59928100 -0.00000200 0.00000900 0.08335800 0.00382800 0.78001600
45 5.51180600 -0.00000200 0.00000600 -0.23578633 0.00000090 0.00000126
46 0.19685000 0.00000300 -0.00000200 -0.34822500 0.00001500 -0.00000200
47 0.00000000 1.00000000 0.00000000 0.00000000 0.00000000 -1.57079600
48 -4.33264100 17.56767300 -4.02389200 0.00000000 0.00000000 -3.14156200
49 -1.80724025 36.90543028 -3.47171333 0.32657436 -0.07130657 -1.51249603
50 6.10935277 0.54460839 -1.89990708 0.03306700 0.98900600 1.35504400
51 0.82983100 0.00386700 0.16645600 0.00000000 0.00000000 0.00000000
52 -2.90941800 0.16192400 -0.37886600 0.00000000 0.00000000 0.00000000
53 1.36891700 -0.15662100 1.20644400 0.00000000 0.00000000 0.00000000
54 -2.88351400 0.00000000 0.00000000 0.00000000 0.00000000 0.00000000
55 -1.12836800 0.00630200 -0.34957700 0.00000000 -0.94470200 0.00000000
56 -0.00248100 0.41638900 0.41662900 0.00000000 0.00000000 0.00000000
57 1.16694600 0.00000000 0.00000000 0.00000000 0.00000000 0.00000000
58 -0.69953300 0.50009800 0.29959900 0.05003502 -0.01220004 0.00853070
59 -0.62833600 0.00000000 0.00000000 0.00000000 0.00000000 0.00000000
60 -0.69953300 0.00028700 0.58742100 -0.03746792 -0.00119794 -0.06390855
61 -0.62833600 0.00000000 0.00000000 0.00000000 0.00000000 0.00000000
62 -0.69954100 -0.50021300 0.29787600 -0.19715420 -0.01012510 0.05382563
63 -0.62833600 0.00000000 0.00000000 0.00000000 0.00000000 0.00000000
64 -0.69954100 -0.49773000 -0.28038800 -0.06643889 0.00580083 -0.01971457
65 -0.62833600 0.00000000 0.00000000 0.00000000 0.00000000 0.00000000
66 -0.69953300 0.00111400 -0.56828000 -0.02621303 -0.00104046 0.03197092
67 -0.62833600 0.00000000 0.00000000 0.00000000 0.00000000 0.00000000
68 -0.69953300 0.50080500 -0.28003500 0.06858781 0.04070582 0.06437015
69 -0.62833600 0.00000000 0.00000000 0.00000000 0.00000000 0.00000000
70 2.78555100 -1.43482800 1.62906300 0.62774300 -1.20916700 -0.64350400
end
