version 1
nodes
0 "root" -1
1 "pelvis" 0
2 "spine_01" 1
3 "spine_02" 2
4 "spine_03" 3
5 "clavicle_r" 4
6 "upperarm_r" 5
7 "lowerarm_r" 6
8 "hand_r" 7
9 "index_01_r" 8
10 "index_02_r" 9
11 "index_03_r" 10
12 "middle_01_r" 8
13 "middle_02_r" 12
14 "middle_03_r" 13
15 "pinky_01_r" 8
16 "pinky_02_r" 15
17 "pinky_03_r" 16
18 "ring_01_r" 8
19 "ring_02_r" 18
20 "ring_03_r" 19
21 "thumb_01_r" 8
22 "thumb_02_r" 21
23 "thumb_03_r" 22
24 "lowerarm_twist_01_r" 7
25 "upperarm_twist_01_r" 6
26 "clavicle_l" 4
27 "upperarm_l" 26
28 "lowerarm_l" 27
29 "hand_l" 28
30 "index_01_l" 29
31 "index_02_l" 30
32 "index_03_l" 31
33 "middle_01_l" 29
34 "middle_02_l" 33
35 "middle_03_l" 34
36 "pinky_01_l" 29
37 "pinky_02_l" 36
38 "pinky_03_l" 37
39 "ring_01_l" 29
40 "ring_02_l" 39
41 "ring_03_l" 40
42 "thumb_01_l" 29
43 "thumb_02_l" 42
44 "thumb_03_l" 43
45 "lowerarm_twist_01_l" 28
46 "upperarm_twist_01_l" 27
47 "cam_driver" -1
48 "BaseRoot" -1
49 "Base" 48
50 "rhand_ikTarget" 49
51 "Trigger" 49
52 "Mag" 49
53 "Bullets" 52
54 "Bolt" 49
55 "MagRelease" 49
56 "lhand_ikTarget" 49
end
skeleton
time 0
0 -0.00000100 8.45008800 -27.50902600 0.00000000 0.00000000 0.00003100
1 -0.00000200 0.00000000 0.00000000 1.57074700 -1.56714200 -1.57074700
2 4.25546600 -0.33518300 -0.00000200 0.00000000 0.00000000 -0.12484800
3 7.43125000 1.49647900 0.00000200 0.00000000 0.00000000 0.24545000
4 5.27847900 0.16554400 0.00000100 0.00000000 0.00000000 0.04851100
5 -2.49596200 -18.16790000 14.28279100 1.97586500 1.15990900 -1.29878600
6 -6.21447800 -0.00000900 -0.00002600 3.10201402 -0.31685925 0.82500284
7 11.94488500 0.00000000 0.00000000 -0.12996777 -0.32111997 1.29445744
8 10.62018800 0.00000000 0.00000000 0.78215978 0.31205325 2.57867163
9 -4.75110800 -0.69449800 0.83058000 -0.16710000 0.01705900 0.37715400
10 -1.68806800 0.00004700 -0.00003100 0.01971800 -0.01493800 0.51622800
11 -1.33614000 0.00005500 -0.00001000 0.02599100 -0.00450100 0.72485300
12 -4.82049400 -0.50946400 -0.22475900 -0.33846200 -0.01336700 1.23585300
13 -1.82698400 -0.00006900 0.00000800 -0.00024500 0.04047200 1.26807400
14 -1.43656900 0.00000400 0.00000300 -0.05524000 -0.05469200 0.69918900
15 -3.99235700 -0.89119100 -1.82790900 -0.53822200 0.04573000 0.93801100
16 -1.40591800 -0.00002500 -0.00000200 -0.00798600 -0.02836000 1.14978400
17 -1.17535800 0.00012600 -0.00001900 0.05560900 0.03892800 0.86426700
18 -4.52675100 -0.69058000 -1.12074100 -0.43382200 0.07827300 1.31804700
19 -1.74403800 0.00003200 -0.00000800 -0.02662600 -0.01282800 1.53365100
20 -1.36877100 0.00002300 0.00000200 0.02081800 0.04817500 0.30338500
21 -1.87479600 -0.93512500 0.99917500 2.00022900 0.52323300 0.75414300
22 -1.52344700 0.00003100 0.00003100 0.08365400 0.15258100 0.60551300
23 -1.59928500 0.00001100 0.00001500 0.03148800 -0.02916500 0.72724000
24 5.58312200 0.11572800 0.29500100 2.23698600 -0.06403800 3.11154600
25 0.19684600 -0.00000200 0.00000300 2.79340689 -0.00069599 -3.14143820
26 -1.13184500 -11.36644600 0.37473400 1.97586200 1.15991000 1.84280300
27 6.21448600 0.00000800 0.00001900 -1.32720433 0.37037566 -1.91489334
28 11.94488800 -0.00003100 -0.00020000 0.74785073 -0.28486635 -0.89931472
29 10.62016500 0.00000200 0.00000600 -2.27702447 -0.68231637 0.18389000
30 4.75115800 0.69437400 -0.83047400 -0.06963100 -0.18956200 1.20293400
31 1.68806500 -0.00002200 0.00000200 -0.00178600 -0.02466300 1.51256600
32 1.33615100 -0.00005100 -0.00000900 0.00162500 -0.03868900 0.32920800
33 4.82051500 0.50933800 0.22486600 -0.15643200 -0.01406900 1.57957000
34 1.82699200 0.00006600 0.00001000 -0.00186700 0.04038300 1.22708400
35 1.43658100 -0.00000600 0.00001000 0.00808100 -0.01279400 0.27447100
36 3.99235300 0.89108700 1.82799300 -0.26823800 0.10724000 1.40713400
37 1.40592600 0.00003100 -0.00000300 -0.01645600 -0.02445100 1.46689000
38 1.17536200 -0.00013200 0.00000100 0.02096900 0.12149700 0.12659500
39 4.52675800 0.69046400 1.12084300 -0.15292900 0.08798300 1.61269300
40 1.74404100 -0.00003100 -0.00000200 -0.02493600 -0.01580100 1.41848500
41 1.36876700 -0.00003100 -0.00001800 -0.24626800 0.17807500 0.18497200
42 1.87485700 0.93508100 -0.99912900 2.44808600 0.23419600 1.08300800
43 1.45054600 -0.06018800 0.09121700 0.00502863 0.17204423 0.35960075
44 1.59928100 -0.00000400 0.00001000 0.08169400 -0.01721100 1.03306000
45 5.51180600 -0.00000200 0.00000300 -0.66744800 0.00000000 0.00000000
46 0.19684900 0.00000300 -0.00000100 -0.34822500 0.00001500 -0.00000200
47 0.00000000 1.00000000 0.00000000 0.00000000 0.00000000 -1.57079600
48 -3.98884900 5.99511000 -2.72292100 0.00000000 0.00000000 -3.14156200
49 -8.26149896 24.78866805 -0.89214543 0.39586629 0.25150612 -0.38606765
50 10.86289300 0.45780600 -4.08309600 0.21793700 1.03451400 1.57217400
51 4.31811900 0.12671100 -1.02147400 0.00000000 0.00000000 0.00000000
52 -4.53261000 -0.00336500 -0.14022300 0.00000000 0.00000000 0.00000000
53 -0.00019500 0.00000000 0.15614900 0.00000000 0.00000000 0.00000000
54 1.12501800 1.29120100 0.99447800 0.00000000 0.00000000 0.00000000
55 -3.22465900 0.00371900 -1.30251700 0.00000000 0.00000000 0.00000000
56 -1.74734700 -2.37666800 -4.98092600 2.91139000 0.03423400 -1.98019800
time 1
0 -0.00000100 8.45008800 -27.50902600 0.00000000 0.00000000 0.00003100
1 -0.00000200 0.00000000 0.00000000 1.57074700 -1.56714200 -1.57074700
2 4.25546600 -0.33518300 -0.00000200 0.00000000 0.00000000 -0.12484800
3 7.43125000 1.49647900 0.00000200 0.00000000 0.00000000 0.24545000
4 5.27847900 0.16554400 0.00000100 0.00000000 0.00000000 0.04851100
5 -2.49596200 -18.16790000 14.28279100 1.97586500 1.15990900 -1.29878600
6 -6.21447800 -0.00000900 -0.00002600 3.10184776 -0.31738383 0.82481836
7 11.94488500 0.00000000 0.00000000 -0.13235524 -0.32160529 1.30186167
8 10.62018800 0.00000000 0.00000000 0.76969262 0.30739982 2.56535793
9 -4.75110800 -0.69449800 0.83058000 -0.16710000 0.01705900 0.37715400
10 -1.68806800 0.00004700 -0.00003100 0.01971800 -0.01493800 0.51622800
11 -1.33614000 0.00005500 -0.00001000 0.02599100 -0.00450100 0.72485300
12 -4.82049400 -0.50946400 -0.22475900 -0.33846200 -0.01336700 1.23585300
13 -1.82698400 -0.00006900 0.00000800 -0.00024500 0.04047200 1.26807400
14 -1.43656900 0.00000400 0.00000300 -0.05524000 -0.05469200 0.69918900
15 -3.99235700 -0.89119100 -1.82790900 -0.53822200 0.04573000 0.93801100
16 -1.40591800 -0.00002500 -0.00000200 -0.00798600 -0.02836000 1.14978400
17 -1.17535800 0.00012600 -0.00001900 0.05560900 0.03892800 0.86426700
18 -4.52675100 -0.69058000 -1.12074100 -0.43382200 0.07827300 1.31804700
19 -1.74403800 0.00003200 -0.00000800 -0.02662600 -0.01282800 1.53365100
20 -1.36877100 0.00002300 0.00000200 0.02081800 0.04817500 0.30338500
21 -1.87479600 -0.93512500 0.99917500 2.00022900 0.52323300 0.75414300
22 -1.52344700 0.00003100 0.00003100 0.08365400 0.15258100 0.60551300
23 -1.59928500 0.00001100 0.00001500 0.03148800 -0.02916500 0.72724000
24 5.58312200 0.11572800 0.29500100 2.23698600 -0.06403800 3.11154600
25 0.19684600 -0.00000200 0.00000300 2.79340689 -0.00069599 -3.14143820
26 -1.13184500 -11.36644600 0.37473400 1.97586200 1.15991000 1.84280300
27 6.21448600 0.00000800 0.00001900 -1.33221368 0.37633886 -1.91517353
28 11.94488800 -0.00003100 -0.00020000 0.75164301 -0.28317162 -0.91556335
29 10.62016500 0.00000200 0.00000600 -2.26153132 -0.66860625 0.18855739
30 4.75115800 0.69437400 -0.83047400 -0.06963100 -0.18956200 1.20293400
31 1.68806500 -0.00002200 0.00000200 -0.00178600 -0.02466300 1.51256600
32 1.33615100 -0.00005100 -0.00000900 0.00162500 -0.03868900 0.32920800
33 4.82051500 0.50933800 0.22486600 -0.15643200 -0.01406900 1.57957000
34 1.82699200 0.00006600 0.00001000 -0.00186700 0.04038300 1.22708400
35 1.43658100 -0.00000600 0.00001000 0.00808100 -0.01279400 0.27447100
36 3.99235300 0.89108700 1.82799300 -0.26823800 0.10724000 1.40713400
37 1.40592600 0.00003100 -0.00000300 -0.01645600 -0.02445100 1.46689000
38 1.17536200 -0.00013200 0.00000100 0.02096900 0.12149700 0.12659500
39 4.52675800 0.69046400 1.12084300 -0.15292900 0.08798300 1.61269300
40 1.74404100 -0.00003100 -0.00000200 -0.02493600 -0.01580100 1.41848500
41 1.36876700 -0.00003100 -0.00001800 -0.24626800 0.17807500 0.18497200
42 1.87485700 0.93508100 -0.99912900 2.44808600 0.23419600 1.08300800
43 1.45054600 -0.06018800 0.09121700 0.00508358 0.17204422 0.35960137
44 1.59928100 -0.00000400 0.00001000 0.08169400 -0.01721100 1.03306000
45 5.51180600 -0.00000200 0.00000300 -0.66744800 0.00000000 0.00000000
46 0.19684900 0.00000300 -0.00000100 -0.34822500 0.00001500 -0.00000200
47 0.00000000 1.00000000 0.00000000 0.00000000 0.00000000 -1.57079600
48 -3.98884900 5.99511000 -2.72292100 0.00000000 0.00000000 -3.14156200
49 -8.23987985 24.78161505 -0.87803654 0.38208306 0.24902591 -0.38790158
50 10.86289300 0.45780600 -4.08309600 0.21793700 1.03451400 1.57217400
51 4.31811900 0.12671100 -1.02147400 0.00000000 0.00000000 0.00000000
52 -4.53261000 -0.00336500 -0.14022300 0.00000000 0.00000000 0.00000000
53 -0.00019500 0.00000000 0.15614900 0.00000000 0.00000000 0.00000000
54 1.12501800 1.29120100 0.99447800 0.00000000 0.00000000 0.00000000
55 -3.22465900 0.00371900 -1.30251700 0.00000000 0.00000000 0.00000000
56 -1.74734700 -2.37666800 -4.98092600 2.91139000 0.03423400 -1.98019800
time 2
0 -0.00000100 8.45008800 -27.50902600 0.00000000 0.00000000 0.00003100
1 -0.00000200 0.00000000 0.00000000 1.57074700 -1.56714200 -1.57074700
2 4.25546600 -0.33518300 -0.00000200 0.00000000 0.00000000 -0.12484800
3 7.43125000 1.49647900 0.00000200 0.00000000 0.00000000 0.24545000
4 5.27847900 0.16554400 0.00000100 0.00000000 0.00000000 0.04851100
5 -2.49596200 -18.16790000 14.28279100 1.97586500 1.15990900 -1.29878600
6 -6.21447800 -0.00000900 -0.00002600 3.10333453 -0.31808815 0.82801264
7 11.94488500 0.00000000 0.00000000 -0.13709196 -0.32463835 1.31575381
8 10.62018800 0.00000000 0.00000000 0.77096784 0.30058757 2.55215078
9 -4.75110800 -0.69449800 0.83058000 -0.16710000 0.01705900 0.37715400
10 -1.68806800 0.00004700 -0.00003100 0.01971800 -0.01493800 0.51622800
11 -1.33614000 0.00005500 -0.00001000 0.02599100 -0.00450100 0.72485300
12 -4.82049400 -0.50946400 -0.22475900 -0.33846200 -0.01336700 1.23585300
13 -1.82698400 -0.00006900 0.00000800 -0.00024500 0.04047200 1.26807400
14 -1.43656900 0.00000400 0.00000300 -0.05524000 -0.05469200 0.69918900
15 -3.99235700 -0.89119100 -1.82790900 -0.53822200 0.04573000 0.93801100
16 -1.40591800 -0.00002500 -0.00000200 -0.00798600 -0.02836000 1.14978400
17 -1.17535800 0.00012600 -0.00001900 0.05560900 0.03892800 0.86426700
18 -4.52675100 -0.69058000 -1.12074100 -0.43382200 0.07827300 1.31804700
19 -1.74403800 0.00003200 -0.00000800 -0.02662600 -0.01282800 1.53365100
20 -1.36877100 0.00002300 0.00000200 0.02081800 0.04817500 0.30338500
21 -1.87479600 -0.93512500 0.99917500 2.00022900 0.52323300 0.75414300
22 -1.52344700 0.00003100 0.00003100 0.08365400 0.15258100 0.60551300
23 -1.59928500 0.00001100 0.00001500 0.03148800 -0.02916500 0.72724000
24 5.58312200 0.11572800 0.29500100 2.23698600 -0.06403800 3.11154600
25 0.19684600 -0.00000200 0.00000300 2.79340689 -0.00069599 -3.14143820
26 -1.13184500 -11.36644600 0.37473400 1.97586200 1.15991000 1.84280300
27 6.21448600 0.00000800 0.00001900 -1.33178262 0.37751746 -1.91673327
28 11.94488800 -0.00003100 -0.00020000 0.72886422 -0.27980428 -0.92285209
29 10.62016500 0.00000200 0.00000600 -2.23062942 -0.66800292 0.17860975
30 4.75115800 0.69437400 -0.83047400 -0.06963100 -0.18956200 1.20293400
31 1.68806500 -0.00002200 0.00000200 -0.00178600 -0.02466300 1.51256600
32 1.33615100 -0.00005100 -0.00000900 0.00162500 -0.03868900 0.32920800
33 4.82051500 0.50933800 0.22486600 -0.15643200 -0.01406900 1.57957000
34 1.82699200 0.00006600 0.00001000 -0.00186700 0.04038300 1.22708400
35 1.43658100 -0.00000600 0.00001000 0.00808100 -0.01279400 0.27447100
36 3.99235300 0.89108700 1.82799300 -0.26823800 0.10724000 1.40713400
37 1.40592600 0.00003100 -0.00000300 -0.01645600 -0.02445100 1.46689000
38 1.17536200 -0.00013200 0.00000100 0.02096900 0.12149700 0.12659500
39 4.52675800 0.69046400 1.12084300 -0.15292900 0.08798300 1.61269300
40 1.74404100 -0.00003100 -0.00000200 -0.02493600 -0.01580100 1.41848500
41 1.36876700 -0.00003100 -0.00001800 -0.24626800 0.17807500 0.18497200
42 1.87485700 0.93508100 -0.99912900 2.44808600 0.23419600 1.08300800
43 1.45054600 -0.06018800 0.09121700 0.00530091 0.17199001 0.35960062
44 1.59928100 -0.00000400 0.00001000 0.08169400 -0.01721100 1.03306000
45 5.51180600 -0.00000200 0.00000300 -0.66744800 0.00000000 0.00000000
46 0.19684900 0.00000300 -0.00000100 -0.34822500 0.00001500 -0.00000200
47 0.00000000 1.00000000 0.00000000 0.00000000 0.00000000 -1.57079600
48 -3.98884900 5.99511000 -2.72292100 0.00000000 0.00000000 -3.14156200
49 -8.17216011 24.76177105 -0.82978029 0.37837936 0.24695839 -0.39209077
50 10.86289300 0.45780600 -4.08309600 0.21793700 1.03451400 1.57217400
51 4.31811900 0.12671100 -1.02147400 0.00000000 0.00000000 0.00000000
52 -4.53261000 -0.00336500 -0.14022300 0.00000000 0.00000000 0.00000000
53 -0.00019500 0.00000000 0.15614900 0.00000000 0.00000000 0.00000000
54 1.12501800 1.29120100 0.99447800 0.00000000 0.00000000 0.00000000
55 -3.22465900 0.00371900 -1.30251700 0.00000000 0.00000000 0.00000000
56 -1.74734700 -2.37666800 -4.98092600 2.91139000 0.03423400 -1.98019800
time 3
0 -0.00000100 8.45008800 -27.50902600 0.00000000 0.00000000 0.00003100
1 -0.00000200 0.00000000 0.00000000 1.57074700 -1.56714200 -1.57074700
2 4.25546600 -0.33518300 -0.00000200 0.00000000 0.00000000 -0.12484800
3 7.43125000 1.49647900 0.00000200 0.00000000 0.00000000 0.24545000
4 5.27847900 0.16554400 0.00000100 0.00000000 0.00000000 0.04851100
5 -2.49596200 -18.16790000 14.28279100 1.97586500 1.15990900 -1.29878600
6 -6.21447800 -0.00000900 -0.00002600 3.10478041 -0.32014456 0.83967870
7 11.94488500 0.00000000 0.00000000 -0.14680091 -0.32937382 1.34480518
8 10.62018800 0.00000000 0.00000000 0.78965056 0.29233713 2.53424744
9 -4.75110800 -0.69449800 0.83058000 -0.16710000 0.01705900 0.37715400
10 -1.68806800 0.00004700 -0.00003100 0.01971800 -0.01493800 0.51622800
11 -1.33614000 0.00005500 -0.00001000 0.02599100 -0.00450100 0.72485300
12 -4.82049400 -0.50946400 -0.22475900 -0.33846200 -0.01336700 1.23585300
13 -1.82698400 -0.00006900 0.00000800 -0.00024500 0.04047200 1.26807400
14 -1.43656900 0.00000400 0.00000300 -0.05524000 -0.05469200 0.69918900
15 -3.99235700 -0.89119100 -1.82790900 -0.53822200 0.04573000 0.93801100
16 -1.40591800 -0.00002500 -0.00000200 -0.00798600 -0.02836000 1.14978400
17 -1.17535800 0.00012600 -0.00001900 0.05560900 0.03892800 0.86426700
18 -4.52675100 -0.69058000 -1.12074100 -0.43382200 0.07827300 1.31804700
19 -1.74403800 0.00003200 -0.00000800 -0.02662600 -0.01282800 1.53365100
20 -1.36877100 0.00002300 0.00000200 0.02081800 0.04817500 0.30338500
21 -1.87479600 -0.93512500 0.99917500 2.00022900 0.52323300 0.75414300
22 -1.52344700 0.00003100 0.00003100 0.08365400 0.15258100 0.60551300
23 -1.59928500 0.00001100 0.00001500 0.03148800 -0.02916500 0.72724000
24 5.58312200 0.11572800 0.29500100 2.23698600 -0.06403800 3.11154600
25 0.19684600 -0.00000200 0.00000300 2.79340689 -0.00069599 -3.14143820
26 -1.13184500 -11.36644600 0.37473400 1.97586200 1.15991000 1.84280300
27 6.21448600 0.00000800 0.00001900 -1.31824002 0.37627497 -1.92054410
28 11.94488800 -0.00003100 -0.00020000 0.66059611 -0.27801300 -0.91805096
29 10.62016500 0.00000200 0.00000600 -2.17136087 -0.68694573 0.14317848
30 4.75115800 0.69437400 -0.83047400 -0.06963100 -0.18956200 1.20293400
31 1.68806500 -0.00002200 0.00000200 -0.00178600 -0.02466300 1.51256600
32 1.33615100 -0.00005100 -0.00000900 0.00162500 -0.03868900 0.32920800
33 4.82051500 0.50933800 0.22486600 -0.15643200 -0.01406900 1.57957000
34 1.82699200 0.00006600 0.00001000 -0.00186700 0.04038300 1.22708400
35 1.43658100 -0.00000600 0.00001000 0.00808100 -0.01279400 0.27447100
36 3.99235300 0.89108700 1.82799300 -0.26823800 0.10724000 1.40713400
37 1.40592600 0.00003100 -0.00000300 -0.01645600 -0.02445100 1.46689000
38 1.17536200 -0.00013200 0.00000100 0.02096900 0.12149700 0.12659500
39 4.52675800 0.69046400 1.12084300 -0.15292900 0.08798300 1.61269300
40 1.74404100 -0.00003100 -0.00000200 -0.02493600 -0.01580100 1.41848500
41 1.36876700 -0.00003100 -0.00001800 -0.24626800 0.17807500 0.18497200
42 1.87485700 0.93508100 -0.99912900 2.44808600 0.23419600 1.08300800
43 1.45054600 -0.06018800 0.09121700 0.00568161 0.17199001 0.35960054
44 1.59928100 -0.00000400 0.00001000 0.08169400 -0.01721100 1.03306000
45 5.51180600 -0.00000200 0.00000300 -0.66744800 0.00000000 0.00000000
46 0.19684900 0.00000300 -0.00000100 -0.34822500 0.00001500 -0.00000200
47 0.00000000 1.00000000 0.00000000 0.00000000 0.00000000 -1.57079600
48 -3.98884900 5.99511000 -2.72292100 0.00000000 0.00000000 -3.14156200
49 -8.00908651 24.73110105 -0.78900943 0.38781689 0.24436342 -0.40130782
50 10.86289300 0.45780600 -4.08309600 0.21793700 1.03451400 1.57217400
51 4.31811900 0.12671100 -1.02147400 0.00000000 0.00000000 0.00000000
52 -4.53261000 -0.00336500 -0.14022300 0.00000000 0.00000000 0.00000000
53 -0.00019500 0.00000000 0.15614900 0.00000000 0.00000000 0.00000000
54 1.12501800 1.29120100 0.99447800 0.00000000 0.00000000 0.00000000
55 -3.22465900 0.00371900 -1.30251700 0.00000000 0.00000000 0.00000000
56 -1.74734700 -2.37666800 -4.98092600 2.91139000 0.03423400 -1.98019800
time 4
0 -0.00000100 8.45008800 -27.50902600 0.00000000 0.00000000 0.00003100
1 -0.00000200 0.00000000 0.00000000 1.57074700 -1.56714200 -1.57074700
2 4.25546600 -0.33518300 -0.00000200 0.00000000 0.00000000 -0.12484800
3 7.43125000 1.49647900 0.00000200 0.00000000 0.00000000 0.24545000
4 5.27847900 0.16554400 0.00000100 0.00000000 0.00000000 0.04851100
5 -2.18823200 -17.44556800 13.58396500 1.97586500 1.15990900 -1.29878600
6 -6.21447800 -0.00000900 -0.00002600 3.11070048 -0.34110474 0.92920146
7 11.94488500 0.00000000 0.00000000 -0.17136379 -0.33642466 1.41755769
8 10.62018800 0.00000000 0.00000000 0.83332280 0.26733120 2.55268375
9 -4.75110800 -0.69449800 0.83058000 -0.16710000 0.01705900 0.37715400
10 -1.68806800 0.00004700 -0.00003100 0.01971800 -0.01493800 0.51622800
11 -1.33614000 0.00005500 -0.00001000 0.02599100 -0.00450100 0.72485300
12 -4.82049400 -0.50946400 -0.22475900 -0.33846200 -0.01336700 1.23585300
13 -1.82698400 -0.00006900 0.00000800 -0.00024500 0.04047200 1.26807400
14 -1.43656900 0.00000400 0.00000300 -0.05524000 -0.05469200 0.69918900
15 -3.99235700 -0.89119100 -1.82790900 -0.53822200 0.04573000 0.93801100
16 -1.40591800 -0.00002500 -0.00000200 -0.00798600 -0.02836000 1.14978400
17 -1.17535800 0.00012600 -0.00001900 0.05560900 0.03892800 0.86426700
18 -4.52675100 -0.69058000 -1.12074100 -0.43382200 0.07827300 1.31804700
19 -1.74403800 0.00003200 -0.00000800 -0.02662600 -0.01282800 1.53365100
20 -1.36877100 0.00002300 0.00000200 0.02081800 0.04817500 0.30338500
21 -1.87479600 -0.93512500 0.99917500 2.00022900 0.52323300 0.75414300
22 -1.52344700 0.00003100 0.00003100 0.08365400 0.15258100 0.60551300
23 -1.59928500 0.00001100 0.00001500 0.03148800 -0.02916500 0.72724000
24 5.58312200 0.11572800 0.29500100 2.23698600 -0.06403800 3.11154600
25 0.19684600 -0.00000200 0.00000300 2.79340689 -0.00069599 -3.14143820
26 -1.06281700 -11.43524600 0.34104800 1.97586200 1.15991000 1.84280300
27 6.21448600 0.00000800 0.00001900 -1.28801424 0.38455069 -1.92962647
28 11.94488800 -0.00003100 -0.00020000 0.55992150 -0.28013134 -0.91765206
29 10.62016500 0.00000200 0.00000600 -2.09517600 -0.71568453 0.09455537
30 4.75115800 0.69437400 -0.83047400 -0.06963100 -0.18956200 1.20293400
31 1.68806500 -0.00002200 0.00000200 -0.00178600 -0.02466300 1.51256600
32 1.33615100 -0.00005100 -0.00000900 0.00162500 -0.03868900 0.32920800
33 4.82051500 0.50933800 0.22486600 -0.15643200 -0.01406900 1.57957000
34 1.82699200 0.00006600 0.00001000 -0.00186700 0.04038300 1.22708400
35 1.43658100 -0.00000600 0.00001000 0.00808100 -0.01279400 0.27447100
36 3.99235300 0.89108700 1.82799300 -0.26823800 0.10724000 1.40713400
37 1.40592600 0.00003100 -0.00000300 -0.01645600 -0.02445100 1.46689000
38 1.17536200 -0.00013200 0.00000100 0.02096900 0.12149700 0.12659500
39 4.52675800 0.69046400 1.12084300 -0.15292900 0.08798300 1.61269300
40 1.74404100 -0.00003100 -0.00000200 -0.02493600 -0.01580100 1.41848500
41 1.36876700 -0.00003100 -0.00001800 -0.24626800 0.17807500 0.18497200
42 1.87485700 0.93508100 -0.99912900 2.44808600 0.23419600 1.08300800
43 1.45054600 -0.06018800 0.09121700 0.00611714 0.17199001 0.35960046
44 1.59928100 -0.00000400 0.00001000 0.08169400 -0.01721100 1.03306000
45 5.51180600 -0.00000200 0.00000300 -0.66744800 0.00000000 0.00000000
46 0.19684900 0.00000300 -0.00000100 -0.34822500 0.00001500 -0.00000200
47 0.00000000 1.00000000 0.00000000 0.00000000 0.00000000 -1.57079600
48 -3.98884900 5.99511000 -2.72292100 0.00000000 0.00000000 -3.14156200
49 -7.68969970 24.69157505 -0.76620689 0.40508292 0.23849097 -0.42183455
50 10.86289300 0.45780600 -4.08309600 0.21793700 1.03451400 1.57217400
51 4.31811900 0.12671100 -1.02147400 0.00000000 0.00000000 0.00000000
52 -4.53261000 -0.00336500 -0.14022300 0.00000000 0.00000000 0.00000000
53 -0.00019500 0.00000000 0.15614900 0.00000000 0.00000000 0.00000000
54 1.12501800 1.29120100 0.99447800 0.00000000 0.00000000 0.00000000
55 -3.22465900 0.00371900 -1.30251700 0.00000000 0.00000000 0.00000000
56 -1.74734700 -2.37666800 -4.98092600 2.91139000 0.03423400 -1.98019800
time 5
0 -0.00000100 8.45008800 -27.50902600 0.00000000 0.00000000 0.00003100
1 -0.00000200 0.00000000 0.00000000 1.57074700 -1.56714200 -1.57074700
2 4.25546600 -0.33518300 -0.00000200 0.00000000 0.00000000 -0.12484800
3 7.43125000 1.49647900 0.00000200 0.00000000 0.00000000 0.24545000
4 5.27847900 0.16554400 0.00000100 0.00000000 0.00000000 0.04851100
5 -1.37694200 -15.54123900 11.74161500 1.97586500 1.15990900 -1.29878600
6 -6.21447800 -0.00000900 -0.00002600 3.13217559 -0.38684805 1.13181221
7 11.94488500 0.00000000 0.00000000 -0.20717437 -0.34220941 1.52264027
8 10.62018800 0.00000000 0.00000000 0.90280319 0.20162040 2.63639793
9 -4.75110800 -0.69449800 0.83058000 -0.16710000 0.01705900 0.37715400
10 -1.68806800 0.00004700 -0.00003100 0.01971800 -0.01493800 0.51622800
11 -1.33614000 0.00005500 -0.00001000 0.02599100 -0.00450100 0.72485300
12 -4.82049400 -0.50946400 -0.22475900 -0.33846200 -0.01336700 1.23585300
13 -1.82698400 -0.00006900 0.00000800 -0.00024500 0.04047200 1.26807400
14 -1.43656900 0.00000400 0.00000300 -0.05524000 -0.05469200 0.69918900
15 -3.99235700 -0.89119100 -1.82790900 -0.53822200 0.04573000 0.93801100
16 -1.40591800 -0.00002500 -0.00000200 -0.00798600 -0.02836000 1.14978400
17 -1.17535800 0.00012600 -0.00001900 0.05560900 0.03892800 0.86426700
18 -4.52675100 -0.69058000 -1.12074100 -0.43382200 0.07827300 1.31804700
19 -1.74403800 0.00003200 -0.00000800 -0.02662600 -0.01282800 1.53365100
20 -1.36877100 0.00002300 0.00000200 0.02081800 0.04817500 0.30338500
21 -1.87479600 -0.93512500 0.99917500 2.00022900 0.52323300 0.75414300
22 -1.52344700 0.00003100 0.00003100 0.08365400 0.15258100 0.60551300
23 -1.59928500 0.00001100 0.00001500 0.03148800 -0.02916500 0.72724000
24 5.58312200 0.11572800 0.29500100 2.23698600 -0.06403800 3.11154600
25 0.19684600 -0.00000200 0.00000300 2.79340689 -0.00069599 -3.14143820
26 -0.87197400 -11.62545200 0.24791500 1.97586200 1.15991000 1.84280300
27 6.21448600 0.00000800 0.00001900 -1.23103606 0.41093920 -1.94658778
28 11.94488800 -0.00003100 -0.00020000 0.43868657 -0.28551780 -0.92992904
29 10.62016500 0.00000200 0.00000600 -2.03221245 -0.74875165 0.05955075
30 4.75115800 0.69437400 -0.83047400 -0.06963100 -0.18956200 1.20293400
31 1.68806500 -0.00002200 0.00000200 -0.00178600 -0.02466300 1.51256600
32 1.33615100 -0.00005100 -0.00000900 0.00162500 -0.03868900 0.32920800
33 4.82051500 0.50933800 0.22486600 -0.15643200 -0.01406900 1.57957000
34 1.82699200 0.00006600 0.00001000 -0.00186700 0.04038300 1.22708400
35 1.43658100 -0.00000600 0.00001000 0.00808100 -0.01279400 0.27447100
36 3.99235300 0.89108700 1.82799300 -0.26823800 0.10724000 1.40713400
37 1.40592600 0.00003100 -0.00000300 -0.01645600 -0.02445100 1.46689000
38 1.17536200 -0.00013200 0.00000100 0.02096900 0.12149700 0.12659500
39 4.52675800 0.69046400 1.12084300 -0.15292900 0.08798300 1.61269300
40 1.74404100 -0.00003100 -0.00000200 -0.02493600 -0.01580100 1.41848500
41 1.36876700 -0.00003100 -0.00001800 -0.24626800 0.17807500 0.18497200
42 1.87485700 0.93508100 -0.99912900 2.44808600 0.23419600 1.08300800
43 1.45054600 -0.06018800 0.09121700 0.00671592 0.17193579 0.35960029
44 1.59928100 -0.00000400 0.00001000 0.08169400 -0.01721100 1.03306000
45 5.51180600 -0.00000200 0.00000300 -0.66744800 0.00000000 0.00000000
46 0.19684900 0.00000300 -0.00000100 -0.34822500 0.00001500 -0.00000200
47 0.00000000 1.00000000 0.00000000 0.00000000 0.00000000 -1.57079600
48 -3.98884900 5.99511000 -2.72292100 0.00000000 0.00000000 -3.14156200
49 -7.10635931 24.64516105 -0.76069837 0.42515750 0.22171994 -0.47059681
50 10.86289300 0.45780600 -4.08309600 0.21793700 1.03451400 1.57217400
51 4.31811900 0.12671100 -1.02147400 0.00000000 0.00000000 0.00000000
52 -4.53261000 -0.00336500 -0.14022300 0.00000000 0.00000000 0.00000000
53 -0.00019500 0.00000000 0.15614900 0.00000000 0.00000000 0.00000000
54 1.12501800 1.29120100 0.99447800 0.00000000 0.00000000 0.00000000
55 -3.22465900 0.00371900 -1.30251700 0.00000000 0.00000000 0.00000000
56 -1.74734700 -2.37666800 -4.98092600 2.91139000 0.03423400 -1.98019800
time 6
0 -0.00000100 8.45008800 -27.50902600 0.00000000 0.00000000 0.00003100
1 -0.00000200 0.00000000 0.00000000 1.57074700 -1.56714200 -1.57074700
2 4.25546600 -0.33518300 -0.00000200 0.00000000 0.00000000 -0.12484800
3 7.43125000 1.49647900 0.00000200 0.00000000 0.00000000 0.24545000
4 5.27847900 0.16554400 0.00000100 0.00000000 0.00000000 0.04851100
5 -0.22994400 -12.84891800 9.13691100 1.97586500 1.15990900 -1.29878600
6 -6.21447800 -0.00000900 -0.00002600 -3.10553715 -0.44249873 1.38531823
7 11.94488500 0.00000000 0.00000000 -0.23767463 -0.34391199 1.61174271
8 10.62018800 0.00000000 0.00000000 0.98797456 0.10086253 2.72180946
9 -4.75110800 -0.69449800 0.83058000 -0.16710000 0.01705900 0.37715400
10 -1.68806800 0.00004700 -0.00003100 0.01971800 -0.01493800 0.51622800
11 -1.33614000 0.00005500 -0.00001000 0.02599100 -0.00450100 0.72485300
12 -4.82049400 -0.50946400 -0.22475900 -0.33846200 -0.01336700 1.23585300
13 -1.82698400 -0.00006900 0.00000800 -0.00024500 0.04047200 1.26807400
14 -1.43656900 0.00000400 0.00000300 -0.05524000 -0.05469200 0.69918900
15 -3.99235700 -0.89119100 -1.82790900 -0.53822200 0.04573000 0.93801100
16 -1.40591800 -0.00002500 -0.00000200 -0.00798600 -0.02836000 1.14978400
17 -1.17535800 0.00012600 -0.00001900 0.05560900 0.03892800 0.86426700
18 -4.52675100 -0.69058000 -1.12074100 -0.43382200 0.07827300 1.31804700
19 -1.74403800 0.00003200 -0.00000800 -0.02662600 -0.01282800 1.53365100
20 -1.36877100 0.00002300 0.00000200 0.02081800 0.04817500 0.30338500
21 -1.87479600 -0.93512500 0.99917500 2.00022900 0.52323300 0.75414300
22 -1.52344700 0.00003100 0.00003100 0.08365400 0.15258100 0.60551300
23 -1.59928500 0.00001100 0.00001500 0.03148800 -0.02916500 0.72724000
24 5.58312200 0.11572800 0.29500100 2.23698600 -0.06403800 3.11154600
25 0.19684600 -0.00000200 0.00000300 2.79340689 -0.00069599 -3.14143820
26 -0.58367400 -11.91278200 0.10722600 1.97586200 1.15991000 1.84280300
27 6.21448600 0.00000800 0.00001900 -1.11567238 0.44431392 -1.96714288
28 11.94488800 -0.00003100 -0.00020000 0.30080930 -0.28907918 -0.93324653
29 10.62016500 0.00000200 0.00000600 -2.05325278 -0.78079820 0.08211056
30 4.75115800 0.69437400 -0.83047400 -0.06963100 -0.18956200 1.20293400
31 1.68806500 -0.00002200 0.00000200 -0.00178600 -0.02466300 1.51256600
32 1.33615100 -0.00005100 -0.00000900 0.00162500 -0.03868900 0.32920800
33 4.82051500 0.50933800 0.22486600 -0.15643200 -0.01406900 1.57957000
34 1.82699200 0.00006600 0.00001000 -0.00186700 0.04038300 1.22708400
35 1.43658100 -0.00000600 0.00001000 0.00808100 -0.01279400 0.27447100
36 3.99235300 0.89108700 1.82799300 -0.26823800 0.10724000 1.40713400
37 1.40592600 0.00003100 -0.00000300 -0.01645600 -0.02445100 1.46689000
38 1.17536200 -0.00013200 0.00000100 0.02096900 0.12149700 0.12659500
39 4.52675800 0.69046400 1.12084300 -0.15292900 0.08798300 1.61269300
40 1.74404100 -0.00003100 -0.00000200 -0.02493600 -0.01580100 1.41848500
41 1.36876700 -0.00003100 -0.00001800 -0.24626800 0.17807500 0.18497200
42 1.87485700 0.93508100 -0.99912900 2.44808600 0.23419600 1.08300800
43 1.45054600 -0.06018800 0.09121700 0.00736891 0.17193579 0.35960017
44 1.59928100 -0.00000400 0.00001000 0.08169400 -0.01721100 1.03306000
45 5.51180600 -0.00000200 0.00000300 -0.66744800 0.00000000 0.00000000
46 0.19684900 0.00000300 -0.00000100 -0.34822500 0.00001500 -0.00000200
47 0.00000000 1.00000000 0.00000000 0.00000000 0.00000000 -1.57079600
48 -3.98884900 5.99511000 -2.72292100 0.00000000 0.00000000 -3.14156200
49 -6.12059450 24.59382905 -0.78174890 0.43962662 0.18827456 -0.58826429
50 10.86289300 0.45780600 -4.08309600 0.21793700 1.03451400 1.57217400
51 4.31811900 0.12671100 -1.02147400 0.00000000 0.00000000 0.00000000
52 -4.53261000 -0.00336500 -0.14022300 0.00000000 0.00000000 0.00000000
53 -0.00019500 0.00000000 0.15614900 0.00000000 0.00000000 0.00000000
54 1.12501800 1.29120100 0.99447800 0.00000000 0.00000000 0.00000000
55 -3.22465900 0.00371900 -1.30251700 0.00000000 0.00000000 0.00000000
56 -1.74734700 -2.37666800 -4.98092600 2.91139000 0.03423400 -1.98019800
time 7
0 -0.00000100 8.45008800 -27.50902600 0.00000000 0.00000000 0.00003100
1 -0.00000200 0.00000000 0.00000000 1.57074700 -1.56714200 -1.57074700
2 4.25546600 -0.33518300 -0.00000200 0.00000000 0.00000000 -0.12484800
3 7.43125000 1.49647900 0.00000200 0.00000000 0.00000000 0.24545000
4 5.27847900 0.16554400 0.00000100 0.00000000 0.00000000 0.04851100
5 1.08490200 -9.76260000 6.15103100 1.97586500 1.15990900 -1.29878600
6 -6.21447800 -0.00000900 -0.00002600 -3.05447369 -0.48348593 1.58883732
7 11.94488500 0.00000000 0.00000000 -0.23883420 -0.34510976 1.61519165
8 10.62018800 0.00000000 0.00000000 1.06589560 0.04040698 2.75732846
9 -4.75110800 -0.69449800 0.83058000 -0.16710000 0.01705900 0.37715400
10 -1.68806800 0.00004700 -0.00003100 0.01971800 -0.01493800 0.51622800
11 -1.33614000 0.00005500 -0.00001000 0.02599100 -0.00450100 0.72485300
12 -4.82049400 -0.50946400 -0.22475900 -0.33846200 -0.01336700 1.23585300
13 -1.82698400 -0.00006900 0.00000800 -0.00024500 0.04047200 1.26807400
14 -1.43656900 0.00000400 0.00000300 -0.05524000 -0.05469200 0.69918900
15 -3.99235700 -0.89119100 -1.82790900 -0.53822200 0.04573000 0.93801100
16 -1.40591800 -0.00002500 -0.00000200 -0.00798600 -0.02836000 1.14978400
17 -1.17535800 0.00012600 -0.00001900 0.05560900 0.03892800 0.86426700
18 -4.52675100 -0.69058000 -1.12074100 -0.43382200 0.07827300 1.31804700
19 -1.74403800 0.00003200 -0.00000800 -0.02662600 -0.01282800 1.53365100
20 -1.36877100 0.00002300 0.00000200 0.02081800 0.04817500 0.30338500
21 -1.87479600 -0.93512500 0.99917500 2.00022900 0.52323300 0.75414300
22 -1.52344700 0.00003100 0.00003100 0.08365400 0.15258100 0.60551300
23 -1.59928500 0.00001100 0.00001500 0.03148800 -0.02916500 0.72724000
24 5.58312200 0.11572800 0.29500100 2.23698600 -0.06403800 3.11154600
25 0.19684600 -0.00000200 0.00000300 2.79340689 -0.00069599 -3.14143820
26 -0.22229000 -12.27296300 -0.06913100 1.97586200 1.15991000 1.84280300
27 6.21448600 0.00000800 0.00001900 -0.96203881 0.47235155 -1.97653012
28 11.94488800 -0.00003100 -0.00020000 0.15700181 -0.29105228 -0.92918867
29 10.62016500 0.00000200 0.00000600 -2.14350708 -0.76262778 0.13655029
30 4.75115800 0.69437400 -0.83047400 -0.06963100 -0.18956200 1.20293400
31 1.68806500 -0.00002200 0.00000200 -0.00178600 -0.02466300 1.51256600
32 1.33615100 -0.00005100 -0.00000900 0.00162500 -0.03868900 0.32920800
33 4.82051500 0.50933800 0.22486600 -0.15643200 -0.01406900 1.57957000
34 1.82699200 0.00006600 0.00001000 -0.00186700 0.04038300 1.22708400
35 1.43658100 -0.00000600 0.00001000 0.00808100 -0.01279400 0.27447100
36 3.99235300 0.89108700 1.82799300 -0.26823800 0.10724000 1.40713400
37 1.40592600 0.00003100 -0.00000300 -0.01645600 -0.02445100 1.46689000
38 1.17536200 -0.00013200 0.00000100 0.02096900 0.12149700 0.12659500
39 4.52675800 0.69046400 1.12084300 -0.15292900 0.08798300 1.61269300
40 1.74404100 -0.00003100 -0.00000200 -0.02493600 -0.01580100 1.41848500
41 1.36876700 -0.00003100 -0.00001800 -0.24626800 0.17807500 0.18497200
42 1.87485700 0.93508100 -0.99912900 2.44808600 0.23419600 1.08300800
43 1.45054600 -0.06018800 0.09121700 0.00813030 0.17188094 0.35960000
44 1.59928100 -0.00000400 0.00001000 0.08169400 -0.01721100 1.03306000
45 5.51180600 -0.00000200 0.00000300 -0.66744800 0.00000000 0.00000000
46 0.19684900 0.00000300 -0.00000100 -0.34822500 0.00001500 -0.00000200
47 0.00000000 1.00000000 0.00000000 0.00000000 0.00000000 -1.57079600
48 -3.98884900 5.99511000 -2.72292100 0.00000000 0.00000000 -3.14156200
49 -5.17005073 24.53954405 -0.82420542 0.43249307 0.14934724 -0.78356010
50 10.86289300 0.45780600 -4.08309600 0.21793700 1.03451400 1.57217400
51 4.31811900 0.12671100 -1.02147400 0.00000000 0.00000000 0.00000000
52 -4.53261000 -0.00336500 -0.14022300 0.00000000 0.00000000 0.00000000
53 -0.00019500 0.00000000 0.15614900 0.00000000 0.00000000 0.00000000
54 1.12501800 1.29120100 0.99447800 0.00000000 0.00000000 0.00000000
55 -3.22465900 0.00371900 -1.30251700 0.00000000 0.00000000 0.00000000
56 -1.74734700 -2.37666800 -4.98092600 2.91139000 0.03423400 -1.98019800
time 8
0 -0.00000100 8.45008800 -27.50902600 0.00000000 0.00000000 0.00003100
1 -0.00000200 0.00000000 0.00000000 1.57074700 -1.56714200 -1.57074700
2 4.25546600 -0.33518300 -0.00000200 0.00000000 0.00000000 -0.12484800
3 7.43125000 1.49647900 0.00000200 0.00000000 0.00000000 0.24545000
4 5.27847900 0.16554400 0.00000100 0.00000000 0.00000000 0.04851100
5 2.39975200 -6.67628200 3.16515000 1.97586500 1.15990900 -1.29878600
6 -6.21447800 -0.00000900 -0.00002600 -3.01366617 -0.48157466 1.68105817
7 11.94488500 0.00000000 0.00000000 -0.18972864 -0.34539271 1.47162538
8 10.62018800 0.00000000 0.00000000 1.09953019 0.05187593 2.81211402
9 -4.75110800 -0.69449800 0.83058000 -0.16710000 0.01705900 0.37715400
10 -1.68806800 0.00004700 -0.00003100 0.01971800 -0.01493800 0.51622800
11 -1.33614000 0.00005500 -0.00001000 0.02599100 -0.00450100 0.72485300
12 -4.82049400 -0.50946400 -0.22475900 -0.33846200 -0.01336700 1.23585300
13 -1.82698400 -0.00006900 0.00000800 -0.00024500 0.04047200 1.26807400
14 -1.43656900 0.00000400 0.00000300 -0.05524000 -0.05469200 0.69918900
15 -3.99235700 -0.89119100 -1.82790900 -0.53822200 0.04573000 0.93801100
16 -1.40591800 -0.00002500 -0.00000200 -0.00798600 -0.02836000 1.14978400
17 -1.17535800 0.00012600 -0.00001900 0.05560900 0.03892800 0.86426700
18 -4.52675100 -0.69058000 -1.12074100 -0.43382200 0.07827300 1.31804700
19 -1.74403800 0.00003200 -0.00000800 -0.02662600 -0.01282800 1.53365100
20 -1.36877100 0.00002300 0.00000200 0.02081800 0.04817500 0.30338500
21 -1.87479600 -0.93512500 0.99917500 2.00022900 0.52323300 0.75414300
22 -1.52344700 0.00003100 0.00003100 0.08365400 0.15258100 0.60551300
23 -1.59928500 0.00001100 0.00001500 0.03148800 -0.02916500 0.72724000
24 5.58312200 0.11572800 0.29500100 2.23698600 -0.06403800 3.11154600
25 0.19684600 -0.00000200 0.00000300 2.79340689 -0.00069599 -3.14143820
26 0.18781900 -12.68170400 -0.26926700 1.97586200 1.15991000 1.84280300
27 6.21448600 0.00000800 0.00001900 -0.82016259 0.50441056 -1.95792052
28 11.94488800 -0.00003100 -0.00020000 0.02719118 -0.29850376 -0.95838992
29 10.62016500 0.00000200 0.00000600 -2.19412329 -0.70856952 0.16248774
30 4.75115800 0.69437400 -0.83047400 -0.06963100 -0.18956200 1.20293400
31 1.68806500 -0.00002200 0.00000200 -0.00178600 -0.02466300 1.51256600
32 1.33615100 -0.00005100 -0.00000900 0.00162500 -0.03868900 0.32920800
33 4.82051500 0.50933800 0.22486600 -0.15643200 -0.01406900 1.57957000
34 1.82699200 0.00006600 0.00001000 -0.00186700 0.04038300 1.22708400
35 1.43658100 -0.00000600 0.00001000 0.00808100 -0.01279400 0.27447100
36 3.99235300 0.89108700 1.82799300 -0.26823800 0.10724000 1.40713400
37 1.40592600 0.00003100 -0.00000300 -0.01645600 -0.02445100 1.46689000
38 1.17536200 -0.00013200 0.00000100 0.02096900 0.12149700 0.12659500
39 4.52675800 0.69046400 1.12084300 -0.15292900 0.08798300 1.61269300
40 1.74404100 -0.00003100 -0.00000200 -0.02493600 -0.01580100 1.41848500
41 1.36876700 -0.00003100 -0.00001800 -0.24626800 0.17807500 0.18497200
42 1.87485700 0.93508100 -0.99912900 2.44808600 0.23419600 1.08300800
43 1.45054600 -0.06018800 0.09121700 0.00894643 0.17182673 0.35959921
44 1.59928100 -0.00000400 0.00001000 0.08169400 -0.01721100 1.03306000
45 5.51180600 -0.00000200 0.00000300 -0.66744800 0.00000000 0.00000000
46 0.19684900 0.00000300 -0.00000100 -0.34822500 0.00001500 -0.00000200
47 0.00000000 1.00000000 0.00000000 0.00000000 0.00000000 -1.57079600
48 -3.98884900 5.99511000 -2.72292100 0.00000000 0.00000000 -3.14156200
49 -4.75926774 24.48427305 -0.86714182 0.40877310 0.11808255 -0.96857723
50 10.86289300 0.45780600 -4.08309600 0.21793700 1.03451400 1.57217400
51 4.31811900 0.12671100 -1.02147400 0.00000000 0.00000000 0.00000000
52 -4.53261000 -0.00336500 -0.14022300 0.00000000 0.00000000 0.00000000
53 -0.00019500 0.00000000 0.15614900 0.00000000 0.00000000 0.00000000
54 1.12501800 1.29120100 0.99447800 0.00000000 0.00000000 0.00000000
55 -3.22465900 0.00371900 -1.30251700 0.00000000 0.00000000 0.00000000
56 -1.74734700 -2.37666800 -4.98092600 2.91139000 0.03423400 -1.98019800
time 9
0 -0.00000100 8.45008800 -27.50902600 0.00000000 0.00000000 0.00003100
1 -0.00000200 0.00000000 0.00000000 1.57074700 -1.56714200 -1.57074700
2 4.25546600 -0.33518300 -0.00000200 0.00000000 0.00000000 -0.12484800
3 7.43125000 1.49647900 0.00000200 0.00000000 0.00000000 0.24545000
4 5.27847900 0.16554400 0.00000100 0.00000000 0.00000000 0.04851100
5 2.39975200 -6.67628200 3.16515000 1.97586500 1.15990900 -1.29878600
6 -6.21447800 -0.00000900 -0.00002600 -3.01317855 -0.48117566 1.68036491
7 11.94488500 0.00000000 0.00000000 -0.18969197 -0.34558138 1.47152680
8 10.62018800 0.00000000 0.00000000 1.10719895 0.04968041 2.81266349
9 -4.75110800 -0.69449800 0.83058000 -0.16710000 0.01705900 0.37715400
10 -1.68806800 0.00004700 -0.00003100 0.01971800 -0.01493800 0.51622800
11 -1.33614000 0.00005500 -0.00001000 0.02599100 -0.00450100 0.72485300
12 -4.82049400 -0.50946400 -0.22475900 -0.33846200 -0.01336700 1.23585300
13 -1.82698400 -0.00006900 0.00000800 -0.00024500 0.04047200 1.26807400
14 -1.43656900 0.00000400 0.00000300 -0.05524000 -0.05469200 0.69918900
15 -3.99235700 -0.89119100 -1.82790900 -0.53822200 0.04573000 0.93801100
16 -1.40591800 -0.00002500 -0.00000200 -0.00798600 -0.02836000 1.14978400
17 -1.17535800 0.00012600 -0.00001900 0.05560900 0.03892800 0.86426700
18 -4.52675100 -0.69058000 -1.12074100 -0.43382200 0.07827300 1.31804700
19 -1.74403800 0.00003200 -0.00000800 -0.02662600 -0.01282800 1.53365100
20 -1.36877100 0.00002300 0.00000200 0.02081800 0.04817500 0.30338500
21 -1.87479600 -0.93512500 0.99917500 2.00022900 0.52323300 0.75414300
22 -1.52344700 0.00003100 0.00003100 0.08365400 0.15258100 0.60551300
23 -1.59928500 0.00001100 0.00001500 0.03148800 -0.02916500 0.72724000
24 5.58312200 0.11572800 0.29500100 2.23698600 -0.06403800 3.11154600
25 0.19684600 -0.00000200 0.00000300 2.79340689 -0.00069599 -3.14143820
26 0.18781900 -12.68170400 -0.26926700 1.97586200 1.15991000 1.84280300
27 6.21448600 0.00000800 0.00001900 -0.81591026 0.50488417 -1.95768653
28 11.94488800 -0.00003100 -0.00020000 0.02631969 -0.29992677 -0.95525705
29 10.62016500 0.00000200 0.00000600 -2.20653005 -0.71301186 0.16510502
30 4.75115800 0.69437400 -0.83047400 -0.06963100 -0.18956200 1.20293400
31 1.68806500 -0.00002200 0.00000200 -0.00178600 -0.02466300 1.51256600
32 1.33615100 -0.00005100 -0.00000900 0.00162500 -0.03868900 0.32920800
33 4.82051500 0.50933800 0.22486600 -0.15643200 -0.01406900 1.57957000
34 1.82699200 0.00006600 0.00001000 -0.00186700 0.04038300 1.22708400
35 1.43658100 -0.00000600 0.00001000 0.00808100 -0.01279400 0.27447100
36 3.99235300 0.89108700 1.82799300 -0.26823800 0.10724000 1.40713400
37 1.40592600 0.00003100 -0.00000300 -0.01645600 -0.02445100 1.46689000
38 1.17536200 -0.00013200 0.00000100 0.02096900 0.12149700 0.12659500
39 4.52675800 0.69046400 1.12084300 -0.15292900 0.08798300 1.61269300
40 1.74404100 -0.00003100 -0.00000200 -0.02493600 -0.01580100 1.41848500
41 1.36876700 -0.00003100 -0.00001800 -0.24626800 0.17807500 0.18497200
42 1.87485700 0.93508100 -0.99912900 2.44808600 0.23419600 1.08300800
43 1.45054600 -0.06018800 0.09121700 0.00981740 0.17177252 0.35959844
44 1.59928100 -0.00000400 0.00001000 0.08169400 -0.01721100 1.03306000
45 5.51180600 -0.00000200 0.00000300 -0.66744800 0.00000000 0.00000000
46 0.19684900 0.00000300 -0.00000100 -0.34822500 0.00001500 -0.00000200
47 0.00000000 1.00000000 0.00000000 0.00000000 0.00000000 -1.57079600
48 -3.98884900 5.99511000 -2.75128700 0.00048800 0.00000000 -3.14156200
49 -4.78988927 24.48427305 -0.89638043 0.41606386 0.11557431 -0.96901859
50 10.86289300 0.45780600 -4.08309600 0.21793700 1.03451400 1.57217400
51 4.31811900 0.12671100 -1.02147400 0.00000000 0.00000000 0.00000000
52 -4.53261000 -0.00336500 -0.14022300 0.00000000 0.00000000 0.00000000
53 -0.00019500 0.00000000 0.15614900 0.00000000 0.00000000 0.00000000
54 1.12501800 1.29120100 0.99447800 0.00000000 0.00000000 0.00000000
55 -3.22465900 0.00371900 -1.30251700 0.00000000 0.00000000 0.00000000
56 -1.74734700 -2.37666800 -4.98092600 2.91139000 0.03423400 -1.98019800
time 10
0 -0.00000100 8.45008800 -27.50902600 0.00000000 0.00000000 0.00003100
1 -0.00000200 0.00000000 0.00000000 1.57074700 -1.56714200 -1.57074700
2 4.25546600 -0.33518300 -0.00000200 0.00000000 0.00000000 -0.12484800
3 7.43125000 1.49647900 0.00000200 0.00000000 0.00000000 0.24545000
4 5.27847900 0.16554400 0.00000100 0.00000000 0.00000000 0.04851100
5 2.39975200 -6.67628200 3.16515000 1.97586500 1.15990900 -1.29878600
6 -6.21447800 -0.00000900 -0.00002600 -3.01074067 -0.48028636 1.68016516
7 11.94488500 0.00000000 0.00000000 -0.18963439 -0.34600097 1.47138303
8 10.62018800 0.00000000 0.00000000 1.11899525 0.04549055 2.81498846
9 -4.75110800 -0.69449800 0.83058000 -0.16710000 0.01705900 0.37715400
10 -1.68806800 0.00004700 -0.00003100 0.01971800 -0.01493800 0.51622800
11 -1.33614000 0.00005500 -0.00001000 0.02599100 -0.00450100 0.72485300
12 -4.82049400 -0.50946400 -0.22475900 -0.33846200 -0.01336700 1.23585300
13 -1.82698400 -0.00006900 0.00000800 -0.00024500 0.04047200 1.26807400
14 -1.43656900 0.00000400 0.00000300 -0.05524000 -0.05469200 0.69918900
15 -3.99235700 -0.89119100 -1.82790900 -0.53822200 0.04573000 0.93801100
16 -1.40591800 -0.00002500 -0.00000200 -0.00798600 -0.02836000 1.14978400
17 -1.17535800 0.00012600 -0.00001900 0.05560900 0.03892800 0.86426700
18 -4.52675100 -0.69058000 -1.12074100 -0.43382200 0.07827300 1.31804700
19 -1.74403800 0.00003200 -0.00000800 -0.02662600 -0.01282800 1.53365100
20 -1.36877100 0.00002300 0.00000200 0.02081800 0.04817500 0.30338500
21 -1.87479600 -0.93512500 0.99917500 2.00022900 0.52323300 0.75414300
22 -1.52344700 0.00003100 0.00003100 0.08365400 0.15258100 0.60551300
23 -1.59928500 0.00001100 0.00001500 0.03148800 -0.02916500 0.72724000
24 5.58312200 0.11572800 0.29500100 2.23698600 -0.06403800 3.11154600
25 0.19684600 -0.00000200 0.00000300 2.79340689 -0.00069599 -3.14143820
26 0.18781900 -12.68170400 -0.26926700 1.97586200 1.15991000 1.84280300
27 6.21448600 0.00000800 0.00001900 -0.81029818 0.50301962 -1.95915949
28 11.94488800 -0.00003100 -0.00020000 0.02444023 -0.30036970 -0.94830951
29 10.62016500 0.00000200 0.00000600 -2.22434642 -0.72096676 0.16834250
30 4.75115800 0.69437400 -0.83047400 -0.06963100 -0.18956200 1.20293400
31 1.68806500 -0.00002200 0.00000200 -0.00178600 -0.02466300 1.51256600
32 1.33615100 -0.00005100 -0.00000900 0.00162500 -0.03868900 0.32920800
33 4.82051500 0.50933800 0.22486600 -0.15643200 -0.01406900 1.57957000
34 1.82699200 0.00006600 0.00001000 -0.00186700 0.04038300 1.22708400
35 1.43658100 -0.00000600 0.00001000 0.00808100 -0.01279400 0.27447100
36 3.99235300 0.89108700 1.82799300 -0.26823800 0.10724000 1.40713400
37 1.40592600 0.00003100 -0.00000300 -0.01645600 -0.02445100 1.46689000
38 1.17536200 -0.00013200 0.00000100 0.02096900 0.12149700 0.12659500
39 4.52675800 0.69046400 1.12084300 -0.15292900 0.08798300 1.61269300
40 1.74404100 -0.00003100 -0.00000200 -0.02493600 -0.01580100 1.41848500
41 1.36876700 -0.00003100 -0.00001800 -0.24626800 0.17807500 0.18497200
42 1.87485700 0.93508100 -0.99912900 2.44808600 0.23419600 1.08300800
43 1.45054600 -0.06018800 0.09121700 0.01074217 0.17177251 0.35959896
44 1.59928100 -0.00000400 0.00001000 0.08169400 -0.01721100 1.03306000
45 5.51180600 -0.00000200 0.00000300 -0.66744800 0.00000000 0.00000000
46 0.19684900 0.00000300 -0.00000100 -0.34822500 0.00001500 -0.00000200
47 0.00000000 1.00000000 0.00000000 0.00000000 0.00000000 -1.57079600
48 -3.98884900 5.99511000 -2.82444100 0.00183100 0.00000000 -3.14156300
49 -4.80175818 24.48427305 -0.91183586 0.42716638 0.11312711 -0.96989909
50 10.86289300 0.45780600 -4.08309600 0.21793700 1.03451400 1.57217400
51 4.31811900 0.12671100 -1.02147400 0.00000000 0.00000000 0.00000000
52 -4.53261000 -0.00336500 -0.14022300 0.00000000 0.00000000 0.00000000
53 -0.00019500 0.00000000 0.15614900 0.00000000 0.00000000 0.00000000
54 1.12501800 1.29120100 0.99447800 0.00000000 0.00000000 0.00000000
55 -3.22465900 0.00371900 -1.30251700 0.00000000 0.00000000 0.00000000
56 -1.74734700 -2.37666800 -4.98092600 2.91139000 0.03423400 -1.98019800
time 11
0 -0.00000100 8.45008800 -27.50902600 0.00000000 0.00000000 0.00003100
1 -0.00000200 0.00000000 0.00000000 1.57074700 -1.56714200 -1.57074700
2 4.25546600 -0.33518300 -0.00000200 0.00000000 0.00000000 -0.12484800
3 7.43125000 1.49647900 0.00000200 0.00000000 0.00000000 0.24545000
4 5.27847900 0.16554400 0.00000100 0.00000000 0.00000000 0.04851100
5 2.39975200 -6.67628200 3.16515000 1.97586500 1.15990900 -1.29878600
6 -6.21447800 -0.00000900 -0.00002600 -3.00716580 -0.47897998 1.68009119
7 11.94488500 0.00000000 0.00000000 -0.18929740 -0.34635260 1.47042349
8 10.62018800 0.00000000 0.00000000 1.13345450 0.04099320 2.81962898
9 -4.75110800 -0.69449800 0.83058000 -0.16710000 0.01705900 0.37715400
10 -1.68806800 0.00004700 -0.00003100 0.01971800 -0.01493800 0.51622800
11 -1.33614000 0.00005500 -0.00001000 0.02599100 -0.00450100 0.72485300
12 -4.82049400 -0.50946400 -0.22475900 -0.33846200 -0.01336700 1.23585300
13 -1.82698400 -0.00006900 0.00000800 -0.00024500 0.04047200 1.26807400
14 -1.43656900 0.00000400 0.00000300 -0.05524000 -0.05469200 0.69918900
15 -3.99235700 -0.89119100 -1.82790900 -0.53822200 0.04573000 0.93801100
16 -1.40591800 -0.00002500 -0.00000200 -0.00798600 -0.02836000 1.14978400
17 -1.17535800 0.00012600 -0.00001900 0.05560900 0.03892800 0.86426700
18 -4.52675100 -0.69058000 -1.12074100 -0.43382200 0.07827300 1.31804700
19 -1.74403800 0.00003200 -0.00000800 -0.02662600 -0.01282800 1.53365100
20 -1.36877100 0.00002300 0.00000200 0.02081800 0.04817500 0.30338500
21 -1.87479600 -0.93512500 0.99917500 2.00022900 0.52323300 0.75414300
22 -1.52344700 0.00003100 0.00003100 0.08365400 0.15258100 0.60551300
23 -1.59928500 0.00001100 0.00001500 0.03148800 -0.02916500 0.72724000
24 5.58312200 0.11572800 0.29500100 2.23698600 -0.06403800 3.11154600
25 0.19684600 -0.00000200 0.00000300 2.79340689 -0.00069599 -3.14143820
26 0.18781900 -12.68170400 -0.26926700 1.97586200 1.15991000 1.84280300
27 6.21448600 0.00000800 0.00001900 -0.80435205 0.49920636 -1.96198223
28 11.94488800 -0.00003100 -0.00020000 0.02171431 -0.30016860 -0.93818893
29 10.62016500 0.00000200 0.00000600 -2.24500380 -0.73121500 0.17061605
30 4.75115800 0.69437400 -0.83047400 -0.06963100 -0.18956200 1.20293400
31 1.68806500 -0.00002200 0.00000200 -0.00178600 -0.02466300 1.51256600
32 1.33615100 -0.00005100 -0.00000900 0.00162500 -0.03868900 0.32920800
33 4.82051500 0.50933800 0.22486600 -0.15643200 -0.01406900 1.57957000
34 1.82699200 0.00006600 0.00001000 -0.00186700 0.04038300 1.22708400
35 1.43658100 -0.00000600 0.00001000 0.00808100 -0.01279400 0.27447100
36 3.99235300 0.89108700 1.82799300 -0.26823800 0.10724000 1.40713400
37 1.40592600 0.00003100 -0.00000300 -0.01645600 -0.02445100 1.46689000
38 1.17536200 -0.00013200 0.00000100 0.02096900 0.12149700 0.12659500
39 4.52675800 0.69046400 1.12084300 -0.15292900 0.08798300 1.61269300
40 1.74404100 -0.00003100 -0.00000200 -0.02493600 -0.01580100 1.41848500
41 1.36876700 -0.00003100 -0.00001800 -0.24626800 0.17807500 0.18497200
42 1.87485700 0.93508100 -0.99912900 2.44808600 0.23419600 1.08300800
43 1.45054600 -0.06018800 0.09121700 0.01166735 0.17171767 0.35959822
44 1.59928100 -0.00000400 0.00001000 0.08169400 -0.01721100 1.03306000
45 5.51180600 -0.00000200 0.00000300 -0.66744800 0.00000000 0.00000000
46 0.19684900 0.00000300 -0.00000100 -0.34822500 0.00001500 -0.00000200
47 0.00000000 1.00000000 0.00000000 0.00000000 0.00000000 -1.57079600
48 -3.98884900 5.99511000 -2.92446800 0.00366300 0.00000000 -3.14156500
49 -4.80374369 24.48426905 -0.91635524 0.44121276 0.11149513 -0.97075626
50 10.86289300 0.45780600 -4.08309600 0.21793700 1.03451400 1.57217400
51 4.31811900 0.12671100 -1.02147400 0.00000000 0.00000000 0.00000000
52 -4.53261000 -0.00336500 -0.14022300 0.00000000 0.00000000 0.00000000
53 -0.00019500 0.00000000 0.15614900 0.00000000 0.00000000 0.00000000
54 1.12501800 1.29120100 0.99447800 0.00000000 0.00000000 0.00000000
55 -3.22465900 0.00371900 -1.30251700 0.00000000 0.00000000 0.00000000
56 -1.74734700 -2.37666800 -4.98092600 2.91139000 0.03423400 -1.98019800
time 12
0 -0.00000100 8.45008800 -27.50902600 0.00000000 0.00000000 0.00003100
1 -0.00000200 0.00000000 0.00000000 1.57074700 -1.56714200 -1.57074700
2 4.25546600 -0.33518300 -0.00000200 0.00000000 0.00000000 -0.12484800
3 7.43125000 1.49647900 0.00000200 0.00000000 0.00000000 0.24545000
4 5.27847900 0.16554400 0.00000100 0.00000000 0.00000000 0.04851100
5 2.39975200 -6.67628200 3.16515000 1.97586500 1.15990900 -1.29878600
6 -6.21447800 -0.00000900 -0.00002600 -3.00148041 -0.47710820 1.68014555
7 11.94488500 0.00000000 0.00000000 -0.18892049 -0.34657367 1.46934869
8 10.62018800 0.00000000 0.00000000 1.14862203 0.03582518 2.82537460
9 -4.75110800 -0.69449800 0.83058000 -0.16710000 0.01705900 0.37715400
10 -1.68806800 0.00004700 -0.00003100 0.01971800 -0.01493800 0.51622800
11 -1.33614000 0.00005500 -0.00001000 0.02599100 -0.00450100 0.72485300
12 -4.82049400 -0.50946400 -0.22475900 -0.33846200 -0.01336700 1.23585300
13 -1.82698400 -0.00006900 0.00000800 -0.00024500 0.04047200 1.26807400
14 -1.43656900 0.00000400 0.00000300 -0.05524000 -0.05469200 0.69918900
15 -3.99235700 -0.89119100 -1.82790900 -0.53822200 0.04573000 0.93801100
16 -1.40591800 -0.00002500 -0.00000200 -0.00798600 -0.02836000 1.14978400
17 -1.17535800 0.00012600 -0.00001900 0.05560900 0.03892800 0.86426700
18 -4.52675100 -0.69058000 -1.12074100 -0.43382200 0.07827300 1.31804700
19 -1.74403800 0.00003200 -0.00000800 -0.02662600 -0.01282800 1.53365100
20 -1.36877100 0.00002300 0.00000200 0.02081800 0.04817500 0.30338500
21 -1.87479600 -0.93512500 0.99917500 2.00022900 0.52323300 0.75414300
22 -1.52344700 0.00003100 0.00003100 0.08365400 0.15258100 0.60551300
23 -1.59928500 0.00001100 0.00001500 0.03148800 -0.02916500 0.72724000
24 5.58312200 0.11572800 0.29500100 2.23698600 -0.06403800 3.11154600
25 0.19684600 -0.00000200 0.00000300 2.79340689 -0.00069599 -3.14143820
26 0.18781900 -12.68170400 -0.26926700 1.97586200 1.15991000 1.84280300
27 6.21448600 0.00000800 0.00001900 -0.80034889 0.49252987 -1.96674429
28 11.94488800 -0.00003100 -0.00020000 0.01839352 -0.29811788 -0.92579006
29 10.62016500 0.00000200 0.00000600 -2.26417992 -0.74214993 0.17139508
30 4.75115800 0.69437400 -0.83047400 -0.06963100 -0.18956200 1.20293400
31 1.68806500 -0.00002200 0.00000200 -0.00178600 -0.02466300 1.51256600
32 1.33615100 -0.00005100 -0.00000900 0.00162500 -0.03868900 0.32920800
33 4.82051500 0.50933800 0.22486600 -0.15643200 -0.01406900 1.57957000
34 1.82699200 0.00006600 0.00001000 -0.00186700 0.04038300 1.22708400
35 1.43658100 -0.00000600 0.00001000 0.00808100 -0.01279400 0.27447100
36 3.99235300 0.89108700 1.82799300 -0.26823800 0.10724000 1.40713400
37 1.40592600 0.00003100 -0.00000300 -0.01645600 -0.02445100 1.46689000
38 1.17536200 -0.00013200 0.00000100 0.02096900 0.12149700 0.12659500
39 4.52675800 0.69046400 1.12084300 -0.15292900 0.08798300 1.61269300
40 1.74404100 -0.00003100 -0.00000200 -0.02493600 -0.01580100 1.41848500
41 1.36876700 -0.00003100 -0.00001800 -0.24626800 0.17807500 0.18497200
42 1.87485700 0.93508100 -0.99912900 2.44808600 0.23419600 1.08300800
43 1.45054600 -0.06018800 0.09121700 0.01264674 0.17166347 0.35959751
44 1.59928100 -0.00000400 0.00001000 0.08169400 -0.01721100 1.03306000
45 5.51180600 -0.00000200 0.00000300 -0.66744800 0.00000000 0.00000000
46 0.19684900 0.00000300 -0.00000100 -0.34822500 0.00001500 -0.00000200
47 0.00000000 1.00000000 0.00000000 0.00000000 0.00000000 -1.57079600
48 -3.98884900 5.99511000 -3.03345300 0.00573800 0.00000000 -3.14157000
49 -4.78041684 24.48427105 -0.88609551 0.45588659 0.11135461 -0.97184638
50 10.86289300 0.45780600 -4.08309600 0.21793700 1.03451400 1.57217400
51 4.31811900 0.12671100 -1.02147400 0.00000000 0.00000000 0.00000000
52 -4.53261000 -0.00336500 -0.14022300 0.00000000 0.00000000 0.00000000
53 -0.00019500 0.00000000 0.15614900 0.00000000 0.00000000 0.00000000
54 1.12501800 1.29120100 0.99447800 0.00000000 0.00000000 0.00000000
55 -3.22465900 0.00371900 -1.30251700 0.00000000 0.00000000 0.00000000
56 -1.74734700 -2.37666800 -4.98092600 2.91139000 0.03423400 -1.98019800
time 13
0 -0.00000100 8.45008800 -27.50902600 0.00000000 0.00000000 0.00003100
1 -0.00000200 0.00000000 0.00000000 1.57074700 -1.56714200 -1.57074700
2 4.25546600 -0.33518300 -0.00000200 0.00000000 0.00000000 -0.12484800
3 7.43125000 1.49647900 0.00000200 0.00000000 0.00000000 0.24545000
4 5.27847900 0.16554400 0.00000100 0.00000000 0.00000000 0.04851100
5 2.39975200 -6.67628200 3.16515000 1.97586500 1.15990900 -1.29878600
6 -6.21447800 -0.00000900 -0.00002600 -2.99550575 -0.47552839 1.68074704
7 11.94488500 0.00000000 0.00000000 -0.18923247 -0.34637430 1.47026729
8 10.62018800 0.00000000 0.00000000 1.15656582 0.03124238 2.82714665
9 -4.75110800 -0.69449800 0.83058000 -0.16710000 0.01705900 0.37715400
10 -1.68806800 0.00004700 -0.00003100 0.01971800 -0.01493800 0.51622800
11 -1.33614000 0.00005500 -0.00001000 0.02599100 -0.00450100 0.72485300
12 -4.82049400 -0.50946400 -0.22475900 -0.33846200 -0.01336700 1.23585300
13 -1.82698400 -0.00006900 0.00000800 -0.00024500 0.04047200 1.26807400
14 -1.43656900 0.00000400 0.00000300 -0.05524000 -0.05469200 0.69918900
15 -3.99235700 -0.89119100 -1.82790900 -0.53822200 0.04573000 0.93801100
16 -1.40591800 -0.00002500 -0.00000200 -0.00798600 -0.02836000 1.14978400
17 -1.17535800 0.00012600 -0.00001900 0.05560900 0.03892800 0.86426700
18 -4.52675100 -0.69058000 -1.12074100 -0.43382200 0.07827300 1.31804700
19 -1.74403800 0.00003200 -0.00000800 -0.02662600 -0.01282800 1.53365100
20 -1.36877100 0.00002300 0.00000200 0.02081800 0.04817500 0.30338500
21 -1.87479600 -0.93512500 0.99917500 2.00022900 0.52323300 0.75414300
22 -1.52344700 0.00003100 0.00003100 0.08365400 0.15258100 0.60551300
23 -1.59928500 0.00001100 0.00001500 0.03148800 -0.02916500 0.72724000
24 5.58312200 0.11572800 0.29500100 2.23698600 -0.06403800 3.11154600
25 0.19684600 -0.00000200 0.00000300 2.79340689 -0.00069599 -3.14143820
26 0.18781900 -12.68170400 -0.26926700 1.97586200 1.15991000 1.84280300
27 6.21448600 0.00000800 0.00001900 -0.80034476 0.48605124 -1.97138611
28 11.94488800 -0.00003100 -0.00020000 0.01629259 -0.29460636 -0.91783214
29 10.62016500 0.00000200 0.00000600 -2.27211930 -0.74787339 0.17173508
30 4.75115800 0.69437400 -0.83047400 -0.06963100 -0.18956200 1.20293400
31 1.68806500 -0.00002200 0.00000200 -0.00178600 -0.02466300 1.51256600
32 1.33615100 -0.00005100 -0.00000900 0.00162500 -0.03868900 0.32920800
33 4.82051500 0.50933800 0.22486600 -0.15643200 -0.01406900 1.57957000
34 1.82699200 0.00006600 0.00001000 -0.00186700 0.04038300 1.22708400
35 1.43658100 -0.00000600 0.00001000 0.00808100 -0.01279400 0.27447100
36 3.99235300 0.89108700 1.82799300 -0.26823800 0.10724000 1.40713400
37 1.40592600 0.00003100 -0.00000300 -0.01645600 -0.02445100 1.46689000
38 1.17536200 -0.00013200 0.00000100 0.02096900 0.12149700 0.12659500
39 4.52675800 0.69046400 1.12084300 -0.15292900 0.08798300 1.61269300
40 1.74404100 -0.00003100 -0.00000200 -0.02493600 -0.01580100 1.41848500
41 1.36876700 -0.00003100 -0.00001800 -0.24626800 0.17807500 0.18497200
42 1.87485700 0.93508100 -0.99912900 2.44808600 0.23419600 1.08300800
43 1.45054600 -0.06018800 0.09121700 0.01357131 0.17160926 0.35959684
44 1.59928100 -0.00000400 0.00001000 0.08169400 -0.01721100 1.03306000
45 5.51180600 -0.00000200 0.00000300 -0.66744800 0.00000000 0.00000000
46 0.19684900 0.00000300 -0.00000100 -0.34822500 0.00001500 -0.00000200
47 0.00000000 1.00000000 0.00000000 0.00000000 0.00000000 -1.57079600
48 -3.98884900 5.99511000 -3.13348000 0.00769100 0.00000000 -3.14157700
49 -4.72873003 24.48427105 -0.82590066 0.46276973 0.11215838 -0.97345911
50 10.86289300 0.45780600 -4.08309600 0.21793700 1.03451400 1.57217400
51 4.31811900 0.12671100 -1.02147400 0.00000000 0.00000000 0.00000000
52 -4.53261000 -0.00336500 -0.14022300 0.00000000 0.00000000 0.00000000
53 -0.00019500 0.00000000 0.15614900 0.00000000 0.00000000 0.00000000
54 1.12501800 1.29120100 0.99447800 0.00000000 0.00000000 0.00000000
55 -3.22465900 0.00371900 -1.30251700 0.00000000 0.00000000 0.00000000
56 -1.74734700 -2.37666800 -4.98092600 2.91139000 0.03423400 -1.98019800
time 14
0 -0.00000100 8.45008800 -27.50902600 0.00000000 0.00000000 0.00003100
1 -0.00000200 0.00000000 0.00000000 1.57074700 -1.56714200 -1.57074700
2 4.25546600 -0.33518300 -0.00000200 0.00000000 0.00000000 -0.12484800
3 7.43125000 1.49647900 0.00000200 0.00000000 0.00000000 0.24545000
4 5.27847900 0.16554400 0.00000100 0.00000000 0.00000000 0.04851100
5 2.39975200 -6.67628200 3.16515000 1.97586500 1.15990900 -1.29878600
6 -6.21447800 -0.00000900 -0.00002600 -2.99308239 -0.47533728 1.68210281
7 11.94488500 0.00000000 0.00000000 -0.18984031 -0.34599672 1.47202841
8 10.62018800 0.00000000 0.00000000 1.15284525 0.03047321 2.82558996
9 -4.75110800 -0.69449800 0.83058000 -0.16710000 0.01705900 0.37715400
10 -1.68806800 0.00004700 -0.00003100 0.01971800 -0.01493800 0.51622800
11 -1.33614000 0.00005500 -0.00001000 0.02599100 -0.00450100 0.72485300
12 -4.82049400 -0.50946400 -0.22475900 -0.33846200 -0.01336700 1.23585300
13 -1.82698400 -0.00006900 0.00000800 -0.00024500 0.04047200 1.26807400
14 -1.43656900 0.00000400 0.00000300 -0.05524000 -0.05469200 0.69918900
15 -3.99235700 -0.89119100 -1.82790900 -0.53822200 0.04573000 0.93801100
16 -1.40591800 -0.00002500 -0.00000200 -0.00798600 -0.02836000 1.14978400
17 -1.17535800 0.00012600 -0.00001900 0.05560900 0.03892800 0.86426700
18 -4.52675100 -0.69058000 -1.12074100 -0.43382200 0.07827300 1.31804700
19 -1.74403800 0.00003200 -0.00000800 -0.02662600 -0.01282800 1.53365100
20 -1.36877100 0.00002300 0.00000200 0.02081800 0.04817500 0.30338500
21 -1.87479600 -0.93512500 0.99917500 2.00022900 0.52323300 0.75414300
22 -1.52344700 0.00003100 0.00003100 0.08365400 0.15258100 0.60551300
23 -1.59928500 0.00001100 0.00001500 0.03148800 -0.02916500 0.72724000
24 5.58312200 0.11572800 0.29500100 2.23698600 -0.06403800 3.11154600
25 0.19684600 -0.00000200 0.00000300 2.79340689 -0.00069599 -3.14143820
26 0.18781900 -12.68170400 -0.26926700 1.97586200 1.15991000 1.84280300
27 6.21448600 0.00000800 0.00001900 -0.80361995 0.48319843 -1.97328957
28 11.94488800 -0.00003100 -0.00020000 0.01639283 -0.29140063 -0.91797939
29 10.62016500 0.00000200 0.00000600 -2.26480653 -0.74626962 0.17074805
30 4.75115800 0.69437400 -0.83047400 -0.06963100 -0.18956200 1.20293400
31 1.68806500 -0.00002200 0.00000200 -0.00178600 -0.02466300 1.51256600
32 1.33615100 -0.00005100 -0.00000900 0.00162500 -0.03868900 0.32920800
33 4.82051500 0.50933800 0.22486600 -0.15643200 -0.01406900 1.57957000
34 1.82699200 0.00006600 0.00001000 -0.00186700 0.04038300 1.22708400
35 1.43658100 -0.00000600 0.00001000 0.00808100 -0.01279400 0.27447100
36 3.99235300 0.89108700 1.82799300 -0.26823800 0.10724000 1.40713400
37 1.40592600 0.00003100 -0.00000300 -0.01645600 -0.02445100 1.46689000
38 1.17536200 -0.00013200 0.00000100 0.02096900 0.12149700 0.12659500
39 4.52675800 0.69046400 1.12084300 -0.15292900 0.08798300 1.61269300
40 1.74404100 -0.00003100 -0.00000200 -0.02493600 -0.01580100 1.41848500
41 1.36876700 -0.00003100 -0.00001800 -0.24626800 0.17807500 0.18497200
42 1.87485700 0.93508100 -0.99912900 2.44808600 0.23419600 1.08300800
43 1.45054600 -0.06018800 0.09121700 0.01449639 0.17155444 0.35959555
44 1.59928100 -0.00000400 0.00001000 0.08169400 -0.01721100 1.03306000
45 5.51180600 -0.00000200 0.00000300 -0.66744800 0.00000000 0.00000000
46 0.19684900 0.00000300 -0.00000100 -0.34822500 0.00001500 -0.00000200
47 0.00000000 1.00000000 0.00000000 0.00000000 0.00000000 -1.57079600
48 -3.98884900 5.99511000 -3.20663400 0.00903400 0.00000000 -3.14158300
49 -4.67207317 24.48427305 -0.77444519 0.45834833 0.11395610 -0.97444538
50 10.86289300 0.45780600 -4.08309600 0.21793700 1.03451400 1.57217400
51 4.31811900 0.12671100 -1.02147400 0.00000000 0.00000000 0.00000000
52 -4.53261000 -0.00336500 -0.14022300 0.00000000 0.00000000 0.00000000
53 -0.00019500 0.00000000 0.15614900 0.00000000 0.00000000 0.00000000
54 1.12501800 1.29120100 0.99447800 0.00000000 0.00000000 0.00000000
55 -3.22465900 0.00371900 -1.30251700 0.00000000 0.00000000 0.00000000
56 -1.74734700 -2.37666800 -4.98092600 2.91139000 0.03423400 -1.98019800
time 15
0 -0.00000100 8.45008800 -27.50902600 0.00000000 0.00000000 0.00003100
1 -0.00000200 0.00000000 0.00000000 1.57074700 -1.56714200 -1.57074700
2 4.25546600 -0.33518300 -0.00000200 0.00000000 0.00000000 -0.12484800
3 7.43125000 1.49647900 0.00000200 0.00000000 0.00000000 0.24545000
4 5.27847900 0.16554400 0.00000100 0.00000000 0.00000000 0.04851100
5 2.39975200 -6.67628200 3.16515000 1.97586500 1.15990900 -1.29878600
6 -6.21447800 -0.00000900 -0.00002600 -2.99435565 -0.47632897 1.68417094
7 11.94488500 0.00000000 0.00000000 -0.19003351 -0.34599566 1.47257591
8 10.62018800 0.00000000 0.00000000 1.14270724 0.03392753 2.82531426
9 -4.75110800 -0.69449800 0.83058000 -0.16710000 0.01705900 0.37715400
10 -1.68806800 0.00004700 -0.00003100 0.01971800 -0.01493800 0.51622800
11 -1.33614000 0.00005500 -0.00001000 0.02599100 -0.00450100 0.72485300
12 -4.82049400 -0.50946400 -0.22475900 -0.33846200 -0.01336700 1.23585300
13 -1.82698400 -0.00006900 0.00000800 -0.00024500 0.04047200 1.26807400
14 -1.43656900 0.00000400 0.00000300 -0.05524000 -0.05469200 0.69918900
15 -3.99235700 -0.89119100 -1.82790900 -0.53822200 0.04573000 0.93801100
16 -1.40591800 -0.00002500 -0.00000200 -0.00798600 -0.02836000 1.14978400
17 -1.17535800 0.00012600 -0.00001900 0.05560900 0.03892800 0.86426700
18 -4.52675100 -0.69058000 -1.12074100 -0.43382200 0.07827300 1.31804700
19 -1.74403800 0.00003200 -0.00000800 -0.02662600 -0.01282800 1.53365100
20 -1.36877100 0.00002300 0.00000200 0.02081800 0.04817500 0.30338500
21 -1.87479600 -0.93512500 0.99917500 2.00022900 0.52323300 0.75414300
22 -1.52344700 0.00003100 0.00003100 0.08365400 0.15258100 0.60551300
23 -1.59928500 0.00001100 0.00001500 0.03148800 -0.02916500 0.72724000
24 5.58312200 0.11572800 0.29500100 2.23698600 -0.06403800 3.11154600
25 0.19684600 -0.00000200 0.00000300 2.79340689 -0.00069599 -3.14143820
26 0.18781900 -12.68170400 -0.26926700 1.97586200 1.15991000 1.84280300
27 6.21448600 0.00000800 0.00001900 -0.80791274 0.48237937 -1.97363741
28 11.94488800 -0.00003100 -0.00020000 0.01732532 -0.28900260 -0.92122760
29 10.62016500 0.00000200 0.00000600 -2.24920246 -0.74157954 0.16683221
30 4.75115800 0.69437400 -0.83047400 -0.06963100 -0.18956200 1.20293400
31 1.68806500 -0.00002200 0.00000200 -0.00178600 -0.02466300 1.51256600
32 1.33615100 -0.00005100 -0.00000900 0.00162500 -0.03868900 0.32920800
33 4.82051500 0.50933800 0.22486600 -0.15643200 -0.01406900 1.57957000
34 1.82699200 0.00006600 0.00001000 -0.00186700 0.04038300 1.22708400
35 1.43658100 -0.00000600 0.00001000 0.00808100 -0.01279400 0.27447100
36 3.99235300 0.89108700 1.82799300 -0.26823800 0.10724000 1.40713400
37 1.40592600 0.00003100 -0.00000300 -0.01645600 -0.02445100 1.46689000
38 1.17536200 -0.00013200 0.00000100 0.02096900 0.12149700 0.12659500
39 4.52675800 0.69046400 1.12084300 -0.15292900 0.08798300 1.61269300
40 1.74404100 -0.00003100 -0.00000200 -0.02493600 -0.01580100 1.41848500
41 1.36876700 -0.00003100 -0.00001800 -0.24626800 0.17807500 0.18497200
42 1.87485700 0.93508100 -0.99912900 2.44808600 0.23419600 1.08300800
43 1.45054600 -0.06018800 0.09121700 0.01542117 0.17155442 0.35959613
44 1.59928100 -0.00000400 0.00001000 0.08169400 -0.01721100 1.03306000
45 5.51180600 -0.00000200 0.00000300 -0.66744800 0.00000000 0.00000000
46 0.19684900 0.00000300 -0.00000100 -0.34822500 0.00001500 -0.00000200
47 0.00000000 1.00000000 0.00000000 0.00000000 0.00000000 -1.57079600
48 -3.98884900 5.99511000 -3.23500000 0.00952300 0.00000000 -3.14158500
49 -4.61763755 24.48427305 -0.74160619 0.44860321 0.11749062 -0.97440204
50 10.86289300 0.45780600 -4.08309600 0.21793700 1.03451400 1.57217400
51 4.31811900 0.12671100 -1.02147400 0.00000000 0.00000000 0.00000000
52 -4.53261000 -0.00336500 -0.14022300 0.00000000 0.00000000 0.00000000
53 -0.00019500 0.00000000 0.15614900 0.00000000 0.00000000 0.00000000
54 1.12501800 1.29120100 0.99447800 0.00000000 0.00000000 0.00000000
55 -3.22465900 0.00371900 -1.30251700 0.00000000 0.00000000 0.00000000
56 -1.74734700 -2.37666800 -4.98092600 2.91139000 0.03423400 -1.98019800
end
