// Created by Crowbar 0.74
version 1
nodes
  0 "root" -1
  1 "pelvis" 0
  2 "spine_01" 1
  3 "spine_02" 2
  4 "spine_03" 3
  5 "clavicle_r" 4
  6 "upperarm_r" 5
  7 "lowerarm_r" 6
  8 "hand_r" 7
  9 "index_01_r" 8
  10 "index_02_r" 9
  11 "index_03_r" 10
  12 "middle_01_r" 8
  13 "middle_02_r" 12
  14 "middle_03_r" 13
  15 "pinky_01_r" 8
  16 "pinky_02_r" 15
  17 "pinky_03_r" 16
  18 "ring_01_r" 8
  19 "ring_02_r" 18
  20 "ring_03_r" 19
  21 "thumb_01_r" 8
  22 "thumb_02_r" 21
  23 "thumb_03_r" 22
  24 "BaseMesh" 8
  25 "Mag" 24
  26 "Bullet.001" 25
  27 "Bullet.002" 25
  28 "Bullet.003" 25
  29 "Bullet.004" 25
  30 "Bullet.005" 25
  31 "Bullet.006" 25
  32 "Bullet.007" 25
  33 "Bullet.008" 25
  34 "Hammer" 24
  35 "Trigger" 24
  36 "Slide" 24
  37 "rhand_ikTarget" 24
  38 "LHand_IKtarget" 24
  39 "lowerarm_twist_01_r" 7
  40 "upperarm_twist_01_r" 6
  41 "clavicle_l" 4
  42 "upperarm_l" 41
  43 "lowerarm_l" 42
  44 "hand_l" 43
  45 "index_01_l" 44
  46 "index_02_l" 45
  47 "index_03_l" 46
  48 "middle_01_l" 44
  49 "middle_02_l" 48
  50 "middle_03_l" 49
  51 "pinky_01_l" 44
  52 "pinky_02_l" 51
  53 "pinky_03_l" 52
  54 "ring_01_l" 44
  55 "ring_02_l" 54
  56 "ring_03_l" 55
  57 "thumb_01_l" 44
  58 "thumb_02_l" 57
  59 "thumb_03_l" 58
  60 "BaseLeftMesh" 44
  61 "MagLeft" 60
  62 "BulletLeft.001" 61
  63 "BulletLeft.002" 61
  64 "BulletLeft.003" 61
  65 "BulletLeft.004" 61
  66 "BulletLeft.005" 61
  67 "BulletLeft.006" 61
  68 "BulletLeft.007" 61
  69 "BulletLeft.008" 61
  70 "HammerLeft" 60
  71 "TriggerLeft" 60
  72 "SlideLeft" 60
  73 "lowerarm_twist_01_l" 43
  74 "upperarm_twist_01_l" 42
  75 "cam_driver" -1
end
skeleton
  time 0
    0 -0.000001 7.449219 -27.500000 0.000000 0.000000 -0.000001
    1 -0.000002 0.000000 0.000000 1.570743 -1.567137 -1.570743
    2 4.255468 -0.335183 -0.000002 0.000000 0.000000 -0.124848
    3 7.431248 1.496477 0.000002 0.000000 0.000000 0.245450
    4 5.278479 0.165541 0.000001 0.000000 0.000000 0.048511
    5 -1.841076 -11.661896 1.488977 1.975864 1.159909 -1.298786
    6 -6.214482 -0.000007 -0.000027 4.160563 -0.586895 1.146101
    7 11.944882 0.000000 0.000001 -0.342508 -0.329238 1.924753
    8 10.620181 0.000002 0.000000 1.475567 0.621687 3.411815
    9 -4.751106 -0.694494 0.830577 -0.121582 -0.098373 0.576381
    10 -1.688068 0.000046 -0.000032 0.020236 -0.014295 0.482895
    11 -1.336140 0.000057 -0.000012 0.025444 0.007037 0.284039
    12 -4.820494 -0.509460 -0.224759 -0.374677 -0.149495 1.278524
    13 -1.826992 -0.000064 0.000006 -0.001732 0.040491 1.231086
    14 -1.436573 0.000006 0.000002 -0.060148 -0.049398 0.791678
    15 -3.992355 -0.891188 -1.827909 -0.548967 -0.025839 1.134483
    16 -1.405918 -0.000025 -0.000003 -0.005060 -0.029092 1.047914
    17 -1.175358 0.000128 -0.000020 0.064497 0.021484 1.153057
    18 -4.526751 -0.690575 -1.120744 -0.485918 -0.012814 1.413547
    19 -1.744038 0.000033 -0.000008 -0.022778 -0.018929 1.288461
    20 -1.368771 0.000025 0.000002 0.038009 0.036257 0.704431
    21 -1.718750 -1.282227 0.931152 1.989947 0.630795 0.833742
    22 -1.523453 0.000032 0.000031 -0.191004 0.111963 0.751915
    23 -1.599285 0.000004 0.000016 -0.076437 -0.043104 0.827086
    24 -4.652344 -2.087891 1.227539 -0.144563 -0.177731 0.461587
    25 0.084805 -0.018744 1.059229 0.000000 0.000002 0.000000
    26 -0.051861 0.000000 0.223938 0.000000 0.000000 0.000000
    27 -0.011209 0.000000 -0.207644 0.000000 0.000000 0.000000
    28 0.033795 0.000000 -0.691232 0.000000 0.000000 0.000000
    29 0.074449 -0.000001 -1.122813 0.000000 0.000000 0.000000
    30 0.163631 -0.000001 -1.606582 0.000000 0.000000 0.000000
    31 0.204285 -0.000001 -2.038164 0.000000 0.000000 0.000000
    32 0.293468 -0.000001 -2.502457 0.000000 0.000000 0.000000
    33 0.334122 -0.000002 -2.934039 0.000000 0.000000 0.000000
    34 1.745955 -0.009690 0.758464 0.000000 0.924979 0.000000
    35 -1.761922 -0.009689 0.390344 0.000000 0.000002 0.000000
    36 -1.187037 -0.009688 1.460376 0.000000 0.000002 0.000000
    37 4.801971 0.103726 -2.114019 0.363564 1.106851 1.589080
    38 5.579037 -10.549663 -3.697726 -3.049560 0.356294 -1.132718
    39 5.511815 0.000008 -0.000001 2.243089 -0.002559 -3.140365
    40 0.196847 -0.000001 0.000003 2.793407 0.000006 -3.141577
    41 -1.841076 -11.661896 -1.488978 1.975862 1.159909 1.842803
    42 6.214485 0.000006 0.000020 -0.988386 0.568623 -1.945969
    43 11.944885 -0.000029 -0.000194 -0.293865 -0.324898 -1.961451
    44 10.620166 0.000002 0.000010 -1.173225 -0.365188 -0.505194
    45 4.751156 0.694376 -0.830473 -0.056027 -0.279243 0.546140
    46 1.688065 -0.000026 0.000002 0.015442 -0.019381 0.766007
    47 1.336151 -0.000051 -0.000009 -0.010043 -0.037445 0.633226
    48 4.820513 0.509340 0.224865 -0.386429 -0.322196 1.316427
    49 1.826996 0.000066 0.000008 0.005321 0.040178 1.405668
    50 1.436577 -0.000010 0.000007 0.005509 -0.014156 0.470048
    51 3.992353 0.891087 1.827994 -0.589400 -0.174415 1.370414
    52 1.405918 0.000021 -0.000007 -0.015915 -0.024880 1.444709
    53 1.175369 -0.000131 0.000002 0.073142 0.099350 0.591204
    54 4.526756 0.690460 1.120842 -0.530377 -0.216776 1.477861
    55 1.744041 -0.000031 -0.000002 -0.010579 -0.012013 1.526981
    56 1.368763 -0.000031 -0.000017 -0.042347 0.136481 0.277545
    57 1.864258 0.949707 -0.985352 2.145451 0.467298 1.111593
    58 1.523449 -0.000034 -0.000003 -0.460263 -0.057080 0.780242
    59 1.599281 -0.000002 0.000009 0.079853 -0.024538 1.123918
    60 4.593750 2.167969 -1.036133 -3.095831 0.294358 -2.768497
    61 0.084803 -0.018744 1.059232 0.000000 0.000000 0.000000
    62 -0.051860 0.000000 0.223938 0.000000 0.000000 0.000000
    63 -0.011209 0.000000 -0.207645 0.000000 0.000000 0.000000
    64 0.033796 0.000000 -0.691233 0.000000 0.000000 0.000000
    65 0.074449 0.000000 -1.122816 0.000000 0.000000 0.000000
    66 0.163633 0.000000 -1.606585 0.000000 0.000000 0.000000
    67 0.204287 0.000000 -2.038168 0.000000 0.000000 0.000000
    68 0.293470 0.000000 -2.502461 0.000000 0.000000 0.000000
    69 0.334124 0.000000 -2.934044 0.000000 0.000000 0.000000
    70 1.745956 -0.009689 0.758467 0.000000 0.924976 0.000000
    71 -1.761920 -0.009688 0.390344 0.000000 0.000000 0.000000
    72 -1.187037 -0.009689 1.460379 0.000000 0.000000 0.000000
    73 5.511806 -0.000002 0.000006 -0.235797 0.000005 0.000007
    74 0.196850 0.000003 -0.000002 -0.348225 0.000015 -0.000002
    75 0.000000 0.000000 0.000000 0.000000 0.000000 -1.570796
  time 1
    0 -0.000001 7.449219 -27.500000 0.000000 0.000000 -0.000001
    1 -0.000002 0.000000 0.000000 1.570743 -1.567137 -1.570743
    2 4.255468 -0.335183 -0.000002 0.000000 0.000000 -0.124848
    3 7.431248 1.496477 0.000002 0.000000 0.000000 0.245450
    4 5.278479 0.165541 0.000001 0.000000 0.000000 0.048511
    5 -1.692634 -11.572050 1.488977 1.975864 1.159909 -1.298786
    6 -6.214482 -0.000007 -0.000027 4.139248 -0.620751 1.147141
    7 11.944882 0.000000 0.000001 -0.356408 -0.324049 1.968065
    8 10.620181 0.000002 0.000000 1.474882 0.648186 3.302621
    9 -4.751106 -0.694494 0.830577 -0.121582 -0.098373 0.576381
    10 -1.688068 0.000046 -0.000032 0.020236 -0.014295 0.482895
    11 -1.336140 0.000057 -0.000012 0.025444 0.007037 0.284039
    12 -4.820494 -0.509460 -0.224759 -0.374677 -0.149495 1.278524
    13 -1.826992 -0.000064 0.000006 -0.001732 0.040491 1.231086
    14 -1.436573 0.000006 0.000002 -0.060148 -0.049398 0.791678
    15 -3.992355 -0.891188 -1.827909 -0.548967 -0.025839 1.134483
    16 -1.405918 -0.000025 -0.000003 -0.005060 -0.029092 1.047914
    17 -1.175358 0.000128 -0.000020 0.064497 0.021484 1.153057
    18 -4.526751 -0.690575 -1.120744 -0.485918 -0.012814 1.413547
    19 -1.744038 0.000033 -0.000008 -0.022778 -0.018929 1.288461
    20 -1.368771 0.000025 0.000002 0.038009 0.036257 0.704431
    21 -1.718750 -1.282227 0.931152 1.989947 0.630795 0.833742
    22 -1.523453 0.000032 0.000031 -0.191004 0.111963 0.751915
    23 -1.599285 0.000004 0.000016 -0.076437 -0.043104 0.827086
    24 -4.652344 -2.087891 1.227539 -0.144563 -0.177731 0.461587
    25 0.084805 -0.018744 1.059229 0.000000 0.000002 0.000000
    26 -0.051861 0.000000 0.223938 0.000000 0.000000 0.000000
    27 -0.011209 0.000000 -0.207644 0.000000 0.000000 0.000000
    28 0.033795 0.000000 -0.691232 0.000000 0.000000 0.000000
    29 0.074449 -0.000001 -1.122813 0.000000 0.000000 0.000000
    30 0.163631 -0.000001 -1.606582 0.000000 0.000000 0.000000
    31 0.204285 -0.000001 -2.038164 0.000000 0.000000 0.000000
    32 0.293468 -0.000001 -2.502457 0.000000 0.000000 0.000000
    33 0.334122 -0.000002 -2.934039 0.000000 0.000000 0.000000
    34 1.745955 -0.009690 0.758464 0.000000 0.924979 0.000000
    35 -1.761922 -0.009689 0.390344 0.000000 0.000002 0.000000
    36 -1.187037 -0.009688 1.460376 0.000000 0.000002 0.000000
    37 4.801971 0.103726 -2.114019 0.363564 1.106851 1.589080
    38 6.086865 -10.323093 -4.201648 -3.046685 0.347332 -1.140325
    39 5.511815 0.000008 -0.000001 2.243089 -0.002559 -3.140365
    40 0.196847 -0.000001 0.000003 2.793407 0.000006 -3.141577
    41 -1.692634 -11.572050 -1.488978 1.975862 1.159909 1.842803
    42 6.214485 0.000006 0.000020 -0.955331 0.620869 -1.902732
    43 11.944885 -0.000029 -0.000194 -0.257758 -0.322094 -1.983251
    44 10.620166 0.000002 0.000010 -1.189386 -0.405941 -0.436976
    45 4.751156 0.694376 -0.830473 -0.056027 -0.279243 0.546140
    46 1.688065 -0.000026 0.000002 0.015442 -0.019381 0.766007
    47 1.336151 -0.000051 -0.000009 -0.010043 -0.037445 0.633226
    48 4.820513 0.509340 0.224865 -0.386429 -0.322196 1.316427
    49 1.826996 0.000066 0.000008 0.005321 0.040178 1.405668
    50 1.436577 -0.000010 0.000007 0.005509 -0.014156 0.470048
    51 3.992353 0.891087 1.827994 -0.589400 -0.174415 1.370414
    52 1.405918 0.000021 -0.000007 -0.015915 -0.024880 1.444709
    53 1.175369 -0.000131 0.000002 0.073142 0.099350 0.591204
    54 4.526756 0.690460 1.120842 -0.530377 -0.216776 1.477861
    55 1.744041 -0.000031 -0.000002 -0.010579 -0.012013 1.526981
    56 1.368763 -0.000031 -0.000017 -0.042347 0.136481 0.277545
    57 1.864258 0.949707 -0.985352 2.145451 0.467298 1.111593
    58 1.523449 -0.000034 -0.000003 -0.460263 -0.057080 0.780242
    59 1.599281 -0.000002 0.000009 0.079853 -0.024538 1.123918
    60 4.593750 2.167969 -1.036133 -3.095831 0.294358 -2.768497
    61 0.084803 -0.018744 1.059232 0.000000 0.000000 0.000000
    62 -0.051860 0.000000 0.223938 0.000000 0.000000 0.000000
    63 -0.011209 0.000000 -0.207645 0.000000 0.000000 0.000000
    64 0.033796 0.000000 -0.691233 0.000000 0.000000 0.000000
    65 0.074449 0.000000 -1.122816 0.000000 0.000000 0.000000
    66 0.163633 0.000000 -1.606585 0.000000 0.000000 0.000000
    67 0.204287 0.000000 -2.038168 0.000000 0.000000 0.000000
    68 0.293470 0.000000 -2.502461 0.000000 0.000000 0.000000
    69 0.334124 0.000000 -2.934044 0.000000 0.000000 0.000000
    70 1.745956 -0.009689 0.758467 0.000000 0.924976 0.000000
    71 -1.761920 -0.009688 0.390344 0.000000 0.000000 0.000000
    72 -1.187037 -0.009689 1.460379 0.000000 0.000000 0.000000
    73 5.511806 -0.000002 0.000006 -0.235797 0.000005 0.000007
    74 0.196850 0.000003 -0.000002 -0.348225 0.000015 -0.000002
    75 0.000000 0.000000 0.000000 0.000000 0.000000 -1.570796
  time 2
    0 -0.000001 7.449219 -27.500000 0.000000 0.000000 -0.000001
    1 -0.000002 0.000000 0.000000 1.570743 -1.567137 -1.570743
    2 4.255468 -0.335183 -0.000002 0.000000 0.000000 -0.124848
    3 7.431248 1.496477 0.000002 0.000000 0.000000 0.245450
    4 5.278479 0.165541 0.000001 0.000000 0.000000 0.048511
    5 -1.290278 -11.322042 1.488977 1.975864 1.159909 -1.298786
    6 -6.214482 -0.000007 -0.000027 4.077660 -0.683220 1.152536
    7 11.944882 0.000000 0.000001 -0.380455 -0.313418 2.044743
    8 10.620181 0.000002 0.000000 1.451997 0.712254 3.020531
    9 -4.751106 -0.694494 0.830577 -0.121582 -0.098373 0.576381
    10 -1.688068 0.000046 -0.000032 0.020236 -0.014295 0.482895
    11 -1.336140 0.000057 -0.000012 0.025444 0.007037 0.284039
    12 -4.820494 -0.509460 -0.224759 -0.374677 -0.149495 1.278524
    13 -1.826992 -0.000064 0.000006 -0.001732 0.040491 1.231086
    14 -1.436573 0.000006 0.000002 -0.060148 -0.049398 0.791678
    15 -3.992355 -0.891188 -1.827909 -0.548967 -0.025839 1.134483
    16 -1.405918 -0.000025 -0.000003 -0.005060 -0.029092 1.047914
    17 -1.175358 0.000128 -0.000020 0.064497 0.021484 1.153057
    18 -4.526751 -0.690575 -1.120744 -0.485918 -0.012814 1.413547
    19 -1.744038 0.000033 -0.000008 -0.022778 -0.018929 1.288461
    20 -1.368771 0.000025 0.000002 0.038009 0.036257 0.704431
    21 -1.718750 -1.282227 0.931152 1.989947 0.630795 0.833742
    22 -1.523453 0.000032 0.000031 -0.191004 0.111963 0.751915
    23 -1.599285 0.000004 0.000016 -0.076437 -0.043104 0.827086
    24 -4.652344 -2.087891 1.227539 -0.144563 -0.177731 0.461587
    25 0.084805 -0.018744 1.059229 0.000000 0.000002 0.000000
    26 -0.051861 0.000000 0.223938 0.000000 0.000000 0.000000
    27 -0.011209 0.000000 -0.207644 0.000000 0.000000 0.000000
    28 0.033795 0.000000 -0.691232 0.000000 0.000000 0.000000
    29 0.074449 -0.000001 -1.122813 0.000000 0.000000 0.000000
    30 0.163631 -0.000001 -1.606582 0.000000 0.000000 0.000000
    31 0.204285 -0.000001 -2.038164 0.000000 0.000000 0.000000
    32 0.293468 -0.000001 -2.502457 0.000000 0.000000 0.000000
    33 0.334122 -0.000002 -2.934039 0.000000 0.000000 0.000000
    34 1.745955 -0.009690 0.758464 0.000000 0.924979 0.000000
    35 -1.761922 -0.009689 0.390344 0.000000 0.000002 0.000000
    36 -1.187037 -0.009688 1.460376 0.000000 0.000002 0.000000
    37 4.801971 0.103726 -2.114019 0.363564 1.106851 1.589080
    38 6.813450 -9.721512 -5.471218 -3.043044 0.315644 -1.185017
    39 5.511815 0.000008 -0.000001 2.243089 -0.002559 -3.140365
    40 0.196847 -0.000001 0.000003 2.793407 0.000006 -3.141577
    41 -1.290277 -11.322042 -1.488978 1.975862 1.159909 1.842803
    42 6.214485 0.000006 0.000020 -0.849873 0.725401 -1.779535
    43 11.944885 -0.000029 -0.000194 -0.163449 -0.316845 -2.021531
    44 10.620166 0.000002 0.000010 -1.264028 -0.493111 -0.228883
    45 4.751156 0.694376 -0.830473 -0.056027 -0.279243 0.546140
    46 1.688065 -0.000026 0.000002 0.015442 -0.019381 0.766007
    47 1.336151 -0.000051 -0.000009 -0.010043 -0.037445 0.633226
    48 4.820513 0.509340 0.224865 -0.386429 -0.322196 1.316427
    49 1.826996 0.000066 0.000008 0.005321 0.040178 1.405668
    50 1.436577 -0.000010 0.000007 0.005509 -0.014156 0.470048
    51 3.992353 0.891087 1.827994 -0.589400 -0.174415 1.370414
    52 1.405918 0.000021 -0.000007 -0.015915 -0.024880 1.444709
    53 1.175369 -0.000131 0.000002 0.073142 0.099350 0.591204
    54 4.526756 0.690460 1.120842 -0.530377 -0.216776 1.477861
    55 1.744041 -0.000031 -0.000002 -0.010579 -0.012013 1.526981
    56 1.368763 -0.000031 -0.000017 -0.042347 0.136481 0.277545
    57 1.864258 0.949707 -0.985352 2.145451 0.467298 1.111593
    58 1.523449 -0.000034 -0.000003 -0.460263 -0.057080 0.780242
    59 1.599281 -0.000002 0.000009 0.079853 -0.024538 1.123918
    60 4.593750 2.167969 -1.036133 -3.095831 0.294358 -2.768497
    61 0.084803 -0.018744 1.059232 0.000000 0.000000 0.000000
    62 -0.051860 0.000000 0.223938 0.000000 0.000000 0.000000
    63 -0.011209 0.000000 -0.207645 0.000000 0.000000 0.000000
    64 0.033796 0.000000 -0.691233 0.000000 0.000000 0.000000
    65 0.074449 0.000000 -1.122816 0.000000 0.000000 0.000000
    66 0.163633 0.000000 -1.606585 0.000000 0.000000 0.000000
    67 0.204287 0.000000 -2.038168 0.000000 0.000000 0.000000
    68 0.293470 0.000000 -2.502461 0.000000 0.000000 0.000000
    69 0.334124 0.000000 -2.934044 0.000000 0.000000 0.000000
    70 1.745956 -0.009689 0.758467 0.000000 0.924976 0.000000
    71 -1.761920 -0.009688 0.390344 0.000000 0.000000 0.000000
    72 -1.187037 -0.009689 1.460379 0.000000 0.000000 0.000000
    73 5.511806 -0.000002 0.000006 -0.235797 0.000005 0.000007
    74 0.196850 0.000003 -0.000002 -0.348225 0.000015 -0.000002
    75 0.000000 0.000000 0.000000 0.000000 0.000000 -1.570796
  time 3
    0 -0.000001 7.449219 -27.500000 0.000000 0.000000 -0.000001
    1 -0.000002 0.000000 0.000000 1.570743 -1.567137 -1.570743
    2 4.255468 -0.335183 -0.000002 0.000000 0.000000 -0.124848
    3 7.431248 1.496477 0.000002 0.000000 0.000000 0.245450
    4 5.278479 0.165541 0.000001 0.000000 0.000000 0.048511
    5 -0.696510 -10.958750 1.488977 1.975864 1.159909 -1.298786
    6 -6.214482 -0.000007 -0.000027 3.994052 -0.710432 1.164367
    7 11.944882 0.000000 0.000001 -0.387438 -0.309931 2.067469
    8 10.620181 0.000002 0.000000 1.361100 0.762027 2.640320
    9 -4.751106 -0.694494 0.830577 -0.121582 -0.098373 0.576381
    10 -1.688068 0.000046 -0.000032 0.020236 -0.014295 0.482895
    11 -1.336140 0.000057 -0.000012 0.025444 0.007037 0.284039
    12 -4.820494 -0.509460 -0.224759 -0.374677 -0.149495 1.278524
    13 -1.826992 -0.000064 0.000006 -0.001732 0.040491 1.231086
    14 -1.436573 0.000006 0.000002 -0.060148 -0.049398 0.791678
    15 -3.992355 -0.891188 -1.827909 -0.548967 -0.025839 1.134483
    16 -1.405918 -0.000025 -0.000003 -0.005060 -0.029092 1.047914
    17 -1.175358 0.000128 -0.000020 0.064497 0.021484 1.153057
    18 -4.526751 -0.690575 -1.120744 -0.485918 -0.012814 1.413547
    19 -1.744038 0.000033 -0.000008 -0.022778 -0.018929 1.288461
    20 -1.368771 0.000025 0.000002 0.038009 0.036257 0.704431
    21 -1.718750 -1.282227 0.931152 1.989947 0.630795 0.833742
    22 -1.523453 0.000032 0.000031 -0.191004 0.111963 0.751915
    23 -1.599285 0.000004 0.000016 -0.076437 -0.043104 0.827086
    24 -4.652344 -2.087891 1.227539 -0.144563 -0.177731 0.461587
    25 0.084805 -0.018744 1.059229 0.000000 0.000002 0.000000
    26 -0.051861 0.000000 0.223938 0.000000 0.000000 0.000000
    27 -0.011209 0.000000 -0.207644 0.000000 0.000000 0.000000
    28 0.033795 0.000000 -0.691232 0.000000 0.000000 0.000000
    29 0.074449 -0.000001 -1.122813 0.000000 0.000000 0.000000
    30 0.163631 -0.000001 -1.606582 0.000000 0.000000 0.000000
    31 0.204285 -0.000001 -2.038164 0.000000 0.000000 0.000000
    32 0.293468 -0.000001 -2.502457 0.000000 0.000000 0.000000
    33 0.334122 -0.000002 -2.934039 0.000000 0.000000 0.000000
    34 1.745955 -0.009690 0.758464 0.000000 0.924979 0.000000
    35 -1.761922 -0.009689 0.390344 0.000000 0.000002 0.000000
    36 -1.187037 -0.009688 1.460376 0.000000 0.000002 0.000000
    37 4.801971 0.103726 -2.114019 0.363576 1.106851 1.589080
    38 6.704071 -9.006647 -6.772039 -3.039882 0.226068 -1.279347
    39 5.511815 0.000008 -0.000001 2.243089 -0.002559 -3.140365
    40 0.196847 -0.000001 0.000003 2.793407 0.000006 -3.141577
    41 -0.696509 -10.958750 -1.488978 1.975862 1.159909 1.842803
    42 6.214485 0.000006 0.000020 -0.672275 0.787502 -1.605515
    43 11.944885 -0.000029 -0.000194 -0.030872 -0.315455 -2.031139
    44 10.620166 0.000002 0.000010 -1.425989 -0.556102 0.120959
    45 4.751156 0.694376 -0.830473 -0.056027 -0.279243 0.546140
    46 1.688065 -0.000026 0.000002 0.015442 -0.019381 0.766007
    47 1.336151 -0.000051 -0.000009 -0.010043 -0.037445 0.633226
    48 4.820513 0.509340 0.224865 -0.386429 -0.322196 1.316427
    49 1.826996 0.000066 0.000008 0.005321 0.040178 1.405668
    50 1.436577 -0.000010 0.000007 0.005509 -0.014156 0.470048
    51 3.992353 0.891087 1.827994 -0.589400 -0.174415 1.370414
    52 1.405918 0.000021 -0.000007 -0.015915 -0.024880 1.444709
    53 1.175369 -0.000131 0.000002 0.073142 0.099350 0.591204
    54 4.526756 0.690460 1.120842 -0.530377 -0.216776 1.477861
    55 1.744041 -0.000031 -0.000002 -0.010579 -0.012013 1.526981
    56 1.368763 -0.000031 -0.000017 -0.042347 0.136481 0.277545
    57 1.864258 0.949707 -0.985352 2.145451 0.467298 1.111593
    58 1.523449 -0.000034 -0.000003 -0.460263 -0.057080 0.780242
    59 1.599281 -0.000002 0.000009 0.079853 -0.024538 1.123918
    60 4.593750 2.167969 -1.036133 -3.095831 0.294358 -2.768497
    61 0.084803 -0.018744 1.059232 0.000000 0.000000 0.000000
    62 -0.051860 0.000000 0.223938 0.000000 0.000000 0.000000
    63 -0.011209 0.000000 -0.207645 0.000000 0.000000 0.000000
    64 0.033796 0.000000 -0.691233 0.000000 0.000000 0.000000
    65 0.074449 0.000000 -1.122816 0.000000 0.000000 0.000000
    66 0.163633 0.000000 -1.606585 0.000000 0.000000 0.000000
    67 0.204287 0.000000 -2.038168 0.000000 0.000000 0.000000
    68 0.293470 0.000000 -2.502461 0.000000 0.000000 0.000000
    69 0.334124 0.000000 -2.934044 0.000000 0.000000 0.000000
    70 1.745956 -0.009689 0.758467 0.000000 0.924976 0.000000
    71 -1.761920 -0.009688 0.390344 0.000000 0.000000 0.000000
    72 -1.187037 -0.009689 1.460379 0.000000 0.000000 0.000000
    73 5.511806 -0.000002 0.000006 -0.235797 0.000005 0.000007
    74 0.196850 0.000003 -0.000002 -0.348225 0.000015 -0.000002
    75 0.000000 0.000000 0.000000 0.000000 0.000000 -1.570796
  time 4
    0 -0.000001 7.449219 -27.500000 0.000000 0.000000 -0.000001
    1 -0.000002 0.000000 0.000000 1.570743 -1.567137 -1.570743
    2 4.255468 -0.335183 -0.000002 0.000000 0.000000 -0.124848
    3 7.431248 1.496477 0.000002 0.000000 0.000000 0.245450
    4 5.278479 0.165541 0.000001 0.000000 0.000000 0.048511
    5 0.026168 -10.513424 1.488977 1.975864 1.159909 -1.298786
    6 -6.214482 -0.000007 -0.000027 3.925006 -0.672786 1.195894
    7 11.944882 0.000000 0.000001 -0.348185 -0.327213 1.942317
    8 10.620181 0.000002 0.000000 1.308480 0.707782 2.388580
    9 -4.751106 -0.694494 0.830577 -0.121582 -0.098373 0.576381
    10 -1.688068 0.000046 -0.000032 0.020236 -0.014295 0.482895
    11 -1.336140 0.000057 -0.000012 0.025444 0.007037 0.284039
    12 -4.820494 -0.509460 -0.224759 -0.374677 -0.149495 1.278524
    13 -1.826992 -0.000064 0.000006 -0.001732 0.040491 1.231086
    14 -1.436573 0.000006 0.000002 -0.060148 -0.049398 0.791678
    15 -3.992355 -0.891188 -1.827909 -0.548967 -0.025839 1.134483
    16 -1.405918 -0.000025 -0.000003 -0.005060 -0.029092 1.047914
    17 -1.175358 0.000128 -0.000020 0.064497 0.021484 1.153057
    18 -4.526751 -0.690575 -1.120744 -0.485918 -0.012814 1.413547
    19 -1.744038 0.000033 -0.000008 -0.022778 -0.018929 1.288461
    20 -1.368771 0.000025 0.000002 0.038009 0.036257 0.704431
    21 -1.718750 -1.282227 0.931152 1.989947 0.630795 0.833742
    22 -1.523453 0.000032 0.000031 -0.191004 0.111963 0.751915
    23 -1.599285 0.000004 0.000016 -0.076437 -0.043104 0.827086
    24 -4.652344 -2.087891 1.227539 -0.144563 -0.177731 0.461587
    25 0.084805 -0.018744 1.059229 0.000000 0.000002 0.000000
    26 -0.051861 0.000000 0.223938 0.000000 0.000000 0.000000
    27 -0.011209 0.000000 -0.207644 0.000000 0.000000 0.000000
    28 0.033795 0.000000 -0.691232 0.000000 0.000000 0.000000
    29 0.074449 -0.000001 -1.122813 0.000000 0.000000 0.000000
    30 0.163631 -0.000001 -1.606582 0.000000 0.000000 0.000000
    31 0.204285 -0.000001 -2.038164 0.000000 0.000000 0.000000
    32 0.293468 -0.000001 -2.502457 0.000000 0.000000 0.000000
    33 0.334122 -0.000002 -2.934039 0.000000 0.000000 0.000000
    34 1.745955 -0.009690 0.758464 0.000000 0.924979 0.000000
    35 -1.761922 -0.009689 0.390344 0.000000 0.000002 0.000000
    36 -1.187037 -0.009688 1.460376 0.000000 0.000002 0.000000
    37 4.801971 0.103726 -2.114019 0.363564 1.106851 1.589080
    38 6.075146 -8.881643 -6.498593 -3.058472 -0.011612 -1.401253
    39 5.511815 0.000008 -0.000001 2.243089 -0.002559 -3.140365
    40 0.196847 -0.000001 0.000003 2.793407 0.000006 -3.141577
    41 0.026169 -10.513424 -1.488978 1.975862 1.159909 1.842803
    42 6.214485 0.000006 0.000020 -0.478040 0.753582 -1.465400
    43 11.944885 -0.000029 -0.000194 0.118040 -0.324886 -1.961451
    44 10.620166 0.000002 0.000010 -1.643452 -0.513933 0.487965
    45 4.751156 0.694376 -0.830473 -0.056027 -0.279243 0.546140
    46 1.688065 -0.000026 0.000002 0.015442 -0.019381 0.766007
    47 1.336151 -0.000051 -0.000009 -0.010043 -0.037445 0.633226
    48 4.820513 0.509340 0.224865 -0.386429 -0.322196 1.316427
    49 1.826996 0.000066 0.000008 0.005321 0.040178 1.405705
    50 1.436577 -0.000010 0.000007 0.005509 -0.014156 0.470048
    51 3.992353 0.891087 1.827994 -0.589400 -0.174415 1.370414
    52 1.405918 0.000021 -0.000007 -0.015915 -0.024880 1.444709
    53 1.175369 -0.000131 0.000002 0.073142 0.099350 0.591204
    54 4.526756 0.690460 1.120842 -0.530377 -0.216776 1.477861
    55 1.744041 -0.000031 -0.000002 -0.010579 -0.012013 1.526981
    56 1.368763 -0.000031 -0.000017 -0.042347 0.136481 0.277545
    57 1.864258 0.949707 -0.985352 2.145451 0.467298 1.111593
    58 1.523449 -0.000034 -0.000003 -0.460263 -0.057080 0.780242
    59 1.599281 -0.000002 0.000009 0.079853 -0.024538 1.123918
    60 4.593750 2.167969 -1.036133 -3.095831 0.294358 -2.768497
    61 0.084803 -0.018744 1.059232 0.000000 0.000000 0.000000
    62 -0.051860 0.000000 0.223938 0.000000 0.000000 0.000000
    63 -0.011209 0.000000 -0.207645 0.000000 0.000000 0.000000
    64 0.033796 0.000000 -0.691233 0.000000 0.000000 0.000000
    65 0.074449 0.000000 -1.122816 0.000000 0.000000 0.000000
    66 0.163633 0.000000 -1.606585 0.000000 0.000000 0.000000
    67 0.204287 0.000000 -2.038168 0.000000 0.000000 0.000000
    68 0.293470 0.000000 -2.502461 0.000000 0.000000 0.000000
    69 0.334124 0.000000 -2.934044 0.000000 0.000000 0.000000
    70 1.745956 -0.009689 0.758467 0.000000 0.924976 0.000000
    71 -1.761920 -0.009688 0.390344 0.000000 0.000000 0.000000
    72 -1.187037 -0.009689 1.460379 0.000000 0.000000 0.000000
    73 5.511806 -0.000002 0.000006 -0.235797 0.000005 0.000007
    74 0.196850 0.000003 -0.000002 -0.348225 0.000015 -0.000002
    75 0.000000 0.000000 0.000000 0.000000 0.000000 -1.570796
  time 5
    0 -0.000001 7.449219 -27.500000 0.000000 0.000000 -0.000001
    1 -0.000002 0.000000 0.000000 1.570743 -1.567137 -1.570743
    2 4.255468 -0.335183 -0.000002 0.000000 0.000000 -0.124848
    3 7.431248 1.496477 0.000002 0.000000 0.000000 0.245450
    4 5.278479 0.165541 0.000001 0.000000 0.000000 0.048511
    5 0.807442 -10.032941 1.488977 1.975864 1.159909 -1.298786
    6 -6.214482 -0.000007 -0.000027 3.866715 -0.573550 1.226381
    7 11.944882 0.000000 0.000001 -0.261099 -0.347395 1.680555
    8 10.620181 0.000002 0.000000 1.382614 0.599366 2.340486
    9 -4.751106 -0.694494 0.830577 -0.121582 -0.098373 0.576381
    10 -1.688068 0.000046 -0.000032 0.020236 -0.014295 0.482895
    11 -1.336140 0.000057 -0.000012 0.025444 0.007037 0.284039
    12 -4.820494 -0.509460 -0.224759 -0.374677 -0.149495 1.278524
    13 -1.826992 -0.000064 0.000006 -0.001732 0.040491 1.231086
    14 -1.436573 0.000006 0.000002 -0.060148 -0.049398 0.791678
    15 -3.992355 -0.891188 -1.827909 -0.548967 -0.025839 1.134483
    16 -1.405918 -0.000025 -0.000003 -0.005060 -0.029092 1.047914
    17 -1.175358 0.000128 -0.000020 0.064497 0.021484 1.153057
    18 -4.526751 -0.690575 -1.120744 -0.485918 -0.012814 1.413547
    19 -1.744038 0.000033 -0.000008 -0.022778 -0.018929 1.288461
    20 -1.368771 0.000025 0.000002 0.038009 0.036257 0.704431
    21 -1.718750 -1.282227 0.931152 1.989947 0.630795 0.833742
    22 -1.523453 0.000032 0.000031 -0.191004 0.111963 0.751915
    23 -1.599285 0.000004 0.000016 -0.076437 -0.043104 0.827086
    24 -4.652344 -2.087891 1.227539 -0.144563 -0.177731 0.461587
    25 0.084805 -0.018744 1.059229 0.000000 0.000002 0.000000
    26 -0.051861 0.000000 0.223938 0.000000 0.000000 0.000000
    27 -0.011209 0.000000 -0.207644 0.000000 0.000000 0.000000
    28 0.033795 0.000000 -0.691232 0.000000 0.000000 0.000000
    29 0.074449 -0.000001 -1.122813 0.000000 0.000000 0.000000
    30 0.163631 -0.000001 -1.606582 0.000000 0.000000 0.000000
    31 0.204285 -0.000001 -2.038164 0.000000 0.000000 0.000000
    32 0.293468 -0.000001 -2.502457 0.000000 0.000000 0.000000
    33 0.334122 -0.000002 -2.934039 0.000000 0.000000 0.000000
    34 1.745955 -0.009690 0.758464 0.000000 0.924979 0.000000
    35 -1.761922 -0.009689 0.390344 0.000000 0.000002 0.000000
    36 -1.187037 -0.009688 1.460376 0.000000 0.000002 0.000000
    37 4.801971 0.103726 -2.114019 0.363564 1.106851 1.589080
    38 5.852483 -8.971489 -5.162615 3.126990 -0.376455 -1.452412
    39 5.511815 0.000008 -0.000001 2.243089 -0.002559 -3.140365
    40 0.196847 -0.000001 0.000003 2.793407 0.000006 -3.141577
    41 0.807443 -10.032941 -1.488978 1.975862 1.159909 1.842803
    42 6.214485 0.000006 0.000020 -0.313514 0.662349 -1.411489
    43 11.944885 -0.000029 -0.000194 0.265790 -0.341185 -1.795985
    44 10.620166 0.000002 0.000010 -1.841067 -0.399752 0.664998
    45 4.751156 0.694376 -0.830473 -0.056027 -0.279243 0.546140
    46 1.688065 -0.000026 0.000002 0.015442 -0.019381 0.766007
    47 1.336151 -0.000051 -0.000009 -0.010043 -0.037445 0.633226
    48 4.820513 0.509340 0.224865 -0.386429 -0.322196 1.316427
    49 1.826996 0.000066 0.000008 0.005321 0.040178 1.405668
    50 1.436577 -0.000010 0.000007 0.005509 -0.014156 0.470048
    51 3.992353 0.891087 1.827994 -0.589400 -0.174415 1.370414
    52 1.405918 0.000021 -0.000007 -0.015915 -0.024880 1.444709
    53 1.175369 -0.000131 0.000002 0.073142 0.099350 0.591204
    54 4.526756 0.690460 1.120842 -0.530377 -0.216776 1.477861
    55 1.744041 -0.000031 -0.000002 -0.010579 -0.012013 1.526981
    56 1.368763 -0.000031 -0.000017 -0.042347 0.136481 0.277545
    57 1.864258 0.949707 -0.985352 2.145451 0.467298 1.111593
    58 1.523449 -0.000034 -0.000003 -0.460263 -0.057080 0.780242
    59 1.599281 -0.000002 0.000009 0.079853 -0.024538 1.123918
    60 4.593750 2.167969 -1.036133 -3.095831 0.294358 -2.768497
    61 0.084803 -0.018744 1.059232 0.000000 0.000000 0.000000
    62 -0.051860 0.000000 0.223938 0.000000 0.000000 0.000000
    63 -0.011209 0.000000 -0.207645 0.000000 0.000000 0.000000
    64 0.033796 0.000000 -0.691233 0.000000 0.000000 0.000000
    65 0.074449 0.000000 -1.122816 0.000000 0.000000 0.000000
    66 0.163633 0.000000 -1.606585 0.000000 0.000000 0.000000
    67 0.204287 0.000000 -2.038168 0.000000 0.000000 0.000000
    68 0.293470 0.000000 -2.502461 0.000000 0.000000 0.000000
    69 0.334124 0.000000 -2.934044 0.000000 0.000000 0.000000
    70 1.745956 -0.009689 0.758467 0.000000 0.924976 0.000000
    71 -1.761920 -0.009688 0.390344 0.000000 0.000000 0.000000
    72 -1.187037 -0.009689 1.460379 0.000000 0.000000 0.000000
    73 5.511806 -0.000002 0.000006 -0.235797 0.000005 0.000007
    74 0.196850 0.000003 -0.000002 -0.348225 0.000015 -0.000002
    75 0.000000 0.000000 0.000000 0.000000 0.000000 -1.570796
  time 6
    0 -0.000001 7.449219 -27.500000 0.000000 0.000000 -0.000001
    1 -0.000002 0.000000 0.000000 1.570743 -1.567137 -1.570743
    2 4.255468 -0.335183 -0.000002 0.000000 0.000000 -0.124848
    3 7.431248 1.496477 0.000002 0.000000 0.000000 0.245450
    4 5.278479 0.165541 0.000001 0.000000 0.000000 0.048511
    5 1.592623 -9.548551 1.488977 1.975864 1.159909 -1.298786
    6 -6.214482 -0.000007 -0.000027 3.788798 -0.441308 1.238927
    7 11.944882 0.000000 0.000001 -0.155610 -0.342912 1.370949
    8 10.620181 0.000002 0.000000 1.473968 0.507370 2.380442
    9 -4.751106 -0.694494 0.830577 -0.121582 -0.098373 0.576381
    10 -1.688068 0.000046 -0.000032 0.020236 -0.014295 0.482895
    11 -1.336140 0.000057 -0.000012 0.025444 0.007037 0.284039
    12 -4.820494 -0.509460 -0.224759 -0.374677 -0.149495 1.278524
    13 -1.826992 -0.000064 0.000006 -0.001732 0.040491 1.231086
    14 -1.436573 0.000006 0.000002 -0.060148 -0.049398 0.791678
    15 -3.992355 -0.891188 -1.827909 -0.548967 -0.025839 1.134483
    16 -1.405918 -0.000025 -0.000003 -0.005060 -0.029092 1.047914
    17 -1.175358 0.000128 -0.000020 0.064497 0.021484 1.153057
    18 -4.526751 -0.690575 -1.120744 -0.485918 -0.012814 1.413547
    19 -1.744038 0.000033 -0.000008 -0.022778 -0.018929 1.288461
    20 -1.368771 0.000025 0.000002 0.038009 0.036257 0.704431
    21 -1.718750 -1.282227 0.931152 1.989947 0.630795 0.833742
    22 -1.523453 0.000032 0.000031 -0.191004 0.111963 0.751915
    23 -1.599285 0.000004 0.000016 -0.076437 -0.043104 0.827086
    24 -4.652344 -2.087891 1.227539 -0.144563 -0.177731 0.461587
    25 0.084805 -0.018744 1.059229 0.000000 0.000002 0.000000
    26 -0.051861 0.000000 0.223938 0.000000 0.000000 0.000000
    27 -0.011209 0.000000 -0.207644 0.000000 0.000000 0.000000
    28 0.033795 0.000000 -0.691232 0.000000 0.000000 0.000000
    29 0.074449 -0.000001 -1.122813 0.000000 0.000000 0.000000
    30 0.163631 -0.000001 -1.606582 0.000000 0.000000 0.000000
    31 0.204285 -0.000001 -2.038164 0.000000 0.000000 0.000000
    32 0.293468 -0.000001 -2.502457 0.000000 0.000000 0.000000
    33 0.334122 -0.000002 -2.934039 0.000000 0.000000 0.000000
    34 1.745955 -0.009690 0.758464 0.000000 0.924979 0.000000
    35 -1.761922 -0.009689 0.390344 0.000000 0.000002 0.000000
    36 -1.187037 -0.009688 1.460376 0.000000 0.000002 0.000000
    37 4.801971 0.103726 -2.114019 0.363564 1.106851 1.589080
    38 5.993112 -8.783984 -4.041487 2.945107 -0.741663 -1.388416
    39 5.511815 0.000008 -0.000001 2.243089 -0.002559 -3.140365
    40 0.196847 -0.000001 0.000003 2.793407 0.000006 -3.141577
    41 1.592623 -9.548551 -1.488978 1.975862 1.159909 1.842803
    42 6.214485 0.000006 0.000020 -0.202334 0.578003 -1.435457
    43 11.944885 -0.000029 -0.000194 0.413928 -0.349239 -1.594875
    44 10.620166 0.000002 0.000010 -2.012522 -0.293753 0.697495
    45 4.751156 0.694376 -0.830473 -0.056027 -0.279243 0.546140
    46 1.688065 -0.000026 0.000002 0.015442 -0.019381 0.766007
    47 1.336151 -0.000051 -0.000009 -0.010043 -0.037445 0.633226
    48 4.820513 0.509340 0.224865 -0.386429 -0.322196 1.316427
    49 1.826996 0.000066 0.000008 0.005321 0.040178 1.405668
    50 1.436577 -0.000010 0.000007 0.005509 -0.014156 0.470048
    51 3.992353 0.891087 1.827994 -0.589400 -0.174415 1.370414
    52 1.405918 0.000021 -0.000007 -0.015915 -0.024880 1.444709
    53 1.175369 -0.000131 0.000002 0.073142 0.099350 0.591204
    54 4.526756 0.690460 1.120842 -0.530377 -0.216776 1.477861
    55 1.744041 -0.000031 -0.000002 -0.010579 -0.012013 1.526981
    56 1.368763 -0.000031 -0.000017 -0.042347 0.136481 0.277545
    57 1.864258 0.949707 -0.985352 2.145451 0.467298 1.111593
    58 1.523449 -0.000034 -0.000003 -0.460263 -0.057080 0.780242
    59 1.599281 -0.000002 0.000009 0.079853 -0.024538 1.123918
    60 4.593750 2.167969 -1.036133 -3.095831 0.294358 -2.768497
    61 0.084803 -0.018744 1.059232 0.000000 0.000000 0.000000
    62 -0.051860 0.000000 0.223938 0.000000 0.000000 0.000000
    63 -0.011209 0.000000 -0.207645 0.000000 0.000000 0.000000
    64 0.033796 0.000000 -0.691233 0.000000 0.000000 0.000000
    65 0.074449 0.000000 -1.122816 0.000000 0.000000 0.000000
    66 0.163633 0.000000 -1.606585 0.000000 0.000000 0.000000
    67 0.204287 0.000000 -2.038168 0.000000 0.000000 0.000000
    68 0.293470 0.000000 -2.502461 0.000000 0.000000 0.000000
    69 0.334124 0.000000 -2.934044 0.000000 0.000000 0.000000
    70 1.745956 -0.009689 0.758467 0.000000 0.924976 0.000000
    71 -1.761920 -0.009688 0.390344 0.000000 0.000000 0.000000
    72 -1.187037 -0.009689 1.460379 0.000000 0.000000 0.000000
    73 5.511806 -0.000002 0.000006 -0.235797 0.000005 0.000007
    74 0.196850 0.000003 -0.000002 -0.348225 0.000015 -0.000002
    75 0.000000 0.000000 0.000000 0.000000 0.000000 -1.570796
  time 7
    0 -0.000001 7.449219 -27.500000 0.000000 0.000000 -0.000001
    1 -0.000002 0.000000 0.000000 1.570743 -1.567137 -1.570743
    2 4.255468 -0.335183 -0.000002 0.000000 0.000000 -0.124848
    3 7.431248 1.496477 0.000002 0.000000 0.000000 0.245450
    4 5.278479 0.165541 0.000001 0.000000 0.000000 0.048511
    5 2.311394 -9.103225 1.488977 1.975864 1.159909 -1.298786
    6 -6.214482 -0.000007 -0.000027 3.660558 -0.338776 1.267984
    7 11.944882 0.000000 0.000001 -0.093159 -0.324995 1.180954
    8 10.620181 0.000002 0.000000 1.485387 0.440297 2.386645
    9 -4.751106 -0.694494 0.830577 -0.121582 -0.098373 0.576381
    10 -1.688068 0.000046 -0.000032 0.020236 -0.014295 0.482895
    11 -1.336140 0.000057 -0.000012 0.025444 0.007037 0.284039
    12 -4.820494 -0.509460 -0.224759 -0.374677 -0.149495 1.278524
    13 -1.826992 -0.000064 0.000006 -0.001732 0.040491 1.231086
    14 -1.436573 0.000006 0.000002 -0.060148 -0.049398 0.791678
    15 -3.992355 -0.891188 -1.827909 -0.548967 -0.025839 1.134483
    16 -1.405918 -0.000025 -0.000003 -0.005060 -0.029092 1.047914
    17 -1.175358 0.000128 -0.000020 0.064497 0.021484 1.153057
    18 -4.526751 -0.690575 -1.120744 -0.485918 -0.012814 1.413547
    19 -1.744038 0.000033 -0.000008 -0.022778 -0.018929 1.288461
    20 -1.368771 0.000025 0.000002 0.038009 0.036257 0.704431
    21 -1.718750 -1.282227 0.931152 1.989947 0.630795 0.833742
    22 -1.523453 0.000032 0.000031 -0.191004 0.111963 0.751915
    23 -1.599285 0.000004 0.000016 -0.076437 -0.043104 0.827086
    24 -4.652344 -2.087891 1.227539 -0.144563 -0.177731 0.461587
    25 0.084805 -0.018744 1.059229 0.000000 0.000002 0.000000
    26 -0.051861 0.000000 0.223938 0.000000 0.000000 0.000000
    27 -0.011209 0.000000 -0.207644 0.000000 0.000000 0.000000
    28 0.033795 0.000000 -0.691232 0.000000 0.000000 0.000000
    29 0.074449 -0.000001 -1.122813 0.000000 0.000000 0.000000
    30 0.163631 -0.000001 -1.606582 0.000000 0.000000 0.000000
    31 0.204285 -0.000001 -2.038164 0.000000 0.000000 0.000000
    32 0.293468 -0.000001 -2.502457 0.000000 0.000000 0.000000
    33 0.334122 -0.000002 -2.934039 0.000000 0.000000 0.000000
    34 1.745955 -0.009690 0.758464 0.000000 0.924979 0.000000
    35 -1.761922 -0.009689 0.390344 0.000000 0.000002 0.000000
    36 -1.187037 -0.009688 1.460376 0.000000 0.000002 0.000000
    37 4.801971 0.103726 -2.114019 0.363564 1.106851 1.589080
    38 5.688415 -8.424598 -3.412561 2.730450 -1.016198 -1.226096
    39 5.511815 0.000008 -0.000001 2.243089 -0.002559 -3.140365
    40 0.196847 -0.000001 0.000003 2.793407 0.000006 -3.141577
    41 2.311395 -9.103225 -1.488978 1.975862 1.159909 1.842803
    42 6.214485 0.000006 0.000020 -0.175045 0.538621 -1.513470
    43 11.944885 -0.000029 -0.000194 0.559019 -0.345152 -1.409675
    44 10.620166 0.000002 0.000010 -2.126506 -0.196303 0.683861
    45 4.751156 0.694376 -0.830473 -0.056027 -0.279243 0.546140
    46 1.688065 -0.000026 0.000002 0.015442 -0.019381 0.766007
    47 1.336151 -0.000051 -0.000009 -0.010043 -0.037445 0.633226
    48 4.820513 0.509340 0.224865 -0.386429 -0.322196 1.316427
    49 1.826996 0.000066 0.000008 0.005321 0.040178 1.405668
    50 1.436577 -0.000010 0.000007 0.005509 -0.014156 0.470048
    51 3.992353 0.891087 1.827994 -0.589400 -0.174415 1.370414
    52 1.405918 0.000021 -0.000007 -0.015915 -0.024880 1.444709
    53 1.175369 -0.000131 0.000002 0.073142 0.099350 0.591204
    54 4.526756 0.690460 1.120842 -0.530377 -0.216776 1.477861
    55 1.744041 -0.000031 -0.000002 -0.010579 -0.012013 1.526981
    56 1.368763 -0.000031 -0.000017 -0.042347 0.136481 0.277545
    57 1.864258 0.949707 -0.985352 2.145451 0.467298 1.111593
    58 1.523449 -0.000034 -0.000003 -0.460263 -0.057080 0.780242
    59 1.599281 -0.000002 0.000009 0.079853 -0.024538 1.123918
    60 4.593750 2.167969 -1.036133 -3.095831 0.294358 -2.768497
    61 0.084803 -0.018744 1.059232 0.000000 0.000000 0.000000
    62 -0.051860 0.000000 0.223938 0.000000 0.000000 0.000000
    63 -0.011209 0.000000 -0.207645 0.000000 0.000000 0.000000
    64 0.033796 0.000000 -0.691233 0.000000 0.000000 0.000000
    65 0.074449 0.000000 -1.122816 0.000000 0.000000 0.000000
    66 0.163633 0.000000 -1.606585 0.000000 0.000000 0.000000
    67 0.204287 0.000000 -2.038168 0.000000 0.000000 0.000000
    68 0.293470 0.000000 -2.502461 0.000000 0.000000 0.000000
    69 0.334124 0.000000 -2.934044 0.000000 0.000000 0.000000
    70 1.745956 -0.009689 0.758467 0.000000 0.924976 0.000000
    71 -1.761920 -0.009688 0.390344 0.000000 0.000000 0.000000
    72 -1.187037 -0.009689 1.460379 0.000000 0.000000 0.000000
    73 5.511806 -0.000002 0.000006 -0.235797 0.000005 0.000007
    74 0.196850 0.000003 -0.000002 -0.348225 0.000015 -0.000002
    75 0.000000 0.000000 0.000000 0.000000 0.000000 -1.570796
  time 8
    0 -0.000001 7.449219 -27.500000 0.000000 0.000000 -0.000001
    1 -0.000002 0.000000 0.000000 1.570743 -1.567137 -1.570743
    2 4.255468 -0.335183 -0.000002 0.000000 0.000000 -0.124848
    3 7.431248 1.496477 0.000002 0.000000 0.000000 0.245450
    4 5.278479 0.165541 0.000001 0.000000 0.000000 0.048511
    5 2.905163 -8.739932 1.488977 1.975864 1.159909 -1.298786
    6 -6.214482 -0.000007 -0.000027 3.484391 -0.272436 1.330063
    7 11.944882 0.000000 0.000001 -0.077791 -0.318596 1.132417
    8 10.620181 0.000002 0.000000 1.382980 0.390010 2.328013
    9 -4.751106 -0.694494 0.830577 -0.121582 -0.098373 0.576381
    10 -1.688068 0.000046 -0.000032 0.020236 -0.014295 0.482895
    11 -1.336140 0.000057 -0.000012 0.025444 0.007037 0.284039
    12 -4.820494 -0.509460 -0.224759 -0.374677 -0.149495 1.278524
    13 -1.826992 -0.000064 0.000006 -0.001732 0.040491 1.231086
    14 -1.436573 0.000006 0.000002 -0.060148 -0.049398 0.791678
    15 -3.992355 -0.891188 -1.827909 -0.548967 -0.025839 1.134483
    16 -1.405918 -0.000025 -0.000003 -0.005060 -0.029092 1.047914
    17 -1.175358 0.000128 -0.000020 0.064497 0.021484 1.153057
    18 -4.526751 -0.690575 -1.120744 -0.485918 -0.012814 1.413547
    19 -1.744038 0.000033 -0.000008 -0.022778 -0.018929 1.288461
    20 -1.368771 0.000025 0.000002 0.038009 0.036257 0.704431
    21 -1.718750 -1.282227 0.931152 1.989947 0.630795 0.833742
    22 -1.523453 0.000032 0.000031 -0.191004 0.111963 0.751915
    23 -1.599285 0.000004 0.000016 -0.076437 -0.043104 0.827086
    24 -4.652344 -2.087891 1.227539 -0.144563 -0.177731 0.461587
    25 0.084805 -0.018744 1.059229 0.000000 0.000002 0.000000
    26 -0.051861 0.000000 0.223938 0.000000 0.000000 0.000000
    27 -0.011209 0.000000 -0.207644 0.000000 0.000000 0.000000
    28 0.033795 0.000000 -0.691232 0.000000 0.000000 0.000000
    29 0.074449 -0.000001 -1.122813 0.000000 0.000000 0.000000
    30 0.163631 -0.000001 -1.606582 0.000000 0.000000 0.000000
    31 0.204285 -0.000001 -2.038164 0.000000 0.000000 0.000000
    32 0.293468 -0.000001 -2.502457 0.000000 0.000000 0.000000
    33 0.334122 -0.000002 -2.934039 0.000000 0.000000 0.000000
    34 1.745955 -0.009690 0.758464 0.000000 0.924979 0.000000
    35 -1.761922 -0.009689 0.390344 0.000000 0.000002 0.000000
    36 -1.187037 -0.009688 1.460376 0.000000 0.000002 0.000000
    37 4.801971 0.103726 -2.114019 0.363564 1.106816 1.589080
    38 5.012613 -7.967553 -3.150835 2.503240 -1.168921 -1.018514
    39 5.511815 0.000008 -0.000001 2.243089 -0.002559 -3.140365
    40 0.196847 -0.000001 0.000003 2.793407 0.000006 -3.141577
    41 2.905163 -8.739932 -1.488978 1.975862 1.159909 1.842803
    42 6.214485 0.000006 0.000020 -0.195644 0.525401 -1.601017
    43 11.944885 -0.000029 -0.000194 0.682790 -0.333336 -1.255058
    44 10.620166 0.000002 0.000010 -2.202259 -0.133574 0.646920
    45 4.751156 0.694376 -0.830473 -0.056027 -0.279243 0.546140
    46 1.688065 -0.000026 0.000002 0.015442 -0.019381 0.766007
    47 1.336151 -0.000051 -0.000009 -0.010043 -0.037445 0.633226
    48 4.820513 0.509340 0.224865 -0.386429 -0.322196 1.316427
    49 1.826996 0.000066 0.000008 0.005321 0.040178 1.405668
    50 1.436577 -0.000010 0.000007 0.005509 -0.014156 0.470048
    51 3.992353 0.891087 1.827994 -0.589400 -0.174415 1.370414
    52 1.405918 0.000021 -0.000007 -0.015915 -0.024880 1.444709
    53 1.175369 -0.000131 0.000002 0.073142 0.099350 0.591204
    54 4.526756 0.690460 1.120842 -0.530377 -0.216776 1.477861
    55 1.744041 -0.000031 -0.000002 -0.010579 -0.012013 1.526981
    56 1.368763 -0.000031 -0.000017 -0.042347 0.136481 0.277545
    57 1.864258 0.949707 -0.985352 2.145451 0.467298 1.111593
    58 1.523449 -0.000034 -0.000003 -0.460263 -0.057080 0.780242
    59 1.599281 -0.000002 0.000009 0.079853 -0.024538 1.123918
    60 4.593750 2.167969 -1.036133 -3.095831 0.294358 -2.768497
    61 0.084803 -0.018744 1.059232 0.000000 0.000000 0.000000
    62 -0.051860 0.000000 0.223938 0.000000 0.000000 0.000000
    63 -0.011209 0.000000 -0.207645 0.000000 0.000000 0.000000
    64 0.033796 0.000000 -0.691233 0.000000 0.000000 0.000000
    65 0.074449 0.000000 -1.122816 0.000000 0.000000 0.000000
    66 0.163633 0.000000 -1.606585 0.000000 0.000000 0.000000
    67 0.204287 0.000000 -2.038168 0.000000 0.000000 0.000000
    68 0.293470 0.000000 -2.502461 0.000000 0.000000 0.000000
    69 0.334124 0.000000 -2.934044 0.000000 0.000000 0.000000
    70 1.745956 -0.009689 0.758467 0.000000 0.924976 0.000000
    71 -1.761920 -0.009688 0.390344 0.000000 0.000000 0.000000
    72 -1.187037 -0.009689 1.460379 0.000000 0.000000 0.000000
    73 5.511806 -0.000002 0.000006 -0.235797 0.000005 0.000007
    74 0.196850 0.000003 -0.000002 -0.348225 0.000015 -0.000002
    75 0.000000 0.000000 0.000000 0.000000 0.000000 -1.570796
  time 9
    0 -0.000001 7.449219 -27.500000 0.000000 0.000000 -0.000001
    1 -0.000002 0.000000 0.000000 1.570743 -1.567137 -1.570743
    2 4.255468 -0.335183 -0.000002 0.000000 0.000000 -0.124848
    3 7.431248 1.496477 0.000002 0.000000 0.000000 0.245450
    4 5.278479 0.165541 0.000001 0.000000 0.000000 0.048511
    5 3.307519 -8.489925 1.488977 1.975864 1.159909 -1.298786
    6 -6.214482 -0.000007 -0.000027 3.330873 -0.214168 1.372380
    7 11.944882 0.000000 0.000001 -0.066599 -0.313370 1.096407
    8 10.620181 0.000002 0.000000 1.249420 0.356364 2.281187
    9 -4.751106 -0.694494 0.830577 -0.121582 -0.098373 0.576381
    10 -1.688068 0.000046 -0.000032 0.020236 -0.014295 0.482895
    11 -1.336140 0.000057 -0.000012 0.025444 0.007037 0.284039
    12 -4.820494 -0.509460 -0.224759 -0.374677 -0.149495 1.278524
    13 -1.826992 -0.000064 0.000006 -0.001732 0.040491 1.231086
    14 -1.436573 0.000006 0.000002 -0.060148 -0.049398 0.791710
    15 -3.992355 -0.891188 -1.827909 -0.548967 -0.025839 1.134483
    16 -1.405918 -0.000025 -0.000003 -0.005060 -0.029092 1.047914
    17 -1.175358 0.000128 -0.000020 0.064497 0.021484 1.153057
    18 -4.526751 -0.690575 -1.120744 -0.485918 -0.012814 1.413547
    19 -1.744038 0.000033 -0.000008 -0.022778 -0.018929 1.288461
    20 -1.368771 0.000025 0.000002 0.038009 0.036257 0.704431
    21 -1.718750 -1.282227 0.931152 1.989947 0.630795 0.833742
    22 -1.523453 0.000032 0.000031 -0.191004 0.111963 0.751915
    23 -1.599285 0.000004 0.000016 -0.076437 -0.043104 0.827086
    24 -4.652344 -2.087891 1.227539 -0.144563 -0.177731 0.461587
    25 0.084805 -0.018744 1.059229 0.000000 0.000002 0.000000
    26 -0.051861 0.000000 0.223938 0.000000 0.000000 0.000000
    27 -0.011209 0.000000 -0.207644 0.000000 0.000000 0.000000
    28 0.033795 0.000000 -0.691232 0.000000 0.000000 0.000000
    29 0.074449 -0.000001 -1.122813 0.000000 0.000000 0.000000
    30 0.163631 -0.000001 -1.606582 0.000000 0.000000 0.000000
    31 0.204285 -0.000001 -2.038164 0.000000 0.000000 0.000000
    32 0.293468 -0.000001 -2.502457 0.000000 0.000000 0.000000
    33 0.334122 -0.000002 -2.934039 0.000000 0.000000 0.000000
    34 1.745955 -0.009690 0.758464 0.000000 0.924979 0.000000
    35 -1.761922 -0.009689 0.390344 0.000000 0.000002 0.000000
    36 -1.187037 -0.009688 1.460376 0.000000 0.000002 0.000000
    37 4.801971 0.103726 -2.114019 0.363564 1.106851 1.589080
    38 4.700104 -7.522226 -3.088333 2.322219 -1.237692 -0.845640
    39 5.511815 0.000008 -0.000001 2.243089 -0.002559 -3.140365
    40 0.196847 -0.000001 0.000003 2.793407 0.000006 -3.141577
    41 3.307519 -8.489925 -1.488978 1.975862 1.159909 1.842803
    42 6.214485 0.000006 0.000020 -0.211049 0.514200 -1.663388
    43 11.944885 -0.000029 -0.000194 0.768156 -0.320848 -1.148950
    44 10.620166 0.000002 0.000010 -2.263922 -0.102997 0.622744
    45 4.751156 0.694376 -0.830473 -0.056027 -0.279243 0.546140
    46 1.688065 -0.000026 0.000002 0.015442 -0.019381 0.766007
    47 1.336151 -0.000051 -0.000009 -0.010043 -0.037445 0.633226
    48 4.820513 0.509340 0.224865 -0.386429 -0.322196 1.316427
    49 1.826996 0.000066 0.000008 0.005321 0.040178 1.405668
    50 1.436577 -0.000010 0.000007 0.005509 -0.014156 0.470048
    51 3.992353 0.891087 1.827994 -0.589400 -0.174415 1.370414
    52 1.405918 0.000021 -0.000007 -0.015915 -0.024880 1.444709
    53 1.175369 -0.000131 0.000002 0.073142 0.099350 0.591204
    54 4.526756 0.690460 1.120842 -0.530377 -0.216776 1.477861
    55 1.744041 -0.000031 -0.000002 -0.010579 -0.012013 1.526981
    56 1.368763 -0.000031 -0.000017 -0.042347 0.136481 0.277545
    57 1.864258 0.949707 -0.985352 2.145451 0.467298 1.111593
    58 1.523449 -0.000034 -0.000003 -0.460263 -0.057080 0.780242
    59 1.599281 -0.000002 0.000009 0.079853 -0.024538 1.123918
    60 4.593750 2.167969 -1.036133 -3.095831 0.294358 -2.768497
    61 0.084803 -0.018744 1.059232 0.000000 0.000000 0.000000
    62 -0.051860 0.000000 0.223938 0.000000 0.000000 0.000000
    63 -0.011209 0.000000 -0.207645 0.000000 0.000000 0.000000
    64 0.033796 0.000000 -0.691233 0.000000 0.000000 0.000000
    65 0.074449 0.000000 -1.122816 0.000000 0.000000 0.000000
    66 0.163633 0.000000 -1.606585 0.000000 0.000000 0.000000
    67 0.204287 0.000000 -2.038168 0.000000 0.000000 0.000000
    68 0.293470 0.000000 -2.502461 0.000000 0.000000 0.000000
    69 0.334124 0.000000 -2.934044 0.000000 0.000000 0.000000
    70 1.745956 -0.009689 0.758467 0.000000 0.924976 0.000000
    71 -1.761920 -0.009688 0.390344 0.000000 0.000000 0.000000
    72 -1.187037 -0.009689 1.460379 0.000000 0.000000 0.000000
    73 5.511806 -0.000002 0.000006 -0.235797 0.000005 0.000007
    74 0.196850 0.000003 -0.000002 -0.348225 0.000015 -0.000002
    75 0.000000 0.000000 0.000000 0.000000 0.000000 -1.570796
  time 10
    0 -0.000001 7.449219 -27.500000 0.000000 0.000000 -0.000001
    1 -0.000002 0.000000 0.000000 1.570743 -1.567137 -1.570743
    2 4.255468 -0.335183 -0.000002 0.000000 0.000000 -0.124848
    3 7.431248 1.496477 0.000002 0.000000 0.000000 0.245450
    4 5.278479 0.165541 0.000001 0.000000 0.000000 0.048511
    5 3.455961 -8.400078 1.488977 1.975864 1.159909 -1.298786
    6 -6.214482 -0.000007 -0.000027 3.266419 -0.189674 1.386876
    7 11.944882 0.000000 0.000001 -0.062325 -0.311249 1.082494
    8 10.620181 0.000002 0.000000 1.184513 0.343792 2.261909
    9 -4.751106 -0.694494 0.830577 -0.121582 -0.098373 0.576381
    10 -1.688068 0.000046 -0.000032 0.020236 -0.014295 0.482895
    11 -1.336140 0.000057 -0.000012 0.025444 0.007037 0.284039
    12 -4.820494 -0.509460 -0.224759 -0.374677 -0.149495 1.278524
    13 -1.826992 -0.000064 0.000006 -0.001732 0.040491 1.231086
    14 -1.436573 0.000006 0.000002 -0.060148 -0.049398 0.791678
    15 -3.992355 -0.891188 -1.827909 -0.548967 -0.025839 1.134483
    16 -1.405918 -0.000025 -0.000003 -0.005060 -0.029092 1.047914
    17 -1.175358 0.000128 -0.000020 0.064497 0.021484 1.153057
    18 -4.526751 -0.690575 -1.120744 -0.485918 -0.012814 1.413547
    19 -1.744038 0.000033 -0.000008 -0.022778 -0.018929 1.288461
    20 -1.368771 0.000025 0.000002 0.038009 0.036257 0.704431
    21 -1.718750 -1.282227 0.931152 1.989947 0.630795 0.833742
    22 -1.523453 0.000032 0.000031 -0.191004 0.111963 0.751915
    23 -1.599285 0.000004 0.000016 -0.076437 -0.043104 0.827086
    24 -4.652344 -2.087891 1.227539 -0.144563 -0.177731 0.461587
    25 0.084805 -0.018744 1.059229 0.000000 0.000002 0.000000
    26 -0.051861 0.000000 0.223938 0.000000 0.000000 0.000000
    27 -0.011209 0.000000 -0.207644 0.000000 0.000000 0.000000
    28 0.033795 0.000000 -0.691232 0.000000 0.000000 0.000000
    29 0.074449 -0.000001 -1.122813 0.000000 0.000000 0.000000
    30 0.163631 -0.000001 -1.606582 0.000000 0.000000 0.000000
    31 0.204285 -0.000001 -2.038164 0.000000 0.000000 0.000000
    32 0.293468 -0.000001 -2.502457 0.000000 0.000000 0.000000
    33 0.334122 -0.000002 -2.934039 0.000000 0.000000 0.000000
    34 1.745955 -0.009690 0.758464 0.000000 0.924979 0.000000
    35 -1.761922 -0.009689 0.390344 0.000000 0.000002 0.000000
    36 -1.187037 -0.009688 1.460376 0.000000 0.000002 0.000000
    37 4.801971 0.103726 -2.114019 0.363564 1.106851 1.589080
    38 4.621976 -7.323002 -3.092239 2.260026 -1.256074 -0.785733
    39 5.511815 0.000008 -0.000001 2.243089 -0.002559 -3.140365
    40 0.196847 -0.000001 0.000003 2.793407 0.000006 -3.141577
    41 3.455961 -8.400078 -1.488978 1.975862 1.159909 1.842803
    42 6.214485 0.000006 0.000020 -0.216771 0.509727 -1.686685
    43 11.944885 -0.000029 -0.000194 0.799971 -0.315419 -1.110257
    44 10.620166 0.000002 0.000010 -2.288568 -0.094343 0.614554
    45 4.751156 0.694376 -0.830473 -0.056027 -0.279243 0.546140
    46 1.688065 -0.000026 0.000002 0.015442 -0.019381 0.766007
    47 1.336151 -0.000051 -0.000009 -0.010043 -0.037445 0.633226
    48 4.820513 0.509340 0.224865 -0.386429 -0.322196 1.316427
    49 1.826996 0.000066 0.000008 0.005321 0.040178 1.405668
    50 1.436577 -0.000010 0.000007 0.005509 -0.014156 0.470048
    51 3.992353 0.891087 1.827994 -0.589400 -0.174415 1.370414
    52 1.405918 0.000021 -0.000007 -0.015915 -0.024880 1.444709
    53 1.175369 -0.000131 0.000002 0.073142 0.099350 0.591204
    54 4.526756 0.690460 1.120842 -0.530377 -0.216776 1.477861
    55 1.744041 -0.000031 -0.000002 -0.010579 -0.012013 1.526981
    56 1.368763 -0.000031 -0.000017 -0.042347 0.136481 0.277545
    57 1.864258 0.949707 -0.985352 2.145451 0.467298 1.111593
    58 1.523449 -0.000034 -0.000003 -0.460263 -0.057080 0.780242
    59 1.599281 -0.000002 0.000009 0.079853 -0.024538 1.123918
    60 4.593750 2.167969 -1.036133 -3.095831 0.294358 -2.768497
    61 0.084803 -0.018744 1.059232 0.000000 0.000000 0.000000
    62 -0.051860 0.000000 0.223938 0.000000 0.000000 0.000000
    63 -0.011209 0.000000 -0.207645 0.000000 0.000000 0.000000
    64 0.033796 0.000000 -0.691233 0.000000 0.000000 0.000000
    65 0.074449 0.000000 -1.122816 0.000000 0.000000 0.000000
    66 0.163633 0.000000 -1.606585 0.000000 0.000000 0.000000
    67 0.204287 0.000000 -2.038168 0.000000 0.000000 0.000000
    68 0.293470 0.000000 -2.502461 0.000000 0.000000 0.000000
    69 0.334124 0.000000 -2.934044 0.000000 0.000000 0.000000
    70 1.745956 -0.009689 0.758467 0.000000 0.924976 0.000000
    71 -1.761920 -0.009688 0.390344 0.000000 0.000000 0.000000
    72 -1.187037 -0.009689 1.460379 0.000000 0.000000 0.000000
    73 5.511806 -0.000002 0.000006 -0.235797 0.000005 0.000007
    74 0.196850 0.000003 -0.000002 -0.348225 0.000015 -0.000002
    75 0.000000 0.000000 0.000000 0.000000 0.000000 -1.570796
end
