// Created by Crowbar 0.74
version 1
nodes
  0 "root" -1
  1 "pelvis" 0
  2 "spine_01" 1
  3 "spine_02" 2
  4 "spine_03" 3
  5 "clavicle_r" 4
  6 "upperarm_r" 5
  7 "lowerarm_r" 6
  8 "hand_r" 7
  9 "index_01_r" 8
  10 "index_02_r" 9
  11 "index_03_r" 10
  12 "middle_01_r" 8
  13 "middle_02_r" 12
  14 "middle_03_r" 13
  15 "pinky_01_r" 8
  16 "pinky_02_r" 15
  17 "pinky_03_r" 16
  18 "ring_01_r" 8
  19 "ring_02_r" 18
  20 "ring_03_r" 19
  21 "thumb_01_r" 8
  22 "thumb_02_r" 21
  23 "thumb_03_r" 22
  24 "lowerarm_twist_01_r" 7
  25 "upperarm_twist_01_r" 6
  26 "clavicle_l" 4
  27 "upperarm_l" 26
  28 "lowerarm_l" 27
  29 "hand_l" 28
  30 "index_01_l" 29
  31 "index_02_l" 30
  32 "index_03_l" 31
  33 "middle_01_l" 29
  34 "middle_02_l" 33
  35 "middle_03_l" 34
  36 "pinky_01_l" 29
  37 "pinky_02_l" 36
  38 "pinky_03_l" 37
  39 "ring_01_l" 29
  40 "ring_02_l" 39
  41 "ring_03_l" 40
  42 "thumb_01_l" 29
  43 "thumb_02_l" 42
  44 "thumb_03_l" 43
  45 "lowerarm_twist_01_l" 28
  46 "upperarm_twist_01_l" 27
  47 "cam_driver" -1
  48 "Base" -1
  49 "rhand_ikTarget" 48
  50 "lhand_ikTarget" 48
end
skeleton
  time 0
    0 0.000000 7.449219 -27.500000 0.000000 0.000000 -0.000001
    1 -0.000002 0.000000 0.000000 1.570743 -1.567137 -1.570743
    2 4.255468 -0.335183 -0.000002 0.000000 0.000000 -0.124848
    3 7.431250 1.496477 0.000002 0.000000 0.000000 0.245450
    4 5.278481 0.165541 0.000001 0.000000 0.000000 0.048511
    5 -2.352807 -14.419793 5.696138 1.975864 1.159909 -1.298786
    6 -6.214486 -0.000006 -0.000026 2.751297 0.070374 3.106736
    7 11.944885 -0.000001 -0.000002 -0.553217 -0.117914 2.810349
    8 10.620186 0.000000 0.000000 -0.001412 0.403316 2.255568
    9 -4.751106 -0.694494 0.830577 -0.036613 -0.389791 0.747231
    10 -1.688072 0.000046 -0.000031 0.021791 -0.011789 0.363766
    11 -1.336140 0.000055 -0.000012 0.023442 0.012141 0.075996
    12 -4.820496 -0.509460 -0.224760 -0.062323 -0.297117 0.875686
    13 -1.826988 -0.000069 0.000007 -0.027923 0.029382 0.513683
    14 -1.436577 0.000004 0.000001 -0.000576 -0.077818 -0.084879
    15 -3.992357 -0.891188 -1.827909 -0.266273 -0.146401 0.725315
    16 -1.405918 -0.000024 -0.000001 0.007182 -0.028630 0.630305
    17 -1.175362 0.000125 -0.000021 0.001160 0.067967 -0.079591
    18 -4.526751 -0.690573 -1.120744 -0.191453 -0.221865 0.853822
    19 -1.744041 0.000034 -0.000007 -0.009143 -0.028165 0.724780
    20 -1.368767 0.000023 0.000005 -0.250126 0.028869 -0.392608
    21 -1.874798 -0.935127 0.999174 2.677382 0.339085 1.204840
    22 -1.523453 0.000034 0.000030 -0.014368 0.008968 0.018957
    23 -1.599281 0.000004 0.000013 0.039914 0.015885 -0.398250
    24 5.511818 0.000006 -0.000001 2.243089 -0.002559 -3.140365
    25 0.196846 -0.000002 0.000002 2.793407 0.000006 -3.141577
    26 -0.985577 -19.763706 -5.504727 1.975862 1.159910 1.842803
    27 6.214489 0.000005 0.000019 -0.509539 0.431426 -1.775515
    28 11.944893 -0.000032 -0.000194 -0.018780 -0.254094 -0.793729
    29 10.620171 0.000004 0.000010 -0.791607 0.011630 0.047132
    30 4.751160 0.694376 -0.830474 -0.056763 0.023927 0.325059
    31 1.688065 -0.000027 0.000002 0.128120 -0.152971 0.079241
    32 1.336147 -0.000053 -0.000010 0.083929 -0.146338 -0.285783
    33 4.820515 0.509340 0.224865 -0.227602 -0.145633 0.325137
    34 1.827003 0.000068 0.000009 -0.037584 0.015166 0.086373
    35 1.436577 -0.000008 0.000008 0.011107 -0.010364 0.022069
    36 3.992353 0.891087 1.827995 -0.336124 -0.275056 0.359543
    37 1.405922 0.000023 -0.000009 0.013955 -0.026024 0.383420
    38 1.175365 -0.000131 0.000003 0.021231 0.121471 0.128404
    39 4.526758 0.690458 1.120842 -0.285250 -0.195737 0.415025
    40 1.744045 -0.000031 0.000000 0.009865 -0.027940 0.071270
    41 1.368763 -0.000031 -0.000018 0.036591 0.154469 0.048103
    42 1.874853 0.935081 -0.999130 1.495466 0.797439 0.199899
    43 1.523453 -0.000034 0.000000 0.038215 -0.033000 0.408779
    44 1.599281 0.000000 0.000009 0.047722 0.068589 -0.135633
    45 5.511808 -0.000002 0.000005 -0.023278 0.000004 0.000006
    46 0.196848 0.000001 -0.000002 -0.348225 0.000015 -0.000002
    47 0.000000 0.000000 0.000000 0.000000 0.000000 -1.570796
    48 -8.488672 -9.908025 -10.066401 0.084971 0.000000 1.612805
    49 3.424798 5.661613 -2.218483 0.992551 0.937509 2.528022
    50 -20.375649 -16.873545 1.180975 -5.018110 -1.449458 0.142974
  time 1
    0 0.000000 7.449219 -27.500000 0.000000 0.000000 -0.000001
    1 -0.000002 0.000000 0.000000 1.570743 -1.567137 -1.570743
    2 4.255468 -0.335183 -0.000002 0.000000 0.000000 -0.124848
    3 7.431250 1.496477 0.000002 0.000000 0.000000 0.245450
    4 5.278481 0.165541 0.000001 0.000000 0.000000 0.048511
    5 -2.380151 -14.579954 5.696138 1.975864 1.159909 -1.298786
    6 -6.214486 -0.000006 -0.000026 2.774883 0.069536 3.120174
    7 11.944885 -0.000001 -0.000002 -0.553839 -0.116080 2.815714
    8 10.620186 0.000000 0.000000 -0.005779 0.379637 2.264176
    9 -4.751106 -0.694494 0.830577 -0.036613 -0.389791 0.747231
    10 -1.688072 0.000046 -0.000031 0.021791 -0.011789 0.363766
    11 -1.336140 0.000055 -0.000012 0.023442 0.012141 0.075996
    12 -4.820496 -0.509460 -0.224760 -0.062323 -0.297117 0.875686
    13 -1.826988 -0.000069 0.000007 -0.027923 0.029382 0.513683
    14 -1.436577 0.000004 0.000001 -0.000576 -0.077818 -0.084879
    15 -3.992357 -0.891188 -1.827909 -0.266273 -0.146401 0.725315
    16 -1.405918 -0.000024 -0.000001 0.007182 -0.028630 0.630305
    17 -1.175362 0.000125 -0.000021 0.001160 0.067967 -0.079591
    18 -4.526751 -0.690573 -1.120744 -0.191453 -0.221865 0.853822
    19 -1.744041 0.000034 -0.000007 -0.009143 -0.028165 0.724780
    20 -1.368767 0.000023 0.000005 -0.250126 0.028869 -0.392608
    21 -1.874798 -0.935127 0.999174 2.677382 0.339085 1.204840
    22 -1.523453 0.000034 0.000030 -0.014368 0.008968 0.018957
    23 -1.599281 0.000004 0.000013 0.039914 0.015885 -0.398250
    24 5.511818 0.000006 -0.000001 2.243089 -0.002559 -3.140365
    25 0.196846 -0.000002 0.000002 2.793407 0.000006 -3.141577
    26 -0.954326 -19.568388 -5.504727 1.975862 1.159910 1.842803
    27 6.214489 0.000005 0.000019 -0.421053 0.556520 -1.640078
    28 11.944893 -0.000032 -0.000194 0.091296 -0.324263 -1.175201
    29 10.620171 0.000004 0.000010 -0.807245 0.046236 0.233307
    30 4.751160 0.694376 -0.830474 -0.055253 0.023519 0.326929
    31 1.688065 -0.000027 0.000002 0.126934 -0.152492 0.085735
    32 1.336147 -0.000053 -0.000010 0.078236 -0.148770 -0.225807
    33 4.820515 0.509340 0.224865 -0.226308 -0.145057 0.329464
    34 1.827003 0.000068 0.000009 -0.037488 0.015406 0.092518
    35 1.436577 -0.000008 0.000008 0.010005 -0.011431 0.123263
    36 3.992353 0.891087 1.827995 -0.338257 -0.276416 0.366815
    37 1.405922 0.000023 -0.000009 0.012421 -0.026791 0.441682
    38 1.175365 -0.000131 0.000003 0.026049 0.120536 0.168351
    39 4.526758 0.690458 1.120842 -0.285545 -0.199057 0.421188
    40 1.744045 -0.000031 0.000000 0.009649 -0.028011 0.079021
    41 1.368763 -0.000031 -0.000018 0.047401 0.151521 0.119037
    42 1.874853 0.935081 -0.999130 1.472078 0.792873 0.201797
    43 1.523453 -0.000034 0.000000 0.038215 -0.033000 0.408779
    44 1.599281 0.000000 0.000009 0.048261 0.068206 -0.127700
    45 5.511808 -0.000002 0.000005 -0.023278 0.000004 0.000006
    46 0.196848 0.000001 -0.000002 -0.348225 0.000015 -0.000002
    47 0.000000 0.000000 0.000000 0.000000 0.000000 -1.570796
    48 -8.488672 -9.993965 -10.019524 0.088718 -0.003385 1.612720
    49 3.424798 5.661613 -2.218483 0.992551 0.937509 2.528022
    50 -18.066985 -17.002455 1.274728 -5.026330 -1.444073 0.135503
  time 2
    0 0.000000 7.449219 -27.500000 0.000000 0.000000 -0.000001
    1 -0.000002 0.000000 0.000000 1.570743 -1.567137 -1.570743
    2 4.255468 -0.335183 -0.000002 0.000000 0.000000 -0.124848
    3 7.431250 1.496477 0.000002 0.000000 0.000000 0.245450
    4 5.278481 0.165541 0.000001 0.000000 0.000000 0.048511
    5 -2.458279 -15.036999 5.696138 1.975864 1.159909 -1.298786
    6 -6.214486 -0.000006 -0.000026 2.863612 0.061650 3.141402
    7 11.944885 -0.000001 -0.000002 -0.554782 -0.113288 2.823932
    8 10.620186 0.000000 0.000000 -0.019503 0.286368 2.283885
    9 -4.751106 -0.694494 0.830577 -0.036613 -0.389791 0.747231
    10 -1.688072 0.000046 -0.000031 0.021791 -0.011789 0.363766
    11 -1.336140 0.000055 -0.000012 0.023442 0.012141 0.075996
    12 -4.820496 -0.509460 -0.224760 -0.062323 -0.297117 0.875686
    13 -1.826988 -0.000069 0.000007 -0.027923 0.029382 0.513683
    14 -1.436577 0.000004 0.000001 -0.000576 -0.077818 -0.084879
    15 -3.992357 -0.891188 -1.827909 -0.266273 -0.146401 0.725315
    16 -1.405918 -0.000024 -0.000001 0.007182 -0.028630 0.630305
    17 -1.175362 0.000125 -0.000021 0.001160 0.067967 -0.079591
    18 -4.526751 -0.690573 -1.120744 -0.191453 -0.221865 0.853822
    19 -1.744041 0.000034 -0.000007 -0.009143 -0.028165 0.724780
    20 -1.368767 0.000023 0.000005 -0.250126 0.028869 -0.392608
    21 -1.874798 -0.935127 0.999174 2.677382 0.339085 1.204840
    22 -1.523453 0.000034 0.000030 -0.014368 0.008968 0.018957
    23 -1.599281 0.000004 0.000013 0.039914 0.015885 -0.398250
    24 5.511818 0.000006 -0.000001 2.243089 -0.002559 -3.140365
    25 0.196846 -0.000002 0.000002 2.793407 0.000006 -3.141577
    26 -0.864479 -19.029309 -5.504727 1.975862 1.159910 1.842803
    27 6.214489 0.000005 0.000019 -0.289732 0.616738 -1.501601
    28 11.944893 -0.000032 -0.000194 0.187320 -0.347513 -1.464643
    29 10.620171 0.000004 0.000010 -0.866897 0.067502 0.349591
    30 4.751160 0.694376 -0.830474 -0.050915 0.022345 0.332298
    31 1.688065 -0.000027 0.000002 0.123542 -0.151065 0.104255
    32 1.336147 -0.000053 -0.000010 0.071740 -0.149334 -0.166099
    33 4.820515 0.509340 0.224865 -0.222593 -0.143452 0.341861
    34 1.827003 0.000068 0.000009 -0.037213 0.016065 0.110167
    35 1.436577 -0.000008 0.000008 0.008902 -0.012306 0.215185
    36 3.992353 0.891087 1.827995 -0.343626 -0.273907 0.385344
    37 1.405922 0.000023 -0.000009 0.010827 -0.027474 0.500306
    38 1.175365 -0.000131 0.000003 0.030771 0.119422 0.207801
    39 4.526758 0.690458 1.120842 -0.285925 -0.199764 0.436508
    40 1.744045 -0.000031 0.000000 0.009026 -0.028215 0.101355
    41 1.368763 -0.000031 -0.000018 0.056893 0.148249 0.182545
    42 1.874853 0.935081 -0.999130 1.456890 0.785155 0.211871
    43 1.523453 -0.000034 0.000000 0.038215 -0.033000 0.408779
    44 1.599281 0.000000 0.000009 0.049783 0.067115 -0.105344
    45 5.511808 -0.000002 0.000005 -0.023278 0.000004 0.000006
    46 0.196848 0.000001 -0.000002 -0.348225 0.000015 -0.000002
    47 0.000000 0.000000 0.000000 0.000000 0.000000 -1.570796
    48 -8.488672 -10.318193 -9.855457 0.102410 -0.015753 1.612292
    49 3.424798 5.661613 -2.218483 0.992551 0.937509 2.528022
    50 -15.289557 -17.205587 1.544267 -5.070111 -1.426326 0.135024
  time 3
    0 0.000000 7.449219 -27.500000 0.000000 0.000000 -0.000001
    1 -0.000002 0.000000 0.000000 1.570743 -1.567137 -1.570743
    2 4.255468 -0.335183 -0.000002 0.000000 0.000000 -0.124848
    3 7.431250 1.496477 0.000002 0.000000 0.000000 0.245450
    4 5.278481 0.165541 0.000001 0.000000 0.000000 0.048511
    5 -2.571563 -15.728427 5.696138 1.975864 1.159909 -1.298786
    6 -6.214486 -0.000006 -0.000026 3.040787 0.045675 3.111096
    7 11.944885 -0.000001 -0.000002 -0.553462 -0.117147 2.812590
    8 10.620186 0.000000 0.000000 -0.036346 0.086995 2.295920
    9 -4.751106 -0.694494 0.830577 -0.036613 -0.389791 0.747231
    10 -1.688072 0.000046 -0.000031 0.021791 -0.011789 0.363766
    11 -1.336140 0.000055 -0.000012 0.023442 0.012141 0.075996
    12 -4.820496 -0.509460 -0.224760 -0.062323 -0.297117 0.875686
    13 -1.826988 -0.000069 0.000007 -0.027923 0.029382 0.513683
    14 -1.436577 0.000004 0.000001 -0.000576 -0.077818 -0.084879
    15 -3.992357 -0.891188 -1.827909 -0.266273 -0.146401 0.725315
    16 -1.405918 -0.000024 -0.000001 0.007182 -0.028630 0.630305
    17 -1.175362 0.000125 -0.000021 0.001160 0.067967 -0.079591
    18 -4.526751 -0.690573 -1.120744 -0.191453 -0.221865 0.853822
    19 -1.744041 0.000034 -0.000007 -0.009143 -0.028165 0.724780
    20 -1.368767 0.000023 0.000005 -0.250126 0.028869 -0.392608
    21 -1.874798 -0.935127 0.999174 2.677382 0.339085 1.204840
    22 -1.523453 0.000034 0.000030 -0.014368 0.008968 0.018957
    23 -1.599281 0.000004 0.000013 0.039914 0.015885 -0.398250
    24 5.511818 0.000006 -0.000001 2.243089 -0.002559 -3.140365
    25 0.196846 -0.000002 0.000002 2.793407 0.000006 -3.141577
    26 -0.723850 -18.205065 -5.504727 1.975862 1.159910 1.842803
    27 6.214489 0.000005 0.000019 -0.135314 0.620621 -1.361359
    28 11.944893 -0.000032 -0.000194 0.264748 -0.346998 -1.691307
    29 10.620171 0.000004 0.000010 -0.964517 0.074655 0.415757
    30 4.751160 0.694376 -0.830474 -0.044084 0.020451 0.340759
    31 1.688065 -0.000027 0.000002 0.118209 -0.148692 0.133679
    32 1.336147 -0.000053 -0.000010 0.064705 -0.148099 -0.106931
    33 4.820515 0.509340 0.224865 -0.216672 -0.140995 0.361488
    34 1.827003 0.000068 0.000009 -0.036745 0.017096 0.138090
    35 1.436577 -0.000008 0.000008 0.007847 -0.013001 0.298704
    36 3.992353 0.891087 1.827995 -0.351764 -0.267723 0.413991
    37 1.405922 0.000023 -0.000009 0.009197 -0.028062 0.559112
    38 1.175365 -0.000131 0.000003 0.035361 0.118151 0.246550
    39 4.526758 0.690458 1.120842 -0.286318 -0.198086 0.460003
    40 1.744045 -0.000031 0.000000 0.008007 -0.028527 0.136915
    41 1.368763 -0.000031 -0.000018 0.065162 0.144822 0.239245
    42 1.874853 0.935081 -0.999130 1.448952 0.774693 0.229127
    43 1.523453 -0.000034 0.000000 0.038215 -0.033000 0.408779
    44 1.599281 0.000000 0.000009 0.052120 0.065306 -0.069862
    45 5.511808 -0.000002 0.000005 -0.023278 0.000004 0.000006
    46 0.196848 0.000001 -0.000002 -0.348225 0.000015 -0.000002
    47 0.000000 0.000000 0.000000 0.000000 0.000000 -1.570796
    48 -8.488672 -11.122905 -9.503883 0.132020 -0.042476 1.610752
    49 3.424798 5.661613 -2.218483 0.992551 0.937509 2.528022
    50 -11.957424 -17.471220 2.009125 -5.176503 -1.391598 0.171708
  time 4
    0 0.000000 7.449219 -27.500000 0.000000 0.000000 -0.000001
    1 -0.000002 0.000000 0.000000 1.570743 -1.567137 -1.570743
    2 4.255468 -0.335183 -0.000002 0.000000 0.000000 -0.124848
    3 7.431250 1.496477 0.000002 0.000000 0.000000 0.245450
    4 5.278481 0.165541 0.000001 0.000000 0.000000 0.048511
    5 -2.720005 -16.603454 5.696138 1.975864 1.159909 -1.298786
    6 -6.214486 -0.000006 -0.000026 3.219916 0.085655 2.945696
    7 11.944885 -0.000001 -0.000002 -0.541809 -0.146677 2.723961
    8 10.620186 0.000000 0.000000 -0.021038 -0.153531 2.274887
    9 -4.751106 -0.694494 0.830577 -0.036613 -0.389791 0.747231
    10 -1.688072 0.000046 -0.000031 0.021791 -0.011789 0.363766
    11 -1.336140 0.000055 -0.000012 0.023442 0.012141 0.075996
    12 -4.820496 -0.509460 -0.224760 -0.062323 -0.297117 0.875686
    13 -1.826988 -0.000069 0.000007 -0.027923 0.029382 0.513683
    14 -1.436577 0.000004 0.000001 -0.000576 -0.077818 -0.084879
    15 -3.992357 -0.891188 -1.827909 -0.266273 -0.146401 0.725315
    16 -1.405918 -0.000024 -0.000001 0.007182 -0.028630 0.630305
    17 -1.175362 0.000125 -0.000021 0.001160 0.067967 -0.079591
    18 -4.526751 -0.690573 -1.120744 -0.191453 -0.221865 0.853822
    19 -1.744041 0.000034 -0.000007 -0.009143 -0.028165 0.724780
    20 -1.368767 0.000023 0.000005 -0.250126 0.028869 -0.392608
    21 -1.874798 -0.935127 0.999174 2.677382 0.339085 1.204863
    22 -1.523453 0.000034 0.000030 -0.014368 0.008968 0.018957
    23 -1.599281 0.000004 0.000013 0.039914 0.015885 -0.398250
    24 5.511818 0.000006 -0.000001 2.243089 -0.002559 -3.140365
    25 0.196846 -0.000002 0.000002 2.793407 0.000006 -3.141577
    26 -0.551970 -17.158158 -5.504727 1.975862 1.159910 1.842803
    27 6.214489 0.000005 0.000019 0.019400 0.578599 -1.231761
    28 11.944893 -0.000032 -0.000194 0.326357 -0.334474 -1.875137
    29 10.620171 0.000004 0.000010 -1.088415 0.063442 0.444896
    30 4.751160 0.694376 -0.830474 -0.035071 0.017851 0.351929
    31 1.688065 -0.000027 0.000002 0.111246 -0.145277 0.172765
    32 1.336147 -0.000053 -0.000010 0.057371 -0.145211 -0.048571
    33 4.820515 0.509340 0.224865 -0.208763 -0.137927 0.387505
    34 1.827003 0.000068 0.000009 -0.036086 0.018450 0.175255
    35 1.436577 -0.000008 0.000008 0.006841 -0.013564 0.374609
    36 3.992353 0.891087 1.827995 -0.362083 -0.258060 0.451443
    37 1.405922 0.000023 -0.000009 0.007531 -0.028553 0.617845
    38 1.175365 -0.000131 0.000003 0.039819 0.116725 0.284514
    39 4.526758 0.690458 1.120842 -0.286627 -0.194275 0.490692
    40 1.744045 -0.000031 0.000000 0.006653 -0.028874 0.184296
    41 1.368763 -0.000031 -0.000018 0.072353 0.141382 0.289639
    42 1.874853 0.935081 -0.999130 1.447240 0.761785 0.252428
    43 1.523453 -0.000034 0.000000 0.038203 -0.033000 0.408779
    44 1.599281 0.000000 0.000009 0.055153 0.062765 -0.022590
    45 5.511808 -0.000002 0.000005 -0.023278 0.000004 0.000006
    46 0.196848 0.000001 -0.000002 -0.348225 0.000015 -0.000002
    47 0.000000 0.000000 0.000000 0.000000 0.000000 -1.570796
    48 -8.488672 -13.013588 -8.847613 0.187522 -0.092083 1.605703
    49 3.420891 5.665519 -2.214577 0.992551 0.937509 2.528022
    50 -7.508069 -17.826699 2.587268 -5.351912 -1.330464 0.254368
  time 5
    0 0.000000 7.449219 -27.500000 0.000000 0.000000 -0.000001
    1 -0.000002 0.000000 0.000000 1.570743 -1.567137 -1.570743
    2 4.255468 -0.335183 -0.000002 0.000000 0.000000 -0.124848
    3 7.431250 1.496477 0.000002 0.000000 0.000000 0.245450
    4 5.278481 0.165541 0.000001 0.000000 0.000000 0.048511
    5 -2.887979 -17.615203 5.696138 1.975864 1.159909 -1.298786
    6 -6.214486 -0.000006 -0.000026 3.201623 0.182252 2.697810
    7 11.944885 -0.000001 -0.000002 -0.500441 -0.215852 2.495632
    8 10.620186 0.000000 0.000000 0.043118 -0.228935 2.285638
    9 -4.751106 -0.694494 0.830577 -0.036613 -0.389791 0.747231
    10 -1.688072 0.000046 -0.000031 0.021791 -0.011789 0.363766
    11 -1.336140 0.000055 -0.000012 0.023442 0.012141 0.075996
    12 -4.820496 -0.509460 -0.224760 -0.062323 -0.297117 0.875686
    13 -1.826988 -0.000069 0.000007 -0.027923 0.029382 0.513683
    14 -1.436577 0.000004 0.000001 -0.000576 -0.077818 -0.084879
    15 -3.992357 -0.891188 -1.827909 -0.266273 -0.146401 0.725315
    16 -1.405918 -0.000024 -0.000001 0.007182 -0.028630 0.630305
    17 -1.175362 0.000125 -0.000021 0.001160 0.067967 -0.079591
    18 -4.526751 -0.690573 -1.120744 -0.191453 -0.221865 0.853822
    19 -1.744041 0.000034 -0.000007 -0.009143 -0.028165 0.724780
    20 -1.368767 0.000023 0.000005 -0.250126 0.028869 -0.392608
    21 -1.874798 -0.935127 0.999174 2.677382 0.339085 1.204840
    22 -1.523453 0.000034 0.000030 -0.014368 0.008968 0.018957
    23 -1.599281 0.000004 0.000013 0.039914 0.015885 -0.398250
    24 5.511818 0.000006 -0.000001 2.243089 -0.002559 -3.140365
    25 0.196846 -0.000002 0.000002 2.793407 0.000006 -3.141577
    26 -0.348839 -15.954996 -5.504727 1.975862 1.159910 1.842803
    27 6.214489 0.000005 0.000019 0.156890 0.505317 -1.122840
    28 11.944893 -0.000032 -0.000194 0.375795 -0.315670 -2.029635
    29 10.620171 0.000004 0.000010 -1.222310 0.030737 0.448018
    30 4.751160 0.694376 -0.830474 -0.024225 0.014567 0.365399
    31 1.688065 -0.000027 0.000002 0.102953 -0.140771 0.220228
    32 1.336147 -0.000053 -0.000010 0.049952 -0.140789 0.008595
    33 4.820515 0.509340 0.224865 -0.199055 -0.134475 0.419073
    34 1.827003 0.000068 0.000009 -0.035223 0.020044 0.220434
    35 1.436577 -0.000008 0.000008 0.005882 -0.013996 0.443571
    36 3.992353 0.891087 1.827995 -0.373947 -0.245045 0.496429
    37 1.405922 0.000023 -0.000009 0.005853 -0.028948 0.676252
    38 1.175365 -0.000131 0.000003 0.044097 0.115179 0.321569
    39 4.526758 0.690458 1.120842 -0.286712 -0.188618 0.527594
    40 1.744045 -0.000031 0.000000 0.004975 -0.029198 0.242238
    41 1.368763 -0.000031 -0.000018 0.078573 0.138038 0.334315
    42 1.874853 0.935081 -0.999130 1.450663 0.746673 0.280663
    43 1.523453 -0.000034 0.000000 0.038215 -0.033000 0.408779
    44 1.599281 0.000000 0.000009 0.058676 0.059481 0.035176
    45 5.511808 -0.000002 0.000005 -0.023278 0.000004 0.000006
    46 0.196848 0.000001 -0.000002 -0.348225 0.000015 -0.000002
    47 0.000000 0.000000 0.000000 0.000000 0.000000 -1.570796
    48 -8.488672 -16.619167 -8.078059 0.253363 -0.149861 1.596290
    49 3.424798 5.661613 -2.218483 0.992551 0.937509 2.528022
    50 -1.390695 -18.373591 2.634144 -5.516136 -1.261436 0.308676
  time 6
    0 0.000000 7.449219 -27.500000 0.000000 0.000000 -0.000001
    1 -0.000002 0.000000 0.000000 1.570743 -1.567137 -1.570743
    2 4.255468 -0.335183 -0.000002 0.000000 0.000000 -0.124848
    3 7.431250 1.496477 0.000002 0.000000 0.000000 0.245450
    4 5.278481 0.165541 0.000001 0.000000 0.000000 0.048511
    5 -3.067672 -18.701174 5.696138 1.975864 1.159909 -1.298786
    6 -6.214486 -0.000006 -0.000026 3.100674 0.201491 2.519544
    7 11.944885 -0.000001 -0.000002 -0.446760 -0.271041 2.273822
    8 10.620186 0.000000 0.000000 0.091871 -0.171085 2.336428
    9 -4.751106 -0.694494 0.830577 -0.036613 -0.389791 0.747231
    10 -1.688072 0.000046 -0.000031 0.021791 -0.011789 0.363766
    11 -1.336140 0.000055 -0.000012 0.023442 0.012141 0.075996
    12 -4.820496 -0.509460 -0.224760 -0.062323 -0.297117 0.875686
    13 -1.826988 -0.000069 0.000007 -0.027923 0.029382 0.513683
    14 -1.436577 0.000004 0.000001 -0.000576 -0.077818 -0.084879
    15 -3.992357 -0.891188 -1.827909 -0.266273 -0.146401 0.725315
    16 -1.405918 -0.000024 -0.000001 0.007182 -0.028630 0.630305
    17 -1.175362 0.000125 -0.000021 0.001160 0.067967 -0.079591
    18 -4.526751 -0.690573 -1.120744 -0.191453 -0.221865 0.853822
    19 -1.744041 0.000034 -0.000007 -0.009143 -0.028165 0.724780
    20 -1.368767 0.000023 0.000005 -0.250126 0.028869 -0.392608
    21 -1.874798 -0.935127 0.999174 2.677382 0.339085 1.204840
    22 -1.523453 0.000034 0.000030 -0.014368 0.008968 0.018957
    23 -1.599281 0.000004 0.000013 0.039914 0.015885 -0.398250
    24 5.511818 0.000006 -0.000001 2.243089 -0.002559 -3.140365
    25 0.196846 -0.000002 0.000002 2.793407 0.000006 -3.141577
    26 -0.133988 -14.658082 -5.504727 1.975862 1.159910 1.842803
    27 6.214489 0.000005 0.000019 0.270446 0.417474 -1.035691
    28 11.944893 -0.000032 -0.000194 0.416421 -0.293127 -2.165044
    29 10.620171 0.000004 0.000010 -1.349433 -0.022042 0.435694
    30 4.751160 0.694376 -0.830474 -0.011857 0.010636 0.380776
    31 1.688065 -0.000027 0.000002 0.093677 -0.135102 0.274948
    32 1.336147 -0.000053 -0.000010 0.042654 -0.135036 0.064222
    33 4.820515 0.509340 0.224865 -0.187790 -0.130892 0.455369
    34 1.827003 0.000068 0.000009 -0.034133 0.021853 0.272495
    35 1.436577 -0.000008 0.000008 0.004995 -0.014343 0.506220
    36 3.992353 0.891087 1.827995 -0.386699 -0.228890 0.547679
    37 1.405922 0.000023 -0.000009 0.004175 -0.029236 0.733969
    38 1.175365 -0.000131 0.000003 0.048196 0.113537 0.357508
    39 4.526758 0.690458 1.120842 -0.286459 -0.181331 0.569754
    40 1.744045 -0.000031 0.000000 0.003010 -0.029462 0.309385
    41 1.368763 -0.000031 -0.000018 0.083930 0.134863 0.373716
    42 1.874853 0.935081 -0.999130 1.458174 0.729547 0.312635
    43 1.523453 -0.000034 0.000000 0.038215 -0.033000 0.408779
    44 1.599281 0.000000 0.000009 0.062511 0.055442 0.101848
    45 5.511808 -0.000002 0.000005 -0.023278 0.000004 0.000006
    46 0.196848 0.000001 -0.000002 -0.348225 0.000015 -0.000002
    47 0.000000 0.000000 0.000000 0.000000 0.000000 -1.570796
    48 -8.488672 -20.236465 -7.831957 0.274521 -0.168052 1.592440
    49 3.424798 5.661613 -2.218483 0.992551 0.937509 2.528022
    50 4.691522 -19.025955 1.911466 -5.574542 -1.248402 0.254464
  time 7
    0 0.000000 7.449219 -27.500000 0.000000 0.000000 -0.000001
    1 -0.000002 0.000000 0.000000 1.570743 -1.567137 -1.570743
    2 4.255468 -0.335183 -0.000002 0.000000 0.000000 -0.124848
    3 7.431250 1.496477 0.000002 0.000000 0.000000 0.245450
    4 5.278481 0.165541 0.000001 0.000000 0.000000 0.048511
    5 -3.255178 -19.818395 5.696138 1.975864 1.159909 -1.298786
    6 -6.214486 -0.000006 -0.000026 3.012371 0.158883 2.411327
    7 11.944885 -0.000001 -0.000002 -0.404863 -0.300283 2.125428
    8 10.620186 0.000000 0.000000 0.109385 -0.041070 2.359253
    9 -4.751106 -0.694494 0.830577 -0.036613 -0.389791 0.747231
    10 -1.688072 0.000046 -0.000031 0.021791 -0.011789 0.363766
    11 -1.336140 0.000055 -0.000012 0.023442 0.012141 0.075996
    12 -4.820496 -0.509460 -0.224760 -0.062323 -0.297117 0.875686
    13 -1.826988 -0.000069 0.000007 -0.027923 0.029382 0.513683
    14 -1.436577 0.000004 0.000001 -0.000576 -0.077818 -0.084879
    15 -3.992357 -0.891188 -1.827909 -0.266273 -0.146401 0.725315
    16 -1.405918 -0.000024 -0.000001 0.007182 -0.028630 0.630305
    17 -1.175362 0.000125 -0.000021 0.001160 0.067967 -0.079591
    18 -4.526751 -0.690573 -1.120744 -0.191453 -0.221865 0.853822
    19 -1.744041 0.000034 -0.000007 -0.009143 -0.028165 0.724780
    20 -1.368767 0.000023 0.000005 -0.250126 0.028869 -0.392608
    21 -1.874798 -0.935127 0.999174 2.677382 0.339085 1.204840
    22 -1.523453 0.000034 0.000030 -0.014368 0.008968 0.018957
    23 -1.599281 0.000004 0.000013 0.039914 0.015885 -0.398250
    24 5.511818 0.000006 -0.000001 2.243089 -0.002559 -3.140365
    25 0.196846 -0.000002 0.000002 2.793407 0.000006 -3.141577
    26 0.088675 -13.329916 -5.504727 1.975862 1.159910 1.842803
    27 6.214489 0.000005 0.000019 0.361152 0.329214 -0.965570
    28 11.944893 -0.000032 -0.000194 0.450681 -0.267780 -2.288658
    29 10.620171 0.000004 0.000010 -1.456887 -0.088837 0.417017
    30 4.751160 0.694376 -0.830474 0.001697 0.006082 0.397650
    31 1.688065 -0.000027 0.000002 0.083789 -0.128235 0.335439
    32 1.336147 -0.000053 -0.000010 0.035631 -0.128133 0.118039
    33 4.820515 0.509340 0.224865 -0.175206 -0.127404 0.495500
    34 1.827003 0.000068 0.000009 -0.032814 0.023795 0.330210
    35 1.436577 -0.000008 0.000008 0.004180 -0.014607 0.563070
    36 3.992353 0.891087 1.827995 -0.399678 -0.209870 0.603835
    37 1.405922 0.000023 -0.000009 0.002510 -0.029416 0.790636
    38 1.175365 -0.000131 0.000003 0.052103 0.111799 0.392208
    39 4.526758 0.690458 1.120842 -0.285728 -0.172715 0.616140
    40 1.744045 -0.000031 0.000000 0.000805 -0.029605 0.384089
    41 1.368763 -0.000031 -0.000018 0.088532 0.131890 0.408285
    42 1.874853 0.935081 -0.999130 1.468774 0.710647 0.347236
    43 1.523453 -0.000034 0.000000 0.038203 -0.033000 0.408779
    44 1.599281 0.000000 0.000009 0.066442 0.050672 0.175912
    45 5.511808 -0.000002 0.000005 -0.023278 0.000004 0.000006
    46 0.196848 0.000001 -0.000002 -0.348225 0.000015 -0.000002
    47 0.000000 0.000000 0.000000 0.000000 0.000000 -1.570796
    48 -8.488672 -23.119365 -7.874928 0.236769 -0.126975 1.597317
    49 3.424798 5.661613 -2.218483 0.992551 0.937509 2.528022
    50 10.109656 -19.592378 0.864559 -5.470731 -1.306874 0.049203
  time 8
    0 0.000000 7.449219 -27.500000 0.000000 0.000000 -0.000001
    1 -0.000002 0.000000 0.000000 1.570743 -1.567137 -1.570743
    2 4.255468 -0.335183 -0.000002 0.000000 0.000000 -0.124848
    3 7.431250 1.496477 0.000002 0.000000 0.000000 0.245450
    4 5.278481 0.165541 0.000001 0.000000 0.000000 0.048511
    5 -3.438777 -20.904366 5.696138 1.975864 1.159909 -1.298786
    6 -6.214486 -0.000006 -0.000026 2.937956 0.075169 2.330557
    7 11.944885 -0.000001 -0.000002 -0.368774 -0.318871 2.007121
    8 10.620186 0.000000 0.000000 0.103051 0.149565 2.363966
    9 -4.751106 -0.694494 0.830577 -0.036613 -0.389791 0.747231
    10 -1.688072 0.000046 -0.000031 0.021791 -0.011789 0.363766
    11 -1.336140 0.000055 -0.000012 0.023442 0.012141 0.075996
    12 -4.820496 -0.509460 -0.224760 -0.062323 -0.297117 0.875686
    13 -1.826988 -0.000069 0.000007 -0.027923 0.029382 0.513683
    14 -1.436577 0.000004 0.000001 -0.000576 -0.077818 -0.084879
    15 -3.992357 -0.891188 -1.827909 -0.266273 -0.146401 0.725315
    16 -1.405918 -0.000024 -0.000001 0.007182 -0.028630 0.630305
    17 -1.175362 0.000125 -0.000021 0.001160 0.067967 -0.079591
    18 -4.526751 -0.690573 -1.120744 -0.191453 -0.221865 0.853822
    19 -1.744041 0.000034 -0.000007 -0.009143 -0.028165 0.724780
    20 -1.368767 0.000023 0.000005 -0.250126 0.028869 -0.392608
    21 -1.874798 -0.935127 0.999174 2.677382 0.339085 1.204840
    22 -1.523453 0.000034 0.000030 -0.014368 0.008968 0.018957
    23 -1.599281 0.000004 0.000013 0.039914 0.015885 -0.398250
    24 5.511818 0.000006 -0.000001 2.243089 -0.002559 -3.140365
    25 0.196846 -0.000002 0.000002 2.793407 0.000006 -3.141577
    26 0.303525 -12.029095 -5.504727 1.975862 1.159910 1.842803
    27 6.214489 0.000005 0.000019 0.433845 0.249886 -0.906579
    28 11.944893 -0.000032 -0.000194 0.480418 -0.239484 -2.406995
    29 10.620171 0.000004 0.000010 -1.537579 -0.160981 0.399654
    30 4.751160 0.694376 -0.830474 0.016091 0.000964 0.415639
    31 1.688065 -0.000027 0.000002 0.073662 -0.120205 0.400381
    32 1.336147 -0.000053 -0.000010 0.029027 -0.120283 0.169663
    33 4.820515 0.509340 0.224865 -0.161579 -0.124216 0.538533
    34 1.827003 0.000068 0.000009 -0.031280 0.025772 0.392251
    35 1.436577 -0.000008 0.000008 0.003413 -0.014799 0.614593
    36 3.992353 0.891087 1.827995 -0.412238 -0.188341 0.663496
    37 1.405922 0.000023 -0.000009 0.000880 -0.029512 0.845961
    38 1.175365 -0.000131 0.000003 0.055782 0.110014 0.425504
    39 4.526758 0.690458 1.120842 -0.284392 -0.163067 0.665671
    40 1.744045 -0.000031 0.000000 -0.001580 -0.029569 0.464753
    41 1.368763 -0.000031 -0.000018 0.092463 0.129182 0.438462
    42 1.874853 0.935081 -0.999130 1.481562 0.690225 0.383471
    43 1.523453 -0.000034 0.000000 0.038203 -0.033000 0.408779
    44 1.599281 0.000000 0.000009 0.070253 0.045219 0.255493
    45 5.511808 -0.000002 0.000005 -0.023278 0.000004 0.000006
    46 0.196848 0.000001 -0.000002 -0.348225 0.000015 -0.000002
    47 0.000000 0.000000 0.000000 0.000000 0.000000 -1.570796
    48 -8.488672 -25.584284 -8.015557 0.154221 -0.035569 1.602366
    49 3.424798 5.661613 -2.218483 0.992551 0.937509 2.528022
    50 15.281689 -19.908794 0.212196 -4.961711 -1.382450 -0.543878
  time 9
    0 0.000000 7.449219 -27.500000 0.000000 0.000000 -0.000001
    1 -0.000002 0.000000 0.000000 1.570743 -1.567137 -1.570743
    2 4.255468 -0.335183 -0.000002 0.000000 0.000000 -0.124848
    3 7.431250 1.496477 0.000002 0.000000 0.000000 0.245450
    4 5.278481 0.165541 0.000001 0.000000 0.000000 0.048511
    5 -3.606751 -21.916116 5.696138 1.975864 1.159909 -1.298786
    6 -6.214486 -0.000006 -0.000026 2.893627 -0.023653 2.248071
    7 11.944885 -0.000001 -0.000002 -0.323710 -0.335242 1.867080
    8 10.620186 0.000000 0.000000 0.097101 0.333490 2.396528
    9 -4.751106 -0.694494 0.830577 -0.036613 -0.389791 0.747231
    10 -1.688072 0.000046 -0.000031 0.021791 -0.011789 0.363766
    11 -1.336140 0.000055 -0.000012 0.023442 0.012141 0.075996
    12 -4.820496 -0.509460 -0.224760 -0.062323 -0.297117 0.875686
    13 -1.826988 -0.000069 0.000007 -0.027923 0.029382 0.513683
    14 -1.436577 0.000004 0.000001 -0.000576 -0.077818 -0.084879
    15 -3.992357 -0.891188 -1.827909 -0.266273 -0.146401 0.725315
    16 -1.405918 -0.000024 -0.000001 0.007182 -0.028630 0.630305
    17 -1.175362 0.000125 -0.000021 0.001160 0.067967 -0.079591
    18 -4.526751 -0.690573 -1.120744 -0.191453 -0.221865 0.853822
    19 -1.744041 0.000034 -0.000007 -0.009143 -0.028165 0.724780
    20 -1.368767 0.000023 0.000005 -0.250126 0.028869 -0.392608
    21 -1.874798 -0.935127 0.999174 2.677382 0.339085 1.204840
    22 -1.523453 0.000034 0.000030 -0.014368 0.008968 0.018957
    23 -1.599281 0.000004 0.000013 0.039914 0.015885 -0.398250
    24 5.511818 0.000006 -0.000001 2.243089 -0.002559 -3.140365
    25 0.196846 -0.000002 0.000002 2.793407 0.000006 -3.141577
    26 0.506656 -10.825933 -5.504727 1.975862 1.159910 1.842803
    27 6.214489 0.000005 0.000019 0.495089 0.184953 -0.854581
    28 11.944893 -0.000032 -0.000194 0.506699 -0.207474 -2.525488
    29 10.620171 0.000004 0.000010 -1.588847 -0.229935 0.390342
    30 4.751160 0.694376 -0.830474 0.031024 -0.004656 0.434311
    31 1.688065 -0.000027 0.000002 0.063643 -0.111121 0.468249
    32 1.336147 -0.000053 -0.000010 0.022939 -0.111726 0.218822
    33 4.820515 0.509340 0.224865 -0.147210 -0.121532 0.583539
    34 1.827003 0.000068 0.000009 -0.029543 0.027750 0.457192
    35 1.436577 -0.000008 0.000008 0.002730 -0.014943 0.661146
    36 3.992353 0.891087 1.827995 -0.423851 -0.164821 0.725302
    37 1.405922 0.000023 -0.000009 -0.000702 -0.029524 0.899437
    38 1.175365 -0.000131 0.000003 0.059234 0.108204 0.457189
    39 4.526758 0.690458 1.120842 -0.282425 -0.152712 0.717289
    40 1.744045 -0.000031 0.000000 -0.004085 -0.029330 0.549389
    41 1.368763 -0.000031 -0.000018 0.095795 0.126737 0.464572
    42 1.874853 0.935081 -0.999130 1.495728 0.668593 0.420291
    43 1.523453 -0.000034 0.000000 0.038215 -0.033000 0.408779
    44 1.599281 0.000000 0.000009 0.073777 0.039215 0.338752
    45 5.511808 -0.000002 0.000005 -0.023278 0.000004 0.000006
    46 0.196848 0.000001 -0.000002 -0.348225 0.000015 -0.000002
    47 0.000000 0.000000 0.000000 0.000000 0.000000 -1.570796
    48 -8.488672 -27.932012 -8.289003 0.071786 0.056153 1.599884
    49 3.424798 5.661613 -2.218483 0.992551 0.937509 2.528022
    50 20.313092 -20.045517 0.544237 -4.271834 -1.356013 -1.307450
  time 10
    0 0.000000 7.449219 -27.500000 0.000000 0.000000 -0.000001
    1 -0.000002 0.000000 0.000000 1.570743 -1.567137 -1.570743
    2 4.255468 -0.335183 -0.000002 0.000000 0.000000 -0.124848
    3 7.431250 1.496477 0.000002 0.000000 0.000000 0.245450
    4 5.278481 0.165541 0.000001 0.000000 0.000000 0.048511
    5 -3.751287 -22.791142 5.696138 1.975864 1.159909 -1.298786
    6 -6.214486 -0.000006 -0.000026 2.893343 -0.103814 2.146930
    7 11.944885 -0.000001 -0.000002 -0.256982 -0.347802 1.668430
    8 10.620186 0.000000 0.000000 0.123877 0.441193 2.494721
    9 -4.751106 -0.694494 0.830577 -0.036613 -0.389791 0.747231
    10 -1.688072 0.000046 -0.000031 0.021791 -0.011789 0.363766
    11 -1.336140 0.000055 -0.000012 0.023442 0.012141 0.075996
    12 -4.820496 -0.509460 -0.224760 -0.062323 -0.297117 0.875686
    13 -1.826988 -0.000069 0.000007 -0.027923 0.029382 0.513683
    14 -1.436577 0.000004 0.000001 -0.000576 -0.077818 -0.084879
    15 -3.992357 -0.891188 -1.827909 -0.266273 -0.146401 0.725315
    16 -1.405918 -0.000024 -0.000001 0.007182 -0.028630 0.630305
    17 -1.175362 0.000125 -0.000021 0.001160 0.067967 -0.079591
    18 -4.526751 -0.690573 -1.120744 -0.191453 -0.221865 0.853822
    19 -1.744041 0.000034 -0.000007 -0.009143 -0.028165 0.724780
    20 -1.368767 0.000023 0.000005 -0.250126 0.028869 -0.392608
    21 -1.874798 -0.935127 0.999174 2.677382 0.339085 1.204840
    22 -1.523453 0.000034 0.000030 -0.014368 0.008968 0.018957
    23 -1.599281 0.000004 0.000013 0.039914 0.015885 -0.398250
    24 5.511818 0.000006 -0.000001 2.243089 -0.002559 -3.140365
    25 0.196846 -0.000002 0.000002 2.793407 0.000006 -3.141577
    26 0.682443 -9.782933 -5.504727 1.975862 1.159910 1.842803
    27 6.214489 0.000005 0.000019 0.553125 0.138632 -0.809881
    28 11.944893 -0.000032 -0.000194 0.529778 -0.170921 -2.648015
    29 10.620171 0.000004 0.000010 -1.608032 -0.288772 0.396970
    30 4.751160 0.694376 -0.830474 0.046148 -0.010673 0.453282
    31 1.688065 -0.000027 0.000002 0.054067 -0.101138 0.537520
    32 1.336147 -0.000053 -0.000010 0.017450 -0.102702 0.265171
    33 4.820515 0.509340 0.224865 -0.132409 -0.119446 0.629548
    34 1.827003 0.000068 0.000009 -0.027637 0.029655 0.523608
    35 1.436577 -0.000008 0.000008 0.002095 -0.015038 0.703044
    36 3.992353 0.891087 1.827995 -0.434074 -0.139877 0.787853
    37 1.405922 0.000023 -0.000009 -0.002212 -0.029440 0.950738
    38 1.175365 -0.000131 0.000003 0.062446 0.106394 0.487097
    39 4.526758 0.690458 1.120842 -0.279796 -0.141938 0.769888
    40 1.744045 -0.000031 0.000000 -0.006602 -0.028874 0.636108
    41 1.368763 -0.000031 -0.000018 0.098599 0.124568 0.486999
    42 1.874853 0.935081 -0.999130 1.510512 0.646122 0.456847
    43 1.523453 -0.000034 0.000000 0.038215 -0.033000 0.408779
    44 1.599281 0.000000 0.000009 0.076833 0.032803 0.423669
    45 5.511808 -0.000002 0.000005 -0.023278 0.000004 0.000006
    46 0.196848 0.000001 -0.000002 -0.348225 0.000015 -0.000002
    47 0.000000 0.000000 0.000000 0.000000 0.000000 -1.570796
    48 -8.488672 -30.455527 -8.722610 0.034146 0.097455 1.596290
    49 3.424798 5.661613 -2.218483 0.992551 0.937509 2.528022
    50 25.262462 -20.240835 1.555987 -4.064212 -1.300724 -1.587899
  time 11
    0 0.000000 7.449219 -27.500000 0.000000 0.000000 -0.000001
    1 -0.000002 0.000000 0.000000 1.570743 -1.567137 -1.570743
    2 4.255468 -0.335183 -0.000002 0.000000 0.000000 -0.124848
    3 7.431250 1.496477 0.000002 0.000000 0.000000 0.245450
    4 5.278481 0.165541 0.000001 0.000000 0.000000 0.048511
    5 -3.868478 -23.482570 5.696138 1.975864 1.159909 -1.298786
    6 -6.214486 -0.000006 -0.000026 2.928010 -0.147318 2.014052
    7 11.944885 -0.000001 -0.000002 -0.162272 -0.344123 1.390726
    8 10.620186 0.000000 0.000000 0.184194 0.459332 2.659169
    9 -4.751106 -0.694494 0.830577 -0.036613 -0.389791 0.747231
    10 -1.688072 0.000046 -0.000031 0.021791 -0.011789 0.363766
    11 -1.336140 0.000055 -0.000012 0.023442 0.012141 0.075996
    12 -4.820496 -0.509460 -0.224760 -0.062323 -0.297117 0.875686
    13 -1.826988 -0.000069 0.000007 -0.027923 0.029382 0.513683
    14 -1.436577 0.000004 0.000001 -0.000576 -0.077818 -0.084879
    15 -3.992357 -0.891188 -1.827909 -0.266273 -0.146401 0.725315
    16 -1.405918 -0.000024 -0.000001 0.007182 -0.028630 0.630305
    17 -1.175362 0.000125 -0.000021 0.001160 0.067967 -0.079591
    18 -4.526751 -0.690573 -1.120744 -0.191453 -0.221865 0.853822
    19 -1.744041 0.000034 -0.000007 -0.009143 -0.028165 0.724780
    20 -1.368767 0.000023 0.000005 -0.250126 0.028869 -0.392608
    21 -1.874798 -0.935127 0.999174 2.677382 0.339085 1.204840
    22 -1.523453 0.000034 0.000030 -0.014368 0.008968 0.018957
    23 -1.599281 0.000004 0.000013 0.039914 0.015885 -0.398250
    24 5.511818 0.000006 -0.000001 2.243089 -0.002559 -3.140365
    25 0.196846 -0.000002 0.000002 2.793407 0.000006 -3.141577
    26 0.819166 -8.958689 -5.504727 1.975862 1.159910 1.842803
    27 6.214489 0.000005 0.000019 0.622463 0.119632 -0.779899
    28 11.944893 -0.000032 -0.000194 0.549169 -0.128998 -2.777527
    29 10.620171 0.000004 0.000010 -1.584736 -0.332464 0.430820
    30 4.751160 0.694376 -0.830474 0.061153 -0.016977 0.472170
    31 1.688065 -0.000027 0.000002 0.045223 -0.090531 0.606591
    32 1.336147 -0.000053 -0.000010 0.012596 -0.093438 0.308441
    33 4.820515 0.509340 0.224865 -0.117548 -0.118032 0.675576
    34 1.827003 0.000068 0.000009 -0.025600 0.031417 0.590073
    35 1.436577 -0.000008 0.000008 0.001531 -0.015110 0.740523
    36 3.992353 0.891087 1.827995 -0.442619 -0.114204 0.849923
    37 1.405922 0.000023 -0.000009 -0.003638 -0.029308 0.999356
    38 1.175365 -0.000131 0.000003 0.065382 0.104609 0.515064
    39 4.526758 0.690458 1.120842 -0.276549 -0.131104 0.822362
    40 1.744045 -0.000031 0.000000 -0.009083 -0.028203 0.722827
    41 1.368763 -0.000031 -0.000018 0.100948 0.122674 0.506007
    42 1.874853 0.935081 -0.999130 1.525319 0.623243 0.492353
    43 1.523453 -0.000034 0.000000 0.038203 -0.033000 0.408779
    44 1.599281 0.000000 0.000009 0.079325 0.026188 0.508226
    45 5.511808 -0.000002 0.000005 -0.023278 0.000004 0.000006
    46 0.196848 0.000001 -0.000002 -0.348225 0.000015 -0.000002
    47 0.000000 0.000000 0.000000 0.000000 0.000000 -1.570796
    48 -8.488672 -33.256393 -9.304659 0.047472 0.072177 1.600997
    49 3.424798 5.661613 -2.218483 0.992551 0.937509 2.528022
    50 30.215738 -20.631472 2.149755 -4.130838 -1.293533 -1.596137
  time 12
    0 0.000000 7.449219 -27.500000 0.000000 0.000000 -0.000001
    1 -0.000002 0.000000 0.000000 1.570743 -1.567137 -1.570743
    2 4.255468 -0.335183 -0.000002 0.000000 0.000000 -0.124848
    3 7.431250 1.496477 0.000002 0.000000 0.000000 0.245450
    4 5.278481 0.165541 0.000001 0.000000 0.000000 0.048511
    5 -3.942699 -23.939615 5.696138 1.975864 1.159909 -1.298786
    6 -6.214486 -0.000006 -0.000026 2.971842 -0.160259 1.875957
    7 11.944885 -0.000001 -0.000002 -0.067901 -0.313994 1.100594
    8 10.620186 0.000000 0.000000 0.239185 0.444977 2.827939
    9 -4.751106 -0.694494 0.830577 -0.036613 -0.389791 0.747231
    10 -1.688072 0.000046 -0.000031 0.021791 -0.011789 0.363766
    11 -1.336140 0.000055 -0.000012 0.023442 0.012141 0.075996
    12 -4.820496 -0.509460 -0.224760 -0.062323 -0.297117 0.875686
    13 -1.826988 -0.000069 0.000007 -0.027923 0.029382 0.513683
    14 -1.436577 0.000004 0.000001 -0.000576 -0.077818 -0.084879
    15 -3.992357 -0.891188 -1.827909 -0.266273 -0.146401 0.725315
    16 -1.405918 -0.000024 -0.000001 0.007182 -0.028630 0.630305
    17 -1.175362 0.000125 -0.000021 0.001160 0.067967 -0.079591
    18 -4.526751 -0.690573 -1.120744 -0.191453 -0.221865 0.853822
    19 -1.744041 0.000034 -0.000007 -0.009143 -0.028165 0.724780
    20 -1.368767 0.000023 0.000005 -0.250126 0.028869 -0.392608
    21 -1.874798 -0.935127 0.999174 2.677382 0.339085 1.204840
    22 -1.523453 0.000034 0.000030 -0.014368 0.008968 0.018957
    23 -1.599281 0.000004 0.000013 0.039914 0.015885 -0.398250
    24 5.511818 0.000006 -0.000001 2.243089 -0.002559 -3.140365
    25 0.196846 -0.000002 0.000002 2.793407 0.000006 -3.141577
    26 0.909012 -8.415704 -5.504727 1.975862 1.159910 1.842803
    27 6.214489 0.000005 0.000019 0.736265 0.162403 -0.791637
    28 11.944893 -0.000032 -0.000194 0.563650 -0.081659 -2.915031
    29 10.620171 0.000004 0.000010 -1.476395 -0.355825 0.515116
    30 4.751160 0.694376 -0.830474 0.075738 -0.023424 0.490578
    31 1.688065 -0.000027 0.000002 0.037313 -0.079601 0.673978
    32 1.336147 -0.000053 -0.000010 0.008390 -0.084198 0.348361
    33 4.820515 0.509340 0.224865 -0.102939 -0.117301 0.720636
    34 1.827003 0.000068 0.000009 -0.023514 0.033011 0.655015
    35 1.436577 -0.000008 0.000008 0.001028 -0.015146 0.773741
    36 3.992353 0.891087 1.827995 -0.449343 -0.088499 0.910153
    37 1.405922 0.000023 -0.000009 -0.004969 -0.029104 1.044856
    38 1.175365 -0.000131 0.000003 0.068067 0.102895 0.540924
    39 4.526758 0.690458 1.120842 -0.272768 -0.120486 0.873628
    40 1.744045 -0.000031 0.000000 -0.011432 -0.027328 0.807512
    41 1.368763 -0.000031 -0.000018 0.102877 0.121056 0.521921
    42 1.874853 0.935081 -0.999130 1.539699 0.600413 0.526165
    43 1.523453 -0.000034 0.000000 0.038215 -0.033000 0.408779
    44 1.599281 0.000000 0.000009 0.081207 0.019584 0.590403
    45 5.511808 -0.000002 0.000005 -0.023278 0.000004 0.000006
    46 0.196848 0.000001 -0.000002 -0.348225 0.000015 -0.000002
    47 0.000000 0.000000 0.000000 0.000000 0.000000 -1.570796
    48 -8.488672 -35.608028 -9.832018 0.071955 0.025278 1.609040
    49 3.424798 5.661613 -2.218483 0.992551 0.937509 2.528022
    50 34.528370 -21.143207 1.911466 -4.243635 -1.303692 -1.543552
  time 13
    0 0.000000 7.449219 -27.500000 0.000000 0.000000 -0.000001
    1 -0.000002 0.000000 0.000000 1.570743 -1.567137 -1.570743
    2 4.255468 -0.335183 -0.000002 0.000000 0.000000 -0.124848
    3 7.431250 1.496477 0.000002 0.000000 0.000000 0.245450
    4 5.278481 0.165541 0.000001 0.000000 0.000000 0.048511
    5 -3.970043 -24.099776 5.696138 1.975864 1.159909 -1.298786
    6 -6.214486 -0.000006 -0.000026 2.993332 -0.157919 1.806266
    7 11.944885 -0.000001 -0.000002 -0.024609 -0.289042 0.955053
    8 10.620186 0.000000 0.000000 0.262986 0.434444 2.910864
    9 -4.751106 -0.694494 0.830577 -0.036613 -0.389791 0.747231
    10 -1.688072 0.000046 -0.000031 0.021791 -0.011789 0.363766
    11 -1.336140 0.000055 -0.000012 0.023442 0.012141 0.075996
    12 -4.820496 -0.509460 -0.224760 -0.062323 -0.297117 0.875686
    13 -1.826988 -0.000069 0.000007 -0.027923 0.029382 0.513683
    14 -1.436577 0.000004 0.000001 -0.000576 -0.077818 -0.084879
    15 -3.992357 -0.891188 -1.827909 -0.266273 -0.146401 0.725315
    16 -1.405918 -0.000024 -0.000001 0.007182 -0.028630 0.630305
    17 -1.175362 0.000125 -0.000021 0.001160 0.067967 -0.079591
    18 -4.526751 -0.690573 -1.120744 -0.191453 -0.221865 0.853822
    19 -1.744041 0.000034 -0.000007 -0.009143 -0.028165 0.724780
    20 -1.368767 0.000023 0.000005 -0.250126 0.028869 -0.392608
    21 -1.874798 -0.935127 0.999174 2.677382 0.339085 1.204840
    22 -1.523453 0.000034 0.000030 -0.014368 0.008968 0.018957
    23 -1.599281 0.000004 0.000013 0.039914 0.015885 -0.398250
    24 5.511818 0.000006 -0.000001 2.243089 -0.002559 -3.140365
    25 0.196846 -0.000002 0.000002 2.793407 0.000006 -3.141577
    26 0.940263 -8.220385 -5.504727 1.975862 1.159910 1.842803
    27 6.214489 0.000005 0.000019 0.950890 0.467456 -0.928898
    28 11.944893 -0.000032 -0.000194 0.571608 -0.031108 -3.056104
    29 10.620171 0.000004 0.000010 -1.106633 -0.319221 0.741549
    30 4.751160 0.694376 -0.830474 0.089616 -0.029860 0.508136
    31 1.688065 -0.000027 0.000002 0.030470 -0.068695 0.738158
    32 1.336147 -0.000053 -0.000010 0.004818 -0.075197 0.384586
    33 4.820515 0.509340 0.224865 -0.088953 -0.117217 0.763743
    34 1.827003 0.000068 0.000009 -0.021417 0.034413 0.717105
    35 1.436577 -0.000008 0.000008 0.000585 -0.015170 0.802896
    36 3.992353 0.891087 1.827995 -0.454244 -0.063522 0.967360
    37 1.405922 0.000023 -0.000009 -0.006191 -0.028876 1.086803
    38 1.175365 -0.000131 0.000003 0.070463 0.101265 0.564470
    39 4.526758 0.690458 1.120842 -0.268593 -0.110371 0.922579
    40 1.744045 -0.000031 0.000000 -0.013589 -0.026322 0.888127
    41 1.368763 -0.000031 -0.000018 0.104459 0.119702 0.535005
    42 1.874853 0.935081 -0.999130 1.553223 0.578157 0.557670
    43 1.523453 -0.000034 0.000000 0.038203 -0.033000 0.408779
    44 1.599281 0.000000 0.000009 0.082477 0.013185 0.668362
    45 5.511808 -0.000002 0.000005 -0.023278 0.000004 0.000006
    46 0.196848 0.000001 -0.000002 -0.348225 0.000015 -0.000002
    47 0.000000 0.000000 0.000000 0.000000 0.000000 -1.570796
    48 -8.488672 -36.600245 -10.066401 0.084971 0.000000 1.612805
    49 3.424798 5.661613 -2.218483 0.992551 0.937509 2.528022
    50 37.172982 -21.451810 1.571612 -4.243062 -1.309046 -1.568935
  time 14
    0 0.000000 7.449219 -27.500000 0.000000 0.000000 -0.000001
    1 -0.000002 0.000000 0.000000 1.570743 -1.567137 -1.570743
    2 4.255468 -0.335183 -0.000002 0.000000 0.000000 -0.124848
    3 7.431250 1.496477 0.000002 0.000000 0.000000 0.245450
    4 5.278481 0.165541 0.000001 0.000000 0.000000 0.048511
    5 -3.938792 -23.908364 5.696138 1.975864 1.159909 -1.298786
    6 -6.214486 -0.000006 -0.000026 2.976211 -0.156706 1.837716
    7 11.944885 -0.000001 -0.000002 -0.042541 -0.300403 1.016720
    8 10.620186 0.000000 0.000000 0.249694 0.431129 2.874718
    9 -4.751106 -0.694494 0.830577 -0.036613 -0.389791 0.747231
    10 -1.688072 0.000046 -0.000031 0.021791 -0.011789 0.363766
    11 -1.336140 0.000055 -0.000012 0.023442 0.012141 0.075996
    12 -4.820496 -0.509460 -0.224760 -0.062323 -0.297117 0.875686
    13 -1.826988 -0.000069 0.000007 -0.027923 0.029382 0.513683
    14 -1.436577 0.000004 0.000001 -0.000576 -0.077818 -0.084879
    15 -3.992357 -0.891188 -1.827909 -0.266273 -0.146401 0.725315
    16 -1.405918 -0.000024 -0.000001 0.007182 -0.028630 0.630305
    17 -1.175362 0.000125 -0.000021 0.001160 0.067967 -0.079591
    18 -4.526751 -0.690573 -1.120744 -0.191453 -0.221865 0.853822
    19 -1.744041 0.000034 -0.000007 -0.009143 -0.028165 0.724780
    20 -1.368767 0.000023 0.000005 -0.250126 0.028869 -0.392608
    21 -1.874798 -0.935127 0.999174 2.677382 0.339085 1.204840
    22 -1.523453 0.000034 0.000030 -0.014368 0.008968 0.018957
    23 -1.599281 0.000004 0.000013 0.039914 0.015885 -0.398250
    24 5.511818 0.000006 -0.000001 2.243089 -0.002559 -3.140365
    25 0.196846 -0.000002 0.000002 2.793407 0.000006 -3.141577
    26 0.873855 -8.622741 -5.504727 1.975862 1.159910 1.842803
    27 6.214489 0.000005 0.000019 0.695452 1.037094 -1.437014
    28 11.944893 -0.000032 -0.000194 0.572928 -0.000128 -3.141307
    29 10.620171 0.000004 0.000010 -0.678913 -0.186050 1.277670
    30 4.751160 0.694376 -0.830474 0.102488 -0.036092 0.524483
    31 1.688065 -0.000027 0.000002 0.024753 -0.058173 0.797768
    32 1.336147 -0.000053 -0.000010 0.001870 -0.066688 0.416884
    33 4.820515 0.509340 0.224865 -0.075913 -0.117685 0.803964
    34 1.827003 0.000068 0.000009 -0.019392 0.035588 0.774819
    35 1.436577 -0.000008 0.000008 0.000201 -0.015182 0.827987
    36 3.992353 0.891087 1.827995 -0.457480 -0.039986 1.020362
    37 1.405922 0.000023 -0.000009 -0.007270 -0.028613 1.124726
    38 1.175365 -0.000131 0.000003 0.072573 0.099767 0.585497
    39 4.526758 0.690458 1.120842 -0.264221 -0.101011 0.968186
    40 1.744045 -0.000031 0.000000 -0.015518 -0.025231 0.962831
    41 1.368763 -0.000031 -0.000018 0.105706 0.118611 0.545526
    42 1.874853 0.935081 -0.999130 1.565606 0.557016 0.586373
    43 1.523453 -0.000034 0.000000 0.038203 -0.033000 0.408779
    44 1.599281 0.000000 0.000009 0.083220 0.007204 0.740334
    45 5.511808 -0.000002 0.000005 -0.023278 0.000004 0.000006
    46 0.196848 0.000001 -0.000002 -0.348225 0.000015 -0.000002
    47 0.000000 0.000000 0.000000 0.000000 0.000000 -1.570796
    48 -8.488672 -36.072886 -10.066401 0.084971 0.000000 1.612805
    49 3.424798 5.661613 -2.218483 0.992551 0.937509 2.528022
    50 36.840940 -21.350244 1.501297 -4.063352 -1.322693 -1.711841
  time 15
    0 0.000000 7.449219 -27.500000 0.000000 0.000000 -0.000001
    1 -0.000002 0.000000 0.000000 1.570743 -1.567137 -1.570743
    2 4.255468 -0.335183 -0.000002 0.000000 0.000000 -0.124848
    3 7.431250 1.496477 0.000002 0.000000 0.000000 0.245450
    4 5.278481 0.165541 0.000001 0.000000 0.000000 0.048511
    5 -3.852852 -23.384910 5.696138 1.975864 1.159909 -1.298786
    6 -6.214486 -0.000006 -0.000026 2.934795 -0.150207 1.917843
    7 11.944885 -0.000001 -0.000002 -0.091036 -0.324156 1.174282
    8 10.620186 0.000000 0.000000 0.217976 0.422742 2.784782
    9 -4.751106 -0.694494 0.830577 -0.036613 -0.389791 0.747231
    10 -1.688072 0.000046 -0.000031 0.021791 -0.011789 0.363766
    11 -1.336140 0.000055 -0.000012 0.023442 0.012141 0.075996
    12 -4.820496 -0.509460 -0.224760 -0.062323 -0.297117 0.875686
    13 -1.826988 -0.000069 0.000007 -0.027923 0.029382 0.513683
    14 -1.436577 0.000004 0.000001 -0.000576 -0.077818 -0.084879
    15 -3.992357 -0.891188 -1.827909 -0.266273 -0.146401 0.725315
    16 -1.405918 -0.000024 -0.000001 0.007182 -0.028630 0.630305
    17 -1.175362 0.000125 -0.000021 0.001160 0.067967 -0.079591
    18 -4.526751 -0.690573 -1.120744 -0.191453 -0.221865 0.853822
    19 -1.744041 0.000034 -0.000007 -0.009143 -0.028165 0.724780
    20 -1.368767 0.000023 0.000005 -0.250126 0.028869 -0.392608
    21 -1.874798 -0.935127 0.999174 2.677382 0.339085 1.204840
    22 -1.523453 0.000034 0.000030 -0.014368 0.008968 0.018957
    23 -1.599281 0.000004 0.000013 0.039914 0.015885 -0.398250
    24 5.511818 0.000006 -0.000001 2.243089 -0.002559 -3.140365
    25 0.196846 -0.000002 0.000002 2.793407 0.000006 -3.141577
    26 0.690256 -9.716525 -5.504727 1.975862 1.159910 1.842803
    27 6.214489 0.000005 0.000019 0.293690 0.257403 -2.140106
    28 11.944893 -0.000032 -0.000194 0.572928 -0.000140 -3.141229
    29 10.620171 0.000004 0.000010 -1.401830 -0.148737 2.177869
    30 4.751160 0.694376 -0.830474 0.114077 -0.041929 0.539248
    31 1.688065 -0.000027 0.000002 0.020151 -0.048405 0.851405
    32 1.336147 -0.000053 -0.000010 -0.000503 -0.058910 0.444947
    33 4.820515 0.509340 0.224865 -0.064133 -0.118560 0.840370
    34 1.827003 0.000068 0.000009 -0.017522 0.036547 0.826979
    35 1.436577 -0.000008 0.000008 -0.000110 -0.015182 0.849173
    36 3.992353 0.891087 1.827995 -0.459302 -0.018570 1.068064
    37 1.405922 0.000023 -0.000009 -0.008229 -0.028361 1.158117
    38 1.175365 -0.000131 0.000003 0.074382 0.098425 0.603797
    39 4.526758 0.690458 1.120842 -0.259878 -0.092634 1.009415
    40 1.744045 -0.000031 0.000000 -0.017172 -0.024140 1.029930
    41 1.368763 -0.000031 -0.000018 0.106677 0.117737 0.553719
    42 1.874853 0.935081 -0.999130 1.576587 0.537553 0.611775
    43 1.523453 -0.000034 0.000000 0.038203 -0.033000 0.408779
    44 1.599281 0.000000 0.000009 0.083508 0.001811 0.804771
    45 5.511808 -0.000002 0.000005 -0.023278 0.000004 0.000006
    46 0.196848 0.000001 -0.000002 -0.348225 0.000015 -0.000002
    47 0.000000 0.000000 0.000000 0.000000 0.000000 -1.570796
    48 -8.488672 -34.623623 -10.066401 0.084971 0.000000 1.612805
    49 3.424798 5.661613 -2.218483 0.992551 0.937509 2.528022
    50 33.688501 -20.701787 2.376324 -3.743984 -1.352495 -1.934055
  time 16
    0 0.000000 7.449219 -27.500000 0.000000 0.000000 -0.000001
    1 -0.000002 0.000000 0.000000 1.570743 -1.567137 -1.570743
    2 4.255468 -0.335183 -0.000002 0.000000 0.000000 -0.124848
    3 7.431250 1.496477 0.000002 0.000000 0.000000 0.245450
    4 5.278481 0.165541 0.000001 0.000000 0.000000 0.048511
    5 -3.720036 -22.588011 5.696138 1.975864 1.159909 -1.298786
    6 -6.214486 -0.000006 -0.000026 2.885386 -0.135330 2.025632
    7 11.944885 -0.000001 -0.000002 -0.160876 -0.343883 1.386583
    8 10.620186 0.000000 0.000000 0.181027 0.411351 2.669412
    9 -4.751106 -0.694494 0.830577 -0.036613 -0.389791 0.747231
    10 -1.688072 0.000046 -0.000031 0.021791 -0.011789 0.363766
    11 -1.336140 0.000055 -0.000012 0.023442 0.012141 0.075996
    12 -4.820496 -0.509460 -0.224760 -0.062323 -0.297117 0.875686
    13 -1.826988 -0.000069 0.000007 -0.027923 0.029382 0.513683
    14 -1.436577 0.000004 0.000001 -0.000576 -0.077818 -0.084879
    15 -3.992357 -0.891188 -1.827909 -0.266273 -0.146401 0.725315
    16 -1.405918 -0.000024 -0.000001 0.007182 -0.028630 0.630305
    17 -1.175362 0.000125 -0.000021 0.001160 0.067967 -0.079591
    18 -4.526751 -0.690573 -1.120744 -0.191453 -0.221865 0.853822
    19 -1.744041 0.000034 -0.000007 -0.009143 -0.028165 0.724780
    20 -1.368767 0.000023 0.000005 -0.250126 0.028869 -0.392608
    21 -1.874798 -0.935127 0.999174 2.677382 0.339085 1.204840
    22 -1.523453 0.000034 0.000030 -0.014368 0.008968 0.018957
    23 -1.599281 0.000004 0.000013 0.039914 0.015885 -0.398250
    24 5.511818 0.000006 -0.000001 2.243089 -0.002559 -3.140365
    25 0.196846 -0.000002 0.000002 2.793407 0.000006 -3.141577
    26 0.420716 -11.329855 -5.504727 1.975862 1.159910 1.842803
    27 6.214489 0.000005 0.000019 0.277207 -0.042907 -1.163039
    28 11.944893 -0.000032 -0.000194 0.561864 -0.088994 -2.894157
    29 10.620171 0.000004 0.000010 -1.935070 0.145349 1.178201
    30 4.751160 0.694376 -0.830474 0.124144 -0.047178 0.552095
    31 1.688065 -0.000027 0.000002 0.016592 -0.039752 0.897906
    32 1.336147 -0.000053 -0.000010 -0.002360 -0.052067 0.468584
    33 4.820515 0.509340 0.224865 -0.053910 -0.119662 0.872048
    34 1.827003 0.000068 0.000009 -0.015844 0.037302 0.872207
    35 1.436577 -0.000008 0.000008 -0.000374 -0.015182 0.866453
    36 3.992353 0.891087 1.827995 -0.460021 0.000126 1.109414
    37 1.405922 0.000023 -0.000009 -0.009032 -0.028109 1.186504
    38 1.175365 -0.000131 0.000003 0.075893 0.097274 0.619247
    39 4.526758 0.690458 1.120842 -0.255802 -0.085431 1.045286
    40 1.744045 -0.000031 0.000000 -0.018550 -0.023098 1.087920
    41 1.368763 -0.000031 -0.000018 0.107396 0.117077 0.559878
    42 1.874853 0.935081 -0.999130 1.585999 0.520356 0.633470
    43 1.523453 -0.000034 0.000000 0.038203 -0.033000 0.408779
    44 1.599281 0.000000 0.000009 0.083484 -0.002827 0.860264
    45 5.511808 -0.000002 0.000005 -0.023278 0.000004 0.000006
    46 0.196848 0.000001 -0.000002 -0.348225 0.000015 -0.000002
    47 0.000000 0.000000 0.000000 0.000000 0.000000 -1.570796
    48 -8.488672 -32.428243 -10.066401 0.084971 0.000000 1.612805
    49 3.424798 5.661613 -2.218483 0.992551 0.937509 2.528022
    50 28.055516 -19.998641 3.114628 -3.323194 -1.369201 -2.218527
  time 17
    0 0.000000 7.449219 -27.500000 0.000000 0.000000 -0.000001
    1 -0.000002 0.000000 0.000000 1.570743 -1.567137 -1.570743
    2 4.255468 -0.335183 -0.000002 0.000000 0.000000 -0.124848
    3 7.431250 1.496477 0.000002 0.000000 0.000000 0.245450
    4 5.278481 0.165541 0.000001 0.000000 0.000000 0.048511
    5 -3.552062 -21.591887 5.696138 1.975864 1.159909 -1.298786
    6 -6.214486 -0.000006 -0.000026 2.839920 -0.113058 2.146644
    7 11.944885 -0.000001 -0.000002 -0.241426 -0.348893 1.622859
    8 10.620186 0.000000 0.000000 0.148061 0.398908 2.548745
    9 -4.751106 -0.694494 0.830577 -0.036613 -0.389791 0.747231
    10 -1.688072 0.000046 -0.000031 0.021791 -0.011789 0.363766
    11 -1.336140 0.000055 -0.000012 0.023442 0.012141 0.075996
    12 -4.820496 -0.509460 -0.224760 -0.062323 -0.297117 0.875686
    13 -1.826988 -0.000069 0.000007 -0.027923 0.029382 0.513683
    14 -1.436577 0.000004 0.000001 -0.000576 -0.077818 -0.084879
    15 -3.992357 -0.891188 -1.827909 -0.266273 -0.146401 0.725315
    16 -1.405918 -0.000024 -0.000001 0.007182 -0.028630 0.630305
    17 -1.175362 0.000125 -0.000021 0.001160 0.067967 -0.079591
    18 -4.526751 -0.690573 -1.120744 -0.191453 -0.221865 0.853822
    19 -1.744041 0.000034 -0.000007 -0.009143 -0.028165 0.724780
    20 -1.368767 0.000023 0.000005 -0.250126 0.028869 -0.392608
    21 -1.874798 -0.935127 0.999174 2.677382 0.339085 1.204840
    22 -1.523453 0.000034 0.000030 -0.014368 0.008968 0.018957
    23 -1.599281 0.000004 0.000013 0.039914 0.015885 -0.398250
    24 5.511818 0.000006 -0.000001 2.243089 -0.002559 -3.140365
    25 0.196846 -0.000002 0.000002 2.793407 0.000006 -3.141577
    26 0.096487 -13.286946 -5.504727 1.975862 1.159910 1.842803
    27 6.214489 0.000005 0.000019 0.236542 0.008406 -1.064031
    28 11.944893 -0.000032 -0.000194 0.520054 -0.187591 -2.593464
    29 10.620171 0.000004 0.000010 -1.940552 0.229963 0.888615
    30 4.751160 0.694376 -0.830474 0.132413 -0.051600 0.562678
    31 1.688065 -0.000027 0.000002 0.013967 -0.032526 0.936069
    32 1.336147 -0.000053 -0.000010 -0.003751 -0.046374 0.487447
    33 4.820515 0.509340 0.224865 -0.045509 -0.120813 0.898174
    34 1.827003 0.000068 0.000009 -0.014442 0.037865 0.909421
    35 1.436577 -0.000008 0.000008 -0.000578 -0.015170 0.879827
    36 3.992353 0.891087 1.827995 -0.460021 0.015536 1.143362
    37 1.405922 0.000023 -0.000009 -0.009667 -0.027894 1.209454
    38 1.175365 -0.000131 0.000003 0.077091 0.096327 0.631599
    39 4.526758 0.690458 1.120842 -0.252231 -0.079546 1.074818
    40 1.744045 -0.000031 0.000000 -0.019617 -0.022199 1.135301
    41 1.368763 -0.000031 -0.000018 0.107899 0.116622 0.564210
    42 1.874853 0.935081 -0.999130 1.593653 0.506010 0.651048
    43 1.523453 -0.000034 0.000000 0.038215 -0.033000 0.408779
    44 1.599281 0.000000 0.000009 0.083268 -0.006614 0.905554
    45 5.511808 -0.000002 0.000005 -0.023278 0.000004 0.000006
    46 0.196848 0.000001 -0.000002 -0.348225 0.000015 -0.000002
    47 0.000000 0.000000 0.000000 0.000000 0.000000 -1.570796
    48 -8.488672 -29.678159 -10.066401 0.084971 0.000000 1.612805
    49 3.424798 5.661613 -2.218483 0.992551 0.937509 2.528022
    50 20.133399 -19.154865 3.681051 -2.970274 -1.364703 -2.419094
  time 18
    0 0.000000 7.449219 -27.500000 0.000000 0.000000 -0.000001
    1 -0.000002 0.000000 0.000000 1.570743 -1.567137 -1.570743
    2 4.255468 -0.335183 -0.000002 0.000000 0.000000 -0.124848
    3 7.431250 1.496477 0.000002 0.000000 0.000000 0.245450
    4 5.278481 0.165541 0.000001 0.000000 0.000000 0.048511
    5 -3.360650 -20.459040 5.696138 1.975864 1.159909 -1.298786
    6 -6.214486 -0.000006 -0.000026 2.804045 -0.086627 2.273303
    7 11.944885 -0.000001 -0.000002 -0.322089 -0.335710 1.862123
    8 10.620186 0.000000 0.000000 0.122581 0.386971 2.434777
    9 -4.751106 -0.694494 0.830577 -0.036613 -0.389791 0.747231
    10 -1.688072 0.000046 -0.000031 0.021791 -0.011789 0.363766
    11 -1.336140 0.000055 -0.000012 0.023442 0.012141 0.075996
    12 -4.820496 -0.509460 -0.224760 -0.062323 -0.297117 0.875686
    13 -1.826988 -0.000069 0.000007 -0.027923 0.029382 0.513683
    14 -1.436577 0.000004 0.000001 -0.000576 -0.077818 -0.084879
    15 -3.992357 -0.891188 -1.827909 -0.266273 -0.146401 0.725315
    16 -1.405918 -0.000024 -0.000001 0.007182 -0.028630 0.630290
    17 -1.175362 0.000125 -0.000021 0.001160 0.067967 -0.079591
    18 -4.526751 -0.690573 -1.120744 -0.191453 -0.221865 0.853822
    19 -1.744041 0.000034 -0.000007 -0.009143 -0.028165 0.724780
    20 -1.368767 0.000023 0.000005 -0.250126 0.028869 -0.392608
    21 -1.874798 -0.935127 0.999174 2.677382 0.339085 1.204840
    22 -1.523453 0.000034 0.000030 -0.014368 0.008968 0.018957
    23 -1.599281 0.000004 0.000013 0.039914 0.015885 -0.398250
    24 5.511818 0.000006 -0.000001 2.243089 -0.002559 -3.140365
    25 0.196846 -0.000002 0.000002 2.793407 0.000006 -3.141577
    26 -0.258992 -15.415917 -5.504727 1.975862 1.159910 1.842803
    27 6.214489 0.000005 0.000019 0.210830 0.102158 -1.137010
    28 11.944893 -0.000032 -0.000194 0.435444 -0.279884 -2.232322
    29 10.620171 0.000004 0.000010 -1.838499 0.240918 0.730484
    30 4.751160 0.694376 -0.830474 0.138633 -0.055016 0.570671
    31 1.688065 -0.000027 0.000002 0.012169 -0.027025 0.964732
    32 1.336147 -0.000053 -0.000010 -0.004709 -0.042072 0.501267
    33 4.820515 0.509340 0.224865 -0.039193 -0.121819 0.917874
    34 1.827003 0.000068 0.000009 -0.013387 0.038248 0.937394
    35 1.436577 -0.000008 0.000008 -0.000722 -0.015170 0.889374
    36 3.992353 0.891087 1.827995 -0.459661 0.027143 1.168900
    37 1.405922 0.000023 -0.000009 -0.010146 -0.027726 1.226457
    38 1.175365 -0.000131 0.000003 0.077954 0.095620 0.640687
    39 4.526758 0.690458 1.120842 -0.249406 -0.075160 1.097080
    40 1.744045 -0.000031 0.000000 -0.020396 -0.021480 1.170860
    41 1.368763 -0.000031 -0.000018 0.108223 0.116322 0.566980
    42 1.874853 0.935081 -0.999130 1.599405 0.495056 0.664158
    43 1.523453 -0.000034 0.000000 0.038203 -0.033000 0.408779
    44 1.599281 0.000000 0.000009 0.082993 -0.009430 0.939377
    45 5.511808 -0.000002 0.000005 -0.023278 0.000004 0.000006
    46 0.196848 0.000001 -0.000002 -0.348225 0.000015 -0.000002
    47 0.000000 0.000000 0.000000 0.000000 0.000000 -1.570796
    48 -8.488672 -26.560877 -10.066401 0.084971 0.000000 1.612805
    49 3.424798 5.661613 -2.218483 0.992551 0.937509 2.528022
    50 11.137031 -18.393123 3.884183 -2.849639 -1.357207 -2.394191
  time 19
    0 0.000000 7.449219 -27.500000 0.000000 0.000000 -0.000001
    1 -0.000002 0.000000 0.000000 1.570743 -1.567137 -1.570743
    2 4.255468 -0.335183 -0.000002 0.000000 0.000000 -0.124848
    3 7.431250 1.496477 0.000002 0.000000 0.000000 0.245450
    4 5.278481 0.165541 0.000001 0.000000 0.000000 0.048511
    5 -3.161425 -19.259785 5.696138 1.975864 1.159909 -1.298786
    6 -6.214486 -0.000006 -0.000026 2.778825 -0.059155 2.402392
    7 11.944885 -0.000001 -0.000002 -0.394323 -0.306264 2.090180
    8 10.620186 0.000000 0.000000 0.104107 0.376829 2.335026
    9 -4.751106 -0.694494 0.830577 -0.036613 -0.389791 0.747231
    10 -1.688072 0.000046 -0.000031 0.021791 -0.011789 0.363766
    11 -1.336140 0.000055 -0.000012 0.023442 0.012141 0.075996
    12 -4.820496 -0.509460 -0.224760 -0.062323 -0.297117 0.875686
    13 -1.826988 -0.000069 0.000007 -0.027923 0.029382 0.513683
    14 -1.436577 0.000004 0.000001 -0.000576 -0.077818 -0.084879
    15 -3.992357 -0.891188 -1.827909 -0.266273 -0.146401 0.725315
    16 -1.405918 -0.000024 -0.000001 0.007182 -0.028630 0.630305
    17 -1.175362 0.000125 -0.000021 0.001160 0.067967 -0.079591
    18 -4.526751 -0.690573 -1.120744 -0.191453 -0.221865 0.853822
    19 -1.744041 0.000034 -0.000007 -0.009143 -0.028165 0.724780
    20 -1.368767 0.000023 0.000005 -0.250126 0.028869 -0.392608
    21 -1.874798 -0.935127 0.999174 2.677382 0.339085 1.204840
    22 -1.523453 0.000034 0.000030 -0.014368 0.008968 0.018957
    23 -1.599281 0.000004 0.000013 0.039914 0.015885 -0.398250
    24 5.511818 0.000006 -0.000001 2.243089 -0.002559 -3.140365
    25 0.196846 -0.000002 0.000002 2.793407 0.000006 -3.141577
    26 -0.614472 -17.544888 -5.504727 1.975862 1.159910 1.842803
    27 6.214489 0.000005 0.000019 0.136903 0.206117 -1.269832
    28 11.944893 -0.000032 -0.000194 0.313371 -0.338058 -1.835795
    29 10.620171 0.000004 0.000010 -1.692835 0.154242 0.585445
    30 4.751160 0.694376 -0.830474 0.142564 -0.057197 0.575717
    31 1.688065 -0.000027 0.000002 0.011127 -0.023537 0.982811
    32 1.336147 -0.000053 -0.000010 -0.005273 -0.039327 0.509775
    33 4.820515 0.509340 0.224865 -0.035214 -0.122526 0.930308
    34 1.827003 0.000068 0.000009 -0.012704 0.038488 0.955043
    35 1.436577 -0.000008 0.000008 -0.000818 -0.015158 0.895055
    36 3.992353 0.891087 1.827995 -0.459278 0.034475 1.185019
    37 1.405922 0.000023 -0.000009 -0.010434 -0.027618 1.237008
    38 1.175365 -0.000131 0.000003 0.078493 0.095189 0.646264
    39 4.526758 0.690458 1.120842 -0.247564 -0.072404 1.111142
    40 1.744045 -0.000031 0.000000 -0.020863 -0.021024 1.193146
    41 1.368763 -0.000031 -0.000018 0.108390 0.116155 0.568454
    42 1.874853 0.935081 -0.999130 1.603041 0.488093 0.672392
    43 1.523453 -0.000034 0.000000 0.038203 -0.033000 0.408779
    44 1.599281 0.000000 0.000009 0.082777 -0.011204 0.960651
    45 5.511808 -0.000002 0.000005 -0.023278 0.000004 0.000006
    46 0.196848 0.000001 -0.000002 -0.348225 0.000015 -0.000002
    47 0.000000 0.000000 0.000000 0.000000 0.000000 -1.570796
    48 -8.488672 -23.256088 -10.066401 0.084971 0.000000 1.612805
    49 3.424798 5.661613 -2.218483 0.992551 0.937509 2.528022
    50 2.043004 -17.811074 3.708396 -3.120829 -1.363204 -2.004263
  time 20
    0 0.000000 7.449219 -27.500000 0.000000 0.000000 -0.000001
    1 -0.000002 0.000000 0.000000 1.570743 -1.567137 -1.570743
    2 4.255468 -0.335183 -0.000002 0.000000 0.000000 -0.124848
    3 7.431250 1.496477 0.000002 0.000000 0.000000 0.245450
    4 5.278481 0.165541 0.000001 0.000000 0.000000 0.048511
    5 -2.962200 -18.060529 5.696138 1.975864 1.159909 -1.298786
    6 -6.214486 -0.000006 -0.000026 2.763125 -0.032579 2.533340
    7 11.944885 -0.000001 -0.000002 -0.452963 -0.265851 2.297253
    8 10.620186 0.000000 0.000000 0.089951 0.369456 2.255685
    9 -4.751106 -0.694494 0.830577 -0.036613 -0.389791 0.747231
    10 -1.688072 0.000046 -0.000031 0.021791 -0.011789 0.363766
    11 -1.336140 0.000055 -0.000012 0.023442 0.012141 0.075996
    12 -4.820496 -0.509460 -0.224760 -0.062323 -0.297117 0.875686
    13 -1.826988 -0.000069 0.000007 -0.027923 0.029382 0.513683
    14 -1.436577 0.000004 0.000001 -0.000576 -0.077818 -0.084879
    15 -3.992357 -0.891188 -1.827909 -0.266273 -0.146401 0.725315
    16 -1.405918 -0.000024 -0.000001 0.007182 -0.028630 0.630305
    17 -1.175362 0.000125 -0.000021 0.001160 0.067967 -0.079591
    18 -4.526751 -0.690573 -1.120744 -0.191453 -0.221865 0.853822
    19 -1.744041 0.000034 -0.000007 -0.009143 -0.028165 0.724780
    20 -1.368767 0.000023 0.000005 -0.250126 0.028869 -0.392608
    21 -1.874798 -0.935127 0.999174 2.677382 0.339085 1.204840
    22 -1.523453 0.000034 0.000030 -0.014368 0.008968 0.018957
    23 -1.599281 0.000004 0.000013 0.039914 0.015885 -0.398250
    24 5.511818 0.000006 -0.000001 2.243089 -0.002559 -3.140365
    25 0.196846 -0.000002 0.000002 2.793407 0.000006 -3.141577
    26 -0.942607 -19.498073 -5.504727 1.975862 1.159910 1.842803
    27 6.214489 0.000005 0.000019 0.001041 0.286277 -1.435251
    28 11.944893 -0.000032 -0.000194 0.176469 -0.346267 -1.432750
    29 10.620171 0.000004 0.000010 -1.525729 -0.001839 0.402776
    30 4.751160 0.694376 -0.830474 0.143943 -0.057964 0.577479
    31 1.688065 -0.000027 0.000002 0.010779 -0.022315 0.989105
    32 1.336147 -0.000053 -0.000010 -0.005464 -0.038380 0.512662
    33 4.820515 0.509340 0.224865 -0.033824 -0.122778 0.934653
    34 1.827003 0.000068 0.000009 -0.012465 0.038560 0.961188
    35 1.436577 -0.000008 0.000008 -0.000842 -0.015158 0.896949
    36 3.992353 0.891087 1.827995 -0.459122 0.037033 1.190626
    37 1.405922 0.000023 -0.000009 -0.010542 -0.027582 1.240633
    38 1.175365 -0.000131 0.000003 0.078673 0.095045 0.648164
    39 4.526758 0.690458 1.120842 -0.246918 -0.071433 1.116047
    40 1.744045 -0.000031 0.000000 -0.021031 -0.020857 1.200946
    41 1.368763 -0.000031 -0.000018 0.108438 0.116107 0.568896
    42 1.874853 0.935081 -0.999130 1.604325 0.485648 0.675224
    43 1.523453 -0.000034 0.000000 0.038203 -0.033000 0.408779
    44 1.599281 0.000000 0.000009 0.082693 -0.011815 0.968007
    45 5.511808 -0.000002 0.000005 -0.023278 0.000004 0.000006
    46 0.196848 0.000001 -0.000002 -0.348225 0.000015 -0.000002
    47 0.000000 0.000000 0.000000 0.000000 0.000000 -1.570796
    48 -8.488672 -19.947394 -10.066401 0.084971 0.000000 1.612805
    49 3.424798 5.661613 -2.218483 0.992551 0.937509 2.528022
    50 -6.375222 -17.389186 3.349010 -3.666173 -1.327711 -1.368846
  time 21
    0 0.000000 7.449219 -27.500000 0.000000 0.000000 -0.000001
    1 -0.000002 0.000000 0.000000 1.570743 -1.567137 -1.570743
    2 4.255468 -0.335183 -0.000002 0.000000 0.000000 -0.124848
    3 7.431250 1.496477 0.000002 0.000000 0.000000 0.245450
    4 5.278481 0.165541 0.000001 0.000000 0.000000 0.048511
    5 -2.774694 -16.927682 5.696138 1.975864 1.159909 -1.298786
    6 -6.214486 -0.000006 -0.000026 2.755098 -0.007679 2.667289
    7 11.944885 -0.000001 -0.000002 -0.496236 -0.221173 2.476276
    8 10.620186 0.000000 0.000000 0.076324 0.365828 2.203141
    9 -4.751106 -0.694494 0.830577 -0.036613 -0.389791 0.747231
    10 -1.688072 0.000046 -0.000031 0.021791 -0.011789 0.363766
    11 -1.336140 0.000055 -0.000012 0.023442 0.012141 0.075996
    12 -4.820496 -0.509460 -0.224760 -0.062323 -0.297117 0.875686
    13 -1.826988 -0.000069 0.000007 -0.027923 0.029382 0.513683
    14 -1.436577 0.000004 0.000001 -0.000576 -0.077818 -0.084879
    15 -3.992357 -0.891188 -1.827909 -0.266273 -0.146401 0.725315
    16 -1.405918 -0.000024 -0.000001 0.007182 -0.028630 0.630290
    17 -1.175362 0.000125 -0.000021 0.001160 0.067967 -0.079591
    18 -4.526751 -0.690573 -1.120744 -0.191453 -0.221865 0.853822
    19 -1.744041 0.000034 -0.000007 -0.009143 -0.028165 0.724780
    20 -1.368767 0.000023 0.000005 -0.250126 0.028869 -0.392608
    21 -1.874798 -0.935127 0.999174 2.677382 0.339085 1.204840
    22 -1.523453 0.000034 0.000030 -0.014368 0.008968 0.018957
    23 -1.599281 0.000004 0.000013 0.039914 0.015885 -0.398250
    24 5.511818 0.000006 -0.000001 2.243089 -0.002559 -3.140365
    25 0.196846 -0.000002 0.000002 2.793407 0.000006 -3.141577
    26 -1.212146 -21.111404 -5.504727 1.975862 1.159910 1.842803
    27 6.214489 0.000005 0.000019 -0.171389 0.328909 -1.597629
    28 11.944893 -0.000032 -0.000194 0.063074 -0.311608 -1.084877
    29 10.620171 0.000004 0.000010 -1.340969 -0.159370 0.186804
    30 4.751160 0.694376 -0.830474 0.124144 -0.047178 0.552095
    31 1.688065 -0.000027 0.000002 0.016592 -0.039752 0.897906
    32 1.336147 -0.000053 -0.000010 -0.000695 -0.052223 0.431974
    33 4.820515 0.509340 0.224865 -0.053910 -0.119662 0.872048
    34 1.827003 0.000068 0.000009 -0.015844 0.037302 0.872207
    35 1.436577 -0.000008 0.000008 0.000513 -0.015182 0.808025
    36 3.992353 0.891087 1.827995 -0.459110 0.002036 1.108451
    37 1.405922 0.000023 -0.000009 -0.008097 -0.028397 1.153440
    38 1.175365 -0.000131 0.000003 0.073484 0.099096 0.594709
    39 4.526758 0.690458 1.120842 -0.254747 -0.082566 1.044431
    40 1.744045 -0.000031 0.000000 -0.018550 -0.023098 1.087920
    41 1.368763 -0.000031 -0.000018 0.102098 0.121715 0.515437
    42 1.874853 0.935081 -0.999130 1.602114 0.519205 0.632302
    43 1.523453 -0.000034 0.000000 0.038215 -0.033000 0.408779
    44 1.599281 0.000000 0.000009 0.083484 -0.002635 0.857993
    45 5.511808 -0.000002 0.000005 -0.023278 0.000004 0.000006
    46 0.196848 0.000001 -0.000002 -0.348225 0.000015 -0.000002
    47 0.000000 0.000000 0.000000 0.000000 0.000000 -1.570796
    48 -8.488672 -16.830111 -10.066401 0.084971 0.000000 1.612805
    49 3.424798 5.661613 -2.218483 0.992551 0.937509 2.528022
    50 -13.359810 -17.092302 2.868527 -4.037255 -1.233317 -0.930836
  time 22
    0 0.000000 7.449219 -27.500000 0.000000 0.000000 -0.000001
    1 -0.000002 0.000000 0.000000 1.570743 -1.567137 -1.570743
    2 4.255468 -0.335183 -0.000002 0.000000 0.000000 -0.124848
    3 7.431250 1.496477 0.000002 0.000000 0.000000 0.245450
    4 5.278481 0.165541 0.000001 0.000000 0.000000 0.048511
    5 -2.606721 -15.931558 5.696138 1.975864 1.159909 -1.298786
    6 -6.214486 -0.000006 -0.000026 2.752398 0.016009 2.804956
    7 11.944885 -0.000001 -0.000002 -0.525122 -0.179191 2.621138
    8 10.620186 0.000000 0.000000 0.058953 0.367623 2.183900
    9 -4.751106 -0.694494 0.830577 -0.036613 -0.389791 0.747231
    10 -1.688072 0.000046 -0.000031 0.021791 -0.011789 0.363766
    11 -1.336140 0.000055 -0.000012 0.023442 0.012141 0.075996
    12 -4.820496 -0.509460 -0.224760 -0.062323 -0.297117 0.875686
    13 -1.826988 -0.000069 0.000007 -0.027923 0.029382 0.513683
    14 -1.436577 0.000004 0.000001 -0.000576 -0.077818 -0.084879
    15 -3.992357 -0.891188 -1.827909 -0.266273 -0.146401 0.725315
    16 -1.405918 -0.000024 -0.000001 0.007182 -0.028630 0.630305
    17 -1.175362 0.000125 -0.000021 0.001160 0.067967 -0.079591
    18 -4.526751 -0.690573 -1.120744 -0.191453 -0.221865 0.853822
    19 -1.744041 0.000034 -0.000007 -0.009143 -0.028165 0.724780
    20 -1.368767 0.000023 0.000005 -0.250126 0.028869 -0.392608
    21 -1.874798 -0.935127 0.999174 2.677382 0.339085 1.204840
    22 -1.523453 0.000034 0.000030 -0.014368 0.008968 0.018957
    23 -1.599281 0.000004 0.000013 0.039914 0.015885 -0.398250
    24 5.511818 0.000006 -0.000001 2.243089 -0.002559 -3.140365
    25 0.196846 -0.000002 0.000002 2.793407 0.000006 -3.141577
    26 -1.391839 -22.205187 -5.504727 1.975862 1.159910 1.842803
    27 6.214489 0.000005 0.000019 -0.329015 0.366437 -1.694813
    28 11.944893 -0.000032 -0.000194 0.013286 -0.281011 -0.914782
    29 10.620171 0.000004 0.000010 -1.148390 -0.245756 0.021663
    30 4.751160 0.694376 -0.830474 0.075738 -0.023424 0.490578
    31 1.688065 -0.000027 0.000002 0.037313 -0.079601 0.673978
    32 1.336147 -0.000053 -0.000010 0.015461 -0.083946 0.235106
    33 4.820515 0.509340 0.224865 -0.102939 -0.117301 0.720636
    34 1.827003 0.000068 0.000009 -0.023514 0.033011 0.655015
    35 1.436577 -0.000008 0.000008 0.003773 -0.014715 0.590922
    36 3.992353 0.891087 1.827995 -0.447018 -0.082412 0.907218
    37 1.405922 0.000023 -0.000009 -0.001913 -0.029464 0.940695
    38 1.175365 -0.000131 0.000003 0.060181 0.107677 0.465988
    39 4.526758 0.690458 1.120842 -0.270266 -0.111605 0.870961
    40 1.744045 -0.000031 0.000000 -0.011432 -0.027328 0.807512
    41 1.368763 -0.000031 -0.000018 0.085668 0.133772 0.386624
    42 1.874853 0.935081 -0.999130 1.589470 0.599262 0.524880
    43 1.523453 -0.000034 0.000000 0.038215 -0.033000 0.408779
    44 1.599281 0.000000 0.000009 0.081099 0.020016 0.585067
    45 5.511808 -0.000002 0.000005 -0.023278 0.000004 0.000006
    46 0.196848 0.000001 -0.000002 -0.348225 0.000015 -0.000002
    47 0.000000 0.000000 0.000000 0.000000 0.000000 -1.570796
    48 -8.488672 -14.080027 -10.066401 0.084971 0.000000 1.612805
    49 3.420891 5.661613 -2.218483 0.992551 0.937509 2.528022
    50 -18.137300 -16.908702 2.341167 -4.215627 -1.152142 -0.704216
  time 23
    0 0.000000 7.449219 -27.500000 0.000000 0.000000 -0.000001
    1 -0.000002 0.000000 0.000000 1.570743 -1.567137 -1.570743
    2 4.255468 -0.335183 -0.000002 0.000000 0.000000 -0.124848
    3 7.431250 1.496477 0.000002 0.000000 0.000000 0.245450
    4 5.278481 0.165541 0.000001 0.000000 0.000000 0.048511
    5 -2.473904 -15.134659 5.696138 1.975864 1.159909 -1.298786
    6 -6.214486 -0.000006 -0.000026 2.752363 0.039349 2.942408
    7 11.944885 -0.000001 -0.000002 -0.542167 -0.145862 2.726474
    8 10.620186 0.000000 0.000000 0.035296 0.377219 2.199714
    9 -4.751106 -0.694494 0.830577 -0.036613 -0.389791 0.747231
    10 -1.688072 0.000046 -0.000031 0.021791 -0.011789 0.363766
    11 -1.336140 0.000055 -0.000012 0.023442 0.012141 0.075996
    12 -4.820496 -0.509460 -0.224760 -0.062323 -0.297117 0.875686
    13 -1.826988 -0.000069 0.000007 -0.027923 0.029382 0.513683
    14 -1.436577 0.000004 0.000001 -0.000576 -0.077818 -0.084879
    15 -3.992357 -0.891188 -1.827909 -0.266273 -0.146401 0.725315
    16 -1.405918 -0.000024 -0.000001 0.007182 -0.028630 0.630305
    17 -1.175362 0.000125 -0.000021 0.001160 0.067967 -0.079591
    18 -4.526751 -0.690573 -1.120744 -0.191453 -0.221865 0.853822
    19 -1.744041 0.000034 -0.000007 -0.009143 -0.028165 0.724780
    20 -1.368767 0.000023 0.000005 -0.250126 0.028869 -0.392608
    21 -1.874798 -0.935127 0.999174 2.677382 0.339085 1.204840
    22 -1.523453 0.000034 0.000030 -0.014368 0.008968 0.018957
    23 -1.599281 0.000004 0.000013 0.039914 0.015885 -0.398250
    24 5.511818 0.000006 -0.000001 2.243089 -0.002559 -3.140365
    25 0.196846 -0.000002 0.000002 2.793407 0.000006 -3.141577
    26 -1.462154 -22.607543 -5.504727 1.975862 1.159910 1.842803
    27 6.214489 0.000005 0.000019 -0.435809 0.435642 -1.716828
    28 11.944893 -0.000032 -0.000194 0.020371 -0.286116 -0.940079
    29 10.620171 0.000004 0.000010 -0.971933 -0.188563 0.002602
    30 4.751160 0.694376 -0.830474 0.016091 0.000964 0.415639
    31 1.688065 -0.000027 0.000002 0.073662 -0.120205 0.400381
    32 1.336147 -0.000053 -0.000010 0.042845 -0.117119 -0.004108
    33 4.820515 0.509340 0.224865 -0.161579 -0.124216 0.538533
    34 1.827003 0.000068 0.000009 -0.031280 0.025772 0.392251
    35 1.436577 -0.000008 0.000008 0.007464 -0.013229 0.328096
    36 3.992353 0.891087 1.827995 -0.409721 -0.178759 0.659247
    37 1.405922 0.000023 -0.000009 0.005650 -0.028984 0.683358
    38 1.175365 -0.000131 0.000003 0.042923 0.115634 0.311324
    39 4.526758 0.690458 1.120842 -0.281975 -0.149464 0.661671
    40 1.744045 -0.000031 0.000000 -0.001580 -0.029569 0.464753
    41 1.368763 -0.000031 -0.000018 0.064071 0.145301 0.231642
    42 1.874853 0.935081 -0.999130 1.558714 0.692958 0.385544
    43 1.523453 -0.000034 0.000000 0.038203 -0.033000 0.408779
    44 1.599281 0.000000 0.000009 0.070037 0.045555 0.250733
    45 5.511808 -0.000002 0.000005 -0.023278 0.000004 0.000006
    46 0.196848 0.000001 -0.000002 -0.348225 0.000015 -0.000002
    47 0.000000 0.000000 0.000000 0.000000 0.000000 -1.570796
    48 -8.488672 -11.884647 -10.066401 0.084971 0.000000 1.612805
    49 3.420891 5.665519 -2.218483 0.992551 0.937509 2.528022
    50 -20.598312 -16.822762 1.825526 -4.332726 -1.194795 -0.557191
  time 24
    0 0.000000 7.449219 -27.500000 0.000000 0.000000 -0.000001
    1 -0.000002 0.000000 0.000000 1.570743 -1.567137 -1.570743
    2 4.255468 -0.335183 -0.000002 0.000000 0.000000 -0.124848
    3 7.431250 1.496477 0.000002 0.000000 0.000000 0.245450
    4 5.278481 0.165541 0.000001 0.000000 0.000000 0.048511
    5 -2.384058 -14.607299 5.696138 1.975864 1.159909 -1.298786
    6 -6.214486 -0.000006 -0.000026 2.752008 0.060523 3.057773
    7 11.944885 -0.000001 -0.000002 -0.550690 -0.124949 2.789567
    8 10.620186 0.000000 0.000000 0.010344 0.393524 2.235353
    9 -4.751106 -0.694494 0.830577 -0.036613 -0.389791 0.747231
    10 -1.688072 0.000046 -0.000031 0.021791 -0.011789 0.363766
    11 -1.336140 0.000055 -0.000012 0.023442 0.012141 0.075996
    12 -4.820496 -0.509460 -0.224760 -0.062323 -0.297117 0.875686
    13 -1.826988 -0.000069 0.000007 -0.027923 0.029382 0.513683
    14 -1.436577 0.000004 0.000001 -0.000576 -0.077818 -0.084879
    15 -3.992357 -0.891188 -1.827909 -0.266273 -0.146401 0.725315
    16 -1.405918 -0.000024 -0.000001 0.007182 -0.028630 0.630305
    17 -1.175362 0.000125 -0.000021 0.001160 0.067967 -0.079591
    18 -4.526751 -0.690573 -1.120744 -0.191453 -0.221865 0.853822
    19 -1.744041 0.000034 -0.000007 -0.009143 -0.028165 0.724780
    20 -1.368767 0.000023 0.000005 -0.250126 0.028869 -0.392608
    21 -1.874798 -0.935127 0.999174 2.677382 0.339085 1.204840
    22 -1.523453 0.000034 0.000030 -0.014368 0.008968 0.018957
    23 -1.599281 0.000004 0.000013 0.039914 0.015885 -0.398250
    24 5.511818 0.000006 -0.000001 2.243089 -0.002559 -3.140365
    25 0.196846 -0.000002 0.000002 2.793407 0.000006 -3.141577
    26 -1.239491 -21.271565 -5.887551 1.975862 1.159910 1.842803
    27 6.214489 0.000005 0.000019 -0.550006 0.433534 -1.807565
    28 11.944893 -0.000032 -0.000194 -0.018450 -0.254393 -0.794970
    29 10.620171 0.000004 0.000010 -0.803698 -0.068215 -0.010051
    30 4.751160 0.694376 -0.830474 -0.035071 0.017851 0.351929
    31 1.688065 -0.000027 0.000002 0.111246 -0.145277 0.172765
    32 1.336147 -0.000053 -0.000010 0.071105 -0.139027 -0.203479
    33 4.820515 0.509340 0.224865 -0.208763 -0.137927 0.387505
    34 1.827003 0.000068 0.000009 -0.036086 0.018450 0.175255
    35 1.436577 -0.000008 0.000008 0.010136 -0.011311 0.110993
    36 3.992353 0.891087 1.827995 -0.360705 -0.249367 0.448070
    37 1.405922 0.000023 -0.000009 0.011642 -0.027139 0.470613
    38 1.175365 -0.000131 0.000003 0.027702 0.120165 0.182148
    39 4.526758 0.690458 1.120842 -0.285489 -0.182158 0.487271
    40 1.744045 -0.000031 0.000000 0.006653 -0.028874 0.184296
    41 1.368763 -0.000031 -0.000018 0.044836 0.152300 0.102092
    42 1.874853 0.935081 -0.999130 1.517476 0.767682 0.257304
    43 1.523453 -0.000034 0.000000 0.038203 -0.033000 0.408779
    44 1.599281 0.000000 0.000009 0.055045 0.062861 -0.024285
    45 5.511808 -0.000002 0.000005 -0.023278 0.000004 0.000006
    46 0.196848 0.000001 -0.000002 -0.348225 0.000015 -0.000002
    47 0.000000 0.000000 0.000000 0.000000 0.000000 -1.570796
    48 -8.488672 -10.435385 -10.066401 0.084971 0.000000 1.612805
    49 3.424798 5.661613 -2.218483 0.992551 0.937509 2.528022
    50 -21.344429 -16.814950 1.391919 -4.560805 -1.350047 -0.316396
  time 25
    0 0.000000 7.449219 -27.500000 0.000000 0.000000 -0.000001
    1 -0.000002 0.000000 0.000000 1.570743 -1.567137 -1.570743
    2 4.255468 -0.335183 -0.000002 0.000000 0.000000 -0.124848
    3 7.431250 1.496477 0.000002 0.000000 0.000000 0.245450
    4 5.278481 0.165541 0.000001 0.000000 0.000000 0.048511
    5 -2.352807 -14.419793 5.696138 1.975864 1.159909 -1.298786
    6 -6.214486 -0.000006 -0.000026 2.751297 0.070374 3.106736
    7 11.944885 -0.000001 -0.000002 -0.553217 -0.117914 2.810349
    8 10.620186 0.000000 0.000000 -0.001412 0.403316 2.255568
    9 -4.751106 -0.694494 0.830577 -0.036613 -0.389791 0.747231
    10 -1.688072 0.000046 -0.000031 0.021791 -0.011789 0.363766
    11 -1.336140 0.000055 -0.000012 0.023442 0.012141 0.075996
    12 -4.820496 -0.509460 -0.224760 -0.062323 -0.297117 0.875686
    13 -1.826988 -0.000069 0.000007 -0.027923 0.029382 0.513683
    14 -1.436577 0.000004 0.000001 -0.000576 -0.077818 -0.084879
    15 -3.992357 -0.891188 -1.827909 -0.266273 -0.146401 0.725315
    16 -1.405918 -0.000024 -0.000001 0.007182 -0.028630 0.630305
    17 -1.175362 0.000125 -0.000021 0.001160 0.067967 -0.079591
    18 -4.526751 -0.690573 -1.120744 -0.191453 -0.221865 0.853822
    19 -1.744041 0.000034 -0.000007 -0.009143 -0.028165 0.724780
    20 -1.368767 0.000023 0.000005 -0.250126 0.028869 -0.392608
    21 -1.874798 -0.935127 0.999174 2.677382 0.339085 1.204840
    22 -1.523453 0.000034 0.000030 -0.014368 0.008968 0.018957
    23 -1.599281 0.000004 0.000013 0.039914 0.015885 -0.398250
    24 5.511818 0.000006 -0.000001 2.243089 -0.002559 -3.140365
    25 0.196846 -0.000002 0.000002 2.793407 0.000006 -3.141577
    26 -0.985577 -19.763706 -5.504727 1.975862 1.159910 1.842803
    27 6.214489 0.000005 0.000019 -0.509539 0.431426 -1.775515
    28 11.944893 -0.000032 -0.000194 -0.018780 -0.254094 -0.793729
    29 10.620171 0.000004 0.000010 -0.791607 0.011630 0.047132
    30 4.751160 0.694376 -0.830474 -0.056763 0.023927 0.325059
    31 1.688065 -0.000027 0.000002 0.128120 -0.152971 0.079241
    32 1.336147 -0.000053 -0.000010 0.083929 -0.146338 -0.285783
    33 4.820515 0.509340 0.224865 -0.227602 -0.145633 0.325137
    34 1.827003 0.000068 0.000009 -0.037584 0.015166 0.086373
    35 1.436577 -0.000008 0.000008 0.011107 -0.010364 0.022069
    36 3.992353 0.891087 1.827995 -0.336124 -0.275056 0.359543
    37 1.405922 0.000023 -0.000009 0.013955 -0.026024 0.383420
    38 1.175365 -0.000131 0.000003 0.021231 0.121471 0.128404
    39 4.526758 0.690458 1.120842 -0.285250 -0.195737 0.415025
    40 1.744045 -0.000031 0.000000 0.009865 -0.027940 0.071270
    41 1.368763 -0.000031 -0.000018 0.036591 0.154469 0.048103
    42 1.874853 0.935081 -0.999130 1.495466 0.797439 0.199899
    43 1.523453 -0.000034 0.000000 0.038215 -0.033000 0.408779
    44 1.599281 0.000000 0.000009 0.047722 0.068589 -0.135633
    45 5.511808 -0.000002 0.000005 -0.023278 0.000004 0.000006
    46 0.196848 0.000001 -0.000002 -0.348225 0.000015 -0.000002
    47 0.000000 0.000000 0.000000 0.000000 0.000000 -1.570796
    48 -8.488672 -9.908025 -10.066401 0.084971 0.000000 1.612805
    49 3.424798 5.661613 -2.218483 0.992551 0.937509 2.528022
    50 -20.375649 -16.873545 1.180975 -5.018110 -1.449458 0.142974
end
