// Created by Crowbar 0.74
version 1
nodes
  0 "ValveBiped.weapon_bone" -1
end
skeleton
  time 0
    0 0.000000 0.000500 -0.064417 1.570796 0.000000 0.000003
end
triangles
w_swm10
  0 -0.304323 -3.973319 3.334913 -0.279927 -0.354737 0.892078 1.201968 0.002089 1 0 1.000000
  0 -0.400224 -4.153721 3.025733 -0.911855 -0.166234 0.375348 1.188340 0.018527 1 0 1.000000
  0 -0.038951 -4.122766 3.358638 -0.226857 -0.107000 0.968032 1.237970 0.011717 1 0 1.000000
w_swm10
  0 0.607713 -1.442323 2.700707 0.954765 -0.175387 0.240132 0.156716 0.676724 1 0 1.000000
  0 0.291562 -1.477721 3.181973 -0.000423 -0.827116 -0.562031 0.131393 0.695393 1 0 1.000000
  0 0.304709 -1.471400 1.648028 0.901146 -0.330491 0.280554 0.209324 0.696324 1 0 1.000000
w_swm10
  0 0.310616 -3.475610 1.672533 0.993500 -0.113779 -0.003402 0.742021 0.832381 1 0 1.000000
  0 0.269338 -3.819840 1.130626 0.898571 -0.089385 -0.429629 0.675433 0.782356 1 0 1.000000
  0 0.311149 -3.022751 0.896413 0.997370 -0.062900 -0.036016 0.667617 0.832381 1 0 1.000000
w_swm10
  0 -0.642745 -1.428101 2.627108 -0.972795 -0.142140 0.182938 0.196178 0.599469 1 0 1.000000
  0 -0.304709 -1.471400 1.648028 -0.901689 -0.331469 0.277643 0.150762 0.620505 1 0 1.000000
  0 -0.291562 -1.477721 3.181973 -0.000423 -0.827116 -0.562031 0.228463 0.619640 1 0 1.000000
w_swm10
  0 -0.310616 -3.475610 1.672533 -0.993500 -0.113779 -0.003402 0.798075 0.017550 1 0 1.000000
  0 -0.311149 -3.022751 0.896413 -0.998120 -0.055464 -0.026068 0.798075 0.090611 1 0 1.000000
  0 -0.269338 -3.819840 1.130626 -0.998120 -0.055464 -0.026068 0.742659 0.082323 1 0 1.000000
w_swm10
  0 -0.123980 -0.405832 2.904186 -0.906519 0.032166 0.420938 0.147832 0.005952 1 0 1.000000
  0 0.000000 -0.746516 3.327682 -0.003227 0.277670 0.960671 0.164404 0.070507 1 0 1.000000
  0 0.122887 -0.400530 2.917481 0.000000 0.052131 0.998640 0.180986 0.002089 1 0 1.000000
w_swm10
  0 -0.122887 -0.266425 2.774390 -0.963169 0.215282 0.161115 0.673355 0.711117 1 0 1.000000
  0 0.122887 -0.266425 2.774390 0.000000 0.617700 0.786414 0.673366 0.744236 1 0 1.000000
  0 0.000000 0.247275 2.343027 -0.000007 0.905883 0.423527 0.588409 0.727689 1 0 1.000000
w_swm10
  0 0.304323 -3.973319 3.334913 0.279929 -0.354737 0.892077 0.201933 0.002089 1 0 1.000000
  0 0.038951 -4.122766 3.358638 0.227651 -0.109845 0.967527 0.237937 0.011718 1 0 1.000000
  0 0.400224 -4.153723 3.025733 0.909542 -0.170621 0.378974 0.188305 0.018528 1 0 1.000000
w_swm10
  0 0.000000 -3.209296 0.898065 0.166465 -0.286012 -0.943656 0.555228 0.784670 1 0 1.000000
  0 0.311149 -3.022751 0.896413 0.166465 -0.286012 -0.943656 0.538167 0.823479 1 0 1.000000
  0 0.269338 -3.819840 1.130626 0.166465 -0.286012 -0.943656 0.652364 0.814744 1 0 1.000000
w_swm10
  0 0.000000 -3.209296 0.898065 -0.114174 -0.236686 -0.964854 0.555228 0.784670 1 0 1.000000
  0 0.269338 -3.819840 1.130626 0.898571 -0.089385 -0.429629 0.652364 0.814744 1 0 1.000000
  0 0.000000 -3.961579 0.994047 0.000000 -0.000001 -1.000000 0.656901 0.781071 1 0 1.000000
w_swm10
  0 -0.037714 -8.506371 3.355865 -0.013428 -0.999906 -0.002857 0.483043 0.968949 1 0 1.000000
  0 -0.037714 -7.690816 3.370960 0.997428 -0.003018 -0.071607 0.555706 0.967391 1 0 1.000000
  0 -0.040664 -4.330778 3.358651 -0.999217 -0.000732 0.039565 0.882044 0.968131 1 0 1.000000
w_swm10
  0 -0.037714 -8.506371 3.355865 -0.013428 -0.999906 -0.002857 0.552258 0.935159 1 0 1.000000
  0 -0.040664 -4.330778 3.358651 -0.999217 -0.000732 0.039565 0.951261 0.935443 1 0 1.000000
  0 -0.037714 -7.690816 3.370960 0.997428 -0.003018 -0.071607 0.624922 0.936629 1 0 1.000000
w_swm10
  0 -0.037714 -8.506371 3.355865 0.923313 0.007107 -0.383981 0.552258 0.935159 1 0 1.000000
  0 -0.037714 -7.690816 3.370960 0.923313 0.007107 -0.383981 0.624922 0.936629 1 0 1.000000
  0 0.049410 -8.311295 3.568972 0.923313 0.007107 -0.383981 0.564660 0.955858 1 0 1.000000
w_swm10
  0 -0.043562 -8.506371 3.355865 -0.964047 0.000000 0.265731 0.483043 0.968949 1 0 1.000000
  0 0.049410 -8.311295 3.568972 -0.923313 -0.007107 0.383981 0.517222 0.942480 1 0 1.000000
  0 -0.037714 -7.690816 3.370960 -0.923313 -0.007107 0.383981 0.555706 0.967391 1 0 1.000000
w_swm10
  0 0.091875 -5.720410 2.586247 0.000000 1.000000 0.000002 1.403886 0.549071 1 0 1.000000
  0 0.000000 -5.720410 2.294883 0.000000 1.000000 0.000000 1.403886 0.586942 1 0 1.000000
  0 -0.091875 -5.720410 2.586247 0.000000 1.000000 0.000000 1.391711 0.548332 1 0 1.000000
w_swm10
  0 0.043562 -8.311295 3.568972 0.999976 0.000000 0.006929 0.564660 0.955858 1 0 1.000000
  0 -0.037714 -7.690816 3.370960 0.993500 -0.113779 -0.003402 0.624922 0.936629 1 0 1.000000
  0 0.049410 -7.904862 3.587748 0.000000 -0.261682 0.965154 0.604134 0.957682 1 0 1.000000
w_swm10
  0 0.049410 -8.311295 3.568972 0.993500 -0.113779 -0.003402 0.517222 0.942480 1 0 1.000000
  0 0.049410 -7.904862 3.587748 0.000000 -0.261682 0.965154 0.534894 0.946361 1 0 1.000000
  0 -0.037714 -7.690816 3.370960 0.993500 -0.113779 -0.003402 0.555706 0.967391 1 0 1.000000
w_swm10
  0 -0.037714 -8.506371 3.355865 -0.045623 0.029748 0.998516 0.552258 0.935159 1 0 1.000000
  0 0.038951 -4.122766 3.358638 -0.045623 0.029748 0.998516 0.968996 0.925793 1 0 1.000000
  0 0.011628 -4.323074 3.358098 0.095552 -0.004135 0.995416 0.951261 0.935443 1 0 1.000000
w_swm10
  0 -0.091437 -6.279335 2.328296 0.000000 -1.000000 -0.000001 1.408854 0.063899 1 0 1.000000
  0 0.091437 -6.279336 2.328296 0.000000 -1.000000 -0.000001 1.396737 0.059471 1 0 1.000000
  0 0.091875 -6.279336 2.586247 0.000000 -1.000000 -0.000001 1.396737 0.097343 1 0 1.000000
w_swm10
  0 -0.037714 -8.506371 3.355865 0.053596 -0.000617 0.998562 0.483043 0.968949 1 0 1.000000
  0 0.011628 -4.323074 3.358098 0.095552 -0.004135 0.995416 0.882044 0.968131 1 0 1.000000
  0 -0.038951 -4.122766 3.358638 0.053596 -0.000617 0.998562 0.899793 0.977758 1 0 1.000000
w_swm10
  0 0.038951 -4.122766 3.358638 0.227651 -0.109845 0.967527 0.110784 0.835999 1 0 1.000000
  0 0.107955 -1.126384 3.401153 -0.013480 0.382270 0.923952 0.414188 0.830938 1 0 1.000000
  0 0.000000 -1.076793 3.351127 0.000000 0.000000 1.000000 0.414170 0.848617 1 0 1.000000
w_swm10
  0 0.038951 -4.122766 3.358638 0.227651 -0.109845 0.967527 0.110784 0.835999 1 0 1.000000
  0 0.000000 -1.076793 3.351127 0.000000 0.000000 1.000000 0.414170 0.848617 1 0 1.000000
  0 0.000000 -4.299962 3.356438 0.000000 0.000000 1.000000 0.104555 0.848583 1 0 1.000000
w_swm10
  0 0.304323 -3.973319 3.334913 0.279929 -0.354737 0.892077 0.661595 0.890586 1 0 1.000000
  0 0.308048 -1.182939 3.376913 0.214426 0.371389 0.903378 0.315079 0.887872 1 0 1.000000
  0 0.107955 -1.126384 3.401153 -0.013480 0.382270 0.923952 0.311773 0.865133 1 0 1.000000
w_swm10
  0 0.304323 -3.973319 3.334913 0.279929 -0.354737 0.892077 0.661595 0.890586 1 0 1.000000
  0 0.107955 -1.126384 3.401153 -0.013480 0.382270 0.923952 0.311773 0.865133 1 0 1.000000
  0 0.038951 -4.122766 3.358638 0.227651 -0.109845 0.967527 0.661242 0.866566 1 0 1.000000
w_swm10
  0 0.291562 -1.477721 3.181973 -0.000423 -0.827116 -0.562031 0.660793 0.606922 1 0 1.000000
  0 0.000000 -1.494092 3.261797 0.000000 -0.644609 -0.764512 0.666315 0.627336 1 0 1.000000
  0 0.000000 -1.483174 1.619702 0.000000 -0.680183 0.733042 0.557388 0.627336 1 0 1.000000
w_swm10
  0 0.291562 -1.477721 3.181973 -0.000423 -0.827116 -0.562031 0.660793 0.606922 1 0 1.000000
  0 0.000000 -1.483174 1.619702 0.000000 -0.680183 0.733042 0.557388 0.627336 1 0 1.000000
  0 0.304709 -1.471400 1.648028 0.901146 -0.330491 0.280554 0.559747 0.606922 1 0 1.000000
w_swm10
  0 0.222309 -3.410059 3.136142 0.211845 0.968565 0.130395 0.237977 0.616287 1 0 1.000000
  0 0.300751 -3.463064 2.772012 0.187055 0.979474 -0.075103 0.260778 0.615845 1 0 1.000000
  0 0.000000 -3.424333 2.632042 0.009810 0.999096 -0.041350 0.270038 0.630300 1 0 1.000000
w_swm10
  0 0.222309 -3.410059 3.136142 0.211845 0.968565 0.130395 0.237977 0.616287 1 0 1.000000
  0 0.000000 -3.424333 2.632042 0.009810 0.999096 -0.041350 0.270038 0.630300 1 0 1.000000
  0 0.000000 -3.411829 3.236002 0.000000 0.690504 -0.723329 0.231093 0.630300 1 0 1.000000
w_swm10
  0 -0.368351 -3.477106 3.211392 -0.969224 0.009514 0.245996 1.412809 0.821040 1 0 1.000000
  0 -0.304323 -3.973319 3.334913 -0.941654 -0.038263 0.334400 1.477435 0.815106 1 0 1.000000
  0 -0.308107 -1.226625 3.386869 -0.999976 0.000000 0.006929 1.114752 0.804831 1 0 1.000000
w_swm10
  0 -0.368351 -3.477106 3.211392 -0.969224 0.009514 0.245996 1.412809 0.821040 1 0 1.000000
  0 -0.308107 -1.226625 3.386869 -0.999976 0.000000 0.006929 1.114752 0.804831 1 0 1.000000
  0 -0.291562 -1.477721 3.181973 -0.995392 0.030322 -0.090966 1.151647 0.821040 1 0 1.000000
w_swm10
  0 0.000000 -1.494092 3.261797 0.000000 -0.644609 -0.764512 1.797320 0.820916 1 0 1.000000
  0 0.000000 -3.411829 3.236002 0.000000 0.690504 -0.723329 1.927901 0.820916 1 0 1.000000
  0 -0.368351 -3.477106 3.211392 -0.222102 0.751754 -0.620915 1.927901 0.841329 1 0 1.000000
w_swm10
  0 0.000000 -1.494092 3.261797 0.000000 -0.644609 -0.764512 1.797320 0.820916 1 0 1.000000
  0 -0.368351 -3.477106 3.211392 -0.222102 0.751754 -0.620915 1.927901 0.841329 1 0 1.000000
  0 -0.291562 -1.477721 3.181973 -0.000423 -0.827116 -0.562031 1.797320 0.841329 1 0 1.000000
w_swm10
  0 0.000000 -3.475610 1.614524 0.000000 0.677504 0.735519 1.445418 0.839139 1 0 1.000000
  0 0.000000 -1.483174 1.619702 0.000000 -0.680183 0.733042 1.577043 0.839074 1 0 1.000000
  0 -0.304709 -1.471400 1.648028 -0.901689 -0.331469 0.277643 1.577043 0.859487 1 0 1.000000
w_swm10
  0 0.000000 -3.475610 1.614524 0.000000 0.677504 0.735519 1.445418 0.839139 1 0 1.000000
  0 -0.304709 -1.471400 1.648028 -0.901689 -0.331469 0.277643 1.577043 0.859487 1 0 1.000000
  0 -0.310616 -3.475610 1.672533 0.122801 0.743336 0.657550 1.445418 0.859553 1 0 1.000000
w_swm10
  0 0.000000 -1.483174 1.619702 0.000000 -0.680183 0.733042 1.557407 0.627309 1 0 1.000000
  0 0.000000 -1.494092 3.261797 0.000000 -0.644609 -0.764512 1.666330 0.627309 1 0 1.000000
  0 -0.291562 -1.477721 3.181973 -0.000423 -0.827116 -0.562031 1.660808 0.606895 1 0 1.000000
w_swm10
  0 0.000000 -1.483174 1.619702 0.000000 -0.680183 0.733042 1.557407 0.627309 1 0 1.000000
  0 -0.291562 -1.477721 3.181973 -0.000423 -0.827116 -0.562031 1.660808 0.606895 1 0 1.000000
  0 -0.304709 -1.471400 1.648028 -0.901689 -0.331469 0.277643 1.559767 0.606895 1 0 1.000000
w_swm10
  0 0.000000 -3.424333 2.632042 0.009810 0.999096 -0.041350 1.270070 0.630272 1 0 1.000000
  0 -0.300751 -3.463064 2.772012 -0.187055 0.979474 -0.075103 1.260810 0.615818 1 0 1.000000
  0 -0.222309 -3.410059 3.136142 -0.211845 0.968565 0.130395 1.238011 0.616260 1 0 1.000000
w_swm10
  0 0.000000 -3.424333 2.632042 0.009810 0.999096 -0.041350 1.270070 0.630272 1 0 1.000000
  0 -0.222309 -3.410059 3.136142 -0.211845 0.968565 0.130395 1.238011 0.616260 1 0 1.000000
  0 0.000000 -3.411829 3.236002 0.000000 0.690504 -0.723329 1.231126 0.630272 1 0 1.000000
w_swm10
  0 0.000000 -3.209296 0.898065 -0.114174 -0.236686 -0.964854 1.555247 0.784636 1 0 1.000000
  0 0.000000 -3.961579 0.994047 0.000000 -0.000001 -1.000000 1.656890 0.781097 1 0 1.000000
  0 -0.269338 -3.819840 1.130626 -0.424749 -0.152530 -0.892369 1.652379 0.814708 1 0 1.000000
w_swm10
  0 0.000000 -3.209296 0.898065 -0.114174 -0.236686 -0.964854 1.555247 0.784636 1 0 1.000000
  0 -0.269338 -3.819840 1.130626 -0.424749 -0.152530 -0.892369 1.652379 0.814708 1 0 1.000000
  0 -0.311149 -3.022751 0.896413 -0.872389 -0.137430 -0.469095 1.539439 0.823602 1 0 1.000000
w_swm10
  0 0.229153 -3.337337 2.432848 0.312169 -0.948805 -0.048164 0.198261 0.800081 1 0 1.000000
  0 0.000000 -3.408905 2.603563 0.000000 -0.988820 0.149116 0.160256 0.788279 1 0 1.000000
  0 0.170191 -3.461623 2.448023 0.901083 -0.410363 0.140183 0.200694 0.783420 1 0 1.000000
w_swm10
  0 0.229153 -3.337337 2.432848 0.312169 -0.948805 -0.048164 0.198261 0.800081 1 0 1.000000
  0 0.170191 -3.461623 2.448023 0.901083 -0.410363 0.140183 0.200694 0.783420 1 0 1.000000
  0 0.000000 -3.374707 2.244595 0.000000 -0.990173 -0.139844 0.237002 0.793099 1 0 1.000000
w_swm10
  0 0.000000 -1.472144 2.096714 0.000000 1.000000 0.000000 0.102082 0.686634 1 0 1.000000
  0 0.000000 -1.552903 3.212149 0.000005 0.997642 0.068636 0.102071 0.729632 1 0 1.000000
  0 0.354491 -1.504245 2.504418 0.056673 0.996743 0.057371 0.121759 0.709228 1 0 1.000000
w_swm10
  0 0.000000 -1.472144 2.096714 0.000000 1.000000 0.000000 0.102082 0.686634 1 0 1.000000
  0 0.354491 -1.504245 2.504418 0.056673 0.996743 0.057371 0.121759 0.709228 1 0 1.000000
  0 0.259948 -1.526682 2.152334 0.228914 0.965644 -0.123007 0.114297 0.691067 1 0 1.000000
w_swm10
  0 0.000000 -1.472144 2.096714 0.000000 1.000000 0.000000 1.102053 0.686657 1 0 1.000000
  0 -0.259948 -1.526682 2.152334 -0.228914 0.965644 -0.123007 1.114336 0.691037 1 0 1.000000
  0 -0.354491 -1.504245 2.504418 -0.056673 0.996743 0.057371 1.121798 0.709197 1 0 1.000000
w_swm10
  0 0.000000 -1.472144 2.096714 0.000000 1.000000 0.000000 1.102053 0.686657 1 0 1.000000
  0 -0.354491 -1.504245 2.504418 -0.056673 0.996743 0.057371 1.121798 0.709197 1 0 1.000000
  0 0.000000 -1.552903 3.212149 0.000005 0.997642 0.068636 1.102111 0.729600 1 0 1.000000
w_swm10
  0 -0.122887 -0.266425 2.774390 0.000000 0.530003 -0.847996 0.714271 0.863889 1 0 1.000000
  0 -0.122887 0.270700 3.110097 0.000000 0.530003 -0.847996 0.799390 0.863889 1 0 1.000000
  0 0.122887 0.270700 3.110097 0.000000 0.530003 -0.847996 0.799390 0.897033 1 0 1.000000
w_swm10
  0 -0.122887 -0.266425 2.774390 0.000000 0.530003 -0.847996 0.714271 0.863889 1 0 1.000000
  0 0.122887 0.270700 3.110097 0.000000 0.530003 -0.847996 0.799390 0.897033 1 0 1.000000
  0 0.122887 -0.266425 2.774390 0.000000 0.530003 -0.847996 0.714271 0.897033 1 0 1.000000
w_swm10
  0 0.308107 -1.226625 3.386869 0.999976 0.000000 0.006929 0.114781 0.804805 1 0 1.000000
  0 0.304323 -3.973319 3.334913 0.941646 -0.038263 0.334422 0.477412 0.815142 1 0 1.000000
  0 0.368351 -3.477106 3.211392 0.969219 0.009520 0.246014 0.412784 0.821076 1 0 1.000000
w_swm10
  0 0.308107 -1.226625 3.386869 0.999976 0.000000 0.006929 0.114781 0.804805 1 0 1.000000
  0 0.368351 -3.477106 3.211392 0.969219 0.009520 0.246014 0.412784 0.821076 1 0 1.000000
  0 0.291562 -1.477721 3.181973 0.997428 -0.003018 -0.071607 0.151610 0.821076 1 0 1.000000
w_swm10
  0 0.368351 -3.477106 3.211392 0.222102 0.751754 -0.620915 0.927898 0.841366 1 0 1.000000
  0 0.000000 -3.411829 3.236002 0.000000 0.690504 -0.723329 0.927898 0.820952 1 0 1.000000
  0 0.000000 -1.494092 3.261797 0.000000 -0.644609 -0.764512 0.797311 0.820952 1 0 1.000000
w_swm10
  0 0.368351 -3.477106 3.211392 0.222102 0.751754 -0.620915 0.927898 0.841366 1 0 1.000000
  0 0.000000 -1.494092 3.261797 0.000000 -0.644609 -0.764512 0.797311 0.820952 1 0 1.000000
  0 0.291562 -1.477721 3.181973 -0.000423 -0.827116 -0.562031 0.797311 0.841366 1 0 1.000000
w_swm10
  0 0.304709 -1.471400 1.648028 0.901146 -0.330491 0.280554 0.577024 0.859524 1 0 1.000000
  0 0.000000 -1.483174 1.619702 0.000000 -0.680183 0.733042 0.577024 0.839111 1 0 1.000000
  0 0.000000 -3.475610 1.614524 0.000000 0.677504 0.735519 0.445455 0.839082 1 0 1.000000
w_swm10
  0 0.304709 -1.471400 1.648028 0.901146 -0.330491 0.280554 0.577024 0.859524 1 0 1.000000
  0 0.000000 -3.475610 1.614524 0.000000 0.677504 0.735519 0.445455 0.839082 1 0 1.000000
  0 0.310616 -3.475610 1.672533 -0.021763 0.774205 0.632561 0.445455 0.859495 1 0 1.000000
w_swm10
  0 0.000000 -1.076793 3.351127 0.000000 0.000000 1.000000 1.414196 0.848579 1 0 1.000000
  0 -0.107955 -1.126384 3.401153 -0.013480 0.382270 0.923952 1.414214 0.830901 1 0 1.000000
  0 -0.038951 -4.122766 3.358638 -0.226857 -0.107000 0.968032 1.110823 0.835962 1 0 1.000000
w_swm10
  0 0.000000 -1.076793 3.351127 0.000000 0.000000 1.000000 1.414196 0.848579 1 0 1.000000
  0 -0.038951 -4.122766 3.358638 -0.226857 -0.107000 0.968032 1.110823 0.835962 1 0 1.000000
  0 0.000000 -4.299962 3.356438 0.000000 0.000000 1.000000 1.104595 0.848546 1 0 1.000000
w_swm10
  0 -0.107955 -1.126384 3.401153 -0.013480 0.382270 0.923952 1.311803 0.865095 1 0 1.000000
  0 -0.308048 -1.182939 3.376913 -0.214406 0.371380 0.903386 1.315109 0.887833 1 0 1.000000
  0 -0.304323 -3.973319 3.334913 -0.279927 -0.354737 0.892078 1.661610 0.890547 1 0 1.000000
w_swm10
  0 -0.107955 -1.126384 3.401153 -0.013480 0.382270 0.923952 1.311803 0.865095 1 0 1.000000
  0 -0.304323 -3.973319 3.334913 -0.279927 -0.354737 0.892078 1.661610 0.890547 1 0 1.000000
  0 -0.038951 -4.122766 3.358638 -0.226857 -0.107000 0.968032 1.661257 0.866527 1 0 1.000000
w_swm10
  0 0.307535 -1.201509 2.436376 0.941042 0.337369 -0.024943 0.908226 0.357781 1 0 1.000000
  0 0.291562 -1.477721 3.181973 -0.000423 -0.827116 -0.562031 0.916337 0.265935 1 0 1.000000
  0 0.607713 -1.442323 2.700707 0.954765 -0.175387 0.240132 0.948041 0.311313 1 0 1.000000
w_swm10
  0 0.607713 -1.442323 2.700707 0.954765 -0.175387 0.240132 0.948041 0.311313 1 0 1.000000
  0 0.304709 -1.471400 1.648028 0.901146 -0.330491 0.280554 0.940806 0.440763 1 0 1.000000
  0 0.307535 -1.201509 2.436376 0.941042 0.337369 -0.024943 0.908226 0.357781 1 0 1.000000
w_swm10
  0 0.097723 -6.279336 2.586247 0.580884 -0.228492 0.781259 0.762991 0.764801 1 0 1.000000
  0 0.091437 -6.279336 2.328296 0.663686 0.000000 -0.748012 0.762991 0.728163 1 0 1.000000
  0 0.005848 -5.720410 2.294883 0.042055 0.223361 -0.973828 0.837053 0.715263 1 0 1.000000
w_swm10
  0 0.097723 -6.279336 2.586247 0.580884 -0.228492 0.781259 0.762991 0.764801 1 0 1.000000
  0 0.005848 -5.720410 2.294883 0.042055 0.223361 -0.973828 0.837053 0.715263 1 0 1.000000
  0 0.097723 -5.720410 2.586247 0.953709 0.000000 -0.300731 0.837053 0.764801 1 0 1.000000
w_swm10
  0 -0.078881 -5.722243 2.435288 -0.013428 -0.999906 -0.002857 0.405316 0.128074 1 0 1.000000
  0 0.005848 -5.722243 2.347356 -0.013428 -0.999906 -0.002857 0.409154 0.116374 1 0 1.000000
  0 0.090577 -5.722243 2.435288 -0.013428 -0.999906 -0.002857 0.415705 0.129799 1 0 1.000000
w_swm10
  0 -0.078881 -5.722243 2.435288 -0.013428 -0.999906 -0.002857 0.405316 0.128074 1 0 1.000000
  0 0.090577 -5.722243 2.435288 -0.013428 -0.999906 -0.002857 0.415705 0.129799 1 0 1.000000
  0 0.005848 -5.722243 2.522009 -0.013428 -0.999906 -0.002857 0.405316 0.140380 1 0 1.000000
w_swm10
  0 -0.229153 -3.337337 2.432848 -0.312170 -0.948805 -0.048164 1.198296 0.800046 1 0 1.000000
  0 -0.170191 -3.461623 2.448023 -0.901083 -0.410363 0.140183 1.200729 0.783386 1 0 1.000000
  0 0.000000 -3.408905 2.603563 0.000000 -0.988820 0.149116 1.160293 0.788245 1 0 1.000000
w_swm10
  0 0.000000 -3.374707 2.244595 0.000000 -0.990173 -0.139844 1.237035 0.793064 1 0 1.000000
  0 -0.170191 -3.461623 2.448023 -0.901083 -0.410363 0.140183 1.200729 0.783386 1 0 1.000000
  0 -0.229153 -3.337337 2.432848 -0.312170 -0.948805 -0.048164 1.198296 0.800046 1 0 1.000000
w_swm10
  0 0.000000 -3.411829 3.236002 0.000000 0.690504 -0.723329 0.433924 0.303947 1 0 1.000000
  0 0.368351 -3.477106 3.211392 0.222102 0.751754 -0.620915 0.455896 0.306997 1 0 1.000000
  0 0.222309 -3.410059 3.136142 0.211845 0.968565 0.130395 0.446511 0.310812 1 0 1.000000
w_swm10
  0 0.300751 -3.463064 2.772012 0.187055 0.979474 -0.075103 0.450420 0.334653 1 0 1.000000
  0 0.222309 -3.410059 3.136142 0.211845 0.968565 0.130395 0.446511 0.310812 1 0 1.000000
  0 0.368351 -3.477106 3.211392 0.222102 0.751754 -0.620915 0.455896 0.306997 1 0 1.000000
w_swm10
  0 0.300751 -3.463064 2.772012 0.187055 0.979474 -0.075103 0.450420 0.334653 1 0 1.000000
  0 0.310616 -3.475610 1.672533 -0.021763 0.774205 0.632561 0.453718 0.408225 1 0 1.000000
  0 0.000000 -3.475610 1.614524 0.000000 0.677504 0.735519 0.433943 0.411918 1 0 1.000000
w_swm10
  0 0.300751 -3.463064 2.772012 0.187055 0.979474 -0.075103 0.450420 0.334653 1 0 1.000000
  0 0.000000 -3.475610 1.614524 0.000000 0.677504 0.735519 0.433943 0.411918 1 0 1.000000
  0 0.000000 -3.424333 2.632042 0.009810 0.999096 -0.041350 0.433924 0.344298 1 0 1.000000
w_swm10
  0 -0.222309 -3.410059 3.136142 -0.211845 0.968565 0.130395 1.446535 0.310798 1 0 1.000000
  0 -0.368351 -3.477106 3.211392 -0.222102 0.751754 -0.620915 1.455920 0.306984 1 0 1.000000
  0 0.000000 -3.411829 3.236002 0.000000 0.690504 -0.723329 1.433949 0.303934 1 0 1.000000
w_swm10
  0 -0.300751 -3.463064 2.772012 -0.187055 0.979474 -0.075103 1.450444 0.334638 1 0 1.000000
  0 -0.368351 -3.477106 3.211392 -0.222102 0.751754 -0.620915 1.455920 0.306984 1 0 1.000000
  0 -0.222309 -3.410059 3.136142 -0.211845 0.968565 0.130395 1.446535 0.310798 1 0 1.000000
w_swm10
  0 -0.300751 -3.463064 2.772012 -0.187055 0.979474 -0.075103 1.450444 0.334638 1 0 1.000000
  0 0.000000 -3.424333 2.632042 0.009810 0.999096 -0.041350 1.433949 0.344283 1 0 1.000000
  0 0.000000 -3.475610 1.614524 0.000000 0.677504 0.735519 1.433905 0.411946 1 0 1.000000
w_swm10
  0 -0.300751 -3.463064 2.772012 -0.187055 0.979474 -0.075103 1.450444 0.334638 1 0 1.000000
  0 0.000000 -3.475610 1.614524 0.000000 0.677504 0.735519 1.433905 0.411946 1 0 1.000000
  0 -0.310616 -3.475610 1.672533 0.122801 0.743336 0.657550 1.453681 0.408253 1 0 1.000000
w_swm10
  0 -0.642745 -1.428101 2.627108 -0.972795 -0.142140 0.182938 0.954966 0.158971 1 0 1.000000
  0 -0.307535 -1.201509 2.436376 -0.925400 0.378557 -0.018162 0.910091 0.185522 1 0 1.000000
  0 -0.304709 -1.471400 1.648028 -0.901689 -0.331469 0.277643 0.930574 0.270894 1 0 1.000000
w_swm10
  0 -0.307535 -1.201509 2.436376 -0.925400 0.378557 -0.018162 0.910091 0.185522 1 0 1.000000
  0 -0.642745 -1.428101 2.627108 -0.972795 -0.142140 0.182938 0.954966 0.158971 1 0 1.000000
  0 -0.291562 -1.477721 3.181973 -0.000423 -0.827116 -0.562031 0.931717 0.096489 1 0 1.000000
w_swm10
  0 -0.122887 -1.025312 3.154670 -0.923258 -0.108068 0.368668 0.851614 0.221260 1 0 1.000000
  0 0.000000 -1.053137 3.244548 0.000000 -0.326992 0.945027 0.873132 0.221057 1 0 1.000000
  0 0.000000 -0.746516 3.327682 -0.003227 0.277670 0.960671 0.873128 0.265284 1 0 1.000000
w_swm10
  0 0.122887 -1.025312 3.154670 0.923258 -0.108068 0.368668 0.894645 0.221260 1 0 1.000000
  0 0.000000 -0.746516 3.327682 -0.003227 0.277670 0.960671 0.873128 0.265284 1 0 1.000000
  0 0.000000 -1.053137 3.244548 0.000000 -0.326992 0.945027 0.873132 0.221057 1 0 1.000000
w_swm10
  0 -0.143160 -1.123890 -0.009898 -0.836495 0.419661 -0.352365 1.355322 0.696519 1 0 1.000000
  0 -0.307983 -0.983283 0.559087 -0.983792 0.028521 -0.177031 1.276233 0.724923 1 0 1.000000
  0 0.000000 -0.794339 0.666456 0.000000 0.661372 -0.750058 1.273825 0.682857 1 0 1.000000
w_swm10
  0 -0.143160 -1.123890 -0.009898 -0.836495 0.419661 -0.352365 1.355322 0.696519 1 0 1.000000
  0 0.000000 -0.794339 0.666456 0.000000 0.661372 -0.750058 1.273825 0.682857 1 0 1.000000
  0 0.000000 -1.313245 -0.288467 0.000000 0.501389 -0.865222 1.396149 0.666777 1 0 1.000000
w_swm10
  0 -0.162916 -1.657651 -0.333895 -0.499095 -0.721317 -0.480215 1.437898 0.690024 1 0 1.000000
  0 -0.143160 -1.123890 -0.009898 -0.836495 0.419661 -0.352365 1.355322 0.696519 1 0 1.000000
  0 0.000000 -1.313245 -0.288467 0.000000 0.501389 -0.865222 1.396149 0.666777 1 0 1.000000
w_swm10
  0 0.000000 -2.707876 -0.063355 0.000000 -0.497037 -0.867729 1.587261 0.665385 1 0 1.000000
  0 -0.162916 -1.657651 -0.333895 -0.499095 -0.721317 -0.480215 1.437898 0.690024 1 0 1.000000
  0 0.000000 -1.313245 -0.288467 0.000000 0.501389 -0.865222 1.396149 0.666777 1 0 1.000000
w_swm10
  0 0.000000 -2.707876 -0.063355 0.000000 -0.497037 -0.867729 1.587261 0.665385 1 0 1.000000
  0 -0.143570 -2.819149 0.039170 -0.788505 -0.481743 -0.382340 1.603967 0.694775 1 0 1.000000
  0 -0.162916 -1.657651 -0.333895 -0.499095 -0.721317 -0.480215 1.437898 0.690024 1 0 1.000000
w_swm10
  0 0.000000 -3.176355 0.934300 0.000000 -0.945935 -0.324357 1.711312 0.683706 1 0 1.000000
  0 -0.143570 -2.819149 0.039170 -0.788505 -0.481743 -0.382340 1.603967 0.694775 1 0 1.000000
  0 0.000000 -2.707876 -0.063355 0.000000 -0.497037 -0.867729 1.587261 0.665385 1 0 1.000000
w_swm10
  0 0.000000 -3.176355 0.934300 0.000000 -0.945935 -0.324357 1.711312 0.683706 1 0 1.000000
  0 -0.311149 -3.022751 0.896413 -0.780848 -0.014397 -0.624555 1.706470 0.724923 1 0 1.000000
  0 -0.143570 -2.819149 0.039170 -0.788505 -0.481743 -0.382340 1.603967 0.694775 1 0 1.000000
w_swm10
  0 0.000000 -2.908907 0.693727 0.000000 0.953818 -0.300384 1.982132 0.843297 1 0 1.000000
  0 -0.311149 -3.022751 0.896413 -0.780848 -0.014397 -0.624555 1.941331 0.854367 1 0 1.000000
  0 -0.305764 -2.512987 1.188026 -0.334498 0.297059 -0.894353 1.931489 0.780549 1 0 1.000000
w_swm10
  0 0.000000 -2.908907 0.693727 0.000000 0.953818 -0.300384 1.982132 0.843297 1 0 1.000000
  0 -0.305764 -2.512987 1.188026 -0.334498 0.297059 -0.894353 1.931489 0.780549 1 0 1.000000
  0 0.000000 -2.339394 1.152730 0.000000 0.078904 -0.996882 1.973699 0.759468 1 0 1.000000
w_swm10
  0 0.000000 -2.339394 1.152730 0.000000 0.078904 -0.996882 1.973699 0.759468 1 0 1.000000
  0 -0.305764 -2.512987 1.188026 -0.334498 0.297059 -0.894353 1.931489 0.780549 1 0 1.000000
  0 -0.311329 -0.907328 0.822479 -0.695061 -0.035247 -0.718086 1.939832 0.616405 1 0 1.000000
w_swm10
  0 0.000000 -2.339394 1.152730 0.000000 0.078904 -0.996882 1.973699 0.759468 1 0 1.000000
  0 -0.311329 -0.907328 0.822479 -0.695061 -0.035247 -0.718086 1.939832 0.616405 1 0 1.000000
  0 0.000000 -1.167977 0.779662 0.000000 -0.754160 -0.656690 1.982134 0.619622 1 0 1.000000
w_swm10
  0 -0.411906 -3.329631 1.765497 0.000000 -1.000000 -0.000001 1.407329 0.052209 1 0 1.000000
  0 0.000000 -3.329631 1.660367 0.000000 -1.000000 -0.000001 1.391208 0.002042 1 0 1.000000
  0 0.000000 -3.329631 2.232898 0.000000 -1.000000 -0.000001 1.463574 0.002042 1 0 1.000000
w_swm10
  0 -0.411906 -3.329631 1.765497 0.000000 -1.000000 -0.000001 1.407329 0.052209 1 0 1.000000
  0 0.000000 -3.329631 2.232898 0.000000 -1.000000 -0.000001 1.463574 0.002042 1 0 1.000000
  0 -0.229153 -3.337337 2.432848 -0.312170 -0.948805 -0.048164 1.489518 0.021713 1 0 1.000000
w_swm10
  0 -0.765090 -3.329631 2.254826 0.000000 -1.000000 -0.000001 1.467007 0.095394 1 0 1.000000
  0 -0.411906 -3.329631 1.765497 0.000000 -1.000000 -0.000001 1.407329 0.052209 1 0 1.000000
  0 -0.229153 -3.337337 2.432848 -0.312170 -0.948805 -0.048164 1.489518 0.021713 1 0 1.000000
w_swm10
  0 -0.593560 -3.329340 3.011941 -0.067175 -0.997146 0.034459 1.553173 0.068988 1 0 1.000000
  0 -0.765090 -3.329631 2.254826 0.000000 -1.000000 -0.000001 1.467007 0.095394 1 0 1.000000
  0 -0.229153 -3.337337 2.432848 -0.312170 -0.948805 -0.048164 1.489518 0.021713 1 0 1.000000
w_swm10
  0 -0.593560 -3.329340 3.011941 -0.067175 -0.997146 0.034459 1.553173 0.068988 1 0 1.000000
  0 -0.229153 -3.337337 2.432848 -0.312170 -0.948805 -0.048164 1.489518 0.021713 1 0 1.000000
  0 0.000000 -3.408905 2.603563 0.000000 -0.988820 0.149116 1.515154 0.002042 1 0 1.000000
w_swm10
  0 0.000000 -3.408905 2.603563 0.000000 -0.988820 0.149116 1.515154 0.002042 1 0 1.000000
  0 0.000000 -3.329631 3.213307 0.000000 -1.000000 -0.000001 1.587495 0.002042 1 0 1.000000
  0 -0.593560 -3.329340 3.011941 -0.067175 -0.997146 0.034459 1.553173 0.068988 1 0 1.000000
w_swm10
  0 -0.546273 -1.542862 2.985884 0.000000 1.000000 0.000000 1.269801 0.729743 1 0 1.000000
  0 0.000000 -1.542862 3.213307 0.000000 1.000000 0.000000 1.298547 0.798790 1 0 1.000000
  0 -0.354491 -1.504245 2.504418 -0.071263 0.997455 0.002223 1.234975 0.772362 1 0 1.000000
w_swm10
  0 -0.730206 -1.542967 2.056777 -0.027349 0.999188 -0.029592 1.160202 0.719362 1 0 1.000000
  0 -0.546273 -1.542862 2.985884 0.000000 1.000000 0.000000 1.269801 0.729743 1 0 1.000000
  0 -0.354491 -1.504245 2.504418 -0.071263 0.997455 0.002223 1.234975 0.772362 1 0 1.000000
w_swm10
  0 -0.730206 -1.542967 2.056777 -0.027349 0.999188 -0.029592 1.160202 0.719362 1 0 1.000000
  0 -0.354491 -1.504245 2.504418 -0.071263 0.997455 0.002223 1.234975 0.772362 1 0 1.000000
  0 -0.264194 -1.542862 2.169868 0.000000 1.000000 0.000000 1.166658 0.765397 1 0 1.000000
w_swm10
  0 0.000000 -1.542862 2.059286 0.000000 1.000000 0.000000 1.152681 0.798790 1 0 1.000000
  0 -0.730206 -1.542967 2.056777 -0.027349 0.999188 -0.029592 1.160202 0.719362 1 0 1.000000
  0 -0.264194 -1.542862 2.169868 0.000000 1.000000 0.000000 1.166658 0.765397 1 0 1.000000
w_swm10
  0 0.000000 -1.542862 2.059286 0.000000 1.000000 0.000000 1.152681 0.798790 1 0 1.000000
  0 0.000000 -1.542862 1.660367 0.000000 1.000000 0.000000 1.102259 0.798791 1 0 1.000000
  0 -0.730206 -1.542967 2.056777 -0.027349 0.999188 -0.029592 1.160202 0.719362 1 0 1.000000
w_swm10
  0 0.000000 -3.329631 2.232898 0.000000 -1.000000 -0.000001 0.463591 0.002042 1 0 1.000000
  0 0.000000 -3.329631 1.660367 0.000000 -1.000000 -0.000001 0.391227 0.002042 1 0 1.000000
  0 0.411906 -3.329631 1.765497 0.000000 -1.000000 -0.000001 0.407369 0.052205 1 0 1.000000
w_swm10
  0 0.000000 -3.329631 2.232898 0.000000 -1.000000 -0.000001 0.463591 0.002042 1 0 1.000000
  0 0.411906 -3.329631 1.765497 0.000000 -1.000000 -0.000001 0.407369 0.052205 1 0 1.000000
  0 0.229153 -3.337337 2.432848 0.312169 -0.948805 -0.048164 0.489496 0.021714 1 0 1.000000
w_swm10
  0 0.229153 -3.337337 2.432848 0.312169 -0.948805 -0.048164 0.489496 0.021714 1 0 1.000000
  0 0.411906 -3.329631 1.765497 0.000000 -1.000000 -0.000001 0.407369 0.052205 1 0 1.000000
  0 0.765090 -3.329631 2.254826 0.000000 -1.000000 -0.000001 0.467043 0.095387 1 0 1.000000
w_swm10
  0 0.229153 -3.337337 2.432848 0.312169 -0.948805 -0.048164 0.489496 0.021714 1 0 1.000000
  0 0.765090 -3.329631 2.254826 0.000000 -1.000000 -0.000001 0.467043 0.095387 1 0 1.000000
  0 0.593560 -3.329340 3.011941 0.067175 -0.997146 0.034459 0.553153 0.068991 1 0 1.000000
w_swm10
  0 0.229153 -3.337337 2.432848 0.312169 -0.948805 -0.048164 0.489496 0.021714 1 0 1.000000
  0 0.593560 -3.329340 3.011941 0.067175 -0.997146 0.034459 0.553153 0.068991 1 0 1.000000
  0 0.000000 -3.408905 2.603563 0.000000 -0.988820 0.149116 0.515132 0.002042 1 0 1.000000
w_swm10
  0 0.000000 -3.408905 2.603563 0.000000 -0.988820 0.149116 0.515132 0.002042 1 0 1.000000
  0 0.593560 -3.329340 3.011941 0.067175 -0.997146 0.034459 0.553153 0.068991 1 0 1.000000
  0 0.000000 -3.329631 3.213307 0.000000 -1.000000 -0.000001 0.587508 0.002042 1 0 1.000000
w_swm10
  0 0.000000 -0.161490 0.746567 0.000000 -0.376992 -0.926217 0.861451 0.482113 1 0 1.000000
  0 0.374318 0.006853 0.772875 0.662060 -0.558641 -0.499597 0.822265 0.456803 1 0 1.000000
  0 0.311329 -0.907328 0.822479 0.695061 -0.035247 -0.718086 0.814833 0.532613 1 0 1.000000
w_swm10
  0 0.000000 -0.794339 0.666456 0.000000 0.635350 -0.772224 0.860479 0.566585 1 0 1.000000
  0 0.000000 -0.161490 0.746567 0.000000 -0.376992 -0.926217 0.861451 0.482113 1 0 1.000000
  0 0.311329 -0.907328 0.822479 0.695061 -0.035247 -0.718086 0.814833 0.532613 1 0 1.000000
w_swm10
  0 0.000000 -0.794339 0.666456 0.000000 0.635350 -0.772224 0.860479 0.566585 1 0 1.000000
  0 0.311329 -0.907328 0.822479 0.695061 -0.035247 -0.718086 0.814833 0.532613 1 0 1.000000
  0 0.307983 -0.983283 0.559087 0.983792 0.028521 -0.177031 0.822647 0.593802 1 0 1.000000
w_swm10
  0 0.000000 -0.794339 0.666456 0.000000 0.661372 -0.750058 0.273874 0.682811 1 0 1.000000
  0 0.307983 -0.983283 0.559087 0.983792 0.028521 -0.177031 0.276201 0.724955 1 0 1.000000
  0 0.143160 -1.123890 -0.009898 0.836495 0.419661 -0.352365 0.355294 0.696550 1 0 1.000000
w_swm10
  0 0.000000 -0.794339 0.666456 0.000000 0.661372 -0.750058 0.273874 0.682811 1 0 1.000000
  0 0.143160 -1.123890 -0.009898 0.836495 0.419661 -0.352365 0.355294 0.696550 1 0 1.000000
  0 0.000000 -1.313245 -0.288467 0.000000 0.501389 -0.865222 0.396122 0.666806 1 0 1.000000
w_swm10
  0 0.000000 -1.313245 -0.288467 0.000000 0.501389 -0.865222 0.396122 0.666806 1 0 1.000000
  0 0.143160 -1.123890 -0.009898 0.836495 0.419661 -0.352365 0.355294 0.696550 1 0 1.000000
  0 0.162916 -1.657651 -0.333895 0.499095 -0.721317 -0.480215 0.437873 0.690055 1 0 1.000000
w_swm10
  0 0.000000 -2.707876 -0.063355 0.000000 -0.497037 -0.867729 0.587243 0.665415 1 0 1.000000
  0 0.000000 -1.313245 -0.288467 0.000000 0.501389 -0.865222 0.396122 0.666806 1 0 1.000000
  0 0.162916 -1.657651 -0.333895 0.499095 -0.721317 -0.480215 0.437873 0.690055 1 0 1.000000
w_swm10
  0 0.000000 -2.707876 -0.063355 0.000000 -0.497037 -0.867729 0.587243 0.665415 1 0 1.000000
  0 0.162916 -1.657651 -0.333895 0.499095 -0.721317 -0.480215 0.437873 0.690055 1 0 1.000000
  0 0.143570 -2.819149 0.039170 0.788505 -0.481743 -0.382339 0.603949 0.694806 1 0 1.000000
w_swm10
  0 0.000000 -3.176355 0.934300 0.000000 -0.945935 -0.324357 0.711299 0.683736 1 0 1.000000
  0 0.000000 -2.707876 -0.063355 0.000000 -0.497037 -0.867729 0.587243 0.665415 1 0 1.000000
  0 0.143570 -2.819149 0.039170 0.788505 -0.481743 -0.382339 0.603949 0.694806 1 0 1.000000
w_swm10
  0 0.000000 -3.176355 0.934300 0.000000 -0.945935 -0.324357 0.711299 0.683736 1 0 1.000000
  0 0.143570 -2.819149 0.039170 0.788505 -0.481743 -0.382339 0.603949 0.694806 1 0 1.000000
  0 0.311149 -3.022751 0.896413 0.780876 -0.014374 -0.624521 0.706457 0.724955 1 0 1.000000
w_swm10
  0 0.122887 -0.132756 3.120192 0.000000 -0.389421 0.921060 0.768706 0.502909 1 0 1.000000
  0 0.122887 0.263687 3.146637 0.000000 0.052131 0.998640 0.768701 0.556776 1 0 1.000000
  0 -0.122887 0.263687 3.146637 0.000000 0.052131 0.998640 0.801845 0.556776 1 0 1.000000
w_swm10
  0 0.122887 -0.132756 3.120192 0.000000 -0.389421 0.921060 0.768706 0.502909 1 0 1.000000
  0 -0.122887 0.263687 3.146637 0.000000 0.052131 0.998640 0.801845 0.556776 1 0 1.000000
  0 -0.122887 -0.132756 3.120192 0.000000 -0.389421 0.921060 0.801850 0.502909 1 0 1.000000
w_swm10
  0 0.122887 -0.400530 2.917481 0.000000 0.052131 0.998640 0.768701 0.456611 1 0 1.000000
  0 0.122887 -0.132756 3.120192 0.000000 -0.389421 0.921060 0.768706 0.502909 1 0 1.000000
  0 -0.122887 -0.132756 3.120192 0.000000 -0.389421 0.921060 0.801850 0.502909 1 0 1.000000
w_swm10
  0 0.122887 -0.400530 2.917481 0.000000 0.052131 0.998640 0.768701 0.456611 1 0 1.000000
  0 -0.122887 -0.132756 3.120192 0.000000 -0.389421 0.921060 0.801850 0.502909 1 0 1.000000
  0 -0.123980 -0.405832 2.904186 -0.906519 0.032166 0.420938 0.801842 0.461140 1 0 1.000000
w_swm10
  0 0.000000 -1.167977 0.779662 0.000000 -0.754160 -0.656690 1.786861 0.595388 1 0 1.000000
  0 -0.311329 -0.907328 0.822479 -0.695061 -0.035247 -0.718086 1.835418 0.617097 1 0 1.000000
  0 -0.307983 -0.983283 0.559087 -0.983792 0.028521 -0.177031 1.787257 0.643062 1 0 1.000000
w_swm10
  0 0.000000 -1.167977 0.779662 0.000000 -0.754160 -0.656690 1.786861 0.595388 1 0 1.000000
  0 -0.307983 -0.983283 0.559087 -0.983792 0.028521 -0.177031 1.787257 0.643062 1 0 1.000000
  0 -0.143160 -1.123890 -0.009898 -0.836495 0.419661 -0.352365 1.699748 0.653668 1 0 1.000000
w_swm10
  0 0.000000 -1.167977 0.779662 0.000000 -0.754160 -0.656690 1.786861 0.595388 1 0 1.000000
  0 -0.143160 -1.123890 -0.009898 -0.836495 0.419661 -0.352365 1.699748 0.653668 1 0 1.000000
  0 0.000000 -1.175568 0.026640 0.000000 -0.836877 0.547391 1.692553 0.628101 1 0 1.000000
w_swm10
  0 0.000000 -1.175568 0.026640 0.000000 -0.836877 0.547391 1.692553 0.628101 1 0 1.000000
  0 -0.143160 -1.123890 -0.009898 -0.836495 0.419661 -0.352365 1.699748 0.653668 1 0 1.000000
  0 -0.162916 -1.657651 -0.333895 -0.499095 -0.721317 -0.480215 1.621200 0.661429 1 0 1.000000
w_swm10
  0 0.000000 -1.175568 0.026640 0.000000 -0.836877 0.547391 1.692553 0.628101 1 0 1.000000
  0 -0.162916 -1.657651 -0.333895 -0.499095 -0.721317 -0.480215 1.621200 0.661429 1 0 1.000000
  0 0.000000 -1.678182 -0.254480 0.000000 -0.133113 0.991101 1.616814 0.634743 1 0 1.000000
w_swm10
  0 0.000000 -1.678182 -0.254480 0.000000 -0.133113 0.991101 1.616814 0.634743 1 0 1.000000
  0 -0.162916 -1.657651 -0.333895 -0.499095 -0.721317 -0.480215 1.621200 0.661429 1 0 1.000000
  0 -0.143570 -2.819149 0.039170 -0.788505 -0.481743 -0.382340 1.461460 0.641870 1 0 1.000000
w_swm10
  0 0.000000 -1.678182 -0.254480 0.000000 -0.133113 0.991101 1.616814 0.634743 1 0 1.000000
  0 -0.143570 -2.819149 0.039170 -0.788505 -0.481743 -0.382340 1.461460 0.641870 1 0 1.000000
  0 0.000000 -2.662682 0.004130 0.000000 0.474118 0.880461 1.483019 0.619737 1 0 1.000000
w_swm10
  0 -0.143570 -2.819149 0.039170 -0.788505 -0.481743 -0.382340 1.461460 0.641870 1 0 1.000000
  0 0.000000 -2.908907 0.693727 0.000000 0.953818 -0.300384 1.391071 0.589277 1 0 1.000000
  0 0.000000 -2.662682 0.004130 0.000000 0.474118 0.880461 1.483019 0.619737 1 0 1.000000
w_swm10
  0 -0.143570 -2.819149 0.039170 -0.788505 -0.481743 -0.382340 1.461460 0.641870 1 0 1.000000
  0 -0.311149 -3.022751 0.896413 -0.780848 -0.014397 -0.624555 1.359844 0.620924 1 0 1.000000
  0 0.000000 -2.908907 0.693727 0.000000 0.953818 -0.300384 1.391071 0.589277 1 0 1.000000
w_swm10
  0 0.000000 -0.502860 2.628691 0.000000 0.536261 0.844052 1.888914 0.584483 1 0 1.000000
  0 0.000000 0.737698 2.203852 0.004187 0.734897 0.678166 1.880373 0.765689 1 0 1.000000
  0 -0.339660 0.678842 2.202261 -0.416670 0.635345 0.650171 1.919669 0.756871 1 0 1.000000
w_swm10
  0 0.000000 -0.502860 2.628691 0.000000 0.536261 0.844052 1.888914 0.584483 1 0 1.000000
  0 -0.339660 0.678842 2.202261 -0.416670 0.635345 0.650171 1.919669 0.756871 1 0 1.000000
  0 -0.287068 -0.588514 2.598217 -0.248747 0.574094 0.780091 1.927455 0.576872 1 0 1.000000
w_swm10
  0 -0.287068 -0.588514 2.598217 -0.248747 0.574094 0.780091 1.927455 0.576872 1 0 1.000000
  0 0.000000 -1.042336 3.321710 0.000000 0.806936 0.590639 1.880340 0.469308 1 0 1.000000
  0 0.000000 -0.502860 2.628691 0.000000 0.536261 0.844052 1.888914 0.584483 1 0 1.000000
w_swm10
  0 -0.287068 -0.588514 2.598217 -0.248747 0.574094 0.780091 1.927455 0.576872 1 0 1.000000
  0 -0.107955 -1.126384 3.401153 -0.013480 0.382270 0.923952 1.893019 0.462237 1 0 1.000000
  0 0.000000 -1.042336 3.321710 0.000000 0.806936 0.590639 1.880340 0.469308 1 0 1.000000
w_swm10
  0 -0.287068 -0.588514 2.598217 -0.248747 0.574094 0.780091 1.927455 0.576872 1 0 1.000000
  0 -0.308048 -1.182939 3.376913 -0.214406 0.371380 0.903386 1.920620 0.458311 1 0 1.000000
  0 -0.107955 -1.126384 3.401153 -0.013480 0.382270 0.923952 1.893019 0.462237 1 0 1.000000
w_swm10
  0 0.269338 -3.819840 1.130626 0.898571 -0.089385 -0.429629 0.836961 0.207599 1 0 1.000000
  0 0.310616 -3.475610 1.672533 0.993500 -0.113779 -0.003402 0.900704 0.214394 1 0 1.000000
  0 0.300751 -3.463064 2.772012 0.995392 0.030322 -0.090966 0.900704 0.108566 1 0 1.000000
w_swm10
  0 0.269338 -3.819840 1.130626 0.898571 -0.089385 -0.429629 0.836961 0.207599 1 0 1.000000
  0 0.300751 -3.463064 2.772012 0.995392 0.030322 -0.090966 0.900704 0.108566 1 0 1.000000
  0 0.320969 -4.163597 2.676842 0.995392 0.030322 -0.090966 0.811580 0.097185 1 0 1.000000
w_swm10
  0 0.320969 -4.163597 2.676842 0.995392 0.030322 -0.090966 0.811580 0.097185 1 0 1.000000
  0 0.300751 -3.463064 2.772012 0.995392 0.030322 -0.090966 0.900704 0.108566 1 0 1.000000
  0 0.368351 -3.477106 3.211392 0.969219 0.009520 0.246014 0.900704 0.011326 1 0 1.000000
w_swm10
  0 0.320969 -4.163597 2.676842 0.995392 0.030322 -0.090966 0.811580 0.097185 1 0 1.000000
  0 0.368351 -3.477106 3.211392 0.969219 0.009520 0.246014 0.900704 0.011326 1 0 1.000000
  0 0.400224 -4.153723 3.025733 0.997863 -0.036279 0.054346 0.811587 0.032853 1 0 1.000000
w_swm10
  0 0.304323 -3.973319 3.334913 0.941646 -0.038263 0.334422 0.822996 0.002016 1 0 1.000000
  0 0.400224 -4.153723 3.025733 0.997863 -0.036279 0.054346 0.811587 0.032853 1 0 1.000000
  0 0.368351 -3.477106 3.211392 0.969219 0.009520 0.246014 0.900704 0.011326 1 0 1.000000
w_swm10
  0 -0.043562 -8.506371 3.355865 0.000000 -1.000000 -0.000001 0.103749 0.981355 1 0 1.000000
  0 -0.326462 -8.506370 2.953696 0.000000 -1.000000 -0.000001 0.090672 0.906247 1 0 1.000000
  0 -0.163231 -8.506370 2.670972 0.000000 -1.000000 -0.000001 0.041779 0.893145 1 0 1.000000
w_swm10
  0 -0.163231 -8.506370 2.670972 0.000000 -1.000000 -0.000001 0.041779 0.893145 1 0 1.000000
  0 0.163231 -8.506371 2.670972 0.000000 -1.000000 -0.000001 0.005988 0.928938 1 0 1.000000
  0 -0.043562 -8.506371 3.355865 0.000000 -1.000000 -0.000001 0.103749 0.981355 1 0 1.000000
w_swm10
  0 0.163231 -8.506371 2.670972 0.000000 -1.000000 -0.000001 0.005988 0.928938 1 0 1.000000
  0 0.326462 -8.506371 2.953696 0.000000 -1.000000 -0.000001 0.019088 0.977831 1 0 1.000000
  0 -0.043562 -8.506371 3.355865 0.000000 -1.000000 -0.000001 0.103749 0.981355 1 0 1.000000
w_swm10
  0 -0.084729 -5.722243 2.435288 -1.000000 0.000003 -0.000004 1.762947 0.794627 1 0 1.000000
  0 0.000000 -5.722243 2.522009 0.000002 -0.004084 0.999992 1.762947 0.816736 1 0 1.000000
  0 0.005848 -3.461768 2.551003 -0.364732 0.034813 0.930461 1.923734 0.816736 1 0 1.000000
w_swm10
  0 -0.084729 -5.722243 2.435288 -1.000000 0.000003 -0.000004 1.762947 0.794627 1 0 1.000000
  0 0.005848 -3.461768 2.551003 -0.364732 0.034813 0.930461 1.923734 0.816736 1 0 1.000000
  0 0.005848 -3.461768 2.318361 -0.361459 0.034917 -0.931734 1.923734 0.772329 1 0 1.000000
w_swm10
  0 0.005848 -5.722243 2.347356 0.000000 0.000000 -1.000000 1.762947 0.772329 1 0 1.000000
  0 -0.084729 -5.722243 2.435288 -1.000000 0.000003 -0.000004 1.762947 0.794627 1 0 1.000000
  0 0.005848 -3.461768 2.318361 -0.361459 0.034917 -0.931734 1.923734 0.772329 1 0 1.000000
w_swm10
  0 -0.269338 -3.819840 1.130626 -0.998120 -0.055464 -0.026068 1.836968 0.207590 1 0 1.000000
  0 -0.300751 -3.463064 2.772012 -0.995392 0.030322 -0.090966 1.900708 0.108561 1 0 1.000000
  0 -0.310616 -3.475610 1.672533 -0.993500 -0.113779 -0.003402 1.900708 0.214385 1 0 1.000000
w_swm10
  0 -0.269338 -3.819840 1.130626 -0.998120 -0.055464 -0.026068 1.836968 0.207590 1 0 1.000000
  0 -0.320969 -4.163597 2.676842 -0.995392 0.030322 -0.090966 1.811588 0.097181 1 0 1.000000
  0 -0.300751 -3.463064 2.772012 -0.995392 0.030322 -0.090966 1.900708 0.108561 1 0 1.000000
w_swm10
  0 -0.368351 -3.477106 3.211392 -0.969224 0.009514 0.245996 1.900708 0.011326 1 0 1.000000
  0 -0.300751 -3.463064 2.772012 -0.995392 0.030322 -0.090966 1.900708 0.108561 1 0 1.000000
  0 -0.320969 -4.163597 2.676842 -0.995392 0.030322 -0.090966 1.811588 0.097181 1 0 1.000000
w_swm10
  0 -0.368351 -3.477106 3.211392 -0.969224 0.009514 0.245996 1.900708 0.011326 1 0 1.000000
  0 -0.320969 -4.163597 2.676842 -0.995392 0.030322 -0.090966 1.811588 0.097181 1 0 1.000000
  0 -0.400224 -4.153721 3.025733 -0.997863 -0.036279 0.054347 1.811574 0.032855 1 0 1.000000
w_swm10
  0 -0.304323 -3.973319 3.334913 -0.941654 -0.038263 0.334400 1.823004 0.002016 1 0 1.000000
  0 -0.368351 -3.477106 3.211392 -0.969224 0.009514 0.245996 1.900708 0.011326 1 0 1.000000
  0 -0.400224 -4.153721 3.025733 -0.997863 -0.036279 0.054347 1.811574 0.032855 1 0 1.000000
w_swm10
  0 0.000000 -1.167977 0.779662 0.000000 -0.754160 -0.656690 0.786852 0.595414 1 0 1.000000
  0 0.307983 -0.983283 0.559087 0.983792 0.028521 -0.177031 0.787248 0.643090 1 0 1.000000
  0 0.311329 -0.907328 0.822479 0.695061 -0.035247 -0.718086 0.835411 0.617124 1 0 1.000000
w_swm10
  0 0.000000 -1.167977 0.779662 0.000000 -0.754160 -0.656690 0.786852 0.595414 1 0 1.000000
  0 0.143160 -1.123890 -0.009898 0.836495 0.419661 -0.352365 0.699735 0.653696 1 0 1.000000
  0 0.307983 -0.983283 0.559087 0.983792 0.028521 -0.177031 0.787248 0.643090 1 0 1.000000
w_swm10
  0 0.000000 -1.167977 0.779662 0.000000 -0.754160 -0.656690 0.786852 0.595414 1 0 1.000000
  0 0.000000 -1.175568 0.026640 0.000000 -0.836877 0.547391 0.692575 0.628059 1 0 1.000000
  0 0.143160 -1.123890 -0.009898 0.836495 0.419661 -0.352365 0.699735 0.653696 1 0 1.000000
w_swm10
  0 0.000000 -1.175568 0.026640 0.000000 -0.836877 0.547391 0.692575 0.628059 1 0 1.000000
  0 0.162916 -1.657651 -0.333895 0.499095 -0.721317 -0.480215 0.621184 0.661458 1 0 1.000000
  0 0.143160 -1.123890 -0.009898 0.836495 0.419661 -0.352365 0.699735 0.653696 1 0 1.000000
w_swm10
  0 0.000000 -1.175568 0.026640 0.000000 -0.836877 0.547391 0.692575 0.628059 1 0 1.000000
  0 0.000000 -1.678182 -0.254480 0.000000 -0.133113 0.991101 0.616840 0.634699 1 0 1.000000
  0 0.162916 -1.657651 -0.333895 0.499095 -0.721317 -0.480215 0.621184 0.661458 1 0 1.000000
w_swm10
  0 0.000000 -1.678182 -0.254480 0.000000 -0.133113 0.991101 0.616840 0.634699 1 0 1.000000
  0 0.143570 -2.819149 0.039170 0.788505 -0.481743 -0.382339 0.461437 0.641899 1 0 1.000000
  0 0.162916 -1.657651 -0.333895 0.499095 -0.721317 -0.480215 0.621184 0.661458 1 0 1.000000
w_swm10
  0 0.000000 -1.678182 -0.254480 0.000000 -0.133113 0.991101 0.616840 0.634699 1 0 1.000000
  0 0.000000 -2.662682 0.004130 0.000000 0.474118 0.880461 0.482996 0.619765 1 0 1.000000
  0 0.143570 -2.819149 0.039170 0.788505 -0.481743 -0.382339 0.461437 0.641899 1 0 1.000000
w_swm10
  0 0.000000 -2.908907 0.693727 0.000000 0.953818 -0.300384 0.391113 0.589237 1 0 1.000000
  0 0.143570 -2.819149 0.039170 0.788505 -0.481743 -0.382339 0.461437 0.641899 1 0 1.000000
  0 0.000000 -2.662682 0.004130 0.000000 0.474118 0.880461 0.482996 0.619765 1 0 1.000000
w_swm10
  0 0.000000 -2.908907 0.693727 0.000000 0.953818 -0.300384 0.391113 0.589237 1 0 1.000000
  0 0.311149 -3.022751 0.896413 0.780876 -0.014374 -0.624521 0.359816 0.620951 1 0 1.000000
  0 0.143570 -2.819149 0.039170 0.788505 -0.481743 -0.382339 0.461437 0.641899 1 0 1.000000
w_swm10
  0 -0.411906 -3.329631 1.765497 -0.559781 -0.004982 -0.828626 1.762751 0.350469 1 0 1.000000
  0 0.000000 -1.542862 1.660367 0.000000 -0.000001 -1.000000 1.536910 0.296931 1 0 1.000000
  0 0.000000 -3.329631 1.660367 0.000000 -0.000001 -1.000000 1.762753 0.296930 1 0 1.000000
w_swm10
  0 -0.411906 -3.329631 1.765497 -0.559781 -0.004982 -0.828626 1.762751 0.350469 1 0 1.000000
  0 -0.730206 -1.542967 2.056777 -0.907984 0.042488 -0.416844 1.536940 0.403694 1 0 1.000000
  0 0.000000 -1.542862 1.660367 0.000000 -0.000001 -1.000000 1.536910 0.296931 1 0 1.000000
w_swm10
  0 -0.765090 -3.329631 2.254826 -0.972972 -0.009560 -0.230726 1.762751 0.426992 1 0 1.000000
  0 -0.730206 -1.542967 2.056777 -0.907984 0.042488 -0.416844 1.536940 0.403694 1 0 1.000000
  0 -0.411906 -3.329631 1.765497 -0.559781 -0.004982 -0.828626 1.762751 0.350469 1 0 1.000000
w_swm10
  0 -0.593560 -3.329340 3.011941 -0.751437 0.025123 0.659326 1.762769 0.523787 1 0 1.000000
  0 -0.730206 -1.542967 2.056777 -0.907984 0.042488 -0.416844 1.536940 0.403694 1 0 1.000000
  0 -0.765090 -3.329631 2.254826 -0.972972 -0.009560 -0.230726 1.762751 0.426992 1 0 1.000000
w_swm10
  0 -0.593560 -3.329340 3.011941 -0.751437 0.025123 0.659326 1.762769 0.523787 1 0 1.000000
  0 -0.546273 -1.542862 2.985884 -0.707481 0.000000 0.706732 1.536910 0.526350 1 0 1.000000
  0 -0.730206 -1.542967 2.056777 -0.907984 0.042488 -0.416844 1.536940 0.403694 1 0 1.000000
w_swm10
  0 -0.593560 -3.329340 3.011941 -0.751437 0.025123 0.659326 1.762769 0.523787 1 0 1.000000
  0 0.000000 -1.542862 3.213307 0.000000 0.000000 1.000000 1.536910 0.602593 1 0 1.000000
  0 -0.546273 -1.542862 2.985884 -0.707481 0.000000 0.706732 1.536910 0.526350 1 0 1.000000
w_swm10
  0 -0.593560 -3.329340 3.011941 -0.751437 0.025123 0.659326 1.762769 0.523787 1 0 1.000000
  0 0.000000 -3.329631 3.213307 0.000000 0.000000 1.000000 1.762754 0.602593 1 0 1.000000
  0 0.000000 -1.542862 3.213307 0.000000 0.000000 1.000000 1.536910 0.602593 1 0 1.000000
w_swm10
  0 0.000000 -1.542862 1.660367 0.000000 -0.000001 -1.000000 0.536925 0.296921 1 0 1.000000
  0 0.411906 -3.329631 1.765497 0.559781 -0.004982 -0.828626 0.762767 0.350445 1 0 1.000000
  0 0.000000 -3.329631 1.660367 0.000000 -0.000001 -1.000000 0.762761 0.296920 1 0 1.000000
w_swm10
  0 0.000000 -1.542862 1.660367 0.000000 -0.000001 -1.000000 0.536925 0.296921 1 0 1.000000
  0 0.730206 -1.542967 2.056777 0.907984 0.042488 -0.416844 0.536920 0.403712 1 0 1.000000
  0 0.411906 -3.329631 1.765497 0.559781 -0.004982 -0.828626 0.762767 0.350445 1 0 1.000000
w_swm10
  0 0.730206 -1.542967 2.056777 0.907984 0.042488 -0.416844 0.536920 0.403712 1 0 1.000000
  0 0.765090 -3.329631 2.254826 0.972972 -0.009560 -0.230726 0.762767 0.426962 1 0 1.000000
  0 0.411906 -3.329631 1.765497 0.559781 -0.004982 -0.828626 0.762767 0.350445 1 0 1.000000
w_swm10
  0 0.730206 -1.542967 2.056777 0.907984 0.042488 -0.416844 0.536920 0.403712 1 0 1.000000
  0 0.593560 -3.329340 3.011941 0.751437 0.025123 0.659326 0.762759 0.523810 1 0 1.000000
  0 0.765090 -3.329631 2.254826 0.972972 -0.009560 -0.230726 0.762767 0.426962 1 0 1.000000
w_swm10
  0 0.730206 -1.542967 2.056777 0.907984 0.042488 -0.416844 0.536920 0.403712 1 0 1.000000
  0 0.546273 -1.542862 2.985884 0.707481 0.000000 0.706732 0.536925 0.526333 1 0 1.000000
  0 0.593560 -3.329340 3.011941 0.751437 0.025123 0.659326 0.762759 0.523810 1 0 1.000000
w_swm10
  0 0.593560 -3.329340 3.011941 0.751437 0.025123 0.659326 0.762759 0.523810 1 0 1.000000
  0 0.546273 -1.542862 2.985884 0.707481 0.000000 0.706732 0.536925 0.526333 1 0 1.000000
  0 0.000000 -1.542862 3.213307 0.000000 0.000000 1.000000 0.536925 0.602574 1 0 1.000000
w_swm10
  0 0.593560 -3.329340 3.011941 0.751437 0.025123 0.659326 0.762759 0.523810 1 0 1.000000
  0 0.000000 -1.542862 3.213307 0.000000 0.000000 1.000000 0.536925 0.602574 1 0 1.000000
  0 0.000000 -3.329631 3.213307 0.000000 0.000000 1.000000 0.762761 0.602574 1 0 1.000000
w_swm10
  0 0.000000 -1.542862 3.213307 0.000000 1.000000 0.000000 0.298570 0.798765 1 0 1.000000
  0 0.546273 -1.542862 2.985884 0.000000 1.000000 0.000000 0.269825 0.729720 1 0 1.000000
  0 0.354491 -1.504245 2.504418 0.071263 0.997455 0.002223 0.234941 0.772396 1 0 1.000000
w_swm10
  0 0.354491 -1.504245 2.504418 0.071263 0.997455 0.002223 0.234941 0.772396 1 0 1.000000
  0 0.546273 -1.542862 2.985884 0.000000 1.000000 0.000000 0.269825 0.729720 1 0 1.000000
  0 0.730206 -1.542967 2.056777 0.009810 0.999096 -0.041350 0.160165 0.719394 1 0 1.000000
w_swm10
  0 0.354491 -1.504245 2.504418 0.071263 0.997455 0.002223 0.234941 0.772396 1 0 1.000000
  0 0.730206 -1.542967 2.056777 0.009810 0.999096 -0.041350 0.160165 0.719394 1 0 1.000000
  0 0.264194 -1.542862 2.169868 0.000000 1.000000 0.000000 0.166685 0.765373 1 0 1.000000
w_swm10
  0 0.000000 -1.542862 2.059286 0.000000 1.000000 0.000000 0.152709 0.798765 1 0 1.000000
  0 0.264194 -1.542862 2.169868 0.000000 1.000000 0.000000 0.166685 0.765373 1 0 1.000000
  0 0.730206 -1.542967 2.056777 0.009810 0.999096 -0.041350 0.160165 0.719394 1 0 1.000000
w_swm10
  0 0.000000 -1.542862 2.059286 0.000000 1.000000 0.000000 0.152709 0.798765 1 0 1.000000
  0 0.730206 -1.542967 2.056777 0.009810 0.999096 -0.041350 0.160165 0.719394 1 0 1.000000
  0 0.000000 -1.542862 1.660367 0.000000 1.000000 0.000000 0.102288 0.798765 1 0 1.000000
w_swm10
  0 0.311329 -0.907328 0.822479 0.695061 -0.035247 -0.718086 0.939829 0.616432 1 0 1.000000
  0 0.000000 -2.339394 1.152730 0.000000 0.078904 -0.996882 0.973698 0.759501 1 0 1.000000
  0 0.000000 -1.167977 0.779662 0.000000 -0.754160 -0.656690 0.982133 0.619650 1 0 1.000000
w_swm10
  0 0.311329 -0.907328 0.822479 0.695061 -0.035247 -0.718086 0.939829 0.616432 1 0 1.000000
  0 0.305764 -2.512987 1.188026 0.334498 0.297059 -0.894353 0.931485 0.780584 1 0 1.000000
  0 0.000000 -2.339394 1.152730 0.000000 0.078904 -0.996882 0.973698 0.759501 1 0 1.000000
w_swm10
  0 0.000000 -2.908907 0.693727 0.000000 0.953818 -0.300384 0.982134 0.843240 1 0 1.000000
  0 0.000000 -2.339394 1.152730 0.000000 0.078904 -0.996882 0.973698 0.759501 1 0 1.000000
  0 0.305764 -2.512987 1.188026 0.334498 0.297059 -0.894353 0.931485 0.780584 1 0 1.000000
w_swm10
  0 0.000000 -2.908907 0.693727 0.000000 0.953818 -0.300384 0.982134 0.843240 1 0 1.000000
  0 0.305764 -2.512987 1.188026 0.334498 0.297059 -0.894353 0.931485 0.780584 1 0 1.000000
  0 0.311149 -3.022751 0.896413 0.780876 -0.014374 -0.624521 0.941328 0.854404 1 0 1.000000
w_swm10
  0 0.311149 -3.022751 0.896413 1.000000 0.000000 0.000000 0.457182 0.536186 1 0 1.000000
  0 0.305764 -2.512987 1.188026 1.000000 0.000000 0.000000 0.464957 0.423289 1 0 1.000000
  0 0.310616 -3.475610 1.672533 1.000000 0.000000 0.000000 0.532036 0.553473 1 0 1.000000
w_swm10
  0 0.304709 -1.471400 1.648028 0.901146 -0.330491 0.280554 0.537005 0.289458 1 0 1.000000
  0 0.310616 -3.475610 1.672533 1.000000 0.000000 0.000000 0.532036 0.553473 1 0 1.000000
  0 0.305764 -2.512987 1.188026 1.000000 0.000000 0.000000 0.464957 0.423289 1 0 1.000000
w_swm10
  0 0.304709 -1.471400 1.648028 0.901146 -0.330491 0.280554 0.537005 0.289458 1 0 1.000000
  0 0.305764 -2.512987 1.188026 1.000000 0.000000 0.000000 0.464957 0.423289 1 0 1.000000
  0 0.311329 -0.907328 0.822479 1.000000 0.000000 0.000000 0.437943 0.210424 1 0 1.000000
w_swm10
  0 0.304709 -1.471400 1.648028 0.901146 -0.330491 0.280554 0.537005 0.289458 1 0 1.000000
  0 0.311329 -0.907328 0.822479 1.000000 0.000000 0.000000 0.437943 0.210424 1 0 1.000000
  0 0.314990 -0.107209 1.632102 1.000000 0.000000 0.000000 0.526173 0.092044 1 0 1.000000
w_swm10
  0 0.314990 -0.107209 1.632102 1.000000 0.000000 0.000000 0.526173 0.092044 1 0 1.000000
  0 0.311329 -0.907328 0.822479 1.000000 0.000000 0.000000 0.437943 0.210424 1 0 1.000000
  0 0.374318 0.006853 0.772875 0.996050 -0.065369 0.060098 0.417068 0.094272 1 0 1.000000
w_swm10
  0 0.314990 -0.107209 1.632102 1.000000 0.000000 0.000000 0.526173 0.092044 1 0 1.000000
  0 0.307535 -1.201509 2.436376 0.941042 0.337369 -0.024943 0.637678 0.260201 1 0 1.000000
  0 0.304709 -1.471400 1.648028 0.901146 -0.330491 0.280554 0.537005 0.289458 1 0 1.000000
w_swm10
  0 0.308048 -1.182939 3.376913 1.000000 0.000001 -0.000001 0.757848 0.243158 1 0 1.000000
  0 0.291562 -1.477721 3.181973 0.997428 -0.003018 -0.071607 0.738629 0.289973 1 0 1.000000
  0 0.307535 -1.201509 2.436376 0.941042 0.337369 -0.024943 0.637678 0.260201 1 0 1.000000
w_swm10
  0 0.308048 -1.182939 3.376913 1.000000 0.000001 -0.000001 0.757848 0.243158 1 0 1.000000
  0 0.307535 -1.201509 2.436376 0.941042 0.337369 -0.024943 0.637678 0.260201 1 0 1.000000
  0 0.287068 -0.588514 2.598217 0.998727 0.017905 0.047165 0.665036 0.168307 1 0 1.000000
w_swm10
  0 0.314990 -0.107209 1.632102 1.000000 0.000000 0.000000 0.526173 0.092044 1 0 1.000000
  0 0.287068 -0.588514 2.598217 0.998727 0.017905 0.047165 0.665036 0.168307 1 0 1.000000
  0 0.307535 -1.201509 2.436376 0.941042 0.337369 -0.024943 0.637678 0.260201 1 0 1.000000
w_swm10
  0 0.308107 0.684769 2.193398 0.999976 0.000000 0.006929 0.607624 0.002026 1 0 1.000000
  0 0.287068 -0.588514 2.598217 0.998727 0.017905 0.047165 0.665036 0.168307 1 0 1.000000
  0 0.314990 -0.107209 1.632102 1.000000 0.000000 0.000000 0.526173 0.092044 1 0 1.000000
w_swm10
  0 -0.307983 -0.983283 0.559087 -0.983792 0.028521 -0.177031 1.822655 0.593776 1 0 1.000000
  0 -0.311329 -0.907328 0.822479 -0.695061 -0.035247 -0.718086 1.814842 0.532589 1 0 1.000000
  0 0.000000 -0.794339 0.666456 0.000000 0.635350 -0.772224 1.860485 0.566560 1 0 1.000000
w_swm10
  0 0.000000 -0.794339 0.666456 0.000000 0.635350 -0.772224 1.860485 0.566560 1 0 1.000000
  0 -0.311329 -0.907328 0.822479 -0.695061 -0.035247 -0.718086 1.814842 0.532589 1 0 1.000000
  0 0.000000 -0.161490 0.746567 0.000000 -0.376992 -0.926217 1.861457 0.482092 1 0 1.000000
w_swm10
  0 0.000000 -0.161490 0.746567 0.000000 -0.376992 -0.926217 1.861457 0.482092 1 0 1.000000
  0 -0.311329 -0.907328 0.822479 -0.695061 -0.035247 -0.718086 1.814842 0.532589 1 0 1.000000
  0 -0.374318 0.006853 0.772875 -0.662060 -0.558641 -0.499597 1.822273 0.456783 1 0 1.000000
w_swm10
  0 -0.311149 -3.022751 0.896413 -0.872389 -0.137430 -0.469095 1.457206 0.536162 1 0 1.000000
  0 -0.310616 -3.475610 1.672533 -0.998233 -0.059408 0.000725 1.532020 0.553492 1 0 1.000000
  0 -0.305764 -2.512987 1.188026 -0.999996 -0.002317 -0.001613 1.464981 0.423270 1 0 1.000000
w_swm10
  0 -0.304709 -1.471400 1.648028 -0.901689 -0.331469 0.277643 1.537026 0.289446 1 0 1.000000
  0 -0.305764 -2.512987 1.188026 -0.999996 -0.002317 -0.001613 1.464981 0.423270 1 0 1.000000
  0 -0.310616 -3.475610 1.672533 -0.998233 -0.059408 0.000725 1.532020 0.553492 1 0 1.000000
w_swm10
  0 -0.304709 -1.471400 1.648028 -0.901689 -0.331469 0.277643 1.537026 0.289446 1 0 1.000000
  0 -0.311329 -0.907328 0.822479 -0.999996 -0.002317 -0.001613 1.437968 0.210415 1 0 1.000000
  0 -0.305764 -2.512987 1.188026 -0.999996 -0.002317 -0.001613 1.464981 0.423270 1 0 1.000000
w_swm10
  0 -0.304709 -1.471400 1.648028 -0.901689 -0.331469 0.277643 1.537026 0.289446 1 0 1.000000
  0 -0.314990 -0.107209 1.632102 -0.999996 -0.002317 -0.001613 1.526194 0.092040 1 0 1.000000
  0 -0.311329 -0.907328 0.822479 -0.999996 -0.002317 -0.001613 1.437968 0.210415 1 0 1.000000
w_swm10
  0 -0.314990 -0.107209 1.632102 -0.999996 -0.002317 -0.001613 1.526194 0.092040 1 0 1.000000
  0 -0.374318 0.006853 0.772875 -0.996050 -0.065369 0.060098 1.417094 0.094267 1 0 1.000000
  0 -0.311329 -0.907328 0.822479 -0.999996 -0.002317 -0.001613 1.437968 0.210415 1 0 1.000000
w_swm10
  0 -0.314990 -0.107209 1.632102 -0.999996 -0.002317 -0.001613 1.526194 0.092040 1 0 1.000000
  0 -0.304709 -1.471400 1.648028 -0.901689 -0.331469 0.277643 1.537026 0.289446 1 0 1.000000
  0 -0.307535 -1.201509 2.436376 -0.925400 0.378557 -0.018162 1.637694 0.260190 1 0 1.000000
w_swm10
  0 -0.307535 -1.201509 2.436376 -0.925400 0.378557 -0.018162 1.637694 0.260190 1 0 1.000000
  0 -0.291562 -1.477721 3.181973 -0.998120 -0.055464 -0.026068 1.738641 0.289961 1 0 1.000000
  0 -0.308048 -1.182939 3.376913 -1.000000 0.000003 -0.000004 1.757831 0.243174 1 0 1.000000
w_swm10
  0 -0.307535 -1.201509 2.436376 -0.925400 0.378557 -0.018162 1.637694 0.260190 1 0 1.000000
  0 -0.308048 -1.182939 3.376913 -1.000000 0.000003 -0.000004 1.757831 0.243174 1 0 1.000000
  0 -0.287068 -0.588514 2.598217 -0.999996 -0.002317 -0.001613 1.665051 0.168300 1 0 1.000000
w_swm10
  0 -0.314990 -0.107209 1.632102 -0.999996 -0.002317 -0.001613 1.526194 0.092040 1 0 1.000000
  0 -0.307535 -1.201509 2.436376 -0.925400 0.378557 -0.018162 1.637694 0.260190 1 0 1.000000
  0 -0.287068 -0.588514 2.598217 -0.999996 -0.002317 -0.001613 1.665051 0.168300 1 0 1.000000
w_swm10
  0 -0.308107 0.684769 2.193398 -0.999976 0.000000 0.006929 1.607611 0.002026 1 0 1.000000
  0 -0.314990 -0.107209 1.632102 -0.999996 -0.002317 -0.001613 1.526194 0.092040 1 0 1.000000
  0 -0.287068 -0.588514 2.598217 -0.999996 -0.002317 -0.001613 1.665051 0.168300 1 0 1.000000
w_swm10
  0 0.005848 -3.461768 2.318361 -0.361459 0.034917 -0.931734 0.923737 0.772304 1 0 1.000000
  0 0.090577 -5.722243 2.435288 1.000000 0.000000 0.000000 0.762955 0.794601 1 0 1.000000
  0 0.005848 -5.722243 2.347356 0.000000 0.000000 -1.000000 0.762955 0.772304 1 0 1.000000
w_swm10
  0 0.113724 -3.461768 2.435488 0.999976 0.000000 0.006929 0.923737 0.794601 1 0 1.000000
  0 0.090577 -5.722243 2.435288 1.000000 0.000000 0.000000 0.762955 0.794601 1 0 1.000000
  0 0.005848 -3.461768 2.318361 -0.361459 0.034917 -0.931734 0.923737 0.772304 1 0 1.000000
w_swm10
  0 0.113724 -3.461768 2.435488 0.999976 0.000000 0.006929 0.923737 0.794601 1 0 1.000000
  0 0.000000 -5.722243 2.522009 0.000002 -0.004084 0.999992 0.762955 0.816710 1 0 1.000000
  0 0.090577 -5.722243 2.435288 1.000000 0.000000 0.000000 0.762955 0.794601 1 0 1.000000
w_swm10
  0 0.005848 -3.461768 2.551003 -0.364732 0.034813 0.930461 0.923737 0.816710 1 0 1.000000
  0 0.000000 -5.722243 2.522009 0.000002 -0.004084 0.999992 0.762955 0.816710 1 0 1.000000
  0 0.113724 -3.461768 2.435488 0.999976 0.000000 0.006929 0.923737 0.794601 1 0 1.000000
w_swm10
  0 -0.086027 -5.720410 2.586247 -0.999996 -0.002317 -0.001613 1.837047 0.764826 1 0 1.000000
  0 -0.085589 -6.279335 2.328296 -0.840173 -0.191150 -0.507515 1.762983 0.728187 1 0 1.000000
  0 0.097723 -6.279336 2.586247 0.580884 -0.228492 0.781259 1.762983 0.764826 1 0 1.000000
w_swm10
  0 -0.085589 -6.279335 2.328296 -0.840173 -0.191150 -0.507515 1.762983 0.728187 1 0 1.000000
  0 -0.086027 -5.720410 2.586247 -0.999996 -0.002317 -0.001613 1.837047 0.764826 1 0 1.000000
  0 0.005848 -5.720410 2.294883 0.042055 0.223361 -0.973828 1.837047 0.715286 1 0 1.000000
w_swm10
  0 -0.085589 -6.279335 2.328296 -0.840173 -0.191150 -0.507515 1.762983 0.728187 1 0 1.000000
  0 0.005848 -5.720410 2.294883 0.042055 0.223361 -0.973828 1.837047 0.715286 1 0 1.000000
  0 0.097285 -6.279336 2.328296 0.749591 0.083375 -0.656629 1.762983 0.715286 1 0 1.000000
w_swm10
  0 0.122887 -0.266425 2.774390 1.000000 0.000001 -0.000001 0.765480 0.186512 1 0 1.000000
  0 0.122887 0.270700 3.110097 1.000000 0.000001 -0.000001 0.788225 0.107759 1 0 1.000000
  0 0.122887 -0.132756 3.120192 1.000000 0.000001 -0.000001 0.804119 0.158470 1 0 1.000000
w_swm10
  0 0.122887 -0.400530 2.917481 0.999976 0.000000 0.006929 0.791997 0.201411 1 0 1.000000
  0 0.122887 -0.266425 2.774390 1.000000 0.000001 -0.000001 0.765480 0.186512 1 0 1.000000
  0 0.122887 -0.132756 3.120192 1.000000 0.000001 -0.000001 0.804119 0.158470 1 0 1.000000
w_swm10
  0 0.000000 0.247275 2.343027 -0.000007 0.905883 0.423527 0.691936 0.141252 1 0 1.000000
  0 0.122887 -0.266425 2.774390 1.000000 0.000001 -0.000001 0.765480 0.186512 1 0 1.000000
  0 0.122887 -0.515200 2.535987 0.999976 0.000000 0.006929 0.747494 0.231502 1 0 1.000000
w_swm10
  0 0.122887 -0.266425 2.774390 1.000000 0.000001 -0.000001 0.765480 0.186512 1 0 1.000000
  0 0.122887 -0.400530 2.917481 0.999976 0.000000 0.006929 0.791997 0.201411 1 0 1.000000
  0 0.122887 -0.515200 2.535987 0.999976 0.000000 0.006929 0.747494 0.231502 1 0 1.000000
w_swm10
  0 0.122887 -0.515200 2.535987 0.999976 0.000000 0.006929 0.747494 0.231502 1 0 1.000000
  0 0.122887 -0.400530 2.917481 0.999976 0.000000 0.006929 0.791997 0.201411 1 0 1.000000
  0 0.122887 -0.879200 2.906556 0.999976 0.000000 0.006929 0.809825 0.263469 1 0 1.000000
w_swm10
  0 0.122887 -0.400530 2.917481 0.999976 0.000000 0.006929 0.791997 0.201411 1 0 1.000000
  0 0.122887 -1.025312 3.154670 0.923258 -0.108068 0.368668 0.847637 0.272308 1 0 1.000000
  0 0.122887 -0.879200 2.906556 0.999976 0.000000 0.006929 0.809825 0.263469 1 0 1.000000
w_swm10
  0 0.122887 -0.400530 2.917481 0.999976 0.000000 0.006929 0.791997 0.201411 1 0 1.000000
  0 0.000000 -0.746516 3.327682 -0.003227 0.277670 0.960671 0.847500 0.227264 1 0 1.000000
  0 0.122887 -1.025312 3.154670 0.923258 -0.108068 0.368668 0.847637 0.272308 1 0 1.000000
w_swm10
  0 -0.122887 -0.266425 2.774390 -0.963169 0.215282 0.161115 0.693300 0.081551 1 0 1.000000
  0 -0.122887 -0.132756 3.120192 -1.000000 0.000003 -0.000004 0.732341 0.054053 1 0 1.000000
  0 -0.122887 0.270700 3.110097 -1.000000 0.000003 -0.000004 0.717164 0.003123 1 0 1.000000
w_swm10
  0 -0.123980 -0.405832 2.904186 -0.906519 0.032166 0.420938 0.722751 0.095452 1 0 1.000000
  0 -0.122887 -0.132756 3.120192 -1.000000 0.000003 -0.000004 0.732341 0.054053 1 0 1.000000
  0 -0.122887 -0.266425 2.774390 -0.963169 0.215282 0.161115 0.693300 0.081551 1 0 1.000000
w_swm10
  0 0.000000 0.247275 2.343027 -0.000007 0.905883 0.423527 0.620411 0.035251 1 0 1.000000
  0 -0.122887 -0.515200 2.535987 -0.999976 0.000000 0.006929 0.674691 0.126277 1 0 1.000000
  0 -0.122887 -0.266425 2.774390 -0.963169 0.215282 0.161115 0.693300 0.081551 1 0 1.000000
w_swm10
  0 -0.122887 -0.515200 2.535987 -0.999976 0.000000 0.006929 0.674691 0.126277 1 0 1.000000
  0 -0.123980 -0.405832 2.904186 -0.906519 0.032166 0.420938 0.722751 0.095452 1 0 1.000000
  0 -0.122887 -0.266425 2.774390 -0.963169 0.215282 0.161115 0.693300 0.081551 1 0 1.000000
w_swm10
  0 -0.122887 -0.515200 2.535987 -0.999976 0.000000 0.006929 0.674691 0.126277 1 0 1.000000
  0 -0.122887 -0.879200 2.906556 -0.999976 0.000000 0.006929 0.736564 0.159120 1 0 1.000000
  0 -0.123980 -0.405832 2.904186 -0.906519 0.032166 0.420938 0.722751 0.095452 1 0 1.000000
w_swm10
  0 -0.123980 -0.405832 2.904186 -0.906519 0.032166 0.420938 0.722751 0.095452 1 0 1.000000
  0 -0.122887 -0.879200 2.906556 -0.999976 0.000000 0.006929 0.736564 0.159120 1 0 1.000000
  0 -0.122887 -1.025312 3.154670 -0.923258 -0.108068 0.368668 0.774247 0.168492 1 0 1.000000
w_swm10
  0 -0.123980 -0.405832 2.904186 -0.906519 0.032166 0.420938 0.722751 0.095452 1 0 1.000000
  0 -0.122887 -1.025312 3.154670 -0.923258 -0.108068 0.368668 0.774247 0.168492 1 0 1.000000
  0 0.000000 -0.746516 3.327682 -0.003227 0.277670 0.960671 0.774744 0.123449 1 0 1.000000
w_swm10
  0 0.400224 -4.153723 3.025733 0.909542 -0.170621 0.378974 0.044797 0.419969 1 0 1.000000
  0 0.038951 -4.122766 3.358638 0.227651 -0.109845 0.967527 0.003441 0.419425 1 0 1.000000
  0 -0.037714 -8.506371 3.355865 -0.065309 -0.035129 0.997247 0.007949 0.005770 1 0 1.000000
w_swm10
  0 0.400224 -4.153723 3.025733 0.909542 -0.170621 0.378974 0.044797 0.419969 1 0 1.000000
  0 -0.037714 -8.506371 3.355865 -0.065309 -0.035129 0.997247 0.007949 0.005770 1 0 1.000000
  0 0.326462 -8.506371 2.953696 0.999976 0.000000 0.006929 0.046682 0.006279 1 0 1.000000
w_swm10
  0 0.400224 -4.153723 3.025733 0.909542 -0.170621 0.378974 0.044797 0.419969 1 0 1.000000
  0 0.326462 -8.506371 2.953696 0.999976 0.000000 0.006929 0.046682 0.006279 1 0 1.000000
  0 0.163231 -8.506371 2.670972 0.505656 0.001066 -0.862735 0.077484 0.006504 1 0 1.000000
w_swm10
  0 0.320969 -4.163597 2.676842 0.733559 -0.024738 -0.679175 0.064075 0.420110 1 0 1.000000
  0 0.400224 -4.153723 3.025733 0.909542 -0.170621 0.378974 0.044797 0.419969 1 0 1.000000
  0 0.163231 -8.506371 2.670972 0.505656 0.001066 -0.862735 0.077484 0.006504 1 0 1.000000
w_swm10
  0 0.163231 -8.506371 2.670972 0.505656 0.001066 -0.862735 0.077484 0.006504 1 0 1.000000
  0 0.000000 -4.148189 2.580674 0.000000 0.000000 -1.000000 0.077684 0.420209 1 0 1.000000
  0 0.320969 -4.163597 2.676842 0.733559 -0.024738 -0.679175 0.064075 0.420110 1 0 1.000000
w_swm10
  0 0.097723 -5.720410 2.586247 0.887845 0.055947 0.456728 0.086446 0.268652 1 0 1.000000
  0 0.000000 -4.148189 2.580674 0.000000 0.000000 -1.000000 0.077684 0.420209 1 0 1.000000
  0 0.163231 -8.506371 2.670972 0.505656 0.001066 -0.862735 0.077484 0.006504 1 0 1.000000
w_swm10
  0 0.097723 -5.720410 2.586247 0.887845 0.055947 0.456728 0.086446 0.268652 1 0 1.000000
  0 0.163231 -8.506371 2.670972 0.505656 0.001066 -0.862735 0.077484 0.006504 1 0 1.000000
  0 0.097723 -6.279336 2.586247 0.403647 -0.015449 -0.914784 0.086679 0.214765 1 0 1.000000
w_swm10
  0 -0.157383 -8.506371 2.670972 -0.508246 -0.026646 -0.860800 0.092884 0.006428 1 0 1.000000
  0 0.097723 -6.279336 2.586247 0.403647 -0.015449 -0.914784 0.086679 0.214765 1 0 1.000000
  0 0.163231 -8.506371 2.670972 0.505656 0.001066 -0.862735 0.077484 0.006504 1 0 1.000000
w_swm10
  0 -0.091875 -5.720410 2.586247 -0.426559 -0.006128 -0.904439 0.014980 0.679290 1 0 1.000000
  0 0.000000 -4.148189 2.580674 0.000000 -0.000001 -1.000000 0.008327 0.823335 1 0 1.000000
  0 0.097723 -5.720410 2.586247 0.887845 0.055947 0.456728 0.006553 0.679393 1 0 1.000000
w_swm10
  0 -0.091875 -5.720410 2.586247 -0.426559 -0.006128 -0.904439 0.014980 0.679290 1 0 1.000000
  0 -0.320969 -4.163597 2.676842 -0.738988 -0.015396 -0.673543 0.024846 0.823152 1 0 1.000000
  0 0.000000 -4.148189 2.580674 0.000000 -0.000001 -1.000000 0.008327 0.823335 1 0 1.000000
w_swm10
  0 -0.163231 -8.506370 2.670972 -0.505656 0.001066 -0.862735 0.022147 0.430275 1 0 1.000000
  0 -0.320969 -4.163597 2.676842 -0.738988 -0.015396 -0.673543 0.024846 0.823152 1 0 1.000000
  0 -0.091875 -5.720410 2.586247 -0.426559 -0.006128 -0.904439 0.014980 0.679290 1 0 1.000000
w_swm10
  0 -0.163231 -8.506370 2.670972 -0.505656 0.001066 -0.862735 0.022147 0.430275 1 0 1.000000
  0 -0.091875 -5.720410 2.586247 -0.426559 -0.006128 -0.904439 0.014980 0.679290 1 0 1.000000
  0 0.097723 -6.279336 2.586247 0.403647 -0.015449 -0.914784 0.005941 0.628098 1 0 1.000000
w_swm10
  0 -0.163231 -8.506370 2.670972 -0.505656 0.001066 -0.862735 0.022147 0.430275 1 0 1.000000
  0 -0.400224 -4.153721 3.025733 -0.911855 -0.166234 0.375348 0.057886 0.822681 1 0 1.000000
  0 -0.320969 -4.163597 2.676842 -0.738988 -0.015396 -0.673543 0.024846 0.823152 1 0 1.000000
w_swm10
  0 -0.326462 -8.506370 2.953696 -0.999976 0.000000 0.006929 0.053088 0.429834 1 0 1.000000
  0 -0.400224 -4.153721 3.025733 -0.911855 -0.166234 0.375348 0.057886 0.822681 1 0 1.000000
  0 -0.163231 -8.506370 2.670972 -0.505656 0.001066 -0.862735 0.022147 0.430275 1 0 1.000000
w_swm10
  0 -0.037714 -8.506371 3.355865 -0.065309 -0.035129 0.997247 0.091995 0.429064 1 0 1.000000
  0 -0.400224 -4.153721 3.025733 -0.911855 -0.166234 0.375348 0.057886 0.822681 1 0 1.000000
  0 -0.326462 -8.506370 2.953696 -0.999976 0.000000 0.006929 0.053088 0.429834 1 0 1.000000
w_swm10
  0 -0.037714 -8.506371 3.355865 -0.065309 -0.035129 0.997247 0.091995 0.429064 1 0 1.000000
  0 -0.038951 -4.122766 3.358638 -0.226857 -0.107000 0.968032 0.099431 0.821858 1 0 1.000000
  0 -0.400224 -4.153721 3.025733 -0.911855 -0.166234 0.375348 0.057886 0.822681 1 0 1.000000
w_swm10
  0 0.287068 -0.588514 2.598217 0.240302 0.585240 0.774435 0.927452 0.576897 1 0 1.000000
  0 0.107955 -1.126384 3.401153 -0.013480 0.382270 0.923952 0.893014 0.462258 1 0 1.000000
  0 0.308048 -1.182939 3.376913 0.214426 0.371389 0.903378 0.920616 0.458331 1 0 1.000000
w_swm10
  0 0.000000 -1.042336 3.321710 0.000000 0.806936 0.590639 0.880335 0.469329 1 0 1.000000
  0 0.107955 -1.126384 3.401153 -0.013480 0.382270 0.923952 0.893014 0.462258 1 0 1.000000
  0 0.287068 -0.588514 2.598217 0.240302 0.585240 0.774435 0.927452 0.576897 1 0 1.000000
w_swm10
  0 0.000000 -1.042336 3.321710 0.000000 0.806936 0.590639 0.880335 0.469329 1 0 1.000000
  0 0.287068 -0.588514 2.598217 0.240302 0.585240 0.774435 0.927452 0.576897 1 0 1.000000
  0 0.000000 -0.502860 2.628691 0.000000 0.536261 0.844052 0.888917 0.584464 1 0 1.000000
w_swm10
  0 0.287068 -0.588514 2.598217 0.240302 0.585240 0.774435 0.927452 0.576897 1 0 1.000000
  0 0.000000 0.737698 2.203852 0.004187 0.734897 0.678166 0.880368 0.765722 1 0 1.000000
  0 0.000000 -0.502860 2.628691 0.000000 0.536261 0.844052 0.888917 0.584464 1 0 1.000000
w_swm10
  0 0.287068 -0.588514 2.598217 0.240302 0.585240 0.774435 0.927452 0.576897 1 0 1.000000
  0 0.339660 0.678842 2.202261 0.409651 0.629539 0.660202 0.919665 0.756904 1 0 1.000000
  0 0.000000 0.737698 2.203852 0.004187 0.734897 0.678166 0.880368 0.765722 1 0 1.000000
w_swm10
  0 0.000000 -0.161490 0.746567 0.000000 -0.376992 -0.926217 0.102130 0.183502 1 0 1.000000
  0 0.000000 0.272831 0.121134 0.000000 -0.939590 -0.342300 0.104823 0.283412 1 0 1.000000
  0 0.374318 0.006853 0.772875 0.662060 -0.558641 -0.499597 0.160440 0.170759 1 0 1.000000
w_swm10
  0 0.000000 0.272831 0.121134 0.000000 -0.939590 -0.342300 0.104823 0.283412 1 0 1.000000
  0 0.485763 0.397183 0.312334 0.866181 -0.471091 -0.166745 0.196485 0.267580 1 0 1.000000
  0 0.374318 0.006853 0.772875 0.662060 -0.558641 -0.499597 0.160440 0.170759 1 0 1.000000
w_swm10
  0 0.000000 0.272831 0.121134 0.000000 -0.939590 -0.342300 0.104823 0.283412 1 0 1.000000
  0 0.000000 0.481884 -1.863720 0.000000 -0.693633 -0.720329 0.135782 0.577931 1 0 1.000000
  0 0.485763 0.397183 0.312334 0.866181 -0.471091 -0.166745 0.196485 0.267580 1 0 1.000000
w_swm10
  0 0.530367 0.099446 1.709151 0.807874 -0.480593 0.341130 0.238911 0.062061 1 0 1.000000
  0 0.374318 0.006853 0.772875 0.662060 -0.558641 -0.499597 0.160440 0.170759 1 0 1.000000
  0 0.485763 0.397183 0.312334 0.866181 -0.471091 -0.166745 0.196485 0.267580 1 0 1.000000
w_swm10
  0 0.314990 -0.107209 1.632102 0.626281 -0.741963 0.239299 0.205083 0.058815 1 0 1.000000
  0 0.374318 0.006853 0.772875 0.662060 -0.558641 -0.499597 0.160440 0.170759 1 0 1.000000
  0 0.530367 0.099446 1.709151 0.807874 -0.480593 0.341130 0.238911 0.062061 1 0 1.000000
w_swm10
  0 0.530367 0.099446 1.709151 0.807874 -0.480593 0.341130 0.238911 0.062061 1 0 1.000000
  0 0.339660 0.678842 2.202261 0.409651 0.629539 0.660202 0.333918 0.016060 1 0 1.000000
  0 0.314990 -0.107209 1.632102 0.626281 -0.741963 0.239299 0.205083 0.058815 1 0 1.000000
w_swm10
  0 0.000000 0.481884 -1.863720 0.000000 -0.693633 -0.720329 0.135782 0.577931 1 0 1.000000
  0 0.520301 0.690819 -1.709423 0.736177 -0.420908 -0.529981 0.185412 0.534364 1 0 1.000000
  0 0.485763 0.397183 0.312334 0.866181 -0.471091 -0.166745 0.196485 0.267580 1 0 1.000000
w_swm10
  0 0.000000 2.410878 -1.852717 0.000000 0.788003 -0.615671 0.350574 0.631433 1 0 1.000000
  0 0.520301 0.690819 -1.709423 0.736177 -0.420908 -0.529981 0.185412 0.534364 1 0 1.000000
  0 0.000000 0.481884 -1.863720 0.000000 -0.693633 -0.720329 0.135782 0.577931 1 0 1.000000
w_swm10
  0 0.431685 0.756369 1.618885 0.841914 0.484392 0.237794 0.324298 0.099352 1 0 1.000000
  0 0.339660 0.678842 2.202261 0.409651 0.629539 0.660202 0.333918 0.016060 1 0 1.000000
  0 0.530367 0.099446 1.709151 0.807874 -0.480593 0.341130 0.238911 0.062061 1 0 1.000000
w_swm10
  0 0.431685 0.756369 1.618885 0.841914 0.484392 0.237794 0.324298 0.099352 1 0 1.000000
  0 0.530367 0.099446 1.709151 0.807874 -0.480593 0.341130 0.238911 0.062061 1 0 1.000000
  0 0.485763 0.397183 0.312334 0.866181 -0.471091 -0.166745 0.196485 0.267580 1 0 1.000000
w_swm10
  0 0.000000 0.737698 2.203852 0.004187 0.734897 0.678166 0.385714 0.010493 1 0 1.000000
  0 0.339660 0.678842 2.202261 0.409651 0.629539 0.660202 0.333918 0.016060 1 0 1.000000
  0 0.431685 0.756369 1.618885 0.841914 0.484392 0.237794 0.324298 0.099352 1 0 1.000000
w_swm10
  0 0.431685 0.756369 1.618885 0.841914 0.484392 0.237794 0.324298 0.099352 1 0 1.000000
  0 0.000000 1.860744 0.077135 -0.000007 0.905883 0.423527 0.427328 0.368856 1 0 1.000000
  0 0.000000 0.737698 2.203852 0.004187 0.734897 0.678166 0.385714 0.010493 1 0 1.000000
w_swm10
  0 0.616015 2.177600 -1.639524 0.757654 0.539519 -0.367259 0.310554 0.556976 1 0 1.000000
  0 0.485763 0.397183 0.312334 0.866181 -0.471091 -0.166745 0.196485 0.267580 1 0 1.000000
  0 0.520301 0.690819 -1.709423 0.736177 -0.420908 -0.529981 0.185412 0.534364 1 0 1.000000
w_swm10
  0 0.000000 2.410878 -1.852717 0.000000 0.788003 -0.615671 0.350574 0.631433 1 0 1.000000
  0 0.616015 2.177600 -1.639524 0.757654 0.539519 -0.367259 0.310554 0.556976 1 0 1.000000
  0 0.520301 0.690819 -1.709423 0.736177 -0.420908 -0.529981 0.185412 0.534364 1 0 1.000000
w_swm10
  0 0.616015 2.177600 -1.639524 0.757654 0.539519 -0.367259 0.310554 0.556976 1 0 1.000000
  0 0.431685 0.756369 1.618885 0.841914 0.484392 0.237794 0.324298 0.099352 1 0 1.000000
  0 0.485763 0.397183 0.312334 0.866181 -0.471091 -0.166745 0.196485 0.267580 1 0 1.000000
w_swm10
  0 0.000000 1.860744 0.077135 -0.000007 0.905883 0.423527 0.427328 0.368856 1 0 1.000000
  0 0.616015 2.177600 -1.639524 0.757654 0.539519 -0.367259 0.310554 0.556976 1 0 1.000000
  0 0.000000 2.410878 -1.852717 0.000000 0.788003 -0.615671 0.350574 0.631433 1 0 1.000000
w_swm10
  0 0.431685 0.756369 1.618885 0.841914 0.484392 0.237794 0.324298 0.099352 1 0 1.000000
  0 0.442807 1.773880 0.074109 0.640847 0.690171 0.336124 0.364657 0.364162 1 0 1.000000
  0 0.000000 1.860744 0.077135 -0.000007 0.905883 0.423527 0.427328 0.368856 1 0 1.000000
w_swm10
  0 0.431685 0.756369 1.618885 0.841914 0.484392 0.237794 0.324298 0.099352 1 0 1.000000
  0 0.616015 2.177600 -1.639524 0.757654 0.539519 -0.367259 0.310554 0.556976 1 0 1.000000
  0 0.442807 1.773880 0.074109 0.640847 0.690171 0.336124 0.364657 0.364162 1 0 1.000000
w_swm10
  0 0.000000 1.860744 0.077135 -0.000007 0.905883 0.423527 0.427328 0.368856 1 0 1.000000
  0 0.442807 1.773880 0.074109 0.640847 0.690171 0.336124 0.364657 0.364162 1 0 1.000000
  0 0.616015 2.177600 -1.639524 0.757654 0.539519 -0.367259 0.310554 0.556976 1 0 1.000000
w_swm10
  0 0.000000 -0.161490 0.746567 0.000000 -0.376992 -0.926217 1.102169 0.183494 1 0 1.000000
  0 -0.374318 0.006853 0.772875 -0.662060 -0.558641 -0.499597 1.160477 0.170752 1 0 1.000000
  0 0.000000 0.272831 0.121134 0.000000 -0.939590 -0.342300 1.104761 0.283431 1 0 1.000000
w_swm10
  0 0.000000 0.272831 0.121134 0.000000 -0.939590 -0.342300 1.104761 0.283431 1 0 1.000000
  0 -0.374318 0.006853 0.772875 -0.662060 -0.558641 -0.499597 1.160477 0.170752 1 0 1.000000
  0 -0.485763 0.397183 0.312334 -0.866181 -0.471091 -0.166745 1.196521 0.267568 1 0 1.000000
w_swm10
  0 0.000000 0.272831 0.121134 0.000000 -0.939590 -0.342300 1.104761 0.283431 1 0 1.000000
  0 -0.485763 0.397183 0.312334 -0.866181 -0.471091 -0.166745 1.196521 0.267568 1 0 1.000000
  0 0.000000 0.481884 -1.863720 0.000000 -0.693633 -0.720329 1.135754 0.577950 1 0 1.000000
w_swm10
  0 -0.530367 0.099446 1.709151 -0.807874 -0.480593 0.341130 1.238859 0.062065 1 0 1.000000
  0 -0.485763 0.397183 0.312334 -0.866181 -0.471091 -0.166745 1.196521 0.267568 1 0 1.000000
  0 -0.374318 0.006853 0.772875 -0.662060 -0.558641 -0.499597 1.160477 0.170752 1 0 1.000000
w_swm10
  0 -0.530367 0.099446 1.709151 -0.807874 -0.480593 0.341130 1.238859 0.062065 1 0 1.000000
  0 -0.374318 0.006853 0.772875 -0.662060 -0.558641 -0.499597 1.160477 0.170752 1 0 1.000000
  0 -0.314990 -0.107209 1.632102 -0.626290 -0.741949 0.239315 1.205118 0.058812 1 0 1.000000
w_swm10
  0 -0.314990 -0.107209 1.632102 -0.626290 -0.741949 0.239315 1.205118 0.058812 1 0 1.000000
  0 -0.339660 0.678842 2.202261 -0.416670 0.635345 0.650171 1.333948 0.016059 1 0 1.000000
  0 -0.530367 0.099446 1.709151 -0.807874 -0.480593 0.341130 1.238859 0.062065 1 0 1.000000
w_swm10
  0 0.000000 0.481884 -1.863720 0.000000 -0.693633 -0.720329 1.135754 0.577950 1 0 1.000000
  0 -0.485763 0.397183 0.312334 -0.866181 -0.471091 -0.166745 1.196521 0.267568 1 0 1.000000
  0 -0.520301 0.690819 -1.709423 -0.736177 -0.420908 -0.529981 1.185448 0.534341 1 0 1.000000
w_swm10
  0 0.000000 2.410878 -1.852717 0.000000 0.788003 -0.615671 1.350552 0.631453 1 0 1.000000
  0 0.000000 0.481884 -1.863720 0.000000 -0.693633 -0.720329 1.135754 0.577950 1 0 1.000000
  0 -0.520301 0.690819 -1.709423 -0.736177 -0.420908 -0.529981 1.185448 0.534341 1 0 1.000000
w_swm10
  0 -0.431685 0.756369 1.618885 -0.841914 0.484392 0.237794 1.324327 0.099348 1 0 1.000000
  0 -0.530367 0.099446 1.709151 -0.807874 -0.480593 0.341130 1.238859 0.062065 1 0 1.000000
  0 -0.339660 0.678842 2.202261 -0.416670 0.635345 0.650171 1.333948 0.016059 1 0 1.000000
w_swm10
  0 -0.431685 0.756369 1.618885 -0.841914 0.484392 0.237794 1.324327 0.099348 1 0 1.000000
  0 -0.485763 0.397183 0.312334 -0.866181 -0.471091 -0.166745 1.196521 0.267568 1 0 1.000000
  0 -0.530367 0.099446 1.709151 -0.807874 -0.480593 0.341130 1.238859 0.062065 1 0 1.000000
w_swm10
  0 0.000000 0.737698 2.203852 0.004187 0.734897 0.678166 1.385741 0.010492 1 0 1.000000
  0 -0.431685 0.756369 1.618885 -0.841914 0.484392 0.237794 1.324327 0.099348 1 0 1.000000
  0 -0.339660 0.678842 2.202261 -0.416670 0.635345 0.650171 1.333948 0.016059 1 0 1.000000
w_swm10
  0 -0.431685 0.756369 1.618885 -0.841914 0.484392 0.237794 1.324327 0.099348 1 0 1.000000
  0 0.000000 0.737698 2.203852 0.004187 0.734897 0.678166 1.385741 0.010492 1 0 1.000000
  0 0.000000 1.860744 0.077135 -0.000007 0.905883 0.423527 1.427353 0.368840 1 0 1.000000
w_swm10
  0 -0.520301 0.690819 -1.709423 -0.736177 -0.420908 -0.529981 1.185448 0.534341 1 0 1.000000
  0 -0.485763 0.397183 0.312334 -0.866181 -0.471091 -0.166745 1.196521 0.267568 1 0 1.000000
  0 -0.616015 2.177600 -1.639524 -0.757654 0.539519 -0.367259 1.310583 0.556951 1 0 1.000000
w_swm10
  0 0.000000 2.410878 -1.852717 0.000000 0.788003 -0.615671 1.350552 0.631453 1 0 1.000000
  0 -0.520301 0.690819 -1.709423 -0.736177 -0.420908 -0.529981 1.185448 0.534341 1 0 1.000000
  0 -0.616015 2.177600 -1.639524 -0.757654 0.539519 -0.367259 1.310583 0.556951 1 0 1.000000
w_swm10
  0 -0.616015 2.177600 -1.639524 -0.757654 0.539519 -0.367259 1.310583 0.556951 1 0 1.000000
  0 -0.485763 0.397183 0.312334 -0.866181 -0.471091 -0.166745 1.196521 0.267568 1 0 1.000000
  0 -0.431685 0.756369 1.618885 -0.841914 0.484392 0.237794 1.324327 0.099348 1 0 1.000000
w_swm10
  0 0.000000 1.860744 0.077135 -0.000007 0.905883 0.423527 1.427353 0.368840 1 0 1.000000
  0 0.000000 2.410878 -1.852717 0.000000 0.788003 -0.615671 1.350552 0.631453 1 0 1.000000
  0 -0.616015 2.177600 -1.639524 -0.757654 0.539519 -0.367259 1.310583 0.556951 1 0 1.000000
w_swm10
  0 -0.431685 0.756369 1.618885 -0.841914 0.484392 0.237794 1.324327 0.099348 1 0 1.000000
  0 0.000000 1.860744 0.077135 -0.000007 0.905883 0.423527 1.427353 0.368840 1 0 1.000000
  0 -0.442807 1.773880 0.074109 -0.640847 0.690171 0.336124 1.364685 0.364146 1 0 1.000000
w_swm10
  0 -0.431685 0.756369 1.618885 -0.841914 0.484392 0.237794 1.324327 0.099348 1 0 1.000000
  0 -0.442807 1.773880 0.074109 -0.640847 0.690171 0.336124 1.364685 0.364146 1 0 1.000000
  0 -0.616015 2.177600 -1.639524 -0.757654 0.539519 -0.367259 1.310583 0.556951 1 0 1.000000
w_swm10
  0 0.000000 1.860744 0.077135 -0.000007 0.905883 0.423527 1.427353 0.368840 1 0 1.000000
  0 -0.616015 2.177600 -1.639524 -0.757654 0.539519 -0.367259 1.310583 0.556951 1 0 1.000000
  0 -0.442807 1.773880 0.074109 -0.640847 0.690171 0.336124 1.364685 0.364146 1 0 1.000000
w_swm10
  0 0.000000 -4.148189 2.580674 0.000000 -0.979893 -0.199521 0.522261 0.755262 1 0 1.000000
  0 0.000000 -4.006133 1.883005 0.000000 -0.935245 -0.354002 0.422509 0.755253 1 0 1.000000
  0 0.320969 -4.163597 2.676842 0.000000 -0.979893 -0.199521 0.523959 0.795890 1 0 1.000000
w_swm10
  0 0.000000 -4.148189 2.580674 0.000000 -0.979893 -0.199521 0.522261 0.755262 1 0 1.000000
  0 -0.320969 -4.163597 2.676842 0.000000 -0.979893 -0.199521 0.523959 0.714634 1 0 1.000000
  0 0.000000 -4.006133 1.883005 0.000000 -0.935245 -0.354002 0.422509 0.755253 1 0 1.000000
w_swm10
  0 0.000000 -4.006133 1.883005 0.000000 -0.935245 -0.354002 0.422509 0.755253 1 0 1.000000
  0 0.269338 -3.819840 1.130626 0.410372 -0.908571 -0.078061 0.309892 0.788813 1 0 1.000000
  0 0.320969 -4.163597 2.676842 0.000000 -0.979893 -0.199521 0.523959 0.795890 1 0 1.000000
w_swm10
  0 0.000000 -4.006133 1.883005 0.000000 -0.935245 -0.354002 0.422509 0.755253 1 0 1.000000
  0 -0.320969 -4.163597 2.676842 0.000000 -0.979893 -0.199521 0.523959 0.714634 1 0 1.000000
  0 -0.269338 -3.819840 1.130626 -0.410372 -0.908571 -0.078061 0.318715 0.721343 1 0 1.000000
w_swm10
  0 0.269338 -3.819840 1.130626 0.410372 -0.908571 -0.078061 0.309892 0.788813 1 0 1.000000
  0 0.000000 -4.006133 1.883005 0.000000 -0.935245 -0.354002 0.422509 0.755253 1 0 1.000000
  0 0.000000 -3.961579 0.994047 0.000000 -1.000000 -0.000001 0.299545 0.755253 1 0 1.000000
w_swm10
  0 0.000000 -4.006133 1.883005 0.000000 -0.935245 -0.354002 0.422509 0.755253 1 0 1.000000
  0 -0.269338 -3.819840 1.130626 -0.410372 -0.908571 -0.078061 0.318715 0.721343 1 0 1.000000
  0 0.000000 -3.961579 0.994047 0.000000 -1.000000 -0.000001 0.299545 0.755253 1 0 1.000000
end
