version 1
nodes
0 "root" -1
1 "pelvis" 0
2 "spine_01" 1
3 "spine_02" 2
4 "spine_03" 3
5 "clavicle_r" 4
6 "upperarm_r" 5
7 "lowerarm_r" 6
8 "hand_r" 7
9 "index_01_r" 8
10 "index_02_r" 9
11 "index_03_r" 10
12 "middle_01_r" 8
13 "middle_02_r" 12
14 "middle_03_r" 13
15 "pinky_01_r" 8
16 "pinky_02_r" 15
17 "pinky_03_r" 16
18 "ring_01_r" 8
19 "ring_02_r" 18
20 "ring_03_r" 19
21 "thumb_01_r" 8
22 "thumb_02_r" 21
23 "thumb_03_r" 22
24 "lowerarm_twist_01_r" 7
25 "upperarm_twist_01_r" 6
26 "clavicle_l" 4
27 "upperarm_l" 26
28 "lowerarm_l" 27
29 "hand_l" 28
30 "index_01_l" 29
31 "index_02_l" 30
32 "index_03_l" 31
33 "middle_01_l" 29
34 "middle_02_l" 33
35 "middle_03_l" 34
36 "pinky_01_l" 29
37 "pinky_02_l" 36
38 "pinky_03_l" 37
39 "ring_01_l" 29
40 "ring_02_l" 39
41 "ring_03_l" 40
42 "thumb_01_l" 29
43 "thumb_02_l" 42
44 "thumb_03_l" 43
45 "lowerarm_twist_01_l" 28
46 "upperarm_twist_01_l" 27
47 "cam_driver" -1
48 "BaseRoot" -1
49 "Base" 48
50 "rhand_ikTarget" 49
51 "Trigger" 49
52 "Mag" 49
53 "Bullets" 52
54 "Bolt" 49
55 "MagRelease" 49
56 "lhand_ikTarget" 49
end
skeleton
time 0
0 -0.00000100 7.45008900 -27.50902600 0.00000000 0.00000000 0.00003100
1 -0.00000200 0.00000000 0.00000000 1.57074300 -1.56713700 -1.57074300
2 4.27196300 -4.84269900 0.00578500 0.00000000 0.00000000 -0.12484800
3 7.43124800 1.49647700 0.00000200 0.00000000 0.00000000 0.24545000
4 5.27847900 0.16554100 0.00000100 0.00000000 0.00000000 0.04851100
5 4.03642000 -5.12631200 0.98258600 1.97586400 1.15990900 -1.29878600
6 -6.21448200 -0.00000700 -0.00002700 -2.71847393 -0.65972575 1.52257161
7 11.94488200 0.00000000 0.00000100 -0.15406329 -0.34428392 1.36630528
8 10.62018100 0.00000200 0.00000000 1.18385880 0.45698018 2.50806834
9 -4.75110600 -0.69449400 0.83057700 -0.22463700 -0.16726600 0.42816600
10 -1.68806800 0.00004600 -0.00003200 0.01457400 -0.01993700 0.80788900
11 -1.33614000 0.00005700 -0.00001200 0.02114300 -0.01573300 1.19424300
12 -4.82049400 -0.50946000 -0.22475900 -0.30211400 -0.18388800 1.37002700
13 -1.82699200 -0.00006400 0.00000600 0.00421900 0.04026900 1.37882300
14 -1.43657300 0.00000600 0.00000200 -0.05454800 -0.05545500 0.68560300
15 -3.99235500 -0.89118800 -1.82790900 -0.49767400 -0.04995000 1.16047400
16 -1.40591800 -0.00002500 -0.00000300 -0.01630900 -0.02456400 1.46015900
17 -1.17535800 0.00012800 -0.00002000 0.04970300 0.04625500 0.72560100
18 -4.52675100 -0.69057500 -1.12074400 -0.42161100 -0.04266300 1.41124900
19 -1.74403800 0.00003300 -0.00000800 -0.02649400 -0.01314800 1.52325100
20 -1.36877100 0.00002500 0.00000200 0.02081800 0.04817500 0.30338500
21 -1.87480000 -0.93512500 0.99917400 1.57875500 0.61726700 0.62740000
22 -1.52345300 0.00003200 0.00003100 0.10785400 0.13660400 0.77279600
23 -1.59928500 0.00000400 0.00001600 0.01182300 -0.04125100 1.27227000
24 5.58312600 0.11572500 0.29499800 2.70854400 -0.05523500 3.09750200
25 0.19684700 -0.00000100 0.00000300 2.79340698 -0.00029255 -3.14151438
26 2.84106800 -12.08044100 -1.46725800 1.97586200 1.15990900 1.84280300
27 6.21448500 0.00000600 0.00002000 -0.51916020 0.58390308 -2.08988953
28 11.94488500 -0.00002900 -0.00019400 -1.16645538 -0.30800858 -1.06230024
29 10.62016600 0.00000200 0.00001000 -2.23361006 -0.34421836 0.41725730
30 4.75115600 0.69437600 -0.83047300 -0.35541600 -0.40076200 0.96512700
31 1.68806500 -0.00002600 0.00000200 -0.00367600 -0.02375600 1.75077900
32 1.33615100 -0.00005100 -0.00000900 0.03096200 -0.02321100 -0.55646100
33 4.82051300 0.50934000 0.22486500 -0.51051400 -0.29296900 1.25320400
34 1.82699600 0.00006600 0.00000800 0.01740600 0.03653900 1.71901600
35 1.43657700 -0.00001000 0.00000700 0.01508100 0.00113100 -0.80048000
36 3.99235300 0.89108700 1.82799400 -0.59409300 0.14997600 1.42316900
37 1.40591800 0.00002100 -0.00000700 -0.02571600 -0.01440300 1.93866100
38 1.17536900 -0.00013100 0.00000200 0.10276000 0.06814600 0.94199700
39 4.52675600 0.69046000 1.12084200 -0.54396700 0.08405600 1.61621100
40 1.74404100 -0.00003100 -0.00000200 -0.02193600 -0.01984600 1.24733900
41 1.36876300 -0.00003100 -0.00001700 -0.10584200 0.11837400 -0.91845200
42 1.93928100 1.01468800 -0.90910200 1.40068400 0.75422800 0.39461500
43 1.52344900 -0.00003400 -0.00000300 -0.00578400 -0.08060400 0.05769500
44 1.59928100 -0.00000200 0.00000900 0.03666200 0.07497700 -0.28908900
45 5.51180600 -0.00000200 0.00000600 -0.68868500 0.00000000 0.00000000
46 0.19685000 0.00000300 -0.00000200 -0.34822500 0.00001500 -0.00000200
47 0.00000000 0.00000000 0.00000000 0.00000000 0.00000000 -1.57079600
48 -4.12734500 37.78616000 -4.02610900 0.00000000 0.00000000 -3.14156200
49 -0.43912750 56.48289500 -0.18732650 0.06463195 -0.01090307 -1.57405294
50 3.19974700 0.35673500 -3.92927900 0.51444000 1.01731900 1.81673900
51 -2.33710300 -0.01178200 -0.27738900 0.00000000 0.00000000 0.00000000
52 0.35904600 -0.01178200 0.66345600 0.00000000 0.00000000 0.00000000
53 -0.02757200 0.00000000 0.20638000 0.00000000 0.00000000 0.00000000
54 2.99531400 -0.01178200 1.52390400 0.00000000 0.00000000 0.00000000
55 -0.35106100 -0.44127600 -4.26437300 0.00000000 0.00000000 0.00000000
56 -3.74221000 -2.15041400 -3.19926900 -3.06199100 0.99804500 -2.35750200
time 1
0 -0.00000100 7.45008900 -27.50902600 0.00000000 0.00000000 0.00003100
1 -0.00000200 0.00000000 0.00000000 1.57074300 -1.56713700 -1.57074300
2 4.27196300 -4.84269900 0.00578500 0.00000000 0.00000000 -0.12484800
3 7.43124800 1.49647700 0.00000200 0.00000000 0.00000000 0.24545000
4 5.27847900 0.16554100 0.00000100 0.00000000 0.00000000 0.04851100
5 3.92456000 -5.28308500 1.08741700 1.97586400 1.15990900 -1.29878600
6 -6.21448200 -0.00000700 -0.00002700 -2.72508098 -0.67266782 1.51982753
7 11.94488200 0.00000000 0.00000100 -0.16819561 -0.34609961 1.40824555
8 10.62018100 0.00000200 0.00000000 1.18702591 0.45715831 2.50002186
9 -4.75110600 -0.69449400 0.83057700 -0.22463700 -0.16726600 0.42816600
10 -1.68806800 0.00004600 -0.00003200 0.01457400 -0.01993700 0.80788900
11 -1.33614000 0.00005700 -0.00001200 0.02114300 -0.01573300 1.19424300
12 -4.82049400 -0.50946000 -0.22475900 -0.30211400 -0.18388800 1.37002700
13 -1.82699200 -0.00006400 0.00000600 0.00421900 0.04026900 1.37882300
14 -1.43657300 0.00000600 0.00000200 -0.05454800 -0.05545500 0.68560300
15 -3.99235500 -0.89118800 -1.82790900 -0.49767400 -0.04995000 1.16047400
16 -1.40591800 -0.00002500 -0.00000300 -0.01630900 -0.02456400 1.46015900
17 -1.17535800 0.00012800 -0.00002000 0.04970300 0.04625500 0.72560100
18 -4.52675100 -0.69057500 -1.12074400 -0.42161100 -0.04266300 1.41124900
19 -1.74403800 0.00003300 -0.00000800 -0.02649400 -0.01314800 1.52325100
20 -1.36877100 0.00002500 0.00000200 0.02081800 0.04817500 0.30338500
21 -1.87480000 -0.93512500 0.99917400 1.57875500 0.61726700 0.62740000
22 -1.52345300 0.00003200 0.00003100 0.10785400 0.13660400 0.77279600
23 -1.59928500 0.00000400 0.00001600 0.01182300 -0.04125100 1.27227000
24 5.58312600 0.11572500 0.29499800 2.70854400 -0.05523500 3.09750200
25 0.19684700 -0.00000100 0.00000300 2.79340698 -0.00029255 -3.14151438
26 2.79482700 -12.04513200 -1.46368200 1.97586200 1.15990900 1.84280300
27 6.21448500 0.00000600 0.00002000 -0.51966131 0.59592300 -2.06760557
28 11.94488500 -0.00002900 -0.00019400 -1.15012943 -0.31526170 -1.11544111
29 10.62016600 0.00000200 0.00001000 -2.22522826 -0.37535021 0.42760600
30 4.75115600 0.69437600 -0.83047300 -0.35541600 -0.40076200 0.96512700
31 1.68806500 -0.00002600 0.00000200 -0.00367600 -0.02375600 1.75077900
32 1.33615100 -0.00005100 -0.00000900 0.03096200 -0.02321100 -0.55646100
33 4.82051300 0.50934000 0.22486500 -0.51051400 -0.29296900 1.25320400
34 1.82699600 0.00006600 0.00000800 0.01740600 0.03653900 1.71901600
35 1.43657700 -0.00001000 0.00000700 0.01508100 0.00113100 -0.80048000
36 3.99235300 0.89108700 1.82799400 -0.59409300 0.14997600 1.42316900
37 1.40591800 0.00002100 -0.00000700 -0.02571600 -0.01440300 1.93866100
38 1.17536900 -0.00013100 0.00000200 0.10276000 0.06814600 0.94199700
39 4.52675600 0.69046000 1.12084200 -0.54396700 0.08405600 1.61621100
40 1.74404100 -0.00003100 -0.00000200 -0.02193600 -0.01984600 1.24733900
41 1.36876300 -0.00003100 -0.00001700 -0.10584200 0.11837400 -0.91845200
42 1.93928100 1.01468800 -0.90910200 1.40068400 0.75422800 0.39461500
43 1.52344900 -0.00003400 -0.00000300 -0.00578400 -0.08060400 0.05769500
44 1.59928100 -0.00000200 0.00000900 0.03666200 0.07497700 -0.28908900
45 5.51180600 -0.00000200 0.00000600 -0.68868500 0.00000000 0.00000000
46 0.19685000 0.00000300 -0.00000200 -0.34822500 0.00001500 -0.00000200
47 0.00000000 0.00000000 0.00000000 0.00000000 0.00000000 -1.57079600
48 -4.12734500 37.78616000 -4.02610900 0.00000000 0.00000000 -3.14156200
49 -0.64538650 56.26425900 -0.14829450 0.06274254 0.00388046 -1.55314652
50 3.19974700 0.35673500 -3.92927900 0.51444000 1.01731900 1.81673900
51 -2.33710300 -0.01178200 -0.27738900 0.00000000 0.00000000 0.00000000
52 0.35904600 -0.01178200 0.66345600 0.00000000 0.00000000 0.00000000
53 -0.02757200 0.00000000 0.20638000 0.00000000 0.00000000 0.00000000
54 2.99531400 -0.01178200 1.52390400 0.00000000 0.00000000 0.00000000
55 -0.35106100 -0.44127600 -4.26437300 0.00000000 0.00000000 0.00000000
56 -3.74221000 -2.15041400 -3.19926900 -3.06199100 0.99804500 -2.35750200
time 2
0 -0.00000100 7.45008900 -27.50902600 0.00000000 0.00000000 0.00003100
1 -0.00000200 0.00000000 0.00000000 1.57074300 -1.56713700 -1.57074300
2 4.27196300 -4.84269900 0.00578500 0.00000000 0.00000000 -0.12484800
3 7.43124800 1.49647700 0.00000200 0.00000000 0.00000000 0.24545000
4 5.27847900 0.16554100 0.00000100 0.00000000 0.00000000 0.04851100
5 3.61529600 -5.71651900 1.37724400 1.97586400 1.15990900 -1.29878600
6 -6.21448200 -0.00000700 -0.00002700 -2.74077560 -0.70404680 1.51265796
7 11.94488200 0.00000000 0.00000100 -0.20270735 -0.34906337 1.50970035
8 10.62018100 0.00000200 0.00000000 1.22413417 0.45188331 2.50587488
9 -4.75110600 -0.69449400 0.83057700 -0.22463700 -0.16726600 0.42816600
10 -1.68806800 0.00004600 -0.00003200 0.01457400 -0.01993700 0.80788900
11 -1.33614000 0.00005700 -0.00001200 0.02114300 -0.01573300 1.19424300
12 -4.82049400 -0.50946000 -0.22475900 -0.30211400 -0.18388800 1.37002700
13 -1.82699200 -0.00006400 0.00000600 0.00421900 0.04026900 1.37882300
14 -1.43657300 0.00000600 0.00000200 -0.05454800 -0.05545500 0.68560300
15 -3.99235500 -0.89118800 -1.82790900 -0.49767400 -0.04995000 1.16047400
16 -1.40591800 -0.00002500 -0.00000300 -0.01630900 -0.02456400 1.46015900
17 -1.17535800 0.00012800 -0.00002000 0.04970300 0.04625500 0.72560100
18 -4.52675100 -0.69057500 -1.12074400 -0.42161100 -0.04266300 1.41124900
19 -1.74403800 0.00003300 -0.00000800 -0.02649400 -0.01314800 1.52325100
20 -1.36877100 0.00002500 0.00000200 0.02081800 0.04817500 0.30338500
21 -1.87480000 -0.93512500 0.99917400 1.57875500 0.61726700 0.62740000
22 -1.52345300 0.00003200 0.00003100 0.10785400 0.13660400 0.77279600
23 -1.59928500 0.00000400 0.00001600 0.01182300 -0.04125100 1.27227000
24 5.58312600 0.11572500 0.29499800 2.70854400 -0.05523500 3.09750200
25 0.19684700 -0.00000100 0.00000300 2.79340698 -0.00029255 -3.14151438
26 2.66470700 -11.94577400 -1.45361800 1.97586200 1.15990900 1.84280300
27 6.21448500 0.00000600 0.00002000 -0.52184037 0.62279376 -2.01774299
28 11.94488500 -0.00002900 -0.00019400 -1.11157422 -0.32954424 -1.23655523
29 10.62016600 0.00000200 0.00001000 -2.20722179 -0.44427065 0.42543715
30 4.75115600 0.69437600 -0.83047300 -0.35541600 -0.40076200 0.96512700
31 1.68806500 -0.00002600 0.00000200 -0.00367600 -0.02375600 1.75077900
32 1.33615100 -0.00005100 -0.00000900 0.03096200 -0.02321100 -0.55646100
33 4.82051300 0.50934000 0.22486500 -0.51051400 -0.29296900 1.25320400
34 1.82699600 0.00006600 0.00000800 0.01740600 0.03653900 1.71901600
35 1.43657700 -0.00001000 0.00000700 0.01508100 0.00113100 -0.80048000
36 3.99235300 0.89108700 1.82799400 -0.59409300 0.14997600 1.42316900
37 1.40591800 0.00002100 -0.00000700 -0.02571600 -0.01440300 1.93866100
38 1.17536900 -0.00013100 0.00000200 0.10276000 0.06814600 0.94199700
39 4.52675600 0.69046000 1.12084200 -0.54396700 0.08405600 1.61621100
40 1.74404100 -0.00003100 -0.00000200 -0.02193600 -0.01984600 1.24733900
41 1.36876300 -0.00003100 -0.00001700 -0.10584200 0.11837400 -0.91845200
42 1.93928100 1.01468800 -0.90910200 1.40068400 0.75422800 0.39461500
43 1.52344900 -0.00003400 -0.00000300 -0.00578400 -0.08060400 0.05769500
44 1.59928100 -0.00000200 0.00000900 0.03666200 0.07497700 -0.28908900
45 5.51180600 -0.00000200 0.00000600 -0.68868500 0.00000000 0.00000000
46 0.19685000 0.00000300 -0.00000200 -0.34822500 0.00001500 -0.00000200
47 0.00000000 0.00000000 0.00000000 0.00000000 0.00000000 -1.57079600
48 -4.12734500 37.78616000 -4.02610900 0.00000000 0.00000000 -3.14156200
49 -1.17233800 55.69743300 -0.07840750 0.08413177 0.04863985 -1.49409136
50 3.19974700 0.35673500 -3.92927900 0.51444000 1.01731900 1.81673900
51 -2.33710300 -0.01178200 -0.27738900 0.00000000 0.00000000 0.00000000
52 0.35904600 -0.01178200 0.66345600 0.00000000 0.00000000 0.00000000
53 -0.02757200 0.00000000 0.20638000 0.00000000 0.00000000 0.00000000
54 2.99531400 -0.01178200 1.52390400 0.00000000 0.00000000 0.00000000
55 -0.35106100 -0.44127600 -4.26437300 0.00000000 0.00000000 0.00000000
56 -3.74221000 -2.15041400 -3.19926900 -3.06199100 0.99804500 -2.35750200
time 3
0 -0.00000100 7.45008900 -27.50902600 0.00000000 0.00000000 0.00003100
1 -0.00000200 0.00000000 0.00000000 1.57074300 -1.56713700 -1.57074300
2 4.27196300 -4.84269900 0.00578500 0.00000000 0.00000000 -0.12484800
3 7.43124800 1.49647700 0.00000200 0.00000000 0.00000000 0.24545000
4 5.27847900 0.16554100 0.00000100 0.00000000 0.00000000 0.04851100
5 3.14811300 -6.37127900 1.81506600 1.97586400 1.15990900 -1.29878600
6 -6.21448200 -0.00000700 -0.00002700 -2.75931292 -0.73850931 1.48798290
7 11.94488200 0.00000000 0.00000100 -0.24459297 -0.34848263 1.63232452
8 10.62018100 0.00000200 0.00000000 1.28836450 0.43906136 2.53055668
9 -4.75110600 -0.69449400 0.83057700 -0.22463700 -0.16726600 0.42816600
10 -1.68806800 0.00004600 -0.00003200 0.01457400 -0.01993700 0.80788900
11 -1.33614000 0.00005700 -0.00001200 0.02114300 -0.01573300 1.19424300
12 -4.82049400 -0.50946000 -0.22475900 -0.30211400 -0.18388800 1.37002700
13 -1.82699200 -0.00006400 0.00000600 0.00421900 0.04026900 1.37882300
14 -1.43657300 0.00000600 0.00000200 -0.05454800 -0.05545500 0.68560300
15 -3.99235500 -0.89118800 -1.82790900 -0.49767400 -0.04995000 1.16047400
16 -1.40591800 -0.00002500 -0.00000300 -0.01630900 -0.02456400 1.46015900
17 -1.17535800 0.00012800 -0.00002000 0.04970300 0.04625500 0.72560100
18 -4.52675100 -0.69057500 -1.12074400 -0.42161100 -0.04266300 1.41124900
19 -1.74403800 0.00003300 -0.00000800 -0.02649400 -0.01314800 1.52325100
20 -1.36877100 0.00002500 0.00000200 0.02081800 0.04817500 0.30338500
21 -1.87480000 -0.93512500 0.99917400 1.57875500 0.61726700 0.62740000
22 -1.52345300 0.00003200 0.00003100 0.10785400 0.13660400 0.77279600
23 -1.59928500 0.00000400 0.00001600 0.01182300 -0.04125100 1.27227000
24 5.58312600 0.11572500 0.29499800 2.70854400 -0.05523500 3.09750200
25 0.19684700 -0.00000100 0.00000300 2.79340698 -0.00029255 -3.14151438
26 2.46361200 -11.79222300 -1.43806600 1.97586200 1.15990900 1.84280300
27 6.21448500 0.00000600 0.00002000 -0.53708213 0.65459540 -1.95631970
28 11.94488500 -0.00002900 -0.00019400 -1.06051295 -0.34198815 -1.39041993
29 10.62016600 0.00000200 0.00001000 -2.16818864 -0.52948381 0.40472615
30 4.75115600 0.69437600 -0.83047300 -0.35541600 -0.40076200 0.96512700
31 1.68806500 -0.00002600 0.00000200 -0.00367600 -0.02375600 1.75077900
32 1.33615100 -0.00005100 -0.00000900 0.03096200 -0.02321100 -0.55646100
33 4.82051300 0.50934000 0.22486500 -0.51051400 -0.29296900 1.25320400
34 1.82699600 0.00006600 0.00000800 0.01740600 0.03653900 1.71901600
35 1.43657700 -0.00001000 0.00000700 0.01508100 0.00113100 -0.80048000
36 3.99235300 0.89108700 1.82799400 -0.59409300 0.14997600 1.42316900
37 1.40591800 0.00002100 -0.00000700 -0.02571600 -0.01440300 1.93866100
38 1.17536900 -0.00013100 0.00000200 0.10276000 0.06814600 0.94199700
39 4.52675600 0.69046000 1.12084200 -0.54396700 0.08405600 1.61621100
40 1.74404100 -0.00003100 -0.00000200 -0.02193600 -0.01984600 1.24733900
41 1.36876300 -0.00003100 -0.00001700 -0.10584200 0.11837400 -0.91845200
42 1.93928100 1.01468800 -0.90910200 1.40068400 0.75422800 0.39461500
43 1.52344900 -0.00003400 -0.00000300 -0.00578400 -0.08060400 0.05769500
44 1.59928100 -0.00000200 0.00000900 0.03666200 0.07497700 -0.28908900
45 5.51180600 -0.00000200 0.00000600 -0.68868500 0.00000000 0.00000000
46 0.19685000 0.00000300 -0.00000200 -0.34822500 0.00001500 -0.00000200
47 0.00000000 0.00000000 0.00000000 0.00000000 0.00000000 -1.57079600
48 -4.12734500 37.78616000 -4.02610900 0.00000000 0.00000000 -3.14156200
49 -1.94290150 54.91604600 0.00739400 0.13147384 0.11510584 -1.40063251
50 3.19974700 0.35673500 -3.92927900 0.51444000 1.01731900 1.81673900
51 -2.33710300 -0.01178200 -0.27738900 0.00000000 0.00000000 0.00000000
52 0.35904600 -0.01178200 0.66345600 0.00000000 0.00000000 0.00000000
53 -0.02757200 0.00000000 0.20638000 0.00000000 0.00000000 0.00000000
54 2.99531400 -0.01178200 1.52390400 0.00000000 0.00000000 0.00000000
55 -0.35106100 -0.44127600 -4.26437300 0.00000000 0.00000000 0.00000000
56 -3.74221000 -2.15041400 -3.19926900 -3.06199100 0.99804500 -2.35750200
time 4
0 -0.00000100 7.45008900 -27.50902600 0.00000000 0.00000000 0.00003100
1 -0.00000200 0.00000000 0.00000000 1.57074300 -1.56713700 -1.57074300
2 4.27196300 -4.84269900 0.00578500 0.00000000 0.00000000 -0.12484800
3 7.43124800 1.49647700 0.00000200 0.00000000 0.00000000 0.24545000
4 5.27847900 0.16554100 0.00000100 0.00000000 0.00000000 0.04851100
5 2.56249000 -7.19203700 2.36388600 1.97586400 1.15990900 -1.29878600
6 -6.21448200 -0.00000700 -0.00002700 -2.77280891 -0.76227725 1.42828795
7 11.94488200 0.00000000 0.00000100 -0.28204371 -0.34411204 1.74233542
8 10.62018100 0.00000200 0.00000000 1.36150144 0.41928951 2.56176790
9 -4.75110600 -0.69449400 0.83057700 -0.22463700 -0.16726600 0.42816600
10 -1.68806800 0.00004600 -0.00003200 0.01457400 -0.01993700 0.80788900
11 -1.33614000 0.00005700 -0.00001200 0.02114300 -0.01573300 1.19424300
12 -4.82049400 -0.50946000 -0.22475900 -0.30211400 -0.18388800 1.37002700
13 -1.82699200 -0.00006400 0.00000600 0.00421900 0.04026900 1.37882300
14 -1.43657300 0.00000600 0.00000200 -0.05454800 -0.05545500 0.68560300
15 -3.99235500 -0.89118800 -1.82790900 -0.49767400 -0.04995000 1.16047400
16 -1.40591800 -0.00002500 -0.00000300 -0.01630900 -0.02456400 1.46015900
17 -1.17535800 0.00012800 -0.00002000 0.04970300 0.04625500 0.72560100
18 -4.52675100 -0.69057500 -1.12074400 -0.42161100 -0.04266300 1.41124900
19 -1.74403800 0.00003300 -0.00000800 -0.02649400 -0.01314800 1.52325100
20 -1.36877100 0.00002500 0.00000200 0.02081800 0.04817500 0.30338500
21 -1.87480000 -0.93512500 0.99917400 1.57875500 0.61726700 0.62740000
22 -1.52345300 0.00003200 0.00003100 0.10785400 0.13660400 0.77279600
23 -1.59928500 0.00000400 0.00001600 0.01182300 -0.04125100 1.27227000
24 5.58312600 0.11572500 0.29499800 2.70854400 -0.05523500 3.09750200
25 0.19684700 -0.00000100 0.00000300 2.79340698 -0.00029255 -3.14151438
26 2.20444800 -11.59433200 -1.41802200 1.97586200 1.15990900 1.84280300
27 6.21448500 0.00000600 0.00002000 -0.57947792 0.68727104 -1.89638422
28 11.94488500 -0.00002900 -0.00019400 -1.00514239 -0.34758047 -1.55300744
29 10.62016600 0.00000200 0.00001000 -2.09867158 -0.61357016 0.37488627
30 4.75115600 0.69437600 -0.83047300 -0.35541600 -0.40076200 0.96512700
31 1.68806500 -0.00002600 0.00000200 -0.00367600 -0.02375600 1.75077900
32 1.33615100 -0.00005100 -0.00000900 0.03096200 -0.02321100 -0.55646100
33 4.82051300 0.50934000 0.22486500 -0.51051400 -0.29296900 1.25320400
34 1.82699600 0.00006600 0.00000800 0.01740600 0.03653900 1.71901600
35 1.43657700 -0.00001000 0.00000700 0.01508100 0.00113100 -0.80048000
36 3.99235300 0.89108700 1.82799400 -0.59409300 0.14997600 1.42316900
37 1.40591800 0.00002100 -0.00000700 -0.02571600 -0.01440300 1.93866100
38 1.17536900 -0.00013100 0.00000200 0.10276000 0.06814600 0.94199700
39 4.52675600 0.69046000 1.12084200 -0.54396700 0.08405600 1.61621100
40 1.74404100 -0.00003100 -0.00000200 -0.02193600 -0.01984600 1.24733900
41 1.36876300 -0.00003100 -0.00001700 -0.10584200 0.11837400 -0.91845200
42 1.93928100 1.01468800 -0.90910200 1.40068400 0.75422800 0.39461500
43 1.52344900 -0.00003400 -0.00000300 -0.00578400 -0.08060400 0.05769500
44 1.59928100 -0.00000200 0.00000900 0.03666200 0.07497700 -0.28908900
45 5.51180600 -0.00000200 0.00000600 -0.68868500 0.00000000 0.00000000
46 0.19685000 0.00000300 -0.00000200 -0.34822500 0.00001500 -0.00000200
47 0.00000000 0.00000000 0.00000000 0.00000000 0.00000000 -1.57079600
48 -4.12734500 37.78616000 -4.02610900 0.00000000 0.00000000 -3.14156200
49 -2.90538950 54.05373000 0.09262300 0.19681701 0.18816304 -1.27746277
50 3.19974700 0.35673500 -3.92927900 0.51444000 1.01731900 1.81673900
51 -2.33710300 -0.01178200 -0.27738900 0.00000000 0.00000000 0.00000000
52 0.35904600 -0.01178200 0.66345600 0.00000000 0.00000000 0.00000000
53 -0.02757200 0.00000000 0.20638000 0.00000000 0.00000000 0.00000000
54 2.99531400 -0.01178200 1.52390400 0.00000000 0.00000000 0.00000000
55 -0.35106100 -0.44127600 -4.26437300 0.00000000 0.00000000 0.00000000
56 -3.74221000 -2.15041400 -3.19926900 -3.06199100 0.99804500 -2.35750200
time 5
0 -0.00000100 7.45008900 -27.50902600 0.00000000 0.00000000 0.00003100
1 -0.00000200 0.00000000 0.00000000 1.57074300 -1.56713700 -1.57074300
2 4.27196300 -4.84269900 0.00578500 0.00000000 0.00000000 -0.12484800
3 7.43124800 1.49647700 0.00000200 0.00000000 0.00000000 0.24545000
4 5.27847900 0.16554100 0.00000100 0.00000000 0.00000000 0.04851100
5 1.89790600 -8.12345700 2.98670400 1.97586400 1.15990900 -1.29878600
6 -6.21448200 -0.00000700 -0.00002700 -2.77369826 -0.76664937 1.32525954
7 11.94488200 0.00000000 0.00000100 -0.30743719 -0.33910116 1.81786609
8 10.62018100 0.00000200 0.00000000 1.42793615 0.39263342 2.58363652
9 -4.75110600 -0.69449400 0.83057700 -0.22463700 -0.16726600 0.42816600
10 -1.68806800 0.00004600 -0.00003200 0.01457400 -0.01993700 0.80788900
11 -1.33614000 0.00005700 -0.00001200 0.02114300 -0.01573300 1.19424300
12 -4.82049400 -0.50946000 -0.22475900 -0.30211400 -0.18388800 1.37002700
13 -1.82699200 -0.00006400 0.00000600 0.00421900 0.04026900 1.37882300
14 -1.43657300 0.00000600 0.00000200 -0.05454800 -0.05545500 0.68560300
15 -3.99235500 -0.89118800 -1.82790900 -0.49767400 -0.04995000 1.16047400
16 -1.40591800 -0.00002500 -0.00000300 -0.01630900 -0.02456400 1.46015900
17 -1.17535800 0.00012800 -0.00002000 0.04970300 0.04625500 0.72560100
18 -4.52675100 -0.69057500 -1.12074400 -0.42161100 -0.04266300 1.41124900
19 -1.74403800 0.00003300 -0.00000800 -0.02649400 -0.01314800 1.52325100
20 -1.36877100 0.00002500 0.00000200 0.02081800 0.04817500 0.30338500
21 -1.87480000 -0.93512500 0.99917400 1.57875500 0.61726700 0.62740000
22 -1.52345300 0.00003200 0.00003100 0.10785400 0.13660400 0.77279600
23 -1.59928500 0.00000400 0.00001600 0.01182300 -0.04125100 1.27227000
24 5.58312600 0.11572500 0.29499800 2.70854400 -0.05523500 3.09750200
25 0.19684700 -0.00000100 0.00000300 2.79340698 -0.00029255 -3.14151438
26 1.90011600 -11.36195000 -1.39448600 1.97586200 1.15990900 1.84280300
27 6.21448500 0.00000600 0.00002000 -0.66118661 0.71880607 -1.85379599
28 11.94488500 -0.00002900 -0.00019400 -0.95393278 -0.34597487 -1.70307813
29 10.62016600 0.00000200 0.00001000 -2.00357294 -0.68268141 0.34872200
30 4.75115600 0.69437600 -0.83047300 -0.35541600 -0.40076200 0.96512700
31 1.68806500 -0.00002600 0.00000200 -0.00367600 -0.02375600 1.75077900
32 1.33615100 -0.00005100 -0.00000900 0.03096200 -0.02321100 -0.55646100
33 4.82051300 0.50934000 0.22486500 -0.51051400 -0.29296900 1.25320400
34 1.82699600 0.00006600 0.00000800 0.01740600 0.03653900 1.71901600
35 1.43657700 -0.00001000 0.00000700 0.01508100 0.00113100 -0.80048000
36 3.99235300 0.89108700 1.82799400 -0.59409300 0.14997600 1.42316900
37 1.40591800 0.00002100 -0.00000700 -0.02571600 -0.01440300 1.93866100
38 1.17536900 -0.00013100 0.00000200 0.10276000 0.06814600 0.94199700
39 4.52675600 0.69046000 1.12084200 -0.54396700 0.08405600 1.61621100
40 1.74404100 -0.00003100 -0.00000200 -0.02193600 -0.01984600 1.24733900
41 1.36876300 -0.00003100 -0.00001700 -0.10584200 0.11837400 -0.91845200
42 1.93928100 1.01468800 -0.90910200 1.40068400 0.75422800 0.39461500
43 1.52344900 -0.00003400 -0.00000300 -0.00578400 -0.08060400 0.05769500
44 1.59928100 -0.00000200 0.00000900 0.03666200 0.07497700 -0.28908900
45 5.51180600 -0.00000200 0.00000600 -0.68868500 0.00000000 0.00000000
46 0.19685000 0.00000300 -0.00000200 -0.34822500 0.00001500 -0.00000200
47 0.00000000 0.00000000 0.00000000 0.00000000 0.00000000 -1.57079600
48 -4.12734500 37.78616000 -4.02610900 0.00000000 0.00000000 -3.14156200
49 -3.97950650 53.24409900 0.15967800 0.27082187 0.24891133 -1.13344278
50 3.19974700 0.35673500 -3.92927900 0.51444000 1.01731900 1.81673900
51 -2.33710300 -0.01178200 -0.27738900 0.00000000 0.00000000 0.00000000
52 0.35904600 -0.01178200 0.66345600 0.00000000 0.00000000 0.00000000
53 -0.02757200 0.00000000 0.20638000 0.00000000 0.00000000 0.00000000
54 2.99531400 -0.01178200 1.52390400 0.00000000 0.00000000 0.00000000
55 -0.35106100 -0.44127600 -4.26437300 0.00000000 0.00000000 0.00000000
56 -3.74221000 -2.15041400 -3.19926900 -3.06199100 0.99804500 -2.35750200
time 6
0 -0.00000100 7.45008900 -27.50902600 0.00000000 0.00000000 0.00003100
1 -0.00000200 0.00000000 0.00000000 1.57074300 -1.56713700 -1.57074300
2 4.27196300 -4.84269900 0.00578500 0.00000000 0.00000000 -0.12484800
3 7.43124800 1.49647700 0.00000200 0.00000000 0.00000000 0.24545000
4 5.27847900 0.16554100 0.00000100 0.00000000 0.00000000 0.04851100
5 1.19384000 -9.11020700 3.64652200 1.97586400 1.15990900 -1.29878600
6 -6.21448200 -0.00000700 -0.00002700 -2.76076493 -0.74953618 1.18833108
7 11.94488200 0.00000000 0.00000100 -0.31626632 -0.33724851 1.84457596
8 10.62018100 0.00000200 0.00000000 1.47260492 0.36356390 2.59215047
9 -4.75110600 -0.69449400 0.83057700 -0.22463700 -0.16726600 0.42816600
10 -1.68806800 0.00004600 -0.00003200 0.01457400 -0.01993700 0.80788900
11 -1.33614000 0.00005700 -0.00001200 0.02114300 -0.01573300 1.19424300
12 -4.82049400 -0.50946000 -0.22475900 -0.30211400 -0.18388800 1.37002700
13 -1.82699200 -0.00006400 0.00000600 0.00421900 0.04026900 1.37882300
14 -1.43657300 0.00000600 0.00000200 -0.05454800 -0.05545500 0.68560300
15 -3.99235500 -0.89118800 -1.82790900 -0.49759900 -0.04999800 1.16047300
16 -1.40591800 -0.00002500 -0.00000300 -0.01630900 -0.02456400 1.46015900
17 -1.17535800 0.00012800 -0.00002000 0.04970300 0.04625500 0.72560100
18 -4.52675100 -0.69057500 -1.12074400 -0.42161100 -0.04266300 1.41124900
19 -1.74403800 0.00003300 -0.00000800 -0.02649400 -0.01314800 1.52325100
20 -1.36877100 0.00002500 0.00000200 0.02081800 0.04817500 0.30338500
21 -1.87480000 -0.93512500 0.99917400 1.57875500 0.61726700 0.62740000
22 -1.52345300 0.00003200 0.00003100 0.10785400 0.13660400 0.77279600
23 -1.59928500 0.00000400 0.00001600 0.01182300 -0.04125100 1.27227000
24 5.58312600 0.11572500 0.29499800 2.70854400 -0.05523500 3.09750200
25 0.19684700 -0.00000100 0.00000300 2.79340698 -0.00029255 -3.14151438
26 1.56352500 -11.10493700 -1.36845400 1.97586200 1.15990900 1.84280300
27 6.21448500 0.00000600 0.00002000 -0.78781112 0.74429032 -1.84286042
28 11.94488500 -0.00002900 -0.00019400 -0.91409162 -0.34019058 -1.82117957
29 10.62016600 0.00000200 0.00001000 -1.89201104 -0.72936061 0.33593569
30 4.75115600 0.69437600 -0.83047300 -0.35541600 -0.40076200 0.96512700
31 1.68806500 -0.00002600 0.00000200 -0.00367600 -0.02375600 1.75077900
32 1.33615100 -0.00005100 -0.00000900 0.03096200 -0.02321100 -0.55646100
33 4.82051300 0.50934000 0.22486500 -0.51051400 -0.29296900 1.25320400
34 1.82699600 0.00006600 0.00000800 0.01740600 0.03653900 1.71901600
35 1.43657700 -0.00001000 0.00000700 0.01508100 0.00113100 -0.80048000
36 3.99235300 0.89108700 1.82799400 -0.59409300 0.14997600 1.42316900
37 1.40591800 0.00002100 -0.00000700 -0.02571600 -0.01440300 1.93866100
38 1.17536900 -0.00013100 0.00000200 0.10276000 0.06814600 0.94199700
39 4.52675600 0.69046000 1.12084200 -0.54396700 0.08405600 1.61621100
40 1.74404100 -0.00003100 -0.00000200 -0.02193600 -0.01984600 1.24733900
41 1.36876300 -0.00003100 -0.00001700 -0.10584200 0.11837400 -0.91845200
42 1.93928100 1.01468800 -0.90910200 1.40068400 0.75422800 0.39461500
43 1.52344900 -0.00003400 -0.00000300 -0.00578400 -0.08060400 0.05769500
44 1.59928100 -0.00000200 0.00000900 0.03666200 0.07497700 -0.28908900
45 5.51180600 -0.00000200 0.00000600 -0.68868500 0.00000000 0.00000000
46 0.19685000 0.00000300 -0.00000200 -0.34822500 0.00001500 -0.00000200
47 0.00000000 0.00000000 0.00000000 0.00000000 0.00000000 -1.57079600
48 -4.12734500 37.78616000 -4.02610900 0.00000000 0.00000000 -3.14156200
49 -5.05923050 52.62078100 0.18838400 0.33839074 0.28590012 -0.98290407
50 3.19974700 0.35673500 -3.92927900 0.51444000 1.01731900 1.81673900
51 -2.33710300 -0.01178200 -0.27738900 0.00000000 0.00000000 0.00000000
52 0.35904600 -0.01178200 0.66345600 0.00000000 0.00000000 0.00000000
53 -0.02757200 0.00000000 0.20638000 0.00000000 0.00000000 0.00000000
54 2.99531400 -0.01178200 1.52390400 0.00000000 0.00000000 0.00000000
55 -0.35106100 -0.44127600 -4.26437300 0.00000000 0.00000000 0.00000000
56 -3.74221000 -2.15041400 -3.19926900 -3.06199100 0.99804500 -2.35750200
time 7
0 -0.00000100 7.45008900 -27.50902600 0.00000000 0.00000000 0.00003100
1 -0.00000200 0.00000000 0.00000000 1.57074300 -1.56713700 -1.57074300
2 4.27196300 -4.84269900 0.00578500 0.00000000 0.00000000 -0.12484800
3 7.43124800 1.49647700 0.00000200 0.00000000 0.00000000 0.24545000
4 5.27847900 0.16554100 0.00000100 0.00000000 0.00000000 0.04851100
5 0.48977400 -10.09695900 4.30633900 1.97586400 1.15990900 -1.29878600
6 -6.21448200 -0.00000700 -0.00002700 -2.73830424 -0.71529849 1.03967247
7 11.94488200 0.00000000 0.00000100 -0.30732074 -0.33993520 1.81768348
8 10.62018100 0.00000200 0.00000000 1.48407118 0.33693013 2.59451725
9 -4.75110600 -0.69449400 0.83057700 -0.22463700 -0.16726600 0.42816600
10 -1.68806800 0.00004600 -0.00003200 0.01457400 -0.01993700 0.80788900
11 -1.33614000 0.00005700 -0.00001200 0.02114300 -0.01573300 1.19424300
12 -4.82049400 -0.50946000 -0.22475900 -0.30211400 -0.18388800 1.37002700
13 -1.82699200 -0.00006400 0.00000600 0.00421900 0.04026900 1.37882300
14 -1.43657300 0.00000600 0.00000200 -0.05454800 -0.05545500 0.68560300
15 -3.99235500 -0.89118800 -1.82790900 -0.49767400 -0.04995000 1.16047400
16 -1.40591800 -0.00002500 -0.00000300 -0.01630900 -0.02456400 1.46015900
17 -1.17535800 0.00012800 -0.00002000 0.04970300 0.04625500 0.72560100
18 -4.52675100 -0.69057500 -1.12074400 -0.42161100 -0.04266300 1.41124900
19 -1.74403800 0.00003300 -0.00000800 -0.02649400 -0.01314800 1.52325100
20 -1.36877100 0.00002500 0.00000200 0.02081800 0.04817500 0.30338500
21 -1.87480000 -0.93512500 0.99917400 1.57875500 0.61726700 0.62740000
22 -1.52345300 0.00003200 0.00003100 0.10785400 0.13660400 0.77279600
23 -1.59928500 0.00000400 0.00001600 0.01182300 -0.04125100 1.27227000
24 5.58312600 0.11572500 0.29499800 2.70854400 -0.05523500 3.09750200
25 0.19684700 -0.00000100 0.00000300 2.79340698 -0.00029255 -3.14151438
26 1.20757700 -10.83314200 -1.34092500 1.97586200 1.15990900 1.84280300
27 6.21448500 0.00000600 0.00002000 -0.94922995 0.75373902 -1.86731948
28 11.94488500 -0.00002900 -0.00019400 -0.89090140 -0.33610473 -1.89158777
29 10.62016600 0.00000200 0.00001000 -1.77287698 -0.75286840 0.33752163
30 4.75115600 0.69437600 -0.83047300 -0.35541600 -0.40076200 0.96512700
31 1.68806500 -0.00002600 0.00000200 -0.00367600 -0.02375600 1.75077900
32 1.33615100 -0.00005100 -0.00000900 0.03096200 -0.02321100 -0.55646100
33 4.82051300 0.50934000 0.22486500 -0.51051400 -0.29296900 1.25320400
34 1.82699600 0.00006600 0.00000800 0.01740600 0.03653900 1.71901600
35 1.43657700 -0.00001000 0.00000700 0.01508100 0.00113100 -0.80048000
36 3.99235300 0.89108700 1.82799400 -0.59409300 0.14997600 1.42316900
37 1.40591800 0.00002100 -0.00000700 -0.02571600 -0.01440300 1.93866100
38 1.17536900 -0.00013100 0.00000200 0.10276000 0.06814600 0.94199700
39 4.52675600 0.69046000 1.12084200 -0.54396700 0.08405600 1.61621100
40 1.74404100 -0.00003100 -0.00000200 -0.02193600 -0.01984600 1.24733900
41 1.36876300 -0.00003100 -0.00001700 -0.10584200 0.11837400 -0.91845200
42 1.93928100 1.01468800 -0.90910200 1.40068400 0.75422800 0.39461500
43 1.52344900 -0.00003400 -0.00000300 -0.00578400 -0.08060400 0.05769500
44 1.59928100 -0.00000200 0.00000900 0.03666200 0.07497700 -0.28908900
45 5.51180600 -0.00000200 0.00000600 -0.68868500 0.00000000 0.00000000
46 0.19685000 0.00000300 -0.00000200 -0.34822500 0.00001500 -0.00000200
47 0.00000000 0.00000000 0.00000000 0.00000000 0.00000000 -1.57079600
48 -4.12734500 37.78616000 -4.02610900 0.00000000 0.00000000 -3.14156200
49 -6.06302700 52.31740600 0.17356750 0.38385125 0.29695575 -0.84270304
50 3.19974700 0.35673500 -3.92927900 0.51444000 1.01731900 1.81673900
51 -2.33710300 -0.01178200 -0.27738900 0.00000000 0.00000000 0.00000000
52 0.35904600 -0.01178200 0.66345600 0.00000000 0.00000000 0.00000000
53 -0.02757200 0.00000000 0.20638000 0.00000000 0.00000000 0.00000000
54 2.99531400 -0.01178200 1.52390400 0.00000000 0.00000000 0.00000000
55 -0.35106100 -0.44127600 -4.26437300 0.00000000 0.00000000 0.00000000
56 -3.74221000 -2.15041400 -3.19926900 -3.06199100 0.99804500 -2.35750200
time 8
0 -0.00000100 7.45008900 -27.50902600 0.00000000 0.00000000 0.00003100
1 -0.00000200 0.00000000 0.00000000 1.57074300 -1.56713700 -1.57074300
2 4.27196300 -4.84269900 0.00578500 0.00000000 0.00000000 -0.12484800
3 7.43124800 1.49647700 0.00000200 0.00000000 0.00000000 0.24545000
4 5.27847900 0.16554100 0.00000100 0.00000000 0.00000000 0.04851100
5 -0.17481200 -11.02837900 4.92915800 1.97586400 1.15990900 -1.29878600
6 -6.21448200 -0.00000700 -0.00002700 -2.71867801 -0.67334848 0.89793255
7 11.94488200 0.00000000 0.00000100 -0.28437621 -0.34552897 1.74928470
8 10.62018100 0.00000200 0.00000000 1.47238876 0.32260461 2.60257467
9 -4.75110600 -0.69449400 0.83057700 -0.22463700 -0.16726600 0.42816600
10 -1.68806800 0.00004600 -0.00003200 0.01457400 -0.01993700 0.80788900
11 -1.33614000 0.00005700 -0.00001200 0.02114300 -0.01573300 1.19424300
12 -4.82049400 -0.50946000 -0.22475900 -0.30211400 -0.18388800 1.37002700
13 -1.82699200 -0.00006400 0.00000600 0.00421900 0.04026900 1.37882300
14 -1.43657300 0.00000600 0.00000200 -0.05454800 -0.05545500 0.68560300
15 -3.99235500 -0.89118800 -1.82790900 -0.49767400 -0.04995000 1.16047400
16 -1.40591800 -0.00002500 -0.00000300 -0.01630900 -0.02456400 1.46015900
17 -1.17535800 0.00012800 -0.00002000 0.04970300 0.04625500 0.72560100
18 -4.52675100 -0.69057500 -1.12074400 -0.42161100 -0.04266300 1.41124900
19 -1.74403800 0.00003300 -0.00000800 -0.02649400 -0.01314800 1.52325100
20 -1.36877100 0.00002500 0.00000200 0.02081800 0.04817500 0.30338500
21 -1.87480000 -0.93512500 0.99917400 1.57875500 0.61726700 0.62740000
22 -1.52345300 0.00003200 0.00003100 0.10785400 0.13660400 0.77279600
23 -1.59928500 0.00000400 0.00001600 0.01182300 -0.04125100 1.27227000
24 5.58312600 0.11572500 0.29499800 2.70854400 -0.05523500 3.09750200
25 0.19684700 -0.00000100 0.00000300 2.79340698 -0.00029255 -3.14151438
26 0.84517600 -10.55642000 -1.31289700 1.97586200 1.15990900 1.84280300
27 6.21448500 0.00000600 0.00002000 -1.12932822 0.74595022 -1.91552282
28 11.94488500 -0.00002900 -0.00019400 -0.88002450 -0.33569404 -1.92519677
29 10.62016600 0.00000200 0.00001000 -1.65281889 -0.75387566 0.35005597
30 4.75115600 0.69437600 -0.83047300 -0.35541600 -0.40076200 0.96512700
31 1.68806500 -0.00002600 0.00000200 -0.00367600 -0.02375600 1.75077900
32 1.33615100 -0.00005100 -0.00000900 0.03096200 -0.02321100 -0.55646100
33 4.82051300 0.50934000 0.22486500 -0.51051400 -0.29296900 1.25320400
34 1.82699600 0.00006600 0.00000800 0.01740600 0.03653900 1.71901600
35 1.43657700 -0.00001000 0.00000700 0.01508100 0.00113100 -0.80048000
36 3.99235300 0.89108700 1.82799400 -0.59409300 0.14997600 1.42316900
37 1.40591800 0.00002100 -0.00000700 -0.02571600 -0.01440300 1.93866100
38 1.17536900 -0.00013100 0.00000200 0.10276000 0.06814600 0.94199700
39 4.52675600 0.69046000 1.12084200 -0.54396700 0.08405600 1.61621100
40 1.74404100 -0.00003100 -0.00000200 -0.02193600 -0.01984600 1.24733900
41 1.36876300 -0.00003100 -0.00001700 -0.10584200 0.11837400 -0.91845200
42 1.93928100 1.01468800 -0.90910200 1.40068400 0.75422800 0.39461500
43 1.52344900 -0.00003400 -0.00000300 -0.00578400 -0.08060400 0.05769500
44 1.59928100 -0.00000200 0.00000900 0.03666200 0.07497700 -0.28908900
45 5.51180600 -0.00000200 0.00000600 -0.68868500 0.00000000 0.00000000
46 0.19685000 0.00000300 -0.00000200 -0.34822500 0.00001500 -0.00000200
47 0.00000000 0.00000000 0.00000000 0.00000000 0.00000000 -1.57079600
48 -4.12734500 37.78616000 -4.02610900 0.00000000 0.00000000 -3.14156200
49 -7.03486500 52.23039200 0.08161650 0.40969398 0.29252971 -0.72338684
50 3.19974700 0.35673500 -3.92927900 0.51444000 1.01731900 1.81673900
51 -2.33710300 -0.01178200 -0.27738900 0.00000000 0.00000000 0.00000000
52 0.35904600 -0.01178200 0.66345600 0.00000000 0.00000000 0.00000000
53 -0.02757200 0.00000000 0.20638000 0.00000000 0.00000000 0.00000000
54 2.99531400 -0.01178200 1.52390400 0.00000000 0.00000000 0.00000000
55 -0.35106100 -0.44127600 -4.26437300 0.00000000 0.00000000 0.00000000
56 -3.74221000 -2.15041400 -3.19926900 -3.06199100 0.99804500 -2.35750200
time 9
0 -0.00000100 7.45008900 -27.50902600 0.00000000 0.00000000 0.00003100
1 -0.00000200 0.00000000 0.00000000 1.57074300 -1.56713700 -1.57074300
2 4.27196300 -4.84269900 0.00578500 0.00000000 0.00000000 -0.12484800
3 7.43124800 1.49647700 0.00000200 0.00000000 0.00000000 0.24545000
4 5.27847900 0.16554100 0.00000100 0.00000000 0.00000000 0.04851100
5 -0.76043600 -11.84913300 5.47797800 1.97586400 1.15990900 -1.29878600
6 -6.21448200 -0.00000700 -0.00002700 -2.71105781 -0.63768067 0.77948467
7 11.94488200 0.00000000 0.00000100 -0.25596212 -0.35058404 1.66548426
8 10.62018100 0.00000200 0.00000000 1.45659159 0.32035343 2.62776285
9 -4.75110600 -0.69449400 0.83057700 -0.22463700 -0.16726600 0.42816600
10 -1.68806800 0.00004600 -0.00003200 0.01457400 -0.01993700 0.80788900
11 -1.33614000 0.00005700 -0.00001200 0.02114300 -0.01573300 1.19424300
12 -4.82049400 -0.50946000 -0.22475900 -0.30211400 -0.18388800 1.37002700
13 -1.82699200 -0.00006400 0.00000600 0.00421900 0.04026900 1.37882300
14 -1.43657300 0.00000600 0.00000200 -0.05454800 -0.05545500 0.68560300
15 -3.99235500 -0.89118800 -1.82790900 -0.49767400 -0.04995000 1.16047400
16 -1.40591800 -0.00002500 -0.00000300 -0.01630900 -0.02456400 1.46015900
17 -1.17535800 0.00012800 -0.00002000 0.04970300 0.04625500 0.72560100
18 -4.52675100 -0.69057500 -1.12074400 -0.42161100 -0.04266300 1.41124900
19 -1.74403800 0.00003300 -0.00000800 -0.02649400 -0.01314800 1.52325100
20 -1.36877100 0.00002500 0.00000200 0.02081800 0.04817500 0.30338500
21 -1.87480000 -0.93512500 0.99917400 1.57875500 0.61726700 0.62740000
22 -1.52345300 0.00003200 0.00003100 0.10785400 0.13660400 0.77279600
23 -1.59928500 0.00000400 0.00001600 0.01182300 -0.04125100 1.27227000
24 5.58312600 0.11572500 0.29499800 2.70854400 -0.05523500 3.09750200
25 0.19684700 -0.00000100 0.00000300 2.79340698 -0.00029255 -3.14151438
26 0.48922900 -10.28462600 -1.28536800 1.97586200 1.15990900 1.84280300
27 6.21448500 0.00000600 0.00002000 -1.30294238 0.72928564 -1.97087866
28 11.94488500 -0.00002900 -0.00019400 -0.87434147 -0.33724388 -1.94302638
29 10.62016600 0.00000200 0.00001000 -1.53800990 -0.73506333 0.35898394
30 4.75115600 0.69437600 -0.83047300 -0.35541600 -0.40076200 0.96512700
31 1.68806500 -0.00002600 0.00000200 -0.00367600 -0.02375600 1.75077900
32 1.33615100 -0.00005100 -0.00000900 0.03096200 -0.02321100 -0.55646100
33 4.82051300 0.50934000 0.22486500 -0.51051400 -0.29296900 1.25320400
34 1.82699600 0.00006600 0.00000800 0.01740600 0.03653900 1.71901600
35 1.43657700 -0.00001000 0.00000700 0.01508100 0.00113100 -0.80048000
36 3.99235300 0.89108700 1.82799400 -0.59409300 0.14997600 1.42316900
37 1.40591800 0.00002100 -0.00000700 -0.02571600 -0.01440300 1.93866100
38 1.17536900 -0.00013100 0.00000200 0.10276000 0.06814600 0.94199700
39 4.52675600 0.69046000 1.12084200 -0.54396700 0.08405600 1.61621100
40 1.74404100 -0.00003100 -0.00000200 -0.02193600 -0.01984600 1.24733900
41 1.36876300 -0.00003100 -0.00001700 -0.10584200 0.11837400 -0.91845200
42 1.93928100 1.01468800 -0.90910200 1.40068400 0.75422800 0.39461500
43 1.52344900 -0.00003400 -0.00000300 -0.00578400 -0.08060400 0.05769500
44 1.59928100 -0.00000200 0.00000900 0.03666200 0.07497700 -0.28908900
45 5.51180600 -0.00000200 0.00000600 -0.68868500 0.00000000 0.00000000
46 0.19685000 0.00000300 -0.00000200 -0.34822500 0.00001500 -0.00000200
47 0.00000000 0.00000000 0.00000000 0.00000000 0.00000000 -1.57079600
48 -4.12734500 37.78616000 -4.02610900 0.00000000 0.00000000 -3.14156200
49 -7.91755050 52.16500100 -0.16991400 0.43062850 0.28496784 -0.62358090
50 3.19974700 0.35673500 -3.92927900 0.51444000 1.01731900 1.81673900
51 -2.33710300 -0.01178200 -0.27738900 0.00000000 0.00000000 0.00000000
52 0.35904600 -0.01178200 0.66345600 0.00000000 0.00000000 0.00000000
53 -0.02757200 0.00000000 0.20638000 0.00000000 0.00000000 0.00000000
54 2.99531400 -0.01178200 1.52390400 0.00000000 0.00000000 0.00000000
55 -0.35106100 -0.44127600 -4.26437300 0.00000000 0.00000000 0.00000000
56 -3.74221000 -2.15041400 -3.19926900 -3.06199100 0.99804500 -2.35750200
time 10
0 -0.00000100 7.45008900 -27.50902600 0.00000000 0.00000000 0.00003100
1 -0.00000200 0.00000000 0.00000000 1.57074300 -1.56713700 -1.57074300
2 4.27196300 -4.84269900 0.00578500 0.00000000 0.00000000 -0.12484800
3 7.43124800 1.49647700 0.00000200 0.00000000 0.00000000 0.24545000
4 5.27847900 0.16554100 0.00000100 0.00000000 0.00000000 0.04851100
5 -1.22761700 -12.50389600 5.91580200 1.97586400 1.15990900 -1.29878600
6 -6.21448200 -0.00000700 -0.00002700 -2.70991504 -0.61661093 0.70718079
7 11.94488200 0.00000000 0.00000100 -0.23810653 -0.35311753 1.61337136
8 10.62018100 0.00000200 0.00000000 1.44057652 0.30609292 2.65300795
9 -4.75110600 -0.69449400 0.83057700 -0.22463700 -0.16726600 0.42816600
10 -1.68806800 0.00004600 -0.00003200 0.01457400 -0.01993700 0.80788900
11 -1.33614000 0.00005700 -0.00001200 0.02114300 -0.01573300 1.19424300
12 -4.82049400 -0.50946000 -0.22475900 -0.30211400 -0.18388800 1.37002700
13 -1.82699200 -0.00006400 0.00000600 0.00421900 0.04026900 1.37882300
14 -1.43657300 0.00000600 0.00000200 -0.05454800 -0.05545500 0.68560300
15 -3.99235500 -0.89118800 -1.82790900 -0.49767400 -0.04995000 1.16047400
16 -1.40591800 -0.00002500 -0.00000300 -0.01630900 -0.02456400 1.46015900
17 -1.17535800 0.00012800 -0.00002000 0.04970300 0.04625500 0.72560100
18 -4.52675100 -0.69057500 -1.12074400 -0.42161100 -0.04266300 1.41124900
19 -1.74403800 0.00003300 -0.00000800 -0.02649400 -0.01314800 1.52325100
20 -1.36877100 0.00002500 0.00000200 0.02081800 0.04817500 0.30338500
21 -1.87480000 -0.93512500 0.99917400 1.57875500 0.61726700 0.62740000
22 -1.52345300 0.00003200 0.00003100 0.10785400 0.13660400 0.77279600
23 -1.59928500 0.00000400 0.00001600 0.01182300 -0.04125100 1.27227000
24 5.58312600 0.11572500 0.29499800 2.70854400 -0.05523500 3.09750200
25 0.19684700 -0.00000100 0.00000300 2.79340698 -0.00029255 -3.14151438
26 0.15263700 -10.02761100 -1.25933600 1.97586200 1.15990900 1.84280300
27 6.21448500 0.00000600 0.00002000 -1.40269892 0.71234684 -2.00736386
28 11.94488500 -0.00002900 -0.00019400 -0.87134536 -0.33926862 -1.95233186
29 10.62016600 0.00000200 0.00001000 -1.44263374 -0.72695154 0.33052188
30 4.75115600 0.69437600 -0.83047300 -0.35541600 -0.40076200 0.96512700
31 1.68806500 -0.00002600 0.00000200 -0.00367600 -0.02375600 1.75077900
32 1.33615100 -0.00005100 -0.00000900 0.03096200 -0.02321100 -0.55646100
33 4.82051300 0.50934000 0.22486500 -0.51051400 -0.29296900 1.25320400
34 1.82699600 0.00006600 0.00000800 0.01740600 0.03653900 1.71901600
35 1.43657700 -0.00001000 0.00000700 0.01508100 0.00113100 -0.80048000
36 3.99235300 0.89108700 1.82799400 -0.59409300 0.14997600 1.42316900
37 1.40591800 0.00002100 -0.00000700 -0.02571600 -0.01440300 1.93866100
38 1.17536900 -0.00013100 0.00000200 0.10276000 0.06814600 0.94199700
39 4.52675600 0.69046000 1.12084200 -0.54396700 0.08405600 1.61621100
40 1.74404100 -0.00003100 -0.00000200 -0.02193600 -0.01984600 1.24733900
41 1.36876300 -0.00003100 -0.00001700 -0.10584200 0.11837400 -0.91845200
42 1.93928100 1.01468800 -0.90910200 1.40068400 0.75422800 0.39461500
43 1.52344900 -0.00003400 -0.00000300 -0.00578400 -0.08060400 0.05769500
44 1.59928100 -0.00000200 0.00000900 0.03666200 0.07497700 -0.28908900
45 5.51180600 -0.00000200 0.00000600 -0.68868500 0.00000000 0.00000000
46 0.19685000 0.00000300 -0.00000200 -0.34822500 0.00001500 -0.00000200
47 0.00000000 0.00000000 0.00000000 0.00000000 0.00000000 -1.57079600
48 -4.12734500 37.78616000 -4.02610900 0.00000000 0.00000000 -3.14156200
49 -8.34449250 52.11814500 -0.45794900 0.44828672 0.27685868 -0.54240691
50 3.19974700 0.35673500 -3.92927900 0.51444000 1.01731900 1.81673900
51 -2.33710300 -0.01178200 -0.27738900 0.00000000 0.00000000 0.00000000
52 0.35904600 -0.01178200 0.66345600 0.00000000 0.00000000 0.00000000
53 -0.02757200 0.00000000 0.20638000 0.00000000 0.00000000 0.00000000
54 2.99531400 -0.01178200 1.52390400 0.00000000 0.00000000 0.00000000
55 -0.35106100 -0.44127600 -4.26437300 0.00000000 0.00000000 0.00000000
56 -3.74221000 -2.15041400 -3.19926900 -3.06199100 0.99804500 -2.35750200
time 11
0 -0.00000100 7.45008900 -27.50902600 0.00000000 0.00000000 0.00003100
1 -0.00000200 0.00000000 0.00000000 1.57074300 -1.56713700 -1.57074300
2 4.27196300 -4.84269900 0.00578500 0.00000000 0.00000000 -0.12484800
3 7.43124800 1.49647700 0.00000200 0.00000000 0.00000000 0.24545000
4 5.27847900 0.16554100 0.00000100 0.00000000 0.00000000 0.04851100
5 -1.53688100 -12.93732800 6.20562700 1.97586400 1.15990900 -1.29878600
6 -6.21448200 -0.00000700 -0.00002700 -2.70838764 -0.60365004 0.66862421
7 11.94488200 0.00000000 0.00000100 -0.22884676 -0.35469613 1.58630806
8 10.62018100 0.00000200 0.00000000 1.42695349 0.28108168 2.67611257
9 -4.75110600 -0.69449400 0.83057700 -0.22463700 -0.16726600 0.42816600
10 -1.68806800 0.00004600 -0.00003200 0.01457400 -0.01993700 0.80788900
11 -1.33614000 0.00005700 -0.00001200 0.02114300 -0.01573300 1.19424300
12 -4.82049400 -0.50946000 -0.22475900 -0.30211400 -0.18388800 1.37002700
13 -1.82699200 -0.00006400 0.00000600 0.00421900 0.04026900 1.37882300
14 -1.43657300 0.00000600 0.00000200 -0.05454800 -0.05545500 0.68560300
15 -3.99235500 -0.89118800 -1.82790900 -0.49767400 -0.04995000 1.16047400
16 -1.40591800 -0.00002500 -0.00000300 -0.01630900 -0.02456400 1.46015900
17 -1.17535800 0.00012800 -0.00002000 0.04970300 0.04625500 0.72560100
18 -4.52675100 -0.69057500 -1.12074400 -0.42161100 -0.04266300 1.41124900
19 -1.74403800 0.00003300 -0.00000800 -0.02649400 -0.01314800 1.52325100
20 -1.36877100 0.00002500 0.00000200 0.02081800 0.04817500 0.30338500
21 -1.87480000 -0.93512500 0.99917400 1.57875500 0.61726700 0.62740000
22 -1.52345300 0.00003200 0.00003100 0.10785400 0.13660400 0.77279600
23 -1.59928500 0.00000400 0.00001600 0.01182300 -0.04125100 1.27227000
24 5.58312600 0.11572500 0.29499800 2.70854400 -0.05523500 3.09750200
25 0.19684700 -0.00000100 0.00000300 2.79340698 -0.00029255 -3.14151438
26 -0.15169300 -9.79523000 -1.23579900 1.97586200 1.15990900 1.84280300
27 6.21448500 0.00000600 0.00002000 -1.44676927 0.69431821 -2.02697921
28 11.94488500 -0.00002900 -0.00019400 -0.87016907 -0.34157767 -1.95595203
29 10.62016600 0.00000200 0.00001000 -1.36813623 -0.73007013 0.28365184
30 4.75115600 0.69437600 -0.83047300 -0.35541600 -0.40076200 0.96512700
31 1.68806500 -0.00002600 0.00000200 -0.00367600 -0.02375600 1.75077900
32 1.33615100 -0.00005100 -0.00000900 0.03096200 -0.02321100 -0.55646100
33 4.82051300 0.50934000 0.22486500 -0.51051400 -0.29296900 1.25320400
34 1.82699600 0.00006600 0.00000800 0.01740600 0.03653900 1.71901600
35 1.43657700 -0.00001000 0.00000700 0.01508100 0.00113100 -0.80048000
36 3.99235300 0.89108700 1.82799400 -0.59409300 0.14997600 1.42316900
37 1.40591800 0.00002100 -0.00000700 -0.02571600 -0.01440300 1.93866100
38 1.17536900 -0.00013100 0.00000200 0.10276000 0.06814600 0.94199700
39 4.52675600 0.69046000 1.12084200 -0.54396700 0.08405600 1.61621100
40 1.74404100 -0.00003100 -0.00000200 -0.02193600 -0.01984600 1.24733900
41 1.36876300 -0.00003100 -0.00001700 -0.10584200 0.11837400 -0.91845200
42 1.93928100 1.01468800 -0.90910200 1.40068400 0.75422800 0.39461500
43 1.52344900 -0.00003400 -0.00000300 -0.00578400 -0.08060400 0.05769500
44 1.59928100 -0.00000200 0.00000900 0.03666200 0.07497700 -0.28908900
45 5.51180600 -0.00000200 0.00000600 -0.68868500 0.00000000 0.00000000
46 0.19685000 0.00000300 -0.00000200 -0.34822500 0.00001500 -0.00000200
47 0.00000000 0.00000000 0.00000000 0.00000000 0.00000000 -1.57079600
48 -4.12734500 37.78616000 -4.02610900 0.00000000 0.00000000 -3.14156200
49 -8.48215950 52.08673900 -0.63901950 0.46340729 0.27021984 -0.47835335
50 3.19974700 0.35673500 -3.92927900 0.51444000 1.01731900 1.81673900
51 -2.33710300 -0.01178200 -0.27738900 0.00000000 0.00000000 0.00000000
52 0.35904600 -0.01178200 0.66345600 0.00000000 0.00000000 0.00000000
53 -0.02757200 0.00000000 0.20638000 0.00000000 0.00000000 0.00000000
54 2.99531400 -0.01178200 1.52390400 0.00000000 0.00000000 0.00000000
55 -0.35106100 -0.44127600 -4.26437300 0.00000000 0.00000000 0.00000000
56 -3.74221000 -2.15041400 -3.19926900 -3.06199100 0.99804500 -2.35750200
time 12
0 -0.00000100 7.45008900 -27.50902600 0.00000000 0.00000000 0.00003100
1 -0.00000200 0.00000000 0.00000000 1.57074300 -1.56713700 -1.57074300
2 4.27196300 -4.84269900 0.00578500 0.00000000 0.00000000 -0.12484800
3 7.43124800 1.49647700 0.00000200 0.00000000 0.00000000 0.24545000
4 5.27847900 0.16554100 0.00000100 0.00000000 0.00000000 0.04851100
5 -1.64874200 -13.09410300 6.31045800 1.97586400 1.15990900 -1.29878600
6 -6.21448200 -0.00000700 -0.00002700 -2.70603600 -0.59783910 0.65673623
7 11.94488200 0.00000000 0.00000100 -0.22357009 -0.35563632 1.57092036
8 10.62018100 0.00000200 0.00000000 1.41462853 0.25249810 2.70478481
9 -4.75110600 -0.69449400 0.83057700 -0.22463700 -0.16726600 0.42816600
10 -1.68806800 0.00004600 -0.00003200 0.01457400 -0.01993700 0.80788900
11 -1.33614000 0.00005700 -0.00001200 0.02114300 -0.01573300 1.19424300
12 -4.82049400 -0.50946000 -0.22475900 -0.30211400 -0.18388800 1.37002700
13 -1.82699200 -0.00006400 0.00000600 0.00421900 0.04026900 1.37882300
14 -1.43657300 0.00000600 0.00000200 -0.05454800 -0.05545500 0.68560300
15 -3.99235500 -0.89118800 -1.82790900 -0.49767400 -0.04995000 1.16047400
16 -1.40591800 -0.00002500 -0.00000300 -0.01630900 -0.02456400 1.46015900
17 -1.17535800 0.00012800 -0.00002000 0.04970300 0.04625500 0.72560100
18 -4.52675100 -0.69057500 -1.12074400 -0.42161100 -0.04266300 1.41124900
19 -1.74403800 0.00003300 -0.00000800 -0.02649400 -0.01314800 1.52325100
20 -1.36877100 0.00002500 0.00000200 0.02081800 0.04817500 0.30338500
21 -1.87480000 -0.93512500 0.99917400 1.57875500 0.61726700 0.62740000
22 -1.52345300 0.00003200 0.00003100 0.10785400 0.13660400 0.77279600
23 -1.59928500 0.00000400 0.00001600 0.01182300 -0.04125100 1.27227000
24 5.58312600 0.11572500 0.29499800 2.70854400 -0.05523500 3.09750200
25 0.19684700 -0.00000100 0.00000300 2.79340698 -0.00029255 -3.14151438
26 -0.41085800 -9.59733900 -1.21575600 1.97586200 1.15990900 1.84280300
27 6.21448500 0.00000600 0.00002000 -1.46734321 0.67444592 -2.03757977
28 11.94488500 -0.00002900 -0.00019400 -0.87082746 -0.34224349 -1.95391182
29 10.62016600 0.00000200 0.00001000 -1.31175126 -0.73548530 0.23996249
30 4.75115600 0.69437600 -0.83047300 -0.35541600 -0.40076200 0.96512700
31 1.68806500 -0.00002600 0.00000200 -0.00367600 -0.02375600 1.75077900
32 1.33615100 -0.00005100 -0.00000900 0.03096200 -0.02321100 -0.55646100
33 4.82051300 0.50934000 0.22486500 -0.51051400 -0.29296900 1.25320400
34 1.82699600 0.00006600 0.00000800 0.01740600 0.03653900 1.71901600
35 1.43657700 -0.00001000 0.00000700 0.01508100 0.00113100 -0.80048000
36 3.99235300 0.89108700 1.82799400 -0.59409300 0.14997600 1.42316900
37 1.40591800 0.00002100 -0.00000700 -0.02571600 -0.01440300 1.93866100
38 1.17536900 -0.00013100 0.00000200 0.10276000 0.06814600 0.94199700
39 4.52675600 0.69046000 1.12084200 -0.54396700 0.08405600 1.61621100
40 1.74404100 -0.00003100 -0.00000200 -0.02193600 -0.01984600 1.24733900
41 1.36876300 -0.00003100 -0.00001700 -0.10584200 0.11837400 -0.91845200
42 1.93928100 1.01468800 -0.90910200 1.40068400 0.75422800 0.39461500
43 1.52344900 -0.00003400 -0.00000300 -0.00578400 -0.08060400 0.05769500
44 1.59928100 -0.00000200 0.00000900 0.03666200 0.07497700 -0.28908900
45 5.51180600 -0.00000200 0.00000600 -0.68868500 0.00000000 0.00000000
46 0.19685000 0.00000300 -0.00000200 -0.34822500 0.00001500 -0.00000200
47 0.00000000 0.00000000 0.00000000 0.00000000 0.00000000 -1.57079600
48 -4.12734500 37.78616000 -4.02610900 0.00000000 0.00000000 -3.14156200
49 -8.51949650 52.06768800 -0.71941350 0.47549480 0.26612787 -0.43054712
50 3.19974700 0.35673500 -3.92927900 0.51444000 1.01731900 1.81673900
51 -2.33710300 -0.01178200 -0.27738900 0.00000000 0.00000000 0.00000000
52 0.35904600 -0.01178200 0.66345600 0.00000000 0.00000000 0.00000000
53 -0.02757200 0.00000000 0.20638000 0.00000000 0.00000000 0.00000000
54 2.99531400 -0.01178200 1.52390400 0.00000000 0.00000000 0.00000000
55 -0.35106100 -0.44127600 -4.26437300 0.00000000 0.00000000 0.00000000
56 -3.74221000 -2.15041400 -3.19926900 -3.06199100 0.99804500 -2.35750200
time 13
0 -0.00000100 7.45008900 -27.50902600 0.00000000 0.00000000 0.00003100
1 -0.00000200 0.00000000 0.00000000 1.57074300 -1.56713700 -1.57074300
2 4.27196300 -4.84269900 0.00578500 0.00000000 0.00000000 -0.12484800
3 7.43124800 1.49647700 0.00000200 0.00000000 0.00000000 0.24545000
4 5.27847900 0.16554100 0.00000100 0.00000000 0.00000000 0.04851100
5 -1.64874200 -13.09410300 6.31045800 1.97586400 1.15990900 -1.29878600
6 -6.21448200 -0.00000700 -0.00002700 -2.70362605 -0.59629166 0.65769096
7 11.94488200 0.00000000 0.00000100 -0.22084649 -0.35571283 1.56294154
8 10.62018100 0.00000200 0.00000000 1.40018455 0.22949530 2.72844571
9 -4.75110600 -0.69449400 0.83057700 -0.22463700 -0.16726600 0.42816600
10 -1.68806800 0.00004600 -0.00003200 0.01457400 -0.01993700 0.80788900
11 -1.33614000 0.00005700 -0.00001200 0.02114300 -0.01573300 1.19424300
12 -4.82049400 -0.50946000 -0.22475900 -0.30211400 -0.18388800 1.37002700
13 -1.82699200 -0.00006400 0.00000600 0.00421900 0.04026900 1.37882300
14 -1.43657300 0.00000600 0.00000200 -0.05454800 -0.05545500 0.68560300
15 -3.99235500 -0.89118800 -1.82790900 -0.49767400 -0.04995000 1.16047400
16 -1.40591800 -0.00002500 -0.00000300 -0.01630900 -0.02456400 1.46015900
17 -1.17535800 0.00012800 -0.00002000 0.04970300 0.04625500 0.72560100
18 -4.52675100 -0.69057500 -1.12074400 -0.42161100 -0.04266300 1.41124900
19 -1.74403800 0.00003300 -0.00000800 -0.02649400 -0.01314800 1.52325100
20 -1.36877100 0.00002500 0.00000200 0.02081800 0.04817500 0.30338500
21 -1.87480000 -0.93512500 0.99917400 1.57875500 0.61726700 0.62740000
22 -1.52345300 0.00003200 0.00003100 0.10785400 0.13660400 0.77279600
23 -1.59928500 0.00000400 0.00001600 0.01182300 -0.04125100 1.27227000
24 5.58312600 0.11572500 0.29499800 2.70854400 -0.05523500 3.09750200
25 0.19684700 -0.00000100 0.00000300 2.79340698 -0.00029255 -3.14151438
26 -0.61195400 -9.44378600 -1.20020300 1.97586200 1.15990900 1.84280300
27 6.21448500 0.00000600 0.00002000 -1.47755592 0.65570332 -2.04235054
28 11.94488500 -0.00002900 -0.00019400 -0.87211447 -0.34005625 -1.94991349
29 10.62016600 0.00000200 0.00001000 -1.27050555 -0.74489394 0.20906139
30 4.75115600 0.69437600 -0.83047300 -0.35541600 -0.40076200 0.96512700
31 1.68806500 -0.00002600 0.00000200 -0.00367600 -0.02375600 1.75077900
32 1.33615100 -0.00005100 -0.00000900 0.03096200 -0.02321100 -0.55646100
33 4.82051300 0.50934000 0.22486500 -0.51051400 -0.29296900 1.25320400
34 1.82699600 0.00006600 0.00000800 0.01740600 0.03653900 1.71901600
35 1.43657700 -0.00001000 0.00000700 0.01508100 0.00113100 -0.80048000
36 3.99235300 0.89108700 1.82799400 -0.59409300 0.14997600 1.42316900
37 1.40591800 0.00002100 -0.00000700 -0.02571600 -0.01440300 1.93866100
38 1.17536900 -0.00013100 0.00000200 0.10276000 0.06814600 0.94199700
39 4.52675600 0.69046000 1.12084200 -0.54396700 0.08405600 1.61621100
40 1.74404100 -0.00003100 -0.00000200 -0.02193600 -0.01984600 1.24733900
41 1.36876300 -0.00003100 -0.00001700 -0.10584200 0.11837400 -0.91845200
42 1.93928100 1.01468800 -0.90910200 1.40068400 0.75422800 0.39461500
43 1.52344900 -0.00003400 -0.00000300 -0.00578400 -0.08060400 0.05769500
44 1.59928100 -0.00000200 0.00000900 0.03666200 0.07497700 -0.28908900
45 5.51180600 -0.00000200 0.00000600 -0.68868500 0.00000000 0.00000000
46 0.19685000 0.00000300 -0.00000200 -0.34822500 0.00001500 -0.00000200
47 0.00000000 0.00000000 0.00000000 0.00000000 0.00000000 -1.57079600
48 -4.12734500 37.78616000 -4.02610900 0.00000000 0.00000000 -3.14156200
49 -8.51562250 52.05790300 -0.73115600 0.47908425 0.26394566 -0.39825603
50 3.19974700 0.35673500 -3.92927900 0.51444000 1.01731900 1.81673900
51 -2.33710300 -0.01178200 -0.27738900 0.00000000 0.00000000 0.00000000
52 0.35904600 -0.01178200 0.66345600 0.00000000 0.00000000 0.00000000
53 -0.02757200 0.00000000 0.20638000 0.00000000 0.00000000 0.00000000
54 2.99531400 -0.01178200 1.52390400 0.00000000 0.00000000 0.00000000
55 -0.35106100 -0.44127600 -4.26437300 0.00000000 0.00000000 0.00000000
56 -3.74221000 -2.15041400 -3.19926900 -3.06199100 0.99804500 -2.35750200
time 14
0 -0.00000100 7.45008900 -27.50902600 0.00000000 0.00000000 0.00003100
1 -0.00000200 0.00000000 0.00000000 1.57074300 -1.56713700 -1.57074300
2 4.27196300 -4.84269900 0.00578500 0.00000000 0.00000000 -0.12484800
3 7.43124800 1.49647700 0.00000200 0.00000000 0.00000000 0.24545000
4 5.27847900 0.16554100 0.00000100 0.00000000 0.00000000 0.04851100
5 -1.64874200 -13.09410300 6.31045800 1.97586400 1.15990900 -1.29878600
6 -6.21448200 -0.00000700 -0.00002700 -2.70239216 -0.59545745 0.65773580
7 11.94488200 0.00000000 0.00000100 -0.21962677 -0.35511776 1.55941623
8 10.62018100 0.00000200 0.00000000 1.38355239 0.21957748 2.73786676
9 -4.75110600 -0.69449400 0.83057700 -0.22463700 -0.16726600 0.42816600
10 -1.68806800 0.00004600 -0.00003200 0.01457400 -0.01993700 0.80788900
11 -1.33614000 0.00005700 -0.00001200 0.02114300 -0.01573300 1.19424300
12 -4.82049400 -0.50946000 -0.22475900 -0.30211400 -0.18388800 1.37002700
13 -1.82699200 -0.00006400 0.00000600 0.00421900 0.04026900 1.37882300
14 -1.43657300 0.00000600 0.00000200 -0.05454800 -0.05545500 0.68560300
15 -3.99235500 -0.89118800 -1.82790900 -0.49767400 -0.04995000 1.16047400
16 -1.40591800 -0.00002500 -0.00000300 -0.01630900 -0.02456400 1.46015900
17 -1.17535800 0.00012800 -0.00002000 0.04970300 0.04625500 0.72560100
18 -4.52675100 -0.69057500 -1.12074400 -0.42161100 -0.04266300 1.41124900
19 -1.74403800 0.00003300 -0.00000800 -0.02649400 -0.01314800 1.52325100
20 -1.36877100 0.00002500 0.00000200 0.02081800 0.04817500 0.30338500
21 -1.87480000 -0.93512500 0.99917400 1.57875500 0.61726700 0.62740000
22 -1.52345300 0.00003200 0.00003100 0.10785400 0.13660400 0.77279600
23 -1.59928500 0.00000400 0.00001600 0.01182300 -0.04125100 1.27227000
24 5.58312600 0.11572500 0.29499800 2.70854400 -0.05523500 3.09750200
25 0.19684700 -0.00000100 0.00000300 2.79340698 -0.00029255 -3.14151438
26 -0.74207300 -9.34442900 -1.19014000 1.97586200 1.15990900 1.84280300
27 6.21448500 0.00000600 0.00002000 -1.48317951 0.64224596 -2.04367422
28 11.94488500 -0.00002900 -0.00019400 -0.87262386 -0.33614722 -1.94813787
29 10.62016600 0.00000200 0.00001000 -1.24160293 -0.75786361 0.19326255
30 4.75115600 0.69437600 -0.83047300 -0.35541600 -0.40076200 0.96512700
31 1.68806500 -0.00002600 0.00000200 -0.00367600 -0.02375600 1.75077900
32 1.33615100 -0.00005100 -0.00000900 0.03096200 -0.02321100 -0.55646100
33 4.82051300 0.50934000 0.22486500 -0.51051400 -0.29296900 1.25320400
34 1.82699600 0.00006600 0.00000800 0.01740600 0.03653900 1.71901600
35 1.43657700 -0.00001000 0.00000700 0.01508100 0.00113100 -0.80048000
36 3.99235300 0.89108700 1.82799400 -0.59409300 0.14997600 1.42316900
37 1.40591800 0.00002100 -0.00000700 -0.02571600 -0.01440300 1.93866100
38 1.17536900 -0.00013100 0.00000200 0.10276000 0.06814600 0.94199700
39 4.52675600 0.69046000 1.12084200 -0.54396700 0.08405600 1.61621100
40 1.74404100 -0.00003100 -0.00000200 -0.02193600 -0.01984600 1.24733900
41 1.36876300 -0.00003100 -0.00001700 -0.10584200 0.11837400 -0.91845200
42 1.93928100 1.01468800 -0.90910200 1.40068400 0.75422800 0.39461500
43 1.52344900 -0.00003400 -0.00000300 -0.00578400 -0.08060400 0.05769500
44 1.59928100 -0.00000200 0.00000900 0.03666200 0.07497700 -0.28908900
45 5.51180600 -0.00000200 0.00000600 -0.68868500 0.00000000 0.00000000
46 0.19685000 0.00000300 -0.00000200 -0.34822500 0.00001500 -0.00000200
47 0.00000000 0.00000000 0.00000000 0.00000000 0.00000000 -1.57079600
48 -4.12734500 37.78616000 -4.02610900 0.00000000 0.00000000 -3.14156200
49 -8.49797500 52.05430200 -0.72011900 0.47284294 0.26341761 -0.37973834
50 3.19974700 0.35673500 -3.92927900 0.51444000 1.01731900 1.81673900
51 -2.33710300 -0.01178200 -0.27738900 0.00000000 0.00000000 0.00000000
52 0.35904600 -0.01178200 0.66345600 0.00000000 0.00000000 0.00000000
53 -0.02757200 0.00000000 0.20638000 0.00000000 0.00000000 0.00000000
54 2.99531400 -0.01178200 1.52390400 0.00000000 0.00000000 0.00000000
55 -0.35106100 -0.44127600 -4.26437300 0.00000000 0.00000000 0.00000000
56 -3.74221000 -2.15041400 -3.19926900 -3.06199100 0.99804500 -2.35750200
time 15
0 -0.00000100 7.45008900 -27.50902600 0.00000000 0.00000000 0.00003100
1 -0.00000200 0.00000000 0.00000000 1.57074300 -1.56713700 -1.57074300
2 4.27196300 -4.84269900 0.00578500 0.00000000 0.00000000 -0.12484800
3 7.43124800 1.49647700 0.00000200 0.00000000 0.00000000 0.24545000
4 5.27847900 0.16554100 0.00000100 0.00000000 0.00000000 0.04851100
5 -1.64874200 -13.09410300 6.31045800 1.97586400 1.15990900 -1.29878600
6 -6.21448200 -0.00000700 -0.00002700 -2.70211849 -0.59527055 0.65764909
7 11.94488200 0.00000000 0.00000100 -0.21952304 -0.35382746 1.55896316
8 10.62018100 0.00000200 0.00000000 1.37036444 0.22011264 2.73850364
9 -4.75110600 -0.69449400 0.83057700 -0.22463700 -0.16726600 0.42816600
10 -1.68806800 0.00004600 -0.00003200 0.01457400 -0.01993700 0.80788900
11 -1.33614000 0.00005700 -0.00001200 0.02114300 -0.01573300 1.19424300
12 -4.82049400 -0.50946000 -0.22475900 -0.30211400 -0.18388800 1.37002700
13 -1.82699200 -0.00006400 0.00000600 0.00421900 0.04026900 1.37882300
14 -1.43657300 0.00000600 0.00000200 -0.05454800 -0.05545500 0.68560300
15 -3.99235500 -0.89118800 -1.82790900 -0.49767400 -0.04995000 1.16047400
16 -1.40591800 -0.00002500 -0.00000300 -0.01630900 -0.02456400 1.46015900
17 -1.17535800 0.00012800 -0.00002000 0.04970300 0.04625500 0.72560100
18 -4.52675100 -0.69057500 -1.12074400 -0.42161100 -0.04266300 1.41124900
19 -1.74403800 0.00003300 -0.00000800 -0.02649400 -0.01314800 1.52325100
20 -1.36877100 0.00002500 0.00000200 0.02081800 0.04817500 0.30338500
21 -1.87480000 -0.93512500 0.99917400 1.57875500 0.61726700 0.62740000
22 -1.52345300 0.00003200 0.00003100 0.10785400 0.13660400 0.77279600
23 -1.59928500 0.00000400 0.00001600 0.01182300 -0.04125100 1.27227000
24 5.58312600 0.11572500 0.29499800 2.70854400 -0.05523500 3.09750200
25 0.19684700 -0.00000100 0.00000300 2.79340698 -0.00029255 -3.14151438
26 -0.78831500 -9.30912200 -1.18656300 1.97586200 1.15990900 1.84280300
27 6.21448500 0.00000600 0.00002000 -1.48591447 0.63608572 -2.04305884
28 11.94488500 -0.00002900 -0.00019400 -0.87240612 -0.33189654 -1.94878271
29 10.62016600 0.00000200 0.00001000 -1.22731882 -0.76828310 0.19070341
30 4.75115600 0.69437600 -0.83047300 -0.35541600 -0.40076200 0.96512700
31 1.68806500 -0.00002600 0.00000200 -0.00367600 -0.02375600 1.75077900
32 1.33615100 -0.00005100 -0.00000900 0.03096200 -0.02321100 -0.55646100
33 4.82051300 0.50934000 0.22486500 -0.51051400 -0.29296900 1.25320400
34 1.82699600 0.00006600 0.00000800 0.01740600 0.03653900 1.71901600
35 1.43657700 -0.00001000 0.00000700 0.01508100 0.00113100 -0.80048000
36 3.99235300 0.89108700 1.82799400 -0.59409300 0.14997600 1.42316900
37 1.40591800 0.00002100 -0.00000700 -0.02571600 -0.01440300 1.93866100
38 1.17536900 -0.00013100 0.00000200 0.10276000 0.06814600 0.94199700
39 4.52675600 0.69046000 1.12084200 -0.54396700 0.08405600 1.61621100
40 1.74404100 -0.00003100 -0.00000200 -0.02193600 -0.01984600 1.24733900
41 1.36876300 -0.00003100 -0.00001700 -0.10584200 0.11837400 -0.91845200
42 1.93928100 1.01468800 -0.90910200 1.40068400 0.75422800 0.39461500
43 1.52344900 -0.00003400 -0.00000300 -0.00578400 -0.08060400 0.05769500
44 1.59928100 -0.00000200 0.00000900 0.03666200 0.07497700 -0.28908900
45 5.51180600 -0.00000200 0.00000600 -0.68868500 0.00000000 0.00000000
46 0.19685000 0.00000300 -0.00000200 -0.34822500 0.00001500 -0.00000200
47 0.00000000 0.00000000 0.00000000 0.00000000 0.00000000 -1.57079600
48 -4.12734500 37.78616000 -4.02610900 0.00000000 0.00000000 -3.14156200
49 -8.47521400 52.05378300 -0.70270750 0.46356950 0.26525955 -0.37313345
50 3.19974700 0.35673500 -3.92927900 0.51444000 1.01731900 1.81673900
51 -2.33710300 -0.01178200 -0.27738900 0.00000000 0.00000000 0.00000000
52 0.35904600 -0.01178200 0.66345600 0.00000000 0.00000000 0.00000000
53 -0.02757200 0.00000000 0.20638000 0.00000000 0.00000000 0.00000000
54 2.99531400 -0.01178200 1.52390400 0.00000000 0.00000000 0.00000000
55 -0.35106100 -0.44127600 -4.26437300 0.00000000 0.00000000 0.00000000
56 -3.74221000 -2.15041400 -3.19926900 -3.06199100 0.99804500 -2.35750200
end
