version 1
nodes
0 "root" -1
1 "pelvis" 0
2 "spine_01" 1
3 "spine_02" 2
4 "spine_03" 3
5 "clavicle_r" 4
6 "upperarm_r" 5
7 "lowerarm_r" 6
8 "hand_r" 7
9 "index_01_r" 8
10 "index_02_r" 9
11 "index_03_r" 10
12 "middle_01_r" 8
13 "middle_02_r" 12
14 "middle_03_r" 13
15 "pinky_01_r" 8
16 "pinky_02_r" 15
17 "pinky_03_r" 16
18 "ring_01_r" 8
19 "ring_02_r" 18
20 "ring_03_r" 19
21 "thumb_01_r" 8
22 "thumb_02_r" 21
23 "thumb_03_r" 22
24 "lowerarm_twist_01_r" 7
25 "upperarm_twist_01_r" 6
26 "clavicle_l" 4
27 "upperarm_l" 26
28 "lowerarm_l" 27
29 "hand_l" 28
30 "index_01_l" 29
31 "index_02_l" 30
32 "index_03_l" 31
33 "middle_01_l" 29
34 "middle_02_l" 33
35 "middle_03_l" 34
36 "pinky_01_l" 29
37 "pinky_02_l" 36
38 "pinky_03_l" 37
39 "ring_01_l" 29
40 "ring_02_l" 39
41 "ring_03_l" 40
42 "thumb_01_l" 29
43 "thumb_02_l" 42
44 "thumb_03_l" 43
45 "lowerarm_twist_01_l" 28
46 "upperarm_twist_01_l" 27
47 "cam_driver" -1
48 "BaseRoot" -1
49 "Base" 48
50 "rhand_ikTarget" 49
51 "Mag" 49
52 "Bullets" 51
53 "Bolt" 49
54 "Boltpuller" 49
55 "lhand_ikTarget" 49
end
skeleton
time 0
0 -0.00000100 8.95008800 -27.50902600 0.00000000 0.00000000 0.00003100
1 -0.00000200 0.00000000 0.00000000 1.57074300 -1.56713700 -1.57074300
2 4.25546800 -0.33518300 -0.00000200 0.00000000 0.00000000 -0.12484800
3 7.43124800 1.49647700 0.00000200 0.00000000 0.00000000 0.24545000
4 5.27847900 0.16554100 0.00000100 0.00000000 0.00000000 0.04851100
5 3.06931772 -10.63218283 1.05031795 1.97586400 1.15990900 -1.29878600
6 -6.21448200 -0.00000700 -0.00002700 -3.09458216 -0.71336681 1.53147804
7 11.94488200 0.00000000 0.00000100 -0.25515729 -0.36149148 1.66157396
8 10.62018100 0.00000200 0.00000000 1.07175601 0.17946795 2.83755517
9 -4.75110600 -0.69449400 0.83057700 0.01571000 -0.16543500 0.43812000
10 -1.68806800 0.00004600 -0.00003200 0.01457400 -0.01993700 0.80788900
11 -1.33614000 0.00005700 -0.00001200 0.02114300 -0.01573300 1.19424300
12 -4.82049400 -0.50946000 -0.22475900 -0.29733500 -0.05057600 1.32850400
13 -1.82699200 -0.00006400 0.00000600 0.00421900 0.04026900 1.37882300
14 -1.43657300 0.00000600 0.00000200 -0.05454800 -0.05545500 0.68560300
15 -3.99235500 -0.89118800 -1.82790900 -0.52370500 0.13815700 1.09576700
16 -1.40591800 -0.00002500 -0.00000300 -0.01630900 -0.02456400 1.46015900
17 -1.17535800 0.00012800 -0.00002000 0.04970300 0.04625500 0.72560100
18 -4.52675100 -0.69057500 -1.12074400 -0.36124800 0.11255600 1.35155400
19 -1.74403800 0.00003300 -0.00000800 -0.02649400 -0.01314800 1.52325100
20 -1.36877100 0.00002500 0.00000200 0.02081800 0.04817500 0.30338500
21 -1.87480000 -0.93512500 0.99917400 2.03358000 0.44787100 0.71499600
22 -1.52345300 0.00003200 0.00003100 0.08365400 0.15258100 0.60551300
23 -1.59928500 0.00000400 0.00001600 0.03405500 -0.02608500 0.63444600
24 5.58312600 0.11572600 0.29499986 2.70854400 -0.05523500 3.09750200
25 0.19684700 -0.00000100 0.00000300 2.79340681 -0.00103036 -3.14130363
26 1.85379400 -17.99297300 -4.05036000 1.97586200 1.15990900 1.84280300
27 6.21448500 0.00000600 0.00002000 -0.92613149 1.21527311 -2.00176548
28 11.94488500 -0.00002900 -0.00019400 -0.76351433 -0.26928141 -2.32089675
29 10.62016600 0.00000200 0.00001000 -1.29082222 -1.03318956 -0.12797646
30 4.75115600 0.69437600 -0.83047300 -0.35541600 -0.40076200 0.96512700
31 1.68806500 -0.00002600 0.00000200 0.00060900 -0.02405100 1.57091900
32 1.33615100 -0.00005100 -0.00000900 0.03096200 -0.02321100 -0.55646100
33 4.82051300 0.50934000 0.22486500 -0.46613700 -0.36236500 1.11545800
34 1.82699600 0.00006600 0.00000800 0.01740600 0.03653900 1.71901600
35 1.43657700 -0.00001000 0.00000700 0.01508100 0.00113100 -0.80048000
36 3.99235300 0.89108700 1.82799400 -0.59409300 0.14997600 1.42316900
37 1.40591800 0.00002100 -0.00000700 -0.02571600 -0.01440300 1.93866100
38 1.17536900 -0.00013100 0.00000200 0.10276000 0.06814600 0.94199700
39 4.52675600 0.69046000 1.12084200 -0.57980600 0.00508600 1.48936900
40 1.74404100 -0.00003100 -0.00000200 -0.02193600 -0.01984600 1.24733900
41 1.36876300 -0.00003100 -0.00001700 -0.10584200 0.11837400 -0.91845200
42 1.93928000 1.01468924 -0.90910338 1.40068400 0.75422800 0.39461500
43 1.52344900 -0.00003400 -0.00000300 -0.00578400 -0.08060400 0.05769500
44 1.59928100 -0.00000200 0.00000900 0.03666200 0.07497700 -0.28908900
45 5.51180600 -0.00000200 0.00000600 -0.68868500 0.00000000 0.00000000
46 0.19685000 0.00000300 -0.00000200 -0.34822500 0.00001500 -0.00000200
47 0.00000000 1.50000000 0.00000000 0.00000000 0.00000000 -1.57079600
48 -4.12734200 4.33335800 -4.02610900 0.00000000 0.00000000 -3.14156200
49 -7.14336730 17.57825175 -1.87619407 0.31309992 0.09488633 -0.70106810
50 4.14835265 0.36076301 -2.98170298 0.50930200 1.05518000 1.79425300
51 0.01125900 -0.01178200 0.16934900 0.00000000 0.00000000 0.00000000
52 -0.02757200 0.00000000 0.20638000 0.00000000 0.00000000 0.00000000
53 -1.37762538 -0.01178200 1.78904338 0.00000000 0.00000000 0.00000000
54 -5.03786700 -0.01178200 2.45071500 0.00000000 0.00000000 0.00000000
55 -3.28798700 -2.29278600 -1.49180700 -3.06199100 0.99804500 -2.35750200
time 1
0 -0.00000100 8.95008800 -27.50902600 0.00000000 0.00000000 0.00003100
1 -0.00000200 0.00000000 0.00000000 1.57074300 -1.56713700 -1.57074300
2 4.25546800 -0.33518300 -0.00000200 0.00000000 0.00000000 -0.12484800
3 7.43124800 1.49647700 0.00000200 0.00000000 0.00000000 0.24545000
4 5.27847900 0.16554100 0.00000100 0.00000000 0.00000000 0.04851100
5 3.06931772 -10.63218283 1.05031795 1.97586400 1.15990900 -1.29878600
6 -6.21448200 -0.00000700 -0.00002700 -3.08827137 -0.71136928 1.52518843
7 11.94488200 0.00000000 0.00000100 -0.25357197 -0.36436716 1.65662016
8 10.62018100 0.00000200 0.00000000 1.08509354 0.16975206 2.84362349
9 -4.75110600 -0.69449400 0.83057700 0.01571000 -0.16543500 0.43812000
10 -1.68806800 0.00004600 -0.00003200 0.01457400 -0.01993700 0.80788900
11 -1.33614000 0.00005700 -0.00001200 0.02114300 -0.01573300 1.19424300
12 -4.82049400 -0.50946000 -0.22475900 -0.29733500 -0.05057600 1.32850400
13 -1.82699200 -0.00006400 0.00000600 0.00421900 0.04026900 1.37882300
14 -1.43657300 0.00000600 0.00000200 -0.05454800 -0.05545500 0.68560300
15 -3.99235500 -0.89118800 -1.82790900 -0.52370500 0.13815700 1.09576700
16 -1.40591800 -0.00002500 -0.00000300 -0.01630900 -0.02456400 1.46015900
17 -1.17535800 0.00012800 -0.00002000 0.04970300 0.04625500 0.72560100
18 -4.52675100 -0.69057500 -1.12074400 -0.36124800 0.11255600 1.35155400
19 -1.74403800 0.00003300 -0.00000800 -0.02649400 -0.01314800 1.52325100
20 -1.36877100 0.00002500 0.00000200 0.02081800 0.04817500 0.30338500
21 -1.87480000 -0.93512500 0.99917400 2.03358000 0.44787100 0.71499600
22 -1.52345300 0.00003200 0.00003100 0.08365400 0.15258100 0.60551300
23 -1.59928500 0.00000400 0.00001600 0.03405500 -0.02608500 0.63444600
24 5.58312600 0.11572600 0.29499986 2.70854400 -0.05523500 3.09750200
25 0.19684700 -0.00000100 0.00000300 2.79340681 -0.00103036 -3.14130363
26 1.85379400 -17.99297300 -4.05036000 1.97586200 1.15990900 1.84280300
27 6.21448500 0.00000600 0.00002000 -0.92788229 1.21451703 -2.00349947
28 11.94488500 -0.00002900 -0.00019400 -0.76382869 -0.27307596 -2.31943778
29 10.62016600 0.00000200 0.00001000 -1.29766493 -1.02581984 -0.13189834
30 4.75115600 0.69437600 -0.83047300 -0.35541600 -0.40076200 0.96512700
31 1.68806500 -0.00002600 0.00000200 0.00060900 -0.02405100 1.57091900
32 1.33615100 -0.00005100 -0.00000900 0.03096200 -0.02321100 -0.55646100
33 4.82051300 0.50934000 0.22486500 -0.46613700 -0.36236500 1.11545800
34 1.82699600 0.00006600 0.00000800 0.01740600 0.03653900 1.71901600
35 1.43657700 -0.00001000 0.00000700 0.01508100 0.00113100 -0.80048000
36 3.99235300 0.89108700 1.82799400 -0.59409300 0.14997600 1.42316900
37 1.40591800 0.00002100 -0.00000700 -0.02571600 -0.01440300 1.93866100
38 1.17536900 -0.00013100 0.00000200 0.10276000 0.06814600 0.94199700
39 4.52675600 0.69046000 1.12084200 -0.57980600 0.00508600 1.48936900
40 1.74404100 -0.00003100 -0.00000200 -0.02193600 -0.01984600 1.24733900
41 1.36876300 -0.00003100 -0.00001700 -0.10584200 0.11837400 -0.91845200
42 1.93928000 1.01468924 -0.90910338 1.40068400 0.75422800 0.39461500
43 1.52344900 -0.00003400 -0.00000300 -0.00578400 -0.08060400 0.05769500
44 1.59928100 -0.00000200 0.00000900 0.03666200 0.07497700 -0.28908900
45 5.51180600 -0.00000200 0.00000600 -0.68868500 0.00000000 0.00000000
46 0.19685000 0.00000300 -0.00000200 -0.34822500 0.00001500 -0.00000200
47 0.00000000 1.50000000 0.00000000 0.00000000 0.00000000 -1.57079600
48 -4.12734200 4.33335800 -4.02610900 0.00000000 0.00000000 -3.14156200
49 -7.18834990 17.60109666 -1.84401384 0.32579681 0.09115402 -0.69901040
50 4.14835265 0.36076301 -2.98170298 0.50930200 1.05518000 1.79425300
51 0.01125900 -0.01178200 0.16934900 0.00000000 0.00000000 0.00000000
52 -0.02757200 0.00000000 0.20638000 0.00000000 0.00000000 0.00000000
53 -1.37762538 -0.01178200 1.78904338 0.00000000 0.00000000 0.00000000
54 -5.03786700 -0.01178200 2.45071500 0.00000000 0.00000000 0.00000000
55 -3.28798700 -2.29278600 -1.49180700 -3.06199100 0.99804500 -2.35750200
time 2
0 -0.00000100 8.95008800 -27.50902600 0.00000000 0.00000000 0.00003100
1 -0.00000200 0.00000000 0.00000000 1.57074300 -1.56713700 -1.57074300
2 4.25546800 -0.33518300 -0.00000200 0.00000000 0.00000000 -0.12484800
3 7.43124800 1.49647700 0.00000200 0.00000000 0.00000000 0.24545000
4 5.27847900 0.16554100 0.00000100 0.00000000 0.00000000 0.04851100
5 3.06931772 -10.63218283 1.05031795 1.97586400 1.15990900 -1.29878600
6 -6.21448200 -0.00000700 -0.00002700 -3.07064210 -0.70433890 1.50922569
7 11.94488200 0.00000000 0.00000100 -0.24907470 -0.36608870 1.64345307
8 10.62018100 0.00000200 0.00000000 1.11097107 0.15267496 2.85441763
9 -4.75110600 -0.69449400 0.83057700 0.01571000 -0.16543500 0.43812000
10 -1.68806800 0.00004600 -0.00003200 0.01457400 -0.01993700 0.80788900
11 -1.33614000 0.00005700 -0.00001200 0.02114300 -0.01573300 1.19424300
12 -4.82049400 -0.50946000 -0.22475900 -0.29733500 -0.05057600 1.32850400
13 -1.82699200 -0.00006400 0.00000600 0.00421900 0.04026900 1.37882300
14 -1.43657300 0.00000600 0.00000200 -0.05454800 -0.05545500 0.68560300
15 -3.99235500 -0.89118800 -1.82790900 -0.52370500 0.13815700 1.09576700
16 -1.40591800 -0.00002500 -0.00000300 -0.01630900 -0.02456400 1.46015900
17 -1.17535800 0.00012800 -0.00002000 0.04970300 0.04625500 0.72560100
18 -4.52675100 -0.69057500 -1.12074400 -0.36124800 0.11255600 1.35155400
19 -1.74403800 0.00003300 -0.00000800 -0.02649400 -0.01314800 1.52325100
20 -1.36877100 0.00002500 0.00000200 0.02081800 0.04817500 0.30338500
21 -1.87480000 -0.93512500 0.99917400 2.03358000 0.44787100 0.71499600
22 -1.52345300 0.00003200 0.00003100 0.08365400 0.15258100 0.60551300
23 -1.59928500 0.00000400 0.00001600 0.03405500 -0.02608500 0.63444600
24 5.58312600 0.11572600 0.29499986 2.70854400 -0.05523500 3.09750200
25 0.19684700 -0.00000100 0.00000300 2.79340681 -0.00103036 -3.14130363
26 1.85379400 -17.99297300 -4.05036000 1.97586200 1.15990900 1.84280300
27 6.21448500 0.00000600 0.00002000 -0.93490816 1.20835183 -2.00470010
28 11.94488500 -0.00002900 -0.00019400 -0.76522091 -0.27869418 -2.31425858
29 10.62016600 0.00000200 0.00001000 -1.32322218 -1.01213744 -0.12730504
30 4.75115600 0.69437600 -0.83047300 -0.35541600 -0.40076200 0.96512700
31 1.68806500 -0.00002600 0.00000200 0.00060900 -0.02405100 1.57091900
32 1.33615100 -0.00005100 -0.00000900 0.03096200 -0.02321100 -0.55646100
33 4.82051300 0.50934000 0.22486500 -0.46613700 -0.36236500 1.11545800
34 1.82699600 0.00006600 0.00000800 0.01740600 0.03653900 1.71901600
35 1.43657700 -0.00001000 0.00000700 0.01508100 0.00113100 -0.80048000
36 3.99235300 0.89108700 1.82799400 -0.59409300 0.14997600 1.42316900
37 1.40591800 0.00002100 -0.00000700 -0.02571600 -0.01440300 1.93866100
38 1.17536900 -0.00013100 0.00000200 0.10276000 0.06814600 0.94199700
39 4.52675600 0.69046000 1.12084200 -0.57980600 0.00508600 1.48936900
40 1.74404100 -0.00003100 -0.00000200 -0.02193600 -0.01984600 1.24733900
41 1.36876300 -0.00003100 -0.00001700 -0.10584200 0.11837400 -0.91845200
42 1.93928000 1.01468924 -0.90910338 1.40068400 0.75422800 0.39461500
43 1.52344900 -0.00003400 -0.00000300 -0.00578400 -0.08060400 0.05769500
44 1.59928100 -0.00000200 0.00000900 0.03666200 0.07497700 -0.28908900
45 5.51180600 -0.00000200 0.00000600 -0.68868500 0.00000000 0.00000000
46 0.19685000 0.00000300 -0.00000200 -0.34822500 0.00001500 -0.00000200
47 0.00000000 1.50000000 0.00000000 0.00000000 0.00000000 -1.57079600
48 -4.12734200 4.33335800 -4.02610900 0.00000000 0.00000000 -3.14156200
49 -7.30330205 17.66515506 -1.75042216 0.35226654 0.08490953 -0.69638693
50 4.14835265 0.36076301 -2.98170298 0.50930200 1.05518000 1.79425300
51 0.01125900 -0.01178200 0.16934900 0.00000000 0.00000000 0.00000000
52 -0.02757200 0.00000000 0.20638000 0.00000000 0.00000000 0.00000000
53 -1.37762538 -0.01178200 1.78904338 0.00000000 0.00000000 0.00000000
54 -5.03786700 -0.01178200 2.45071500 0.00000000 0.00000000 0.00000000
55 -3.28798700 -2.29278600 -1.49180700 -3.06199100 0.99804500 -2.35750200
time 3
0 -0.00000100 8.95008800 -27.50902600 0.00000000 0.00000000 0.00003100
1 -0.00000200 0.00000000 0.00000000 1.57074300 -1.56713700 -1.57074300
2 4.25546800 -0.33518300 -0.00000200 0.00000000 0.00000000 -0.12484800
3 7.43124800 1.49647700 0.00000200 0.00000000 0.00000000 0.24545000
4 5.27847900 0.16554100 0.00000100 0.00000000 0.00000000 0.04851100
5 3.06931772 -10.63218283 1.05031795 1.97586400 1.15990900 -1.29878600
6 -6.21448200 -0.00000700 -0.00002700 -3.05172427 -0.69748907 1.48959047
7 11.94488200 0.00000000 0.00000100 -0.24269680 -0.36461690 1.62487087
8 10.62018100 0.00000200 0.00000000 1.12051830 0.14352008 2.86102771
9 -4.75110600 -0.69449400 0.83057700 0.01571000 -0.16543500 0.43812000
10 -1.68806800 0.00004600 -0.00003200 0.01457400 -0.01993700 0.80788900
11 -1.33614000 0.00005700 -0.00001200 0.02114300 -0.01573300 1.19424300
12 -4.82049400 -0.50946000 -0.22475900 -0.29733500 -0.05057600 1.32850400
13 -1.82699200 -0.00006400 0.00000600 0.00421900 0.04026900 1.37882300
14 -1.43657300 0.00000600 0.00000200 -0.05454800 -0.05545500 0.68560300
15 -3.99235500 -0.89118800 -1.82790900 -0.52370500 0.13815700 1.09576700
16 -1.40591800 -0.00002500 -0.00000300 -0.01630900 -0.02456400 1.46015900
17 -1.17535800 0.00012800 -0.00002000 0.04970300 0.04625500 0.72560100
18 -4.52675100 -0.69057500 -1.12074400 -0.36124800 0.11255600 1.35155400
19 -1.74403800 0.00003300 -0.00000800 -0.02649400 -0.01314800 1.52325100
20 -1.36877100 0.00002500 0.00000200 0.02081800 0.04817500 0.30338500
21 -1.87480000 -0.93512500 0.99917400 2.03358000 0.44787100 0.71499600
22 -1.52345300 0.00003200 0.00003100 0.08365400 0.15258100 0.60551300
23 -1.59928500 0.00000400 0.00001600 0.03405500 -0.02608500 0.63444600
24 5.58312600 0.11572600 0.29499986 2.70854400 -0.05523500 3.09750200
25 0.19684700 -0.00000100 0.00000300 2.79340681 -0.00103036 -3.14130363
26 1.85379400 -17.99297300 -4.05036000 1.97586200 1.15990900 1.84280300
27 6.21448500 0.00000600 0.00002000 -0.94339262 1.19753879 -1.99772900
28 11.94488500 -0.00002900 -0.00019400 -0.76669435 -0.27982638 -2.30884666
29 10.62016600 0.00000200 0.00001000 -1.35140608 -1.01047336 -0.10450233
30 4.75115600 0.69437600 -0.83047300 -0.35541600 -0.40076200 0.96512700
31 1.68806500 -0.00002600 0.00000200 0.00060900 -0.02405100 1.57091900
32 1.33615100 -0.00005100 -0.00000900 0.03096200 -0.02321100 -0.55646100
33 4.82051300 0.50934000 0.22486500 -0.46613700 -0.36236500 1.11545800
34 1.82699600 0.00006600 0.00000800 0.01740600 0.03653900 1.71901600
35 1.43657700 -0.00001000 0.00000700 0.01508100 0.00113100 -0.80048000
36 3.99235300 0.89108700 1.82799400 -0.59409300 0.14997600 1.42316900
37 1.40591800 0.00002100 -0.00000700 -0.02571600 -0.01440300 1.93866100
38 1.17536900 -0.00013100 0.00000200 0.10276000 0.06814600 0.94199700
39 4.52675600 0.69046000 1.12084200 -0.57980600 0.00508600 1.48936900
40 1.74404100 -0.00003100 -0.00000200 -0.02193600 -0.01984600 1.24733900
41 1.36876300 -0.00003100 -0.00001700 -0.10584200 0.11837400 -0.91845200
42 1.93928000 1.01468924 -0.90910338 1.40068400 0.75422800 0.39461500
43 1.52344900 -0.00003400 -0.00000300 -0.00578400 -0.08060400 0.05769500
44 1.59928100 -0.00000200 0.00000900 0.03666200 0.07497700 -0.28908900
45 5.51180600 -0.00000200 0.00000600 -0.68868500 0.00000000 0.00000000
46 0.19685000 0.00000300 -0.00000200 -0.34822500 0.00001500 -0.00000200
47 0.00000000 1.50000000 0.00000000 0.00000000 0.00000000 -1.57079600
48 -4.12734200 4.33335800 -4.02610900 0.00000000 0.00000000 -3.14156200
49 -7.44281793 17.76372614 -1.65951526 0.36210990 0.08162951 -0.69327419
50 4.14835265 0.36076301 -2.98170298 0.50930200 1.05518000 1.79425300
51 0.01125900 -0.01178200 0.16934900 0.00000000 0.00000000 0.00000000
52 -0.02757200 0.00000000 0.20638000 0.00000000 0.00000000 0.00000000
53 -1.37762538 -0.01178200 1.78904338 0.00000000 0.00000000 0.00000000
54 -5.03786700 -0.01178200 2.45071500 0.00000000 0.00000000 0.00000000
55 -3.28798700 -2.29278600 -1.49180700 -3.06199100 0.99804500 -2.35750200
time 4
0 -0.00000100 8.95008800 -27.50902600 0.00000000 0.00000000 0.00003100
1 -0.00000200 0.00000000 0.00000000 1.57074300 -1.56713700 -1.57074300
2 4.25546800 -0.33518300 -0.00000200 0.00000000 0.00000000 -0.12484800
3 7.43124800 1.49647700 0.00000200 0.00000000 0.00000000 0.24545000
4 5.27847900 0.16554100 0.00000100 0.00000000 0.00000000 0.04851100
5 3.06931772 -10.63218283 1.05031795 1.97586400 1.15990900 -1.29878600
6 -6.21448200 -0.00000700 -0.00002700 -3.02622766 -0.69433234 1.46983945
7 11.94488200 0.00000000 0.00000100 -0.23567872 -0.36056664 1.60470224
8 10.62018100 0.00000200 0.00000000 1.13861535 0.13458943 2.87027905
9 -4.75110600 -0.69449400 0.83057700 0.01571000 -0.16543500 0.43812000
10 -1.68806800 0.00004600 -0.00003200 0.01457400 -0.01993700 0.80788900
11 -1.33614000 0.00005700 -0.00001200 0.02114300 -0.01573300 1.19424300
12 -4.82049400 -0.50946000 -0.22475900 -0.29733500 -0.05057600 1.32850400
13 -1.82699200 -0.00006400 0.00000600 0.00421900 0.04026900 1.37882300
14 -1.43657300 0.00000600 0.00000200 -0.05454800 -0.05545500 0.68560300
15 -3.99235500 -0.89118800 -1.82790900 -0.52370500 0.13815700 1.09576700
16 -1.40591800 -0.00002500 -0.00000300 -0.01630900 -0.02456400 1.46015900
17 -1.17535800 0.00012800 -0.00002000 0.04970300 0.04625500 0.72560100
18 -4.52675100 -0.69057500 -1.12074400 -0.36124800 0.11255600 1.35155400
19 -1.74403800 0.00003300 -0.00000800 -0.02649400 -0.01314800 1.52325100
20 -1.36877100 0.00002500 0.00000200 0.02081800 0.04817500 0.30338500
21 -1.87480000 -0.93512500 0.99917400 2.03358000 0.44787100 0.71499600
22 -1.52345300 0.00003200 0.00003100 0.08365400 0.15258100 0.60551300
23 -1.59928500 0.00000400 0.00001600 0.03405500 -0.02608500 0.63444600
24 5.58312600 0.11572600 0.29499986 2.70854400 -0.05523500 3.09750200
25 0.19684700 -0.00000100 0.00000300 2.79340681 -0.00103036 -3.14130363
26 1.85379400 -17.99297300 -4.05036000 1.97586200 1.15990900 1.84280300
27 6.21448500 0.00000600 0.00002000 -0.93358004 1.18627262 -1.97340803
28 11.94488500 -0.00002900 -0.00019400 -0.76988118 -0.27982838 -2.29680236
29 10.62016600 0.00000200 0.00001000 -1.39552307 -1.00530504 -0.07949378
30 4.75115600 0.69437600 -0.83047300 -0.35541600 -0.40076200 0.96512700
31 1.68806500 -0.00002600 0.00000200 0.00060900 -0.02405100 1.57091900
32 1.33615100 -0.00005100 -0.00000900 0.03096200 -0.02321100 -0.55646100
33 4.82051300 0.50934000 0.22486500 -0.46613700 -0.36236500 1.11545800
34 1.82699600 0.00006600 0.00000800 0.01740600 0.03653900 1.71901600
35 1.43657700 -0.00001000 0.00000700 0.01508100 0.00113100 -0.80048000
36 3.99235300 0.89108700 1.82799400 -0.59409300 0.14997600 1.42316900
37 1.40591800 0.00002100 -0.00000700 -0.02571600 -0.01440300 1.93866100
38 1.17536900 -0.00013100 0.00000200 0.10276000 0.06814600 0.94199700
39 4.52675600 0.69046000 1.12084200 -0.57980600 0.00508600 1.48936900
40 1.74404100 -0.00003100 -0.00000200 -0.02193600 -0.01984600 1.24733900
41 1.36876300 -0.00003100 -0.00001700 -0.10584200 0.11837400 -0.91845200
42 1.93928000 1.01468924 -0.90910338 1.40068400 0.75422800 0.39461500
43 1.52344900 -0.00003400 -0.00000300 -0.00578400 -0.08060400 0.05769500
44 1.59928100 -0.00000200 0.00000900 0.03666200 0.07497700 -0.28908900
45 5.51180600 -0.00000200 0.00000600 -0.68868500 0.00000000 0.00000000
46 0.19685000 0.00000300 -0.00000200 -0.34822500 0.00001500 -0.00000200
47 0.00000000 1.50000000 0.00000000 0.00000000 0.00000000 -1.57079600
48 -4.12734200 4.33335800 -4.02610900 0.00000000 0.00000000 -3.14156200
49 -7.56235958 17.89010686 -1.59853140 0.37457182 0.07857677 -0.69478760
50 4.14835265 0.36076301 -2.98170298 0.50930200 1.05518000 1.79425300
51 0.01125900 -0.01178200 0.16934900 0.00000000 0.00000000 0.00000000
52 -0.02757200 0.00000000 0.20638000 0.00000000 0.00000000 0.00000000
53 -1.37762538 -0.01178200 1.78904338 0.00000000 0.00000000 0.00000000
54 -5.03786700 -0.01178200 2.45071500 0.00000000 0.00000000 0.00000000
55 -3.28798700 -2.29278600 -1.49180700 -3.06199100 0.99804500 -2.35750200
time 5
0 -0.00000100 8.95008800 -27.50902600 0.00000000 0.00000000 0.00003100
1 -0.00000200 0.00000000 0.00000000 1.57074300 -1.56713700 -1.57074300
2 4.25546800 -0.33518300 -0.00000200 0.00000000 0.00000000 -0.12484800
3 7.43124800 1.49647700 0.00000200 0.00000000 0.00000000 0.24545000
4 5.27847900 0.16554100 0.00000100 0.00000000 0.00000000 0.04851100
5 3.06931772 -10.63218283 1.05031795 1.97586400 1.15990900 -1.29878600
6 -6.21448200 -0.00000700 -0.00002700 -2.99375853 -0.69780397 1.45746602
7 11.94488200 0.00000000 0.00000100 -0.23261178 -0.35148590 1.59672927
8 10.62018100 0.00000200 0.00000000 1.17005115 0.12236781 2.86186551
9 -4.75110600 -0.69449400 0.83057700 0.01571000 -0.16543500 0.43812000
10 -1.68806800 0.00004600 -0.00003200 0.01457400 -0.01993700 0.80788900
11 -1.33614000 0.00005700 -0.00001200 0.02114300 -0.01573300 1.19424300
12 -4.82049400 -0.50946000 -0.22475900 -0.29733500 -0.05057600 1.32850400
13 -1.82699200 -0.00006400 0.00000600 0.00421900 0.04026900 1.37882300
14 -1.43657300 0.00000600 0.00000200 -0.05454800 -0.05545500 0.68560300
15 -3.99235500 -0.89118800 -1.82790900 -0.52370500 0.13815700 1.09576700
16 -1.40591800 -0.00002500 -0.00000300 -0.01630900 -0.02456400 1.46015900
17 -1.17535800 0.00012800 -0.00002000 0.04970300 0.04625500 0.72560100
18 -4.52675100 -0.69057500 -1.12074400 -0.36124800 0.11255600 1.35155400
19 -1.74403800 0.00003300 -0.00000800 -0.02649400 -0.01314800 1.52325100
20 -1.36877100 0.00002500 0.00000200 0.02081800 0.04817500 0.30338500
21 -1.87480000 -0.93512500 0.99917400 2.03358000 0.44787100 0.71499600
22 -1.52345300 0.00003200 0.00003100 0.08365400 0.15258100 0.60551300
23 -1.59928500 0.00000400 0.00001600 0.03405500 -0.02608500 0.63444600
24 5.58312600 0.11572600 0.29499986 2.70854400 -0.05523500 3.09750200
25 0.19684700 -0.00000100 0.00000300 2.79340681 -0.00103036 -3.14130363
26 1.85379400 -17.99297300 -4.05036000 1.97586200 1.15990900 1.84280300
27 6.21448500 0.00000600 0.00002000 -0.88073693 1.17408551 -1.91783204
28 11.94488500 -0.00002900 -0.00019400 -0.77631898 -0.27760716 -2.27241333
29 10.62016600 0.00000200 0.00001000 -1.47480627 -1.00517366 -0.05019452
30 4.75115600 0.69437600 -0.83047300 -0.35541600 -0.40076200 0.96512700
31 1.68806500 -0.00002600 0.00000200 0.00060900 -0.02405100 1.57091900
32 1.33615100 -0.00005100 -0.00000900 0.03096200 -0.02321100 -0.55646100
33 4.82051300 0.50934000 0.22486500 -0.46613700 -0.36236500 1.11545800
34 1.82699600 0.00006600 0.00000800 0.01740600 0.03653900 1.71901600
35 1.43657700 -0.00001000 0.00000700 0.01508100 0.00113100 -0.80048000
36 3.99235300 0.89108700 1.82799400 -0.59409300 0.14997600 1.42316900
37 1.40591800 0.00002100 -0.00000700 -0.02571600 -0.01440300 1.93866100
38 1.17536900 -0.00013100 0.00000200 0.10276000 0.06814600 0.94199700
39 4.52675600 0.69046000 1.12084200 -0.57980600 0.00508600 1.48936900
40 1.74404100 -0.00003100 -0.00000200 -0.02193600 -0.01984600 1.24733900
41 1.36876300 -0.00003100 -0.00001700 -0.10584200 0.11837400 -0.91845200
42 1.93928000 1.01468924 -0.90910338 1.40068400 0.75422800 0.39461500
43 1.52344900 -0.00003400 -0.00000300 -0.00578400 -0.08060400 0.05769500
44 1.59928100 -0.00000200 0.00000900 0.03666200 0.07497700 -0.28908900
45 5.51180600 -0.00000200 0.00000600 -0.68868500 0.00000000 0.00000000
46 0.19685000 0.00000300 -0.00000200 -0.34822500 0.00001500 -0.00000200
47 0.00000000 1.50000000 0.00000000 0.00000000 0.00000000 -1.57079600
48 -4.12734200 4.33335800 -4.02610900 0.00000000 0.00000000 -3.14156200
49 -7.58729663 18.03759553 -1.58144612 0.38673995 0.06659264 -0.71364335
50 4.14835265 0.36076301 -2.98170298 0.50930200 1.05518000 1.79425300
51 0.01125900 -0.01178200 0.16934900 0.00000000 0.00000000 0.00000000
52 -0.02757200 0.00000000 0.20638000 0.00000000 0.00000000 0.00000000
53 -1.37762538 -0.01178200 1.78904338 0.00000000 0.00000000 0.00000000
54 -5.03786700 -0.01178200 2.45071500 0.00000000 0.00000000 0.00000000
55 -3.28798700 -2.29278600 -1.49180700 -3.06199100 0.99804500 -2.35750200
time 6
0 -0.00000100 8.95008800 -27.50902600 0.00000000 0.00000000 0.00003100
1 -0.00000200 0.00000000 0.00000000 1.57074300 -1.56713700 -1.57074300
2 4.25546800 -0.33518300 -0.00000200 0.00000000 0.00000000 -0.12484800
3 7.43124800 1.49647700 0.00000200 0.00000000 0.00000000 0.24545000
4 5.27847900 0.16554100 0.00000100 0.00000000 0.00000000 0.04851100
5 3.06931772 -10.63218283 1.05031795 1.97586400 1.15990900 -1.29878600
6 -6.21448200 -0.00000700 -0.00002700 -2.96407100 -0.71062264 1.46940595
7 11.94488200 0.00000000 0.00000100 -0.24043942 -0.33383513 1.62236674
8 10.62018100 0.00000200 0.00000000 1.21659520 0.11949687 2.80453024
9 -4.75110600 -0.69449400 0.83057700 0.01571000 -0.16543500 0.43812000
10 -1.68806800 0.00004600 -0.00003200 0.01457400 -0.01993700 0.80788900
11 -1.33614000 0.00005700 -0.00001200 0.02114300 -0.01573300 1.19424300
12 -4.82049400 -0.50946000 -0.22475900 -0.29733500 -0.05057600 1.32850400
13 -1.82699200 -0.00006400 0.00000600 0.00421900 0.04026900 1.37882300
14 -1.43657300 0.00000600 0.00000200 -0.05454800 -0.05545500 0.68560300
15 -3.99235500 -0.89118800 -1.82790900 -0.52370500 0.13815700 1.09576700
16 -1.40591800 -0.00002500 -0.00000300 -0.01630900 -0.02456400 1.46015900
17 -1.17535800 0.00012800 -0.00002000 0.04970300 0.04625500 0.72560100
18 -4.52675100 -0.69057500 -1.12074400 -0.36124800 0.11255600 1.35155400
19 -1.74403800 0.00003300 -0.00000800 -0.02649400 -0.01314800 1.52325100
20 -1.36877100 0.00002500 0.00000200 0.02081800 0.04817500 0.30338500
21 -1.87480000 -0.93512500 0.99917400 2.03358000 0.44787100 0.71499600
22 -1.52345300 0.00003200 0.00003100 0.08365400 0.15258100 0.60551300
23 -1.59928500 0.00000400 0.00001600 0.03405500 -0.02608500 0.63444600
24 5.58312600 0.11572600 0.29499986 2.70854400 -0.05523500 3.09750200
25 0.19684700 -0.00000100 0.00000300 2.79340681 -0.00103036 -3.14130363
26 1.85379400 -17.99297300 -4.05036000 1.97586200 1.15990900 1.84280300
27 6.21448500 0.00000600 0.00002000 -0.75355882 1.15138738 -1.82029569
28 11.94488500 -0.00002900 -0.00019400 -0.78994934 -0.27117336 -2.22195644
29 10.62016600 0.00000200 0.00001000 -1.62749675 -1.01440447 -0.00049409
30 4.75115600 0.69437600 -0.83047300 -0.35541600 -0.40076200 0.96512700
31 1.68806500 -0.00002600 0.00000200 0.00060900 -0.02405100 1.57091900
32 1.33615100 -0.00005100 -0.00000900 0.03096200 -0.02321100 -0.55646100
33 4.82051300 0.50934000 0.22486500 -0.46613700 -0.36236500 1.11545800
34 1.82699600 0.00006600 0.00000800 0.01740600 0.03653900 1.71901600
35 1.43657700 -0.00001000 0.00000700 0.01508100 0.00113100 -0.80048000
36 3.99235300 0.89108700 1.82799400 -0.59409300 0.14997600 1.42316900
37 1.40591800 0.00002100 -0.00000700 -0.02571600 -0.01440300 1.93866100
38 1.17536900 -0.00013100 0.00000200 0.10276000 0.06814600 0.94199700
39 4.52675600 0.69046000 1.12084200 -0.57980600 0.00508600 1.48936900
40 1.74404100 -0.00003100 -0.00000200 -0.02193600 -0.01984600 1.24733900
41 1.36876300 -0.00003100 -0.00001700 -0.10584200 0.11837400 -0.91845200
42 1.93928000 1.01468924 -0.90910338 1.40068400 0.75422800 0.39461500
43 1.52344900 -0.00003400 -0.00000300 -0.00578400 -0.08060400 0.05769500
44 1.59928100 -0.00000200 0.00000900 0.03666200 0.07497700 -0.28908900
45 5.51180600 -0.00000200 0.00000600 -0.68868500 0.00000000 0.00000000
46 0.19685000 0.00000300 -0.00000200 -0.34822500 0.00001500 -0.00000200
47 0.00000000 1.50000000 0.00000000 0.00000000 0.00000000 -1.57079600
48 -4.12734200 4.33335800 -4.02610900 0.00000000 0.00000000 -3.14156200
49 -7.34792936 18.19948800 -1.64036620 0.39407940 0.04032859 -0.77619511
50 4.14835265 0.36076301 -2.98170298 0.50930200 1.05518000 1.79425300
51 0.01125900 -0.01178200 0.16934900 0.00000000 0.00000000 0.00000000
52 -0.02757200 0.00000000 0.20638000 0.00000000 0.00000000 0.00000000
53 -1.37762538 -0.01178200 1.78904338 0.00000000 0.00000000 0.00000000
54 -5.03786700 -0.01178200 2.45071500 0.00000000 0.00000000 0.00000000
55 -3.28798700 -2.29278600 -1.49180700 -3.06199100 0.99804500 -2.35750200
time 7
0 -0.00000100 8.95008800 -27.50902600 0.00000000 0.00000000 0.00003100
1 -0.00000200 0.00000000 0.00000000 1.57074300 -1.56713700 -1.57074300
2 4.25546800 -0.33518300 -0.00000200 0.00000000 0.00000000 -0.12484800
3 7.43124800 1.49647700 0.00000200 0.00000000 0.00000000 0.24545000
4 5.27847900 0.16554100 0.00000100 0.00000000 0.00000000 0.04851100
5 3.06931772 -10.63218283 1.05031795 1.97586400 1.15990900 -1.29878600
6 -6.21448200 -0.00000700 -0.00002700 -2.94762734 -0.72948049 1.50584284
7 11.94488200 0.00000000 0.00000100 -0.25813448 -0.30784453 1.67962859
8 10.62018100 0.00000200 0.00000000 1.25661747 0.14810734 2.68959526
9 -4.75110600 -0.69449400 0.83057700 0.01571000 -0.16543500 0.43812000
10 -1.68806800 0.00004600 -0.00003200 0.01457400 -0.01993700 0.80788900
11 -1.33614000 0.00005700 -0.00001200 0.02114300 -0.01573300 1.19424300
12 -4.82049400 -0.50946000 -0.22475900 -0.29733500 -0.05057600 1.32850400
13 -1.82699200 -0.00006400 0.00000600 0.00421900 0.04026900 1.37882300
14 -1.43657300 0.00000600 0.00000200 -0.05454800 -0.05545500 0.68560300
15 -3.99235500 -0.89118800 -1.82790900 -0.52370500 0.13815700 1.09576700
16 -1.40591800 -0.00002500 -0.00000300 -0.01630900 -0.02456400 1.46015900
17 -1.17535800 0.00012800 -0.00002000 0.04970300 0.04625500 0.72560100
18 -4.52675100 -0.69057500 -1.12074400 -0.36124800 0.11255600 1.35155400
19 -1.74403800 0.00003300 -0.00000800 -0.02649400 -0.01314800 1.52325100
20 -1.36877100 0.00002500 0.00000200 0.02081800 0.04817500 0.30338500
21 -1.87480000 -0.93512500 0.99917400 2.03358000 0.44787100 0.71499600
22 -1.52345300 0.00003200 0.00003100 0.08365400 0.15258100 0.60551300
23 -1.59928500 0.00000400 0.00001600 0.03405500 -0.02608500 0.63444600
24 5.58312600 0.11572600 0.29499986 2.70854400 -0.05523500 3.09750200
25 0.19684700 -0.00000100 0.00000300 2.79340681 -0.00103036 -3.14130363
26 1.85379400 -17.99297300 -4.05036000 1.97586200 1.15990900 1.84280300
27 6.21448500 0.00000600 0.00002000 -0.62558121 1.10933221 -1.75071956
28 11.94488500 -0.00002900 -0.00019400 -0.81193173 -0.26001439 -2.14435372
29 10.62016600 0.00000200 0.00001000 -1.84422550 -1.01769858 0.10285074
30 4.75115600 0.69437600 -0.83047300 -0.35541600 -0.40076200 0.96512700
31 1.68806500 -0.00002600 0.00000200 0.00060900 -0.02405100 1.57091900
32 1.33615100 -0.00005100 -0.00000900 0.03096200 -0.02321100 -0.55646100
33 4.82051300 0.50934000 0.22486500 -0.46613700 -0.36236500 1.11545800
34 1.82699600 0.00006600 0.00000800 0.01740600 0.03653900 1.71901600
35 1.43657700 -0.00001000 0.00000700 0.01508100 0.00113100 -0.80048000
36 3.99235300 0.89108700 1.82799400 -0.59409300 0.14997600 1.42316900
37 1.40591800 0.00002100 -0.00000700 -0.02571600 -0.01440300 1.93866100
38 1.17536900 -0.00013100 0.00000200 0.10276000 0.06814600 0.94199700
39 4.52675600 0.69046000 1.12084200 -0.57980600 0.00508600 1.48936900
40 1.74404100 -0.00003100 -0.00000200 -0.02193600 -0.01984600 1.24733900
41 1.36876300 -0.00003100 -0.00001700 -0.10584200 0.11837400 -0.91845200
42 1.93928000 1.01468924 -0.90910338 1.40068400 0.75422800 0.39461500
43 1.52344900 -0.00003400 -0.00000300 -0.00578400 -0.08060400 0.05769500
44 1.59928100 -0.00000200 0.00000900 0.03666200 0.07497700 -0.28908900
45 5.51180600 -0.00000200 0.00000600 -0.68868500 0.00000000 0.00000000
46 0.19685000 0.00000300 -0.00000200 -0.34822500 0.00001500 -0.00000200
47 0.00000000 1.50000000 0.00000000 0.00000000 0.00000000 -1.57079600
48 -4.12734200 4.33335800 -4.02610900 0.00000000 0.00000000 -3.14156200
49 -6.80988545 18.36908395 -1.74787899 0.38274524 0.00703723 -0.88825811
50 4.14835265 0.36076301 -2.98170298 0.50930200 1.05518000 1.79425300
51 0.01125900 -0.01178200 0.16934900 0.00000000 0.00000000 0.00000000
52 -0.02757200 0.00000000 0.20638000 0.00000000 0.00000000 0.00000000
53 -1.37762538 -0.01178200 1.78904338 0.00000000 0.00000000 0.00000000
54 -5.03786700 -0.01178200 2.45071500 0.00000000 0.00000000 0.00000000
55 -3.28798700 -2.29278600 -1.49180700 -3.06199100 0.99804500 -2.35750200
time 8
0 -0.00000100 8.95008800 -27.50902600 0.00000000 0.00000000 0.00003100
1 -0.00000200 0.00000000 0.00000000 1.57074300 -1.56713700 -1.57074300
2 4.25546800 -0.33518300 -0.00000200 0.00000000 0.00000000 -0.12484800
3 7.43124800 1.49647700 0.00000200 0.00000000 0.00000000 0.24545000
4 5.27847900 0.16554100 0.00000100 0.00000000 0.00000000 0.04851100
5 3.06931772 -10.63218283 1.05031795 1.97586400 1.15990900 -1.29878600
6 -6.21448200 -0.00000700 -0.00002700 -2.94399078 -0.74039410 1.53788344
7 11.94488200 0.00000000 0.00000100 -0.27380202 -0.28478991 1.73156142
8 10.62018100 0.00000200 0.00000000 1.26367802 0.18800892 2.55574444
9 -4.75110600 -0.69449400 0.83057700 0.01571000 -0.16543500 0.43812000
10 -1.68806800 0.00004600 -0.00003200 0.01457400 -0.01993700 0.80788900
11 -1.33614000 0.00005700 -0.00001200 0.02114300 -0.01573300 1.19424300
12 -4.82049400 -0.50946000 -0.22475900 -0.29733500 -0.05057600 1.32850400
13 -1.82699200 -0.00006400 0.00000600 0.00421900 0.04026900 1.37882300
14 -1.43657300 0.00000600 0.00000200 -0.05454800 -0.05545500 0.68560300
15 -3.99235500 -0.89118800 -1.82790900 -0.52370500 0.13815700 1.09576700
16 -1.40591800 -0.00002500 -0.00000300 -0.01630900 -0.02456400 1.46015900
17 -1.17535800 0.00012800 -0.00002000 0.04970300 0.04625500 0.72560100
18 -4.52675100 -0.69057500 -1.12074400 -0.36124800 0.11255600 1.35155400
19 -1.74403800 0.00003300 -0.00000800 -0.02649400 -0.01314800 1.52325100
20 -1.36877100 0.00002500 0.00000200 0.02081800 0.04817500 0.30338500
21 -1.87480000 -0.93512500 0.99917400 2.03358000 0.44787100 0.71499600
22 -1.52345300 0.00003200 0.00003100 0.08365400 0.15258100 0.60551300
23 -1.59928500 0.00000400 0.00001600 0.03405500 -0.02608500 0.63444600
24 5.58312676 0.11572600 0.29499986 2.70854400 -0.05523500 3.09750200
25 0.19684700 -0.00000100 0.00000300 2.79340681 -0.00103036 -3.14130363
26 1.85379400 -17.99297300 -4.05036000 1.97586200 1.15990900 1.84280300
27 6.21448500 0.00000600 0.00002000 -0.57005762 1.07365975 -1.74501994
28 11.94488500 -0.00002900 -0.00019400 -0.83407261 -0.24944517 -2.07054817
29 10.62016600 0.00000200 0.00001000 -2.03821132 -1.00357445 0.23239183
30 4.75115600 0.69437600 -0.83047300 -0.35541600 -0.40076200 0.96512700
31 1.68806500 -0.00002600 0.00000200 0.00060900 -0.02405100 1.57091900
32 1.33615100 -0.00005100 -0.00000900 0.03096200 -0.02321100 -0.55646100
33 4.82051300 0.50934000 0.22486500 -0.46613700 -0.36236500 1.11545800
34 1.82699600 0.00006600 0.00000800 0.01740600 0.03653900 1.71901600
35 1.43657700 -0.00001000 0.00000700 0.01508100 0.00113100 -0.80048000
36 3.99235300 0.89108700 1.82799400 -0.59409300 0.14997600 1.42316900
37 1.40591800 0.00002100 -0.00000700 -0.02571600 -0.01440300 1.93866100
38 1.17536900 -0.00013100 0.00000200 0.10276000 0.06814600 0.94199700
39 4.52675600 0.69046000 1.12084200 -0.57980600 0.00508600 1.48936900
40 1.74404100 -0.00003100 -0.00000200 -0.02193600 -0.01984600 1.24733900
41 1.36876300 -0.00003100 -0.00001700 -0.10584200 0.11837400 -0.91845200
42 1.93928114 1.01468924 -0.90910338 1.40068400 0.75422800 0.39461500
43 1.52344900 -0.00003400 -0.00000300 -0.00578400 -0.08060400 0.05769500
44 1.59928100 -0.00000200 0.00000900 0.03666200 0.07497700 -0.28908900
45 5.51180600 -0.00000200 0.00000600 -0.68868500 0.00000000 0.00000000
46 0.19685000 0.00000300 -0.00000200 -0.34822500 0.00001500 -0.00000200
47 0.00000000 1.50000000 0.00000000 0.00000000 0.00000000 -1.57079600
48 -4.12734200 4.33335800 -4.02610900 0.00000000 0.00000000 -3.14156200
49 -6.28111673 18.53970288 -1.84140727 0.35293509 -0.03254803 -1.00045724
50 4.14835417 0.36076869 -2.98169881 0.50930200 1.05518000 1.79425300
51 0.01125900 -0.01178200 0.16934900 0.00000000 0.00000000 0.00000000
52 -0.02757200 0.00000000 0.20638000 0.00000000 0.00000000 0.00000000
53 -1.37762462 -0.01178200 1.78904376 0.00000000 0.00000000 0.00000000
54 -5.03786700 -0.01178200 2.45071500 0.00000000 0.00000000 0.00000000
55 -3.28798700 -2.29278600 -1.49180700 -3.06199100 0.99804500 -2.35750200
time 9
0 -0.00000100 8.95008800 -27.50902600 0.00000000 0.00000000 0.00003100
1 -0.00000200 0.00000000 0.00000000 1.57074300 -1.56713700 -1.57074300
2 4.25546800 -0.33518300 -0.00000200 0.00000000 0.00000000 -0.12484800
3 7.43124800 1.49647700 0.00000200 0.00000000 0.00000000 0.24545000
4 5.27847900 0.16554100 0.00000100 0.00000000 0.00000000 0.04851100
5 3.06931772 -10.63218283 1.05031795 1.97586400 1.15990900 -1.29878600
6 -6.21448200 -0.00000700 -0.00002700 -2.94998161 -0.74105315 1.56537341
7 11.94488200 0.00000000 0.00000100 -0.28609014 -0.26898016 1.77197205
8 10.62018100 0.00000200 0.00000000 1.24891540 0.22490551 2.42923550
9 -4.75110600 -0.69449400 0.83057700 0.01571000 -0.16543500 0.43812000
10 -1.68806800 0.00004600 -0.00003200 0.01457400 -0.01993700 0.80788900
11 -1.33614000 0.00005700 -0.00001200 0.02114300 -0.01573300 1.19424300
12 -4.82049400 -0.50946000 -0.22475900 -0.29733500 -0.05057600 1.32850400
13 -1.82699200 -0.00006400 0.00000600 0.00421900 0.04026900 1.37882300
14 -1.43657300 0.00000600 0.00000200 -0.05454800 -0.05545500 0.68560300
15 -3.99235500 -0.89118800 -1.82790900 -0.52370500 0.13815700 1.09576700
16 -1.40591800 -0.00002500 -0.00000300 -0.01630900 -0.02456400 1.46015900
17 -1.17535800 0.00012800 -0.00002000 0.04970300 0.04625500 0.72560100
18 -4.52675100 -0.69057500 -1.12074400 -0.36124800 0.11255600 1.35155400
19 -1.74403800 0.00003300 -0.00000800 -0.02649400 -0.01314800 1.52325100
20 -1.36877100 0.00002500 0.00000200 0.02081800 0.04817500 0.30338500
21 -1.87480000 -0.93512500 0.99917400 2.03358000 0.44787100 0.71499600
22 -1.52345300 0.00003200 0.00003100 0.08365400 0.15258100 0.60551300
23 -1.59928500 0.00000400 0.00001600 0.03405500 -0.02608500 0.63444600
24 5.58312676 0.11572600 0.29499986 2.70854400 -0.05523500 3.09750200
25 0.19684700 -0.00000100 0.00000300 2.79340681 -0.00103036 -3.14130363
26 1.85379400 -17.99297300 -4.05036000 1.97586200 1.15990900 1.84280300
27 6.21448500 0.00000600 0.00002000 -0.55171021 1.04517331 -1.77356039
28 11.94488500 -0.00002900 -0.00019400 -0.85544921 -0.24446364 -2.00256637
29 10.62016600 0.00000200 0.00001000 -2.17862166 -0.97619822 0.33943303
30 4.75115600 0.69437600 -0.83047300 -0.35541600 -0.40076200 0.96512700
31 1.68806500 -0.00002600 0.00000200 0.00060900 -0.02405100 1.57091900
32 1.33615100 -0.00005100 -0.00000900 0.03096200 -0.02321100 -0.55646100
33 4.82051300 0.50934000 0.22486500 -0.46613700 -0.36236500 1.11545800
34 1.82699600 0.00006600 0.00000800 0.01740600 0.03653900 1.71901600
35 1.43657700 -0.00001000 0.00000700 0.01508100 0.00113100 -0.80048000
36 3.99235300 0.89108700 1.82799400 -0.59409300 0.14997600 1.42316900
37 1.40591800 0.00002100 -0.00000700 -0.02571600 -0.01440300 1.93866100
38 1.17536900 -0.00013100 0.00000200 0.10276000 0.06814600 0.94199700
39 4.52675600 0.69046000 1.12084200 -0.57980600 0.00508600 1.48936900
40 1.74404100 -0.00003100 -0.00000200 -0.02193600 -0.01984600 1.24733900
41 1.36876300 -0.00003100 -0.00001700 -0.10584200 0.11837400 -0.91845200
42 1.93928114 1.01468924 -0.90910338 1.40068400 0.75422800 0.39461500
43 1.52344900 -0.00003400 -0.00000300 -0.00578400 -0.08060400 0.05769500
44 1.59928100 -0.00000200 0.00000900 0.03666200 0.07497700 -0.28908900
45 5.51180600 -0.00000200 0.00000600 -0.68868500 0.00000000 0.00000000
46 0.19685000 0.00000300 -0.00000200 -0.34822500 0.00001500 -0.00000200
47 0.00000000 1.50000000 0.00000000 0.00000000 0.00000000 -1.57079600
48 -4.12734200 4.33335800 -4.02610900 0.00000000 0.00000000 -3.14156200
49 -5.76406197 18.70526979 -1.90023072 0.32128014 -0.07082618 -1.09931082
50 4.14835417 0.36076869 -2.98169881 0.50930200 1.05518000 1.79425300
51 0.01125900 -0.01178200 0.16934900 0.00000000 0.00000000 0.00000000
52 -0.02757200 0.00000000 0.20638000 0.00000000 0.00000000 0.00000000
53 -1.37762462 -0.01178200 1.78904376 0.00000000 0.00000000 0.00000000
54 -5.03786700 -0.01178200 2.45071500 0.00000000 0.00000000 0.00000000
55 -3.28798700 -2.29278600 -1.49180700 -3.06199100 0.99804500 -2.35750200
time 10
0 -0.00000100 8.95008800 -27.50902600 0.00000000 0.00000000 0.00003100
1 -0.00000200 0.00000000 0.00000000 1.57074300 -1.56713700 -1.57074300
2 4.25546800 -0.33518300 -0.00000200 0.00000000 0.00000000 -0.12484800
3 7.43124800 1.49647700 0.00000200 0.00000000 0.00000000 0.24545000
4 5.27847900 0.16554100 0.00000100 0.00000000 0.00000000 0.04851100
5 3.06931772 -10.63218283 1.05031795 1.97586400 1.15990900 -1.29878600
6 -6.21448200 -0.00000700 -0.00002700 -2.96820332 -0.73672092 1.59731914
7 11.94488200 0.00000000 0.00000100 -0.29610737 -0.26379943 1.80222341
8 10.62018100 0.00000200 0.00000000 1.21956042 0.26094187 2.33172797
9 -4.75110600 -0.69449400 0.83057700 0.01571000 -0.16543500 0.43812000
10 -1.68806800 0.00004600 -0.00003200 0.01457400 -0.01993700 0.80788900
11 -1.33614000 0.00005700 -0.00001200 0.02114300 -0.01573300 1.19424300
12 -4.82049400 -0.50946000 -0.22475900 -0.29733500 -0.05057600 1.32850400
13 -1.82699200 -0.00006400 0.00000600 0.00421900 0.04026900 1.37882300
14 -1.43657300 0.00000600 0.00000200 -0.05454800 -0.05545500 0.68560300
15 -3.99235500 -0.89118800 -1.82790900 -0.52370500 0.13815700 1.09576700
16 -1.40591800 -0.00002500 -0.00000300 -0.01630900 -0.02456400 1.46015900
17 -1.17535800 0.00012800 -0.00002000 0.04970300 0.04625500 0.72560100
18 -4.52675100 -0.69057500 -1.12074400 -0.36124800 0.11255600 1.35155400
19 -1.74403800 0.00003300 -0.00000800 -0.02649400 -0.01314800 1.52325100
20 -1.36877100 0.00002500 0.00000200 0.02081800 0.04817500 0.30338500
21 -1.87480000 -0.93512500 0.99917400 2.03358000 0.44787100 0.71499600
22 -1.52345300 0.00003200 0.00003100 0.08365400 0.15258100 0.60551300
23 -1.59928500 0.00000400 0.00001600 0.03405500 -0.02608500 0.63444600
24 5.58312676 0.11572600 0.29499986 2.70854400 -0.05523500 3.09750200
25 0.19684700 -0.00000100 0.00000300 2.79340681 -0.00103036 -3.14130363
26 1.85379400 -17.99297300 -4.05036000 1.97586200 1.15990900 1.84280300
27 6.21448500 0.00000600 0.00002000 -0.54581651 1.01582960 -1.82462449
28 11.94488500 -0.00002900 -0.00019400 -0.87739211 -0.25100916 -1.93511139
29 10.62016600 0.00000200 0.00001000 -2.25200299 -0.94448598 0.40114033
30 4.75115600 0.69437600 -0.83047300 -0.35541600 -0.40076200 0.96512700
31 1.68806500 -0.00002600 0.00000200 0.00060900 -0.02405100 1.57091900
32 1.33615100 -0.00005100 -0.00000900 0.03096200 -0.02321100 -0.55646100
33 4.82051300 0.50934000 0.22486500 -0.46613700 -0.36236500 1.11545800
34 1.82699600 0.00006600 0.00000800 0.01740600 0.03653900 1.71901600
35 1.43657700 -0.00001000 0.00000700 0.01508100 0.00113100 -0.80048000
36 3.99235300 0.89108700 1.82799400 -0.59409300 0.14997600 1.42316900
37 1.40591800 0.00002100 -0.00000700 -0.02571600 -0.01440300 1.93866100
38 1.17536900 -0.00013100 0.00000200 0.10276000 0.06814600 0.94199700
39 4.52675600 0.69046000 1.12084200 -0.57980600 0.00508600 1.48936900
40 1.74404100 -0.00003100 -0.00000200 -0.02193600 -0.01984600 1.24733900
41 1.36876300 -0.00003100 -0.00001700 -0.10584200 0.11837400 -0.91845200
42 1.93928114 1.01468924 -0.90910338 1.40068400 0.75422800 0.39461500
43 1.52344900 -0.00003400 -0.00000300 -0.00578400 -0.08060400 0.05769500
44 1.59928100 -0.00000200 0.00000900 0.03666200 0.07497700 -0.28908900
45 5.51180600 -0.00000200 0.00000600 -0.68868500 0.00000000 0.00000000
46 0.19685000 0.00000300 -0.00000200 -0.34822500 0.00001500 -0.00000200
47 0.00000000 1.50000000 0.00000000 0.00000000 0.00000000 -1.57079600
48 -4.12734200 4.33335800 -4.02610900 0.00000000 0.00000000 -3.14156200
49 -5.17490956 18.86031103 -1.92831968 0.29032183 -0.09295780 -1.18276681
50 4.14835417 0.36076869 -2.98169881 0.50930200 1.05518000 1.79425300
51 0.01125900 -0.01178200 0.16934900 0.00000000 0.00000000 0.00000000
52 -0.02757200 0.00000000 0.20638000 0.00000000 0.00000000 0.00000000
53 -1.37762462 -0.01178200 1.78904376 0.00000000 0.00000000 0.00000000
54 -5.03786700 -0.01178200 2.45071500 0.00000000 0.00000000 0.00000000
55 -3.28798700 -2.29278600 -1.49180700 -3.06199100 0.99804500 -2.35750200
time 11
0 -0.00000100 8.95008800 -27.50902600 0.00000000 0.00000000 0.00003100
1 -0.00000200 0.00000000 0.00000000 1.57074300 -1.56713700 -1.57074300
2 4.25546800 -0.33518300 -0.00000200 0.00000000 0.00000000 -0.12484800
3 7.43124800 1.49647700 0.00000200 0.00000000 0.00000000 0.24545000
4 5.27847900 0.16554100 0.00000100 0.00000000 0.00000000 0.04851100
5 3.06931772 -10.63218283 1.05031795 1.97586400 1.15990900 -1.29878600
6 -6.21448200 -0.00000700 -0.00002700 -2.99125316 -0.72707502 1.62864057
7 11.94488200 0.00000000 0.00000100 -0.30449793 -0.26498323 1.82537858
8 10.62018100 0.00000200 0.00000000 1.18021310 0.29151460 2.25112753
9 -4.75110600 -0.69449400 0.83057700 0.01571000 -0.16543500 0.43812000
10 -1.68806800 0.00004600 -0.00003200 0.01457400 -0.01993700 0.80788900
11 -1.33614000 0.00005700 -0.00001200 0.02114300 -0.01573300 1.19424300
12 -4.82049400 -0.50946000 -0.22475900 -0.29733500 -0.05057600 1.32850400
13 -1.82699200 -0.00006400 0.00000600 0.00421900 0.04026900 1.37882300
14 -1.43657300 0.00000600 0.00000200 -0.05454800 -0.05545500 0.68560300
15 -3.99235500 -0.89118800 -1.82790900 -0.52370500 0.13815700 1.09576700
16 -1.40591800 -0.00002500 -0.00000300 -0.01630900 -0.02456400 1.46015900
17 -1.17535800 0.00012800 -0.00002000 0.04970300 0.04625500 0.72560100
18 -4.52675100 -0.69057500 -1.12074400 -0.36124800 0.11255600 1.35155400
19 -1.74403800 0.00003300 -0.00000800 -0.02649400 -0.01314800 1.52325100
20 -1.36877100 0.00002500 0.00000200 0.02081800 0.04817500 0.30338500
21 -1.87480000 -0.93512500 0.99917400 2.03358000 0.44787100 0.71499600
22 -1.52345300 0.00003200 0.00003100 0.08365400 0.15258100 0.60551300
23 -1.59928500 0.00000400 0.00001600 0.03405500 -0.02608500 0.63444600
24 5.58312676 0.11572600 0.29499986 2.70854400 -0.05523500 3.09750200
25 0.19684700 -0.00000100 0.00000300 2.79340681 -0.00103036 -3.14130363
26 1.85379400 -17.99297300 -4.05036000 1.97586200 1.15990900 1.84280300
27 6.21448500 0.00000600 0.00002000 -0.54402620 0.98476406 -1.88312521
28 11.94488500 -0.00002900 -0.00019400 -0.89872597 -0.26565529 -1.87057904
29 10.62016600 0.00000200 0.00001000 -2.29154167 -0.91548472 0.44387280
30 4.75115600 0.69437600 -0.83047300 -0.35541600 -0.40076200 0.96512700
31 1.68806500 -0.00002600 0.00000200 0.00060900 -0.02405100 1.57091900
32 1.33615100 -0.00005100 -0.00000900 0.03096200 -0.02321100 -0.55646100
33 4.82051300 0.50934000 0.22486500 -0.46613700 -0.36236500 1.11545800
34 1.82699600 0.00006600 0.00000800 0.01740600 0.03653900 1.71901600
35 1.43657700 -0.00001000 0.00000700 0.01508100 0.00113100 -0.80048000
36 3.99235300 0.89108700 1.82799400 -0.59409300 0.14997600 1.42316900
37 1.40591800 0.00002100 -0.00000700 -0.02571600 -0.01440300 1.93866100
38 1.17536900 -0.00013100 0.00000200 0.10276000 0.06814600 0.94199700
39 4.52675600 0.69046000 1.12084200 -0.57980600 0.00508600 1.48936900
40 1.74404100 -0.00003100 -0.00000200 -0.02193600 -0.01984600 1.24733900
41 1.36876300 -0.00003100 -0.00001700 -0.10584200 0.11837400 -0.91845200
42 1.93928114 1.01468924 -0.90910338 1.40068400 0.75422800 0.39461500
43 1.52344900 -0.00003400 -0.00000300 -0.00578400 -0.08060400 0.05769500
44 1.59928100 -0.00000200 0.00000900 0.03666200 0.07497700 -0.28908900
45 5.51180600 -0.00000200 0.00000600 -0.68868500 0.00000000 0.00000000
46 0.19685000 0.00000300 -0.00000200 -0.34822500 0.00001500 -0.00000200
47 0.00000000 1.50000000 0.00000000 0.00000000 0.00000000 -1.57079600
48 -4.12734200 4.33335800 -4.02610900 0.00000000 0.00000000 -3.14156200
49 -4.57796647 18.99938163 -1.90602442 0.25844057 -0.10590699 -1.25288863
50 4.14835417 0.36076869 -2.98169881 0.50930200 1.05518000 1.79425300
51 0.01125900 -0.01178200 0.16934900 0.00000000 0.00000000 0.00000000
52 -0.02757200 0.00000000 0.20638000 0.00000000 0.00000000 0.00000000
53 -1.37762462 -0.01178200 1.78904376 0.00000000 0.00000000 0.00000000
54 -5.03786700 -0.01178200 2.45071500 0.00000000 0.00000000 0.00000000
55 -3.28798700 -2.29278600 -1.49180700 -3.06199100 0.99804500 -2.35750200
time 12
0 -0.00000100 8.95008800 -27.50902600 0.00000000 0.00000000 0.00003100
1 -0.00000200 0.00000000 0.00000000 1.57074300 -1.56713700 -1.57074300
2 4.25546800 -0.33518300 -0.00000200 0.00000000 0.00000000 -0.12484800
3 7.43124800 1.49647700 0.00000200 0.00000000 0.00000000 0.24545000
4 5.27847900 0.16554100 0.00000100 0.00000000 0.00000000 0.04851100
5 3.06931772 -10.63218283 1.05031795 1.97586400 1.15990900 -1.29878600
6 -6.21448200 -0.00000700 -0.00002700 -2.99714626 -0.71236243 1.64349717
7 11.94488200 0.00000000 0.00000100 -0.31026188 -0.26616504 1.84132132
8 10.62018100 0.00000200 0.00000000 1.14622144 0.31179009 2.18078063
9 -4.75110600 -0.69449400 0.83057700 0.01571000 -0.16543500 0.43812000
10 -1.68806800 0.00004600 -0.00003200 0.01457400 -0.01993700 0.80788900
11 -1.33614000 0.00005700 -0.00001200 0.02114300 -0.01573300 1.19424300
12 -4.82049400 -0.50946000 -0.22475900 -0.29733500 -0.05057600 1.32850400
13 -1.82699200 -0.00006400 0.00000600 0.00421900 0.04026900 1.37882300
14 -1.43657300 0.00000600 0.00000200 -0.05454800 -0.05545500 0.68560300
15 -3.99235500 -0.89118800 -1.82790900 -0.52370500 0.13815700 1.09576700
16 -1.40591800 -0.00002500 -0.00000300 -0.01630900 -0.02456400 1.46015900
17 -1.17535800 0.00012800 -0.00002000 0.04970300 0.04625500 0.72560100
18 -4.52675100 -0.69057500 -1.12074400 -0.36124800 0.11255600 1.35155400
19 -1.74403800 0.00003300 -0.00000800 -0.02649400 -0.01314800 1.52325100
20 -1.36877100 0.00002500 0.00000200 0.02081800 0.04817500 0.30338500
21 -1.87480000 -0.93512500 0.99917400 2.03358000 0.44787100 0.71499600
22 -1.52345300 0.00003200 0.00003100 0.08365400 0.15258100 0.60551300
23 -1.59928500 0.00000400 0.00001600 0.03405500 -0.02608500 0.63444600
24 5.58312676 0.11572600 0.29499986 2.70854400 -0.05523500 3.09750200
25 0.19684700 -0.00000100 0.00000300 2.79340681 -0.00103036 -3.14130363
26 1.85379400 -17.99297300 -4.05036000 1.97586200 1.15990900 1.84280300
27 6.21448500 0.00000600 0.00002000 -0.55840789 0.95060475 -1.94567281
28 11.94488500 -0.00002900 -0.00019400 -0.91694094 -0.28165661 -1.81580551
29 10.62016600 0.00000200 0.00001000 -2.31767856 -0.89106597 0.49011483
30 4.75115600 0.69437600 -0.83047300 -0.35541600 -0.40076200 0.96512700
31 1.68806500 -0.00002600 0.00000200 0.00060900 -0.02405100 1.57091900
32 1.33615100 -0.00005100 -0.00000900 0.03096200 -0.02321100 -0.55646100
33 4.82051300 0.50934000 0.22486500 -0.46613700 -0.36236500 1.11545800
34 1.82699600 0.00006600 0.00000800 0.01740600 0.03653900 1.71901600
35 1.43657700 -0.00001000 0.00000700 0.01508100 0.00113100 -0.80048000
36 3.99235300 0.89108700 1.82799400 -0.59409300 0.14997600 1.42316900
37 1.40591800 0.00002100 -0.00000700 -0.02571600 -0.01440300 1.93866100
38 1.17536900 -0.00013100 0.00000200 0.10276000 0.06814600 0.94199700
39 4.52675600 0.69046000 1.12084200 -0.57980600 0.00508600 1.48936900
40 1.74404100 -0.00003100 -0.00000200 -0.02193600 -0.01984600 1.24733900
41 1.36876300 -0.00003100 -0.00001700 -0.10584200 0.11837400 -0.91845200
42 1.93928114 1.01468924 -0.90910338 1.40068400 0.75422800 0.39461500
43 1.52344900 -0.00003400 -0.00000300 -0.00578400 -0.08060400 0.05769500
44 1.59928100 -0.00000200 0.00000900 0.03666200 0.07497700 -0.28908900
45 5.51180600 -0.00000200 0.00000600 -0.68868500 0.00000000 0.00000000
46 0.19685000 0.00000300 -0.00000200 -0.34822500 0.00001500 -0.00000200
47 0.00000000 1.50000000 0.00000000 0.00000000 0.00000000 -1.57079600
48 -4.12734200 4.33335800 -4.02610900 0.00000000 0.00000000 -3.14156200
49 -4.08401624 19.11703237 -1.72577278 0.22990450 -0.11229941 -1.31056234
50 4.14835417 0.36076869 -2.98169881 0.50930200 1.05518000 1.79425300
51 0.01125900 -0.01178200 0.16934900 0.00000000 0.00000000 0.00000000
52 -0.02757200 0.00000000 0.20638000 0.00000000 0.00000000 0.00000000
53 -1.37762462 -0.01178200 1.78904376 0.00000000 0.00000000 0.00000000
54 -5.03786700 -0.01178200 2.45071500 0.00000000 0.00000000 0.00000000
55 -3.28798700 -2.29278600 -1.49180700 -3.06199100 0.99804500 -2.35750200
time 13
0 -0.00000100 8.95008800 -27.50902600 0.00000000 0.00000000 0.00003100
1 -0.00000200 0.00000000 0.00000000 1.57074300 -1.56713700 -1.57074300
2 4.25546800 -0.33518300 -0.00000200 0.00000000 0.00000000 -0.12484800
3 7.43124800 1.49647700 0.00000200 0.00000000 0.00000000 0.24545000
4 5.27847900 0.16554100 0.00000100 0.00000000 0.00000000 0.04851100
5 3.06931772 -10.63218283 1.05031795 1.97586400 1.15990900 -1.29878600
6 -6.21448200 -0.00000700 -0.00002700 -2.98543894 -0.69975274 1.64458378
7 11.94488200 0.00000000 0.00000100 -0.31380587 -0.26663520 1.85078331
8 10.62018100 0.00000200 0.00000000 1.12046005 0.32559986 2.12846319
9 -4.75110600 -0.69449400 0.83057700 0.01571000 -0.16543500 0.43812000
10 -1.68806800 0.00004600 -0.00003200 0.01457400 -0.01993700 0.80788900
11 -1.33614000 0.00005700 -0.00001200 0.02114300 -0.01573300 1.19424300
12 -4.82049400 -0.50946000 -0.22475900 -0.29733500 -0.05057600 1.32850400
13 -1.82699200 -0.00006400 0.00000600 0.00421900 0.04026900 1.37882300
14 -1.43657300 0.00000600 0.00000200 -0.05454800 -0.05545500 0.68560300
15 -3.99235500 -0.89118800 -1.82790900 -0.52370500 0.13815700 1.09576700
16 -1.40591800 -0.00002500 -0.00000300 -0.01630900 -0.02456400 1.46015900
17 -1.17535800 0.00012800 -0.00002000 0.04970300 0.04625500 0.72560100
18 -4.52675100 -0.69057500 -1.12074400 -0.36124800 0.11255600 1.35155400
19 -1.74403800 0.00003300 -0.00000800 -0.02649400 -0.01314800 1.52325100
20 -1.36877100 0.00002500 0.00000200 0.02081800 0.04817500 0.30338500
21 -1.87480000 -0.93512500 0.99917400 2.03358000 0.44787100 0.71499600
22 -1.52345300 0.00003200 0.00003100 0.08365400 0.15258100 0.60551300
23 -1.59928500 0.00000400 0.00001600 0.03405500 -0.02608500 0.63444600
24 5.58312676 0.11572600 0.29499986 2.70854400 -0.05523500 3.09750200
25 0.19684700 -0.00000100 0.00000300 2.79340681 -0.00103036 -3.14130363
26 1.85379400 -17.99297300 -4.05036000 1.97586200 1.15990900 1.84280300
27 6.21448500 0.00000600 0.00002000 -0.58238065 0.91579615 -2.00504907
28 11.94488500 -0.00002900 -0.00019400 -0.93144556 -0.29727759 -1.77217149
29 10.62016600 0.00000200 0.00001000 -2.32731171 -0.87430015 0.53647240
30 4.75115600 0.69437600 -0.83047300 -0.35541600 -0.40076200 0.96512700
31 1.68806500 -0.00002600 0.00000200 0.00060900 -0.02405100 1.57091900
32 1.33615100 -0.00005100 -0.00000900 0.03096200 -0.02321100 -0.55646100
33 4.82051300 0.50934000 0.22486500 -0.46613700 -0.36236500 1.11545800
34 1.82699600 0.00006600 0.00000800 0.01740600 0.03653900 1.71901600
35 1.43657700 -0.00001000 0.00000700 0.01508100 0.00113100 -0.80048000
36 3.99235300 0.89108700 1.82799400 -0.59409300 0.14997600 1.42316900
37 1.40591800 0.00002100 -0.00000700 -0.02571600 -0.01440300 1.93866100
38 1.17536900 -0.00013100 0.00000200 0.10276000 0.06814600 0.94199700
39 4.52675600 0.69046000 1.12084200 -0.57980600 0.00508600 1.48936900
40 1.74404100 -0.00003100 -0.00000200 -0.02193600 -0.01984600 1.24733900
41 1.36876300 -0.00003100 -0.00001700 -0.10584200 0.11837400 -0.91845200
42 1.93928114 1.01468924 -0.90910338 1.40068400 0.75422800 0.39461500
43 1.52344900 -0.00003400 -0.00000300 -0.00578400 -0.08060400 0.05769500
44 1.59928100 -0.00000200 0.00000900 0.03666200 0.07497700 -0.28908900
45 5.51180600 -0.00000200 0.00000600 -0.68868500 0.00000000 0.00000000
46 0.19685000 0.00000300 -0.00000200 -0.34822500 0.00001500 -0.00000200
47 0.00000000 1.50000000 0.00000000 0.00000000 0.00000000 -1.57079600
48 -4.12734200 4.33335800 -4.02610900 0.00000000 0.00000000 -3.14156200
49 -3.68766210 19.20781154 -1.44124824 0.20090234 -0.11037133 -1.35379177
50 4.14835417 0.36076869 -2.98169881 0.50930200 1.05518000 1.79425300
51 0.01125900 -0.01178200 0.16934900 0.00000000 0.00000000 0.00000000
52 -0.02757200 0.00000000 0.20638000 0.00000000 0.00000000 0.00000000
53 -1.37762462 -0.01178200 1.78904376 0.00000000 0.00000000 0.00000000
54 -5.03786700 -0.01178200 2.45071500 0.00000000 0.00000000 0.00000000
55 -3.28798700 -2.29278600 -1.49180700 -3.06199100 0.99804500 -2.35750200
time 14
0 -0.00000100 8.95008800 -27.50902600 0.00000000 0.00000000 0.00003100
1 -0.00000200 0.00000000 0.00000000 1.57074300 -1.56713700 -1.57074300
2 4.25546800 -0.33518300 -0.00000200 0.00000000 0.00000000 -0.12484800
3 7.43124800 1.49647700 0.00000200 0.00000000 0.00000000 0.24545000
4 5.27847900 0.16554100 0.00000100 0.00000000 0.00000000 0.04851100
5 3.06931772 -10.63218283 1.05031795 1.97586400 1.15990900 -1.29878600
6 -6.21448200 -0.00000700 -0.00002700 -2.97679163 -0.69622974 1.64772268
7 11.94488200 0.00000000 0.00000100 -0.31541583 -0.26812240 1.85460254
8 10.62018100 0.00000200 0.00000000 1.09734930 0.34199166 2.10586504
9 -4.75110600 -0.69449400 0.83057700 0.01571000 -0.16543500 0.43812000
10 -1.68806800 0.00004600 -0.00003200 0.01457400 -0.01993700 0.80788900
11 -1.33614000 0.00005700 -0.00001200 0.02114300 -0.01573300 1.19424300
12 -4.82049400 -0.50946000 -0.22475900 -0.29733500 -0.05057600 1.32850400
13 -1.82699200 -0.00006400 0.00000600 0.00421900 0.04026900 1.37882300
14 -1.43657300 0.00000600 0.00000200 -0.05454800 -0.05545500 0.68560300
15 -3.99235500 -0.89118800 -1.82790900 -0.52370500 0.13815700 1.09576700
16 -1.40591800 -0.00002500 -0.00000300 -0.01630900 -0.02456400 1.46015900
17 -1.17535800 0.00012800 -0.00002000 0.04970300 0.04625500 0.72560100
18 -4.52675100 -0.69057500 -1.12074400 -0.36124800 0.11255600 1.35155400
19 -1.74403800 0.00003300 -0.00000800 -0.02649400 -0.01314800 1.52325100
20 -1.36877100 0.00002500 0.00000200 0.02081800 0.04817500 0.30338500
21 -1.87480000 -0.93512500 0.99917400 2.03358000 0.44787100 0.71499600
22 -1.52345300 0.00003200 0.00003100 0.08365400 0.15258100 0.60551300
23 -1.59928500 0.00000400 0.00001600 0.03405500 -0.02608500 0.63444600
24 5.58312676 0.11572600 0.29499986 2.70854400 -0.05523500 3.09750200
25 0.19684700 -0.00000100 0.00000300 2.79340681 -0.00103036 -3.14130363
26 1.85379400 -17.99297300 -4.05036000 1.97586200 1.15990900 1.84280300
27 6.21448500 0.00000600 0.00002000 -0.59917156 0.88920877 -2.04866216
28 11.94488500 -0.00002900 -0.00019400 -0.94276123 -0.31075714 -1.73815851
29 10.62016600 0.00000200 0.00001000 -2.31374502 -0.86318882 0.56111774
30 4.75115600 0.69437600 -0.83047300 -0.35541600 -0.40076200 0.96512700
31 1.68806500 -0.00002600 0.00000200 0.00060900 -0.02405100 1.57091900
32 1.33615100 -0.00005100 -0.00000900 0.03096200 -0.02321100 -0.55646100
33 4.82051300 0.50934000 0.22486500 -0.46613700 -0.36236500 1.11545800
34 1.82699600 0.00006600 0.00000800 0.01740600 0.03653900 1.71901600
35 1.43657700 -0.00001000 0.00000700 0.01508100 0.00113100 -0.80048000
36 3.99235300 0.89108700 1.82799400 -0.59409300 0.14997600 1.42316900
37 1.40591800 0.00002100 -0.00000700 -0.02571600 -0.01440300 1.93866100
38 1.17536900 -0.00013100 0.00000200 0.10276000 0.06814600 0.94199700
39 4.52675600 0.69046000 1.12084200 -0.57980600 0.00508600 1.48936900
40 1.74404100 -0.00003100 -0.00000200 -0.02193600 -0.01984600 1.24733900
41 1.36876300 -0.00003100 -0.00001700 -0.10584200 0.11837400 -0.91845200
42 1.93928114 1.01468924 -0.90910338 1.40068400 0.75422800 0.39461500
43 1.52344900 -0.00003400 -0.00000300 -0.00578400 -0.08060400 0.05769500
44 1.59928100 -0.00000200 0.00000900 0.03666200 0.07497700 -0.28908900
45 5.51180600 -0.00000200 0.00000600 -0.68868500 0.00000000 0.00000000
46 0.19685000 0.00000300 -0.00000200 -0.34822500 0.00001500 -0.00000200
47 0.00000000 1.50000000 0.00000000 0.00000000 0.00000000 -1.57079600
48 -4.12734200 4.33335800 -4.02610900 0.00000000 0.00000000 -3.14156200
49 -3.36660710 19.26627229 -1.25537215 0.17257160 -0.09929746 -1.38054634
50 4.14835417 0.36076869 -2.98169881 0.50930200 1.05518000 1.79425300
51 0.01125900 -0.01178200 0.16934900 0.00000000 0.00000000 0.00000000
52 -0.02757200 0.00000000 0.20638000 0.00000000 0.00000000 0.00000000
53 -1.37762462 -0.01178200 1.78904376 0.00000000 0.00000000 0.00000000
54 -5.03786700 -0.01178200 2.45071500 0.00000000 0.00000000 0.00000000
55 -3.28798700 -2.29278600 -1.49180700 -3.06199100 0.99804500 -2.35750200
time 15
0 -0.00000100 8.95008800 -27.50902600 0.00000000 0.00000000 0.00003100
1 -0.00000200 0.00000000 0.00000000 1.57074300 -1.56713700 -1.57074300
2 4.25546800 -0.33518300 -0.00000200 0.00000000 0.00000000 -0.12484800
3 7.43124800 1.49647700 0.00000200 0.00000000 0.00000000 0.24545000
4 5.27847900 0.16554100 0.00000100 0.00000000 0.00000000 0.04851100
5 3.06931772 -10.63218283 1.05031795 1.97586400 1.15990900 -1.29878600
6 -6.21448200 -0.00000700 -0.00002700 -2.98294272 -0.70061098 1.66321238
7 11.94488200 0.00000000 0.00000100 -0.31641430 -0.27163804 1.85612428
8 10.62018100 0.00000200 0.00000000 1.08287977 0.35907379 2.11675222
9 -4.75110600 -0.69449400 0.83057700 0.01571000 -0.16543500 0.43812000
10 -1.68806800 0.00004600 -0.00003200 0.01457400 -0.01993700 0.80788900
11 -1.33614000 0.00005700 -0.00001200 0.02114300 -0.01573300 1.19424300
12 -4.82049400 -0.50946000 -0.22475900 -0.29733500 -0.05057600 1.32850400
13 -1.82699200 -0.00006400 0.00000600 0.00421900 0.04026900 1.37882300
14 -1.43657300 0.00000600 0.00000200 -0.05454800 -0.05545500 0.68560300
15 -3.99235500 -0.89118800 -1.82790900 -0.52370500 0.13815700 1.09576700
16 -1.40591800 -0.00002500 -0.00000300 -0.01630900 -0.02456400 1.46015900
17 -1.17535800 0.00012800 -0.00002000 0.04970300 0.04625500 0.72560100
18 -4.52675100 -0.69057500 -1.12074400 -0.36124800 0.11255600 1.35155400
19 -1.74403800 0.00003300 -0.00000800 -0.02649400 -0.01314800 1.52325100
20 -1.36877100 0.00002500 0.00000200 0.02081800 0.04817500 0.30338500
21 -1.87480000 -0.93512500 0.99917400 2.03358000 0.44787100 0.71499600
22 -1.52345300 0.00003200 0.00003100 0.08365400 0.15258100 0.60551300
23 -1.59928500 0.00000400 0.00001600 0.03405500 -0.02608500 0.63444600
24 5.58312600 0.11572600 0.29499986 2.70854400 -0.05523500 3.09750200
25 0.19684700 -0.00000100 0.00000300 2.79340681 -0.00103036 -3.14130363
26 1.85379400 -17.99297300 -4.05036000 1.97586200 1.15990900 1.84280300
27 6.21448500 0.00000600 0.00002000 -0.60092101 0.87474045 -2.07356550
28 11.94488500 -0.00002900 -0.00019400 -0.95102883 -0.32077587 -1.71297965
29 10.62016600 0.00000200 0.00001000 -2.28292967 -0.85551862 0.54755071
30 4.75115600 0.69437600 -0.83047300 -0.35541600 -0.40076200 0.96512700
31 1.68806500 -0.00002600 0.00000200 0.00060900 -0.02405100 1.57091900
32 1.33615100 -0.00005100 -0.00000900 0.03096200 -0.02321100 -0.55646100
33 4.82051300 0.50934000 0.22486500 -0.46613700 -0.36236500 1.11545800
34 1.82699600 0.00006600 0.00000800 0.01740600 0.03653900 1.71901600
35 1.43657700 -0.00001000 0.00000700 0.01508100 0.00113100 -0.80048000
36 3.99235300 0.89108700 1.82799400 -0.59409300 0.14997600 1.42316900
37 1.40591800 0.00002100 -0.00000700 -0.02571600 -0.01440300 1.93866100
38 1.17536900 -0.00013100 0.00000200 0.10276000 0.06814600 0.94199700
39 4.52675600 0.69046000 1.12084200 -0.57980600 0.00508600 1.48936900
40 1.74404100 -0.00003100 -0.00000200 -0.02193600 -0.01984600 1.24733900
41 1.36876300 -0.00003100 -0.00001700 -0.10584200 0.11837400 -0.91845200
42 1.93928000 1.01468924 -0.90910338 1.40068400 0.75422800 0.39461500
43 1.52344900 -0.00003400 -0.00000300 -0.00578400 -0.08060400 0.05769500
44 1.59928100 -0.00000200 0.00000900 0.03666200 0.07497700 -0.28908900
45 5.51180600 -0.00000200 0.00000600 -0.68868500 0.00000000 0.00000000
46 0.19685000 0.00000300 -0.00000200 -0.34822500 0.00001500 -0.00000200
47 0.00000000 1.50000000 0.00000000 0.00000000 0.00000000 -1.57079600
48 -4.12734200 4.33335800 -4.02610900 0.00000000 0.00000000 -3.14156200
49 -3.10197168 19.28697125 -1.24160905 0.15725310 -0.08131989 -1.39173339
50 4.14835265 0.36076301 -2.98170298 0.50930200 1.05518000 1.79425300
51 0.01125900 -0.01178200 0.16934900 0.00000000 0.00000000 0.00000000
52 -0.02757200 0.00000000 0.20638000 0.00000000 0.00000000 0.00000000
53 -1.37762538 -0.01178200 1.78904338 0.00000000 0.00000000 0.00000000
54 -5.03786700 -0.01178200 2.45071500 0.00000000 0.00000000 0.00000000
55 -3.28798700 -2.29278600 -1.49180700 -3.06199100 0.99804500 -2.35750200
end
