version 1
nodes
0 "root" -1
1 "pelvis" 0
2 "spine_01" 1
3 "spine_02" 2
4 "spine_03" 3
5 "clavicle_r" 4
6 "upperarm_r" 5
7 "lowerarm_r" 6
8 "hand_r" 7
9 "index_01_r" 8
10 "index_02_r" 9
11 "index_03_r" 10
12 "middle_01_r" 8
13 "middle_02_r" 12
14 "middle_03_r" 13
15 "pinky_01_r" 8
16 "pinky_02_r" 15
17 "pinky_03_r" 16
18 "ring_01_r" 8
19 "ring_02_r" 18
20 "ring_03_r" 19
21 "thumb_01_r" 8
22 "thumb_02_r" 21
23 "thumb_03_r" 22
24 "lowerarm_twist_01_r" 7
25 "upperarm_twist_01_r" 6
26 "clavicle_l" 4
27 "upperarm_l" 26
28 "lowerarm_l" 27
29 "hand_l" 28
30 "index_01_l" 29
31 "index_02_l" 30
32 "index_03_l" 31
33 "middle_01_l" 29
34 "middle_02_l" 33
35 "middle_03_l" 34
36 "pinky_01_l" 29
37 "pinky_02_l" 36
38 "pinky_03_l" 37
39 "ring_01_l" 29
40 "ring_02_l" 39
41 "ring_03_l" 40
42 "thumb_01_l" 29
43 "thumb_02_l" 42
44 "thumb_03_l" 43
45 "lowerarm_twist_01_l" 28
46 "upperarm_twist_01_l" 27
47 "cam_driver" -1
48 "BaseRoot" -1
49 "Base" 48
50 "Mag" 49
51 "Bullet" 50
52 "BulletMove" 51
53 "Trigger" 49
54 "Bolt" 49
55 "BoltRotate" 54
56 "rhand_ikTarget" 49
57 "lhand_ikTarget" 49
58 "MagRelease" 49
end
skeleton
time 0
0 -0.00000100 7.45008900 -27.50902600 0.00000000 0.00000000 0.00003100
1 -0.00000200 0.00000000 0.00000000 1.57074700 -1.56714200 -1.57074700
2 4.25546600 -0.33518300 -0.00000200 0.00000000 0.00000000 -0.12484800
3 7.43125000 1.49647900 0.00000200 0.00000000 0.00000000 0.24545000
4 5.27847900 0.16554400 0.00000100 0.00000000 0.00000000 0.04851100
5 3.10860500 -7.65620800 0.41726200 1.97586500 1.15990900 -1.29878600
6 -6.21447800 -0.00000900 -0.00002600 -3.03645958 -0.54235844 2.01368333
7 11.94488500 0.00000000 0.00000000 -0.44468836 -0.27482777 2.26634464
8 10.62018800 0.00000000 0.00000000 0.73000050 -0.27591804 1.75782107
9 -4.75110800 -0.69449800 0.83058000 0.09867000 -0.25159700 0.19662700
10 -1.68806800 0.00004700 -0.00003100 0.02047000 -0.01392100 0.46709800
11 -1.33614000 0.00005500 -0.00001000 0.02592200 0.00450900 0.38004900
12 -4.82049400 -0.50946400 -0.22475900 -0.56796800 -0.16537000 1.30383200
13 -1.82698400 -0.00006900 0.00000800 -0.01701100 0.03669500 0.83864200
14 -1.43656900 0.00000400 0.00000300 -0.04748700 -0.06156900 0.56561900
15 -3.99235700 -0.89119100 -1.82790900 -0.74478100 0.28987300 1.61467300
16 -1.40591800 -0.00002500 -0.00000200 0.01654100 -0.02437900 0.27905000
17 -1.17535800 0.00012600 -0.00001900 0.04192500 0.05340800 0.56994100
18 -4.52675100 -0.69058000 -1.12074100 -0.69995800 0.07369700 1.53725200
19 -1.74403800 0.00003200 -0.00000800 -0.00970500 -0.02790700 0.74532400
20 -1.36877100 0.00002300 0.00000200 -0.21896200 0.09890700 0.33870000
21 -1.87479600 -0.93512500 0.99917500 2.07952100 0.45181600 1.10761900
22 -1.52344700 0.00003100 0.00003100 0.08916000 0.16635800 0.50489700
23 -1.59928500 0.00001100 0.00001500 0.03567100 -0.02383000 0.56873300
24 5.58312300 0.11572400 0.29499900 1.94756400 -0.06728900 3.12123600
25 0.19684600 -0.00000200 0.00000300 2.79340696 -0.00030983 -3.14151456
26 -1.43581100 -17.57755700 -4.21693500 1.97586200 1.15991000 1.84280300
27 6.21448600 0.00000800 0.00001900 -0.55557031 0.40737937 -2.29472150
28 11.94488800 -0.00003100 -0.00020000 -1.14428726 -0.32618314 -1.19154564
29 10.62016500 0.00000200 0.00000600 -2.64851162 -0.63749495 0.60628214
30 4.75115800 0.69437400 -0.83047400 0.14397000 -0.33108800 0.58896000
31 1.68806500 -0.00002200 0.00000200 -0.00086800 -0.02473300 1.47304200
32 1.33615100 -0.00005100 -0.00000900 0.02234800 -0.03160000 -0.24592200
33 4.82051500 0.50933800 0.22486600 -0.12917500 -0.40396700 0.93397600
34 1.82699200 0.00006600 0.00001000 0.01510100 0.03754700 1.65575300
35 1.43658100 -0.00000600 0.00001000 0.01503200 0.00167500 -0.83651700
36 3.99235300 0.89108700 1.82799300 -0.39506600 -0.20724300 1.29222200
37 1.40592600 0.00003100 -0.00000300 -0.01421100 -0.02586600 1.37541000
38 1.17536200 -0.00013200 0.00000100 -0.07487300 0.09798600 -0.69969900
39 4.52675800 0.69046400 1.12084300 -0.34426000 -0.26332200 1.27150500
40 1.74404100 -0.00003100 -0.00000200 -0.02639200 -0.01328600 1.51729600
41 1.36876700 -0.00003100 -0.00001800 -0.12191500 0.10180800 -1.06387600
42 2.18329600 1.23038600 -0.71401000 1.82374500 0.74329300 0.26353100
43 1.62285600 -0.22039800 -0.15537300 -0.00960300 -0.07236600 0.19987900
44 1.58379400 -0.15422000 0.02523000 0.04524000 0.07017700 -0.17056300
45 5.51180600 -0.00000200 0.00000300 -0.85022300 0.00000000 0.00000000
46 0.19684900 0.00000300 -0.00000100 -0.34822500 0.00001500 -0.00000200
47 0.00000000 0.00000000 0.00000000 0.00000000 0.00000000 -1.57079600
48 -3.46189900 2.90101600 -3.24579200 0.00000000 0.00000000 -3.14156200
49 0.29632033 21.53621858 -0.85137710 0.04550095 -0.00169985 -1.57332981
50 -0.15910500 0.02305100 -0.34200700 0.00000000 0.00000000 0.00000000
51 0.16895700 -0.03358900 0.65100600 0.00000000 0.00000000 0.00000000
52 0.24801400 0.17628700 -0.04521800 0.00000000 0.00000000 0.00000000
53 4.99699000 -0.07961600 -1.51780000 0.00000000 0.00000000 0.00000000
54 0.63391900 0.60768000 0.83129200 0.00000000 0.00000000 0.00000000
55 -0.29897900 -0.62533200 0.49585200 0.00000000 0.00000000 0.00000000
56 12.35431100 2.04574000 -2.16958500 -0.36469000 1.33603000 1.32869100
57 -2.47238700 -2.40979200 -2.13861900 2.94762400 1.25576900 -2.60506400
58 2.04895400 -0.03391300 -1.46330700 0.00000000 0.00000000 0.00000000
time 1
0 -0.00000100 7.45008900 -27.50902600 0.00000000 0.00000000 0.00003100
1 -0.00000200 0.00000000 0.00000000 1.57074700 -1.56714200 -1.57074700
2 4.25546600 -0.33518300 -0.00000200 0.00000000 0.00000000 -0.12484800
3 7.43125000 1.49647900 0.00000200 0.00000000 0.00000000 0.24545000
4 5.27847900 0.16554400 0.00000100 0.00000000 0.00000000 0.04851100
5 3.01500000 -7.76320300 0.53321700 1.97586500 1.15990900 -1.29878600
6 -6.21447800 -0.00000900 -0.00002600 -3.04383227 -0.53470054 2.01785312
7 11.94488500 0.00000000 0.00000000 -0.43765812 -0.27179969 2.27825024
8 10.62018800 0.00000000 0.00000000 0.72539302 -0.27972694 1.76575593
9 -4.75110800 -0.69449800 0.83058000 0.09867000 -0.25159700 0.19662700
10 -1.68806800 0.00004700 -0.00003100 0.02047000 -0.01392100 0.46709800
11 -1.33614000 0.00005500 -0.00001000 0.02592200 0.00450900 0.38004900
12 -4.82049400 -0.50946400 -0.22475900 -0.56796800 -0.16537000 1.30383200
13 -1.82698400 -0.00006900 0.00000800 -0.01701100 0.03669500 0.83864200
14 -1.43656900 0.00000400 0.00000300 -0.04748700 -0.06156900 0.56561900
15 -3.99235700 -0.89119100 -1.82790900 -0.74478100 0.28987300 1.61467300
16 -1.40591800 -0.00002500 -0.00000200 0.01654100 -0.02437900 0.27905000
17 -1.17535800 0.00012600 -0.00001900 0.04192500 0.05340800 0.56994100
18 -4.52675100 -0.69058000 -1.12074100 -0.69995800 0.07369700 1.53725200
19 -1.74403800 0.00003200 -0.00000800 -0.00970500 -0.02790700 0.74532400
20 -1.36877100 0.00002300 0.00000200 -0.21896200 0.09890700 0.33870000
21 -1.87479600 -0.93512500 0.99917500 2.07952100 0.45181600 1.10761900
22 -1.52344700 0.00003100 0.00003100 0.08916000 0.16635800 0.50489700
23 -1.59928500 0.00001100 0.00001500 0.03567100 -0.02383000 0.56873300
24 5.58312300 0.11572400 0.29499900 1.94756400 -0.06728900 3.12123600
25 0.19684600 -0.00000200 0.00000300 2.79340696 -0.00030983 -3.14151456
26 -1.43581100 -17.57755700 -4.21693500 1.97586200 1.15991000 1.84280300
27 6.21448600 0.00000800 0.00001900 -0.55600317 0.41806251 -2.27951469
28 11.94488800 -0.00003100 -0.00020000 -1.13259637 -0.33008194 -1.22790454
29 10.62016500 0.00000200 0.00000600 -2.64972728 -0.66485227 0.61076858
30 4.75115800 0.69437400 -0.83047400 0.14397000 -0.33108800 0.58896000
31 1.68806500 -0.00002200 0.00000200 -0.00086800 -0.02473300 1.47304200
32 1.33615100 -0.00005100 -0.00000900 0.02234800 -0.03160000 -0.24592200
33 4.82051500 0.50933800 0.22486600 -0.12917500 -0.40396700 0.93397600
34 1.82699200 0.00006600 0.00001000 0.01510100 0.03754700 1.65575300
35 1.43658100 -0.00000600 0.00001000 0.01503200 0.00167500 -0.83651700
36 3.99235300 0.89108700 1.82799300 -0.39506600 -0.20724300 1.29222200
37 1.40592600 0.00003100 -0.00000300 -0.01421100 -0.02586600 1.37541000
38 1.17536200 -0.00013200 0.00000100 -0.07487300 0.09798600 -0.69969900
39 4.52675800 0.69046400 1.12084300 -0.34426000 -0.26332200 1.27150500
40 1.74404100 -0.00003100 -0.00000200 -0.02639200 -0.01328600 1.51729600
41 1.36876700 -0.00003100 -0.00001800 -0.12191500 0.10180800 -1.06387600
42 2.18329600 1.23038600 -0.71401000 1.82374500 0.74329300 0.26353100
43 1.62285600 -0.22039800 -0.15537300 -0.00960300 -0.07236600 0.19987900
44 1.58379400 -0.15422000 0.02523000 0.04524000 0.07017700 -0.17056300
45 5.51180600 -0.00000200 0.00000300 -0.85022300 0.00000000 0.00000000
46 0.19684900 0.00000300 -0.00000100 -0.34822500 0.00001500 -0.00000200
47 0.00000000 0.00000000 0.00000000 0.00000000 0.00000000 -1.57079600
48 -3.46189900 2.90101600 -3.24579200 0.00000000 0.00000000 -3.14156200
49 0.09871294 21.47260058 -0.85175979 0.05142713 0.00395480 -1.55100122
50 -0.15910500 0.02305100 -0.34200700 0.00000000 0.00000000 0.00000000
51 0.16895700 -0.03358900 0.65100600 0.00000000 0.00000000 0.00000000
52 0.24801400 0.17628700 -0.04521800 0.00000000 0.00000000 0.00000000
53 4.99699000 -0.07961600 -1.51780000 0.00000000 0.00000000 0.00000000
54 0.63391900 0.60768000 0.83129200 0.00000000 0.00000000 0.00000000
55 -0.29897900 -0.62533200 0.49585200 0.00000000 0.00000000 0.00000000
56 12.35428200 2.04574800 -2.16957600 -0.36469000 1.33603000 1.32869100
57 -2.47239500 -2.40979000 -2.13861900 2.94762400 1.25576900 -2.60506400
58 2.04895400 -0.03391300 -1.46330700 0.00000000 0.00000000 0.00000000
time 2
0 -0.00000100 7.45008900 -27.50902600 0.00000000 0.00000000 0.00003100
1 -0.00000200 0.00000000 0.00000000 1.57074700 -1.56714200 -1.57074700
2 4.25546600 -0.33518300 -0.00000200 0.00000000 0.00000000 -0.12484800
3 7.43125000 1.49647900 0.00000200 0.00000000 0.00000000 0.24545000
4 5.27847900 0.16554400 0.00000100 0.00000000 0.00000000 0.04851100
5 2.75620900 -8.05901400 0.85379600 1.97586500 1.15990900 -1.29878600
6 -6.21447800 -0.00000900 -0.00002600 -3.06237958 -0.51141205 2.03019457
7 11.94488500 0.00000000 0.00000000 -0.41641795 -0.26526251 2.30541846
8 10.62018800 0.00000000 0.00000000 0.72708230 -0.28870180 1.79829010
9 -4.75110800 -0.69449800 0.83058000 0.09867000 -0.25159700 0.19662700
10 -1.68806800 0.00004700 -0.00003100 0.02047000 -0.01392100 0.46709800
11 -1.33614000 0.00005500 -0.00001000 0.02592200 0.00450900 0.38004900
12 -4.82049400 -0.50946400 -0.22475900 -0.56796800 -0.16537000 1.30383200
13 -1.82698400 -0.00006900 0.00000800 -0.01701100 0.03669500 0.83864200
14 -1.43656900 0.00000400 0.00000300 -0.04748700 -0.06156900 0.56561900
15 -3.99235700 -0.89119100 -1.82790900 -0.74478100 0.28987300 1.61467300
16 -1.40591800 -0.00002500 -0.00000200 0.01654100 -0.02437900 0.27905000
17 -1.17535800 0.00012600 -0.00001900 0.04192500 0.05340800 0.56994100
18 -4.52675100 -0.69058000 -1.12074100 -0.69995800 0.07369700 1.53725200
19 -1.74403800 0.00003200 -0.00000800 -0.00970500 -0.02790700 0.74532400
20 -1.36877100 0.00002300 0.00000200 -0.21896200 0.09890700 0.33870000
21 -1.87479600 -0.93512500 0.99917500 2.07952100 0.45181600 1.10761900
22 -1.52344700 0.00003100 0.00003100 0.08916000 0.16635800 0.50489700
23 -1.59928500 0.00001100 0.00001500 0.03567100 -0.02383000 0.56873300
24 5.58312300 0.11572400 0.29499900 1.94756400 -0.06728900 3.12123600
25 0.19684600 -0.00000200 0.00000300 2.79340696 -0.00030983 -3.14151456
26 -1.43581100 -17.57755700 -4.21693500 1.97586200 1.15991000 1.84280300
27 6.21448600 0.00000800 0.00001900 -0.55662297 0.44549575 -2.24059265
28 11.94488800 -0.00003100 -0.00020000 -1.10260601 -0.33834462 -1.31895304
29 10.62016500 0.00000200 0.00000600 -2.64789218 -0.73395200 0.59925434
30 4.75115800 0.69437400 -0.83047400 0.14397000 -0.33108800 0.58896000
31 1.68806500 -0.00002200 0.00000200 -0.00086800 -0.02473300 1.47304200
32 1.33615100 -0.00005100 -0.00000900 0.02234800 -0.03160000 -0.24592200
33 4.82051500 0.50933800 0.22486600 -0.12917500 -0.40396700 0.93397600
34 1.82699200 0.00006600 0.00001000 0.01510100 0.03754700 1.65575300
35 1.43658100 -0.00000600 0.00001000 0.01503200 0.00167500 -0.83651700
36 3.99235300 0.89108700 1.82799300 -0.39506600 -0.20724300 1.29222200
37 1.40592600 0.00003100 -0.00000300 -0.01421100 -0.02586600 1.37541000
38 1.17536200 -0.00013200 0.00000100 -0.07487300 0.09798600 -0.69969900
39 4.52675800 0.69046400 1.12084300 -0.34426000 -0.26332200 1.27150500
40 1.74404100 -0.00003100 -0.00000200 -0.02639200 -0.01328600 1.51729600
41 1.36876700 -0.00003100 -0.00001800 -0.12191500 0.10180800 -1.06387600
42 2.18329600 1.23038600 -0.71401000 1.82374500 0.74329300 0.26353100
43 1.62285600 -0.22039800 -0.15537300 -0.00960300 -0.07236600 0.19987900
44 1.58379400 -0.15422000 0.02523000 0.04524000 0.07017700 -0.17056300
45 5.51180600 -0.00000200 0.00000300 -0.85022300 0.00000000 0.00000000
46 0.19684900 0.00000300 -0.00000100 -0.34822500 0.00001500 -0.00000200
47 0.00000000 0.00000000 0.00000000 0.00000000 0.00000000 -1.57079600
48 -3.46189900 2.90101600 -3.24579200 0.00000000 0.00000000 -3.14156200
49 -0.44630318 21.30555858 -0.84715303 0.08562638 0.02282452 -1.48840624
50 -0.15910500 0.02305100 -0.34200700 0.00000000 0.00000000 0.00000000
51 0.16895700 -0.03358900 0.65100600 0.00000000 0.00000000 0.00000000
52 0.24801400 0.17628700 -0.04521800 0.00000000 0.00000000 0.00000000
53 4.99699000 -0.07961600 -1.51780000 0.00000000 0.00000000 0.00000000
54 0.63391900 0.60768000 0.83129200 0.00000000 0.00000000 0.00000000
55 -0.29897900 -0.62533200 0.49585200 0.00000000 0.00000000 0.00000000
56 12.35421400 2.04577100 -2.16955700 -0.36469000 1.33603000 1.32869100
57 -2.47239300 -2.40978600 -2.13861800 2.94762400 1.25576900 -2.60506400
58 2.04895400 -0.03391300 -1.46330700 0.00000000 0.00000000 0.00000000
time 3
0 -0.00000100 7.45008900 -27.50902600 0.00000000 0.00000000 0.00003100
1 -0.00000200 0.00000000 0.00000000 1.57074700 -1.56714200 -1.57074700
2 4.25546600 -0.33518300 -0.00000200 0.00000000 0.00000000 -0.12484800
3 7.43125000 1.49647900 0.00000200 0.00000000 0.00000000 0.24545000
4 5.27847900 0.16554400 0.00000100 0.00000000 0.00000000 0.04851100
5 2.36527000 -8.50587700 1.33807400 1.97586500 1.15990900 -1.29878600
6 -6.21447800 -0.00000900 -0.00002600 -3.08340617 -0.47032868 2.04392496
7 11.94488500 0.00000000 0.00000000 -0.37989843 -0.25912564 2.33214296
8 10.62018800 0.00000000 0.00000000 0.73660315 -0.30210640 1.86154830
9 -4.75110800 -0.69449800 0.83058000 0.09867000 -0.25159700 0.19662700
10 -1.68806800 0.00004700 -0.00003100 0.02047000 -0.01392100 0.46709800
11 -1.33614000 0.00005500 -0.00001000 0.02592200 0.00450900 0.38004900
12 -4.82049400 -0.50946400 -0.22475900 -0.56796800 -0.16537000 1.30383200
13 -1.82698400 -0.00006900 0.00000800 -0.01701100 0.03669500 0.83864200
14 -1.43656900 0.00000400 0.00000300 -0.04748700 -0.06156900 0.56561900
15 -3.99235700 -0.89119100 -1.82790900 -0.74478100 0.28987300 1.61467300
16 -1.40591800 -0.00002500 -0.00000200 0.01654100 -0.02437900 0.27905000
17 -1.17535800 0.00012600 -0.00001900 0.04192500 0.05340800 0.56994100
18 -4.52675100 -0.69058000 -1.12074100 -0.69995800 0.07369700 1.53725200
19 -1.74403800 0.00003200 -0.00000800 -0.00970500 -0.02790700 0.74532400
20 -1.36877100 0.00002300 0.00000200 -0.21896200 0.09890700 0.33870000
21 -1.87479600 -0.93512500 0.99917500 2.07952100 0.45181600 1.10761900
22 -1.52344700 0.00003100 0.00003100 0.08916000 0.16635800 0.50489700
23 -1.59928500 0.00001100 0.00001500 0.03567100 -0.02383000 0.56873300
24 5.58312300 0.11572400 0.29499900 1.94756400 -0.06728900 3.12123600
25 0.19684600 -0.00000200 0.00000300 2.79340696 -0.00030983 -3.14151456
26 -1.43581100 -17.57755700 -4.21693500 1.97586200 1.15991000 1.84280300
27 6.21448600 0.00000800 0.00001900 -0.55856977 0.48298405 -2.18689701
28 11.94488800 -0.00003100 -0.00020000 -1.06156390 -0.34582788 -1.44093013
29 10.62016500 0.00000200 0.00000600 -2.62704211 -0.82947619 0.55492594
30 4.75115800 0.69437400 -0.83047400 0.14397000 -0.33108800 0.58896000
31 1.68806500 -0.00002200 0.00000200 -0.00086800 -0.02473300 1.47304200
32 1.33615100 -0.00005100 -0.00000900 0.02234800 -0.03160000 -0.24592200
33 4.82051500 0.50933800 0.22486600 -0.12917500 -0.40396700 0.93397600
34 1.82699200 0.00006600 0.00001000 0.01510100 0.03754700 1.65575300
35 1.43658100 -0.00000600 0.00001000 0.01503200 0.00167500 -0.83651700
36 3.99235300 0.89108700 1.82799300 -0.39506600 -0.20724300 1.29222200
37 1.40592600 0.00003100 -0.00000300 -0.01421100 -0.02586600 1.37541000
38 1.17536200 -0.00013200 0.00000100 -0.07487300 0.09798600 -0.69969900
39 4.52675800 0.69046400 1.12084300 -0.34426000 -0.26332200 1.27150500
40 1.74404100 -0.00003100 -0.00000200 -0.02639200 -0.01328600 1.51729600
41 1.36876700 -0.00003100 -0.00001800 -0.12191500 0.10180800 -1.06387600
42 2.18329600 1.23038600 -0.71401000 1.82374500 0.74329300 0.26353100
43 1.62285600 -0.22039800 -0.15537300 -0.00960300 -0.07236600 0.19987900
44 1.58379400 -0.15422000 0.02523000 0.04524000 0.07017700 -0.17056300
45 5.51180600 -0.00000200 0.00000300 -0.85022300 0.00000000 0.00000000
46 0.19684900 0.00000300 -0.00000100 -0.34822500 0.00001500 -0.00000200
47 0.00000000 0.00000000 0.00000000 0.00000000 0.00000000 -1.57079600
48 -3.46189900 2.90101600 -3.24579200 0.00000000 0.00000000 -3.14156200
49 -1.25070360 21.07081558 -0.84304591 0.15037583 0.05016548 -1.39122486
50 -0.15910500 0.02305100 -0.34200700 0.00000000 0.00000000 0.00000000
51 0.16895700 -0.03358900 0.65100600 0.00000000 0.00000000 0.00000000
52 0.24801400 0.17628700 -0.04521800 0.00000000 0.00000000 0.00000000
53 4.99699000 -0.07961600 -1.51780000 0.00000000 0.00000000 0.00000000
54 0.63391900 0.60768000 0.83129200 0.00000000 0.00000000 0.00000000
55 -0.29897900 -0.62533200 0.49585200 0.00000000 0.00000000 0.00000000
56 12.35414500 2.04582500 -2.16954900 -0.36469000 1.33603000 1.32869100
57 -2.47239900 -2.40978300 -2.13862000 2.94762400 1.25576900 -2.60506400
58 2.04895400 -0.03391300 -1.46330700 0.00000000 0.00000000 0.00000000
time 4
0 -0.00000100 7.45008900 -27.50902600 0.00000000 0.00000000 0.00003100
1 -0.00000200 0.00000000 0.00000000 1.57074700 -1.56714200 -1.57074700
2 4.25546600 -0.33518300 -0.00000200 0.00000000 0.00000000 -0.12484800
3 7.43125000 1.49647900 0.00000200 0.00000000 0.00000000 0.24545000
4 5.27847900 0.16554400 0.00000100 0.00000000 0.00000000 0.04851100
5 1.87521900 -9.06603100 1.94512800 1.97586500 1.15990900 -1.29878600
6 -6.21447800 -0.00000900 -0.00002600 -3.09944269 -0.41207427 2.04637471
7 11.94488500 0.00000000 0.00000000 -0.32738293 -0.25669650 2.34348586
8 10.62018800 0.00000000 0.00000000 0.74039833 -0.31685425 1.95416065
9 -4.75110800 -0.69449800 0.83058000 0.09867000 -0.25159700 0.19662700
10 -1.68806800 0.00004700 -0.00003100 0.02047000 -0.01392100 0.46709800
11 -1.33614000 0.00005500 -0.00001000 0.02592200 0.00450900 0.38004900
12 -4.82049400 -0.50946400 -0.22475900 -0.56796800 -0.16537000 1.30383200
13 -1.82698400 -0.00006900 0.00000800 -0.01701100 0.03669500 0.83864200
14 -1.43656900 0.00000400 0.00000300 -0.04748700 -0.06156900 0.56561900
15 -3.99235700 -0.89119100 -1.82790900 -0.74478100 0.28987300 1.61467300
16 -1.40591800 -0.00002500 -0.00000200 0.01654100 -0.02437900 0.27905000
17 -1.17535800 0.00012600 -0.00001900 0.04192500 0.05340800 0.56994100
18 -4.52675100 -0.69058000 -1.12074100 -0.69995800 0.07369700 1.53725200
19 -1.74403800 0.00003200 -0.00000800 -0.00970500 -0.02790700 0.74532400
20 -1.36877100 0.00002300 0.00000200 -0.21896200 0.09890700 0.33870000
21 -1.87479600 -0.93512500 0.99917500 2.07952100 0.45181600 1.10761900
22 -1.52344700 0.00003100 0.00003100 0.08916000 0.16635800 0.50489700
23 -1.59928500 0.00001100 0.00001500 0.03567100 -0.02383000 0.56873300
24 5.58312300 0.11572400 0.29499900 1.94756400 -0.06728900 3.12123600
25 0.19684600 -0.00000200 0.00000300 2.79340696 -0.00030983 -3.14151456
26 -1.43581100 -17.57755700 -4.21693500 1.97586200 1.15991000 1.84280300
27 6.21448600 0.00000800 0.00001900 -0.56506057 0.52457295 -2.12495912
28 11.94488800 -0.00003100 -0.00020000 -1.01563895 -0.34873907 -1.57557820
29 10.62016500 0.00000200 0.00000600 -2.56706364 -0.93795477 0.47784974
30 4.75115800 0.69437400 -0.83047400 0.14397000 -0.33108800 0.58896000
31 1.68806500 -0.00002200 0.00000200 -0.00086800 -0.02473300 1.47304200
32 1.33615100 -0.00005100 -0.00000900 0.02234800 -0.03160000 -0.24592200
33 4.82051500 0.50933800 0.22486600 -0.12917500 -0.40396700 0.93397600
34 1.82699200 0.00006600 0.00001000 0.01510100 0.03754700 1.65575300
35 1.43658100 -0.00000600 0.00001000 0.01503200 0.00167500 -0.83651700
36 3.99235300 0.89108700 1.82799300 -0.39506600 -0.20724300 1.29222200
37 1.40592600 0.00003100 -0.00000300 -0.01421100 -0.02586600 1.37541000
38 1.17536200 -0.00013200 0.00000100 -0.07487300 0.09798600 -0.69969900
39 4.52675800 0.69046400 1.12084300 -0.34426000 -0.26332200 1.27150500
40 1.74404100 -0.00003100 -0.00000200 -0.02639200 -0.01328600 1.51729600
41 1.36876700 -0.00003100 -0.00001800 -0.12191500 0.10180800 -1.06387600
42 2.18329600 1.23038600 -0.71401000 1.82374500 0.74329300 0.26353100
43 1.62285600 -0.22039800 -0.15537300 -0.00960300 -0.07236600 0.19987900
44 1.58379400 -0.15422000 0.02523000 0.04524000 0.07017700 -0.17056300
45 5.51180600 -0.00000200 0.00000300 -0.85022300 0.00000000 0.00000000
46 0.19684900 0.00000300 -0.00000100 -0.34822500 0.00001500 -0.00000200
47 0.00000000 0.00000000 0.00000000 0.00000000 0.00000000 -1.57079600
48 -3.46189900 2.90101600 -3.24579200 0.00000000 0.00000000 -3.14156200
49 -2.22882825 20.80409058 -0.84351627 0.22905754 0.07792148 -1.26651674
50 -0.15910500 0.02305100 -0.34200700 0.00000000 0.00000000 0.00000000
51 0.16895700 -0.03358900 0.65100600 0.00000000 0.00000000 0.00000000
52 0.24801400 0.17628700 -0.04521800 0.00000000 0.00000000 0.00000000
53 4.99699000 -0.07961600 -1.51780000 0.00000000 0.00000000 0.00000000
54 0.63391900 0.60768000 0.83129200 0.00000000 0.00000000 0.00000000
55 -0.29897900 -0.62533200 0.49585200 0.00000000 0.00000000 0.00000000
56 12.35410700 2.04591200 -2.16956300 -0.36469000 1.33603000 1.32869100
57 -2.47241800 -2.40974000 -2.13861200 2.94762400 1.25576900 -2.60506400
58 2.04895400 -0.03391300 -1.46330700 0.00000000 0.00000000 0.00000000
time 5
0 -0.00000100 7.45008900 -27.50902600 0.00000000 0.00000000 0.00003100
1 -0.00000200 0.00000000 0.00000000 1.57074700 -1.56714200 -1.57074700
2 4.25546600 -0.33518300 -0.00000200 0.00000000 0.00000000 -0.12484800
3 7.43125000 1.49647900 0.00000200 0.00000000 0.00000000 0.24545000
4 5.27847900 0.16554400 0.00000100 0.00000000 0.00000000 0.04851100
5 1.31909400 -9.70171000 2.63403200 1.97586500 1.15990900 -1.29878600
6 -6.21447800 -0.00000900 -0.00002600 -3.11033839 -0.34006501 2.02792969
7 11.94488500 0.00000000 0.00000000 -0.25963672 -0.26040670 2.32916707
8 10.62018800 0.00000000 0.00000000 0.73375899 -0.32414725 2.06979716
9 -4.75110800 -0.69449800 0.83058000 0.09867000 -0.25159700 0.19662700
10 -1.68806800 0.00004700 -0.00003100 0.02047000 -0.01392100 0.46709800
11 -1.33614000 0.00005500 -0.00001000 0.02592200 0.00450900 0.38004900
12 -4.82049400 -0.50946400 -0.22475900 -0.56796800 -0.16537000 1.30383200
13 -1.82698400 -0.00006900 0.00000800 -0.01701100 0.03669500 0.83864200
14 -1.43656900 0.00000400 0.00000300 -0.04748700 -0.06156900 0.56561900
15 -3.99235700 -0.89119100 -1.82790900 -0.74478100 0.28987300 1.61467300
16 -1.40591800 -0.00002500 -0.00000200 0.01654100 -0.02437900 0.27905000
17 -1.17535800 0.00012600 -0.00001900 0.04192500 0.05340800 0.56994100
18 -4.52675100 -0.69058000 -1.12074100 -0.69995800 0.07369700 1.53725200
19 -1.74403800 0.00003200 -0.00000800 -0.00970500 -0.02790700 0.74532400
20 -1.36877100 0.00002300 0.00000200 -0.21896200 0.09890700 0.33870000
21 -1.87479600 -0.93512500 0.99917500 2.07952100 0.45181600 1.10761900
22 -1.52344700 0.00003100 0.00003100 0.08916000 0.16635800 0.50489700
23 -1.59928500 0.00001100 0.00001500 0.03567100 -0.02383000 0.56873300
24 5.58312300 0.11572400 0.29499900 1.94756400 -0.06728900 3.12123600
25 0.19684600 -0.00000200 0.00000300 2.79340696 -0.00030983 -3.14151456
26 -1.43581100 -17.57755700 -4.21693500 1.97586200 1.15991000 1.84280300
27 6.21448600 0.00000800 0.00001900 -0.57925158 0.56605974 -2.06087356
28 11.94488800 -0.00003100 -0.00020000 -0.97011313 -0.34627608 -1.70898855
29 10.62016500 0.00000200 0.00000600 -2.44899250 -1.04243415 0.36047178
30 4.75115800 0.69437400 -0.83047400 0.14397000 -0.33108800 0.58896000
31 1.68806500 -0.00002200 0.00000200 -0.00086800 -0.02473300 1.47304200
32 1.33615100 -0.00005100 -0.00000900 0.02234800 -0.03160000 -0.24592200
33 4.82051500 0.50933800 0.22486600 -0.12917500 -0.40396700 0.93397600
34 1.82699200 0.00006600 0.00001000 0.01510100 0.03754700 1.65575300
35 1.43658100 -0.00000600 0.00001000 0.01503200 0.00167500 -0.83651700
36 3.99235300 0.89108700 1.82799300 -0.39506600 -0.20724300 1.29222200
37 1.40592600 0.00003100 -0.00000300 -0.01421100 -0.02586600 1.37541000
38 1.17536200 -0.00013200 0.00000100 -0.07487300 0.09798600 -0.69969900
39 4.52675800 0.69046400 1.12084300 -0.34426000 -0.26332200 1.27150500
40 1.74404100 -0.00003100 -0.00000200 -0.02639200 -0.01328600 1.51729600
41 1.36876700 -0.00003100 -0.00001800 -0.12191500 0.10180800 -1.06387600
42 2.18329600 1.23038600 -0.71401000 1.82374500 0.74329300 0.26353100
43 1.62285600 -0.22039800 -0.15537300 -0.00960300 -0.07236600 0.19987900
44 1.58379400 -0.15422000 0.02523000 0.04524000 0.07017700 -0.17056300
45 5.51180600 -0.00000200 0.00000300 -0.85022300 0.00000000 0.00000000
46 0.19684900 0.00000300 -0.00000100 -0.34822500 0.00001500 -0.00000200
47 0.00000000 0.00000000 0.00000000 0.00000000 0.00000000 -1.57079600
48 -3.46189900 2.90101600 -3.24579200 0.00000000 0.00000000 -3.14156200
49 -3.29839982 20.54110158 -0.85028721 0.30862092 0.10060466 -1.12433273
50 -0.15910500 0.02305100 -0.34200700 0.00000000 0.00000000 0.00000000
51 0.16895700 -0.03358900 0.65100600 0.00000000 0.00000000 0.00000000
52 0.24801400 0.17628700 -0.04521800 0.00000000 0.00000000 0.00000000
53 4.99699000 -0.07961600 -1.51780000 0.00000000 0.00000000 0.00000000
54 0.63391900 0.60768000 0.83129200 0.00000000 0.00000000 0.00000000
55 -0.29897900 -0.62533200 0.49585200 0.00000000 0.00000000 0.00000000
56 12.35412900 2.04599300 -2.16959300 -0.36469000 1.33603000 1.32869100
57 -2.47246300 -2.40965300 -2.13860300 2.94762400 1.25576900 -2.60506400
58 2.04895400 -0.03391300 -1.46330700 0.00000000 0.00000000 0.00000000
time 6
0 -0.00000100 7.45008900 -27.50902600 0.00000000 0.00000000 0.00003100
1 -0.00000200 0.00000000 0.00000000 1.57074700 -1.56714200 -1.57074700
2 4.25546600 -0.33518300 -0.00000200 0.00000000 0.00000000 -0.12484800
3 7.43125000 1.49647900 0.00000200 0.00000000 0.00000000 0.24545000
4 5.27847900 0.16554400 0.00000100 0.00000000 0.00000000 0.04851100
5 0.72993300 -10.37515100 3.36386000 1.97586500 1.15990900 -1.29878600
6 -6.21447800 -0.00000900 -0.00002600 -3.12634441 -0.26008767 1.98670205
7 11.94488500 0.00000000 0.00000000 -0.17950965 -0.27025835 2.28695730
8 10.62018800 0.00000000 0.00000000 0.71334341 -0.31119618 2.19829098
9 -4.75110800 -0.69449800 0.83058000 0.09867000 -0.25159700 0.19662700
10 -1.68806800 0.00004700 -0.00003100 0.02047000 -0.01392100 0.46709800
11 -1.33614000 0.00005500 -0.00001000 0.02592200 0.00450900 0.38004900
12 -4.82049400 -0.50946400 -0.22475900 -0.56796800 -0.16537000 1.30383200
13 -1.82698400 -0.00006900 0.00000800 -0.01701100 0.03669500 0.83864200
14 -1.43656900 0.00000400 0.00000300 -0.04748700 -0.06156900 0.56561900
15 -3.99235700 -0.89119100 -1.82790900 -0.74478100 0.28987300 1.61467300
16 -1.40591800 -0.00002500 -0.00000200 0.01654100 -0.02437900 0.27905000
17 -1.17535800 0.00012600 -0.00001900 0.04192500 0.05340800 0.56994100
18 -4.52675100 -0.69058000 -1.12074100 -0.69995800 0.07369700 1.53725200
19 -1.74403800 0.00003200 -0.00000800 -0.00970500 -0.02790700 0.74532400
20 -1.36877100 0.00002300 0.00000200 -0.21896200 0.09890700 0.33870000
21 -1.87479600 -0.93512500 0.99917500 2.07952100 0.45181600 1.10761900
22 -1.52344700 0.00003100 0.00003100 0.08916000 0.16635800 0.50489700
23 -1.59928500 0.00001100 0.00001500 0.03567100 -0.02383000 0.56873300
24 5.58312300 0.11572400 0.29499900 1.94756400 -0.06728900 3.12123600
25 0.19684600 -0.00000200 0.00000300 2.79340696 -0.00030983 -3.14151456
26 -1.43581100 -17.57755700 -4.21693500 1.97586200 1.15991000 1.84280300
27 6.21448600 0.00000800 0.00001900 -0.60481273 0.60409538 -2.00101980
28 11.94488800 -0.00003100 -0.00020000 -0.92937048 -0.33938020 -1.83008993
29 10.62016500 0.00000200 0.00000600 -2.26525302 -1.12536430 0.20389256
30 4.75115800 0.69437400 -0.83047400 0.14397000 -0.33108800 0.58896000
31 1.68806500 -0.00002200 0.00000200 -0.00086800 -0.02473300 1.47304200
32 1.33615100 -0.00005100 -0.00000900 0.02234800 -0.03160000 -0.24592200
33 4.82051500 0.50933800 0.22486600 -0.12917500 -0.40396700 0.93397600
34 1.82699200 0.00006600 0.00001000 0.01510100 0.03754700 1.65575300
35 1.43658100 -0.00000600 0.00001000 0.01503200 0.00167500 -0.83651700
36 3.99235300 0.89108700 1.82799300 -0.39506600 -0.20724300 1.29222200
37 1.40592600 0.00003100 -0.00000300 -0.01421100 -0.02586600 1.37541000
38 1.17536200 -0.00013200 0.00000100 -0.07487300 0.09798600 -0.69969900
39 4.52675800 0.69046400 1.12084300 -0.34426000 -0.26332200 1.27150500
40 1.74404100 -0.00003100 -0.00000200 -0.02639200 -0.01328600 1.51729600
41 1.36876700 -0.00003100 -0.00001800 -0.12191500 0.10180800 -1.06387600
42 2.18329600 1.23038600 -0.71401000 1.82374500 0.74329300 0.26353100
43 1.62285600 -0.22039800 -0.15537300 -0.00960300 -0.07236600 0.19987900
44 1.58379400 -0.15422000 0.02523000 0.04524000 0.07017700 -0.17056300
45 5.51180600 -0.00000200 0.00000300 -0.85022300 0.00000000 0.00000000
46 0.19684900 0.00000300 -0.00000100 -0.34822500 0.00001500 -0.00000200
47 0.00000000 0.00000000 0.00000000 0.00000000 0.00000000 -1.57079600
48 -3.46189900 2.90101600 -3.24579200 0.00000000 0.00000000 -3.14156200
49 -4.37716590 20.31757158 -0.86340943 0.37481571 0.11717040 -0.97707611
50 -0.15910500 0.02305100 -0.34200700 0.00000000 0.00000000 0.00000000
51 0.16895700 -0.03358900 0.65100600 0.00000000 0.00000000 0.00000000
52 0.24801400 0.17628700 -0.04521800 0.00000000 0.00000000 0.00000000
53 4.99699000 -0.07961600 -1.51780000 0.00000000 0.00000000 0.00000000
54 0.63391900 0.60768000 0.83129200 0.00000000 0.00000000 0.00000000
55 -0.29897900 -0.62533200 0.49585200 0.00000000 0.00000000 0.00000000
56 12.35422100 2.04604500 -2.16965600 -0.36469000 1.33603000 1.32869100
57 -2.47254100 -2.40942400 -2.13858100 2.94762400 1.25576900 -2.60506400
58 2.04895400 -0.03391300 -1.46330700 0.00000000 0.00000000 0.00000000
time 7
0 -0.00000100 7.45008900 -27.50902600 0.00000000 0.00000000 0.00003100
1 -0.00000200 0.00000000 0.00000000 1.57074700 -1.56714200 -1.57074700
2 4.25546600 -0.33518300 -0.00000200 0.00000000 0.00000000 -0.12484800
3 7.43125000 1.49647900 0.00000200 0.00000000 0.00000000 0.24545000
4 5.27847900 0.16554400 0.00000100 0.00000000 0.00000000 0.04851100
5 0.14077100 -11.04859400 4.09368800 1.97586500 1.15990900 -1.29878600
6 -6.21447800 -0.00000900 -0.00002600 3.12132471 -0.17719053 1.92906503
7 11.94488500 0.00000000 0.00000000 -0.09185193 -0.28413110 2.22311929
8 10.62018800 0.00000000 0.00000000 0.67701809 -0.26461183 2.33068590
9 -4.75110800 -0.69449800 0.83058000 0.09867000 -0.25159700 0.19662700
10 -1.68806800 0.00004700 -0.00003100 0.02047000 -0.01392100 0.46709800
11 -1.33614000 0.00005500 -0.00001000 0.02592200 0.00450900 0.38004900
12 -4.82049400 -0.50946400 -0.22475900 -0.56796800 -0.16537000 1.30383200
13 -1.82698400 -0.00006900 0.00000800 -0.01701100 0.03669500 0.83864200
14 -1.43656900 0.00000400 0.00000300 -0.04748700 -0.06156900 0.56561900
15 -3.99235700 -0.89119100 -1.82790900 -0.74478100 0.28987300 1.61467300
16 -1.40591800 -0.00002500 -0.00000200 0.01654100 -0.02437900 0.27905000
17 -1.17535800 0.00012600 -0.00001900 0.04192500 0.05340800 0.56994100
18 -4.52675100 -0.69058000 -1.12074100 -0.69995800 0.07369700 1.53725200
19 -1.74403800 0.00003200 -0.00000800 -0.00970500 -0.02790700 0.74532400
20 -1.36877100 0.00002300 0.00000200 -0.21896200 0.09890700 0.33870000
21 -1.87479600 -0.93512500 0.99917500 2.07952100 0.45181600 1.10761900
22 -1.52344700 0.00003100 0.00003100 0.08916000 0.16635800 0.50489700
23 -1.59928500 0.00001100 0.00001500 0.03567100 -0.02383000 0.56873300
24 5.58312300 0.11572400 0.29499900 1.94756400 -0.06728900 3.12123600
25 0.19684600 -0.00000200 0.00000300 2.79340696 -0.00030983 -3.14151456
26 -1.43581100 -17.57755700 -4.21693500 1.97586200 1.15991000 1.84280300
27 6.21448600 0.00000800 0.00001900 -0.64444684 0.63522681 -1.95161321
28 11.94488800 -0.00003100 -0.00020000 -0.89645536 -0.33042432 -1.93062160
29 10.62016500 0.00000200 0.00000600 -2.03875212 -1.17463103 0.03615505
30 4.75115800 0.69437400 -0.83047400 0.14397000 -0.33108800 0.58896000
31 1.68806500 -0.00002200 0.00000200 -0.00086800 -0.02473300 1.47304200
32 1.33615100 -0.00005100 -0.00000900 0.02234800 -0.03160000 -0.24592200
33 4.82051500 0.50933800 0.22486600 -0.12917500 -0.40396700 0.93397600
34 1.82699200 0.00006600 0.00001000 0.01510100 0.03754700 1.65575300
35 1.43658100 -0.00000600 0.00001000 0.01503200 0.00167500 -0.83651700
36 3.99235300 0.89108700 1.82799300 -0.39506600 -0.20724300 1.29222200
37 1.40592600 0.00003100 -0.00000300 -0.01421100 -0.02586600 1.37541000
38 1.17536200 -0.00013200 0.00000100 -0.07487300 0.09798600 -0.69969900
39 4.52675800 0.69046400 1.12084300 -0.34426000 -0.26332200 1.27150500
40 1.74404100 -0.00003100 -0.00000200 -0.02639200 -0.01328600 1.51729600
41 1.36876700 -0.00003100 -0.00001800 -0.12191500 0.10180800 -1.06387600
42 2.18329600 1.23038600 -0.71401000 1.82374500 0.74329300 0.26353100
43 1.62285600 -0.22039800 -0.15537300 -0.00960300 -0.07236600 0.19987900
44 1.58379400 -0.15422000 0.02523000 0.04524000 0.07017700 -0.17056300
45 5.51180600 -0.00000200 0.00000300 -0.85022300 0.00000000 0.00000000
46 0.19684900 0.00000300 -0.00000100 -0.34822500 0.00001500 -0.00000200
47 0.00000000 0.00000000 0.00000000 0.00000000 0.00000000 -1.57079600
48 -3.46189900 2.90101600 -3.24579200 0.00000000 0.00000000 -3.14156200
49 -5.38299094 20.16921558 -0.87758725 0.41588166 0.13286061 -0.83790467
50 -0.15910500 0.02305100 -0.34200700 0.00000000 0.00000000 0.00000000
51 0.16895700 -0.03358900 0.65100600 0.00000000 0.00000000 0.00000000
52 0.24801400 0.17628700 -0.04521800 0.00000000 0.00000000 0.00000000
53 4.99699000 -0.07961600 -1.51780000 0.00000000 0.00000000 0.00000000
54 0.63391900 0.60768000 0.83129200 0.00000000 0.00000000 0.00000000
55 -0.29897900 -0.62533200 0.49585200 0.00000000 0.00000000 0.00000000
56 12.35435600 2.04605000 -2.16972100 -0.36469000 1.33603000 1.32869100
57 -2.47257300 -2.40925000 -2.13855000 2.94762400 1.25576900 -2.60506400
58 2.04895400 -0.03391300 -1.46330700 0.00000000 0.00000000 0.00000000
time 8
0 -0.00000100 7.45008900 -27.50902600 0.00000000 0.00000000 0.00003100
1 -0.00000200 0.00000000 0.00000000 1.57074700 -1.56714200 -1.57074700
2 4.25546600 -0.33518300 -0.00000200 0.00000000 0.00000000 -0.12484800
3 7.43125000 1.49647900 0.00000200 0.00000000 0.00000000 0.24545000
4 5.27847900 0.16554400 0.00000100 0.00000000 0.00000000 0.04851100
5 -0.41535400 -11.68427300 4.78259200 1.97586500 1.15990900 -1.29878600
6 -6.21447800 -0.00000900 -0.00002600 3.06620799 -0.09639954 1.85229801
7 11.94488500 0.00000000 0.00000000 -0.00317307 -0.29906805 2.14822793
8 10.62018800 0.00000000 0.00000000 0.63852807 -0.18657361 2.44501735
9 -4.75110800 -0.69449800 0.83058000 0.09867000 -0.25159700 0.19662700
10 -1.68806800 0.00004700 -0.00003100 0.02047000 -0.01392100 0.46709800
11 -1.33614000 0.00005500 -0.00001000 0.02592200 0.00450900 0.38004900
12 -4.82049400 -0.50946400 -0.22475900 -0.56796800 -0.16537000 1.30383200
13 -1.82698400 -0.00006900 0.00000800 -0.01701100 0.03669500 0.83864200
14 -1.43656900 0.00000400 0.00000300 -0.04748700 -0.06156900 0.56561900
15 -3.99235700 -0.89119100 -1.82790900 -0.74478100 0.28987300 1.61467300
16 -1.40591800 -0.00002500 -0.00000200 0.01654100 -0.02437900 0.27905000
17 -1.17535800 0.00012600 -0.00001900 0.04192500 0.05340800 0.56994100
18 -4.52675100 -0.69058000 -1.12074100 -0.69995800 0.07369700 1.53725200
19 -1.74403800 0.00003200 -0.00000800 -0.00970500 -0.02790700 0.74532400
20 -1.36877100 0.00002300 0.00000200 -0.21896200 0.09890700 0.33870000
21 -1.87479600 -0.93512500 0.99917500 2.07952100 0.45181600 1.10761900
22 -1.52344700 0.00003100 0.00003100 0.08916000 0.16635800 0.50489700
23 -1.59928500 0.00001100 0.00001500 0.03567100 -0.02383000 0.56873300
24 5.58312300 0.11572400 0.29499900 1.94756400 -0.06728900 3.12123600
25 0.19684600 -0.00000200 0.00000300 2.79340696 -0.00030983 -3.14151456
26 -1.43581100 -17.57755700 -4.21693500 1.97586200 1.15991000 1.84280300
27 6.21448600 0.00000800 0.00001900 -0.70165355 0.65931689 -1.91377711
28 11.94488800 -0.00003100 -0.00020000 -0.87072028 -0.32137706 -2.01146491
29 10.62016500 0.00000200 0.00000600 -1.83522915 -1.18935028 -0.08320918
30 4.75115800 0.69437400 -0.83047400 0.14397000 -0.33108800 0.58896000
31 1.68806500 -0.00002200 0.00000200 -0.00086800 -0.02473300 1.47304200
32 1.33615100 -0.00005100 -0.00000900 0.02234800 -0.03160000 -0.24592200
33 4.82051500 0.50933800 0.22486600 -0.12917500 -0.40396700 0.93397600
34 1.82699200 0.00006600 0.00001000 0.01510100 0.03754700 1.65575300
35 1.43658100 -0.00000600 0.00001000 0.01503200 0.00167500 -0.83651700
36 3.99235300 0.89108700 1.82799300 -0.39506600 -0.20724300 1.29222200
37 1.40592600 0.00003100 -0.00000300 -0.01421100 -0.02586600 1.37541000
38 1.17536200 -0.00013200 0.00000100 -0.07487300 0.09798600 -0.69969900
39 4.52675800 0.69046400 1.12084300 -0.34426000 -0.26332200 1.27150500
40 1.74404100 -0.00003100 -0.00000200 -0.02639200 -0.01328600 1.51729600
41 1.36876700 -0.00003100 -0.00001800 -0.12191500 0.10180800 -1.06387600
42 2.18329600 1.23038600 -0.71401000 1.82374500 0.74329300 0.26353100
43 1.62285600 -0.22039800 -0.15537300 -0.00960300 -0.07236600 0.19987900
44 1.58379400 -0.15422000 0.02523000 0.04524000 0.07017700 -0.17056300
45 5.51180600 -0.00000200 0.00000300 -0.85022300 0.00000000 0.00000000
46 0.19684900 0.00000300 -0.00000100 -0.34822500 0.00001500 -0.00000200
47 0.00000000 0.00000000 0.00000000 0.00000000 0.00000000 -1.57079600
48 -3.46189900 2.90101600 -3.24579200 0.00000000 0.00000000 -3.14156200
49 -6.35909063 20.08220058 -0.88298790 0.43600749 0.15095877 -0.71764373
50 -0.15910500 0.02305100 -0.34200700 0.00000000 0.00000000 0.00000000
51 0.16895700 -0.03358900 0.65100600 0.00000000 0.00000000 0.00000000
52 0.24801400 0.17628700 -0.04521800 0.00000000 0.00000000 0.00000000
53 4.99699000 -0.07961600 -1.51780000 0.00000000 0.00000000 0.00000000
54 0.63391900 0.60768000 0.83129200 0.00000000 0.00000000 0.00000000
55 -0.29897900 -0.62533200 0.49585200 0.00000000 0.00000000 0.00000000
56 12.35452300 2.04601000 -2.16977800 -0.36469000 1.33603000 1.32869100
57 -2.47275100 -2.40864300 -2.13845500 2.94762400 1.25576900 -2.60506400
58 2.04895400 -0.03391300 -1.46330700 0.00000000 0.00000000 0.00000000
time 9
0 -0.00000100 7.45008900 -27.50902600 0.00000000 0.00000000 0.00003100
1 -0.00000200 0.00000000 0.00000000 1.57074700 -1.56714200 -1.57074700
2 4.25546600 -0.33518300 -0.00000200 0.00000000 0.00000000 -0.12484800
3 7.43125000 1.49647900 0.00000200 0.00000000 0.00000000 0.24545000
4 5.27847900 0.16554400 0.00000100 0.00000000 0.00000000 0.04851100
5 -0.90540300 -12.24442700 5.38964500 1.97586500 1.15990900 -1.29878600
6 -6.21447800 -0.00000900 -0.00002600 3.01172634 -0.02861480 1.76623438
7 11.94488500 0.00000000 0.00000000 0.08042231 -0.31356853 2.06914678
8 10.62018800 0.00000000 0.00000000 0.61718625 -0.10911549 2.53884152
9 -4.75110800 -0.69449800 0.83058000 0.09867000 -0.25159700 0.19662700
10 -1.68806800 0.00004700 -0.00003100 0.02047000 -0.01392100 0.46709800
11 -1.33614000 0.00005500 -0.00001000 0.02592200 0.00450900 0.38004900
12 -4.82049400 -0.50946400 -0.22475900 -0.56796800 -0.16537000 1.30383200
13 -1.82698400 -0.00006900 0.00000800 -0.01701100 0.03669500 0.83864200
14 -1.43656900 0.00000400 0.00000300 -0.04748700 -0.06156900 0.56561900
15 -3.99235700 -0.89119100 -1.82790900 -0.74478100 0.28987300 1.61467300
16 -1.40591800 -0.00002500 -0.00000200 0.01654100 -0.02437900 0.27905000
17 -1.17535800 0.00012600 -0.00001900 0.04192500 0.05340800 0.56994100
18 -4.52675100 -0.69058000 -1.12074100 -0.69995800 0.07369700 1.53725200
19 -1.74403800 0.00003200 -0.00000800 -0.00970500 -0.02790700 0.74532400
20 -1.36877100 0.00002300 0.00000200 -0.21896200 0.09890700 0.33870000
21 -1.87479600 -0.93512500 0.99917500 2.07952100 0.45181600 1.10761900
22 -1.52344700 0.00003100 0.00003100 0.08916000 0.16635800 0.50489700
23 -1.59928500 0.00001100 0.00001500 0.03567100 -0.02383000 0.56873300
24 5.58312300 0.11572400 0.29499900 1.94756400 -0.06728900 3.12123600
25 0.19684600 -0.00000200 0.00000300 2.79340696 -0.00030983 -3.14151456
26 -1.43581100 -17.57755700 -4.21693500 1.97586200 1.15991000 1.84280300
27 6.21448600 0.00000800 0.00001900 -0.76938842 0.67513410 -1.89010150
28 11.94488800 -0.00003100 -0.00020000 -0.85196916 -0.31374583 -2.07245257
29 10.62016500 0.00000200 0.00000600 -1.68672546 -1.18270591 -0.14481027
30 4.75115800 0.69437400 -0.83047400 0.14397000 -0.33108800 0.58896000
31 1.68806500 -0.00002200 0.00000200 -0.00086800 -0.02473300 1.47304200
32 1.33615100 -0.00005100 -0.00000900 0.02234800 -0.03160000 -0.24592200
33 4.82051500 0.50933800 0.22486600 -0.12917500 -0.40396700 0.93397600
34 1.82699200 0.00006600 0.00001000 0.01510100 0.03754700 1.65575300
35 1.43658100 -0.00000600 0.00001000 0.01503200 0.00167500 -0.83651700
36 3.99235300 0.89108700 1.82799300 -0.39506600 -0.20724300 1.29222200
37 1.40592600 0.00003100 -0.00000300 -0.01421100 -0.02586600 1.37541000
38 1.17536200 -0.00013200 0.00000100 -0.07487300 0.09798600 -0.69969900
39 4.52675800 0.69046400 1.12084300 -0.34426000 -0.26332200 1.27150500
40 1.74404100 -0.00003100 -0.00000200 -0.02639200 -0.01328600 1.51729600
41 1.36876700 -0.00003100 -0.00001800 -0.12191500 0.10180800 -1.06387600
42 2.18329600 1.23038600 -0.71401000 1.82374500 0.74329300 0.26353100
43 1.62285600 -0.22039800 -0.15537300 -0.00960300 -0.07236600 0.19987900
44 1.58379400 -0.15422000 0.02523000 0.04524000 0.07017700 -0.17056300
45 5.51180600 -0.00000200 0.00000300 -0.85022300 0.00000000 0.00000000
46 0.19684900 0.00000300 -0.00000100 -0.34822500 0.00001500 -0.00000200
47 0.00000000 0.00000000 0.00000000 0.00000000 0.00000000 -1.57079600
48 -3.46189900 2.90101600 -3.24579200 0.00000000 0.00000000 -3.14156200
49 -7.24816875 20.01680958 -0.86480654 0.44924995 0.16863707 -0.61816439
50 -0.15910500 0.02305100 -0.34200700 0.00000000 0.00000000 0.00000000
51 0.16895700 -0.03358900 0.65100600 0.00000000 0.00000000 0.00000000
52 0.24801400 0.17628700 -0.04521800 0.00000000 0.00000000 0.00000000
53 4.99699000 -0.07961600 -1.51780000 0.00000000 0.00000000 0.00000000
54 0.63391900 0.60768000 0.83129200 0.00000000 0.00000000 0.00000000
55 -0.29897900 -0.62533200 0.49585200 0.00000000 0.00000000 0.00000000
56 12.35470800 2.04595100 -2.16980900 -0.36469000 1.33603000 1.32869100
57 -2.47295900 -2.40797100 -2.13828800 2.94762400 1.25576900 -2.60506400
58 2.04895400 -0.03391300 -1.46330700 0.00000000 0.00000000 0.00000000
time 10
0 -0.00000100 7.45008900 -27.50902600 0.00000000 0.00000000 0.00003100
1 -0.00000200 0.00000000 0.00000000 1.57074700 -1.56714200 -1.57074700
2 4.25546600 -0.33518300 -0.00000200 0.00000000 0.00000000 -0.12484800
3 7.43125000 1.49647900 0.00000200 0.00000000 0.00000000 0.24545000
4 5.27847900 0.16554400 0.00000100 0.00000000 0.00000000 0.04851100
5 -1.29634400 -12.69129000 5.87392300 1.97586500 1.15990900 -1.29878600
6 -6.21447800 -0.00000900 -0.00002600 2.97039785 0.01852842 1.71323961
7 11.94488500 0.00000000 0.00000000 0.14917302 -0.32435651 2.00276486
8 10.62018800 0.00000000 0.00000000 0.60964807 -0.05538437 2.63573400
9 -4.75110800 -0.69449800 0.83058000 0.09867000 -0.25159700 0.19662700
10 -1.68806800 0.00004700 -0.00003100 0.02047000 -0.01392100 0.46709800
11 -1.33614000 0.00005500 -0.00001000 0.02592200 0.00450900 0.38004900
12 -4.82049400 -0.50946400 -0.22475900 -0.56796800 -0.16537000 1.30383200
13 -1.82698400 -0.00006900 0.00000800 -0.01701100 0.03669500 0.83864200
14 -1.43656900 0.00000400 0.00000300 -0.04748700 -0.06156900 0.56561900
15 -3.99235700 -0.89119100 -1.82790900 -0.74478100 0.28987300 1.61467300
16 -1.40591800 -0.00002500 -0.00000200 0.01654100 -0.02437900 0.27905000
17 -1.17535800 0.00012600 -0.00001900 0.04192500 0.05340800 0.56994100
18 -4.52675100 -0.69058000 -1.12074100 -0.69995800 0.07369700 1.53725200
19 -1.74403800 0.00003200 -0.00000800 -0.00970500 -0.02790700 0.74532400
20 -1.36877100 0.00002300 0.00000200 -0.21896200 0.09890700 0.33870000
21 -1.87479600 -0.93512500 0.99917500 2.07952100 0.45181600 1.10761900
22 -1.52344700 0.00003100 0.00003100 0.08916000 0.16635800 0.50489700
23 -1.59928500 0.00001100 0.00001500 0.03567100 -0.02383000 0.56873300
24 5.58312300 0.11572400 0.29499900 1.94756400 -0.06728900 3.12123600
25 0.19684600 -0.00000200 0.00000300 2.79340696 -0.00030983 -3.14151456
26 -1.43581100 -17.57755700 -4.21693500 1.97586200 1.15991000 1.84280300
27 6.21448600 0.00000800 0.00001900 -0.81050639 0.67916056 -1.88420838
28 11.94488800 -0.00003100 -0.00020000 -0.84119845 -0.30897602 -2.10826195
29 10.62016500 0.00000200 0.00000600 -1.53807029 -1.17441601 -0.23162203
30 4.75115800 0.69437400 -0.83047400 0.14397000 -0.33108800 0.58896000
31 1.68806500 -0.00002200 0.00000200 -0.00086800 -0.02473300 1.47304200
32 1.33615100 -0.00005100 -0.00000900 0.02234800 -0.03160000 -0.24592200
33 4.82051500 0.50933800 0.22486600 -0.12917500 -0.40396700 0.93397600
34 1.82699200 0.00006600 0.00001000 0.01510100 0.03754700 1.65575300
35 1.43658100 -0.00000600 0.00001000 0.01503200 0.00167500 -0.83651700
36 3.99235300 0.89108700 1.82799300 -0.39506600 -0.20724300 1.29222200
37 1.40592600 0.00003100 -0.00000300 -0.01421100 -0.02586600 1.37541000
38 1.17536200 -0.00013200 0.00000100 -0.07487300 0.09798600 -0.69969900
39 4.52675800 0.69046400 1.12084300 -0.34426000 -0.26332200 1.27150500
40 1.74404100 -0.00003100 -0.00000200 -0.02639200 -0.01328600 1.51729600
41 1.36876700 -0.00003100 -0.00001800 -0.12191500 0.10180800 -1.06387600
42 2.18329600 1.23038600 -0.71401000 1.82374500 0.74329300 0.26353100
43 1.62285600 -0.22039800 -0.15537300 -0.00960300 -0.07236600 0.19987900
44 1.58379400 -0.15422000 0.02523000 0.04524000 0.07017700 -0.17056300
45 5.51180600 -0.00000200 0.00000300 -0.85022300 0.00000000 0.00000000
46 0.19684900 0.00000300 -0.00000100 -0.34822500 0.00001500 -0.00000200
47 0.00000000 0.00000000 0.00000000 0.00000000 0.00000000 -1.57079600
48 -3.46189900 2.90101600 -3.24579200 0.00000000 0.00000000 -3.14156200
49 -7.67913803 19.96995358 -0.83699191 0.45815284 0.18634729 -0.53835054
50 -0.15910500 0.02305100 -0.34200700 0.00000000 0.00000000 0.00000000
51 0.16895700 -0.03358900 0.65100600 0.00000000 0.00000000 0.00000000
52 0.24801400 0.17628700 -0.04521800 0.00000000 0.00000000 0.00000000
53 4.99699000 -0.07961600 -1.51780000 0.00000000 0.00000000 0.00000000
54 0.63391900 0.60768000 0.83129200 0.00000000 0.00000000 0.00000000
55 -0.29897900 -0.62533200 0.49585200 0.00000000 0.00000000 0.00000000
56 12.35473100 2.04594700 -2.16981400 -0.36469000 1.33603000 1.32869100
57 -2.47305200 -2.40758400 -2.13814300 2.94762400 1.25576900 -2.60506400
58 2.04895400 -0.03391300 -1.46330700 0.00000000 0.00000000 0.00000000
time 11
0 -0.00000100 7.45008900 -27.50902600 0.00000000 0.00000000 0.00003100
1 -0.00000200 0.00000000 0.00000000 1.57074700 -1.56714200 -1.57074700
2 4.25546600 -0.33518300 -0.00000200 0.00000000 0.00000000 -0.12484800
3 7.43125000 1.49647900 0.00000200 0.00000000 0.00000000 0.24545000
4 5.27847900 0.16554400 0.00000100 0.00000000 0.00000000 0.04851100
5 -1.55513300 -12.98710000 6.19450300 1.97586500 1.15990900 -1.29878600
6 -6.21447800 -0.00000900 -0.00002600 2.93497606 0.04891956 1.68795395
7 11.94488500 0.00000000 0.00000000 0.19801316 -0.33176566 1.94992385
8 10.62018800 0.00000000 0.00000000 0.60621579 -0.01604039 2.73162667
9 -4.75110800 -0.69449800 0.83058000 0.09867000 -0.25159700 0.19662700
10 -1.68806800 0.00004700 -0.00003100 0.02047000 -0.01392100 0.46709800
11 -1.33614000 0.00005500 -0.00001000 0.02592200 0.00450900 0.38004900
12 -4.82049400 -0.50946400 -0.22475900 -0.56796800 -0.16537000 1.30383200
13 -1.82698400 -0.00006900 0.00000800 -0.01701100 0.03669500 0.83864200
14 -1.43656900 0.00000400 0.00000300 -0.04748700 -0.06156900 0.56561900
15 -3.99235700 -0.89119100 -1.82790900 -0.74478100 0.28987300 1.61467300
16 -1.40591800 -0.00002500 -0.00000200 0.01654100 -0.02437900 0.27905000
17 -1.17535800 0.00012600 -0.00001900 0.04192500 0.05340800 0.56994100
18 -4.52675100 -0.69058000 -1.12074100 -0.69995800 0.07369700 1.53725200
19 -1.74403800 0.00003200 -0.00000800 -0.00970500 -0.02790700 0.74532400
20 -1.36877100 0.00002300 0.00000200 -0.21896200 0.09890700 0.33870000
21 -1.87479600 -0.93512500 0.99917500 2.07952100 0.45181600 1.10761900
22 -1.52344700 0.00003100 0.00003100 0.08916000 0.16635800 0.50489700
23 -1.59928500 0.00001100 0.00001500 0.03567100 -0.02383000 0.56873300
24 5.58312300 0.11572400 0.29499900 1.94756400 -0.06728900 3.12123600
25 0.19684600 -0.00000200 0.00000300 2.79340696 -0.00030983 -3.14151456
26 -1.43581100 -17.57755700 -4.21693500 1.97586200 1.15991000 1.84280300
27 6.21448600 0.00000800 0.00001900 -0.82881066 0.67779142 -1.88549244
28 11.94488800 -0.00003100 -0.00020000 -0.83473158 -0.30619656 -2.12976278
29 10.62016500 0.00000200 0.00000600 -1.39904675 -1.16357937 -0.32721067
30 4.75115800 0.69437400 -0.83047400 0.14397000 -0.33108800 0.58896000
31 1.68806500 -0.00002200 0.00000200 -0.00086800 -0.02473300 1.47304200
32 1.33615100 -0.00005100 -0.00000900 0.02234800 -0.03160000 -0.24592200
33 4.82051500 0.50933800 0.22486600 -0.12917500 -0.40396700 0.93397600
34 1.82699200 0.00006600 0.00001000 0.01510100 0.03754700 1.65575300
35 1.43658100 -0.00000600 0.00001000 0.01503200 0.00167500 -0.83651700
36 3.99235300 0.89108700 1.82799300 -0.39506600 -0.20724300 1.29222200
37 1.40592600 0.00003100 -0.00000300 -0.01421100 -0.02586600 1.37541000
38 1.17536200 -0.00013200 0.00000100 -0.07487300 0.09798600 -0.69969900
39 4.52675800 0.69046400 1.12084300 -0.34426000 -0.26332200 1.27150500
40 1.74404100 -0.00003100 -0.00000200 -0.02639200 -0.01328600 1.51729600
41 1.36876700 -0.00003100 -0.00001800 -0.12191500 0.10180800 -1.06387600
42 2.18329600 1.23038600 -0.71401000 1.82374500 0.74329300 0.26353100
43 1.62285600 -0.22039800 -0.15537300 -0.00960300 -0.07236600 0.19987900
44 1.58379400 -0.15422000 0.02523000 0.04524000 0.07017700 -0.17056300
45 5.51180600 -0.00000200 0.00000300 -0.85022300 0.00000000 0.00000000
46 0.19684900 0.00000300 -0.00000100 -0.34822500 0.00001500 -0.00000200
47 0.00000000 0.00000000 0.00000000 0.00000000 0.00000000 -1.57079600
48 -3.46189900 2.90101600 -3.24579200 0.00000000 0.00000000 -3.14156200
49 -7.81841303 19.93854558 -0.81696885 0.46395454 0.20468371 -0.47614857
50 -0.15910500 0.02305100 -0.34200700 0.00000000 0.00000000 0.00000000
51 0.16895700 -0.03358900 0.65100600 0.00000000 0.00000000 0.00000000
52 0.24801400 0.17628700 -0.04521800 0.00000000 0.00000000 0.00000000
53 4.99699000 -0.07961600 -1.51780000 0.00000000 0.00000000 0.00000000
54 0.63391900 0.60768000 0.83129200 0.00000000 0.00000000 0.00000000
55 -0.29897900 -0.62533200 0.49585200 0.00000000 0.00000000 0.00000000
56 12.35474600 2.04595300 -2.16982300 -0.36469000 1.33603000 1.32869100
57 -2.47306600 -2.40734000 -2.13802200 2.94762400 1.25576900 -2.60506400
58 2.04895400 -0.03391300 -1.46330700 0.00000000 0.00000000 0.00000000
time 12
0 -0.00000100 7.45008900 -27.50902600 0.00000000 0.00000000 0.00003100
1 -0.00000200 0.00000000 0.00000000 1.57074700 -1.56714200 -1.57074700
2 4.25546600 -0.33518300 -0.00000200 0.00000000 0.00000000 -0.12484800
3 7.43125000 1.49647900 0.00000200 0.00000000 0.00000000 0.24545000
4 5.27847900 0.16554400 0.00000100 0.00000000 0.00000000 0.04851100
5 -1.64873900 -13.09409500 6.31045700 1.97586500 1.15990900 -1.29878600
6 -6.21447800 -0.00000900 -0.00002600 2.90133523 0.06394284 1.67956033
7 11.94488500 0.00000000 0.00000000 0.22459117 -0.33710448 1.90383902
8 10.62018800 0.00000000 0.00000000 0.59984989 0.01459997 2.82365786
9 -4.75110800 -0.69449800 0.83058000 0.09867000 -0.25159700 0.19662700
10 -1.68806800 0.00004700 -0.00003100 0.02047000 -0.01392100 0.46709800
11 -1.33614000 0.00005500 -0.00001000 0.02592200 0.00450900 0.38004900
12 -4.82049400 -0.50946400 -0.22475900 -0.56796800 -0.16537000 1.30383200
13 -1.82698400 -0.00006900 0.00000800 -0.01701100 0.03669500 0.83864200
14 -1.43656900 0.00000400 0.00000300 -0.04748700 -0.06156900 0.56561900
15 -3.99235700 -0.89119100 -1.82790900 -0.74478100 0.28987300 1.61467300
16 -1.40591800 -0.00002500 -0.00000200 0.01654100 -0.02437900 0.27905000
17 -1.17535800 0.00012600 -0.00001900 0.04192500 0.05340800 0.56994100
18 -4.52675100 -0.69058000 -1.12074100 -0.69995800 0.07369700 1.53725200
19 -1.74403800 0.00003200 -0.00000800 -0.00970500 -0.02790700 0.74532400
20 -1.36877100 0.00002300 0.00000200 -0.21896200 0.09890700 0.33870000
21 -1.87479600 -0.93512500 0.99917500 2.07952100 0.45181600 1.10761900
22 -1.52344700 0.00003100 0.00003100 0.08916000 0.16635800 0.50489700
23 -1.59928500 0.00001100 0.00001500 0.03567100 -0.02383000 0.56873300
24 5.58312300 0.11572400 0.29499900 1.94756400 -0.06728900 3.12123600
25 0.19684600 -0.00000200 0.00000300 2.79340696 -0.00030983 -3.14151456
26 -1.43581100 -17.57755700 -4.21693500 1.97586200 1.15991000 1.84280300
27 6.21448600 0.00000800 0.00001900 -0.83947754 0.67347270 -1.88917516
28 11.94488800 -0.00003100 -0.00020000 -0.83079690 -0.30455600 -2.14328732
29 10.62016500 0.00000200 0.00000600 -1.29299792 -1.15066263 -0.39643143
30 4.75115800 0.69437400 -0.83047400 0.14397000 -0.33108800 0.58896000
31 1.68806500 -0.00002200 0.00000200 -0.00086800 -0.02473300 1.47304200
32 1.33615100 -0.00005100 -0.00000900 0.02234800 -0.03160000 -0.24592200
33 4.82051500 0.50933800 0.22486600 -0.12917500 -0.40396700 0.93397600
34 1.82699200 0.00006600 0.00001000 0.01510100 0.03754700 1.65575300
35 1.43658100 -0.00000600 0.00001000 0.01503200 0.00167500 -0.83651700
36 3.99235300 0.89108700 1.82799300 -0.39506600 -0.20724300 1.29222200
37 1.40592600 0.00003100 -0.00000300 -0.01421100 -0.02586600 1.37541000
38 1.17536200 -0.00013200 0.00000100 -0.07487300 0.09798600 -0.69969900
39 4.52675800 0.69046400 1.12084300 -0.34426000 -0.26332200 1.27150500
40 1.74404100 -0.00003100 -0.00000200 -0.02639200 -0.01328600 1.51729600
41 1.36876700 -0.00003100 -0.00001800 -0.12191500 0.10180800 -1.06387600
42 2.18329600 1.23038600 -0.71401000 1.82374500 0.74329300 0.26353100
43 1.62285600 -0.22039800 -0.15537300 -0.00960300 -0.07236600 0.19987900
44 1.58379400 -0.15422000 0.02523000 0.04524000 0.07017700 -0.17056300
45 5.51180600 -0.00000200 0.00000300 -0.85022300 0.00000000 0.00000000
46 0.19684900 0.00000300 -0.00000100 -0.34822500 0.00001500 -0.00000200
47 0.00000000 0.00000000 0.00000000 0.00000000 0.00000000 -1.57079600
48 -3.46189900 2.90101600 -3.24579200 0.00000000 0.00000000 -3.14156200
49 -7.86109963 19.91949458 -0.79613639 0.46650373 0.22369002 -0.43003989
50 -0.15910500 0.02305100 -0.34200700 0.00000000 0.00000000 0.00000000
51 0.16895700 -0.03358900 0.65100600 0.00000000 0.00000000 0.00000000
52 0.24801400 0.17628700 -0.04521800 0.00000000 0.00000000 0.00000000
53 4.99699000 -0.07961600 -1.51780000 0.00000000 0.00000000 0.00000000
54 0.63391900 0.60768000 0.83129200 0.00000000 0.00000000 0.00000000
55 -0.29897900 -0.62533200 0.49585200 0.00000000 0.00000000 0.00000000
56 12.35476300 2.04594600 -2.16982700 -0.36469000 1.33603000 1.32869100
57 -2.47307000 -2.40718200 -2.13792200 2.94762400 1.25576900 -2.60506400
58 2.04895400 -0.03391300 -1.46330700 0.00000000 0.00000000 0.00000000
time 13
0 -0.00000100 7.45008900 -27.50902600 0.00000000 0.00000000 0.00003100
1 -0.00000200 0.00000000 0.00000000 1.57074700 -1.56714200 -1.57074700
2 4.25546600 -0.33518300 -0.00000200 0.00000000 0.00000000 -0.12484800
3 7.43125000 1.49647900 0.00000200 0.00000000 0.00000000 0.24545000
4 5.27847900 0.16554400 0.00000100 0.00000000 0.00000000 0.04851100
5 -1.64873900 -13.09409500 6.31045700 1.97586500 1.15990900 -1.29878600
6 -6.21447800 -0.00000900 -0.00002600 2.87093911 0.06972188 1.67815893
7 11.94488500 0.00000000 0.00000000 0.23647792 -0.34072519 1.86734712
8 10.62018800 0.00000000 0.00000000 0.58823388 0.04222671 2.89896666
9 -4.75110800 -0.69449800 0.83058000 0.09867000 -0.25159700 0.19662700
10 -1.68806800 0.00004700 -0.00003100 0.02047000 -0.01392100 0.46709800
11 -1.33614000 0.00005500 -0.00001000 0.02592200 0.00450900 0.38004900
12 -4.82049400 -0.50946400 -0.22475900 -0.56796800 -0.16537000 1.30383200
13 -1.82698400 -0.00006900 0.00000800 -0.01701100 0.03669500 0.83864200
14 -1.43656900 0.00000400 0.00000300 -0.04748700 -0.06156900 0.56561900
15 -3.99235700 -0.89119100 -1.82790900 -0.74478100 0.28987300 1.61467300
16 -1.40591800 -0.00002500 -0.00000200 0.01654100 -0.02437900 0.27905000
17 -1.17535800 0.00012600 -0.00001900 0.04192500 0.05340800 0.56994100
18 -4.52675100 -0.69058000 -1.12074100 -0.69995800 0.07369700 1.53725200
19 -1.74403800 0.00003200 -0.00000800 -0.00970500 -0.02790700 0.74532400
20 -1.36877100 0.00002300 0.00000200 -0.21896200 0.09890700 0.33870000
21 -1.87479600 -0.93512500 0.99917500 2.07952100 0.45181600 1.10761900
22 -1.52344700 0.00003100 0.00003100 0.08916000 0.16635800 0.50489700
23 -1.59928500 0.00001100 0.00001500 0.03567100 -0.02383000 0.56873300
24 5.58312300 0.11572400 0.29499900 1.94756400 -0.06728900 3.12123600
25 0.19684600 -0.00000200 0.00000300 2.79340696 -0.00030983 -3.14151456
26 -1.43581100 -17.57755700 -4.21693500 1.97586200 1.15991000 1.84280300
27 6.21448600 0.00000800 0.00001900 -0.84777223 0.66733261 -1.89336951
28 11.94488800 -0.00003100 -0.00020000 -0.82818612 -0.30305007 -2.15212457
29 10.62016500 0.00000200 0.00000600 -1.21931717 -1.14236573 -0.43510246
30 4.75115800 0.69437400 -0.83047400 0.14397000 -0.33108800 0.58896000
31 1.68806500 -0.00002200 0.00000200 -0.00086800 -0.02473300 1.47304200
32 1.33615100 -0.00005100 -0.00000900 0.02234800 -0.03160000 -0.24592200
33 4.82051500 0.50933800 0.22486600 -0.12917500 -0.40396700 0.93397600
34 1.82699200 0.00006600 0.00001000 0.01510100 0.03754700 1.65575300
35 1.43658100 -0.00000600 0.00001000 0.01503200 0.00167500 -0.83651700
36 3.99235300 0.89108700 1.82799300 -0.39506600 -0.20724300 1.29222200
37 1.40592600 0.00003100 -0.00000300 -0.01421100 -0.02586600 1.37541000
38 1.17536200 -0.00013200 0.00000100 -0.07487300 0.09798600 -0.69969900
39 4.52675800 0.69046400 1.12084300 -0.34426000 -0.26332200 1.27150500
40 1.74404100 -0.00003100 -0.00000200 -0.02639200 -0.01328600 1.51729600
41 1.36876700 -0.00003100 -0.00001800 -0.12191500 0.10180800 -1.06387600
42 2.18329600 1.23038600 -0.71401000 1.82374500 0.74329300 0.26353100
43 1.62285600 -0.22039800 -0.15537300 -0.00960300 -0.07236600 0.19987900
44 1.58379400 -0.15422000 0.02523000 0.04524000 0.07017700 -0.17056300
45 5.51180600 -0.00000200 0.00000300 -0.85022300 0.00000000 0.00000000
46 0.19684900 0.00000300 -0.00000100 -0.34822500 0.00001500 -0.00000200
47 0.00000000 0.00000000 0.00000000 0.00000000 0.00000000 -1.57079600
48 -3.46189900 2.90101600 -3.24579200 0.00000000 0.00000000 -3.14156200
49 -7.86727351 19.90971158 -0.77129233 0.46289042 0.24201656 -0.39869097
50 -0.15910500 0.02305100 -0.34200700 0.00000000 0.00000000 0.00000000
51 0.16895700 -0.03358900 0.65100600 0.00000000 0.00000000 0.00000000
52 0.24801400 0.17628700 -0.04521800 0.00000000 0.00000000 0.00000000
53 4.99699000 -0.07961600 -1.51780000 0.00000000 0.00000000 0.00000000
54 0.63391900 0.60768000 0.83129200 0.00000000 0.00000000 0.00000000
55 -0.29897900 -0.62533200 0.49585200 0.00000000 0.00000000 0.00000000
56 12.35477600 2.04594600 -2.16982900 -0.36469000 1.33603000 1.32869100
57 -2.47252800 -2.40925000 -2.13846300 2.94762400 1.25576900 -2.60506400
58 2.04895400 -0.03391300 -1.46330700 0.00000000 0.00000000 0.00000000
time 14
0 -0.00000100 7.45008900 -27.50902600 0.00000000 0.00000000 0.00003100
1 -0.00000200 0.00000000 0.00000000 1.57074700 -1.56714200 -1.57074700
2 4.25546600 -0.33518300 -0.00000200 0.00000000 0.00000000 -0.12484800
3 7.43125000 1.49647900 0.00000200 0.00000000 0.00000000 0.24545000
4 5.27847900 0.16554400 0.00000100 0.00000000 0.00000000 0.04851100
5 -1.64873900 -13.09409500 6.31045700 1.97586500 1.15990900 -1.29878600
6 -6.21447800 -0.00000900 -0.00002600 2.84635223 0.07234500 1.67550478
7 11.94488500 0.00000000 0.00000000 0.24367311 -0.34253969 1.84551515
8 10.62018800 0.00000000 0.00000000 0.57410495 0.06976653 2.94582275
9 -4.75110800 -0.69449800 0.83058000 0.09867000 -0.25159700 0.19662700
10 -1.68806800 0.00004700 -0.00003100 0.02047000 -0.01392100 0.46709800
11 -1.33614000 0.00005500 -0.00001000 0.02592200 0.00450900 0.38004900
12 -4.82049400 -0.50946400 -0.22475900 -0.56796800 -0.16537000 1.30383200
13 -1.82698400 -0.00006900 0.00000800 -0.01701100 0.03669500 0.83864200
14 -1.43656900 0.00000400 0.00000300 -0.04748700 -0.06156900 0.56561900
15 -3.99235700 -0.89119100 -1.82790900 -0.74478100 0.28987300 1.61467300
16 -1.40591800 -0.00002500 -0.00000200 0.01654100 -0.02437900 0.27905000
17 -1.17535800 0.00012600 -0.00001900 0.04192500 0.05340800 0.56994100
18 -4.52675100 -0.69058000 -1.12074100 -0.69995800 0.07369700 1.53725200
19 -1.74403800 0.00003200 -0.00000800 -0.00970500 -0.02790700 0.74532400
20 -1.36877100 0.00002300 0.00000200 -0.21896200 0.09890700 0.33870000
21 -1.87479600 -0.93512500 0.99917500 2.07952100 0.45181600 1.10761900
22 -1.52344700 0.00003100 0.00003100 0.08916000 0.16635800 0.50489700
23 -1.59928500 0.00001100 0.00001500 0.03567100 -0.02383000 0.56873300
24 5.58312300 0.11572400 0.29499900 1.94756400 -0.06728900 3.12123600
25 0.19684600 -0.00000200 0.00000300 2.79340696 -0.00030983 -3.14151456
26 -1.43581100 -17.57755700 -4.21693500 1.97586200 1.15991000 1.84280300
27 6.21448600 0.00000800 0.00001900 -0.85482114 0.66013320 -1.89695722
28 11.94488800 -0.00003100 -0.00020000 -0.82658160 -0.30110185 -2.15761953
29 10.62016500 0.00000200 0.00000600 -1.16974811 -1.14226081 -0.45132937
30 4.75115800 0.69437400 -0.83047400 0.14397000 -0.33108800 0.58896000
31 1.68806500 -0.00002200 0.00000200 -0.00086800 -0.02473300 1.47304200
32 1.33615100 -0.00005100 -0.00000900 0.02234800 -0.03160000 -0.24592200
33 4.82051500 0.50933800 0.22486600 -0.12917500 -0.40396700 0.93397600
34 1.82699200 0.00006600 0.00001000 0.01510100 0.03754700 1.65575300
35 1.43658100 -0.00000600 0.00001000 0.01503200 0.00167500 -0.83651700
36 3.99235300 0.89108700 1.82799300 -0.39506600 -0.20724300 1.29222200
37 1.40592600 0.00003100 -0.00000300 -0.01421100 -0.02586600 1.37541000
38 1.17536200 -0.00013200 0.00000100 -0.07487300 0.09798600 -0.69969900
39 4.52675800 0.69046400 1.12084300 -0.34426000 -0.26332200 1.27150500
40 1.74404100 -0.00003100 -0.00000200 -0.02639200 -0.01328600 1.51729600
41 1.36876700 -0.00003100 -0.00001800 -0.12191500 0.10180800 -1.06387600
42 2.18329600 1.23038600 -0.71401000 1.82374500 0.74329300 0.26353100
43 1.62285600 -0.22039800 -0.15537300 -0.00960300 -0.07236600 0.19987900
44 1.58379400 -0.15422000 0.02523000 0.04524000 0.07017700 -0.17056300
45 5.51180600 -0.00000200 0.00000300 -0.85022300 0.00000000 0.00000000
46 0.19684900 0.00000300 -0.00000100 -0.34822500 0.00001500 -0.00000200
47 0.00000000 0.00000000 0.00000000 0.00000000 0.00000000 -1.57079600
48 -3.46189900 2.90101600 -3.24579200 0.00000000 0.00000000 -3.14156200
49 -7.85839245 19.90610658 -0.74753472 0.45213322 0.25800870 -0.38002865
50 -0.15910500 0.02305100 -0.34200700 0.00000000 0.00000000 0.00000000
51 0.16895700 -0.03358900 0.65100600 0.00000000 0.00000000 0.00000000
52 0.24801400 0.17628700 -0.04521800 0.00000000 0.00000000 0.00000000
53 4.99699000 -0.07961600 -1.51780000 0.00000000 0.00000000 0.00000000
54 0.63391900 0.60768000 0.83129200 0.00000000 0.00000000 0.00000000
55 -0.29897900 -0.62533200 0.49585200 0.00000000 0.00000000 0.00000000
56 12.35478700 2.04594100 -2.16982700 -0.36469000 1.33603000 1.32869100
57 -2.47252700 -2.40924300 -2.13845100 2.94762400 1.25576900 -2.60506400
58 2.04895400 -0.03391300 -1.46330700 0.00000000 0.00000000 0.00000000
time 15
0 -0.00000100 7.45008900 -27.50902600 0.00000000 0.00000000 0.00003100
1 -0.00000200 0.00000000 0.00000000 1.57074700 -1.56714200 -1.57074700
2 4.25546600 -0.33518300 -0.00000200 0.00000000 0.00000000 -0.12484800
3 7.43125000 1.49647900 0.00000200 0.00000000 0.00000000 0.24545000
4 5.27847900 0.16554400 0.00000100 0.00000000 0.00000000 0.04851100
5 -1.64873900 -13.09409500 6.31045700 1.97586500 1.15990900 -1.29878600
6 -6.21447800 -0.00000900 -0.00002600 2.83408670 0.07233371 1.67427142
7 11.94488500 0.00000000 0.00000000 0.24640391 -0.34279873 1.83748749
8 10.62018800 0.00000000 0.00000000 0.56398269 0.08634656 2.96508495
9 -4.75110800 -0.69449800 0.83058000 0.09867000 -0.25159700 0.19662700
10 -1.68806800 0.00004700 -0.00003100 0.02047000 -0.01392100 0.46709800
11 -1.33614000 0.00005500 -0.00001000 0.02592200 0.00450900 0.38004900
12 -4.82049400 -0.50946400 -0.22475900 -0.56796800 -0.16537000 1.30383200
13 -1.82698400 -0.00006900 0.00000800 -0.01701100 0.03669500 0.83864200
14 -1.43656900 0.00000400 0.00000300 -0.04748700 -0.06156900 0.56561900
15 -3.99235700 -0.89119100 -1.82790900 -0.74478100 0.28987300 1.61467300
16 -1.40591800 -0.00002500 -0.00000200 0.01654100 -0.02437900 0.27905000
17 -1.17535800 0.00012600 -0.00001900 0.04192500 0.05340800 0.56994100
18 -4.52675100 -0.69058000 -1.12074100 -0.69995800 0.07369700 1.53725200
19 -1.74403800 0.00003200 -0.00000800 -0.00970500 -0.02790700 0.74532400
20 -1.36877100 0.00002300 0.00000200 -0.21896200 0.09890700 0.33870000
21 -1.87479600 -0.93512500 0.99917500 2.07952100 0.45181600 1.10761900
22 -1.52344700 0.00003100 0.00003100 0.08916000 0.16635800 0.50489700
23 -1.59928500 0.00001100 0.00001500 0.03567100 -0.02383000 0.56873300
24 5.58312300 0.11572400 0.29499900 1.94756400 -0.06728900 3.12123600
25 0.19684600 -0.00000200 0.00000300 2.79340696 -0.00030983 -3.14151456
26 -1.43581100 -17.57755700 -4.21693500 1.97586200 1.15991000 1.84280300
27 6.21448600 0.00000800 0.00001900 -0.85886139 0.65485201 -1.89901786
28 11.94488800 -0.00003100 -0.00020000 -0.82601596 -0.29922699 -2.15983123
29 10.62016500 0.00000200 0.00000600 -1.14507951 -1.14649626 -0.45506695
30 4.75115800 0.69437400 -0.83047400 0.14397000 -0.33108800 0.58896000
31 1.68806500 -0.00002200 0.00000200 -0.00086800 -0.02473300 1.47304200
32 1.33615100 -0.00005100 -0.00000900 0.02234800 -0.03160000 -0.24592200
33 4.82051500 0.50933800 0.22486600 -0.12917500 -0.40396700 0.93397600
34 1.82699200 0.00006600 0.00001000 0.01510100 0.03754700 1.65575300
35 1.43658100 -0.00000600 0.00001000 0.01503200 0.00167500 -0.83651700
36 3.99235300 0.89108700 1.82799300 -0.39506600 -0.20724300 1.29222200
37 1.40592600 0.00003100 -0.00000300 -0.01421100 -0.02586600 1.37541000
38 1.17536200 -0.00013200 0.00000100 -0.07487300 0.09798600 -0.69969900
39 4.52675800 0.69046400 1.12084300 -0.34426000 -0.26332200 1.27150500
40 1.74404100 -0.00003100 -0.00000200 -0.02639200 -0.01328600 1.51729600
41 1.36876700 -0.00003100 -0.00001800 -0.12191500 0.10180800 -1.06387600
42 2.18329600 1.23038600 -0.71401000 1.82374500 0.74329300 0.26353100
43 1.62285600 -0.22039800 -0.15537300 -0.00960300 -0.07236600 0.19987900
44 1.58379400 -0.15422000 0.02523000 0.04524000 0.07017700 -0.17056300
45 5.51180600 -0.00000200 0.00000300 -0.85022300 0.00000000 0.00000000
46 0.19684900 0.00000300 -0.00000100 -0.34822500 0.00001500 -0.00000200
47 0.00000000 0.00000000 0.00000000 0.00000000 0.00000000 -1.57079600
48 -3.46189900 2.90101600 -3.24579200 0.00000000 0.00000000 -3.14156200
49 -7.84268700 19.90559158 -0.73002085 0.44190527 0.26726212 -0.37297005
50 -0.15910500 0.02305100 -0.34200700 0.00000000 0.00000000 0.00000000
51 0.16895700 -0.03358900 0.65100600 0.00000000 0.00000000 0.00000000
52 0.24801400 0.17628700 -0.04521800 0.00000000 0.00000000 0.00000000
53 4.99699000 -0.07961600 -1.51780000 0.00000000 0.00000000 0.00000000
54 0.63391900 0.60768000 0.83129200 0.00000000 0.00000000 0.00000000
55 -0.29897900 -0.62533200 0.49585200 0.00000000 0.00000000 0.00000000
56 12.35479000 2.04594300 -2.16982700 -0.36469000 1.33603000 1.32869100
57 -2.47253200 -2.40923600 -2.13844200 2.94762400 1.25576900 -2.60506400
58 2.04895400 -0.03391300 -1.46330700 0.00000000 0.00000000 0.00000000
end
