version 1
nodes
0 "root" -1
1 "pelvis" 0
2 "spine_01" 1
3 "spine_02" 2
4 "spine_03" 3
5 "clavicle_r" 4
6 "upperarm_r" 5
7 "lowerarm_r" 6
8 "hand_r" 7
9 "index_01_r" 8
10 "index_02_r" 9
11 "index_03_r" 10
12 "middle_01_r" 8
13 "middle_02_r" 12
14 "middle_03_r" 13
15 "pinky_01_r" 8
16 "pinky_02_r" 15
17 "pinky_03_r" 16
18 "ring_01_r" 8
19 "ring_02_r" 18
20 "ring_03_r" 19
21 "thumb_01_r" 8
22 "thumb_02_r" 21
23 "thumb_03_r" 22
24 "lowerarm_twist_01_r" 7
25 "upperarm_twist_01_r" 6
26 "clavicle_l" 4
27 "upperarm_l" 26
28 "lowerarm_l" 27
29 "hand_l" 28
30 "index_01_l" 29
31 "index_02_l" 30
32 "index_03_l" 31
33 "middle_01_l" 29
34 "middle_02_l" 33
35 "middle_03_l" 34
36 "pinky_01_l" 29
37 "pinky_02_l" 36
38 "pinky_03_l" 37
39 "ring_01_l" 29
40 "ring_02_l" 39
41 "ring_03_l" 40
42 "thumb_01_l" 29
43 "thumb_02_l" 42
44 "thumb_03_l" 43
45 "lowerarm_twist_01_l" 28
46 "upperarm_twist_01_l" 27
47 "cam_driver" -1
48 "BaseRoot" -1
49 "Base" 48
50 "rhand_ikTarget" 49
51 "Trigger" 49
52 "Hammer" 49
53 "TriggerReset" 49
54 "Mag" 49
55 "lhand_ikTarget" 49
end
skeleton
time 0
0 -0.00000100 7.45008900 -27.50902600 0.00000000 0.00000000 0.00003100
1 -0.00000200 0.00000000 0.00000000 1.57074300 -1.56713700 -1.57074300
2 4.25546800 -0.33518300 -0.00000200 0.00000000 0.00000000 -0.12484800
3 7.43124800 1.49647700 0.00000200 0.00000000 0.00000000 0.24545000
4 5.27847900 0.16554100 0.00000100 0.00000000 0.00000000 0.04851100
5 -3.28180462 -16.32654700 4.10282553 1.97586400 1.15990900 -1.29878600
6 -6.21448200 -0.00000700 -0.00002700 3.07291992 -0.77428659 1.66364649
7 11.94488200 0.00000000 0.00000100 -0.00914650 -0.25741678 2.13385616
8 10.62018100 0.00000200 0.00000000 1.27818526 0.26357604 2.86926460
9 -4.75110600 -0.69449400 0.83057700 -0.17739400 0.01599100 0.22108400
10 -1.68806800 0.00004600 -0.00003200 0.00457900 -0.02430400 1.25266100
11 -1.33614000 0.00005700 -0.00001200 0.02629800 -0.00107200 0.59212700
12 -4.82049400 -0.50946000 -0.22475900 -0.29384300 0.04878100 0.68958600
13 -1.82699200 -0.00006400 0.00000600 -0.00597100 0.04001900 1.12661300
14 -1.43657300 0.00000600 0.00000200 -0.06657600 -0.04031800 0.93461100
15 -3.99235500 -0.89118800 -1.82790900 -0.52215700 0.10628100 1.00838100
16 -1.40591800 -0.00002500 -0.00000300 -0.00793500 -0.02837500 1.14618500
17 -1.17535800 0.00012800 -0.00002000 0.06208200 0.02754600 1.05720900
18 -4.52675100 -0.69057500 -1.12074400 -0.41778200 0.08544600 1.18122300
19 -1.74403800 0.00003300 -0.00000800 -0.02502400 -0.01570900 1.42133100
20 -1.36877100 0.00002500 0.00000200 0.03357100 0.04032700 0.59071800
21 -1.91873446 -1.31984500 0.85662654 2.02384700 0.10197800 0.98895100
22 -1.62789215 0.15474785 0.01182685 -0.20199600 -0.08390500 0.59871700
23 -1.59928500 0.00000400 0.00001600 0.02557400 -0.03449400 0.91320200
24 5.51181500 0.00000800 -0.00000100 2.08521182 0.00057264 3.14130296
25 0.68299400 0.03595600 0.57798300 2.79340784 -0.00094428 -3.14132407
26 -2.92786500 -14.59732400 1.96421200 1.97586200 1.15990900 1.84280300
27 6.21448500 0.00000600 0.00002000 -0.75795939 0.56376255 -1.40886154
28 11.94488500 -0.00002900 -0.00019400 -0.26351596 -0.42065574 -1.63893018
29 10.62016600 0.00000200 0.00001000 -1.11979256 -0.67424103 0.24570293
30 4.75115600 0.69437600 -0.83047300 -0.17093900 -0.06480100 1.29897400
31 1.68806500 -0.00002600 0.00000200 0.00336200 -0.02449300 1.30290100
32 1.33615100 -0.00005100 -0.00000900 0.00799700 -0.03789800 0.16278400
33 4.82051300 0.50934000 0.22486500 -0.24420100 0.05267900 1.58206000
34 1.82699600 0.00006600 0.00000800 -0.01686069 0.03682715 0.84490265
35 1.43657700 -0.00001000 0.00000700 0.00412400 -0.01459100 0.56514400
36 3.99235300 0.89108700 1.82799400 -0.37865700 0.12332300 1.31184400
37 1.40591800 0.00002100 -0.00000700 0.00198400 -0.02939200 0.80822100
38 1.17536900 -0.00013100 0.00000200 0.10534000 0.06405800 0.98153900
39 4.52675600 0.69046000 1.12084200 -0.32139500 0.15846600 1.65825200
40 1.74404100 -0.00003100 -0.00000200 -0.01341100 -0.02631800 0.88408200
41 1.36876300 -0.00003100 -0.00001700 0.09716800 0.12559600 0.47588800
42 1.87485500 0.93508100 -0.99913000 2.38907000 0.37915900 1.26206900
43 1.52344900 -0.00003400 -0.00000300 0.04999000 0.01215500 0.50137700
44 1.59928100 -0.00000200 0.00000900 0.07849600 -0.02838400 1.17207700
45 5.51180600 -0.00000200 0.00000600 0.05767400 0.00000000 0.00000000
46 0.19685000 0.00000300 -0.00000200 -0.34822500 0.00001500 -0.00000200
47 0.00000000 0.00000000 0.00000000 0.00000000 0.00000000 -1.57079600
48 -6.52967500 79.73875400 -3.19662000 0.00000000 0.00000000 -3.14156200
49 -7.48849231 95.27917736 -2.91377587 0.26574353 0.22846092 -0.56892077
50 6.00702838 1.08055213 -6.86606738 0.70991500 1.05114300 2.16381900
51 0.99931000 0.00655900 -4.12445600 0.00000000 0.00000000 0.00000000
52 -5.53212469 0.00656000 -2.60195015 0.00000000 0.00000000 0.00000000
53 -2.12495800 0.00655900 -3.63194000 0.00000000 0.00000000 0.00000000
54 22.48682800 0.00576400 0.04656100 0.00000000 0.00000000 0.00000000
55 -6.90297100 -2.43099300 -4.62374600 3.01602400 -0.23384000 -1.83328500
time 1
0 -0.00000100 7.45008900 -27.50902600 0.00000000 0.00000000 0.00003100
1 -0.00000200 0.00000000 0.00000000 1.57074300 -1.56713700 -1.57074300
2 4.25546800 -0.33518300 -0.00000200 0.00000000 0.00000000 -0.12484800
3 7.43124800 1.49647700 0.00000200 0.00000000 0.00000000 0.24545000
4 5.27847900 0.16554100 0.00000100 0.00000000 0.00000000 0.04851100
5 -3.28180462 -16.32654700 4.10282553 1.97586400 1.15990900 -1.29878600
6 -6.21448200 -0.00000700 -0.00002700 3.06277025 -0.77439253 1.66260683
7 11.94488200 0.00000000 0.00000100 -0.01067573 -0.25468449 2.13924560
8 10.62018100 0.00000200 0.00000000 1.26824454 0.28239033 2.85799973
9 -4.75110600 -0.69449400 0.83057700 -0.17739400 0.01599100 0.22108400
10 -1.68806800 0.00004600 -0.00003200 0.00457900 -0.02430400 1.25266100
11 -1.33614000 0.00005700 -0.00001200 0.02629800 -0.00107200 0.59212700
12 -4.82049400 -0.50946000 -0.22475900 -0.29384300 0.04878100 0.68958600
13 -1.82699200 -0.00006400 0.00000600 -0.00597100 0.04001900 1.12661300
14 -1.43657300 0.00000600 0.00000200 -0.06657600 -0.04031800 0.93461100
15 -3.99235500 -0.89118800 -1.82790900 -0.52215700 0.10628100 1.00838100
16 -1.40591800 -0.00002500 -0.00000300 -0.00793500 -0.02837500 1.14618500
17 -1.17535800 0.00012800 -0.00002000 0.06208200 0.02754600 1.05720900
18 -4.52675100 -0.69057500 -1.12074400 -0.41778200 0.08544600 1.18122300
19 -1.74403800 0.00003300 -0.00000800 -0.02502400 -0.01570900 1.42133100
20 -1.36877100 0.00002500 0.00000200 0.03357100 0.04032700 0.59071800
21 -1.91873446 -1.31984500 0.85662654 2.02384700 0.10197800 0.98895100
22 -1.62789215 0.15474785 0.01182685 -0.20199600 -0.08390500 0.59871700
23 -1.59928500 0.00000400 0.00001600 0.02557400 -0.03449400 0.91320200
24 5.51181500 0.00000800 -0.00000100 2.08521182 0.00057264 3.14130296
25 0.68299400 0.03595600 0.57798300 2.79340784 -0.00094428 -3.14132407
26 -2.92786500 -14.59732400 1.96421200 1.97586200 1.15990900 1.84280300
27 6.21448500 0.00000600 0.00002000 -0.76651523 0.56795380 -1.41160724
28 11.94488500 -0.00002900 -0.00019400 -0.26185970 -0.42233317 -1.64420297
29 10.62016600 0.00000200 0.00001000 -1.10696649 -0.66200175 0.25389525
30 4.75115600 0.69437600 -0.83047300 -0.17093900 -0.06480100 1.29897400
31 1.68806500 -0.00002600 0.00000200 0.00336200 -0.02449300 1.30290100
32 1.33615100 -0.00005100 -0.00000900 0.00799700 -0.03789800 0.16278400
33 4.82051300 0.50934000 0.22486500 -0.24420100 0.05267900 1.58206000
34 1.82699600 0.00006600 0.00000800 -0.01686069 0.03682715 0.84490265
35 1.43657700 -0.00001000 0.00000700 0.00412400 -0.01459100 0.56514400
36 3.99235300 0.89108700 1.82799400 -0.37865700 0.12332300 1.31184400
37 1.40591800 0.00002100 -0.00000700 0.00198400 -0.02939200 0.80822100
38 1.17536900 -0.00013100 0.00000200 0.10534000 0.06405800 0.98153900
39 4.52675600 0.69046000 1.12084200 -0.32139500 0.15846600 1.65825200
40 1.74404100 -0.00003100 -0.00000200 -0.01341100 -0.02631800 0.88408200
41 1.36876300 -0.00003100 -0.00001700 0.09716800 0.12559600 0.47588800
42 1.87485500 0.93508100 -0.99913000 2.38907000 0.37915900 1.26206900
43 1.52344900 -0.00003400 -0.00000300 0.04999000 0.01215500 0.50137700
44 1.59928100 -0.00000200 0.00000900 0.07849600 -0.02838400 1.17207700
45 5.51180600 -0.00000200 0.00000600 0.05767400 0.00000000 0.00000000
46 0.19685000 0.00000300 -0.00000200 -0.34822500 0.00001500 -0.00000200
47 0.00000000 0.00000000 0.00000000 0.00000000 0.00000000 -1.57079600
48 -6.52967500 79.73875400 -3.19662000 0.00000000 0.00000000 -3.14156200
49 -7.51079794 95.26594769 -2.92923131 0.25173088 0.22673620 -0.57259830
50 6.00702838 1.08055213 -6.86606738 0.70991500 1.05114300 2.16381900
51 0.99931000 0.00655900 -4.12445600 0.00000000 0.00000000 0.00000000
52 -5.53212469 0.00656000 -2.60195015 0.00000000 0.00000000 0.00000000
53 -2.12495800 0.00655900 -3.63194000 0.00000000 0.00000000 0.00000000
54 22.48682800 0.00576400 0.04656100 0.00000000 0.00000000 0.00000000
55 -6.90297100 -2.43099300 -4.62374600 3.01602400 -0.23384000 -1.83328500
time 2
0 -0.00000100 7.45008900 -27.50902600 0.00000000 0.00000000 0.00003100
1 -0.00000200 0.00000000 0.00000000 1.57074300 -1.56713700 -1.57074300
2 4.25546800 -0.33518300 -0.00000200 0.00000000 0.00000000 -0.12484800
3 7.43124800 1.49647700 0.00000200 0.00000000 0.00000000 0.24545000
4 5.27847900 0.16554100 0.00000100 0.00000000 0.00000000 0.04851100
5 -3.28180462 -16.32654700 4.10282553 1.97586400 1.15990900 -1.29878600
6 -6.21448200 -0.00000700 -0.00002700 3.06384502 -0.77383164 1.65448776
7 11.94488200 0.00000000 0.00000100 -0.01257788 -0.25567039 2.14498663
8 10.62018100 0.00000200 0.00000000 1.27361731 0.28715699 2.84200645
9 -4.75110600 -0.69449400 0.83057700 -0.17739400 0.01599100 0.22108400
10 -1.68806800 0.00004600 -0.00003200 0.00457900 -0.02430400 1.25266100
11 -1.33614000 0.00005700 -0.00001200 0.02629800 -0.00107200 0.59212700
12 -4.82049400 -0.50946000 -0.22475900 -0.29384300 0.04878100 0.68958600
13 -1.82699200 -0.00006400 0.00000600 -0.00597100 0.04001900 1.12661300
14 -1.43657300 0.00000600 0.00000200 -0.06657600 -0.04031800 0.93461100
15 -3.99235500 -0.89118800 -1.82790900 -0.52215700 0.10628100 1.00838100
16 -1.40591800 -0.00002500 -0.00000300 -0.00793500 -0.02837500 1.14618500
17 -1.17535800 0.00012800 -0.00002000 0.06208200 0.02754600 1.05720900
18 -4.52675100 -0.69057500 -1.12074400 -0.41778200 0.08544600 1.18122300
19 -1.74403800 0.00003300 -0.00000800 -0.02502400 -0.01570900 1.42133100
20 -1.36877100 0.00002500 0.00000200 0.03357100 0.04032700 0.59071800
21 -1.91873446 -1.31984500 0.85662654 2.02384700 0.10197800 0.98895100
22 -1.62789215 0.15474785 0.01182685 -0.20199600 -0.08390500 0.59871700
23 -1.59928500 0.00000400 0.00001600 0.02557400 -0.03449400 0.91320200
24 5.51181500 0.00000800 -0.00000100 2.08521182 0.00057264 3.14130296
25 0.68299400 0.03595600 0.57798300 2.79340784 -0.00094428 -3.14132407
26 -2.92786500 -14.59732400 1.96421200 1.97586200 1.15990900 1.84280300
27 6.21448500 0.00000600 0.00002000 -0.77209247 0.56861392 -1.41342934
28 11.94488500 -0.00002900 -0.00019400 -0.26289968 -0.42300054 -1.64217135
29 10.62016600 0.00000200 0.00001000 -1.11265529 -0.65574527 0.25841421
30 4.75115600 0.69437600 -0.83047300 -0.17093900 -0.06480100 1.29897400
31 1.68806500 -0.00002600 0.00000200 0.00336200 -0.02449300 1.30290100
32 1.33615100 -0.00005100 -0.00000900 0.00799700 -0.03789800 0.16278400
33 4.82051300 0.50934000 0.22486500 -0.24420100 0.05267900 1.58206000
34 1.82699600 0.00006600 0.00000800 -0.01686069 0.03682715 0.84490265
35 1.43657700 -0.00001000 0.00000700 0.00412400 -0.01459100 0.56514400
36 3.99235300 0.89108700 1.82799400 -0.37865700 0.12332300 1.31184400
37 1.40591800 0.00002100 -0.00000700 0.00198400 -0.02939200 0.80822100
38 1.17536900 -0.00013100 0.00000200 0.10534000 0.06405800 0.98153900
39 4.52675600 0.69046000 1.12084200 -0.32139500 0.15846600 1.65825200
40 1.74404100 -0.00003100 -0.00000200 -0.01341100 -0.02631800 0.88408200
41 1.36876300 -0.00003100 -0.00001700 0.09716800 0.12559600 0.47588800
42 1.87485500 0.93508100 -0.99913000 2.38907000 0.37915900 1.26206900
43 1.52344900 -0.00003400 -0.00000300 0.04999000 0.01215500 0.50137700
44 1.59928100 -0.00000200 0.00000900 0.07849600 -0.02838400 1.17207700
45 5.51180600 -0.00000200 0.00000600 0.05767400 0.00000000 0.00000000
46 0.19685000 0.00000300 -0.00000200 -0.34822500 0.00001500 -0.00000200
47 0.00000000 0.00000000 0.00000000 0.00000000 0.00000000 -1.57079600
48 -6.52967500 79.73875400 -3.19662000 0.00000000 0.00000000 -3.14156200
49 -7.58761104 95.22872594 -2.89752806 0.25351537 0.22232077 -0.57840868
50 6.00702838 1.08055213 -6.86606738 0.70991500 1.05114300 2.16381900
51 0.99931000 0.00655900 -4.12445600 0.00000000 0.00000000 0.00000000
52 -5.53212469 0.00656000 -2.60195015 0.00000000 0.00000000 0.00000000
53 -2.12495800 0.00655900 -3.63194000 0.00000000 0.00000000 0.00000000
54 22.48682800 0.00576400 0.04656100 0.00000000 0.00000000 0.00000000
55 -6.90297100 -2.43099300 -4.62374600 3.01602400 -0.23384000 -1.83328500
time 3
0 -0.00000100 7.45008900 -27.50902600 0.00000000 0.00000000 0.00003100
1 -0.00000200 0.00000000 0.00000000 1.57074300 -1.56713700 -1.57074300
2 4.25546800 -0.33518300 -0.00000200 0.00000000 0.00000000 -0.12484800
3 7.43124800 1.49647700 0.00000200 0.00000000 0.00000000 0.24545000
4 5.27847900 0.16554100 0.00000100 0.00000000 0.00000000 0.04851100
5 -3.28180462 -16.32654700 4.10282553 1.97586400 1.15990900 -1.29878600
6 -6.21448200 -0.00000700 -0.00002700 3.07484808 -0.77448559 1.64300229
7 11.94488200 0.00000000 0.00000100 -0.01495175 -0.25703258 2.15239785
8 10.62018100 0.00000200 0.00000000 1.28873403 0.28207496 2.82186445
9 -4.75110600 -0.69449400 0.83057700 -0.17739400 0.01599100 0.22108400
10 -1.68806800 0.00004600 -0.00003200 0.00457900 -0.02430400 1.25266100
11 -1.33614000 0.00005700 -0.00001200 0.02629800 -0.00107200 0.59212700
12 -4.82049400 -0.50946000 -0.22475900 -0.29384300 0.04878100 0.68958600
13 -1.82699200 -0.00006400 0.00000600 -0.00597100 0.04001900 1.12661300
14 -1.43657300 0.00000600 0.00000200 -0.06657600 -0.04031800 0.93461100
15 -3.99235500 -0.89118800 -1.82790900 -0.52215700 0.10628100 1.00838100
16 -1.40591800 -0.00002500 -0.00000300 -0.00793500 -0.02837500 1.14618500
17 -1.17535800 0.00012800 -0.00002000 0.06208200 0.02754600 1.05720900
18 -4.52675100 -0.69057500 -1.12074400 -0.41778200 0.08544600 1.18122300
19 -1.74403800 0.00003300 -0.00000800 -0.02502400 -0.01570900 1.42133100
20 -1.36877100 0.00002500 0.00000200 0.03357100 0.04032700 0.59071800
21 -1.91873446 -1.31984500 0.85662654 2.02384700 0.10197800 0.98895100
22 -1.62789215 0.15474785 0.01182685 -0.20199600 -0.08390500 0.59871700
23 -1.59928500 0.00000400 0.00001600 0.02557400 -0.03449400 0.91320200
24 5.51181500 0.00000800 -0.00000100 2.08521182 0.00057264 3.14130296
25 0.68299400 0.03595600 0.57798300 2.79340784 -0.00094428 -3.14132407
26 -2.92786500 -14.59732400 1.96421200 1.97586200 1.15990900 1.84280300
27 6.21448500 0.00000600 0.00002000 -0.76625923 0.56441197 -1.40764876
28 11.94488500 -0.00002900 -0.00019400 -0.26529476 -0.42025449 -1.63656534
29 10.62016600 0.00000200 0.00001000 -1.14056436 -0.65923441 0.26596248
30 4.75115600 0.69437600 -0.83047300 -0.17093900 -0.06480100 1.29897400
31 1.68806500 -0.00002600 0.00000200 0.00336200 -0.02449300 1.30290100
32 1.33615100 -0.00005100 -0.00000900 0.00799700 -0.03789800 0.16278400
33 4.82051300 0.50934000 0.22486500 -0.24420100 0.05267900 1.58206000
34 1.82699600 0.00006600 0.00000800 -0.01686069 0.03682715 0.84490265
35 1.43657700 -0.00001000 0.00000700 0.00412400 -0.01459100 0.56514400
36 3.99235300 0.89108700 1.82799400 -0.37865700 0.12332300 1.31184400
37 1.40591800 0.00002100 -0.00000700 0.00198400 -0.02939200 0.80822100
38 1.17536900 -0.00013100 0.00000200 0.10534000 0.06405800 0.98153900
39 4.52675600 0.69046000 1.12084200 -0.32139500 0.15846600 1.65825200
40 1.74404100 -0.00003100 -0.00000200 -0.01341100 -0.02631800 0.88408200
41 1.36876300 -0.00003100 -0.00001700 0.09716800 0.12559600 0.47588800
42 1.87485500 0.93508100 -0.99913000 2.38907000 0.37915900 1.26206900
43 1.52344900 -0.00003400 -0.00000300 0.04999000 0.01215500 0.50137700
44 1.59928100 -0.00000200 0.00000900 0.07849600 -0.02838400 1.17207700
45 5.51180600 -0.00000200 0.00000600 0.05767400 0.00000000 0.00000000
46 0.19685000 0.00000300 -0.00000200 -0.34822500 0.00001500 -0.00000200
47 0.00000000 0.00000000 0.00000000 0.00000000 0.00000000 -1.57079600
48 -6.52967500 79.73875400 -3.19662000 0.00000000 0.00000000 -3.14156200
49 -7.67979902 95.17119574 -2.83332823 0.26456674 0.21660666 -0.58620902
50 6.00702838 1.08055213 -6.86606738 0.70991500 1.05114300 2.16381900
51 0.99931000 0.00655900 -4.12445600 0.00000000 0.00000000 0.00000000
52 -5.53212469 0.00656000 -2.60195015 0.00000000 0.00000000 0.00000000
53 -2.12495800 0.00655900 -3.63194000 0.00000000 0.00000000 0.00000000
54 22.48682800 0.00576400 0.04656100 0.00000000 0.00000000 0.00000000
55 -6.90297100 -2.43099300 -4.62374600 3.01602400 -0.23384000 -1.83328500
time 4
0 -0.00000100 7.45008900 -27.50902600 0.00000000 0.00000000 0.00003100
1 -0.00000200 0.00000000 0.00000000 1.57074300 -1.56713700 -1.57074300
2 4.25546800 -0.33518300 -0.00000200 0.00000000 0.00000000 -0.12484800
3 7.43124800 1.49647700 0.00000200 0.00000000 0.00000000 0.24545000
4 5.27847900 0.16554100 0.00000100 0.00000000 0.00000000 0.04851100
5 -3.03896671 -16.16249255 3.98107289 1.97586400 1.15990900 -1.29878600
6 -6.21448200 -0.00000700 -0.00002700 3.08105567 -0.79246261 1.65879960
7 11.94488200 0.00000000 0.00000100 -0.01546566 -0.26035566 2.15325619
8 10.62018100 0.00000200 0.00000000 1.32173074 0.25797891 2.82659483
9 -4.75110600 -0.69449400 0.83057700 -0.17739400 0.01599100 0.22108400
10 -1.68806800 0.00004600 -0.00003200 0.00457900 -0.02430400 1.25266100
11 -1.33614000 0.00005700 -0.00001200 0.02629800 -0.00107200 0.59212700
12 -4.82049400 -0.50946000 -0.22475900 -0.29384300 0.04878100 0.68958600
13 -1.82699200 -0.00006400 0.00000600 -0.00597100 0.04001900 1.12661300
14 -1.43657300 0.00000600 0.00000200 -0.06657600 -0.04031800 0.93461100
15 -3.99235500 -0.89118800 -1.82790900 -0.52215700 0.10628100 1.00838100
16 -1.40591800 -0.00002500 -0.00000300 -0.00793500 -0.02837500 1.14618500
17 -1.17535800 0.00012800 -0.00002000 0.06208200 0.02754600 1.05720900
18 -4.52675100 -0.69057500 -1.12074400 -0.41778200 0.08544600 1.18122300
19 -1.74403800 0.00003300 -0.00000800 -0.02502400 -0.01570900 1.42133100
20 -1.36877100 0.00002500 0.00000200 0.03357100 0.04032700 0.59071800
21 -1.91873446 -1.31984500 0.85662654 2.02384700 0.10197800 0.98895100
22 -1.62789215 0.15474785 0.01182685 -0.20199600 -0.08390500 0.59871700
23 -1.59928500 0.00000400 0.00001600 0.02557400 -0.03449400 0.91320200
24 5.51181500 0.00000800 -0.00000100 2.08521182 0.00057264 3.14130296
25 0.68299400 0.03595600 0.57798300 2.79340784 -0.00094428 -3.14132407
26 -2.92786500 -14.59732400 1.96421200 1.97586200 1.15990900 1.84280300
27 6.21448500 0.00000600 0.00002000 -0.74383071 0.55685962 -1.39501942
28 11.94488500 -0.00002900 -0.00019400 -0.26871436 -0.41520598 -1.62765753
29 10.62016600 0.00000200 0.00001000 -1.19253173 -0.67117998 0.28023722
30 4.75115600 0.69437600 -0.83047300 -0.17093900 -0.06480100 1.29897400
31 1.68806500 -0.00002600 0.00000200 0.00336200 -0.02449300 1.30290100
32 1.33615100 -0.00005100 -0.00000900 0.00799700 -0.03789800 0.16278400
33 4.82051300 0.50934000 0.22486500 -0.24420100 0.05267900 1.58206000
34 1.82699600 0.00006600 0.00000800 -0.01686069 0.03682715 0.84490265
35 1.43657700 -0.00001000 0.00000700 0.00412400 -0.01459100 0.56514400
36 3.99235300 0.89108700 1.82799400 -0.37865700 0.12332300 1.31184400
37 1.40591800 0.00002100 -0.00000700 0.00198400 -0.02939200 0.80822100
38 1.17536900 -0.00013100 0.00000200 0.10534000 0.06405800 0.98153900
39 4.52675600 0.69046000 1.12084200 -0.32139500 0.15846600 1.65825200
40 1.74404100 -0.00003100 -0.00000200 -0.01341100 -0.02631800 0.88408200
41 1.36876300 -0.00003100 -0.00001700 0.09716800 0.12559600 0.47588800
42 1.87485500 0.93508100 -0.99913000 2.38907000 0.37915900 1.26206900
43 1.52344900 -0.00003400 -0.00000300 0.04999000 0.01215500 0.50137700
44 1.59928100 -0.00000200 0.00000900 0.07849600 -0.02838400 1.17207700
45 5.51180600 -0.00000200 0.00000600 0.05767400 0.00000000 0.00000000
46 0.19685000 0.00000300 -0.00000200 -0.34822500 0.00001500 -0.00000200
47 0.00000000 0.00000000 0.00000000 0.00000000 0.00000000 -1.57079600
48 -6.52967500 79.73875400 -3.19662000 0.00000000 0.00000000 -3.14156200
49 -7.74804194 95.09705630 -2.76496909 0.27966949 0.20836028 -0.60180719
50 6.00702838 1.08055213 -6.86606738 0.70991500 1.05114300 2.16381900
51 0.99931000 0.00655900 -4.12445600 0.00000000 0.00000000 0.00000000
52 -5.53212469 0.00656000 -2.60195015 0.00000000 0.00000000 0.00000000
53 -2.12495800 0.00655900 -3.63194000 0.00000000 0.00000000 0.00000000
54 22.48682800 0.00576400 0.04656100 0.00000000 0.00000000 0.00000000
55 -6.90297100 -2.43099300 -4.62374600 3.01602400 -0.23384000 -1.83328500
time 5
0 -0.00000100 7.45008900 -27.50902600 0.00000000 0.00000000 0.00003100
1 -0.00000200 0.00000000 0.00000000 1.57074300 -1.56713700 -1.57074300
2 4.25546800 -0.33518300 -0.00000200 0.00000000 0.00000000 -0.12484800
3 7.43124800 1.49647700 0.00000200 0.00000000 0.00000000 0.24545000
4 5.27847900 0.16554100 0.00000100 0.00000000 0.00000000 0.04851100
5 -2.39665695 -15.71742858 3.65506842 1.97586400 1.15990900 -1.29878600
6 -6.21448200 -0.00000700 -0.00002700 3.07207478 -0.83822980 1.73215964
7 11.94488200 0.00000000 0.00000100 -0.01444024 -0.26506130 2.14864515
8 10.62018100 0.00000200 0.00000000 1.38006266 0.20515087 2.86313760
9 -4.75110600 -0.69449400 0.83057700 -0.17739400 0.01599100 0.22108400
10 -1.68806800 0.00004600 -0.00003200 0.00457900 -0.02430400 1.25266100
11 -1.33614000 0.00005700 -0.00001200 0.02629800 -0.00107200 0.59212700
12 -4.82049400 -0.50946000 -0.22475900 -0.29384300 0.04878100 0.68958600
13 -1.82699200 -0.00006400 0.00000600 -0.00597100 0.04001900 1.12661300
14 -1.43657300 0.00000600 0.00000200 -0.06657600 -0.04031800 0.93461100
15 -3.99235500 -0.89118800 -1.82790900 -0.52215700 0.10628100 1.00838100
16 -1.40591800 -0.00002500 -0.00000300 -0.00793500 -0.02837500 1.14618500
17 -1.17535800 0.00012800 -0.00002000 0.06208200 0.02754600 1.05720900
18 -4.52675100 -0.69057500 -1.12074400 -0.41778200 0.08544600 1.18122300
19 -1.74403800 0.00003300 -0.00000800 -0.02502400 -0.01570900 1.42133100
20 -1.36877100 0.00002500 0.00000200 0.03357100 0.04032700 0.59071800
21 -1.91873446 -1.31984500 0.85662654 2.02384700 0.10197800 0.98895100
22 -1.62789215 0.15474785 0.01182685 -0.20199600 -0.08390500 0.59871700
23 -1.59928500 0.00000400 0.00001600 0.02557400 -0.03449400 0.91320200
24 5.51181500 0.00000800 -0.00000100 2.08521182 0.00057264 3.14130296
25 0.68299400 0.03595600 0.57798300 2.79340784 -0.00094428 -3.14132407
26 -2.92786500 -14.59732400 1.96421200 1.97586200 1.15990900 1.84280300
27 6.21448500 0.00000600 0.00002000 -0.71661434 0.55601461 -1.39594417
28 11.94488500 -0.00002900 -0.00019400 -0.27387900 -0.41093860 -1.61325985
29 10.62016600 0.00000200 0.00001000 -1.25923426 -0.68349221 0.29569483
30 4.75115600 0.69437600 -0.83047300 -0.17093900 -0.06480100 1.29897400
31 1.68806500 -0.00002600 0.00000200 0.00336200 -0.02449300 1.30290100
32 1.33615100 -0.00005100 -0.00000900 0.00799700 -0.03789800 0.16278400
33 4.82051300 0.50934000 0.22486500 -0.24420100 0.05267900 1.58206000
34 1.82699600 0.00006600 0.00000800 -0.01686069 0.03682715 0.84490265
35 1.43657700 -0.00001000 0.00000700 0.00412400 -0.01459100 0.56514400
36 3.99235300 0.89108700 1.82799400 -0.37865700 0.12332300 1.31184400
37 1.40591800 0.00002100 -0.00000700 0.00198400 -0.02939200 0.80822100
38 1.17536900 -0.00013100 0.00000200 0.10534000 0.06405800 0.98153900
39 4.52675600 0.69046000 1.12084200 -0.32139500 0.15846600 1.65825200
40 1.74404100 -0.00003100 -0.00000200 -0.01341100 -0.02631800 0.88408200
41 1.36876300 -0.00003100 -0.00001700 0.09716800 0.12559600 0.47588800
42 1.87485500 0.93508100 -0.99913000 2.38907000 0.37915900 1.26206900
43 1.52344900 -0.00003400 -0.00000300 0.04999000 0.01215500 0.50137700
44 1.59928100 -0.00000200 0.00000900 0.07849600 -0.02838400 1.17207700
45 5.51180600 -0.00000200 0.00000600 0.05767400 0.00000000 0.00000000
46 0.19685000 0.00000300 -0.00000200 -0.34822500 0.00001500 -0.00000200
47 0.00000000 0.00000000 0.00000000 0.00000000 0.00000000 -1.57079600
48 -6.52967500 79.73875400 -3.19662000 0.00000000 0.00000000 -3.14156200
49 -7.71035130 95.00998960 -2.73690266 0.29908078 0.19184798 -0.63844497
50 6.00702838 1.08055213 -6.86606738 0.70991500 1.05114300 2.16381900
51 0.99931000 0.00655900 -4.12445600 0.00000000 0.00000000 0.00000000
52 -5.53212469 0.00656000 -2.60195015 0.00000000 0.00000000 0.00000000
53 -2.12495800 0.00655900 -3.63194000 0.00000000 0.00000000 0.00000000
54 22.48682800 0.00576400 0.04656100 0.00000000 0.00000000 0.00000000
55 -6.90297100 -2.43099300 -4.62374600 3.01602400 -0.23384000 -1.83328500
time 6
0 -0.00000100 7.45008900 -27.50902600 0.00000000 0.00000000 0.00003100
1 -0.00000200 0.00000000 0.00000000 1.57074300 -1.56713700 -1.57074300
2 4.25546800 -0.33518300 -0.00000200 0.00000000 0.00000000 -0.12484800
3 7.43124800 1.49647700 0.00000200 0.00000000 0.00000000 0.24545000
4 5.27847900 0.16554100 0.00000100 0.00000000 0.00000000 0.04851100
5 -1.48419310 -15.06201940 3.18368805 1.97586400 1.15990900 -1.29878600
6 -6.21448200 -0.00000700 -0.00002700 3.03823177 -0.90501280 1.88757825
7 11.94488200 0.00000000 0.00000100 -0.02146687 -0.26074725 2.17224889
8 10.62018100 0.00000200 0.00000000 1.46006560 0.14401690 2.87909876
9 -4.75110600 -0.69449400 0.83057700 -0.17739400 0.01599100 0.22108400
10 -1.68806800 0.00004600 -0.00003200 0.00457900 -0.02430400 1.25266100
11 -1.33614000 0.00005700 -0.00001200 0.02629800 -0.00107200 0.59212700
12 -4.82049400 -0.50946000 -0.22475900 -0.29384300 0.04878100 0.68958600
13 -1.82699200 -0.00006400 0.00000600 -0.00597100 0.04001900 1.12661300
14 -1.43657300 0.00000600 0.00000200 -0.06657600 -0.04031800 0.93461100
15 -3.99235500 -0.89118800 -1.82790900 -0.52215700 0.10628100 1.00838100
16 -1.40591800 -0.00002500 -0.00000300 -0.00793500 -0.02837500 1.14618500
17 -1.17535800 0.00012800 -0.00002000 0.06208200 0.02754600 1.05720900
18 -4.52675100 -0.69057500 -1.12074400 -0.41778200 0.08544600 1.18122300
19 -1.74403800 0.00003300 -0.00000800 -0.02502400 -0.01570900 1.42133100
20 -1.36877100 0.00002500 0.00000200 0.03357100 0.04032700 0.59071800
21 -1.91873446 -1.31984500 0.85662654 2.02384700 0.10197800 0.98895100
22 -1.62789215 0.15474785 0.01182685 -0.20199600 -0.08390500 0.59871700
23 -1.59928500 0.00000400 0.00001600 0.02557400 -0.03449400 0.91320200
24 5.51181500 0.00000800 -0.00000100 2.08521182 0.00057264 3.14130296
25 0.68299400 0.03595600 0.57798300 2.79340784 -0.00094428 -3.14132407
26 -2.92786500 -14.59732400 1.96421200 1.97586200 1.15990900 1.84280300
27 6.21448500 0.00000600 0.00002000 -0.65444156 0.56010978 -1.41950838
28 11.94488500 -0.00002900 -0.00019400 -0.28401233 -0.40327808 -1.58432087
29 10.62016600 0.00000200 0.00001000 -1.37962072 -0.70574582 0.33049221
30 4.75115600 0.69437600 -0.83047300 -0.17093900 -0.06480100 1.29897400
31 1.68806500 -0.00002600 0.00000200 0.00336200 -0.02449300 1.30290100
32 1.33615100 -0.00005100 -0.00000900 0.00799700 -0.03789800 0.16278400
33 4.82051300 0.50934000 0.22486500 -0.24420100 0.05267900 1.58206000
34 1.82699600 0.00006600 0.00000800 -0.01686069 0.03682715 0.84490265
35 1.43657700 -0.00001000 0.00000700 0.00412400 -0.01459100 0.56514400
36 3.99235300 0.89108700 1.82799400 -0.37865700 0.12332300 1.31184400
37 1.40591800 0.00002100 -0.00000700 0.00198400 -0.02939200 0.80822100
38 1.17536900 -0.00013100 0.00000200 0.10534000 0.06405800 0.98153900
39 4.52675600 0.69046000 1.12084200 -0.32139500 0.15846600 1.65825200
40 1.74404100 -0.00003100 -0.00000200 -0.01341100 -0.02631800 0.88408200
41 1.36876300 -0.00003100 -0.00001700 0.09716800 0.12559600 0.47588800
42 1.87485500 0.93508100 -0.99913000 2.38907000 0.37915900 1.26206900
43 1.52344900 -0.00003400 -0.00000300 0.04999000 0.01215500 0.50137700
44 1.59928100 -0.00000200 0.00000900 0.07849600 -0.02838400 1.17207700
45 5.51180600 -0.00000200 0.00000600 0.05767400 0.00000000 0.00000000
46 0.19685000 0.00000300 -0.00000200 -0.34822500 0.00001500 -0.00000200
47 0.00000000 0.00000000 0.00000000 0.00000000 0.00000000 -1.57079600
48 -6.52967500 79.73875400 -3.19662000 0.00000000 0.00000000 -3.14156200
49 -7.30053529 94.91370163 -2.77149609 0.31886203 0.15741137 -0.73110609
50 6.00702838 1.08055213 -6.86606738 0.70991500 1.05114300 2.16381900
51 0.99931000 0.00655900 -4.12445600 0.00000000 0.00000000 0.00000000
52 -5.53212469 0.00656000 -2.60195015 0.00000000 0.00000000 0.00000000
53 -2.12495800 0.00655900 -3.63194000 0.00000000 0.00000000 0.00000000
54 22.48682800 0.00576400 0.04656100 0.00000000 0.00000000 0.00000000
55 -6.90297100 -2.43099300 -4.62374600 3.01602400 -0.23384000 -1.83328500
time 7
0 -0.00000100 7.45008900 -27.50902600 0.00000000 0.00000000 0.00003100
1 -0.00000200 0.00000000 0.00000000 1.57074300 -1.56713700 -1.57074300
2 4.25546800 -0.33518300 -0.00000200 0.00000000 0.00000000 -0.12484800
3 7.43124800 1.49647700 0.00000200 0.00000000 0.00000000 0.24545000
4 5.27847900 0.16554100 0.00000100 0.00000000 0.00000000 0.04851100
5 -0.43088784 -14.26691915 2.62581021 1.97586400 1.15990900 -1.29878600
6 -6.21448200 -0.00000700 -0.00002700 2.95704132 -0.97291097 2.14573980
7 11.94488200 0.00000000 0.00000100 -0.03610236 -0.24181292 2.22430899
8 10.62018100 0.00000200 0.00000000 1.53516335 0.10670527 2.87222739
9 -4.75110600 -0.69449400 0.83057700 -0.17739400 0.01599100 0.22108400
10 -1.68806800 0.00004600 -0.00003200 0.00457900 -0.02430400 1.25266100
11 -1.33614000 0.00005700 -0.00001200 0.02629800 -0.00107200 0.59212700
12 -4.82049400 -0.50946000 -0.22475900 -0.29384300 0.04878100 0.68958600
13 -1.82699200 -0.00006400 0.00000600 -0.00597100 0.04001900 1.12661300
14 -1.43657300 0.00000600 0.00000200 -0.06657600 -0.04031800 0.93461100
15 -3.99235500 -0.89118800 -1.82790900 -0.52215700 0.10628100 1.00838100
16 -1.40591800 -0.00002500 -0.00000300 -0.00793500 -0.02837500 1.14618500
17 -1.17535800 0.00012800 -0.00002000 0.06208200 0.02754600 1.05720900
18 -4.52675100 -0.69057500 -1.12074400 -0.41778200 0.08544600 1.18122300
19 -1.74403800 0.00003300 -0.00000800 -0.02502400 -0.01570900 1.42133100
20 -1.36877100 0.00002500 0.00000200 0.03357100 0.04032700 0.59071800
21 -1.91873446 -1.31984500 0.85662654 2.02384700 0.10197800 0.98895100
22 -1.62789215 0.15474785 0.01182685 -0.20199600 -0.08390500 0.59871700
23 -1.59928500 0.00000400 0.00001600 0.02557400 -0.03449400 0.91320200
24 5.51181500 0.00000800 -0.00000100 2.08521182 0.00057264 3.14130296
25 0.68299400 0.03595600 0.57798300 2.79340784 -0.00094428 -3.14132407
26 -2.92786500 -14.59732400 1.96421200 1.97586200 1.15990900 1.84280300
27 6.21448500 0.00000600 0.00002000 -0.53367956 0.54796305 -1.46652409
28 11.94488500 -0.00002900 -0.00019400 -0.30047736 -0.38450934 -1.53623838
29 10.62016600 0.00000200 0.00001000 -1.57660997 -0.73706435 0.40802941
30 4.75115600 0.69437600 -0.83047300 -0.17093900 -0.06480100 1.29897400
31 1.68806500 -0.00002600 0.00000200 0.00336200 -0.02449300 1.30290100
32 1.33615100 -0.00005100 -0.00000900 0.00799700 -0.03789800 0.16278400
33 4.82051300 0.50934000 0.22486500 -0.24420100 0.05267900 1.58206000
34 1.82699600 0.00006600 0.00000800 -0.01686069 0.03682715 0.84490265
35 1.43657700 -0.00001000 0.00000700 0.00412400 -0.01459100 0.56514400
36 3.99235300 0.89108700 1.82799400 -0.37865700 0.12332300 1.31184400
37 1.40591800 0.00002100 -0.00000700 0.00198400 -0.02939200 0.80822100
38 1.17536900 -0.00013100 0.00000200 0.10534000 0.06405800 0.98153900
39 4.52675600 0.69046000 1.12084200 -0.32139500 0.15846600 1.65825200
40 1.74404100 -0.00003100 -0.00000200 -0.01341100 -0.02631800 0.88408200
41 1.36876300 -0.00003100 -0.00001700 0.09716800 0.12559600 0.47588800
42 1.87485500 0.93508100 -0.99913000 2.38907000 0.37915900 1.26206900
43 1.52344900 -0.00003400 -0.00000300 0.04999000 0.01215500 0.50137700
44 1.59928100 -0.00000200 0.00000900 0.07849600 -0.02838400 1.17207700
45 5.51180600 -0.00000200 0.00000600 0.05767400 0.00000000 0.00000000
46 0.19685000 0.00000300 -0.00000200 -0.34822500 0.00001500 -0.00000200
47 0.00000000 0.00000000 0.00000000 0.00000000 0.00000000 -1.57079600
48 -6.52967500 79.73875400 -3.19662000 0.00000000 0.00000000 -3.14156200
49 -6.28238122 94.81187683 -2.83639027 0.32266021 0.11076263 -0.89001206
50 6.00702838 1.08055213 -6.86606738 0.70991500 1.05114300 2.16381900
51 0.99931000 0.00655900 -4.12445600 0.00000000 0.00000000 0.00000000
52 -5.53212469 0.00656000 -2.60195015 0.00000000 0.00000000 0.00000000
53 -2.12495800 0.00655900 -3.63194000 0.00000000 0.00000000 0.00000000
54 22.48682800 0.00576400 0.04656100 0.00000000 0.00000000 0.00000000
55 -6.90297100 -2.43099300 -4.62374600 3.01602400 -0.23384000 -1.83328500
time 8
0 -0.00000100 7.45008900 -27.50902600 0.00000000 0.00000000 0.00003100
1 -0.00000200 0.00000000 0.00000000 1.57074300 -1.56713700 -1.57074300
2 4.25546800 -0.33518300 -0.00000200 0.00000000 0.00000000 -0.12484800
3 7.43124800 1.49647700 0.00000200 0.00000000 0.00000000 0.24545000
4 5.27847900 0.16554100 0.00000100 0.00000000 0.00000000 0.04851100
5 0.63394612 -13.40278790 2.04031000 1.97586400 1.15990900 -1.29878600
6 -6.21448200 -0.00000700 -0.00002700 2.85762377 -1.00050259 2.40605392
7 11.94488200 0.00000000 0.00000100 -0.03861182 -0.23019533 2.23476067
8 10.62018100 0.00000200 0.00000000 1.56881512 0.09551712 2.90134264
9 -4.75110600 -0.69449400 0.83057700 -0.17739400 0.01599100 0.22108400
10 -1.68806800 0.00004600 -0.00003200 0.00457900 -0.02430400 1.25266100
11 -1.33614000 0.00005700 -0.00001200 0.02629800 -0.00107200 0.59212700
12 -4.82049400 -0.50946000 -0.22475900 -0.29384300 0.04878100 0.68958600
13 -1.82699200 -0.00006400 0.00000600 -0.00597100 0.04001900 1.12661300
14 -1.43657300 0.00000600 0.00000200 -0.06657600 -0.04031800 0.93461100
15 -3.99235500 -0.89118800 -1.82790900 -0.52215700 0.10628100 1.00838100
16 -1.40591800 -0.00002500 -0.00000300 -0.00793500 -0.02837500 1.14618500
17 -1.17535800 0.00012800 -0.00002000 0.06208200 0.02754600 1.05720900
18 -4.52675100 -0.69057500 -1.12074400 -0.41778200 0.08544600 1.18122300
19 -1.74403800 0.00003300 -0.00000800 -0.02502400 -0.01570900 1.42133100
20 -1.36877100 0.00002500 0.00000200 0.03357100 0.04032700 0.59071800
21 -1.91873446 -1.31984515 0.85662654 2.02384700 0.10197800 0.98895100
22 -1.62789231 0.15474815 0.01182700 -0.20199600 -0.08390500 0.59871700
23 -1.59928500 0.00000400 0.00001600 0.02557400 -0.03449400 0.91320200
24 5.51181500 0.00000800 -0.00000100 2.08521182 0.00057264 3.14130296
25 0.68299400 0.03595600 0.57798300 2.79340784 -0.00094428 -3.14132407
26 -2.92786500 -14.59732400 1.96421200 1.97586200 1.15990900 1.84280300
27 6.21448500 0.00000600 0.00002000 -0.45063098 0.53516009 -1.54460052
28 11.94488500 -0.00002900 -0.00019400 -0.31843933 -0.36496972 -1.48321135
29 10.62016600 0.00000200 0.00001000 -1.72109186 -0.74172038 0.46724338
30 4.75115600 0.69437600 -0.83047300 -0.17093900 -0.06480100 1.29897400
31 1.68806500 -0.00002600 0.00000200 0.00336200 -0.02449300 1.30290100
32 1.33615100 -0.00005100 -0.00000900 0.00799700 -0.03789800 0.16278400
33 4.82051300 0.50934000 0.22486500 -0.24420100 0.05267900 1.58206000
34 1.82699600 0.00006600 0.00000800 -0.01686069 0.03682715 0.84490265
35 1.43657700 -0.00001000 0.00000700 0.00412400 -0.01459100 0.56514400
36 3.99235300 0.89108700 1.82799400 -0.37865700 0.12332300 1.31184400
37 1.40591800 0.00002100 -0.00000700 0.00198400 -0.02939200 0.80822100
38 1.17536900 -0.00013100 0.00000200 0.10534000 0.06405800 0.98153900
39 4.52675600 0.69046000 1.12084200 -0.32139500 0.15846600 1.65825200
40 1.74404100 -0.00003100 -0.00000200 -0.01341100 -0.02631800 0.88408200
41 1.36876300 -0.00003100 -0.00001700 0.09716800 0.12559600 0.47588800
42 1.87485500 0.93508100 -0.99913000 2.38907000 0.37915900 1.26206900
43 1.52344900 -0.00003400 -0.00000300 0.04999000 0.01215500 0.50137700
44 1.59928100 -0.00000200 0.00000900 0.07849600 -0.02838400 1.17207700
45 5.51180600 -0.00000200 0.00000600 0.05767400 0.00000000 0.00000000
46 0.19685000 0.00000300 -0.00000200 -0.34822500 0.00001500 -0.00000200
47 0.00000000 0.00000000 0.00000000 0.00000000 0.00000000 -1.57079600
48 -6.52967500 79.73875400 -3.19662000 0.00000000 0.00000000 -3.14156200
49 -5.12810342 94.70819965 -2.89916246 0.31164743 0.07032434 -1.04220670
50 6.00703517 1.08055475 -6.86606707 0.70991500 1.05114300 2.16381900
51 0.99931000 0.00655900 -4.12445600 0.00000000 0.00000000 0.00000000
52 -5.53212469 0.00656000 -2.60195015 0.00000000 0.00000000 0.00000000
53 -2.12495800 0.00655900 -3.63194000 0.00000000 0.00000000 0.00000000
54 22.48682800 0.00576400 0.04656100 0.00000000 0.00000000 0.00000000
55 -6.90297100 -2.43099300 -4.62374600 3.01602400 -0.23384000 -1.83328500
time 9
0 -0.00000100 7.45008900 -27.50902600 0.00000000 0.00000000 0.00003100
1 -0.00000200 0.00000000 0.00000000 1.57074300 -1.56713700 -1.57074300
2 4.25546800 -0.33518300 -0.00000200 0.00000000 0.00000000 -0.12484800
3 7.43124800 1.49647700 0.00000200 0.00000000 0.00000000 0.24545000
4 5.27847900 0.16554100 0.00000100 0.00000000 0.00000000 0.04851100
5 1.58099610 -12.54028235 1.48606671 1.97586400 1.15990900 -1.29878600
6 -6.21448200 -0.00000700 -0.00002700 2.76436534 -0.98202631 2.60704155
7 11.94488200 0.00000000 0.00000100 -0.03047100 -0.23411698 2.20690579
8 10.62018100 0.00000200 0.00000000 1.54812323 0.12923947 2.95486935
9 -4.75110600 -0.69449400 0.83057700 -0.17739400 0.01599100 0.22108400
10 -1.68806800 0.00004600 -0.00003200 0.00457900 -0.02430400 1.25266100
11 -1.33614000 0.00005700 -0.00001200 0.02629800 -0.00107200 0.59212700
12 -4.82049400 -0.50946000 -0.22475900 -0.29384300 0.04878100 0.68958600
13 -1.82699200 -0.00006400 0.00000600 -0.00597100 0.04001900 1.12661300
14 -1.43657300 0.00000600 0.00000200 -0.06657600 -0.04031800 0.93461100
15 -3.99235500 -0.89118800 -1.82790900 -0.52215700 0.10628100 1.00838100
16 -1.40591800 -0.00002500 -0.00000300 -0.00793500 -0.02837500 1.14618500
17 -1.17535800 0.00012800 -0.00002000 0.06208200 0.02754600 1.05720900
18 -4.52675100 -0.69057500 -1.12074400 -0.41778200 0.08544600 1.18122300
19 -1.74403800 0.00003300 -0.00000800 -0.02502400 -0.01570900 1.42133100
20 -1.36877100 0.00002500 0.00000200 0.03357100 0.04032700 0.59071800
21 -1.91873446 -1.31984515 0.85662654 2.02384700 0.10197800 0.98895100
22 -1.62789231 0.15474815 0.01182700 -0.20199600 -0.08390500 0.59871700
23 -1.59928500 0.00000400 0.00001600 0.02557400 -0.03449400 0.91320200
24 5.51181500 0.00000800 -0.00000100 2.08521182 0.00057264 3.14130296
25 0.68299400 0.03595600 0.57798300 2.79340784 -0.00094428 -3.14132407
26 -2.92786500 -14.59732400 1.96421200 1.97586200 1.15990900 1.84280300
27 6.21448500 0.00000600 0.00002000 -0.40635787 0.52443497 -1.63934766
28 11.94488500 -0.00002900 -0.00019400 -0.33701973 -0.34813026 -1.42844280
29 10.62016600 0.00000200 0.00001000 -1.78374914 -0.72538534 0.49830686
30 4.75115600 0.69437600 -0.83047300 -0.17093900 -0.06480100 1.29897400
31 1.68806500 -0.00002600 0.00000200 0.00336200 -0.02449300 1.30290100
32 1.33615100 -0.00005100 -0.00000900 0.00799700 -0.03789800 0.16278400
33 4.82051300 0.50934000 0.22486500 -0.24420100 0.05267900 1.58206000
34 1.82699600 0.00006600 0.00000800 -0.01686069 0.03682715 0.84490265
35 1.43657700 -0.00001000 0.00000700 0.00412400 -0.01459100 0.56514400
36 3.99235300 0.89108700 1.82799400 -0.37865700 0.12332300 1.31184400
37 1.40591800 0.00002100 -0.00000700 0.00198400 -0.02939200 0.80822100
38 1.17536900 -0.00013100 0.00000200 0.10534000 0.06405800 0.98153900
39 4.52675600 0.69046000 1.12084200 -0.32139500 0.15846600 1.65825200
40 1.74404100 -0.00003100 -0.00000200 -0.01341100 -0.02631800 0.88408200
41 1.36876300 -0.00003100 -0.00001700 0.09716800 0.12559600 0.47588800
42 1.87485500 0.93508100 -0.99913000 2.38907000 0.37915900 1.26206900
43 1.52344900 -0.00003400 -0.00000300 0.04999000 0.01215500 0.50137700
44 1.59928100 -0.00000200 0.00000900 0.07849600 -0.02838400 1.17207700
45 5.51180600 -0.00000200 0.00000600 0.05767400 0.00000000 0.00000000
46 0.19685000 0.00000300 -0.00000200 -0.34822500 0.00001500 -0.00000200
47 0.00000000 0.00000000 0.00000000 0.00000000 0.00000000 -1.57079600
48 -6.52967500 79.73875400 -3.19662000 0.00000000 0.00000000 -3.14156200
49 -3.84356739 94.60636132 -2.94803521 0.27162524 0.04127106 -1.17187832
50 6.00703517 1.08055475 -6.86606707 0.70991500 1.05114300 2.16381900
51 0.99931000 0.00655900 -4.12445600 0.00000000 0.00000000 0.00000000
52 -5.53212469 0.00656000 -2.60195015 0.00000000 0.00000000 0.00000000
53 -2.12495800 0.00655900 -3.63194000 0.00000000 0.00000000 0.00000000
54 22.48682800 0.00576400 0.04656100 0.00000000 0.00000000 0.00000000
55 -6.90297100 -2.43099300 -4.62374600 3.01602400 -0.23384000 -1.83328500
time 10
0 -0.00000100 7.45008900 -27.50902600 0.00000000 0.00000000 0.00003100
1 -0.00000200 0.00000000 0.00000000 1.57074300 -1.56713700 -1.57074300
2 4.25546800 -0.33518300 -0.00000200 0.00000000 0.00000000 -0.12484800
3 7.43124800 1.49647700 0.00000200 0.00000000 0.00000000 0.24545000
4 5.27847900 0.16554100 0.00000100 0.00000000 0.00000000 0.04851100
5 2.28094771 -11.75006002 1.02195627 1.97586400 1.15990900 -1.29878600
6 -6.21448200 -0.00000700 -0.00002700 2.69342613 -0.93618483 2.73186238
7 11.94488200 0.00000000 0.00000100 -0.01846424 -0.24992152 2.16488042
8 10.62018100 0.00000200 0.00000000 1.47102822 0.20629073 2.99612804
9 -4.75110600 -0.69449400 0.83057700 -0.17739400 0.01599100 0.22108400
10 -1.68806800 0.00004600 -0.00003200 0.00457900 -0.02430400 1.25266100
11 -1.33614000 0.00005700 -0.00001200 0.02629800 -0.00107200 0.59212700
12 -4.82049400 -0.50946000 -0.22475900 -0.29384300 0.04878100 0.68958600
13 -1.82699200 -0.00006400 0.00000600 -0.00597100 0.04001900 1.12661300
14 -1.43657300 0.00000600 0.00000200 -0.06657600 -0.04031800 0.93461100
15 -3.99235500 -0.89118800 -1.82790900 -0.52215700 0.10628100 1.00838100
16 -1.40591800 -0.00002500 -0.00000300 -0.00793500 -0.02837500 1.14618500
17 -1.17535800 0.00012800 -0.00002000 0.06208200 0.02754600 1.05720900
18 -4.52675100 -0.69057500 -1.12074400 -0.41778200 0.08544600 1.18122300
19 -1.74403800 0.00003300 -0.00000800 -0.02502400 -0.01570900 1.42133100
20 -1.36877100 0.00002500 0.00000200 0.03357100 0.04032700 0.59071800
21 -1.91873446 -1.31984515 0.85662654 2.02384700 0.10197800 0.98895100
22 -1.62789231 0.15474815 0.01182700 -0.20199600 -0.08390500 0.59871700
23 -1.59928500 0.00000400 0.00001600 0.02557400 -0.03449400 0.91320200
24 5.51181500 0.00000800 -0.00000100 2.08521182 0.00057264 3.14130296
25 0.68299400 0.03595600 0.57798300 2.79340784 -0.00094428 -3.14132407
26 -2.92786500 -14.59732400 1.96421200 1.97586200 1.15990900 1.84280300
27 6.21448500 0.00000600 0.00002000 -0.38370640 0.51034247 -1.74170295
28 11.94488500 -0.00002900 -0.00019400 -0.35771256 -0.33387464 -1.36725159
29 10.62016600 0.00000200 0.00001000 -1.77676840 -0.69313944 0.51442341
30 4.75115600 0.69437600 -0.83047300 -0.17093900 -0.06480100 1.29897400
31 1.68806500 -0.00002600 0.00000200 0.00336200 -0.02449300 1.30290100
32 1.33615100 -0.00005100 -0.00000900 0.00799700 -0.03789800 0.16278400
33 4.82051300 0.50934000 0.22486500 -0.24420100 0.05267900 1.58206000
34 1.82699600 0.00006600 0.00000800 -0.01686069 0.03682715 0.84490265
35 1.43657700 -0.00001000 0.00000700 0.00412400 -0.01459100 0.56514400
36 3.99235300 0.89108700 1.82799400 -0.37865700 0.12332300 1.31184400
37 1.40591800 0.00002100 -0.00000700 0.00198400 -0.02939200 0.80822100
38 1.17536900 -0.00013100 0.00000200 0.10534000 0.06405800 0.98153900
39 4.52675600 0.69046000 1.12084200 -0.32139500 0.15846600 1.65825200
40 1.74404100 -0.00003100 -0.00000200 -0.01341100 -0.02631800 0.88408200
41 1.36876300 -0.00003100 -0.00001700 0.09716800 0.12559600 0.47588800
42 1.87485500 0.93508100 -0.99913000 2.38907000 0.37915900 1.26206900
43 1.52344900 -0.00003400 -0.00000300 0.04999000 0.01215500 0.50137700
44 1.59928100 -0.00000200 0.00000900 0.07849600 -0.02838400 1.17207700
45 5.51180600 -0.00000200 0.00000600 0.05767400 0.00000000 0.00000000
46 0.19685000 0.00000300 -0.00000200 -0.34822500 0.00001500 -0.00000200
47 0.00000000 0.00000000 0.00000000 0.00000000 0.00000000 -1.57079600
48 -6.52967500 79.73875400 -3.19662000 0.00000000 0.00000000 -3.14156200
49 -2.34997403 94.51007334 -2.98149620 0.19043052 0.01932858 -1.28065282
50 6.00703517 1.08055475 -6.86606707 0.70991500 1.05114300 2.16381900
51 0.99931000 0.00655900 -4.12445600 0.00000000 0.00000000 0.00000000
52 -5.53212469 0.00656000 -2.60195015 0.00000000 0.00000000 0.00000000
53 -2.12495800 0.00655900 -3.63194000 0.00000000 0.00000000 0.00000000
54 22.48682800 0.00576400 0.04656100 0.00000000 0.00000000 0.00000000
55 -6.90297100 -2.43099300 -4.62374600 3.01602400 -0.23384000 -1.83328500
time 11
0 -0.00000100 7.45008900 -27.50902600 0.00000000 0.00000000 0.00003100
1 -0.00000200 0.00000000 0.00000000 1.57074300 -1.56713700 -1.57074300
2 4.25546800 -0.33518300 -0.00000200 0.00000000 0.00000000 -0.12484800
3 7.43124800 1.49647700 0.00000200 0.00000000 0.00000000 0.24545000
4 5.27847900 0.16554100 0.00000100 0.00000000 0.00000000 0.04851100
5 2.60448404 -11.10278183 0.70685798 1.97586400 1.15990900 -1.29878600
6 -6.21448200 -0.00000700 -0.00002700 2.65847894 -0.88110121 2.78594474
7 11.94488200 0.00000000 0.00000100 -0.01080269 -0.26625129 2.13733649
8 10.62018100 0.00000200 0.00000000 1.34961089 0.30084811 2.98393034
9 -4.75110600 -0.69449400 0.83057700 -0.17739400 0.01599100 0.22108400
10 -1.68806800 0.00004600 -0.00003200 0.00457900 -0.02430400 1.25266100
11 -1.33614000 0.00005700 -0.00001200 0.02629800 -0.00107200 0.59212700
12 -4.82049400 -0.50946000 -0.22475900 -0.29384300 0.04878100 0.68958600
13 -1.82699200 -0.00006400 0.00000600 -0.00597100 0.04001900 1.12661300
14 -1.43657300 0.00000600 0.00000200 -0.06657600 -0.04031800 0.93461100
15 -3.99235500 -0.89118800 -1.82790900 -0.52215700 0.10628100 1.00838100
16 -1.40591800 -0.00002500 -0.00000300 -0.00793500 -0.02837500 1.14618500
17 -1.17535800 0.00012800 -0.00002000 0.06208200 0.02754600 1.05720900
18 -4.52675100 -0.69057500 -1.12074400 -0.41778200 0.08544600 1.18122300
19 -1.74403800 0.00003300 -0.00000800 -0.02502400 -0.01570900 1.42133100
20 -1.36877100 0.00002500 0.00000200 0.03357100 0.04032700 0.59071800
21 -1.91873446 -1.31984515 0.85662654 2.02384700 0.10197800 0.98895100
22 -1.62789231 0.15474815 0.01182700 -0.20199600 -0.08390500 0.59871700
23 -1.59928500 0.00000400 0.00001600 0.02557400 -0.03449400 0.91320200
24 5.51181500 0.00000800 -0.00000100 2.08521182 0.00057264 3.14130296
25 0.68299400 0.03595600 0.57798300 2.79340784 -0.00094428 -3.14132407
26 -2.92786500 -14.59732400 1.96421200 1.97586200 1.15990900 1.84280300
27 6.21448500 0.00000600 0.00002000 -0.37725630 0.49056634 -1.84297644
28 11.94488500 -0.00002900 -0.00019400 -0.38158495 -0.31969080 -1.29678915
29 10.62016600 0.00000200 0.00001000 -1.73047049 -0.65080084 0.52505991
30 4.75115600 0.69437600 -0.83047300 -0.17093900 -0.06480100 1.29897400
31 1.68806500 -0.00002600 0.00000200 0.00336200 -0.02449300 1.30290100
32 1.33615100 -0.00005100 -0.00000900 0.00799700 -0.03789800 0.16278400
33 4.82051300 0.50934000 0.22486500 -0.24420100 0.05267900 1.58206000
34 1.82699600 0.00006600 0.00000800 -0.01686069 0.03682715 0.84490265
35 1.43657700 -0.00001000 0.00000700 0.00412400 -0.01459100 0.56514400
36 3.99235300 0.89108700 1.82799400 -0.37865700 0.12332300 1.31184400
37 1.40591800 0.00002100 -0.00000700 0.00198400 -0.02939200 0.80822100
38 1.17536900 -0.00013100 0.00000200 0.10534000 0.06405800 0.98153900
39 4.52675600 0.69046000 1.12084200 -0.32139500 0.15846600 1.65825200
40 1.74404100 -0.00003100 -0.00000200 -0.01341100 -0.02631800 0.88408200
41 1.36876300 -0.00003100 -0.00001700 0.09716800 0.12559600 0.47588800
42 1.87485500 0.93508100 -0.99913000 2.38907000 0.37915900 1.26206900
43 1.52344900 -0.00003400 -0.00000300 0.04999000 0.01215500 0.50137700
44 1.59928100 -0.00000200 0.00000900 0.07849600 -0.02838400 1.17207700
45 5.51180600 -0.00000200 0.00000600 0.05767400 0.00000000 0.00000000
46 0.19685000 0.00000300 -0.00000200 -0.34822500 0.00001500 -0.00000200
47 0.00000000 0.00000000 0.00000000 0.00000000 0.00000000 -1.57079600
48 -6.52967500 79.73875400 -3.19662000 0.00000000 0.00000000 -3.14156200
49 -0.80132859 94.42300664 -2.99018354 0.08513089 -0.00153123 -1.36825828
50 6.00703517 1.08055475 -6.86606707 0.70991500 1.05114300 2.16381900
51 0.99931000 0.00655900 -4.12445600 0.00000000 0.00000000 0.00000000
52 -5.53212469 0.00656000 -2.60195015 0.00000000 0.00000000 0.00000000
53 -2.12495800 0.00655900 -3.63194000 0.00000000 0.00000000 0.00000000
54 22.48682800 0.00576400 0.04656100 0.00000000 0.00000000 0.00000000
55 -6.90297100 -2.43099300 -4.62374600 3.01602400 -0.23384000 -1.83328500
time 12
0 -0.00000100 7.45008900 -27.50902600 0.00000000 0.00000000 0.00003100
1 -0.00000200 0.00000000 0.00000000 1.57074300 -1.56713700 -1.57074300
2 4.25546800 -0.33518300 -0.00000200 0.00000000 0.00000000 -0.12484800
3 7.43124800 1.49647700 0.00000200 0.00000000 0.00000000 0.24545000
4 5.27847900 0.16554100 0.00000100 0.00000000 0.00000000 0.04851100
5 2.36459725 -10.45895887 0.95188828 1.97586400 1.15990900 -1.29878600
6 -6.21448200 -0.00000700 -0.00002700 2.68427330 -0.84491196 2.74824167
7 11.94488200 0.00000000 0.00000100 -0.01374068 -0.27164518 2.14590266
8 10.62018100 0.00000200 0.00000000 1.20970918 0.39903159 2.87205375
9 -4.75110600 -0.69449400 0.83057700 -0.17739400 0.01599100 0.22108400
10 -1.68806800 0.00004600 -0.00003200 0.00457900 -0.02430400 1.25266100
11 -1.33614000 0.00005700 -0.00001200 0.02629800 -0.00107200 0.59212700
12 -4.82049400 -0.50946000 -0.22475900 -0.29384300 0.04878100 0.68958600
13 -1.82699200 -0.00006400 0.00000600 -0.00597100 0.04001900 1.12661300
14 -1.43657300 0.00000600 0.00000200 -0.06657600 -0.04031800 0.93461100
15 -3.99235500 -0.89118800 -1.82790900 -0.52215700 0.10628100 1.00838100
16 -1.40591800 -0.00002500 -0.00000300 -0.00793500 -0.02837500 1.14618500
17 -1.17535800 0.00012800 -0.00002000 0.06208200 0.02754600 1.05720900
18 -4.52675100 -0.69057500 -1.12074400 -0.41778200 0.08544600 1.18122300
19 -1.74403800 0.00003300 -0.00000800 -0.02502400 -0.01570900 1.42133100
20 -1.36877100 0.00002500 0.00000200 0.03357100 0.04032700 0.59071800
21 -1.91873446 -1.31984515 0.85662654 2.02384700 0.10197800 0.98895100
22 -1.62789231 0.15474815 0.01182700 -0.20199600 -0.08390500 0.59871700
23 -1.59928500 0.00000400 0.00001600 0.02557400 -0.03449400 0.91320200
24 5.51181500 0.00000800 -0.00000100 2.08521182 0.00057264 3.14130296
25 0.68299400 0.03595600 0.57798300 2.79340784 -0.00094428 -3.14132407
26 -2.92786500 -14.59732400 1.96421200 1.97586200 1.15990900 1.84280300
27 6.21448500 0.00000600 0.00002000 -0.38355368 0.46331467 -1.93860807
28 11.94488500 -0.00002900 -0.00019400 -0.40792220 -0.30311818 -1.21802526
29 10.62016600 0.00000200 0.00001000 -1.66533045 -0.60497328 0.53455228
30 4.75115600 0.69437600 -0.83047300 -0.17093900 -0.06480100 1.29897400
31 1.68806500 -0.00002600 0.00000200 0.00336200 -0.02449300 1.30290100
32 1.33615100 -0.00005100 -0.00000900 0.00799700 -0.03789800 0.16278400
33 4.82051300 0.50934000 0.22486500 -0.24420100 0.05267900 1.58206000
34 1.82699600 0.00006600 0.00000800 -0.01686069 0.03682715 0.84490265
35 1.43657700 -0.00001000 0.00000700 0.00412400 -0.01459100 0.56514400
36 3.99235300 0.89108700 1.82799400 -0.37865700 0.12332300 1.31184400
37 1.40591800 0.00002100 -0.00000700 0.00198400 -0.02939200 0.80822100
38 1.17536900 -0.00013100 0.00000200 0.10534000 0.06405800 0.98153900
39 4.52675600 0.69046000 1.12084200 -0.32139500 0.15846600 1.65825200
40 1.74404100 -0.00003100 -0.00000200 -0.01341100 -0.02631800 0.88408200
41 1.36876300 -0.00003100 -0.00001700 0.09716800 0.12559600 0.47588800
42 1.87485500 0.93508100 -0.99913000 2.38907000 0.37915900 1.26206900
43 1.52344900 -0.00003400 -0.00000300 0.04999000 0.01215500 0.50137700
44 1.59928100 -0.00000200 0.00000900 0.07849600 -0.02838400 1.17207700
45 5.51180600 -0.00000200 0.00000600 0.05767400 0.00000000 0.00000000
46 0.19685000 0.00000300 -0.00000200 -0.34822500 0.00001500 -0.00000200
47 0.00000000 0.00000000 0.00000000 0.00000000 0.00000000 -1.57079600
48 -6.52967500 79.73875400 -3.19662000 0.00000000 0.00000000 -3.14156200
49 0.69002503 94.34886597 -2.95708039 -0.02846157 -0.02201909 -1.43498869
50 6.00703517 1.08055475 -6.86606707 0.70991500 1.05114300 2.16381900
51 0.99931000 0.00655900 -4.12445600 0.00000000 0.00000000 0.00000000
52 -5.53212469 0.00656000 -2.60195015 0.00000000 0.00000000 0.00000000
53 -2.12495800 0.00655900 -3.63194000 0.00000000 0.00000000 0.00000000
54 22.48682800 0.00576400 0.04656100 0.00000000 0.00000000 0.00000000
55 -6.90297100 -2.43099300 -4.62374600 3.01602400 -0.23384000 -1.83328500
time 13
0 -0.00000100 7.45008900 -27.50902600 0.00000000 0.00000000 0.00003100
1 -0.00000200 0.00000000 0.00000000 1.57074300 -1.56713700 -1.57074300
2 4.25546800 -0.33518300 -0.00000200 0.00000000 0.00000000 -0.12484800
3 7.43124800 1.49647700 0.00000200 0.00000000 0.00000000 0.24545000
4 5.27847900 0.16554100 0.00000100 0.00000000 0.00000000 0.04851100
5 1.71694943 -9.76047647 1.77821332 1.97586400 1.15990900 -1.29878600
6 -6.21448200 -0.00000700 -0.00002700 2.77426816 -0.83692969 2.62146641
7 11.94488200 0.00000000 0.00000100 -0.02176501 -0.26750384 2.17310475
8 10.62018100 0.00000200 0.00000000 1.07737945 0.48437965 2.68381765
9 -4.75110600 -0.69449400 0.83057700 -0.17739400 0.01599100 0.22108400
10 -1.68806800 0.00004600 -0.00003200 0.00457900 -0.02430400 1.25266100
11 -1.33614000 0.00005700 -0.00001200 0.02629800 -0.00107200 0.59212700
12 -4.82049400 -0.50946000 -0.22475900 -0.29384300 0.04878100 0.68958600
13 -1.82699200 -0.00006400 0.00000600 -0.00597100 0.04001900 1.12661300
14 -1.43657300 0.00000600 0.00000200 -0.06657600 -0.04031800 0.93461100
15 -3.99235500 -0.89118800 -1.82790900 -0.52215700 0.10628100 1.00838100
16 -1.40591800 -0.00002500 -0.00000300 -0.00793500 -0.02837500 1.14618500
17 -1.17535800 0.00012800 -0.00002000 0.06208200 0.02754600 1.05720900
18 -4.52675100 -0.69057500 -1.12074400 -0.41778200 0.08544600 1.18122300
19 -1.74403800 0.00003300 -0.00000800 -0.02502400 -0.01570900 1.42133100
20 -1.36877100 0.00002500 0.00000200 0.03357100 0.04032700 0.59071800
21 -1.91873446 -1.31984515 0.85662654 2.02384700 0.10197800 0.98895100
22 -1.62789231 0.15474815 0.01182700 -0.20199600 -0.08390500 0.59871700
23 -1.59928500 0.00000400 0.00001600 0.02557400 -0.03449400 0.91320200
24 5.51181500 0.00000800 -0.00000100 2.08521182 0.00057264 3.14130296
25 0.68299400 0.03595600 0.57798300 2.79340784 -0.00094428 -3.14132407
26 -2.92786500 -14.59732400 1.96421200 1.97586200 1.15990900 1.84280300
27 6.21448500 0.00000600 0.00002000 -0.39893842 0.43098327 -2.02256863
28 11.94488500 -0.00002900 -0.00019400 -0.43451889 -0.28445062 -1.13749360
29 10.62016600 0.00000200 0.00001000 -1.59308053 -0.56179703 0.54054946
30 4.75115600 0.69437600 -0.83047300 -0.17093900 -0.06480100 1.29897400
31 1.68806500 -0.00002600 0.00000200 0.00336200 -0.02449300 1.30290100
32 1.33615100 -0.00005100 -0.00000900 0.00799700 -0.03789800 0.16278400
33 4.82051300 0.50934000 0.22486500 -0.24420100 0.05267900 1.58206000
34 1.82699600 0.00006600 0.00000800 -0.01686069 0.03682715 0.84490265
35 1.43657700 -0.00001000 0.00000700 0.00412400 -0.01459100 0.56514400
36 3.99235300 0.89108700 1.82799400 -0.37865700 0.12332300 1.31184400
37 1.40591800 0.00002100 -0.00000700 0.00198400 -0.02939200 0.80822100
38 1.17536900 -0.00013100 0.00000200 0.10534000 0.06405800 0.98153900
39 4.52675600 0.69046000 1.12084200 -0.32139500 0.15846600 1.65825200
40 1.74404100 -0.00003100 -0.00000200 -0.01341100 -0.02631800 0.88408200
41 1.36876300 -0.00003100 -0.00001700 0.09716800 0.12559600 0.47588800
42 1.87485500 0.93508100 -0.99913000 2.38907000 0.37915900 1.26206900
43 1.52344900 -0.00003400 -0.00000300 0.04999000 0.01215500 0.50137700
44 1.59928100 -0.00000200 0.00000900 0.07849600 -0.02838400 1.17207700
45 5.51180600 -0.00000200 0.00000600 0.05767400 0.00000000 0.00000000
46 0.19685000 0.00000300 -0.00000200 -0.34822500 0.00001500 -0.00000200
47 0.00000000 0.00000000 0.00000000 0.00000000 0.00000000 -1.57079600
48 -6.52967500 79.73875400 -3.19662000 0.00000000 0.00000000 -3.14156200
49 1.99054774 94.29133577 -2.89119711 -0.13544293 -0.03859137 -1.48162045
50 6.00703517 1.08055475 -6.86606707 0.70991500 1.05114300 2.16381900
51 0.99931000 0.00655900 -4.12445600 0.00000000 0.00000000 0.00000000
52 -5.53212469 0.00656000 -2.60195015 0.00000000 0.00000000 0.00000000
53 -2.12495800 0.00655900 -3.63194000 0.00000000 0.00000000 0.00000000
54 22.48682800 0.00576400 0.04656100 0.00000000 0.00000000 0.00000000
55 -6.90297100 -2.43099300 -4.62374600 3.01602400 -0.23384000 -1.83328500
time 14
0 -0.00000100 7.45008900 -27.50902600 0.00000000 0.00000000 0.00003100
1 -0.00000200 0.00000000 0.00000000 1.57074300 -1.56713700 -1.57074300
2 4.25546800 -0.33518300 -0.00000200 0.00000000 0.00000000 -0.12484800
3 7.43124800 1.49647700 0.00000200 0.00000000 0.00000000 0.24545000
4 5.27847900 0.16554100 0.00000100 0.00000000 0.00000000 0.04851100
5 1.04624504 -9.20005606 2.65978057 1.97586400 1.15990900 -1.29878600
6 -6.21448200 -0.00000700 -0.00002700 2.87985169 -0.83244159 2.46835241
7 11.94488200 0.00000000 0.00000100 -0.02683611 -0.26349989 2.19030331
8 10.62018100 0.00000200 0.00000000 0.96567485 0.54924411 2.50378599
9 -4.75110600 -0.69449400 0.83057700 -0.17739400 0.01599100 0.22108400
10 -1.68806800 0.00004600 -0.00003200 0.00457900 -0.02430400 1.25266100
11 -1.33614000 0.00005700 -0.00001200 0.02629800 -0.00107200 0.59212700
12 -4.82049400 -0.50946000 -0.22475900 -0.29384300 0.04878100 0.68958600
13 -1.82699200 -0.00006400 0.00000600 -0.00597100 0.04001900 1.12661300
14 -1.43657300 0.00000600 0.00000200 -0.06657600 -0.04031800 0.93461100
15 -3.99235500 -0.89118800 -1.82790900 -0.52215700 0.10628100 1.00838100
16 -1.40591800 -0.00002500 -0.00000300 -0.00793500 -0.02837500 1.14618500
17 -1.17535800 0.00012800 -0.00002000 0.06208200 0.02754600 1.05720900
18 -4.52675100 -0.69057500 -1.12074400 -0.41778200 0.08544600 1.18122300
19 -1.74403800 0.00003300 -0.00000800 -0.02502400 -0.01570900 1.42133100
20 -1.36877100 0.00002500 0.00000200 0.03357100 0.04032700 0.59071800
21 -1.91873446 -1.31984515 0.85662654 2.02384700 0.10197800 0.98895100
22 -1.62789231 0.15474815 0.01182700 -0.20199600 -0.08390500 0.59871700
23 -1.59928500 0.00000400 0.00001600 0.02557400 -0.03449400 0.91320200
24 5.51181500 0.00000800 -0.00000100 2.08521182 0.00057264 3.14130296
25 0.68299400 0.03595600 0.57798300 2.79340784 -0.00094428 -3.14132407
26 -2.92786500 -14.59732400 1.96421200 1.97586200 1.15990900 1.84280300
27 6.21448500 0.00000600 0.00002000 -0.41824220 0.40075960 -2.08490012
28 11.94488500 -0.00002900 -0.00019400 -0.45635247 -0.26846917 -1.06964946
29 10.62016600 0.00000200 0.00001000 -1.52305077 -0.52595950 0.54063198
30 4.75115600 0.69437600 -0.83047300 -0.17093900 -0.06480100 1.29897400
31 1.68806500 -0.00002600 0.00000200 0.00336200 -0.02449300 1.30290100
32 1.33615100 -0.00005100 -0.00000900 0.00799700 -0.03789800 0.16278400
33 4.82051300 0.50934000 0.22486500 -0.24420100 0.05267900 1.58206000
34 1.82699600 0.00006600 0.00000800 -0.01686069 0.03682715 0.84490265
35 1.43657700 -0.00001000 0.00000700 0.00412400 -0.01459100 0.56514400
36 3.99235300 0.89108700 1.82799400 -0.37865700 0.12332300 1.31184400
37 1.40591800 0.00002100 -0.00000700 0.00198400 -0.02939200 0.80822100
38 1.17536900 -0.00013100 0.00000200 0.10534000 0.06405800 0.98153900
39 4.52675600 0.69046000 1.12084200 -0.32139500 0.15846600 1.65825200
40 1.74404100 -0.00003100 -0.00000200 -0.01341100 -0.02631800 0.88408200
41 1.36876300 -0.00003100 -0.00001700 0.09716800 0.12559600 0.47588800
42 1.87485500 0.93508100 -0.99913000 2.38907000 0.37915900 1.26206900
43 1.52344900 -0.00003400 -0.00000300 0.04999000 0.01215500 0.50137700
44 1.59928100 -0.00000200 0.00000900 0.07849600 -0.02838400 1.17207700
45 5.51180600 -0.00000200 0.00000600 0.05767400 0.00000000 0.00000000
46 0.19685000 0.00000300 -0.00000200 -0.34822500 0.00001500 -0.00000200
47 0.00000000 0.00000000 0.00000000 0.00000000 0.00000000 -1.57079600
48 -6.52967500 79.73875400 -3.19662000 0.00000000 0.00000000 -3.14156200
49 2.92892104 94.25411403 -2.81797872 -0.22195638 -0.04710074 -1.50990466
50 6.00703517 1.08055475 -6.86606707 0.70991500 1.05114300 2.16381900
51 0.99931000 0.00655900 -4.12445600 0.00000000 0.00000000 0.00000000
52 -5.53212469 0.00656000 -2.60195015 0.00000000 0.00000000 0.00000000
53 -2.12495800 0.00655900 -3.63194000 0.00000000 0.00000000 0.00000000
54 22.48682800 0.00576400 0.04656100 0.00000000 0.00000000 0.00000000
55 -6.90297100 -2.43099300 -4.62374600 3.01602400 -0.23384000 -1.83328500
time 15
0 -0.00000100 7.45008900 -27.50902600 0.00000000 0.00000000 0.00003100
1 -0.00000200 0.00000000 0.00000000 1.57074300 -1.56713700 -1.57074300
2 4.25546800 -0.33518300 -0.00000200 0.00000000 0.00000000 -0.12484800
3 7.43124800 1.49647700 0.00000200 0.00000000 0.00000000 0.24545000
4 5.27847900 0.16554100 0.00000100 0.00000000 0.00000000 0.04851100
5 0.73718600 -8.97042500 3.07053500 1.97586400 1.15990900 -1.29878600
6 -6.21448200 -0.00000700 -0.00002700 2.93290184 -0.82751187 2.38807046
7 11.94488200 0.00000000 0.00000100 -0.02734966 -0.26312448 2.19182238
8 10.62018100 0.00000200 0.00000000 0.90685587 0.58243018 2.42162125
9 -4.75110600 -0.69449400 0.83057700 -0.17739400 0.01599100 0.22108400
10 -1.68806800 0.00004600 -0.00003200 0.00457900 -0.02430400 1.25266100
11 -1.33614000 0.00005700 -0.00001200 0.02629800 -0.00107200 0.59212700
12 -4.82049400 -0.50946000 -0.22475900 -0.29384300 0.04878100 0.68958600
13 -1.82699200 -0.00006400 0.00000600 -0.00597100 0.04001900 1.12661300
14 -1.43657300 0.00000600 0.00000200 -0.06657600 -0.04031800 0.93461100
15 -3.99235500 -0.89118800 -1.82790900 -0.52215700 0.10628100 1.00838100
16 -1.40591800 -0.00002500 -0.00000300 -0.00793500 -0.02837500 1.14618500
17 -1.17535800 0.00012800 -0.00002000 0.06208200 0.02754600 1.05720900
18 -4.52675100 -0.69057500 -1.12074400 -0.41778200 0.08544600 1.18122300
19 -1.74403800 0.00003300 -0.00000800 -0.02502400 -0.01570900 1.42133100
20 -1.36877100 0.00002500 0.00000200 0.03357100 0.04032700 0.59071800
21 -1.91873446 -1.31984500 0.85662654 2.02384700 0.10197800 0.98895100
22 -1.62789215 0.15474785 0.01182685 -0.20199600 -0.08390500 0.59871700
23 -1.59928500 0.00000400 0.00001600 0.02557400 -0.03449400 0.91320200
24 5.51181500 0.00000800 -0.00000100 2.08521182 0.00057264 3.14130296
25 0.68299400 0.03595600 0.57798300 2.79340784 -0.00094428 -3.14132407
26 -2.92786500 -14.59732400 1.96421200 1.97586200 1.15990900 1.84280300
27 6.21448500 0.00000600 0.00002000 -0.43268444 0.38134474 -2.11640840
28 11.94488500 -0.00002900 -0.00019400 -0.46830655 -0.26065228 -1.03086306
29 10.62016600 0.00000200 0.00001000 -1.47672939 -0.50482464 0.53442528
30 4.75115600 0.69437600 -0.83047300 -0.17093900 -0.06480100 1.29897400
31 1.68806500 -0.00002600 0.00000200 0.00336200 -0.02449300 1.30290100
32 1.33615100 -0.00005100 -0.00000900 0.00799700 -0.03789800 0.16278400
33 4.82051300 0.50934000 0.22486500 -0.24420100 0.05267900 1.58206000
34 1.82699600 0.00006600 0.00000800 -0.01686069 0.03682715 0.84490265
35 1.43657700 -0.00001000 0.00000700 0.00412400 -0.01459100 0.56514400
36 3.99235300 0.89108700 1.82799400 -0.37865700 0.12332300 1.31184400
37 1.40591800 0.00002100 -0.00000700 0.00198400 -0.02939200 0.80822100
38 1.17536900 -0.00013100 0.00000200 0.10534000 0.06405800 0.98153900
39 4.52675600 0.69046000 1.12084200 -0.32139500 0.15846600 1.65825200
40 1.74404100 -0.00003100 -0.00000200 -0.01341100 -0.02631800 0.88408200
41 1.36876300 -0.00003100 -0.00001700 0.09716800 0.12559600 0.47588800
42 1.87485500 0.93508100 -0.99913000 2.38907000 0.37915900 1.26206900
43 1.52344900 -0.00003400 -0.00000300 0.04999000 0.01215500 0.50137700
44 1.59928100 -0.00000200 0.00000900 0.07849600 -0.02838400 1.17207700
45 5.51180600 -0.00000200 0.00000600 0.05767400 0.00000000 0.00000000
46 0.19685000 0.00000300 -0.00000200 -0.34822500 0.00001500 -0.00000200
47 0.00000000 0.00000000 0.00000000 0.00000000 0.00000000 -1.57079600
48 -6.52967500 79.73875400 -3.19662000 0.00000000 0.00000000 -3.14156200
49 3.35793198 94.24088396 -2.75773347 -0.26766153 -0.04531867 -1.52236839
50 6.00702838 1.08055213 -6.86606738 0.70991500 1.05114300 2.16381900
51 0.99931000 0.00655900 -4.12445600 0.00000000 0.00000000 0.00000000
52 -5.53212469 0.00656000 -2.60195015 0.00000000 0.00000000 0.00000000
53 -2.12495800 0.00655900 -3.63194000 0.00000000 0.00000000 0.00000000
54 22.48682800 0.00576400 0.04656100 0.00000000 0.00000000 0.00000000
55 -6.90297100 -2.43099300 -4.62374600 3.01602400 -0.23384000 -1.83328500
end
