version 1
nodes
0 "root" -1
1 "pelvis" 0
2 "spine_01" 1
3 "spine_02" 2
4 "spine_03" 3
5 "clavicle_r" 4
6 "upperarm_r" 5
7 "lowerarm_r" 6
8 "hand_r" 7
9 "index_01_r" 8
10 "index_02_r" 9
11 "index_03_r" 10
12 "middle_01_r" 8
13 "middle_02_r" 12
14 "middle_03_r" 13
15 "pinky_01_r" 8
16 "pinky_02_r" 15
17 "pinky_03_r" 16
18 "ring_01_r" 8
19 "ring_02_r" 18
20 "ring_03_r" 19
21 "thumb_01_r" 8
22 "thumb_02_r" 21
23 "thumb_03_r" 22
24 "BaseMesh" 8
25 "Bolt_1" 24
26 "Bolt_2" 25
27 "Bolt_3" 26
28 "Mag" 24
29 "Trigger" 24
30 "MagRelease" 24
31 "rhand_ikTarget" 24
32 "LHand_IKtarget" 24
33 "lowerarm_twist_01_r" 7
34 "upperarm_twist_01_r" 6
35 "clavicle_l" 4
36 "upperarm_l" 35
37 "lowerarm_l" 36
38 "hand_l" 37
39 "index_01_l" 38
40 "index_02_l" 39
41 "index_03_l" 40
42 "middle_01_l" 38
43 "middle_02_l" 42
44 "middle_03_l" 43
45 "pinky_01_l" 38
46 "pinky_02_l" 45
47 "pinky_03_l" 46
48 "ring_01_l" 38
49 "ring_02_l" 48
50 "ring_03_l" 49
51 "thumb_01_l" 38
52 "thumb_02_l" 51
53 "thumb_03_l" 52
54 "BaseLeftMesh" 38
55 "MagLeft" 54
56 "TriggerLeft" 54
57 "MagReleaseLeft" 54
58 "Bolt_1Left" 54
59 "Bolt_2Left" 58
60 "Bolt_3Left" 59
61 "lowerarm_twist_01_l" 37
62 "upperarm_twist_01_l" 36
63 "cam_driver" -1
end
skeleton
time 0
0 -0.00000100 7.45008900 -27.50902600 0.00000000 0.00000000 0.00003100
1 -0.00000200 0.00000000 0.00000000 1.57074700 -1.56714200 -1.57074700
2 4.25546600 -0.33518300 -0.00000200 0.00000000 0.00000000 -0.12484800
3 7.43125000 1.49647900 0.00000200 0.00000000 0.00000000 0.24545000
4 5.27847900 0.16554400 0.00000100 0.00000000 0.00000000 0.04851100
5 3.45552600 -8.40060600 1.48897600 1.97586500 1.15990900 -1.29878600
6 -6.21447800 -0.00000900 -0.00002600 -2.62709968 -0.44802909 1.37895990
7 11.94488500 0.00000000 0.00000000 -0.05330222 -0.30647191 1.05278128
8 10.62018800 0.00000000 0.00000000 1.18332799 0.41203033 2.55907825
9 -4.75110800 -0.69449800 0.83058000 -0.04968800 -0.21857600 0.31947600
10 -1.68806800 0.00004700 -0.00003100 0.00926500 -0.02287100 1.05406500
11 -1.33614000 0.00005500 -0.00001000 0.02626000 0.00210400 0.47322100
12 -4.82049400 -0.50946400 -0.22475900 -0.45370700 -0.02961400 1.46569200
13 -1.82698400 -0.00006900 0.00000800 0.00189300 0.04041100 1.32170200
14 -1.43656900 0.00000400 0.00000300 -0.05375200 -0.05614500 0.67250000
15 -3.99235700 -0.89119100 -1.82790900 -0.62000300 0.31411000 1.76409400
16 -1.40591800 -0.00002500 -0.00000200 -0.00129200 -0.02942300 0.92066700
17 -1.17535800 0.00012600 -0.00001900 0.05085000 0.08568500 0.76620000
18 -4.52675100 -0.69058000 -1.12074100 -0.56396100 0.15141100 1.67446600
19 -1.74403400 0.00003100 -0.00000700 -0.02083900 -0.02101900 1.19257100
20 -1.36876700 0.00002100 0.00000500 0.03795400 0.03618700 0.70440900
21 -1.71880300 -1.28270600 0.93153400 1.92208600 0.68600200 0.68044800
22 -1.52344700 0.00003100 0.00003100 -0.19097800 0.11191200 0.75188300
23 -1.59928500 0.00001100 0.00001500 -0.07634400 -0.04309900 0.82700900
24 -5.72900500 -2.07522500 1.26164400 -0.22131700 -0.25482300 0.38567300
25 4.03262700 -0.05195900 1.39297000 0.00000000 0.00000100 1.57079600
26 0.00000000 1.79435200 -0.11224600 0.00000000 0.00000000 0.00000000
27 0.00000100 1.95988100 0.11224500 -0.09957600 -0.00000500 0.00000000
28 0.90794400 -0.01874400 0.44405500 0.00000000 0.00000200 0.00000000
29 -1.00263100 -0.00968800 0.10351000 0.00000000 0.00000200 0.00000000
30 0.34110300 -0.69403300 -0.27889800 0.00000000 0.00000200 0.00000000
31 5.57407000 0.37809200 -2.73982300 0.46912600 1.00744600 1.76807200
32 5.96844200 -9.06254100 -2.17887300 2.96153400 -0.25924900 -1.35506600
33 5.51182000 0.00000800 -0.00000200 2.24315294 0.00029211 3.14143594
34 0.19684600 -0.00000200 0.00000300 2.79340692 -0.00055604 -3.14146587
35 3.45552600 -8.40060500 -1.48897700 1.97586200 1.15991000 1.84280300
36 6.21448600 0.00000800 0.00001900 -0.37859467 0.46697020 -1.65810488
37 11.94488800 -0.00003100 -0.00020000 -0.54403308 -0.32907036 -1.21484779
38 10.62016500 0.00000200 0.00000100 -1.48080537 -0.73368012 0.32927542
39 4.75115400 0.69439100 -0.83047600 -0.05604000 -0.27916000 0.54614000
40 1.68807200 -0.00002800 0.00000300 0.01539000 -0.01932400 0.76600700
41 1.33615100 -0.00005100 -0.00000900 -0.01007300 -0.03740000 0.63314200
42 4.82051100 0.50935400 0.22486200 -0.50465500 -0.07895800 1.32843800
43 1.82700000 0.00007100 0.00001000 -0.00009900 0.09268000 1.27107100
44 1.43658800 -0.00000800 0.00001000 0.00128400 -0.01507900 0.75225800
45 3.99235300 0.89109800 1.82799400 -0.69420600 0.26490800 1.45157800
46 1.40591400 0.00002300 -0.00000500 -0.00636800 -0.00481500 1.09379200
47 1.17536500 -0.00013100 0.00000100 0.07309900 0.09934300 0.59118900
48 4.52675800 0.69047400 1.12084100 -0.62572200 0.07506900 1.45199700
49 1.74403800 -0.00003100 -0.00000300 -0.00781000 0.00768100 1.31718700
50 1.36875900 -0.00002800 -0.00001300 0.00110000 0.14281800 0.58694100
51 1.87485500 0.93508500 -0.99913000 2.20042200 0.62653300 1.17457300
52 1.52345800 -0.00003100 -0.00000200 -0.49435700 -0.15897800 0.91724000
53 1.59927600 0.00000200 0.00000700 0.08104100 0.01999600 0.58449300
54 5.97544100 2.52891300 -1.05694100 -3.06047300 0.29749000 -2.77827600
55 0.90794400 -0.01874300 0.44405700 -0.00000100 0.00000000 0.00000000
56 -1.00262800 -0.00968800 0.10351000 -0.00000100 0.00000000 0.00000000
57 0.34110300 -0.69403300 -0.27889800 -0.00000100 0.00000000 0.00000000
58 4.03262200 -0.05195600 1.39297500 0.00000000 0.00000100 1.57079600
59 0.00000000 1.79435100 -0.11224500 0.00000000 0.00000000 0.00000000
60 -0.00000100 1.95988200 0.11224500 -0.09957600 -0.00000500 0.00000100
61 5.51180800 -0.00000200 0.00000100 -0.23579700 0.00000500 0.00000700
62 0.19684900 0.00000300 -0.00000100 -0.34822500 0.00001500 -0.00000200
63 0.00000000 0.00000000 0.00000000 0.00000000 0.00000000 -1.57079600
time 1
0 -0.00000100 7.45008900 -27.50902600 0.00000000 0.00000000 0.00003100
1 -0.00000200 0.00000000 0.00000000 1.57074700 -1.56714200 -1.57074700
2 4.25546600 -0.33518300 -0.00000200 0.00000000 0.00000000 -0.12484800
3 7.43125000 1.49647900 0.00000200 0.00000000 0.00000000 0.24545000
4 5.27847900 0.16554400 0.00000100 0.00000000 0.00000000 0.04851100
5 3.30718900 -8.49202300 1.48897600 1.97586500 1.15990900 -1.29878600
6 -6.21447800 -0.00000900 -0.00002600 -2.60584008 -0.44489162 1.37176131
7 11.94488500 0.00000000 0.00000000 -0.06748969 -0.31370406 1.09907675
8 10.62018800 0.00000000 0.00000000 1.16588545 0.37975500 2.48052623
9 -4.75110800 -0.69449800 0.83058000 -0.04968800 -0.21857600 0.31947600
10 -1.68806800 0.00004700 -0.00003100 0.00926500 -0.02287100 1.05406500
11 -1.33614000 0.00005500 -0.00001000 0.02626000 0.00210400 0.47322100
12 -4.82049400 -0.50946400 -0.22475900 -0.45370700 -0.02961400 1.46569200
13 -1.82698400 -0.00006900 0.00000800 0.00189300 0.04041100 1.32170200
14 -1.43656900 0.00000400 0.00000300 -0.05375200 -0.05614500 0.67250000
15 -3.99235700 -0.89119100 -1.82790900 -0.62000300 0.31411000 1.76409400
16 -1.40591800 -0.00002500 -0.00000200 -0.00129200 -0.02942300 0.92066700
17 -1.17535800 0.00012600 -0.00001900 0.05085000 0.08568500 0.76620000
18 -4.52675100 -0.69058000 -1.12074100 -0.56396100 0.15141100 1.67446600
19 -1.74403400 0.00003100 -0.00000700 -0.02083900 -0.02101900 1.19257100
20 -1.36876700 0.00002100 0.00000500 0.03795400 0.03618700 0.70440900
21 -1.71880300 -1.28270600 0.93153400 1.92208600 0.68600200 0.68044800
22 -1.52344700 0.00003100 0.00003100 -0.19097800 0.11191200 0.75188300
23 -1.59928500 0.00001100 0.00001500 -0.07634400 -0.04309900 0.82700900
24 -5.72900500 -2.07522500 1.26164400 -0.22131700 -0.25482300 0.38567300
25 4.03262700 -0.05195900 1.39297000 0.00000000 0.00000100 1.57079600
26 0.00000000 1.79435200 -0.11224600 0.00000000 0.00000000 0.00000000
27 0.00000100 1.95988100 0.11224500 -0.09957600 -0.00000500 0.00000000
28 0.90794400 -0.01874400 0.44405500 0.00000000 0.00000200 0.00000000
29 -1.00263100 -0.00968800 0.10351000 0.00000000 0.00000200 0.00000000
30 0.34110300 -0.69403300 -0.27889800 0.00000000 0.00000200 0.00000000
31 5.57407000 0.37809200 -2.73982300 0.46912600 1.00744600 1.76807200
32 5.98512200 -9.05536200 -2.75406400 2.94314300 -0.19756200 -1.36299100
33 5.51182000 0.00000800 -0.00000200 2.24315294 0.00029211 3.14143594
34 0.19684600 -0.00000200 0.00000300 2.79340692 -0.00055604 -3.14146587
35 3.30718900 -8.49202300 -1.48897800 1.97586200 1.15991000 1.84280300
36 6.21448600 0.00000800 0.00001900 -0.39228299 0.48299229 -1.65235017
37 11.94488800 -0.00003100 -0.00020000 -0.52618496 -0.33481059 -1.26974008
38 10.62016500 0.00000200 0.00000100 -1.50894550 -0.74906007 0.37014517
39 4.75115400 0.69439100 -0.83047600 -0.05604000 -0.27916000 0.54614000
40 1.68807200 -0.00002800 0.00000300 0.01539000 -0.01932400 0.76600700
41 1.33615100 -0.00005100 -0.00000900 -0.01007300 -0.03740000 0.63314200
42 4.82051100 0.50935400 0.22486200 -0.50465500 -0.07895800 1.32843800
43 1.82700000 0.00007100 0.00001000 -0.00009900 0.09268000 1.27107100
44 1.43658800 -0.00000800 0.00001000 0.00128400 -0.01507900 0.75225800
45 3.99235300 0.89109800 1.82799400 -0.69420600 0.26490800 1.45157800
46 1.40591400 0.00002300 -0.00000500 -0.00636800 -0.00481500 1.09379200
47 1.17536500 -0.00013100 0.00000100 0.07309900 0.09934300 0.59118900
48 4.52675800 0.69047400 1.12084100 -0.62572200 0.07506900 1.45199700
49 1.74403800 -0.00003100 -0.00000300 -0.00781000 0.00768100 1.31718700
50 1.36875900 -0.00002800 -0.00001300 0.00110000 0.14281800 0.58694100
51 1.87485500 0.93508500 -0.99913000 2.20042200 0.62653300 1.17457300
52 1.52345800 -0.00003100 -0.00000200 -0.49435700 -0.15897800 0.91724000
53 1.59927600 0.00000200 0.00000700 0.08104100 0.01999600 0.58449300
54 5.97544100 2.52891300 -1.05694100 -3.06047300 0.29749000 -2.77827600
55 0.90794400 -0.01874300 0.44405700 -0.00000100 0.00000000 0.00000000
56 -1.00262800 -0.00968800 0.10351000 -0.00000100 0.00000000 0.00000000
57 0.34110300 -0.69403300 -0.27889800 -0.00000100 0.00000000 0.00000000
58 4.03262200 -0.05195600 1.39297500 0.00000000 0.00000100 1.57079600
59 0.00000000 1.79435100 -0.11224500 0.00000000 0.00000000 0.00000000
60 -0.00000100 1.95988200 0.11224500 -0.09957600 -0.00000500 0.00000100
61 5.51180800 -0.00000200 0.00000100 -0.23579700 0.00000500 0.00000700
62 0.19684900 0.00000300 -0.00000100 -0.34822500 0.00001500 -0.00000200
63 0.00000000 0.00000000 0.00000000 0.00000000 0.00000000 -1.57079600
time 2
0 -0.00000100 7.45008900 -27.50902600 0.00000000 0.00000000 0.00003100
1 -0.00000200 0.00000000 0.00000000 1.57074700 -1.56714200 -1.57074700
2 4.25546600 -0.33518300 -0.00000200 0.00000000 0.00000000 -0.12484800
3 7.43125000 1.49647900 0.00000200 0.00000000 0.00000000 0.24545000
4 5.27847900 0.16554400 0.00000100 0.00000000 0.00000000 0.04851100
5 2.90455800 -8.74015200 1.48897600 1.97586500 1.15990900 -1.29878600
6 -6.21447800 -0.00000900 -0.00002600 -2.55203716 -0.43974917 1.35617708
7 11.94488500 0.00000000 0.00000000 -0.10556626 -0.32953408 1.21954832
8 10.62018800 0.00000000 0.00000000 1.16759338 0.31239980 2.31934759
9 -4.75110800 -0.69449800 0.83058000 -0.04968800 -0.21857600 0.31947600
10 -1.68806800 0.00004700 -0.00003100 0.00926500 -0.02287100 1.05406500
11 -1.33614000 0.00005500 -0.00001000 0.02626000 0.00210400 0.47322100
12 -4.82049400 -0.50946400 -0.22475900 -0.45370700 -0.02961400 1.46569200
13 -1.82698400 -0.00006900 0.00000800 0.00189300 0.04041100 1.32170200
14 -1.43656900 0.00000400 0.00000300 -0.05375200 -0.05614500 0.67250000
15 -3.99235700 -0.89119100 -1.82790900 -0.62000300 0.31411000 1.76409400
16 -1.40591800 -0.00002500 -0.00000200 -0.00129200 -0.02942300 0.92066700
17 -1.17535800 0.00012600 -0.00001900 0.05085000 0.08568500 0.76620000
18 -4.52675100 -0.69058000 -1.12074100 -0.56396100 0.15141100 1.67446600
19 -1.74403400 0.00003100 -0.00000700 -0.02083900 -0.02101900 1.19257100
20 -1.36876700 0.00002100 0.00000500 0.03795400 0.03618700 0.70440900
21 -1.71880300 -1.28270600 0.93153400 1.92208600 0.68600200 0.68044800
22 -1.52344700 0.00003100 0.00003100 -0.19097800 0.11191200 0.75188300
23 -1.59928500 0.00001100 0.00001500 -0.07634400 -0.04309900 0.82700900
24 -5.72900500 -2.07522500 1.26164400 -0.22131700 -0.25482300 0.38567300
25 4.03262700 -0.05195900 1.39297000 0.00000000 0.00000100 1.57079600
26 0.00000000 1.79435200 -0.11224600 0.00000000 0.00000000 0.00000000
27 0.00000100 1.95988100 0.11224500 -0.09957600 -0.00000500 0.00000000
28 0.90794400 -0.01874400 0.44405500 0.00000000 0.00000200 0.00000000
29 -1.00263100 -0.00968800 0.10351000 0.00000000 0.00000200 0.00000000
30 0.34110300 -0.69403300 -0.27889800 0.00000000 0.00000200 0.00000000
31 5.57407000 0.37809200 -2.73982300 0.46912600 1.00744600 1.76807200
32 5.89522500 -9.01754000 -4.03833400 2.89927800 -0.05443200 -1.39093600
33 5.51182000 0.00000800 -0.00000200 2.24315294 0.00029211 3.14143594
34 0.19684600 -0.00000200 0.00000300 2.79340692 -0.00055604 -3.14146587
35 2.90455800 -8.74015200 -1.48897700 1.97586200 1.15991000 1.84280300
36 6.21448600 0.00000800 0.00001900 -0.43133421 0.52393500 -1.64287712
37 11.94488800 -0.00003100 -0.00020000 -0.48079873 -0.34493334 -1.40553860
38 10.62016500 0.00000200 0.00000100 -1.56390863 -0.77939635 0.45645769
39 4.75115400 0.69439100 -0.83047600 -0.05604000 -0.27916000 0.54614000
40 1.68807200 -0.00002800 0.00000300 0.01539000 -0.01932400 0.76600700
41 1.33615100 -0.00005100 -0.00000900 -0.01007300 -0.03740000 0.63314200
42 4.82051100 0.50935400 0.22486200 -0.50465500 -0.07895800 1.32843800
43 1.82700000 0.00007100 0.00001000 -0.00009900 0.09268000 1.27107100
44 1.43658800 -0.00000800 0.00001000 0.00128400 -0.01507900 0.75225800
45 3.99235300 0.89109800 1.82799400 -0.69420600 0.26490800 1.45157800
46 1.40591400 0.00002300 -0.00000500 -0.00636800 -0.00481500 1.09379200
47 1.17536500 -0.00013100 0.00000100 0.07309900 0.09934300 0.59118900
48 4.52675800 0.69047400 1.12084100 -0.62572200 0.07506900 1.45199700
49 1.74403800 -0.00003100 -0.00000300 -0.00781000 0.00768100 1.31718700
50 1.36875900 -0.00002800 -0.00001300 0.00110000 0.14281800 0.58694100
51 1.87485500 0.93508500 -0.99913000 2.20042200 0.62653300 1.17457300
52 1.52345800 -0.00003100 -0.00000200 -0.49435700 -0.15897800 0.91724000
53 1.59927600 0.00000200 0.00000700 0.08104100 0.01999600 0.58449300
54 5.97544100 2.52891300 -1.05694100 -3.06047300 0.29749000 -2.77827600
55 0.90794400 -0.01874300 0.44405700 -0.00000100 0.00000000 0.00000000
56 -1.00262800 -0.00968800 0.10351000 -0.00000100 0.00000000 0.00000000
57 0.34110300 -0.69403300 -0.27889800 -0.00000100 0.00000000 0.00000000
58 4.03262200 -0.05195600 1.39297500 0.00000000 0.00000100 1.57079600
59 0.00000000 1.79435100 -0.11224500 0.00000000 0.00000000 0.00000000
60 -0.00000100 1.95988200 0.11224500 -0.09957600 -0.00000500 0.00000100
61 5.51180800 -0.00000200 0.00000100 -0.23579700 0.00000500 0.00000700
62 0.19684900 0.00000300 -0.00000100 -0.34822500 0.00001500 -0.00000200
63 0.00000000 0.00000000 0.00000000 0.00000000 0.00000000 -1.57079600
time 3
0 -0.00000100 7.45008900 -27.50902600 0.00000000 0.00000000 0.00003100
1 -0.00000200 0.00000000 0.00000000 1.57074700 -1.56714200 -1.57074700
2 4.25546600 -0.33518300 -0.00000200 0.00000000 0.00000000 -0.12484800
3 7.43125000 1.49647900 0.00000200 0.00000000 0.00000000 0.24545000
4 5.27847900 0.16554400 0.00000100 0.00000000 0.00000000 0.04851100
5 2.31120800 -9.10581800 1.48897600 1.97586500 1.15990900 -1.29878600
6 -6.21447800 -0.00000900 -0.00002600 -2.48420602 -0.44325208 1.33805052
7 11.94488500 0.00000000 0.00000000 -0.16353587 -0.34431408 1.39428173
8 10.62018800 0.00000000 0.00000000 1.20934357 0.25821817 2.15081691
9 -4.75110800 -0.69449800 0.83058000 -0.04968800 -0.21857600 0.31947600
10 -1.68806800 0.00004700 -0.00003100 0.00926500 -0.02287100 1.05406500
11 -1.33614000 0.00005500 -0.00001000 0.02626000 0.00210400 0.47322100
12 -4.82049400 -0.50946400 -0.22475900 -0.45370700 -0.02961400 1.46569200
13 -1.82698400 -0.00006900 0.00000800 0.00189300 0.04041100 1.32170200
14 -1.43656900 0.00000400 0.00000300 -0.05375200 -0.05614500 0.67250000
15 -3.99235700 -0.89119100 -1.82790900 -0.62000300 0.31411000 1.76409400
16 -1.40591800 -0.00002500 -0.00000200 -0.00129200 -0.02942300 0.92066700
17 -1.17535800 0.00012600 -0.00001900 0.05085000 0.08568500 0.76620000
18 -4.52675100 -0.69058000 -1.12074100 -0.56396100 0.15141100 1.67446600
19 -1.74403400 0.00003100 -0.00000700 -0.02083900 -0.02101900 1.19257100
20 -1.36876700 0.00002100 0.00000500 0.03795400 0.03618700 0.70440900
21 -1.71880300 -1.28270600 0.93153400 1.92208600 0.68600200 0.68044800
22 -1.52344700 0.00003100 0.00003100 -0.19097800 0.11191200 0.75188300
23 -1.59928500 0.00001100 0.00001500 -0.07634400 -0.04309900 0.82700900
24 -5.72900500 -2.07522500 1.26164400 -0.22131700 -0.25482300 0.38567300
25 4.03262700 -0.05195900 1.39297000 0.00000000 0.00000100 1.57079600
26 0.00000000 1.79435200 -0.11224600 0.00000000 0.00000000 0.00000000
27 0.00000100 1.95988100 0.11224500 -0.09957600 -0.00000500 0.00000000
28 0.90794400 -0.01874400 0.44405500 0.00000000 0.00000200 0.00000000
29 -1.00263100 -0.00968800 0.10351000 0.00000000 0.00000200 0.00000000
30 0.34110300 -0.69403300 -0.27889800 0.00000000 0.00000200 0.00000000
31 5.57407000 0.37809200 -2.73982300 0.46912600 1.00744600 1.76807200
32 5.59463400 -8.96336700 -5.33913400 2.84438500 0.10898400 -1.43695700
33 5.51182000 0.00000800 -0.00000200 2.24315294 0.00029211 3.14143594
34 0.19684600 -0.00000200 0.00000300 2.79340692 -0.00055604 -3.14146587
35 2.31120900 -9.10581800 -1.48897700 1.97586200 1.15991000 1.84280300
36 6.21448600 0.00000800 0.00001900 -0.48858120 0.57831827 -1.64310559
37 11.94488800 -0.00003100 -0.00020000 -0.42253319 -0.34933624 -1.57659380
38 10.62016500 0.00000200 0.00000100 -1.61271424 -0.81422230 0.52932240
39 4.75115400 0.69439100 -0.83047600 -0.05604000 -0.27916000 0.54614000
40 1.68807200 -0.00002800 0.00000300 0.01539000 -0.01932400 0.76600700
41 1.33615100 -0.00005100 -0.00000900 -0.01007300 -0.03740000 0.63314200
42 4.82051100 0.50935400 0.22486200 -0.50465500 -0.07895800 1.32843800
43 1.82700000 0.00007100 0.00001000 -0.00009900 0.09268000 1.27107100
44 1.43658800 -0.00000800 0.00001000 0.00128400 -0.01507900 0.75225800
45 3.99235300 0.89109800 1.82799400 -0.69420600 0.26490800 1.45157800
46 1.40591400 0.00002300 -0.00000500 -0.00636800 -0.00481500 1.09379200
47 1.17536500 -0.00013100 0.00000100 0.07309900 0.09934300 0.59118900
48 4.52675800 0.69047400 1.12084100 -0.62572200 0.07506900 1.45199700
49 1.74403800 -0.00003100 -0.00000300 -0.00781000 0.00768100 1.31718700
50 1.36875900 -0.00002800 -0.00001300 0.00110000 0.14281800 0.58694100
51 1.87485500 0.93508500 -0.99913000 2.20042200 0.62653300 1.17457300
52 1.52345800 -0.00003100 -0.00000200 -0.49435700 -0.15897800 0.91724000
53 1.59927600 0.00000200 0.00000700 0.08104100 0.01999600 0.58449300
54 5.97544100 2.52891300 -1.05694100 -3.06047300 0.29749000 -2.77827600
55 0.90794400 -0.01874300 0.44405700 -0.00000100 0.00000000 0.00000000
56 -1.00262800 -0.00968800 0.10351000 -0.00000100 0.00000000 0.00000000
57 0.34110300 -0.69403300 -0.27889800 -0.00000100 0.00000000 0.00000000
58 4.03262200 -0.05195600 1.39297500 0.00000000 0.00000100 1.57079600
59 0.00000000 1.79435100 -0.11224500 0.00000000 0.00000000 0.00000000
60 -0.00000100 1.95988200 0.11224500 -0.09957600 -0.00000500 0.00000100
61 5.51180800 -0.00000200 0.00000100 -0.23579700 0.00000500 0.00000700
62 0.19684900 0.00000300 -0.00000100 -0.34822500 0.00001500 -0.00000200
63 0.00000000 0.00000000 0.00000000 0.00000000 0.00000000 -1.57079600
time 4
0 -0.00000100 7.45008900 -27.50902600 0.00000000 0.00000000 0.00003100
1 -0.00000200 0.00000000 0.00000000 1.57074700 -1.56714200 -1.57074700
2 4.25546600 -0.33518300 -0.00000200 0.00000000 0.00000000 -0.12484800
3 7.43125000 1.49647900 0.00000200 0.00000000 0.00000000 0.24545000
4 5.27847900 0.16554400 0.00000100 0.00000000 0.00000000 0.04851100
5 1.59071200 -9.54984100 1.48897600 1.97586500 1.15990900 -1.29878600
6 -6.21447800 -0.00000900 -0.00002600 -2.41259679 -0.46077023 1.31874005
7 11.94488500 0.00000000 0.00000000 -0.23925682 -0.34896592 1.61654560
8 10.62018800 0.00000000 0.00000000 1.28758695 0.23014017 1.99798413
9 -4.75110800 -0.69449800 0.83058000 -0.04968800 -0.21857600 0.31947600
10 -1.68806800 0.00004700 -0.00003100 0.00926500 -0.02287100 1.05406500
11 -1.33614000 0.00005500 -0.00001000 0.02626000 0.00210400 0.47322100
12 -4.82049400 -0.50946400 -0.22475900 -0.45370700 -0.02961400 1.46569200
13 -1.82698400 -0.00006900 0.00000800 0.00189300 0.04041100 1.32170200
14 -1.43656900 0.00000400 0.00000300 -0.05375200 -0.05614500 0.67250000
15 -3.99235700 -0.89119100 -1.82790900 -0.62000300 0.31411000 1.76409400
16 -1.40591800 -0.00002500 -0.00000200 -0.00129200 -0.02942300 0.92066700
17 -1.17535800 0.00012600 -0.00001900 0.05085000 0.08568500 0.76620000
18 -4.52675100 -0.69058000 -1.12074100 -0.56396100 0.15141100 1.67446600
19 -1.74403400 0.00003100 -0.00000700 -0.02083900 -0.02101900 1.19257100
20 -1.36876700 0.00002100 0.00000500 0.03795400 0.03618700 0.70440900
21 -1.71880300 -1.28270600 0.93153400 1.92208600 0.68600200 0.68044800
22 -1.52344700 0.00003100 0.00003100 -0.19097800 0.11191200 0.75188300
23 -1.59928500 0.00001100 0.00001500 -0.07634400 -0.04309900 0.82700900
24 -5.72900500 -2.07522500 1.26164400 -0.22131700 -0.25482300 0.38567300
25 4.03262700 -0.05195900 1.39297000 0.00000000 0.00000100 1.57079600
26 0.00000000 1.79435200 -0.11224600 0.00000000 0.00000000 0.00000000
27 0.00000100 1.95988100 0.11224500 -0.09957600 -0.00000500 0.00000000
28 0.90794400 -0.01874400 0.44405500 0.00000000 0.00000200 0.00000000
29 -1.00263100 -0.00968800 0.10351000 0.00000000 0.00000200 0.00000000
30 0.34110300 -0.69403300 -0.27889800 0.00000000 0.00000200 0.00000000
31 5.57407000 0.37809200 -2.73982300 0.46912600 1.00744600 1.76807200
32 5.00692700 -9.03599700 -6.27886900 2.76424100 0.24682600 -1.48706100
33 5.51182000 0.00000800 -0.00000200 2.24315294 0.00029211 3.14143594
34 0.19684600 -0.00000200 0.00000300 2.79340692 -0.00055604 -3.14146587
35 1.59071200 -9.54984100 -1.48897700 1.97586200 1.15991000 1.84280300
36 6.21448600 0.00000800 0.00001900 -0.55518186 0.63639835 -1.66078104
37 11.94488800 -0.00003100 -0.00020000 -0.36588605 -0.34459165 -1.74299075
38 10.62016500 0.00000200 0.00000100 -1.60621130 -0.84632507 0.51854694
39 4.75115400 0.69439100 -0.83047600 -0.05604000 -0.27916000 0.54614000
40 1.68807200 -0.00002800 0.00000300 0.01539000 -0.01932400 0.76600700
41 1.33615100 -0.00005100 -0.00000900 -0.01007300 -0.03740000 0.63314200
42 4.82051100 0.50935400 0.22486200 -0.50465500 -0.07895800 1.32843800
43 1.82700000 0.00007100 0.00001000 -0.00009900 0.09268000 1.27107100
44 1.43658800 -0.00000800 0.00001000 0.00128400 -0.01507900 0.75225800
45 3.99235300 0.89109800 1.82799400 -0.69420600 0.26490800 1.45157800
46 1.40591400 0.00002300 -0.00000500 -0.00636800 -0.00481500 1.09379200
47 1.17536500 -0.00013100 0.00000100 0.07309900 0.09934300 0.59118900
48 4.52675800 0.69047400 1.12084100 -0.62572200 0.07506900 1.45199700
49 1.74403800 -0.00003100 -0.00000300 -0.00781000 0.00768100 1.31718700
50 1.36875900 -0.00002800 -0.00001300 0.00110000 0.14281800 0.58694100
51 1.87485500 0.93508500 -0.99913000 2.20042200 0.62653300 1.17457300
52 1.52345800 -0.00003100 -0.00000200 -0.49435700 -0.15897800 0.91724000
53 1.59927600 0.00000200 0.00000700 0.08104100 0.01999600 0.58449300
54 5.97544100 2.52891300 -1.05694100 -3.06047300 0.29749000 -2.77827600
55 0.90794400 -0.01874300 0.44405700 -0.00000100 0.00000000 0.00000000
56 -1.00262800 -0.00968800 0.10351000 -0.00000100 0.00000000 0.00000000
57 0.34110300 -0.69403300 -0.27889800 -0.00000100 0.00000000 0.00000000
58 4.03262200 -0.05195600 1.39297500 0.00000000 0.00000100 1.57079600
59 0.00000000 1.79435100 -0.11224500 0.00000000 0.00000000 0.00000000
60 -0.00000100 1.95988200 0.11224500 -0.09957600 -0.00000500 0.00000100
61 5.51180800 -0.00000200 0.00000100 -0.23579700 0.00000500 0.00000700
62 0.19684900 0.00000300 -0.00000100 -0.34822500 0.00001500 -0.00000200
63 0.00000000 0.00000000 0.00000000 0.00000000 0.00000000 -1.57079600
time 5
0 -0.00000100 7.45008900 -27.50902600 0.00000000 0.00000000 0.00003100
1 -0.00000200 0.00000000 0.00000000 1.57074700 -1.56714200 -1.57074700
2 4.25546600 -0.33518300 -0.00000200 0.00000000 0.00000000 -0.12484800
3 7.43125000 1.49647900 0.00000200 0.00000000 0.00000000 0.24545000
4 5.27847900 0.16554400 0.00000100 0.00000000 0.00000000 0.04851100
5 0.80664300 -10.03304000 1.48897600 1.97586500 1.15990900 -1.29878600
6 -6.21447800 -0.00000900 -0.00002600 -2.34369712 -0.49069224 1.29415589
7 11.94488500 0.00000000 0.00000000 -0.31804903 -0.33674279 1.85000023
8 10.62018800 0.00000000 0.00000000 1.37223965 0.23619206 1.91177060
9 -4.75110800 -0.69449800 0.83058000 -0.04968800 -0.21857600 0.31947600
10 -1.68806800 0.00004700 -0.00003100 0.00926500 -0.02287100 1.05406500
11 -1.33614000 0.00005500 -0.00001000 0.02626000 0.00210400 0.47322100
12 -4.82049400 -0.50946400 -0.22475900 -0.45370700 -0.02961400 1.46569200
13 -1.82698400 -0.00006900 0.00000800 0.00189300 0.04041100 1.32170200
14 -1.43656900 0.00000400 0.00000300 -0.05375200 -0.05614500 0.67250000
15 -3.99235700 -0.89119100 -1.82790900 -0.62000300 0.31411000 1.76409400
16 -1.40591800 -0.00002500 -0.00000200 -0.00129200 -0.02942300 0.92066700
17 -1.17535800 0.00012600 -0.00001900 0.05085000 0.08568500 0.76620000
18 -4.52675100 -0.69058000 -1.12074100 -0.56396100 0.15141100 1.67446600
19 -1.74403400 0.00003100 -0.00000700 -0.02083900 -0.02101900 1.19257100
20 -1.36876700 0.00002100 0.00000500 0.03795400 0.03618700 0.70440900
21 -1.71880300 -1.28270600 0.93153400 1.92208600 0.68600200 0.68044800
22 -1.52344700 0.00003100 0.00003100 -0.19097800 0.11191200 0.75188300
23 -1.59928500 0.00001100 0.00001500 -0.07634400 -0.04309900 0.82700900
24 -5.72900500 -2.07522500 1.26164400 -0.22131700 -0.25482300 0.38567300
25 4.03262700 -0.05195900 1.39297000 0.00000000 0.00000100 1.57079600
26 0.00000000 1.79435200 -0.11224600 0.00000000 0.00000000 0.00000000
27 0.00000100 1.95988100 0.11224500 -0.09957600 -0.00000500 0.00000000
28 0.90794400 -0.01874400 0.44405500 0.00000000 0.00000200 0.00000000
29 -1.00263100 -0.00968800 0.10351000 0.00000000 0.00000200 0.00000000
30 0.34110300 -0.69403300 -0.27889800 0.00000000 0.00000200 0.00000000
31 5.57407000 0.37809200 -2.73982300 0.46912600 1.00744600 1.76807200
32 4.28651900 -9.25295000 -6.89657700 2.66860800 0.33978200 -1.52166800
33 5.51182000 0.00000800 -0.00000200 2.24315294 0.00029211 3.14143594
34 0.19684600 -0.00000200 0.00000300 2.79340692 -0.00055604 -3.14146587
35 0.80664300 -10.03304000 -1.48897700 1.97586200 1.15991000 1.84280300
36 6.21448600 0.00000800 0.00001900 -0.62583100 0.69154789 -1.69343456
37 11.94488800 -0.00003100 -0.00020000 -0.32377411 -0.33506816 -1.86923275
38 10.62016500 0.00000200 0.00000100 -1.48579200 -0.84140410 0.34520960
39 4.75115400 0.69439100 -0.83047600 -0.05604000 -0.27916000 0.54614000
40 1.68807200 -0.00002800 0.00000300 0.01539000 -0.01932400 0.76600700
41 1.33615100 -0.00005100 -0.00000900 -0.01007300 -0.03740000 0.63314200
42 4.82051100 0.50935400 0.22486200 -0.50465500 -0.07895800 1.32843800
43 1.82700000 0.00007100 0.00001000 -0.00009900 0.09268000 1.27107100
44 1.43658800 -0.00000800 0.00001000 0.00128400 -0.01507900 0.75225800
45 3.99235300 0.89109800 1.82799400 -0.69420600 0.26490800 1.45157800
46 1.40591400 0.00002300 -0.00000500 -0.00636800 -0.00481500 1.09379200
47 1.17536500 -0.00013100 0.00000100 0.07309900 0.09934300 0.59118900
48 4.52675800 0.69047400 1.12084100 -0.62572200 0.07506900 1.45199700
49 1.74403800 -0.00003100 -0.00000300 -0.00781000 0.00768100 1.31718700
50 1.36875900 -0.00002800 -0.00001300 0.00110000 0.14281800 0.58694100
51 1.87485500 0.93508500 -0.99913000 2.20042200 0.62653300 1.17457300
52 1.52345800 -0.00003100 -0.00000200 -0.49435700 -0.15897800 0.91724000
53 1.59927600 0.00000200 0.00000700 0.08104100 0.01999600 0.58449300
54 5.97544100 2.52891300 -1.05694100 -3.06047300 0.29749000 -2.77827600
55 0.90794400 -0.01874300 0.44405700 -0.00000100 0.00000000 0.00000000
56 -1.00262800 -0.00968800 0.10351000 -0.00000100 0.00000000 0.00000000
57 0.34110300 -0.69403300 -0.27889800 -0.00000100 0.00000000 0.00000000
58 4.03262200 -0.05195600 1.39297500 0.00000000 0.00000100 1.57079600
59 0.00000000 1.79435100 -0.11224500 0.00000000 0.00000000 0.00000000
60 -0.00000100 1.95988200 0.11224500 -0.09957600 -0.00000500 0.00000100
61 5.51180800 -0.00000200 0.00000100 -0.23579700 0.00000500 0.00000700
62 0.19684900 0.00000300 -0.00000100 -0.34822500 0.00001500 -0.00000200
63 0.00000000 0.00000000 0.00000000 0.00000000 0.00000000 -1.57079600
time 6
0 -0.00000100 7.45008900 -27.50902600 0.00000000 0.00000000 0.00003100
1 -0.00000200 0.00000000 0.00000000 1.57074700 -1.56714200 -1.57074700
2 4.25546600 -0.33518300 -0.00000200 0.00000000 0.00000000 -0.12484800
3 7.43125000 1.49647900 0.00000200 0.00000000 0.00000000 0.24545000
4 5.27847900 0.16554400 0.00000100 0.00000000 0.00000000 0.04851100
5 0.02257300 -10.51624100 1.48897500 1.97586500 1.15990900 -1.29878600
6 -6.21447800 -0.00000900 -0.00002600 -2.29376435 -0.56405350 1.27454151
7 11.94488500 0.00000000 0.00000000 -0.38053864 -0.31333534 2.04498453
8 10.62018800 0.00000000 0.00000000 1.42065612 0.29773716 2.04080225
9 -4.75110800 -0.69449800 0.83058000 -0.04968800 -0.21857600 0.31947600
10 -1.68806800 0.00004700 -0.00003100 0.00926500 -0.02287100 1.05406500
11 -1.33614000 0.00005500 -0.00001000 0.02626000 0.00210400 0.47322100
12 -4.82049400 -0.50946400 -0.22475900 -0.45370700 -0.02961400 1.46569200
13 -1.82698400 -0.00006900 0.00000800 0.00189300 0.04041100 1.32170200
14 -1.43656900 0.00000400 0.00000300 -0.05375200 -0.05614500 0.67250000
15 -3.99235700 -0.89119100 -1.82790900 -0.62000300 0.31411000 1.76409400
16 -1.40591800 -0.00002500 -0.00000200 -0.00129200 -0.02942300 0.92066700
17 -1.17535800 0.00012600 -0.00001900 0.05085000 0.08568500 0.76620000
18 -4.52675100 -0.69058000 -1.12074100 -0.56396100 0.15141100 1.67446600
19 -1.74403400 0.00003100 -0.00000700 -0.02083900 -0.02101900 1.19257100
20 -1.36876700 0.00002100 0.00000500 0.03795400 0.03618700 0.70440900
21 -1.71880300 -1.28270600 0.93153400 1.92208600 0.68600200 0.68044800
22 -1.52344700 0.00003100 0.00003100 -0.19097800 0.11191200 0.75188300
23 -1.59928500 0.00001100 0.00001500 -0.07634400 -0.04309900 0.82700900
24 -5.72900500 -2.07522500 1.26164400 -0.22131700 -0.25482300 0.38567300
25 4.03262700 -0.05195900 1.39297000 0.00000000 0.00000100 1.57079600
26 0.00000000 1.79435200 -0.11224600 0.00000000 0.00000000 0.00000000
27 0.00000100 1.95988100 0.11224500 -0.09957600 -0.00000500 0.00000000
28 0.90794400 -0.01874400 0.44405500 0.00000000 0.00000200 0.00000000
29 -1.00263100 -0.00968800 0.10351000 0.00000000 0.00000200 0.00000000
30 0.34110300 -0.69403300 -0.27889800 0.00000000 0.00000200 0.00000000
31 5.57407000 0.37809200 -2.73982300 0.46912600 1.00744600 1.76807200
32 4.03342200 -9.47306000 -7.14087000 2.64676900 0.40284600 -1.50317500
33 5.51182000 0.00000800 -0.00000200 2.24315294 0.00029211 3.14143594
34 0.19684600 -0.00000200 0.00000300 2.79340692 -0.00055604 -3.14146587
35 0.02257200 -10.51624100 -1.48897800 1.97586200 1.15991000 1.84280300
36 6.21448600 0.00000800 0.00001900 -0.70456444 0.72995455 -1.74178467
37 11.94488800 -0.00003100 -0.00020000 -0.30720788 -0.32979725 -1.91988229
38 10.62016500 0.00000200 0.00000100 -1.30166535 -0.74461239 0.02250277
39 4.75115400 0.69439100 -0.83047600 -0.05604000 -0.27916000 0.54614000
40 1.68807200 -0.00002800 0.00000300 0.01539000 -0.01932400 0.76600700
41 1.33615100 -0.00005100 -0.00000900 -0.01007300 -0.03740000 0.63314200
42 4.82051100 0.50935400 0.22486200 -0.50465500 -0.07895800 1.32843800
43 1.82700000 0.00007100 0.00001000 -0.00009900 0.09268000 1.27107100
44 1.43658800 -0.00000800 0.00001000 0.00128400 -0.01507900 0.75225800
45 3.99235300 0.89109800 1.82799400 -0.69420600 0.26490800 1.45157800
46 1.40591400 0.00002300 -0.00000500 -0.00636800 -0.00481500 1.09379200
47 1.17536500 -0.00013100 0.00000100 0.07309900 0.09934300 0.59118900
48 4.52675800 0.69047400 1.12084100 -0.62572200 0.07506900 1.45199700
49 1.74403800 -0.00003100 -0.00000300 -0.00781000 0.00768100 1.31718700
50 1.36875900 -0.00002800 -0.00001300 0.00110000 0.14281800 0.58694100
51 1.87485500 0.93508500 -0.99913000 2.20042200 0.62653300 1.17457300
52 1.52345800 -0.00003100 -0.00000200 -0.49435700 -0.15897800 0.91724000
53 1.59927600 0.00000200 0.00000700 0.08104100 0.01999600 0.58449300
54 5.97544100 2.52891300 -1.05694100 -3.06047300 0.29749000 -2.77827600
55 0.90794400 -0.01874300 0.44405700 -0.00000100 0.00000000 0.00000000
56 -1.00262800 -0.00968800 0.10351000 -0.00000100 0.00000000 0.00000000
57 0.34110300 -0.69403300 -0.27889800 -0.00000100 0.00000000 0.00000000
58 4.03262200 -0.05195600 1.39297500 0.00000000 0.00000100 1.57079600
59 0.00000000 1.79435100 -0.11224500 0.00000000 0.00000000 0.00000000
60 -0.00000100 1.95988200 0.11224500 -0.09957600 -0.00000500 0.00000100
61 5.51180800 -0.00000200 0.00000100 -0.23579700 0.00000500 0.00000700
62 0.19684900 0.00000300 -0.00000100 -0.34822500 0.00001500 -0.00000200
63 0.00000000 0.00000000 0.00000000 0.00000000 0.00000000 -1.57079600
time 7
0 -0.00000100 7.45008900 -27.50902600 0.00000000 0.00000000 0.00003100
1 -0.00000200 0.00000000 0.00000000 1.57074700 -1.56714200 -1.57074700
2 4.25546600 -0.33518300 -0.00000200 0.00000000 0.00000000 -0.12484800
3 7.43125000 1.49647900 0.00000200 0.00000000 0.00000000 0.24545000
4 5.27847900 0.16554400 0.00000100 0.00000000 0.00000000 0.04851100
5 -0.69792400 -10.96026300 1.48897500 1.97586500 1.15990900 -1.29878600
6 -6.21447800 -0.00000900 -0.00002600 -2.26519696 -0.68376229 1.26819862
7 11.94488500 0.00000000 0.00000000 -0.38527928 -0.31096210 2.06044223
8 10.62018800 0.00000000 0.00000000 1.43362095 0.44731100 2.63832219
9 -4.75110800 -0.69449800 0.83058000 -0.04968800 -0.21857600 0.31947600
10 -1.68806800 0.00004700 -0.00003100 0.00926500 -0.02287100 1.05406500
11 -1.33614000 0.00005500 -0.00001000 0.02626000 0.00210400 0.47322100
12 -4.82049400 -0.50946400 -0.22475900 -0.45370700 -0.02961400 1.46569200
13 -1.82698400 -0.00006900 0.00000800 0.00189300 0.04041100 1.32170200
14 -1.43656900 0.00000400 0.00000300 -0.05375200 -0.05614500 0.67250000
15 -3.99235700 -0.89119100 -1.82790900 -0.62000300 0.31411000 1.76409400
16 -1.40591800 -0.00002500 -0.00000200 -0.00129200 -0.02942300 0.92066700
17 -1.17535800 0.00012600 -0.00001900 0.05085000 0.08568500 0.76620000
18 -4.52675100 -0.69058000 -1.12074100 -0.56396100 0.15141100 1.67446600
19 -1.74403400 0.00003100 -0.00000700 -0.02083900 -0.02101900 1.19257100
20 -1.36876700 0.00002100 0.00000500 0.03795400 0.03618700 0.70440900
21 -1.71880300 -1.28270600 0.93153400 1.92208600 0.68600200 0.68044800
22 -1.52344700 0.00003100 0.00003100 -0.19097800 0.11191200 0.75188300
23 -1.59928500 0.00001100 0.00001500 -0.07634400 -0.04309900 0.82700900
24 -5.72900500 -2.07522500 1.26164400 -0.22131700 -0.25482300 0.38567300
25 4.03262700 -0.05195900 1.39297000 0.00000000 0.00000100 1.57079600
26 0.00000000 1.79435200 -0.11224600 0.00000000 0.00000000 0.00000000
27 0.00000100 1.95988100 0.11224500 -0.09957600 -0.00000500 0.00000000
28 0.90794400 -0.01874400 0.44405500 0.00000000 0.00000200 0.00000000
29 -1.00263100 -0.00968800 0.10351000 0.00000000 0.00000200 0.00000000
30 0.34110300 -0.69403300 -0.27889800 0.00000000 0.00000200 0.00000000
31 5.57407000 0.37809200 -2.73982300 0.46912600 1.00744600 1.76807200
32 5.34604400 -9.59366000 -6.43632100 2.88976900 0.42826300 -1.36339200
33 5.51182000 0.00000800 -0.00000200 2.24315294 0.00029211 3.14143594
34 0.19684600 -0.00000200 0.00000300 2.79340692 -0.00055604 -3.14146587
35 -0.69792600 -10.96026300 -1.48897700 1.97586200 1.15991000 1.84280300
36 6.21448600 0.00000800 0.00001900 -0.79954395 0.72429927 -1.81120017
37 11.94488800 -0.00003100 -0.00020000 -0.31432851 -0.33221366 -1.89793775
38 10.62016500 0.00000200 0.00000100 -1.19533003 -0.57670194 -0.28550103
39 4.75115400 0.69439100 -0.83047600 -0.05604000 -0.27916000 0.54614000
40 1.68807200 -0.00002800 0.00000300 0.01539000 -0.01932400 0.76600700
41 1.33615100 -0.00005100 -0.00000900 -0.01007300 -0.03740000 0.63314200
42 4.82051100 0.50935400 0.22486200 -0.50465500 -0.07895800 1.32843800
43 1.82700000 0.00007100 0.00001000 -0.00009900 0.09268000 1.27107100
44 1.43658800 -0.00000800 0.00001000 0.00128400 -0.01507900 0.75225800
45 3.99235300 0.89109800 1.82799400 -0.69420600 0.26490800 1.45157800
46 1.40591400 0.00002300 -0.00000500 -0.00636800 -0.00481500 1.09379200
47 1.17536500 -0.00013100 0.00000100 0.07309900 0.09934300 0.59118900
48 4.52675800 0.69047400 1.12084100 -0.62572200 0.07506900 1.45199700
49 1.74403800 -0.00003100 -0.00000300 -0.00781000 0.00768100 1.31718700
50 1.36875900 -0.00002800 -0.00001300 0.00110000 0.14281800 0.58694100
51 1.87485500 0.93508500 -0.99913000 2.20042200 0.62653300 1.17457300
52 1.52345800 -0.00003100 -0.00000200 -0.49435700 -0.15897800 0.91724000
53 1.59927600 0.00000200 0.00000700 0.08104100 0.01999600 0.58449300
54 5.97544100 2.52891300 -1.05694100 -3.06047300 0.29749000 -2.77827600
55 0.90794400 -0.01874300 0.44405700 -0.00000100 0.00000000 0.00000000
56 -1.00262800 -0.00968800 0.10351000 -0.00000100 0.00000000 0.00000000
57 0.34110300 -0.69403300 -0.27889800 -0.00000100 0.00000000 0.00000000
58 4.03262200 -0.05195600 1.39297500 0.00000000 0.00000100 1.57079600
59 0.00000000 1.79435100 -0.11224500 0.00000000 0.00000000 0.00000000
60 -0.00000100 1.95988200 0.11224500 -0.09957600 -0.00000500 0.00000100
61 5.51180800 -0.00000200 0.00000100 -0.23579700 0.00000500 0.00000700
62 0.19684900 0.00000300 -0.00000100 -0.34822500 0.00001500 -0.00000200
63 0.00000000 0.00000000 0.00000000 0.00000000 0.00000000 -1.57079600
time 8
0 -0.00000100 7.45008900 -27.50902600 0.00000000 0.00000000 0.00003100
1 -0.00000200 0.00000000 0.00000000 1.57074700 -1.56714200 -1.57074700
2 4.25546600 -0.33518300 -0.00000200 0.00000000 0.00000000 -0.12484800
3 7.43125000 1.49647900 0.00000200 0.00000000 0.00000000 0.24545000
4 5.27847900 0.16554400 0.00000100 0.00000000 0.00000000 0.04851100
5 -1.29127400 -11.32592800 1.48897500 1.97586500 1.15990900 -1.29878600
6 -6.21447800 -0.00000900 -0.00002600 -2.18235196 -0.61079796 1.20127750
7 11.94488500 0.00000000 0.00000000 -0.28572870 -0.34382845 1.75323653
8 10.62018800 0.00000000 0.00000000 1.56290063 0.61219754 -2.64353656
9 -4.75110800 -0.69449800 0.83058000 -0.04968800 -0.21857600 0.31947600
10 -1.68806800 0.00004700 -0.00003100 0.00926500 -0.02287100 1.05406500
11 -1.33614000 0.00005500 -0.00001000 0.02626000 0.00210400 0.47322100
12 -4.82049400 -0.50946400 -0.22475900 -0.45370700 -0.02961400 1.46569200
13 -1.82698400 -0.00006900 0.00000800 0.00189300 0.04041100 1.32170200
14 -1.43656900 0.00000400 0.00000300 -0.05375200 -0.05614500 0.67250000
15 -3.99235700 -0.89119100 -1.82790900 -0.62000300 0.31411000 1.76409400
16 -1.40591800 -0.00002500 -0.00000200 -0.00129200 -0.02942300 0.92066700
17 -1.17535800 0.00012600 -0.00001900 0.05085000 0.08568500 0.76620000
18 -4.52675100 -0.69058000 -1.12074100 -0.56396100 0.15141100 1.67446600
19 -1.74403400 0.00003100 -0.00000700 -0.02083900 -0.02101900 1.19257100
20 -1.36876700 0.00002100 0.00000500 0.03795400 0.03618700 0.70440900
21 -1.71880300 -1.28270600 0.93153400 1.92208600 0.68600200 0.68044800
22 -1.52344700 0.00003100 0.00003100 -0.19097800 0.11191200 0.75188300
23 -1.59928500 0.00001100 0.00001500 -0.07634400 -0.04309900 0.82700900
24 -5.72900500 -2.07522500 1.26164400 -0.22131700 -0.25482300 0.38567300
25 4.03262700 -0.05195900 1.39297000 0.00000000 0.00000100 1.57079600
26 0.00000000 1.79435200 -0.11224600 0.00000000 0.00000000 0.00000000
27 0.00000100 1.95988100 0.11224500 -0.09957600 -0.00000500 0.00000000
28 0.90794400 -0.01874400 0.44405500 0.00000000 0.00000200 0.00000000
29 -1.00263100 -0.00968800 0.10351000 0.00000000 0.00000200 0.00000000
30 0.34110300 -0.69403300 -0.27889800 0.00000000 0.00000200 0.00000000
31 5.57407000 0.37809200 -2.73982300 0.46912600 1.00744600 1.76807200
32 7.40945600 -9.83644000 -3.68946900 -2.89081800 0.29244300 -1.15504100
33 5.51182000 0.00000800 -0.00000200 2.24315294 0.00029211 3.14143594
34 0.19684600 -0.00000200 0.00000300 2.79340692 -0.00055604 -3.14146587
35 -1.29127300 -11.32592700 -1.48897700 1.97586200 1.15991000 1.84280300
36 6.21448600 0.00000800 0.00001900 -0.89048931 0.67460025 -1.88090076
37 11.94488800 -0.00003100 -0.00020000 -0.33211849 -0.33742682 -1.84378351
38 10.62016500 0.00000200 0.00000100 -1.17388325 -0.41500059 -0.50311208
39 4.75115400 0.69439100 -0.83047600 -0.05604000 -0.27916000 0.54614000
40 1.68807200 -0.00002800 0.00000300 0.01539000 -0.01932400 0.76600700
41 1.33615100 -0.00005100 -0.00000900 -0.01007300 -0.03740000 0.63314200
42 4.82051100 0.50935400 0.22486200 -0.50465500 -0.07895800 1.32843800
43 1.82700000 0.00007100 0.00001000 -0.00009900 0.09268000 1.27107100
44 1.43658800 -0.00000800 0.00001000 0.00128400 -0.01507900 0.75225800
45 3.99235300 0.89109800 1.82799400 -0.69420600 0.26490800 1.45157800
46 1.40591400 0.00002300 -0.00000500 -0.00636800 -0.00481500 1.09379200
47 1.17536500 -0.00013100 0.00000100 0.07309900 0.09934300 0.59118900
48 4.52675800 0.69047400 1.12084100 -0.62572200 0.07506900 1.45199700
49 1.74403800 -0.00003100 -0.00000300 -0.00781000 0.00768100 1.31718700
50 1.36875900 -0.00002800 -0.00001300 0.00110000 0.14281800 0.58694100
51 1.87485500 0.93508500 -0.99913000 2.20042200 0.62653300 1.17457300
52 1.52345800 -0.00003100 -0.00000200 -0.49435700 -0.15897800 0.91724000
53 1.59927600 0.00000200 0.00000700 0.08104100 0.01999600 0.58449300
54 5.97544100 2.52891300 -1.05694100 -3.06047300 0.29749000 -2.77827600
55 0.90794400 -0.01874300 0.44405700 -0.00000100 0.00000000 0.00000000
56 -1.00262800 -0.00968800 0.10351000 -0.00000100 0.00000000 0.00000000
57 0.34110300 -0.69403300 -0.27889800 -0.00000100 0.00000000 0.00000000
58 4.03262200 -0.05195600 1.39297500 0.00000000 0.00000100 1.57079600
59 0.00000000 1.79435100 -0.11224500 0.00000000 0.00000000 0.00000000
60 -0.00000100 1.95988200 0.11224500 -0.09957600 -0.00000500 0.00000100
61 5.51180800 -0.00000200 0.00000100 -0.23579700 0.00000500 0.00000700
62 0.19684900 0.00000300 -0.00000100 -0.34822500 0.00001500 -0.00000200
63 0.00000000 0.00000000 0.00000000 0.00000000 0.00000000 -1.57079600
time 9
0 -0.00000100 7.45008900 -27.50902600 0.00000000 0.00000000 0.00003100
1 -0.00000200 0.00000000 0.00000000 1.57074700 -1.56714200 -1.57074700
2 4.25546600 -0.33518300 -0.00000200 0.00000000 0.00000000 -0.12484800
3 7.43125000 1.49647900 0.00000200 0.00000000 0.00000000 0.24545000
4 5.27847900 0.16554400 0.00000100 0.00000000 0.00000000 0.04851100
5 -1.69390600 -11.57405800 1.48897500 1.97586500 1.15990900 -1.29878600
6 -6.21447800 -0.00000900 -0.00002600 -2.13183535 -0.58534904 1.17194109
7 11.94488500 0.00000000 0.00000000 -0.28355306 -0.34427601 1.74684760
8 10.62018800 0.00000000 0.00000000 1.57052088 0.57636420 -2.59058365
9 -4.75110800 -0.69449800 0.83058000 -0.04968800 -0.21857600 0.31947600
10 -1.68806800 0.00004700 -0.00003100 0.00926500 -0.02287100 1.05406500
11 -1.33614000 0.00005500 -0.00001000 0.02626000 0.00210400 0.47322100
12 -4.82049400 -0.50946400 -0.22475900 -0.45370700 -0.02961400 1.46569200
13 -1.82698400 -0.00006900 0.00000800 0.00189300 0.04041100 1.32170200
14 -1.43656900 0.00000400 0.00000300 -0.05375200 -0.05614500 0.67250000
15 -3.99235700 -0.89119100 -1.82790900 -0.62000300 0.31411000 1.76409400
16 -1.40591800 -0.00002500 -0.00000200 -0.00129200 -0.02942300 0.92066700
17 -1.17535800 0.00012600 -0.00001900 0.05085000 0.08568500 0.76620000
18 -4.52675100 -0.69058000 -1.12074100 -0.56396100 0.15141100 1.67446600
19 -1.74403400 0.00003100 -0.00000700 -0.02083900 -0.02101900 1.19257100
20 -1.36876700 0.00002100 0.00000500 0.03795400 0.03618700 0.70440900
21 -1.71880300 -1.28270600 0.93153400 1.92208600 0.68600200 0.68044800
22 -1.52344700 0.00003100 0.00003100 -0.19097800 0.11191200 0.75188300
23 -1.59928500 0.00001100 0.00001500 -0.07634400 -0.04309900 0.82700900
24 -5.72900500 -2.07522500 1.26164400 -0.22131700 -0.25482300 0.38567300
25 4.03262700 -0.05195900 1.39297000 0.00000000 0.00000100 1.57079600
26 0.00000000 1.79435200 -0.11224600 0.00000000 0.00000000 0.00000000
27 0.00000100 1.95988100 0.11224500 -0.09957600 -0.00000500 0.00000000
28 0.90794400 -0.01874400 0.44405500 0.00000000 0.00000200 0.00000000
29 -1.00263100 -0.00968800 0.10351000 0.00000000 0.00000200 0.00000000
30 0.34110300 -0.69403300 -0.27889800 0.00000000 0.00000200 0.00000000
31 5.57407000 0.37809200 -2.73982300 0.46912600 1.00744600 1.76807200
32 7.10830000 -10.08353900 -3.80596600 -3.00550800 0.30929700 -1.14779400
33 5.51182000 0.00000800 -0.00000200 2.24315294 0.00029211 3.14143594
34 0.19684600 -0.00000200 0.00000300 2.79340692 -0.00055604 -3.14146587
35 -1.69390600 -11.57405900 -1.48897900 1.97586200 1.15991000 1.84280300
36 6.21448600 0.00000800 0.00001900 -0.95009813 0.61627317 -1.92782699
37 11.94488800 -0.00003100 -0.00020000 -0.34817952 -0.34121949 -1.79547950
38 10.62016500 0.00000200 0.00000100 -1.18405473 -0.31020947 -0.63218311
39 4.75115400 0.69439100 -0.83047600 -0.05604000 -0.27916000 0.54614000
40 1.68807200 -0.00002800 0.00000300 0.01539000 -0.01932400 0.76600700
41 1.33615100 -0.00005100 -0.00000900 -0.01007300 -0.03740000 0.63314200
42 4.82051100 0.50935400 0.22486200 -0.50465500 -0.07895800 1.32843800
43 1.82700000 0.00007100 0.00001000 -0.00009900 0.09268000 1.27107100
44 1.43658800 -0.00000800 0.00001000 0.00128400 -0.01507900 0.75225800
45 3.99235300 0.89109800 1.82799400 -0.69420600 0.26490800 1.45157800
46 1.40591400 0.00002300 -0.00000500 -0.00636800 -0.00481500 1.09379200
47 1.17536500 -0.00013100 0.00000100 0.07309900 0.09934300 0.59118900
48 4.52675800 0.69047400 1.12084100 -0.62572200 0.07506900 1.45199700
49 1.74403800 -0.00003100 -0.00000300 -0.00781000 0.00768100 1.31718700
50 1.36875900 -0.00002800 -0.00001300 0.00110000 0.14281800 0.58694100
51 1.87485500 0.93508500 -0.99913000 2.20042200 0.62653300 1.17457300
52 1.52345800 -0.00003100 -0.00000200 -0.49435700 -0.15897800 0.91724000
53 1.59927600 0.00000200 0.00000700 0.08104100 0.01999600 0.58449300
54 5.97544100 2.52891300 -1.05694100 -3.06047300 0.29749000 -2.77827600
55 0.90794400 -0.01874300 0.44405700 -0.00000100 0.00000000 0.00000000
56 -1.00262800 -0.00968800 0.10351000 -0.00000100 0.00000000 0.00000000
57 0.34110300 -0.69403300 -0.27889800 -0.00000100 0.00000000 0.00000000
58 4.03262200 -0.05195600 1.39297500 0.00000000 0.00000100 1.57079600
59 0.00000000 1.79435100 -0.11224500 0.00000000 0.00000000 0.00000000
60 -0.00000100 1.95988200 0.11224500 -0.09957600 -0.00000500 0.00000100
61 5.51180800 -0.00000200 0.00000100 -0.23579700 0.00000500 0.00000700
62 0.19684900 0.00000300 -0.00000100 -0.34822500 0.00001500 -0.00000200
63 0.00000000 0.00000000 0.00000000 0.00000000 0.00000000 -1.57079600
time 10
0 -0.00000100 7.45008900 -27.50902600 0.00000000 0.00000000 0.00003100
1 -0.00000200 0.00000000 0.00000000 1.57074700 -1.56714200 -1.57074700
2 4.25546600 -0.33518300 -0.00000200 0.00000000 0.00000000 -0.12484800
3 7.43125000 1.49647900 0.00000200 0.00000000 0.00000000 0.24545000
4 5.27847900 0.16554400 0.00000100 0.00000000 0.00000000 0.04851100
5 -1.84224200 -11.66547300 1.48897400 1.97586500 1.15990900 -1.29878600
6 -6.21447800 -0.00000900 -0.00002600 -2.11406313 -0.58062376 1.16320658
7 11.94488500 0.00000000 0.00000000 -0.28719295 -0.34362861 1.75767158
8 10.62018800 0.00000000 0.00000000 1.57486712 0.55651526 -2.60005528
9 -4.75110800 -0.69449800 0.83058000 -0.04968800 -0.21857600 0.31947600
10 -1.68806800 0.00004700 -0.00003100 0.00926500 -0.02287100 1.05406500
11 -1.33614000 0.00005500 -0.00001000 0.02626000 0.00210400 0.47322100
12 -4.82049400 -0.50946400 -0.22475900 -0.45370700 -0.02961400 1.46569200
13 -1.82698400 -0.00006900 0.00000800 0.00189300 0.04041100 1.32170200
14 -1.43656900 0.00000400 0.00000300 -0.05375200 -0.05614500 0.67250000
15 -3.99235700 -0.89119100 -1.82790900 -0.62000300 0.31411000 1.76409400
16 -1.40591800 -0.00002500 -0.00000200 -0.00129200 -0.02942300 0.92066700
17 -1.17535800 0.00012600 -0.00001900 0.05085000 0.08568500 0.76620000
18 -4.52675100 -0.69058000 -1.12074100 -0.56396100 0.15141100 1.67446600
19 -1.74403400 0.00003100 -0.00000700 -0.02083900 -0.02101900 1.19257100
20 -1.36876700 0.00002100 0.00000500 0.03795400 0.03618700 0.70440900
21 -1.71880300 -1.28270600 0.93153400 1.92208600 0.68600200 0.68044800
22 -1.52344700 0.00003100 0.00003100 -0.19097800 0.11191200 0.75188300
23 -1.59928500 0.00001100 0.00001500 -0.07634400 -0.04309900 0.82700900
24 -5.72900500 -2.07522500 1.26164400 -0.22131700 -0.25482300 0.38567300
25 4.03262700 -0.05195900 1.39297000 0.00000000 0.00000100 1.57079600
26 0.00000000 1.79435200 -0.11224600 0.00000000 0.00000000 0.00000000
27 0.00000100 1.95988100 0.11224500 -0.09957600 -0.00000500 0.00000000
28 0.90794400 -0.01874400 0.44405500 0.00000000 0.00000200 0.00000000
29 -1.00263100 -0.00968800 0.10351000 0.00000000 0.00000200 0.00000000
30 0.34110300 -0.69403300 -0.27889800 0.00000000 0.00000200 0.00000000
31 5.57407000 0.37809200 -2.73982300 0.46912600 1.00744600 1.76807200
32 6.91149200 -10.17816200 -3.95255000 -3.06638300 0.32214000 -1.15021900
33 5.51182000 0.00000800 -0.00000200 2.24315294 0.00029211 3.14143594
34 0.19684600 -0.00000200 0.00000300 2.79340692 -0.00055604 -3.14146587
35 -1.84224300 -11.66547400 -1.48897800 1.97586200 1.15991000 1.84280300
36 6.21448600 0.00000800 0.00001900 -0.97035748 0.58931129 -1.94417746
37 11.94488800 -0.00003100 -0.00020000 -0.35560398 -0.34270962 -1.77342635
38 10.62016500 0.00000200 0.00000100 -1.18886583 -0.27273507 -0.67906700
39 4.75115400 0.69439100 -0.83047600 -0.05604000 -0.27916000 0.54614000
40 1.68807200 -0.00002800 0.00000300 0.01539000 -0.01932400 0.76600700
41 1.33615100 -0.00005100 -0.00000900 -0.01007300 -0.03740000 0.63314200
42 4.82051100 0.50935400 0.22486200 -0.50465500 -0.07895800 1.32843800
43 1.82700000 0.00007100 0.00001000 -0.00009900 0.09268000 1.27107100
44 1.43658800 -0.00000800 0.00001000 0.00128400 -0.01507900 0.75225800
45 3.99235300 0.89109800 1.82799400 -0.69420600 0.26490800 1.45157800
46 1.40591400 0.00002300 -0.00000500 -0.00636800 -0.00481500 1.09379200
47 1.17536500 -0.00013100 0.00000100 0.07309900 0.09934300 0.59118900
48 4.52675800 0.69047400 1.12084100 -0.62572200 0.07506900 1.45199700
49 1.74403800 -0.00003100 -0.00000300 -0.00781000 0.00768100 1.31718700
50 1.36875900 -0.00002800 -0.00001300 0.00110000 0.14281800 0.58694100
51 1.87485500 0.93508500 -0.99913000 2.20042200 0.62653300 1.17457300
52 1.52345800 -0.00003100 -0.00000200 -0.49435700 -0.15897800 0.91724000
53 1.59927600 0.00000200 0.00000700 0.08104100 0.01999600 0.58449300
54 5.97544100 2.52891300 -1.05694100 -3.06047300 0.29749000 -2.77827600
55 0.90794400 -0.01874300 0.44405700 -0.00000100 0.00000000 0.00000000
56 -1.00262800 -0.00968800 0.10351000 -0.00000100 0.00000000 0.00000000
57 0.34110300 -0.69403300 -0.27889800 -0.00000100 0.00000000 0.00000000
58 4.03262200 -0.05195600 1.39297500 0.00000000 0.00000100 1.57079600
59 0.00000000 1.79435100 -0.11224500 0.00000000 0.00000000 0.00000000
60 -0.00000100 1.95988200 0.11224500 -0.09957600 -0.00000500 0.00000100
61 5.51180800 -0.00000200 0.00000100 -0.23579700 0.00000500 0.00000700
62 0.19684900 0.00000300 -0.00000100 -0.34822500 0.00001500 -0.00000200
63 0.00000000 0.00000000 0.00000000 0.00000000 0.00000000 -1.57079600
end
