version 1
nodes
0 "root" -1
1 "pelvis" 0
2 "spine_01" 1
3 "spine_02" 2
4 "spine_03" 3
5 "clavicle_r" 4
6 "upperarm_r" 5
7 "lowerarm_r" 6
8 "hand_r" 7
9 "index_01_r" 8
10 "index_02_r" 9
11 "index_03_r" 10
12 "middle_01_r" 8
13 "middle_02_r" 12
14 "middle_03_r" 13
15 "pinky_01_r" 8
16 "pinky_02_r" 15
17 "pinky_03_r" 16
18 "ring_01_r" 8
19 "ring_02_r" 18
20 "ring_03_r" 19
21 "thumb_01_r" 8
22 "thumb_02_r" 21
23 "thumb_03_r" 22
24 "lowerarm_twist_01_r" 7
25 "upperarm_twist_01_r" 6
26 "clavicle_l" 4
27 "upperarm_l" 26
28 "lowerarm_l" 27
29 "hand_l" 28
30 "index_01_l" 29
31 "index_02_l" 30
32 "index_03_l" 31
33 "middle_01_l" 29
34 "middle_02_l" 33
35 "middle_03_l" 34
36 "pinky_01_l" 29
37 "pinky_02_l" 36
38 "pinky_03_l" 37
39 "ring_01_l" 29
40 "ring_02_l" 39
41 "ring_03_l" 40
42 "thumb_01_l" 29
43 "thumb_02_l" 42
44 "thumb_03_l" 43
45 "lowerarm_twist_01_l" 28
46 "upperarm_twist_01_l" 27
47 "cam_driver" -1
48 "BaseRoot" -1
49 "Base" 48
50 "rhand_ikTarget" 49
51 "Trigger" 49
52 "Mag" 49
53 "Bullets" 52
54 "Bolt" 49
55 "MagRelease" 49
56 "lhand_ikTarget" 49
end
skeleton
time 0
0 -0.00000100 8.45008800 -27.50902600 0.00000000 0.00000000 0.00003100
1 -0.00000200 0.00000000 0.00000000 1.57074300 -1.56713700 -1.57074300
2 4.25546800 -0.33518300 -0.00000200 0.00000000 0.00000000 -0.12484800
3 7.43124800 1.49647700 0.00000200 0.00000000 0.00000000 0.24545000
4 5.27847900 0.16554100 0.00000100 0.00000000 0.00000000 0.04851100
5 4.13153500 -5.04083300 -1.73732300 1.97586400 1.15990900 -1.29878600
6 -6.21448200 -0.00000700 -0.00002700 -2.74491097 -0.53675230 1.61768790
7 11.94488700 0.00000000 0.00000000 -0.35788658 -0.31658393 1.97272964
8 10.62018300 0.00000000 -0.00000100 0.91961685 -0.18454368 1.62465839
9 -4.75111200 -0.69449200 0.83057300 0.04913500 -0.07824800 0.26163600
10 -1.68807100 0.00004700 -0.00003100 0.02216600 -0.01093400 0.32820700
11 -1.33613900 0.00005600 -0.00001200 0.02584800 0.00498300 0.36433000
12 -4.82049900 -0.50945800 -0.22476000 -0.30996000 0.01843000 1.56221200
13 -1.82699000 -0.00006600 0.00000700 -0.01505300 0.03754500 0.89279800
14 -1.43657900 0.00001100 0.00000300 -0.04326900 -0.06465400 0.49796600
15 -3.99236100 -0.89118600 -1.82790700 -0.39357000 0.38726600 1.76892200
16 -1.40592400 -0.00002500 -0.00000300 0.01207400 -0.02686800 0.45175400
17 -1.17536200 0.00012700 -0.00002000 0.05312600 0.04227700 0.80292000
18 -4.52675500 -0.69057300 -1.12074400 -0.26184200 0.27532100 1.85528700
19 -1.74404500 0.00003700 -0.00000800 -0.00637800 -0.02888000 0.62763700
20 -1.36876500 0.00002400 0.00000400 0.02849100 0.04404900 0.47030300
21 -1.87480200 -0.93512600 0.99917200 2.30037900 0.31378400 1.08810900
22 -1.52345300 0.00003000 0.00002700 0.05305500 0.16566500 0.41250900
23 -1.59928500 0.00000500 0.00001200 0.03405500 -0.02608500 0.63444600
24 5.58312400 0.11572500 0.29499600 2.70854600 -0.05525400 3.09741800
25 0.19684900 -0.00000300 0.00000300 2.79340686 -0.00080953 -3.14141575
26 2.12281100 -15.16142700 -1.88612700 1.97586200 1.15990900 1.84280300
27 6.21448500 0.00000600 0.00002000 -0.24101644 0.64809406 -1.64289290
28 11.94488700 -0.00003400 -0.00019000 0.02814903 -0.35218576 -1.70874297
29 10.62016500 0.00000600 0.00000800 -2.05418634 -0.28403284 0.54625516
30 4.75115700 0.69437500 -0.83047200 -0.33659400 -0.22394700 1.27220000
31 1.68806600 -0.00002600 0.00000200 -0.00123400 -0.02467300 1.48766100
32 1.33614400 -0.00005300 -0.00000900 0.01621300 -0.03516800 -0.06228900
33 4.82051300 0.50933800 0.22486600 -0.37685200 -0.01490600 1.55226800
34 1.82699600 0.00006700 0.00000800 -0.00051300 0.04045200 1.26079000
35 1.43658100 -0.00001000 0.00000700 0.01098600 -0.01043400 0.02903600
36 3.99235000 0.89108800 1.82799500 -0.58773500 -0.00855600 1.20568000
37 1.40592100 0.00002400 -0.00000500 -0.01283800 -0.02655700 1.32518700
38 1.17536400 -0.00013000 0.00000300 0.05517300 0.11025000 0.42008900
39 4.52675500 0.69045900 1.12084200 -0.49029100 0.04882300 1.52995500
40 1.74404200 -0.00003200 -0.00000200 -0.02474200 -0.01616300 1.40363300
41 1.36876300 -0.00003200 -0.00001700 -0.32324300 0.09380000 -0.20753100
42 1.93928400 1.01468700 -0.90910100 2.09823500 0.36922500 1.35026100
43 1.52345200 -0.00003300 -0.00000300 0.01413000 -0.08869500 0.51776000
44 1.59927900 0.00000100 0.00000600 0.07477700 -0.03719000 1.28672500
45 5.51180600 0.00000000 0.00000400 -0.27198700 0.00000000 0.00000000
46 0.19684700 0.00000100 0.00000000 -0.34822500 0.00001500 -0.00000200
47 0.00000000 1.00000000 0.00000000 0.00000000 0.00000000 -1.57079600
48 -3.84604500 5.36570100 -3.19804200 0.00000000 0.00000000 -3.14156200
49 -3.55193963 20.53672523 0.59294573 -0.02265920 -0.01580377 -1.57545224
50 10.29365200 1.65650000 -1.39242200 -0.59230200 1.24938800 1.04281400
51 3.12262200 -0.01178200 -0.68646900 0.00000000 0.00000000 0.00000000
52 -4.01753200 -0.01178200 0.12452700 0.00000000 0.00000000 0.00000000
53 0.05046500 0.00000000 0.46481100 0.00000000 0.00000000 0.00000000
54 1.27159000 0.74292900 1.02600600 0.00000000 0.00000000 0.00000000
55 -3.03010000 -0.02560600 -1.06275300 0.00000000 0.00000000 0.00000000
56 -1.93822300 -2.92684800 -4.39031000 2.85215900 -0.11258400 -1.97203800
time 1
0 -0.00000100 8.45008800 -27.50902600 0.00000000 0.00000000 0.00003100
1 -0.00000200 0.00000000 0.00000000 1.57074300 -1.56713700 -1.57074300
2 4.25546800 -0.33518300 -0.00000200 0.00000000 0.00000000 -0.12484800
3 7.43124800 1.49647700 0.00000200 0.00000000 0.00000000 0.24545000
4 5.27847900 0.16554100 0.00000100 0.00000000 0.00000000 0.04851100
5 4.01780200 -5.19929000 -1.57897500 1.97586400 1.15990900 -1.29878600
6 -6.21448200 -0.00000700 -0.00002700 -2.75083026 -0.55179156 1.62586918
7 11.94488700 0.00000000 0.00000000 -0.36327660 -0.31430125 1.98977647
8 10.62018300 0.00000000 -0.00000100 0.91406886 -0.18721848 1.64915423
9 -4.75111200 -0.69449200 0.83057300 0.04913500 -0.07824800 0.26163600
10 -1.68807100 0.00004700 -0.00003100 0.02216600 -0.01093400 0.32820700
11 -1.33613900 0.00005600 -0.00001200 0.02584800 0.00498300 0.36433000
12 -4.82049900 -0.50945800 -0.22476000 -0.30996000 0.01843000 1.56221200
13 -1.82699000 -0.00006600 0.00000700 -0.01505300 0.03754500 0.89279800
14 -1.43657900 0.00001100 0.00000300 -0.04326900 -0.06465400 0.49796600
15 -3.99236100 -0.89118600 -1.82790700 -0.39357000 0.38726600 1.76892200
16 -1.40592400 -0.00002500 -0.00000300 0.01207400 -0.02686800 0.45175400
17 -1.17536200 0.00012700 -0.00002000 0.05312600 0.04227700 0.80292000
18 -4.52675500 -0.69057300 -1.12074400 -0.26184200 0.27532100 1.85528700
19 -1.74404500 0.00003700 -0.00000800 -0.00637800 -0.02888000 0.62763700
20 -1.36876500 0.00002400 0.00000400 0.02849100 0.04404900 0.47030300
21 -1.87480200 -0.93512600 0.99917200 2.30037900 0.31378400 1.08810900
22 -1.52345300 0.00003000 0.00002700 0.05305500 0.16566500 0.41250900
23 -1.59928500 0.00000500 0.00001200 0.03405500 -0.02608500 0.63444600
24 5.58312400 0.11572500 0.29499600 2.70854600 -0.05525400 3.09741800
25 0.19684900 -0.00000300 0.00000300 2.79340686 -0.00080953 -3.14141575
26 2.08572100 -15.08686400 -1.87721400 1.97586200 1.15990900 1.84280300
27 6.21448500 0.00000600 0.00002000 -0.24320023 0.64451288 -1.63910969
28 11.94488700 -0.00003400 -0.00019000 0.02636525 -0.35363155 -1.70361981
29 10.62016500 0.00000600 0.00000800 -2.03787272 -0.29710017 0.53543458
30 4.75115700 0.69437500 -0.83047200 -0.33659400 -0.22394700 1.27220000
31 1.68806600 -0.00002600 0.00000200 -0.00123400 -0.02467300 1.48766100
32 1.33614400 -0.00005300 -0.00000900 0.01621300 -0.03516800 -0.06228900
33 4.82051300 0.50933800 0.22486600 -0.37685200 -0.01490600 1.55226800
34 1.82699600 0.00006700 0.00000800 -0.00051300 0.04045200 1.26079000
35 1.43658100 -0.00001000 0.00000700 0.01098600 -0.01043400 0.02903600
36 3.99235000 0.89108800 1.82799500 -0.58773500 -0.00855600 1.20568000
37 1.40592100 0.00002400 -0.00000500 -0.01283800 -0.02655700 1.32518700
38 1.17536400 -0.00013000 0.00000300 0.05517300 0.11025000 0.42008900
39 4.52675500 0.69045900 1.12084200 -0.49029100 0.04882300 1.52995500
40 1.74404200 -0.00003200 -0.00000200 -0.02474200 -0.01616300 1.40363300
41 1.36876300 -0.00003200 -0.00001700 -0.32324300 0.09380000 -0.20753100
42 1.93928400 1.01468700 -0.90910100 2.09823500 0.36922500 1.35026100
43 1.52345200 -0.00003300 -0.00000300 0.01413000 -0.08869500 0.51776000
44 1.59927900 0.00000100 0.00000600 0.07477700 -0.03719000 1.28672500
45 5.51180600 0.00000000 0.00000400 -0.27198700 0.00000000 0.00000000
46 0.19684700 0.00000100 0.00000000 -0.34822500 0.00001500 -0.00000200
47 0.00000000 1.00000000 0.00000000 0.00000000 0.00000000 -1.57079600
48 -3.84604500 5.36570100 -3.19804200 0.00000000 0.00000000 -3.14156200
49 -3.58179383 20.53455623 0.52921666 -0.02630577 0.00112204 -1.55480847
50 10.29365200 1.65650000 -1.39242200 -0.59230200 1.24938800 1.04281400
51 3.12262200 -0.01178200 -0.68646900 0.00000000 0.00000000 0.00000000
52 -4.01753200 -0.01178200 0.12452700 0.00000000 0.00000000 0.00000000
53 0.05046500 0.00000000 0.46481100 0.00000000 0.00000000 0.00000000
54 1.27159000 0.74292900 1.02600600 0.00000000 0.00000000 0.00000000
55 -3.03010000 -0.02560600 -1.06275300 0.00000000 0.00000000 0.00000000
56 -1.93822300 -2.92684800 -4.39031000 2.85215900 -0.11258400 -1.97203800
time 2
0 -0.00000100 8.45008800 -27.50902600 0.00000000 0.00000000 0.00003100
1 -0.00000200 0.00000000 0.00000000 1.57074300 -1.56713700 -1.57074300
2 4.25546800 -0.33518300 -0.00000200 0.00000000 0.00000000 -0.12484800
3 7.43124800 1.49647700 0.00000200 0.00000000 0.00000000 0.24545000
4 5.27847900 0.16554100 0.00000100 0.00000000 0.00000000 0.04851100
5 3.70336500 -5.63737100 -1.14119100 1.97586400 1.15990900 -1.29878600
6 -6.21448200 -0.00000700 -0.00002700 -2.75951699 -0.58980762 1.64477679
7 11.94488700 0.00000000 0.00000000 -0.37577977 -0.30885014 2.02975854
8 10.62018300 0.00000000 -0.00000100 0.94135642 -0.19227167 1.72092820
9 -4.75111200 -0.69449200 0.83057300 0.04913500 -0.07824800 0.26163600
10 -1.68807100 0.00004700 -0.00003100 0.02216600 -0.01093400 0.32820700
11 -1.33613900 0.00005600 -0.00001200 0.02584800 0.00498300 0.36433000
12 -4.82049900 -0.50945800 -0.22476000 -0.30996000 0.01843000 1.56221200
13 -1.82699000 -0.00006600 0.00000700 -0.01505300 0.03754500 0.89279800
14 -1.43657900 0.00001100 0.00000300 -0.04326900 -0.06465400 0.49796600
15 -3.99236100 -0.89118600 -1.82790700 -0.39357000 0.38726600 1.76892200
16 -1.40592400 -0.00002500 -0.00000300 0.01207400 -0.02686800 0.45175400
17 -1.17536200 0.00012700 -0.00002000 0.05312600 0.04227700 0.80292000
18 -4.52675500 -0.69057300 -1.12074400 -0.26184200 0.27532100 1.85528700
19 -1.74404500 0.00003700 -0.00000800 -0.00637800 -0.02888000 0.62763700
20 -1.36876500 0.00002400 0.00000400 0.02849100 0.04404900 0.47030300
21 -1.87480200 -0.93512600 0.99917200 2.30037900 0.31378400 1.08810900
22 -1.52345300 0.00003000 0.00002700 0.05305500 0.16566500 0.41250900
23 -1.59928500 0.00000500 0.00001200 0.03405500 -0.02608500 0.63444600
24 5.58312400 0.11572500 0.29499600 2.70854600 -0.05525400 3.09741800
25 0.19684900 -0.00000300 0.00000300 2.79340686 -0.00080953 -3.14141575
26 1.98135300 -14.87704800 -1.85213400 1.97586200 1.15990900 1.84280300
27 6.21448500 0.00000600 0.00002000 -0.24013318 0.63351948 -1.63176489
28 11.94488700 -0.00003400 -0.00019000 0.01915707 -0.35524265 -1.68226143
29 10.62016500 0.00000600 0.00000800 -2.02708263 -0.36631108 0.49894336
30 4.75115700 0.69437500 -0.83047200 -0.33659400 -0.22394700 1.27220000
31 1.68806600 -0.00002600 0.00000200 -0.00123400 -0.02467300 1.48766100
32 1.33614400 -0.00005300 -0.00000900 0.01621300 -0.03516800 -0.06228900
33 4.82051300 0.50933800 0.22486600 -0.37685200 -0.01490600 1.55226800
34 1.82699600 0.00006700 0.00000800 -0.00051300 0.04045200 1.26079000
35 1.43658100 -0.00001000 0.00000700 0.01098600 -0.01043400 0.02903600
36 3.99235000 0.89108800 1.82799500 -0.58773500 -0.00855600 1.20568000
37 1.40592100 0.00002400 -0.00000500 -0.01283800 -0.02655700 1.32518700
38 1.17536400 -0.00013000 0.00000300 0.05517300 0.11025000 0.42008900
39 4.52675500 0.69045900 1.12084200 -0.49029100 0.04882300 1.52995500
40 1.74404200 -0.00003200 -0.00000200 -0.02474200 -0.01616300 1.40363300
41 1.36876300 -0.00003200 -0.00001700 -0.32324300 0.09380000 -0.20753100
42 1.93928400 1.01468700 -0.90910100 2.09823500 0.36922500 1.35026100
43 1.52345200 -0.00003300 -0.00000300 0.01413000 -0.08869500 0.51776000
44 1.59927900 0.00000100 0.00000600 0.07477700 -0.03719000 1.28672500
45 5.51180600 0.00000000 0.00000400 -0.27198700 0.00000000 0.00000000
46 0.19684700 0.00000100 0.00000000 -0.34822500 0.00001500 -0.00000200
47 0.00000000 1.00000000 0.00000000 0.00000000 0.00000000 -1.57079600
48 -3.84604500 5.36570100 -3.19804200 0.00000000 0.00000000 -3.14156200
49 -3.69121072 20.52896423 0.37606409 0.00293951 0.04901530 -1.49653863
50 10.29365200 1.65650000 -1.39242200 -0.59230200 1.24938800 1.04281400
51 3.12262200 -0.01178200 -0.68646900 0.00000000 0.00000000 0.00000000
52 -4.01753200 -0.01178200 0.12452700 0.00000000 0.00000000 0.00000000
53 0.05046500 0.00000000 0.46481100 0.00000000 0.00000000 0.00000000
54 1.27159000 0.74292900 1.02600600 0.00000000 0.00000000 0.00000000
55 -3.03010000 -0.02560600 -1.06275300 0.00000000 0.00000000 0.00000000
56 -1.93822300 -2.92684800 -4.39031000 2.85215900 -0.11258400 -1.97203800
time 3
0 -0.00000100 8.45008800 -27.50902600 0.00000000 0.00000000 0.00003100
1 -0.00000200 0.00000000 0.00000000 1.57074300 -1.56713700 -1.57074300
2 4.25546800 -0.33518300 -0.00000200 0.00000000 0.00000000 -0.12484800
3 7.43124800 1.49647700 0.00000200 0.00000000 0.00000000 0.24545000
4 5.27847900 0.16554100 0.00000100 0.00000000 0.00000000 0.04851100
5 3.22836600 -6.29915700 -0.47985600 1.97586400 1.15990900 -1.29878600
6 -6.21448200 -0.00000700 -0.00002700 -2.76796837 -0.64291480 1.67054273
7 11.94488700 0.00000000 0.00000000 -0.38954009 -0.30171442 2.07453168
8 10.62018300 0.00000000 -0.00000100 0.99684556 -0.20772952 1.83890463
9 -4.75111200 -0.69449200 0.83057300 0.04913500 -0.07824800 0.26163600
10 -1.68807100 0.00004700 -0.00003100 0.02216600 -0.01093400 0.32820700
11 -1.33613900 0.00005600 -0.00001200 0.02584800 0.00498300 0.36433000
12 -4.82049900 -0.50945800 -0.22476000 -0.30996000 0.01843000 1.56221200
13 -1.82699000 -0.00006600 0.00000700 -0.01505300 0.03754500 0.89279800
14 -1.43657900 0.00001100 0.00000300 -0.04326900 -0.06465400 0.49796600
15 -3.99236100 -0.89118600 -1.82790700 -0.39357000 0.38726600 1.76892200
16 -1.40592400 -0.00002500 -0.00000300 0.01207400 -0.02686800 0.45175400
17 -1.17536200 0.00012700 -0.00002000 0.05312600 0.04227700 0.80292000
18 -4.52675500 -0.69057300 -1.12074400 -0.26184200 0.27532100 1.85528700
19 -1.74404500 0.00003700 -0.00000800 -0.00637800 -0.02888000 0.62763700
20 -1.36876500 0.00002400 0.00000400 0.02849100 0.04404900 0.47030300
21 -1.87480200 -0.93512600 0.99917200 2.30037900 0.31378400 1.08810900
22 -1.52345300 0.00003000 0.00002700 0.05305500 0.16566500 0.41250900
23 -1.59928500 0.00000500 0.00001200 0.03405500 -0.02608500 0.63444600
24 5.58312400 0.11572500 0.29499600 2.70854600 -0.05525400 3.09741800
25 0.19684900 -0.00000300 0.00000300 2.79340686 -0.00080953 -3.14141575
26 1.82005500 -14.55278600 -1.81337200 1.97586200 1.15990900 1.84280300
27 6.21448500 0.00000600 0.00002000 -0.23320883 0.61665371 -1.62210284
28 11.94488700 -0.00003400 -0.00019000 0.00665196 -0.35600961 -1.64564523
29 10.62016500 0.00000600 0.00000800 -2.01936623 -0.48279204 0.44009938
30 4.75115700 0.69437500 -0.83047200 -0.33659400 -0.22394700 1.27220000
31 1.68806600 -0.00002600 0.00000200 -0.00123400 -0.02467300 1.48766100
32 1.33614400 -0.00005300 -0.00000900 0.01621300 -0.03516800 -0.06228900
33 4.82051300 0.50933800 0.22486600 -0.37685200 -0.01490600 1.55226800
34 1.82699600 0.00006700 0.00000800 -0.00051300 0.04045200 1.26079000
35 1.43658100 -0.00001000 0.00000700 0.01098600 -0.01043400 0.02903600
36 3.99235000 0.89108800 1.82799500 -0.58773500 -0.00855600 1.20568000
37 1.40592100 0.00002400 -0.00000500 -0.01283800 -0.02655700 1.32518700
38 1.17536400 -0.00013000 0.00000300 0.05517300 0.11025000 0.42008900
39 4.52675500 0.69045900 1.12084200 -0.49029100 0.04882300 1.52995500
40 1.74404200 -0.00003200 -0.00000200 -0.02474200 -0.01616300 1.40363300
41 1.36876300 -0.00003200 -0.00001700 -0.32324300 0.09380000 -0.20753100
42 1.93928400 1.01468700 -0.90910100 2.09823500 0.36922500 1.35026100
43 1.52345200 -0.00003300 -0.00000300 0.01413000 -0.08869500 0.51776000
44 1.59927900 0.00000100 0.00000600 0.07477700 -0.03719000 1.28672500
45 5.51180600 0.00000000 0.00000400 -0.27198700 0.00000000 0.00000000
46 0.19684700 0.00000100 0.00000000 -0.34822500 0.00001500 -0.00000200
47 0.00000000 1.00000000 0.00000000 0.00000000 0.00000000 -1.57079600
48 -3.84604500 5.36570100 -3.19804200 0.00000000 0.00000000 -3.14156200
49 -3.86986179 20.52131523 0.13189191 0.06489074 0.11789824 -1.40403471
50 10.29365200 1.65650000 -1.39242200 -0.59230200 1.24938800 1.04281400
51 3.12262200 -0.01178200 -0.68646900 0.00000000 0.00000000 0.00000000
52 -4.01753200 -0.01178200 0.12452700 0.00000000 0.00000000 0.00000000
53 0.05046500 0.00000000 0.46481100 0.00000000 0.00000000 0.00000000
54 1.27159000 0.74292900 1.02600600 0.00000000 0.00000000 0.00000000
55 -3.03010000 -0.02560600 -1.06275300 0.00000000 0.00000000 0.00000000
56 -1.93822300 -2.92684800 -4.39031000 2.85215900 -0.11258400 -1.97203800
time 4
0 -0.00000100 8.45008800 -27.50902600 0.00000000 0.00000000 0.00003100
1 -0.00000200 0.00000000 0.00000000 1.57074300 -1.56713700 -1.57074300
2 4.25546800 -0.33518300 -0.00000200 0.00000000 0.00000000 -0.12484800
3 7.43124800 1.49647700 0.00000200 0.00000000 0.00000000 0.24545000
4 5.27847900 0.16554100 0.00000100 0.00000000 0.00000000 0.04851100
5 2.63294500 -7.12871900 0.34914000 1.97586400 1.15990900 -1.29878600
6 -6.21448200 -0.00000700 -0.00002700 -2.76593086 -0.69942453 1.68760555
7 11.94488700 0.00000000 0.00000000 -0.39927119 -0.29624446 2.10674337
8 10.62018300 0.00000000 -0.00000100 1.06740312 -0.24416882 1.98791926
9 -4.75111200 -0.69449200 0.83057300 0.04913500 -0.07824800 0.26163600
10 -1.68807100 0.00004700 -0.00003100 0.02216600 -0.01093400 0.32820700
11 -1.33613900 0.00005600 -0.00001200 0.02584800 0.00498300 0.36433000
12 -4.82049900 -0.50945800 -0.22476000 -0.30996000 0.01843000 1.56221200
13 -1.82699000 -0.00006600 0.00000700 -0.01505300 0.03754500 0.89279800
14 -1.43657900 0.00001100 0.00000300 -0.04326900 -0.06465400 0.49796600
15 -3.99236100 -0.89118600 -1.82790700 -0.39357000 0.38726600 1.76892200
16 -1.40592400 -0.00002500 -0.00000300 0.01207400 -0.02686800 0.45175400
17 -1.17536200 0.00012700 -0.00002000 0.05312600 0.04227700 0.80292000
18 -4.52675500 -0.69057300 -1.12074400 -0.26184200 0.27532100 1.85528700
19 -1.74404500 0.00003700 -0.00000800 -0.00637800 -0.02888000 0.62763700
20 -1.36876500 0.00002400 0.00000400 0.02849100 0.04404900 0.47030300
21 -1.87480200 -0.93512600 0.99917200 2.30037900 0.31378400 1.08810900
22 -1.52345300 0.00003000 0.00002700 0.05305500 0.16566500 0.41250900
23 -1.59928500 0.00000500 0.00001200 0.03405500 -0.02608500 0.63444600
24 5.58312400 0.11572500 0.29499600 2.70854600 -0.05525400 3.09741800
25 0.19684900 -0.00000300 0.00000300 2.79340686 -0.00080953 -3.14141575
26 1.61217800 -14.13489000 -1.76341800 1.97586200 1.15990900 1.84280300
27 6.21448500 0.00000600 0.00002000 -0.22833160 0.59569641 -1.61064709
28 11.94488700 -0.00003400 -0.00019000 -0.00904529 -0.35673355 -1.59958496
29 10.62016500 0.00000600 0.00000800 -2.00125452 -0.62343316 0.36680369
30 4.75115700 0.69437500 -0.83047200 -0.33659400 -0.22394700 1.27220000
31 1.68806600 -0.00002600 0.00000200 -0.00123400 -0.02467300 1.48766100
32 1.33614400 -0.00005300 -0.00000900 0.01621300 -0.03516800 -0.06228900
33 4.82051300 0.50933800 0.22486600 -0.37685200 -0.01490600 1.55226800
34 1.82699600 0.00006700 0.00000800 -0.00051300 0.04045200 1.26079000
35 1.43658100 -0.00001000 0.00000700 0.01098600 -0.01043400 0.02903600
36 3.99235000 0.89108800 1.82799500 -0.58773500 -0.00855600 1.20568000
37 1.40592100 0.00002400 -0.00000500 -0.01283800 -0.02655700 1.32518700
38 1.17536400 -0.00013000 0.00000300 0.05517300 0.11025000 0.42008900
39 4.52675500 0.69045900 1.12084200 -0.49029100 0.04882300 1.52995500
40 1.74404200 -0.00003200 -0.00000200 -0.02474200 -0.01616300 1.40363300
41 1.36876300 -0.00003200 -0.00001700 -0.32324300 0.09380000 -0.20753100
42 1.93928400 1.01468700 -0.90910100 2.09823500 0.36922500 1.35026100
43 1.52345200 -0.00003300 -0.00000300 0.01413000 -0.08869500 0.51776000
44 1.59927900 0.00000100 0.00000600 0.07477700 -0.03719000 1.28672500
45 5.51180600 0.00000000 0.00000400 -0.27198700 0.00000000 0.00000000
46 0.19684700 0.00000100 0.00000000 -0.34822500 0.00001500 -0.00000200
47 0.00000000 1.00000000 0.00000000 0.00000000 0.00000000 -1.57079600
48 -3.84604500 5.36570100 -3.19804200 0.00000000 0.00000000 -3.14156200
49 -4.12378182 20.51298423 -0.16861335 0.14899026 0.19298608 -1.28071278
50 10.29365200 1.65650000 -1.39242200 -0.59230200 1.24938800 1.04281400
51 3.12262200 -0.01178200 -0.68646900 0.00000000 0.00000000 0.00000000
52 -4.01753200 -0.01178200 0.12452700 0.00000000 0.00000000 0.00000000
53 0.05046500 0.00000000 0.46481100 0.00000000 0.00000000 0.00000000
54 1.27159000 0.74292900 1.02600600 0.00000000 0.00000000 0.00000000
55 -3.03010000 -0.02560600 -1.06275300 0.00000000 0.00000000 0.00000000
56 -1.93822300 -2.92684800 -4.39031000 2.85215900 -0.11258400 -1.97203800
time 5
0 -0.00000100 8.45008800 -27.50902600 0.00000000 0.00000000 0.00003100
1 -0.00000200 0.00000000 0.00000000 1.57074300 -1.56713700 -1.57074300
2 4.25546800 -0.33518300 -0.00000200 0.00000000 0.00000000 -0.12484800
3 7.43124800 1.49647700 0.00000200 0.00000000 0.00000000 0.24545000
4 5.27847900 0.16554100 0.00000100 0.00000000 0.00000000 0.04851100
5 1.95724200 -8.07012900 1.28990900 1.97586400 1.15990900 -1.29878600
6 -6.21448200 -0.00000700 -0.00002700 -2.73481432 -0.74473078 1.66847221
7 11.94488700 0.00000000 0.00000000 -0.40307341 -0.29409574 2.11954549
8 10.62018300 0.00000000 -0.00000100 1.14302285 -0.31034043 2.12666787
9 -4.75111200 -0.69449200 0.83057300 0.04913500 -0.07824800 0.26163600
10 -1.68807100 0.00004700 -0.00003100 0.02216600 -0.01093400 0.32820700
11 -1.33613900 0.00005600 -0.00001200 0.02584800 0.00498300 0.36433000
12 -4.82049900 -0.50945800 -0.22476000 -0.30996000 0.01843000 1.56221200
13 -1.82699000 -0.00006600 0.00000700 -0.01505300 0.03754500 0.89279800
14 -1.43657900 0.00001100 0.00000300 -0.04326900 -0.06465400 0.49796600
15 -3.99236100 -0.89118600 -1.82790700 -0.39357000 0.38726600 1.76892200
16 -1.40592400 -0.00002500 -0.00000300 0.01207400 -0.02686800 0.45175400
17 -1.17536200 0.00012700 -0.00002000 0.05312600 0.04227700 0.80292000
18 -4.52675500 -0.69057300 -1.12074400 -0.26184200 0.27532100 1.85528700
19 -1.74404500 0.00003700 -0.00000800 -0.00637800 -0.02888000 0.62763700
20 -1.36876500 0.00002400 0.00000400 0.02849100 0.04404900 0.47030300
21 -1.87480200 -0.93512600 0.99917200 2.30037900 0.31378400 1.08810900
22 -1.52345300 0.00003000 0.00002700 0.05305500 0.16566500 0.41250900
23 -1.59928500 0.00000500 0.00001200 0.03405500 -0.02608500 0.63444600
24 5.58312400 0.11572500 0.29499600 2.70854600 -0.05525400 3.09741800
25 0.19684900 -0.00000300 0.00000300 2.79340686 -0.00080953 -3.14141575
26 1.36807600 -13.64416100 -1.70475900 1.97586200 1.15990900 1.84280300
27 6.21448500 0.00000600 0.00002000 -0.22920449 0.57454345 -1.59468578
28 11.94488700 -0.00003400 -0.00019000 -0.02432108 -0.35724310 -1.55497233
29 10.62016500 0.00000600 0.00000800 -1.96874477 -0.76322496 0.29569054
30 4.75115700 0.69437500 -0.83047200 -0.33659400 -0.22394700 1.27220000
31 1.68806600 -0.00002600 0.00000200 -0.00123400 -0.02467300 1.48766100
32 1.33614400 -0.00005300 -0.00000900 0.01621300 -0.03516800 -0.06228900
33 4.82051300 0.50933800 0.22486600 -0.37685200 -0.01490600 1.55226800
34 1.82699600 0.00006700 0.00000800 -0.00051300 0.04045200 1.26079000
35 1.43658100 -0.00001000 0.00000700 0.01098600 -0.01043400 0.02903600
36 3.99235000 0.89108800 1.82799500 -0.58773500 -0.00855600 1.20568000
37 1.40592100 0.00002400 -0.00000500 -0.01283800 -0.02655700 1.32518700
38 1.17536400 -0.00013000 0.00000300 0.05517300 0.11025000 0.42008900
39 4.52675500 0.69045900 1.12084200 -0.49029100 0.04882300 1.52995500
40 1.74404200 -0.00003200 -0.00000200 -0.02474200 -0.01616300 1.40363300
41 1.36876300 -0.00003200 -0.00001700 -0.32324300 0.09380000 -0.20753100
42 1.93928400 1.01468700 -0.90910100 2.09823500 0.36922500 1.35026100
43 1.52345200 -0.00003300 -0.00000300 0.01413000 -0.08869500 0.51776000
44 1.59927900 0.00000100 0.00000600 0.07477700 -0.03719000 1.28672500
45 5.51180600 0.00000000 0.00000400 -0.27198700 0.00000000 0.00000000
46 0.19684700 0.00000100 0.00000000 -0.34822500 0.00001500 -0.00000200
47 0.00000000 1.00000000 0.00000000 0.00000000 0.00000000 -1.57079600
48 -3.84604500 5.36570100 -3.19804200 0.00000000 0.00000000 -3.14156200
49 -4.46900006 20.50533523 -0.47760542 0.24044064 0.25283520 -1.13535996
50 10.29365200 1.65650000 -1.39242200 -0.59230200 1.24938800 1.04281400
51 3.12262200 -0.01178200 -0.68646900 0.00000000 0.00000000 0.00000000
52 -4.01753200 -0.01178200 0.12452700 0.00000000 0.00000000 0.00000000
53 0.05046500 0.00000000 0.46481100 0.00000000 0.00000000 0.00000000
54 1.27159000 0.74292900 1.02600600 0.00000000 0.00000000 0.00000000
55 -3.03010000 -0.02560600 -1.06275300 0.00000000 0.00000000 0.00000000
56 -1.93822300 -2.92684800 -4.39031000 2.85215900 -0.11258400 -1.97203800
time 6
0 -0.00000100 8.45008800 -27.50902600 0.00000000 0.00000000 0.00003100
1 -0.00000200 0.00000000 0.00000000 1.57074300 -1.56713700 -1.57074300
2 4.25546800 -0.33518300 -0.00000200 0.00000000 0.00000000 -0.12484800
3 7.43124800 1.49647700 0.00000200 0.00000000 0.00000000 0.24545000
4 5.27847900 0.16554100 0.00000100 0.00000000 0.00000000 0.04851100
5 1.24139700 -9.06746800 2.28656800 1.97586400 1.15990900 -1.29878600
6 -6.21448200 -0.00000700 -0.00002700 -2.67726105 -0.76852528 1.60247788
7 11.94488700 0.00000000 0.00000000 -0.40199005 -0.29376844 2.11568901
8 10.62018300 0.00000000 -0.00000100 1.20520191 -0.39499106 2.22245700
9 -4.75111200 -0.69449200 0.83057300 0.04913500 -0.07824800 0.26163600
10 -1.68807100 0.00004700 -0.00003100 0.02216600 -0.01093400 0.32820700
11 -1.33613900 0.00005600 -0.00001200 0.02584800 0.00498300 0.36433000
12 -4.82049900 -0.50945800 -0.22476000 -0.30996000 0.01843000 1.56221200
13 -1.82699000 -0.00006600 0.00000700 -0.01505300 0.03754500 0.89279800
14 -1.43657900 0.00001100 0.00000300 -0.04326900 -0.06465400 0.49796600
15 -3.99236100 -0.89118600 -1.82790700 -0.39357000 0.38726600 1.76892200
16 -1.40592400 -0.00002500 -0.00000300 0.01207400 -0.02686800 0.45175400
17 -1.17536200 0.00012700 -0.00002000 0.05312600 0.04227700 0.80292000
18 -4.52675500 -0.69057300 -1.12074400 -0.26184200 0.27532100 1.85528700
19 -1.74404500 0.00003700 -0.00000800 -0.00637800 -0.02888000 0.62763700
20 -1.36876500 0.00002400 0.00000400 0.02849100 0.04404900 0.47030300
21 -1.87480200 -0.93512600 0.99917200 2.30037900 0.31378400 1.08810900
22 -1.52345300 0.00003000 0.00002700 0.05305500 0.16566500 0.41250900
23 -1.59928500 0.00000500 0.00001200 0.03405500 -0.02608500 0.63444600
24 5.58312400 0.11572500 0.29499600 2.70854600 -0.05525400 3.09741800
25 0.19684900 -0.00000300 0.00000300 2.79340686 -0.00080953 -3.14141575
26 1.09809500 -13.10141600 -1.63988200 1.97586200 1.15990900 1.84280300
27 6.21448500 0.00000600 0.00002000 -0.24024187 0.55715594 -1.57261777
28 11.94488700 -0.00003400 -0.00019000 -0.03619358 -0.35668168 -1.52024387
29 10.62016500 0.00000600 0.00000800 -1.91924592 -0.87954120 0.23579229
30 4.75115700 0.69437500 -0.83047200 -0.33659400 -0.22394700 1.27220000
31 1.68806600 -0.00002600 0.00000200 -0.00123400 -0.02467300 1.48766100
32 1.33614400 -0.00005300 -0.00000900 0.01621300 -0.03516800 -0.06228900
33 4.82051300 0.50933800 0.22486600 -0.37685200 -0.01490600 1.55226800
34 1.82699600 0.00006700 0.00000800 -0.00051300 0.04045200 1.26079000
35 1.43658100 -0.00001000 0.00000700 0.01098600 -0.01043400 0.02903600
36 3.99235000 0.89108800 1.82799500 -0.58773500 -0.00855600 1.20568000
37 1.40592100 0.00002400 -0.00000500 -0.01283800 -0.02655700 1.32518700
38 1.17536400 -0.00013000 0.00000300 0.05517300 0.11025000 0.42008900
39 4.52675500 0.69045900 1.12084200 -0.49029100 0.04882300 1.52995500
40 1.74404200 -0.00003200 -0.00000200 -0.02474200 -0.01616300 1.40363300
41 1.36876300 -0.00003200 -0.00001700 -0.32324300 0.09380000 -0.20753100
42 1.93928400 1.01468700 -0.90910100 2.09823500 0.36922500 1.35026100
43 1.52345200 -0.00003300 -0.00000300 0.01413000 -0.08869500 0.51776000
44 1.59927900 0.00000100 0.00000600 0.07477700 -0.03719000 1.28672500
45 5.51180600 0.00000000 0.00000400 -0.27198700 0.00000000 0.00000000
46 0.19684700 0.00000100 0.00000000 -0.34822500 0.00001500 -0.00000200
47 0.00000000 1.00000000 0.00000000 0.00000000 0.00000000 -1.57079600
48 -3.84604500 5.36570100 -3.19804200 0.00000000 0.00000000 -3.14156200
49 -4.91795893 20.49974323 -0.75882969 0.31963856 0.28698400 -0.98327242
50 10.29365200 1.65650000 -1.39242200 -0.59230200 1.24938800 1.04281400
51 3.12262200 -0.01178200 -0.68646900 0.00000000 0.00000000 0.00000000
52 -4.01753200 -0.01178200 0.12452700 0.00000000 0.00000000 0.00000000
53 0.05046500 0.00000000 0.46481100 0.00000000 0.00000000 0.00000000
54 1.27159000 0.74292900 1.02600600 0.00000000 0.00000000 0.00000000
55 -3.03010000 -0.02560600 -1.06275300 0.00000000 0.00000000 0.00000000
56 -1.93822300 -2.92684800 -4.39031000 2.85215900 -0.11258400 -1.97203800
time 7
0 -0.00000100 8.45008800 -27.50902600 0.00000000 0.00000000 0.00003100
1 -0.00000200 0.00000000 0.00000000 1.57074300 -1.56713700 -1.57074300
2 4.25546800 -0.33518300 -0.00000200 0.00000000 0.00000000 -0.12484800
3 7.43124800 1.49647700 0.00000200 0.00000000 0.00000000 0.24545000
4 5.27847900 0.16554100 0.00000100 0.00000000 0.00000000 0.04851100
5 0.52555200 -10.06480500 3.28322500 1.97586400 1.15990900 -1.29878600
6 -6.21448200 -0.00000700 -0.00002700 -2.61652916 -0.76460431 1.50099546
7 11.94488700 0.00000000 0.00000000 -0.39715628 -0.29505100 2.09953316
8 10.62018300 0.00000000 -0.00000100 1.23990367 -0.47326780 2.26278184
9 -4.75111200 -0.69449200 0.83057300 0.04913500 -0.07824800 0.26163600
10 -1.68807100 0.00004700 -0.00003100 0.02216600 -0.01093400 0.32820700
11 -1.33613900 0.00005600 -0.00001200 0.02584800 0.00498300 0.36433000
12 -4.82049900 -0.50945800 -0.22476000 -0.30996000 0.01843000 1.56221200
13 -1.82699000 -0.00006600 0.00000700 -0.01505300 0.03754500 0.89279800
14 -1.43657900 0.00001100 0.00000300 -0.04326900 -0.06465400 0.49796600
15 -3.99236100 -0.89118600 -1.82790700 -0.39357000 0.38726600 1.76892200
16 -1.40592400 -0.00002500 -0.00000300 0.01207400 -0.02686800 0.45175400
17 -1.17536200 0.00012700 -0.00002000 0.05312600 0.04227700 0.80292000
18 -4.52675500 -0.69057300 -1.12074400 -0.26184200 0.27532100 1.85528700
19 -1.74404500 0.00003700 -0.00000800 -0.00637800 -0.02888000 0.62763700
20 -1.36876500 0.00002400 0.00000400 0.02849100 0.04404900 0.47030300
21 -1.87480200 -0.93512600 0.99917200 2.30037900 0.31378400 1.08810900
22 -1.52345300 0.00003000 0.00002700 0.05305500 0.16566500 0.41250900
23 -1.59928500 0.00000500 0.00001200 0.03405500 -0.02608500 0.63444600
24 5.58312400 0.11572500 0.29499600 2.70854600 -0.05525400 3.09741800
25 0.19684900 -0.00000300 0.00000300 2.79340686 -0.00080953 -3.14141575
26 0.81259000 -12.52745400 -1.57127200 1.97586200 1.15990900 1.84280300
27 6.21448500 0.00000600 0.00002000 -0.26869706 0.54650408 -1.54821088
28 11.94488700 -0.00003400 -0.00019000 -0.04371392 -0.35604961 -1.49824111
29 10.62016500 0.00000600 0.00000800 -1.85016195 -0.95373438 0.18924625
30 4.75115700 0.69437500 -0.83047200 -0.33659400 -0.22394700 1.27220000
31 1.68806600 -0.00002600 0.00000200 -0.00123400 -0.02467300 1.48766100
32 1.33614400 -0.00005300 -0.00000900 0.01621300 -0.03516800 -0.06228900
33 4.82051300 0.50933800 0.22486600 -0.37685200 -0.01490600 1.55226800
34 1.82699600 0.00006700 0.00000800 -0.00051300 0.04045200 1.26079000
35 1.43658100 -0.00001000 0.00000700 0.01098600 -0.01043400 0.02903600
36 3.99235000 0.89108800 1.82799500 -0.58773500 -0.00855600 1.20568000
37 1.40592100 0.00002400 -0.00000500 -0.01283800 -0.02655700 1.32518700
38 1.17536400 -0.00013000 0.00000300 0.05517300 0.11025000 0.42008900
39 4.52675500 0.69045900 1.12084200 -0.49029100 0.04882300 1.52995500
40 1.74404200 -0.00003200 -0.00000200 -0.02474200 -0.01616300 1.40363300
41 1.36876300 -0.00003200 -0.00001700 -0.32324300 0.09380000 -0.20753100
42 1.93928400 1.01468700 -0.90910100 2.09823500 0.36922500 1.35026100
43 1.52345200 -0.00003300 -0.00000300 0.01413000 -0.08869500 0.51776000
44 1.59927900 0.00000100 0.00000600 0.07477700 -0.03719000 1.28672500
45 5.51180600 0.00000000 0.00000400 -0.27198700 0.00000000 0.00000000
46 0.19684700 0.00000100 0.00000000 -0.34822500 0.00001500 -0.00000200
47 0.00000000 1.00000000 0.00000000 0.00000000 0.00000000 -1.57079600
48 -3.84604500 5.36570100 -3.19804200 0.00000000 0.00000000 -3.14156200
49 -5.46873317 20.49757423 -0.96186673 0.36975182 0.29602175 -0.84213394
50 10.29365200 1.65650000 -1.39242200 -0.59230200 1.24938800 1.04281400
51 3.12262200 -0.01178200 -0.68646900 0.00000000 0.00000000 0.00000000
52 -4.01753200 -0.01178200 0.12452700 0.00000000 0.00000000 0.00000000
53 0.05046500 0.00000000 0.46481100 0.00000000 0.00000000 0.00000000
54 1.27159000 0.74292900 1.02600600 0.00000000 0.00000000 0.00000000
55 -3.03010000 -0.02560600 -1.06275300 0.00000000 0.00000000 0.00000000
56 -1.93822300 -2.92684800 -4.39031000 2.85215900 -0.11258400 -1.97203800
time 8
0 -0.00000100 8.45008800 -27.50902600 0.00000000 0.00000000 0.00003100
1 -0.00000200 0.00000000 0.00000000 1.57074300 -1.56713700 -1.57074300
2 4.25546800 -0.33518300 -0.00000200 0.00000000 0.00000000 -0.12484800
3 7.43124800 1.49647700 0.00000200 0.00000000 0.00000000 0.24545000
4 5.27847900 0.16554100 0.00000100 0.00000000 0.00000000 0.04851100
5 -0.15015200 -11.00621800 4.22399700 1.97586400 1.15990900 -1.29878600
6 -6.21448200 -0.00000700 -0.00002700 -2.57863374 -0.73628559 1.38769518
7 11.94488700 0.00000000 0.00000000 -0.38830527 -0.29776035 2.07026507
8 10.62018300 0.00000000 -0.00000100 1.24848077 -0.52087155 2.26700631
9 -4.75111200 -0.69449200 0.83057300 0.04913500 -0.07824800 0.26163600
10 -1.68807100 0.00004700 -0.00003100 0.02216600 -0.01093400 0.32820700
11 -1.33613900 0.00005600 -0.00001200 0.02584800 0.00498300 0.36433000
12 -4.82049900 -0.50945800 -0.22476000 -0.30996000 0.01843000 1.56221200
13 -1.82699000 -0.00006600 0.00000700 -0.01505300 0.03754500 0.89279800
14 -1.43657900 0.00001100 0.00000300 -0.04326900 -0.06465400 0.49796600
15 -3.99236100 -0.89118600 -1.82790700 -0.39357000 0.38726600 1.76892200
16 -1.40592400 -0.00002500 -0.00000300 0.01207400 -0.02686800 0.45175400
17 -1.17536200 0.00012700 -0.00002000 0.05312600 0.04227700 0.80292000
18 -4.52675500 -0.69057300 -1.12074400 -0.26184200 0.27532100 1.85528700
19 -1.74404500 0.00003700 -0.00000800 -0.00637800 -0.02888000 0.62763700
20 -1.36876500 0.00002400 0.00000400 0.02849100 0.04404900 0.47030300
21 -1.87480200 -0.93512600 0.99917200 2.30037900 0.31378400 1.08810900
22 -1.52345300 0.00003000 0.00002700 0.05305500 0.16566500 0.41250900
23 -1.59928500 0.00000500 0.00001200 0.03405500 -0.02608500 0.63444600
24 5.58312400 0.11572500 0.29499600 2.70854600 -0.05525400 3.09741800
25 0.19684900 -0.00000300 0.00000300 2.79340686 -0.00080953 -3.14141575
26 0.52190900 -11.94309300 -1.50142000 1.97586200 1.15990900 1.84280300
27 6.21448500 0.00000600 0.00002000 -0.32044103 0.54316405 -1.52951414
28 11.94488700 -0.00003400 -0.00019000 -0.05035271 -0.35639726 -1.47882799
29 10.62016500 0.00000600 0.00000800 -1.76468231 -0.98356628 0.13879795
30 4.75115700 0.69437500 -0.83047200 -0.33659400 -0.22394700 1.27220000
31 1.68806600 -0.00002600 0.00000200 -0.00123400 -0.02467300 1.48766100
32 1.33614400 -0.00005300 -0.00000900 0.01621300 -0.03516800 -0.06228900
33 4.82051300 0.50933800 0.22486600 -0.37685200 -0.01490600 1.55226800
34 1.82699600 0.00006700 0.00000800 -0.00051300 0.04045200 1.26079000
35 1.43658100 -0.00001000 0.00000700 0.01098600 -0.01043400 0.02903600
36 3.99235000 0.89108800 1.82799500 -0.58773500 -0.00855600 1.20568000
37 1.40592100 0.00002400 -0.00000500 -0.01283800 -0.02655700 1.32518700
38 1.17536400 -0.00013000 0.00000300 0.05517300 0.11025000 0.42008900
39 4.52675500 0.69045900 1.12084200 -0.49029100 0.04882300 1.52995500
40 1.74404200 -0.00003200 -0.00000200 -0.02474200 -0.01616300 1.40363300
41 1.36876300 -0.00003200 -0.00001700 -0.32324300 0.09380000 -0.20753100
42 1.93928400 1.01468700 -0.90910100 2.09823500 0.36922500 1.35026100
43 1.52345200 -0.00003300 -0.00000300 0.01413000 -0.08869500 0.51776000
44 1.59927900 0.00000100 0.00000600 0.07477700 -0.03719000 1.28672500
45 5.51180600 0.00000000 0.00000400 -0.27198700 0.00000000 0.00000000
46 0.19684700 0.00000100 0.00000000 -0.34822500 0.00001500 -0.00000200
47 0.00000000 1.00000000 0.00000000 0.00000000 0.00000000 -1.57079600
48 -3.84604500 5.36570100 -3.19804200 0.00000000 0.00000000 -3.14156200
49 -6.14319047 20.50128023 -1.09128942 0.39663149 0.29032192 -0.72271002
50 10.29365200 1.65650000 -1.39242200 -0.59230200 1.24938800 1.04281400
51 3.12262200 -0.01178200 -0.68646900 0.00000000 0.00000000 0.00000000
52 -4.01753200 -0.01178200 0.12452700 0.00000000 0.00000000 0.00000000
53 0.05046500 0.00000000 0.46481100 0.00000000 0.00000000 0.00000000
54 1.27159000 0.74292900 1.02600600 0.00000000 0.00000000 0.00000000
55 -3.03010000 -0.02560600 -1.06275300 0.00000000 0.00000000 0.00000000
56 -1.93822300 -2.92684800 -4.39031000 2.85215900 -0.11258400 -1.97203800
time 9
0 -0.00000100 8.45008800 -27.50902600 0.00000000 0.00000000 0.00003100
1 -0.00000200 0.00000000 0.00000000 1.57074300 -1.56713700 -1.57074300
2 4.25546800 -0.33518300 -0.00000200 0.00000000 0.00000000 -0.12484800
3 7.43124800 1.49647700 0.00000200 0.00000000 0.00000000 0.24545000
4 5.27847900 0.16554100 0.00000100 0.00000000 0.00000000 0.04851100
5 -0.74557300 -11.83577900 5.05299300 1.97586400 1.15990900 -1.29878600
6 -6.21448200 -0.00000700 -0.00002700 -2.56655706 -0.69469575 1.27996078
7 11.94488700 0.00000000 0.00000000 -0.37342656 -0.30287064 2.02166871
8 10.62018300 0.00000000 -0.00000100 1.24324004 -0.53730695 2.27169354
9 -4.75111200 -0.69449200 0.83057300 0.04913500 -0.07824800 0.26163600
10 -1.68807100 0.00004700 -0.00003100 0.02216600 -0.01093400 0.32820700
11 -1.33613900 0.00005600 -0.00001200 0.02584800 0.00498300 0.36433000
12 -4.82049900 -0.50945800 -0.22476000 -0.30996000 0.01843000 1.56221200
13 -1.82699000 -0.00006600 0.00000700 -0.01505300 0.03754500 0.89279800
14 -1.43657900 0.00001100 0.00000300 -0.04326900 -0.06465400 0.49796600
15 -3.99236100 -0.89118600 -1.82790700 -0.39357000 0.38726600 1.76892200
16 -1.40592400 -0.00002500 -0.00000300 0.01207400 -0.02686800 0.45175400
17 -1.17536200 0.00012700 -0.00002000 0.05312600 0.04227700 0.80292000
18 -4.52675500 -0.69057300 -1.12074400 -0.26184200 0.27532100 1.85528700
19 -1.74404500 0.00003700 -0.00000800 -0.00637800 -0.02888000 0.62763700
20 -1.36876500 0.00002400 0.00000400 0.02849100 0.04404900 0.47030300
21 -1.87480200 -0.93512600 0.99917200 2.30037900 0.31378400 1.08810900
22 -1.52345300 0.00003000 0.00002700 0.05305500 0.16566500 0.41250900
23 -1.59928500 0.00000500 0.00001200 0.03405500 -0.02608500 0.63444600
24 5.58312400 0.11572500 0.29499600 2.70854600 -0.05525400 3.09741800
25 0.19684900 -0.00000300 0.00000300 2.79340686 -0.00080953 -3.14141575
26 0.23640300 -11.36913300 -1.43281000 1.97586200 1.15990900 1.84280300
27 6.21448500 0.00000600 0.00002000 -0.39813732 0.54508994 -1.52571738
28 11.94488700 -0.00003400 -0.00019000 -0.06114043 -0.35861952 -1.44736740
29 10.62016500 0.00000600 0.00000800 -1.66368457 -0.98002957 0.05931654
30 4.75115700 0.69437500 -0.83047200 -0.33659400 -0.22394700 1.27220000
31 1.68806600 -0.00002600 0.00000200 -0.00123400 -0.02467300 1.48766100
32 1.33614400 -0.00005300 -0.00000900 0.01621300 -0.03516800 -0.06228900
33 4.82051300 0.50933800 0.22486600 -0.37685200 -0.01490600 1.55226800
34 1.82699600 0.00006700 0.00000800 -0.00051300 0.04045200 1.26079000
35 1.43658100 -0.00001000 0.00000700 0.01098600 -0.01043400 0.02903600
36 3.99235000 0.89108800 1.82799500 -0.58773500 -0.00855600 1.20568000
37 1.40592100 0.00002400 -0.00000500 -0.01283800 -0.02655700 1.32518700
38 1.17536400 -0.00013000 0.00000300 0.05517300 0.11025000 0.42008900
39 4.52675500 0.69045900 1.12084200 -0.49029100 0.04882300 1.52995500
40 1.74404200 -0.00003200 -0.00000200 -0.02474200 -0.01616300 1.40363300
41 1.36876300 -0.00003200 -0.00001700 -0.32324300 0.09380000 -0.20753100
42 1.93928400 1.01468700 -0.90910100 2.09823500 0.36922500 1.35026100
43 1.52345200 -0.00003300 -0.00000300 0.01413000 -0.08869500 0.51776000
44 1.59927900 0.00000100 0.00000600 0.07477700 -0.03719000 1.28672500
45 5.51180600 0.00000000 0.00000400 -0.27198700 0.00000000 0.00000000
46 0.19684700 0.00000100 0.00000000 -0.34822500 0.00001500 -0.00000200
47 0.00000000 1.00000000 0.00000000 0.00000000 0.00000000 -1.57079600
48 -3.84604500 5.36570100 -3.19804200 0.00000000 0.00000000 -3.14156200
49 -6.93106959 20.51105523 -1.18694194 0.41978384 0.28059101 -0.62355713
50 10.29365200 1.65650000 -1.39242200 -0.59230200 1.24938800 1.04281400
51 3.12262200 -0.01178200 -0.68646900 0.00000000 0.00000000 0.00000000
52 -4.01753200 -0.01178200 0.12452700 0.00000000 0.00000000 0.00000000
53 0.05046500 0.00000000 0.46481100 0.00000000 0.00000000 0.00000000
54 1.27159000 0.74292900 1.02600600 0.00000000 0.00000000 0.00000000
55 -3.03010000 -0.02560600 -1.06275300 0.00000000 0.00000000 0.00000000
56 -1.93822300 -2.92684800 -4.39031000 2.85215900 -0.11258400 -1.97203800
time 10
0 -0.00000100 8.45008800 -27.50902600 0.00000000 0.00000000 0.00003100
1 -0.00000200 0.00000000 0.00000000 1.57074300 -1.56713700 -1.57074300
2 4.25546800 -0.33518300 -0.00000200 0.00000000 0.00000000 -0.12484800
3 7.43124800 1.49647700 0.00000200 0.00000000 0.00000000 0.24545000
4 5.27847900 0.16554100 0.00000100 0.00000000 0.00000000 0.04851100
5 -1.22057300 -12.49756400 5.71432700 1.97586400 1.15990900 -1.29878600
6 -6.21448200 -0.00000700 -0.00002700 -2.55013160 -0.65730953 1.19460862
7 11.94488700 0.00000000 0.00000000 -0.35679199 -0.30816155 1.96900147
8 10.62018300 0.00000000 -0.00000100 1.24168899 -0.55870212 2.28608123
9 -4.75111200 -0.69449200 0.83057300 0.04913500 -0.07824800 0.26163600
10 -1.68807100 0.00004700 -0.00003100 0.02216600 -0.01093400 0.32820700
11 -1.33613900 0.00005600 -0.00001200 0.02584800 0.00498300 0.36433000
12 -4.82049900 -0.50945800 -0.22476000 -0.30996000 0.01843000 1.56221200
13 -1.82699000 -0.00006600 0.00000700 -0.01505300 0.03754500 0.89279800
14 -1.43657900 0.00001100 0.00000300 -0.04326900 -0.06465400 0.49796600
15 -3.99236100 -0.89118600 -1.82790700 -0.39357000 0.38726600 1.76892200
16 -1.40592400 -0.00002500 -0.00000300 0.01207400 -0.02686800 0.45175400
17 -1.17536200 0.00012700 -0.00002000 0.05312600 0.04227700 0.80292000
18 -4.52675500 -0.69057300 -1.12074400 -0.26184200 0.27532100 1.85528700
19 -1.74404500 0.00003700 -0.00000800 -0.00637800 -0.02888000 0.62763700
20 -1.36876500 0.00002400 0.00000400 0.02849100 0.04404900 0.47030300
21 -1.87480200 -0.93512600 0.99917200 2.30037900 0.31378400 1.08810900
22 -1.52345300 0.00003000 0.00002700 0.05305500 0.16566500 0.41250900
23 -1.59928500 0.00000500 0.00001200 0.03405500 -0.02608500 0.63444600
24 5.58312400 0.11572500 0.29499600 2.70854600 -0.05525400 3.09741800
25 0.19684900 -0.00000300 0.00000300 2.79340686 -0.00080953 -3.14141575
26 -0.03357800 -10.82638600 -1.36793200 1.97586200 1.15990900 1.84280300
27 6.21448500 0.00000600 0.00002000 -0.46745997 0.53767718 -1.53898325
28 11.94488700 -0.00003400 -0.00019000 -0.07628532 -0.36071499 -1.40277433
29 10.62016500 0.00000600 0.00000800 -1.57642438 -0.97863917 -0.01648474
30 4.75115700 0.69437500 -0.83047200 -0.33659400 -0.22394700 1.27220000
31 1.68806600 -0.00002600 0.00000200 -0.00123400 -0.02467300 1.48766100
32 1.33614400 -0.00005300 -0.00000900 0.01621300 -0.03516800 -0.06228900
33 4.82051300 0.50933800 0.22486600 -0.37685200 -0.01490600 1.55226800
34 1.82699600 0.00006700 0.00000800 -0.00051300 0.04045200 1.26079000
35 1.43658100 -0.00001000 0.00000700 0.01098600 -0.01043400 0.02903600
36 3.99235000 0.89108800 1.82799500 -0.58773500 -0.00855600 1.20568000
37 1.40592100 0.00002400 -0.00000500 -0.01283800 -0.02655700 1.32518700
38 1.17536400 -0.00013000 0.00000300 0.05517300 0.11025000 0.42008900
39 4.52675500 0.69045900 1.12084200 -0.49029100 0.04882300 1.52995500
40 1.74404200 -0.00003200 -0.00000200 -0.02474200 -0.01616300 1.40363300
41 1.36876300 -0.00003200 -0.00001700 -0.32324300 0.09380000 -0.20753100
42 1.93928400 1.01468700 -0.90910100 2.09823500 0.36922500 1.35026100
43 1.52345200 -0.00003300 -0.00000300 0.01413000 -0.08869500 0.51776000
44 1.59927900 0.00000100 0.00000600 0.07477700 -0.03719000 1.28672500
45 5.51180600 0.00000000 0.00000400 -0.27198700 0.00000000 0.00000000
46 0.19684700 0.00000100 0.00000000 -0.34822500 0.00001500 -0.00000200
47 0.00000000 1.00000000 0.00000000 0.00000000 0.00000000 -1.57079600
48 -3.84604500 5.36570100 -3.19804200 0.00000000 0.00000000 -3.14156200
49 -7.49170722 20.52487623 -1.24872445 0.44088774 0.26976181 -0.54355777
50 10.29365200 1.65650000 -1.39242200 -0.59230200 1.24938800 1.04281400
51 3.12262200 -0.01178200 -0.68646900 0.00000000 0.00000000 0.00000000
52 -4.01753200 -0.01178200 0.12452700 0.00000000 0.00000000 0.00000000
53 0.05046500 0.00000000 0.46481100 0.00000000 0.00000000 0.00000000
54 1.27159000 0.74292900 1.02600600 0.00000000 0.00000000 0.00000000
55 -3.03010000 -0.02560600 -1.06275300 0.00000000 0.00000000 0.00000000
56 -1.93822300 -2.92684800 -4.39031000 2.85215900 -0.11258400 -1.97203800
time 11
0 -0.00000100 8.45008800 -27.50902600 0.00000000 0.00000000 0.00003100
1 -0.00000200 0.00000000 0.00000000 1.57074300 -1.56713700 -1.57074300
2 4.25546800 -0.33518300 -0.00000200 0.00000000 0.00000000 -0.12484800
3 7.43124800 1.49647700 0.00000200 0.00000000 0.00000000 0.24545000
4 5.27847900 0.16554100 0.00000100 0.00000000 0.00000000 0.04851100
5 -1.53500700 -12.93564500 6.15210900 1.97586400 1.15990900 -1.29878600
6 -6.21448200 -0.00000700 -0.00002700 -2.52661651 -0.63068516 1.14110515
7 11.94488700 0.00000000 0.00000000 -0.34211573 -0.31215511 1.92298889
8 10.62018300 0.00000000 -0.00000100 1.24544634 -0.59282510 2.31279616
9 -4.75111200 -0.69449200 0.83057300 0.04913500 -0.07824800 0.26163600
10 -1.68807100 0.00004700 -0.00003100 0.02216600 -0.01093400 0.32820700
11 -1.33613900 0.00005600 -0.00001200 0.02584800 0.00498300 0.36433000
12 -4.82049900 -0.50945800 -0.22476000 -0.30996000 0.01843000 1.56221200
13 -1.82699000 -0.00006600 0.00000700 -0.01505300 0.03754500 0.89279800
14 -1.43657900 0.00001100 0.00000300 -0.04326900 -0.06465400 0.49796600
15 -3.99236100 -0.89118600 -1.82790700 -0.39357000 0.38726600 1.76892200
16 -1.40592400 -0.00002500 -0.00000300 0.01207400 -0.02686800 0.45175400
17 -1.17536200 0.00012700 -0.00002000 0.05312600 0.04227700 0.80292000
18 -4.52675500 -0.69057300 -1.12074400 -0.26184200 0.27532100 1.85528700
19 -1.74404500 0.00003700 -0.00000800 -0.00637800 -0.02888000 0.62763700
20 -1.36876500 0.00002400 0.00000400 0.02849100 0.04404900 0.47030300
21 -1.87480200 -0.93512600 0.99917200 2.30037900 0.31378400 1.08810900
22 -1.52345300 0.00003000 0.00002700 0.05305500 0.16566500 0.41250900
23 -1.59928500 0.00000500 0.00001200 0.03405500 -0.02608500 0.63444600
24 5.58312400 0.11572500 0.29499600 2.70854600 -0.05525400 3.09741800
25 0.19684900 -0.00000300 0.00000300 2.79340686 -0.00080953 -3.14141575
26 -0.27768000 -10.33565900 -1.30927200 1.97586200 1.15990900 1.84280300
27 6.21448500 0.00000600 0.00002000 -0.50799676 0.51809089 -1.55786177
28 11.94488700 -0.00003400 -0.00019000 -0.09357346 -0.36159780 -1.35162267
29 10.62016500 0.00000600 0.00000800 -1.51560652 -0.99456556 -0.07564607
30 4.75115700 0.69437500 -0.83047200 -0.33659400 -0.22394700 1.27220000
31 1.68806600 -0.00002600 0.00000200 -0.00123400 -0.02467300 1.48766100
32 1.33614400 -0.00005300 -0.00000900 0.01621300 -0.03516800 -0.06228900
33 4.82051300 0.50933800 0.22486600 -0.37685200 -0.01490600 1.55226800
34 1.82699600 0.00006700 0.00000800 -0.00051300 0.04045200 1.26079000
35 1.43658100 -0.00001000 0.00000700 0.01098600 -0.01043400 0.02903600
36 3.99235000 0.89108800 1.82799500 -0.58773500 -0.00855600 1.20568000
37 1.40592100 0.00002400 -0.00000500 -0.01283800 -0.02655700 1.32518700
38 1.17536400 -0.00013000 0.00000300 0.05517300 0.11025000 0.42008900
39 4.52675500 0.69045900 1.12084200 -0.49029100 0.04882300 1.52995500
40 1.74404200 -0.00003200 -0.00000200 -0.02474200 -0.01616300 1.40363300
41 1.36876300 -0.00003200 -0.00001700 -0.32324300 0.09380000 -0.20753100
42 1.93928400 1.01468700 -0.90910100 2.09823500 0.36922500 1.35026100
43 1.52345200 -0.00003300 -0.00000300 0.01413000 -0.08869500 0.51776000
44 1.59927900 0.00000100 0.00000600 0.07477700 -0.03719000 1.28672500
45 5.51180600 0.00000000 0.00000400 -0.27198700 0.00000000 0.00000000
46 0.19684700 0.00000100 0.00000000 -0.34822500 0.00001500 -0.00000200
47 0.00000000 1.00000000 0.00000000 0.00000000 0.00000000 -1.57079600
48 -3.84604500 5.36570100 -3.19804200 0.00000000 0.00000000 -3.14156200
49 -7.76860087 20.54071923 -1.28223982 0.46080283 0.26019795 -0.48094368
50 10.29365200 1.65650000 -1.39242200 -0.59230200 1.24938800 1.04281400
51 3.12262200 -0.01178200 -0.68646900 0.00000000 0.00000000 0.00000000
52 -4.01753200 -0.01178200 0.12452700 0.00000000 0.00000000 0.00000000
53 0.05046500 0.00000000 0.46481100 0.00000000 0.00000000 0.00000000
54 1.27159000 0.74292900 1.02600600 0.00000000 0.00000000 0.00000000
55 -3.03010000 -0.02560600 -1.06275300 0.00000000 0.00000000 0.00000000
56 -1.93822300 -2.92684800 -4.39031000 2.85215900 -0.11258400 -1.97203800
time 12
0 -0.00000100 8.45008800 -27.50902600 0.00000000 0.00000000 0.00003100
1 -0.00000200 0.00000000 0.00000000 1.57074300 -1.56713700 -1.57074300
2 4.25546800 -0.33518300 -0.00000200 0.00000000 0.00000000 -0.12484800
3 7.43124800 1.49647700 0.00000200 0.00000000 0.00000000 0.24545000
4 5.27847900 0.16554100 0.00000100 0.00000000 0.00000000 0.04851100
5 -1.64874100 -13.09410300 6.31045700 1.97586400 1.15990900 -1.29878600
6 -6.21448200 -0.00000700 -0.00002700 -2.50124193 -0.61436398 1.11856488
7 11.94488700 0.00000000 0.00000000 -0.32867722 -0.31539388 1.88189658
8 10.62018300 0.00000000 -0.00000100 1.24688237 -0.63390689 2.35582091
9 -4.75111200 -0.69449200 0.83057300 0.04913500 -0.07824800 0.26163600
10 -1.68807100 0.00004700 -0.00003100 0.02216600 -0.01093400 0.32820700
11 -1.33613900 0.00005600 -0.00001200 0.02584800 0.00498300 0.36433000
12 -4.82049900 -0.50945800 -0.22476000 -0.30996000 0.01843000 1.56221200
13 -1.82699000 -0.00006600 0.00000700 -0.01505300 0.03754500 0.89279800
14 -1.43657900 0.00001100 0.00000300 -0.04326900 -0.06465400 0.49796600
15 -3.99236100 -0.89118600 -1.82790700 -0.39357000 0.38726600 1.76892200
16 -1.40592400 -0.00002500 -0.00000300 0.01207400 -0.02686800 0.45175400
17 -1.17536200 0.00012700 -0.00002000 0.05312600 0.04227700 0.80292000
18 -4.52675500 -0.69057300 -1.12074400 -0.26184200 0.27532100 1.85528700
19 -1.74404500 0.00003700 -0.00000800 -0.00637800 -0.02888000 0.62763700
20 -1.36876500 0.00002400 0.00000400 0.02849100 0.04404900 0.47030300
21 -1.87480200 -0.93512600 0.99917200 2.30037900 0.31378400 1.08810900
22 -1.52345300 0.00003000 0.00002700 0.05305500 0.16566500 0.41250900
23 -1.59928500 0.00000500 0.00001200 0.03405500 -0.02608500 0.63444600
24 5.58312400 0.11572500 0.29499600 2.70854600 -0.05525400 3.09741800
25 0.19684900 -0.00000300 0.00000300 2.79340686 -0.00080953 -3.14141575
26 -0.48555800 -9.91776100 -1.25931900 1.97586200 1.15990900 1.84280300
27 6.21448500 0.00000600 0.00002000 -0.53254025 0.49303353 -1.57834960
28 11.94488700 -0.00003400 -0.00019000 -0.11083901 -0.36190561 -1.30004829
29 10.62016500 0.00000600 0.00000800 -1.47167486 -1.01284868 -0.12343919
30 4.75115700 0.69437500 -0.83047200 -0.33659400 -0.22394700 1.27220000
31 1.68806600 -0.00002600 0.00000200 -0.00123400 -0.02467300 1.48766100
32 1.33614400 -0.00005300 -0.00000900 0.01621300 -0.03516800 -0.06228900
33 4.82051300 0.50933800 0.22486600 -0.37685200 -0.01490600 1.55226800
34 1.82699600 0.00006700 0.00000800 -0.00051300 0.04045200 1.26079000
35 1.43658100 -0.00001000 0.00000700 0.01098600 -0.01043400 0.02903600
36 3.99235000 0.89108800 1.82799500 -0.58773500 -0.00855600 1.20568000
37 1.40592100 0.00002400 -0.00000500 -0.01283800 -0.02655700 1.32518700
38 1.17536400 -0.00013000 0.00000300 0.05517300 0.11025000 0.42008900
39 4.52675500 0.69045900 1.12084200 -0.49029100 0.04882300 1.52995500
40 1.74404200 -0.00003200 -0.00000200 -0.02474200 -0.01616300 1.40363300
41 1.36876300 -0.00003200 -0.00001700 -0.32324300 0.09380000 -0.20753100
42 1.93928400 1.01468700 -0.90910100 2.09823500 0.36922500 1.35026100
43 1.52345200 -0.00003300 -0.00000300 0.01413000 -0.08869500 0.51776000
44 1.59927900 0.00000100 0.00000600 0.07477700 -0.03719000 1.28672500
45 5.51180600 0.00000000 0.00000400 -0.27198700 0.00000000 0.00000000
46 0.19684700 0.00000100 0.00000000 -0.34822500 0.00001500 -0.00000200
47 0.00000000 1.00000000 0.00000000 0.00000000 0.00000000 -1.57079600
48 -3.84604500 5.36570100 -3.19804200 0.00000000 0.00000000 -3.14156200
49 -7.88343104 20.55656123 -1.26307349 0.47804154 0.25370611 -0.43469102
50 10.29365200 1.65650000 -1.39242200 -0.59230200 1.24938800 1.04281400
51 3.12262200 -0.01178200 -0.68646900 0.00000000 0.00000000 0.00000000
52 -4.01753200 -0.01178200 0.12452700 0.00000000 0.00000000 0.00000000
53 0.05046500 0.00000000 0.46481100 0.00000000 0.00000000 0.00000000
54 1.27159000 0.74292900 1.02600600 0.00000000 0.00000000 0.00000000
55 -3.03010000 -0.02560600 -1.06275300 0.00000000 0.00000000 0.00000000
56 -1.93822300 -2.92684800 -4.39031000 2.85215900 -0.11258400 -1.97203800
time 13
0 -0.00000100 8.45008800 -27.50902600 0.00000000 0.00000000 0.00003100
1 -0.00000200 0.00000000 0.00000000 1.57074300 -1.56713700 -1.57074300
2 4.25546800 -0.33518300 -0.00000200 0.00000000 0.00000000 -0.12484800
3 7.43124800 1.49647700 0.00000200 0.00000000 0.00000000 0.24545000
4 5.27847900 0.16554100 0.00000100 0.00000000 0.00000000 0.04851100
5 -1.64874100 -13.09410300 6.31045700 1.97586400 1.15990900 -1.29878600
6 -6.21448200 -0.00000700 -0.00002700 -2.47909916 -0.60543231 1.11365810
7 11.94488700 0.00000000 0.00000000 -0.31825145 -0.31759537 1.85033186
8 10.62018300 0.00000000 -0.00000100 1.23923727 -0.67171770 2.39916232
9 -4.75111200 -0.69449200 0.83057300 0.04913500 -0.07824800 0.26163600
10 -1.68807100 0.00004700 -0.00003100 0.02216600 -0.01093400 0.32820700
11 -1.33613900 0.00005600 -0.00001200 0.02584800 0.00498300 0.36433000
12 -4.82049900 -0.50945800 -0.22476000 -0.30996000 0.01843000 1.56221200
13 -1.82699000 -0.00006600 0.00000700 -0.01505300 0.03754500 0.89279800
14 -1.43657900 0.00001100 0.00000300 -0.04326900 -0.06465400 0.49796600
15 -3.99236100 -0.89118600 -1.82790700 -0.39357000 0.38726600 1.76892200
16 -1.40592400 -0.00002500 -0.00000300 0.01207400 -0.02686800 0.45175400
17 -1.17536200 0.00012700 -0.00002000 0.05312600 0.04227700 0.80292000
18 -4.52675500 -0.69057300 -1.12074400 -0.26184200 0.27532100 1.85528700
19 -1.74404500 0.00003700 -0.00000800 -0.00637800 -0.02888000 0.62763700
20 -1.36876500 0.00002400 0.00000400 0.02849100 0.04404900 0.47030300
21 -1.87480200 -0.93512600 0.99917200 2.30037900 0.31378400 1.08810900
22 -1.52345300 0.00003000 0.00002700 0.05305500 0.16566500 0.41250900
23 -1.59928500 0.00000500 0.00001200 0.03405500 -0.02608500 0.63444600
24 5.58312400 0.11572500 0.29499600 2.70854600 -0.05525400 3.09741800
25 0.19684900 -0.00000300 0.00000300 2.79340686 -0.00080953 -3.14141575
26 -0.64685500 -9.59349900 -1.22055700 1.97586200 1.15990900 1.84280300
27 6.21448500 0.00000600 0.00002000 -0.55024485 0.46975414 -1.59657722
28 11.94488700 -0.00003400 -0.00019000 -0.12405943 -0.36053558 -1.25999171
29 10.62016500 0.00000600 0.00000800 -1.43703705 -1.02274504 -0.15405715
30 4.75115700 0.69437500 -0.83047200 -0.33659400 -0.22394700 1.27220000
31 1.68806600 -0.00002600 0.00000200 -0.00123400 -0.02467300 1.48766100
32 1.33614400 -0.00005300 -0.00000900 0.01621300 -0.03516800 -0.06228900
33 4.82051300 0.50933800 0.22486600 -0.37685200 -0.01490600 1.55226800
34 1.82699600 0.00006700 0.00000800 -0.00051300 0.04045200 1.26079000
35 1.43658100 -0.00001000 0.00000700 0.01098600 -0.01043400 0.02903600
36 3.99235000 0.89108800 1.82799500 -0.58773500 -0.00855600 1.20568000
37 1.40592100 0.00002400 -0.00000500 -0.01283800 -0.02655700 1.32518700
38 1.17536400 -0.00013000 0.00000300 0.05517300 0.11025000 0.42008900
39 4.52675500 0.69045900 1.12084200 -0.49029100 0.04882300 1.52995500
40 1.74404200 -0.00003200 -0.00000200 -0.02474200 -0.01616300 1.40363300
41 1.36876300 -0.00003200 -0.00001700 -0.32324300 0.09380000 -0.20753100
42 1.93928400 1.01468700 -0.90910100 2.09823500 0.36922500 1.35026100
43 1.52345200 -0.00003300 -0.00000300 0.01413000 -0.08869500 0.51776000
44 1.59927900 0.00000100 0.00000600 0.07477700 -0.03719000 1.28672500
45 5.51180600 0.00000000 0.00000400 -0.27198700 0.00000000 0.00000000
46 0.19684700 0.00000100 0.00000000 -0.34822500 0.00001500 -0.00000200
47 0.00000000 1.00000000 0.00000000 0.00000000 0.00000000 -1.57079600
48 -3.84604500 5.36570100 -3.19804200 0.00000000 0.00000000 -3.14156200
49 -7.89797548 20.57038023 -1.20049349 0.48410229 0.25068688 -0.40350194
50 10.29365200 1.65650000 -1.39242200 -0.59230200 1.24938800 1.04281400
51 3.12262200 -0.01178200 -0.68646900 0.00000000 0.00000000 0.00000000
52 -4.01753200 -0.01178200 0.12452700 0.00000000 0.00000000 0.00000000
53 0.05046500 0.00000000 0.46481100 0.00000000 0.00000000 0.00000000
54 1.27159000 0.74292900 1.02600600 0.00000000 0.00000000 0.00000000
55 -3.03010000 -0.02560600 -1.06275300 0.00000000 0.00000000 0.00000000
56 -1.93822300 -2.92684800 -4.39031000 2.85215900 -0.11258400 -1.97203800
time 14
0 -0.00000100 8.45008800 -27.50902600 0.00000000 0.00000000 0.00003100
1 -0.00000200 0.00000000 0.00000000 1.57074300 -1.56713700 -1.57074300
2 4.25546800 -0.33518300 -0.00000200 0.00000000 0.00000000 -0.12484800
3 7.43124800 1.49647700 0.00000200 0.00000000 0.00000000 0.24545000
4 5.27847900 0.16554100 0.00000100 0.00000000 0.00000000 0.04851100
5 -1.64874100 -13.09410300 6.31045700 1.97586400 1.15990900 -1.29878600
6 -6.21448200 -0.00000700 -0.00002700 -2.46717423 -0.60210927 1.11277035
7 11.94488700 0.00000000 0.00000000 -0.31243531 -0.31905497 1.83271739
8 10.62018300 0.00000000 -0.00000100 1.22130166 -0.69406849 2.42858250
9 -4.75111200 -0.69449200 0.83057300 0.04913500 -0.07824800 0.26163600
10 -1.68807100 0.00004700 -0.00003100 0.02216600 -0.01093400 0.32820700
11 -1.33613900 0.00005600 -0.00001200 0.02584800 0.00498300 0.36433000
12 -4.82049900 -0.50945800 -0.22476000 -0.30996000 0.01843000 1.56221200
13 -1.82699000 -0.00006600 0.00000700 -0.01505300 0.03754500 0.89279800
14 -1.43657900 0.00001100 0.00000300 -0.04326900 -0.06465400 0.49796600
15 -3.99236100 -0.89118600 -1.82790700 -0.39357000 0.38726600 1.76892200
16 -1.40592400 -0.00002500 -0.00000300 0.01207400 -0.02686800 0.45175400
17 -1.17536200 0.00012700 -0.00002000 0.05312600 0.04227700 0.80292000
18 -4.52675500 -0.69057300 -1.12074400 -0.26184200 0.27532100 1.85528700
19 -1.74404500 0.00003700 -0.00000800 -0.00637800 -0.02888000 0.62763700
20 -1.36876500 0.00002400 0.00000400 0.02849100 0.04404900 0.47030300
21 -1.87480200 -0.93512600 0.99917200 2.30037900 0.31378400 1.08810900
22 -1.52345300 0.00003000 0.00002700 0.05305500 0.16566500 0.41250900
23 -1.59928500 0.00000500 0.00001200 0.03405500 -0.02608500 0.63444600
24 5.58312400 0.11572500 0.29499600 2.70854600 -0.05525400 3.09741800
25 0.19684900 -0.00000300 0.00000300 2.79340686 -0.00080953 -3.14141575
26 -0.75122500 -9.38368400 -1.19547600 1.97586200 1.15990900 1.84280300
27 6.21448500 0.00000600 0.00002000 -0.56386844 0.45504602 -1.60745230
28 11.94488700 -0.00003400 -0.00019000 -0.13042801 -0.35777782 -1.24032812
29 10.62016500 0.00000600 0.00000800 -1.40738674 -1.02115317 -0.16666501
30 4.75115700 0.69437500 -0.83047200 -0.33659400 -0.22394700 1.27220000
31 1.68806600 -0.00002600 0.00000200 -0.00123400 -0.02467300 1.48766100
32 1.33614400 -0.00005300 -0.00000900 0.01621300 -0.03516800 -0.06228900
33 4.82051300 0.50933800 0.22486600 -0.37685200 -0.01490600 1.55226800
34 1.82699600 0.00006700 0.00000800 -0.00051300 0.04045200 1.26079000
35 1.43658100 -0.00001000 0.00000700 0.01098600 -0.01043400 0.02903600
36 3.99235000 0.89108800 1.82799500 -0.58773500 -0.00855600 1.20568000
37 1.40592100 0.00002400 -0.00000500 -0.01283800 -0.02655700 1.32518700
38 1.17536400 -0.00013000 0.00000300 0.05517300 0.11025000 0.42008900
39 4.52675500 0.69045900 1.12084200 -0.49029100 0.04882300 1.52995500
40 1.74404200 -0.00003200 -0.00000200 -0.02474200 -0.01616300 1.40363300
41 1.36876300 -0.00003200 -0.00001700 -0.32324300 0.09380000 -0.20753100
42 1.93928400 1.01468700 -0.90910100 2.09823500 0.36922500 1.35026100
43 1.52345200 -0.00003300 -0.00000300 0.01413000 -0.08869500 0.51776000
44 1.59927900 0.00000100 0.00000600 0.07477700 -0.03719000 1.28672500
45 5.51180600 0.00000000 0.00000400 -0.27198700 0.00000000 0.00000000
46 0.19684700 0.00000100 0.00000000 -0.34822500 0.00001500 -0.00000200
47 0.00000000 1.00000000 0.00000000 0.00000000 0.00000000 -1.57079600
48 -3.84604500 5.36570100 -3.19804200 0.00000000 0.00000000 -3.14156200
49 -7.86742070 20.58015523 -1.14282467 0.47650055 0.25150614 -0.38505502
50 10.29365200 1.65650000 -1.39242200 -0.59230200 1.24938800 1.04281400
51 3.12262200 -0.01178200 -0.68646900 0.00000000 0.00000000 0.00000000
52 -4.01753200 -0.01178200 0.12452700 0.00000000 0.00000000 0.00000000
53 0.05046500 0.00000000 0.46481100 0.00000000 0.00000000 0.00000000
54 1.27159000 0.74292900 1.02600600 0.00000000 0.00000000 0.00000000
55 -3.03010000 -0.02560600 -1.06275300 0.00000000 0.00000000 0.00000000
56 -1.93822300 -2.92684800 -4.39031000 2.85215900 -0.11258400 -1.97203800
time 15
0 -0.00000100 8.45008800 -27.50902600 0.00000000 0.00000000 0.00003100
1 -0.00000200 0.00000000 0.00000000 1.57074300 -1.56713700 -1.57074300
2 4.25546800 -0.33518300 -0.00000200 0.00000000 0.00000000 -0.12484800
3 7.43124800 1.49647700 0.00000200 0.00000000 0.00000000 0.24545000
4 5.27847900 0.16554100 0.00000100 0.00000000 0.00000000 0.04851100
5 -1.64874100 -13.09410300 6.31045700 1.97586400 1.15990900 -1.29878600
6 -6.21448200 -0.00000700 -0.00002700 -2.46479045 -0.60415036 1.11552111
7 11.94488700 0.00000000 0.00000000 -0.31088156 -0.32006094 1.82820223
8 10.62018300 0.00000000 -0.00000100 1.20139570 -0.70115420 2.44603716
9 -4.75111200 -0.69449200 0.83057300 0.04913500 -0.07824800 0.26163600
10 -1.68807100 0.00004700 -0.00003100 0.02216600 -0.01093400 0.32820700
11 -1.33613900 0.00005600 -0.00001200 0.02584800 0.00498300 0.36433000
12 -4.82049900 -0.50945800 -0.22476000 -0.30996000 0.01843000 1.56221200
13 -1.82699000 -0.00006600 0.00000700 -0.01505300 0.03754500 0.89279800
14 -1.43657900 0.00001100 0.00000300 -0.04326900 -0.06465400 0.49796600
15 -3.99236100 -0.89118600 -1.82790700 -0.39357000 0.38726600 1.76892200
16 -1.40592400 -0.00002500 -0.00000300 0.01207400 -0.02686800 0.45175400
17 -1.17536200 0.00012700 -0.00002000 0.05312600 0.04227700 0.80292000
18 -4.52675500 -0.69057300 -1.12074400 -0.26184200 0.27532100 1.85528700
19 -1.74404500 0.00003700 -0.00000800 -0.00637800 -0.02888000 0.62763700
20 -1.36876500 0.00002400 0.00000400 0.02849100 0.04404900 0.47030300
21 -1.87480200 -0.93512600 0.99917200 2.30037900 0.31378400 1.08810900
22 -1.52345300 0.00003000 0.00002700 0.05305500 0.16566500 0.41250900
23 -1.59928500 0.00000500 0.00001200 0.03405500 -0.02608500 0.63444600
24 5.58312400 0.11572500 0.29499600 2.70854600 -0.05525400 3.09741800
25 0.19684900 -0.00000300 0.00000300 2.79340686 -0.00080953 -3.14141575
26 -0.78831500 -9.30912200 -1.18656300 1.97586200 1.15990900 1.84280300
27 6.21448500 0.00000600 0.00002000 -0.57198614 0.45031879 -1.61143079
28 11.94488700 -0.00003400 -0.00019000 -0.13056496 -0.35595214 -1.23957946
29 10.62016500 0.00000600 0.00000800 -1.38552851 -1.01276759 -0.16799209
30 4.75115700 0.69437500 -0.83047200 -0.33659400 -0.22394700 1.27220000
31 1.68806600 -0.00002600 0.00000200 -0.00123400 -0.02467300 1.48766100
32 1.33614400 -0.00005300 -0.00000900 0.01621300 -0.03516800 -0.06228900
33 4.82051300 0.50933800 0.22486600 -0.37685200 -0.01490600 1.55226800
34 1.82699600 0.00006700 0.00000800 -0.00051300 0.04045200 1.26079000
35 1.43658100 -0.00001000 0.00000700 0.01098600 -0.01043400 0.02903600
36 3.99235000 0.89108800 1.82799500 -0.58773500 -0.00855600 1.20568000
37 1.40592100 0.00002400 -0.00000500 -0.01283800 -0.02655700 1.32518700
38 1.17536400 -0.00013000 0.00000300 0.05517300 0.11025000 0.42008900
39 4.52675500 0.69045900 1.12084200 -0.49029100 0.04882300 1.52995500
40 1.74404200 -0.00003200 -0.00000200 -0.02474200 -0.01616300 1.40363300
41 1.36876300 -0.00003200 -0.00001700 -0.32324300 0.09380000 -0.20753100
42 1.93928400 1.01468700 -0.90910100 2.09823500 0.36922500 1.35026100
43 1.52345200 -0.00003300 -0.00000300 0.01413000 -0.08869500 0.51776000
44 1.59927900 0.00000100 0.00000600 0.07477700 -0.03719000 1.28672500
45 5.51180600 0.00000000 0.00000400 -0.27198700 0.00000000 0.00000000
46 0.19684700 0.00000100 0.00000000 -0.34822500 0.00001500 -0.00000200
47 0.00000000 1.00000000 0.00000000 0.00000000 0.00000000 -1.57079600
48 -3.84604500 5.36570100 -3.19804200 0.00000000 0.00000000 -3.14156200
49 -7.81400217 20.58386323 -1.10434189 0.46412988 0.25618160 -0.37782843
50 10.29365200 1.65650000 -1.39242200 -0.59230200 1.24938800 1.04281400
51 3.12262200 -0.01178200 -0.68646900 0.00000000 0.00000000 0.00000000
52 -4.01753200 -0.01178200 0.12452700 0.00000000 0.00000000 0.00000000
53 0.05046500 0.00000000 0.46481100 0.00000000 0.00000000 0.00000000
54 1.27159000 0.74292900 1.02600600 0.00000000 0.00000000 0.00000000
55 -3.03010000 -0.02560600 -1.06275300 0.00000000 0.00000000 0.00000000
56 -1.93822300 -2.92684800 -4.39031000 2.85215900 -0.11258400 -1.97203800
end
