version 1
nodes
0 "root" -1
1 "pelvis" 0
2 "spine_01" 1
3 "spine_02" 2
4 "spine_03" 3
5 "clavicle_r" 4
6 "upperarm_r" 5
7 "lowerarm_r" 6
8 "hand_r" 7
9 "index_01_r" 8
10 "index_02_r" 9
11 "index_03_r" 10
12 "middle_01_r" 8
13 "middle_02_r" 12
14 "middle_03_r" 13
15 "pinky_01_r" 8
16 "pinky_02_r" 15
17 "pinky_03_r" 16
18 "ring_01_r" 8
19 "ring_02_r" 18
20 "ring_03_r" 19
21 "thumb_01_r" 8
22 "thumb_02_r" 21
23 "thumb_03_r" 22
24 "lowerarm_twist_01_r" 7
25 "upperarm_twist_01_r" 6
26 "clavicle_l" 4
27 "upperarm_l" 26
28 "lowerarm_l" 27
29 "hand_l" 28
30 "index_01_l" 29
31 "index_02_l" 30
32 "index_03_l" 31
33 "middle_01_l" 29
34 "middle_02_l" 33
35 "middle_03_l" 34
36 "pinky_01_l" 29
37 "pinky_02_l" 36
38 "pinky_03_l" 37
39 "ring_01_l" 29
40 "ring_02_l" 39
41 "ring_03_l" 40
42 "thumb_01_l" 29
43 "thumb_02_l" 42
44 "thumb_03_l" 43
45 "lowerarm_twist_01_l" 28
46 "upperarm_twist_01_l" 27
47 "cam_driver" -1
48 "BaseRoot" -1
49 "Base" 48
50 "rhand_ikTarget" 49
51 "Trigger" 49
52 "Mag" 49
53 "Bullets" 52
54 "Bolt" 49
55 "MagRelease" 49
56 "lhand_ikTarget" 49
end
skeleton
time 0
0 -0.00000100 8.45008800 -27.50902600 0.00000000 0.00000000 0.00003100
1 -0.00000200 0.00000000 0.00000000 1.57074300 -1.56713700 -1.57074300
2 4.25546800 -0.33518300 -0.00000200 0.00000000 0.00000000 -0.12484800
3 7.43124800 1.49647700 0.00000200 0.00000000 0.00000000 0.24545000
4 5.27847900 0.16554100 0.00000100 0.00000000 0.00000000 0.04851100
5 -1.64874100 -13.09410300 6.31045700 1.97586400 1.15990900 -1.29878600
6 -6.21448200 -0.00000700 -0.00002700 -2.47649763 -0.62970690 1.13895510
7 11.94488700 0.00000000 0.00000000 -0.32075812 -0.32079499 1.85863440
8 10.62018300 0.00000000 -0.00000100 1.15078509 -0.71191292 2.43696464
9 -4.75111200 -0.69449200 0.83057300 0.04913500 -0.07824800 0.26163600
10 -1.68807100 0.00004700 -0.00003100 0.02216600 -0.01093400 0.32820700
11 -1.33613900 0.00005600 -0.00001200 0.02584800 0.00498300 0.36433000
12 -4.82049900 -0.50945800 -0.22476000 -0.30996000 0.01843000 1.56221200
13 -1.82699000 -0.00006600 0.00000700 -0.01505300 0.03754500 0.89279800
14 -1.43657900 0.00001100 0.00000300 -0.04326900 -0.06465400 0.49796600
15 -3.99236100 -0.89118600 -1.82790700 -0.39357000 0.38726600 1.76892200
16 -1.40592400 -0.00002500 -0.00000300 0.01207400 -0.02686800 0.45175400
17 -1.17536200 0.00012700 -0.00002000 0.05312600 0.04227700 0.80292000
18 -4.52675500 -0.69057300 -1.12074400 -0.26184200 0.27532100 1.85528700
19 -1.74404500 0.00003700 -0.00000800 -0.00637800 -0.02888000 0.62763700
20 -1.36876500 0.00002400 0.00000400 0.02849100 0.04404900 0.47030300
21 -1.87480200 -0.93512600 0.99917200 2.30037900 0.31378400 1.08810900
22 -1.52345300 0.00003000 0.00002700 0.05305500 0.16566500 0.41250900
23 -1.59928500 0.00000500 0.00001200 0.03405500 -0.02608500 0.63444600
24 5.58312400 0.11572100 0.29499400 2.70854600 -0.05525400 3.09741800
25 0.19684900 -0.00000300 0.00000300 2.79340686 -0.00080953 -3.14141575
26 -0.78831500 -9.30912200 -1.18656300 1.97586200 1.15990900 1.84280300
27 6.21448500 0.00000600 0.00002000 -1.25734456 0.57261770 -1.97933538
28 11.94488700 -0.00003400 -0.00019000 -0.11434376 -0.35018237 -1.28793286
29 10.62016500 0.00000600 0.00000800 -0.90251860 -0.49154660 -0.43009485
30 4.75115700 0.69437500 -0.83047200 -0.33659400 -0.22394700 1.27220000
31 1.68806600 -0.00002600 0.00000200 -0.00123400 -0.02467300 1.48766100
32 1.33614400 -0.00005300 -0.00000900 0.01621300 -0.03516800 -0.06228900
33 4.82051300 0.50933800 0.22486600 -0.37685200 -0.01490600 1.55226800
34 1.82699600 0.00006700 0.00000800 -0.00051300 0.04045200 1.26079000
35 1.43658100 -0.00001000 0.00000700 0.01098600 -0.01043400 0.02903600
36 3.99235000 0.89108800 1.82799500 -0.58773500 -0.00855600 1.20568000
37 1.40592100 0.00002400 -0.00000500 -0.01283800 -0.02655700 1.32518700
38 1.17536400 -0.00013000 0.00000300 0.05517300 0.11025000 0.42008900
39 4.52675500 0.69045900 1.12084200 -0.49029100 0.04882300 1.52995500
40 1.74404200 -0.00003200 -0.00000200 -0.02474200 -0.01616300 1.40363300
41 1.36876300 -0.00003200 -0.00001700 -0.32324300 0.09380000 -0.20753100
42 1.93928300 1.01469000 -0.90910300 2.09823500 0.36922500 1.35026100
43 1.52345200 -0.00003300 -0.00000300 0.01413000 -0.08869500 0.51776000
44 1.59927900 0.00000100 0.00000600 0.07477700 -0.03719000 1.28672500
45 5.51180600 0.00000000 0.00000400 -0.27198700 0.00000000 0.00000000
46 0.19684700 0.00000100 0.00000000 -0.34822500 0.00001500 -0.00000200
47 0.00000000 1.00000000 0.00000000 0.00000000 0.00000000 -1.57079600
48 -3.84604500 5.36570100 -3.19804200 0.00000000 0.00000000 -3.14156200
49 -7.53592063 20.58386323 -1.29351127 0.40248281 0.25350149 -0.38525625
50 10.29369200 1.65654800 -1.39246300 -0.59230200 1.24938800 1.04281400
51 3.12262200 -0.01178200 -0.68646900 0.00000000 0.00000000 0.00000000
52 -4.01753200 -0.01178200 0.12452700 0.00000000 0.00000000 0.00000000
53 0.05046500 0.00000000 0.46481100 0.00000000 0.00000000 0.00000000
54 1.27159100 0.74292700 1.02600500 0.00000000 0.00000000 0.00000000
55 -3.03010000 -0.02560600 -1.06275300 0.00000000 0.00000000 0.00000000
56 -1.93822300 -2.92684800 -4.39031000 2.85215900 -0.11258400 -1.97203800
time 1
0 -0.00000100 8.45008800 -27.50902600 0.00000000 0.00000000 0.00003100
1 -0.00000200 0.00000000 0.00000000 1.57074300 -1.56713700 -1.57074300
2 4.25546800 -0.33518300 -0.00000200 0.00000000 0.00000000 -0.12484800
3 7.43124800 1.49647700 0.00000200 0.00000000 0.00000000 0.24545000
4 5.27847900 0.16554100 0.00000100 0.00000000 0.00000000 0.04851100
5 -1.64874100 -13.09410300 6.31045700 1.97586400 1.15990900 -1.29878600
6 -6.21448200 -0.00000700 -0.00002700 -2.47754947 -0.62917676 1.13839705
7 11.94488700 0.00000000 0.00000000 -0.32147358 -0.32107321 1.86093385
8 10.62018300 0.00000000 -0.00000100 1.13909239 -0.71446871 2.42887389
9 -4.75111200 -0.69449200 0.83057300 0.04913500 -0.07824800 0.26163600
10 -1.68807100 0.00004700 -0.00003100 0.02216600 -0.01093400 0.32820700
11 -1.33613900 0.00005600 -0.00001200 0.02584800 0.00498300 0.36433000
12 -4.82049900 -0.50945800 -0.22476000 -0.30996000 0.01843000 1.56221200
13 -1.82699000 -0.00006600 0.00000700 -0.01505300 0.03754500 0.89279800
14 -1.43657900 0.00001100 0.00000300 -0.04326900 -0.06465400 0.49796600
15 -3.99236100 -0.89118600 -1.82790700 -0.39357000 0.38726600 1.76892200
16 -1.40592400 -0.00002500 -0.00000300 0.01207400 -0.02686800 0.45175400
17 -1.17536200 0.00012700 -0.00002000 0.05312600 0.04227700 0.80292000
18 -4.52675500 -0.69057300 -1.12074400 -0.26184200 0.27532100 1.85528700
19 -1.74404500 0.00003700 -0.00000800 -0.00637800 -0.02888000 0.62763700
20 -1.36876500 0.00002400 0.00000400 0.02849100 0.04404900 0.47030300
21 -1.87480200 -0.93512600 0.99917200 2.30037900 0.31378400 1.08810900
22 -1.52345300 0.00003000 0.00002700 0.05305500 0.16566500 0.41250900
23 -1.59928500 0.00000500 0.00001200 0.03405500 -0.02608500 0.63444600
24 5.58312400 0.11572100 0.29499400 2.70854600 -0.05525400 3.09741800
25 0.19684900 -0.00000300 0.00000300 2.79340686 -0.00080953 -3.14141575
26 -0.78831500 -9.30912200 -1.18656300 1.97586200 1.15990900 1.84280300
27 6.21448500 0.00000600 0.00002000 -1.26265673 0.57539903 -1.97872576
28 11.94488700 -0.00003400 -0.00019000 -0.11036309 -0.34566670 -1.30016723
29 10.62016500 0.00000600 0.00000800 -0.89415969 -0.49006196 -0.41118529
30 4.75115700 0.69437500 -0.83047200 -0.33659400 -0.22394700 1.27220000
31 1.68806600 -0.00002600 0.00000200 -0.00123400 -0.02467300 1.48766100
32 1.33614400 -0.00005300 -0.00000900 0.01621300 -0.03516800 -0.06228900
33 4.82051300 0.50933800 0.22486600 -0.37685200 -0.01490600 1.55226800
34 1.82699600 0.00006700 0.00000800 -0.00051300 0.04045200 1.26079000
35 1.43658100 -0.00001000 0.00000700 0.01098600 -0.01043400 0.02903600
36 3.99235000 0.89108800 1.82799500 -0.58773500 -0.00855600 1.20568000
37 1.40592100 0.00002400 -0.00000500 -0.01283800 -0.02655700 1.32518700
38 1.17536400 -0.00013000 0.00000300 0.05517300 0.11025000 0.42008900
39 4.52675500 0.69045900 1.12084200 -0.49029100 0.04882300 1.52995500
40 1.74404200 -0.00003200 -0.00000200 -0.02474200 -0.01616300 1.40363300
41 1.36876300 -0.00003200 -0.00001700 -0.32324300 0.09380000 -0.20753100
42 1.93928300 1.01469000 -0.90910300 2.09823500 0.36922500 1.35026100
43 1.52345200 -0.00003300 -0.00000300 0.01413000 -0.08869500 0.51776000
44 1.59927900 0.00000100 0.00000600 0.07477700 -0.03719000 1.28672500
45 5.51180600 0.00000000 0.00000400 -0.27198700 0.00000000 0.00000000
46 0.19684700 0.00000100 0.00000000 -0.34822500 0.00001500 -0.00000200
47 0.00000000 1.00000000 0.00000000 0.00000000 0.00000000 -1.57079600
48 -3.84604500 5.36570100 -3.19804200 0.00000000 0.00000000 -3.14156200
49 -7.53310383 20.58326223 -1.27316634 0.38626675 0.25103070 -0.38699316
50 10.29369200 1.65654800 -1.39246300 -0.59230200 1.24938800 1.04281400
51 3.12262200 -0.01178200 -0.68646900 0.00000000 0.00000000 0.00000000
52 -4.01753200 -0.01178200 0.12452700 0.00000000 0.00000000 0.00000000
53 0.05046500 0.00000000 0.46481100 0.00000000 0.00000000 0.00000000
54 1.27159100 0.74292700 1.02600500 0.00000000 0.00000000 0.00000000
55 -3.03010000 -0.02560600 -1.06275300 0.00000000 0.00000000 0.00000000
56 -1.93822300 -2.92684800 -4.39031000 2.85215900 -0.11258400 -1.97203800
time 2
0 -0.00000100 8.45008800 -27.50902600 0.00000000 0.00000000 0.00003100
1 -0.00000200 0.00000000 0.00000000 1.57074300 -1.56713700 -1.57074300
2 4.25546800 -0.33518300 -0.00000200 0.00000000 0.00000000 -0.12484800
3 7.43124800 1.49647700 0.00000200 0.00000000 0.00000000 0.24545000
4 5.27847900 0.16554100 0.00000100 0.00000000 0.00000000 0.04851100
5 -1.64874100 -13.09410300 6.31045700 1.97586400 1.15990900 -1.29878600
6 -6.21448200 -0.00000700 -0.00002700 -2.47254666 -0.62393292 1.13319873
7 11.94488700 0.00000000 0.00000000 -0.32241599 -0.32095481 1.86357772
8 10.62018300 0.00000000 -0.00000100 1.14414271 -0.71700726 2.41064806
9 -4.75111200 -0.69449200 0.83057300 0.04913500 -0.07824800 0.26163600
10 -1.68807100 0.00004700 -0.00003100 0.02216600 -0.01093400 0.32820700
11 -1.33613900 0.00005600 -0.00001200 0.02584800 0.00498300 0.36433000
12 -4.82049900 -0.50945800 -0.22476000 -0.30996000 0.01843000 1.56221200
13 -1.82699000 -0.00006600 0.00000700 -0.01505300 0.03754500 0.89279800
14 -1.43657900 0.00001100 0.00000300 -0.04326900 -0.06465400 0.49796600
15 -3.99236100 -0.89118600 -1.82790700 -0.39357000 0.38726600 1.76892200
16 -1.40592400 -0.00002500 -0.00000300 0.01207400 -0.02686800 0.45175400
17 -1.17536200 0.00012700 -0.00002000 0.05312600 0.04227700 0.80292000
18 -4.52675500 -0.69057300 -1.12074400 -0.26184200 0.27532100 1.85528700
19 -1.74404500 0.00003700 -0.00000800 -0.00637800 -0.02888000 0.62763700
20 -1.36876500 0.00002400 0.00000400 0.02849100 0.04404900 0.47030300
21 -1.87480200 -0.93512600 0.99917200 2.30037900 0.31378400 1.08810900
22 -1.52345300 0.00003000 0.00002700 0.05305500 0.16566500 0.41250900
23 -1.59928500 0.00000500 0.00001200 0.03405500 -0.02608500 0.63444600
24 5.58312400 0.11572100 0.29499400 2.70854600 -0.05525400 3.09741800
25 0.19684900 -0.00000300 0.00000300 2.79340686 -0.00080953 -3.14141575
26 -0.78831500 -9.30912200 -1.18656300 1.97586200 1.15990900 1.84280300
27 6.21448500 0.00000600 0.00002000 -1.26243107 0.57249137 -1.97724392
28 11.94488700 -0.00003400 -0.00019000 -0.10987226 -0.34148960 -1.30184441
29 10.62016500 0.00000600 0.00000800 -0.89642793 -0.49425096 -0.39984876
30 4.75115700 0.69437500 -0.83047200 -0.33659400 -0.22394700 1.27220000
31 1.68806600 -0.00002600 0.00000200 -0.00123400 -0.02467300 1.48766100
32 1.33614400 -0.00005300 -0.00000900 0.01621300 -0.03516800 -0.06228900
33 4.82051300 0.50933800 0.22486600 -0.37685200 -0.01490600 1.55226800
34 1.82699600 0.00006700 0.00000800 -0.00051300 0.04045200 1.26079000
35 1.43658100 -0.00001000 0.00000700 0.01098600 -0.01043400 0.02903600
36 3.99235000 0.89108800 1.82799500 -0.58773500 -0.00855600 1.20568000
37 1.40592100 0.00002400 -0.00000500 -0.01283800 -0.02655700 1.32518700
38 1.17536400 -0.00013000 0.00000300 0.05517300 0.11025000 0.42008900
39 4.52675500 0.69045900 1.12084200 -0.49029100 0.04882300 1.52995500
40 1.74404200 -0.00003200 -0.00000200 -0.02474200 -0.01616300 1.40363300
41 1.36876300 -0.00003200 -0.00001700 -0.32324300 0.09380000 -0.20753100
42 1.93928300 1.01469000 -0.90910300 2.09823500 0.36922500 1.35026100
43 1.52345200 -0.00003300 -0.00000300 0.01413000 -0.08869500 0.51776000
44 1.59927900 0.00000100 0.00000600 0.07477700 -0.03719000 1.28672500
45 5.51180600 0.00000000 0.00000400 -0.27198700 0.00000000 0.00000000
46 0.19684700 0.00000100 0.00000000 -0.34822500 0.00001500 -0.00000200
47 0.00000000 1.00000000 0.00000000 0.00000000 0.00000000 -1.57079600
48 -3.84604500 5.36570100 -3.19804200 0.00000000 0.00000000 -3.14156200
49 -7.52945972 20.58157223 -1.20081191 0.38162517 0.24780251 -0.39154498
50 10.29369200 1.65654800 -1.39246300 -0.59230200 1.24938800 1.04281400
51 3.12262200 -0.01178200 -0.68646900 0.00000000 0.00000000 0.00000000
52 -4.01753200 -0.01178200 0.12452700 0.00000000 0.00000000 0.00000000
53 0.05046500 0.00000000 0.46481100 0.00000000 0.00000000 0.00000000
54 1.27159100 0.74292700 1.02600500 0.00000000 0.00000000 0.00000000
55 -3.03010000 -0.02560600 -1.06275300 0.00000000 0.00000000 0.00000000
56 -1.93822300 -2.92684800 -4.39031000 2.85215900 -0.11258400 -1.97203800
time 3
0 -0.00000100 8.45008800 -27.50902600 0.00000000 0.00000000 0.00003100
1 -0.00000200 0.00000000 0.00000000 1.57074300 -1.56713700 -1.57074300
2 4.25546800 -0.33518300 -0.00000200 0.00000000 0.00000000 -0.12484800
3 7.43124800 1.49647700 0.00000200 0.00000000 0.00000000 0.24545000
4 5.27847900 0.16554100 0.00000100 0.00000000 0.00000000 0.04851100
5 -1.64874100 -13.09410300 6.31045700 1.97586400 1.15990900 -1.29878600
6 -6.21448200 -0.00000700 -0.00002700 -2.46477480 -0.61854187 1.12810178
7 11.94488700 0.00000000 0.00000000 -0.32496647 -0.32027277 1.87139906
8 10.62018300 0.00000000 -0.00000100 1.16866739 -0.71637532 2.38446034
9 -4.75111200 -0.69449200 0.83057300 0.04913500 -0.07824800 0.26163600
10 -1.68807100 0.00004700 -0.00003100 0.02216600 -0.01093400 0.32820700
11 -1.33613900 0.00005600 -0.00001200 0.02584800 0.00498300 0.36433000
12 -4.82049900 -0.50945800 -0.22476000 -0.30996000 0.01843000 1.56221200
13 -1.82699000 -0.00006600 0.00000700 -0.01505300 0.03754500 0.89279800
14 -1.43657900 0.00001100 0.00000300 -0.04326900 -0.06465400 0.49796600
15 -3.99236100 -0.89118600 -1.82790700 -0.39357000 0.38726600 1.76892200
16 -1.40592400 -0.00002500 -0.00000300 0.01207400 -0.02686800 0.45175400
17 -1.17536200 0.00012700 -0.00002000 0.05312600 0.04227700 0.80292000
18 -4.52675500 -0.69057300 -1.12074400 -0.26184200 0.27532100 1.85528700
19 -1.74404500 0.00003700 -0.00000800 -0.00637800 -0.02888000 0.62763700
20 -1.36876500 0.00002400 0.00000400 0.02849100 0.04404900 0.47030300
21 -1.87480200 -0.93512600 0.99917200 2.30037900 0.31378400 1.08810900
22 -1.52345300 0.00003000 0.00002700 0.05305500 0.16566500 0.41250900
23 -1.59928500 0.00000500 0.00001200 0.03405500 -0.02608500 0.63444600
24 5.58312400 0.11572100 0.29499400 2.70854600 -0.05525400 3.09741800
25 0.19684900 -0.00000300 0.00000300 2.79340686 -0.00080953 -3.14141575
26 -0.78831500 -9.30912200 -1.18656300 1.97586200 1.15990900 1.84280300
27 6.21448500 0.00000600 0.00002000 -1.24914851 0.56524677 -1.97399050
28 11.94488700 -0.00003400 -0.00019000 -0.11401209 -0.34026452 -1.28949459
29 10.62016500 0.00000600 0.00000800 -0.91373828 -0.50676728 -0.40229355
30 4.75115700 0.69437500 -0.83047200 -0.33659400 -0.22394700 1.27220000
31 1.68806600 -0.00002600 0.00000200 -0.00123400 -0.02467300 1.48766100
32 1.33614400 -0.00005300 -0.00000900 0.01621300 -0.03516800 -0.06228900
33 4.82051300 0.50933800 0.22486600 -0.37685200 -0.01490600 1.55226800
34 1.82699600 0.00006700 0.00000800 -0.00051300 0.04045200 1.26079000
35 1.43658100 -0.00001000 0.00000700 0.01098600 -0.01043400 0.02903600
36 3.99235000 0.89108800 1.82799500 -0.58773500 -0.00855600 1.20568000
37 1.40592100 0.00002400 -0.00000500 -0.01283800 -0.02655700 1.32518700
38 1.17536400 -0.00013000 0.00000300 0.05517300 0.11025000 0.42008900
39 4.52675500 0.69045900 1.12084200 -0.49029100 0.04882300 1.52995500
40 1.74404200 -0.00003200 -0.00000200 -0.02474200 -0.01616300 1.40363300
41 1.36876300 -0.00003200 -0.00001700 -0.32324300 0.09380000 -0.20753100
42 1.93928300 1.01469000 -0.90910300 2.09823500 0.36922500 1.35026100
43 1.52345200 -0.00003300 -0.00000300 0.01413000 -0.08869500 0.51776000
44 1.59927900 0.00000100 0.00000600 0.07477700 -0.03719000 1.28672500
45 5.51180600 0.00000000 0.00000400 -0.27198700 0.00000000 0.00000000
46 0.19684700 0.00000100 0.00000000 -0.34822500 0.00001500 -0.00000200
47 0.00000000 1.00000000 0.00000000 0.00000000 0.00000000 -1.57079600
48 -3.84604500 5.36570100 -3.19804200 0.00000000 0.00000000 -3.14156200
49 -7.48446279 20.57896123 -1.12477309 0.39202057 0.24546923 -0.40069391
50 10.29369200 1.65654800 -1.39246300 -0.59230200 1.24938800 1.04281400
51 3.12262200 -0.01178200 -0.68646900 0.00000000 0.00000000 0.00000000
52 -4.01753200 -0.01178200 0.12452700 0.00000000 0.00000000 0.00000000
53 0.05046500 0.00000000 0.46481100 0.00000000 0.00000000 0.00000000
54 1.27159100 0.74292700 1.02600500 0.00000000 0.00000000 0.00000000
55 -3.03010000 -0.02560600 -1.06275300 0.00000000 0.00000000 0.00000000
56 -1.93822300 -2.92684800 -4.39031000 2.85215900 -0.11258400 -1.97203800
time 4
0 -0.00000100 8.45008800 -27.50902600 0.00000000 0.00000000 0.00003100
1 -0.00000200 0.00000000 0.00000000 1.57074300 -1.56713700 -1.57074300
2 4.25546800 -0.33518300 -0.00000200 0.00000000 0.00000000 -0.12484800
3 7.43124800 1.49647700 0.00000200 0.00000000 0.00000000 0.24545000
4 5.27847900 0.16554100 0.00000100 0.00000000 0.00000000 0.04851100
5 -1.40036900 -12.74806400 5.96465600 1.97586400 1.15990900 -1.29878600
6 -6.21448200 -0.00000700 -0.00002700 -2.45071067 -0.62409231 1.15506484
7 11.94488700 0.00000000 0.00000000 -0.32655539 -0.32132600 1.87604868
8 10.62018300 0.00000000 -0.00000100 1.20132309 -0.73308037 2.38467412
9 -4.75111200 -0.69449200 0.83057300 0.04913500 -0.07824800 0.26163600
10 -1.68807100 0.00004700 -0.00003100 0.02216600 -0.01093400 0.32820700
11 -1.33613900 0.00005600 -0.00001200 0.02584800 0.00498300 0.36433000
12 -4.82049900 -0.50945800 -0.22476000 -0.30996000 0.01843000 1.56221200
13 -1.82699000 -0.00006600 0.00000700 -0.01505300 0.03754500 0.89279800
14 -1.43657900 0.00001100 0.00000300 -0.04326900 -0.06465400 0.49796600
15 -3.99236100 -0.89118600 -1.82790700 -0.39357000 0.38726600 1.76892200
16 -1.40592400 -0.00002500 -0.00000300 0.01207400 -0.02686800 0.45175400
17 -1.17536200 0.00012700 -0.00002000 0.05312600 0.04227700 0.80292000
18 -4.52675500 -0.69057300 -1.12074400 -0.26184200 0.27532100 1.85528700
19 -1.74404500 0.00003700 -0.00000800 -0.00637800 -0.02888000 0.62763700
20 -1.36876500 0.00002400 0.00000400 0.02849100 0.04404900 0.47030300
21 -1.87480200 -0.93512600 0.99917200 2.30037900 0.31378400 1.08810900
22 -1.52345300 0.00003000 0.00002700 0.05305500 0.16566500 0.41250900
23 -1.59928500 0.00000500 0.00001200 0.03405500 -0.02608500 0.63444600
24 5.58312400 0.11572100 0.29499400 2.70854600 -0.05525400 3.09741800
25 0.19684900 -0.00000300 0.00000300 2.79340686 -0.00080953 -3.14141575
26 -0.73103500 -9.42427200 -1.20032800 1.97586200 1.15990900 1.84280300
27 6.21448500 0.00000600 0.00002000 -1.21859088 0.56710665 -1.96906671
28 11.94488700 -0.00003400 -0.00019000 -0.11615863 -0.34250470 -1.28293233
29 10.62016500 0.00000600 0.00000800 -0.94888539 -0.53256689 -0.40423468
30 4.75115700 0.69437500 -0.83047200 -0.33659400 -0.22394700 1.27220000
31 1.68806600 -0.00002600 0.00000200 -0.00123400 -0.02467300 1.48766100
32 1.33614400 -0.00005300 -0.00000900 0.01621300 -0.03516800 -0.06228900
33 4.82051300 0.50933800 0.22486600 -0.37685200 -0.01490600 1.55226800
34 1.82699600 0.00006700 0.00000800 -0.00051300 0.04045200 1.26079000
35 1.43658100 -0.00001000 0.00000700 0.01098600 -0.01043400 0.02903600
36 3.99235000 0.89108800 1.82799500 -0.58773500 -0.00855600 1.20568000
37 1.40592100 0.00002400 -0.00000500 -0.01283800 -0.02655700 1.32518700
38 1.17536400 -0.00013000 0.00000300 0.05517300 0.11025000 0.42008900
39 4.52675500 0.69045900 1.12084200 -0.49029100 0.04882300 1.52995500
40 1.74404200 -0.00003200 -0.00000200 -0.02474200 -0.01616300 1.40363300
41 1.36876300 -0.00003200 -0.00001700 -0.32324300 0.09380000 -0.20753100
42 1.93928300 1.01469000 -0.90910300 2.09823500 0.36922500 1.35026100
43 1.52345200 -0.00003300 -0.00000300 0.01413000 -0.08869500 0.51776000
44 1.59927900 0.00000100 0.00000600 0.07477700 -0.03719000 1.28672500
45 5.51180600 0.00000000 0.00000400 -0.27198700 0.00000000 0.00000000
46 0.19684700 0.00000100 0.00000000 -0.34822500 0.00001500 -0.00000200
47 0.00000000 1.00000000 0.00000000 0.00000000 0.00000000 -1.57079600
48 -3.84604500 5.36570100 -3.19804200 0.00000000 0.00000000 -3.14156200
49 -7.35241782 20.57559423 -1.05819135 0.41150484 0.24169819 -0.42048144
50 10.29369200 1.65654800 -1.39246300 -0.59230200 1.24938800 1.04281400
51 3.12262200 -0.01178200 -0.68646900 0.00000000 0.00000000 0.00000000
52 -4.01753200 -0.01178200 0.12452700 0.00000000 0.00000000 0.00000000
53 0.05046500 0.00000000 0.46481100 0.00000000 0.00000000 0.00000000
54 1.27159100 0.74292700 1.02600500 0.00000000 0.00000000 0.00000000
55 -3.03010000 -0.02560600 -1.06275300 0.00000000 0.00000000 0.00000000
56 -1.93822300 -2.92684800 -4.39031000 2.85215900 -0.11258400 -1.97203800
time 5
0 -0.00000100 8.45008800 -27.50902600 0.00000000 0.00000000 0.00003100
1 -0.00000200 0.00000000 0.00000000 1.57074300 -1.56713700 -1.57074300
2 4.25546800 -0.33518300 -0.00000200 0.00000000 0.00000000 -0.12484800
3 7.43124800 1.49647700 0.00000200 0.00000000 0.00000000 0.24545000
4 5.27847900 0.16554100 0.00000100 0.00000000 0.00000000 0.04851100
5 -0.74557300 -11.83577900 5.05299200 1.97586400 1.15990900 -1.29878600
6 -6.21448200 -0.00000700 -0.00002700 -2.42759436 -0.63963052 1.23342771
7 11.94488700 0.00000000 0.00000000 -0.32679024 -0.32377870 1.87660531
8 10.62018300 0.00000000 -0.00000100 1.24649544 -0.77837426 2.40227904
9 -4.75111200 -0.69449200 0.83057300 0.04913500 -0.07824800 0.26163600
10 -1.68807100 0.00004700 -0.00003100 0.02216600 -0.01093400 0.32820700
11 -1.33613900 0.00005600 -0.00001200 0.02584800 0.00498300 0.36433000
12 -4.82049900 -0.50945800 -0.22476000 -0.30996000 0.01843000 1.56221200
13 -1.82699000 -0.00006600 0.00000700 -0.01505300 0.03754500 0.89279800
14 -1.43657900 0.00001100 0.00000300 -0.04326900 -0.06465400 0.49796600
15 -3.99236100 -0.89118600 -1.82790700 -0.39357000 0.38726600 1.76892200
16 -1.40592400 -0.00002500 -0.00000300 0.01207400 -0.02686800 0.45175400
17 -1.17536200 0.00012700 -0.00002000 0.05312600 0.04227700 0.80292000
18 -4.52675500 -0.69057300 -1.12074400 -0.26184200 0.27532100 1.85528700
19 -1.74404500 0.00003700 -0.00000800 -0.00637800 -0.02888000 0.62763700
20 -1.36876500 0.00002400 0.00000400 0.02849100 0.04404900 0.47030300
21 -1.87480200 -0.93512600 0.99917200 2.30037900 0.31378400 1.08810900
22 -1.52345300 0.00003000 0.00002700 0.05305500 0.16566500 0.41250900
23 -1.59928500 0.00000500 0.00001200 0.03405500 -0.02608500 0.63444600
24 5.58312400 0.11572100 0.29499400 2.70854600 -0.05525400 3.09741800
25 0.19684900 -0.00000300 0.00000300 2.79340686 -0.00080953 -3.14141575
26 -0.57267600 -9.74262500 -1.23838300 1.97586200 1.15990900 1.84280300
27 6.21448500 0.00000600 0.00002000 -1.15426726 0.58724756 -1.95933695
28 11.94488700 -0.00003400 -0.00019000 -0.11231078 -0.34673268 -1.29446036
29 10.62016500 0.00000600 0.00000800 -1.02016883 -0.58968419 -0.38220015
30 4.75115700 0.69437500 -0.83047200 -0.33659400 -0.22394700 1.27220000
31 1.68806600 -0.00002600 0.00000200 -0.00123400 -0.02467300 1.48766100
32 1.33614400 -0.00005300 -0.00000900 0.01621300 -0.03516800 -0.06228900
33 4.82051300 0.50933800 0.22486600 -0.37685200 -0.01490600 1.55226800
34 1.82699600 0.00006700 0.00000800 -0.00051300 0.04045200 1.26079000
35 1.43658100 -0.00001000 0.00000700 0.01098600 -0.01043400 0.02903600
36 3.99235000 0.89108800 1.82799500 -0.58773500 -0.00855600 1.20568000
37 1.40592100 0.00002400 -0.00000500 -0.01283800 -0.02655700 1.32518700
38 1.17536400 -0.00013000 0.00000300 0.05517300 0.11025000 0.42008900
39 4.52675500 0.69045900 1.12084200 -0.49029100 0.04882300 1.52995500
40 1.74404200 -0.00003200 -0.00000200 -0.02474200 -0.01616300 1.40363300
41 1.36876300 -0.00003200 -0.00001700 -0.32324300 0.09380000 -0.20753100
42 1.93928300 1.01469000 -0.90910300 2.09823500 0.36922500 1.35026100
43 1.52345200 -0.00003300 -0.00000300 0.01413000 -0.08869500 0.51776000
44 1.59927900 0.00000100 0.00000600 0.07477700 -0.03719000 1.28672500
45 5.51180600 0.00000000 0.00000400 -0.27198700 0.00000000 0.00000000
46 0.19684700 0.00000100 0.00000000 -0.34822500 0.00001500 -0.00000200
47 0.00000000 1.00000000 0.00000000 0.00000000 0.00000000 -1.57079600
48 -3.84604500 5.36570100 -3.19804200 0.00000000 0.00000000 -3.14156200
49 -7.03735606 20.57164223 -1.00244842 0.43330844 0.22590518 -0.46861001
50 10.29369200 1.65654800 -1.39246300 -0.59230200 1.24938800 1.04281400
51 3.12262200 -0.01178200 -0.68646900 0.00000000 0.00000000 0.00000000
52 -4.01753200 -0.01178200 0.12452700 0.00000000 0.00000000 0.00000000
53 0.05046500 0.00000000 0.46481100 0.00000000 0.00000000 0.00000000
54 1.27159100 0.74292700 1.02600500 0.00000000 0.00000000 0.00000000
55 -3.03010000 -0.02560600 -1.06275300 0.00000000 0.00000000 0.00000000
56 -1.93822300 -2.92684800 -4.39031000 2.85215900 -0.11258400 -1.97203800
time 6
0 -0.00000100 8.45008800 -27.50902600 0.00000000 0.00000000 0.00003100
1 -0.00000200 0.00000000 0.00000000 1.57074300 -1.56713700 -1.57074300
2 4.25546800 -0.33518300 -0.00000200 0.00000000 0.00000000 -0.12484800
3 7.43124800 1.49647700 0.00000200 0.00000000 0.00000000 0.24545000
4 5.27847900 0.16554100 0.00000100 0.00000000 0.00000000 0.04851100
5 0.18017400 -10.54599500 3.76409000 1.97586400 1.15990900 -1.29878600
6 -6.21448200 -0.00000700 -0.00002700 -2.41160456 -0.65846101 1.35700474
7 11.94488700 0.00000000 0.00000000 -0.33704262 -0.32361211 1.90785304
8 10.62018300 0.00000000 -0.00000100 1.32954512 -0.81223826 2.35119396
9 -4.75111200 -0.69449200 0.83057300 0.04913500 -0.07824800 0.26163600
10 -1.68807100 0.00004700 -0.00003100 0.02216600 -0.01093400 0.32820700
11 -1.33613900 0.00005600 -0.00001200 0.02584800 0.00498300 0.36433000
12 -4.82049900 -0.50945800 -0.22476000 -0.30996000 0.01843000 1.56221200
13 -1.82699000 -0.00006600 0.00000700 -0.01505300 0.03754500 0.89279800
14 -1.43657900 0.00001100 0.00000300 -0.04326900 -0.06465400 0.49796600
15 -3.99236100 -0.89118600 -1.82790700 -0.39357000 0.38726600 1.76892200
16 -1.40592400 -0.00002500 -0.00000300 0.01207400 -0.02686800 0.45175400
17 -1.17536200 0.00012700 -0.00002000 0.05312600 0.04227700 0.80292000
18 -4.52675500 -0.69057300 -1.12074400 -0.26184200 0.27532100 1.85528700
19 -1.74404500 0.00003700 -0.00000800 -0.00637800 -0.02888000 0.62763700
20 -1.36876500 0.00002400 0.00000400 0.02849100 0.04404900 0.47030300
21 -1.87480200 -0.93512600 0.99917200 2.30037900 0.31378400 1.08810900
22 -1.52345300 0.00003000 0.00002700 0.05305500 0.16566500 0.41250900
23 -1.59928500 0.00000500 0.00001200 0.03405500 -0.02608500 0.63444600
24 5.58312400 0.11572100 0.29499400 2.70854600 -0.05525400 3.09741800
25 0.19684900 -0.00000300 0.00000300 2.79340686 -0.00080953 -3.14141575
26 -0.33345100 -10.22354400 -1.29587000 1.97586200 1.15990900 1.84280300
27 6.21448500 0.00000600 0.00002000 -1.02048438 0.61458847 -1.93944955
28 11.94488700 -0.00003400 -0.00019000 -0.10928975 -0.34923749 -1.30374684
29 10.62016500 0.00000600 0.00000800 -1.17908118 -0.69251254 -0.30015157
30 4.75115700 0.69437500 -0.83047200 -0.33659400 -0.22394700 1.27220000
31 1.68806600 -0.00002600 0.00000200 -0.00123400 -0.02467300 1.48766100
32 1.33614400 -0.00005300 -0.00000900 0.01621300 -0.03516800 -0.06228900
33 4.82051300 0.50933800 0.22486600 -0.37685200 -0.01490600 1.55226800
34 1.82699600 0.00006700 0.00000800 -0.00051300 0.04045200 1.26079000
35 1.43658100 -0.00001000 0.00000700 0.01098600 -0.01043400 0.02903600
36 3.99235000 0.89108800 1.82799500 -0.58773500 -0.00855600 1.20568000
37 1.40592100 0.00002400 -0.00000500 -0.01283800 -0.02655700 1.32518700
38 1.17536400 -0.00013000 0.00000300 0.05517300 0.11025000 0.42008900
39 4.52675500 0.69045900 1.12084200 -0.49029100 0.04882300 1.52995500
40 1.74404200 -0.00003200 -0.00000200 -0.02474200 -0.01616300 1.40363300
41 1.36876300 -0.00003200 -0.00001700 -0.32324300 0.09380000 -0.20753100
42 1.93928300 1.01469000 -0.90910300 2.09823500 0.36922500 1.35026100
43 1.52345200 -0.00003300 -0.00000300 0.01413000 -0.08869500 0.51776000
44 1.59927900 0.00000100 0.00000600 0.07477700 -0.03719000 1.28672500
45 5.51180600 0.00000000 0.00000400 -0.27198700 0.00000000 0.00000000
46 0.19684700 0.00000100 0.00000000 -0.34822500 0.00001500 -0.00000200
47 0.00000000 1.00000000 0.00000000 0.00000000 0.00000000 -1.57079600
48 -3.84604500 5.36570100 -3.19804200 0.00000000 0.00000000 -3.14156200
49 -6.29785393 20.56726923 -0.97179769 0.44860572 0.19220729 -0.58601687
50 10.29369200 1.65654800 -1.39246300 -0.59230200 1.24938800 1.04281400
51 3.12262200 -0.01178200 -0.68646900 0.00000000 0.00000000 0.00000000
52 -4.01753200 -0.01178200 0.12452700 0.00000000 0.00000000 0.00000000
53 0.05046500 0.00000000 0.46481100 0.00000000 0.00000000 0.00000000
54 1.27159100 0.74292700 1.02600500 0.00000000 0.00000000 0.00000000
55 -3.03010000 -0.02560600 -1.06275300 0.00000000 0.00000000 0.00000000
56 -1.93822300 -2.92684800 -4.39031000 2.85215900 -0.11258400 -1.97203800
time 7
0 -0.00000100 8.45008800 -27.50902600 0.00000000 0.00000000 0.00003100
1 -0.00000200 0.00000000 0.00000000 1.57074300 -1.56713700 -1.57074300
2 4.25546800 -0.33518300 -0.00000200 0.00000000 0.00000000 -0.12484800
3 7.43124800 1.49647700 0.00000200 0.00000000 0.00000000 0.24545000
4 5.27847900 0.16554100 0.00000100 0.00000000 0.00000000 0.04851100
5 1.24139700 -9.06746900 2.28656800 1.97586400 1.15990900 -1.29878600
6 -6.21448200 -0.00000700 -0.00002700 -2.43718463 -0.67821115 1.51791615
7 11.94488700 0.00000000 0.00000000 -0.35540382 -0.32061252 1.96486634
8 10.62018300 0.00000000 -0.00000100 1.40565510 -0.78026624 2.24730730
9 -4.75111200 -0.69449200 0.83057300 0.04913500 -0.07824800 0.26163600
10 -1.68807100 0.00004700 -0.00003100 0.02216600 -0.01093400 0.32820700
11 -1.33613900 0.00005600 -0.00001200 0.02584800 0.00498300 0.36433000
12 -4.82049900 -0.50945800 -0.22476000 -0.30996000 0.01843000 1.56221200
13 -1.82699000 -0.00006600 0.00000700 -0.01505300 0.03754500 0.89279800
14 -1.43657900 0.00001100 0.00000300 -0.04326900 -0.06465400 0.49796600
15 -3.99236100 -0.89118600 -1.82790700 -0.39357000 0.38726600 1.76892200
16 -1.40592400 -0.00002500 -0.00000300 0.01207400 -0.02686800 0.45175400
17 -1.17536200 0.00012700 -0.00002000 0.05312600 0.04227700 0.80292000
18 -4.52675500 -0.69057300 -1.12074400 -0.26184200 0.27532100 1.85528700
19 -1.74404500 0.00003700 -0.00000800 -0.00637800 -0.02888000 0.62763700
20 -1.36876500 0.00002400 0.00000400 0.02849100 0.04404900 0.47030300
21 -1.87480200 -0.93512600 0.99917200 2.30037900 0.31378400 1.08810900
22 -1.52345300 0.00003000 0.00002700 0.05305500 0.16566500 0.41250900
23 -1.59928500 0.00000500 0.00001200 0.03405500 -0.02608500 0.63444600
24 5.58312400 0.11572100 0.29499400 2.70854600 -0.05525400 3.09741800
25 0.19684900 -0.00000300 0.00000300 2.79340686 -0.00080953 -3.14141575
26 -0.03357800 -10.82638600 -1.36793200 1.97586200 1.15990900 1.84280300
27 6.21448500 0.00000600 0.00002000 -0.84101641 0.63128373 -1.92316929
28 11.94488700 -0.00003400 -0.00019000 -0.11011516 -0.34857750 -1.30119015
29 10.62016500 0.00000600 0.00000800 -1.43945000 -0.77898301 -0.13633176
30 4.75115700 0.69437500 -0.83047200 -0.33659400 -0.22394700 1.27220000
31 1.68806600 -0.00002600 0.00000200 -0.00123400 -0.02467300 1.48766100
32 1.33614400 -0.00005300 -0.00000900 0.01621300 -0.03516800 -0.06228900
33 4.82051300 0.50933800 0.22486600 -0.37685200 -0.01490600 1.55226800
34 1.82699600 0.00006700 0.00000800 -0.00051300 0.04045200 1.26079000
35 1.43658100 -0.00001000 0.00000700 0.01098600 -0.01043400 0.02903600
36 3.99235000 0.89108800 1.82799500 -0.58773500 -0.00855600 1.20568000
37 1.40592100 0.00002400 -0.00000500 -0.01283800 -0.02655700 1.32518700
38 1.17536400 -0.00013000 0.00000300 0.05517300 0.11025000 0.42008900
39 4.52675500 0.69045900 1.12084200 -0.49029100 0.04882300 1.52995500
40 1.74404200 -0.00003200 -0.00000200 -0.02474200 -0.01616300 1.40363300
41 1.36876300 -0.00003200 -0.00001700 -0.32324300 0.09380000 -0.20753100
42 1.93928300 1.01469000 -0.90910300 2.09823500 0.36922500 1.35026100
43 1.52345200 -0.00003300 -0.00000300 0.01413000 -0.08869500 0.51776000
44 1.59927900 0.00000100 0.00000600 0.07477700 -0.03719000 1.28672500
45 5.51180600 0.00000000 0.00000400 -0.27198700 0.00000000 0.00000000
46 0.19684700 0.00000100 0.00000000 -0.34822500 0.00001500 -0.00000200
47 0.00000000 1.00000000 0.00000000 0.00000000 0.00000000 -1.57079600
48 -3.84604500 5.36570100 -3.19804200 0.00000000 0.00000000 -3.14156200
49 -5.13638617 20.56264723 -0.96696273 0.44157021 0.15294090 -0.78108715
50 10.29369200 1.65654800 -1.39246300 -0.59230200 1.24938800 1.04281400
51 3.12262200 -0.01178200 -0.68646900 0.00000000 0.00000000 0.00000000
52 -4.01753200 -0.01178200 0.12452700 0.00000000 0.00000000 0.00000000
53 0.05046500 0.00000000 0.46481100 0.00000000 0.00000000 0.00000000
54 1.27159100 0.74292700 1.02600500 0.00000000 0.00000000 0.00000000
55 -3.03010000 -0.02560600 -1.06275300 0.00000000 0.00000000 0.00000000
56 -1.93822300 -2.92684800 -4.39031000 2.85215900 -0.11258400 -1.97203800
time 8
0 -0.00000100 8.45008800 -27.50902600 0.00000000 0.00000000 0.00003100
1 -0.00000200 0.00000000 0.00000000 1.57074300 -1.56713700 -1.57074300
2 4.25546800 -0.33518300 -0.00000200 0.00000000 0.00000000 -0.12484800
3 7.43124800 1.49647700 0.00000200 0.00000000 0.00000000 0.24545000
4 5.27847900 0.16554100 0.00000100 0.00000000 0.00000000 0.04851100
5 2.30261900 -7.58893900 0.80904600 1.97586400 1.15990900 -1.29878600
6 -6.21448200 -0.00000700 -0.00002700 -2.51265332 -0.68008892 1.68222186
7 11.94488700 0.00000000 0.00000000 -0.35588025 -0.32304845 1.96647228
8 10.62018300 0.00000000 -0.00000100 1.38809953 -0.70904960 2.22903949
9 -4.75111200 -0.69449200 0.83057300 0.04913500 -0.07824800 0.26163600
10 -1.68807100 0.00004700 -0.00003100 0.02216600 -0.01093400 0.32820700
11 -1.33613900 0.00005600 -0.00001200 0.02584800 0.00498300 0.36433000
12 -4.82049900 -0.50945800 -0.22476000 -0.30996000 0.01843000 1.56221200
13 -1.82699000 -0.00006600 0.00000700 -0.01505300 0.03754500 0.89279800
14 -1.43657900 0.00001100 0.00000300 -0.04326900 -0.06465400 0.49796600
15 -3.99236100 -0.89118600 -1.82790700 -0.39357000 0.38726600 1.76892200
16 -1.40592400 -0.00002500 -0.00000300 0.01207400 -0.02686800 0.45175400
17 -1.17536200 0.00012700 -0.00002000 0.05312600 0.04227700 0.80292000
18 -4.52675500 -0.69057300 -1.12074400 -0.26184200 0.27532100 1.85528700
19 -1.74404500 0.00003700 -0.00000800 -0.00637800 -0.02888000 0.62763700
20 -1.36876500 0.00002400 0.00000400 0.02849100 0.04404900 0.47030300
21 -1.87480200 -0.93512600 0.99917200 2.30037900 0.31378400 1.08810900
22 -1.52345300 0.00003000 0.00002700 0.05305500 0.16566500 0.41250900
23 -1.59928500 0.00000500 0.00001200 0.03405500 -0.02608500 0.63444600
24 5.58312400 0.11572100 0.29499400 2.70854600 -0.05525400 3.09741800
25 0.19684900 -0.00000300 0.00000300 2.79340686 -0.00080953 -3.14141575
26 0.30672600 -11.51050900 -1.44971000 1.97586200 1.15990900 1.84280300
27 6.21448500 0.00000600 0.00002000 -0.70746164 0.65004062 -1.92433659
28 11.94488700 -0.00003400 -0.00019000 -0.10599539 -0.34745332 -1.31377965
29 10.62016500 0.00000600 0.00000800 -1.66179756 -0.79266316 0.01589043
30 4.75115700 0.69437500 -0.83047200 -0.33659400 -0.22394700 1.27220000
31 1.68806600 -0.00002600 0.00000200 -0.00123400 -0.02467300 1.48766100
32 1.33614400 -0.00005300 -0.00000900 0.01621300 -0.03516800 -0.06228900
33 4.82051300 0.50933800 0.22486600 -0.37685200 -0.01490600 1.55226800
34 1.82699600 0.00006700 0.00000800 -0.00051300 0.04045200 1.26079000
35 1.43658100 -0.00001000 0.00000700 0.01098600 -0.01043400 0.02903600
36 3.99235000 0.89108800 1.82799500 -0.58773500 -0.00855600 1.20568000
37 1.40592100 0.00002400 -0.00000500 -0.01283800 -0.02655700 1.32518700
38 1.17536400 -0.00013000 0.00000300 0.05517300 0.11025000 0.42008900
39 4.52675500 0.69045900 1.12084200 -0.49029100 0.04882300 1.52995500
40 1.74404200 -0.00003200 -0.00000200 -0.02474200 -0.01616300 1.40363300
41 1.36876300 -0.00003200 -0.00001700 -0.32324300 0.09380000 -0.20753100
42 1.93928300 1.01469000 -0.90910300 2.09823500 0.36922500 1.35026100
43 1.52345200 -0.00003300 -0.00000300 0.01413000 -0.08869500 0.51776000
44 1.59927900 0.00000100 0.00000600 0.07477700 -0.03719000 1.28672500
45 5.51180600 0.00000000 0.00000400 -0.27198700 0.00000000 0.00000000
46 0.19684700 0.00000100 0.00000000 -0.34822500 0.00001500 -0.00000200
47 0.00000000 1.00000000 0.00000000 0.00000000 0.00000000 -1.57079600
48 -3.84604500 5.36570100 -3.19804200 0.00000000 0.00000000 -3.14156200
49 -4.09531347 20.55794023 -0.96966142 0.41812004 0.12083783 -0.96617133
50 10.29369200 1.65654800 -1.39246300 -0.59230200 1.24938800 1.04281400
51 3.12262200 -0.01178200 -0.68646900 0.00000000 0.00000000 0.00000000
52 -4.01753200 -0.01178200 0.12452700 0.00000000 0.00000000 0.00000000
53 0.05046500 0.00000000 0.46481100 0.00000000 0.00000000 0.00000000
54 1.27159100 0.74292700 1.02600500 0.00000000 0.00000000 0.00000000
55 -3.03010000 -0.02560600 -1.06275300 0.00000000 0.00000000 0.00000000
56 -1.93822300 -2.92684800 -4.39031000 2.85215900 -0.11258400 -1.97203800
time 9
0 -0.00000100 8.45008800 -27.50902600 0.00000000 0.00000000 0.00003100
1 -0.00000200 0.00000000 0.00000000 1.57074300 -1.56713700 -1.57074300
2 4.25546800 -0.33518300 -0.00000200 0.00000000 0.00000000 -0.12484800
3 7.43124800 1.49647700 0.00000200 0.00000000 0.00000000 0.24545000
4 5.27847900 0.16554100 0.00000100 0.00000000 0.00000000 0.04851100
5 3.22836500 -6.29915800 -0.47985600 1.97586400 1.15990900 -1.29878600
6 -6.21448200 -0.00000700 -0.00002700 -2.60368469 -0.66301514 1.81463360
7 11.94488700 0.00000000 0.00000000 -0.34503150 -0.32826161 1.93251750
8 10.62018300 0.00000000 -0.00000100 1.32321407 -0.62256845 2.23925982
9 -4.75111200 -0.69449200 0.83057300 0.04913500 -0.07824800 0.26163600
10 -1.68807100 0.00004700 -0.00003100 0.02216600 -0.01093400 0.32820700
11 -1.33613900 0.00005600 -0.00001200 0.02584800 0.00498300 0.36433000
12 -4.82049900 -0.50945800 -0.22476000 -0.30996000 0.01843000 1.56221200
13 -1.82699000 -0.00006600 0.00000700 -0.01505300 0.03754500 0.89279800
14 -1.43657900 0.00001100 0.00000300 -0.04326900 -0.06465400 0.49796600
15 -3.99236100 -0.89118600 -1.82790700 -0.39357000 0.38726600 1.76892200
16 -1.40592400 -0.00002500 -0.00000300 0.01207400 -0.02686800 0.45175400
17 -1.17536200 0.00012700 -0.00002000 0.05312600 0.04227700 0.80292000
18 -4.52675500 -0.69057300 -1.12074400 -0.26184200 0.27532100 1.85528700
19 -1.74404500 0.00003700 -0.00000800 -0.00637800 -0.02888000 0.62763700
20 -1.36876500 0.00002400 0.00000400 0.02849100 0.04404900 0.47030300
21 -1.87480200 -0.93512600 0.99917200 2.30037900 0.31378400 1.08810900
22 -1.52345300 0.00003000 0.00002700 0.05305500 0.16566500 0.41250900
23 -1.59928500 0.00000500 0.00001200 0.03405500 -0.02608500 0.63444600
24 5.58312400 0.11572100 0.29499400 2.70854600 -0.05525400 3.09741800
25 0.19684900 -0.00000300 0.00000300 2.79340686 -0.00080953 -3.14141575
26 0.66724900 -12.23527400 -1.53634600 1.97586200 1.15990900 1.84280300
27 6.21448500 0.00000600 0.00002000 -0.61621913 0.67613922 -1.93578883
28 11.94488700 -0.00003400 -0.00019000 -0.09752646 -0.34697458 -1.33916159
29 10.62016500 0.00000600 0.00000800 -1.80749396 -0.76553684 0.12128231
30 4.75115700 0.69437500 -0.83047200 -0.33659400 -0.22394700 1.27220000
31 1.68806600 -0.00002600 0.00000200 -0.00123400 -0.02467300 1.48766100
32 1.33614400 -0.00005300 -0.00000900 0.01621300 -0.03516800 -0.06228900
33 4.82051300 0.50933800 0.22486600 -0.37685200 -0.01490600 1.55226800
34 1.82699600 0.00006700 0.00000800 -0.00051300 0.04045200 1.26079000
35 1.43658100 -0.00001000 0.00000700 0.01098600 -0.01043400 0.02903600
36 3.99235000 0.89108800 1.82799500 -0.58773500 -0.00855600 1.20568000
37 1.40592100 0.00002400 -0.00000500 -0.01283800 -0.02655700 1.32518700
38 1.17536400 -0.00013000 0.00000300 0.05517300 0.11025000 0.42008900
39 4.52675500 0.69045900 1.12084200 -0.49029100 0.04882300 1.52995500
40 1.74404200 -0.00003200 -0.00000200 -0.02474200 -0.01616300 1.40363300
41 1.36876300 -0.00003200 -0.00001700 -0.32324300 0.09380000 -0.20753100
42 1.93928300 1.01469000 -0.90910300 2.09823500 0.36922500 1.35026100
43 1.52345200 -0.00003300 -0.00000300 0.01413000 -0.08869500 0.51776000
44 1.59927900 0.00000100 0.00000600 0.07477700 -0.03719000 1.28672500
45 5.51180600 0.00000000 0.00000400 -0.27198700 0.00000000 0.00000000
46 0.19684700 0.00000100 0.00000000 -0.34822500 0.00001500 -0.00000200
47 0.00000000 1.00000000 0.00000000 0.00000000 0.00000000 -1.57079600
48 -3.84604500 5.36570100 -3.19804200 0.00000000 0.00000000 -3.14156200
49 -3.21432159 20.55331723 -0.96441294 0.38454397 0.09338359 -1.12497118
50 10.29369200 1.65654800 -1.39246300 -0.59230200 1.24938800 1.04281400
51 3.12262200 -0.01178200 -0.68646900 0.00000000 0.00000000 0.00000000
52 -4.01753200 -0.01178200 0.12452700 0.00000000 0.00000000 0.00000000
53 0.05046500 0.00000000 0.46481100 0.00000000 0.00000000 0.00000000
54 1.27159100 0.74292700 1.02600500 0.00000000 0.00000000 0.00000000
55 -3.03010000 -0.02560600 -1.06275300 0.00000000 0.00000000 0.00000000
56 -1.93822300 -2.92684800 -4.39031000 2.85215900 -0.11258400 -1.97203800
time 10
0 -0.00000100 8.45008800 -27.50902600 0.00000000 0.00000000 0.00003100
1 -0.00000200 0.00000000 0.00000000 1.57074300 -1.56713700 -1.57074300
2 4.25546800 -0.33518300 -0.00000200 0.00000000 0.00000000 -0.12484800
3 7.43124800 1.49647700 0.00000200 0.00000000 0.00000000 0.24545000
4 5.27847900 0.16554100 0.00000100 0.00000000 0.00000000 0.04851100
5 3.88316300 -5.38687400 -1.39151900 1.97586400 1.15990900 -1.29878600
6 -6.21448200 -0.00000700 -0.00002700 -2.68212971 -0.63971058 1.89758369
7 11.94488700 0.00000000 0.00000000 -0.33670091 -0.33137764 1.90678718
8 10.62018300 0.00000000 -0.00000100 1.25144881 -0.53461331 2.21251806
9 -4.75111200 -0.69449200 0.83057300 0.04913500 -0.07824800 0.26163600
10 -1.68807100 0.00004700 -0.00003100 0.02216600 -0.01093400 0.32820700
11 -1.33613900 0.00005600 -0.00001200 0.02584800 0.00498300 0.36433000
12 -4.82049900 -0.50945800 -0.22476000 -0.30996000 0.01843000 1.56221200
13 -1.82699000 -0.00006600 0.00000700 -0.01505300 0.03754500 0.89279800
14 -1.43657900 0.00001100 0.00000300 -0.04326900 -0.06465400 0.49796600
15 -3.99236100 -0.89118600 -1.82790700 -0.39357000 0.38726600 1.76892200
16 -1.40592400 -0.00002500 -0.00000300 0.01207400 -0.02686800 0.45175400
17 -1.17536200 0.00012700 -0.00002000 0.05312600 0.04227700 0.80292000
18 -4.52675500 -0.69057300 -1.12074400 -0.26184200 0.27532100 1.85528700
19 -1.74404500 0.00003700 -0.00000800 -0.00637800 -0.02888000 0.62763700
20 -1.36876500 0.00002400 0.00000400 0.02849100 0.04404900 0.47030300
21 -1.87480200 -0.93512600 0.99917200 2.30037900 0.31378400 1.08810900
22 -1.52345300 0.00003000 0.00002700 0.05305500 0.16566500 0.41250900
23 -1.59928500 0.00000500 0.00001200 0.03405500 -0.02608500 0.63444600
24 5.58312400 0.11572100 0.29499400 2.70854600 -0.05525400 3.09741800
25 0.19684900 -0.00000300 0.00000300 2.79340686 -0.00080953 -3.14141575
26 1.02777000 -12.96003800 -1.62298100 1.97586200 1.15990900 1.84280300
27 6.21448500 0.00000600 0.00002000 -0.55464992 0.70750832 -1.95167892
28 11.94488700 -0.00003400 -0.00019000 -0.08671284 -0.34715905 -1.37160427
29 10.62016500 0.00000600 0.00000800 -1.88712710 -0.71604032 0.18944572
30 4.75115700 0.69437500 -0.83047200 -0.33659400 -0.22394700 1.27220000
31 1.68806600 -0.00002600 0.00000200 -0.00123400 -0.02467300 1.48766100
32 1.33614400 -0.00005300 -0.00000900 0.01621300 -0.03516800 -0.06228900
33 4.82051300 0.50933800 0.22486600 -0.37685200 -0.01490600 1.55226800
34 1.82699600 0.00006700 0.00000800 -0.00051300 0.04045200 1.26079000
35 1.43658100 -0.00001000 0.00000700 0.01098600 -0.01043400 0.02903600
36 3.99235000 0.89108800 1.82799500 -0.58773500 -0.00855600 1.20568000
37 1.40592100 0.00002400 -0.00000500 -0.01283800 -0.02655700 1.32518700
38 1.17536400 -0.00013000 0.00000300 0.05517300 0.11025000 0.42008900
39 4.52675500 0.69045900 1.12084200 -0.49029100 0.04882300 1.52995500
40 1.74404200 -0.00003200 -0.00000200 -0.02474200 -0.01616300 1.40363300
41 1.36876300 -0.00003200 -0.00001700 -0.32324300 0.09380000 -0.20753100
42 1.93928300 1.01469000 -0.90910300 2.09823500 0.36922500 1.35026100
43 1.52345200 -0.00003300 -0.00000300 0.01413000 -0.08869500 0.51776000
44 1.59927900 0.00000100 0.00000600 0.07477700 -0.03719000 1.28672500
45 5.51180600 0.00000000 0.00000400 -0.27198700 0.00000000 0.00000000
46 0.19684700 0.00000100 0.00000000 -0.34822500 0.00001500 -0.00000200
47 0.00000000 1.00000000 0.00000000 0.00000000 0.00000000 -1.57079600
48 -3.84604500 5.36570100 -3.19804200 0.00000000 0.00000000 -3.14156200
49 -2.45472322 20.54894323 -0.95034145 0.33890766 0.06780652 -1.26098658
50 10.29369200 1.65654800 -1.39246300 -0.59230200 1.24938800 1.04281400
51 3.12262200 -0.01178200 -0.68646900 0.00000000 0.00000000 0.00000000
52 -4.01753200 -0.01178200 0.12452700 0.00000000 0.00000000 0.00000000
53 0.05046500 0.00000000 0.46481100 0.00000000 0.00000000 0.00000000
54 1.27159100 0.74292700 1.02600500 0.00000000 0.00000000 0.00000000
55 -3.03010000 -0.02560600 -1.06275300 0.00000000 0.00000000 0.00000000
56 -1.93822300 -2.92684800 -4.39031000 2.85215900 -0.11258400 -1.97203800
time 11
0 -0.00000100 8.45008800 -27.50902600 0.00000000 0.00000000 0.00003100
1 -0.00000200 0.00000000 0.00000000 1.57074300 -1.56713700 -1.57074300
2 4.25546800 -0.33518300 -0.00000200 0.00000000 0.00000000 -0.12484800
3 7.43124800 1.49647700 0.00000200 0.00000000 0.00000000 0.24545000
4 5.27847900 0.16554100 0.00000100 0.00000000 0.00000000 0.04851100
5 4.13153500 -5.04083300 -1.73732300 1.97586400 1.15990900 -1.29878600
6 -6.21448200 -0.00000700 -0.00002700 -2.73277261 -0.62154097 1.92885257
7 11.94488700 0.00000000 0.00000000 -0.34323253 -0.32905759 1.92696356
8 10.62018300 0.00000000 -0.00000100 1.20083515 -0.45826366 2.11526658
9 -4.75111200 -0.69449200 0.83057300 0.04913500 -0.07824800 0.26163600
10 -1.68807100 0.00004700 -0.00003100 0.02216600 -0.01093400 0.32820700
11 -1.33613900 0.00005600 -0.00001200 0.02584800 0.00498300 0.36433000
12 -4.82049900 -0.50945800 -0.22476000 -0.30996000 0.01843000 1.56221200
13 -1.82699000 -0.00006600 0.00000700 -0.01505300 0.03754500 0.89279800
14 -1.43657900 0.00001100 0.00000300 -0.04326900 -0.06465400 0.49796600
15 -3.99236100 -0.89118600 -1.82790700 -0.39357000 0.38726600 1.76892200
16 -1.40592400 -0.00002500 -0.00000300 0.01207400 -0.02686800 0.45175400
17 -1.17536200 0.00012700 -0.00002000 0.05312600 0.04227700 0.80292000
18 -4.52675500 -0.69057300 -1.12074400 -0.26184200 0.27532100 1.85528700
19 -1.74404500 0.00003700 -0.00000800 -0.00637800 -0.02888000 0.62763700
20 -1.36876500 0.00002400 0.00000400 0.02849100 0.04404900 0.47030300
21 -1.87480200 -0.93512600 0.99917200 2.30037900 0.31378400 1.08810900
22 -1.52345300 0.00003000 0.00002700 0.05305500 0.16566500 0.41250900
23 -1.59928500 0.00000500 0.00001200 0.03405500 -0.02608500 0.63444600
24 5.58312400 0.11572100 0.29499400 2.70854600 -0.05525400 3.09741800
25 0.19684900 -0.00000300 0.00000300 2.79340686 -0.00080953 -3.14141575
26 1.36807600 -13.64416100 -1.70475900 1.97586200 1.15990900 1.84280300
27 6.21448500 0.00000600 0.00002000 -0.51441999 0.74120997 -1.96823956
28 11.94488700 -0.00003400 -0.00019000 -0.07520520 -0.34755207 -1.40564668
29 10.62016500 0.00000600 0.00000800 -1.92160429 -0.66076735 0.23337356
30 4.75115700 0.69437500 -0.83047200 -0.33659400 -0.22394700 1.27220000
31 1.68806600 -0.00002600 0.00000200 -0.00123400 -0.02467300 1.48766100
32 1.33614400 -0.00005300 -0.00000900 0.01621300 -0.03516800 -0.06228900
33 4.82051300 0.50933800 0.22486600 -0.37685200 -0.01490600 1.55226800
34 1.82699600 0.00006700 0.00000800 -0.00051300 0.04045200 1.26079000
35 1.43658100 -0.00001000 0.00000700 0.01098600 -0.01043400 0.02903600
36 3.99235000 0.89108800 1.82799500 -0.58773500 -0.00855600 1.20568000
37 1.40592100 0.00002400 -0.00000500 -0.01283800 -0.02655700 1.32518700
38 1.17536400 -0.00013000 0.00000300 0.05517300 0.11025000 0.42008900
39 4.52675500 0.69045900 1.12084200 -0.49029100 0.04882300 1.52995500
40 1.74404200 -0.00003200 -0.00000200 -0.02474200 -0.01616300 1.40363300
41 1.36876300 -0.00003200 -0.00001700 -0.32324300 0.09380000 -0.20753100
42 1.93928300 1.01469000 -0.90910300 2.09823500 0.36922500 1.35026100
43 1.52345200 -0.00003300 -0.00000300 0.01413000 -0.08869500 0.51776000
44 1.59927900 0.00000100 0.00000600 0.07477700 -0.03719000 1.28672500
45 5.51180600 0.00000000 0.00000400 -0.27198700 0.00000000 0.00000000
46 0.19684700 0.00000100 0.00000000 -0.34822500 0.00001500 -0.00000200
47 0.00000000 1.00000000 0.00000000 0.00000000 0.00000000 -1.57079600
48 -3.84604500 5.36570100 -3.19804200 0.00000000 0.00000000 -3.14156200
49 -1.82603387 20.54499323 -0.93033382 0.28910895 0.04263967 -1.37214676
50 10.29369200 1.65654800 -1.39246300 -0.59230200 1.24938800 1.04281400
51 3.12262200 -0.01178200 -0.68646900 0.00000000 0.00000000 0.00000000
52 -4.01753200 -0.01178200 0.12452700 0.00000000 0.00000000 0.00000000
53 0.05046500 0.00000000 0.46481100 0.00000000 0.00000000 0.00000000
54 1.27159100 0.74292700 1.02600500 0.00000000 0.00000000 0.00000000
55 -3.03010000 -0.02560600 -1.06275300 0.00000000 0.00000000 0.00000000
56 -1.93822300 -2.92684800 -4.39031000 2.85215900 -0.11258400 -1.97203800
time 12
0 -0.00000100 8.45008800 -27.50902600 0.00000000 0.00000000 0.00003100
1 -0.00000200 0.00000000 0.00000000 1.57074300 -1.56713700 -1.57074300
2 4.25546800 -0.33518300 -0.00000200 0.00000000 0.00000000 -0.12484800
3 7.43124800 1.49647700 0.00000200 0.00000000 0.00000000 0.24545000
4 5.27847900 0.16554100 0.00000100 0.00000000 0.00000000 0.04851100
5 4.13153500 -5.04083300 -1.73732300 1.97586400 1.15990900 -1.29878600
6 -6.21448200 -0.00000700 -0.00002700 -2.74002567 -0.61688135 1.91575866
7 11.94488700 0.00000000 0.00000000 -0.35670159 -0.32416255 1.96889118
8 10.62018300 0.00000000 -0.00000100 1.18498688 -0.39726598 1.98613418
9 -4.75111200 -0.69449200 0.83057300 0.04913500 -0.07824800 0.26163600
10 -1.68807100 0.00004700 -0.00003100 0.02216600 -0.01093400 0.32820700
11 -1.33613900 0.00005600 -0.00001200 0.02584800 0.00498300 0.36433000
12 -4.82049900 -0.50945800 -0.22476000 -0.30996000 0.01843000 1.56221200
13 -1.82699000 -0.00006600 0.00000700 -0.01505300 0.03754500 0.89279800
14 -1.43657900 0.00001100 0.00000300 -0.04326900 -0.06465400 0.49796600
15 -3.99236100 -0.89118600 -1.82790700 -0.39357000 0.38726600 1.76892200
16 -1.40592400 -0.00002500 -0.00000300 0.01207400 -0.02686800 0.45175400
17 -1.17536200 0.00012700 -0.00002000 0.05312600 0.04227700 0.80292000
18 -4.52675500 -0.69057300 -1.12074400 -0.26184200 0.27532100 1.85528700
19 -1.74404500 0.00003700 -0.00000800 -0.00637800 -0.02888000 0.62763700
20 -1.36876500 0.00002400 0.00000400 0.02849100 0.04404900 0.47030300
21 -1.87480200 -0.93512600 0.99917200 2.30037900 0.31378400 1.08810900
22 -1.52345300 0.00003000 0.00002700 0.05305500 0.16566500 0.41250900
23 -1.59928500 0.00000500 0.00001200 0.03405500 -0.02608500 0.63444600
24 5.58312400 0.11572100 0.29499400 2.70854600 -0.05525400 3.09741800
25 0.19684900 -0.00000300 0.00000300 2.79340686 -0.00080953 -3.14141575
26 1.66794800 -14.24700400 -1.77682000 1.97586200 1.15990900 1.84280300
27 6.21448500 0.00000600 0.00002000 -0.49193706 0.77170323 -1.98625204
28 11.94488700 -0.00003400 -0.00019000 -0.06497677 -0.34798322 -1.43590957
29 10.62016500 0.00000600 0.00000800 -1.92753554 -0.60811159 0.26345177
30 4.75115700 0.69437500 -0.83047200 -0.33659400 -0.22394700 1.27220000
31 1.68806600 -0.00002600 0.00000200 -0.00123400 -0.02467300 1.48766100
32 1.33614400 -0.00005300 -0.00000900 0.01621300 -0.03516800 -0.06228900
33 4.82051300 0.50933800 0.22486600 -0.37685200 -0.01490600 1.55226800
34 1.82699600 0.00006700 0.00000800 -0.00051300 0.04045200 1.26079000
35 1.43658100 -0.00001000 0.00000700 0.01098600 -0.01043400 0.02903600
36 3.99235000 0.89108800 1.82799500 -0.58773500 -0.00855600 1.20568000
37 1.40592100 0.00002400 -0.00000500 -0.01283800 -0.02655700 1.32518700
38 1.17536400 -0.00013000 0.00000300 0.05517300 0.11025000 0.42008900
39 4.52675500 0.69045900 1.12084200 -0.49029100 0.04882300 1.52995500
40 1.74404200 -0.00003200 -0.00000200 -0.02474200 -0.01616300 1.40363300
41 1.36876300 -0.00003200 -0.00001700 -0.32324300 0.09380000 -0.20753100
42 1.93928300 1.01469000 -0.90910300 2.09823500 0.36922500 1.35026100
43 1.52345200 -0.00003300 -0.00000300 0.01413000 -0.08869500 0.51776000
44 1.59927900 0.00000100 0.00000600 0.07477700 -0.03719000 1.28672500
45 5.51180600 0.00000000 0.00000400 -0.27198700 0.00000000 0.00000000
46 0.19684700 0.00000100 0.00000000 -0.34822500 0.00001500 -0.00000200
47 0.00000000 1.00000000 0.00000000 0.00000000 0.00000000 -1.57079600
48 -3.84604500 5.36570100 -3.19804200 0.00000000 0.00000000 -3.14156200
49 -1.30953804 20.54162623 -0.87626949 0.24098951 0.01956083 -1.45836175
50 10.29369200 1.65654800 -1.39246300 -0.59230200 1.24938800 1.04281400
51 3.12262200 -0.01178200 -0.68646900 0.00000000 0.00000000 0.00000000
52 -4.01753200 -0.01178200 0.12452700 0.00000000 0.00000000 0.00000000
53 0.05046500 0.00000000 0.46481100 0.00000000 0.00000000 0.00000000
54 1.27159100 0.74292700 1.02600500 0.00000000 0.00000000 0.00000000
55 -3.03010000 -0.02560600 -1.06275300 0.00000000 0.00000000 0.00000000
56 -1.93822300 -2.92684800 -4.39031000 2.85215900 -0.11258400 -1.97203800
time 13
0 -0.00000100 8.45008800 -27.50902600 0.00000000 0.00000000 0.00003100
1 -0.00000200 0.00000000 0.00000000 1.57074300 -1.56713700 -1.57074300
2 4.25546800 -0.33518300 -0.00000200 0.00000000 0.00000000 -0.12484800
3 7.43124800 1.49647700 0.00000200 0.00000000 0.00000000 0.24545000
4 5.27847900 0.16554100 0.00000100 0.00000000 0.00000000 0.04851100
5 4.13153500 -5.04083300 -1.73732300 1.97586400 1.15990900 -1.29878600
6 -6.21448200 -0.00000700 -0.00002700 -2.71242117 -0.62488732 1.88184018
7 11.94488700 0.00000000 0.00000000 -0.36395171 -0.32145657 1.99180104
8 10.62018300 0.00000000 -0.00000100 1.18595750 -0.35118439 1.88883431
9 -4.75111200 -0.69449200 0.83057300 0.04913500 -0.07824800 0.26163600
10 -1.68807100 0.00004700 -0.00003100 0.02216600 -0.01093400 0.32820700
11 -1.33613900 0.00005600 -0.00001200 0.02584800 0.00498300 0.36433000
12 -4.82049900 -0.50945800 -0.22476000 -0.30996000 0.01843000 1.56221200
13 -1.82699000 -0.00006600 0.00000700 -0.01505300 0.03754500 0.89279800
14 -1.43657900 0.00001100 0.00000300 -0.04326900 -0.06465400 0.49796600
15 -3.99236100 -0.89118600 -1.82790700 -0.39357000 0.38726600 1.76892200
16 -1.40592400 -0.00002500 -0.00000300 0.01207400 -0.02686800 0.45175400
17 -1.17536200 0.00012700 -0.00002000 0.05312600 0.04227700 0.80292000
18 -4.52675500 -0.69057300 -1.12074400 -0.26184200 0.27532100 1.85528700
19 -1.74404500 0.00003700 -0.00000800 -0.00637800 -0.02888000 0.62763700
20 -1.36876500 0.00002400 0.00000400 0.02849100 0.04404900 0.47030300
21 -1.87480200 -0.93512600 0.99917200 2.30037900 0.31378400 1.08810900
22 -1.52345300 0.00003000 0.00002700 0.05305500 0.16566500 0.41250900
23 -1.59928500 0.00000500 0.00001200 0.03405500 -0.02608500 0.63444600
24 5.58312400 0.11572100 0.29499400 2.70854600 -0.05525400 3.09741800
25 0.19684900 -0.00000300 0.00000300 2.79340686 -0.00080953 -3.14141575
26 1.90717300 -14.72792200 -1.83430900 1.97586200 1.15990900 1.84280300
27 6.21448500 0.00000600 0.00002000 -0.48496186 0.79597842 -2.00370572
28 11.94488700 -0.00003400 -0.00019000 -0.05618456 -0.34826550 -1.46164089
29 10.62016500 0.00000600 0.00000800 -1.91263365 -0.55873302 0.28720935
30 4.75115700 0.69437500 -0.83047200 -0.33659400 -0.22394700 1.27220000
31 1.68806600 -0.00002600 0.00000200 -0.00123400 -0.02467300 1.48766100
32 1.33614400 -0.00005300 -0.00000900 0.01621300 -0.03516800 -0.06228900
33 4.82051300 0.50933800 0.22486600 -0.37685200 -0.01490600 1.55226800
34 1.82699600 0.00006700 0.00000800 -0.00051300 0.04045200 1.26079000
35 1.43658100 -0.00001000 0.00000700 0.01098600 -0.01043400 0.02903600
36 3.99235000 0.89108800 1.82799500 -0.58773500 -0.00855600 1.20568000
37 1.40592100 0.00002400 -0.00000500 -0.01283800 -0.02655700 1.32518700
38 1.17536400 -0.00013000 0.00000300 0.05517300 0.11025000 0.42008900
39 4.52675500 0.69045900 1.12084200 -0.49029100 0.04882300 1.52995500
40 1.74404200 -0.00003200 -0.00000200 -0.02474200 -0.01616300 1.40363300
41 1.36876300 -0.00003200 -0.00001700 -0.32324300 0.09380000 -0.20753100
42 1.93928300 1.01469000 -0.90910300 2.09823500 0.36922500 1.35026100
43 1.52345200 -0.00003300 -0.00000300 0.01413000 -0.08869500 0.51776000
44 1.59927900 0.00000100 0.00000600 0.07477700 -0.03719000 1.28672500
45 5.51180600 0.00000000 0.00000400 -0.27198700 0.00000000 0.00000000
46 0.19684700 0.00000100 0.00000000 -0.34822500 0.00001500 -0.00000200
47 0.00000000 1.00000000 0.00000000 0.00000000 0.00000000 -1.57079600
48 -3.84604500 5.36570100 -3.19804200 0.00000000 0.00000000 -3.14156200
49 -0.90090148 20.53901523 -0.79335349 0.19289324 0.00062384 -1.52025398
50 10.29369200 1.65654800 -1.39246300 -0.59230200 1.24938800 1.04281400
51 3.12262200 -0.01178200 -0.68646900 0.00000000 0.00000000 0.00000000
52 -4.01753200 -0.01178200 0.12452700 0.00000000 0.00000000 0.00000000
53 0.05046500 0.00000000 0.46481100 0.00000000 0.00000000 0.00000000
54 1.27159100 0.74292700 1.02600500 0.00000000 0.00000000 0.00000000
55 -3.03010000 -0.02560600 -1.06275300 0.00000000 0.00000000 0.00000000
56 -1.93822300 -2.92684800 -4.39031000 2.85215900 -0.11258400 -1.97203800
time 14
0 -0.00000100 8.45008800 -27.50902600 0.00000000 0.00000000 0.00003100
1 -0.00000200 0.00000000 0.00000000 1.57074300 -1.56713700 -1.57074300
2 4.25546800 -0.33518300 -0.00000200 0.00000000 0.00000000 -0.12484800
3 7.43124800 1.49647700 0.00000200 0.00000000 0.00000000 0.24545000
4 5.27847900 0.16554100 0.00000100 0.00000000 0.00000000 0.04851100
5 4.13153500 -5.04083300 -1.73732300 1.97586400 1.15990900 -1.29878600
6 -6.21448200 -0.00000700 -0.00002700 -2.67782009 -0.63897843 1.84857966
7 11.94488700 0.00000000 0.00000000 -0.36734244 -0.31969472 2.00276973
8 10.62018300 0.00000000 -0.00000100 1.18461229 -0.31867450 1.83259283
9 -4.75111200 -0.69449200 0.83057300 0.04913500 -0.07824800 0.26163600
10 -1.68807100 0.00004700 -0.00003100 0.02216600 -0.01093400 0.32820700
11 -1.33613900 0.00005600 -0.00001200 0.02584800 0.00498300 0.36433000
12 -4.82049900 -0.50945800 -0.22476000 -0.30996000 0.01843000 1.56221200
13 -1.82699000 -0.00006600 0.00000700 -0.01505300 0.03754500 0.89279800
14 -1.43657900 0.00001100 0.00000300 -0.04326900 -0.06465400 0.49796600
15 -3.99236100 -0.89118600 -1.82790700 -0.39357000 0.38726600 1.76892200
16 -1.40592400 -0.00002500 -0.00000300 0.01207400 -0.02686800 0.45175400
17 -1.17536200 0.00012700 -0.00002000 0.05312600 0.04227700 0.80292000
18 -4.52675500 -0.69057300 -1.12074400 -0.26184200 0.27532100 1.85528700
19 -1.74404500 0.00003700 -0.00000800 -0.00637800 -0.02888000 0.62763700
20 -1.36876500 0.00002400 0.00000400 0.02849100 0.04404900 0.47030300
21 -1.87480200 -0.93512600 0.99917200 2.30037900 0.31378400 1.08810900
22 -1.52345300 0.00003000 0.00002700 0.05305500 0.16566500 0.41250900
23 -1.59928500 0.00000500 0.00001200 0.03405500 -0.02608500 0.63444600
24 5.58312400 0.11572100 0.29499400 2.70854600 -0.05525400 3.09741800
25 0.19684900 -0.00000300 0.00000300 2.79340686 -0.00080953 -3.14141575
26 2.06553400 -15.04627600 -1.87236200 1.97586200 1.15990900 1.84280300
27 6.21448500 0.00000600 0.00002000 -0.48795639 0.81211786 -2.01611334
28 11.94488700 -0.00003400 -0.00019000 -0.04967773 -0.34824343 -1.48096869
29 10.62016500 0.00000600 0.00000800 -1.88560451 -0.51619321 0.30375108
30 4.75115700 0.69437500 -0.83047200 -0.33659400 -0.22394700 1.27220000
31 1.68806600 -0.00002600 0.00000200 -0.00123400 -0.02467300 1.48766100
32 1.33614400 -0.00005300 -0.00000900 0.01621300 -0.03516800 -0.06228900
33 4.82051300 0.50933800 0.22486600 -0.37685200 -0.01490600 1.55226800
34 1.82699600 0.00006700 0.00000800 -0.00051300 0.04045200 1.26079000
35 1.43658100 -0.00001000 0.00000700 0.01098600 -0.01043400 0.02903600
36 3.99235000 0.89108800 1.82799500 -0.58773500 -0.00855600 1.20568000
37 1.40592100 0.00002400 -0.00000500 -0.01283800 -0.02655700 1.32518700
38 1.17536400 -0.00013000 0.00000300 0.05517300 0.11025000 0.42008900
39 4.52675500 0.69045900 1.12084200 -0.49029100 0.04882300 1.52995500
40 1.74404200 -0.00003200 -0.00000200 -0.02474200 -0.01616300 1.40363300
41 1.36876300 -0.00003200 -0.00001700 -0.32324300 0.09380000 -0.20753100
42 1.93928300 1.01469000 -0.90910300 2.09823500 0.36922500 1.35026100
43 1.52345200 -0.00003300 -0.00000300 0.01413000 -0.08869500 0.51776000
44 1.59927900 0.00000100 0.00000600 0.07477700 -0.03719000 1.28672500
45 5.51180600 0.00000000 0.00000400 -0.27198700 0.00000000 0.00000000
46 0.19684700 0.00000100 0.00000000 -0.34822500 0.00001500 -0.00000200
47 0.00000000 1.00000000 0.00000000 0.00000000 0.00000000 -1.57079600
48 -3.84604500 5.36570100 -3.19804200 0.00000000 0.00000000 -3.14156200
49 -0.62650870 20.53732523 -0.72609267 0.14847732 -0.01052829 -1.55757776
50 10.29369200 1.65654800 -1.39246300 -0.59230200 1.24938800 1.04281400
51 3.12262200 -0.01178200 -0.68646900 0.00000000 0.00000000 0.00000000
52 -4.01753200 -0.01178200 0.12452700 0.00000000 0.00000000 0.00000000
53 0.05046500 0.00000000 0.46481100 0.00000000 0.00000000 0.00000000
54 1.27159100 0.74292700 1.02600500 0.00000000 0.00000000 0.00000000
55 -3.03010000 -0.02560600 -1.06275300 0.00000000 0.00000000 0.00000000
56 -1.93822300 -2.92684800 -4.39031000 2.85215900 -0.11258400 -1.97203800
time 15
0 -0.00000100 8.45008800 -27.50902600 0.00000000 0.00000000 0.00003100
1 -0.00000200 0.00000000 0.00000000 1.57074300 -1.56713700 -1.57074300
2 4.25546800 -0.33518300 -0.00000200 0.00000000 0.00000000 -0.12484800
3 7.43124800 1.49647700 0.00000200 0.00000000 0.00000000 0.24545000
4 5.27847900 0.16554100 0.00000100 0.00000000 0.00000000 0.04851100
5 4.13153500 -5.04083300 -1.73732300 1.97586400 1.15990900 -1.29878600
6 -6.21448200 -0.00000700 -0.00002700 -2.66196413 -0.64876179 1.83601958
7 11.94488700 0.00000000 0.00000000 -0.36843319 -0.31900722 2.00615739
8 10.62018300 0.00000000 -0.00000100 1.17562180 -0.30514553 1.81987657
9 -4.75111200 -0.69449200 0.83057300 0.04913500 -0.07824800 0.26163600
10 -1.68807100 0.00004700 -0.00003100 0.02216600 -0.01093400 0.32820700
11 -1.33613900 0.00005600 -0.00001200 0.02584800 0.00498300 0.36433000
12 -4.82049900 -0.50945800 -0.22476000 -0.30996000 0.01843000 1.56221200
13 -1.82699000 -0.00006600 0.00000700 -0.01505300 0.03754500 0.89279800
14 -1.43657900 0.00001100 0.00000300 -0.04326900 -0.06465400 0.49796600
15 -3.99236100 -0.89118600 -1.82790700 -0.39357000 0.38726600 1.76892200
16 -1.40592400 -0.00002500 -0.00000300 0.01207400 -0.02686800 0.45175400
17 -1.17536200 0.00012700 -0.00002000 0.05312600 0.04227700 0.80292000
18 -4.52675500 -0.69057300 -1.12074400 -0.26184200 0.27532100 1.85528700
19 -1.74404500 0.00003700 -0.00000800 -0.00637800 -0.02888000 0.62763700
20 -1.36876500 0.00002400 0.00000400 0.02849100 0.04404900 0.47030300
21 -1.87480200 -0.93512600 0.99917200 2.30037900 0.31378400 1.08810900
22 -1.52345300 0.00003000 0.00002700 0.05305500 0.16566500 0.41250900
23 -1.59928500 0.00000500 0.00001200 0.03405500 -0.02608500 0.63444600
24 5.58312400 0.11572100 0.29499400 2.70854600 -0.05525400 3.09741800
25 0.19684900 -0.00000300 0.00000300 2.79340686 -0.00080953 -3.14141575
26 2.12281100 -15.16142700 -1.88612700 1.97586200 1.15990900 1.84280300
27 6.21448500 0.00000600 0.00002000 -0.49516973 0.81600517 -2.02365826
28 11.94488700 -0.00003400 -0.00019000 -0.04762413 -0.34825556 -1.48685238
29 10.62016500 0.00000600 0.00000800 -1.86305657 -0.49258363 0.30799898
30 4.75115700 0.69437500 -0.83047200 -0.33659400 -0.22394700 1.27220000
31 1.68806600 -0.00002600 0.00000200 -0.00123400 -0.02467300 1.48766100
32 1.33614400 -0.00005300 -0.00000900 0.01621300 -0.03516800 -0.06228900
33 4.82051300 0.50933800 0.22486600 -0.37685200 -0.01490600 1.55226800
34 1.82699600 0.00006700 0.00000800 -0.00051300 0.04045200 1.26079000
35 1.43658100 -0.00001000 0.00000700 0.01098600 -0.01043400 0.02903600
36 3.99235000 0.89108800 1.82799500 -0.58773500 -0.00855600 1.20568000
37 1.40592100 0.00002400 -0.00000500 -0.01283800 -0.02655700 1.32518700
38 1.17536400 -0.00013000 0.00000300 0.05517300 0.11025000 0.42008900
39 4.52675500 0.69045900 1.12084200 -0.49029100 0.04882300 1.52995500
40 1.74404200 -0.00003200 -0.00000200 -0.02474200 -0.01616300 1.40363300
41 1.36876300 -0.00003200 -0.00001700 -0.32324300 0.09380000 -0.20753100
42 1.93928300 1.01469000 -0.90910300 2.09823500 0.36922500 1.35026100
43 1.52345200 -0.00003300 -0.00000300 0.01413000 -0.08869500 0.51776000
44 1.59927900 0.00000100 0.00000600 0.07477700 -0.03719000 1.28672500
45 5.51180600 0.00000000 0.00000400 -0.27198700 0.00000000 0.00000000
46 0.19684700 0.00000100 0.00000000 -0.34822500 0.00001500 -0.00000200
47 0.00000000 1.00000000 0.00000000 0.00000000 0.00000000 -1.57079600
48 -3.84604500 5.36570100 -3.19804200 0.00000000 0.00000000 -3.14156200
49 -0.49392017 20.53672523 -0.68554189 0.12241079 -0.01066364 -1.57091399
50 10.29369200 1.65654800 -1.39246300 -0.59230200 1.24938800 1.04281400
51 3.12262200 -0.01178200 -0.68646900 0.00000000 0.00000000 0.00000000
52 -4.01753200 -0.01178200 0.12452700 0.00000000 0.00000000 0.00000000
53 0.05046500 0.00000000 0.46481100 0.00000000 0.00000000 0.00000000
54 1.27159100 0.74292700 1.02600500 0.00000000 0.00000000 0.00000000
55 -3.03010000 -0.02560600 -1.06275300 0.00000000 0.00000000 0.00000000
56 -1.93822300 -2.92684800 -4.39031000 2.85215900 -0.11258400 -1.97203800
end
