// Created by Crowbar 0.74
version 1
nodes
  0 "root" -1
end
skeleton
  time 0
    0 0.000000 0.000000 0.000000 0.000000 0.000000 0.000000
end
triangles
shells_small
  0 0.000015 0.734396 0.259388 0.000000 1.000000 0.000000 0.919822 0.511987 1 0 1.000000
  0 0.273310 0.728496 -0.054361 0.032224 0.999474 -0.003507 0.965917 0.488029 1 0 1.000000
  0 -0.239627 0.734396 0.099264 0.000000 1.000000 0.000000 0.934203 0.546714 1 0 1.000000
shells_small
  0 -0.239627 0.734396 0.099264 0.000000 1.000000 0.000000 0.934203 0.546714 1 0 1.000000
  0 0.273310 0.728496 -0.054361 0.032224 0.999474 -0.003507 0.965917 0.488029 1 0 1.000000
  0 -0.099248 0.734396 -0.239641 0.000000 1.000000 0.000000 0.981123 0.537381 1 0 1.000000
shells_small
  0 -0.111067 -0.304018 -0.268176 -0.382683 0.000000 -0.923880 0.528296 0.805600 1 0 1.000000
  0 -0.290258 -0.304018 0.000001 -1.000000 0.000000 0.000000 0.528296 0.762863 1 0 1.000000
  0 -0.110712 0.734669 -0.267319 -0.344114 0.112795 -0.932128 0.674826 0.803185 1 0 1.000000
shells_small
  0 -0.290258 -0.304018 0.000001 -1.000000 0.000000 0.000000 0.528296 0.762863 1 0 1.000000
  0 -0.255612 0.734455 0.090684 -0.948332 0.090970 0.303959 0.674826 0.750404 1 0 1.000000
  0 -0.110712 0.734669 -0.267319 -0.344114 0.112795 -0.932128 0.674826 0.803185 1 0 1.000000
shells_small
  0 -0.290258 -0.304018 0.000001 -1.000000 0.000000 0.000000 0.528296 0.762863 1 0 1.000000
  0 -0.205239 -0.304018 0.205255 -0.707107 0.000000 0.707107 0.528296 0.734375 1 0 1.000000
  0 -0.255612 0.734455 0.090684 -0.948332 0.090970 0.303959 0.674826 0.750404 1 0 1.000000
shells_small
  0 -0.205239 -0.304018 0.205255 -0.707107 0.000000 0.707107 0.528296 0.734375 1 0 1.000000
  0 0.038646 0.734553 0.278949 0.189602 0.082408 0.978397 0.674826 0.700577 1 0 1.000000
  0 -0.255612 0.734455 0.090684 -0.948332 0.090970 0.303959 0.674826 0.750404 1 0 1.000000
shells_small
  0 0.038646 0.734553 0.278949 0.189602 0.082408 0.978397 0.674826 0.700577 1 0 1.000000
  0 -0.205239 -0.304018 0.205255 -0.707107 0.000000 0.707107 0.528296 0.734375 1 0 1.000000
  0 0.111098 -0.304018 0.268178 0.382684 0.000000 0.923879 0.528296 0.691638 1 0 1.000000
shells_small
  0 0.111098 -0.304018 0.268178 0.382684 0.000000 0.923879 0.528296 0.691638 1 0 1.000000
  0 0.273310 0.728496 -0.054361 0.954989 0.201548 -0.217656 0.672496 0.641516 1 0 1.000000
  0 0.038646 0.734553 0.278949 0.189602 0.082408 0.978397 0.674826 0.700577 1 0 1.000000
shells_small
  0 0.111098 -0.304018 0.268178 0.382684 0.000000 0.923879 0.528296 0.691638 1 0 1.000000
  0 0.291259 -0.303999 0.046989 0.982039 0.028764 0.186472 0.528296 0.654676 1 0 1.000000
  0 0.273310 0.728496 -0.054361 0.954989 0.201548 -0.217656 0.672496 0.641516 1 0 1.000000
shells_small
  0 0.291259 -0.303999 0.046989 0.982039 0.028764 0.186472 0.528296 0.654676 1 0 1.000000
  0 0.205269 -0.304018 -0.205253 0.707107 0.000000 -0.707107 0.528296 0.620414 1 0 1.000000
  0 0.273310 0.728496 -0.054361 0.954989 0.201548 -0.217656 0.672496 0.641516 1 0 1.000000
shells_small
  0 0.273310 0.728496 -0.054361 0.954989 0.201548 -0.217656 0.672496 0.641516 1 0 1.000000
  0 0.205269 -0.304018 -0.205253 0.707107 0.000000 -0.707107 0.528296 0.620414 1 0 1.000000
  0 -0.110712 0.734669 -0.267319 -0.344114 0.112795 -0.932128 0.674826 0.599045 1 0 1.000000
shells_small
  0 0.205269 -0.304018 -0.205253 0.707107 0.000000 -0.707107 0.528296 0.620414 1 0 1.000000
  0 -0.130506 -0.303952 -0.274036 -0.398670 0.013528 -0.916995 0.528296 0.591926 1 0 1.000000
  0 -0.110712 0.734669 -0.267319 -0.344114 0.112795 -0.932128 0.674826 0.599045 1 0 1.000000
shells_small
  0 -0.205239 -0.304018 0.205255 0.000000 -1.000000 0.000000 0.157028 0.892868 1 0 1.000000
  0 -0.290258 -0.304018 0.000001 0.000000 -1.000000 0.000000 0.172498 0.889774 1 0 1.000000
  0 0.111098 -0.304018 0.268178 0.000000 -1.000000 0.000000 0.148255 0.914038 1 0 1.000000
shells_small
  0 -0.290258 -0.304018 0.000001 0.000000 -1.000000 0.000000 0.172498 0.889774 1 0 1.000000
  0 -0.111067 -0.304018 -0.268176 0.000000 -1.000000 0.000000 0.188691 0.905998 1 0 1.000000
  0 0.111098 -0.304018 0.268178 0.000000 -1.000000 0.000000 0.148255 0.914038 1 0 1.000000
shells_small
  0 -0.111067 -0.304018 -0.268176 0.000000 -1.000000 0.000000 0.188691 0.905998 1 0 1.000000
  0 0.205269 -0.304018 -0.205253 0.000000 -1.000000 0.000000 0.179938 0.927157 1 0 1.000000
  0 0.111098 -0.304018 0.268178 0.000000 -1.000000 0.000000 0.148255 0.914038 1 0 1.000000
shells_small
  0 0.205269 -0.304018 -0.205253 0.000000 -1.000000 0.000000 0.179938 0.927157 1 0 1.000000
  0 0.290288 -0.304018 0.000001 0.000000 -1.000000 0.000000 0.164458 0.930231 1 0 1.000000
  0 0.111098 -0.304018 0.268178 0.000000 -1.000000 0.000000 0.148255 0.914038 1 0 1.000000
end
