version 1
nodes
0 "root" -1
1 "pelvis" 0
2 "spine_01" 1
3 "spine_02" 2
4 "spine_03" 3
5 "clavicle_r" 4
6 "upperarm_r" 5
7 "lowerarm_r" 6
8 "hand_r" 7
9 "index_01_r" 8
10 "index_02_r" 9
11 "index_03_r" 10
12 "middle_01_r" 8
13 "middle_02_r" 12
14 "middle_03_r" 13
15 "pinky_01_r" 8
16 "pinky_02_r" 15
17 "pinky_03_r" 16
18 "ring_01_r" 8
19 "ring_02_r" 18
20 "ring_03_r" 19
21 "thumb_01_r" 8
22 "thumb_02_r" 21
23 "thumb_03_r" 22
24 "lowerarm_twist_01_r" 7
25 "upperarm_twist_01_r" 6
26 "clavicle_l" 4
27 "upperarm_l" 26
28 "lowerarm_l" 27
29 "hand_l" 28
30 "index_01_l" 29
31 "index_02_l" 30
32 "index_03_l" 31
33 "middle_01_l" 29
34 "middle_02_l" 33
35 "middle_03_l" 34
36 "pinky_01_l" 29
37 "pinky_02_l" 36
38 "pinky_03_l" 37
39 "ring_01_l" 29
40 "ring_02_l" 39
41 "ring_03_l" 40
42 "thumb_01_l" 29
43 "thumb_02_l" 42
44 "thumb_03_l" 43
45 "lowerarm_twist_01_l" 28
46 "upperarm_twist_01_l" 27
47 "cam_driver" -1
48 "BaseRoot" -1
49 "Base" 48
50 "Mag" 49
51 "Bullet.001" 50
52 "Bullet.002" 50
53 "Bullet.003" 50
54 "Bullet.004" 50
55 "Bullet.005" 50
56 "Bullet.006" 50
57 "Bullet.007" 50
58 "Bullet.008" 50
59 "Pusher" 50
60 "Hammer" 49
61 "Trigger" 49
62 "Slide" 49
63 "Rhand_IKtarget" 49
64 "LHand_IKtarget" 49
end
skeleton
time 0
0 -0.00000100 7.45008900 -27.50902600 0.00000000 0.00000000 0.00003100
1 -0.00000200 0.00000000 0.00000000 1.57074300 -1.56713700 -1.57074300
2 4.25546800 -0.33518300 -0.00000200 0.00000000 0.00000000 -0.12484800
3 7.43124800 1.49647700 0.00000200 0.00000000 0.00000000 0.24545000
4 5.27847900 0.16554100 0.00000100 0.00000000 0.00000000 0.04851100
5 -3.47691200 -11.37859100 1.43908600 1.97586400 1.15990900 -1.29878600
6 -6.21448200 -0.00000700 -0.00002700 -2.19355873 -0.36148263 1.16158933
7 11.94488200 0.00000000 0.00000100 -0.28909748 -0.35108271 1.76364706
8 10.62018100 0.00000200 0.00000000 1.34494979 0.70333463 -3.07413552
9 -4.75110600 -0.69449400 0.83057700 -0.07012300 -0.00054100 0.69116400
10 -1.68806800 0.00004600 -0.00003200 0.01731800 -0.01762500 0.66104700
11 -1.33614000 0.00005700 -0.00001200 0.02626800 0.00232700 0.46266200
12 -4.82049400 -0.50946000 -0.22475900 -0.30496400 -0.06094000 1.40487400
13 -1.82699200 -0.00006400 0.00000600 -0.00832800 0.03958800 1.06556400
14 -1.43657300 0.00000600 0.00000200 -0.06013400 -0.04938400 0.79162700
15 -3.99235500 -0.89118800 -1.82790900 -0.45253100 0.08799900 1.29457900
16 -1.40591800 -0.00002500 -0.00000300 0.00059000 -0.02949400 0.85590800
17 -1.17535800 0.00012800 -0.00002000 0.06441700 0.02146300 1.15302800
18 -4.52675100 -0.69057500 -1.12074400 -0.33008200 0.10310600 1.46474500
19 -1.74403800 0.00003300 -0.00000800 -0.01905300 -0.02261400 1.11317400
20 -1.36877100 0.00002500 0.00000200 0.03795400 0.03618700 0.70440900
21 -1.71880600 -1.28270500 0.93153400 1.74225800 0.53909000 0.79261800
22 -1.52345300 0.00003200 0.00003100 -0.04381600 -0.11443900 0.49037000
23 -1.59928500 0.00000400 0.00001600 -0.05494100 -0.06840200 0.44621300
24 5.51181500 0.00000800 -0.00000100 2.15399885 0.00049853 3.14126459
25 0.19684700 -0.00000100 0.00000300 2.79340695 -0.00053640 -3.14146323
26 -5.94302700 -12.68964300 -0.52561500 1.97586200 1.15990900 1.84280300
27 6.21448500 0.00000600 0.00002000 -0.60360123 0.08605532 -2.27621188
28 11.94488500 -0.00002900 -0.00019400 0.15710322 -0.36090402 -1.37567857
29 10.62016600 0.00000200 0.00001000 -1.89447497 -0.45941299 -0.04941234
30 4.75115600 0.69437600 -0.83047300 0.27000200 -0.31838700 0.81033800
31 1.68806500 -0.00002600 0.00000200 0.01720700 -0.01778700 0.67036400
32 1.33615100 -0.00005100 -0.00000900 0.00904800 -0.03764700 0.13514500
33 4.82051300 0.50934000 0.22486500 0.23182200 -0.24475900 0.91537200
34 1.82699600 0.00006600 0.00000800 -0.01299500 0.03827200 0.94640800
35 1.43657700 -0.00001000 0.00000700 0.01170400 -0.00957600 -0.04572800
36 3.99235300 0.89108700 1.82799400 0.04076900 -0.25921600 0.55173200
37 1.40591800 0.00002100 -0.00000700 -0.00899200 -0.02807500 1.18372600
38 1.17536900 -0.00013100 0.00000200 0.03224600 0.11898500 0.22057100
39 4.52675600 0.69046000 1.12084200 0.12505500 -0.23595800 0.82170200
40 1.74404100 -0.00003100 -0.00000200 -0.02297300 -0.01864500 1.30081900
41 1.36876300 -0.00003100 -0.00001700 -0.00637400 0.15858000 -0.22582000
42 1.87485500 0.93508100 -0.99913000 1.82266900 0.41133500 0.52296500
43 1.52344900 -0.00003400 -0.00000300 -0.00806100 -0.03646600 0.60634800
44 1.59928100 -0.00000200 0.00000900 0.06220500 0.05569400 0.09724300
45 5.51180600 -0.00000200 0.00000600 -0.70632100 0.00000000 0.00000000
46 0.19685000 0.00000300 -0.00000200 -0.34822500 0.00001500 -0.00000200
47 0.00000000 0.00000000 0.00000000 0.00000000 0.00000000 -1.57079600
48 -2.98601100 12.59877100 -3.31969900 0.00000000 0.00000000 -3.14156200
49 2.98101159 23.60781855 2.26973627 -1.14134775 1.48350115 -2.44665620
50 0.02460800 -0.01874400 0.29607500 0.00000000 0.00000000 0.00000000
51 0.07231200 0.00000000 0.14418200 0.01801400 -0.02072400 0.01958400
52 0.10977200 0.00000000 -0.28726700 0.00000000 -0.00034500 0.00008600
53 0.16162900 0.00000000 -0.73285800 0.00535700 -0.01527800 -0.00064500
54 0.23369300 0.00000000 -1.20202100 0.01894800 -0.00810400 -0.01026400
55 0.29815500 0.00000000 -1.64921900 0.00613400 -0.01143300 -0.01592000
56 0.35762800 0.00000000 -2.05929800 0.00081200 -0.00785200 -0.00898100
57 0.44882500 0.00000000 -2.50829100 0.00000000 0.00000000 0.00000000
58 0.51957100 0.00000000 -2.95263200 0.00000000 0.00000000 0.00000000
59 0.71644100 0.00000000 -3.47651900 0.00000000 0.00000000 0.00000000
60 1.65004000 -0.00968900 -0.00957000 0.00000000 1.26981400 0.00000000
61 -1.37670300 -0.00968900 -0.39805500 0.00000000 0.00000000 0.00000000
62 -1.35226400 -0.00968900 1.02067700 0.00000000 0.00000000 0.00000000
63 4.83606400 0.12488200 -2.91715800 0.33155700 1.08138300 1.51702700
64 4.61996700 -1.94256400 -4.07349000 3.13153600 0.60951700 -1.74975700
time 1
0 -0.00000100 7.45008900 -27.50902600 0.00000000 0.00000000 0.00003100
1 -0.00000200 0.00000000 0.00000000 1.57074300 -1.56713700 -1.57074300
2 4.25546800 -0.33518300 -0.00000200 0.00000000 0.00000000 -0.12484800
3 7.43124800 1.49647700 0.00000200 0.00000000 0.00000000 0.24545000
4 5.27847900 0.16554100 0.00000100 0.00000000 0.00000000 0.04851100
5 -3.10561600 -11.28978000 1.42271600 1.97586400 1.15990900 -1.29878600
6 -6.21448200 -0.00000700 -0.00002700 -2.24829079 -0.38571819 1.17893599
7 11.94488200 0.00000000 0.00000100 -0.28053553 -0.34774375 1.73789348
8 10.62018100 0.00000200 0.00000000 1.28434093 0.78895035 3.11739324
9 -4.75110600 -0.69449400 0.83057700 -0.07012300 -0.00054100 0.69116400
10 -1.68806800 0.00004600 -0.00003200 0.01731800 -0.01762500 0.66104700
11 -1.33614000 0.00005700 -0.00001200 0.02626800 0.00232700 0.46266200
12 -4.82049400 -0.50946000 -0.22475900 -0.30496400 -0.06094000 1.40487400
13 -1.82699200 -0.00006400 0.00000600 -0.00832800 0.03958800 1.06556400
14 -1.43657300 0.00000600 0.00000200 -0.06013400 -0.04938400 0.79162700
15 -3.99235500 -0.89118800 -1.82790900 -0.45253100 0.08799900 1.29457900
16 -1.40591800 -0.00002500 -0.00000300 0.00059000 -0.02949400 0.85590800
17 -1.17535800 0.00012800 -0.00002000 0.06441700 0.02146300 1.15302800
18 -4.52675100 -0.69057500 -1.12074400 -0.33008200 0.10310600 1.46474500
19 -1.74403800 0.00003300 -0.00000800 -0.01905300 -0.02261400 1.11317400
20 -1.36877100 0.00002500 0.00000200 0.03795400 0.03618700 0.70440900
21 -1.71880600 -1.28270500 0.93153400 1.74225800 0.53909000 0.79261800
22 -1.52345300 0.00003200 0.00003100 -0.04381600 -0.11443900 0.49037000
23 -1.59928500 0.00000400 0.00001600 -0.05494100 -0.06840200 0.44621300
24 5.51181500 0.00000800 -0.00000100 2.15399885 0.00049853 3.14126459
25 0.19684700 -0.00000100 0.00000300 2.79340695 -0.00053640 -3.14146323
26 -5.45789500 -12.66460000 -0.60873800 1.97586200 1.15990900 1.84280300
27 6.21448500 0.00000600 0.00002000 -0.61610062 0.12980745 -2.23961575
28 11.94488500 -0.00002900 -0.00019400 0.17191028 -0.35780096 -1.41934655
29 10.62016600 0.00000200 0.00001000 -1.91535294 -0.42191326 0.03774684
30 4.75115600 0.69437600 -0.83047300 0.27000200 -0.31838700 0.81033800
31 1.68806500 -0.00002600 0.00000200 0.01720700 -0.01778700 0.67036400
32 1.33615100 -0.00005100 -0.00000900 0.00904800 -0.03764700 0.13514500
33 4.82051300 0.50934000 0.22486500 0.23182200 -0.24475900 0.91537200
34 1.82699600 0.00006600 0.00000800 -0.01299500 0.03827200 0.94640800
35 1.43657700 -0.00001000 0.00000700 0.01170400 -0.00957600 -0.04572800
36 3.99235300 0.89108700 1.82799400 0.04076900 -0.25921600 0.55173200
37 1.40591800 0.00002100 -0.00000700 -0.00899200 -0.02807500 1.18372600
38 1.17536900 -0.00013100 0.00000200 0.03224600 0.11898500 0.22057100
39 4.52675600 0.69046000 1.12084200 0.12505500 -0.23595800 0.82170200
40 1.74404100 -0.00003100 -0.00000200 -0.02297300 -0.01864500 1.30081900
41 1.36876300 -0.00003100 -0.00001700 -0.00637400 0.15858000 -0.22582000
42 1.87485500 0.93508100 -0.99913000 1.82266900 0.41133500 0.52296500
43 1.52344900 -0.00003400 -0.00000300 -0.00806100 -0.03646600 0.60634800
44 1.59928100 -0.00000200 0.00000900 0.06220500 0.05569400 0.09724300
45 5.51180600 -0.00000200 0.00000600 -0.71654300 0.00000000 0.00000000
46 0.19685000 0.00000300 -0.00000200 -0.34822500 0.00001500 -0.00000200
47 0.00000000 0.00000000 0.00000000 0.00000000 0.00000000 -1.57079600
48 -2.98601100 12.59877100 -3.31969900 0.00000000 0.00000000 -3.14156200
49 2.74024368 24.34225055 2.34698350 -0.87728941 1.39113775 -2.15497506
50 0.02460800 -0.01874400 0.29607500 0.00000000 0.00000000 0.00000000
51 0.07231200 0.00000000 0.14418200 0.01488400 -0.01704200 0.01619000
52 0.10977200 0.00000000 -0.28726700 0.00000000 -0.00025900 0.00008600
53 0.16162900 0.00000000 -0.73285800 0.00440600 -0.01251600 -0.00054600
54 0.23369300 0.00000000 -1.20202100 0.01556700 -0.00666800 -0.00842600
55 0.29815500 0.00000000 -1.64921900 0.00506900 -0.00946300 -0.01314600
56 0.35762800 0.00000000 -2.05929800 0.00062800 -0.00647200 -0.00742600
57 0.44882500 0.00000000 -2.50829100 0.00000000 0.00000000 0.00000000
58 0.51957100 0.00000000 -2.95263200 0.00000000 0.00000000 0.00000000
59 0.71644100 0.00000000 -3.47651900 0.00000000 0.00000000 0.00000000
60 1.65004000 -0.00968900 -0.00957000 0.00000000 1.26981400 0.00000000
61 -1.37670300 -0.00968900 -0.39805500 0.00000000 0.00000000 0.00000000
62 -1.35226400 -0.00968900 1.02067700 0.00000000 0.00000000 0.00000000
63 4.83606400 0.12488200 -2.91715800 0.33155700 1.08138300 1.51702700
64 4.61996700 -1.94256400 -4.07349000 3.13153600 0.60951700 -1.74975700
time 2
0 -0.00000100 7.45008900 -27.50902600 0.00000000 0.00000000 0.00003100
1 -0.00000200 0.00000000 0.00000000 1.57074300 -1.56713700 -1.57074300
2 4.25546800 -0.33518300 -0.00000200 0.00000000 0.00000000 -0.12484800
3 7.43124800 1.49647700 0.00000200 0.00000000 0.00000000 0.24545000
4 5.27847900 0.16554100 0.00000100 0.00000000 0.00000000 0.04851100
5 -2.14805800 -11.06074200 1.38049900 1.97586400 1.15990900 -1.29878600
6 -6.21448200 -0.00000700 -0.00002700 -2.38190768 -0.41729320 1.22504565
7 11.94488200 0.00000000 0.00000100 -0.25683162 -0.34363087 1.66783113
8 10.62018100 0.00000200 0.00000000 1.07493595 0.93822352 2.81272088
9 -4.75110600 -0.69449400 0.83057700 -0.07012300 -0.00054100 0.69116400
10 -1.68806800 0.00004600 -0.00003200 0.01731800 -0.01762500 0.66104700
11 -1.33614000 0.00005700 -0.00001200 0.02626800 0.00232700 0.46266200
12 -4.82049400 -0.50946000 -0.22475900 -0.30496400 -0.06094000 1.40487400
13 -1.82699200 -0.00006400 0.00000600 -0.00832800 0.03958800 1.06556400
14 -1.43657300 0.00000600 0.00000200 -0.06013400 -0.04938400 0.79162700
15 -3.99235500 -0.89118800 -1.82790900 -0.45253100 0.08799900 1.29457900
16 -1.40591800 -0.00002500 -0.00000300 0.00059000 -0.02949400 0.85590800
17 -1.17535800 0.00012800 -0.00002000 0.06441700 0.02146300 1.15302800
18 -4.52675100 -0.69057500 -1.12074400 -0.33008200 0.10310600 1.46474500
19 -1.74403800 0.00003300 -0.00000800 -0.01905300 -0.02261400 1.11317400
20 -1.36877100 0.00002500 0.00000200 0.03795400 0.03618700 0.70440900
21 -1.71880600 -1.28270500 0.93153400 1.74225800 0.53909000 0.79261800
22 -1.52345300 0.00003200 0.00003100 -0.04381600 -0.11443900 0.49037000
23 -1.59928500 0.00000400 0.00001600 -0.05494100 -0.06840200 0.44621300
24 5.51181500 0.00000800 -0.00000100 2.15399885 0.00049853 3.14126459
25 0.19684700 -0.00000100 0.00000300 2.79340695 -0.00053640 -3.14146323
26 -4.20677400 -12.60001800 -0.82310600 1.97586200 1.15990900 1.84280300
27 6.21448500 0.00000600 0.00002000 -0.62755669 0.22725767 -2.16681905
28 11.94488500 -0.00002900 -0.00019400 0.19440381 -0.35835650 -1.48550314
29 10.62016600 0.00000200 0.00001000 -1.99316645 -0.34791183 0.23000029
30 4.75115600 0.69437600 -0.83047300 0.27000200 -0.31838700 0.81033800
31 1.68806500 -0.00002600 0.00000200 0.01720700 -0.01778700 0.67036400
32 1.33615100 -0.00005100 -0.00000900 0.00904800 -0.03764700 0.13514500
33 4.82051300 0.50934000 0.22486500 0.23182200 -0.24475900 0.91537200
34 1.82699600 0.00006600 0.00000800 -0.01299500 0.03827200 0.94640800
35 1.43657700 -0.00001000 0.00000700 0.01170400 -0.00957600 -0.04572800
36 3.99235300 0.89108700 1.82799400 0.04076900 -0.25921600 0.55173200
37 1.40591800 0.00002100 -0.00000700 -0.00899200 -0.02807500 1.18372600
38 1.17536900 -0.00013100 0.00000200 0.03224600 0.11898500 0.22057100
39 4.52675600 0.69046000 1.12084200 0.12505500 -0.23595800 0.82170200
40 1.74404100 -0.00003100 -0.00000200 -0.02297300 -0.01864500 1.30081900
41 1.36876300 -0.00003100 -0.00001700 -0.00637400 0.15858000 -0.22582000
42 1.87485500 0.93508100 -0.99913000 1.82266900 0.41133500 0.52296500
43 1.52344900 -0.00003400 -0.00000300 -0.00806100 -0.03646600 0.60634800
44 1.59928100 -0.00000200 0.00000900 0.06220500 0.05569400 0.09724300
45 5.51180600 -0.00000200 0.00000600 -0.74417700 0.00000000 0.00000000
46 0.19685000 0.00000300 -0.00000200 -0.34822500 0.00001500 -0.00000200
47 0.00000000 0.00000000 0.00000000 0.00000000 0.00000000 -1.57079600
48 -2.98601100 12.59877100 -3.31969900 0.00000000 0.00000000 -3.14156200
49 2.13484657 26.09186755 2.54115383 -0.69579901 1.15282451 -1.95026099
50 0.02460800 -0.01874400 0.29607500 0.00000000 0.00000000 0.00000000
51 0.07231200 0.00000000 0.14418200 0.01199700 -0.01371800 0.01295400
52 0.10977200 0.00000000 -0.28726700 0.00000000 -0.00017300 0.00000000
53 0.16162900 0.00000000 -0.73285800 0.00354100 -0.01010000 -0.00036300
54 0.23369300 0.00000000 -1.20202100 0.01253600 -0.00539600 -0.00676700
55 0.29815500 0.00000000 -1.64921900 0.00401100 -0.00757600 -0.01054700
56 0.35762800 0.00000000 -2.05929800 0.00053300 -0.00517800 -0.00595800
57 0.44882500 0.00000000 -2.50829100 0.00000000 0.00000000 0.00000000
58 0.51957100 0.00000000 -2.95263200 0.00000000 0.00000000 0.00000000
59 0.71644100 0.00000000 -3.47651900 0.00000000 0.00000000 0.00000000
60 1.65004000 -0.00968900 -0.00957000 0.00000000 1.26981400 0.00000000
61 -1.37670300 -0.00968900 -0.39805500 0.00000000 0.00000000 0.00000000
62 -1.35226400 -0.00968900 1.02067700 0.00000000 0.00000000 0.00000000
63 4.83606400 0.12488200 -2.91715800 0.33155700 1.08138300 1.51702700
64 4.61996700 -1.94256400 -4.07349000 3.13153600 0.60951700 -1.74975700
time 3
0 -0.00000100 7.45008900 -27.50902600 0.00000000 0.00000000 0.00003100
1 -0.00000200 0.00000000 0.00000000 1.57074300 -1.56713700 -1.57074300
2 4.25546800 -0.33518300 -0.00000200 0.00000000 0.00000000 -0.12484800
3 7.43124800 1.49647700 0.00000200 0.00000000 0.00000000 0.24545000
4 5.27847900 0.16554100 0.00000100 0.00000000 0.00000000 0.04851100
5 -0.83874900 -10.74757100 1.32277300 1.97586400 1.15990900 -1.29878600
6 -6.21448200 -0.00000700 -0.00002700 -2.54087226 -0.42367764 1.28518483
7 11.94488200 0.00000000 0.00000100 -0.22982040 -0.34319762 1.58871310
8 10.62018100 0.00000200 0.00000000 0.71893240 0.92841287 2.31807309
9 -4.75110600 -0.69449400 0.83057700 -0.07012300 -0.00054100 0.69116400
10 -1.68806800 0.00004600 -0.00003200 0.01731800 -0.01762500 0.66104700
11 -1.33614000 0.00005700 -0.00001200 0.02626800 0.00232700 0.46266200
12 -4.82049400 -0.50946000 -0.22475900 -0.30496400 -0.06094000 1.40487400
13 -1.82699200 -0.00006400 0.00000600 -0.00832800 0.03958800 1.06556400
14 -1.43657300 0.00000600 0.00000200 -0.06013400 -0.04938400 0.79162700
15 -3.99235500 -0.89118800 -1.82790900 -0.45253100 0.08799900 1.29457900
16 -1.40591800 -0.00002500 -0.00000300 0.00059000 -0.02949400 0.85590800
17 -1.17535800 0.00012800 -0.00002000 0.06441700 0.02146300 1.15302800
18 -4.52675100 -0.69057500 -1.12074400 -0.33008200 0.10310600 1.46474500
19 -1.74403800 0.00003300 -0.00000800 -0.01905300 -0.02261400 1.11317400
20 -1.36877100 0.00002500 0.00000200 0.03795400 0.03618700 0.70440900
21 -1.71880600 -1.28270500 0.93153400 1.74225800 0.53909000 0.79261800
22 -1.52345300 0.00003200 0.00003100 -0.04381600 -0.11443900 0.49037000
23 -1.59928500 0.00000400 0.00001600 -0.05494100 -0.06840200 0.44621300
24 5.51181500 0.00000800 -0.00000100 2.15399885 0.00049853 3.14126459
25 0.19684700 -0.00000100 0.00000300 2.79340695 -0.00053640 -3.14146323
26 -2.49605500 -12.51170700 -1.11622400 1.97586200 1.15990900 1.84280300
27 6.21448500 0.00000600 0.00002000 -0.61244832 0.34109496 -2.09600671
28 11.94488500 -0.00002900 -0.00019400 0.21281470 -0.36109483 -1.53944744
29 10.62016600 0.00000200 0.00001000 -2.10491785 -0.30740799 0.48247243
30 4.75115600 0.69437600 -0.83047300 0.27000200 -0.31838700 0.81033800
31 1.68806500 -0.00002600 0.00000200 0.01720700 -0.01778700 0.67036400
32 1.33615100 -0.00005100 -0.00000900 0.00904800 -0.03764700 0.13514500
33 4.82051300 0.50934000 0.22486500 0.23182200 -0.24475900 0.91537200
34 1.82699600 0.00006600 0.00000800 -0.01299500 0.03827200 0.94640800
35 1.43657700 -0.00001000 0.00000700 0.01170400 -0.00957600 -0.04572800
36 3.99235300 0.89108700 1.82799400 0.04076900 -0.25921600 0.55173200
37 1.40591800 0.00002100 -0.00000700 -0.00899200 -0.02807500 1.18372600
38 1.17536900 -0.00013100 0.00000200 0.03224600 0.11898500 0.22057100
39 4.52675600 0.69046000 1.12084200 0.12505500 -0.23595800 0.82170200
40 1.74404100 -0.00003100 -0.00000200 -0.02297300 -0.01864500 1.30081900
41 1.36876300 -0.00003100 -0.00001700 -0.00637400 0.15858000 -0.22582000
42 1.87485500 0.93508100 -0.99913000 1.82266900 0.41133500 0.52296500
43 1.52344900 -0.00003400 -0.00000300 -0.00806100 -0.03646600 0.60634800
44 1.59928100 -0.00000200 0.00000900 0.06220500 0.05569400 0.09724300
45 5.51180600 -0.00000200 0.00000600 -0.78493000 0.00000000 0.00000000
46 0.19685000 0.00000300 -0.00000200 -0.34822500 0.00001500 -0.00000200
47 0.00000000 0.00000000 0.00000000 0.00000000 0.00000000 -1.57079600
48 -2.98601100 12.59877100 -3.31969900 0.00000000 0.00000000 -3.14156200
49 1.39289209 28.16804855 2.70216353 -0.54754091 0.84241011 -1.79447840
50 0.02460800 -0.01874400 0.29607500 0.00000000 0.00000000 0.00000000
51 0.07231200 0.00000000 0.14418200 0.00935600 -0.01066600 0.01013700
52 0.10977200 0.00000000 -0.28726700 0.00000000 -0.00017300 0.00000000
53 0.16162900 0.00000000 -0.73285800 0.00276400 -0.00785500 -0.00027000
54 0.23369300 0.00000000 -1.20202100 0.00976600 -0.00420500 -0.00520000
55 0.29815500 0.00000000 -1.64921900 0.00313200 -0.00585700 -0.00821000
56 0.35762800 0.00000000 -2.05929800 0.00035500 -0.00405700 -0.00466200
57 0.44882500 0.00000000 -2.50829100 0.00000000 0.00000000 0.00000000
58 0.51957100 0.00000000 -2.95263200 0.00000000 0.00000000 0.00000000
59 0.71644100 0.00000000 -3.47651900 0.00000000 0.00000000 0.00000000
60 1.65004000 -0.00968900 -0.00957000 0.00000000 1.26981400 0.00000000
61 -1.37670300 -0.00968900 -0.39805500 0.00000000 0.00000000 0.00000000
62 -1.35226400 -0.00968900 1.02067700 0.00000000 0.00000000 0.00000000
63 4.83606400 0.12488200 -2.91715800 0.33155700 1.08138300 1.51702700
64 4.61996700 -1.94256400 -4.07349000 3.13153600 0.60951700 -1.74975700
time 4
0 -0.00000100 7.45008900 -27.50902600 0.00000000 0.00000000 0.00003100
1 -0.00000200 0.00000000 0.00000000 1.57074300 -1.56713700 -1.57074300
2 4.25546800 -0.33518300 -0.00000200 0.00000000 0.00000000 -0.12484800
3 7.43124800 1.49647700 0.00000200 0.00000000 0.00000000 0.24545000
4 5.27847900 0.16554100 0.00000100 0.00000000 0.00000000 0.04851100
5 0.58781200 -10.40635300 1.25988000 1.97586400 1.15990900 -1.29878600
6 -6.21448200 -0.00000700 -0.00002700 -2.68791077 -0.42753994 1.36607779
7 11.94488200 0.00000000 0.00000100 -0.21272438 -0.34456909 1.53894119
8 10.62018100 0.00000200 0.00000000 0.60817785 0.74383992 2.04603280
9 -4.75110600 -0.69449400 0.83057700 -0.07012300 -0.00054100 0.69116400
10 -1.68806800 0.00004600 -0.00003200 0.01731800 -0.01762500 0.66104700
11 -1.33614000 0.00005700 -0.00001200 0.02626800 0.00232700 0.46266200
12 -4.82049400 -0.50946000 -0.22475900 -0.30496400 -0.06094000 1.40487400
13 -1.82699200 -0.00006400 0.00000600 -0.00832800 0.03958800 1.06556400
14 -1.43657300 0.00000600 0.00000200 -0.06013400 -0.04938400 0.79162700
15 -3.99235500 -0.89118800 -1.82790900 -0.45253100 0.08799900 1.29457900
16 -1.40591800 -0.00002500 -0.00000300 0.00059000 -0.02949400 0.85590800
17 -1.17535800 0.00012800 -0.00002000 0.06441700 0.02146300 1.15302800
18 -4.52675100 -0.69057500 -1.12074400 -0.33008200 0.10310600 1.46474500
19 -1.74403800 0.00003300 -0.00000800 -0.01905300 -0.02261400 1.11317400
20 -1.36877100 0.00002500 0.00000200 0.03795400 0.03618700 0.70440900
21 -1.71880600 -1.28270500 0.93153400 1.74225800 0.53909000 0.79261800
22 -1.52345300 0.00003200 0.00003100 -0.04381600 -0.11443900 0.49037000
23 -1.59928500 0.00000400 0.00001600 -0.05494100 -0.06840200 0.44621300
24 5.51181500 0.00000800 -0.00000100 2.15399885 0.00049853 3.14126459
25 0.19684700 -0.00000100 0.00000300 2.79340695 -0.00053640 -3.14146323
26 -0.63213800 -12.41549000 -1.43559000 1.97586200 1.15990900 1.84280300
27 6.21448500 0.00000600 0.00002000 -0.54802217 0.46281238 -2.04077095
28 11.94488500 -0.00002900 -0.00019400 0.22274118 -0.36077045 -1.56843886
29 10.62016600 0.00000200 0.00001000 -2.31247646 -0.35023626 0.74879439
30 4.75115600 0.69437600 -0.83047300 0.27000200 -0.31838700 0.81033800
31 1.68806500 -0.00002600 0.00000200 0.01720700 -0.01778700 0.67036400
32 1.33615100 -0.00005100 -0.00000900 0.00904800 -0.03764700 0.13514500
33 4.82051300 0.50934000 0.22486500 0.23182200 -0.24475900 0.91537200
34 1.82699600 0.00006600 0.00000800 -0.01299500 0.03827200 0.94640800
35 1.43657700 -0.00001000 0.00000700 0.01170400 -0.00957600 -0.04572800
36 3.99235300 0.89108700 1.82799400 0.04076900 -0.25921600 0.55173200
37 1.40591800 0.00002100 -0.00000700 -0.00899200 -0.02807500 1.18372600
38 1.17536900 -0.00013100 0.00000200 0.03224600 0.11898500 0.22057100
39 4.52675600 0.69046000 1.12084200 0.12505500 -0.23595800 0.82170200
40 1.74404100 -0.00003100 -0.00000200 -0.02297300 -0.01864500 1.30081900
41 1.36876300 -0.00003100 -0.00001700 -0.00637400 0.15858000 -0.22582000
42 1.87485500 0.93508100 -0.99913000 1.82266900 0.41133500 0.52296500
43 1.52344900 -0.00003400 -0.00000300 -0.00806100 -0.03646600 0.60634800
44 1.59928100 -0.00000200 0.00000900 0.06220500 0.05569400 0.09724300
45 5.51180600 -0.00000200 0.00000600 -0.83461500 0.00000000 0.00000000
46 0.19685000 0.00000300 -0.00000200 -0.34822500 0.00001500 -0.00000200
47 0.00000000 0.00000000 0.00000000 0.00000000 0.00000000 -1.57079600
48 -2.98601100 12.59877100 -3.31969900 0.00000000 0.00000000 -3.14156200
49 0.69322458 29.98292955 2.45536895 -0.36444022 0.53064740 -1.65626472
50 0.02460800 -0.01874400 0.29607500 0.00000000 0.00000000 0.00000000
51 0.07231200 0.00000000 0.14418200 0.00696300 -0.00788200 0.00756900
52 0.10977200 0.00000000 -0.28726700 0.00000000 -0.00008600 0.00000000
53 0.16162900 0.00000000 -0.73285800 0.00198600 -0.00587000 -0.00017800
54 0.23369300 0.00000000 -1.20202100 0.00725700 -0.00309400 -0.00389600
55 0.29815500 0.00000000 -1.64921900 0.00234400 -0.00439500 -0.00613400
56 0.35762800 0.00000000 -2.05929800 0.00026400 -0.00302100 -0.00345300
57 0.44882500 0.00000000 -2.50829100 0.00000000 0.00000000 0.00000000
58 0.51957100 0.00000000 -2.95263200 0.00000000 0.00000000 0.00000000
59 0.71644100 0.00000000 -3.47651900 0.00000000 0.00000000 0.00000000
60 1.65004000 -0.00968900 -0.00957000 0.00000000 1.26981400 0.00000000
61 -1.37670300 -0.00968900 -0.39805500 0.00000000 0.00000000 0.00000000
62 -1.35226400 -0.00968900 1.02067700 0.00000000 0.00000000 0.00000000
63 4.83606400 0.12488200 -2.91715800 0.33155700 1.08138300 1.51702700
64 4.61996700 -1.94256400 -4.07349000 3.13153600 0.60951700 -1.74975700
time 5
0 -0.00000100 7.45008900 -27.50902600 0.00000000 0.00000000 0.00003100
1 -0.00000200 0.00000000 0.00000000 1.57074300 -1.56713700 -1.57074300
2 4.25546800 -0.33518300 -0.00000200 0.00000000 0.00000000 -0.12484800
3 7.43124800 1.49647700 0.00000200 0.00000000 0.00000000 0.24545000
4 5.27847900 0.16554100 0.00000100 0.00000000 0.00000000 0.04851100
5 1.89712400 -10.09318200 1.20215400 1.97586400 1.15990900 -1.29878600
6 -6.21448200 -0.00000700 -0.00002700 -2.81029540 -0.42999206 1.44126642
7 11.94488200 0.00000000 0.00000100 -0.19555910 -0.34583956 1.48871117
8 10.62018100 0.00000200 0.00000000 0.69034380 0.56903136 1.97130528
9 -4.75110600 -0.69449400 0.83057700 -0.07012300 -0.00054100 0.69116400
10 -1.68806800 0.00004600 -0.00003200 0.01731800 -0.01762500 0.66104700
11 -1.33614000 0.00005700 -0.00001200 0.02626800 0.00232700 0.46266200
12 -4.82049400 -0.50946000 -0.22475900 -0.30496400 -0.06094000 1.40487400
13 -1.82699200 -0.00006400 0.00000600 -0.00832800 0.03958800 1.06556400
14 -1.43657300 0.00000600 0.00000200 -0.06013400 -0.04938400 0.79162700
15 -3.99235500 -0.89118800 -1.82790900 -0.45253100 0.08799900 1.29457900
16 -1.40591800 -0.00002500 -0.00000300 0.00059000 -0.02949400 0.85590800
17 -1.17535800 0.00012800 -0.00002000 0.06441700 0.02146300 1.15302800
18 -4.52675100 -0.69057500 -1.12074400 -0.33008200 0.10310600 1.46474500
19 -1.74403800 0.00003300 -0.00000800 -0.01905300 -0.02261400 1.11317400
20 -1.36877100 0.00002500 0.00000200 0.03795400 0.03618700 0.70440900
21 -1.71880600 -1.28270500 0.93153400 1.74225800 0.53909000 0.79261800
22 -1.52345300 0.00003200 0.00003100 -0.04381600 -0.11443900 0.49037000
23 -1.59928500 0.00000400 0.00001600 -0.05494100 -0.06840200 0.44621300
24 5.51181500 0.00000800 -0.00000100 2.15399885 0.00049853 3.14126459
25 0.19684700 -0.00000100 0.00000300 2.79340695 -0.00053640 -3.14146323
26 1.07858200 -12.32718200 -1.72870700 1.97586200 1.15990900 1.84280300
27 6.21448500 0.00000600 0.00002000 -0.47739205 0.57297264 -2.00893427
28 11.94488500 -0.00002900 -0.00019400 0.21582499 -0.35642533 -1.54810546
29 10.62016600 0.00000200 0.00001000 -2.60351776 -0.38016463 0.95822356
30 4.75115600 0.69437600 -0.83047300 0.27000200 -0.31838700 0.81033800
31 1.68806500 -0.00002600 0.00000200 0.01720700 -0.01778700 0.67036400
32 1.33615100 -0.00005100 -0.00000900 0.00904800 -0.03764700 0.13514500
33 4.82051300 0.50934000 0.22486500 0.23182200 -0.24475900 0.91537200
34 1.82699600 0.00006600 0.00000800 -0.01299500 0.03827200 0.94640800
35 1.43657700 -0.00001000 0.00000700 0.01170400 -0.00957600 -0.04572800
36 3.99235300 0.89108700 1.82799400 0.04076900 -0.25921600 0.55173200
37 1.40591800 0.00002100 -0.00000700 -0.00899200 -0.02807500 1.18372600
38 1.17536900 -0.00013100 0.00000200 0.03224600 0.11898500 0.22057100
39 4.52675600 0.69046000 1.12084200 0.12505500 -0.23595800 0.82170200
40 1.74404100 -0.00003100 -0.00000200 -0.02297300 -0.01864500 1.30081900
41 1.36876300 -0.00003100 -0.00001700 -0.00637400 0.15858000 -0.22582000
42 1.87485500 0.93508100 -0.99913000 1.82266900 0.41133500 0.52296500
43 1.52344900 -0.00003400 -0.00000300 -0.00806100 -0.03646600 0.60634800
44 1.59928100 -0.00000200 0.00000900 0.06220500 0.05569400 0.09724300
45 5.51180600 -0.00000200 0.00000600 -0.88877100 0.00000000 0.00000000
46 0.19685000 0.00000300 -0.00000200 -0.34822500 0.00001500 -0.00000200
47 0.00000000 0.00000000 0.00000000 0.00000000 0.00000000 -1.57079600
48 -2.98601100 12.59877100 -3.31969900 0.00000000 0.00000000 -3.14156200
49 0.10120694 31.36420655 1.76867842 -0.17336130 0.25813806 -1.58346073
50 0.02460800 -0.01874400 0.29607500 0.00000000 0.00000000 0.00000000
51 0.07231200 0.00000000 0.14418200 0.00490600 -0.00553800 0.00533900
52 0.10977200 0.00000000 -0.28726700 0.00000000 -0.00008600 0.00000000
53 0.16162900 0.00000000 -0.73285800 0.00138200 -0.00414400 -0.00017600
54 0.23369300 0.00000000 -1.20202100 0.00509600 -0.00215100 -0.00276800
55 0.29815500 0.00000000 -1.64921900 0.00164700 -0.00310400 -0.00431900
56 0.35762800 0.00000000 -2.05929800 0.00017500 -0.00207200 -0.00241700
57 0.44882500 0.00000000 -2.50829100 0.00000000 0.00000000 0.00000000
58 0.51957100 0.00000000 -2.95263200 0.00000000 0.00000000 0.00000000
59 0.71644100 0.00000000 -3.47651900 0.00000000 0.00000000 0.00000000
60 1.65004000 -0.00968900 -0.00957000 0.00000000 1.26981400 0.00000000
61 -1.37670300 -0.00968900 -0.39805500 0.00000000 0.00000000 0.00000000
62 -1.35226400 -0.00968900 1.02067700 0.00000000 0.00000000 0.00000000
63 4.83606400 0.12488200 -2.91715800 0.33155700 1.08138300 1.51702700
64 4.61996700 -1.94256400 -4.07349000 3.13153600 0.60951700 -1.74975700
time 6
0 -0.00000100 7.45008900 -27.50902600 0.00000000 0.00000000 0.00003100
1 -0.00000200 0.00000000 0.00000000 1.57074300 -1.56713700 -1.57074300
2 4.25546800 -0.33518300 -0.00000200 0.00000000 0.00000000 -0.12484800
3 7.43124800 1.49647700 0.00000200 0.00000000 0.00000000 0.24545000
4 5.27847900 0.16554100 0.00000100 0.00000000 0.00000000 0.04851100
5 2.85467800 -9.86414400 1.15993700 1.97586400 1.15990900 -1.29878600
6 -6.21448200 -0.00000700 -0.00002700 -2.89458261 -0.42757154 1.48223102
7 11.94488200 0.00000000 0.00000100 -0.17523157 -0.34540817 1.42906578
8 10.62018100 0.00000200 0.00000000 0.78942194 0.46098456 1.96752915
9 -4.75110600 -0.69449400 0.83057700 -0.07012300 -0.00054100 0.69116400
10 -1.68806800 0.00004600 -0.00003200 0.01731800 -0.01762500 0.66104700
11 -1.33614000 0.00005700 -0.00001200 0.02626800 0.00232700 0.46266200
12 -4.82049400 -0.50946000 -0.22475900 -0.30496400 -0.06094000 1.40487400
13 -1.82699200 -0.00006400 0.00000600 -0.00832800 0.03958800 1.06556400
14 -1.43657300 0.00000600 0.00000200 -0.06013400 -0.04938400 0.79162700
15 -3.99235500 -0.89118800 -1.82790900 -0.45253100 0.08799900 1.29457900
16 -1.40591800 -0.00002500 -0.00000300 0.00059000 -0.02949400 0.85590800
17 -1.17535800 0.00012800 -0.00002000 0.06441700 0.02146300 1.15302800
18 -4.52675100 -0.69057500 -1.12074400 -0.33008200 0.10310600 1.46474500
19 -1.74403800 0.00003300 -0.00000800 -0.01905300 -0.02261400 1.11317400
20 -1.36877100 0.00002500 0.00000200 0.03795400 0.03618700 0.70440900
21 -1.71880600 -1.28270500 0.93153400 1.74225800 0.53909000 0.79261800
22 -1.52345300 0.00003200 0.00003100 -0.04381600 -0.11443900 0.49037000
23 -1.59928500 0.00000400 0.00001600 -0.05494100 -0.06840200 0.44621300
24 5.51181500 0.00000800 -0.00000100 2.15399885 0.00049853 3.14126459
25 0.19684700 -0.00000100 0.00000300 2.79340695 -0.00053640 -3.14146323
26 2.32970300 -12.26259900 -1.94307700 1.97586200 1.15990900 1.84280300
27 6.21448500 0.00000600 0.00002000 -0.44395175 0.65057550 -2.00122888
28 11.94488500 -0.00002900 -0.00019400 0.19960973 -0.35056679 -1.50069328
29 10.62016600 0.00000200 0.00001000 -2.83531494 -0.37029444 1.06493670
30 4.75115600 0.69437600 -0.83047300 0.27000200 -0.31838700 0.81033800
31 1.68806500 -0.00002600 0.00000200 0.01720700 -0.01778700 0.67036400
32 1.33615100 -0.00005100 -0.00000900 0.00904800 -0.03764700 0.13514500
33 4.82051300 0.50934000 0.22486500 0.23182200 -0.24475900 0.91537200
34 1.82699600 0.00006600 0.00000800 -0.01299500 0.03827200 0.94640800
35 1.43657700 -0.00001000 0.00000700 0.01170400 -0.00957600 -0.04572800
36 3.99235300 0.89108700 1.82799400 0.04076900 -0.25921600 0.55173200
37 1.40591800 0.00002100 -0.00000700 -0.00899200 -0.02807500 1.18372600
38 1.17536900 -0.00013100 0.00000200 0.03224600 0.11898500 0.22057100
39 4.52675600 0.69046000 1.12084200 0.12505500 -0.23595800 0.82170200
40 1.74404100 -0.00003100 -0.00000200 -0.02297300 -0.01864500 1.30081900
41 1.36876300 -0.00003100 -0.00001700 -0.00637400 0.15858000 -0.22582000
42 1.87485500 0.93508100 -0.99913000 1.82266900 0.41133500 0.52296500
43 1.52344900 -0.00003400 -0.00000300 -0.00806100 -0.03646600 0.60634800
44 1.59928100 -0.00000200 0.00000900 0.06220500 0.05569400 0.09724300
45 5.51180600 -0.00000200 0.00000600 -0.94286000 0.00000000 0.00000000
46 0.19685000 0.00000300 -0.00000200 -0.34822500 0.00001500 -0.00000200
47 0.00000000 0.00000000 0.00000000 0.00000000 0.00000000 -1.57079600
48 -2.98601100 12.59877100 -3.31969900 0.00000000 0.00000000 -3.14156200
49 -0.33816427 32.24328855 1.02099266 -0.02462382 0.07140264 -1.56046899
50 0.02460800 -0.01874400 0.29607500 0.00000000 0.00000000 0.00000000
51 0.07231200 0.00000000 0.14418200 0.00318800 -0.00363100 0.00344700
52 0.10977200 0.00000000 -0.28726700 0.00000000 0.00000000 0.00000000
53 0.16162900 0.00000000 -0.73285800 0.00095000 -0.00267600 -0.00008800
54 0.23369300 0.00000000 -1.20202100 0.00328200 -0.00137800 -0.00172900
55 0.29815500 0.00000000 -1.64921900 0.00103900 -0.00198400 -0.00276300
56 0.35762800 0.00000000 -2.05929800 0.00008700 -0.00138100 -0.00155400
57 0.44882500 0.00000000 -2.50829100 0.00000000 0.00000000 0.00000000
58 0.51957100 0.00000000 -2.95263200 0.00000000 0.00000000 0.00000000
59 0.71644100 0.00000000 -3.47651900 0.00000000 0.00000000 0.00000000
60 1.65004000 -0.00968900 -0.00957000 0.00000000 1.26981400 0.00000000
61 -1.37670300 -0.00968900 -0.39805500 0.00000000 0.00000000 0.00000000
62 -1.35226400 -0.00968900 1.02067700 0.00000000 0.00000000 0.00000000
63 4.83606400 0.12488200 -2.91715800 0.33155700 1.08138300 1.51702700
64 4.61996700 -1.94256400 -4.07349000 3.13153600 0.60951700 -1.74975700
time 7
0 -0.00000100 7.45008900 -27.50902600 0.00000000 0.00000000 0.00003100
1 -0.00000200 0.00000000 0.00000000 1.57074300 -1.56713700 -1.57074300
2 4.25546800 -0.33518300 -0.00000200 0.00000000 0.00000000 -0.12484800
3 7.43124800 1.49647700 0.00000200 0.00000000 0.00000000 0.24545000
4 5.27847900 0.16554100 0.00000100 0.00000000 0.00000000 0.04851100
5 3.22597600 -9.77533600 1.14356700 1.97586400 1.15990900 -1.29878600
6 -6.21448200 -0.00000700 -0.00002700 -2.92956024 -0.42812674 1.49277155
7 11.94488200 0.00000000 0.00000100 -0.16488729 -0.34470255 1.39838308
8 10.62018100 0.00000200 0.00000000 0.83035769 0.42828645 1.97624896
9 -4.75110600 -0.69449400 0.83057700 -0.07012300 -0.00054100 0.69116400
10 -1.68806800 0.00004600 -0.00003200 0.01731800 -0.01762500 0.66104700
11 -1.33614000 0.00005700 -0.00001200 0.02626800 0.00232700 0.46266200
12 -4.82049400 -0.50946000 -0.22475900 -0.30496400 -0.06094000 1.40487400
13 -1.82699200 -0.00006400 0.00000600 -0.00832800 0.03958800 1.06556400
14 -1.43657300 0.00000600 0.00000200 -0.06013400 -0.04938400 0.79162700
15 -3.99235500 -0.89118800 -1.82790900 -0.45253100 0.08799900 1.29457900
16 -1.40591800 -0.00002500 -0.00000300 0.00059000 -0.02949400 0.85590800
17 -1.17535800 0.00012800 -0.00002000 0.06441700 0.02146300 1.15302800
18 -4.52675100 -0.69057500 -1.12074400 -0.33008200 0.10310600 1.46474500
19 -1.74403800 0.00003300 -0.00000800 -0.01905300 -0.02261400 1.11317400
20 -1.36877100 0.00002500 0.00000200 0.03795400 0.03618700 0.70440900
21 -1.71880600 -1.28270500 0.93153400 1.74225800 0.53909000 0.79261800
22 -1.52345300 0.00003200 0.00003100 -0.04381600 -0.11443900 0.49037000
23 -1.59928500 0.00000400 0.00001600 -0.05494100 -0.06840200 0.44621300
24 5.51181500 0.00000800 -0.00000100 2.15399885 0.00049853 3.14126459
25 0.19684700 -0.00000100 0.00000300 2.79340695 -0.00053640 -3.14146323
26 2.81483400 -12.23755500 -2.02619900 1.97586200 1.15990900 1.84280300
27 6.21448500 0.00000600 0.00002000 -0.43388067 0.68340025 -1.99722844
28 11.94488500 -0.00002900 -0.00019400 0.19158759 -0.34757613 -1.47710951
29 10.62016600 0.00000200 0.00001000 -2.92751334 -0.36203031 1.08965755
30 4.75115600 0.69437600 -0.83047300 0.27000200 -0.31838700 0.81033800
31 1.68806500 -0.00002600 0.00000200 0.01720700 -0.01778700 0.67036400
32 1.33615100 -0.00005100 -0.00000900 0.00904800 -0.03764700 0.13514500
33 4.82051300 0.50934000 0.22486500 0.23182200 -0.24475900 0.91537200
34 1.82699600 0.00006600 0.00000800 -0.01299500 0.03827200 0.94640800
35 1.43657700 -0.00001000 0.00000700 0.01170400 -0.00957600 -0.04572800
36 3.99235300 0.89108700 1.82799400 0.04076900 -0.25921600 0.55173200
37 1.40591800 0.00002100 -0.00000700 -0.00899200 -0.02807500 1.18372600
38 1.17536900 -0.00013100 0.00000200 0.03224600 0.11898500 0.22057100
39 4.52675600 0.69046000 1.12084200 0.12505500 -0.23595800 0.82170200
40 1.74404100 -0.00003100 -0.00000200 -0.02297300 -0.01864500 1.30081900
41 1.36876300 -0.00003100 -0.00001700 -0.00637400 0.15858000 -0.22582000
42 1.87485500 0.93508100 -0.99913000 1.82266900 0.41133500 0.52296500
43 1.52344900 -0.00003400 -0.00000300 -0.00806100 -0.03646600 0.60634800
44 1.59928100 -0.00000200 0.00000900 0.06220500 0.05569400 0.09724300
45 5.51180600 -0.00000200 0.00000600 -0.99259700 0.00000000 0.00000000
46 0.19685000 0.00000300 -0.00000200 -0.34822500 0.00001500 -0.00000200
47 0.00000000 0.00000000 0.00000000 0.00000000 0.00000000 -1.57079600
48 -2.98601100 12.59877100 -3.31969900 0.00000000 0.00000000 -3.14156200
49 -0.56111220 32.55156155 0.62438902 0.03801122 0.00414436 -1.55657379
50 0.02460800 -0.01874400 0.29607500 0.00000000 0.00000000 0.00000000
51 0.07231200 0.00000000 0.14418200 0.00181100 -0.00207400 0.00198400
52 0.10977200 0.00000000 -0.28726700 0.00000000 0.00000000 0.00000000
53 0.16162900 0.00000000 -0.73285800 0.00051800 -0.00146800 -0.00000000
54 0.23369300 0.00000000 -1.20202100 0.00190000 -0.00077600 -0.00095000
55 0.29815500 0.00000000 -1.64921900 0.00060500 -0.00112200 -0.00155400
56 0.35762800 0.00000000 -2.05929800 0.00000000 -0.00077700 -0.00086300
57 0.44882500 0.00000000 -2.50829100 0.00000000 0.00000000 0.00000000
58 0.51957100 0.00000000 -2.95263200 0.00000000 0.00000000 0.00000000
59 0.71644100 0.00000000 -3.47651900 0.00000000 0.00000000 0.00000000
60 1.65004000 -0.00968900 -0.00957000 0.00000000 1.26981400 0.00000000
61 -1.37670300 -0.00968900 -0.39805500 0.00000000 0.00000000 0.00000000
62 -1.35226400 -0.00968900 1.02067700 0.00000000 0.00000000 0.00000000
63 4.83606400 0.12488200 -2.91715800 0.33155700 1.08138300 1.51702700
64 4.61996700 -1.94256400 -4.07349000 3.13153600 0.60951700 -1.74975700
time 8
0 -0.00000100 7.45008900 -27.50902600 0.00000000 0.00000000 0.00003100
1 -0.00000200 0.00000000 0.00000000 1.57074300 -1.56713700 -1.57074300
2 4.25546800 -0.33518300 -0.00000200 0.00000000 0.00000000 -0.12484800
3 7.43124800 1.49647700 0.00000200 0.00000000 0.00000000 0.24545000
4 5.27847900 0.16554100 0.00000100 0.00000000 0.00000000 0.04851100
5 3.22597600 -9.77533600 1.14356700 1.97586400 1.15990900 -1.29878600
6 -6.21448200 -0.00000700 -0.00002700 -2.93422622 -0.43124585 1.49229156
7 11.94488200 0.00000000 0.00000100 -0.16441844 -0.34458188 1.39711409
8 10.62018100 0.00000200 0.00000000 0.81879267 0.43028210 1.97455314
9 -4.75110600 -0.69449400 0.83057700 -0.07012300 -0.00054100 0.69116400
10 -1.68806800 0.00004600 -0.00003200 0.01731800 -0.01762500 0.66104700
11 -1.33614000 0.00005700 -0.00001200 0.02626800 0.00232700 0.46266200
12 -4.82049400 -0.50946000 -0.22475900 -0.30496400 -0.06094000 1.40487400
13 -1.82699200 -0.00006400 0.00000600 -0.00832800 0.03958800 1.06556400
14 -1.43657300 0.00000600 0.00000200 -0.06013400 -0.04938400 0.79162700
15 -3.99235500 -0.89118800 -1.82790900 -0.45253100 0.08799900 1.29457900
16 -1.40591800 -0.00002500 -0.00000300 0.00059000 -0.02949400 0.85590800
17 -1.17535800 0.00012800 -0.00002000 0.06441700 0.02146300 1.15302800
18 -4.52675100 -0.69057500 -1.12074400 -0.33008200 0.10310600 1.46474500
19 -1.74403800 0.00003300 -0.00000800 -0.01905300 -0.02261400 1.11317400
20 -1.36877100 0.00002500 0.00000200 0.03795400 0.03618700 0.70440900
21 -1.71880600 -1.28270500 0.93153400 1.74225800 0.53909000 0.79261800
22 -1.52345300 0.00003200 0.00003100 -0.04381600 -0.11443900 0.49037000
23 -1.59928500 0.00000400 0.00001600 -0.05494100 -0.06840200 0.44621300
24 5.51181500 0.00000800 -0.00000100 2.15399885 0.00049853 3.14126459
25 0.19684700 -0.00000100 0.00000300 2.79340695 -0.00053640 -3.14146323
26 2.81483400 -12.23755500 -2.02619900 1.97586200 1.15990900 1.84280300
27 6.21448500 0.00000600 0.00002000 -0.42966136 0.68770743 -1.99041653
28 11.94488500 -0.00002900 -0.00019400 0.19291111 -0.34772575 -1.48106845
29 10.62016600 0.00000200 0.00001000 -2.92215374 -0.36382539 1.08726135
30 4.75115600 0.69437600 -0.83047300 0.27000200 -0.31838700 0.81033800
31 1.68806500 -0.00002600 0.00000200 0.01720700 -0.01778700 0.67036400
32 1.33615100 -0.00005100 -0.00000900 0.00904800 -0.03764700 0.13514500
33 4.82051300 0.50934000 0.22486500 0.23182200 -0.24475900 0.91537200
34 1.82699600 0.00006600 0.00000800 -0.01299500 0.03827200 0.94640800
35 1.43657700 -0.00001000 0.00000700 0.01170400 -0.00957600 -0.04572800
36 3.99235300 0.89108700 1.82799400 0.04076900 -0.25921600 0.55173200
37 1.40591800 0.00002100 -0.00000700 -0.00899200 -0.02807500 1.18372600
38 1.17536900 -0.00013100 0.00000200 0.03224600 0.11898500 0.22057100
39 4.52675600 0.69046000 1.12084200 0.12505500 -0.23595800 0.82170200
40 1.74404100 -0.00003100 -0.00000200 -0.02297300 -0.01864500 1.30081900
41 1.36876300 -0.00003100 -0.00001700 -0.00637400 0.15858000 -0.22582000
42 1.87485500 0.93508100 -0.99913000 1.82266900 0.41133500 0.52296500
43 1.52344900 -0.00003400 -0.00000300 -0.00806100 -0.03646600 0.60634800
44 1.59928100 -0.00000200 0.00000900 0.06220500 0.05569400 0.09724300
45 5.51180600 -0.00000200 0.00000600 -1.03336900 0.00000000 0.00000000
46 0.19685000 0.00000300 -0.00000200 -0.34822500 0.00001500 -0.00000200
47 0.00000000 0.00000000 0.00000000 0.00000000 0.00000000 -1.57079600
48 -2.98601100 12.59877100 -3.31969900 0.00000000 0.00000000 -3.14156200
49 -0.60141906 32.55156155 0.54586091 0.03182529 0.00490159 -1.55444235
50 0.02460800 -0.01874400 0.29607500 0.00000000 0.00000000 0.00000000
51 0.07231200 0.00000000 0.14418200 0.00077700 -0.00086400 0.00086300
52 0.10977200 0.00000000 -0.28726700 0.00000000 0.00000000 0.00000000
53 0.16162900 0.00000000 -0.73285800 0.00017300 -0.00069100 -0.00000000
54 0.23369300 0.00000000 -1.20202100 0.00077700 -0.00034500 -0.00043200
55 0.29815500 0.00000000 -1.64921900 0.00025900 -0.00051800 -0.00069100
56 0.35762800 0.00000000 -2.05929800 0.00000000 -0.00034500 -0.00034500
57 0.44882500 0.00000000 -2.50829100 0.00000000 0.00000000 0.00000000
58 0.51957100 0.00000000 -2.95263200 0.00000000 0.00000000 0.00000000
59 0.71644100 0.00000000 -3.47651900 0.00000000 0.00000000 0.00000000
60 1.65004000 -0.00968900 -0.00957000 0.00000000 1.26981400 0.00000000
61 -1.37670300 -0.00968900 -0.39805500 0.00000000 0.00000000 0.00000000
62 -1.35226400 -0.00968900 1.02067700 0.00000000 0.00000000 0.00000000
63 4.83606400 0.12488200 -2.91715800 0.33155700 1.08138300 1.51702700
64 4.61996700 -1.94256400 -4.07349000 3.13153600 0.60951700 -1.74975700
time 9
0 -0.00000100 7.45008900 -27.50902600 0.00000000 0.00000000 0.00003100
1 -0.00000200 0.00000000 0.00000000 1.57074300 -1.56713700 -1.57074300
2 4.25546800 -0.33518300 -0.00000200 0.00000000 0.00000000 -0.12484800
3 7.43124800 1.49647700 0.00000200 0.00000000 0.00000000 0.24545000
4 5.27847900 0.16554100 0.00000100 0.00000000 0.00000000 0.04851100
5 3.22597600 -9.77533600 1.14356700 1.97586400 1.15990900 -1.29878600
6 -6.21448200 -0.00000700 -0.00002700 -2.93689354 -0.43354603 1.49443435
7 11.94488200 0.00000000 0.00000100 -0.16522529 -0.34478308 1.39951453
8 10.62018100 0.00000200 0.00000000 0.80776299 0.42563152 1.96739198
9 -4.75110600 -0.69449400 0.83057700 -0.07012300 -0.00054100 0.69116400
10 -1.68806800 0.00004600 -0.00003200 0.01731800 -0.01762500 0.66104700
11 -1.33614000 0.00005700 -0.00001200 0.02626800 0.00232700 0.46266200
12 -4.82049400 -0.50946000 -0.22475900 -0.30496400 -0.06094000 1.40487400
13 -1.82699200 -0.00006400 0.00000600 -0.00832800 0.03958800 1.06556400
14 -1.43657300 0.00000600 0.00000200 -0.06013400 -0.04938400 0.79162700
15 -3.99235500 -0.89118800 -1.82790900 -0.45253100 0.08799900 1.29457900
16 -1.40591800 -0.00002500 -0.00000300 0.00059000 -0.02949400 0.85590800
17 -1.17535800 0.00012800 -0.00002000 0.06441700 0.02146300 1.15302800
18 -4.52675100 -0.69057500 -1.12074400 -0.33008200 0.10310600 1.46474500
19 -1.74403800 0.00003300 -0.00000800 -0.01905300 -0.02261400 1.11317400
20 -1.36877100 0.00002500 0.00000200 0.03795400 0.03618700 0.70440900
21 -1.71880600 -1.28270500 0.93153400 1.74225800 0.53909000 0.79261800
22 -1.52345300 0.00003200 0.00003100 -0.04381600 -0.11443900 0.49037000
23 -1.59928500 0.00000400 0.00001600 -0.05494100 -0.06840200 0.44621300
24 5.51181500 0.00000800 -0.00000100 2.15399885 0.00049853 3.14126459
25 0.19684700 -0.00000100 0.00000300 2.79340695 -0.00053640 -3.14146323
26 2.81483400 -12.23755500 -2.02619900 1.97586200 1.15990900 1.84280300
27 6.21448500 0.00000600 0.00002000 -0.42703687 0.68973422 -1.98822172
28 11.94488500 -0.00002900 -0.00019400 0.19394071 -0.34804241 -1.48415316
29 10.62016600 0.00000200 0.00001000 -2.91417889 -0.36216301 1.09173315
30 4.75115600 0.69437600 -0.83047300 0.27000200 -0.31838700 0.81033800
31 1.68806500 -0.00002600 0.00000200 0.01720700 -0.01778700 0.67036400
32 1.33615100 -0.00005100 -0.00000900 0.00904800 -0.03764700 0.13514500
33 4.82051300 0.50934000 0.22486500 0.23182200 -0.24475900 0.91537200
34 1.82699600 0.00006600 0.00000800 -0.01299500 0.03827200 0.94640800
35 1.43657700 -0.00001000 0.00000700 0.01170400 -0.00957600 -0.04572800
36 3.99235300 0.89108700 1.82799400 0.04076900 -0.25921600 0.55173200
37 1.40591800 0.00002100 -0.00000700 -0.00899200 -0.02807500 1.18372600
38 1.17536900 -0.00013100 0.00000200 0.03224600 0.11898500 0.22057100
39 4.52675600 0.69046000 1.12084200 0.12505500 -0.23595800 0.82170200
40 1.74404100 -0.00003100 -0.00000200 -0.02297300 -0.01864500 1.30081900
41 1.36876300 -0.00003100 -0.00001700 -0.00637400 0.15858000 -0.22582000
42 1.87485500 0.93508100 -0.99913000 1.82266900 0.41133500 0.52296500
43 1.52344900 -0.00003400 -0.00000300 -0.00806100 -0.03646600 0.60634800
44 1.59928100 -0.00000200 0.00000900 0.06220500 0.05569400 0.09724300
45 5.51180600 -0.00000200 0.00000600 -1.06098100 0.00000000 0.00000000
46 0.19685000 0.00000300 -0.00000200 -0.34822500 0.00001500 -0.00000200
47 0.00000000 0.00000000 0.00000000 0.00000000 0.00000000 -1.57079600
48 -2.98601100 12.59877100 -3.31969900 0.00000000 0.00000000 -3.14156200
49 -0.57435736 32.55156155 0.48134545 0.02203858 0.00034574 -1.55361301
50 0.02460800 -0.01874400 0.29607500 0.00000000 0.00000000 0.00000000
51 0.07231200 0.00000000 0.14418200 0.00017300 -0.00017300 0.00017300
52 0.10977200 0.00000000 -0.28726700 0.00000000 0.00000000 0.00000000
53 0.16162900 0.00000000 -0.73285800 0.00000000 -0.00017300 0.00000000
54 0.23369300 0.00000000 -1.20202100 0.00017300 -0.00008600 -0.00008600
55 0.29815500 0.00000000 -1.64921900 0.00000000 -0.00008600 -0.00017300
56 0.35762800 0.00000000 -2.05929800 0.00000000 -0.00008600 -0.00008600
57 0.44882500 0.00000000 -2.50829100 0.00000000 0.00000000 0.00000000
58 0.51957100 0.00000000 -2.95263200 0.00000000 0.00000000 0.00000000
59 0.71644100 0.00000000 -3.47651900 0.00000000 0.00000000 0.00000000
60 1.65004000 -0.00968900 -0.00957000 0.00000000 1.26981400 0.00000000
61 -1.37670300 -0.00968900 -0.39805500 0.00000000 0.00000000 0.00000000
62 -1.35226400 -0.00968900 1.02067700 0.00000000 0.00000000 0.00000000
63 4.83606400 0.12488200 -2.91715800 0.33155700 1.08138300 1.51702700
64 4.61996700 -1.94256400 -4.07349000 3.13153600 0.60951700 -1.74975700
time 10
0 -0.00000100 7.45008900 -27.50902600 0.00000000 0.00000000 0.00003100
1 -0.00000200 0.00000000 0.00000000 1.57074300 -1.56713700 -1.57074300
2 4.25546800 -0.33518300 -0.00000200 0.00000000 0.00000000 -0.12484800
3 7.43124800 1.49647700 0.00000200 0.00000000 0.00000000 0.24545000
4 5.27847900 0.16554100 0.00000100 0.00000000 0.00000000 0.04851100
5 3.22597600 -9.77533600 1.14356700 1.97586400 1.15990900 -1.29878600
6 -6.21448200 -0.00000700 -0.00002700 -2.93699603 -0.43449634 1.49801120
7 11.94488200 0.00000000 0.00000100 -0.16709090 -0.34505285 1.40492270
8 10.62018100 0.00000200 0.00000000 0.81694764 0.41757775 1.96352567
9 -4.75110600 -0.69449400 0.83057700 -0.07012300 -0.00054100 0.69116400
10 -1.68806800 0.00004600 -0.00003200 0.01731800 -0.01762500 0.66104700
11 -1.33614000 0.00005700 -0.00001200 0.02626800 0.00232700 0.46266200
12 -4.82049400 -0.50946000 -0.22475900 -0.30496400 -0.06094000 1.40487400
13 -1.82699200 -0.00006400 0.00000600 -0.00832800 0.03958800 1.06556400
14 -1.43657300 0.00000600 0.00000200 -0.06013400 -0.04938400 0.79162700
15 -3.99235500 -0.89118800 -1.82790900 -0.45253100 0.08799900 1.29457900
16 -1.40591800 -0.00002500 -0.00000300 0.00059000 -0.02949400 0.85590800
17 -1.17535800 0.00012800 -0.00002000 0.06441700 0.02146300 1.15302800
18 -4.52675100 -0.69057500 -1.12074400 -0.33008200 0.10310600 1.46474500
19 -1.74403800 0.00003300 -0.00000800 -0.01905300 -0.02261400 1.11317400
20 -1.36877100 0.00002500 0.00000200 0.03795400 0.03618700 0.70440900
21 -1.71880600 -1.28270500 0.93153400 1.74225800 0.53909000 0.79261800
22 -1.52345300 0.00003200 0.00003100 -0.04381600 -0.11443900 0.49037000
23 -1.59928500 0.00000400 0.00001600 -0.05494100 -0.06840200 0.44621300
24 5.51181500 0.00000800 -0.00000100 2.15399885 0.00049853 3.14126459
25 0.19684700 -0.00000100 0.00000300 2.79340695 -0.00053640 -3.14146323
26 2.81483400 -12.23755500 -2.02619900 1.97586200 1.15990900 1.84280300
27 6.21448500 0.00000600 0.00002000 -0.42444692 0.69060946 -1.98988723
28 11.94488500 -0.00002900 -0.00019400 0.19467592 -0.34823500 -1.48619886
29 10.62016600 0.00000200 0.00001000 -2.92426665 -0.35852396 1.10463221
30 4.75115600 0.69437600 -0.83047300 0.27000200 -0.31838700 0.81033800
31 1.68806500 -0.00002600 0.00000200 0.01720700 -0.01778700 0.67036400
32 1.33615100 -0.00005100 -0.00000900 0.00904800 -0.03764700 0.13514500
33 4.82051300 0.50934000 0.22486500 0.23182200 -0.24475900 0.91537200
34 1.82699600 0.00006600 0.00000800 -0.01299500 0.03827200 0.94640800
35 1.43657700 -0.00001000 0.00000700 0.01170400 -0.00957600 -0.04572800
36 3.99235300 0.89108700 1.82799400 0.04076900 -0.25921600 0.55173200
37 1.40591800 0.00002100 -0.00000700 -0.00899200 -0.02807500 1.18372600
38 1.17536900 -0.00013100 0.00000200 0.03224600 0.11898500 0.22057100
39 4.52675600 0.69046000 1.12084200 0.12505500 -0.23595800 0.82170200
40 1.74404100 -0.00003100 -0.00000200 -0.02297300 -0.01864500 1.30081900
41 1.36876300 -0.00003100 -0.00001700 -0.00637400 0.15858000 -0.22582000
42 1.87485500 0.93508100 -0.99913000 1.82266900 0.41133500 0.52296500
43 1.52344900 -0.00003400 -0.00000300 -0.00806100 -0.03646600 0.60634800
44 1.59928100 -0.00000200 0.00000900 0.06220500 0.05569400 0.09724300
45 5.51180600 -0.00000200 0.00000600 -1.07120500 0.00000000 0.00000000
46 0.19685000 0.00000300 -0.00000200 -0.34822500 0.00001500 -0.00000200
47 0.00000000 0.00000000 0.00000000 0.00000000 0.00000000 -1.57079600
48 -2.98601100 12.59877100 -3.31969900 0.00000000 0.00000000 -3.14156200
49 -0.55305573 32.55155355 0.43361705 0.02712670 -0.00996043 -1.55341216
50 0.02460800 -0.01874400 0.29607500 0.00000000 0.00000000 0.00000000
51 0.07231200 0.00000000 0.14418200 0.00000000 0.00000000 0.00000000
52 0.10977200 0.00000000 -0.28726700 0.00000000 0.00000000 0.00000000
53 0.16162900 0.00000000 -0.73285800 0.00000000 0.00000000 0.00000000
54 0.23369300 0.00000000 -1.20202100 0.00000000 0.00000000 0.00000000
55 0.29815500 0.00000000 -1.64921900 0.00000000 0.00000000 0.00000000
56 0.35762800 0.00000000 -2.05929800 0.00000000 0.00000000 0.00000000
57 0.44882500 0.00000000 -2.50829100 0.00000000 0.00000000 0.00000000
58 0.51957100 0.00000000 -2.95263200 0.00000000 0.00000000 0.00000000
59 0.71644100 0.00000000 -3.47651900 0.00000000 0.00000000 0.00000000
60 1.65004000 -0.00968900 -0.00957000 0.00000000 1.26981400 0.00000000
61 -1.37670300 -0.00968900 -0.39805500 0.00000000 0.00000000 0.00000000
62 -1.35226400 -0.00968900 1.02067700 0.00000000 0.00000000 0.00000000
63 4.83606400 0.12488200 -2.91715800 0.33155700 1.08138300 1.51702700
64 4.61996700 -1.94256400 -4.07349000 3.13153600 0.60951700 -1.74975700
end
