version 1
nodes
0 "root" -1
1 "pelvis" 0
2 "spine_01" 1
3 "spine_02" 2
4 "spine_03" 3
5 "clavicle_r" 4
6 "upperarm_r" 5
7 "lowerarm_r" 6
8 "hand_r" 7
9 "index_01_r" 8
10 "index_02_r" 9
11 "index_03_r" 10
12 "middle_01_r" 8
13 "middle_02_r" 12
14 "middle_03_r" 13
15 "pinky_01_r" 8
16 "pinky_02_r" 15
17 "pinky_03_r" 16
18 "ring_01_r" 8
19 "ring_02_r" 18
20 "ring_03_r" 19
21 "thumb_01_r" 8
22 "thumb_02_r" 21
23 "thumb_03_r" 22
24 "lowerarm_twist_01_r" 7
25 "upperarm_twist_01_r" 6
26 "clavicle_l" 4
27 "upperarm_l" 26
28 "lowerarm_l" 27
29 "hand_l" 28
30 "index_01_l" 29
31 "index_02_l" 30
32 "index_03_l" 31
33 "middle_01_l" 29
34 "middle_02_l" 33
35 "middle_03_l" 34
36 "pinky_01_l" 29
37 "pinky_02_l" 36
38 "pinky_03_l" 37
39 "ring_01_l" 29
40 "ring_02_l" 39
41 "ring_03_l" 40
42 "thumb_01_l" 29
43 "thumb_02_l" 42
44 "thumb_03_l" 43
45 "lowerarm_twist_01_l" 28
46 "upperarm_twist_01_l" 27
47 "cam_driver" -1
48 "BaseRoot" -1
49 "Base" 48
50 "Clip" 49
51 "ClipHolder" 50
52 "Bullet" 49
53 "Bullet02" 49
54 "Bullet03" 49
55 "Bullet04" 49
56 "Bullet05" 49
57 "Trigger" 49
58 "Bolt" 49
59 "BoltRotate" 58
60 "BoltHammer" 58
61 "rhand_ikTarget" 49
62 "lhand_ikTarget" 49
63 "Bayonet" 49
64 "Grenade" -1
end
skeleton
time 0
0 -0.00000100 7.45008900 -27.50902600 0.00000000 0.00000000 0.00003100
1 -0.00000200 0.00000000 0.00000000 1.57074700 -1.56714200 -1.57074700
2 4.25546600 -0.33518300 -0.00000200 0.00000000 0.00000000 -0.12484800
3 7.43125000 1.49647900 0.00000200 0.00000000 0.00000000 0.24545000
4 5.27847900 0.16554400 0.00000100 0.00000000 0.00000000 0.04851100
5 2.28979908 -5.43087643 4.90745556 1.97586500 1.15990900 -1.29878600
6 -6.21447800 -0.00000900 -0.00002600 3.06601435 -0.38418229 1.54999824
7 11.94488500 0.00000000 0.00000000 -0.10788058 -0.22154322 1.28103843
8 10.62018800 0.00000000 0.00000000 0.84234056 0.18934445 2.91869079
9 -4.75110800 -0.69449800 0.83058000 -0.15418600 -0.29167200 0.37319500
10 -1.68806800 0.00004700 -0.00003100 0.02287100 -0.00946300 0.26249200
11 -1.33614000 0.00005500 -0.00001000 0.02592200 0.00450900 0.38004900
12 -4.82049400 -0.50946400 -0.22475900 -0.67850600 -0.12493700 1.39189400
13 -1.82698400 -0.00006900 0.00000800 -0.01519000 0.03755800 0.88963800
14 -1.43656900 0.00000400 0.00000300 -0.05788200 -0.05197400 0.74803500
15 -3.99235700 -0.89119100 -1.82790900 -0.78312200 0.47783100 1.73317100
16 -1.40591800 -0.00002500 -0.00000200 0.01158200 -0.02712100 0.47278000
17 -1.17535800 0.00012600 -0.00001900 0.02643300 0.06261000 0.30325800
18 -4.52675100 -0.69058000 -1.12074100 -0.76414900 0.22720200 1.67117900
19 -1.74403800 0.00003200 -0.00000800 -0.01149500 -0.02729000 0.80897100
20 -1.36877100 0.00002300 0.00000200 -0.22704800 0.07843600 0.24818000
21 -1.87479600 -0.93512500 0.99917500 1.79694600 0.72864500 1.01706100
22 -1.52344700 0.00003100 0.00003100 0.10575300 0.13820400 0.75781300
23 -1.59928500 0.00001100 0.00001500 0.02972300 -0.03090300 0.78512800
24 5.58312337 0.11572500 0.29499974 1.94756400 -0.06728900 3.12123600
25 0.19684600 -0.00000200 0.00000300 2.79340674 -0.00120847 -3.14130117
26 -0.42065400 -14.75184200 -3.44053500 1.97586200 1.15991000 1.84280300
27 6.21448600 0.00000800 0.00001900 -1.09137010 0.86573537 -2.07859036
28 11.94488800 -0.00003100 -0.00020000 -0.95405847 -0.38645083 -1.75371980
29 10.62016500 0.00000200 0.00000600 -1.55031270 -0.66309953 -0.05850041
30 4.75115800 0.69437400 -0.83047400 0.12842900 -0.44158200 0.41817400
31 1.68806500 -0.00002200 0.00000200 0.00068800 -0.02474600 1.41163600
32 1.33615100 -0.00005100 -0.00000900 0.00291500 -0.03857300 0.29474600
33 4.82051500 0.50933800 0.22486600 -0.14851600 -0.31147800 1.00052700
34 1.82699200 0.00006600 0.00001000 0.01090700 0.03895400 1.54771100
35 1.43658100 -0.00000600 0.00001000 0.01503200 0.00167500 -0.83651700
36 3.99235300 0.89108700 1.82799300 -0.45399300 -0.08851700 1.25458700
37 1.40592600 0.00003100 -0.00000300 -0.01421100 -0.02586600 1.37541000
38 1.17536200 -0.00013200 0.00000100 -0.07487300 0.09798600 -0.69969900
39 4.52675800 0.69046400 1.12084300 -0.34960800 -0.17836200 1.24133300
40 1.74404100 -0.00003100 -0.00000200 -0.02639200 -0.01328600 1.51729600
41 1.36876700 -0.00003100 -0.00001800 -0.12191500 0.10180800 -1.06387600
42 2.12628551 1.15633063 -0.76951051 1.84706400 0.52542000 0.27660500
43 1.57833426 -0.31926888 -0.04171426 -0.04202400 -0.07377300 0.12077200
44 1.59179263 -0.07172163 0.01248537 0.03799300 0.07429800 -0.27107500
45 5.51180600 -0.00000200 0.00000300 -0.99849200 0.00000000 0.00000000
46 0.19684900 0.00000300 -0.00000100 -0.34822500 0.00001500 -0.00000200
47 0.00000000 0.00000000 0.00000000 0.00000000 0.00000000 -1.57079600
48 -4.14904400 6.60503300 -4.12447000 0.00000000 0.00000000 -3.14156200
49 -7.88627750 24.51365388 -2.47312036 0.43861352 0.26159335 -0.78588617
50 44.49528500 2.91572800 -17.31057200 0.00000000 0.00000000 0.00000000
51 0.85166200 0.00000000 0.00000000 0.00000000 0.00000000 0.00000000
52 0.34715774 -0.00505751 -1.70929100 0.00000000 0.00000000 0.00000000
53 0.36657626 -0.00505900 0.90475374 0.00000000 0.00000000 0.00000000
54 0.34912239 -0.00505974 0.26595574 0.00000000 0.00000000 0.00000000
55 0.34946063 -0.00505751 -0.38449626 0.00000000 0.00000000 0.00000000
56 0.33780700 -0.00505788 -1.09133600 0.00000000 0.00000000 0.00000000
57 3.93872200 -0.00328400 -1.03767400 0.00000000 0.00000000 0.00000000
58 0.45171900 0.00102000 1.29854300 0.00000000 0.00000000 0.00000000
59 -0.52680000 0.00000000 0.00000000 0.00000000 0.00000000 0.00000000
60 0.62233900 0.00000000 0.00000000 0.00000000 0.00000000 0.00000000
61 11.82443707 1.48996037 -1.86723130 -0.20588600 1.09315300 1.34480400
62 -1.31456467 -2.67017424 -2.04237388 -3.02352800 1.09807700 -2.21761800
63 -28.30309300 -0.00157300 0.20016800 0.00000000 0.00000000 0.00000000
64 26.24400496 -39.30459132 2.08614628 0.11549463 0.15733600 1.99588077
time 1
0 -0.00000100 7.45008900 -27.50902600 0.00000000 0.00000000 0.00003100
1 -0.00000200 0.00000000 0.00000000 1.57074700 -1.56714200 -1.57074700
2 4.25546600 -0.33518300 -0.00000200 0.00000000 0.00000000 -0.12484800
3 7.43125000 1.49647900 0.00000200 0.00000000 0.00000000 0.24545000
4 5.27847900 0.16554400 0.00000100 0.00000000 0.00000000 0.04851100
5 2.28979908 -5.43087643 4.90745556 1.97586500 1.15990900 -1.29878600
6 -6.21447800 -0.00000900 -0.00002600 3.08428568 -0.37642314 1.54696994
7 11.94488500 0.00000000 0.00000000 -0.10743461 -0.20775745 1.28183287
8 10.62018800 0.00000000 0.00000000 0.86410864 0.18023414 2.91882062
9 -4.75110800 -0.69449800 0.83058000 -0.15418600 -0.29167200 0.37319500
10 -1.68806800 0.00004700 -0.00003100 0.02287100 -0.00946300 0.26249200
11 -1.33614000 0.00005500 -0.00001000 0.02592200 0.00450900 0.38004900
12 -4.82049400 -0.50946400 -0.22475900 -0.67850600 -0.12493700 1.39189400
13 -1.82698400 -0.00006900 0.00000800 -0.01519000 0.03755800 0.88963800
14 -1.43656900 0.00000400 0.00000300 -0.05788200 -0.05197400 0.74803500
15 -3.99235700 -0.89119100 -1.82790900 -0.78312200 0.47783100 1.73317100
16 -1.40591800 -0.00002500 -0.00000200 0.01158200 -0.02712100 0.47278000
17 -1.17535800 0.00012600 -0.00001900 0.02643300 0.06261000 0.30325800
18 -4.52675100 -0.69058000 -1.12074100 -0.76414900 0.22720200 1.67117900
19 -1.74403800 0.00003200 -0.00000800 -0.01149500 -0.02729000 0.80897100
20 -1.36877100 0.00002300 0.00000200 -0.22704800 0.07843600 0.24818000
21 -1.87479600 -0.93512500 0.99917500 1.79694600 0.72864500 1.01706100
22 -1.52344700 0.00003100 0.00003100 0.10575300 0.13820400 0.75781300
23 -1.59928500 0.00001100 0.00001500 0.02972300 -0.03090300 0.78512800
24 5.58312337 0.11572500 0.29499974 1.94756400 -0.06728900 3.12123600
25 0.19684600 -0.00000200 0.00000300 2.79340674 -0.00120847 -3.14130117
26 -0.42065400 -14.75184200 -3.44053500 1.97586200 1.15991000 1.84280300
27 6.21448600 0.00000800 0.00001900 -1.08092890 0.86410548 -2.07121709
28 11.94488800 -0.00003100 -0.00020000 -0.95548782 -0.38894900 -1.75018204
29 10.62016500 0.00000200 0.00000600 -1.57164934 -0.65809261 -0.06658015
30 4.75115800 0.69437400 -0.83047400 0.12842900 -0.44158200 0.41817400
31 1.68806500 -0.00002200 0.00000200 0.00068800 -0.02474600 1.41163600
32 1.33615100 -0.00005100 -0.00000900 0.00291500 -0.03857300 0.29474600
33 4.82051500 0.50933800 0.22486600 -0.14851600 -0.31147800 1.00052700
34 1.82699200 0.00006600 0.00001000 0.01090700 0.03895400 1.54771100
35 1.43658100 -0.00000600 0.00001000 0.01503200 0.00167500 -0.83651700
36 3.99235300 0.89108700 1.82799300 -0.45399300 -0.08851700 1.25458700
37 1.40592600 0.00003100 -0.00000300 -0.01421100 -0.02586600 1.37541000
38 1.17536200 -0.00013200 0.00000100 -0.07487300 0.09798600 -0.69969900
39 4.52675800 0.69046400 1.12084300 -0.34960800 -0.17836200 1.24133300
40 1.74404100 -0.00003100 -0.00000200 -0.02639200 -0.01328600 1.51729600
41 1.36876700 -0.00003100 -0.00001800 -0.12191500 0.10180800 -1.06387600
42 2.12628551 1.15633063 -0.76951051 1.84706400 0.52542000 0.27660500
43 1.57833426 -0.31926888 -0.04171426 -0.04202400 -0.07377300 0.12077200
44 1.59179263 -0.07172163 0.01248537 0.03799300 0.07429800 -0.27107500
45 5.51180600 -0.00000200 0.00000300 -0.99849200 0.00000000 0.00000000
46 0.19684900 0.00000300 -0.00000100 -0.34822500 0.00001500 -0.00000200
47 0.00000000 0.00000000 0.00000000 0.00000000 0.00000000 -1.57079600
48 -4.14904400 6.60503300 -4.12447000 0.00000000 0.00000000 -3.14156200
49 -7.95348515 24.51378130 -2.43472747 0.46029834 0.25546950 -0.78283095
50 44.49528500 2.91572800 -17.31057200 0.00000000 0.00000000 0.00000000
51 0.85166200 0.00000000 0.00000000 0.00000000 0.00000000 0.00000000
52 0.34715774 -0.00505751 -1.70929100 0.00000000 0.00000000 0.00000000
53 0.36657626 -0.00505900 0.90475374 0.00000000 0.00000000 0.00000000
54 0.34912239 -0.00505974 0.26595574 0.00000000 0.00000000 0.00000000
55 0.34946063 -0.00505751 -0.38449626 0.00000000 0.00000000 0.00000000
56 0.33780700 -0.00505788 -1.09133600 0.00000000 0.00000000 0.00000000
57 3.93872200 -0.00328400 -1.03767400 0.00000000 0.00000000 0.00000000
58 0.45171900 0.00102000 1.29854300 0.00000000 0.00000000 0.00000000
59 -0.52680000 0.00000000 0.00000000 0.00000000 0.00000000 0.00000000
60 0.62233900 0.00000000 0.00000000 0.00000000 0.00000000 0.00000000
61 11.82443414 1.48995978 -1.86723189 -0.20588600 1.09315300 1.34480400
62 -1.31456429 -2.67017461 -2.04237426 -3.02352800 1.09807700 -2.21761800
63 -28.30309300 -0.00157300 0.20016800 0.00000000 0.00000000 0.00000000
64 26.58169679 -39.24060671 1.49472844 0.13677128 0.14258251 2.00669069
time 2
0 -0.00000100 7.45008900 -27.50902600 0.00000000 0.00000000 0.00003100
1 -0.00000200 0.00000000 0.00000000 1.57074700 -1.56714200 -1.57074700
2 4.25546600 -0.33518300 -0.00000200 0.00000000 0.00000000 -0.12484800
3 7.43125000 1.49647900 0.00000200 0.00000000 0.00000000 0.24545000
4 5.27847900 0.16554400 0.00000100 0.00000000 0.00000000 0.04851100
5 2.28979908 -5.43087643 4.90745556 1.97586500 1.15990900 -1.29878600
6 -6.21447800 -0.00000900 -0.00002600 3.10942485 -0.36518428 1.53381263
7 11.94488500 0.00000000 0.00000000 -0.10381688 -0.19454388 1.27410178
8 10.62018800 0.00000000 0.00000000 0.89373502 0.16317287 2.92310521
9 -4.75110800 -0.69449800 0.83058000 -0.15418600 -0.29167200 0.37319500
10 -1.68806800 0.00004700 -0.00003100 0.02287100 -0.00946300 0.26249200
11 -1.33614000 0.00005500 -0.00001000 0.02592200 0.00450900 0.38004900
12 -4.82049400 -0.50946400 -0.22475900 -0.67850600 -0.12493700 1.39189400
13 -1.82698400 -0.00006900 0.00000800 -0.01519000 0.03755800 0.88963800
14 -1.43656900 0.00000400 0.00000300 -0.05788200 -0.05197400 0.74803500
15 -3.99235700 -0.89119100 -1.82790900 -0.78312200 0.47783100 1.73317100
16 -1.40591800 -0.00002500 -0.00000200 0.01158200 -0.02712100 0.47278000
17 -1.17535800 0.00012600 -0.00001900 0.02643300 0.06261000 0.30325800
18 -4.52675100 -0.69058000 -1.12074100 -0.76414900 0.22720200 1.67117900
19 -1.74403800 0.00003200 -0.00000800 -0.01149500 -0.02729000 0.80897100
20 -1.36877100 0.00002300 0.00000200 -0.22704800 0.07843600 0.24818000
21 -1.87479600 -0.93512500 0.99917500 1.79694600 0.72864500 1.01706100
22 -1.52344700 0.00003100 0.00003100 0.10575300 0.13820400 0.75781300
23 -1.59928500 0.00001100 0.00001500 0.02972300 -0.03090300 0.78512800
24 5.58312337 0.11572500 0.29499974 1.94756400 -0.06728900 3.12123600
25 0.19684600 -0.00000200 0.00000300 2.79340674 -0.00120847 -3.14130117
26 -0.42065400 -14.75184200 -3.44053500 1.97586200 1.15991000 1.84280300
27 6.21448600 0.00000800 0.00001900 -1.06374832 0.85853302 -2.05224764
28 11.94488800 -0.00003100 -0.00020000 -0.95598517 -0.39141997 -1.74917834
29 10.62016500 0.00000200 0.00000600 -1.60332334 -0.65796775 -0.07268297
30 4.75115800 0.69437400 -0.83047400 0.12842900 -0.44158200 0.41817400
31 1.68806500 -0.00002200 0.00000200 0.00068800 -0.02474600 1.41163600
32 1.33615100 -0.00005100 -0.00000900 0.00291500 -0.03857300 0.29474600
33 4.82051500 0.50933800 0.22486600 -0.14851600 -0.31147800 1.00052700
34 1.82699200 0.00006600 0.00001000 0.01090700 0.03895400 1.54771100
35 1.43658100 -0.00000600 0.00001000 0.01503200 0.00167500 -0.83651700
36 3.99235300 0.89108700 1.82799300 -0.45399300 -0.08851700 1.25458700
37 1.40592600 0.00003100 -0.00000300 -0.01421100 -0.02586600 1.37541000
38 1.17536200 -0.00013200 0.00000100 -0.07487300 0.09798600 -0.69969900
39 4.52675800 0.69046400 1.12084300 -0.34960800 -0.17836200 1.24133300
40 1.74404100 -0.00003100 -0.00000200 -0.02639200 -0.01328600 1.51729600
41 1.36876700 -0.00003100 -0.00001800 -0.12191500 0.10180800 -1.06387600
42 2.12628551 1.15633063 -0.76951051 1.84706400 0.52542000 0.27660500
43 1.57833426 -0.31926888 -0.04171426 -0.04202400 -0.07377300 0.12077200
44 1.59179263 -0.07172163 0.01248537 0.03799300 0.07429800 -0.27107500
45 5.51180600 -0.00000200 0.00000300 -0.99849200 0.00000000 0.00000000
46 0.19684900 0.00000300 -0.00000100 -0.34822500 0.00001500 -0.00000200
47 0.00000000 0.00000000 0.00000000 0.00000000 0.00000000 -1.57079600
48 -4.14904400 6.60503300 -4.12447000 0.00000000 0.00000000 -3.14156200
49 -8.14753442 24.51411146 -2.33090596 0.48866275 0.24671601 -0.77443942
50 44.49528500 2.91572800 -17.31057200 0.00000000 0.00000000 0.00000000
51 0.85166200 0.00000000 0.00000000 0.00000000 0.00000000 0.00000000
52 0.34715774 -0.00505751 -1.70929100 0.00000000 0.00000000 0.00000000
53 0.36657626 -0.00505900 0.90475374 0.00000000 0.00000000 0.00000000
54 0.34912239 -0.00505974 0.26595574 0.00000000 0.00000000 0.00000000
55 0.34946063 -0.00505751 -0.38449626 0.00000000 0.00000000 0.00000000
56 0.33780700 -0.00505788 -1.09133600 0.00000000 0.00000000 0.00000000
57 3.93872200 -0.00328400 -1.03767400 0.00000000 0.00000000 0.00000000
58 0.45171900 0.00102000 1.29854300 0.00000000 0.00000000 0.00000000
59 -0.52680000 0.00000000 0.00000000 0.00000000 0.00000000 0.00000000
60 0.62233900 0.00000000 0.00000000 0.00000000 0.00000000 0.00000000
61 11.82443472 1.48996037 -1.86723013 -0.20588600 1.09315300 1.34480400
62 -1.31456355 -2.67017648 -2.04237537 -3.02352800 1.09807700 -2.21761800
63 -28.30309300 -0.00157300 0.20016800 0.00000000 0.00000000 0.00000000
64 27.17263523 -39.14575610 0.96363163 0.16400460 0.12951489 2.02163077
time 3
0 -0.00000100 7.45008900 -27.50902600 0.00000000 0.00000000 0.00003100
1 -0.00000200 0.00000000 0.00000000 1.57074700 -1.56714200 -1.57074700
2 4.25546600 -0.33518300 -0.00000200 0.00000000 0.00000000 -0.12484800
3 7.43125000 1.49647900 0.00000200 0.00000000 0.00000000 0.24545000
4 5.27847900 0.16554400 0.00000100 0.00000000 0.00000000 0.04851100
5 2.28979908 -5.43087643 4.90745556 1.97586500 1.15990900 -1.29878600
6 -6.21447800 -0.00000900 -0.00002600 3.12231470 -0.35652220 1.51280754
7 11.94488500 0.00000000 0.00000000 -0.09426756 -0.18959439 1.25360416
8 10.62018800 0.00000000 0.00000000 0.90073378 0.15346201 2.93377189
9 -4.75110800 -0.69449800 0.83058000 -0.15418600 -0.29167200 0.37319500
10 -1.68806800 0.00004700 -0.00003100 0.02287100 -0.00946300 0.26249200
11 -1.33614000 0.00005500 -0.00001000 0.02592200 0.00450900 0.38004900
12 -4.82049400 -0.50946400 -0.22475900 -0.67850600 -0.12493700 1.39189400
13 -1.82698400 -0.00006900 0.00000800 -0.01519000 0.03755800 0.88963800
14 -1.43656900 0.00000400 0.00000300 -0.05788200 -0.05197400 0.74803500
15 -3.99235700 -0.89119100 -1.82790900 -0.78312200 0.47783100 1.73317100
16 -1.40591800 -0.00002500 -0.00000200 0.01158200 -0.02712100 0.47278000
17 -1.17535800 0.00012600 -0.00001900 0.02643300 0.06261000 0.30325800
18 -4.52675100 -0.69058000 -1.12074100 -0.76414900 0.22720200 1.67117900
19 -1.74403800 0.00003200 -0.00000800 -0.01149500 -0.02729000 0.80897100
20 -1.36877100 0.00002300 0.00000200 -0.22704800 0.07843600 0.24818000
21 -1.87479600 -0.93512500 0.99917500 1.79694600 0.72864500 1.01706100
22 -1.52344700 0.00003100 0.00003100 0.10575300 0.13820400 0.75781300
23 -1.59928500 0.00001100 0.00001500 0.02972300 -0.03090300 0.78512800
24 5.58312337 0.11572500 0.29499974 1.94756400 -0.06728900 3.12123600
25 0.19684600 -0.00000200 0.00000300 2.79340674 -0.00120847 -3.14130117
26 -0.42065400 -14.75184200 -3.44053500 1.97586200 1.15991000 1.84280300
27 6.21448600 0.00000800 0.00001900 -1.04767887 0.85226360 -2.02244270
28 11.94488800 -0.00003100 -0.00020000 -0.95318993 -0.38843610 -1.75749714
29 10.62016500 0.00000200 0.00000600 -1.62186208 -0.67260082 -0.06581405
30 4.75115800 0.69437400 -0.83047400 0.12842900 -0.44158200 0.41817400
31 1.68806500 -0.00002200 0.00000200 0.00068800 -0.02474600 1.41163600
32 1.33615100 -0.00005100 -0.00000900 0.00291500 -0.03857300 0.29474600
33 4.82051500 0.50933800 0.22486600 -0.14851600 -0.31147800 1.00052700
34 1.82699200 0.00006600 0.00001000 0.01090700 0.03895400 1.54771100
35 1.43658100 -0.00000600 0.00001000 0.01503200 0.00167500 -0.83651700
36 3.99235300 0.89108700 1.82799300 -0.45399300 -0.08851700 1.25458700
37 1.40592600 0.00003100 -0.00000300 -0.01421100 -0.02586600 1.37541000
38 1.17536200 -0.00013200 0.00000100 -0.07487300 0.09798600 -0.69969900
39 4.52675800 0.69046400 1.12084300 -0.34960800 -0.17836200 1.24133300
40 1.74404100 -0.00003100 -0.00000200 -0.02639200 -0.01328600 1.51729600
41 1.36876700 -0.00003100 -0.00001800 -0.12191500 0.10180800 -1.06387600
42 2.12628551 1.15633063 -0.76951051 1.84706400 0.52542000 0.27660500
43 1.57833426 -0.31926888 -0.04171426 -0.04202400 -0.07377300 0.12077200
44 1.59179263 -0.07172163 0.01248537 0.03799300 0.07429800 -0.27107500
45 5.51180600 -0.00000200 0.00000300 -0.99849200 0.00000000 0.00000000
46 0.19684900 0.00000300 -0.00000100 -0.34822500 0.00001500 -0.00000200
47 0.00000000 0.00000000 0.00000000 0.00000000 0.00000000 -1.57079600
48 -4.14904400 6.60503300 -4.12447000 0.00000000 0.00000000 -3.14156200
49 -8.42154977 24.51457343 -2.22767341 0.49394253 0.24223902 -0.76248029
50 44.49528500 2.91572800 -17.31057200 0.00000000 0.00000000 0.00000000
51 0.85166200 0.00000000 0.00000000 0.00000000 0.00000000 0.00000000
52 0.34715774 -0.00505751 -1.70929100 0.00000000 0.00000000 0.00000000
53 0.36657626 -0.00505900 0.90475374 0.00000000 0.00000000 0.00000000
54 0.34912239 -0.00505974 0.26595574 0.00000000 0.00000000 0.00000000
55 0.34946063 -0.00505751 -0.38449626 0.00000000 0.00000000 0.00000000
56 0.33780700 -0.00505788 -1.09133600 0.00000000 0.00000000 0.00000000
57 3.93872200 -0.00328400 -1.03767400 0.00000000 0.00000000 0.00000000
58 0.45171900 0.00102000 1.29854300 0.00000000 0.00000000 0.00000000
59 -0.52680000 0.00000000 0.00000000 0.00000000 0.00000000 0.00000000
60 0.62233900 0.00000000 0.00000000 0.00000000 0.00000000 0.00000000
61 11.82443707 1.48996212 -1.86723248 -0.20588600 1.09315300 1.34480400
62 -1.31456355 -2.67018020 -2.04237612 -3.02352800 1.09807700 -2.21761800
63 -28.30309300 -0.00157300 0.20016800 0.00000000 0.00000000 0.00000000
64 27.78437694 -39.01624925 1.15193857 0.16918114 0.13505928 2.02975913
time 4
0 -0.00000100 7.45008900 -27.50902600 0.00000000 0.00000000 0.00003100
1 -0.00000200 0.00000000 0.00000000 1.57074700 -1.56714200 -1.57074700
2 4.25546600 -0.33518300 -0.00000200 0.00000000 0.00000000 -0.12484800
3 7.43125000 1.49647900 0.00000200 0.00000000 0.00000000 0.24545000
4 5.27847900 0.16554400 0.00000100 0.00000000 0.00000000 0.04851100
5 2.39024741 -5.23580924 4.83697329 1.97586500 1.15990900 -1.29878600
6 -6.21447800 -0.00000900 -0.00002600 -3.14011468 -0.34900760 1.48332213
7 11.94488500 0.00000000 0.00000000 -0.06986634 -0.17763504 1.20222529
8 10.62018800 0.00000000 0.00000000 0.91762299 0.14979362 2.96796647
9 -4.75110800 -0.69449800 0.83058000 -0.15418600 -0.29167200 0.37319500
10 -1.68806800 0.00004700 -0.00003100 0.02287100 -0.00946300 0.26249200
11 -1.33614000 0.00005500 -0.00001000 0.02592200 0.00450900 0.38004900
12 -4.82049400 -0.50946400 -0.22475900 -0.67850600 -0.12493700 1.39189400
13 -1.82698400 -0.00006900 0.00000800 -0.01519000 0.03755800 0.88963800
14 -1.43656900 0.00000400 0.00000300 -0.05788200 -0.05197400 0.74803500
15 -3.99235700 -0.89119100 -1.82790900 -0.78312200 0.47783100 1.73317100
16 -1.40591800 -0.00002500 -0.00000200 0.01158200 -0.02712100 0.47278000
17 -1.17535800 0.00012600 -0.00001900 0.02643300 0.06261000 0.30325800
18 -4.52675100 -0.69058000 -1.12074100 -0.76414900 0.22720200 1.67117900
19 -1.74403800 0.00003200 -0.00000800 -0.01149500 -0.02729000 0.80897100
20 -1.36877100 0.00002300 0.00000200 -0.22704800 0.07843600 0.24818000
21 -1.87479600 -0.93512500 0.99917500 1.79694600 0.72864500 1.01706100
22 -1.52344700 0.00003100 0.00003100 0.10575300 0.13820400 0.75781300
23 -1.59928500 0.00001100 0.00001500 0.02972300 -0.03090300 0.78512800
24 5.58312337 0.11572500 0.29499974 1.94756400 -0.06728900 3.12123600
25 0.19684600 -0.00000200 0.00000300 2.79340674 -0.00120847 -3.14130117
26 -0.42065400 -14.75184200 -3.44053500 1.97586200 1.15991000 1.84280300
27 6.21448600 0.00000800 0.00001900 -1.02656722 0.84760851 -1.98413064
28 11.94488800 -0.00003100 -0.00020000 -0.95014458 -0.38341531 -1.76670439
29 10.62016500 0.00000200 0.00000600 -1.64648565 -0.68888879 -0.05477342
30 4.75115800 0.69437400 -0.83047400 0.12842900 -0.44158200 0.41817400
31 1.68806500 -0.00002200 0.00000200 0.00068800 -0.02474600 1.41163600
32 1.33615100 -0.00005100 -0.00000900 0.00291500 -0.03857300 0.29474600
33 4.82051500 0.50933800 0.22486600 -0.14851600 -0.31147800 1.00052700
34 1.82699200 0.00006600 0.00001000 0.01090700 0.03895400 1.54771100
35 1.43658100 -0.00000600 0.00001000 0.01503200 0.00167500 -0.83651700
36 3.99235300 0.89108700 1.82799300 -0.45399300 -0.08851700 1.25458700
37 1.40592600 0.00003100 -0.00000300 -0.01421100 -0.02586600 1.37541000
38 1.17536200 -0.00013200 0.00000100 -0.07487300 0.09798600 -0.69969900
39 4.52675800 0.69046400 1.12084300 -0.34960800 -0.17836200 1.24133300
40 1.74404100 -0.00003100 -0.00000200 -0.02639200 -0.01328600 1.51729600
41 1.36876700 -0.00003100 -0.00001800 -0.12191500 0.10180800 -1.06387600
42 2.12628551 1.15633063 -0.76951051 1.84706400 0.52542000 0.27660500
43 1.57833426 -0.31926888 -0.04171426 -0.04202400 -0.07377300 0.12077200
44 1.59179263 -0.07172163 0.01248537 0.03799300 0.07429800 -0.27107500
45 5.51180600 -0.00000200 0.00000300 -0.99849200 0.00000000 0.00000000
46 0.19684900 0.00000300 -0.00000100 -0.34822500 0.00001500 -0.00000200
47 0.00000000 0.00000000 0.00000000 0.00000000 0.00000000 -1.57079600
48 -4.14904400 6.60503300 -4.12447000 0.00000000 0.00000000 -3.14156200
49 -8.73489550 24.51508813 -2.16227472 0.49593981 0.23738143 -0.75118326
50 44.49528500 2.91572800 -17.31057200 0.00000000 0.00000000 0.00000000
51 0.85166200 0.00000000 0.00000000 0.00000000 0.00000000 0.00000000
52 0.34715774 -0.00505751 -1.70929100 0.00000000 0.00000000 0.00000000
53 0.36657626 -0.00505900 0.90475374 0.00000000 0.00000000 0.00000000
54 0.34912239 -0.00505974 0.26595574 0.00000000 0.00000000 0.00000000
55 0.34946063 -0.00505751 -0.38449626 0.00000000 0.00000000 0.00000000
56 0.33780700 -0.00505788 -1.09133600 0.00000000 0.00000000 0.00000000
57 3.93872200 -0.00328400 -1.03767400 0.00000000 0.00000000 0.00000000
58 0.45171900 0.00102000 1.29854300 0.00000000 0.00000000 0.00000000
59 -0.52680000 0.00000000 0.00000000 0.00000000 0.00000000 0.00000000
60 0.62233900 0.00000000 0.00000000 0.00000000 0.00000000 0.00000000
61 11.82443472 1.48996329 -1.86722779 -0.20588600 1.09315300 1.34480400
62 -1.31456243 -2.67018504 -2.04237910 -3.02352800 1.09807700 -2.21761800
63 -28.30309300 -0.00157300 0.20016800 0.00000000 0.00000000 0.00000000
64 28.42609382 -38.94225088 1.45905115 0.17224506 0.14455005 2.03437365
time 5
0 -0.00000100 7.45008900 -27.50902600 0.00000000 0.00000000 0.00003100
1 -0.00000200 0.00000000 0.00000000 1.57074700 -1.56714200 -1.57074700
2 4.25546600 -0.33518300 -0.00000200 0.00000000 0.00000000 -0.12484800
3 7.43125000 1.49647900 0.00000200 0.00000000 0.00000000 0.24545000
4 5.27847900 0.16554400 0.00000100 0.00000000 0.00000000 0.04851100
5 2.65522871 -4.72212313 4.64977366 1.97586500 1.15990900 -1.29878600
6 -6.21447800 -0.00000900 -0.00002600 -3.10618114 -0.35524595 1.44248911
7 11.94488500 0.00000000 0.00000000 -0.04049296 -0.17420388 1.11095407
8 10.62018800 0.00000000 0.00000000 0.95446161 0.13839274 3.02766566
9 -4.75110800 -0.69449800 0.83058000 -0.15418600 -0.29167200 0.37319500
10 -1.68806800 0.00004700 -0.00003100 0.02287100 -0.00946300 0.26249200
11 -1.33614000 0.00005500 -0.00001000 0.02592200 0.00450900 0.38004900
12 -4.82049400 -0.50946400 -0.22475900 -0.67850600 -0.12493700 1.39189400
13 -1.82698400 -0.00006900 0.00000800 -0.01519000 0.03755800 0.88963800
14 -1.43656900 0.00000400 0.00000300 -0.05788200 -0.05197400 0.74803500
15 -3.99235700 -0.89119100 -1.82790900 -0.78312200 0.47783100 1.73317100
16 -1.40591800 -0.00002500 -0.00000200 0.01158200 -0.02712100 0.47278000
17 -1.17535800 0.00012600 -0.00001900 0.02643300 0.06261000 0.30325800
18 -4.52675100 -0.69058000 -1.12074100 -0.76414900 0.22720200 1.67117900
19 -1.74403800 0.00003200 -0.00000800 -0.01149500 -0.02729000 0.80897100
20 -1.36877100 0.00002300 0.00000200 -0.22704800 0.07843600 0.24818000
21 -1.87479600 -0.93512500 0.99917500 1.79694600 0.72864500 1.01706100
22 -1.52344700 0.00003100 0.00003100 0.10575300 0.13820400 0.75781300
23 -1.59928500 0.00001100 0.00001500 0.02972300 -0.03090300 0.78512800
24 5.58312337 0.11572500 0.29499974 1.94756400 -0.06728900 3.12123600
25 0.19684600 -0.00000200 0.00000300 2.79340674 -0.00120847 -3.14130117
26 -0.42065400 -14.75184200 -3.44053500 1.97586200 1.15991000 1.84280300
27 6.21448600 0.00000800 0.00001900 -0.99102286 0.84476342 -1.93285196
28 11.94488800 -0.00003100 -0.00020000 -0.94815643 -0.37431784 -1.77284471
29 10.62016500 0.00000200 0.00000600 -1.69216947 -0.70593043 -0.03759308
30 4.75115800 0.69437400 -0.83047400 0.12842900 -0.44158200 0.41817400
31 1.68806500 -0.00002200 0.00000200 0.00068800 -0.02474600 1.41163600
32 1.33615100 -0.00005100 -0.00000900 0.00291500 -0.03857300 0.29474600
33 4.82051500 0.50933800 0.22486600 -0.14851600 -0.31147800 1.00052700
34 1.82699200 0.00006600 0.00001000 0.01090700 0.03895400 1.54771100
35 1.43658100 -0.00000600 0.00001000 0.01503200 0.00167500 -0.83651700
36 3.99235300 0.89108700 1.82799300 -0.45399300 -0.08851700 1.25458700
37 1.40592600 0.00003100 -0.00000300 -0.01421100 -0.02586600 1.37541000
38 1.17536200 -0.00013200 0.00000100 -0.07487300 0.09798600 -0.69969900
39 4.52675800 0.69046400 1.12084300 -0.34960800 -0.17836200 1.24133300
40 1.74404100 -0.00003100 -0.00000200 -0.02639200 -0.01328600 1.51729600
41 1.36876700 -0.00003100 -0.00001800 -0.12191500 0.10180800 -1.06387600
42 2.12628551 1.15633063 -0.76951051 1.84706400 0.52542000 0.27660500
43 1.57833426 -0.31926888 -0.04171426 -0.04202400 -0.07377300 0.12077200
44 1.59179263 -0.07172163 0.01248537 0.03799300 0.07429800 -0.27107500
45 5.51180600 -0.00000200 0.00000300 -0.99849200 0.00000000 0.00000000
46 0.19684900 0.00000300 -0.00000100 -0.34822500 0.00001500 -0.00000200
47 0.00000000 0.00000000 0.00000000 0.00000000 0.00000000 -1.57079600
48 -4.14904400 6.60503300 -4.12447000 0.00000000 0.00000000 -3.14156200
49 -9.03190747 24.51558901 -2.16347088 0.49665031 0.22992611 -0.74947456
50 44.49528500 2.91572800 -17.31057200 0.00000000 0.00000000 0.00000000
51 0.85166200 0.00000000 0.00000000 0.00000000 0.00000000 0.00000000
52 0.34715774 -0.00505751 -1.70929100 0.00000000 0.00000000 0.00000000
53 0.36657626 -0.00505900 0.90475374 0.00000000 0.00000000 0.00000000
54 0.34912239 -0.00505974 0.26595574 0.00000000 0.00000000 0.00000000
55 0.34946063 -0.00505751 -0.38449626 0.00000000 0.00000000 0.00000000
56 0.33780700 -0.00505788 -1.09133600 0.00000000 0.00000000 0.00000000
57 3.93872200 -0.00328400 -1.03767400 0.00000000 0.00000000 0.00000000
58 0.45171900 0.00102000 1.29854300 0.00000000 0.00000000 0.00000000
59 -0.52680000 0.00000000 0.00000000 0.00000000 0.00000000 0.00000000
60 0.62233900 0.00000000 0.00000000 0.00000000 0.00000000 0.00000000
61 11.99565953 1.46112034 -1.76528982 -0.20588600 1.09315300 1.34480400
62 -1.31455983 -2.67019621 -2.04238319 -3.02352800 1.09807700 -2.21761800
63 -28.30309300 -0.00157300 0.20016800 0.00000000 0.00000000 0.00000000
64 28.89532778 -39.17008888 1.69607072 0.17637030 0.15197934 2.02898922
time 6
0 -0.00000100 7.45008900 -27.50902600 0.00000000 0.00000000 0.00003100
1 -0.00000200 0.00000000 0.00000000 1.57074700 -1.56714200 -1.57074700
2 4.25546600 -0.33518300 -0.00000200 0.00000000 0.00000000 -0.12484800
3 7.43125000 1.49647900 0.00000200 0.00000000 0.00000000 0.24545000
4 5.27847900 0.16554400 0.00000100 0.00000000 0.00000000 0.04851100
5 3.03019315 -3.99708814 4.38222892 1.97586500 1.15990900 -1.29878600
6 -6.21447800 -0.00000900 -0.00002600 -3.06229169 -0.37651366 1.40441028
7 11.94488500 0.00000000 0.00000000 -0.02321503 -0.18018782 1.02379590
8 10.62018800 0.00000000 0.00000000 1.00294527 0.11970087 3.06370053
9 -4.75110800 -0.69449800 0.83058000 -0.15418600 -0.29167200 0.37319500
10 -1.68806800 0.00004700 -0.00003100 0.02287100 -0.00946300 0.26249200
11 -1.33614000 0.00005500 -0.00001000 0.02592200 0.00450900 0.38004900
12 -4.82049400 -0.50946400 -0.22475900 -0.67850600 -0.12493700 1.39189400
13 -1.82698400 -0.00006900 0.00000800 -0.01519000 0.03755800 0.88963800
14 -1.43656900 0.00000400 0.00000300 -0.05788200 -0.05197400 0.74803500
15 -3.99235700 -0.89119100 -1.82790900 -0.78312200 0.47783100 1.73317100
16 -1.40591800 -0.00002500 -0.00000200 0.01158200 -0.02712100 0.47278000
17 -1.17535800 0.00012600 -0.00001900 0.02643300 0.06261000 0.30325800
18 -4.52675100 -0.69058000 -1.12074100 -0.76414900 0.22720200 1.67117900
19 -1.74403800 0.00003200 -0.00000800 -0.01149500 -0.02729000 0.80897100
20 -1.36877100 0.00002300 0.00000200 -0.22704800 0.07843600 0.24818000
21 -1.87479600 -0.93512500 0.99917500 1.79694600 0.72864500 1.01706100
22 -1.52344700 0.00003100 0.00003100 0.10575300 0.13820400 0.75781300
23 -1.59928500 0.00001100 0.00001500 0.02972300 -0.03090300 0.78512800
24 5.58312337 0.11572500 0.29499974 1.94756400 -0.06728900 3.12123600
25 0.19684600 -0.00000200 0.00000300 2.79340674 -0.00120847 -3.14130117
26 -0.42065400 -14.75184200 -3.44053500 1.97586200 1.15991000 1.84280300
27 6.21448600 0.00000800 0.00001900 -0.92427331 0.84310549 -1.86421046
28 11.94488800 -0.00003100 -0.00020000 -0.94918549 -0.35831197 -1.77015102
29 10.62016500 0.00000200 0.00000600 -1.78207921 -0.72442874 -0.00814799
30 4.75115800 0.69437400 -0.83047400 0.12842900 -0.44158200 0.41817400
31 1.68806500 -0.00002200 0.00000200 0.00068800 -0.02474600 1.41163600
32 1.33615100 -0.00005100 -0.00000900 0.00291500 -0.03857300 0.29474600
33 4.82051500 0.50933800 0.22486600 -0.14851600 -0.31147800 1.00052700
34 1.82699200 0.00006600 0.00001000 0.01090700 0.03895400 1.54771100
35 1.43658100 -0.00000600 0.00001000 0.01503200 0.00167500 -0.83651700
36 3.99235300 0.89108700 1.82799300 -0.45399300 -0.08851700 1.25458700
37 1.40592600 0.00003100 -0.00000300 -0.01421100 -0.02586600 1.37541000
38 1.17536200 -0.00013200 0.00000100 -0.07487300 0.09798600 -0.69969900
39 4.52675800 0.69046400 1.12084300 -0.34960800 -0.17836200 1.24133300
40 1.74404100 -0.00003100 -0.00000200 -0.02639200 -0.01328600 1.51729600
41 1.36876700 -0.00003100 -0.00001800 -0.12191500 0.10180800 -1.06387600
42 2.12628551 1.15633063 -0.76951051 1.84706400 0.52542000 0.27660500
43 1.57833426 -0.31926888 -0.04171426 -0.04202400 -0.07377300 0.12077200
44 1.59179263 -0.07172163 0.01248537 0.03799300 0.07429800 -0.27107500
45 5.51180600 -0.00000200 0.00000300 -0.99849200 0.00000000 0.00000000
46 0.19684900 0.00000300 -0.00000100 -0.34822500 0.00001500 -0.00000200
47 0.00000000 0.00000000 0.00000000 0.00000000 0.00000000 -1.57079600
48 -4.14904400 6.60503300 -4.12447000 0.00000000 0.00000000 -3.14156200
49 -9.17758899 24.51599441 -2.27891546 0.49484494 0.21556258 -0.77558624
50 44.49528500 2.91572800 -17.31057200 0.00000000 0.00000000 0.00000000
51 0.85166200 0.00000000 0.00000000 0.00000000 0.00000000 0.00000000
52 0.34715774 -0.00505751 -1.70929100 0.00000000 0.00000000 0.00000000
53 0.36657626 -0.00505900 0.90475374 0.00000000 0.00000000 0.00000000
54 0.34912239 -0.00505974 0.26595574 0.00000000 0.00000000 0.00000000
55 0.34946063 -0.00505751 -0.38449626 0.00000000 0.00000000 0.00000000
56 0.33780700 -0.00505788 -1.09133600 0.00000000 0.00000000 0.00000000
57 3.93872200 -0.00328400 -1.03767400 0.00000000 0.00000000 0.00000000
58 0.45171900 0.00102000 1.29854300 0.00000000 0.00000000 0.00000000
59 -0.52680000 0.00000000 0.00000000 0.00000000 0.00000000 0.00000000
60 0.62233900 0.00000000 0.00000000 0.00000000 0.00000000 0.00000000
61 12.20638365 1.42531789 -1.62644719 -0.20588600 1.09315300 1.34480400
62 -1.31455126 -2.67022823 -2.04238729 -3.02352800 1.09807700 -2.21761800
63 -28.30309300 -0.00157300 0.20016800 0.00000000 0.00000000 0.00000000
64 28.70475177 -40.19385276 1.62964172 0.18182039 0.14941359 1.99751596
time 7
0 -0.00000100 7.45008900 -27.50902600 0.00000000 0.00000000 0.00003100
1 -0.00000200 0.00000000 0.00000000 1.57074700 -1.56714200 -1.57074700
2 4.25546600 -0.33518300 -0.00000200 0.00000000 0.00000000 -0.12484800
3 7.43125000 1.49647900 0.00000200 0.00000000 0.00000000 0.24545000
4 5.27847900 0.16554400 0.00000100 0.00000000 0.00000000 0.04851100
5 3.46059578 -3.16797205 4.07070946 1.97586500 1.15990900 -1.29878600
6 -6.21447800 -0.00000900 -0.00002600 -3.01463477 -0.40113320 1.38474345
7 11.94488500 0.00000000 0.00000000 -0.01358908 -0.17720192 0.97581132
8 10.62018800 0.00000000 0.00000000 1.04619010 0.11392787 3.04618494
9 -4.75110800 -0.69449800 0.83058000 -0.15418600 -0.29167200 0.37319500
10 -1.68806800 0.00004700 -0.00003100 0.02287100 -0.00946300 0.26249200
11 -1.33614000 0.00005500 -0.00001000 0.02592200 0.00450900 0.38004900
12 -4.82049400 -0.50946400 -0.22475900 -0.67850600 -0.12493700 1.39189400
13 -1.82698400 -0.00006900 0.00000800 -0.01519000 0.03755800 0.88963800
14 -1.43656900 0.00000400 0.00000300 -0.05788200 -0.05197400 0.74803500
15 -3.99235700 -0.89119100 -1.82790900 -0.78312200 0.47783100 1.73317100
16 -1.40591800 -0.00002500 -0.00000200 0.01158200 -0.02712100 0.47278000
17 -1.17535800 0.00012600 -0.00001900 0.02643300 0.06261000 0.30325800
18 -4.52675100 -0.69058000 -1.12074100 -0.76414900 0.22720200 1.67117900
19 -1.74403800 0.00003200 -0.00000800 -0.01149500 -0.02729000 0.80897100
20 -1.36877100 0.00002300 0.00000200 -0.22704800 0.07843600 0.24818000
21 -1.87479600 -0.93512500 0.99917500 1.79694600 0.72864500 1.01706100
22 -1.52344700 0.00003100 0.00003100 0.10575300 0.13820400 0.75781300
23 -1.59928500 0.00001100 0.00001500 0.02972300 -0.03090300 0.78512800
24 5.58312337 0.11572500 0.29499974 1.94756400 -0.06728900 3.12123600
25 0.19684600 -0.00000200 0.00000300 2.79340674 -0.00120847 -3.14130117
26 -0.42065400 -14.75184200 -3.44053500 1.97586200 1.15991000 1.84280300
27 6.21448600 0.00000800 0.00001900 -0.83222506 0.83435214 -1.79152858
28 11.94488800 -0.00003100 -0.00020000 -0.95334865 -0.33507528 -1.75870461
29 10.62016500 0.00000200 0.00000600 -1.90752298 -0.74772150 0.04378276
30 4.75115800 0.69437400 -0.83047400 0.12842900 -0.44158200 0.41817400
31 1.68806500 -0.00002200 0.00000200 0.00068800 -0.02474600 1.41163600
32 1.33615100 -0.00005100 -0.00000900 0.00291500 -0.03857300 0.29474600
33 4.82051500 0.50933800 0.22486600 -0.14851600 -0.31147800 1.00052700
34 1.82699200 0.00006600 0.00001000 0.01090700 0.03895400 1.54771100
35 1.43658100 -0.00000600 0.00001000 0.01503200 0.00167500 -0.83651700
36 3.99235300 0.89108700 1.82799300 -0.45399300 -0.08851700 1.25458700
37 1.40592600 0.00003100 -0.00000300 -0.01421100 -0.02586600 1.37541000
38 1.17536200 -0.00013200 0.00000100 -0.07487300 0.09798600 -0.69969900
39 4.52675800 0.69046400 1.12084300 -0.34960800 -0.17836200 1.24133300
40 1.74404100 -0.00003100 -0.00000200 -0.02639200 -0.01328600 1.51729600
41 1.36876700 -0.00003100 -0.00001800 -0.12191500 0.10180800 -1.06387600
42 2.12628551 1.15633063 -0.76951051 1.84706400 0.52542000 0.27660500
43 1.57833426 -0.31926888 -0.04171426 -0.04202400 -0.07377300 0.12077200
44 1.59179263 -0.07172163 0.01248537 0.03799300 0.07429800 -0.27107500
45 5.51180600 -0.00000200 0.00000300 -0.99849200 0.00000000 0.00000000
46 0.19684900 0.00000300 -0.00000100 -0.34822500 0.00001500 -0.00000200
47 0.00000000 0.00000000 0.00000000 0.00000000 0.00000000 -1.57079600
48 -4.14904400 6.60503300 -4.12447000 0.00000000 0.00000000 -3.14156200
49 -9.04859354 24.51623418 -2.44549139 0.47773905 0.19541168 -0.83648047
50 44.49528500 2.91572800 -17.31057200 0.00000000 0.00000000 0.00000000
51 0.85166200 0.00000000 0.00000000 0.00000000 0.00000000 0.00000000
52 0.34715774 -0.00505751 -1.70929100 0.00000000 0.00000000 0.00000000
53 0.36657626 -0.00505900 0.90475374 0.00000000 0.00000000 0.00000000
54 0.34912239 -0.00505974 0.26595574 0.00000000 0.00000000 0.00000000
55 0.34946063 -0.00505751 -0.38449626 0.00000000 0.00000000 0.00000000
56 0.33780700 -0.00505788 -1.09133600 0.00000000 0.00000000 0.00000000
57 3.93872200 -0.00328400 -1.03767400 0.00000000 0.00000000 0.00000000
58 0.45171900 0.00102000 1.29854300 0.00000000 0.00000000 0.00000000
59 -0.52680000 0.00000000 0.00000000 0.00000000 0.00000000 0.00000000
60 0.62233900 0.00000000 0.00000000 0.00000000 0.00000000 0.00000000
61 12.38052832 1.39762636 -1.50256190 -0.20588600 1.09315300 1.34480400
62 -1.31452781 -2.67029003 -2.04238282 -3.02352800 1.09807700 -2.21761800
63 -28.30309300 -0.00157300 0.20016800 0.00000000 0.00000000 0.00000000
64 27.30302191 -42.00445511 1.34526879 0.17445914 0.13529970 1.93393499
time 8
0 -0.00000100 7.45008900 -27.50902600 0.00000000 0.00000000 0.00003100
1 -0.00000200 0.00000000 0.00000000 1.57074700 -1.56714200 -1.57074700
2 4.25546600 -0.33518300 -0.00000200 0.00000000 0.00000000 -0.12484800
3 7.43125000 1.49647900 0.00000200 0.00000000 0.00000000 0.24545000
4 5.27847900 0.16554400 0.00000100 0.00000000 0.00000000 0.04851100
5 3.89188789 -2.34204902 3.75158716 1.97586500 1.15990900 -1.29878600
6 -6.21447800 -0.00000900 -0.00002600 -2.96616375 -0.41693845 1.37307627
7 11.94488500 0.00000000 0.00000000 -0.00805864 -0.17347144 0.95436926
8 10.62018800 0.00000000 0.00000000 1.06734751 0.09328215 2.98735093
9 -4.75110800 -0.69449800 0.83058000 -0.15418600 -0.29167200 0.37319500
10 -1.68806800 0.00004700 -0.00003100 0.02287100 -0.00946300 0.26249200
11 -1.33614000 0.00005500 -0.00001000 0.02592200 0.00450900 0.38004900
12 -4.82049400 -0.50946400 -0.22475900 -0.67850600 -0.12493700 1.39189400
13 -1.82698400 -0.00006900 0.00000800 -0.01519000 0.03755800 0.88963800
14 -1.43656900 0.00000400 0.00000300 -0.05788200 -0.05197400 0.74803500
15 -3.99235700 -0.89119100 -1.82790900 -0.78312200 0.47783100 1.73317100
16 -1.40591800 -0.00002500 -0.00000200 0.01158200 -0.02712100 0.47278000
17 -1.17535800 0.00012600 -0.00001900 0.02643300 0.06261000 0.30325800
18 -4.52675100 -0.69058000 -1.12074100 -0.76414900 0.22720200 1.67117900
19 -1.74403800 0.00003200 -0.00000800 -0.01149500 -0.02729000 0.80897100
20 -1.36877100 0.00002300 0.00000200 -0.22704800 0.07843600 0.24818000
21 -1.87479600 -0.93512500 0.99917500 1.79694600 0.72864500 1.01706100
22 -1.52344700 0.00003100 0.00003100 0.10575300 0.13820400 0.75781300
23 -1.59928500 0.00001100 0.00001500 0.02972300 -0.03090300 0.78512800
24 5.58312274 0.11572500 0.29499974 1.94756400 -0.06728900 3.12123600
25 0.19684600 -0.00000200 0.00000300 2.79340674 -0.00120847 -3.14130117
26 -0.42065400 -14.75184200 -3.44053500 1.97586200 1.15991000 1.84280300
27 6.21448600 0.00000800 0.00001900 -0.75331127 0.82171973 -1.73834907
28 11.94488800 -0.00003100 -0.00020000 -0.95614825 -0.31179842 -1.75219304
29 10.62016500 0.00000200 0.00000600 -2.03862258 -0.78480309 0.12679458
30 4.75115800 0.69437400 -0.83047400 0.12842900 -0.44158200 0.41817400
31 1.68806500 -0.00002200 0.00000200 0.00068800 -0.02474600 1.41163600
32 1.33615100 -0.00005100 -0.00000900 0.00291500 -0.03857300 0.29474600
33 4.82051500 0.50933800 0.22486600 -0.14851600 -0.31147800 1.00052700
34 1.82699200 0.00006600 0.00001000 0.01090700 0.03895400 1.54771100
35 1.43658100 -0.00000600 0.00001000 0.01503200 0.00167500 -0.83651700
36 3.99235300 0.89108700 1.82799300 -0.45399300 -0.08851700 1.25458700
37 1.40592600 0.00003100 -0.00000300 -0.01421100 -0.02586600 1.37541000
38 1.17536200 -0.00013200 0.00000100 -0.07487300 0.09798600 -0.69969900
39 4.52675800 0.69046400 1.12084300 -0.34960800 -0.17836200 1.24133300
40 1.74404100 -0.00003100 -0.00000200 -0.02639200 -0.01328600 1.51729600
41 1.36876700 -0.00003100 -0.00001800 -0.12191500 0.10180800 -1.06387600
42 2.12628488 1.15633188 -0.76950863 1.84706400 0.52542000 0.27660500
43 1.57833300 -0.31926826 -0.04171426 -0.04202400 -0.07377300 0.12077200
44 1.59179012 -0.07172163 0.01248663 0.03799300 0.07429800 -0.27107500
45 5.51180600 -0.00000200 0.00000300 -0.99849200 0.00000000 0.00000000
46 0.19684900 0.00000300 -0.00000100 -0.34822500 0.00001500 -0.00000200
47 0.00000000 0.00000000 0.00000000 0.00000000 0.00000000 -1.57079600
48 -4.14904400 6.60503300 -4.12447000 0.00000000 0.00000000 -3.14156200
49 -8.79750426 24.51623493 -2.56358595 0.44006477 0.15681818 -0.90821161
50 44.49528500 2.91572800 -17.31057200 0.00000000 0.00000000 0.00000000
51 0.85166200 0.00000000 0.00000000 0.00000000 0.00000000 0.00000000
52 0.34715649 -0.00505751 -1.70929037 0.00000000 0.00000000 0.00000000
53 0.36657626 -0.00505900 0.90475437 0.00000000 0.00000000 0.00000000
54 0.34912114 -0.00505974 0.26595574 0.00000000 0.00000000 0.00000000
55 0.34946063 -0.00505751 -0.38449563 0.00000000 0.00000000 0.00000000
56 0.33780951 -0.00505788 -1.09133600 0.00000000 0.00000000 0.00000000
57 3.93872200 -0.00328400 -1.03767400 0.00000000 0.00000000 0.00000000
58 0.45171900 0.00102000 1.29854300 0.00000000 0.00000000 0.00000000
59 -0.52680000 0.00000000 0.00000000 0.00000000 0.00000000 0.00000000
60 0.62233900 0.00000000 0.00000000 0.00000000 0.00000000 0.00000000
61 12.38469980 1.38806864 -1.53478344 -0.20588600 1.09315300 1.34480400
62 -1.31450952 -2.67032554 -2.04237810 -3.02352800 1.09807700 -2.21761800
63 -28.30309300 -0.00157300 0.20016800 0.00000000 0.00000000 0.00000000
64 25.32084940 -43.83216515 0.40343472 0.14316648 0.09786786 1.86976596
time 9
0 -0.00000100 7.45008900 -27.50902600 0.00000000 0.00000000 0.00003100
1 -0.00000200 0.00000000 0.00000000 1.57074700 -1.56714200 -1.57074700
2 4.25546600 -0.33518300 -0.00000200 0.00000000 0.00000000 -0.12484800
3 7.43125000 1.49647900 0.00000200 0.00000000 0.00000000 0.24545000
4 5.27847900 0.16554400 0.00000100 0.00000000 0.00000000 0.04851100
5 4.26952338 -1.62658645 3.46123129 1.97586500 1.15990900 -1.29878600
6 -6.21447800 -0.00000900 -0.00002600 -2.92948910 -0.42176898 1.37053750
7 11.94488500 0.00000000 0.00000000 -0.00103846 -0.16046136 0.93953973
8 10.62018800 0.00000000 0.00000000 1.07421047 0.08799634 2.93205081
9 -4.75110800 -0.69449800 0.83058000 -0.15418600 -0.29167200 0.37319500
10 -1.68806800 0.00004700 -0.00003100 0.02287100 -0.00946300 0.26249200
11 -1.33614000 0.00005500 -0.00001000 0.02592200 0.00450900 0.38004900
12 -4.82049400 -0.50946400 -0.22475900 -0.67850600 -0.12493700 1.39189400
13 -1.82698400 -0.00006900 0.00000800 -0.01519000 0.03755800 0.88963800
14 -1.43656900 0.00000400 0.00000300 -0.05788200 -0.05197400 0.74803500
15 -3.99235700 -0.89119100 -1.82790900 -0.78312200 0.47783100 1.73317100
16 -1.40591800 -0.00002500 -0.00000200 0.01158200 -0.02712100 0.47278000
17 -1.17535800 0.00012600 -0.00001900 0.02643300 0.06261000 0.30325800
18 -4.52675100 -0.69058000 -1.12074100 -0.76414900 0.22720200 1.67117900
19 -1.74403800 0.00003200 -0.00000800 -0.01149500 -0.02729000 0.80897100
20 -1.36877100 0.00002300 0.00000200 -0.22704800 0.07843600 0.24818000
21 -1.87479600 -0.93512500 0.99917500 1.79694600 0.72864500 1.01706100
22 -1.52344700 0.00003100 0.00003100 0.10575300 0.13820400 0.75781300
23 -1.59928500 0.00001100 0.00001500 0.02972300 -0.03090300 0.78512800
24 5.58312274 0.11572500 0.29499974 1.94756400 -0.06728900 3.12123600
25 0.19684600 -0.00000200 0.00000300 2.79340674 -0.00120847 -3.14130117
26 -0.42065400 -14.75184200 -3.44053500 1.97586200 1.15991000 1.84280300
27 6.21448600 0.00000800 0.00001900 -0.69706668 0.80706223 -1.71287300
28 11.94488800 -0.00003100 -0.00020000 -0.96016832 -0.29299551 -1.74281387
29 10.62016500 0.00000200 0.00000600 -2.14555042 -0.80797519 0.20369406
30 4.75115800 0.69437400 -0.83047400 0.12842900 -0.44158200 0.41817400
31 1.68806500 -0.00002200 0.00000200 0.00068800 -0.02474600 1.41163600
32 1.33615100 -0.00005100 -0.00000900 0.00291500 -0.03857300 0.29474600
33 4.82051500 0.50933800 0.22486600 -0.14851600 -0.31147800 1.00052700
34 1.82699200 0.00006600 0.00001000 0.01090700 0.03895400 1.54771100
35 1.43658100 -0.00000600 0.00001000 0.01503200 0.00167500 -0.83651700
36 3.99235300 0.89108700 1.82799300 -0.45399300 -0.08851700 1.25458700
37 1.40592600 0.00003100 -0.00000300 -0.01421100 -0.02586600 1.37541000
38 1.17536200 -0.00013200 0.00000100 -0.07487300 0.09798600 -0.69969900
39 4.52675800 0.69046400 1.12084300 -0.34960800 -0.17836200 1.24133300
40 1.74404100 -0.00003100 -0.00000200 -0.02639200 -0.01328600 1.51729600
41 1.36876700 -0.00003100 -0.00001800 -0.12191500 0.10180800 -1.06387600
42 2.12628488 1.15633188 -0.76950863 1.84706400 0.52542000 0.27660500
43 1.57833300 -0.31926826 -0.04171426 -0.04202400 -0.07377300 0.12077200
44 1.59179012 -0.07172163 0.01248663 0.03799300 0.07429800 -0.27107500
45 5.51180600 -0.00000200 0.00000300 -0.99849200 0.00000000 0.00000000
46 0.19684900 0.00000300 -0.00000100 -0.34822500 0.00001500 -0.00000200
47 0.00000000 0.00000000 0.00000000 0.00000000 0.00000000 -1.57079600
48 -4.14904400 6.60503300 -4.12447000 0.00000000 0.00000000 -3.14156200
49 -8.42995759 24.51599515 -2.64001643 0.40427550 0.12386112 -0.97375436
50 44.49528500 2.91572800 -17.31057200 0.00000000 0.00000000 0.00000000
51 0.85166200 0.00000000 0.00000000 0.00000000 0.00000000 0.00000000
52 0.34715649 -0.00505751 -1.70929037 0.00000000 0.00000000 0.00000000
53 0.36657626 -0.00505900 0.90475437 0.00000000 0.00000000 0.00000000
54 0.34912114 -0.00505974 0.26595574 0.00000000 0.00000000 0.00000000
55 0.34946063 -0.00505751 -0.38449563 0.00000000 0.00000000 0.00000000
56 0.33780951 -0.00505788 -1.09133600 0.00000000 0.00000000 0.00000000
57 3.93872200 -0.00328400 -1.03767400 0.00000000 0.00000000 0.00000000
58 0.45171900 0.00102000 1.29854300 0.00000000 0.00000000 0.00000000
59 -0.52680000 0.00000000 0.00000000 0.00000000 0.00000000 0.00000000
60 0.62233900 0.00000000 0.00000000 0.00000000 0.00000000 0.00000000
61 12.32317173 1.39264972 -1.60372280 -0.20588600 1.09315300 1.34480400
62 -1.31450691 -2.67033597 -2.04237512 -3.02352800 1.09807700 -2.21761800
63 -28.30309300 -0.00157300 0.20016800 0.00000000 0.00000000 0.00000000
64 23.19266661 -45.17686752 -0.56267065 0.11091933 0.06084388 1.81345403
time 10
0 -0.00000100 7.45008900 -27.50902600 0.00000000 0.00000000 0.00003100
1 -0.00000200 0.00000000 0.00000000 1.57074700 -1.56714200 -1.57074700
2 4.25546600 -0.33518300 -0.00000200 0.00000000 0.00000000 -0.12484800
3 7.43125000 1.49647900 0.00000200 0.00000000 0.00000000 0.24545000
4 5.27847900 0.16554400 0.00000100 0.00000000 0.00000000 0.04851100
5 4.53895468 -1.12885402 3.23601337 1.97586500 1.15990900 -1.29878600
6 -6.21447800 -0.00000900 -0.00002600 -2.91724813 -0.42634296 1.38898354
7 11.94488500 0.00000000 0.00000000 0.00514880 -0.14159037 0.93618941
8 10.62018800 0.00000000 0.00000000 1.08334042 0.12241685 2.90782823
9 -4.75110800 -0.69449800 0.83058000 -0.15418600 -0.29167200 0.37319500
10 -1.68806800 0.00004700 -0.00003100 0.02287100 -0.00946300 0.26249200
11 -1.33614000 0.00005500 -0.00001000 0.02592200 0.00450900 0.38004900
12 -4.82049400 -0.50946400 -0.22475900 -0.67850600 -0.12493700 1.39189400
13 -1.82698400 -0.00006900 0.00000800 -0.01519000 0.03755800 0.88963800
14 -1.43656900 0.00000400 0.00000300 -0.05788200 -0.05197400 0.74803500
15 -3.99235700 -0.89119100 -1.82790900 -0.78312200 0.47783100 1.73317100
16 -1.40591800 -0.00002500 -0.00000200 0.01158200 -0.02712100 0.47278000
17 -1.17535800 0.00012600 -0.00001900 0.02643300 0.06261000 0.30325800
18 -4.52675100 -0.69058000 -1.12074100 -0.76414900 0.22720200 1.67117900
19 -1.74403800 0.00003200 -0.00000800 -0.01149500 -0.02729000 0.80897100
20 -1.36877100 0.00002300 0.00000200 -0.22704800 0.07843600 0.24818000
21 -1.87479600 -0.93512500 0.99917500 1.79694600 0.72864500 1.01706100
22 -1.52344700 0.00003100 0.00003100 0.10575300 0.13820400 0.75781300
23 -1.59928500 0.00001100 0.00001500 0.02972300 -0.03090300 0.78512800
24 5.58312274 0.11572500 0.29499974 1.94756400 -0.06728900 3.12123600
25 0.19684600 -0.00000200 0.00000300 2.79340674 -0.00120847 -3.14130117
26 -0.42065400 -14.75184200 -3.44053500 1.97586200 1.15991000 1.84280300
27 6.21448600 0.00000800 0.00001900 -0.65498563 0.78837392 -1.71982326
28 11.94488800 -0.00003100 -0.00020000 -0.97014116 -0.28312489 -1.71568629
29 10.62016500 0.00000200 0.00000600 -2.19836776 -0.79960648 0.21634263
30 4.75115800 0.69437400 -0.83047400 0.12842900 -0.44158200 0.41817400
31 1.68806500 -0.00002200 0.00000200 0.00068800 -0.02474600 1.41163600
32 1.33615100 -0.00005100 -0.00000900 0.00291500 -0.03857300 0.29474600
33 4.82051500 0.50933800 0.22486600 -0.14851600 -0.31147800 1.00052700
34 1.82699200 0.00006600 0.00001000 0.01090700 0.03895400 1.54771100
35 1.43658100 -0.00000600 0.00001000 0.01503200 0.00167500 -0.83651700
36 3.99235300 0.89108700 1.82799300 -0.45399300 -0.08851700 1.25458700
37 1.40592600 0.00003100 -0.00000300 -0.01421100 -0.02586600 1.37541000
38 1.17536200 -0.00013200 0.00000100 -0.07487300 0.09798600 -0.69969900
39 4.52675800 0.69046400 1.12084300 -0.34960800 -0.17836200 1.24133300
40 1.74404100 -0.00003100 -0.00000200 -0.02639200 -0.01328600 1.51729600
41 1.36876700 -0.00003100 -0.00001800 -0.12191500 0.10180800 -1.06387600
42 2.12628488 1.15633188 -0.76950863 1.84706400 0.52542000 0.27660500
43 1.57833300 -0.31926826 -0.04171426 -0.04202400 -0.07377300 0.12077200
44 1.59179012 -0.07172163 0.01248663 0.03799300 0.07429800 -0.27107500
45 5.51180600 -0.00000200 0.00000300 -0.99849200 0.00000000 0.00000000
46 0.19684900 0.00000300 -0.00000100 -0.34822500 0.00001500 -0.00000200
47 0.00000000 0.00000000 0.00000000 0.00000000 0.00000000 -1.57079600
48 -4.14904400 6.60503300 -4.12447000 0.00000000 0.00000000 -3.14156200
49 -7.85549593 24.51559093 -2.69331853 0.39464726 0.12202942 -1.02941631
50 44.49528500 2.91572800 -17.31057200 0.00000000 0.00000000 0.00000000
51 0.85166200 0.00000000 0.00000000 0.00000000 0.00000000 0.00000000
52 0.34715649 -0.00505751 -1.70929037 0.00000000 0.00000000 0.00000000
53 0.36657626 -0.00505900 0.90475437 0.00000000 0.00000000 0.00000000
54 0.34912114 -0.00505974 0.26595574 0.00000000 0.00000000 0.00000000
55 0.34946063 -0.00505751 -0.38449563 0.00000000 0.00000000 0.00000000
56 0.33780951 -0.00505788 -1.09133600 0.00000000 0.00000000 0.00000000
57 3.93872200 -0.00328400 -1.03767400 0.00000000 0.00000000 0.00000000
58 0.45171900 0.00102000 1.29854300 0.00000000 0.00000000 0.00000000
59 -0.52680000 0.00000000 0.00000000 0.00000000 0.00000000 0.00000000
60 0.62233900 0.00000000 0.00000000 0.00000000 0.00000000 0.00000000
61 12.26188800 1.41119433 -1.63188252 -0.20588600 1.09315300 1.34480400
62 -1.31449872 -2.67034528 -2.04237474 -3.02352800 1.09807700 -2.21761800
63 -28.30309300 -0.00157300 0.20016800 0.00000000 0.00000000 0.00000000
64 20.92745549 -45.95474634 -0.91076862 0.10487855 0.04551599 1.76063088
time 11
0 -0.00000100 7.45008900 -27.50902600 0.00000000 0.00000000 0.00003100
1 -0.00000200 0.00000000 0.00000000 1.57074700 -1.56714200 -1.57074700
2 4.25546600 -0.33518300 -0.00000200 0.00000000 0.00000000 -0.12484800
3 7.43125000 1.49647900 0.00000200 0.00000000 0.00000000 0.24545000
4 5.27847900 0.16554400 0.00000100 0.00000000 0.00000000 0.04851100
5 4.64563272 -0.95612510 3.11230639 1.97586500 1.15990900 -1.29878600
6 -6.21447800 -0.00000900 -0.00002600 -2.92901152 -0.43880449 1.42690643
7 11.94488500 0.00000000 0.00000000 -0.00208596 -0.13643811 0.98600128
8 10.62018800 0.00000000 0.00000000 1.07190131 0.16249463 2.85092529
9 -4.75110800 -0.69449800 0.83058000 -0.15418600 -0.29167200 0.37319500
10 -1.68806800 0.00004700 -0.00003100 0.02287100 -0.00946300 0.26249200
11 -1.33614000 0.00005500 -0.00001000 0.02592200 0.00450900 0.38004900
12 -4.82049400 -0.50946400 -0.22475900 -0.67850600 -0.12493700 1.39189400
13 -1.82698400 -0.00006900 0.00000800 -0.01519000 0.03755800 0.88963800
14 -1.43656900 0.00000400 0.00000300 -0.05788200 -0.05197400 0.74803500
15 -3.99235700 -0.89119100 -1.82790900 -0.78312200 0.47783100 1.73317100
16 -1.40591800 -0.00002500 -0.00000200 0.01158200 -0.02712100 0.47278000
17 -1.17535800 0.00012600 -0.00001900 0.02643300 0.06261000 0.30325800
18 -4.52675100 -0.69058000 -1.12074100 -0.76414900 0.22720200 1.67117900
19 -1.74403800 0.00003200 -0.00000800 -0.01149500 -0.02729000 0.80897100
20 -1.36877100 0.00002300 0.00000200 -0.22704800 0.07843600 0.24818000
21 -1.87479600 -0.93512500 0.99917500 1.79694600 0.72864500 1.01706100
22 -1.52344700 0.00003100 0.00003100 0.10575300 0.13820400 0.75781300
23 -1.59928500 0.00001100 0.00001500 0.02972300 -0.03090300 0.78512800
24 5.58312274 0.11572500 0.29499974 1.94756400 -0.06728900 3.12123600
25 0.19684600 -0.00000200 0.00000300 2.79340674 -0.00120847 -3.14130117
26 -0.42065400 -14.75184200 -3.44053500 1.97586200 1.15991000 1.84280300
27 6.21448600 0.00000800 0.00001900 -0.63156429 0.76788637 -1.74968624
28 11.94488800 -0.00003100 -0.00020000 -0.98233365 -0.27901421 -1.68154273
29 10.62016500 0.00000200 0.00000600 -2.22369620 -0.78417628 0.22165333
30 4.75115800 0.69437400 -0.83047400 0.12842900 -0.44158200 0.41817400
31 1.68806500 -0.00002200 0.00000200 0.00068800 -0.02474600 1.41163600
32 1.33615100 -0.00005100 -0.00000900 0.00291500 -0.03857300 0.29474600
33 4.82051500 0.50933800 0.22486600 -0.14851600 -0.31147800 1.00052700
34 1.82699200 0.00006600 0.00001000 0.01090700 0.03895400 1.54771100
35 1.43658100 -0.00000600 0.00001000 0.01503200 0.00167500 -0.83651700
36 3.99235300 0.89108700 1.82799300 -0.45399300 -0.08851700 1.25458700
37 1.40592600 0.00003100 -0.00000300 -0.01421100 -0.02586600 1.37541000
38 1.17536200 -0.00013200 0.00000100 -0.07487300 0.09798600 -0.69969900
39 4.52675800 0.69046400 1.12084300 -0.34960800 -0.17836200 1.24133300
40 1.74404100 -0.00003100 -0.00000200 -0.02639200 -0.01328600 1.51729600
41 1.36876700 -0.00003100 -0.00001800 -0.12191500 0.10180800 -1.06387600
42 2.12628488 1.15633188 -0.76950863 1.84706400 0.52542000 0.27660500
43 1.57833300 -0.31926826 -0.04171426 -0.04202400 -0.07377300 0.12077200
44 1.59179012 -0.07172163 0.01248663 0.03799300 0.07429800 -0.27107500
45 5.51180600 -0.00000200 0.00000300 -0.99849200 0.00000000 0.00000000
46 0.19684900 0.00000300 -0.00000100 -0.34822500 0.00001500 -0.00000200
47 0.00000000 0.00000000 0.00000000 0.00000000 0.00000000 -1.57079600
48 -4.14904400 6.60503300 -4.12447000 0.00000000 0.00000000 -3.14156200
49 -7.18860742 24.51508930 -2.68436086 0.38162775 0.12884917 -1.08583487
50 44.49528500 2.91572800 -17.31057200 0.00000000 0.00000000 0.00000000
51 0.85166200 0.00000000 0.00000000 0.00000000 0.00000000 0.00000000
52 0.34715649 -0.00505751 -1.70929037 0.00000000 0.00000000 0.00000000
53 0.36657626 -0.00505900 0.90475437 0.00000000 0.00000000 0.00000000
54 0.34912114 -0.00505974 0.26595574 0.00000000 0.00000000 0.00000000
55 0.34946063 -0.00505751 -0.38449563 0.00000000 0.00000000 0.00000000
56 0.33780951 -0.00505788 -1.09133600 0.00000000 0.00000000 0.00000000
57 3.93872200 -0.00328400 -1.03767400 0.00000000 0.00000000 0.00000000
58 0.45171900 0.00102000 1.29854300 0.00000000 0.00000000 0.00000000
59 -0.52680000 0.00000000 0.00000000 0.00000000 0.00000000 0.00000000
60 0.62233900 0.00000000 0.00000000 0.00000000 0.00000000 0.00000000
61 12.13253332 1.44456972 -1.69690353 -0.20588600 1.09315300 1.34480400
62 -1.31449947 -2.67034639 -2.04237437 -3.02352800 1.09807700 -2.21761800
63 -28.30309300 -0.00157300 0.20016800 0.00000000 0.00000000 0.00000000
64 18.53720766 -46.60027091 -1.05456077 0.09598840 0.03400683 1.70679539
time 12
0 -0.00000100 7.45008900 -27.50902600 0.00000000 0.00000000 0.00003100
1 -0.00000200 0.00000000 0.00000000 1.57074700 -1.56714200 -1.57074700
2 4.25546600 -0.33518300 -0.00000200 0.00000000 0.00000000 -0.12484800
3 7.43125000 1.49647900 0.00000200 0.00000000 0.00000000 0.24545000
4 5.27847900 0.16554400 0.00000100 0.00000000 0.00000000 0.04851100
5 4.61345506 -1.19406270 3.06644697 1.97586500 1.15990900 -1.29878600
6 -6.21447800 -0.00000900 -0.00002600 -2.97826280 -0.45074231 1.47734161
7 11.94488500 0.00000000 0.00000000 -0.02838931 -0.15269264 1.09470563
8 10.62018800 0.00000000 0.00000000 1.00976676 0.19492405 2.73658849
9 -4.75110800 -0.69449800 0.83058000 -0.15418600 -0.29167200 0.37319500
10 -1.68806800 0.00004700 -0.00003100 0.02287100 -0.00946300 0.26249200
11 -1.33614000 0.00005500 -0.00001000 0.02592200 0.00450900 0.38004900
12 -4.82049400 -0.50946400 -0.22475900 -0.67850600 -0.12493700 1.39189400
13 -1.82698400 -0.00006900 0.00000800 -0.01519000 0.03755800 0.88963800
14 -1.43656900 0.00000400 0.00000300 -0.05788200 -0.05197400 0.74803500
15 -3.99235700 -0.89119100 -1.82790900 -0.78312200 0.47783100 1.73317100
16 -1.40591800 -0.00002500 -0.00000200 0.01158200 -0.02712100 0.47278000
17 -1.17535800 0.00012600 -0.00001900 0.02643300 0.06261000 0.30325800
18 -4.52675100 -0.69058000 -1.12074100 -0.76414900 0.22720200 1.67117900
19 -1.74403800 0.00003200 -0.00000800 -0.01149500 -0.02729000 0.80897100
20 -1.36877100 0.00002300 0.00000200 -0.22704800 0.07843600 0.24818000
21 -1.87479600 -0.93512500 0.99917500 1.79694600 0.72864500 1.01706100
22 -1.52344700 0.00003100 0.00003100 0.10575300 0.13820400 0.75781300
23 -1.59928500 0.00001100 0.00001500 0.02972300 -0.03090300 0.78512800
24 5.58312274 0.11572500 0.29499974 1.94756400 -0.06728900 3.12123600
25 0.19684600 -0.00000200 0.00000300 2.79340674 -0.00120847 -3.14130117
26 -0.42065400 -14.75184200 -3.44053500 1.97586200 1.15991000 1.84280300
27 6.21448600 0.00000800 0.00001900 -0.64279067 0.74220994 -1.79670647
28 11.94488800 -0.00003100 -0.00020000 -0.99301486 -0.27872085 -1.65093859
29 10.62016500 0.00000200 0.00000600 -2.23084107 -0.77100655 0.26173816
30 4.75115800 0.69437400 -0.83047400 0.12842900 -0.44158200 0.41817400
31 1.68806500 -0.00002200 0.00000200 0.00068800 -0.02474600 1.41163600
32 1.33615100 -0.00005100 -0.00000900 0.00291500 -0.03857300 0.29474600
33 4.82051500 0.50933800 0.22486600 -0.14851600 -0.31147800 1.00052700
34 1.82699200 0.00006600 0.00001000 0.01090700 0.03895400 1.54771100
35 1.43658100 -0.00000600 0.00001000 0.01503200 0.00167500 -0.83651700
36 3.99235300 0.89108700 1.82799300 -0.45399300 -0.08851700 1.25458700
37 1.40592600 0.00003100 -0.00000300 -0.01421100 -0.02586600 1.37541000
38 1.17536200 -0.00013200 0.00000100 -0.07487300 0.09798600 -0.69969900
39 4.52675800 0.69046400 1.12084300 -0.34960800 -0.17836200 1.24133300
40 1.74404100 -0.00003100 -0.00000200 -0.02639200 -0.01328600 1.51729600
41 1.36876700 -0.00003100 -0.00001800 -0.12191500 0.10180800 -1.06387600
42 2.12628488 1.15633188 -0.76950863 1.84706400 0.52542000 0.27660500
43 1.57833300 -0.31926826 -0.04171426 -0.04202400 -0.07377300 0.12077200
44 1.59179012 -0.07172163 0.01248663 0.03799300 0.07429800 -0.27107500
45 5.51180600 -0.00000200 0.00000300 -0.99849200 0.00000000 0.00000000
46 0.19684900 0.00000300 -0.00000100 -0.34822500 0.00001500 -0.00000200
47 0.00000000 0.00000000 0.00000000 0.00000000 0.00000000 -1.57079600
48 -4.14904400 6.60503300 -4.12447000 0.00000000 0.00000000 -3.14156200
49 -6.61276657 24.51457460 -2.45948332 0.34932451 0.13793825 -1.14215108
50 44.49528500 2.91572800 -17.31057200 0.00000000 0.00000000 0.00000000
51 0.85166200 0.00000000 0.00000000 0.00000000 0.00000000 0.00000000
52 0.34715649 -0.00505751 -1.70929037 0.00000000 0.00000000 0.00000000
53 0.36657626 -0.00505900 0.90475437 0.00000000 0.00000000 0.00000000
54 0.34912114 -0.00505974 0.26595574 0.00000000 0.00000000 0.00000000
55 0.34946063 -0.00505751 -0.38449563 0.00000000 0.00000000 0.00000000
56 0.33780951 -0.00505788 -1.09133600 0.00000000 0.00000000 0.00000000
57 3.93872200 -0.00328400 -1.03767400 0.00000000 0.00000000 0.00000000
58 0.45171900 0.00102000 1.29854300 0.00000000 0.00000000 0.00000000
59 -0.52680000 0.00000000 0.00000000 0.00000000 0.00000000 0.00000000
60 0.62233900 0.00000000 0.00000000 0.00000000 0.00000000 0.00000000
61 11.97744598 1.47337869 -1.78345465 -0.20588600 1.09315300 1.34480400
62 -1.31449798 -2.67034788 -2.04237437 -3.02352800 1.09807700 -2.21761800
63 -28.30309300 -0.00157300 0.20016800 0.00000000 0.00000000 0.00000000
64 16.24584179 -47.18800788 -0.81585891 0.06874636 0.02509037 1.65237667
time 13
0 -0.00000100 7.45008900 -27.50902600 0.00000000 0.00000000 0.00003100
1 -0.00000200 0.00000000 0.00000000 1.57074700 -1.56714200 -1.57074700
2 4.25546600 -0.33518300 -0.00000200 0.00000000 0.00000000 -0.12484800
3 7.43125000 1.49647900 0.00000200 0.00000000 0.00000000 0.24545000
4 5.27847900 0.16554400 0.00000100 0.00000000 0.00000000 0.04851100
5 4.53340632 -1.68433974 3.04463404 1.97586500 1.15990900 -1.29878600
6 -6.21447800 -0.00000900 -0.00002600 -3.05776863 -0.44351437 1.53318187
7 11.94488500 0.00000000 0.00000000 -0.06815382 -0.17581295 1.22135523
8 10.62018800 0.00000000 0.00000000 0.91345102 0.20974742 2.60043629
9 -4.75110800 -0.69449800 0.83058000 -0.15418600 -0.29167200 0.37319500
10 -1.68806800 0.00004700 -0.00003100 0.02287100 -0.00946300 0.26249200
11 -1.33614000 0.00005500 -0.00001000 0.02592200 0.00450900 0.38004900
12 -4.82049400 -0.50946400 -0.22475900 -0.67850600 -0.12493700 1.39189400
13 -1.82698400 -0.00006900 0.00000800 -0.01519000 0.03755800 0.88963800
14 -1.43656900 0.00000400 0.00000300 -0.05788200 -0.05197400 0.74803500
15 -3.99235700 -0.89119100 -1.82790900 -0.78312200 0.47783100 1.73317100
16 -1.40591800 -0.00002500 -0.00000200 0.01158200 -0.02712100 0.47278000
17 -1.17535800 0.00012600 -0.00001900 0.02643300 0.06261000 0.30325800
18 -4.52675100 -0.69058000 -1.12074100 -0.76414900 0.22720200 1.67117900
19 -1.74403800 0.00003200 -0.00000800 -0.01149500 -0.02729000 0.80897100
20 -1.36877100 0.00002300 0.00000200 -0.22704800 0.07843600 0.24818000
21 -1.87479600 -0.93512500 0.99917500 1.79694600 0.72864500 1.01706100
22 -1.52344700 0.00003100 0.00003100 0.10575300 0.13820400 0.75781300
23 -1.59928500 0.00001100 0.00001500 0.02972300 -0.03090300 0.78512800
24 5.58312274 0.11572500 0.29499974 1.94756400 -0.06728900 3.12123600
25 0.19684600 -0.00000200 0.00000300 2.79340674 -0.00120847 -3.14130117
26 -0.42065400 -14.75184200 -3.44053500 1.97586200 1.15991000 1.84280300
27 6.21448600 0.00000800 0.00001900 -0.67124930 0.71490064 -1.85135885
28 11.94488800 -0.00003100 -0.00020000 -1.00288314 -0.28324678 -1.62242732
29 10.62016500 0.00000200 0.00000600 -2.22530295 -0.76230598 0.30776628
30 4.75115800 0.69437400 -0.83047400 0.12842900 -0.44158200 0.41817400
31 1.68806500 -0.00002200 0.00000200 0.00068800 -0.02474600 1.41163600
32 1.33615100 -0.00005100 -0.00000900 0.00291500 -0.03857300 0.29474600
33 4.82051500 0.50933800 0.22486600 -0.14851600 -0.31147800 1.00052700
34 1.82699200 0.00006600 0.00001000 0.01090700 0.03895400 1.54771100
35 1.43658100 -0.00000600 0.00001000 0.01503200 0.00167500 -0.83651700
36 3.99235300 0.89108700 1.82799300 -0.45399300 -0.08851700 1.25458700
37 1.40592600 0.00003100 -0.00000300 -0.01421100 -0.02586600 1.37541000
38 1.17536200 -0.00013200 0.00000100 -0.07487300 0.09798600 -0.69969900
39 4.52675800 0.69046400 1.12084300 -0.34960800 -0.17836200 1.24133300
40 1.74404100 -0.00003100 -0.00000200 -0.02639200 -0.01328600 1.51729600
41 1.36876700 -0.00003100 -0.00001800 -0.12191500 0.10180800 -1.06387600
42 2.12628488 1.15633188 -0.76950863 1.84706400 0.52542000 0.27660500
43 1.57833300 -0.31926826 -0.04171426 -0.04202400 -0.07377300 0.12077200
44 1.59179012 -0.07172163 0.01248663 0.03799300 0.07429800 -0.27107500
45 5.51180600 -0.00000200 0.00000300 -0.99849200 0.00000000 0.00000000
46 0.19684900 0.00000300 -0.00000100 -0.34822500 0.00001500 -0.00000200
47 0.00000000 0.00000000 0.00000000 0.00000000 0.00000000 -1.57079600
48 -4.14904400 6.60503300 -4.12447000 0.00000000 0.00000000 -3.14156200
49 -6.13464097 24.51411146 -2.09637306 0.31790955 0.14576977 -1.18909272
50 44.49528500 2.91572800 -17.31057200 0.00000000 0.00000000 0.00000000
51 0.85166200 0.00000000 0.00000000 0.00000000 0.00000000 0.00000000
52 0.34715649 -0.00505751 -1.70929037 0.00000000 0.00000000 0.00000000
53 0.36657626 -0.00505900 0.90475437 0.00000000 0.00000000 0.00000000
54 0.34912114 -0.00505974 0.26595574 0.00000000 0.00000000 0.00000000
55 0.34946063 -0.00505751 -0.38449563 0.00000000 0.00000000 0.00000000
56 0.33780951 -0.00505788 -1.09133600 0.00000000 0.00000000 0.00000000
57 3.93872200 -0.00328400 -1.03767400 0.00000000 0.00000000 0.00000000
58 0.45171900 0.00102000 1.29854300 0.00000000 0.00000000 0.00000000
59 -0.52680000 0.00000000 0.00000000 0.00000000 0.00000000 0.00000000
60 0.62233900 0.00000000 0.00000000 0.00000000 0.00000000 0.00000000
61 11.82448570 1.48995798 -1.86719665 -0.20588600 1.09315300 1.34480400
62 -1.31449649 -2.67034751 -2.04237437 -3.02352800 1.09807700 -2.21761800
63 -28.30309300 -0.00157300 0.20016800 0.00000000 0.00000000 0.00000000
64 14.36965583 -47.61044394 -0.45855547 0.04184490 0.01663229 1.60804303
time 14
0 -0.00000100 7.45008900 -27.50902600 0.00000000 0.00000000 0.00003100
1 -0.00000200 0.00000000 0.00000000 1.57074700 -1.56714200 -1.57074700
2 4.25546600 -0.33518300 -0.00000200 0.00000000 0.00000000 -0.12484800
3 7.43125000 1.49647900 0.00000200 0.00000000 0.00000000 0.24545000
4 5.27847900 0.16554400 0.00000100 0.00000000 0.00000000 0.04851100
5 4.45157788 -2.16823478 3.03802828 1.97586500 1.15990900 -1.29878600
6 -6.21447800 -0.00000900 -0.00002600 -3.14064053 -0.42420835 1.58479526
7 11.94488500 0.00000000 0.00000000 -0.10663298 -0.19332642 1.31639849
8 10.62018800 0.00000000 0.00000000 0.81532489 0.21384391 2.50595691
9 -4.75110800 -0.69449800 0.83058000 -0.15418600 -0.29167200 0.37319500
10 -1.68806800 0.00004700 -0.00003100 0.02287100 -0.00946300 0.26249200
11 -1.33614000 0.00005500 -0.00001000 0.02592200 0.00450900 0.38004900
12 -4.82049400 -0.50946400 -0.22475900 -0.67850600 -0.12493700 1.39189400
13 -1.82698400 -0.00006900 0.00000800 -0.01519000 0.03755800 0.88963800
14 -1.43656900 0.00000400 0.00000300 -0.05788200 -0.05197400 0.74803500
15 -3.99235700 -0.89119100 -1.82790900 -0.78312200 0.47783100 1.73317100
16 -1.40591800 -0.00002500 -0.00000200 0.01158200 -0.02712100 0.47278000
17 -1.17535800 0.00012600 -0.00001900 0.02643300 0.06261000 0.30325800
18 -4.52675100 -0.69058000 -1.12074100 -0.76414900 0.22720200 1.67117900
19 -1.74403800 0.00003200 -0.00000800 -0.01149500 -0.02729000 0.80897100
20 -1.36877100 0.00002300 0.00000200 -0.22704800 0.07843600 0.24818000
21 -1.87479600 -0.93512500 0.99917500 1.79694600 0.72864500 1.01706100
22 -1.52344700 0.00003100 0.00003100 0.10575300 0.13820400 0.75781300
23 -1.59928500 0.00001100 0.00001500 0.02972300 -0.03090300 0.78512800
24 5.58312274 0.11572500 0.29499974 1.94756400 -0.06728900 3.12123600
25 0.19684600 -0.00000200 0.00000300 2.79340674 -0.00120847 -3.14130117
26 -0.42065400 -14.75184200 -3.44053500 1.97586200 1.15991000 1.84280300
27 6.21448600 0.00000800 0.00001900 -0.69608244 0.69929990 -1.89700206
28 11.94488800 -0.00003100 -0.00020000 -1.01052898 -0.28923575 -1.59949326
29 10.62016500 0.00000200 0.00000600 -2.19844253 -0.75833262 0.32352491
30 4.75115800 0.69437400 -0.83047400 0.12842900 -0.44158200 0.41817400
31 1.68806500 -0.00002200 0.00000200 0.00068800 -0.02474600 1.41163600
32 1.33615100 -0.00005100 -0.00000900 0.00291500 -0.03857300 0.29474600
33 4.82051500 0.50933800 0.22486600 -0.14851600 -0.31147800 1.00052700
34 1.82699200 0.00006600 0.00001000 0.01090700 0.03895400 1.54771100
35 1.43658100 -0.00000600 0.00001000 0.01503200 0.00167500 -0.83651700
36 3.99235300 0.89108700 1.82799300 -0.45399300 -0.08851700 1.25458700
37 1.40592600 0.00003100 -0.00000300 -0.01421100 -0.02586600 1.37541000
38 1.17536200 -0.00013200 0.00000100 -0.07487300 0.09798600 -0.69969900
39 4.52675800 0.69046400 1.12084300 -0.34960800 -0.17836200 1.24133300
40 1.74404100 -0.00003100 -0.00000200 -0.02639200 -0.01328600 1.51729600
41 1.36876700 -0.00003100 -0.00001800 -0.12191500 0.10180800 -1.06387600
42 2.12628488 1.15633188 -0.76950863 1.84706400 0.52542000 0.27660500
43 1.57833300 -0.31926826 -0.04171426 -0.04202400 -0.07377300 0.12077200
44 1.59179012 -0.07172163 0.01248663 0.03799300 0.07429800 -0.27107500
45 5.51180600 -0.00000200 0.00000300 -0.99849200 0.00000000 0.00000000
46 0.19684900 0.00000300 -0.00000100 -0.34822500 0.00001500 -0.00000200
47 0.00000000 0.00000000 0.00000000 0.00000000 0.00000000 -1.57079600
48 -4.14904400 6.60503300 -4.12447000 0.00000000 0.00000000 -3.14156200
49 -5.73911062 24.51378130 -1.87582342 0.29514173 0.15552894 -1.21443800
50 44.49528500 2.91572800 -17.31057200 0.00000000 0.00000000 0.00000000
51 0.85166200 0.00000000 0.00000000 0.00000000 0.00000000 0.00000000
52 0.34715649 -0.00505751 -1.70929037 0.00000000 0.00000000 0.00000000
53 0.36657626 -0.00505900 0.90475437 0.00000000 0.00000000 0.00000000
54 0.34912114 -0.00505974 0.26595574 0.00000000 0.00000000 0.00000000
55 0.34946063 -0.00505751 -0.38449563 0.00000000 0.00000000 0.00000000
56 0.33780951 -0.00505788 -1.09133600 0.00000000 0.00000000 0.00000000
57 3.93872200 -0.00328400 -1.03767400 0.00000000 0.00000000 0.00000000
58 0.45171900 0.00102000 1.29854300 0.00000000 0.00000000 0.00000000
59 -0.52680000 0.00000000 0.00000000 0.00000000 0.00000000 0.00000000
60 0.62233900 0.00000000 0.00000000 0.00000000 0.00000000 0.00000000
61 11.82443238 1.48996208 -1.86722946 -0.20588600 1.09315300 1.34480400
62 -1.31449500 -2.67034788 -2.04237400 -3.02352800 1.09807700 -2.21761800
63 -28.30309300 -0.00157300 0.20016800 0.00000000 0.00000000 0.00000000
64 13.23001076 -47.70128023 -0.14653046 0.02179204 0.01583891 1.58381288
time 15
0 -0.00000100 7.45008900 -27.50902600 0.00000000 0.00000000 0.00003100
1 -0.00000200 0.00000000 0.00000000 1.57074700 -1.56714200 -1.57074700
2 4.25546600 -0.33518300 -0.00000200 0.00000000 0.00000000 -0.12484800
3 7.43125000 1.49647900 0.00000200 0.00000000 0.00000000 0.24545000
4 5.27847900 0.16554400 0.00000100 0.00000000 0.00000000 0.04851100
5 4.41405924 -2.38702640 3.03779074 1.97586500 1.15990900 -1.29878600
6 -6.21447800 -0.00000900 -0.00002600 3.10289506 -0.40505322 1.61698165
7 11.94488500 0.00000000 0.00000000 -0.10669829 -0.18454862 1.32625110
8 10.62018800 0.00000000 0.00000000 0.77318866 0.23811144 2.51327261
9 -4.75110800 -0.69449800 0.83058000 -0.15418600 -0.29167200 0.37319500
10 -1.68806800 0.00004700 -0.00003100 0.02287100 -0.00946300 0.26249200
11 -1.33614000 0.00005500 -0.00001000 0.02592200 0.00450900 0.38004900
12 -4.82049400 -0.50946400 -0.22475900 -0.67850600 -0.12493700 1.39189400
13 -1.82698400 -0.00006900 0.00000800 -0.01519000 0.03755800 0.88963800
14 -1.43656900 0.00000400 0.00000300 -0.05788200 -0.05197400 0.74803500
15 -3.99235700 -0.89119100 -1.82790900 -0.78312200 0.47783100 1.73317100
16 -1.40591800 -0.00002500 -0.00000200 0.01158200 -0.02712100 0.47278000
17 -1.17535800 0.00012600 -0.00001900 0.02643300 0.06261000 0.30325800
18 -4.52675100 -0.69058000 -1.12074100 -0.76414900 0.22720200 1.67117900
19 -1.74403800 0.00003200 -0.00000800 -0.01149500 -0.02729000 0.80897100
20 -1.36877100 0.00002300 0.00000200 -0.22704800 0.07843600 0.24818000
21 -1.87479600 -0.93512500 0.99917500 1.79694600 0.72864500 1.01706100
22 -1.52344700 0.00003100 0.00003100 0.10575300 0.13820400 0.75781300
23 -1.59928500 0.00001100 0.00001500 0.02972300 -0.03090300 0.78512800
24 5.58312337 0.11572500 0.29499974 1.94756400 -0.06728900 3.12123600
25 0.19684600 -0.00000200 0.00000300 2.79340674 -0.00120847 -3.14130117
26 -0.42065400 -14.75184200 -3.44053500 1.97586200 1.15991000 1.84280300
27 6.21448600 0.00000800 0.00001900 -0.71540260 0.69435328 -1.93813312
28 11.94488800 -0.00003100 -0.00020000 -1.02408309 -0.29921497 -1.55844708
29 10.62016500 0.00000200 0.00000600 -2.14270776 -0.73833687 0.27634981
30 4.75115800 0.69437400 -0.83047400 0.12842900 -0.44158200 0.41817400
31 1.68806500 -0.00002200 0.00000200 0.00068800 -0.02474600 1.41163600
32 1.33615100 -0.00005100 -0.00000900 0.00291500 -0.03857300 0.29474600
33 4.82051500 0.50933800 0.22486600 -0.14851600 -0.31147800 1.00052700
34 1.82699200 0.00006600 0.00001000 0.01090700 0.03895400 1.54771100
35 1.43658100 -0.00000600 0.00001000 0.01503200 0.00167500 -0.83651700
36 3.99235300 0.89108700 1.82799300 -0.45399300 -0.08851700 1.25458700
37 1.40592600 0.00003100 -0.00000300 -0.01421100 -0.02586600 1.37541000
38 1.17536200 -0.00013200 0.00000100 -0.07487300 0.09798600 -0.69969900
39 4.52675800 0.69046400 1.12084300 -0.34960800 -0.17836200 1.24133300
40 1.74404100 -0.00003100 -0.00000200 -0.02639200 -0.01328600 1.51729600
41 1.36876700 -0.00003100 -0.00001800 -0.12191500 0.10180800 -1.06387600
42 2.12628551 1.15633063 -0.76951051 1.84706400 0.52542000 0.27660500
43 1.57833426 -0.31926888 -0.04171426 -0.04202400 -0.07377300 0.12077200
44 1.59179263 -0.07172163 0.01248537 0.03799300 0.07429800 -0.27107500
45 5.51180600 -0.00000200 0.00000300 -0.99849200 0.00000000 0.00000000
46 0.19684900 0.00000300 -0.00000100 -0.34822500 0.00001500 -0.00000200
47 0.00000000 0.00000000 0.00000000 0.00000000 0.00000000 -1.57079600
48 -4.14904400 6.60503300 -4.12447000 0.00000000 0.00000000 -3.14156200
49 -5.37940013 24.68007044 -1.89612521 0.29669217 0.17172526 -1.21566690
50 44.49528500 2.91572800 -17.31057200 0.00000000 0.00000000 0.00000000
51 0.85166200 0.00000000 0.00000000 0.00000000 0.00000000 0.00000000
52 0.34715774 -0.00505751 -1.70929100 0.00000000 0.00000000 0.00000000
53 0.36657626 -0.00505900 0.90475374 0.00000000 0.00000000 0.00000000
54 0.34912239 -0.00505974 0.26595574 0.00000000 0.00000000 0.00000000
55 0.34946063 -0.00505751 -0.38449626 0.00000000 0.00000000 0.00000000
56 0.33780700 -0.00505788 -1.09133600 0.00000000 0.00000000 0.00000000
57 3.93872200 -0.00328400 -1.03767400 0.00000000 0.00000000 0.00000000
58 0.45171900 0.00102000 1.29854300 0.00000000 0.00000000 0.00000000
59 -0.52680000 0.00000000 0.00000000 0.00000000 0.00000000 0.00000000
60 0.62233900 0.00000000 0.00000000 0.00000000 0.00000000 0.00000000
61 11.82443355 1.48996271 -1.86723013 -0.20588600 1.09315300 1.34480400
62 -1.31450100 -2.67034700 -2.04237500 -3.02352800 1.09807700 -2.21761800
63 -28.30309300 -0.00157300 0.20016800 0.00000000 0.00000000 0.00000000
64 12.81639712 -47.60872106 0.21593364 0.02390792 0.02924401 1.57908808
end
