version 1
nodes
0 "root" -1
1 "pelvis" 0
2 "spine_01" 1
3 "spine_02" 2
4 "spine_03" 3
5 "clavicle_r" 4
6 "upperarm_r" 5
7 "lowerarm_r" 6
8 "hand_r" 7
9 "index_01_r" 8
10 "index_02_r" 9
11 "index_03_r" 10
12 "middle_01_r" 8
13 "middle_02_r" 12
14 "middle_03_r" 13
15 "pinky_01_r" 8
16 "pinky_02_r" 15
17 "pinky_03_r" 16
18 "ring_01_r" 8
19 "ring_02_r" 18
20 "ring_03_r" 19
21 "thumb_01_r" 8
22 "thumb_02_r" 21
23 "thumb_03_r" 22
24 "lowerarm_twist_01_r" 7
25 "upperarm_twist_01_r" 6
26 "clavicle_l" 4
27 "upperarm_l" 26
28 "lowerarm_l" 27
29 "hand_l" 28
30 "index_01_l" 29
31 "index_02_l" 30
32 "index_03_l" 31
33 "middle_01_l" 29
34 "middle_02_l" 33
35 "middle_03_l" 34
36 "pinky_01_l" 29
37 "pinky_02_l" 36
38 "pinky_03_l" 37
39 "ring_01_l" 29
40 "ring_02_l" 39
41 "ring_03_l" 40
42 "thumb_01_l" 29
43 "thumb_02_l" 42
44 "thumb_03_l" 43
45 "lowerarm_twist_01_l" 28
46 "upperarm_twist_01_l" 27
47 "cam_driver" -1
48 "BaseRoot" -1
49 "Base" 48
50 "rhand_ikTarget" 49
51 "Trigger" 49
52 "Mag" 49
53 "Bullet" 52
54 "Bolt" 49
55 "MagRelease" 49
56 "Boltpuller" 49
57 "BoltpullerRotator" 56
58 "Bayonet" 49
59 "lhand_ikTarget" 49
end
skeleton
time 0
0 -0.00000100 7.44921900 -27.50000000 0.00000000 0.00000000 -0.00000100
1 -0.00000200 0.00000000 0.00000000 1.57074300 -1.56713700 -1.57074300
2 4.25546800 -0.33518300 -0.00000200 0.00000000 0.00000000 -0.12484800
3 7.43124800 1.49647700 0.00000200 0.00000000 0.00000000 0.24545000
4 5.27847900 0.16554100 0.00000100 0.00000000 0.00000000 0.04851100
5 4.06535400 -6.69299500 1.49288300 1.97586400 1.15990900 -1.29878600
6 -6.21448200 -0.00000700 -0.00002700 -2.96558632 -0.70228444 1.47390356
7 11.94488200 0.00000000 0.00000100 -0.40201209 -0.34597144 1.68797930
8 10.62018100 0.00000200 0.00000000 0.64661433 0.25347708 2.01148822
9 -4.75110600 -0.69449400 0.83057700 -0.04279800 -0.14373000 0.21352800
10 -1.68806800 0.00004600 -0.00003200 0.01415600 -0.02032700 0.83076000
11 -1.33614000 0.00005700 -0.00001200 0.02623400 -0.00294900 0.66576000
12 -4.82049400 -0.50946000 -0.22475900 -0.53674400 -0.28786400 1.24050200
13 -1.82699200 -0.00006400 0.00000600 0.01075000 0.03906300 1.54238600
14 -1.43657300 0.00000600 0.00000200 -0.01733300 -0.07586700 0.13247900
15 -3.99235500 -0.89118800 -1.82790900 -0.75404600 0.18233400 1.60761100
16 -1.40591800 -0.00002500 -0.00000300 -0.00470300 -0.02915200 1.03569300
17 -1.17535800 0.00012800 -0.00002000 0.03338600 0.05922500 0.41712200
18 -4.52675100 -0.69057500 -1.12074400 -0.60429000 -0.05253200 1.52294200
19 -1.74403800 0.00003300 -0.00000800 -0.07947500 0.07644000 1.43815000
20 -1.36877100 0.00002500 0.00000200 0.01001900 0.05155800 0.08706400
21 -2.03710900 -0.89257800 0.93212900 1.97604100 0.32367100 0.83295800
22 -1.70314600 0.14847400 0.12894100 -0.00246100 0.04697500 0.50602900
23 -1.59928500 0.00000400 0.00001600 0.02759700 -0.03292100 0.85322800
24 5.51181500 0.00000800 -0.00000100 2.10188700 -0.00279100 -3.14000200
25 0.19684700 -0.00000100 0.00000300 2.79340698 -0.00027437 -3.14152739
26 -4.12890600 -15.84375000 -4.20703100 0.61035500 1.38770000 0.43043900
27 6.21448500 0.00000600 0.00002000 -0.66299539 -0.04031132 -1.80279308
28 11.94488500 -0.00002900 -0.00019400 -1.15775839 -0.30200349 -1.02270592
29 10.62016600 0.00000200 0.00001000 -2.98220289 -0.35603717 0.91380399
30 4.75115600 0.69437600 -0.83047300 -0.03780400 -0.18352200 0.48585200
31 1.68806500 -0.00002600 0.00000200 -0.00065100 -0.02477000 1.46512300
32 1.33615100 -0.00005100 -0.00000900 0.00460500 -0.03849300 0.25201000
33 4.82051300 0.50934000 0.22486500 -0.17733600 -0.14874800 0.61532900
34 1.82699600 0.00006600 0.00000800 0.02668000 0.03051200 1.99248500
35 1.43657700 -0.00001000 0.00000700 0.01517000 -0.00054900 -0.69368100
36 3.99235300 0.89108700 1.82799400 -0.45611300 0.19472700 1.06434000
37 1.40591800 0.00002100 -0.00000700 -0.01987900 -0.02184300 1.61402000
38 1.17536900 -0.00013100 0.00000200 -0.09560700 0.07797700 -0.93367000
39 4.52675600 0.69046000 1.12084200 -0.39013500 0.02308500 1.05505800
40 1.74404100 -0.00003100 -0.00000200 -0.02942700 -0.00336400 1.86808800
41 1.36876300 -0.00003100 -0.00001700 -0.12964500 0.09180000 -1.14345500
42 1.80859400 0.89502000 -1.11914100 1.99064000 0.37483500 0.55886000
43 1.49610400 -0.23832300 0.04296700 0.00368700 -0.23420200 0.03444700
44 1.57421900 -0.10443100 0.03323400 0.03983900 0.07343900 -0.24672800
45 5.51180600 -0.00000200 0.00000600 -0.95233300 0.00000300 0.00000700
46 0.19685000 0.00000300 -0.00000200 -0.34822500 0.00001500 -0.00000200
47 0.00000000 0.00000000 0.00000000 0.00000000 0.00000000 -1.57079600
48 -3.74609400 32.09375000 -3.29687500 0.00000000 0.00000000 -3.14158800
49 -3.65434725 50.12108200 0.41022321 0.00000000 -0.00586900 -1.57079600
50 8.88281300 1.19824200 -4.73437500 0.39724700 1.27412000 1.94589700
51 2.34242200 0.00125700 -1.80825200 0.00000000 0.00000000 0.00000000
52 -2.26218800 -0.00628100 0.14903100 0.00000000 0.00000000 0.00000000
53 0.05843500 0.00066700 0.09728300 0.00000000 0.00000000 0.00000000
54 -1.67978500 0.04617100 1.31566500 0.00000000 0.00000000 0.00000000
55 -0.09301900 -0.03277500 -2.11705000 0.00000000 0.00000000 0.00000000
56 -13.15422100 -0.01003900 1.49217400 0.00000000 0.00000000 0.00000000
57 0.86830900 0.00000000 0.00000000 0.00000000 0.00000000 0.00000000
58 -19.64442800 0.16805900 -1.45964800 0.00000000 0.00000000 0.00000000
59 -5.55856900 -2.25202000 -1.07387900 -2.93780700 1.27049300 -2.15177200
time 1
0 -0.00000100 7.44921900 -27.50000000 0.00000000 0.00000000 -0.00000100
1 -0.00000200 0.00000000 0.00000000 1.57074300 -1.56713700 -1.57074300
2 4.25546800 -0.33518300 -0.00000200 0.00000000 0.00000000 -0.12484800
3 7.43124800 1.49647700 0.00000200 0.00000000 0.00000000 0.24545000
4 5.27847900 0.16554100 0.00000100 0.00000000 0.00000000 0.04851100
5 3.95207000 -6.81799900 1.58663600 1.97586400 1.15990900 -1.29878600
6 -6.21448200 -0.00000700 -0.00002700 -2.98065569 -0.70295560 1.48838882
7 11.94488200 0.00000000 0.00000100 -0.40594933 -0.34607595 1.69955282
8 10.62018100 0.00000200 0.00000000 0.64580486 0.25168343 2.03509823
9 -4.75110600 -0.69449400 0.83057700 -0.04279800 -0.14373000 0.21352800
10 -1.68806800 0.00004600 -0.00003200 0.01415600 -0.02032700 0.83076000
11 -1.33614000 0.00005700 -0.00001200 0.02623400 -0.00294900 0.66576000
12 -4.82049400 -0.50946000 -0.22475900 -0.53674400 -0.28786400 1.24050200
13 -1.82699200 -0.00006400 0.00000600 0.01075000 0.03906300 1.54238600
14 -1.43657300 0.00000600 0.00000200 -0.01733300 -0.07586700 0.13247900
15 -3.99235500 -0.89118800 -1.82790900 -0.75404600 0.18233400 1.60761100
16 -1.40591800 -0.00002500 -0.00000300 -0.00470300 -0.02915200 1.03569300
17 -1.17535800 0.00012800 -0.00002000 0.03338600 0.05922500 0.41712200
18 -4.52675100 -0.69057500 -1.12074400 -0.60429000 -0.05253200 1.52294200
19 -1.74403800 0.00003300 -0.00000800 -0.07947500 0.07644000 1.43815000
20 -1.36877100 0.00002500 0.00000200 0.01001900 0.05155800 0.08706400
21 -2.03710900 -0.89257800 0.93212900 1.97604100 0.32367100 0.83295800
22 -1.70314600 0.14847400 0.12894100 -0.00246100 0.04697500 0.50602900
23 -1.59928500 0.00000400 0.00001600 0.02760900 -0.03292100 0.85322800
24 5.51181500 0.00000800 -0.00000100 2.10188700 -0.00279100 -3.14000200
25 0.19684700 -0.00000100 0.00000300 2.79340698 -0.00027437 -3.14152739
26 -4.12890600 -15.84375000 -4.20703100 0.61035500 1.38770000 0.43043900
27 6.21448500 0.00000600 0.00002000 -0.67871783 -0.03688837 -1.80019975
28 11.94488500 -0.00002900 -0.00019400 -1.15365068 -0.30449170 -1.03641659
29 10.62016600 0.00000200 0.00001000 -2.96860315 -0.38400475 0.91225131
30 4.75115600 0.69437600 -0.83047300 -0.03780400 -0.18352200 0.48585200
31 1.68806500 -0.00002600 0.00000200 -0.00065100 -0.02477000 1.46512300
32 1.33615100 -0.00005100 -0.00000900 0.00460500 -0.03849300 0.25201000
33 4.82051300 0.50934000 0.22486500 -0.17733600 -0.14874800 0.61532900
34 1.82699600 0.00006600 0.00000800 0.02668000 0.03051200 1.99248500
35 1.43657700 -0.00001000 0.00000700 0.01517000 -0.00054900 -0.69368100
36 3.99235300 0.89108700 1.82799400 -0.45611300 0.19472700 1.06434000
37 1.40591800 0.00002100 -0.00000700 -0.01987900 -0.02184300 1.61402000
38 1.17536900 -0.00013100 0.00000200 -0.09560700 0.07797700 -0.93367000
39 4.52675600 0.69046000 1.12084200 -0.39013500 0.02308500 1.05505800
40 1.74404100 -0.00003100 -0.00000200 -0.02942700 -0.00336400 1.86808800
41 1.36876300 -0.00003100 -0.00001700 -0.12964500 0.09180000 -1.14345500
42 1.80859400 0.89502000 -1.11914100 1.99064000 0.37483500 0.55886000
43 1.49610400 -0.23832300 0.04296700 0.00367100 -0.23420200 0.03444700
44 1.57421900 -0.10443100 0.03323400 0.03983900 0.07343900 -0.24672800
45 5.51180600 -0.00000200 0.00000600 -0.95233300 0.00000300 0.00000700
46 0.19685000 0.00000300 -0.00000200 -0.34822500 0.00001500 -0.00000200
47 0.00000000 0.00000000 0.00000000 0.00000000 0.00000000 -1.57079600
48 -3.74609400 32.09375000 -3.29687500 0.00000000 0.00000000 -3.14158800
49 -3.67940967 50.08201800 0.41671567 0.00448780 0.01202416 -1.55080279
50 8.88281300 1.19824200 -4.73437500 0.39724700 1.27412000 1.94589700
51 2.34242200 0.00125700 -1.80825200 0.00000000 0.00000000 0.00000000
52 -2.26218800 -0.00628100 0.14903100 0.00000000 0.00000000 0.00000000
53 0.05843500 0.00066700 0.09728300 0.00000000 0.00000000 0.00000000
54 -1.67978500 0.04617100 1.31566500 0.00000000 0.00000000 0.00000000
55 -0.09301900 -0.03277500 -2.11705000 0.00000000 0.00000000 0.00000000
56 -13.15422100 -0.01003900 1.49217400 0.00000000 0.00000000 0.00000000
57 0.86830900 0.00000000 0.00000000 0.00000000 0.00000000 0.00000000
58 -19.64442800 0.16805900 -1.45964800 0.00000000 0.00000000 0.00000000
59 -5.55856900 -2.25202000 -1.07387900 -2.93780700 1.27049300 -2.15177200
time 2
0 -0.00000100 7.44921900 -27.50000000 0.00000000 0.00000000 -0.00000100
1 -0.00000200 0.00000000 0.00000000 1.57074300 -1.56713700 -1.57074300
2 4.25546800 -0.33518300 -0.00000200 0.00000000 0.00000000 -0.12484800
3 7.43124800 1.49647700 0.00000200 0.00000000 0.00000000 0.24545000
4 5.27847900 0.16554100 0.00000100 0.00000000 0.00000000 0.04851100
5 3.64346600 -7.16566600 1.85226900 1.97586400 1.15990900 -1.29878600
6 -6.21448200 -0.00000700 -0.00002700 -3.01767004 -0.70216451 1.53041194
7 11.94488200 0.00000000 0.00000100 -0.41578230 -0.34506126 1.72854096
8 10.62018100 0.00000200 0.00000000 0.65912747 0.24310803 2.10942471
9 -4.75110600 -0.69449400 0.83057700 -0.04279800 -0.14373000 0.21352800
10 -1.68806800 0.00004600 -0.00003200 0.01415600 -0.02032700 0.83076000
11 -1.33614000 0.00005700 -0.00001200 0.02623400 -0.00294900 0.66576000
12 -4.82049400 -0.50946000 -0.22475900 -0.53674400 -0.28786400 1.24050200
13 -1.82699200 -0.00006400 0.00000600 0.01075000 0.03906300 1.54242700
14 -1.43657300 0.00000600 0.00000200 -0.01733300 -0.07586700 0.13247900
15 -3.99235500 -0.89118800 -1.82790900 -0.75404600 0.18233400 1.60761100
16 -1.40591800 -0.00002500 -0.00000300 -0.00470300 -0.02915200 1.03569300
17 -1.17535800 0.00012800 -0.00002000 0.03338600 0.05922500 0.41712200
18 -4.52675100 -0.69057500 -1.12074400 -0.60429000 -0.05253200 1.52294200
19 -1.74403800 0.00003300 -0.00000800 -0.07947500 0.07644000 1.43815000
20 -1.36877100 0.00002500 0.00000200 0.01001900 0.05155800 0.08706400
21 -2.03710900 -0.89257800 0.93212900 1.97604100 0.32367100 0.83295800
22 -1.70314600 0.14847400 0.12894100 -0.00246100 0.04697500 0.50602900
23 -1.59928500 0.00000400 0.00001600 0.02760900 -0.03292100 0.85322800
24 5.51181500 0.00000800 -0.00000100 2.10188700 -0.00279100 -3.14000200
25 0.19684700 -0.00000100 0.00000300 2.79340698 -0.00027437 -3.14152739
26 -4.12890600 -15.84375000 -4.20703100 0.61035500 1.38770000 0.43043900
27 6.21448500 0.00000600 0.00002000 -0.71864875 -0.02528009 -1.79148277
28 11.94488500 -0.00002900 -0.00019400 -1.14098349 -0.31137769 -1.07843077
29 10.62016600 0.00000200 0.00001000 -2.93988192 -0.45950515 0.89573472
30 4.75115600 0.69437600 -0.83047300 -0.03780400 -0.18352200 0.48585200
31 1.68806500 -0.00002600 0.00000200 -0.00065100 -0.02477000 1.46512300
32 1.33615100 -0.00005100 -0.00000900 0.00460500 -0.03849300 0.25201000
33 4.82051300 0.50934000 0.22486500 -0.17733600 -0.14874800 0.61532900
34 1.82699600 0.00006600 0.00000800 0.02668000 0.03051200 1.99248500
35 1.43657700 -0.00001000 0.00000700 0.01517000 -0.00054900 -0.69368100
36 3.99235300 0.89108700 1.82799400 -0.45611300 0.19472700 1.06434000
37 1.40591800 0.00002100 -0.00000700 -0.01987900 -0.02184300 1.61402000
38 1.17536900 -0.00013100 0.00000200 -0.09560700 0.07797700 -0.93367000
39 4.52675600 0.69046000 1.12084200 -0.39013500 0.02308500 1.05505800
40 1.74404100 -0.00003100 -0.00000200 -0.02942700 -0.00336400 1.86808800
41 1.36876300 -0.00003100 -0.00001700 -0.12964500 0.09180000 -1.14345500
42 1.80859400 0.89502000 -1.11914100 1.99064000 0.37483500 0.55886000
43 1.49610400 -0.23832300 0.04296700 0.00367100 -0.23420200 0.03444700
44 1.57421900 -0.10443100 0.03323400 0.03983900 0.07343900 -0.24672800
45 5.51180600 -0.00000200 0.00000600 -0.95233300 0.00000300 0.00000700
46 0.19685000 0.00000300 -0.00000200 -0.34822500 0.00001500 -0.00000200
47 0.00000000 0.00000000 0.00000000 0.00000000 0.00000000 -1.57079600
48 -3.74609400 32.09375000 -3.29687500 0.00000000 0.00000000 -3.14158800
49 -3.76336957 49.98045300 0.42579400 0.03350475 0.06123606 -1.49337113
50 8.88281300 1.19824200 -4.73437500 0.39724700 1.27412000 1.94589700
51 2.34242200 0.00125700 -1.80825200 0.00000000 0.00000000 0.00000000
52 -2.26218800 -0.00628100 0.14903100 0.00000000 0.00000000 0.00000000
53 0.05843500 0.00066700 0.09728300 0.00000000 0.00000000 0.00000000
54 -1.67978500 0.04617100 1.31566500 0.00000000 0.00000000 0.00000000
55 -0.09301900 -0.03277500 -2.11705000 0.00000000 0.00000000 0.00000000
56 -13.15422100 -0.01003900 1.49217400 0.00000000 0.00000000 0.00000000
57 0.86830900 0.00000000 0.00000000 0.00000000 0.00000000 0.00000000
58 -19.64442800 0.16805900 -1.45964800 0.00000000 0.00000000 0.00000000
59 -5.55856900 -2.25202000 -1.07387900 -2.93780700 1.27049300 -2.15177200
time 3
0 -0.00000100 7.44921900 -27.50000000 0.00000000 0.00000000 -0.00000100
1 -0.00000200 0.00000000 0.00000000 1.57074300 -1.56713700 -1.57074300
2 4.25546800 -0.33518300 -0.00000200 0.00000000 0.00000000 -0.12484800
3 7.43124800 1.49647700 0.00000200 0.00000000 0.00000000 0.24545000
4 5.27847900 0.16554100 0.00000100 0.00000000 0.00000000 0.04851100
5 3.17079600 -7.69302500 2.24681300 1.97586400 1.15990900 -1.29878600
6 -6.21448200 -0.00000700 -0.00002700 -3.06180740 -0.69260588 1.58470207
7 11.94488200 0.00000000 0.00000100 -0.42663669 -0.34342301 1.76068197
8 10.62018100 0.00000200 0.00000000 0.68204357 0.22182352 2.22442065
9 -4.75110600 -0.69449400 0.83057700 -0.04279800 -0.14373000 0.21352800
10 -1.68806800 0.00004600 -0.00003200 0.01415600 -0.02032700 0.83076000
11 -1.33614000 0.00005700 -0.00001200 0.02623400 -0.00294900 0.66576000
12 -4.82049400 -0.50946000 -0.22475900 -0.53674400 -0.28786400 1.24050200
13 -1.82699200 -0.00006400 0.00000600 0.01075000 0.03906300 1.54238600
14 -1.43657300 0.00000600 0.00000200 -0.01733300 -0.07586700 0.13247900
15 -3.99235500 -0.89118800 -1.82790900 -0.75404600 0.18233400 1.60761100
16 -1.40591800 -0.00002500 -0.00000300 -0.00470300 -0.02915200 1.03569300
17 -1.17535800 0.00012800 -0.00002000 0.03338600 0.05922500 0.41712200
18 -4.52675100 -0.69057500 -1.12074400 -0.60429000 -0.05253200 1.52294200
19 -1.74403800 0.00003300 -0.00000800 -0.07947500 0.07644000 1.43815000
20 -1.36877100 0.00002500 0.00000200 0.01001900 0.05155800 0.08706400
21 -2.03710900 -0.89257800 0.93212900 1.97604100 0.32367100 0.83295800
22 -1.70314600 0.14847400 0.12894100 -0.00246100 0.04697500 0.50602900
23 -1.59928500 0.00000400 0.00001600 0.02760900 -0.03292100 0.85322800
24 5.51181500 0.00000800 -0.00000100 2.10188700 -0.00279100 -3.14000200
25 0.19684700 -0.00000100 0.00000300 2.79340698 -0.00027437 -3.14152739
26 -4.12890600 -15.84375000 -4.20703100 0.61035500 1.38770000 0.43043900
27 6.21448500 0.00000600 0.00002000 -0.77307407 -0.00437870 -1.77570973
28 11.94488500 -0.00002900 -0.00019400 -1.11865757 -0.32158126 -1.15022792
29 10.62016600 0.00000200 0.00001000 -2.90072327 -0.56907515 0.86624163
30 4.75115600 0.69437600 -0.83047300 -0.03780400 -0.18352200 0.48585200
31 1.68806500 -0.00002600 0.00000200 -0.00065100 -0.02477000 1.46512300
32 1.33615100 -0.00005100 -0.00000900 0.00460500 -0.03849300 0.25201000
33 4.82051300 0.50934000 0.22486500 -0.17733600 -0.14874800 0.61532900
34 1.82699600 0.00006600 0.00000800 0.02668000 0.03051200 1.99248500
35 1.43657700 -0.00001000 0.00000700 0.01517000 -0.00054900 -0.69368100
36 3.99235300 0.89108700 1.82799400 -0.45611300 0.19472700 1.06434000
37 1.40591800 0.00002100 -0.00000700 -0.01987900 -0.02184300 1.61402000
38 1.17536900 -0.00013100 0.00000200 -0.09560700 0.07797700 -0.93367000
39 4.52675600 0.69046000 1.12084200 -0.39013500 0.02308500 1.05505800
40 1.74404100 -0.00003100 -0.00000200 -0.02942700 -0.00336400 1.86808800
41 1.36876300 -0.00003100 -0.00001700 -0.12964500 0.09180000 -1.14345500
42 1.80859400 0.89502000 -1.11914100 1.99064000 0.37483500 0.55886000
43 1.49610400 -0.23832300 0.04296700 0.00368700 -0.23420200 0.03444700
44 1.57421900 -0.10443100 0.03323400 0.03983900 0.07343900 -0.24672800
45 5.51180600 -0.00000200 0.00000600 -0.95233300 0.00000300 0.00000700
46 0.19685000 0.00000300 -0.00000200 -0.34822500 0.00001500 -0.00000200
47 0.00000000 0.00000000 0.00000000 0.00000000 0.00000000 -1.57079600
48 -3.74609400 32.09375000 -3.29687500 0.00000000 0.00000000 -3.14158800
49 -3.92672279 49.82810400 0.42868334 0.08746585 0.12775665 -1.40173659
50 8.88281300 1.19824200 -4.73437500 0.39724700 1.27412000 1.94589700
51 2.34242200 0.00125700 -1.80825200 0.00000000 0.00000000 0.00000000
52 -2.26218800 -0.00628100 0.14903100 0.00000000 0.00000000 0.00000000
53 0.05843500 0.00066700 0.09728300 0.00000000 0.00000000 0.00000000
54 -1.67978500 0.04617100 1.31566500 0.00000000 0.00000000 0.00000000
55 -0.09301900 -0.03277500 -2.11705000 0.00000000 0.00000000 0.00000000
56 -13.15422100 -0.01003900 1.49217400 0.00000000 0.00000000 0.00000000
57 0.86830900 0.00000000 0.00000000 0.00000000 0.00000000 0.00000000
58 -19.64442800 0.16805900 -1.45964800 0.00000000 0.00000000 0.00000000
59 -5.55856900 -2.25202000 -1.07387900 -2.93780700 1.27049300 -2.15177200
time 4
0 -0.00000100 7.44921900 -27.50000000 0.00000000 0.00000000 -0.00000100
1 -0.00000200 0.00000000 0.00000000 1.57074300 -1.56713700 -1.57074300
2 4.25546800 -0.33518300 -0.00000200 0.00000000 0.00000000 -0.12484800
3 7.43124800 1.49647700 0.00000200 0.00000000 0.00000000 0.24545000
4 5.27847900 0.16554100 0.00000100 0.00000000 0.00000000 0.04851100
5 2.58484000 -8.35320200 2.74292200 1.97586400 1.15990900 -1.29878600
6 -6.21448200 -0.00000700 -0.00002700 -3.09705164 -0.67010382 1.63066299
7 11.94488200 0.00000000 0.00000100 -0.43376691 -0.34211600 1.78191009
8 10.62018100 0.00000200 0.00000000 0.70160435 0.18633452 2.36512765
9 -4.75110600 -0.69449400 0.83057700 -0.04279800 -0.14373000 0.21352800
10 -1.68806800 0.00004600 -0.00003200 0.01415600 -0.02032700 0.83076000
11 -1.33614000 0.00005700 -0.00001200 0.02623400 -0.00294900 0.66576000
12 -4.82049400 -0.50946000 -0.22475900 -0.53674400 -0.28786400 1.24050200
13 -1.82699200 -0.00006400 0.00000600 0.01075000 0.03906300 1.54238600
14 -1.43657300 0.00000600 0.00000200 -0.01733300 -0.07586700 0.13247900
15 -3.99235500 -0.89118800 -1.82790900 -0.75404600 0.18233400 1.60761100
16 -1.40591800 -0.00002500 -0.00000300 -0.00470300 -0.02915200 1.03569300
17 -1.17535800 0.00012800 -0.00002000 0.03338600 0.05922500 0.41712200
18 -4.52675100 -0.69057500 -1.12074400 -0.60429000 -0.05253200 1.52294200
19 -1.74403800 0.00003300 -0.00000800 -0.07947500 0.07644000 1.43815000
20 -1.36877100 0.00002500 0.00000200 0.01001900 0.05155800 0.08706400
21 -2.03710900 -0.89257800 0.93212900 1.97604100 0.32367100 0.83295800
22 -1.70314600 0.14847400 0.12894100 -0.00246100 0.04697500 0.50602900
23 -1.59928500 0.00000400 0.00001600 0.02760900 -0.03292100 0.85322800
24 5.51181500 0.00000800 -0.00000100 2.10188700 -0.00279100 -3.14000200
25 0.19684700 -0.00000100 0.00000300 2.79340698 -0.00027437 -3.14152739
26 -4.12890600 -15.84375000 -4.20703100 0.61035500 1.38770000 0.43043900
27 6.21448500 0.00000600 0.00002000 -0.83365584 0.02534886 -1.75396716
28 11.94488500 -0.00002900 -0.00019400 -1.08686674 -0.33313653 -1.24916908
29 10.62016600 0.00000200 0.00001000 -2.84833218 -0.69940502 0.82867117
30 4.75115600 0.69437600 -0.83047300 -0.03780400 -0.18352200 0.48585200
31 1.68806500 -0.00002600 0.00000200 -0.00065100 -0.02477000 1.46512300
32 1.33615100 -0.00005100 -0.00000900 0.00460500 -0.03849300 0.25201000
33 4.82051300 0.50934000 0.22486500 -0.17733600 -0.14874800 0.61532900
34 1.82699600 0.00006600 0.00000800 0.02668000 0.03051200 1.99248500
35 1.43657700 -0.00001000 0.00000700 0.01517000 -0.00054900 -0.69368100
36 3.99235300 0.89108700 1.82799400 -0.45611300 0.19472700 1.06434000
37 1.40591800 0.00002100 -0.00000700 -0.01987900 -0.02184300 1.61402000
38 1.17536900 -0.00013100 0.00000200 -0.09560700 0.07797700 -0.93367000
39 4.52675600 0.69046000 1.12084200 -0.39013500 0.02308500 1.05505800
40 1.74404100 -0.00003100 -0.00000200 -0.02942700 -0.00336400 1.86808800
41 1.36876300 -0.00003100 -0.00001700 -0.12964500 0.09180000 -1.14345500
42 1.80859400 0.89502000 -1.11914100 1.99064000 0.37483500 0.55886000
43 1.49610400 -0.23832300 0.04296700 0.00368700 -0.23420200 0.03444700
44 1.57421900 -0.10443100 0.03323400 0.03983900 0.07343900 -0.24672800
45 5.51180600 -0.00000200 0.00000600 -0.95233300 0.00000300 0.00000700
46 0.19685000 0.00000300 -0.00000200 -0.34822500 0.00001500 -0.00000200
47 0.00000000 0.00000000 0.00000000 0.00000000 0.00000000 -1.57079600
48 -3.74609400 32.09375000 -3.29687500 0.00000000 0.00000000 -3.14158800
49 -4.16622391 49.65622400 0.41498465 0.15948762 0.19703110 -1.28008732
50 8.88281300 1.19824200 -4.73437500 0.39724700 1.27412000 1.94589700
51 2.34242200 0.00125700 -1.80825200 0.00000000 0.00000000 0.00000000
52 -2.26218800 -0.00628100 0.14903100 0.00000000 0.00000000 0.00000000
53 0.05843500 0.00066700 0.09728300 0.00000000 0.00000000 0.00000000
54 -1.67978500 0.04617100 1.31566500 0.00000000 0.00000000 0.00000000
55 -0.09301900 -0.03277500 -2.11705000 0.00000000 0.00000000 0.00000000
56 -13.15422100 -0.01003900 1.49217400 0.00000000 0.00000000 0.00000000
57 0.86830900 0.00000000 0.00000000 0.00000000 0.00000000 0.00000000
58 -19.64442800 0.16805900 -1.45964800 0.00000000 0.00000000 0.00000000
59 -5.55856900 -2.25202000 -1.07387900 -2.93780700 1.27049300 -2.15177200
time 5
0 -0.00000100 7.44921900 -27.50000000 0.00000000 0.00000000 -0.00000100
1 -0.00000200 0.00000000 0.00000000 1.57074300 -1.56713700 -1.57074300
2 4.25546800 -0.33518300 -0.00000200 0.00000000 0.00000000 -0.12484800
3 7.43124800 1.49647700 0.00000200 0.00000000 0.00000000 0.24545000
4 5.27847900 0.16554100 0.00000100 0.00000000 0.00000000 0.04851100
5 1.91685100 -9.09931800 3.30543900 1.97586400 1.15990900 -1.29878600
6 -6.21448200 -0.00000700 -0.00002700 -3.11317777 -0.63545500 1.65131386
7 11.94488200 0.00000000 0.00000100 -0.43504311 -0.34205820 1.78567928
8 10.62018100 0.00000200 0.00000000 0.70800303 0.13913660 2.51122423
9 -4.75110600 -0.69449400 0.83057700 -0.04279800 -0.14373000 0.21352800
10 -1.68806800 0.00004600 -0.00003200 0.01415600 -0.02032700 0.83076000
11 -1.33614000 0.00005700 -0.00001200 0.02623400 -0.00294900 0.66576000
12 -4.82049400 -0.50946000 -0.22475900 -0.53674400 -0.28786400 1.24050200
13 -1.82699200 -0.00006400 0.00000600 0.01075000 0.03906300 1.54238600
14 -1.43657300 0.00000600 0.00000200 -0.01733300 -0.07586700 0.13247900
15 -3.99235500 -0.89118800 -1.82790900 -0.75404600 0.18233400 1.60761100
16 -1.40591800 -0.00002500 -0.00000300 -0.00470300 -0.02915200 1.03569300
17 -1.17535800 0.00012800 -0.00002000 0.03338600 0.05922500 0.41712200
18 -4.52675100 -0.69057500 -1.12074400 -0.60429000 -0.05253200 1.52294200
19 -1.74403800 0.00003300 -0.00000800 -0.07947500 0.07644000 1.43815000
20 -1.36877100 0.00002500 0.00000200 0.01001900 0.05155800 0.08706400
21 -2.03710900 -0.89257800 0.93212900 1.97604100 0.32367100 0.83295800
22 -1.70314600 0.14847400 0.12894100 -0.00246100 0.04697500 0.50602900
23 -1.59928500 0.00000400 0.00001600 0.02760900 -0.03292100 0.85322800
24 5.51181500 0.00000800 -0.00000100 2.10188700 -0.00279100 -3.14000200
25 0.19684700 -0.00000100 0.00000300 2.79340698 -0.00027437 -3.14152739
26 -4.12890600 -15.84375000 -4.20703100 0.61035500 1.38770000 0.43043900
27 6.21448500 0.00000600 0.00002000 -0.89417677 0.06190578 -1.72855930
28 11.94488500 -0.00002900 -0.00019400 -1.04764599 -0.34281176 -1.36732828
29 10.62016600 0.00000200 0.00001000 -2.78110529 -0.83721671 0.78676720
30 4.75115600 0.69437600 -0.83047300 -0.03780400 -0.18352200 0.48585200
31 1.68806500 -0.00002600 0.00000200 -0.00065100 -0.02477000 1.46512300
32 1.33615100 -0.00005100 -0.00000900 0.00460500 -0.03849300 0.25201000
33 4.82051300 0.50934000 0.22486500 -0.17733600 -0.14874800 0.61532900
34 1.82699600 0.00006600 0.00000800 0.02668000 0.03051200 1.99248500
35 1.43657700 -0.00001000 0.00000700 0.01517000 -0.00054900 -0.69368100
36 3.99235300 0.89108700 1.82799400 -0.45611300 0.19472700 1.06434000
37 1.40591800 0.00002100 -0.00000700 -0.01987900 -0.02184300 1.61402000
38 1.17536900 -0.00013100 0.00000200 -0.09560700 0.07797700 -0.93367000
39 4.52675600 0.69046000 1.12084200 -0.39013500 0.02308500 1.05505800
40 1.74404100 -0.00003100 -0.00000200 -0.02942700 -0.00336400 1.86808800
41 1.36876300 -0.00003100 -0.00001700 -0.12964500 0.09180000 -1.14345500
42 1.80859400 0.89502000 -1.11914100 1.99064000 0.37483500 0.55886000
43 1.49610400 -0.23832300 0.04296700 0.00368700 -0.23420200 0.03444700
44 1.57421900 -0.10443100 0.03323400 0.03983900 0.07343900 -0.24672800
45 5.51180600 -0.00000200 0.00000600 -0.95233300 0.00000300 0.00000700
46 0.19685000 0.00000300 -0.00000200 -0.34822500 0.00001500 -0.00000200
47 0.00000000 0.00000000 0.00000000 0.00000000 0.00000000 -1.57079600
48 -3.74609400 32.09375000 -3.29687500 0.00000000 0.00000000 -3.14158800
49 -4.48613501 49.47653100 0.37526067 0.24017037 0.25515171 -1.13693193
50 8.88281300 1.19824200 -4.73437500 0.39724700 1.27412000 1.94589700
51 2.34242200 0.00125700 -1.80825200 0.00000000 0.00000000 0.00000000
52 -2.26218800 -0.00628100 0.14903100 0.00000000 0.00000000 0.00000000
53 0.05843500 0.00066700 0.09728300 0.00000000 0.00000000 0.00000000
54 -1.67978500 0.04617100 1.31566500 0.00000000 0.00000000 0.00000000
55 -0.09301900 -0.03277500 -2.11705000 0.00000000 0.00000000 0.00000000
56 -13.15422100 -0.01003900 1.49217400 0.00000000 0.00000000 0.00000000
57 0.86830900 0.00000000 0.00000000 0.00000000 0.00000000 0.00000000
58 -19.64442800 0.16805900 -1.45964800 0.00000000 0.00000000 0.00000000
59 -5.55856900 -2.25202000 -1.07387900 -2.93780700 1.27049300 -2.15177200
time 6
0 -0.00000100 7.44921900 -27.50000000 0.00000000 0.00000000 -0.00000100
1 -0.00000200 0.00000000 0.00000000 1.57074300 -1.56713700 -1.57074300
2 4.25546800 -0.33518300 -0.00000200 0.00000000 0.00000000 -0.12484800
3 7.43124800 1.49647700 0.00000200 0.00000000 0.00000000 0.24545000
4 5.27847900 0.16554100 0.00000100 0.00000000 0.00000000 0.04851100
5 1.20979800 -9.89231100 3.89920700 1.97586400 1.15990900 -1.29878600
6 -6.21448200 -0.00000700 -0.00002700 -3.11307019 -0.59176161 1.63952890
7 11.94488200 0.00000000 0.00000100 -0.43109482 -0.34309175 1.77393864
8 10.62018100 0.00000200 0.00000000 0.69403119 0.08687011 2.63893546
9 -4.75110600 -0.69449400 0.83057700 -0.04279800 -0.14373000 0.21352800
10 -1.68806800 0.00004600 -0.00003200 0.01415600 -0.02032700 0.83076000
11 -1.33614000 0.00005700 -0.00001200 0.02623400 -0.00294900 0.66576000
12 -4.82049400 -0.50946000 -0.22475900 -0.53674400 -0.28786400 1.24050200
13 -1.82699200 -0.00006400 0.00000600 0.01075000 0.03906300 1.54238600
14 -1.43657300 0.00000600 0.00000200 -0.01733300 -0.07586700 0.13247900
15 -3.99235500 -0.89118800 -1.82790900 -0.75404600 0.18233400 1.60761100
16 -1.40591800 -0.00002500 -0.00000300 -0.00470300 -0.02915200 1.03569300
17 -1.17535800 0.00012800 -0.00002000 0.03338600 0.05922500 0.41712200
18 -4.52675100 -0.69057500 -1.12074400 -0.60429000 -0.05253200 1.52294200
19 -1.74403800 0.00003300 -0.00000800 -0.07947500 0.07644000 1.43815000
20 -1.36877100 0.00002500 0.00000200 0.01001900 0.05155800 0.08706400
21 -2.03710900 -0.89257800 0.93212900 1.97604100 0.32367100 0.83295800
22 -1.70314600 0.14847400 0.12894100 -0.00246100 0.04697500 0.50602900
23 -1.59928500 0.00000400 0.00001600 0.02760900 -0.03292100 0.85322800
24 5.51181500 0.00000800 -0.00000100 2.10188700 -0.00279100 -3.14000200
25 0.19684700 -0.00000100 0.00000300 2.79340698 -0.00027437 -3.14152739
26 -4.12890600 -15.84375000 -4.20703100 0.61035500 1.38770000 0.43043900
27 6.21448500 0.00000600 0.00002000 -0.95138531 0.10312940 -1.70180792
28 11.94488500 -0.00002900 -0.00019400 -1.00476136 -0.34851907 -1.49398482
29 10.62016600 0.00000200 0.00001000 -2.70166292 -0.97059292 0.74692283
30 4.75115600 0.69437600 -0.83047300 -0.03780400 -0.18352200 0.48585200
31 1.68806500 -0.00002600 0.00000200 -0.00065100 -0.02477000 1.46512300
32 1.33615100 -0.00005100 -0.00000900 0.00460500 -0.03849300 0.25201000
33 4.82051300 0.50934000 0.22486500 -0.17733600 -0.14874800 0.61532900
34 1.82699600 0.00006600 0.00000800 0.02668000 0.03051200 1.99248500
35 1.43657700 -0.00001000 0.00000700 0.01517000 -0.00054900 -0.69368100
36 3.99235300 0.89108700 1.82799400 -0.45611300 0.19472700 1.06434000
37 1.40591800 0.00002100 -0.00000700 -0.01987900 -0.02184300 1.61402000
38 1.17536900 -0.00013100 0.00000200 -0.09560700 0.07797700 -0.93367000
39 4.52675600 0.69046000 1.12084200 -0.39013500 0.02308500 1.05505800
40 1.74404100 -0.00003100 -0.00000200 -0.02942700 -0.00336400 1.86808800
41 1.36876300 -0.00003100 -0.00001700 -0.12964500 0.09180000 -1.14345500
42 1.80859400 0.89502000 -1.11914100 1.99064000 0.37483500 0.55886000
43 1.49610400 -0.23832300 0.04296700 0.00367100 -0.23420200 0.03444700
44 1.57421900 -0.10443100 0.03323400 0.03983900 0.07343900 -0.24672800
45 5.51180600 -0.00000200 0.00000600 -0.95233300 0.00000300 0.00000700
46 0.19685000 0.00000300 -0.00000200 -0.34822500 0.00001500 -0.00000200
47 0.00000000 0.00000000 0.00000000 0.00000000 0.00000000 -1.57079600
48 -3.74609400 32.09375000 -3.29687500 0.00000000 0.00000000 -3.14158800
49 -4.89102367 49.31246400 0.31179522 0.31583522 0.29185386 -0.98614818
50 8.88281300 1.19824200 -4.73437500 0.39724700 1.27412000 1.94589700
51 2.34242200 0.00125700 -1.80825200 0.00000000 0.00000000 0.00000000
52 -2.26218800 -0.00628100 0.14903100 0.00000000 0.00000000 0.00000000
53 0.05843500 0.00066700 0.09728300 0.00000000 0.00000000 0.00000000
54 -1.67978500 0.04617100 1.31566500 0.00000000 0.00000000 0.00000000
55 -0.09301900 -0.03277500 -2.11705000 0.00000000 0.00000000 0.00000000
56 -13.15422100 -0.01003900 1.49217400 0.00000000 0.00000000 0.00000000
57 0.86830900 0.00000000 0.00000000 0.00000000 0.00000000 0.00000000
58 -19.64442800 0.16805900 -1.45964800 0.00000000 0.00000000 0.00000000
59 -5.55856900 -2.25202000 -1.07387900 -2.93780700 1.27049300 -2.15177200
time 7
0 -0.00000100 7.44921900 -27.50000000 0.00000000 0.00000000 -0.00000100
1 -0.00000200 0.00000000 0.00000000 1.57074300 -1.56713700 -1.57074300
2 4.25546800 -0.33518300 -0.00000200 0.00000000 0.00000000 -0.12484800
3 7.43124800 1.49647700 0.00000200 0.00000000 0.00000000 0.24545000
4 5.27847900 0.16554100 0.00000100 0.00000000 0.00000000 0.04851100
5 0.50274600 -10.68530400 4.49688100 1.97586400 1.15990900 -1.29878600
6 -6.21448200 -0.00000700 -0.00002700 -3.11220741 -0.54079379 1.60004913
7 11.94488200 0.00000000 0.00000100 -0.42461685 -0.34457987 1.75466797
8 10.62018100 0.00000200 0.00000000 0.65208115 0.04020083 2.72486629
9 -4.75110600 -0.69449400 0.83057700 -0.04279800 -0.14373000 0.21352800
10 -1.68806800 0.00004600 -0.00003200 0.01415600 -0.02032700 0.83076000
11 -1.33614000 0.00005700 -0.00001200 0.02623400 -0.00294900 0.66576000
12 -4.82049400 -0.50946000 -0.22475900 -0.53674400 -0.28786400 1.24050200
13 -1.82699200 -0.00006400 0.00000600 0.01075000 0.03906300 1.54238600
14 -1.43657300 0.00000600 0.00000200 -0.01733300 -0.07586700 0.13247900
15 -3.99235500 -0.89118800 -1.82790900 -0.75404600 0.18233400 1.60761100
16 -1.40591800 -0.00002500 -0.00000300 -0.00470300 -0.02915200 1.03569300
17 -1.17535800 0.00012800 -0.00002000 0.03338600 0.05922500 0.41712200
18 -4.52675100 -0.69057500 -1.12074400 -0.60429000 -0.05253200 1.52294200
19 -1.74403800 0.00003300 -0.00000800 -0.07947500 0.07644000 1.43815000
20 -1.36877100 0.00002500 0.00000200 0.01001900 0.05155800 0.08706400
21 -2.03710900 -0.89257800 0.93212900 1.97604100 0.32367100 0.83295800
22 -1.70314600 0.14847400 0.12894100 -0.00246100 0.04697500 0.50602900
23 -1.59928500 0.00000400 0.00001600 0.02760900 -0.03292100 0.85322800
24 5.51181500 0.00000800 -0.00000100 2.10188700 -0.00279100 -3.14000200
25 0.19684700 -0.00000100 0.00000300 2.79340698 -0.00027437 -3.14152739
26 -4.12890600 -15.84375000 -4.20703100 0.61035500 1.38770000 0.43043900
27 6.21448500 0.00000600 0.00002000 -1.00470598 0.14644260 -1.67482222
28 11.94488500 -0.00002900 -0.00019400 -0.96276333 -0.34929589 -1.61670278
29 10.62016600 0.00000200 0.00001000 -2.62344966 -1.08932438 0.72617308
30 4.75115600 0.69437600 -0.83047300 -0.03780400 -0.18352200 0.48585200
31 1.68806500 -0.00002600 0.00000200 -0.00065100 -0.02477000 1.46512300
32 1.33615100 -0.00005100 -0.00000900 0.00460500 -0.03849300 0.25201000
33 4.82051300 0.50934000 0.22486500 -0.17733600 -0.14874800 0.61532900
34 1.82699600 0.00006600 0.00000800 0.02668000 0.03051200 1.99248500
35 1.43657700 -0.00001000 0.00000700 0.01517000 -0.00054900 -0.69368100
36 3.99235300 0.89108700 1.82799400 -0.45611300 0.19472700 1.06434000
37 1.40591800 0.00002100 -0.00000700 -0.01987900 -0.02184300 1.61402000
38 1.17536900 -0.00013100 0.00000200 -0.09560700 0.07797700 -0.93367000
39 4.52675600 0.69046000 1.12084200 -0.39013500 0.02308500 1.05505800
40 1.74404100 -0.00003100 -0.00000200 -0.02942700 -0.00336400 1.86808800
41 1.36876300 -0.00003100 -0.00001700 -0.12964500 0.09180000 -1.14345500
42 1.80859400 0.89502000 -1.11914100 1.99064000 0.37483500 0.55886000
43 1.49610400 -0.23832300 0.04296700 0.00367100 -0.23420200 0.03444700
44 1.57421900 -0.10443100 0.03323400 0.03983900 0.07343900 -0.24672800
45 5.51180600 -0.00000200 0.00000600 -0.95233300 0.00000300 0.00000700
46 0.19685000 0.00000300 -0.00000200 -0.34822500 0.00001500 -0.00000200
47 0.00000000 0.00000000 0.00000000 0.00000000 0.00000000 -1.57079600
48 -3.74609400 32.09375000 -3.29687500 0.00000000 0.00000000 -3.14158800
49 -5.39489087 49.18746000 0.21840032 0.36786112 0.30339767 -0.84560556
50 8.88281300 1.19824200 -4.73437500 0.39724700 1.27412000 1.94589700
51 2.34242200 0.00125700 -1.80825200 0.00000000 0.00000000 0.00000000
52 -2.26218800 -0.00628100 0.14903100 0.00000000 0.00000000 0.00000000
53 0.05843500 0.00066700 0.09728300 0.00000000 0.00000000 0.00000000
54 -1.67978500 0.04617100 1.31566500 0.00000000 0.00000000 0.00000000
55 -0.09301900 -0.03277500 -2.11705000 0.00000000 0.00000000 0.00000000
56 -13.15422100 -0.01003900 1.49217400 0.00000000 0.00000000 0.00000000
57 0.86830900 0.00000000 0.00000000 0.00000000 0.00000000 0.00000000
58 -19.64442800 0.16805900 -1.45964800 0.00000000 0.00000000 0.00000000
59 -5.55856900 -2.25202000 -1.07387900 -2.93780700 1.27049300 -2.15177200
time 8
0 -0.00000100 7.44921900 -27.50000000 0.00000000 0.00000000 -0.00000100
1 -0.00000200 0.00000000 0.00000000 1.57074300 -1.56713700 -1.57074300
2 4.25546800 -0.33518300 -0.00000200 0.00000000 0.00000000 -0.12484800
3 7.43124800 1.49647700 0.00000200 0.00000000 0.00000000 0.24545000
4 5.27847900 0.16554100 0.00000100 0.00000000 0.00000000 0.04851100
5 -0.16524400 -11.43142100 5.05939900 1.97586400 1.15990900 -1.29878600
6 -6.21448200 -0.00000700 -0.00002700 -3.12770356 -0.48315123 1.54236470
7 11.94488200 0.00000000 0.00000100 -0.41500443 -0.34651752 1.72623285
8 10.62018100 0.00000200 0.00000000 0.58850497 0.01731415 2.77161639
9 -4.75110600 -0.69449400 0.83057700 -0.04279800 -0.14373000 0.21352800
10 -1.68806800 0.00004600 -0.00003200 0.01415600 -0.02032700 0.83076000
11 -1.33614000 0.00005700 -0.00001200 0.02623400 -0.00294900 0.66576000
12 -4.82049400 -0.50946000 -0.22475900 -0.53674400 -0.28786400 1.24050200
13 -1.82699200 -0.00006400 0.00000600 0.01075000 0.03906300 1.54238600
14 -1.43657300 0.00000600 0.00000200 -0.01733300 -0.07586700 0.13247900
15 -3.99235500 -0.89118800 -1.82790900 -0.75404600 0.18233400 1.60761100
16 -1.40591800 -0.00002500 -0.00000300 -0.00470300 -0.02915200 1.03569300
17 -1.17535800 0.00012800 -0.00002000 0.03338600 0.05922500 0.41712200
18 -4.52675100 -0.69057500 -1.12074400 -0.60429000 -0.05253200 1.52294200
19 -1.74403800 0.00003300 -0.00000800 -0.07947500 0.07644000 1.43815000
20 -1.36877100 0.00002500 0.00000200 0.01001900 0.05155800 0.08706400
21 -2.03710900 -0.89257800 0.93212900 1.97604100 0.32367100 0.83295800
22 -1.70314600 0.14847400 0.12894100 -0.00246100 0.04697500 0.50602900
23 -1.59928500 0.00000400 0.00001600 0.02760900 -0.03292100 0.85322800
24 5.51181500 0.00000800 -0.00000100 2.10188700 -0.00279100 -3.14000200
25 0.19684700 -0.00000100 0.00000300 2.79340698 -0.00027437 -3.14152739
26 -4.12890600 -15.84375000 -4.20703100 0.61035500 1.38770000 0.43043900
27 6.21448500 0.00000600 0.00002000 -1.05721774 0.19150742 -1.64647869
28 11.94488500 -0.00002900 -0.00019400 -0.92474802 -0.34619175 -1.72824915
29 10.62016600 0.00000200 0.00001000 -2.55314453 -1.18217421 0.72347522
30 4.75115600 0.69437600 -0.83047300 -0.03780400 -0.18352200 0.48585200
31 1.68806500 -0.00002600 0.00000200 -0.00065100 -0.02477000 1.46512300
32 1.33615100 -0.00005100 -0.00000900 0.00460500 -0.03849300 0.25201000
33 4.82051300 0.50934000 0.22486500 -0.17733600 -0.14874800 0.61532900
34 1.82699600 0.00006600 0.00000800 0.02668000 0.03051200 1.99248500
35 1.43657700 -0.00001000 0.00000700 0.01517000 -0.00054900 -0.69368100
36 3.99235300 0.89108700 1.82799400 -0.45611300 0.19472700 1.06434000
37 1.40591800 0.00002100 -0.00000700 -0.01987900 -0.02184300 1.61402000
38 1.17536900 -0.00013100 0.00000200 -0.09560700 0.07797700 -0.93367000
39 4.52675600 0.69046000 1.12084200 -0.39013500 0.02308500 1.05505800
40 1.74404100 -0.00003100 -0.00000200 -0.02942700 -0.00336400 1.86808800
41 1.36876300 -0.00003100 -0.00001700 -0.12964500 0.09180000 -1.14345500
42 1.80859400 0.89502000 -1.11914100 1.99064000 0.37483500 0.55886000
43 1.49610400 -0.23832300 0.04296700 0.00368700 -0.23420200 0.03444700
44 1.57421900 -0.10443100 0.03323400 0.03983900 0.07343900 -0.24672800
45 5.51180600 -0.00000200 0.00000600 -0.95233300 0.00000300 0.00000700
46 0.19685000 0.00000300 -0.00000200 -0.34822500 0.00001500 -0.00000200
47 0.00000000 0.00000000 0.00000000 0.00000000 0.00000000 -1.57079600
48 -3.74609400 32.09375000 -3.29687500 0.00000000 0.00000000 -3.14158800
49 -6.02832922 49.10152000 0.06640800 0.39678764 0.29983678 -0.72582430
50 8.88281300 1.19824200 -4.73437500 0.39724700 1.27412000 1.94589700
51 2.34242200 0.00125700 -1.80825200 0.00000000 0.00000000 0.00000000
52 -2.26218800 -0.00628100 0.14903100 0.00000000 0.00000000 0.00000000
53 0.05843500 0.00066700 0.09728300 0.00000000 0.00000000 0.00000000
54 -1.67978500 0.04617100 1.31566500 0.00000000 0.00000000 0.00000000
55 -0.09301900 -0.03277500 -2.11705000 0.00000000 0.00000000 0.00000000
56 -13.15422100 -0.01003900 1.49217400 0.00000000 0.00000000 0.00000000
57 0.86830900 0.00000000 0.00000000 0.00000000 0.00000000 0.00000000
58 -19.64442800 0.16805900 -1.45964800 0.00000000 0.00000000 0.00000000
59 -5.55856900 -2.25202000 -1.07387900 -2.93780700 1.27049300 -2.15177200
time 9
0 -0.00000100 7.44921900 -27.50000000 0.00000000 0.00000000 -0.00000100
1 -0.00000200 0.00000000 0.00000000 1.57074300 -1.56713700 -1.57074300
2 4.25546800 -0.33518300 -0.00000200 0.00000000 0.00000000 -0.12484800
3 7.43124800 1.49647700 0.00000200 0.00000000 0.00000000 0.24545000
4 5.27847900 0.16554100 0.00000100 0.00000000 0.00000000 0.04851100
5 -0.75510500 -12.09159700 5.55550700 1.97586400 1.15990900 -1.29878600
6 -6.21448200 -0.00000700 -0.00002700 3.11914765 -0.42292694 1.47571732
7 11.94488200 0.00000000 0.00000100 -0.39935297 -0.34893121 1.68019125
8 10.62018100 0.00000200 0.00000000 0.51932302 0.02695804 2.80274845
9 -4.75110600 -0.69449400 0.83057700 -0.04279800 -0.14373000 0.21352800
10 -1.68806800 0.00004600 -0.00003200 0.01415600 -0.02032700 0.83076000
11 -1.33614000 0.00005700 -0.00001200 0.02623400 -0.00294900 0.66576000
12 -4.82049400 -0.50946000 -0.22475900 -0.53674400 -0.28786400 1.24050200
13 -1.82699200 -0.00006400 0.00000600 0.01075000 0.03907500 1.54238600
14 -1.43657300 0.00000600 0.00000200 -0.01733300 -0.07586700 0.13247900
15 -3.99235500 -0.89118800 -1.82790900 -0.75404600 0.18233400 1.60761100
16 -1.40591800 -0.00002500 -0.00000300 -0.00470300 -0.02915200 1.03569300
17 -1.17535800 0.00012800 -0.00002000 0.03338600 0.05922500 0.41712200
18 -4.52675100 -0.69057500 -1.12074400 -0.60429000 -0.05253200 1.52294200
19 -1.74403800 0.00003300 -0.00000800 -0.07947500 0.07644000 1.43815000
20 -1.36877100 0.00002500 0.00000200 0.01001900 0.05155800 0.08706400
21 -2.03710900 -0.89257800 0.93212900 1.97604100 0.32367100 0.83295800
22 -1.70314600 0.14847400 0.12894100 -0.00246100 0.04697500 0.50602900
23 -1.59928500 0.00000400 0.00001600 0.02760900 -0.03292100 0.85326000
24 5.51181500 0.00000800 -0.00000100 2.10188700 -0.00279100 -3.14000200
25 0.19684700 -0.00000100 0.00000300 2.79340698 -0.00027437 -3.14152739
26 -4.12890600 -15.84375000 -4.20703100 0.61035500 1.38770000 0.43043900
27 6.21448500 0.00000600 0.00002000 -1.11147867 0.24191768 -1.61630534
28 11.94488500 -0.00002900 -0.00019400 -0.89119882 -0.34040517 -1.82824741
29 10.62016600 0.00000200 0.00001000 -2.47845433 -1.24190158 0.71266138
30 4.75115600 0.69437600 -0.83047300 -0.03780400 -0.18352200 0.48585200
31 1.68806500 -0.00002600 0.00000200 -0.00065100 -0.02477000 1.46512300
32 1.33615100 -0.00005100 -0.00000900 0.00460500 -0.03849300 0.25201000
33 4.82051300 0.50934000 0.22486500 -0.17733600 -0.14874800 0.61532900
34 1.82699600 0.00006600 0.00000800 0.02668000 0.03051200 1.99248500
35 1.43657700 -0.00001000 0.00000700 0.01517000 -0.00054900 -0.69368100
36 3.99235300 0.89108700 1.82799400 -0.45611300 0.19472700 1.06434000
37 1.40591800 0.00002100 -0.00000700 -0.01987900 -0.02184300 1.61402000
38 1.17536900 -0.00013100 0.00000200 -0.09560700 0.07797700 -0.93367000
39 4.52675600 0.69046000 1.12084200 -0.39013500 0.02308500 1.05505800
40 1.74404100 -0.00003100 -0.00000200 -0.02942700 -0.00336400 1.86808800
41 1.36876300 -0.00003100 -0.00001700 -0.12964500 0.09180000 -1.14345500
42 1.80859400 0.89502000 -1.11914100 1.99064000 0.37483500 0.55886000
43 1.49610400 -0.23832300 0.04296700 0.00367100 -0.23420200 0.03444700
44 1.57421900 -0.10443100 0.03323400 0.03983900 0.07343900 -0.24672800
45 5.51180600 -0.00000200 0.00000600 -0.95233300 0.00000300 0.00000700
46 0.19685000 0.00000300 -0.00000200 -0.34822500 0.00001500 -0.00000200
47 0.00000000 0.00000000 0.00000000 0.00000000 0.00000000 -1.57079600
48 -3.74609400 32.09375000 -3.29687500 0.00000000 0.00000000 -3.14158800
49 -6.79686698 49.03511200 -0.19724489 0.41788471 0.29263798 -0.62552174
50 8.88281300 1.19824200 -4.73437500 0.39724700 1.27412000 1.94589700
51 2.34242200 0.00125700 -1.80825200 0.00000000 0.00000000 0.00000000
52 -2.26218800 -0.00628100 0.14903100 0.00000000 0.00000000 0.00000000
53 0.05843500 0.00066700 0.09728300 0.00000000 0.00000000 0.00000000
54 -1.67978500 0.04617100 1.31566500 0.00000000 0.00000000 0.00000000
55 -0.09301900 -0.03277500 -2.11705000 0.00000000 0.00000000 0.00000000
56 -13.15422100 -0.01003900 1.49217400 0.00000000 0.00000000 0.00000000
57 0.86830900 0.00000000 0.00000000 0.00000000 0.00000000 0.00000000
58 -19.64442800 0.16805900 -1.45964800 0.00000000 0.00000000 0.00000000
59 -5.55856900 -2.25202000 -1.07387900 -2.93780700 1.27049300 -2.15177200
time 10
0 -0.00000100 7.44921900 -27.50000000 0.00000000 0.00000000 -0.00000100
1 -0.00000200 0.00000000 0.00000000 1.57074300 -1.56713700 -1.57074300
2 4.25546800 -0.33518300 -0.00000200 0.00000000 0.00000000 -0.12484800
3 7.43124800 1.49647700 0.00000200 0.00000000 0.00000000 0.24545000
4 5.27847900 0.16554100 0.00000100 0.00000000 0.00000000 0.04851100
5 -1.22387000 -12.61895700 5.95005100 1.97586400 1.15990900 -1.29878600
6 -6.21448200 -0.00000700 -0.00002700 3.08956402 -0.37525528 1.42216930
7 11.94488200 0.00000000 0.00000100 -0.38385621 -0.35066620 1.63471145
8 10.62018100 0.00000200 0.00000000 0.46039630 0.03765674 2.83807462
9 -4.75110600 -0.69449400 0.83057700 -0.04279800 -0.14373000 0.21352800
10 -1.68806800 0.00004600 -0.00003200 0.01415600 -0.02032700 0.83076000
11 -1.33614000 0.00005700 -0.00001200 0.02623400 -0.00294900 0.66576000
12 -4.82049400 -0.50946000 -0.22475900 -0.53674400 -0.28786400 1.24050200
13 -1.82699200 -0.00006400 0.00000600 0.01075000 0.03906300 1.54238600
14 -1.43657300 0.00000600 0.00000200 -0.01733300 -0.07586700 0.13247900
15 -3.99235500 -0.89118800 -1.82790900 -0.75404600 0.18233400 1.60761100
16 -1.40591800 -0.00002500 -0.00000300 -0.00470300 -0.02915200 1.03569300
17 -1.17535800 0.00012800 -0.00002000 0.03338600 0.05922500 0.41712200
18 -4.52675100 -0.69057500 -1.12074400 -0.60429000 -0.05253200 1.52294200
19 -1.74403800 0.00003300 -0.00000800 -0.07947500 0.07644000 1.43815000
20 -1.36877100 0.00002500 0.00000200 0.01001900 0.05155800 0.08706400
21 -2.03710900 -0.89257800 0.93212900 1.97604100 0.32367100 0.83295800
22 -1.70314600 0.14847400 0.12894100 -0.00246100 0.04697500 0.50602900
23 -1.59928500 0.00000400 0.00001600 0.02760900 -0.03292100 0.85322800
24 5.51181500 0.00000800 -0.00000100 2.10188700 -0.00279100 -3.14000200
25 0.19684700 -0.00000100 0.00000300 2.79340698 -0.00027437 -3.14152739
26 -4.12890600 -15.84375000 -4.20703100 0.61035500 1.38770000 0.43043900
27 6.21448500 0.00000600 0.00002000 -1.15156532 0.28216099 -1.59545166
28 11.94488500 -0.00002900 -0.00019400 -0.86607650 -0.33400139 -1.90469031
29 10.62016600 0.00000200 0.00001000 -2.39978454 -1.28936851 0.68179286
30 4.75115600 0.69437600 -0.83047300 -0.03780400 -0.18352200 0.48585200
31 1.68806500 -0.00002600 0.00000200 -0.00065100 -0.02477000 1.46512300
32 1.33615100 -0.00005100 -0.00000900 0.00460500 -0.03849300 0.25201000
33 4.82051300 0.50934000 0.22486500 -0.17733600 -0.14874800 0.61532900
34 1.82699600 0.00006600 0.00000800 0.02668000 0.03051200 1.99248500
35 1.43657700 -0.00001000 0.00000700 0.01517000 -0.00054900 -0.69368100
36 3.99235300 0.89108700 1.82799400 -0.45611300 0.19472700 1.06434000
37 1.40591800 0.00002100 -0.00000700 -0.01987900 -0.02184300 1.61402000
38 1.17536900 -0.00013100 0.00000200 -0.09560700 0.07797700 -0.93367000
39 4.52675600 0.69046000 1.12084200 -0.39013500 0.02308500 1.05505800
40 1.74404100 -0.00003100 -0.00000200 -0.02942700 -0.00336400 1.86808800
41 1.36876300 -0.00003100 -0.00001700 -0.12964500 0.09180000 -1.14345500
42 1.80859400 0.89502000 -1.11914100 1.99064000 0.37483500 0.55886000
43 1.49610400 -0.23832300 0.04296700 0.00368700 -0.23420200 0.03444700
44 1.57421900 -0.10443100 0.03323400 0.03983900 0.07343900 -0.24672800
45 5.51180600 -0.00000200 0.00000600 -0.95233300 0.00000300 0.00000700
46 0.19685000 0.00000300 -0.00000200 -0.34822500 0.00001500 -0.00000200
47 0.00000000 0.00000000 0.00000000 0.00000000 0.00000000 -1.57079600
48 -3.74609400 32.09375000 -3.29687500 0.00000000 0.00000000 -3.14158800
49 -7.35349787 48.98823500 -0.44821534 0.43271376 0.28425516 -0.54383968
50 8.88281300 1.19824200 -4.73437500 0.39724700 1.27412000 1.94589700
51 2.34242200 0.00125700 -1.80825200 0.00000000 0.00000000 0.00000000
52 -2.26218800 -0.00628100 0.14903100 0.00000000 0.00000000 0.00000000
53 0.05843500 0.00066700 0.09728300 0.00000000 0.00000000 0.00000000
54 -1.67978500 0.04617100 1.31566500 0.00000000 0.00000000 0.00000000
55 -0.09301900 -0.03277500 -2.11705000 0.00000000 0.00000000 0.00000000
56 -13.15422100 -0.01003900 1.49217400 0.00000000 0.00000000 0.00000000
57 0.86830900 0.00000000 0.00000000 0.00000000 0.00000000 0.00000000
58 -19.64442800 0.16805900 -1.45964800 0.00000000 0.00000000 0.00000000
59 -5.55856900 -2.25202000 -1.07387900 -2.93780700 1.27049300 -2.15177200
time 11
0 -0.00000100 7.44921900 -27.50000000 0.00000000 0.00000000 -0.00000100
1 -0.00000200 0.00000000 0.00000000 1.57074300 -1.56713700 -1.57074300
2 4.25546800 -0.33518300 -0.00000200 0.00000000 0.00000000 -0.12484800
3 7.43124800 1.49647700 0.00000200 0.00000000 0.00000000 0.24545000
4 5.27847900 0.16554100 0.00000100 0.00000000 0.00000000 0.04851100
5 -1.53247300 -12.96662400 6.21568400 1.97586400 1.15990900 -1.29878600
6 -6.21448200 -0.00000700 -0.00002700 3.07891958 -0.34544154 1.38875495
7 11.94488200 0.00000000 0.00000100 -0.37085944 -0.35122851 1.59669980
8 10.62018100 0.00000200 0.00000000 0.41985039 0.03779654 2.88419372
9 -4.75110600 -0.69449400 0.83057700 -0.04279800 -0.14373000 0.21352800
10 -1.68806800 0.00004600 -0.00003200 0.01415600 -0.02032700 0.83076000
11 -1.33614000 0.00005700 -0.00001200 0.02623400 -0.00294900 0.66576000
12 -4.82049400 -0.50946000 -0.22475900 -0.53674400 -0.28786400 1.24050200
13 -1.82699200 -0.00006400 0.00000600 0.01075000 0.03906300 1.54238600
14 -1.43657300 0.00000600 0.00000200 -0.01733300 -0.07586700 0.13247900
15 -3.99235500 -0.89118800 -1.82790900 -0.75404600 0.18233400 1.60761100
16 -1.40591800 -0.00002500 -0.00000300 -0.00470300 -0.02915200 1.03569300
17 -1.17535800 0.00012800 -0.00002000 0.03338600 0.05922500 0.41712200
18 -4.52675100 -0.69057500 -1.12074400 -0.60429000 -0.05253200 1.52294200
19 -1.74403800 0.00003300 -0.00000800 -0.07947500 0.07644000 1.43815000
20 -1.36877100 0.00002500 0.00000200 0.01001900 0.05155800 0.08706400
21 -2.03710900 -0.89257800 0.93212900 1.97604100 0.32367100 0.83295800
22 -1.70314600 0.14847400 0.12894100 -0.00246100 0.04697500 0.50602900
23 -1.59928500 0.00000400 0.00001600 0.02760900 -0.03292100 0.85322800
24 5.51181500 0.00000800 -0.00000100 2.10188700 -0.00279100 -3.14000200
25 0.19684700 -0.00000100 0.00000300 2.79340698 -0.00027437 -3.14152739
26 -4.12890600 -15.84375000 -4.20703100 0.61035500 1.38770000 0.43043900
27 6.21448500 0.00000600 0.00002000 -1.17407578 0.30570471 -1.58483617
28 11.94488500 -0.00002900 -0.00019400 -0.84895169 -0.32871090 -1.95773547
29 10.62016600 0.00000200 0.00001000 -2.31526813 -1.33437171 0.62944727
30 4.75115600 0.69437600 -0.83047300 -0.03780400 -0.18352200 0.48585200
31 1.68806500 -0.00002600 0.00000200 -0.00065100 -0.02477000 1.46512300
32 1.33615100 -0.00005100 -0.00000900 0.00460500 -0.03849300 0.25201000
33 4.82051300 0.50934000 0.22486500 -0.17733600 -0.14874800 0.61532900
34 1.82699600 0.00006600 0.00000800 0.02668000 0.03051200 1.99248500
35 1.43657700 -0.00001000 0.00000700 0.01517000 -0.00054900 -0.69368100
36 3.99235300 0.89108700 1.82799400 -0.45611300 0.19472700 1.06434000
37 1.40591800 0.00002100 -0.00000700 -0.01987900 -0.02184300 1.61402000
38 1.17536900 -0.00013100 0.00000200 -0.09560700 0.07797700 -0.93367000
39 4.52675600 0.69046000 1.12084200 -0.39013500 0.02308500 1.05505800
40 1.74404100 -0.00003100 -0.00000200 -0.02942700 -0.00336400 1.86808800
41 1.36876300 -0.00003100 -0.00001700 -0.12964500 0.09180000 -1.14345500
42 1.80859400 0.89502000 -1.11914100 1.99064000 0.37483500 0.55886000
43 1.49610400 -0.23832300 0.04296700 0.00367100 -0.23420200 0.03444700
44 1.57421900 -0.10443100 0.03323400 0.03983900 0.07343900 -0.24672800
45 5.51180600 -0.00000200 0.00000600 -0.95233300 0.00000300 0.00000700
46 0.19685000 0.00000300 -0.00000200 -0.34822500 0.00001500 -0.00000200
47 0.00000000 0.00000000 0.00000000 0.00000000 0.00000000 -1.57079600
48 -3.74609400 32.09375000 -3.29687500 0.00000000 0.00000000 -3.14158800
49 -7.62790632 48.95698400 -0.59437477 0.44307607 0.27605586 -0.47963651
50 8.88281300 1.19824200 -4.73437500 0.39724700 1.27412000 1.94589700
51 2.34242200 0.00125700 -1.80825200 0.00000000 0.00000000 0.00000000
52 -2.26218800 -0.00628100 0.14903100 0.00000000 0.00000000 0.00000000
53 0.05843500 0.00066700 0.09728300 0.00000000 0.00000000 0.00000000
54 -1.67978500 0.04617100 1.31566500 0.00000000 0.00000000 0.00000000
55 -0.09301900 -0.03277500 -2.11705000 0.00000000 0.00000000 0.00000000
56 -13.15422100 -0.01003900 1.49217400 0.00000000 0.00000000 0.00000000
57 0.86830900 0.00000000 0.00000000 0.00000000 0.00000000 0.00000000
58 -19.64442800 0.16805900 -1.45964800 0.00000000 0.00000000 0.00000000
59 -5.55856900 -2.25202000 -1.07387900 -2.93780700 1.27049300 -2.15177200
time 12
0 -0.00000100 7.44921900 -27.50000000 0.00000000 0.00000000 -0.00000100
1 -0.00000200 0.00000000 0.00000000 1.57074300 -1.56713700 -1.57074300
2 4.25546800 -0.33518300 -0.00000200 0.00000000 0.00000000 -0.12484800
3 7.43124800 1.49647700 0.00000200 0.00000000 0.00000000 0.24545000
4 5.27847900 0.16554100 0.00000100 0.00000000 0.00000000 0.04851100
5 -1.64575800 -13.09162800 6.30943700 1.97586400 1.15990900 -1.29878600
6 -6.21448200 -0.00000700 -0.00002700 3.08018105 -0.33230426 1.37214957
7 11.94488200 0.00000000 0.00000100 -0.35801113 -0.35111932 1.55917078
8 10.62018100 0.00000200 0.00000000 0.39633456 0.03567584 2.94136434
9 -4.75110600 -0.69449400 0.83057700 -0.04279800 -0.14373000 0.21352800
10 -1.68806800 0.00004600 -0.00003200 0.01415600 -0.02032700 0.83076000
11 -1.33614000 0.00005700 -0.00001200 0.02623400 -0.00294900 0.66576000
12 -4.82049400 -0.50946000 -0.22475900 -0.53674400 -0.28786400 1.24050200
13 -1.82699200 -0.00006400 0.00000600 0.01075000 0.03906300 1.54238600
14 -1.43657300 0.00000600 0.00000200 -0.01733300 -0.07586700 0.13247900
15 -3.99235500 -0.89118800 -1.82790900 -0.75404600 0.18233400 1.60761100
16 -1.40591800 -0.00002500 -0.00000300 -0.00470300 -0.02915200 1.03569300
17 -1.17535800 0.00012800 -0.00002000 0.03338600 0.05922500 0.41712200
18 -4.52675100 -0.69057500 -1.12074400 -0.60429000 -0.05253200 1.52294200
19 -1.74403800 0.00003300 -0.00000800 -0.07947500 0.07644000 1.43815000
20 -1.36877100 0.00002500 0.00000200 0.01001900 0.05155800 0.08706400
21 -2.03710900 -0.89257800 0.93212900 1.97604100 0.32367100 0.83295800
22 -1.70314600 0.14847400 0.12894100 -0.00246100 0.04697500 0.50602900
23 -1.59928500 0.00000400 0.00001600 0.02760900 -0.03292100 0.85322800
24 5.51181500 0.00000800 -0.00000100 2.10188700 -0.00279100 -3.14000200
25 0.19684700 -0.00000100 0.00000300 2.79340698 -0.00027437 -3.14152739
26 -4.12890600 -15.84375000 -4.20703100 0.61035500 1.38770000 0.43043900
27 6.21448500 0.00000600 0.00002000 -1.18713757 0.31895408 -1.57985553
28 11.94488500 -0.00002900 -0.00019400 -0.83734968 -0.32429537 -1.99415878
29 10.62016600 0.00000200 0.00001000 -2.22552711 -1.37178193 0.56206362
30 4.75115600 0.69437600 -0.83047300 -0.03780400 -0.18352200 0.48585200
31 1.68806500 -0.00002600 0.00000200 -0.00065100 -0.02477000 1.46512300
32 1.33615100 -0.00005100 -0.00000900 0.00460500 -0.03849300 0.25201000
33 4.82051300 0.50934000 0.22486500 -0.17733600 -0.14874800 0.61532900
34 1.82699600 0.00006600 0.00000800 0.02668000 0.03051200 1.99248500
35 1.43657700 -0.00001000 0.00000700 0.01517000 -0.00054900 -0.69368100
36 3.99235300 0.89108700 1.82799400 -0.45611300 0.19472700 1.06434000
37 1.40591800 0.00002100 -0.00000700 -0.01987900 -0.02184300 1.61402000
38 1.17536900 -0.00013100 0.00000200 -0.09560700 0.07797700 -0.93367000
39 4.52675600 0.69046000 1.12084200 -0.39013500 0.02308500 1.05505800
40 1.74404100 -0.00003100 -0.00000200 -0.02942700 -0.00336400 1.86808800
41 1.36876300 -0.00003100 -0.00001700 -0.12964500 0.09180000 -1.14345500
42 1.80859400 0.89502000 -1.11914100 1.99064000 0.37483500 0.55886000
43 1.49610400 -0.23832300 0.04296700 0.00368700 -0.23420200 0.03444700
44 1.57421900 -0.10443100 0.03323400 0.03983900 0.07343900 -0.24672800
45 5.51180600 -0.00000200 0.00000600 -0.95233300 0.00000300 0.00000700
46 0.19685000 0.00000300 -0.00000200 -0.34822500 0.00001500 -0.00000200
47 0.00000000 0.00000000 0.00000000 0.00000000 0.00000000 -1.57079600
48 -3.74609400 32.09375000 -3.29687500 0.00000000 0.00000000 -3.14158800
49 -7.76366587 48.93745200 -0.66925533 0.44987488 0.26901657 -0.43155004
50 8.88281300 1.19824200 -4.73437500 0.39724700 1.27412000 1.94589700
51 2.34242200 0.00125700 -1.80825200 0.00000000 0.00000000 0.00000000
52 -2.26218800 -0.00628100 0.14903100 0.00000000 0.00000000 0.00000000
53 0.05843500 0.00066700 0.09728300 0.00000000 0.00000000 0.00000000
54 -1.67978500 0.04617100 1.31566500 0.00000000 0.00000000 0.00000000
55 -0.09301900 -0.03277500 -2.11705000 0.00000000 0.00000000 0.00000000
56 -13.15422100 -0.01003900 1.49217400 0.00000000 0.00000000 0.00000000
57 0.86830900 0.00000000 0.00000000 0.00000000 0.00000000 0.00000000
58 -19.64442800 0.16805900 -1.45964800 0.00000000 0.00000000 0.00000000
59 -5.55856900 -2.25202000 -1.07387900 -2.93780700 1.27049300 -2.15177200
time 13
0 -0.00000100 7.44921900 -27.50000000 0.00000000 0.00000000 -0.00000100
1 -0.00000200 0.00000000 0.00000000 1.57074300 -1.56713700 -1.57074300
2 4.25546800 -0.33518300 -0.00000200 0.00000000 0.00000000 -0.12484800
3 7.43124800 1.49647700 0.00000200 0.00000000 0.00000000 0.24545000
4 5.27847900 0.16554100 0.00000100 0.00000000 0.00000000 0.04851100
5 -1.64575800 -13.09162800 6.30943700 1.97586400 1.15990900 -1.29878600
6 -6.21448200 -0.00000700 -0.00002700 3.08475130 -0.32851272 1.36484105
7 11.94488200 0.00000000 0.00000100 -0.34695210 -0.35032017 1.52684681
8 10.62018100 0.00000200 0.00000000 0.38128568 0.03579579 2.99282209
9 -4.75110600 -0.69449400 0.83057700 -0.04279800 -0.14373000 0.21352800
10 -1.68806800 0.00004600 -0.00003200 0.01415600 -0.02032700 0.83076000
11 -1.33614000 0.00005700 -0.00001200 0.02623400 -0.00294900 0.66576000
12 -4.82049400 -0.50946000 -0.22475900 -0.53674400 -0.28786400 1.24050200
13 -1.82699200 -0.00006400 0.00000600 0.01075000 0.03907500 1.54238600
14 -1.43657300 0.00000600 0.00000200 -0.01733300 -0.07586700 0.13247900
15 -3.99235500 -0.89118800 -1.82790900 -0.75404600 0.18233400 1.60761100
16 -1.40591800 -0.00002500 -0.00000300 -0.00470300 -0.02915200 1.03569300
17 -1.17535800 0.00012800 -0.00002000 0.03338600 0.05922500 0.41712200
18 -4.52675100 -0.69057500 -1.12074400 -0.60429000 -0.05253200 1.52294200
19 -1.74403800 0.00003300 -0.00000800 -0.07947500 0.07644000 1.43815000
20 -1.36877100 0.00002500 0.00000200 0.01001900 0.05155800 0.08706400
21 -2.03710900 -0.89257800 0.93212900 1.97604100 0.32367100 0.83295800
22 -1.70314600 0.14847400 0.12894100 -0.00246100 0.04697500 0.50602900
23 -1.59928500 0.00000400 0.00001600 0.02760900 -0.03292100 0.85322800
24 5.51181500 0.00000800 -0.00000100 2.10188700 -0.00279100 -3.14000200
25 0.19684700 -0.00000100 0.00000300 2.79340698 -0.00027437 -3.14152739
26 -4.12890600 -15.84375000 -4.20703100 0.61035500 1.38770000 0.43043900
27 6.21448500 0.00000600 0.00002000 -1.19485250 0.32495246 -1.57760113
28 11.94488500 -0.00002900 -0.00019400 -0.82998317 -0.32083106 -2.01772534
29 10.62016600 0.00000200 0.00001000 -2.14323971 -1.39991005 0.49807888
30 4.75115600 0.69437600 -0.83047300 -0.03780400 -0.18352200 0.48585200
31 1.68806500 -0.00002600 0.00000200 -0.00065100 -0.02477000 1.46512300
32 1.33615100 -0.00005100 -0.00000900 0.00460500 -0.03849300 0.25201000
33 4.82051300 0.50934000 0.22486500 -0.17733600 -0.14874800 0.61532900
34 1.82699600 0.00006600 0.00000800 0.02668000 0.03051200 1.99248500
35 1.43657700 -0.00001000 0.00000700 0.01517000 -0.00054900 -0.69368100
36 3.99235300 0.89108700 1.82799400 -0.45611300 0.19472700 1.06434000
37 1.40591800 0.00002100 -0.00000700 -0.01987900 -0.02184300 1.61402000
38 1.17536900 -0.00013100 0.00000200 -0.09560700 0.07797700 -0.93367000
39 4.52675600 0.69046000 1.12084200 -0.39013500 0.02308500 1.05505800
40 1.74404100 -0.00003100 -0.00000200 -0.02942700 -0.00336400 1.86808800
41 1.36876300 -0.00003100 -0.00001700 -0.12964500 0.09180000 -1.14345500
42 1.80859400 0.89502000 -1.11914100 1.99064000 0.37483500 0.55886000
43 1.49610400 -0.23832300 0.04296700 0.00367100 -0.23420200 0.03444700
44 1.57421900 -0.10443100 0.03323400 0.03983900 0.07343900 -0.24672800
45 5.51180600 -0.00000200 0.00000600 -0.95233300 0.00000300 0.00000700
46 0.19685000 0.00000300 -0.00000200 -0.34822500 0.00001500 -0.00000200
47 0.00000000 0.00000000 0.00000000 0.00000000 0.00000000 -1.57079600
48 -3.74609400 32.09375000 -3.29687500 0.00000000 0.00000000 -3.14158800
49 -7.82652555 48.92964000 -0.70801545 0.45120581 0.26468497 -0.39834283
50 8.88281300 1.19824200 -4.73437500 0.39724700 1.27412000 1.94589700
51 2.34242200 0.00125700 -1.80825200 0.00000000 0.00000000 0.00000000
52 -2.26218800 -0.00628100 0.14903100 0.00000000 0.00000000 0.00000000
53 0.05843500 0.00066700 0.09728300 0.00000000 0.00000000 0.00000000
54 -1.67978500 0.04617100 1.31566500 0.00000000 0.00000000 0.00000000
55 -0.09301900 -0.03277500 -2.11705000 0.00000000 0.00000000 0.00000000
56 -13.15422100 -0.01003900 1.49217400 0.00000000 0.00000000 0.00000000
57 0.86830900 0.00000000 0.00000000 0.00000000 0.00000000 0.00000000
58 -19.64442800 0.16805900 -1.45964800 0.00000000 0.00000000 0.00000000
59 -5.55856900 -2.25202000 -1.07387900 -2.93780700 1.27049300 -2.15177200
time 14
0 -0.00000100 7.44921900 -27.50000000 0.00000000 0.00000000 -0.00000100
1 -0.00000200 0.00000000 0.00000000 1.57074300 -1.56713700 -1.57074300
2 4.25546800 -0.33518300 -0.00000200 0.00000000 0.00000000 -0.12484800
3 7.43124800 1.49647700 0.00000200 0.00000000 0.00000000 0.24545000
4 5.27847900 0.16554100 0.00000100 0.00000000 0.00000000 0.04851100
5 -1.64575800 -13.09162800 6.30943700 1.97586400 1.15990900 -1.29878600
6 -6.21448200 -0.00000700 -0.00002700 3.08645425 -0.32643196 1.36081749
7 11.94488200 0.00000000 0.00000100 -0.34072173 -0.34951471 1.50864303
8 10.62018100 0.00000200 0.00000000 0.36778809 0.03788028 3.02146190
9 -4.75110600 -0.69449400 0.83057700 -0.04279800 -0.14373000 0.21352800
10 -1.68806800 0.00004600 -0.00003200 0.01415600 -0.02032700 0.83077900
11 -1.33614000 0.00005700 -0.00001200 0.02623400 -0.00294900 0.66576000
12 -4.82049400 -0.50946000 -0.22475900 -0.53674400 -0.28786400 1.24050200
13 -1.82699200 -0.00006400 0.00000600 0.01075000 0.03907500 1.54238600
14 -1.43657300 0.00000600 0.00000200 -0.01733300 -0.07586700 0.13247900
15 -3.99235500 -0.89118800 -1.82790900 -0.75404600 0.18233400 1.60761100
16 -1.40591800 -0.00002500 -0.00000300 -0.00470300 -0.02915200 1.03569300
17 -1.17535800 0.00012800 -0.00002000 0.03338600 0.05922500 0.41712200
18 -4.52675100 -0.69057500 -1.12074400 -0.60429000 -0.05253200 1.52294200
19 -1.74403800 0.00003300 -0.00000800 -0.07947500 0.07644000 1.43815000
20 -1.36877100 0.00002500 0.00000200 0.01001900 0.05155800 0.08706400
21 -2.03710900 -0.89257800 0.93212900 1.97604100 0.32367100 0.83295800
22 -1.70314600 0.14847400 0.12894100 -0.00244900 0.04697500 0.50602900
23 -1.59928500 0.00000400 0.00001600 0.02760900 -0.03292100 0.85326000
24 5.51181500 0.00000800 -0.00000100 2.10188700 -0.00279100 -3.14000200
25 0.19684700 -0.00000100 0.00000300 2.79340698 -0.00027437 -3.14152739
26 -4.12890600 -15.84375000 -4.20703100 0.61035500 1.38770000 0.43043900
27 6.21448500 0.00000600 0.00002000 -1.19911389 0.32549697 -1.57656960
28 11.94488500 -0.00002900 -0.00019400 -0.82606187 -0.31812693 -2.03035786
29 10.62016600 0.00000200 0.00001000 -2.08740702 -1.41919199 0.45813285
30 4.75115600 0.69437600 -0.83047300 -0.03780400 -0.18352200 0.48585200
31 1.68806500 -0.00002600 0.00000200 -0.00065100 -0.02477000 1.46512300
32 1.33615100 -0.00005100 -0.00000900 0.00460500 -0.03849300 0.25201000
33 4.82051300 0.50934000 0.22486500 -0.17733600 -0.14874800 0.61532900
34 1.82699600 0.00006600 0.00000800 0.02668000 0.03051200 1.99248500
35 1.43657700 -0.00001000 0.00000700 0.01518200 -0.00054900 -0.69368100
36 3.99235300 0.89108700 1.82799400 -0.45611300 0.19472700 1.06434000
37 1.40591800 0.00002100 -0.00000700 -0.01987900 -0.02184300 1.61402000
38 1.17536900 -0.00013100 0.00000200 -0.09560700 0.07797700 -0.93367000
39 4.52675600 0.69046000 1.12084200 -0.39013500 0.02308500 1.05505800
40 1.74404100 -0.00003100 -0.00000200 -0.02942700 -0.00336400 1.86808800
41 1.36876300 -0.00003100 -0.00001700 -0.12964500 0.09180000 -1.14345500
42 1.80859400 0.89502000 -1.11914100 1.99064000 0.37483500 0.55886000
43 1.49610400 -0.23832300 0.04296700 0.00367100 -0.23420200 0.03444700
44 1.57421900 -0.10443100 0.03323400 0.03983900 0.07343900 -0.24672800
45 5.51180600 -0.00000200 0.00000600 -0.95233300 0.00000300 0.00000700
46 0.19685000 0.00000300 -0.00000200 -0.34822500 0.00001500 -0.00000200
47 0.00000000 0.00000000 0.00000000 0.00000000 0.00000000 -1.57079600
48 -3.74609400 32.09375000 -3.29687500 0.00000000 0.00000000 -3.14158800
49 -7.83992077 48.92573300 -0.71456212 0.44722698 0.26332469 -0.37873475
50 8.88281300 1.19824200 -4.73437500 0.39724700 1.27412000 1.94589700
51 2.34242200 0.00125700 -1.80825200 0.00000000 0.00000000 0.00000000
52 -2.26218800 -0.00628100 0.14903100 0.00000000 0.00000000 0.00000000
53 0.05843500 0.00066700 0.09728300 0.00000000 0.00000000 0.00000000
54 -1.67978500 0.04617100 1.31566500 0.00000000 0.00000000 0.00000000
55 -0.09301900 -0.03277500 -2.11705000 0.00000000 0.00000000 0.00000000
56 -13.15422100 -0.01003900 1.49217400 0.00000000 0.00000000 0.00000000
57 0.86830900 0.00000000 0.00000000 0.00000000 0.00000000 0.00000000
58 -19.64442800 0.16805900 -1.45964800 0.00000000 0.00000000 0.00000000
59 -5.55856900 -2.25202000 -1.07387900 -2.93780700 1.27049300 -2.15177200
time 15
0 -0.00000100 7.44921900 -27.50000000 0.00000000 0.00000000 -0.00000100
1 -0.00000200 0.00000000 0.00000000 1.57074300 -1.56713700 -1.57074300
2 4.25546800 -0.33518300 -0.00000200 0.00000000 0.00000000 -0.12484800
3 7.43124800 1.49647700 0.00000200 0.00000000 0.00000000 0.24545000
4 5.27847900 0.16554100 0.00000100 0.00000000 0.00000000 0.04851100
5 -1.64575800 -13.09162800 6.30943700 1.97586400 1.15990900 -1.29878600
6 -6.21448200 -0.00000700 -0.00002700 3.08660821 -0.32583992 1.36052829
7 11.94488200 0.00000000 0.00000100 -0.33905514 -0.34888439 1.50371332
8 10.62018100 0.00000200 0.00000000 0.35942577 0.03948975 3.03063892
9 -4.75110600 -0.69449400 0.83057700 -0.04279800 -0.14373000 0.21352800
10 -1.68806800 0.00004600 -0.00003200 0.01415600 -0.02032700 0.83076000
11 -1.33614000 0.00005700 -0.00001200 0.02623400 -0.00294900 0.66576000
12 -4.82049400 -0.50946000 -0.22475900 -0.53674400 -0.28786400 1.24050200
13 -1.82699200 -0.00006400 0.00000600 0.01075000 0.03906300 1.54238600
14 -1.43657300 0.00000600 0.00000200 -0.01733300 -0.07586700 0.13247900
15 -3.99235500 -0.89118800 -1.82790900 -0.75404600 0.18233400 1.60761100
16 -1.40591800 -0.00002500 -0.00000300 -0.00470300 -0.02915200 1.03569300
17 -1.17535800 0.00012800 -0.00002000 0.03338600 0.05922500 0.41712200
18 -4.52675100 -0.69057500 -1.12074400 -0.60429000 -0.05253200 1.52294200
19 -1.74403800 0.00003300 -0.00000800 -0.07947500 0.07644000 1.43815000
20 -1.36877100 0.00002500 0.00000200 0.01001900 0.05155800 0.08706400
21 -2.03710900 -0.89257800 0.93212900 1.97604100 0.32367100 0.83295800
22 -1.70314600 0.14847400 0.12894100 -0.00246100 0.04697500 0.50602900
23 -1.59928500 0.00000400 0.00001600 0.02760900 -0.03292100 0.85322800
24 5.51181500 0.00000800 -0.00000100 2.10188700 -0.00279100 -3.14000200
25 0.19684700 -0.00000100 0.00000300 2.79340698 -0.00027437 -3.14152739
26 -4.12890600 -15.84375000 -4.20703100 0.61035500 1.38770000 0.43043900
27 6.21448500 0.00000600 0.00002000 -1.20044440 0.32346346 -1.57663306
28 11.94488500 -0.00002900 -0.00019400 -0.82490785 -0.31613558 -2.03403928
29 10.62016600 0.00000200 0.00001000 -2.06898231 -1.42897629 0.44856113
30 4.75115600 0.69437600 -0.83047300 -0.03780400 -0.18352200 0.48585200
31 1.68806500 -0.00002600 0.00000200 -0.00065100 -0.02477000 1.46512300
32 1.33615100 -0.00005100 -0.00000900 0.00460500 -0.03849300 0.25201000
33 4.82051300 0.50934000 0.22486500 -0.17733600 -0.14874800 0.61532900
34 1.82699600 0.00006600 0.00000800 0.02668000 0.03051200 1.99248500
35 1.43657700 -0.00001000 0.00000700 0.01517000 -0.00054900 -0.69368100
36 3.99235300 0.89108700 1.82799400 -0.45611300 0.19472700 1.06434000
37 1.40591800 0.00002100 -0.00000700 -0.01987900 -0.02184300 1.61402000
38 1.17536900 -0.00013100 0.00000200 -0.09560700 0.07797700 -0.93367000
39 4.52675600 0.69046000 1.12084200 -0.39013500 0.02308500 1.05505800
40 1.74404100 -0.00003100 -0.00000200 -0.02942700 -0.00336400 1.86808800
41 1.36876300 -0.00003100 -0.00001700 -0.12964500 0.09180000 -1.14345500
42 1.80859400 0.89502000 -1.11914100 1.99064000 0.37483500 0.55886000
43 1.49610400 -0.23832300 0.04296700 0.00368700 -0.23420200 0.03444700
44 1.57421900 -0.10443100 0.03323400 0.03983900 0.07343900 -0.24672800
45 5.51180600 -0.00000200 0.00000600 -0.95233300 0.00000300 0.00000700
46 0.19685000 0.00000300 -0.00000200 -0.34822500 0.00001500 -0.00000200
47 0.00000000 0.00000000 0.00000000 0.00000000 0.00000000 -1.57079600
48 -3.74609400 32.09375000 -3.29687500 0.00000000 0.00000000 -3.14158800
49 -7.82567012 48.92573300 -0.70938979 0.44248701 0.26368385 -0.37161830
50 8.88281300 1.19824200 -4.73437500 0.39724700 1.27412000 1.94589700
51 2.34242200 0.00125700 -1.80825200 0.00000000 0.00000000 0.00000000
52 -2.26218800 -0.00628100 0.14903100 0.00000000 0.00000000 0.00000000
53 0.05843500 0.00066700 0.09728300 0.00000000 0.00000000 0.00000000
54 -1.67978500 0.04617100 1.31566500 0.00000000 0.00000000 0.00000000
55 -0.09301900 -0.03277500 -2.11705000 0.00000000 0.00000000 0.00000000
56 -13.15422100 -0.01003900 1.49217400 0.00000000 0.00000000 0.00000000
57 0.86830900 0.00000000 0.00000000 0.00000000 0.00000000 0.00000000
58 -19.64442800 0.16805900 -1.45964800 0.00000000 0.00000000 0.00000000
59 -5.55856900 -2.25202000 -1.07387900 -2.93780700 1.27049300 -2.15177200
end
