version 1
nodes
0 "root" -1
1 "pelvis" 0
2 "spine_01" 1
3 "spine_02" 2
4 "spine_03" 3
5 "clavicle_r" 4
6 "upperarm_r" 5
7 "lowerarm_r" 6
8 "hand_r" 7
9 "index_01_r" 8
10 "index_02_r" 9
11 "index_03_r" 10
12 "middle_01_r" 8
13 "middle_02_r" 12
14 "middle_03_r" 13
15 "pinky_01_r" 8
16 "pinky_02_r" 15
17 "pinky_03_r" 16
18 "ring_01_r" 8
19 "ring_02_r" 18
20 "ring_03_r" 19
21 "thumb_01_r" 8
22 "thumb_02_r" 21
23 "thumb_03_r" 22
24 "BaseMesh" 8
25 "Mag" 24
26 "Bullet" 25
27 "Trigger" 24
28 "Bolt" 24
29 "rhand_ikTarget" 24
30 "LHand_IKtarget" 24
31 "lowerarm_twist_01_r" 7
32 "upperarm_twist_01_r" 6
33 "clavicle_l" 4
34 "upperarm_l" 33
35 "lowerarm_l" 34
36 "hand_l" 35
37 "index_01_l" 36
38 "index_02_l" 37
39 "index_03_l" 38
40 "middle_01_l" 36
41 "middle_02_l" 40
42 "middle_03_l" 41
43 "pinky_01_l" 36
44 "pinky_02_l" 43
45 "pinky_03_l" 44
46 "ring_01_l" 36
47 "ring_02_l" 46
48 "ring_03_l" 47
49 "thumb_01_l" 36
50 "thumb_02_l" 49
51 "thumb_03_l" 50
52 "BaseLeftMesh" 36
53 "MagLeft" 52
54 "BulletLeft" 53
55 "TriggerLeft" 52
56 "BoltLeft" 52
57 "lowerarm_twist_01_l" 35
58 "upperarm_twist_01_l" 34
59 "cam_driver" -1
end
skeleton
time 0
0 -0.00000100 7.45008900 -27.50902600 0.00000000 0.00000000 0.00003100
1 -0.00000200 0.00000000 0.00000000 1.57074700 -1.56714200 -1.57074700
2 4.25546500 -0.33518500 -0.00000200 0.00000000 0.00000000 -0.12484800
3 7.43125200 1.49648000 0.00000200 0.00000000 0.00000000 0.24545000
4 5.27847600 0.16554200 0.00000100 0.00000000 0.00000000 0.04851100
5 3.24296000 -9.67360700 1.48897600 1.97586600 1.15990900 -1.29878500
6 -6.21447800 -0.00001100 -0.00002800 -2.80961013 -0.68405084 1.64521835
7 11.94488700 0.00000000 -0.00000100 -1.81301777 -0.34887196 1.50943709
8 10.62019000 0.00000000 0.00000000 -0.17843508 -0.73279609 2.56350490
9 -4.75110800 -0.69449200 0.83058100 -0.13482700 -0.13716900 0.57386900
10 -1.68808400 0.00004500 -0.00003100 0.02023500 -0.01422900 0.48281900
11 -1.33614300 0.00005900 -0.00001000 0.02541900 0.00700600 0.28395600
12 -4.82049200 -0.50945900 -0.22475900 -0.38554400 -0.16003900 1.24235500
13 -1.82698400 -0.00007100 0.00001000 0.01073100 0.04384200 1.39533700
14 -1.43657300 0.00000800 0.00000300 -0.05274700 -0.05718100 0.65322700
15 -3.99235500 -0.89118800 -1.82790700 -0.64511400 -0.15783700 0.91087800
16 -1.40592200 -0.00003000 0.00000000 0.00830500 -0.03762200 1.51247500
17 -1.17535800 0.00012400 -0.00002100 0.07866300 0.02068400 0.66847000
18 -4.52674900 -0.69057700 -1.12074200 -0.46313100 -0.09672800 1.18387800
19 -1.74403400 0.00003500 -0.00000700 -0.08084000 0.00318500 1.64197000
20 -1.36876700 0.00002300 0.00000500 0.02704200 0.04494300 0.43660900
21 -1.76337000 -1.11739900 0.88059800 1.92519900 0.66246700 0.79503400
22 -1.52344700 0.00003100 0.00002900 -0.19097800 0.11191200 0.75188300
23 -1.59927900 0.00001000 0.00001100 -0.07634400 -0.04309900 0.82700900
24 -6.79307200 -2.71118800 1.99672300 -0.08283800 -0.23372900 0.41803300
25 -2.56630900 -0.01873900 0.56302700 0.00000000 0.00000200 -0.00000200
26 0.05263100 0.00000000 -0.39527200 0.00000000 0.00000000 0.00000000
27 0.24189900 -0.00969100 -0.98585100 0.00000000 0.00000200 -0.00000200
28 -5.85447900 -0.00967600 1.28885700 -0.00000100 0.00000200 -0.00000100
29 6.64739700 0.02150700 -3.64620500 0.49464000 1.15417900 1.75628200
30 6.53775000 -11.38436000 -2.90326900 2.91418200 -0.31716000 -1.42215800
31 5.51182400 0.00000800 -0.00000400 1.26606387 -0.00031541 -3.14120108
32 0.19684800 0.00000000 0.00000300 2.79340684 -0.00089326 -3.14139920
33 3.24296000 -9.67360700 -1.48897700 1.97586200 1.15991000 1.84280300
34 6.21448800 0.00001100 0.00002100 -0.17619032 0.64572148 -1.36252684
35 11.94488700 -0.00003500 -0.00019900 -0.41172121 -0.34910842 -1.60812905
36 10.62017300 -0.00000400 0.00001000 -1.43095640 -0.69680188 0.31718727
37 4.75117100 0.69437600 -0.83047700 -0.05602700 -0.27916300 0.54604800
38 1.68806800 -0.00002200 0.00000100 0.01539100 -0.01932300 0.76591300
39 1.33614300 -0.00005100 -0.00001000 -0.01007300 -0.03740000 0.63314200
40 4.82051800 0.50934200 0.22486500 -0.47979500 -0.13217500 1.61553200
41 1.82700000 0.00006800 0.00001000 -0.00162300 0.04040900 1.23322100
42 1.43658100 -0.00000600 0.00001100 0.00257700 -0.01488800 0.67137900
43 3.99235700 0.89108800 1.82799600 -0.63310900 -0.00355700 1.48835000
44 1.40592200 0.00003200 -0.00000500 -0.00568500 -0.02893600 1.06850600
45 1.17535800 -0.00012900 0.00000300 0.10607100 0.06286200 0.99298000
46 4.52676800 0.69046600 1.12084000 -0.53897500 -0.03404600 1.64942800
47 1.74403400 -0.00002600 0.00000000 -0.00981300 -0.01254100 1.46893600
48 1.36875900 -0.00003500 -0.00002200 -0.15445000 0.17520300 0.03439000
49 1.87486800 0.93508100 -0.99913000 2.00187500 0.54680000 0.94904700
50 1.52345300 -0.00003600 -0.00000400 -0.38824400 -0.10046600 0.75319800
51 1.59927700 -0.00000600 0.00001400 0.08322400 -0.00653500 0.90419200
52 6.71020600 2.18496600 -1.71425600 -2.99287900 0.35663300 -2.84558900
53 -2.56630700 -0.01874500 0.56303200 0.00000000 0.00000000 0.00000000
54 0.05262800 0.00000000 -0.39527300 0.00000000 0.00000000 0.00000000
55 0.24190300 -0.00968900 -0.98585500 0.00000000 0.00000000 0.00000000
56 -5.85448300 -0.00969000 1.28886300 0.00000000 0.00000000 -0.00000100
57 5.51181000 -0.00001100 0.00000600 -0.23579700 0.00000500 0.00000700
58 0.19684800 0.00000900 -0.00000100 -0.34822500 0.00001500 -0.00000200
59 0.00000000 0.00000000 0.00000000 0.00000000 0.00000000 -1.57079600
time 1
0 -0.00000100 7.45008900 -27.50902600 0.00000000 0.00000000 0.00003100
1 -0.00000200 0.00000000 0.00000000 1.57074700 -1.56714200 -1.57074700
2 4.25546500 -0.33518500 -0.00000200 0.00000000 0.00000000 -0.12484800
3 7.43125200 1.49648000 0.00000200 0.00000000 0.00000000 0.24545000
4 5.23273600 0.49658500 0.00000100 0.00000000 0.00000000 0.04851100
5 3.24296000 -9.67360700 1.48897600 1.97586600 1.15990900 -1.29878500
6 -6.21447800 -0.00001100 -0.00002800 -2.75488796 -0.65597407 1.59122784
7 11.94488700 0.00000000 -0.00000100 -1.80547654 -0.34827435 1.48729513
8 10.62019000 0.00000000 0.00000000 -0.18849045 -0.79683154 2.57954261
9 -4.75110800 -0.69449200 0.83058100 -0.13482700 -0.13716900 0.57386900
10 -1.68808400 0.00004500 -0.00003100 0.02023500 -0.01422900 0.48281900
11 -1.33614300 0.00005900 -0.00001000 0.02541900 0.00700600 0.28395600
12 -4.82049200 -0.50945900 -0.22475900 -0.38565900 -0.16624000 1.24297000
13 -1.82698400 -0.00007100 0.00001000 0.01073100 0.04384200 1.39533700
14 -1.43657300 0.00000800 0.00000300 -0.05274700 -0.05718100 0.65322700
15 -3.99235500 -0.89118800 -1.82790700 -0.64511400 -0.15783700 0.91087800
16 -1.40592200 -0.00003000 0.00000000 0.00830500 -0.03762200 1.51247500
17 -1.17535800 0.00012400 -0.00002100 0.07866300 0.02068400 0.66847000
18 -4.52674900 -0.69057700 -1.12074200 -0.46313100 -0.09672800 1.18387800
19 -1.74403400 0.00003500 -0.00000700 -0.08084000 0.00318500 1.64197000
20 -1.36876700 0.00002300 0.00000500 0.02704200 0.04494300 0.43660900
21 -1.76337000 -1.11739900 0.88059800 1.92519900 0.66246700 0.79503400
22 -1.52344700 0.00003100 0.00002900 -0.19097800 0.11191200 0.75188300
23 -1.59927900 0.00001000 0.00001100 -0.07634400 -0.04309900 0.82700900
24 -6.79307200 -2.71118800 1.99672300 -0.08283800 -0.23372900 0.41803300
25 -2.56630900 -0.01873900 0.56302700 0.00000000 0.00000200 -0.00000200
26 0.05263100 0.00000000 -0.39527200 0.00000000 0.00000000 0.00000000
27 0.24189900 -0.00969100 -0.98585100 0.00000000 0.00000200 -0.00000200
28 -5.85447900 -0.00967600 1.28885700 -0.00000100 0.00000200 -0.00000100
29 6.64739700 0.02150700 -3.64620500 0.49464000 1.15417900 1.75628200
30 6.49740600 -11.22057300 -3.64326900 2.89090200 -0.25922100 -1.42723800
31 5.51182400 0.00000800 -0.00000400 1.26606387 -0.00031541 -3.14120108
32 0.19684800 0.00000000 0.00000300 2.79340684 -0.00089326 -3.14139920
33 3.24296000 -9.67360700 -1.48897700 1.97586200 1.15991000 1.84280300
34 6.21448800 0.00001100 0.00002100 -0.20909821 0.64231568 -1.39602167
35 11.94488700 -0.00003500 -0.00019900 -0.42197521 -0.34935413 -1.57811455
36 10.62017300 -0.00000400 0.00001000 -1.45047214 -0.69821307 0.31197707
37 4.75117100 0.69437600 -0.83047700 -0.05602700 -0.27916300 0.54604800
38 1.68806800 -0.00002200 0.00000100 0.01539100 -0.01932300 0.76591300
39 1.33614300 -0.00005100 -0.00001000 -0.01007300 -0.03740000 0.63314200
40 4.82051800 0.50934200 0.22486500 -0.47979500 -0.13217500 1.61553200
41 1.82700000 0.00006800 0.00001000 -0.00162300 0.04040900 1.23322100
42 1.43658100 -0.00000600 0.00001100 0.00257700 -0.01488800 0.67137900
43 3.99235700 0.89108800 1.82799600 -0.63310900 -0.00355700 1.48835000
44 1.40592200 0.00003200 -0.00000500 -0.00568500 -0.02893600 1.06850600
45 1.17535800 -0.00012900 0.00000300 0.10607100 0.06286200 0.99298000
46 4.52676800 0.69046600 1.12084000 -0.53897500 -0.03404600 1.64942800
47 1.74403400 -0.00002600 0.00000000 -0.00981300 -0.01254100 1.46893600
48 1.36875900 -0.00003500 -0.00002200 -0.15445000 0.17520300 0.03439000
49 1.87486800 0.93508100 -0.99913000 2.00187500 0.54680000 0.94904700
50 1.52345300 -0.00003600 -0.00000400 -0.38824400 -0.10046600 0.75319800
51 1.59927700 -0.00000600 0.00001400 0.08322400 -0.00653500 0.90419200
52 6.71020600 2.18496600 -1.71425600 -2.99287900 0.35663300 -2.84558900
53 -2.56630700 -0.01874500 0.56303200 0.00000000 0.00000000 0.00000000
54 0.05262800 0.00000000 -0.39527300 0.00000000 0.00000000 0.00000000
55 0.24190300 -0.00968900 -0.98585500 0.00000000 0.00000000 0.00000000
56 -5.85448300 -0.00969000 1.28886300 0.00000000 0.00000000 -0.00000100
57 5.51181000 -0.00001100 0.00000600 -0.23579700 0.00000500 0.00000700
58 0.19684800 0.00000900 -0.00000100 -0.34822500 0.00001500 -0.00000200
59 0.00000000 0.00000000 0.00000000 0.00000000 0.00000000 -1.57079600
time 2
0 -0.00000100 7.45008900 -27.50902600 0.00000000 0.00000000 0.00003100
1 -0.00000200 0.00000000 0.00000000 1.57074700 -1.56714200 -1.57074700
2 4.25546500 -0.33518500 -0.00000200 0.00000000 0.00000000 -0.12484800
3 7.43125200 1.49648000 0.00000200 0.00000000 0.00000000 0.24545000
4 5.08411200 1.28407700 0.00000100 0.00000000 0.00000000 0.04851100
5 3.24296000 -9.67360700 1.48897600 1.97586600 1.15990900 -1.29878500
6 -6.21447800 -0.00001100 -0.00002800 -2.63426361 -0.58453023 1.48229266
7 11.94488700 0.00000000 -0.00000100 -1.78278443 -0.34579547 1.42075369
8 10.62019000 0.00000000 0.00000000 -0.19488209 -0.89356006 2.62759693
9 -4.75110800 -0.69449200 0.83058100 -0.13482700 -0.13716900 0.57386900
10 -1.68808400 0.00004500 -0.00003100 0.02023500 -0.01422900 0.48281900
11 -1.33614300 0.00005900 -0.00001000 0.02541900 0.00700600 0.28395600
12 -4.82049200 -0.50945900 -0.22475900 -0.38611000 -0.17992600 1.24430000
13 -1.82698400 -0.00007100 0.00001000 0.01073100 0.04384200 1.39533700
14 -1.43657300 0.00000800 0.00000300 -0.05274700 -0.05718100 0.65322700
15 -3.99235500 -0.89118800 -1.82790700 -0.64511400 -0.15783700 0.91087800
16 -1.40592200 -0.00003000 0.00000000 0.00830500 -0.03762200 1.51247500
17 -1.17535800 0.00012400 -0.00002100 0.07866300 0.02068400 0.66847000
18 -4.52674900 -0.69057700 -1.12074200 -0.46313100 -0.09672800 1.18387800
19 -1.74403400 0.00003500 -0.00000700 -0.08084000 0.00318500 1.64197000
20 -1.36876700 0.00002300 0.00000500 0.02704200 0.04494300 0.43660900
21 -1.76337000 -1.11739900 0.88059800 1.92519900 0.66246700 0.79503400
22 -1.52344700 0.00003100 0.00002900 -0.19097800 0.11191200 0.75188300
23 -1.59927900 0.00001000 0.00001100 -0.07634400 -0.04309900 0.82700900
24 -6.79307200 -2.71118800 1.99672300 -0.08283800 -0.23372900 0.41803300
25 -2.56630900 -0.01873900 0.56302700 0.00000000 0.00000200 -0.00000200
26 0.05263100 0.00000000 -0.39527200 0.00000000 0.00000000 0.00000000
27 0.24189900 -0.00969100 -0.98585100 0.00000000 0.00000200 -0.00000200
28 -5.85447900 -0.00967600 1.28885700 -0.00000100 0.00000200 -0.00000100
29 6.64739700 0.02150700 -3.64620500 0.49464000 1.15417900 1.75628200
30 6.33668200 -10.78504200 -5.23251900 2.83668800 -0.12467100 -1.44895200
31 5.51182400 0.00000800 -0.00000400 1.26606387 -0.00031541 -3.14120108
32 0.19684800 0.00000000 0.00000300 2.79340684 -0.00089326 -3.14139920
33 3.24296000 -9.67360700 -1.48897700 1.97586200 1.15991000 1.84280300
34 6.21448800 0.00001100 0.00002100 -0.29660450 0.63404648 -1.47456219
35 11.94488700 -0.00003500 -0.00019900 -0.44584829 -0.34870182 -1.50848855
36 10.62017300 -0.00000400 0.00001000 -1.47638990 -0.68755830 0.28371577
37 4.75117100 0.69437600 -0.83047700 -0.05602700 -0.27916300 0.54604800
38 1.68806800 -0.00002200 0.00000100 0.01539100 -0.01932300 0.76591300
39 1.33614300 -0.00005100 -0.00001000 -0.01007300 -0.03740000 0.63314200
40 4.82051800 0.50934200 0.22486500 -0.47979500 -0.13217500 1.61553200
41 1.82700000 0.00006800 0.00001000 -0.00162300 0.04040900 1.23322100
42 1.43658100 -0.00000600 0.00001100 0.00257700 -0.01488800 0.67137900
43 3.99235700 0.89108800 1.82799600 -0.63310900 -0.00355700 1.48835000
44 1.40592200 0.00003200 -0.00000500 -0.00568500 -0.02893600 1.06850600
45 1.17535800 -0.00012900 0.00000300 0.10607100 0.06286200 0.99298000
46 4.52676800 0.69046600 1.12084000 -0.53897500 -0.03404600 1.64942800
47 1.74403400 -0.00002600 0.00000000 -0.00981300 -0.01254100 1.46893600
48 1.36875900 -0.00003500 -0.00002200 -0.15445000 0.17520300 0.03439000
49 1.87486800 0.93508100 -0.99913000 2.00187500 0.54680000 0.94904700
50 1.52345300 -0.00003600 -0.00000400 -0.38824400 -0.10046600 0.75319800
51 1.59927700 -0.00000600 0.00001400 0.08322400 -0.00653500 0.90419200
52 6.71020600 2.18496600 -1.71425600 -2.99287900 0.35663300 -2.84558900
53 -2.56630700 -0.01874500 0.56303200 0.00000000 0.00000000 0.00000000
54 0.05262800 0.00000000 -0.39527300 0.00000000 0.00000000 0.00000000
55 0.24190300 -0.00968900 -0.98585500 0.00000000 0.00000000 0.00000000
56 -5.85448300 -0.00969000 1.28886300 0.00000000 0.00000000 -0.00000100
57 5.51181000 -0.00001100 0.00000600 -0.23579700 0.00000500 0.00000700
58 0.19684800 0.00000900 -0.00000100 -0.34822500 0.00001500 -0.00000200
59 0.00000000 0.00000000 0.00000000 0.00000000 0.00000000 -1.57079600
time 3
0 -0.00000100 7.45008900 -27.50902600 0.00000000 0.00000000 0.00003100
1 -0.00000200 0.00000000 0.00000000 1.57074700 -1.56714200 -1.57074700
2 4.25546500 -0.33518500 -0.00000200 0.00000000 0.00000000 -0.12484800
3 7.43125200 1.49648000 0.00000200 0.00000000 0.00000000 0.24545000
4 4.81549700 2.21956000 0.00000100 0.00000000 0.00000000 0.04851100
5 3.24296000 -9.67360700 1.48897600 1.97586600 1.15990900 -1.29878500
6 -6.21447800 -0.00001100 -0.00002800 -2.51121792 -0.50374810 1.38188633
7 11.94488700 0.00000000 -0.00000100 -1.75162772 -0.33995737 1.32840928
8 10.62019000 0.00000000 0.00000000 -0.19253743 -0.93205206 2.67671998
9 -4.75110800 -0.69449200 0.83058100 -0.13482700 -0.13716900 0.57386900
10 -1.68808400 0.00004500 -0.00003100 0.02023500 -0.01422900 0.48281900
11 -1.33614300 0.00005900 -0.00001000 0.02541900 0.00700600 0.28395600
12 -4.82049200 -0.50945900 -0.22475900 -0.38648000 -0.19359000 1.24567600
13 -1.82698400 -0.00007100 0.00001000 0.01073100 0.04384200 1.39533700
14 -1.43657300 0.00000800 0.00000300 -0.05274700 -0.05718100 0.65322700
15 -3.99235500 -0.89118800 -1.82790700 -0.64511400 -0.15783700 0.91087800
16 -1.40592200 -0.00003000 0.00000000 0.00830500 -0.03762200 1.51247500
17 -1.17535800 0.00012400 -0.00002100 0.07866300 0.02068400 0.66847000
18 -4.52674900 -0.69057700 -1.12074200 -0.46313100 -0.09672800 1.18387800
19 -1.74403400 0.00003500 -0.00000700 -0.08084000 0.00318500 1.64197000
20 -1.36876700 0.00002300 0.00000500 0.02704200 0.04494300 0.43660900
21 -1.76337000 -1.11739900 0.88059800 1.92519900 0.66246700 0.79503400
22 -1.52344700 0.00003100 0.00002900 -0.19097800 0.11191200 0.75188300
23 -1.59927900 0.00001000 0.00001100 -0.07634400 -0.04309900 0.82700900
24 -6.79307200 -2.71118800 1.99672300 -0.08283800 -0.23372900 0.41803300
25 -2.56630900 -0.01873900 0.56302700 0.00000000 0.00000200 -0.00000200
26 0.05263100 0.00000000 -0.39527200 0.00000000 0.00000000 0.00000000
27 0.24189900 -0.00969100 -0.98585100 0.00000000 0.00000200 -0.00000200
28 -5.85447900 -0.00967600 1.28885700 -0.00000100 0.00000200 -0.00000100
29 6.64739700 0.02150700 -3.64620500 0.49464000 1.15417900 1.75628200
30 6.14279700 -10.23720600 -6.73441800 2.77173400 0.02875400 -1.48823500
31 5.51182400 0.00000800 -0.00000400 1.26606387 -0.00031541 -3.14120108
32 0.19684800 0.00000000 0.00000300 2.79340684 -0.00089326 -3.14139920
33 3.24296000 -9.67360700 -1.48897700 1.97586200 1.15991000 1.84280300
34 6.21448800 0.00001100 0.00002100 -0.41277747 0.62374160 -1.57053890
35 11.94488700 -0.00003500 -0.00019900 -0.47419439 -0.34589540 -1.42522263
36 10.62017300 -0.00000400 0.00001000 -1.48275857 -0.66519809 0.20708800
37 4.75117100 0.69437600 -0.83047700 -0.05602700 -0.27916300 0.54604800
38 1.68806800 -0.00002200 0.00000100 0.01539100 -0.01932300 0.76591300
39 1.33614300 -0.00005100 -0.00001000 -0.01007300 -0.03740000 0.63314200
40 4.82051800 0.50934200 0.22486500 -0.47979500 -0.13217500 1.61553200
41 1.82700000 0.00006800 0.00001000 -0.00162300 0.04040900 1.23322100
42 1.43658100 -0.00000600 0.00001100 0.00257700 -0.01488800 0.67137900
43 3.99235700 0.89108800 1.82799600 -0.63310900 -0.00355700 1.48835000
44 1.40592200 0.00003200 -0.00000500 -0.00568500 -0.02893600 1.06850600
45 1.17535800 -0.00012900 0.00000300 0.10607100 0.06286200 0.99298000
46 4.52676800 0.69046600 1.12084000 -0.53897500 -0.03404600 1.64942800
47 1.74403400 -0.00002600 0.00000000 -0.00981300 -0.01254100 1.46893600
48 1.36875900 -0.00003500 -0.00002200 -0.15445000 0.17520300 0.03439000
49 1.87486800 0.93508100 -0.99913000 2.00187500 0.54680000 0.94904700
50 1.52345300 -0.00003600 -0.00000400 -0.38824400 -0.10046600 0.75319800
51 1.59927700 -0.00000600 0.00001400 0.08322400 -0.00653500 0.90419200
52 6.71020600 2.18496600 -1.71425600 -2.99287900 0.35663300 -2.84558900
53 -2.56630700 -0.01874500 0.56303200 0.00000000 0.00000000 0.00000000
54 0.05262800 0.00000000 -0.39527300 0.00000000 0.00000000 0.00000000
55 0.24190300 -0.00968900 -0.98585500 0.00000000 0.00000000 0.00000000
56 -5.85448300 -0.00969000 1.28886300 0.00000000 0.00000000 -0.00000100
57 5.51181000 -0.00001100 0.00000600 -0.23579700 0.00000500 0.00000700
58 0.19684800 0.00000900 -0.00000100 -0.34822500 0.00001500 -0.00000200
59 0.00000000 0.00000000 0.00000000 0.00000000 0.00000000 -1.57079600
time 4
0 -0.00000100 7.45008900 -27.50902600 0.00000000 0.00000000 0.00003100
1 -0.00000200 0.00000000 0.00000000 1.57074700 -1.56714200 -1.57074700
2 4.25546500 -0.33518500 -0.00000200 0.00000000 0.00000000 -0.12484800
3 7.43125200 1.49648000 0.00000200 0.00000000 0.00000000 0.24545000
4 4.40978800 2.99457000 0.00000100 0.00000000 0.00000000 0.04851100
5 3.24296000 -9.67360700 1.48897600 1.97586600 1.15990900 -1.29878500
6 -6.21447800 -0.00001100 -0.00002800 -2.41508602 -0.47669909 1.32891889
7 11.94488700 0.00000000 -0.00000100 -1.75618285 -0.34103933 1.34190803
8 10.62019000 0.00000000 0.00000000 -0.13639099 -0.94601793 2.68993378
9 -4.75110800 -0.69449200 0.83058100 -0.13482700 -0.13716900 0.57386900
10 -1.68808400 0.00004500 -0.00003100 0.02023500 -0.01422900 0.48281900
11 -1.33614300 0.00005900 -0.00001000 0.02541900 0.00700600 0.28395600
12 -4.82049200 -0.50945900 -0.22475900 -0.38669100 -0.19987200 1.24630400
13 -1.82698400 -0.00007100 0.00001000 0.01073100 0.04384200 1.39533700
14 -1.43657300 0.00000800 0.00000300 -0.05274700 -0.05718100 0.65322700
15 -3.99235500 -0.89118800 -1.82790700 -0.64511400 -0.15783700 0.91087800
16 -1.40592200 -0.00003000 0.00000000 0.00830500 -0.03762200 1.51247500
17 -1.17535800 0.00012400 -0.00002100 0.07866300 0.02068400 0.66847000
18 -4.52674900 -0.69057700 -1.12074200 -0.46313100 -0.09672800 1.18387800
19 -1.74403400 0.00003500 -0.00000700 -0.08084000 0.00318500 1.64197000
20 -1.36876700 0.00002300 0.00000500 0.02704200 0.04494300 0.43660900
21 -1.76337000 -1.11739900 0.88059800 1.92519900 0.66246700 0.79503400
22 -1.52344700 0.00003100 0.00002900 -0.19097800 0.11191200 0.75188300
23 -1.59927900 0.00001000 0.00001100 -0.07634400 -0.04309900 0.82700900
24 -6.79307200 -2.71118800 1.99672300 -0.08283800 -0.23372900 0.41803300
25 -2.56630900 -0.01873900 0.56302700 0.00000000 0.00000200 -0.00000200
26 0.05263100 0.00000000 -0.39527200 0.00000000 0.00000000 0.00000000
27 0.24189900 -0.00969100 -0.98585100 0.00000000 0.00000200 -0.00000200
28 -5.85447900 -0.00967600 1.28885700 -0.00000100 0.00000200 -0.00000100
29 6.64739700 0.02150700 -3.64620500 0.49464000 1.15417900 1.75628200
30 5.49807100 -9.85981900 -7.60525700 2.68478000 0.15690800 -1.53032300
31 5.51182400 0.00000800 -0.00000400 1.26606387 -0.00031541 -3.14120108
32 0.19684800 0.00000000 0.00000300 2.79340684 -0.00089326 -3.14139920
33 3.24296000 -9.67360700 -1.48897700 1.97586200 1.15991000 1.84280300
34 6.21448800 0.00001100 0.00002100 -0.53559773 0.61764031 -1.66321567
35 11.94488700 -0.00003500 -0.00019900 -0.49873155 -0.34165842 -1.35238647
36 10.62017300 -0.00000400 0.00001000 -1.44594780 -0.62953722 0.05997544
37 4.75117100 0.69437600 -0.83047700 -0.05602700 -0.27916300 0.54604800
38 1.68806800 -0.00002200 0.00000100 0.01539100 -0.01932300 0.76591300
39 1.33614300 -0.00005100 -0.00001000 -0.01007300 -0.03740000 0.63314200
40 4.82051800 0.50934200 0.22486500 -0.47979500 -0.13217500 1.61553200
41 1.82700000 0.00006800 0.00001000 -0.00162300 0.04040900 1.23322100
42 1.43658100 -0.00000600 0.00001100 0.00257700 -0.01488800 0.67137900
43 3.99235700 0.89108800 1.82799600 -0.63310900 -0.00355700 1.48835000
44 1.40592200 0.00003200 -0.00000500 -0.00568500 -0.02893600 1.06850600
45 1.17535800 -0.00012900 0.00000300 0.10607100 0.06286200 0.99298000
46 4.52676800 0.69046600 1.12084000 -0.53897500 -0.03404600 1.64942800
47 1.74403400 -0.00002600 0.00000000 -0.00981300 -0.01254100 1.46893600
48 1.36875900 -0.00003500 -0.00002200 -0.15445000 0.17520300 0.03439000
49 1.87486800 0.93508100 -0.99913000 2.00187500 0.54680000 0.94904700
50 1.52345300 -0.00003600 -0.00000400 -0.38824400 -0.10046600 0.75319800
51 1.59927700 -0.00000600 0.00001400 0.08322400 -0.00653500 0.90419200
52 6.71020600 2.18496600 -1.71425600 -2.99287900 0.35663300 -2.84558900
53 -2.56630700 -0.01874500 0.56303200 0.00000000 0.00000000 0.00000000
54 0.05262800 0.00000000 -0.39527300 0.00000000 0.00000000 0.00000000
55 0.24190300 -0.00968900 -0.98585500 0.00000000 0.00000000 0.00000000
56 -5.85448300 -0.00969000 1.28886300 0.00000000 0.00000000 -0.00000100
57 5.51181000 -0.00001100 0.00000600 -0.23579700 0.00000500 0.00000700
58 0.19684800 0.00000900 -0.00000100 -0.34822500 0.00001500 -0.00000200
59 0.00000000 0.00000000 0.00000000 0.00000000 0.00000000 -1.57079600
time 5
0 -0.00000100 7.45008900 -27.50902600 0.00000000 0.00000000 0.00003100
1 -0.00000200 0.00000000 0.00000000 1.57074700 -1.56714200 -1.57074700
2 4.25546500 -0.33518500 -0.00000200 0.00000000 0.00000000 -0.12484800
3 7.43125200 1.49648000 0.00000200 0.00000000 0.00000000 0.24545000
4 3.84987300 3.30065200 0.00000000 0.00000000 0.00000000 0.04851100
5 3.24296000 -9.67360700 1.48897600 1.97586600 1.15990900 -1.29878500
6 -6.21447800 -0.00001100 -0.00002800 -2.34818856 -0.53286561 1.31524053
7 11.94488700 0.00000000 -0.00000100 -1.81553197 -0.34893306 1.51675539
8 10.62019000 0.00000000 0.00000000 -0.03675119 -0.94217464 2.65856597
9 -4.75110800 -0.69449200 0.83058100 -0.13482700 -0.13716900 0.57386900
10 -1.68808400 0.00004500 -0.00003100 0.02023500 -0.01422900 0.48281900
11 -1.33614300 0.00005900 -0.00001000 0.02541900 0.00700600 0.28395600
12 -4.82049200 -0.50945900 -0.22475900 -0.38669100 -0.19987200 1.24630400
13 -1.82698400 -0.00007100 0.00001000 0.01073100 0.04384200 1.39533700
14 -1.43657300 0.00000800 0.00000300 -0.05274700 -0.05718100 0.65322700
15 -3.99235500 -0.89118800 -1.82790700 -0.64511400 -0.15783700 0.91087800
16 -1.40592200 -0.00003000 0.00000000 0.00830500 -0.03762200 1.51247500
17 -1.17535800 0.00012400 -0.00002100 0.07866300 0.02068400 0.66847000
18 -4.52674900 -0.69057700 -1.12074200 -0.46313100 -0.09672800 1.18387800
19 -1.74403400 0.00003500 -0.00000700 -0.08084000 0.00318500 1.64197000
20 -1.36876700 0.00002300 0.00000500 0.02704200 0.04494300 0.43660900
21 -1.76337000 -1.11739900 0.88059800 1.92519900 0.66246700 0.79503400
22 -1.52344700 0.00003100 0.00002900 -0.19097800 0.11191200 0.75188300
23 -1.59927900 0.00001000 0.00001100 -0.07634400 -0.04309900 0.82700900
24 -6.79307200 -2.71118800 1.99672300 -0.08283800 -0.23372900 0.41803300
25 -2.56630900 -0.01873900 0.56302700 0.00000000 0.00000200 -0.00000200
26 0.05263100 0.00000000 -0.39527200 0.00000000 0.00000000 0.00000000
27 0.24189900 -0.00969100 -0.98585100 0.00000000 0.00000200 -0.00000200
28 -5.85447900 -0.00967600 1.28885700 -0.00000100 0.00000200 -0.00000100
29 6.64739700 0.02150700 -3.64620500 0.49464000 1.15417900 1.75628200
30 4.33038500 -9.70754200 -7.97373400 2.58654800 0.24380800 -1.55605400
31 5.51182400 0.00000800 -0.00000400 1.26606387 -0.00031541 -3.14120108
32 0.19684800 0.00000000 0.00000300 2.79340684 -0.00089326 -3.14139920
33 3.24296000 -9.67360700 -1.48897700 1.97586200 1.15991000 1.84280300
34 6.21448800 0.00001100 0.00002100 -0.65814989 0.62423148 -1.74196134
35 11.94488700 -0.00003500 -0.00019900 -0.51431976 -0.33804227 -1.30575125
36 10.62017300 -0.00000400 0.00001000 -1.35314712 -0.55006796 -0.17038284
37 4.75117100 0.69437600 -0.83047700 -0.05602700 -0.27916300 0.54604800
38 1.68806800 -0.00002200 0.00000100 0.01539100 -0.01932300 0.76591300
39 1.33614300 -0.00005100 -0.00001000 -0.01007300 -0.03740000 0.63314200
40 4.82051800 0.50934200 0.22486500 -0.47979500 -0.13217500 1.61553200
41 1.82700000 0.00006800 0.00001000 -0.00162300 0.04040900 1.23322100
42 1.43658100 -0.00000600 0.00001100 0.00257700 -0.01488800 0.67137900
43 3.99235700 0.89108800 1.82799600 -0.63310900 -0.00355700 1.48835000
44 1.40592200 0.00003200 -0.00000500 -0.00568500 -0.02893600 1.06850600
45 1.17535800 -0.00012900 0.00000300 0.10607100 0.06286200 0.99298000
46 4.52676800 0.69046600 1.12084000 -0.53897500 -0.03404600 1.64942800
47 1.74403400 -0.00002600 0.00000000 -0.00981300 -0.01254100 1.46893600
48 1.36875900 -0.00003500 -0.00002200 -0.15445000 0.17520300 0.03439000
49 1.87486800 0.93508100 -0.99913000 2.00187500 0.54680000 0.94904700
50 1.52345300 -0.00003600 -0.00000400 -0.38824400 -0.10046600 0.75319800
51 1.59927700 -0.00000600 0.00001400 0.08322400 -0.00653500 0.90419200
52 6.71020600 2.18496600 -1.71425600 -2.99287900 0.35663300 -2.84558900
53 -2.56630700 -0.01874500 0.56303200 0.00000000 0.00000000 0.00000000
54 0.05262800 0.00000000 -0.39527300 0.00000000 0.00000000 0.00000000
55 0.24190300 -0.00968900 -0.98585500 0.00000000 0.00000000 0.00000000
56 -5.85448300 -0.00969000 1.28886300 0.00000000 0.00000000 -0.00000100
57 5.51181000 -0.00001100 0.00000600 -0.23579700 0.00000500 0.00000700
58 0.19684800 0.00000900 -0.00000100 -0.34822500 0.00001500 -0.00000200
59 0.00000000 0.00000000 0.00000000 0.00000000 0.00000000 -1.57079600
time 6
0 -0.00000100 7.45008900 -27.50902600 0.00000000 0.00000000 0.00003100
1 -0.00000200 0.00000000 0.00000000 1.57074700 -1.56714200 -1.57074700
2 4.25546500 -0.33518500 -0.00000200 0.00000000 0.00000000 -0.12484800
3 7.43125200 1.49648000 0.00000200 0.00000000 0.00000000 0.24545000
4 3.16175800 2.51548100 0.00000000 0.00000000 0.00000000 0.04851100
5 3.24296000 -9.67360700 1.48897600 1.97586600 1.15990900 -1.29878500
6 -6.21447800 -0.00001100 -0.00002800 -2.32604799 -0.67885108 1.32881354
7 11.94488700 0.00000000 -0.00000100 -1.90534205 -0.34230670 1.78047125
8 10.62019000 0.00000000 0.00000000 -0.00872481 -0.79080610 2.61387964
9 -4.75110800 -0.69449200 0.83058100 -0.13482700 -0.13716900 0.57386900
10 -1.68808400 0.00004500 -0.00003100 0.02023500 -0.01422900 0.48281900
11 -1.33614300 0.00005900 -0.00001000 0.02541900 0.00700600 0.28395600
12 -4.82049200 -0.50945900 -0.22475900 -0.38669100 -0.19987200 1.24630400
13 -1.82698400 -0.00007100 0.00001000 0.01073100 0.04384200 1.39533700
14 -1.43657300 0.00000800 0.00000300 -0.05274700 -0.05718100 0.65322700
15 -3.99235500 -0.89118800 -1.82790700 -0.64511400 -0.15783700 0.91087800
16 -1.40592200 -0.00003000 0.00000000 0.00830500 -0.03762200 1.51247500
17 -1.17535800 0.00012400 -0.00002100 0.07866300 0.02068400 0.66847000
18 -4.52674900 -0.69057700 -1.12074200 -0.46313100 -0.09672800 1.18387800
19 -1.74403400 0.00003500 -0.00000700 -0.08084000 0.00318500 1.64197000
20 -1.36876700 0.00002300 0.00000500 0.02704200 0.04494300 0.43660900
21 -1.76337000 -1.11739900 0.88059800 1.92519900 0.66246700 0.79503400
22 -1.52344700 0.00003100 0.00002900 -0.19097800 0.11191200 0.75188300
23 -1.59927900 0.00001000 0.00001100 -0.07634400 -0.04309900 0.82700900
24 -6.79307200 -2.71118800 1.99672300 -0.08283800 -0.23372900 0.41803300
25 -2.56630900 -0.01873900 0.56302700 0.00000000 0.00000200 -0.00000200
26 0.05263100 0.00000000 -0.39527200 0.00000000 0.00000000 0.00000000
27 0.24189900 -0.00969100 -0.98585100 0.00000000 0.00000200 -0.00000200
28 -5.85447900 -0.00967600 1.28885700 -0.00000100 0.00000200 -0.00000100
29 6.64739700 0.02150700 -3.64620500 0.49464000 1.15417900 1.75628200
30 3.61673900 -9.65368100 -8.06703600 2.56229200 0.30619900 -1.53623900
31 5.51182400 0.00000800 -0.00000400 1.26606387 -0.00031541 -3.14120108
32 0.19684800 0.00000000 0.00000300 2.79340684 -0.00089326 -3.14139920
33 3.24296000 -9.67360700 -1.48897700 1.97586200 1.15991000 1.84280300
34 6.21448800 0.00001100 0.00002100 -0.78209489 0.66566111 -1.80358376
35 11.94488700 -0.00003500 -0.00019900 -0.50171128 -0.34101783 -1.34341135
36 10.62017300 -0.00000400 0.00001000 -1.24461200 -0.40521005 -0.43033989
37 4.75117100 0.69437600 -0.83047700 -0.05602700 -0.27916300 0.54604800
38 1.68806800 -0.00002200 0.00000100 0.01539100 -0.01932300 0.76591300
39 1.33614300 -0.00005100 -0.00001000 -0.01007300 -0.03740000 0.63314200
40 4.82051800 0.50934200 0.22486500 -0.47979500 -0.13217500 1.61553200
41 1.82700000 0.00006800 0.00001000 -0.00162300 0.04040900 1.23322100
42 1.43658100 -0.00000600 0.00001100 0.00257700 -0.01488800 0.67137900
43 3.99235700 0.89108800 1.82799600 -0.63310900 -0.00355700 1.48835000
44 1.40592200 0.00003200 -0.00000500 -0.00568500 -0.02893600 1.06850600
45 1.17535800 -0.00012900 0.00000300 0.10607100 0.06286200 0.99298000
46 4.52676800 0.69046600 1.12084000 -0.53897500 -0.03404600 1.64942800
47 1.74403400 -0.00002600 0.00000000 -0.00981300 -0.01254100 1.46893600
48 1.36875900 -0.00003500 -0.00002200 -0.15445000 0.17520300 0.03439000
49 1.87486800 0.93508100 -0.99913000 2.00187500 0.54680000 0.94904700
50 1.52345300 -0.00003600 -0.00000400 -0.38824400 -0.10046600 0.75319800
51 1.59927700 -0.00000600 0.00001400 0.08322400 -0.00653500 0.90419200
52 6.71020600 2.18496600 -1.71425600 -2.99287900 0.35663300 -2.84558900
53 -2.56630700 -0.01874500 0.56303200 0.00000000 0.00000000 0.00000000
54 0.05262800 0.00000000 -0.39527300 0.00000000 0.00000000 0.00000000
55 0.24190300 -0.00968900 -0.98585500 0.00000000 0.00000000 0.00000000
56 -5.85448300 -0.00969000 1.28886300 0.00000000 0.00000000 -0.00000100
57 5.51181000 -0.00001100 0.00000600 -0.23579700 0.00000500 0.00000700
58 0.19684800 0.00000900 -0.00000100 -0.34822500 0.00001500 -0.00000200
59 0.00000000 0.00000000 0.00000000 0.00000000 0.00000000 -1.57079600
time 7
0 -0.00000100 7.45008900 -27.50902600 0.00000000 0.00000000 0.00003100
1 -0.00000200 0.00000000 0.00000000 1.57074700 -1.56714200 -1.57074700
2 4.25546500 -0.33518500 -0.00000200 0.00000000 0.00000000 -0.12484800
3 7.43125200 1.49648000 0.00000200 0.00000000 0.00000000 0.24545000
4 2.45034300 0.68827500 0.00000000 0.00000000 0.00000000 0.04851100
5 3.24296000 -9.67360700 1.48897600 1.97586600 1.15990900 -1.29878500
6 -6.21447800 -0.00001100 -0.00002800 -2.32711533 -0.83534374 1.33537029
7 11.94488700 0.00000000 -0.00000100 -1.93412973 -0.33522046 1.86715380
8 10.62019000 0.00000000 0.00000000 -0.20594624 -0.25547651 2.55015509
9 -4.75110800 -0.69449200 0.83058100 -0.13482700 -0.13716900 0.57386900
10 -1.68808400 0.00004500 -0.00003100 0.02023500 -0.01422900 0.48281900
11 -1.33614300 0.00005900 -0.00001000 0.02541900 0.00700600 0.28395600
12 -4.82049200 -0.50945900 -0.22475900 -0.38669100 -0.19987200 1.24630400
13 -1.82698400 -0.00007100 0.00001000 0.01073100 0.04384200 1.39533700
14 -1.43657300 0.00000800 0.00000300 -0.05274700 -0.05718100 0.65322700
15 -3.99235500 -0.89118800 -1.82790700 -0.64511400 -0.15783700 0.91087800
16 -1.40592200 -0.00003000 0.00000000 0.00830500 -0.03762200 1.51247500
17 -1.17535800 0.00012400 -0.00002100 0.07866300 0.02068400 0.66847000
18 -4.52674900 -0.69057700 -1.12074200 -0.46313100 -0.09672800 1.18387800
19 -1.74403400 0.00003500 -0.00000700 -0.08084000 0.00318500 1.64197000
20 -1.36876700 0.00002300 0.00000500 0.02704200 0.04494300 0.43660900
21 -1.76337000 -1.11739900 0.88059800 1.92519900 0.66246700 0.79503400
22 -1.52344700 0.00003100 0.00002900 -0.19097800 0.11191200 0.75188300
23 -1.59927900 0.00001000 0.00001100 -0.07634400 -0.04309900 0.82700900
24 -6.79307200 -2.71118800 1.99672300 -0.08283800 -0.23372900 0.41803300
25 -2.56630900 -0.01873900 0.56302700 0.00000000 0.00000200 -0.00000200
26 0.05263100 0.00000000 -0.39527200 0.00000000 0.00000000 0.00000000
27 0.24189900 -0.00969100 -0.98585100 0.00000000 0.00000200 -0.00000200
28 -5.85447900 -0.00967600 1.28885700 -0.00000100 0.00000200 -0.00000100
29 6.64739700 0.02150700 -3.64620500 0.49464000 1.15417900 1.75628200
30 4.92624400 -9.56165600 -7.51781400 2.79531800 0.34176500 -1.42074100
31 5.51182400 0.00000800 -0.00000400 1.26606387 -0.00031541 -3.14120108
32 0.19684800 0.00000000 0.00000300 2.79340684 -0.00089326 -3.14139920
33 3.24296000 -9.67360700 -1.48897700 1.97586200 1.15991000 1.84280300
34 6.21448800 0.00001100 0.00002100 -0.91975377 0.72405026 -1.87493041
35 11.94488700 -0.00003500 -0.00019900 -0.45883546 -0.34773373 -1.47037979
36 10.62017300 -0.00000400 0.00001000 -1.18361781 -0.22335591 -0.62202245
37 4.75117100 0.69437600 -0.83047700 -0.05602700 -0.27916300 0.54604800
38 1.68806800 -0.00002200 0.00000100 0.01539100 -0.01932300 0.76591300
39 1.33614300 -0.00005100 -0.00001000 -0.01007300 -0.03740000 0.63314200
40 4.82051800 0.50934200 0.22486500 -0.47979500 -0.13217500 1.61553200
41 1.82700000 0.00006800 0.00001000 -0.00162300 0.04040900 1.23322100
42 1.43658100 -0.00000600 0.00001100 0.00257700 -0.01488800 0.67137900
43 3.99235700 0.89108800 1.82799600 -0.63310900 -0.00355700 1.48835000
44 1.40592200 0.00003200 -0.00000500 -0.00568500 -0.02893600 1.06850600
45 1.17535800 -0.00012900 0.00000300 0.10607100 0.06286200 0.99298000
46 4.52676800 0.69046600 1.12084000 -0.53897500 -0.03404600 1.64942800
47 1.74403400 -0.00002600 0.00000000 -0.00981300 -0.01254100 1.46893600
48 1.36875900 -0.00003500 -0.00002200 -0.15445000 0.17520300 0.03439000
49 1.87486800 0.93508100 -0.99913000 2.00187500 0.54680000 0.94904700
50 1.52345300 -0.00003600 -0.00000400 -0.38824400 -0.10046600 0.75319800
51 1.59927700 -0.00000600 0.00001400 0.08322400 -0.00653500 0.90419200
52 6.71020600 2.18496600 -1.71425600 -2.99287900 0.35663300 -2.84558900
53 -2.56630700 -0.01874500 0.56303200 0.00000000 0.00000000 0.00000000
54 0.05262800 0.00000000 -0.39527300 0.00000000 0.00000000 0.00000000
55 0.24190300 -0.00968900 -0.98585500 0.00000000 0.00000000 0.00000000
56 -5.85448300 -0.00969000 1.28886300 0.00000000 0.00000000 -0.00000100
57 5.51181000 -0.00001100 0.00000600 -0.23579700 0.00000500 0.00000700
58 0.19684800 0.00000900 -0.00000100 -0.34822500 0.00001500 -0.00000200
59 0.00000000 0.00000000 0.00000000 0.00000000 0.00000000 -1.57079600
time 8
0 -0.00000100 7.45008900 -27.50902600 0.00000000 0.00000000 0.00003100
1 -0.00000200 0.00000000 0.00000000 1.57074700 -1.56714200 -1.57074700
2 4.25546500 -0.33518500 -0.00000200 0.00000000 0.00000000 -0.12484800
3 7.43125200 1.49648000 0.00000200 0.00000000 0.00000000 0.24545000
4 1.81685600 -1.48211100 0.00000000 0.00000000 0.00000000 0.04851100
5 3.24296000 -9.67360700 1.48897600 1.97586600 1.15990900 -1.29878500
6 -6.21447800 -0.00001100 -0.00002800 -2.18449114 -0.74955886 1.20189937
7 11.94488700 0.00000000 -0.00000100 -1.85348687 -0.34884427 1.62777202
8 10.62019000 0.00000000 0.00000000 -0.63439198 0.48267682 2.29717915
9 -4.75110800 -0.69449200 0.83058100 -0.13482700 -0.13716900 0.57386900
10 -1.68808400 0.00004500 -0.00003100 0.02023500 -0.01422900 0.48281900
11 -1.33614300 0.00005900 -0.00001000 0.02541900 0.00700600 0.28395600
12 -4.82049200 -0.50945900 -0.22475900 -0.38669100 -0.19987200 1.24630400
13 -1.82698400 -0.00007100 0.00001000 0.01073100 0.04384200 1.39533700
14 -1.43657300 0.00000800 0.00000300 -0.05274700 -0.05718100 0.65322700
15 -3.99235500 -0.89118800 -1.82790700 -0.64511400 -0.15783700 0.91087800
16 -1.40592200 -0.00003000 0.00000000 0.00830500 -0.03762200 1.51247500
17 -1.17535800 0.00012400 -0.00002100 0.07866300 0.02068400 0.66847000
18 -4.52674900 -0.69057700 -1.12074200 -0.46313100 -0.09672800 1.18387800
19 -1.74403400 0.00003500 -0.00000700 -0.08084000 0.00318500 1.64197000
20 -1.36876700 0.00002300 0.00000500 0.02704200 0.04494300 0.43660900
21 -1.76337000 -1.11739900 0.88059800 1.92519900 0.66246700 0.79503400
22 -1.52344700 0.00003100 0.00002900 -0.19097800 0.11191200 0.75188300
23 -1.59927900 0.00001000 0.00001100 -0.07634400 -0.04309900 0.82700900
24 -6.79307200 -2.71118800 1.99672300 -0.08283800 -0.23372900 0.41803300
25 -2.56630900 -0.01873900 0.56302700 0.00000000 0.00000200 -0.00000200
26 0.05263100 0.00000000 -0.39527200 0.00000000 0.00000000 0.00000000
27 0.24189900 -0.00969100 -0.98585100 0.00000000 0.00000200 -0.00000200
28 -5.85447900 -0.00967600 1.28885700 -0.00000100 0.00000200 -0.00000100
29 6.64739700 0.02150700 -3.64620500 0.49464000 1.15417900 1.75628200
30 7.58393800 -9.66230200 -4.84540500 -2.98761100 0.24204200 -1.24643000
31 5.51182400 0.00000800 -0.00000400 1.26606387 -0.00031541 -3.14120108
32 0.19684800 0.00000000 0.00000300 2.79340684 -0.00089326 -3.14139920
33 3.24296000 -9.67360700 -1.48897700 1.97586200 1.15991000 1.84280300
34 6.21448800 0.00001100 0.00002100 -1.05610381 0.76063745 -1.96350712
35 11.94488700 -0.00003500 -0.00019900 -0.40200504 -0.34868275 -1.63663428
36 10.62017300 -0.00000400 0.00001000 -1.16881411 -0.06338331 -0.71327276
37 4.75117100 0.69437600 -0.83047700 -0.05602700 -0.27916300 0.54604800
38 1.68806800 -0.00002200 0.00000100 0.01539100 -0.01932300 0.76591300
39 1.33614300 -0.00005100 -0.00001000 -0.01007300 -0.03740000 0.63314200
40 4.82051800 0.50934200 0.22486500 -0.47979500 -0.13217500 1.61553200
41 1.82700000 0.00006800 0.00001000 -0.00162300 0.04040900 1.23322100
42 1.43658100 -0.00000600 0.00001100 0.00257700 -0.01488800 0.67137900
43 3.99235700 0.89108800 1.82799600 -0.63310900 -0.00355700 1.48835000
44 1.40592200 0.00003200 -0.00000500 -0.00568500 -0.02893600 1.06850600
45 1.17535800 -0.00012900 0.00000300 0.10607100 0.06286200 0.99298000
46 4.52676800 0.69046600 1.12084000 -0.53897500 -0.03404600 1.64942800
47 1.74403400 -0.00002600 0.00000000 -0.00981300 -0.01254100 1.46893600
48 1.36875900 -0.00003500 -0.00002200 -0.15445000 0.17520300 0.03439000
49 1.87486800 0.93508100 -0.99913000 2.00187500 0.54680000 0.94904700
50 1.52345300 -0.00003600 -0.00000400 -0.38824400 -0.10046600 0.75319800
51 1.59927700 -0.00000600 0.00001400 0.08322400 -0.00653500 0.90419200
52 6.71020600 2.18496600 -1.71425600 -2.99287900 0.35663300 -2.84558900
53 -2.56630700 -0.01874500 0.56303200 0.00000000 0.00000000 0.00000000
54 0.05262800 0.00000000 -0.39527300 0.00000000 0.00000000 0.00000000
55 0.24190300 -0.00968900 -0.98585500 0.00000000 0.00000000 0.00000000
56 -5.85448300 -0.00969000 1.28886300 0.00000000 0.00000000 -0.00000100
57 5.51181000 -0.00001100 0.00000600 -0.23579700 0.00000500 0.00000700
58 0.19684800 0.00000900 -0.00000100 -0.34822500 0.00001500 -0.00000200
59 0.00000000 0.00000000 0.00000000 0.00000000 0.00000000 -1.57079600
time 9
0 -0.00000100 7.45008900 -27.50902600 0.00000000 0.00000000 0.00003100
1 -0.00000200 0.00000000 0.00000000 1.57074700 -1.56714200 -1.57074700
2 4.25546500 -0.33518500 -0.00000200 0.00000000 0.00000000 -0.12484800
3 7.43125200 1.49648000 0.00000200 0.00000000 0.00000000 0.24545000
4 1.36252800 -3.29683300 0.00000000 0.00000000 0.00000000 0.04851100
5 3.24296000 -9.67360700 1.48897600 1.97586600 1.15990900 -1.29878500
6 -6.21447800 -0.00001100 -0.00002800 -2.11555309 -0.80511188 1.14861124
7 11.94488700 0.00000000 -0.00000100 -1.91731474 -0.33970945 1.81638044
8 10.62019000 0.00000000 0.00000000 -0.54256032 0.48587301 2.39503446
9 -4.75110800 -0.69449200 0.83058100 -0.13482700 -0.13716900 0.57386900
10 -1.68808400 0.00004500 -0.00003100 0.02023500 -0.01422900 0.48281900
11 -1.33614300 0.00005900 -0.00001000 0.02541900 0.00700600 0.28395600
12 -4.82049200 -0.50945900 -0.22475900 -0.38669100 -0.19987200 1.24630400
13 -1.82698400 -0.00007100 0.00001000 0.01073100 0.04384200 1.39533700
14 -1.43657300 0.00000800 0.00000300 -0.05274700 -0.05718100 0.65322700
15 -3.99235500 -0.89118800 -1.82790700 -0.64511400 -0.15783700 0.91087800
16 -1.40592200 -0.00003000 0.00000000 0.00830500 -0.03762200 1.51247500
17 -1.17535800 0.00012400 -0.00002100 0.07866300 0.02068400 0.66847000
18 -4.52674900 -0.69057700 -1.12074200 -0.46313100 -0.09672800 1.18387800
19 -1.74403400 0.00003500 -0.00000700 -0.08084000 0.00318500 1.64197000
20 -1.36876700 0.00002300 0.00000500 0.02704200 0.04494300 0.43660900
21 -1.76337000 -1.11739900 0.88059800 1.92519900 0.66246700 0.79503400
22 -1.52344700 0.00003100 0.00002900 -0.19097800 0.11191200 0.75188300
23 -1.59927900 0.00001000 0.00001100 -0.07634400 -0.04309900 0.82700900
24 -6.79307200 -2.71118800 1.99672300 -0.08283800 -0.23372900 0.41803300
25 -2.56630900 -0.01873900 0.56302700 0.00000000 0.00000200 -0.00000200
26 0.05263100 0.00000000 -0.39527200 0.00000000 0.00000000 0.00000000
27 0.24189900 -0.00969100 -0.98585100 0.00000000 0.00000200 -0.00000200
28 -5.85447900 -0.00967600 1.28885700 -0.00000100 0.00000200 -0.00000100
29 6.64739700 0.02150700 -3.64620500 0.49464000 1.15417900 1.75628200
30 7.19321100 -9.86607200 -4.93763000 -3.10127300 0.24899300 -1.23286300
31 5.51182400 0.00000800 -0.00000400 1.26606387 -0.00031541 -3.14120108
32 0.19684800 0.00000000 0.00000300 2.79340684 -0.00089326 -3.14139920
33 3.24296000 -9.67360700 -1.48897700 1.97586200 1.15991000 1.84280300
34 6.21448800 0.00001100 0.00002100 -1.15325711 0.76659124 -2.04099346
35 11.94488700 -0.00003500 -0.00019900 -0.35211392 -0.34203126 -1.78380522
36 10.62017300 -0.00000400 0.00001000 -1.16533376 0.03244789 -0.72854570
37 4.75117100 0.69437600 -0.83047700 -0.05602700 -0.27916300 0.54604800
38 1.68806800 -0.00002200 0.00000100 0.01539100 -0.01932300 0.76591300
39 1.33614300 -0.00005100 -0.00001000 -0.01007300 -0.03740000 0.63314200
40 4.82051800 0.50934200 0.22486500 -0.47979500 -0.13217500 1.61553200
41 1.82700000 0.00006800 0.00001000 -0.00162300 0.04040900 1.23322100
42 1.43658100 -0.00000600 0.00001100 0.00257700 -0.01488800 0.67137900
43 3.99235700 0.89108800 1.82799600 -0.63310900 -0.00355700 1.48835000
44 1.40592200 0.00003200 -0.00000500 -0.00568500 -0.02893600 1.06850600
45 1.17535800 -0.00012900 0.00000300 0.10607100 0.06286200 0.99298000
46 4.52676800 0.69046600 1.12084000 -0.53897500 -0.03404600 1.64942800
47 1.74403400 -0.00002600 0.00000000 -0.00981300 -0.01254100 1.46893600
48 1.36875900 -0.00003500 -0.00002200 -0.15445000 0.17520300 0.03439000
49 1.87486800 0.93508100 -0.99913000 2.00187500 0.54680000 0.94904700
50 1.52345300 -0.00003600 -0.00000400 -0.38824400 -0.10046600 0.75319800
51 1.59927700 -0.00000600 0.00001400 0.08322400 -0.00653500 0.90419200
52 6.71020600 2.18496600 -1.71425600 -2.99287900 0.35663300 -2.84558900
53 -2.56630700 -0.01874500 0.56303200 0.00000000 0.00000000 0.00000000
54 0.05262800 0.00000000 -0.39527300 0.00000000 0.00000000 0.00000000
55 0.24190300 -0.00968900 -0.98585500 0.00000000 0.00000000 0.00000000
56 -5.85448300 -0.00969000 1.28886300 0.00000000 0.00000000 -0.00000100
57 5.51181000 -0.00001100 0.00000600 -0.23579700 0.00000500 0.00000700
58 0.19684800 0.00000900 -0.00000100 -0.34822500 0.00001500 -0.00000200
59 0.00000000 0.00000000 0.00000000 0.00000000 0.00000000 -1.57079600
time 10
0 -0.00000100 7.45008900 -27.50902600 0.00000000 0.00000000 0.00003100
1 -0.00000200 0.00000000 0.00000000 1.57074700 -1.56714200 -1.57074700
2 4.25546500 -0.33518500 -0.00000200 0.00000000 0.00000000 -0.12484800
3 7.43125200 1.49648000 0.00000200 0.00000000 0.00000000 0.24545000
4 1.18858700 -4.05704100 0.00000000 0.00000000 0.00000000 0.04851100
5 3.24296000 -9.67360700 1.48897600 1.97586600 1.15990900 -1.29878500
6 -6.21447800 -0.00001100 -0.00002800 -2.08638495 -0.83408964 1.12467617
7 11.94488700 0.00000000 -0.00000100 -1.94808875 -0.33088486 1.90982118
8 10.62019000 0.00000000 0.00000000 -0.46923241 0.46198001 2.45573878
9 -4.75110800 -0.69449200 0.83058100 -0.13482700 -0.13716900 0.57386900
10 -1.68808400 0.00004500 -0.00003100 0.02023500 -0.01422900 0.48281900
11 -1.33614300 0.00005900 -0.00001000 0.02541900 0.00700600 0.28395600
12 -4.82049200 -0.50945900 -0.22475900 -0.38669100 -0.19987200 1.24630400
13 -1.82698400 -0.00007100 0.00001000 0.01073100 0.04384200 1.39533700
14 -1.43657300 0.00000800 0.00000300 -0.05274700 -0.05718100 0.65322700
15 -3.99235500 -0.89118800 -1.82790700 -0.64511400 -0.15783700 0.91087800
16 -1.40592200 -0.00003000 0.00000000 0.00830500 -0.03762200 1.51247500
17 -1.17535800 0.00012400 -0.00002100 0.07866300 0.02068400 0.66847000
18 -4.52674900 -0.69057700 -1.12074200 -0.46313100 -0.09672800 1.18387800
19 -1.74403400 0.00003500 -0.00000700 -0.08084000 0.00318500 1.64197000
20 -1.36876700 0.00002300 0.00000500 0.02704200 0.04494300 0.43660900
21 -1.76337000 -1.11739900 0.88059800 1.92519900 0.66246700 0.79503400
22 -1.52344700 0.00003100 0.00002900 -0.19097800 0.11191200 0.75188300
23 -1.59927900 0.00001000 0.00001100 -0.07634400 -0.04309900 0.82700900
24 -6.79307200 -2.71118800 1.99672300 -0.08283800 -0.23372900 0.41803300
25 -2.56630900 -0.01873900 0.56302700 0.00000000 0.00000200 -0.00000200
26 0.05263100 0.00000000 -0.39527200 0.00000000 0.00000000 0.00000000
27 0.24189900 -0.00969100 -0.98585100 0.00000000 0.00000200 -0.00000200
28 -5.85447900 -0.00967600 1.28885700 -0.00000100 0.00000200 -0.00000100
29 6.64739700 0.02150700 -3.64620500 0.49464000 1.15417900 1.75628200
30 6.94397200 -9.95056700 -5.06251400 3.12145800 0.25699900 -1.23163100
31 5.51182400 0.00000800 -0.00000400 1.26606387 -0.00031541 -3.14120108
32 0.19684800 0.00000000 0.00000300 2.79340684 -0.00089326 -3.14139920
33 3.24296000 -9.67360700 -1.48897700 1.97586200 1.15991000 1.84280300
34 6.21448800 0.00001100 0.00002100 -1.18879528 0.76187091 -2.07322787
35 11.94488700 -0.00003500 -0.00019900 -0.33190076 -0.33728749 -1.84431831
36 10.62017300 -0.00000400 0.00001000 -1.15790626 0.06505016 -0.72268412
37 4.75117100 0.69437600 -0.83047700 -0.05602700 -0.27916300 0.54604800
38 1.68806800 -0.00002200 0.00000100 0.01539100 -0.01932300 0.76591300
39 1.33614300 -0.00005100 -0.00001000 -0.01007300 -0.03740000 0.63314200
40 4.82051800 0.50934200 0.22486500 -0.47979500 -0.13217500 1.61553200
41 1.82700000 0.00006800 0.00001000 -0.00162300 0.04040900 1.23322100
42 1.43658100 -0.00000600 0.00001100 0.00257700 -0.01488800 0.67137900
43 3.99235700 0.89108800 1.82799600 -0.63310900 -0.00355700 1.48835000
44 1.40592200 0.00003200 -0.00000500 -0.00568500 -0.02893600 1.06850600
45 1.17535800 -0.00012900 0.00000300 0.10607100 0.06286200 0.99298000
46 4.52676800 0.69046600 1.12084000 -0.53897500 -0.03404600 1.64942800
47 1.74403400 -0.00002600 0.00000000 -0.00981300 -0.01254100 1.46893600
48 1.36875900 -0.00003500 -0.00002200 -0.15445000 0.17520300 0.03439000
49 1.87486800 0.93508100 -0.99913000 2.00187500 0.54680000 0.94904700
50 1.52345300 -0.00003600 -0.00000400 -0.38824400 -0.10046600 0.75319800
51 1.59927700 -0.00000600 0.00001400 0.08322400 -0.00653500 0.90419200
52 6.71020600 2.18496600 -1.71425600 -2.99287900 0.35663300 -2.84558900
53 -2.56630700 -0.01874500 0.56303200 0.00000000 0.00000000 0.00000000
54 0.05262800 0.00000000 -0.39527300 0.00000000 0.00000000 0.00000000
55 0.24190300 -0.00968900 -0.98585500 0.00000000 0.00000000 0.00000000
56 -5.85448300 -0.00969000 1.28886300 0.00000000 0.00000000 -0.00000100
57 5.51181000 -0.00001100 0.00000600 -0.23579700 0.00000500 0.00000700
58 0.19684800 0.00000900 -0.00000100 -0.34822500 0.00001500 -0.00000200
59 0.00000000 0.00000000 0.00000000 0.00000000 0.00000000 -1.57079600
time 11
0 -0.00000100 7.45008900 -27.50902600 0.00000000 0.00000000 0.00003100
1 -0.00000200 0.00000000 0.00000000 1.57074700 -1.56714200 -1.57074700
2 4.25546500 -0.33518500 -0.00000200 0.00000000 0.00000000 -0.12484800
3 7.43125200 1.49648000 0.00000200 0.00000000 0.00000000 0.24545000
4 1.18858700 -4.05704100 0.00000000 0.00000000 0.00000000 0.04851100
5 3.24296000 -9.67360700 1.48897600 1.97586600 1.15990900 -1.29878500
6 -6.21447800 -0.00001100 -0.00002800 -2.08259204 -0.83652861 1.12785321
7 11.94488700 0.00000000 -0.00000100 -1.95076504 -0.33005236 1.91803393
8 10.62019000 0.00000000 0.00000000 -0.43942622 0.46306181 2.46889760
9 -4.75110800 -0.69449200 0.83058100 -0.13482700 -0.13716900 0.57386900
10 -1.68808400 0.00004500 -0.00003100 0.02023500 -0.01422900 0.48281900
11 -1.33614300 0.00005900 -0.00001000 0.02541900 0.00700600 0.28395600
12 -4.82049200 -0.50945900 -0.22475900 -0.38669100 -0.19987200 1.24630400
13 -1.82698400 -0.00007100 0.00001000 0.01073100 0.04384200 1.39533700
14 -1.43657300 0.00000800 0.00000300 -0.05274700 -0.05718100 0.65322700
15 -3.99235500 -0.89118800 -1.82790700 -0.64511400 -0.15783700 0.91087800
16 -1.40592200 -0.00003000 0.00000000 0.00830500 -0.03762200 1.51247500
17 -1.17535800 0.00012400 -0.00002100 0.07866300 0.02068400 0.66847000
18 -4.52674900 -0.69057700 -1.12074200 -0.46313100 -0.09672800 1.18387800
19 -1.74403400 0.00003500 -0.00000700 -0.08084000 0.00318500 1.64197000
20 -1.36876700 0.00002300 0.00000500 0.02704200 0.04494300 0.43660900
21 -1.76337000 -1.11739900 0.88059800 1.92519900 0.66246700 0.79503400
22 -1.52344700 0.00003100 0.00002900 -0.19097800 0.11191200 0.75188300
23 -1.59927900 0.00001000 0.00001100 -0.07634400 -0.04309900 0.82700900
24 -6.79307200 -2.71118800 1.99672300 -0.08283800 -0.23372900 0.41803300
25 -2.56630900 -0.01873900 0.56302700 0.00000000 0.00000200 -0.00000200
26 0.05263100 0.00000000 -0.39527200 0.00000000 0.00000000 0.00000000
27 0.24189900 -0.00969100 -0.98585100 0.00000000 0.00000200 -0.00000200
28 -5.85447900 -0.00967600 1.28885700 -0.00000100 0.00000200 -0.00000100
29 6.64739700 0.02150700 -3.64620500 0.49464000 1.15417900 1.75628200
30 6.91907300 -9.96606200 -5.06857900 3.12057100 0.25577900 -1.23354600
31 5.51182400 0.00000800 -0.00000400 1.26606387 -0.00031541 -3.14120108
32 0.19684800 0.00000000 0.00000300 2.79340684 -0.00089326 -3.14139920
33 3.24296000 -9.67360700 -1.48897700 1.97586200 1.15991000 1.84280300
34 6.21448800 0.00001100 0.00002100 -1.19070595 0.76141338 -2.07271469
35 11.94488700 -0.00003500 -0.00019900 -0.33248600 -0.33748428 -1.84270041
36 10.62017300 -0.00000400 0.00001000 -1.14808936 0.07047061 -0.72246487
37 4.75117100 0.69437600 -0.83047700 -0.05602700 -0.27916300 0.54604800
38 1.68806800 -0.00002200 0.00000100 0.01539100 -0.01932300 0.76591300
39 1.33614300 -0.00005100 -0.00001000 -0.01007300 -0.03740000 0.63314200
40 4.82051800 0.50934200 0.22486500 -0.47979500 -0.13217500 1.61553200
41 1.82700000 0.00006800 0.00001000 -0.00162300 0.04040900 1.23322100
42 1.43658100 -0.00000600 0.00001100 0.00257700 -0.01488800 0.67137900
43 3.99235700 0.89108800 1.82799600 -0.63310900 -0.00355700 1.48835000
44 1.40592200 0.00003200 -0.00000500 -0.00568500 -0.02893600 1.06850600
45 1.17535800 -0.00012900 0.00000300 0.10607100 0.06286200 0.99298000
46 4.52676800 0.69046600 1.12084000 -0.53897500 -0.03404600 1.64942800
47 1.74403400 -0.00002600 0.00000000 -0.00981300 -0.01254100 1.46893600
48 1.36875900 -0.00003500 -0.00002200 -0.15445000 0.17520300 0.03439000
49 1.87486800 0.93508100 -0.99913000 2.00187500 0.54680000 0.94904700
50 1.52345300 -0.00003600 -0.00000400 -0.38824400 -0.10046600 0.75319800
51 1.59927700 -0.00000600 0.00001400 0.08322400 -0.00653500 0.90419200
52 6.71020600 2.18496600 -1.71425600 -2.99287900 0.35663300 -2.84558900
53 -2.56630700 -0.01874500 0.56303200 0.00000000 0.00000000 0.00000000
54 0.05262800 0.00000000 -0.39527300 0.00000000 0.00000000 0.00000000
55 0.24190300 -0.00968900 -0.98585500 0.00000000 0.00000000 0.00000000
56 -5.85448300 -0.00969000 1.28886300 0.00000000 0.00000000 -0.00000100
57 5.51181000 -0.00001100 0.00000600 -0.23579700 0.00000500 0.00000700
58 0.19684800 0.00000900 -0.00000100 -0.34822500 0.00001500 -0.00000200
59 0.00000000 0.00000000 0.00000000 0.00000000 0.00000000 -1.57079600
time 12
0 -0.00000100 7.45008900 -27.50902600 0.00000000 0.00000000 0.00003100
1 -0.00000200 0.00000000 0.00000000 1.57074700 -1.56714200 -1.57074700
2 4.25546500 -0.33518500 -0.00000200 0.00000000 0.00000000 -0.12484800
3 7.43125200 1.49648000 0.00000200 0.00000000 0.00000000 0.24545000
4 1.18858700 -4.05704100 0.00000000 0.00000000 0.00000000 0.04851100
5 3.24296000 -9.67360700 1.48897600 1.97586600 1.15990900 -1.29878500
6 -6.21447800 -0.00001100 -0.00002800 -2.07624186 -0.83603035 1.13106074
7 11.94488700 0.00000000 -0.00000100 -1.95225377 -0.32951801 1.92269387
8 10.62019000 0.00000000 0.00000000 -0.40956818 0.46912810 2.48094777
9 -4.75110800 -0.69449200 0.83058100 -0.13482700 -0.13716900 0.57386900
10 -1.68808400 0.00004500 -0.00003100 0.02023500 -0.01422900 0.48281900
11 -1.33614300 0.00005900 -0.00001000 0.02541900 0.00700600 0.28395600
12 -4.82049200 -0.50945900 -0.22475900 -0.38669100 -0.19987200 1.24630400
13 -1.82698400 -0.00007100 0.00001000 0.01073100 0.04384200 1.39533700
14 -1.43657300 0.00000800 0.00000300 -0.05274700 -0.05718100 0.65322700
15 -3.99235500 -0.89118800 -1.82790700 -0.64511400 -0.15783700 0.91087800
16 -1.40592200 -0.00003000 0.00000000 0.00830500 -0.03762200 1.51247500
17 -1.17535800 0.00012400 -0.00002100 0.07866300 0.02068400 0.66847000
18 -4.52674900 -0.69057700 -1.12074200 -0.46313100 -0.09672800 1.18387800
19 -1.74403400 0.00003500 -0.00000700 -0.08084000 0.00318500 1.64197000
20 -1.36876700 0.00002300 0.00000500 0.02704200 0.04494300 0.43660900
21 -1.76337000 -1.11739900 0.88059800 1.92519900 0.66246700 0.79503400
22 -1.52344700 0.00003100 0.00002900 -0.19097800 0.11191200 0.75188300
23 -1.59927900 0.00001000 0.00001100 -0.07634400 -0.04309900 0.82700900
24 -6.79307200 -2.71118800 1.99672300 -0.08283800 -0.23372900 0.41803300
25 -2.56630900 -0.01873900 0.56302700 0.00000000 0.00000200 -0.00000200
26 0.05263100 0.00000000 -0.39527200 0.00000000 0.00000000 0.00000000
27 0.24189900 -0.00969100 -0.98585100 0.00000000 0.00000200 -0.00000200
28 -5.85447900 -0.00967600 1.28885700 -0.00000100 0.00000200 -0.00000100
29 6.64739700 0.02150700 -3.64620500 0.49464000 1.15417900 1.75628200
30 6.89568200 -9.99008100 -5.06932400 3.11973300 0.25339200 -1.23651000
31 5.51182400 0.00000800 -0.00000400 1.26606387 -0.00031541 -3.14120108
32 0.19684800 0.00000000 0.00000300 2.79340684 -0.00089326 -3.14139920
33 3.24296000 -9.67360700 -1.48897700 1.97586200 1.15991000 1.84280300
34 6.21448800 0.00001100 0.00002100 -1.19702524 0.76246717 -2.07174135
35 11.94488700 -0.00003500 -0.00019900 -0.33125391 -0.33712797 -1.84652647
36 10.62017300 -0.00000400 0.00001000 -1.13558158 0.08246086 -0.71689740
37 4.75117100 0.69437600 -0.83047700 -0.05602700 -0.27916300 0.54604800
38 1.68806800 -0.00002200 0.00000100 0.01539100 -0.01932300 0.76591300
39 1.33614300 -0.00005100 -0.00001000 -0.01007300 -0.03740000 0.63314200
40 4.82051800 0.50934200 0.22486500 -0.47979500 -0.13217500 1.61553200
41 1.82700000 0.00006800 0.00001000 -0.00162300 0.04040900 1.23322100
42 1.43658100 -0.00000600 0.00001100 0.00257700 -0.01488800 0.67137900
43 3.99235700 0.89108800 1.82799600 -0.63310900 -0.00355700 1.48835000
44 1.40592200 0.00003200 -0.00000500 -0.00568500 -0.02893600 1.06850600
45 1.17535800 -0.00012900 0.00000300 0.10607100 0.06286200 0.99298000
46 4.52676800 0.69046600 1.12084000 -0.53897500 -0.03404600 1.64942800
47 1.74403400 -0.00002600 0.00000000 -0.00981300 -0.01254100 1.46893600
48 1.36875900 -0.00003500 -0.00002200 -0.15445000 0.17520300 0.03439000
49 1.87486800 0.93508100 -0.99913000 2.00187500 0.54680000 0.94904700
50 1.52345300 -0.00003600 -0.00000400 -0.38824400 -0.10046600 0.75319800
51 1.59927700 -0.00000600 0.00001400 0.08322400 -0.00653500 0.90419200
52 6.71020600 2.18496600 -1.71425600 -2.99287900 0.35663300 -2.84558900
53 -2.56630700 -0.01874500 0.56303200 0.00000000 0.00000000 0.00000000
54 0.05262800 0.00000000 -0.39527300 0.00000000 0.00000000 0.00000000
55 0.24190300 -0.00968900 -0.98585500 0.00000000 0.00000000 0.00000000
56 -5.85448300 -0.00969000 1.28886300 0.00000000 0.00000000 -0.00000100
57 5.51181000 -0.00001100 0.00000600 -0.23579700 0.00000500 0.00000700
58 0.19684800 0.00000900 -0.00000100 -0.34822500 0.00001500 -0.00000200
59 0.00000000 0.00000000 0.00000000 0.00000000 0.00000000 -1.57079600
time 13
0 -0.00000100 7.45008900 -27.50902600 0.00000000 0.00000000 0.00003100
1 -0.00000200 0.00000000 0.00000000 1.57074700 -1.56714200 -1.57074700
2 4.25546500 -0.33518500 -0.00000200 0.00000000 0.00000000 -0.12484800
3 7.43125200 1.49648000 0.00000200 0.00000000 0.00000000 0.24545000
4 1.18858700 -4.05704100 0.00000000 0.00000000 0.00000000 0.04851100
5 3.24296000 -9.67360700 1.48897600 1.97586600 1.15990900 -1.29878500
6 -6.21447800 -0.00001100 -0.00002800 -2.06971022 -0.83183386 1.13289549
7 11.94488700 0.00000000 -0.00000100 -1.95196600 -0.32955604 1.92187751
8 10.62019000 0.00000000 0.00000000 -0.39245465 0.47444115 2.48804234
9 -4.75110800 -0.69449200 0.83058100 -0.13482700 -0.13716900 0.57386900
10 -1.68808400 0.00004500 -0.00003100 0.02023500 -0.01422900 0.48281900
11 -1.33614300 0.00005900 -0.00001000 0.02541900 0.00700600 0.28395600
12 -4.82049200 -0.50945900 -0.22475900 -0.38669100 -0.19987200 1.24630400
13 -1.82698400 -0.00007100 0.00001000 0.01073100 0.04384200 1.39533700
14 -1.43657300 0.00000800 0.00000300 -0.05274700 -0.05718100 0.65322700
15 -3.99235500 -0.89118800 -1.82790700 -0.64511400 -0.15783700 0.91087800
16 -1.40592200 -0.00003000 0.00000000 0.00830500 -0.03762200 1.51247500
17 -1.17535800 0.00012400 -0.00002100 0.07866300 0.02068400 0.66847000
18 -4.52674900 -0.69057700 -1.12074200 -0.46313100 -0.09672800 1.18387800
19 -1.74403400 0.00003500 -0.00000700 -0.08084000 0.00318500 1.64197000
20 -1.36876700 0.00002300 0.00000500 0.02704200 0.04494300 0.43660900
21 -1.76337000 -1.11739900 0.88059800 1.92519900 0.66246700 0.79503400
22 -1.52344700 0.00003100 0.00002900 -0.19097800 0.11191200 0.75188300
23 -1.59927900 0.00001000 0.00001100 -0.07634400 -0.04309900 0.82700900
24 -6.79307200 -2.71118800 1.99672300 -0.08283800 -0.23372900 0.41803300
25 -2.56630900 -0.01873900 0.56302700 0.00000000 0.00000200 -0.00000200
26 0.05263100 0.00000000 -0.39527200 0.00000000 0.00000000 0.00000000
27 0.24189900 -0.00969100 -0.98585100 0.00000000 0.00000200 -0.00000200
28 -5.85447900 -0.00967600 1.28885700 -0.00000100 0.00000200 -0.00000100
29 6.64739700 0.02150700 -3.64620500 0.49464000 1.15417900 1.75628200
30 6.87792600 -10.01828200 -5.06604100 3.11860200 0.25041100 -1.24009600
31 5.51182400 0.00000800 -0.00000400 1.26606387 -0.00031541 -3.14120108
32 0.19684800 0.00000000 0.00000300 2.79340684 -0.00089326 -3.14139920
33 3.24296000 -9.67360700 -1.48897700 1.97586200 1.15991000 1.84280300
34 6.21448800 0.00001100 0.00002100 -1.20573833 0.76438490 -2.07056968
35 11.94488700 -0.00003500 -0.00019900 -0.32837513 -0.33641816 -1.85500372
36 10.62017300 -0.00000400 0.00001000 -1.12309391 0.09622945 -0.70761724
37 4.75117100 0.69437600 -0.83047700 -0.05602700 -0.27916300 0.54604800
38 1.68806800 -0.00002200 0.00000100 0.01539100 -0.01932300 0.76591300
39 1.33614300 -0.00005100 -0.00001000 -0.01007300 -0.03740000 0.63314200
40 4.82051800 0.50934200 0.22486500 -0.47979500 -0.13217500 1.61553200
41 1.82700000 0.00006800 0.00001000 -0.00162300 0.04040900 1.23322100
42 1.43658100 -0.00000600 0.00001100 0.00257700 -0.01488800 0.67137900
43 3.99235700 0.89108800 1.82799600 -0.63310900 -0.00355700 1.48835000
44 1.40592200 0.00003200 -0.00000500 -0.00568500 -0.02893600 1.06850600
45 1.17535800 -0.00012900 0.00000300 0.10607100 0.06286200 0.99298000
46 4.52676800 0.69046600 1.12084000 -0.53897500 -0.03404600 1.64942800
47 1.74403400 -0.00002600 0.00000000 -0.00981300 -0.01254100 1.46893600
48 1.36875900 -0.00003500 -0.00002200 -0.15445000 0.17520300 0.03439000
49 1.87486800 0.93508100 -0.99913000 2.00187500 0.54680000 0.94904700
50 1.52345300 -0.00003600 -0.00000400 -0.38824400 -0.10046600 0.75319800
51 1.59927700 -0.00000600 0.00001400 0.08322400 -0.00653500 0.90419200
52 6.71020600 2.18496600 -1.71425600 -2.99287900 0.35663300 -2.84558900
53 -2.56630700 -0.01874500 0.56303200 0.00000000 0.00000000 0.00000000
54 0.05262800 0.00000000 -0.39527300 0.00000000 0.00000000 0.00000000
55 0.24190300 -0.00968900 -0.98585500 0.00000000 0.00000000 0.00000000
56 -5.85448300 -0.00969000 1.28886300 0.00000000 0.00000000 -0.00000100
57 5.51181000 -0.00001100 0.00000600 -0.23579700 0.00000500 0.00000700
58 0.19684800 0.00000900 -0.00000100 -0.34822500 0.00001500 -0.00000200
59 0.00000000 0.00000000 0.00000000 0.00000000 0.00000000 -1.57079600
time 14
0 -0.00000100 7.45008900 -27.50902600 0.00000000 0.00000000 0.00003100
1 -0.00000200 0.00000000 0.00000000 1.57074700 -1.56714200 -1.57074700
2 4.25546500 -0.33518500 -0.00000200 0.00000000 0.00000000 -0.12484800
3 7.43125200 1.49648000 0.00000200 0.00000000 0.00000000 0.24545000
4 1.18858700 -4.05704100 0.00000000 0.00000000 0.00000000 0.04851100
5 3.24296000 -9.67360700 1.48897600 1.97586600 1.15990900 -1.29878500
6 -6.21447800 -0.00001100 -0.00002800 -2.06639195 -0.82497245 1.13255621
7 11.94488700 0.00000000 -0.00000100 -1.94920282 -0.33052934 1.91312177
8 10.62019000 0.00000000 0.00000000 -0.40059981 0.47833008 2.48567439
9 -4.75110800 -0.69449200 0.83058100 -0.13482700 -0.13716900 0.57386900
10 -1.68808400 0.00004500 -0.00003100 0.02023500 -0.01422900 0.48281900
11 -1.33614300 0.00005900 -0.00001000 0.02541900 0.00700600 0.28395600
12 -4.82049200 -0.50945900 -0.22475900 -0.38669100 -0.19987200 1.24630400
13 -1.82698400 -0.00007100 0.00001000 0.01073100 0.04384200 1.39533700
14 -1.43657300 0.00000800 0.00000300 -0.05274700 -0.05718100 0.65322700
15 -3.99235500 -0.89118800 -1.82790700 -0.64511400 -0.15783700 0.91087800
16 -1.40592200 -0.00003000 0.00000000 0.00830500 -0.03762200 1.51247500
17 -1.17535800 0.00012400 -0.00002100 0.07866300 0.02068400 0.66847000
18 -4.52674900 -0.69057700 -1.12074200 -0.46313100 -0.09672800 1.18387800
19 -1.74403400 0.00003500 -0.00000700 -0.08084000 0.00318500 1.64197000
20 -1.36876700 0.00002300 0.00000500 0.02704200 0.04494300 0.43660900
21 -1.76337000 -1.11739900 0.88059800 1.92519900 0.66246700 0.79503400
22 -1.52344700 0.00003100 0.00002900 -0.19097800 0.11191200 0.75188300
23 -1.59927900 0.00001000 0.00001100 -0.07634400 -0.04309900 0.82700900
24 -6.79307200 -2.71118800 1.99672300 -0.08283800 -0.23372900 0.41803300
25 -2.56630900 -0.01873900 0.56302700 0.00000000 0.00000200 -0.00000200
26 0.05263100 0.00000000 -0.39527200 0.00000000 0.00000000 0.00000000
27 0.24189900 -0.00969100 -0.98585100 0.00000000 0.00000200 -0.00000200
28 -5.85447900 -0.00967600 1.28885700 -0.00000100 0.00000200 -0.00000100
29 6.64739700 0.02150700 -3.64620500 0.49464000 1.15417900 1.75628200
30 6.86560900 -10.04973000 -5.05918200 3.11724900 0.24707700 -1.24410700
31 5.51182400 0.00000800 -0.00000400 1.26606387 -0.00031541 -3.14120108
32 0.19684800 0.00000000 0.00000300 2.79340684 -0.00089326 -3.14139920
33 3.24296000 -9.67360700 -1.48897700 1.97586200 1.15991000 1.84280300
34 6.21448800 0.00001100 0.00002100 -1.21300133 0.76670177 -2.06971073
35 11.94488700 -0.00003500 -0.00019900 -0.32444712 -0.33532430 -1.86700228
36 10.62017300 -0.00000400 0.00001000 -1.11408354 0.10310020 -0.69715168
37 4.75117100 0.69437600 -0.83047700 -0.05602700 -0.27916300 0.54604800
38 1.68806800 -0.00002200 0.00000100 0.01539100 -0.01932300 0.76591300
39 1.33614300 -0.00005100 -0.00001000 -0.01007300 -0.03740000 0.63314200
40 4.82051800 0.50934200 0.22486500 -0.47979500 -0.13217500 1.61553200
41 1.82700000 0.00006800 0.00001000 -0.00162300 0.04040900 1.23322100
42 1.43658100 -0.00000600 0.00001100 0.00257700 -0.01488800 0.67137900
43 3.99235700 0.89108800 1.82799600 -0.63310900 -0.00355700 1.48835000
44 1.40592200 0.00003200 -0.00000500 -0.00568500 -0.02893600 1.06850600
45 1.17535800 -0.00012900 0.00000300 0.10607100 0.06286200 0.99298000
46 4.52676800 0.69046600 1.12084000 -0.53897500 -0.03404600 1.64942800
47 1.74403400 -0.00002600 0.00000000 -0.00981300 -0.01254100 1.46893600
48 1.36875900 -0.00003500 -0.00002200 -0.15445000 0.17520300 0.03439000
49 1.87486800 0.93508100 -0.99913000 2.00187500 0.54680000 0.94904700
50 1.52345300 -0.00003600 -0.00000400 -0.38824400 -0.10046600 0.75319800
51 1.59927700 -0.00000600 0.00001400 0.08322400 -0.00653500 0.90419200
52 6.71020600 2.18496600 -1.71425600 -2.99287900 0.35663300 -2.84558900
53 -2.56630700 -0.01874500 0.56303200 0.00000000 0.00000000 0.00000000
54 0.05262800 0.00000000 -0.39527300 0.00000000 0.00000000 0.00000000
55 0.24190300 -0.00968900 -0.98585500 0.00000000 0.00000000 0.00000000
56 -5.85448300 -0.00969000 1.28886300 0.00000000 0.00000000 -0.00000100
57 5.51181000 -0.00001100 0.00000600 -0.23579700 0.00000500 0.00000700
58 0.19684800 0.00000900 -0.00000100 -0.34822500 0.00001500 -0.00000200
59 0.00000000 0.00000000 0.00000000 0.00000000 0.00000000 -1.57079600
time 15
0 -0.00000100 7.45008900 -27.50902600 0.00000000 0.00000000 0.00003100
1 -0.00000200 0.00000000 0.00000000 1.57074700 -1.56714200 -1.57074700
2 4.25546500 -0.33518500 -0.00000200 0.00000000 0.00000000 -0.12484800
3 7.43125200 1.49648000 0.00000200 0.00000000 0.00000000 0.24545000
4 1.18858700 -4.05704100 0.00000000 0.00000000 0.00000000 0.04851100
5 3.24296000 -9.67360700 1.48897600 1.97586600 1.15990900 -1.29878500
6 -6.21447800 -0.00001100 -0.00002800 -2.06520504 -0.81685318 1.13085423
7 11.94488700 0.00000000 -0.00000100 -1.94349796 -0.33236545 1.89583467
8 10.62019000 0.00000000 0.00000000 -0.42419565 0.48710027 2.47687177
9 -4.75110800 -0.69449200 0.83058100 -0.13482700 -0.13716900 0.57386900
10 -1.68808400 0.00004500 -0.00003100 0.02023500 -0.01422900 0.48281900
11 -1.33614300 0.00005900 -0.00001000 0.02541900 0.00700600 0.28395600
12 -4.82049200 -0.50945900 -0.22475900 -0.38669100 -0.19987200 1.24630400
13 -1.82698400 -0.00007100 0.00001000 0.01073100 0.04384200 1.39533700
14 -1.43657300 0.00000800 0.00000300 -0.05274700 -0.05718100 0.65322700
15 -3.99235500 -0.89118800 -1.82790700 -0.64511400 -0.15783700 0.91087800
16 -1.40592200 -0.00003000 0.00000000 0.00830500 -0.03762200 1.51247500
17 -1.17535800 0.00012400 -0.00002100 0.07866300 0.02068400 0.66847000
18 -4.52674900 -0.69057700 -1.12074200 -0.46313100 -0.09672800 1.18387800
19 -1.74403400 0.00003500 -0.00000700 -0.08084000 0.00318500 1.64197000
20 -1.36876700 0.00002300 0.00000500 0.02704200 0.04494300 0.43660900
21 -1.76337000 -1.11739900 0.88059800 1.92519900 0.66246700 0.79503400
22 -1.52344700 0.00003100 0.00002900 -0.19097800 0.11191200 0.75188300
23 -1.59927900 0.00001000 0.00001100 -0.07634400 -0.04309900 0.82700900
24 -6.79307200 -2.71118800 1.99672300 -0.08283800 -0.23372900 0.41803300
25 -2.56630900 -0.01873900 0.56302700 0.00000000 0.00000200 -0.00000200
26 0.05263100 0.00000000 -0.39527200 0.00000000 0.00000000 0.00000000
27 0.24189900 -0.00969100 -0.98585100 0.00000000 0.00000200 -0.00000200
28 -5.85447900 -0.00967600 1.28885700 -0.00000100 0.00000200 -0.00000100
29 6.64739700 0.02150700 -3.64620500 0.49464000 1.15417900 1.75628200
30 6.85817700 -10.08384400 -5.04905300 3.11560600 0.24334000 -1.24854800
31 5.51182400 0.00000800 -0.00000400 1.26606387 -0.00031541 -3.14120108
32 0.19684800 0.00000000 0.00000300 2.79340684 -0.00089326 -3.14139920
33 3.24296000 -9.67360700 -1.48897700 1.97586200 1.15991000 1.84280300
34 6.21448800 0.00001100 0.00002100 -1.21700066 0.76926401 -2.06938599
35 11.94488700 -0.00003500 -0.00019900 -0.31951309 -0.33381156 -1.88197117
36 10.62017300 -0.00000400 0.00001000 -1.10775052 0.09934722 -0.68793823
37 4.75117100 0.69437600 -0.83047700 -0.05602700 -0.27916300 0.54604800
38 1.68806800 -0.00002200 0.00000100 0.01539100 -0.01932300 0.76591300
39 1.33614300 -0.00005100 -0.00001000 -0.01007300 -0.03740000 0.63314200
40 4.82051800 0.50934200 0.22486500 -0.47979500 -0.13217500 1.61553200
41 1.82700000 0.00006800 0.00001000 -0.00162300 0.04040900 1.23322100
42 1.43658100 -0.00000600 0.00001100 0.00257700 -0.01488800 0.67137900
43 3.99235700 0.89108800 1.82799600 -0.63310900 -0.00355700 1.48835000
44 1.40592200 0.00003200 -0.00000500 -0.00568500 -0.02893600 1.06850600
45 1.17535800 -0.00012900 0.00000300 0.10607100 0.06286200 0.99298000
46 4.52676800 0.69046600 1.12084000 -0.53897500 -0.03404600 1.64942800
47 1.74403400 -0.00002600 0.00000000 -0.00981300 -0.01254100 1.46893600
48 1.36875900 -0.00003500 -0.00002200 -0.15445000 0.17520300 0.03439000
49 1.87486800 0.93508100 -0.99913000 2.00187500 0.54680000 0.94904700
50 1.52345300 -0.00003600 -0.00000400 -0.38824400 -0.10046600 0.75319800
51 1.59927700 -0.00000600 0.00001400 0.08322400 -0.00653500 0.90419200
52 6.71020600 2.18496600 -1.71425600 -2.99287900 0.35663300 -2.84558900
53 -2.56630700 -0.01874500 0.56303200 0.00000000 0.00000000 0.00000000
54 0.05262800 0.00000000 -0.39527300 0.00000000 0.00000000 0.00000000
55 0.24190300 -0.00968900 -0.98585500 0.00000000 0.00000000 0.00000000
56 -5.85448300 -0.00969000 1.28886300 0.00000000 0.00000000 -0.00000100
57 5.51181000 -0.00001100 0.00000600 -0.23579700 0.00000500 0.00000700
58 0.19684800 0.00000900 -0.00000100 -0.34822500 0.00001500 -0.00000200
59 0.00000000 0.00000000 0.00000000 0.00000000 0.00000000 -1.57079600
end
