version 1
nodes
0 "root" -1
1 "pelvis" 0
2 "spine_01" 1
3 "spine_02" 2
4 "spine_03" 3
5 "clavicle_r" 4
6 "upperarm_r" 5
7 "lowerarm_r" 6
8 "hand_r" 7
9 "index_01_r" 8
10 "index_02_r" 9
11 "index_03_r" 10
12 "middle_01_r" 8
13 "middle_02_r" 12
14 "middle_03_r" 13
15 "pinky_01_r" 8
16 "pinky_02_r" 15
17 "pinky_03_r" 16
18 "ring_01_r" 8
19 "ring_02_r" 18
20 "ring_03_r" 19
21 "thumb_01_r" 8
22 "thumb_02_r" 21
23 "thumb_03_r" 22
24 "lowerarm_twist_01_r" 7
25 "upperarm_twist_01_r" 6
26 "clavicle_l" 4
27 "upperarm_l" 26
28 "lowerarm_l" 27
29 "hand_l" 28
30 "index_01_l" 29
31 "index_02_l" 30
32 "index_03_l" 31
33 "middle_01_l" 29
34 "middle_02_l" 33
35 "middle_03_l" 34
36 "pinky_01_l" 29
37 "pinky_02_l" 36
38 "pinky_03_l" 37
39 "ring_01_l" 29
40 "ring_02_l" 39
41 "ring_03_l" 40
42 "thumb_01_l" 29
43 "thumb_02_l" 42
44 "thumb_03_l" 43
45 "lowerarm_twist_01_l" 28
46 "upperarm_twist_01_l" 27
47 "cam_driver" -1
48 "BaseRoot" -1
49 "Base" 48
50 "rhand_ikTarget" 49
51 "lhand_ikTarget" 49
end
skeleton
time 0
0 -0.00000100 7.44921900 -27.50000000 0.00000000 0.00000000 -0.00000100
1 -0.00000200 0.00000000 0.00000000 1.57074300 -1.56713700 -1.57074300
2 4.25546800 -0.33518300 -0.00000200 0.00000000 0.00000000 -0.12484800
3 7.43124800 1.49647700 0.00000200 0.00000000 0.00000000 0.24545000
4 5.27847900 0.16554100 0.00000100 0.00000000 0.00000000 0.04851100
5 2.03111575 -7.71000972 2.30273400 2.03836758 1.21404664 -1.23140616
6 -6.10598080 0.33296259 0.03976936 -2.76703359 -0.12329469 1.26323918
7 11.94488200 0.00000000 0.00000100 -0.80946515 -0.01429118 0.02252378
8 10.62018100 0.00000200 0.00000000 0.44026905 0.92927676 -2.93302627
9 -4.75110600 -0.69449400 0.83057700 -0.31281550 -0.20712350 1.48770900
10 -1.68806800 0.00004600 -0.00003200 -0.00699400 -0.02376950 1.72488500
11 -1.33614000 0.00005700 -0.00001200 0.02196300 -0.01463500 1.14153500
12 -4.82049400 -0.50946000 -0.22475900 -0.30161300 -0.08508700 1.55381292
13 -1.82699200 -0.00006400 0.00000600 0.02242600 0.03375800 1.86037400
14 -1.43657300 0.00000600 0.00000200 -0.05471350 -0.05536450 0.68785000
15 -3.99235500 -0.89118800 -1.82790900 -0.63459700 0.17373150 1.77372500
16 -1.40591800 -0.00002500 -0.00000300 -0.01746700 -0.02381000 1.50865700
17 -1.17535800 0.00012800 -0.00002000 0.06721900 0.01013400 1.32478600
18 -4.52675100 -0.69057500 -1.12074400 -0.48334800 0.03907500 1.69168900
19 -1.74403800 0.00003300 -0.00000800 -0.02762800 -0.01065300 1.61399700
20 -1.36877100 0.00002500 0.00000200 0.04954100 0.01743900 1.12777900
21 -1.87480000 -0.93512500 0.99917400 2.53979745 0.26986152 0.89154048
22 -1.62695300 0.15466300 0.01182600 -0.71358000 0.34979400 0.45534900
23 -1.59928500 0.00000400 0.00001600 0.04262900 -0.05328000 1.07343400
24 5.51181500 0.00000800 -0.00000100 2.09368620 0.00122688 3.14087369
25 0.19684700 -0.00000100 0.00000300 2.79340679 -0.00114092 -3.14137492
26 -3.26532688 -13.66177159 -2.11050565 1.97586200 1.15990900 1.84280300
27 6.21448500 0.00000600 0.00002000 -0.54096873 0.46743057 -1.51048600
28 11.94488500 -0.00002900 -0.00019400 0.19083008 -0.30667232 -1.46814704
29 10.62016600 0.00000200 0.00001000 -1.73355302 -0.11995703 -0.19725135
30 4.75115600 0.69437600 -0.83047300 0.00560700 -0.10373669 1.66265833
31 1.68806500 -0.00002600 0.00000200 -0.00665862 -0.02386343 1.71099377
32 1.33615100 -0.00005100 -0.00000900 -0.02902137 -0.02570738 1.21721874
33 4.82051300 0.50934000 0.22486500 -0.14785686 0.03239340 1.68127229
34 1.82699600 0.00006600 0.00000800 0.01564018 0.03739083 1.67005972
35 1.43657700 -0.00001000 0.00000700 -0.00446191 -0.01451959 1.13928958
36 3.99235300 0.89108700 1.82799400 -0.40853558 0.29728375 1.86298595
37 1.40591800 0.00002100 -0.00000700 -0.02169938 -0.02003553 1.70108297
38 1.17536900 -0.00013100 0.00000200 0.12329480 0.00032657 1.52313349
39 4.52675600 0.69046000 1.12084200 -0.29062693 0.19375345 1.80762608
40 1.74404100 -0.00003100 -0.00000200 -0.02872588 -0.00720963 1.73633842
41 1.36876300 -0.00003100 -0.00001700 0.20476039 0.10088311 1.27704249
42 1.87485500 0.93508100 -0.99913000 1.88413981 0.22305113 0.86405347
43 1.52344900 -0.00003400 -0.00000300 -0.21711621 0.17674736 0.59165197
44 1.59928100 -0.00000200 0.00000900 0.07727381 -0.03174351 1.21552899
45 5.51180600 -0.00000200 0.00000600 -0.23579700 0.00000500 0.00000700
46 0.19685000 0.00000300 -0.00000200 -0.34822500 0.00001500 -0.00000200
47 0.00000000 0.00000000 0.00000000 0.00000000 0.00000000 -1.57079600
48 -4.33203100 27.59375000 -3.39062500 0.00000000 0.00000000 -3.14158800
49 -3.61523400 12.53125000 -17.12500000 0.00000000 0.00000000 -1.57079600
50 -27.60026802 7.83194925 4.76343190 0.14149046 0.40681010 2.04322147
51 -35.30619210 -10.15193918 9.02530966 2.02639854 -0.46326008 -1.38367942
time 1
0 -0.00000100 7.44921900 -27.50000000 0.00000000 0.00000000 -0.00000100
1 -0.00000200 0.00000000 0.00000000 1.57074300 -1.56713700 -1.57074300
2 4.25546800 -0.33518300 -0.00000200 0.00000000 0.00000000 -0.12484800
3 7.43124800 1.49647700 0.00000200 0.00000000 0.00000000 0.24545000
4 5.27847900 0.16554100 0.00000100 0.00000000 0.00000000 0.04851100
5 1.92315894 -7.87685210 2.27917997 2.03590426 1.21221769 -1.23403589
6 -6.15702338 0.17659382 0.02099974 -2.77766188 -0.12262261 1.26403820
7 11.94488200 0.00000000 0.00000100 -0.81081235 -0.01375089 0.02285760
8 10.62018100 0.00000200 0.00000000 0.47339680 0.92801968 -2.90375411
9 -4.75110600 -0.69449400 0.83057700 -0.31281550 -0.20712350 1.48770900
10 -1.68806800 0.00004600 -0.00003200 -0.00699400 -0.02376950 1.72488500
11 -1.33614000 0.00005700 -0.00001200 0.02196300 -0.01463500 1.14153500
12 -4.82049400 -0.50946000 -0.22475900 -0.30161300 -0.08508700 1.55381292
13 -1.82699200 -0.00006400 0.00000600 0.02242600 0.03375800 1.86037400
14 -1.43657300 0.00000600 0.00000200 -0.05471350 -0.05536450 0.68785000
15 -3.99235500 -0.89118800 -1.82790900 -0.63459700 0.17373150 1.77372500
16 -1.40591800 -0.00002500 -0.00000300 -0.01746700 -0.02381000 1.50865700
17 -1.17535800 0.00012800 -0.00002000 0.06721900 0.01013400 1.32478600
18 -4.52675100 -0.69057500 -1.12074400 -0.48334800 0.03907500 1.69168900
19 -1.74403800 0.00003300 -0.00000800 -0.02762800 -0.01065300 1.61399700
20 -1.36877100 0.00002500 0.00000200 0.04954100 0.01743900 1.12777900
21 -1.87480000 -0.93512500 0.99917400 2.53979745 0.26986152 0.89154048
22 -1.62695300 0.15466300 0.01182600 -0.71358000 0.34979400 0.45534900
23 -1.59928500 0.00000400 0.00001600 0.04262900 -0.05328000 1.07343400
24 5.51181500 0.00000800 -0.00000100 2.09366120 0.00122686 3.14087366
25 0.19684700 -0.00000100 0.00000300 2.79340679 -0.00114092 -3.14137492
26 -3.15933275 -13.51063206 -2.13013434 1.97586200 1.15990900 1.84280300
27 6.21448500 0.00000600 0.00002000 -0.52973157 0.45660002 -1.50195030
28 11.94488500 -0.00002900 -0.00019400 0.18154530 -0.29177720 -1.44724954
29 10.62016600 0.00000200 0.00001000 -1.73147292 -0.13421408 -0.21432153
30 4.75115600 0.69437600 -0.83047300 0.00560700 -0.10373669 1.66265833
31 1.68806500 -0.00002600 0.00000200 -0.00665862 -0.02386343 1.71099377
32 1.33615100 -0.00005100 -0.00000900 -0.02902137 -0.02570738 1.21721874
33 4.82051300 0.50934000 0.22486500 -0.14785686 0.03239340 1.68127229
34 1.82699600 0.00006600 0.00000800 0.01564018 0.03739083 1.67005972
35 1.43657700 -0.00001000 0.00000700 -0.00446191 -0.01451959 1.13928958
36 3.99235300 0.89108700 1.82799400 -0.40853558 0.29728375 1.86298595
37 1.40591800 0.00002100 -0.00000700 -0.02169938 -0.02003553 1.70108297
38 1.17536900 -0.00013100 0.00000200 0.12329480 0.00032657 1.52313371
39 4.52675600 0.69046000 1.12084200 -0.29062693 0.19375345 1.80762608
40 1.74404100 -0.00003100 -0.00000200 -0.02872588 -0.00720963 1.73631481
41 1.36876300 -0.00003100 -0.00001700 0.20476039 0.10088311 1.27704249
42 1.87485500 0.93508100 -0.99913000 1.88413981 0.22305113 0.86405347
43 1.52344900 -0.00003400 -0.00000300 -0.21711621 0.17674736 0.59165197
44 1.59928100 -0.00000200 0.00000900 0.07727381 -0.03174351 1.21552876
45 5.51180600 -0.00000200 0.00000600 -0.23579700 0.00000500 0.00000700
46 0.19685000 0.00000300 -0.00000200 -0.34822500 0.00001500 -0.00000200
47 0.00000000 0.00000000 0.00000000 0.00000000 0.00000000 -1.57079600
48 -4.33203100 27.59375000 -3.39062500 0.00000000 0.00000000 -3.14158800
49 -3.61523400 12.53125000 -17.12500000 0.00000000 0.00000000 -1.57079600
50 -28.38013417 7.84518110 5.13870994 0.13726932 0.38424911 2.02640478
51 -35.65739839 -10.25072313 9.31467157 2.01299350 -0.50696577 -1.40244568
time 2
0 -0.00000100 7.44921900 -27.50000000 0.00000000 0.00000000 -0.00000100
1 -0.00000200 0.00000000 0.00000000 1.57074300 -1.56713700 -1.57074300
2 4.25546800 -0.33518300 -0.00000200 0.00000000 0.00000000 -0.12484800
3 7.43124800 1.49647700 0.00000200 0.00000000 0.00000000 0.24545000
4 5.27847900 0.16554100 0.00000100 0.00000000 0.00000000 0.04851100
5 1.63658223 -8.32045735 2.21244272 2.02943023 1.20730691 -1.24095603
6 -6.21448200 -0.00000700 -0.00002700 -2.79030303 -0.21418929 1.35248537
7 11.94488200 0.00000000 0.00000100 -0.81690491 -0.14604174 0.27851244
8 10.62018100 0.00000200 0.00000000 0.48741003 0.76508772 -2.91932938
9 -4.75110600 -0.69449400 0.83057700 -0.31281550 -0.20712350 1.48770900
10 -1.68806800 0.00004600 -0.00003200 -0.00699400 -0.02376950 1.72488500
11 -1.33614000 0.00005700 -0.00001200 0.02196300 -0.01463500 1.14153500
12 -4.82049400 -0.50946000 -0.22475900 -0.30161300 -0.08508700 1.55381292
13 -1.82699200 -0.00006400 0.00000600 0.02242600 0.03375800 1.86037400
14 -1.43657300 0.00000600 0.00000200 -0.05471350 -0.05536450 0.68785000
15 -3.99235500 -0.89118800 -1.82790900 -0.63459700 0.17373150 1.77372500
16 -1.40591800 -0.00002500 -0.00000300 -0.01746700 -0.02381000 1.50865700
17 -1.17535800 0.00012800 -0.00002000 0.06721900 0.01013400 1.32478600
18 -4.52675100 -0.69057500 -1.12074400 -0.48334800 0.03907500 1.69168900
19 -1.74403800 0.00003300 -0.00000800 -0.02762800 -0.01065300 1.61399700
20 -1.36877100 0.00002500 0.00000200 0.04954100 0.01743900 1.12777900
21 -1.87480000 -0.93512500 0.99917400 2.53979745 0.26986152 0.89154048
22 -1.62695300 0.15466300 0.01182600 -0.71358000 0.34979400 0.45534900
23 -1.59928500 0.00000400 0.00001600 0.04262900 -0.05328000 1.07343400
24 5.51181500 0.00000800 -0.00000100 2.09367376 0.00122687 3.14087367
25 0.19684700 -0.00000100 0.00000300 2.79340679 -0.00114092 -3.14137492
26 -2.84723934 -13.15535543 -2.06928559 1.97586200 1.15990900 1.84280300
27 6.21448500 0.00000600 0.00002000 -0.48285684 0.43346691 -1.48080985
28 11.94488500 -0.00002900 -0.00019400 0.16354611 -0.28217890 -1.39497871
29 10.62016600 0.00000200 0.00001000 -1.72950340 -0.15905661 -0.26214099
30 4.75115600 0.69437600 -0.83047300 0.00560700 -0.10373669 1.66265833
31 1.68806500 -0.00002600 0.00000200 -0.00665862 -0.02386343 1.71099377
32 1.33615100 -0.00005100 -0.00000900 -0.02902137 -0.02570738 1.21721874
33 4.82051300 0.50934000 0.22486500 -0.14785686 0.03239340 1.68127229
34 1.82699600 0.00006600 0.00000800 0.01564018 0.03739083 1.67005972
35 1.43657700 -0.00001000 0.00000700 -0.00446191 -0.01451959 1.13928958
36 3.99235300 0.89108700 1.82799400 -0.40853558 0.29728375 1.86298595
37 1.40591800 0.00002100 -0.00000700 -0.02169938 -0.02003553 1.70108297
38 1.17536900 -0.00013100 0.00000200 0.12329480 0.00032657 1.52311110
39 4.52675600 0.69046000 1.12084200 -0.29062693 0.19375345 1.80762608
40 1.74404100 -0.00003100 -0.00000200 -0.02872588 -0.00720963 1.73631481
41 1.36876300 -0.00003100 -0.00001700 0.20476039 0.10088311 1.27704249
42 1.87485500 0.93508100 -0.99913000 1.88413981 0.22305113 0.86405347
43 1.52344900 -0.00003400 -0.00000300 -0.21711621 0.17674736 0.59165197
44 1.59928100 -0.00000200 0.00000900 0.07727381 -0.03174351 1.21550587
45 5.51180600 -0.00000200 0.00000600 -0.23579700 0.00000500 0.00000700
46 0.19685000 0.00000300 -0.00000200 -0.34822500 0.00001500 -0.00000200
47 0.00000000 0.00000000 0.00000000 0.00000000 0.00000000 -1.57079600
48 -4.33203100 27.59375000 -3.39062500 0.00000000 0.00000000 -3.14158800
49 -3.61523400 12.53125000 -17.12500000 0.00000000 0.00000000 -1.57079600
50 -30.22586952 7.86730812 6.22185668 0.15401969 0.36410459 2.02021758
51 -35.59315223 -10.40547909 9.33922658 2.00824196 -0.58497963 -1.41551969
time 3
0 -0.00000100 7.44921900 -27.50000000 0.00000000 0.00000000 -0.00000100
1 -0.00000200 0.00000000 0.00000000 1.57074300 -1.56713700 -1.57074300
2 4.25546800 -0.33518300 -0.00000200 0.00000000 0.00000000 -0.12484800
3 7.43124800 1.49647700 0.00000200 0.00000000 0.00000000 0.24545000
4 5.27847900 0.16554100 0.00000100 0.00000000 0.00000000 0.04851100
5 1.22045735 -8.96427335 2.11626292 2.02036785 1.20016870 -1.25066509
6 -6.21448200 -0.00000700 -0.00002700 -2.79938871 -0.28061521 1.44477303
7 11.94488200 0.00000000 0.00000100 -0.86988036 -0.23157954 0.54207818
8 10.62018100 0.00000200 0.00000000 0.47101966 0.60424961 -2.96721323
9 -4.75110600 -0.69449400 0.83057700 -0.31281550 -0.20712350 1.48770900
10 -1.68806800 0.00004600 -0.00003200 -0.00699400 -0.02376950 1.72488500
11 -1.33614000 0.00005700 -0.00001200 0.02196300 -0.01463500 1.14153500
12 -4.82049400 -0.50946000 -0.22475900 -0.30161300 -0.08508700 1.55381292
13 -1.82699200 -0.00006400 0.00000600 0.02242600 0.03375800 1.86037400
14 -1.43657300 0.00000600 0.00000200 -0.05471350 -0.05536450 0.68785000
15 -3.99235500 -0.89118800 -1.82790900 -0.63459700 0.17373150 1.77372500
16 -1.40591800 -0.00002500 -0.00000300 -0.01746700 -0.02381000 1.50865700
17 -1.17535800 0.00012800 -0.00002000 0.06721900 0.01013400 1.32478600
18 -4.52675100 -0.69057500 -1.12074400 -0.48334800 0.03907500 1.69168900
19 -1.74403800 0.00003300 -0.00000800 -0.02762800 -0.01065300 1.61399700
20 -1.36877100 0.00002500 0.00000200 0.04954100 0.01743900 1.12777900
21 -1.87480000 -0.93512500 0.99917400 2.53979745 0.26986152 0.89154048
22 -1.62695300 0.15466300 0.01182600 -0.71358000 0.34979400 0.45534900
23 -1.59928500 0.00000400 0.00001600 0.04262900 -0.05328000 1.07343400
24 5.51181500 0.00000800 -0.00000100 2.09368620 0.00122688 3.14087369
25 0.19684700 -0.00000100 0.00000300 2.79340679 -0.00114092 -3.14137492
26 -2.36633988 -12.65482778 -1.95740295 1.97586200 1.15990900 1.84280300
27 6.21448500 0.00000600 0.00002000 -0.43156492 0.40679176 -1.46690091
28 11.94488500 -0.00002900 -0.00019400 0.14130760 -0.27462362 -1.31601857
29 10.62016600 0.00000200 0.00001000 -1.71858123 -0.17811651 -0.33315249
30 4.75115600 0.69437600 -0.83047300 0.00560700 -0.10373669 1.66265833
31 1.68806500 -0.00002600 0.00000200 -0.00665862 -0.02386343 1.71099377
32 1.33615100 -0.00005100 -0.00000900 -0.02902137 -0.02570738 1.21721874
33 4.82051300 0.50934000 0.22486500 -0.14785686 0.03239340 1.68127229
34 1.82699600 0.00006600 0.00000800 0.01564018 0.03739083 1.67005972
35 1.43657700 -0.00001000 0.00000700 -0.00446191 -0.01451959 1.13928958
36 3.99235300 0.89108700 1.82799400 -0.40853558 0.29728375 1.86298595
37 1.40591800 0.00002100 -0.00000700 -0.02169938 -0.02003553 1.70108297
38 1.17536900 -0.00013100 0.00000200 0.12329480 0.00032657 1.52315610
39 4.52675600 0.69046000 1.12084200 -0.29062693 0.19375345 1.80762608
40 1.74404100 -0.00003100 -0.00000200 -0.02872588 -0.00720963 1.73631481
41 1.36876300 -0.00003100 -0.00001700 0.20476039 0.10088311 1.27704249
42 1.87485500 0.93508100 -0.99913000 1.88413981 0.22305113 0.86405347
43 1.52344900 -0.00003400 -0.00000300 -0.21711621 0.17674736 0.59165197
44 1.59928100 -0.00000200 0.00000900 0.07727381 -0.03174351 1.21550587
45 5.51180600 -0.00000200 0.00000600 -0.23579700 0.00000500 0.00000700
46 0.19685000 0.00000300 -0.00000200 -0.34822500 0.00001500 -0.00000200
47 0.00000000 0.00000000 0.00000000 0.00000000 0.00000000 -1.57079600
48 -4.33203100 27.59375000 -3.39062500 0.00000000 0.00000000 -3.14158800
49 -3.61523400 12.53125000 -17.12500000 0.00000000 0.00000000 -1.57079600
50 -32.41375379 7.87415434 7.67793896 0.19262696 0.35817310 2.02206408
51 -34.73155449 -10.61282891 9.10839596 2.01608171 -0.68461369 -1.43046414
time 4
0 -0.00000100 7.44921900 -27.50000000 0.00000000 0.00000000 -0.00000100
1 -0.00000200 0.00000000 0.00000000 1.57074300 -1.56713700 -1.57074300
2 4.25546800 -0.33518300 -0.00000200 0.00000000 0.00000000 -0.12484800
3 7.43124800 1.49647700 0.00000200 0.00000000 0.00000000 0.24545000
4 5.27847900 0.16554100 0.00000100 0.00000000 0.00000000 0.04851100
5 0.72974405 -9.72782369 2.00241761 2.01007038 1.19165965 -1.26173097
6 -6.21448200 -0.00000700 -0.00002700 -2.80090389 -0.30569518 1.52171570
7 11.94488200 0.00000000 0.00000100 -0.92745770 -0.25119701 0.76172780
8 10.62018100 0.00000200 0.00000000 0.43765968 0.47486614 -3.02924903
9 -4.75110600 -0.69449400 0.83057700 -0.31281550 -0.20712350 1.48770900
10 -1.68806800 0.00004600 -0.00003200 -0.00699400 -0.02376950 1.72488500
11 -1.33614000 0.00005700 -0.00001200 0.02196300 -0.01463500 1.14153500
12 -4.82049400 -0.50946000 -0.22475900 -0.30161300 -0.08508700 1.55383050
13 -1.82699200 -0.00006400 0.00000600 0.02242600 0.03375800 1.86037400
14 -1.43657300 0.00000600 0.00000200 -0.05471350 -0.05536450 0.68785000
15 -3.99235500 -0.89118800 -1.82790900 -0.63459700 0.17373150 1.77372500
16 -1.40591800 -0.00002500 -0.00000300 -0.01746700 -0.02381000 1.50865700
17 -1.17535800 0.00012800 -0.00002000 0.06721900 0.01013400 1.32478600
18 -4.52675100 -0.69057500 -1.12074400 -0.48334800 0.03907500 1.69168900
19 -1.74403800 0.00003300 -0.00000800 -0.02762800 -0.01065300 1.61401790
20 -1.36877100 0.00002500 0.00000200 0.04954100 0.01743900 1.12777900
21 -1.87480000 -0.93512500 0.99917400 2.53979745 0.26986152 0.89154048
22 -1.62695300 0.15466300 0.01182600 -0.71358000 0.34979400 0.45534900
23 -1.59928500 0.00000400 0.00001600 0.04262900 -0.05328000 1.07343400
24 5.51181500 0.00000800 -0.00000100 2.09368620 0.00122688 3.14087369
25 0.19684700 -0.00000100 0.00000300 2.79340679 -0.00114092 -3.14137492
26 -1.74804107 -12.07382319 -1.81411459 1.97586200 1.15990900 1.84280300
27 6.21448500 0.00000600 0.00002000 -0.38002198 0.38296397 -1.47052003
28 11.94488500 -0.00002900 -0.00019400 0.11262527 -0.27974281 -1.21429887
29 10.62016600 0.00000200 0.00001000 -1.70166510 -0.19333646 -0.41617498
30 4.75115600 0.69437600 -0.83047300 0.00560700 -0.10373669 1.66265833
31 1.68806500 -0.00002600 0.00000200 -0.00665862 -0.02386343 1.71099377
32 1.33615100 -0.00005100 -0.00000900 -0.02902137 -0.02570738 1.21721874
33 4.82051300 0.50934000 0.22486500 -0.14786288 0.03239318 1.68127248
34 1.82699600 0.00006600 0.00000800 0.01564018 0.03739083 1.67005972
35 1.43657700 -0.00001000 0.00000700 -0.00446191 -0.01451959 1.13928958
36 3.99235300 0.89108700 1.82799400 -0.40853558 0.29728375 1.86298595
37 1.40591800 0.00002100 -0.00000700 -0.02169938 -0.02003553 1.70108297
38 1.17536900 -0.00013100 0.00000200 0.12329480 0.00032657 1.52313371
39 4.52675600 0.69046000 1.12084200 -0.29062693 0.19375345 1.80762608
40 1.74404100 -0.00003100 -0.00000200 -0.02872588 -0.00720963 1.73631481
41 1.36876300 -0.00003100 -0.00001700 0.20476039 0.10088311 1.27704249
42 1.87485500 0.93508100 -0.99913000 1.88413981 0.22305113 0.86405347
43 1.52344900 -0.00003400 -0.00000300 -0.21711621 0.17674736 0.59165197
44 1.59928100 -0.00000200 0.00000900 0.07727381 -0.03174351 1.21550587
45 5.51180600 -0.00000200 0.00000600 -0.23579700 0.00000500 0.00000700
46 0.19685000 0.00000300 -0.00000200 -0.34822500 0.00001500 -0.00000200
47 0.00000000 0.00000000 0.00000000 0.00000000 0.00000000 -1.57079600
48 -4.33203100 27.59375000 -3.39062500 0.00000000 0.00000000 -3.14158800
49 -3.61523400 12.53125000 -17.12500000 0.00000000 0.00000000 -1.57079600
50 -33.87356308 7.82125642 9.23262529 0.25772942 0.37387353 2.04241472
51 -33.41821485 -10.83259945 8.48797484 2.07438179 -0.77519227 -1.43982731
time 5
0 -0.00000100 7.44921900 -27.50000000 0.00000000 0.00000000 -0.00000100
1 -0.00000200 0.00000000 0.00000000 1.57074300 -1.56713700 -1.57074300
2 4.25546800 -0.33518300 -0.00000200 0.00000000 0.00000000 -0.12484800
3 7.43124800 1.49647700 0.00000200 0.00000000 0.00000000 0.24545000
4 5.27847900 0.16554100 0.00000100 0.00000000 0.00000000 0.04851100
5 0.21155037 -10.53063090 1.88268328 1.99974115 1.18266660 -1.27286975
6 -6.21448200 -0.00000700 -0.00002700 -2.79133909 -0.31610641 1.57363547
7 11.94488200 0.00000000 0.00000100 -0.97702467 -0.26032431 0.93895152
8 10.62018100 0.00000200 0.00000000 0.39858306 0.36258993 -3.08558339
9 -4.75110600 -0.69449400 0.83057700 -0.31281550 -0.20712350 1.48770900
10 -1.68806800 0.00004600 -0.00003200 -0.00699400 -0.02376950 1.72488349
11 -1.33614000 0.00005700 -0.00001200 0.02196501 -0.01463651 1.14155409
12 -4.82049400 -0.50946000 -0.22475900 -0.30161300 -0.08508700 1.55381292
13 -1.82699200 -0.00006400 0.00000600 0.02242600 0.03375800 1.86037400
14 -1.43657300 0.00000600 0.00000200 -0.05471350 -0.05536450 0.68785000
15 -3.99235500 -0.89118800 -1.82790900 -0.63459700 0.17373150 1.77372500
16 -1.40591800 -0.00002500 -0.00000300 -0.01746700 -0.02381000 1.50865700
17 -1.17535800 0.00012800 -0.00002000 0.06721900 0.01013400 1.32478600
18 -4.52675100 -0.69057500 -1.12074400 -0.48334850 0.03907600 1.69168900
19 -1.74403800 0.00003300 -0.00000800 -0.02762800 -0.01065300 1.61399700
20 -1.36877100 0.00002500 0.00000200 0.04954100 0.01743900 1.12779960
21 -1.87480000 -0.93512500 0.99917400 2.53979745 0.26986152 0.89154048
22 -1.62695300 0.15466300 0.01182600 -0.71358000 0.34979400 0.45534900
23 -1.59928500 0.00000400 0.00001600 0.04262900 -0.05328000 1.07343400
24 5.51181500 0.00000800 -0.00000100 2.09367364 0.00122687 3.14087367
25 0.19684700 -0.00000100 0.00000300 2.79340679 -0.00114092 -3.14137492
26 -1.03159930 -11.47122673 -1.66493773 1.97586200 1.15990900 1.84280300
27 6.21448500 0.00000600 0.00002000 -0.33031114 0.36279384 -1.49216839
28 11.94488500 -0.00002900 -0.00019400 0.07302789 -0.29382053 -1.09448874
29 10.62016600 0.00000200 0.00001000 -1.69014007 -0.22241629 -0.49885494
30 4.75115600 0.69437600 -0.83047300 0.00560700 -0.10373669 1.66265833
31 1.68806500 -0.00002600 0.00000200 -0.00666118 -0.02386538 1.71101538
32 1.33615100 -0.00005100 -0.00000900 -0.02902137 -0.02570738 1.21721874
33 4.82051300 0.50934000 0.22486500 -0.14785686 0.03239340 1.68127229
34 1.82699600 0.00006600 0.00000800 0.01564018 0.03739083 1.67005972
35 1.43657700 -0.00001000 0.00000700 -0.00446241 -0.01452009 1.13928958
36 3.99235300 0.89108700 1.82799400 -0.40853558 0.29728375 1.86298595
37 1.40591800 0.00002100 -0.00000700 -0.02169839 -0.02003606 1.70108297
38 1.17536900 -0.00013100 0.00000200 0.12329480 0.00032657 1.52315610
39 4.52675600 0.69046000 1.12084200 -0.29062347 0.19375036 1.80760654
40 1.74404100 -0.00003100 -0.00000200 -0.02872588 -0.00720963 1.73631481
41 1.36876300 -0.00003100 -0.00001700 0.20476039 0.10088311 1.27704249
42 1.87485500 0.93508100 -0.99913000 1.88413981 0.22305113 0.86405347
43 1.52344900 -0.00003400 -0.00000300 -0.21711621 0.17674736 0.59165197
44 1.59928100 -0.00000200 0.00000900 0.07727454 -0.03174172 1.21548282
45 5.51180600 -0.00000200 0.00000600 -0.23579700 0.00000500 0.00000700
46 0.19685000 0.00000300 -0.00000200 -0.34822500 0.00001500 -0.00000200
47 0.00000000 0.00000000 0.00000000 0.00000000 0.00000000 -1.57079600
48 -4.33203100 27.59375000 -3.39062500 0.00000000 0.00000000 -3.14158800
49 -3.61523400 12.53125000 -17.12500000 0.00000000 0.00000000 -1.57079600
50 -34.70323803 7.73158693 10.37084311 0.35331192 0.41142948 2.08954196
51 -32.42141073 -10.96342312 7.91258163 2.20377718 -0.82416488 -1.43772370
time 6
0 -0.00000100 7.44921900 -27.50000000 0.00000000 0.00000000 -0.00000100
1 -0.00000200 0.00000000 0.00000000 1.57074300 -1.56713700 -1.57074300
2 4.25546800 -0.33518300 -0.00000200 0.00000000 0.00000000 -0.12484800
3 7.43124800 1.49647700 0.00000200 0.00000000 0.00000000 0.24545000
4 5.27847900 0.16554100 0.00000100 0.00000000 0.00000000 0.04851100
5 -0.28112611 -11.29418073 1.76883797 1.99037365 1.17408311 -1.28300779
6 -6.21448200 -0.00000700 -0.00002700 -2.77082572 -0.33362255 1.59021995
7 11.94488200 0.00000000 0.00000100 -1.02812522 -0.29824148 1.07233608
8 10.62018100 0.00000200 0.00000000 0.36550265 0.26053711 -3.11511903
9 -4.75110600 -0.69449400 0.83057700 -0.31281550 -0.20712350 1.48770900
10 -1.68806800 0.00004600 -0.00003200 -0.00699400 -0.02376950 1.72488349
11 -1.33614000 0.00005700 -0.00001200 0.02196501 -0.01463651 1.14155409
12 -4.82049400 -0.50946000 -0.22475900 -0.30161300 -0.08508700 1.55381292
13 -1.82699200 -0.00006400 0.00000600 0.02242600 0.03375800 1.86037400
14 -1.43657300 0.00000600 0.00000200 -0.05471350 -0.05536450 0.68785000
15 -3.99235500 -0.89118800 -1.82790900 -0.63459700 0.17373150 1.77372500
16 -1.40591800 -0.00002500 -0.00000300 -0.01746700 -0.02381000 1.50865700
17 -1.17535800 0.00012800 -0.00002000 0.06721900 0.01013400 1.32478600
18 -4.52675100 -0.69057500 -1.12074400 -0.48334850 0.03907600 1.69168900
19 -1.74403800 0.00003300 -0.00000800 -0.02762800 -0.01065300 1.61399700
20 -1.36877100 0.00002500 0.00000200 0.04954100 0.01743900 1.12777900
21 -1.87480000 -0.93512500 0.99917400 2.53979745 0.26986152 0.89154048
22 -1.62695300 0.15466300 0.01182600 -0.71358000 0.34979400 0.45534900
23 -1.59928500 0.00000400 0.00001600 0.04262900 -0.05328000 1.07343400
24 5.51181500 0.00000800 -0.00000100 2.09368620 0.00122688 3.14087369
25 0.19684700 -0.00000100 0.00000300 2.79340679 -0.00114092 -3.14137492
26 -0.24842078 -10.91181350 -1.53342639 1.97586200 1.15990900 1.84280300
27 6.21448500 0.00000600 0.00002000 -0.29500728 0.34980859 -1.52945604
28 11.94488500 -0.00002900 -0.00019400 0.02782687 -0.30732818 -0.96555405
29 10.62016600 0.00000200 0.00001000 -1.69045299 -0.26780034 -0.57424172
30 4.75115600 0.69437600 -0.83047300 0.00560700 -0.10373669 1.66265833
31 1.68806500 -0.00002600 0.00000200 -0.00666118 -0.02386538 1.71101538
32 1.33615100 -0.00005100 -0.00000900 -0.02902137 -0.02570738 1.21721874
33 4.82051300 0.50934000 0.22486500 -0.14785686 0.03239340 1.68127229
34 1.82699600 0.00006600 0.00000800 0.01564018 0.03739083 1.67005972
35 1.43657700 -0.00001000 0.00000700 -0.00446241 -0.01452009 1.13928958
36 3.99235300 0.89108700 1.82799400 -0.40853558 0.29728375 1.86298595
37 1.40591800 0.00002100 -0.00000700 -0.02169839 -0.02003606 1.70110536
38 1.17536900 -0.00013100 0.00000200 0.12329480 0.00032657 1.52311110
39 4.52675600 0.69046000 1.12084200 -0.29062347 0.19375036 1.80760654
40 1.74404100 -0.00003100 -0.00000200 -0.02872588 -0.00720963 1.73633819
41 1.36876300 -0.00003100 -0.00001700 0.20476039 0.10088311 1.27704249
42 1.87485500 0.93508100 -0.99913000 1.88413981 0.22305113 0.86405347
43 1.52344900 -0.00003400 -0.00000300 -0.21711621 0.17674736 0.59165197
44 1.59928100 -0.00000200 0.00000900 0.07727381 -0.03174351 1.21550587
45 5.51180600 -0.00000200 0.00000600 -0.23579700 0.00000500 0.00000700
46 0.19685000 0.00000300 -0.00000200 -0.34822500 0.00001500 -0.00000200
47 0.00000000 0.00000000 0.00000000 0.00000000 0.00000000 -1.57079600
48 -4.33203100 27.59375000 -3.39062500 0.00000000 0.00000000 -3.14158800
49 -3.61523400 12.53125000 -17.12500000 0.00000000 0.00000000 -1.57079600
50 -34.78378250 7.58386895 11.05431765 0.47322659 0.45704512 2.17026924
51 -31.59049179 -10.98669729 7.48518565 2.37660544 -0.82198270 -1.43704073
time 7
0 -0.00000100 7.44921900 -27.50000000 0.00000000 0.00000000 -0.00000100
1 -0.00000200 0.00000000 0.00000000 1.57074300 -1.56713700 -1.57074300
2 4.25546800 -0.33518300 -0.00000200 0.00000000 0.00000000 -0.12484800
3 7.43124800 1.49647700 0.00000200 0.00000000 0.00000000 0.24545000
4 5.27847900 0.16554100 0.00000100 0.00000000 0.00000000 0.04851100
5 -0.69332515 -11.93799674 1.67265768 1.98279302 1.16681715 -1.29123926
6 -6.21448200 -0.00000700 -0.00002700 -2.74877020 -0.33953779 1.59465904
7 11.94488200 0.00000000 0.00000100 -1.06315485 -0.31887358 1.17123341
8 10.62018100 0.00000200 0.00000000 0.34420107 0.18374436 3.14006850
9 -4.75110600 -0.69449400 0.83057700 -0.31281550 -0.20712350 1.48770900
10 -1.68806800 0.00004600 -0.00003200 -0.00699400 -0.02376950 1.72488349
11 -1.33614000 0.00005700 -0.00001200 0.02196501 -0.01463651 1.14155409
12 -4.82049400 -0.50946000 -0.22475900 -0.30161300 -0.08508700 1.55381292
13 -1.82699200 -0.00006400 0.00000600 0.02242600 0.03375800 1.86037400
14 -1.43657300 0.00000600 0.00000200 -0.05471350 -0.05536450 0.68785000
15 -3.99235500 -0.89118800 -1.82790900 -0.63459700 0.17373150 1.77372500
16 -1.40591800 -0.00002500 -0.00000300 -0.01746700 -0.02381000 1.50865700
17 -1.17535800 0.00012800 -0.00002000 0.06721900 0.01013400 1.32478600
18 -4.52675100 -0.69057500 -1.12074400 -0.48334850 0.03907600 1.69168900
19 -1.74403800 0.00003300 -0.00000800 -0.02762800 -0.01065300 1.61399700
20 -1.36877100 0.00002500 0.00000200 0.04954100 0.01743900 1.12777900
21 -1.87480000 -0.93512500 0.99917400 2.53979745 0.26986152 0.89154048
22 -1.62695300 0.15466300 0.01182600 -0.71358000 0.34979400 0.45534900
23 -1.59928500 0.00000400 0.00001600 0.04262900 -0.05328000 1.07343400
24 5.51181500 0.00000800 -0.00000100 2.09368620 0.00122688 3.14087369
25 0.19684700 -0.00000100 0.00000300 2.79340679 -0.00114092 -3.14137492
26 0.56616345 -10.45839441 -1.44706095 1.97586200 1.15990900 1.84280300
27 6.21448500 0.00000600 0.00002000 -0.28154695 0.34467453 -1.57452986
28 11.94488500 -0.00002900 -0.00019400 -0.01396143 -0.31092985 -0.84155018
29 10.62016600 0.00000200 0.00001000 -1.69733759 -0.32042445 -0.64065739
30 4.75115600 0.69437600 -0.83047300 0.00560700 -0.10373669 1.66265833
31 1.68806500 -0.00002600 0.00000200 -0.00666118 -0.02386538 1.71101538
32 1.33615100 -0.00005100 -0.00000900 -0.02902137 -0.02570738 1.21721874
33 4.82051300 0.50934000 0.22486500 -0.14785686 0.03239340 1.68127229
34 1.82699600 0.00006600 0.00000800 0.01564018 0.03739083 1.67005972
35 1.43657700 -0.00001000 0.00000700 -0.00446241 -0.01452009 1.13928958
36 3.99235300 0.89108700 1.82799400 -0.40853558 0.29728375 1.86298595
37 1.40591800 0.00002100 -0.00000700 -0.02169839 -0.02003606 1.70108297
38 1.17536900 -0.00013100 0.00000200 0.12329480 0.00032657 1.52313371
39 4.52675600 0.69046000 1.12084200 -0.29062347 0.19375036 1.80760654
40 1.74404100 -0.00003100 -0.00000200 -0.02872588 -0.00720963 1.73631481
41 1.36876300 -0.00003100 -0.00001700 0.20476039 0.10088311 1.27704249
42 1.87485500 0.93508100 -0.99913000 1.88413981 0.22305113 0.86405347
43 1.52344900 -0.00003400 -0.00000300 -0.21711621 0.17674736 0.59165197
44 1.59928100 -0.00000200 0.00000900 0.07727381 -0.03174351 1.21550587
45 5.51180600 -0.00000200 0.00000600 -0.23579700 0.00000500 0.00000700
46 0.19685000 0.00000300 -0.00000200 -0.34822500 0.00001500 -0.00000200
47 0.00000000 0.00000000 0.00000000 0.00000000 0.00000000 -1.57079600
48 -4.33203100 27.59375000 -3.39062500 0.00000000 0.00000000 -3.14158800
49 -3.61523400 12.53125000 -17.12500000 0.00000000 0.00000000 -1.57079600
50 -34.46809743 7.38332625 11.42112100 0.59832422 0.48090517 2.27210486
51 -30.99565076 -10.94787960 7.20855769 2.55274257 -0.77979822 -1.44314673
time 8
0 -0.00000100 7.44921900 -27.50000000 0.00000000 0.00000000 -0.00000100
1 -0.00000200 0.00000000 0.00000000 1.57074300 -1.56713700 -1.57074300
2 4.25546800 -0.33518300 -0.00000200 0.00000000 0.00000000 -0.12484800
3 7.43124800 1.49647700 0.00000200 0.00000000 0.00000000 0.24545000
4 5.27847900 0.16554100 0.00000100 0.00000000 0.00000000 0.04851100
5 -0.97990185 -12.38160199 1.60592092 1.97771934 1.16178460 -1.29676304
6 -6.21448200 -0.00000700 -0.00002700 -2.73366168 -0.33821851 1.59191940
7 11.94488200 0.00000000 0.00000100 -1.08389221 -0.33117986 1.23216383
8 10.62018100 0.00000200 0.00000000 0.33652471 0.13346492 3.12165522
9 -4.75110600 -0.69449400 0.83057700 -0.31281550 -0.20712350 1.48770900
10 -1.68806800 0.00004600 -0.00003200 -0.00699400 -0.02376950 1.72488349
11 -1.33614000 0.00005700 -0.00001200 0.02196501 -0.01463651 1.14157400
12 -4.82049400 -0.50946000 -0.22475900 -0.30161300 -0.08508700 1.55383050
13 -1.82699200 -0.00006400 0.00000600 0.02242600 0.03375800 1.86037400
14 -1.43657300 0.00000600 0.00000200 -0.05471350 -0.05536450 0.68785000
15 -3.99235500 -0.89118800 -1.82790900 -0.63459700 0.17373150 1.77372500
16 -1.40591800 -0.00002500 -0.00000300 -0.01746700 -0.02381000 1.50865700
17 -1.17535800 0.00012800 -0.00002000 0.06721900 0.01013400 1.32478600
18 -4.52675100 -0.69057500 -1.12074400 -0.48334850 0.03907600 1.69168900
19 -1.74403800 0.00003300 -0.00000800 -0.02762800 -0.01065300 1.61399700
20 -1.36877100 0.00002500 0.00000200 0.04954100 0.01743900 1.12777900
21 -1.87480000 -0.93512500 0.99917400 2.53979745 0.26986152 0.89154048
22 -1.62695300 0.15466300 0.01182600 -0.71358000 0.34979400 0.45534900
23 -1.59928500 0.00000400 0.00001600 0.04262900 -0.05328000 1.07343400
24 5.51181500 0.00000800 -0.00000100 2.09368620 0.00122688 3.14087369
25 0.19684700 -0.00000100 0.00000300 2.79340679 -0.00114092 -3.14137492
26 1.37682235 -10.16985453 -1.42350692 1.97586200 1.15990900 1.84280300
27 6.21448500 0.00000600 0.00002000 -0.29090850 0.34880782 -1.61673068
28 11.94488500 -0.00002900 -0.00019400 -0.04297311 -0.30283333 -0.74211679
29 10.62016600 0.00000200 0.00001000 -1.70114221 -0.36880764 -0.69625186
30 4.75115600 0.69437600 -0.83047300 0.00560700 -0.10373669 1.66265833
31 1.68806500 -0.00002600 0.00000200 -0.00666118 -0.02386538 1.71101538
32 1.33615100 -0.00005100 -0.00000900 -0.02902137 -0.02570738 1.21721874
33 4.82051300 0.50934000 0.22486500 -0.14785686 0.03239340 1.68127229
34 1.82699600 0.00006600 0.00000800 0.01564018 0.03739083 1.67005972
35 1.43657700 -0.00001000 0.00000700 -0.00446241 -0.01452009 1.13928958
36 3.99235300 0.89108700 1.82799400 -0.40853558 0.29728375 1.86298595
37 1.40591800 0.00002100 -0.00000700 -0.02169839 -0.02003606 1.70108297
38 1.17536900 -0.00013100 0.00000200 0.12329480 0.00032657 1.52313371
39 4.52675600 0.69046000 1.12084200 -0.29062347 0.19375036 1.80760654
40 1.74404100 -0.00003100 -0.00000200 -0.02872588 -0.00720963 1.73633819
41 1.36876300 -0.00003100 -0.00001700 0.20476039 0.10088311 1.27704249
42 1.87485500 0.93508100 -0.99913000 1.88413981 0.22305113 0.86405347
43 1.52344900 -0.00003400 -0.00000300 -0.21711621 0.17674736 0.59165197
44 1.59928100 -0.00000200 0.00000900 0.07727454 -0.03174172 1.21548282
45 5.51180600 -0.00000200 0.00000600 -0.23579700 0.00000500 0.00000700
46 0.19685000 0.00000300 -0.00000200 -0.34822500 0.00001500 -0.00000200
47 0.00000000 0.00000000 0.00000000 0.00000000 0.00000000 -1.57079600
48 -4.33203100 27.59375000 -3.39062500 0.00000000 0.00000000 -3.14158800
49 -3.61523400 12.53125000 -17.12500000 0.00000000 0.00000000 -1.57079600
50 -34.14364221 7.21182458 11.56949665 0.70319870 0.46252560 2.36716809
51 -30.63408286 -10.95183399 7.06778114 2.69924108 -0.71280937 -1.45534603
time 9
0 -0.00000100 7.44921900 -27.50000000 0.00000000 0.00000000 -0.00000100
1 -0.00000200 0.00000000 0.00000000 1.57074300 -1.56713700 -1.57074300
2 4.25546800 -0.33518300 -0.00000200 0.00000000 0.00000000 -0.12484800
3 7.43124800 1.49647700 0.00000200 0.00000000 0.00000000 0.24545000
4 5.27847900 0.16554100 0.00000100 0.00000000 0.00000000 0.04851100
5 -1.08785866 -12.54844437 1.58236689 1.97586400 1.15990900 -1.29878600
6 -6.21448200 -0.00000700 -0.00002700 -2.72798734 -0.33265538 1.58740789
7 11.94488200 0.00000000 0.00000100 -1.09075421 -0.33402399 1.25281359
8 10.62018100 0.00000200 0.00000000 0.34159216 0.11086459 3.11274155
9 -4.75110600 -0.69449400 0.83057700 -0.31281550 -0.20712350 1.48770900
10 -1.68806800 0.00004600 -0.00003200 -0.00699400 -0.02376950 1.72488349
11 -1.33614000 0.00005700 -0.00001200 0.02196501 -0.01463651 1.14157400
12 -4.82049400 -0.50946000 -0.22475900 -0.30161300 -0.08508700 1.55381292
13 -1.82699200 -0.00006400 0.00000600 0.02242600 0.03375800 1.86037400
14 -1.43657300 0.00000600 0.00000200 -0.05471350 -0.05536450 0.68785000
15 -3.99235500 -0.89118800 -1.82790900 -0.63459700 0.17373150 1.77372500
16 -1.40591800 -0.00002500 -0.00000300 -0.01746700 -0.02381000 1.50865700
17 -1.17535800 0.00012800 -0.00002000 0.06721900 0.01013400 1.32478600
18 -4.52675100 -0.69057500 -1.12074400 -0.48334850 0.03907600 1.69168900
19 -1.74403800 0.00003300 -0.00000800 -0.02762800 -0.01065300 1.61399700
20 -1.36877100 0.00002500 0.00000200 0.04954100 0.01743900 1.12779940
21 -1.87480000 -0.93512500 0.99917400 2.53979745 0.26986152 0.89154048
22 -1.62695300 0.15466300 0.01182600 -0.71358000 0.34979400 0.45534900
23 -1.59928500 0.00000400 0.00001600 0.04262900 -0.05328000 1.07343400
24 5.51181500 0.00000800 -0.00000100 2.09367376 0.00122687 3.14087367
25 0.19684700 -0.00000100 0.00000300 2.79340679 -0.00114092 -3.14137492
26 2.15018652 -10.11096895 -1.48828100 1.97586200 1.15990900 1.84280300
27 6.21448500 0.00000600 0.00002000 -0.31757381 0.36744122 -1.64322447
28 11.94488500 -0.00002900 -0.00019400 -0.05273386 -0.28859319 -0.69284461
29 10.62016600 0.00000200 0.00001000 -1.69030507 -0.40069445 -0.73626246
30 4.75115600 0.69437600 -0.83047300 0.00560700 -0.10373669 1.66265833
31 1.68806500 -0.00002600 0.00000200 -0.00666118 -0.02386538 1.71101538
32 1.33615100 -0.00005100 -0.00000900 -0.02902137 -0.02570738 1.21721874
33 4.82051300 0.50934000 0.22486500 -0.14785686 0.03239340 1.68127229
34 1.82699600 0.00006600 0.00000800 0.01564018 0.03739083 1.67005972
35 1.43657700 -0.00001000 0.00000700 -0.00446241 -0.01452009 1.13928958
36 3.99235300 0.89108700 1.82799400 -0.40852955 0.29728352 1.86298596
37 1.40591800 0.00002100 -0.00000700 -0.02169839 -0.02003606 1.70108297
38 1.17536900 -0.00013100 0.00000200 0.12329480 0.00032657 1.52315610
39 4.52675600 0.69046000 1.12084200 -0.29062347 0.19375036 1.80760654
40 1.74404100 -0.00003100 -0.00000200 -0.02872588 -0.00720963 1.73631481
41 1.36876300 -0.00003100 -0.00001700 0.20476039 0.10088311 1.27704249
42 1.87485500 0.93508100 -0.99913000 1.88413981 0.22305113 0.86405347
43 1.52344900 -0.00003400 -0.00000300 -0.21711621 0.17674736 0.59165197
44 1.59928100 -0.00000200 0.00000900 0.07727381 -0.03174351 1.21550587
45 5.51180600 -0.00000200 0.00000600 -0.23579700 0.00000500 0.00000700
46 0.19685000 0.00000300 -0.00000200 -0.34822500 0.00001500 -0.00000200
47 0.00000000 0.00000000 0.00000000 0.00000000 0.00000000 -1.57079600
48 -4.33203100 27.59375000 -3.39062500 0.00000000 0.00000000 -3.14158800
49 -3.61523400 12.53125000 -17.12500000 0.00000000 0.00000000 -1.57079600
50 -33.93955336 7.14402463 11.61267155 0.76717858 0.39835350 2.42979301
51 -30.49161743 -11.03999758 7.10733294 2.79811502 -0.63484961 -1.47411446
time 10
0 -0.00000100 7.44921900 -27.50000000 0.00000000 0.00000000 -0.00000100
1 -0.00000200 0.00000000 0.00000000 1.57074300 -1.56713700 -1.57074300
2 4.25546800 -0.33518300 -0.00000200 0.00000000 0.00000000 -0.12484800
3 7.43124800 1.49647700 0.00000200 0.00000000 0.00000000 0.24545000
4 5.27847900 0.16554100 0.00000100 0.00000000 0.00000000 0.04851100
5 -0.97990185 -12.38160199 1.60592092 1.97771934 1.16178460 -1.29676304
6 -6.21448200 -0.00000700 -0.00002700 -2.73367362 -0.32534046 1.58312813
7 11.94488200 0.00000000 0.00000100 -1.08255539 -0.32842960 1.22751838
8 10.62018100 0.00000200 0.00000000 0.35489151 0.12791568 3.11901444
9 -4.75110600 -0.69449400 0.83057700 -0.31281550 -0.20712350 1.48770900
10 -1.68806800 0.00004600 -0.00003200 -0.00699400 -0.02376950 1.72488500
11 -1.33614000 0.00005700 -0.00001200 0.02196451 -0.01463701 1.14155409
12 -4.82049400 -0.50946000 -0.22475900 -0.30161400 -0.08508600 1.55383000
13 -1.82699200 -0.00006400 0.00000600 0.02242600 0.03375800 1.86037400
14 -1.43657300 0.00000600 0.00000200 -0.05471350 -0.05536450 0.68785000
15 -3.99235500 -0.89118800 -1.82790900 -0.63459700 0.17373150 1.77372500
16 -1.40591800 -0.00002500 -0.00000300 -0.01746700 -0.02381000 1.50865700
17 -1.17535800 0.00012800 -0.00002000 0.06721900 0.01013400 1.32478600
18 -4.52675100 -0.69057500 -1.12074400 -0.48334800 0.03907500 1.69168900
19 -1.74403800 0.00003300 -0.00000800 -0.02763252 -0.01065049 1.61401710
20 -1.36877100 0.00002500 0.00000200 0.04954401 0.01743599 1.12779809
21 -1.87480000 -0.93512500 0.99917400 2.53980800 0.26985700 0.89154500
22 -1.62695300 0.15466300 0.01182600 -0.71358000 0.34979400 0.45534900
23 -1.59928500 0.00000400 0.00001600 0.04262900 -0.05328000 1.07343400
24 5.51181500 0.00000800 -0.00000100 2.09367448 -0.00003083 -3.14158340
25 0.19684700 -0.00000100 0.00000300 2.79340679 -0.00114092 -3.14137492
26 2.85877712 -10.36025145 -1.53538956 1.97586200 1.15990900 1.84280300
27 6.21448500 0.00000600 0.00002000 -0.34684407 0.40754110 -1.63445922
28 11.94488500 -0.00002900 -0.00019400 -0.04079203 -0.27558670 -0.71806860
29 10.62016600 0.00000200 0.00001000 -1.66009164 -0.40544875 -0.75694034
30 4.75115600 0.69437600 -0.83047300 0.00560700 -0.10373669 1.66265833
31 1.68806500 -0.00002600 0.00000200 -0.00666070 -0.02386639 1.71101538
32 1.33615100 -0.00005100 -0.00000900 -0.02902137 -0.02570738 1.21721874
33 4.82051300 0.50934000 0.22486500 -0.14786105 0.03239823 1.68128958
34 1.82699600 0.00006600 0.00000800 0.01564018 0.03739083 1.67005972
35 1.43657700 -0.00001000 0.00000700 -0.00446191 -0.01451959 1.13928958
36 3.99235300 0.89108700 1.82799400 -0.40853558 0.29728375 1.86298595
37 1.40591800 0.00002100 -0.00000700 -0.02169938 -0.02003553 1.70108297
38 1.17536900 -0.00013100 0.00000200 0.12329618 0.00032250 1.52313320
39 4.52675600 0.69046000 1.12084200 -0.29062693 0.19375345 1.80762608
40 1.74404100 -0.00003100 -0.00000200 -0.02872853 -0.00720570 1.73635980
41 1.36876300 -0.00003100 -0.00001700 0.20476039 0.10088311 1.27704249
42 1.87485500 0.93508100 -0.99913000 1.88413981 0.22305113 0.86405347
43 1.52344900 -0.00003400 -0.00000300 -0.21711621 0.17674736 0.59165197
44 1.59928100 -0.00000200 0.00000900 0.07727381 -0.03174956 1.21555085
45 5.51180600 -0.00000200 0.00000600 -0.23579700 0.00000500 0.00000700
46 0.19685000 0.00000300 -0.00000200 -0.34822500 0.00001500 -0.00000200
47 0.00000000 0.00000000 0.00000000 0.00000000 0.00000000 -1.57079600
48 -4.33203100 27.59375000 -3.39062500 0.00000000 0.00000000 -3.14158800
49 -3.61523400 12.53125000 -17.12500000 0.00000000 0.00000000 -1.57079600
50 -33.90968394 7.18423029 11.61843057 0.79804372 0.29527195 2.46062405
51 -30.56344913 -11.18932116 7.37909376 2.85429208 -0.56791290 -1.48476885
end
