version 1
nodes
0 "root" -1
1 "pelvis" 0
2 "spine_01" 1
3 "spine_02" 2
4 "spine_03" 3
5 "clavicle_r" 4
6 "upperarm_r" 5
7 "lowerarm_r" 6
8 "hand_r" 7
9 "index_01_r" 8
10 "index_02_r" 9
11 "index_03_r" 10
12 "middle_01_r" 8
13 "middle_02_r" 12
14 "middle_03_r" 13
15 "pinky_01_r" 8
16 "pinky_02_r" 15
17 "pinky_03_r" 16
18 "ring_01_r" 8
19 "ring_02_r" 18
20 "ring_03_r" 19
21 "thumb_01_r" 8
22 "thumb_02_r" 21
23 "thumb_03_r" 22
24 "lowerarm_twist_01_r" 7
25 "upperarm_twist_01_r" 6
26 "clavicle_l" 4
27 "upperarm_l" 26
28 "lowerarm_l" 27
29 "hand_l" 28
30 "index_01_l" 29
31 "index_02_l" 30
32 "index_03_l" 31
33 "middle_01_l" 29
34 "middle_02_l" 33
35 "middle_03_l" 34
36 "pinky_01_l" 29
37 "pinky_02_l" 36
38 "pinky_03_l" 37
39 "ring_01_l" 29
40 "ring_02_l" 39
41 "ring_03_l" 40
42 "thumb_01_l" 29
43 "thumb_02_l" 42
44 "thumb_03_l" 43
45 "lowerarm_twist_01_l" 28
46 "upperarm_twist_01_l" 27
47 "cam_driver" -1
48 "BaseRoot" -1
49 "Base" 48
50 "rhand_ikTarget" 49
51 "Hammer" 49
52 "CyCloser" 49
53 "Cy" 49
54 "Bullet.001" 53
55 "Bullet.002" 53
56 "PusherHolder" 49
57 "Pusher" 56
58 "Trigger" 49
59 "lhand_ikTarget" 49
end
skeleton
time 0
0 -0.00000100 8.45008800 -27.50902600 0.00000000 0.00000000 0.00003100
1 -0.00000200 0.00000000 0.00000000 1.57074300 -1.56713700 -1.57074300
2 4.25546800 -0.33518300 -0.00000200 0.00000000 0.00000000 -0.12484800
3 7.43124800 1.49647700 0.00000200 0.00000000 0.00000000 0.24545000
4 5.27847900 0.16554100 0.00000100 0.00000000 0.00000000 0.04851100
5 -6.08741000 -12.28565200 1.43908600 1.97586400 1.15990900 -1.29878600
6 -6.21448200 -0.00000700 -0.00002700 -2.20194817 -0.39656115 1.32321843
7 11.94488200 0.00000000 0.00000100 -1.60196415 -0.35864369 1.72394629
8 10.62018100 0.00000200 0.00000000 -0.11461551 0.11915247 2.61633174
9 -4.75110600 -0.69449400 0.83057700 -0.26176500 -0.26982200 0.66583300
10 -1.68806800 0.00004600 -0.00003200 0.01569200 -0.01906800 0.74955800
11 -1.33614000 0.00005700 -0.00001200 0.01961600 -0.01759000 1.28482400
12 -4.82049400 -0.50946000 -0.22475900 -0.26084500 0.21374100 1.64897400
13 -1.82699200 -0.00006400 0.00000600 -0.01520200 0.03755300 0.88896800
14 -1.43657300 0.00000600 0.00000200 -0.06517800 -0.04241000 0.90266200
15 -3.99235500 -0.89118800 -1.82790900 -0.52084900 0.34179900 1.51527800
16 -1.40591800 -0.00002500 -0.00000300 0.00507600 -0.02907100 0.70200400
17 -1.17535800 0.00012800 -0.00002000 0.05677300 0.03733400 0.89401900
18 -4.52675100 -0.69057500 -1.12074400 -0.36586200 0.31587000 1.75669500
19 -1.74403800 0.00003300 -0.00000800 -0.01668800 -0.02440900 1.01221400
20 -1.36877100 0.00002500 0.00000200 0.02596100 0.04564200 0.41256700
21 -1.87480000 -0.93512500 0.99917400 1.99500900 0.49378100 0.93085200
22 -1.52345300 0.00003200 0.00003100 0.06491800 0.04056800 0.55288000
23 -1.59928500 0.00000400 0.00001600 0.03779100 -0.02036500 0.47607600
24 5.51181500 0.00000800 -0.00000100 0.77177348 -0.00042869 -3.14047707
25 0.19684700 -0.00000100 0.00000300 2.79340681 -0.00100567 -3.14137697
26 0.18839300 -12.84705500 -5.24150100 1.97586200 1.15990900 1.84280300
27 6.21448500 0.00000600 0.00002000 -0.05681159 0.66341651 -2.35256091
28 11.94488500 -0.00002900 -0.00019400 -0.07092022 -0.32189571 -1.24600216
29 10.62016600 0.00000200 0.00001000 -1.15380880 0.08264543 -0.51566561
30 4.75115600 0.69437600 -0.83047300 0.33798500 -0.30674000 0.34098200
31 1.68806500 -0.00002600 0.00000200 0.01757500 -0.01737000 0.64737200
32 1.33615100 -0.00005100 -0.00000900 0.01100700 -0.03708800 0.08210300
33 4.82051300 0.50934000 0.22486500 0.01692600 -0.41175000 0.50323800
34 1.82699600 0.00006600 0.00000800 -0.01786200 0.03632900 0.81693800
35 1.43657700 -0.00001000 0.00000700 -0.06271600 -0.05148600 0.39518300
36 3.99235300 0.89108700 1.82799400 -0.57177300 -0.43776000 0.85434600
37 1.40591800 0.00002100 -0.00000700 -0.00241400 -0.02938600 0.95757000
38 1.17536900 -0.00013100 0.00000200 0.07055700 0.10117400 0.56560400
39 4.52675600 0.69046000 1.12084200 -0.35878000 -0.46637900 0.75126100
40 1.74404100 -0.00003100 -0.00000200 -0.09416100 -0.04065700 0.92656100
41 1.36876300 -0.00003100 -0.00001700 0.07560900 0.13958700 0.31323400
42 1.92187300 0.94015400 -0.99612300 1.53421100 0.54272100 0.59169000
43 1.50961100 -0.11666300 0.06074900 -0.02529400 0.03293700 0.31396200
44 1.59928100 -0.00000200 0.00000900 0.08335800 0.00382800 0.78001600
45 5.51180600 -0.00000200 0.00000600 -0.70632100 0.00000000 0.00000000
46 0.19685000 0.00000300 -0.00000200 -0.34822500 0.00001500 -0.00000200
47 0.00000000 1.00000000 0.00000000 0.00000000 0.00000000 -1.57079600
48 -4.35891900 15.64492700 -3.56452500 0.00000000 0.00000000 -3.14156200
49 3.21335469 28.60044336 1.40945355 -0.99920594 1.47666696 -2.30912691
50 6.95582000 0.51833200 -2.35925200 0.03306700 0.98900600 1.35504400
51 1.70982000 -0.02241100 -0.64980100 0.00000000 0.00000000 0.00000000
52 0.68692200 0.55921800 -0.63897400 0.00000000 0.00000000 0.00000000
53 -0.69405400 -0.05092100 0.18168300 0.00000000 0.00000000 0.00000000
54 0.01078600 0.45235400 0.36730700 0.00000000 0.00000000 0.00000000
55 0.01078400 -0.57687800 -0.13637700 0.00000000 0.00000000 0.00000000
56 -2.90365800 -0.05523500 0.76485600 0.00000000 0.00000000 0.00000000
57 -0.46398000 0.00253200 -0.63476700 0.00000000 0.00000000 0.00000000
58 -0.38315400 -0.01997600 -1.20466500 0.00000000 -0.94470200 0.00000000
59 10.73674800 -3.11154500 0.66600800 2.61856200 0.15942500 -2.82060300
time 1
0 -0.00000100 8.45008800 -27.50902600 0.00000000 0.00000000 0.00003100
1 -0.00000200 0.00000000 0.00000000 1.57074300 -1.56713700 -1.57074300
2 4.25546800 -0.33518300 -0.00000200 0.00000000 0.00000000 -0.12484800
3 7.43124800 1.49647700 0.00000200 0.00000000 0.00000000 0.24545000
4 5.27847900 0.16554100 0.00000100 0.00000000 0.00000000 0.04851100
5 -5.91875200 -12.18544400 1.37751000 1.97586400 1.15990900 -1.29878600
6 -6.21448200 -0.00000700 -0.00002700 -2.23889558 -0.40952462 1.31977169
7 11.94488200 0.00000000 0.00000100 -1.60411964 -0.35457251 1.73055636
8 10.62018100 0.00000200 0.00000000 -0.09903720 0.03228288 2.55070770
9 -4.75110600 -0.69449400 0.83057700 -0.26176500 -0.26982200 0.66583300
10 -1.68806800 0.00004600 -0.00003200 0.01569200 -0.01906800 0.74955800
11 -1.33614000 0.00005700 -0.00001200 0.01961600 -0.01759000 1.28482400
12 -4.82049400 -0.50946000 -0.22475900 -0.26084500 0.21374100 1.64897400
13 -1.82699200 -0.00006400 0.00000600 -0.01520200 0.03755300 0.88896800
14 -1.43657300 0.00000600 0.00000200 -0.06517800 -0.04241000 0.90266200
15 -3.99235500 -0.89118800 -1.82790900 -0.52084900 0.34179900 1.51527800
16 -1.40591800 -0.00002500 -0.00000300 0.00507600 -0.02907100 0.70200400
17 -1.17535800 0.00012800 -0.00002000 0.05677300 0.03733400 0.89401900
18 -4.52675100 -0.69057500 -1.12074400 -0.36586200 0.31587000 1.75669500
19 -1.74403800 0.00003300 -0.00000800 -0.01668800 -0.02440900 1.01221400
20 -1.36877100 0.00002500 0.00000200 0.02596100 0.04564200 0.41256700
21 -1.87480000 -0.93512500 0.99917400 1.99500900 0.49378100 0.93085200
22 -1.52345300 0.00003200 0.00003100 0.06491800 0.04056800 0.55288000
23 -1.59928500 0.00000400 0.00001600 0.03779100 -0.02036500 0.47607600
24 5.51181500 0.00000800 -0.00000100 0.77177348 -0.00042869 -3.14047707
25 0.19684700 -0.00000100 0.00000300 2.79340681 -0.00100567 -3.14137697
26 0.18839300 -12.84705500 -5.24150100 1.97586200 1.15990900 1.84280300
27 6.21448500 0.00000600 0.00002000 -0.06873789 0.66005355 -2.32020457
28 11.94488500 -0.00002900 -0.00019400 -0.03393678 -0.31443141 -1.35680279
29 10.62016600 0.00000200 0.00001000 -1.16982381 0.08642574 -0.39684539
30 4.75115600 0.69437600 -0.83047300 0.33798500 -0.30674000 0.34098200
31 1.68806500 -0.00002600 0.00000200 0.01757500 -0.01737000 0.64737200
32 1.33615100 -0.00005100 -0.00000900 0.01100700 -0.03708800 0.08210300
33 4.82051300 0.50934000 0.22486500 0.01692600 -0.41175000 0.50323800
34 1.82699600 0.00006600 0.00000800 -0.01786200 0.03632900 0.81693800
35 1.43657700 -0.00001000 0.00000700 -0.06271600 -0.05148600 0.39518300
36 3.99235300 0.89108700 1.82799400 -0.57177300 -0.43776000 0.85434600
37 1.40591800 0.00002100 -0.00000700 -0.00241400 -0.02938600 0.95757000
38 1.17536900 -0.00013100 0.00000200 0.07055700 0.10117400 0.56560400
39 4.52675600 0.69046000 1.12084200 -0.35878000 -0.46637900 0.75126100
40 1.74404100 -0.00003100 -0.00000200 -0.09416100 -0.04065700 0.92656100
41 1.36876300 -0.00003100 -0.00001700 0.07560900 0.13958700 0.31323400
42 1.92187300 0.94015400 -0.99612300 1.53421100 0.54272100 0.59169000
43 1.50961100 -0.11666300 0.06074900 -0.02529400 0.03293700 0.31396200
44 1.59928100 -0.00000200 0.00000900 0.08335800 0.00382800 0.78001600
45 5.51180600 -0.00000200 0.00000600 -0.69327200 0.00000000 0.00000000
46 0.19685000 0.00000300 -0.00000200 -0.34822500 0.00001500 -0.00000200
47 0.00000000 1.00000000 0.00000000 0.00000000 0.00000000 -1.57079600
48 -4.35891900 15.64492700 -3.56452500 0.00000000 0.00000000 -3.14156200
49 2.95752470 29.16474036 1.48564597 -0.81578503 1.38157273 -2.09775095
50 6.95582000 0.51833200 -2.35925200 0.03306700 0.98900600 1.35504400
51 1.70982000 -0.02241100 -0.64980100 0.00000000 0.00000000 0.00000000
52 0.68692200 0.55921800 -0.63897400 0.00000000 0.00000000 0.00000000
53 -0.69405400 -0.05092100 0.18168300 0.00000000 0.00000000 0.00000000
54 0.01078600 0.45235400 0.36730700 0.00000000 0.00000000 0.00000000
55 0.01078400 -0.57687800 -0.13637700 0.00000000 0.00000000 0.00000000
56 -2.90365800 -0.05523500 0.76485600 0.00000000 0.00000000 0.00000000
57 -0.46398000 0.00253200 -0.63476700 0.00000000 0.00000000 0.00000000
58 -0.38315400 -0.01997600 -1.20466500 0.00000000 -0.94470200 0.00000000
59 10.51284300 -3.04723700 0.66448700 2.60373700 0.09538000 -2.78230900
time 2
0 -0.00000100 8.45008800 -27.50902600 0.00000000 0.00000000 0.00003100
1 -0.00000200 0.00000000 0.00000000 1.57074300 -1.56713700 -1.57074300
2 4.25546800 -0.33518300 -0.00000200 0.00000000 0.00000000 -0.12484800
3 7.43124800 1.49647700 0.00000200 0.00000000 0.00000000 0.24545000
4 5.27847900 0.16554100 0.00000100 0.00000000 0.00000000 0.04851100
5 -5.46096300 -11.91344600 1.21037200 1.97586400 1.15990900 -1.29878600
6 -6.21448200 -0.00000700 -0.00002700 -2.31771708 -0.41925416 1.31774738
7 11.94488200 0.00000000 0.00000100 -1.60778282 -0.34823599 1.74164751
8 10.62018100 0.00000200 0.00000000 -0.00919797 -0.18447025 2.40656719
9 -4.75110600 -0.69449400 0.83057700 -0.26176500 -0.26982200 0.66583300
10 -1.68806800 0.00004600 -0.00003200 0.01569200 -0.01906800 0.74955800
11 -1.33614000 0.00005700 -0.00001200 0.01961600 -0.01759000 1.28482400
12 -4.82049400 -0.50946000 -0.22475900 -0.26084500 0.21374100 1.64897400
13 -1.82699200 -0.00006400 0.00000600 -0.01520200 0.03755300 0.88896800
14 -1.43657300 0.00000600 0.00000200 -0.06517800 -0.04241000 0.90266200
15 -3.99235500 -0.89118800 -1.82790900 -0.52084900 0.34179900 1.51527800
16 -1.40591800 -0.00002500 -0.00000300 0.00507600 -0.02907100 0.70200400
17 -1.17535800 0.00012800 -0.00002000 0.05677300 0.03733400 0.89401900
18 -4.52675100 -0.69057500 -1.12074400 -0.36586200 0.31587000 1.75669500
19 -1.74403800 0.00003300 -0.00000800 -0.01668800 -0.02440900 1.01221400
20 -1.36877100 0.00002500 0.00000200 0.02596100 0.04564200 0.41256700
21 -1.87480000 -0.93512500 0.99917400 1.99500900 0.49378100 0.93085200
22 -1.52345300 0.00003200 0.00003100 0.06491800 0.04056800 0.55288000
23 -1.59928500 0.00000400 0.00001600 0.03779100 -0.02036500 0.47607600
24 5.51181500 0.00000800 -0.00000100 0.77177348 -0.00042869 -3.14047707
25 0.19684700 -0.00000100 0.00000300 2.79340681 -0.00100567 -3.14137697
26 0.18839300 -12.84705500 -5.24150100 1.97586200 1.15990900 1.84280300
27 6.21448500 0.00000600 0.00002000 -0.14947858 0.62863179 -2.30895090
28 11.94488500 -0.00002900 -0.00019400 0.02624142 -0.31384090 -1.53398241
29 10.62016600 0.00000200 0.00001000 -1.22473544 0.14804519 -0.18497531
30 4.75115600 0.69437600 -0.83047300 0.33798500 -0.30674000 0.34098200
31 1.68806500 -0.00002600 0.00000200 0.01757500 -0.01737000 0.64737200
32 1.33615100 -0.00005100 -0.00000900 0.01100700 -0.03708800 0.08210300
33 4.82051300 0.50934000 0.22486500 0.01692600 -0.41175000 0.50323800
34 1.82699600 0.00006600 0.00000800 -0.01786200 0.03632900 0.81693800
35 1.43657700 -0.00001000 0.00000700 -0.06271600 -0.05148600 0.39518300
36 3.99235300 0.89108700 1.82799400 -0.57177300 -0.43776000 0.85434600
37 1.40591800 0.00002100 -0.00000700 -0.00241400 -0.02938600 0.95757000
38 1.17536900 -0.00013100 0.00000200 0.07055700 0.10117400 0.56560400
39 4.52675600 0.69046000 1.12084200 -0.35878000 -0.46637900 0.75126100
40 1.74404100 -0.00003100 -0.00000200 -0.09416100 -0.04065700 0.92656100
41 1.36876300 -0.00003100 -0.00001700 0.07560900 0.13958700 0.31323400
42 1.92187300 0.94015400 -0.99612300 1.53421100 0.54272100 0.59169000
43 1.50961100 -0.11666300 0.06074900 -0.02529400 0.03293700 0.31396200
44 1.59928100 -0.00000200 0.00000900 0.08335800 0.00382800 0.78001600
45 5.51180600 -0.00000200 0.00000600 -0.65777100 0.00000000 0.00000000
46 0.19685000 0.00000300 -0.00000200 -0.34822500 0.00001500 -0.00000200
47 0.00000000 1.00000000 0.00000000 0.00000000 0.00000000 -1.57079600
48 -4.35891900 15.64492700 -3.56452500 0.00000000 0.00000000 -3.14156200
49 2.33706459 30.49164436 1.67174902 -0.67166735 1.14158472 -1.92950025
50 6.95582000 0.51833200 -2.35925200 0.03306700 0.98900600 1.35504400
51 1.70982000 -0.02241100 -0.64980100 0.00000000 0.00000000 0.00000000
52 0.68692200 0.55921800 -0.63897400 0.00000000 0.00000000 0.00000000
53 -0.69405400 -0.05092100 0.18168300 0.00000000 0.00000000 0.00000000
54 0.01078600 0.45235400 0.36730700 0.00000000 0.00000000 0.00000000
55 0.01078400 -0.57687800 -0.13637700 0.00000000 0.00000000 0.00000000
56 -2.90365800 -0.05523500 0.76485600 0.00000000 0.00000000 0.00000000
57 -0.46398000 0.00253200 -0.63476700 0.00000000 0.00000000 0.00000000
58 -0.38315400 -0.01997600 -1.20466500 0.00000000 -0.94470200 0.00000000
59 9.90205800 -2.88136400 0.66056300 2.55122700 -0.08098100 -2.67211400
time 3
0 -0.00000100 8.45008800 -27.50902600 0.00000000 0.00000000 0.00003100
1 -0.00000200 0.00000000 0.00000000 1.57074300 -1.56713700 -1.57074300
2 4.25546800 -0.33518300 -0.00000200 0.00000000 0.00000000 -0.12484800
3 7.43124800 1.49647700 0.00000200 0.00000000 0.00000000 0.24545000
4 5.27847900 0.16554100 0.00000100 0.00000000 0.00000000 0.04851100
5 -4.78632900 -11.51260900 0.96406300 1.97586400 1.15990900 -1.29878600
6 -6.21448200 -0.00000700 -0.00002700 -2.38970861 -0.39751265 1.33282597
7 11.94488200 0.00000000 0.00000100 -1.61272980 -0.34555626 1.75606070
8 10.62018100 0.00000200 0.00000000 0.15541246 -0.49772379 2.27066784
9 -4.75110600 -0.69449400 0.83057700 -0.26176500 -0.26982200 0.66583300
10 -1.68806800 0.00004600 -0.00003200 0.01569200 -0.01906800 0.74955800
11 -1.33614000 0.00005700 -0.00001200 0.01961600 -0.01759000 1.28482400
12 -4.82049400 -0.50946000 -0.22475900 -0.26084500 0.21374100 1.64897400
13 -1.82699200 -0.00006400 0.00000600 -0.01520200 0.03755300 0.88896800
14 -1.43657300 0.00000600 0.00000200 -0.06517800 -0.04241000 0.90266200
15 -3.99235500 -0.89118800 -1.82790900 -0.52084900 0.34179900 1.51527800
16 -1.40591800 -0.00002500 -0.00000300 0.00507600 -0.02907100 0.70200400
17 -1.17535800 0.00012800 -0.00002000 0.05677300 0.03733400 0.89401900
18 -4.52675100 -0.69057500 -1.12074400 -0.36586200 0.31587000 1.75669500
19 -1.74403800 0.00003300 -0.00000800 -0.01668800 -0.02440900 1.01221400
20 -1.36877100 0.00002500 0.00000200 0.02596100 0.04564200 0.41256700
21 -1.87480000 -0.93512500 0.99917400 1.99500900 0.49378100 0.93085200
22 -1.52345300 0.00003200 0.00003100 0.06491800 0.04056800 0.55288000
23 -1.59928500 0.00000400 0.00001600 0.03779100 -0.02036500 0.47607600
24 5.51181500 0.00000800 -0.00000100 0.77177348 -0.00042869 -3.14047707
25 0.19684700 -0.00000100 0.00000300 2.79340681 -0.00100567 -3.14137697
26 0.18839300 -12.84705500 -5.24150100 1.97586200 1.15990900 1.84280300
27 6.21448500 0.00000600 0.00002000 -0.31297812 0.52342505 -2.39275263
28 11.94488500 -0.00002900 -0.00019400 0.03616326 -0.32290879 -1.56369274
29 10.62016600 0.00000200 0.00001000 -1.25134648 0.22702614 -0.03499078
30 4.75115600 0.69437600 -0.83047300 0.33798500 -0.30674000 0.34098200
31 1.68806500 -0.00002600 0.00000200 0.01757500 -0.01737000 0.64737200
32 1.33615100 -0.00005100 -0.00000900 0.01100700 -0.03708800 0.08210300
33 4.82051300 0.50934000 0.22486500 0.01692600 -0.41175000 0.50323800
34 1.82699600 0.00006600 0.00000800 -0.01786200 0.03632900 0.81693800
35 1.43657700 -0.00001000 0.00000700 -0.06271600 -0.05148600 0.39518300
36 3.99235300 0.89108700 1.82799400 -0.57177300 -0.43776000 0.85434600
37 1.40591800 0.00002100 -0.00000700 -0.00241400 -0.02938600 0.95757000
38 1.17536900 -0.00013100 0.00000200 0.07055700 0.10117400 0.56560400
39 4.52675600 0.69046000 1.12084200 -0.35878000 -0.46637900 0.75126100
40 1.74404100 -0.00003100 -0.00000200 -0.09416100 -0.04065700 0.92656100
41 1.36876300 -0.00003100 -0.00001700 0.07560900 0.13958700 0.31323400
42 1.92187300 0.94015400 -0.99612300 1.53421100 0.54272100 0.59169000
43 1.50961100 -0.11666300 0.06074900 -0.02529400 0.03293700 0.31396200
44 1.59928100 -0.00000200 0.00000900 0.08335800 0.00382800 0.78001600
45 5.51180600 -0.00000200 0.00000600 -0.60509700 0.00000000 0.00000000
46 0.19685000 0.00000300 -0.00000200 -0.34822500 0.00001500 -0.00000200
47 0.00000000 1.00000000 0.00000000 0.00000000 0.00000000 -1.57079600
48 -4.35891900 15.64492700 -3.56452500 0.00000000 0.00000000 -3.14156200
49 1.62523520 32.02598036 1.81931716 -0.53461757 0.83011356 -1.78410143
50 6.95582000 0.51833200 -2.35925200 0.03306700 0.98900600 1.35504400
51 1.70982000 -0.02241100 -0.64980100 0.00000000 0.00000000 0.00000000
52 0.68692200 0.55921800 -0.63897400 0.00000000 0.00000000 0.00000000
53 -0.69405400 -0.05092100 0.18168300 0.00000000 0.00000000 0.00000000
54 0.01078600 0.45235400 0.36730700 0.00000000 0.00000000 0.00000000
55 0.01078400 -0.57687800 -0.13637700 0.00000000 0.00000000 0.00000000
56 -2.90365800 -0.05523500 0.76485600 0.00000000 0.00000000 0.00000000
57 -0.46398000 0.00253200 -0.63476700 0.00000000 0.00000000 0.00000000
58 -0.38315400 -0.01997600 -1.20466500 0.00000000 -0.94470200 0.00000000
59 8.99586500 -2.65462200 0.65521900 2.43329000 -0.33723000 -2.48208400
time 4
0 -0.00000100 8.45008800 -27.50902600 0.00000000 0.00000000 0.00003100
1 -0.00000200 0.00000000 0.00000000 1.57074300 -1.56713700 -1.57074300
2 4.25546800 -0.33518300 -0.00000200 0.00000000 0.00000000 -0.12484800
3 7.43124800 1.49647700 0.00000200 0.00000000 0.00000000 0.24545000
4 5.27847900 0.16554100 0.00000100 0.00000000 0.00000000 0.04851100
5 -3.96713200 -11.02587600 0.66497300 1.97586400 1.15990900 -1.29878600
6 -6.21448200 -0.00000700 -0.00002700 -2.44208318 -0.36899718 1.38978059
7 11.94488200 0.00000000 0.00000100 -1.61810623 -0.34480926 1.77187754
8 10.62018100 0.00000200 0.00000000 0.34890200 -0.82565827 2.19470634
9 -4.75110600 -0.69449400 0.83057700 -0.26176500 -0.26982200 0.66583300
10 -1.68806800 0.00004600 -0.00003200 0.01569200 -0.01906800 0.74955800
11 -1.33614000 0.00005700 -0.00001200 0.01961600 -0.01759000 1.28482400
12 -4.82049400 -0.50946000 -0.22475900 -0.26084500 0.21374100 1.64897400
13 -1.82699200 -0.00006400 0.00000600 -0.01520200 0.03755300 0.88896800
14 -1.43657300 0.00000600 0.00000200 -0.06517800 -0.04241000 0.90266200
15 -3.99235500 -0.89118800 -1.82790900 -0.52084900 0.34179900 1.51527800
16 -1.40591800 -0.00002500 -0.00000300 0.00507600 -0.02907100 0.70200400
17 -1.17535800 0.00012800 -0.00002000 0.05677300 0.03733400 0.89401900
18 -4.52675100 -0.69057500 -1.12074400 -0.36586200 0.31587000 1.75669500
19 -1.74403800 0.00003300 -0.00000800 -0.01668800 -0.02440900 1.01221400
20 -1.36877100 0.00002500 0.00000200 0.02596100 0.04564200 0.41256700
21 -1.87480000 -0.93512500 0.99917400 1.99500900 0.49378100 0.93085200
22 -1.52345300 0.00003200 0.00003100 0.06491800 0.04056800 0.55288000
23 -1.59928500 0.00000400 0.00001600 0.03779100 -0.02036500 0.47607600
24 5.51181500 0.00000800 -0.00000100 0.77177348 -0.00042869 -3.14047707
25 0.19684700 -0.00000100 0.00000300 2.79340681 -0.00100567 -3.14137697
26 0.18839300 -12.84705500 -5.24150100 1.97586200 1.15990900 1.84280300
27 6.21448500 0.00000600 0.00002000 -0.42360251 0.37499780 -2.46516589
28 11.94488500 -0.00002900 -0.00019400 -0.01672982 -0.33087221 -1.40928133
29 10.62016600 0.00000200 0.00001000 -1.20982562 0.23104318 -0.05189753
30 4.75115600 0.69437600 -0.83047300 0.33798500 -0.30674000 0.34098200
31 1.68806500 -0.00002600 0.00000200 0.01757500 -0.01737000 0.64737200
32 1.33615100 -0.00005100 -0.00000900 0.01100700 -0.03708800 0.08210300
33 4.82051300 0.50934000 0.22486500 0.01692600 -0.41175000 0.50323800
34 1.82699600 0.00006600 0.00000800 -0.01786200 0.03632900 0.81693800
35 1.43657700 -0.00001000 0.00000700 -0.06271600 -0.05148600 0.39518300
36 3.99235300 0.89108700 1.82799400 -0.57177300 -0.43776000 0.85434600
37 1.40591800 0.00002100 -0.00000700 -0.00241400 -0.02938600 0.95757000
38 1.17536900 -0.00013100 0.00000200 0.07055700 0.10117400 0.56560400
39 4.52675600 0.69046000 1.12084200 -0.35878000 -0.46637900 0.75126100
40 1.74404100 -0.00003100 -0.00000200 -0.09416100 -0.04065700 0.92656100
41 1.36876300 -0.00003100 -0.00001700 0.07560900 0.13958700 0.31323400
42 1.92187300 0.94015400 -0.99612300 1.53421100 0.54272100 0.59169000
43 1.50961100 -0.11666300 0.06074900 -0.02529400 0.03293700 0.31396200
44 1.59928100 -0.00000200 0.00000900 0.08335800 0.00382800 0.78001600
45 5.51180600 -0.00000200 0.00000600 -0.54101800 0.00000000 0.00000000
46 0.19685000 0.00000300 -0.00000200 -0.34822500 0.00001500 -0.00000200
47 0.00000000 1.00000000 0.00000000 0.00000000 0.00000000 -1.57079600
48 -4.35891900 15.64492700 -3.56452500 0.00000000 0.00000000 -3.14156200
49 1.02300968 33.30946936 1.47690891 -0.38027971 0.51553364 -1.65668145
50 6.95582000 0.51833200 -2.35925200 0.03306700 0.98900600 1.35504400
51 1.70982000 -0.02241100 -0.64980100 0.00000000 0.00000000 0.00000000
52 0.68692200 0.55921800 -0.63897400 0.00000000 0.00000000 0.00000000
53 -0.69405400 -0.05092100 0.18168300 0.00000000 0.00000000 0.00000000
54 0.01078600 0.45235400 0.36730700 0.00000000 0.00000000 0.00000000
55 0.01078400 -0.57687800 -0.13637700 0.00000000 0.00000000 0.00000000
56 -2.90365800 -0.05523500 0.76485600 0.00000000 0.00000000 0.00000000
57 -0.46398000 0.00253200 -0.63476700 0.00000000 0.00000000 0.00000000
58 -0.38315400 -0.01997600 -1.20466500 0.00000000 -0.94470200 0.00000000
59 7.88574900 -2.40761100 0.64937300 2.21023100 -0.60549700 -2.18859200
time 5
0 -0.00000100 8.45008800 -27.50902600 0.00000000 0.00000000 0.00003100
1 -0.00000200 0.00000000 0.00000000 1.57074300 -1.56713700 -1.57074300
2 4.25546800 -0.33518300 -0.00000200 0.00000000 0.00000000 -0.12484800
3 7.43124800 1.49647700 0.00000200 0.00000000 0.00000000 0.24545000
4 5.27847900 0.16554100 0.00000100 0.00000000 0.00000000 0.04851100
5 -3.07565200 -10.49619900 0.33949400 1.97586400 1.15990900 -1.29878600
6 -6.21448200 -0.00000700 -0.00002700 -2.49755024 -0.35987216 1.46836489
7 11.94488200 0.00000000 0.00000100 -1.61360464 -0.34471567 1.75851874
8 10.62018100 0.00000200 0.00000000 0.50810561 -1.06094820 2.17952835
9 -4.75110600 -0.69449400 0.83057700 -0.26176500 -0.26982200 0.66583300
10 -1.68806800 0.00004600 -0.00003200 0.01569200 -0.01906800 0.74955800
11 -1.33614000 0.00005700 -0.00001200 0.01961600 -0.01759000 1.28482400
12 -4.82049400 -0.50946000 -0.22475900 -0.26084500 0.21374100 1.64897400
13 -1.82699200 -0.00006400 0.00000600 -0.01520200 0.03755300 0.88896800
14 -1.43657300 0.00000600 0.00000200 -0.06517800 -0.04241000 0.90266200
15 -3.99235500 -0.89118800 -1.82790900 -0.52084900 0.34179900 1.51527800
16 -1.40591800 -0.00002500 -0.00000300 0.00507600 -0.02907100 0.70200400
17 -1.17535800 0.00012800 -0.00002000 0.05677300 0.03733400 0.89401900
18 -4.52675100 -0.69057500 -1.12074400 -0.36586200 0.31587000 1.75669500
19 -1.74403800 0.00003300 -0.00000800 -0.01668800 -0.02440900 1.01221400
20 -1.36877100 0.00002500 0.00000200 0.02596100 0.04564200 0.41256700
21 -1.87480000 -0.93512500 0.99917400 1.99500900 0.49378100 0.93085200
22 -1.52345300 0.00003200 0.00003100 0.06491800 0.04056800 0.55288000
23 -1.59928500 0.00000400 0.00001600 0.03779100 -0.02036500 0.47607600
24 5.51181500 0.00000800 -0.00000100 0.77177348 -0.00042869 -3.14047707
25 0.19684700 -0.00000100 0.00000300 2.79340681 -0.00100567 -3.14137697
26 0.18839300 -12.84705500 -5.24150100 1.97586200 1.15990900 1.84280300
27 6.21448500 0.00000600 0.00002000 -0.44856060 0.26951013 -2.45973930
28 11.94488500 -0.00002900 -0.00019400 -0.08301399 -0.32220908 -1.21004345
29 10.62016600 0.00000200 0.00001000 -1.14787463 0.17451111 -0.18830566
30 4.75115600 0.69437600 -0.83047300 0.33798500 -0.30674000 0.34098200
31 1.68806500 -0.00002600 0.00000200 0.01757500 -0.01737000 0.64737200
32 1.33615100 -0.00005100 -0.00000900 0.01100700 -0.03708800 0.08210300
33 4.82051300 0.50934000 0.22486500 0.01692600 -0.41175000 0.50323800
34 1.82699600 0.00006600 0.00000800 -0.01786200 0.03632900 0.81693800
35 1.43657700 -0.00001000 0.00000700 -0.06271600 -0.05148600 0.39518300
36 3.99235300 0.89108700 1.82799400 -0.57177300 -0.43776000 0.85434600
37 1.40591800 0.00002100 -0.00000700 -0.00241400 -0.02938600 0.95757000
38 1.17536900 -0.00013100 0.00000200 0.07055700 0.10117400 0.56560400
39 4.52675600 0.69046000 1.12084200 -0.35878000 -0.46637900 0.75126100
40 1.74404100 -0.00003100 -0.00000200 -0.09416100 -0.04065700 0.92656100
41 1.36876300 -0.00003100 -0.00001700 0.07560900 0.13958700 0.31323400
42 1.92187300 0.94015400 -0.99612300 1.53421100 0.54272100 0.59169000
43 1.50961100 -0.11666300 0.06074900 -0.02529400 0.03293700 0.31396200
44 1.59928100 -0.00000200 0.00000900 0.08335800 0.00382800 0.78001600
45 5.51180600 -0.00000200 0.00000600 -0.47102000 0.00000000 0.00000000
46 0.19685000 0.00000300 -0.00000200 -0.34822500 0.00001500 -0.00000200
47 0.00000000 1.00000000 0.00000000 0.00000000 0.00000000 -1.57079600
48 -4.35891900 15.64492700 -3.56452500 0.00000000 0.00000000 -3.14156200
49 0.52561195 34.28018036 0.52337809 -0.22547237 0.24335345 -1.58780301
50 6.95582000 0.51833200 -2.35925200 0.03306700 0.98900600 1.35504400
51 1.70982000 -0.02241100 -0.64980100 0.00000000 0.00000000 0.00000000
52 0.68692200 0.55921800 -0.63897400 0.00000000 0.00000000 0.00000000
53 -0.69405400 -0.05092100 0.18168300 0.00000000 0.00000000 0.00000000
54 0.01078600 0.45235400 0.36730700 0.00000000 0.00000000 0.00000000
55 0.01078400 -0.57687800 -0.13637700 0.00000000 0.00000000 0.00000000
56 -2.90365800 -0.05523500 0.76485600 0.00000000 0.00000000 0.00000000
57 -0.46398000 0.00253200 -0.63476700 0.00000000 0.00000000 0.00000000
58 -0.38315400 -0.01997600 -1.20466500 0.00000000 -0.94470200 0.00000000
59 6.66308700 -2.18087500 0.64400900 1.87693900 -0.79432500 -1.79725000
time 6
0 -0.00000100 8.45008800 -27.50902600 0.00000000 0.00000000 0.00003100
1 -0.00000200 0.00000000 0.00000000 1.57074300 -1.56713700 -1.57074300
2 4.25546800 -0.33518300 -0.00000200 0.00000000 0.00000000 -0.12484800
3 7.43124800 1.49647700 0.00000200 0.00000000 0.00000000 0.24545000
4 5.27847900 0.16554100 0.00000100 0.00000000 0.00000000 0.04851100
5 -2.18417200 -9.96651900 0.01401500 1.97586400 1.15990900 -1.29878600
6 -6.21448200 -0.00000700 -0.00002700 -2.56926214 -0.37719601 1.54346043
7 11.94488200 0.00000000 0.00000100 -1.59822433 -0.34546594 1.71301206
8 10.62018100 0.00000200 0.00000000 0.51616082 -1.15710876 2.28797795
9 -4.75110600 -0.69449400 0.83057700 -0.26176500 -0.26982200 0.66583300
10 -1.68806800 0.00004600 -0.00003200 0.01569200 -0.01906800 0.74955800
11 -1.33614000 0.00005700 -0.00001200 0.01961600 -0.01759000 1.28482400
12 -4.82049400 -0.50946000 -0.22475900 -0.26084500 0.21374100 1.64897400
13 -1.82699200 -0.00006400 0.00000600 -0.01520200 0.03755300 0.88896800
14 -1.43657300 0.00000600 0.00000200 -0.06517800 -0.04241000 0.90266200
15 -3.99235500 -0.89118800 -1.82790900 -0.52084900 0.34179900 1.51527800
16 -1.40591800 -0.00002500 -0.00000300 0.00507600 -0.02907100 0.70200400
17 -1.17535800 0.00012800 -0.00002000 0.05677300 0.03733400 0.89401900
18 -4.52675100 -0.69057500 -1.12074400 -0.36586200 0.31587000 1.75669500
19 -1.74403800 0.00003300 -0.00000800 -0.01668800 -0.02440900 1.01221400
20 -1.36877100 0.00002500 0.00000200 0.02596100 0.04564200 0.41256700
21 -1.87480000 -0.93512500 0.99917400 1.99500900 0.49378100 0.93085200
22 -1.52345300 0.00003200 0.00003100 0.06491800 0.04056800 0.55288000
23 -1.59928500 0.00000400 0.00001600 0.03779100 -0.02036500 0.47607600
24 5.51181500 0.00000800 -0.00000100 0.77177348 -0.00042869 -3.14047707
25 0.19684700 -0.00000100 0.00000300 2.79340681 -0.00100567 -3.14137697
26 0.18839300 -12.84705500 -5.24150100 1.97586200 1.15990900 1.84280300
27 6.21448500 0.00000600 0.00002000 -0.40019622 0.21924216 -2.40444190
28 11.94488500 -0.00002900 -0.00019400 -0.13500229 -0.30087039 -1.04464291
29 10.62016600 0.00000200 0.00001000 -1.10303709 0.07031856 -0.34878408
30 4.75115600 0.69437600 -0.83047300 0.33798500 -0.30674000 0.34098200
31 1.68806500 -0.00002600 0.00000200 0.01757500 -0.01737000 0.64737200
32 1.33615100 -0.00005100 -0.00000900 0.01100700 -0.03708800 0.08210300
33 4.82051300 0.50934000 0.22486500 0.01692600 -0.41175000 0.50323800
34 1.82699600 0.00006600 0.00000800 -0.01786200 0.03632900 0.81693800
35 1.43657700 -0.00001000 0.00000700 -0.06271600 -0.05148600 0.39518300
36 3.99235300 0.89108700 1.82799400 -0.57177300 -0.43776000 0.85434600
37 1.40591800 0.00002100 -0.00000700 -0.00241400 -0.02938600 0.95757000
38 1.17536900 -0.00013100 0.00000200 0.07055700 0.10117400 0.56560400
39 4.52675600 0.69046000 1.12084200 -0.35878000 -0.46637900 0.75126100
40 1.74404100 -0.00003100 -0.00000200 -0.09416100 -0.04065700 0.92656100
41 1.36876300 -0.00003100 -0.00001700 0.07560900 0.13958700 0.31323400
42 1.92187300 0.94015400 -0.99612300 1.53421100 0.54272100 0.59169000
43 1.50961100 -0.11666300 0.06074900 -0.02529400 0.03293700 0.31396200
44 1.59928100 -0.00000200 0.00000900 0.08335800 0.00382800 0.78001600
45 5.51180600 -0.00000200 0.00000600 -0.40107700 0.00000000 0.00000000
46 0.19685000 0.00000300 -0.00000200 -0.34822500 0.00001500 -0.00000200
47 0.00000000 1.00000000 0.00000000 0.00000000 0.00000000 -1.57079600
48 -4.35891900 15.64492700 -3.56452500 0.00000000 0.00000000 -3.14156200
49 0.08482874 34.97509636 -0.68389760 -0.08135729 0.05793113 -1.56179886
50 6.95582000 0.51833200 -2.35925200 0.03306700 0.98900600 1.35504400
51 1.70982000 -0.02241100 -0.64980100 0.00000000 0.00000000 0.00000000
52 0.68692200 0.55921800 -0.63897400 0.00000000 0.00000000 0.00000000
53 -0.69405400 -0.05092100 0.18168300 0.00000000 0.00000000 0.00000000
54 0.01078600 0.45235400 0.36730700 0.00000000 0.00000000 0.00000000
55 0.01078400 -0.57687800 -0.13637700 0.00000000 0.00000000 0.00000000
56 -2.90365800 -0.05523500 0.76485600 0.00000000 0.00000000 0.00000000
57 -0.46398000 0.00253200 -0.63476700 0.00000000 0.00000000 0.00000000
58 -0.38315400 -0.01997600 -1.20466500 0.00000000 -0.94470200 0.00000000
59 5.41932600 -2.01504600 0.64008900 1.54598900 -0.87645300 -1.42660500
time 7
0 -0.00000100 8.45008800 -27.50902600 0.00000000 0.00000000 0.00003100
1 -0.00000200 0.00000000 0.00000000 1.57074300 -1.56713700 -1.57074300
2 4.25546800 -0.33518300 -0.00000200 0.00000000 0.00000000 -0.12484800
3 7.43124800 1.49647700 0.00000200 0.00000000 0.00000000 0.24545000
4 5.27847900 0.16554100 0.00000100 0.00000000 0.00000000 0.04851100
5 -1.36497500 -9.47979000 -0.28507400 1.97586400 1.15990900 -1.29878600
6 -6.21448200 -0.00000700 -0.00002700 -2.65720514 -0.41690049 1.60834278
7 11.94488200 0.00000000 0.00000100 -1.57718685 -0.34563737 1.65100665
8 10.62018100 0.00000200 0.00000000 0.39919929 -1.09668355 2.46109189
9 -4.75110600 -0.69449400 0.83057700 -0.26176500 -0.26982200 0.66583300
10 -1.68806800 0.00004600 -0.00003200 0.01569200 -0.01906800 0.74955800
11 -1.33614000 0.00005700 -0.00001200 0.01961600 -0.01759000 1.28482400
12 -4.82049400 -0.50946000 -0.22475900 -0.26084500 0.21374100 1.64897400
13 -1.82699200 -0.00006400 0.00000600 -0.01520200 0.03755300 0.88896800
14 -1.43657300 0.00000600 0.00000200 -0.06517800 -0.04241000 0.90266200
15 -3.99235500 -0.89118800 -1.82790900 -0.52084900 0.34179900 1.51527800
16 -1.40591800 -0.00002500 -0.00000300 0.00507600 -0.02907100 0.70200400
17 -1.17535800 0.00012800 -0.00002000 0.05677300 0.03733400 0.89401900
18 -4.52675100 -0.69057500 -1.12074400 -0.36586200 0.31587000 1.75669500
19 -1.74403800 0.00003300 -0.00000800 -0.01668800 -0.02440900 1.01221400
20 -1.36877100 0.00002500 0.00000200 0.02596100 0.04564200 0.41256700
21 -1.87480000 -0.93512500 0.99917400 1.99500900 0.49378100 0.93085200
22 -1.52345300 0.00003200 0.00003100 0.06491800 0.04056800 0.55288000
23 -1.59928500 0.00000400 0.00001600 0.03779100 -0.02036500 0.47607600
24 5.51181500 0.00000800 -0.00000100 0.77177348 -0.00042869 -3.14047707
25 0.19684700 -0.00000100 0.00000300 2.79340681 -0.00100567 -3.14137697
26 0.18839300 -12.84705500 -5.24150100 1.97586200 1.15990900 1.84280300
27 6.21448500 0.00000600 0.00002000 -0.28366710 0.19465925 -2.33001026
28 11.94488500 -0.00002900 -0.00019400 -0.16956584 -0.27625602 -0.92722284
29 10.62016600 0.00000200 0.00001000 -1.10408548 -0.07310894 -0.49959743
30 4.75115600 0.69437600 -0.83047300 0.33798500 -0.30674000 0.34098200
31 1.68806500 -0.00002600 0.00000200 0.01757500 -0.01737000 0.64737200
32 1.33615100 -0.00005100 -0.00000900 0.01100700 -0.03708800 0.08210300
33 4.82051300 0.50934000 0.22486500 0.01692600 -0.41175000 0.50323800
34 1.82699600 0.00006600 0.00000800 -0.01786200 0.03632900 0.81693800
35 1.43657700 -0.00001000 0.00000700 -0.06271600 -0.05148600 0.39518300
36 3.99235300 0.89108700 1.82799400 -0.57177300 -0.43776000 0.85434600
37 1.40591800 0.00002100 -0.00000700 -0.00241400 -0.02938600 0.95757000
38 1.17536900 -0.00013100 0.00000200 0.07055700 0.10117400 0.56560400
39 4.52675600 0.69046000 1.12084200 -0.35878000 -0.46637900 0.75126100
40 1.74404100 -0.00003100 -0.00000200 -0.09416100 -0.04065700 0.92656100
41 1.36876300 -0.00003100 -0.00001700 0.07560900 0.13958700 0.31323400
42 1.92187300 0.94015400 -0.99612300 1.53421100 0.54272100 0.59169000
43 1.50961100 -0.11666300 0.06074900 -0.02529400 0.03293700 0.31396200
44 1.59928100 -0.00000200 0.00000900 0.08335800 0.00382800 0.78001600
45 5.51180600 -0.00000200 0.00000600 -0.33696800 0.00000000 0.00000000
46 0.19685000 0.00000300 -0.00000200 -0.34822500 0.00001500 -0.00000200
47 0.00000000 1.00000000 0.00000000 0.00000000 0.00000000 -1.57079600
48 -4.35891900 15.64492700 -3.56452500 0.00000000 0.00000000 -3.14156200
49 -0.32876909 35.43119236 -1.75295136 0.04308986 -0.00999440 -1.55716021
50 6.95582000 0.51833200 -2.35925200 0.03306700 0.98900600 1.35504400
51 1.70982000 -0.02241100 -0.64980100 0.00000000 0.00000000 0.00000000
52 0.68692200 0.55921800 -0.63897400 0.00000000 0.00000000 0.00000000
53 -0.69405400 -0.05092100 0.18168300 0.00000000 0.00000000 0.00000000
54 0.01078600 0.45235400 0.36730700 0.00000000 0.00000000 0.00000000
55 0.01078400 -0.57687800 -0.13637700 0.00000000 0.00000000 0.00000000
56 -2.90365800 -0.05523500 0.76485600 0.00000000 0.00000000 0.00000000
57 -0.46398000 0.00253200 -0.63476700 0.00000000 0.00000000 0.00000000
58 -0.38315400 -0.01997600 -1.20466500 0.00000000 -0.94470200 0.00000000
59 4.24592100 -1.95074600 0.63856700 1.35668600 -0.92531700 -1.21999800
time 8
0 -0.00000100 8.45008800 -27.50902600 0.00000000 0.00000000 0.00003100
1 -0.00000200 0.00000000 0.00000000 1.57074300 -1.56713700 -1.57074300
2 4.25546800 -0.33518300 -0.00000200 0.00000000 0.00000000 -0.12484800
3 7.43124800 1.49647700 0.00000200 0.00000000 0.00000000 0.24545000
4 5.27847900 0.16554100 0.00000100 0.00000000 0.00000000 0.04851100
5 -0.69034000 -9.07895200 -0.53138200 1.97586400 1.15990900 -1.29878600
6 -6.21448200 -0.00000700 -0.00002700 -2.73361165 -0.44513149 1.64961141
7 11.94488200 0.00000000 0.00000100 -1.55394061 -0.34505501 1.58338505
8 10.62018100 0.00000200 0.00000000 0.32562605 -0.97826468 2.54964407
9 -4.75110600 -0.69449400 0.83057700 -0.26176500 -0.26982200 0.66583300
10 -1.68806800 0.00004600 -0.00003200 0.01569200 -0.01906800 0.74955800
11 -1.33614000 0.00005700 -0.00001200 0.01961600 -0.01759000 1.28482400
12 -4.82049400 -0.50946000 -0.22475900 -0.26084500 0.21374100 1.64897400
13 -1.82699200 -0.00006400 0.00000600 -0.01520200 0.03755300 0.88896800
14 -1.43657300 0.00000600 0.00000200 -0.06517800 -0.04241000 0.90266200
15 -3.99235500 -0.89118800 -1.82790900 -0.52084900 0.34179900 1.51527800
16 -1.40591800 -0.00002500 -0.00000300 0.00507600 -0.02907100 0.70200400
17 -1.17535800 0.00012800 -0.00002000 0.05677300 0.03733400 0.89401900
18 -4.52675100 -0.69057500 -1.12074400 -0.36586200 0.31587000 1.75669500
19 -1.74403800 0.00003300 -0.00000800 -0.01668800 -0.02440900 1.01221400
20 -1.36877100 0.00002500 0.00000200 0.02596100 0.04564200 0.41256700
21 -1.87480000 -0.93512500 0.99917400 1.99500900 0.49378100 0.93085200
22 -1.52345300 0.00003200 0.00003100 0.06491800 0.04056800 0.55288000
23 -1.59928500 0.00000400 0.00001600 0.03779100 -0.02036500 0.47607600
24 5.51181500 0.00000800 -0.00000100 0.77177348 -0.00042869 -3.14047707
25 0.19684700 -0.00000100 0.00000300 2.79340681 -0.00100567 -3.14137697
26 0.18839300 -12.84705500 -5.24150100 1.97586200 1.15990900 1.84280300
27 6.21448500 0.00000600 0.00002000 -0.18060982 0.18022048 -2.22075778
28 11.94488500 -0.00002900 -0.00019400 -0.17457191 -0.26858951 -0.91093062
29 10.62016600 0.00000200 0.00001000 -1.28699788 -0.05937671 -0.49740595
30 4.75115600 0.69437600 -0.83047300 0.33798500 -0.30674000 0.34098200
31 1.68806500 -0.00002600 0.00000200 0.01757500 -0.01737000 0.64737200
32 1.33615100 -0.00005100 -0.00000900 0.01100700 -0.03708800 0.08210300
33 4.82051300 0.50934000 0.22486500 0.01692600 -0.41175000 0.50323800
34 1.82699600 0.00006600 0.00000800 -0.01786200 0.03632900 0.81693800
35 1.43657700 -0.00001000 0.00000700 -0.06271600 -0.05148600 0.39518300
36 3.99235300 0.89108700 1.82799400 -0.57177300 -0.43776000 0.85434600
37 1.40591800 0.00002100 -0.00000700 -0.00241400 -0.02938600 0.95757000
38 1.17536900 -0.00013100 0.00000200 0.07055700 0.10117400 0.56560400
39 4.52675600 0.69046000 1.12084200 -0.35878000 -0.46637900 0.75126100
40 1.74404100 -0.00003100 -0.00000200 -0.09416100 -0.04065700 0.92656100
41 1.36876300 -0.00003100 -0.00001700 0.07560900 0.13958700 0.31323400
42 1.92187300 0.94015400 -0.99612300 1.53421100 0.54272100 0.59169000
43 1.50961100 -0.11666300 0.06074900 -0.02529400 0.03293700 0.31396200
44 1.59928100 -0.00000200 0.00000900 0.08335800 0.00382800 0.78001600
45 5.51180600 -0.00000200 0.00000600 -0.28436500 0.00000000 0.00000000
46 0.19685000 0.00000300 -0.00000200 -0.34822500 0.00001500 -0.00000200
47 0.00000000 1.00000000 0.00000000 0.00000000 0.00000000 -1.57079600
48 -4.35891900 15.64492700 -3.56452500 0.00000000 0.00000000 -3.14156200
49 -0.71877605 35.68879136 -2.38354142 0.13806149 -0.01080431 -1.55588633
50 6.95582000 0.51833200 -2.35925200 0.03306700 0.98900600 1.35504400
51 1.70982000 -0.02241100 -0.64980100 0.00000000 0.00000000 0.00000000
52 0.68692200 0.55921800 -0.63897400 0.00000000 0.00000000 0.00000000
53 -0.69405400 -0.05092100 0.18168300 0.00000000 0.00000000 0.00000000
54 0.01078600 0.45235400 0.36730700 0.00000000 0.00000000 0.00000000
55 0.01078400 -0.57687800 -0.13637700 0.00000000 0.00000000 0.00000000
56 -2.90365800 -0.05523500 0.76485600 0.00000000 0.00000000 0.00000000
57 -0.46398000 0.00253200 -0.63476700 0.00000000 0.00000000 0.00000000
58 -0.38315400 -0.01997600 -1.20466500 0.00000000 -0.94470200 0.00000000
59 3.20434800 -2.67449800 0.86574600 1.43238000 -1.16780400 -1.28590100
time 9
0 -0.00000100 8.45008800 -27.50902600 0.00000000 0.00000000 0.00003100
1 -0.00000200 0.00000000 0.00000000 1.57074300 -1.56713700 -1.57074300
2 4.25546800 -0.33518300 -0.00000200 0.00000000 0.00000000 -0.12484800
3 7.43124800 1.49647700 0.00000200 0.00000000 0.00000000 0.24545000
4 5.27847900 0.16554100 0.00000100 0.00000000 0.00000000 0.04851100
5 -0.23255400 -8.80695400 -0.69852000 1.97586400 1.15990900 -1.29878600
6 -6.21448200 -0.00000700 -0.00002700 -2.77548717 -0.44995211 1.66511624
7 11.94488200 0.00000000 0.00000100 -1.53735587 -0.34369401 1.53491435
8 10.62018100 0.00000200 0.00000000 0.31209529 -0.91425133 2.58105024
9 -4.75110600 -0.69449400 0.83057700 -0.26176500 -0.26982200 0.66583300
10 -1.68806800 0.00004600 -0.00003200 0.01569200 -0.01906800 0.74955800
11 -1.33614000 0.00005700 -0.00001200 0.01961600 -0.01759000 1.28482400
12 -4.82049400 -0.50946000 -0.22475900 -0.26084500 0.21374100 1.64897400
13 -1.82699200 -0.00006400 0.00000600 -0.01520200 0.03755300 0.88896800
14 -1.43657300 0.00000600 0.00000200 -0.06517800 -0.04241000 0.90266200
15 -3.99235500 -0.89118800 -1.82790900 -0.52084900 0.34179900 1.51527800
16 -1.40591800 -0.00002500 -0.00000300 0.00507600 -0.02907100 0.70200400
17 -1.17535800 0.00012800 -0.00002000 0.05677300 0.03733400 0.89401900
18 -4.52675100 -0.69057500 -1.12074400 -0.36586200 0.31587000 1.75669500
19 -1.74403800 0.00003300 -0.00000800 -0.01668800 -0.02440900 1.01221400
20 -1.36877100 0.00002500 0.00000200 0.02596100 0.04564200 0.41256700
21 -1.87480000 -0.93512500 0.99917400 1.99500900 0.49378100 0.93085200
22 -1.52345300 0.00003200 0.00003100 0.06491800 0.04056800 0.55288000
23 -1.59928500 0.00000400 0.00001600 0.03779100 -0.02036500 0.47607600
24 5.51181500 0.00000800 -0.00000100 0.77177348 -0.00042869 -3.14047707
25 0.19684700 -0.00000100 0.00000300 2.79340681 -0.00100567 -3.14137697
26 0.18839300 -12.84705500 -5.24150100 1.97586200 1.15990900 1.84280300
27 6.21448500 0.00000600 0.00002000 -0.07300662 0.16311602 -2.14419526
28 11.94488500 -0.00002900 -0.00019400 -0.15878602 -0.27656238 -0.96781066
29 10.62016600 0.00000200 0.00001000 -1.41563011 -0.14696181 -0.49502848
30 4.75115600 0.69437600 -0.83047300 0.33798500 -0.30674000 0.34098200
31 1.68806500 -0.00002600 0.00000200 0.01757500 -0.01737000 0.64737200
32 1.33615100 -0.00005100 -0.00000900 0.01100700 -0.03708800 0.08210300
33 4.82051300 0.50934000 0.22486500 0.01692600 -0.41175000 0.50323800
34 1.82699600 0.00006600 0.00000800 -0.01786200 0.03632900 0.81693800
35 1.43657700 -0.00001000 0.00000700 -0.06271600 -0.05148600 0.39518300
36 3.99235300 0.89108700 1.82799400 -0.57177300 -0.43776000 0.85434600
37 1.40591800 0.00002100 -0.00000700 -0.00241400 -0.02938600 0.95757000
38 1.17536900 -0.00013100 0.00000200 0.07055700 0.10117400 0.56560400
39 4.52675600 0.69046000 1.12084200 -0.35878000 -0.46637900 0.75126100
40 1.74404100 -0.00003100 -0.00000200 -0.09416100 -0.04065700 0.92656100
41 1.36876300 -0.00003100 -0.00001700 0.07560900 0.13958700 0.31323400
42 1.92187300 0.94015400 -0.99612300 1.53421100 0.54272100 0.59169000
43 1.50961100 -0.11666300 0.06074900 -0.02529400 0.03293700 0.31396200
44 1.59928100 -0.00000200 0.00000900 0.08335800 0.00382800 0.78001600
45 5.51180600 -0.00000200 0.00000600 -0.24882900 0.00000000 0.00000000
46 0.19685000 0.00000300 -0.00000200 -0.34822500 0.00001500 -0.00000200
47 0.00000000 1.00000000 0.00000000 0.00000000 0.00000000 -1.57079600
48 -4.35891900 15.64492700 -3.56452500 0.00000000 0.00000000 -3.14156200
49 -1.00975734 35.80154636 -2.64683014 0.20299998 -0.01655395 -1.55651011
50 6.95582000 0.51833200 -2.35925200 0.03306700 0.98900600 1.35504400
51 1.70982000 -0.02241100 -0.64980100 0.00000000 0.00000000 0.00000000
52 0.68692200 0.55921800 -0.63897400 0.00000000 0.00000000 0.00000000
53 -0.69405400 -0.05092100 0.18168300 0.00000000 0.00000000 0.00000000
54 0.01078600 0.45235400 0.36730700 0.00000000 0.00000000 0.00000000
55 0.01078400 -0.57687800 -0.13637700 0.00000000 0.00000000 0.00000000
56 -2.90365800 -0.05523500 0.76485600 0.00000000 0.00000000 0.00000000
57 -0.46398000 0.00253200 -0.63476700 0.00000000 0.00000000 0.00000000
58 -0.38315400 -0.01997600 -1.20466500 0.00000000 -0.94470200 0.00000000
59 3.14657800 -2.94957100 0.94584900 1.54039800 -1.25123300 -1.42198700
time 10
0 -0.00000100 8.45008800 -27.50902600 0.00000000 0.00000000 0.00003100
1 -0.00000200 0.00000000 0.00000000 1.57074300 -1.56713700 -1.57074300
2 4.25546800 -0.33518300 -0.00000200 0.00000000 0.00000000 -0.12484800
3 7.43124800 1.49647700 0.00000200 0.00000000 0.00000000 0.24545000
4 5.27847900 0.16554100 0.00000100 0.00000000 0.00000000 0.04851100
5 -0.06389600 -8.70674700 -0.76009700 1.97586400 1.15990900 -1.29878600
6 -6.21448200 -0.00000700 -0.00002700 -2.78637840 -0.44672755 1.66775786
7 11.94488200 0.00000000 0.00000100 -1.53197628 -0.34269106 1.51924730
8 10.62018100 0.00000200 0.00000000 0.32424678 -0.90237662 2.59175814
9 -4.75110600 -0.69449400 0.83057700 -0.26176500 -0.26982200 0.66583300
10 -1.68806800 0.00004600 -0.00003200 0.01569200 -0.01906800 0.74955800
11 -1.33614000 0.00005700 -0.00001200 0.01961600 -0.01759000 1.28482400
12 -4.82049400 -0.50946000 -0.22475900 -0.26084500 0.21374100 1.64897400
13 -1.82699200 -0.00006400 0.00000600 -0.01520200 0.03755300 0.88896800
14 -1.43657300 0.00000600 0.00000200 -0.06517800 -0.04241000 0.90266200
15 -3.99235500 -0.89118800 -1.82790900 -0.52084900 0.34179900 1.51527800
16 -1.40591800 -0.00002500 -0.00000300 0.00507600 -0.02907100 0.70200400
17 -1.17535800 0.00012800 -0.00002000 0.05677300 0.03733400 0.89401900
18 -4.52675100 -0.69057500 -1.12074400 -0.36586200 0.31587000 1.75669500
19 -1.74403800 0.00003300 -0.00000800 -0.01668800 -0.02440900 1.01221400
20 -1.36877100 0.00002500 0.00000200 0.02596100 0.04564200 0.41256700
21 -1.87480000 -0.93512500 0.99917400 1.99500900 0.49378100 0.93085200
22 -1.52345300 0.00003200 0.00003100 0.06491800 0.04056800 0.55288000
23 -1.59928500 0.00000400 0.00001600 0.03779100 -0.02036500 0.47607600
24 5.51181500 0.00000800 -0.00000100 0.77177348 -0.00042869 -3.14047707
25 0.19684700 -0.00000100 0.00000300 2.79340681 -0.00100567 -3.14137697
26 0.18839300 -12.84705500 -5.24150100 1.97586200 1.15990900 1.84280300
27 6.21448500 0.00000600 0.00002000 -0.02815970 0.15271318 -2.11972321
28 11.94488500 -0.00002900 -0.00019400 -0.15387863 -0.28063479 -0.98505440
29 10.62016600 0.00000200 0.00001000 -1.46266362 -0.20699791 -0.49761819
30 4.75115600 0.69437600 -0.83047300 0.33798500 -0.30674000 0.34098200
31 1.68806500 -0.00002600 0.00000200 0.01757500 -0.01737000 0.64737200
32 1.33615100 -0.00005100 -0.00000900 0.01100700 -0.03708800 0.08210300
33 4.82051300 0.50934000 0.22486500 0.01692600 -0.41175000 0.50323800
34 1.82699600 0.00006600 0.00000800 -0.01786200 0.03632900 0.81693800
35 1.43657700 -0.00001000 0.00000700 -0.06271600 -0.05148600 0.39518300
36 3.99235300 0.89108700 1.82799400 -0.57177300 -0.43776000 0.85434600
37 1.40591800 0.00002100 -0.00000700 -0.00241400 -0.02938600 0.95757000
38 1.17536900 -0.00013100 0.00000200 0.07055700 0.10117400 0.56560400
39 4.52675600 0.69046000 1.12084200 -0.35878000 -0.46637900 0.75126100
40 1.74404100 -0.00003100 -0.00000200 -0.09416100 -0.04065700 0.92656100
41 1.36876300 -0.00003100 -0.00001700 0.07560900 0.13958700 0.31323400
42 1.92187300 0.94015400 -0.99612300 1.53421100 0.54272100 0.59169000
43 1.50961100 -0.11666300 0.06074900 -0.02529400 0.03293700 0.31396200
44 1.59928100 -0.00000200 0.00000900 0.08335800 0.00382800 0.78001600
45 5.51180600 -0.00000200 0.00000600 -0.23578400 0.00000000 0.00000000
46 0.19685000 0.00000300 -0.00000200 -0.34822500 0.00001500 -0.00000200
47 0.00000000 1.00000000 0.00000000 0.00000000 0.00000000 -1.57079600
48 -4.35891900 15.64492700 -3.56452500 0.00000000 0.00000000 -3.14156200
49 -1.12726672 35.82646836 -2.71152942 0.23708037 -0.02715835 -1.55900347
50 6.95582000 0.51833200 -2.35925200 0.03306700 0.98900600 1.35504400
51 1.70982000 -0.02241100 -0.64980100 0.00000000 0.00000000 0.00000000
52 0.68692200 0.55921800 -0.63897400 0.00000000 0.00000000 0.00000000
53 -0.69405400 -0.05092100 0.18168300 0.00000000 0.00000000 0.00000000
54 0.01078600 0.45235400 0.36730700 0.00000000 0.00000000 0.00000000
55 0.01078400 -0.57687800 -0.13637700 0.00000000 0.00000000 0.00000000
56 -2.90365800 -0.05523500 0.76485600 0.00000000 0.00000000 0.00000000
57 -0.46398000 0.00253200 -0.63476700 0.00000000 0.00000000 0.00000000
58 -0.38315400 -0.01997600 -1.20466500 0.00000000 -0.94470200 0.00000000
59 3.13817400 -2.99497700 0.95343300 1.57366300 -1.26678800 -1.46807700
end
