version 1
nodes
0 "root" -1
1 "pelvis" 0
2 "spine_01" 1
3 "spine_02" 2
4 "spine_03" 3
5 "clavicle_r" 4
6 "upperarm_r" 5
7 "lowerarm_r" 6
8 "hand_r" 7
9 "index_01_r" 8
10 "index_02_r" 9
11 "index_03_r" 10
12 "middle_01_r" 8
13 "middle_02_r" 12
14 "middle_03_r" 13
15 "pinky_01_r" 8
16 "pinky_02_r" 15
17 "pinky_03_r" 16
18 "ring_01_r" 8
19 "ring_02_r" 18
20 "ring_03_r" 19
21 "thumb_01_r" 8
22 "thumb_02_r" 21
23 "thumb_03_r" 22
24 "lowerarm_twist_01_r" 7
25 "upperarm_twist_01_r" 6
26 "clavicle_l" 4
27 "upperarm_l" 26
28 "lowerarm_l" 27
29 "hand_l" 28
30 "index_01_l" 29
31 "index_02_l" 30
32 "index_03_l" 31
33 "middle_01_l" 29
34 "middle_02_l" 33
35 "middle_03_l" 34
36 "pinky_01_l" 29
37 "pinky_02_l" 36
38 "pinky_03_l" 37
39 "ring_01_l" 29
40 "ring_02_l" 39
41 "ring_03_l" 40
42 "thumb_01_l" 29
43 "thumb_02_l" 42
44 "thumb_03_l" 43
45 "lowerarm_twist_01_l" 28
46 "upperarm_twist_01_l" 27
47 "cam_driver" -1
48 "BaseRoot" -1
49 "Base" 48
50 "Trigger" 49
51 "Bolt" 49
52 "rhand_ikTarget" 49
53 "lhand_ikTarget" 49
54 "Under" 49
55 "Barrel" 49
56 "Shell" 49
end
skeleton
time 0
0 -0.00000100 8.45008800 -27.50902600 0.00000000 0.00000000 0.00003100
1 -0.00000200 0.00000000 0.00000000 1.57074300 -1.56713700 -1.57074300
2 4.25546800 -0.33518300 -0.00000200 0.00000000 0.00000000 -0.12484800
3 7.43124800 1.49647700 0.00000200 0.00000000 0.00000000 0.24545000
4 5.27847900 0.16554100 0.00000100 0.00000000 0.00000000 0.04851100
5 3.98852514 -4.80325671 5.22859685 1.97586400 1.15990900 -1.29878600
6 -6.21448200 -0.00000700 -0.00002700 -2.85027781 -0.69591779 1.59035918
7 11.94488200 0.00000000 0.00000100 -0.21301018 -0.34229335 1.54177038
8 10.62018100 0.00000200 0.00000000 1.38882302 -0.24001974 2.58329055
9 -4.75110600 -0.69449400 0.83057700 -0.25556500 -0.11654400 0.31276700
10 -1.68806800 0.00004600 -0.00003200 0.02287100 -0.00946300 0.26249200
11 -1.33614000 0.00005700 -0.00001200 0.02592200 0.00450900 0.38004900
12 -4.82049400 -0.50946000 -0.22475900 -0.63897000 -0.03508400 1.44561600
13 -1.82699200 -0.00006400 0.00000600 -0.00312000 0.04035500 1.19586400
14 -1.43657300 0.00000600 0.00000200 -0.03550000 -0.06921100 0.38279700
15 -3.99235500 -0.89118800 -1.82790900 -0.82654900 0.43648400 1.83279500
16 -1.40591800 -0.00002500 -0.00000300 0.01654100 -0.02437900 0.27905000
17 -1.17535800 0.00012800 -0.00002000 0.04192500 0.05340800 0.56994100
18 -4.52675100 -0.69057500 -1.12074400 -0.72962200 0.30057900 1.83127300
19 -1.74403800 0.00003300 -0.00000800 -0.00916900 -0.02809900 0.72431900
20 -1.36877100 0.00002500 0.00000200 -0.22704800 0.07843600 0.24818000
21 -1.88343600 -1.05062900 1.01560900 1.80053500 0.81547000 0.79478100
22 -1.52345300 0.00003200 0.00003100 0.10575300 0.13820400 0.75781300
23 -1.59928500 0.00000400 0.00001600 0.02972300 -0.03090300 0.78512800
24 5.58312800 0.11572500 0.29499700 1.94756400 -0.06728900 3.12123600
25 0.19684700 -0.00000100 0.00000300 2.79340678 -0.00112253 -3.14127932
26 -8.07225300 -16.25066000 -3.79125200 1.97586200 1.15990900 1.84280300
27 6.21448500 0.00000600 0.00002000 -0.62197037 0.11280584 -2.04226739
28 11.94488500 -0.00002900 -0.00019400 -1.10733869 -0.31163374 -1.30650854
29 10.62016600 0.00000200 0.00001000 -2.63861099 -1.22532055 0.71518530
30 4.75115600 0.69437600 -0.83047300 -0.04011400 -0.39343000 0.44209000
31 1.68806500 -0.00002600 0.00000200 0.00655000 -0.02383700 1.17288700
32 1.33615100 -0.00005100 -0.00000900 -0.00361300 -0.03853400 0.46443400
33 4.82051300 0.50934000 0.22486500 -0.26906700 -0.24688300 0.94826600
34 1.82699600 0.00006600 0.00000800 0.00391000 0.04027600 1.36954700
35 1.43657700 -0.00001000 0.00000700 0.01198700 -0.00925200 -0.07042800
36 3.99235300 0.89108700 1.82799400 -0.73824000 -0.03341000 1.36353200
37 1.40591800 0.00002100 -0.00000700 -0.01421100 -0.02586600 1.37541000
38 1.17536900 -0.00013100 0.00000200 -0.07487300 0.09798600 -0.69969900
39 4.52675600 0.69046000 1.12084200 -0.60000400 -0.20424300 1.21618000
40 1.74404100 -0.00003100 -0.00000200 -0.02639200 -0.01328600 1.51729600
41 1.36876300 -0.00003100 -0.00001700 -0.07136400 0.14179300 -0.65392900
42 2.10920100 1.21154100 -0.81156700 1.73775900 0.59816000 0.52044500
43 1.58979800 -0.07374600 -0.14512700 0.06231400 -0.06828400 0.17604200
44 1.59178900 -0.07172300 0.01248500 0.04075900 0.07287200 -0.23380900
45 5.51180600 -0.00000200 0.00000600 -0.99849200 0.00000000 0.00000000
46 0.19685000 0.00000300 -0.00000200 -0.34822500 0.00001500 -0.00000200
47 0.00000000 1.00000000 0.00000000 0.00000000 0.00000000 -1.57079600
48 -3.49904400 4.22869200 -3.70908300 0.00000000 0.00000000 -3.14156200
49 -5.03582812 24.13142240 -1.91145982 0.33499219 0.17097130 -1.01998561
50 7.48540600 -0.00328400 -0.96348600 0.00000000 0.00000000 0.00000000
51 3.10496300 -0.01325200 0.71049500 0.00000000 0.00000000 0.00000000
52 15.09164400 1.71963100 -0.79398900 -0.43170800 0.95274300 1.24492200
53 -0.52057100 -2.18657500 -2.07332200 -2.91665300 1.07770600 -1.95945200
54 5.40893900 -0.00328400 -0.77842700 0.00000000 0.00000000 0.00000000
55 -0.00090600 0.00385100 0.00120200 0.00000000 0.00000000 0.00000000
56 0.10260000 0.03962800 -0.43449900 0.00000000 0.00000000 0.00000000
time 1
0 -0.00000100 8.45008800 -27.50902600 0.00000000 0.00000000 0.00003100
1 -0.00000200 0.00000000 0.00000000 1.57074300 -1.56713700 -1.57074300
2 4.25546800 -0.33518300 -0.00000200 0.00000000 0.00000000 -0.12484800
3 7.43124800 1.49647700 0.00000200 0.00000000 0.00000000 0.24545000
4 5.27847900 0.16554100 0.00000100 0.00000000 0.00000000 0.04851100
5 3.94840943 -4.88623937 5.26535731 1.97586400 1.15990900 -1.29878600
6 -6.21448200 -0.00000700 -0.00002700 -2.83495301 -0.68676099 1.59307638
7 11.94488200 0.00000000 0.00000100 -0.20989101 -0.31491182 1.53802676
8 10.62018100 0.00000200 0.00000000 1.39893445 -0.23199871 2.59793741
9 -4.75110600 -0.69449400 0.83057700 -0.25556500 -0.11654400 0.31276700
10 -1.68806800 0.00004600 -0.00003200 0.02287100 -0.00946300 0.26249200
11 -1.33614000 0.00005700 -0.00001200 0.02592200 0.00450900 0.38004900
12 -4.82049400 -0.50946000 -0.22475900 -0.63897000 -0.03508400 1.44561600
13 -1.82699200 -0.00006400 0.00000600 -0.00312000 0.04035500 1.19586400
14 -1.43657300 0.00000600 0.00000200 -0.03550000 -0.06921100 0.38279700
15 -3.99235500 -0.89118800 -1.82790900 -0.82654900 0.43648400 1.83279500
16 -1.40591800 -0.00002500 -0.00000300 0.01654100 -0.02437900 0.27905000
17 -1.17535800 0.00012800 -0.00002000 0.04192500 0.05340800 0.56994100
18 -4.52675100 -0.69057500 -1.12074400 -0.72962200 0.30057900 1.83127300
19 -1.74403800 0.00003300 -0.00000800 -0.00916900 -0.02809900 0.72431900
20 -1.36877100 0.00002500 0.00000200 -0.22704800 0.07843600 0.24818000
21 -1.88343600 -1.05062900 1.01560900 1.80053500 0.81547000 0.79478100
22 -1.52345300 0.00003200 0.00003100 0.10575300 0.13820400 0.75781300
23 -1.59928500 0.00000400 0.00001600 0.02972300 -0.03090300 0.78512800
24 5.58312800 0.11572500 0.29499700 1.94756400 -0.06728900 3.12123600
25 0.19684700 -0.00000100 0.00000300 2.79340678 -0.00112253 -3.14127932
26 -8.05193654 -16.25887968 -3.78344386 1.97586200 1.15990900 1.84280300
27 6.21448500 0.00000600 0.00002000 -0.62841007 0.11325109 -2.04371800
28 11.94488500 -0.00002900 -0.00019400 -1.10873790 -0.31467812 -1.30226057
29 10.62016600 0.00000200 0.00001000 -2.58239217 -1.22377626 0.64322281
30 4.75115600 0.69437600 -0.83047300 -0.04011400 -0.39343000 0.44209000
31 1.68806500 -0.00002600 0.00000200 0.00655000 -0.02383700 1.17288700
32 1.33615100 -0.00005100 -0.00000900 -0.00361300 -0.03853400 0.46443400
33 4.82051300 0.50934000 0.22486500 -0.26906700 -0.24688300 0.94826600
34 1.82699600 0.00006600 0.00000800 0.00391000 0.04027600 1.36954700
35 1.43657700 -0.00001000 0.00000700 0.01198700 -0.00925200 -0.07042800
36 3.99235300 0.89108700 1.82799400 -0.73824000 -0.03341000 1.36353200
37 1.40591800 0.00002100 -0.00000700 -0.01421100 -0.02586600 1.37541000
38 1.17536900 -0.00013100 0.00000200 -0.07487300 0.09798600 -0.69969900
39 4.52675600 0.69046000 1.12084200 -0.60000400 -0.20424300 1.21618000
40 1.74404100 -0.00003100 -0.00000200 -0.02639200 -0.01328600 1.51729600
41 1.36876300 -0.00003100 -0.00001700 -0.07136400 0.14179300 -0.65392900
42 2.10920100 1.21154100 -0.81156700 1.73775900 0.59816000 0.52044500
43 1.58979800 -0.07374600 -0.14512700 0.06231400 -0.06828400 0.17604200
44 1.59178900 -0.07172300 0.01248500 0.04075900 0.07287200 -0.23380900
45 5.51180600 -0.00000200 0.00000600 -0.99849200 0.00000000 0.00000000
46 0.19685000 0.00000300 -0.00000200 -0.34822500 0.00001500 -0.00000200
47 0.00000000 1.00000000 0.00000000 0.00000000 0.00000000 -1.57079600
48 -3.49904400 4.22869200 -3.70908300 0.00000000 0.00000000 -3.14156200
49 -5.13968906 24.13375932 -1.83163826 0.36126578 0.17972668 -1.00951664
50 7.48540600 -0.00328400 -0.96348600 0.00000000 0.00000000 0.00000000
51 3.10496300 -0.01325200 0.71049500 0.00000000 0.00000000 0.00000000
52 15.09164400 1.71963100 -0.79398900 -0.43170800 0.95274300 1.24492200
53 -0.52057100 -2.18657500 -2.07332200 -2.91665300 1.07770600 -1.95945200
54 5.40893900 -0.00328400 -0.77842700 0.00000000 0.00000000 0.00000000
55 -0.00090600 0.00385100 0.00120200 0.00000000 0.00000000 0.00000000
56 0.10260000 0.03962800 -0.43449900 0.00000000 0.00000000 0.00000000
time 2
0 -0.00000100 8.45008800 -27.50902600 0.00000000 0.00000000 0.00003100
1 -0.00000200 0.00000000 0.00000000 1.57074300 -1.56713700 -1.57074300
2 4.25546800 -0.33518300 -0.00000200 0.00000000 0.00000000 -0.12484800
3 7.43124800 1.49647700 0.00000200 0.00000000 0.00000000 0.24545000
4 5.27847900 0.16554100 0.00000100 0.00000000 0.00000000 0.04851100
5 3.83750113 -5.11566270 5.36698951 1.97586400 1.15990900 -1.29878600
6 -6.21448200 -0.00000700 -0.00002700 -2.81269404 -0.66822585 1.58272573
7 11.94488200 0.00000000 0.00000100 -0.20649966 -0.29620043 1.53001396
8 10.62018100 0.00000200 0.00000000 1.43015442 -0.24289372 2.61953715
9 -4.75110600 -0.69449400 0.83057700 -0.25556500 -0.11654400 0.31276700
10 -1.68806800 0.00004600 -0.00003200 0.02287100 -0.00946300 0.26249200
11 -1.33614000 0.00005700 -0.00001200 0.02592200 0.00450900 0.38004900
12 -4.82049400 -0.50946000 -0.22475900 -0.63897000 -0.03508400 1.44561600
13 -1.82699200 -0.00006400 0.00000600 -0.00312000 0.04035500 1.19586400
14 -1.43657300 0.00000600 0.00000200 -0.03550000 -0.06921100 0.38279700
15 -3.99235500 -0.89118800 -1.82790900 -0.82654900 0.43648400 1.83279500
16 -1.40591800 -0.00002500 -0.00000300 0.01654100 -0.02437900 0.27905000
17 -1.17535800 0.00012800 -0.00002000 0.04192500 0.05340800 0.56994100
18 -4.52675100 -0.69057500 -1.12074400 -0.72962200 0.30057900 1.83127300
19 -1.74403800 0.00003300 -0.00000800 -0.00916900 -0.02809900 0.72431900
20 -1.36877100 0.00002500 0.00000200 -0.22704800 0.07843600 0.24818000
21 -1.88343600 -1.05062900 1.01560900 1.80053500 0.81547000 0.79478100
22 -1.52345300 0.00003200 0.00003100 0.10575300 0.13820400 0.75781300
23 -1.59928500 0.00000400 0.00001600 0.02972300 -0.03090300 0.78512800
24 5.58312800 0.11572500 0.29499700 1.94756400 -0.06728900 3.12123600
25 0.19684700 -0.00000100 0.00000300 2.79340678 -0.00112253 -3.14127932
26 -7.99476665 -16.28200968 -3.76147132 1.97586200 1.15990900 1.84280300
27 6.21448500 0.00000600 0.00002000 -0.64493597 0.11243495 -2.04114587
28 11.94488500 -0.00002900 -0.00019400 -1.10925532 -0.31882646 -1.30034131
29 10.62016600 0.00000200 0.00001000 -2.49272695 -1.22764400 0.52720126
30 4.75115600 0.69437600 -0.83047300 -0.04011400 -0.39343000 0.44209000
31 1.68806500 -0.00002600 0.00000200 0.00655000 -0.02383700 1.17288700
32 1.33615100 -0.00005100 -0.00000900 -0.00361300 -0.03853400 0.46443400
33 4.82051300 0.50934000 0.22486500 -0.26906700 -0.24688300 0.94826600
34 1.82699600 0.00006600 0.00000800 0.00391000 0.04027600 1.36954700
35 1.43657700 -0.00001000 0.00000700 0.01198700 -0.00925200 -0.07042800
36 3.99235300 0.89108700 1.82799400 -0.73824000 -0.03341000 1.36353200
37 1.40591800 0.00002100 -0.00000700 -0.01421100 -0.02586600 1.37541000
38 1.17536900 -0.00013100 0.00000200 -0.07487300 0.09798600 -0.69969900
39 4.52675600 0.69046000 1.12084200 -0.60000400 -0.20424300 1.21618000
40 1.74404100 -0.00003100 -0.00000200 -0.02639200 -0.01328600 1.51729600
41 1.36876300 -0.00003100 -0.00001700 -0.07136400 0.14179300 -0.65392900
42 2.10920100 1.21154100 -0.81156700 1.73775900 0.59816000 0.52044500
43 1.58979800 -0.07374600 -0.14512700 0.06231400 -0.06828400 0.17604200
44 1.59178900 -0.07172300 0.01248500 0.04075900 0.07287200 -0.23380900
45 5.51180600 -0.00000200 0.00000600 -0.99849200 0.00000000 0.00000000
46 0.19685000 0.00000300 -0.00000200 -0.34822500 0.00001500 -0.00000200
47 0.00000000 1.00000000 0.00000000 0.00000000 0.00000000 -1.57079600
48 -3.49904400 4.22869200 -3.70908300 0.00000000 0.00000000 -3.14156200
49 -5.44055174 24.14311012 -1.62199088 0.41169521 0.18914874 -0.97876406
50 7.48540600 -0.00328400 -0.96348600 0.00000000 0.00000000 0.00000000
51 3.10496300 -0.01325200 0.71049500 0.00000000 0.00000000 0.00000000
52 15.09164400 1.71963100 -0.79398900 -0.43170800 0.95274300 1.24492200
53 -0.52057100 -2.18657500 -2.07332200 -2.91665300 1.07770600 -1.95945200
54 5.40893900 -0.00328400 -0.77842700 0.00000000 0.00000000 0.00000000
55 -0.00090600 0.00385100 0.00120200 0.00000000 0.00000000 0.00000000
56 0.10260000 0.03962800 -0.43449900 0.00000000 0.00000000 0.00000000
time 3
0 -0.00000100 8.45008800 -27.50902600 0.00000000 0.00000000 0.00003100
1 -0.00000200 0.00000000 0.00000000 1.57074300 -1.56713700 -1.57074300
2 4.25546800 -0.33518300 -0.00000200 0.00000000 0.00000000 -0.12484800
3 7.43124800 1.49647700 0.00000200 0.00000000 0.00000000 0.24545000
4 5.27847900 0.16554100 0.00000100 0.00000000 0.00000000 0.04851100
5 3.66995842 -5.46223873 5.52051903 1.97586400 1.15990900 -1.29878600
6 -6.21448200 -0.00000700 -0.00002700 -2.80944150 -0.65178551 1.56819481
7 11.94488200 0.00000000 0.00000100 -0.19917907 -0.29107445 1.50783921
8 10.62018100 0.00000200 0.00000000 1.41675905 -0.25238015 2.66925255
9 -4.75110600 -0.69449400 0.83057700 -0.25556500 -0.11654400 0.31276700
10 -1.68806800 0.00004600 -0.00003200 0.02287100 -0.00946300 0.26249200
11 -1.33614000 0.00005700 -0.00001200 0.02592200 0.00450900 0.38004900
12 -4.82049400 -0.50946000 -0.22475900 -0.63897000 -0.03508400 1.44561600
13 -1.82699200 -0.00006400 0.00000600 -0.00312000 0.04035500 1.19586400
14 -1.43657300 0.00000600 0.00000200 -0.03550000 -0.06921100 0.38279700
15 -3.99235500 -0.89118800 -1.82790900 -0.82654900 0.43648400 1.83279500
16 -1.40591800 -0.00002500 -0.00000300 0.01654100 -0.02437900 0.27905000
17 -1.17535800 0.00012800 -0.00002000 0.04192500 0.05340800 0.56994100
18 -4.52675100 -0.69057500 -1.12074400 -0.72962200 0.30057900 1.83127300
19 -1.74403800 0.00003300 -0.00000800 -0.00916900 -0.02809900 0.72431900
20 -1.36877100 0.00002500 0.00000200 -0.22704800 0.07843600 0.24818000
21 -1.88343600 -1.05062900 1.01560900 1.80053500 0.81547000 0.79478100
22 -1.52345300 0.00003200 0.00003100 0.10575300 0.13820400 0.75781300
23 -1.59928500 0.00000400 0.00001600 0.02972300 -0.03090300 0.78512800
24 5.58312800 0.11572500 0.29499700 1.94756400 -0.06728900 3.12123600
25 0.19684700 -0.00000100 0.00000300 2.79340678 -0.00112253 -3.14127932
26 -7.90641348 -16.31775586 -3.72751324 1.97586200 1.15990900 1.84280300
27 6.21448500 0.00000600 0.00002000 -0.67267592 0.11085769 -2.02778011
28 11.94488500 -0.00002900 -0.00019400 -1.10510991 -0.32315189 -1.31204730
29 10.62016600 0.00000200 0.00001000 -2.36425784 -1.23716288 0.42541064
30 4.75115600 0.69437600 -0.83047300 -0.04011400 -0.39343000 0.44209000
31 1.68806500 -0.00002600 0.00000200 0.00655000 -0.02383700 1.17288700
32 1.33615100 -0.00005100 -0.00000900 -0.00361300 -0.03853400 0.46443400
33 4.82051300 0.50934000 0.22486500 -0.26906700 -0.24688300 0.94826600
34 1.82699600 0.00006600 0.00000800 0.00391000 0.04027600 1.36954700
35 1.43657700 -0.00001000 0.00000700 0.01198700 -0.00925200 -0.07042800
36 3.99235300 0.89108700 1.82799400 -0.73824000 -0.03341000 1.36353200
37 1.40591800 0.00002100 -0.00000700 -0.01421100 -0.02586600 1.37541000
38 1.17536900 -0.00013100 0.00000200 -0.07487300 0.09798600 -0.69969900
39 4.52675600 0.69046000 1.12084200 -0.60000400 -0.20424300 1.21618000
40 1.74404100 -0.00003100 -0.00000200 -0.02639200 -0.01328600 1.51729600
41 1.36876300 -0.00003100 -0.00001700 -0.07136400 0.14179300 -0.65392900
42 2.10920100 1.21154100 -0.81156700 1.73775900 0.59816000 0.52044500
43 1.58979800 -0.07374600 -0.14512700 0.06231400 -0.06828400 0.17604200
44 1.59178900 -0.07172300 0.01248500 0.04075900 0.07287200 -0.23380900
45 5.51180600 -0.00000200 0.00000600 -0.99849200 0.00000000 0.00000000
46 0.19685000 0.00000300 -0.00000200 -0.34822500 0.00001500 -0.00000200
47 0.00000000 1.00000000 0.00000000 0.00000000 0.00000000 -1.57079600
48 -3.49904400 4.22869200 -3.70908300 0.00000000 0.00000000 -3.14156200
49 -5.89312335 24.16298126 -1.36997262 0.42725286 0.20843392 -0.93346475
50 7.48540600 -0.00328400 -0.96348600 0.00000000 0.00000000 0.00000000
51 3.10496300 -0.01325200 0.71049500 0.00000000 0.00000000 0.00000000
52 15.09164400 1.71963100 -0.79398900 -0.43170800 0.95274300 1.24492200
53 -0.52057100 -2.18657500 -2.07332200 -2.91665300 1.07770600 -1.95945200
54 5.40893900 -0.00328400 -0.77842700 0.00000000 0.00000000 0.00000000
55 -0.00090600 0.00385100 0.00120200 0.00000000 0.00000000 0.00000000
56 0.10260000 0.03962800 -0.43449900 0.00000000 0.00000000 0.00000000
time 4
0 -0.00000100 8.45008800 -27.50902600 0.00000000 0.00000000 0.00003100
1 -0.00000200 0.00000000 0.00000000 1.57074300 -1.56713700 -1.57074300
2 4.25546800 -0.33518300 -0.00000200 0.00000000 0.00000000 -0.12484800
3 7.43124800 1.49647700 0.00000200 0.00000000 0.00000000 0.24545000
4 5.27847900 0.16554100 0.00000100 0.00000000 0.00000000 0.04851100
5 3.45994016 -5.89667922 5.71297147 1.97586400 1.15990900 -1.29878600
6 -6.21448200 -0.00000700 -0.00002700 -2.81174671 -0.63133798 1.54775133
7 11.94488200 0.00000000 0.00000100 -0.18719862 -0.28915951 1.47192553
8 10.62018100 0.00000200 0.00000000 1.39325061 -0.26133564 2.73637339
9 -4.75110600 -0.69449400 0.83057700 -0.25556500 -0.11654400 0.31276700
10 -1.68806800 0.00004600 -0.00003200 0.02287100 -0.00946300 0.26249200
11 -1.33614000 0.00005700 -0.00001200 0.02592200 0.00450900 0.38004900
12 -4.82049400 -0.50946000 -0.22475900 -0.63897000 -0.03508400 1.44561600
13 -1.82699200 -0.00006400 0.00000600 -0.00312000 0.04035500 1.19586400
14 -1.43657300 0.00000600 0.00000200 -0.03550000 -0.06921100 0.38279700
15 -3.99235500 -0.89118800 -1.82790900 -0.82654900 0.43648400 1.83279500
16 -1.40591800 -0.00002500 -0.00000300 0.01654100 -0.02437900 0.27905000
17 -1.17535800 0.00012800 -0.00002000 0.04192500 0.05340800 0.56994100
18 -4.52675100 -0.69057500 -1.12074400 -0.72962200 0.30057900 1.83127300
19 -1.74403800 0.00003300 -0.00000800 -0.00916900 -0.02809900 0.72431900
20 -1.36877100 0.00002500 0.00000200 -0.22704800 0.07843600 0.24818000
21 -1.88343600 -1.05062900 1.01560900 1.80053500 0.81547000 0.79478100
22 -1.52345300 0.00003200 0.00003100 0.10575300 0.13820400 0.75781300
23 -1.59928500 0.00000400 0.00001600 0.02972300 -0.03090300 0.78512800
24 5.58312800 0.11572500 0.29499700 1.94756400 -0.06728900 3.12123600
25 0.19684700 -0.00000100 0.00000300 2.79340678 -0.00112253 -3.14127932
26 -7.79254598 -16.36382404 -3.68375007 1.97586200 1.15990900 1.84280300
27 6.21448500 0.00000600 0.00002000 -0.70559813 0.11309497 -2.00782483
28 11.94488500 -0.00002900 -0.00019400 -1.09831844 -0.32794863 -1.33150445
29 10.62016600 0.00000200 0.00001000 -2.20311916 -1.24415886 0.30029467
30 4.75115600 0.69437600 -0.83047300 -0.04011400 -0.39343000 0.44209000
31 1.68806500 -0.00002600 0.00000200 0.00655000 -0.02383700 1.17288700
32 1.33615100 -0.00005100 -0.00000900 -0.00361300 -0.03853400 0.46443400
33 4.82051300 0.50934000 0.22486500 -0.26906700 -0.24688300 0.94826600
34 1.82699600 0.00006600 0.00000800 0.00391000 0.04027600 1.36954700
35 1.43657700 -0.00001000 0.00000700 0.01198700 -0.00925200 -0.07042800
36 3.99235300 0.89108700 1.82799400 -0.73824000 -0.03341000 1.36353200
37 1.40591800 0.00002100 -0.00000700 -0.01421100 -0.02586600 1.37541000
38 1.17536900 -0.00013100 0.00000200 -0.07487300 0.09798600 -0.69969900
39 4.52675600 0.69046000 1.12084200 -0.60000400 -0.20424300 1.21618000
40 1.74404100 -0.00003100 -0.00000200 -0.02639200 -0.01328600 1.51729600
41 1.36876300 -0.00003100 -0.00001700 -0.07136400 0.14179300 -0.65392900
42 2.10920100 1.21154100 -0.81156700 1.73775900 0.59816000 0.52044500
43 1.58979800 -0.07374600 -0.14512700 0.06231400 -0.06828400 0.17604200
44 1.59178900 -0.07172300 0.01248500 0.04075900 0.07287200 -0.23380900
45 5.51180600 -0.00000200 0.00000600 -0.99849200 0.00000000 0.00000000
46 0.19685000 0.00000300 -0.00000200 -0.34822500 0.00001500 -0.00000200
47 0.00000000 1.00000000 0.00000000 0.00000000 0.00000000 -1.57079600
48 -3.49904400 4.22869200 -3.70908300 0.00000000 0.00000000 -3.14156200
49 -6.46403021 24.19687736 -1.13660297 0.44144296 0.23005333 -0.87593572
50 7.48540600 -0.00328400 -0.96348600 0.00000000 0.00000000 0.00000000
51 3.10496300 -0.01325200 0.71049500 0.00000000 0.00000000 0.00000000
52 15.09164400 1.71963100 -0.79398900 -0.43170800 0.95274300 1.24492200
53 -0.52057100 -2.18657500 -2.07332200 -2.91665300 1.07770600 -1.95945200
54 5.40893900 -0.00328400 -0.77842700 0.00000000 0.00000000 0.00000000
55 -0.00090600 0.00385100 0.00120200 0.00000000 0.00000000 0.00000000
56 0.10260000 0.03962800 -0.43449900 0.00000000 0.00000000 0.00000000
time 5
0 -0.00000100 8.45008800 -27.50902600 0.00000000 0.00000000 0.00003100
1 -0.00000200 0.00000000 0.00000000 1.57074300 -1.56713700 -1.57074300
2 4.25546800 -0.33518300 -0.00000200 0.00000000 0.00000000 -0.12484800
3 7.43124800 1.49647700 0.00000200 0.00000000 0.00000000 0.24545000
4 5.27847900 0.16554100 0.00000100 0.00000000 0.00000000 0.04851100
5 3.22160547 -6.38969529 5.93137273 1.97586400 1.15990900 -1.29878600
6 -6.21448200 -0.00000700 -0.00002700 -2.81942984 -0.60674667 1.52111296
7 11.94488200 0.00000000 0.00000100 -0.17142631 -0.28623781 1.42561177
8 10.62018100 0.00000200 0.00000000 1.36284089 -0.26444440 2.80954739
9 -4.75110600 -0.69449400 0.83057700 -0.25556500 -0.11654400 0.31276700
10 -1.68806800 0.00004600 -0.00003200 0.02287100 -0.00946300 0.26249200
11 -1.33614000 0.00005700 -0.00001200 0.02592200 0.00450900 0.38004900
12 -4.82049400 -0.50946000 -0.22475900 -0.63897000 -0.03508400 1.44561600
13 -1.82699200 -0.00006400 0.00000600 -0.00312000 0.04035500 1.19586400
14 -1.43657300 0.00000600 0.00000200 -0.03550000 -0.06921100 0.38279700
15 -3.99235500 -0.89118800 -1.82790900 -0.82654900 0.43648400 1.83279500
16 -1.40591800 -0.00002500 -0.00000300 0.01654100 -0.02437900 0.27905000
17 -1.17535800 0.00012800 -0.00002000 0.04192500 0.05340800 0.56994100
18 -4.52675100 -0.69057500 -1.12074400 -0.72962200 0.30057900 1.83127300
19 -1.74403800 0.00003300 -0.00000800 -0.00916900 -0.02809900 0.72431900
20 -1.36877100 0.00002500 0.00000200 -0.22704800 0.07843600 0.24818000
21 -1.88343600 -1.05062900 1.01560900 1.80053500 0.81547000 0.79478100
22 -1.52345300 0.00003200 0.00003100 0.10575300 0.13820400 0.75781300
23 -1.59928500 0.00000400 0.00001600 0.02972300 -0.03090300 0.78512800
24 5.58312800 0.11572500 0.29499700 1.94756400 -0.06728900 3.12123600
25 0.19684700 -0.00000100 0.00000300 2.79340678 -0.00112253 -3.14127932
26 -7.65883491 -16.41792132 -3.63235942 1.97586200 1.15990900 1.84280300
27 6.21448500 0.00000600 0.00002000 -0.74089618 0.12178541 -1.98205692
28 11.94488500 -0.00002900 -0.00019400 -1.08901665 -0.33372205 -1.35833162
29 10.62016600 0.00000200 0.00001000 -2.03274493 -1.24342422 0.16963243
30 4.75115600 0.69437600 -0.83047300 -0.04011400 -0.39343000 0.44209000
31 1.68806500 -0.00002600 0.00000200 0.00655000 -0.02383700 1.17288700
32 1.33615100 -0.00005100 -0.00000900 -0.00361300 -0.03853400 0.46443400
33 4.82051300 0.50934000 0.22486500 -0.26906700 -0.24688300 0.94826600
34 1.82699600 0.00006600 0.00000800 0.00391000 0.04027600 1.36954700
35 1.43657700 -0.00001000 0.00000700 0.01198700 -0.00925200 -0.07042800
36 3.99235300 0.89108700 1.82799400 -0.73824000 -0.03341000 1.36353200
37 1.40591800 0.00002100 -0.00000700 -0.01421100 -0.02586600 1.37541000
38 1.17536900 -0.00013100 0.00000200 -0.07487300 0.09798600 -0.69969900
39 4.52675600 0.69046000 1.12084200 -0.60000400 -0.20424300 1.21618000
40 1.74404100 -0.00003100 -0.00000200 -0.02639200 -0.01328600 1.51729600
41 1.36876300 -0.00003100 -0.00001700 -0.07136400 0.14179300 -0.65392900
42 2.10920100 1.21154100 -0.81156700 1.73775900 0.59816000 0.52044500
43 1.58979800 -0.07374600 -0.14512700 0.06231400 -0.06828400 0.17604200
44 1.59178900 -0.07172300 0.01248500 0.04075900 0.07287200 -0.23380900
45 5.51180600 -0.00000200 0.00000600 -0.99849200 0.00000000 0.00000000
46 0.19685000 0.00000300 -0.00000200 -0.34822500 0.00001500 -0.00000200
47 0.00000000 1.00000000 0.00000000 0.00000000 0.00000000 -1.57079600
48 -3.49904400 4.22869200 -3.70908300 0.00000000 0.00000000 -3.14156200
49 -7.12718044 24.24830643 -0.97331728 0.45514694 0.24957152 -0.81287856
50 7.48540600 -0.00328400 -0.96348600 0.00000000 0.00000000 0.00000000
51 3.10496300 -0.01325200 0.71049500 0.00000000 0.00000000 0.00000000
52 15.09164400 1.71963100 -0.79398900 -0.43170800 0.95274300 1.24492200
53 -0.52057100 -2.18657500 -2.07332200 -2.91665300 1.07770600 -1.95945200
54 5.40893900 -0.00328400 -0.77842700 0.00000000 0.00000000 0.00000000
55 -0.00090600 0.00385100 0.00120200 0.00000000 0.00000000 0.00000000
56 0.10260000 0.03962800 -0.43449900 0.00000000 0.00000000 0.00000000
time 6
0 -0.00000100 8.45008800 -27.50902600 0.00000000 0.00000000 0.00003100
1 -0.00000200 0.00000000 0.00000000 1.57074300 -1.56713700 -1.57074300
2 4.25546800 -0.33518300 -0.00000200 0.00000000 0.00000000 -0.12484800
3 7.43124800 1.49647700 0.00000200 0.00000000 0.00000000 0.24545000
4 5.27847900 0.16554100 0.00000100 0.00000000 0.00000000 0.04851100
5 2.96911164 -6.91199992 6.16274809 1.97586400 1.15990900 -1.29878600
6 -6.21448200 -0.00000700 -0.00002700 -2.83340387 -0.58111639 1.49013654
7 11.94488200 0.00000000 0.00000100 -0.15354166 -0.27950841 1.37443921
8 10.62018100 0.00000200 0.00000000 1.32951837 -0.25710034 2.87815191
9 -4.75110600 -0.69449400 0.83057700 -0.25556500 -0.11654400 0.31276700
10 -1.68806800 0.00004600 -0.00003200 0.02287100 -0.00946300 0.26249200
11 -1.33614000 0.00005700 -0.00001200 0.02592200 0.00450900 0.38004900
12 -4.82049400 -0.50946000 -0.22475900 -0.63897000 -0.03508400 1.44561600
13 -1.82699200 -0.00006400 0.00000600 -0.00312000 0.04035500 1.19586400
14 -1.43657300 0.00000600 0.00000200 -0.03550000 -0.06921100 0.38279700
15 -3.99235500 -0.89118800 -1.82790900 -0.82654900 0.43648400 1.83279500
16 -1.40591800 -0.00002500 -0.00000300 0.01654100 -0.02437900 0.27905000
17 -1.17535800 0.00012800 -0.00002000 0.04192500 0.05340800 0.56994100
18 -4.52675100 -0.69057500 -1.12074400 -0.72962200 0.30057900 1.83127300
19 -1.74403800 0.00003300 -0.00000800 -0.00916900 -0.02809900 0.72431900
20 -1.36877100 0.00002500 0.00000200 -0.22704800 0.07843600 0.24818000
21 -1.88343600 -1.05062900 1.01560900 1.80053500 0.81547000 0.79478100
22 -1.52345300 0.00003200 0.00003100 0.10575300 0.13820400 0.75781300
23 -1.59928500 0.00000400 0.00001600 0.02972300 -0.03090300 0.78512800
24 5.58312800 0.11572500 0.29499700 1.94756400 -0.06728900 3.12123600
25 0.19684700 -0.00000100 0.00000300 2.79340678 -0.00112253 -3.14127932
26 -7.51094921 -16.47775384 -3.57552142 1.97586200 1.15990900 1.84280300
27 6.21448500 0.00000600 0.00002000 -0.77526726 0.14119595 -1.95122849
28 11.94488500 -0.00002900 -0.00019400 -1.07696639 -0.34107692 -1.39371304
29 10.62016600 0.00000200 0.00001000 -1.88085110 -1.23389873 0.05672002
30 4.75115600 0.69437600 -0.83047300 -0.04011400 -0.39343000 0.44209000
31 1.68806500 -0.00002600 0.00000200 0.00655000 -0.02383700 1.17288700
32 1.33615100 -0.00005100 -0.00000900 -0.00361300 -0.03853400 0.46443400
33 4.82051300 0.50934000 0.22486500 -0.26906700 -0.24688300 0.94826600
34 1.82699600 0.00006600 0.00000800 0.00391000 0.04027600 1.36954700
35 1.43657700 -0.00001000 0.00000700 0.01198700 -0.00925200 -0.07042800
36 3.99235300 0.89108700 1.82799400 -0.73824000 -0.03341000 1.36353200
37 1.40591800 0.00002100 -0.00000700 -0.01421100 -0.02586600 1.37541000
38 1.17536900 -0.00013100 0.00000200 -0.07487300 0.09798600 -0.69969900
39 4.52675600 0.69046000 1.12084200 -0.60000400 -0.20424300 1.21618000
40 1.74404100 -0.00003100 -0.00000200 -0.02639200 -0.01328600 1.51729600
41 1.36876300 -0.00003100 -0.00001700 -0.07136400 0.14179300 -0.65392900
42 2.10920100 1.21154100 -0.81156700 1.73775900 0.59816000 0.52044500
43 1.58979800 -0.07374600 -0.14512700 0.06231400 -0.06828400 0.17604200
44 1.59178900 -0.07172300 0.01248500 0.04075900 0.07287200 -0.23380900
45 5.51180600 -0.00000200 0.00000600 -0.99849200 0.00000000 0.00000000
46 0.19685000 0.00000300 -0.00000200 -0.34822500 0.00001500 -0.00000200
47 0.00000000 1.00000000 0.00000000 0.00000000 0.00000000 -1.57079600
48 -3.49904400 4.22869200 -3.70908300 0.00000000 0.00000000 -3.14156200
49 -7.84903031 24.32077540 -0.95160697 0.46688463 0.26375268 -0.75192366
50 7.48540600 -0.00328400 -0.96348600 0.00000000 0.00000000 0.00000000
51 3.10496300 -0.01325200 0.71049500 0.00000000 0.00000000 0.00000000
52 15.09164400 1.71963100 -0.79398900 -0.43170800 0.95274300 1.24492200
53 -0.52057100 -2.18657500 -2.07332200 -2.91665300 1.07770600 -1.95945200
54 5.40893900 -0.00328400 -0.77842700 0.00000000 0.00000000 0.00000000
55 -0.00090600 0.00385100 0.00120200 0.00000000 0.00000000 0.00000000
56 0.10260000 0.03962800 -0.43449900 0.00000000 0.00000000 0.00000000
time 7
0 -0.00000100 8.45008800 -27.50902600 0.00000000 0.00000000 0.00003100
1 -0.00000200 0.00000000 0.00000000 1.57074300 -1.56713700 -1.57074300
2 4.25546800 -0.33518300 -0.00000200 0.00000000 0.00000000 -0.12484800
3 7.43124800 1.49647700 0.00000200 0.00000000 0.00000000 0.24545000
4 5.27847900 0.16554100 0.00000100 0.00000000 0.00000000 0.04851100
5 2.71661781 -7.43430394 6.39412345 1.97586400 1.15990900 -1.29878600
6 -6.21448200 -0.00000700 -0.00002700 -2.84951369 -0.55612222 1.45623159
7 11.94488200 0.00000000 0.00000100 -0.13709014 -0.27116952 1.32741641
8 10.62018100 0.00000200 0.00000000 1.29152114 -0.24968377 2.92825709
9 -4.75110600 -0.69449400 0.83057700 -0.25556500 -0.11654400 0.31276700
10 -1.68806800 0.00004600 -0.00003200 0.02287100 -0.00946300 0.26249200
11 -1.33614000 0.00005700 -0.00001200 0.02592200 0.00450900 0.38004900
12 -4.82049400 -0.50946000 -0.22475900 -0.63897000 -0.03508400 1.44561600
13 -1.82699200 -0.00006400 0.00000600 -0.00312000 0.04035500 1.19586400
14 -1.43657300 0.00000600 0.00000200 -0.03550000 -0.06921100 0.38279700
15 -3.99235500 -0.89118800 -1.82790900 -0.82654900 0.43648400 1.83279500
16 -1.40591800 -0.00002500 -0.00000300 0.01654100 -0.02437900 0.27905000
17 -1.17535800 0.00012800 -0.00002000 0.04192500 0.05340800 0.56994100
18 -4.52675100 -0.69057500 -1.12074400 -0.72962200 0.30057900 1.83127300
19 -1.74403800 0.00003300 -0.00000800 -0.00916900 -0.02809900 0.72431900
20 -1.36877100 0.00002500 0.00000200 -0.22704800 0.07843600 0.24818000
21 -1.88343600 -1.05062900 1.01560900 1.80053500 0.81547000 0.79478100
22 -1.52345300 0.00003200 0.00003100 0.10575300 0.13820400 0.75781300
23 -1.59928500 0.00000400 0.00001600 0.02972300 -0.03090300 0.78512800
24 5.58312800 0.11572500 0.29499700 1.94756400 -0.06728900 3.12123600
25 0.19684700 -0.00000100 0.00000300 2.79340678 -0.00112253 -3.14127932
26 -7.35455997 -16.54102837 -3.51541465 1.97586200 1.15990900 1.84280300
27 6.21448500 0.00000600 0.00002000 -0.80618822 0.16890883 -1.91804841
28 11.94488500 -0.00002900 -0.00019400 -1.06303132 -0.34901495 -1.43446112
29 10.62016600 0.00000200 0.00001000 -1.76685434 -1.22628460 -0.01560630
30 4.75115600 0.69437600 -0.83047300 -0.04011400 -0.39343000 0.44209000
31 1.68806500 -0.00002600 0.00000200 0.00655000 -0.02383700 1.17288700
32 1.33615100 -0.00005100 -0.00000900 -0.00361300 -0.03853400 0.46443400
33 4.82051300 0.50934000 0.22486500 -0.26906700 -0.24688300 0.94826600
34 1.82699600 0.00006600 0.00000800 0.00391000 0.04027600 1.36954700
35 1.43657700 -0.00001000 0.00000700 0.01198700 -0.00925200 -0.07042800
36 3.99235300 0.89108700 1.82799400 -0.73824000 -0.03341000 1.36353200
37 1.40591800 0.00002100 -0.00000700 -0.01421100 -0.02586600 1.37541000
38 1.17536900 -0.00013100 0.00000200 -0.07487300 0.09798600 -0.69969900
39 4.52675600 0.69046000 1.12084200 -0.60000400 -0.20424300 1.21618000
40 1.74404100 -0.00003100 -0.00000200 -0.02639200 -0.01328600 1.51729600
41 1.36876300 -0.00003100 -0.00001700 -0.07136400 0.14179300 -0.65392900
42 2.10920100 1.21154100 -0.81156700 1.73775900 0.59816000 0.52044500
43 1.58979800 -0.07374600 -0.14512700 0.06231400 -0.06828400 0.17604200
44 1.59178900 -0.07172300 0.01248500 0.04075900 0.07287200 -0.23380900
45 5.51180600 -0.00000200 0.00000600 -0.99849200 0.00000000 0.00000000
46 0.19685000 0.00000300 -0.00000200 -0.34822500 0.00001500 -0.00000200
47 0.00000000 1.00000000 0.00000000 0.00000000 0.00000000 -1.57079600
48 -3.49904400 4.22869200 -3.70908300 0.00000000 0.00000000 -3.14156200
49 -8.56623512 24.41778798 -1.05299709 0.46733654 0.26748306 -0.69887123
50 7.48540600 -0.00328400 -0.96348600 0.00000000 0.00000000 0.00000000
51 3.10496300 -0.01325200 0.71049500 0.00000000 0.00000000 0.00000000
52 15.09164400 1.71963100 -0.79398900 -0.43170800 0.95274300 1.24492200
53 -0.52057100 -2.18657500 -2.07332200 -2.91665300 1.07770600 -1.95945200
54 5.40893900 -0.00328400 -0.77842700 0.00000000 0.00000000 0.00000000
55 -0.00090600 0.00385100 0.00120200 0.00000000 0.00000000 0.00000000
56 0.10260000 0.03962800 -0.43449900 0.00000000 0.00000000 0.00000000
time 8
0 -0.00000100 8.45008800 -27.50902600 0.00000000 0.00000000 0.00003100
1 -0.00000200 0.00000000 0.00000000 1.57074300 -1.56713700 -1.57074300
2 4.25546800 -0.33518300 -0.00000200 0.00000000 0.00000000 -0.12484800
3 7.43124800 1.49647700 0.00000200 0.00000000 0.00000000 0.24545000
4 5.27847900 0.16554100 0.00000100 0.00000000 0.00000000 0.04851100
5 2.47828312 -7.92732032 6.61252470 1.97586400 1.15990900 -1.29878600
6 -6.21448200 -0.00000700 -0.00002700 -2.85904581 -0.52546420 1.41910513
7 11.94488200 0.00000000 0.00000100 -0.13333226 -0.27457622 1.31432463
8 10.62018100 0.00000200 0.00000000 1.25107476 -0.28763336 2.90821801
9 -4.75110600 -0.69449400 0.83057700 -0.25556500 -0.11654400 0.31276700
10 -1.68806800 0.00004600 -0.00003200 0.02287100 -0.00946300 0.26249200
11 -1.33614000 0.00005700 -0.00001200 0.02592200 0.00450900 0.38004900
12 -4.82049400 -0.50946000 -0.22475900 -0.63897000 -0.03508400 1.44561600
13 -1.82699200 -0.00006400 0.00000600 -0.00312000 0.04035500 1.19586400
14 -1.43657300 0.00000600 0.00000200 -0.03550000 -0.06921100 0.38279700
15 -3.99235500 -0.89118800 -1.82790900 -0.82654900 0.43648400 1.83279500
16 -1.40591800 -0.00002500 -0.00000300 0.01654100 -0.02437900 0.27905000
17 -1.17535800 0.00012800 -0.00002000 0.04192500 0.05340800 0.56994100
18 -4.52675100 -0.69057500 -1.12074400 -0.72962200 0.30057900 1.83127300
19 -1.74403800 0.00003300 -0.00000800 -0.00916900 -0.02809900 0.72431900
20 -1.36877100 0.00002500 0.00000200 -0.22704800 0.07843600 0.24818000
21 -1.88343531 -1.05062831 1.01560831 1.80053500 0.81547000 0.79478100
22 -1.52345300 0.00003200 0.00003100 0.10575300 0.13820400 0.75781300
23 -1.59928500 0.00000400 0.00001600 0.02972300 -0.03090300 0.78512800
24 5.58312524 0.11572500 0.29499907 1.94756400 -0.06728900 3.12123600
25 0.19684700 -0.00000100 0.00000300 2.79340678 -0.00112253 -3.14127932
26 -7.19533456 -16.60544641 -3.45421797 1.97586200 1.15990900 1.84280300
27 6.21448500 0.00000600 0.00002000 -0.83332815 0.20094540 -1.88727502
28 11.94488500 -0.00002900 -0.00019400 -1.04779227 -0.35405742 -1.47847755
29 10.62016600 0.00000200 0.00001000 -1.72505075 -1.25344739 -0.01736483
30 4.75115600 0.69437600 -0.83047300 -0.04011400 -0.39343000 0.44209000
31 1.68806500 -0.00002600 0.00000200 0.00655000 -0.02383700 1.17288700
32 1.33615100 -0.00005100 -0.00000900 -0.00361300 -0.03853400 0.46443400
33 4.82051300 0.50934000 0.22486500 -0.26906700 -0.24688300 0.94826600
34 1.82699600 0.00006600 0.00000800 0.00391000 0.04027600 1.36954700
35 1.43657700 -0.00001000 0.00000700 0.01198700 -0.00925200 -0.07042800
36 3.99235300 0.89108700 1.82799400 -0.73824000 -0.03341000 1.36353200
37 1.40591800 0.00002100 -0.00000700 -0.01421100 -0.02586600 1.37541000
38 1.17536900 -0.00013100 0.00000200 -0.07487300 0.09798600 -0.69969900
39 4.52675600 0.69046000 1.12084200 -0.60000400 -0.20424300 1.21618000
40 1.74404100 -0.00003100 -0.00000200 -0.02639200 -0.01328600 1.51729600
41 1.36876300 -0.00003100 -0.00001700 -0.07136400 0.14179300 -0.65392900
42 2.10920238 1.21154169 -0.81156700 1.73775900 0.59816000 0.52044500
43 1.58979593 -0.07374600 -0.14512631 0.06231400 -0.06828400 0.17604200
44 1.59179176 -0.07172300 0.01248569 0.04075900 0.07287200 -0.23380900
45 5.51180600 -0.00000200 0.00000600 -0.99849200 0.00000000 0.00000000
46 0.19685000 0.00000300 -0.00000200 -0.34822500 0.00001500 -0.00000200
47 0.00000000 1.00000000 0.00000000 0.00000000 0.00000000 -1.57079600
48 -3.49904400 4.22869200 -3.70908300 0.00000000 0.00000000 -3.14156200
49 -9.22167379 24.54911533 -1.20568495 0.44764649 0.23517663 -0.66546179
50 7.48540600 -0.00328400 -0.96348600 0.00000000 0.00000000 0.00000000
51 3.10496300 -0.01325200 0.71049500 0.00000000 0.00000000 0.00000000
52 15.09164538 1.71962893 -0.79398900 -0.43170800 0.95274300 1.24492200
53 -0.52056962 -2.18657707 -2.07332200 -2.91665300 1.07770600 -1.95945200
54 5.40893900 -0.00328400 -0.77842700 0.00000000 0.00000000 0.00000000
55 -0.00090600 0.00385100 0.00120200 0.00000000 0.00000000 0.00000000
56 0.10260138 0.03962731 -0.43449762 0.00000000 0.00000000 0.00000000
time 9
0 -0.00000100 8.45008800 -27.50902600 0.00000000 0.00000000 0.00003100
1 -0.00000200 0.00000000 0.00000000 1.57074300 -1.56713700 -1.57074300
2 4.25546800 -0.33518300 -0.00000200 0.00000000 0.00000000 -0.12484800
3 7.43124800 1.49647700 0.00000200 0.00000000 0.00000000 0.24545000
4 5.27847900 0.16554100 0.00000100 0.00000000 0.00000000 0.04851100
5 2.26826486 -8.36176112 6.80497745 1.97586400 1.15990900 -1.29878600
6 -6.21448200 -0.00000700 -0.00002700 -2.87479480 -0.49630323 1.38808900
7 11.94488200 0.00000000 0.00000100 -0.13045408 -0.28576607 1.30144899
8 10.62018100 0.00000200 0.00000000 1.22431864 -0.32892307 2.88621247
9 -4.75110600 -0.69449400 0.83057700 -0.25556500 -0.11654400 0.31276700
10 -1.68806800 0.00004600 -0.00003200 0.02287100 -0.00946300 0.26249200
11 -1.33614000 0.00005700 -0.00001200 0.02592200 0.00450900 0.38004900
12 -4.82049400 -0.50946000 -0.22475900 -0.63897000 -0.03508400 1.44561600
13 -1.82699200 -0.00006400 0.00000600 -0.00312000 0.04035500 1.19586400
14 -1.43657300 0.00000600 0.00000200 -0.03550000 -0.06921100 0.38279700
15 -3.99235500 -0.89118800 -1.82790900 -0.82654900 0.43648400 1.83279500
16 -1.40591800 -0.00002500 -0.00000300 0.01654100 -0.02437900 0.27905000
17 -1.17535800 0.00012800 -0.00002000 0.04192500 0.05340800 0.56994100
18 -4.52675100 -0.69057500 -1.12074400 -0.72962200 0.30057900 1.83127300
19 -1.74403800 0.00003300 -0.00000800 -0.00916900 -0.02809900 0.72431900
20 -1.36877100 0.00002500 0.00000200 -0.22704800 0.07843600 0.24818000
21 -1.88343531 -1.05062831 1.01560831 1.80053500 0.81547000 0.79478100
22 -1.52345300 0.00003200 0.00003100 0.10575300 0.13820400 0.75781300
23 -1.59928500 0.00000400 0.00001600 0.02972300 -0.03090300 0.78512800
24 5.58312524 0.11572500 0.29499907 1.94756400 -0.06728900 3.12123600
25 0.19684700 -0.00000100 0.00000300 2.79340678 -0.00112253 -3.14127932
26 -7.03894470 -16.66871971 -3.39411212 1.97586200 1.15990900 1.84280300
27 6.21448500 0.00000600 0.00002000 -0.85342393 0.23750580 -1.86246631
28 11.94488500 -0.00002900 -0.00019400 -1.03561480 -0.35595072 -1.51340906
29 10.62016600 0.00000200 0.00001000 -1.70178227 -1.27415945 -0.02795055
30 4.75115600 0.69437600 -0.83047300 -0.04011400 -0.39343000 0.44209000
31 1.68806500 -0.00002600 0.00000200 0.00655000 -0.02383700 1.17288700
32 1.33615100 -0.00005100 -0.00000900 -0.00361300 -0.03853400 0.46443400
33 4.82051300 0.50934000 0.22486500 -0.26906700 -0.24688300 0.94826600
34 1.82699600 0.00006600 0.00000800 0.00391000 0.04027600 1.36954700
35 1.43657700 -0.00001000 0.00000700 0.01198700 -0.00925200 -0.07042800
36 3.99235300 0.89108700 1.82799400 -0.73824000 -0.03341000 1.36353200
37 1.40591800 0.00002100 -0.00000700 -0.01421100 -0.02586600 1.37541000
38 1.17536900 -0.00013100 0.00000200 -0.07487300 0.09798600 -0.69969900
39 4.52675600 0.69046000 1.12084200 -0.60000400 -0.20424300 1.21618000
40 1.74404100 -0.00003100 -0.00000200 -0.02639200 -0.01328600 1.51729600
41 1.36876300 -0.00003100 -0.00001700 -0.07136400 0.14179300 -0.65392900
42 2.10920238 1.21154169 -0.81156700 1.73775900 0.59816000 0.52044500
43 1.58979593 -0.07374600 -0.14512631 0.06231400 -0.06828400 0.17604200
44 1.59179176 -0.07172300 0.01248569 0.04075900 0.07287200 -0.23380900
45 5.51180600 -0.00000200 0.00000600 -0.99849200 0.00000000 0.00000000
46 0.19685000 0.00000300 -0.00000200 -0.34822500 0.00001500 -0.00000200
47 0.00000000 1.00000000 0.00000000 0.00000000 0.00000000 -1.57079600
48 -3.49904400 4.22869200 -3.70908300 0.00000000 0.00000000 -3.14156200
49 -9.72975995 24.71867886 -1.44725883 0.43922511 0.19825544 -0.64060113
50 7.48540600 -0.00328400 -0.96348600 0.00000000 0.00000000 0.00000000
51 3.10496300 -0.01325200 0.71049500 0.00000000 0.00000000 0.00000000
52 15.09164538 1.71962893 -0.79398900 -0.43170800 0.95274300 1.24492200
53 -0.52056962 -2.18657707 -2.07332200 -2.91665300 1.07770600 -1.95945200
54 5.40893900 -0.00328400 -0.77842700 0.00000000 0.00000000 0.00000000
55 -0.00090600 0.00385100 0.00120200 0.00000000 0.00000000 0.00000000
56 0.10260138 0.03962731 -0.43449762 0.00000000 0.00000000 0.00000000
time 10
0 -0.00000100 8.45008800 -27.50902600 0.00000000 0.00000000 0.00003100
1 -0.00000200 0.00000000 0.00000000 1.57074300 -1.56713700 -1.57074300
2 4.25546800 -0.33518300 -0.00000200 0.00000000 0.00000000 -0.12484800
3 7.43124800 1.49647700 0.00000200 0.00000000 0.00000000 0.24545000
4 5.27847900 0.16554100 0.00000100 0.00000000 0.00000000 0.04851100
5 2.10072216 -8.70833684 6.95850698 1.97586400 1.15990900 -1.29878600
6 -6.21448200 -0.00000700 -0.00002700 -2.89641183 -0.48372578 1.38960980
7 11.94488200 0.00000000 0.00000100 -0.12885570 -0.29026266 1.29395549
8 10.62018100 0.00000200 0.00000000 1.23172597 -0.33489814 2.90652382
9 -4.75110600 -0.69449400 0.83057700 -0.25556500 -0.11654400 0.31276700
10 -1.68806800 0.00004600 -0.00003200 0.02287100 -0.00946300 0.26249200
11 -1.33614000 0.00005700 -0.00001200 0.02592200 0.00450900 0.38004900
12 -4.82049400 -0.50946000 -0.22475900 -0.63897000 -0.03508400 1.44561600
13 -1.82699200 -0.00006400 0.00000600 -0.00312000 0.04035500 1.19586400
14 -1.43657300 0.00000600 0.00000200 -0.03550000 -0.06921100 0.38279700
15 -3.99235500 -0.89118800 -1.82790900 -0.82654900 0.43648400 1.83279500
16 -1.40591800 -0.00002500 -0.00000300 0.01654100 -0.02437900 0.27905000
17 -1.17535800 0.00012800 -0.00002000 0.04192500 0.05340800 0.56994100
18 -4.52675100 -0.69057500 -1.12074400 -0.72962200 0.30057900 1.83127300
19 -1.74403800 0.00003300 -0.00000800 -0.00916900 -0.02809900 0.72431900
20 -1.36877100 0.00002500 0.00000200 -0.22704800 0.07843600 0.24818000
21 -1.88343531 -1.05062831 1.01560831 1.80053500 0.81547000 0.79478100
22 -1.52345300 0.00003200 0.00003100 0.10575300 0.13820400 0.75781300
23 -1.59928500 0.00000400 0.00001600 0.02972300 -0.03090300 0.78512800
24 5.58312524 0.11572500 0.29499907 1.94756400 -0.06728900 3.12123600
25 0.19684700 -0.00000100 0.00000300 2.79340678 -0.00112253 -3.14127932
26 -6.89105962 -16.72855191 -3.33727320 1.97586200 1.15990900 1.84280300
27 6.21448500 0.00000600 0.00002000 -0.85445993 0.27360989 -1.85656041
28 11.94488500 -0.00002900 -0.00019400 -1.03043713 -0.35940272 -1.52908312
29 10.62016600 0.00000200 0.00001000 -1.64010218 -1.25323159 -0.12934820
30 4.75115600 0.69437600 -0.83047300 -0.04011400 -0.39343000 0.44209000
31 1.68806500 -0.00002600 0.00000200 0.00655000 -0.02383700 1.17288700
32 1.33615100 -0.00005100 -0.00000900 -0.00361300 -0.03853400 0.46443400
33 4.82051300 0.50934000 0.22486500 -0.26906700 -0.24688300 0.94826600
34 1.82699600 0.00006600 0.00000800 0.00391000 0.04027600 1.36954700
35 1.43657700 -0.00001000 0.00000700 0.01198700 -0.00925200 -0.07042800
36 3.99235300 0.89108700 1.82799400 -0.73824000 -0.03341000 1.36353200
37 1.40591800 0.00002100 -0.00000700 -0.01421100 -0.02586600 1.37541000
38 1.17536900 -0.00013100 0.00000200 -0.07487300 0.09798600 -0.69969900
39 4.52675600 0.69046000 1.12084200 -0.60000400 -0.20424300 1.21618000
40 1.74404100 -0.00003100 -0.00000200 -0.02639200 -0.01328600 1.51729600
41 1.36876300 -0.00003100 -0.00001700 -0.07136400 0.14179300 -0.65392900
42 2.10920238 1.21154169 -0.81156700 1.73775900 0.59816000 0.52044500
43 1.58979593 -0.07374600 -0.14512631 0.06231400 -0.06828400 0.17604200
44 1.59179176 -0.07172300 0.01248569 0.04075900 0.07287200 -0.23380900
45 5.51180600 -0.00000200 0.00000600 -0.99849200 0.00000000 0.00000000
46 0.19685000 0.00000300 -0.00000200 -0.34822500 0.00001500 -0.00000200
47 0.00000000 1.00000000 0.00000000 0.00000000 0.00000000 -1.57079600
48 -3.49904400 4.22869200 -3.70908300 0.00000000 0.00000000 -3.14156200
49 -9.80966752 24.84749264 -1.71885425 0.47319872 0.18908596 -0.61759045
50 7.48540600 -0.00328400 -0.96348600 0.00000000 0.00000000 0.00000000
51 3.10496300 -0.01325200 0.71049500 0.00000000 0.00000000 0.00000000
52 15.09164538 1.71962893 -0.79398900 -0.43170800 0.95274300 1.24492200
53 -0.52056962 -2.18657707 -2.07332200 -2.91665300 1.07770600 -1.95945200
54 5.40893900 -0.00328400 -0.77842700 0.00000000 0.00000000 0.00000000
55 -0.00090600 0.00385100 0.00120200 0.00000000 0.00000000 0.00000000
56 0.10260138 0.03962731 -0.43449762 0.00000000 0.00000000 0.00000000
time 11
0 -0.00000100 8.45008800 -27.50902600 0.00000000 0.00000000 0.00003100
1 -0.00000200 0.00000000 0.00000000 1.57074300 -1.56713700 -1.57074300
2 4.25546800 -0.33518300 -0.00000200 0.00000000 0.00000000 -0.12484800
3 7.43124800 1.49647700 0.00000200 0.00000000 0.00000000 0.24545000
4 5.27847900 0.16554100 0.00000100 0.00000000 0.00000000 0.04851100
5 1.98981416 -8.93775986 7.06013886 1.97586400 1.15990900 -1.29878600
6 -6.21448200 -0.00000700 -0.00002700 -2.91527672 -0.48350014 1.41060124
7 11.94488200 0.00000000 0.00000100 -0.13621574 -0.29724600 1.31452119
8 10.62018100 0.00000200 0.00000000 1.24670589 -0.33656360 2.91328865
9 -4.75110600 -0.69449400 0.83057700 -0.25556500 -0.11654400 0.31276700
10 -1.68806800 0.00004600 -0.00003200 0.02287100 -0.00946300 0.26249200
11 -1.33614000 0.00005700 -0.00001200 0.02592200 0.00450900 0.38004900
12 -4.82049400 -0.50946000 -0.22475900 -0.63897000 -0.03508400 1.44561600
13 -1.82699200 -0.00006400 0.00000600 -0.00312000 0.04035500 1.19586400
14 -1.43657300 0.00000600 0.00000200 -0.03550000 -0.06921100 0.38279700
15 -3.99235500 -0.89118800 -1.82790900 -0.82654900 0.43648400 1.83279500
16 -1.40591800 -0.00002500 -0.00000300 0.01654100 -0.02437900 0.27905000
17 -1.17535800 0.00012800 -0.00002000 0.04192500 0.05340800 0.56994100
18 -4.52675100 -0.69057500 -1.12074400 -0.72962200 0.30057900 1.83127300
19 -1.74403800 0.00003300 -0.00000800 -0.00916900 -0.02809900 0.72431900
20 -1.36877100 0.00002500 0.00000200 -0.22704800 0.07843600 0.24818000
21 -1.88343531 -1.05062831 1.01560831 1.80053500 0.81547000 0.79478100
22 -1.52345300 0.00003200 0.00003100 0.10575300 0.13820400 0.75781300
23 -1.59928500 0.00000400 0.00001600 0.02972300 -0.03090300 0.78512800
24 5.58312524 0.11572500 0.29499907 1.94756400 -0.06728900 3.12123600
25 0.19684700 -0.00000100 0.00000300 2.79340678 -0.00112253 -3.14127932
26 -6.75734762 -16.78264981 -3.28588317 1.97586200 1.15990900 1.84280300
27 6.21448500 0.00000600 0.00002000 -0.84644483 0.29807627 -1.86560089
28 11.94488500 -0.00002900 -0.00019400 -1.02899399 -0.36258013 -1.53381446
29 10.62016600 0.00000200 0.00001000 -1.59492704 -1.23090837 -0.21661107
30 4.75115600 0.69437600 -0.83047300 -0.04011400 -0.39343000 0.44209000
31 1.68806500 -0.00002600 0.00000200 0.00655000 -0.02383700 1.17288700
32 1.33615100 -0.00005100 -0.00000900 -0.00361300 -0.03853400 0.46443400
33 4.82051300 0.50934000 0.22486500 -0.26906700 -0.24688300 0.94826600
34 1.82699600 0.00006600 0.00000800 0.00391000 0.04027600 1.36954700
35 1.43657700 -0.00001000 0.00000700 0.01198700 -0.00925200 -0.07042800
36 3.99235300 0.89108700 1.82799400 -0.73824000 -0.03341000 1.36353200
37 1.40591800 0.00002100 -0.00000700 -0.01421100 -0.02586600 1.37541000
38 1.17536900 -0.00013100 0.00000200 -0.07487300 0.09798600 -0.69969900
39 4.52675600 0.69046000 1.12084200 -0.60000400 -0.20424300 1.21618000
40 1.74404100 -0.00003100 -0.00000200 -0.02639200 -0.01328600 1.51729600
41 1.36876300 -0.00003100 -0.00001700 -0.07136400 0.14179300 -0.65392900
42 2.10920238 1.21154169 -0.81156700 1.73775900 0.59816000 0.52044500
43 1.58979593 -0.07374600 -0.14512631 0.06231400 -0.06828400 0.17604200
44 1.59179176 -0.07172300 0.01248569 0.04075900 0.07287200 -0.23380900
45 5.51180600 -0.00000200 0.00000600 -0.99849200 0.00000000 0.00000000
46 0.19685000 0.00000300 -0.00000200 -0.34822500 0.00001500 -0.00000200
47 0.00000000 1.00000000 0.00000000 0.00000000 0.00000000 -1.57079600
48 -3.49904400 4.22869200 -3.70908300 0.00000000 0.00000000 -3.14156200
49 -9.57780744 24.91415000 -1.87085594 0.50507820 0.18867056 -0.60953756
50 7.48540600 -0.00328400 -0.96348600 0.00000000 0.00000000 0.00000000
51 3.10496300 -0.01325200 0.71049500 0.00000000 0.00000000 0.00000000
52 15.09164538 1.71962893 -0.79398900 -0.43170800 0.95274300 1.24492200
53 -0.52056962 -2.18657707 -2.07332200 -2.91665300 1.07770600 -1.95945200
54 5.40893900 -0.00328400 -0.77842700 0.00000000 0.00000000 0.00000000
55 -0.00090600 0.00385100 0.00120200 0.00000000 0.00000000 0.00000000
56 0.10260138 0.03962731 -0.43449762 0.00000000 0.00000000 0.00000000
time 12
0 -0.00000100 8.45008800 -27.50902600 0.00000000 0.00000000 0.00003100
1 -0.00000200 0.00000000 0.00000000 1.57074300 -1.56713700 -1.57074300
2 4.25546800 -0.33518300 -0.00000200 0.00000000 0.00000000 -0.12484800
3 7.43124800 1.49647700 0.00000200 0.00000000 0.00000000 0.24545000
4 5.27847900 0.16554100 0.00000100 0.00000000 0.00000000 0.04851100
5 1.94969814 -9.02074314 7.09689933 1.97586400 1.15990900 -1.29878600
6 -6.21448200 -0.00000700 -0.00002700 -2.92701961 -0.48715198 1.42542178
7 11.94488200 0.00000000 0.00000100 -0.14539847 -0.31201640 1.34083405
8 10.62018100 0.00000200 0.00000000 1.24837158 -0.33989768 2.90020476
9 -4.75110600 -0.69449400 0.83057700 -0.25556500 -0.11654400 0.31276700
10 -1.68806800 0.00004600 -0.00003200 0.02287100 -0.00946300 0.26249200
11 -1.33614000 0.00005700 -0.00001200 0.02592200 0.00450900 0.38004900
12 -4.82049400 -0.50946000 -0.22475900 -0.63897000 -0.03508400 1.44561600
13 -1.82699200 -0.00006400 0.00000600 -0.00312000 0.04035500 1.19586400
14 -1.43657300 0.00000600 0.00000200 -0.03550000 -0.06921100 0.38279700
15 -3.99235500 -0.89118800 -1.82790900 -0.82654900 0.43648400 1.83279500
16 -1.40591800 -0.00002500 -0.00000300 0.01654100 -0.02437900 0.27905000
17 -1.17535800 0.00012800 -0.00002000 0.04192500 0.05340800 0.56994100
18 -4.52675100 -0.69057500 -1.12074400 -0.72962200 0.30057900 1.83127300
19 -1.74403800 0.00003300 -0.00000800 -0.00916900 -0.02809900 0.72431900
20 -1.36877100 0.00002500 0.00000200 -0.22704800 0.07843600 0.24818000
21 -1.88343531 -1.05062831 1.01560831 1.80053500 0.81547000 0.79478100
22 -1.52345300 0.00003200 0.00003100 0.10575300 0.13820400 0.75781300
23 -1.59928500 0.00000400 0.00001600 0.02972300 -0.03090300 0.78512800
24 5.58312524 0.11572500 0.29499907 1.94756400 -0.06728900 3.12123600
25 0.19684700 -0.00000100 0.00000300 2.79340678 -0.00112253 -3.14127932
26 -6.64348074 -16.82871861 -3.24211937 1.97586200 1.15990900 1.84280300
27 6.21448500 0.00000600 0.00002000 -0.84532759 0.29743937 -1.87923287
28 11.94488500 -0.00002900 -0.00019400 -1.03200266 -0.36205341 -1.52550973
29 10.62016600 0.00000200 0.00001000 -1.58121187 -1.22177501 -0.23641085
30 4.75115600 0.69437600 -0.83047300 -0.04011400 -0.39343000 0.44209000
31 1.68806500 -0.00002600 0.00000200 0.00655000 -0.02383700 1.17288700
32 1.33615100 -0.00005100 -0.00000900 -0.00361300 -0.03853400 0.46443400
33 4.82051300 0.50934000 0.22486500 -0.26906700 -0.24688300 0.94826600
34 1.82699600 0.00006600 0.00000800 0.00391000 0.04027600 1.36954700
35 1.43657700 -0.00001000 0.00000700 0.01198700 -0.00925200 -0.07042800
36 3.99235300 0.89108700 1.82799400 -0.73824000 -0.03341000 1.36353200
37 1.40591800 0.00002100 -0.00000700 -0.01421100 -0.02586600 1.37541000
38 1.17536900 -0.00013100 0.00000200 -0.07487300 0.09798600 -0.69969900
39 4.52675600 0.69046000 1.12084200 -0.60000400 -0.20424300 1.21618000
40 1.74404100 -0.00003100 -0.00000200 -0.02639200 -0.01328600 1.51729600
41 1.36876300 -0.00003100 -0.00001700 -0.07136400 0.14179300 -0.65392900
42 2.10920238 1.21154169 -0.81156700 1.73775900 0.59816000 0.52044500
43 1.58979593 -0.07374600 -0.14512631 0.06231400 -0.06828400 0.17604200
44 1.59179176 -0.07172300 0.01248569 0.04075900 0.07287200 -0.23380900
45 5.51180600 -0.00000200 0.00000600 -0.99849200 0.00000000 0.00000000
46 0.19685000 0.00000300 -0.00000200 -0.34822500 0.00001500 -0.00000200
47 0.00000000 1.00000000 0.00000000 0.00000000 0.00000000 -1.57079600
48 -3.49904400 4.22869200 -3.70908300 0.00000000 0.00000000 -3.14156200
49 -9.31300931 24.94924477 -1.74019278 0.50905607 0.19455488 -0.61640906
50 7.48540600 -0.00328400 -0.96348600 0.00000000 0.00000000 0.00000000
51 3.10496300 -0.01325200 0.71049500 0.00000000 0.00000000 0.00000000
52 15.09164538 1.71962893 -0.79398900 -0.43170800 0.95274300 1.24492200
53 -0.52056962 -2.18657707 -2.07332200 -2.91665300 1.07770600 -1.95945200
54 5.40893900 -0.00328400 -0.77842700 0.00000000 0.00000000 0.00000000
55 -0.00090600 0.00385100 0.00120200 0.00000000 0.00000000 0.00000000
56 0.10260138 0.03962731 -0.43449762 0.00000000 0.00000000 0.00000000
time 13
0 -0.00000100 8.45008800 -27.50902600 0.00000000 0.00000000 0.00003100
1 -0.00000200 0.00000000 0.00000000 1.57074300 -1.56713700 -1.57074300
2 4.25546800 -0.33518300 -0.00000200 0.00000000 0.00000000 -0.12484800
3 7.43124800 1.49647700 0.00000200 0.00000000 0.00000000 0.24545000
4 5.27847900 0.16554100 0.00000100 0.00000000 0.00000000 0.04851100
5 1.94969814 -9.02074314 7.09689933 1.97586400 1.15990900 -1.29878600
6 -6.21448200 -0.00000700 -0.00002700 -2.92747817 -0.48809517 1.43476759
7 11.94488200 0.00000000 0.00000100 -0.15363188 -0.32643744 1.36426548
8 10.62018100 0.00000200 0.00000000 1.25072809 -0.34762092 2.88232241
9 -4.75110600 -0.69449400 0.83057700 -0.25556500 -0.11654400 0.31276700
10 -1.68806800 0.00004600 -0.00003200 0.02287100 -0.00946300 0.26249200
11 -1.33614000 0.00005700 -0.00001200 0.02592200 0.00450900 0.38004900
12 -4.82049400 -0.50946000 -0.22475900 -0.63897000 -0.03508400 1.44561600
13 -1.82699200 -0.00006400 0.00000600 -0.00312000 0.04035500 1.19586400
14 -1.43657300 0.00000600 0.00000200 -0.03550000 -0.06921100 0.38279700
15 -3.99235500 -0.89118800 -1.82790900 -0.82654900 0.43648400 1.83279500
16 -1.40591800 -0.00002500 -0.00000300 0.01654100 -0.02437900 0.27905000
17 -1.17535800 0.00012800 -0.00002000 0.04192500 0.05340800 0.56994100
18 -4.52675100 -0.69057500 -1.12074400 -0.72962200 0.30057900 1.83127300
19 -1.74403800 0.00003300 -0.00000800 -0.00916900 -0.02809900 0.72431900
20 -1.36877100 0.00002500 0.00000200 -0.22704800 0.07843600 0.24818000
21 -1.88343531 -1.05062831 1.01560831 1.80053500 0.81547000 0.79478100
22 -1.52345300 0.00003200 0.00003100 0.10575300 0.13820400 0.75781300
23 -1.59928500 0.00000400 0.00001600 0.02972300 -0.03090300 0.78512800
24 5.58312524 0.11572500 0.29499907 1.94756400 -0.06728900 3.12123600
25 0.19684700 -0.00000100 0.00000300 2.79340678 -0.00112253 -3.14127932
26 -6.55512758 -16.86446417 -3.20816130 1.97586200 1.15990900 1.84280300
27 6.21448500 0.00000600 0.00002000 -0.84807513 0.27966114 -1.89715307
28 11.94488500 -0.00002900 -0.00019400 -1.03917908 -0.35933297 -1.50467660
29 10.62016600 0.00000200 0.00001000 -1.57940268 -1.21643179 -0.23521228
30 4.75115600 0.69437600 -0.83047300 -0.04011400 -0.39343000 0.44209000
31 1.68806500 -0.00002600 0.00000200 0.00655000 -0.02383700 1.17288700
32 1.33615100 -0.00005100 -0.00000900 -0.00361300 -0.03853400 0.46443400
33 4.82051300 0.50934000 0.22486500 -0.26906700 -0.24688300 0.94826600
34 1.82699600 0.00006600 0.00000800 0.00391000 0.04027600 1.36954700
35 1.43657700 -0.00001000 0.00000700 0.01198700 -0.00925200 -0.07042800
36 3.99235300 0.89108700 1.82799400 -0.73824000 -0.03341000 1.36353200
37 1.40591800 0.00002100 -0.00000700 -0.01421100 -0.02586600 1.37541000
38 1.17536900 -0.00013100 0.00000200 -0.07487300 0.09798600 -0.69969900
39 4.52675600 0.69046000 1.12084200 -0.60000400 -0.20424300 1.21618000
40 1.74404100 -0.00003100 -0.00000200 -0.02639200 -0.01328600 1.51729600
41 1.36876300 -0.00003100 -0.00001700 -0.07136400 0.14179300 -0.65392900
42 2.10920238 1.21154169 -0.81156700 1.73775900 0.59816000 0.52044500
43 1.58979593 -0.07374600 -0.14512631 0.06231400 -0.06828400 0.17604200
44 1.59179176 -0.07172300 0.01248569 0.04075900 0.07287200 -0.23380900
45 5.51180600 -0.00000200 0.00000600 -0.99849200 0.00000000 0.00000000
46 0.19685000 0.00000300 -0.00000200 -0.34822500 0.00001500 -0.00000200
47 0.00000000 1.00000000 0.00000000 0.00000000 0.00000000 -1.57079600
48 -3.49904400 4.22869200 -3.70908300 0.00000000 0.00000000 -3.14156200
49 -9.03626649 24.96792143 -1.42196884 0.50796370 0.20307107 -0.62766618
50 7.48540600 -0.00328400 -0.96348600 0.00000000 0.00000000 0.00000000
51 3.10496300 -0.01325200 0.71049500 0.00000000 0.00000000 0.00000000
52 15.09164538 1.71962893 -0.79398900 -0.43170800 0.95274300 1.24492200
53 -0.52056962 -2.18657707 -2.07332200 -2.91665300 1.07770600 -1.95945200
54 5.40893900 -0.00328400 -0.77842700 0.00000000 0.00000000 0.00000000
55 -0.00090600 0.00385100 0.00120200 0.00000000 0.00000000 0.00000000
56 0.10260138 0.03962731 -0.43449762 0.00000000 0.00000000 0.00000000
time 14
0 -0.00000100 8.45008800 -27.50902600 0.00000000 0.00000000 0.00003100
1 -0.00000200 0.00000000 0.00000000 1.57074300 -1.56713700 -1.57074300
2 4.25546800 -0.33518300 -0.00000200 0.00000000 0.00000000 -0.12484800
3 7.43124800 1.49647700 0.00000200 0.00000000 0.00000000 0.24545000
4 5.27847900 0.16554100 0.00000100 0.00000000 0.00000000 0.04851100
5 1.94969814 -9.02074314 7.09689933 1.97586400 1.15990900 -1.29878600
6 -6.21448200 -0.00000700 -0.00002700 -2.92891273 -0.49136409 1.45214191
7 11.94488200 0.00000000 0.00000100 -0.15663217 -0.33206742 1.37297577
8 10.62018100 0.00000200 0.00000000 1.24618027 -0.34669951 2.89785387
9 -4.75110600 -0.69449400 0.83057700 -0.25556500 -0.11654400 0.31276700
10 -1.68806800 0.00004600 -0.00003200 0.02287100 -0.00946300 0.26249200
11 -1.33614000 0.00005700 -0.00001200 0.02592200 0.00450900 0.38004900
12 -4.82049400 -0.50946000 -0.22475900 -0.63897000 -0.03508400 1.44561600
13 -1.82699200 -0.00006400 0.00000600 -0.00312000 0.04035500 1.19586400
14 -1.43657300 0.00000600 0.00000200 -0.03550000 -0.06921100 0.38279700
15 -3.99235500 -0.89118800 -1.82790900 -0.82654900 0.43648400 1.83279500
16 -1.40591800 -0.00002500 -0.00000300 0.01654100 -0.02437900 0.27905000
17 -1.17535800 0.00012800 -0.00002000 0.04192500 0.05340800 0.56994100
18 -4.52675100 -0.69057500 -1.12074400 -0.72962200 0.30057900 1.83127300
19 -1.74403800 0.00003300 -0.00000800 -0.00916900 -0.02809900 0.72431900
20 -1.36877100 0.00002500 0.00000200 -0.22704800 0.07843600 0.24818000
21 -1.88343531 -1.05062831 1.01560831 1.80053500 0.81547000 0.79478100
22 -1.52345300 0.00003200 0.00003100 0.10575300 0.13820400 0.75781300
23 -1.59928500 0.00000400 0.00001600 0.02972300 -0.03090300 0.78512800
24 5.58312524 0.11572500 0.29499907 1.94756400 -0.06728900 3.12123600
25 0.19684700 -0.00000100 0.00000300 2.79340678 -0.00112253 -3.14127932
26 -6.49795768 -16.88759417 -3.18618906 1.97586200 1.15990900 1.84280300
27 6.21448500 0.00000600 0.00002000 -0.84711067 0.26858401 -1.91496392
28 11.94488500 -0.00002900 -0.00019400 -1.04479022 -0.35709720 -1.48829171
29 10.62016600 0.00000200 0.00001000 -1.54305803 -1.20543062 -0.27145467
30 4.75115600 0.69437600 -0.83047300 -0.04011400 -0.39343000 0.44209000
31 1.68806500 -0.00002600 0.00000200 0.00655000 -0.02383700 1.17288700
32 1.33615100 -0.00005100 -0.00000900 -0.00361300 -0.03853400 0.46443400
33 4.82051300 0.50934000 0.22486500 -0.26906700 -0.24688300 0.94826600
34 1.82699600 0.00006600 0.00000800 0.00391000 0.04027600 1.36954700
35 1.43657700 -0.00001000 0.00000700 0.01198700 -0.00925200 -0.07042800
36 3.99235300 0.89108700 1.82799400 -0.73824000 -0.03341000 1.36353200
37 1.40591800 0.00002100 -0.00000700 -0.01421100 -0.02586600 1.37541000
38 1.17536900 -0.00013100 0.00000200 -0.07487300 0.09798600 -0.69969900
39 4.52675600 0.69046000 1.12084200 -0.60000400 -0.20424300 1.21618000
40 1.74404100 -0.00003100 -0.00000200 -0.02639200 -0.01328600 1.51729600
41 1.36876300 -0.00003100 -0.00001700 -0.07136400 0.14179300 -0.65392900
42 2.10920238 1.21154169 -0.81156700 1.73775900 0.59816000 0.52044500
43 1.58979593 -0.07374600 -0.14512631 0.06231400 -0.06828400 0.17604200
44 1.59179176 -0.07172300 0.01248569 0.04075900 0.07287200 -0.23380900
45 5.51180600 -0.00000200 0.00000600 -0.99849200 0.00000000 0.00000000
46 0.19685000 0.00000300 -0.00000200 -0.34822500 0.00001500 -0.00000200
47 0.00000000 1.00000000 0.00000000 0.00000000 0.00000000 -1.57079600
48 -3.49904400 4.22869200 -3.70908300 0.00000000 0.00000000 -3.14156200
49 -8.71659958 24.97683497 -1.23041261 0.50889130 0.21701630 -0.62869454
50 7.48540600 -0.00328400 -0.96348600 0.00000000 0.00000000 0.00000000
51 3.10496300 -0.01325200 0.71049500 0.00000000 0.00000000 0.00000000
52 15.09164538 1.71962893 -0.79398900 -0.43170800 0.95274300 1.24492200
53 -0.52056962 -2.18657707 -2.07332200 -2.91665300 1.07770600 -1.95945200
54 5.40893900 -0.00328400 -0.77842700 0.00000000 0.00000000 0.00000000
55 -0.00090600 0.00385100 0.00120200 0.00000000 0.00000000 0.00000000
56 0.10260138 0.03962731 -0.43449762 0.00000000 0.00000000 0.00000000
time 15
0 -0.00000100 8.45008800 -27.50902600 0.00000000 0.00000000 0.00003100
1 -0.00000200 0.00000000 0.00000000 1.57074300 -1.56713700 -1.57074300
2 4.25546800 -0.33518300 -0.00000200 0.00000000 0.00000000 -0.12484800
3 7.43124800 1.49647700 0.00000200 0.00000000 0.00000000 0.24545000
4 5.27847900 0.16554100 0.00000100 0.00000000 0.00000000 0.04851100
5 1.94969814 -9.02074314 7.09689933 1.97586400 1.15990900 -1.29878600
6 -6.21448200 -0.00000700 -0.00002700 -2.93841371 -0.50021593 1.48316871
7 11.94488200 0.00000000 0.00000100 -0.15231753 -0.32653010 1.36116483
8 10.62018100 0.00000200 0.00000000 1.23860317 -0.32429916 2.96157308
9 -4.75110600 -0.69449400 0.83057700 -0.25556500 -0.11654400 0.31276700
10 -1.68806800 0.00004600 -0.00003200 0.02287100 -0.00946300 0.26249200
11 -1.33614000 0.00005700 -0.00001200 0.02592200 0.00450900 0.38004900
12 -4.82049400 -0.50946000 -0.22475900 -0.63897000 -0.03508400 1.44561600
13 -1.82699200 -0.00006400 0.00000600 -0.00312000 0.04035500 1.19586400
14 -1.43657300 0.00000600 0.00000200 -0.03550000 -0.06921100 0.38279700
15 -3.99235500 -0.89118800 -1.82790900 -0.82654900 0.43648400 1.83279500
16 -1.40591800 -0.00002500 -0.00000300 0.01654100 -0.02437900 0.27905000
17 -1.17535800 0.00012800 -0.00002000 0.04192500 0.05340800 0.56994100
18 -4.52675100 -0.69057500 -1.12074400 -0.72962200 0.30057900 1.83127300
19 -1.74403800 0.00003300 -0.00000800 -0.00916900 -0.02809900 0.72431900
20 -1.36877100 0.00002500 0.00000200 -0.22704800 0.07843600 0.24818000
21 -1.88343600 -1.05062900 1.01560900 1.80053500 0.81547000 0.79478100
22 -1.52345300 0.00003200 0.00003100 0.10575300 0.13820400 0.75781300
23 -1.59928500 0.00000400 0.00001600 0.02972300 -0.03090300 0.78512800
24 5.58312800 0.11572500 0.29499700 1.94756400 -0.06728900 3.12123600
25 0.19684700 -0.00000100 0.00000300 2.79340678 -0.00112253 -3.14127932
26 -6.47764091 -16.89581478 -3.17838093 1.97586200 1.15990900 1.84280300
27 6.21448500 0.00000600 0.00002000 -0.83948834 0.27190463 -1.93292386
28 11.94488500 -0.00002900 -0.00019400 -1.04806853 -0.35731912 -1.47870413
29 10.62016600 0.00000200 0.00001000 -1.47394393 -1.17645557 -0.35276500
30 4.75115600 0.69437600 -0.83047300 -0.04011400 -0.39343000 0.44209000
31 1.68806500 -0.00002600 0.00000200 0.00655000 -0.02383700 1.17288700
32 1.33615100 -0.00005100 -0.00000900 -0.00361300 -0.03853400 0.46443400
33 4.82051300 0.50934000 0.22486500 -0.26906700 -0.24688300 0.94826600
34 1.82699600 0.00006600 0.00000800 0.00391000 0.04027600 1.36954700
35 1.43657700 -0.00001000 0.00000700 0.01198700 -0.00925200 -0.07042800
36 3.99235300 0.89108700 1.82799400 -0.73824000 -0.03341000 1.36353200
37 1.40591800 0.00002100 -0.00000700 -0.01421100 -0.02586600 1.37541000
38 1.17536900 -0.00013100 0.00000200 -0.07487300 0.09798600 -0.69969900
39 4.52675600 0.69046000 1.12084200 -0.60000400 -0.20424300 1.21618000
40 1.74404100 -0.00003100 -0.00000200 -0.02639200 -0.01328600 1.51729600
41 1.36876300 -0.00003100 -0.00001700 -0.07136400 0.14179300 -0.65392900
42 2.10920100 1.21154100 -0.81156700 1.73775900 0.59816000 0.52044500
43 1.58979800 -0.07374600 -0.14512700 0.06231400 -0.06828400 0.17604200
44 1.59178900 -0.07172300 0.01248500 0.04075900 0.07287200 -0.23380900
45 5.51180600 -0.00000200 0.00000600 -0.99849200 0.00000000 0.00000000
46 0.19685000 0.00000300 -0.00000200 -0.34822500 0.00001500 -0.00000200
47 0.00000000 1.00000000 0.00000000 0.00000000 0.00000000 -1.57079600
48 -3.49904400 4.22869200 -3.70908300 0.00000000 0.00000000 -3.14156200
49 -8.32757002 24.97933521 -1.27724293 0.52075523 0.24045569 -0.61657610
50 7.48540600 -0.00328400 -0.96348600 0.00000000 0.00000000 0.00000000
51 3.10496300 -0.01325200 0.71049500 0.00000000 0.00000000 0.00000000
52 15.09164400 1.71963100 -0.79398900 -0.43170800 0.95274300 1.24492200
53 -0.52057100 -2.18657500 -2.07332200 -2.91665300 1.07770600 -1.95945200
54 5.40893900 -0.00328400 -0.77842700 0.00000000 0.00000000 0.00000000
55 -0.00090600 0.00385100 0.00120200 0.00000000 0.00000000 0.00000000
56 0.10260000 0.03962800 -0.43449900 0.00000000 0.00000000 0.00000000
end
