<?xml version="1.0" encoding="utf-8"?>
<!-- Generator: Adobe Illustrator 16.0.0, SVG Export Plug-In . SVG Version: 6.00 Build 0)  -->
<!DOCTYPE svg PUBLIC "-//W3C//DTD SVG 1.1//EN" "http://www.w3.org/Graphics/SVG/1.1/DTD/svg11.dtd">
<svg version="1.1"
	 id="svg8" xmlns:dc="http://purl.org/dc/elements/1.1/" xmlns:cc="http://creativecommons.org/ns#" xmlns:rdf="http://www.w3.org/1999/02/22-rdf-syntax-ns#" xmlns:svg="http://www.w3.org/2000/svg" xmlns:sodipodi="http://sodipodi.sourceforge.net/DTD/sodipodi-0.dtd" xmlns:inkscape="http://www.inkscape.org/namespaces/inkscape" sodipodi:docname="weapon_t223.svg" inkscape:version="1.0.2-2 (e86c870879, 2021-01-15)"
	 xmlns="http://www.w3.org/2000/svg" xmlns:xlink="http://www.w3.org/1999/xlink" x="0px" y="0px" width="1202.352px"
	 height="392.028px" viewBox="0 0 1202.352 392.028" enable-background="new 0 0 1202.352 392.028" xml:space="preserve">
<path id="path1241_1_" sodipodi:nodetypes="caccazc" fill="#FFFFFF" d="M557.933,169.759c0,0,12.736,65.069,21.618,96.975
	c5.909,21.228,45.849,124.21,45.849,124.21l75.61-26.282c0,0-40.425-106.892-47.264-129.87c-5.104-17.145-10.73-35.66-13.863-51.844
	s-9.26-43.275-9.26-43.275"/>
<path fill="#FFFFFF" d="M1197.653,65.195h-11.892c5.314,0.475,9.163,1.866,9.163,3.509c0,2.035-5.901,3.685-13.182,3.685
	c-7.279,0-13.181-1.649-13.181-3.685c0-1.643,3.849-3.034,9.162-3.509h-29.676l-1.986,1.348l-2.692-1.348h-4.251l-1.986,1.348
	l-1.699-1.348h-7.37l-2.338,5.314l-0.177-1.168h-94.494l0.292,21.949h94.734l0.495-1.222l1.488,3.562h6.095l2.268-1.436l1.842,1.436
	h5.314l2.41-1.436l2.269,1.436h49.392C1205.305,76.25,1197.653,65.195,1197.653,65.195z M1182.06,85.781
	c-7.279,0-13.181-1.65-13.181-3.686c0-2.034,5.901-3.685,13.181-3.685c7.28,0,13.182,1.65,13.182,3.685
	C1195.241,84.13,1189.34,85.781,1182.06,85.781z"/>
<path id="path1103-9_1_" sodipodi:nodetypes="csssc" fill="#FFFFFF" d="M516.248,159.772c0,0-3.204,23.554-9.068,33.711
	c-2.44,4.227-5.844,8.484-10.352,10.352c-12.486,0.707-28.321,0.621-43.791,0c-7.57-2.028-21.279-12.498-21.279-12.498l-0.285,5.555
	c0,0,13.023,9.904,20.731,11.97c15.555,1.204,31.972,1.204,46.31,0c5.495-2.276,9.645-7.467,12.618-12.619
	c6.413-11.106,9.958-36.505,9.958-36.505L516.248,159.772z"/>
<path id="path1105_1_" fill="#FFFFFF" d="M453.849,160.501c0,0-1.024,3.508,0.66,13.957s10.682,17.904,10.682,17.904l5.619,4.708
	h2.365c0,0-7.167-17.876-7.667-24.042s0.998-12.532,0.998-12.532"/>
<polyline fill="#FFFFFF" points="538.027,159.772 533.427,186.173 538.802,186.903 543.677,159.594 "/>
<path id="path1068_1_" fill="#FFFFFF" d="M1031.078,41.427V26.114l1.14-2.916V9.811l-2.637-3.689h-13.065l-2.637,3.689v13.387
	l1.635,2.832v15.155"/>
<path fill="#FFFFFF" d="M1031.322,61.724v18.452v19.588h-18.473l-1.473,1.459l-2.399,1.136l-304.221,4.813l-67.032-0.516
	l-4.063,31.27l-79.484,33.058l-3.169-11.39h-10.394l-95.089,0.694l-2.917,8.266c0,0-7.294,8.484-9.237,13.611
	c-1.754,4.629-1.897,14.727-1.897,14.727l-36.095,60.156c-2.402,5.951,1.898,13.023,0.345,19.25
	c-0.286,1.145-0.729,2.453-1.719,3.094c-2.318,1.498-5.514,1.041-8.25,0.688c-7.836-1.012-15.248-4.432-22.345-7.906
	c-6.479-3.172-18.219-11.688-18.219-11.688s-12.2-7.463-13.406-13.75c-1.799-9.383,6.51-18.035,11-26.469
	c4.586-8.611,9.983-16.852,16.156-24.406c5.024-6.148,11.895-10.635,16.844-16.844c3.627-4.549,6.912-9.469,9.281-14.782
	c1.02-2.285,1.716-4.74,2.063-7.219c0.223-1.589,0.429-3.267,0-4.813c-0.713-2.575-2.332-4.893-4.124-6.875
	c-5.273-5.829-18.907-14.094-18.907-14.094l-5.546-8.379l-3.458,0.06l-88.964,2.131c0,0-128.444,55.429-194.563,78.032
	c-15.106,5.164-46.063,13.115-46.063,13.115s-8.298,1.404-11.911-0.242c-2.087-0.953-4.618-5.105-4.618-5.105
	c2.283-41.729,2.404-83.693-7.188-126.706c0,0-1.447-7.851,0-11.344c0.62-1.497,1.929-2.845,3.438-3.438
	c2.987-1.176,9.625,0.344,9.625,0.344l81.125,0.688l102.438-2.75l50.875-0.688l5.917-1.462l32.328-17.744l31.842-19.688l3.403-2.188
	l36.946-0.243l5.104,4.618l43.023-0.486l5.591-3.646l327.9,7.293l271.752,8.021h17.986l2.796,2.796h5.969v15.305h-5.969
	L1031.322,61.724z"/>
<g>
	<path fill="#FFFFFF" d="M388.558,0.445l20.556,4.833l-3.25,13.823l2,0.751v10.031h-43.363l-0.149-16.802
		c0-5.293,4.291-9.583,9.583-9.583c11.792,0,11.792,0,9.583,9.583l1.958,0.474L388.558,0.445z"/>
</g>
<sodipodi:namedview  fit-margin-left="0" fit-margin-top="0" showgrid="false" inkscape:cy="0.93166035" inkscape:cx="718.70978" inkscape:zoom="0.42081349" borderopacity="1.0" bordercolor="#666666" pagecolor="#ffffff" id="base" inkscape:window-x="-8" inkscape:window-height="1017" inkscape:window-width="1920" inkscape:pagecheckerboard="true" fit-margin-bottom="0" fit-margin-right="0" inkscape:current-layer="layer1" inkscape:pageshadow="2" inkscape:document-units="mm" inkscape:pageopacity="0.0" inkscape:document-rotation="0" inkscape:window-maximized="1" inkscape:window-y="-8">
	</sodipodi:namedview>
<path id="path847" sodipodi:nodetypes="ccccccccccccccssccscscsccscccsssssssscsssssssssscsccccssccccssssssscccc" fill="none" stroke="#000000" stroke-width="3" d="
	M540.614,159.594c0,0,3.184-2.635,3.953-4.469c0.935-2.224,1.038-4.863,0.517-7.219c-0.256-1.151-1.719-3.094-1.719-3.094
	l-7.734-3.609l-9.453-4.813l-0.172-15.469c0,0,3.92-0.093,5.672-0.859c1.68-0.735,3.05-2.092,4.297-3.438
	c1.036-1.119,2.128-2.323,2.578-3.781c0.422-1.369,0.244-2.886,0-4.297c-0.291-1.679-0.664-3.475-1.719-4.813
	c-1.102-1.398-2.299-2.666-3.846-3.545c-2.295-1.305-5.097-2.839-7.736-2.856c-48.002-0.313-147.747,0.558-147.747,0.558
	l-3.442,1.873h-15.511v23.092l5.546,8.379c0,0,13.634,8.265,18.907,14.094c1.792,1.982,3.411,4.3,4.124,6.875
	c0.429,1.546,0.223,3.224,0,4.813c-0.347,2.479-1.043,4.934-2.063,7.219c-2.369,5.313-5.654,10.232-9.281,14.781
	c-4.949,6.209-11.819,10.695-16.844,16.844c-6.173,7.556-11.57,15.795-16.156,24.407c-4.49,8.433-12.799,17.085-11,26.469
	c1.206,6.286,13.406,13.75,13.406,13.75s11.739,8.515,18.219,11.688c7.097,3.474,14.509,6.894,22.345,7.906
	c2.736,0.354,5.932,0.81,8.25-0.688c0.99-0.641,1.433-1.949,1.719-3.094c1.554-6.227-2.747-13.3-0.345-19.25l36.095-60.157
	c0,0,0.144-10.098,1.897-14.727c1.943-5.127,9.237-13.611,9.237-13.611l2.917-8.265L540.614,159.594"/>
<path id="path849_1_" fill="none" stroke="#000000" stroke-width="2" d="M377.503,97.266V70.596h240.985l4.724,3.494v9.5
	l-5.224,3.014H377.647"/>
<path id="path853" sodipodi:nodetypes="csssssc" fill="none" stroke="#000000" stroke-width="3" d="M704.794,79.936
	c0.117,0.86,195.115-0.071,282.914-0.663c2.193-0.015,4.675,0.646,6.188,2.234c1.613,1.692,1.988,4.076,2.281,6.396
	c0.311,2.446,0.617,3.532-0.562,5.698c-0.707,1.299-2.131,2.585-3.609,2.578c-87.54-0.423-286.854-1.9-286.906-0.351"/>
<path id="path855" sodipodi:nodetypes="ccccc" fill="none" stroke="#000000" stroke-width="3" d="M704.756,107.173l-67.032-0.516
	V95.485h-101.75l-0.073,6.688"/>
<path id="path857" fill="none" stroke="#000000" stroke-width="2" d="M359.721,25.629v18.959l5.226,5.227H538.62"/>
<path id="path865_1_" fill="none" stroke="#000000" stroke-width="3" d="M1011.376,101.224l-2.399,1.136l-304.221,4.813
	l0.343-11.344l-3.781-3.781v-9.281l3.477-2.83l-0.158-24.653h304.915l3.055,2.995v19.625l2.32,2.273h16.396v19.588h-18.473
	L1011.376,101.224z"/>
<path id="path869" sodipodi:nodetypes="csssssssccc" fill="none" stroke="#000000" d="M520.876,145.705
	c0,0-54.256-25.211-82.158-33.787c-2.267-0.696-4.81,0.188-7.049,0.973c-3.292,1.152-6.457,2.953-8.993,5.348
	c-2.631,2.483-5.059,5.521-6.077,8.993c-0.958,3.267-1.017,7.047,0.243,10.209c1.253,3.145,4.179,5.401,6.806,7.535
	c2.621,2.129,5.509,4.159,8.751,5.104c5.916,1.726,18.473,0.729,18.473,0.729l69.762-1.216L520.876,145.705z"/>
<path id="path875" fill="none" stroke="#000000" stroke-width="3" d="M538.552,112.844l15.624,58.14l79.484-33.058l4.063-31.27"/>
<path id="path877_1_" fill="none" stroke="#000000" stroke-width="2" d="M560.051,158.153l63.887-27.032l1.506-27.218l-68.06,0.007
	L560.051,158.153z"/>
<circle id="circle250-07" fill="none" stroke="#000000" stroke-miterlimit="10" cx="434.352" cy="131.45" r="8.802"/>
<circle id="circle250-0" fill="none" stroke="#000000" stroke-miterlimit="10" cx="528.669" cy="110.18" r="5.219"/>
<circle id="circle250-0-1" fill="none" stroke="#000000" stroke-miterlimit="10" cx="535.63" cy="150.485" r="5.219"/>
<circle id="circle250-0-1-0" fill="none" stroke="#000000" stroke-miterlimit="10" cx="535.286" cy="129.344" r="5.219"/>
<circle id="circle250-0-1-2" fill="none" stroke="#000000" stroke-miterlimit="10" cx="160.161" cy="115.564" r="7.269"/>
<circle id="circle250-0-1-2-9" fill="none" stroke="#000000" stroke-miterlimit="10" cx="78.44" cy="127.454" r="7.269"/>
<path id="path1064" fill="none" stroke="#000000" stroke-width="2" d="M22.752,69.876l11.859,143.688"/>
<path id="path1068" fill="none" stroke="#000000" stroke-width="3" d="M1031.078,41.427V26.114l1.14-2.916V9.811l-2.637-3.689
	h-13.065l-2.637,3.689v13.387l1.635,2.832v15.155"/>
<circle id="circle250-0-4" fill="none" stroke="#000000" stroke-miterlimit="10" cx="339.612" cy="110.094" r="5.219"/>
<circle id="circle250-0-6" fill="none" stroke="#000000" stroke-miterlimit="10" cx="692.831" cy="96.626" r="5.219"/>
<path id="path1101-2" sodipodi:nodetypes="csssc" fill="none" stroke="#000000" stroke-width="3" d="M431.473,196.891
	c0,0,13.023,9.904,20.731,11.97c18.222,1.542,33.472,1.667,46.31,0c5.495-2.276,9.645-7.467,12.618-12.619
	c6.413-11.106,9.958-36.505,9.958-36.505"/>
<path id="path1103-9" sodipodi:nodetypes="csssc" fill="none" stroke="#000000" stroke-width="2" d="M431.758,191.337
	c0,0,13.709,10.47,21.279,12.498c16.889,0.943,30.139,0.943,43.791,0c4.508-1.867,7.911-6.125,10.352-10.352
	c5.864-10.157,9.068-33.711,9.068-33.711"/>
<path id="path1105_2_" fill="none" stroke="#000000" stroke-width="2" d="M453.849,160.501c0,0-1.024,3.508,0.66,13.957
	s10.682,17.904,10.682,17.904l5.619,4.708h2.365c0,0-7.167-17.876-7.667-24.042s0.998-12.532,0.998-12.532"/>
<path id="path1107-6" sodipodi:nodetypes="cssssssssssscc" fill="none" stroke="#000000" stroke-width="3" d="M445.524,160.289
	c0,0-10.735,0.722-15.884-0.529c-2.05-0.498-3.917-1.617-5.718-2.716c-4.556-2.78-9.338-5.595-12.723-9.722
	c-1.717-2.092-2.846-4.684-3.574-7.29c-0.721-2.58-0.646-5.327-0.714-8.006c-0.065-2.526-0.221-5.101,0.286-7.576
	c0.479-2.35,1.281-4.698,2.572-6.719c1.325-2.072,3.03-4.133,4.844-5.795c2.222-2.036,4.726-3.7,7.308-5.213
	c2.317-1.356,4.696-2.735,7.291-3.431c2.331-0.624,4.814-0.862,7.215-0.605c3.434,0.367,9.906,3.032,9.906,3.032l79.844,30.672"/>
<path id="path1241" sodipodi:nodetypes="caccazc" fill="none" stroke="#000000" stroke-width="3" d="M557.933,169.759
	c0,0,12.736,65.069,21.618,96.975c5.909,21.228,45.849,124.21,45.849,124.21l75.61-26.282c0,0-40.425-106.892-47.264-129.87
	c-5.104-17.145-10.73-35.66-13.863-51.844s-9.26-43.275-9.26-43.275"/>
<path id="path1243" fill="none" stroke="#000000" d="M621.187,376.749l76.051-24.302"/>
<path id="path1245" sodipodi:nodetypes="ccccssssssccc" fill="none" stroke="#000000" d="M628.592,374.244
	c0,0-12.569-37.466-25.916-75.466s-23.074-71.321-23.074-71.321l-9.098-33.762c0,0-0.612-2.504-0.404-3.74
	c0.104-0.624,0.432-1.209,0.809-1.719c0.297-0.402,0.681-0.755,1.111-1.011c0.705-0.419,1.513-0.695,2.325-0.809
	c0.568-0.079,1.173-0.075,1.719,0.102c0.418,0.135,0.812,0.386,1.111,0.707c0.577,0.617,1.213,2.224,1.213,2.224l1.921,6.065
	c10.317,39.078,28.451,100.066,57.225,175.872"/>
<path id="path1300" fill="none" stroke="#000000" d="M568.046,165.216l1.975,10.983l18.869-7.434l-1.57-11.566"/>
<path id="path1302" fill="none" stroke="#000000" d="M604.225,150.398l8.692,4.246l10.715-4.448l3.235-9.3"/>
<path id="path220-1" inkscape:connector-curvature="0" fill="none" stroke="#000000" stroke-width="3" stroke-miterlimit="10" d="
	M538.365,50.346c0,7.967,5.365,14.486,11.927,14.486h60.528c6.559,0,11.927-6.52,11.927-14.486s-5.368-14.483-11.927-14.483h-60.528
	C543.73,35.863,538.365,42.38,538.365,50.346z"/>
<path id="path1324" fill="none" stroke="#000000" stroke-width="3" d="M540.614,159.594h10.394"/>
<path id="path1860" fill="#FFFFFF" d="M0,0"/>
<path id="path1914" sodipodi:nodetypes="ccc" fill="none" stroke="#000000" d="M625.444,158.153l20.772,81.317l43.471,115.39"/>
<path id="path96" inkscape:connector-curvature="0" sodipodi:nodetypes="cccc" fill="none" stroke="#000000" stroke-width="3" stroke-miterlimit="10" d="
	M1031.054,69.202h94.494c0,0,5.421,9.992,0.532,21.949h-94.734"/>
<ellipse id="ellipse98" fill="none" stroke="#000000" stroke-width="2" stroke-miterlimit="10" cx="1182.06" cy="81.956" rx="13.181" ry="3.685"/>
<ellipse id="ellipse100" fill="none" stroke="#000000" stroke-width="2" stroke-miterlimit="10" cx="1181.742" cy="68.564" rx="13.181" ry="3.685"/>
<path id="path102" inkscape:connector-curvature="0" sodipodi:nodetypes="cccccccccccccccccc" fill="none" stroke="#000000" stroke-width="3" stroke-miterlimit="10" d="
	M1125.725,70.37l2.338-5.314h7.37l1.699,1.348l1.986-1.348h4.251l2.692,1.348l1.986-1.348h49.604c0,0,7.652,11.056,0,28.436h-49.392
	l-2.269-1.436l-2.41,1.436h-5.314l-1.842-1.436l-2.268,1.436h-6.095l-1.488-3.562"/>
<path id="path104" inkscape:connector-curvature="0" sodipodi:nodetypes="cc" fill="none" stroke="#000000" stroke-width="2" stroke-miterlimit="10" d="
	M1146.417,67.394c0,0,4.677,11.906-0.425,24.023"/>
<path id="path106" inkscape:connector-curvature="0" sodipodi:nodetypes="cc" fill="none" stroke="#000000" stroke-width="2" stroke-miterlimit="10" d="
	M1137.276,67.394c0,0,4.678,11.906-0.426,24.023"/>
<polyline fill="none" stroke="#000000" stroke-width="2" points="538.027,159.772 533.427,186.173 538.802,186.903 543.677,159.594 
	"/>
<path fill="none" stroke="#000000" stroke-width="2" d="M307.118,35.636c0,0-14.313,17.642,0.188,57.142v31.277"/>
<path fill="none" stroke="#000000" stroke-width="2" d="M377.503,82.028h-25.952c-2.313,0-4.188-1.875-4.188-4.188l0,0
	c0-2.313,1.875-4.188,4.188-4.188h25.952"/>
<polygon fill="none" stroke="#000000" stroke-linecap="round" stroke-linejoin="round" points="470.843,106.657 509.676,121.191 
	509.676,106.657 "/>
<line fill="none" stroke="#000000" x1="623.938" y1="131.619" x2="635.044" y2="127.776"/>
<path fill="none" stroke="#000000" d="M463.359,42.778c0,1.795-1.455,3.25-3.25,3.25h-22.507c-1.795,0-3.25-1.455-3.25-3.25l0,0
	c0-1.795,1.455-3.25,3.25-3.25h22.507C461.904,39.528,463.359,40.983,463.359,42.778L463.359,42.778z"/>
<path fill="none" stroke="#000000" d="M529.365,42.778c0,1.795-1.455,3.25-3.25,3.25h-22.507c-1.795,0-3.25-1.455-3.25-3.25l0,0
	c0-1.795,1.455-3.25,3.25-3.25h22.507C527.91,39.528,529.365,40.983,529.365,42.778L529.365,42.778z"/>
<path fill="none" stroke="#000000" d="M658.766,42.778c0,1.795-1.455,3.25-3.25,3.25h-22.507c-1.795,0-3.25-1.455-3.25-3.25l0,0
	c0-1.795,1.455-3.25,3.25-3.25h22.507C657.311,39.528,658.766,40.983,658.766,42.778L658.766,42.778z"/>
<circle id="circle250-0-6_1_" fill="none" stroke="#000000" stroke-miterlimit="10" cx="692.831" cy="42.778" r="5.219"/>
<polyline fill="none" stroke="#000000" stroke-width="2" points="622.255,53.891 704.093,54.695 704.794,32.594 "/>
<rect x="1033.874" y="44.223" fill="none" stroke="#000000" stroke-width="3" width="5.969" height="15.305"/>
<path fill="none" stroke="#000000" stroke-width="3" d="M1031.322,80.177V61.724l2.553-2.553V44.223l-2.796-2.796h-17.986
	L741.34,33.407l-327.9-7.293l-5.591,3.646l-43.023,0.486l-5.104-4.618l-36.946,0.243l-3.403,2.188L287.53,47.748l-32.328,17.744
	l-5.917,1.462l-50.875,0.688l-102.438,2.75l-81.125-0.688c0,0-6.638-1.52-9.625-0.344c-1.509,0.593-2.817,1.94-3.438,3.438
	c-1.447,3.493,0,11.344,0,11.344c9.593,43.013,9.472,84.977,7.188,126.706c0,0,2.531,4.152,4.618,5.104
	c3.613,1.647,11.911,0.243,11.911,0.243s30.957-7.951,46.063-13.115c66.119-22.604,194.563-78.032,194.563-78.032l88.964-2.131
	l0.875-0.06h7.271h1.562h30.895v-11.425"/>
<circle id="circle250-0-6_2_" fill="none" stroke="#000000" stroke-miterlimit="10" cx="1021.964" cy="64.833" r="5.219"/>
<g>
	<line fill="none" stroke="#000000" x1="714.845" y1="59.948" x2="711.011" y2="66.577"/>
	<line fill="none" stroke="#000000" x1="723.729" y1="59.948" x2="719.895" y2="66.577"/>
	<line fill="none" stroke="#000000" x1="732.613" y1="59.948" x2="728.779" y2="66.577"/>
	<line fill="none" stroke="#000000" x1="741.496" y1="59.948" x2="737.662" y2="66.577"/>
	<line fill="none" stroke="#000000" x1="750.38" y1="59.948" x2="746.546" y2="66.577"/>
	<line fill="none" stroke="#000000" x1="759.264" y1="59.948" x2="755.43" y2="66.577"/>
	<line fill="none" stroke="#000000" x1="768.148" y1="59.948" x2="764.314" y2="66.577"/>
	<line fill="none" stroke="#000000" x1="777.031" y1="59.948" x2="773.198" y2="66.577"/>
	<line fill="none" stroke="#000000" x1="785.915" y1="59.948" x2="782.081" y2="66.577"/>
	<line fill="none" stroke="#000000" x1="794.799" y1="59.948" x2="790.965" y2="66.577"/>
	<line fill="none" stroke="#000000" x1="803.683" y1="59.948" x2="799.849" y2="66.577"/>
	<line fill="none" stroke="#000000" x1="812.567" y1="59.948" x2="808.733" y2="66.577"/>
	<line fill="none" stroke="#000000" x1="821.45" y1="59.948" x2="817.616" y2="66.577"/>
	<line fill="none" stroke="#000000" x1="830.334" y1="59.948" x2="826.5" y2="66.577"/>
	<line fill="none" stroke="#000000" x1="839.218" y1="59.948" x2="835.384" y2="66.577"/>
	<line fill="none" stroke="#000000" x1="848.102" y1="59.948" x2="844.268" y2="66.577"/>
	<line fill="none" stroke="#000000" x1="856.986" y1="59.948" x2="853.152" y2="66.577"/>
	<line fill="none" stroke="#000000" x1="865.869" y1="59.948" x2="862.035" y2="66.577"/>
	<line fill="none" stroke="#000000" x1="874.753" y1="59.948" x2="870.919" y2="66.577"/>
	<line fill="none" stroke="#000000" x1="883.637" y1="59.948" x2="879.803" y2="66.577"/>
	<line fill="none" stroke="#000000" x1="892.521" y1="59.948" x2="888.687" y2="66.577"/>
	<line fill="none" stroke="#000000" x1="901.405" y1="59.948" x2="897.571" y2="66.577"/>
	<line fill="none" stroke="#000000" x1="910.288" y1="59.948" x2="906.454" y2="66.577"/>
	<line fill="none" stroke="#000000" x1="919.172" y1="59.948" x2="915.338" y2="66.577"/>
	<line fill="none" stroke="#000000" x1="928.056" y1="59.948" x2="924.222" y2="66.577"/>
	<line fill="none" stroke="#000000" x1="936.94" y1="59.948" x2="933.106" y2="66.577"/>
	<line fill="none" stroke="#000000" x1="945.823" y1="59.948" x2="941.99" y2="66.577"/>
	<line fill="none" stroke="#000000" x1="954.707" y1="59.948" x2="950.873" y2="66.577"/>
	<line fill="none" stroke="#000000" x1="963.591" y1="59.948" x2="959.757" y2="66.577"/>
	<line fill="none" stroke="#000000" x1="972.475" y1="59.948" x2="968.641" y2="66.577"/>
	<line fill="none" stroke="#000000" x1="981.359" y1="59.948" x2="977.525" y2="66.577"/>
	<line fill="none" stroke="#000000" x1="990.242" y1="59.948" x2="986.408" y2="66.577"/>
</g>
<g>
	<line fill="none" stroke="#000000" x1="719.756" y1="75.949" x2="715.922" y2="69.32"/>
	<line fill="none" stroke="#000000" x1="728.64" y1="75.949" x2="724.806" y2="69.32"/>
	<line fill="none" stroke="#000000" x1="737.524" y1="75.949" x2="733.69" y2="69.32"/>
	<line fill="none" stroke="#000000" x1="746.407" y1="75.949" x2="742.573" y2="69.32"/>
	<line fill="none" stroke="#000000" x1="755.291" y1="75.949" x2="751.457" y2="69.32"/>
	<line fill="none" stroke="#000000" x1="764.175" y1="75.949" x2="760.341" y2="69.32"/>
	<line fill="none" stroke="#000000" x1="773.059" y1="75.949" x2="769.225" y2="69.32"/>
	<line fill="none" stroke="#000000" x1="781.943" y1="75.949" x2="778.109" y2="69.32"/>
	<line fill="none" stroke="#000000" x1="790.826" y1="75.949" x2="786.992" y2="69.32"/>
	<line fill="none" stroke="#000000" x1="799.71" y1="75.949" x2="795.876" y2="69.32"/>
	<line fill="none" stroke="#000000" x1="808.594" y1="75.949" x2="804.76" y2="69.32"/>
	<line fill="none" stroke="#000000" x1="817.478" y1="75.949" x2="813.644" y2="69.32"/>
	<line fill="none" stroke="#000000" x1="826.362" y1="75.949" x2="822.528" y2="69.32"/>
	<line fill="none" stroke="#000000" x1="835.245" y1="75.949" x2="831.411" y2="69.32"/>
	<line fill="none" stroke="#000000" x1="844.129" y1="75.949" x2="840.295" y2="69.32"/>
	<line fill="none" stroke="#000000" x1="853.013" y1="75.949" x2="849.179" y2="69.32"/>
	<line fill="none" stroke="#000000" x1="861.897" y1="75.949" x2="858.063" y2="69.32"/>
	<line fill="none" stroke="#000000" x1="870.781" y1="75.949" x2="866.947" y2="69.32"/>
	<line fill="none" stroke="#000000" x1="879.664" y1="75.949" x2="875.83" y2="69.32"/>
	<line fill="none" stroke="#000000" x1="888.548" y1="75.949" x2="884.714" y2="69.32"/>
	<line fill="none" stroke="#000000" x1="897.432" y1="75.949" x2="893.598" y2="69.32"/>
	<line fill="none" stroke="#000000" x1="906.316" y1="75.949" x2="902.482" y2="69.32"/>
	<line fill="none" stroke="#000000" x1="915.199" y1="75.949" x2="911.365" y2="69.32"/>
	<line fill="none" stroke="#000000" x1="924.083" y1="75.949" x2="920.249" y2="69.32"/>
	<line fill="none" stroke="#000000" x1="932.967" y1="75.949" x2="929.133" y2="69.32"/>
	<line fill="none" stroke="#000000" x1="941.851" y1="75.949" x2="938.017" y2="69.32"/>
	<line fill="none" stroke="#000000" x1="950.735" y1="75.949" x2="946.901" y2="69.32"/>
	<line fill="none" stroke="#000000" x1="959.618" y1="75.949" x2="955.784" y2="69.32"/>
	<line fill="none" stroke="#000000" x1="968.502" y1="75.949" x2="964.668" y2="69.32"/>
	<line fill="none" stroke="#000000" x1="977.386" y1="75.949" x2="973.552" y2="69.32"/>
	<line fill="none" stroke="#000000" x1="986.27" y1="75.949" x2="982.436" y2="69.32"/>
	<line fill="none" stroke="#000000" x1="995.154" y1="75.949" x2="991.32" y2="69.32"/>
</g>
<g>
	<line fill="none" stroke="#000000" x1="719.322" y1="106.129" x2="715.438" y2="101.731"/>
	<line fill="none" stroke="#000000" x1="728.205" y1="106.029" x2="724.322" y2="101.631"/>
	<line fill="none" stroke="#000000" x1="737.089" y1="105.929" x2="733.204" y2="101.531"/>
	<line fill="none" stroke="#000000" x1="745.971" y1="105.829" x2="742.088" y2="101.43"/>
	<line fill="none" stroke="#000000" x1="754.855" y1="105.728" x2="750.971" y2="101.33"/>
	<line fill="none" stroke="#000000" x1="763.739" y1="105.628" x2="759.854" y2="101.23"/>
	<line fill="none" stroke="#000000" x1="772.621" y1="105.528" x2="768.738" y2="101.13"/>
	<line fill="none" stroke="#000000" x1="781.504" y1="105.428" x2="777.621" y2="101.03"/>
	<line fill="none" stroke="#000000" x1="790.388" y1="105.327" x2="786.503" y2="100.929"/>
	<line fill="none" stroke="#000000" x1="799.271" y1="105.227" x2="795.387" y2="100.829"/>
	<line fill="none" stroke="#000000" x1="808.155" y1="105.127" x2="804.271" y2="100.729"/>
	<line fill="none" stroke="#000000" x1="817.037" y1="105.027" x2="813.154" y2="100.628"/>
	<line fill="none" stroke="#000000" x1="825.92" y1="104.927" x2="822.036" y2="100.528"/>
	<line fill="none" stroke="#000000" x1="834.804" y1="104.826" x2="830.92" y2="100.427"/>
	<line fill="none" stroke="#000000" x1="843.688" y1="104.726" x2="839.803" y2="100.328"/>
	<line fill="none" stroke="#000000" x1="852.57" y1="104.626" x2="848.687" y2="100.227"/>
	<line fill="none" stroke="#000000" x1="861.453" y1="104.526" x2="857.57" y2="100.127"/>
	<line fill="none" stroke="#000000" x1="870.337" y1="104.425" x2="866.452" y2="100.027"/>
	<line fill="none" stroke="#000000" x1="879.22" y1="104.325" x2="875.336" y2="99.927"/>
	<line fill="none" stroke="#000000" x1="888.104" y1="104.225" x2="884.22" y2="99.826"/>
	<line fill="none" stroke="#000000" x1="896.987" y1="104.125" x2="893.103" y2="99.726"/>
	<line fill="none" stroke="#000000" x1="905.869" y1="104.024" x2="901.986" y2="99.626"/>
	<line fill="none" stroke="#000000" x1="914.753" y1="103.924" x2="910.869" y2="99.526"/>
	<line fill="none" stroke="#000000" x1="923.637" y1="103.824" x2="919.752" y2="99.426"/>
	<line fill="none" stroke="#000000" x1="932.519" y1="103.723" x2="928.636" y2="99.325"/>
	<line fill="none" stroke="#000000" x1="941.403" y1="103.623" x2="937.519" y2="99.225"/>
	<line fill="none" stroke="#000000" x1="950.286" y1="103.523" x2="946.402" y2="99.125"/>
	<line fill="none" stroke="#000000" x1="959.169" y1="103.423" x2="955.285" y2="99.025"/>
	<line fill="none" stroke="#000000" x1="968.052" y1="103.323" x2="964.169" y2="98.924"/>
	<line fill="none" stroke="#000000" x1="976.936" y1="103.222" x2="973.051" y2="98.824"/>
	<line fill="none" stroke="#000000" x1="985.819" y1="103.122" x2="981.935" y2="98.724"/>
	<line fill="none" stroke="#000000" x1="994.702" y1="103.022" x2="990.819" y2="98.624"/>
</g>
<line fill="none" stroke="#000000" x1="998.988" y1="59.948" x2="995.154" y2="66.577"/>
<line fill="none" stroke="#000000" x1="1003.899" y1="75.949" x2="1000.065" y2="69.32"/>
<line fill="none" stroke="#000000" x1="1007.733" y1="59.948" x2="1003.899" y2="66.577"/>
<circle id="circle250-0-4_1_" fill="none" stroke="#000000" stroke-miterlimit="10" cx="339.612" cy="110.094" r="5.219"/>
<g>
	<path fill="none" stroke="#000000" stroke-width="2" d="M405.864,19.101l2,0.751v10.031h-43.363l-0.149-16.802
		c0-5.293,4.291-9.583,9.583-9.583c11.792,0,11.792,0,9.583,9.583l1.958,0.474"/>
	
		<rect x="386.368" y="2.64" transform="matrix(0.9734 0.2289 -0.2289 0.9734 13.0533 -90.5662)" fill="none" stroke="#000000" stroke-width="2" width="21.116" height="16.689"/>
	<circle id="circle250-0-4_2_" fill="none" stroke="#000000" stroke-miterlimit="10" cx="373.994" cy="21.173" r="5.219"/>
	<line fill="none" stroke="#000000" x1="378.269" y1="24.163" x2="407.864" y2="24.163"/>
</g>
<path id="path1245_1_" sodipodi:nodetypes="ccccssssssccc" fill="none" stroke="#000000" d="M644.136,369.131
	c0,0-12.568-37.466-25.916-75.466c-13.346-38-23.074-71.321-23.074-71.321l-9.097-33.762c0,0-0.612-2.504-0.404-3.74
	c0.104-0.624,0.432-1.209,0.809-1.719c0.297-0.402,0.681-0.755,1.111-1.011c0.705-0.419,1.513-0.695,2.325-0.809
	c0.568-0.079,1.173-0.075,1.719,0.102c0.418,0.135,0.812,0.386,1.111,0.707c0.577,0.617,1.213,2.224,1.213,2.224l1.92,6.065
	c10.318,39.078,28.451,100.066,57.225,175.872"/>
<path id="path1245_2_" sodipodi:nodetypes="ccccssssssccc" fill="none" stroke="#000000" d="M658.038,364.742
	c0,0-12.568-37.466-25.916-75.466c-13.346-38-23.074-71.321-23.074-71.321l-9.098-33.762c0,0-0.611-2.504-0.404-3.74
	c0.105-0.624,0.432-1.209,0.809-1.719c0.297-0.402,0.682-0.755,1.111-1.011c0.705-0.419,1.514-0.695,2.326-0.809
	c0.568-0.079,1.172-0.075,1.719,0.102c0.418,0.135,0.811,0.386,1.111,0.707c0.576,0.617,1.213,2.224,1.213,2.224l1.92,6.065
	c10.318,39.078,28.451,100.066,57.225,175.872"/>
<line fill="none" stroke="#000000" x1="560.97" y1="184.901" x2="633.948" y2="154.644"/>
<path id="path1914_1_" sodipodi:nodetypes="ccc" fill="none" stroke="#000000" d="M614.325,162.711l20.772,81.317l43.008,114.532"/>
</svg>
