// Created by Crowbar 0.74
version 1
nodes
  0 "root" -1
  1 "pelvis" 0
  2 "spine_01" 1
  3 "spine_02" 2
  4 "spine_03" 3
  5 "clavicle_r" 4
  6 "upperarm_r" 5
  7 "lowerarm_r" 6
  8 "hand_r" 7
  9 "index_01_r" 8
  10 "index_02_r" 9
  11 "index_03_r" 10
  12 "middle_01_r" 8
  13 "middle_02_r" 12
  14 "middle_03_r" 13
  15 "pinky_01_r" 8
  16 "pinky_02_r" 15
  17 "pinky_03_r" 16
  18 "ring_01_r" 8
  19 "ring_02_r" 18
  20 "ring_03_r" 19
  21 "thumb_01_r" 8
  22 "thumb_02_r" 21
  23 "thumb_03_r" 22
  24 "lowerarm_twist_01_r" 7
  25 "upperarm_twist_01_r" 6
  26 "clavicle_l" 4
  27 "upperarm_l" 26
  28 "lowerarm_l" 27
  29 "hand_l" 28
  30 "index_01_l" 29
  31 "index_02_l" 30
  32 "index_03_l" 31
  33 "middle_01_l" 29
  34 "middle_02_l" 33
  35 "middle_03_l" 34
  36 "pinky_01_l" 29
  37 "pinky_02_l" 36
  38 "pinky_03_l" 37
  39 "ring_01_l" 29
  40 "ring_02_l" 39
  41 "ring_03_l" 40
  42 "thumb_01_l" 29
  43 "thumb_02_l" 42
  44 "thumb_03_l" 43
  45 "lowerarm_twist_01_l" 28
  46 "upperarm_twist_01_l" 27
  47 "cam_driver" -1
  48 "Base" -1
  49 "rhand_ikTarget" 48
  50 "Handle" 48
  51 "Trigger" 50
  52 "BarrelRelease" 50
  53 "Shell" 48
  54 "ShellTip" 53
  55 "lhand_ikTarget" 48
end
skeleton
  time 0
    0 -0.000001 8.445313 -27.500000 0.000000 0.000000 -0.000001
    1 -0.000002 0.000000 0.000000 1.570747 -1.567142 -1.570747
    2 4.255466 -0.335183 -0.000002 0.000000 0.000000 -0.124848
    3 7.431250 1.496479 0.000002 0.000000 0.000000 0.245450
    4 5.278479 0.165544 0.000001 0.000000 0.000000 0.048511
    5 -1.153555 -7.235982 1.488977 1.975865 1.159909 -1.298786
    6 -6.214478 -0.000009 -0.000026 3.464119 -0.343520 1.341857
    7 11.944885 0.000000 0.000000 -0.245330 -0.348677 1.634299
    8 10.620188 0.000000 0.000000 0.877766 -0.008518 1.525066
    9 -4.751108 -0.694498 0.830580 0.091089 -0.137791 0.512572
    10 -1.688068 0.000047 -0.000031 0.021339 -0.012592 0.401006
    11 -1.336140 0.000055 -0.000010 0.026028 0.004411 0.385914
    12 -4.820494 -0.509464 -0.224759 -0.483770 0.048669 1.471721
    13 -1.826984 -0.000069 0.000008 -0.020071 0.035210 0.755575
    14 -1.436569 0.000004 0.000003 -0.037181 -0.068375 0.406212
    15 -3.992357 -0.891191 -1.827909 -0.663700 0.330731 1.641158
    16 -1.405918 -0.000025 -0.000002 0.015411 -0.025188 0.326537
    17 -1.175358 0.000126 -0.000019 0.035883 0.057750 0.459783
    18 -4.526751 -0.690580 -1.120741 -0.566792 0.240105 1.658922
    19 -1.744038 0.000032 -0.000008 -0.003774 -0.029372 0.538782
    20 -1.368771 0.000023 0.000002 0.026576 0.045310 0.425758
    21 -1.874796 -0.935125 0.999175 2.324522 0.378348 1.332630
    22 -1.523447 0.000031 0.000031 0.050583 0.166450 0.397552
    23 -1.599285 0.000011 0.000015 0.027731 -0.032813 0.849193
    24 5.511820 0.000008 -0.000002 2.907040 -0.050466 3.092448
    25 0.196846 -0.000002 0.000003 2.793407 0.000006 -3.141577
    26 -2.525391 -15.625000 -2.941406 2.139883 1.274375 2.017307
    27 6.214486 0.000008 0.000019 -0.765988 0.584108 -1.967998
    28 11.944888 -0.000031 -0.000200 -0.662040 -0.349323 -1.574338
    29 10.620165 0.000002 0.000006 -2.566220 -0.424037 0.838594
    30 4.751158 0.694374 -0.830474 0.397155 -0.126290 -0.041563
    31 1.688065 -0.000022 0.000002 0.008618 -0.023233 1.083604
    32 1.336151 -0.000051 -0.000009 -0.029740 -0.024873 1.245664
    33 4.820515 0.509338 0.224866 -0.031976 -0.281684 0.635634
    34 1.826992 0.000066 0.000010 0.024006 0.032654 1.907895
    35 1.436581 -0.000006 0.000010 0.015175 -0.000688 -0.684208
    36 3.992353 0.891087 1.827993 -0.456713 -0.110909 1.257075
    37 1.405926 0.000031 -0.000003 -0.015549 -0.025109 1.430112
    38 1.175362 -0.000132 0.000001 -0.058407 0.108647 -0.539646
    39 4.526758 0.690464 1.120843 -0.278075 -0.219573 1.109911
    40 1.744041 -0.000031 -0.000002 -0.027865 -0.010044 1.636033
    41 1.368767 -0.000031 -0.000018 -0.094443 0.127736 -0.824864
    42 1.874857 0.935081 -0.999129 1.749199 0.271556 0.493465
    43 1.551758 -0.296631 0.139404 0.105518 -0.217344 -0.082620
    44 1.599281 -0.000004 0.000010 0.039764 0.073479 -0.247738
    45 5.511806 -0.000002 0.000003 -0.806762 0.000003 0.000007
    46 0.196849 0.000003 -0.000001 -0.348225 0.000015 -0.000002
    47 0.000000 0.999512 0.000000 0.000000 0.000000 -1.570796
    48 -0.123185 -19.832160 -5.845375 0.000000 0.164239 1.570757
    49 10.507813 1.268555 0.331787 -0.768919 1.026265 0.762760
    50 -2.845604 0.419043 -0.467847 0.000000 0.000000 0.000000
    51 6.850185 -0.544975 -0.107286 0.000000 0.000000 0.000000
    52 6.282042 -0.570026 2.993409 0.000000 0.000000 0.000000
    53 0.456358 -0.073310 1.286493 0.000000 0.000000 0.000000
    54 -0.892130 0.000000 0.000000 0.000000 0.000000 0.000000
    55 1.079403 -2.486098 -2.090076 2.985660 1.179572 -2.432297
  time 1
    0 -0.000001 8.445313 -27.500000 0.000000 0.000000 -0.000001
    1 -0.000002 0.000000 0.000000 1.570747 -1.567142 -1.570747
    2 4.255466 -0.335183 -0.000002 0.000000 0.000000 -0.124848
    3 7.431250 1.496479 0.000002 0.000000 0.000000 0.245450
    4 5.278479 0.165544 0.000001 0.000000 0.000000 0.048511
    5 -1.165274 -7.349267 1.582730 1.975865 1.159909 -1.298786
    6 -6.214478 -0.000009 -0.000026 3.470297 -0.355422 1.349022
    7 11.944885 0.000000 0.000000 -0.252352 -0.348198 1.654813
    8 10.620188 0.000000 0.000000 0.902121 -0.007442 1.542104
    9 -4.751108 -0.694498 0.830580 0.091089 -0.137791 0.512572
    10 -1.688068 0.000047 -0.000031 0.021339 -0.012592 0.401006
    11 -1.336140 0.000055 -0.000010 0.026028 0.004411 0.385914
    12 -4.820494 -0.509464 -0.224759 -0.483770 0.048669 1.471721
    13 -1.826984 -0.000069 0.000008 -0.020071 0.035210 0.755575
    14 -1.436569 0.000004 0.000003 -0.037181 -0.068375 0.406212
    15 -3.992357 -0.891191 -1.827909 -0.663700 0.330731 1.641158
    16 -1.405918 -0.000025 -0.000002 0.015411 -0.025188 0.326537
    17 -1.175358 0.000126 -0.000019 0.035883 0.057750 0.459783
    18 -4.526751 -0.690580 -1.120741 -0.566792 0.240105 1.658922
    19 -1.744038 0.000032 -0.000008 -0.003774 -0.029372 0.538782
    20 -1.368771 0.000023 0.000002 0.026576 0.045310 0.425758
    21 -1.874796 -0.935125 0.999175 2.324522 0.378348 1.332630
    22 -1.523447 0.000031 0.000031 0.050583 0.166438 0.397552
    23 -1.599285 0.000011 0.000015 0.027731 -0.032813 0.849193
    24 5.511820 0.000008 -0.000002 2.907040 -0.050466 3.092448
    25 0.196846 -0.000002 0.000003 2.793407 0.000006 -3.141577
    26 -2.525391 -15.625000 -2.941406 2.139883 1.274375 2.017307
    27 6.214486 0.000008 0.000019 -0.760078 0.585693 -1.967366
    28 11.944888 -0.000031 -0.000200 -0.660326 -0.349311 -1.579316
    29 10.620165 0.000002 0.000006 -2.567920 -0.445711 0.818684
    30 4.751158 0.694374 -0.830474 0.397155 -0.126290 -0.041563
    31 1.688065 -0.000022 0.000002 0.008618 -0.023233 1.083604
    32 1.336151 -0.000051 -0.000009 -0.029740 -0.024873 1.245664
    33 4.820515 0.509338 0.224866 -0.031976 -0.281684 0.635634
    34 1.826992 0.000066 0.000010 0.024006 0.032654 1.907895
    35 1.436581 -0.000006 0.000010 0.015175 -0.000688 -0.684208
    36 3.992353 0.891087 1.827993 -0.456713 -0.110909 1.257075
    37 1.405926 0.000031 -0.000003 -0.015549 -0.025109 1.430112
    38 1.175362 -0.000132 0.000001 -0.058407 0.108647 -0.539646
    39 4.526758 0.690464 1.120843 -0.278075 -0.219573 1.109911
    40 1.744041 -0.000031 -0.000002 -0.027865 -0.010044 1.636033
    41 1.368767 -0.000031 -0.000018 -0.094443 0.127736 -0.824864
    42 1.874857 0.935081 -0.999129 1.749199 0.271556 0.493465
    43 1.551758 -0.296631 0.139404 0.105518 -0.217344 -0.082620
    44 1.599281 -0.000004 0.000010 0.039764 0.073479 -0.247738
    45 5.511806 -0.000002 0.000003 -0.806762 0.000003 0.000007
    46 0.196849 0.000003 -0.000001 -0.348225 0.000015 -0.000002
    47 0.000000 0.999512 0.000000 0.000000 0.000000 -1.570796
    48 -0.115373 -19.800909 -5.818030 0.015043 0.174291 1.592495
    49 10.507813 1.268555 0.331787 -0.768919 1.026265 0.762760
    50 -2.845604 0.419043 -0.467847 0.000000 0.000000 0.000000
    51 6.850185 -0.544975 -0.107286 0.000000 0.000000 0.000000
    52 6.282042 -0.570026 2.993409 0.000000 0.000000 0.000000
    53 0.456358 -0.073310 1.286493 0.000000 0.000000 0.000000
    54 -0.892130 0.000000 0.000000 0.000000 0.000000 0.000000
    55 1.079403 -2.486098 -2.090076 2.985660 1.179572 -2.432297
  time 2
    0 -0.000001 8.445313 -27.500000 0.000000 0.000000 -0.000001
    1 -0.000002 0.000000 0.000000 1.570747 -1.567142 -1.570747
    2 4.255466 -0.335183 -0.000002 0.000000 0.000000 -0.124848
    3 7.431250 1.496479 0.000002 0.000000 0.000000 0.245450
    4 5.278479 0.165544 0.000001 0.000000 0.000000 0.048511
    5 -1.192618 -7.669589 1.844456 1.975865 1.159909 -1.298786
    6 -6.214478 -0.000009 -0.000026 3.488492 -0.386807 1.366641
    7 11.944885 0.000000 0.000000 -0.269775 -0.346388 1.706018
    8 10.620188 0.000000 0.000000 0.968661 -0.010446 1.591153
    9 -4.751108 -0.694498 0.830580 0.091089 -0.137791 0.512572
    10 -1.688068 0.000047 -0.000031 0.021339 -0.012592 0.401006
    11 -1.336140 0.000055 -0.000010 0.026028 0.004411 0.385914
    12 -4.820494 -0.509464 -0.224759 -0.483770 0.048669 1.471721
    13 -1.826984 -0.000069 0.000008 -0.020071 0.035210 0.755575
    14 -1.436569 0.000004 0.000003 -0.037181 -0.068375 0.406212
    15 -3.992357 -0.891191 -1.827909 -0.663700 0.330731 1.641158
    16 -1.405918 -0.000025 -0.000002 0.015411 -0.025188 0.326537
    17 -1.175358 0.000126 -0.000019 0.035883 0.057750 0.459783
    18 -4.526751 -0.690580 -1.120741 -0.566792 0.240105 1.658922
    19 -1.744038 0.000032 -0.000008 -0.003774 -0.029372 0.538782
    20 -1.368771 0.000023 0.000002 0.026576 0.045310 0.425758
    21 -1.874796 -0.935125 0.999175 2.324522 0.378348 1.332630
    22 -1.523447 0.000031 0.000031 0.050583 0.166450 0.397552
    23 -1.599285 0.000011 0.000015 0.027731 -0.032813 0.849193
    24 5.511820 0.000008 -0.000002 2.907040 -0.050466 3.092448
    25 0.196846 -0.000002 0.000003 2.793407 0.000006 -3.141577
    26 -2.525391 -15.625000 -2.941406 2.139883 1.274375 2.017307
    27 6.214486 0.000008 0.000019 -0.744714 0.589837 -1.965470
    28 11.944888 -0.000031 -0.000200 -0.655774 -0.349251 -1.592626
    29 10.620165 0.000002 0.000006 -2.568001 -0.506022 0.764585
    30 4.751158 0.694374 -0.830474 0.397155 -0.126290 -0.041563
    31 1.688065 -0.000022 0.000002 0.008618 -0.023233 1.083604
    32 1.336151 -0.000051 -0.000009 -0.029740 -0.024873 1.245664
    33 4.820515 0.509338 0.224866 -0.031976 -0.281684 0.635634
    34 1.826992 0.000066 0.000010 0.024006 0.032654 1.907895
    35 1.436581 -0.000006 0.000010 0.015175 -0.000688 -0.684208
    36 3.992353 0.891087 1.827993 -0.456713 -0.110909 1.257075
    37 1.405926 0.000031 -0.000003 -0.015549 -0.025109 1.430112
    38 1.175362 -0.000132 0.000001 -0.058407 0.108659 -0.539646
    39 4.526758 0.690464 1.120843 -0.278075 -0.219573 1.109911
    40 1.744041 -0.000031 -0.000002 -0.027865 -0.010044 1.636033
    41 1.368767 -0.000031 -0.000018 -0.094443 0.127736 -0.824864
    42 1.874857 0.935081 -0.999129 1.749199 0.271556 0.493465
    43 1.551758 -0.296631 0.139404 0.105518 -0.217344 -0.082620
    44 1.599281 -0.000004 0.000010 0.039764 0.073479 -0.247738
    45 5.511806 -0.000002 0.000003 -0.806762 0.000003 0.000007
    46 0.196849 0.000003 -0.000001 -0.348225 0.000015 -0.000002
    47 0.000000 0.999512 0.000000 0.000000 0.000000 -1.570796
    48 -0.088028 -19.711062 -5.751622 0.055972 0.199740 1.653590
    49 10.507813 1.268555 0.331787 -0.768919 1.026265 0.762760
    50 -2.845604 0.419043 -0.467847 0.000000 0.000000 0.000000
    51 6.850185 -0.544975 -0.107286 0.000000 0.000000 0.000000
    52 6.282042 -0.570026 2.993409 0.000000 0.000000 0.000000
    53 0.456358 -0.073310 1.286493 0.000000 0.000000 0.000000
    54 -0.892130 0.000000 0.000000 0.000000 0.000000 0.000000
    55 1.079403 -2.486098 -2.090076 2.985660 1.179572 -2.432297
  time 3
    0 -0.000001 8.445313 -27.500000 0.000000 0.000000 -0.000001
    1 -0.000002 0.000000 0.000000 1.570747 -1.567142 -1.570747
    2 4.255466 -0.335183 -0.000002 0.000000 0.000000 -0.124848
    3 7.431250 1.496479 0.000002 0.000000 0.000000 0.245450
    4 5.278479 0.165544 0.000001 0.000000 0.000000 0.048511
    5 -1.231682 -8.150072 2.239000 1.975865 1.159909 -1.298786
    6 -6.214478 -0.000009 -0.000026 3.519727 -0.430448 1.387546
    7 11.944885 0.000000 0.000000 -0.291151 -0.342996 1.769239
    8 10.620188 0.000000 0.000000 1.067486 -0.030491 1.669458
    9 -4.751108 -0.694498 0.830580 0.091089 -0.137791 0.512572
    10 -1.688068 0.000047 -0.000031 0.021339 -0.012592 0.401006
    11 -1.336140 0.000055 -0.000010 0.026028 0.004411 0.385914
    12 -4.820494 -0.509464 -0.224759 -0.483770 0.048669 1.471721
    13 -1.826984 -0.000069 0.000008 -0.020071 0.035210 0.755575
    14 -1.436569 0.000004 0.000003 -0.037181 -0.068375 0.406212
    15 -3.992357 -0.891191 -1.827909 -0.663700 0.330731 1.641158
    16 -1.405918 -0.000025 -0.000002 0.015411 -0.025188 0.326537
    17 -1.175358 0.000126 -0.000019 0.035883 0.057750 0.459783
    18 -4.526751 -0.690580 -1.120741 -0.566792 0.240105 1.658922
    19 -1.744038 0.000032 -0.000008 -0.003774 -0.029372 0.538782
    20 -1.368771 0.000023 0.000002 0.026576 0.045310 0.425758
    21 -1.874796 -0.935125 0.999175 2.324522 0.378348 1.332630
    22 -1.523447 0.000031 0.000031 0.050583 0.166450 0.397552
    23 -1.599285 0.000011 0.000015 0.027731 -0.032813 0.849193
    24 5.511820 0.000008 -0.000002 2.907040 -0.050466 3.092448
    25 0.196846 -0.000002 0.000003 2.793407 0.000006 -3.141577
    26 -2.525391 -15.625000 -2.941406 2.139883 1.274375 2.017307
    27 6.214486 0.000008 0.000019 -0.723833 0.595293 -1.962941
    28 11.944888 -0.000031 -0.000200 -0.649535 -0.349071 -1.610859
    29 10.620165 0.000002 0.000006 -2.556341 -0.597434 0.682096
    30 4.751158 0.694374 -0.830474 0.397155 -0.126290 -0.041563
    31 1.688065 -0.000022 0.000002 0.008618 -0.023233 1.083604
    32 1.336151 -0.000051 -0.000009 -0.029740 -0.024873 1.245664
    33 4.820515 0.509338 0.224866 -0.031976 -0.281684 0.635634
    34 1.826992 0.000066 0.000010 0.024006 0.032654 1.907895
    35 1.436581 -0.000006 0.000010 0.015175 -0.000688 -0.684208
    36 3.992353 0.891087 1.827993 -0.456713 -0.110909 1.257075
    37 1.405926 0.000031 -0.000003 -0.015549 -0.025109 1.430112
    38 1.175362 -0.000132 0.000001 -0.058407 0.108659 -0.539646
    39 4.526758 0.690464 1.120843 -0.278075 -0.219573 1.109911
    40 1.744041 -0.000031 -0.000002 -0.027865 -0.010044 1.636033
    41 1.368767 -0.000031 -0.000018 -0.094443 0.127736 -0.824864
    42 1.874857 0.935081 -0.999129 1.749199 0.271556 0.493465
    43 1.551758 -0.296631 0.139404 0.105518 -0.217344 -0.082620
    44 1.599281 -0.000004 0.000010 0.039764 0.073479 -0.247738
    45 5.511806 -0.000002 0.000003 -0.806762 0.000003 0.000007
    46 0.196849 0.000003 -0.000001 -0.348225 0.000015 -0.000002
    47 0.000000 0.999512 0.000000 0.000000 0.000000 -1.570796
    48 -0.017713 -19.586058 -5.657869 0.117184 0.232375 1.748967
    49 10.507813 1.268555 0.331787 -0.768919 1.026265 0.762760
    50 -2.845604 0.419043 -0.467847 0.000000 0.000000 0.000000
    51 6.850185 -0.544975 -0.107286 0.000000 0.000000 0.000000
    52 6.282042 -0.570026 2.993409 0.000000 0.000000 0.000000
    53 0.456358 -0.073310 1.286493 0.000000 0.000000 0.000000
    54 -0.892130 0.000000 0.000000 0.000000 0.000000 0.000000
    55 1.079403 -2.486098 -2.090076 2.985660 1.179572 -2.432297
  time 4
    0 -0.000001 8.445313 -27.500000 0.000000 0.000000 -0.000001
    1 -0.000002 0.000000 0.000000 1.570747 -1.567142 -1.570747
    2 4.255466 -0.335183 -0.000002 0.000000 0.000000 -0.124848
    3 7.431250 1.496479 0.000002 0.000000 0.000000 0.245450
    4 5.278479 0.165544 0.000001 0.000000 0.000000 0.048511
    5 -1.282465 -8.755560 2.735109 1.975865 1.159909 -1.298786
    6 -6.214478 -0.000009 -0.000026 3.567109 -0.478943 1.401614
    7 11.944885 0.000000 0.000000 -0.310142 -0.338862 1.826072
    8 10.620188 0.000000 0.000000 1.185942 -0.079010 1.769276
    9 -4.751108 -0.694498 0.830580 0.091089 -0.137791 0.512572
    10 -1.688068 0.000047 -0.000031 0.021339 -0.012592 0.401006
    11 -1.336140 0.000055 -0.000010 0.026028 0.004411 0.385914
    12 -4.820494 -0.509464 -0.224759 -0.483770 0.048669 1.471721
    13 -1.826984 -0.000069 0.000008 -0.020071 0.035210 0.755575
    14 -1.436569 0.000004 0.000003 -0.037181 -0.068375 0.406212
    15 -3.992357 -0.891191 -1.827909 -0.663700 0.330731 1.641158
    16 -1.405918 -0.000025 -0.000002 0.015411 -0.025188 0.326537
    17 -1.175358 0.000126 -0.000019 0.035883 0.057750 0.459783
    18 -4.526751 -0.690580 -1.120741 -0.566792 0.240105 1.658922
    19 -1.744038 0.000032 -0.000008 -0.003774 -0.029372 0.538782
    20 -1.368771 0.000023 0.000002 0.026576 0.045310 0.425758
    21 -1.874796 -0.935125 0.999175 2.324522 0.378348 1.332630
    22 -1.523447 0.000031 0.000031 0.050583 0.166450 0.397552
    23 -1.599285 0.000011 0.000015 0.027731 -0.032813 0.849193
    24 5.511820 0.000008 -0.000002 2.907040 -0.050466 3.092448
    25 0.196846 -0.000002 0.000003 2.793407 0.000006 -3.141577
    26 -2.525391 -15.625000 -2.941406 2.139883 1.274375 2.017307
    27 6.214486 0.000008 0.000019 -0.701639 0.601084 -1.959960
    28 11.944888 -0.000031 -0.000200 -0.642600 -0.348748 -1.631161
    29 10.620165 0.000002 0.000006 -2.519905 -0.709842 0.573932
    30 4.751158 0.694374 -0.830474 0.397155 -0.126290 -0.041563
    31 1.688065 -0.000022 0.000002 0.008618 -0.023233 1.083604
    32 1.336151 -0.000051 -0.000009 -0.029740 -0.024873 1.245664
    33 4.820515 0.509338 0.224866 -0.031976 -0.281684 0.635634
    34 1.826992 0.000066 0.000010 0.024006 0.032654 1.907895
    35 1.436581 -0.000006 0.000010 0.015175 -0.000688 -0.684208
    36 3.992353 0.891087 1.827993 -0.456713 -0.110909 1.257075
    37 1.405926 0.000031 -0.000003 -0.015549 -0.025109 1.430112
    38 1.175362 -0.000132 0.000001 -0.058407 0.108659 -0.539646
    39 4.526758 0.690464 1.120843 -0.278075 -0.219573 1.109911
    40 1.744041 -0.000031 -0.000002 -0.027865 -0.010044 1.636033
    41 1.368767 -0.000031 -0.000018 -0.094443 0.127736 -0.824864
    42 1.874857 0.935081 -0.999129 1.749199 0.271556 0.493465
    43 1.551758 -0.296631 0.139404 0.105518 -0.217344 -0.082620
    44 1.599281 -0.000004 0.000010 0.039764 0.073479 -0.247738
    45 5.511806 -0.000002 0.000003 -0.806762 0.000003 0.000007
    46 0.196849 0.000003 -0.000001 -0.348225 0.000015 -0.000002
    47 0.000000 0.999512 0.000000 0.000000 0.000000 -1.570796
    48 0.111197 -19.437616 -5.560210 0.191934 0.263531 1.872019
    49 10.507813 1.268555 0.331787 -0.768919 1.026265 0.762760
    50 -2.845604 0.419043 -0.467847 0.000000 0.000000 0.000000
    51 6.850185 -0.544975 -0.107286 0.000000 0.000000 0.000000
    52 6.282042 -0.570026 2.993409 0.000000 0.000000 0.000000
    53 0.456358 -0.073310 1.286493 0.000000 0.000000 0.000000
    54 -0.892130 0.000000 0.000000 0.000000 0.000000 0.000000
    55 1.079403 -2.486098 -2.090076 2.985660 1.179572 -2.432297
  time 5
    0 -0.000001 8.445313 -27.500000 0.000000 0.000000 -0.000001
    1 -0.000002 0.000000 0.000000 1.570747 -1.567142 -1.570747
    2 4.255466 -0.335183 -0.000002 0.000000 0.000000 -0.124848
    3 7.431250 1.496479 0.000002 0.000000 0.000000 0.245450
    4 5.278479 0.165544 0.000001 0.000000 0.000000 0.048511
    5 -1.341060 -9.439174 3.301532 1.975865 1.159909 -1.298786
    6 -6.214478 -0.000009 -0.000026 3.632242 -0.525311 1.397670
    7 11.944885 0.000000 0.000000 -0.322324 -0.335638 1.862879
    8 10.620188 0.000000 0.000000 1.307604 -0.158157 1.875749
    9 -4.751108 -0.694498 0.830580 0.091089 -0.137791 0.512572
    10 -1.688068 0.000047 -0.000031 0.021339 -0.012592 0.401006
    11 -1.336140 0.000055 -0.000010 0.026028 0.004411 0.385914
    12 -4.820494 -0.509464 -0.224759 -0.483770 0.048669 1.471721
    13 -1.826984 -0.000069 0.000008 -0.020071 0.035210 0.755575
    14 -1.436569 0.000004 0.000003 -0.037181 -0.068375 0.406212
    15 -3.992357 -0.891191 -1.827909 -0.663700 0.330731 1.641158
    16 -1.405918 -0.000025 -0.000002 0.015411 -0.025188 0.326537
    17 -1.175358 0.000126 -0.000019 0.035883 0.057750 0.459783
    18 -4.526751 -0.690580 -1.120741 -0.566792 0.240105 1.658922
    19 -1.744038 0.000032 -0.000008 -0.003774 -0.029372 0.538782
    20 -1.368771 0.000023 0.000002 0.026576 0.045310 0.425758
    21 -1.874796 -0.935125 0.999175 2.324522 0.378348 1.332630
    22 -1.523447 0.000031 0.000031 0.050583 0.166450 0.397552
    23 -1.599285 0.000011 0.000015 0.027731 -0.032813 0.849193
    24 5.511820 0.000008 -0.000002 2.907040 -0.050466 3.092448
    25 0.196846 -0.000002 0.000003 2.793407 0.000006 -3.141577
    26 -2.525391 -15.625000 -2.941406 2.139883 1.274375 2.017307
    27 6.214486 0.000008 0.000019 -0.682992 0.607148 -1.956438
    28 11.944888 -0.000031 -0.000200 -0.635343 -0.348256 -1.652357
    29 10.620165 0.000002 0.000006 -2.445169 -0.828963 0.440496
    30 4.751158 0.694374 -0.830474 0.397155 -0.126290 -0.041563
    31 1.688065 -0.000022 0.000002 0.008618 -0.023233 1.083604
    32 1.336151 -0.000051 -0.000009 -0.029740 -0.024873 1.245664
    33 4.820515 0.509338 0.224866 -0.031976 -0.281684 0.635634
    34 1.826992 0.000066 0.000010 0.024006 0.032654 1.907895
    35 1.436581 -0.000006 0.000010 0.015175 -0.000688 -0.684208
    36 3.992353 0.891087 1.827993 -0.456713 -0.110909 1.257075
    37 1.405926 0.000031 -0.000003 -0.015549 -0.025109 1.430112
    38 1.175362 -0.000132 0.000001 -0.058407 0.108647 -0.539646
    39 4.526758 0.690464 1.120843 -0.278075 -0.219573 1.109911
    40 1.744041 -0.000031 -0.000002 -0.027865 -0.010044 1.636033
    41 1.368767 -0.000031 -0.000018 -0.094443 0.127736 -0.824864
    42 1.874857 0.935081 -0.999129 1.749199 0.271556 0.493465
    43 1.551758 -0.296631 0.139404 0.105518 -0.217344 -0.082620
    44 1.599281 -0.000004 0.000010 0.039764 0.073479 -0.247738
    45 5.511806 -0.000002 0.000003 -0.806762 0.000003 0.000007
    46 0.196849 0.000003 -0.000001 -0.348225 0.000015 -0.000002
    47 0.000000 0.999512 0.000000 0.000000 0.000000 -1.570796
    48 0.314328 -19.281362 -5.466457 0.270005 0.286166 2.012979
    49 10.507813 1.268555 0.331787 -0.768919 1.026265 0.762760
    50 -2.845604 0.419043 -0.467847 0.000000 0.000000 0.000000
    51 6.850185 -0.544975 -0.107286 0.000000 0.000000 0.000000
    52 6.282042 -0.570026 2.993409 0.000000 0.000000 0.000000
    53 0.456358 -0.073310 1.286493 0.000000 0.000000 0.000000
    54 -0.892130 0.000000 0.000000 0.000000 0.000000 0.000000
    55 1.079403 -2.486098 -2.090076 2.985660 1.179572 -2.432297
  time 6
    0 -0.000001 8.445313 -27.500000 0.000000 0.000000 -0.000001
    1 -0.000002 0.000000 0.000000 1.570747 -1.567142 -1.570747
    2 4.255466 -0.335183 -0.000002 0.000000 0.000000 -0.124848
    3 7.431250 1.496479 0.000002 0.000000 0.000000 0.245450
    4 5.278479 0.165544 0.000001 0.000000 0.000000 0.048511
    5 -1.399656 -10.161853 3.899207 1.975865 1.159909 -1.298786
    6 -6.214478 -0.000009 -0.000026 3.708844 -0.563498 1.369205
    7 11.944885 0.000000 0.000000 -0.326112 -0.334547 1.874354
    8 10.620188 0.000000 0.000000 1.413798 -0.256766 1.972068
    9 -4.751108 -0.694498 0.830580 0.091089 -0.137791 0.512572
    10 -1.688068 0.000047 -0.000031 0.021339 -0.012592 0.401006
    11 -1.336140 0.000055 -0.000010 0.026028 0.004411 0.385914
    12 -4.820494 -0.509464 -0.224759 -0.483770 0.048669 1.471721
    13 -1.826984 -0.000069 0.000008 -0.020071 0.035210 0.755575
    14 -1.436569 0.000004 0.000003 -0.037181 -0.068375 0.406212
    15 -3.992357 -0.891191 -1.827909 -0.663700 0.330731 1.641158
    16 -1.405918 -0.000025 -0.000002 0.015411 -0.025188 0.326537
    17 -1.175358 0.000126 -0.000019 0.035883 0.057750 0.459783
    18 -4.526751 -0.690580 -1.120741 -0.566792 0.240105 1.658922
    19 -1.744038 0.000032 -0.000008 -0.003774 -0.029372 0.538782
    20 -1.368771 0.000023 0.000002 0.026576 0.045310 0.425758
    21 -1.874796 -0.935125 0.999175 2.324522 0.378348 1.332630
    22 -1.523447 0.000031 0.000031 0.050583 0.166450 0.397552
    23 -1.599285 0.000011 0.000015 0.027731 -0.032813 0.849193
    24 5.511820 0.000008 -0.000002 2.907040 -0.050466 3.092448
    25 0.196846 -0.000002 0.000003 2.793407 0.000006 -3.141577
    26 -2.525391 -15.625000 -2.941406 2.139883 1.274375 2.017307
    27 6.214486 0.000008 0.000019 -0.672223 0.614707 -1.951200
    28 11.944888 -0.000031 -0.000200 -0.627230 -0.347537 -1.676182
    29 10.620165 0.000002 0.000006 -2.322499 -0.938122 0.284065
    30 4.751158 0.694374 -0.830474 0.397155 -0.126290 -0.041563
    31 1.688065 -0.000022 0.000002 0.008618 -0.023233 1.083604
    32 1.336151 -0.000051 -0.000009 -0.029740 -0.024873 1.245664
    33 4.820515 0.509338 0.224866 -0.031976 -0.281684 0.635634
    34 1.826992 0.000066 0.000010 0.024006 0.032654 1.907895
    35 1.436581 -0.000006 0.000010 0.015175 -0.000688 -0.684208
    36 3.992353 0.891087 1.827993 -0.456713 -0.110909 1.257075
    37 1.405926 0.000031 -0.000003 -0.015549 -0.025109 1.430112
    38 1.175362 -0.000132 0.000001 -0.058407 0.108647 -0.539646
    39 4.526758 0.690464 1.120843 -0.278075 -0.219573 1.109911
    40 1.744041 -0.000031 -0.000002 -0.027865 -0.010044 1.636033
    41 1.368767 -0.000031 -0.000018 -0.094443 0.127736 -0.824864
    42 1.874857 0.935081 -0.999129 1.749199 0.271556 0.493465
    43 1.551758 -0.296631 0.139404 0.105518 -0.217344 -0.082620
    44 1.599281 -0.000004 0.000010 0.039764 0.073479 -0.247738
    45 5.511806 -0.000002 0.000003 -0.806762 0.000003 0.000007
    46 0.196849 0.000003 -0.000001 -0.348225 0.000015 -0.000002
    47 0.000000 0.999512 0.000000 0.000000 0.000000 -1.570796
    48 0.611212 -19.136826 -5.400049 0.338219 0.297295 2.158917
    49 10.507813 1.268555 0.331787 -0.768919 1.026265 0.762760
    50 -2.845604 0.419043 -0.467847 0.000000 0.000000 0.000000
    51 6.850185 -0.544975 -0.107286 0.000000 0.000000 0.000000
    52 6.282042 -0.570026 2.993409 0.000000 0.000000 0.000000
    53 0.456358 -0.073310 1.286493 0.000000 0.000000 0.000000
    54 -0.892130 0.000000 0.000000 0.000000 0.000000 0.000000
    55 1.079403 -2.486098 -2.090076 2.985660 1.179572 -2.432297
  time 7
    0 -0.000001 8.445313 -27.500000 0.000000 0.000000 -0.000001
    1 -0.000002 0.000000 0.000000 1.570747 -1.567142 -1.570747
    2 4.255466 -0.335183 -0.000002 0.000000 0.000000 -0.124848
    3 7.431250 1.496479 0.000002 0.000000 0.000000 0.245450
    4 5.278479 0.165544 0.000001 0.000000 0.000000 0.048511
    5 -1.462158 -10.888437 4.492975 1.975865 1.159909 -1.298786
    6 -6.214478 -0.000009 -0.000026 3.779575 -0.590703 1.320951
    7 11.944885 0.000000 0.000000 -0.322520 -0.335578 1.863475
    8 10.620188 0.000000 0.000000 1.485006 -0.353715 2.048939
    9 -4.751108 -0.694498 0.830580 0.091089 -0.137791 0.512572
    10 -1.688068 0.000047 -0.000031 0.021339 -0.012592 0.401006
    11 -1.336140 0.000055 -0.000010 0.026028 0.004411 0.385914
    12 -4.820494 -0.509464 -0.224759 -0.483770 0.048669 1.471721
    13 -1.826984 -0.000069 0.000008 -0.020071 0.035210 0.755575
    14 -1.436569 0.000004 0.000003 -0.037181 -0.068375 0.406212
    15 -3.992357 -0.891191 -1.827909 -0.663700 0.330731 1.641158
    16 -1.405918 -0.000025 -0.000002 0.015411 -0.025188 0.326537
    17 -1.175358 0.000126 -0.000019 0.035883 0.057750 0.459783
    18 -4.526751 -0.690580 -1.120741 -0.566792 0.240105 1.658922
    19 -1.744038 0.000032 -0.000008 -0.003774 -0.029372 0.538782
    20 -1.368771 0.000023 0.000002 0.026576 0.045310 0.425758
    21 -1.874796 -0.935125 0.999175 2.324522 0.378348 1.332630
    22 -1.523447 0.000031 0.000031 0.050583 0.166450 0.397552
    23 -1.599285 0.000011 0.000015 0.027731 -0.032813 0.849193
    24 5.511820 0.000008 -0.000002 2.907040 -0.050466 3.092448
    25 0.196846 -0.000002 0.000003 2.793407 0.000006 -3.141577
    26 -2.525391 -15.625000 -2.941406 2.139883 1.274375 2.017307
    27 6.214486 0.000008 0.000019 -0.673142 0.625953 -1.942530
    28 11.944888 -0.000031 -0.000200 -0.616948 -0.346375 -1.706383
    29 10.620165 0.000002 0.000006 -2.155377 -1.022643 0.118417
    30 4.751158 0.694374 -0.830474 0.397155 -0.126290 -0.041563
    31 1.688065 -0.000022 0.000002 0.008618 -0.023233 1.083604
    32 1.336151 -0.000051 -0.000009 -0.029740 -0.024873 1.245664
    33 4.820515 0.509338 0.224866 -0.031976 -0.281684 0.635634
    34 1.826992 0.000066 0.000010 0.024006 0.032654 1.907895
    35 1.436581 -0.000006 0.000010 0.015175 -0.000688 -0.684208
    36 3.992353 0.891087 1.827993 -0.456713 -0.110909 1.257075
    37 1.405926 0.000031 -0.000003 -0.015549 -0.025109 1.430112
    38 1.175362 -0.000132 0.000001 -0.058407 0.108659 -0.539646
    39 4.526758 0.690464 1.120843 -0.278075 -0.219573 1.109911
    40 1.744041 -0.000031 -0.000002 -0.027865 -0.010044 1.636033
    41 1.368767 -0.000031 -0.000018 -0.094443 0.127736 -0.824864
    42 1.874857 0.935081 -0.999129 1.749199 0.271556 0.493465
    43 1.551758 -0.296631 0.139404 0.105518 -0.217344 -0.082620
    44 1.599281 -0.000004 0.000010 0.039776 0.073479 -0.247738
    45 5.511806 -0.000002 0.000003 -0.806762 0.000003 0.000007
    46 0.196849 0.000003 -0.000001 -0.348225 0.000015 -0.000002
    47 0.000000 0.999512 0.000000 0.000000 0.000000 -1.570796
    48 1.013568 -19.019635 -5.372704 0.382105 0.299266 2.295759
    49 10.507813 1.268555 0.331787 -0.768919 1.026265 0.762760
    50 -2.845604 0.419043 -0.467847 0.000000 0.000000 0.000000
    51 6.850185 -0.544975 -0.107286 0.000000 0.000000 0.000000
    52 6.282042 -0.570026 2.993409 0.000000 0.000000 0.000000
    53 0.456358 -0.073310 1.286493 0.000000 0.000000 0.000000
    54 -0.892130 0.000000 0.000000 0.000000 0.000000 0.000000
    55 1.079403 -2.486098 -2.090076 2.985660 1.179572 -2.432297
  time 8
    0 -0.000001 8.445313 -27.500000 0.000000 0.000000 -0.000001
    1 -0.000002 0.000000 0.000000 1.570747 -1.567142 -1.570747
    2 4.255466 -0.335183 -0.000002 0.000000 0.000000 -0.124848
    3 7.431250 1.496479 0.000002 0.000000 0.000000 0.245450
    4 5.278479 0.165544 0.000001 0.000000 0.000000 0.048511
    5 -1.520753 -11.572052 5.059398 1.975865 1.159909 -1.298786
    6 -6.214478 -0.000009 -0.000026 3.822690 -0.608485 1.265993
    7 11.944885 0.000000 0.000000 -0.313816 -0.337939 1.837114
    8 10.620188 0.000000 0.000000 1.515548 -0.425822 2.111813
    9 -4.751108 -0.694498 0.830580 0.091089 -0.137791 0.512572
    10 -1.688068 0.000047 -0.000031 0.021339 -0.012592 0.401006
    11 -1.336140 0.000055 -0.000010 0.026028 0.004411 0.385914
    12 -4.820494 -0.509464 -0.224759 -0.483770 0.048669 1.471721
    13 -1.826984 -0.000069 0.000008 -0.020071 0.035210 0.755575
    14 -1.436569 0.000004 0.000003 -0.037181 -0.068375 0.406212
    15 -3.992357 -0.891191 -1.827909 -0.663700 0.330731 1.641158
    16 -1.405918 -0.000025 -0.000002 0.015411 -0.025188 0.326537
    17 -1.175358 0.000126 -0.000019 0.035883 0.057750 0.459783
    18 -4.526751 -0.690580 -1.120741 -0.566792 0.240105 1.658922
    19 -1.744038 0.000032 -0.000008 -0.003774 -0.029372 0.538782
    20 -1.368771 0.000023 0.000002 0.026576 0.045310 0.425758
    21 -1.874796 -0.935125 0.999175 2.324522 0.378348 1.332630
    22 -1.523447 0.000031 0.000031 0.050583 0.166450 0.397552
    23 -1.599285 0.000011 0.000015 0.027731 -0.032813 0.849193
    24 5.511820 0.000008 -0.000002 2.907040 -0.050466 3.092448
    25 0.196846 -0.000002 0.000003 2.793407 0.000006 -3.141577
    26 -2.525391 -15.625000 -2.941406 2.139883 1.274375 2.017307
    27 6.214486 0.000008 0.000019 -0.686012 0.645641 -1.926996
    28 11.944888 -0.000031 -0.000200 -0.603586 -0.344409 -1.745868
    29 10.620165 0.000002 0.000006 -1.971817 -1.072526 -0.038885
    30 4.751158 0.694374 -0.830474 0.397155 -0.126290 -0.041563
    31 1.688065 -0.000022 0.000002 0.008618 -0.023233 1.083604
    32 1.336151 -0.000051 -0.000009 -0.029740 -0.024873 1.245664
    33 4.820515 0.509338 0.224866 -0.031976 -0.281684 0.635634
    34 1.826992 0.000066 0.000010 0.024006 0.032654 1.907895
    35 1.436581 -0.000006 0.000010 0.015175 -0.000688 -0.684208
    36 3.992353 0.891087 1.827993 -0.456713 -0.110909 1.257075
    37 1.405926 0.000031 -0.000003 -0.015549 -0.025109 1.430112
    38 1.175362 -0.000132 0.000001 -0.058407 0.108659 -0.539646
    39 4.526758 0.690464 1.120843 -0.278075 -0.219573 1.109911
    40 1.744041 -0.000031 -0.000002 -0.027865 -0.010044 1.636033
    41 1.368767 -0.000031 -0.000018 -0.094443 0.127736 -0.824864
    42 1.874857 0.935081 -0.999129 1.749199 0.271556 0.493465
    43 1.551758 -0.296631 0.139404 0.105518 -0.217344 -0.082620
    44 1.599281 -0.000004 0.000010 0.039764 0.073479 -0.247738
    45 5.511806 -0.000002 0.000003 -0.806762 0.000003 0.000007
    46 0.196849 0.000003 -0.000001 -0.348225 0.000015 -0.000002
    47 0.000000 0.999512 0.000000 0.000000 0.000000 -1.570796
    48 1.572179 -18.933695 -5.431300 0.404826 0.296166 2.414119
    49 10.507813 1.268555 0.331787 -0.768919 1.026265 0.762760
    50 -2.845604 0.419043 -0.467847 0.000000 0.000000 0.000000
    51 6.850185 -0.544975 -0.107286 0.000000 0.000000 0.000000
    52 6.282042 -0.570026 2.993409 0.000000 0.000000 0.000000
    53 0.456358 -0.073310 1.286493 0.000000 0.000000 0.000000
    54 -0.892130 0.000000 0.000000 0.000000 0.000000 0.000000
    55 1.079403 -2.486098 -2.090076 2.985660 1.179572 -2.432297
  time 9
    0 -0.000001 8.445313 -27.500000 0.000000 0.000000 -0.000001
    1 -0.000002 0.000000 0.000000 1.570747 -1.567142 -1.570747
    2 4.255466 -0.335183 -0.000002 0.000000 0.000000 -0.124848
    3 7.431250 1.496479 0.000002 0.000000 0.000000 0.245450
    4 5.278479 0.165544 0.000001 0.000000 0.000000 0.048511
    5 -1.571536 -12.177539 5.555507 1.975865 1.159909 -1.298786
    6 -6.214478 -0.000009 -0.000026 3.825830 -0.621910 1.218660
    7 11.944885 0.000000 0.000000 -0.301226 -0.340947 1.799279
    8 10.620188 0.000000 0.000000 1.510205 -0.464252 2.178301
    9 -4.751108 -0.694498 0.830580 0.091089 -0.137791 0.512572
    10 -1.688068 0.000047 -0.000031 0.021339 -0.012592 0.401006
    11 -1.336140 0.000055 -0.000010 0.026028 0.004411 0.385914
    12 -4.820494 -0.509464 -0.224759 -0.483770 0.048669 1.471721
    13 -1.826984 -0.000069 0.000008 -0.020071 0.035210 0.755575
    14 -1.436569 0.000004 0.000003 -0.037181 -0.068375 0.406212
    15 -3.992357 -0.891191 -1.827909 -0.663700 0.330731 1.641158
    16 -1.405918 -0.000025 -0.000002 0.015411 -0.025188 0.326537
    17 -1.175358 0.000126 -0.000019 0.035883 0.057750 0.459783
    18 -4.526751 -0.690580 -1.120741 -0.566792 0.240105 1.658922
    19 -1.744038 0.000032 -0.000008 -0.003774 -0.029372 0.538782
    20 -1.368771 0.000023 0.000002 0.026576 0.045310 0.425758
    21 -1.874796 -0.935125 0.999175 2.324522 0.378348 1.332630
    22 -1.523447 0.000031 0.000031 0.050583 0.166450 0.397552
    23 -1.599285 0.000011 0.000015 0.027731 -0.032813 0.849193
    24 5.511820 0.000008 -0.000002 2.907040 -0.050466 3.092448
    25 0.196846 -0.000002 0.000003 2.793407 0.000006 -3.141577
    26 -2.525391 -15.625000 -2.941406 2.139883 1.274375 2.017307
    27 6.214486 0.000008 0.000019 -0.706564 0.680202 -1.900264
    28 11.944888 -0.000031 -0.000200 -0.587333 -0.341317 -1.794246
    29 10.620165 0.000002 0.000006 -1.809229 -1.086167 -0.173159
    30 4.751158 0.694374 -0.830474 0.397155 -0.126290 -0.041563
    31 1.688065 -0.000022 0.000002 0.008618 -0.023233 1.083604
    32 1.336151 -0.000051 -0.000009 -0.029740 -0.024873 1.245664
    33 4.820515 0.509338 0.224866 -0.031976 -0.281684 0.635634
    34 1.826992 0.000066 0.000010 0.024006 0.032654 1.907895
    35 1.436581 -0.000006 0.000010 0.015175 -0.000688 -0.684208
    36 3.992353 0.891087 1.827993 -0.456713 -0.110909 1.257075
    37 1.405926 0.000031 -0.000003 -0.015549 -0.025109 1.430112
    38 1.175362 -0.000132 0.000001 -0.058407 0.108659 -0.539646
    39 4.526758 0.690464 1.120843 -0.278075 -0.219573 1.109911
    40 1.744041 -0.000031 -0.000002 -0.027865 -0.010044 1.636033
    41 1.368767 -0.000031 -0.000018 -0.094443 0.127736 -0.824864
    42 1.874857 0.935081 -0.999129 1.749199 0.271556 0.493465
    43 1.551758 -0.296631 0.139404 0.105518 -0.217344 -0.082620
    44 1.599281 -0.000004 0.000010 0.039764 0.073479 -0.247738
    45 5.511806 -0.000002 0.000003 -0.806762 0.000003 0.000007
    46 0.196849 0.000003 -0.000001 -0.348225 0.000015 -0.000002
    47 0.000000 0.999512 0.000000 0.000000 0.000000 -1.570796
    48 2.302670 -18.867287 -5.653963 0.419869 0.290018 2.513710
    49 10.507813 1.268555 0.331787 -0.768919 1.026265 0.762760
    50 -2.845604 0.419043 -0.467847 0.000000 0.000000 0.000000
    51 6.850185 -0.544975 -0.107286 0.000000 0.000000 0.000000
    52 6.282042 -0.570026 2.993409 0.000000 0.000000 0.000000
    53 0.456358 -0.073310 1.286493 0.000000 0.000000 0.000000
    54 -0.892130 0.000000 0.000000 0.000000 0.000000 0.000000
    55 1.079403 -2.486098 -2.090076 2.985660 1.179572 -2.432297
  time 10
    0 -0.000001 8.445313 -27.500000 0.000000 0.000000 -0.000001
    1 -0.000002 0.000000 0.000000 1.570747 -1.567142 -1.570747
    2 4.255466 -0.335183 -0.000002 0.000000 0.000000 -0.124848
    3 7.431250 1.496479 0.000002 0.000000 0.000000 0.245450
    4 5.278479 0.165544 0.000001 0.000000 0.000000 0.048511
    5 -1.610600 -12.658023 5.950050 1.975865 1.159909 -1.298786
    6 -6.214478 -0.000009 -0.000026 3.819720 -0.631758 1.187039
    7 11.944885 0.000000 0.000000 -0.287966 -0.343584 1.759820
    8 10.620188 0.000000 0.000000 1.493500 -0.495911 2.244675
    9 -4.751108 -0.694498 0.830580 0.091089 -0.137791 0.512572
    10 -1.688068 0.000047 -0.000031 0.021339 -0.012592 0.401006
    11 -1.336140 0.000055 -0.000010 0.026028 0.004411 0.385914
    12 -4.820494 -0.509464 -0.224759 -0.483770 0.048669 1.471721
    13 -1.826984 -0.000069 0.000008 -0.020071 0.035210 0.755575
    14 -1.436569 0.000004 0.000003 -0.037181 -0.068375 0.406212
    15 -3.992357 -0.891191 -1.827909 -0.663700 0.330731 1.641158
    16 -1.405918 -0.000025 -0.000002 0.015411 -0.025188 0.326537
    17 -1.175358 0.000126 -0.000019 0.035883 0.057750 0.459783
    18 -4.526751 -0.690580 -1.120741 -0.566792 0.240105 1.658922
    19 -1.744038 0.000032 -0.000008 -0.003774 -0.029372 0.538782
    20 -1.368771 0.000023 0.000002 0.026576 0.045310 0.425758
    21 -1.874796 -0.935125 0.999175 2.324522 0.378348 1.332630
    22 -1.523447 0.000031 0.000031 0.050583 0.166450 0.397552
    23 -1.599285 0.000011 0.000015 0.027731 -0.032813 0.849193
    24 5.511820 0.000008 -0.000002 2.907040 -0.050466 3.092448
    25 0.196846 -0.000002 0.000003 2.793407 0.000006 -3.141577
    26 -2.525391 -15.625000 -2.941406 2.139883 1.274375 2.017307
    27 6.214486 0.000008 0.000019 -0.717661 0.712538 -1.875608
    28 11.944888 -0.000031 -0.000200 -0.575176 -0.338489 -1.830654
    29 10.620165 0.000002 0.000006 -1.672632 -1.088488 -0.293725
    30 4.751158 0.694374 -0.830474 0.397155 -0.126290 -0.041563
    31 1.688065 -0.000022 0.000002 0.008618 -0.023233 1.083604
    32 1.336151 -0.000051 -0.000009 -0.029740 -0.024873 1.245664
    33 4.820515 0.509338 0.224866 -0.031976 -0.281684 0.635634
    34 1.826992 0.000066 0.000010 0.024006 0.032654 1.907895
    35 1.436581 -0.000006 0.000010 0.015175 -0.000688 -0.684208
    36 3.992353 0.891087 1.827993 -0.456713 -0.110909 1.257075
    37 1.405926 0.000031 -0.000003 -0.015549 -0.025109 1.430112
    38 1.175362 -0.000132 0.000001 -0.058407 0.108659 -0.539646
    39 4.526758 0.690464 1.120843 -0.278075 -0.219573 1.109911
    40 1.744041 -0.000031 -0.000002 -0.027865 -0.010044 1.636033
    41 1.368767 -0.000031 -0.000018 -0.094443 0.127736 -0.824864
    42 1.874857 0.935081 -0.999129 1.749199 0.271556 0.493465
    43 1.551758 -0.296631 0.139404 0.105518 -0.217344 -0.082620
    44 1.599281 -0.000004 0.000010 0.039764 0.073479 -0.247738
    45 5.511806 -0.000002 0.000003 -0.806762 0.000003 0.000007
    46 0.196849 0.000003 -0.000001 -0.348225 0.000015 -0.000002
    47 0.000000 0.999512 0.000000 0.000000 0.000000 -1.570796
    48 2.873000 -18.820410 -5.931315 0.428688 0.282962 2.595010
    49 10.507813 1.268555 0.331787 -0.768919 1.026265 0.762760
    50 -2.845604 0.419043 -0.467847 0.000000 0.000000 0.000000
    51 6.850185 -0.544975 -0.107286 0.000000 0.000000 0.000000
    52 6.282042 -0.570026 2.993409 0.000000 0.000000 0.000000
    53 0.456358 -0.073310 1.286493 0.000000 0.000000 0.000000
    54 -0.892130 0.000000 0.000000 0.000000 0.000000 0.000000
    55 1.079403 -2.486098 -2.090076 2.985660 1.179572 -2.432297
  time 11
    0 -0.000001 8.445313 -27.500000 0.000000 0.000000 -0.000001
    1 -0.000002 0.000000 0.000000 1.570747 -1.567142 -1.570747
    2 4.255466 -0.335183 -0.000002 0.000000 0.000000 -0.124848
    3 7.431250 1.496479 0.000002 0.000000 0.000000 0.245450
    4 5.278479 0.165544 0.000001 0.000000 0.000000 0.048511
    5 -1.637944 -12.978345 6.211777 1.975865 1.159909 -1.298786
    6 -6.214478 -0.000009 -0.000026 3.825284 -0.634379 1.167317
    7 11.944885 0.000000 0.000000 -0.275328 -0.345633 1.722418
    8 10.620188 0.000000 0.000000 1.481632 -0.535148 2.301525
    9 -4.751108 -0.694498 0.830580 0.091089 -0.137791 0.512572
    10 -1.688068 0.000047 -0.000031 0.021339 -0.012592 0.401006
    11 -1.336140 0.000055 -0.000010 0.026028 0.004411 0.385914
    12 -4.820494 -0.509464 -0.224759 -0.483770 0.048669 1.471721
    13 -1.826984 -0.000069 0.000008 -0.020071 0.035210 0.755575
    14 -1.436569 0.000004 0.000003 -0.037181 -0.068375 0.406212
    15 -3.992357 -0.891191 -1.827909 -0.663700 0.330731 1.641158
    16 -1.405918 -0.000025 -0.000002 0.015411 -0.025188 0.326537
    17 -1.175358 0.000126 -0.000019 0.035883 0.057750 0.459783
    18 -4.526751 -0.690580 -1.120741 -0.566792 0.240105 1.658922
    19 -1.744038 0.000032 -0.000008 -0.003774 -0.029372 0.538782
    20 -1.368771 0.000023 0.000002 0.026576 0.045310 0.425758
    21 -1.874796 -0.935125 0.999175 2.324522 0.378348 1.332630
    22 -1.523447 0.000031 0.000031 0.050583 0.166450 0.397552
    23 -1.599285 0.000011 0.000015 0.027731 -0.032813 0.849193
    24 5.511820 0.000008 -0.000002 2.907040 -0.050466 3.092448
    25 0.196846 -0.000002 0.000003 2.793407 0.000006 -3.141577
    26 -2.525391 -15.625000 -2.941406 2.139883 1.274375 2.017307
    27 6.214486 0.000008 0.000019 -0.717595 0.730764 -1.860978
    28 11.944888 -0.000031 -0.000200 -0.568911 -0.336859 -1.849614
    29 10.620165 0.000002 0.000006 -1.552391 -1.092880 -0.406682
    30 4.751158 0.694374 -0.830474 0.397155 -0.126290 -0.041563
    31 1.688065 -0.000022 0.000002 0.008618 -0.023233 1.083604
    32 1.336151 -0.000051 -0.000009 -0.029740 -0.024873 1.245664
    33 4.820515 0.509338 0.224866 -0.031976 -0.281684 0.635634
    34 1.826992 0.000066 0.000010 0.024006 0.032654 1.907895
    35 1.436581 -0.000006 0.000010 0.015175 -0.000688 -0.684208
    36 3.992353 0.891087 1.827993 -0.456713 -0.110909 1.257075
    37 1.405926 0.000031 -0.000003 -0.015549 -0.025109 1.430112
    38 1.175362 -0.000132 0.000001 -0.058407 0.108659 -0.539646
    39 4.526758 0.690464 1.120843 -0.278075 -0.219573 1.109911
    40 1.744041 -0.000031 -0.000002 -0.027865 -0.010044 1.636033
    41 1.368767 -0.000031 -0.000018 -0.094443 0.127736 -0.824864
    42 1.874857 0.935081 -0.999129 1.749199 0.271556 0.493465
    43 1.551758 -0.296631 0.139404 0.105518 -0.217344 -0.082620
    44 1.599281 -0.000004 0.000010 0.039764 0.073479 -0.247738
    45 5.511806 -0.000002 0.000003 -0.806762 0.000003 0.000007
    46 0.196849 0.000003 -0.000001 -0.348225 0.000015 -0.000002
    47 0.000000 0.999512 0.000000 0.000000 0.000000 -1.570796
    48 3.165977 -18.789159 -6.107102 0.432734 0.276412 2.659170
    49 10.507813 1.268555 0.331787 -0.768919 1.026265 0.762760
    50 -2.845604 0.419043 -0.467847 0.000000 0.000000 0.000000
    51 6.850185 -0.544975 -0.107286 0.000000 0.000000 0.000000
    52 6.282042 -0.570026 2.993409 0.000000 0.000000 0.000000
    53 0.456358 -0.073310 1.286493 0.000000 0.000000 0.000000
    54 -0.892130 0.000000 0.000000 0.000000 0.000000 0.000000
    55 1.079403 -2.486098 -2.090076 2.985660 1.179572 -2.432297
  time 12
    0 -0.000001 8.445313 -27.500000 0.000000 0.000000 -0.000001
    1 -0.000002 0.000000 0.000000 1.570747 -1.567142 -1.570747
    2 4.255466 -0.335183 -0.000002 0.000000 0.000000 -0.124848
    3 7.431250 1.496479 0.000002 0.000000 0.000000 0.245450
    4 5.278479 0.165544 0.000001 0.000000 0.000000 0.048511
    5 -1.645757 -13.091630 6.309436 1.975865 1.159909 -1.298786
    6 -6.214478 -0.000009 -0.000026 3.836686 -0.630164 1.158507
    7 11.944885 0.000000 0.000000 -0.261921 -0.347311 1.682905
    8 10.620188 0.000000 0.000000 1.470045 -0.576672 2.354303
    9 -4.751108 -0.694498 0.830580 0.091089 -0.137791 0.512572
    10 -1.688068 0.000047 -0.000031 0.021339 -0.012592 0.401006
    11 -1.336140 0.000055 -0.000010 0.026028 0.004411 0.385914
    12 -4.820494 -0.509464 -0.224759 -0.483770 0.048669 1.471721
    13 -1.826984 -0.000069 0.000008 -0.020071 0.035210 0.755575
    14 -1.436569 0.000004 0.000003 -0.037181 -0.068375 0.406212
    15 -3.992357 -0.891191 -1.827909 -0.663700 0.330731 1.641158
    16 -1.405918 -0.000025 -0.000002 0.015411 -0.025188 0.326537
    17 -1.175358 0.000126 -0.000019 0.035883 0.057750 0.459783
    18 -4.526751 -0.690580 -1.120741 -0.566792 0.240105 1.658922
    19 -1.744038 0.000032 -0.000008 -0.003774 -0.029372 0.538782
    20 -1.368771 0.000023 0.000002 0.026576 0.045310 0.425758
    21 -1.874796 -0.935125 0.999175 2.324522 0.378348 1.332630
    22 -1.523447 0.000031 0.000031 0.050583 0.166450 0.397552
    23 -1.599285 0.000011 0.000015 0.027731 -0.032813 0.849193
    24 5.511820 0.000008 -0.000002 2.907040 -0.050466 3.092448
    25 0.196846 -0.000002 0.000003 2.793407 0.000006 -3.141577
    26 -2.525391 -15.625000 -2.941406 2.139883 1.274375 2.017307
    27 6.214486 0.000008 0.000019 -0.714181 0.740425 -1.852579
    28 11.944888 -0.000031 -0.000200 -0.565590 -0.335936 -1.859681
    29 10.620165 0.000002 0.000006 -1.453688 -1.096272 -0.500198
    30 4.751158 0.694374 -0.830474 0.397155 -0.126290 -0.041563
    31 1.688065 -0.000022 0.000002 0.008618 -0.023233 1.083604
    32 1.336151 -0.000051 -0.000009 -0.029740 -0.024873 1.245664
    33 4.820515 0.509338 0.224866 -0.031976 -0.281684 0.635634
    34 1.826992 0.000066 0.000010 0.024006 0.032654 1.907895
    35 1.436581 -0.000006 0.000010 0.015175 -0.000688 -0.684208
    36 3.992353 0.891087 1.827993 -0.456713 -0.110909 1.257075
    37 1.405926 0.000031 -0.000003 -0.015549 -0.025109 1.430112
    38 1.175362 -0.000132 0.000001 -0.058407 0.108659 -0.539646
    39 4.526758 0.690464 1.120843 -0.278075 -0.219573 1.109911
    40 1.744041 -0.000031 -0.000002 -0.027865 -0.010044 1.636033
    41 1.368767 -0.000031 -0.000018 -0.094443 0.127736 -0.824864
    42 1.874857 0.935081 -0.999129 1.749199 0.271556 0.493465
    43 1.551758 -0.296631 0.139404 0.105518 -0.217344 -0.082620
    44 1.599281 -0.000004 0.000010 0.039764 0.073479 -0.247738
    45 5.511806 -0.000002 0.000003 -0.806762 0.000003 0.000007
    46 0.196849 0.000003 -0.000001 -0.348225 0.000015 -0.000002
    47 0.000000 0.999512 0.000000 0.000000 0.000000 -1.570796
    48 3.326139 -18.769627 -6.212574 0.433356 0.271223 2.707337
    49 10.507813 1.268555 0.331787 -0.768919 1.026265 0.762760
    50 -2.845604 0.419043 -0.467847 0.000000 0.000000 0.000000
    51 6.850185 -0.544975 -0.107286 0.000000 0.000000 0.000000
    52 6.282042 -0.570026 2.993409 0.000000 0.000000 0.000000
    53 0.456358 -0.073310 1.286493 0.000000 0.000000 0.000000
    54 -0.892130 0.000000 0.000000 0.000000 0.000000 0.000000
    55 1.079403 -2.486098 -2.090076 2.985660 1.179572 -2.432297
  time 13
    0 -0.000001 8.445313 -27.500000 0.000000 0.000000 -0.000001
    1 -0.000002 0.000000 0.000000 1.570747 -1.567142 -1.570747
    2 4.255466 -0.335183 -0.000002 0.000000 0.000000 -0.124848
    3 7.431250 1.496479 0.000002 0.000000 0.000000 0.245450
    4 5.278479 0.165544 0.000001 0.000000 0.000000 0.048511
    5 -1.645757 -13.091630 6.309436 1.975865 1.159909 -1.298786
    6 -6.214478 -0.000009 -0.000026 3.847746 -0.623363 1.155944
    7 11.944885 0.000000 0.000000 -0.249870 -0.348377 1.647560
    8 10.620188 0.000000 0.000000 1.458345 -0.611560 2.398532
    9 -4.751108 -0.694498 0.830580 0.091089 -0.137791 0.512572
    10 -1.688068 0.000047 -0.000031 0.021339 -0.012592 0.401006
    11 -1.336140 0.000055 -0.000010 0.026028 0.004411 0.385914
    12 -4.820494 -0.509464 -0.224759 -0.483770 0.048669 1.471721
    13 -1.826984 -0.000069 0.000008 -0.020071 0.035210 0.755575
    14 -1.436569 0.000004 0.000003 -0.037181 -0.068375 0.406212
    15 -3.992357 -0.891191 -1.827909 -0.663700 0.330731 1.641158
    16 -1.405918 -0.000025 -0.000002 0.015411 -0.025188 0.326537
    17 -1.175358 0.000126 -0.000019 0.035883 0.057750 0.459783
    18 -4.526751 -0.690580 -1.120741 -0.566792 0.240105 1.658922
    19 -1.744038 0.000032 -0.000008 -0.003774 -0.029372 0.538782
    20 -1.368771 0.000023 0.000002 0.026576 0.045310 0.425758
    21 -1.874796 -0.935125 0.999175 2.324522 0.378348 1.332630
    22 -1.523447 0.000031 0.000031 0.050583 0.166450 0.397552
    23 -1.599285 0.000011 0.000015 0.027731 -0.032813 0.849193
    24 5.511820 0.000008 -0.000002 2.907040 -0.050466 3.092448
    25 0.196846 -0.000002 0.000003 2.793407 0.000006 -3.141577
    26 -2.525391 -15.625000 -2.941406 2.139883 1.274375 2.017307
    27 6.214486 0.000008 0.000019 -0.710766 0.745393 -1.847792
    28 11.944888 -0.000031 -0.000200 -0.563770 -0.335433 -1.865162
    29 10.620165 0.000002 0.000006 -1.380734 -1.097986 -0.568207
    30 4.751158 0.694374 -0.830474 0.397155 -0.126290 -0.041563
    31 1.688065 -0.000022 0.000002 0.008618 -0.023233 1.083604
    32 1.336151 -0.000051 -0.000009 -0.029740 -0.024873 1.245664
    33 4.820515 0.509338 0.224866 -0.031976 -0.281684 0.635634
    34 1.826992 0.000066 0.000010 0.024006 0.032654 1.907895
    35 1.436581 -0.000006 0.000010 0.015175 -0.000688 -0.684208
    36 3.992353 0.891087 1.827993 -0.456713 -0.110909 1.257075
    37 1.405926 0.000031 -0.000003 -0.015549 -0.025109 1.430112
    38 1.175362 -0.000132 0.000001 -0.058407 0.108659 -0.539646
    39 4.526758 0.690464 1.120843 -0.278075 -0.219573 1.109911
    40 1.744041 -0.000031 -0.000002 -0.027865 -0.010044 1.636033
    41 1.368767 -0.000031 -0.000018 -0.094443 0.127736 -0.824864
    42 1.874857 0.935081 -0.999129 1.749199 0.271556 0.493465
    43 1.551758 -0.296631 0.139404 0.105518 -0.217344 -0.082620
    44 1.599281 -0.000004 0.000010 0.039764 0.073479 -0.247738
    45 5.511806 -0.000002 0.000003 -0.806762 0.000003 0.000007
    46 0.196849 0.000003 -0.000001 -0.348225 0.000015 -0.000002
    47 0.000000 0.999512 0.000000 0.000000 0.000000 -1.570796
    48 3.408172 -18.761815 -6.271169 0.431852 0.267838 2.740757
    49 10.507813 1.268555 0.331787 -0.768919 1.026265 0.762760
    50 -2.845604 0.419043 -0.467847 0.000000 0.000000 0.000000
    51 6.850185 -0.544975 -0.107286 0.000000 0.000000 0.000000
    52 6.282042 -0.570026 2.993409 0.000000 0.000000 0.000000
    53 0.456358 -0.073310 1.286493 0.000000 0.000000 0.000000
    54 -0.892130 0.000000 0.000000 0.000000 0.000000 0.000000
    55 1.079403 -2.486098 -2.090076 2.985660 1.179572 -2.432297
  time 14
    0 -0.000001 8.445313 -27.500000 0.000000 0.000000 -0.000001
    1 -0.000002 0.000000 0.000000 1.570747 -1.567142 -1.570747
    2 4.255466 -0.335183 -0.000002 0.000000 0.000000 -0.124848
    3 7.431250 1.496479 0.000002 0.000000 0.000000 0.245450
    4 5.278479 0.165544 0.000001 0.000000 0.000000 0.048511
    5 -1.645757 -13.091630 6.309436 1.975865 1.159909 -1.298786
    6 -6.214478 -0.000009 -0.000026 3.854539 -0.619076 1.154300
    7 11.944885 0.000000 0.000000 -0.242424 -0.348845 1.625801
    8 10.620188 0.000000 0.000000 1.449458 -0.632411 2.425667
    9 -4.751108 -0.694498 0.830580 0.091089 -0.137791 0.512572
    10 -1.688068 0.000047 -0.000031 0.021339 -0.012592 0.401006
    11 -1.336140 0.000055 -0.000010 0.026028 0.004411 0.385914
    12 -4.820494 -0.509464 -0.224759 -0.483770 0.048669 1.471721
    13 -1.826984 -0.000069 0.000008 -0.020071 0.035210 0.755575
    14 -1.436569 0.000004 0.000003 -0.037181 -0.068375 0.406212
    15 -3.992357 -0.891191 -1.827909 -0.663700 0.330731 1.641158
    16 -1.405918 -0.000025 -0.000002 0.015411 -0.025188 0.326537
    17 -1.175358 0.000126 -0.000019 0.035883 0.057750 0.459783
    18 -4.526751 -0.690580 -1.120741 -0.566792 0.240105 1.658922
    19 -1.744038 0.000032 -0.000008 -0.003774 -0.029372 0.538782
    20 -1.368771 0.000023 0.000002 0.026576 0.045310 0.425758
    21 -1.874796 -0.935125 0.999175 2.324522 0.378348 1.332630
    22 -1.523447 0.000031 0.000031 0.050583 0.166450 0.397552
    23 -1.599285 0.000011 0.000015 0.027731 -0.032813 0.849193
    24 5.511820 0.000008 -0.000002 2.907040 -0.050466 3.092448
    25 0.196846 -0.000002 0.000003 2.793407 0.000006 -3.141577
    26 -2.525391 -15.625000 -2.941406 2.139883 1.274375 2.017307
    27 6.214486 0.000008 0.000019 -0.708600 0.747648 -1.845534
    28 11.944888 -0.000031 -0.000200 -0.562832 -0.335157 -1.868014
    29 10.620165 0.000002 0.000006 -1.335391 -1.098629 -0.608932
    30 4.751158 0.694374 -0.830474 0.397155 -0.126290 -0.041563
    31 1.688065 -0.000022 0.000002 0.008618 -0.023233 1.083604
    32 1.336151 -0.000051 -0.000009 -0.029740 -0.024873 1.245664
    33 4.820515 0.509338 0.224866 -0.031976 -0.281684 0.635634
    34 1.826992 0.000066 0.000010 0.024006 0.032654 1.907895
    35 1.436581 -0.000006 0.000010 0.015175 -0.000688 -0.684208
    36 3.992353 0.891087 1.827993 -0.456713 -0.110909 1.257075
    37 1.405926 0.000031 -0.000003 -0.015549 -0.025109 1.430112
    38 1.175362 -0.000132 0.000001 -0.058407 0.108659 -0.539646
    39 4.526758 0.690464 1.120843 -0.278075 -0.219573 1.109911
    40 1.744041 -0.000031 -0.000002 -0.027865 -0.010044 1.636033
    41 1.368767 -0.000031 -0.000018 -0.094443 0.127736 -0.824864
    42 1.874857 0.935081 -0.999129 1.749199 0.271556 0.493465
    43 1.551758 -0.296631 0.139404 0.105518 -0.217344 -0.082620
    44 1.599281 -0.000004 0.000010 0.039764 0.073479 -0.247738
    45 5.511806 -0.000002 0.000003 -0.806762 0.000003 0.000007
    46 0.196849 0.000003 -0.000001 -0.348225 0.000015 -0.000002
    47 0.000000 0.999512 0.000000 0.000000 0.000000 -1.570796
    48 3.447236 -18.757908 -6.302420 0.429414 0.266346 2.760484
    49 10.507813 1.268555 0.331787 -0.768919 1.026265 0.762760
    50 -2.845604 0.419043 -0.467847 0.000000 0.000000 0.000000
    51 6.850185 -0.544975 -0.107286 0.000000 0.000000 0.000000
    52 6.282042 -0.570026 2.993409 0.000000 0.000000 0.000000
    53 0.456358 -0.073310 1.286493 0.000000 0.000000 0.000000
    54 -0.892130 0.000000 0.000000 0.000000 0.000000 0.000000
    55 1.079403 -2.486098 -2.090076 2.985660 1.179572 -2.432297
  time 15
    0 -0.000001 8.445313 -27.500000 0.000000 0.000000 -0.000001
    1 -0.000002 0.000000 0.000000 1.570747 -1.567142 -1.570747
    2 4.255466 -0.335183 -0.000002 0.000000 0.000000 -0.124848
    3 7.431250 1.496479 0.000002 0.000000 0.000000 0.245450
    4 5.278479 0.165544 0.000001 0.000000 0.000000 0.048511
    5 -1.645757 -13.091630 6.309436 1.975865 1.159909 -1.298786
    6 -6.214478 -0.000009 -0.000026 3.856997 -0.617589 1.153840
    7 11.944885 0.000000 0.000000 -0.239697 -0.348977 1.617790
    8 10.620188 0.000000 0.000000 1.445352 -0.639810 2.436165
    9 -4.751108 -0.694498 0.830580 0.091089 -0.137791 0.512572
    10 -1.688068 0.000047 -0.000031 0.021339 -0.012592 0.401006
    11 -1.336140 0.000055 -0.000010 0.026028 0.004411 0.385914
    12 -4.820494 -0.509464 -0.224759 -0.483770 0.048669 1.471721
    13 -1.826984 -0.000069 0.000008 -0.020071 0.035210 0.755575
    14 -1.436569 0.000004 0.000003 -0.037181 -0.068375 0.406212
    15 -3.992357 -0.891191 -1.827909 -0.663700 0.330731 1.641158
    16 -1.405918 -0.000025 -0.000002 0.015411 -0.025188 0.326537
    17 -1.175358 0.000126 -0.000019 0.035883 0.057750 0.459783
    18 -4.526751 -0.690580 -1.120741 -0.566792 0.240105 1.658922
    19 -1.744038 0.000032 -0.000008 -0.003774 -0.029372 0.538782
    20 -1.368771 0.000023 0.000002 0.026576 0.045310 0.425758
    21 -1.874796 -0.935125 0.999175 2.324522 0.378348 1.332630
    22 -1.523447 0.000031 0.000031 0.050583 0.166450 0.397552
    23 -1.599285 0.000011 0.000015 0.027731 -0.032813 0.849193
    24 5.511820 0.000008 -0.000002 2.907040 -0.050466 3.092448
    25 0.196846 -0.000002 0.000003 2.793407 0.000006 -3.141577
    26 -2.525391 -15.625000 -2.941406 2.139883 1.274375 2.017307
    27 6.214486 0.000008 0.000019 -0.707877 0.748257 -1.844812
    28 11.944888 -0.000031 -0.000200 -0.562538 -0.335073 -1.868909
    29 10.620165 0.000002 0.000006 -1.318468 -1.098629 -0.623445
    30 4.751158 0.694374 -0.830474 0.397155 -0.126290 -0.041563
    31 1.688065 -0.000022 0.000002 0.008618 -0.023233 1.083604
    32 1.336151 -0.000051 -0.000009 -0.029740 -0.024873 1.245664
    33 4.820515 0.509338 0.224866 -0.031976 -0.281684 0.635634
    34 1.826992 0.000066 0.000010 0.024006 0.032654 1.907895
    35 1.436581 -0.000006 0.000010 0.015175 -0.000688 -0.684208
    36 3.992353 0.891087 1.827993 -0.456713 -0.110909 1.257075
    37 1.405926 0.000031 -0.000003 -0.015549 -0.025109 1.430112
    38 1.175362 -0.000132 0.000001 -0.058407 0.108659 -0.539646
    39 4.526758 0.690464 1.120843 -0.278075 -0.219573 1.109911
    40 1.744041 -0.000031 -0.000002 -0.027865 -0.010044 1.636033
    41 1.368767 -0.000031 -0.000018 -0.094443 0.127736 -0.824864
    42 1.874857 0.935081 -0.999129 1.749199 0.271556 0.493465
    43 1.551758 -0.296631 0.139404 0.105518 -0.217344 -0.082620
    44 1.599281 -0.000004 0.000010 0.039764 0.073479 -0.247738
    45 5.511806 -0.000002 0.000003 -0.806762 0.000003 0.000007
    46 0.196849 0.000003 -0.000001 -0.348225 0.000015 -0.000002
    47 0.000000 0.999512 0.000000 0.000000 0.000000 -1.570796
    48 3.458955 -18.754002 -6.310233 0.428065 0.266242 2.767570
    49 10.507813 1.268555 0.331787 -0.768919 1.026265 0.762760
    50 -2.845604 0.419043 -0.467847 0.000000 0.000000 0.000000
    51 6.850185 -0.544975 -0.107286 0.000000 0.000000 0.000000
    52 6.282042 -0.570026 2.993409 0.000000 0.000000 0.000000
    53 0.456358 -0.073310 1.286493 0.000000 0.000000 0.000000
    54 -0.892130 0.000000 0.000000 0.000000 0.000000 0.000000
    55 1.079403 -2.486098 -2.090076 2.985660 1.179572 -2.432297
end
