version 1
nodes
0 "root" -1
1 "pelvis" 0
2 "spine_01" 1
3 "spine_02" 2
4 "spine_03" 3
5 "clavicle_r" 4
6 "upperarm_r" 5
7 "lowerarm_r" 6
8 "hand_r" 7
9 "index_01_r" 8
10 "index_02_r" 9
11 "index_03_r" 10
12 "middle_01_r" 8
13 "middle_02_r" 12
14 "middle_03_r" 13
15 "pinky_01_r" 8
16 "pinky_02_r" 15
17 "pinky_03_r" 16
18 "ring_01_r" 8
19 "ring_02_r" 18
20 "ring_03_r" 19
21 "thumb_01_r" 8
22 "thumb_02_r" 21
23 "thumb_03_r" 22
24 "lowerarm_twist_01_r" 7
25 "upperarm_twist_01_r" 6
26 "clavicle_l" 4
27 "upperarm_l" 26
28 "lowerarm_l" 27
29 "hand_l" 28
30 "index_01_l" 29
31 "index_02_l" 30
32 "index_03_l" 31
33 "middle_01_l" 29
34 "middle_02_l" 33
35 "middle_03_l" 34
36 "pinky_01_l" 29
37 "pinky_02_l" 36
38 "pinky_03_l" 37
39 "ring_01_l" 29
40 "ring_02_l" 39
41 "ring_03_l" 40
42 "thumb_01_l" 29
43 "thumb_02_l" 42
44 "thumb_03_l" 43
45 "lowerarm_twist_01_l" 28
46 "upperarm_twist_01_l" 27
47 "cam_driver" -1
48 "BaseRoot" -1
49 "Base" 48
50 "lhand_ikTarget" 49
51 "rhand_ikTarget" 49
52 "Mag" 49
53 "Bullet" 52
54 "Bullet.001" 53
55 "Bullet.002" 54
56 "Bullet.003" 55
57 "Bullet.004" 56
58 "Bullet.005" 57
59 "Bullet.006" 58
60 "Bullet.007" 59
61 "Handle" 49
62 "Trigger" 61
63 "Cover" 49
64 "CoverLatch" 63
65 "MagCover" 63
66 "BoltCover" 49
67 "Bipodcenter" 49
68 "Bipod1" 67
69 "Bipod2" 67
end
skeleton
time 0
0 -0.00000100 7.45008900 -27.50902600 0.00000000 0.00000000 0.00003100
1 -0.00000200 0.00000000 0.00000000 1.57074300 -1.56713700 -1.57074300
2 4.25546800 -0.33518300 -0.00000200 0.00000000 0.00000000 -0.12484800
3 7.43124800 1.49647700 0.00000200 0.00000000 0.00000000 0.24545000
4 5.27847900 0.16554100 0.00000100 0.00000000 0.00000000 0.04851100
5 -1.53874800 -12.43538500 11.02240100 1.97586400 1.15990900 -1.29878600
6 -6.21448200 -0.00000700 -0.00002700 2.90356346 -0.42970805 1.16661009
7 11.94488200 0.00000000 0.00000100 0.22792315 -0.33939253 1.40814099
8 10.62018100 0.00000200 0.00000000 1.15509095 0.68075542 -3.10975790
9 -4.75110600 -0.69449400 0.83057700 -0.22305500 -0.31747600 0.24566400
10 -1.68806800 0.00004600 -0.00003200 0.01535100 -0.01935500 0.77001100
11 -1.33614000 0.00005700 -0.00001200 0.02584200 0.00517300 0.35617200
12 -4.82049400 -0.50946000 -0.22475900 -0.55079600 -0.24209200 1.20817200
13 -1.82699200 -0.00006400 0.00000600 0.00062300 0.04047200 1.28961100
14 -1.43657300 0.00000600 0.00000200 -0.06360300 -0.04470400 0.86686500
15 -3.99235500 -0.89118800 -1.82790900 -0.78025900 0.17307400 1.46675000
16 -1.40591800 -0.00002500 -0.00000300 -0.00367800 -0.02926700 0.99905800
17 -1.17535800 0.00012800 -0.00002000 0.05253300 0.04304900 0.78906400
18 -4.52675100 -0.69057500 -1.12074400 -0.65011500 0.06546200 1.48915900
19 -1.74403800 0.00003300 -0.00000800 -0.02250200 -0.01921700 1.27480600
20 -1.36877100 0.00002500 0.00000200 -0.10229000 0.11604500 0.53700100
21 -2.03839600 -0.89278600 0.93250100 2.36324100 0.25208000 1.08394600
22 -1.62789200 0.15475000 0.01182600 -0.00662000 0.07351800 0.54761000
23 -1.59928500 0.00000400 0.00001600 0.03412200 -0.02595000 0.63135700
24 5.51181500 0.00000800 -0.00000100 2.08521193 0.00029039 3.14144592
25 0.19684700 -0.00000100 0.00000300 2.79340698 -0.00030630 -3.14151150
26 -3.57333700 -10.30087300 -4.21611600 1.97586200 1.15990900 1.84280300
27 6.21448500 0.00000600 0.00002000 -1.64522834 0.45349117 -1.97320199
28 11.94488500 -0.00002900 -0.00019400 0.55157579 -0.36037279 -1.64457845
29 10.62016600 0.00000200 0.00001000 -0.83307469 -0.06328583 -0.04411444
30 4.75115600 0.69437600 -0.83047300 -0.37637300 0.07881200 1.35439100
31 1.68806500 -0.00002600 0.00000200 -0.00347100 -0.02446200 1.58009600
32 1.33615100 -0.00005100 -0.00000900 -0.02215100 -0.03172300 0.98197400
33 4.82051300 0.50934000 0.22486500 -0.50063700 0.12138200 1.45898700
34 1.82699600 0.00006600 0.00000800 -0.00052800 0.04045200 1.26004100
35 1.43657700 -0.00001000 0.00000700 0.00061400 -0.01516400 0.80057800
36 3.99235300 0.89108700 1.82799400 -0.63825300 0.45000500 1.68495800
37 1.40591800 0.00002100 -0.00000700 0.00302100 -0.02668100 0.53198500
38 1.17536900 -0.00013100 0.00000200 0.09621900 0.07717700 0.85186600
39 4.52675600 0.69046000 1.12084200 -0.60701500 0.30252600 1.64564800
40 1.74404100 -0.00003100 -0.00000200 -0.01971500 -0.02201200 1.14392800
41 1.36876300 -0.00003100 -0.00001700 0.11094100 0.11360500 0.59145800
42 1.87485500 0.93508100 -0.99913000 1.73423600 0.54866600 0.82423200
43 1.63465400 0.06839200 -0.24034700 -0.03804600 -0.01615700 0.40534900
44 1.59928100 -0.00000200 0.00000900 0.08235700 -0.01382300 0.99159700
45 5.51180600 -0.00000200 0.00000600 -0.23316000 0.04797400 0.10850900
46 0.19685000 0.00000300 -0.00000200 -0.34822500 0.00001500 -0.00000200
47 0.00000000 0.00000000 0.00000000 0.00000000 0.00000000 -1.57079600
48 -4.48972800 28.88719400 -5.04376400 0.00000000 0.00000000 -3.14156200
49 -7.71009890 43.55565242 -0.07279075 0.42696397 0.26608800 -0.38043921
50 -8.91887300 -7.06266300 -4.36890800 2.69308000 -0.65443000 -1.59237900
51 9.84916700 0.50827700 -6.36703100 0.73444100 1.08733600 2.00982800
52 -0.08397300 4.02437800 -0.97013600 0.00000000 0.00000000 0.00000000
53 -0.02845300 1.25560200 2.42827100 0.00287800 0.06113500 3.13684400
54 0.00000200 0.36932600 0.00000000 0.13709100 0.04203900 0.01413800
55 -0.00000200 0.69374800 0.00000000 -0.01345900 0.01989000 -0.00781700
56 0.00000000 0.70755100 0.00000000 0.00027900 0.01959500 0.01088000
57 0.00000200 0.71297700 0.00000000 -0.24682100 -0.02787500 -0.02203300
58 0.00000000 0.69046800 0.00000000 -0.11844400 -0.11500800 -0.00755300
59 0.00000200 0.73369800 0.00000000 0.13258500 0.01734100 -0.00317500
60 0.00000000 0.69087100 0.00000000 -0.12926600 -0.01070400 -0.00148000
61 6.42393300 0.34876800 -5.01577800 0.00000000 0.00000000 0.00000000
62 -2.42126600 -0.06434200 2.97457600 0.00000000 0.00000000 0.00000000
63 -4.43046200 0.24946600 1.61685300 0.00000000 0.00000000 0.00000000
64 4.18981700 -0.00125400 0.72136700 0.00000000 0.00000000 0.00000000
65 4.17578900 1.49761600 0.35445500 0.00000000 0.00000000 0.00000000
66 -1.03843300 1.16832300 -1.66980300 0.00000000 0.00000000 0.00000000
67 -27.90720900 0.24821500 -0.86359500 0.00000000 0.00000000 0.00000000
68 0.96122400 -0.00234000 -0.00435700 0.00000000 0.00000000 0.00000000
69 0.96199000 -0.00079700 -0.00435700 0.00000000 0.00000000 0.00000000
time 1
0 -0.00000100 7.45008900 -27.50902600 0.00000000 0.00000000 0.00003100
1 -0.00000200 0.00000000 0.00000000 1.57074300 -1.56713700 -1.57074300
2 4.25546800 -0.33518300 -0.00000200 0.00000000 0.00000000 -0.12484800
3 7.43124800 1.49647700 0.00000200 0.00000000 0.00000000 0.24545000
4 5.27847900 0.16554100 0.00000100 0.00000000 0.00000000 0.04851100
5 -1.53874800 -12.43538500 11.02240100 1.97586400 1.15990900 -1.29878600
6 -6.21448200 -0.00000700 -0.00002700 2.89753523 -0.43076312 1.16542010
7 11.94488200 0.00000000 0.00000100 0.22594693 -0.34036850 1.41409981
8 10.62018100 0.00000200 0.00000000 1.13430609 0.69058475 -3.12613294
9 -4.75110600 -0.69449400 0.83057700 -0.22305500 -0.31747600 0.24566400
10 -1.68806800 0.00004600 -0.00003200 0.01535100 -0.01935500 0.77001100
11 -1.33614000 0.00005700 -0.00001200 0.02584200 0.00517300 0.35617200
12 -4.82049400 -0.50946000 -0.22475900 -0.55079600 -0.24209200 1.20817200
13 -1.82699200 -0.00006400 0.00000600 0.00062300 0.04047200 1.28961100
14 -1.43657300 0.00000600 0.00000200 -0.06360300 -0.04470400 0.86686500
15 -3.99235500 -0.89118800 -1.82790900 -0.78025900 0.17307400 1.46675000
16 -1.40591800 -0.00002500 -0.00000300 -0.00367800 -0.02926700 0.99905800
17 -1.17535800 0.00012800 -0.00002000 0.05253300 0.04304900 0.78906400
18 -4.52675100 -0.69057500 -1.12074400 -0.65011500 0.06546200 1.48915900
19 -1.74403800 0.00003300 -0.00000800 -0.02250200 -0.01921700 1.27480600
20 -1.36877100 0.00002500 0.00000200 -0.10229000 0.11604500 0.53700100
21 -2.03839600 -0.89278600 0.93250100 2.36324100 0.25208000 1.08394600
22 -1.62789200 0.15475000 0.01182600 -0.00662000 0.07351800 0.54761000
23 -1.59928500 0.00000400 0.00001600 0.03412200 -0.02595000 0.63135700
24 5.51181500 0.00000800 -0.00000100 2.08521193 0.00029039 3.14144592
25 0.19684700 -0.00000100 0.00000300 2.79340698 -0.00030630 -3.14151150
26 -3.57333700 -10.30087300 -4.21611600 1.97586200 1.15990900 1.84280300
27 6.21448500 0.00000600 0.00002000 -1.65188287 0.45242061 -1.96786662
28 11.94488500 -0.00002900 -0.00019400 0.50937189 -0.34541235 -1.65395294
29 10.62016600 0.00000200 0.00001000 -0.77955504 -0.05281531 -0.02631855
30 4.75115600 0.69437600 -0.83047300 -0.37637300 0.07881200 1.35439100
31 1.68806500 -0.00002600 0.00000200 -0.00347100 -0.02446200 1.58009600
32 1.33615100 -0.00005100 -0.00000900 -0.02215100 -0.03172300 0.98197400
33 4.82051300 0.50934000 0.22486500 -0.50063700 0.12138200 1.45898700
34 1.82699600 0.00006600 0.00000800 -0.00052800 0.04045200 1.26004100
35 1.43657700 -0.00001000 0.00000700 0.00061400 -0.01516400 0.80057800
36 3.99235300 0.89108700 1.82799400 -0.63825300 0.45000500 1.68495800
37 1.40591800 0.00002100 -0.00000700 0.00302100 -0.02668100 0.53198500
38 1.17536900 -0.00013100 0.00000200 0.09621900 0.07717700 0.85186600
39 4.52675600 0.69046000 1.12084200 -0.60701500 0.30252600 1.64564800
40 1.74404100 -0.00003100 -0.00000200 -0.01971500 -0.02201200 1.14392800
41 1.36876300 -0.00003100 -0.00001700 0.11094100 0.11360500 0.59145800
42 1.87485500 0.93508100 -0.99913000 1.73423600 0.54866600 0.82423200
43 1.63465400 0.06839200 -0.24034700 -0.03804600 -0.01615700 0.40534900
44 1.59928100 -0.00000200 0.00000900 0.08235700 -0.01382300 0.99159700
45 5.51180600 -0.00000200 0.00000600 -0.23316000 0.04797400 0.10850900
46 0.19685000 0.00000300 -0.00000200 -0.34822500 0.00001500 -0.00000200
47 0.00000000 0.00000000 0.00000000 0.00000000 0.00000000 -1.57079600
48 -4.48972800 28.88719400 -5.04376400 0.00000000 0.00000000 -3.14156200
49 -7.69803190 43.55564842 -0.06697961 0.41002879 0.26556625 -0.38122240
50 -8.91887300 -7.06266300 -4.36890800 2.69308000 -0.65443000 -1.59237900
51 9.84916700 0.50827700 -6.36703100 0.73444100 1.08733600 2.00982800
52 -0.08397300 4.02437800 -0.97013600 0.00000000 0.00000000 0.00000000
53 -0.02845300 1.25560200 2.42827100 0.00287800 0.06113500 3.13684400
54 0.00000200 0.36932600 0.00000000 0.13709100 0.04203900 0.01413800
55 -0.00000200 0.69374800 0.00000000 -0.01345900 0.01989000 -0.00781700
56 0.00000000 0.70755100 0.00000000 0.00027900 0.01959500 0.01088000
57 0.00000200 0.71297700 0.00000000 -0.24690800 -0.02787600 -0.02203100
58 0.00000000 0.69046800 0.00000000 -0.11844400 -0.11500800 -0.00755300
59 0.00000200 0.73369800 0.00000000 0.13258600 0.01733500 -0.00308900
60 0.00000000 0.69087100 0.00000000 -0.12926600 -0.01070400 -0.00148000
61 6.42393300 0.34876800 -5.01577800 0.00000000 0.00000000 0.00000000
62 -2.42126600 -0.06434200 2.97457600 0.00000000 0.00000000 0.00000000
63 -4.43046200 0.24946600 1.61685300 0.00000000 0.00000000 0.00000000
64 4.18981700 -0.00125400 0.72136700 0.00000000 0.00000000 0.00000000
65 4.17578900 1.49761600 0.35445500 0.00000000 0.00000000 0.00000000
66 -1.03843300 1.16832300 -1.66980300 0.00000000 0.00000000 0.00000000
67 -27.90720900 0.24821500 -0.86359500 0.00000000 0.00000000 0.00000000
68 0.96122400 -0.00234000 -0.00435700 0.00000000 0.00000000 0.00000000
69 0.96199000 -0.00079700 -0.00435700 0.00000000 0.00000000 0.00000000
time 2
0 -0.00000100 7.45008900 -27.50902600 0.00000000 0.00000000 0.00003100
1 -0.00000200 0.00000000 0.00000000 1.57074300 -1.56713700 -1.57074300
2 4.25546800 -0.33518300 -0.00000200 0.00000000 0.00000000 -0.12484800
3 7.43124800 1.49647700 0.00000200 0.00000000 0.00000000 0.24545000
4 5.27847900 0.16554100 0.00000100 0.00000000 0.00000000 0.04851100
5 -1.53874800 -12.43538500 11.02240100 1.97586400 1.15990900 -1.29878600
6 -6.21448200 -0.00000700 -0.00002700 2.89421168 -0.43196860 1.16816814
7 11.94488200 0.00000000 0.00000100 0.22207700 -0.34194896 1.42539127
8 10.62018100 0.00000200 0.00000000 1.12137349 0.69550981 3.13956037
9 -4.75110600 -0.69449400 0.83057700 -0.22305500 -0.31747600 0.24566400
10 -1.68806800 0.00004600 -0.00003200 0.01535100 -0.01935500 0.77001100
11 -1.33614000 0.00005700 -0.00001200 0.02584200 0.00517300 0.35617200
12 -4.82049400 -0.50946000 -0.22475900 -0.55079600 -0.24209200 1.20817200
13 -1.82699200 -0.00006400 0.00000600 0.00062300 0.04047200 1.28961100
14 -1.43657300 0.00000600 0.00000200 -0.06360300 -0.04470400 0.86686500
15 -3.99235500 -0.89118800 -1.82790900 -0.78025900 0.17307400 1.46675000
16 -1.40591800 -0.00002500 -0.00000300 -0.00367800 -0.02926700 0.99905800
17 -1.17535800 0.00012800 -0.00002000 0.05253300 0.04304900 0.78906400
18 -4.52675100 -0.69057500 -1.12074400 -0.65011500 0.06546200 1.48915900
19 -1.74403800 0.00003300 -0.00000800 -0.02250200 -0.01921700 1.27480600
20 -1.36877100 0.00002500 0.00000200 -0.10229000 0.11604500 0.53700100
21 -2.03839600 -0.89278600 0.93250100 2.36324100 0.25208000 1.08394600
22 -1.62789200 0.15475000 0.01182600 -0.00662000 0.07351800 0.54761000
23 -1.59928500 0.00000400 0.00001600 0.03412200 -0.02595000 0.63135700
24 5.51181500 0.00000800 -0.00000100 2.08521193 0.00029039 3.14144592
25 0.19684700 -0.00000100 0.00000300 2.79340698 -0.00030630 -3.14151150
26 -3.57333700 -10.30087300 -4.21611600 1.97586200 1.15990900 1.84280300
27 6.21448500 0.00000600 0.00002000 -1.65591999 0.45284553 -1.96259607
28 11.94488500 -0.00002900 -0.00019400 0.38734268 -0.32964986 -1.65750353
29 10.62016600 0.00000200 0.00001000 -0.65510742 -0.05121758 -0.01669159
30 4.75115600 0.69437600 -0.83047300 -0.37637300 0.07881200 1.35439100
31 1.68806500 -0.00002600 0.00000200 -0.00347100 -0.02446200 1.58009600
32 1.33615100 -0.00005100 -0.00000900 -0.02215100 -0.03172300 0.98197400
33 4.82051300 0.50934000 0.22486500 -0.50063700 0.12138200 1.45898700
34 1.82699600 0.00006600 0.00000800 -0.00052800 0.04045200 1.26004100
35 1.43657700 -0.00001000 0.00000700 0.00061400 -0.01516400 0.80057800
36 3.99235300 0.89108700 1.82799400 -0.63825300 0.45000500 1.68495800
37 1.40591800 0.00002100 -0.00000700 0.00302100 -0.02668100 0.53198500
38 1.17536900 -0.00013100 0.00000200 0.09621900 0.07717700 0.85186600
39 4.52675600 0.69046000 1.12084200 -0.60701500 0.30252600 1.64564800
40 1.74404100 -0.00003100 -0.00000200 -0.01971500 -0.02201200 1.14392800
41 1.36876300 -0.00003100 -0.00001700 0.11094100 0.11360500 0.59145800
42 1.87485500 0.93508100 -0.99913000 1.73423600 0.54866600 0.82423200
43 1.63465400 0.06839200 -0.24034700 -0.03804600 -0.01615700 0.40534900
44 1.59928100 -0.00000200 0.00000900 0.08235700 -0.01382300 0.99159700
45 5.51180600 -0.00000200 0.00000600 -0.23316000 0.04797400 0.10850900
46 0.19685000 0.00000300 -0.00000200 -0.34822500 0.00001500 -0.00000200
47 0.00000000 0.00000000 0.00000000 0.00000000 0.00000000 -1.57079600
48 -4.48972800 28.88719400 -5.04376400 0.00000000 0.00000000 -3.14156200
49 -7.65783911 43.55563642 -0.04450048 0.39875083 0.26400467 -0.38451746
50 -8.91887300 -7.06266300 -4.36890800 2.69308000 -0.65443000 -1.59237900
51 9.84916700 0.50827700 -6.36703100 0.73444100 1.08733600 2.00982800
52 -0.08397300 4.02437800 -0.97013600 0.00000000 0.00000000 0.00000000
53 -0.02845300 1.25560200 2.42827100 0.00287800 0.06113500 3.13684400
54 0.00000200 0.36932600 0.00000000 0.13709000 0.04204500 0.01405200
55 -0.00000200 0.69374800 0.00000000 -0.01345900 0.01989000 -0.00781700
56 0.00000000 0.70755100 0.00000000 0.00027900 0.01959500 0.01088000
57 0.00000200 0.71297700 0.00000000 -0.24682100 -0.02787500 -0.02203300
58 0.00000000 0.69046800 0.00000000 -0.11844400 -0.11500800 -0.00755300
59 0.00000200 0.73369800 0.00000000 0.13258500 0.01734100 -0.00317500
60 0.00000000 0.69087100 0.00000000 -0.12926600 -0.01070400 -0.00148000
61 6.42393300 0.34876800 -5.01577800 0.00000000 0.00000000 0.00000000
62 -2.42126600 -0.06434200 2.97457600 0.00000000 0.00000000 0.00000000
63 -4.43046200 0.24946600 1.61685300 0.00000000 0.00000000 0.00000000
64 4.18981700 -0.00125400 0.72136700 0.00000000 0.00000000 0.00000000
65 4.17578900 1.49761600 0.35445500 0.00000000 0.00000000 0.00000000
66 -1.03843300 1.16832300 -1.66980300 0.00000000 0.00000000 0.00000000
67 -27.90720900 0.24821500 -0.86359500 0.00000000 0.00000000 0.00000000
68 0.96122400 -0.00234000 -0.00435700 0.00000000 0.00000000 0.00000000
69 0.96199000 -0.00079700 -0.00435700 0.00000000 0.00000000 0.00000000
time 3
0 -0.00000100 7.45008900 -27.50902600 0.00000000 0.00000000 0.00003100
1 -0.00000200 0.00000000 0.00000000 1.57074300 -1.56713700 -1.57074300
2 4.25546800 -0.33518300 -0.00000200 0.00000000 0.00000000 -0.12484800
3 7.43124800 1.49647700 0.00000200 0.00000000 0.00000000 0.24545000
4 5.27847900 0.16554100 0.00000100 0.00000000 0.00000000 0.04851100
5 -1.53874800 -12.43538500 11.02240100 1.97586400 1.15990900 -1.29878600
6 -6.21448200 -0.00000700 -0.00002700 2.89526744 -0.43300046 1.18078776
7 11.94488200 0.00000000 0.00000100 0.21496284 -0.34383536 1.44637606
8 10.62018100 0.00000200 0.00000000 1.13505281 0.68995069 3.12605036
9 -4.75110600 -0.69449400 0.83057700 -0.22305500 -0.31747600 0.24566400
10 -1.68806800 0.00004600 -0.00003200 0.01535100 -0.01935500 0.77001100
11 -1.33614000 0.00005700 -0.00001200 0.02584200 0.00517300 0.35617200
12 -4.82049400 -0.50946000 -0.22475900 -0.55079600 -0.24209200 1.20817200
13 -1.82699200 -0.00006400 0.00000600 0.00062300 0.04047200 1.28961100
14 -1.43657300 0.00000600 0.00000200 -0.06360300 -0.04470400 0.86686500
15 -3.99235500 -0.89118800 -1.82790900 -0.78025900 0.17307400 1.46675000
16 -1.40591800 -0.00002500 -0.00000300 -0.00367800 -0.02926700 0.99905800
17 -1.17535800 0.00012800 -0.00002000 0.05253300 0.04304900 0.78906400
18 -4.52675100 -0.69057500 -1.12074400 -0.65011500 0.06546200 1.48915900
19 -1.74403800 0.00003300 -0.00000800 -0.02250200 -0.01921700 1.27480600
20 -1.36877100 0.00002500 0.00000200 -0.10229000 0.11604500 0.53700100
21 -2.03839600 -0.89278600 0.93250100 2.36324100 0.25208000 1.08394600
22 -1.62789200 0.15475000 0.01182600 -0.00662000 0.07351800 0.54761000
23 -1.59928500 0.00000400 0.00001600 0.03412200 -0.02595000 0.63135700
24 5.51181500 0.00000800 -0.00000100 2.08521193 0.00029039 3.14144592
25 0.19684700 -0.00000100 0.00000300 2.79340698 -0.00030630 -3.14151150
26 -3.57333700 -10.30087300 -4.21611600 1.97586200 1.15990900 1.84280300
27 6.21448500 0.00000600 0.00002000 -1.64832080 0.45985526 -1.96342237
28 11.94488500 -0.00002900 -0.00019400 0.20543450 -0.32823146 -1.64481698
29 10.62016600 0.00000200 0.00001000 -0.49388505 -0.06378788 -0.03905610
30 4.75115600 0.69437600 -0.83047300 -0.37637300 0.07881200 1.35439100
31 1.68806500 -0.00002600 0.00000200 -0.00347100 -0.02446200 1.58009600
32 1.33615100 -0.00005100 -0.00000900 -0.02215100 -0.03172300 0.98197400
33 4.82051300 0.50934000 0.22486500 -0.50063700 0.12138200 1.45898700
34 1.82699600 0.00006600 0.00000800 -0.00052800 0.04045200 1.26004100
35 1.43657700 -0.00001000 0.00000700 0.00061400 -0.01516400 0.80057800
36 3.99235300 0.89108700 1.82799400 -0.63825300 0.45000500 1.68495800
37 1.40591800 0.00002100 -0.00000700 0.00302100 -0.02668100 0.53198500
38 1.17536900 -0.00013100 0.00000200 0.09621900 0.07717700 0.85186600
39 4.52675600 0.69046000 1.12084200 -0.60701500 0.30252600 1.64564800
40 1.74404100 -0.00003100 -0.00000200 -0.01971500 -0.02201200 1.14392800
41 1.36876300 -0.00003100 -0.00001700 0.11094100 0.11360500 0.59145800
42 1.87485500 0.93508100 -0.99913000 1.73423600 0.54866600 0.82423200
43 1.63465400 0.06839200 -0.24034700 -0.03804600 -0.01615700 0.40534900
44 1.59928100 -0.00000200 0.00000900 0.08235700 -0.01382300 0.99159700
45 5.51180600 -0.00000200 0.00000600 -0.23316000 0.04797400 0.10850900
46 0.19685000 0.00000300 -0.00000200 -0.34822500 0.00001500 -0.00000200
47 0.00000000 0.00000000 0.00000000 0.00000000 0.00000000 -1.57079600
48 -4.48972800 28.88719400 -5.04376400 0.00000000 0.00000000 -3.14156200
49 -7.56786097 43.55561042 -0.03813368 0.40823745 0.25933467 -0.39456498
50 -8.91887300 -7.06266300 -4.36890800 2.69308000 -0.65443000 -1.59237900
51 9.84916700 0.50827700 -6.36703100 0.73444100 1.08733600 2.00982800
52 -0.08397300 4.02437800 -0.97013600 0.00000000 0.00000000 0.00000000
53 -0.02845300 1.25560200 2.42827100 0.00287800 0.06113500 3.13684400
54 0.00000200 0.36932600 0.00000000 0.13709100 0.04203900 0.01413800
55 -0.00000200 0.69374800 0.00000000 -0.01345900 0.01989000 -0.00781700
56 0.00000000 0.70755100 0.00000000 0.00027900 0.01959500 0.01088000
57 0.00000200 0.71297700 0.00000000 -0.24682100 -0.02787500 -0.02203300
58 0.00000000 0.69046800 0.00000000 -0.11844400 -0.11500800 -0.00755300
59 0.00000200 0.73369800 0.00000000 0.13258500 0.01734100 -0.00317500
60 0.00000000 0.69087100 0.00000000 -0.12926600 -0.01070400 -0.00148000
61 6.42393300 0.34876800 -5.01577800 0.00000000 0.00000000 0.00000000
62 -2.42126600 -0.06434200 2.97457600 0.00000000 0.00000000 0.00000000
63 -4.43046200 0.24946600 1.61685300 0.00000000 0.00000000 0.00000000
64 4.18981700 -0.00125400 0.72136700 0.00000000 0.00000000 0.00000000
65 4.17578900 1.49761600 0.35445500 0.00000000 0.00000000 0.00000000
66 -1.03843300 1.16832300 -1.66980300 0.00000000 0.00000000 0.00000000
67 -27.90720900 0.24821500 -0.86359500 0.00000000 0.00000000 0.00000000
68 0.96122400 -0.00234000 -0.00435700 0.00000000 0.00000000 0.00000000
69 0.96199000 -0.00079700 -0.00435700 0.00000000 0.00000000 0.00000000
time 4
0 -0.00000100 7.45008900 -27.50902600 0.00000000 0.00000000 0.00003100
1 -0.00000200 0.00000000 0.00000000 1.57074300 -1.56713700 -1.57074300
2 4.25546800 -0.33518300 -0.00000200 0.00000000 0.00000000 -0.12484800
3 7.43124800 1.49647700 0.00000200 0.00000000 0.00000000 0.24545000
4 5.27847900 0.16554100 0.00000100 0.00000000 0.00000000 0.04851100
5 -1.28469000 -12.02568800 10.55670300 1.97586400 1.15990900 -1.29878600
6 -6.21448200 -0.00000700 -0.00002700 2.89513752 -0.44478806 1.24562827
7 11.94488200 0.00000000 0.00000100 0.20266846 -0.34574741 1.48245355
8 10.62018100 0.00000200 0.00000000 1.16886863 0.66064078 3.14077528
9 -4.75110600 -0.69449400 0.83057700 -0.22305500 -0.31747600 0.24566400
10 -1.68806800 0.00004600 -0.00003200 0.01535100 -0.01935500 0.77001100
11 -1.33614000 0.00005700 -0.00001200 0.02584200 0.00517300 0.35617200
12 -4.82049400 -0.50946000 -0.22475900 -0.55079600 -0.24209200 1.20817200
13 -1.82699200 -0.00006400 0.00000600 0.00062300 0.04047200 1.28961100
14 -1.43657300 0.00000600 0.00000200 -0.06360300 -0.04470400 0.86686500
15 -3.99235500 -0.89118800 -1.82790900 -0.78025900 0.17307400 1.46675000
16 -1.40591800 -0.00002500 -0.00000300 -0.00367800 -0.02926700 0.99905800
17 -1.17535800 0.00012800 -0.00002000 0.05253300 0.04304900 0.78906400
18 -4.52675100 -0.69057500 -1.12074400 -0.65011500 0.06546200 1.48915900
19 -1.74403800 0.00003300 -0.00000800 -0.02250200 -0.01921700 1.27480600
20 -1.36877100 0.00002500 0.00000200 -0.10229000 0.11604500 0.53700100
21 -2.03839600 -0.89278600 0.93250100 2.36324100 0.25208000 1.08394600
22 -1.62789200 0.15475000 0.01182600 -0.00662000 0.07351800 0.54761000
23 -1.59928500 0.00000400 0.00001600 0.03412200 -0.02595000 0.63135700
24 5.51181500 0.00000800 -0.00000100 2.08521193 0.00029039 3.14144592
25 0.19684700 -0.00000100 0.00000300 2.79340698 -0.00030630 -3.14151150
26 -3.57333700 -10.30087300 -4.21611600 1.97586200 1.15990900 1.84280300
27 6.21448500 0.00000600 0.00002000 -1.62914303 0.47446687 -1.96659131
28 11.94488500 -0.00002900 -0.00019400 -0.00543075 -0.33144225 -1.61858277
29 10.62016600 0.00000200 0.00001000 -0.32302320 -0.07857718 -0.08230169
30 4.75115600 0.69437600 -0.83047300 -0.37637300 0.07881200 1.35439100
31 1.68806500 -0.00002600 0.00000200 -0.00347100 -0.02446200 1.58009600
32 1.33615100 -0.00005100 -0.00000900 -0.02215100 -0.03172300 0.98197400
33 4.82051300 0.50934000 0.22486500 -0.50063700 0.12138200 1.45898700
34 1.82699600 0.00006600 0.00000800 -0.00052800 0.04045200 1.26004100
35 1.43657700 -0.00001000 0.00000700 0.00061400 -0.01516400 0.80057800
36 3.99235300 0.89108700 1.82799400 -0.63825300 0.45000500 1.68495800
37 1.40591800 0.00002100 -0.00000700 0.00302100 -0.02668100 0.53198500
38 1.17536900 -0.00013100 0.00000200 0.09621900 0.07717700 0.85186600
39 4.52675600 0.69046000 1.12084200 -0.60701500 0.30252600 1.64564800
40 1.74404100 -0.00003100 -0.00000200 -0.01971500 -0.02201200 1.14392800
41 1.36876300 -0.00003100 -0.00001700 0.11094100 0.11360500 0.59145800
42 1.87485500 0.93508100 -0.99913000 1.73423600 0.54866600 0.82423200
43 1.63465400 0.06839200 -0.24034700 -0.03804600 -0.01615700 0.40534900
44 1.59928100 -0.00000200 0.00000900 0.08235700 -0.01382300 0.99159700
45 5.51180600 -0.00000200 0.00000600 -0.23316000 0.04797400 0.10850900
46 0.19685000 0.00000300 -0.00000200 -0.34822500 0.00001500 -0.00000200
47 0.00000000 0.00000000 0.00000000 0.00000000 0.00000000 -1.57079600
48 -4.48972800 28.88719400 -5.04376400 0.00000000 0.00000000 -3.14156200
49 -7.38368883 43.55556442 -0.06620000 0.42395899 0.24956148 -0.41734557
50 -8.91887300 -7.06266300 -4.36890800 2.69308000 -0.65443000 -1.59237900
51 9.84916700 0.50827700 -6.36703100 0.73444100 1.08733600 2.00982800
52 -0.08397300 4.02437800 -0.97013600 0.00000000 0.00000000 0.00000000
53 -0.02845300 1.25560200 2.42827100 0.00287800 0.06113500 3.13684400
54 0.00000200 0.36932600 0.00000000 0.13709100 0.04203900 0.01413800
55 -0.00000200 0.69374800 0.00000000 -0.01345900 0.01989000 -0.00781700
56 0.00000000 0.70755100 0.00000000 0.00027900 0.01959500 0.01088000
57 0.00000200 0.71297700 0.00000000 -0.24690800 -0.02787600 -0.02203100
58 0.00000000 0.69046800 0.00000000 -0.11844400 -0.11500800 -0.00755300
59 0.00000200 0.73369800 0.00000000 0.13258500 0.01734100 -0.00317500
60 0.00000000 0.69087100 0.00000000 -0.12926600 -0.01070400 -0.00148000
61 6.42393300 0.34876800 -5.01577800 0.00000000 0.00000000 0.00000000
62 -2.42126600 -0.06434200 2.97457600 0.00000000 0.00000000 0.00000000
63 -4.43046200 0.24946600 1.61685300 0.00000000 0.00000000 0.00000000
64 4.18981700 -0.00125400 0.72136700 0.00000000 0.00000000 0.00000000
65 4.17578900 1.49761600 0.35445500 0.00000000 0.00000000 0.00000000
66 -1.03843300 1.16832300 -1.66980300 0.00000000 0.00000000 0.00000000
67 -27.90720900 0.24821500 -0.86359500 0.00000000 0.00000000 0.00000000
68 0.96122400 -0.00234000 -0.00435700 0.00000000 0.00000000 0.00000000
69 0.96199000 -0.00079700 -0.00435700 0.00000000 0.00000000 0.00000000
time 5
0 -0.00000100 7.45008900 -27.50902600 0.00000000 0.00000000 0.00003100
1 -0.00000200 0.00000000 0.00000000 1.57074300 -1.56713700 -1.57074300
2 4.25546800 -0.33518300 -0.00000200 0.00000000 0.00000000 -0.12484800
3 7.43124800 1.49647700 0.00000200 0.00000000 0.00000000 0.24545000
4 5.27847900 0.16554100 0.00000100 0.00000000 0.00000000 0.04851100
5 -0.61489500 -10.94558000 9.32895500 1.97586400 1.15990900 -1.29878600
6 -6.21448200 -0.00000700 -0.00002700 2.89907367 -0.47889893 1.39129042
7 11.94488200 0.00000000 0.00000100 0.18533071 -0.34707216 1.53317795
8 10.62018100 0.00000200 0.00000000 1.22476151 0.58959003 -3.08997789
9 -4.75110600 -0.69449400 0.83057700 -0.22305500 -0.31747600 0.24566400
10 -1.68806800 0.00004600 -0.00003200 0.01535100 -0.01935500 0.77001100
11 -1.33614000 0.00005700 -0.00001200 0.02584200 0.00517300 0.35617200
12 -4.82049400 -0.50946000 -0.22475900 -0.55079600 -0.24209200 1.20817200
13 -1.82699200 -0.00006400 0.00000600 0.00062300 0.04047200 1.28961100
14 -1.43657300 0.00000600 0.00000200 -0.06360300 -0.04470400 0.86686500
15 -3.99235500 -0.89118800 -1.82790900 -0.78025900 0.17307400 1.46675000
16 -1.40591800 -0.00002500 -0.00000300 -0.00367800 -0.02926700 0.99905800
17 -1.17535800 0.00012800 -0.00002000 0.05253300 0.04304900 0.78906400
18 -4.52675100 -0.69057500 -1.12074400 -0.65011500 0.06546200 1.48915900
19 -1.74403800 0.00003300 -0.00000800 -0.02250200 -0.01921700 1.27480600
20 -1.36877100 0.00002500 0.00000200 -0.10229000 0.11604500 0.53700100
21 -2.03839600 -0.89278600 0.93250100 2.36324100 0.25208000 1.08394600
22 -1.62789200 0.15475000 0.01182600 -0.00662000 0.07351800 0.54761000
23 -1.59928500 0.00000400 0.00001600 0.03412200 -0.02595000 0.63135700
24 5.51181500 0.00000800 -0.00000100 2.08521193 0.00029039 3.14144592
25 0.19684700 -0.00000100 0.00000300 2.79340698 -0.00030630 -3.14151150
26 -3.62213500 -10.47429800 -4.20270000 1.97586200 1.15990900 1.84280300
27 6.21448500 0.00000600 0.00002000 -1.58578531 0.50273534 -1.96764128
28 11.94488500 -0.00002900 -0.00019400 -0.20808578 -0.33376798 -1.58876728
29 10.62016600 0.00000200 0.00001000 -0.18821380 -0.10253496 -0.13091612
30 4.75115600 0.69437600 -0.83047300 -0.37637300 0.07881200 1.35439100
31 1.68806500 -0.00002600 0.00000200 -0.00347100 -0.02446200 1.58009600
32 1.33615100 -0.00005100 -0.00000900 -0.02215100 -0.03172300 0.98197400
33 4.82051300 0.50934000 0.22486500 -0.50063700 0.12138200 1.45898700
34 1.82699600 0.00006600 0.00000800 -0.00052800 0.04045200 1.26004100
35 1.43657700 -0.00001000 0.00000700 0.00061400 -0.01516400 0.80057800
36 3.99235300 0.89108700 1.82799400 -0.63825300 0.45000500 1.68495800
37 1.40591800 0.00002100 -0.00000700 0.00302100 -0.02668100 0.53198500
38 1.17536900 -0.00013100 0.00000200 0.09621900 0.07717700 0.85186600
39 4.52675600 0.69046000 1.12084200 -0.60701500 0.30252600 1.64564800
40 1.74404100 -0.00003100 -0.00000200 -0.01971500 -0.02201200 1.14392800
41 1.36876300 -0.00003100 -0.00001700 0.11094100 0.11360500 0.59145800
42 1.87485500 0.93508100 -0.99913000 1.73423600 0.54866600 0.82423200
43 1.63465400 0.06839200 -0.24034700 -0.03804600 -0.01615700 0.40534900
44 1.59928100 -0.00000200 0.00000900 0.08235700 -0.01382300 0.99159700
45 5.51180600 -0.00000200 0.00000600 -0.23316000 0.04797400 0.10850900
46 0.19685000 0.00000300 -0.00000200 -0.34822500 0.00001500 -0.00000200
47 0.00000000 0.00000000 0.00000000 0.00000000 0.00000000 -1.57079600
48 -4.48972800 28.88719400 -5.04376400 0.00000000 0.00000000 -3.14156200
49 -7.00268013 43.55548842 -0.14540503 0.43928848 0.23144102 -0.46752473
50 -8.91887300 -7.06266300 -4.36890800 2.69308000 -0.65443000 -1.59237900
51 9.84916700 0.50827700 -6.36703100 0.73444100 1.08733600 2.00982800
52 -0.08397300 4.02437800 -0.97013600 0.00000000 0.00000000 0.00000000
53 -0.02845300 1.25560200 2.42827100 0.00287800 0.06113500 3.13684400
54 0.00000200 0.36932600 0.00000000 0.13709100 0.04203900 0.01413800
55 -0.00000200 0.69374800 0.00000000 -0.01345900 0.01989000 -0.00781700
56 0.00000000 0.70755100 0.00000000 0.00027900 0.01959500 0.01088000
57 0.00000200 0.71297700 0.00000000 -0.24690800 -0.02787600 -0.02203100
58 0.00000000 0.69046800 0.00000000 -0.11844400 -0.11500800 -0.00755300
59 0.00000200 0.73369800 0.00000000 0.13258600 0.01733500 -0.00308900
60 0.00000000 0.69087100 0.00000000 -0.12926600 -0.01070400 -0.00148000
61 6.42393300 0.34876800 -5.01577800 0.00000000 0.00000000 0.00000000
62 -2.42126600 -0.06434200 2.97457600 0.00000000 0.00000000 0.00000000
63 -4.43046200 0.24946600 1.61685300 0.00000000 0.00000000 0.00000000
64 4.18981700 -0.00125400 0.72136700 0.00000000 0.00000000 0.00000000
65 4.17578900 1.49761600 0.35445500 0.00000000 0.00000000 0.00000000
66 -1.03843300 1.16832300 -1.66980300 0.00000000 0.00000000 0.00000000
67 -27.90720900 0.24821500 -0.86359500 0.00000000 0.00000000 0.00000000
68 0.96122400 -0.00234000 -0.00435700 0.00000000 0.00000000 0.00000000
69 0.96199000 -0.00079700 -0.00435700 0.00000000 0.00000000 0.00000000
time 6
0 -0.00000100 7.45008900 -27.50902600 0.00000000 0.00000000 0.00003100
1 -0.00000200 0.00000000 0.00000000 1.57074300 -1.56713700 -1.57074300
2 4.25546800 -0.33518300 -0.00000200 0.00000000 0.00000000 -0.12484800
3 7.43124800 1.49647700 0.00000200 0.00000000 0.00000000 0.24545000
4 5.27847900 0.16554100 0.00000100 0.00000000 0.00000000 0.04851100
5 0.33205400 -9.41853300 7.59317500 1.97586400 1.15990900 -1.29878600
6 -6.21448200 -0.00000700 -0.00002700 2.90987623 -0.54091895 1.60842637
7 11.94488200 0.00000000 0.00000100 0.15546324 -0.34669563 1.62037239
8 10.62018100 0.00000200 0.00000000 1.30490885 0.49717631 -3.06633479
9 -4.75110600 -0.69449400 0.83057700 -0.22305500 -0.31747600 0.24566400
10 -1.68806800 0.00004600 -0.00003200 0.01535100 -0.01935500 0.77001100
11 -1.33614000 0.00005700 -0.00001200 0.02584200 0.00517300 0.35617200
12 -4.82049400 -0.50946000 -0.22475900 -0.55079600 -0.24209200 1.20817200
13 -1.82699200 -0.00006400 0.00000600 0.00062300 0.04047200 1.28961100
14 -1.43657300 0.00000600 0.00000200 -0.06360300 -0.04470400 0.86686500
15 -3.99235500 -0.89118800 -1.82790900 -0.78025900 0.17307400 1.46675000
16 -1.40591800 -0.00002500 -0.00000300 -0.00367800 -0.02926700 0.99905800
17 -1.17535800 0.00012800 -0.00002000 0.05253300 0.04304900 0.78906400
18 -4.52675100 -0.69057500 -1.12074400 -0.65011500 0.06546200 1.48915900
19 -1.74403800 0.00003300 -0.00000800 -0.02250200 -0.01921700 1.27480600
20 -1.36877100 0.00002500 0.00000200 -0.10229000 0.11604500 0.53700100
21 -2.03839600 -0.89278600 0.93250100 2.36324100 0.25208000 1.08394600
22 -1.62789200 0.15475000 0.01182600 -0.00662000 0.07351800 0.54761000
23 -1.59928500 0.00000400 0.00001600 0.03412200 -0.02595000 0.63135700
24 5.51181500 0.00000800 -0.00000100 2.08521193 0.00029039 3.14144592
25 0.19684700 -0.00000100 0.00000300 2.79340698 -0.00030630 -3.14151150
26 -3.75593400 -10.94982100 -4.16591500 1.97586200 1.15990900 1.84280300
27 6.21448500 0.00000600 0.00002000 -1.46638642 0.54635415 -1.95370697
28 11.94488500 -0.00002900 -0.00019400 -0.38189564 -0.33572343 -1.52944074
29 10.62016600 0.00000200 0.00001000 -0.15352451 -0.16973444 -0.19351441
30 4.75115600 0.69437600 -0.83047300 -0.37637300 0.07881200 1.35439100
31 1.68806500 -0.00002600 0.00000200 -0.00347100 -0.02446200 1.58009600
32 1.33615100 -0.00005100 -0.00000900 -0.02215100 -0.03172300 0.98197400
33 4.82051300 0.50934000 0.22486500 -0.50063700 0.12138200 1.45898700
34 1.82699600 0.00006600 0.00000800 -0.00052800 0.04045200 1.26004100
35 1.43657700 -0.00001000 0.00000700 0.00061400 -0.01516400 0.80057800
36 3.99235300 0.89108700 1.82799400 -0.63825300 0.45000500 1.68495800
37 1.40591800 0.00002100 -0.00000700 0.00302100 -0.02668100 0.53198500
38 1.17536900 -0.00013100 0.00000200 0.09621900 0.07717700 0.85186600
39 4.52675600 0.69046000 1.12084200 -0.60701500 0.30252600 1.64564800
40 1.74404100 -0.00003100 -0.00000200 -0.01971500 -0.02201200 1.14392800
41 1.36876300 -0.00003100 -0.00001700 0.11094100 0.11360500 0.59145800
42 1.87485500 0.93508100 -0.99913000 1.73423600 0.54866600 0.82423200
43 1.63465400 0.06839200 -0.24034700 -0.03804600 -0.01615700 0.40534900
44 1.59928100 -0.00000200 0.00000900 0.08235700 -0.01382300 0.99159700
45 5.51180600 -0.00000200 0.00000600 -0.23316000 0.04797400 0.10850900
46 0.19685000 0.00000300 -0.00000200 -0.34822500 0.00001500 -0.00000200
47 0.00000000 0.00000000 0.00000000 0.00000000 0.00000000 -1.57079600
48 -4.48972800 28.88719400 -5.04376400 0.00000000 0.00000000 -3.14156200
49 -6.18842249 43.55536642 -0.29885994 0.44786659 0.19982904 -0.58513974
50 -8.91887300 -7.06266300 -4.36890800 2.69308000 -0.65443000 -1.59237900
51 9.84916700 0.50827700 -6.36703100 0.73444100 1.08733600 2.00982800
52 -0.08397300 4.02437800 -0.97013600 0.00000000 0.00000000 0.00000000
53 -0.02845300 1.25560200 2.42827100 0.00287800 0.06113500 3.13684400
54 0.00000200 0.36932600 0.00000000 0.13709100 0.04203900 0.01413800
55 -0.00000200 0.69374800 0.00000000 -0.01345900 0.01989000 -0.00781700
56 0.00000000 0.70755100 0.00000000 0.00027900 0.01959500 0.01088000
57 0.00000200 0.71297700 0.00000000 -0.24682100 -0.02787500 -0.02203300
58 0.00000000 0.69046800 0.00000000 -0.11844400 -0.11500800 -0.00755300
59 0.00000200 0.73369800 0.00000000 0.13258500 0.01734100 -0.00317500
60 0.00000000 0.69087100 0.00000000 -0.12926600 -0.01070400 -0.00148000
61 6.42393300 0.34876800 -5.01577800 0.00000000 0.00000000 0.00000000
62 -2.42126600 -0.06434200 2.97457600 0.00000000 0.00000000 0.00000000
63 -4.43046200 0.24946600 1.61685300 0.00000000 0.00000000 0.00000000
64 4.18981700 -0.00125400 0.72136700 0.00000000 0.00000000 0.00000000
65 4.17578900 1.49761600 0.35445500 0.00000000 0.00000000 0.00000000
66 -1.03843300 1.16832300 -1.66980300 0.00000000 0.00000000 0.00000000
67 -27.90720900 0.24821500 -0.86359500 0.00000000 0.00000000 0.00000000
68 0.96122400 -0.00234000 -0.00435700 0.00000000 0.00000000 0.00000000
69 0.96199000 -0.00079700 -0.00435700 0.00000000 0.00000000 0.00000000
time 7
0 -0.00000100 7.45008900 -27.50902600 0.00000000 0.00000000 0.00003100
1 -0.00000200 0.00000000 0.00000000 1.57074300 -1.56713700 -1.57074300
2 4.25546800 -0.33518300 -0.00000200 0.00000000 0.00000000 -0.12484800
3 7.43124800 1.49647700 0.00000200 0.00000000 0.00000000 0.24545000
4 5.27847900 0.16554100 0.00000100 0.00000000 0.00000000 0.04851100
5 1.41758100 -7.66801500 5.60338000 1.97586400 1.15990900 -1.29878600
6 -6.21448200 -0.00000700 -0.00002700 2.91423616 -0.61487090 1.84893627
7 11.94488200 0.00000000 0.00000100 0.12421942 -0.34373002 1.71217932
8 10.62018100 0.00000200 0.00000000 1.39147791 0.43990944 -3.09002804
9 -4.75110600 -0.69449400 0.83057700 -0.22305500 -0.31747600 0.24566400
10 -1.68806800 0.00004600 -0.00003200 0.01535100 -0.01935500 0.77001100
11 -1.33614000 0.00005700 -0.00001200 0.02584200 0.00517300 0.35617200
12 -4.82049400 -0.50946000 -0.22475900 -0.55079600 -0.24209200 1.20817200
13 -1.82699200 -0.00006400 0.00000600 0.00062300 0.04047200 1.28961100
14 -1.43657300 0.00000600 0.00000200 -0.06360300 -0.04470400 0.86686500
15 -3.99235500 -0.89118800 -1.82790900 -0.78025900 0.17307400 1.46675000
16 -1.40591800 -0.00002500 -0.00000300 -0.00367800 -0.02926700 0.99905800
17 -1.17535800 0.00012800 -0.00002000 0.05253300 0.04304900 0.78906400
18 -4.52675100 -0.69057500 -1.12074400 -0.65011500 0.06546200 1.48915900
19 -1.74403800 0.00003300 -0.00000800 -0.02250200 -0.01921700 1.27480600
20 -1.36877100 0.00002500 0.00000200 -0.10229000 0.11604500 0.53700100
21 -2.03839600 -0.89278600 0.93250100 2.36324100 0.25208000 1.08394600
22 -1.62789200 0.15475000 0.01182600 -0.00662000 0.07351800 0.54761000
23 -1.59928500 0.00000400 0.00001600 0.03412200 -0.02595000 0.63135700
24 5.51181500 0.00000800 -0.00000100 2.08521193 0.00029039 3.14144592
25 0.19684700 -0.00000100 0.00000300 2.79340698 -0.00030630 -3.14151150
26 -3.95584600 -11.66030900 -4.11095500 1.97586200 1.15990900 1.84280300
27 6.21448500 0.00000600 0.00002000 -1.23230971 0.56171098 -1.91219922
28 11.94488500 -0.00002900 -0.00019400 -0.51895582 -0.33671968 -1.40973196
29 10.62016600 0.00000200 0.00001000 -0.24892488 -0.28434313 -0.25710358
30 4.75115600 0.69437600 -0.83047300 -0.37637300 0.07881200 1.35439100
31 1.68806500 -0.00002600 0.00000200 -0.00347100 -0.02446200 1.58009600
32 1.33615100 -0.00005100 -0.00000900 -0.02215100 -0.03172300 0.98197400
33 4.82051300 0.50934000 0.22486500 -0.50063700 0.12138200 1.45898700
34 1.82699600 0.00006600 0.00000800 -0.00052800 0.04045200 1.26004100
35 1.43657700 -0.00001000 0.00000700 0.00061400 -0.01516400 0.80057800
36 3.99235300 0.89108700 1.82799400 -0.63825300 0.45000500 1.68495800
37 1.40591800 0.00002100 -0.00000700 0.00302100 -0.02668100 0.53198500
38 1.17536900 -0.00013100 0.00000200 0.09621900 0.07717700 0.85186600
39 4.52675600 0.69046000 1.12084200 -0.60701500 0.30252600 1.64564800
40 1.74404100 -0.00003100 -0.00000200 -0.01971500 -0.02201200 1.14392800
41 1.36876300 -0.00003100 -0.00001700 0.11094100 0.11360500 0.59145800
42 1.87485500 0.93508100 -0.99913000 1.73423600 0.54866600 0.82423200
43 1.63465400 0.06839200 -0.24034700 -0.03804600 -0.01615700 0.40534900
44 1.59928100 -0.00000200 0.00000900 0.08235700 -0.01382300 0.99159700
45 5.51180600 -0.00000200 0.00000600 -0.23316000 0.04797400 0.10850900
46 0.19685000 0.00000300 -0.00000200 -0.34822500 0.00001500 -0.00000200
47 0.00000000 0.00000000 0.00000000 0.00000000 0.00000000 -1.57079600
48 -4.48972800 28.88719400 -5.04376400 0.00000000 0.00000000 -3.14156200
49 -4.98602436 43.55526642 -0.44864565 0.43611196 0.16299977 -0.77978932
50 -8.91887300 -7.06266300 -4.36890800 2.69308000 -0.65443000 -1.59237900
51 9.84916700 0.50827700 -6.36703100 0.73444100 1.08733600 2.00982800
52 -0.08397300 4.02437800 -0.97013600 0.00000000 0.00000000 0.00000000
53 -0.02845300 1.25560200 2.42827100 0.00287800 0.06113500 3.13684400
54 0.00000200 0.36932600 0.00000000 0.13709000 0.04204500 0.01405200
55 -0.00000200 0.69374800 0.00000000 -0.01345900 0.01989000 -0.00781700
56 0.00000000 0.70755100 0.00000000 0.00027900 0.01959500 0.01088000
57 0.00000200 0.71297700 0.00000000 -0.24682100 -0.02787500 -0.02203300
58 0.00000000 0.69046800 0.00000000 -0.11844400 -0.11500800 -0.00755300
59 0.00000200 0.73369800 0.00000000 0.13258500 0.01734100 -0.00317500
60 0.00000000 0.69087100 0.00000000 -0.12926600 -0.01070400 -0.00148000
61 6.42393300 0.34876800 -5.01577800 0.00000000 0.00000000 0.00000000
62 -2.42126600 -0.06434200 2.97457600 0.00000000 0.00000000 0.00000000
63 -4.43046200 0.24946600 1.61685300 0.00000000 0.00000000 0.00000000
64 4.18981700 -0.00125400 0.72136700 0.00000000 0.00000000 0.00000000
65 4.17578900 1.49761600 0.35445500 0.00000000 0.00000000 0.00000000
66 -1.03843300 1.16832300 -1.66980300 0.00000000 0.00000000 0.00000000
67 -27.90720900 0.24821500 -0.86359500 0.00000000 0.00000000 0.00000000
68 0.96122400 -0.00234000 -0.00435700 0.00000000 0.00000000 0.00000000
69 0.96199000 -0.00079700 -0.00435700 0.00000000 0.00000000 0.00000000
time 8
0 -0.00000100 7.45008900 -27.50902600 0.00000000 0.00000000 0.00003100
1 -0.00000200 0.00000000 0.00000000 1.57074300 -1.56713700 -1.57074300
2 4.25546800 -0.33518300 -0.00000200 0.00000000 0.00000000 -0.12484800
3 7.43124800 1.49647700 0.00000200 0.00000000 0.00000000 0.24545000
4 5.27847900 0.16554100 0.00000100 0.00000000 0.00000000 0.04851100
5 2.50310900 -5.91749800 3.61358500 1.97586400 1.15990900 -1.29878600
6 -6.21448200 -0.00000700 -0.00002700 2.92613970 -0.66056776 2.01503629
7 11.94488200 0.00000000 0.00000100 0.12507704 -0.34435828 1.70959320
8 10.62018100 0.00000200 0.00000000 1.43836963 0.42135464 -3.08860683
9 -4.75110600 -0.69449400 0.83057700 -0.22305500 -0.31747600 0.24566400
10 -1.68806800 0.00004600 -0.00003200 0.01535100 -0.01935500 0.77001100
11 -1.33614000 0.00005700 -0.00001200 0.02584200 0.00517300 0.35617200
12 -4.82049400 -0.50946000 -0.22475900 -0.55079600 -0.24209200 1.20817200
13 -1.82699200 -0.00006400 0.00000600 0.00062300 0.04047200 1.28961100
14 -1.43657300 0.00000600 0.00000200 -0.06360300 -0.04470400 0.86686500
15 -3.99235500 -0.89118800 -1.82790900 -0.78025900 0.17307400 1.46675000
16 -1.40591800 -0.00002500 -0.00000300 -0.00367800 -0.02926700 0.99905800
17 -1.17535800 0.00012800 -0.00002000 0.05253300 0.04304900 0.78906400
18 -4.52675100 -0.69057500 -1.12074400 -0.65011500 0.06546200 1.48915900
19 -1.74403800 0.00003300 -0.00000800 -0.02250200 -0.01921700 1.27480600
20 -1.36877100 0.00002500 0.00000200 -0.10229000 0.11604500 0.53700100
21 -2.03839600 -0.89278600 0.93250100 2.36324100 0.25208000 1.08394600
22 -1.62789200 0.15475000 0.01182600 -0.00662000 0.07351800 0.54761000
23 -1.59928500 0.00000400 0.00001600 0.03412200 -0.02595000 0.63135700
24 5.51181500 0.00000800 -0.00000100 2.08521193 0.00029039 3.14144592
25 0.19684700 -0.00000100 0.00000300 2.79340698 -0.00030630 -3.14151150
26 -4.20297900 -12.53862800 -4.04301100 1.97586200 1.15990900 1.84280300
27 6.21448500 0.00000600 0.00002000 -1.00438369 0.53864096 -1.88160457
28 11.94488500 -0.00002900 -0.00019400 -0.58115598 -0.33492652 -1.31763876
29 10.62016600 0.00000200 0.00001000 -0.40823617 -0.39362534 -0.25554902
30 4.75115600 0.69437600 -0.83047300 -0.37637300 0.07881200 1.35439100
31 1.68806500 -0.00002600 0.00000200 -0.00347100 -0.02446200 1.58009600
32 1.33615100 -0.00005100 -0.00000900 -0.02215100 -0.03172300 0.98197400
33 4.82051300 0.50934000 0.22486500 -0.50063700 0.12138200 1.45898700
34 1.82699600 0.00006600 0.00000800 -0.00052800 0.04045200 1.26004100
35 1.43657700 -0.00001000 0.00000700 0.00061400 -0.01516400 0.80057800
36 3.99235300 0.89108700 1.82799400 -0.63825300 0.45000500 1.68495800
37 1.40591800 0.00002100 -0.00000700 0.00302100 -0.02668100 0.53198500
38 1.17536900 -0.00013100 0.00000200 0.09621900 0.07717700 0.85186600
39 4.52675600 0.69046000 1.12084200 -0.60701500 0.30252600 1.64564800
40 1.74404100 -0.00003100 -0.00000200 -0.01971500 -0.02201200 1.14392800
41 1.36876300 -0.00003100 -0.00001700 0.11094100 0.11360500 0.59145800
42 1.87485500 0.93508100 -0.99913000 1.73423600 0.54866600 0.82423200
43 1.63465400 0.06839200 -0.24034700 -0.03804600 -0.01615700 0.40534900
44 1.59928100 -0.00000200 0.00000900 0.08235700 -0.01382300 0.99159700
45 5.51180600 -0.00000200 0.00000600 -0.23316000 0.04797400 0.10850900
46 0.19685000 0.00000300 -0.00000200 -0.34822500 0.00001500 -0.00000200
47 0.00000000 0.00000000 0.00000000 0.00000000 0.00000000 -1.57079600
48 -4.48972800 28.88719400 -5.04376400 0.00000000 0.00000000 -3.14156200
49 -3.94945144 43.55524742 -0.51216004 0.40786543 0.13358115 -0.96404223
50 -8.91887300 -7.06266300 -4.36890800 2.69308000 -0.65443000 -1.59237900
51 9.84916700 0.50827700 -6.36703100 0.73444100 1.08733600 2.00982800
52 -0.08397300 4.02437800 -0.97013600 0.00000000 0.00000000 0.00000000
53 -0.02845300 1.25560200 2.42827100 0.00287800 0.06113500 3.13684400
54 0.00000200 0.36932600 0.00000000 0.13709100 0.04203900 0.01413800
55 -0.00000200 0.69374800 0.00000000 -0.01345900 0.01989000 -0.00781700
56 0.00000000 0.70755100 0.00000000 0.00027900 0.01959500 0.01088000
57 0.00000200 0.71297700 0.00000000 -0.24690800 -0.02787600 -0.02203100
58 0.00000000 0.69046800 0.00000000 -0.11844400 -0.11500800 -0.00755300
59 0.00000200 0.73369800 0.00000000 0.13258500 0.01734100 -0.00317500
60 0.00000000 0.69087100 0.00000000 -0.12926600 -0.01070400 -0.00148000
61 6.42393300 0.34876800 -5.01577800 0.00000000 0.00000000 0.00000000
62 -2.42126600 -0.06434200 2.97457600 0.00000000 0.00000000 0.00000000
63 -4.43046200 0.24946600 1.61685300 0.00000000 0.00000000 0.00000000
64 4.18981700 -0.00125400 0.72136700 0.00000000 0.00000000 0.00000000
65 4.17578900 1.49761600 0.35445500 0.00000000 0.00000000 0.00000000
66 -1.03843300 1.16832300 -1.66980300 0.00000000 0.00000000 0.00000000
67 -27.90720900 0.24821500 -0.86359500 0.00000000 0.00000000 0.00000000
68 0.96122400 -0.00234000 -0.00435700 0.00000000 0.00000000 0.00000000
69 0.96199000 -0.00079700 -0.00435700 0.00000000 0.00000000 0.00000000
time 9
0 -0.00000100 7.45008900 -27.50902600 0.00000000 0.00000000 0.00003100
1 -0.00000200 0.00000000 0.00000000 1.57074300 -1.56713700 -1.57074300
2 4.25546800 -0.33518300 -0.00000200 0.00000000 0.00000000 -0.12484800
3 7.43124800 1.49647700 0.00000200 0.00000000 0.00000000 0.24545000
4 5.27847900 0.16554100 0.00000100 0.00000000 0.00000000 0.04851100
5 3.45005700 -4.39045100 1.87780600 1.97586400 1.15990900 -1.29878600
6 -6.21448200 -0.00000700 -0.00002700 2.94968197 -0.66830142 2.09072879
7 11.94488200 0.00000000 0.00000100 0.14833882 -0.34751527 1.64132308
8 10.62018100 0.00000200 0.00000000 1.44605571 0.44190270 -3.08947547
9 -4.75110600 -0.69449400 0.83057700 -0.22305500 -0.31747600 0.24566400
10 -1.68806800 0.00004600 -0.00003200 0.01535100 -0.01935500 0.77001100
11 -1.33614000 0.00005700 -0.00001200 0.02584200 0.00517300 0.35617200
12 -4.82049400 -0.50946000 -0.22475900 -0.55079600 -0.24209200 1.20817200
13 -1.82699200 -0.00006400 0.00000600 0.00062300 0.04047200 1.28961100
14 -1.43657300 0.00000600 0.00000200 -0.06360300 -0.04470400 0.86686500
15 -3.99235500 -0.89118800 -1.82790900 -0.78025900 0.17307400 1.46675000
16 -1.40591800 -0.00002500 -0.00000300 -0.00367800 -0.02926700 0.99905800
17 -1.17535800 0.00012800 -0.00002000 0.05253300 0.04304900 0.78906400
18 -4.52675100 -0.69057500 -1.12074400 -0.65011500 0.06546200 1.48915900
19 -1.74403800 0.00003300 -0.00000800 -0.02250200 -0.01921700 1.27480600
20 -1.36877100 0.00002500 0.00000200 -0.10229000 0.11604500 0.53700100
21 -2.03839600 -0.89278600 0.93250100 2.36324100 0.25208000 1.08394600
22 -1.62789200 0.15475000 0.01182600 -0.00662000 0.07351800 0.54761000
23 -1.59928500 0.00000400 0.00001600 0.03412200 -0.02595000 0.63135700
24 5.51181500 0.00000800 -0.00000100 2.08521193 0.00029039 3.14144592
25 0.19684700 -0.00000100 0.00000300 2.79340698 -0.00030630 -3.14151150
26 -4.47844900 -13.51764700 -3.96727900 1.97586200 1.15990900 1.84280300
27 6.21448500 0.00000600 0.00002000 -0.82625575 0.49695894 -1.87856714
28 11.94488500 -0.00002900 -0.00019400 -0.57028081 -0.33103728 -1.24574674
29 10.62016600 0.00000200 0.00001000 -0.62007401 -0.47910392 -0.19209020
30 4.75115600 0.69437600 -0.83047300 -0.37637300 0.07881200 1.35439100
31 1.68806500 -0.00002600 0.00000200 -0.00347100 -0.02446200 1.58009600
32 1.33615100 -0.00005100 -0.00000900 -0.02215100 -0.03172300 0.98197400
33 4.82051300 0.50934000 0.22486500 -0.50063700 0.12138200 1.45898700
34 1.82699600 0.00006600 0.00000800 -0.00052800 0.04045200 1.26004100
35 1.43657700 -0.00001000 0.00000700 0.00061400 -0.01516400 0.80057800
36 3.99235300 0.89108700 1.82799400 -0.63825300 0.45000500 1.68495800
37 1.40591800 0.00002100 -0.00000700 0.00302100 -0.02668100 0.53198500
38 1.17536900 -0.00013100 0.00000200 0.09621900 0.07717700 0.85186600
39 4.52675600 0.69046000 1.12084200 -0.60701500 0.30252600 1.64564800
40 1.74404100 -0.00003100 -0.00000200 -0.01971500 -0.02201200 1.14392800
41 1.36876300 -0.00003100 -0.00001700 0.11094100 0.11360500 0.59145800
42 1.87485500 0.93508100 -0.99913000 1.73423600 0.54866600 0.82423200
43 1.63465400 0.06839200 -0.24034700 -0.03804600 -0.01615700 0.40534900
44 1.59928100 -0.00000200 0.00000900 0.08235700 -0.01382300 0.99159700
45 5.51180600 -0.00000200 0.00000600 -0.23316000 0.04797400 0.10850900
46 0.19685000 0.00000300 -0.00000200 -0.34822500 0.00001500 -0.00000200
47 0.00000000 0.00000000 0.00000000 0.00000000 0.00000000 -1.57079600
48 -4.48972800 28.88719400 -5.04376400 0.00000000 0.00000000 -3.14156200
49 -3.10968712 43.71473642 -0.48439150 0.37411984 0.10554928 -1.12283772
50 -8.91887300 -7.06266300 -4.36890800 2.69308000 -0.65443000 -1.59237900
51 9.84916700 0.50827700 -6.36703100 0.73444100 1.08733600 2.00982800
52 -0.08397300 4.02437800 -0.97013600 0.00000000 0.00000000 0.00000000
53 -0.02845300 1.25560200 2.42827100 0.00287800 0.06113500 3.13684400
54 0.00000200 0.36932600 0.00000000 0.13709100 0.04203900 0.01413800
55 -0.00000200 0.69374800 0.00000000 -0.01345900 0.01989000 -0.00781700
56 0.00000000 0.70755100 0.00000000 0.00027900 0.01959500 0.01088000
57 0.00000200 0.71297700 0.00000000 -0.24690800 -0.02787600 -0.02203100
58 0.00000000 0.69046800 0.00000000 -0.11844400 -0.11500800 -0.00755300
59 0.00000200 0.73369800 0.00000000 0.13258500 0.01734100 -0.00317500
60 0.00000000 0.69087100 0.00000000 -0.12926600 -0.01070400 -0.00148000
61 6.42393300 0.34876800 -5.01577800 0.00000000 0.00000000 0.00000000
62 -2.42126600 -0.06434200 2.97457600 0.00000000 0.00000000 0.00000000
63 -4.43046200 0.24946600 1.61685300 0.00000000 0.00000000 0.00000000
64 4.18981700 -0.00125400 0.72136700 0.00000000 0.00000000 0.00000000
65 4.17578900 1.49761600 0.35445500 0.00000000 0.00000000 0.00000000
66 -1.03843300 1.16832300 -1.66980300 0.00000000 0.00000000 0.00000000
67 -27.90720900 0.24821500 -0.86359500 0.00000000 0.00000000 0.00000000
68 0.96122400 -0.00234000 -0.00435700 0.00000000 0.00000000 0.00000000
69 0.96199000 -0.00079700 -0.00435700 0.00000000 0.00000000 0.00000000
time 10
0 -0.00000100 7.45008900 -27.50902600 0.00000000 0.00000000 0.00003100
1 -0.00000200 0.00000000 0.00000000 1.57074300 -1.56713700 -1.57074300
2 4.25546800 -0.33518300 -0.00000200 0.00000000 0.00000000 -0.12484800
3 7.43124800 1.49647700 0.00000200 0.00000000 0.00000000 0.24545000
4 5.27847900 0.16554100 0.00000100 0.00000000 0.00000000 0.04851100
5 4.11985100 -3.31034400 0.65005800 1.97586400 1.15990900 -1.29878600
6 -6.21448200 -0.00000700 -0.00002700 2.98049432 -0.65755598 2.09550244
7 11.94488200 0.00000000 0.00000100 0.17499981 -0.34914296 1.56349309
8 10.62018100 0.00000200 0.00000000 1.43321434 0.49528014 -3.12758429
9 -4.75110600 -0.69449400 0.83057700 -0.22305500 -0.31747600 0.24566400
10 -1.68806800 0.00004600 -0.00003200 0.01535100 -0.01935500 0.77001100
11 -1.33614000 0.00005700 -0.00001200 0.02584200 0.00517300 0.35617200
12 -4.82049400 -0.50946000 -0.22475900 -0.55079600 -0.24209200 1.20817200
13 -1.82699200 -0.00006400 0.00000600 0.00062300 0.04047200 1.28961100
14 -1.43657300 0.00000600 0.00000200 -0.06360300 -0.04470400 0.86686500
15 -3.99235500 -0.89118800 -1.82790900 -0.78025900 0.17307400 1.46675000
16 -1.40591800 -0.00002500 -0.00000300 -0.00367800 -0.02926700 0.99905800
17 -1.17535800 0.00012800 -0.00002000 0.05253300 0.04304900 0.78906400
18 -4.52675100 -0.69057500 -1.12074400 -0.65011500 0.06546200 1.48915900
19 -1.74403800 0.00003300 -0.00000800 -0.02250200 -0.01921700 1.27480600
20 -1.36877100 0.00002500 0.00000200 -0.10229000 0.11604500 0.53700100
21 -2.03839600 -0.89278600 0.93250100 2.36324100 0.25208000 1.08394600
22 -1.62789200 0.15475000 0.01182600 -0.00662000 0.07351800 0.54761000
23 -1.59928500 0.00000400 0.00001600 0.03412200 -0.02595000 0.63135700
24 5.51181500 0.00000800 -0.00000100 2.08521193 0.00029039 3.14144592
25 0.19684700 -0.00000100 0.00000300 2.79340698 -0.00030630 -3.14151150
26 -4.76336200 -14.53023000 -3.88894800 1.97586200 1.15990900 1.84280300
27 6.21448500 0.00000600 0.00002000 -0.70130701 0.44499753 -1.90254037
28 11.94488500 -0.00002900 -0.00019400 -0.44881051 -0.32307124 -1.16776802
29 10.62016600 0.00000200 0.00001000 -0.94106683 -0.52466299 -0.05176791
30 4.75115600 0.69437600 -0.83047300 -0.37637300 0.07881200 1.35439100
31 1.68806500 -0.00002600 0.00000200 -0.00347100 -0.02446200 1.58009600
32 1.33615100 -0.00005100 -0.00000900 -0.02215100 -0.03172300 0.98197400
33 4.82051300 0.50934000 0.22486500 -0.50063700 0.12138200 1.45898700
34 1.82699600 0.00006600 0.00000800 -0.00052800 0.04045200 1.26004100
35 1.43657700 -0.00001000 0.00000700 0.00061400 -0.01516400 0.80057800
36 3.99235300 0.89108700 1.82799400 -0.63825300 0.45000500 1.68495800
37 1.40591800 0.00002100 -0.00000700 0.00302100 -0.02668100 0.53198500
38 1.17536900 -0.00013100 0.00000200 0.09621900 0.07717700 0.85186600
39 4.52675600 0.69046000 1.12084200 -0.60701500 0.30252600 1.64564800
40 1.74404100 -0.00003100 -0.00000200 -0.01971500 -0.02201200 1.14392800
41 1.36876300 -0.00003100 -0.00001700 0.11094100 0.11360500 0.59145800
42 1.87485500 0.93508100 -0.99913000 1.73423600 0.54866600 0.82423200
43 1.63465400 0.06839200 -0.24034700 -0.03804600 -0.01615700 0.40534900
44 1.59928100 -0.00000200 0.00000900 0.08235700 -0.01382300 0.99159700
45 5.51180600 -0.00000200 0.00000600 -0.23316000 0.04797400 0.10850900
46 0.19685000 0.00000300 -0.00000200 -0.34822500 0.00001500 -0.00000200
47 0.00000000 0.00000000 0.00000000 0.00000000 0.00000000 -1.57079600
48 -4.48972800 28.88719400 -5.04376400 0.00000000 0.00000000 -3.14156200
49 -2.41405270 44.12604842 -0.37226229 0.33755261 0.07587939 -1.25944735
50 -8.91887300 -7.06266300 -4.36890800 2.69308000 -0.65443000 -1.59237900
51 9.84916700 0.50827700 -6.36703100 0.73444100 1.08733600 2.00982800
52 -0.08397300 4.02437800 -0.97013600 0.00000000 0.00000000 0.00000000
53 -0.02845300 1.25560200 2.42827100 0.00287800 0.06113500 3.13684400
54 0.00000200 0.36932600 0.00000000 0.13709100 0.04203900 0.01413800
55 -0.00000200 0.69374800 0.00000000 -0.01345900 0.01989000 -0.00781700
56 0.00000000 0.70755100 0.00000000 0.00027900 0.01959500 0.01088000
57 0.00000200 0.71297700 0.00000000 -0.24682100 -0.02787500 -0.02203300
58 0.00000000 0.69046800 0.00000000 -0.11844400 -0.11500800 -0.00755300
59 0.00000200 0.73369800 0.00000000 0.13258500 0.01734100 -0.00317500
60 0.00000000 0.69087100 0.00000000 -0.12926600 -0.01070400 -0.00148000
61 6.42393300 0.34876800 -5.01577800 0.00000000 0.00000000 0.00000000
62 -2.42126600 -0.06434200 2.97457600 0.00000000 0.00000000 0.00000000
63 -4.43046200 0.24946600 1.61685300 0.00000000 0.00000000 0.00000000
64 4.18981700 -0.00125400 0.72136700 0.00000000 0.00000000 0.00000000
65 4.17578900 1.49761600 0.35445500 0.00000000 0.00000000 0.00000000
66 -1.03843300 1.16832300 -1.66980300 0.00000000 0.00000000 0.00000000
67 -27.90720900 0.24821500 -0.86359500 0.00000000 0.00000000 0.00000000
68 0.96122400 -0.00234000 -0.00435700 0.00000000 0.00000000 0.00000000
69 0.96199000 -0.00079700 -0.00435700 0.00000000 0.00000000 0.00000000
time 11
0 -0.00000100 7.45008900 -27.50902600 0.00000000 0.00000000 0.00003100
1 -0.00000200 0.00000000 0.00000000 1.57074300 -1.56713700 -1.57074300
2 4.25546800 -0.33518300 -0.00000200 0.00000000 0.00000000 -0.12484800
3 7.43124800 1.49647700 0.00000200 0.00000000 0.00000000 0.24545000
4 5.27847900 0.16554100 0.00000100 0.00000000 0.00000000 0.04851100
5 4.37391200 -2.90064700 0.18436100 1.97586400 1.15990900 -1.29878600
6 -6.21448200 -0.00000700 -0.00002700 3.00389355 -0.64971449 2.06657503
7 11.94488200 0.00000000 0.00000100 0.18318156 -0.34936491 1.53944612
8 10.62018100 0.00000200 0.00000000 1.41688945 0.57277644 3.06108751
9 -4.75110600 -0.69449400 0.83057700 -0.22305500 -0.31747600 0.24566400
10 -1.68806800 0.00004600 -0.00003200 0.01535100 -0.01935500 0.77001100
11 -1.33614000 0.00005700 -0.00001200 0.02584200 0.00517300 0.35617200
12 -4.82049400 -0.50946000 -0.22475900 -0.55079600 -0.24209200 1.20817200
13 -1.82699200 -0.00006400 0.00000600 0.00062300 0.04047200 1.28961100
14 -1.43657300 0.00000600 0.00000200 -0.06360300 -0.04470400 0.86686500
15 -3.99235500 -0.89118800 -1.82790900 -0.78025900 0.17307400 1.46675000
16 -1.40591800 -0.00002500 -0.00000300 -0.00367800 -0.02926700 0.99905800
17 -1.17535800 0.00012800 -0.00002000 0.05253300 0.04304900 0.78906400
18 -4.52675100 -0.69057500 -1.12074400 -0.65011500 0.06546200 1.48915900
19 -1.74403800 0.00003300 -0.00000800 -0.02250200 -0.01921700 1.27480600
20 -1.36877100 0.00002500 0.00000200 -0.10229000 0.11604500 0.53700100
21 -2.03839600 -0.89278600 0.93250100 2.36324100 0.25208000 1.08394600
22 -1.62789200 0.15475000 0.01182600 -0.00662000 0.07351800 0.54761000
23 -1.59928500 0.00000400 0.00001600 0.03412200 -0.02595000 0.63135700
24 5.51181500 0.00000800 -0.00000100 2.08521193 0.00029039 3.14144592
25 0.19684700 -0.00000100 0.00000300 2.79340698 -0.00030630 -3.14151150
26 -5.03883000 -15.50924500 -3.81321500 1.97586200 1.15990900 1.84280300
27 6.21448500 0.00000600 0.00002000 -0.61842886 0.39431978 -1.94041518
28 11.94488500 -0.00002900 -0.00019400 -0.27755318 -0.31244129 -1.08969564
29 10.62016600 0.00000200 0.00001000 -1.28755238 -0.50614469 0.10704624
30 4.75115600 0.69437600 -0.83047300 -0.37637300 0.07881200 1.35439100
31 1.68806500 -0.00002600 0.00000200 -0.00347100 -0.02446200 1.58009600
32 1.33615100 -0.00005100 -0.00000900 -0.02215100 -0.03172300 0.98197400
33 4.82051300 0.50934000 0.22486500 -0.50063700 0.12138200 1.45898700
34 1.82699600 0.00006600 0.00000800 -0.00052800 0.04045200 1.26004100
35 1.43657700 -0.00001000 0.00000700 0.00061400 -0.01516400 0.80057800
36 3.99235300 0.89108700 1.82799400 -0.63825300 0.45000500 1.68495800
37 1.40591800 0.00002100 -0.00000700 0.00302100 -0.02668100 0.53198500
38 1.17536900 -0.00013100 0.00000200 0.09621900 0.07717700 0.85186600
39 4.52675600 0.69046000 1.12084200 -0.60701500 0.30252600 1.64564800
40 1.74404100 -0.00003100 -0.00000200 -0.01971500 -0.02201200 1.14392800
41 1.36876300 -0.00003100 -0.00001700 0.11094100 0.11360500 0.59145800
42 1.87485500 0.93508100 -0.99913000 1.73423600 0.54866600 0.82423200
43 1.63465400 0.06839200 -0.24034700 -0.03804600 -0.01615700 0.40534900
44 1.59928100 -0.00000200 0.00000900 0.08235700 -0.01382300 0.99159700
45 5.51180600 -0.00000200 0.00000600 -0.23316000 0.04797400 0.10850900
46 0.19685000 0.00000300 -0.00000200 -0.34822500 0.00001500 -0.00000200
47 0.00000000 0.00000000 0.00000000 0.00000000 0.00000000 -1.57079600
48 -4.48972800 28.88719400 -5.04376400 0.00000000 0.00000000 -3.14156200
49 -1.85334170 44.68846042 -0.21067275 0.30339031 0.04712987 -1.37150203
50 -8.91887300 -7.06266300 -4.36890800 2.69308000 -0.65443000 -1.59237900
51 9.84916700 0.50827700 -6.36703100 0.73444100 1.08733600 2.00982800
52 -0.08397300 4.02437800 -0.97013600 0.00000000 0.00000000 0.00000000
53 -0.02845300 1.25560200 2.42827100 0.00287800 0.06113500 3.13684400
54 0.00000200 0.36932600 0.00000000 0.13709100 0.04203900 0.01413800
55 -0.00000200 0.69374800 0.00000000 -0.01345900 0.01989000 -0.00781700
56 0.00000000 0.70755100 0.00000000 0.00027900 0.01959500 0.01088000
57 0.00000200 0.71297700 0.00000000 -0.24690800 -0.02787600 -0.02203100
58 0.00000000 0.69046800 0.00000000 -0.11844400 -0.11500800 -0.00755300
59 0.00000200 0.73369800 0.00000000 0.13258500 0.01734100 -0.00317500
60 0.00000000 0.69087100 0.00000000 -0.12926600 -0.01070400 -0.00148000
61 6.42393300 0.34876800 -5.01577800 0.00000000 0.00000000 0.00000000
62 -2.42126600 -0.06434200 2.97457600 0.00000000 0.00000000 0.00000000
63 -4.43046200 0.24946600 1.61685300 0.00000000 0.00000000 0.00000000
64 4.18981700 -0.00125400 0.72136700 0.00000000 0.00000000 0.00000000
65 4.17578900 1.49761600 0.35445500 0.00000000 0.00000000 0.00000000
66 -1.03843300 1.16832300 -1.66980300 0.00000000 0.00000000 0.00000000
67 -27.90720900 0.24821500 -0.86359500 0.00000000 0.00000000 0.00000000
68 0.96122400 -0.00234000 -0.00435700 0.00000000 0.00000000 0.00000000
69 0.96199000 -0.00079700 -0.00435700 0.00000000 0.00000000 0.00000000
time 12
0 -0.00000100 7.45008900 -27.50902600 0.00000000 0.00000000 0.00003100
1 -0.00000200 0.00000000 0.00000000 1.57074300 -1.56713700 -1.57074300
2 4.25546800 -0.33518300 -0.00000200 0.00000000 0.00000000 -0.12484800
3 7.43124800 1.49647700 0.00000200 0.00000000 0.00000000 0.24545000
4 5.27847900 0.16554100 0.00000100 0.00000000 0.00000000 0.04851100
5 4.37391200 -2.90064700 0.18436100 1.97586400 1.15990900 -1.29878600
6 -6.21448200 -0.00000700 -0.00002700 3.02899377 -0.64628826 2.01993705
7 11.94488200 0.00000000 0.00000100 0.18212303 -0.34954376 1.54241392
8 10.62018100 0.00000200 0.00000000 1.39853952 0.64929382 2.94773697
9 -4.75110600 -0.69449400 0.83057700 -0.22305500 -0.31747600 0.24566400
10 -1.68806800 0.00004600 -0.00003200 0.01535100 -0.01935500 0.77001100
11 -1.33614000 0.00005700 -0.00001200 0.02584200 0.00517300 0.35617200
12 -4.82049400 -0.50946000 -0.22475900 -0.55079600 -0.24209200 1.20817200
13 -1.82699200 -0.00006400 0.00000600 0.00062300 0.04047200 1.28961100
14 -1.43657300 0.00000600 0.00000200 -0.06360300 -0.04470400 0.86686500
15 -3.99235500 -0.89118800 -1.82790900 -0.78025900 0.17307400 1.46675000
16 -1.40591800 -0.00002500 -0.00000300 -0.00367800 -0.02926700 0.99905800
17 -1.17535800 0.00012800 -0.00002000 0.05253300 0.04304900 0.78906400
18 -4.52675100 -0.69057500 -1.12074400 -0.65011500 0.06546200 1.48915900
19 -1.74403800 0.00003300 -0.00000800 -0.02250200 -0.01921700 1.27480600
20 -1.36877100 0.00002500 0.00000200 -0.10229000 0.11604500 0.53700100
21 -2.03839600 -0.89278600 0.93250100 2.36324100 0.25208000 1.08394600
22 -1.62789200 0.15475000 0.01182600 -0.00662000 0.07351800 0.54761000
23 -1.59928500 0.00000400 0.00001600 0.03412200 -0.02595000 0.63135700
24 5.51181500 0.00000800 -0.00000100 2.08521193 0.00029039 3.14144592
25 0.19684700 -0.00000100 0.00000300 2.79340698 -0.00030630 -3.14151150
26 -5.28596500 -16.38756600 -3.74527200 1.97586200 1.15990900 1.84280300
27 6.21448500 0.00000600 0.00002000 -0.56531336 0.34808037 -1.98150057
28 11.94488500 -0.00002900 -0.00019400 -0.14343793 -0.30050790 -1.01500838
29 10.62016600 0.00000200 0.00001000 -1.54492786 -0.45002280 0.20760228
30 4.75115600 0.69437600 -0.83047300 -0.37637300 0.07881200 1.35439100
31 1.68806500 -0.00002600 0.00000200 -0.00347100 -0.02446200 1.58009600
32 1.33615100 -0.00005100 -0.00000900 -0.02215100 -0.03172300 0.98197400
33 4.82051300 0.50934000 0.22486500 -0.50063700 0.12138200 1.45898700
34 1.82699600 0.00006600 0.00000800 -0.00052800 0.04045200 1.26004100
35 1.43657700 -0.00001000 0.00000700 0.00061400 -0.01516400 0.80057800
36 3.99235300 0.89108700 1.82799400 -0.63825300 0.45000500 1.68495800
37 1.40591800 0.00002100 -0.00000700 0.00302100 -0.02668100 0.53198500
38 1.17536900 -0.00013100 0.00000200 0.09621900 0.07717700 0.85186600
39 4.52675600 0.69046000 1.12084200 -0.60701500 0.30252600 1.64564800
40 1.74404100 -0.00003100 -0.00000200 -0.01971500 -0.02201200 1.14392800
41 1.36876300 -0.00003100 -0.00001700 0.11094100 0.11360500 0.59145800
42 1.87485500 0.93508100 -0.99913000 1.73423600 0.54866600 0.82423200
43 1.63465400 0.06839200 -0.24034700 -0.03804600 -0.01615700 0.40534900
44 1.59928100 -0.00000200 0.00000900 0.08235700 -0.01382300 0.99159700
45 5.51180600 -0.00000200 0.00000600 -0.23316000 0.04797400 0.10850900
46 0.19685000 0.00000300 -0.00000200 -0.34822500 0.00001500 -0.00000200
47 0.00000000 0.00000000 0.00000000 0.00000000 0.00000000 -1.57079600
48 -4.48972800 28.88719400 -5.04376400 0.00000000 0.00000000 -3.14156200
49 -1.41439266 45.30123042 -0.02233029 0.27441372 0.02278297 -1.45838658
50 -8.91887300 -7.06266300 -4.36890800 2.69308000 -0.65443000 -1.59237900
51 9.84916700 0.50827700 -6.36703100 0.73444100 1.08733600 2.00982800
52 -0.08397300 4.02437800 -0.97013600 0.00000000 0.00000000 0.00000000
53 -0.02845300 1.25560200 2.42827100 0.00287800 0.06113500 3.13684400
54 0.00000200 0.36932600 0.00000000 0.13709100 0.04203900 0.01413800
55 -0.00000200 0.69374800 0.00000000 -0.01345900 0.01989000 -0.00781700
56 0.00000000 0.70755100 0.00000000 0.00027900 0.01959500 0.01088000
57 0.00000200 0.71297700 0.00000000 -0.24682100 -0.02787500 -0.02203300
58 0.00000000 0.69046800 0.00000000 -0.11844400 -0.11500800 -0.00755300
59 0.00000200 0.73369800 0.00000000 0.13258500 0.01734100 -0.00317500
60 0.00000000 0.69087100 0.00000000 -0.12926600 -0.01070400 -0.00148000
61 6.42393300 0.34876800 -5.01577800 0.00000000 0.00000000 0.00000000
62 -2.42126600 -0.06434200 2.97457600 0.00000000 0.00000000 0.00000000
63 -4.43046200 0.24946600 1.61685300 0.00000000 0.00000000 0.00000000
64 4.18981700 -0.00125400 0.72136700 0.00000000 0.00000000 0.00000000
65 4.17578900 1.49761600 0.35445500 0.00000000 0.00000000 0.00000000
66 -1.03843300 1.16832300 -1.66980300 0.00000000 0.00000000 0.00000000
67 -27.90720900 0.24821500 -0.86359500 0.00000000 0.00000000 0.00000000
68 0.96122400 -0.00234000 -0.00435700 0.00000000 0.00000000 0.00000000
69 0.96199000 -0.00079700 -0.00435700 0.00000000 0.00000000 0.00000000
time 13
0 -0.00000100 7.45008900 -27.50902600 0.00000000 0.00000000 0.00003100
1 -0.00000200 0.00000000 0.00000000 1.57074300 -1.56713700 -1.57074300
2 4.25546800 -0.33518300 -0.00000200 0.00000000 0.00000000 -0.12484800
3 7.43124800 1.49647700 0.00000200 0.00000000 0.00000000 0.24545000
4 5.27847900 0.16554100 0.00000100 0.00000000 0.00000000 0.04851100
5 4.37391200 -2.90064700 0.18436100 1.97586400 1.15990900 -1.29878600
6 -6.21448200 -0.00000700 -0.00002700 3.06276743 -0.64031479 1.96520635
7 11.94488200 0.00000000 0.00000100 0.18950992 -0.34896932 1.52087889
8 10.62018100 0.00000200 0.00000000 1.37182840 0.70389517 2.86435075
9 -4.75110600 -0.69449400 0.83057700 -0.22305500 -0.31747600 0.24566400
10 -1.68806800 0.00004600 -0.00003200 0.01535100 -0.01935500 0.77001100
11 -1.33614000 0.00005700 -0.00001200 0.02584200 0.00517300 0.35617200
12 -4.82049400 -0.50946000 -0.22475900 -0.55079600 -0.24209200 1.20817200
13 -1.82699200 -0.00006400 0.00000600 0.00062300 0.04047200 1.28961100
14 -1.43657300 0.00000600 0.00000200 -0.06360300 -0.04470400 0.86686500
15 -3.99235500 -0.89118800 -1.82790900 -0.78025900 0.17307400 1.46675000
16 -1.40591800 -0.00002500 -0.00000300 -0.00367800 -0.02926700 0.99905800
17 -1.17535800 0.00012800 -0.00002000 0.05253300 0.04304900 0.78906400
18 -4.52675100 -0.69057500 -1.12074400 -0.65011500 0.06546200 1.48915900
19 -1.74403800 0.00003300 -0.00000800 -0.02250200 -0.01921700 1.27480600
20 -1.36877100 0.00002500 0.00000200 -0.10229000 0.11604500 0.53700100
21 -2.03839600 -0.89278600 0.93250100 2.36324100 0.25208000 1.08394600
22 -1.62789200 0.15475000 0.01182600 -0.00662000 0.07351800 0.54761000
23 -1.59928500 0.00000400 0.00001600 0.03412200 -0.02595000 0.63135700
24 5.51181500 0.00000800 -0.00000100 2.08521193 0.00029039 3.14144592
25 0.19684700 -0.00000100 0.00000300 2.79340698 -0.00030630 -3.14151150
26 -5.48587700 -17.09805700 -3.69031200 1.97586200 1.15990900 1.84280300
27 6.21448500 0.00000600 0.00002000 -0.53681355 0.30808828 -2.01715347
28 11.94488500 -0.00002900 -0.00019400 -0.05742162 -0.28845725 -0.95071139
29 10.62016600 0.00000200 0.00001000 -1.70070408 -0.38781819 0.25187792
30 4.75115600 0.69437600 -0.83047300 -0.37637300 0.07881200 1.35439100
31 1.68806500 -0.00002600 0.00000200 -0.00347100 -0.02446200 1.58009600
32 1.33615100 -0.00005100 -0.00000900 -0.02215100 -0.03172300 0.98197400
33 4.82051300 0.50934000 0.22486500 -0.50063700 0.12138200 1.45898700
34 1.82699600 0.00006600 0.00000800 -0.00052800 0.04045200 1.26004100
35 1.43657700 -0.00001000 0.00000700 0.00061400 -0.01516400 0.80057800
36 3.99235300 0.89108700 1.82799400 -0.63825300 0.45000500 1.68495800
37 1.40591800 0.00002100 -0.00000700 0.00302100 -0.02668100 0.53198500
38 1.17536900 -0.00013100 0.00000200 0.09621900 0.07717700 0.85186600
39 4.52675600 0.69046000 1.12084200 -0.60701500 0.30252600 1.64564800
40 1.74404100 -0.00003100 -0.00000200 -0.01971500 -0.02201200 1.14392800
41 1.36876300 -0.00003100 -0.00001700 0.11094100 0.11360500 0.59145800
42 1.87485500 0.93508100 -0.99913000 1.73423600 0.54866600 0.82423200
43 1.63465400 0.06839200 -0.24034700 -0.03804600 -0.01615700 0.40534900
44 1.59928100 -0.00000200 0.00000900 0.08235700 -0.01382300 0.99159700
45 5.51180600 -0.00000200 0.00000600 -0.23316000 0.04797400 0.10850900
46 0.19685000 0.00000300 -0.00000200 -0.34822500 0.00001500 -0.00000200
47 0.00000000 0.00000000 0.00000000 0.00000000 0.00000000 -1.57079600
48 -4.48972800 28.88719400 -5.04376400 0.00000000 0.00000000 -3.14156200
49 -1.09439586 45.86363942 0.16640955 0.24558637 0.00467582 -1.52073273
50 -8.91887300 -7.06266300 -4.36890800 2.69308000 -0.65443000 -1.59237900
51 9.84916700 0.50827700 -6.36703100 0.73444100 1.08733600 2.00982800
52 -0.08397300 4.02437800 -0.97013600 0.00000000 0.00000000 0.00000000
53 -0.02845300 1.25560200 2.42827100 0.00287800 0.06113500 3.13684400
54 0.00000200 0.36932600 0.00000000 0.13709100 0.04203900 0.01413800
55 -0.00000200 0.69374800 0.00000000 -0.01345900 0.01989000 -0.00781700
56 0.00000000 0.70755100 0.00000000 0.00027900 0.01959500 0.01088000
57 0.00000200 0.71297700 0.00000000 -0.24690800 -0.02787600 -0.02203100
58 0.00000000 0.69046800 0.00000000 -0.11844400 -0.11500800 -0.00755300
59 0.00000200 0.73369800 0.00000000 0.13258500 0.01734100 -0.00317500
60 0.00000000 0.69087100 0.00000000 -0.12926600 -0.01070400 -0.00148000
61 6.42393300 0.34876800 -5.01577800 0.00000000 0.00000000 0.00000000
62 -2.42126600 -0.06434200 2.97457600 0.00000000 0.00000000 0.00000000
63 -4.43046200 0.24946600 1.61685300 0.00000000 0.00000000 0.00000000
64 4.18981700 -0.00125400 0.72136700 0.00000000 0.00000000 0.00000000
65 4.17578900 1.49761600 0.35445500 0.00000000 0.00000000 0.00000000
66 -1.03843300 1.16832300 -1.66980300 0.00000000 0.00000000 0.00000000
67 -27.90720900 0.24821500 -0.86359500 0.00000000 0.00000000 0.00000000
68 0.96122400 -0.00234000 -0.00435700 0.00000000 0.00000000 0.00000000
69 0.96199000 -0.00079700 -0.00435700 0.00000000 0.00000000 0.00000000
time 14
0 -0.00000100 7.45008900 -27.50902600 0.00000000 0.00000000 0.00003100
1 -0.00000200 0.00000000 0.00000000 1.57074300 -1.56713700 -1.57074300
2 4.25546800 -0.33518300 -0.00000200 0.00000000 0.00000000 -0.12484800
3 7.43124800 1.49647700 0.00000200 0.00000000 0.00000000 0.24545000
4 5.27847900 0.16554100 0.00000100 0.00000000 0.00000000 0.04851100
5 4.37391200 -2.90064700 0.18436100 1.97586400 1.15990900 -1.29878600
6 -6.21448200 -0.00000700 -0.00002700 3.08886233 -0.63377455 1.91872026
7 11.94488200 0.00000000 0.00000100 0.19955275 -0.34818712 1.49162552
8 10.62018100 0.00000200 0.00000000 1.33905672 0.74290028 2.81227998
9 -4.75110600 -0.69449400 0.83057700 -0.22305500 -0.31747600 0.24566400
10 -1.68806800 0.00004600 -0.00003200 0.01535100 -0.01935500 0.77001100
11 -1.33614000 0.00005700 -0.00001200 0.02584200 0.00517300 0.35617200
12 -4.82049400 -0.50946000 -0.22475900 -0.55079600 -0.24209200 1.20817200
13 -1.82699200 -0.00006400 0.00000600 0.00062300 0.04047200 1.28961100
14 -1.43657300 0.00000600 0.00000200 -0.06360300 -0.04470400 0.86686500
15 -3.99235500 -0.89118800 -1.82790900 -0.78025900 0.17307400 1.46675000
16 -1.40591800 -0.00002500 -0.00000300 -0.00367800 -0.02926700 0.99905800
17 -1.17535800 0.00012800 -0.00002000 0.05253300 0.04304900 0.78906400
18 -4.52675100 -0.69057500 -1.12074400 -0.65011500 0.06546200 1.48915900
19 -1.74403800 0.00003300 -0.00000800 -0.02250200 -0.01921700 1.27480600
20 -1.36877100 0.00002500 0.00000200 -0.10229000 0.11604500 0.53700100
21 -2.03839600 -0.89278600 0.93250100 2.36324100 0.25208000 1.08394600
22 -1.62789200 0.15475000 0.01182600 -0.00662000 0.07351800 0.54761000
23 -1.59928500 0.00000400 0.00001600 0.03412200 -0.02595000 0.63135700
24 5.51181500 0.00000800 -0.00000100 2.08521193 0.00029039 3.14144592
25 0.19684700 -0.00000100 0.00000300 2.79340698 -0.00030630 -3.14151150
26 -5.61967600 -17.57357400 -3.65352600 1.97586200 1.15990900 1.84280300
27 6.21448500 0.00000600 0.00002000 -0.52895205 0.27673956 -2.04211170
28 11.94488500 -0.00002900 -0.00019400 -0.01055954 -0.27865222 -0.90292003
29 10.62016600 0.00000200 0.00001000 -1.77177853 -0.33572794 0.25941168
30 4.75115600 0.69437600 -0.83047300 -0.37637300 0.07881200 1.35439100
31 1.68806500 -0.00002600 0.00000200 -0.00347100 -0.02446200 1.58009600
32 1.33615100 -0.00005100 -0.00000900 -0.02215100 -0.03172300 0.98197400
33 4.82051300 0.50934000 0.22486500 -0.50063700 0.12138200 1.45898700
34 1.82699600 0.00006600 0.00000800 -0.00052800 0.04045200 1.26004100
35 1.43657700 -0.00001000 0.00000700 0.00061400 -0.01516400 0.80057800
36 3.99235300 0.89108700 1.82799400 -0.63825300 0.45000500 1.68495800
37 1.40591800 0.00002100 -0.00000700 0.00302100 -0.02668100 0.53198500
38 1.17536900 -0.00013100 0.00000200 0.09621900 0.07717700 0.85186600
39 4.52675600 0.69046000 1.12084200 -0.60701500 0.30252600 1.64564800
40 1.74404100 -0.00003100 -0.00000200 -0.01971500 -0.02201200 1.14392800
41 1.36876300 -0.00003100 -0.00001700 0.11094100 0.11360500 0.59145800
42 1.87485500 0.93508100 -0.99913000 1.73423600 0.54866600 0.82423200
43 1.63465400 0.06839200 -0.24034700 -0.03804600 -0.01615700 0.40534900
44 1.59928100 -0.00000200 0.00000900 0.08235700 -0.01382300 0.99159700
45 5.51180600 -0.00000200 0.00000600 -0.23316000 0.04797400 0.10850900
46 0.19685000 0.00000300 -0.00000200 -0.34822500 0.00001500 -0.00000200
47 0.00000000 0.00000000 0.00000000 0.00000000 0.00000000 -1.57079600
48 -4.48972800 28.88719400 -5.04376400 0.00000000 0.00000000 -3.14156200
49 -0.89754973 46.27495542 0.31552609 0.21641720 -0.00457134 -1.55840398
50 -8.91887300 -7.06266300 -4.36890800 2.69308000 -0.65443000 -1.59237900
51 9.84916700 0.50827700 -6.36703100 0.73444100 1.08733600 2.00982800
52 -0.08397300 4.02437800 -0.97013600 0.00000000 0.00000000 0.00000000
53 -0.02845300 1.25560200 2.42827100 0.00287800 0.06113500 3.13684400
54 0.00000200 0.36932600 0.00000000 0.13709000 0.04204500 0.01405200
55 -0.00000200 0.69374800 0.00000000 -0.01345900 0.01989000 -0.00781700
56 0.00000000 0.70755100 0.00000000 0.00027900 0.01959500 0.01088000
57 0.00000200 0.71297700 0.00000000 -0.24682100 -0.02787500 -0.02203300
58 0.00000000 0.69046800 0.00000000 -0.11844400 -0.11500800 -0.00755300
59 0.00000200 0.73369800 0.00000000 0.13258600 0.01733500 -0.00308900
60 0.00000000 0.69087100 0.00000000 -0.12926600 -0.01070400 -0.00148000
61 6.42393300 0.34876800 -5.01577800 0.00000000 0.00000000 0.00000000
62 -2.42126600 -0.06434200 2.97457600 0.00000000 0.00000000 0.00000000
63 -4.43046200 0.24946600 1.61685300 0.00000000 0.00000000 0.00000000
64 4.18981700 -0.00125400 0.72136700 0.00000000 0.00000000 0.00000000
65 4.17578900 1.49761600 0.35445500 0.00000000 0.00000000 0.00000000
66 -1.03843300 1.16832300 -1.66980300 0.00000000 0.00000000 0.00000000
67 -27.90720900 0.24821500 -0.86359500 0.00000000 0.00000000 0.00000000
68 0.96122400 -0.00234000 -0.00435700 0.00000000 0.00000000 0.00000000
69 0.96199000 -0.00079700 -0.00435700 0.00000000 0.00000000 0.00000000
time 15
0 -0.00000100 7.45008900 -27.50902600 0.00000000 0.00000000 0.00003100
1 -0.00000200 0.00000000 0.00000000 1.57074300 -1.56713700 -1.57074300
2 4.25546800 -0.33518300 -0.00000200 0.00000000 0.00000000 -0.12484800
3 7.43124800 1.49647700 0.00000200 0.00000000 0.00000000 0.24545000
4 5.27847900 0.16554100 0.00000100 0.00000000 0.00000000 0.04851100
5 4.37391200 -2.90064700 0.18436100 1.97586400 1.15990900 -1.29878600
6 -6.21448200 -0.00000700 -0.00002700 3.09720088 -0.63047793 1.89805685
7 11.94488200 0.00000000 0.00000100 0.20584394 -0.34771705 1.47309670
8 10.62018100 0.00000200 0.00000000 1.31887297 0.76252414 2.79789518
9 -4.75110600 -0.69449400 0.83057700 -0.22305500 -0.31747600 0.24566400
10 -1.68806800 0.00004600 -0.00003200 0.01535100 -0.01935500 0.77001100
11 -1.33614000 0.00005700 -0.00001200 0.02584200 0.00517300 0.35617200
12 -4.82049400 -0.50946000 -0.22475900 -0.55079600 -0.24209200 1.20817200
13 -1.82699200 -0.00006400 0.00000600 0.00062300 0.04047200 1.28961100
14 -1.43657300 0.00000600 0.00000200 -0.06360300 -0.04470400 0.86686500
15 -3.99235500 -0.89118800 -1.82790900 -0.78025900 0.17307400 1.46675000
16 -1.40591800 -0.00002500 -0.00000300 -0.00367800 -0.02926700 0.99905800
17 -1.17535800 0.00012800 -0.00002000 0.05253300 0.04304900 0.78906400
18 -4.52675100 -0.69057500 -1.12074400 -0.65011500 0.06546200 1.48915900
19 -1.74403800 0.00003300 -0.00000800 -0.02250200 -0.01921700 1.27480600
20 -1.36877100 0.00002500 0.00000200 -0.10229000 0.11604500 0.53700100
21 -2.03839600 -0.89278600 0.93250100 2.36324100 0.25208000 1.08394600
22 -1.62789200 0.15475000 0.01182600 -0.00662000 0.07351800 0.54761000
23 -1.59928500 0.00000400 0.00001600 0.03412200 -0.02595000 0.63135700
24 5.51181500 0.00000800 -0.00000100 2.08521193 0.00029039 3.14144592
25 0.19684700 -0.00000100 0.00000300 2.79340698 -0.00030630 -3.14151150
26 -5.66847400 -17.74700200 -3.64011100 1.97586200 1.15990900 1.84280300
27 6.21448500 0.00000600 0.00002000 -0.53283957 0.25928029 -2.05397340
28 11.94488500 -0.00002900 -0.00019400 0.00310957 -0.27310834 -0.87751867
29 10.62016600 0.00000200 0.00001000 -1.78420431 -0.31151090 0.25077187
30 4.75115600 0.69437600 -0.83047300 -0.37637300 0.07881200 1.35439100
31 1.68806500 -0.00002600 0.00000200 -0.00347100 -0.02446200 1.58009600
32 1.33615100 -0.00005100 -0.00000900 -0.02215100 -0.03172300 0.98197400
33 4.82051300 0.50934000 0.22486500 -0.50063700 0.12138200 1.45898700
34 1.82699600 0.00006600 0.00000800 -0.00052800 0.04045200 1.26004100
35 1.43657700 -0.00001000 0.00000700 0.00061400 -0.01516400 0.80057800
36 3.99235300 0.89108700 1.82799400 -0.63825300 0.45000500 1.68495800
37 1.40591800 0.00002100 -0.00000700 0.00302100 -0.02668100 0.53198500
38 1.17536900 -0.00013100 0.00000200 0.09621900 0.07717700 0.85186600
39 4.52675600 0.69046000 1.12084200 -0.60701500 0.30252600 1.64564800
40 1.74404100 -0.00003100 -0.00000200 -0.01971500 -0.02201200 1.14392800
41 1.36876300 -0.00003100 -0.00001700 0.11094100 0.11360500 0.59145800
42 1.87485500 0.93508100 -0.99913000 1.73423600 0.54866600 0.82423200
43 1.63465400 0.06839200 -0.24034700 -0.03804600 -0.01615700 0.40534900
44 1.59928100 -0.00000200 0.00000900 0.08235700 -0.01382300 0.99159700
45 5.51180600 -0.00000200 0.00000600 -0.23316000 0.04797400 0.10850900
46 0.19685000 0.00000300 -0.00000200 -0.34822500 0.00001500 -0.00000200
47 0.00000000 0.00000000 0.00000000 0.00000000 0.00000000 -1.57079600
48 -4.48972800 28.88719400 -5.04376400 0.00000000 0.00000000 -3.14156200
49 -0.81956900 46.43444742 0.38643964 0.19931231 -0.00359789 -1.57144857
50 -8.91887300 -7.06266300 -4.36890800 2.69308000 -0.65443000 -1.59237900
51 9.84916700 0.50827700 -6.36703100 0.73444100 1.08733600 2.00982800
52 -0.08397300 4.02437800 -0.97013600 0.00000000 0.00000000 0.00000000
53 -0.02845300 1.25560200 2.42827100 0.00287800 0.06113500 3.13684400
54 0.00000200 0.36932600 0.00000000 0.13709100 0.04203900 0.01413800
55 -0.00000200 0.69374800 0.00000000 -0.01345900 0.01989000 -0.00781700
56 0.00000000 0.70755100 0.00000000 0.00027900 0.01959500 0.01088000
57 0.00000200 0.71297700 0.00000000 -0.24682100 -0.02787500 -0.02203300
58 0.00000000 0.69046800 0.00000000 -0.11844400 -0.11500800 -0.00755300
59 0.00000200 0.73369800 0.00000000 0.13258600 0.01733500 -0.00308900
60 0.00000000 0.69087100 0.00000000 -0.12926600 -0.01070400 -0.00148000
61 6.42393300 0.34876800 -5.01577800 0.00000000 0.00000000 0.00000000
62 -2.42126600 -0.06434200 2.97457600 0.00000000 0.00000000 0.00000000
63 -4.43046200 0.24946600 1.61685300 0.00000000 0.00000000 0.00000000
64 4.18981700 -0.00125400 0.72136700 0.00000000 0.00000000 0.00000000
65 4.17578900 1.49761600 0.35445500 0.00000000 0.00000000 0.00000000
66 -1.03843300 1.16832300 -1.66980300 0.00000000 0.00000000 0.00000000
67 -27.90720900 0.24821500 -0.86359500 0.00000000 0.00000000 0.00000000
68 0.96122400 -0.00234000 -0.00435700 0.00000000 0.00000000 0.00000000
69 0.96199000 -0.00079700 -0.00435700 0.00000000 0.00000000 0.00000000
end
