version 1
nodes
0 "root" -1
1 "pelvis" 0
2 "spine_01" 1
3 "spine_02" 2
4 "spine_03" 3
5 "clavicle_r" 4
6 "upperarm_r" 5
7 "lowerarm_r" 6
8 "hand_r" 7
9 "index_01_r" 8
10 "index_02_r" 9
11 "index_03_r" 10
12 "middle_01_r" 8
13 "middle_02_r" 12
14 "middle_03_r" 13
15 "pinky_01_r" 8
16 "pinky_02_r" 15
17 "pinky_03_r" 16
18 "ring_01_r" 8
19 "ring_02_r" 18
20 "ring_03_r" 19
21 "thumb_01_r" 8
22 "thumb_02_r" 21
23 "thumb_03_r" 22
24 "lowerarm_twist_01_r" 7
25 "upperarm_twist_01_r" 6
26 "clavicle_l" 4
27 "upperarm_l" 26
28 "lowerarm_l" 27
29 "hand_l" 28
30 "index_01_l" 29
31 "index_02_l" 30
32 "index_03_l" 31
33 "middle_01_l" 29
34 "middle_02_l" 33
35 "middle_03_l" 34
36 "pinky_01_l" 29
37 "pinky_02_l" 36
38 "pinky_03_l" 37
39 "ring_01_l" 29
40 "ring_02_l" 39
41 "ring_03_l" 40
42 "thumb_01_l" 29
43 "thumb_02_l" 42
44 "thumb_03_l" 43
45 "lowerarm_twist_01_l" 28
46 "upperarm_twist_01_l" 27
47 "cam_driver" -1
48 "Base" -1
49 "rhand_ikTarget" 48
50 "Trigger" 48
51 "Mag" 48
52 "Bullets" 51
53 "Lock" 48
54 "Bolt" 48
55 "Bayonet" 48
56 "lhand_ikTarget" 48
end
skeleton
time 0
0 0.00000000 8.44531300 -27.50000000 0.00000000 0.00000000 -0.00000100
1 -0.00000200 0.00000000 0.00000000 1.57074700 -1.56714200 -1.57074700
2 4.25546600 -0.33518400 -0.00000200 0.00000000 0.00000000 -0.12484800
3 7.43125000 1.49647985 0.00000200 0.00000000 0.00000000 0.24545000
4 5.27848100 0.16554369 0.00000100 0.00000000 0.00000000 0.04851100
5 3.34385184 -5.40904124 -0.81403164 1.97586400 1.15990900 -1.29878600
6 -6.21448254 -0.00000985 -0.00002585 -3.12465789 -0.55408036 1.93112309
7 11.94488831 -0.00000115 -0.00000085 -0.36695229 -0.37913230 1.58191262
8 10.62019285 -0.00000185 0.00000046 0.57900147 -0.23630315 2.98203195
9 -4.75110946 -0.69449869 0.83057946 -0.13824100 -0.15285200 0.18762200
10 -1.68807015 0.00004754 -0.00003100 0.02148800 -0.01233669 0.38906600
11 -1.33614300 0.00005469 -0.00000915 0.02588469 0.00518215 0.35619800
12 -4.82049800 -0.50946485 -0.22475885 -0.34149100 -0.06544100 1.04874500
13 -1.82698969 -0.00007323 0.00000785 0.01748200 0.03656200 1.72003700
14 -1.43656900 0.00000400 0.00000400 -0.02391300 -0.07406000 0.22026000
15 -3.99236285 -0.89118969 -1.82791046 -0.60009400 0.19889500 1.32593900
16 -1.40592123 -0.00002638 -0.00000369 -0.01639185 -0.02456177 1.46415983
17 -1.17536200 0.00012800 -0.00002000 0.02757000 0.06214500 0.32128500
18 -4.52675438 -0.69058269 -1.12074585 -0.42618900 0.11495000 1.26439900
19 -1.74403593 0.00003146 -0.00000900 -0.02844000 -0.00827100 1.69871800
20 -1.36877138 0.00002346 0.00000415 0.01203500 0.05112800 0.12633469
21 -2.03710800 -0.89257869 0.93212831 2.31087500 0.31634700 0.79568800
22 -1.62695231 0.15466331 0.01182654 -0.13461300 0.15579700 0.35415800
23 -1.59928585 0.00001200 0.00001315 0.02557200 -0.03452200 0.91329531
24 5.51182285 0.00000631 0.00000200 2.10334883 -0.08663047 3.11050952
25 0.19684600 -0.00000215 0.00000369 2.79340665 0.00000565 -3.14157665
26 2.53710931 -13.68750238 -1.63085900 1.97586165 1.15990965 1.84280265
27 6.21449085 0.00000785 0.00001815 -1.08756982 0.88681281 -1.97060628
28 11.94490054 -0.00003015 -0.00019869 -0.05199365 -0.36673655 -1.24585304
29 10.62017385 -0.00000200 0.00000585 -1.48219551 -0.72911193 -0.00867041
30 4.75115962 0.69437569 -0.83047631 -0.15838700 -0.11329300 1.15266100
31 1.68806362 -0.00002315 0.00000115 -0.00138300 -0.02473900 1.49469600
32 1.33615400 -0.00005000 -0.00001000 -0.00672600 -0.03818000 0.54551869
33 4.82051500 0.50933685 0.22486538 -0.20997600 0.06730700 1.50423900
34 1.82700238 0.00006231 0.00000954 0.00444600 0.04027400 1.38372100
35 1.43658146 -0.00000315 0.00000715 0.00903400 -0.01221185 0.20524000
36 3.99236054 0.89108785 1.82799538 -0.34242300 0.17989500 0.98693500
37 1.40592869 0.00003000 -0.00000331 -0.02344500 -0.01796100 1.79280000
38 1.17536769 -0.00013354 0.00000285 0.03069900 0.11943400 0.20718300
39 4.52675793 0.69046115 1.12084185 -0.18033100 0.18538300 1.43662200
40 1.74404385 -0.00003169 -0.00000207 -0.02663300 -0.01296500 1.52900300
41 1.36876915 -0.00003015 -0.00001838 0.03463100 0.15491200 0.03539700
42 1.87486054 0.93507800 -0.99913162 2.65251500 0.29446100 1.07986000
43 1.65820231 -0.32446146 -0.11920369 0.15928600 0.10876200 0.63044400
44 1.57421785 -0.10443100 0.03323554 0.08352300 0.00115700 0.81258600
45 5.51181154 -0.00000569 0.00000385 -0.23579700 0.00000500 0.00000700
46 0.19684900 0.00000315 -0.00000185 -0.34822500 0.00001500 -0.00000200
47 0.00000000 1.00000000 0.00000000 0.00000000 0.00000000 -1.57079600
48 2.25420774 -16.45200186 -5.88421853 0.18120992 -0.08473700 2.19782901
49 10.32031315 1.03125031 -4.47265600 0.49053900 1.12097300 1.98865800
50 3.73550185 0.00125700 -1.32376285 0.00000000 0.00000000 0.00000000
51 -0.00066915 -0.00054569 -1.33911600 0.00000000 0.00000000 0.00000000
52 0.04766015 0.00000000 0.67144215 0.00000000 0.00000000 0.00000000
53 4.80553300 0.89926615 -0.32590700 0.00000000 0.00000000 0.00000000
54 -1.55556446 -0.00054585 0.65577800 0.00000000 0.00000000 0.00000000
55 -19.84132062 0.31651300 -0.95933300 0.00000000 0.00000000 0.00000000
56 -4.22386631 -1.63767600 -4.26925669 2.89813300 -0.03107300 -1.70865400
time 1
0 0.00000000 8.44531300 -27.50000000 0.00000000 0.00000000 -0.00000100
1 -0.00000200 0.00000000 0.00000000 1.57074700 -1.56714200 -1.57074700
2 4.25546600 -0.33518400 -0.00000200 0.00000000 0.00000000 -0.12484800
3 7.43125000 1.49647985 0.00000200 0.00000000 0.00000000 0.24545000
4 5.27848100 0.16554369 0.00000100 0.00000000 0.00000000 0.04851100
5 3.34385184 -5.40904124 -0.81403164 1.97586400 1.15990900 -1.29878600
6 -6.21448254 -0.00000985 -0.00002585 -3.09132462 -0.55011936 1.91662302
7 11.94488815 -0.00000115 -0.00000085 -0.36219802 -0.37974989 1.56791876
8 10.62019285 -0.00000069 0.00000300 0.62963623 -0.27188590 3.00576910
9 -4.75110946 -0.69449869 0.83057946 -0.13824100 -0.15285200 0.18762200
10 -1.68807115 0.00004769 -0.00003015 0.02148800 -0.01233669 0.38906600
11 -1.33614300 0.00005385 -0.00000900 0.02588469 0.00518215 0.35619800
12 -4.82049815 -0.50946400 -0.22475854 -0.34149100 -0.06544100 1.04874500
13 -1.82699054 -0.00007154 0.00000800 0.01748200 0.03656200 1.72003700
14 -1.43656985 0.00000400 0.00000331 -0.02391300 -0.07406000 0.22026000
15 -3.99236285 -0.89119000 -1.82791085 -0.60009400 0.19889500 1.32593900
16 -1.40592123 -0.00002638 -0.00000400 -0.01639185 -0.02456177 1.46415983
17 -1.17536354 0.00012785 -0.00002085 0.02757000 0.06214500 0.32128500
18 -4.52675623 -0.69058369 -1.12074485 -0.42618900 0.11495000 1.26439900
19 -1.74403631 0.00003046 -0.00000815 -0.02844000 -0.00827100 1.69871800
20 -1.36876985 0.00002415 0.00000431 0.01203500 0.05112800 0.12633469
21 -2.03710731 -0.89257885 0.93212915 2.31087500 0.31634700 0.79568800
22 -1.62695115 0.15466300 0.01182669 -0.13461300 0.15579700 0.35415800
23 -1.59928585 0.00001169 0.00001315 0.02557200 -0.03452200 0.91329531
24 5.51182300 0.00000631 0.00000369 2.10334883 -0.08663047 3.11050952
25 0.19684585 -0.00000200 0.00000385 2.79340665 0.00000565 -3.14157665
26 2.53710931 -13.68750238 -1.63085900 1.97586165 1.15990965 1.84280265
27 6.21449085 0.00000785 0.00001815 -1.07801970 0.88146425 -1.97350081
28 11.94490054 -0.00002846 -0.00019954 -0.05767029 -0.36746664 -1.22867549
29 10.62017554 -0.00000185 0.00000615 -1.53865158 -0.76553502 -0.00541064
30 4.75116046 0.69437500 -0.83047700 -0.15838700 -0.11329300 1.15266100
31 1.68806500 -0.00002231 0.00000115 -0.00138300 -0.02473900 1.49469600
32 1.33615485 -0.00005169 -0.00001138 -0.00672600 -0.03818000 0.54551869
33 4.82051415 0.50933700 0.22486369 -0.20997600 0.06730700 1.50423900
34 1.82700223 0.00006769 0.00001054 0.00444600 0.04027400 1.38372100
35 1.43658385 -0.00000300 0.00000800 0.00903400 -0.01221000 0.20524000
36 3.99236069 0.89108800 1.82799469 -0.34242300 0.17989500 0.98693500
37 1.40592869 0.00002900 -0.00000400 -0.02344500 -0.01796100 1.79280000
38 1.17536615 -0.00013285 0.00000338 0.03069900 0.11943400 0.20718300
39 4.52675693 0.69046131 1.12084031 -0.18033100 0.18538300 1.43662200
40 1.74404285 -0.00003100 -0.00000138 -0.02663300 -0.01296500 1.52900300
41 1.36876846 -0.00002962 -0.00001769 0.03463100 0.15491200 0.03539700
42 1.87485785 0.93507800 -0.99913246 2.65251500 0.29446100 1.07986000
43 1.65820231 -0.32445946 -0.11920400 0.15928600 0.10876200 0.63044400
44 1.57421715 -0.10443354 0.03323569 0.08352300 0.00115700 0.81258600
45 5.51181238 -0.00000569 0.00000315 -0.23579700 0.00000500 0.00000700
46 0.19684900 0.00000400 -0.00000185 -0.34822500 0.00001500 -0.00000200
47 0.00000000 1.00000000 0.00000000 0.00000000 0.00000000 -1.57079600
48 2.34550841 -16.45019414 -5.84785978 0.23315892 -0.09553294 2.20076538
49 10.32031315 1.03125031 -4.47265585 0.49053900 1.12097300 1.98865800
50 3.73550185 0.00125715 -1.32376315 0.00000000 0.00000000 0.00000000
51 -0.00066885 -0.00054615 -1.33911585 0.00000000 0.00000000 0.00000000
52 0.04766100 -0.00000015 0.67144231 0.00000000 0.00000000 0.00000000
53 4.80553300 0.89926615 -0.32590715 0.00000000 0.00000000 0.00000000
54 -1.55556415 -0.00054600 0.65577785 0.00000000 0.00000000 0.00000000
55 -19.84132031 0.31651300 -0.95933400 0.00000000 0.00000000 0.00000000
56 -4.22386515 -1.63767585 -4.26925615 2.89813300 -0.03107300 -1.70865400
time 2
0 0.00000000 8.44531300 -27.50000000 0.00000000 0.00000000 -0.00000100
1 -0.00000200 0.00000000 0.00000000 1.57074700 -1.56714200 -1.57074700
2 4.25546600 -0.33518400 -0.00000200 0.00000000 0.00000000 -0.12484800
3 7.43125000 1.49647985 0.00000200 0.00000000 0.00000000 0.24545000
4 5.27848100 0.16554369 0.00000100 0.00000000 0.00000000 0.04851100
5 3.34385184 -5.40904124 -0.81403164 1.97586400 1.15990900 -1.29878600
6 -6.21448254 -0.00000985 -0.00002585 -3.05152754 -0.54120553 1.88851737
7 11.94488831 -0.00000115 -0.00000215 -0.35560887 -0.38158034 1.54849634
8 10.62019300 -0.00000100 0.00000285 0.68497518 -0.31715571 3.02782143
9 -4.75110946 -0.69449885 0.83058000 -0.13824100 -0.15285200 0.18762200
10 -1.68807115 0.00004754 -0.00003015 0.02148800 -0.01233669 0.38906600
11 -1.33614385 0.00005454 -0.00000900 0.02588469 0.00518215 0.35619800
12 -4.82049815 -0.50946415 -0.22475800 -0.34149100 -0.06544100 1.04874500
13 -1.82698969 -0.00007223 0.00000785 0.01748200 0.03656200 1.72003700
14 -1.43657015 0.00000415 0.00000315 -0.02391300 -0.07406000 0.22026000
15 -3.99236369 -0.89119000 -1.82791131 -0.60009400 0.19889500 1.32593900
16 -1.40592207 -0.00002638 -0.00000300 -0.01638999 -0.02456177 1.46415983
17 -1.17536115 0.00012800 -0.00002069 0.02757000 0.06214500 0.32128500
18 -4.52675523 -0.69058315 -1.12074485 -0.42618900 0.11495000 1.26439900
19 -1.74403646 0.00003031 -0.00000846 -0.02844000 -0.00827100 1.69871800
20 -1.36877054 0.00002446 0.00000531 0.01203500 0.05112800 0.12633469
21 -2.03710731 -0.89257885 0.93212815 2.31087500 0.31634700 0.79568800
22 -1.62695077 0.15466200 0.01182654 -0.13461300 0.15579700 0.35415800
23 -1.59928500 0.00001215 0.00001315 0.02557200 -0.03452200 0.91329531
24 5.51182300 0.00000615 0.00000507 2.10334883 -0.08663047 3.11050952
25 0.19684600 -0.00000131 0.00000285 2.79340665 0.00000565 -3.14157665
26 2.53710931 -13.68750238 -1.63085900 1.97586165 1.15990965 1.84280265
27 6.21449085 0.00000785 0.00001815 -1.07685774 0.87556996 -1.97217531
28 11.94490054 -0.00002831 -0.00019785 -0.06130772 -0.36647520 -1.21777834
29 10.62017385 -0.00000200 0.00000615 -1.60152543 -0.80038050 0.00717120
30 4.75116131 0.69437515 -0.83047515 -0.15838700 -0.11329300 1.15266100
31 1.68806246 -0.00002246 0.00000185 -0.00138300 -0.02473900 1.49469600
32 1.33615554 -0.00005200 -0.00000969 -0.00672600 -0.03818000 0.54551869
33 4.82051515 0.50933700 0.22486554 -0.20997600 0.06730700 1.50423900
34 1.82700223 0.00006346 0.00000907 0.00444600 0.04027400 1.38372100
35 1.43657893 -0.00000331 0.00000769 0.00903400 -0.01221000 0.20524000
36 3.99236069 0.89108800 1.82799623 -0.34242300 0.17989500 0.98693500
37 1.40592854 0.00002731 -0.00000485 -0.02344500 -0.01796100 1.79280000
38 1.17536869 -0.00013369 0.00000454 0.03069900 0.11943400 0.20718300
39 4.52675777 0.69046046 1.12084200 -0.18033100 0.18538300 1.43662200
40 1.74404300 -0.00003269 -0.00000138 -0.02663300 -0.01296500 1.52900300
41 1.36876777 -0.00003115 -0.00001838 0.03463100 0.15491200 0.03539700
42 1.87485954 0.93507815 -0.99913077 2.65251500 0.29446100 1.07986000
43 1.65820246 -0.32446285 -0.11920400 0.15928600 0.10876200 0.63044400
44 1.57421815 -0.10443285 0.03323454 0.08352300 0.00115700 0.81258600
45 5.51181069 -0.00000500 0.00000246 -0.23579700 0.00000500 0.00000700
46 0.19684900 0.00000485 -0.00000185 -0.34822500 0.00001500 -0.00000200
47 0.00000000 1.00000000 0.00000000 0.00000000 0.00000000 -1.57079600
48 2.59884311 -16.44597603 -5.76193733 0.29185428 -0.11013220 2.20867148
49 10.32031300 1.03124946 -4.47265685 0.49053900 1.12097300 1.98865800
50 3.73550100 0.00125669 -1.32376285 0.00000000 0.00000000 0.00000000
51 -0.00066915 -0.00054631 -1.33911585 0.00000000 0.00000000 0.00000000
52 0.04766000 -0.00000015 0.67144215 0.00000000 0.00000000 0.00000000
53 4.80553300 0.89926600 -0.32590715 0.00000000 0.00000000 0.00000000
54 -1.55556515 -0.00054615 0.65577800 0.00000000 0.00000000 0.00000000
55 -19.84132231 0.31651285 -0.95933300 0.00000000 0.00000000 0.00000000
56 -4.22386515 -1.63767615 -4.26925585 2.89813300 -0.03107300 -1.70865400
time 3
0 0.00000000 8.44531300 -27.50000000 0.00000000 0.00000000 -0.00000100
1 -0.00000200 0.00000000 0.00000000 1.57074700 -1.56714200 -1.57074700
2 4.25546600 -0.33518400 -0.00000200 0.00000000 0.00000000 -0.12484800
3 7.43125000 1.49647985 0.00000200 0.00000000 0.00000000 0.24545000
4 5.27848100 0.16554369 0.00000100 0.00000000 0.00000000 0.04851100
5 3.34385184 -5.40904124 -0.81403164 1.97586400 1.15990900 -1.29878600
6 -6.21448254 -0.00000985 -0.00002585 -3.05240132 -0.53507381 1.86578807
7 11.94488731 -0.00000200 -0.00000031 -0.35021879 -0.38164416 1.53292744
8 10.62019300 -0.00000185 0.00000185 0.67032838 -0.31083740 3.03316632
9 -4.75111031 -0.69449869 0.83058000 -0.13824100 -0.15285200 0.18762200
10 -1.68807100 0.00004738 -0.00003085 0.02148800 -0.01233669 0.38906600
11 -1.33614300 0.00005385 -0.00000885 0.02588469 0.00518215 0.35619800
12 -4.82049831 -0.50946469 -0.22475800 -0.34149100 -0.06544100 1.04874500
13 -1.82698885 -0.00007307 0.00000900 0.01748200 0.03656200 1.72003700
14 -1.43657054 0.00000385 0.00000300 -0.02391300 -0.07406000 0.22026000
15 -3.99236369 -0.89119000 -1.82791031 -0.60009400 0.19889500 1.32593900
16 -1.40592154 -0.00002638 -0.00000400 -0.01639185 -0.02456177 1.46415983
17 -1.17536185 0.00012869 -0.00001969 0.02757000 0.06214500 0.32128500
18 -4.52675538 -0.69058354 -1.12074585 -0.42618900 0.11495000 1.26439900
19 -1.74403662 0.00003131 -0.00000900 -0.02844000 -0.00827100 1.69871800
20 -1.36877069 0.00002415 0.00000431 0.01203500 0.05112800 0.12633469
21 -2.03710815 -0.89257885 0.93212815 2.31087500 0.31634700 0.79568800
22 -1.62695215 0.15466231 0.01182754 -0.13461300 0.15579700 0.35415800
23 -1.59928500 0.00001100 0.00001246 0.02557200 -0.03452200 0.91329531
24 5.51182331 0.00000662 0.00000454 2.10334883 -0.08663047 3.11050952
25 0.19684569 -0.00000285 0.00000215 2.79340665 0.00000565 -3.14157665
26 2.53710931 -13.68750238 -1.63085900 1.97586165 1.15990965 1.84280265
27 6.21449085 0.00000785 0.00001815 -1.10438433 0.87746514 -1.95896324
28 11.94490069 -0.00003015 -0.00019715 -0.05401264 -0.36276601 -1.24017433
29 10.62017300 -0.00000185 0.00000515 -1.57388290 -0.77923751 0.00570431
30 4.75116115 0.69437500 -0.83047569 -0.15838700 -0.11329300 1.15266100
31 1.68806331 -0.00002331 0.00000115 -0.00138300 -0.02473900 1.49469600
32 1.33615500 -0.00005115 -0.00000985 -0.00672600 -0.03818000 0.54551869
33 4.82051500 0.50933685 0.22486600 -0.20997600 0.06730700 1.50423900
34 1.82700207 0.00006415 0.00000854 0.00444600 0.04027400 1.38372100
35 1.43658569 -0.00000300 0.00000785 0.00903400 -0.01221185 0.20524000
36 3.99235969 0.89108785 1.82799515 -0.34242300 0.17989500 0.98693500
37 1.40592969 0.00002900 -0.00000454 -0.02344500 -0.01796100 1.79280000
38 1.17536954 -0.00013315 0.00000385 0.03069900 0.11943400 0.20718300
39 4.52675946 0.69046085 1.12084231 -0.18033100 0.18538300 1.43662200
40 1.74404385 -0.00003254 -0.00000154 -0.02663300 -0.01296500 1.52900300
41 1.36877131 -0.00003046 -0.00001769 0.03463100 0.15491200 0.03539700
42 1.87486038 0.93507800 -0.99913200 2.65251500 0.29446100 1.07986000
43 1.65820315 -0.32446115 -0.11920354 0.15928600 0.10876200 0.63044400
44 1.57421815 -0.10443285 0.03323538 0.08352300 0.00115700 0.81258600
45 5.51181000 -0.00000569 0.00000315 -0.23579700 0.00000500 0.00000700
46 0.19684900 0.00000400 -0.00000200 -0.34822500 0.00001500 -0.00000200
47 0.00000000 1.00000000 0.00000000 0.00000000 0.00000000 -1.57079600
48 2.97170342 -16.43934768 -5.66940707 0.28360627 -0.10742969 2.22656550
49 10.32031346 1.03125131 -4.47265600 0.49053900 1.12097300 1.98865800
50 3.73550031 0.00125715 -1.32376300 0.00000000 0.00000000 0.00000000
51 -0.00066985 -0.00054585 -1.33911585 0.00000000 0.00000000 0.00000000
52 0.04766000 0.00000000 0.67144300 0.00000000 0.00000000 0.00000000
53 4.80553231 0.89926615 -0.32590700 0.00000000 0.00000000 0.00000000
54 -1.55556415 -0.00054585 0.65577800 0.00000000 0.00000000 0.00000000
55 -19.84131862 0.31651300 -0.95933385 0.00000000 0.00000000 0.00000000
56 -4.22386585 -1.63767600 -4.26925569 2.89813300 -0.03107300 -1.70865400
time 4
0 0.00000000 8.44531300 -27.50000000 0.00000000 0.00000000 -0.00000100
1 -0.00000200 0.00000000 0.00000000 1.57074700 -1.56714200 -1.57074700
2 4.25546600 -0.33518400 -0.00000200 0.00000000 0.00000000 -0.12484800
3 7.43125000 1.49647985 0.00000200 0.00000000 0.00000000 0.24545000
4 5.27848100 0.16554369 0.00000100 0.00000000 0.00000000 0.04851100
5 3.38301957 -5.34878326 -0.87007167 1.97586400 1.15990900 -1.29878600
6 -6.21448254 -0.00001000 -0.00002585 -3.06153561 -0.52881913 1.84154642
7 11.94488900 -0.00000100 -0.00000200 -0.34087371 -0.37986397 1.50612521
8 10.62019331 -0.00000100 0.00000285 0.64147821 -0.28748152 3.04438285
9 -4.75110793 -0.69449854 0.83058000 -0.13824100 -0.15285200 0.18762200
10 -1.68806931 0.00004754 -0.00003085 0.02148800 -0.01233669 0.38906600
11 -1.33614131 0.00005385 -0.00000915 0.02588469 0.00518215 0.35619800
12 -4.82049731 -0.50946415 -0.22475800 -0.34149100 -0.06544100 1.04874500
13 -1.82699038 -0.00007154 0.00000900 0.01748200 0.03656200 1.72003700
14 -1.43656900 0.00000485 0.00000331 -0.02391300 -0.07406000 0.22026000
15 -3.99236285 -0.89118985 -1.82791062 -0.60009400 0.19889500 1.32593900
16 -1.40592207 -0.00002469 -0.00000485 -0.01639185 -0.02456177 1.46415983
17 -1.17536354 0.00012785 -0.00001985 0.02757000 0.06214500 0.32128500
18 -4.52675538 -0.69058300 -1.12074485 -0.42618900 0.11495000 1.26439900
19 -1.74403746 0.00003031 -0.00000931 -0.02844000 -0.00827100 1.69871800
20 -1.36876885 0.00002415 0.00000346 0.01203500 0.05112800 0.12633469
21 -2.03710731 -0.89257885 0.93212915 2.31087500 0.31634700 0.79568800
22 -1.62695215 0.15466300 0.01182654 -0.13461300 0.15579700 0.35415800
23 -1.59928515 0.00001254 0.00001231 0.02557200 -0.03452200 0.91329531
24 5.51182262 0.00000615 0.00000354 2.10334883 -0.08663047 3.11050952
25 0.19684600 -0.00000115 0.00000285 2.79340665 0.00000565 -3.14157665
26 2.53710931 -13.68750238 -1.63085900 1.97586165 1.15990965 1.84280265
27 6.21449085 0.00000785 0.00001815 -1.14075728 0.87953504 -1.94109623
28 11.94490038 -0.00003100 -0.00019885 -0.04913144 -0.35634674 -1.26672808
29 10.62017369 -0.00000200 0.00000600 -1.52556799 -0.74384180 -0.00323380
30 4.75115962 0.69437500 -0.83047685 -0.15838700 -0.11329300 1.15266100
31 1.68806315 -0.00002215 0.00000146 -0.00138300 -0.02473900 1.49469600
32 1.33615654 -0.00005069 -0.00001154 -0.00672600 -0.03818000 0.54551869
33 4.82051346 0.50933715 0.22486500 -0.20997600 0.06730700 1.50423900
34 1.82700254 0.00006654 0.00000969 0.00444600 0.04027400 1.38372100
35 1.43658331 -0.00000400 0.00000715 0.00903400 -0.01221000 0.20524000
36 3.99235900 0.89108831 1.82799485 -0.34242300 0.17989500 0.98693500
37 1.40592869 0.00002900 -0.00000338 -0.02344500 -0.01796100 1.79280000
38 1.17536462 -0.00013400 0.00000400 0.03069900 0.11943400 0.20718300
39 4.52675723 0.69046046 1.12084231 -0.18033100 0.18538300 1.43662200
40 1.74404385 -0.00003085 -0.00000100 -0.02663300 -0.01296500 1.52900300
41 1.36877115 -0.00003015 -0.00001838 0.03463100 0.15491200 0.03539700
42 1.87485900 0.93507831 -0.99913200 2.65251500 0.29446100 1.07986000
43 1.65820231 -0.32446185 -0.11920169 0.15928600 0.10876200 0.63044400
44 1.57421885 -0.10443423 0.03323538 0.08352300 0.00115700 0.81258600
45 5.51181223 -0.00000585 0.00000469 -0.23579700 0.00000500 0.00000700
46 0.19684900 0.00000315 -0.00000115 -0.34822500 0.00001500 -0.00000200
47 0.00000000 1.00000000 0.00000000 0.00000000 0.00000000 -1.57079600
48 3.42218147 -16.43091161 -5.59730106 0.26344159 -0.09977943 2.24723304
49 10.32031315 1.03125031 -4.47265585 0.49053900 1.12097300 1.98865800
50 3.73550200 0.00125700 -1.32376200 0.00000000 0.00000000 0.00000000
51 -0.00066885 -0.00054600 -1.33911485 0.00000000 0.00000000 0.00000000
52 0.04766100 0.00000000 0.67144200 0.00000000 0.00000000 0.00000000
53 4.80553231 0.89926631 -0.32590631 0.00000000 0.00000000 0.00000000
54 -1.55556346 -0.00054585 0.65577785 0.00000000 0.00000000 0.00000000
55 -19.84132169 0.31651315 -0.95933300 0.00000000 0.00000000 0.00000000
56 -4.22386600 -1.63767585 -4.26925585 2.89813300 -0.03107300 -1.70865400
time 5
0 0.00000000 8.44531300 -27.50000000 0.00000000 0.00000000 -0.00000100
1 -0.00000200 0.00000000 0.00000000 1.57074700 -1.56714200 -1.57074700
2 4.25546600 -0.33518400 -0.00000200 0.00000000 0.00000000 -0.12484800
3 7.43125000 1.49647985 0.00000200 0.00000000 0.00000000 0.24545000
4 5.27848100 0.16554369 0.00000100 0.00000000 0.00000000 0.04851100
5 3.48606043 -5.19030535 -1.01710074 1.97586400 1.15990900 -1.29878600
6 -6.21448269 -0.00000985 -0.00002600 -3.07357479 -0.52250034 1.81846745
7 11.94488815 -0.00000031 -0.00000231 -0.32733785 -0.37384611 1.46739015
8 10.62019285 -0.00000015 0.00000100 0.61242636 -0.25167671 3.06049565
9 -4.75110915 -0.69449869 0.83057931 -0.13824100 -0.15285200 0.18762200
10 -1.68807031 0.00004838 -0.00003115 0.02148800 -0.01233669 0.38906600
11 -1.33614300 0.00005485 -0.00000900 0.02588469 0.00518215 0.35619800
12 -4.82049700 -0.50946415 -0.22475969 -0.34149100 -0.06544100 1.04874500
13 -1.82699054 -0.00007223 0.00000785 0.01748200 0.03656200 1.72003700
14 -1.43656985 0.00000469 0.00000231 -0.02391300 -0.07406000 0.22026000
15 -3.99236254 -0.89119000 -1.82791131 -0.60009400 0.19889500 1.32593900
16 -1.40592123 -0.00002554 -0.00000415 -0.01639185 -0.02456177 1.46415983
17 -1.17536269 0.00012869 -0.00001985 0.02757000 0.06214500 0.32128500
18 -4.52675507 -0.69058300 -1.12074654 -0.42618900 0.11495000 1.26439900
19 -1.74403731 0.00003115 -0.00000846 -0.02844000 -0.00827100 1.69871800
20 -1.36877054 0.00002400 0.00000446 0.01203500 0.05112800 0.12633469
21 -2.03710785 -0.89257869 0.93212731 2.31087500 0.31634700 0.79568800
22 -1.62695215 0.15466215 0.01182669 -0.13461300 0.15579700 0.35415800
23 -1.59928500 0.00001254 0.00001315 0.02557200 -0.03452200 0.91329531
24 5.51182215 0.00000731 0.00000185 2.10334883 -0.08663047 3.11050952
25 0.19684600 -0.00000115 0.00000200 2.79340665 0.00000565 -3.14157665
26 2.53710931 -13.68750238 -1.63085900 1.97586165 1.15990965 1.84280265
27 6.21449085 0.00000785 0.00001815 -1.17446029 0.88034429 -1.91880702
28 11.94490069 -0.00002931 -0.00019785 -0.05305474 -0.34643190 -1.28656584
29 10.62017454 -0.00000315 0.00000531 -1.47723311 -0.70413147 -0.01655142
30 4.75116131 0.69437554 -0.83047469 -0.15838700 -0.11329300 1.15266100
31 1.68806177 -0.00002077 0.00000115 -0.00138300 -0.02473900 1.49469600
32 1.33615485 -0.00005031 -0.00001100 -0.00672600 -0.03818000 0.54551869
33 4.82051415 0.50933654 0.22486769 -0.20997600 0.06730700 1.50423900
34 1.82700254 0.00006400 0.00000900 0.00444600 0.04027400 1.38372100
35 1.43658262 -0.00000315 0.00000754 0.00903400 -0.01221000 0.20524000
36 3.99236054 0.89108800 1.82799615 -0.34242300 0.17989500 0.98693500
37 1.40592969 0.00002662 -0.00000400 -0.02344500 -0.01796100 1.79280000
38 1.17536600 -0.00013400 0.00000315 0.03069900 0.11943400 0.20718300
39 4.52675693 0.69046100 1.12084346 -0.18033100 0.18538300 1.43662200
40 1.74404300 -0.00003338 -0.00000238 -0.02663300 -0.01296500 1.52900300
41 1.36877031 -0.00003000 -0.00001754 0.03463100 0.15491200 0.03539700
42 1.87485869 0.93507815 -0.99913000 2.65251500 0.29446100 1.07986000
43 1.65820231 -0.32446146 -0.11920385 0.15928600 0.10876200 0.63044400
44 1.57421800 -0.10443369 0.03323523 0.08352300 0.00115700 0.81258600
45 5.51181185 -0.00000585 0.00000315 -0.23579700 0.00000500 0.00000700
46 0.19684900 0.00000400 -0.00000185 -0.34822500 0.00001500 -0.00000200
47 0.00000000 1.00000000 0.00000000 0.00000000 0.00000000 -1.57079600
48 3.90051930 -16.42127034 -5.58076656 0.24279847 -0.09081216 2.26272861
49 10.32031231 1.03125031 -4.47265615 0.49053900 1.12097300 1.98865800
50 3.73550031 0.00125669 -1.32376385 0.00000000 0.00000000 0.00000000
51 -0.00067054 -0.00054631 -1.33911585 0.00000000 0.00000000 0.00000000
52 0.04766000 0.00000000 0.67144215 0.00000000 0.00000000 0.00000000
53 4.80553231 0.89926585 -0.32590715 0.00000000 0.00000000 0.00000000
54 -1.55556600 -0.00054615 0.65577785 0.00000000 0.00000000 0.00000000
55 -19.84132400 0.31651285 -0.95933315 0.00000000 0.00000000 0.00000000
56 -4.22386600 -1.63767615 -4.26925669 2.89813300 -0.03107300 -1.70865400
time 6
0 0.00000000 8.44531300 -27.50000000 0.00000000 0.00000000 -0.00000100
1 -0.00000200 0.00000000 0.00000000 1.57074700 -1.56714200 -1.57074700
2 4.25546600 -0.33518400 -0.00000200 0.00000000 0.00000000 -0.12484800
3 7.43125000 1.49647985 0.00000200 0.00000000 0.00000000 0.24545000
4 5.27848100 0.16554369 0.00000100 0.00000000 0.00000000 0.04851100
5 3.63188415 -4.96554363 -1.22559285 1.97586400 1.15990900 -1.29878600
6 -6.21448254 -0.00000985 -0.00002600 -3.09032549 -0.51838628 1.80280814
7 11.94488869 -0.00000200 -0.00000115 -0.31548000 -0.36554207 1.43360884
8 10.62019331 -0.00000131 0.00000185 0.59479559 -0.21194512 3.06401633
9 -4.75110846 -0.69449885 0.83057977 -0.13824100 -0.15285200 0.18762200
10 -1.68807015 0.00004769 -0.00003115 0.02148800 -0.01233669 0.38906600
11 -1.33614300 0.00005554 -0.00000915 0.02588469 0.00518215 0.35619800
12 -4.82049815 -0.50946500 -0.22475838 -0.34149100 -0.06544100 1.04874500
13 -1.82699054 -0.00007154 0.00000885 0.01748200 0.03656200 1.72003700
14 -1.43657085 0.00000400 0.00000331 -0.02391300 -0.07406000 0.22026000
15 -3.99236185 -0.89119015 -1.82791100 -0.60009400 0.19889500 1.32593900
16 -1.40592054 -0.00002707 -0.00000385 -0.01639185 -0.02456177 1.46415983
17 -1.17536285 0.00012869 -0.00001969 0.02757000 0.06214500 0.32128500
18 -4.52675523 -0.69058315 -1.12074538 -0.42618900 0.11495000 1.26439900
19 -1.74403677 0.00003085 -0.00000846 -0.02844000 -0.00827100 1.69871800
20 -1.36877000 0.00002331 0.00000415 0.01203500 0.05112800 0.12633469
21 -2.03710815 -0.89257869 0.93212762 2.31087500 0.31634700 0.79568800
22 -1.62695131 0.15466315 0.01182685 -0.13461300 0.15579700 0.35415800
23 -1.59928500 0.00001100 0.00001246 0.02557200 -0.03452200 0.91329531
24 5.51182262 0.00000715 0.00000269 2.10334883 -0.08663047 3.11050952
25 0.19684585 -0.00000300 0.00000300 2.79340665 0.00000565 -3.14157665
26 2.53710931 -13.68750238 -1.63085900 1.97586165 1.15990965 1.84280265
27 6.21449085 0.00000785 0.00001815 -1.18784901 0.88203556 -1.88906828
28 11.94490054 -0.00002946 -0.00019885 -0.06670520 -0.33175721 -1.29303200
29 10.62017385 -0.00000285 0.00000600 -1.45305797 -0.67212368 -0.02507070
30 4.75115962 0.69437515 -0.83047600 -0.15838700 -0.11329300 1.15266100
31 1.68806393 -0.00002162 0.00000215 -0.00138300 -0.02473900 1.49469600
32 1.33615500 -0.00004862 -0.00001085 -0.00672600 -0.03818000 0.54551869
33 4.82051500 0.50933715 0.22486569 -0.20997600 0.06730700 1.50423900
34 1.82700207 0.00006569 0.00000838 0.00444415 0.04027400 1.38372100
35 1.43658093 -0.00000500 0.00000785 0.00903400 -0.01221185 0.20524000
36 3.99235900 0.89108815 1.82799500 -0.34242300 0.17989500 0.98693500
37 1.40592685 0.00003069 -0.00000438 -0.02344500 -0.01796100 1.79280000
38 1.17536654 -0.00013215 0.00000369 0.03069900 0.11943400 0.20718300
39 4.52675608 0.69046131 1.12084231 -0.18033100 0.18538300 1.43662200
40 1.74404285 -0.00002846 -0.00000238 -0.02663300 -0.01296500 1.52900300
41 1.36876915 -0.00003015 -0.00001807 0.03463100 0.15491200 0.03539700
42 1.87485885 0.93507846 -0.99913115 2.65251500 0.29446100 1.07986000
43 1.65820215 -0.32445946 -0.11920415 0.15928600 0.10876200 0.63044400
44 1.57421785 -0.10443185 0.03323469 0.08352300 0.00115700 0.81258600
45 5.51181138 -0.00000654 0.00000385 -0.23579700 0.00000500 0.00000700
46 0.19684900 0.00000415 -0.00000185 -0.34822500 0.00001500 -0.00000200
47 0.00000000 1.00000000 0.00000000 0.00000000 0.00000000 -1.57079600
48 4.31798393 -16.41042388 -5.66891497 0.22843624 -0.08639672 2.26314876
49 10.32031454 1.03125062 -4.47265600 0.49053900 1.12097300 1.98865800
50 3.73550254 0.00125715 -1.32376385 0.00000000 0.00000000 0.00000000
51 -0.00066762 -0.00054554 -1.33911585 0.00000000 0.00000000 0.00000000
52 0.04766169 0.00000031 0.67144215 0.00000000 0.00000000 0.00000000
53 4.80553369 0.89926631 -0.32590700 0.00000000 0.00000000 0.00000000
54 -1.55556346 -0.00054569 0.65577785 0.00000000 0.00000000 0.00000000
55 -19.84131862 0.31651331 -0.95933385 0.00000000 0.00000000 0.00000000
56 -4.22386515 -1.63767569 -4.26925669 2.89813300 -0.03107300 -1.70865400
time 7
0 0.00000000 8.44531300 -27.50000000 0.00000000 0.00000000 -0.00000100
1 -0.00000200 0.00000000 0.00000000 1.57074700 -1.56714200 -1.57074700
2 4.25546600 -0.33518400 -0.00000200 0.00000000 0.00000000 -0.12484800
3 7.43125000 1.49647985 0.00000200 0.00000000 0.00000000 0.24545000
4 5.27848100 0.16554369 0.00000100 0.00000000 0.00000000 0.04851100
5 3.79879844 -4.70824267 -1.46421380 1.97586400 1.15990900 -1.29878600
6 -6.21448254 -0.00001000 -0.00002585 -3.11214999 -0.51690929 1.79776721
7 11.94488915 -0.00000085 -0.00000046 -0.31030176 -0.35822516 1.41888532
8 10.62019469 -0.00000115 0.00000200 0.57672301 -0.17837871 3.04006090
9 -4.75110946 -0.69449854 0.83057946 -0.13824100 -0.15285200 0.18762200
10 -1.68806931 0.00004754 -0.00003100 0.02148800 -0.01233669 0.38906600
11 -1.33614300 0.00005469 -0.00000985 0.02588469 0.00518215 0.35619800
12 -4.82049815 -0.50946485 -0.22475869 -0.34149100 -0.06544100 1.04874500
13 -1.82699054 -0.00007223 0.00000785 0.01748200 0.03656200 1.72003700
14 -1.43657100 0.00000485 0.00000315 -0.02391300 -0.07406000 0.22026000
15 -3.99236285 -0.89118985 -1.82791031 -0.60009400 0.19889500 1.32593900
16 -1.40592154 -0.00002569 -0.00000400 -0.01639185 -0.02456177 1.46415983
17 -1.17536185 0.00012885 -0.00002054 0.02757000 0.06214500 0.32128500
18 -4.52675438 -0.69058285 -1.12074469 -0.42618900 0.11495000 1.26439900
19 -1.74403662 0.00003200 -0.00000815 -0.02844000 -0.00827100 1.69871800
20 -1.36877000 0.00002346 0.00000515 0.01203500 0.05112800 0.12633469
21 -2.03710746 -0.89257869 0.93212831 2.31087500 0.31634700 0.79568800
22 -1.62695146 0.15466331 0.01182754 -0.13461300 0.15579700 0.35415800
23 -1.59928585 0.00001169 0.00001331 0.02557200 -0.03452200 0.91329531
24 5.51182400 0.00000669 0.00000269 2.10334883 -0.08663047 3.11050952
25 0.19684585 -0.00000285 0.00000300 2.79340665 0.00000565 -3.14157665
26 2.53710931 -13.68750238 -1.63085900 1.97586165 1.15990965 1.84280265
27 6.21449085 0.00000785 0.00001815 -1.18021832 0.88706611 -1.85686586
28 11.94490085 -0.00002946 -0.00019785 -0.08594522 -0.31755098 -1.29520442
29 10.62017369 -0.00000200 0.00000700 -1.44046003 -0.64322288 -0.02054037
30 4.75116046 0.69437569 -0.83047800 -0.15838700 -0.11329300 1.15266100
31 1.68806331 -0.00002415 0.00000200 -0.00138300 -0.02473900 1.49469600
32 1.33615400 -0.00005238 -0.00001000 -0.00672600 -0.03818000 0.54551869
33 4.82051315 0.50933669 0.22486354 -0.20997600 0.06730700 1.50423900
34 1.82700269 0.00006485 0.00000900 0.00444415 0.04027400 1.38372100
35 1.43658077 -0.00000400 0.00000785 0.00903400 -0.01221000 0.20524000
36 3.99236069 0.89108815 1.82799385 -0.34242300 0.17989500 0.98693500
37 1.40592969 0.00002562 -0.00000400 -0.02344500 -0.01796100 1.79280000
38 1.17536923 -0.00013300 0.00000300 0.03069900 0.11943400 0.20718300
39 4.52675793 0.69046146 1.12084100 -0.18033100 0.18538300 1.43662200
40 1.74404300 -0.00002931 -0.00000238 -0.02663300 -0.01296500 1.52900300
41 1.36876762 -0.00003046 -0.00001754 0.03463100 0.15491200 0.03539700
42 1.87485885 0.93507815 -0.99913246 2.65251500 0.29446100 1.07986000
43 1.65820231 -0.32446285 -0.11920315 0.15928600 0.10876200 0.63044400
44 1.57421785 -0.10443185 0.03323554 0.08352300 0.00115700 0.81258600
45 5.51181169 -0.00000585 0.00000415 -0.23579700 0.00000500 0.00000700
46 0.19684900 0.00000385 -0.00000100 -0.34822500 0.00001500 -0.00000200
47 0.00000000 1.00000000 0.00000000 0.00000000 0.00000000 -1.57079600
48 4.59901078 -16.39897490 -5.80828568 0.20714700 -0.09003959 2.24692560
49 10.32031300 1.03124977 -4.47265546 0.49053900 1.12097300 1.98865800
50 3.73550100 0.00125715 -1.32376315 0.00000000 0.00000000 0.00000000
51 -0.00066915 -0.00054585 -1.33911615 0.00000000 0.00000000 0.00000000
52 0.04766100 0.00000015 0.67144200 0.00000000 0.00000000 0.00000000
53 4.80553200 0.89926631 -0.32590731 0.00000000 0.00000000 0.00000000
54 -1.55556615 -0.00054600 0.65577769 0.00000000 0.00000000 0.00000000
55 -19.84132400 0.31651300 -0.95933431 0.00000000 0.00000000 0.00000000
56 -4.22386600 -1.63767585 -4.26925700 2.89813300 -0.03107300 -1.70865400
time 8
0 0.00000000 8.44531300 -27.50000000 0.00000000 0.00000000 -0.00000100
1 -0.00000200 0.00000000 0.00000000 1.57074700 -1.56714200 -1.57074700
2 4.25546600 -0.33518400 -0.00000200 0.00000000 0.00000000 -0.12484800
3 7.43125000 1.49647985 0.00000200 0.00000000 0.00000000 0.24545000
4 5.27848100 0.16554369 0.00000100 0.00000000 0.00000000 0.04851100
5 3.96631509 -4.45094171 -1.70223222 1.97586400 1.15990900 -1.29878600
6 -6.21448254 -0.00001000 -0.00002585 -3.11721673 -0.51048932 1.79779721
7 11.94488900 -0.00000100 -0.00000062 -0.31657618 -0.35247585 1.43754411
8 10.62019469 -0.00000185 0.00000200 0.54668288 -0.20494289 2.97198792
9 -4.75110862 -0.69449769 0.83058031 -0.13824100 -0.15285115 0.18762369
10 -1.68806846 0.00004685 -0.00003085 0.02148800 -0.01233669 0.38906600
11 -1.33614231 0.00005538 -0.00000946 0.02588300 0.00518300 0.35619800
12 -4.82049800 -0.50946400 -0.22475854 -0.34149269 -0.06544015 1.04874500
13 -1.82698969 -0.00007223 0.00000885 0.01748200 0.03656200 1.72003700
14 -1.43656985 0.00000485 0.00000215 -0.02391300 -0.07406000 0.22026000
15 -3.99236200 -0.89118915 -1.82791100 -0.60009400 0.19889500 1.32593900
16 -1.40592123 -0.00002623 -0.00000300 -0.01639100 -0.02455500 1.46412600
17 -1.17536215 0.00012800 -0.00001985 0.02757000 0.06214500 0.32128500
18 -4.52675507 -0.69058285 -1.12074554 -0.42618900 0.11495000 1.26439900
19 -1.74403577 0.00003031 -0.00000731 -0.02844000 -0.00827100 1.69871800
20 -1.36876985 0.00002331 0.00000331 0.01203500 0.05112800 0.12633469
21 -2.03710731 -0.89257869 0.93212831 2.31087500 0.31634700 0.79568800
22 -1.62695215 0.15466300 0.01182585 -0.13461131 0.15579700 0.35415800
23 -1.59928669 0.00001100 0.00001246 0.02557200 -0.03452200 0.91329700
24 5.51182415 0.00000631 0.00000338 2.10334883 -0.08663047 3.11050952
25 0.19684600 -0.00000200 0.00000285 2.79340665 0.00000565 -3.14157665
26 2.53710931 -13.68750238 -1.63085900 1.97586165 1.15990965 1.84280265
27 6.21449085 0.00000785 0.00001815 -1.17194596 0.90968802 -1.83645513
28 11.94490038 -0.00003115 -0.00019785 -0.10053115 -0.31304966 -1.31897226
29 10.62017400 -0.00000169 0.00000515 -1.42254552 -0.61614000 0.02661663
30 4.75116031 0.69437500 -0.83047500 -0.15838785 -0.11329469 1.15266100
31 1.68806362 -0.00002415 0.00000115 -0.00138300 -0.02473900 1.49469600
32 1.33615331 -0.00005069 -0.00001085 -0.00672600 -0.03818000 0.54551700
33 4.82051500 0.50933685 0.22486769 -0.20997685 0.06730785 1.50423900
34 1.82700185 0.00006162 0.00000985 0.00444415 0.04027400 1.38372100
35 1.43658331 -0.00000431 0.00000900 0.00903400 -0.01221000 0.20524000
36 3.99236123 0.89108769 1.82799638 -0.34242300 0.17989500 0.98693500
37 1.40592838 0.00002900 -0.00000331 -0.02344500 -0.01796100 1.79280000
38 1.17536569 -0.00013331 0.00000200 0.03069900 0.11943400 0.20718300
39 4.52675862 0.69046015 1.12084400 -0.18033100 0.18538300 1.43662200
40 1.74404300 -0.00003000 -0.00000069 -0.02663300 -0.01296500 1.52900300
41 1.36877215 -0.00003046 -0.00001754 0.03463100 0.15491200 0.03539700
42 1.87486038 0.93507800 -0.99913015 2.65251500 0.29446100 1.07986000
43 1.65820315 -0.32446062 -0.11920369 0.15928600 0.10876200 0.63044400
44 1.57421646 -0.10443185 0.03323538 0.08352300 0.00115700 0.81258600
45 5.51181215 -0.00000654 0.00000315 -0.23579700 0.00000500 0.00000700
46 0.19684900 0.00000215 -0.00000100 -0.34822500 0.00001500 -0.00000200
47 0.00000000 1.00000000 0.00000000 0.00000000 0.00000000 -1.57079600
48 4.75783834 -16.38692339 -5.91733502 0.16452121 -0.12844097 2.22412654
49 10.32031331 1.03125146 -4.47265600 0.49053900 1.12097300 1.98865800
50 3.73550031 0.00125700 -1.32376369 0.00000000 0.00000000 0.00000000
51 -0.00066985 -0.00054600 -1.33911585 0.00000000 0.00000000 0.00000000
52 0.04766031 -0.00000015 0.67144131 0.00000000 0.00000000 0.00000000
53 4.80553231 0.89926600 -0.32590700 0.00000000 0.00000000 0.00000000
54 -1.55556515 -0.00054600 0.65577800 0.00000000 0.00000000 0.00000000
55 -19.84132200 0.31651285 -0.95933385 0.00000000 0.00000000 0.00000000
56 -4.22386700 -1.63767600 -4.26925654 2.89813300 -0.03107300 -1.70865400
time 9
0 0.00000000 8.44531300 -27.50000000 0.00000000 0.00000000 -0.00000100
1 -0.00000200 0.00000000 0.00000000 1.57074700 -1.56714200 -1.57074700
2 4.25546600 -0.33518400 -0.00000200 0.00000000 0.00000000 -0.12484800
3 7.43125000 1.49647985 0.00000200 0.00000000 0.00000000 0.24545000
4 5.27848100 0.16554369 0.00000100 0.00000000 0.00000000 0.04851100
5 4.11213896 -4.22678266 -1.91012181 1.97586400 1.15990900 -1.29878600
6 -6.21448254 -0.00001000 -0.00002585 -3.11578227 -0.50164587 1.80373138
7 11.94488715 -0.00000185 -0.00000215 -0.32345986 -0.35145191 1.45801768
8 10.62019285 -0.00000100 0.00000285 0.52678600 -0.24825620 2.91312464
9 -4.75110862 -0.69449854 0.83058031 -0.13824100 -0.15285115 0.18762369
10 -1.68806946 0.00004669 -0.00003169 0.02148800 -0.01233669 0.38906600
11 -1.33614300 0.00005469 -0.00000985 0.02588300 0.00518300 0.35619800
12 -4.82049800 -0.50946315 -0.22475854 -0.34149269 -0.06544015 1.04874500
13 -1.82699054 -0.00007138 0.00000815 0.01748200 0.03656200 1.72003700
14 -1.43656985 0.00000485 0.00000315 -0.02391300 -0.07406000 0.22026000
15 -3.99236254 -0.89118915 -1.82790931 -0.60009400 0.19889500 1.32593900
16 -1.40592138 -0.00002569 -0.00000400 -0.01639100 -0.02455500 1.46412600
17 -1.17536215 0.00012885 -0.00001985 0.02757000 0.06214500 0.32128500
18 -4.52675338 -0.69058300 -1.12074485 -0.42618900 0.11495000 1.26439900
19 -1.74403662 0.00003100 -0.00000915 -0.02844000 -0.00827100 1.69871800
20 -1.36876985 0.00002415 0.00000446 0.01203500 0.05112800 0.12633469
21 -2.03710731 -0.89257869 0.93212931 2.31087500 0.31634700 0.79568800
22 -1.62695231 0.15466200 0.01182654 -0.13461131 0.15579700 0.35415800
23 -1.59928669 0.00001085 0.00001315 0.02557200 -0.03452200 0.91329700
24 5.51182300 0.00000646 0.00000354 2.10334883 -0.08663047 3.11050952
25 0.19684585 -0.00000285 0.00000215 2.79340665 0.00000565 -3.14157665
26 2.53710931 -13.68750238 -1.63085900 1.97586165 1.15990965 1.84280265
27 6.21449085 0.00000785 0.00001815 -1.15760661 0.93280510 -1.82847281
28 11.94490054 -0.00003015 -0.00019785 -0.11566136 -0.31320718 -1.34117122
29 10.62017469 -0.00000162 0.00000615 -1.40942852 -0.60685094 0.07217251
30 4.75116115 0.69437500 -0.83047554 -0.15838785 -0.11329469 1.15266100
31 1.68806246 -0.00001908 0.00000115 -0.00138300 -0.02473900 1.49469600
32 1.33615369 -0.00005154 -0.00001015 -0.00672600 -0.03818000 0.54551700
33 4.82051500 0.50933685 0.22486515 -0.20997685 0.06730785 1.50423900
34 1.82700169 0.00006200 0.00000938 0.00444600 0.04027400 1.38372100
35 1.43658231 -0.00000446 0.00000800 0.00903400 -0.01221000 0.20524000
36 3.99236054 0.89108800 1.82799531 -0.34242300 0.17989500 0.98693500
37 1.40592785 0.00002831 -0.00000469 -0.02344500 -0.01796100 1.79280000
38 1.17536400 -0.00013385 0.00000400 0.03069900 0.11943400 0.20718300
39 4.52675677 0.69046031 1.12084146 -0.18033100 0.18538300 1.43662200
40 1.74404300 -0.00003231 -0.00000138 -0.02663300 -0.01296500 1.52900300
41 1.36877238 -0.00003031 -0.00001907 0.03463100 0.15491200 0.03539700
42 1.87485954 0.93507800 -0.99913200 2.65251500 0.29446100 1.07986000
43 1.65820215 -0.32446200 -0.11920315 0.15928600 0.10876200 0.63044400
44 1.57421931 -0.10443238 0.03323638 0.08352300 0.00115700 0.81258600
45 5.51181154 -0.00000631 0.00000400 -0.23579700 0.00000500 0.00000700
46 0.19685000 0.00000231 -0.00000185 -0.34822500 0.00001500 -0.00000200
47 0.00000000 1.00000000 0.00000000 0.00000000 0.00000000 -1.57079600
48 4.72721100 -16.37547441 -5.99888760 0.13234599 -0.17024329 2.20193162
49 10.32031300 1.03125131 -4.47265700 0.49053900 1.12097300 1.98865800
50 3.73550085 0.00125700 -1.32376400 0.00000000 0.00000000 0.00000000
51 -0.00067000 -0.00054585 -1.33911600 0.00000000 0.00000000 0.00000000
52 0.04766169 0.00000000 0.67144231 0.00000000 0.00000000 0.00000000
53 4.80553200 0.89926631 -0.32590715 0.00000000 0.00000000 0.00000000
54 -1.55556462 -0.00054585 0.65577785 0.00000000 0.00000000 0.00000000
55 -19.84131862 0.31651315 -0.95933400 0.00000000 0.00000000 0.00000000
56 -4.22386631 -1.63767585 -4.26925754 2.89813300 -0.03107300 -1.70865400
time 10
0 0.00000000 8.44531300 -27.50000000 0.00000000 0.00000000 -0.00000100
1 -0.00000200 0.00000000 0.00000000 1.57074700 -1.56714200 -1.57074700
2 4.25546600 -0.33518400 -0.00000200 0.00000000 0.00000000 -0.12484800
3 7.43125000 1.49647985 0.00000200 0.00000000 0.00000000 0.24545000
4 5.27848100 0.16554369 0.00000100 0.00000000 0.00000000 0.04851100
5 4.21518013 -4.06770193 -2.05715088 1.97586400 1.15990900 -1.29878600
6 -6.21448254 -0.00001000 -0.00002600 -3.13012438 -0.49978534 1.82943266
7 11.94488715 -0.00000100 -0.00000215 -0.32702715 -0.35332906 1.46834452
8 10.62019215 -0.00000200 0.00000000 0.51893607 -0.24674727 2.89561065
9 -4.75110862 -0.69449869 0.83057946 -0.13824100 -0.15285115 0.18762369
10 -1.68806931 0.00004754 -0.00003100 0.02148800 -0.01233669 0.38906600
11 -1.33614385 0.00005554 -0.00000985 0.02588300 0.00518300 0.35619800
12 -4.82049800 -0.50946485 -0.22475954 -0.34149269 -0.06544015 1.04874500
13 -1.82698969 -0.00007223 0.00000800 0.01748200 0.03656200 1.72003700
14 -1.43656969 0.00000400 0.00000315 -0.02391300 -0.07406000 0.22026000
15 -3.99236200 -0.89119000 -1.82791185 -0.60009400 0.19889500 1.32593900
16 -1.40592138 -0.00002654 -0.00000400 -0.01639100 -0.02455500 1.46412600
17 -1.17536215 0.00012785 -0.00001985 0.02757000 0.06214500 0.32128500
18 -4.52675423 -0.69058300 -1.12074554 -0.42618900 0.11495000 1.26439900
19 -1.74403662 0.00003131 -0.00000900 -0.02844000 -0.00827100 1.69871800
20 -1.36876985 0.00002431 0.00000546 0.01203500 0.05112800 0.12633469
21 -2.03710715 -0.89257869 0.93212746 2.31087500 0.31634700 0.79568800
22 -1.62695215 0.15466215 0.01182669 -0.13461131 0.15579700 0.35415800
23 -1.59928585 0.00001254 0.00001231 0.02557200 -0.03452200 0.91329700
24 5.51182162 0.00000615 0.00000269 2.10334883 -0.08663047 3.11050952
25 0.19684600 -0.00000200 0.00000300 2.79340665 0.00000565 -3.14157665
26 2.53710931 -13.68750238 -1.63085900 1.97586165 1.15990965 1.84280265
27 6.21449085 0.00000785 0.00001815 -1.11941120 0.93893184 -1.82837565
28 11.94490038 -0.00003100 -0.00019800 -0.13779768 -0.31395171 -1.33642268
29 10.62017469 0.00000015 0.00000615 -1.40648560 -0.61939601 0.07367466
30 4.75115877 0.69437500 -0.83047515 -0.15838785 -0.11329469 1.15266100
31 1.68806415 -0.00002400 0.00000269 -0.00138300 -0.02473900 1.49469600
32 1.33615554 -0.00005300 -0.00001000 -0.00672600 -0.03818000 0.54551700
33 4.82051415 0.50933685 0.22486638 -0.20997685 0.06730785 1.50423900
34 1.82700269 0.00006654 0.00000885 0.00444600 0.04027400 1.38372100
35 1.43658185 -0.00000431 0.00000815 0.00903400 -0.01221000 0.20524000
36 3.99235885 0.89108800 1.82799638 -0.34242300 0.17989500 0.98693500
37 1.40592854 0.00002646 -0.00000485 -0.02344500 -0.01796100 1.79280000
38 1.17536869 -0.00013315 0.00000469 0.03069900 0.11943400 0.20718300
39 4.52675454 0.69046131 1.12084300 -0.18033100 0.18538300 1.43662200
40 1.74404300 -0.00003015 -0.00000169 -0.02663300 -0.01296500 1.52900300
41 1.36876915 -0.00003046 -0.00001738 0.03463100 0.15491200 0.03539700
42 1.87485800 0.93507815 -0.99913146 2.65251500 0.29446100 1.07986000
43 1.65820231 -0.32446146 -0.11920385 0.15928600 0.10876200 0.63044400
44 1.57421854 -0.10443254 0.03323469 0.08352300 0.00115700 0.81258600
45 5.51181254 -0.00000438 0.00000400 -0.23579700 0.00000500 0.00000700
46 0.19684900 0.00000231 -0.00000100 -0.34822500 0.00001500 -0.00000200
47 0.00000000 1.00000000 0.00000000 0.00000000 0.00000000 -1.57079600
48 4.37180540 -16.36462795 -6.08793019 0.12369056 -0.17885448 2.17635558
49 10.32031385 1.03125046 -4.47265685 0.49053900 1.12097300 1.98865800
50 3.73550085 0.00125700 -1.32376300 0.00000000 0.00000000 0.00000000
51 -0.00066900 -0.00054669 -1.33911600 0.00000000 0.00000000 0.00000000
52 0.04766085 0.00000000 0.67144215 0.00000000 0.00000000 0.00000000
53 4.80553300 0.89926531 -0.32590715 0.00000000 0.00000000 0.00000000
54 -1.55556431 -0.00054585 0.65577785 0.00000000 0.00000000 0.00000000
55 -19.84132307 0.31651300 -0.95933400 0.00000000 0.00000000 0.00000000
56 -4.22386500 -1.63767585 -4.26925585 2.89813300 -0.03107300 -1.70865400
time 11
0 0.00000000 8.44531300 -27.50000000 0.00000000 0.00000000 -0.00000100
1 -0.00000200 0.00000000 0.00000000 1.57074700 -1.56714200 -1.57074700
2 4.25546600 -0.33518400 -0.00000200 0.00000000 0.00000000 -0.12484800
3 7.43125000 1.49647985 0.00000200 0.00000000 0.00000000 0.24545000
4 5.27848100 0.16554369 0.00000100 0.00000000 0.00000000 0.04851100
5 4.25434756 -4.00744425 -2.11319061 1.97586400 1.15990900 -1.29878600
6 -6.21448254 -0.00001000 -0.00002600 3.13917784 -0.50182088 1.86341850
7 11.94488869 -0.00000085 -0.00000131 -0.33783288 -0.35527099 1.49998568
8 10.62019469 -0.00000200 0.00000185 0.51946107 -0.24153991 2.86108086
9 -4.75110946 -0.69449938 0.83058000 -0.13824100 -0.15285115 0.18762369
10 -1.68806846 0.00004669 -0.00003100 0.02148800 -0.01233669 0.38906600
11 -1.33614131 0.00005554 -0.00000931 0.02588300 0.00518300 0.35619800
12 -4.82049800 -0.50946485 -0.22475900 -0.34149269 -0.06544015 1.04874500
13 -1.82699069 -0.00007223 0.00000800 0.01748200 0.03656200 1.72003700
14 -1.43657085 0.00000400 0.00000315 -0.02391300 -0.07406000 0.22026000
15 -3.99236269 -0.89119085 -1.82791146 -0.60009400 0.19889500 1.32593900
16 -1.40592123 -0.00002554 -0.00000485 -0.01639100 -0.02455500 1.46412600
17 -1.17536285 0.00012954 -0.00001969 0.02757000 0.06214500 0.32128500
18 -4.52675438 -0.69058369 -1.12074500 -0.42618900 0.11495000 1.26439900
19 -1.74403662 0.00003115 -0.00000815 -0.02844000 -0.00827100 1.69871800
20 -1.36876885 0.00002331 0.00000346 0.01203500 0.05112800 0.12633469
21 -2.03710800 -0.89257869 0.93212800 2.31087500 0.31634700 0.79568800
22 -1.62695131 0.15466231 0.01182669 -0.13461131 0.15579700 0.35415800
23 -1.59928500 0.00001169 0.00001246 0.02557200 -0.03452200 0.91329700
24 5.51182315 0.00000515 0.00000369 2.10334883 -0.08663047 3.11050952
25 0.19684500 -0.00000100 0.00000300 2.79340665 0.00000565 -3.14157665
26 2.53710931 -13.68750238 -1.63085900 1.97586165 1.15990965 1.84280265
27 6.21449085 0.00000785 0.00001815 -1.06679487 0.93536633 -1.83359173
28 11.94489985 -0.00003115 -0.00019815 -0.16026025 -0.31447263 -1.32292380
29 10.62017469 -0.00000215 0.00000600 -1.41457709 -0.63868468 0.07466393
30 4.75116162 0.69437515 -0.83047569 -0.15838785 -0.11329469 1.15266100
31 1.68806246 -0.00002231 0.00000115 -0.00138300 -0.02473900 1.49469600
32 1.33615723 -0.00005031 -0.00001069 -0.00672600 -0.03818000 0.54551700
33 4.82051600 0.50933685 0.22486554 -0.20997685 0.06730785 1.50423900
34 1.82700254 0.00006515 0.00000969 0.00444600 0.04027400 1.38372100
35 1.43658193 -0.00000385 0.00000885 0.00903400 -0.01221000 0.20524000
36 3.99235985 0.89108800 1.82799515 -0.34242300 0.17989500 0.98693500
37 1.40592785 0.00002900 -0.00000400 -0.02344500 -0.01796100 1.79280000
38 1.17536515 -0.00013400 0.00000485 0.03069900 0.11943400 0.20718300
39 4.52675608 0.69046131 1.12084162 -0.18033100 0.18538300 1.43662200
40 1.74404300 -0.00003369 0.00000015 -0.02663300 -0.01296500 1.52900300
41 1.36876946 -0.00003131 -0.00001654 0.03463100 0.15491200 0.03539700
42 1.87485900 0.93507815 -0.99913200 2.65251500 0.29446100 1.07986000
43 1.65820231 -0.32446062 -0.11920285 0.15928600 0.10876200 0.63044400
44 1.57421831 -0.10443254 0.03323569 0.08352300 0.00115700 0.81258600
45 5.51181269 -0.00000585 0.00000385 -0.23579700 0.00000500 0.00000700
46 0.19684900 0.00000215 -0.00000200 -0.34822500 0.00001500 -0.00000200
47 0.00000000 1.00000000 0.00000000 0.00000000 0.00000000 -1.57079600
48 3.82167408 -16.35498668 -6.10214345 0.11818307 -0.17995038 2.14031637
49 10.32031315 1.03125062 -4.47265600 0.49053900 1.12097300 1.98865800
50 3.73550115 0.00125715 -1.32376300 0.00000000 0.00000000 0.00000000
51 -0.00066915 -0.00054585 -1.33911600 0.00000000 0.00000000 0.00000000
52 0.04766015 0.00000000 0.67144215 0.00000000 0.00000000 0.00000000
53 4.80553231 0.89926615 -0.32590715 0.00000000 0.00000000 0.00000000
54 -1.55556500 -0.00054585 0.65577785 0.00000000 0.00000000 0.00000000
55 -19.84132262 0.31651400 -0.95933315 0.00000000 0.00000000 0.00000000
56 -4.22386600 -1.63767515 -4.26925685 2.89813300 -0.03107300 -1.70865400
time 12
0 0.00000000 8.44531300 -27.50000000 0.00000000 0.00000000 -0.00000100
1 -0.00000200 0.00000000 0.00000000 1.57074700 -1.56714200 -1.57074700
2 4.25546600 -0.33518400 -0.00000200 0.00000000 0.00000000 -0.12484800
3 7.43125000 1.49647985 0.00000200 0.00000000 0.00000000 0.24545000
4 5.27848100 0.16554369 0.00000100 0.00000000 0.00000000 0.04851100
5 4.25434756 -4.00744425 -2.11319061 1.97586400 1.15990900 -1.29878600
6 -6.21448254 -0.00001000 -0.00002600 3.13980131 -0.50098052 1.88385031
7 11.94488700 -0.00000031 -0.00000115 -0.35259392 -0.35456590 1.54329768
8 10.62019400 -0.00000085 0.00000115 0.53298859 -0.23848321 2.80337869
9 -4.75110862 -0.69449869 0.83057962 -0.13824100 -0.15285115 0.18762369
10 -1.68807115 0.00004769 -0.00003100 0.02148800 -0.01233669 0.38906600
11 -1.33614246 0.00005554 -0.00000985 0.02588300 0.00518300 0.35619800
12 -4.82049800 -0.50946515 -0.22475923 -0.34149269 -0.06544015 1.04874500
13 -1.82699138 -0.00007223 0.00000785 0.01748200 0.03656200 1.72003700
14 -1.43656985 0.00000385 0.00000315 -0.02391300 -0.07406000 0.22026000
15 -3.99236185 -0.89119015 -1.82791169 -0.60009400 0.19889500 1.32593900
16 -1.40592138 -0.00002538 -0.00000469 -0.01639100 -0.02455500 1.46412600
17 -1.17536185 0.00012885 -0.00001985 0.02757000 0.06214500 0.32128500
18 -4.52675369 -0.69058300 -1.12074538 -0.42618900 0.11495000 1.26439900
19 -1.74403662 0.00003115 -0.00000831 -0.02844000 -0.00827100 1.69871800
20 -1.36876915 0.00002431 0.00000431 0.01203500 0.05112800 0.12633469
21 -2.03710715 -0.89257885 0.93212862 2.31087500 0.31634700 0.79568800
22 -1.62695231 0.15466400 0.01182669 -0.13461131 0.15579700 0.35415800
23 -1.59928585 0.00001085 0.00001315 0.02557200 -0.03452200 0.91329700
24 5.51182331 0.00000715 0.00000269 2.10334883 -0.08663047 3.11050952
25 0.19684585 -0.00000200 0.00000285 2.79340665 0.00000565 -3.14157665
26 2.53710931 -13.68750238 -1.63085900 1.97586165 1.15990965 1.84280265
27 6.21449085 0.00000785 0.00001815 -1.02910531 0.91421601 -1.84975472
28 11.94490054 -0.00002946 -0.00019800 -0.18034285 -0.31610943 -1.30723468
29 10.62017469 -0.00000231 0.00000685 -1.42643803 -0.64601474 0.08452920
30 4.75115862 0.69437500 -0.83047615 -0.15838785 -0.11329469 1.15266100
31 1.68806400 -0.00002400 0.00000285 -0.00138300 -0.02473900 1.49469600
32 1.33615515 -0.00005100 -0.00001000 -0.00672600 -0.03818000 0.54551700
33 4.82051285 0.50933669 0.22486707 -0.20997685 0.06730785 1.50423900
34 1.82700269 0.00006500 0.00000869 0.00444600 0.04027400 1.38372100
35 1.43658485 -0.00000331 0.00000815 0.00903400 -0.01221000 0.20524000
36 3.99235885 0.89108800 1.82799638 -0.34242300 0.17989500 0.98693500
37 1.40592769 0.00002746 -0.00000400 -0.02344500 -0.01796100 1.79280000
38 1.17536585 -0.00013300 0.00000369 0.03069900 0.11943400 0.20718300
39 4.52675593 0.69046100 1.12084215 -0.18033100 0.18538300 1.43662200
40 1.74404369 -0.00003085 -0.00000238 -0.02663300 -0.01296500 1.52900300
41 1.36876962 -0.00003015 -0.00001669 0.03463100 0.15491200 0.03539700
42 1.87485769 0.93507800 -0.99913146 2.65251500 0.29446100 1.07986000
43 1.65820315 -0.32446031 -0.11920369 0.15928600 0.10876200 0.63044400
44 1.57421700 -0.10443354 0.03323554 0.08352300 0.00115700 0.81258600
45 5.51181254 -0.00000669 0.00000469 -0.23579700 0.00000500 0.00000700
46 0.19684900 0.00000315 -0.00000200 -0.34822500 0.00001500 -0.00000200
47 0.00000000 1.00000000 0.00000000 0.00000000 0.00000000 -1.57079600
48 3.34292818 -16.34655061 -5.84856709 0.11948836 -0.17364743 2.09708219
49 10.32031231 1.03124946 -4.47265600 0.49053900 1.12097300 1.98865800
50 3.73550100 0.00125700 -1.32376300 0.00000000 0.00000000 0.00000000
51 -0.00067085 -0.00054585 -1.33911600 0.00000000 0.00000000 0.00000000
52 0.04766100 0.00000000 0.67144215 0.00000000 0.00000000 0.00000000
53 4.80553215 0.89926615 -0.32590715 0.00000000 0.00000000 0.00000000
54 -1.55556700 -0.00054600 0.65577785 0.00000000 0.00000000 0.00000000
55 -19.84132231 0.31651300 -0.95933300 0.00000000 0.00000000 0.00000000
56 -4.22386615 -1.63767600 -4.26925669 2.89813300 -0.03107300 -1.70865400
time 13
0 0.00000000 8.44531300 -27.50000000 0.00000000 0.00000000 -0.00000100
1 -0.00000200 0.00000000 0.00000000 1.57074700 -1.56714200 -1.57074700
2 4.25546600 -0.33518400 -0.00000200 0.00000000 0.00000000 -0.12484800
3 7.43125000 1.49647985 0.00000200 0.00000000 0.00000000 0.24545000
4 5.27848100 0.16554369 0.00000100 0.00000000 0.00000000 0.04851100
5 4.25434756 -4.00744425 -2.11319061 1.97586400 1.15990900 -1.29878600
6 -6.21448254 -0.00001000 -0.00002600 -3.13344135 -0.49707329 1.89416506
7 11.94488885 -0.00000169 -0.00000115 -0.36310438 -0.35254425 1.57393707
8 10.62019315 -0.00000300 0.00000100 0.54799773 -0.22900389 2.76027414
9 -4.75110962 -0.69449869 0.83058000 -0.13824100 -0.15285115 0.18762369
10 -1.68807031 0.00004754 -0.00003100 0.02148800 -0.01233669 0.38906600
11 -1.33614285 0.00005469 -0.00000900 0.02588300 0.00518300 0.35619800
12 -4.82049831 -0.50946485 -0.22475815 -0.34149269 -0.06544015 1.04874500
13 -1.82699138 -0.00007054 0.00000800 0.01748200 0.03656200 1.72003700
14 -1.43657069 0.00000315 0.00000300 -0.02391300 -0.07406000 0.22026000
15 -3.99236269 -0.89119000 -1.82790977 -0.60009400 0.19889500 1.32593900
16 -1.40592123 -0.00002654 -0.00000554 -0.01637900 -0.02455500 1.46412600
17 -1.17536185 0.00012785 -0.00001985 0.02757000 0.06214500 0.32128500
18 -4.52675507 -0.69058369 -1.12074431 -0.42618900 0.11495000 1.26439900
19 -1.74403662 0.00003200 -0.00000831 -0.02844000 -0.00827100 1.69871800
20 -1.36876900 0.00002415 0.00000431 0.01203500 0.05112800 0.12633469
21 -2.03710731 -0.89257969 0.93212885 2.31087500 0.31634700 0.79568800
22 -1.62695146 0.15466385 0.01182769 -0.13461131 0.15579700 0.35415800
23 -1.59928415 0.00001085 0.00001331 0.02557200 -0.03452200 0.91329700
24 5.51182346 0.00000531 0.00000269 2.10334883 -0.08663047 3.11050952
25 0.19684585 -0.00000254 0.00000315 2.79340665 0.00000565 -3.14157665
26 2.53710931 -13.68750238 -1.63085900 1.97586165 1.15990965 1.84280265
27 6.21449085 0.00000785 0.00001815 -1.00905854 0.88108510 -1.87477945
28 11.94490038 -0.00003015 -0.00019815 -0.19735264 -0.31933404 -1.28960353
29 10.62017285 -0.00000085 0.00000615 -1.43096871 -0.64670953 0.08926818
30 4.75115793 0.69437500 -0.83047569 -0.15838785 -0.11329469 1.15266100
31 1.68806231 -0.00001977 0.00000185 -0.00138300 -0.02473900 1.49469600
32 1.33615385 -0.00005200 -0.00000985 -0.00672600 -0.03818000 0.54551700
33 4.82051415 0.50933685 0.22486654 -0.20997685 0.06730785 1.50423900
34 1.82700254 0.00006638 0.00000885 0.00443585 0.04027400 1.38372100
35 1.43658331 -0.00000246 0.00000785 0.00903400 -0.01221000 0.20524000
36 3.99235785 0.89108800 1.82799585 -0.34242300 0.17989500 0.98693500
37 1.40592769 0.00002746 -0.00000469 -0.02344500 -0.01796100 1.79280000
38 1.17536485 -0.00013300 0.00000369 0.03069900 0.11943400 0.20718300
39 4.52675739 0.69046031 1.12084331 -0.18033100 0.18538300 1.43662200
40 1.74404369 -0.00003323 -0.00000054 -0.02663300 -0.01296500 1.52900300
41 1.36876962 -0.00003031 -0.00001754 0.03463100 0.15491200 0.03539700
42 1.87486054 0.93507815 -0.99913031 2.65251500 0.29446100 1.07986000
43 1.65820215 -0.32446100 -0.11920285 0.15928600 0.10876200 0.63044400
44 1.57421938 -0.10443285 0.03323469 0.08352300 0.00115700 0.81258600
45 5.51181069 -0.00000385 0.00000400 -0.23579700 0.00000500 0.00000700
46 0.19684900 0.00000231 -0.00000185 -0.34822500 0.00001500 -0.00000200
47 0.00000000 1.00000000 0.00000000 0.00000000 0.00000000 -1.57079600
48 2.92956225 -16.33992226 -5.42663262 0.12545965 -0.15615268 2.05962622
49 10.32031215 1.03125046 -4.47265600 0.49053900 1.12097300 1.98865800
50 3.73550100 0.00125700 -1.32376300 0.00000000 0.00000000 0.00000000
51 -0.00067100 -0.00054585 -1.33911515 0.00000000 0.00000000 0.00000000
52 0.04766000 0.00000000 0.67144215 0.00000000 0.00000000 0.00000000
53 4.80553115 0.89926615 -0.32590715 0.00000000 0.00000000 0.00000000
54 -1.55556546 -0.00054600 0.65577785 0.00000000 0.00000000 0.00000000
55 -19.84132093 0.31651300 -0.95933315 0.00000000 0.00000000 0.00000000
56 -4.22386685 -1.63767600 -4.26925669 2.89813300 -0.03107300 -1.70865400
time 14
0 0.00000000 8.44531300 -27.50000000 0.00000000 0.00000000 -0.00000100
1 -0.00000200 0.00000000 0.00000000 1.57074700 -1.56714200 -1.57074700
2 4.25546600 -0.33518400 -0.00000200 0.00000000 0.00000000 -0.12484800
3 7.43125000 1.49647985 0.00000200 0.00000000 0.00000000 0.24545000
4 5.27848100 0.16554369 0.00000100 0.00000000 0.00000000 0.04851100
5 4.25434756 -4.00744425 -2.11319061 1.97586400 1.15990900 -1.29878600
6 -6.21448254 -0.00001000 -0.00002600 -3.13441186 -0.49651202 1.91327333
7 11.94488715 -0.00000015 -0.00000031 -0.36410243 -0.35117083 1.57701985
8 10.62019285 -0.00000115 0.00000238 0.55013841 -0.20141490 2.77199515
9 -4.75111031 -0.69449869 0.83057946 -0.13824100 -0.15285115 0.18762369
10 -1.68807015 0.00004838 -0.00003085 0.02148800 -0.01233669 0.38906600
11 -1.33614215 0.00005454 -0.00000915 0.02588300 0.00518300 0.35619800
12 -4.82049715 -0.50946415 -0.22475869 -0.34149269 -0.06544015 1.04874500
13 -1.82698938 -0.00007323 0.00000800 0.01748200 0.03656200 1.72003700
14 -1.43657000 0.00000400 0.00000400 -0.02391300 -0.07406000 0.22026000
15 -3.99236254 -0.89119000 -1.82791200 -0.60009400 0.19889500 1.32593900
16 -1.40592138 -0.00002723 -0.00000300 -0.01639100 -0.02455500 1.46412600
17 -1.17536254 0.00012800 -0.00002000 0.02757000 0.06214500 0.32128500
18 -4.52675338 -0.69058285 -1.12074554 -0.42618900 0.11495000 1.26439900
19 -1.74403662 0.00003131 -0.00000915 -0.02844000 -0.00827100 1.69871800
20 -1.36876900 0.00002415 0.00000431 0.01203500 0.05112800 0.12633469
21 -2.03710800 -0.89257885 0.93212831 2.31087500 0.31634700 0.79568800
22 -1.62695131 0.15466300 0.01182754 -0.13461131 0.15579700 0.35415800
23 -1.59928515 0.00001100 0.00001331 0.02557200 -0.03452200 0.91329700
24 5.51182231 0.00000715 0.00000323 2.10334883 -0.08663047 3.11050952
25 0.19684515 -0.00000115 0.00000385 2.79340665 0.00000565 -3.14157665
26 2.53710931 -13.68750238 -1.63085900 1.97586165 1.15990965 1.84280265
27 6.21449085 0.00000785 0.00001815 -0.99342759 0.85300289 -1.89761350
28 11.94490054 -0.00003000 -0.00019869 -0.21260022 -0.32065901 -1.26493310
29 10.62017354 -0.00000200 0.00000615 -1.42443996 -0.65716118 0.06460262
30 4.75116231 0.69437500 -0.83047600 -0.15838785 -0.11329469 1.15266100
31 1.68806346 -0.00002093 0.00000300 -0.00138300 -0.02473900 1.49469600
32 1.33615554 -0.00005200 -0.00001085 -0.00672600 -0.03818000 0.54551700
33 4.82051738 0.50933685 0.22486523 -0.20997685 0.06730785 1.50423900
34 1.82700254 0.00006469 0.00000954 0.00444600 0.04027400 1.38372100
35 1.43658177 -0.00000415 0.00000785 0.00903400 -0.01221000 0.20524000
36 3.99236023 0.89108800 1.82799469 -0.34242300 0.17989500 0.98693500
37 1.40592854 0.00003015 -0.00000469 -0.02344500 -0.01796100 1.79280000
38 1.17537177 -0.00013300 0.00000300 0.03069900 0.11943400 0.20718300
39 4.52675793 0.69046131 1.12084115 -0.18033100 0.18538300 1.43662200
40 1.74404385 -0.00003269 -0.00000323 -0.02663300 -0.01296500 1.52900300
41 1.36877077 -0.00003031 -0.00001754 0.03463100 0.15491200 0.03539700
42 1.87485954 0.93507815 -0.99913146 2.65251500 0.29446100 1.07986000
43 1.65820215 -0.32446131 -0.11920385 0.15928600 0.10876200 0.63044400
44 1.57421954 -0.10443315 0.03323554 0.08352300 0.00115700 0.81258600
45 5.51181038 -0.00000654 0.00000400 -0.23579700 0.00000500 0.00000700
46 0.19684900 0.00000331 -0.00000169 -0.34822500 0.00001500 -0.00000200
47 0.00000000 1.00000000 0.00000000 0.00000000 0.00000000 -1.57079600
48 2.50634384 -16.33570415 -5.18853236 0.13356521 -0.12895022 2.04241017
49 10.32031331 1.03125046 -4.47265600 0.49053900 1.12097300 1.98865800
50 3.73550215 0.00125700 -1.32376300 0.00000000 0.00000000 0.00000000
51 -0.00066869 -0.00054585 -1.33911600 0.00000000 0.00000000 0.00000000
52 0.04766200 0.00000000 0.67144231 0.00000000 0.00000000 0.00000000
53 4.80553315 0.89926615 -0.32590715 0.00000000 0.00000000 0.00000000
54 -1.55556500 -0.00054600 0.65577785 0.00000000 0.00000000 0.00000000
55 -19.84131969 0.31651300 -0.95933315 0.00000000 0.00000000 0.00000000
56 -4.22386554 -1.63767600 -4.26925685 2.89813300 -0.03107300 -1.70865400
time 15
0 0.00000000 8.44531300 -27.50000000 0.00000000 0.00000000 -0.00000100
1 -0.00000200 0.00000000 0.00000000 1.57074700 -1.56714200 -1.57074700
2 4.25546600 -0.33518400 -0.00000200 0.00000000 0.00000000 -0.12484800
3 7.43125000 1.49647985 0.00000200 0.00000000 0.00000000 0.24545000
4 5.27848100 0.16554369 0.00000100 0.00000000 0.00000000 0.04851100
5 4.25434756 -4.00744425 -2.11319061 1.97586400 1.15990900 -1.29878600
6 -6.21448254 -0.00001000 -0.00002600 3.13264999 -0.50065819 1.94537451
7 11.94488815 -0.00000269 -0.00000046 -0.35574582 -0.35062261 1.55261047
8 10.62019300 -0.00000115 0.00000000 0.54079907 -0.15716507 2.83833203
9 -4.75111015 -0.69449854 0.83058031 -0.13824100 -0.15285200 0.18762200
10 -1.68807015 0.00004754 -0.00003085 0.02148800 -0.01233669 0.38906600
11 -1.33614215 0.00005469 -0.00000915 0.02588469 0.00518215 0.35619800
12 -4.82049800 -0.50946400 -0.22475769 -0.34149100 -0.06544100 1.04874500
13 -1.82699038 -0.00007238 0.00000715 0.01748200 0.03656200 1.72003700
14 -1.43657138 0.00000415 0.00000415 -0.02391300 -0.07406000 0.22026000
15 -3.99236269 -0.89119000 -1.82791015 -0.60009400 0.19889500 1.32593900
16 -1.40592207 -0.00002538 -0.00000385 -0.01639185 -0.02456177 1.46415983
17 -1.17536200 0.00012869 -0.00001985 0.02757000 0.06214500 0.32128500
18 -4.52675438 -0.69058300 -1.12074485 -0.42618900 0.11495000 1.26439900
19 -1.74403662 0.00003115 -0.00000846 -0.02844000 -0.00827100 1.69871800
20 -1.36876969 0.00002415 0.00000446 0.01203500 0.05112800 0.12633469
21 -2.03710715 -0.89257885 0.93212915 2.31087500 0.31634700 0.79568800
22 -1.62695131 0.15466315 0.01182654 -0.13461300 0.15579700 0.35415800
23 -1.59928600 0.00001185 0.00001331 0.02557200 -0.03452200 0.91329531
24 5.51182231 0.00000700 0.00000269 2.10334883 -0.08663047 3.11050952
25 0.19684600 -0.00000285 0.00000285 2.79340665 0.00000565 -3.14157665
26 2.53710931 -13.68750238 -1.63085900 1.97586165 1.15990965 1.84280265
27 6.21449085 0.00000785 0.00001815 -0.97260430 0.83735465 -1.91377421
28 11.94489954 -0.00003015 -0.00019885 -0.22538524 -0.31981576 -1.23365652
29 10.62017400 -0.00000254 0.00000631 -1.41333618 -0.68323267 0.01107310
30 4.75116169 0.69437500 -0.83047600 -0.15838700 -0.11329300 1.15266100
31 1.68806262 -0.00002346 0.00000285 -0.00138300 -0.02473900 1.49469600
32 1.33615777 -0.00005115 -0.00001085 -0.00672600 -0.03818000 0.54551869
33 4.82051554 0.50933685 0.22486538 -0.20997600 0.06730700 1.50423900
34 1.82700254 0.00006193 0.00000985 0.00444600 0.04028161 1.38376075
35 1.43658377 -0.00000315 0.00000800 0.00902470 -0.01221930 0.20524507
36 3.99235854 0.89108800 1.82799569 -0.34242300 0.17989500 0.98693500
37 1.40592754 0.00002977 -0.00000485 -0.02344500 -0.01796100 1.79280000
38 1.17536669 -0.00013300 0.00000369 0.03069900 0.11943400 0.20718300
39 4.52675862 0.69046131 1.12084231 -0.18033100 0.18538300 1.43662200
40 1.74404385 -0.00003046 -0.00000154 -0.02663300 -0.01296500 1.52900300
41 1.36876900 -0.00003031 -0.00001823 0.03463100 0.15491200 0.03539700
42 1.87486038 0.93507815 -0.99913131 2.65251500 0.29446100 1.07986000
43 1.65820315 -0.32445946 -0.11920300 0.15928600 0.10876200 0.63044400
44 1.57422054 -0.10443154 0.03323554 0.08352300 0.00115700 0.81258600
45 5.51181185 -0.00000654 0.00000415 -0.23579700 0.00000500 0.00000700
46 0.19684900 0.00000315 -0.00000185 -0.34822500 0.00001500 -0.00000200
47 0.00000000 1.00000000 0.00000000 0.00000000 0.00000000 -1.57079600
48 2.03910617 -16.33180203 -5.26171836 0.14401223 -0.09800155 2.04765040
49 10.32031400 1.03125046 -4.47265515 0.49053900 1.12097300 1.98865800
50 3.73550200 0.00125700 -1.32376300 0.00000000 0.00000000 0.00000000
51 -0.00066985 -0.00054585 -1.33911515 0.00000000 0.00000000 0.00000000
52 0.04766085 0.00000000 0.67144215 0.00000000 0.00000000 0.00000000
53 4.80553315 0.89926615 -0.32590715 0.00000000 0.00000000 0.00000000
54 -1.55556654 -0.00054600 0.65577785 0.00000000 0.00000000 0.00000000
55 -19.84132169 0.31651300 -0.95933385 0.00000000 0.00000000 0.00000000
56 -4.22386515 -1.63767600 -4.26925600 2.89813300 -0.03107300 -1.70865400
end
