<?xml version="1.0" encoding="UTF-8" standalone="no"?>
<svg
   version="1.1"
   x="0px"
   y="0px"
   width="820.23859"
   height="416.62625"
   viewBox="0 0 820.23859 416.62625"
   enable-background="new 0 0 773.953 647.871"
   xml:space="preserve"
   id="svg139"
   sodipodi:docname="weapon_swm10.svg"
   inkscape:version="1.2.2 (732a01da63, 2022-12-09)"
   xmlns:inkscape="http://www.inkscape.org/namespaces/inkscape"
   xmlns:sodipodi="http://sodipodi.sourceforge.net/DTD/sodipodi-0.dtd"
   xmlns="http://www.w3.org/2000/svg"
   xmlns:svg="http://www.w3.org/2000/svg"
   xmlns:rdf="http://www.w3.org/1999/02/22-rdf-syntax-ns#"
   xmlns:cc="http://creativecommons.org/ns#"
   xmlns:dc="http://purl.org/dc/elements/1.1/"><metadata
   id="metadata145"><rdf:RDF><cc:Work
       rdf:about=""><dc:format>image/svg+xml</dc:format><dc:type
         rdf:resource="http://purl.org/dc/dcmitype/StillImage" /></cc:Work></rdf:RDF></metadata><defs
   id="defs143">
	

		
		
		
		
			
		
	
			
			
			
		
				
				
				
				
				
				
				
				
				
				
				
				
				
				
				
				
				
				
				
				
				
					
				
					
				
				
					
				
					
				
					
				
					
				
				
				
				
				
				
				
				
				
				
				
				
				
					
				
					
				
				
				
				
					
				
				
				
				
				
			
				
				
				
				
				
			
				
				
				
				
				
			
					
					
				</defs><sodipodi:namedview
   pagecolor="#ffffff"
   bordercolor="#666666"
   borderopacity="1"
   objecttolerance="10"
   gridtolerance="10"
   guidetolerance="10"
   inkscape:pageopacity="0"
   inkscape:pageshadow="2"
   inkscape:window-width="1920"
   inkscape:window-height="1009"
   id="namedview141"
   showgrid="false"
   inkscape:zoom="0.72854011"
   inkscape:cx="186.67469"
   inkscape:cy="146.86906"
   inkscape:window-x="-8"
   inkscape:window-y="-8"
   inkscape:window-maximized="1"
   inkscape:current-layer="svg139"
   inkscape:document-rotation="0"
   inkscape:pagecheckerboard="true"
   inkscape:showpageshadow="2"
   inkscape:deskcolor="#d1d1d1" />


<g
   id="g5259"
   transform="translate(718.10869,3.6757106)"><path
     style="fill:none;stroke:#000000;stroke-width:3;stroke-miterlimit:10"
     inkscape:connector-curvature="0"
     id="path2"
     d="M -207.27328,68.978784 H 96.911732 c 0,0 8.749998,-26.5 -0.75,-46.25 h -2.5 v -9.75 H -206.77328 c 0,0 -29.166,1.334 -30.5,-13.00000037 h -185.5 c 0,0 -17,-2.50000003 -29.5,22.50000037 0,0 -18.666,58.002 -134.666,63.502 0,0 -10.334,0.332 -10,12.666 0.334,12.333996 -4.865,43.664996 -20.666,63.333996 -16.334,20.332 -76,90.666 -87.668,131.666 -7.436,26.135 -20,70 -2.332,108.666 0,0 3.666,3.666 15,5 l 75.666,4 c 0,0 19.668,1.668 20.334,-6.666 0.666,-8.334 9.332,-149.918 62.582,-189.418 16.379,-12.148 63.259,-11.779 62.75,9.75 -2,85 85.5,97 152.5,45.5 20.911,-16.072 22.544,-48 23.5,-53.75 1,-6 7.5,-44.582 73.834,-40.582 l -0.084,-45.418 c 0,0 0.25,-16.75 11.5,-26.25 l 2.25,-9.749996 v -81.082"
     stroke-miterlimit="10"
     sodipodi:nodetypes="ccccccccccscccccsccccccccc" /><path
     style="fill:none;stroke:#000000;stroke-width:3;stroke-miterlimit:10"
     inkscape:connector-curvature="0"
     id="path4"
     d="m 73.325982,12.978784 c 0,0 -0.355,-16.9860004 -19.339,-15.0000004 -18.318,1.91800003 -72.077,15.2500004 -72.077,15.2500004 z"
     stroke-miterlimit="10" /><path
     style="fill:none;stroke:#000000;stroke-width:3;stroke-miterlimit:10"
     inkscape:connector-curvature="0"
     id="path6"
     d="m -594.27328,88.978784 c 0,0 98.668,7.666 70.334,122.665996"
     stroke-miterlimit="10" /><polygon
     style="fill:none;stroke:#000000;stroke-miterlimit:10"
     id="polygon8"
     points="612.056,420.794 584.056,389.294 577.056,430.294 605.056,462.794 "
     stroke-miterlimit="10"
     transform="matrix(-1,0,0,1,-54.717278,-111.81522)" /><circle
     style="fill:none;stroke:#000000;stroke-width:3;stroke-miterlimit:10"
     id="circle10"
     r="10"
     cy="313.47879"
     cx="649.27332"
     stroke-miterlimit="10"
     transform="scale(-1,1)" /><line
     style="fill:none;stroke:#000000;stroke-miterlimit:10"
     id="line12"
     y2="321.20779"
     x2="-654.72827"
     y1="304.38977"
     x1="-644.72827"
     stroke-miterlimit="10" /><circle
     style="fill:none;stroke:#000000;stroke-width:3;stroke-miterlimit:10"
     id="circle14"
     r="17.333"
     cy="183.47879"
     cx="583.77228"
     stroke-miterlimit="10"
     transform="scale(-1,1)" /><path
     style="fill:none;stroke:#000000;stroke-width:3;stroke-miterlimit:10"
     inkscape:connector-curvature="0"
     id="path16"
     d="m -683.27328,372.97878 c -14,-0.334 -14.666,-10.334 -14.666,-10.334 2.334,-90.666 51.693,-139.273 68.166,-153.916 2.25,-2 7.566,-0.033 9,1 12.699,9.152 33,17 33,17 0,0 10,3 6.75,14.5 0,0 -25.5,87.25 -27.75,116.25 0,0 -0.5,20.75 -24.5,17 -24,-3.75 -50,-1.5 -50,-1.5 z"
     stroke-miterlimit="10" /><path
     style="fill:none;stroke:#000000;stroke-width:3;stroke-miterlimit:10"
     inkscape:connector-curvature="0"
     id="path18"
     d="m -366.77328,185.97878 c 0,0 0.332,12.547 -12,24.25 -5.068,4.813 -10.773,14.123 -6.25,27.25 3.962,11.49 8,30.5 34.25,34.5 l -1.25,4.25 c 0,0 -57,6.25 -51,-68.75 0,0 -24.25,-3 -27.75,-9.25 0,0 -34.5,15.5 -24.25,60.75 0,0 11.07,50.672 92.416,26.668 15.186,-4.482 30.438,-13.006 40.21,-23.918 10.168,-11.354 14.54,-25.236 14,-36.875 -1.026,-22.111 -26.391,-38.382 -58.376,-38.875 z"
     stroke-miterlimit="10" /><path
     style="fill:none;stroke:#000000;stroke-width:3;stroke-miterlimit:10"
     inkscape:connector-curvature="0"
     id="path20"
     d="m -449.77328,18.603784 -20.75,-5.375 -15.624,25.75 c 0,0 -19.75,12.25 -29,-10.375 l -29.5,-6.125 -0.5,4.875 32.874,20.5 2.876,9 c 0,0 -39.25,7.875 -38.5,24.375"
     stroke-miterlimit="10" /><path
     style="fill:none;stroke:#000000;stroke-width:3;stroke-miterlimit:10"
     inkscape:connector-curvature="0"
     id="path22"
     d="m -427.56328,132.43778 9.79,9.791 10.729,3.646 143.104,-0.229 V 18.312784 l -3,-3.834 h -150.167 l -10.701,10.701 c 0,0 -16.715,11.299 -16.715,49.299 0,37.999996 16.96,57.958996 16.96,57.958996 z"
     stroke-miterlimit="10" /><path
     style="fill:none;stroke:#000000;stroke-width:3;stroke-miterlimit:10"
     inkscape:connector-curvature="0"
     id="path24"
     d="M -421.10728,30.978784"
     stroke-miterlimit="10" /><polygon
     style="fill:none;stroke:#000000;stroke-width:3;stroke-miterlimit:10"
     id="polygon26"
     points="359.056,133.628 216.556,133.792 216.556,247.794 359.056,247.794 "
     stroke-miterlimit="10"
     transform="matrix(-1,0,0,1,-54.717278,-111.81522)" /><line
     style="fill:none;stroke:#000000;stroke-width:1.69629;stroke-miterlimit:10"
     id="line28"
     y2="23.85379"
     x2="-207.52327"
     y1="23.85379"
     x1="94.361954"
     stroke-miterlimit="10" /><path
     style="fill:none;stroke:#000000;stroke-miterlimit:10"
     inkscape:connector-curvature="0"
     id="path30"
     d="M -206.43928,69.646784"
     stroke-miterlimit="10" /><path
     style="fill:none;stroke:#000000;stroke-miterlimit:10"
     inkscape:connector-curvature="0"
     id="path32"
     d="M -13.799168,69.646784"
     stroke-miterlimit="10" /><polyline
     style="fill:none;stroke:#000000;stroke-width:3;stroke-miterlimit:10"
     id="polyline34"
     points="209.222,257.462 213.056,261.294       213.056,294.294     "
     stroke-miterlimit="10"
     transform="matrix(-1,0,0,1,-54.717278,-111.81522)" /><path
     style="fill:none;stroke:#000000;stroke-width:3;stroke-miterlimit:10"
     inkscape:connector-curvature="0"
     id="path36"
     d="m -510.27328,98.478784 c 0,6.626996 5.374,11.999996 12,11.999996 h 32 c 6.628,0 12,-5.373 12,-11.999996 v -8 c 0,-6.627 -5.372,-12 -12,-12 h -32 c -6.626,0 -12,5.373 -12,12 z"
     stroke-miterlimit="10" /><line
     style="fill:none;stroke:#000000;stroke-miterlimit:10"
     id="line38"
     y2="108.64678"
     x2="-459.77325"
     y1="79.980789"
     x1="-459.77325"
     stroke-miterlimit="10" /><line
     style="fill:none;stroke:#000000;stroke-miterlimit:10"
     id="line40"
     y2="109.4788"
     x2="-465.30429"
     y1="79.230789"
     x1="-465.30429"
     stroke-miterlimit="10" /><line
     style="fill:none;stroke:#000000;stroke-miterlimit:10"
     y2="109.4788"
     x2="-470.8353"
     y1="79.230789"
     x1="-470.8353"
     stroke-miterlimit="10"
     id="XMLID_14_" /><line
     style="fill:none;stroke:#000000;stroke-miterlimit:10"
     y2="109.4788"
     x2="-476.36627"
     y1="79.230789"
     x1="-476.36627"
     stroke-miterlimit="10"
     id="XMLID_13_" /><line
     style="fill:none;stroke:#000000;stroke-miterlimit:10"
     y2="109.4788"
     x2="-481.89728"
     y1="79.230789"
     x1="-481.89728"
     stroke-miterlimit="10"
     id="XMLID_12_" /><line
     style="fill:none;stroke:#000000;stroke-miterlimit:10"
     y2="109.4788"
     x2="-487.42828"
     y1="79.230789"
     x1="-487.42828"
     stroke-miterlimit="10"
     id="XMLID_11_" /><line
     style="fill:none;stroke:#000000;stroke-miterlimit:10"
     y2="109.4788"
     x2="-492.95929"
     y1="79.230789"
     x1="-492.95929"
     stroke-miterlimit="10"
     id="XMLID_10_" /><line
     style="fill:none;stroke:#000000;stroke-miterlimit:10"
     y2="109.4788"
     x2="-498.49127"
     y1="79.230789"
     x1="-498.49127"
     stroke-miterlimit="10"
     id="XMLID_9_" /><line
     style="fill:none;stroke:#000000;stroke-miterlimit:10"
     y2="109.4788"
     x2="-504.02328"
     y1="79.230789"
     x1="-504.02328"
     stroke-miterlimit="10"
     id="XMLID_8_" /><circle
     style="fill:#ffffff;stroke:#000000;stroke-width:3;stroke-miterlimit:10"
     id="circle49"
     r="6.5"
     cy="94.47879"
     cx="477.02328"
     stroke-miterlimit="10"
     transform="scale(-1,1)" /><line
     style="fill:none;stroke:#000000;stroke-miterlimit:10"
     id="line51"
     y2="98.771782"
     x2="-482.22928"
     y1="88.980789"
     x1="-472.43927"
     stroke-miterlimit="10" /><path
     style="fill:none;stroke:#000000;stroke-miterlimit:10"
     inkscape:connector-curvature="0"
     id="path53"
     d="m -267.43928,176.64678 c 0,0 -44.5,6.666 -30.834,61.332"
     stroke-miterlimit="10" /><path
     style="fill:none;stroke:#000000;stroke-miterlimit:10"
     inkscape:connector-curvature="0"
     id="path55"
     d="m -307.93928,229.31278 c 0,0 10.666,-32.166 -21.334,-45.832 -32,-13.668 -62.834,-8.668 -80.5,-4.834 -16.484,3.578 -45.332,16.75 -49.5,45.582 l 2.5,21.252"
     stroke-miterlimit="10" /><path
     style="fill:none;stroke:#000000;stroke-width:3;stroke-miterlimit:10"
     inkscape:connector-curvature="0"
     id="path57"
     d="m -366.77328,185.97878 c 0,0 -30.75,-1.5 -64,12.25"
     stroke-miterlimit="10" /><path
     style="fill:none;stroke:#000000;stroke-miterlimit:10"
     inkscape:connector-curvature="0"
     id="path59"
     d="m -271.02328,69.228784 h -72.5 c 0,0 -18.75,0.5 -18.75,10.25 0,9.75 19.75,10.75 19.75,10.75 h 71"
     stroke-miterlimit="10" /><path
     style="fill:none;stroke:#000000;stroke-miterlimit:10"
     inkscape:connector-curvature="0"
     id="path61"
     d="m -271.02328,23.728784 h -72.5 c 0,0 -18.75,0.5 -18.75,10.25 0,9.75 19.75,10.75 19.75,10.75 h 71"
     stroke-miterlimit="10" /><path
     style="fill:none;stroke:#000000;stroke-miterlimit:10"
     inkscape:connector-curvature="0"
     id="path63"
     d="m -271.02328,114.72878 h -72.5 c 0,0 -18.75,0.5 -18.75,10.25 0,9.75 19.75,10.75 19.75,10.75 h 71"
     stroke-miterlimit="10" /><path
     style="fill:none;stroke:#000000;stroke-miterlimit:10"
     inkscape:connector-curvature="0"
     id="path65"
     d="m -408.52328,100.56278 h 21 v 8.25 h -5.75 -0.168 c -0.031,3.041 -0.41,15.5 -4.582,15.5 -4.346,0 -4.436,-13.242 -4.42,-15.5 h -6.08 z"
     stroke-miterlimit="10" /><path
     style="fill:none;stroke:#000000;stroke-miterlimit:10"
     inkscape:connector-curvature="0"
     id="path67"
     d="m -408.52328,38.227784 h 21 v 8.25 h -5.75 -0.168 c -0.031,3.042 -0.41,15.5 -4.582,15.5 -4.346,0 -4.436,-13.241 -4.42,-15.5 h -6.08 z"
     stroke-miterlimit="10" /><path
     style="fill:none;stroke:#000000;stroke-miterlimit:10"
     inkscape:connector-curvature="0"
     id="path69"
     d="m -424.96828,134.74278 c -5.11,1.406 -8.305,5.711 -8.305,11.57 0,6.813 5.521,12.334 12.334,12.334 6.812,0 12.332,-5.521 12.332,-12.334"
     stroke-miterlimit="10" /><circle
     style="fill:none;stroke:#000000;stroke-miterlimit:10"
     id="circle71"
     r="4.25"
     cy="31.228788"
     cx="461.27325"
     stroke-miterlimit="10"
     transform="scale(-1,1)" /><rect
     style="fill:none;stroke:#000000;stroke-width:3;stroke-miterlimit:10"
     id="rect73"
     height="17.832001"
     width="7"
     stroke-miterlimit="10"
     y="74.64679"
     x="264.14725"
     transform="scale(-1,1)" /><rect
     style="fill:none;stroke:#000000;stroke-width:3;stroke-miterlimit:10"
     id="rect75"
     height="44.625"
     width="6.5"
     stroke-miterlimit="10"
     y="23.85379"
     x="264.27325"
     transform="scale(-1,1)" /><line
     style="fill:none;stroke:#000000;stroke-width:1.67317;stroke-miterlimit:10"
     id="line77"
     y2="48.212547"
     x2="-207.39629"
     y1="48.212547"
     x1="99.029984"
     stroke-miterlimit="10" /><polyline
     style="fill:none;stroke:#000000;stroke-width:3;stroke-miterlimit:10"
     id="polyline79"
     points="51.556,181.794 51.556,194.044       55.556,207.544 91.806,207.544 95.806,195.044 95.806,181.294     "
     stroke-miterlimit="10"
     transform="matrix(-1,0,0,1,34.090832,-111.81522)" /><line
     style="fill:none;stroke:#000000;stroke-miterlimit:10"
     id="line81"
     y2="86.06279"
     x2="-61.049179"
     y1="86.06279"
     x1="-18.881149"
     stroke-miterlimit="10" /><rect
     style="fill:none;stroke:#000000;stroke-width:3;stroke-miterlimit:10;stroke-dasharray:none"
     id="rect83"
     height="15.45182"
     width="121.22867"
     stroke-miterlimit="10"
     y="75.920883"
     x="85.436691"
     transform="scale(-1,1)" /><polyline
     style="fill:none;stroke:#000000;stroke-width:3;stroke-miterlimit:10"
     id="polyline85"
     points="53.472,199.378 48.556,199.378        48.556,191.878 51.806,191.878      "
     stroke-miterlimit="10"
     transform="matrix(-1,0,0,1,34.090832,-111.81522)" /><polyline
     style="fill:none;stroke:#000000;stroke-width:3;stroke-miterlimit:10"
     id="polyline87"
     points="96.056,191.878 100.14,191.878        100.14,199.378 94.14,199.378      "
     stroke-miterlimit="10"
     transform="matrix(-1,0,0,1,34.090832,-111.81522)" /><polygon
     style="fill:none;stroke:#000000;stroke-width:3;stroke-miterlimit:10"
     id="polygon91"
     points="103.056,204.296 100.18,202.587 100.18,188.212 103.056,186.628 119.43,186.628 119.43,204.296 "
     stroke-miterlimit="10"
     transform="matrix(-1,0,0,1,34.090832,-111.81522)" /><rect
     style="fill:none;stroke:#000000;stroke-width:3;stroke-miterlimit:10"
     id="rect93"
     height="0"
     width="0"
     stroke-miterlimit="10"
     y="23.22879"
     x="427.60526"
     transform="scale(-1,1)" /><path
     style="fill:none;stroke:#000000;stroke-width:3;stroke-miterlimit:10"
     inkscape:connector-curvature="0"
     id="path95"
     d="m -429.02328,25.978784 c 0,0 5.25,54.25 0,103.999996"
     stroke-miterlimit="10" /><polyline
     style="fill:none;stroke:#000000;stroke-width:3;stroke-miterlimit:10"
     id="polyline97"
     points="371.965,204.794 359.425,204.794       359.425,159.628 371.965,159.628     "
     stroke-miterlimit="10"
     transform="matrix(-1,0,0,1,-54.717278,-111.81522)" /><line
     style="fill:none;stroke:#000000;stroke-miterlimit:10"
     id="line101"
     y2="74.195786"
     x2="-73.900192"
     y1="82.622787"
     x1="-65.47319"
     stroke-miterlimit="10" /><line
     style="fill:none;stroke:#000000;stroke-miterlimit:10"
     id="line103"
     y2="74.467789"
     x2="-79.049179"
     y1="87.811783"
     x1="-65.704147"
     stroke-miterlimit="10" /><line
     style="fill:none;stroke:#000000;stroke-miterlimit:10"
     id="line105"
     y2="74.467789"
     x2="-84.465195"
     y1="91.811783"
     x1="-67.120163"
     stroke-miterlimit="10" /><line
     style="fill:none;stroke:#000000;stroke-miterlimit:10"
     id="line107"
     y2="79.06279"
     x2="-85.288193"
     y1="93.020782"
     x1="-71.330185"
     stroke-miterlimit="10" /><line
     style="fill:none;stroke:#000000;stroke-miterlimit:10"
     id="line109"
     y2="83.563782"
     x2="-86.206161"
     y1="92.625778"
     x1="-77.14415"
     stroke-miterlimit="10" /><line
     style="fill:none;stroke:#000000;stroke-miterlimit:10"
     id="line113"
     y2="84.578781"
     x2="-65.837204"
     y1="92.809784"
     x1="-74.064194"
     stroke-miterlimit="10" /><line
     style="fill:none;stroke:#000000;stroke-miterlimit:10"
     id="line115"
     y2="79.058777"
     x2="-65.732162"
     y1="93.017776"
     x1="-79.69017"
     stroke-miterlimit="10" /><line
     style="fill:none;stroke:#000000;stroke-miterlimit:10"
     id="line117"
     y2="75.328781"
     x2="-67.420151"
     y1="93.557785"
     x1="-85.650192"
     stroke-miterlimit="10" /><line
     style="fill:none;stroke:#000000;stroke-miterlimit:10"
     id="line119"
     y2="74.535782"
     x2="-72.047165"
     y1="88.473785"
     x1="-85.984177"
     stroke-miterlimit="10" /><line
     style="fill:none;stroke:#000000;stroke-miterlimit:10"
     id="line121"
     y2="74.347778"
     x2="-77.277145"
     y1="82.846786"
     x1="-85.777145"
     stroke-miterlimit="10" /><polygon
     style="fill:none;stroke:#000000;stroke-width:3;stroke-miterlimit:10"
     id="polygon127"
     points="209.18,181.462 151.722,181.462 151.722,204.296 209.012,204.296 209.18,200.841 "
     stroke-miterlimit="10"
     transform="matrix(-1,0,0,1,-54.717278,-111.81522)" /><path
     style="fill:none;stroke:#000000;stroke-width:3;stroke-miterlimit:10"
     inkscape:connector-curvature="0"
     id="path129"
     d="m -263.89728,129.69278 v -19.379 h 47.834 c 0,0 -3.082,5.796 -4.582,11.046 -1.835,6.414 -1.418,11.788 -1.418,11.788 h -41.666 z"
     stroke-miterlimit="10" /><rect
     style="fill:none;stroke:#000000;stroke-width:3;stroke-miterlimit:10"
     id="rect131"
     height="23.504999"
     width="56.169998"
     stroke-miterlimit="10"
     y="23.854782"
     x="208.02327"
     transform="scale(-1,1)" /><path
     style="fill:none;stroke:#000000;stroke-width:3;stroke-linecap:round;stroke-linejoin:round;stroke-miterlimit:10"
     inkscape:connector-curvature="0"
     id="path133"
     d="m -266.89628,162.35978 h 44.667 c -10,-16 0.166,-29.212 0.166,-29.212 0,0 -8.082,-14.788 4.667,-22.038"
     stroke-miterlimit="10" /><g
     id="Layer_2_1_"
     transform="matrix(-1,0,0,1,-54.717278,-111.81522)">
</g><path
     style="fill:#ffffff;stroke-width:3.89979"
     d="m -657.12237,407.5529 c -34.85137,-1.88758 -39.22642,-2.2786 -44.04545,-3.93659 -4.92188,-1.69338 -5.3936,-2.32373 -8.35601,-11.16592 -7.55354,-22.54581 -6.99252,-48.97659 1.76042,-82.9368 4.68331,-18.1706 6.99755,-24.69877 12.81669,-36.15412 12.57032,-24.7455 33.17424,-54.03452 69.76723,-99.17602 5.70432,-7.0369 11.56978,-14.63271 13.03437,-16.8796 9.31932,-14.2971 15.91731,-36.15052 16.90141,-55.97976 0.16942,-3.413726 0.62321,-6.967939 1.03784,-8.128608 0.65699,-1.839104 0.90326,-2.062007 2.27385,-2.058087 2.20037,0.0063 10.94253,2.076268 16.3384,3.868618 6.00293,1.994001 16.33967,6.985877 21.1699,10.223487 17.59099,11.79092 28.18304,28.09113 32.30804,49.71916 0.98702,5.17507 1.10868,7.25538 1.09269,18.68367 -0.0151,10.78823 -0.18952,13.95481 -1.08258,19.65425 -1.02327,6.53039 -2.76696,15.24205 -3.10036,15.48972 -0.0881,0.0654 -1.43032,0.6237 -2.98273,1.24059 -4.8225,1.91634 -8.60022,4.7323 -14.89051,11.09961 -13.84763,14.01717 -23.78757,32.45313 -33.66197,62.43406 -9.65314,29.30914 -17.4564,71.36309 -20.93601,112.82998 -0.74573,8.88687 -0.76772,8.99109 -2.16924,10.28246 -0.77873,0.71753 -2.24644,1.56822 -3.26158,1.89043 -3.72326,1.18177 -18.91794,0.90031 -54.0144,-1.00053 z m 36.95226,-32.04207 c 5.45288,-1.71996 9.53021,-5.65586 11.65674,-11.25245 0.4949,-1.30246 1.33358,-5.74634 1.86373,-9.87527 2.4908,-19.39902 12.23329,-60.11146 24.8315,-103.76726 4.06906,-14.10028 4.02107,-18.00805 -0.27392,-22.30304 -1.75458,-1.75458 -3.08167,-2.45569 -10.72936,-5.66836 -7.24679,-3.04426 -18.28812,-8.76962 -23.8583,-12.37146 -3.36266,-2.17439 -5.75774,-3.36236 -7.52712,-3.73349 -4.54993,-0.95436 -5.43028,-0.5278 -12.13222,5.87846 -32.77533,31.32936 -54.50407,74.91045 -60.99188,122.33072 -1.81344,13.2547 -2.70343,26.92893 -1.94641,29.90578 0.84618,3.32752 3.39397,6.22228 7.06265,8.02448 l 3.29959,1.62089 15.64322,-0.16353 c 15.5631,-0.1627 27.33886,0.36063 35.81318,1.59157 6.959,1.01084 13.66257,0.92668 17.2886,-0.21704 z m 42.41289,-173.9966 c 5.20749,-1.43448 10.34508,-6.61405 12.14143,-12.24063 1.20337,-3.76925 0.80985,-10.1478 -0.84881,-13.75835 -5.18089,-11.27768 -19.64201,-14.55237 -29.56331,-6.69455 -6.22412,4.92959 -8.55147,15.00835 -5.16973,22.38791 2.54444,5.55243 8.26633,10.02867 14.07008,11.00704 2.91338,0.49112 5.83507,0.27242 9.37034,-0.70142 z"
     id="path1044" /><path
     style="fill:#ffffff;stroke-width:3.89979"
     d="m -636.49754,372.3503 c -8.40887,-1.27927 -19.3796,-1.77877 -35.42618,-1.61297 -15.39142,0.15903 -16.09956,0.12614 -18.19839,-0.84549 -2.46395,-1.14064 -5.16366,-3.94815 -5.6465,-5.87196 -0.44937,-1.79042 0.14782,-14.66803 1.0311,-22.23449 4.97982,-42.65867 20.6273,-80.20074 46.31941,-111.13146 4.513,-5.43319 18.47473,-19.82236 20.0855,-20.70041 1.52681,-0.83229 4.57253,0.0769 8.21776,2.45305 7.78109,5.07216 16.79409,9.71575 28.46505,14.6655 10.88723,4.61737 11.16564,5.77645 5.87272,24.44934 -13.47617,47.54256 -22.32693,84.90954 -24.48994,103.394 -1.10146,9.41271 -3.84307,14.14293 -9.73066,16.78872 -3.02461,1.3592 -10.01378,1.63292 -16.49987,0.64617 z m -8.86467,-36.84944 14.40602,-16.71827 -3.61775,-21.21306 c -1.98976,-11.66719 -3.69916,-21.29449 -3.79867,-21.39399 -0.36164,-0.36164 -28.70265,31.93988 -28.85598,32.88844 -0.19877,1.22966 6.76061,43.15515 7.1635,43.15515 0.16327,0 6.77957,-7.52322 14.70288,-16.71827 z"
     id="path1046" /><path
     style="fill:#ffffff;stroke-width:3.89979"
     d="m -662.62941,329.39346 c -2.80726,-16.89643 -3.20343,-19.9903 -2.65706,-20.7504 1.25135,-1.74089 25.82126,-29.19251 25.98315,-29.03062 0.23485,0.23485 6.43695,36.73872 6.4416,37.91351 0.003,0.71496 -17.78889,22.04442 -26.38521,31.6317 -0.0458,0.0511 -1.56793,-8.84279 -3.38248,-19.76419 z m 19.65764,-6.07054 c 3.44952,-2.42441 4.95652,-5.02649 5.17766,-8.94003 0.15727,-2.78328 -0.0122,-3.77757 -1.0186,-5.9758 -3.31048,-7.23105 -13.04612,-8.89576 -18.73786,-3.20402 -5.62079,5.62079 -4.04236,15.32851 3.0405,18.69976 2.05945,0.98024 3.07847,1.15633 5.97102,1.03179 2.95751,-0.12733 3.80392,-0.37236 5.56728,-1.6117 z"
     id="path1048" /><path
     style="fill:#ffffff;stroke-width:3.89979"
     d="m -652.14815,321.14543 c -0.60054,-0.24139 -1.0919,-0.53139 -1.0919,-0.64444 0,-0.18271 7.68839,-13.35237 8.09176,-13.86061 0.33747,-0.42521 2.73771,2.21098 3.3751,3.70688 2.7296,6.4061 -3.96561,13.37442 -10.37496,10.79817 z"
     id="path1050" /><path
     style="fill:#ffffff;stroke-width:3.89979"
     d="m -656.09196,317.97201 c -2.26407,-2.8783 -1.54201,-8.09555 1.47132,-10.6311 1.92759,-1.62196 4.85739,-2.45995 6.65821,-1.9044 l 1.41786,0.4374 -3.94668,6.67274 c -2.17067,3.67001 -4.09806,6.67275 -4.2831,6.67275 -0.18503,0 -0.77795,-0.56133 -1.31761,-1.24739 z"
     id="path1052" /><path
     style="fill:#ffffff;stroke-width:3.89979"
     d="m -589.63666,197.83265 c -3.19867,-1.26321 -6.64611,-4.57653 -8.26462,-7.9431 -1.60774,-3.34418 -1.69015,-9.17158 -0.1762,-12.46015 1.47887,-3.21236 4.66151,-6.46526 7.85368,-8.02704 5.61305,-2.74621 12.9841,-1.37917 17.46615,3.23927 3.23837,3.33693 4.20132,5.84661 4.19726,10.93915 -0.003,3.61416 -0.19487,4.72718 -1.11292,6.45196 -1.64615,3.09268 -4.33405,5.83884 -7.10274,7.25671 -3.46838,1.77617 -9.13271,2.01542 -12.86061,0.5432 z"
     id="path1054" /><path
     style="fill:#ffffff;stroke-width:3.89979"
     d="m -410.10966,299.00635 c -18.65533,-2.82883 -30.19493,-8.04175 -40.40799,-18.254 -12.27744,-12.27648 -18.31398,-28.80498 -18.98163,-51.97311 -0.21471,-7.45084 -0.2712,-7.79843 -1.75801,-10.81858 -2.54991,-5.17959 -7.99239,-8.71693 -16.88254,-10.97278 -3.70804,-0.94091 -5.50645,-1.07317 -14.66026,-1.07811 -8.19928,-0.004 -11.25544,0.1773 -14.27065,0.84858 -2.11031,0.46983 -3.90313,0.78802 -3.98405,0.70709 -0.0809,-0.0809 0.15459,-1.44803 0.52334,-3.03802 3.23459,-13.94663 4.21732,-35.32202 2.20786,-48.02289 -2.85337,-18.03489 -9.7125,-31.8587 -21.80868,-43.95296 -11.30045,-11.29866 -24.44069,-18.501501 -42.01277,-23.029375 -3.46982,-0.894089 -5.65363,-1.64014 -4.8529,-1.657892 0.80073,-0.01776 4.5132,-0.257354 8.24994,-0.532441 39.28538,-2.892063 71.76184,-12.282191 95.11688,-27.50176 14.58391,-9.503774 26.56664,-22.431363 32.30528,-34.852628 5.27911,-11.426614 13.08792,-19.5402724 21.24908,-22.0786118 3.02735,-0.9415855 4.81783,-0.9592637 97.15666,-0.9592637 h 94.07247 l 0.91554,2.0624835 c 2.5001,5.6321006 10.94651,9.614248 21.93852,10.343137 6.74629,0.447351 6.30877,0.145942 6.30877,4.346138 v 3.630431 h -26.20567 -26.20567 V 20.01716 c 0,-1.830746 -0.33909,-2.653749 -1.99947,-4.852903 l -1.99946,-2.648273 h -75.71426 -75.71425 l -7.33339,7.136217 c -4.03336,3.924921 -8.22919,8.27719 -9.32406,9.671711 -5.59792,7.130007 -9.84042,19.190131 -11.3987,32.40294 -0.76136,6.455719 -0.31037,25.721537 0.74501,31.825833 2.51802,14.564145 8.224,29.513835 14.6097,38.277465 l 2.24949,3.08717 -1.75753,1.44871 c -2.44994,2.01945 -3.77126,4.85726 -4.04645,8.69058 -0.59044,8.2249 4.96066,14.29293 12.96065,14.16758 3.63746,-0.057 6.03025,-0.93663 8.5385,-3.13891 1.97961,-1.73812 4.11187,-5.59065 4.11187,-7.42926 v -1.22936 h 69.97884 c 54.428,0 69.84944,0.12941 69.39651,0.58235 -0.4258,0.4258 -0.58235,4.31487 -0.58235,14.46696 v 13.88461 l -2.42025,0.6203 c -1.33114,0.34116 -4.21928,1.49027 -6.41808,2.55359 -11.36836,5.49761 -18.2798,13.66534 -21.76904,25.72599 -1.46706,5.07092 -1.82692,16.63686 -0.74626,23.98448 l 0.79202,5.38508 -1.24834,4.32073 c -3.21104,11.11393 -8.8326,21.04638 -15.40193,27.21292 -5.38176,5.05176 -19.2542,14.20597 -28.76064,18.97867 -13.74467,6.90051 -28.67531,11.60936 -42.58447,13.43037 -5.14717,0.67387 -18.82868,0.94139 -22.17718,0.43364 z m 23.29394,-6.27978 c 11.3995,-1.47131 26.18219,-5.35798 35.71191,-9.38939 10.67402,-4.51549 19.08883,-9.91511 26.61853,-17.08058 9.56083,-9.09835 15.80358,-20.95221 17.26195,-32.77731 0.2904,-2.35468 0.77153,-6.02827 1.06919,-8.16355 1.70242,-12.21271 -0.67876,-23.21055 -6.59917,-30.47921 -6.81229,-8.36365 -15.7013,-13.16496 -32.08481,-17.33028 -10.59731,-2.69425 -17.9396,-3.55883 -30.08799,-3.54299 -20.18299,0.0263 -40.49506,3.98806 -53.20109,10.37653 -16.84914,8.47158 -27.45841,20.62443 -30.99147,35.50054 -0.92426,3.89159 -0.93642,4.37294 -0.24968,9.87871 0.39706,3.18329 0.72766,8.51755 0.73469,11.85392 0.0136,6.46108 0.96634,14.56482 2.22139,18.89446 2.37929,8.20805 8.32965,16.37949 16.25772,22.32623 12.68177,9.51244 30.65887,12.86019 53.33883,9.93292 z m -73.39573,-181.97196 c 2.89182,-1.44105 5.16557,-3.84021 6.61459,-6.97941 0.88727,-1.92221 1.0194,-3.12055 1.0194,-9.24517 0,-6.311233 -0.11488,-7.28687 -1.1143,-9.463159 -1.40914,-3.068456 -3.55246,-5.312822 -6.64543,-6.958717 l -2.42645,-1.291217 h -19.41161 c -17.38796,0 -19.60579,0.08782 -21.27425,0.842377 -2.99547,1.354702 -5.36324,3.510531 -6.89735,6.279961 -1.41734,2.558615 -1.43111,2.658157 -1.43111,10.34811 0,6.907005 0.11386,8.005845 1.03084,9.948445 1.35702,2.87483 3.74453,5.22207 6.73381,6.62024 2.41624,1.13015 2.50824,1.13494 21.8641,1.13966 l 19.43764,0.005 2.50012,-1.24587 z"
     id="path1056" /><path
     style="fill:#ffffff;stroke-width:1.37878"
     d="m -546.2302,79.460916 c 0,-0.148803 0.15964,-0.750675 0.35475,-1.33749 2.28045,-6.858526 13.53309,-13.528574 30.7005,-18.197855 2.27846,-0.619707 7.33517,-1.82823 7.64969,-1.82823 0.17535,0 -0.0312,-0.724276 -1.67015,-5.855455 l -1.74139,-5.451987 -7.22346,-4.500797 c -3.9729,-2.475439 -11.29599,-7.042364 -16.27354,-10.148724 l -9.05008,-5.647927 0.10907,-0.969109 c 0.06,-0.53301 0.13668,-1.001015 0.17043,-1.040011 0.0529,-0.06114 26.91293,5.462117 26.91493,5.534555 0.009,0.317352 1.81451,3.607697 2.77461,5.055735 2.85657,4.308325 6.47106,7.007847 11.01612,8.22751 1.45363,0.390083 1.99807,0.444471 4.56716,0.456245 2.46023,0.01127 3.19558,-0.04905 4.69784,-0.385405 2.32269,-0.520048 4.33055,-1.228818 6.47374,-2.285219 l 1.7349,-0.855148 7.58935,-12.51405 c 4.17414,-6.882727 7.63995,-12.540065 7.70178,-12.571862 0.0618,-0.0318 2.85336,0.657204 6.20338,1.531113 3.35002,0.873908 7.18367,1.873664 8.51921,2.22168 l 2.42826,0.632755 -0.74154,1.567829 c -0.40784,0.862305 -1.00185,2.157844 -1.32002,2.878975 -0.31817,0.721131 -0.98991,2.079864 -1.49275,3.019406 l -0.91426,1.708259 -0.67979,-0.737488 c -1.01251,-1.098445 -2.00438,-1.519065 -3.56862,-1.513339 -1.93208,0.0071 -3.37726,0.870378 -4.25163,2.539782 -0.38619,0.737347 -0.46061,1.09887 -0.46339,2.251033 -0.003,1.204244 0.0591,1.485318 0.50564,2.291492 0.60686,1.095634 1.42167,1.807445 2.55234,2.229705 l 0.8308,0.310273 -1.57694,1.873665 c -4.6099,5.477303 -9.83685,10.353248 -16.04124,14.964028 -16.0841,11.952853 -37.22445,20.759799 -62.45367,26.01783 -4.07681,0.849649 -4.03203,0.843783 -4.03203,0.528226 z"
     id="path1058" /><path
     style="fill:#ffffff;stroke-width:1.37878"
     d="m -462.37278,34.689784 c -2.13879,-0.763257 -3.12689,-3.047217 -2.17184,-5.020096 0.58909,-1.216889 1.97721,-2.11493 3.26445,-2.111918 1.21942,0.0029 2.62023,0.853705 3.1765,1.929416 0.2561,0.49524 0.2435,0.534864 -0.55101,1.733185 -1.39168,2.099014 -2.63867,3.714534 -2.8611,3.706679 -0.11728,-0.0041 -0.50293,-0.110912 -0.857,-0.237266 z"
     id="path1060" /><path
     style="fill:#ffffff;stroke-width:0.689392"
     d="m -459.23933,94.518659 c -0.002,-6.653957 0.0288,-11.688615 0.0717,-11.688615 0.0983,0 0.90196,0.921643 1.42133,1.629972 0.56692,0.773196 1.28915,2.291584 1.54036,3.238395 0.37972,1.431188 0.41061,2.037769 0.37246,7.313529 -0.0391,5.40632 -0.0342,5.34946 -0.59336,6.93521 -0.48644,1.3796 -1.21956,2.58267 -2.21231,3.63045 l -0.59659,0.62967 z"
     id="path1062" /><path
     style="fill:#ffffff;stroke-width:0.689392"
     d="M -464.73337,94.491358 V 80.151134 l 0.4075,0.06096 c 0.91354,0.136671 2.2618,0.646189 3.34573,1.264372 l 0.62196,0.354716 v 12.629488 12.62949 l -0.40942,0.26272 c -0.91953,0.59006 -2.53689,1.22057 -3.64406,1.42058 l -0.32171,0.0581 z"
     id="path1064" /><path
     style="fill:#ffffff;stroke-width:0.689392"
     d="m -470.30959,103.94047 v -4.969106 l 0.34279,-0.6355 c 0.67342,-1.24848 0.94403,-2.364358 0.94403,-3.89271 0,-1.499399 -0.33549,-2.801023 -1.02214,-3.965572 l -0.26468,-0.448896 V 85.013863 79.99904 h 2.23049 2.23049 v 14.455278 14.455272 h -2.23049 -2.23049 z"
     id="path1066" /><path
     style="fill:#ffffff;stroke-width:0.689392"
     d="m -471.52156,88.607442 c -0.26825,-0.323457 -1.28343,-1.012966 -2.00508,-1.361834 -0.67752,-0.327541 -1.06316,-0.455576 -2.03746,-0.676464 l -0.23592,-0.05348 v -3.25831 -3.258309 h 2.23049 2.23049 v 4.375188 c 0,2.406353 -0.0146,4.375188 -0.0324,4.375188 -0.0178,0 -0.0854,-0.06389 -0.15013,-0.141974 z"
     id="path1068" /><path
     style="fill:#ffffff;stroke-width:0.689392"
     d="M -481.37624,83.816606 V 79.99904 h 2.23049 2.23049 v 3.21705 3.21705 h -0.37481 c -0.97462,0 -2.37695,0.369575 -3.42814,0.90346 -0.32225,0.163665 -0.60213,0.297572 -0.62197,0.297572 -0.0198,0 -0.0361,-1.717905 -0.0361,-3.817566 z"
     id="path1070" /><path
     style="fill:#ffffff;stroke-width:0.689392"
     d="M -486.86667,94.454318 V 79.99904 h 2.23049 2.23049 v 4.205266 4.205266 l -0.60738,0.702872 c -0.6748,0.780896 -1.1426,1.536929 -1.4818,2.394762 -0.41483,1.049136 -0.51912,1.649486 -0.51942,2.990006 -3.2e-4,1.438269 0.16405,2.216012 0.71927,3.403492 0.40237,0.86056 0.72393,1.33483 1.38201,2.03832 l 0.50732,0.542316 v 4.21412 4.21413 h -2.23049 -2.23049 z"
     id="path1072" /><path
     style="fill:#ffffff;stroke-width:0.689392"
     d="M -492.44289,94.454318 V 79.99904 h 2.23049 2.23049 v 14.455278 14.455272 h -2.23049 -2.23049 z"
     id="path1074" /><path
     style="fill:#ffffff;stroke-width:0.689392"
     d="M -497.93332,94.454318 V 79.99904 h 2.23049 2.23048 v 14.455278 14.455272 h -2.23048 -2.23049 z"
     id="path1076" /><path
     style="fill:#ffffff;stroke-width:0.689392"
     d="m -500.11259,108.77176 c -0.8593,-0.15518 -2.01598,-0.54149 -2.79313,-0.93285 l -0.60382,-0.30408 V 94.466767 81.398704 l 0.66485,-0.311791 c 1.17708,-0.552 2.77076,-1.002085 3.54824,-1.002085 h 0.24788 v 14.412384 14.412378 l -0.19302,-0.008 c -0.10616,-0.004 -0.49811,-0.0628 -0.871,-0.13013 z"
     id="path1078" /><path
     style="fill:#ffffff;stroke-width:0.689392"
     d="m -505.55472,105.92846 c -0.46165,-0.46004 -1.02097,-1.09315 -1.24293,-1.40691 -0.82825,-1.17079 -1.49262,-2.74721 -1.78425,-4.23365 -0.16654,-0.848856 -0.1712,-10.698633 -0.005,-11.574861 0.26563,-1.404441 0.84982,-2.849591 1.63255,-4.038553 0.39362,-0.597907 1.73067,-2.054199 2.1799,-2.374318 l 0.23592,-0.168112 v 12.31642 c 0,8.376234 -0.0282,12.316414 -0.0882,12.316414 -0.0485,0 -0.46589,-0.37639 -0.92754,-0.83643 z"
     id="path1080" /><path
     style="fill:#ffffff;stroke-width:0.689392"
     d="m -481.37624,105.08573 v -3.82386 l 0.45039,0.25315 c 1.01599,0.57107 2.30207,0.93443 3.43152,0.96952 l 0.57907,0.018 v 3.20353 3.20353 h -2.23049 -2.23049 z"
     id="path1082" /><path
     style="fill:#ffffff;stroke-width:0.689392"
     d="m -475.80002,105.65939 v -3.2502 l 0.38681,-0.058 c 1.14124,-0.17114 2.51958,-0.85012 3.72418,-1.83457 l 0.34999,-0.28602 v 4.3395 4.3395 h -2.23049 -2.23049 z"
     id="path1084" /><path
     style="fill:#ffffff;stroke-width:5.51514"
     d="m -426.1064,156.24074 c -7.04468,-3.55571 -8.3772,-14.70833 -2.23798,-18.73091 1.71979,-1.12684 1.77936,-1.09893 5.60289,2.62554 3.0559,2.97673 4.83402,4.08006 8.49716,5.27254 5.22557,1.70111 5.48008,2.24282 3.07425,6.54343 -1.72876,3.0903 -6.32115,5.83358 -9.76571,5.83358 -1.16117,0 -3.48795,-0.69488 -5.17061,-1.54418 z"
     id="path1086" /><path
     style="fill:#ffffff;stroke-width:5.51514"
     d="m -365.31676,273.37952 c -12.60373,-2.50216 -24.27204,-11.50857 -29.72465,-22.94356 -4.63821,-9.72705 -5.76809,-15.4257 -6.15738,-31.05525 -0.18568,-7.45498 -0.41551,-13.55451 -0.51072,-13.55451 -0.0952,0 -2.9159,-0.47336 -6.26818,-1.05191 -9.0152,-1.55587 -19.84483,-5.03885 -18.77181,-6.03731 0.87832,-0.81728 18.31933,-5.99807 24.34392,-7.23127 9.58821,-1.96266 22.10795,-3.52341 28.26341,-3.52341 h 5.20193 l -0.41572,2.57364 c -0.73549,4.55334 -4.97533,11.95921 -10.11736,17.67233 -2.71789,3.01973 -5.74672,7.18903 -6.73074,9.2651 -1.58979,3.35409 -1.78348,4.57761 -1.73833,10.98086 0.046,6.52912 0.29359,7.88327 2.63469,14.41239 3.65045,10.18077 6.26766,14.76967 11.38373,19.95972 4.80582,4.87532 10.66586,8.22669 16.98603,9.71437 1.9817,0.46646 3.60309,1.08386 3.60309,1.372 0,0.80884 -6.67306,0.50076 -11.98191,-0.55319 z"
     id="path1088" /><path
     style="fill:#ffffff;stroke-width:5.51514"
     d="m -458.02704,227.52178 c -1.46332,-7.80016 5.1167,-21.84723 14.15247,-30.21275 12.82496,-11.87365 28.94838,-18.22005 53.43297,-21.03194 10.43669,-1.19858 30.72813,-0.48039 39.50882,1.39837 28.22927,6.04007 42.17914,17.42199 43.30062,35.32964 l 0.30258,4.83142 -1.03052,-2.64739 c -5.47125,-14.05573 -21.59105,-25.42193 -41.54323,-29.29248 -16.96167,-3.29042 -41.29959,-1.58629 -63.21944,4.4266 -17.32855,4.75343 -23.19413,7.74326 -31.14736,15.87658 -5.75585,5.8862 -8.9751,11.06412 -11.44393,18.40674 l -1.83567,5.45952 z"
     id="path1092" /><path
     style="fill:#ffffff;stroke-width:5.51514"
     d="m -299.28841,227.395 c -0.92925,-0.94264 -0.53103,-15.57997 0.54847,-20.15989 2.58706,-10.97603 10.42351,-20.91941 20.21223,-25.64654 2.831,-1.36714 5.99658,-2.68317 7.03461,-2.92452 1.6604,-0.38605 1.88734,-0.23884 1.88734,1.22424 0,1.2467 -0.64431,1.96934 -2.57364,2.88651 -3.47495,1.65192 -10.31251,6.61186 -12.99994,9.4301 -6.66369,6.98803 -10.99229,16.97115 -12.70396,29.29932 -0.48971,3.52711 -1.12201,6.17796 -1.40511,5.89078 z"
     id="path1094" /><path
     style="fill:#ffffff;stroke-width:5.51514"
     d="m -266.17424,155.44387 c 0,-4.80889 0.11229,-5.18076 2.05891,-6.81874 1.99256,-1.67662 2.05891,-1.92188 2.05891,-7.61035 v -5.87789 h 18.26049 c 17.12885,0 18.22868,0.0744 17.74741,1.20103 -3.0149,7.05752 -3.0149,15.93367 0,22.99119 0.48202,1.12834 -0.7166,1.20103 -19.80632,1.20103 h -20.3194 z"
     id="path1098" /><path
     style="fill:#ffffff;stroke-width:5.51514"
     d="m -266.17424,171.85415 v -7.89249 h 21.27542 21.27543 v 5.04887 5.04887 l -12.1819,0.40921 c -12.10745,0.40672 -19.52393,1.56652 -26.85214,4.19918 -1.65169,0.59337 -3.11867,1.07886 -3.25994,1.07886 -0.14128,0 -0.25687,-3.55162 -0.25687,-7.8925 z"
     id="path1100" /><path
     style="fill:#ffffff;stroke-width:5.51514"
     d="m -262.05642,121.41081 v -9.60826 h 19.86616 19.86616 l -2.08378,3.94625 c -1.85089,3.50522 -2.05033,4.4448 -1.7845,8.40723 0.1646,2.45353 0.53416,5.00144 0.82125,5.662 0.48987,1.12714 -0.62259,1.20104 -18.08165,1.20104 h -18.60364 z"
     id="path1102" /><path
     style="fill:#ffffff;stroke-width:5.51514"
     d="m -262.05642,101.50799 v -6.863032 h 26.07956 c 20.41045,0 26.07778,0.186483 26.0714,0.85788 -0.0284,2.986296 -2.23846,8.535522 -4.2093,10.568922 l -2.22855,2.29927 h -22.85655 -22.85656 z"
     id="path1104" /><path
     style="fill:#ffffff;stroke-width:5.51514"
     d="m -262.05642,80.918878 v -9.608256 h 26.07956 26.07955 v 9.608256 9.608256 h -26.07955 -26.07956 z"
     id="path1106" /><path
     style="fill:#ffffff;stroke-width:5.51514"
     d="m -262.05642,58.613998 v -9.265104 h 26.07956 26.07955 v 9.265104 9.265104 h -26.07955 -26.07956 z"
     id="path1110" /><path
     style="fill:#ffffff;stroke-width:5.51514"
     d="m -262.05642,35.622813 v -9.608256 h 26.07956 26.07955 v 9.608256 9.608257 h -26.07955 -26.07956 z"
     id="path1112" /><path
     style="fill:#ffffff;stroke-width:0.344696"
     d="m -68.481598,78.870402 -0.86873,-0.869542 0.53274,-0.531465 0.53274,-0.531465 0.28154,0.145933 c 0.15485,0.08026 0.31118,0.167586 0.34739,0.194051 0.057,0.04164 0.0643,0.210567 0.0544,1.255074 l -0.0114,1.206956 z"
     id="path1178" /><path
     style="fill:#ffffff;stroke-width:0.344696"
     d="m -70.551108,76.800855 -0.44885,-0.450386 h 0.84386 c 0.46412,0 0.85365,0.01584 0.86561,0.03519 0.012,0.01936 -0.16579,0.222031 -0.39501,0.450386 l -0.41675,0.415193 z"
     id="path1180" /><path
     style="fill:#ffffff;stroke-width:2.75757"
     d="m -351.07509,133.61679 c -8.60923,-2.3847 -12.23654,-6.71354 -9.67867,-11.55053 1.40876,-2.66401 5.07648,-4.60775 11.05128,-5.85672 2.91158,-0.60864 5.19513,-0.64585 39.89142,-0.6501 l 36.80305,-0.005 v 9.43668 9.43668 l -37.66093,-0.0255 -37.66093,-0.0256 -2.74522,-0.7604 z"
     id="path1184" /><path
     style="fill:#ffffff;stroke-width:2.75757"
     d="M -411.98457,79.009247 V 23.590199 l 31.14105,0.02082 31.14104,0.02082 -2.43303,0.654185 c -7.57627,2.037076 -11.12408,5.464325 -10.68372,10.32066 0.43497,4.796847 4.74498,7.902609 13.82644,9.963211 3.39994,0.771454 3.49541,0.7736 39.69646,0.892315 l 36.28832,0.119 v 11.480955 11.480954 l -35.94517,0.0021 c -38.99366,0.0021 -39.65438,0.02985 -45.2715,1.894034 -5.36375,1.780108 -8.25161,4.580884 -8.59181,8.332712 -0.52401,5.778879 4.68666,9.666311 15.47523,11.545329 2.61802,0.455939 8.07103,0.530746 38.69039,0.530746 h 35.64286 v 11.65713 11.65714 l -38.00408,0.0999 -38.00409,0.0999 -2.74521,0.77589 c -7.50638,2.12154 -11.13737,5.33403 -11.13737,9.8537 0,3.45161 2.19122,6.17962 6.64121,8.26815 l 2.43725,1.14388 -29.08214,0.0123 -29.08213,0.0123 z m 16.05195,45.034013 c 1.53282,-1.63161 2.55267,-5.52518 3.00984,-11.49091 l 0.24325,-3.17415 h 2.87253 2.87253 v -4.80413 -4.804126 h -11.15244 -11.15244 v 4.804126 4.80413 h 3.03607 3.03607 l 0.22722,3.86046 c 0.34306,5.82871 1.62146,10.27806 3.22069,11.20938 1.09618,0.63837 2.99765,0.43511 3.78668,-0.40478 z m -0.0963,-62.465164 c 1.51652,-1.516522 2.43496,-4.610702 2.9702,-10.0064 l 0.42694,-4.304009 h 2.84868 2.84868 v -4.804128 -4.804128 h -11.15244 -11.15244 v 4.804128 4.804128 h 3.08836 3.08837 l 0.0106,1.973124 c 0.0285,5.305959 1.27389,10.560499 2.91554,12.301155 1.44248,1.52948 2.60394,1.539695 4.10751,0.03613 z"
     id="path1186" /><path
     style="fill:#ffffff;stroke-width:2.75757"
     d="m -398.83397,123.28054 c -1.51713,-1.06264 -2.85604,-6.79678 -2.85604,-12.23153 v -3.04342 h -3.08837 -3.08837 v -3.43152 -3.43152 h 9.77984 9.77983 v 3.43152 3.43152 h -2.8645 -2.86449 l -0.22811,3.86046 c -0.48242,8.164 -2.3939,12.93854 -4.56979,11.41449 z"
     id="path1188" /><path
     style="fill:#ffffff;stroke-width:2.75757"
     d="m -425.14012,74.290907 c -0.12281,-9.29513 -0.32437,-18.714652 -0.44791,-20.932272 l -0.22461,-4.032036 h 5.0267 5.0267 v 20.932272 20.932272 h -4.57879 -4.57878 z"
     id="path1190" /><path
     style="fill:#ffffff;stroke-width:2.75757"
     d="m -432.82345,120.35906 c -4.99834,-10.20336 -7.8705,-20.408706 -9.41612,-33.457317 -0.66537,-5.617234 -0.56338,-20.531893 0.17716,-25.907976 1.63985,-11.904762 5.0183,-21.638327 9.88576,-28.481616 l 1.83057,-2.57364 0.39849,5.833584 c 1.79623,26.295556 1.96588,58.292953 0.42664,80.469145 -0.20305,2.92537 -0.48075,6.16815 -0.61711,7.20619 l -0.24793,1.88733 z"
     id="path1192" /><path
     style="fill:#ffffff;stroke-width:2.75757"
     d="m -399.24191,60.459623 c -1.44409,-1.835867 -2.4289,-6.569115 -2.4413,-11.73354 l -0.007,-2.831004 h -3.08837 -3.08837 v -3.43152 -3.43152 h 9.77984 9.77983 v 3.43152 3.43152 h -2.86465 -2.86464 l -0.21621,3.533622 c -0.36927,6.035348 -1.31865,9.858244 -2.82139,11.360979 -0.77299,0.772996 -1.37201,0.681798 -2.16794,-0.330057 z"
     id="path1194" /><path
     style="fill:#ffffff;stroke-width:2.75757"
     d="m -347.47199,88.949995 c -6.19145,-1.114928 -11.45685,-3.60485 -13.03997,-6.166381 -1.1209,-1.813651 -1.28594,-4.159211 -0.41223,-5.858556 1.40172,-2.726317 4.13689,-4.406195 9.647,-5.92495 l 3.29047,-0.906956 37.48936,-0.09888 37.48935,-0.09888 v 9.789993 9.789993 l -35.94517,-0.03097 c -28.5766,-0.02462 -36.47276,-0.125974 -38.51881,-0.494418 z"
     id="path1196" /><path
     style="fill:#ffffff;stroke-width:2.75757"
     d="m -344.04047,43.940863 c -4.69259,-0.50254 -10.43102,-2.099077 -13.03978,-3.627903 -3.08307,-1.806789 -4.63014,-4.203796 -4.38174,-6.788977 0.38331,-3.989192 3.95245,-6.592056 11.41636,-8.325611 3.01357,-0.699927 3.98386,-0.720093 40.06299,-0.832631 l 36.97463,-0.115332 v 9.964455 9.964455 l -34.91571,-0.05492 c -19.20365,-0.0302 -35.45619,-0.112797 -36.11675,-0.183539 z"
     id="path1198" /><path
     style="fill:#ffffff;stroke-width:2.75757"
     d="m -269.23334,46.238231 v -20.58912 h 1.71576 1.71576 v 20.58912 20.58912 h -1.71576 -1.71576 z"
     id="path1204" /><path
     style="fill:#ffffff;stroke-width:1.9499"
     d="m -269.4085,83.614104 v -7.279353 h 1.81984 1.81984 v 7.279353 7.279354 h -1.81984 -1.81984 z"
     id="path1206" /><path
     style="fill:#ffffff;stroke:none;stroke-width:1.45587;stroke-dasharray:none"
     d="m -204.67163,83.676534 v -5.823483 h 58.72011 58.720122 v 5.823483 5.823483 h -58.720122 -58.72011 z"
     id="path3603" /><path
     style="fill:#ffffff;stroke:none;stroke-width:0.181984;stroke-dasharray:none"
     d="m -71.065168,81.674712 -0.96963,-0.971058 0.97058,-0.970581 0.97058,-0.97058 0.96963,0.971058 0.96964,0.971059 -0.97058,0.97058 -0.97058,0.970581 z"
     id="path3605" /><path
     style="fill:#ffffff;stroke:none;stroke-width:0.181984;stroke-dasharray:none"
     d="m -68.503058,84.236852 -0.83329,-0.834891 0.84927,-0.847647 0.84927,-0.847646 v 1.682538 c 0,0.925396 -0.007,1.682538 -0.016,1.682538 -0.009,0 -0.39096,-0.375702 -0.84928,-0.834892 z"
     id="path3607" /><path
     style="fill:#ffffff;stroke:none;stroke-width:0.181984;stroke-dasharray:none"
     d="m -71.111378,87.088041 -0.9547,-0.956104 0.98643,-0.985066 0.98642,-0.985067 0.98509,0.986447 0.98508,0.986446 -0.95612,0.954724 c -0.52587,0.525099 -0.98343,0.954725 -1.01681,0.954725 -0.0334,0 -0.4903,-0.430247 -1.01539,-0.956105 z"
     id="path3609" /><path
     style="fill:#ffffff;stroke:none;stroke-width:0.181984;stroke-dasharray:none"
     d="m -68.691678,89.507743 -0.64446,-0.646472 0.84916,-0.847544 0.84917,-0.847544 v 1.37324 1.373239 l -0.2047,0.120777 -0.2047,0.120776 z"
     id="path3611" /><path
     style="fill:#ffffff;stroke:none;stroke-width:0.181984;stroke-dasharray:none"
     d="m -70.761938,90.288696 0.66512,-0.667191 0.5319,0.529439 c 0.29255,0.291191 0.53173,0.543656 0.53152,0.561034 -2.1e-4,0.01738 -0.0843,0.07937 -0.1869,0.137752 -0.15705,0.08939 -0.34611,0.106158 -1.19664,0.106158 h -1.01013 z"
     id="path3613" /><path
     style="fill:#ffffff;stroke:none;stroke-width:0.181984;stroke-dasharray:none"
     d="m -73.794928,89.803323 -0.96915,-0.97058 0.96917,-0.970601 0.96918,-0.970602 0.98644,0.985077 0.98644,0.985077 -0.95471,0.956105 c -0.52509,0.525858 -0.96899,0.956105 -0.98646,0.956105 -0.0175,0 -0.46787,-0.436761 -1.00091,-0.970581 z"
     id="path3615" /><path
     style="fill:#ffffff;stroke:none;stroke-width:0.181984;stroke-dasharray:none"
     d="m -76.205878,90.273785 0.68211,-0.682102 0.6821,0.682102 0.6821,0.682103 h -1.3642 -1.36421 z"
     id="path3617" /><path
     style="fill:#ffffff;stroke:none;stroke-width:0.181984;stroke-dasharray:none"
     d="m -79.193778,89.803323 -0.96964,-0.971058 0.97058,-0.970581 0.97059,-0.97058 0.96963,0.971058 0.96964,0.971059 -0.97058,0.97058 -0.97058,0.970581 z"
     id="path3619" /><path
     style="fill:#ffffff;stroke:none;stroke-width:0.181984;stroke-dasharray:none"
     d="m -81.604728,90.273785 0.6821,-0.682102 0.68211,0.682102 0.6821,0.682103 h -1.36421 -1.3642 z"
     id="path3621" /><path
     style="fill:#ffffff;stroke:none;stroke-width:0.181984;stroke-dasharray:none"
     d="m -83.834368,89.03908 c 0,-1.794972 0.008,-1.954385 0.1088,-2.045172 0.10238,-0.09265 0.16586,-0.04131 1.07628,0.870436 l 0.96747,0.968897 -1.07627,1.076275 -1.07628,1.076275 z"
     id="path3623" /><path
     style="fill:#ffffff;stroke:none;stroke-width:0.181984;stroke-dasharray:none"
     d="m -81.909088,87.088031 -0.95472,-0.956116 0.97059,-0.969169 0.97059,-0.969169 0.97059,0.969169 0.9706,0.969169 -0.95472,0.956116 c -0.52509,0.525863 -0.969,0.956115 -0.98647,0.956115 -0.0175,0 -0.46137,-0.430252 -0.98646,-0.956115 z"
     id="path3625" /><path
     style="fill:#ffffff;stroke:none;stroke-width:0.181984;stroke-dasharray:none"
     d="m -83.731348,85.267019 c -0.0919,-0.101596 -0.10302,-0.303312 -0.10302,-1.875975 0,-1.526116 0.0127,-1.772709 0.0951,-1.841058 0.0822,-0.06824 0.22788,0.05386 1.07651,0.902492 l 0.98141,0.981411 -0.97348,0.973484 c -0.93692,0.936913 -0.97736,0.969207 -1.07651,0.859646 z"
     id="path3627" /><path
     style="fill:#ffffff;stroke:none;stroke-width:0.181984;stroke-dasharray:none"
     d="m -83.761568,79.842741 c -0.0532,-0.05319 -0.0728,-0.535167 -0.0728,-1.789507 V 76.33652 h 0.22829 c 0.21253,0 0.28584,0.05765 1.06154,0.83484 l 0.83324,0.834841 -0.95607,0.954667 c -0.52583,0.525067 -0.97077,0.954667 -0.98874,0.954667 -0.018,0 -0.0654,-0.03276 -0.10546,-0.07279 z"
     id="path3629" /><path
     style="fill:#ffffff;stroke:none;stroke-width:0.181984;stroke-dasharray:none"
     d="m -81.923538,81.674712 -0.96916,-0.97058 0.96918,-0.970602 0.96918,-0.970601 0.98644,0.985077 0.98643,0.985077 -0.9547,0.956105 c -0.52509,0.525857 -0.96899,0.956105 -0.98646,0.956105 -0.0175,0 -0.46787,-0.436762 -1.00091,-0.970581 z"
     id="path3631" /><path
     style="fill:#ffffff;stroke:none;stroke-width:0.181984;stroke-dasharray:none"
     d="m -79.209698,78.989719 -0.98513,-0.986497 0.83494,-0.833351 0.83495,-0.833351 h 0.30334 0.30333 l 0.83323,0.834829 0.83324,0.83483 -0.98638,0.985019 -0.98638,0.985018 z"
     id="path3633" /><path
     style="fill:#ffffff;stroke:none;stroke-width:0.181984;stroke-dasharray:none"
     d="m -81.407918,76.791479 -0.45192,-0.454959 h 0.90688 0.90689 l -0.45193,0.454959 c -0.24856,0.250228 -0.45329,0.45496 -0.45496,0.45496 -0.002,0 -0.2064,-0.204732 -0.45496,-0.45496 z"
     id="path3635" /><path
     style="fill:#ffffff;stroke:none;stroke-width:0.181984;stroke-dasharray:none"
     d="m -75.948398,76.791479 -0.45192,-0.454959 h 0.90688 0.90688 l -0.45192,0.454959 c -0.24856,0.250228 -0.45329,0.45496 -0.45496,0.45496 -0.002,0 -0.2064,-0.204732 -0.45496,-0.45496 z"
     id="path3637" /><path
     style="fill:#ffffff;stroke:none;stroke-width:0.181984;stroke-dasharray:none"
     d="m -73.780528,78.959369 -0.95477,-0.956167 0.83494,-0.833341 c 0.82513,-0.823553 0.83815,-0.833341 1.10794,-0.833341 0.26998,0 0.28225,0.0093 1.10625,0.83484 l 0.83324,0.834841 -0.95607,0.954667 c -0.52583,0.525067 -0.96972,0.954667 -0.98642,0.954667 -0.0167,0 -0.45999,-0.430275 -0.98511,-0.956166 z"
     id="path3639" /><path
     style="fill:#ffffff;stroke:none;stroke-width:0.181984;stroke-dasharray:none"
     d="m -76.510228,81.689188 -0.9547,-0.956105 0.98643,-0.985077 0.98644,-0.985077 0.96918,0.970601 0.96918,0.970602 -0.96916,0.97058 c -0.53304,0.533819 -0.98345,0.970581 -1.00091,0.970581 -0.0175,0 -0.46137,-0.430248 -0.98646,-0.956105 z"
     id="path3641" /><path
     style="fill:#ffffff;stroke:none;stroke-width:0.181984;stroke-dasharray:none"
     d="m -79.193778,84.40447 -0.96964,-0.971059 0.97058,-0.97058 0.97059,-0.970581 0.96963,0.971059 0.96964,0.971058 -0.97058,0.970581 -0.97058,0.97058 z"
     id="path3643" /><path
     style="fill:#ffffff;stroke:none;stroke-width:0.181984;stroke-dasharray:none"
     d="m -73.795138,84.404251 -0.96942,-0.97084 0.98527,-0.985273 0.98527,-0.985274 0.97081,0.970809 0.97081,0.970809 -0.98666,0.985305 -0.98667,0.985305 z"
     id="path3645" /><path
     style="fill:#ffffff;stroke:none;stroke-width:0.181984;stroke-dasharray:none"
     d="m -76.510238,87.088031 -0.95471,-0.956116 0.97059,-0.969169 0.97059,-0.969169 0.97059,0.969169 0.97059,0.969169 -0.95472,0.956116 c -0.52509,0.525863 -0.969,0.956115 -0.98646,0.956115 -0.0175,0 -0.46138,-0.430252 -0.98647,-0.956115 z"
     id="path3647" /><path
     style="fill:#ffffff;stroke:none;stroke-width:0.514728;stroke-dasharray:none"
     d="m -56.565458,93.994769 c -0.0969,-0.167107 -2.34822,-7.184389 -2.34822,-7.319408 0,-0.05615 8.64743,-0.102089 19.21651,-0.102089 10.56908,0 19.21527,0.05791 19.21376,0.128682 -0.002,0.07077 -0.48531,1.750075 -1.07511,3.731778 l -1.07236,3.603096 -16.92973,0.04373 c -9.31135,0.02405 -16.96353,-0.01455 -17.00485,-0.08579 z"
     id="path3649" /><path
     style="fill:#ffffff;stroke:none;stroke-width:0.514728;stroke-dasharray:none"
     d="m -59.345868,85.330073 c -0.79005,-2.156876 -0.76885,-1.923068 -0.76885,-8.477705 v -6.235664 h 20.50334 20.50333 l -0.002,5.79069 -0.002,5.79069 -0.4898,1.629972 -0.4898,1.629972 -19.5874,0.04362 c -15.58073,0.0347 -19.60353,-3.94e-4 -19.66623,-0.171576 z"
     id="path3651" /><path
     style="fill:#ffffff;stroke:none;stroke-width:0.257364;stroke-dasharray:none"
     d="m -64.489898,83.828056 v -2.230488 h 0.60051 0.60052 v 0.906104 c 0,0.946888 -0.0244,0.844172 0.81781,3.447637 0.0264,0.08175 -0.20936,0.107235 -0.99208,0.107235 h -1.02676 z"
     id="path3653" /><path
     style="fill:#ffffff;stroke:none;stroke-width:0.128682;stroke-dasharray:none"
     d="m -16.988758,85.98348 c 0.0128,-0.04129 0.23683,-0.798901 0.49786,-1.68359 0.26103,-0.884689 0.48197,-1.627827 0.49097,-1.651419 0.009,-0.02359 0.0179,0.734024 0.0198,1.68359 l 0.003,1.726483 h -0.51762 c -0.47323,0 -0.51562,-0.0064 -0.49435,-0.07506 z"
     id="path3655" /><path
     style="fill:#ffffff;stroke:none;stroke-width:1.45587;stroke-dasharray:none"
     d="m -206.12751,58.198797 v -8.977869 h 152.381132 c 150.15092,0 152.38113,0.01369 152.38113,0.935465 0,1.927301 -1.06173,8.674047 -2.01024,12.773984 l -0.98236,4.24629 H -55.242678 -206.12751 Z"
     id="path3657" /><path
     style="fill:#ffffff;stroke:none;stroke-width:1.45587;stroke-dasharray:none"
     d="M -206.12751,36.119632 V 24.959496 l 150.683432,-0.122862 150.68342,-0.122862 0.97126,2.918648 c 1.53769,4.620777 2.42415,10.13513 2.42415,15.07978 v 4.567567 H -53.746378 -206.12751 Z"
     id="path3659" /><path
     style="fill:#ffffff;stroke:none;stroke-width:1.45587;stroke-dasharray:none"
     d="m -206.12751,18.647644 v -3.882322 h 148.984102 148.9841 v 3.882322 3.882322 h -148.9841 -148.984102 z"
     id="path3661" /><path
     style="fill:#ffffff;stroke:none;stroke-width:1.45587;stroke-dasharray:none"
     d="M 0.36348184,10.64874 C 6.2718718,9.1579756 32.254602,3.4818877 40.642572,1.8495238 c 7.41186,-1.44240487 10.41042,-1.80332567 15.28665,-1.83996867 5.83265,-0.04383 6.16426,0.00879 8.616,1.36723347 3.3854,1.8757627 5.2715,4.4017238 6.64521,8.8995994 l 0.33348,1.091903 -36.79344,-0.05366 C 4.0790718,11.269921 -1.6579082,11.158767 0.36348184,10.648743 Z"
     id="path3663" /></g></svg>
