<?xml version="1.0" encoding="UTF-8" standalone="no"?>
<svg
   version="1.1"
   x="0px"
   y="0px"
   width="1321.9738"
   height="435.70212"
   viewBox="0 0 1321.9738 435.70212"
   enable-background="new 0 0 1677.157 720"
   xml:space="preserve"
   id="svg236"
   sodipodi:docname="weapon_xm177.svg"
   inkscape:version="1.2.2 (732a01da63, 2022-12-09)"
   xmlns:inkscape="http://www.inkscape.org/namespaces/inkscape"
   xmlns:sodipodi="http://sodipodi.sourceforge.net/DTD/sodipodi-0.dtd"
   xmlns="http://www.w3.org/2000/svg"
   xmlns:svg="http://www.w3.org/2000/svg"
   xmlns:rdf="http://www.w3.org/1999/02/22-rdf-syntax-ns#"
   xmlns:cc="http://creativecommons.org/ns#"
   xmlns:dc="http://purl.org/dc/elements/1.1/"><path
   style="fill:none;stroke:#000000;stroke-miterlimit:10"
   inkscape:connector-curvature="0"
   id="path154"
   d="m 593.9867,245.88753 c 0,0 -5.104,65.194 36.85,164.971"
   stroke-miterlimit="10" /><path
   style="fill:none;stroke:#000000;stroke-miterlimit:10"
   inkscape:connector-curvature="0"
   id="path156"
   d="m 583.7807,250.42353 c 0,0 -5.104,65.193 36.85,164.97"
   stroke-miterlimit="10" /><path
   style="fill:none;stroke:#000000;stroke-miterlimit:10"
   inkscape:connector-curvature="0"
   id="path158"
   d="m 557.4837,254.10753 c 0,0 -5.217,66.652 37.672,168.655"
   stroke-miterlimit="10" /><path
   style="fill:none;stroke:#000000;stroke-miterlimit:10"
   inkscape:connector-curvature="0"
   id="path160"
   d="m 554.0817,254.10753 c 0,0 -5.218,66.652 37.671,168.655"
   stroke-miterlimit="10" /><path
   style="fill:none;stroke:#000000;stroke-miterlimit:10"
   inkscape:connector-curvature="0"
   id="path162"
   d="m 530.3837,259.77753 c 0,0 -5.268,67.322 38.052,170.354"
   stroke-miterlimit="10" /><path
   style="fill:none;stroke:#000000;stroke-miterlimit:10"
   inkscape:connector-curvature="0"
   id="path164"
   d="m 526.9477,259.77753 c 0,0 -5.271,67.322 38.051,170.354"
   stroke-miterlimit="10" /><path
   style="fill:none;stroke:#000000;stroke-width:3;stroke-miterlimit:10"
   inkscape:connector-curvature="0"
   id="path166"
   d="m 650.1097,404.62153 -91.837,29.478 -9.069,-3.968 c 0,0 -31.465,-68.595 -39.828,-167.521"
   stroke-miterlimit="10" /><line
   style="fill:none;stroke:#000000;stroke-width:3;stroke-miterlimit:10"
   id="line168"
   y2="404.62152"
   x2="650.10968"
   y1="400.65353"
   x1="652.94464"
   stroke-miterlimit="10" /><path
   style="fill:none;stroke:#000000;stroke-width:3;stroke-miterlimit:10"
   inkscape:connector-curvature="0"
   id="path170"
   d="m 616.6617,243.05253 c 0,0 -0.567,80.501 36.283,157.601"
   stroke-miterlimit="10" /><metadata
   id="metadata242"><rdf:RDF><cc:Work
       rdf:about=""><dc:format>image/svg+xml</dc:format><dc:type
         rdf:resource="http://purl.org/dc/dcmitype/StillImage" /></cc:Work></rdf:RDF></metadata><defs
   id="defs240">
	

		
		
		
		
		
		
		
		
		
		
		
		
		
		
		
		
		
		
		
		
		
		
		
		
		
		
		
	
			
			
			
			
			
			
			
			
			
			
			
			
			
			
			
			
			
			
			
			
			
			
			
			
			
			
			
			
			
			
			
		</defs><sodipodi:namedview
   pagecolor="#ffffff"
   bordercolor="#666666"
   borderopacity="1"
   objecttolerance="10"
   gridtolerance="10"
   guidetolerance="10"
   inkscape:pageopacity="0"
   inkscape:pageshadow="2"
   inkscape:window-width="1920"
   inkscape:window-height="1009"
   id="namedview238"
   showgrid="false"
   inkscape:zoom="0.67733673"
   inkscape:cx="557.32988"
   inkscape:cy="135.82609"
   inkscape:window-x="-8"
   inkscape:window-y="-8"
   inkscape:window-maximized="1"
   inkscape:current-layer="svg236"
   inkscape:document-rotation="0"
   inkscape:pagecheckerboard="true"
   inkscape:showpageshadow="2"
   inkscape:deskcolor="#d1d1d1" />
<g
   id="g116"
   transform="matrix(-1,0,0,1,1491.3617,-163.67947)">
				<g
   id="g102">
					<g
   id="g92">
						<g
   id="g82">
							<g
   id="g72">
								<g
   id="g68">
									<g
   id="g62">
										<g
   id="g58">
											<g
   id="g50">
												<g
   id="g46">
													<g
   id="g42">
														<g
   id="g34">
															<g
   id="g22">
																<g
   id="g18">
																	<path
   style="opacity:1;fill:none;stroke:#000000;stroke-width:3;stroke-miterlimit:10"
   inkscape:connector-curvature="0"
   id="path2"
   d="m 852.093,310.146 v -86.17 c 0,0 -2.337,-34.935 31.392,-40.321 l 202.104,-16.44 25.794,-1.701 c 0,0 7.087,-1.7 11.339,2.835 2.6648,2.84215 9.2619,7.24348 12.188,12.188 3.9594,6.6905 6.52,22.393 6.52,22.393 0,0 4.817,37.699 21.826,37.699 h 15.306 l 1.7,8.22 h -7.936 v 7.653 h 9.639 v 4.535 h 21.259 c 0,0 5.952,2.268 5.952,33.165 0,30.896 -5.668,23.81 -5.668,23.81 h -9.637 l -2.27,2.834 -2.268,20.976 c 0,0 -1.418,7.086 -7.939,6.803 -6.518,-0.283 -25.225,1.417 -34.863,22.676 v 15.307 c 0,0 0.471,4.44 3.874,9.73 3.402,5.292 75.212,116.784 75.212,116.784 0,0 4.535,7.938 -2.268,9.826 l -74.077,18.519 c 0,0 -9.6011,2.03498 -16.4011,-11.19302 l 2.0411,-8.83698 c 0,0 4.156,-1.891 -0.381,-7.938 l -23.43,-44.596 c 0,0 -11.3388,-18.93712 -11.34,-18.944 l -12.898,-24.52 h -24.518 l -3.118,-1.417 h -61.083 l -5.811,2.268 H 981.986 L 870.874,405.457 c 0,0 -3.686,-4.252 -0.854,-10.629 l 1.277,-0.992 v -42.234 c 0,0 -1.133,-13.182 -17.148,-19.417 0,0 -7.513,-4.251 -2.127,-15.306 z"
   stroke-miterlimit="10"
   sodipodi:nodetypes="cccccsscscccccccsccccccccccccccccccccccccccccc" />
																	<path
   style="opacity:1;fill:none;stroke:#000000;stroke-width:3;stroke-miterlimit:10"
   inkscape:connector-curvature="0"
   id="path4"
   d="m 1205.96,264.061 h 4.724 v -3.591 h 246.605 l 27.1522,0.28083 c 1.133,17.006 13.8971,129.7695 -3.8649,155.0905 M 1390.018,388.592 1382.8899,424.52912 1327.375,378.104 h -15.592 v 12.472 h -19.558 V 378.104 H 1272.1 l -10.77,-6.237 v -36.848 h -50.646 v -17.291 h -5.479"
   stroke-miterlimit="10"
   sodipodi:nodetypes="ccccccccccccccccccc" />
																	<path
   style="opacity:1;fill:none;stroke:#000000;stroke-width:3;stroke-miterlimit:10"
   inkscape:connector-curvature="0"
   id="path6"
   d="m 1269.549,375.552 v -17.574 c 0,0 2.268,-7.938 13.04,-7.938 h 54.138 c 0,0 7.655,-0.566 15.023,6.805 7.371,7.37 38.268,31.747 38.268,31.747 l 90.5583,27.24933 -0.8441,-94.49737"
   stroke-miterlimit="10"
   sodipodi:nodetypes="ccsccccc" />
																	<path
   style="opacity:1;fill:none;stroke:#000000;stroke-width:3;stroke-miterlimit:10"
   inkscape:connector-curvature="0"
   id="path8"
   d="m 1261.33,335.019 h 206.92 c 0,0 6.9452,1.91596 11.4822,-13.67504"
   stroke-miterlimit="10"
   sodipodi:nodetypes="ccc" />
																	<path
   style="opacity:1;fill:none;stroke:#000000;stroke-width:3;stroke-miterlimit:10"
   inkscape:connector-curvature="0"
   id="path10"
   d="m 1464.85,340.404 c 0,2.897 -2.348,5.244 -5.244,5.244 h -50.172 c -2.896,0 -5.244,-2.347 -5.244,-5.244 v 0 c 0,-2.896 2.348,-5.244 5.244,-5.244 h 50.172 c 2.896,10e-4 5.244,2.348 5.244,5.244 z"
   stroke-miterlimit="10" />
																	
																		<line
   style="opacity:1;fill:none;stroke:#000000;stroke-width:3;stroke-miterlimit:10"
   id="line12"
   y2="334.45099"
   x2="1291.942"
   y1="350.04099"
   x1="1291.942"
   stroke-miterlimit="10" />
																	
																		<line
   style="opacity:1;fill:none;stroke:#000000;stroke-width:3;stroke-miterlimit:10"
   id="line14"
   y2="334.45099"
   x2="1310.3669"
   y1="350.04099"
   x1="1310.3669"
   stroke-miterlimit="10" />
																	
																		<line
   style="opacity:1;fill:none;stroke:#000000;stroke-width:3;stroke-miterlimit:10"
   id="line16"
   y2="378.104"
   x2="1311.783"
   y1="378.104"
   x1="1292.226"
   stroke-miterlimit="10" />
																</g>
																<path
   style="opacity:1;fill:none;stroke:#000000;stroke-width:3;stroke-miterlimit:10"
   inkscape:connector-curvature="0"
   id="path20"
   d="m 883.77,191.875 h 157.885 c 0,0 11.053,-1.134 21.256,9.07 7.938,7.938 11.906,25.512 11.906,25.512 0,0 3.969,13.039 -7.938,13.605 -11.905,0.566 -180.275,0 -180.275,0 0,0 -25.794,0.566 -25.51,-25.51 0.245,-22.677 22.676,-22.677 22.676,-22.677 z"
   stroke-miterlimit="10" />
															</g>
															<path
   style="opacity:1;fill:none;stroke:#000000;stroke-width:3;stroke-miterlimit:10"
   inkscape:connector-curvature="0"
   id="path24"
   d="m 1084.645,424.685 v -37.793 c 0,0 -1.89,-12.472 13.227,-12.472 15.117,0 47.998,0 47.998,0"
   stroke-miterlimit="10" />
															
																<line
   style="opacity:1;fill:none;stroke:#000000;stroke-width:3;stroke-miterlimit:10"
   id="line26"
   y2="314.70599"
   x2="991.57599"
   y1="314.70599"
   x1="853.34399"
   stroke-miterlimit="10" />
															<path
   style="opacity:1;fill:none;stroke:#000000;stroke-width:3;stroke-miterlimit:10"
   inkscape:connector-curvature="0"
   id="path28"
   d="m 991.67,426.291 c 0,-9.165 -7.181,-10.677 -7.181,-10.677 0,0 0,-35.903 0,-41.573 0,-5.668 4.155,-7.181 10.96,-7.181 6.805,0 10.582,-8.314 10.582,-8.314 v -43.84 h 137.193 4.441 v 18.612 h 34.58 v -74.265"
   stroke-miterlimit="10" />
															<path
   style="opacity:1;fill:none;stroke:#000000;stroke-width:3;stroke-miterlimit:10"
   inkscape:connector-curvature="0"
   id="path30"
   d="m 1094.691,231.041 c -4.411,0 -7.988,-3.577 -7.988,-7.987 v -4.436 c 0,-4.412 3.577,-7.987 7.988,-7.987 h 33.557 c 4.408,0 7.984,3.575 7.984,7.987 v 4.436 c 0,4.41 -3.576,7.987 -7.984,7.987 z"
   stroke-miterlimit="10" />
															
														</g>
														<polygon
   style="opacity:1;fill:none;stroke:#000000;stroke-width:3;stroke-miterlimit:10"
   id="polygon36"
   points="843.518,240.062 843.518,327.649 819.424,322.546 819.424,244.597 "
   stroke-miterlimit="10" />
														
															<line
   style="opacity:1;fill:none;stroke:#000000;stroke-width:3;stroke-miterlimit:10"
   id="line38"
   y2="255.369"
   x2="851.73798"
   y1="255.369"
   x1="843.23602"
   stroke-miterlimit="10" />
														
															<line
   style="opacity:1;fill:none;stroke:#000000;stroke-width:3;stroke-miterlimit:10"
   id="line40"
   y2="312.91"
   x2="851.73798"
   y1="312.91"
   x1="843.23602"
   stroke-miterlimit="10" />
													</g>
													<path
   style="opacity:1;fill:none;stroke:#000000;stroke-width:3;stroke-miterlimit:10"
   inkscape:connector-curvature="0"
   id="path44"
   d="m 817.819,321.887 h -5.671 c -1.51,9.826 -8.691,10.583 -8.691,10.583 l -250.572,-9.827 c 0,0 -9.826,-7.559 -9.07,-44.596 0.756,-37.038 13.98,-41.575 13.98,-41.575 l 246.418,-1.133 c 0,0 7.559,0.756 7.936,11.338 h 5.671"
   stroke-miterlimit="10" />
												</g>
												
											</g>
											<path
   style="opacity:1;fill:none;stroke:#000000;stroke-width:3;stroke-miterlimit:10"
   inkscape:connector-curvature="0"
   id="path52"
   d="m 550.049,245.164 h -9.446 l -50.079,-68.028 c -5.291,-8.314 -11.338,-9.069 -11.338,-9.069 h -9.448 c -9.448,0 -10.96,10.204 -10.96,10.204 v 86.547 30.519 l -6.756,6.754 v 10.82 h 10.533 v 6.236 h 14.742 v -19.842 l 3.117,-3.119 c 0,0 -8.502,-12.47 -1.418,-30.045"
   stroke-miterlimit="10" />
											<path
   style="opacity:1;fill:none;stroke:#000000;stroke-width:3;stroke-miterlimit:10"
   inkscape:connector-curvature="0"
   id="path54"
   d="m 470.492,225.321 v 15.497 c 0,0 0.379,6.424 4.726,6.424 h 42.519 c 0,0 6.426,-3.023 4.346,-9.07 -2.078,-6.047 -28.912,-39.116 -28.912,-39.116 0,0 -7.936,-3.592 -11.527,0 -3.592,3.59 0,13.227 0,13.227 0,0 -0.189,6.614 -4.535,6.614 -4.346,0 -6.617,2.079 -6.617,6.424 z"
   stroke-miterlimit="10" />
											<path
   style="opacity:1;fill:none;stroke:#000000;stroke-width:3;stroke-miterlimit:10"
   inkscape:connector-curvature="0"
   id="path56"
   d="m 516.791,263.399 c 0,1.931 -1.565,3.497 -3.497,3.497 h -31.226 c -1.93,0 -3.496,-1.565 -3.496,-3.497 v 0 c 0,-1.93 1.566,-3.495 3.496,-3.495 h 31.226 c 1.932,0 3.497,1.565 3.497,3.495 z"
   stroke-miterlimit="10" />
										</g>
										<path
   style="opacity:1;fill:none;stroke:#000000;stroke-width:3;stroke-miterlimit:10"
   inkscape:connector-curvature="0"
   id="path60"
   d="m 516.033,265.762 c 0,0 -5.193,17.858 0.569,30.423 h 12.849 c 0,0 0,12.474 7.182,16.631 h 12.094"
   stroke-miterlimit="10" />
									</g>
									
										<line
   style="opacity:1;fill:none;stroke:#000000;stroke-width:3;stroke-miterlimit:10"
   id="line64"
   y2="296.11401"
   x2="478.996"
   y1="296.11401"
   x1="516.414"
   stroke-miterlimit="10" />
									<path
   style="opacity:1;fill:none;stroke:#000000;stroke-width:3;stroke-miterlimit:10"
   inkscape:connector-curvature="0"
   id="path66"
   d="m 459.014,266.848 h -54.707 c 0,0 -7.229,13.324 -0.707,29.267 h 54.516 l 5.385,4.229 h 13.229"
   stroke-miterlimit="10" />
								</g>
								<path
   style="opacity:1;fill:none;stroke:#000000;stroke-width:3;stroke-miterlimit:10"
   inkscape:connector-curvature="0"
   id="path70"
   d="m 403.882,268.408 -3.118,-7.086 h -9.824 l -2.27,1.794 -2.646,-1.794 h -5.67 l -3.588,1.794 -2.646,-1.794 h -198.7 c 0,0 -10.205,14.738 0,37.911 h 198.418 l 3.024,-1.913 3.21,1.913 h 7.087 l 2.455,-1.913 3.025,1.913 h 8.125 l 1.984,-4.747"
   stroke-miterlimit="10" />
							</g>
							
								<ellipse
   style="opacity:1;fill:none;stroke:#000000;stroke-width:3;stroke-miterlimit:10"
   id="ellipse74"
   ry="4.914"
   rx="17.575001"
   cy="288.76801"
   cx="194.032"
   stroke-miterlimit="10" />
							
								<ellipse
   style="opacity:1;fill:none;stroke:#000000;stroke-width:3;stroke-miterlimit:10"
   id="ellipse76"
   ry="4.9130001"
   rx="17.573"
   cy="270.91101"
   cx="194.45599"
   stroke-miterlimit="10" />
							<path
   style="opacity:1;fill:none;stroke:#000000;stroke-miterlimit:10"
   inkscape:connector-curvature="0"
   id="path78"
   d="m 376.104,264.438 c 0,0 -6.235,15.874 0.568,32.029"
   stroke-miterlimit="10" />
							<path
   style="opacity:1;fill:none;stroke:#000000;stroke-miterlimit:10"
   inkscape:connector-curvature="0"
   id="path80"
   d="m 388.292,264.438 c 0,0 -6.235,15.874 0.566,32.029"
   stroke-miterlimit="10" />
						</g>
						<line
   style="opacity:1;fill:none;stroke:#000000;stroke-miterlimit:10"
   id="line84"
   y2="262.927"
   x2="479.56299"
   y1="262.927"
   x1="465.74799"
   stroke-miterlimit="10" />
						<line
   style="opacity:1;fill:none;stroke:#000000;stroke-miterlimit:10"
   id="line86"
   y2="276.53201"
   x2="523.45502"
   y1="241.005"
   x1="523.45502"
   stroke-miterlimit="10" />
						<line
   style="opacity:1;fill:none;stroke:#000000;stroke-miterlimit:10"
   id="line88"
   y2="264.81601"
   x2="523.45502"
   y1="264.81601"
   x1="517.35699"
   stroke-miterlimit="10" />
						<path
   style="opacity:1;fill:none;stroke:#000000;stroke-miterlimit:10"
   inkscape:connector-curvature="0"
   id="path90"
   d="m 539.277,245.92 c 0,0 -4.643,5.992 -5.574,8.313 -3.951,9.848 -4.535,26.644 -3.116,42.33"
   stroke-miterlimit="10" />
					</g>
					<line
   style="opacity:1;fill:none;stroke:#000000;stroke-miterlimit:10"
   id="line94"
   y2="323.96399"
   x2="824.99799"
   y1="242.896"
   x1="824.99799"
   stroke-miterlimit="10" />
					<line
   style="opacity:1;fill:none;stroke:#000000;stroke-miterlimit:10"
   id="line96"
   y2="323.96399"
   x2="829.66101"
   y1="242.896"
   x1="829.66101"
   stroke-miterlimit="10" />
					<line
   style="opacity:1;fill:none;stroke:#000000;stroke-miterlimit:10"
   id="line98"
   y2="325.09799"
   x2="834.32202"
   y1="242.896"
   x1="834.32202"
   stroke-miterlimit="10" />
					<line
   style="opacity:1;fill:none;stroke:#000000;stroke-miterlimit:10"
   id="line100"
   y2="327.36499"
   x2="838.98199"
   y1="240.63"
   x1="838.98199"
   stroke-miterlimit="10" />
				</g>
				<path
   style="opacity:1;fill:none;stroke:#000000;stroke-width:3;stroke-miterlimit:10"
   inkscape:connector-curvature="0"
   id="path104"
   d="m 1000.596,317.423 c 2.834,-1.227 4.871,-4.603 4.871,-8.576 0,-5.01 -3.238,-9.071 -7.23,-9.071 -3.992,0 -7.229,4.061 -7.229,9.071 0,2.589 0.865,4.927 2.253,6.579 l 0.298,0.601 v 23.244 h 6.049 V 317.87 Z"
   stroke-miterlimit="10" />
				<polyline
   style="opacity:1;fill:none;stroke:#000000;stroke-width:3;stroke-miterlimit:10"
   id="polyline106"
   points="993.939,319.996 985.623,319.996       985.623,330.957 993.939,330.957     "
   stroke-miterlimit="10" />
				<polyline
   style="opacity:1;fill:none;stroke:#000000;stroke-width:3;stroke-miterlimit:10"
   id="polyline108"
   points="999.039,330.58 1006.031,330.58       1006.031,319.618 999.039,319.618     "
   stroke-miterlimit="10" />
				
					<line
   style="opacity:1;fill:none;stroke:#000000;stroke-width:3;stroke-miterlimit:10"
   id="line110"
   y2="285.98199"
   x2="543.81403"
   y1="285.98199"
   x1="818.19501"
   stroke-miterlimit="10" />
				<path
   style="opacity:1;fill:none;stroke:#000000;stroke-miterlimit:10"
   inkscape:connector-curvature="0"
   id="path112"
   d="m 852.59,262.171 h 40.439 c 0,0 1.889,-8.315 9.447,-8.315 7.558,0 29.48,0 29.48,0 0,0 9.448,1.89 9.448,9.827 h 209.378 l 2.029,-2.033 h 12.709 c 0,0 15.59,48.708 -20.125,52.959"
   stroke-miterlimit="10" />
				<path
   style="opacity:1;fill:none;stroke:#000000;stroke-miterlimit:10"
   inkscape:connector-curvature="0"
   id="path114"
   d="m 1150.783,263.683 c 0,0 18.99,46.107 -25.512,50.927"
   stroke-miterlimit="10" />
			</g><polyline
   style="fill:none;stroke:#000000;stroke-miterlimit:10"
   id="polyline118"
   points="1181.82,260.329 1167.223,260.329 1165.521,261.65    "
   stroke-miterlimit="10"
   transform="matrix(-1,0,0,1,1491.3617,-163.67947)" /><circle
   style="fill:none;stroke:#000000;stroke-width:3;stroke-miterlimit:10"
   id="circle120"
   r="8.7880001"
   cy="24.794529"
   cx="-377.42871"
   stroke-miterlimit="10"
   transform="scale(-1,1)" /><line
   style="fill:none;stroke:#000000;stroke-miterlimit:10"
   id="line122"
   y2="31.028522"
   x2="371.19373"
   y1="18.557529"
   x1="383.66467"
   stroke-miterlimit="10" /><polyline
   style="fill:none;stroke:#000000;stroke-miterlimit:10"
   id="polyline124"
   points="965.971,355.333 965.971,411.269 982.978,415.992    "
   stroke-miterlimit="10"
   transform="matrix(-1,0,0,1,1491.3617,-163.67947)" /><path
   style="fill:none;stroke:#000000;stroke-miterlimit:10"
   inkscape:connector-curvature="0"
   id="path126"
   d="m 620.0647,230.15553 -68.218,13.842 v -92.216 c 0,0 -0.142,-6.567 -5.858,-6.567 -5.715,0 -16.344,0 -16.344,0 0,0 -4.254,0.899 -4.254,6.567 v 30.803"
   stroke-miterlimit="10" /><polyline
   style="fill:none;stroke:#000000;stroke-miterlimit:10"
   id="polyline128"
   points="853.439,304.123 871.58,304.123 871.58,315.177    "
   stroke-miterlimit="10"
   transform="matrix(-1,0,0,1,1491.3617,-163.67947)" /><path
   style="fill:none;stroke:#000000;stroke-miterlimit:10"
   inkscape:connector-curvature="0"
   id="path130"
   d="m 619.7817,140.44353 v -4.819 h -124.436 -14.174 v 13.89 37.133 c 0,0 0.377,2.836 4.158,8.22"
   stroke-miterlimit="10" /><path
   style="fill:none;stroke:#000000;stroke-miterlimit:10"
   inkscape:connector-curvature="0"
   id="path132"
   d="m 527.3767,187.49553 c 0,5.637 4.567,10.205 10.206,10.205 5.633,0 10.203,-4.568 10.203,-10.205 0,-5.635 -4.57,-10.204 -10.203,-10.204 -5.639,0 -10.206,4.569 -10.206,10.204 z"
   stroke-miterlimit="10" /><path
   style="fill:none;stroke:#000000;stroke-miterlimit:10"
   inkscape:connector-curvature="0"
   id="path134"
   d="m 485.0467,187.49553 c 0,2.505 2.03,4.535 4.535,4.535 h 56.975 c 2.505,0 4.536,-2.03 4.536,-4.535 v 0 c 0,-2.504 -2.031,-4.536 -4.536,-4.536 h -56.975 c -2.505,0.001 -4.535,2.032 -4.535,4.536 z"
   stroke-miterlimit="10" /><circle
   style="fill:none;stroke:#000000;stroke-miterlimit:10"
   id="circle136"
   r="2.694"
   cy="187.59152"
   cx="-491.47168"
   stroke-miterlimit="10"
   transform="scale(-1,1)" /><path
   style="fill:none;stroke:#000000;stroke-miterlimit:10"
   inkscape:connector-curvature="0"
   id="path168"
   d="m 303.1647,98.11453 c 0,0 -4.914,38.172 -0.378,45.352 h 6.046"
   stroke-miterlimit="10" /><polyline
   style="fill:none;stroke:#000000;stroke-miterlimit:10"
   id="polyline170"
   points="1094.092,212 1094.092,214.268 1089.84,214.268      1087.146,216.96 1127.822,216.96 1127.822,213.417 1123.004,213.417 1123.004,210.583    "
   stroke-miterlimit="10"
   transform="matrix(-1,0,0,1,1491.3617,-163.67947)" /><polyline
   style="fill:none;stroke:#000000;stroke-miterlimit:10"
   id="polyline172"
   points="1094.092,229.952 1094.092,226.597 1089.84,226.597      1087.146,223.905 1127.822,223.905 1127.822,227.448 1123.004,227.448 1123.004,230.283    "
   stroke-miterlimit="10"
   transform="matrix(-1,0,0,1,1491.3617,-163.67947)" /><line
   style="fill:none;stroke:#000000;stroke-miterlimit:10"
   id="line174"
   y2="53.140537"
   x2="365.52368"
   y1="60.133533"
   x1="365.52368"
   stroke-miterlimit="10" /><line
   style="fill:none;stroke:#000000;stroke-miterlimit:10"
   id="line176"
   y2="53.140537"
   x2="399.9187"
   y1="60.133533"
   x1="399.9187"
   stroke-miterlimit="10" /><path
   style="fill:none;stroke:#000000;stroke-width:3;stroke-miterlimit:10"
   inkscape:connector-curvature="0"
   id="path180"
   d="m 507.5347,211.58953 h -12.755 c 0,0 -4.537,-3.119 -15.026,-3.119 -10.485,0 -40.249,0 -40.249,0 0,0 -9.92,1.513 -15.307,4.252 h -22.393"
   stroke-miterlimit="10" /><path
   style="fill:none;stroke:#000000;stroke-miterlimit:10"
   inkscape:connector-curvature="0"
   id="path182"
   d="m 483.4387,209.79453 c 0,0 20.978,5.293 20.978,21.732 0,16.44 -10.96,19.275 -11.149,21.543 -0.188,2.268 0,6.613 0,6.613"
   stroke-miterlimit="10" /><path
   style="fill:none;stroke:#000000;stroke-miterlimit:10"
   inkscape:connector-curvature="0"
   id="path184"
   d="m 424.4827,213.95253 c 0,0 -13.982,7.369 -10.395,20.22 0,0 5.102,19.087 16.629,21.354 l 1.136,3.968"
   stroke-miterlimit="10" /><line
   style="fill:none;stroke:#000000;stroke-miterlimit:10"
   id="line186"
   y2="255.52652"
   x2="430.90674"
   y1="255.52652"
   x1="492.88971"
   stroke-miterlimit="10" /><circle
   style="fill:none;stroke:#000000;stroke-miterlimit:10"
   id="circle188"
   r="2.457"
   cy="255.90353"
   cx="-421.45972"
   stroke-miterlimit="10"
   transform="scale(-1,1)" /><path
   style="fill:none;stroke:#000000;stroke-width:3;stroke-miterlimit:10"
   inkscape:connector-curvature="0"
   id="path190"
   d="m 454.1507,208.66153 c 0,0 -10.395,7.181 -8.692,19.841 1.7,12.661 8.883,20.976 8.883,20.976 l -3.782,3.403 c 0,0 -11.715,-12.661 -13.04,-21.92 -1.318,-9.259 2.271,-21.733 3.97,-22.11"
   stroke-miterlimit="10" /><path
   style="fill:none;stroke:#000000;stroke-width:3;stroke-miterlimit:10"
   inkscape:connector-curvature="0"
   id="path192"
   d="m 363.5397,182.32253 h 17.578 c 1.229,-3.188 4.311,-5.456 7.934,-5.456 4.695,0 8.502,3.807 8.502,8.503 0,4.697 -3.807,8.503 -8.502,8.503 -3.623,0 -6.705,-2.268 -7.934,-5.456 h -17.578 c -1.684,0 -3.047,-1.364 -3.047,-3.047 0,-1.683 1.363,-3.047 3.047,-3.047 z"
   stroke-miterlimit="10" /><path
   style="fill:none;stroke:#000000;stroke-width:3;stroke-miterlimit:10"
   inkscape:connector-curvature="0"
   id="path194"
   d="m 405.4907,178.14153 c 0,1.566 1.271,2.835 2.834,2.835 h 5.953 c 1.565,0 2.834,-1.269 2.834,-2.835 v 0 c 0,-1.565 -1.269,-2.834 -2.834,-2.834 h -5.953 c -1.563,0 -2.834,1.269 -2.834,2.834 z"
   stroke-miterlimit="10" /><path
   style="fill:none;stroke:#000000;stroke-width:3;stroke-miterlimit:10"
   inkscape:connector-curvature="0"
   id="path196"
   d="m 358.2957,179.27553 c 0,1.566 1.27,2.836 2.836,2.836 h 5.951 c 1.566,0 2.834,-1.27 2.834,-2.836 v 0 c 0,-1.566 -1.268,-2.834 -2.834,-2.834 h -5.951 c -1.567,0 -2.836,1.268 -2.836,2.834 z"
   stroke-miterlimit="10" /><circle
   style="fill:none;stroke:#000000;stroke-miterlimit:10"
   id="circle198"
   r="5.29"
   cy="164.25354"
   cx="-352.67371"
   stroke-miterlimit="10"
   transform="scale(-1,1)" /><path
   style="fill:none;stroke:#000000;stroke-miterlimit:10"
   inkscape:connector-curvature="0"
   id="path200"
   d="m 371.4337,262.98353 -20.879,-10.175 c 0,0 -6.533,-1.768 -9.357,2.501 -2.818,4.267 -56.175,83.929 -56.175,83.929 0,0 -3.521,7.383 3.415,11.969 6.936,4.586 27.955,9.573 27.955,9.573 0,0 9.548,4.585 15.142,-3.875 5.593,-8.458 42.304,-77.003 42.304,-77.003 0,0 6.738,-10.875 -2.405,-16.919 z"
   stroke-miterlimit="10" /><path
   style="fill:none;stroke:#000000;stroke-miterlimit:10"
   inkscape:connector-curvature="0"
   id="path214"
   d="m 680.1577,84.60253 c 0,0 2.267,48.469 -0.567,72.563"
   stroke-miterlimit="10" /><circle
   style="fill:none;stroke:#000000;stroke-miterlimit:10"
   id="circle216"
   r="5.6700001"
   cy="161.22852"
   cx="-629.70367"
   stroke-miterlimit="10"
   transform="scale(-1,1)" /><path
   style="fill:none;stroke:#000000;stroke-miterlimit:10"
   inkscape:connector-curvature="0"
   id="path220"
   d="m 680.9127,122.96353 34.076,-0.083 c 0,-0.014 0,-0.026 0.002,-0.038 l -34.078,0.121 0.094,-6.331 34.219,-0.291 c 0.43,-24.941 -4.549,-43.55 -4.549,-43.55 h 3.685 c 0,0 4.974,18.592 4.549,43.519 l 17.095,-0.145 c 0.352,-24.907 -4.921,-43.374 -4.921,-43.374 h 3.684 c 0,0 5.27,18.452 4.922,43.342 l 17.107,-0.145 c 0.133,-24.803 -5.305,-43.197 -5.305,-43.197 h 3.685 c 0,0 5.433,18.377 5.306,43.165 l 17.102,-0.145 c 0.18,-24.833 -5.684,-43.02 -5.684,-43.02 h 3.688 c 0,0 5.857,18.172 5.682,42.988 l 16.527,-0.141 c 0.27,-24.762 -5.487,-42.848 -5.487,-42.848 h 3.685 c 0,0 5.752,18.071 5.488,42.816 l 17.305,-0.146 c 0.054,-24.704 -6.067,-42.669 -6.067,-42.669 h 3.682 c 0,0 6.119,17.952 6.069,42.639 l 17.312,-0.148 c -0.193,-24.629 -6.653,-42.491 -6.653,-42.491 h 3.684 c 0,0 6.456,17.847 6.653,42.459 l 16.332,-0.138 c 0.079,-24.615 -6.261,-42.321 -6.261,-42.321 h 3.684 c 0,0 6.336,17.692 6.263,42.29 l 17.177,-0.146 c 0.014,-24.611 -6.717,-42.144 -6.717,-42.144 h 3.686 c 0,0 6.727,17.517 6.715,42.111 l 16.861,-0.142 c 0.077,-24.61 -6.852,-41.969 -6.852,-41.969 h 3.684 c 0,0 6.922,17.344 6.85,41.938 l 16.727,-0.143 c 0.043,-24.517 -6.852,-41.795 -6.852,-41.795 h 3.686 c 0,0 6.887,17.264 6.85,41.764 l 22.25,-0.189 0.756,9.069 -0.756,-0.63 v 3.75 l -22.854,0.193 c -1.02,10.445 -3.443,21.758 -8.137,33.349 h -3.686 c 4.689,-11.579 7.112,-22.88 8.133,-33.316 l -16.737,0.142 c -1.028,10.397 -3.45,21.65 -8.118,33.174 h -3.684 c 4.66,-11.514 7.084,-22.756 8.115,-33.143 l -16.808,0.144 c -1.001,10.721 -3.439,22.322 -8.222,34.132 h -3.023 -0.66 c 4.776,-11.799 7.215,-23.389 8.217,-34.101 l -17.172,0.145 c -1.02,11.111 -3.513,23.134 -8.432,35.279 h -3.686 c 4.915,-12.133 7.408,-24.144 8.429,-35.247 l -16.188,0.139 c -0.91,11.443 -3.365,23.82 -8.396,36.241 h -3.684 c 5.024,-12.41 7.479,-24.775 8.393,-36.21 l -17.412,0.148 c -1,11.487 -3.52,23.905 -8.557,36.346 h -3.686 c 5.037,-12.428 7.553,-24.835 8.553,-36.316 l -17.39,0.149 c -1.075,11.628 -3.655,24.19 -8.737,36.734 h -3.683 c 5.073,-12.533 7.655,-25.082 8.732,-36.704 l -16.485,0.14 c -1.042,11.679 -3.6,24.282 -8.688,36.848 h -3.684 c 5.082,-12.555 7.64,-25.146 8.682,-36.816 l -17.033,0.146 c -1.01,12.398 -3.615,25.783 -8.94,38.937 h -3.685 c 5.321,-13.143 7.926,-26.517 8.938,-38.906 l -17.211,0.146 c -1.098,12.253 -3.75,25.466 -9.018,38.477 h -3.685 c 5.265,-12.999 7.913,-26.203 9.015,-38.446 l -17.109,0.147 c -1.127,12.589 -3.822,26.165 -9.197,39.432 h -3.684 c 5.367,-13.256 8.064,-26.819 9.193,-39.402 l -33.572,0.287 z m 266.033,-0.661 -0.342,-0.285 -21.541,0.077 c -0.004,0.087 -0.014,0.177 -0.02,0.262 z m -25.588,0.065 c 0.006,-0.088 0.013,-0.173 0.02,-0.259 l -16.727,0.06 c -0.006,0.08 -0.013,0.161 -0.017,0.24 z m -20.41,0.049 c 0.004,-0.078 0.012,-0.157 0.018,-0.236 l -16.828,0.061 c -0.003,0.071 -0.01,0.146 -0.014,0.218 z m -20.509,0.051 c 0.003,-0.07 0.009,-0.144 0.013,-0.213 l -17.175,0.061 c -0.005,0.065 -0.011,0.13 -0.015,0.196 z m -20.86,0.053 c 0.003,-0.063 0.008,-0.129 0.012,-0.191 l -16.242,0.057 c -0.002,0.058 -0.008,0.118 -0.01,0.176 z m -19.926,0.049 c 0.004,-0.057 0.007,-0.114 0.01,-0.17 l -17.373,0.062 c -0.002,0.05 -0.002,0.103 -0.006,0.152 z m -21.057,0.052 c 0.004,-0.049 0.008,-0.098 0.01,-0.147 l -17.354,0.061 c -0.004,0.043 -0.009,0.087 -0.011,0.129 z m -21.039,0.052 c 0.002,-0.041 0.006,-0.084 0.008,-0.125 l -16.5,0.059 c -0.002,0.035 -0.004,0.072 -0.006,0.108 z m -20.183,0.051 c 0.002,-0.035 0.006,-0.07 0.008,-0.104 l -17.07,0.06 c -0.002,0.028 -0.002,0.056 -0.004,0.085 z m -20.752,0.052 c 0.002,-0.026 0.004,-0.054 0.004,-0.082 l -17.158,0.063 c -0.002,0.02 -0.004,0.041 -0.004,0.062 z m -20.844,0.051 c 0,-0.02 0.004,-0.04 0.004,-0.059 l -17.106,0.061 c 0,0.014 -10e-4,0.027 -0.002,0.041 z"
   stroke-miterlimit="10" /><path
   style="fill:none;stroke:#000000;stroke-miterlimit:10"
   inkscape:connector-curvature="0"
   id="path222"
   d="M 747.6197,80.53953"
   stroke-miterlimit="10" /><path
   style="fill:none;stroke:#000000;stroke-miterlimit:10"
   inkscape:connector-curvature="0"
   id="path224"
   d="m 1011.0417,34.71453 h 12.094 c 0,0 6.803,0.568 6.803,7.369 0,6.804 0,65.479 0,65.479 0,0 -0.283,-7.937 -4.25,-8.22 l 0.282,-11.904 c 0,0 -3.686,-5.67 -5.669,-6.236"
   stroke-miterlimit="10" /><polyline
   style="fill:none;stroke:#000000;stroke-miterlimit:10"
   id="polyline226"
   points="465.392,199.247 465.392,215.119 471.248,215.119     471.248,198.111   "
   stroke-miterlimit="10"
   transform="matrix(-1,0,0,1,1491.3617,-163.67947)" /><line
   style="fill:none;stroke:#000000;stroke-miterlimit:10"
   id="line228"
   y2="87.437538"
   x2="1025.9697"
   y1="50.682529"
   x1="1025.9697"
   stroke-miterlimit="10" /><path
   style="fill:none;stroke:#000000;stroke-width:3;stroke-miterlimit:10"
   inkscape:connector-curvature="0"
   id="path230"
   d="m 336.7987,82.61753 v -5.669 h -23.997 l -2.22,8.269 8.455,-0.049 v 7.653 l -9.639,-0.094 v 5.008 h 20.598 c 0,0 14.365,-1.89 20.03,-1.89 l 4.159,-3.402 h 15.118 v -6.048 h -13.606 l -4.535,-3.589 z"
   stroke-miterlimit="10" />
<g
   id="Layer_2_1_"
   transform="matrix(-1,0,0,1,1491.3617,-163.67947)">
</g>
<path
   style="fill:#ffffff;stroke-width:0.521976;stroke-miterlimit:10"
   d="m 400.20901,210.1447 c -2.38743,-0.87024 -4.76943,-0.95327 -27.94794,-0.97417 l -25.33806,-0.0229 -0.60234,-2.2184 c -0.92448,-3.40483 -5.43,-9.78762 -9.76988,-13.84059 -6.53566,-6.10359 -13.97369,-9.14908 -24.03371,-9.84058 -7.94307,-0.54598 -8.23439,-1.01436 -9.87045,-15.86934 -1.11358,-10.11103 -1.30613,-11.05292 -2.60869,-12.76065 l -1.40635,-1.84383 h -6.21261 -6.21261 l -0.54898,-1.95741 c -1.26478,-4.5096 -1.71541,-12.08802 -1.44791,-24.35009 0.3,-13.7517 1.13258,-20.08819 3.24749,-24.71563 l 1.25245,-2.740377 h 6.85604 6.85604 l -0.27401,1.435437 c -0.94933,4.97315 -1.62182,16.23689 -1.62832,27.27323 -0.006,10.92798 0.12148,13.07317 0.87929,14.74582 0.85469,1.8865 0.98234,1.95741 3.52333,1.95741 h 2.63652 v 13.57137 13.57137 h 19.05211 19.05212 v -9.39556 -9.39557 h 67.33488 67.33488 v 17.41264 17.41263 l 1.55932,3.07492 c 0.85762,1.6912 1.56229,3.43998 1.56592,3.88618 0.0111,1.36205 2.84572,5.3815 5.24119,7.43193 2.51102,2.14934 4.80894,2.97054 8.3368,2.97928 4.53537,0.0112 7.82964,1.70725 7.82964,4.03097 0,1.15997 -9.09782,0.87866 -12.42003,-0.38405 -4.34259,-1.65053 -10.86676,-2.06258 -32.73088,-2.06721 -19.60766,-0.004 -20.55882,0.0417 -25.83781,1.24526 -3.01441,0.68727 -6.72261,1.74215 -8.24044,2.34417 -2.49199,0.98839 -3.73252,1.0878 -12.78841,1.0248 -8.27784,-0.0576 -10.48436,-0.23586 -12.63859,-1.02111 z m -6.76409,-15.54953 c 6.02623,-2.73734 7.81241,-10.65904 3.54652,-15.72877 -4.01238,-4.76843 -12.37037,-4.7905 -15.88115,-0.0419 -1.15711,1.56506 -1.31858,1.61452 -5.27131,1.61452 -4.03396,0 -4.07765,-0.0144 -4.07765,-1.34509 0,-0.79071 -0.62885,-1.97394 -1.52578,-2.87087 -1.46337,-1.46337 -1.72051,-1.52577 -6.28743,-1.52577 -4.35962,0 -4.86983,0.10817 -6.04287,1.28121 -1.59677,1.59676 -1.70104,4.30798 -0.23727,6.16888 0.57418,0.72994 1.04396,1.92078 1.04396,2.64629 0,2.3794 0.97389,4.02096 2.85078,4.80518 1.32619,0.55411 4.03568,0.75771 10.08368,0.75771 h 8.27022 l 1.10316,1.49211 c 2.51267,3.39856 8.21482,4.65899 12.42514,2.74651 z m 24.01302,-13.34947 c 0.88458,-0.88457 1.28122,-1.86148 1.28122,-3.15558 0,-1.2941 -0.39664,-2.27101 -1.28122,-3.15558 -1.17965,-1.17966 -1.67248,-1.28121 -6.21731,-1.28121 -4.87111,0 -4.95389,0.0211 -6.28743,1.60597 -1.54287,1.8336 -1.67774,3.03444 -0.57936,5.15847 1.00757,1.94844 1.24638,2.01948 6.95088,2.06793 4.4836,0.0381 4.94929,-0.0561 6.13322,-1.24 z m -60.40048,-13.0083 c 0.81015,-0.81015 1.33971,-2.07042 1.5119,-3.59808 0.23954,-2.12524 0.0932,-2.53862 -1.52232,-4.30151 -1.47417,-1.6086 -2.16038,-1.9601 -3.91645,-2.00615 -3.83833,-0.10064 -6.4241,2.28468 -6.4241,5.9261 0,5.46886 6.40082,7.92978 10.35097,3.97964 z"
   id="path1185" /><path
   style="fill:#ffffff;stroke-width:0.521976;stroke-miterlimit:10"
   d="M 310.69016,133.72217 V 99.532758 h 6.78569 c 3.73212,0 6.78497,0.176167 6.7841,0.391482 -8.7e-4,0.21532 -0.50207,2.85782 -1.11379,5.87223 -1.50924,7.43716 -1.66337,20.59258 -0.29967,25.57681 2.67024,9.75958 7.66987,15.65327 15.76356,18.58248 l 3.13767,1.13557 0.14343,8.41013 0.14342,8.41013 h -15.6722 -15.67221 z"
   id="path1187" /><path
   style="fill:#ffffff;stroke-width:0.521976;stroke-miterlimit:10"
   d="m 302.71711,141.42132 c -0.86602,-1.94373 -0.83598,-24.94378 0.0435,-33.27596 0.98772,-9.358143 0.914,-9.134577 3.01229,-9.134577 h 1.78545 v 21.922987 21.92298 h -2.10083 c -1.78878,0 -2.19581,-0.21321 -2.74037,-1.43543 z"
   id="path1189" /><path
   style="fill:#ffffff;stroke-width:0.521976;stroke-miterlimit:10"
   d="m 336.92813,147.51577 c -5.94925,-2.88537 -10.42246,-8.62598 -12.37521,-15.8815 -1.18094,-4.38782 -1.57637,-13.1592 -0.85643,-18.99713 0.80161,-6.50011 2.17927,-12.649687 2.8753,-12.83463 0.30833,-0.08193 3.02694,-0.398499 6.04136,-0.703489 7.18346,-0.726803 7.38152,-0.567806 5.8741,4.715709 -2.00638,7.03235 -2.44288,10.03706 -2.44903,16.85805 -0.005,5.06828 0.23348,7.57833 0.94058,9.91754 2.31761,7.66703 6.97503,13.427 13.49385,16.68823 l 3.68177,1.84191 -6.98631,-0.0133 c -6.69573,-0.0128 -7.12165,-0.079 -10.23998,-1.59135 z"
   id="path1191" /><path
   style="fill:#ffffff;stroke-width:0.521976;stroke-miterlimit:10"
   d="m 355.78252,147.88009 c -16.76442,-6.2319 -22.24521,-21.35566 -15.77111,-43.51906 l 1.10542,-3.78432 h 104.7744 104.77438 l 0.35022,-2.190144 c 0.44967,-2.812055 3.40454,-5.720031 7.03888,-6.927166 2.26248,-0.751474 4.70511,-0.849135 17.65067,-0.705707 13.118,0.145338 15.23668,0.282322 16.69425,1.079373 1.85012,1.011715 3.97066,3.546107 4.80653,5.744598 l 0.54487,1.433119 h 19.848 19.848 v 20.357057 20.35706 h -8.35162 -8.35161 v -2.32786 -2.32786 l -64.8555,-0.15153 c -35.67052,-0.0833 -67.26311,-0.0772 -70.20574,0.0136 l -5.35026,0.16517 v 7.012 7.01201 l -60.67969,-0.0272 -60.67969,-0.0272 z"
   id="path1193" /><path
   style="fill:#ffffff;stroke-width:0.521976;stroke-miterlimit:10"
   d="m 311.21214,95.044028 c 0,-0.716886 0.66406,-0.809113 4.69804,-0.652469 l 4.69805,0.182429 -2.7e-4,-5.61124 -2.6e-4,-5.61124 h -3.66377 -3.66378 l 0.31945,-1.435434 c 0.79061,-3.552612 -0.20759,-3.262348 11.21908,-3.262348 h 10.40434 v 2.870867 2.870867 h 7.4952 7.49519 l 2.29185,1.821849 2.29186,1.821849 6.3942,0.0051 6.39421,0.0051 v 1.30494 1.304939 h -7.08933 -7.08932 l -2.22951,1.826916 c -1.79321,1.469405 -2.67864,1.827936 -4.52464,1.83213 -1.26232,0.0029 -5.34869,0.350619 -9.08081,0.772781 -3.73213,0.422162 -11.18986,0.772149 -16.57274,0.777749 -8.62644,0.009 -9.78704,-0.08882 -9.78704,-0.824717 z"
   id="path1195" /><path
   style="fill:#ffffff;stroke-width:0.521976;stroke-miterlimit:10"
   d="m 340.96476,98.539997 c 0.43063,-0.241471 2.87774,-0.602125 5.43803,-0.801442 4.09738,-0.31899 4.87766,-0.545887 6.51313,-1.893979 L 354.77399,94.313 h 8.23268 8.23269 v -4.95877 -4.95877 h -7.59926 -7.59926 l -1.9268,-1.543097 c -1.84582,-1.478246 -2.21648,-1.558254 -8.81922,-1.903724 l -6.89243,-0.360622 -0.15425,-2.924558 c -0.14258,-2.70337 -0.003,-3.120277 1.85191,-5.512482 5.39094,-6.954274 8.5321,-16.03693 12.09559,-34.974355 1.66782,-8.863247 3.82258,-15.767059 6.10909,-19.573408 1.82301,-3.034769 11.33496,-11.9358171 14.39135,-13.4670854 1.60572,-0.8044688 2.86502,-0.7857291 19.31311,0.2873978 9.67746,0.6313893 40.49708,3.0198082 68.48803,5.3075976 27.99096,2.287789 72.7254,5.935525 99.40988,8.106079 28.77563,2.340653 49.7664,4.270155 51.58721,4.741973 13.16762,3.412074 22.07267,13.069418 24.96251,27.071351 0.86208,4.176984 0.97729,7.284604 0.98335,26.523813 l 0.007,21.792491 h -19.31311 c -15.53071,0 -19.31311,-0.133328 -19.31311,-0.680771 0,-1.54306 -3.1587,-5.575417 -5.17202,-6.60254 -1.98111,-1.010687 -2.99693,-1.068302 -18.83483,-1.068302 -13.18451,0 -17.11308,0.155554 -18.49329,0.732243 -2.74833,1.148326 -5.96258,4.356917 -6.64443,6.632742 l -0.60838,2.03058 -104.44303,-0.01587 C 387.1813,98.986213 340.53427,98.781472 340.9649,98.540001 Z M 612.1782,77.079556 c 2.27084,-0.578709 5.40882,-1.694433 6.97328,-2.479385 9.14158,-4.586706 14.12489,-15.454514 12.56189,-27.395489 -1.07903,-8.24358 -5.28503,-14.386648 -12.15249,-17.749315 -6.38519,-3.126521 -1.99451,-2.983086 -91.57259,-2.991508 -57.21321,-0.0054 -82.89242,0.164547 -84.82107,0.561285 -4.20938,0.865901 -10.75448,4.249042 -14.20942,7.344806 -5.75897,5.160261 -10.62441,14.571278 -13.70709,26.513056 -2.17977,8.444071 -0.86722,13.415411 4.20997,15.94548 l 2.61531,1.303264 h 92.98669 c 91.51606,0 93.05201,-0.01665 97.11552,-1.052194 z M 401.93426,67.561155 c 3.25805,-2.157081 4.27748,-4.600789 4.27748,-10.253662 0,-6.617046 -1.09795,-8.897019 -5.32946,-11.067066 -1.79801,-0.922075 -3.28417,-0.993154 -20.76531,-0.993154 -15.76327,0 -19.14152,0.130712 -20.75023,0.802871 -4.38776,1.833327 -5.87456,4.642552 -5.87456,11.099681 0,6.14839 1.18868,8.576783 5.23229,10.689193 l 2.80699,1.466387 19.11693,-0.154119 19.11692,-0.154113 z M 383.33793,33.469314 c 5.93184,-4.178174 6.06782,-12.532529 0.27894,-17.13794 -2.74373,-2.182804 -7.54646,-2.543686 -11.08101,-0.832639 -6.21565,3.008945 -7.43568,12.232049 -2.25703,17.062521 3.43943,3.208189 9.22263,3.61032 13.0591,0.908058 z"
   id="path1197" /><path
   style="fill:#ffffff;stroke-width:0.184546;stroke-miterlimit:10"
   d="m 368.92877,64.523849 v -1.291825 h -2.3991 -2.39911 v -1.199551 -1.199551 h 19.32255 19.32254 l -0.72082,0.738185 -0.72082,0.738186 h -2.36164 -2.36165 v 1.75319 1.75319 h -13.84098 -13.84097 z"
   id="path1199" /><path
   style="fill:#ffffff;stroke-width:0.184546;stroke-miterlimit:10"
   d="m 366.16057,56.772903 v -2.952741 h 16.60917 16.60917 v 2.952741 2.952741 h -16.60917 -16.60917 z"
   id="path1201" /><path
   style="fill:#ffffff;stroke-width:0.184546;stroke-miterlimit:10"
   d="m 364.13056,51.513333 v -1.199551 h 2.39911 2.3991 V 49.39105 48.468319 h 13.84097 13.84098 v 1.384097 1.384097 h 2.36165 2.36164 l 0.72082,0.738186 0.72082,0.738185 h -19.32254 -19.32255 z"
   id="path1203" /><path
   style="fill:#ffffff;stroke-width:0.521976;stroke-miterlimit:10"
   d="m 374.26347,31.050077 c -1.14089,-0.663168 -1.05223,-0.796084 3.66363,-5.492342 2.65806,-2.647 4.99515,-4.812727 5.19355,-4.812727 0.1984,0 0.63319,0.909438 0.96622,2.020973 1.25872,4.201241 -1.69628,8.412625 -6.15043,8.765405 -1.46634,0.116138 -2.98824,-0.08329 -3.67297,-0.481309 z"
   id="path1205" /><path
   style="fill:#ffffff;stroke-width:0.521976;stroke-miterlimit:10"
   d="m 371.09116,27.792399 c -2.16065,-4.742106 2.22582,-10.761754 7.21236,-9.897688 3.66153,0.63447 3.51183,1.187575 -1.73579,6.413379 l -4.85929,4.839088 z"
   id="path1207" /><path
   style="fill:#ffffff;stroke-width:0.521976;stroke-miterlimit:10"
   d="m 501.86473,147.09646 c 0.41015,-3.05786 -0.26915,-6.51746 -1.69116,-8.6129 l -1.26218,-1.85992 h 60.01149 60.01149 v 6.26371 6.26371 l -33.27596,-0.0201 -33.27596,-0.0201 -1.04497,-1.66141 c -1.73332,-2.75582 -2.71899,-2.98001 -13.13882,-2.98847 -9.40568,-0.008 -9.49937,0.004 -11.06409,1.32017 -0.86794,0.73033 -1.7239,1.78733 -1.90213,2.34889 -0.3089,0.97324 -0.86976,1.02103 -11.98368,1.02103 h -11.65961 z"
   id="path1209" /><path
   style="fill:#ffffff;stroke-width:0.521976;stroke-miterlimit:10"
   d="m 552.64344,197.9558 v -45.15091 l 42.41054,0.004 42.41053,0.004 0.91346,2.78178 c 2.0689,6.30048 0.8339,9.76278 -4.41913,12.38898 -6.58042,3.28982 -10.51888,7.15422 -13.82191,13.56199 l -1.46355,2.83923 -0.26098,22.67911 -0.26099,22.67912 -32.62349,6.65791 c -17.94292,3.66185 -32.68221,6.66876 -32.75398,6.68202 -0.0718,0.0133 -0.1305,-20.29379 -0.1305,-45.12679 z m 80.73485,-31.42524 c 1.43788,-0.94214 2.78128,-3.55472 2.78128,-5.4089 0,-1.94664 -1.56407,-4.49755 -3.34605,-5.45721 -2.08553,-1.12313 -5.58709,-0.82208 -7.20602,0.61954 -2.36111,2.10253 -2.99398,6.31077 -1.28586,8.5503 1.97789,2.59321 6.41842,3.4249 9.05665,1.69627 z"
   id="path1211" /><path
   style="fill:#ffffff;stroke-width:0.521976;stroke-miterlimit:10"
   d="m 549.15738,183.09987 c -0.91252,-0.49259 -2.29268,-1.64856 -3.06702,-2.5688 -3.35423,-3.98628 -9.58092,-5.06577 -14.0644,-2.43828 -1.29646,0.75978 -2.7348,1.95771 -3.19632,2.66208 -0.46152,0.70437 -1.28189,1.28067 -1.82305,1.28067 -0.94048,0 -0.98391,-0.64523 -0.98391,-14.61533 v -14.61532 h 12.52741 12.52742 v 15.65928 c 0,8.6126 -0.0587,15.63049 -0.13049,15.5953 -0.0718,-0.0352 -0.87711,-0.467 -1.78964,-0.9596 z"
   id="path1213" /><path
   style="fill:#ffffff;stroke-width:0.521976;stroke-miterlimit:10"
   d="m 527.06022,148.11907 c 0.986,-1.84235 2.35582,-2.09986 11.17001,-2.09986 8.85643,0 10.57288,0.31161 11.70539,2.12504 0.6142,0.98349 0.35017,1.00681 -11.39947,1.00681 -11.82,0 -12.01867,-0.0179 -11.47593,-1.03199 z"
   id="path1217" /><path
   style="fill:#ffffff;stroke-width:0.521976;stroke-miterlimit:10"
   d="m 620.5003,145.23624 v -3.91482 h 8.6126 8.6126 v 3.91482 3.91482 h -8.6126 -8.6126 z"
   id="path1219" /><path
   style="fill:#ffffff;stroke-width:0.521976;stroke-miterlimit:10"
   d="m 627.66874,165.3922 c -3.20633,-1.60242 -3.73919,-5.10252 -1.16822,-7.67349 1.82962,-1.82962 4.58339,-1.71817 6.56735,0.26579 1.92435,1.92434 2.00347,4.09013 0.22656,6.20187 -1.61003,1.9134 -3.42953,2.30341 -5.62569,1.20583 z"
   id="path1221" /><path
   style="fill:#ffffff;stroke-width:0.521976;stroke-miterlimit:10"
   d="m 486.87449,175.57172 v -7.10755 h 1.56593 1.56592 v 4.43679 4.43679 h 4.69779 4.69778 v -4.1758 -4.17581 h 4.19053 4.19054 l -0.14522,-7.17717 -0.14523,-7.17716 -4.04531,-0.15245 c -3.12626,-0.11782 -4.04531,-0.32535 -4.04531,-0.91346 0,-0.64556 1.90056,-0.76101 12.52742,-0.76101 h 12.52742 v 14.61532 14.61533 l -17.61669,0.007 c -9.68917,0.004 -18.14518,0.14876 -18.79113,0.32187 l -1.17444,0.31474 z"
   id="path1223" /><path
   style="fill:#ffffff;stroke-width:0.521976;stroke-miterlimit:10"
   d="m 508.79747,230.39599 c 0,-12.13362 -0.21553,-21.71512 -0.51169,-22.74779 -0.64073,-2.23409 -2.8186,-4.54833 -4.92466,-5.23303 -0.88567,-0.28794 -3.53136,-0.73519 -5.8793,-0.9939 -4.89096,-0.5389 -6.6076,-1.49398 -9.04019,-5.02963 -2.10657,-3.0618 -2.08782,-4.15122 0.064,-3.72085 0.89715,0.17943 9.35316,0.32624 18.79113,0.32624 h 17.15996 v 27.03358 27.03359 l -3.26235,0.88018 c -1.79429,0.4841 -5.31763,1.45056 -7.82964,2.1477 l -4.56729,1.26751 z"
   id="path1225" /><path
   style="fill:#ffffff;stroke-width:0.521976;stroke-miterlimit:10"
   d="m 488.04893,190.89286 c -1.02041,-0.41016 -1.17444,-0.8525 -1.17444,-3.37268 0,-2.63332 0.12338,-2.94751 1.33892,-3.40966 0.7792,-0.29625 9.12559,-0.50896 19.96557,-0.50883 l 18.62666,2.3e-4 0.0214,3.91459 0.0214,3.91459 -18.81257,-0.0331 c -10.34691,-0.0182 -19.34106,-0.24552 -19.98701,-0.50516 z m 5.70064,-0.8476 c 1.37137,-1.24107 1.25697,-4.08488 -0.20554,-5.10926 -0.63805,-0.44691 -1.6859,-0.81256 -2.32856,-0.81256 -1.48456,0 -3.29703,1.91925 -3.29703,3.49127 0,2.72372 3.77053,4.29537 5.83113,2.43055 z"
   id="path1227" /><path
   style="fill:#ffffff;stroke-width:0.521976;stroke-miterlimit:10"
   d="m 535.67923,196.66741 c -2.05253,-0.46826 -3.44045,-1.23709 -4.65403,-2.57808 l -0.98852,-1.0923 h 7.46946 7.46946 l -0.99312,1.09739 c -1.94377,2.14784 -5.43063,3.22834 -8.30325,2.57299 z"
   id="path1229" /><path
   style="fill:#ffffff;stroke-width:0.521976;stroke-miterlimit:10"
   d="m 528.61963,190.09218 c -0.64705,-1.70188 -0.64705,-3.44992 0,-5.1518 l 0.50906,-1.33892 h 8.56464 c 8.44061,0 8.5692,0.017 8.87938,1.17445 0.40285,1.50321 0.40285,3.97754 0,5.48075 -0.31018,1.15743 -0.43877,1.17444 -8.87938,1.17444 h -8.56464 z"
   id="path1231" /><path
   style="fill:#ffffff;stroke-width:0.521976;stroke-miterlimit:10"
   d="m 531.61347,180.47993 c 1.93782,-1.76325 5.21128,-2.79893 7.30855,-2.31232 1.89363,0.43936 5.89178,2.72485 5.89178,3.36795 0,0.29598 -3.03495,0.49373 -7.43815,0.48468 l -7.43816,-0.0153 z"
   id="path1233" /><path
   style="fill:#ffffff;stroke-width:0.260988;stroke-miterlimit:10"
   d="m 547.93249,190.80899 c 0.34432,-0.81284 0.47056,-4.86879 0.18386,-5.90716 -0.30749,-1.11363 -0.14389,-1.19786 0.83341,-0.42912 1.33591,1.05083 1.877,3.12696 1.17182,4.49616 -0.39074,0.75867 -1.28567,1.72932 -1.89913,2.05982 -0.42584,0.22943 -0.467,0.19824 -0.28996,-0.2197 z"
   id="path1235" /><path
   style="fill:#ffffff;stroke-width:0.260988;stroke-miterlimit:10"
   d="m 499.52254,161.74372 v -3.91482 h 2.34889 2.34889 v 3.91482 3.91482 h -2.34889 -2.34889 z"
   id="path1237" /><path
   style="fill:#ffffff;stroke-width:0.260988;stroke-miterlimit:10"
   d="m 493.25437,163.50539 -0.004,-10.50476 -1.43307,-0.6204 c -1.61945,-0.70108 -2.79259,-1.89689 -3.58967,-3.65904 -0.76407,-1.68918 -0.76966,-5.3994 -0.0107,-7.0755 1.0674,-2.35714 3.01159,-3.90139 4.91182,-3.90139 1.19804,0 2.81624,0.8544 3.74527,1.97748 0.95932,1.1597 1.86597,3.80741 1.86597,5.44921 0,1.22215 -0.90251,4.44907 -1.31575,4.70446 -0.1417,0.0876 -0.49085,0.61636 -0.77588,1.17508 -0.49268,0.96572 -0.51825,1.55721 -0.51825,11.98773 v 10.97189 h -1.43543 -1.43543 l -0.004,-10.50476 z"
   id="path1239" /><path
   style="fill:#ffffff;stroke-width:0.260988;stroke-miterlimit:10"
   d="m 486.99512,161.48273 v -3.91481 h 1.56592 1.56593 v 3.91481 3.91482 h -1.56593 -1.56592 z"
   id="path1241" /><path
   style="fill:#ffffff;stroke-width:0.260988;stroke-miterlimit:10"
   d="m 490.10689,188.90654 c -0.96495,-0.96495 -0.96495,-1.68507 0,-2.65003 0.8277,-0.8277 1.30912,-0.92864 2.19039,-0.45927 1.63162,0.86901 1.63162,2.69956 0,3.56857 -0.88127,0.46937 -1.36269,0.36843 -2.19039,-0.45927 z"
   id="path1243" /><path
   style="fill:#ffffff;stroke-width:0.260988;stroke-miterlimit:10"
   d="m 482.58268,188.77411 -0.80732,-1.93926 V 169.722 152.60914 h 0.91346 0.91345 v 19.05212 c 0,10.47867 -0.0478,19.05212 -0.10614,19.05212 -0.0584,0 -0.46943,-0.87267 -0.91345,-1.93927 z"
   id="path1245" /><path
   style="fill:#ffffff;stroke-width:0.260988;stroke-miterlimit:10"
   d="m 481.77536,142.8221 v -6.65519 h 3.13486 3.13485 l -1.14979,1.41163 c -1.80705,2.21857 -2.3515,3.90512 -2.36676,7.33146 -0.007,1.57898 0.0846,3.25256 0.20369,3.71908 l 0.21648,0.84821 h -1.58667 -1.58666 z"
   id="path1247" /><path
   style="fill:#ffffff;stroke-width:0.521976;stroke-miterlimit:10"
   d="m 502.02225,259.25368 c 0.969,-3.86078 3.08487,-5.17996 12.53931,-7.81781 3.45054,-0.96273 7.50687,-2.10698 9.01408,-2.54279 l 2.74037,-0.79239 v -27.65013 c 0,-24.03811 0.10071,-27.65014 0.77093,-27.65014 0.42401,0 1.162,0.59685 1.63998,1.32633 0.47797,0.72949 1.95144,1.9618 3.27438,2.73849 4.41203,2.59027 11.53353,1.42995 13.9609,-2.27469 0.47869,-0.73056 1.77401,-1.78931 2.8785,-2.35278 l 2.00817,-1.02449 v 26.92753 c 0,25.3954 0.052,26.91289 0.91346,26.67 0.5024,-0.14165 15.70203,-3.23748 33.77694,-6.87961 22.41861,-4.51741 33.11046,-6.46629 33.64057,-6.1319 1.6694,1.05303 1.92943,5.6258 0.43271,7.60965 -0.97436,1.29148 -107.75845,21.24833 -113.69447,21.24833 h -4.24811 z"
   id="path1249" /><path
   style="fill:#ffffff;stroke-width:0.369093;stroke-miterlimit:10"
   d="m 432.3249,258.55296 c -0.0854,-0.15225 -0.26448,-0.73358 -0.39791,-1.29183 l -0.24261,-1.015 h 30.45717 30.45718 v 1.29182 1.29183 h -30.05927 c -16.5326,0 -30.12915,-0.12457 -30.21456,-0.27682 z"
   id="path1265" /><path
   style="fill:#ffffff;stroke-width:0.369093;stroke-miterlimit:10"
   d="m 495.94929,259.60297 c -1.96616,-0.79738 -2.38971,-1.70006 -2.07996,-4.43286 0.22044,-1.94478 0.32374,-2.09424 3.82637,-5.53638 2.75064,-2.70314 3.87395,-4.11101 4.76195,-5.96822 1.11275,-2.32727 2.1,-5.54312 2.4265,-7.90402 0.0842,-0.60901 0.17801,2.48038 0.20843,6.86531 l 0.0553,7.9726 -1.79615,1.11655 c -2.14503,1.33342 -3.86362,3.70298 -4.73271,6.52538 -0.3497,1.13565 -0.7262,2.05554 -0.83668,2.04419 -0.11047,-0.0113 -0.93535,-0.31849 -1.83305,-0.68255 z"
   id="path1267" /><path
   style="fill:#ffffff;stroke-width:0.369093;stroke-miterlimit:10"
   d="m 504.65673,227.67983 c -0.68535,-5.00021 -5.22437,-10.7608 -11.31981,-14.3663 -0.91351,-0.54034 -1.40201,-0.98402 -1.08555,-0.98594 0.31645,-0.002 0.89777,0.24037 1.29182,0.53841 0.55291,0.4182 1.9592,0.54458 6.16057,0.55364 l 5.44412,0.0117 v 7.93549 c 0,4.36452 -0.0605,7.93549 -0.13438,7.93549 -0.0739,0 -0.23445,-0.73013 -0.35677,-1.62253 z"
   id="path1269" /><path
   style="fill:#ffffff;stroke-width:0.369093;stroke-miterlimit:10"
   d="m 448.2164,247.31296 c -4.70651,-6.07396 -7.38982,-10.71614 -8.59951,-14.8773 -1.32514,-4.55835 -0.047,-16.81244 2.20848,-21.17412 l 0.59572,-1.15199 h 3.6934 3.69341 l -1.46704,1.94308 c -2.78396,3.68732 -4.80775,9.31538 -4.82504,13.41819 -0.0249,5.90509 3.08094,15.44268 7.00064,21.49797 0.83633,1.292 1.47041,2.37707 1.40907,2.41127 -0.0614,0.0342 -0.38709,0.27213 -0.72388,0.52872 -0.53448,0.40721 -0.91407,0.0771 -2.98525,-2.59582 z"
   id="path1271" /><path
   style="fill:#ffffff;stroke-width:0.369093;stroke-miterlimit:10"
   d="m 408.43356,239.72923 c -0.0127,-21.32265 0.0272,-20.72247 -1.63201,-24.54466 -0.2619,-0.60334 0.22137,-0.64591 7.33222,-0.64591 h 7.6126 l -2.89429,2.86047 c -2.19871,2.17301 -3.2426,3.56581 -4.34356,5.79536 -1.41783,2.87124 -1.44869,3.01932 -1.42317,6.82821 0.023,3.4369 0.16762,4.28274 1.23343,7.21516 3.36393,9.25539 9.221,16.86454 14.10845,18.32885 1.50845,0.45195 1.88967,0.88068 2.29556,2.5817 0.38234,1.60233 -0.88665,1.78864 -12.18221,1.78864 h -10.09497 z m 15.321,18.31569 c 1.07598,-1.02503 1.00136,-3.50317 -0.13316,-4.42185 -1.1846,-0.95923 -3.27762,-0.90938 -4.35604,0.10374 -1.6179,1.51994 -0.8574,4.42829 1.3603,5.20221 0.85571,0.29862 2.32244,-0.11582 3.1289,-0.8841 z"
   id="path1273" /><path
   style="fill:#ffffff;stroke-width:0.369093;stroke-miterlimit:10"
   d="m 420.53339,257.32384 c -0.92294,-0.53756 -0.84792,-2.42 0.11702,-2.93642 0.59348,-0.31762 0.9624,-0.27763 1.66092,0.18007 1.06724,0.69928 1.15502,1.70071 0.22301,2.54416 -0.77496,0.70133 -1.10166,0.73598 -2.00095,0.21219 z"
   id="path1275" /><path
   style="fill:#ffffff;stroke-width:0.521976;stroke-miterlimit:10"
   d="m 349.6154,167.30817 c -2.43653,-2.43653 -1.20443,-6.54575 2.2204,-7.40533 2.76039,-0.69281 5.87774,2.42454 5.18493,5.18493 -0.85958,3.42483 -4.9688,4.65693 -7.40533,2.2204 z"
   id="path1281" /><path
   style="fill:#ffffff;stroke-width:0.521976;stroke-miterlimit:10"
   d="m 385.93025,191.11464 c -0.98826,-0.53 -2.15904,-1.69911 -2.60174,-2.59802 l -0.80491,-1.63438 -9.22238,-0.0119 c -5.0723,-0.007 -9.59392,-0.15443 -10.04803,-0.32869 -0.45411,-0.17425 -0.82565,-0.76148 -0.82565,-1.30494 0,-0.93464 0.53385,-0.9881 9.86598,-0.9881 h 9.86598 l 1.05524,-1.7885 c 2.859,-4.84565 8.68632,-4.91627 11.59826,-0.14055 0.5594,0.91743 1.01796,2.21978 1.01904,2.89411 0.003,2.00278 -1.5566,4.68696 -3.37758,5.8124 -2.11804,1.30901 -4.19591,1.33721 -6.52421,0.0885 z"
   id="path1283" /><path
   style="fill:#ffffff;stroke-width:0.184546;stroke-miterlimit:10"
   d="m 360.60769,180.34033 c -0.81752,-0.46358 -0.89329,-1.40356 -0.15966,-1.98064 0.4492,-0.35334 0.72857,-0.38248 3.66604,-0.38248 2.93746,0 3.21684,0.0291 3.66604,0.38248 0.65337,0.51395 0.65337,1.30473 0,1.81868 -0.44964,0.35368 -0.72411,0.38206 -3.64479,0.37687 -2.00452,-0.004 -3.29339,-0.0821 -3.52763,-0.21491 z"
   id="path1285" /><path
   style="fill:#ffffff;stroke-width:0.184546;stroke-miterlimit:10"
   d="m 407.82646,179.2438 c -0.8687,-0.43401 -0.92124,-1.73225 -0.0881,-2.1781 0.21771,-0.11652 1.66806,-0.19577 3.5826,-0.19577 2.97491,0 3.25337,0.0288 3.70306,0.38249 0.57611,0.45317 0.62512,1.06585 0.13384,1.67321 -0.34411,0.42542 -0.42992,0.43661 -3.64479,0.47539 -2.04513,0.0247 -3.44171,-0.0349 -3.68656,-0.15722 z"
   id="path1287" /><path
   style="fill:#ffffff;stroke-width:0.521976;stroke-miterlimit:10"
   d="M 641.03026,120.47311 V 93.591359 h 2.60987 2.60988 v 26.881751 26.88176 h -2.60988 -2.60987 z"
   id="path1289" /><path
   style="fill:#ffffff;stroke-width:0.369093;stroke-miterlimit:10"
   d="m 649.37986,120.04326 c 0,-37.916127 0.0536,-41.7264 0.58383,-41.522923 0.3211,0.12322 0.81938,0.224035 1.10728,0.224035 0.44875,0 0.52345,5.893353 0.52345,41.298888 0,37.3187 -0.0563,41.32048 -0.58383,41.52292 -1.72074,0.66031 -1.63073,2.95217 -1.63073,-41.52292 z"
   id="path1291" /><path
   style="fill:#ffffff;stroke-width:0.369093;stroke-miterlimit:10"
   d="M 653.07079,120.08275 V 79.080016 l 1.3841,0.249747 c 0.76125,0.137361 1.50866,0.320781 1.66091,0.4076 0.36195,0.206396 0.36195,80.484377 0,80.690767 -0.15225,0.0868 -0.89966,0.27024 -1.66091,0.4076 l -1.3841,0.24975 z"
   id="path1293" /><path
   style="fill:#ffffff;stroke-width:0.369093;stroke-miterlimit:10"
   d="M 657.86899,119.93707 V 79.929389 l 1.3841,0.321418 c 0.76125,0.17678 1.50867,0.32538 1.66092,0.330223 0.15225,0.0048 0.27682,17.759855 0.27682,39.45558 v 39.44678 l -1.15342,0.23068 c -0.63438,0.12688 -1.38179,0.23068 -1.66091,0.23068 -0.42749,0 -0.50751,-6.30783 -0.50751,-40.00768 z"
   id="path1295" /><path
   style="fill:#ffffff;stroke-width:0.369093;stroke-miterlimit:10"
   d="m 662.2981,120.10762 c 0,-32.97101 0.0801,-39.148692 0.50751,-39.148692 0.27912,0 1.02654,0.103808 1.66091,0.230683 l 1.15342,0.230683 v 38.517016 38.51701 l -1.01501,0.22588 c -0.55825,0.12424 -1.30566,0.30469 -1.66091,0.401 -0.6122,0.16597 -0.64592,-1.86846 -0.64592,-38.97358 z"
   id="path1297" /><path
   style="fill:#ffffff;stroke-width:0.369093;stroke-miterlimit:10"
   d="M 667.09631,119.90789 V 81.68305 l 1.015,0.225883 c 0.55826,0.124236 1.30567,0.304685 1.66092,0.400997 0.60976,0.165311 0.64591,2.269611 0.64591,37.59136 0,20.57894 -0.12457,37.48728 -0.27682,37.5741 -0.15225,0.0868 -0.89966,0.27024 -1.66091,0.4076 l -1.3841,0.24975 z"
   id="path1299" /><path
   style="fill:#ffffff;stroke-width:0.369093;stroke-miterlimit:10"
   d="M 673.73998,102.55085 V 84.649855 h 2.89742 2.89742 l 0.23609,8.027765 c 0.12985,4.41527 0.34571,12.47072 0.47969,17.90099 l 0.24361,9.87323 h -3.37712 -3.37711 z"
   id="path1301" /><path
   style="fill:#ffffff;stroke-width:0.369093;stroke-miterlimit:10"
   d="m 673.73998,140.38284 v -16.24007 h 3.37732 3.37732 l -0.2566,9.50413 c -0.25714,9.52436 -0.77473,18.99917 -1.17953,21.59192 l -0.2161,1.3841 h -2.55121 -2.5512 z"
   id="path1303" /><path
   style="fill:#ffffff;stroke-width:0.369093;stroke-miterlimit:10"
   d="m 685.47765,165.90325 c -3.58266,-2.3137 -5.33419,-7.47341 -4.7165,-13.89399 0.1953,-2.03001 0.46568,-7.96779 0.60085,-13.19506 l 0.24577,-9.50414 h 16.1471 c 15.1801,0 16.13955,0.0387 16.02116,0.64592 -0.0693,0.35525 -0.3131,2.22378 -0.54184,4.15229 -0.61393,5.17585 -2.08102,12.82711 -3.5032,18.27008 -1.25336,4.79685 -4.08407,13.43862 -4.55376,13.90201 -0.13691,0.13507 -4.23513,0.35747 -9.10715,0.49422 l -8.85822,0.24863 z"
   id="path1305" /><path
   style="fill:#ffffff;stroke-width:0.369093;stroke-miterlimit:10"
   d="m 707.06946,165.72387 c 1.27404,-3.3201 4.11865,-12.98168 5.01595,-17.03644 1.21938,-5.51021 2.45125,-12.86072 2.81446,-16.79372 0.12186,-1.3195 0.30432,-2.7977 0.40548,-3.28488 l 0.18393,-0.88578 -16.77545,0.26802 c -9.2265,0.14741 -16.86039,0.1306 -16.96419,-0.0374 -0.10381,-0.16797 -0.0998,-1.09414 0.009,-2.05816 l 0.19756,-1.75277 h 131.90262 131.90262 v 0.92273 0.92273 H 934.9162 924.07096 l -0.2594,2.49138 c -0.88216,8.47241 -3.47579,19.4503 -6.54013,27.68194 -0.64005,1.71934 -0.84063,1.93774 -1.77966,1.93774 h -1.05831 l 1.24812,-3.59865 c 2.75413,-7.94081 4.75537,-16.92349 5.92958,-26.61523 l 0.23968,-1.97829 -8.99071,0.26852 c -4.94489,0.14768 -9.04186,0.31396 -9.10436,0.36951 -0.0625,0.0555 -0.34896,1.8937 -0.63657,4.08478 -0.61254,4.66662 -1.76503,10.64804 -2.80368,14.55112 -0.86948,3.26734 -3.90566,12.55568 -4.29524,13.14005 -0.14899,0.2235 -0.73729,0.49297 -1.30732,0.59883 -0.84588,0.15708 -0.99372,0.0824 -0.80414,-0.40636 3.27079,-8.43211 6.01316,-20.07327 7.29263,-30.9567 l 0.14102,-1.19955 h -9.16339 -9.16339 l -0.002,1.01501 c -0.01,4.82854 -3.26907,19.93709 -6.00626,27.83997 -1.52624,4.4066 -1.61037,4.55136 -2.70748,4.65919 l -1.1323,0.11127 1.6044,-4.68493 c 2.69549,-7.87144 4.95161,-18.13222 5.85601,-26.63368 l 0.2454,-2.30683 -3.45035,10e-4 c -1.89769,6.8e-4 -6.06362,0.10962 -9.25762,0.24209 l -5.80728,0.24086 -0.17014,1.14201 c -0.0936,0.6281 -0.51307,3.55034 -0.93221,6.49385 -1.03627,7.27751 -2.30295,12.69224 -4.68408,20.02328 -1.99771,6.15055 -2.01363,6.1823 -3.09948,6.1823 -0.6003,0 -1.09145,-0.0513 -1.09145,-0.1139 0,-0.0626 0.5104,-1.51244 1.13422,-3.22175 2.37913,-6.51898 5.00792,-18.11709 5.99928,-26.46858 l 0.49289,-4.15229 h -8.76939 -8.76939 l -0.23049,2.12228 c -1.18217,10.8851 -3.3516,20.94598 -6.34711,29.43514 -0.93213,2.64162 -1.14886,2.96504 -2.05692,3.06953 -0.55825,0.0642 -1.015,-0.0292 -1.015,-0.20758 0,-0.17841 0.50567,-1.80884 1.12372,-3.62317 2.48577,-7.2972 4.57224,-16.64365 5.5153,-24.70618 0.21371,-1.827 0.47434,-3.97036 0.57918,-4.76301 l 0.19063,-1.44117 -9.2727,0.212 c -5.09999,0.1166 -9.35867,0.29797 -9.46373,0.40304 -0.10507,0.10507 -0.34161,1.5717 -0.52565,3.25918 -0.94816,8.69391 -3.40444,19.69759 -6.12265,27.42826 -1.36003,3.86798 -1.47986,4.06521 -2.5334,4.16967 l -1.10584,0.10964 1.91624,-5.83058 c 2.78912,-8.48652 4.86534,-18.38461 5.53924,-26.40749 l 0.24027,-2.86047 h -9.27335 -9.27335 l -0.17057,0.83046 c -0.0938,0.45675 -0.3596,2.49137 -0.59062,4.52138 -0.88017,7.73391 -3.3318,18.38669 -5.98849,26.02103 -0.81239,2.33451 -1.49775,4.26669 -1.52302,4.29372 -0.0253,0.0271 -0.57165,0.16171 -1.21418,0.29927 l -1.16822,0.25011 1.47681,-4.17474 c 2.8903,-8.1705 5.74113,-21.06498 6.42043,-29.03998 l 0.2631,-3.08877 -8.70286,0.14449 c -4.78657,0.0795 -8.78307,0.22472 -8.88112,0.32277 -0.0981,0.098 -0.4502,2.33648 -0.78256,4.97429 -1.19856,9.51254 -3.57221,19.58634 -6.56555,27.86431 -1.18691,3.28233 -1.33801,3.51346 -2.3648,3.61721 l -1.09686,0.11084 2.11965,-6.38541 c 2.96485,-8.9316 4.58612,-16.5975 6.01453,-28.4387 l 0.21149,-1.75319 h -9.19764 -9.19764 l -0.19944,1.56865 c -0.10969,0.86275 -0.38365,3.14651 -0.60879,5.07502 -1.00584,8.61564 -3.66434,20.23649 -6.28877,27.48945 -1.05772,2.92314 -1.21073,3.14524 -2.16689,3.14524 h -1.0288 l 1.577,-4.89048 c 2.84879,-8.83445 5.22992,-20.19778 5.8973,-28.14331 0.13641,-1.62401 0.32909,-3.2434 0.42818,-3.59866 0.16773,-0.60132 -0.3917,-0.64591 -8.10315,-0.64591 -4.55583,0 -8.78145,0.0996 -9.39027,0.22139 l -1.10696,0.22139 -0.43998,3.9309 c -1.20356,10.75291 -3.83744,21.92524 -7.47448,31.70513 -0.64075,1.72293 -0.8386,1.93773 -1.78485,1.93773 h -1.06422 l 0.93086,-2.47306 c 1.54392,-4.1018 3.7849,-12.14018 4.96051,-17.79325 0.88894,-4.27459 2.56468,-15.39933 2.56468,-17.02616 0,-0.21775 -3.55832,-0.35498 -9.2047,-0.35498 h -9.2047 l -0.19554,1.56865 c -0.10755,0.86275 -0.38329,3.06347 -0.61275,4.89048 -1.1429,9.09968 -3.07005,17.62678 -5.9434,26.29785 -1.85265,5.59086 -1.8726,5.62866 -2.97069,5.62866 -0.77334,0 -1.04839,-0.14887 -0.91539,-0.49546 z"
   id="path1307" /><path
   style="fill:#ffffff;stroke-width:0.369093;stroke-miterlimit:10"
   d="m 681.482,108.60796 c -0.005,-4.14342 -0.16544,-11.436637 -0.35673,-16.20716 -0.21126,-5.268287 -0.21552,-9.602321 -0.0109,-11.038975 0.67368,-4.72886 3.25214,-7.708376 6.98086,-8.066658 1.02193,-0.0982 6.41267,-0.05654 11.97943,0.09255 l 10.12138,0.27109 0.77337,3.631955 c 1.82954,8.592042 3.07971,19.914439 3.57361,32.365118 l 0.23792,5.99776 -6.40271,7.3e-4 c -3.5215,3.7e-4 -11.01176,0.11015 -16.64504,0.2439 l -10.24232,0.24317 z"
   id="path1309" /><path
   style="fill:#ffffff;stroke-width:0.369093;stroke-miterlimit:10"
   d="m 681.56197,118.8832 0.1135,-1.56865 17.12363,-0.096 17.12364,-0.096 -0.21265,-9.13133 c -0.27025,-11.604591 -1.36573,-21.172108 -3.80306,-33.214614 -0.2307,-1.139838 -0.18789,-1.199551 0.8599,-1.199551 1.09791,0 1.10607,0.01589 1.88475,3.672823 1.89675,8.907657 3.12953,20.279888 3.59068,33.123462 l 0.2411,6.71524 9.09341,-0.2144 c 5.00137,-0.11792 9.15318,-0.26528 9.22625,-0.32746 0.27414,-0.23327 -0.71381,-18.24633 -1.25345,-22.854116 -0.79413,-6.780727 -1.86412,-13.004975 -3.31523,-19.28509 -0.16599,-0.718384 -0.0434,-0.830459 0.90819,-0.830459 1.28827,0 1.29287,0.01276 2.77768,7.709035 1.79678,9.313352 3.14906,22.99906 3.14906,31.86985 v 3.60495 h 9.22732 9.22732 l -0.002,-2.86046 c -0.007,-10.93653 -2.47444,-31.171174 -4.77435,-39.145756 -0.34965,-1.21237 -0.34354,-1.220632 0.8197,-1.107278 1.15833,0.112876 1.1817,0.155026 2.00702,3.620586 2.19677,9.224274 3.69442,21.159518 4.04778,32.258068 l 0.23383,7.34432 5.20072,-0.23793 c 2.86039,-0.13087 7.01195,-0.23855 9.2257,-0.23929 l 4.02511,-0.001 -0.22869,-7.28958 c -0.33869,-10.795586 -1.72302,-21.293136 -4.1411,-31.402418 -0.50159,-2.097009 -0.91198,-3.882495 -0.91198,-3.967746 0,-0.08525 0.48318,-0.155001 1.07374,-0.155001 1.07039,0 1.07727,0.01469 2.2033,4.705932 2.49418,10.391171 3.70292,19.542246 3.9977,30.265593 l 0.21561,7.84322 h 8.98852 8.98852 l -0.001,-3.96774 c -0.004,-10.58649 -2.09175,-27.229006 -4.58653,-36.561488 l -0.52369,-1.95905 1.16238,0.113586 c 1.16061,0.113413 1.16393,0.119978 2.17465,4.315298 2.26036,9.382318 3.57681,19.71007 3.88229,30.457124 l 0.2193,7.71508 6.86432,-0.23991 c 3.77537,-0.13195 8.00936,-0.24037 9.40887,-0.24095 l 2.54452,-0.001 -0.25613,-5.81321 c -0.49394,-11.210244 -1.95776,-21.969648 -4.27132,-31.395224 -0.61341,-2.499054 -1.11529,-4.616723 -1.11529,-4.705931 0,-0.08921 0.48266,-0.162197 1.07258,-0.162197 h 1.07259 l 1.31664,5.444116 c 2.52247,10.430052 3.77557,19.524802 4.17007,30.265596 l 0.23385,6.36685 h 9.35447 9.35447 l -0.003,-0.83046 c -0.0111,-2.79498 -0.82393,-13.72751 -1.31036,-17.624173 -0.87562,-7.014449 -3.52472,-19.673507 -4.82734,-23.06807 -0.16046,-0.418167 0.0646,-0.553859 0.91861,-0.553859 1.07723,0 1.16644,0.118722 1.87197,2.491375 2.84424,9.564952 4.87082,22.277724 5.41311,33.956527 l 0.26136,5.62866 3.54392,-0.001 c 1.94915,-7.4e-4 5.91072,-0.10962 8.80348,-0.24196 l 5.25957,-0.2406 -0.004,-2.80306 c -0.0133,-10.25201 -2.2715,-26.325717 -5.10232,-36.318191 l -0.71149,-2.51148 1.14474,0.112378 c 1.09415,0.107411 1.18155,0.24288 1.97742,3.065118 2.77989,9.857701 4.89667,24.787285 4.90609,34.602435 l 0.004,3.96775 h 9.22732 9.22731 v -4.61029 c 0,-8.77662 -1.6639,-20.821719 -4.23233,-30.638061 -0.69049,-2.639012 -1.36719,-5.088865 -1.50378,-5.444116 -0.20327,-0.52867 -0.043,-0.645912 0.88279,-0.645912 1.08059,0 1.16536,0.114901 1.89683,2.571066 3.03315,10.184739 4.77168,21.014547 5.37906,33.507743 l 0.25571,5.25957 5.3968,-0.002 c 2.96824,-0.001 7.04116,-0.11079 9.05094,-0.24386 l 3.65413,-0.24195 -0.22925,-6.12299 C 901.2972,97.71223 898.96522,83.836942 896.14469,75.861841 l -0.56282,-1.591406 1.19101,0.115036 c 1.17703,0.113686 1.2053,0.162668 2.40948,4.175055 2.66974,8.895748 4.43253,20.054667 4.76651,30.173324 l 0.21624,6.55139 h 9.04381 9.0438 l -0.23232,-6.92048 c -0.34201,-10.187948 -2.04322,-21.057584 -4.69032,-29.968059 -0.60264,-2.028551 -1.09571,-3.776579 -1.09571,-3.884507 0,-0.107928 0.47676,-0.196233 1.05945,-0.196233 1.02937,0 1.09217,0.112653 2.21184,3.967746 2.74548,9.452897 4.22568,18.418279 4.91097,29.745243 l 0.4456,7.36532 10.44978,-0.20245 10.44978,-0.20245 v 2.73159 2.73158 H 813.60487 681.44848 Z"
   id="path1311" /><path
   style="fill:#ffffff;stroke-width:0.369093;stroke-miterlimit:10"
   d="m 719.39861,107.25678 c -0.28355,-10.882668 -1.45412,-20.886247 -3.80066,-32.480154 l -0.24278,-1.199551 h 7.58767 c 6.9055,0 7.60531,0.05807 7.78396,0.645912 1.9823,6.522713 4.08793,22.61307 4.51831,34.527033 l 0.24939,6.90362 h -7.93855 -7.93855 z"
   id="path1313" /><path
   style="fill:#ffffff;stroke-width:0.369093;stroke-miterlimit:10"
   d="m 710.76104,165.72218 c 0.86738,-2.26037 3.67678,-11.49452 4.45275,-14.63565 1.23335,-4.99264 2.64774,-12.78444 3.22298,-17.75524 l 0.45297,-3.91426 4.42683,-0.23803 c 2.43476,-0.13092 5.9888,-0.23803 7.89788,-0.23803 h 3.47104 l -0.20341,1.56865 c -1.73145,13.3521 -4.0678,23.63825 -7.27932,32.04837 -1.31227,3.43648 -0.50443,3.15747 -10.04629,3.46981 -5.59214,0.18305 -6.56511,0.13656 -6.39543,-0.30562 z"
   id="path1315" /><path
   style="fill:#ffffff;stroke-width:0.369093;stroke-miterlimit:10"
   d="m 732.45707,162.44745 c 2.73987,-7.42098 5.67652,-19.93699 6.60596,-28.15463 0.2296,-2.03001 0.49421,-4.06464 0.58802,-4.52139 0.17036,-0.82941 0.18036,-0.83046 7.91449,-0.83046 h 7.74391 l -9.5e-4,1.56865 c -10e-4,1.7114 -1.45873,11.35667 -2.38463,15.77871 -0.83239,3.9754 -3.04364,11.8453 -4.31716,15.36485 l -1.09267,3.01974 -4.31461,0.22038 c -2.37303,0.12121 -6.01474,0.30816 -8.09269,0.41543 l -3.77809,0.19505 z"
   id="path1317" /><path
   style="fill:#ffffff;stroke-width:0.369093;stroke-miterlimit:10"
   d="m 740.41812,112.23953 c -0.13037,-1.67476 -0.23804,-4.30555 -0.23926,-5.8462 -0.006,-7.276442 -2.41484,-25.248678 -4.28858,-31.993422 l -0.23282,-0.838083 7.69376,0.0999 7.69376,0.0999 0.8369,3.50638 c 2.10555,8.82166 3.66763,20.915515 4.04029,31.280595 l 0.24218,6.73594 h -7.7546 -7.75459 z"
   id="path1319" /><path
   style="fill:#ffffff;stroke-width:0.369093;stroke-miterlimit:10"
   d="m 760.90843,106.88769 c -0.24632,-4.61828 -0.77556,-10.929926 -1.17609,-14.025893 -0.68877,-5.324077 -2.53296,-15.470291 -3.28718,-18.085171 l -0.34599,-1.199551 h 7.69164 7.69165 l 1.12956,4.705932 c 2.43514,10.145237 3.6841,19.433372 3.99533,29.711953 l 0.22072,7.28958 h -7.73589 -7.73589 z"
   id="path1321" /><path
   style="fill:#ffffff;stroke-width:0.369093;stroke-miterlimit:10"
   d="m 752.88739,164.18932 c 0.64868,-1.47625 3.26839,-10.00818 4.0357,-13.14353 1.26358,-5.1632 2.65226,-12.9048 3.2104,-17.89738 l 0.45805,-4.09715 5.53768,-0.23969 c 3.04572,-0.13183 6.58042,-0.23969 7.85489,-0.23969 h 2.31721 l -0.16015,1.19955 c -1.38132,10.34604 -2.09438,14.19605 -3.85454,20.81151 -1.09857,4.12892 -3.93895,12.64513 -4.37765,13.12535 -0.39089,0.42788 -15.20671,0.90232 -15.02159,0.48103 z"
   id="path1323" /><path
   style="fill:#ffffff;stroke-width:0.369093;stroke-miterlimit:10"
   d="m 773.39499,163.52195 c 0,-0.0626 0.89838,-2.84458 1.99639,-6.1823 1.09802,-3.33772 2.50424,-8.34166 3.12493,-11.11988 1.16698,-5.22344 2.62412,-14.34478 2.62763,-16.44834 l 0.002,-1.19955 h 7.5664 7.56639 l -0.004,1.015 c -0.006,1.57301 -1.32967,9.75954 -2.3721,14.67144 -0.98387,4.63595 -3.21503,12.33793 -4.75799,16.42462 l -0.9058,2.3991 -4.00786,0.22986 c -4.52616,0.25959 -10.83608,0.3819 -10.83608,0.21005 z"
   id="path1325" /><path
   style="fill:#ffffff;stroke-width:0.369093;stroke-miterlimit:10"
   d="m 781.76498,108.36406 c -0.36951,-10.289091 -1.80322,-20.911127 -4.14238,-30.689999 -0.50501,-2.111179 -0.87388,-3.880699 -0.81971,-3.932266 0.0542,-0.05157 3.49853,0.01484 7.65414,0.14758 l 7.55566,0.241339 1.01362,4.201712 c 2.17666,9.022813 3.54921,19.519549 3.87868,29.662534 l 0.2248,6.92049 h -7.56476 -7.56476 z"
   id="path1327" /><path
   style="fill:#ffffff;stroke-width:0.369093;stroke-miterlimit:10"
   d="m 802.18272,111.68589 c -0.005,-9.89454 -2.43413,-28.523566 -4.76543,-36.540171 l -0.34884,-1.199551 h 7.69049 7.69048 l 1.31665,5.444116 c 2.47309,10.225862 3.75916,19.34188 4.16568,29.527416 l 0.23938,5.99775 h -7.99346 -7.99345 l -0.002,-3.22956 z"
   id="path1329" /><path
   style="fill:#ffffff;stroke-width:0.369093;stroke-miterlimit:10"
   d="m 793.69509,162.73627 c 0,-0.11868 0.66691,-2.14989 1.48202,-4.5138 2.55628,-7.41352 5.15892,-19.1855 6.08616,-27.52831 l 0.23588,-2.12228 h 3.42187 c 1.88203,0 5.4677,-0.11 7.96816,-0.24445 l 4.54628,-0.24445 -0.23358,2.73582 c -0.62187,7.28357 -3.3437,19.42925 -6.10056,27.22262 -0.81456,2.30268 -1.53475,4.23271 -1.60041,4.28895 -0.24791,0.21235 -15.80582,0.61188 -15.80582,0.4059 z"
   id="path1331" /><path
   style="fill:#ffffff;stroke-width:0.369093;stroke-miterlimit:10"
   d="m 815.92557,159.10645 c 2.78632,-7.82973 5.24205,-18.47916 6.21136,-26.93592 l 0.45478,-3.96774 h 7.99454 7.99453 l -0.31277,3.04501 c -0.8161,7.94515 -3.26494,18.95793 -5.88812,26.47975 l -1.2219,3.50374 -1.84546,0.2403 c -1.01501,0.13217 -4.68549,0.33744 -8.15662,0.45617 l -6.31115,0.21586 z"
   id="path1333" /><path
   style="fill:#ffffff;stroke-width:0.369093;stroke-miterlimit:10"
   d="m 823.06358,109.69926 c -0.53774,-11.051944 -2.00655,-21.69541 -4.26218,-30.884964 -0.61341,-2.499054 -1.11529,-4.616723 -1.11529,-4.705931 0,-0.08921 3.39784,-0.162197 7.55077,-0.162197 h 7.55077 l 0.74083,2.491375 c 2.79314,9.393106 4.7835,21.676379 5.41253,33.402887 l 0.25244,4.70593 h -6.27304 c -3.45018,0 -7.02135,0.10257 -7.93593,0.22792 l -1.66289,0.22793 z"
   id="path1335" /><path
   style="fill:#ffffff;stroke-width:0.369093;stroke-miterlimit:10"
   d="m 836.50983,161.07493 c 0,-0.13943 0.50568,-1.73798 1.12373,-3.55231 2.60208,-7.63865 5.05952,-18.97998 5.7332,-26.45937 l 0.25765,-2.86046 4.83957,-0.003 c 2.66176,-0.001 5.96069,-0.1085 7.33094,-0.23792 l 2.49138,-0.23529 -0.004,1.25292 c -0.006,1.89867 -1.34873,10.20773 -2.43086,15.04181 -0.529,2.36316 -1.86048,7.06284 -2.95882,10.44374 l -1.997,6.14708 -3.77883,0.2104 c -7.73001,0.43041 -10.60705,0.49877 -10.60705,0.25203 z"
   id="path1337" /><path
   style="fill:#ffffff;stroke-width:0.369093;stroke-miterlimit:10"
   d="m 844.11911,111.87044 c -0.11255,-1.47176 -0.30265,-4.33684 -0.42243,-6.36685 -0.27609,-4.67902 -1.07548,-11.030458 -2.04396,-16.240077 -0.73447,-3.950787 -2.97514,-13.365949 -3.4934,-14.67905 -0.24255,-0.61454 0.20115,-0.64757 7.43718,-0.553639 l 7.69512,0.09989 1.16939,4.306369 c 2.40896,8.87122 4.0194,19.75023 4.43014,29.926977 l 0.24952,6.1823 h -7.40845 -7.40846 z"
   id="path1339" /><path
   style="fill:#ffffff;stroke-width:0.369093;stroke-miterlimit:10"
   d="m 864.03995,109.0901 c -0.51477,-10.859055 -1.84334,-20.17815 -4.2403,-29.743041 l -1.37512,-5.487342 1.86862,0.224563 c 1.02774,0.123511 4.47451,0.226008 7.65949,0.227772 l 5.79088,0.0032 0.9843,3.227029 c 1.38245,4.532344 2.95516,11.925012 3.82841,17.995798 0.70394,4.893811 1.7561,18.166851 1.46009,18.419181 -0.076,0.0648 -3.64377,0.21832 -7.92848,0.34127 l -7.79039,0.22354 z"
   id="path1341" /><path
   style="fill:#ffffff;stroke-width:0.369093;stroke-miterlimit:10"
   d="m 856.28684,159.94475 c 2.61002,-6.45618 5.78682,-19.63633 6.82785,-28.32786 l 0.45313,-3.7832 h 7.87838 c 4.33311,0 7.87748,0.12457 7.87638,0.27682 -0.0117,1.61953 -1.78841,11.76733 -2.79065,15.93897 -1.49173,6.20911 -4.51203,15.52343 -5.1034,15.73841 -0.22469,0.0817 -3.77386,0.27496 -7.88702,0.42951 -6.57425,0.24702 -7.45143,0.21405 -7.25467,-0.27265 z"
   id="path1343" /><path
   style="fill:#ffffff;stroke-width:0.369093;stroke-miterlimit:10"
   d="m 877.2068,159.1143 c 2.48644,-6.52702 5.37139,-17.8932 6.34699,-25.00603 0.34805,-2.53751 0.70466,-4.98737 0.79248,-5.44412 0.15827,-0.82318 0.21578,-0.83046 6.56562,-0.83046 3.52328,0 6.92499,-0.1038 7.55937,-0.23068 1.11921,-0.22384 1.15341,-0.19167 1.15341,1.08466 0,1.90237 -1.66076,11.26344 -2.76241,15.57065 -0.51922,2.03001 -1.78534,6.19851 -2.8136,9.26334 l -1.86957,5.57241 -5.56321,0.2408 c -8.21487,0.35556 -9.61604,0.32272 -9.40908,-0.22057 z"
   id="path1345" /><path
   style="fill:#ffffff;stroke-width:0.369093;stroke-miterlimit:10"
   d="m 884.86097,110.30516 c 0,-4.92993 -0.90401,-13.718101 -2.06956,-20.118916 -0.80127,-4.400314 -2.97664,-13.430651 -3.66948,-15.232689 -0.23621,-0.614365 0.21012,-0.647543 7.44775,-0.553639 l 7.69902,0.09989 1.22034,4.060019 c 2.5994,8.648131 4.38949,19.731557 4.75407,29.435135 l 0.23227,6.18231 h -7.8072 -7.80721 z"
   id="path1347" /><path
   style="fill:#ffffff;stroke-width:0.369093;stroke-miterlimit:10"
   d="m 905.39816,108.45755 c -0.25312,-5.8704 -0.89469,-11.728742 -1.94033,-17.717667 -0.66601,-3.814607 -2.78707,-12.540294 -3.61122,-14.855979 l -0.55828,-1.568643 h 7.68674 7.68674 l 1.15239,3.967746 c 2.63626,9.07683 4.16898,18.137347 4.87393,28.811713 0.23208,3.51414 0.36288,6.44107 0.29067,6.50428 -0.0722,0.0632 -3.55137,0.23169 -7.73146,0.37438 l -7.60016,0.25944 z"
   id="path1349" /><path
   style="fill:#ffffff;stroke-width:0.369093;stroke-miterlimit:10"
   d="m 899.07321,154.18707 c 2.609,-7.73275 4.72909,-17.05055 5.55532,-24.41564 l 0.25879,-2.30683 h 7.72 7.71999 l -0.19334,1.19955 c -0.10634,0.65976 -0.37513,2.52829 -0.59732,4.15229 -0.74089,5.41528 -2.61054,13.22236 -4.66261,19.46964 l -2.03073,6.1823 -3.01066,0.002 c -1.65587,8.1e-4 -5.1156,0.10885 -7.6883,0.24007 l -4.67764,0.23856 z"
   id="path1351" /><path
   style="fill:#ffffff;stroke-width:0.369093;stroke-miterlimit:10"
   d="m 919.59097,153.80604 c 2.41287,-7.09188 5.02291,-18.79632 5.58595,-25.04961 l 0.0997,-1.10728 10.15005,-0.23321 c 5.58253,-0.12827 10.18225,-0.2068 10.2216,-0.17451 0.0393,0.0323 -0.0876,1.79814 -0.28214,3.92413 -1.02391,11.19007 -3.61767,20.67049 -6.82553,24.94787 l -0.86353,1.15143 -5.64658,0.23718 c -3.10563,0.13045 -7.51033,0.33782 -9.78823,0.46081 l -4.14164,0.22362 z"
   id="path1353" /><path
   style="fill:#ffffff;stroke-width:0.369093;stroke-miterlimit:10"
   d="m 925.71772,107.81042 c -0.3605,-9.575485 -2.17025,-20.908215 -4.69725,-29.414419 -0.60263,-2.028551 -1.0957,-3.776579 -1.0957,-3.884507 0,-0.107928 3.02403,-0.196233 6.72006,-0.196233 h 6.72007 l 2.25604,2.312192 c 2.79628,2.865878 4.55063,5.958204 6.23245,10.985665 2.14153,6.401651 3.3226,13.142942 3.77049,21.521032 l 0.24988,4.67402 h -9.96512 -9.96512 z"
   id="path1355" /><path
   style="fill:#ffffff;stroke-width:0.521976;stroke-miterlimit:10"
   d="m 946.53112,146.83133 c 0.009,-0.21532 0.49318,-2.97526 1.0759,-6.13322 1.36824,-7.41492 1.94936,-28.12209 1.03504,-36.88154 -0.71313,-6.83192 -2.32238,-14.708935 -3.7395,-18.304183 l -0.98249,-2.492602 h 3.88083 3.88083 l 2.31996,3.262349 c 2.9291,4.118922 3.74599,6.106393 5.07236,12.340953 1.33484,6.274363 1.88698,22.272133 1.11886,32.418473 -0.57332,7.57325 -1.58652,11.20812 -4.00978,14.38517 -1.35863,1.78127 -1.40416,1.79608 -5.51917,1.79608 -2.28209,0 -4.14186,-0.17617 -4.13284,-0.39148 z"
   id="path1357" /><path
   style="fill:#ffffff;stroke-width:0.521976;stroke-miterlimit:10"
   d="m 1014.5091,133.52095 -1.0884,-1.17445 1.6267,-4.69778 c 1.4686,-4.24128 1.6269,-5.30646 1.6291,-10.96149 0,-4.89812 -0.249,-7.14693 -1.1512,-10.31485 -1.8495,-6.494394 -2.1315,-6.12872 4.7185,-6.1194 3.2297,0.004 6.1567,0.1888 6.5045,0.40978 0.9366,0.59525 2.2386,4.01075 2.2386,5.87267 0,1.06894 0.2236,1.55168 0.6525,1.40875 0.5113,-0.17041 0.6807,-7.60423 0.7831,-34.363414 0.1267,-33.095715 0.099,-34.19736 -0.8904,-35.817042 -1.7809,-2.914746 -3.6103,-3.513481 -11.7677,-3.851381 -5.1752,-0.214371 -7.9931,-0.573066 -9.6565,-1.229199 -2.0301,-0.800731 -2.7927,-0.846288 -5.6178,-0.335613 -1.7979,0.324985 -3.79441,0.834379 -4.43678,1.131986 -1.30905,0.606481 -8.49776,9.498954 -19.42922,24.034062 -8.11032,10.783962 -10.64083,14.701735 -11.14965,17.26211 -0.54938,2.764488 -0.12762,38.518691 0.45438,38.518691 0.29967,0 0.50887,-2.36044 0.50887,-5.74173 v -5.74174 h 2.36181 c 2.86333,0 3.06581,0.38529 4.24384,8.07574 0.93336,6.09319 0.68191,13.73584 -0.58868,17.89256 l -0.83766,2.74037 -5.852,-4e-4 -5.85201,-4.1e-4 -0.0317,-12.91849 c -0.0447,-18.212742 -1.36848,-24.806931 -6.44526,-32.105557 -1.50827,-2.168355 -2.42475,-3.967998 -2.18067,-4.28207 0.23156,-0.297965 11.28874,-15.339774 24.57152,-33.426236 13.28278,-18.086462 24.76161,-33.706589 25.50851,-34.711392 1.9034,-2.560813 4.1826,-4.6039202 6.4481,-5.7801757 1.586,-0.8234553 3.0319,-1.00551 7.986,-1.00551 6.5545,0 7.8139,0.3627726 10.2837,2.9621585 3.1514,3.3168842 3.0216,0.5535612 3.0216,64.3078562 v 58.265166 l -1.799,1.43544 c -1.7251,1.37643 -2.0432,1.43543 -7.7387,1.43543 -5.4891,0 -6.0222,-0.0891 -7.028,-1.17444 z"
   id="path1359" /><path
   style="fill:#ffffff;stroke-width:0.521976;stroke-miterlimit:10"
   d="M 968.4377,91.072408 V 81.89983 l 1.94584,1.603929 1.94585,1.603929 h 23.0386 c 22.60291,0 23.06491,-0.0207 24.43001,-1.094502 1.6069,-1.263988 2.0148,-1.058262 4.225,2.131011 1.3981,2.01749 1.4182,2.157402 1.0504,7.295899 l -0.3749,5.238964 h -5.1283 c -4.6473,0 -5.159,-0.09664 -5.4553,-1.030336 -0.1799,-0.566685 -0.932,-1.506241 -1.6715,-2.087903 -1.2891,-1.014001 -2.0603,-1.057568 -18.72022,-1.057568 h -17.37575 l -1.53868,1.294718 c -0.84628,0.712095 -1.68054,2.003985 -1.85392,2.870867 -0.28805,1.440272 -0.49634,1.576152 -2.41618,1.576152 h -2.10095 z"
   id="path1361" /><path
   style="fill:#ffffff;stroke-width:0.521976;stroke-miterlimit:10"
   d="m 1014.5091,133.52095 -1.0884,-1.17445 1.6143,-4.69778 c 1.4472,-4.21137 1.6162,-5.34634 1.6316,-10.96149 0.014,-4.93715 -0.2276,-7.12169 -1.1389,-10.31485 -1.8532,-6.493527 -2.1343,-6.12872 4.7161,-6.1194 3.2297,0.004 6.1567,0.1888 6.5045,0.40978 0.8613,0.5474 2.2386,3.95415 2.2386,5.53738 0,2.47453 0.9041,1.82801 1.2292,-0.87905 0.1802,-1.49997 0.3288,-16.938003 0.3302,-34.306749 0,-30.404664 -0.035,-31.641707 -1.0163,-33.250617 -1.764,-2.893048 -3.608,-3.496296 -11.7656,-3.848933 -5.0129,-0.216701 -8.0347,-0.597628 -9.6229,-1.213084 -1.9998,-0.774898 -2.7983,-0.815717 -5.859,-0.299473 -1.9602,0.330627 -4.13623,1.063855 -4.86982,1.640894 -2.76112,2.171897 -23.90537,29.712142 -28.06152,36.549953 l -1.95741,3.220382 V 93.55392 c 0,12.81232 0.18319,19.74046 0.52197,19.74046 0.31635,0 0.52198,-2.26189 0.52198,-5.74173 v -5.74174 h 2.36181 c 2.86333,0 3.06581,0.38529 4.24384,8.07574 0.89146,5.81961 0.68292,13.4304 -0.48668,17.76207 l -0.7047,2.60988 -5.96949,0.14551 -5.96948,0.14551 -0.0288,-12.67293 c -0.0414,-18.211357 -1.42298,-25.157534 -6.43792,-32.367252 l -2.59146,-3.725598 2.18019,-3.013674 c 13.52695,-18.698244 49.55379,-67.320664 50.86829,-68.652745 3.1632,-3.2053819 5.0934,-3.8280817 11.8662,-3.8280817 6.5545,0 7.8139,0.3627726 10.2837,2.9621585 3.1516,3.3170782 3.0216,0.5468624 3.0216,64.3763972 v 58.333715 l -1.7921,1.36689 c -1.6908,1.28968 -2.128,1.36689 -7.7386,1.36689 -5.4964,0 -6.029,-0.0889 -7.035,-1.17444 z"
   id="path1363" /><path
   style="fill:#ffffff;stroke-width:0.521976;stroke-miterlimit:10"
   d="m 977.84489,129.18406 c 1.14534,-3.01245 1.67135,-11.00022 1.08147,-16.4225 -0.31816,-2.9246 -0.72055,-5.88355 -0.89421,-6.57543 l -0.31573,-1.25798 16.89214,0.13781 16.89214,0.1378 0.8779,3.39284 c 1.5923,6.1545 1.0904,13.89691 -1.2605,19.4436 l -1.0509,2.47938 h -16.36503 -16.36504 z"
   id="path1365" /><path
   style="fill:#ffffff;stroke-width:0.521976;stroke-miterlimit:10"
   d="m 1015.9375,145.91787 v -7.56865 h 6.4139 c 6.3519,0 6.4314,-0.0149 8.2211,-1.54471 0.994,-0.84959 2.0532,-1.55426 2.3538,-1.56593 0.3006,-0.0117 1.4163,0.86953 2.4794,1.9582 1.9113,1.95744 1.9328,2.02701 1.9328,6.26371 v 4.2843 h -5.2198 -5.2197 v 2.87086 2.87087 h -5.4808 -5.4807 z"
   id="path1367" /><path
   style="fill:#ffffff;stroke-width:0.184546;stroke-miterlimit:10"
   d="m 1029.0982,101.32032 c -0.3512,-0.77063 -1.5649,-2.015863 -2.2406,-2.298713 l -0.6172,-0.258389 0.1103,-1.789546 c 0.061,-0.98425 0.1601,-14.93155 0.221,-30.994001 0.061,-16.06245 0.1755,-29.204455 0.2548,-29.204455 0.2481,0 1.4458,1.42628 1.8298,2.179002 0.2018,0.395594 0.4571,1.250556 0.5673,1.899915 0.3025,1.782623 0.1794,61.135197 -0.1254,60.466187 z"
   id="path1369" /><path
   style="fill:#ffffff;stroke-width:0.184546;stroke-miterlimit:10"
   d="m 1024.0926,83.832507 c -0.6423,-0.812683 -1.4834,-1.74254 -1.869,-2.066347 l -0.7013,-0.588741 0.3922,-1.024411 c 0.3822,-0.998352 0.3922,-1.27557 0.3926,-10.89764 5e-4,-10.714704 0.012,-10.577826 -1.0555,-12.358205 -1.1613,-1.936351 -3.1589,-2.978897 -6.2192,-3.245856 -1.2465,-0.108729 -1.6237,-0.218039 -2.0814,-0.603242 -0.643,-0.541047 -1.1246,-1.561519 -1.4291,-3.028477 -0.1917,-0.923458 -0.1661,-1.186819 0.259,-2.664681 0.7067,-2.456292 1.023,-4.535921 1.0353,-6.806055 0.012,-2.139465 -0.2053,-3.40326 -0.7819,-4.557958 l -0.3456,-0.692049 h 3.8792 3.8792 v 8.396858 8.396857 h 2.9528 2.9527 v 16.609169 c 0,9.135043 -0.021,16.608992 -0.046,16.608776 -0.025,-1.84e-4 -0.5716,-0.665313 -1.2139,-1.477998 z"
   id="path1371" /><path
   style="fill:#ffffff;stroke-width:0.369093;stroke-miterlimit:10"
   d="m 1020.7954,43.10074 v -7.566399 h 1.6308 c 2.9527,0 2.7983,-0.429728 2.7983,7.790435 v 7.342364 h -2.2145 -2.2146 z"
   id="path1373" /><path
   style="fill:#ffffff;stroke-width:0.521976;stroke-miterlimit:10"
   d="m 1116.6276,132.91369 c -0.8174,-0.6215 -0.808,-0.87351 0.1407,-3.74912 2.2444,-6.80331 2.3379,-17.10644 0.2291,-25.2448 -0.8109,-3.12903 -0.8064,-3.33235 0.087,-4.00998 0.7883,-0.597787 16.9464,-0.716517 99.4037,-0.730419 l 98.4623,-0.0166 1.1082,2.740369 c 3.4038,8.41718 3.4004,18.7355 -0.01,28.39403 l -1.1706,3.316 -98.6874,-0.0166 c -79.2153,-0.0133 -98.8603,-0.14806 -99.5638,-0.68288 z m 191.3443,-2.16934 c 6.5426,-1.38609 9.454,-3.77506 8.3876,-6.88269 -2.4436,-7.12145 -35.5618,-7.09542 -38.0677,0.0299 -1.06,3.01403 1.8657,5.46782 8.1435,6.8301 4.5219,0.98124 16.9501,0.99432 21.5366,0.0227 z m -1.219,-17.70694 c 4.3874,-0.78273 8.0026,-2.39072 8.8235,-3.92449 1.5899,-2.97085 -0.4082,-5.44233 -5.7243,-7.08044 -4.4416,-1.36862 -17.394,-1.68143 -22.9561,-0.5544 -6.7271,1.36309 -9.4064,3.07977 -9.4064,6.02691 0,2.35067 4.249,4.71242 10.316,5.734 3.998,0.67321 14.6811,0.55955 18.9473,-0.20158 z"
   id="path1375" /><path
   style="fill:#ffffff;stroke-width:0.369093;stroke-miterlimit:10"
   d="m 1104.051,133.26077 c -0.6639,-0.50297 -0.6612,-0.58637 0.093,-2.85347 2.6718,-8.02884 2.8842,-17.34853 0.5988,-26.27828 l -0.8601,-3.36046 0.7951,-0.6377 c 1.3322,-1.068576 5.6446,-0.892426 8.1424,0.33259 1.1876,0.58247 2.1036,1.30073 2.2359,1.75319 2.5921,8.86985 2.6648,18.89758 0.1948,26.89433 -0.6975,2.25841 -0.9379,2.60252 -2.5066,3.58768 -1.5712,0.98678 -2.0313,1.08923 -4.8724,1.08495 -2.1158,-0.003 -3.3599,-0.17341 -3.8212,-0.52283 z"
   id="path1377" /><path
   style="fill:#ffffff;stroke-width:0.369093;stroke-miterlimit:10"
   d="m 1091.0526,132.12493 c -0.6109,-1.59958 -0.6095,-1.80085 0.031,-4.33684 1.4876,-5.89076 1.081,-15.64454 -0.8912,-21.37671 l -0.6969,-2.02544 1.0449,-2.36233 1.0449,-2.362326 4.0997,-0.104513 c 3.9721,-0.101261 4.1445,-0.07254 5.5377,0.922729 0.7909,0.56499 1.5369,1.35943 1.6578,1.76543 2.5722,8.63773 2.654,18.97006 0.2116,26.76318 -0.7078,2.25856 -0.8682,2.46355 -2.8129,3.59469 -1.9036,1.10728 -2.3132,1.19955 -5.3241,1.19955 h -3.2619 z"
   id="path1379" /><path
   style="fill:#ffffff;stroke-width:0.369093;stroke-miterlimit:10"
   d="m 1034.4228,117.93385 v -12.92072 h 25.81 25.8099 l 0.7461,1.99402 c 2.1468,5.73784 2.4654,14.79499 0.7284,20.70518 l -0.8678,2.95274 -26.1133,0.0948 -26.1133,0.0947 z"
   id="path1381" /><path
   style="fill:none;stroke:#000000;stroke-width:3;stroke-linecap:butt;stroke-linejoin:miter;stroke-miterlimit:4;stroke-dasharray:none;stroke-opacity:1"
   d="M 11.62947,157.66449 6.9205,97.07136"
   id="path1171"
   sodipodi:nodetypes="cc" /><path
   style="fill:none;stroke:#000000;stroke-width:2.53803;stroke-linecap:butt;stroke-linejoin:miter;stroke-miterlimit:4;stroke-dasharray:none;stroke-opacity:1"
   d="M 6.6895126,97.07136 V 83.285144 H 63.98293 v 12.916681"
   id="path1173" /><path
   style="fill:none;stroke:#000000;stroke-width:2.15403;stroke-miterlimit:10;stroke-dasharray:none"
   inkscape:connector-curvature="0"
   id="path10-6"
   d="m 12.772333,92.762191 c 0,2.416589 1.734478,4.374383 3.873767,4.374383 h 37.062282 c 2.139288,0 3.873766,-1.957794 3.873766,-4.374383 v 0 c 0,-2.415754 -1.734478,-4.374382 -3.873766,-4.374382 H 16.6461 c -2.139289,8.52e-4 -3.873767,1.958628 -3.873767,4.374382 z"
   stroke-miterlimit="10" /><path
   style="fill:none;stroke:#000000;stroke-width:3;stroke-linecap:butt;stroke-linejoin:miter;stroke-opacity:1;stroke-miterlimit:4;stroke-dasharray:none"
   d="M 11.62947,157.66449 H 279.77904"
   id="path1354" /><path
   style="fill:#ffffff;stroke-width:0.782964;stroke-miterlimit:4;stroke-dasharray:none"
   d="M 13.07874,154.88468 C 12.669597,151.61293 8.7244372,98.904572 8.8772535,98.751739 8.9736059,98.655377 69.820222,98.543223 144.09195,98.502508 l 135.03952,-0.07403 v 1.835702 1.83569 h 2.21192 2.21195 l -0.25866,0.68032 c -0.49596,1.30446 -1.53409,7.04621 -1.95329,10.80315 -0.83461,7.48008 -0.90565,25.77919 -0.12465,32.10151 0.31259,2.53042 0.87061,5.50842 1.18591,6.32896 0.15625,0.4066 -0.0138,0.45673 -1.54884,0.45673 h -1.72434 v 1.82691 1.82692 H 146.18262 13.233767 Z"
   id="path1356" /><path
   style="fill:#ffffff;stroke-width:1.10728;stroke-miterlimit:4;stroke-dasharray:none"
   d="m 7.9904125,241.65982 c -5.1942289,-18.14377 -6.2352704,-52.34764 -3.02482,-99.38177 0.8403016,-12.31069 1.4778449,-20.36857 1.7083629,-21.59192 0.1462906,-0.77636 0.8451631,6.44016 1.7514656,18.08554 l 1.508045,19.37736 -0.3690926,42.87657 c -0.203001,23.58212 -0.4675921,42.97493 -0.5879805,43.09515 -0.1203881,0.12022 -0.5640791,-0.9872 -0.9859804,-2.46093 z"
   id="path1358" /><path
   style="fill:#ffffff;stroke-width:1.10728;stroke-miterlimit:4;stroke-dasharray:none"
   d="m 12.468329,246.67726 c 0.121102,-1.79731 0.327303,-20.67516 0.458224,-41.95078 l 0.238039,-38.68295 0.727326,1.22005 c 2.215727,3.71676 5.635557,5.82422 9.460645,5.8301 2.086999,0.003 2.317538,0.075 2.085915,0.64951 -1.004207,2.49087 -0.594826,5.50835 0.992605,7.31633 2.394739,2.72746 0.368483,2.5569 30.377148,2.5569 h 26.943763 l 1.482712,-0.85012 c 2.366286,-1.35674 3.315803,-3.06161 3.313872,-5.95014 -8.93e-4,-1.33488 -0.143233,-2.71771 -0.316308,-3.07297 -0.298833,-0.61336 1.983991,-0.64591 45.30774,-0.64591 h 45.62243 v 5.69382 5.69382 l -14.11779,0.12382 -14.1178,0.12382 -2.70714,0.98445 c -3.86758,1.40643 -6.22899,2.95614 -10.50872,6.89646 -4.709,4.33556 -16.13052,13.88508 -28.01861,23.42633 l -9.12342,7.32235 -43.472283,13.07808 c -23.909757,7.19294 -43.781941,13.1741 -44.160409,13.29147 -0.646611,0.20052 -0.674841,0.0162 -0.467939,-3.05444 z"
   id="path1360" /><path
   style="fill:#ffffff;stroke-width:1.10728;stroke-miterlimit:4;stroke-dasharray:none"
   d="m 20.526603,169.15845 c -0.669805,-0.3301 -1.803084,-1.28134 -2.518398,-2.11388 -1.24437,-1.44828 -3.830174,-6.29633 -3.830174,-7.18108 0,-0.31667 33.176935,-0.42264 132.319709,-0.42264 h 132.31972 v 5.1673 5.1673 l -128.53652,-0.008 c -117.929353,-0.008 -128.637008,-0.0579 -129.754337,-0.60859 z"
   id="path1362" /><path
   style="fill:#ffffff;stroke-width:1.10728;stroke-miterlimit:4;stroke-dasharray:none"
   d="m 106.50848,242.20988 c -1.68787,-8.47529 -3.09714,-15.67462 -3.13171,-15.99851 -0.0389,-0.36409 3.67084,-3.59272 9.71809,-8.45786 11.96779,-9.62833 21.76527,-17.83947 26.30109,-22.04259 4.1333,-3.83012 6.89736,-5.68179 10.16879,-6.81215 l 2.46939,-0.85324 h 29.71196 c 27.38789,0 29.8571,0.0507 31.56748,0.64827 2.49232,0.87075 4.40567,2.22218 5.7253,4.04388 l 1.09286,1.50864 v 8.9479 c 0,7.81883 -0.0737,8.97617 -0.58383,9.17194 -0.32111,0.12322 -13.06864,0.225 -28.32786,0.22617 l -27.74404,0.002 -26.91436,22.51252 c -14.8029,12.38188 -26.9301,22.51252 -26.94933,22.51252 -0.0192,0 -1.41596,-6.93433 -3.10383,-15.40962 z"
   id="path1364" /><path
   style="fill:#ffffff;stroke-width:1.10728;stroke-miterlimit:4;stroke-dasharray:none"
   d="m 182.85337,178.81822 v -5.72094 h 7.38185 7.38185 v 5.72094 5.72093 h -7.38185 -7.38185 z"
   id="path1366" /><path
   style="fill:#ffffff;stroke-width:1.10728;stroke-miterlimit:4;stroke-dasharray:none"
   d="m 181.377,220.71023 v -4.42911 h 8.12004 8.12003 v 4.42911 4.42911 h -8.12003 -8.12004 z"
   id="path1368" /><path
   style="fill:#ffffff;stroke-width:1.10728;stroke-miterlimit:4;stroke-dasharray:none"
   d="m 223.45356,201.81887 c 0,-9.32926 -0.0819,-9.66886 -3.08075,-12.77996 -3.1179,-3.23456 -7.35803,-4.46507 -15.46616,-4.48836 l -3.96774,-0.0114 v -5.72093 -5.72094 h 13.65643 13.65642 v 17.08323 17.08323 l -1.19955,0.68466 c -0.65975,0.37656 -1.73935,1.00724 -2.3991,1.40151 l -1.19955,0.71684 z"
   id="path1370" /><path
   style="fill:#ffffff;stroke-width:0.276819;stroke-miterlimit:4;stroke-dasharray:none"
   d="M 8.0044403,90.043331 V 84.599215 H 35.317296 62.630151 v 5.305706 5.305707 h -2.200709 -2.20071 l 0.216837,-0.74864 c 0.261218,-0.90187 0.29554,-2.317077 0.07704,-3.176651 -0.487127,-1.916344 -1.912633,-3.405089 -3.708289,-3.872798 -0.79719,-0.207641 -38.473678,-0.207641 -39.270868,0 -1.814107,0.472515 -3.227834,1.962413 -3.719206,3.919598 -0.113281,0.451206 -0.138886,0.867561 -0.104982,1.707053 0.0422,1.044909 0.109684,1.363751 0.484002,2.286779 0.06124,0.151019 -0.07262,0.161478 -2.066671,0.161478 H 8.0044403 Z"
   id="path1372" /><path
   style="fill:#ffffff;stroke-width:0.260988"
   d="m 554.19189,430.38697 -3.70822,-1.58904 -3.95356,-9.98162 c -10.19562,-25.74105 -19.41807,-57.94297 -25.95504,-90.62689 -4.14482,-20.72348 -6.71052,-38.13963 -9.08533,-61.67175 l -0.24498,-2.42749 7.16499,-1.35683 c 3.94075,-0.74626 7.27409,-1.35522 7.40742,-1.35325 0.13333,0.002 0.29409,4.17126 0.35725,9.26507 0.53661,43.27992 13.62895,100.04649 35.25707,152.8697 l 2.80491,6.85056 -2.69204,0.84859 c -3.30678,1.04237 -2.87717,1.09069 -7.35247,-0.82705 z"
   id="path1074" /><path
   style="fill:#ffffff;stroke-width:0.184546"
   d="m 565.28437,428.90304 c -1.17711,-2.5432 -7.31948,-18.21269 -9.81921,-25.04928 -14.34245,-39.22562 -23.5995,-78.39605 -26.89475,-113.80285 -1.13041,-12.14602 -1.44472,-29.13258 -0.53905,-29.13258 0.1571,0 0.52181,-0.0906 0.81046,-0.20139 0.44243,-0.16978 0.56106,1.38026 0.75563,9.87323 0.69411,30.29873 6.24814,63.35205 16.72221,99.51785 4.95515,17.10961 12.25006,37.94192 19.14162,54.66343 0.91895,2.22971 1.67082,4.20749 1.67082,4.39507 0,0.18758 -0.3147,0.42335 -0.69932,0.52393 -0.49451,0.12932 -0.83084,-0.10129 -1.14841,-0.78741 z"
   id="path1084" /><path
   style="fill:#ffffff;stroke-width:0.184546"
   d="m 566.02466,422.32164 c -18.03527,-44.16238 -30.06066,-90.77679 -33.9732,-131.69135 -0.87257,-9.12471 -1.45283,-30.45014 -0.82855,-30.45014 0.2019,0 5.23289,-0.9135 11.17998,-2.03001 5.94709,-1.11651 10.82984,-2.02878 10.85056,-2.02729 0.0207,10e-4 0.0676,3.69704 0.10428,8.21232 0.33756,41.60568 12.57994,95.74164 33.54588,148.34041 1.91473,4.80361 3.48094,8.87286 3.48046,9.04277 -7.3e-4,0.23318 -18.68283,6.45064 -21.22111,7.06241 -0.28023,0.0675 -1.48837,-2.419 -3.1383,-6.45912 z"
   id="path1086" /><path
   style="fill:#ffffff;stroke-width:0.184546"
   d="M 588.60332,413.07678 C 571.11823,369.22881 559.9698,326.3055 556.08142,287.8621 c -1.5071,-14.90036 -2.02969,-32.11106 -0.97502,-32.11106 0.2879,0 0.76031,-0.0909 1.04979,-0.20198 0.44512,-0.1708 0.53425,1.06812 0.57755,8.02777 0.26148,42.02216 12.67706,97.03007 33.76376,149.59222 3.15773,7.87115 3.20603,8.10837 1.68583,8.27864 -0.1274,0.0143 -1.7384,-3.75264 -3.58001,-8.37091 z"
   id="path1088" /><path
   style="fill:#ffffff;stroke-width:0.184546"
   d="m 591.5533,411.9695 c -19.46552,-48.90288 -31.11613,-97.79081 -33.27065,-139.60929 -0.43508,-8.44479 -0.47936,-16.25623 -0.0954,-16.82945 0.14914,-0.22265 5.42001,-1.35958 11.71304,-2.5265 6.29303,-1.16693 11.79266,-2.20117 12.2214,-2.29833 0.77662,-0.17599 0.7803,-0.13484 0.98588,11.01563 0.33348,18.08827 2.31095,35.15318 6.57224,56.71642 5.58104,28.24152 14.88689,59.08814 26.56989,88.07272 1.38777,3.44294 2.48699,6.29612 2.44271,6.3404 -0.1405,0.1405 -23.21165,7.51526 -23.51069,7.51526 -0.15735,0 -1.79014,-3.77859 -3.62842,-8.39686 z"
   id="path1090" /><path
   style="fill:#ffffff;stroke-width:0.184546"
   d="m 619.21822,410.12352 c -2.35169,-5.67874 -8.09934,-20.89691 -10.5545,-27.94537 -15.33387,-44.02168 -24.05858,-88.15723 -24.27811,-122.81533 -0.0305,-4.81406 0.0283,-8.83654 0.13059,-8.93886 0.1844,-0.1844 7.55867,-1.6847 8.26784,-1.68209 0.23096,8.5e-4 0.40187,2.7975 0.45669,7.47301 0.38672,32.98443 8.25702,73.97539 22.23375,115.80034 3.55359,10.63399 9.08869,25.58305 12.39059,33.46417 0.9063,2.1632 1.60536,3.9602 1.55347,3.99334 -0.2603,0.16624 -8.72106,2.77352 -8.9988,2.77307 -0.17757,-2.8e-4 -0.71825,-0.95531 -1.20152,-2.12228 z"
   id="path1092" /><path
   style="fill:#ffffff;stroke-width:0.184546"
   d="m 627.57529,400.89672 c -17.96025,-45.14091 -28.79438,-88.25627 -32.20622,-128.16742 -0.53518,-6.26051 -1.19704,-24.35819 -0.89095,-24.362 0.0833,-0.001 4.55281,-0.83064 9.93233,-1.84358 5.37953,-1.01293 9.96236,-1.84254 10.18408,-1.84358 0.26745,-0.001 0.48338,2.20298 0.64159,6.54951 0.13117,3.60327 0.40881,8.71059 0.617,11.3496 3.77499,47.85311 15.46177,94.92992 33.21146,133.78277 l 1.86783,4.08854 -0.92111,1.35553 c -0.89141,1.31183 -1.20989,1.44816 -9.88136,4.22986 -4.92815,1.58088 -9.05035,2.87753 -9.16045,2.88143 -0.11011,0.004 -1.63749,-3.60539 -3.3942,-8.02066 z"
   id="path1094" /><g
   id="g818"
   transform="matrix(-1,0,0,1,1635.9817,-47.10505)" /><g
   id="g886"
   transform="rotate(-2.6,852.29062,310.58024)"><g
     id="g859"
     transform="matrix(-1,0,0,1,1736.9152,-44.763267)"><g
       id="g777"
       transform="translate(-163.90041,-37.582259)"><g
         id="g821"><g
           id="g824" /></g></g><g
       id="g866"><path
         style="fill:none;stroke:#000000;stroke-width:3;stroke-miterlimit:10"
         inkscape:connector-curvature="0"
         id="path24-0"
         d="m 814.5148,304.91653 v -37.793 c 0,0 1.89,-12.472 -13.227,-12.472 -15.117,0 -47.998,0 -47.998,0"
         stroke-miterlimit="10"
         transform="matrix(-1,0,0,1,1635.9817,-47.10505)" /><path
         d="m 1045.0687,243.6348 v 14.78502 c 0,0 0.471,4.44 3.874,9.73 3.402,5.292 75.212,116.784 75.212,116.784 0,0 4.535,7.938 -2.268,9.826 l -74.077,18.519 c 0,0 -8.0352,3.33992 -14.8352,-9.88808 l 0.4752,-10.14192 c 0,0 4.156,-1.891 -0.381,-7.938 0,0 -15.2095,-29.9537 -23.43,-44.596 -3.6029,-6.41738 -7.7356,-12.52751 -11.34004,-18.944 -4.52305,-8.05169 -12.898,-27.10365 -12.898,-27.10365"
         style="fill:none;stroke:#000000;stroke-width:3;stroke-miterlimit:10"
         id="path761"
         sodipodi:nodetypes="cccccccccssc"
         transform="translate(-163.90041,-37.582259)" /><path
         style="fill:none;stroke:#000000;stroke-miterlimit:10"
         inkscape:connector-curvature="0"
         id="path200-3"
         d="m 851.20925,260.62083 20.879,-10.175 c 0,0 6.533,-1.768 9.357,2.501 2.818,4.267 56.175,83.929 56.175,83.929 0,0 3.521,7.383 -3.415,11.969 -6.936,4.586 -27.955,9.573 -27.955,9.573 0,0 -9.548,4.585 -15.142,-3.875 -5.593,-8.458 -42.304,-77.003 -42.304,-77.003 0,0 -6.738,-10.875 2.405,-16.919 z"
         stroke-miterlimit="10" /></g></g></g><path
   style="fill:#ffffff;stroke-width:0.521976"
   d="m 830.46352,313.89067 c -1.57898,-0.4006 -5.45465,-1.33418 -8.6126,-2.07462 -8.28745,-1.94313 -16.35231,-4.63583 -19.09586,-6.37574 -3.02248,-1.9168 -4.34915,-4.52607 -3.99489,-7.85707 0.21766,-2.0466 4.19955,-8.91524 26.66187,-45.9909 14.52329,-23.97174 26.9427,-43.99468 27.59868,-44.49543 0.65599,-0.50076 2.2497,-1.04982 3.54159,-1.22014 2.14167,-0.28236 3.35565,0.12867 13.76081,4.65916 6.27655,2.73287 11.96669,5.49004 12.64477,6.12706 1.9173,1.80121 3.02236,5.26068 2.65939,8.32541 -0.33242,2.80672 -1.98628,6.43434 -17.72135,38.87037 -12.75823,26.29961 -21.65568,43.99003 -23.40478,46.53473 -2.7813,4.04641 -7.36849,5.1892 -14.03763,3.49717 z"
   id="path1026" /><path
   style="fill:#ffffff;stroke-width:0.521976"
   d="m 816.50992,321.5453 c -20.73692,-4.23206 -38.0509,-7.98297 -38.4755,-8.33536 -1.22593,-1.01743 -1.42243,-2.3671 -0.66021,-4.53472 0.38959,-1.10793 16.63069,-29.37901 36.09133,-62.82461 19.46064,-33.4456 35.8847,-61.98463 36.49792,-63.42006 0.98023,-2.29456 1.10888,-3.54008 1.0648,-10.30903 -0.0344,-5.27741 0.13031,-7.69946 0.52355,-7.70017 0.31554,-5.6e-4 10.67394,-0.4754 23.01867,-1.05519 12.34472,-0.57979 23.40622,-0.91054 24.5811,-0.735 5.61385,0.83876 8.12524,4.08398 8.42456,10.8862 0.10201,2.31847 0.50691,11.26208 0.89976,19.87468 l 0.71428,15.65927 -3.84778,9.48923 c -5.01137,12.35883 -7.2957,17.19411 -13.64187,28.876 -5.33152,9.81415 -11.02561,21.52377 -20.4609,42.07686 -2.88484,6.28411 -5.72318,12.35616 -6.30741,13.49343 -1.32686,2.58287 -1.36474,5.69094 -0.0915,7.5082 0.62874,0.8974 1.09571,2.80585 1.32546,5.41707 0.41069,4.6676 -0.0317,5.88557 -3.51491,9.67657 -2.35887,2.56733 -4.70383,3.81428 -6.98563,3.71467 -0.79871,-0.0349 -18.41877,-3.52598 -39.1557,-7.75804 z m 24.65858,-6.20143 c 1.15081,-0.5228 2.89193,-1.86118 3.86916,-2.97418 2.55632,-2.9115 39.23459,-77.36659 41.34152,-83.92128 1.79283,-5.57751 0.87821,-9.97622 -2.73377,-13.14757 -1.04987,-0.9218 -6.4879,-3.58614 -13.15774,-6.44657 -11.08925,-4.75575 -11.43949,-4.86652 -14.26908,-4.51299 -2.25707,0.28201 -3.2847,0.72899 -4.6308,2.01426 -0.9515,0.9085 -13.50918,21.13448 -27.90596,44.9466 -22.07947,36.51923 -26.22113,43.67614 -26.46456,45.73153 -0.54311,4.58575 1.65835,8.41854 6.13976,10.68944 5.30498,2.68824 27.44202,8.43206 32.84822,8.52301 1.75722,0.0295 3.68253,-0.32044 4.96325,-0.90225 z"
   id="path1028" /><path
   style="fill:#ffffff;stroke-width:0.521976"
   d="m 304.93726,366.75807 c -24.25882,-6.1012 -37.91378,-9.76677 -38.22674,-10.26165 -0.74763,-1.18225 -0.59443,-3.51375 0.3524,-5.36311 0.4704,-0.91878 18.00418,-28.30562 38.96397,-60.85966 28.03044,-43.53593 38.4306,-60.101 39.32587,-62.6371 0.99556,-2.82018 1.21917,-4.52126 1.22817,-9.34317 l 0.011,-5.89523 25.70731,0.1535 25.70731,0.15349 2.34889,1.30494 c 1.64627,0.9146 2.7002,2.00161 3.52334,3.63394 1.15675,2.29392 1.17444,2.62911 1.17444,22.25359 0,18.62297 -0.0603,19.94037 -0.92394,20.16621 -0.57972,0.15159 -3.47391,5.08462 -7.76832,13.24076 -3.76441,7.14954 -9.31084,17.10971 -12.3254,22.13373 -3.01456,5.02402 -11.18678,19.93948 -18.16048,33.14546 -13.44607,25.46262 -14.03837,26.92379 -11.88049,29.30822 0.48288,0.53358 1.26518,2.67263 1.73846,4.75345 0.84064,3.69602 0.83536,3.82399 -0.22895,5.54607 -1.45755,2.35836 -5.44806,5.98402 -7.50826,6.82177 -3.88792,1.58097 -4.14599,1.53149 -43.05859,-8.25521 z m 20.98576,-4.55629 c 4.6733,-1.29754 5.77598,-2.99452 25.7453,-39.62073 17.74867,-32.55328 23.21818,-42.82192 24.23721,-45.5038 1.81171,-4.76803 0.8516,-10.49247 -2.23248,-13.31063 -0.68382,-0.62486 -6.16567,-3.56097 -12.18189,-6.5247 -10.36782,-5.10741 -11.10869,-5.38809 -14.19847,-5.37895 -2.4519,0.007 -3.62196,0.27474 -4.72069,1.07922 -1.48331,1.08607 -56.27892,82.24987 -58.11539,86.0811 -2.06743,4.31306 -0.7141,9.85311 3.03993,12.44443 3.75542,2.59228 11.35672,5.39096 24.95086,9.18651 7.74294,2.16186 10.23313,2.44784 13.47562,1.54755 z"
   id="path1030" /><path
   style="fill:#ffffff;stroke-width:0.521976"
   d="m 319.40293,360.987 c -0.12115,-0.12115 -4.15446,-1.30189 -8.96293,-2.62387 -20.46505,-5.62643 -25.44121,-8.59406 -25.44121,-15.17237 0,-2.31489 1.1274,-4.09424 28.83917,-45.5163 30.88089,-46.15909 29.6263,-44.51619 33.99438,-44.51619 1.24907,0 5.34681,1.78804 13.45764,5.87223 10.66474,5.37019 11.76435,6.05073 12.86203,7.96013 1.01018,1.75721 1.16615,2.64238 0.98476,5.58872 -0.24563,3.98991 -0.22035,3.93972 -23.35123,46.34787 -14.25731,26.13937 -19.85641,36.07867 -21.64549,38.42427 -1.66532,2.18335 -5.20415,3.85577 -8.15878,3.85577 -1.29694,0 -2.4572,-0.0991 -2.57834,-0.22026 z"
   id="path1032" /></svg>
