<?xml version="1.0" encoding="UTF-8" standalone="no"?>
<svg
   version="1.1"
   x="0px"
   y="0px"
   width="751.46619"
   height="590.07837"
   viewBox="0 0 751.46619 590.07834"
   enable-background="new 0 0 828.487 564.861"
   xml:space="preserve"
   id="svg52"
   sodipodi:docname="weapon_medicbox.svg"
   inkscape:version="1.2.2 (732a01da63, 2022-12-09)"
   xmlns:inkscape="http://www.inkscape.org/namespaces/inkscape"
   xmlns:sodipodi="http://sodipodi.sourceforge.net/DTD/sodipodi-0.dtd"
   xmlns="http://www.w3.org/2000/svg"
   xmlns:svg="http://www.w3.org/2000/svg"
   xmlns:rdf="http://www.w3.org/1999/02/22-rdf-syntax-ns#"
   xmlns:cc="http://creativecommons.org/ns#"
   xmlns:dc="http://purl.org/dc/elements/1.1/"><metadata
   id="metadata58"><rdf:RDF><cc:Work
       rdf:about=""><dc:format>image/svg+xml</dc:format><dc:type
         rdf:resource="http://purl.org/dc/dcmitype/StillImage" /></cc:Work></rdf:RDF></metadata><defs
   id="defs56" /><sodipodi:namedview
   pagecolor="#ffffff"
   bordercolor="#666666"
   borderopacity="1"
   objecttolerance="10"
   gridtolerance="10"
   guidetolerance="10"
   inkscape:pageopacity="0"
   inkscape:pageshadow="2"
   inkscape:window-width="1920"
   inkscape:window-height="1009"
   id="namedview54"
   showgrid="false"
   inkscape:zoom="0.48478329"
   inkscape:cx="169.14775"
   inkscape:cy="396.05326"
   inkscape:window-x="-8"
   inkscape:window-y="-8"
   inkscape:window-maximized="1"
   inkscape:current-layer="svg52"
   inkscape:document-rotation="0"
   inkscape:pagecheckerboard="true"
   inkscape:showpageshadow="2"
   inkscape:deskcolor="#d1d1d1" />


<g
   id="g31172"
   transform="matrix(3.7795276,0,0,3.7795276,-71.784284,-333.92394)"><path
     style="fill:none;stroke:#000000;stroke-width:1.08318;stroke-dasharray:none;stroke-opacity:1"
     d="M 47.254442,88.892297 H 190.84584 c 20.53335,0.470855 27.76705,13.004833 26.2323,30.455463 v 101.88066 c -0.6626,18.9083 -14.05456,21.41081 -28.38361,22.70559 H 46.288149 c -12.13622,-0.94408 -26.21809,1.8539 -26.753634,-21.40168 V 109.29927 C 20.612711,90.948789 37.240007,90.52917 47.254442,88.892297 Z"
     id="path302"
     sodipodi:nodetypes="ccccccccc" /><path
     style="fill:#ffffff;stroke-width:0.79375"
     d="M 20.266414,162.13131 107.66532,181.3844"
     id="path28237" /><path
     style="fill:none;stroke:#000000;stroke-width:0.79375;stroke-dasharray:none;stroke-opacity:1"
     d="m 19.484244,200.39495 c 28.533196,10.84675 69.657111,18.6876 88.285406,18.36775"
     id="path28239"
     sodipodi:nodetypes="cc" /><path
     style="fill:none;stroke:#000000;stroke-width:0.79375;stroke-dasharray:none;stroke-opacity:1"
     d="m 19.487988,207.91468 c 28.76483,10.84597 70.222591,18.68626 89.002112,18.36644"
     id="path28239-6"
     sodipodi:nodetypes="cc" /><path
     style="fill:none;stroke:#000000;stroke-width:0.79375;stroke-dasharray:none;stroke-opacity:1"
     d="m 216.5923,200.78088 c -28.76483,10.84597 -71.45664,18.68626 -90.23615,18.36644"
     id="path28239-65"
     sodipodi:nodetypes="cc" /><path
     style="fill:none;stroke:#000000;stroke-width:0.79375;stroke-dasharray:none;stroke-opacity:1"
     d="m 216.589,208.29995 c -28.76483,10.84597 -71.45664,18.68626 -90.23615,18.36644"
     id="path28239-6-7"
     sodipodi:nodetypes="cc" /><path
     style="fill:none;stroke:#000000;stroke-width:0.79375;stroke-dasharray:none;stroke-opacity:1"
     d="m 108.53305,229.55083 -2.60598,-32.26309 c 6.84358,-0.69266 13.92939,-0.69267 21.25746,0 l -1.02778,32.33235 c -5.87457,0.33779 -11.74913,0.59199 -17.6237,-0.0693 z"
     id="path28646"
     sodipodi:nodetypes="ccccc" /><path
     style="fill:none;stroke:#000000;stroke-width:0.79375;stroke-dasharray:none;stroke-opacity:1"
     d="m 106.21115,203.14863 c 7.04407,1.33815 13.98622,1.51194 20.78085,0"
     id="path28648"
     sodipodi:nodetypes="cc" /><circle
     style="fill:none;stroke:#000000;stroke-width:0.649398;stroke-miterlimit:10;stroke-dasharray:none"
     id="circle42-6-2"
     r="6.7265677"
     cy="220.54814"
     cx="117.36185"
     stroke-miterlimit="10" /><circle
     style="fill:none;stroke:#000000;stroke-width:0.529167;stroke-miterlimit:10;stroke-dasharray:none"
     id="circle42-6-2-5"
     r="4.2914882"
     cy="220.68251"
     cx="117.31707"
     stroke-miterlimit="10" /><polygon
     style="fill:none;stroke:#000000;stroke-width:3;stroke-miterlimit:10"
     id="polygon44"
     points="367.709,382.186 367.709,474.341 444.206,474.341 444.206,382.186 536.36,382.186 536.362,305.69 444.206,305.69 444.206,213.535 367.709,213.535 367.709,305.69 275.554,305.69 275.554,382.186 "
     stroke-miterlimit="10"
     transform="matrix(0.26458333,0,0,0.26458333,8.6618287,61.59867)" /></g><path
   style="fill:#ffffff;stroke:none;stroke-width:2.06278;fill-opacity:1"
   d="m 408.77526,477.79081 c 0.35894,-7.79987 0.96287,-26.36487 1.34208,-41.25554 0.5823,-22.86573 0.46466,-27.075 -0.75683,-27.08063 -0.79545,-0.004 -10.49672,-0.49979 -21.55836,-1.1025 -18.62058,-1.01456 -59.18801,0.13284 -60.7741,1.71893 -0.53221,0.53221 4.78183,71.62325 5.80666,77.68125 l 0.59468,3.51533 -15.3584,-0.7144 C 241.47479,486.99039 116.00592,460.96934 26.300412,430.04281 17.791455,427.1093 9.3095781,424.08197 7.4517963,423.31542 L 4.0740113,421.92169 4.3968594,246.80161 C 4.7591412,50.291776 4.1342498,65.563591 12.511967,48.475269 15.775922,41.817665 18.575942,37.961703 24.150129,32.448123 37.683234,19.062163 55.848938,12.2544 92.727127,6.7482715 L 110.2932,4.1255548 378.22911,4.1418795 c 167.26404,0.01019 272.55629,0.3990892 280.23296,1.0350435 29.00424,2.4027855 48.31387,10.29725 64.04093,26.182216 11.31223,11.425814 17.6937,23.835159 21.79646,42.385153 1.4098,6.374219 1.57733,27.209798 1.43052,177.914548 -0.0915,93.88216 -0.49562,171.0303 -0.89816,171.44031 -2.74876,2.79981 -64.59185,22.10822 -101.60738,31.72346 -79.62092,20.68254 -178.90965,37.1498 -223.99338,37.1498 h -11.1084 z M 407.39853,329.01299 V 282.6005 h 45.8968 45.8968 v -40.22416 -40.22416 h -45.8968 -45.8968 v -45.89679 -45.8968 h -40.22415 -40.22416 v 45.8968 45.89679 h -46.41249 -46.4125 v 40.22416 40.22416 h 46.4125 46.41249 v 46.41249 46.4125 h 40.22416 40.22415 z"
   id="path31675" /><path
   style="fill:#ffffff;fill-opacity:1;stroke:none;stroke-width:2.06278"
   d="M 94.372066,585.13859 C 74.825959,584.31374 55.948741,582.45133 48.924174,580.65476 32.514609,576.45789 20.547579,567.18059 14.009638,553.58765 6.5841065,538.14933 4.1892495,520.02067 4.1489572,478.94396 l -0.023402,-23.85802 19.3380708,6.64403 c 71.03255,24.40484 161.660454,45.57134 239.540494,55.94561 22.90864,3.05162 48.28861,5.22945 60.99943,5.2343 12.30151,0.005 12.22916,-0.0411 12.22916,7.74201 0,4.06233 0.26152,4.52509 2.83632,5.01876 7.19609,1.37974 26.15708,1.86068 46.29437,1.17425 l 22.03513,-0.75112 v -5.41371 -5.4137 l 14.69729,-0.70592 c 82.52859,-3.96384 202.52823,-27.97126 297.11807,-59.44215 l 26.63637,-8.86217 -0.40525,31.00835 c -0.36336,27.80314 -0.63485,31.83946 -2.62651,39.04896 -9.21395,33.35316 -30.28398,48.60294 -78.28316,56.65869 l -13.21338,2.21761 -274.86509,0.12677 c -151.17579,0.0697 -278.113958,-0.0103 -282.084804,-0.17792 z"
   id="path32040" /><path
   style="fill:#ffffff;fill-opacity:1;stroke:none;stroke-width:2.06278"
   d="m 407.39853,516.36566 c 0,-2.4671 0.29423,-7.96631 0.65384,-12.22046 l 0.65383,-7.73483 16.62193,-0.63326 c 59.92573,-2.28305 160.25588,-20.20495 243.52744,-43.50113 17.74566,-4.96456 56.68232,-17.24148 67.04026,-21.13813 4.53811,-1.70723 8.59921,-3.10574 9.02466,-3.1078 0.42544,-0.002 0.77354,5.28404 0.77354,11.74688 0,10.22952 -0.23365,11.84372 -1.80493,12.46977 -19.63451,7.82301 -76.0064,24.86378 -112.28666,33.94336 -78.2713,19.58833 -172.47969,34.57939 -217.75773,34.65103 l -6.44618,0.0102 z"
   id="path32042" /><path
   style="fill:#ffffff;fill-opacity:1;stroke:none;stroke-width:2.06278"
   d="M 323.34036,519.13237 C 270.38939,517.05298 183.41015,502.40371 109.3272,483.0877 77.544749,474.80091 36.078747,462.03148 7.477568,451.72318 l -3.3520132,-1.20811 v -11.76008 c 0,-6.46804 0.1761536,-11.76007 0.3914525,-11.76007 0.2152989,0 7.7573287,2.58296 16.7600657,5.7399 90.521127,31.74261 216.235357,57.89332 297.601667,61.90626 l 14.10339,0.69556 0.55886,4.76407 c 0.30737,2.62023 0.8538,8.12896 1.21427,12.24162 0.64747,7.38678 0.62597,7.47512 -1.76988,7.27556 -1.33392,-0.1111 -5.67418,-0.32959 -9.64502,-0.48552 z"
   id="path32044" /><path
   style="fill:#ffffff;fill-opacity:1;stroke:none;stroke-width:2.06278"
   d="m 346.38438,532.54334 -5.83486,-0.44401 -0.62564,-5.88186 c -1.10692,-10.40668 -6.78533,-82.41647 -6.78533,-86.04713 v -3.50893 l 9.54034,1.35333 c 12.20368,1.73113 43.04349,1.68227 54.40576,-0.0862 4.82174,-0.75047 8.83484,-1.31296 8.918,-1.24997 0.30867,0.23381 -2.95032,95.01594 -3.27891,95.36174 -0.53277,0.56068 -49.80093,1.00056 -56.33936,0.50302 z m 36.6075,-8.24024 c 9.06353,-4.62799 14.51353,-12.12917 15.69751,-21.60545 1.96954,-15.76366 -10.93304,-30.32163 -26.87377,-30.32163 -14.50299,0 -27.3318,12.83973 -27.3318,27.35508 0,4.91967 2.59311,12.53315 5.62065,16.50245 2.96516,3.88753 10.24408,8.5692 15.34953,9.87254 4.48898,1.14596 13.59622,0.20969 17.53788,-1.80299 z"
   id="path32046" /><path
   style="fill:#ffffff;fill-opacity:1;stroke:none;stroke-width:0.364651"
   d="m 369.39143,515.13779 c -5.99147,-1.16817 -10.51188,-5.06706 -12.19196,-10.51567 -1.6241,-5.26705 -0.31392,-10.82749 3.49637,-14.83874 5.38101,-5.6648 13.87067,-6.32595 20.13751,-1.56825 8.67416,6.5853 7.5352,20.01248 -2.14332,25.26744 -2.08234,1.13062 -3.96524,1.61342 -6.56371,1.68303 -1.25349,0.0336 -2.48419,0.0211 -2.73489,-0.0278 z"
   id="path32048" /><path
   style="fill:#ffffff;fill-opacity:1;stroke:none;stroke-width:0.364651"
   d="m 369.55326,523.64531 c -10.61069,-1.07856 -19.19407,-8.82916 -21.41027,-19.33302 -0.4047,-1.91808 -0.54203,-5.58898 -0.28184,-7.53358 1.08295,-8.09372 5.81347,-14.87355 12.90577,-18.49667 3.85014,-1.96686 6.75463,-2.66261 11.08591,-2.65557 5.0696,0.008 9.06452,1.21582 13.30432,4.02164 5.40464,3.57668 9.35154,9.69114 10.38931,16.09488 0.35894,2.21488 0.35894,5.62513 0,7.84 -1.58869,9.80329 -9.42235,17.82951 -19.2195,19.69195 -2.13441,0.40575 -4.92473,0.55832 -6.7737,0.37037 z m 6.49305,-6.7471 c 5.93836,-1.58537 10.71101,-6.3629 12.30533,-12.31788 0.48971,-1.82912 0.67133,-5.15575 0.3823,-7.00252 -0.88705,-5.66797 -4.28517,-10.3156 -9.40577,-12.86429 -4.3388,-2.15957 -9.11723,-2.44997 -13.60331,-0.82672 -8.67871,3.14033 -13.38511,12.61777 -10.62036,21.38658 1.92179,6.09524 6.69285,10.43093 13.01066,11.82342 2.08638,0.45985 5.81448,0.36651 7.93115,-0.19859 z"
   id="path32050" /><path
   style="fill:#ffffff;fill-opacity:1;stroke:none;stroke-width:0.364651"
   d="m 361.00446,436.10626 c -5.79287,-0.29535 -11.33714,-0.8116 -17.54284,-1.63351 -4.097,-0.54263 -11.40747,-1.71416 -11.54315,-1.84983 -0.11482,-0.11483 -1.6238,-19.27271 -1.52574,-19.37077 0.12081,-0.12081 4.98578,-0.57033 9.91779,-0.91639 17.81337,-1.24991 36.51234,-1.2811 54.97113,-0.0917 3.21112,0.20691 11.91677,0.90776 11.966,0.96332 0.0734,0.0828 -0.58536,19.25258 -0.66417,19.32845 -0.0489,0.047 -1.15541,0.29755 -2.45904,0.55673 -7.77525,1.54587 -16.41039,2.59644 -24.88743,3.02787 -4.0642,0.20684 -14.04954,0.19906 -18.23255,-0.0142 z"
   id="path32052" /></svg>
