<?xml version="1.0" encoding="UTF-8" standalone="no"?>
<svg
   version="1.1"
   x="0px"
   y="0px"
   width="2077.9209"
   height="600"
   viewBox="0 0 2077.9209 599.99998"
   enable-background="new 0 0 2169.938 563.887"
   xml:space="preserve"
   id="svg78"
   sodipodi:docname="weapon_m40.svg"
   inkscape:version="1.2.2 (732a01da63, 2022-12-09)"
   xmlns:inkscape="http://www.inkscape.org/namespaces/inkscape"
   xmlns:sodipodi="http://sodipodi.sourceforge.net/DTD/sodipodi-0.dtd"
   xmlns="http://www.w3.org/2000/svg"
   xmlns:svg="http://www.w3.org/2000/svg"
   xmlns:rdf="http://www.w3.org/1999/02/22-rdf-syntax-ns#"
   xmlns:cc="http://creativecommons.org/ns#"
   xmlns:dc="http://purl.org/dc/elements/1.1/"><metadata
   id="metadata84"><rdf:RDF><cc:Work
       rdf:about=""><dc:format>image/svg+xml</dc:format><dc:type
         rdf:resource="http://purl.org/dc/dcmitype/StillImage" /></cc:Work></rdf:RDF></metadata><defs
   id="defs82" /><sodipodi:namedview
   pagecolor="#ffffff"
   bordercolor="#666666"
   borderopacity="1"
   objecttolerance="10"
   gridtolerance="10"
   guidetolerance="10"
   inkscape:pageopacity="0"
   inkscape:pageshadow="2"
   inkscape:window-width="1920"
   inkscape:window-height="1009"
   id="namedview80"
   showgrid="false"
   inkscape:zoom="0.26175864"
   inkscape:cx="219.66801"
   inkscape:cy="-34.382819"
   inkscape:window-x="-8"
   inkscape:window-y="-8"
   inkscape:window-maximized="1"
   inkscape:current-layer="svg78"
   inkscape:document-rotation="0"
   inkscape:pagecheckerboard="true"
   inkscape:showpageshadow="2"
   inkscape:deskcolor="#d1d1d1" />


<g
   id="g2880"
   transform="translate(0,75.401334)"><g
     id="Layer_1"
     transform="matrix(-1,0,0,1,2134.5772,-75.458)">
	<g
   id="g74">
		<g
   id="g28">
			<path
   style="opacity:1;fill:none;stroke:#000000;stroke-width:3;stroke-miterlimit:10"
   inkscape:connector-curvature="0"
   id="path2"
   d="M 635.016,210.769 65.094,204.324 c -15.652,-21.176 0,-36.828 0,-36.828 l 878.975,6.445 h 189.668 l 197.646,1.842 h 103.732 c 0,0 4.912,12.889 4.912,34.986 l -9.207,-3.684 -535.243,-10.434 c 0,0 -159.737,-2.432 -245.522,1.84 -14.221,0.709 -15.039,12.278 -15.039,12.278 z"
   stroke-miterlimit="10" />
			<polyline
   style="opacity:1;fill:none;stroke:#000000;stroke-width:3;stroke-miterlimit:10"
   id="polyline4"
   points="1436.536,180.503 1451.076,180.503      1457.216,189.132 1457.216,210.769 1440.027,207.087    "
   stroke-miterlimit="10" />
			<path
   style="opacity:1;fill:none;stroke:#000000;stroke-width:3;stroke-miterlimit:10"
   inkscape:connector-curvature="0"
   id="path6"
   d="m 1457.216,189.132 h 31.304 c 0,0 8.594,9.359 0,30.23 l -31.304,-8.594"
   stroke-miterlimit="10" />
			<path
   style="opacity:1;fill:none;stroke:#000000;stroke-width:3;stroke-miterlimit:10"
   inkscape:connector-curvature="0"
   id="path8"
   d="m 635.016,210.769 c -4.144,33.145 31.304,35.908 31.304,35.908 l 528.95,48.338 249.387,15.404 26.367,1.629 c 72.736,0.92 78,9.715 102.66,29.002 24.019,18.785 27.16,82.402 27.16,82.402 77.341,-0.92 86.548,-19.334 86.548,-19.334 0,0 -3.683,-11.047 -0.921,-21.176 2.762,-10.129 21.176,-0.92 21.176,-0.92 0,0 347.109,126.137 363.683,137.186 16.574,11.049 21.177,-4.604 21.177,-4.604 0,0 36.822,-173.119 39.591,-207.162 1.198,-14.73 2.199,-23.018 -2.763,-26.699 0,0 -118.078,-11.189 -142.937,-18.555"
   stroke-miterlimit="10" />
			<path
   style="opacity:1;fill:none;stroke:#000000;stroke-width:3;stroke-miterlimit:10"
   inkscape:connector-curvature="0"
   id="path10"
   d="m 1488.52,219.362 c 0,0 102.505,33.148 126.443,37.443 23.938,4.297 42.968,-18.722 42.968,-18.722 l 24.373,2.207 277.854,3.022 c 0,0 25.185,17.514 32.225,24.859 21.176,22.098 23.12,45.717 23.12,45.717 14.118,69.973 -67.448,122.783 -145.809,87.531 -85.393,-38.414 -192.197,-81.689 -192.197,-81.689 0,0 -36.828,-36.828 -16.57,-81.943"
   stroke-miterlimit="10" />
			<path
   style="opacity:1;fill:none;stroke:#000000;stroke-width:3;stroke-miterlimit:10"
   inkscape:connector-curvature="0"
   id="path12"
   d="m 2121.969,280.743 c 0,0 3.683,48.799 -41.433,241.357"
   stroke-miterlimit="10" />
			<path
   style="opacity:1;fill:none;stroke:#000000;stroke-width:3;stroke-miterlimit:10"
   inkscape:connector-curvature="0"
   id="path14"
   d="m 1205.818,295.663 v 5.336 l 178.059,15.65 c 0,0 2.902,20.258 7.505,29.924 4.603,9.668 14.271,18.221 17.954,20.389 3.684,2.168 35.908,7.039 50.639,0 14.731,-7.039 31.305,-15.785 28.543,-43.406 0,0 -1.104,-8.973 3.82,-10.932"
   stroke-miterlimit="10" />
			<path
   style="opacity:1;fill:none;stroke:#000000;stroke-miterlimit:10"
   inkscape:connector-curvature="0"
   id="path16"
   d="m 1411.402,308.364 -8.051,6.906 c 0,0 -1.486,9.668 -9.207,14.271 -3.538,2.105 -1.471,22.191 4.053,27.254"
   stroke-miterlimit="10" />
			<path
   style="opacity:1;fill:none;stroke:#000000;stroke-miterlimit:10"
   inkscape:connector-curvature="0"
   id="path18"
   d="m 1469.795,314.196 c 0,0 20.9,9.77 16.436,29.898"
   stroke-miterlimit="10" />
			<path
   style="opacity:1;fill:none;stroke:#000000;stroke-width:3;stroke-miterlimit:10"
   inkscape:connector-curvature="0"
   id="path20"
   d="m 1450.154,310.759 c 0,0 29.156,19.703 10.741,38.424 l 4.604,3.377 c 0,0 19.34,-20.057 -0.305,-40.873"
   stroke-miterlimit="10" />
			<path
   style="opacity:1;fill:none;stroke:#000000;stroke-width:3;stroke-miterlimit:10"
   inkscape:connector-curvature="0"
   id="path22"
   d="m 1545.123,89.522 h -70.824 l -38.24,12.563 h -8.787 l -11.662,-9.021 h -29.463 l -5.523,9.021 h -17.188 l -3.067,-8.377 h -23.938 l -3.069,8.377 h -89.002 l -6.141,-25.127 h -38.668 l -8.593,25.127 h -8.595 l -6.137,-6.443 h -19.029 l -4.909,6.443 h -54.749 L 989.012,80.821 h -44.808 l -3.683,-3.863 h -33.146 c -4.563,8.709 -4.92,31.531 -4.672,45.42 -0.248,13.891 0.108,36.713 4.672,45.422 h 33.146 l 3.683,-3.863 h 44.808 l 108.525,-21.264 h 54.749 l 4.909,6.443 h 19.029 l 6.137,-6.443 h 8.595 53.401 89.002 l 3.069,8.377 h 23.938 l 3.067,-8.377 h 17.188 l 5.523,9.021 h 29.463 l 11.662,-9.021 h 8.787 l 38.24,12.564 h 70.824 c 0,0 5.217,-12.236 5.217,-35.432 0,-18.361 -5.214,-30.283 -5.214,-30.283 z"
   stroke-miterlimit="10" />
			<polyline
   style="opacity:1;fill:none;stroke:#000000;stroke-width:3;stroke-miterlimit:10"
   id="polyline24"
   points="1338.135,175.782 1338.135,151.05      1360.367,151.05 1360.367,175.782    "
   stroke-miterlimit="10" />
			<polyline
   style="opacity:1;fill:none;stroke:#000000;stroke-width:3;stroke-miterlimit:10"
   id="polyline26"
   points="1155.698,175.782 1155.698,151.05      1177.931,151.05 1177.931,175.782    "
   stroke-miterlimit="10" />
		</g>
		<path
   style="opacity:1;fill:none;stroke:#000000;stroke-miterlimit:10"
   inkscape:connector-curvature="0"
   id="path30"
   d="m 944.204,80.821 c 0,0 -9.956,36.034 0,83.115"
   stroke-miterlimit="10" />
		<line
   style="opacity:1;fill:none;stroke:#000000;stroke-miterlimit:10"
   id="line32"
   y2="142.673"
   x2="1153.377"
   y1="99.668999"
   x1="1153.377"
   stroke-miterlimit="10" />
		<line
   style="opacity:1;fill:none;stroke:#000000;stroke-miterlimit:10"
   id="line34"
   y2="141.466"
   x2="1181"
   y1="100.878"
   x1="1181"
   stroke-miterlimit="10" />
		<line
   style="opacity:1;fill:none;stroke:#000000;stroke-miterlimit:10"
   id="line36"
   y2="142.673"
   x2="1335.27"
   y1="99.668999"
   x1="1335.27"
   stroke-miterlimit="10" />
		<line
   style="opacity:1;fill:none;stroke:#000000;stroke-miterlimit:10"
   id="line38"
   y2="141.466"
   x2="1362.891"
   y1="100.878"
   x1="1362.891"
   stroke-miterlimit="10" />
		<polyline
   style="opacity:1;fill:none;stroke:#000000;stroke-miterlimit:10"
   id="polyline40"
   points="1192.658,97.103 1188.979,118.392 1245.754,118.392     1243.141,97.103   "
   stroke-miterlimit="10" />
		<line
   style="opacity:1;fill:none;stroke:#000000;stroke-miterlimit:10"
   id="line42"
   y2="97.102997"
   x2="1242.491"
   y1="97.102997"
   x1="1193.568"
   stroke-miterlimit="10" />
		<line
   style="opacity:1;fill:none;stroke:#000000;stroke-miterlimit:10"
   id="line44"
   y2="86.780998"
   x2="1242.491"
   y1="86.780998"
   x1="1193.568"
   stroke-miterlimit="10" />
		<path
   style="opacity:1;fill:none;stroke:#000000;stroke-miterlimit:10"
   inkscape:connector-curvature="0"
   id="path46"
   d="m 1392.765,93.063 c 0,0 4.604,32.396 0,58.631"
   stroke-miterlimit="10" />
		<path
   style="opacity:1;fill:none;stroke:#000000;stroke-miterlimit:10"
   inkscape:connector-curvature="0"
   id="path48"
   d="m 1412.926,93.063 c 0,0 4.604,32.396 0,58.631"
   stroke-miterlimit="10" />
		<line
   style="opacity:1;fill:none;stroke:#000000;stroke-miterlimit:10"
   id="line50"
   y2="143.864"
   x2="1413.949"
   y1="143.864"
   x1="1393.788"
   stroke-miterlimit="10" />
		<line
   style="opacity:1;fill:none;stroke:#000000;stroke-miterlimit:10"
   id="line52"
   y2="135.27"
   x2="1413.949"
   y1="135.27"
   x1="1393.788"
   stroke-miterlimit="10" />
		<line
   style="opacity:1;fill:none;stroke:#000000;stroke-miterlimit:10"
   id="line54"
   y2="126.675"
   x2="1414.973"
   y1="126.675"
   x1="1393.788"
   stroke-miterlimit="10" />
		<line
   style="opacity:1;fill:none;stroke:#000000;stroke-miterlimit:10"
   id="line56"
   y2="118.083"
   x2="1413.949"
   y1="118.083"
   x1="1393.788"
   stroke-miterlimit="10" />
		<line
   style="opacity:1;fill:none;stroke:#000000;stroke-miterlimit:10"
   id="line58"
   y2="109.488"
   x2="1413.949"
   y1="109.488"
   x1="1393.788"
   stroke-miterlimit="10" />
		<line
   style="opacity:1;fill:none;stroke:#000000;stroke-miterlimit:10"
   id="line60"
   y2="100.894"
   x2="1413.949"
   y1="100.894"
   x1="1393.788"
   stroke-miterlimit="10" />
		<path
   style="opacity:1;fill:none;stroke:#000000;stroke-miterlimit:10"
   inkscape:connector-curvature="0"
   id="path62"
   d="m 1382.021,103.353 c 0,0 2.727,29.538 -1.398,39.32"
   stroke-miterlimit="10" />
		<path
   style="opacity:1;fill:none;stroke:#000000;stroke-miterlimit:10"
   inkscape:connector-curvature="0"
   id="path64"
   d="m 1426.523,103.353 c 0,0 5.832,17.61 0,38.113"
   stroke-miterlimit="10" />
		<line
   style="opacity:1;fill:none;stroke:#000000;stroke-miterlimit:10"
   id="line66"
   y2="155.237"
   x2="1487.598"
   y1="89.522003"
   x1="1487.598"
   stroke-miterlimit="10" />
		<line
   style="opacity:1;fill:none;stroke:#000000;stroke-miterlimit:10"
   id="line68"
   y2="155.237"
   x2="1492.338"
   y1="89.522003"
   x1="1492.338"
   stroke-miterlimit="10" />
		<line
   style="opacity:1;fill:none;stroke:#000000;stroke-miterlimit:10"
   id="line70"
   y2="155.237"
   x2="1506.0129"
   y1="89.522003"
   x1="1506.0129"
   stroke-miterlimit="10" />
		<line
   style="opacity:1;fill:none;stroke:#000000;stroke-miterlimit:10"
   id="line72"
   y2="155.237"
   x2="1510.752"
   y1="89.522003"
   x1="1510.752"
   stroke-miterlimit="10" />
	</g>
</g><g
     id="Layer_2_1_"
     transform="matrix(-1,0,0,1,2134.5772,-75.458)">
</g><path
     style="fill:#ffffff;stroke-width:15.35"
     d="M 51.440639,424.41167 C 41.980837,382.63668 29.723748,321.2198 24.469772,289.26809 18.4791,252.83623 13.658547,209.59859 15.393957,207.86318 c 0.600229,-0.60023 19.419573,-3.1211 41.820763,-5.60195 22.401192,-2.48084 49.53438,-5.83824 60.29597,-7.46087 10.76159,-1.62264 20.07839,-2.95026 20.70398,-2.95026 0.6256,0 -1.13549,2.70125 -3.91354,6.00278 -13.99068,16.62697 -21.71893,45.57623 -18.14289,67.96139 5.45903,34.17214 32.07444,60.73935 70.57187,70.44408 9.20272,2.3199 17.78119,2.8877 33.42774,2.21251 24.3686,-1.05154 27.9731,-2.23607 91.72385,-30.14297 22.06231,-9.65777 63.75148,-27.36491 92.6426,-39.34918 44.81426,-18.58933 53.44492,-22.81862 58.76346,-28.79588 15.7178,-17.66451 22.38438,-45.66334 16.28367,-68.38937 -0.97995,-3.65043 -0.82387,-3.63446 3.50957,0.35898 6.69964,6.17399 20.7061,11.96729 29.0489,12.01509 9.97428,0.0572 29.43421,-5.09882 90.35264,-23.9392 66.95645,-20.70776 88.8436,-26.41309 90.57575,-23.61041 0.96862,1.56727 2.49134,1.51747 5.67347,-0.18555 7.00756,-3.75033 530.57264,-13.74749 673.77484,-12.86532 110.924,0.68333 113.2921,0.77628 118.4297,4.64863 4.5402,3.42201 5.2319,5.25651 5.1633,13.69355 -0.066,8.0706 -1.0228,10.72694 -5.5779,15.48145 -3.0242,3.15659 -9.0055,7.02245 -13.2918,8.59079 -4.9268,1.80271 -51.0016,6.7667 -125.2679,13.49606 -64.6111,5.85449 -182.802,16.63018 -262.6466,23.94599 -128.35722,11.76081 -318.96694,25.20499 -445.06645,31.39165 -43.4322,2.13086 -57.66052,6.58053 -80.02244,25.02569 -10.23228,8.44007 -14.21989,13.31532 -18.67105,22.82722 -5.89123,12.58928 -12.98215,42.4387 -13.02557,54.83147 l -0.0251,7.16308 h -14.07596 c -18.74317,0 -45.69192,-4.84654 -57.85307,-10.40447 l -9.84894,-4.50118 0.26204,-11.39867 c 0.30194,-13.13406 -2.32654,-17.62928 -10.30826,-17.62928 -9.78888,0 -349.858021,126.13303 -376.565624,139.66972 -3.897845,1.97562 -7.346579,3.59203 -7.663852,3.59203 -0.317276,0 -2.571992,-8.8106 -5.010485,-19.57911 z"
     id="path946" /><path
     style="fill:#ffffff;stroke-width:7.67501"
     d="M 47.635389,443.86822 C 46.540316,443.10119 45.174223,441.2746 44.599626,439.80913 43.404163,436.76017 25.293438,348.81325 17.215391,306.82942 4.6993754,241.78024 1.3263102,214.57117 5.0526557,208.71786 c 0.3915028,-0.61497 1.8225324,-1.39689 3.1800658,-1.73761 l 2.4682425,-0.61949 0.575389,13.67609 c 1.447931,34.41508 13.636795,106.08804 31.886728,187.50035 4.00361,17.85996 7.478641,33.65457 7.722289,35.09913 0.498209,2.95381 -0.33869,3.27103 -3.249981,1.23189 z"
     id="path948" /><path
     style="fill:#ffffff;stroke-width:7.67501"
     d="m 200.58132,334.40882 c -24.20258,-3.29714 -42.06732,-11.89392 -58.34888,-28.07834 -8.59066,-8.53941 -10.17856,-10.67387 -14.5891,-19.61069 -5.85126,-11.8561 -7.73147,-19.86352 -7.73701,-32.9502 -0.01,-23.34591 9.17363,-45.29315 25.40722,-60.71963 4.70024,-4.46655 24.15366,-19.50813 29.00312,-22.42549 0.79937,-0.4809 64.54558,-1.63036 144.21682,-2.60051 78.53132,-0.95627 145.38126,-1.96595 148.55543,-2.24374 l 5.77124,-0.50507 1.60248,5.08901 c 2.96399,9.41276 3.9065,19.0869 2.67805,27.4883 -2.03098,13.89 -7.1894,26.11027 -16.14531,38.24818 -3.88554,5.26606 -5.44038,6.55763 -10.24728,8.51221 -45.23931,18.39514 -123.13914,51.38504 -167.07497,70.75481 -15.23349,6.71591 -30.57669,13.09686 -34.096,14.17987 -15.16607,4.66713 -35.56456,6.69104 -48.99581,4.86129 z"
     id="path950" /><path
     style="fill:#ffffff;stroke-width:10.8541"
     d="m 1498.5656,128.10097 c -5.2713,-8.38144 -0.9714,-8.11363 -139.0938,-8.66317 -112.1516,-0.4462 -154.0578,0.0775 -391.02323,4.88705 -145.97525,2.96274 -266.87082,5.81529 -268.65683,6.33899 l -3.24728,0.95218 0.93962,-9.32911 c 0.51679,-5.13101 1.51875,-11.50855 2.22658,-14.1723 l 1.28696,-4.84318 99.62069,-0.96281 c 54.79137,-0.52955 217.83939,-1.48841 362.32889,-2.1308 144.4895,-0.642386 407.2911,-2.246561 584.0037,-3.564829 315.9613,-2.357059 321.3269,-2.35409 323.1789,0.17882 3.9976,5.466949 4.963,12.979159 2.6224,20.404579 -1.2048,3.82218 -2.9401,7.54664 -3.8561,8.27657 -1.4671,1.16904 -475.8189,7.31102 -544.6408,7.05209 l -22.9616,-0.0864 -2.7281,-4.33769 z"
     id="path952" /><path
     style="fill:#ffffff;stroke-width:10.8541"
     d="m 679.40204,123.63411 c 0,-11.76529 3.19103,-16.7544 10.71609,-16.7544 h 5.1294 l -1.1105,5.74041 c -0.61077,3.15723 -1.13697,8.25144 -1.16932,11.32048 -0.0576,5.46149 -0.18633,5.61217 -6.05967,7.09109 -3.30047,0.83107 -6.33951,1.51103 -6.75342,1.51103 -0.41392,0 -0.75258,-4.00887 -0.75258,-8.90861 z"
     id="path954" /><path
     style="fill:#ffffff;stroke-width:10.8541"
     d="m 645.70594,135.58176 c -1.76368,-6.35073 -1.79665,-11.33178 -0.10445,-15.78261 1.29883,-3.41617 1.51615,-3.46464 15.53288,-3.46464 h 14.21562 v 8.6017 8.6017 l -12.81273,3.55446 c -7.047,1.95496 -13.40041,3.55446 -14.1187,3.55446 -0.71829,0 -1.93896,-2.27928 -2.71262,-5.06507 z"
     id="path956" /><path
     style="fill:#ffffff;stroke-width:5.42705"
     d="m 742.86984,260.80211 -0.27295,-5.55546 -3.49157,-3.33025 c -3.66518,-3.49584 -4.88718,-5.41591 -6.28232,-9.87116 -0.5065,-1.61744 -1.96538,-3.706 -3.63585,-5.20511 l -2.78992,-2.50374 2.36369,-0.0296 c 2.8998,-0.0363 186.1441,-11.2778 192.97908,-11.83868 4.13458,-0.33929 4.89623,-0.23983 4.89623,0.63938 0,0.62772 -0.59992,1.04118 -1.51076,1.04118 -1.29918,0 -85.42594,7.32748 -153.99097,13.41269 -11.79545,1.04685 -21.5969,2.054 -21.78101,2.23811 -0.1841,0.18411 -0.93798,3.65181 -1.67528,7.70601 -0.7373,4.05419 -2.05939,9.95445 -2.93798,13.11167 l -1.59744,5.74041 z"
     id="path958" /><path
     style="fill:#ffffff;stroke-width:5.42705"
     d=""
     id="path960" /><path
     style="fill:#ffffff;stroke-width:5.42705"
     d="m 647.59602,247.69143 c -0.13219,-4.59116 -0.16944,-8.46316 -0.0828,-8.60445 0.0867,-0.14129 3.73948,-0.40268 8.11736,-0.58086 l 7.95977,-0.32396 -3.12144,2.10676 c -4.4219,2.98449 -9.17226,8.28132 -11.03749,12.30723 l -1.59509,3.44284 z"
     id="path962" /><path
     style="fill:#ffffff;stroke-width:5.42705"
     d="M 776.03489,88.067183 V 77.599377 h 9.45479 9.45479 V 88.067183 98.53499 h -9.45479 -9.45479 z"
     id="path964" /><path
     style="fill:#ffffff;stroke-width:5.42705"
     d="m 774.10259,69.772845 c -1.35281,-3.5351 -1.44441,-4.987516 -1.44441,-22.901545 0,-17.914029 0.0916,-19.366445 1.44441,-22.901545 l 1.44441,-3.774478 h 10.64568 10.64569 l 0.71939,2.063644 c 1.08234,3.104787 1.10733,47.093357 0.0281,49.461999 l -0.83216,1.826403 H 786.15035 775.547 Z"
     id="path966" /><path
     style="fill:#ffffff;stroke-width:5.42705"
     d="m 754.16267,64.89151 c -0.64075,-1.03676 -1.76476,-11.898313 -1.76476,-17.053257 0,-2.83061 0.19813,-8.384831 0.4403,-12.342715 l 0.4403,-7.196153 h 8.67682 8.67682 V 46.8713 65.443214 h -8.06425 c -4.43534,0 -8.21769,-0.248267 -8.40523,-0.551704 z"
     id="path968" /><path
     style="fill:#ffffff;stroke-width:5.42705"
     d="m 741.80264,71.014789 c -0.71978,-4.21433 -0.70738,-39.547291 0.0162,-46.260951 l 0.56413,-5.233903 h 2.47683 c 2.28812,0 2.65882,0.295869 4.86534,3.883218 2.14549,3.488128 2.33934,4.19242 1.90533,6.922259 -0.73462,4.620599 -0.66239,26.801134 0.10263,31.514665 0.66531,4.099209 0.63803,4.226564 -1.77239,8.272944 -2.31452,3.885393 -2.58894,4.109644 -5.02916,4.109644 -2.55203,0 -2.58722,-0.03608 -3.12895,-3.207876 z"
     id="path970" /><path
     style="fill:#ffffff;stroke-width:5.42705"
     d="m 720.65682,38.42952 v -3.376711 h 9.53921 9.53921 l -0.42209,2.110444 c -0.23215,1.160745 -0.42209,2.680265 -0.42209,3.376712 0,1.175596 -0.65283,1.266267 -9.11712,1.266267 h -9.11712 z"
     id="path972" /><path
     style="fill:#ffffff;stroke-width:5.42705"
     d="m 721.33216,29.65007 v -3.376712 h 9.52705 c 8.40996,0 9.47898,0.125257 9.11712,1.068248 -0.22546,0.587537 -0.40993,2.107057 -0.40993,3.376712 v 2.308464 h -9.11712 -9.11712 z"
     id="path974" /><path
     style="fill:#ffffff;stroke-width:5.42705"
     d="m 722.0075,22.221304 v -2.701369 h 9.52705 c 8.40996,0 9.47898,0.125256 9.11712,1.068248 -0.22546,0.587536 -0.40993,1.803152 -0.40993,2.701369 v 1.633121 h -9.11712 -9.11712 z"
     id="path976" /><path
     style="fill:#ffffff;stroke-width:5.42705"
     d="m 720.65682,55.313079 v -3.376712 h 9.11712 9.11712 v 3.376712 3.376712 h -9.11712 -9.11712 z"
     id="path978" /><path
     style="fill:#ffffff;stroke-width:5.42705"
     d="m 721.32473,66.625064 c -0.004,-0.464298 -0.19581,-1.983819 -0.42604,-3.376712 l -0.4186,-2.532534 h 9.54316 9.54315 v 3.376712 3.376712 h -9.11712 c -6.83951,0 -9.11898,-0.210891 -9.12455,-0.844178 z"
     id="path988" /><path
     style="fill:#ffffff;stroke-width:5.42705"
     d="m 720.65682,46.8713 v -3.714383 h 9.11712 9.11712 v 3.714383 3.714383 h -9.11712 -9.11712 z"
     id="path990" /><path
     style="fill:#ffffff;stroke-width:5.42705"
     d="m 722.0075,72.927215 c 0,-0.712498 -0.18447,-1.776162 -0.40992,-2.363698 -0.36177,-0.942749 0.70064,-1.068248 9.04323,-1.068248 h 9.45316 l 0.27595,2.363698 0.27595,2.363698 h -9.31919 c -8.7365,0 -9.31918,-0.081 -9.31918,-1.29545 z"
     id="path992" /><path
     style="fill:#ffffff;stroke-width:5.42705"
     d="m 714.47894,70.370337 c -2.7309,-2.118782 -5.17283,-4.155108 -5.42651,-4.52517 -1.06118,-1.548022 -2.58045,-12.701755 -2.57918,-18.935011 7.6e-4,-3.693013 0.495,-9.478174 1.09833,-12.855915 l 1.09695,-6.141346 5.66969,-4.295817 c 3.11833,-2.3627 5.79065,-4.174861 5.93849,-4.027025 0.14783,0.147837 0.0155,2.547795 -0.29418,5.333241 -1.58839,14.288965 -1.35416,42.43429 0.40043,48.117522 0.60472,1.958731 -0.69534,1.370692 -5.90402,-2.670479 z"
     id="path994" /><path
     style="fill:#ffffff;stroke-width:5.42705"
     d="M 647.71984,47.208971 V 16.143223 h 6.59866 c 6.51059,0 6.84163,0.08112 24.80476,6.078081 16.1427,5.389215 18.75328,6.078081 23.03394,6.078081 h 4.82784 l -1.03366,4.558561 c -1.33539,5.88924 -1.33017,22.481449 0.009,28.364379 l 0.96078,4.220889 h -4.46568 c -3.8104,0 -7.35174,0.941428 -24.13395,6.415753 -18.25841,5.95586 -20.06013,6.415752 -25.13494,6.415752 h -5.46667 z"
     id="path996" /><path
     style="fill:#ffffff;stroke-width:1.91875"
     d="M 642.93847,46.96131 V 15.682495 h 1.67138 1.67139 V 46.96131 78.240125 h -1.67139 -1.67138 z"
     id="path998" /><path
     style="fill:#ffffff;stroke-width:1.91875"
     d="M 629.08983,46.96131 V 15.682495 h 6.20801 6.20801 V 46.96131 78.240125 h -6.20801 -6.20801 z"
     id="path1000" /><path
     style="fill:#ffffff;stroke-width:1.91875"
     d="M 624.55321,46.96131 V 15.682495 h 1.67138 1.67139 V 46.96131 78.240125 h -1.67139 -1.67138 z"
     id="path1002" /><path
     style="fill:#ffffff;stroke-width:1.91875"
     d="m 590.40232,77.625226 c -1.58653,-4.172911 -3.3319,-13.43926 -4.08921,-21.710057 -0.40507,-4.423951 -0.41171,-17.071868 -0.0109,-20.772953 0.65368,-6.036063 2.04965,-12.846582 3.55171,-17.327711 l 0.67462,-2.012625 16.29603,-0.06135 16.29602,-0.06135 v 31.280472 31.280472 h -16.24224 -16.24224 z"
     id="path1004" /><path
     style="fill:#ffffff;stroke-width:3.8375"
     d="M 956.80247,69.513862 954.3455,66.915983 V 46.933824 26.951666 l 2.5221,-2.490768 2.5221,-2.490768 8.58069,0.0144 8.58068,0.0144 2.02955,2.678315 2.02954,2.678316 v 19.549132 19.549132 l -2.17684,2.828965 -2.17684,2.828961 h -8.49852 -8.49852 z"
     id="path1006" /><path
     style="fill:#ffffff;stroke-width:3.8375"
     d="m 958.16582,87.154225 v -9.789552 h 9.55078 9.55078 v 9.789552 9.789553 h -9.55078 -9.55078 z"
     id="path1008" /><path
     style="fill:#ffffff;stroke-width:3.8375"
     d="M 800.10036,46.802167 V 28.17814 h 44.93065 44.93066 l -0.27467,1.790771 c -0.15106,0.984925 -0.49921,3.724806 -0.77366,6.088625 -0.27445,2.363818 -0.60926,4.996253 -0.74403,5.849854 l -0.24503,1.552003 h 29.15153 c 25.35083,0 29.15153,-0.09167 29.15153,-0.703107 0,-0.386708 -0.53723,-3.765838 -1.19385,-7.509176 -0.65662,-3.743338 -1.19385,-6.865222 -1.19385,-6.93752 0,-0.0723 2.04148,-0.13145 4.53662,-0.13145 h 4.53663 v 18.624027 18.624027 h -76.40627 -76.40626 z"
     id="path1010" /><path
     style="fill:#ffffff;stroke-width:3.8375"
     d="m 889.87772,41.268996 c 0,-2.276927 1.58848,-12.81247 2.33376,-15.478552 l 0.86769,-3.104005 23.60529,-0.123783 23.60528,-0.123784 1.09349,3.227788 c 0.60143,1.775284 1.58191,6.182562 2.17887,9.793952 l 1.08537,6.566163 h -27.38488 c -24.68982,0 -27.38487,-0.07458 -27.38487,-0.757779 z"
     id="path1012" /><path
     style="fill:#ffffff;stroke-width:3.8375"
     d="m 893.70069,20.179359 c 10e-4,-0.459632 0.2026,-1.587818 0.44697,-2.507081 0.24437,-0.919263 0.68185,-2.586957 0.97219,-3.705986 l 0.52787,-2.0346 20.59047,0.124443 20.59047,0.124443 1.35656,4.037484 c 0.74611,2.220616 1.35657,4.208373 1.35657,4.417237 0,0.208864 -10.31485,0.379753 -22.92188,0.379753 -21.51302,0 -22.92172,-0.05136 -22.91922,-0.835693 z"
     id="path1014" /><path
     style="fill:#ffffff;stroke-width:3.8375"
     d="m 896.25832,9.4347276 c 0.15619,-0.5909547 0.53779,-2.2026494 0.84799,-3.5815437 l 0.56401,-2.5070805 h 18.01517 18.01517 l 1.24918,3.3700941 c 0.68705,1.853552 1.24918,3.4652465 1.24918,3.5815435 0,0.116298 -9.05056,0.21145 -20.11235,0.21145 h -20.11234 z"
     id="path1016" /><path
     style="fill:#ffffff;stroke-width:3.8375"
     d="m 1135.3328,84.736774 c -5.6469,-1.148329 -30.0592,-5.962979 -54.2497,-10.699226 l -43.9826,-8.611354 h -27.5289 -27.52883 V 46.802167 28.17814 h 28.11023 28.1103 l 25.7323,-5.038804 c 14.1527,-2.771342 38.2712,-7.49898 53.5965,-10.505862 l 27.8642,-5.4670574 h 22.3472 22.3471 l 0.7644,4.1784674 c 4.0546,22.165653 4.1117,46.181957 0.1642,69.123793 l -1.0681,6.208009 -22.2056,0.07398 -22.2056,0.07398 z"
     id="path1018" /><path
     style="fill:#ffffff;stroke-width:3.8375"
     d="m 1193.3868,88.859303 -1.8324,-1.876462 1.0172,-6.122319 c 2.1583,-12.991367 2.6477,-19.337299 2.6632,-34.535895 0.016,-15.307497 -0.3169,-19.794165 -2.4029,-32.416658 l -1.2139,-7.3458527 1.5585,-1.6080065 1.5586,-1.6080064 h 15.6769 15.6769 l 0.5145,1.3132326 c 0.8807,2.2483368 2.2416,9.673904 2.7786,15.161868 0.8431,8.615264 1.1461,32.911798 0.5539,44.411142 -0.6779,13.163052 -1.7113,20.652322 -3.4758,25.19019 l -0.5107,1.313233 h -15.3652 -15.3651 z"
     id="path1020" /></g></svg>
