<?xml version="1.0" encoding="UTF-8" standalone="no"?>
<svg
   version="1.1"
   x="0px"
   y="0px"
   width="2393.7556"
   height="602.01263"
   viewBox="0 0 2393.7555 602.01262"
   enable-background="new 0 0 2248.308 848.197"
   xml:space="preserve"
   id="svg238"
   sodipodi:docname="weapon_stoner63_r.svg"
   inkscape:version="1.2.2 (732a01da63, 2022-12-09)"
   xmlns:inkscape="http://www.inkscape.org/namespaces/inkscape"
   xmlns:sodipodi="http://sodipodi.sourceforge.net/DTD/sodipodi-0.dtd"
   xmlns="http://www.w3.org/2000/svg"
   xmlns:svg="http://www.w3.org/2000/svg"
   xmlns:rdf="http://www.w3.org/1999/02/22-rdf-syntax-ns#"
   xmlns:cc="http://creativecommons.org/ns#"
   xmlns:dc="http://purl.org/dc/elements/1.1/"><metadata
   id="metadata244"><rdf:RDF><cc:Work
       rdf:about=""><dc:format>image/svg+xml</dc:format><dc:type
         rdf:resource="http://purl.org/dc/dcmitype/StillImage" /></cc:Work></rdf:RDF></metadata><defs
   id="defs242">

	

		
		
		
		
		
		
		
		
		
		
		
		
		
		
		
		
		
		
		
		
		
		
		
		
		
		
		
		
		
		
		
		
		
		
		
		
		
		
	
			
			
		
				
				
					
				
					
				
					
				
					
				
					
			
					
						
					
					
						
					
					
					
					
						
					
					
						
					
				
						
							
						
							
						
							
						
						
						
						
							
						
						
						
						
						
					
							
							
							
								
							
								
							
								
							
								
							
								
							
								
							
								
							
								
							
								
							
								
							
								
							
								
							
								
							
								
							
								
							
								
							
								
							
								
							
							
							
							
							
							
							
							
								
							
							
							
								
							
								
						
								
								
								
								
								
								
								
								
							
								
								
								
								
								
								
								
								
							</defs><sodipodi:namedview
   pagecolor="#ffffff"
   bordercolor="#666666"
   borderopacity="1"
   objecttolerance="10"
   gridtolerance="10"
   guidetolerance="10"
   inkscape:pageopacity="0"
   inkscape:pageshadow="2"
   inkscape:window-width="1920"
   inkscape:window-height="1009"
   id="namedview240"
   showgrid="false"
   inkscape:zoom="0.35727902"
   inkscape:cx="1374.276"
   inkscape:cy="-27.989329"
   inkscape:window-x="-8"
   inkscape:window-y="-8"
   inkscape:window-maximized="1"
   inkscape:current-layer="svg238"
   inkscape:document-rotation="0"
   inkscape:pagecheckerboard="true"
   inkscape:showpageshadow="2"
   inkscape:deskcolor="#d1d1d1" />


<path
   style="fill:#ffffff;stroke-width:3.9761"
   d=""
   id="path1250" /><rect
   style="fill:none;stroke:#000000;stroke-width:3;stroke-miterlimit:10"
   id="rect2"
   height="78.537003"
   width="10.946"
   stroke-miterlimit="10"
   y="-120.36319"
   x="-1850.3188"
   transform="scale(-1)" /><rect
   style="fill:none;stroke:#000000;stroke-width:3.12613;stroke-miterlimit:10"
   id="rect4"
   height="104.18367"
   width="17.232994"
   stroke-miterlimit="10"
   y="130.26871"
   x="-1515.6"
   transform="scale(-1,1)" /><rect
   style="fill:none;stroke:#000000;stroke-width:3.12629;stroke-miterlimit:10"
   id="rect6"
   height="104.19808"
   width="17.233353"
   stroke-miterlimit="10"
   y="130.25423"
   x="-1498.36"
   transform="scale(-1,1)" /><rect
   style="fill:none;stroke:#000000;stroke-width:3.12613;stroke-miterlimit:10"
   id="rect8"
   height="104.18367"
   width="17.233994"
   stroke-miterlimit="10"
   y="130.26871"
   x="-1481.1321"
   transform="scale(-1,1)" /><path
   style="fill:none;stroke:#000000;stroke-width:3;stroke-miterlimit:10"
   inkscape:connector-curvature="0"
   id="path10"
   d="m 1515.6631,228.90845 h 65.403 V 167.35 l 44.878,-0.002 v -24.36755 l -0.6565,-51.446 0.052,-11.769296 L 518.17061,79.49345 c 0,0 -7.663,0 -7.663,27.366 v 123.141 l 43.785,4.928 2.22654,6.567 c 0,0 100.704,-3.284 134.636,4.379 0,0 37.217,9.854 42.689,14.23 h 131.353 v -41.596 l -13.136,-13.135 v -18.15794 m 218.91995,0.29976 v 54.24958 l 101.798,0.8246 9.03,-8.212"
   stroke-miterlimit="10"
   sodipodi:nodetypes="ccccccccsccccccccccccc" /><polyline
   style="fill:none;stroke:#000000;stroke-width:3;stroke-miterlimit:10"
   id="polyline12"
   points="569.167,329.15 569.167,266.758          1044.225,266.758 1044.225,357.744 996.336,357.744        "
   stroke-miterlimit="10"
   transform="matrix(-0.99972027,0,0,1.0908654,2150.0074,-160.72575)" /><rect
   style="fill:none;stroke:#000000;stroke-width:3.12629;stroke-miterlimit:10"
   id="rect14"
   height="104.19808"
   width="17.233353"
   stroke-miterlimit="10"
   y="130.25423"
   x="-1463.8933"
   transform="scale(-1,1)" /><rect
   style="fill:none;stroke:#000000;stroke-width:3.12613;stroke-miterlimit:10"
   id="rect16"
   height="104.18367"
   width="17.232994"
   stroke-miterlimit="10"
   y="130.26871"
   x="-1446.6641"
   transform="scale(-1,1)" /><rect
   style="fill:none;stroke:#000000;stroke-width:3.12629;stroke-miterlimit:10"
   id="rect18"
   height="104.19808"
   width="17.233353"
   stroke-miterlimit="10"
   y="130.25423"
   x="-1429.4266"
   transform="scale(-1,1)" /><rect
   style="fill:none;stroke:#000000;stroke-width:3.12613;stroke-miterlimit:10"
   id="rect20"
   height="104.18367"
   width="17.233994"
   stroke-miterlimit="10"
   y="130.26871"
   x="-1412.1962"
   transform="scale(-1,1)" /><rect
   style="fill:none;stroke:#000000;stroke-width:3.12629;stroke-miterlimit:10"
   id="rect22"
   height="104.19808"
   width="17.233353"
   stroke-miterlimit="10"
   y="130.25423"
   x="-1394.9598"
   transform="scale(-1,1)" /><rect
   style="fill:none;stroke:#000000;stroke-width:3.12613;stroke-miterlimit:10"
   id="rect24"
   height="104.18367"
   width="17.233994"
   stroke-miterlimit="10"
   y="130.26871"
   x="-1377.7281"
   transform="scale(-1,1)" /><rect
   style="fill:none;stroke:#000000;stroke-width:3.12629;stroke-miterlimit:10"
   id="rect26"
   height="104.19808"
   width="17.232353"
   stroke-miterlimit="10"
   y="130.25423"
   x="-1360.4932"
   transform="scale(-1,1)" /><rect
   style="fill:none;stroke:#000000;stroke-width:3.12613;stroke-miterlimit:10"
   id="rect28"
   height="104.18367"
   width="17.233994"
   stroke-miterlimit="10"
   y="130.26871"
   x="-1343.2601"
   transform="scale(-1,1)" /><rect
   style="fill:none;stroke:#000000;stroke-width:3.12629;stroke-miterlimit:10"
   id="rect30"
   height="104.19808"
   width="17.233353"
   stroke-miterlimit="10"
   y="130.25423"
   x="-1326.0264"
   transform="scale(-1,1)" /><rect
   style="fill:none;stroke:#000000;stroke-width:3.12613;stroke-miterlimit:10"
   id="rect32"
   height="104.18367"
   width="17.232994"
   stroke-miterlimit="10"
   y="130.26871"
   x="-1308.7921"
   transform="scale(-1,1)" /><rect
   style="fill:none;stroke:#000000;stroke-width:3.12629;stroke-miterlimit:10"
   id="rect34"
   height="104.19808"
   width="17.233353"
   stroke-miterlimit="10"
   y="130.25423"
   x="-1291.5607"
   transform="scale(-1,1)" /><rect
   style="fill:none;stroke:#000000;stroke-width:3.12613;stroke-miterlimit:10"
   id="rect36"
   height="104.18367"
   width="17.233994"
   stroke-miterlimit="10"
   y="130.26871"
   x="-1274.3241"
   transform="scale(-1,1)" /><rect
   style="fill:none;stroke:#000000;stroke-width:3.12629;stroke-miterlimit:10"
   id="rect38"
   height="104.19808"
   width="17.233353"
   stroke-miterlimit="10"
   y="130.25423"
   x="-1257.093"
   transform="scale(-1,1)" /><rect
   style="fill:none;stroke:#000000;stroke-width:3.12613;stroke-miterlimit:10"
   id="rect40"
   height="104.18367"
   width="17.233994"
   stroke-miterlimit="10"
   y="130.26871"
   x="-1239.8562"
   transform="scale(-1,1)" /><rect
   style="fill:none;stroke:#000000;stroke-width:3.12629;stroke-miterlimit:10"
   id="rect42"
   height="104.19808"
   width="17.232353"
   stroke-miterlimit="10"
   y="130.25423"
   x="-1222.6263"
   transform="scale(-1,1)" /><rect
   style="fill:none;stroke:#000000;stroke-width:3.12613;stroke-miterlimit:10"
   id="rect44"
   height="104.18367"
   width="17.233994"
   stroke-miterlimit="10"
   y="130.26871"
   x="-1205.3882"
   transform="scale(-1,1)" /><rect
   style="fill:none;stroke:#000000;stroke-width:3.12629;stroke-miterlimit:10"
   id="rect46"
   height="104.19808"
   width="17.233353"
   stroke-miterlimit="10"
   y="130.25423"
   x="-1188.1597"
   transform="scale(-1,1)" /><rect
   style="fill:none;stroke:#000000;stroke-width:3.12613;stroke-miterlimit:10"
   id="rect48"
   height="104.18367"
   width="17.232994"
   stroke-miterlimit="10"
   y="130.26871"
   x="-1170.9202"
   transform="scale(-1,1)" /><polyline
   style="fill:none;stroke:#000000;stroke-width:3;stroke-miterlimit:10"
   id="polyline86"
   points="1206.773,286.731 1206.773,258.819          1573.739,258.819 1574.56,287.553 1044.225,287.553        "
   stroke-miterlimit="10"
   transform="matrix(-1,0,0,1,2150.2331,-128.15455)" /><polyline
   style="fill:none;stroke:#000000;stroke-width:3;stroke-miterlimit:10"
   id="polyline88"
   points="1574.56,287.553 1574.56,314.645          1045.867,314.645        "
   stroke-miterlimit="10"
   transform="matrix(-1,0,0,1,2150.2331,-128.15455)" /><circle
   style="fill:none;stroke:#000000;stroke-width:3;stroke-miterlimit:10"
   id="circle90"
   r="9.0290003"
   cy="173.07947"
   cx="-1091.2312"
   stroke-miterlimit="10"
   transform="scale(-1,1)" /><polyline
   style="fill:none;stroke:#000000;stroke-width:3;stroke-miterlimit:10"
   id="polyline108"
   points="1574.56,258.819 1577.022,249.789         1577.022,234.19 1603.293,234.19 1603.293,207.647       "
   stroke-miterlimit="10"
   transform="matrix(-1,0,0,1,2150.2331,-128.15455)" /><path
   style="fill:none;stroke:#000000;stroke-width:3;stroke-miterlimit:10"
   inkscape:connector-curvature="0"
   id="path120"
   d="m 512.73415,106.85945 c 0,0 -35.029,33.931 -65.678,33.931 -30.649,0 -425.801,0 -425.801,0 l -16.4180005,17.515 c 0,0 -15.3239995,167.473 19.7030005,232.056 l 17.514,10.946 c 0,0 421.421,-165.834 436.746,-168.022 l 33.934,-3.284"
   stroke-miterlimit="10" /><path
   style="fill:none;stroke:#000000;stroke-width:3;stroke-miterlimit:10"
   inkscape:connector-curvature="0"
   id="path122"
   d="m 784.19515,261.19645 v 41.048 c 0,0 0,18.882 -18.061,18.882 -18.062,0 -67.318,0 -67.318,0 l -9.031,-9.03 c 0,0 -21.344,-4.105 -36.121,16.419 -14.777,20.523 -51.721,92.768 -51.721,92.768 l -1.641,34.48 -4.926,15.598 h -24.629 l -95.23,-45.974 1.642,-8.209 c 0,0 45.152,-88.663 100.978,-118.218 0,0 26.545,-22.983 -21.617,-57.465"
   stroke-miterlimit="10" /><path
   style="fill:none;stroke:#000000;stroke-width:3;stroke-miterlimit:10"
   inkscape:connector-curvature="0"
   id="path132"
   d="m 1924.4971,188.13145 c 0,10.881 8.821,19.702 19.703,19.702 h 11.494 c 10.881,0 19.702,-8.821 19.702,-19.702 v -148.593 c 0,-10.88 -8.821,-19.702 -19.702,-19.702 h -11.494 c -10.882,0 -19.703,8.822 -19.703,19.702 z"
   stroke-miterlimit="10" /><line
   style="fill:none;stroke:#000000;stroke-width:3;stroke-miterlimit:10"
   id="line134"
   y2="79.86219"
   x2="1925.2998"
   y1="79.86219"
   x1="1850.0458"
   stroke-miterlimit="10" /><polyline
   style="fill:none;stroke:#000000;stroke-width:3;stroke-miterlimit:10"
   id="polyline136"
   points="309.473,292.479 523.741,292.479        523.741,326.138 310.841,326.138      "
   stroke-miterlimit="10"
   transform="rotate(180,1074.5599,203.0001)" /><line
   style="fill:none;stroke:#000000;stroke-width:3;stroke-miterlimit:10"
   id="line138"
   y2="113.52119"
   x2="1849.7709"
   y1="113.52119"
   x1="1923.3838"
   stroke-miterlimit="10" /><circle
   style="fill:none;stroke:#000000;stroke-width:3;stroke-miterlimit:10"
   id="circle140"
   r="13.682"
   cy="182.93347"
   cx="-1950.4941"
   stroke-miterlimit="10"
   transform="scale(-1,1)" /><line
   style="fill:none;stroke:#000000;stroke-width:3;stroke-miterlimit:10"
   id="line144"
   y2="98.648445"
   x2="1924.2241"
   y1="98.648445"
   x1="1975.67"
   stroke-miterlimit="10" /><g
   id="g11914"
   transform="matrix(0.81211355,0,0,0.74025123,432.35425,69.541542)"><rect
     style="fill:none;stroke:#000000;stroke-width:3;stroke-miterlimit:10"
     id="rect126"
     height="52.541"
     width="121.501"
     stroke-miterlimit="10"
     y="86.057999"
     x="-2413.6812"
     transform="scale(-1,1)" /><ellipse
     style="fill:none;stroke:#000000;stroke-width:3;stroke-miterlimit:10"
     id="ellipse146"
     ry="3.2839999"
     rx="36.122002"
     cy="126.284"
     cx="-2366.0662"
     stroke-miterlimit="10"
     transform="scale(-1,1)" /><ellipse
     style="fill:none;stroke:#000000;stroke-width:3;stroke-miterlimit:10"
     id="ellipse148"
     ry="3.2839999"
     rx="36.122002"
     cy="99.466995"
     cx="-2366.0662"
     stroke-miterlimit="10"
     transform="scale(-1,1)" /><line
     style="fill:none;stroke:#000000;stroke-width:3;stroke-miterlimit:10"
     id="line150"
     y2="137.23001"
     x2="2329.3972"
     y1="86.330002"
     x1="2329.3972"
     stroke-miterlimit="10" /><line
     style="fill:none;stroke:#000000;stroke-width:3;stroke-miterlimit:10"
     id="line152"
     y2="137.23001"
     x2="2404.9253"
     y1="86.330002"
     x1="2404.9253"
     stroke-miterlimit="10" /></g><path
   style="fill:none;stroke:#000000;stroke-width:3;stroke-miterlimit:10"
   inkscape:connector-curvature="0"
   id="path156"
   d="m 733.84415,260.10445 c 0,0 -21.894,3.966 -19.021,25.721 0,0 1.232,19.292 8.621,23.397 l -1.232,4.926 c 0,0 -31.195,-15.599 -9.03,-62.393"
   stroke-miterlimit="10" /><polyline
   style="fill:none;stroke:#000000;stroke-miterlimit:10"
   id="polyline174"
   points="1395.593,388.53 1395.593,423.421 1371.784,423.421   "
   stroke-miterlimit="10"
   transform="matrix(-1,0,0,1,2150.2331,-128.15455)" /><path
   style="fill:none;stroke:#000000;stroke-miterlimit:10"
   inkscape:connector-curvature="0"
   id="path176"
   d="m 779.26915,260.78545 v 39.406 c 0,0 1.231,19.292 -31.607,19.292"
   stroke-miterlimit="10" /><path
   style="fill:none;stroke:#000000;stroke-miterlimit:10"
   inkscape:connector-curvature="0"
   id="path178"
   d="m 723.03415,319.48445 c 0,0 -32.838,-3.694 -32.838,-29.145 0,0 -0.411,-24.218 13.956,-29.554 v -10.262"
   stroke-miterlimit="10" /><path
   style="fill:none;stroke:#000000;stroke-miterlimit:10"
   inkscape:connector-curvature="0"
   id="path180"
   d="m 605.37315,221.19245 c 5.275,1.848 11.049,-0.933 12.896,-6.207 v 0 c 1.844,-5.274 -0.935,-11.049 -6.208,-12.896 l -21.757,-7.613 c -5.275,-1.848 -11.049,0.934 -12.895,6.208 v 0 c -1.846,5.274 0.934,11.048 6.208,12.896 z"
   stroke-miterlimit="10" /><polyline
   style="fill:none;stroke:#000000;stroke-miterlimit:10"
   id="polyline186"
   points="1340.863,338.452 1440.472,338.452 1457.438,315.465   "
   stroke-miterlimit="10"
   transform="matrix(-1,0,0,1,2150.2331,-128.15455)" /><polyline
   style="fill:none;stroke:#000000;stroke-miterlimit:10"
   id="polyline188"
   points="1574.56,314.645 1601.379,314.645 1601.379,288.1     1611.23,282.627 1611.23,259.094 1603.567,259.094 1603.567,229.539   "
   stroke-miterlimit="10"
   transform="matrix(-1,0,0,1,2150.2331,-128.15455)" /><line
   style="fill:none;stroke:#000000;stroke-miterlimit:10"
   id="line190"
   y2="130.93945"
   x2="577.86121"
   y1="130.93945"
   x1="546.66614"
   stroke-miterlimit="10" /><line
   style="fill:none;stroke:#000000;stroke-miterlimit:10"
   id="line192"
   y2="158.85147"
   x2="577.86121"
   y1="158.85147"
   x1="546.66614"
   stroke-miterlimit="10" /><circle
   style="fill:none;stroke:#000000;stroke-miterlimit:10"
   id="circle194"
   r="10.399"
   cy="214.67447"
   cx="-553.78015"
   stroke-miterlimit="10"
   transform="scale(-1,1)" /><circle
   style="fill:none;stroke:#000000;stroke-miterlimit:10"
   id="circle196"
   r="10.399"
   cy="221.24347"
   cx="-657.76819"
   stroke-miterlimit="10"
   transform="scale(-1,1)" /><circle
   style="fill:none;stroke:#000000;stroke-miterlimit:10"
   id="circle198"
   r="17.516001"
   cy="214.12646"
   cx="-826.33618"
   stroke-miterlimit="10"
   transform="scale(-1,1)" /><circle
   style="fill:none;stroke:#000000;stroke-miterlimit:10"
   id="circle200"
   r="7.1139998"
   cy="210.29745"
   cx="-520.94214"
   stroke-miterlimit="10"
   transform="scale(-1,1)" /><path
   style="fill:#ffffff;stroke-width:7.9522"
   d="M 34.640895,394.34394 C 25.241134,388.33671 25.489654,388.63272 21.520588,378.71608 7.8257524,344.49978 1.451897,282.40644 4.141629,209.41233 4.7677087,192.42175 5.6216065,174.22911 6.0391798,168.98424 l 0.7592242,-9.53612 7.841139,-8.51578 7.841139,-8.51578 216.078688,-0.008 c 240.59751,-0.009 220.26845,0.58564 236.31206,-6.90842 9.60687,-4.48741 20.11827,-11.12529 29.28352,-18.49233 l 6.67962,-5.36906 v 58.4276 c 0,56.30065 -0.067,58.42741 -1.84051,58.42741 -7.64742,0 -33.1139,3.38863 -38.10664,5.07057 -29.38332,9.89852 -166.66602,62.71682 -346.97559,133.49575 -43.269042,16.98488 -79.561602,31.02715 -80.650132,31.20502 -1.088529,0.17788 -4.967891,-1.58665 -8.620803,-3.92116 z"
   id="path1180" /><path
   style="fill:#ffffff;stroke-width:7.9522"
   d="m 524.19379,446.63944 -45.52032,-22.13205 0.19943,-3.34405 c 0.35945,-6.02736 21.68958,-40.93384 37.99921,-62.18523 20.97186,-27.32625 37.24853,-42.70627 60.88434,-57.53036 6.00236,-3.7646 9.27518,-10.84759 9.27518,-20.07322 0,-10.18517 -4.48131,-18.88769 -15.30777,-29.72704 l -8.00825,-8.0178 20.31676,-0.63413 c 22.5763,-0.70467 74.27328,0.64303 89.58682,2.33546 9.77427,1.08023 19.71929,3.00772 25.97627,5.03458 2.94812,0.955 3.21611,1.38587 3.21608,5.17075 -2e-5,3.55829 -0.49482,4.52374 -3.58019,6.98555 -4.57906,3.65364 -7.94527,11.04152 -9.35758,20.53717 -2.53475,17.04248 3.49951,27.05467 20.52463,34.05491 l 5.7724,2.37345 -7.82097,0.0235 -7.82095,0.0235 -5.23164,-4.94786 c -4.48883,-4.24535 -5.79514,-4.94786 -9.20045,-4.94786 -9.81801,0 -19.95729,3.81275 -27.54176,10.35674 -7.21775,6.22758 -20.26509,27.87055 -45.09974,74.8116 l -13.3848,25.29923 -0.99277,18.24195 c -0.77897,14.31351 -1.45664,19.57387 -3.14677,24.42678 l -2.15401,6.18483 -12.03141,-0.0942 -12.03142,-0.0942 z"
   id="path1182" /><path
   style="fill:#ffffff;stroke-width:7.9522"
   d="m 593.95863,216.10987 c -13.44396,-4.74043 -15.83315,-6.55821 -15.83315,-12.04638 0,-3.84183 4.42665,-9.21518 7.5916,-9.21518 0.99353,0 7.36878,1.85366 14.16723,4.11925 13.88475,4.62712 17.82405,7.43472 17.82405,12.70347 0,4.11268 -4.66739,8.92727 -8.58263,8.85331 -1.5386,-0.0291 -8.36379,-2.01558 -15.1671,-4.41447 z"
   id="path1186" /><path
   style="fill:#ffffff;stroke-width:7.9522"
   d="m 551.6882,223.76824 c -3.13987,-0.5028 -7.20818,-5.74076 -7.20818,-9.28054 0,-4.29181 4.72508,-8.7541 9.26963,-8.7541 10.37405,0 12.63122,14.36316 2.75656,17.54093 -1.44389,0.46466 -3.612,0.68683 -4.81801,0.49371 z"
   id="path1188" /><path
   style="fill:#ffffff;stroke-width:7.9522"
   d="m 517.40024,214.56793 c -5.09979,-4.0115 -1.7809,-10.62195 4.99112,-9.94115 4.2898,0.43126 5.76744,7.86678 2.07703,10.45164 -2.88743,2.02243 -3.94518,1.94604 -7.06815,-0.51049 z"
   id="path1190" /><path
   style="fill:#ffffff;stroke-width:7.9522"
   d="m 652.05804,228.4817 c -6.79555,-5.34538 -2.51749,-16.81067 6.2726,-16.81067 2.75344,0 8.85633,6.10289 8.85633,8.85634 0,2.94735 -2.60679,7.70306 -4.89304,8.92663 -3.01808,1.61522 -7.48592,1.19083 -10.23589,-0.9723 z"
   id="path1194" /><path
   style="fill:#ffffff;stroke-width:7.9522"
   d="m 578.12548,173.07772 v -11.87487 h 262.73142 262.7314 v 11.87487 11.87486 H 840.8569 578.12548 Z m 519.17592,8.97903 c 8.9901,-5.48179 4.5865,-19.85693 -6.0828,-19.85693 -4.5508,0 -9.1241,3.28512 -10.25,7.36292 -2.8469,10.31064 7.2485,18.03328 16.3328,12.49401 z"
   id="path1196" /><path
   style="fill:#ffffff;stroke-width:7.9522"
   d="m 578.12548,144.87491 v -12.36965 h 181.5865 181.5865 v 12.36965 12.36965 h -181.5865 -181.5865 z"
   id="path1198" /><path
   style="fill:#ffffff;stroke-width:7.9522"
   d="m 543.73784,155.99864 -4.20568,-2.11271 v -11.18512 -11.18513 h 17.31751 17.31752 v 13.35923 13.35922 l -13.11183,-0.0614 c -11.33875,-0.0531 -13.68056,-0.34709 -17.31752,-2.17411 z"
   id="path1200" /><path
   style="fill:#ffffff;stroke-width:7.9522"
   d="m 549.42788,173.04726 v -12.8949 l 12.12226,0.27785 12.12226,0.27785 0.27696,12.61705 0.27696,12.61705 H 561.8271 549.42788 Z"
   id="path1202" /><path
   style="fill:#ffffff;stroke-width:7.9522"
   d="m 547.44874,118.65125 v -10.8853 h 11.75683 11.75683 l 0.46962,9.15354 c 0.25829,5.03445 0.80436,9.93283 1.21348,10.8853 0.68686,1.59904 -0.25011,1.73175 -12.22645,1.73175 h -12.97031 z"
   id="path1204" /><path
   style="fill:#ffffff;stroke-width:5.62306"
   d="m 1087.0943,178.73232 c -3.8084,-3.08491 -4.0294,-7.02283 -0.5872,-10.465 2.2477,-2.24768 2.7329,-2.43315 5.4218,-2.07249 3.8874,0.52141 6.1043,3.01745 6.1043,6.87309 0,5.56305 -6.7494,9.05803 -10.9389,5.6644 z"
   id="path1312" /><path
   style="fill:#ffffff;stroke-width:7.9522"
   d="m 819.75965,229.19135 c -3.97378,-1.73087 -8.0674,-6.70233 -9.30578,-11.30131 -2.59435,-9.63467 5.5683,-19.96265 15.77734,-19.96265 14.51089,0 21.94896,17.50648 11.65631,27.43468 -5.38669,5.19595 -11.85387,6.56206 -18.12787,3.82928 z"
   id="path1318" /><path
   style="fill:#ffffff;stroke-width:5.62306"
   d="m 755.17465,278.2407 v -16.44373 h 11.5456 11.54559 v 16.44373 16.44373 h -11.54559 -11.5456 z"
   id="path1326" /><path
   style="fill:#ffffff;stroke-width:5.62306"
   d="m 765.49801,317.76633 c 7.19446,-2.5571 12.41433,-7.62873 14.09985,-13.69941 0.46307,-1.66782 0.7609,-10.44831 0.76328,-22.50249 0.003,-17.4555 0.1318,-19.76746 1.09739,-19.76746 0.9738,0 1.06744,2.46986 0.85554,22.56639 -0.20408,19.355 -0.40579,22.9278 -1.41744,25.10593 -3.04407,6.554 -7.89728,9.69875 -14.87612,9.63931 l -4.1984,-0.0358 3.6759,-1.30651 z"
   id="path1328" /><path
   style="fill:#ffffff;stroke-width:5.62306"
   d="m 716.70587,307.22881 c -4.2819,-4.46593 -7.36002,-10.47505 -8.75557,-17.09265 -1.31201,-6.22145 -1.30826,-8.5234 0.0264,-16.17679 1.07205,-6.14759 4.60556,-17.43175 5.84744,-18.67363 0.66764,-0.66764 14.06093,3.42437 14.06093,4.296 0,0.25756 -1.41741,1.22023 -3.1498,2.13926 -3.97496,2.10872 -8.43311,6.91063 -10.35065,11.14878 -3.38671,7.48535 -0.5667,27.84639 4.83818,34.93255 2.90718,3.81151 1.34643,3.45587 -2.51691,-0.57352 z"
   id="path1330" /><path
   style="fill:#ffffff;stroke-width:5.62306"
   d="m 1938.5932,204.92276 c -2.2994,-0.70621 -4.4918,-2.13555 -6.7698,-4.41357 -5.7273,-5.72733 -5.5736,-4.1977 -5.5736,-55.44828 v -44.65592 h 23.8193 23.8193 l -0.2033,46.00746 -0.2033,46.00746 -2.0634,3.72506 c -2.4634,4.44697 -6.2372,7.61268 -10.6627,8.94455 -4.3492,1.30893 -17.6845,1.20859 -22.1625,-0.16676 z m 19.2289,-8.51033 c 5.3878,-2.81463 7.9627,-7.14262 7.9627,-13.38405 0,-8.5806 -5.5076,-14.72493 -13.7322,-15.31984 -5.3862,-0.38961 -9.5247,1.17192 -12.8444,4.84643 -3.1954,3.53691 -3.98,5.59739 -3.9921,10.48419 -0.029,11.81596 11.9835,18.9225 22.606,13.37327 z"
   id="path1338" /><path
   style="fill:#ffffff;stroke-width:5.62306"
   d="m 1926.2537,67.342593 c 0,-17.962475 0.2844,-30.573466 0.7186,-32.136863 1.335,-4.806576 4.873,-9.111252 9.3742,-11.40579 3.995,-2.036451 4.4883,-2.114514 13.2949,-2.103494 10.7146,0.01341 13.3092,0.714998 17.7672,4.804323 6.1539,5.644852 6.0444,4.951247 6.2823,39.792224 l 0.2091,30.613329 h -23.8251 -23.8251 z"
   id="path1340" /><path
   style="fill:#ffffff;stroke-width:5.62306"
   d="m 1946.5421,194.08476 c -2.2353,-0.8887 -5.4407,-3.92375 -6.7099,-6.3533 -2.6472,-5.06705 0.073,-12.54926 5.5215,-15.18674 3.6052,-1.74527 5.9332,-1.84188 9.4071,-0.39039 5.0134,2.09473 7.3369,5.5653 7.3369,10.95907 0,7.76928 -8.5111,13.77214 -15.5556,10.97136 z"
   id="path1342" /><g
   id="g6348"
   transform="translate(-27.374437,794.34423)"><path
     style="fill:none;stroke:#000000;stroke-width:3;stroke-dasharray:none;stroke-opacity:1"
     d="m 893.08892,-569.00402 c 6.15092,143.09293 28.89827,271.96035 81.14492,375.54265"
     id="path6318"
     sodipodi:nodetypes="cc" /><path
     style="fill:none;stroke:#000000;stroke-width:2;stroke-dasharray:none;stroke-opacity:1"
     d="M 997.48878,-195.9353 C 937.47303,-311.55805 925.9184,-437.05194 915.35429,-567.02488"
     id="path6320"
     sodipodi:nodetypes="cc" /><path
     style="fill:none;stroke:#000000;stroke-width:2;stroke-dasharray:none;stroke-opacity:1"
     d="m 1028.7949,-209.66925 c -35.17245,-87.95322 -69.90648,-156.03373 -74.84729,-357.35562"
     id="path6322"
     sodipodi:nodetypes="cc" /><path
     style="fill:none;stroke:#000000;stroke-width:2;stroke-dasharray:none;stroke-opacity:1"
     d="m 991.55135,-567.02487 c 3.31103,147.92235 34.27585,247.01679 73.85775,340.53289"
     id="path6324"
     sodipodi:nodetypes="cc" /><path
     style="fill:none;stroke:#000000;stroke-width:2;stroke-dasharray:none;stroke-opacity:1"
     d="m 1015.3011,-568.01445 c 2.0879,121.66303 30.9703,229.92876 75.2075,330.51712"
     id="path6326"
     sodipodi:nodetypes="cc" /><path
     style="fill:none;stroke:#000000;stroke-width:3;stroke-dasharray:none;stroke-opacity:1"
     d="m 1040.0404,-568.01445 c -0.9857,133.91819 34.5447,231.32037 75.2075,323.59012"
     id="path6328"
     sodipodi:nodetypes="cc" /><path
     style="fill:none;stroke:#000000;stroke-width:3;stroke-dasharray:none;stroke-opacity:1"
     d="m 973.3289,-193.8261 24.49067,-2.0992 116.85543,-49.68106"
     id="path6330" /><path
     style="fill:none;stroke:#000000;stroke-width:1;stroke-dasharray:none;stroke-opacity:1"
     d="m 924.75523,-568.50923 v 18.30708 h 15.83315 v -17.8123"
     id="path6332" /><path
     style="fill:none;stroke:#000000;stroke-width:1;stroke-dasharray:none;stroke-opacity:1"
     d="m 966.31726,-568.01445 v 20.28623 h 17.31751 v -20.78101"
     id="path6334" /><path
     style="fill:none;stroke:#000000;stroke-width:1;stroke-dasharray:none;stroke-opacity:1"
     d="m 1016.2906,-549.70736 h 23.255"
     id="path6336"
     sodipodi:nodetypes="cc" /></g><path
   style="fill:none;stroke:#000000;stroke-width:3;stroke-dasharray:none;stroke-opacity:1"
   d="m 865.3385,227.16771 h 146.704 11.3173 l 6.7058,11.61472 h 41.2259"
   id="path7078" /><g
   id="g7178"
   transform="translate(0.4014118,802.5587)"
   style="stroke-width:3;stroke-dasharray:none"><path
     style="fill:none;stroke:#000000;stroke-width:3;stroke-dasharray:none;stroke-opacity:1"
     d="m 546.49125,-724.11946 v -18.55448 l 88.31932,-58.38476 h 22.26538 l 205.07073,54.80772 c 4.1519,1.7951 7.08745,4.04992 8.67686,7.53533 1.30019,2.85118 0.89102,6.39663 0,9.40093 -1.04,3.50664 -5.98245,9.19857 -5.98245,9.19857"
     id="path7080"
     sodipodi:nodetypes="cccccaac" /><circle
     style="fill:none;stroke:#000000;stroke-width:2;stroke-dasharray:none;stroke-opacity:1"
     id="path7082"
     cx="602.15466"
     cy="-746.13745"
     r="16.575335" /><circle
     style="fill:none;stroke:#000000;stroke-width:2;stroke-dasharray:none;stroke-opacity:1"
     id="path7082-8"
     cx="757.02271"
     cy="-748.61133"
     r="16.575335" /><circle
     style="fill:none;stroke:#000000;stroke-width:2;stroke-dasharray:none;stroke-opacity:1"
     id="path7082-8-9"
     cx="795.33429"
     cy="-744.0788"
     r="12.00347" /><circle
     style="fill:none;stroke:#000000;stroke-width:2;stroke-dasharray:none;stroke-opacity:1"
     id="path7082-8-9-9"
     cx="826.82227"
     cy="-740.75507"
     r="8.394104" /><circle
     style="fill:none;stroke:#000000;stroke-width:2;stroke-dasharray:none;stroke-opacity:1"
     id="path7082-4"
     cx="707.42035"
     cy="-754.67242"
     r="22.814064" /></g><path
   style="fill:#ffffff;fill-opacity:1;stroke:none;stroke-width:0.699733;stroke-dasharray:none;stroke-opacity:1"
   d="m 1058.4664,542.21286 c -29.9999,-70.67858 -50.277,-141.5837 -60.56822,-211.7954 -3.74665,-25.56139 -6.53328,-53.14197 -7.51168,-74.34665 l -0.47622,-10.32106 h 10.60212 10.6021 v 5.87011 c 0,13.75553 2.3531,45.01868 4.9566,65.85254 8.5577,68.48234 27.024,132.55719 61.4779,213.31827 3.9169,9.18128 7.0161,16.79873 6.8871,16.92767 -0.2269,0.22698 -15.468,6.84857 -18.4846,8.03076 -1.3932,0.54602 -1.8863,-0.34562 -7.4851,-13.53624 z"
   id="path7184" /><path
   style="fill:#ffffff;fill-opacity:1;stroke:none;stroke-width:0.699733;stroke-dasharray:none;stroke-opacity:1"
   d="m 1038.4574,565.35289 c -0.3364,-0.86592 -3.3616,-8.34432 -6.7226,-16.61866 C 989.37838,444.457 970.3488,355.59589 965.9143,241.37641 l -0.48221,-12.42026 h 10.5959 10.5959 l 0.001,2.97386 c 0.002,6.07452 1.45488,32.78314 2.46436,45.30773 6.24801,77.51849 23.16135,152.07825 51.90455,228.81276 5.6688,15.13371 18.663,47.05001 20.4945,50.33855 0.4403,0.7906 -1.8516,2.03272 -10.6515,5.7728 -6.1668,2.62099 -11.3373,4.76544 -11.49,4.76544 -0.1527,0 -0.5529,-0.70848 -0.8894,-1.5744 z"
   id="path7186" /><path
   style="fill:#ffffff;fill-opacity:1;stroke:none;stroke-width:0.699733;stroke-dasharray:none;stroke-opacity:1"
   d="m 1000.4612,578.57833 c -22.43996,-55.60286 -27.886,-69.88582 -35.39343,-92.8239 -20.53092,-62.72988 -31.91624,-133.40608 -35.78826,-222.16149 -0.38616,-8.85162 -0.88385,-20.26602 -1.10598,-25.36533 l -0.40388,-9.27146 h 5.28632 5.28632 v 9.09653 9.09653 h 9.4464 9.4464 v -9.09653 -9.09653 h 2.79893 c 2.76702,0 2.79899,0.0299 2.80353,2.624 0.003,1.4432 0.32199,9.55136 0.70993,18.01813 5.08255,110.92847 25.09673,202.08315 66.29052,301.92094 3.2584,7.89716 5.9678,14.94255 6.0207,15.65643 0.077,1.03995 -2.2682,2.30607 -11.7991,6.36958 -6.5425,2.78939 -14.1379,6.03131 -16.8785,7.20428 l -4.983,2.13264 z"
   id="path7188" /><path
   style="fill:#ffffff;fill-opacity:1;stroke:none;stroke-width:0.699733;stroke-dasharray:none;stroke-opacity:1"
   d="M 964.97236,584.94034 C 930.41628,512.8975 910.77718,436.37568 898.48251,325.8692 c -2.40485,-21.61522 -4.95436,-48.30049 -6.98608,-73.12212 -0.77178,-9.42891 -1.57883,-18.63915 -1.79345,-20.4672 l -0.39021,-3.32373 h 3.52276 3.52277 v 8.04693 8.04693 h 8.74667 8.74666 v -8.04693 -8.04693 h 5.54217 5.54217 l 0.36352,4.37333 c 0.19994,2.40533 0.71322,13.81973 1.14063,25.36533 2.38969,64.55338 9.76641,125.5559 21.10629,174.54075 8.93866,38.61231 18.55535,67.55098 40.89027,123.04751 5.93032,14.73532 10.7824,27.03053 10.7824,27.32269 0,0.4949 -2.5041,1.61566 -21.56981,9.65393 l -7.22529,3.04624 z"
   id="path7190" /><path
   style="fill:#ffffff;fill-opacity:1;stroke:none;stroke-width:0.699733;stroke-dasharray:none;stroke-opacity:1"
   d="m 941.86041,586.07328 c -37.59789,-80.67124 -60.15246,-176.04052 -70.30825,-297.28994 -0.917,-10.94794 -1.59045,-20.93785 -3.57323,-53.00479 l -0.42185,-6.8224 h 9.47077 9.47077 l 0.35513,2.27413 c 0.19532,1.25077 1.32944,13.92469 2.52026,28.16426 10.05724,120.26217 22.80731,192.12722 46.43412,261.72345 7.79777,22.96949 19.32462,50.78351 29.16807,70.38191 l 2.677,5.32995 -5.38398,0.45283 c -2.9612,0.24905 -7.45393,0.641 -9.98385,0.87098 l -4.59985,0.41814 z"
   id="path7192" /><path
   style="fill:#ffffff;fill-opacity:1;stroke:none;stroke-width:0.699733;stroke-dasharray:none;stroke-opacity:1"
   d="m 898.4575,235.95348 v -6.99733 h 6.99733 6.99733 v 6.99733 6.99733 h -6.99733 -6.99733 z"
   id="path7194" /><path
   style="fill:#ffffff;fill-opacity:1;stroke:none;stroke-width:0.699733;stroke-dasharray:none;stroke-opacity:1"
   d="m 939.74176,237.35295 v -8.3968 h 7.69707 7.69706 v 8.3968 8.3968 h -7.69706 -7.69707 z"
   id="path7196" /><path
   style="fill:#ffffff;fill-opacity:1;stroke:none;stroke-width:0.699733;stroke-dasharray:none;stroke-opacity:1"
   d="m 989.42282,236.30335 v -7.3472 h 10.84578 10.8459 v 7.3472 7.3472 h -10.8459 -10.84578 z"
   id="path7198" /><path
   style="fill:none;fill-opacity:1;stroke:#000000;stroke-width:1;stroke-dasharray:none;stroke-opacity:1"
   d="M 864.88616,218.47743 H 1069.7276"
   id="path7200" /><circle
   style="fill:none;fill-opacity:1;stroke:#000000;stroke-width:1;stroke-dasharray:none;stroke-opacity:1"
   id="path8293"
   cx="650.39642"
   cy="41.344002"
   r="28.944986" /><path
   style="fill:#ffffff;fill-opacity:1;stroke:none;stroke-width:0.699733;stroke-dasharray:none;stroke-opacity:1"
   d="m 548.74429,69.349991 0.19647,-8.463784 43.26066,-28.622077 43.26067,-28.622078 h 11.372 11.37201 l 101.82666,27.216824 c 56.00466,14.969253 102.74027,27.691973 103.85691,28.272711 6.27329,3.262612 7.90318,9.407087 4.25961,16.058187 l -1.43747,2.623999 h -159.082 -159.08199 z m 60.72339,3.510693 c 3.88198,-1.755184 7.35095,-5.000633 9.29032,-8.691708 2.07621,-3.951483 2.04932,-11.482436 -0.0554,-15.529678 -4.22423,-8.122759 -13.11175,-11.840257 -21.96524,-9.187687 -3.5928,1.076429 -8.82875,5.736082 -10.44588,9.296149 -1.55824,3.43043 -1.74746,11.280991 -0.35236,14.619913 3.72473,8.914546 14.86601,13.409684 23.52859,9.493011 z m 108.484,-3.161539 c 4.8471,-2.175248 9.83944,-7.140597 12.091,-12.025633 2.32057,-5.03474 2.18091,-14.504932 -0.29163,-19.776461 -2.50718,-5.345339 -5.40973,-8.427001 -10.57554,-11.22811 -4.16975,-2.261007 -4.76109,-2.384759 -11.39531,-2.384759 -6.64444,0 -7.22085,0.121185 -11.42932,2.402888 -4.90544,2.659573 -8.38298,6.429632 -10.7438,11.647517 -2.44008,5.393065 -2.2662,13.934495 0.40122,19.709957 3.02985,6.560178 9.22522,11.661461 16.3381,13.452843 4.20669,1.059458 10.97554,0.279464 15.60528,-1.798242 z m 46.40534,0.854963 c 5.96389,-2.491872 10.15275,-8.422703 10.77197,-15.251588 0.64067,-7.065391 -3.35829,-14.140752 -9.92294,-17.556689 -4.00893,-2.086061 -11.52152,-2.064456 -15.5774,0.0448 -6.42637,3.342023 -10.01773,9.276948 -10.00375,16.531796 0.0125,6.487815 4.72075,13.560799 10.78464,16.201225 2.82639,1.230707 11.032,1.248625 13.94748,0.03046 z m 37.48755,-0.263554 c 3.93602,-2.007039 6.53136,-5.85994 6.89415,-10.234679 0.17227,-2.077349 -0.0553,-4.893595 -0.50569,-6.258322 -1.44082,-4.365731 -7.85305,-8.863436 -12.63631,-8.863436 -2.52904,0 -6.5207,1.630306 -8.72037,3.56164 -6.68087,5.86588 -5.46961,17.499231 2.24612,21.572428 3.37887,1.783738 9.4519,1.889889 12.7221,0.222369 z m 30.09513,-0.05298 c 3.37497,-1.810018 5.09952,-5.243425 4.73404,-9.425047 -0.72913,-8.342472 -11.44792,-11.785085 -16.81905,-5.401863 -6.87159,8.166419 2.67192,19.875201 12.08501,14.82691 z M 660.07696,69.458737 c 16.80284,-5.781026 24.75414,-24.831065 17.05483,-40.86065 -8.85744,-18.440774 -32.43577,-22.701945 -47.27851,-8.544366 -15.91499,15.180331 -10.15981,41.924177 10.63277,49.409585 5.02354,1.808494 14.32745,1.806324 19.59091,-0.0045 z"
   id="path8295" /><path
   style="fill:#ffffff;fill-opacity:1;stroke:none;stroke-width:0.699733;stroke-dasharray:none;stroke-opacity:1"
   d="m 642.35514,68.145967 c -5.35957,-1.78104 -6.7755,-2.638411 -11.08032,-6.709339 -14.4204,-13.636866 -10.61408,-36.873696 7.44121,-45.427214 4.29453,-2.034488 5.27699,-2.22123 11.68605,-2.22123 6.4249,0 7.38516,0.183709 11.73821,2.245642 11.20275,5.306484 18.03634,17.92794 15.93418,29.430046 -1.7422,9.532615 -8.99376,18.69275 -17.32713,21.88755 -5.56921,2.13509 -13.34706,2.471094 -18.3922,0.794545 z"
   id="path8299" /><path
   style="fill:#ffffff;fill-opacity:1;stroke:#000000;stroke-width:3;stroke-dasharray:none;stroke-opacity:1"
   d="M 942.89056,130.64363 H 1105.2286"
   id="path9765" /><circle
   style="fill:none;fill-opacity:1;stroke:#000000;stroke-width:2;stroke-dasharray:none;stroke-opacity:1"
   id="path9850"
   cx="1115.4835"
   cy="100.17735"
   r="11.633064" /><circle
   style="fill:none;fill-opacity:1;stroke:#000000;stroke-width:2;stroke-dasharray:none;stroke-opacity:1"
   id="path9850-0"
   cx="1150.5129"
   cy="100.32646"
   r="11.633064" /><circle
   style="fill:none;fill-opacity:1;stroke:#000000;stroke-width:2;stroke-dasharray:none;stroke-opacity:1"
   id="path9850-0-0"
   cx="1184.6146"
   cy="100.2028"
   r="11.633064" /><circle
   style="fill:none;fill-opacity:1;stroke:#000000;stroke-width:2;stroke-dasharray:none;stroke-opacity:1"
   id="path9850-4"
   cx="1219.4252"
   cy="100.12822"
   r="11.633064" /><circle
   style="fill:none;fill-opacity:1;stroke:#000000;stroke-width:2;stroke-dasharray:none;stroke-opacity:1"
   id="path9850-0-3"
   cx="1256.5963"
   cy="100.27733"
   r="11.633064" /><circle
   style="fill:none;fill-opacity:1;stroke:#000000;stroke-width:2;stroke-dasharray:none;stroke-opacity:1"
   id="path9850-0-0-4"
   cx="1291.9648"
   cy="100.15367"
   r="11.633064" /><circle
   style="fill:none;fill-opacity:1;stroke:#000000;stroke-width:2;stroke-dasharray:none;stroke-opacity:1"
   id="path9850-9"
   cx="1329.9916"
   cy="100.15282"
   r="11.633064" /><circle
   style="fill:none;fill-opacity:1;stroke:#000000;stroke-width:2;stroke-dasharray:none;stroke-opacity:1"
   id="path9850-0-2"
   cx="1367.0002"
   cy="100.30193"
   r="11.633064" /><circle
   style="fill:none;fill-opacity:1;stroke:#000000;stroke-width:2;stroke-dasharray:none;stroke-opacity:1"
   id="path9850-0-0-5"
   cx="1404.9626"
   cy="100.17827"
   r="11.633064" /><circle
   style="fill:none;fill-opacity:1;stroke:#000000;stroke-width:2;stroke-dasharray:none;stroke-opacity:1"
   id="path9850-4-4"
   cx="1441.0703"
   cy="100.10368"
   r="11.633064" /><circle
   style="fill:none;fill-opacity:1;stroke:#000000;stroke-width:2;stroke-dasharray:none;stroke-opacity:1"
   id="path9850-0-3-3"
   cx="1476.842"
   cy="100.25279"
   r="11.633064" /><circle
   style="fill:none;fill-opacity:1;stroke:#000000;stroke-width:2;stroke-dasharray:none;stroke-opacity:1"
   id="path9850-0-0-4-9"
   cx="1512.8379"
   cy="100.12914"
   r="11.633064" /><path
   style="fill:none;fill-opacity:1;stroke:#000000;stroke-width:3;stroke-dasharray:none;stroke-opacity:1"
   d="m 1626.1145,167.01967 h 297.742"
   id="path10870"
   sodipodi:nodetypes="cc" /><path
   style="fill:none;fill-opacity:1;stroke:#000000;stroke-width:3;stroke-dasharray:none;stroke-opacity:1"
   d="m 1625.8671,139.06426 h 299.3888"
   id="path10872"
   sodipodi:nodetypes="cc" /><path
   style="fill:none;fill-opacity:1;stroke:#000000;stroke-width:3;stroke-dasharray:none;stroke-opacity:1"
   d="m 1975.4335,139.06426 h 317.4053"
   id="path10874"
   sodipodi:nodetypes="cc" /><path
   style="fill:none;fill-opacity:1;stroke:#000000;stroke-width:3;stroke-dasharray:none;stroke-opacity:1"
   d="m 1975.4335,167.01967 h 317.3628"
   id="path11049"
   sodipodi:nodetypes="cc" /><path
   style="fill:#ffffff;fill-opacity:1;stroke:none;stroke-width:0.989572;stroke-dasharray:none;stroke-opacity:1"
   d="m 1583.3155,146.81763 v -18.96507 l -502.9847,0.68622 -502.98457,0.68622 -1.20236,-4.49551 c -0.6613,-2.47253 -1.20237,-8.05157 -1.20237,-12.39788 v -7.90238 H 562.07706 549.21262 V 93.049151 81.669071 h 156.86063 c 123.71145,0 157.30335,0.261407 158.95562,1.236965 1.67601,0.989573 2.1846,0.989573 2.54298,0 0.35729,-0.986626 76.80275,-1.236965 377.72875,-1.236965 h 377.281 l 0.651,24.491909 c 0.3581,13.47055 0.652,32.39612 0.6532,42.05682 v 17.56491 h -20.2862 -20.2862 V 146.81763 Z M 1121.1471,111.8708 c 4.8313,-2.49836 6.9652,-6.11909 6.9652,-11.81808 0,-4.11392 -0.5258,-5.728135 -2.7213,-8.354274 -7.0452,-8.427032 -21.5625,-3.996338 -22.6748,6.920371 -1.0646,10.449363 9.3583,17.943583 18.4309,13.251983 z m 36.7183,-0.77769 c 6.8428,-4.61139 7.5203,-14.119145 1.4393,-20.200107 -2.8204,-2.820491 -3.967,-3.285974 -8.0859,-3.2828 -5.3697,0.0041 -10.3804,2.494243 -12.323,6.123898 -1.6973,3.171588 -1.5101,9.617319 0.3854,13.267979 3.1757,6.11622 12.525,8.17432 18.5842,4.09103 z m 32.5517,0.77769 c 6.5686,-3.39675 8.9916,-11.53793 5.4642,-18.359254 -4.3109,-8.336235 -18.6609,-7.936402 -22.7275,0.633252 -5.4878,11.564802 6.123,23.486862 17.2633,17.726002 z m 35.3617,-0.47102 c 5.1752,-3.15552 6.6587,-6.45745 6.3481,-14.129334 -0.1543,-3.811286 -4.7978,-8.61013 -9.3118,-9.623254 -8.0199,-1.800007 -15.4056,3.222985 -16.1989,11.016783 -1.1012,10.820335 10.0975,18.263175 19.1626,12.735805 z m 37.6095,-0.004 c 10.834,-6.6059 6.3762,-23.789813 -6.1714,-23.789813 -8.6441,0 -13.3246,4.648809 -13.3246,13.234163 0,4.76007 3.2617,9.88571 7.341,11.53597 3.5781,1.44747 8.8737,1.02037 12.155,-0.98034 z m 34.8694,0.13087 c 3.5926,-1.92674 6.988,-7.13988 6.988,-10.72899 0,-5.746958 -4.2971,-11.656174 -9.5261,-13.099976 -13.314,-3.676186 -22.5352,12.509906 -12.469,21.886976 4.5493,4.23779 9.5256,4.88174 15.0071,1.94197 z m 37.1801,0.3834 c 9.171,-3.83189 9.9638,-18.429603 1.2457,-22.937897 -6.4245,-3.322247 -15.1276,-1.135184 -18.0618,4.538875 -3.394,6.563362 -0.5827,15.628562 5.6928,18.356712 4.1254,1.79344 6.9069,1.80402 11.1233,0.0423 z m 38.1039,-0.41846 c 2.3877,-1.27646 4.0212,-3.21666 5.3121,-6.30956 1.6794,-4.02394 1.7284,-4.89202 0.4948,-8.765007 -1.8335,-5.75606 -6.3391,-8.811056 -12.9947,-8.811056 -4.2308,0 -5.3495,0.449089 -8.187,3.286499 -11.0305,11.030534 1.6053,27.960014 15.3748,20.599104 z m 39.141,-0.58446 c 3.4798,-2.28006 5.7077,-7.91424 5.0547,-12.782839 -1.4142,-10.543449 -15.7964,-14.60571 -22.688,-6.408255 -2.1845,2.598439 -2.7213,4.225719 -2.7213,8.249411 0,5.640393 1.6058,8.579003 6.3003,11.529273 3.6686,2.30553 10.0457,2.0389 14.0543,-0.58761 z m 34.0336,0.96315 c 4.8731,-2.51999 6.9653,-6.11007 6.9653,-11.952187 0,-4.173394 -0.5139,-5.844027 -2.5376,-8.24896 -8.6776,-10.312836 -25.9543,-1.56294 -22.7384,11.516097 2.0506,8.33978 10.8799,12.52766 18.3107,8.68503 z m 36.2117,-0.11177 c 2.1818,-1.0353 4.0358,-3.05102 5.4018,-5.87277 2.724,-5.62698 1.8788,-10.635558 -2.542,-15.063663 -2.8479,-2.852699 -3.8283,-3.21611 -8.6764,-3.21611 -6.4879,0 -10.7142,2.865466 -12.5845,8.532334 -3.7518,11.368269 7.4044,20.838479 18.4011,15.620189 z m 37.9101,-1.1258 c 3.3899,-2.50861 5.5782,-8.69289 4.7112,-13.314271 -1.9053,-10.155888 -15.8971,-13.61878 -22.6365,-5.602403 -2.1845,2.598439 -2.7213,4.225719 -2.7213,8.249411 0,5.640393 1.6058,8.579003 6.3003,11.529273 3.8114,2.39529 10.4868,1.99418 14.3463,-0.86203 z"
   id="path11940" /><path
   style="fill:#ffffff;fill-opacity:1;stroke:none;stroke-width:0.989572;stroke-dasharray:none;stroke-opacity:1"
   d="m 945.04151,145.49648 v -12.36965 h 79.66049 79.6606 v 12.36965 12.36965 h -79.6606 -79.66049 z"
   id="path12072" /><path
   style="fill:#ffffff;fill-opacity:1;stroke:none;stroke-width:0.989572;stroke-dasharray:none;stroke-opacity:1"
   d="m 1108.3209,179.63672 v -47.49947 h 21.7706 21.7705 v 47.49947 47.49947 h -21.7705 -21.7706 z"
   id="path12074" /><path
   style="fill:#ffffff;fill-opacity:1;stroke:none;stroke-width:0.699733;stroke-dasharray:none;stroke-opacity:1"
   d="m 1181.5725,109.99645 c -7.1504,-2.21681 -9.4457,-11.84587 -4.0549,-17.010588 5.4941,-5.263681 13.8272,-3.227521 16.6097,4.058536 1.1431,2.992972 1.1431,3.328712 0,6.321682 -2.0119,5.2682 -7.5369,8.18604 -12.5548,6.63037 z"
   id="path12076" /><path
   style="fill:#ffffff;fill-opacity:1;stroke:none;stroke-width:0.699733;stroke-dasharray:none;stroke-opacity:1"
   d="m 1146.177,109.51334 c -5.3086,-2.74937 -7.2544,-9.634032 -4.1448,-14.665408 5.19,-8.397725 18.4753,-4.545387 18.4753,5.357308 0,7.42876 -7.9672,12.60372 -14.3305,9.3081 z"
   id="path12078" /><path
   style="fill:#ffffff;fill-opacity:1;stroke:none;stroke-width:0.699733;stroke-dasharray:none;stroke-opacity:1"
   d="m 1111.1924,109.15739 c -5.2935,-2.71188 -7.297,-8.56577 -4.6703,-13.645351 4.8379,-9.355365 18.9988,-5.857244 18.9988,4.693201 0,7.65842 -7.5934,12.40261 -14.3285,8.95215 z"
   id="path12080" /><path
   style="fill:#ffffff;fill-opacity:1;stroke:none;stroke-width:0.699733;stroke-dasharray:none;stroke-opacity:1"
   d="m 1216.5697,109.98463 c -3.984,-1.20711 -7.4307,-5.93208 -7.4307,-10.186447 0,-5.376854 6.4471,-10.741725 11.7199,-9.752544 5.2711,0.988853 8.5724,4.91384 8.5724,10.191821 0,6.55208 -6.6853,11.61854 -12.8616,9.74717 z"
   id="path12082" /><path
   style="fill:#ffffff;fill-opacity:1;stroke:none;stroke-width:0.699733;stroke-dasharray:none;stroke-opacity:1"
   d="m 1253.2222,109.91702 c -2.6295,-1.04543 -5.4688,-4.05161 -6.3508,-6.72401 -2.3144,-7.012717 4.8123,-14.830713 11.7148,-12.851113 5.4033,1.549647 7.9241,4.70837 7.9283,9.934793 0.01,7.03197 -7.0259,12.13173 -13.2923,9.64033 z"
   id="path12084" /><path
   style="fill:#ffffff;fill-opacity:1;stroke:none;stroke-width:0.699733;stroke-dasharray:none;stroke-opacity:1"
   d="m 1289.4815,110.02196 c -6.6801,-2.04168 -9.6814,-9.49427 -6.1537,-15.28034 1.4097,-2.312162 6.0394,-4.986991 8.6836,-5.017014 4.7719,-0.05418 10.1921,5.608135 10.1921,10.647354 0,5.9689 -7.113,11.36432 -12.722,9.65 z"
   id="path12086" /><path
   style="fill:#ffffff;fill-opacity:1;stroke:none;stroke-width:0.699733;stroke-dasharray:none;stroke-opacity:1"
   d="m 1326.9402,109.94394 c -4.5398,-1.32984 -8.0949,-7.64993 -6.9251,-12.310875 0.7075,-2.818917 5.2692,-7.027448 8.2164,-7.580355 3.4713,-0.651222 8.4641,1.610194 10.3369,4.681992 4.8102,7.889808 -2.7697,17.804148 -11.6282,15.209238 z"
   id="path12088" /><path
   style="fill:#ffffff;fill-opacity:1;stroke:none;stroke-width:0.699733;stroke-dasharray:none;stroke-opacity:1"
   d="m 1362.4057,109.12684 c -5.3697,-2.75341 -7.2393,-9.138722 -4.0486,-13.826852 2.4519,-3.602596 4.9607,-5.124261 8.4486,-5.124261 10.8504,0 14.2904,14.698893 4.482,19.151363 -3.8301,1.73868 -5.1592,1.70871 -8.882,-0.20025 z"
   id="path12090" /><path
   style="fill:#ffffff;fill-opacity:1;stroke:none;stroke-width:0.699733;stroke-dasharray:none;stroke-opacity:1"
   d="m 1401.9885,109.97461 c -2.7514,-0.82335 -5.8217,-3.89724 -6.7736,-6.7816 -1.0804,-3.273601 -0.2726,-6.766444 2.2218,-9.607477 3.9721,-4.523977 9.9383,-4.862877 14.237,-0.808707 5.4812,5.16939 4.1563,13.482234 -2.6405,16.568204 -3.204,1.45475 -4.0381,1.52929 -7.0447,0.62958 z"
   id="path12094" /><path
   style="fill:#ffffff;fill-opacity:1;stroke:none;stroke-width:0.699733;stroke-dasharray:none;stroke-opacity:1"
   d="m 1438.2841,109.9663 c -1.1642,-0.34263 -3.1767,-1.71659 -4.4722,-3.05325 -4.944,-5.10083 -3.3144,-13.043328 3.2739,-15.957673 8.9595,-3.963197 17.9988,6.202722 12.5865,14.155103 -2.9614,4.35118 -7.1028,6.11705 -11.3882,4.85582 z"
   id="path12096" /><path
   style="fill:#ffffff;fill-opacity:1;stroke:none;stroke-width:0.699733;stroke-dasharray:none;stroke-opacity:1"
   d="m 1509.803,109.67079 c -3.5615,-1.24796 -5.1012,-2.74994 -6.4562,-6.29787 -1.5187,-3.976851 -0.5045,-7.844115 2.8237,-10.766317 4.4634,-3.918875 10.3091,-3.543974 14.2216,0.912061 2.9644,3.376314 3.4006,6.737916 1.3963,10.761826 -2.4568,4.9325 -7.2017,7.0665 -11.9854,5.3903 z"
   id="path12098" /><path
   style="fill:#ffffff;fill-opacity:1;stroke:none;stroke-width:0.699733;stroke-dasharray:none;stroke-opacity:1"
   d="m 1472.3827,109.21282 c -5.3275,-2.63707 -7.3183,-9.283277 -4.1675,-13.912832 2.4519,-3.602596 4.9608,-5.124261 8.4486,-5.124261 10.7377,0 14.1848,14.060023 4.6463,18.951113 -3.8064,1.95182 -5.1321,1.96459 -8.9274,0.086 z"
   id="path12100" /><path
   style="fill:#ffffff;fill-opacity:1;stroke:none;stroke-width:0.699733;stroke-dasharray:none;stroke-opacity:1"
   d="m 1517.7213,179.62496 v -47.232 h 30.7883 30.7883 v 47.232 47.23199 h -30.7883 -30.7883 z"
   id="path12102" /><path
   style="fill:#ffffff;fill-opacity:1;stroke:none;stroke-width:0.699733;stroke-dasharray:none;stroke-opacity:1"
   d="m 1500.228,182.42389 v -50.03093 h 6.6475 6.6474 v 50.03093 50.03092 h -6.6474 -6.6475 z"
   id="path12104" /><path
   style="fill:#ffffff;fill-opacity:1;stroke:none;stroke-width:0.699733;stroke-dasharray:none;stroke-opacity:1"
   d="m 1482.7347,182.42389 v -50.03093 h 6.9973 6.9974 v 50.03093 50.03092 h -6.9974 -6.9973 z"
   id="path12106" /><path
   style="fill:#ffffff;fill-opacity:1;stroke:none;stroke-width:0.699733;stroke-dasharray:none;stroke-opacity:1"
   d="m 1465.9411,182.42389 v -50.03093 h 6.6475 6.6474 v 50.03093 50.03092 h -6.6474 -6.6475 z"
   id="path12108" /><path
   style="fill:#ffffff;fill-opacity:1;stroke:none;stroke-width:0.699733;stroke-dasharray:none;stroke-opacity:1"
   d="m 1448.4478,182.42389 v -50.03093 h 6.6474 6.6475 v 50.03093 50.03092 h -6.6475 -6.6474 z"
   id="path12110" /><path
   style="fill:#ffffff;fill-opacity:1;stroke:none;stroke-width:0.699733;stroke-dasharray:none;stroke-opacity:1"
   d="m 1431.6542,182.42389 v -50.03093 h 6.6474 6.6475 v 50.03093 50.03092 h -6.6475 -6.6474 z"
   id="path12112" /><path
   style="fill:#ffffff;fill-opacity:1;stroke:none;stroke-width:0.699733;stroke-dasharray:none;stroke-opacity:1"
   d="m 1414.1608,182.42389 v -50.03093 h 6.6475 6.6475 v 50.03093 50.03092 h -6.6475 -6.6475 z"
   id="path12114" /><path
   style="fill:#ffffff;fill-opacity:1;stroke:none;stroke-width:0.699733;stroke-dasharray:none;stroke-opacity:1"
   d="m 1396.6675,182.42389 v -50.03093 h 6.6475 6.6474 v 50.03093 50.03092 h -6.6474 -6.6475 z"
   id="path12116" /><path
   style="fill:#ffffff;fill-opacity:1;stroke:none;stroke-width:0.699733;stroke-dasharray:none;stroke-opacity:1"
   d="m 1379.8739,182.42389 v -50.03093 h 6.6475 6.6474 v 50.03093 50.03092 h -6.6474 -6.6475 z"
   id="path12118" /><path
   style="fill:#ffffff;fill-opacity:1;stroke:none;stroke-width:0.699733;stroke-dasharray:none;stroke-opacity:1"
   d="m 1362.3806,182.42389 v -50.03093 h 6.6474 6.6475 v 50.03093 50.03092 h -6.6475 -6.6474 z"
   id="path12120" /><path
   style="fill:#ffffff;fill-opacity:1;stroke:none;stroke-width:0.699733;stroke-dasharray:none;stroke-opacity:1"
   d="m 1344.8872,182.42389 v -50.03093 h 6.9974 6.9973 v 50.03093 50.03092 h -6.9973 -6.9974 z"
   id="path12122" /><path
   style="fill:#ffffff;fill-opacity:1;stroke:none;stroke-width:0.699733;stroke-dasharray:none;stroke-opacity:1"
   d="m 1328.0936,182.42389 v -50.03093 h 6.6475 6.6475 v 50.03093 50.03092 h -6.6475 -6.6475 z"
   id="path12124" /><path
   style="fill:#ffffff;fill-opacity:1;stroke:none;stroke-width:0.699733;stroke-dasharray:none;stroke-opacity:1"
   d="m 1310.6003,182.42389 v -50.03093 h 6.6475 6.6474 v 50.03093 50.03092 h -6.6474 -6.6475 z"
   id="path12126" /><path
   style="fill:#ffffff;fill-opacity:1;stroke:none;stroke-width:0.699733;stroke-dasharray:none;stroke-opacity:1"
   d="m 1293.8067,182.42389 v -50.03093 h 6.6475 6.6474 v 50.03093 50.03092 h -6.6474 -6.6475 z"
   id="path12128" /><path
   style="fill:#ffffff;fill-opacity:1;stroke:none;stroke-width:0.699733;stroke-dasharray:none;stroke-opacity:1"
   d="m 1276.3134,182.42389 v -50.03093 h 6.6475 6.6474 v 50.03093 50.03092 h -6.6474 -6.6475 z"
   id="path12130" /><path
   style="fill:#ffffff;fill-opacity:1;stroke:none;stroke-width:0.699733;stroke-dasharray:none;stroke-opacity:1"
   d="m 1258.8201,182.42389 v -50.03093 h 6.6474 6.6475 v 50.03093 50.03092 h -6.6475 -6.6474 z"
   id="path12132" /><path
   style="fill:#ffffff;fill-opacity:1;stroke:none;stroke-width:0.699733;stroke-dasharray:none;stroke-opacity:1"
   d="m 1242.0265,182.42389 v -50.03093 h 6.6474 6.6475 v 50.03093 50.03092 h -6.6475 -6.6474 z"
   id="path12134" /><path
   style="fill:#ffffff;fill-opacity:1;stroke:none;stroke-width:0.699733;stroke-dasharray:none;stroke-opacity:1"
   d="m 1224.5331,182.42389 v -50.03093 h 6.6475 6.6475 v 50.03093 50.03092 h -6.6475 -6.6475 z"
   id="path12136" /><path
   style="fill:#ffffff;fill-opacity:1;stroke:none;stroke-width:0.699733;stroke-dasharray:none;stroke-opacity:1"
   d="m 1207.0398,182.42389 v -50.03093 h 6.9973 6.9974 v 50.03093 50.03092 h -6.9974 -6.9973 z"
   id="path12138" /><path
   style="fill:#ffffff;fill-opacity:1;stroke:none;stroke-width:0.699733;stroke-dasharray:none;stroke-opacity:1"
   d="m 1190.2462,182.42389 v -50.03093 h 6.6475 6.6474 v 50.03093 50.03092 h -6.6474 -6.6475 z"
   id="path12140" /><path
   style="fill:#ffffff;fill-opacity:1;stroke:none;stroke-width:0.699733;stroke-dasharray:none;stroke-opacity:1"
   d="m 1172.7529,182.42389 v -50.03093 h 6.6474 6.6475 v 50.03093 50.03092 h -6.6475 -6.6474 z"
   id="path12142" /><path
   style="fill:#ffffff;fill-opacity:1;stroke:none;stroke-width:0.699733;stroke-dasharray:none;stroke-opacity:1"
   d="m 1155.2595,182.42389 v -50.03093 h 6.9974 6.9973 v 50.03093 50.03092 h -6.9973 -6.9974 z"
   id="path12144" /><path
   style="fill:#ffffff;fill-opacity:1;stroke:none;stroke-width:0.699733;stroke-dasharray:none;stroke-opacity:1"
   d="m 1106.803,240.32697 -34.112,-0.1884 v -25.88348 -25.88347 h 15.744 15.744 v 21.69173 21.69173 h 23.7909 23.791 v 2.44907 2.44906 l 12.4202,0.0188 12.4203,0.0188 -2.4491,2.06155 -2.449,2.06156 -15.3942,-0.1493 c -8.4667,-0.0821 -30.7445,-0.23408 -49.5061,-0.3377 z"
   id="path12146" /><path
   style="fill:#ffffff;fill-opacity:1;stroke:none;stroke-width:0.989572;stroke-dasharray:none;stroke-opacity:1"
   d="m 860.65394,210.53602 -6.65308,-6.70445 v -7.64435 -7.64435 H 961.36945 1068.738 v 14.3488 14.34879 H 968.02252 867.30701 Z"
   id="path12148" /><path
   style="fill:#ffffff;fill-opacity:1;stroke:none;stroke-width:0.989572;stroke-dasharray:none;stroke-opacity:1"
   d="m 1028.0041,231.09447 -3.2641,-5.93743 H 945.80266 866.8653 v -2.96872 -2.96871 H 967.80167 1068.738 v 8.90615 8.90615 h -18.7349 -18.7349 z"
   id="path12150" /><path
   style="fill:#ffffff;fill-opacity:1;stroke:none;stroke-width:0.989572;stroke-dasharray:none;stroke-opacity:1"
   d="m 726.34605,254.6367 c -11.52588,-4.61139 -36.16372,-11.34372 -46.01511,-12.5737 -16.92925,-2.11367 -41.71784,-3.03428 -81.93858,-3.0431 l -40.37654,-0.009 -1.0349,-2.96871 c -0.5692,-1.6328 -1.21534,-2.96872 -1.43587,-2.96872 -1.1821,0 -36.09101,-4.03228 -39.2357,-4.53205 l -3.7109,-0.58978 0.0627,-8.07699 c 0.0441,-5.68007 0.32121,-7.43543 0.93375,-5.91513 1.55271,3.85375 7.62859,5.54963 11.82893,3.30168 4.31822,-2.31104 4.31822,-11.58474 0,-13.89579 -4.20034,-2.24795 -10.27622,-0.55206 -11.82893,3.30169 -0.51998,1.29056 -0.89631,-17.85561 -0.93375,-47.50575 -0.0425,-33.643 0.27205,-49.87451 0.9749,-50.30889 0.70704,-0.43698 0.66149,-1.0945 -0.14299,-2.06383 -1.68494,-2.03024 -0.39667,-15.311578 2.01377,-20.760776 l 1.92817,-4.358933 h 13.90965 13.90966 v 24.244519 24.24452 h -3.46351 -3.4635 l 9.9e-4,12.61704 9.9e-4,12.61705 4.94685,2.77841 4.94689,2.77841 v 13.14533 13.14533 l 19.45579,0.6516 c 10.70069,0.35837 43.12806,0.65159 72.06084,0.65159 h 52.60504 l 8.34191,11.3743 8.34191,11.3743 49.11886,0.006 49.11885,0.006 0.69401,4.70046 c 1.25792,8.51964 6.28657,14.15319 14.22581,15.93702 13.64536,3.06591 25.56163,-9.08922 21.97362,-22.41406 -2.07658,-7.71183 -9.96417,-13.98341 -17.65124,-14.03485 -6.68998,-0.0447 -14.63462,5.06048 -17.08649,10.97982 l -1.18153,2.85215 h -48.8193 -48.81929 l -5.8165,-7.66919 c -3.19908,-4.21805 -6.61011,-8.89378 -7.58008,-10.39051 l -1.76357,-2.72132 h 77.30044 77.30044 v 8.68734 8.68735 l 6.43222,6.37504 6.43222,6.37504 v 19.57264 19.57264 l -64.56958,-0.10342 -64.56959,-0.10341 z m -62.50602,-23.83723 c 6.58887,-3.19149 6.70711,-14.09643 0.20838,-19.21758 -2.48093,-1.95503 -10.30355,-1.55181 -13.13723,0.67718 -11.30537,8.8928 -0.15755,24.87916 12.92885,18.5404 z M 559.14074,224.6455 c 6.25167,-3.23286 7.6956,-12.99129 2.66644,-18.02044 -5.02916,-5.02917 -14.78759,-3.58523 -18.02045,2.66644 -5.21606,10.08674 5.26726,20.57007 15.35401,15.354 z m 58.10497,-5.95842 c 3.17141,-3.62724 3.06099,-10.19881 -0.23726,-14.11854 -1.9532,-2.32126 -5.29485,-3.87013 -16.12499,-7.47399 -12.12459,-4.0346 -14.0794,-4.43046 -17.37913,-3.51936 -5.07815,1.40214 -7.83456,5.8379 -7.24177,11.65386 0.59083,5.79671 2.57648,7.5019 13.54075,11.62826 17.97026,6.76301 22.84491,7.08804 27.4424,1.82977 z"
   id="path12152" /><path
   style="fill:#ffffff;fill-opacity:1;stroke:none;stroke-width:0.494786;stroke-dasharray:none;stroke-opacity:1"
   d="M 1977.1653,153.16566 V 141.0434 h 157.5893 157.5894 v 12.12226 12.12226 h -157.5894 -157.5893 z"
   id="path12154" /><path
   style="fill:#ffffff;fill-opacity:1;stroke:none;stroke-width:0.494786;stroke-dasharray:none;stroke-opacity:1"
   d="M 1627.8463,153.16566 V 141.0434 h 147.4462 147.4463 v 12.12226 12.12226 h -147.4463 -147.4462 z"
   id="path12156" /><path
   style="fill:#ffffff;fill-opacity:1;stroke:none;stroke-width:0.494786;stroke-dasharray:none;stroke-opacity:1"
   d="M 1851.9844,96.760047 V 81.669071 h 35.3772 35.3772 v 15.090976 15.090973 h -35.3772 -35.3772 z"
   id="path12158" /><path
   style="fill:#ffffff;fill-opacity:1;stroke:none;stroke-width:0.989572;stroke-dasharray:none;stroke-opacity:1"
   d="M 1627.8463,96.512654 V 81.669071 h 104.8946 104.8947 v 14.843583 14.843586 h -104.8947 -104.8946 z"
   id="path12160" /><path
   style="fill:#ffffff;fill-opacity:1;stroke:none;stroke-width:0.989572;stroke-dasharray:none;stroke-opacity:1"
   d="M 1841.5939,81.174285 V 44.065327 h 3.4635 3.4635 v 37.108958 37.108955 h -3.4635 -3.4635 z"
   id="path12162" /><path
   style="fill:#ffffff;fill-opacity:1;stroke:none;stroke-width:0.247393;stroke-dasharray:none;stroke-opacity:1"
   d="m 2383.5202,161.59624 c -0.6977,-1.12894 -15.5598,-2.24431 -29.8227,-2.23815 -11.3072,0.005 -24.9098,0.80439 -27.7699,1.63219 -0.406,0.11751 -0.4329,-0.3746 -0.4329,-7.9117 v -8.037 l 0.804,0.20987 c 0.9801,0.25585 4.2481,0.65399 8.2258,1.00219 4.7591,0.41658 27.131,0.58449 33.7755,0.2535 8.5026,-0.42356 13.4782,-1.04578 15.1099,-1.8896 l 0.7169,-0.37073 v 8.7888 c 0,8.06753 -0.094,9.39046 -0.6066,8.56063 z"
   id="path12164" /><path
   style="fill:#ffffff;fill-opacity:1;stroke:none;stroke-width:0.247393;stroke-dasharray:none;stroke-opacity:1"
   d="m 2386.8482,152.67088 v -18.30709 h 2.2265 2.2265 v 18.30709 18.30708 h -2.2265 -2.2265 z"
   id="path12166" /><path
   style="fill:#ffffff;fill-opacity:1;stroke:none;stroke-width:0.247393;stroke-dasharray:none;stroke-opacity:1"
   d="m 2325.4947,167.97832 v -2.99964 l 0.804,0.16271 c 4.5423,0.91923 14.503,1.4406 27.5225,1.4406 16.6364,0 27.6545,-0.80537 29.7435,-2.17409 l 0.5621,-0.36835 v 3.46921 3.4692 h -29.316 -29.3161 z"
   id="path12168" /><path
   style="fill:#ffffff;fill-opacity:1;stroke:none;stroke-width:0.247393;stroke-dasharray:none;stroke-opacity:1"
   d="m 2383.3847,141.67972 c -0.8616,-0.4645 -2.7833,-0.82345 -6.6797,-1.24764 -12.0342,-1.31017 -40.6185,-1.04679 -49.3873,0.45506 l -1.823,0.31223 v -3.41779 -3.41779 h 29.3161 29.316 v 3.83459 c 0,2.10903 -0.028,3.83014 -0.062,3.82469 -0.034,-0.005 -0.3402,-0.15996 -0.6803,-0.34335 z"
   id="path12170" /><path
   style="fill:#ffffff;fill-opacity:1;stroke:none;stroke-width:0.247393;stroke-dasharray:none;stroke-opacity:1"
   d="m 2295.3127,152.67088 v -18.30709 h 13.7303 13.7304 v 18.30709 18.30708 h -13.7304 -13.7303 z"
   id="path12172" /><circle
   style="fill:none;fill-opacity:1;stroke:#000000;stroke-width:1;stroke-dasharray:none;stroke-opacity:1"
   id="path9850-0-2-3"
   cx="1422.1613"
   cy="53.439629"
   r="11.633064" /><path
   style="fill:none;fill-opacity:1;stroke:#000000;stroke-width:3;stroke-dasharray:none;stroke-opacity:1"
   d="m 1405.2392,80.496937 v -38.22293 c 6.5528,-12.33365 27.2497,-11.56357 33.5872,0 v 37.87307"
   id="path11916"
   sodipodi:nodetypes="cccc" /><path
   style="fill:#ffffff;fill-opacity:1;stroke:none;stroke-width:0.0874666;stroke-dasharray:none;stroke-opacity:1"
   d="m 1406.7879,60.568155 v -17.94506 l 0.5881,-0.882136 c 0.8263,-1.239191 2.5536,-2.957729 3.8214,-3.801846 2.205,-1.468185 4.3572,-2.301831 7.287,-2.82261 1.5021,-0.267005 4.8469,-0.289418 6.4091,-0.04295 5.2195,0.823491 9.4545,3.285475 11.9592,6.952472 l 0.4574,0.669594 v 17.908797 17.908797 h -15.2629 -15.2629 z m 16.5749,4.961662 c 0.926,-0.05504 2.2723,-0.366481 3.2436,-0.750391 3.8531,-1.522899 6.5834,-4.767812 7.4895,-8.901384 0.2736,-1.247945 0.2702,-3.626044 -0.01,-4.913031 -1.4236,-6.608743 -7.7837,-10.78917 -14.3724,-9.446789 -2.4554,0.500247 -4.5441,1.660063 -6.3449,3.523145 -2.2149,2.291496 -3.3475,5.139052 -3.3475,8.416609 0,2.014225 0.3534,3.560258 1.2195,5.335045 1.9008,3.895077 5.7215,6.476586 10.02,6.770001 0.4811,0.03284 0.9731,0.04933 1.0933,0.03664 0.1203,-0.01268 0.5729,-0.04412 1.0059,-0.06985 z"
   id="path27199" /></svg>
