<?xml version="1.0" encoding="UTF-8" standalone="no"?>
<svg
   inkscape:version="1.2.2 (732a01da63, 2022-12-09)"
   sodipodi:docname="weapon_ak47.svg"
   id="svg302"
   xml:space="preserve"
   enable-background="new 0 0 1843.619 616.392"
   viewBox="0 0 1541.2706 444.43873"
   height="444.43875"
   width="1541.2706"
   y="0px"
   x="0px"
   version="1.1"
   xmlns:inkscape="http://www.inkscape.org/namespaces/inkscape"
   xmlns:sodipodi="http://sodipodi.sourceforge.net/DTD/sodipodi-0.dtd"
   xmlns="http://www.w3.org/2000/svg"
   xmlns:svg="http://www.w3.org/2000/svg"
   xmlns:rdf="http://www.w3.org/1999/02/22-rdf-syntax-ns#"
   xmlns:cc="http://creativecommons.org/ns#"
   xmlns:dc="http://purl.org/dc/elements/1.1/"><metadata
   id="metadata308"><rdf:RDF><cc:Work
       rdf:about=""><dc:format>image/svg+xml</dc:format><dc:type
         rdf:resource="http://purl.org/dc/dcmitype/StillImage" /><dc:title /></cc:Work></rdf:RDF></metadata><defs
   id="defs306" /><sodipodi:namedview
   pagecolor="#ffffff"
   bordercolor="#666666"
   borderopacity="1"
   objecttolerance="10"
   gridtolerance="10"
   guidetolerance="10"
   inkscape:pageopacity="0"
   inkscape:pageshadow="2"
   inkscape:window-width="1920"
   inkscape:window-height="1009"
   id="namedview304"
   showgrid="false"
   inkscape:zoom="2.7078121"
   inkscape:cx="641.4773"
   inkscape:cy="154.36817"
   inkscape:window-x="-8"
   inkscape:window-y="-8"
   inkscape:window-maximized="1"
   inkscape:current-layer="svg302"
   inkscape:document-rotation="0"
   inkscape:pagecheckerboard="true"
   inkscape:showpageshadow="2"
   inkscape:deskcolor="#d1d1d1" />
<g
   id="Layer_1"
   transform="matrix(-1,0,0,1,1692.6416,-70.0114)">
	<g
   id="g298">
		<g
   id="g206">
			<path
   style="fill:none;stroke:#000000;stroke-width:3;stroke-miterlimit:10;opacity:1"
   inkscape:connector-curvature="0"
   id="path160"
   d="m 727.853,136.707 h -28.581 l -6.656,7.047 h -38.184 l -7.229,-7.145 -41.721,0.097 -4.038,7.047 h -37.586 l -4.696,-7.047 h -36.46 v 40.62 l 4.699,16.443 11.743,0.391 c 0,0 108.059,12.92 159.736,10.571 0,0 33.67,2.74 51.287,7.83 17.619,5.09 37.193,12.528 46.982,-2.741 l 7.293,-3.709"
   stroke-miterlimit="10" />
			<path
   style="fill:none;stroke:#000000;stroke-width:3;stroke-miterlimit:10;opacity:1"
   inkscape:connector-curvature="0"
   id="path162"
   d="m 1239.062,122.907 3.721,0.405 15.956,8.625 -7.58,4.786 9.573,15.159 0.427,36.996 -20.105,38.407 -436.61,-21.173 -0.787,-67.725 -74.378,0.864 -0.251,-62.15 16.109,0.293 24.901,0.294 42.327,1.281 c 0,0 2.795,-6.485 9.841,-6.566 7.048,-0.083 10.409,5.451 10.409,5.451 l 7.053,0.505 6.678,-6.537 5.906,2.868 -7.4,7.573 -11.584,0.149 c 0,0 -0.197,6.944 -4.897,6.944 l 15.241,-0.178 c 0,0 3.834,1.424 3.878,5.242 h 358.978 c 0,-0.001 20.698,10.182 32.594,28.487 z"
   stroke-miterlimit="10" />
			<path
   style="fill:none;stroke:#000000;stroke-width:3;stroke-miterlimit:10;opacity:1"
   inkscape:connector-curvature="0"
   id="path164"
   d="m 1260.731,151.881 128.766,23.096 c 0,0 26.621,0.783 35.236,-7.047 8.611,-7.83 43.066,-2.349 43.066,-2.349 l 220.024,37.585 c 0,0 5.482,1.566 2.35,14.877 -3.131,13.312 -28.972,161.301 -28.972,161.301 0,0 -7.829,16.443 -24.271,8.612 l -348.442,-157.386 -29.753,-5.872 -17.683,2.585 0.063,20.121 c 0,0 -9.396,12.333 -2.349,35.236 7.046,22.903 34.06,79.868 34.06,79.868 0,0 3.818,7.047 -0.587,14.094 -5.179,8.288 -14.093,28.482 -64.597,30.538 0,0 -11.453,-0.293 -11.158,-8.222 0.284,-7.718 -6.462,-31.712 -12.92,-44.632 -6.462,-12.92 -31.126,-75.757 -31.126,-75.757 0,0 -7.928,-13.213 -13.212,-13.213 0,0 -5.58,-4.404 -4.699,-11.745 0.88,-7.341 3.522,-31.124 3.522,-31.124"
   stroke-miterlimit="10" />
			<path
   style="fill:none;stroke:#000000;stroke-width:3;stroke-miterlimit:10;opacity:1"
   inkscape:connector-curvature="0"
   id="path166"
   d="m 846.479,92.369 -0.393,13.703 -7.05,1.958 -0.39,14.877 v 16.443 h 66.166 c 0,0 7.044,1.958 7.044,8.613 0,6.655 8.224,6.655 8.224,6.655 h 340.61"
   stroke-miterlimit="10" />
			<path
   style="fill:none;stroke:#000000;stroke-width:3;stroke-miterlimit:10;opacity:1"
   inkscape:connector-curvature="0"
   id="path168"
   d="m 892.284,209.821 c 0,0 -19.966,149.164 -143.294,216.112 v 5.285 l 51.096,79.868 7.047,1.762 c 0,0 162.082,-93.375 193.207,-297.741"
   stroke-miterlimit="10" />
			<path
   style="fill:none;stroke:#000000;stroke-width:3;stroke-miterlimit:10;opacity:1"
   inkscape:connector-curvature="0"
   id="path170"
   d="m 997.11,239.184 11.744,-1.174 c 0,0 -1.762,27.895 9.985,27.601 0,0 1.466,18.498 5.577,21.141 l 1.469,-1.468 c 0,0 -2.349,-19.086 0.293,-20.26 l 5.579,-1.468 8.222,2.937 c 0,0 3.819,10.276 14.683,10.863 10.861,0.587 63.129,3.23 63.129,3.23 0,0 13.899,-1.469 20.945,-14.975"
   stroke-miterlimit="10" />
			<polyline
   style="fill:none;stroke:#000000;stroke-width:3;stroke-miterlimit:10;opacity:1"
   id="polyline172"
   points="1006.017,215.498 1011.106,224.062      1042.034,224.062 1049.965,218.042    "
   stroke-miterlimit="10" />
			<path
   style="fill:none;stroke:#000000;stroke-width:3;stroke-miterlimit:10;opacity:1"
   inkscape:connector-curvature="0"
   id="path174"
   d="m 522.701,136.707 -0.05,-36.777 c 0,0 3.571,-9.126 7.881,-9.518 l 187.923,-5.09 v 45.416 l -3.832,5.97 h -7.633 -7.73 l -6.654,-6.46 h -38.468 l -6.652,6.46 h -41.392 l -4.896,-6.949 h -36.997 l -5.04,6.949 h -36.46 z"
   stroke-miterlimit="10" />
			<polyline
   style="fill:none;stroke:#000000;stroke-width:3;stroke-miterlimit:10;opacity:1"
   id="polyline176"
   points="718.455,85.909 722.957,92.761      728.635,92.761    "
   stroke-miterlimit="10" />
			<polyline
   style="fill:none;stroke:#000000;stroke-width:3;stroke-miterlimit:10;opacity:1"
   id="polyline178"
   points="718.455,130.566 722.957,123.715      728.635,123.715    "
   stroke-miterlimit="10" />
			
				<line
   style="fill:none;stroke:#000000;stroke-width:3;stroke-miterlimit:10;opacity:1"
   id="line180"
   y2="162.05701"
   x2="1261.082"
   y1="162.05701"
   x1="803.80298"
   stroke-miterlimit="10" />
			<path
   style="fill:none;stroke:#000000;stroke-width:3;stroke-miterlimit:10;opacity:1"
   inkscape:connector-curvature="0"
   id="path182"
   d="M 522.651,99.929 H 384.501 L 361.4,130.737 c 0,0 -21.532,14.093 -25.447,15.66 0,0 -4.698,16.443 0.392,27.405 v 6.655 h 63.424 v -6.655 c 0,0 -3.133,-19.966 1.175,-28.188 0,0 -1.175,-12.137 1.565,-13.311 h 119.996"
   stroke-miterlimit="10" />
			<path
   style="fill:none;stroke:#000000;stroke-width:3;stroke-miterlimit:10;opacity:1"
   inkscape:connector-curvature="0"
   id="path184"
   d="M 336.933,146.006 H 233.771 c 0,0 -6.461,14.878 0,26.818 h 103.162"
   stroke-miterlimit="10" />
			<path
   style="fill:none;stroke:#000000;stroke-width:3;stroke-miterlimit:10;opacity:1"
   inkscape:connector-curvature="0"
   id="path186"
   d="m 399.965,172.824 h 98.463 c 0,0 0.589,4.894 8.025,4.894 h 16.248"
   stroke-miterlimit="10" />
			<path
   style="fill:none;stroke:#000000;stroke-width:3;stroke-miterlimit:10;opacity:1"
   inkscape:connector-curvature="0"
   id="path188"
   d="m 400.904,146.006 h 94.854 c 0,0 1.691,-9.593 8.543,-9.593 8.809,0 19.379,0 19.379,0"
   stroke-miterlimit="10" />
			<path
   style="fill:none;stroke:#000000;stroke-width:3;stroke-miterlimit:10;opacity:1"
   inkscape:connector-curvature="0"
   id="path190"
   d="M 233.771,146.006 204.016,83.17 c 0,0 1.369,-10.767 -2.153,-10.963 h -19.967 c 0,0 -6.266,0.784 -2.351,18.01 v 38.955 h -5.676 c 0,0 -1.564,1.517 -0.195,5.678 l 1.957,5.872 h -3.523 v 3.72 l 3.327,3.327 v 25.056 h 3.721 c 0,0 -2.665,11.104 8.025,14.486 9.591,3.034 14.064,2.92 18.304,0.195 4.11,-2.643 7.731,-10.375 7.731,-10.375 h 18.988 v -4.698"
   stroke-miterlimit="10" />
			<path
   style="fill:none;stroke:#000000;stroke-width:3;stroke-miterlimit:10;opacity:1"
   inkscape:connector-curvature="0"
   id="path192"
   d="m 173.039,146.103 -4.919,4.918 h -5.654 l -4.954,-4.955 h -2.532 c 0,0 -4.699,13.984 0,26.17 h 4.11 l 3.229,-3.23 h 5.138 l 7.978,3.817"
   stroke-miterlimit="10" />
			<path
   style="fill:none;stroke:#000000;stroke-width:3;stroke-miterlimit:10;opacity:1"
   inkscape:connector-curvature="0"
   id="path194"
   d="m 216.592,131.52 c 0,3.337 -2.729,6.069 -6.068,6.069 h -17.08 c -3.337,0 -6.067,-2.732 -6.067,-6.069 v -4.454 c 0,-3.337 2.73,-6.068 6.067,-6.068 h 17.08 c 3.339,0 6.068,2.731 6.068,6.068 z"
   stroke-miterlimit="10" />
			<path
   style="fill:none;stroke:#000000;stroke-miterlimit:10;opacity:1"
   inkscape:connector-curvature="0"
   id="path196"
   d="m 201.667,103.722 c 0,4.865 -3.946,8.809 -8.809,8.809 -4.868,0 -8.81,-3.943 -8.81,-8.809 0,-4.865 3.941,-8.809 8.81,-8.809 4.863,0.001 8.809,3.944 8.809,8.809 z"
   stroke-miterlimit="10" />
			<polyline
   style="fill:none;stroke:#000000;stroke-width:3;stroke-miterlimit:10;opacity:1"
   id="polyline198"
   points="374.32,179.577 379.019,190.441      388.71,190.441 392.526,180.751    "
   stroke-miterlimit="10" />
			
				<line
   style="fill:none;stroke:#000000;stroke-width:3;stroke-miterlimit:10;opacity:1"
   id="line200"
   y2="180.75101"
   x2="523.28802"
   y1="180.75101"
   x1="211.649"
   stroke-miterlimit="10" />
			
				<line
   style="fill:none;stroke:#000000;stroke-width:3;stroke-miterlimit:10;opacity:1"
   id="line202"
   y2="187.211"
   x2="524.46503"
   y1="187.211"
   x1="390.37201"
   stroke-miterlimit="10" />
			
				<line
   style="fill:none;stroke:#000000;stroke-width:3;stroke-miterlimit:10;opacity:1"
   id="line204"
   y2="187.211"
   x2="377.258"
   y1="187.211"
   x1="206.16901"
   stroke-miterlimit="10" />
		</g>
		<line
   style="fill:none;stroke:#000000;stroke-miterlimit:10;opacity:1"
   id="line208"
   y2="144.929"
   x2="232.79201"
   y1="144.929"
   x1="174.06599"
   stroke-miterlimit="10" />
		<line
   style="fill:none;stroke:#000000;stroke-miterlimit:10;opacity:1"
   id="line210"
   y2="176.05299"
   x2="232.20399"
   y1="176.05299"
   x1="178.763"
   stroke-miterlimit="10" />
		<line
   style="fill:none;stroke:#000000;stroke-miterlimit:10;opacity:1"
   id="line212"
   y2="173.802"
   x2="399.76901"
   y1="173.802"
   x1="336.345"
   stroke-miterlimit="10" />
		<line
   style="fill:none;stroke:#000000;stroke-miterlimit:10;opacity:1"
   id="line214"
   y2="147.963"
   x2="399.76901"
   y1="147.963"
   x1="336.345"
   stroke-miterlimit="10" />
		<line
   style="fill:none;stroke:#000000;stroke-miterlimit:10;opacity:1"
   id="line216"
   y2="132.98801"
   x2="399.76901"
   y1="132.98801"
   x1="358.66101"
   stroke-miterlimit="10" />
		<path
   style="fill:none;stroke:#000000;stroke-miterlimit:10;opacity:1"
   inkscape:connector-curvature="0"
   id="path218"
   d="m 497.227,144.538 c 0,0 -7.021,14.974 1.79,28.286"
   stroke-miterlimit="10" />
		<path
   style="fill:none;stroke:#000000;stroke-miterlimit:10;opacity:1"
   inkscape:connector-curvature="0"
   id="path220"
   d="m 513.502,118.991 c 0,3.445 -4.493,6.264 -9.988,6.264 h -50.691 c -5.493,0 -9.988,-2.819 -9.988,-6.264 0,-3.445 4.495,-6.263 9.988,-6.263 h 50.691 c 5.495,0 9.988,2.818 9.988,6.263 z"
   stroke-miterlimit="10" />
		<path
   style="fill:none;stroke:#000000;stroke-miterlimit:10;opacity:1"
   inkscape:connector-curvature="0"
   id="path222"
   d="m 543.843,90.803 c 0,0 -8.222,3.524 -8.222,10.571 0,7.047 0,35.235 0,35.235 v 45.807 l 3.522,11.745"
   stroke-miterlimit="10" />
		<path
   style="fill:none;stroke:#000000;stroke-miterlimit:10;opacity:1"
   inkscape:connector-curvature="0"
   id="path224"
   d="m 711.017,84.147 c 0,0 -2.741,16.639 -0.781,51.875"
   stroke-miterlimit="10" />
		<polyline
   style="fill:none;stroke:#000000;stroke-miterlimit:10;opacity:1"
   id="polyline226"
   points="745.177,78.274 757.361,90.46 830.917,90.46   "
   stroke-miterlimit="10" />
		<circle
   style="fill:none;stroke:#000000;stroke-miterlimit:10;opacity:1"
   id="circle228"
   r="4.9910002"
   cy="90.313004"
   cx="738.716"
   stroke-miterlimit="10" />
		<polyline
   style="fill:none;stroke:#000000;stroke-miterlimit:10;opacity:1"
   id="polyline230"
   points="804.487,139.35 804.487,125.549 838.258,125.549   "
   stroke-miterlimit="10" />
		<path
   style="fill:none;stroke:#000000;stroke-miterlimit:10;opacity:1"
   inkscape:connector-curvature="0"
   id="path232"
   d="m 791.276,139.643 c 0,0 -1.176,61.956 1.761,74.582"
   stroke-miterlimit="10" />
		<line
   style="fill:none;stroke:#000000;stroke-miterlimit:10;opacity:1"
   id="line234"
   y2="122.907"
   x2="1241.116"
   y1="122.907"
   x1="838.64697"
   stroke-miterlimit="10" />
		<line
   style="fill:none;stroke:#000000;stroke-miterlimit:10;opacity:1"
   id="line236"
   y2="136.722"
   x2="1251.158"
   y1="124.375"
   x1="1240.235"
   stroke-miterlimit="10" />
		<line
   style="fill:none;stroke:#000000;stroke-miterlimit:10;opacity:1"
   id="line238"
   y2="231.354"
   x2="1286.924"
   y1="158.924"
   x1="1299.452"
   stroke-miterlimit="10" />
		<line
   style="fill:none;stroke:#000000;stroke-miterlimit:10;opacity:1"
   id="line240"
   y2="234.877"
   x2="1243.072"
   y1="243.49001"
   x1="1136.191"
   stroke-miterlimit="10" />
		<line
   style="fill:none;stroke:#000000;stroke-miterlimit:10;opacity:1"
   id="line242"
   y2="245.056"
   x2="1009.345"
   y1="223.132"
   x1="1010.519"
   stroke-miterlimit="10" />
		<g
   id="g246">
			
		</g>
		
		
		
		
		<circle
   style="fill:none;stroke:#000000;stroke-miterlimit:10;opacity:1"
   id="circle256"
   r="5.8730001"
   cy="250.929"
   cx="1021.872"
   stroke-miterlimit="10" />
		<path
   style="fill:none;stroke:#000000;stroke-miterlimit:10;opacity:1"
   inkscape:connector-curvature="0"
   id="path258"
   d="m 814.962,77.393 c -3.09,1.659 -3.23,13.018 9.102,13.018"
   stroke-miterlimit="10" />
		<path
   style="fill:none;stroke:#000000;stroke-miterlimit:10;opacity:1"
   inkscape:connector-curvature="0"
   id="path260"
   d="m 429.522,131.127 c 0,0 -8.221,-21.924 1.959,-31.712"
   stroke-miterlimit="10" />
		<g
   id="g280">
			<path
   style="fill:none;stroke:#000000;stroke-width:3;stroke-miterlimit:10;opacity:1"
   inkscape:connector-curvature="0"
   id="path262"
   d="m 892.284,209.821 c 0,0 -19.966,149.164 -143.294,216.112 v 5.285 l 51.096,79.868 7.047,1.762 c 0,0 162.082,-93.375 193.207,-297.741"
   stroke-miterlimit="10" />
			<path
   style="fill:none;stroke:#000000;stroke-miterlimit:10;opacity:1"
   inkscape:connector-curvature="0"
   id="path264"
   d="M 920.667,211.583 C 890.523,367.207 800.086,422.41 800.086,422.41 l -4.699,-7.047 C 889.938,351.939 913.034,211.388 913.034,211.388 Z"
   stroke-miterlimit="10" />
			<path
   style="fill:none;stroke:#000000;stroke-miterlimit:10;opacity:1"
   inkscape:connector-curvature="0"
   id="path266"
   d="m 913.034,211.387 7.633,0.196 C 884.455,401.66 759.563,445.9 759.563,445.9"
   stroke-miterlimit="10" />
			<path
   style="fill:none;stroke:#000000;stroke-miterlimit:10;opacity:1"
   inkscape:connector-curvature="0"
   id="path268"
   d="M 988.887,214.813 C 953.066,387.761 842.661,474.088 842.661,474.088 l -4.111,-5.873 C 960.993,354.874 981.253,214.617 981.253,214.617 Z"
   stroke-miterlimit="10" />
			<path
   style="fill:none;stroke:#000000;stroke-miterlimit:10;opacity:1"
   inkscape:connector-curvature="0"
   id="path270"
   d="m 936.394,227.822 c -0.223,-1.512 -1.756,-2.846 -3.786,-3.147 -2.334,-0.347 -4.44,0.803 -4.743,2.572 l -0.05,-0.004 c 0,0 -11.059,112.656 -121.27,203.779 v 0.002 c -1.285,0.938 -1.857,2.846 -1.277,4.745 0.703,2.295 2.813,3.685 4.712,3.102 0.52,-0.158 0.959,-0.455 1.321,-0.838 2.488,-1.575 96.478,-61.962 125.017,-209.171 0.029,-0.098 0.082,-0.382 0.086,-0.428 0.037,-0.204 -0.01,-0.612 -0.01,-0.612 z"
   stroke-miterlimit="10" />
			<path
   style="fill:none;stroke:#000000;stroke-miterlimit:10;opacity:1"
   inkscape:connector-curvature="0"
   id="path272"
   d="m 952.444,227.822 c -0.199,-1.572 -1.779,-2.948 -3.856,-3.227 -2.323,-0.313 -4.397,0.869 -4.721,2.648 l -0.002,-0.001 c 0,0 -0.003,0.024 -0.005,0.031 -0.005,0.029 -0.019,0.053 -0.022,0.082 -0.003,0.025 0.002,0.05 0,0.076 -0.736,5.144 -19.242,127.32 -127.116,216.51 l 0.017,0.019 c -1.396,0.937 -1.939,3 -1.204,4.956 0.837,2.221 3.003,3.461 4.841,2.769 0.414,-0.157 0.769,-0.408 1.071,-0.713 1.062,-0.762 102.271,-73.748 130.988,-222.425 0,-0.013 0.005,-0.023 0.007,-0.035 0,-0.005 0,-0.009 0,-0.012 0.037,-0.197 0.002,-0.678 0.002,-0.678 z"
   stroke-miterlimit="10" />
			<path
   style="fill:none;stroke:#000000;stroke-miterlimit:10;opacity:1"
   inkscape:connector-curvature="0"
   id="path274"
   d="m 969.632,227.819 c -0.271,-1.517 -1.805,-2.825 -3.825,-3.096 -2.266,-0.305 -4.287,0.816 -4.684,2.521 l -0.033,-0.002 c 0,0 -25.74,136.048 -135.951,227.171 l 0.002,0.004 c -1.461,0.946 -2.051,3.114 -1.16,5.082 1.552,3.431 5.591,2.219 5.859,1.962 v 0 c 0,0 110.703,-83.261 139.729,-232.481 0.033,-0.114 0.089,-0.417 0.094,-0.457 0.046,-0.232 -0.031,-0.704 -0.031,-0.704 z"
   stroke-miterlimit="10" />
			<path
   style="fill:none;stroke:#000000;stroke-miterlimit:10;opacity:1"
   inkscape:connector-curvature="0"
   id="path276"
   d="m 810.847,494.736 c 0.938,1.415 0.551,3.342 -0.865,4.28 l -0.245,0.162 c -1.413,0.938 -3.341,0.549 -4.279,-0.866 l -44.325,-66.795 c -0.938,-1.415 -0.546,-3.341 0.868,-4.28 l 0.24,-0.161 c 1.416,-0.939 3.341,-0.55 4.282,0.866 z"
   stroke-miterlimit="10" />
			<path
   style="fill:none;stroke:#000000;stroke-miterlimit:10;opacity:1"
   inkscape:connector-curvature="0"
   id="path278"
   d="m 827.387,482.759 c 0.956,1.342 0.602,3.245 -0.78,4.229 l -0.237,0.169 c -1.385,0.984 -3.3,0.69 -4.253,-0.653 l -45.028,-63.371 c -0.956,-1.343 -0.603,-3.246 0.784,-4.229 l 0.235,-0.169 c 1.383,-0.984 3.297,-0.689 4.253,0.653 z"
   stroke-miterlimit="10" />
		</g>
		<path
   style="fill:none;stroke:#000000;stroke-miterlimit:10;opacity:1"
   inkscape:connector-curvature="0"
   id="path282"
   d="m 1041.84,222.936 2.739,5.873 v 32.886 c 0,0 2.154,11.354 13.705,11.354 l 56.181,2.74 c 0,0 15.464,-0.979 20.75,-14.29"
   stroke-miterlimit="10" />
		<path
   style="fill:none;stroke:#000000;stroke-width:3;stroke-miterlimit:10;opacity:1"
   inkscape:connector-curvature="0"
   id="path284"
   d="m 1097.433,220.783 c 0,0 9.789,6.068 10.18,13.703 l 0.194,11.941 c 0,0 -4.108,11.745 -19.77,15.268 l 0.392,1.958 c 0,0 19.771,-1.37 25.057,-17.226 l 1.565,-10.766 c 0,0 1.177,-4.503 4.894,-5.677 3.72,-1.175 12.335,-8.222 12.335,-8.222"
   stroke-miterlimit="10" />
		<line
   style="fill:none;stroke:#000000;stroke-miterlimit:10;opacity:1"
   id="line286"
   y2="264.828"
   x2="1026.179"
   y1="264.828"
   x1="1019.523"
   stroke-miterlimit="10" />
		<circle
   style="fill:none;stroke:#000000;stroke-width:3;stroke-miterlimit:10;opacity:1"
   id="circle288"
   r="2.5439999"
   cy="102.548"
   cx="450.85999"
   stroke-miterlimit="10" />
		<circle
   style="fill:none;stroke:#000000;stroke-width:3;stroke-miterlimit:10;opacity:1"
   id="circle290"
   r="2.5439999"
   cy="102.548"
   cx="462.99701"
   stroke-miterlimit="10" />
		<circle
   style="fill:none;stroke:#000000;stroke-width:3;stroke-miterlimit:10;opacity:1"
   id="circle292"
   r="2.5439999"
   cy="102.548"
   cx="475.134"
   stroke-miterlimit="10" />
		<path
   style="fill:none;stroke:#000000;stroke-width:3;stroke-miterlimit:10;opacity:1"
   inkscape:connector-curvature="0"
   id="path294"
   d="m 489.813,102.548 c 0,1.406 -1.14,2.545 -2.545,2.545 -1.402,0 -2.544,-1.139 -2.544,-2.545 0,-1.404 1.142,-2.544 2.544,-2.544 1.406,-0.001 2.545,1.14 2.545,2.544 z"
   stroke-miterlimit="10" />
		<circle
   style="fill:none;stroke:#000000;stroke-miterlimit:10;opacity:1"
   id="circle296"
   r="4.9920001"
   cy="82.190002"
   cx="822.987"
   stroke-miterlimit="10" />
	</g>
</g>
<g
   id="Layer_2_1_"
   transform="matrix(-1,0,0,1,1692.6416,-70.0114)">
</g>
<path
   style="fill:#ffffff;stroke-width:1.47721;stroke-miterlimit:10"
   d="m 40.647237,315.60669 c -2.213849,-1.20141 -4.729166,-3.4998 -5.58959,-5.10751 -0.860426,-1.60772 -6.534777,-31.01013 -12.60967,-65.3387 C 16.373086,210.8319 9.7122763,173.85155 7.6461796,162.98192 5.5800831,152.11229 4.0917308,141.47639 4.3387302,139.3466 L 4.78782,135.47426 118.53279,115.97484 C 248.84676,93.63497 252.37882,93.280938 268.1737,100.97569 c 7.95305,3.87446 11.78067,4.76445 23.01346,5.35107 11.69768,0.61089 19.17576,-0.31988 56.73042,-7.061086 23.79118,-4.270602 43.58094,-7.440458 43.97727,-7.044123 0.39634,0.396334 3.25035,15.374829 6.34225,33.285539 l 5.62163,32.56493 -176.91,79.91867 c -97.30051,43.95528 -178.117433,79.89206 -179.593164,79.85953 -1.475731,-0.0325 -4.494478,-1.04211 -6.708329,-2.24353 z"
   id="path1043" /><path
   style="fill:#ffffff;stroke-width:0.522272;stroke-miterlimit:10"
   d="m 406.05199,158.30923 c -0.85001,-4.24586 -11.7512,-67.599502 -11.65407,-67.729097 0.16797,-0.224087 34.06164,-6.336013 35.14325,-6.337258 0.62669,-7.21e-4 0.68721,2.621087 0.40383,17.493225 l -0.33335,17.49406 9.18694,17.52587 c 5.05283,9.63922 9.04844,17.66437 8.87915,17.83367 -0.16929,0.16929 -2.83998,-0.0796 -5.93487,-0.55301 -3.09489,-0.47344 -6.42421,-0.85945 -7.39848,-0.8578 -1.53605,0.003 -24.83955,4.28581 -27.34524,5.02608 -0.50268,0.14851 -0.9289,0.19543 -0.94716,0.10426 z"
   id="path1045" /><path
   style="fill:#ffffff;stroke-width:0.738604;stroke-miterlimit:10"
   d="m 434.39822,81.714349 c 0.29826,-0.50779 2.40411,-3.9146 4.67966,-7.570688 2.27555,-3.656088 4.56909,-7.478362 5.09674,-8.493942 0.52765,-1.01558 2.93487,-4.006925 5.34938,-6.647433 l 4.39,-4.800924 199.03939,-0.18868 199.03938,-0.188679 v 6.651462 6.651461 h -32.24901 -32.24902 l -3.10785,1.821319 c -3.25707,1.908771 -5.51588,5.496818 -5.51588,8.7618 0,1.136064 -0.76123,2.464711 -1.94612,3.396743 l -1.94611,1.530815 H 604.41734 c -136.24597,0 -170.45232,-0.18575 -170.01912,-0.923254 z"
   id="path1049" /><path
   style="fill:#ffffff;stroke-width:0.738604;stroke-miterlimit:10"
   d="m 433.94309,88.177131 v -1.846509 h 170.64118 c 184.2113,0 173.97488,0.218848 176.77533,-3.779341 0.66243,-0.945765 1.20443,-2.734964 1.20443,-3.975998 0,-2.770452 1.61588,-5.191357 4.43978,-6.651651 1.80087,-0.931263 7.33251,-1.103687 35.40814,-1.103687 h 33.27384 v -7.386037 -7.386037 h 15.99597 15.99597 l -0.48529,12.304925 c -0.26691,6.767708 -0.48529,14.412256 -0.48529,16.987884 v 4.68296 H 660.32512 433.94309 Z"
   id="path1051" /><path
   style="fill:#ffffff;stroke-width:0.738604;stroke-miterlimit:10"
   d="m 456.83981,51.538953 c 0,-1.597937 15.24173,-15.943391 21.0502,-19.812363 3.24986,-2.1647 5.82574,-4.225404 5.72418,-4.579342 -0.10455,-0.364378 78.15048,-0.643524 180.40395,-0.643524 h 180.5886 v 5.496597 5.496596 l 3.50837,0.98902 3.50836,0.989019 0.21341,6.439948 0.21341,6.439949 H 654.44504 c -143.72475,0 -197.60523,-0.222469 -197.60523,-0.8159 z"
   id="path1053" /><path
   style="fill:#ffffff;stroke-width:0.261136;stroke-miterlimit:10"
   d="m 439.80522,63.691224 c -1.149,-0.731676 -2.18408,-1.420078 -2.30017,-1.529784 -0.1161,-0.109706 2.79735,-1.817046 6.47433,-3.79409 3.67699,-1.977043 6.7458,-3.534247 6.8196,-3.460452 0.12343,0.123427 -8.38651,9.901587 -8.74599,10.049398 -0.0873,0.03589 -1.09877,-0.533397 -2.24777,-1.265072 z"
   id="path1055" /><path
   style="fill:#ffffff;stroke-width:0.369302;stroke-miterlimit:10"
   d="m 572.12549,208.23112 c -4.83271,-1.32905 -10.48094,-4.98376 -13.53441,-8.7575 -2.62857,-3.2486 -2.84606,-3.75498 -2.10106,-4.89199 0.33875,-0.517 0.73672,-0.9367 0.88437,-0.93267 0.14766,0.004 0.76702,0.85456 1.37637,1.89006 2.46015,4.18068 8.35382,8.25671 14.42367,9.97534 2.27522,0.64421 3.76225,0.81568 6.62653,0.76413 8.4638,-0.15236 57.01205,-2.69456 58.62625,-3.06994 2.20961,-0.51384 5.68655,-2.74231 7.02776,-4.5043 0.5644,-0.74146 1.51984,-2.39161 2.12319,-3.66699 l 1.09701,-2.31888 3e-4,-16.66166 c 2.8e-4,-16.16979 0.0236,-16.71763 0.78813,-18.55742 l 0.78784,-1.89576 h 15.61294 15.61294 l 0.27452,3.2314 c 0.54231,6.38332 0.36019,19.57846 -0.32136,23.28398 -1.16251,6.32051 -2.92441,9.96943 -5.4358,11.25765 -1.88475,0.96678 -7.22785,0.67911 -11.74107,-0.63213 l -3.4412,-0.99978 -4.31414,1.5519 c -2.37278,0.85354 -4.48033,1.61465 -4.68345,1.69134 -0.20311,0.0767 -0.86185,1.08053 -1.46386,2.23074 -2.45689,4.69417 -6.76003,7.68859 -11.92694,8.29958 -3.01606,0.35664 -60.06305,3.28837 -62.88538,3.23177 -0.90558,-0.0182 -2.44149,-0.25166 -3.41315,-0.51887 z M 673.30261,186.9696 c 2.40615,-0.91166 3.9149,-3.25053 3.9149,-6.06888 0,-4.33026 -3.57881,-7.14045 -8.03,-6.3054 -1.60725,0.30152 -3.82278,2.16905 -4.50213,3.79498 -2.20716,5.28247 3.17528,10.6412 8.61723,8.5793 z"
   id="path1065" /><path
   style="fill:#ffffff;stroke-width:0.369302;stroke-miterlimit:10"
   d="m 649.24129,150.88373 c -1.434,-1.07352 -1.67607,-1.39073 -1.1079,-1.45177 2.40524,-0.25841 34.58183,-1.64316 34.73034,-1.49465 0.0995,0.0995 -0.3645,1.11405 -1.03119,2.25447 l -1.21217,2.07349 -14.77208,-0.004 -14.77207,-0.004 z"
   id="path1067" /><path
   style="fill:#ffffff;stroke-width:0.369302;stroke-miterlimit:10"
   d="m 668.71801,185.53499 c -2.82453,-1.29057 -3.9134,-4.69809 -2.33072,-7.29378 0.93808,-1.53849 2.51464,-2.32606 4.65634,-2.32606 1.50335,0 1.90297,0.17933 3.12677,1.40312 1.84783,1.84784 2.18715,3.54237 1.14176,5.70186 -1.30344,2.69254 -3.97519,3.71149 -6.59415,2.51486 z"
   id="path1069" /><path
   style="fill:#ffffff;stroke-width:0.369302;stroke-miterlimit:10"
   d="m 669.14153,203.61326 0.0305,-8.12358 1.38488,-7.7e-4 c 1.30472,-7.2e-4 1.38488,0.066 1.38488,1.15207 0,2.64364 -2.12706,14.39219 -2.7115,14.97663 -0.0656,0.0656 -0.1055,-3.53639 -0.0887,-8.00435 z"
   id="path1071" /><path
   style="fill:#ffffff;stroke-width:0.369302;stroke-miterlimit:10"
   d="m 690.77617,167.02097 c -1.52337,-0.16743 -3.78882,-0.40627 -5.03432,-0.53077 l -2.26456,-0.22636 -0.26357,-5.62378 -0.26356,-5.62378 2.27667,-3.76869 2.27667,-3.76869 h 1.77341 1.7734 l 0.25479,1.93884 c 0.22459,1.70904 2.35234,13.58356 3.01091,16.80323 0.18428,0.90094 0.11888,1.18829 -0.26229,1.15232 -0.27928,-0.0264 -1.75418,-0.18489 -3.27755,-0.35232 z"
   id="path1073" /><path
   style="fill:#ffffff;stroke-width:0.369302;stroke-miterlimit:10"
   d="m 589.01778,186.48534 c -2.69485,-1.81482 -5.88096,-5.4294 -7.12112,-8.0788 -0.81039,-1.73124 -1.28188,-3.68878 -1.88984,-7.84627 -1.1953,-8.17395 -2.20497,-9.93783 -7.08146,-12.37118 -3.01858,-1.50627 -7.60304,-4.54042 -7.08444,-4.68872 0.29889,-0.0855 22.34154,-1.22054 23.70246,-1.22054 0.5833,0 0.31653,0.43758 -1.29457,2.12348 -1.16739,1.22158 -2.60809,3.29094 -3.39205,4.87219 l -1.36278,2.7487 -0.10897,7.7764 -0.10897,7.7764 1.40153,2.37911 c 0.77084,1.30851 2.60905,3.59357 4.08492,5.0779 1.47587,1.48434 2.55386,2.69879 2.39553,2.69879 -0.15832,0 -1.12143,-0.56135 -2.14024,-1.24746 z"
   id="path1075" /><path
   style="fill:#ffffff;stroke-width:0.369302;stroke-miterlimit:10"
   d="m 503.17083,168.50901 c -26.91287,-2.20036 -49.14022,-4.01001 -49.39412,-4.02144 -0.32593,-0.0147 -0.46163,-0.82572 -0.46163,-2.75904 v -2.73825 l 2.67744,-0.21604 c 1.47259,-0.11881 20.21005,-1.04891 41.63878,-2.06687 21.42874,-1.01796 42.58219,-2.03653 47.00766,-2.26349 4.42547,-0.22696 8.14279,-0.31617 8.26072,-0.19824 0.11792,0.11792 0.60442,3.75386 1.08111,8.07987 0.47668,4.326 0.9451,8.40556 1.04093,9.06569 0.17358,1.1957 0.1684,1.20008 -1.37208,1.15936 -0.85047,-0.0225 -23.56594,-1.84118 -50.47881,-4.04155 z"
   id="path1077" /><path
   style="fill:#ffffff;stroke-width:0.369302;stroke-miterlimit:10"
   d="m 478.24296,335.07069 c -22.17868,-1.95548 -37.68984,-7.61771 -47.46877,-17.3281 -3.19961,-3.17719 -7.48131,-9.1649 -9.49564,-13.2791 -1.18522,-2.42078 -1.56263,-6.48904 -0.81372,-8.77141 0.25549,-0.77863 3.03147,-6.98292 6.16884,-13.78731 17.79403,-38.59197 27.46652,-62.28862 30.23535,-74.07359 0.94512,-4.0227 1.03366,-5.00917 1.02508,-11.41978 -0.009,-6.40913 -0.0939,-7.33025 -0.9854,-10.63721 -0.5368,-1.99126 -1.56496,-4.84498 -2.28481,-6.3416 l -1.30881,-2.72113 v -5.38373 c 0,-4.90491 0.0582,-5.38373 0.65385,-5.38373 1.96857,0 101.03097,8.12834 101.20693,8.30431 0.31853,0.31853 1.13659,7.79817 1.15672,10.57597 0.01,1.3455 -0.23443,3.16101 -0.5426,4.03448 -0.83378,2.36316 -2.72818,4.64705 -4.24061,5.11247 -1.87211,0.57612 -4.64702,2.8179 -7.09313,5.73039 -4.72454,5.62532 -4.95069,6.0957 -15.03084,31.2635 -10.82546,27.02867 -15.56218,38.49429 -19.51872,47.24664 -6.86435,15.18476 -9.72351,22.94571 -12.58481,34.16042 -1.72459,6.75945 -2.46682,10.79408 -2.84392,15.45911 -0.23422,2.89743 -0.38855,3.41343 -1.34762,4.50575 -2.2465,2.55862 -6.99118,3.42985 -14.88737,2.73365 z"
   id="path1079" /><path
   style="fill:#ffffff;stroke-width:0.522272;stroke-miterlimit:10"
   d="m 929.2096,373.3989 c -1.79531,-0.81383 -3.2642,-1.6133 -3.2642,-1.7766 0,-0.1633 1.52764,-2.58134 3.39476,-5.37342 3.50899,-5.24733 3.98958,-6.87536 2.61071,-8.84397 -0.96343,-1.37548 -3.48081,-1.99424 -4.93883,-1.21393 -0.59604,0.31899 -2.7867,3.12852 -4.86813,6.24341 l -3.78441,5.66343 -3.79948,-2.20664 c -2.08972,-1.21366 -4.02126,-2.42842 -4.29232,-2.69948 -0.30894,-0.30894 0.80267,-2.32453 2.97903,-5.40162 3.97163,-5.61539 4.33942,-7.27361 2.05002,-9.24287 -1.5729,-1.35295 -3.31734,-1.56712 -4.64422,-0.57018 -0.4779,0.35906 -2.47611,2.92354 -4.44048,5.69885 l -3.57157,5.04601 -4.4074,-3.14578 c -2.42406,-1.73017 -4.45929,-3.19103 -4.52272,-3.24635 -0.0634,-0.0553 0.9541,-1.69472 2.26119,-3.64312 1.30708,-1.94841 2.29907,-3.59518 2.20441,-3.65948 -10.17816,-6.91473 -19.344,-14.49175 -29.08638,-24.04451 -19.19431,-18.82074 -34.61074,-39.91749 -49.25704,-67.40623 -17.09729,-32.08887 -31.5479,-72.56851 -38.80853,-108.71206 l -0.33072,-1.64637 5.12244,-0.31444 c 2.81734,-0.17294 6.91304,-0.42118 9.10156,-0.55165 l 3.97912,-0.23722 1.18638,6.3762 c 6.31739,33.95276 22.28156,76.11415 40.77883,107.6969 24.67483,42.13051 57.98336,76.1225 96.05148,98.02239 6.62347,3.81035 6.62058,3.76054 0.75207,12.96034 -2.47367,3.87787 -4.65369,7.19859 -4.84448,7.37938 -0.1908,0.18079 -1.81579,-0.33715 -3.61109,-1.15099 z"
   id="path1081" /><path
   style="fill:#ffffff;stroke-width:0.522272;stroke-miterlimit:10"
   d="m 885.32438,345.82329 c -31.61919,-25.33918 -56.9316,-57.61863 -77.45611,-98.77526 -14.68447,-29.44595 -26.24288,-63.09192 -33.43019,-97.31362 -1.34957,-6.42586 -1.2852,-6.59661 2.4923,-6.61045 l 2.18262,-0.008 0.59712,3.00307 c 9.38955,47.22287 30.84553,99.93394 55.64545,136.70461 16.26132,24.11053 36.49314,45.53436 56.31797,59.63608 l 4.4331,3.15333 -1.80719,2.68352 c -0.99395,1.47593 -1.97721,2.67944 -2.18502,2.67445 -0.20781,-0.005 -3.26333,-2.32146 -6.79005,-5.14773 z"
   id="path1083" /><path
   style="fill:#ffffff;stroke-width:0.522272;stroke-miterlimit:10"
   d="M 877.07834,435.18391 C 839.9474,410.07695 802.7267,374.01902 773.9858,335.31194 736.58728,284.94512 711.39156,229.46727 698.55813,169.22955 c -1.91196,-8.97439 -4.13805,-21.43915 -3.87178,-21.67965 0.0846,-0.0764 2.06429,-0.30468 4.3993,-0.50724 l 4.24547,-0.36831 0.89331,4.09636 c 18.45709,84.63628 58.7123,163.24067 115.23681,225.01728 11.0525,12.07947 28.85017,28.98608 30.51378,28.98608 0.47751,0 4.0428,-4.66391 4.82625,-6.31343 0.0803,-0.16902 -5.58028,-6.04458 -12.57902,-13.0568 -22.06242,-22.1049 -38.90883,-42.27533 -55.78749,-66.79511 -34.40508,-49.98054 -60.92882,-110.32007 -72.54469,-165.03371 -0.82169,-3.87038 -1.44868,-7.07501 -1.39332,-7.1214 0.22356,-0.18732 58.93234,-2.90989 59.05927,-2.73882 0.0753,0.10151 0.77863,3.35737 1.56293,7.23524 1.6341,8.07971 5.37999,23.29856 7.71293,31.3363 14.97348,51.58831 36.18831,92.47374 67.61424,130.30678 6.9754,8.39755 23.15484,24.6497 30.49483,30.63187 5.36904,4.37583 20.51383,15.46756 21.80484,15.96942 0.35906,0.13958 0.65284,0.48183 0.65284,0.76056 0,0.27874 -8.38589,12.29848 -18.63531,26.71055 -20.0971,28.25924 -20.21619,28.46884 -17.44803,30.71036 1.52305,1.23329 4.32812,1.26617 5.39822,0.0633 0.44719,-0.50269 9.07413,-12.54758 19.17098,-26.76642 10.09684,-14.21885 18.52196,-25.90581 18.72249,-25.97102 0.20052,-0.0652 2.26601,0.99239 4.58997,2.35022 l 4.22538,2.46879 -18.45728,27.86444 c -11.62121,17.54421 -18.45729,28.33702 -18.45729,29.14039 0,2.81439 4.17575,4.89655 6.39148,3.18698 0.46537,-0.35906 8.99837,-12.99151 18.96222,-28.0721 9.96385,-15.08059 18.30941,-27.6281 18.54568,-27.88336 0.4719,-0.50981 7.40729,2.2266 7.16792,2.82816 -0.0802,0.20154 -9.17624,14.46879 -20.21342,31.70498 l -20.06762,31.33853 -2.56047,0.59104 c -1.40827,0.32506 -2.73441,0.59103 -2.947,0.59103 -0.21258,0 -4.13127,-2.53211 -8.70821,-5.62691 z m -10.30246,-42.96935 c 1.45619,-0.50763 2.24098,-1.50238 2.95592,-3.74676 0.63847,-2.00433 -0.85791,-3.97523 -6.87159,-9.05064 -8.19406,-6.91559 -30.33891,-29.08223 -37.80077,-37.83796 -21.87809,-25.6717 -39.24102,-51.61213 -55.05829,-82.25779 -15.5468,-30.12161 -29.78681,-67.97304 -36.50975,-97.04672 -1.62503,-7.02752 -2.42211,-8.19102 -5.61138,-8.19102 -2.68027,0 -5.00176,1.26143 -5.42501,2.94781 -0.4025,1.6037 0.98033,8.49205 4.56022,22.71596 15.04789,59.78955 44.84361,115.85557 88.85153,167.19016 11.31084,13.19393 35.22877,36.55474 44.96525,43.91789 2.69432,2.03756 3.48135,2.21751 5.94387,1.35907 z m 9.39723,-10.73102 c 1.32179,-0.83284 2.24626,-3.6285 1.86294,-5.63369 -0.18378,-0.96143 -2.39901,-3.20839 -7.38235,-7.4881 -31.04081,-26.65797 -58.91076,-61.00701 -79.93029,-98.51215 -18.40853,-32.84635 -33.98634,-74.09744 -39.77258,-105.3205 -1.59537,-8.60875 -1.97882,-9.53721 -4.24802,-10.28585 -3.55275,-1.17211 -7.2084,0.82081 -7.2084,3.92973 0,2.01428 4.06888,19.90624 6.79355,29.87306 16.63024,60.83321 47.63259,116.53698 90.33419,162.30879 4.10087,4.39572 10.84836,11.14408 14.99441,14.99634 7.45698,6.92858 19.02001,16.5639 20.53486,17.11142 0.96775,0.34979 2.50765,-0.0251 4.02169,-0.97905 z m 9.23722,-12.20151 c 2.32182,-0.88275 3.67695,-4.96549 2.42474,-7.30526 -0.27872,-0.5208 -3.7453,-3.73228 -7.70351,-7.13663 -13.98405,-12.02733 -31.76955,-30.25854 -43.76171,-44.85838 -10.54821,-12.84192 -22.8831,-30.58965 -31.57969,-45.43763 -5.53704,-9.45356 -16.25755,-31.11708 -20.67631,-41.78174 -7.54014,-18.1981 -14.89437,-43.02881 -17.50187,-59.09306 -1.40092,-8.6308 -1.97121,-9.58566 -5.72504,-9.58566 -3.29453,0 -5.20211,1.46523 -5.20211,3.99581 0,5.18639 6.90277,32.39347 12.63441,49.79817 14.36581,43.62325 35.75784,82.35153 64.04323,115.94431 6.95217,8.25667 26.27175,27.58835 33.69548,33.71661 7.34373,6.06222 15.99598,12.2433 17.13811,12.2433 0.49478,0 1.4912,-0.22493 2.21427,-0.49984 z"
   id="path1085" /><path
   style="fill:#ffffff;stroke-width:0.522272;stroke-miterlimit:10"
   d="m 878.15754,364.829 c -15.81142,-11.31931 -35.28826,-30.29782 -50.05243,-48.7718 -33.0019,-41.29433 -55.99419,-90.19114 -68.55023,-145.78311 -2.87843,-12.74426 -2.89846,-13.38366 -0.45133,-14.40614 1.54271,-0.64458 2.08678,-0.6612 3.25867,-0.0995 1.31547,0.63049 1.48191,1.11456 2.56471,7.45939 7.27102,42.60541 27.69753,89.66786 56.21511,129.51899 11.26544,15.74258 23.61954,30.30611 37.68907,44.42944 7.63152,7.66071 12.02048,11.7089 25.72426,23.72699 1.50104,1.31641 2.21965,2.3696 2.21965,3.25311 0,1.60226 -1.84812,4.06252 -3.04097,4.0482 -0.48183,-0.006 -2.99127,-1.52478 -5.57651,-3.37554 z"
   id="path1087" /><path
   style="fill:#ffffff;stroke-width:0.522272;stroke-miterlimit:10"
   d="m 868.19911,377.54628 c -7.7419,-6.1826 -11.04815,-9.15669 -20.51376,-18.45278 -53.05416,-52.10406 -90.47181,-121.34918 -105.6346,-195.48743 -1.19407,-5.83841 -1.1955,-5.8925 -0.18255,-6.88717 1.55917,-1.53104 3.50601,-1.81743 4.81863,-0.70885 0.88477,0.74724 1.45932,2.64776 2.73326,9.04132 9.92001,49.78558 34.86395,104.62703 67.11652,147.56156 15.37689,20.46967 32.40572,38.89872 51.04166,55.23866 4.52239,3.96521 8.45904,7.65143 8.74813,8.19158 0.68165,1.27366 -0.0749,3.29151 -1.64687,4.39257 -0.65654,0.45986 -1.33356,0.83611 -1.50448,0.83611 -0.17092,0 -2.41009,-1.67651 -4.97594,-3.72557 z"
   id="path1089" /><path
   style="fill:#ffffff;stroke-width:0.522272;stroke-miterlimit:10"
   d="m 861.10004,389.01561 c -7.83718,-6.12456 -22.28702,-19.67352 -31.93107,-29.94031 -37.53438,-39.95809 -66.04745,-84.29835 -85.55331,-133.0427 -7.01629,-17.53343 -14.61419,-42.54255 -18.29031,-60.20412 -1.63131,-7.83744 -1.65207,-8.09875 -0.7249,-9.12327 1.13881,-1.25837 4.52119,-1.44236 5.47124,-0.29762 0.34559,0.4164 1.30208,3.64796 2.12553,7.18123 7.69196,33.00459 23.88819,74.34003 41.8807,106.88646 24.66403,44.61445 52.31801,79.32692 87.96216,110.41388 3.19987,2.79075 5.95478,5.43071 6.12204,5.86656 0.69478,1.81057 -1.37917,4.43929 -3.50241,4.43929 -0.42396,0 -2.02581,-0.98073 -3.55967,-2.1794 z"
   id="path1091" /><path
   style="fill:#ffffff;stroke-width:0.522272;stroke-miterlimit:10"
   d="m 842.8758,396.74745 c -40.95981,-37.41547 -78.05602,-89.63197 -103.75382,-146.04352 -13.09703,-28.75047 -24.78704,-63.19368 -31.9512,-94.1404 -1.18047,-5.09918 -2.1463,-9.36659 -2.1463,-9.48312 0,-0.11653 1.3032,-0.29238 2.89599,-0.39078 2.54841,-0.15743 2.9237,-0.0535 3.12688,0.86564 0.12699,0.5745 1.05809,4.95394 2.06911,9.73209 6.99372,33.05285 21.33484,71.95382 39.92603,108.30131 23.87163,46.67123 52.85063,86.32667 89.74918,122.81457 l 10.11648,10.00388 -1.41547,2.13894 c -0.77852,1.1764 -1.5733,2.13892 -1.76619,2.13892 -0.19289,0 -3.2757,-2.67189 -6.85069,-5.93753 z"
   id="path1093" /><path
   style="fill:#ffffff;stroke-width:0.522272;stroke-miterlimit:10"
   d="m 866.14122,415.73728 c -0.86926,-0.96052 -0.90499,-1.24239 -0.28449,-2.24437 0.39029,-0.63025 8.92717,-12.71764 18.97085,-26.86087 l 18.26123,-25.71497 1.54529,0.90707 c 0.8499,0.49888 1.73316,1.14208 1.9628,1.42933 0.24065,0.30104 -7.52811,11.69477 -18.3396,26.89699 -19.7776,27.80966 -19.93727,27.99438 -22.11608,25.58682 z"
   id="path1095" /><path
   style="fill:#ffffff;stroke-width:0.522272;stroke-miterlimit:10"
   d="m 905.99029,360.72409 -1.93674,-1.19111 3.13639,-4.40701 c 1.72502,-2.42386 3.56777,-4.84291 4.09501,-5.37567 1.14328,-1.15524 2.89338,-0.78611 3.73579,0.78795 0.46937,0.87703 0.2413,1.50758 -1.35674,3.7511 -1.05652,1.48328 -2.66204,3.809 -3.56783,5.16827 -0.90578,1.35927 -1.76438,2.46829 -1.90801,2.46449 -0.14362,-0.004 -1.13267,-0.54291 -2.19787,-1.19802 z"
   id="path1097" /><path
   style="fill:#ffffff;stroke-width:0.261136;stroke-miterlimit:10"
   d="m 921.99271,370.1231 c -1.18491,-0.59794 -2.14544,-1.20795 -2.13451,-1.35556 0.0109,-0.14761 1.6267,-2.67736 3.59061,-5.62167 3.70555,-5.55535 4.35648,-6.22601 5.71256,-5.88566 0.36688,0.0921 1.00453,0.5049 1.417,0.91737 1.29958,1.29958 1.1284,1.77685 -2.76484,7.70848 -1.93314,2.94526 -3.54892,5.34809 -3.59062,5.33962 -0.0417,-0.008 -1.0453,-0.50463 -2.2302,-1.10258 z"
   id="path1101" /><path
   style="fill:#ffffff;stroke-width:0.261136;stroke-miterlimit:10"
   d="m 882.78467,428.19449 c -1.62631,-1.51919 -2.58943,0.13835 17.62649,-30.33548 10.14063,-15.28617 18.45454,-27.80843 18.47536,-27.82724 0.0208,-0.0188 1.05725,0.5151 2.30319,1.18645 l 2.26534,1.22065 -18.26519,27.53849 c -10.04586,15.14617 -18.56656,27.86165 -18.93489,28.25662 -0.94324,1.01145 -2.36256,0.9953 -3.4703,-0.0395 z"
   id="path1103" /><path
   style="fill:#ffffff;stroke-width:0.369302;stroke-miterlimit:10"
   d="m 897.88774,140.16975 c -0.99738,-1.38883 -1.89161,-2.04235 -4.71099,-3.44288 -3.19331,-1.58627 -3.46549,-1.80503 -3.30454,-2.65595 0.0965,-0.51 0.27897,-14.8038 0.40555,-31.76399 0.12657,-16.960187 0.3126,-31.127529 0.41338,-31.482982 0.16294,-0.574654 0.73734,-0.646278 5.18295,-0.646278 h 4.9997 l -0.18523,29.636473 c -0.16988,27.178187 -0.50939,37.822217 -1.30852,41.023377 l -0.26123,1.04645 z"
   id="path1107" /><path
   style="fill:#ffffff;stroke-width:0.369302;stroke-miterlimit:10"
   d="m 909.64077,146.99012 c -2.71897,-0.42707 -5.84464,-1.62365 -7.64169,-2.92542 l -1.45948,-1.05725 0.29736,-2.16214 c 0.8962,-6.51631 1.2174,-17.83431 1.23386,-43.476315 l 0.0175,-27.280696 14.58743,0.228026 c 8.02308,0.125415 22.19042,0.333106 31.48298,0.461537 l 16.89556,0.233511 v -1.340106 -1.340106 h 13.79069 13.79068 l 3.22659,3.508367 3.22658,3.508368 h 20.01257 20.0125 l 3.4938,-3.508368 3.4938,-3.508367 h 20.0225 20.0225 l 1.9582,3.500302 1.9583,3.500301 19.8482,0.0081 19.8482,0.0081 2.3099,-3.499627 2.3099,-3.499626 10.9867,-0.0087 10.9867,-0.0087 V 90.210105 112.0889 l -1.5366,5.20573 -1.5367,5.20574 -7.4189,0.82136 c -41.3443,4.57727 -76.953,7.59369 -109.9002,9.30963 -4.367,0.22744 -16.4479,0.46706 -26.8465,0.53249 -20.35653,0.12808 -25.04572,0.456 -42.58221,2.97782 -13.04266,1.87558 -18.61074,3.067 -30.81383,6.59332 -13.08735,3.78184 -20.93647,5.06267 -26.07689,4.25528 z"
   id="path1109" /><path
   style="fill:#ffffff;stroke-width:0.369302;stroke-miterlimit:10"
   d="m 983.38806,60.298846 c 0.44025,-7.035689 0.31628,-31.671716 -0.18888,-37.533956 -0.24303,-2.820246 -0.34917,-5.220421 -0.23586,-5.333723 0.1133,-0.113301 29.49188,0.585614 65.28578,1.553144 35.794,0.967531 71.2288,1.913403 78.744,2.101937 7.5153,0.188535 15.6759,0.441405 18.1346,0.561934 4.437,0.217504 4.4838,0.229272 6.2617,1.572984 2.2113,1.671327 4.0719,4.06192 4.5771,5.881002 0.2379,0.856808 0.3828,7.88645 0.3841,18.640415 v 17.264861 h -10.9997 -10.9998 l -2.5134,-3.511613 -2.5133,-3.511618 -19.4417,0.09558 -19.4416,0.09557 -2.3976,3.416042 -2.3976,3.416042 h -19.9587 -19.9588 l -3.1227,-3.139065 -3.1228,-3.139066 -20.1351,0.0011 -20.13509,0.0011 -3.38357,3.138046 -3.38356,3.137869 h -4.67708 -4.67708 z"
   id="path1111" /><path
   style="fill:#ffffff;stroke-width:0.369302;stroke-miterlimit:10"
   d="m 977.33357,62.456817 -1.56953,-2.544301 V 38.45536 16.998205 h 2.72256 2.72257 l 0.21523,1.384882 c 0.11837,0.761685 0.41093,4.957877 0.65012,9.324872 0.43027,7.855553 0.24739,32.930357 -0.26193,35.914604 -0.2223,1.302468 -0.3159,1.384693 -1.57292,1.38172 -1.2536,-0.003 -1.43399,-0.161104 -2.9061,-2.547466 z"
   id="path1113" /><path
   style="fill:#ffffff;stroke-width:0.369302;stroke-miterlimit:10"
   d="m 971.52977,53.282111 c -0.7192,-1.18915 -0.75244,-1.200231 -3.60069,-1.200231 h -2.87479 V 38.233061 24.384242 h 2.87479 c 2.84825,0 2.88149,-0.01108 3.60069,-1.200231 l 0.7259,-1.200231 0.0995,8.242068 c 0.0547,4.533137 0.0547,11.845314 0,16.249281 l -0.0995,8.007213 z"
   id="path1115" /><path
   style="fill:#ffffff;stroke-width:0.369302;stroke-miterlimit:10"
   d="m 932.74038,67.202804 c -9.95269,-0.135819 -23.87075,-0.269871 -30.92903,-0.297898 l -12.83324,-0.05095 v -5.90883 -5.908829 h -16.56133 -16.56133 l -0.24191,-5.043965 c -0.13304,-2.774181 -0.2419,-6.906757 -0.2419,-9.183501 v -4.139534 l -3.36304,-0.867029 c -2.77697,-0.715937 -3.42054,-1.018278 -3.69302,-1.734946 -0.18149,-0.477354 -0.32998,-3.41263 -0.32998,-6.522835 0,-4.451094 0.11234,-5.748152 0.52772,-6.092881 0.40084,-0.332671 10.944,-0.430192 43.85459,-0.405641 l 43.32688,0.03232 6.08928,-6.102359 6.08929,-6.1023602 h 7.16158 7.16157 l -0.2289,1.3848822 c -0.1259,0.761685 -0.23074,13.973458 -0.23297,29.359496 l -0.004,27.974614 -5.4472,-0.0714 c -2.99596,-0.03928 -13.59031,-0.182531 -23.54299,-0.318349 z M 956.8407,25.124841 c 4.77201,-2.909535 2.75418,-10.336284 -2.80966,-10.341066 -3.52158,-0.003 -5.59534,2.081449 -5.59534,5.624259 0,2.26072 0.732,3.532443 2.73701,4.755086 1.51646,0.924728 4.11734,0.907163 5.66799,-0.03828 z"
   id="path1117" /><path
   style="fill:#ffffff;stroke-width:0.369302;stroke-miterlimit:10"
   d="m 952.53261,24.267809 c -3.63663,-1.264819 -3.73549,-6.378171 -0.15226,-7.875343 2.63975,-1.102956 5.6572,0.820903 5.6572,3.606901 0,3.304647 -2.56272,5.291742 -5.50494,4.268442 z"
   id="path1119" /><path
   style="fill:#ffffff;stroke-width:0.369302;stroke-miterlimit:10"
   d="m 875.49859,19.522658 c 2.40131,-1.324848 4.15562,-4.044408 4.50345,-6.981332 0.11864,-1.001689 0.2341,-1.829287 0.25659,-1.839109 0.47372,-0.206897 46.67159,-1.4367543 54.32348,-1.4461732 l 10.70497,-0.013177 -5.34532,5.3548762 -5.34532,5.354877 -29.91823,-0.01123 c -22.02062,-0.0083 -29.72325,-0.118799 -29.17962,-0.418732 z"
   id="path1121" /><path
   style="fill:#ffffff;stroke-width:0.369302;stroke-miterlimit:10"
   d="m 864.60419,18.88475 c 0,-0.833926 -0.20432,-1.11915 -0.93262,-1.301942 -1.11937,-0.280945 -2.24867,-2.51626 -2.58086,-5.10855 l -0.2248,-1.754184 h -6.03619 -6.03618 l -2.52745,-2.6123423 c -1.3901,-1.4367884 -2.57331,-2.7376389 -2.62935,-2.890779 -0.1078,-0.2945924 1.52253,-1.1443119 2.19555,-1.1443119 0.21838,0 1.77249,1.342529 3.45357,2.9833978 l 3.05653,2.9833974 4.2618,-0.2624445 4.26181,-0.2624443 1.15156,-1.4329598 c 2.25724,-2.8088346 6.22991,-4.3771702 9.75033,-3.8492504 1.73749,0.2605532 4.95089,2.1559518 5.30422,3.1286506 0.11773,0.3241273 0.51815,0.9856521 0.8898,1.4700554 1.34153,1.748492 0.69399,5.736267 -1.27677,7.86275 -1.85751,2.004291 -5.81979,3.207276 -10.69607,3.247424 -1.28365,0.01057 -1.38488,-0.06666 -1.38488,-1.056467 z m 8.16235,-1.986232 c 4.63997,-3.099705 2.48145,-10.2407643 -3.09548,-10.2407643 -3.37467,0 -5.55994,2.1827386 -5.57213,5.5656763 -0.008,2.080302 1.14019,4.080015 2.81569,4.906004 1.77855,0.876788 4.34541,0.7755 5.85192,-0.230916 z"
   id="path1123" /><path
   style="fill:#ffffff;stroke-width:0.369302;stroke-miterlimit:10"
   d="m 868.30999,16.146432 c -1.4691,-0.505996 -2.96787,-2.482629 -2.96582,-3.911439 0.003,-2.408445 2.88737,-4.7857785 5.19162,-4.27968 0.5798,0.1273442 1.5597,0.8072934 2.17756,1.5109982 2.02301,2.3040848 1.22529,5.4325798 -1.69653,6.6533918 -0.67028,0.28006 -1.26557,0.49982 -1.32287,0.488356 -0.0573,-0.01146 -0.68008,-0.219196 -1.38396,-0.461627 z"
   id="path1125" /><path
   style="fill:#ffffff;stroke-width:0.261136;stroke-miterlimit:10"
   d="m 1157.5841,46.925974 -0.074,-18.083656 -0.7618,-1.566815 c -0.4943,-1.016545 -1.4573,-2.260375 -2.742,-3.541626 l -1.9801,-1.97481 4.9616,0.103582 c 4.035,0.08424 5.1323,0.188188 5.8756,0.556605 1.1237,0.556982 3.3348,3.421086 4.5704,5.920271 l 0.9134,1.84743 v 17.411337 17.411339 h -5.3448 -5.3447 z"
   id="path1127" /><path
   style="fill:#ffffff;stroke-width:0.261136;stroke-miterlimit:10"
   d="m 1154.7684,122.34589 c 0,-0.0954 0.6463,-2.32019 1.4362,-4.94398 l 1.4362,-4.77053 V 90.51789 68.404397 h 5.3533 5.3533 v 19.253855 19.253858 l -2.1169,7.44728 c -1.1643,4.09601 -2.1926,7.52365 -2.285,7.61699 -0.2266,0.22892 -9.1771,0.5893 -9.1771,0.36951 z"
   id="path1129" /><path
   style="fill:#ffffff;stroke-width:0.261136;stroke-miterlimit:10"
   d="M 1171.481,87.088515 V 68.143261 h 9.0176 c 6.9898,0 9.2066,0.07941 9.8579,0.353155 1.9061,0.801069 3.8705,3.792895 4.714,7.179621 0.227,0.911471 0.5326,1.801614 0.6791,1.978096 0.1465,0.176482 0.5309,1.369667 0.8543,2.651522 0.505,2.001971 0.5878,3.011926 0.5866,7.161658 0,5.55372 -0.3829,7.497996 -2.2667,11.555261 -0.8939,1.925336 -1.1576,2.284936 -1.6758,2.284936 -0.5021,0 -0.615,0.13667 -0.615,0.74479 0,1.06194 -1.0051,2.41284 -2.3603,3.17225 l -1.165,0.65284 -8.8133,0.0782 -8.8134,0.0782 z"
   id="path1131" /><path
   style="fill:#ffffff;stroke-width:0.261136;stroke-miterlimit:10"
   d="m 1196.0359,99.805981 c 1.0745,-2.260153 2.017,-5.476938 2.3632,-8.065308 0.3754,-2.806118 0.1654,-8.343775 -0.4146,-10.932324 -0.2252,-1.005373 -0.4785,-2.151106 -0.5629,-2.546074 l -0.1534,-0.718124 h 46.7687 46.7686 l 0.3905,1.370963 c 0.5942,2.086325 0.9058,4.423847 1.0879,8.160495 0.1481,3.03792 -0.165,9.953668 -0.5914,13.064881 l -0.16,1.16702 h -48.1052 -48.1052 z"
   id="path1133" /><path
   style="fill:#ffffff;stroke-width:0.261136;stroke-miterlimit:10"
   d="m 1294.7372,102.75829 c 0,-0.20744 0.189,-2.35202 0.4199,-4.765728 0.4939,-5.160958 0.3673,-14.75501 -0.2327,-17.641201 l -0.3665,-1.762667 h 30.4934 30.4935 l 0.2704,1.370964 c 1.7299,8.771288 1.4955,17.146336 -0.622,22.214042 l -0.4018,0.96176 h -30.0271 c -26.0025,0 -30.0271,-0.0506 -30.0271,-0.37717 z"
   id="path1135" /><path
   style="fill:#ffffff;stroke-width:0.261136;stroke-miterlimit:10"
   d="m 1169.392,115.49126 c 0,-0.0983 0.1918,-0.86235 0.4262,-1.6979 l 0.4263,-1.51918 64.385,0.0658 64.3851,0.0658 0.6032,1.55734 c 0.3318,0.85655 0.6032,1.59099 0.6032,1.6321 0,0.0411 -29.4365,0.0747 -65.4145,0.0747 -35.978,0 -65.4145,-0.0804 -65.4145,-0.17872 z"
   id="path1137" /><path
   style="fill:#ffffff;stroke-width:0.261136;stroke-miterlimit:10"
   d="m 1303.8028,115.63964 c -0.6871,-1.74498 -1.2039,-3.21796 -1.1486,-3.27329 0.055,-0.0553 2.9218,-0.0691 6.3699,-0.0306 l 6.2693,0.07 -1.3463,3.13363 -1.3462,3.13363 -3.7745,0.0696 -3.7744,0.0696 z"
   id="path1139" /><path
   style="fill:#ffffff;stroke-width:0.261136;stroke-miterlimit:10"
   d="m 1317.89,114.69072 c 0.224,-0.53859 0.5736,-1.30241 0.7768,-1.69738 l 0.3694,-0.71812 h 80.6641 80.6641 l 1.1865,1.69738 1.1866,1.69738 h -82.6275 -82.6274 z"
   id="path1141" /><path
   style="fill:#ffffff;stroke-width:0.261136;stroke-miterlimit:10"
   d="m 1293.8357,76.358702 c -0.2941,-0.703935 -0.3821,-2.026985 -0.369,-5.549137 0.015,-4.168222 -0.051,-5.106609 -0.4688,-6.648626 -0.1172,-0.43232 0.9531,-0.456987 19.8287,-0.456987 h 19.9525 l 3.3714,2.170125 c 5.4729,3.522787 12.9662,8.184662 15.8393,9.854239 l 2.6755,1.554699 h -30.2217 -30.2217 z"
   id="path1143" /><path
   style="fill:#ffffff;stroke-width:0.261136;stroke-miterlimit:10"
   d="m 1294.476,106.6608 v -2.21966 h 30.1612 30.1612 v 2.21966 2.21965 h -30.1612 -30.1612 z"
   id="path1145" /><path
   style="fill:#ffffff;stroke-width:0.261136;stroke-miterlimit:10"
   d="m 1292.2299,62.053834 c -0.083,-0.26125 -0.5221,-0.701478 -0.9761,-0.978282 -0.7863,-0.47942 -1.4523,-0.503324 -14.0497,-0.504254 l -13.2243,-9.76e-4 0.618,-2.002782 c 2.3213,-7.523879 2.8662,-16.846239 1.2948,-22.152283 -0.3828,-1.292622 -0.9826,-2.864446 -1.3328,-3.492941 -0.3502,-0.628495 -0.6367,-1.186673 -0.6367,-1.240395 0,-0.05372 9.7828,-0.09228 21.7396,-0.08567 l 21.7395,0.01201 11.524,15.39167 11.524,15.39167 -19.0348,0.06862 c -18.2074,0.06564 -19.0413,0.04798 -19.1855,-0.406383 z"
   id="path1147" /><path
   style="fill:#ffffff;stroke-width:0.261136;stroke-miterlimit:10"
   d="m 1171.481,48.468354 c 0,-6.656887 0.076,-13.179084 0.1697,-14.49377 l 0.1697,-2.39034 h 14.6818 14.6819 l 0.1273,1.325132 c 0.2188,2.277155 1.8577,3.750583 4.1337,3.716249 2.2817,-0.03442 3.9389,-1.644071 3.9999,-3.885129 l 0.031,-1.153064 h 1.9585 1.9585 l 0.031,1.153064 c 0.061,2.241058 1.7181,3.850706 3.9999,3.885129 2.2759,0.03433 3.9148,-1.439094 4.1336,-3.716249 l 0.1274,-1.325132 h 1.892 1.8921 l 0.1273,1.325132 c 0.2194,2.282569 1.8571,3.750592 4.1457,3.716067 2.2794,-0.03439 3.928,-1.645686 3.9886,-3.898144 l 0.031,-1.139867 1.9786,-0.0016 1.9786,-0.0016 -0.1135,0.773352 c -0.1627,1.10852 0.8328,3.005587 1.9346,3.686507 1.1909,0.736039 3.102,0.778086 4.2703,0.09396 1.2686,-0.74277 1.8892,-1.728287 2.0334,-3.228683 l 0.1273,-1.325134 h 8.1445 8.1444 l 0.6357,1.109827 c 1.9317,3.372677 2.6299,6.458749 2.6142,11.554709 -0.013,4.219519 -0.6098,8.306752 -1.9066,13.057344 l -0.8554,3.13363 -45.6335,0.06602 -45.6335,0.06602 z m 72.1471,6.893827 c 2.4544,-0.627729 3.3174,-1.066259 4.8259,-2.452231 1.392,-1.279043 1.8901,-2.323061 1.8901,-3.962189 0,-2.168701 -1.4784,-4.121855 -4.1226,-5.446567 -2.7359,-1.370691 -2.0281,-1.340949 -31.9142,-1.340949 h -27.8109 l -1.8598,0.584901 c -8.4745,2.66527 -7.9435,10.581714 0.8526,12.710979 1.2669,0.3067 6.2167,0.373973 28.8416,0.391996 26.2353,0.0209 27.3905,0.0017 29.2973,-0.48594 z"
   id="path1149" /><path
   style="fill:#ffffff;stroke-width:0.261136;stroke-miterlimit:10"
   d="m 1185.6478,54.160705 c -2.5615,-0.689759 -4.6781,-2.081352 -5.4572,-3.587924 -0.5979,-1.15631 -0.3369,-2.867736 0.6188,-4.058016 0.9881,-1.230483 3.5902,-2.541783 5.794,-2.919875 1.2268,-0.210465 9.5182,-0.27109 28.879,-0.21116 30.1731,0.0934 28.3508,-0.01486 31.0958,1.847296 2.1576,1.463639 2.915,3.014198 2.3191,4.747549 -0.663,1.928611 -3.1197,3.664494 -6.0737,4.291776 -0.9778,0.207629 -9.3677,0.288804 -28.5944,0.276661 -22.5865,-0.01427 -27.4435,-0.07991 -28.5814,-0.386307 z"
   id="path1151" /><path
   style="fill:#ffffff;stroke-width:0.261136;stroke-miterlimit:10"
   d="m 1359.185,100.72803 c 1.1808,-4.704686 1.3614,-11.744773 0.4571,-17.821108 -0.2993,-2.010746 -0.6543,-4.037813 -0.7891,-4.504593 l -0.245,-0.848692 h 49.5612 49.5612 l 0.5513,1.762667 c 2.2184,7.093319 2.391,13.782251 0.4994,19.356608 l -0.8529,2.513518 -49.4457,0.066 -49.4457,0.066 z"
   id="path1153" /><path
   style="fill:#ffffff;stroke-width:0.261136;stroke-miterlimit:10"
   d="m 1462.0455,103.91742 c 0,-1.39272 -0.058,-1.56682 -0.5223,-1.56682 -0.6368,0 -0.6366,0.0638 0,-1.3673 1.2117,-2.739277 1.6761,-5.558454 1.6889,-10.253241 0.013,-4.893482 -0.3787,-7.671758 -1.7247,-12.222257 -0.4165,-1.408127 -0.6886,-2.671372 -0.6047,-2.80721 0.094,-0.15274 10.8778,-0.246979 28.2606,-0.246979 h 28.1079 l -0.8346,0.861123 -0.8347,0.861124 v 12.0651 12.0651 h -2.1066 c -1.8851,0 -2.0922,0.0481 -1.9683,0.45699 0.2714,0.89563 0.6675,2.81471 0.6738,3.2642 0.01,0.43209 -1.359,0.45698 -25.0627,0.45698 h -25.069 z"
   id="path1155" /><path
   style="fill:#ffffff;stroke-width:0.261136;stroke-miterlimit:10"
   d="m 1492.2799,117.75956 c -3.9033,-0.68887 -7.0435,-3.55449 -10.3754,-9.46812 l -0.8459,-1.50153 h 15.546 15.5461 l -0.151,0.97926 c -0.449,2.91161 -2.275,5.60229 -4.6867,6.90599 -3.6421,1.96877 -11.8325,3.64924 -15.0331,3.0844 z"
   id="path1157" /><path
   style="fill:#ffffff;stroke-width:0.261136;stroke-miterlimit:10"
   d="m 1532.6909,98.966359 -1.5586,-1.577336 h -3.1861 -3.1862 l -3.024,1.42091 -3.024,1.420907 V 89.424454 c 0,-7.605521 0.085,-10.859199 0.2885,-10.984681 0.1637,-0.101201 1.2105,0.738974 2.4209,1.943108 l 2.1325,2.121399 h 3.7865 3.7864 l 2.3393,-2.350222 c 1.2867,-1.292622 2.4842,-2.350223 2.6612,-2.350223 0.3581,0 0.6152,0.849947 1.3034,4.308742 0.3666,1.842627 0.4638,3.56281 0.4499,7.964643 -0.016,5.08357 -0.077,5.836637 -0.6492,7.964643 l -0.6316,2.350227 -1.1751,0.0758 c -1.1274,0.0727 -1.2385,0.0117 -2.7338,-1.501531 z"
   id="path1159" /><path
   style="fill:#ffffff;stroke-width:0.261136;stroke-miterlimit:10"
   d="m 1461.6046,74.08265 c 0.075,-0.179531 6.5184,-13.781444 14.3176,-30.226473 l 14.1805,-29.900053 0.017,-4.3087417 c 0.011,-2.7142868 0.1319,-4.5744837 0.3274,-5.0268648 l 0.3104,-0.7181235 h 10.0197 c 11.2948,0 10.4723,-0.1531011 11.2936,2.1020511 0.8705,2.3901302 0.7369,7.9503029 -0.2978,12.3909879 -0.2961,1.270505 -0.3658,5.431189 -0.369,22.000694 v 20.433879 h 3.3001 3.3002 l -0.1623,1.370963 c -0.089,0.75403 -0.8105,3.305894 -1.6028,5.670805 -0.7922,2.364914 -1.4405,4.333226 -1.4405,4.374025 0,0.0408 0.9401,0.07418 2.0891,0.07418 h 2.0891 v 0.73118 c 0,0.402149 -0.141,0.872194 -0.3134,1.044544 -0.4675,0.467542 -57.2517,0.454548 -57.0551,-0.01306 z m 40.1283,-5.335671 c 1.7904,-0.57821 3.674,-2.286354 4.4744,-4.057534 0.5705,-1.262451 0.623,-1.719799 0.623,-5.426254 0,-3.901066 -0.026,-4.101321 -0.7286,-5.531275 -0.7899,-1.608565 -1.9235,-2.748138 -3.6527,-3.67216 -1.0922,-0.583607 -1.2022,-0.589159 -11.6786,-0.589159 h -10.576 l -1.4836,0.728593 c -1.6809,0.825447 -2.9076,2.090635 -3.7115,3.828016 -0.4843,1.046677 -0.5499,1.671021 -0.5499,5.235985 0,3.564964 0.066,4.189308 0.5499,5.235985 1.0079,2.17839 2.802,3.75224 5.0646,4.442981 0.359,0.109617 5.0754,0.209405 10.4807,0.221751 8.5379,0.01951 10.0065,-0.03523 11.1883,-0.416929 z m 1.8899,-26.39143 c 0.6775,-0.303338 1.835,-1.115682 2.5722,-1.805213 4.9285,-4.610035 3.5977,-12.569605 -2.5832,-15.449945 -1.257,-0.585803 -1.8387,-0.690621 -3.8322,-0.690621 -1.9935,0 -2.5751,0.104818 -3.8322,0.690621 -6.143,2.862702 -7.5113,10.840192 -2.6408,15.396007 2.2126,2.069616 3.6906,2.605937 6.8647,2.491027 1.5572,-0.05637 2.5873,-0.244956 3.4515,-0.631876 z"
   id="path1161" /><path
   style="fill:#ffffff;stroke-width:0.261136;stroke-miterlimit:10"
   d="m 1496.3849,41.024256 c -1.7845,-0.845559 -3.3263,-2.408788 -4.1295,-4.186782 -0.7945,-1.758997 -0.7536,-4.674137 0.09,-6.429793 2.4801,-5.15949 9.1202,-6.436536 13.044,-2.508661 1.789,1.790878 2.4713,3.382662 2.4751,5.774365 0,2.487407 -0.8576,4.400361 -2.7467,6.09878 -2.392,2.150642 -5.8045,2.63989 -8.7333,1.252091 z"
   id="path1163" /><path
   style="fill:none;stroke:#000000;stroke-miterlimit:10"
   inkscape:connector-curvature="0"
   id="path244"
   d="m 738.54045,122.3857 c 0,4.677 3.826,8.504 8.504,8.504 h 120.018 c 4.677,0 8.504,-3.827 8.504,-8.504 v -10.006 c 0,-4.677 -3.827,-8.504 -8.504,-8.504 h -120.019 c -4.678,0 -8.504,3.827 -8.504,8.504 v 10.006 z"
   stroke-miterlimit="10" /><circle
   style="fill:none;stroke:#000000;stroke-miterlimit:10"
   id="circle248"
   r="7.0469999"
   cy="132.4567"
   cx="-673.55145"
   stroke-miterlimit="10"
   transform="scale(-1,1)" /><circle
   style="fill:none;stroke:#000000;stroke-miterlimit:10"
   id="circle250"
   r="7.4380002"
   cy="126.9757"
   cx="-646.92749"
   stroke-miterlimit="10"
   transform="scale(-1,1)" /><circle
   style="fill:none;stroke:#000000;stroke-miterlimit:10"
   id="circle252"
   r="7.4380002"
   cy="139.50369"
   cx="-578.02246"
   stroke-miterlimit="10"
   transform="scale(-1,1)" /><circle
   style="fill:none;stroke:#000000;stroke-miterlimit:10"
   id="circle254"
   r="5.8720002"
   cy="103.87571"
   cx="-537.30542"
   stroke-miterlimit="10"
   transform="scale(-1,1)" /><path
   style="fill:#ffffff;stroke-width:0.261136;stroke:none"
   d="m 442.92114,137.13823 -9.69679,-18.5325 10e-4,-9.49121 c 6.5e-4,-5.22016 0.0774,-10.813199 0.17046,-12.428977 l 0.16928,-2.937778 h 226.77449 226.77449 l -0.15355,11.685825 c -0.0844,6.42721 -0.22348,15.5863 -0.30895,20.35354 l -0.1554,8.66772 -1.34106,0.14216 c -0.73758,0.0782 -8.97929,0.50094 -18.31489,0.93945 -9.33561,0.4385 -24.08326,1.14346 -32.77255,1.56657 -8.6893,0.42311 -97.05766,4.70211 -196.37415,9.50889 -99.31649,4.80678 -181.58801,8.81143 -182.82561,8.89921 l -2.25017,0.1596 z m 138.57485,9.65206 c 1.77512,-0.91296 3.05137,-2.23855 3.83379,-3.98202 0.64402,-1.43506 0.70835,-1.8315 0.6044,-3.72427 -0.13293,-2.42063 -0.69567,-3.76513 -2.20949,-5.27895 -3.89939,-3.89938 -10.42188,-2.77408 -13.02246,2.24672 -0.29917,0.57758 -0.5161,1.69711 -0.5894,3.04169 -0.10323,1.8936 -0.0391,2.29586 0.58295,3.6559 1.02619,2.24365 2.45761,3.56532 4.81686,4.44754 1.41018,0.52732 4.58725,0.31142 5.98335,-0.40661 z m 95.35708,-7.42962 c 2.70389,-1.26575 4.29159,-3.79673 4.28715,-6.83423 -0.004,-2.41667 -0.77412,-4.19028 -2.49142,-5.73427 -1.67016,-1.50162 -3.38059,-2.07471 -5.6974,-1.90894 -3.11996,0.22323 -5.4554,1.95419 -6.53805,4.84579 -2.41931,6.46165 4.18848,12.55797 10.43972,9.63165 z m -27.0709,-4.8778 c 3.00988,-1.12615 4.88135,-3.6747 5.0904,-6.93206 0.16277,-2.53637 -0.39045,-4.14517 -2.04972,-5.96067 -1.68061,-1.83886 -3.38062,-2.59044 -5.87085,-2.5955 -3.24148,-0.007 -5.78666,1.54411 -7.18012,4.37464 -0.9597,1.94943 -1.10225,4.2431 -0.39588,6.36978 0.73766,2.22088 2.94108,4.28295 5.36838,5.02397 1.25947,0.3845 3.6108,0.25374 5.03779,-0.28016 z m 220.63621,-3.60257 c 1.96301,-0.79315 3.82969,-2.50835 4.78777,-4.39924 l 0.77401,-1.52756 v -7.57294 -7.57294 l -0.77401,-1.52757 c -0.95808,-1.89089 -2.82476,-3.60608 -4.78777,-4.39923 l -1.48889,-0.6016 H 807.0403 745.15111 l -1.47466,0.59627 c -1.97586,0.79892 -3.59658,2.28128 -4.68107,4.28151 l -0.89494,1.65062 v 7.57294 7.57294 l 0.72726,1.38034 c 1.44476,2.74208 3.63851,4.43681 6.4658,4.995 0.65258,0.12884 28.04683,0.21285 62.39964,0.19136 l 61.23635,-0.0383 z M 539.21366,110.05402 c 1.65353,-0.49105 3.18982,-1.81203 3.96167,-3.40645 0.84666,-1.74897 0.66345,-4.51588 -0.41446,-6.25937 -3.31308,-5.35878 -11.84132,-2.980527 -11.86598,3.30904 -0.0126,3.21889 1.72568,5.6121 4.64785,6.39894 1.63352,0.43984 2.0645,0.4349 3.67092,-0.0422 z"
   id="path2372" /><path
   style="fill:#ffffff;stroke:none;stroke-width:0.369302"
   d="m 744.96372,129.82078 c -2.20668,-0.68907 -3.93401,-2.11349 -4.84503,-3.99541 -0.70404,-1.45435 -0.77565,-2.23842 -0.7683,-8.41166 0.007,-5.82261 0.10693,-7.02536 0.69091,-8.31114 0.8189,-1.80299 2.8822,-3.59049 4.81181,-4.16862 1.02961,-0.30847 17.80116,-0.42153 62.53371,-0.42153 h 61.12677 l 1.9753,1.03191 c 1.43679,0.75059 2.2789,1.5225 3.08891,2.83143 l 1.11361,1.79951 0.11639,6.65411 c 0.0959,5.48046 0.01,6.93399 -0.48958,8.24086 -0.84396,2.20989 -3.41388,4.39487 -5.76125,4.89829 -1.26789,0.27191 -20.56715,0.38732 -61.9276,0.37031 -49.042,-0.0202 -60.37609,-0.11538 -61.66565,-0.51806 z"
   id="path2737" /><path
   style="fill:#ffffff;stroke:none;stroke-width:0.369302"
   d="m 671.39074,138.4436 c -1.17971,-0.46903 -2.87145,-2.07085 -3.54133,-3.35311 -0.67705,-1.29597 -0.66685,-4.11225 0.0197,-5.43989 0.75222,-1.45464 2.5621,-2.89281 4.1847,-3.32527 4.11956,-1.09796 8.3063,2.69598 7.72854,7.00346 -0.5017,3.74048 -4.98113,6.47076 -8.39161,5.11481 z"
   id="path2739" /><path
   style="fill:#ffffff;stroke:none;stroke-width:0.369302"
   d="m 644.24706,133.07362 c -3.80578,-2.00635 -5.07203,-5.96203 -3.02607,-9.4532 1.34336,-2.29227 3.41814,-3.35522 6.16175,-3.15676 5.18068,0.37473 7.9173,5.9104 5.05793,10.23121 -1.71367,2.58953 -5.63458,3.72784 -8.19361,2.37875 z"
   id="path2741" /><path
   style="fill:#ffffff;stroke:none;stroke-width:0.369302"
   d="m 575.06511,145.45111 c -2.38961,-1.18283 -3.57051,-3.19065 -3.57051,-6.07074 0,-2.02312 0.13844,-2.47212 1.14706,-3.71999 2.39426,-2.96222 5.6612,-3.66156 8.7229,-1.86729 4.58772,2.68859 4.24045,9.54826 -0.59455,11.74392 -2.00226,0.90926 -3.7475,0.88298 -5.7049,-0.0859 z"
   id="path2743" /><path
   style="fill:#ffffff;stroke:none;stroke-width:0.369302"
   d="m 534.44176,108.01629 c -2.96276,-2.49301 -3.0244,-6.19537 -0.13737,-8.251123 1.62815,-1.159348 2.86827,-1.323603 4.703,-0.622917 5.2545,2.00671 4.20285,9.25284 -1.41046,9.71834 -1.7213,0.14274 -2.10376,0.0404 -3.15517,-0.8443 z"
   id="path2745" /></svg>
